<?xml version="1.0" standalone="no"?>
<!DOCTYPE svg PUBLIC "-//W3C//DTD SVG 20010904//EN"
  "http://www.w3.org/TR/2001/REC-SVG-20010904/DTD/svg10.dtd">
<svg width="16" height="16">
  <circle cx="0" cy="0" r="1" fill="srgba(0,196,255,1)"/>
  <circle cx="1" cy="0" r="1" fill="srgba(0,196,255,1)"/>
  <circle cx="2" cy="0" r="1" fill="srgba(0,196,255,1)"/>
  <circle cx="3" cy="0" r="1" fill="srgba(0,196,255,1)"/>
  <circle cx="4" cy="0" r="1" fill="srgba(0,196,255,1)"/>
  <circle cx="5" cy="0" r="1" fill="srgba(0,196,255,1)"/>
  <circle cx="6" cy="0" r="1" fill="srgba(0,196,255,1)"/>
  <circle cx="7" cy="0" r="1" fill="srgba(0,196,255,1)"/>
  <circle cx="8" cy="0" r="1" fill="srgba(0,196,255,1)"/>
  <circle cx="9" cy="0" r="1" fill="srgba(0,196,255,1)"/>
  <circle cx="10" cy="0" r="1" fill="srgba(0,196,255,1)"/>
  <circle cx="11" cy="0" r="1" fill="srgba(0,196,255,1)"/>
  <circle cx="12" cy="0" r="1" fill="srgba(0,196,255,1)"/>
  <circle cx="13" cy="0" r="1" fill="srgba(0,196,255,1)"/>
  <circle cx="14" cy="0" r="1" fill="srgba(0,196,255,1)"/>
  <circle cx="15" cy="0" r="1" fill="srgba(0,196,255,1)"/>
  <circle cx="0" cy="1" r="1" fill="srgba(0,196,255,1)"/>
  <circle cx="1" cy="1" r="1" fill="srgba(0,196,255,1)"/>
  <circle cx="2" cy="1" r="1" fill="srgba(0,196,255,1)"/>
  <circle cx="3" cy="1" r="1" fill="srgba(0,196,255,1)"/>
  <circle cx="4" cy="1" r="1" fill="srgba(0%,76.8658%,100%,1)"/>
  <circle cx="5" cy="1" r="1" fill="srgba(0%,76.8658%,100%,1)"/>
  <circle cx="6" cy="1" r="1" fill="srgba(0.0015259%,76.8566%,99.9924%,1)"/>
  <circle cx="7" cy="1" r="1" fill="srgba(0%,76.8734%,99.9954%,1)"/>
  <circle cx="8" cy="1" r="1" fill="srgba(0%,76.875%,99.9985%,1)"/>
  <circle cx="9" cy="1" r="1" fill="srgba(0%,76.8551%,99.9924%,1)"/>
  <circle cx="10" cy="1" r="1" fill="srgba(0%,76.8643%,100%,1)"/>
  <circle cx="11" cy="1" r="1" fill="srgba(0%,76.8673%,100%,1)"/>
  <circle cx="12" cy="1" r="1" fill="srgba(0,196,255,1)"/>
  <circle cx="13" cy="1" r="1" fill="srgba(0,196,255,1)"/>
  <circle cx="14" cy="1" r="1" fill="srgba(0,196,255,1)"/>
  <circle cx="15" cy="1" r="1" fill="srgba(0,196,255,1)"/>
  <circle cx="0" cy="2" r="1" fill="srgba(0,196,255,1)"/>
  <circle cx="1" cy="2" r="1" fill="srgba(0,196,255,1)"/>
  <circle cx="2" cy="2" r="1" fill="srgba(0,196,255,1)"/>
  <circle cx="3" cy="2" r="1" fill="srgba(0%,76.8658%,100%,1)"/>
  <circle cx="4" cy="2" r="1" fill="srgba(0.0549325%,76.8154%,99.8703%,1)"/>
  <circle cx="5" cy="2" r="1" fill="srgba(0.0289921%,76.8627%,99.9435%,1)"/>
  <circle cx="6" cy="2" r="1" fill="srgba(0.43946%,76.4553%,98.9792%,1)"/>
  <circle cx="7" cy="2" r="1" fill="srgba(0.723278%,76.2554%,98.4085%,1)"/>
  <circle cx="8" cy="2" r="1" fill="srgba(0.898756%,76.4157%,98.468%,1)"/>
  <circle cx="9" cy="2" r="1" fill="srgba(0.769055%,76.4218%,98.5885%,1)"/>
  <circle cx="10" cy="2" r="1" fill="srgba(0.0228885%,76.8643%,99.9542%,1)"/>
  <circle cx="11" cy="2" r="1" fill="srgba(0.0839246%,76.8032%,99.8184%,1)"/>
  <circle cx="12" cy="2" r="1" fill="srgba(0%,76.8658%,100%,1)"/>
  <circle cx="13" cy="2" r="1" fill="srgba(0,196,255,1)"/>
  <circle cx="14" cy="2" r="1" fill="srgba(0,196,255,1)"/>
  <circle cx="15" cy="2" r="1" fill="srgba(0,196,255,1)"/>
  <circle cx="0" cy="3" r="1" fill="srgba(0%,76.8505%,100%,1)"/>
  <circle cx="1" cy="3" r="1" fill="srgba(0%,76.8505%,100%,1)"/>
  <circle cx="2" cy="3" r="1" fill="srgba(0%,76.8551%,100%,1)"/>
  <circle cx="3" cy="3" r="1" fill="srgba(0%,76.8841%,100%,1)"/>
  <circle cx="4" cy="3" r="1" fill="srgba(0.883497%,76.3973%,98.4024%,1)"/>
  <circle cx="5" cy="3" r="1" fill="srgba(1.56558%,76.1242%,97.2869%,1)"/>
  <circle cx="6" cy="3" r="1" fill="srgba(1.30922%,76.1791%,97.6471%,1)"/>
  <circle cx="7" cy="3" r="1" fill="srgba(3.73541%,75.6741%,94.3557%,1)"/>
  <circle cx="8" cy="3" r="1" fill="srgba(4.89357%,75.9411%,93.4478%,1)"/>
  <circle cx="9" cy="3" r="1" fill="srgba(2.1973%,76.1517%,96.6506%,1)"/>
  <circle cx="10" cy="3" r="1" fill="srgba(1.39773%,76.2585%,97.6486%,1)"/>
  <circle cx="11" cy="3" r="1" fill="srgba(1.16579%,76.2539%,97.9019%,1)"/>
  <circle cx="12" cy="3" r="1" fill="srgba(0%,76.8719%,100%,1)"/>
  <circle cx="13" cy="3" r="1" fill="srgba(0%,76.8566%,100%,1)"/>
  <circle cx="14" cy="3" r="1" fill="srgba(0%,76.8505%,100%,1)"/>
  <circle cx="15" cy="3" r="1" fill="srgba(0%,76.8505%,100%,1)"/>
  <circle cx="0" cy="4" r="1" fill="srgba(0.590524%,77.0001%,100%,1)"/>
  <circle cx="1" cy="4" r="1" fill="srgba(0.587472%,77.0047%,100%,1)"/>
  <circle cx="2" cy="4" r="1" fill="srgba(0.613413%,76.939%,99.8978%,1)"/>
  <circle cx="3" cy="4" r="1" fill="srgba(1.29854%,76.4935%,98.5183%,1)"/>
  <circle cx="4" cy="4" r="1" fill="srgba(3.41802%,76.2997%,95.9167%,1)"/>
  <circle cx="5" cy="4" r="1" fill="srgba(6.46525%,76.1013%,92.4071%,1)"/>
  <circle cx="6" cy="4" r="1" fill="srgba(5.07668%,75.79%,93.608%,1)"/>
  <circle cx="7" cy="4" r="1" fill="srgba(9.04555%,76.2463%,89.5949%,1)"/>
  <circle cx="8" cy="4" r="1" fill="srgba(10.7271%,76.6201%,88.1697%,1)"/>
  <circle cx="9" cy="4" r="1" fill="srgba(6.19669%,75.9045%,92.5475%,1)"/>
  <circle cx="10" cy="4" r="1" fill="srgba(6.43931%,76.0922%,92.4056%,1)"/>
  <circle cx="11" cy="4" r="1" fill="srgba(3.84985%,76.26%,95.4192%,1)"/>
  <circle cx="12" cy="4" r="1" fill="srgba(1.62814%,76.4721%,98.117%,1)"/>
  <circle cx="13" cy="4" r="1" fill="srgba(0.697337%,76.8902%,99.7345%,1)"/>
  <circle cx="14" cy="4" r="1" fill="srgba(0.581369%,77.0077%,100%,1)"/>
  <circle cx="15" cy="4" r="1" fill="srgba(0.590524%,77.0001%,100%,1)"/>
  <circle cx="0" cy="5" r="1" fill="srgba(65.1911%,91.9493%,100%,1)"/>
  <circle cx="1" cy="5" r="1" fill="srgba(65.1911%,91.9539%,100%,1)"/>
  <circle cx="2" cy="5" r="1" fill="srgba(65.2842%,91.9677%,99.9664%,1)"/>
  <circle cx="3" cy="5" r="1" fill="srgba(65.3803%,90.9712%,97.6989%,1)"/>
  <circle cx="4" cy="5" r="1" fill="srgba(65.7374%,89.897%,92.7184%,1)"/>
  <circle cx="5" cy="5" r="1" fill="srgba(67.4174%,89.9718%,88.9845%,1)"/>
  <circle cx="6" cy="5" r="1" fill="srgba(66.3813%,87.5212%,80.1923%,1)"/>
  <circle cx="7" cy="5" r="1" fill="srgba(66.7704%,85.2644%,68.9631%,1)"/>
  <circle cx="8" cy="5" r="1" fill="srgba(67.7623%,85.481%,66.9383%,1)"/>
  <circle cx="9" cy="5" r="1" fill="srgba(66.4057%,86.9429%,77.5708%,1)"/>
  <circle cx="10" cy="5" r="1" fill="srgba(67.6967%,89.8787%,88.1804%,1)"/>
  <circle cx="11" cy="5" r="1" fill="srgba(65.7664%,89.8024%,91.7754%,1)"/>
  <circle cx="12" cy="5" r="1" fill="srgba(65.478%,90.6325%,96.4492%,1)"/>
  <circle cx="13" cy="5" r="1" fill="srgba(65.3819%,91.9005%,99.762%,1)"/>
  <circle cx="14" cy="5" r="1" fill="srgba(65.185%,91.9585%,100%,1)"/>
  <circle cx="15" cy="5" r="1" fill="srgba(65.1911%,91.9493%,100%,1)"/>
  <circle cx="0" cy="6" r="1" fill="srgba(100%,100%,99.8993%,1)"/>
  <circle cx="1" cy="6" r="1" fill="srgba(100%,99.9863%,99.8596%,1)"/>
  <circle cx="2" cy="6" r="1" fill="srgba(100%,99.4278%,98.1979%,1)"/>
  <circle cx="3" cy="6" r="1" fill="srgba(99.9985%,98.912%,96.5148%,1)"/>
  <circle cx="4" cy="6" r="1" fill="srgba(99.53%,97.6226%,93.2692%,1)"/>
  <circle cx="5" cy="6" r="1" fill="srgba(98.8785%,94.9493%,79.9802%,1)"/>
  <circle cx="6" cy="6" r="1" fill="srgba(97.7676%,89.7948%,52.9686%,1)"/>
  <circle cx="7" cy="6" r="1" fill="srgba(95.9762%,86.0777%,38.7854%,1)"/>
  <circle cx="8" cy="6" r="1" fill="srgba(96.3272%,86.1326%,37.2488%,1)"/>
  <circle cx="9" cy="6" r="1" fill="srgba(97.9339%,89.3538%,49.2226%,1)"/>
  <circle cx="10" cy="6" r="1" fill="srgba(98.7335%,94.2992%,76.5011%,1)"/>
  <circle cx="11" cy="6" r="1" fill="srgba(99.2264%,97.2015%,92.5414%,1)"/>
  <circle cx="12" cy="6" r="1" fill="srgba(99.9512%,98.9395%,97.377%,1)"/>
  <circle cx="13" cy="6" r="1" fill="srgba(100%,99.5193%,98.7274%,1)"/>
  <circle cx="14" cy="6" r="1" fill="srgba(100%,99.968%,99.8032%,1)"/>
  <circle cx="15" cy="6" r="1" fill="srgba(100%,100%,99.9023%,1)"/>
  <circle cx="0" cy="7" r="1" fill="srgba(98.7564%,98.1674%,95.7397%,1)"/>
  <circle cx="1" cy="7" r="1" fill="srgba(98.7488%,98.1201%,95.5764%,1)"/>
  <circle cx="2" cy="7" r="1" fill="srgba(97.8912%,97.0153%,93.1273%,1)"/>
  <circle cx="3" cy="7" r="1" fill="srgba(97.438%,95.967%,88.8624%,1)"/>
  <circle cx="4" cy="7" r="1" fill="srgba(97.6989%,95.8831%,86.5614%,1)"/>
  <circle cx="5" cy="7" r="1" fill="srgba(96.8811%,92.3842%,68.2689%,1)"/>
  <circle cx="6" cy="7" r="1" fill="srgba(93.9651%,84.947%,37.1847%,1)"/>
  <circle cx="7" cy="7" r="1" fill="srgba(93.2631%,80.0809%,13.286%,1)"/>
  <circle cx="8" cy="7" r="1" fill="srgba(93.753%,80.0641%,10.1213%,1)"/>
  <circle cx="9" cy="7" r="1" fill="srgba(93.193%,83.6194%,33.2189%,1)"/>
  <circle cx="10" cy="7" r="1" fill="srgba(96.1257%,90.9255%,63.0442%,1)"/>
  <circle cx="11" cy="7" r="1" fill="srgba(97.5006%,95.845%,87.1901%,1)"/>
  <circle cx="12" cy="7" r="1" fill="srgba(97.3373%,96.1517%,90.4036%,1)"/>
  <circle cx="13" cy="7" r="1" fill="srgba(97.7676%,96.9741%,93.5012%,1)"/>
  <circle cx="14" cy="7" r="1" fill="srgba(98.7137%,98.0758%,95.4849%,1)"/>
  <circle cx="15" cy="7" r="1" fill="srgba(98.7549%,98.1582%,95.7137%,1)"/>
  <circle cx="0" cy="8" r="1" fill="srgba(99.8535%,99.7833%,99.4965%,1)"/>
  <circle cx="1" cy="8" r="1" fill="srgba(99.8581%,99.7864%,99.5056%,1)"/>
  <circle cx="2" cy="8" r="1" fill="srgba(98.9624%,98.7442%,97.6745%,1)"/>
  <circle cx="3" cy="8" r="1" fill="srgba(98.2055%,97.4823%,93.6873%,1)"/>
  <circle cx="4" cy="8" r="1" fill="srgba(98.1521%,96.788%,89.5201%,1)"/>
  <circle cx="5" cy="8" r="1" fill="srgba(96.6796%,92.488%,69.9519%,1)"/>
  <circle cx="6" cy="8" r="1" fill="srgba(93.8521%,85.42%,40.4913%,1)"/>
  <circle cx="7" cy="8" r="1" fill="srgba(92.2576%,77.763%,9.6788%,1)"/>
  <circle cx="8" cy="8" r="1" fill="srgba(95.9487%,80.3754%,2.09201%,1)"/>
  <circle cx="9" cy="8" r="1" fill="srgba(95.0454%,85.1118%,32.0027%,1)"/>
  <circle cx="10" cy="8" r="1" fill="srgba(96.1166%,90.9606%,63.241%,1)"/>
  <circle cx="11" cy="8" r="1" fill="srgba(98.0148%,96.3394%,87.3823%,1)"/>
  <circle cx="12" cy="8" r="1" fill="srgba(98.143%,97.2107%,92.2927%,1)"/>
  <circle cx="13" cy="8" r="1" fill="srgba(98.6954%,98.3413%,96.5393%,1)"/>
  <circle cx="14" cy="8" r="1" fill="srgba(99.8108%,99.7375%,99.4461%,1)"/>
  <circle cx="15" cy="8" r="1" fill="srgba(99.855%,99.7848%,99.4965%,1)"/>
  <circle cx="0" cy="9" r="1" fill="white"/>
  <circle cx="1" cy="9" r="1" fill="srgba(100%,99.9969%,99.9817%,1)"/>
  <circle cx="2" cy="9" r="1" fill="srgba(100%,99.704%,99.0921%,1)"/>
  <circle cx="3" cy="9" r="1" fill="srgba(99.9985%,99.2203%,97.8576%,1)"/>
  <circle cx="4" cy="9" r="1" fill="srgba(99.4903%,97.6593%,93.7911%,1)"/>
  <circle cx="5" cy="9" r="1" fill="srgba(98.8937%,95.2071%,81.6632%,1)"/>
  <circle cx="6" cy="9" r="1" fill="srgba(97.2229%,89.6269%,54.9172%,1)"/>
  <circle cx="7" cy="9" r="1" fill="srgba(93.1411%,79.8871%,17.2015%,1)"/>
  <circle cx="8" cy="9" r="1" fill="srgba(95.7595%,79.9329%,0%,1)"/>
  <circle cx="9" cy="9" r="1" fill="srgba(99.382%,86.4729%,16.8139%,1)"/>
  <circle cx="10" cy="9" r="1" fill="srgba(97.6532%,93.164%,70.0603%,1)"/>
  <circle cx="11" cy="9" r="1" fill="srgba(99.118%,97.2854%,92.9808%,1)"/>
  <circle cx="12" cy="9" r="1" fill="srgba(99.971%,99.0112%,97.3114%,1)"/>
  <circle cx="13" cy="9" r="1" fill="srgba(100%,99.6124%,98.7991%,1)"/>
  <circle cx="14" cy="9" r="1" fill="srgba(100%,99.9786%,99.9161%,1)"/>
  <circle cx="15" cy="9" r="1" fill="white"/>
  <circle cx="0" cy="10" r="1" fill="srgba(63.2471%,91.4961%,100%,1)"/>
  <circle cx="1" cy="10" r="1" fill="srgba(63.2441%,91.5007%,100%,1)"/>
  <circle cx="2" cy="10" r="1" fill="srgba(63.3783%,91.5023%,99.9161%,1)"/>
  <circle cx="3" cy="10" r="1" fill="srgba(63.5035%,90.4173%,97.1923%,1)"/>
  <circle cx="4" cy="10" r="1" fill="srgba(63.6011%,89.514%,93.1655%,1)"/>
  <circle cx="5" cy="10" r="1" fill="srgba(65.33%,89.6773%,90.0465%,1)"/>
  <circle cx="6" cy="10" r="1" fill="srgba(64.5991%,87.2145%,81.2909%,1)"/>
  <circle cx="7" cy="10" r="1" fill="srgba(81.4466%,79.2508%,28.1514%,1)"/>
  <circle cx="8" cy="10" r="1" fill="srgba(97.5311%,80.6439%,0%,1)"/>
  <circle cx="9" cy="10" r="1" fill="srgba(100%,84.5838%,0.492866%,1)"/>
  <circle cx="10" cy="10" r="1" fill="srgba(92.8435%,88.5954%,39.4553%,1)"/>
  <circle cx="11" cy="10" r="1" fill="srgba(66.4317%,89.6513%,89.7597%,1)"/>
  <circle cx="12" cy="10" r="1" fill="srgba(63.3417%,90.1488%,96.6049%,1)"/>
  <circle cx="13" cy="10" r="1" fill="srgba(63.444%,91.4397%,99.7421%,1)"/>
  <circle cx="14" cy="10" r="1" fill="srgba(63.241%,91.5068%,100%,1)"/>
  <circle cx="15" cy="10" r="1" fill="srgba(63.2471%,91.4961%,100%,1)"/>
  <circle cx="0" cy="11" r="1" fill="srgba(0.18616%,76.9055%,100%,1)"/>
  <circle cx="1" cy="11" r="1" fill="srgba(0.181582%,76.91%,100%,1)"/>
  <circle cx="2" cy="11" r="1" fill="srgba(0.247196%,76.849%,99.8596%,1)"/>
  <circle cx="3" cy="11" r="1" fill="srgba(0.801099%,76.4614%,98.7091%,1)"/>
  <circle cx="4" cy="11" r="1" fill="srgba(2.32242%,76.199%,96.7178%,1)"/>
  <circle cx="5" cy="11" r="1" fill="srgba(5.18044%,75.9747%,93.3532%,1)"/>
  <circle cx="6" cy="11" r="1" fill="srgba(5.17891%,75.6527%,93.077%,1)"/>
  <circle cx="7" cy="11" r="1" fill="srgba(59.9817%,75.5596%,34.7616%,1)"/>
  <circle cx="8" cy="11" r="1" fill="srgba(98.5534%,80.5646%,0%,1)"/>
  <circle cx="9" cy="11" r="1" fill="srgba(100%,84.4404%,0%,1)"/>
  <circle cx="10" cy="11" r="1" fill="srgba(96.3592%,84.0116%,3.83459%,1)"/>
  <circle cx="11" cy="11" r="1" fill="srgba(40.8255%,79.617%,58.941%,1)"/>
  <circle cx="12" cy="11" r="1" fill="srgba(0.764477%,76.347%,98.7167%,1)"/>
  <circle cx="13" cy="11" r="1" fill="srgba(0.230411%,76.7941%,99.8062%,1)"/>
  <circle cx="14" cy="11" r="1" fill="srgba(0.178531%,76.9131%,100%,1)"/>
  <circle cx="15" cy="11" r="1" fill="srgba(0.18616%,76.9055%,100%,1)"/>
  <circle cx="0" cy="12" r="1" fill="srgba(0%,76.8551%,100%,1)"/>
  <circle cx="1" cy="12" r="1" fill="srgba(0%,76.8551%,100%,1)"/>
  <circle cx="2" cy="12" r="1" fill="srgba(0%,76.8582%,100%,1)"/>
  <circle cx="3" cy="12" r="1" fill="srgba(0%,76.8887%,100%,1)"/>
  <circle cx="4" cy="12" r="1" fill="srgba(0.709545%,76.4218%,98.6282%,1)"/>
  <circle cx="5" cy="12" r="1" fill="srgba(1.35348%,76.1501%,97.5647%,1)"/>
  <circle cx="6" cy="12" r="1" fill="srgba(1.91958%,76.1135%,96.936%,1)"/>
  <circle cx="7" cy="12" r="1" fill="srgba(59.2035%,75.0759%,35.14%,1)"/>
  <circle cx="8" cy="12" r="1" fill="srgba(98.2788%,80.0671%,0%,1)"/>
  <circle cx="9" cy="12" r="1" fill="srgba(100%,84.4587%,0%,1)"/>
  <circle cx="10" cy="12" r="1" fill="srgba(100%,84.3732%,0%,1)"/>
  <circle cx="11" cy="12" r="1" fill="srgba(89.25%,83.5615%,10.7515%,1)"/>
  <circle cx="12" cy="12" r="1" fill="srgba(24.3122%,78.6648%,75.6817%,1)"/>
  <circle cx="13" cy="12" r="1" fill="srgba(0%,76.7651%,100%,1)"/>
  <circle cx="14" cy="12" r="1" fill="srgba(0%,76.8551%,100%,1)"/>
  <circle cx="15" cy="12" r="1" fill="srgba(0%,76.8551%,100%,1)"/>
  <circle cx="0" cy="13" r="1" fill="srgba(0,196,255,1)"/>
  <circle cx="1" cy="13" r="1" fill="srgba(0,196,255,1)"/>
  <circle cx="2" cy="13" r="1" fill="srgba(0,196,255,1)"/>
  <circle cx="3" cy="13" r="1" fill="srgba(0%,76.8658%,100%,1)"/>
  <circle cx="4" cy="13" r="1" fill="srgba(0.0595102%,76.8231%,99.8703%,1)"/>
  <circle cx="5" cy="13" r="1" fill="srgba(0%,76.8704%,99.9908%,1)"/>
  <circle cx="6" cy="13" r="1" fill="srgba(0.697337%,76.3897%,98.6511%,1)"/>
  <circle cx="7" cy="13" r="1" fill="srgba(59.1073%,75.5673%,36.1288%,1)"/>
  <circle cx="8" cy="13" r="1" fill="srgba(98.3444%,79.8795%,0%,1)"/>
  <circle cx="9" cy="13" r="1" fill="srgba(100%,84.4678%,0%,1)"/>
  <circle cx="10" cy="13" r="1" fill="srgba(100%,84.3122%,0%,1)"/>
  <circle cx="11" cy="13" r="1" fill="srgba(100%,84.4083%,0%,1)"/>
  <circle cx="12" cy="13" r="1" fill="srgba(78.1537%,82.7146%,21.8463%,1)"/>
  <circle cx="13" cy="13" r="1" fill="srgba(12.4407%,77.7523%,87.5593%,1)"/>
  <circle cx="14" cy="13" r="1" fill="srgba(0%,76.7926%,100%,1)"/>
  <circle cx="15" cy="13" r="1" fill="srgba(0%,76.8643%,100%,1)"/>
  <circle cx="0" cy="14" r="1" fill="srgba(0%,76.8612%,100%,1)"/>
  <circle cx="1" cy="14" r="1" fill="srgba(0%,76.8612%,100%,1)"/>
  <circle cx="2" cy="14" r="1" fill="srgba(0%,76.8612%,100%,1)"/>
  <circle cx="3" cy="14" r="1" fill="srgba(0%,76.8612%,100%,1)"/>
  <circle cx="4" cy="14" r="1" fill="srgba(0%,76.8643%,100%,1)"/>
  <circle cx="5" cy="14" r="1" fill="srgba(0%,76.8673%,100%,1)"/>
  <circle cx="6" cy="14" r="1" fill="srgba(0.0488289%,76.7514%,99.8398%,1)"/>
  <circle cx="7" cy="14" r="1" fill="srgba(59.1455%,76.1471%,36.91%,1)"/>
  <circle cx="8" cy="14" r="1" fill="srgba(98.6145%,80.0092%,0%,1)"/>
  <circle cx="9" cy="14" r="1" fill="srgba(100%,84.4648%,0%,1)"/>
  <circle cx="10" cy="14" r="1" fill="gold"/>
  <circle cx="11" cy="14" r="1" fill="srgba(100%,84.3168%,0%,1)"/>
  <circle cx="12" cy="14" r="1" fill="srgba(100%,84.3824%,0%,1)"/>
  <circle cx="13" cy="14" r="1" fill="srgba(63.6179%,81.6159%,36.3821%,1)"/>
  <circle cx="14" cy="14" r="1" fill="srgba(4.91035%,77.2107%,95.0896%,1)"/>
  <circle cx="15" cy="14" r="1" fill="srgba(0%,76.8307%,100%,1)"/>
  <circle cx="0" cy="15" r="1" fill="srgba(0.0534066%,76.878%,100%,1)"/>
  <circle cx="1" cy="15" r="1" fill="srgba(0.0534066%,76.878%,100%,1)"/>
  <circle cx="2" cy="15" r="1" fill="srgba(0.0534066%,76.878%,100%,1)"/>
  <circle cx="3" cy="15" r="1" fill="srgba(0.0534066%,76.878%,100%,1)"/>
  <circle cx="4" cy="15" r="1" fill="srgba(0.0534066%,76.878%,100%,1)"/>
  <circle cx="5" cy="15" r="1" fill="srgba(0.0259403%,76.8811%,100%,1)"/>
  <circle cx="6" cy="15" r="1" fill="srgba(0.10071%,76.7575%,99.8413%,1)"/>
  <circle cx="7" cy="15" r="1" fill="srgba(59.1867%,76.3699%,36.91%,1)"/>
  <circle cx="8" cy="15" r="1" fill="srgba(98.764%,80.3967%,0%,1)"/>
  <circle cx="9" cy="15" r="1" fill="srgba(100%,84.4465%,0%,1)"/>
  <circle cx="10" cy="15" r="1" fill="gold"/>
  <circle cx="11" cy="15" r="1" fill="gold"/>
  <circle cx="12" cy="15" r="1" fill="srgba(100%,84.3336%,0%,1)"/>
  <circle cx="13" cy="15" r="1" fill="srgba(97.6944%,84.1947%,2.30411%,1)"/>
  <circle cx="14" cy="15" r="1" fill="srgba(41.0117%,79.9268%,59.0005%,1)"/>
  <circle cx="15" cy="15" r="1" fill="srgba(0%,76.8261%,100%,1)"/>
</svg>
