<?xml version="1.0" encoding="utf-8"?>
<!-- Generator: Adobe Illustrator 26.0.3, SVG Export Plug-In . SVG Version: 6.00 Build 0)  -->
<svg version="1.0" id="katman_1" xmlns="http://www.w3.org/2000/svg" xmlns:xlink="http://www.w3.org/1999/xlink" x="0px" y="0px"
	 viewBox="0 0 600 450" style="enable-background:new 0 0 600 450;" xml:space="preserve">
<style type="text/css">
	.st0{fill-rule:evenodd;clip-rule:evenodd;fill:#002B5C;}
	
		.st1{clip-path:url(#SVGID_00000075850256332166524770000014809043113419771327_);fill-rule:evenodd;clip-rule:evenodd;fill:#FFD200;}
	
		.st2{clip-path:url(#SVGID_00000075850256332166524770000014809043113419771327_);fill-rule:evenodd;clip-rule:evenodd;fill:#002B5C;}
	
		.st3{clip-path:url(#SVGID_00000075850256332166524770000014809043113419771327_);fill-rule:evenodd;clip-rule:evenodd;fill:#E31937;}
	
		.st4{clip-path:url(#SVGID_00000075850256332166524770000014809043113419771327_);fill-rule:evenodd;clip-rule:evenodd;fill:#004B8D;}
	.st5{fill-rule:evenodd;clip-rule:evenodd;fill:#004B8D;}
	.st6{fill-rule:evenodd;clip-rule:evenodd;fill:#33619E;}
	.st7{fill-rule:evenodd;clip-rule:evenodd;fill:#FFD200;}
	.st8{fill-rule:evenodd;clip-rule:evenodd;fill:#E31937;}
	.st9{fill-rule:evenodd;clip-rule:evenodd;fill:#FFE694;}
	.st10{fill-rule:evenodd;clip-rule:evenodd;fill:#FFFFFF;}
</style>
<g>
	<path class="st0" d="M310.8,351.3c-3.2-0.3-8,0.2-8,0.2c4.2-2.8,5.4-3.1,5.6-3.1c-7.8,0.1-12.1,1.7-12.1,1.7c2.3-2,4.7-3.8,7.3-5.4
		h-52.1l1.3-3c0,0-4.7,3-9.1,3l-94,0l26.1-37.4l-9.6,2l9-9.9l-15.3,3.8c0,0,17.8-21.3,39.1-21c4.7,0,40.1,0,54.2,0
		c18.3,0,19.2,4.2,19.2,4.7c0-4.4-4.8-4.8-4.8-4.8h76.8l5.1,0h92l63.2,7.3l-16.8,55.4h-24.3l-4.8,6.6c0,0,0.6,1.4-0.8,8.6
		c-1.4,7.3-10,14.6-21.2,14.6c-17.2,0-88.3,0-112.8,0C302.9,374.5,308.6,356.8,310.8,351.3"/>
	<g>
		<defs>
			<rect id="SVGID_1_" x="79" y="74.6" width="441" height="300.8"/>
		</defs>
		<clipPath id="SVGID_00000079460059349513683830000008321044183339659941_">
			<use xlink:href="#SVGID_1_"  style="overflow:visible;"/>
		</clipPath>
		
			<path style="clip-path:url(#SVGID_00000079460059349513683830000008321044183339659941_);fill-rule:evenodd;clip-rule:evenodd;fill:#FFD200;" d="
			M341.6,341.8l-3.6,10.6c-1.1-1.5-2.8-2.8-5.2-2.8c-3.2,0-6.6,2.4-7.8,5.4c-1.1,3.1,0.7,5.4,3.9,5.4c2.4,0,4.7-1,7-2.6l-4.2,10.4
			c-2,0.8-6.1,1.1-7.9,1.1c-8.3,0-12.5-6.2-9.5-14.2c0.9-2.5,2.4-4.8,4.3-6.8c-2.3,0.1-4.7,0.3-7,0.5c5.3-3.2,8.3-3.6,9.4-3.7
			c-7.8-0.2-11.9,1.1-11.9,1.1c10.5-5.1,19.6-7.1,28.6-5.5C339,341,340.4,341.3,341.6,341.8 M320.9,345.2l0.5,0
			C321.4,345.2,321.3,345.2,320.9,345.2"/>
		
			<path style="clip-path:url(#SVGID_00000079460059349513683830000008321044183339659941_);fill-rule:evenodd;clip-rule:evenodd;fill:#002B5C;" d="
			M79,127.4c0,0,218.1-150.7,380.3,57c0,0,90,57.5,50.2,135l-8.4-24.1c0,0-36.6-0.5-83.2-18.8c-46.6-18.3-85.8-3.1-85.8-3.1
			s1-10.5,9.9-18.3c0,0-41.9,15.7-47.1,28.2c0,0,2.1-22,12-33.5c0,0-24.1,5.8-45.5,20.4c0,0,4.7-23,26.7-37.2
			c0,0-47.6,0.5-95.2,26.2c0,0,34-63.3,86.8-84.2c0,0-43.4-14.1-102-6.8c0,0,27.7-31.4,71.7-37.1C249.5,131,152.8,111.7,79,127.4"/>
		
			<path style="clip-path:url(#SVGID_00000079460059349513683830000008321044183339659941_);fill-rule:evenodd;clip-rule:evenodd;fill:#E31937;" d="
			M198.1,288.7h1.7l3.3,0l16.7,0l2,30.6l8.2-26.6c0.1-0.9,0.2-1.8-0.1-2.5c-0.7-1.5-2.3-1.6-2.3-1.6l8.7,0.1h13.6
			c15.3,0,25.5,5.8,23.4,19.9l4.9-15.8c0.2-0.9,0.2-1.9-0.1-2.6c-0.7-1.5-2.3-1.6-2.3-1.6l8.7,0.1l28.8,0l-4,13.1l-15.4,0l-1.4,4.6
			h14.1l-3.8,12.5l-14.1,0l-1.5,4.7l16,0l-4,13.1l-34.4,0l5.8-18.9c-5.6,11.7-17.6,18.9-30.8,18.9l-16.7,0h-19.4l0.2-6H190l-3.3,6
			h-19.4l22-32.7l0.1-0.2c0.8-1.6,1.2-3,1.4-4.1c-4.9-0.3-11.8,2.3-11.8,2.3c3.3-2.4,6.8-4.4,10.5-5.9c-3.9-2.8-15.1,1.3-15.1,1.3
			C181.7,292.1,190,288.7,198.1,288.7L198.1,288.7z M253.9,313.4c2.1-6.7-1.1-9.6-7.8-9.6H245l-5.7,18.6h1.1
			C246.5,322.3,252,319.7,253.9,313.4L253.9,313.4z M196.8,319.3l7.3,0l0.5-8.5c0.1-2,0.4-4.1,0.7-6.2L196.8,319.3z M347.6,304.7
			l0.4-0.8c0.8-1.6,1.2-3,1.4-4.1c-4.9-0.3-11.8,2.3-11.8,2.3c3.3-2.4,6.8-4.4,10.5-5.9c-3.9-2.8-15.1,1.3-15.1,1.3
			c8.6-6.3,16.9-8.8,28.6-8.8c8.2,0,4.3,0,4.3,0h12.8l2.7,41.1l12.6-41l18,0h8.2l13.5,0c14.2,0,24.2,5,23.6,17.2l3.4-11l0.6-1.7
			c0.2-1,0.4-2.1,0-3c-0.7-1.5-2.3-1.6-2.3-1.6l8.6,0.1l28.8,0l-4,13.1l-15.4,0l-1.4,4.6l14.1,0l-3.8,12.5h-14.1l-1.5,4.7h16
			l-4,13.1l-34.4,0l5-16.4c-6,10.2-17.2,16.4-29.4,16.4l-23.2,0l13.7-44.6c0.1-0.7,0-1.3-0.2-1.9c-0.3-0.7-0.9-1.2-1.6-1.4
			l-14.7,47.9l-15.7,0h-2.6l-16.7,0l0.2-6l-13.8,0l-3.3,6H326l-25.9,0l14.8-48h18.3l-10,32.6l13.3,0L347.6,304.7z M437.5,313.4
			c2.1-6.7-1.1-9.6-7.8-9.6l-1,0l-5.8,18.6h1.1C430.1,322.4,435.6,319.7,437.5,313.4L437.5,313.4z M355.5,319.4h7.3l0.5-8.5
			c0.1-2,0.4-4.1,0.7-6.2L355.5,319.4z M355.5,319.4"/>
		
			<path style="clip-path:url(#SVGID_00000079460059349513683830000008321044183339659941_);fill-rule:evenodd;clip-rule:evenodd;fill:#004B8D;" d="
			M139.3,109.8c0,0,189.5-86.2,310.8,83.4c0,0,74.1,52.3,58.8,99.1c0,0-1.9-11.1-5.6-20.8c-3.7-9.7-59.3-56-115.4-65.8l8.8,26.9
			l1.9-16.2c0,0,27.8,37.1,94,63c0,0-5.1,9.3-49.1-6c-44-15.3-61.1-21.8-81.5-18.5c0,0,14.8-12,37.1-8.8c0,0-25.9-13-76.9,4.6
			c0,0,13.4-14.4,29.6-16.2c0,0-22.7-6-67.2,15.3c0,0,25-24.6,48.2-27.8c0,0-52.8-9.3-107.9,11.6c0,0,20.4-37.5,94.5-63.9
			c0,0-49.6-15.7-112.6-13c0,0,40.3-24.1,86.6-21.3C293.5,135.2,241.7,102.8,139.3,109.8"/>
	</g>
	<path class="st5" d="M353.9,119c1.4,0.5-32.4-22-77.3-25.3c-44.8-3.3-96.4,5.3-96.4,5.3S269.9,89.4,353.9,119"/>
	<path class="st6" d="M505.1,259.7c0,0-18.1-31-38.6-47.7L446,195.3l2.4,11.9C448.3,207.3,482.7,233,505.1,259.7 M353.9,119
		c1.4,0.5-32.4-22-77.3-25.3c-44.8-3.3-96.4,5.3-96.4,5.3S269.9,89.4,353.9,119 M254.4,145.4c3.2-1.2,36.8-16.1,75.8,2.5
		C330.2,148,296,140.8,254.4,145.4"/>
	<path class="st7" d="M395.9,158.5c-0.4,0.1-15.9,6.5-9.7,18.7c5.4,10.7,25.5,8,26.4-6"/>
	<path class="st0" d="M401,161.7c0,0-24.8-4.4-39.9-4.6c0,0,18.8,5.3,23.8,13.2C384.9,170.2,386.2,158.2,401,161.7 M415.6,172.1
		c0,0,3,9.1-3.1,13.5c-6.1,4.5-25.5,8.6-29-11.3c0,0,6.5,13.6,21,8.2c14.5-5.4,0.4-20.5,0.4-20.5L415.6,172.1z M415.6,172.1"/>
	<path class="st0" d="M406.5,165.8l-7.2-8.6l-5.8,8.3c0,0-2.9,3.8-0.4,7.1c2.5,3.3,5,5.4,10.4,2.9
		C408.9,173.1,406.5,165.8,406.5,165.8"/>
	<path class="st8" d="M398.1,160c-0.3,0.1-11.3,4.6-7,13.4c4.3,8.9,17.5,5.7,19-4.3c1.5-9.9-2.2-2.8-2.2-2.8s-3.8,12.4-11.3,7.8
		c-6.7-4.1-0.1-12.7,5.4-11.3C407.5,164.3,398.1,160,398.1,160"/>
	<path class="st0" d="M427,190.7c0,0,3-36.9-67.6-48.4C359.4,142.3,411.8,166.6,427,190.7"/>
	<path class="st7" d="M354.1,351.1c-0.8,2.1-2.6,2.3-4.3,2.3H349l1.8-4.7l0.8,0C353.4,348.7,354.9,349,354.1,351.1 M364.5,350.8
		c2.6-7-1.9-9.7-8.5-9.7l-10.8,0l-3.5,0c0,0,0.6,0,0.9,0.6c0.2,0.4,0,1.1-0.1,1.5l-9.6,25.7l10.3,0l3.3-8.9h0.2l1.3,8.9l12.2,0
		l-3-9.1c-0.3-0.8-0.8-1.3-1.1-1.7l0.1-0.2C360.6,356.8,363,355,364.5,350.8"/>
	<path class="st7" d="M380.1,349.9c3.4,0,4.5,2.5,3.4,5.4c-1.2,3.2-4.2,5.3-7.4,5.3c-3.2,0-4.6-2.2-3.5-5.4
		C373.7,352.4,376.7,349.9,380.1,349.9 M383.5,340.8c-8.8,0-18.2,5.7-21.5,14.4c-3.3,8.9,1.9,14.3,10.8,14.3
		c8.9,0,18.1-5.3,21.4-14.3C397.5,346.5,392.3,340.8,383.5,340.8"/>
	<path class="st7" d="M394.2,341.2l-0.2,27.9l9,0l6.9-10.9c0.9-1.4,1.6-2.7,2.3-4.2h0.4l-2.3,15.2l9.2,0l20.8-27.9l-11-0.1
		l-7.4,11.8c-1,1.6-1.8,3.3-2.6,4.9h-0.2l2.3-16.7l-8.1,0l-7.4,11.6c-1.1,1.7-2,3.4-2.8,5.1h-0.2l2.6-16.7L394.2,341.2z
		 M394.2,341.2"/>
	<path class="st7" d="M426,367.1c2.7,1.6,6.6,2.6,10.2,2.6c6.3,0,13.9-3.3,16.3-9.9c1.8-4.7-0.6-7-4.7-8l-2.2-0.5
		c-0.7-0.2-2-0.3-1.6-1.4c0.4-1.1,1.9-1.5,2.8-1.5c2.3,0,4,0.9,5.4,2.1l5.5-7.1c-2.2-1.7-5-2.5-8.3-2.5c-6.3,0-14,3.7-16.5,10.3
		c-1.6,4.4,1,6.7,4.9,7.4l2,0.4c0.9,0.2,2.2,0.3,1.8,1.5c-0.5,1.3-2.3,1.7-3.3,1.7c-2.4,0-4.3-1.1-5.6-2.6l-0.4-0.4L426,367.1z
		 M361.7,301.8c0,0-8.9,15.5-9.8,16.9c-0.6,1-1.4,4.2,2.6,4.2h10.3l-2.1-2.8h-8.9l9.5-16.1L361.7,301.8z M425.9,301.8l1.9,1.7
		l-6,19.6c0,0,2.5,0.8,10.3-1.3c0,0-15.3,7.9-12.7-0.4C422,313.5,422.5,311.8,425.9,301.8 M474.2,298.4c0,0-2.2,7.4-2.5,8.5
		c-0.2,0.7-0.9,2.8,2.2,2.8h11.5l-1.9,6.6l1.8,2.2l3.3-11.1h-14.1l1.9-6.2L474.2,298.4z M468.8,315.7c0,0-2.2,7.3-2.4,8.3
		c-0.2,0.7-0.9,2.7,2.2,2.7h13.3l-1.9,6.6l1.7,2.2l3.3-11.1h-15.8l1.8-6L468.8,315.7z M361.8,289.7l15.6,0c0,0,2.8,42.2,2.8,42.4
		c0.1,0.9,0.8,1.7,1.8,1.8c0,0-4.6,1.3-5-3.7c-0.4-5-2.2-37.9-2.2-37.9l-14.6,0L361.8,289.7z M315.4,289.7l1.3,2.6h11.2
		c0,0-8.8,27.8-9.3,29.1c-0.4,1.3,0.6,3.9,3.2,3.9h15l-1.7-2.7h-13.5l10.1-32.9H315.4z M315.4,289.7"/>
	<path class="st9" d="M343.2,341.4l0.9,1.2c0,0,9.8,0,14,0c3.7,0,7.4,3.8,5.2,9.3c0,0,2.5-3.7,1.2-6.8c-1.2-2.9-4-3.5-6.3-3.6
		C355.4,341.4,343.2,341.4,343.2,341.4 M337.8,351.2l-1.1-2.1l2.2-6.1c0,0-3.8-1.1-10.4-0.5c-7.5,0.6-15.2,2.6-15.2,2.6
		s14-7.1,27.6-2.9L337.8,351.2z M324.6,351.5c0,0-3,4.3-1.9,7.5c1.1,3.2,6.3,4.1,10,2.4l-2.8,6.7l1.5-0.4l3.4-8.8c0,0-3,2.3-6.4,1.9
		c-3.4-0.3-5.8-3.2-3.5-7.1L324.6,351.5z M324.6,351.5"/>
	<path class="st9" d="M318.8,346.3c-0.5,0-3.8,1.5-3.8,1.5s4.4-0.7,6.8-0.7"/>
	<path class="st7" d="M350.2,296.6c-0.9,0-5.9,2.7-5.9,2.7s6.8-1.6,10.9-1.6"/>
	<path class="st9" d="M346.2,359.4l-0.7-1.9l-3.6,9.6l1,1.3L346.2,359.4z M354.4,357.8l3.4,9.7l1.9,1.2c0,0-2.8-8.5-3-9
		C356.2,358.6,354.4,357.8,354.4,357.8 M349.5,346.8c0,0-2.2,5.7-2.2,6.7c0,1,0.1,1.5,2.4,1.5c1.2,0,2.3-0.5,3.1-1.3
		c0,0-3.2,0.4-4.2,0l1.9-5.6L349.5,346.8z M373.9,350c0,0-4.6,3.4-3.9,8.5c0.7,5.1,6.1,4.2,10.9,2.3c0,0-3.9,0.3-5.2,0.2
		c-1.3-0.1-5-0.6-3.8-5.6c0.3-1.1,1.7-2.8,1.7-2.8L373.9,350z M370.6,345.2c0,0,3.8-3.2,8.7-3.8c4.9-0.7,12.4-0.7,15.4,5.5l-1.7,0.4
		c0,0-3.1-4.9-11.2-4.9C373.6,342.3,370.6,345.2,370.6,345.2 M394.5,341.4l0.5,1.2l8.2,0c0,0-2.3,15.3-2.3,16.2
		c-0.1,2.2,2.2-0.7,2.2-0.7s-1,0.8-0.7-0.9c0.1-0.7,2.5-15.8,2.5-15.8L394.5,341.4z M413.3,341.4l0.4,1.2l5.5,0c0,0-2,15.3-2,16.2
		c-0.1,2.2,2.2-0.7,2.2-0.7s-1,0.8-0.7-0.9c0.1-0.7,2.2-15.8,2.2-15.8L413.3,341.4z M402.8,368.7l-0.8-1.4l9.2-14.9l0.7,1.3
		L402.8,368.7z M419.2,368.6l-0.6-1l14.5-19.6l-0.2,2.2L419.2,368.6z M429.3,341.4l10.4,0c0,0-3.7,4.3-2.9,4.3
		c0.8,0.1,1.8-0.4,1.8-0.4s-3.8,2.2-3.1,0.2c0.7-2,1.9-3,1.9-3l-7.3,0L429.3,341.4L429.3,341.4z M439.5,344.6c0,0,1.9-2.1,6.8-3
		c4.3-0.8,9.1,0.7,10.6,2l-4.7,6.1l-0.5-1.6l2.9-3.9C454.7,344.1,449,340.7,439.5,344.6 M442.8,349.2c0,0-1.9,1.8,0.1,2.8
		c2,0.9,3.6,1.3,5.8,1.9c3.4,0.9,3.8,5.7-1.7,11.5c0,0,3.9-1.6,5.3-6.6c1.1-4.1-1.9-5.8-4.5-6.4c-1.8-0.4-4.9-1-4.4-2.2L442.8,349.2
		z M442.8,349.2"/>
	<path class="st7" d="M394.4,289.7h16.7l-14.3,45.9l-2.4-2.1l12.6-41.2l-11.6,0L394.4,289.7z M394.4,289.7"/>
	<path class="st10" d="M401,166.3c0,0-4.3,1.7-4.5,4.4c0,0-2.3-3.6,1.5-6.4L401,166.3z M401,166.3"/>
	<path class="st7" d="M339.8,294.5c0,0,7.6-4.8,22-4.8l2,2.6C363.8,292.3,347.8,292,339.8,294.5 M202.7,301.8c0,0-8.9,15.5-9.8,16.9
		c-0.6,1-1.4,4.2,2.6,4.2h10.3l-2.1-2.8h-8.9l9.5-16.1L202.7,301.8z M202.8,289.7l15.6,0c0,0,2.8,42.2,2.8,42.4
		c0.1,0.9,0.8,1.7,1.7,1.8c0,0-4.6,1.3-4.9-3.7c-0.4-5-2.2-37.9-2.2-37.9l-14.6,0L202.8,289.7z M191.2,296.6c-1,0-5.9,2.7-5.9,2.7
		s6.8-1.6,10.9-1.6"/>
	<path class="st7" d="M180.8,294.5c0,0,7.6-4.8,22-4.8l1.9,2.6C204.8,292.3,188.8,292,180.8,294.5 M461.9,289.6
		c0.4,0.4,0.8,1.2,0.6,2.6h29.3l-2.1,6.4l2,2.7l3.6-11.7H461.9z M290.8,298.4c0,0-2.2,7.4-2.5,8.5c-0.2,0.7-0.9,2.8,2.2,2.8H302
		l-1.9,6.6l1.8,2.2l3.3-11.1h-14.1l1.9-6.2L290.8,298.4z M285.4,315.7c0,0-2.2,7.3-2.4,8.3c-0.2,0.7-0.9,2.7,2.2,2.7h13.3l-1.9,6.6
		l1.7,2.2l3.3-11.1h-15.8l1.8-6L285.4,315.7z M278.6,289.6c0.4,0.4,0.8,1.2,0.6,2.6h29.3l-2.1,6.4l2,2.7l3.6-11.7H278.6z
		 M454.9,298.7c-3.6-7.3-12.2-9-19.8-9h-21c0.4,0.4,0.8,1.2,0.7,2.6h22c9.7,0,19.8,6,17.8,21.6C454.6,313.8,457.7,304.4,454.9,298.7
		 M242.4,301.6l1.9,1.7l-6,19.6c0,0,2.5,0.8,10.3-1.3c0,0-15.3,7.9-12.7-0.4C238.4,313.3,238.9,311.6,242.4,301.6 M271.3,298.5
		c-3.6-7.3-12.2-9-19.8-9h-21c0.4,0.4,0.8,1.2,0.7,2.6h22c9.8,0,19.8,6,17.8,21.6C271,313.7,274.1,304.2,271.3,298.5"/>
</g>
</svg>
