<?xml version="1.0" encoding="utf-8"?>
<!-- Generator: Adobe Illustrator 26.0.3, SVG Export Plug-In . SVG Version: 6.00 Build 0)  -->
<svg version="1.0" id="katman_1" xmlns="http://www.w3.org/2000/svg" xmlns:xlink="http://www.w3.org/1999/xlink" x="0px" y="0px"
	 viewBox="0 0 600 450" style="enable-background:new 0 0 600 450;" xml:space="preserve">
<style type="text/css">
	.st0{fill-rule:evenodd;clip-rule:evenodd;fill:#FFFFFF;}
	.st1{fill-rule:evenodd;clip-rule:evenodd;fill:#023C91;}
	.st2{fill-rule:evenodd;clip-rule:evenodd;fill:#F0001B;}
</style>
<g>
	<path class="st0" d="M80.5,225.3c0-67.1,97.9-121.5,218.8-121.5S518,158.1,518,225.3c0,67.1-97.9,121.5-218.7,121.5
		S80.5,292.4,80.5,225.3"/>
	<path class="st1" d="M86.9,225.3c0-65.2,95.1-118,212.4-118c117.3,0,212.4,52.8,212.4,118c0,65.2-95.1,118-212.4,118
		C182,343.3,86.9,290.4,86.9,225.3"/>
	<path class="st2" d="M316.8,290.7h-96.5l-3.5-17.5h-37.3l-5.4,13.6c29.2,23.1,74.3,37.9,125.1,37.9c47.9,0,90.7-13.2,119.9-34
		h-47.4l-6.1-80.6h-12.3l2.2,41.1h-38.7V290.7z M176.3,162.1h61.9l21.4,65.8l1.9-65.7h160.8c-18.4-13.9-42.8-24.7-70.7-30.8V142
		h-16.4v-13.6c-4.4-0.6-8.7-1.1-13.1-1.5V151h-16.3v-25c-2.2,0-4.4-0.1-6.5-0.1c-2.2,0-4.4,0-6.5,0.1v25h-16.3v-24
		c-4.4,0.4-8.7,0.9-13.1,1.5V142h-16.3v-10.6C219.1,137.4,194.7,148.2,176.3,162.1 M419.7,182.1l7.7,60.7H456
		c1.6-5.7,2.5-11.5,2.5-17.5c0-18.6-8.2-36-22.5-50.9L419.7,182.1z M174.1,180.4l-12.1-5.5c-14,14.8-22,32-22,50.4
		c0,3.1,0.2,6.1,0.7,9.1L174.1,180.4L174.1,180.4z M174.1,180.4"/>
	<path class="st0" d="M345.1,213.1l1.3,23.8h-39.7v39.9h-80.2l-3.9-17.2h-48l-8.7,17.2H123l58.8-95h13.3l-28.3-13h65.1l32.7,97.7
		h1.3l3.2-97.7h93.5l2,26.4h-58v17.9H345.1z M477,276.8h-97.9l-8.5-108.1h59.2l-30.4,13.1h12.4l8.7,67.7h50L477,276.8L477,276.8z
		 M477,276.8"/>
	<path class="st1" d="M208.3,196.9h-2.2l-21.6,43h33.5L208.3,196.9z M208.3,196.9"/>
	<path class="st0" d="M299.3,115.4c-96.5,0-174.8,49.2-174.8,109.9c0,9.2,1.8,18.2,5.2,26.8l8.4-13.5c-0.8-4.4-1.3-8.8-1.3-13.2
		c0-47.7,48.9-87.9,115.9-100.8v11.7h4.7v-12.6c8.2-1.4,16.5-2.4,24.8-2.9v24.5h4.7v-24.8c4.1-0.2,8.2-0.3,12.4-0.3
		c4.2,0,8.3,0.1,12.4,0.3v24.8h4.7v-24.5c8.3,0.5,16.6,1.5,24.8,2.9v12.6h4.7v-11.7c67.1,12.9,116,53.2,116,100.8
		c0,6-0.8,11.8-2.3,17.5h12.4c1.5-5.7,2.2-11.6,2.2-17.6C474,164.6,395.8,115.4,299.3,115.4 M299.3,330.5
		c-51.5,0-97.3-15.5-127.1-39.7H159c31.9,26.9,82.8,44.3,140.3,44.3c57.5,0,108.5-17.5,140.4-44.4h-13.1
		C396.7,315,350.8,330.5,299.3,330.5 M454.5,285.6h1.2c1.6,0,2.3,0.5,2.3,1.6c0,1.1-0.7,1.5-2.2,1.5h-1.3V285.6z M451.9,284v10.7
		h2.6v-4.4h1.3l2.1,4.4h2.9l-2.4-4.8c1.4-0.4,2.3-1.4,2.3-2.8c0-2-1.5-3.1-4.6-3.1H451.9z M455.8,279.9c-3.5,0-6.5,1.7-8.1,4.6
		c-0.9,1.5-1.4,3.3-1.4,5c0,2.5,0.9,4.9,2.7,6.7c1.8,1.9,4.2,2.9,6.8,2.9c2.5,0,4.9-1,6.8-2.8c1.8-1.8,2.9-4.3,2.8-6.8
		c0-2.6-1-5-2.7-6.7C460.9,280.9,458.4,279.9,455.8,279.9L455.8,279.9z M455.9,281.5c2.2,0,4.2,0.8,5.8,2.4c1.5,1.6,2.3,3.5,2.3,5.8
		c0,2.1-0.8,4.1-2.4,5.6c-1.6,1.5-3.6,2.4-5.7,2.4c-2.2,0-4.2-0.9-5.7-2.4c-1.5-1.5-2.3-3.5-2.3-5.6c0-2.1,0.9-4.2,2.4-5.8
		C451.8,282.2,453.7,281.5,455.9,281.5L455.9,281.5z M455.9,281.5"/>
</g>
</svg>
