<?xml version="1.0" encoding="utf-8"?>
<!-- Generator: Adobe Illustrator 19.2.1, SVG Export Plug-In . SVG Version: 6.00 Build 0)  -->
<svg version="1.1" id="layer" xmlns="http://www.w3.org/2000/svg" xmlns:xlink="http://www.w3.org/1999/xlink" x="0px" y="0px"
	 viewBox="0 0 652 652" style="enable-background:new 0 0 652 652;" xml:space="preserve">
<style type="text/css">
	.st0{fill:#031C2D;}
	.st1{fill:#CFD4D8;}
	.st2{fill:#FFFFFF;}
</style>
<g>
	<path class="st0" d="M319.5,571l-7.7-6c-7.3-0.3-17-3-19.3-3.7l-4.4-1.4l7.2-19.7c-43.7-4.5-85.3-20.9-120.4-47.4
		c-36.1-27.2-63.7-63.7-80-105.7c-1.4-3.7,0.8-9.3,2.9-11.4c0.3-0.3,0.6-0.6,2.5-1.6c-2.8-0.9-5.4-2.6-7.6-5.1
		c-2.2-2.5-4.1-5.5-5.5-9c-1.2-2.9-2.2-5.9-3-9.4c-0.5-2-0.9-4.3-1.4-6.8l-0.8-4.7c-0.2-1.2-0.3-2.4-0.5-3.6l-0.4-4.3
		c-0.1-1.3-0.2-2.6-0.3-3.9l-0.2-4.2c-0.1-1.4-0.1-2.8-0.1-4.2l0.1-4.8c0.2-2.7,0.5-6.5,0.6-6.9l0.1-1.3l0.9-1
		c0.7-0.9,7.4-8.7,15-8.7c0.7,0,1.8,0.1,3.3,0.2c-1.1-5.4-1.4-12.3-0.6-15.1l2.5-8.8l0.5,0.8c1.6-10.5,4-20.8,7-30.9
		c-0.3-5.5,0.8-13.7,2.2-16.5l4.1-8.2l1.4,3.3c4.6-10.8,10-21.2,16.3-31.1c0.7-6.4,6.4-16.5,8.9-18.8l6.8-6.2l0.1,2.9
		c6.7-8.3,14.1-16.1,22-23.2c0.1-0.5,0.2-1,0.3-1.3c1.5-6.3,9.8-16.3,13-18.3l7.8-4.8l-1.1,8.2c9.8-7,20.1-13.3,30.9-18.6
		c0.5-0.8,0.9-1.5,1.2-2c3.4-5.2,14.1-11.4,17.7-12.2l9-1.8l-2.9,5.5c8.3-2.9,16.7-5.3,25.2-7.1c5.7-9.7,17.9-16.8,33.6-19.6
		l4.7-0.8l0,0.1c0.9-0.1,1.9-0.2,2.8-0.2l4.5-0.4l0,0.1l0.4,0c1.1,0,1.9,0,2.7,0l0.6,0v0l0.9,0l3.2,0.2l0,0.1l0.6,0
		c0.7,0.1,1.5,0.1,2.2,0.2l0-0.1l0.9,0.1l3.1,0.5v0.1l0.7,0.1c15.8,2.8,28.1,10,33.7,19.7c8.6,1.9,17.1,4.3,25.4,7.3l-3.1-5.8l9,1.8
		c3.6,0.7,14.3,7,17.7,12.2c0.4,0.6,0.9,1.4,1.5,2.5c10.4,5.2,20.5,11.3,30,18.1l-1-7.3l7.8,4.8c3.1,1.9,11,11.4,12.5,17.5
		c0,0.2,0.1,0.4,0.2,0.7c8.3,7.5,16.1,15.8,23.1,24.5l0.2-3.6l6.8,6.2c2.7,2.5,8.7,13.3,9,19.5c0,0.1,0,0.3,0,0.5
		c6.1,9.8,11.4,20.1,15.9,30.7l1.8-4l4.1,8.2c1.5,3,2.8,12.2,2.1,18.2c2.9,9.7,5.1,19.8,6.6,29.9l1.1-1.6l2.5,8.9
		c0.7,2.6,0.5,9.1-0.5,14.4c3.6,0.1,8.2,0.7,11.4,2.6c2.6,1.6,6.5,5.3,6.9,5.7l1.2,1.1l0.7,9.9l0,5.3l-0.2,4.4l-0.3,4.8l-0.3,3.6
		l-0.6,4.8l-0.5,3.4l-1,5.3c0,0-0.5,2.5-0.8,3.7c-0.8,3.4-1.8,6.5-3,9.4c-1.4,3.5-3.3,6.5-5.5,9c-2.2,2.4-4.7,4.1-7.4,5
		c1.7,0.9,2.1,1.3,2.4,1.6c3.9,3.4,4.1,7.7,3,10.7c-16.2,42.4-44,79.4-80.4,106.9c-35.5,26.8-77.5,43.2-121.6,47.5l7.2,19.8
		l-4.8,1.4c-7.3,2.2-14.2,3.4-20.5,3.6L319.5,571z"/>
	<path class="st1" d="M119.5,318.7c0,0-10.8-14-13.2-18.3c-2.4-4.3-3-15.5-2.3-18c0,0,13.2,18.9,14.8,23.3
		C120.3,310.2,119.5,318.7,119.5,318.7"/>
	<path class="st1" d="M137.4,297c2.9-4.1,4.6-15.4,4.6-15.4s-15.8,13.2-18.7,18.8c-1.4,2.6-1.6,12.8-1.6,12.8S134.6,301.1,137.4,297
		"/>
	<path class="st1" d="M120.1,302.6c0,0-5.6-7.8-8-13.6c-2.7-6.3,4.2-22.1,4.2-22.1s4.9,11.4,4.9,15.6
		C121.3,286.7,120.1,302.6,120.1,302.6"/>
	<path class="st1" d="M122.8,295.9c0,0,6.4-5.9,9.7-11.1c3.6-5.7,1.9-19.2,1.9-19.2s-9.5,9.6-10.2,13.7
		C123.5,283.4,122.8,295.9,122.8,295.9"/>
	<path class="st1" d="M124.2,266.3c0,0-7.9-15.8-9.5-20.5c-1.6-4.7,0-15.8,1.2-18.1c0,0,9.3,21,10,25.7
		C126.7,258.1,124.2,266.3,124.2,266.3"/>
	<path class="st1" d="M146,248.5c3.6-3.4,7.4-14.3,7.4-14.3s-18,9.9-22,14.8c-1.8,2.3-4,12.3-4,12.3S142.4,252,146,248.5"/>
	<path class="st1" d="M127.9,250.7c0,0-4-8.7-5.3-14.8c-1.4-6.7,8.4-20.9,8.4-20.9s2.6,12.1,1.8,16.2
		C132.1,235.3,127.9,250.7,127.9,250.7"/>
	<path class="st1" d="M131.8,244.5c0,0,7.4-4.5,11.7-9c4.7-4.9,5.5-18.5,5.5-18.5s-11.1,7.6-12.6,11.5
		C134.9,232.5,131.8,244.5,131.8,244.5"/>
	<path class="st1" d="M139.7,213.1c0,0-1.7-17.6-1.5-22.5c0.2-4.9,5.6-14.7,7.6-16.5c0,0,1.2,23,0.2,27.6
		C144.9,206.3,139.7,213.1,139.7,213.1"/>
	<path class="st1" d="M166.3,204.3c4.6-1.9,12.1-10.7,12.1-10.7s-20.4,2.8-25.8,5.9c-2.5,1.5-8.1,10.1-8.1,10.1
		S161.7,206.2,166.3,204.3"/>
	<path class="st1" d="M148.7,199.8c0,0-0.6-9.5,0.4-15.7c1.1-6.8,15.3-16.5,15.3-16.5s-1.9,12.2-4.1,15.8
		C158.1,187,148.7,199.8,148.7,199.8"/>
	<path class="st1" d="M154.5,195.5c0,0,8.6-1.6,14.1-4.2c6.1-2.9,11.8-15.3,11.8-15.3s-13.1,3.1-15.9,6.2
		C161.8,185.3,154.5,195.5,154.5,195.5"/>
	<path class="st1" d="M173.4,167.6c0,0,1.7-18.6,2.9-23.6c1.2-5,8.7-14.1,11.1-15.6c0,0-3.3,24-5.2,28.6
		C180.1,161.6,173.4,167.6,173.4,167.6"/>
	<path class="st1" d="M202.7,163.6c5.1-1.1,14.6-8.7,14.6-8.7s-21.6-1.1-27.9,1.1c-2.9,1-10.4,8.8-10.4,8.8S197.6,164.7,202.7,163.6
		"/>
	<path class="st1" d="M185.3,155.6c0,0,1.2-10,3.5-16.2c2.4-6.8,19-14,19-14s-4.4,12.3-7.3,15.5
		C197.6,144.1,185.3,155.6,185.3,155.6"/>
	<path class="st1" d="M192.2,152.3c0,0,9.2,0,15.5-1.6c6.9-1.8,15.1-13.5,15.1-13.5s-14.2,0.6-17.7,3.3
		C201.7,143.2,192.2,152.3,192.2,152.3"/>
	<path class="st1" d="M217.2,129.9c0,0,7.6-16,10.3-20.1c2.7-4.1,12.4-9.8,15-10.3c0,0-10.7,20.4-14,23.8
		C225.2,126.8,217.2,129.9,217.2,129.9"/>
	<path class="st1" d="M244.7,136c4.9,0.7,15.8-3,15.8-3s-18.9-8.1-25.3-8.1c-2.9,0-12.1,4.5-12.1,4.5S239.7,135.3,244.7,136"/>
	<path class="st1" d="M231.8,123.1c0,0,4.4-8.5,8.4-13.3c4.4-5.3,21.6-6.3,21.6-6.3s-7.9,9.5-11.6,11.5
		C246.5,116.9,231.8,123.1,231.8,123.1"/>
	<path class="st1" d="M239,122.4c0,0,8.2,3,14.3,3.6c6.7,0.6,17.9-7.1,17.9-7.1s-12.9-4.1-16.8-2.8C250.5,117.4,239,122.4,239,122.4
		"/>
	<path class="st1" d="M521.2,318.7c0,0,10.8-14,13.2-18.3c2.4-4.3,3-15.5,2.3-18c0,0-13.2,18.9-14.8,23.3
		C520.4,310.2,521.2,318.7,521.2,318.7"/>
	<path class="st1" d="M503.3,297c-2.9-4.1-4.6-15.4-4.6-15.4s15.8,13.2,18.7,18.8c1.4,2.6,1.6,12.8,1.6,12.8S506.2,301.1,503.3,297"
		/>
	<path class="st1" d="M520.6,302.6c0,0,5.6-7.8,8-13.6c2.7-6.3-4.2-22.1-4.2-22.1s-4.9,11.4-4.9,15.6
		C519.5,286.7,520.6,302.6,520.6,302.6"/>
	<path class="st1" d="M518,295.9c0,0-6.4-5.9-9.7-11.1c-3.6-5.7-1.9-19.2-1.9-19.2s9.5,9.6,10.2,13.7
		C517.2,283.4,518,295.9,518,295.9"/>
	<path class="st1" d="M516.5,266.3c0,0,7.9-15.8,9.5-20.5c1.6-4.7,0-15.8-1.2-18.1c0,0-9.3,21-10,25.7
		C514.1,258.1,516.5,266.3,516.5,266.3"/>
	<path class="st1" d="M494.8,248.5c-3.6-3.4-7.4-14.3-7.4-14.3s18,9.9,22,14.8c1.8,2.3,4,12.3,4,12.3S498.4,252,494.8,248.5"/>
	<path class="st1" d="M512.8,250.7c0,0,4-8.7,5.3-14.8c1.4-6.7-8.4-20.9-8.4-20.9s-2.6,12.1-1.8,16.2
		C508.7,235.3,512.8,250.7,512.8,250.7"/>
	<path class="st1" d="M508.9,244.5c0,0-7.4-4.5-11.7-9c-4.7-4.9-5.5-18.5-5.5-18.5s11.1,7.6,12.6,11.5
		C505.8,232.5,508.9,244.5,508.9,244.5"/>
	<path class="st1" d="M501.1,213.1c0,0,1.7-17.6,1.5-22.5c-0.2-4.9-5.6-14.7-7.6-16.5c0,0-1.2,23-0.2,27.6
		C495.9,206.3,501.1,213.1,501.1,213.1"/>
	<path class="st1" d="M474.4,204.3c-4.6-1.9-12.1-10.7-12.1-10.7s20.4,2.8,25.8,5.9c2.5,1.5,8.2,10.1,8.2,10.1
		S479,206.2,474.4,204.3"/>
	<path class="st1" d="M492.1,199.8c0,0,0.6-9.5-0.4-15.7c-1.1-6.8-15.3-16.5-15.3-16.5s1.9,12.2,4.1,15.8
		C482.7,187,492.1,199.8,492.1,199.8"/>
	<path class="st1" d="M486.2,195.5c0,0-8.6-1.6-14.1-4.2c-6.1-2.9-11.8-15.3-11.8-15.3s13.1,3.1,15.9,6.2
		C479,185.3,486.2,195.5,486.2,195.5"/>
	<path class="st1" d="M466.1,166.5c0,0-1.6-17.6-2.7-22.4c-1.1-4.8-8.3-13.4-10.5-14.8c0,0,3.1,22.8,5,27.2
		C459.7,160.8,466.1,166.5,466.1,166.5"/>
	<path class="st1" d="M438.3,162.8c-4.9-1-13.8-8.2-13.8-8.2s20.5-1.1,26.5,1.1c2.8,1,9.9,8.4,9.9,8.4S443.1,163.8,438.3,162.8"/>
	<path class="st1" d="M454.8,155.1c0,0-1.2-9.5-3.3-15.4c-2.3-6.5-18.1-13.3-18.1-13.3s4.1,11.7,7,14.8
		C443.1,144.2,454.8,155.1,454.8,155.1"/>
	<path class="st1" d="M448.2,152c0,0-8.7,0-14.7-1.6c-6.5-1.7-14.4-12.8-14.4-12.8s13.5,0.6,16.8,3.2
		C439.2,143.3,448.2,152,448.2,152"/>
	<path class="st1" d="M423.5,129.9c0,0-7.6-16-10.3-20.1c-2.7-4.1-12.4-9.8-15-10.3c0,0,10.8,20.4,14,23.8
		C415.6,126.8,423.5,129.9,423.5,129.9"/>
	<path class="st1" d="M396.1,136c-4.9,0.7-15.8-3-15.8-3s18.9-8.1,25.2-8.1c2.9,0,12.2,4.5,12.2,4.5S401,135.3,396.1,136"/>
	<path class="st1" d="M408.9,123.1c0,0-4.4-8.5-8.4-13.3c-4.4-5.3-21.6-6.3-21.6-6.3s7.9,9.5,11.6,11.5
		C394.3,116.9,408.9,123.1,408.9,123.1"/>
	<path class="st1" d="M401.7,122.4c0,0-8.2,3-14.3,3.6c-6.7,0.6-17.9-7.1-17.9-7.1s12.9-4.1,16.8-2.8
		C390.3,117.4,401.7,122.4,401.7,122.4"/>
	<path class="st1" d="M333.3,76.5l-0.4,5.7c-0.1,0.9-0.8,1.6-1.7,1.5c-0.8-0.1-1.4-0.7-1.5-1.5l-0.4-6.3c-0.9-0.1-1.8-0.2-2.8-0.3
		l-0.4,9.2c0,0.9-0.8,1.6-1.8,1.6c-0.9,0-1.6-0.8-1.6-1.6l-0.4-9.4c-0.7,0-1.3-0.1-2-0.1c-0.6,0-1.1,0-1.7,0.1l-0.4,9.4
		c0,0.9-0.8,1.7-1.8,1.7c-0.9,0-1.6-0.8-1.6-1.7l-0.4-9.2c-1,0.1-2.1,0.2-3.1,0.3l-0.5,6.3c-0.1,0.9-0.8,1.5-1.7,1.5
		c-0.8-0.1-1.4-0.7-1.5-1.5l-0.4-5.7c-19.2,3.4-33.3,14.1-33.3,26.8c0,15.4,20.7,27.9,46.3,27.9c25.6,0,46.3-12.5,46.3-27.9
		C366.6,90.6,352.6,79.9,333.3,76.5"/>
	<path class="st2" d="M320.3,405.4c-3.2-2.2-4.1-4.4-4.4-5.8c0-0.4,0-0.8,0-1.1c-0.2-7.9,1.2-35.2,1.2-35.2s-11.1-1.8-21-6.6
		l-0.6,41.5c0,0,0,0,0,0.1c0,0.1,0,0.2,0,0.3c0,0.3,0,0.7,0,1.1c-0.3,1.4-1.2,3.7-4.4,5.8c-3.9,2.6-4.3,4.2-3.9,9.7
		c0.4,5.5,2.5,8.1,6.9,7.9c0.3,0,0.7,0,1.1,0v0c0,0,4.5-0.1,10.5-0.1c6,0,10.4,0.1,10.4,0.1v0c0.4,0,0.8,0,1.1,0
		c4.4,0.2,6.6-2.4,7-7.9C324.5,409.6,324.2,408,320.3,405.4 M400.2,332.7c-4.8-3.3-8,0.4-8.6,1.3c0,0-17.3,37.4-60.1,35.5
		c0,0-0.4-0.1-0.9,0c-3.8-0.2-9.3-0.7-10-1.2l-0.7,18.9c0,0,4.4,0.5,8.7,0.7c0.5,0.1,1,0.1,1.7,0.1c4.3,0.1,46.8,3,72-46.4
		C402.2,341.6,405,336,400.2,332.7 M378.6,273.1c0,0,0.5-4.4-7.8-21.3c0,0-2.4-5.9-9.2-7.7c-5.2-1.4-12-3.1-12-3.1
		s-6.2-3.3-13.1-4.9l0-0.1c0,0-8.7-2.2-16.7-2.3l-0.3,18.7c0,0,2.2-0.8,10.8-0.6c4.1,0.4,11.4,0.5,21.7,8.3
		c12.5,9.4,17.1,16.7,17.1,16.7s3.7,5.5,7,4.4C379.4,280.1,378.6,273.1,378.6,273.1 M263.4,304.4c1.3,11.6,15.2,45.1,47.9,53.9
		c32.7,8.8,55.8-7.4,62.7-17.3c0,0,5.9-5.7,0.9-10.1c-5-4.4-9,1.1-9.2,0.9c-0.2-0.2-34.6,25.9-61.2,5.7
		c-26.6-20.2-19.3-52.7-16.7-59.2c0,0,2.4-6.9,5.3-10.5l0.2-26.8c0,0-22.3,12.9-28.5,40.2h0C262.6,289.2,262.2,293.4,263.4,304.4
		 M291.9,383.4l0.3-22.5c-2.3-0.7-5.4-2.6-8.5-4.9c-0.4-0.3-0.8-0.7-1.3-1.1c-9.9-7-37.1-30.9-27.8-75.8c9.4-44.9,61.2-61.5,94-51.5
		c32.8,9.9,38.3,32.5,41.3,37.7c1.9,3.2,4.1,6.9,8.3,6.3c4.1-0.6,2.5-9.4,2.5-9.4l-8-29.1c0,0-1.9-7.8-10.7-10.9
		c-7.3-2.5-9.4-3.5-14-5.9c0,0-52.7-36-111.9,10.9c0,0-21,18.7-27,40.5c0,0-3.3,12-3.4,16.4c-0.3,6.4-0.7,14.5,0.7,23.6
		c1.3,8.6,8.8,48.7,47.7,69.3v0.1c0.7,0.3,1.4,0.6,2,1c1.7,0.8,3.3,1.6,5.1,2.4c0,0,0.7,0.4,1.8,0.7
		C289.7,383.9,291.9,383.4,291.9,383.4 M316.4,230.3c0,0-12.6-0.4-19.4,5.9l-0.4,86.3c0,0,7,12.5,20.6,17.3l-0.4-29.6
		c0,0-1.3-5.7,6.1-5.3c7.4,0.4,6,0.9,11.9,7.8c4.2,5,8.5,4.7,10.9,3.8c3.8-1.4,5.3-4,4.3-8.3c-2.1-8.8-8-25.9-8-25.9
		s-0.8-6.3-7.1-5.7c-6,0.6-6,4.6-6,4.6s0.4,5.3-6.2,5.1c-6.6-0.2-6.1-6.8-6.1-6.8L316.4,230.3z M295.8,193.9v9c0,0,9.5-3.2,20.2-3.2
		c0,0-2.2-6.3,15.9-5.3c18.1,1,20.6,1.9,30.6,9.4c1.2,0.8,6.3,6.9,11.8,5.3c5.8-1.7,2.3-6.6,2.3-6.6l-11.8-19.9c0,0-2.1-4.2-7.9-4.9
		c-5.2-0.6-9.8-0.7-17.4-0.8l-44.6-0.2c0,0-4.9-0.2-5.1,7.4C289.6,192.1,293.6,191.3,295.8,193.9"/>
	<path class="st1" d="M346.7,463.1c-0.7,0.7-1.3,1.2-2.2,1.6c-0.9,0.4-2,0.6-3.2,0.4c-1.1-0.2-2-0.9-2.7-1.5c-0.6-0.6-1.1-1.3-1.5-2
		c-0.7-1.2-1.2-2.8-1.4-4.3c-0.1-1.6,0.1-3.1,0.6-4.4c0.9-2.7,2.5-4.9,4.2-6.8c1.7-1.9,3.5-3.6,5.4-5.2c3.8-3.1,7.8-5.8,11.7-8.4
		c3.8-2.6,7.8-5.4,11.8-8c15.9-10.4,32.2-20,46.1-32.1c13.8-12.1,25.6-27,29.3-44.2c1-4.3,1.5-8.6,1.3-12.9c-0.1-4.3-0.8-8.6-2-12.8
		c-0.6-2.1-1.3-4.2-2.1-6.1c-0.8-2-1.8-4-2.8-5.7c-1-1.7-2.3-3.4-2.9-3.8c-0.1-0.1-0.2-0.1,0,0c0.2,0.1,0.8,0.2,1.2,0.1
		c1-0.3,0.9-0.5,0.6,0c-1.6,2.7-5.1,3.6-7.8,2c-2.7-1.6-3.6-5.1-2-7.8c0.1-0.2,0.2-0.4,0.4-0.5l0.3-0.4c0.6-0.7,1.2-1.5,2.2-2.3
		c1-0.8,2.2-1.5,3.9-1.9c1.6-0.4,3.4-0.2,4.7,0.3c1.4,0.5,2.3,1.1,3.1,1.8c3,2.6,4.3,5,5.7,7.3c1.3,2.4,2.3,4.7,3.2,7.1
		c0.9,2.4,1.6,4.9,2.3,7.4c1.2,5,1.9,10.1,1.9,15.3c0,5.2-0.8,10.3-2,15.2c-2.5,9.9-7.2,19-13.2,26.9c-5.9,7.9-12.9,14.9-20.4,21
		c-15,12.3-31.9,21.5-47.9,31.3c-4.1,2.5-7.9,4.9-11.9,7.6c-4,2.5-8,4.9-11.6,7.7c-3.5,2.7-7,6-8.3,9.6c-0.6,1.8-0.6,3.3,0.3,4.9
		c0.4,0.8,1,1.2,1,1.1c0,0,0.1,0,0.3-0.1c0.2-0.1,0.5-0.3,0.7-0.5l0,0c0.9-1,2.4-1,3.3-0.1C347.6,460.6,347.7,462.1,346.7,463.1
		C346.8,463.1,346.7,463.1,346.7,463.1"/>
	<path class="st1" d="M293.7,459.9c0.1,0.1,0.5,0.4,0.7,0.4c0.2,0.1,0.3,0.1,0.3,0.1c0,0.1,0.6-0.4,1-1.1c0.9-1.6,0.9-3.2,0.3-4.9
		c-1.3-3.6-4.8-6.8-8.3-9.5c-3.6-2.8-7.5-5.2-11.5-7.8c-4.1-2.6-7.9-5.1-11.9-7.6c-16-9.8-32.8-19-47.9-31.3
		c-7.5-6.2-14.5-13.1-20.4-21c-6-7.9-10.6-17.1-13.1-26.9c-1.3-4.9-2-10-2-15.2c0-5.2,0.7-10.3,1.9-15.3c0.6-2.5,1.3-4.9,2.3-7.4
		c0.9-2.4,1.9-4.7,3.2-7.1c1.4-2.4,2.6-4.8,5.7-7.3c0.8-0.6,1.8-1.3,3.1-1.7c1.3-0.5,3.1-0.7,4.7-0.3c1.7,0.4,3,1.1,3.9,1.9
		c1,0.8,1.6,1.6,2.2,2.3l0.3,0.4c1.9,2.5,1.4,6-1,7.9c-2.5,1.9-6,1.4-7.9-1c-0.1-0.2-0.3-0.4-0.4-0.6c-0.3-0.5-0.4-0.3,0.6,0
		c0.5,0.1,1,0,1.2-0.1c0.2-0.1,0.2-0.1,0.1,0c-0.7,0.4-2,2.1-2.9,3.8c-1,1.8-2,3.7-2.8,5.7c-0.8,2-1.5,4-2.1,6.1
		c-1.2,4.2-1.9,8.5-2,12.8c-0.2,4.3,0.3,8.6,1.3,12.9c3.7,17.3,15.5,32.2,29.3,44.2c13.9,12.2,30.2,21.7,46.1,32.2
		c3.9,2.6,8,5.4,11.8,8c3.9,2.6,8,5.3,11.7,8.4c1.9,1.6,3.7,3.3,5.4,5.2c1.7,1.9,3.3,4.1,4.2,6.8c0.5,1.4,0.7,2.9,0.6,4.4
		c-0.1,1.5-0.6,3.1-1.4,4.3c-0.4,0.7-0.8,1.3-1.5,2c-0.6,0.6-1.5,1.2-2.7,1.5c-1.1,0.2-2.3,0-3.1-0.4c-0.9-0.4-1.5-0.8-2.2-1.6
		c-0.9-0.9-0.9-2.4,0-3.3c0.9-0.9,2.4-0.9,3.3,0C293.6,459.8,293.6,459.9,293.7,459.9L293.7,459.9z"/>
	<path class="st2" d="M540.7,378.5c-2.4-2.1-41.7-19.7-41.7-19.7c0.8,3.2,0,5-0.2,5.7c-28.7,70.3-97.6,119.8-178.2,119.8
		c-80.1,0-148.7-48.9-177.7-118.6c-0.8-1.9-1.5-4.2-1.2-6.2c0,0-39.5,18-40.8,19.2c-1.2,1.2-2.5,5.1-1.9,6.8
		c34.5,88.7,120.6,151.5,221.5,151.5c101.3,0,187.8-63.4,222-152.8C542.7,383.9,543.7,381.1,540.7,378.5"/>
	<path class="st2" d="M551.1,348.1c-0.2,0.1-0.4,0.2-0.7,0.2c-0.3,0-0.7-0.2-0.9-0.5c-0.4-0.5-0.3-1.2,0.2-1.6
		c0.1,0,1.9-1.5,4.7-5.6c0.2-1.1,0.3-2.2,0.5-3.3c-1.7,2.1-2.8,3-2.9,3c-0.2,0.2-0.5,0.2-0.7,0.2c-0.3,0-0.7-0.2-0.9-0.5
		c-0.4-0.5-0.3-1.2,0.2-1.6c0.1,0,1.9-1.6,4.8-5.9c0.1-1.2,0.2-2.4,0.3-3.6c-2.5,3.4-4.1,4.6-4.2,4.7c-0.2,0.1-0.4,0.2-0.7,0.2
		c-0.4,0-0.7-0.2-0.9-0.5c-0.4-0.5-0.3-1.2,0.2-1.6c0.1-0.1,2.4-1.9,5.9-7.4c0.1-1.4,0.1-2.9,0.2-4.3c-2.9,5.1-4.9,6.9-5,7
		c-0.2,0.2-0.5,0.3-0.8,0.3c-0.3,0-0.6-0.1-0.9-0.4c-0.4-0.5-0.4-1.2,0.1-1.6c0.1-0.1,2.9-2.7,6.5-10.4c-0.1-2.5-0.6-8-0.6-8
		s-0.2,0.9-0.8,2.3c-1.3,3.4-4.8,9.9-12.7,15.5c-6.4,4.5-14.3,8-26.9,9.5c-12.9,1.6-31.3,2-40.7,12.5c-2.1,2.3-3.9,5.3-4.7,8.3
		c-0.7,2.3-0.4,6.9,2.8,7.6c3.5,0.8,7.4-1.4,10-3.8c6.3-5.5,11.7-6,19.1-2.8c6.9,3,15.3,6.7,22.3,9.6c3.8,1.6,7.6,3.7,11.5,4.2
		c3.3,0.4,6.7-1,9.7-4.2c2-2.3,3.6-4.9,4.7-7.7c1.2-2.8,2.1-5.8,2.8-8.8c0.3-1.2,0.5-2.4,0.8-3.6C552,347.3,551.2,348,551.1,348.1"
		/>
	<path class="st1" d="M487.9,378.4c0,0-5.9-1.8-13.9-10.8c3.6-0.4,8.2-2.7,11.7-6.1c3.5-3.4,7.1-4.9,9.7-3.1c3,2-2.1,10.4-3.8,13.4
		C490,374.8,487.9,378.4,487.9,378.4"/>
	<path class="st2" d="M171.3,355.5c-0.9-3-2.7-6-4.7-8.3c-9.4-10.5-27.8-11-40.7-12.5c-12.6-1.5-20.4-4.9-26.9-9.5
		c-7.9-5.6-11.4-12.1-12.7-15.5c-0.6-1.4-0.8-2.3-0.8-2.3s-0.4,4.2-0.6,6.9c3,5.8,5.2,7.8,5.2,7.8c0.5,0.4,0.5,1.1,0.1,1.6
		c-0.2,0.3-0.5,0.4-0.9,0.4c-0.3,0-0.5-0.1-0.8-0.3c-0.1-0.1-1.6-1.4-3.8-4.9c0,1.3,0.1,2.7,0.1,4c2.8,4.2,4.7,5.6,4.7,5.6
		c0.5,0.4,0.6,1.1,0.2,1.6c-0.2,0.3-0.6,0.5-0.9,0.5c-0.2,0-0.5-0.1-0.7-0.2c-0.1-0.1-1.2-1-3.1-3.3c0.1,1.2,0.2,2.5,0.3,3.7
		c2.3,3.2,3.8,4.4,3.8,4.4c0.5,0.4,0.6,1.1,0.2,1.6c-0.2,0.3-0.6,0.4-0.9,0.4c-0.2,0-0.5-0.1-0.7-0.2c-0.1-0.1-0.8-0.6-2-2
		c0.1,1.2,0.3,2.3,0.5,3.5c2.3,3.2,3.8,4.4,3.8,4.4c0.5,0.4,0.6,1.1,0.2,1.6c-0.2,0.3-0.6,0.5-0.9,0.5c-0.2,0-0.5-0.1-0.7-0.2
		c-0.1,0-0.7-0.5-1.7-1.6c0.4,2.2,0.8,4.4,1.3,6.5c0.7,3,1.6,5.9,2.8,8.8c1.2,2.8,2.7,5.4,4.7,7.7c2.9,3.3,6.4,4.7,9.7,4.2
		c3.9-0.5,7.7-2.5,11.5-4.2c6.9-3,15.4-6.6,22.3-9.6c7.4-3.2,12.8-2.8,19.1,2.7c2.6,2.3,6.5,4.5,10,3.8
		C171.6,362.4,171.9,357.8,171.3,355.5"/>
	<path class="st1" d="M88.2,304.7c0,0,0.6,5.2,3.7,9.5c2.1,3,6,6.4,6,6.4s-2.7-11.7-0.8-20.1C92.5,300.8,90.2,302.2,88.2,304.7"/>
	<path class="st1" d="M553,304.7c0,0-0.6,5.2-3.7,9.5c-2.1,3-6,6.4-6,6.4s2.7-11.7,0.8-20.1C548.7,300.8,551.1,302.2,553,304.7"/>
	<path class="st1" d="M153.3,378.8c0,0,5.9-1.8,13.9-10.8c-3.6-0.4-8.2-2.7-11.7-6.1c-3.5-3.4-7.1-4.9-9.7-3.1
		c-3,2,2.1,10.4,3.8,13.4C151.2,375.2,153.3,378.8,153.3,378.8"/>
	<path class="st1" d="M316.9,540.2l-3.5,20.4l6,4.7l5.5-4.7l-2.8-20.3c-0.4,0-0.8,0-1.1,0C319.6,540.3,318.3,540.2,316.9,540.2"/>
	<path class="st1" d="M329.1,560.5c2.4-0.2,4.7-0.5,7-0.9l-5-19.5c-1.8,0.1-3.6,0.1-5.5,0.1L329.1,560.5z"/>
	<path class="st1" d="M339.6,558.8c2.1-0.5,4.3-1,6.4-1.6l-6.6-17.6c-1.7,0.1-3.5,0.2-5.2,0.3L339.6,558.8z"/>
	<path class="st1" d="M303.2,559.5c2.1,0.4,4.3,0.8,6.5,1l3.9-20.4c-1.8-0.1-3.6-0.1-5.5-0.2L303.2,559.5z"/>
	<path class="st1" d="M293.8,557.1c2,0.6,4,1.2,6.1,1.7l5.4-19c-1.7-0.1-3.4-0.2-5.1-0.4L293.8,557.1z"/>
	<path class="st1" d="M211,211.4c1.8,1,3.4,2.5,4.4,4.3c0.7,1.4,1.2,2.9,1.5,4.4c0.2,1.2,0.3,2.4,0.4,3.6c0.1,3.9-0.6,8-2.4,11.8
		c-1.7,3.8-4.3,6.9-7.3,9.3c-1.1,0.9-2.3,1.8-3.6,2.5c-2.5,1.5-5.3,2.3-8.3,1.9c-2.3-0.4-5.1-1.6-5.7-4.1c-0.1-0.6,0-1.5,0.3-2.1
		c0.4-1,1.3-1.6,2.3-1.8c0.7-0.2,1.4-0.1,2.1,0.2c1,0.4,1.6,1.3,1.8,2.3c3.8,1.1,8-0.7,9.7-4.5c1-2.2,1-4.6,0.1-6.6
		c-0.2-0.4-0.3-0.8-0.6-1.1c0.3,0,0.6-0.1,0.9-0.2c2.3-0.6,4.2-2.2,5.3-4.5c1.7-3.7,0.5-7.9-2.7-10.2c-0.9,0.6-2.1,0.8-3.2,0.3
		c-0.8-0.4-1.4-1-1.7-1.8c-0.3-0.8-0.3-1.8,0.1-2.7c1-2.1,3.5-2.2,5.3-1.5C210.2,211,210.6,211.2,211,211.4"/>
	<path class="st1" d="M257.3,167.5c1.2,1.7,1.8,3.8,1.8,5.9c0,1.6-0.3,3.1-0.8,4.6c-0.4,1.2-0.9,2.3-1.4,3.4
		c-1.7,3.5-4.3,6.8-7.7,9.3c-3.3,2.5-7,4-10.8,4.7c-1.4,0.3-2.9,0.4-4.4,0.5c-2.9,0.1-5.8-0.5-8.2-2.3c-1.8-1.4-3.8-3.8-3-6.3
		c0.2-0.6,0.7-1.3,1.2-1.7c0.9-0.6,1.9-0.8,2.9-0.5c0.7,0.2,1.3,0.6,1.8,1.2c0.6,0.8,0.8,1.9,0.6,2.9c2.9,2.8,7.4,3.1,10.7,0.6
		c1.9-1.4,3-3.6,3.2-5.8c0-0.4,0.1-0.8,0-1.3c0.3,0.1,0.6,0.2,0.9,0.2c2.3,0.5,4.8,0.1,6.8-1.5c3.2-2.4,4.2-6.8,2.4-10.3
		c-1.1,0.1-2.3-0.3-3-1.3c-0.5-0.7-0.7-1.5-0.6-2.4c0.1-0.9,0.5-1.8,1.3-2.3c1.8-1.4,4.1-0.3,5.4,1.2
		C256.8,166.8,257,167.1,257.3,167.5"/>
	<path class="st1" d="M431.8,211.4c-1.8,1-3.4,2.5-4.4,4.3c-0.8,1.4-1.2,2.9-1.5,4.4c-0.2,1.2-0.3,2.4-0.4,3.6
		c-0.1,3.9,0.6,8,2.4,11.8c1.7,3.8,4.3,6.9,7.3,9.3c1.1,0.9,2.3,1.8,3.6,2.5c2.5,1.5,5.3,2.3,8.3,1.9c2.3-0.4,5.1-1.6,5.7-4.1
		c0.1-0.6,0-1.5-0.3-2.1c-0.4-1-1.3-1.6-2.3-1.8c-0.7-0.2-1.4-0.1-2.2,0.2c-1,0.4-1.6,1.3-1.8,2.3c-3.8,1.1-8-0.7-9.7-4.5
		c-1-2.2-1-4.6-0.1-6.6c0.2-0.4,0.4-0.8,0.6-1.1c-0.3,0-0.6-0.1-0.9-0.2c-2.3-0.6-4.2-2.2-5.3-4.5c-1.7-3.7-0.5-7.9,2.7-10.2
		c0.9,0.6,2.1,0.8,3.2,0.3c0.8-0.4,1.4-1,1.7-1.8c0.3-0.8,0.3-1.8-0.1-2.7c-1-2.1-3.5-2.2-5.3-1.5
		C432.6,211,432.2,211.2,431.8,211.4"/>
	<path class="st1" d="M385.5,167.5c-1.2,1.7-1.8,3.8-1.8,5.9c0,1.6,0.3,3.1,0.8,4.6c0.4,1.2,0.9,2.3,1.4,3.4
		c1.7,3.5,4.3,6.8,7.7,9.3c3.3,2.5,7,4,10.8,4.7c1.4,0.3,2.9,0.4,4.4,0.5c2.9,0.1,5.8-0.5,8.2-2.3c1.8-1.4,3.8-3.8,3-6.3
		c-0.2-0.6-0.7-1.3-1.2-1.7c-0.9-0.6-1.9-0.8-2.9-0.5c-0.7,0.2-1.3,0.6-1.8,1.2c-0.6,0.8-0.8,1.9-0.6,2.9c-2.9,2.8-7.4,3.1-10.7,0.6
		c-1.9-1.4-3-3.6-3.2-5.8c0-0.4-0.1-0.8,0-1.3c-0.3,0.1-0.6,0.2-0.9,0.2c-2.3,0.5-4.8,0.1-6.8-1.5c-3.2-2.4-4.2-6.8-2.4-10.3
		c1.1,0.1,2.3-0.3,3-1.3c0.5-0.7,0.7-1.5,0.6-2.4c-0.1-0.9-0.5-1.8-1.3-2.3c-1.8-1.4-4.1-0.3-5.4,1.2
		C386,166.8,385.8,167.1,385.5,167.5"/>
	<path class="st0" d="M143.3,400.3c0.7-0.1,1.2-0.1,1.5-0.1c0.2,0.1,0.5,0.3,0.7,0.8l2.1,4.1c0.1,0.2,0.1,0.4,0,0.6
		c-0.1,0.2-0.3,0.4-0.6,0.6c-0.3,0.2-0.6,0.2-0.8,0.1c-0.2-0.1-0.4-0.2-0.7-0.4c-0.2-0.2-0.5-0.3-0.7-0.3c-0.2,0-0.6,0.1-1,0.3
		l-13.3,6.8c-0.8,0.4-1.2,0.8-1.3,1.2l0,0.3c-0.1,0.5-0.3,0.8-0.6,0.9c-0.6,0.3-1.1,0.1-1.5-0.6l-2.1-4.2c-0.4-0.7-0.2-1.2,0.4-1.5
		c0.2-0.1,0.4-0.2,0.5-0.1c0.1,0,0.3,0.1,0.6,0.2l0.3,0.2c0.3,0.2,0.9,0,1.7-0.4l11.9-6.1l-12.8,2.1c-0.7,0.1-1.1,0.1-1.3,0.1
		c-0.2,0-0.4,0-0.6-0.1c-0.2-0.1-0.4-0.4-0.6-0.7c-0.3-0.5-0.4-0.9-0.4-1.2c0-0.3,0.2-0.6,0.6-1.1l9.3-9.6l-11.7,5.9
		c-0.4,0.3-0.7,0.5-0.8,0.6c-0.1,0.1-0.2,0.3-0.3,0.4c-0.1,0.1-0.1,0.3-0.1,0.4c0,0.1,0,0.3,0,0.4c0,0.5-0.2,0.8-0.6,1
		c-0.6,0.3-1.1-0.1-1.6-1.1l-1-1.9c-0.5-1-0.5-1.6,0.1-1.9c0.4-0.2,0.8-0.2,1.2,0.1c0.3,0.2,0.5,0.3,0.6,0.4
		c0.1,0.1,0.3,0.1,0.6,0.1c0.2-0.1,0.5-0.1,1-0.3l13.2-6.7c0.2-0.1,0.4-0.2,0.6-0.4c0.4-0.4,0.6-0.9,0.5-1.4c0-0.4,0-0.6,0-0.8
		c0.1-0.2,0.2-0.4,0.5-0.5c0.6-0.3,1.2-0.1,1.6,0.8l2.2,4.3c0.2,0.5,0.3,0.8,0.1,1.1c-0.2,0.3-0.6,0.7-1.3,1.4l-8.3,8.1L143.3,400.3
		z"/>
	<path class="st0" d="M138.6,422.2c-0.9,0.6-1.6,1.1-1.8,1.5c-0.3,0.4-0.3,0.8-0.2,1.2c0.2,0.5,0.6,1.2,1.2,2.2
		c0.5,0.7,0.9,1.2,1.4,1.5c0.4,0.3,1,0.5,1.9,0.5c0.6,0,1.1,0,1.4,0c0.3,0,0.6,0.2,0.7,0.4c0.1,0.2,0.2,0.4,0.1,0.7
		c-0.1,0.3-0.2,0.5-0.4,0.6c-0.5,0.3-1.3,0.7-2.6,1.1c-0.6,0.2-1,0.3-1.3,0.3c-0.2-0.1-0.5-0.3-0.8-0.8l-6.8-10
		c-0.4-0.7-0.4-1.2,0.2-1.6c0.2-0.1,0.4-0.2,0.5-0.2c0.1,0,0.3,0.1,0.6,0.1l0.3,0.1c0.4,0.1,0.9-0.1,1.6-0.6l12.2-8.2
		c0.8-0.5,1.1-1,1.2-1.3l0-0.3c0-0.5,0.2-0.9,0.5-1.1c0.3-0.2,0.6-0.2,0.9-0.1c0.3,0.1,0.5,0.3,0.7,0.6l6.5,9.6
		c0.4,0.6,0.5,1,0.4,1.4c-0.2,0.5-0.9,1.1-2.2,2c-0.7,0.5-1.3,0.5-1.6,0c-0.2-0.3-0.1-0.7,0.1-1.4c0.3-0.8,0.4-1.4,0.2-2
		c-0.2-0.5-0.5-1.3-1.2-2.2c-0.6-0.9-1.1-1.4-1.4-1.6c-0.4-0.3-0.7-0.3-1.1,0l-4.7,3.2l2.1,3.1c0.3,0.4,0.5,0.7,0.7,0.8
		c0.2,0.1,0.5,0.2,0.8,0.2c0.3,0,0.6,0.2,0.7,0.3c0.3,0.5-0.1,1.1-1.3,1.9c-0.7,0.5-1.3,0.8-1.7,0.9c-0.4,0.1-0.7,0.1-0.9-0.2
		c-0.1-0.2-0.1-0.4-0.1-0.8c0.1-0.3,0.1-0.6,0.1-0.8c0-0.2-0.1-0.5-0.4-0.9l-2.1-3.1L138.6,422.2z"/>
	<path class="st0" d="M165.7,436.2c0.1-0.1,0.4-0.4,0.7-0.7c0.2-0.4,0.2-0.8,0-1.3c-0.1-0.5,0.1-0.9,0.4-1.2
		c0.5-0.4,1.1-0.2,1.8,0.7l1.4,1.6c0.7,0.8,0.8,1.5,0.3,1.9c-0.3,0.3-0.7,0.4-1.2,0.2c-0.5-0.3-0.9-0.3-1.3-0.2
		c-0.2,0.1-0.5,0.2-0.9,0.5l-12.8,10.8c-0.7,0.6-1.2,0.9-1.5,0.9c-0.3,0-0.7-0.2-1.2-0.7c-0.4-0.5-0.5-0.9-0.5-1.3
		c0.1-0.3,0.5-1.5,1.3-3.5l5.2-14.5l-9.9,8.3c-0.3,0.4-0.6,0.6-0.7,0.8c-0.1,0.2-0.2,0.3-0.2,0.4c0,0.1,0,0.3,0,0.4
		c0,0.1,0.1,0.3,0.1,0.4c0.1,0.5,0,0.9-0.3,1.1c-0.5,0.4-1.1,0.2-1.8-0.7l-1.4-1.6c-0.7-0.9-0.8-1.5-0.3-1.9
		c0.4-0.3,0.8-0.4,1.2-0.2c0.3,0.1,0.5,0.2,0.7,0.3c0.1,0,0.3,0,0.6-0.1c0.2-0.1,0.5-0.3,0.9-0.5l10.4-8.8c0.3-0.2,0.5-0.4,0.8-0.7
		c0.2-0.2,0.4-0.4,0.6-0.6c0.2-0.2,0.3-0.4,0.3-0.6c0-0.2,0-0.5-0.1-0.8c-0.1-0.3-0.2-0.6-0.2-0.8c0-0.2,0.1-0.4,0.4-0.6
		c0.5-0.5,1.1-0.3,1.7,0.4l2.2,2.6c0.3,0.4,0.5,0.6,0.5,0.8c0.1,0.2,0,0.5-0.1,1c-0.2,0.7-0.4,1.5-0.7,2.4c-0.3,0.9-0.6,1.7-0.9,2.5
		c-0.3,0.8-0.7,1.9-1.2,3.3l-2.3,6.3L165.7,436.2z"/>
	<path class="st0" d="M174.2,451.5c0.9,1.5,1.3,2.8,1.3,3.9c0,1.7-0.6,3.2-1.9,4.6c-1.7,1.7-3.6,2.6-5.8,2.6c-2,0-3.8-0.8-5.4-2.3
		c-1.3-1.2-2.1-2.6-2.6-4.1c-0.2-0.9-0.3-1.8-0.2-2.8c0.1-1,0.4-1.8,1-2.4c0.3-0.3,0.7-0.5,1.1-0.6c0.4-0.1,0.7,0,1,0.2
		c0.4,0.4,0.4,1,0.2,1.8c0,0.2-0.1,0.4-0.2,0.8c-0.1,0.4-0.1,0.6-0.2,0.8c0,0.2-0.1,0.4-0.1,0.6c0,0.2,0,0.5,0,0.7
		c0.1,1.2,0.6,2.2,1.5,3c0.7,0.7,1.5,1,2.5,1.1c1,0.1,1.9-0.3,2.7-1.1c0.8-0.8,1-1.7,0.7-2.6c-0.2-0.7-0.7-1.7-1.5-3
		c-1-1.5-1.5-2.9-1.7-4c-0.2-1.9,0.5-3.6,1.9-5.1c0.7-0.8,1.6-1.3,2.6-1.8c1-0.4,2-0.6,3-0.6c1.7,0,3.3,0.8,4.8,2.2
		c1.4,1.4,2.4,3,2.8,5c0.1,0.5,0,0.8-0.2,1.1c-0.2,0.4-0.8,1.1-1.8,2.1c-0.6,0.6-1.1,0.7-1.6,0.3c-0.2-0.2-0.2-0.5-0.1-1
		c0.1-0.5,0.3-1.1,0.5-1.8c0.2-0.7,0.2-1.4,0.1-2.1c-0.1-0.7-0.5-1.3-1.2-2c-0.6-0.6-1.3-0.9-2.1-0.9c-0.8-0.1-1.6,0.3-2.2,0.9
		c-0.7,0.7-1,1.4-0.9,2.1c0.1,0.7,0.4,1.5,0.9,2.4L174.2,451.5z"/>
	<path class="st0" d="M198,470.5c1.1,1.4,1.7,2.6,1.9,3.6c0.3,1.7-0.1,3.3-1.2,4.8c-1.4,2-3.2,3.1-5.4,3.4c-2,0.3-3.9-0.2-5.7-1.5
		c-1.4-1-2.5-2.2-3.2-3.7c-0.3-0.8-0.5-1.7-0.6-2.7c-0.1-1,0.1-1.8,0.6-2.5c0.3-0.4,0.6-0.6,1-0.8c0.4-0.1,0.7-0.1,1,0.1
		c0.4,0.3,0.6,0.9,0.4,1.7c0,0.2,0,0.4-0.1,0.8c0,0.4-0.1,0.6-0.1,0.8c0,0.2,0,0.4,0,0.6c0,0.2,0.1,0.5,0.1,0.7c0.3,1.1,1,2,1.9,2.7
		c0.8,0.5,1.7,0.8,2.7,0.7c1-0.1,1.8-0.6,2.5-1.5c0.6-0.9,0.7-1.8,0.3-2.6c-0.3-0.7-0.9-1.6-2-2.7c-1.2-1.4-1.9-2.6-2.3-3.7
		c-0.5-1.9-0.1-3.6,1.1-5.3c0.6-0.8,1.4-1.6,2.3-2.1c0.9-0.6,1.9-0.9,2.8-1.1c1.7-0.2,3.4,0.2,5.1,1.4c1.6,1.1,2.8,2.6,3.5,4.4
		c0.1,0.4,0.1,0.8,0,1.1c-0.2,0.5-0.6,1.2-1.4,2.4c-0.5,0.7-1,0.9-1.5,0.5c-0.2-0.2-0.3-0.5-0.2-1c0.1-0.5,0.1-1.1,0.2-1.8
		c0.1-0.7,0-1.4-0.2-2c-0.2-0.6-0.7-1.2-1.5-1.8c-0.6-0.5-1.4-0.7-2.2-0.6c-0.8,0.1-1.5,0.5-2,1.2c-0.6,0.8-0.7,1.5-0.6,2.2
		c0.2,0.7,0.6,1.4,1.2,2.3L198,470.5z"/>
	<path class="st0" d="M212.3,484.3l0.1-0.4l1.5-8l-6.5,5.7L212.3,484.3z M199.5,488.4c-0.5-0.3-0.9-0.6-1.1-0.8
		c-0.2-0.2-0.1-0.6,0.1-0.9c0.1-0.2,0.4-0.4,0.9-0.6c0.4,0,0.8-0.2,1.2-0.5l2.5-2.5c1.7-1.8,4.5-4.3,8.3-7.6
		c1.2-1.1,2.5-2.1,3.9-3.1c0.4-0.3,0.8-0.5,1-0.4c0.3,0,0.6,0.1,1.1,0.4c0.6,0.3,0.9,0.7,1.1,1c0.1,0.4,0.1,0.9,0,1.7l-2.9,15.4
		l-0.8,3.2c-0.1,0.3-0.1,0.5-0.1,0.6c0,0.1,0.1,0.3,0.2,0.6c0.2,0.4,0.2,0.7,0,1c-0.4,0.6-0.9,0.7-1.6,0.3l-3.6-2.1
		c-0.9-0.5-1.2-1.1-0.8-1.6c0.2-0.3,0.5-0.5,0.9-0.5c0.4,0,0.7-0.1,0.8-0.3c0.3-0.5,0.7-1.9,1.2-4.2l0.1-0.5l-6-3.4
		c-0.1,0.1-0.4,0.4-0.9,0.9c-0.5,0.5-0.9,0.9-1.3,1.3c-0.3,0.4-0.6,0.7-0.7,0.9c-0.2,0.3-0.2,0.5-0.2,0.7c0,0.2,0.1,0.4,0.2,0.6
		c0.1,0.2,0.2,0.4,0.2,0.6c0,0.2,0,0.4-0.1,0.6c-0.2,0.4-0.5,0.5-0.8,0.5c-0.3,0-0.8-0.2-1.3-0.5L199.5,488.4z"/>
	<path class="st0" d="M238.7,487.3c0.1-0.2,0.2-0.5,0.3-1c0-0.4-0.2-0.8-0.5-1.2c-0.3-0.4-0.3-0.8-0.1-1.2c0.3-0.6,0.9-0.6,1.9-0.2
		l2,0.9c1,0.4,1.4,1,1.1,1.6c-0.2,0.4-0.5,0.7-1,0.7c-0.5,0-0.9,0.1-1.2,0.4c-0.1,0.1-0.3,0.4-0.6,0.8l-6.8,15.3
		c-0.4,0.8-0.7,1.4-0.9,1.5c-0.3,0.2-0.7,0.1-1.4-0.2c-0.5-0.3-0.9-0.6-1-0.9c-0.1-0.3-0.2-1.6-0.4-3.7l-1.7-15.3l-5.2,11.8
		c-0.1,0.5-0.2,0.8-0.3,1c0,0.2,0,0.4,0,0.5c0,0.1,0.1,0.2,0.2,0.4c0.1,0.1,0.2,0.2,0.3,0.3c0.3,0.4,0.4,0.8,0.2,1.2
		c-0.3,0.6-0.9,0.6-1.9,0.2l-2-0.9c-1-0.4-1.4-1-1.1-1.5c0.2-0.4,0.5-0.7,1-0.7c0.3,0,0.6,0,0.7-0.1c0.1,0,0.3-0.1,0.5-0.3
		c0.1-0.2,0.3-0.4,0.6-0.9l5.5-12.5c0.1-0.3,0.3-0.6,0.4-0.9c0.1-0.3,0.2-0.6,0.3-0.8c0-0.3,0-0.5,0-0.7c-0.1-0.2-0.2-0.4-0.4-0.7
		c-0.2-0.3-0.4-0.5-0.5-0.7c-0.1-0.2-0.1-0.4,0.1-0.7c0.3-0.6,0.9-0.8,1.7-0.4l3.1,1.4c0.4,0.2,0.7,0.4,0.9,0.5
		c0.1,0.1,0.2,0.4,0.4,0.9c0.2,0.7,0.3,1.5,0.4,2.5c0.1,0.9,0.2,1.8,0.3,2.7c0.1,0.8,0.2,2,0.4,3.5l0.7,6.7L238.7,487.3z"/>
	<path class="st0" d="M251.5,501.3l0-0.5l-0.1-8.2l-5.2,6.9L251.5,501.3z M239.8,507.8c-0.6-0.2-1-0.4-1.2-0.6
		c-0.2-0.2-0.3-0.5-0.1-0.9c0.1-0.3,0.3-0.5,0.7-0.7c0.4-0.1,0.8-0.4,1-0.7l1.9-3c1.3-2.1,3.5-5.1,6.7-9c1-1.3,2-2.6,3.2-3.9
		c0.4-0.4,0.7-0.6,0.9-0.6c0.3,0,0.6,0,1.1,0.2c0.6,0.2,1.1,0.5,1.2,0.8s0.3,0.9,0.3,1.7l0.2,15.6l-0.2,3.3c0,0.3,0,0.5,0.1,0.6
		c0,0.1,0.1,0.3,0.3,0.6c0.2,0.3,0.3,0.6,0.2,1c-0.2,0.7-0.7,0.9-1.5,0.6l-4-1.3c-1-0.3-1.4-0.8-1.1-1.4c0.1-0.3,0.4-0.5,0.8-0.7
		c0.4-0.1,0.7-0.3,0.7-0.5c0.2-0.5,0.3-2,0.4-4.3l0.1-0.5l-6.6-2.2c-0.1,0.1-0.3,0.5-0.7,1.1c-0.4,0.6-0.7,1.1-1,1.5
		c-0.3,0.4-0.4,0.8-0.5,1c-0.1,0.3-0.1,0.5-0.1,0.7c0,0.2,0.2,0.4,0.3,0.6c0.1,0.2,0.3,0.4,0.3,0.6c0.1,0.2,0.1,0.4,0,0.6
		c-0.1,0.4-0.4,0.6-0.7,0.6c-0.3,0-0.8-0.1-1.4-0.3L239.8,507.8z"/>
	<path class="st0" d="M276,498.8c0.2-0.9,0.2-1.5-0.1-1.8l-0.2-0.2c-0.3-0.4-0.5-0.8-0.4-1.1c0.1-0.7,0.6-1,1.4-0.8l4.6,0.9
		c0.3,0.1,0.6,0.2,0.8,0.4c0.2,0.2,0.3,0.5,0.2,0.9c-0.1,0.4-0.3,0.7-0.8,0.9l-0.3,0.1c-0.3,0.2-0.6,0.7-0.8,1.6l-2.9,14.5
		c-0.2,0.9-0.1,1.4,0.1,1.7l0.2,0.2c0.3,0.4,0.5,0.7,0.4,1.1c-0.1,0.7-0.6,1-1.4,0.8l-4.6-0.9c-0.8-0.2-1.1-0.6-1-1.3
		c0-0.2,0.1-0.4,0.2-0.5c0.1-0.1,0.3-0.2,0.6-0.3l0.3-0.1c0.3-0.1,0.6-0.6,0.8-1.6L276,498.8z"/>
	<path class="st0" d="M299.1,502.3c0-0.2,0-0.5,0-1c-0.1-0.4-0.4-0.7-0.9-1c-0.4-0.3-0.5-0.7-0.5-1.1c0.1-0.6,0.7-0.9,1.8-0.7
		l2.1,0.3c1.1,0.1,1.6,0.5,1.5,1.2c-0.1,0.4-0.3,0.8-0.7,1c-0.5,0.1-0.9,0.4-1,0.7c-0.1,0.2-0.2,0.5-0.3,1l-2.1,16.6
		c-0.1,0.9-0.3,1.5-0.5,1.7c-0.2,0.2-0.7,0.3-1.4,0.2c-0.6-0.1-1-0.3-1.2-0.6c-0.2-0.3-0.7-1.4-1.4-3.4l-6-14.1l-1.6,12.8
		c0,0.5,0,0.8,0,1c0,0.2,0.1,0.3,0.2,0.4c0.1,0.1,0.2,0.2,0.3,0.3c0.1,0.1,0.2,0.2,0.3,0.2c0.4,0.3,0.6,0.6,0.5,1.1
		c-0.1,0.6-0.7,0.9-1.8,0.7l-2.1-0.3c-1.1-0.1-1.6-0.5-1.5-1.2c0.1-0.5,0.3-0.8,0.7-0.9c0.3-0.1,0.5-0.2,0.7-0.3
		c0.1-0.1,0.3-0.2,0.4-0.5c0.1-0.2,0.2-0.5,0.3-1l1.7-13.5c0-0.3,0.1-0.7,0.1-1c0-0.3,0-0.6,0-0.9c0-0.2-0.1-0.5-0.2-0.7
		c-0.1-0.2-0.3-0.4-0.6-0.5c-0.3-0.2-0.5-0.3-0.6-0.5c-0.1-0.1-0.2-0.4-0.1-0.7c0.1-0.7,0.6-1,1.5-0.9l3.3,0.4
		c0.5,0.1,0.8,0.1,1,0.2c0.1,0.1,0.4,0.3,0.6,0.8c0.4,0.6,0.7,1.4,1.1,2.2c0.4,0.9,0.8,1.7,1.1,2.5c0.3,0.8,0.8,1.9,1.4,3.2l2.6,6.2
		L299.1,502.3z"/>
	<path class="st0" d="M330,502.3c-0.8-0.8-1.7-1.1-2.7-1.1c-1.8,0-3.2,1-4.2,3c-0.9,1.8-1.4,3.9-1.3,6.3c0.1,2.4,0.5,4.5,1.4,6.2
		c1,2,2.5,2.9,4.6,2.9c1.6,0,3-0.8,4.2-2.4c0.1-0.2,0.3-0.4,0.5-0.6c0.1-0.2,0.3-0.4,0.5-0.5c0.2-0.1,0.4-0.2,0.6-0.2
		c0.2,0,0.4,0.1,0.6,0.3c0.2,0.2,0.3,0.5,0.3,0.8c0,0.6-0.3,1.3-0.8,2c-0.5,0.7-1.1,1.3-1.7,1.7c-1.4,1.1-3,1.7-4.9,1.7
		c-1.7,0-3.4-0.4-4.9-1.3c-1.5-0.9-2.7-2.2-3.6-3.9c-0.9-1.7-1.4-3.7-1.4-5.9c0-1.7,0.2-3.3,0.7-4.8c0.5-1.5,1.2-2.8,2.2-3.9
		c0.9-1.1,2-2,3.2-2.7c1.2-0.6,2.5-1,3.8-1c2.2,0,4.1,0.6,5.8,2c0.4,0.3,0.7,0.6,0.8,1c0.2,0.5,0.3,1.7,0.3,3.4
		c0,0.4-0.1,0.6-0.3,0.9c-0.2,0.2-0.4,0.3-0.7,0.4c-0.3,0-0.5-0.1-0.7-0.3c-0.1-0.2-0.3-0.6-0.6-1.2
		C331.1,503.7,330.5,502.8,330,502.3"/>
	<path class="st0" d="M353.2,508.6c-0.2-1.5-0.5-2.9-1-4.3c-0.5-1.4-1.1-2.5-2-3.4c-0.9-0.9-1.9-1.2-3.1-1.1
		c-1.7,0.2-2.9,1.5-3.6,3.8c-0.4,1.7-0.5,3.7-0.3,5.9c0.2,1.5,0.5,2.9,1,4.3c0.5,1.4,1.1,2.6,2,3.5c0.9,0.9,1.9,1.3,3.1,1.1
		c1.2-0.1,2.1-0.7,2.8-1.8c0.6-1,1-2.3,1.2-3.7C353.4,511.6,353.4,510.1,353.2,508.6 M342.3,518.3c-2.1-2-3.3-4.7-3.7-8.1
		c-0.2-1.6-0.1-3.2,0.2-4.7c0.3-1.5,0.9-2.8,1.6-4c0.8-1.2,1.7-2.1,2.8-2.8c1.1-0.7,2.3-1.1,3.6-1.3c1.3-0.1,2.6,0,3.9,0.4
		c1.3,0.4,2.4,1.1,3.4,2c1,0.9,1.9,2.1,2.5,3.4c0.7,1.4,1.1,2.9,1.3,4.6c0.3,2.2,0.1,4.3-0.6,6.2c-0.7,1.9-1.7,3.4-3.1,4.6
		c-1.4,1.2-3,1.9-4.8,2.1c-1.2,0.1-2.5,0-3.8-0.4C344.4,519.9,343.3,519.2,342.3,518.3"/>
	<path class="st0" d="M367.6,505.5c1.4-0.3,2.6-1,3.6-2c1-1,1.3-2.3,1-3.9c-0.3-1.2-0.8-2.1-1.6-2.6c-0.8-0.5-1.7-0.6-2.7-0.4
		c-0.9,0.2-1.4,0.5-1.6,1c-0.2,0.4-0.2,1,0,2.1L367.6,505.5z M369.4,513.2c0.2,0.9,0.5,1.4,0.8,1.5l0.3,0.1c0.4,0.2,0.7,0.5,0.8,0.8
		c0.2,0.7-0.2,1.1-1,1.3l-4.6,1c-0.8,0.2-1.3-0.1-1.4-0.8c-0.1-0.2-0.1-0.4,0-0.6c0.1-0.1,0.2-0.3,0.4-0.5l0.2-0.2
		c0.2-0.2,0.3-0.8,0.1-1.7l-3.2-14.3c-0.2-0.9-0.5-1.5-0.8-1.6l-0.3-0.1c-0.3-0.1-0.5-0.2-0.6-0.3c-0.1-0.1-0.2-0.2-0.2-0.5
		c-0.1-0.7,0.2-1.1,1-1.3l8.6-2c1.8-0.4,3.2-0.4,4.2,0c0.8,0.3,1.4,0.7,2,1.4c0.6,0.7,1,1.5,1.2,2.5c0.5,2.4-0.2,4.7-2.4,6.6
		c1.6,1.4,3.2,3.6,5,6.6c0.3,0.5,0.6,0.9,0.7,1c0.2,0.2,0.4,0.4,0.8,0.5c0.3,0.1,0.5,0.2,0.6,0.3c0.1,0.1,0.2,0.2,0.2,0.5
		c0.1,0.6-0.2,1-1.1,1.2l-4.7,1.1c-0.4,0.1-0.8,0.1-1.1,0.1c-0.3-0.1-0.5-0.3-0.6-0.7c-0.1-0.3,0-0.6,0.3-1c0.3-0.3,0.4-0.6,0.3-0.9
		c-0.2-0.7-0.8-1.8-1.8-3.2c-1.1-1.4-2-2.5-2.7-3.1l-2.3,1L369.4,513.2z"/>
	<path class="st0" d="M388.1,501.1c1.3-0.7,2.4-1.6,3.2-2.7c0.8-1.1,0.9-2.5,0.4-4c-0.4-1.2-1-2.1-1.9-2.6c-0.9-0.5-1.8-0.6-2.8-0.3
		c-0.8,0.2-1.2,0.6-1.3,1c-0.1,0.4-0.1,1,0.2,1.8L388.1,501.1z M390.3,507.8c0.2,0.4,0.4,0.7,0.5,0.9c0.2,0.2,0.3,0.3,0.4,0.4
		c0.1,0,0.4,0.1,0.7,0.1c0.4,0.1,0.7,0.3,0.9,0.8c0.2,0.6-0.2,1.1-1.3,1.4l-4.4,1.4c-0.8,0.2-1.3,0-1.5-0.6c-0.1-0.2-0.1-0.4,0-0.5
		c0-0.1,0.1-0.3,0.3-0.6l0.2-0.3c0.2-0.3,0.2-0.9-0.1-1.7l-4.5-14c-0.3-0.9-0.6-1.4-0.9-1.5l-0.3-0.1c-0.5-0.2-0.8-0.5-0.9-0.8
		c-0.2-0.7,0.1-1.1,0.8-1.4l7.2-2.3c1.9-0.6,3.5-0.7,4.8-0.4c0.9,0.3,1.8,0.7,2.4,1.4c0.7,0.7,1.2,1.6,1.6,2.6
		c0.4,1.3,0.5,2.6,0.1,3.8c-0.3,1.2-0.9,2.3-1.7,3.3c-0.7,0.8-1.5,1.5-2.5,2c-0.9,0.6-2.1,1.1-3.3,1.6L390.3,507.8z"/>
	<path class="st0" d="M415,490.4c-0.6-1.4-1.3-2.6-2.2-3.8c-0.9-1.2-1.8-2.1-2.9-2.7c-1.1-0.6-2.2-0.6-3.3-0.2
		c-1.6,0.7-2.4,2.3-2.3,4.7c0.1,1.7,0.5,3.7,1.4,5.8c0.6,1.3,1.3,2.6,2.2,3.8c0.9,1.2,1.8,2.1,2.9,2.7c1.1,0.6,2.2,0.7,3.3,0.2
		c1.1-0.5,1.8-1.3,2.2-2.5c0.3-1.2,0.3-2.5,0.1-3.9C416,493.2,415.6,491.8,415,490.4 M407.3,502.9c-2.6-1.3-4.5-3.5-5.9-6.6
		c-0.7-1.5-1.1-3.1-1.2-4.6c-0.1-1.5,0-2.9,0.4-4.3c0.4-1.3,1-2.5,1.9-3.5c0.9-1,1.9-1.7,3.1-2.3c1.2-0.5,2.5-0.8,3.8-0.8
		c1.3,0,2.6,0.3,3.9,0.9c1.2,0.6,2.4,1.4,3.4,2.6c1,1.1,1.9,2.5,2.6,4c0.9,2,1.3,4.1,1.2,6.1c-0.1,2-0.7,3.8-1.7,5.3
		c-1,1.5-2.3,2.6-3.9,3.4c-1.1,0.5-2.4,0.7-3.7,0.7C409.8,503.8,408.5,503.5,407.3,502.9"/>
	<path class="st0" d="M427.9,483.2c1.3-0.7,2.2-1.8,2.9-3c0.6-1.3,0.6-2.6-0.2-4c-0.6-1.1-1.4-1.8-2.3-2c-0.9-0.2-1.8-0.1-2.7,0.4
		c-0.8,0.5-1.2,0.9-1.3,1.4c-0.1,0.4,0.1,1.1,0.6,2L427.9,483.2z M431.8,490.1c0.4,0.8,0.8,1.2,1.2,1.2l0.3,0c0.5,0.1,0.8,0.3,1,0.6
		c0.4,0.6,0.2,1.1-0.5,1.5l-4.1,2.3c-0.7,0.4-1.2,0.3-1.6-0.3c-0.1-0.2-0.2-0.4-0.1-0.5c0-0.1,0.1-0.3,0.2-0.6l0.1-0.3
		c0.2-0.3,0-0.9-0.4-1.7l-7.2-12.8c-0.5-0.8-0.9-1.3-1.2-1.3l-0.3-0.1c-0.3,0-0.5-0.1-0.6-0.1c-0.1,0-0.2-0.2-0.4-0.4
		c-0.4-0.6-0.2-1.1,0.5-1.5l7.6-4.4c1.6-0.9,2.9-1.3,4-1.3c0.8,0,1.6,0.3,2.4,0.8c0.8,0.5,1.4,1.2,1.9,2c1.2,2.2,1.1,4.5-0.3,7
		c1.9,0.8,4.2,2.5,6.7,4.8c0.4,0.4,0.8,0.6,1,0.8c0.2,0.1,0.5,0.2,0.9,0.3c0.3,0,0.5,0.1,0.6,0.1c0.1,0,0.2,0.2,0.3,0.4
		c0.3,0.5,0.1,1-0.7,1.4l-4.2,2.4c-0.4,0.2-0.7,0.3-1,0.4c-0.3,0-0.6-0.1-0.8-0.5c-0.1-0.3-0.1-0.6,0-1c0.2-0.4,0.2-0.7,0.1-1
		c-0.4-0.6-1.3-1.5-2.7-2.5c-1.4-1.1-2.6-1.8-3.5-2.2l-1.9,1.6L431.8,490.1z"/>
	<path class="st0" d="M449.2,477.2c0.7,0.9,1.2,1.5,1.5,1.8c0.4,0.3,0.8,0.3,1.2,0.2c0.5-0.2,1.2-0.6,2.2-1.3
		c0.7-0.5,1.2-0.9,1.5-1.4c0.3-0.4,0.5-1.1,0.5-1.9c0-0.6,0-1.1,0-1.4c0-0.3,0.2-0.6,0.4-0.7c0.2-0.1,0.4-0.2,0.7-0.1
		c0.3,0.1,0.5,0.2,0.6,0.4c0.3,0.4,0.7,1.3,1.2,2.6c0.2,0.6,0.3,1,0.3,1.3c-0.1,0.2-0.3,0.5-0.8,0.8l-9.9,7
		c-0.7,0.5-1.2,0.4-1.6-0.2c-0.2-0.2-0.2-0.4-0.2-0.5c0-0.1,0.1-0.3,0.1-0.6l0.1-0.3c0.1-0.4-0.1-0.9-0.6-1.6l-8.5-12.1
		c-0.5-0.8-1-1.1-1.4-1.2l-0.3,0c-0.5,0-0.9-0.2-1.1-0.5c-0.2-0.3-0.3-0.6-0.2-0.9c0.1-0.3,0.3-0.5,0.5-0.7l9.4-6.6
		c0.6-0.4,1-0.6,1.4-0.5c0.4,0.2,1.1,0.9,2,2.2c0.5,0.7,0.5,1.2,0,1.6c-0.3,0.2-0.7,0.1-1.4-0.1c-0.8-0.3-1.4-0.3-2-0.1
		c-0.5,0.2-1.3,0.6-2.2,1.2c-0.9,0.6-1.4,1.1-1.5,1.4c-0.2,0.4-0.2,0.7,0,1.1l3.3,4.7l3-2.1c0.4-0.3,0.7-0.5,0.7-0.8
		c0.1-0.2,0.1-0.5,0.2-0.8c0-0.3,0.1-0.5,0.3-0.7c0.5-0.3,1.1,0.1,1.9,1.2c0.5,0.7,0.8,1.3,1,1.7c0.2,0.4,0.1,0.7-0.2,0.9
		c-0.2,0.1-0.4,0.2-0.8,0.1c-0.3-0.1-0.6-0.1-0.8-0.1c-0.2,0-0.5,0.1-0.9,0.4l-3.1,2.1L449.2,477.2z"/>
	<path class="st0" d="M471,448.6c1.6-0.8,2.9-1.2,3.9-1.1c1.7,0.1,3.2,0.8,4.5,2.1c1.7,1.7,2.5,3.7,2.4,5.9c-0.1,2-1,3.8-2.6,5.3
		c-1.3,1.2-2.7,2-4.2,2.4c-0.9,0.2-1.8,0.2-2.8,0.1c-1-0.1-1.7-0.5-2.3-1.1c-0.3-0.3-0.5-0.7-0.6-1.1c-0.1-0.4,0-0.7,0.3-1
		c0.4-0.4,1-0.4,1.8-0.1c0.2,0.1,0.4,0.1,0.8,0.2s0.6,0.2,0.8,0.2c0.2,0,0.4,0.1,0.6,0.1c0.2,0,0.5,0,0.7,0c1.2-0.1,2.2-0.6,3.1-1.4
		c0.7-0.6,1.1-1.5,1.3-2.5c0.1-1-0.2-1.9-1-2.7c-0.8-0.8-1.6-1.1-2.5-0.8c-0.8,0.1-1.8,0.6-3.1,1.4c-1.6,0.9-2.9,1.4-4,1.5
		c-1.9,0.1-3.6-0.6-5-2.1c-0.7-0.7-1.3-1.6-1.7-2.7c-0.4-1-0.5-2-0.5-3c0.1-1.7,0.9-3.3,2.4-4.7c1.4-1.4,3.1-2.3,5.1-2.6
		c0.5-0.1,0.8,0,1.1,0.2c0.4,0.3,1.1,0.9,2.1,1.9c0.6,0.6,0.6,1.1,0.2,1.6c-0.2,0.2-0.5,0.2-1,0.1c-0.5-0.1-1-0.3-1.7-0.6
		c-0.7-0.2-1.4-0.3-2.1-0.2c-0.7,0.1-1.4,0.5-2,1.1c-0.6,0.6-0.9,1.2-1,2.1c-0.1,0.8,0.2,1.6,0.8,2.2c0.7,0.7,1.4,1,2.1,1
		c0.7-0.1,1.5-0.3,2.5-0.8L471,448.6z"/>
	<path class="st0" d="M487.2,437.1l-0.4-0.2l-7.6-3l4.4,7.4L487.2,437.1z M488.8,450.5c-0.4,0.5-0.7,0.7-1,0.9
		c-0.3,0.1-0.6,0-0.9-0.2c-0.2-0.2-0.3-0.5-0.4-1c0-0.5-0.1-0.9-0.3-1.2l-2-2.9c-1.4-2-3.4-5.2-5.9-9.5c-0.8-1.4-1.6-2.9-2.4-4.4
		c-0.2-0.5-0.3-0.8-0.2-1.1c0.1-0.3,0.3-0.6,0.6-0.9c0.4-0.5,0.8-0.8,1.2-0.9c0.4-0.1,0.9,0.1,1.7,0.4l14.6,5.7l3,1.4
		c0.3,0.1,0.4,0.2,0.6,0.2c0.1,0,0.3,0,0.7-0.1c0.4-0.1,0.7-0.1,1,0.2c0.5,0.5,0.5,1,0,1.6l-2.7,3.2c-0.7,0.8-1.3,0.9-1.8,0.5
		c-0.3-0.2-0.4-0.6-0.3-1c0.1-0.4,0-0.7-0.2-0.9c-0.4-0.3-1.7-1-3.9-2l-0.5-0.2l-4.5,5.3c0.1,0.1,0.3,0.4,0.7,1
		c0.4,0.6,0.8,1.1,1,1.5c0.3,0.4,0.6,0.7,0.8,0.9c0.2,0.2,0.4,0.3,0.6,0.3c0.2,0,0.4,0,0.7-0.1c0.3-0.1,0.5-0.1,0.6-0.1
		c0.2,0,0.4,0.1,0.6,0.2c0.3,0.3,0.4,0.6,0.3,0.9c-0.1,0.3-0.4,0.7-0.8,1.2L488.8,450.5z"/>
	<path class="st0" d="M495,411.7c-0.1-0.1-0.4-0.2-0.9-0.5c-0.4-0.1-0.8,0-1.2,0.3c-0.5,0.2-0.9,0.2-1.2-0.1c-0.5-0.4-0.5-1,0.2-1.9
		l1.2-1.8c0.6-0.9,1.2-1.2,1.7-0.8c0.4,0.3,0.6,0.6,0.5,1.1c-0.1,0.5-0.1,0.9,0.2,1.2c0.1,0.1,0.4,0.4,0.7,0.7l13.9,9.3
		c0.8,0.5,1.2,0.9,1.3,1.2c0.1,0.3,0,0.7-0.4,1.3c-0.3,0.5-0.7,0.7-1.1,0.8c-0.4,0-1.6-0.1-3.7-0.3l-15.3-1l10.7,7.2
		c0.4,0.2,0.7,0.4,0.9,0.4c0.2,0.1,0.4,0.1,0.5,0s0.3-0.1,0.4-0.1c0.1-0.1,0.2-0.1,0.4-0.2c0.4-0.3,0.8-0.2,1.2,0
		c0.5,0.4,0.5,1-0.2,1.9l-1.2,1.8c-0.6,0.9-1.2,1.2-1.7,0.8c-0.4-0.3-0.6-0.6-0.5-1.1c0-0.3,0.1-0.6,0.1-0.7c0-0.2-0.1-0.3-0.2-0.5
		c-0.1-0.2-0.4-0.4-0.7-0.7l-11.3-7.6c-0.3-0.2-0.6-0.4-0.8-0.5c-0.3-0.2-0.5-0.3-0.8-0.4c-0.2-0.1-0.5-0.1-0.7-0.1
		c-0.2,0-0.5,0.1-0.7,0.3c-0.3,0.2-0.5,0.3-0.7,0.4c-0.2,0.1-0.4,0-0.7-0.2c-0.6-0.4-0.6-1-0.1-1.8l1.9-2.8c0.3-0.4,0.5-0.6,0.6-0.7
		c0.2-0.1,0.5-0.2,1-0.2c0.7,0,1.6,0,2.5,0c0.9,0,1.8,0.1,2.7,0.1c0.8,0.1,2,0.1,3.5,0.2l6.7,0.5L495,411.7z"/>
	<path class="st0" d="M512,396.2c-1.3-0.7-2.7-1.2-4.1-1.6c-1.4-0.4-2.7-0.4-3.9-0.2c-1.2,0.2-2.1,0.9-2.6,2
		c-0.8,1.6-0.4,3.3,1.2,5.1c1.2,1.3,2.8,2.5,4.8,3.5c1.3,0.7,2.7,1.2,4.1,1.5c1.4,0.4,2.8,0.5,4,0.3c1.2-0.2,2.1-0.9,2.6-1.9
		c0.6-1.1,0.6-2.2,0.1-3.3c-0.5-1.1-1.3-2.1-2.4-3C514.5,397.6,513.3,396.8,512,396.2 M514,410.6c-2.8,0.6-5.7,0.2-8.8-1.4
		c-1.5-0.8-2.8-1.7-3.8-2.8c-1.1-1.1-1.9-2.3-2.4-3.6c-0.5-1.3-0.8-2.6-0.8-3.9c0-1.3,0.3-2.6,0.9-3.7c0.6-1.2,1.4-2.2,2.5-3
		c1.1-0.8,2.2-1.4,3.6-1.7c1.3-0.3,2.8-0.4,4.3-0.2c1.5,0.2,3,0.7,4.6,1.5c2,1,3.6,2.3,4.8,3.9c1.2,1.6,1.9,3.3,2.1,5.2
		c0.2,1.8-0.1,3.5-0.9,5.1c-0.6,1.1-1.4,2.1-2.4,2.9C516.5,409.7,515.3,410.3,514,410.6"/>
	<path class="st0" d="M291.2,111.8c0-0.3,0.1-0.6,0.2-0.8c0.1-0.2,0.3-0.4,0.5-0.4h0.5c0.4,0,0.7-0.1,0.9-0.4
		c0.1-0.2,0.2-0.6,0.2-1.3v-9.7c0-0.5,0-0.8-0.1-1c-0.1-0.1-0.4-0.2-0.6-0.2h-1.4c-0.4,0-0.6-0.1-0.7-0.1c0-0.1-0.1-0.7-0.1-1.7
		c0-0.1,0.4-0.2,1.1-0.3c0.7-0.1,1.3-0.2,1.8-0.4c0.7-0.3,1.2-0.6,1.7-1c0.5-0.4,0.9-0.6,1.2-0.6c0.6,0,0.9,0.5,0.9,1.4v13.7
		c0,0.6,0.1,1,0.2,1.2c0.2,0.3,0.4,0.5,0.7,0.5h0.5c0.5,0,0.8,0.4,0.8,1.2c0,0.8-0.3,1.3-0.8,1.3H292
		C291.5,113.1,291.2,112.7,291.2,111.8"/>
	<path class="st0" d="M312.9,98.3c0-0.6-0.2-1.1-0.7-1.4c-0.5-0.3-1.1-0.5-1.9-0.5c-2,0-3,0.8-3,2.1c0,0.7,0.4,1.2,1.3,1.6
		c0.8,0.4,1.4,0.6,1.7,0.6c0.3,0,0.8-0.2,1.5-0.6C312.5,99.7,312.9,99.1,312.9,98.3 M308.7,103.5c-0.1,0-0.4,0.2-0.9,0.5
		c-0.5,0.3-1,0.8-1.4,1.3c-0.4,0.6-0.7,1.2-0.7,2c0,1,0.4,1.7,1.1,2.3c0.7,0.5,1.6,0.8,2.7,0.8c1-0.1,1.8-0.3,2.5-0.7
		c0.7-0.4,1-1.1,1.1-2c0-1.4-0.5-2.4-1.6-3.1C310.3,104,309.4,103.7,308.7,103.5 M306.4,102.5c-0.1,0-0.4-0.1-0.9-0.4
		c-0.5-0.3-0.9-0.7-1.4-1.3c-0.4-0.6-0.6-1.4-0.6-2.4c0.1-1.7,0.8-2.9,2-3.6c1.3-0.7,2.8-1,4.5-1c1.7,0,3.2,0.4,4.3,1.2
		c1.2,0.8,1.7,1.9,1.7,3.3c0,2-1,3.3-2.9,3.8c1,0.3,1.9,0.8,2.5,1.6c0.7,0.8,1,1.8,1.1,3.1c0,2.3-0.6,4-1.8,4.9
		c-1.2,1-3,1.5-5.4,1.5c-2.2,0-3.9-0.5-5.1-1.6c-1.1-1-1.7-2.5-1.7-4.4c0-0.9,0.2-1.7,0.6-2.4c0.3-0.7,0.7-1.1,1.2-1.5
		c0.4-0.4,0.8-0.6,1.2-0.8C306,102.5,306.3,102.5,306.4,102.5"/>
	<path class="st0" d="M326.9,103.1c-1,0-1.8,0.4-2.4,1.1c-0.6,0.7-0.9,1.6-0.9,2.6c0,1,0.3,1.8,0.9,2.6c0.6,0.7,1.4,1.1,2.4,1.1
		c1,0,1.8-0.4,2.4-1.1c0.6-0.7,0.8-1.5,0.8-2.5c0-0.6-0.1-1.3-0.4-1.8c-0.3-0.6-0.6-1.1-1.1-1.4
		C328.2,103.2,327.6,103.1,326.9,103.1 M330.7,95.2c-0.1,0-0.4,0.1-1,0.3c-0.6,0.2-1.3,0.4-2,0.8c-0.7,0.4-1.3,0.9-2,1.7
		c-0.8,0.9-1.3,2.1-1.6,3.5c0,0,0.2-0.2,0.4-0.4c0.2-0.2,0.6-0.4,1.1-0.6c0.5-0.2,1.2-0.3,2.1-0.3c1.8,0,3.3,0.6,4.4,1.7
		c1.1,1.2,1.7,2.9,1.7,5.3c-0.1,2-0.8,3.4-2.1,4.4c-1.3,1-2.9,1.5-4.9,1.5c-1.5,0-2.7-0.4-3.8-1c-1.1-0.7-1.8-1.6-2.4-2.8
		c-0.5-1.2-0.8-2.5-0.8-4c0-0.2,0-0.6,0.1-1.1c0.2-2.2,0.8-4,1.6-5.5c0.9-1.4,1.9-2.5,3-3.2c1.1-0.7,2.1-1.2,3.1-1.4
		c1-0.3,1.7-0.4,2.3-0.4c0.4,0,0.6,0.1,0.8,0.2c0.2,0.2,0.3,0.4,0.3,0.6C331,94.8,330.9,95.1,330.7,95.2"/>
	<path class="st0" d="M344.9,99.3c0-0.6-0.1-0.9-0.3-0.9c-0.5,0-1.5,0.9-2.9,2.7c-1.3,1.7-1.9,3-1.9,4.1c0.1,0.2,0.4,0.3,0.8,0.3
		h4.3V99.3z M348.7,107.8v1.1c0,0.6,0.1,1,0.2,1.2c0.2,0.3,0.4,0.5,0.7,0.5h0.5c0.2,0,0.4,0.1,0.6,0.3c0.1,0.2,0.2,0.5,0.2,0.8
		c0,0.9-0.3,1.3-0.8,1.3h-6.9c-0.5,0-0.7-0.4-0.7-1.1c0-0.9,0.2-1.3,0.7-1.3h0.4c0.4,0,0.7-0.1,1-0.4c0.1-0.2,0.2-0.6,0.2-1.3v-1.1
		h-7.4c-0.5,0-0.8-0.1-0.9-0.4c-0.1-0.2-0.1-0.4-0.1-0.7c0-0.8,0.3-1.9,1-3.3c0.7-1.4,1.6-2.8,2.7-4.2c0.8-1.1,1.7-2,2.6-2.9
		c0.9-0.8,1.8-1.5,2.7-1.9c0.8-0.4,1.5-0.7,2-0.7c0.8,0,1.2,0.4,1.2,1.1v10.5h2.1c0.4,0,0.7,0.4,0.7,1.1c0,0.8-0.2,1.2-0.7,1.2
		H348.7z"/>
</g>
</svg>
