<?xml version="1.0" encoding="utf-8"?>
<!-- Generator: Adobe Illustrator 19.2.1, SVG Export Plug-In . SVG Version: 6.00 Build 0)  -->
<svg version="1.1" id="layer" xmlns="http://www.w3.org/2000/svg" xmlns:xlink="http://www.w3.org/1999/xlink" x="0px" y="0px"
	 viewBox="0 0 652 652" style="enable-background:new 0 0 652 652;" xml:space="preserve">
<style type="text/css">
	.st0{fill:#FFFFFF;}
	.st1{fill:#AB9767;}
	.st2{fill:none;}
</style>
<path class="st0" d="M412.8,312.7c-1.4-1.5-3.2-2.5-5.2-2.7c2-4,3.3-8.3,4-12.7c0.5-3.2-0.8-6.4-3.4-8.3c-0.4-0.3-0.9-0.6-1.4-0.8
	c0.6-2.4,1-5,1.2-7.8c0.2-3.2-1.5-6.3-4.3-7.9c-0.1-0.1-0.2-0.1-0.3-0.1c0.5-2.3,0.7-4.8,0.7-7.5c0-4.1-2.9-7.6-6.9-8.3
	c-0.1-1.4-0.2-2.7-0.5-4.1c-0.6-3.7-3.6-6.5-7.3-7c-0.2-2.6-0.7-5.3-1.6-7.8c-1-2.9-3.4-5.1-6.4-5.6v-4.3
	c-4.9-4.4-47.9-41.2-112.7-41.2c-65.3,0-107.5,36.5-112.7,41.2v4.2c-3.2,0.5-5.8,2.7-6.8,5.7c-0.9,2.7-1.4,5.3-1.5,7.8
	c-3.7,0.5-6.7,3.3-7.3,7c-0.2,1.4-0.4,2.7-0.5,4.1c-4,0.7-6.9,4.2-6.9,8.3c0,2.6,0.2,5.1,0.7,7.5l-0.3,0.1c-2.8,1.6-4.5,4.7-4.3,7.9
	c0.2,2.8,0.6,5.4,1.2,7.8c-0.5,0.2-1,0.5-1.4,0.8c-2.6,1.9-4,5.1-3.4,8.3c0.7,4.4,2,8.7,4,12.7c-4.7,0.6-7.9,4.9-7.3,9.5
	c0.1,0.7,0.3,1.4,0.5,2.1c1.4,3.4,2.9,6.3,4.6,8.8c-4,2.3-5.4,7.2-3.4,11.3c2.1,4.1,4.4,7.5,6.8,10.3c-0.7,0.6-1.3,1.2-1.8,2
	c-1.8,2.7-1.9,6.2-0.2,9c2.4,4.1,5.3,7.9,8.6,11.3c-0.6,0.6-1.2,1.4-1.6,2.2c-1.4,2.9-1,6.4,0.9,8.9c4.5,5.7,9.1,9.9,13.6,12.8
	c-3.6,3-4.1,8.3-1.2,11.9c0.3,0.4,0.7,0.8,1.1,1.1c4.9,4.1,9.7,7,14.2,9c-3.7,2.9-4.3,8.3-1.4,11.9c0.7,0.9,1.5,1.6,2.5,2.1
	c7.5,4.3,14.3,6.5,20.4,7.4c-2.9,3.7-2.4,9,1.3,12c0.8,0.6,1.6,1.1,2.5,1.4c7.5,2.6,14.2,3.7,20,3.7c4.7,0,8.9-0.7,12.6-1.8
	c0.7,0.9,1.4,1.7,2.3,2.1l0,0c13.2,6.8,27.2,10,44.3,10c17,0,31.1-3.2,44.3-10c0.8-0.4,1.5-1.1,2.2-2c4,1.1,8.1,1.7,12.2,1.7
	c5.8,0,12.5-1.1,20-3.7c4.4-1.6,6.8-6.4,5.2-10.8c-0.3-0.9-0.8-1.8-1.4-2.5c6.1-1,12.9-3.2,20.4-7.4c4.1-2.3,5.5-7.5,3.2-11.6
	c-0.5-0.9-1.3-1.8-2.1-2.5c4.5-2,9.3-4.9,14.2-9c3.6-3,4.1-8.4,1.1-11.9c-0.3-0.4-0.7-0.8-1.1-1.1c4.5-2.9,9.1-7,13.6-12.8
	c2-2.6,2.4-6,0.9-8.9c-0.4-0.8-0.9-1.6-1.6-2.2c3.4-3.4,6.3-7.2,8.6-11.3c1.6-2.8,1.5-6.3-0.2-9c-0.5-0.8-1.1-1.4-1.9-2
	c2.4-2.8,4.7-6.2,6.9-10.3c2.1-4,0.6-9-3.4-11.3c1.7-2.5,3.2-5.4,4.5-8.8C415.6,318.5,415,315.1,412.8,312.7"/>
<path class="st0" d="M316.3,455.2L316.3,455.2L316.3,455.2 M318.3,424.9l-0.2-0.6L318.3,424.9 M219.3,424.2l-0.2,0.7L219.3,424.2"/>
<path d="M217.8,437.2c0-0.2,0.1-4.6,0.8-9.5c0.3-2.1,0.8-3.9,1.3-5.5c-30.5-21.6-63.9-54.6-63.9-95.9V234c-2.3,0.4-4.2,2.1-4.9,4.3
	c-1.1,3.2-1.5,6.2-1.5,9.1c-3.5-0.5-6.7,1.9-7.3,5.4c-0.3,1.9-0.5,3.7-0.4,5.6c-3.6-0.2-6.7,2.5-6.9,6c0,0.1,0,0.3,0,0.4
	c0,3.3,0.4,6.2,1,8.7c-3,0.8-5.1,3.6-4.9,6.7c0.2,3.5,0.8,6.6,1.6,9.3c-3.5,0.6-5.9,3.9-5.3,7.5c1.1,6.6,3.2,11.7,5.8,15.5
	c-3.3-1.5-7.1,0-8.6,3.2c-0.7,1.6-0.8,3.5-0.1,5.1c1.7,4.3,3.7,7.7,5.8,10.6c-3.5,0.6-5.9,3.9-5.4,7.5c0.1,0.7,0.3,1.3,0.6,1.9
	c2.5,4.9,5.3,8.8,8.3,11.8c-3.4,1.1-5.2,4.8-4.1,8.2c0.1,0.4,0.3,0.8,0.6,1.2c3.1,5.4,6.6,9.4,10,12.5c-3.2,1.6-4.4,5.6-2.8,8.8
	c0.2,0.4,0.4,0.7,0.6,1c4.9,6.3,10.4,11,16.3,14.1c-0.1,0-0.2,0-0.3,0.1c-3.5,0.8-5.7,4.3-4.9,7.8c0.3,1.4,1.1,2.6,2.2,3.6
	c6,5,12.2,8.5,18.4,10.5c-0.9,0.1-1.9,0.4-2.8,0.7c-3.3,1.4-4.9,5.2-3.4,8.5c0.6,1.3,1.5,2.4,2.8,3.1c9.7,5.5,18.2,7.5,25.5,7.7
	c-1.1,0.4-2.1,0.8-3.1,1.4c-3,2-3.8,6-1.9,9c0.8,1.2,1.9,2.1,3.3,2.6c7.3,2.5,13.7,3.5,19.3,3.5c4.3,0,8.1-0.6,11.5-1.5
	c-1-2.1-1.9-5-2.5-8.5C218.1,443.5,217.9,440.3,217.8,437.2 M411.3,314c-1.9-2.1-5-2.8-7.5-1.6c2.6-3.8,4.7-8.9,5.8-15.5
	c0.6-3.5-1.8-6.8-5.3-7.4c0.8-2.7,1.4-5.7,1.6-9.3c0.2-3.1-1.9-5.9-4.9-6.7c0.7-2.5,1.1-5.4,1-8.7c0-3.6-3-6.5-6.6-6.5
	c-0.1,0-0.2,0-0.4,0c0-1.9-0.1-3.8-0.4-5.6c-0.6-3.5-3.8-5.8-7.3-5.4c0-3.1-0.5-6.2-1.5-9.1c-0.7-2.1-2.4-3.7-4.5-4.2v92.2
	c0,41.3-33.4,74.4-63.9,95.9c0.5,1.6,0.9,3.4,1.3,5.5c0.8,4.9,0.8,9.3,0.9,9.5c0,0.2-0.1,4.6-0.9,9.5c-0.6,3.6-1.4,6.5-2.5,8.6
	c3.3,0.9,7,1.4,11.2,1.4c5.6,0,12-1,19.3-3.6c3.4-1.2,5.2-4.9,4-8.3c-0.5-1.3-1.4-2.5-2.6-3.3c-1-0.6-2-1.1-3.1-1.4
	c7.3-0.2,15.8-2.2,25.5-7.7c3.1-1.8,4.2-5.7,2.4-8.9c-0.7-1.2-1.8-2.2-3.1-2.8c-0.9-0.4-1.9-0.6-2.8-0.7c5.7-1.8,11.9-5,18.5-10.5
	c2.8-2.3,3.1-6.4,0.8-9.2c-0.9-1.1-2.2-1.9-3.6-2.2c-0.1,0-0.2,0-0.3,0c5.3-2.8,10.9-7.2,16.3-14.1c2.2-2.8,1.7-6.9-1.2-9.1
	c-0.3-0.2-0.6-0.5-1-0.6c3.5-3.1,6.9-7.1,10-12.5c1.8-3.1,0.8-7.1-2.3-8.9c-0.4-0.2-0.8-0.4-1.2-0.5c2.9-3,5.7-6.8,8.3-11.8
	c1.6-3.2,0.4-7.1-2.8-8.7c-0.6-0.3-1.2-0.5-1.9-0.6c2.4-3.2,4.4-6.8,5.8-10.6C413.4,318.5,413,315.9,411.3,314"/>
<path class="st1" d="M197.8,411.6c2.5-1.1,4.7-1.4,6.3-1.5c-3.5-2.9-6.9-6-10.2-9.1c-7.3-1.7-14.5,1-21.3,2.4
	c-10.9,2.2-15.3,0.9-17.1,1.2C176.2,421.9,192.2,413.9,197.8,411.6 M181.3,395.1c2.8-0.5,5.1-0.4,6.6,0c-3.5-3.6-6.7-7.4-9.8-11.3
	c-6-2.2-12.6-1.3-18.6-1.3c-10.6-0.1-14.5-2.3-16.2-2.3C159,400.3,175.6,396.1,181.3,395.1 M168.9,376.9c1.8-0.1,3.2,0.1,4.5,0.3
	c-2.6-3.7-5-7.6-7.1-11.6c-5-2.2-10.7-2.2-15.8-3c-9.7-1.4-13-3.9-14.5-4C147.9,379,163.6,377.2,168.9,376.9 M161.5,356.7
	c0.2,0,0.4,0,0.7,0c-1.5-3.7-2.7-7.5-3.7-11.3c-4.3-1.9-9.2-2.2-13.6-3.1c-9.1-1.8-12-4.3-13.4-4.6
	C141.6,357.6,156.4,356.7,161.5,356.7 M155.8,337.9c0.4,0,0.7,0.1,1.1,0.2c-0.5-3.1-0.8-6.1-0.9-9.2c-4.1-3-9.3-3.8-13.9-5.2
	c-7.9-2.4-10.4-4.9-11.6-5.2C138,337,151.3,337.4,155.8,337.9 M153,318.7c1.2,0.4,2.2,0.9,3,1.4v-8.4c-3.1-4.5-8.3-6.4-12.6-8.8
	c-6.8-3.8-8.5-6.5-9.6-7.1C136.9,314.3,149,317.4,153,318.7 M152.6,301.9c1.6,0.7,2.7,1.6,3.4,2.3v-7.9c-2.3-4.4-6.8-6.6-10.5-9.2
	c-5.7-4-7-6.6-7.9-7.2C138.6,296.5,149.1,300.4,152.6,301.9 M152.4,283.6c2.7,1.4,3.6,3.3,3.6,3.3v-6.4c-1.3-4.6-5.4-6.9-8.6-9.4
	c-4.4-3.5-5.3-5.7-6-6.3C141.4,278.5,149.7,282.2,152.4,283.6 M155.7,271.8c0.1,0.1,0.2,0.2,0.4,0.3v-8.8c-1-1.1-2-2.1-2.9-3.1
	c-3.3-3.7-3.8-5.7-4.3-6.3C146.7,265.7,153.5,270.1,155.7,271.8 M364.3,403.4c-6.6-1.3-13.6-3.9-20.7-2.5c-3.3,3.2-6.8,6.3-10.4,9.2
	c1.6,0.1,3.6,0.5,5.9,1.4c5.6,2.4,21.7,10.3,42.2-6.9C379.7,404.3,375.2,405.7,364.3,403.4 M359.5,383.5c-3.1,4-6.4,7.8-9.9,11.4
	c1.5-0.3,3.6-0.4,6.1,0.1c5.7,1.1,22.3,5.3,38-14.9c-1.7,0-5.5,2.1-16.1,2.3C371.7,382.5,365.4,381.7,359.5,383.5 M371.3,365.4
	c-2.1,4.1-4.5,8-7.1,11.8c1.3-0.2,2.6-0.3,3.9-0.3c5.4,0.3,21.1,2.1,33-18.3c-1.5,0.2-4.8,2.6-14.5,4
	C381.6,363.4,376.2,363.5,371.3,365.4 M379.1,345.2c-1,3.9-2.2,7.7-3.7,11.5l0.2,0c5,0,19.9,0.9,30-18.9c-1.4,0.3-4.4,2.7-13.4,4.6
	C387.9,343.2,383.3,343.5,379.1,345.2 M406.5,318.4c-1.3,0.4-3.7,2.8-11.6,5.2c-4.4,1.3-9.4,2.1-13.4,4.9c-0.1,3.2-0.4,6.3-0.9,9.5
	c0.2,0,0.4-0.1,0.7-0.1C385.7,337.4,399.1,337,406.5,318.4 M403.2,295.9c-1.1,0.6-2.8,3.3-9.6,7.1c-4.1,2.3-9.1,4.1-12.2,8.2v8.7
	c0.7-0.4,1.6-0.8,2.6-1.1C388.1,317.4,400.2,314.3,403.2,295.9 M399.4,279.8c-0.9,0.6-2.2,3.2-7.9,7.2c-3.5,2.4-7.7,4.5-10.1,8.5
	v8.3c0.7-0.6,1.7-1.3,3-1.9C387.9,300.4,398.4,296.5,399.4,279.8 M384.6,283.6c2.7-1.4,11.1-5.1,11-18.7c-0.7,0.5-1.6,2.7-6,6.3
	c-2.9,2.3-6.5,4.4-8.1,8.2v6.9C381.9,285.6,382.9,284.5,384.6,283.6 M388.3,253.9c-0.5,0.6-1,2.6-4.4,6.3c-0.8,0.9-1.7,1.7-2.5,2.6
	v8.9C383.7,270.1,390.3,265.6,388.3,253.9 M328.1,439.4c-2.9-1.8-5.7-3.9-8.6-5.9c0.2,2.1,0.2,3.5,0.2,3.6c0,0.2-0.1,4.6-0.9,9.5
	c-0.1,0.8-0.3,1.6-0.5,2.4c6.7,1.7,15.3,1.8,26.3-2.1C343.1,446,338.1,445.7,328.1,439.4 M349.8,422.3c-7.4-2.9-15-7.6-23.7-6.4
	c-2.8,2.2-5.7,4.3-8.5,6.2c0.2,0.6,0.4,1.3,0.5,1.9c1.2,0.5,2.4,1.1,3.8,2c5.4,3.5,20.7,14.9,45.5,0.8
	C365.7,426.1,360.8,426.7,349.8,422.3 M218.6,446.6c-0.5-3.1-0.8-6.3-0.8-9.5c0-0.1,0-1.7,0.2-3.9c-3.1,2-6.1,4.3-9,6.1
	c-10,6.3-15,6.6-16.5,7.6c11.2,3.9,19.9,3.8,26.6,2C218.9,448.2,218.8,447.4,218.6,446.6 M219.9,422.1c-2.8-2-5.6-4-8.3-6.1
	c-9-1.5-16.8,3.3-24.3,6.3c-11,4.4-15.9,3.8-17.6,4.5c24.8,14.1,40.1,2.8,45.5-0.8c1.5-1,3-1.7,4.3-2.1
	C219.6,423.3,219.7,422.7,219.9,422.1"/>
<path d="M255,406.1V215.2c-9.3,0.9-18.4,2.8-27.3,5.6v177.4c4.9,3.6,10,7,15.2,10.1C246.9,407.3,250.9,406.5,255,406.1 M337.1,373.4
	c13.5-15.8,20.3-32,20.3-48.7v-77.9c-2.1-1.9-9.2-7.8-20.3-14C337.1,232.7,337.1,373.4,337.1,373.4z M180.1,246.7v77.9
	c0,16.6,6.8,32.9,20.3,48.7V232.6C189.2,238.9,182.1,244.9,180.1,246.7 M294.6,408.3c5.2-3.2,10.2-6.5,15.1-10.1V220.8
	c-8.9-2.8-18-4.7-27.3-5.7v190.9C286.6,406.6,290.7,407.3,294.6,408.3"/>
<path d="M268.7,189.1c-64,0-105.4,35.8-110.5,40.4v96.6c0,40.4,32.6,72.7,62.5,93.9c1-2.3,2.3-4,3.7-4.8c5.1-2.6,10.3-4.7,15.8-6.3
	c-6.8-4.2-13.3-8.8-19.5-13.7c-28.3-22.3-42.6-46.1-42.6-70.7v-78.8l0.3-0.3c3.7-3.4,37.8-33.1,90.3-33.1c52,0,86.6,29.7,90.3,33.1
	l0.3,0.3v78.8c0,24.6-14.3,48.4-42.6,70.7c-6.3,4.9-12.8,9.5-19.5,13.7c5.5,1.6,10.7,3.6,15.7,6.2c1.5,0.8,2.7,2.4,3.8,4.8
	c29.9-21.1,62.5-53.5,62.5-93.9v-96.6C374.4,225.2,332.3,189.1,268.7,189.1"/>
<path class="st0" d="M393,427.6c-0.7-4.7-2.7-9.4-4.5-13.5l-0.2-0.4l-1.6-2.5c-2.1-3.3-4.6-7-8.4-8.9l-3.2-6
	c-0.1-0.1-0.1-0.2-0.2-0.3c-4.2-5.2-9-10-13.6-14.6l-1.9-1.9c-0.5-3-2.3-5.1-3.9-7c-1.1-1.2-2.1-2.4-2.7-3.7
	c-0.2-0.3-0.4-0.6-0.8-0.8c-3.1-1.7-6.6-6.7-8.5-10.7l-3.1-5.2c1,0.4,1.9,0.9,2.8,1.3l2,1c8.2,3.4,15.2,7.1,23.3,11.4l2.4,1.3
	l2.3,1.4c1.4,0.9,2.7,1.8,4.7,2.3c1.6,0.5,4.6,0,5.7-2.7l0.1-0.4c0.5-3.6-2-7.3-4-10.2l-0.6-0.9l-2.4-3.4
	c-4.8-6.9-9.8-14.1-16.6-19.8l-3.9-4c-0.1-0.1-0.2-0.1-0.3-0.2c-10.8-7.8-18.5-17.5-26.6-27.8c-6.9-8.7-14-17.7-23.1-25.3
	c0,0-0.1-0.1-0.1-0.1c-11.2-7.7-21.1-18.1-30.6-28.3L264,235.8c-5.2-4.5-9.9-8.3-15.1-11.3l-3.8-3.6c-6.4-6-12.6-11.7-12.6-19.3
	c0-1.5,0.2-3.1,0.8-4.8l0.2-0.6c2.3-7.2,4.7-14.6,11.3-19.2c0.2-0.1,0.3-0.2,0.4-0.4l6.7-8.4c8.2-6.1,19.3-13.4,32.1-16.6
	c0,0,0.1,0,0.1-0.1l1.5-1.6c0.3-1.1-0.2-2-0.5-2.4l-0.1-0.2c-0.2-0.3-0.3-0.5-0.6-0.7c-4.4-3.2-9.7-4-14.3-4.6
	c-9.2-1.1-18.6-1.2-27.8,0c-6.4-1.9-26.6-6.9-42,1c-5.5,2.9-7.4,8.1-9,12.4c-0.8,2.2-1.6,4.3-2.7,5.5c-12.4,11.7-17.6,25.1-23,39.3
	l-2.5,6.3l-1,2.2c-3.1,6.8-7.2,16.1-12,22.1c-0.1,0.1-0.5,0.8-0.6,1c-0.7,1.7-2.6,6.8-2.8,9.1c-0.6,5,0.4,9.8,1.9,13.1
	c1.8,3.7,4.9,6.9,6.5,9.3c4.6,7.2,8.5,12,12.6,19.4c8.1,14.2,16.1,28.6,27.2,41.9l0.1,0.1c9.7,9.7,22,16.5,35.5,19.4
	c5.5,5.8,9.3,14.7,13.5,21.3c0,0,4.5,7.8,4.7,8.1c0.5,0.9,0.4,1.8,0.4,2.8c0,1.2,0.3,2.6-0.1,4.3c-0.5,1.7-1,3.5-1,5.5v0.1
	c0,0.7,0.1,1.4,0.1,2c0,4.2,1.6,8-0.2,12.8c-0.8,2-1.8,4.4-3,6.9c3.6-0.8,7.3-1.4,11.2-1.8l3.2-6.2c1.5-3,3.6-5.4,5.5-7.5
	c2.3-2.6,4.4-4.9,4.6-7.6c0.2-4.3,0.6-9.7,2.2-14.7c0.7-0.5,1.5-1,2.4-2.1c0.5-0.7,0.8-1.7,0.8-2.6c0-0.9-0.2-1.9-0.4-2.7
	c-0.2-0.6-0.3-1.2-0.3-1.8c0-0.3,0.1-0.4,0.3-0.5c2.6-0.8,5.7-0.5,7.8,0.9c1.2,1.3,2,2.9,2.8,4.6c0.7,1.5,1.5,3.1,2.7,4.6
	c0.6,2.2,0.7,4.5,0.9,7c0.3,4.6,0.7,9.4,3.7,13.3c0.3,0.9,0.4,1.8,0.4,2.7c0,3-1.3,6-2.4,8.6l-0.6,1.5c-0.5,1.2-1.1,2.5-1.7,3.7
	c3.2,0.6,6.4,1.3,9.4,2.2c2-3.5,3.9-7,5.6-10.8c0.9-2.4,1.2-4.9,1.4-7.4c0.6,1,1.2,1.9,1.8,2.9c2,3.5,4.2,7.1,7.1,10.4
	c2.6,4.5,5.9,11,7.5,16.2c0.1,0.3,0.2,0.5,0.4,0.7c2.8,2.9,7,4.2,12.1,3.8c7.9-1.1,9.5,0.3,10.6,1.2c0.6,0.5,1.3,1.1,2.4,1.3
	l18.1,0.3c5.4-0.3,11-0.6,16.8,0l9.4,2.1c1,0.2,2.1-0.4,2.3-1.5C393,428.1,393,427.9,393,427.6"/>
<path d="M353.5,383.9c-3.4-0.8-5.6-4.4-8.4-6.5c-1.5-1.7-2.6-3.6-4-5.4c-0.8-0.4-1.3,0-1.3,1c-1.4,4.9,8,13.7,11.5,20.8
	c0.7,1.9,1.9,4,1.2,5.9c-1.9,1.1-7.6-0.2-9-0.8c-3.3-2-5.3-10.4-9.5-15.7c-0.9-0.4-0.8-1.7-1.9-1.5c-1.4,1.3,0.1,2.7,0.2,4
	c1.2,3,3.9,5.6,3.6,9l-1.7-0.2c-3.6-5-6.8-10.3-10.9-14.9c-1.7,1.3,0,3.1,0,4.6c1.5,3.8,4.3,7.1,4.8,11.3c0,1.3-1.8,0.7-2.5,0.6
	c-6.9-6.4-9-15.5-14.7-22.8c-0.9,0-1.2,0.8-1.5,1.3c1.1,6.5,5.6,11.6,5,18.8c-0.3,0.2-0.5,0.8-1,0.6c-4.3-6.3-11-13.2-6.7-21.4
	c2.2-7-3.5-13.5-0.2-20.3c2.2-2.3,5.3-1.9,8.2-1.5c1.5-2,0.7-5.1,3.6-6.3c2.5-1.7,6.4-1,8.8,0.4c9.4,11.7,17.2,24,26.4,35.8
	C353.4,381.8,354.9,383.1,353.5,383.9 M301.5,318.3c-2-1.6-3.7-3.8-6.1-4.4c-1,0.1-0.9,0.9-0.9,1.3c1.2,1.7,5.7,2.4,4.3,4.4
	c-3.1,1.9-5.8-1.6-8.6-2.9c-8.6-6.6-16.8-14.4-24.9-21.6c-2.1-2-3.7-4.6-3.1-5.2c0.5-0.6,3.6,1.3,4.7,1.8c1.1,0.5,1-0.7,1-0.7
	c-7.2-7.8-20.9-13.4-20.1-25.6c0.3-1.1,1-2,1.9-2.5c2.8-2.1,25.7,4.9,35.2,10.5c10.3,5.5,19.5,14.8,26.2,24.7c0.1,0.5,0.2,1,0.2,1.5
	c-0.6,1-2.1,0.1-3.4-1c-1.7-1.1-3.2-2.7-5-3.4l-0.6,0.6c3.9,5.1,12.1,8.3,12.1,15.5l-1.2,0.1c-3.4-2.3-6.7-5.3-10.3-6.6
	c-0.9,0.4,0,1.1,0.4,1.5c3.6,2.5,7.3,5.1,10.7,8c0.8,1.1,1,2.5,0.6,3.8h-1.1c-2.9-2.1-5.3-3.9-9-5.4c-0.8,1.5,1,2.3,2.7,3.4
	c2.7,1.5,8.6,3.2,6.1,6.3C308.6,326.4,304.7,320.8,301.5,318.3 M249.2,236.5l-0.6-2.1c5.8,3.2,11.1,7.2,15.7,12.1
	c5,4.5,10.7,12,10.7,12.8c-0.9,0.7-4.7-3.5-7.9-3.4c-2,0.5,0.6,3.3-1,3.8c-2.1,0.8-12-3.9-15.7-9c0.5-0.2,1.7-0.2,1.5-1
	c0.5-0.8-3.8-2.3-3.3-3.8c0,0,1,0.8,1.7,0.6c1.8-1.7-3.3-3.6-0.4-5c0.1-1.7-1.8-3-2.5-4.2C248.1,237,248.8,236.9,249.2,236.5
	 M223.4,152.5c-1.6,0.2-4.8-2.3-6.1,0.4c-0.6,1.6,0.6,4.4-1.7,4.8c-1.3,0.1-3.2,0.1-3.3-1.3c-0.3-1.9-0.4-4,0.8-5.5
	c1.2-2.5,4.5-4.3,8.1-3.6c1.6,0.3,3.2,1.4,3.9,3.4C225.4,151.8,224.5,152.2,223.4,152.5 M191.8,176.5c1.9,2.8-6.5,4.2-0.8,5.4
	c1.1,4.3-6.7,5.5-9.6,8.6c0.1,0.5-0.1,1.4,1,1.2c2.7-0.2,6.6-4.8,7.3-2.5c0.6,3.1-3,3.4-4.8,4.6c-2.2,1.1-4.8,2.3-5.9,4.8
	c-0.4,1.2,1.5,0.8,2.1,0.6c2.3-0.7,5.4-4.5,6.3-3.3c0.4,1.2-0.5,2.3-1.3,3.3c-3.2,2.4-8.3,1.9-9.8,6.3c-0.1,1.1,1.9,1.7,3.1,1.2
	c2-0.9,4.6-5.1,5.7-3.4c0.5,1.4-0.7,2.9-1.9,3.6c-5.5,4.9-11.2,9-17.8,11.1c-0.8-1.1-0.1-2.7,0.2-3.8c4.8-14.4,11.2-28.2,19.5-41.1
	c1.8-2.1,5.6-3.5,7.5-1c-0.1,2.8-4,2.1-4.4,4.6C189.3,177.3,190.6,176.5,191.8,176.5 M231.4,169c4.2-9,4.9-7.6,11.1-6.9
	c2.7-0.4,4.3-2.1,5.7-4l-0.4-0.6c-3.5,0.8-6.9,3.5-10.7,1.9c-1.5-1.1-1.8-2.9-1.3-4.6c3.3-3.9,10.7-0.5,14.6-3.6
	c1.3-1.6-2-2.2-2.7-2.8c-0.7-0.4-2.1,0.1-2.1-1.1c1.4-1.1,3.6-0.5,5.3-0.7c2.7,0,6.5-1.4,6.6,0.9c0,4.1-6.9,5.5-6.1,8.2
	c1,1.9,2.9,1,4.4,0.4c3.7-1.6,6.8-4.9,10.7-6.1c0.8-0.2,1.3,0.2,1.3,1v0.6c-10.6,5.5-20.3,13.1-30.2,20.3c-1.8,1.1-3.6,2.1-5.8,1.5
	C230.2,172.4,231.6,170.5,231.4,169 M232.2,149.1c1.2-1.3,3.2-1.5,4.8-1.3v1c-0.8,1-2.5,2.3-4.2,1.5
	C232.5,149.9,232,149.6,232.2,149.1 M386.6,414.9c-2.6-3.7-5.2-9.2-10-11.1l-3.4-6.5c-4.7-5.9-10.2-11.2-15.7-16.6
	c-0.4-4.6-4.7-6.9-6.6-10.9c-3.6-2-7.3-7.3-9.3-11.5c-1.5-2.7-3.7-6.4-5.3-9.1c3.1,0,6.8,2.3,9.7,3.6c9,3.7,16.6,7.8,25.9,12.7
	c2.7,1.5,3.9,2.9,6.6,3.6c0.9,0.3,2.8,0,3.4-1.5c0.5-3.1-2.5-7-4.3-9.8c-5.7-8.1-10.9-16.3-18.6-22.9l-4-4.1
	c-20.5-14.8-30.4-37-49.8-53.2c-15.8-10.8-28.5-26.7-42.5-40.6c-4.8-4.1-9.6-8.2-14.9-11.1c-8.4-8.4-20.5-16.6-16.3-29.9
	c2.4-7.4,4.9-15.7,12.3-20.9l6.9-8.6c10.1-7.5,20.7-14,32.7-17c0.9-0.4,0.3-1,0-1.5c-3.9-2.8-8.5-3.6-13.4-4.2
	c-9.2-1.2-18.5-1.2-27.7,0c-12.5-3.8-29-5.4-40.9,0.8c-7.7,4.1-7.5,13.4-11.1,17.4c-14,13.2-18.7,28.8-25.1,45
	c-3.1,6.8-7.9,18-13.3,24.8c-2.3,5.4-5.2,11.7-0.3,21.9c1.4,3.1,3.3,4.8,4.9,7.1c16.6,23,23.7,42.3,40.4,62.3
	c9.6,9.7,21.9,16.3,35.2,19.1c10.7,8.6,12,20,19.2,30c2.6,4.5-0.8,8.9-0.8,13.6c0.3,5.8,1.6,10.5-0.3,15.5c-0.6,1.7-1.5,3.7-2.5,5.8
	c2.1-0.4,4.3-0.8,6.5-1.1c1.7-3.2,3.1-5.9,3.8-7.3c3.3-6.7,9.6-10.5,10-14.4c0.2-5.5,0.8-10.8,2.5-15.7c0.9-0.6,1.7-1,2.5-2.1
	c1.7-2.2-2.4-6.7,1.1-8.2c3.2-1,7.1-0.7,9.8,1.1c2.9,3,3.5,6.9,6.1,10c1.8,6.6-0.1,14.8,4.6,20.3c1.8,5.1-1.2,10.6-2.7,14.2
	c-0.4,1-0.9,2.1-1.5,3.3c1.9,0.4,3.7,0.8,5.5,1.3c2-3.6,4-7.2,5.8-11.1c1.4-3.7,1.1-8.2,1.7-12.3c4.3,5.7,6.9,12.4,11.9,17.9
	c2.8,4.8,6.1,11.4,7.7,16.6c2.8,2.9,7.1,3.5,10.5,3.2c11.7-1.7,11.4,2.2,13.4,2.5c11.3,1.7,22.6-1.1,34.8,0.3l9.5,2.2
	C390.4,423.4,388.4,418.7,386.6,414.9"/>
<path class="st0" d="M318.8,427.7c-1.1-6.8-3-10.9-5.8-12.5c-13.2-6.8-27.2-9.9-44.3-10c-17,0-31.1,3.2-44.3,10
	c-2.7,1.5-4.7,5.7-5.8,12.5c-0.8,4.9-0.8,9.3-0.8,9.5c0,0.2,0.1,4.6,0.8,9.5c1.1,6.8,3,10.9,5.8,12.5l0,0c13.2,6.8,27.2,10,44.3,10
	c17,0,31.1-3.2,44.3-10c2.7-1.5,4.7-5.7,5.8-12.5c0.8-4.9,0.8-9.3,0.9-9.5C319.7,437,319.6,432.6,318.8,427.7"/>
<path d="M261.8,438.4h-0.7c-0.8,0-1.7,0.6-1.7,2.2v3.4c0,1.6,0.9,2.2,1.7,2.2h0.7c0.8,0,1.7-0.6,1.7-2.2v-3.4
	C263.4,439,262.6,438.4,261.8,438.4 M261.8,428.1h-0.7c-0.8,0-1.7,0.6-1.7,2.2v2.6c0,1.6,0.9,2.2,1.7,2.2h0.7c0.8,0,1.7-0.6,1.7-2.2
	v-2.6C263.4,428.7,262.6,428.1,261.8,428.1 M275.9,428.1c-1.2,0-1.9,0.4-1.9,2.1v4.6c0,1.7,0.7,2.1,1.9,2.1c1,0,1.9-0.5,1.9-2.1
	v-4.6C277.8,428.5,277.1,428.1,275.9,428.1"/>
<path d="M308,453.4l-0.2,0.1c-11.6,6-24,8.7-39.1,8.7c-15.1,0-27.5-2.8-39-8.7l-0.2-0.1c-2.3-1.9-3.6-10.6-3.6-16.2
	c0.1-5.6,1.4-14.3,3.6-16.2l0.2-0.1c11.6-6,24-8.7,39-8.7c15.1,0,27.5,2.8,39,8.7l0.2,0.1c2.3,1.9,3.6,10.6,3.6,16.2
	C311.5,442.7,310.2,451.5,308,453.4 M312.1,416.9c-12.9-6.6-26.7-9.7-43.4-9.7c-16.7,0-30.5,3.1-43.4,9.7
	c-4.5,2.5-5.6,15.5-5.6,20.3c0,4.8,1.1,17.8,5.6,20.2c12.9,6.6,26.7,9.7,43.4,9.7c16.7,0,30.5-3.1,43.4-9.7
	c4.5-2.5,5.6-15.4,5.6-20.3C317.7,432.4,316.6,419.4,312.1,416.9"/>
<path d="M296.1,432.6c0,3-2,4.4-4.3,6.6c-2,1.9-3.3,3.3-3.3,4.6v2.2h7.6v3.3h-11.5v-5.6c0-3.1,2.5-5.1,5-7.4
	c1.8-1.8,2.7-2.5,2.7-3.8v-2.4c0-1.7-0.8-2.1-1.9-2.1c-1.1,0-1.8,0.4-1.8,2.1v3.5h-3.8v-4c0-3.6,2-5,5.7-5h0.1c3.7,0,5.7,1.4,5.7,5
	L296.1,432.6L296.1,432.6z M281.7,444.6c0,3.6-1.9,5-5.6,5H276c-3.7,0-5.6-1.4-5.6-5v-2.3h3.9v1.9c0,1.7,0.6,2.1,1.8,2.1
	c1.2,0,1.8-0.4,1.8-2.1v-5c-0.6,0.6-1.2,1.1-2.8,1.1c-2.8,0-4.8-1.4-4.8-5v-5.5c0-3.6,2-5,5.7-5h0.1c3.7,0,5.7,1.4,5.7,5
	C281.7,429.8,281.7,444.6,281.7,444.6z M267.3,432.9c0,1.5-0.3,3.5-2.4,3.8c2.1,0.4,2.4,2.9,2.4,4.2v3.6c0,3.4-1.8,5.1-5.3,5.1h-1.1
	c-3.5,0-5.3-1.7-5.3-5.1v-3.6c0-1.3,0.3-3.8,2.4-4.2c-2-0.3-2.4-2.3-2.4-3.8v-3c0-3.4,1.8-5.1,5.3-5.1h1.1c3.5,0,5.3,1.7,5.3,5.1
	C267.3,429.9,267.3,432.9,267.3,432.9z M252.8,449.3h-11.4v-3.4h4v-16.7l-3.9,1.2v-3.6l5-1.7h2.8v20.9h3.6
	C252.8,445.9,252.8,449.3,252.8,449.3z M306.2,422.6c-11.1-5.7-23-8.3-37.5-8.3c-14.4,0-26.3,2.6-37.4,8.3
	c-1.3,1.2-2.8,7.9-2.9,14.6c0.1,6.6,1.6,13.5,2.9,14.6c11.1,5.7,23,8.3,37.4,8.3h0c14.4,0,26.3-2.6,37.4-8.3
	c1.3-1.2,2.8-7.9,2.9-14.6C309,430.6,307.4,423.7,306.2,422.6z"/>
<path class="st1" d="M148.1,451.5l-11.1-9.3c-0.3-0.3-0.3-0.7-0.1-1l0.1-0.2c0.3-0.3,0.7-0.3,1-0.1l11.1,9.3c0.3,0.3,0.3,0.7,0.1,1
	l-0.1,0.2C148.8,451.8,148.4,451.8,148.1,451.5"/>
<path d="M163.6,470.3c-2.1,3.2-4.9,3.1-8.1,1.1l-0.1,0c-3.2-2-4.5-4.5-2.4-7.8l8-12.5c2-3.1,4.9-3.1,8.1-1.1l0.1,0
	c3.2,2,4.4,4.7,2.4,7.8l-2.4,3.8l-3.5-2.2l2.1-3.3c0.9-1.5,0.5-2.4-0.6-3.1c-1.1-0.7-2.1-0.7-3,0.8l-7.3,11.5
	c-0.9,1.5-0.5,2.4,0.6,3.1c1.1,0.7,2.1,0.7,3-0.8l2.4-3.8l3.5,2.2L163.6,470.3L163.6,470.3z M178.4,480c1.2,0.6,2.3,0.5,3-1.1
	l5.9-12.3c0.8-1.6,0.2-2.4-1.1-3c-1.2-0.6-2.3-0.5-3,1.1l-5.9,12.3C176.6,478.5,177.2,479.4,178.4,480 M187.7,460.3l0.3,0.1
	c3.4,1.6,5,4,3.4,7.4l-6.4,13.4c-1.6,3.4-4.5,3.6-7.9,2l-0.3-0.1c-3.4-1.6-5-4-3.4-7.4l6.4-13.4
	C181.4,458.9,184.3,458.7,187.7,460.3 M203.7,493.6l-9.9-3.4l8.1-23.4l3.9,1.3l-6.9,19.9l6,2.1L203.7,493.6z M224.2,498.9l-10.2-2.4
	l5.7-24.1l4,0.9l-4.8,20.5l6.2,1.5L224.2,498.9z M234.6,500.8l3.6-24.5l4.1,0.6l-3.6,24.5L234.6,500.8z M250.7,502.7l1.2-24.7
	l4.1,0.2l4.4,15.5l0.8-15.3l3.7,0.2l-1.2,24.7l-3.9-0.2l-4.6-16.3l-0.8,16.1L250.7,502.7z M288.1,497.6c0.2,3.8-2.2,5.4-5.9,5.6
	l-0.3,0c-3.7,0.2-6.3-1-6.5-4.9l-0.9-14.8c-0.2-3.7,2.2-5.4,5.9-5.6l0.3,0c3.8-0.2,6.3,1.2,6.5,4.9l0.2,3.5l-4.1,0.2l-0.2-2.9
	c-0.1-1.8-1.1-2.2-2.4-2.1c-1.3,0.1-2.2,0.6-2.1,2.4l0.8,13.6c0.1,1.8,1.1,2.2,2.4,2.1c1.3-0.1,2.2-0.6,2.1-2.4l-0.2-3.7l-2.4,0.1
	l-0.2-3.5l6.5-0.4L288.1,497.6L288.1,497.6z M316.9,498.2l-3.8,0.7l-6.3-16.1l0,17.3l-3.9,0.7l-8.4-23.6l4-0.8l5.3,17l-0.2-18
	l3.6-0.7l6.4,16.8l-1.3-17.8l3.8-0.7L316.9,498.2z M335.9,489.3c1.3-0.4,2-1.2,1.4-2.9l-4.3-12.9c-0.6-1.7-1.6-1.9-2.9-1.4
	c-1.3,0.4-2,1.2-1.4,2.9l4.3,12.9C333.6,489.6,334.7,489.8,335.9,489.3 M329,468.8l0.3-0.1c3.6-1.2,6.4-0.5,7.6,3l4.7,14.1
	c1.2,3.6-0.7,5.8-4.3,6.9l-0.3,0.1c-3.6,1.2-6.4,0.5-7.5-3l-4.7-14.1C323.5,472.1,325.4,469.9,329,468.8 M358.5,480.4
	c1.2-0.6,1.8-1.4,1.1-3l-5.8-12.3c-0.8-1.6-1.8-1.7-3-1.1c-1.2,0.6-1.8,1.4-1.1,3l5.8,12.3C356.2,480.9,357.2,480.9,358.5,480.4
	 M349.1,460.8l0.3-0.1c3.4-1.6,6.3-1.3,7.9,2.1l6.3,13.4c1.6,3.4,0,5.8-3.4,7.4l-0.3,0.1c-3.4,1.6-6.3,1.3-7.9-2.1l-6.3-13.5
	C344.1,464.7,345.7,462.4,349.1,460.8 M370.3,453.7l-1.8,1.1l9.3,14.9l1.8-1.1c1.1-0.7,1.7-1.6,0.7-3.1l-6.9-11
	C372.5,452.9,371.4,452.9,370.3,453.7 M376.5,451.7l7.6,12.1c2,3.2,0.7,5.8-2.5,7.7l-5.4,3.4l-13.1-21l5.4-3.4
	C371.7,448.5,374.6,448.5,376.5,451.7"/>
<path class="st1" d="M400.5,442.8l-11.2,9.2c-0.3,0.2-0.8,0.2-1-0.1l-0.1-0.1c-0.3-0.3-0.2-0.8,0.1-1c0,0,0,0,0,0l11.2-9.2
	c0.3-0.2,0.7-0.2,1,0.1l0.1,0.1C400.8,442.1,400.8,442.5,400.5,442.8"/>
<path class="st2" d="M518.5,71v500"/>
</svg>
