<?xml version="1.0" encoding="utf-8"?>
<!-- Generator: Adobe Illustrator 26.0.3, SVG Export Plug-In . SVG Version: 6.00 Build 0)  -->
<svg version="1.0" id="katman_1" xmlns="http://www.w3.org/2000/svg" xmlns:xlink="http://www.w3.org/1999/xlink" x="0px" y="0px"
	 viewBox="0 0 600 450" style="enable-background:new 0 0 600 450;" xml:space="preserve">
<style type="text/css">
	.st0{fill:#0079C1;}
	.st1{fill:#E02112;}
	.st2{fill:#FFDD00;}
	.st3{fill:#FFFFFF;}
</style>
<g>
	<path class="st0" d="M244.4,204.6c-3.9-1.7-7.7-3.7-11.3-5.9c-4.2-2.5-8.1-5.5-11.8-8.7c-3.6-3.2-6.8-6.8-9.5-10.7
		c-3-4.3-5.1-9-6.4-14c-1.2-4.7-1.4-9.6-0.7-14.3c0.8-5,2.5-9.9,5-14.2c0-0.1,0-0.1,0.1-0.2l0.1-0.2c2.5-4.2,5.5-8.1,9-11.5
		c3.6-3.5,7.5-6.7,11.7-9.4c3.6-2.4,7.4-4.5,11.4-6.4c3.8-1.8,7.8-3.4,11.7-4.8c3.4-1.2,6.9-2.2,10.3-3.2c3.4-0.9,6.9-1.6,10.4-2.3
		c3-0.6,6.1-1,9.2-1.4c3.2-0.4,6.4-0.6,9.6-0.8c2.9-0.2,5.9-0.2,8.8-0.3h0c6.2,0,12.4,0.4,18.5,1.1h0.1c1.4,0.2,2.7,0.4,4.1,0.6
		c-3.2-0.6-6.5-1.1-9.8-1.5c-3-0.4-6.1-0.6-9.1-0.8c-3.1-0.2-6.3-0.3-9.4-0.3h0c-9.2,0-18.4,0.8-27.5,2.4c-3.5,0.6-7,1.4-10.4,2.3
		c-3.5,0.9-6.9,1.9-10.3,3.1c-4,1.4-7.9,3-11.7,4.8c-3.9,1.9-7.7,4-11.3,6.3c-4.2,2.7-8.1,5.8-11.7,9.3c-3.5,3.4-6.5,7.2-9,11.4
		c-0.1,0.1-0.1,0.2-0.2,0.3c-2.5,4.3-4.2,9.1-5,14.1c-0.7,4.7-0.4,9.6,0.7,14.2c1.3,5,3.4,9.7,6.4,13.9c2.7,3.9,5.9,7.5,9.5,10.6
		c3.7,3.2,7.6,6.1,11.8,8.6c3.6,2.2,7.4,4.1,11.3,5.9c3.4,1.5,6.9,2.9,10.4,4.1C247.9,206.1,246.1,205.4,244.4,204.6L244.4,204.6z
		 M244.4,204.6"/>
	<path class="st1" d="M389,155.9c0,26.9-38.9,48.6-86.9,48.6c-48,0-86.9-21.8-86.9-48.6s38.9-48.6,86.9-48.6
		C350.1,107.3,389,129.1,389,155.9L389,155.9z M389,155.9"/>
	<path class="st2" d="M297.9,145.3v0.1c-0.7-0.3-1.4-0.5-2.1-0.7c-1.1-0.3-2.2-0.5-3.3-0.7c-1.4-0.2-2.9-0.4-4.4-0.5
		c-2.6-0.2-5.2-0.3-7.8-0.3H265c-0.3,0-0.6,0-0.9,0c-0.3,0-0.6,0-1,0c-7.5,0-10.8,2.2-12.2,8.2c-0.3,1.3-0.5,2.7-0.7,4.1l-0.6,5.7
		c-0.2,1.7-0.2,3.4-0.1,5.1c0,0.2,0,0.4,0,0.6c0.3,7.2,5.9,7.2,11.8,7.2h15.9c1.1,0,2.3-0.1,3.4-0.2c4.7-0.8,7.9-1.6,8.9-7
		c0-0.2,0.1-0.3,0.1-0.5l0.5-4.7h-28.7l0.4-5.2H297l-1.1,11.4c-0.2,1.6-0.5,3.1-1,4.6c-0.8,2.4-1.9,4.1-3.1,4.9
		c-1.2,0.7-2.4,1.2-3.8,1.4c-1.7,0.3-3.5,0.6-5.3,0.6c-1.6,0.1-3.4,0.1-6.1,0.1h-19.6c-5.5-0.1-9.2-0.8-11.5-2.3
		c-1.7-1.1-2.9-3.5-3.2-6.6c-0.2-1.6-0.1-3.2,0-4.9l1.5-13.6l0-0.2v-0.1c0.4-3.2,1.1-5.7,2.3-7.7c1.5-2.5,3.9-4.3,6.7-5.1
		c2.5-0.7,5.8-1.1,9.9-1.1h21.1c1.1,0,2.2,0,3.5,0.1c1.3,0.1,2.6,0.3,3.9,0.5c1,0.2,1.9,0.5,2.8,0.9c0.8,0.3,1.6,0.8,2.2,1.5
		C297.3,141.8,297.8,143.4,297.9,145.3L297.9,145.3z M393.1,172.2c-2.2,4.3-5,8.3-8.4,11.9c-3.6,3.7-7.6,7-11.9,9.9
		c-3.8,2.5-7.8,4.8-12,6.7c-4.1,1.9-8.2,3.6-12.5,5.1c-3.6,1.2-7.3,2.3-11.1,3.2c-3.7,0.9-7.5,1.6-11.1,2.2
		c-3.3,0.5-6.5,0.9-9.8,1.2c-3.4,0.3-6.7,0.5-10.1,0.6c-3.1,0.1-6.2,0.1-9.2,0c-6.5-0.2-12.9-0.8-19.3-1.9c-3.5-0.5-7-1.2-10.4-2.1
		c-3.4-0.8-6.8-1.8-10.2-2.9c-1.6-0.5-3.2-1.1-4.8-1.7c-2.3-0.8-4.5-1.7-6.7-2.7c-3.8-1.7-7.4-3.6-11-5.7c-4-2.5-7.8-5.2-11.4-8.4
		c-3.4-3-6.4-6.4-9-10.2c-2.7-4-4.8-8.4-6-13.1c-0.7-2.7-1-5.5-1-8.3c0-1.6,0.1-3.3,0.4-4.9c0.7-4.6,2.3-9.1,4.6-13.2l0-0.1
		c2.4-4.1,5.3-7.8,8.7-11.1c3.4-3.4,7.2-6.4,11.3-9c3.5-2.3,7.2-4.4,11-6.2c3.7-1.8,7.6-3.3,11.5-4.7c3.3-1.2,6.7-2.2,10.1-3
		c6.3-1.6,12.7-2.8,19.2-3.6c3.1-0.4,6.2-0.6,9.4-0.8c2.9-0.2,5.8-0.2,8.7-0.2h0c3,0,6.1,0.1,9.3,0.3c2.9,0.2,5.9,0.4,8.9,0.8h0.1
		c3.4,0.4,6.8,0.9,10.1,1.6c3.4,0.7,6.8,1.4,10.1,2.3c3.9,1,7.8,2.3,11.6,3.7c3.9,1.5,7.8,3.2,11.5,5.1c4.3,2.2,8.5,4.8,12.4,7.8
		c3.9,2.9,7.4,6.2,10.5,9.9c1.9,2.3,3.6,4.7,5.1,7.2c1.1,1.9,2,3.9,2.8,5.9c1.5,3.9,2.3,8.1,2.3,12.3c0,0.3,0,0.6,0,1
		c0,0.2,0,0.4,0,0.5C396.6,162.8,395.3,167.7,393.1,172.2L393.1,172.2z M392.1,156c0-4.4-1-8.8-2.8-12.9c-2.2-4.9-5.4-9.3-9.2-13.1
		c-3.4-3.4-7.2-6.4-11.3-8.9c-4-2.5-8.1-4.7-12.4-6.5c-3.5-1.5-7.2-2.9-10.8-4c-3.5-1.1-7-2-10.5-2.8c-5.8-1.3-11.7-2.2-17.6-2.8
		c-2.5-0.3-5.1-0.4-7.6-0.5c-2.5-0.1-5.1-0.2-7.6-0.2h-0.3c-2.4,0-4.8,0.1-7.3,0.2c-5.2,0.3-10.5,0.8-15.6,1.5c-3,0.5-5.9,1-8.8,1.6
		c-3.1,0.7-6.1,1.4-9,2.3c-3.6,1-7.1,2.3-10.5,3.6c-3.6,1.4-7.2,3.1-10.6,5c-4.1,2.2-8,4.9-11.7,7.8c-3.6,3-6.9,6.4-9.6,10.3
		c-3,4.2-5,8.9-5.9,14c-0.2,1.3-0.4,2.6-0.4,4c-0.1,0.6-0.1,1.3-0.1,1.9h20.2l-0.4,5.2h-19.2c0.2,1,0.5,2.1,0.8,3.4l0.2,0.6
		c1.5,4.5,3.8,8.6,6.8,12.2c2.9,3.5,6.2,6.7,9.9,9.4c3.6,2.7,7.4,5.1,11.5,7.1c3.4,1.7,6.9,3.3,10.4,4.6c3.3,1.3,6.8,2.4,10.4,3.4
		c3,0.8,6.1,1.6,9,2.2c5.6,1.1,11.3,1.9,17,2.4c2.8,0.2,5.6,0.4,8.4,0.5c1.8,0.1,3.5,0.1,5.1,0.1h2.7c5.7-0.1,11.4-0.5,17-1.2
		c3.3-0.4,6.5-0.9,9.7-1.6c3.4-0.7,6.7-1.5,9.9-2.3c3.9-1.1,7.8-2.4,11.6-3.9c4-1.6,7.9-3.4,11.7-5.5c4.5-2.4,8.6-5.3,12.5-8.7
		l0.2-0.1l4.8-4.7h-59.6c-1.8,0-3.5-0.1-5.3-0.3c-2-0.2-3.9-0.6-5.7-1.4c-3.3-1.5-4.8-5.1-4.5-10.7l0-0.3c0-0.4,0-0.7,0.1-1.1
		l1.5-13.7v0c0-0.1,0-0.2,0-0.2v-0.1c0.2-1.4,0.4-2.8,0.8-4.1c1-3.4,2.7-5.6,5.3-7.1c2-1.2,4.2-1.9,6.5-2.2c2-0.3,4.1-0.4,6.2-0.4
		h21.2c4.9,0,8.4,0.6,10.6,1.7c2,1,3,2.8,3.1,5.8c-0.6-0.3-1.3-0.5-2-0.7c-3.8-1.1-9.1-1.7-15.7-1.7h-17.4c-3.6,0-7.4,0.3-9.9,4.1
		c-1,1.5-1.6,3.3-1.9,5.1c-0.2,1-0.4,2.1-0.5,3.2l-0.6,5.7c0,0.2,0,0.5-0.1,0.7v0.3c-0.1,1-0.1,2.1,0,3.1c0,0.5,0,0.9,0,1.2
		c0,2.3,0.5,4.1,1.8,5.4c1.9,1.9,4.7,2.2,7.3,2.2c0.6,0,1.3,0,1.9,0c0.6,0,1,0,1.5,0h59.4l0.9-1.5c2.7-4.5,4.3-9.5,4.6-14.8v-0.2
		C392.1,157.1,392.1,156.5,392.1,156L392.1,156z M392.1,156"/>
	<path class="st3" d="M300.9,145.2c-0.2-2.7-0.9-4.8-2.1-6.3c-0.9-1-2-1.7-3.3-2.3c-1.1-0.5-2.2-0.8-3.4-1.1
		c-1.4-0.3-2.9-0.5-4.3-0.6c-1.4-0.1-2.5-0.1-3.7-0.1H263c-4.4,0-8,0.4-10.8,1.3c-3.5,1-6.5,3.3-8.4,6.5c-1.5,2.4-2.4,5.3-2.8,9
		l-1.5,13.8c-0.2,1.8-0.2,3.7,0,5.5c0.5,4.1,2,7.1,4.6,8.8c2.8,1.9,7,2.8,13.2,2.8h19.6c2.1,0,4.1,0,6.2-0.1
		c1.9-0.1,3.9-0.3,5.8-0.7c1.7-0.3,3.3-0.9,4.7-1.8c1.8-1.1,3.3-3.3,4.3-6.5c0.6-1.7,0.9-3.5,1.1-5.3l1.4-14.8h-41.3l-0.9,11.3h28.7
		l-0.2,1.3v0.1l0,0.1c-0.6,3.3-1.9,3.9-6.4,4.6c-1,0.2-2,0.2-2.9,0.2h-16c-7.3,0-8.6-0.6-8.8-4.3c0-0.2,0-0.4,0-0.7
		c-0.1-1.5-0.1-3.1,0.1-4.6l0.6-5.7c0.1-1.2,0.3-2.5,0.6-3.7c1-4,2.5-5.8,9.3-5.8c0.4,0,0.8,0,1.1,0c0.3,0,0.5,0,0.8,0h15.3
		c2.7,0,5.2,0.1,7.5,0.3c1.6,0.1,3,0.3,4.1,0.5c1,0.2,2,0.4,3,0.7c0.8,0.2,1.4,0.4,1.8,0.6c0.5,0.2,1,0.4,1.5,0.7l2.5,1.4l0.1-2.9
		C301,146.8,301,146,300.9,145.2L300.9,145.2z M297.9,145.5c-0.7-0.3-1.4-0.5-2.1-0.7c-1.1-0.3-2.2-0.5-3.3-0.7
		c-1.4-0.2-2.9-0.4-4.4-0.5c-2.6-0.2-5.2-0.3-7.8-0.3H265c-0.3,0-0.6,0-0.9,0c-0.3,0-0.6,0-1,0c-7.5,0-10.8,2.2-12.2,8.1
		c-0.3,1.3-0.5,2.7-0.7,4.1l-0.6,5.7c-0.2,1.7-0.2,3.4-0.1,5.1c0,0.2,0,0.4,0,0.6c0.3,7.2,5.9,7.2,11.8,7.2h15.9
		c1.1,0,2.3-0.1,3.4-0.2c4.7-0.8,7.9-1.6,8.9-7c0-0.2,0.1-0.3,0.1-0.5l0.5-4.7h-28.7l0.4-5.2H297l-1.1,11.4c-0.2,1.6-0.5,3.1-1,4.6
		c-0.8,2.4-1.9,4.1-3.1,4.9c-1.2,0.7-2.4,1.2-3.8,1.4c-1.7,0.3-3.5,0.6-5.3,0.6c-1.6,0.1-3.4,0.1-6.1,0.1h-19.6
		c-5.5-0.1-9.2-0.8-11.5-2.3c-1.7-1.1-2.9-3.5-3.2-6.6c-0.2-1.6-0.1-3.2,0-4.9l1.5-13.6l0-0.2v-0.1c0.4-3.2,1.1-5.7,2.3-7.7
		c1.5-2.5,3.9-4.3,6.7-5.1c2.5-0.8,5.8-1.1,9.9-1.1h21.1c1.1,0,2.2,0,3.5,0.1c1.3,0.1,2.6,0.3,3.9,0.5c1,0.2,1.9,0.5,2.8,0.9
		c0.8,0.3,1.6,0.9,2.2,1.5c0.8,0.9,1.3,2.4,1.4,4.4L297.9,145.5L297.9,145.5L297.9,145.5z M380,130c-3.4-3.4-7.2-6.4-11.3-8.9
		c-4-2.5-8.1-4.7-12.4-6.5c-3.5-1.5-7.2-2.9-10.8-4c-3.5-1.1-7-2-10.5-2.8c-5.8-1.3-11.7-2.2-17.6-2.8c-2.5-0.3-5.1-0.4-7.6-0.5
		c-2.5-0.1-5.1-0.2-7.6-0.2h-0.3c-2.4,0-4.8,0.1-7.3,0.2c-5.2,0.3-10.5,0.8-15.6,1.5c-3,0.5-5.9,1-8.8,1.6c-3.1,0.7-6.1,1.4-9,2.3
		c-3.6,1-7.1,2.3-10.5,3.6c-3.6,1.4-7.2,3.1-10.6,5c-4.1,2.2-8,4.9-11.7,7.8c-3.6,3-6.9,6.4-9.6,10.3c-3,4.2-5,8.9-5.9,14
		c-0.2,1.3-0.4,2.6-0.4,4c-0.1,0.6-0.1,1.3-0.1,1.9h20.2l-0.4,5.2h-19.2c0.2,1,0.5,2.1,0.8,3.4l0.2,0.6c1.5,4.5,3.8,8.6,6.8,12.2
		c2.9,3.5,6.2,6.7,9.9,9.4c3.6,2.7,7.4,5.1,11.5,7.1c3.4,1.7,6.9,3.3,10.4,4.6c3.4,1.3,6.9,2.4,10.4,3.4c3,0.8,6.1,1.6,9,2.2
		c5.6,1.1,11.3,1.9,17,2.4c2.8,0.2,5.6,0.4,8.4,0.5c1.8,0.1,3.5,0.1,5.1,0.1h2.7c5.7-0.1,11.4-0.5,17-1.2c3.3-0.4,6.5-0.9,9.7-1.6
		c3.4-0.7,6.7-1.5,9.9-2.3c3.9-1.1,7.8-2.4,11.6-3.9c4-1.6,7.9-3.4,11.7-5.5c4.5-2.4,8.6-5.3,12.5-8.7l0.2-0.1l4.8-4.7h-59.6
		c-1.8,0-3.5-0.1-5.3-0.3c-2-0.2-3.9-0.6-5.7-1.4c-3.3-1.5-4.8-5.1-4.5-10.7l0-0.3c0-0.4,0-0.7,0.1-1.1l1.5-13.7v0
		c0-0.1,0-0.2,0-0.2v-0.1c0.2-1.4,0.4-2.8,0.8-4.1c1.1-3.4,2.7-5.6,5.3-7.1c2-1.2,4.2-1.9,6.5-2.2c2-0.3,4.1-0.4,6.2-0.4h21.2
		c4.9,0,8.4,0.6,10.6,1.7c2,1,3,2.8,3.1,5.8c-0.6-0.2-1.3-0.5-2-0.7c-3.8-1.1-9.1-1.7-15.7-1.7h-17.4c-3.6,0-7.4,0.3-9.9,4.1
		c-1,1.5-1.6,3.3-1.9,5.1c-0.2,1-0.4,2.1-0.5,3.2l-0.6,5.7c0,0.2,0,0.5-0.1,0.7v0.3c-0.1,1-0.1,2.1,0,3.1c0,0.5,0,0.9,0,1.2
		c0,2.3,0.5,4.1,1.8,5.4c1.9,1.9,4.7,2.2,7.3,2.2c0.6,0,1.3,0,1.9,0c0.6,0,1,0,1.5,0h59.4l0.9-1.5c2.7-4.5,4.3-9.5,4.6-14.8v-0.2
		c0-0.5,0.1-1,0.1-1.6c0-4.4-1-8.8-2.8-12.9C387.1,138.2,383.9,133.8,380,130L380,130z M389,157.4v0.3c-0.3,4.7-1.8,9.3-4.2,13.4
		H327c-0.5,0-1,0-1.6,0c-0.6,0-1.2,0-1.8,0c-1.8,0-4-0.2-5.1-1.3c-0.7-0.7-1-1.7-0.9-3.2v-1.4c0-0.9,0-1.8,0-2.8v-0.3
		c0-0.2,0-0.4,0.1-0.7l0.6-5.7c0.1-1.1,0.3-2,0.4-2.9c0.2-1.4,0.7-2.8,1.5-4c1.5-2.3,3.7-2.7,7.4-2.7H345c6.3,0,11.3,0.5,14.8,1.6
		c1.1,0.3,2.2,0.7,3.2,1.3l2.5,1.4l0.2-2.9V147c0.1-3.2-0.3-7.8-4.8-10c-2.7-1.4-6.6-2-12-2h-21.1c-2.2,0-4.4,0.1-6.6,0.4
		c-2.7,0.4-5.3,1.3-7.6,2.6c-3.4,1.9-5.5,4.7-6.8,8.9c-0.3,1-0.5,2-0.7,3c0,0.4-0.2,1-0.2,1.5v0.2c0,0.1,0,0.2,0,0.2l-1.5,13.7
		c0,0.4-0.1,0.8-0.1,1.2v0.3c-0.5,8.7,3.1,12.2,6.2,13.7c2.1,0.9,4.4,1.5,6.7,1.7c1.9,0.2,3.7,0.3,5.6,0.3h52
		c-3.5,3-7.4,5.6-11.4,7.8c-3.7,2-7.5,3.8-11.4,5.3c-3.7,1.4-7.5,2.7-11.3,3.8c-3.2,0.9-6.4,1.6-9.7,2.3c-3.1,0.6-6.3,1.1-9.5,1.5
		c-2.7,0.3-5.5,0.6-8.2,0.8c-2.8,0.2-5.6,0.3-8.4,0.4h-0.6c-2.3,0-4.7,0-7-0.1c-8.4-0.3-16.7-1.2-24.9-2.9c-2.9-0.6-5.9-1.3-8.8-2.1
		c-3.4-1-6.8-2.1-10.1-3.3c-3.4-1.3-6.8-2.8-10.1-4.5c-3.9-2-7.6-4.3-11-6.8c-3.5-2.6-6.6-5.6-9.3-8.9c-2.8-3.3-4.9-7.1-6.3-11.3
		h18.2l0.9-11.3h-20.4c0.1-0.8,0.2-1.5,0.3-2.3c0.9-4.6,2.7-9,5.4-12.8c2.6-3.6,5.6-6.9,9-9.7c3.5-2.8,7.2-5.4,11.2-7.5
		c3.3-1.8,6.8-3.4,10.3-4.8c3.4-1.3,6.8-2.5,10.3-3.5c2.9-0.8,5.8-1.6,8.8-2.2c2.9-0.6,5.7-1.2,8.6-1.6c2.5-0.4,5-0.7,7.6-0.9
		c2.6-0.3,5.2-0.5,7.8-0.6c2.5-0.1,4.9-0.2,7.2-0.2h0.3c2.3,0,4.7,0.1,7.4,0.2c2.5,0.1,5,0.3,7.5,0.5c2.9,0.3,5.8,0.6,8.6,1.1
		c2.9,0.4,5.8,1,8.7,1.6c3.5,0.8,6.9,1.7,10.3,2.7c3.6,1.1,7.1,2.4,10.5,3.9c4.1,1.8,8.2,3.9,12,6.3c3.9,2.4,7.5,5.3,10.8,8.5
		c3.6,3.5,6.5,7.6,8.6,12.2c1.6,3.7,2.5,7.6,2.5,11.6C389,156.4,389,156.9,389,157.4L389,157.4z M397.5,142.9
		c-0.8-2.2-1.8-4.3-3-6.4c-1.6-2.7-3.4-5.3-5.4-7.7c-3.3-3.8-7-7.3-11-10.3c-4.1-3-8.4-5.7-12.9-8c-3.8-2-7.8-3.8-11.8-5.3
		c-3.9-1.5-7.9-2.7-11.9-3.8c-3.4-0.9-6.9-1.7-10.3-2.4c-3.4-0.7-6.9-1.2-10.4-1.6h-0.1c-6.1-0.7-12.3-1.1-18.5-1.1h0
		c-2.8,0-5.8,0.1-8.8,0.3c-3,0.2-6.3,0.4-9.6,0.8c-3.2,0.4-6.3,0.8-9.2,1.4c-3.5,0.6-7,1.4-10.4,2.3c-3.5,0.9-6.9,2-10.3,3.2
		c-4,1.4-7.9,3-11.8,4.8c-3.9,1.9-7.7,4-11.4,6.4c-4.2,2.7-8.1,5.9-11.7,9.4c-3.5,3.4-6.5,7.3-9,11.5c0,0-0.1,0.1-0.1,0.2
		c-0.1,0.1,0,0.1-0.1,0.2c-2.5,4.4-4.2,9.2-5,14.3c-0.3,1.8-0.4,3.6-0.4,5.3c0,3,0.4,6,1.1,9c1.3,5,3.5,9.8,6.4,14
		c2.7,3.9,5.9,7.5,9.5,10.7c3.7,3.2,7.6,6.2,11.8,8.7c3.6,2.2,7.4,4.2,11.3,5.9c2,0.9,4.2,1.8,6.8,2.8c1.4,0.5,3.2,1.2,4.9,1.7
		c3.4,1.1,6.9,2.1,10.4,2.9c3.5,0.9,7.1,1.6,10.6,2.1c3.1,0.5,6.4,0.9,9.6,1.2c3.4,0.3,6.8,0.5,10.1,0.7c1.8,0.1,3.5,0.1,5.3,0.1
		c1.2,0,2.5,0,4.1-0.1c3.5-0.1,6.9-0.3,10.3-0.6c3.3-0.3,6.7-0.7,10-1.2c3.8-0.6,7.6-1.4,11.3-2.3c3.8-0.9,7.6-2,11.3-3.2
		c4.4-1.5,8.7-3.2,12.8-5.2c4.3-2,8.4-4.4,12.3-7c4.5-3,8.7-6.5,12.4-10.3c3.6-3.7,6.6-8,9-12.6c2.5-4.9,3.9-10.3,4.1-15.7
		c0-0.2,0-0.3,0-0.5c0-0.4,0-0.7,0-1.1C400,151.7,399.1,147.2,397.5,142.9L397.5,142.9z M396.9,157.2c0,0.2,0,0.4,0,0.5
		c-0.3,5-1.6,10-3.8,14.5c-2.2,4.4-5,8.3-8.4,11.9c-3.6,3.7-7.6,7.1-11.9,9.9c-3.8,2.5-7.8,4.8-12,6.7c-4.1,1.9-8.2,3.6-12.5,5.1
		c-3.6,1.2-7.3,2.3-11.1,3.2c-3.7,0.9-7.5,1.6-11.1,2.2c-3.3,0.5-6.5,0.9-9.8,1.2c-3.4,0.3-6.7,0.5-10.1,0.6c-3.1,0.1-6.2,0.1-9.2,0
		c-6.5-0.2-12.9-0.8-19.3-1.8c-3.5-0.5-7-1.2-10.4-2.1c-3.4-0.8-6.8-1.8-10.2-2.9c-1.6-0.5-3.2-1.1-4.8-1.7
		c-2.2-0.8-4.5-1.7-6.7-2.7c-3.8-1.7-7.4-3.6-11-5.7c-4-2.5-7.8-5.2-11.4-8.4c-3.4-3-6.4-6.4-9-10.2c-2.7-4-4.8-8.4-6-13.1
		c-1.1-4.3-1.3-8.8-0.6-13.2c0.7-4.6,2.3-9.1,4.6-13.2l0-0.1c2.4-4.1,5.3-7.8,8.7-11.1c3.4-3.4,7.2-6.4,11.3-9
		c3.5-2.3,7.2-4.4,11-6.2c3.7-1.8,7.6-3.3,11.5-4.7c3.3-1.2,6.7-2.2,10.1-3c6.3-1.6,12.7-2.8,19.2-3.6c3.1-0.4,6.2-0.6,9.4-0.8
		c2.9-0.2,5.8-0.2,8.7-0.2h0c3,0,6.1,0.1,9.3,0.3c2.9,0.2,5.9,0.4,8.9,0.8h0.1c3.4,0.4,6.8,0.9,10.1,1.6c3.4,0.7,6.8,1.4,10.1,2.3
		c3.9,1.1,7.8,2.3,11.6,3.7c3.9,1.5,7.8,3.2,11.5,5.1c4.3,2.2,8.5,4.8,12.4,7.7c3.9,2.9,7.4,6.2,10.5,9.9c1.9,2.3,3.6,4.7,5.1,7.2
		c1.1,1.9,2,3.9,2.8,5.9c1.5,3.9,2.3,8.1,2.3,12.3C396.9,156.5,396.9,156.9,396.9,157.2L396.9,157.2z M396.9,157.2"/>
	<path class="st1" d="M159.6,228.4c-1.1-14.1-8.7-18.2-15-18.2c-9.1,0-14.1,5.9-14.1,16.2c0,28,57.4,41.4,57.4,86.1
		c0,27.1-18.2,42.1-44.6,42.1c-26.2,0-41.2-21-42.3-45.5l26.9-3.9c1.1,16.6,7.7,24.8,16.9,24.8c9.8,0,16.4-5.2,16.4-15
		c0-32.6-57.4-41.2-57.4-88.3c0-26.2,15.9-41,43.7-41c10.9,0,19.6,3.9,26.2,10.3c7.3,7.1,11.6,17.3,13,29.6L159.6,228.4z M285.4,297
		l-0.2,13.8c0,28.2-16.4,43.7-43.3,43.7c-26.9,0-43.3-15.5-43.3-43.7l0.6-104.9l27.7,11.4l-0.1,94.6c0,12.1,4.8,18,15,18
		c10.3,0,15-5.9,15-18l0.3-86.7l28.4,4.9c0.2,0.4,21.2,2.2,21.2,2.2v5.2c-15,0.7-21.7-0.4-21.7,19.7L285.4,297z M397.6,312
		l-0.2,19.1c0,15,9.1,15.5,25,16.2v5.7c0,0-24.1,0-25-0.7h-24.6l-36-95.9l-0.5,2.2v93.7h-25.5V232.1l41.4-7.5l19.1,57.4h0.5v-64
		l25.5-9.3L397.6,312z M397.6,312"/>
	<path class="st1" d="M469.8,228.4c-1.1-14.1-8.7-18.2-15-18.2c-9.1,0-14.1,5.9-14.1,16.2c0,28,57.4,41.4,57.4,86.1
		c0,27.1-18.2,42.1-44.6,42.1c-26.2,0-41.2-21-42.3-45.5l26.9-3.9c1.2,16.6,7.7,24.8,16.9,24.8c9.8,0,16.4-5.2,16.4-15
		c0-32.6-57.4-41.2-57.4-88.3c0-26.2,15.9-41,43.7-41c10.9,0,19.6,3.9,26.2,10.3c7.3,7.1,11.6,17.3,13,29.6L469.8,228.4z
		 M469.8,228.4"/>
</g>
</svg>
