<?xml version="1.0" encoding="UTF-8"?>
<svg xmlns="http://www.w3.org/2000/svg" xmlns:xlink="http://www.w3.org/1999/xlink" width="415pt" height="250pt" viewBox="0 0 415 250" version="1.1">
<g id="surface1">
<path style=" stroke:none;fill-rule:evenodd;fill:rgb(100%,100%,100%);fill-opacity:1;" d="M 0.632813 0.796875 L 414.109375 0.796875 L 414.109375 249.195313 L 0.632813 249.195313 L 0.632813 0.796875 "/>
<path style=" stroke:none;fill-rule:evenodd;fill:rgb(0%,48.234558%,76.469421%);fill-opacity:1;" d="M 144.289063 171.222656 C 145.46875 167.457031 145.988281 164.421875 147.601563 161.238281 C 155.21875 166.273438 158.355469 168.59375 161.90625 169.296875 C 169.136719 170.730469 176.820313 169.113281 187.121094 169.296875 C 194.910156 184.65625 196.085938 188.414063 209.703125 200.726563 C 203.128906 202.308594 197.890625 203.144531 191.15625 203.144531 C 171.277344 203.144531 140.066406 189.546875 128.230469 171.179688 Z M 391.628906 96.144531 C 395.015625 105.015625 396.820313 114.269531 396.820313 123.785156 C 396.820313 189.121094 312.304688 242.105469 208.09375 242.105469 C 103.878906 242.105469 19.363281 189.121094 19.363281 123.785156 C 19.363281 114.375 21.125 105.222656 24.4375 96.449219 L 96.789063 96.449219 L 72.546875 109.117188 L 81.28125 128.703125 L 89.53125 114.496094 C 89.980469 115.472656 91.292969 120.890625 91.292969 121.777344 L 89.53125 129.003906 L 86.34375 137.917969 C 90.179688 143.839844 97.328125 152.523438 104.941406 153.207031 L 107.351563 145.683594 L 117.003906 148.378906 L 121.320313 141.8125 L 130.570313 145.253906 L 134.714844 136.019531 L 165.355469 137.371094 L 154.859375 127.390625 C 179.5 133.324219 195.109375 151.992188 208.246094 171.5625 C 214.960938 181.566406 221.488281 192.660156 233.832031 195.179688 C 245.671875 197.601563 259.789063 188.03125 265.011719 178.625 C 273.109375 161.898438 272.910156 150.59375 267.421875 139.023438 C 264.335938 128.421875 254.484375 118.011719 245.667969 111.605469 C 223.925781 95.8125 192.136719 90.128906 163.710938 90.128906 L 117.566406 93.613281 C 114.941406 90.636719 112.316406 87.65625 109.695313 84.679688 C 113.386719 79.730469 128.078125 71.066406 134.160156 68.027344 C 147.675781 61.273438 153.570313 60.503906 168.570313 60.503906 C 166.707031 65.140625 146.917969 65.628906 144.375 75.011719 L 165.738281 75.574219 L 156.960938 83.570313 C 169.171875 82.4375 193 83.375 198.414063 83.875 C 218.378906 83.875 245.890625 93.914063 262.136719 104.816406 C 270.632813 110.515625 278.210938 117.226563 284.902344 124.785156 C 287.867188 128.132813 302.480469 148.457031 303.859375 149.421875 L 352.460938 95.964844 L 391.628906 96.144531 "/>
<path style=" stroke:none;fill-rule:evenodd;fill:rgb(92.89856%,10.998535%,14.099121%);fill-opacity:1;" d="M 208.09375 5.46875 C 288.429688 5.46875 357.046875 36.957031 384.277344 81.316406 L 328.789063 82.105469 L 310.414063 72.699219 C 293.996094 66.222656 265.710938 54.84375 247.613281 53.253906 C 242.976563 62.394531 230.921875 74.753906 220.996094 77.429688 L 201.527344 59.277344 L 193.722656 63.976563 L 192.574219 63.3125 L 197.53125 51.339844 L 198.371094 51.683594 C 205.726563 52.160156 216.210938 64.628906 221.753906 66.195313 C 228.710938 64.238281 240.761719 54.019531 241.769531 47.117188 C 236.894531 42.820313 203.121094 37.941406 194.382813 37.941406 L 184.726563 50.046875 C 150.152344 49.265625 114.054688 65.359375 87.917969 82.261719 L 31.351563 82.230469 C 58.195313 37.390625 127.203125 5.46875 208.09375 5.46875 "/>
<path style=" stroke:none;fill-rule:nonzero;fill:rgb(0%,48.234558%,76.469421%);fill-opacity:1;" d="M 354.71875 215.488281 L 354.71875 208.691406 L 352.289063 208.691406 L 352.289063 207.304688 L 358.796875 207.304688 L 358.796875 208.691406 L 356.371094 208.691406 L 356.371094 215.488281 L 354.71875 215.488281 "/>
<path style=" stroke:none;fill-rule:nonzero;fill:rgb(0%,48.234558%,76.469421%);fill-opacity:1;" d="M 359.839844 215.488281 L 359.839844 207.304688 L 362.3125 207.304688 L 363.796875 212.886719 L 365.265625 207.304688 L 367.746094 207.304688 L 367.746094 215.488281 L 366.210938 215.488281 L 366.210938 209.046875 L 364.585938 215.488281 L 362.992188 215.488281 L 361.375 209.046875 L 361.375 215.488281 L 359.839844 215.488281 "/>
</g>
</svg>
