<?xml version="1.0" standalone="no"?>
<!DOCTYPE svg PUBLIC "-//W3C//DTD SVG 20010904//EN"
  "http://www.w3.org/TR/2001/REC-SVG-20010904/DTD/svg10.dtd">
<svg width="16" height="16">
  <circle cx="0" cy="0" r="1" fill="srgba(0,24,168,1)"/>
  <circle cx="1" cy="0" r="1" fill="srgba(0,24,168,1)"/>
  <circle cx="2" cy="0" r="1" fill="srgba(0,24,168,1)"/>
  <circle cx="3" cy="0" r="1" fill="srgba(0%,9.09438%,66.1509%,1)"/>
  <circle cx="4" cy="0" r="1" fill="srgba(6.45914%,14.4717%,61.5839%,1)"/>
  <circle cx="5" cy="0" r="1" fill="srgba(80.0778%,72.1477%,13.4432%,1)"/>
  <circle cx="6" cy="0" r="1" fill="srgba(100%,88.2383%,0%,1)"/>
  <circle cx="7" cy="0" r="1" fill="srgba(99.5026%,87.4052%,0.0564584%,1)"/>
  <circle cx="8" cy="0" r="1" fill="srgba(98.7961%,87.0619%,0.604257%,1)"/>
  <circle cx="9" cy="0" r="1" fill="srgba(99.8169%,88.4291%,0%,1)"/>
  <circle cx="10" cy="0" r="1" fill="srgba(96.1364%,71.8029%,4.38697%,1)"/>
  <circle cx="11" cy="0" r="1" fill="srgba(82.739%,11.5267%,21.2741%,1)"/>
  <circle cx="12" cy="0" r="1" fill="srgba(81.4954%,5.94339%,22.8382%,1)"/>
  <circle cx="13" cy="0" r="1" fill="srgba(208,16,58,1)"/>
  <circle cx="14" cy="0" r="1" fill="srgba(208,16,58,1)"/>
  <circle cx="15" cy="0" r="1" fill="srgba(208,16,58,1)"/>
  <circle cx="0" cy="1" r="1" fill="srgba(0,24,168,1)"/>
  <circle cx="1" cy="1" r="1" fill="srgba(0,24,168,1)"/>
  <circle cx="2" cy="1" r="1" fill="srgba(0,24,168,1)"/>
  <circle cx="3" cy="1" r="1" fill="srgba(0%,9.09438%,66.1509%,1)"/>
  <circle cx="4" cy="1" r="1" fill="srgba(6.46067%,14.4717%,61.5808%,1)"/>
  <circle cx="5" cy="1" r="1" fill="srgba(80.0626%,72.1355%,13.4813%,1)"/>
  <circle cx="6" cy="1" r="1" fill="srgba(100%,88.2322%,0%,1)"/>
  <circle cx="7" cy="1" r="1" fill="srgba(99.4247%,87.3686%,0.112917%,1)"/>
  <circle cx="8" cy="1" r="1" fill="srgba(98.2605%,86.8055%,0.999466%,1)"/>
  <circle cx="9" cy="1" r="1" fill="srgba(99.8108%,88.426%,0%,1)"/>
  <circle cx="10" cy="1" r="1" fill="srgba(96.1364%,71.8029%,4.38697%,1)"/>
  <circle cx="11" cy="1" r="1" fill="srgba(82.739%,11.5267%,21.2741%,1)"/>
  <circle cx="12" cy="1" r="1" fill="srgba(81.4954%,5.94339%,22.8382%,1)"/>
  <circle cx="13" cy="1" r="1" fill="srgba(208,16,58,1)"/>
  <circle cx="14" cy="1" r="1" fill="srgba(208,16,58,1)"/>
  <circle cx="15" cy="1" r="1" fill="srgba(208,16,58,1)"/>
  <circle cx="0" cy="2" r="1" fill="srgba(0,24,168,1)"/>
  <circle cx="1" cy="2" r="1" fill="srgba(0,24,168,1)"/>
  <circle cx="2" cy="2" r="1" fill="srgba(0,24,168,1)"/>
  <circle cx="3" cy="2" r="1" fill="srgba(0%,9.09438%,66.1509%,1)"/>
  <circle cx="4" cy="2" r="1" fill="srgba(6.4622%,14.4732%,61.5793%,1)"/>
  <circle cx="5" cy="2" r="1" fill="srgba(80.0458%,72.1202%,13.5241%,1)"/>
  <circle cx="6" cy="2" r="1" fill="srgba(100%,88.2231%,0%,1)"/>
  <circle cx="7" cy="2" r="1" fill="srgba(99.3652%,87.3396%,0.157168%,1)"/>
  <circle cx="8" cy="2" r="1" fill="srgba(97.8408%,86.6026%,1.31228%,1)"/>
  <circle cx="9" cy="2" r="1" fill="srgba(99.8047%,88.4245%,0%,1)"/>
  <circle cx="10" cy="2" r="1" fill="srgba(96.1364%,71.8029%,4.38697%,1)"/>
  <circle cx="11" cy="2" r="1" fill="srgba(82.739%,11.5267%,21.2741%,1)"/>
  <circle cx="12" cy="2" r="1" fill="srgba(81.4954%,5.94339%,22.8382%,1)"/>
  <circle cx="13" cy="2" r="1" fill="srgba(208,16,58,1)"/>
  <circle cx="14" cy="2" r="1" fill="srgba(208,16,58,1)"/>
  <circle cx="15" cy="2" r="1" fill="srgba(208,16,58,1)"/>
  <circle cx="0" cy="3" r="1" fill="srgba(0,24,168,1)"/>
  <circle cx="1" cy="3" r="1" fill="srgba(0,24,168,1)"/>
  <circle cx="2" cy="3" r="1" fill="srgba(0,24,168,1)"/>
  <circle cx="3" cy="3" r="1" fill="srgba(0%,9.09438%,66.1509%,1)"/>
  <circle cx="4" cy="3" r="1" fill="srgba(6.4622%,14.4732%,61.5763%,1)"/>
  <circle cx="5" cy="3" r="1" fill="srgba(80.029%,72.1035%,13.5683%,1)"/>
  <circle cx="6" cy="3" r="1" fill="srgba(100%,88.2139%,0%,1)"/>
  <circle cx="7" cy="3" r="1" fill="srgba(99.3378%,87.3259%,0.177005%,1)"/>
  <circle cx="8" cy="3" r="1" fill="srgba(97.6471%,86.5095%,1.45876%,1)"/>
  <circle cx="9" cy="3" r="1" fill="srgba(99.8032%,88.423%,0%,1)"/>
  <circle cx="10" cy="3" r="1" fill="srgba(96.1364%,71.8029%,4.38697%,1)"/>
  <circle cx="11" cy="3" r="1" fill="srgba(82.739%,11.5267%,21.2741%,1)"/>
  <circle cx="12" cy="3" r="1" fill="srgba(81.4954%,5.94339%,22.8382%,1)"/>
  <circle cx="13" cy="3" r="1" fill="srgba(208,16,58,1)"/>
  <circle cx="14" cy="3" r="1" fill="srgba(208,16,58,1)"/>
  <circle cx="15" cy="3" r="1" fill="srgba(208,16,58,1)"/>
  <circle cx="0" cy="4" r="1" fill="srgba(0,24,168,1)"/>
  <circle cx="1" cy="4" r="1" fill="srgba(0,24,168,1)"/>
  <circle cx="2" cy="4" r="1" fill="srgba(0,24,168,1)"/>
  <circle cx="3" cy="4" r="1" fill="srgba(0%,9.09438%,66.1509%,1)"/>
  <circle cx="4" cy="4" r="1" fill="srgba(6.46372%,14.4732%,61.5732%,1)"/>
  <circle cx="5" cy="4" r="1" fill="srgba(80.0092%,72.0928%,13.6477%,1)"/>
  <circle cx="6" cy="4" r="1" fill="srgba(100%,88.3482%,0%,1)"/>
  <circle cx="7" cy="4" r="1" fill="srgba(99.6231%,87.7516%,0.181582%,1)"/>
  <circle cx="8" cy="4" r="1" fill="srgba(97.8927%,86.9673%,1.51369%,1)"/>
  <circle cx="9" cy="4" r="1" fill="srgba(100%,88.8258%,0%,1)"/>
  <circle cx="10" cy="4" r="1" fill="srgba(96.4141%,72.0836%,4.39918%,1)"/>
  <circle cx="11" cy="4" r="1" fill="srgba(82.9541%,11.5526%,21.3535%,1)"/>
  <circle cx="12" cy="4" r="1" fill="srgba(81.6907%,5.98001%,22.9297%,1)"/>
  <circle cx="13" cy="4" r="1" fill="srgba(81.7762%,6.30655%,22.8397%,1)"/>
  <circle cx="14" cy="4" r="1" fill="srgba(81.7441%,6.31571%,22.8305%,1)"/>
  <circle cx="15" cy="4" r="1" fill="srgba(81.6907%,6.33402%,22.8183%,1)"/>
  <circle cx="0" cy="5" r="1" fill="srgba(0,24,168,1)"/>
  <circle cx="1" cy="5" r="1" fill="srgba(0,24,168,1)"/>
  <circle cx="2" cy="5" r="1" fill="srgba(0%,9.40566%,65.8808%,1)"/>
  <circle cx="3" cy="5" r="1" fill="srgba(0%,9.06844%,66.1402%,1)"/>
  <circle cx="4" cy="5" r="1" fill="srgba(6.48356%,14.461%,61.5488%,1)"/>
  <circle cx="5" cy="5" r="1" fill="srgba(79.7238%,71.7617%,13.7346%,1)"/>
  <circle cx="6" cy="5" r="1" fill="srgba(98.1674%,85.6809%,2.07675%,1)"/>
  <circle cx="7" cy="5" r="1" fill="srgba(90.4784%,78.2071%,9.9382%,1)"/>
  <circle cx="8" cy="5" r="1" fill="srgba(83.5676%,71.9295%,13.228%,1)"/>
  <circle cx="9" cy="5" r="1" fill="srgba(87.3121%,75.0958%,9.49416%,1)"/>
  <circle cx="10" cy="5" r="1" fill="srgba(86.421%,64.3412%,11.4397%,1)"/>
  <circle cx="11" cy="5" r="1" fill="srgba(77.966%,19.266%,23.8956%,1)"/>
  <circle cx="12" cy="5" r="1" fill="srgba(77.7966%,14.107%,24.9683%,1)"/>
  <circle cx="13" cy="5" r="1" fill="srgba(77.7569%,13.7484%,24.596%,1)"/>
  <circle cx="14" cy="5" r="1" fill="srgba(78.3154%,12.99%,24.4724%,1)"/>
  <circle cx="15" cy="5" r="1" fill="srgba(79.2828%,12.0333%,24.4358%,1)"/>
  <circle cx="0" cy="6" r="1" fill="srgba(0,24,168,1)"/>
  <circle cx="1" cy="6" r="1" fill="srgba(0%,9.40414%,65.8793%,1)"/>
  <circle cx="2" cy="6" r="1" fill="srgba(0.16022%,9.55673%,65.9373%,1)"/>
  <circle cx="3" cy="6" r="1" fill="srgba(0.294499%,9.72915%,66.3935%,1)"/>
  <circle cx="4" cy="6" r="1" fill="srgba(7.55474%,15.5077%,61.944%,1)"/>
  <circle cx="5" cy="6" r="1" fill="srgba(78.1094%,70.3151%,15.2193%,1)"/>
  <circle cx="6" cy="6" r="1" fill="srgba(89.6117%,67.6326%,11.635%,1)"/>
  <circle cx="7" cy="6" r="1" fill="srgba(80.9903%,53.8552%,26.1723%,1)"/>
  <circle cx="8" cy="6" r="1" fill="srgba(76.9314%,48.835%,12.0928%,1)"/>
  <circle cx="9" cy="6" r="1" fill="srgba(81.8112%,62.8946%,8.56794%,1)"/>
  <circle cx="10" cy="6" r="1" fill="srgba(82.9435%,59.7726%,9.65438%,1)"/>
  <circle cx="11" cy="6" r="1" fill="srgba(76.3592%,16.1318%,21.593%,1)"/>
  <circle cx="12" cy="6" r="1" fill="srgba(75.5398%,11.4397%,22.8061%,1)"/>
  <circle cx="13" cy="6" r="1" fill="srgba(75.2132%,11.8227%,22.6276%,1)"/>
  <circle cx="14" cy="6" r="1" fill="srgba(75.5581%,11.5267%,22.6169%,1)"/>
  <circle cx="15" cy="6" r="1" fill="srgba(76.0388%,11.2734%,22.7039%,1)"/>
  <circle cx="0" cy="7" r="1" fill="srgba(0,24,168,1)"/>
  <circle cx="1" cy="7" r="1" fill="srgba(0%,9.35988%,65.8717%,1)"/>
  <circle cx="2" cy="7" r="1" fill="srgba(0.840772%,10.1534%,66.1616%,1)"/>
  <circle cx="3" cy="7" r="1" fill="srgba(3.60571%,12.6879%,67.3274%,1)"/>
  <circle cx="4" cy="7" r="1" fill="srgba(12.636%,20.0992%,63.5096%,1)"/>
  <circle cx="5" cy="7" r="1" fill="srgba(75.7443%,68.2643%,23.5447%,1)"/>
  <circle cx="6" cy="7" r="1" fill="srgba(83.4043%,63.8422%,33.8186%,1)"/>
  <circle cx="7" cy="7" r="1" fill="srgba(92.2072%,68.7236%,29.247%,1)"/>
  <circle cx="8" cy="7" r="1" fill="srgba(87.4296%,60.8606%,8.01709%,1)"/>
  <circle cx="9" cy="7" r="1" fill="srgba(75.2026%,57.5174%,18.558%,1)"/>
  <circle cx="10" cy="7" r="1" fill="srgba(73.1395%,60.6012%,33.6416%,1)"/>
  <circle cx="11" cy="7" r="1" fill="srgba(70.7149%,46.6911%,38.2681%,1)"/>
  <circle cx="12" cy="7" r="1" fill="srgba(70.7073%,46.4988%,38.6893%,1)"/>
  <circle cx="13" cy="7" r="1" fill="srgba(71.1177%,47.2129%,39.1409%,1)"/>
  <circle cx="14" cy="7" r="1" fill="srgba(70.9926%,47.2145%,39.144%,1)"/>
  <circle cx="15" cy="7" r="1" fill="srgba(70.8766%,47.9255%,39.44%,1)"/>
  <circle cx="0" cy="8" r="1" fill="srgba(0%,9.38582%,65.89%,1)"/>
  <circle cx="1" cy="8" r="1" fill="srgba(0.282292%,9.62387%,65.8259%,1)"/>
  <circle cx="2" cy="8" r="1" fill="srgba(0.999466%,10.19%,65.6718%,1)"/>
  <circle cx="3" cy="8" r="1" fill="srgba(0.622568%,9.89395%,65.9281%,1)"/>
  <circle cx="4" cy="8" r="1" fill="srgba(7.4876%,15.3658%,61.0346%,1)"/>
  <circle cx="5" cy="8" r="1" fill="srgba(72.842%,65.008%,20.9689%,1)"/>
  <circle cx="6" cy="8" r="1" fill="srgba(78.3398%,64.5045%,41.6159%,1)"/>
  <circle cx="7" cy="8" r="1" fill="srgba(88.3253%,58.23%,22.9267%,1)"/>
  <circle cx="8" cy="8" r="1" fill="srgba(67.5257%,60.1938%,23.0564%,1)"/>
  <circle cx="9" cy="8" r="1" fill="srgba(20.8209%,44.4282%,58.1384%,1)"/>
  <circle cx="10" cy="8" r="1" fill="srgba(19.7192%,46.6178%,66.4286%,1)"/>
  <circle cx="11" cy="8" r="1" fill="srgba(18.8571%,45.9937%,65.5192%,1)"/>
  <circle cx="12" cy="8" r="1" fill="srgba(18.3047%,45.3956%,65.1194%,1)"/>
  <circle cx="13" cy="8" r="1" fill="srgba(17.998%,45.2979%,65.597%,1)"/>
  <circle cx="14" cy="8" r="1" fill="srgba(17.5723%,44.9989%,65.8534%,1)"/>
  <circle cx="15" cy="8" r="1" fill="srgba(17.6104%,45.0797%,65.9495%,1)"/>
  <circle cx="0" cy="9" r="1" fill="srgba(0.593576%,9.86648%,65.7603%,1)"/>
  <circle cx="1" cy="9" r="1" fill="srgba(1.1368%,10.2983%,65.6443%,1)"/>
  <circle cx="2" cy="9" r="1" fill="srgba(0.381476%,9.70779%,65.803%,1)"/>
  <circle cx="3" cy="9" r="1" fill="srgba(0%,9.08522%,66.1524%,1)"/>
  <circle cx="4" cy="9" r="1" fill="srgba(6.81621%,14.7707%,61.0285%,1)"/>
  <circle cx="5" cy="9" r="1" fill="srgba(73.7972%,66.511%,22.6368%,1)"/>
  <circle cx="6" cy="9" r="1" fill="srgba(79.1226%,64.5396%,40.8377%,1)"/>
  <circle cx="7" cy="9" r="1" fill="srgba(85.9144%,55.3994%,26.7796%,1)"/>
  <circle cx="8" cy="9" r="1" fill="srgba(62.4994%,38.1003%,26.9429%,1)"/>
  <circle cx="9" cy="9" r="1" fill="srgba(6.15854%,37.7752%,68.5954%,1)"/>
  <circle cx="10" cy="9" r="1" fill="srgba(0%,39.411%,74.6654%,1)"/>
  <circle cx="11" cy="9" r="1" fill="srgba(0%,39.4446%,74.4274%,1)"/>
  <circle cx="12" cy="9" r="1" fill="srgba(0%,39.4705%,74.4717%,1)"/>
  <circle cx="13" cy="9" r="1" fill="srgba(0%,39.4003%,74.5541%,1)"/>
  <circle cx="14" cy="9" r="1" fill="srgba(0%,39.3561%,74.6395%,1)"/>
  <circle cx="15" cy="9" r="1" fill="srgba(0%,39.3484%,74.6288%,1)"/>
  <circle cx="0" cy="10" r="1" fill="srgba(1.26802%,10.4021%,65.6184%,1)"/>
  <circle cx="1" cy="10" r="1" fill="srgba(0.190738%,9.54604%,65.8457%,1)"/>
  <circle cx="2" cy="10" r="1" fill="srgba(0%,9.38735%,65.8885%,1)"/>
  <circle cx="3" cy="10" r="1" fill="srgba(0%,9.09438%,66.1509%,1)"/>
  <circle cx="4" cy="10" r="1" fill="srgba(6.81315%,14.7982%,61.03%,1)"/>
  <circle cx="5" cy="10" r="1" fill="srgba(73.9178%,66.5827%,22.3972%,1)"/>
  <circle cx="6" cy="10" r="1" fill="srgba(80.7416%,66.9322%,39.7131%,1)"/>
  <circle cx="7" cy="10" r="1" fill="srgba(86.9337%,58.6526%,30.6538%,1)"/>
  <circle cx="8" cy="10" r="1" fill="srgba(50.7988%,35.1446%,35.5718%,1)"/>
  <circle cx="9" cy="10" r="1" fill="srgba(4.02686%,38.3307%,69.8878%,1)"/>
  <circle cx="10" cy="10" r="1" fill="srgba(0%,39.6567%,74.3435%,1)"/>
  <circle cx="11" cy="10" r="1" fill="srgba(0%,39.6002%,74.1299%,1)"/>
  <circle cx="12" cy="10" r="1" fill="srgba(0%,39.6002%,74.1283%,1)"/>
  <circle cx="13" cy="10" r="1" fill="srgba(0%,39.6048%,74.1222%,1)"/>
  <circle cx="14" cy="10" r="1" fill="srgba(0,101,189,1)"/>
  <circle cx="15" cy="10" r="1" fill="srgba(0,101,189,1)"/>
  <circle cx="0" cy="11" r="1" fill="srgba(0.143435%,9.50332%,65.8579%,1)"/>
  <circle cx="1" cy="11" r="1" fill="srgba(0%,9.39956%,65.8854%,1)"/>
  <circle cx="2" cy="11" r="1" fill="srgba(0,24,168,1)"/>
  <circle cx="3" cy="11" r="1" fill="srgba(0%,9.09438%,66.1509%,1)"/>
  <circle cx="4" cy="11" r="1" fill="srgba(6.83452%,14.8257%,61.0346%,1)"/>
  <circle cx="5" cy="11" r="1" fill="srgba(73.5195%,65.98%,22.2934%,1)"/>
  <circle cx="6" cy="11" r="1" fill="srgba(81.1109%,68.6946%,38.7594%,1)"/>
  <circle cx="7" cy="11" r="1" fill="srgba(86.3645%,64.892%,32.0699%,1)"/>
  <circle cx="8" cy="11" r="1" fill="srgba(74.9371%,34.3984%,17.9828%,1)"/>
  <circle cx="9" cy="11" r="1" fill="srgba(19.5087%,34.9371%,58.5946%,1)"/>
  <circle cx="10" cy="11" r="1" fill="srgba(0%,39.8337%,74.9508%,1)"/>
  <circle cx="11" cy="11" r="1" fill="srgba(0%,39.6063%,74.1115%,1)"/>
  <circle cx="12" cy="11" r="1" fill="srgba(0,101,189,1)"/>
  <circle cx="13" cy="11" r="1" fill="srgba(0,101,189,1)"/>
  <circle cx="14" cy="11" r="1" fill="srgba(0,101,189,1)"/>
  <circle cx="15" cy="11" r="1" fill="srgba(0,101,189,1)"/>
  <circle cx="0" cy="12" r="1" fill="srgba(0%,9.40566%,65.8839%,1)"/>
  <circle cx="1" cy="12" r="1" fill="srgba(0,24,168,1)"/>
  <circle cx="2" cy="12" r="1" fill="srgba(0,24,168,1)"/>
  <circle cx="3" cy="12" r="1" fill="srgba(0%,9.09438%,66.1509%,1)"/>
  <circle cx="4" cy="12" r="1" fill="srgba(6.84367%,14.8363%,61.0437%,1)"/>
  <circle cx="5" cy="12" r="1" fill="srgba(73.3333%,65.6794%,22.1256%,1)"/>
  <circle cx="6" cy="12" r="1" fill="srgba(81.4008%,69.1997%,37.8515%,1)"/>
  <circle cx="7" cy="12" r="1" fill="srgba(79.7894%,70.0099%,44.8676%,1)"/>
  <circle cx="8" cy="12" r="1" fill="srgba(81.1444%,40.4913%,18.6404%,1)"/>
  <circle cx="9" cy="12" r="1" fill="srgba(53.3898%,27.013%,32.8283%,1)"/>
  <circle cx="10" cy="12" r="1" fill="srgba(2.4506%,38.6755%,72.6436%,1)"/>
  <circle cx="11" cy="12" r="1" fill="srgba(0%,39.6536%,74.2596%,1)"/>
  <circle cx="12" cy="12" r="1" fill="srgba(0,101,189,1)"/>
  <circle cx="13" cy="12" r="1" fill="srgba(0,101,189,1)"/>
  <circle cx="14" cy="12" r="1" fill="srgba(0,101,189,1)"/>
  <circle cx="15" cy="12" r="1" fill="srgba(0,101,189,1)"/>
  <circle cx="0" cy="13" r="1" fill="srgba(0,24,168,1)"/>
  <circle cx="1" cy="13" r="1" fill="srgba(0,24,168,1)"/>
  <circle cx="2" cy="13" r="1" fill="srgba(0,24,168,1)"/>
  <circle cx="3" cy="13" r="1" fill="srgba(0%,9.09438%,66.1509%,1)"/>
  <circle cx="4" cy="13" r="1" fill="srgba(6.82841%,14.8241%,61.0742%,1)"/>
  <circle cx="5" cy="13" r="1" fill="srgba(73.1395%,65.3986%,21.7838%,1)"/>
  <circle cx="6" cy="13" r="1" fill="srgba(81.5564%,68.7648%,36.4157%,1)"/>
  <circle cx="7" cy="13" r="1" fill="srgba(77.052%,67.4067%,46.9108%,1)"/>
  <circle cx="8" cy="13" r="1" fill="srgba(84.1627%,64.2634%,18.5412%,1)"/>
  <circle cx="9" cy="13" r="1" fill="srgba(87.6905%,60.7111%,6.83452%,1)"/>
  <circle cx="10" cy="13" r="1" fill="srgba(28.0705%,48.9372%,53.3577%,1)"/>
  <circle cx="11" cy="13" r="1" fill="srgba(0%,39.1989%,75.1278%,1)"/>
  <circle cx="12" cy="13" r="1" fill="srgba(0%,39.6139%,74.1085%,1)"/>
  <circle cx="13" cy="13" r="1" fill="srgba(0,101,189,1)"/>
  <circle cx="14" cy="13" r="1" fill="srgba(0,101,189,1)"/>
  <circle cx="15" cy="13" r="1" fill="srgba(0,101,189,1)"/>
  <circle cx="0" cy="14" r="1" fill="srgba(0,24,168,1)"/>
  <circle cx="1" cy="14" r="1" fill="srgba(0,24,168,1)"/>
  <circle cx="2" cy="14" r="1" fill="srgba(0,24,168,1)"/>
  <circle cx="3" cy="14" r="1" fill="srgba(0%,9.09438%,66.1509%,1)"/>
  <circle cx="4" cy="14" r="1" fill="srgba(6.82383%,14.8241%,61.1078%,1)"/>
  <circle cx="5" cy="14" r="1" fill="srgba(73.402%,65.6413%,21.2772%,1)"/>
  <circle cx="6" cy="14" r="1" fill="srgba(81.9104%,68.5252%,33.959%,1)"/>
  <circle cx="7" cy="14" r="1" fill="srgba(75.5566%,64.8798%,42.945%,1)"/>
  <circle cx="8" cy="14" r="1" fill="srgba(86.865%,75.9365%,16.3989%,1)"/>
  <circle cx="9" cy="14" r="1" fill="srgba(98.1979%,84.1474%,0%,1)"/>
  <circle cx="10" cy="14" r="1" fill="srgba(71.4137%,72.7138%,20.8255%,1)"/>
  <circle cx="11" cy="14" r="1" fill="srgba(5.52071%,42.2583%,70.071%,1)"/>
  <circle cx="12" cy="14" r="1" fill="srgba(0%,39.4369%,74.3954%,1)"/>
  <circle cx="13" cy="14" r="1" fill="srgba(0,101,189,1)"/>
  <circle cx="14" cy="14" r="1" fill="srgba(0,101,189,1)"/>
  <circle cx="15" cy="14" r="1" fill="srgba(0,101,189,1)"/>
  <circle cx="0" cy="15" r="1" fill="srgba(0,24,168,1)"/>
  <circle cx="1" cy="15" r="1" fill="srgba(0,24,168,1)"/>
  <circle cx="2" cy="15" r="1" fill="srgba(0,24,168,1)"/>
  <circle cx="3" cy="15" r="1" fill="srgba(0%,9.09438%,66.1509%,1)"/>
  <circle cx="4" cy="15" r="1" fill="srgba(6.81621%,14.8211%,61.149%,1)"/>
  <circle cx="5" cy="15" r="1" fill="srgba(73.872%,66.099%,20.6043%,1)"/>
  <circle cx="6" cy="15" r="1" fill="srgba(82.4933%,68.7968%,31.8532%,1)"/>
  <circle cx="7" cy="15" r="1" fill="srgba(75.2941%,64.21%,41.0086%,1)"/>
  <circle cx="8" cy="15" r="1" fill="srgba(87.0924%,75.5718%,15.7153%,1)"/>
  <circle cx="9" cy="15" r="1" fill="srgba(96.936%,82.8565%,0%,1)"/>
  <circle cx="10" cy="15" r="1" fill="srgba(95.5901%,81.7243%,2.74815%,1)"/>
  <circle cx="11" cy="15" r="1" fill="srgba(30.0252%,46.5476%,51.6899%,1)"/>
  <circle cx="12" cy="15" r="1" fill="srgba(0%,39.0646%,75.1095%,1)"/>
  <circle cx="13" cy="15" r="1" fill="srgba(0,101,189,1)"/>
  <circle cx="14" cy="15" r="1" fill="srgba(0,101,189,1)"/>
  <circle cx="15" cy="15" r="1" fill="srgba(0,101,189,1)"/>
</svg>
