<?xml version="1.0" standalone="no"?>
<!DOCTYPE svg PUBLIC "-//W3C//DTD SVG 20010904//EN"
  "http://www.w3.org/TR/2001/REC-SVG-20010904/DTD/svg10.dtd">
<svg width="16" height="16">
  <circle cx="0" cy="0" r="1" fill="red"/>
  <circle cx="1" cy="0" r="1" fill="red"/>
  <circle cx="2" cy="0" r="1" fill="red"/>
  <circle cx="3" cy="0" r="1" fill="red"/>
  <circle cx="4" cy="0" r="1" fill="red"/>
  <circle cx="5" cy="0" r="1" fill="srgba(87.9393%,5.43984%,2.22324%,1)"/>
  <circle cx="6" cy="0" r="1" fill="srgba(12.0607%,39.6582%,16.2081%,1)"/>
  <circle cx="7" cy="0" r="1" fill="srgba(0%,45.4505%,18.5748%,1)"/>
  <circle cx="8" cy="0" r="1" fill="srgba(0,115,47,1)"/>
  <circle cx="9" cy="0" r="1" fill="srgba(0,115,47,1)"/>
  <circle cx="10" cy="0" r="1" fill="srgba(0,115,47,1)"/>
  <circle cx="11" cy="0" r="1" fill="srgba(0,115,47,1)"/>
  <circle cx="12" cy="0" r="1" fill="srgba(0,115,47,1)"/>
  <circle cx="13" cy="0" r="1" fill="srgba(0,115,47,1)"/>
  <circle cx="14" cy="0" r="1" fill="srgba(0,115,47,1)"/>
  <circle cx="15" cy="0" r="1" fill="srgba(0,115,47,1)"/>
  <circle cx="0" cy="1" r="1" fill="red"/>
  <circle cx="1" cy="1" r="1" fill="red"/>
  <circle cx="2" cy="1" r="1" fill="red"/>
  <circle cx="3" cy="1" r="1" fill="red"/>
  <circle cx="4" cy="1" r="1" fill="red"/>
  <circle cx="5" cy="1" r="1" fill="srgba(87.9393%,5.43984%,2.22324%,1)"/>
  <circle cx="6" cy="1" r="1" fill="srgba(12.0607%,39.6582%,16.2081%,1)"/>
  <circle cx="7" cy="1" r="1" fill="srgba(0%,45.4505%,18.5748%,1)"/>
  <circle cx="8" cy="1" r="1" fill="srgba(0,115,47,1)"/>
  <circle cx="9" cy="1" r="1" fill="srgba(0,115,47,1)"/>
  <circle cx="10" cy="1" r="1" fill="srgba(0,115,47,1)"/>
  <circle cx="11" cy="1" r="1" fill="srgba(0,115,47,1)"/>
  <circle cx="12" cy="1" r="1" fill="srgba(0,115,47,1)"/>
  <circle cx="13" cy="1" r="1" fill="srgba(0,115,47,1)"/>
  <circle cx="14" cy="1" r="1" fill="srgba(0,115,47,1)"/>
  <circle cx="15" cy="1" r="1" fill="srgba(0,115,47,1)"/>
  <circle cx="0" cy="2" r="1" fill="red"/>
  <circle cx="1" cy="2" r="1" fill="red"/>
  <circle cx="2" cy="2" r="1" fill="red"/>
  <circle cx="3" cy="2" r="1" fill="red"/>
  <circle cx="4" cy="2" r="1" fill="red"/>
  <circle cx="5" cy="2" r="1" fill="srgba(87.9393%,5.43984%,2.22324%,1)"/>
  <circle cx="6" cy="2" r="1" fill="srgba(12.0607%,39.6582%,16.2081%,1)"/>
  <circle cx="7" cy="2" r="1" fill="srgba(0%,45.4505%,18.5748%,1)"/>
  <circle cx="8" cy="2" r="1" fill="srgba(0,115,47,1)"/>
  <circle cx="9" cy="2" r="1" fill="srgba(0,115,47,1)"/>
  <circle cx="10" cy="2" r="1" fill="srgba(0,115,47,1)"/>
  <circle cx="11" cy="2" r="1" fill="srgba(0,115,47,1)"/>
  <circle cx="12" cy="2" r="1" fill="srgba(0,115,47,1)"/>
  <circle cx="13" cy="2" r="1" fill="srgba(0,115,47,1)"/>
  <circle cx="14" cy="2" r="1" fill="srgba(0,115,47,1)"/>
  <circle cx="15" cy="2" r="1" fill="srgba(0,115,47,1)"/>
  <circle cx="0" cy="3" r="1" fill="red"/>
  <circle cx="1" cy="3" r="1" fill="red"/>
  <circle cx="2" cy="3" r="1" fill="red"/>
  <circle cx="3" cy="3" r="1" fill="red"/>
  <circle cx="4" cy="3" r="1" fill="red"/>
  <circle cx="5" cy="3" r="1" fill="srgba(87.9393%,5.43832%,2.22171%,1)"/>
  <circle cx="6" cy="3" r="1" fill="srgba(12.0607%,39.6536%,16.2005%,1)"/>
  <circle cx="7" cy="3" r="1" fill="srgba(0%,45.4444%,18.5657%,1)"/>
  <circle cx="8" cy="3" r="1" fill="srgba(0%,45.0919%,18.4222%,1)"/>
  <circle cx="9" cy="3" r="1" fill="srgba(0%,45.0919%,18.4222%,1)"/>
  <circle cx="10" cy="3" r="1" fill="srgba(0%,45.0919%,18.4222%,1)"/>
  <circle cx="11" cy="3" r="1" fill="srgba(0%,45.0919%,18.4222%,1)"/>
  <circle cx="12" cy="3" r="1" fill="srgba(0%,45.0919%,18.4222%,1)"/>
  <circle cx="13" cy="3" r="1" fill="srgba(0%,45.0919%,18.4222%,1)"/>
  <circle cx="14" cy="3" r="1" fill="srgba(0%,45.0919%,18.4222%,1)"/>
  <circle cx="15" cy="3" r="1" fill="srgba(0%,45.0919%,18.4222%,1)"/>
  <circle cx="0" cy="4" r="1" fill="red"/>
  <circle cx="1" cy="4" r="1" fill="red"/>
  <circle cx="2" cy="4" r="1" fill="red"/>
  <circle cx="3" cy="4" r="1" fill="red"/>
  <circle cx="4" cy="4" r="1" fill="red"/>
  <circle cx="5" cy="4" r="1" fill="srgba(87.9393%,5.40627%,2.17441%,1)"/>
  <circle cx="6" cy="4" r="1" fill="srgba(12.0607%,39.4202%,15.8541%,1)"/>
  <circle cx="7" cy="4" r="1" fill="srgba(0%,45.1759%,18.1689%,1)"/>
  <circle cx="8" cy="4" r="1" fill="srgba(0%,44.8264%,18.0285%,1)"/>
  <circle cx="9" cy="4" r="1" fill="srgba(0%,44.8264%,18.0285%,1)"/>
  <circle cx="10" cy="4" r="1" fill="srgba(0%,44.8264%,18.0285%,1)"/>
  <circle cx="11" cy="4" r="1" fill="srgba(0%,44.8264%,18.0285%,1)"/>
  <circle cx="12" cy="4" r="1" fill="srgba(0%,44.8264%,18.0285%,1)"/>
  <circle cx="13" cy="4" r="1" fill="srgba(0%,44.8264%,18.0285%,1)"/>
  <circle cx="14" cy="4" r="1" fill="srgba(0%,44.8264%,18.0285%,1)"/>
  <circle cx="15" cy="4" r="1" fill="srgba(0%,44.8264%,18.0285%,1)"/>
  <circle cx="0" cy="5" r="1" fill="red"/>
  <circle cx="1" cy="5" r="1" fill="red"/>
  <circle cx="2" cy="5" r="1" fill="red"/>
  <circle cx="3" cy="5" r="1" fill="red"/>
  <circle cx="4" cy="5" r="1" fill="red"/>
  <circle cx="5" cy="5" r="1" fill="srgba(95.0652%,9.35225%,8.03693%,1)"/>
  <circle cx="6" cy="5" r="1" fill="srgba(64.0238%,68.1895%,58.5931%,1)"/>
  <circle cx="7" cy="5" r="1" fill="srgba(58.7701%,78.1476%,67.1504%,1)"/>
  <circle cx="8" cy="5" r="1" fill="srgba(59.089%,77.5418%,66.63%,1)"/>
  <circle cx="9" cy="5" r="1" fill="srgba(59.089%,77.5418%,66.63%,1)"/>
  <circle cx="10" cy="5" r="1" fill="srgba(59.089%,77.5418%,66.63%,1)"/>
  <circle cx="11" cy="5" r="1" fill="srgba(59.089%,77.5418%,66.63%,1)"/>
  <circle cx="12" cy="5" r="1" fill="srgba(59.089%,77.5418%,66.63%,1)"/>
  <circle cx="13" cy="5" r="1" fill="srgba(59.089%,77.5418%,66.63%,1)"/>
  <circle cx="14" cy="5" r="1" fill="srgba(59.089%,77.5418%,66.63%,1)"/>
  <circle cx="15" cy="5" r="1" fill="srgba(59.089%,77.5418%,66.63%,1)"/>
  <circle cx="0" cy="6" r="1" fill="red"/>
  <circle cx="1" cy="6" r="1" fill="red"/>
  <circle cx="2" cy="6" r="1" fill="red"/>
  <circle cx="3" cy="6" r="1" fill="red"/>
  <circle cx="4" cy="6" r="1" fill="red"/>
  <circle cx="5" cy="6" r="1" fill="srgba(100%,12.0607%,12.0607%,1)"/>
  <circle cx="6" cy="6" r="1" fill="srgba(100%,87.9393%,87.9393%,1)"/>
  <circle cx="7" cy="6" r="1" fill="white"/>
  <circle cx="8" cy="6" r="1" fill="white"/>
  <circle cx="9" cy="6" r="1" fill="white"/>
  <circle cx="10" cy="6" r="1" fill="white"/>
  <circle cx="11" cy="6" r="1" fill="white"/>
  <circle cx="12" cy="6" r="1" fill="white"/>
  <circle cx="13" cy="6" r="1" fill="white"/>
  <circle cx="14" cy="6" r="1" fill="white"/>
  <circle cx="15" cy="6" r="1" fill="white"/>
  <circle cx="0" cy="7" r="1" fill="red"/>
  <circle cx="1" cy="7" r="1" fill="red"/>
  <circle cx="2" cy="7" r="1" fill="red"/>
  <circle cx="3" cy="7" r="1" fill="red"/>
  <circle cx="4" cy="7" r="1" fill="red"/>
  <circle cx="5" cy="7" r="1" fill="srgba(100%,12.0607%,12.0607%,1)"/>
  <circle cx="6" cy="7" r="1" fill="srgba(100%,87.9393%,87.9393%,1)"/>
  <circle cx="7" cy="7" r="1" fill="white"/>
  <circle cx="8" cy="7" r="1" fill="white"/>
  <circle cx="9" cy="7" r="1" fill="white"/>
  <circle cx="10" cy="7" r="1" fill="white"/>
  <circle cx="11" cy="7" r="1" fill="white"/>
  <circle cx="12" cy="7" r="1" fill="white"/>
  <circle cx="13" cy="7" r="1" fill="white"/>
  <circle cx="14" cy="7" r="1" fill="white"/>
  <circle cx="15" cy="7" r="1" fill="white"/>
  <circle cx="0" cy="8" r="1" fill="red"/>
  <circle cx="1" cy="8" r="1" fill="red"/>
  <circle cx="2" cy="8" r="1" fill="red"/>
  <circle cx="3" cy="8" r="1" fill="red"/>
  <circle cx="4" cy="8" r="1" fill="red"/>
  <circle cx="5" cy="8" r="1" fill="srgba(100%,12.0607%,12.0607%,1)"/>
  <circle cx="6" cy="8" r="1" fill="srgba(100%,87.9393%,87.9393%,1)"/>
  <circle cx="7" cy="8" r="1" fill="white"/>
  <circle cx="8" cy="8" r="1" fill="white"/>
  <circle cx="9" cy="8" r="1" fill="white"/>
  <circle cx="10" cy="8" r="1" fill="white"/>
  <circle cx="11" cy="8" r="1" fill="white"/>
  <circle cx="12" cy="8" r="1" fill="white"/>
  <circle cx="13" cy="8" r="1" fill="white"/>
  <circle cx="14" cy="8" r="1" fill="white"/>
  <circle cx="15" cy="8" r="1" fill="white"/>
  <circle cx="0" cy="9" r="1" fill="red"/>
  <circle cx="1" cy="9" r="1" fill="red"/>
  <circle cx="2" cy="9" r="1" fill="red"/>
  <circle cx="3" cy="9" r="1" fill="red"/>
  <circle cx="4" cy="9" r="1" fill="red"/>
  <circle cx="5" cy="9" r="1" fill="srgba(100%,12.0607%,12.0607%,1)"/>
  <circle cx="6" cy="9" r="1" fill="srgba(100%,87.9393%,87.9393%,1)"/>
  <circle cx="7" cy="9" r="1" fill="white"/>
  <circle cx="8" cy="9" r="1" fill="white"/>
  <circle cx="9" cy="9" r="1" fill="white"/>
  <circle cx="10" cy="9" r="1" fill="white"/>
  <circle cx="11" cy="9" r="1" fill="white"/>
  <circle cx="12" cy="9" r="1" fill="white"/>
  <circle cx="13" cy="9" r="1" fill="white"/>
  <circle cx="14" cy="9" r="1" fill="white"/>
  <circle cx="15" cy="9" r="1" fill="white"/>
  <circle cx="0" cy="10" r="1" fill="red"/>
  <circle cx="1" cy="10" r="1" fill="red"/>
  <circle cx="2" cy="10" r="1" fill="red"/>
  <circle cx="3" cy="10" r="1" fill="red"/>
  <circle cx="4" cy="10" r="1" fill="red"/>
  <circle cx="5" cy="10" r="1" fill="srgba(96.0403%,8.10101%,8.10101%,1)"/>
  <circle cx="6" cy="10" r="1" fill="srgba(71.1254%,59.0646%,59.0646%,1)"/>
  <circle cx="7" cy="10" r="1" fill="srgba(66.9093%,67.6905%,67.6905%,1)"/>
  <circle cx="8" cy="10" r="1" fill="srgba(67.1656%,67.1656%,67.1656%,1)"/>
  <circle cx="9" cy="10" r="1" fill="srgba(67.1656%,67.1656%,67.1656%,1)"/>
  <circle cx="10" cy="10" r="1" fill="srgba(67.1656%,67.1656%,67.1656%,1)"/>
  <circle cx="11" cy="10" r="1" fill="srgba(67.1656%,67.1656%,67.1656%,1)"/>
  <circle cx="12" cy="10" r="1" fill="srgba(67.1656%,67.1656%,67.1656%,1)"/>
  <circle cx="13" cy="10" r="1" fill="srgba(67.1656%,67.1656%,67.1656%,1)"/>
  <circle cx="14" cy="10" r="1" fill="srgba(67.1656%,67.1656%,67.1656%,1)"/>
  <circle cx="15" cy="10" r="1" fill="srgba(67.1656%,67.1656%,67.1656%,1)"/>
  <circle cx="0" cy="11" r="1" fill="red"/>
  <circle cx="1" cy="11" r="1" fill="red"/>
  <circle cx="2" cy="11" r="1" fill="red"/>
  <circle cx="3" cy="11" r="1" fill="red"/>
  <circle cx="4" cy="11" r="1" fill="red"/>
  <circle cx="5" cy="11" r="1" fill="srgba(88.0659%,0.12665%,0.12665%,1)"/>
  <circle cx="6" cy="11" r="1" fill="srgba(12.987%,0.926223%,0.926223%,1)"/>
  <circle cx="7" cy="11" r="1" fill="srgba(0.280766%,1.0605%,1.0605%,1)"/>
  <circle cx="8" cy="11" r="1" fill="srgba(1.05287%,1.05287%,1.05287%,1)"/>
  <circle cx="9" cy="11" r="1" fill="srgba(1.05287%,1.05287%,1.05287%,1)"/>
  <circle cx="10" cy="11" r="1" fill="srgba(1.05287%,1.05287%,1.05287%,1)"/>
  <circle cx="11" cy="11" r="1" fill="srgba(1.05287%,1.05287%,1.05287%,1)"/>
  <circle cx="12" cy="11" r="1" fill="srgba(1.05287%,1.05287%,1.05287%,1)"/>
  <circle cx="13" cy="11" r="1" fill="srgba(1.05287%,1.05287%,1.05287%,1)"/>
  <circle cx="14" cy="11" r="1" fill="srgba(1.05287%,1.05287%,1.05287%,1)"/>
  <circle cx="15" cy="11" r="1" fill="srgba(1.05287%,1.05287%,1.05287%,1)"/>
  <circle cx="0" cy="12" r="1" fill="red"/>
  <circle cx="1" cy="12" r="1" fill="red"/>
  <circle cx="2" cy="12" r="1" fill="red"/>
  <circle cx="3" cy="12" r="1" fill="red"/>
  <circle cx="4" cy="12" r="1" fill="red"/>
  <circle cx="5" cy="12" r="1" fill="srgba(87.9393%,0%,0%,1)"/>
  <circle cx="6" cy="12" r="1" fill="srgba(12.0607%,0%,0%,1)"/>
  <circle cx="7" cy="12" r="1" fill="black"/>
  <circle cx="8" cy="12" r="1" fill="black"/>
  <circle cx="9" cy="12" r="1" fill="black"/>
  <circle cx="10" cy="12" r="1" fill="black"/>
  <circle cx="11" cy="12" r="1" fill="black"/>
  <circle cx="12" cy="12" r="1" fill="black"/>
  <circle cx="13" cy="12" r="1" fill="black"/>
  <circle cx="14" cy="12" r="1" fill="black"/>
  <circle cx="15" cy="12" r="1" fill="black"/>
  <circle cx="0" cy="13" r="1" fill="red"/>
  <circle cx="1" cy="13" r="1" fill="red"/>
  <circle cx="2" cy="13" r="1" fill="red"/>
  <circle cx="3" cy="13" r="1" fill="red"/>
  <circle cx="4" cy="13" r="1" fill="red"/>
  <circle cx="5" cy="13" r="1" fill="srgba(87.9393%,0%,0%,1)"/>
  <circle cx="6" cy="13" r="1" fill="srgba(12.0607%,0%,0%,1)"/>
  <circle cx="7" cy="13" r="1" fill="black"/>
  <circle cx="8" cy="13" r="1" fill="black"/>
  <circle cx="9" cy="13" r="1" fill="black"/>
  <circle cx="10" cy="13" r="1" fill="black"/>
  <circle cx="11" cy="13" r="1" fill="black"/>
  <circle cx="12" cy="13" r="1" fill="black"/>
  <circle cx="13" cy="13" r="1" fill="black"/>
  <circle cx="14" cy="13" r="1" fill="black"/>
  <circle cx="15" cy="13" r="1" fill="black"/>
  <circle cx="0" cy="14" r="1" fill="red"/>
  <circle cx="1" cy="14" r="1" fill="red"/>
  <circle cx="2" cy="14" r="1" fill="red"/>
  <circle cx="3" cy="14" r="1" fill="red"/>
  <circle cx="4" cy="14" r="1" fill="red"/>
  <circle cx="5" cy="14" r="1" fill="srgba(87.9393%,0%,0%,1)"/>
  <circle cx="6" cy="14" r="1" fill="srgba(12.0607%,0%,0%,1)"/>
  <circle cx="7" cy="14" r="1" fill="black"/>
  <circle cx="8" cy="14" r="1" fill="black"/>
  <circle cx="9" cy="14" r="1" fill="black"/>
  <circle cx="10" cy="14" r="1" fill="black"/>
  <circle cx="11" cy="14" r="1" fill="black"/>
  <circle cx="12" cy="14" r="1" fill="black"/>
  <circle cx="13" cy="14" r="1" fill="black"/>
  <circle cx="14" cy="14" r="1" fill="black"/>
  <circle cx="15" cy="14" r="1" fill="black"/>
  <circle cx="0" cy="15" r="1" fill="red"/>
  <circle cx="1" cy="15" r="1" fill="red"/>
  <circle cx="2" cy="15" r="1" fill="red"/>
  <circle cx="3" cy="15" r="1" fill="red"/>
  <circle cx="4" cy="15" r="1" fill="red"/>
  <circle cx="5" cy="15" r="1" fill="srgba(87.9393%,0%,0%,1)"/>
  <circle cx="6" cy="15" r="1" fill="srgba(12.0607%,0%,0%,1)"/>
  <circle cx="7" cy="15" r="1" fill="black"/>
  <circle cx="8" cy="15" r="1" fill="black"/>
  <circle cx="9" cy="15" r="1" fill="black"/>
  <circle cx="10" cy="15" r="1" fill="black"/>
  <circle cx="11" cy="15" r="1" fill="black"/>
  <circle cx="12" cy="15" r="1" fill="black"/>
  <circle cx="13" cy="15" r="1" fill="black"/>
  <circle cx="14" cy="15" r="1" fill="black"/>
  <circle cx="15" cy="15" r="1" fill="black"/>
</svg>
