<?xml version="1.0" standalone="no"?>
<!DOCTYPE svg PUBLIC "-//W3C//DTD SVG 20010904//EN"
  "http://www.w3.org/TR/2001/REC-SVG-20010904/DTD/svg10.dtd">
<svg width="16" height="16">
  <circle cx="0" cy="0" r="1" fill="black"/>
  <circle cx="1" cy="0" r="1" fill="black"/>
  <circle cx="2" cy="0" r="1" fill="black"/>
  <circle cx="3" cy="0" r="1" fill="black"/>
  <circle cx="4" cy="0" r="1" fill="srgba(0.332647%,0%,0%,1)"/>
  <circle cx="5" cy="0" r="1" fill="srgba(48.3238%,0%,0%,1)"/>
  <circle cx="6" cy="0" r="1" fill="srgba(76.2051%,0%,0%,1)"/>
  <circle cx="7" cy="0" r="1" fill="srgba(191,0,0,1)"/>
  <circle cx="8" cy="0" r="1" fill="srgba(191,0,0,1)"/>
  <circle cx="9" cy="0" r="1" fill="srgba(76.2051%,0%,0%,1)"/>
  <circle cx="10" cy="0" r="1" fill="srgba(48.3436%,20.9369%,0%,1)"/>
  <circle cx="11" cy="0" r="1" fill="srgba(0.337224%,59.6567%,0%,1)"/>
  <circle cx="12" cy="0" r="1" fill="srgba(0%,60.0305%,0%,1)"/>
  <circle cx="13" cy="0" r="1" fill="srgba(0,153,0,1)"/>
  <circle cx="14" cy="0" r="1" fill="srgba(0,153,0,1)"/>
  <circle cx="15" cy="0" r="1" fill="srgba(0,153,0,1)"/>
  <circle cx="0" cy="1" r="1" fill="black"/>
  <circle cx="1" cy="1" r="1" fill="black"/>
  <circle cx="2" cy="1" r="1" fill="black"/>
  <circle cx="3" cy="1" r="1" fill="black"/>
  <circle cx="4" cy="1" r="1" fill="srgba(0.332647%,0%,0%,1)"/>
  <circle cx="5" cy="1" r="1" fill="srgba(48.3238%,0%,0%,1)"/>
  <circle cx="6" cy="1" r="1" fill="srgba(76.2051%,0%,0%,1)"/>
  <circle cx="7" cy="1" r="1" fill="srgba(191,0,0,1)"/>
  <circle cx="8" cy="1" r="1" fill="srgba(191,0,0,1)"/>
  <circle cx="9" cy="1" r="1" fill="srgba(76.2051%,0%,0%,1)"/>
  <circle cx="10" cy="1" r="1" fill="srgba(48.3436%,20.9369%,0%,1)"/>
  <circle cx="11" cy="1" r="1" fill="srgba(0.337224%,59.6567%,0%,1)"/>
  <circle cx="12" cy="1" r="1" fill="srgba(0%,60.0305%,0%,1)"/>
  <circle cx="13" cy="1" r="1" fill="srgba(0,153,0,1)"/>
  <circle cx="14" cy="1" r="1" fill="srgba(0,153,0,1)"/>
  <circle cx="15" cy="1" r="1" fill="srgba(0,153,0,1)"/>
  <circle cx="0" cy="2" r="1" fill="black"/>
  <circle cx="1" cy="2" r="1" fill="black"/>
  <circle cx="2" cy="2" r="1" fill="black"/>
  <circle cx="3" cy="2" r="1" fill="black"/>
  <circle cx="4" cy="2" r="1" fill="srgba(0.332647%,0%,0%,1)"/>
  <circle cx="5" cy="2" r="1" fill="srgba(48.3345%,0%,0%,1)"/>
  <circle cx="6" cy="2" r="1" fill="srgba(76.2631%,0%,0%,1)"/>
  <circle cx="7" cy="2" r="1" fill="srgba(74.7539%,0%,0%,1)"/>
  <circle cx="8" cy="2" r="1" fill="srgba(74.6593%,0%,0%,1)"/>
  <circle cx="9" cy="2" r="1" fill="srgba(76.0876%,0%,0%,1)"/>
  <circle cx="10" cy="2" r="1" fill="srgba(48.2811%,20.8728%,0%,1)"/>
  <circle cx="11" cy="2" r="1" fill="srgba(0.332647%,59.6139%,0%,1)"/>
  <circle cx="12" cy="2" r="1" fill="srgba(0%,60.032%,0%,1)"/>
  <circle cx="13" cy="2" r="1" fill="srgba(0.00915541%,60.061%,0.00915541%,1)"/>
  <circle cx="14" cy="2" r="1" fill="srgba(0.0396735%,60.0931%,0.0396735%,1)"/>
  <circle cx="15" cy="2" r="1" fill="srgba(0.0183108%,60.0824%,0.0183108%,1)"/>
  <circle cx="0" cy="3" r="1" fill="black"/>
  <circle cx="1" cy="3" r="1" fill="black"/>
  <circle cx="2" cy="3" r="1" fill="black"/>
  <circle cx="3" cy="3" r="1" fill="black"/>
  <circle cx="4" cy="3" r="1" fill="srgba(0.335698%,0%,0%,1)"/>
  <circle cx="5" cy="3" r="1" fill="srgba(48.0812%,1.68002%,1.68002%,1)"/>
  <circle cx="6" cy="3" r="1" fill="srgba(74.7967%,7.34417%,7.34417%,1)"/>
  <circle cx="7" cy="3" r="1" fill="srgba(74.3542%,17.3999%,17.3999%,1)"/>
  <circle cx="8" cy="3" r="1" fill="srgba(75.8953%,23.035%,23.035%,1)"/>
  <circle cx="9" cy="3" r="1" fill="srgba(75.8328%,26.0761%,26.7567%,1)"/>
  <circle cx="10" cy="3" r="1" fill="srgba(56.4614%,37.8271%,24.2817%,1)"/>
  <circle cx="11" cy="3" r="1" fill="srgba(18.294%,61.7456%,18.1079%,1)"/>
  <circle cx="12" cy="3" r="1" fill="srgba(14.8531%,61.7456%,14.8745%,1)"/>
  <circle cx="13" cy="3" r="1" fill="srgba(12.8588%,60.5798%,12.8588%,1)"/>
  <circle cx="14" cy="3" r="1" fill="srgba(10.692%,59.6811%,10.692%,1)"/>
  <circle cx="15" cy="3" r="1" fill="srgba(9.94583%,59.4339%,9.94583%,1)"/>
  <circle cx="0" cy="4" r="1" fill="srgba(3.24407%,3.24407%,3.24407%,1)"/>
  <circle cx="1" cy="4" r="1" fill="black"/>
  <circle cx="2" cy="4" r="1" fill="black"/>
  <circle cx="3" cy="4" r="1" fill="black"/>
  <circle cx="4" cy="4" r="1" fill="srgba(1.49081%,0.759899%,0.759899%,1)"/>
  <circle cx="5" cy="4" r="1" fill="srgba(51.1604%,31.2886%,31.2886%,1)"/>
  <circle cx="6" cy="4" r="1" fill="srgba(83.8254%,66.006%,66.006%,1)"/>
  <circle cx="7" cy="4" r="1" fill="srgba(88.2216%,78.7976%,78.7976%,1)"/>
  <circle cx="8" cy="4" r="1" fill="srgba(88.8396%,76.6522%,76.6522%,1)"/>
  <circle cx="9" cy="4" r="1" fill="srgba(89.1081%,81.3413%,81.4542%,1)"/>
  <circle cx="10" cy="4" r="1" fill="srgba(84.9409%,81.7182%,79.7604%,1)"/>
  <circle cx="11" cy="4" r="1" fill="srgba(74.4594%,84.9622%,74.5296%,1)"/>
  <circle cx="12" cy="4" r="1" fill="srgba(71.2703%,83.6957%,71.2718%,1)"/>
  <circle cx="13" cy="4" r="1" fill="srgba(67.6661%,81.0636%,67.6661%,1)"/>
  <circle cx="14" cy="4" r="1" fill="srgba(67.2816%,81.3443%,67.2816%,1)"/>
  <circle cx="15" cy="4" r="1" fill="srgba(69.5079%,82.3728%,69.5079%,1)"/>
  <circle cx="0" cy="5" r="1" fill="srgba(67.6387%,67.6387%,67.6387%,1)"/>
  <circle cx="1" cy="5" r="1" fill="srgba(34.8348%,34.8348%,34.8348%,1)"/>
  <circle cx="2" cy="5" r="1" fill="srgba(9.27749%,9.27749%,9.27749%,1)"/>
  <circle cx="3" cy="5" r="1" fill="srgba(4.7776%,4.77913%,4.77913%,1)"/>
  <circle cx="4" cy="5" r="1" fill="srgba(31.8151%,31.725%,31.725%,1)"/>
  <circle cx="5" cy="5" r="1" fill="srgba(71.9615%,70.8095%,70.8095%,1)"/>
  <circle cx="6" cy="5" r="1" fill="srgba(93.257%,93.1487%,93.1487%,1)"/>
  <circle cx="7" cy="5" r="1" fill="srgba(95.7443%,95.9152%,95.9152%,1)"/>
  <circle cx="8" cy="5" r="1" fill="srgba(98.0819%,97.409%,97.409%,1)"/>
  <circle cx="9" cy="5" r="1" fill="srgba(98.5657%,98.2696%,98.2635%,1)"/>
  <circle cx="10" cy="5" r="1" fill="srgba(94.6548%,94.8119%,94.9279%,1)"/>
  <circle cx="11" cy="5" r="1" fill="srgba(98.4634%,97.9171%,98.4665%,1)"/>
  <circle cx="12" cy="5" r="1" fill="srgba(99.1348%,98.4817%,99.1348%,1)"/>
  <circle cx="13" cy="5" r="1" fill="srgba(99.4003%,98.7167%,99.4003%,1)"/>
  <circle cx="14" cy="5" r="1" fill="srgba(99.968%,99.7391%,99.968%,1)"/>
  <circle cx="15" cy="5" r="1" fill="white"/>
  <circle cx="0" cy="6" r="1" fill="srgba(98.8373%,98.8373%,98.8373%,1)"/>
  <circle cx="1" cy="6" r="1" fill="srgba(95.5612%,95.5612%,95.5612%,1)"/>
  <circle cx="2" cy="6" r="1" fill="srgba(83.4058%,83.4058%,83.4058%,1)"/>
  <circle cx="3" cy="6" r="1" fill="srgba(75.938%,75.938%,75.938%,1)"/>
  <circle cx="4" cy="6" r="1" fill="srgba(84.0986%,84.0955%,84.0955%,1)"/>
  <circle cx="5" cy="6" r="1" fill="srgba(84.448%,84.3656%,84.3656%,1)"/>
  <circle cx="6" cy="6" r="1" fill="srgba(95.3628%,95.3185%,95.3185%,1)"/>
  <circle cx="7" cy="6" r="1" fill="srgba(96.6384%,96.6339%,96.6339%,1)"/>
  <circle cx="8" cy="6" r="1" fill="srgba(99.6521%,99.5209%,99.5209%,1)"/>
  <circle cx="9" cy="6" r="1" fill="srgba(98.8754%,98.8067%,98.8067%,1)"/>
  <circle cx="10" cy="6" r="1" fill="srgba(97.8744%,97.879%,97.879%,1)"/>
  <circle cx="11" cy="6" r="1" fill="white"/>
  <circle cx="12" cy="6" r="1" fill="white"/>
  <circle cx="13" cy="6" r="1" fill="white"/>
  <circle cx="14" cy="6" r="1" fill="white"/>
  <circle cx="15" cy="6" r="1" fill="white"/>
  <circle cx="0" cy="7" r="1" fill="white"/>
  <circle cx="1" cy="7" r="1" fill="white"/>
  <circle cx="2" cy="7" r="1" fill="white"/>
  <circle cx="3" cy="7" r="1" fill="white"/>
  <circle cx="4" cy="7" r="1" fill="srgba(99.2935%,99.2935%,99.2935%,1)"/>
  <circle cx="5" cy="7" r="1" fill="srgba(89.9474%,89.9519%,89.9519%,1)"/>
  <circle cx="6" cy="7" r="1" fill="srgba(96.8414%,96.8429%,96.8429%,1)"/>
  <circle cx="7" cy="7" r="1" fill="srgba(98.0774%,98.0774%,98.0774%,1)"/>
  <circle cx="8" cy="7" r="1" fill="white"/>
  <circle cx="9" cy="7" r="1" fill="srgba(99.0005%,99.0005%,99.0005%,1)"/>
  <circle cx="10" cy="7" r="1" fill="srgba(97.7829%,97.7829%,97.7829%,1)"/>
  <circle cx="11" cy="7" r="1" fill="white"/>
  <circle cx="12" cy="7" r="1" fill="white"/>
  <circle cx="13" cy="7" r="1" fill="white"/>
  <circle cx="14" cy="7" r="1" fill="white"/>
  <circle cx="15" cy="7" r="1" fill="white"/>
  <circle cx="0" cy="8" r="1" fill="white"/>
  <circle cx="1" cy="8" r="1" fill="white"/>
  <circle cx="2" cy="8" r="1" fill="white"/>
  <circle cx="3" cy="8" r="1" fill="white"/>
  <circle cx="4" cy="8" r="1" fill="srgba(99.1867%,99.1867%,99.1867%,1)"/>
  <circle cx="5" cy="8" r="1" fill="srgba(91.4229%,91.4229%,91.4229%,1)"/>
  <circle cx="6" cy="8" r="1" fill="srgba(249,249,249,1)"/>
  <circle cx="7" cy="8" r="1" fill="srgba(97.8393%,97.8393%,97.8393%,1)"/>
  <circle cx="8" cy="8" r="1" fill="white"/>
  <circle cx="9" cy="8" r="1" fill="srgba(98.9395%,98.9395%,98.9395%,1)"/>
  <circle cx="10" cy="8" r="1" fill="srgba(97.5998%,97.5998%,97.5998%,1)"/>
  <circle cx="11" cy="8" r="1" fill="white"/>
  <circle cx="12" cy="8" r="1" fill="white"/>
  <circle cx="13" cy="8" r="1" fill="white"/>
  <circle cx="14" cy="8" r="1" fill="white"/>
  <circle cx="15" cy="8" r="1" fill="white"/>
  <circle cx="0" cy="9" r="1" fill="white"/>
  <circle cx="1" cy="9" r="1" fill="white"/>
  <circle cx="2" cy="9" r="1" fill="white"/>
  <circle cx="3" cy="9" r="1" fill="white"/>
  <circle cx="4" cy="9" r="1" fill="srgba(99.0082%,99.0082%,99.0082%,1)"/>
  <circle cx="5" cy="9" r="1" fill="srgba(92.5063%,92.5063%,92.5063%,1)"/>
  <circle cx="6" cy="9" r="1" fill="srgba(99.2477%,99.2477%,99.2477%,1)"/>
  <circle cx="7" cy="9" r="1" fill="srgba(99.9023%,99.9023%,99.9023%,1)"/>
  <circle cx="8" cy="9" r="1" fill="white"/>
  <circle cx="9" cy="9" r="1" fill="srgba(99.0631%,99.0631%,99.0631%,1)"/>
  <circle cx="10" cy="9" r="1" fill="srgba(97.8088%,97.8088%,97.8088%,1)"/>
  <circle cx="11" cy="9" r="1" fill="white"/>
  <circle cx="12" cy="9" r="1" fill="white"/>
  <circle cx="13" cy="9" r="1" fill="white"/>
  <circle cx="14" cy="9" r="1" fill="white"/>
  <circle cx="15" cy="9" r="1" fill="white"/>
  <circle cx="0" cy="10" r="1" fill="white"/>
  <circle cx="1" cy="10" r="1" fill="white"/>
  <circle cx="2" cy="10" r="1" fill="white"/>
  <circle cx="3" cy="10" r="1" fill="white"/>
  <circle cx="4" cy="10" r="1" fill="srgba(98.9151%,98.9151%,98.9151%,1)"/>
  <circle cx="5" cy="10" r="1" fill="srgba(91.986%,91.986%,91.986%,1)"/>
  <circle cx="6" cy="10" r="1" fill="srgba(95.0927%,95.0927%,95.0927%,1)"/>
  <circle cx="7" cy="10" r="1" fill="srgba(96.7895%,96.7895%,96.7895%,1)"/>
  <circle cx="8" cy="10" r="1" fill="srgba(99.0402%,99.0402%,99.0402%,1)"/>
  <circle cx="9" cy="10" r="1" fill="srgba(98.8693%,98.8693%,98.8693%,1)"/>
  <circle cx="10" cy="10" r="1" fill="srgba(97.8241%,97.8241%,97.8241%,1)"/>
  <circle cx="11" cy="10" r="1" fill="white"/>
  <circle cx="12" cy="10" r="1" fill="srgba(99.6536%,99.6536%,99.6536%,1)"/>
  <circle cx="13" cy="10" r="1" fill="srgba(99.321%,99.321%,99.321%,1)"/>
  <circle cx="14" cy="10" r="1" fill="srgba(99.321%,99.321%,99.321%,1)"/>
  <circle cx="15" cy="10" r="1" fill="white"/>
  <circle cx="0" cy="11" r="1" fill="white"/>
  <circle cx="1" cy="11" r="1" fill="white"/>
  <circle cx="2" cy="11" r="1" fill="white"/>
  <circle cx="3" cy="11" r="1" fill="white"/>
  <circle cx="4" cy="11" r="1" fill="srgba(98.8266%,98.8266%,98.8266%,1)"/>
  <circle cx="5" cy="11" r="1" fill="srgba(91.2215%,91.2215%,91.2215%,1)"/>
  <circle cx="6" cy="11" r="1" fill="srgba(90.3593%,90.3593%,90.3593%,1)"/>
  <circle cx="7" cy="11" r="1" fill="srgba(92.3217%,92.3217%,92.3217%,1)"/>
  <circle cx="8" cy="11" r="1" fill="srgba(94.1863%,94.1863%,94.1863%,1)"/>
  <circle cx="9" cy="11" r="1" fill="srgba(98.2757%,98.2757%,98.2757%,1)"/>
  <circle cx="10" cy="11" r="1" fill="srgba(97.6806%,97.6806%,97.6806%,1)"/>
  <circle cx="11" cy="11" r="1" fill="white"/>
  <circle cx="12" cy="11" r="1" fill="srgba(92.311%,92.311%,92.311%,1)"/>
  <circle cx="13" cy="11" r="1" fill="srgba(85.5192%,85.5192%,85.5192%,1)"/>
  <circle cx="14" cy="11" r="1" fill="srgba(87.8904%,87.8904%,87.8904%,1)"/>
  <circle cx="15" cy="11" r="1" fill="srgba(89.4087%,89.4087%,89.4087%,1)"/>
  <circle cx="0" cy="12" r="1" fill="white"/>
  <circle cx="1" cy="12" r="1" fill="white"/>
  <circle cx="2" cy="12" r="1" fill="white"/>
  <circle cx="3" cy="12" r="1" fill="white"/>
  <circle cx="4" cy="12" r="1" fill="srgba(98.6572%,98.6572%,98.6572%,1)"/>
  <circle cx="5" cy="12" r="1" fill="srgba(90.8217%,90.8217%,90.8217%,1)"/>
  <circle cx="6" cy="12" r="1" fill="srgba(77.2961%,77.2961%,77.2961%,1)"/>
  <circle cx="7" cy="12" r="1" fill="srgba(78.6664%,78.6664%,78.6664%,1)"/>
  <circle cx="8" cy="12" r="1" fill="srgba(86.63%,86.63%,86.63%,1)"/>
  <circle cx="9" cy="12" r="1" fill="srgba(98.2391%,98.2391%,98.2391%,1)"/>
  <circle cx="10" cy="12" r="1" fill="srgba(99.0433%,99.0433%,99.0433%,1)"/>
  <circle cx="11" cy="12" r="1" fill="white"/>
  <circle cx="12" cy="12" r="1" fill="srgba(77.1817%,77.1817%,77.1817%,1)"/>
  <circle cx="13" cy="12" r="1" fill="srgba(23.1281%,23.1281%,23.1281%,1)"/>
  <circle cx="14" cy="12" r="1" fill="srgba(22.9404%,22.9404%,22.9404%,1)"/>
  <circle cx="15" cy="12" r="1" fill="srgba(20.5005%,20.5005%,20.5005%,1)"/>
  <circle cx="0" cy="13" r="1" fill="white"/>
  <circle cx="1" cy="13" r="1" fill="white"/>
  <circle cx="2" cy="13" r="1" fill="white"/>
  <circle cx="3" cy="13" r="1" fill="white"/>
  <circle cx="4" cy="13" r="1" fill="srgba(99.0051%,99.0051%,99.0051%,1)"/>
  <circle cx="5" cy="13" r="1" fill="srgba(91.1269%,91.1269%,91.1269%,1)"/>
  <circle cx="6" cy="13" r="1" fill="srgba(72.5063%,72.5063%,72.5063%,1)"/>
  <circle cx="7" cy="13" r="1" fill="srgba(62.7329%,62.7329%,62.7329%,1)"/>
  <circle cx="8" cy="13" r="1" fill="srgba(99.202%,99.202%,99.202%,1)"/>
  <circle cx="9" cy="13" r="1" fill="srgba(99.0784%,99.0784%,99.0784%,1)"/>
  <circle cx="10" cy="13" r="1" fill="srgba(99.1241%,99.1241%,99.1241%,1)"/>
  <circle cx="11" cy="13" r="1" fill="white"/>
  <circle cx="12" cy="13" r="1" fill="srgba(71.4763%,71.4763%,71.4763%,1)"/>
  <circle cx="13" cy="13" r="1" fill="srgba(4.77607%,4.77607%,4.77607%,1)"/>
  <circle cx="14" cy="13" r="1" fill="srgba(2.03708%,2.03708%,2.03708%,1)"/>
  <circle cx="15" cy="13" r="1" fill="srgba(1.42367%,1.42367%,1.42367%,1)"/>
  <circle cx="0" cy="14" r="1" fill="white"/>
  <circle cx="1" cy="14" r="1" fill="white"/>
  <circle cx="2" cy="14" r="1" fill="white"/>
  <circle cx="3" cy="14" r="1" fill="white"/>
  <circle cx="4" cy="14" r="1" fill="srgba(99.3591%,99.3591%,99.3591%,1)"/>
  <circle cx="5" cy="14" r="1" fill="srgba(91.4092%,91.4092%,91.4092%,1)"/>
  <circle cx="6" cy="14" r="1" fill="srgba(82.3026%,82.3026%,82.3026%,1)"/>
  <circle cx="7" cy="14" r="1" fill="srgba(57.3297%,57.3297%,57.3297%,1)"/>
  <circle cx="8" cy="14" r="1" fill="srgba(90.6844%,90.6844%,90.6844%,1)"/>
  <circle cx="9" cy="14" r="1" fill="srgba(93.8094%,93.8094%,93.8094%,1)"/>
  <circle cx="10" cy="14" r="1" fill="srgba(94.7066%,94.7066%,94.7066%,1)"/>
  <circle cx="11" cy="14" r="1" fill="srgba(95.3994%,95.3994%,95.3994%,1)"/>
  <circle cx="12" cy="14" r="1" fill="srgba(80.4715%,80.4715%,80.4715%,1)"/>
  <circle cx="13" cy="14" r="1" fill="srgba(19.4369%,19.4369%,19.4369%,1)"/>
  <circle cx="14" cy="14" r="1" fill="srgba(7.13207%,7.13207%,7.13207%,1)"/>
  <circle cx="15" cy="14" r="1" fill="srgba(7.17327%,7.17327%,7.17327%,1)"/>
  <circle cx="0" cy="15" r="1" fill="white"/>
  <circle cx="1" cy="15" r="1" fill="white"/>
  <circle cx="2" cy="15" r="1" fill="white"/>
  <circle cx="3" cy="15" r="1" fill="white"/>
  <circle cx="4" cy="15" r="1" fill="srgba(99.7162%,99.7162%,99.7162%,1)"/>
  <circle cx="5" cy="15" r="1" fill="srgba(94.0261%,94.0261%,94.0261%,1)"/>
  <circle cx="6" cy="15" r="1" fill="srgba(90.0633%,90.0633%,90.0633%,1)"/>
  <circle cx="7" cy="15" r="1" fill="srgba(67.4815%,67.4815%,67.4815%,1)"/>
  <circle cx="8" cy="15" r="1" fill="srgba(93.9635%,93.9635%,93.9635%,1)"/>
  <circle cx="9" cy="15" r="1" fill="srgba(98.5657%,98.5657%,98.5657%,1)"/>
  <circle cx="10" cy="15" r="1" fill="srgba(98.8342%,98.8342%,98.8342%,1)"/>
  <circle cx="11" cy="15" r="1" fill="srgba(99.9008%,99.9008%,99.9008%,1)"/>
  <circle cx="12" cy="15" r="1" fill="srgba(99.2554%,99.2554%,99.2554%,1)"/>
  <circle cx="13" cy="15" r="1" fill="srgba(72.6329%,72.6329%,72.6329%,1)"/>
  <circle cx="14" cy="15" r="1" fill="srgba(43.3753%,43.3753%,43.3753%,1)"/>
  <circle cx="15" cy="15" r="1" fill="srgba(34.3572%,34.3572%,34.3572%,1)"/>
</svg>
