<?xml version="1.0" standalone="no"?>
<!DOCTYPE svg PUBLIC "-//W3C//DTD SVG 20010904//EN"
  "http://www.w3.org/TR/2001/REC-SVG-20010904/DTD/svg10.dtd">
<svg width="16" height="16">
  <circle cx="0" cy="0" r="1" fill="srgba(1.178%,1.178%,1.178%,1)"/>
  <circle cx="1" cy="0" r="1" fill="srgba(1.178%,1.178%,1.178%,1)"/>
  <circle cx="2" cy="0" r="1" fill="srgba(1.178%,1.178%,1.178%,1)"/>
  <circle cx="3" cy="0" r="1" fill="srgba(1.178%,1.178%,1.178%,1)"/>
  <circle cx="4" cy="0" r="1" fill="srgba(1.17189%,1.17189%,1.178%,1)"/>
  <circle cx="5" cy="0" r="1" fill="srgba(1.2604%,1.24208%,1.178%,1)"/>
  <circle cx="6" cy="0" r="1" fill="srgba(0.901808%,0.894179%,1.178%,1)"/>
  <circle cx="7" cy="0" r="1" fill="srgba(1.61898%,1.53201%,1.178%,1)"/>
  <circle cx="8" cy="0" r="1" fill="srgba(3.10063%,2.76036%,1.178%,1)"/>
  <circle cx="9" cy="0" r="1" fill="srgba(0.843824%,0.862135%,1.178%,1)"/>
  <circle cx="10" cy="0" r="1" fill="srgba(1.28481%,1.23445%,1.178%,1)"/>
  <circle cx="11" cy="0" r="1" fill="srgba(1.18868%,1.18868%,1.178%,1)"/>
  <circle cx="12" cy="0" r="1" fill="srgba(1.178%,1.178%,1.178%,1)"/>
  <circle cx="13" cy="0" r="1" fill="srgba(1.178%,1.178%,1.178%,1)"/>
  <circle cx="14" cy="0" r="1" fill="srgba(1.178%,1.178%,1.178%,1)"/>
  <circle cx="15" cy="0" r="1" fill="srgba(1.18563%,1.18563%,1.18563%,1)"/>
  <circle cx="0" cy="1" r="1" fill="black"/>
  <circle cx="1" cy="1" r="1" fill="black"/>
  <circle cx="2" cy="1" r="1" fill="black"/>
  <circle cx="3" cy="1" r="1" fill="srgba(0.0030518%,0.0030518%,0%,1)"/>
  <circle cx="4" cy="1" r="1" fill="black"/>
  <circle cx="5" cy="1" r="1" fill="srgba(2.96941%,2.4918%,0%,1)"/>
  <circle cx="6" cy="1" r="1" fill="srgba(16.4752%,13.8201%,0%,1)"/>
  <circle cx="7" cy="1" r="1" fill="srgba(9.82528%,8.24292%,0%,1)"/>
  <circle cx="8" cy="1" r="1" fill="srgba(27.1855%,22.8077%,0%,1)"/>
  <circle cx="9" cy="1" r="1" fill="srgba(10.0084%,8.39399%,0%,1)"/>
  <circle cx="10" cy="1" r="1" fill="srgba(13.8674%,11.6335%,0%,1)"/>
  <circle cx="11" cy="1" r="1" fill="black"/>
  <circle cx="12" cy="1" r="1" fill="srgba(0.0411994%,0.0335698%,0%,1)"/>
  <circle cx="13" cy="1" r="1" fill="black"/>
  <circle cx="14" cy="1" r="1" fill="black"/>
  <circle cx="15" cy="1" r="1" fill="srgba(0.00610361%,0.00610361%,0.00610361%,1)"/>
  <circle cx="0" cy="2" r="1" fill="black"/>
  <circle cx="1" cy="2" r="1" fill="black"/>
  <circle cx="2" cy="2" r="1" fill="black"/>
  <circle cx="3" cy="2" r="1" fill="black"/>
  <circle cx="4" cy="2" r="1" fill="srgba(12.6818%,10.6432%,0%,1)"/>
  <circle cx="5" cy="2" r="1" fill="srgba(10.3731%,8.70527%,0%,1)"/>
  <circle cx="6" cy="2" r="1" fill="srgba(50.5119%,42.385%,0%,1)"/>
  <circle cx="7" cy="2" r="1" fill="srgba(48.0781%,40.4517%,0%,1)"/>
  <circle cx="8" cy="2" r="1" fill="srgba(65.861%,55.5962%,0%,1)"/>
  <circle cx="9" cy="2" r="1" fill="srgba(56.6613%,47.5517%,0%,1)"/>
  <circle cx="10" cy="2" r="1" fill="srgba(25.5512%,21.4435%,0%,1)"/>
  <circle cx="11" cy="2" r="1" fill="srgba(17.2213%,14.4533%,0%,1)"/>
  <circle cx="12" cy="2" r="1" fill="srgba(4.67536%,3.92309%,0%,1)"/>
  <circle cx="13" cy="2" r="1" fill="black"/>
  <circle cx="14" cy="2" r="1" fill="black"/>
  <circle cx="15" cy="2" r="1" fill="srgba(0.00762951%,0.00762951%,0.00762951%,1)"/>
  <circle cx="0" cy="3" r="1" fill="black"/>
  <circle cx="1" cy="3" r="1" fill="black"/>
  <circle cx="2" cy="3" r="1" fill="srgba(0.0564584%,0.047303%,0%,1)"/>
  <circle cx="3" cy="3" r="1" fill="srgba(0.764477%,0.640879%,0%,1)"/>
  <circle cx="4" cy="3" r="1" fill="srgba(16.1746%,13.5744%,0%,1)"/>
  <circle cx="5" cy="3" r="1" fill="srgba(61.3489%,51.4687%,0%,1)"/>
  <circle cx="6" cy="3" r="1" fill="srgba(74.8318%,63.151%,0%,1)"/>
  <circle cx="7" cy="3" r="1" fill="srgba(95.61%,80.6287%,0%,1)"/>
  <circle cx="8" cy="3" r="1" fill="srgba(97.3571%,81.9821%,0%,1)"/>
  <circle cx="9" cy="3" r="1" fill="srgba(92.2225%,77.9232%,0%,1)"/>
  <circle cx="10" cy="3" r="1" fill="srgba(69.8222%,58.6587%,0%,1)"/>
  <circle cx="11" cy="3" r="1" fill="srgba(45.8961%,38.5138%,0%,1)"/>
  <circle cx="12" cy="3" r="1" fill="srgba(2.31327%,1.94095%,0%,1)"/>
  <circle cx="13" cy="3" r="1" fill="srgba(0.87129%,0.730907%,0%,1)"/>
  <circle cx="14" cy="3" r="1" fill="black"/>
  <circle cx="15" cy="3" r="1" fill="srgba(0.00762951%,0.00762951%,0.00762951%,1)"/>
  <circle cx="0" cy="4" r="1" fill="srgba(0.683604%,0%,0%,1)"/>
  <circle cx="1" cy="4" r="1" fill="black"/>
  <circle cx="2" cy="4" r="1" fill="black"/>
  <circle cx="3" cy="4" r="1" fill="srgba(17.4884%,14.6654%,0%,1)"/>
  <circle cx="4" cy="4" r="1" fill="srgba(47.5044%,39.8337%,0%,1)"/>
  <circle cx="5" cy="4" r="1" fill="srgba(79.4339%,67.1611%,0%,1)"/>
  <circle cx="6" cy="4" r="1" fill="srgba(100%,84.5274%,0%,1)"/>
  <circle cx="7" cy="4" r="1" fill="srgba(99.9832%,84.1718%,0%,1)"/>
  <circle cx="8" cy="4" r="1" fill="srgba(100%,84.097%,0%,1)"/>
  <circle cx="9" cy="4" r="1" fill="srgba(100%,84.2466%,0%,1)"/>
  <circle cx="10" cy="4" r="1" fill="srgba(96.3027%,81.6052%,0%,1)"/>
  <circle cx="11" cy="4" r="1" fill="srgba(62.2461%,52.3476%,0%,1)"/>
  <circle cx="12" cy="4" r="1" fill="srgba(39.9344%,33.4981%,0%,1)"/>
  <circle cx="13" cy="4" r="1" fill="srgba(6.04257%,5.066%,0%,1)"/>
  <circle cx="14" cy="4" r="1" fill="black"/>
  <circle cx="15" cy="4" r="1" fill="srgba(0%,0.00762951%,0.00762951%,1)"/>
  <circle cx="0" cy="5" r="1" fill="srgba(27.9789%,0.0839246%,0.21973%,1)"/>
  <circle cx="1" cy="5" r="1" fill="srgba(0.367742%,0.239567%,0.688182%,1)"/>
  <circle cx="2" cy="5" r="1" fill="srgba(0.180056%,0.230411%,0.123598%,1)"/>
  <circle cx="3" cy="5" r="1" fill="srgba(7.26635%,6.11124%,0.0381476%,1)"/>
  <circle cx="4" cy="5" r="1" fill="srgba(48.8319%,40.9995%,0.0366217%,1)"/>
  <circle cx="5" cy="5" r="1" fill="srgba(96.3333%,80.8743%,0.0366217%,1)"/>
  <circle cx="6" cy="5" r="1" fill="srgba(100%,84.0681%,0.0366217%,1)"/>
  <circle cx="7" cy="5" r="1" fill="srgba(99.8993%,83.8514%,0.0366217%,1)"/>
  <circle cx="8" cy="5" r="1" fill="srgba(99.8993%,83.8514%,0.0366217%,1)"/>
  <circle cx="9" cy="5" r="1" fill="srgba(99.9054%,83.856%,0.0366217%,1)"/>
  <circle cx="10" cy="5" r="1" fill="srgba(100%,84.4587%,0.0366217%,1)"/>
  <circle cx="11" cy="5" r="1" fill="srgba(81.9562%,68.8624%,0.0366217%,1)"/>
  <circle cx="12" cy="5" r="1" fill="srgba(24.2908%,20.3967%,0.0350958%,1)"/>
  <circle cx="13" cy="5" r="1" fill="srgba(1.59457%,1.35958%,0.0564584%,1)"/>
  <circle cx="14" cy="5" r="1" fill="srgba(0%,0.109865%,0.457771%,1)"/>
  <circle cx="15" cy="5" r="1" fill="srgba(7.92554%,0.224308%,0.584421%,1)"/>
  <circle cx="0" cy="6" r="1" fill="srgba(77.2335%,0.831617%,2.18357%,1)"/>
  <circle cx="1" cy="6" r="1" fill="srgba(20.0137%,16.1196%,42.6078%,1)"/>
  <circle cx="2" cy="6" r="1" fill="srgba(0.892653%,25.7755%,64.065%,1)"/>
  <circle cx="3" cy="6" r="1" fill="srgba(15.5612%,36.7971%,62.4033%,1)"/>
  <circle cx="4" cy="6" r="1" fill="srgba(29.1371%,48.191%,62.4109%,1)"/>
  <circle cx="5" cy="6" r="1" fill="srgba(36.5286%,54.3954%,62.4109%,1)"/>
  <circle cx="6" cy="6" r="1" fill="srgba(37.2839%,55.0301%,62.4109%,1)"/>
  <circle cx="7" cy="6" r="1" fill="srgba(37.2335%,54.9874%,62.4109%,1)"/>
  <circle cx="8" cy="6" r="1" fill="srgba(37.2335%,54.9874%,62.4109%,1)"/>
  <circle cx="9" cy="6" r="1" fill="srgba(37.2335%,54.9874%,62.4109%,1)"/>
  <circle cx="10" cy="6" r="1" fill="srgba(37.3648%,55.0973%,62.4109%,1)"/>
  <circle cx="11" cy="6" r="1" fill="srgba(33.6187%,51.9539%,62.4109%,1)"/>
  <circle cx="12" cy="6" r="1" fill="srgba(22.208%,42.3697%,62.3926%,1)"/>
  <circle cx="13" cy="6" r="1" fill="srgba(6.20127%,29.4911%,63.1189%,1)"/>
  <circle cx="14" cy="6" r="1" fill="srgba(5.44289%,21.6159%,57.1466%,1)"/>
  <circle cx="15" cy="6" r="1" fill="srgba(54.9279%,5.29488%,13.9223%,1)"/>
  <circle cx="0" cy="7" r="1" fill="srgba(89.9413%,0%,0%,1)"/>
  <circle cx="1" cy="7" r="1" fill="srgba(66.7002%,10.0496%,26.4454%,1)"/>
  <circle cx="2" cy="7" r="1" fill="srgba(8.55573%,35.2163%,91.1528%,1)"/>
  <circle cx="3" cy="7" r="1" fill="srgba(0%,38.5977%,100%,1)"/>
  <circle cx="4" cy="7" r="1" fill="srgba(0%,37.6165%,100%,1)"/>
  <circle cx="5" cy="7" r="1" fill="srgba(0%,37.261%,100%,1)"/>
  <circle cx="6" cy="7" r="1" fill="srgba(0%,37.2366%,100%,1)"/>
  <circle cx="7" cy="7" r="1" fill="srgba(0%,37.2381%,100%,1)"/>
  <circle cx="8" cy="7" r="1" fill="srgba(0%,37.2381%,100%,1)"/>
  <circle cx="9" cy="7" r="1" fill="srgba(0%,37.2381%,100%,1)"/>
  <circle cx="10" cy="7" r="1" fill="srgba(0%,37.232%,100%,1)"/>
  <circle cx="11" cy="7" r="1" fill="srgba(0%,37.3938%,100%,1)"/>
  <circle cx="12" cy="7" r="1" fill="srgba(0%,38.0468%,100%,1)"/>
  <circle cx="13" cy="7" r="1" fill="srgba(0.61799%,38.5473%,99.5911%,1)"/>
  <circle cx="14" cy="7" r="1" fill="srgba(42.7634%,20.3983%,53.3639%,1)"/>
  <circle cx="15" cy="7" r="1" fill="srgba(87.744%,0.840772%,2.23239%,1)"/>
  <circle cx="0" cy="8" r="1" fill="srgba(88.7007%,0%,0%,1)"/>
  <circle cx="1" cy="8" r="1" fill="srgba(89.0578%,0.0274662%,0.0747692%,1)"/>
  <circle cx="2" cy="8" r="1" fill="srgba(50.6859%,16.3653%,42.948%,1)"/>
  <circle cx="3" cy="8" r="1" fill="srgba(2.23545%,37.1176%,97.4701%,1)"/>
  <circle cx="4" cy="8" r="1" fill="srgba(0%,37.4731%,100%,1)"/>
  <circle cx="5" cy="8" r="1" fill="srgba(0%,37.3434%,100%,1)"/>
  <circle cx="6" cy="8" r="1" fill="srgba(0%,37.3465%,100%,1)"/>
  <circle cx="7" cy="8" r="1" fill="srgba(0%,37.3465%,100%,1)"/>
  <circle cx="8" cy="8" r="1" fill="srgba(0%,37.3465%,100%,1)"/>
  <circle cx="9" cy="8" r="1" fill="srgba(0%,37.3465%,100%,1)"/>
  <circle cx="10" cy="8" r="1" fill="srgba(0%,37.3465%,100%,1)"/>
  <circle cx="11" cy="8" r="1" fill="srgba(0%,37.3342%,100%,1)"/>
  <circle cx="12" cy="8" r="1" fill="srgba(0%,38.1186%,100%,1)"/>
  <circle cx="13" cy="8" r="1" fill="srgba(26.07%,26.952%,70.5821%,1)"/>
  <circle cx="14" cy="8" r="1" fill="srgba(82.6215%,2.78019%,7.32586%,1)"/>
  <circle cx="15" cy="8" r="1" fill="srgba(89.2454%,0%,0%,1)"/>
  <circle cx="0" cy="9" r="1" fill="srgba(88.6229%,0%,0%,1)"/>
  <circle cx="1" cy="9" r="1" fill="srgba(88.9586%,0%,0%,1)"/>
  <circle cx="2" cy="9" r="1" fill="srgba(85.4063%,1.31991%,3.92615%,1)"/>
  <circle cx="3" cy="9" r="1" fill="srgba(38.5092%,26.6911%,61.9547%,1)"/>
  <circle cx="4" cy="9" r="1" fill="srgba(16.6934%,49.2332%,100%,1)"/>
  <circle cx="5" cy="9" r="1" fill="srgba(17.5631%,48.9525%,100%,1)"/>
  <circle cx="6" cy="9" r="1" fill="srgba(17.5601%,48.9189%,100%,1)"/>
  <circle cx="7" cy="9" r="1" fill="srgba(17.5601%,48.9189%,100%,1)"/>
  <circle cx="8" cy="9" r="1" fill="srgba(17.5601%,48.9189%,100%,1)"/>
  <circle cx="9" cy="9" r="1" fill="srgba(17.5601%,48.9189%,100%,1)"/>
  <circle cx="10" cy="9" r="1" fill="srgba(17.5586%,48.9021%,100%,1)"/>
  <circle cx="11" cy="9" r="1" fill="srgba(17.2061%,49.662%,100%,1)"/>
  <circle cx="12" cy="9" r="1" fill="srgba(23.3539%,39.3027%,85.3269%,1)"/>
  <circle cx="13" cy="9" r="1" fill="srgba(72.5734%,6.98253%,18.468%,1)"/>
  <circle cx="14" cy="9" r="1" fill="srgba(89.6605%,0%,0%,1)"/>
  <circle cx="15" cy="9" r="1" fill="srgba(88.603%,0.0015259%,0.00762951%,1)"/>
  <circle cx="0" cy="10" r="1" fill="srgba(226,0,0,1)"/>
  <circle cx="1" cy="10" r="1" fill="srgba(88.6137%,0%,0%,1)"/>
  <circle cx="2" cy="10" r="1" fill="srgba(88.893%,0%,0%,1)"/>
  <circle cx="3" cy="10" r="1" fill="srgba(87.0909%,10.3014%,12.4147%,1)"/>
  <circle cx="4" cy="10" r="1" fill="srgba(90.0008%,74.4259%,78.7762%,1)"/>
  <circle cx="5" cy="10" r="1" fill="srgba(92.5948%,96.5759%,100%,1)"/>
  <circle cx="6" cy="10" r="1" fill="srgba(92.4514%,95.3048%,100%,1)"/>
  <circle cx="7" cy="10" r="1" fill="srgba(92.4529%,95.3231%,100%,1)"/>
  <circle cx="8" cy="10" r="1" fill="srgba(92.4529%,95.3231%,100%,1)"/>
  <circle cx="9" cy="10" r="1" fill="srgba(92.4529%,95.317%,100%,1)"/>
  <circle cx="10" cy="10" r="1" fill="srgba(92.5063%,95.79%,100%,1)"/>
  <circle cx="11" cy="10" r="1" fill="srgba(91.8135%,90.6737%,94.8363%,1)"/>
  <circle cx="12" cy="10" r="1" fill="srgba(86.9932%,30.9712%,34.5235%,1)"/>
  <circle cx="13" cy="10" r="1" fill="srgba(88.6854%,0%,0%,1)"/>
  <circle cx="14" cy="10" r="1" fill="srgba(88.6351%,0%,0%,1)"/>
  <circle cx="15" cy="10" r="1" fill="srgba(88.6275%,0.00762951%,0.00762951%,1)"/>
  <circle cx="0" cy="11" r="1" fill="srgba(226,0,0,1)"/>
  <circle cx="1" cy="11" r="1" fill="srgba(226,0,0,1)"/>
  <circle cx="2" cy="11" r="1" fill="srgba(88.6213%,0%,0%,1)"/>
  <circle cx="3" cy="11" r="1" fill="srgba(88.6946%,0%,0%,1)"/>
  <circle cx="4" cy="11" r="1" fill="srgba(92.0592%,26.4393%,26.2089%,1)"/>
  <circle cx="5" cy="11" r="1" fill="srgba(99.1638%,91.043%,90.898%,1)"/>
  <circle cx="6" cy="11" r="1" fill="white"/>
  <circle cx="7" cy="11" r="1" fill="white"/>
  <circle cx="8" cy="11" r="1" fill="white"/>
  <circle cx="9" cy="11" r="1" fill="white"/>
  <circle cx="10" cy="11" r="1" fill="srgba(100%,99.5163%,99.4644%,1)"/>
  <circle cx="11" cy="11" r="1" fill="srgba(95.1232%,53.6309%,53.3684%,1)"/>
  <circle cx="12" cy="11" r="1" fill="srgba(89.1203%,1.76547%,1.69223%,1)"/>
  <circle cx="13" cy="11" r="1" fill="srgba(88.6259%,0%,0%,1)"/>
  <circle cx="14" cy="11" r="1" fill="srgba(88.6259%,0%,0%,1)"/>
  <circle cx="15" cy="11" r="1" fill="srgba(88.6275%,0.00762951%,0.00762951%,1)"/>
  <circle cx="0" cy="12" r="1" fill="srgba(226,0,0,1)"/>
  <circle cx="1" cy="12" r="1" fill="srgba(226,0,0,1)"/>
  <circle cx="2" cy="12" r="1" fill="srgba(226,0,0,1)"/>
  <circle cx="3" cy="12" r="1" fill="srgba(88.6183%,0%,0%,1)"/>
  <circle cx="4" cy="12" r="1" fill="srgba(88.5863%,0.207523%,0.207523%,1)"/>
  <circle cx="5" cy="12" r="1" fill="srgba(93.6248%,44.0818%,44.0818%,1)"/>
  <circle cx="6" cy="12" r="1" fill="srgba(99.7436%,97.7432%,97.7432%,1)"/>
  <circle cx="7" cy="12" r="1" fill="white"/>
  <circle cx="8" cy="12" r="1" fill="white"/>
  <circle cx="9" cy="12" r="1" fill="white"/>
  <circle cx="10" cy="12" r="1" fill="srgba(96.7681%,71.5862%,71.5862%,1)"/>
  <circle cx="11" cy="12" r="1" fill="srgba(89.4621%,7.89349%,7.89349%,1)"/>
  <circle cx="12" cy="12" r="1" fill="srgba(88.5527%,0%,0%,1)"/>
  <circle cx="13" cy="12" r="1" fill="srgba(88.629%,0%,0%,1)"/>
  <circle cx="14" cy="12" r="1" fill="srgba(226,0,0,1)"/>
  <circle cx="15" cy="12" r="1" fill="srgba(88.6275%,0.00762951%,0.00762951%,1)"/>
  <circle cx="0" cy="13" r="1" fill="srgba(226,0,0,1)"/>
  <circle cx="1" cy="13" r="1" fill="srgba(226,0,0,1)"/>
  <circle cx="2" cy="13" r="1" fill="srgba(226,0,0,1)"/>
  <circle cx="3" cy="13" r="1" fill="srgba(226,0,0,1)"/>
  <circle cx="4" cy="13" r="1" fill="srgba(88.5817%,0%,0%,1)"/>
  <circle cx="5" cy="13" r="1" fill="srgba(89.0486%,4.28931%,4.28931%,1)"/>
  <circle cx="6" cy="13" r="1" fill="srgba(95.7946%,63.0518%,63.0518%,1)"/>
  <circle cx="7" cy="13" r="1" fill="white"/>
  <circle cx="8" cy="13" r="1" fill="white"/>
  <circle cx="9" cy="13" r="1" fill="srgba(98.4161%,86.0441%,86.0441%,1)"/>
  <circle cx="10" cy="13" r="1" fill="srgba(90.7774%,19.2981%,19.2981%,1)"/>
  <circle cx="11" cy="13" r="1" fill="srgba(88.4901%,0%,0%,1)"/>
  <circle cx="12" cy="13" r="1" fill="srgba(88.629%,0%,0%,1)"/>
  <circle cx="13" cy="13" r="1" fill="srgba(226,0,0,1)"/>
  <circle cx="14" cy="13" r="1" fill="srgba(226,0,0,1)"/>
  <circle cx="15" cy="13" r="1" fill="srgba(88.6275%,0.00762951%,0.00762951%,1)"/>
  <circle cx="0" cy="14" r="1" fill="srgba(88.6259%,0%,0%,1)"/>
  <circle cx="1" cy="14" r="1" fill="srgba(88.6259%,0%,0%,1)"/>
  <circle cx="2" cy="14" r="1" fill="srgba(88.6259%,0%,0%,1)"/>
  <circle cx="3" cy="14" r="1" fill="srgba(88.6259%,0%,0%,1)"/>
  <circle cx="4" cy="14" r="1" fill="srgba(226,0,0,1)"/>
  <circle cx="5" cy="14" r="1" fill="srgba(88.5176%,0%,0%,1)"/>
  <circle cx="6" cy="14" r="1" fill="srgba(90.0481%,12.9702%,12.9702%,1)"/>
  <circle cx="7" cy="14" r="1" fill="srgba(97.6806%,79.5941%,79.5941%,1)"/>
  <circle cx="8" cy="14" r="1" fill="srgba(99.5254%,95.8236%,95.8236%,1)"/>
  <circle cx="9" cy="14" r="1" fill="srgba(92.6207%,35.317%,35.317%,1)"/>
  <circle cx="10" cy="14" r="1" fill="srgba(88.5069%,0%,0%,1)"/>
  <circle cx="11" cy="14" r="1" fill="srgba(88.6244%,0%,0%,1)"/>
  <circle cx="12" cy="14" r="1" fill="srgba(88.6259%,0%,0%,1)"/>
  <circle cx="13" cy="14" r="1" fill="srgba(88.6259%,0%,0%,1)"/>
  <circle cx="14" cy="14" r="1" fill="srgba(88.6259%,0%,0%,1)"/>
  <circle cx="15" cy="14" r="1" fill="srgba(88.6259%,0.00762951%,0.00762951%,1)"/>
  <circle cx="0" cy="15" r="1" fill="srgba(88.6427%,0.131228%,0.131228%,1)"/>
  <circle cx="1" cy="15" r="1" fill="srgba(88.6427%,0.131228%,0.131228%,1)"/>
  <circle cx="2" cy="15" r="1" fill="srgba(88.6427%,0.131228%,0.131228%,1)"/>
  <circle cx="3" cy="15" r="1" fill="srgba(88.6427%,0.131228%,0.131228%,1)"/>
  <circle cx="4" cy="15" r="1" fill="srgba(88.6427%,0.131228%,0.131228%,1)"/>
  <circle cx="5" cy="15" r="1" fill="srgba(88.6442%,0.123598%,0.123598%,1)"/>
  <circle cx="6" cy="15" r="1" fill="srgba(88.4779%,0%,0%,1)"/>
  <circle cx="7" cy="15" r="1" fill="srgba(92.1828%,31.5633%,31.5633%,1)"/>
  <circle cx="8" cy="15" r="1" fill="srgba(94.8272%,54.5678%,54.5678%,1)"/>
  <circle cx="9" cy="15" r="1" fill="srgba(88.8731%,2.75731%,2.75731%,1)"/>
  <circle cx="10" cy="15" r="1" fill="srgba(88.6137%,0%,0%,1)"/>
  <circle cx="11" cy="15" r="1" fill="srgba(88.6427%,0.131228%,0.131228%,1)"/>
  <circle cx="12" cy="15" r="1" fill="srgba(88.6427%,0.131228%,0.131228%,1)"/>
  <circle cx="13" cy="15" r="1" fill="srgba(88.6427%,0.131228%,0.131228%,1)"/>
  <circle cx="14" cy="15" r="1" fill="srgba(88.6427%,0.131228%,0.131228%,1)"/>
  <circle cx="15" cy="15" r="1" fill="srgba(88.6427%,0.138857%,0.138857%,1)"/>
</svg>
