<?xml version="1.0" standalone="no"?>
<!DOCTYPE svg PUBLIC "-//W3C//DTD SVG 20010904//EN"
  "http://www.w3.org/TR/2001/REC-SVG-20010904/DTD/svg10.dtd">
<svg width="16" height="16">
  <circle cx="0" cy="0" r="1" fill="srgba(88.6763%,45.6458%,45.8747%,1)"/>
  <circle cx="1" cy="0" r="1" fill="srgba(80.3113%,1.39773%,1.37942%,1)"/>
  <circle cx="2" cy="0" r="1" fill="srgba(93.4325%,67.2633%,67.2709%,1)"/>
  <circle cx="3" cy="0" r="1" fill="srgba(93.6553%,94.9996%,97.6715%,1)"/>
  <circle cx="4" cy="0" r="1" fill="srgba(69.4362%,69.7963%,82.06%,1)"/>
  <circle cx="5" cy="0" r="1" fill="srgba(52.8328%,53.5943%,72.5368%,1)"/>
  <circle cx="6" cy="0" r="1" fill="srgba(85.3437%,72.3781%,76.9436%,1)"/>
  <circle cx="7" cy="0" r="1" fill="srgba(74.6136%,37.3129%,43.7385%,1)"/>
  <circle cx="8" cy="0" r="1" fill="srgba(11.7739%,1.92264%,36.2295%,1)"/>
  <circle cx="9" cy="0" r="1" fill="srgba(0%,0%,40.2121%,1)"/>
  <circle cx="10" cy="0" r="1" fill="srgba(0.111391%,0.111391%,40.0641%,1)"/>
  <circle cx="11" cy="0" r="1" fill="srgba(0.15259%,0.15259%,40.09%,1)"/>
  <circle cx="12" cy="0" r="1" fill="srgba(0.247196%,0.247196%,40.1465%,1)"/>
  <circle cx="13" cy="0" r="1" fill="srgba(0.291447%,0.291447%,40.174%,1)"/>
  <circle cx="14" cy="0" r="1" fill="srgba(0.386053%,0.386053%,40.235%,1)"/>
  <circle cx="15" cy="0" r="1" fill="srgba(0.392157%,0.392157%,40.238%,1)"/>
  <circle cx="0" cy="1" r="1" fill="srgba(88.5771%,45.2171%,45.4505%,1)"/>
  <circle cx="1" cy="1" r="1" fill="srgba(81.0483%,1.50912%,1.13069%,1)"/>
  <circle cx="2" cy="1" r="1" fill="srgba(78.4741%,52.2332%,58.2162%,1)"/>
  <circle cx="3" cy="1" r="1" fill="srgba(24.8478%,27.4464%,57.7661%,1)"/>
  <circle cx="4" cy="1" r="1" fill="srgba(19.0021%,15.2956%,47.3243%,1)"/>
  <circle cx="5" cy="1" r="1" fill="srgba(62.15%,35.845%,48.3543%,1)"/>
  <circle cx="6" cy="1" r="1" fill="srgba(54.1985%,17.496%,32.137%,1)"/>
  <circle cx="7" cy="1" r="1" fill="srgba(15.259%,0.457771%,32.3857%,1)"/>
  <circle cx="8" cy="1" r="1" fill="srgba(0.422675%,0%,39.5956%,1)"/>
  <circle cx="9" cy="1" r="1" fill="srgba(0%,0%,40.032%,1)"/>
  <circle cx="10" cy="1" r="1" fill="srgba(0%,0%,39.9954%,1)"/>
  <circle cx="11" cy="1" r="1" fill="srgba(0%,0%,39.9954%,1)"/>
  <circle cx="12" cy="1" r="1" fill="srgba(0%,0%,39.9908%,1)"/>
  <circle cx="13" cy="1" r="1" fill="srgba(0%,0%,39.9893%,1)"/>
  <circle cx="14" cy="1" r="1" fill="srgba(0%,0%,39.9863%,1)"/>
  <circle cx="15" cy="1" r="1" fill="srgba(0%,0%,39.9863%,1)"/>
  <circle cx="0" cy="2" r="1" fill="srgba(88.8991%,45.5406%,45.6443%,1)"/>
  <circle cx="1" cy="2" r="1" fill="srgba(81.2848%,1.9913%,1.58541%,1)"/>
  <circle cx="2" cy="2" r="1" fill="srgba(73.7392%,43.5996%,50.4448%,1)"/>
  <circle cx="3" cy="2" r="1" fill="srgba(36.0571%,6.44541%,27.509%,1)"/>
  <circle cx="4" cy="2" r="1" fill="srgba(62.9175%,7.87213%,17.1267%,1)"/>
  <circle cx="5" cy="2" r="1" fill="srgba(44.7211%,3.56603%,20.9827%,1)"/>
  <circle cx="6" cy="2" r="1" fill="srgba(4.53346%,0%,37.0123%,1)"/>
  <circle cx="7" cy="2" r="1" fill="srgba(0%,0%,40.9445%,1)"/>
  <circle cx="8" cy="2" r="1" fill="srgba(0%,0%,40.0305%,1)"/>
  <circle cx="9" cy="2" r="1" fill="srgba(0%,0%,39.9985%,1)"/>
  <circle cx="10" cy="2" r="1" fill="srgba(0,0,102,1)"/>
  <circle cx="11" cy="2" r="1" fill="srgba(0,0,102,1)"/>
  <circle cx="12" cy="2" r="1" fill="srgba(0,0,102,1)"/>
  <circle cx="13" cy="2" r="1" fill="srgba(0,0,102,1)"/>
  <circle cx="14" cy="2" r="1" fill="srgba(0,0,102,1)"/>
  <circle cx="15" cy="2" r="1" fill="srgba(0,0,102,1)"/>
  <circle cx="0" cy="3" r="1" fill="srgba(89.1646%,45.8381%,45.8381%,1)"/>
  <circle cx="1" cy="3" r="1" fill="srgba(80.6546%,1.40688%,1.22072%,1)"/>
  <circle cx="2" cy="3" r="1" fill="srgba(84.0406%,53.1136%,56.4019%,1)"/>
  <circle cx="3" cy="3" r="1" fill="srgba(79.0341%,17.0779%,19.5468%,1)"/>
  <circle cx="4" cy="3" r="1" fill="srgba(80.705%,0%,0%,1)"/>
  <circle cx="5" cy="3" r="1" fill="srgba(73.9986%,0%,2.90227%,1)"/>
  <circle cx="6" cy="3" r="1" fill="srgba(53.8689%,0%,12.9976%,1)"/>
  <circle cx="7" cy="3" r="1" fill="srgba(24.0574%,1.00557%,29.0776%,1)"/>
  <circle cx="8" cy="3" r="1" fill="srgba(2.15763%,1.04982%,40.0748%,1)"/>
  <circle cx="9" cy="3" r="1" fill="srgba(0%,0%,40.0046%,1)"/>
  <circle cx="10" cy="3" r="1" fill="srgba(0,0,102,1)"/>
  <circle cx="11" cy="3" r="1" fill="srgba(0,0,102,1)"/>
  <circle cx="12" cy="3" r="1" fill="srgba(0,0,102,1)"/>
  <circle cx="13" cy="3" r="1" fill="srgba(0,0,102,1)"/>
  <circle cx="14" cy="3" r="1" fill="srgba(0,0,102,1)"/>
  <circle cx="15" cy="3" r="1" fill="srgba(0,0,102,1)"/>
  <circle cx="0" cy="4" r="1" fill="srgba(84.6906%,23.4531%,23.4531%,1)"/>
  <circle cx="1" cy="4" r="1" fill="srgba(80.0641%,0.332647%,0.332647%,1)"/>
  <circle cx="2" cy="4" r="1" fill="srgba(86.7887%,33.7667%,33.7484%,1)"/>
  <circle cx="3" cy="4" r="1" fill="srgba(83.5477%,17.5494%,17.5296%,1)"/>
  <circle cx="4" cy="4" r="1" fill="srgba(79.8199%,0%,0%,1)"/>
  <circle cx="5" cy="4" r="1" fill="srgba(80.3464%,0%,0%,1)"/>
  <circle cx="6" cy="4" r="1" fill="srgba(81.5274%,0%,0%,1)"/>
  <circle cx="7" cy="4" r="1" fill="srgba(72.1721%,2.99535%,7.34112%,1)"/>
  <circle cx="8" cy="4" r="1" fill="srgba(12.6665%,3.17082%,37.145%,1)"/>
  <circle cx="9" cy="4" r="1" fill="srgba(0%,0%,40.1862%,1)"/>
  <circle cx="10" cy="4" r="1" fill="srgba(0,0,102,1)"/>
  <circle cx="11" cy="4" r="1" fill="srgba(0,0,102,1)"/>
  <circle cx="12" cy="4" r="1" fill="srgba(0,0,102,1)"/>
  <circle cx="13" cy="4" r="1" fill="srgba(0,0,102,1)"/>
  <circle cx="14" cy="4" r="1" fill="srgba(0,0,102,1)"/>
  <circle cx="15" cy="4" r="1" fill="srgba(0,0,102,1)"/>
  <circle cx="0" cy="5" r="1" fill="srgba(80.0031%,0.00457771%,0.0030518%,1)"/>
  <circle cx="1" cy="5" r="1" fill="srgba(79.9969%,0%,0%,1)"/>
  <circle cx="2" cy="5" r="1" fill="srgba(80.0641%,0.109865%,0.0900282%,1)"/>
  <circle cx="3" cy="5" r="1" fill="srgba(80.1328%,0.628672%,0.611887%,1)"/>
  <circle cx="4" cy="5" r="1" fill="srgba(79.9786%,0.047303%,0.0488289%,1)"/>
  <circle cx="5" cy="5" r="1" fill="srgba(80.3479%,0%,0%,1)"/>
  <circle cx="6" cy="5" r="1" fill="srgba(80.9537%,0%,0%,1)"/>
  <circle cx="7" cy="5" r="1" fill="srgba(74.1222%,0.686656%,3.90021%,1)"/>
  <circle cx="8" cy="5" r="1" fill="srgba(13.5821%,0.75227%,34.0703%,1)"/>
  <circle cx="9" cy="5" r="1" fill="srgba(0%,0%,40.3815%,1)"/>
  <circle cx="10" cy="5" r="1" fill="srgba(0,0,102,1)"/>
  <circle cx="11" cy="5" r="1" fill="srgba(0,0,102,1)"/>
  <circle cx="12" cy="5" r="1" fill="srgba(0,0,102,1)"/>
  <circle cx="13" cy="5" r="1" fill="srgba(0,0,102,1)"/>
  <circle cx="14" cy="5" r="1" fill="srgba(0,0,102,1)"/>
  <circle cx="15" cy="5" r="1" fill="srgba(0,0,102,1)"/>
  <circle cx="0" cy="6" r="1" fill="srgba(86.1982%,31.165%,31.1818%,1)"/>
  <circle cx="1" cy="6" r="1" fill="srgba(80.1221%,0.434882%,0.416571%,1)"/>
  <circle cx="2" cy="6" r="1" fill="srgba(88.5542%,45.8183%,46.1173%,1)"/>
  <circle cx="3" cy="6" r="1" fill="srgba(91.1574%,54.5129%,54.4442%,1)"/>
  <circle cx="4" cy="6" r="1" fill="srgba(81.5595%,3.86053%,3.63775%,1)"/>
  <circle cx="5" cy="6" r="1" fill="srgba(73.8842%,0%,2.80156%,1)"/>
  <circle cx="6" cy="6" r="1" fill="srgba(70.8354%,0%,4.16114%,1)"/>
  <circle cx="7" cy="6" r="1" fill="srgba(66.0075%,6.52171%,14.1711%,1)"/>
  <circle cx="8" cy="6" r="1" fill="srgba(11.2032%,5.38796%,40.325%,1)"/>
  <circle cx="9" cy="6" r="1" fill="srgba(0%,0%,39.9603%,1)"/>
  <circle cx="10" cy="6" r="1" fill="srgba(0%,0%,39.9954%,1)"/>
  <circle cx="11" cy="6" r="1" fill="srgba(0%,0%,39.852%,1)"/>
  <circle cx="12" cy="6" r="1" fill="srgba(0%,0%,39.9527%,1)"/>
  <circle cx="13" cy="6" r="1" fill="srgba(0%,0%,39.9649%,1)"/>
  <circle cx="14" cy="6" r="1" fill="srgba(0,0,102,1)"/>
  <circle cx="15" cy="6" r="1" fill="srgba(0,0,102,1)"/>
  <circle cx="0" cy="7" r="1" fill="srgba(88.7144%,45.4139%,45.6016%,1)"/>
  <circle cx="1" cy="7" r="1" fill="srgba(81.1566%,1.58999%,1.17494%,1)"/>
  <circle cx="2" cy="7" r="1" fill="srgba(76.1776%,50.695%,57.6776%,1)"/>
  <circle cx="3" cy="7" r="1" fill="srgba(52.2255%,46.041%,64.5304%,1)"/>
  <circle cx="4" cy="7" r="1" fill="srgba(73.5927%,7.87671%,11.931%,1)"/>
  <circle cx="5" cy="7" r="1" fill="srgba(75.5581%,0%,1.87228%,1)"/>
  <circle cx="6" cy="7" r="1" fill="srgba(52.9808%,0%,13.4646%,1)"/>
  <circle cx="7" cy="7" r="1" fill="srgba(39.6139%,0.697337%,20.9354%,1)"/>
  <circle cx="8" cy="7" r="1" fill="srgba(6.76738%,0.756847%,37.322%,1)"/>
  <circle cx="9" cy="7" r="1" fill="srgba(0.83772%,1.21614%,40.2304%,1)"/>
  <circle cx="10" cy="7" r="1" fill="srgba(3.25628%,3.39971%,40.1312%,1)"/>
  <circle cx="11" cy="7" r="1" fill="srgba(11.9539%,12.4132%,43.5096%,1)"/>
  <circle cx="12" cy="7" r="1" fill="srgba(6.05325%,6.26535%,41.268%,1)"/>
  <circle cx="13" cy="7" r="1" fill="srgba(6.92302%,6.9337%,40.621%,1)"/>
  <circle cx="14" cy="7" r="1" fill="srgba(1.06966%,1.06966%,40.0046%,1)"/>
  <circle cx="15" cy="7" r="1" fill="srgba(0%,0%,40.0031%,1)"/>
  <circle cx="0" cy="8" r="1" fill="srgba(88.8304%,45.2857%,45.4673%,1)"/>
  <circle cx="1" cy="8" r="1" fill="srgba(81.9669%,2.08286%,1.4435%,1)"/>
  <circle cx="2" cy="8" r="1" fill="srgba(70.1335%,43.6622%,52.7886%,1)"/>
  <circle cx="3" cy="8" r="1" fill="srgba(5.30251%,6.56596%,44.0436%,1)"/>
  <circle cx="4" cy="8" r="1" fill="srgba(15.6207%,0.192264%,32.401%,1)"/>
  <circle cx="5" cy="8" r="1" fill="srgba(51.9951%,0%,13.9712%,1)"/>
  <circle cx="6" cy="8" r="1" fill="srgba(75.8099%,0%,1.39925%,1)"/>
  <circle cx="7" cy="8" r="1" fill="srgba(61.088%,13.1701%,24.0009%,1)"/>
  <circle cx="8" cy="8" r="1" fill="srgba(11.7235%,10.1167%,44.007%,1)"/>
  <circle cx="9" cy="8" r="1" fill="srgba(32.0424%,32.4544%,54.5708%,1)"/>
  <circle cx="10" cy="8" r="1" fill="srgba(48.069%,43.8071%,52.903%,1)"/>
  <circle cx="11" cy="8" r="1" fill="srgba(87.2496%,77.3434%,61.2284%,1)"/>
  <circle cx="12" cy="8" r="1" fill="srgba(79.7223%,76.4202%,73.4234%,1)"/>
  <circle cx="13" cy="8" r="1" fill="srgba(65.3315%,65.1713%,69.1905%,1)"/>
  <circle cx="14" cy="8" r="1" fill="srgba(5.3727%,5.38186%,40.7919%,1)"/>
  <circle cx="15" cy="8" r="1" fill="srgba(0%,0%,39.9573%,1)"/>
  <circle cx="0" cy="9" r="1" fill="srgba(36.3775%,18.8296%,42.5238%,1)"/>
  <circle cx="1" cy="9" r="1" fill="srgba(33.5409%,1.3489%,24.7135%,1)"/>
  <circle cx="2" cy="9" r="1" fill="srgba(28.7617%,18.0819%,45.51%,1)"/>
  <circle cx="3" cy="9" r="1" fill="srgba(1.91653%,2.46891%,41.7548%,1)"/>
  <circle cx="4" cy="9" r="1" fill="srgba(0%,0%,40.3906%,1)"/>
  <circle cx="5" cy="9" r="1" fill="srgba(2.74815%,0%,38.8525%,1)"/>
  <circle cx="6" cy="9" r="1" fill="srgba(22.3331%,0%,28.2734%,1)"/>
  <circle cx="7" cy="9" r="1" fill="srgba(32.5399%,10.3761%,35.2178%,1)"/>
  <circle cx="8" cy="9" r="1" fill="srgba(8.42603%,8.15595%,43.1037%,1)"/>
  <circle cx="9" cy="9" r="1" fill="srgba(64.5258%,64.1505%,69.2012%,1)"/>
  <circle cx="10" cy="9" r="1" fill="srgba(95.0118%,84.3183%,69.4057%,1)"/>
  <circle cx="11" cy="9" r="1" fill="srgba(100%,87.1473%,66.2165%,1)"/>
  <circle cx="12" cy="9" r="1" fill="srgba(100%,92.4163%,77.3571%,1)"/>
  <circle cx="13" cy="9" r="1" fill="srgba(78.7137%,77.8195%,79.3515%,1)"/>
  <circle cx="14" cy="9" r="1" fill="srgba(5.98154%,6.01663%,40.9979%,1)"/>
  <circle cx="15" cy="9" r="1" fill="srgba(0%,0%,39.057%,1)"/>
  <circle cx="0" cy="10" r="1" fill="srgba(0%,0.0030518%,39.91%,1)"/>
  <circle cx="1" cy="10" r="1" fill="srgba(0%,0.00610361%,40.6714%,1)"/>
  <circle cx="2" cy="10" r="1" fill="srgba(0%,0.0015259%,39.7787%,1)"/>
  <circle cx="3" cy="10" r="1" fill="srgba(0%,0%,39.9252%,1)"/>
  <circle cx="4" cy="10" r="1" fill="srgba(0%,0%,39.9985%,1)"/>
  <circle cx="5" cy="10" r="1" fill="srgba(0%,0%,40.0916%,1)"/>
  <circle cx="6" cy="10" r="1" fill="srgba(0%,0%,40.5814%,1)"/>
  <circle cx="7" cy="10" r="1" fill="srgba(0%,0%,40.2335%,1)"/>
  <circle cx="8" cy="10" r="1" fill="srgba(0.216678%,0.411994%,39.2645%,1)"/>
  <circle cx="9" cy="10" r="1" fill="srgba(61.6327%,58.3764%,59.5041%,1)"/>
  <circle cx="10" cy="10" r="1" fill="srgba(100%,87.0558%,63.4501%,1)"/>
  <circle cx="11" cy="10" r="1" fill="srgba(100%,89.9947%,75.0027%,1)"/>
  <circle cx="12" cy="10" r="1" fill="srgba(100%,97.9782%,94.3145%,1)"/>
  <circle cx="13" cy="10" r="1" fill="srgba(94.2138%,94.1955%,95.1659%,1)"/>
  <circle cx="14" cy="10" r="1" fill="srgba(61.5396%,61.5442%,76.4324%,1)"/>
  <circle cx="15" cy="10" r="1" fill="srgba(30.3319%,30.3319%,58.233%,1)"/>
  <circle cx="0" cy="11" r="1" fill="srgba(0,0,102,1)"/>
  <circle cx="1" cy="11" r="1" fill="srgba(0,0,102,1)"/>
  <circle cx="2" cy="11" r="1" fill="srgba(0,0,102,1)"/>
  <circle cx="3" cy="11" r="1" fill="srgba(0,0,102,1)"/>
  <circle cx="4" cy="11" r="1" fill="srgba(0,0,102,1)"/>
  <circle cx="5" cy="11" r="1" fill="srgba(0,0,102,1)"/>
  <circle cx="6" cy="11" r="1" fill="srgba(0,0,102,1)"/>
  <circle cx="7" cy="11" r="1" fill="srgba(0,0,102,1)"/>
  <circle cx="8" cy="11" r="1" fill="srgba(0%,0%,39.0555%,1)"/>
  <circle cx="9" cy="11" r="1" fill="srgba(40.0732%,40.6119%,58.4176%,1)"/>
  <circle cx="10" cy="11" r="1" fill="srgba(95.2422%,83.6667%,61.8891%,1)"/>
  <circle cx="11" cy="11" r="1" fill="srgba(99.9725%,83.1632%,57.7996%,1)"/>
  <circle cx="12" cy="11" r="1" fill="srgba(100%,99.4659%,98.6618%,1)"/>
  <circle cx="13" cy="11" r="1" fill="white"/>
  <circle cx="14" cy="11" r="1" fill="white"/>
  <circle cx="15" cy="11" r="1" fill="srgba(96.7697%,96.7697%,98.0606%,1)"/>
  <circle cx="0" cy="12" r="1" fill="srgba(0,0,102,1)"/>
  <circle cx="1" cy="12" r="1" fill="srgba(0,0,102,1)"/>
  <circle cx="2" cy="12" r="1" fill="srgba(0,0,102,1)"/>
  <circle cx="3" cy="12" r="1" fill="srgba(0,0,102,1)"/>
  <circle cx="4" cy="12" r="1" fill="srgba(0,0,102,1)"/>
  <circle cx="5" cy="12" r="1" fill="srgba(0,0,102,1)"/>
  <circle cx="6" cy="12" r="1" fill="srgba(0,0,102,1)"/>
  <circle cx="7" cy="12" r="1" fill="srgba(0,0,102,1)"/>
  <circle cx="8" cy="12" r="1" fill="srgba(0%,0%,39.8505%,1)"/>
  <circle cx="9" cy="12" r="1" fill="srgba(24.3198%,28.3436%,39.8093%,1)"/>
  <circle cx="10" cy="12" r="1" fill="srgba(58.0682%,82.5925%,81.2497%,1)"/>
  <circle cx="11" cy="12" r="1" fill="srgba(98.4405%,99.3057%,98.9349%,1)"/>
  <circle cx="12" cy="12" r="1" fill="white"/>
  <circle cx="13" cy="12" r="1" fill="white"/>
  <circle cx="14" cy="12" r="1" fill="white"/>
  <circle cx="15" cy="12" r="1" fill="white"/>
  <circle cx="0" cy="13" r="1" fill="srgba(0,0,102,1)"/>
  <circle cx="1" cy="13" r="1" fill="srgba(0,0,102,1)"/>
  <circle cx="2" cy="13" r="1" fill="srgba(0,0,102,1)"/>
  <circle cx="3" cy="13" r="1" fill="srgba(0,0,102,1)"/>
  <circle cx="4" cy="13" r="1" fill="srgba(0,0,102,1)"/>
  <circle cx="5" cy="13" r="1" fill="srgba(0,0,102,1)"/>
  <circle cx="6" cy="13" r="1" fill="srgba(0,0,102,1)"/>
  <circle cx="7" cy="13" r="1" fill="srgba(0,0,102,1)"/>
  <circle cx="8" cy="13" r="1" fill="srgba(0%,0%,40.351%,1)"/>
  <circle cx="9" cy="13" r="1" fill="srgba(28.4398%,28.6091%,31.3298%,1)"/>
  <circle cx="10" cy="13" r="1" fill="srgba(64.1367%,68.1926%,54.0536%,1)"/>
  <circle cx="11" cy="13" r="1" fill="srgba(97.6791%,98.1781%,99.9023%,1)"/>
  <circle cx="12" cy="13" r="1" fill="white"/>
  <circle cx="13" cy="13" r="1" fill="white"/>
  <circle cx="14" cy="13" r="1" fill="white"/>
  <circle cx="15" cy="13" r="1" fill="white"/>
  <circle cx="0" cy="14" r="1" fill="srgba(0,0,102,1)"/>
  <circle cx="1" cy="14" r="1" fill="srgba(0,0,102,1)"/>
  <circle cx="2" cy="14" r="1" fill="srgba(0,0,102,1)"/>
  <circle cx="3" cy="14" r="1" fill="srgba(0,0,102,1)"/>
  <circle cx="4" cy="14" r="1" fill="srgba(0,0,102,1)"/>
  <circle cx="5" cy="14" r="1" fill="srgba(0,0,102,1)"/>
  <circle cx="6" cy="14" r="1" fill="srgba(0,0,102,1)"/>
  <circle cx="7" cy="14" r="1" fill="srgba(0,0,102,1)"/>
  <circle cx="8" cy="14" r="1" fill="srgba(0%,0%,40.3372%,1)"/>
  <circle cx="9" cy="14" r="1" fill="srgba(25.597%,25.5955%,32.1874%,1)"/>
  <circle cx="10" cy="14" r="1" fill="srgba(61.8387%,61.6526%,52.3903%,1)"/>
  <circle cx="11" cy="14" r="1" fill="srgba(97.5601%,97.5219%,99.5956%,1)"/>
  <circle cx="12" cy="14" r="1" fill="white"/>
  <circle cx="13" cy="14" r="1" fill="white"/>
  <circle cx="14" cy="14" r="1" fill="white"/>
  <circle cx="15" cy="14" r="1" fill="white"/>
  <circle cx="0" cy="15" r="1" fill="srgba(0,0,102,1)"/>
  <circle cx="1" cy="15" r="1" fill="srgba(0,0,102,1)"/>
  <circle cx="2" cy="15" r="1" fill="srgba(0,0,102,1)"/>
  <circle cx="3" cy="15" r="1" fill="srgba(0,0,102,1)"/>
  <circle cx="4" cy="15" r="1" fill="srgba(0,0,102,1)"/>
  <circle cx="5" cy="15" r="1" fill="srgba(0,0,102,1)"/>
  <circle cx="6" cy="15" r="1" fill="srgba(0,0,102,1)"/>
  <circle cx="7" cy="15" r="1" fill="srgba(0,0,102,1)"/>
  <circle cx="8" cy="15" r="1" fill="srgba(0%,0%,40.322%,1)"/>
  <circle cx="9" cy="15" r="1" fill="srgba(22.7359%,22.7375%,32.9152%,1)"/>
  <circle cx="10" cy="15" r="1" fill="srgba(59.4553%,59.3484%,53.3013%,1)"/>
  <circle cx="11" cy="15" r="1" fill="srgba(97.6547%,97.6287%,99.617%,1)"/>
  <circle cx="12" cy="15" r="1" fill="white"/>
  <circle cx="13" cy="15" r="1" fill="white"/>
  <circle cx="14" cy="15" r="1" fill="white"/>
  <circle cx="15" cy="15" r="1" fill="white"/>
</svg>
