<?xml version="1.0" standalone="no"?>
<!DOCTYPE svg PUBLIC "-//W3C//DTD SVG 20010904//EN"
  "http://www.w3.org/TR/2001/REC-SVG-20010904/DTD/svg10.dtd">
<svg width="16" height="16">
  <circle cx="0" cy="0" r="1" fill="srgba(228,30,32,1)"/>
  <circle cx="1" cy="0" r="1" fill="srgba(228,30,32,1)"/>
  <circle cx="2" cy="0" r="1" fill="srgba(228,30,32,1)"/>
  <circle cx="3" cy="0" r="1" fill="srgba(228,30,32,1)"/>
  <circle cx="4" cy="0" r="1" fill="srgba(228,30,32,1)"/>
  <circle cx="5" cy="0" r="1" fill="srgba(228,30,32,1)"/>
  <circle cx="6" cy="0" r="1" fill="srgba(228,30,32,1)"/>
  <circle cx="7" cy="0" r="1" fill="srgba(228,30,32,1)"/>
  <circle cx="8" cy="0" r="1" fill="srgba(228,30,32,1)"/>
  <circle cx="9" cy="0" r="1" fill="srgba(228,30,32,1)"/>
  <circle cx="10" cy="0" r="1" fill="srgba(228,30,32,1)"/>
  <circle cx="11" cy="0" r="1" fill="srgba(228,30,32,1)"/>
  <circle cx="12" cy="0" r="1" fill="srgba(228,30,32,1)"/>
  <circle cx="13" cy="0" r="1" fill="srgba(228,30,32,1)"/>
  <circle cx="14" cy="0" r="1" fill="srgba(228,30,32,1)"/>
  <circle cx="15" cy="0" r="1" fill="srgba(228,30,32,1)"/>
  <circle cx="0" cy="1" r="1" fill="srgba(228,30,32,1)"/>
  <circle cx="1" cy="1" r="1" fill="srgba(228,30,32,1)"/>
  <circle cx="2" cy="1" r="1" fill="srgba(228,30,32,1)"/>
  <circle cx="3" cy="1" r="1" fill="srgba(228,30,32,1)"/>
  <circle cx="4" cy="1" r="1" fill="srgba(89.4102%,11.7647%,12.549%,1)"/>
  <circle cx="5" cy="1" r="1" fill="srgba(89.4789%,11.7739%,12.5582%,1)"/>
  <circle cx="6" cy="1" r="1" fill="srgba(89.5232%,11.78%,12.5643%,1)"/>
  <circle cx="7" cy="1" r="1" fill="srgba(89.4133%,11.7647%,12.549%,1)"/>
  <circle cx="8" cy="1" r="1" fill="srgba(89.4133%,11.7647%,12.549%,1)"/>
  <circle cx="9" cy="1" r="1" fill="srgba(89.5232%,11.78%,12.5643%,1)"/>
  <circle cx="10" cy="1" r="1" fill="srgba(89.4789%,11.7739%,12.5582%,1)"/>
  <circle cx="11" cy="1" r="1" fill="srgba(89.4102%,11.7647%,12.549%,1)"/>
  <circle cx="12" cy="1" r="1" fill="srgba(228,30,32,1)"/>
  <circle cx="13" cy="1" r="1" fill="srgba(228,30,32,1)"/>
  <circle cx="14" cy="1" r="1" fill="srgba(228,30,32,1)"/>
  <circle cx="15" cy="1" r="1" fill="srgba(228,30,32,1)"/>
  <circle cx="0" cy="2" r="1" fill="srgba(228,30,32,1)"/>
  <circle cx="1" cy="2" r="1" fill="srgba(228,30,32,1)"/>
  <circle cx="2" cy="2" r="1" fill="srgba(228,30,32,1)"/>
  <circle cx="3" cy="2" r="1" fill="srgba(89.4163%,11.7647%,12.549%,1)"/>
  <circle cx="4" cy="2" r="1" fill="srgba(89.3843%,11.7617%,12.546%,1)"/>
  <circle cx="5" cy="2" r="1" fill="srgba(88.2185%,11.6075%,12.3812%,1)"/>
  <circle cx="6" cy="2" r="1" fill="srgba(87.6982%,11.5389%,12.3095%,1)"/>
  <circle cx="7" cy="2" r="1" fill="srgba(90.3838%,11.8929%,12.6848%,1)"/>
  <circle cx="8" cy="2" r="1" fill="srgba(90.3838%,11.8929%,12.6848%,1)"/>
  <circle cx="9" cy="2" r="1" fill="srgba(87.6982%,11.5389%,12.3095%,1)"/>
  <circle cx="10" cy="2" r="1" fill="srgba(88.2216%,11.6075%,12.3812%,1)"/>
  <circle cx="11" cy="2" r="1" fill="srgba(89.3843%,11.7617%,12.546%,1)"/>
  <circle cx="12" cy="2" r="1" fill="srgba(89.4163%,11.7647%,12.549%,1)"/>
  <circle cx="13" cy="2" r="1" fill="srgba(228,30,32,1)"/>
  <circle cx="14" cy="2" r="1" fill="srgba(228,30,32,1)"/>
  <circle cx="15" cy="2" r="1" fill="srgba(228,30,32,1)"/>
  <circle cx="0" cy="3" r="1" fill="srgba(89.6239%,11.7922%,12.5795%,1)"/>
  <circle cx="1" cy="3" r="1" fill="srgba(89.6437%,11.7952%,12.5811%,1)"/>
  <circle cx="2" cy="3" r="1" fill="srgba(89.6681%,11.7983%,12.5856%,1)"/>
  <circle cx="3" cy="3" r="1" fill="srgba(89.7612%,11.8105%,12.5978%,1)"/>
  <circle cx="4" cy="3" r="1" fill="srgba(89.2073%,11.7372%,12.52%,1)"/>
  <circle cx="5" cy="3" r="1" fill="srgba(60.4181%,7.95148%,8.47944%,1)"/>
  <circle cx="6" cy="3" r="1" fill="srgba(49.8878%,6.56596%,7.00237%,1)"/>
  <circle cx="7" cy="3" r="1" fill="srgba(64.0787%,8.43214%,8.99214%,1)"/>
  <circle cx="8" cy="3" r="1" fill="srgba(64.0681%,8.43061%,8.99214%,1)"/>
  <circle cx="9" cy="3" r="1" fill="srgba(49.8802%,6.56443%,6.99931%,1)"/>
  <circle cx="10" cy="3" r="1" fill="srgba(60.4273%,7.95148%,8.47944%,1)"/>
  <circle cx="11" cy="3" r="1" fill="srgba(89.2103%,11.7388%,12.52%,1)"/>
  <circle cx="12" cy="3" r="1" fill="srgba(89.7612%,11.8105%,12.5978%,1)"/>
  <circle cx="13" cy="3" r="1" fill="srgba(89.6681%,11.7983%,12.5856%,1)"/>
  <circle cx="14" cy="3" r="1" fill="srgba(89.6437%,11.7952%,12.5811%,1)"/>
  <circle cx="15" cy="3" r="1" fill="srgba(89.6239%,11.7922%,12.5795%,1)"/>
  <circle cx="0" cy="4" r="1" fill="srgba(85.9236%,11.3054%,12.0592%,1)"/>
  <circle cx="1" cy="4" r="1" fill="srgba(85.6291%,11.2673%,12.018%,1)"/>
  <circle cx="2" cy="4" r="1" fill="srgba(85.2506%,11.2169%,11.9646%,1)"/>
  <circle cx="3" cy="4" r="1" fill="srgba(84.8142%,11.1589%,11.9036%,1)"/>
  <circle cx="4" cy="4" r="1" fill="srgba(84.7974%,11.1574%,11.902%,1)"/>
  <circle cx="5" cy="4" r="1" fill="srgba(48.4947%,6.38132%,6.80705%,1)"/>
  <circle cx="6" cy="4" r="1" fill="srgba(31.4824%,4.14435%,4.42206%,1)"/>
  <circle cx="7" cy="4" r="1" fill="srgba(18.2208%,2.39872%,2.55589%,1)"/>
  <circle cx="8" cy="4" r="1" fill="srgba(18.2223%,2.39872%,2.55741%,1)"/>
  <circle cx="9" cy="4" r="1" fill="srgba(31.4672%,4.14282%,4.41901%,1)"/>
  <circle cx="10" cy="4" r="1" fill="srgba(48.4962%,6.38132%,6.80705%,1)"/>
  <circle cx="11" cy="4" r="1" fill="srgba(84.799%,11.1574%,11.902%,1)"/>
  <circle cx="12" cy="4" r="1" fill="srgba(84.8142%,11.1589%,11.9036%,1)"/>
  <circle cx="13" cy="4" r="1" fill="srgba(85.2522%,11.2169%,11.9646%,1)"/>
  <circle cx="14" cy="4" r="1" fill="srgba(85.6291%,11.2673%,12.018%,1)"/>
  <circle cx="15" cy="4" r="1" fill="srgba(85.9251%,11.3054%,12.0592%,1)"/>
  <circle cx="0" cy="5" r="1" fill="srgba(21.6876%,2.85344%,3.04417%,1)"/>
  <circle cx="1" cy="5" r="1" fill="srgba(21.0361%,2.76799%,2.95109%,1)"/>
  <circle cx="2" cy="5" r="1" fill="srgba(20.2457%,2.66423%,2.84123%,1)"/>
  <circle cx="3" cy="5" r="1" fill="srgba(19.3515%,2.54673%,2.71611%,1)"/>
  <circle cx="4" cy="5" r="1" fill="srgba(18.4573%,2.42924%,2.59098%,1)"/>
  <circle cx="5" cy="5" r="1" fill="srgba(10.3807%,1.36568%,1.45724%,1)"/>
  <circle cx="6" cy="5" r="1" fill="srgba(5.13771%,0.675975%,0.721752%,1)"/>
  <circle cx="7" cy="5" r="1" fill="srgba(1.85702%,0.244144%,0.260929%,1)"/>
  <circle cx="8" cy="5" r="1" fill="srgba(1.85702%,0.244144%,0.260929%,1)"/>
  <circle cx="9" cy="5" r="1" fill="srgba(5.13771%,0.675975%,0.721752%,1)"/>
  <circle cx="10" cy="5" r="1" fill="srgba(10.3853%,1.36721%,1.45724%,1)"/>
  <circle cx="11" cy="5" r="1" fill="srgba(18.4588%,2.42924%,2.59098%,1)"/>
  <circle cx="12" cy="5" r="1" fill="srgba(19.3515%,2.54673%,2.71611%,1)"/>
  <circle cx="13" cy="5" r="1" fill="srgba(20.2457%,2.66423%,2.84123%,1)"/>
  <circle cx="14" cy="5" r="1" fill="srgba(21.0361%,2.76799%,2.95109%,1)"/>
  <circle cx="15" cy="5" r="1" fill="srgba(21.6876%,2.85344%,3.04417%,1)"/>
  <circle cx="0" cy="6" r="1" fill="black"/>
  <circle cx="1" cy="6" r="1" fill="black"/>
  <circle cx="2" cy="6" r="1" fill="black"/>
  <circle cx="3" cy="6" r="1" fill="black"/>
  <circle cx="4" cy="6" r="1" fill="black"/>
  <circle cx="5" cy="6" r="1" fill="srgba(0.0442512%,0.00610361%,0.00610361%,1)"/>
  <circle cx="6" cy="6" r="1" fill="srgba(0.0167849%,0.0015259%,0.0030518%,1)"/>
  <circle cx="7" cy="6" r="1" fill="black"/>
  <circle cx="8" cy="6" r="1" fill="black"/>
  <circle cx="9" cy="6" r="1" fill="srgba(0.0183108%,0.0030518%,0.0030518%,1)"/>
  <circle cx="10" cy="6" r="1" fill="srgba(0.0457771%,0.00610361%,0.00610361%,1)"/>
  <circle cx="11" cy="6" r="1" fill="black"/>
  <circle cx="12" cy="6" r="1" fill="black"/>
  <circle cx="13" cy="6" r="1" fill="black"/>
  <circle cx="14" cy="6" r="1" fill="black"/>
  <circle cx="15" cy="6" r="1" fill="black"/>
  <circle cx="0" cy="7" r="1" fill="srgba(57.3999%,7.55322%,8.05676%,1)"/>
  <circle cx="1" cy="7" r="1" fill="srgba(56.4096%,7.42199%,7.91638%,1)"/>
  <circle cx="2" cy="7" r="1" fill="srgba(55.1858%,7.26177%,7.74548%,1)"/>
  <circle cx="3" cy="7" r="1" fill="srgba(52.6925%,6.93217%,7.39605%,1)"/>
  <circle cx="4" cy="7" r="1" fill="srgba(27.3884%,3.60418%,3.84375%,1)"/>
  <circle cx="5" cy="7" r="1" fill="srgba(11.9783%,1.57778%,1.68002%,1)"/>
  <circle cx="6" cy="7" r="1" fill="srgba(28.0171%,3.68658%,3.93072%,1)"/>
  <circle cx="7" cy="7" r="1" fill="srgba(44.5289%,5.85946%,6.2501%,1)"/>
  <circle cx="8" cy="7" r="1" fill="srgba(44.5274%,5.85946%,6.2501%,1)"/>
  <circle cx="9" cy="7" r="1" fill="srgba(28.0125%,3.68505%,3.93072%,1)"/>
  <circle cx="10" cy="7" r="1" fill="srgba(11.9799%,1.57473%,1.68002%,1)"/>
  <circle cx="11" cy="7" r="1" fill="srgba(27.4022%,3.60571%,3.84527%,1)"/>
  <circle cx="12" cy="7" r="1" fill="srgba(52.6986%,6.9337%,7.39605%,1)"/>
  <circle cx="13" cy="7" r="1" fill="srgba(55.1873%,7.26177%,7.74548%,1)"/>
  <circle cx="14" cy="7" r="1" fill="srgba(56.4096%,7.42199%,7.91638%,1)"/>
  <circle cx="15" cy="7" r="1" fill="srgba(57.4014%,7.55322%,8.05676%,1)"/>
  <circle cx="0" cy="8" r="1" fill="srgba(90.4311%,11.899%,12.6925%,1)"/>
  <circle cx="1" cy="8" r="1" fill="srgba(90.4204%,11.8975%,12.6894%,1)"/>
  <circle cx="2" cy="8" r="1" fill="srgba(90.8888%,11.96%,12.7535%,1)"/>
  <circle cx="3" cy="8" r="1" fill="srgba(81.5137%,10.7256%,11.4382%,1)"/>
  <circle cx="4" cy="8" r="1" fill="srgba(14.2%,1.8677%,1.99283%,1)"/>
  <circle cx="5" cy="8" r="1" fill="srgba(10.0938%,1.32906%,1.41756%,1)"/>
  <circle cx="6" cy="8" r="1" fill="srgba(19.9008%,2.61845%,2.7924%,1)"/>
  <circle cx="7" cy="8" r="1" fill="srgba(62.501%,8.22309%,8.77241%,1)"/>
  <circle cx="8" cy="8" r="1" fill="srgba(62.4872%,8.22156%,8.76936%,1)"/>
  <circle cx="9" cy="8" r="1" fill="srgba(19.8947%,2.61692%,2.79088%,1)"/>
  <circle cx="10" cy="8" r="1" fill="srgba(10.0771%,1.32448%,1.41299%,1)"/>
  <circle cx="11" cy="8" r="1" fill="srgba(14.2306%,1.87228%,1.99741%,1)"/>
  <circle cx="12" cy="8" r="1" fill="srgba(81.5381%,10.7286%,11.4412%,1)"/>
  <circle cx="13" cy="8" r="1" fill="srgba(90.8873%,11.9585%,12.7535%,1)"/>
  <circle cx="14" cy="8" r="1" fill="srgba(90.4204%,11.8975%,12.6894%,1)"/>
  <circle cx="15" cy="8" r="1" fill="srgba(90.4311%,11.899%,12.6925%,1)"/>
  <circle cx="0" cy="9" r="1" fill="srgba(88.3726%,11.6289%,12.4041%,1)"/>
  <circle cx="1" cy="9" r="1" fill="srgba(88.3436%,11.6243%,12.3995%,1)"/>
  <circle cx="2" cy="9" r="1" fill="srgba(89.131%,11.7281%,12.5048%,1)"/>
  <circle cx="3" cy="9" r="1" fill="srgba(71.7311%,9.43771%,10.0618%,1)"/>
  <circle cx="4" cy="9" r="1" fill="srgba(17.7707%,2.33768%,2.49332%,1)"/>
  <circle cx="5" cy="9" r="1" fill="srgba(26.0502%,3.4287%,3.65606%,1)"/>
  <circle cx="6" cy="9" r="1" fill="srgba(13.518%,1.7792%,1.8967%,1)"/>
  <circle cx="7" cy="9" r="1" fill="srgba(13.9666%,1.83566%,1.96078%,1)"/>
  <circle cx="8" cy="9" r="1" fill="srgba(13.9605%,1.83566%,1.95926%,1)"/>
  <circle cx="9" cy="9" r="1" fill="srgba(13.5241%,1.78073%,1.8967%,1)"/>
  <circle cx="10" cy="9" r="1" fill="srgba(26.0441%,3.42565%,3.65301%,1)"/>
  <circle cx="11" cy="9" r="1" fill="srgba(17.7829%,2.33921%,2.49485%,1)"/>
  <circle cx="12" cy="9" r="1" fill="srgba(71.7571%,9.44076%,10.0664%,1)"/>
  <circle cx="13" cy="9" r="1" fill="srgba(89.1295%,11.7281%,12.5048%,1)"/>
  <circle cx="14" cy="9" r="1" fill="srgba(88.3436%,11.6243%,12.3995%,1)"/>
  <circle cx="15" cy="9" r="1" fill="srgba(88.3726%,11.6289%,12.4041%,1)"/>
  <circle cx="0" cy="10" r="1" fill="srgba(89.4621%,11.7708%,12.5566%,1)"/>
  <circle cx="1" cy="10" r="1" fill="srgba(89.4636%,11.7708%,12.5566%,1)"/>
  <circle cx="2" cy="10" r="1" fill="srgba(90.1732%,11.8639%,12.6558%,1)"/>
  <circle cx="3" cy="10" r="1" fill="srgba(77.1328%,10.1488%,10.8248%,1)"/>
  <circle cx="4" cy="10" r="1" fill="srgba(49.3599%,6.49424%,6.9276%,1)"/>
  <circle cx="5" cy="10" r="1" fill="srgba(49.2287%,6.47745%,6.90776%,1)"/>
  <circle cx="6" cy="10" r="1" fill="srgba(29.6574%,3.90173%,4.16266%,1)"/>
  <circle cx="7" cy="10" r="1" fill="srgba(1.48165%,0.195315%,0.207523%,1)"/>
  <circle cx="8" cy="10" r="1" fill="srgba(1.48775%,0.195315%,0.209049%,1)"/>
  <circle cx="9" cy="10" r="1" fill="srgba(29.6696%,3.90631%,4.16419%,1)"/>
  <circle cx="10" cy="10" r="1" fill="srgba(49.2378%,6.47898%,6.90929%,1)"/>
  <circle cx="11" cy="10" r="1" fill="srgba(49.369%,6.49577%,6.9276%,1)"/>
  <circle cx="12" cy="10" r="1" fill="srgba(77.1466%,10.1488%,10.8278%,1)"/>
  <circle cx="13" cy="10" r="1" fill="srgba(90.1717%,11.8639%,12.6558%,1)"/>
  <circle cx="14" cy="10" r="1" fill="srgba(89.4636%,11.7708%,12.5566%,1)"/>
  <circle cx="15" cy="10" r="1" fill="srgba(89.4621%,11.7708%,12.5566%,1)"/>
  <circle cx="0" cy="11" r="1" fill="srgba(228,30,32,1)"/>
  <circle cx="1" cy="11" r="1" fill="srgba(228,30,32,1)"/>
  <circle cx="2" cy="11" r="1" fill="srgba(90.277%,11.8791%,12.6711%,1)"/>
  <circle cx="3" cy="11" r="1" fill="srgba(75.0469%,9.87411%,10.5333%,1)"/>
  <circle cx="4" cy="11" r="1" fill="srgba(38.2696%,5.03548%,5.37118%,1)"/>
  <circle cx="5" cy="11" r="1" fill="srgba(36.6873%,4.8249%,5.15145%,1)"/>
  <circle cx="6" cy="11" r="1" fill="srgba(8.18494%,1.07576%,1.15053%,1)"/>
  <circle cx="7" cy="11" r="1" fill="black"/>
  <circle cx="8" cy="11" r="1" fill="black"/>
  <circle cx="9" cy="11" r="1" fill="srgba(8.19867%,1.07881%,1.15053%,1)"/>
  <circle cx="10" cy="11" r="1" fill="srgba(36.7117%,4.83253%,5.15145%,1)"/>
  <circle cx="11" cy="11" r="1" fill="srgba(38.2803%,5.037%,5.37118%,1)"/>
  <circle cx="12" cy="11" r="1" fill="srgba(75.0729%,9.87716%,10.5364%,1)"/>
  <circle cx="13" cy="11" r="1" fill="srgba(90.2754%,11.8791%,12.6711%,1)"/>
  <circle cx="14" cy="11" r="1" fill="srgba(228,30,32,1)"/>
  <circle cx="15" cy="11" r="1" fill="srgba(228,30,32,1)"/>
  <circle cx="0" cy="12" r="1" fill="srgba(228,30,32,1)"/>
  <circle cx="1" cy="12" r="1" fill="srgba(228,30,32,1)"/>
  <circle cx="2" cy="12" r="1" fill="srgba(90.6477%,11.928%,12.723%,1)"/>
  <circle cx="3" cy="12" r="1" fill="srgba(69.0517%,9.08522%,9.691%,1)"/>
  <circle cx="4" cy="12" r="1" fill="srgba(3.88647%,0.511177%,0.544747%,1)"/>
  <circle cx="5" cy="12" r="1" fill="srgba(8.336%,1.09407%,1.17189%,1)"/>
  <circle cx="6" cy="12" r="1" fill="srgba(5.19722%,0.683604%,0.729381%,1)"/>
  <circle cx="7" cy="12" r="1" fill="black"/>
  <circle cx="8" cy="12" r="1" fill="black"/>
  <circle cx="9" cy="12" r="1" fill="srgba(5.20485%,0.68513%,0.730907%,1)"/>
  <circle cx="10" cy="12" r="1" fill="srgba(8.32685%,1.0956%,1.16732%,1)"/>
  <circle cx="11" cy="12" r="1" fill="srgba(3.90326%,0.514229%,0.547799%,1)"/>
  <circle cx="12" cy="12" r="1" fill="srgba(69.0852%,9.09133%,9.69558%,1)"/>
  <circle cx="13" cy="12" r="1" fill="srgba(90.6462%,11.9265%,12.7214%,1)"/>
  <circle cx="14" cy="12" r="1" fill="srgba(228,30,32,1)"/>
  <circle cx="15" cy="12" r="1" fill="srgba(228,30,32,1)"/>
  <circle cx="0" cy="13" r="1" fill="srgba(228,30,32,1)"/>
  <circle cx="1" cy="13" r="1" fill="srgba(228,30,32,1)"/>
  <circle cx="2" cy="13" r="1" fill="srgba(90.7805%,11.9448%,12.7413%,1)"/>
  <circle cx="3" cy="13" r="1" fill="srgba(66.3859%,8.73426%,9.31716%,1)"/>
  <circle cx="4" cy="13" r="1" fill="srgba(2.70848%,0.357061%,0.37995%,1)"/>
  <circle cx="5" cy="13" r="1" fill="srgba(6.34775%,0.834668%,0.891127%,1)"/>
  <circle cx="6" cy="13" r="1" fill="srgba(7.65545%,1.0071%,1.07424%,1)"/>
  <circle cx="7" cy="13" r="1" fill="srgba(10.8614%,1.42977%,1.52438%,1)"/>
  <circle cx="8" cy="13" r="1" fill="srgba(10.8614%,1.42977%,1.52438%,1)"/>
  <circle cx="9" cy="13" r="1" fill="srgba(7.65545%,1.0071%,1.07424%,1)"/>
  <circle cx="10" cy="13" r="1" fill="srgba(6.33707%,0.833143%,0.889601%,1)"/>
  <circle cx="11" cy="13" r="1" fill="srgba(2.71763%,0.357061%,0.381476%,1)"/>
  <circle cx="12" cy="13" r="1" fill="srgba(66.4088%,8.73732%,9.32021%,1)"/>
  <circle cx="13" cy="13" r="1" fill="srgba(90.779%,11.9448%,12.7413%,1)"/>
  <circle cx="14" cy="13" r="1" fill="srgba(228,30,32,1)"/>
  <circle cx="15" cy="13" r="1" fill="srgba(228,30,32,1)"/>
  <circle cx="0" cy="14" r="1" fill="srgba(89.1142%,11.725%,12.5078%,1)"/>
  <circle cx="1" cy="14" r="1" fill="srgba(89.0288%,11.7144%,12.4956%,1)"/>
  <circle cx="2" cy="14" r="1" fill="srgba(89.752%,11.809%,12.5963%,1)"/>
  <circle cx="3" cy="14" r="1" fill="srgba(66.8818%,8.79988%,9.38582%,1)"/>
  <circle cx="4" cy="14" r="1" fill="srgba(17.0306%,2.24002%,2.38956%,1)"/>
  <circle cx="5" cy="14" r="1" fill="srgba(19.8428%,2.61234%,2.78477%,1)"/>
  <circle cx="6" cy="14" r="1" fill="srgba(37.0153%,4.87068%,5.1957%,1)"/>
  <circle cx="7" cy="14" r="1" fill="srgba(27.01%,3.55383%,3.79034%,1)"/>
  <circle cx="8" cy="14" r="1" fill="srgba(27.0161%,3.55535%,3.79187%,1)"/>
  <circle cx="9" cy="14" r="1" fill="srgba(37.0031%,4.86915%,5.19417%,1)"/>
  <circle cx="10" cy="14" r="1" fill="srgba(19.8367%,2.61082%,2.78325%,1)"/>
  <circle cx="11" cy="14" r="1" fill="srgba(17.0352%,2.24155%,2.39109%,1)"/>
  <circle cx="12" cy="14" r="1" fill="srgba(66.8971%,8.8014%,9.38888%,1)"/>
  <circle cx="13" cy="14" r="1" fill="srgba(89.752%,11.809%,12.5963%,1)"/>
  <circle cx="14" cy="14" r="1" fill="srgba(89.0288%,11.7144%,12.4956%,1)"/>
  <circle cx="15" cy="14" r="1" fill="srgba(89.1142%,11.725%,12.5078%,1)"/>
  <circle cx="0" cy="15" r="1" fill="srgba(83.3448%,10.9667%,11.6976%,1)"/>
  <circle cx="1" cy="15" r="1" fill="srgba(81.6358%,10.7408%,11.458%,1)"/>
  <circle cx="2" cy="15" r="1" fill="srgba(80.2182%,10.5547%,11.2566%,1)"/>
  <circle cx="3" cy="15" r="1" fill="srgba(55.9091%,7.3579%,7.84619%,1)"/>
  <circle cx="4" cy="15" r="1" fill="srgba(32.9946%,4.34272%,4.62959%,1)"/>
  <circle cx="5" cy="15" r="1" fill="srgba(50.042%,6.58427%,7.02068%,1)"/>
  <circle cx="6" cy="15" r="1" fill="srgba(34.9966%,4.60365%,4.91341%,1)"/>
  <circle cx="7" cy="15" r="1" fill="srgba(6.82689%,0.898756%,0.958267%,1)"/>
  <circle cx="8" cy="15" r="1" fill="srgba(6.83604%,0.898756%,0.958267%,1)"/>
  <circle cx="9" cy="15" r="1" fill="srgba(35.0149%,4.60517%,4.91493%,1)"/>
  <circle cx="10" cy="15" r="1" fill="srgba(50.0389%,6.58427%,7.02068%,1)"/>
  <circle cx="11" cy="15" r="1" fill="srgba(32.987%,4.34119%,4.62806%,1)"/>
  <circle cx="12" cy="15" r="1" fill="srgba(55.9457%,7.36095%,7.85229%,1)"/>
  <circle cx="13" cy="15" r="1" fill="srgba(80.2213%,10.5547%,11.2581%,1)"/>
  <circle cx="14" cy="15" r="1" fill="srgba(81.6373%,10.7408%,11.458%,1)"/>
  <circle cx="15" cy="15" r="1" fill="srgba(83.3448%,10.9667%,11.6976%,1)"/>
</svg>
