<?xml version="1.0" standalone="no"?>
<!DOCTYPE svg PUBLIC "-//W3C//DTD SVG 20010904//EN"
  "http://www.w3.org/TR/2001/REC-SVG-20010904/DTD/svg10.dtd">
<svg width="16" height="16">
  <circle cx="0" cy="0" r="1" fill="srgba(100%,0.0457771%,0.0457771%,1)"/>
  <circle cx="1" cy="0" r="1" fill="red"/>
  <circle cx="2" cy="0" r="1" fill="red"/>
  <circle cx="3" cy="0" r="1" fill="red"/>
  <circle cx="4" cy="0" r="1" fill="red"/>
  <circle cx="5" cy="0" r="1" fill="red"/>
  <circle cx="6" cy="0" r="1" fill="red"/>
  <circle cx="7" cy="0" r="1" fill="red"/>
  <circle cx="8" cy="0" r="1" fill="red"/>
  <circle cx="9" cy="0" r="1" fill="red"/>
  <circle cx="10" cy="0" r="1" fill="red"/>
  <circle cx="11" cy="0" r="1" fill="red"/>
  <circle cx="12" cy="0" r="1" fill="red"/>
  <circle cx="13" cy="0" r="1" fill="red"/>
  <circle cx="14" cy="0" r="1" fill="red"/>
  <circle cx="15" cy="0" r="1" fill="srgba(100%,0.0610361%,0.0610361%,1)"/>
  <circle cx="0" cy="1" r="1" fill="srgba(100%,0.0457771%,0.0457771%,1)"/>
  <circle cx="1" cy="1" r="1" fill="red"/>
  <circle cx="2" cy="1" r="1" fill="red"/>
  <circle cx="3" cy="1" r="1" fill="red"/>
  <circle cx="4" cy="1" r="1" fill="red"/>
  <circle cx="5" cy="1" r="1" fill="red"/>
  <circle cx="6" cy="1" r="1" fill="red"/>
  <circle cx="7" cy="1" r="1" fill="red"/>
  <circle cx="8" cy="1" r="1" fill="red"/>
  <circle cx="9" cy="1" r="1" fill="red"/>
  <circle cx="10" cy="1" r="1" fill="red"/>
  <circle cx="11" cy="1" r="1" fill="red"/>
  <circle cx="12" cy="1" r="1" fill="red"/>
  <circle cx="13" cy="1" r="1" fill="red"/>
  <circle cx="14" cy="1" r="1" fill="red"/>
  <circle cx="15" cy="1" r="1" fill="srgba(100%,0.0610361%,0.0610361%,1)"/>
  <circle cx="0" cy="2" r="1" fill="srgba(100%,0.0457771%,0.0457771%,1)"/>
  <circle cx="1" cy="2" r="1" fill="red"/>
  <circle cx="2" cy="2" r="1" fill="red"/>
  <circle cx="3" cy="2" r="1" fill="red"/>
  <circle cx="4" cy="2" r="1" fill="red"/>
  <circle cx="5" cy="2" r="1" fill="red"/>
  <circle cx="6" cy="2" r="1" fill="red"/>
  <circle cx="7" cy="2" r="1" fill="red"/>
  <circle cx="8" cy="2" r="1" fill="red"/>
  <circle cx="9" cy="2" r="1" fill="red"/>
  <circle cx="10" cy="2" r="1" fill="red"/>
  <circle cx="11" cy="2" r="1" fill="red"/>
  <circle cx="12" cy="2" r="1" fill="red"/>
  <circle cx="13" cy="2" r="1" fill="red"/>
  <circle cx="14" cy="2" r="1" fill="red"/>
  <circle cx="15" cy="2" r="1" fill="srgba(100%,0.0610361%,0.0610361%,1)"/>
  <circle cx="0" cy="3" r="1" fill="srgba(100%,0.0457771%,0.0457771%,1)"/>
  <circle cx="1" cy="3" r="1" fill="red"/>
  <circle cx="2" cy="3" r="1" fill="red"/>
  <circle cx="3" cy="3" r="1" fill="red"/>
  <circle cx="4" cy="3" r="1" fill="red"/>
  <circle cx="5" cy="3" r="1" fill="red"/>
  <circle cx="6" cy="3" r="1" fill="red"/>
  <circle cx="7" cy="3" r="1" fill="red"/>
  <circle cx="8" cy="3" r="1" fill="red"/>
  <circle cx="9" cy="3" r="1" fill="red"/>
  <circle cx="10" cy="3" r="1" fill="red"/>
  <circle cx="11" cy="3" r="1" fill="red"/>
  <circle cx="12" cy="3" r="1" fill="red"/>
  <circle cx="13" cy="3" r="1" fill="red"/>
  <circle cx="14" cy="3" r="1" fill="red"/>
  <circle cx="15" cy="3" r="1" fill="srgba(100%,0.0610361%,0.0610361%,1)"/>
  <circle cx="0" cy="4" r="1" fill="srgba(99.5407%,0.173953%,0.633249%,1)"/>
  <circle cx="1" cy="4" r="1" fill="srgba(99.5407%,0.125124%,0.584421%,1)"/>
  <circle cx="2" cy="4" r="1" fill="srgba(99.5407%,0.128176%,0.587472%,1)"/>
  <circle cx="3" cy="4" r="1" fill="srgba(99.5407%,0.128176%,0.587472%,1)"/>
  <circle cx="4" cy="4" r="1" fill="srgba(99.5407%,0.128176%,0.587472%,1)"/>
  <circle cx="5" cy="4" r="1" fill="srgba(99.5407%,0.128176%,0.587472%,1)"/>
  <circle cx="6" cy="4" r="1" fill="srgba(99.5407%,0.128176%,0.587472%,1)"/>
  <circle cx="7" cy="4" r="1" fill="srgba(99.5407%,0.128176%,0.587472%,1)"/>
  <circle cx="8" cy="4" r="1" fill="srgba(99.5407%,0.128176%,0.587472%,1)"/>
  <circle cx="9" cy="4" r="1" fill="srgba(99.5407%,0.128176%,0.587472%,1)"/>
  <circle cx="10" cy="4" r="1" fill="srgba(99.5407%,0.128176%,0.587472%,1)"/>
  <circle cx="11" cy="4" r="1" fill="srgba(99.5407%,0.128176%,0.587472%,1)"/>
  <circle cx="12" cy="4" r="1" fill="srgba(99.5407%,0.128176%,0.587472%,1)"/>
  <circle cx="13" cy="4" r="1" fill="srgba(99.5407%,0.128176%,0.587472%,1)"/>
  <circle cx="14" cy="4" r="1" fill="srgba(99.5407%,0.125124%,0.584421%,1)"/>
  <circle cx="15" cy="4" r="1" fill="srgba(99.5407%,0.189212%,0.648508%,1)"/>
  <circle cx="0" cy="5" r="1" fill="srgba(35.4437%,0.639353%,65.1957%,1)"/>
  <circle cx="1" cy="5" r="1" fill="srgba(35.4116%,0.590524%,65.1789%,1)"/>
  <circle cx="2" cy="5" r="1" fill="srgba(35.4131%,0.593576%,65.1804%,1)"/>
  <circle cx="3" cy="5" r="1" fill="srgba(35.4131%,0.593576%,65.1804%,1)"/>
  <circle cx="4" cy="5" r="1" fill="srgba(35.4131%,0.593576%,65.1804%,1)"/>
  <circle cx="5" cy="5" r="1" fill="srgba(35.4131%,0.593576%,65.1804%,1)"/>
  <circle cx="6" cy="5" r="1" fill="srgba(35.4131%,0.593576%,65.1804%,1)"/>
  <circle cx="7" cy="5" r="1" fill="srgba(35.4131%,0.593576%,65.1804%,1)"/>
  <circle cx="8" cy="5" r="1" fill="srgba(35.4131%,0.593576%,65.1804%,1)"/>
  <circle cx="9" cy="5" r="1" fill="srgba(35.4131%,0.593576%,65.1804%,1)"/>
  <circle cx="10" cy="5" r="1" fill="srgba(35.4131%,0.593576%,65.1804%,1)"/>
  <circle cx="11" cy="5" r="1" fill="srgba(35.4131%,0.593576%,65.1804%,1)"/>
  <circle cx="12" cy="5" r="1" fill="srgba(35.4131%,0.593576%,65.1804%,1)"/>
  <circle cx="13" cy="5" r="1" fill="srgba(35.4131%,0.593576%,65.1804%,1)"/>
  <circle cx="14" cy="5" r="1" fill="srgba(35.4116%,0.590524%,65.1789%,1)"/>
  <circle cx="15" cy="5" r="1" fill="srgba(35.4528%,0.654612%,65.2018%,1)"/>
  <circle cx="0" cy="6" r="1" fill="srgba(0.0122072%,0.0457771%,100%,1)"/>
  <circle cx="1" cy="6" r="1" fill="blue"/>
  <circle cx="2" cy="6" r="1" fill="blue"/>
  <circle cx="3" cy="6" r="1" fill="blue"/>
  <circle cx="4" cy="6" r="1" fill="blue"/>
  <circle cx="5" cy="6" r="1" fill="blue"/>
  <circle cx="6" cy="6" r="1" fill="blue"/>
  <circle cx="7" cy="6" r="1" fill="blue"/>
  <circle cx="8" cy="6" r="1" fill="blue"/>
  <circle cx="9" cy="6" r="1" fill="blue"/>
  <circle cx="10" cy="6" r="1" fill="blue"/>
  <circle cx="11" cy="6" r="1" fill="blue"/>
  <circle cx="12" cy="6" r="1" fill="blue"/>
  <circle cx="13" cy="6" r="1" fill="blue"/>
  <circle cx="14" cy="6" r="1" fill="blue"/>
  <circle cx="15" cy="6" r="1" fill="srgba(0.0289921%,0.0610361%,100%,1)"/>
  <circle cx="0" cy="7" r="1" fill="srgba(0.0457771%,0.0457771%,100%,1)"/>
  <circle cx="1" cy="7" r="1" fill="blue"/>
  <circle cx="2" cy="7" r="1" fill="blue"/>
  <circle cx="3" cy="7" r="1" fill="blue"/>
  <circle cx="4" cy="7" r="1" fill="blue"/>
  <circle cx="5" cy="7" r="1" fill="blue"/>
  <circle cx="6" cy="7" r="1" fill="blue"/>
  <circle cx="7" cy="7" r="1" fill="blue"/>
  <circle cx="8" cy="7" r="1" fill="blue"/>
  <circle cx="9" cy="7" r="1" fill="blue"/>
  <circle cx="10" cy="7" r="1" fill="blue"/>
  <circle cx="11" cy="7" r="1" fill="blue"/>
  <circle cx="12" cy="7" r="1" fill="blue"/>
  <circle cx="13" cy="7" r="1" fill="blue"/>
  <circle cx="14" cy="7" r="1" fill="blue"/>
  <circle cx="15" cy="7" r="1" fill="srgba(0.0610361%,0.0610361%,100%,1)"/>
  <circle cx="0" cy="8" r="1" fill="srgba(0.0457771%,0.0457771%,100%,1)"/>
  <circle cx="1" cy="8" r="1" fill="blue"/>
  <circle cx="2" cy="8" r="1" fill="blue"/>
  <circle cx="3" cy="8" r="1" fill="blue"/>
  <circle cx="4" cy="8" r="1" fill="blue"/>
  <circle cx="5" cy="8" r="1" fill="blue"/>
  <circle cx="6" cy="8" r="1" fill="blue"/>
  <circle cx="7" cy="8" r="1" fill="blue"/>
  <circle cx="8" cy="8" r="1" fill="blue"/>
  <circle cx="9" cy="8" r="1" fill="blue"/>
  <circle cx="10" cy="8" r="1" fill="blue"/>
  <circle cx="11" cy="8" r="1" fill="blue"/>
  <circle cx="12" cy="8" r="1" fill="blue"/>
  <circle cx="13" cy="8" r="1" fill="blue"/>
  <circle cx="14" cy="8" r="1" fill="blue"/>
  <circle cx="15" cy="8" r="1" fill="srgba(0.0610361%,0.0610361%,100%,1)"/>
  <circle cx="0" cy="9" r="1" fill="srgba(0.0122072%,0.0244144%,100%,1)"/>
  <circle cx="1" cy="9" r="1" fill="blue"/>
  <circle cx="2" cy="9" r="1" fill="blue"/>
  <circle cx="3" cy="9" r="1" fill="blue"/>
  <circle cx="4" cy="9" r="1" fill="blue"/>
  <circle cx="5" cy="9" r="1" fill="blue"/>
  <circle cx="6" cy="9" r="1" fill="blue"/>
  <circle cx="7" cy="9" r="1" fill="blue"/>
  <circle cx="8" cy="9" r="1" fill="blue"/>
  <circle cx="9" cy="9" r="1" fill="blue"/>
  <circle cx="10" cy="9" r="1" fill="blue"/>
  <circle cx="11" cy="9" r="1" fill="blue"/>
  <circle cx="12" cy="9" r="1" fill="blue"/>
  <circle cx="13" cy="9" r="1" fill="blue"/>
  <circle cx="14" cy="9" r="1" fill="blue"/>
  <circle cx="15" cy="9" r="1" fill="srgba(0.0289921%,0.0396735%,100%,1)"/>
  <circle cx="0" cy="10" r="1" fill="srgba(36.1501%,23.5935%,64.4282%,1)"/>
  <circle cx="1" cy="10" r="1" fill="srgba(36.1196%,23.5569%,64.4099%,1)"/>
  <circle cx="2" cy="10" r="1" fill="srgba(36.1212%,23.5584%,64.4114%,1)"/>
  <circle cx="3" cy="10" r="1" fill="srgba(36.1212%,23.5584%,64.4114%,1)"/>
  <circle cx="4" cy="10" r="1" fill="srgba(36.1212%,23.5584%,64.4114%,1)"/>
  <circle cx="5" cy="10" r="1" fill="srgba(36.1212%,23.5584%,64.4114%,1)"/>
  <circle cx="6" cy="10" r="1" fill="srgba(36.1212%,23.5584%,64.4114%,1)"/>
  <circle cx="7" cy="10" r="1" fill="srgba(36.1212%,23.5584%,64.4114%,1)"/>
  <circle cx="8" cy="10" r="1" fill="srgba(36.1212%,23.5584%,64.4114%,1)"/>
  <circle cx="9" cy="10" r="1" fill="srgba(36.1212%,23.5584%,64.4114%,1)"/>
  <circle cx="10" cy="10" r="1" fill="srgba(36.1212%,23.5584%,64.4114%,1)"/>
  <circle cx="11" cy="10" r="1" fill="srgba(36.1212%,23.5584%,64.4114%,1)"/>
  <circle cx="12" cy="10" r="1" fill="srgba(36.1212%,23.5584%,64.4114%,1)"/>
  <circle cx="13" cy="10" r="1" fill="srgba(36.1212%,23.5584%,64.4114%,1)"/>
  <circle cx="14" cy="10" r="1" fill="srgba(36.1196%,23.5554%,64.4099%,1)"/>
  <circle cx="15" cy="10" r="1" fill="srgba(36.1608%,23.6057%,64.4343%,1)"/>
  <circle cx="0" cy="11" r="1" fill="srgba(99.6918%,64.5624%,0.468452%,1)"/>
  <circle cx="1" cy="11" r="1" fill="srgba(99.6918%,64.5457%,0.419623%,1)"/>
  <circle cx="2" cy="11" r="1" fill="srgba(99.6918%,64.5472%,0.422675%,1)"/>
  <circle cx="3" cy="11" r="1" fill="srgba(99.6918%,64.5472%,0.422675%,1)"/>
  <circle cx="4" cy="11" r="1" fill="srgba(99.6918%,64.5472%,0.422675%,1)"/>
  <circle cx="5" cy="11" r="1" fill="srgba(99.6918%,64.5472%,0.422675%,1)"/>
  <circle cx="6" cy="11" r="1" fill="srgba(99.6918%,64.5472%,0.422675%,1)"/>
  <circle cx="7" cy="11" r="1" fill="srgba(99.6918%,64.5472%,0.422675%,1)"/>
  <circle cx="8" cy="11" r="1" fill="srgba(99.6918%,64.5472%,0.422675%,1)"/>
  <circle cx="9" cy="11" r="1" fill="srgba(99.6918%,64.5472%,0.422675%,1)"/>
  <circle cx="10" cy="11" r="1" fill="srgba(99.6918%,64.5472%,0.422675%,1)"/>
  <circle cx="11" cy="11" r="1" fill="srgba(99.6918%,64.5472%,0.422675%,1)"/>
  <circle cx="12" cy="11" r="1" fill="srgba(99.6918%,64.5472%,0.422675%,1)"/>
  <circle cx="13" cy="11" r="1" fill="srgba(99.6918%,64.5472%,0.422675%,1)"/>
  <circle cx="14" cy="11" r="1" fill="srgba(99.6918%,64.5457%,0.419623%,1)"/>
  <circle cx="15" cy="11" r="1" fill="srgba(99.6918%,64.5701%,0.483711%,1)"/>
  <circle cx="0" cy="12" r="1" fill="srgba(100%,64.744%,0.0457771%,1)"/>
  <circle cx="1" cy="12" r="1" fill="srgba(100%,64.7272%,0%,1)"/>
  <circle cx="2" cy="12" r="1" fill="srgba(100%,64.7288%,0%,1)"/>
  <circle cx="3" cy="12" r="1" fill="srgba(100%,64.7288%,0%,1)"/>
  <circle cx="4" cy="12" r="1" fill="srgba(100%,64.7288%,0%,1)"/>
  <circle cx="5" cy="12" r="1" fill="srgba(100%,64.7288%,0%,1)"/>
  <circle cx="6" cy="12" r="1" fill="srgba(100%,64.7288%,0%,1)"/>
  <circle cx="7" cy="12" r="1" fill="srgba(100%,64.7288%,0%,1)"/>
  <circle cx="8" cy="12" r="1" fill="srgba(100%,64.7288%,0%,1)"/>
  <circle cx="9" cy="12" r="1" fill="srgba(100%,64.7288%,0%,1)"/>
  <circle cx="10" cy="12" r="1" fill="srgba(100%,64.7288%,0%,1)"/>
  <circle cx="11" cy="12" r="1" fill="srgba(100%,64.7288%,0%,1)"/>
  <circle cx="12" cy="12" r="1" fill="srgba(100%,64.7288%,0%,1)"/>
  <circle cx="13" cy="12" r="1" fill="srgba(100%,64.7288%,0%,1)"/>
  <circle cx="14" cy="12" r="1" fill="srgba(100%,64.7272%,0%,1)"/>
  <circle cx="15" cy="12" r="1" fill="srgba(100%,64.7517%,0.0610361%,1)"/>
  <circle cx="0" cy="13" r="1" fill="srgba(100%,64.7211%,0.0457771%,1)"/>
  <circle cx="1" cy="13" r="1" fill="srgba(100%,64.7044%,0%,1)"/>
  <circle cx="2" cy="13" r="1" fill="orange"/>
  <circle cx="3" cy="13" r="1" fill="orange"/>
  <circle cx="4" cy="13" r="1" fill="orange"/>
  <circle cx="5" cy="13" r="1" fill="orange"/>
  <circle cx="6" cy="13" r="1" fill="orange"/>
  <circle cx="7" cy="13" r="1" fill="orange"/>
  <circle cx="8" cy="13" r="1" fill="orange"/>
  <circle cx="9" cy="13" r="1" fill="orange"/>
  <circle cx="10" cy="13" r="1" fill="orange"/>
  <circle cx="11" cy="13" r="1" fill="orange"/>
  <circle cx="12" cy="13" r="1" fill="orange"/>
  <circle cx="13" cy="13" r="1" fill="orange"/>
  <circle cx="14" cy="13" r="1" fill="srgba(100%,64.7044%,0%,1)"/>
  <circle cx="15" cy="13" r="1" fill="srgba(100%,64.7288%,0.0610361%,1)"/>
  <circle cx="0" cy="14" r="1" fill="srgba(100%,64.7196%,0.0457771%,1)"/>
  <circle cx="1" cy="14" r="1" fill="srgba(100%,64.7028%,0%,1)"/>
  <circle cx="2" cy="14" r="1" fill="srgba(100%,64.7044%,0%,1)"/>
  <circle cx="3" cy="14" r="1" fill="srgba(100%,64.7044%,0%,1)"/>
  <circle cx="4" cy="14" r="1" fill="srgba(100%,64.7044%,0%,1)"/>
  <circle cx="5" cy="14" r="1" fill="srgba(100%,64.7044%,0%,1)"/>
  <circle cx="6" cy="14" r="1" fill="srgba(100%,64.7044%,0%,1)"/>
  <circle cx="7" cy="14" r="1" fill="srgba(100%,64.7044%,0%,1)"/>
  <circle cx="8" cy="14" r="1" fill="srgba(100%,64.7044%,0%,1)"/>
  <circle cx="9" cy="14" r="1" fill="srgba(100%,64.7044%,0%,1)"/>
  <circle cx="10" cy="14" r="1" fill="srgba(100%,64.7044%,0%,1)"/>
  <circle cx="11" cy="14" r="1" fill="srgba(100%,64.7044%,0%,1)"/>
  <circle cx="12" cy="14" r="1" fill="srgba(100%,64.7044%,0%,1)"/>
  <circle cx="13" cy="14" r="1" fill="srgba(100%,64.7044%,0%,1)"/>
  <circle cx="14" cy="14" r="1" fill="srgba(100%,64.7028%,0%,1)"/>
  <circle cx="15" cy="14" r="1" fill="srgba(100%,64.7272%,0.0610361%,1)"/>
  <circle cx="0" cy="15" r="1" fill="srgba(100%,64.7593%,0.161746%,1)"/>
  <circle cx="1" cy="15" r="1" fill="srgba(100%,64.7425%,0.112917%,1)"/>
  <circle cx="2" cy="15" r="1" fill="srgba(100%,64.744%,0.115969%,1)"/>
  <circle cx="3" cy="15" r="1" fill="srgba(100%,64.744%,0.115969%,1)"/>
  <circle cx="4" cy="15" r="1" fill="srgba(100%,64.744%,0.115969%,1)"/>
  <circle cx="5" cy="15" r="1" fill="srgba(100%,64.744%,0.115969%,1)"/>
  <circle cx="6" cy="15" r="1" fill="srgba(100%,64.744%,0.115969%,1)"/>
  <circle cx="7" cy="15" r="1" fill="srgba(100%,64.744%,0.115969%,1)"/>
  <circle cx="8" cy="15" r="1" fill="srgba(100%,64.744%,0.115969%,1)"/>
  <circle cx="9" cy="15" r="1" fill="srgba(100%,64.744%,0.115969%,1)"/>
  <circle cx="10" cy="15" r="1" fill="srgba(100%,64.744%,0.115969%,1)"/>
  <circle cx="11" cy="15" r="1" fill="srgba(100%,64.744%,0.115969%,1)"/>
  <circle cx="12" cy="15" r="1" fill="srgba(100%,64.744%,0.115969%,1)"/>
  <circle cx="13" cy="15" r="1" fill="srgba(100%,64.744%,0.115969%,1)"/>
  <circle cx="14" cy="15" r="1" fill="srgba(100%,64.7425%,0.112917%,1)"/>
  <circle cx="15" cy="15" r="1" fill="srgba(100%,64.7669%,0.177005%,1)"/>
</svg>
