<?xml version="1.0" standalone="no"?>
<!DOCTYPE svg PUBLIC "-//W3C//DTD SVG 20010904//EN"
  "http://www.w3.org/TR/2001/REC-SVG-20010904/DTD/svg10.dtd">
<svg width="16" height="16">
  <circle cx="0" cy="0" r="1" fill="red"/>
  <circle cx="1" cy="0" r="1" fill="red"/>
  <circle cx="2" cy="0" r="1" fill="red"/>
  <circle cx="3" cy="0" r="1" fill="red"/>
  <circle cx="4" cy="0" r="1" fill="red"/>
  <circle cx="5" cy="0" r="1" fill="red"/>
  <circle cx="6" cy="0" r="1" fill="red"/>
  <circle cx="7" cy="0" r="1" fill="red"/>
  <circle cx="8" cy="0" r="1" fill="red"/>
  <circle cx="9" cy="0" r="1" fill="red"/>
  <circle cx="10" cy="0" r="1" fill="red"/>
  <circle cx="11" cy="0" r="1" fill="red"/>
  <circle cx="12" cy="0" r="1" fill="red"/>
  <circle cx="13" cy="0" r="1" fill="red"/>
  <circle cx="14" cy="0" r="1" fill="red"/>
  <circle cx="15" cy="0" r="1" fill="srgba(100%,0.00762951%,0.00762951%,1)"/>
  <circle cx="0" cy="1" r="1" fill="red"/>
  <circle cx="1" cy="1" r="1" fill="red"/>
  <circle cx="2" cy="1" r="1" fill="red"/>
  <circle cx="3" cy="1" r="1" fill="red"/>
  <circle cx="4" cy="1" r="1" fill="red"/>
  <circle cx="5" cy="1" r="1" fill="red"/>
  <circle cx="6" cy="1" r="1" fill="red"/>
  <circle cx="7" cy="1" r="1" fill="red"/>
  <circle cx="8" cy="1" r="1" fill="red"/>
  <circle cx="9" cy="1" r="1" fill="red"/>
  <circle cx="10" cy="1" r="1" fill="red"/>
  <circle cx="11" cy="1" r="1" fill="red"/>
  <circle cx="12" cy="1" r="1" fill="red"/>
  <circle cx="13" cy="1" r="1" fill="red"/>
  <circle cx="14" cy="1" r="1" fill="red"/>
  <circle cx="15" cy="1" r="1" fill="srgba(100%,0.00762951%,0.00762951%,1)"/>
  <circle cx="0" cy="2" r="1" fill="red"/>
  <circle cx="1" cy="2" r="1" fill="red"/>
  <circle cx="2" cy="2" r="1" fill="red"/>
  <circle cx="3" cy="2" r="1" fill="red"/>
  <circle cx="4" cy="2" r="1" fill="red"/>
  <circle cx="5" cy="2" r="1" fill="red"/>
  <circle cx="6" cy="2" r="1" fill="red"/>
  <circle cx="7" cy="2" r="1" fill="red"/>
  <circle cx="8" cy="2" r="1" fill="red"/>
  <circle cx="9" cy="2" r="1" fill="red"/>
  <circle cx="10" cy="2" r="1" fill="red"/>
  <circle cx="11" cy="2" r="1" fill="red"/>
  <circle cx="12" cy="2" r="1" fill="red"/>
  <circle cx="13" cy="2" r="1" fill="red"/>
  <circle cx="14" cy="2" r="1" fill="red"/>
  <circle cx="15" cy="2" r="1" fill="srgba(100%,0.00762951%,0.00762951%,1)"/>
  <circle cx="0" cy="3" r="1" fill="red"/>
  <circle cx="1" cy="3" r="1" fill="red"/>
  <circle cx="2" cy="3" r="1" fill="red"/>
  <circle cx="3" cy="3" r="1" fill="red"/>
  <circle cx="4" cy="3" r="1" fill="red"/>
  <circle cx="5" cy="3" r="1" fill="red"/>
  <circle cx="6" cy="3" r="1" fill="srgba(100%,0.170901%,0%,1)"/>
  <circle cx="7" cy="3" r="1" fill="srgba(100%,6.15396%,0%,1)"/>
  <circle cx="8" cy="3" r="1" fill="srgba(100%,7.00999%,0%,1)"/>
  <circle cx="9" cy="3" r="1" fill="red"/>
  <circle cx="10" cy="3" r="1" fill="red"/>
  <circle cx="11" cy="3" r="1" fill="red"/>
  <circle cx="12" cy="3" r="1" fill="red"/>
  <circle cx="13" cy="3" r="1" fill="red"/>
  <circle cx="14" cy="3" r="1" fill="red"/>
  <circle cx="15" cy="3" r="1" fill="srgba(100%,0.00762951%,0.00762951%,1)"/>
  <circle cx="0" cy="4" r="1" fill="red"/>
  <circle cx="1" cy="4" r="1" fill="red"/>
  <circle cx="2" cy="4" r="1" fill="red"/>
  <circle cx="3" cy="4" r="1" fill="red"/>
  <circle cx="4" cy="4" r="1" fill="red"/>
  <circle cx="5" cy="4" r="1" fill="red"/>
  <circle cx="6" cy="4" r="1" fill="srgba(100%,1.51369%,0%,1)"/>
  <circle cx="7" cy="4" r="1" fill="srgba(100%,39.1974%,0%,1)"/>
  <circle cx="8" cy="4" r="1" fill="srgba(100%,55.2819%,0%,1)"/>
  <circle cx="9" cy="4" r="1" fill="srgba(100%,19.1714%,0%,1)"/>
  <circle cx="10" cy="4" r="1" fill="srgba(100%,0.189212%,0%,1)"/>
  <circle cx="11" cy="4" r="1" fill="red"/>
  <circle cx="12" cy="4" r="1" fill="red"/>
  <circle cx="13" cy="4" r="1" fill="red"/>
  <circle cx="14" cy="4" r="1" fill="red"/>
  <circle cx="15" cy="4" r="1" fill="srgba(100%,0.00762951%,0.00762951%,1)"/>
  <circle cx="0" cy="5" r="1" fill="red"/>
  <circle cx="1" cy="5" r="1" fill="red"/>
  <circle cx="2" cy="5" r="1" fill="red"/>
  <circle cx="3" cy="5" r="1" fill="red"/>
  <circle cx="4" cy="5" r="1" fill="red"/>
  <circle cx="5" cy="5" r="1" fill="red"/>
  <circle cx="6" cy="5" r="1" fill="srgba(100%,16.8429%,0%,1)"/>
  <circle cx="7" cy="5" r="1" fill="srgba(100%,27.3548%,0%,1)"/>
  <circle cx="8" cy="5" r="1" fill="srgba(100%,31.0155%,0%,1)"/>
  <circle cx="9" cy="5" r="1" fill="srgba(100%,57.2686%,0%,1)"/>
  <circle cx="10" cy="5" r="1" fill="srgba(100%,11.3512%,0%,1)"/>
  <circle cx="11" cy="5" r="1" fill="red"/>
  <circle cx="12" cy="5" r="1" fill="red"/>
  <circle cx="13" cy="5" r="1" fill="red"/>
  <circle cx="14" cy="5" r="1" fill="red"/>
  <circle cx="15" cy="5" r="1" fill="srgba(100%,0.00762951%,0.00762951%,1)"/>
  <circle cx="0" cy="6" r="1" fill="red"/>
  <circle cx="1" cy="6" r="1" fill="red"/>
  <circle cx="2" cy="6" r="1" fill="red"/>
  <circle cx="3" cy="6" r="1" fill="red"/>
  <circle cx="4" cy="6" r="1" fill="red"/>
  <circle cx="5" cy="6" r="1" fill="red"/>
  <circle cx="6" cy="6" r="1" fill="srgba(100%,30.7805%,0%,1)"/>
  <circle cx="7" cy="6" r="1" fill="srgba(100%,43.8956%,0%,1)"/>
  <circle cx="8" cy="6" r="1" fill="srgba(100%,0.956741%,0%,1)"/>
  <circle cx="9" cy="6" r="1" fill="srgba(100%,40.3418%,0%,1)"/>
  <circle cx="10" cy="6" r="1" fill="srgba(100%,34.6731%,0%,1)"/>
  <circle cx="11" cy="6" r="1" fill="red"/>
  <circle cx="12" cy="6" r="1" fill="red"/>
  <circle cx="13" cy="6" r="1" fill="red"/>
  <circle cx="14" cy="6" r="1" fill="red"/>
  <circle cx="15" cy="6" r="1" fill="srgba(100%,0.00762951%,0.00762951%,1)"/>
  <circle cx="0" cy="7" r="1" fill="srgba(80.7996%,0%,0%,1)"/>
  <circle cx="1" cy="7" r="1" fill="srgba(80.7996%,0%,0%,1)"/>
  <circle cx="2" cy="7" r="1" fill="srgba(80.7996%,0%,0%,1)"/>
  <circle cx="3" cy="7" r="1" fill="srgba(80.7996%,0%,0%,1)"/>
  <circle cx="4" cy="7" r="1" fill="srgba(80.4944%,0%,0%,1)"/>
  <circle cx="5" cy="7" r="1" fill="srgba(88.1941%,13.4325%,0%,1)"/>
  <circle cx="6" cy="7" r="1" fill="srgba(87.0253%,12.0394%,0%,1)"/>
  <circle cx="7" cy="7" r="1" fill="srgba(79.7284%,2.04471%,0%,1)"/>
  <circle cx="8" cy="7" r="1" fill="srgba(80.4028%,0%,0%,1)"/>
  <circle cx="9" cy="7" r="1" fill="srgba(86.0563%,26.2608%,0%,1)"/>
  <circle cx="10" cy="7" r="1" fill="srgba(88.0232%,46.0121%,0%,1)"/>
  <circle cx="11" cy="7" r="1" fill="srgba(80.6867%,0.315862%,0%,1)"/>
  <circle cx="12" cy="7" r="1" fill="srgba(80.7935%,0%,0%,1)"/>
  <circle cx="13" cy="7" r="1" fill="srgba(80.7996%,0%,0%,1)"/>
  <circle cx="14" cy="7" r="1" fill="srgba(80.7996%,0%,0%,1)"/>
  <circle cx="15" cy="7" r="1" fill="srgba(80.8011%,0.00610361%,0.00610361%,1)"/>
  <circle cx="0" cy="8" r="1" fill="srgba(6.51713%,0%,0%,1)"/>
  <circle cx="1" cy="8" r="1" fill="srgba(6.51713%,0%,0%,1)"/>
  <circle cx="2" cy="8" r="1" fill="srgba(6.51713%,0%,0%,1)"/>
  <circle cx="3" cy="8" r="1" fill="srgba(6.53239%,0%,0%,1)"/>
  <circle cx="4" cy="8" r="1" fill="srgba(4.9424%,0%,0%,1)"/>
  <circle cx="5" cy="8" r="1" fill="srgba(34.1558%,27.8965%,0%,1)"/>
  <circle cx="6" cy="8" r="1" fill="srgba(67.8523%,58.1872%,0%,1)"/>
  <circle cx="7" cy="8" r="1" fill="srgba(25.948%,17.8744%,0%,1)"/>
  <circle cx="8" cy="8" r="1" fill="srgba(5.54513%,0%,0%,1)"/>
  <circle cx="9" cy="8" r="1" fill="srgba(46.7063%,39.115%,0%,1)"/>
  <circle cx="10" cy="8" r="1" fill="srgba(41.9272%,37.29%,0%,1)"/>
  <circle cx="11" cy="8" r="1" fill="srgba(5.28573%,0%,0%,1)"/>
  <circle cx="12" cy="8" r="1" fill="srgba(6.51255%,0%,0%,1)"/>
  <circle cx="13" cy="8" r="1" fill="srgba(6.51713%,0%,0%,1)"/>
  <circle cx="14" cy="8" r="1" fill="srgba(6.51713%,0%,0%,1)"/>
  <circle cx="15" cy="8" r="1" fill="srgba(6.52476%,0.00610361%,0.00610361%,1)"/>
  <circle cx="0" cy="9" r="1" fill="black"/>
  <circle cx="1" cy="9" r="1" fill="black"/>
  <circle cx="2" cy="9" r="1" fill="black"/>
  <circle cx="3" cy="9" r="1" fill="black"/>
  <circle cx="4" cy="9" r="1" fill="srgba(4.12757%,3.96277%,0%,1)"/>
  <circle cx="5" cy="9" r="1" fill="srgba(8.23529%,7.92248%,0%,1)"/>
  <circle cx="6" cy="9" r="1" fill="srgba(29.6468%,28.0003%,0%,1)"/>
  <circle cx="7" cy="9" r="1" fill="srgba(58.3688%,54.8714%,0%,1)"/>
  <circle cx="8" cy="9" r="1" fill="srgba(45.2934%,42.5956%,0%,1)"/>
  <circle cx="9" cy="9" r="1" fill="srgba(55.8724%,51.9997%,0%,1)"/>
  <circle cx="10" cy="9" r="1" fill="srgba(16.8368%,15.5886%,0%,1)"/>
  <circle cx="11" cy="9" r="1" fill="black"/>
  <circle cx="12" cy="9" r="1" fill="black"/>
  <circle cx="13" cy="9" r="1" fill="black"/>
  <circle cx="14" cy="9" r="1" fill="black"/>
  <circle cx="15" cy="9" r="1" fill="srgba(0%,0.00762951%,0.00762951%,1)"/>
  <circle cx="0" cy="10" r="1" fill="black"/>
  <circle cx="1" cy="10" r="1" fill="black"/>
  <circle cx="2" cy="10" r="1" fill="black"/>
  <circle cx="3" cy="10" r="1" fill="black"/>
  <circle cx="4" cy="10" r="1" fill="srgba(14.7646%,13.6629%,0%,1)"/>
  <circle cx="5" cy="10" r="1" fill="srgba(59.3805%,54.9538%,0%,1)"/>
  <circle cx="6" cy="10" r="1" fill="srgba(46.0716%,42.6307%,0%,1)"/>
  <circle cx="7" cy="10" r="1" fill="srgba(57.3495%,53.1426%,0%,1)"/>
  <circle cx="8" cy="10" r="1" fill="srgba(70.6981%,65.6992%,0%,1)"/>
  <circle cx="9" cy="10" r="1" fill="srgba(56.5759%,52.6619%,0%,1)"/>
  <circle cx="10" cy="10" r="1" fill="srgba(12.2637%,11.4473%,0%,1)"/>
  <circle cx="11" cy="10" r="1" fill="black"/>
  <circle cx="12" cy="10" r="1" fill="black"/>
  <circle cx="13" cy="10" r="1" fill="black"/>
  <circle cx="14" cy="10" r="1" fill="black"/>
  <circle cx="15" cy="10" r="1" fill="srgba(0.00762951%,0.00762951%,0.00762951%,1)"/>
  <circle cx="0" cy="11" r="1" fill="black"/>
  <circle cx="1" cy="11" r="1" fill="black"/>
  <circle cx="2" cy="11" r="1" fill="black"/>
  <circle cx="3" cy="11" r="1" fill="black"/>
  <circle cx="4" cy="11" r="1" fill="srgba(1.94095%,1.79599%,0%,1)"/>
  <circle cx="5" cy="11" r="1" fill="srgba(18.1338%,16.7834%,0%,1)"/>
  <circle cx="6" cy="11" r="1" fill="srgba(31.2978%,28.9662%,0%,1)"/>
  <circle cx="7" cy="11" r="1" fill="srgba(25.5772%,23.6683%,0%,1)"/>
  <circle cx="8" cy="11" r="1" fill="srgba(12.7642%,11.809%,0%,1)"/>
  <circle cx="9" cy="11" r="1" fill="srgba(14.905%,13.9162%,0%,1)"/>
  <circle cx="10" cy="11" r="1" fill="srgba(35.5398%,33.1701%,0%,1)"/>
  <circle cx="11" cy="11" r="1" fill="srgba(6.18601%,5.77401%,0%,1)"/>
  <circle cx="12" cy="11" r="1" fill="black"/>
  <circle cx="13" cy="11" r="1" fill="black"/>
  <circle cx="14" cy="11" r="1" fill="black"/>
  <circle cx="15" cy="11" r="1" fill="srgba(0.00762951%,0.00762951%,0.00762951%,1)"/>
  <circle cx="0" cy="12" r="1" fill="black"/>
  <circle cx="1" cy="12" r="1" fill="black"/>
  <circle cx="2" cy="12" r="1" fill="black"/>
  <circle cx="3" cy="12" r="1" fill="black"/>
  <circle cx="4" cy="12" r="1" fill="black"/>
  <circle cx="5" cy="12" r="1" fill="black"/>
  <circle cx="6" cy="12" r="1" fill="black"/>
  <circle cx="7" cy="12" r="1" fill="black"/>
  <circle cx="8" cy="12" r="1" fill="black"/>
  <circle cx="9" cy="12" r="1" fill="srgba(2.38804%,2.25681%,0%,1)"/>
  <circle cx="10" cy="12" r="1" fill="srgba(65.5344%,61.5076%,0%,1)"/>
  <circle cx="11" cy="12" r="1" fill="srgba(26.0517%,24.3442%,0%,1)"/>
  <circle cx="12" cy="12" r="1" fill="black"/>
  <circle cx="13" cy="12" r="1" fill="black"/>
  <circle cx="14" cy="12" r="1" fill="black"/>
  <circle cx="15" cy="12" r="1" fill="srgba(0.00762951%,0.00762951%,0.00762951%,1)"/>
  <circle cx="0" cy="13" r="1" fill="black"/>
  <circle cx="1" cy="13" r="1" fill="black"/>
  <circle cx="2" cy="13" r="1" fill="black"/>
  <circle cx="3" cy="13" r="1" fill="black"/>
  <circle cx="4" cy="13" r="1" fill="black"/>
  <circle cx="5" cy="13" r="1" fill="black"/>
  <circle cx="6" cy="13" r="1" fill="black"/>
  <circle cx="7" cy="13" r="1" fill="black"/>
  <circle cx="8" cy="13" r="1" fill="black"/>
  <circle cx="9" cy="13" r="1" fill="srgba(2.7039%,2.52079%,0%,1)"/>
  <circle cx="10" cy="13" r="1" fill="srgba(68.9647%,64.4465%,0%,1)"/>
  <circle cx="11" cy="13" r="1" fill="srgba(30.4646%,28.5451%,0%,1)"/>
  <circle cx="12" cy="13" r="1" fill="black"/>
  <circle cx="13" cy="13" r="1" fill="black"/>
  <circle cx="14" cy="13" r="1" fill="black"/>
  <circle cx="15" cy="13" r="1" fill="srgba(0.00762951%,0.00762951%,0.00762951%,1)"/>
  <circle cx="0" cy="14" r="1" fill="black"/>
  <circle cx="1" cy="14" r="1" fill="black"/>
  <circle cx="2" cy="14" r="1" fill="black"/>
  <circle cx="3" cy="14" r="1" fill="black"/>
  <circle cx="4" cy="14" r="1" fill="black"/>
  <circle cx="5" cy="14" r="1" fill="black"/>
  <circle cx="6" cy="14" r="1" fill="black"/>
  <circle cx="7" cy="14" r="1" fill="black"/>
  <circle cx="8" cy="14" r="1" fill="black"/>
  <circle cx="9" cy="14" r="1" fill="srgba(2.18509%,2.04013%,0%,1)"/>
  <circle cx="10" cy="14" r="1" fill="srgba(67.2465%,62.7802%,0%,1)"/>
  <circle cx="11" cy="14" r="1" fill="srgba(32.5734%,30.4173%,0%,1)"/>
  <circle cx="12" cy="14" r="1" fill="black"/>
  <circle cx="13" cy="14" r="1" fill="black"/>
  <circle cx="14" cy="14" r="1" fill="black"/>
  <circle cx="15" cy="14" r="1" fill="srgba(0.00762951%,0.00762951%,0.00762951%,1)"/>
  <circle cx="0" cy="15" r="1" fill="black"/>
  <circle cx="1" cy="15" r="1" fill="black"/>
  <circle cx="2" cy="15" r="1" fill="black"/>
  <circle cx="3" cy="15" r="1" fill="black"/>
  <circle cx="4" cy="15" r="1" fill="black"/>
  <circle cx="5" cy="15" r="1" fill="black"/>
  <circle cx="6" cy="15" r="1" fill="black"/>
  <circle cx="7" cy="15" r="1" fill="black"/>
  <circle cx="8" cy="15" r="1" fill="black"/>
  <circle cx="9" cy="15" r="1" fill="srgba(1.38399%,1.29244%,0%,1)"/>
  <circle cx="10" cy="15" r="1" fill="srgba(63.5767%,59.3484%,0%,1)"/>
  <circle cx="11" cy="15" r="1" fill="srgba(34.0261%,31.7769%,0%,1)"/>
  <circle cx="12" cy="15" r="1" fill="black"/>
  <circle cx="13" cy="15" r="1" fill="black"/>
  <circle cx="14" cy="15" r="1" fill="black"/>
  <circle cx="15" cy="15" r="1" fill="srgba(0.00762951%,0.00762951%,0.00762951%,1)"/>
</svg>
