<?xml version="1.0" standalone="no"?>
<!DOCTYPE svg PUBLIC "-//W3C//DTD SVG 20010904//EN"
  "http://www.w3.org/TR/2001/REC-SVG-20010904/DTD/svg10.dtd">
<svg width="16" height="16">
  <circle cx="0" cy="0" r="1" fill="srgba(58,125,206,1)"/>
  <circle cx="1" cy="0" r="1" fill="srgba(58,125,206,1)"/>
  <circle cx="2" cy="0" r="1" fill="srgba(58,125,206,1)"/>
  <circle cx="3" cy="0" r="1" fill="srgba(58,125,206,1)"/>
  <circle cx="4" cy="0" r="1" fill="srgba(58,125,206,1)"/>
  <circle cx="5" cy="0" r="1" fill="srgba(58,125,206,1)"/>
  <circle cx="6" cy="0" r="1" fill="srgba(58,125,206,1)"/>
  <circle cx="7" cy="0" r="1" fill="srgba(58,125,206,1)"/>
  <circle cx="8" cy="0" r="1" fill="srgba(58,125,206,1)"/>
  <circle cx="9" cy="0" r="1" fill="srgba(58,125,206,1)"/>
  <circle cx="10" cy="0" r="1" fill="srgba(58,125,206,1)"/>
  <circle cx="11" cy="0" r="1" fill="srgba(58,125,206,1)"/>
  <circle cx="12" cy="0" r="1" fill="srgba(58,125,206,1)"/>
  <circle cx="13" cy="0" r="1" fill="srgba(58,125,206,1)"/>
  <circle cx="14" cy="0" r="1" fill="srgba(58,125,206,1)"/>
  <circle cx="15" cy="0" r="1" fill="srgba(58,125,206,1)"/>
  <circle cx="0" cy="1" r="1" fill="srgba(58,125,206,1)"/>
  <circle cx="1" cy="1" r="1" fill="srgba(58,125,206,1)"/>
  <circle cx="2" cy="1" r="1" fill="srgba(58,125,206,1)"/>
  <circle cx="3" cy="1" r="1" fill="srgba(58,125,206,1)"/>
  <circle cx="4" cy="1" r="1" fill="srgba(58,125,206,1)"/>
  <circle cx="5" cy="1" r="1" fill="srgba(58,125,206,1)"/>
  <circle cx="6" cy="1" r="1" fill="srgba(58,125,206,1)"/>
  <circle cx="7" cy="1" r="1" fill="srgba(58,125,206,1)"/>
  <circle cx="8" cy="1" r="1" fill="srgba(58,125,206,1)"/>
  <circle cx="9" cy="1" r="1" fill="srgba(58,125,206,1)"/>
  <circle cx="10" cy="1" r="1" fill="srgba(58,125,206,1)"/>
  <circle cx="11" cy="1" r="1" fill="srgba(58,125,206,1)"/>
  <circle cx="12" cy="1" r="1" fill="srgba(58,125,206,1)"/>
  <circle cx="13" cy="1" r="1" fill="srgba(58,125,206,1)"/>
  <circle cx="14" cy="1" r="1" fill="srgba(58,125,206,1)"/>
  <circle cx="15" cy="1" r="1" fill="srgba(58,125,206,1)"/>
  <circle cx="0" cy="2" r="1" fill="srgba(58,125,206,1)"/>
  <circle cx="1" cy="2" r="1" fill="srgba(58,125,206,1)"/>
  <circle cx="2" cy="2" r="1" fill="srgba(58,125,206,1)"/>
  <circle cx="3" cy="2" r="1" fill="srgba(58,125,206,1)"/>
  <circle cx="4" cy="2" r="1" fill="srgba(58,125,206,1)"/>
  <circle cx="5" cy="2" r="1" fill="srgba(22.7497%,49.0227%,80.7858%,1)"/>
  <circle cx="6" cy="2" r="1" fill="srgba(22.6642%,48.9662%,80.7645%,1)"/>
  <circle cx="7" cy="2" r="1" fill="srgba(22.266%,48.7037%,80.6653%,1)"/>
  <circle cx="8" cy="2" r="1" fill="srgba(21.9913%,48.5222%,80.5966%,1)"/>
  <circle cx="9" cy="2" r="1" fill="srgba(22.0432%,48.5557%,80.6088%,1)"/>
  <circle cx="10" cy="2" r="1" fill="srgba(22.2827%,48.7144%,80.6699%,1)"/>
  <circle cx="11" cy="2" r="1" fill="srgba(22.3484%,48.7572%,80.6851%,1)"/>
  <circle cx="12" cy="2" r="1" fill="srgba(22.4262%,48.809%,80.705%,1)"/>
  <circle cx="13" cy="2" r="1" fill="srgba(22.5162%,48.8685%,80.7279%,1)"/>
  <circle cx="14" cy="2" r="1" fill="srgba(22.6581%,48.9616%,80.763%,1)"/>
  <circle cx="15" cy="2" r="1" fill="srgba(22.7466%,49.0196%,80.7843%,1)"/>
  <circle cx="0" cy="3" r="1" fill="srgba(58,125,206,1)"/>
  <circle cx="1" cy="3" r="1" fill="srgba(58,125,206,1)"/>
  <circle cx="2" cy="3" r="1" fill="srgba(58,125,206,1)"/>
  <circle cx="3" cy="3" r="1" fill="srgba(22.6276%,48.9418%,80.7553%,1)"/>
  <circle cx="4" cy="3" r="1" fill="srgba(22.7222%,49.0043%,80.7782%,1)"/>
  <circle cx="5" cy="3" r="1" fill="srgba(22.6139%,48.9326%,80.7523%,1)"/>
  <circle cx="6" cy="3" r="1" fill="srgba(23.949%,49.8146%,81.0834%,1)"/>
  <circle cx="7" cy="3" r="1" fill="srgba(31.2581%,54.638%,82.9007%,1)"/>
  <circle cx="8" cy="3" r="1" fill="srgba(35.9945%,57.763%,84.0787%,1)"/>
  <circle cx="9" cy="3" r="1" fill="srgba(34.4335%,56.7346%,83.6912%,1)"/>
  <circle cx="10" cy="3" r="1" fill="srgba(29.5613%,53.5164%,82.4796%,1)"/>
  <circle cx="11" cy="3" r="1" fill="srgba(29.2012%,53.2799%,82.3911%,1)"/>
  <circle cx="12" cy="3" r="1" fill="srgba(28.098%,52.5521%,82.1149%,1)"/>
  <circle cx="13" cy="3" r="1" fill="srgba(26.5476%,51.5282%,81.7304%,1)"/>
  <circle cx="14" cy="3" r="1" fill="srgba(24.1749%,49.9626%,81.1398%,1)"/>
  <circle cx="15" cy="3" r="1" fill="srgba(22.7268%,49.0074%,80.7797%,1)"/>
  <circle cx="0" cy="4" r="1" fill="srgba(22.7085%,48.9952%,80.7752%,1)"/>
  <circle cx="1" cy="4" r="1" fill="srgba(22.5956%,48.9204%,80.7477%,1)"/>
  <circle cx="2" cy="4" r="1" fill="srgba(22.7344%,49.0135%,80.7813%,1)"/>
  <circle cx="3" cy="4" r="1" fill="srgba(24.7074%,50.3136%,81.2726%,1)"/>
  <circle cx="4" cy="4" r="1" fill="srgba(23.1128%,49.2622%,80.8759%,1)"/>
  <circle cx="5" cy="4" r="1" fill="srgba(22.5452%,48.8869%,80.734%,1)"/>
  <circle cx="6" cy="4" r="1" fill="srgba(50.1732%,67.1199%,87.6066%,1)"/>
  <circle cx="7" cy="4" r="1" fill="srgba(64.8173%,76.7834%,91.2474%,1)"/>
  <circle cx="8" cy="4" r="1" fill="srgba(59.086%,73.0007%,89.8222%,1)"/>
  <circle cx="9" cy="4" r="1" fill="srgba(70.3014%,80.4028%,92.6131%,1)"/>
  <circle cx="10" cy="4" r="1" fill="srgba(53.3623%,69.2241%,88.3986%,1)"/>
  <circle cx="11" cy="4" r="1" fill="srgba(33.4035%,56.0525%,83.4363%,1)"/>
  <circle cx="12" cy="4" r="1" fill="srgba(26.1479%,51.2642%,81.6297%,1)"/>
  <circle cx="13" cy="4" r="1" fill="srgba(25.3513%,50.7393%,81.4328%,1)"/>
  <circle cx="14" cy="4" r="1" fill="srgba(23.8529%,49.7505%,81.0605%,1)"/>
  <circle cx="15" cy="4" r="1" fill="srgba(22.7039%,48.9921%,80.7736%,1)"/>
  <circle cx="0" cy="5" r="1" fill="srgba(23.3921%,49.4469%,80.9445%,1)"/>
  <circle cx="1" cy="5" r="1" fill="srgba(24.8188%,50.3883%,81.3001%,1)"/>
  <circle cx="2" cy="5" r="1" fill="srgba(21.9776%,48.513%,80.5936%,1)"/>
  <circle cx="3" cy="5" r="1" fill="srgba(29.6056%,53.5454%,82.4887%,1)"/>
  <circle cx="4" cy="5" r="1" fill="srgba(24.1001%,49.9138%,81.1215%,1)"/>
  <circle cx="5" cy="5" r="1" fill="srgba(27.892%,52.4163%,82.063%,1)"/>
  <circle cx="6" cy="5" r="1" fill="srgba(57.319%,71.8303%,89.3812%,1)"/>
  <circle cx="7" cy="5" r="1" fill="srgba(63.7217%,76.0601%,90.9789%,1)"/>
  <circle cx="8" cy="5" r="1" fill="srgba(64.5014%,76.5805%,91.1757%,1)"/>
  <circle cx="9" cy="5" r="1" fill="srgba(77.2824%,85.0095%,94.3496%,1)"/>
  <circle cx="10" cy="5" r="1" fill="srgba(83.1083%,88.8533%,95.7977%,1)"/>
  <circle cx="11" cy="5" r="1" fill="srgba(60.8545%,74.1665%,90.2632%,1)"/>
  <circle cx="12" cy="5" r="1" fill="srgba(51.9844%,68.3162%,88.0598%,1)"/>
  <circle cx="13" cy="5" r="1" fill="srgba(30.9148%,54.4076%,82.8214%,1)"/>
  <circle cx="14" cy="5" r="1" fill="srgba(24.6586%,50.2846%,81.265%,1)"/>
  <circle cx="15" cy="5" r="1" fill="srgba(24.6799%,50.2968%,81.268%,1)"/>
  <circle cx="0" cy="6" r="1" fill="srgba(24.5686%,50.2235%,81.2375%,1)"/>
  <circle cx="1" cy="6" r="1" fill="srgba(52.3857%,68.5786%,88.1575%,1)"/>
  <circle cx="2" cy="6" r="1" fill="srgba(37.8744%,59.0036%,84.5487%,1)"/>
  <circle cx="3" cy="6" r="1" fill="srgba(23.7736%,49.6971%,81.0391%,1)"/>
  <circle cx="4" cy="6" r="1" fill="srgba(21.5625%,48.2383%,80.4898%,1)"/>
  <circle cx="5" cy="6" r="1" fill="srgba(51.9844%,68.3131%,88.0568%,1)"/>
  <circle cx="6" cy="6" r="1" fill="srgba(96.733%,97.8424%,99.1867%,1)"/>
  <circle cx="7" cy="6" r="1" fill="srgba(78.9746%,86.1265%,94.7707%,1)"/>
  <circle cx="8" cy="6" r="1" fill="srgba(73.5698%,82.5605%,93.4279%,1)"/>
  <circle cx="9" cy="6" r="1" fill="srgba(87.0436%,91.4519%,96.7773%,1)"/>
  <circle cx="10" cy="6" r="1" fill="srgba(93.6202%,95.79%,98.4115%,1)"/>
  <circle cx="11" cy="6" r="1" fill="srgba(77.7234%,85.301%,94.4594%,1)"/>
  <circle cx="12" cy="6" r="1" fill="srgba(94.7204%,96.5164%,98.6877%,1)"/>
  <circle cx="13" cy="6" r="1" fill="srgba(61.2665%,74.4396%,90.367%,1)"/>
  <circle cx="14" cy="6" r="1" fill="srgba(42.8016%,62.2553%,85.7755%,1)"/>
  <circle cx="15" cy="6" r="1" fill="srgba(41.8387%,61.619%,85.5344%,1)"/>
  <circle cx="0" cy="7" r="1" fill="srgba(22.034%,48.5512%,80.6073%,1)"/>
  <circle cx="1" cy="7" r="1" fill="srgba(44.3549%,63.2792%,86.1601%,1)"/>
  <circle cx="2" cy="7" r="1" fill="srgba(74.107%,82.9129%,93.5607%,1)"/>
  <circle cx="3" cy="7" r="1" fill="srgba(38.7945%,59.6109%,84.7761%,1)"/>
  <circle cx="4" cy="7" r="1" fill="srgba(52.3934%,68.5832%,88.159%,1)"/>
  <circle cx="5" cy="7" r="1" fill="srgba(85.0111%,90.1076%,96.2722%,1)"/>
  <circle cx="6" cy="7" r="1" fill="srgba(99.1485%,99.4385%,99.7879%,1)"/>
  <circle cx="7" cy="7" r="1" fill="srgba(85.8701%,90.6767%,96.4858%,1)"/>
  <circle cx="8" cy="7" r="1" fill="srgba(84.0223%,89.456%,96.025%,1)"/>
  <circle cx="9" cy="7" r="1" fill="srgba(89.9458%,93.3654%,97.5006%,1)"/>
  <circle cx="10" cy="7" r="1" fill="srgba(96.2066%,97.496%,99.057%,1)"/>
  <circle cx="11" cy="7" r="1" fill="srgba(79.1547%,86.2455%,94.815%,1)"/>
  <circle cx="12" cy="7" r="1" fill="srgba(97.995%,98.677%,99.501%,1)"/>
  <circle cx="13" cy="7" r="1" fill="srgba(63.4836%,75.903%,90.9178%,1)"/>
  <circle cx="14" cy="7" r="1" fill="srgba(28.542%,52.845%,82.2263%,1)"/>
  <circle cx="15" cy="7" r="1" fill="srgba(28.9815%,53.135%,82.3346%,1)"/>
  <circle cx="0" cy="8" r="1" fill="srgba(22.5483%,48.8899%,80.7355%,1)"/>
  <circle cx="1" cy="8" r="1" fill="srgba(24.8585%,50.4143%,81.3107%,1)"/>
  <circle cx="2" cy="8" r="1" fill="srgba(43.6103%,62.7878%,85.9739%,1)"/>
  <circle cx="3" cy="8" r="1" fill="srgba(37.171%,58.5397%,84.3702%,1)"/>
  <circle cx="4" cy="8" r="1" fill="srgba(42.4063%,61.9928%,85.6733%,1)"/>
  <circle cx="5" cy="8" r="1" fill="srgba(57.9248%,72.2332%,89.5338%,1)"/>
  <circle cx="6" cy="8" r="1" fill="srgba(82.6246%,88.5344%,95.6771%,1)"/>
  <circle cx="7" cy="8" r="1" fill="srgba(92.8603%,95.2911%,98.2238%,1)"/>
  <circle cx="8" cy="8" r="1" fill="srgba(94.6151%,96.4462%,98.6603%,1)"/>
  <circle cx="9" cy="8" r="1" fill="srgba(89.8329%,93.2921%,97.4731%,1)"/>
  <circle cx="10" cy="8" r="1" fill="srgba(95.8587%,97.2656%,98.97%,1)"/>
  <circle cx="11" cy="8" r="1" fill="srgba(80.2136%,86.9398%,95.0774%,1)"/>
  <circle cx="12" cy="8" r="1" fill="srgba(97.9583%,98.6526%,99.4919%,1)"/>
  <circle cx="13" cy="8" r="1" fill="srgba(68.1163%,78.9609%,92.0714%,1)"/>
  <circle cx="14" cy="8" r="1" fill="srgba(26.4012%,51.4321%,81.6938%,1)"/>
  <circle cx="15" cy="8" r="1" fill="srgba(22.1271%,48.6122%,80.6302%,1)"/>
  <circle cx="0" cy="9" r="1" fill="srgba(22.7543%,49.0257%,80.7874%,1)"/>
  <circle cx="1" cy="9" r="1" fill="srgba(22.4613%,48.8319%,80.7141%,1)"/>
  <circle cx="2" cy="9" r="1" fill="srgba(25.8824%,51.0903%,81.564%,1)"/>
  <circle cx="3" cy="9" r="1" fill="srgba(23.8025%,49.7169%,81.0468%,1)"/>
  <circle cx="4" cy="9" r="1" fill="srgba(21.622%,48.2795%,80.5051%,1)"/>
  <circle cx="5" cy="9" r="1" fill="srgba(22.8946%,49.1188%,80.8209%,1)"/>
  <circle cx="6" cy="9" r="1" fill="srgba(33.724%,56.2646%,83.5142%,1)"/>
  <circle cx="7" cy="9" r="1" fill="srgba(58.8556%,72.8496%,89.7658%,1)"/>
  <circle cx="8" cy="9" r="1" fill="srgba(85.7893%,90.6233%,96.466%,1)"/>
  <circle cx="9" cy="9" r="1" fill="srgba(94.7066%,96.5072%,98.6831%,1)"/>
  <circle cx="10" cy="9" r="1" fill="srgba(98.0056%,98.6847%,99.5041%,1)"/>
  <circle cx="11" cy="9" r="1" fill="srgba(81.2284%,87.6143%,95.3307%,1)"/>
  <circle cx="12" cy="9" r="1" fill="srgba(97.5494%,98.3825%,99.3896%,1)"/>
  <circle cx="13" cy="9" r="1" fill="srgba(98.2696%,98.8586%,99.5697%,1)"/>
  <circle cx="14" cy="9" r="1" fill="srgba(50.7851%,67.5227%,87.7592%,1)"/>
  <circle cx="15" cy="9" r="1" fill="srgba(21.3855%,48.1224%,80.4456%,1)"/>
  <circle cx="0" cy="10" r="1" fill="srgba(58,125,206,1)"/>
  <circle cx="1" cy="10" r="1" fill="srgba(22.6474%,48.9555%,80.7599%,1)"/>
  <circle cx="2" cy="10" r="1" fill="srgba(25.0706%,50.5547%,81.3626%,1)"/>
  <circle cx="3" cy="10" r="1" fill="srgba(23.7583%,49.688%,81.0361%,1)"/>
  <circle cx="4" cy="10" r="1" fill="srgba(22.6825%,48.9784%,80.7691%,1)"/>
  <circle cx="5" cy="10" r="1" fill="srgba(22.707%,48.9952%,80.7752%,1)"/>
  <circle cx="6" cy="10" r="1" fill="srgba(22.0569%,48.5664%,80.6134%,1)"/>
  <circle cx="7" cy="10" r="1" fill="srgba(21.9013%,48.4627%,80.5753%,1)"/>
  <circle cx="8" cy="10" r="1" fill="srgba(29.6605%,53.5836%,82.5055%,1)"/>
  <circle cx="9" cy="10" r="1" fill="srgba(51.6167%,68.072%,87.9652%,1)"/>
  <circle cx="10" cy="10" r="1" fill="srgba(79.086%,86.1982%,94.7982%,1)"/>
  <circle cx="11" cy="10" r="1" fill="srgba(80.0397%,86.8269%,95.0362%,1)"/>
  <circle cx="12" cy="10" r="1" fill="srgba(97.7829%,98.5367%,99.4491%,1)"/>
  <circle cx="13" cy="10" r="1" fill="srgba(99.2523%,99.5071%,99.8138%,1)"/>
  <circle cx="14" cy="10" r="1" fill="srgba(49.073%,66.3951%,87.335%,1)"/>
  <circle cx="15" cy="10" r="1" fill="srgba(21.3764%,48.1163%,80.444%,1)"/>
  <circle cx="0" cy="11" r="1" fill="srgba(58,125,206,1)"/>
  <circle cx="1" cy="11" r="1" fill="srgba(22.6841%,48.9784%,80.7691%,1)"/>
  <circle cx="2" cy="11" r="1" fill="srgba(24.2603%,50.0191%,81.1612%,1)"/>
  <circle cx="3" cy="11" r="1" fill="srgba(23.386%,49.4423%,80.943%,1)"/>
  <circle cx="4" cy="11" r="1" fill="srgba(22.7039%,48.9921%,80.7736%,1)"/>
  <circle cx="5" cy="11" r="1" fill="srgba(58,125,206,1)"/>
  <circle cx="6" cy="11" r="1" fill="srgba(22.7466%,49.0196%,80.7843%,1)"/>
  <circle cx="7" cy="11" r="1" fill="srgba(22.7405%,49.0166%,80.7828%,1)"/>
  <circle cx="8" cy="11" r="1" fill="srgba(22.2797%,48.7114%,80.6683%,1)"/>
  <circle cx="9" cy="11" r="1" fill="srgba(21.6236%,48.2795%,80.5051%,1)"/>
  <circle cx="10" cy="11" r="1" fill="srgba(27.1641%,51.9356%,81.8845%,1)"/>
  <circle cx="11" cy="11" r="1" fill="srgba(51.7571%,68.1651%,88.0018%,1)"/>
  <circle cx="12" cy="11" r="1" fill="srgba(75.0301%,83.5218%,93.7896%,1)"/>
  <circle cx="13" cy="11" r="1" fill="srgba(92.7337%,95.2056%,98.1933%,1)"/>
  <circle cx="14" cy="11" r="1" fill="srgba(51.8715%,68.2414%,88.0308%,1)"/>
  <circle cx="15" cy="11" r="1" fill="srgba(21.2619%,48.04%,80.415%,1)"/>
  <circle cx="0" cy="12" r="1" fill="srgba(58,125,206,1)"/>
  <circle cx="1" cy="12" r="1" fill="srgba(22.7314%,49.0105%,80.7813%,1)"/>
  <circle cx="2" cy="12" r="1" fill="srgba(23.1006%,49.2546%,80.8728%,1)"/>
  <circle cx="3" cy="12" r="1" fill="srgba(22.8916%,49.1157%,80.8209%,1)"/>
  <circle cx="4" cy="12" r="1" fill="srgba(22.7359%,49.0135%,80.7813%,1)"/>
  <circle cx="5" cy="12" r="1" fill="srgba(58,125,206,1)"/>
  <circle cx="6" cy="12" r="1" fill="srgba(58,125,206,1)"/>
  <circle cx="7" cy="12" r="1" fill="srgba(58,125,206,1)"/>
  <circle cx="8" cy="12" r="1" fill="srgba(58,125,206,1)"/>
  <circle cx="9" cy="12" r="1" fill="srgba(22.7131%,48.9982%,80.7767%,1)"/>
  <circle cx="10" cy="12" r="1" fill="srgba(23.3387%,49.4102%,80.9323%,1)"/>
  <circle cx="11" cy="12" r="1" fill="srgba(37.4594%,58.7289%,84.4434%,1)"/>
  <circle cx="12" cy="12" r="1" fill="srgba(26.3783%,51.4168%,81.6876%,1)"/>
  <circle cx="13" cy="12" r="1" fill="srgba(48.7968%,66.2104%,87.2633%,1)"/>
  <circle cx="14" cy="12" r="1" fill="srgba(62.2583%,75.0942%,90.6126%,1)"/>
  <circle cx="15" cy="12" r="1" fill="srgba(32.8786%,55.7076%,83.3036%,1)"/>
  <circle cx="0" cy="13" r="1" fill="srgba(58,125,206,1)"/>
  <circle cx="1" cy="13" r="1" fill="srgba(58,125,206,1)"/>
  <circle cx="2" cy="13" r="1" fill="srgba(22.7298%,49.0089%,80.7797%,1)"/>
  <circle cx="3" cy="13" r="1" fill="srgba(22.739%,49.015%,80.7828%,1)"/>
  <circle cx="4" cy="13" r="1" fill="srgba(58,125,206,1)"/>
  <circle cx="5" cy="13" r="1" fill="srgba(58,125,206,1)"/>
  <circle cx="6" cy="13" r="1" fill="srgba(58,125,206,1)"/>
  <circle cx="7" cy="13" r="1" fill="srgba(58,125,206,1)"/>
  <circle cx="8" cy="13" r="1" fill="srgba(58,125,206,1)"/>
  <circle cx="9" cy="13" r="1" fill="srgba(22.7131%,48.9982%,80.7767%,1)"/>
  <circle cx="10" cy="13" r="1" fill="srgba(23.4684%,49.4972%,80.9644%,1)"/>
  <circle cx="11" cy="13" r="1" fill="srgba(36.759%,58.2681%,84.2695%,1)"/>
  <circle cx="12" cy="13" r="1" fill="srgba(25.8061%,51.0399%,81.5457%,1)"/>
  <circle cx="13" cy="13" r="1" fill="srgba(64.9058%,76.8414%,91.2703%,1)"/>
  <circle cx="14" cy="13" r="1" fill="srgba(99.2569%,99.5102%,99.8154%,1)"/>
  <circle cx="15" cy="13" r="1" fill="srgba(86.6133%,91.165%,96.669%,1)"/>
  <circle cx="0" cy="14" r="1" fill="srgba(58,125,206,1)"/>
  <circle cx="1" cy="14" r="1" fill="srgba(58,125,206,1)"/>
  <circle cx="2" cy="14" r="1" fill="srgba(58,125,206,1)"/>
  <circle cx="3" cy="14" r="1" fill="srgba(58,125,206,1)"/>
  <circle cx="4" cy="14" r="1" fill="srgba(58,125,206,1)"/>
  <circle cx="5" cy="14" r="1" fill="srgba(58,125,206,1)"/>
  <circle cx="6" cy="14" r="1" fill="srgba(58,125,206,1)"/>
  <circle cx="7" cy="14" r="1" fill="srgba(58,125,206,1)"/>
  <circle cx="8" cy="14" r="1" fill="srgba(58,125,206,1)"/>
  <circle cx="9" cy="14" r="1" fill="srgba(22.7207%,49.0028%,80.7782%,1)"/>
  <circle cx="10" cy="14" r="1" fill="srgba(23.2822%,49.3736%,80.9186%,1)"/>
  <circle cx="11" cy="14" r="1" fill="srgba(35.584%,57.4914%,83.978%,1)"/>
  <circle cx="12" cy="14" r="1" fill="srgba(48.1804%,65.803%,87.1107%,1)"/>
  <circle cx="13" cy="14" r="1" fill="srgba(81.7044%,87.9271%,95.4498%,1)"/>
  <circle cx="14" cy="14" r="1" fill="white"/>
  <circle cx="15" cy="14" r="1" fill="srgba(86.6758%,91.2062%,96.6857%,1)"/>
  <circle cx="0" cy="15" r="1" fill="srgba(58,125,206,1)"/>
  <circle cx="1" cy="15" r="1" fill="srgba(58,125,206,1)"/>
  <circle cx="2" cy="15" r="1" fill="srgba(58,125,206,1)"/>
  <circle cx="3" cy="15" r="1" fill="srgba(58,125,206,1)"/>
  <circle cx="4" cy="15" r="1" fill="srgba(58,125,206,1)"/>
  <circle cx="5" cy="15" r="1" fill="srgba(58,125,206,1)"/>
  <circle cx="6" cy="15" r="1" fill="srgba(58,125,206,1)"/>
  <circle cx="7" cy="15" r="1" fill="srgba(58,125,206,1)"/>
  <circle cx="8" cy="15" r="1" fill="srgba(58,125,206,1)"/>
  <circle cx="9" cy="15" r="1" fill="srgba(22.472%,48.8396%,80.7156%,1)"/>
  <circle cx="10" cy="15" r="1" fill="srgba(27.0085%,51.8334%,81.8448%,1)"/>
  <circle cx="11" cy="15" r="1" fill="srgba(62.5849%,75.3079%,90.6935%,1)"/>
  <circle cx="12" cy="15" r="1" fill="srgba(78.3841%,85.7343%,94.6227%,1)"/>
  <circle cx="13" cy="15" r="1" fill="srgba(88.3101%,92.2866%,97.0932%,1)"/>
  <circle cx="14" cy="15" r="1" fill="white"/>
  <circle cx="15" cy="15" r="1" fill="srgba(94.3999%,96.3043%,98.6069%,1)"/>
</svg>
