<?xml version="1.0" standalone="no"?>
<!DOCTYPE svg PUBLIC "-//W3C//DTD SVG 20010904//EN"
  "http://www.w3.org/TR/2001/REC-SVG-20010904/DTD/svg10.dtd">
<svg width="16" height="16">
  <circle cx="0" cy="0" r="1" fill="srgba(0,0,102,1)"/>
  <circle cx="1" cy="0" r="1" fill="srgba(0,0,102,1)"/>
  <circle cx="2" cy="0" r="1" fill="srgba(0,0,102,1)"/>
  <circle cx="3" cy="0" r="1" fill="srgba(0,0,102,1)"/>
  <circle cx="4" cy="0" r="1" fill="srgba(0,0,102,1)"/>
  <circle cx="5" cy="0" r="1" fill="srgba(0,0,102,1)"/>
  <circle cx="6" cy="0" r="1" fill="srgba(0%,0%,40.0137%,1)"/>
  <circle cx="7" cy="0" r="1" fill="srgba(0%,0%,40.1328%,1)"/>
  <circle cx="8" cy="0" r="1" fill="srgba(0%,0%,40.3784%,1)"/>
  <circle cx="9" cy="0" r="1" fill="srgba(0%,0%,40.499%,1)"/>
  <circle cx="10" cy="0" r="1" fill="srgba(0.469978%,0%,39.7635%,1)"/>
  <circle cx="11" cy="0" r="1" fill="srgba(5.43221%,0%,37.0581%,1)"/>
  <circle cx="12" cy="0" r="1" fill="srgba(16.4904%,0.0289921%,32.2271%,1)"/>
  <circle cx="13" cy="0" r="1" fill="srgba(32.8466%,1.67239%,26.8391%,1)"/>
  <circle cx="14" cy="0" r="1" fill="srgba(52.5612%,7.90112%,24.4556%,1)"/>
  <circle cx="15" cy="0" r="1" fill="srgba(70.013%,18.8388%,28.0613%,1)"/>
  <circle cx="0" cy="1" r="1" fill="srgba(0,0,102,1)"/>
  <circle cx="1" cy="1" r="1" fill="srgba(0,0,102,1)"/>
  <circle cx="2" cy="1" r="1" fill="srgba(0%,0%,40.0122%,1)"/>
  <circle cx="3" cy="1" r="1" fill="srgba(0%,0%,40.116%,1)"/>
  <circle cx="4" cy="1" r="1" fill="srgba(0%,0%,40.3296%,1)"/>
  <circle cx="5" cy="1" r="1" fill="srgba(0%,0%,40.4364%,1)"/>
  <circle cx="6" cy="1" r="1" fill="srgba(0.410468%,0%,39.7925%,1)"/>
  <circle cx="7" cy="1" r="1" fill="srgba(4.73945%,0%,37.4304%,1)"/>
  <circle cx="8" cy="1" r="1" fill="srgba(14.3877%,0.0244144%,33.2158%,1)"/>
  <circle cx="9" cy="1" r="1" fill="srgba(28.6793%,1.45876%,28.5084%,1)"/>
  <circle cx="10" cy="1" r="1" fill="srgba(45.684%,6.73075%,26.3447%,1)"/>
  <circle cx="11" cy="1" r="1" fill="srgba(62.4598%,17.6287%,30.2144%,1)"/>
  <circle cx="12" cy="1" r="1" fill="srgba(76.5942%,34.3023%,41.387%,1)"/>
  <circle cx="13" cy="1" r="1" fill="srgba(87.0375%,54.612%,58.1323%,1)"/>
  <circle cx="14" cy="1" r="1" fill="srgba(93.6614%,74.2245%,75.7977%,1)"/>
  <circle cx="15" cy="1" r="1" fill="srgba(96.9207%,87.6143%,88.3452%,1)"/>
  <circle cx="0" cy="2" r="1" fill="srgba(0%,0%,40.3525%,1)"/>
  <circle cx="1" cy="2" r="1" fill="srgba(0%,0%,40.4379%,1)"/>
  <circle cx="2" cy="2" r="1" fill="srgba(0.413519%,0%,39.7894%,1)"/>
  <circle cx="3" cy="2" r="1" fill="srgba(4.77607%,0%,37.409%,1)"/>
  <circle cx="4" cy="2" r="1" fill="srgba(14.5006%,0.0259403%,33.1609%,1)"/>
  <circle cx="5" cy="2" r="1" fill="srgba(28.9036%,1.47402%,28.4184%,1)"/>
  <circle cx="6" cy="2" r="1" fill="srgba(46.0456%,6.79637%,26.247%,1)"/>
  <circle cx="7" cy="2" r="1" fill="srgba(62.9511%,17.7844%,30.1518%,1)"/>
  <circle cx="8" cy="2" r="1" fill="srgba(77.1588%,34.5571%,41.384%,1)"/>
  <circle cx="9" cy="2" r="1" fill="srgba(87.4937%,54.818%,58.0514%,1)"/>
  <circle cx="10" cy="2" r="1" fill="srgba(94.3328%,74.6105%,75.8938%,1)"/>
  <circle cx="11" cy="2" r="1" fill="srgba(98.1598%,89.5995%,89.958%,1)"/>
  <circle cx="12" cy="2" r="1" fill="srgba(98.9364%,97.2335%,97.2335%,1)"/>
  <circle cx="13" cy="2" r="1" fill="srgba(96.6491%,97.5341%,97.4304%,1)"/>
  <circle cx="14" cy="2" r="1" fill="srgba(96.2127%,97.0352%,96.9558%,1)"/>
  <circle cx="15" cy="2" r="1" fill="srgba(99.6719%,99.5529%,99.5727%,1)"/>
  <circle cx="0" cy="3" r="1" fill="srgba(15.4101%,0.0289921%,32.7794%,1)"/>
  <circle cx="1" cy="3" r="1" fill="srgba(28.7373%,1.46181%,28.4764%,1)"/>
  <circle cx="2" cy="3" r="1" fill="srgba(46.0456%,6.79637%,26.244%,1)"/>
  <circle cx="3" cy="3" r="1" fill="srgba(62.9511%,17.7844%,30.1503%,1)"/>
  <circle cx="4" cy="3" r="1" fill="srgba(77.1603%,34.5602%,41.3855%,1)"/>
  <circle cx="5" cy="3" r="1" fill="srgba(87.4998%,54.844%,58.0743%,1)"/>
  <circle cx="6" cy="3" r="1" fill="srgba(94.1299%,74.4289%,75.7092%,1)"/>
  <circle cx="7" cy="3" r="1" fill="srgba(97.9599%,89.4148%,89.7719%,1)"/>
  <circle cx="8" cy="3" r="1" fill="srgba(99.7421%,98.024%,98.0407%,1)"/>
  <circle cx="9" cy="3" r="1" fill="white"/>
  <circle cx="10" cy="3" r="1" fill="srgba(96.2478%,96.9299%,96.8688%,1)"/>
  <circle cx="11" cy="3" r="1" fill="srgba(91.5389%,92.0546%,92.0027%,1)"/>
  <circle cx="12" cy="3" r="1" fill="srgba(87.3808%,87.4784%,87.4678%,1)"/>
  <circle cx="13" cy="3" r="1" fill="srgba(81.0208%,81.0208%,81.0208%,1)"/>
  <circle cx="14" cy="3" r="1" fill="srgba(87.1763%,87.1855%,87.1839%,1)"/>
  <circle cx="15" cy="3" r="1" fill="srgba(98.9227%,98.7701%,98.793%,1)"/>
  <circle cx="0" cy="4" r="1" fill="srgba(78.1552%,36.0281%,42.4796%,1)"/>
  <circle cx="1" cy="4" r="1" fill="srgba(87.3533%,54.5953%,57.879%,1)"/>
  <circle cx="2" cy="4" r="1" fill="srgba(94.1299%,74.4289%,75.7107%,1)"/>
  <circle cx="3" cy="4" r="1" fill="srgba(97.9568%,89.4133%,89.7688%,1)"/>
  <circle cx="4" cy="4" r="1" fill="srgba(99.7147%,97.9644%,97.9782%,1)"/>
  <circle cx="5" cy="4" r="1" fill="white"/>
  <circle cx="6" cy="4" r="1" fill="white"/>
  <circle cx="7" cy="4" r="1" fill="white"/>
  <circle cx="8" cy="4" r="1" fill="srgba(98.2498%,98.2834%,98.2788%,1)"/>
  <circle cx="9" cy="4" r="1" fill="srgba(92.1981%,92.2011%,92.2011%,1)"/>
  <circle cx="10" cy="4" r="1" fill="srgba(81.6724%,81.6724%,81.6724%,1)"/>
  <circle cx="11" cy="4" r="1" fill="srgba(89.8772%,89.8772%,89.8772%,1)"/>
  <circle cx="12" cy="4" r="1" fill="srgba(92.2911%,92.2911%,92.2911%,1)"/>
  <circle cx="13" cy="4" r="1" fill="srgba(86.4286%,86.4286%,86.4286%,1)"/>
  <circle cx="14" cy="4" r="1" fill="srgba(87.1153%,87.1229%,87.1229%,1)"/>
  <circle cx="15" cy="4" r="1" fill="srgba(88.3314%,88.1941%,88.2139%,1)"/>
  <circle cx="0" cy="5" r="1" fill="srgba(99.7955%,98.4207%,98.4237%,1)"/>
  <circle cx="1" cy="5" r="1" fill="srgba(100%,99.9954%,99.9908%,1)"/>
  <circle cx="2" cy="5" r="1" fill="white"/>
  <circle cx="3" cy="5" r="1" fill="white"/>
  <circle cx="4" cy="5" r="1" fill="white"/>
  <circle cx="5" cy="5" r="1" fill="white"/>
  <circle cx="6" cy="5" r="1" fill="white"/>
  <circle cx="7" cy="5" r="1" fill="srgba(99.9893%,99.9893%,99.9893%,1)"/>
  <circle cx="8" cy="5" r="1" fill="srgba(93.0953%,93.0953%,93.0953%,1)"/>
  <circle cx="9" cy="5" r="1" fill="srgba(89.836%,89.836%,89.836%,1)"/>
  <circle cx="10" cy="5" r="1" fill="srgba(81.8189%,81.8189%,81.8189%,1)"/>
  <circle cx="11" cy="5" r="1" fill="srgba(81.1017%,81.1017%,81.1017%,1)"/>
  <circle cx="12" cy="5" r="1" fill="srgba(86.2287%,86.2287%,86.2287%,1)"/>
  <circle cx="13" cy="5" r="1" fill="srgba(80.8835%,80.8835%,80.8835%,1)"/>
  <circle cx="14" cy="5" r="1" fill="srgba(84.1398%,84.1474%,84.1459%,1)"/>
  <circle cx="15" cy="5" r="1" fill="srgba(86.1173%,85.9831%,86.0029%,1)"/>
  <circle cx="0" cy="6" r="1" fill="white"/>
  <circle cx="1" cy="6" r="1" fill="white"/>
  <circle cx="2" cy="6" r="1" fill="white"/>
  <circle cx="3" cy="6" r="1" fill="white"/>
  <circle cx="4" cy="6" r="1" fill="white"/>
  <circle cx="5" cy="6" r="1" fill="white"/>
  <circle cx="6" cy="6" r="1" fill="srgba(99.5773%,99.5773%,99.5773%,1)"/>
  <circle cx="7" cy="6" r="1" fill="srgba(96.997%,96.997%,96.997%,1)"/>
  <circle cx="8" cy="6" r="1" fill="srgba(85.2842%,85.2842%,85.2842%,1)"/>
  <circle cx="9" cy="6" r="1" fill="srgba(76.4263%,76.4263%,76.4263%,1)"/>
  <circle cx="10" cy="6" r="1" fill="srgba(84.6555%,84.6555%,84.6555%,1)"/>
  <circle cx="11" cy="6" r="1" fill="srgba(82.1225%,82.1225%,82.1225%,1)"/>
  <circle cx="12" cy="6" r="1" fill="srgba(80.2884%,80.2884%,80.2884%,1)"/>
  <circle cx="13" cy="6" r="1" fill="srgba(63.8911%,63.8911%,63.8911%,1)"/>
  <circle cx="14" cy="6" r="1" fill="srgba(68.6915%,68.6961%,68.6961%,1)"/>
  <circle cx="15" cy="6" r="1" fill="srgba(72.1141%,72.0226%,72.0363%,1)"/>
  <circle cx="0" cy="7" r="1" fill="white"/>
  <circle cx="1" cy="7" r="1" fill="white"/>
  <circle cx="2" cy="7" r="1" fill="white"/>
  <circle cx="3" cy="7" r="1" fill="white"/>
  <circle cx="4" cy="7" r="1" fill="white"/>
  <circle cx="5" cy="7" r="1" fill="srgba(100%,100%,99.9298%,1)"/>
  <circle cx="6" cy="7" r="1" fill="srgba(91.7403%,91.3237%,90.222%,1)"/>
  <circle cx="7" cy="7" r="1" fill="srgba(86.5263%,86.5202%,86.5034%,1)"/>
  <circle cx="8" cy="7" r="1" fill="srgba(90.6157%,90.6172%,90.6233%,1)"/>
  <circle cx="9" cy="7" r="1" fill="srgba(86.5431%,86.5385%,86.537%,1)"/>
  <circle cx="10" cy="7" r="1" fill="srgba(88.1453%,88.2139%,88.2536%,1)"/>
  <circle cx="11" cy="7" r="1" fill="srgba(91.8029%,92.0516%,92.1965%,1)"/>
  <circle cx="12" cy="7" r="1" fill="srgba(91.9417%,92.2805%,92.4758%,1)"/>
  <circle cx="13" cy="7" r="1" fill="srgba(80.8209%,81.2253%,81.4572%,1)"/>
  <circle cx="14" cy="7" r="1" fill="srgba(84.6586%,85.1637%,85.449%,1)"/>
  <circle cx="15" cy="7" r="1" fill="srgba(91.4031%,91.7967%,92.1324%,1)"/>
  <circle cx="0" cy="8" r="1" fill="white"/>
  <circle cx="1" cy="8" r="1" fill="white"/>
  <circle cx="2" cy="8" r="1" fill="white"/>
  <circle cx="3" cy="8" r="1" fill="white"/>
  <circle cx="4" cy="8" r="1" fill="white"/>
  <circle cx="5" cy="8" r="1" fill="srgba(97.5463%,96.8475%,94.9996%,1)"/>
  <circle cx="6" cy="8" r="1" fill="srgba(88.4764%,85.2094%,76.5835%,1)"/>
  <circle cx="7" cy="8" r="1" fill="srgba(91.9112%,91.6609%,91.0018%,1)"/>
  <circle cx="8" cy="8" r="1" fill="srgba(97.9446%,98.0499%,98.2727%,1)"/>
  <circle cx="9" cy="8" r="1" fill="white"/>
  <circle cx="10" cy="8" r="1" fill="srgba(86.6789%,85.6214%,85.2277%,1)"/>
  <circle cx="11" cy="8" r="1" fill="srgba(83.2486%,79.3362%,77.2351%,1)"/>
  <circle cx="12" cy="8" r="1" fill="srgba(79.3729%,74.0459%,70.9712%,1)"/>
  <circle cx="13" cy="8" r="1" fill="srgba(82.5574%,76.1761%,72.5017%,1)"/>
  <circle cx="14" cy="8" r="1" fill="srgba(88.3055%,80.2869%,75.6664%,1)"/>
  <circle cx="15" cy="8" r="1" fill="srgba(86.9429%,77.7966%,72.6146%,1)"/>
  <circle cx="0" cy="9" r="1" fill="white"/>
  <circle cx="1" cy="9" r="1" fill="white"/>
  <circle cx="2" cy="9" r="1" fill="white"/>
  <circle cx="3" cy="9" r="1" fill="white"/>
  <circle cx="4" cy="9" r="1" fill="white"/>
  <circle cx="5" cy="9" r="1" fill="srgba(93.4371%,90.8446%,84.004%,1)"/>
  <circle cx="6" cy="9" r="1" fill="srgba(89.0364%,82.9908%,67.0314%,1)"/>
  <circle cx="7" cy="9" r="1" fill="srgba(83.5935%,80.8484%,73.6049%,1)"/>
  <circle cx="8" cy="9" r="1" fill="srgba(89.0318%,85.9602%,77.8546%,1)"/>
  <circle cx="9" cy="9" r="1" fill="srgba(95.9976%,93.1456%,85.2461%,1)"/>
  <circle cx="10" cy="9" r="1" fill="srgba(76.1593%,68.4291%,56.8978%,1)"/>
  <circle cx="11" cy="9" r="1" fill="srgba(59.0829%,32.015%,9.3492%,1)"/>
  <circle cx="12" cy="9" r="1" fill="srgba(57.2396%,24.271%,6.02731%,1)"/>
  <circle cx="13" cy="9" r="1" fill="srgba(56.3241%,23.5355%,4.78828%,1)"/>
  <circle cx="14" cy="9" r="1" fill="srgba(61.2009%,24.7837%,3.8117%,1)"/>
  <circle cx="15" cy="9" r="1" fill="srgba(60.9079%,24.1169%,2.94804%,1)"/>
  <circle cx="0" cy="10" r="1" fill="srgba(99.7772%,98.3154%,98.32%,1)"/>
  <circle cx="1" cy="10" r="1" fill="srgba(100%,99.9893%,99.9847%,1)"/>
  <circle cx="2" cy="10" r="1" fill="white"/>
  <circle cx="3" cy="10" r="1" fill="white"/>
  <circle cx="4" cy="10" r="1" fill="white"/>
  <circle cx="5" cy="10" r="1" fill="srgba(99.5544%,99.4369%,99.1241%,1)"/>
  <circle cx="6" cy="10" r="1" fill="srgba(93.6309%,93.0632%,91.5648%,1)"/>
  <circle cx="7" cy="10" r="1" fill="srgba(77.4014%,73.3761%,62.7939%,1)"/>
  <circle cx="8" cy="10" r="1" fill="srgba(79.8642%,72.7993%,54.1558%,1)"/>
  <circle cx="9" cy="10" r="1" fill="srgba(83.27%,72.2652%,43.1952%,1)"/>
  <circle cx="10" cy="10" r="1" fill="srgba(69.4728%,55.6817%,19.704%,1)"/>
  <circle cx="11" cy="10" r="1" fill="srgba(55.1858%,33.547%,6.26841%,1)"/>
  <circle cx="12" cy="10" r="1" fill="srgba(52.697%,24.6326%,0.973526%,1)"/>
  <circle cx="13" cy="10" r="1" fill="srgba(49.3324%,19.5499%,0.413519%,1)"/>
  <circle cx="14" cy="10" r="1" fill="srgba(54.345%,19.6521%,0%,1)"/>
  <circle cx="15" cy="10" r="1" fill="srgba(54.2794%,19.852%,0.205997%,1)"/>
  <circle cx="0" cy="11" r="1" fill="srgba(77.9004%,35.5734%,42.1149%,1)"/>
  <circle cx="1" cy="11" r="1" fill="srgba(87.1656%,54.0993%,57.4395%,1)"/>
  <circle cx="2" cy="11" r="1" fill="srgba(94.0078%,74.0002%,75.3109%,1)"/>
  <circle cx="3" cy="11" r="1" fill="srgba(97.8866%,89.1234%,89.4942%,1)"/>
  <circle cx="4" cy="11" r="1" fill="srgba(99.6918%,97.8408%,97.8592%,1)"/>
  <circle cx="5" cy="11" r="1" fill="srgba(99.8795%,99.9084%,99.9023%,1)"/>
  <circle cx="6" cy="11" r="1" fill="srgba(94.7509%,94.8928%,95.2285%,1)"/>
  <circle cx="7" cy="11" r="1" fill="srgba(77.911%,73.4249%,61.1444%,1)"/>
  <circle cx="8" cy="11" r="1" fill="srgba(72.7947%,63.1876%,37.6104%,1)"/>
  <circle cx="9" cy="11" r="1" fill="srgba(71.9799%,62.8016%,38.5718%,1)"/>
  <circle cx="10" cy="11" r="1" fill="srgba(64.2863%,52.0516%,19.6292%,1)"/>
  <circle cx="11" cy="11" r="1" fill="srgba(69.2164%,58.8022%,33.4722%,1)"/>
  <circle cx="12" cy="11" r="1" fill="srgba(63.0014%,44.3977%,16.5133%,1)"/>
  <circle cx="13" cy="11" r="1" fill="srgba(52.7047%,23.3265%,0.706493%,1)"/>
  <circle cx="14" cy="11" r="1" fill="srgba(57.8424%,20.9751%,0%,1)"/>
  <circle cx="15" cy="11" r="1" fill="srgba(57.7249%,21.2238%,0.21973%,1)"/>
  <circle cx="0" cy="12" r="1" fill="srgba(15.169%,0.0228885%,32.8801%,1)"/>
  <circle cx="1" cy="12" r="1" fill="srgba(28.4398%,1.40078%,28.5496%,1)"/>
  <circle cx="2" cy="12" r="1" fill="srgba(45.7176%,6.61784%,26.2089%,1)"/>
  <circle cx="3" cy="12" r="1" fill="srgba(62.6429%,17.4563%,29.9458%,1)"/>
  <circle cx="4" cy="12" r="1" fill="srgba(76.9055%,34.107%,41.0208%,1)"/>
  <circle cx="5" cy="12" r="1" fill="srgba(87.1321%,53.9528%,57.2488%,1)"/>
  <circle cx="6" cy="12" r="1" fill="srgba(90.605%,77.908%,79.1348%,1)"/>
  <circle cx="7" cy="12" r="1" fill="srgba(85.4246%,81.1185%,76.1959%,1)"/>
  <circle cx="8" cy="12" r="1" fill="srgba(85.037%,75.5749%,54.6029%,1)"/>
  <circle cx="9" cy="12" r="1" fill="srgba(78.3734%,67.6371%,37.9202%,1)"/>
  <circle cx="10" cy="12" r="1" fill="srgba(63.8621%,58.1048%,40.7111%,1)"/>
  <circle cx="11" cy="12" r="1" fill="srgba(81.3153%,76.6964%,62.623%,1)"/>
  <circle cx="12" cy="12" r="1" fill="srgba(80.1709%,71.3634%,66.1814%,1)"/>
  <circle cx="13" cy="12" r="1" fill="srgba(57.0214%,24.303%,6.06851%,1)"/>
  <circle cx="14" cy="12" r="1" fill="srgba(61.4145%,22.063%,0%,1)"/>
  <circle cx="15" cy="12" r="1" fill="srgba(61.4237%,22.5895%,0.231937%,1)"/>
  <circle cx="0" cy="13" r="1" fill="srgba(0%,0%,40.3479%,1)"/>
  <circle cx="1" cy="13" r="1" fill="srgba(0%,0%,40.4395%,1)"/>
  <circle cx="2" cy="13" r="1" fill="srgba(0.383001%,0%,39.8184%,1)"/>
  <circle cx="3" cy="13" r="1" fill="srgba(4.65095%,0%,37.4792%,1)"/>
  <circle cx="4" cy="13" r="1" fill="srgba(14.2809%,0.0198367%,33.2555%,1)"/>
  <circle cx="5" cy="13" r="1" fill="srgba(27.7836%,0%,27.2221%,1)"/>
  <circle cx="6" cy="13" r="1" fill="srgba(62.3453%,42.8717%,54.9111%,1)"/>
  <circle cx="7" cy="13" r="1" fill="srgba(72.4727%,51.1101%,52.398%,1)"/>
  <circle cx="8" cy="13" r="1" fill="srgba(75.5917%,41.9669%,24.2664%,1)"/>
  <circle cx="9" cy="13" r="1" fill="srgba(80.3113%,56.8139%,31.6976%,1)"/>
  <circle cx="10" cy="13" r="1" fill="srgba(74.2672%,58.3261%,58.7121%,1)"/>
  <circle cx="11" cy="13" r="1" fill="srgba(94.9493%,86.3142%,86.5812%,1)"/>
  <circle cx="12" cy="13" r="1" fill="srgba(95.1736%,93.7606%,93.8781%,1)"/>
  <circle cx="13" cy="13" r="1" fill="srgba(73.4051%,58.8418%,49.8451%,1)"/>
  <circle cx="14" cy="13" r="1" fill="srgba(61.59%,24.7547%,3.07774%,1)"/>
  <circle cx="15" cy="13" r="1" fill="srgba(61.2314%,22.3621%,0%,1)"/>
  <circle cx="0" cy="14" r="1" fill="srgba(0%,0%,39.9908%,1)"/>
  <circle cx="1" cy="14" r="1" fill="srgba(0%,0%,39.9908%,1)"/>
  <circle cx="2" cy="14" r="1" fill="srgba(0%,0%,40.0031%,1)"/>
  <circle cx="3" cy="14" r="1" fill="srgba(0%,0%,40.1053%,1)"/>
  <circle cx="4" cy="14" r="1" fill="srgba(0%,0%,40.3174%,1)"/>
  <circle cx="5" cy="14" r="1" fill="srgba(0%,0%,39.3713%,1)"/>
  <circle cx="6" cy="14" r="1" fill="srgba(40.0168%,40.1236%,62.1286%,1)"/>
  <circle cx="7" cy="14" r="1" fill="srgba(41.4618%,37.5814%,53.3318%,1)"/>
  <circle cx="8" cy="14" r="1" fill="srgba(37.1679%,22.7283%,22.9694%,1)"/>
  <circle cx="9" cy="14" r="1" fill="srgba(51.2871%,28.9723%,18.201%,1)"/>
  <circle cx="10" cy="14" r="1" fill="srgba(37.5341%,6.19974%,21.3672%,1)"/>
  <circle cx="11" cy="14" r="1" fill="srgba(61.5579%,17.2396%,29.8878%,1)"/>
  <circle cx="12" cy="14" r="1" fill="srgba(74.0093%,32.755%,39.8596%,1)"/>
  <circle cx="13" cy="14" r="1" fill="srgba(81.5961%,49.1966%,52.1859%,1)"/>
  <circle cx="14" cy="14" r="1" fill="srgba(68.3589%,30.6905%,19.6414%,1)"/>
  <circle cx="15" cy="14" r="1" fill="srgba(60.9018%,21.6403%,0%,1)"/>
  <circle cx="0" cy="15" r="1" fill="srgba(0.260929%,0.260929%,40.1541%,1)"/>
  <circle cx="1" cy="15" r="1" fill="srgba(0.260929%,0.260929%,40.1541%,1)"/>
  <circle cx="2" cy="15" r="1" fill="srgba(0.260929%,0.260929%,40.1541%,1)"/>
  <circle cx="3" cy="15" r="1" fill="srgba(0.260929%,0.260929%,40.1541%,1)"/>
  <circle cx="4" cy="15" r="1" fill="srgba(0.260929%,0.260929%,40.1541%,1)"/>
  <circle cx="5" cy="15" r="1" fill="srgba(0%,0%,39.1394%,1)"/>
  <circle cx="6" cy="15" r="1" fill="srgba(39.6551%,39.6979%,61.6114%,1)"/>
  <circle cx="7" cy="15" r="1" fill="srgba(33.8125%,33.5988%,54.2672%,1)"/>
  <circle cx="8" cy="15" r="1" fill="srgba(27.1794%,20.3952%,27.4113%,1)"/>
  <circle cx="9" cy="15" r="1" fill="srgba(32.5414%,24.8554%,25.3483%,1)"/>
  <circle cx="10" cy="15" r="1" fill="srgba(0.836194%,0.303655%,32.2362%,1)"/>
  <circle cx="11" cy="15" r="1" fill="srgba(5.47494%,0%,36.8521%,1)"/>
  <circle cx="12" cy="15" r="1" fill="srgba(15.7824%,0.0961318%,31.6854%,1)"/>
  <circle cx="13" cy="15" r="1" fill="srgba(32.3262%,2.16373%,26.5721%,1)"/>
  <circle cx="14" cy="15" r="1" fill="srgba(48.6839%,6.95964%,20.9979%,1)"/>
  <circle cx="15" cy="15" r="1" fill="srgba(54.992%,17.0535%,5.62295%,1)"/>
</svg>
