<?xml version="1.0" standalone="no"?>
<!DOCTYPE svg PUBLIC "-//W3C//DTD SVG 20010904//EN"
  "http://www.w3.org/TR/2001/REC-SVG-20010904/DTD/svg10.dtd">
<svg width="16" height="16">
  <circle cx="0" cy="0" r="1" fill="srgba(86.9734%,49.2729%,50.7134%,1)"/>
  <circle cx="1" cy="0" r="1" fill="srgba(77.673%,65.8564%,73.608%,1)"/>
  <circle cx="2" cy="0" r="1" fill="srgba(22.5849%,23.5264%,54.5357%,1)"/>
  <circle cx="3" cy="0" r="1" fill="srgba(0%,0.0350958%,39.9176%,1)"/>
  <circle cx="4" cy="0" r="1" fill="srgba(45.6321%,28.4001%,48.249%,1)"/>
  <circle cx="5" cy="0" r="1" fill="srgba(84.564%,21.4725%,21.3535%,1)"/>
  <circle cx="6" cy="0" r="1" fill="srgba(30.8354%,23.2456%,49.9886%,1)"/>
  <circle cx="7" cy="0" r="1" fill="srgba(0%,0.65156%,40.8515%,1)"/>
  <circle cx="8" cy="0" r="1" fill="srgba(29.7154%,17.9782%,44.9332%,1)"/>
  <circle cx="9" cy="0" r="1" fill="srgba(80.882%,43.4836%,47.3915%,1)"/>
  <circle cx="10" cy="0" r="1" fill="srgba(67.0451%,50.3365%,61.8448%,1)"/>
  <circle cx="11" cy="0" r="1" fill="srgba(2.9221%,3.2929%,42.1592%,1)"/>
  <circle cx="12" cy="0" r="1" fill="srgba(0%,0%,39.8978%,1)"/>
  <circle cx="13" cy="0" r="1" fill="srgba(0,0,102,1)"/>
  <circle cx="14" cy="0" r="1" fill="srgba(0,0,102,1)"/>
  <circle cx="15" cy="0" r="1" fill="srgba(0,0,102,1)"/>
  <circle cx="0" cy="1" r="1" fill="srgba(29.633%,17.3556%,44.2725%,1)"/>
  <circle cx="1" cy="1" r="1" fill="srgba(72.0821%,39.2187%,47.0985%,1)"/>
  <circle cx="2" cy="1" r="1" fill="srgba(81.4694%,61.6419%,67.071%,1)"/>
  <circle cx="3" cy="1" r="1" fill="srgba(36.347%,36.2722%,61.7258%,1)"/>
  <circle cx="4" cy="1" r="1" fill="srgba(48.6717%,31.7037%,50.5348%,1)"/>
  <circle cx="5" cy="1" r="1" fill="srgba(84.0803%,21.091%,21.1627%,1)"/>
  <circle cx="6" cy="1" r="1" fill="srgba(36.9818%,28.1758%,52.5078%,1)"/>
  <circle cx="7" cy="1" r="1" fill="srgba(42.0661%,22.6368%,43.8682%,1)"/>
  <circle cx="8" cy="1" r="1" fill="srgba(82.678%,49.5567%,53.1746%,1)"/>
  <circle cx="9" cy="1" r="1" fill="srgba(69.6056%,58.9654%,70.0587%,1)"/>
  <circle cx="10" cy="1" r="1" fill="srgba(19.7223%,20.3616%,52.5368%,1)"/>
  <circle cx="11" cy="1" r="1" fill="srgba(0%,0%,39.8962%,1)"/>
  <circle cx="12" cy="1" r="1" fill="srgba(0%,0%,39.9878%,1)"/>
  <circle cx="13" cy="1" r="1" fill="srgba(0,0,102,1)"/>
  <circle cx="14" cy="1" r="1" fill="srgba(0,0,102,1)"/>
  <circle cx="15" cy="1" r="1" fill="srgba(0,0,102,1)"/>
  <circle cx="0" cy="2" r="1" fill="srgba(38.3536%,34.1817%,58.4283%,1)"/>
  <circle cx="1" cy="2" r="1" fill="srgba(52.6497%,43.9231%,61.9959%,1)"/>
  <circle cx="2" cy="2" r="1" fill="srgba(86.45%,56.9055%,59.3729%,1)"/>
  <circle cx="3" cy="2" r="1" fill="srgba(92.5597%,77.6165%,79.0967%,1)"/>
  <circle cx="4" cy="2" r="1" fill="srgba(83.7751%,63.0488%,67.4647%,1)"/>
  <circle cx="5" cy="2" r="1" fill="srgba(83.386%,19.6704%,19.9451%,1)"/>
  <circle cx="6" cy="2" r="1" fill="srgba(81.7853%,58.6999%,63.679%,1)"/>
  <circle cx="7" cy="2" r="1" fill="srgba(91.78%,62.6978%,63.0777%,1)"/>
  <circle cx="8" cy="2" r="1" fill="srgba(85.4658%,76.7468%,81.6907%,1)"/>
  <circle cx="9" cy="2" r="1" fill="srgba(48.3482%,44.0009%,64.2313%,1)"/>
  <circle cx="10" cy="2" r="1" fill="srgba(28.6091%,24.831%,53.0129%,1)"/>
  <circle cx="11" cy="2" r="1" fill="srgba(1.47555%,1.28786%,40.679%,1)"/>
  <circle cx="12" cy="2" r="1" fill="srgba(0%,0%,39.9588%,1)"/>
  <circle cx="13" cy="2" r="1" fill="srgba(0,0,102,1)"/>
  <circle cx="14" cy="2" r="1" fill="srgba(0,0,102,1)"/>
  <circle cx="15" cy="2" r="1" fill="srgba(0,0,102,1)"/>
  <circle cx="0" cy="3" r="1" fill="srgba(84.2664%,18.5565%,18.2788%,1)"/>
  <circle cx="1" cy="3" r="1" fill="srgba(83.5859%,18.1399%,18.1613%,1)"/>
  <circle cx="2" cy="3" r="1" fill="srgba(83.3524%,18.1186%,18.2559%,1)"/>
  <circle cx="3" cy="3" r="1" fill="srgba(83.8514%,18.0331%,17.9095%,1)"/>
  <circle cx="4" cy="3" r="1" fill="srgba(83.4363%,14.7219%,14.4762%,1)"/>
  <circle cx="5" cy="3" r="1" fill="srgba(80.7858%,3.8117%,3.7995%,1)"/>
  <circle cx="6" cy="3" r="1" fill="srgba(83.8468%,16.4065%,16.1242%,1)"/>
  <circle cx="7" cy="3" r="1" fill="srgba(83.8941%,18.8495%,18.7869%,1)"/>
  <circle cx="8" cy="3" r="1" fill="srgba(83.2166%,17.8042%,17.9782%,1)"/>
  <circle cx="9" cy="3" r="1" fill="srgba(84.9668%,18.291%,17.6364%,1)"/>
  <circle cx="10" cy="3" r="1" fill="srgba(63.8773%,14.4167%,23.9185%,1)"/>
  <circle cx="11" cy="3" r="1" fill="srgba(3.31426%,0.865187%,39.2554%,1)"/>
  <circle cx="12" cy="3" r="1" fill="srgba(0%,0%,40.032%,1)"/>
  <circle cx="13" cy="3" r="1" fill="srgba(0,0,102,1)"/>
  <circle cx="14" cy="3" r="1" fill="srgba(0,0,102,1)"/>
  <circle cx="15" cy="3" r="1" fill="srgba(0,0,102,1)"/>
  <circle cx="0" cy="4" r="1" fill="srgba(83.0365%,29.0394%,30.425%,1)"/>
  <circle cx="1" cy="4" r="1" fill="srgba(82.2095%,28.2185%,29.9351%,1)"/>
  <circle cx="2" cy="4" r="1" fill="srgba(85.2354%,31.8669%,32.4361%,1)"/>
  <circle cx="3" cy="4" r="1" fill="srgba(86.8116%,31.4717%,31.2139%,1)"/>
  <circle cx="4" cy="4" r="1" fill="srgba(85.5177%,24.683%,24.3915%,1)"/>
  <circle cx="5" cy="4" r="1" fill="srgba(81.3886%,6.94743%,6.94896%,1)"/>
  <circle cx="6" cy="4" r="1" fill="srgba(86.7796%,30.2846%,29.9229%,1)"/>
  <circle cx="7" cy="4" r="1" fill="srgba(86.4088%,30.3227%,30.1503%,1)"/>
  <circle cx="8" cy="4" r="1" fill="srgba(84.2176%,29.9397%,30.8263%,1)"/>
  <circle cx="9" cy="4" r="1" fill="srgba(83.5538%,29.1081%,30.2449%,1)"/>
  <circle cx="10" cy="4" r="1" fill="srgba(62.9236%,22.2599%,32.9915%,1)"/>
  <circle cx="11" cy="4" r="1" fill="srgba(4.26642%,2.25376%,39.9924%,1)"/>
  <circle cx="12" cy="4" r="1" fill="srgba(0.106813%,0.230411%,40.0488%,1)"/>
  <circle cx="13" cy="4" r="1" fill="srgba(0%,0%,39.9985%,1)"/>
  <circle cx="14" cy="4" r="1" fill="srgba(0,0,102,1)"/>
  <circle cx="15" cy="4" r="1" fill="srgba(0,0,102,1)"/>
  <circle cx="0" cy="5" r="1" fill="srgba(24.9958%,24.5243%,54.4793%,1)"/>
  <circle cx="1" cy="5" r="1" fill="srgba(50.1076%,50.0893%,70.0435%,1)"/>
  <circle cx="2" cy="5" r="1" fill="srgba(91.2093%,77.351%,79.4812%,1)"/>
  <circle cx="3" cy="5" r="1" fill="srgba(82.9252%,53.315%,57.1847%,1)"/>
  <circle cx="4" cy="5" r="1" fill="srgba(75.8862%,52.1019%,59.3668%,1)"/>
  <circle cx="5" cy="5" r="1" fill="srgba(83.4607%,20.5692%,20.8972%,1)"/>
  <circle cx="6" cy="5" r="1" fill="srgba(76.8338%,68.9433%,77.4243%,1)"/>
  <circle cx="7" cy="5" r="1" fill="srgba(90.9545%,74.3069%,76.2615%,1)"/>
  <circle cx="8" cy="5" r="1" fill="srgba(81.268%,52.5399%,57.1603%,1)"/>
  <circle cx="9" cy="5" r="1" fill="srgba(40.676%,35.3307%,58.526%,1)"/>
  <circle cx="10" cy="5" r="1" fill="srgba(22.034%,22.3392%,53.5546%,1)"/>
  <circle cx="11" cy="5" r="1" fill="srgba(45.7298%,45.7038%,67.4083%,1)"/>
  <circle cx="12" cy="5" r="1" fill="srgba(18.4878%,18.4894%,51.0933%,1)"/>
  <circle cx="13" cy="5" r="1" fill="srgba(0%,0%,39.498%,1)"/>
  <circle cx="14" cy="5" r="1" fill="srgba(0,0,102,1)"/>
  <circle cx="15" cy="5" r="1" fill="srgba(0,0,102,1)"/>
  <circle cx="0" cy="6" r="1" fill="srgba(48.2155%,45.7832%,66.2547%,1)"/>
  <circle cx="1" cy="6" r="1" fill="srgba(83.7949%,60.7584%,64.9378%,1)"/>
  <circle cx="2" cy="6" r="1" fill="srgba(69.337%,36.907%,45.9297%,1)"/>
  <circle cx="3" cy="6" r="1" fill="srgba(21.503%,13.8323%,44.4404%,1)"/>
  <circle cx="4" cy="6" r="1" fill="srgba(46.5705%,29.2897%,48.9281%,1)"/>
  <circle cx="5" cy="6" r="1" fill="srgba(85.2781%,21.2863%,21.2055%,1)"/>
  <circle cx="6" cy="6" r="1" fill="srgba(33.2753%,25.6748%,51.5297%,1)"/>
  <circle cx="7" cy="6" r="1" fill="srgba(32.8206%,32.4697%,59.2996%,1)"/>
  <circle cx="8" cy="6" r="1" fill="srgba(80.589%,62.1744%,68.0964%,1)"/>
  <circle cx="9" cy="6" r="1" fill="srgba(75.8358%,41.6159%,47.8599%,1)"/>
  <circle cx="10" cy="6" r="1" fill="srgba(31.3313%,18.8266%,45.0446%,1)"/>
  <circle cx="11" cy="6" r="1" fill="srgba(36.5225%,36.6506%,62.0539%,1)"/>
  <circle cx="12" cy="6" r="1" fill="srgba(14.873%,14.8836%,48.9387%,1)"/>
  <circle cx="13" cy="6" r="1" fill="srgba(0%,0%,39.5621%,1)"/>
  <circle cx="14" cy="6" r="1" fill="srgba(0%,0%,39.7177%,1)"/>
  <circle cx="15" cy="6" r="1" fill="srgba(0%,0%,39.9023%,1)"/>
  <circle cx="0" cy="7" r="1" fill="srgba(69.9031%,44.4739%,53.9696%,1)"/>
  <circle cx="1" cy="7" r="1" fill="srgba(50.0145%,25.658%,43.212%,1)"/>
  <circle cx="2" cy="7" r="1" fill="srgba(9.90616%,7.57%,43.4165%,1)"/>
  <circle cx="3" cy="7" r="1" fill="srgba(0%,0%,40.3143%,1)"/>
  <circle cx="4" cy="7" r="1" fill="srgba(34.7189%,21.6144%,46.363%,1)"/>
  <circle cx="5" cy="7" r="1" fill="srgba(64.2893%,16.3241%,25.8213%,1)"/>
  <circle cx="6" cy="7" r="1" fill="srgba(23.5111%,17.7356%,47.6432%,1)"/>
  <circle cx="7" cy="7" r="1" fill="srgba(0%,0%,38.9395%,1)"/>
  <circle cx="8" cy="7" r="1" fill="srgba(16.8139%,17.6852%,50.9468%,1)"/>
  <circle cx="9" cy="7" r="1" fill="srgba(62.7527%,53.4752%,67.4571%,1)"/>
  <circle cx="10" cy="7" r="1" fill="srgba(51.5282%,28.1544%,45.1362%,1)"/>
  <circle cx="11" cy="7" r="1" fill="srgba(2.33158%,0.610361%,38.999%,1)"/>
  <circle cx="12" cy="7" r="1" fill="srgba(0%,0%,39.7803%,1)"/>
  <circle cx="13" cy="7" r="1" fill="srgba(0.872816%,0.872816%,40.5173%,1)"/>
  <circle cx="14" cy="7" r="1" fill="srgba(8.03388%,8.03388%,44.8112%,1)"/>
  <circle cx="15" cy="7" r="1" fill="srgba(2.6688%,2.6688%,41.5824%,1)"/>
  <circle cx="0" cy="8" r="1" fill="srgba(3.28985%,0.994888%,38.6069%,1)"/>
  <circle cx="1" cy="8" r="1" fill="srgba(1.31838%,1.27871%,40.6424%,1)"/>
  <circle cx="2" cy="8" r="1" fill="srgba(0%,0%,39.8306%,1)"/>
  <circle cx="3" cy="8" r="1" fill="srgba(0%,0%,40.0168%,1)"/>
  <circle cx="4" cy="8" r="1" fill="srgba(1.84176%,1.14748%,40.3403%,1)"/>
  <circle cx="5" cy="8" r="1" fill="srgba(3.40887%,0.865187%,39.2477%,1)"/>
  <circle cx="6" cy="8" r="1" fill="srgba(1.07576%,0.769055%,40.3082%,1)"/>
  <circle cx="7" cy="8" r="1" fill="srgba(3.34783%,3.36767%,42.0294%,1)"/>
  <circle cx="8" cy="8" r="1" fill="srgba(12.7291%,12.7153%,47.5944%,1)"/>
  <circle cx="9" cy="8" r="1" fill="srgba(3.74304%,4.20691%,42.6841%,1)"/>
  <circle cx="10" cy="8" r="1" fill="srgba(3.09758%,3.07012%,41.825%,1)"/>
  <circle cx="11" cy="8" r="1" fill="srgba(0.141909%,0%,39.9115%,1)"/>
  <circle cx="12" cy="8" r="1" fill="srgba(0%,0%,39.7238%,1)"/>
  <circle cx="13" cy="8" r="1" fill="srgba(7.6524%,7.6524%,44.5914%,1)"/>
  <circle cx="14" cy="8" r="1" fill="srgba(58.8388%,58.8388%,75.3033%,1)"/>
  <circle cx="15" cy="8" r="1" fill="srgba(21.4893%,21.4893%,52.8923%,1)"/>
  <circle cx="0" cy="9" r="1" fill="srgba(0%,0%,40.032%,1)"/>
  <circle cx="1" cy="9" r="1" fill="srgba(0%,0%,39.9725%,1)"/>
  <circle cx="2" cy="9" r="1" fill="srgba(0%,0%,39.9771%,1)"/>
  <circle cx="3" cy="9" r="1" fill="srgba(0%,0%,39.8352%,1)"/>
  <circle cx="4" cy="9" r="1" fill="srgba(0%,0%,39.9756%,1)"/>
  <circle cx="5" cy="9" r="1" fill="srgba(0%,0%,40.0458%,1)"/>
  <circle cx="6" cy="9" r="1" fill="srgba(0%,0%,39.4476%,1)"/>
  <circle cx="7" cy="9" r="1" fill="srgba(16.7559%,16.7559%,50.0542%,1)"/>
  <circle cx="8" cy="9" r="1" fill="srgba(61.0025%,61.0025%,76.6049%,1)"/>
  <circle cx="9" cy="9" r="1" fill="srgba(9.55367%,9.55367%,45.6535%,1)"/>
  <circle cx="10" cy="9" r="1" fill="srgba(0%,0%,39.5773%,1)"/>
  <circle cx="11" cy="9" r="1" fill="srgba(0%,0%,40.0092%,1)"/>
  <circle cx="12" cy="9" r="1" fill="srgba(0%,0%,39.736%,1)"/>
  <circle cx="13" cy="9" r="1" fill="srgba(2.10422%,2.10422%,41.0986%,1)"/>
  <circle cx="14" cy="9" r="1" fill="srgba(17.9217%,17.9217%,50.7622%,1)"/>
  <circle cx="15" cy="9" r="1" fill="srgba(6.23636%,6.23636%,43.7415%,1)"/>
  <circle cx="0" cy="10" r="1" fill="srgba(0%,0%,40.0076%,1)"/>
  <circle cx="1" cy="10" r="1" fill="srgba(0%,0%,39.8749%,1)"/>
  <circle cx="2" cy="10" r="1" fill="srgba(0.646983%,0.646983%,39.7284%,1)"/>
  <circle cx="3" cy="10" r="1" fill="srgba(4.46174%,4.46174%,42.2141%,1)"/>
  <circle cx="4" cy="10" r="1" fill="srgba(0.102235%,0.102235%,39.4461%,1)"/>
  <circle cx="5" cy="10" r="1" fill="srgba(0.00762951%,0.00762951%,39.9619%,1)"/>
  <circle cx="6" cy="10" r="1" fill="srgba(0%,0%,39.9008%,1)"/>
  <circle cx="7" cy="10" r="1" fill="srgba(3.00603%,3.00603%,41.8036%,1)"/>
  <circle cx="8" cy="10" r="1" fill="srgba(11.9402%,11.9402%,47.1656%,1)"/>
  <circle cx="9" cy="10" r="1" fill="srgba(1.6083%,1.6083%,40.9644%,1)"/>
  <circle cx="10" cy="10" r="1" fill="srgba(0%,0%,39.9466%,1)"/>
  <circle cx="11" cy="10" r="1" fill="srgba(0%,0%,39.6338%,1)"/>
  <circle cx="12" cy="10" r="1" fill="srgba(12.4071%,12.4071%,47.4327%,1)"/>
  <circle cx="13" cy="10" r="1" fill="srgba(10.4692%,10.4692%,46.157%,1)"/>
  <circle cx="14" cy="10" r="1" fill="srgba(0%,0%,39.0814%,1)"/>
  <circle cx="15" cy="10" r="1" fill="srgba(0%,0%,39.8093%,1)"/>
  <circle cx="0" cy="11" r="1" fill="srgba(0%,0%,39.7726%,1)"/>
  <circle cx="1" cy="11" r="1" fill="srgba(5.3666%,5.3666%,43.18%,1)"/>
  <circle cx="2" cy="11" r="1" fill="srgba(25.7771%,25.7771%,55.4604%,1)"/>
  <circle cx="3" cy="11" r="1" fill="srgba(46.8315%,46.8315%,68.0995%,1)"/>
  <circle cx="4" cy="11" r="1" fill="srgba(20.9644%,20.9644%,52.5658%,1)"/>
  <circle cx="5" cy="11" r="1" fill="srgba(2.60929%,2.60929%,41.532%,1)"/>
  <circle cx="6" cy="11" r="1" fill="srgba(0%,0%,39.9115%,1)"/>
  <circle cx="7" cy="11" r="1" fill="srgba(0%,0%,39.9054%,1)"/>
  <circle cx="8" cy="11" r="1" fill="srgba(0%,0%,39.5972%,1)"/>
  <circle cx="9" cy="11" r="1" fill="srgba(0%,0%,39.9527%,1)"/>
  <circle cx="10" cy="11" r="1" fill="srgba(0%,0%,40.0031%,1)"/>
  <circle cx="11" cy="11" r="1" fill="srgba(0%,0%,39.5911%,1)"/>
  <circle cx="12" cy="11" r="1" fill="srgba(12.2652%,12.2652%,47.3533%,1)"/>
  <circle cx="13" cy="11" r="1" fill="srgba(17.7874%,17.7874%,50.6096%,1)"/>
  <circle cx="14" cy="11" r="1" fill="srgba(0%,0%,39.5178%,1)"/>
  <circle cx="15" cy="11" r="1" fill="srgba(0,0,102,1)"/>
  <circle cx="0" cy="12" r="1" fill="srgba(0%,0%,39.6826%,1)"/>
  <circle cx="1" cy="12" r="1" fill="srgba(9.42855%,9.42855%,45.6565%,1)"/>
  <circle cx="2" cy="12" r="1" fill="srgba(73.6736%,73.6736%,84.2039%,1)"/>
  <circle cx="3" cy="12" r="1" fill="srgba(98.5031%,98.5031%,99.1012%,1)"/>
  <circle cx="4" cy="12" r="1" fill="srgba(60.5341%,60.5341%,76.321%,1)"/>
  <circle cx="5" cy="12" r="1" fill="srgba(3.75067%,3.75067%,42.2507%,1)"/>
  <circle cx="6" cy="12" r="1" fill="srgba(0%,0%,39.855%,1)"/>
  <circle cx="7" cy="12" r="1" fill="srgba(0,0,102,1)"/>
  <circle cx="8" cy="12" r="1" fill="srgba(0,0,102,1)"/>
  <circle cx="9" cy="12" r="1" fill="srgba(0%,0%,40.0015%,1)"/>
  <circle cx="10" cy="12" r="1" fill="srgba(0%,0%,39.9863%,1)"/>
  <circle cx="11" cy="12" r="1" fill="srgba(0%,0%,39.6445%,1)"/>
  <circle cx="12" cy="12" r="1" fill="srgba(5.31624%,5.31624%,42.9236%,1)"/>
  <circle cx="13" cy="12" r="1" fill="srgba(19.6612%,19.6612%,51.6838%,1)"/>
  <circle cx="14" cy="12" r="1" fill="srgba(0%,0%,39.8474%,1)"/>
  <circle cx="15" cy="12" r="1" fill="srgba(0,0,102,1)"/>
  <circle cx="0" cy="13" r="1" fill="srgba(0%,0%,39.7375%,1)"/>
  <circle cx="1" cy="13" r="1" fill="srgba(12.7733%,12.7733%,47.6646%,1)"/>
  <circle cx="2" cy="13" r="1" fill="srgba(62.6719%,62.6719%,77.6043%,1)"/>
  <circle cx="3" cy="13" r="1" fill="srgba(91.4488%,91.4488%,94.8699%,1)"/>
  <circle cx="4" cy="13" r="1" fill="srgba(51.2398%,51.2398%,70.7454%,1)"/>
  <circle cx="5" cy="13" r="1" fill="srgba(7.62646%,7.62646%,44.5762%,1)"/>
  <circle cx="6" cy="13" r="1" fill="srgba(0%,0%,39.7513%,1)"/>
  <circle cx="7" cy="13" r="1" fill="srgba(0,0,102,1)"/>
  <circle cx="8" cy="13" r="1" fill="srgba(0,0,102,1)"/>
  <circle cx="9" cy="13" r="1" fill="srgba(0%,0%,39.9847%,1)"/>
  <circle cx="10" cy="13" r="1" fill="srgba(0.360113%,0.360113%,40.2014%,1)"/>
  <circle cx="11" cy="13" r="1" fill="srgba(5.39406%,5.39406%,43.2273%,1)"/>
  <circle cx="12" cy="13" r="1" fill="srgba(4.3534%,4.3534%,42.5681%,1)"/>
  <circle cx="13" cy="13" r="1" fill="srgba(12.3125%,12.3125%,47.3442%,1)"/>
  <circle cx="14" cy="13" r="1" fill="srgba(0.0885023%,0.0885023%,40.0549%,1)"/>
  <circle cx="15" cy="13" r="1" fill="srgba(0,0,102,1)"/>
  <circle cx="0" cy="14" r="1" fill="srgba(0%,0%,40.0107%,1)"/>
  <circle cx="1" cy="14" r="1" fill="srgba(0%,0%,39.5087%,1)"/>
  <circle cx="2" cy="14" r="1" fill="srgba(19.0021%,19.0021%,51.0307%,1)"/>
  <circle cx="3" cy="14" r="1" fill="srgba(24.7181%,24.7181%,54.8318%,1)"/>
  <circle cx="4" cy="14" r="1" fill="srgba(14.1512%,14.1512%,48.043%,1)"/>
  <circle cx="5" cy="14" r="1" fill="srgba(0%,0%,39.3988%,1)"/>
  <circle cx="6" cy="14" r="1" fill="srgba(0%,0%,40.0076%,1)"/>
  <circle cx="7" cy="14" r="1" fill="srgba(0,0,102,1)"/>
  <circle cx="8" cy="14" r="1" fill="srgba(0,0,102,1)"/>
  <circle cx="9" cy="14" r="1" fill="srgba(0%,0%,39.823%,1)"/>
  <circle cx="10" cy="14" r="1" fill="srgba(4.73945%,4.73945%,42.8428%,1)"/>
  <circle cx="11" cy="14" r="1" fill="srgba(55.0927%,55.0927%,73.0556%,1)"/>
  <circle cx="12" cy="14" r="1" fill="srgba(22.9343%,22.9343%,53.7438%,1)"/>
  <circle cx="13" cy="14" r="1" fill="srgba(0%,0%,39.4064%,1)"/>
  <circle cx="14" cy="14" r="1" fill="srgba(0%,0%,39.9969%,1)"/>
  <circle cx="15" cy="14" r="1" fill="srgba(0,0,102,1)"/>
  <circle cx="0" cy="15" r="1" fill="srgba(0,0,102,1)"/>
  <circle cx="1" cy="15" r="1" fill="srgba(0.0167849%,0.0167849%,40.0259%,1)"/>
  <circle cx="2" cy="15" r="1" fill="srgba(0.363165%,0.363165%,39.8962%,1)"/>
  <circle cx="3" cy="15" r="1" fill="srgba(0.12665%,0.12665%,39.3698%,1)"/>
  <circle cx="4" cy="15" r="1" fill="srgba(0.331121%,0.331121%,40.0015%,1)"/>
  <circle cx="5" cy="15" r="1" fill="srgba(0%,0%,40.0076%,1)"/>
  <circle cx="6" cy="15" r="1" fill="srgba(0,0,102,1)"/>
  <circle cx="7" cy="15" r="1" fill="srgba(0,0,102,1)"/>
  <circle cx="8" cy="15" r="1" fill="srgba(0,0,102,1)"/>
  <circle cx="9" cy="15" r="1" fill="srgba(0%,0%,39.9374%,1)"/>
  <circle cx="10" cy="15" r="1" fill="srgba(1.8265%,1.8265%,41.0956%,1)"/>
  <circle cx="11" cy="15" r="1" fill="srgba(24.1138%,24.1138%,54.4686%,1)"/>
  <circle cx="12" cy="15" r="1" fill="srgba(9.72763%,9.72763%,45.8335%,1)"/>
  <circle cx="13" cy="15" r="1" fill="srgba(0%,0%,39.7162%,1)"/>
  <circle cx="14" cy="15" r="1" fill="srgba(0,0,102,1)"/>
  <circle cx="15" cy="15" r="1" fill="srgba(0,0,102,1)"/>
</svg>
