<?xml version="1.0" standalone="no"?>
<!DOCTYPE svg PUBLIC "-//W3C//DTD SVG 20010904//EN"
  "http://www.w3.org/TR/2001/REC-SVG-20010904/DTD/svg10.dtd">
<svg width="16" height="16">
  <circle cx="0" cy="0" r="1" fill="srgba(51,153,204,1)"/>
  <circle cx="1" cy="0" r="1" fill="srgba(51,153,204,1)"/>
  <circle cx="2" cy="0" r="1" fill="srgba(19.939%,59.9634%,79.9786%,1)"/>
  <circle cx="3" cy="0" r="1" fill="srgba(21.2833%,60.9186%,80.6119%,1)"/>
  <circle cx="4" cy="0" r="1" fill="srgba(20.5249%,60.3891%,80.2655%,1)"/>
  <circle cx="5" cy="0" r="1" fill="srgba(19.9664%,59.9756%,79.9832%,1)"/>
  <circle cx="6" cy="0" r="1" fill="srgba(51,153,204,1)"/>
  <circle cx="7" cy="0" r="1" fill="srgba(51,153,204,1)"/>
  <circle cx="8" cy="0" r="1" fill="srgba(51,153,204,1)"/>
  <circle cx="9" cy="0" r="1" fill="srgba(51,153,204,1)"/>
  <circle cx="10" cy="0" r="1" fill="srgba(51,153,204,1)"/>
  <circle cx="11" cy="0" r="1" fill="srgba(51,153,204,1)"/>
  <circle cx="12" cy="0" r="1" fill="srgba(51,153,204,1)"/>
  <circle cx="13" cy="0" r="1" fill="srgba(51,153,204,1)"/>
  <circle cx="14" cy="0" r="1" fill="srgba(51,153,204,1)"/>
  <circle cx="15" cy="0" r="1" fill="srgba(51,153,204,1)"/>
  <circle cx="0" cy="1" r="1" fill="srgba(20.0015%,60%,80%,1)"/>
  <circle cx="1" cy="1" r="1" fill="srgba(19.9863%,59.9924%,79.9954%,1)"/>
  <circle cx="2" cy="1" r="1" fill="srgba(19.2844%,60.2152%,80.4257%,1)"/>
  <circle cx="3" cy="1" r="1" fill="srgba(37.0047%,56.9345%,72.0394%,1)"/>
  <circle cx="4" cy="1" r="1" fill="srgba(27.4357%,58.8479%,76.7178%,1)"/>
  <circle cx="5" cy="1" r="1" fill="srgba(19.411%,60.0839%,80.2518%,1)"/>
  <circle cx="6" cy="1" r="1" fill="srgba(20%,59.9985%,79.9969%,1)"/>
  <circle cx="7" cy="1" r="1" fill="srgba(51,153,204,1)"/>
  <circle cx="8" cy="1" r="1" fill="srgba(51,153,204,1)"/>
  <circle cx="9" cy="1" r="1" fill="srgba(51,153,204,1)"/>
  <circle cx="10" cy="1" r="1" fill="srgba(51,153,204,1)"/>
  <circle cx="11" cy="1" r="1" fill="srgba(51,153,204,1)"/>
  <circle cx="12" cy="1" r="1" fill="srgba(51,153,204,1)"/>
  <circle cx="13" cy="1" r="1" fill="srgba(51,153,204,1)"/>
  <circle cx="14" cy="1" r="1" fill="srgba(51,153,204,1)"/>
  <circle cx="15" cy="1" r="1" fill="srgba(51,153,204,1)"/>
  <circle cx="0" cy="2" r="1" fill="srgba(19.9863%,60.0137%,80.0183%,1)"/>
  <circle cx="1" cy="2" r="1" fill="srgba(20.7156%,60.0626%,79.8672%,1)"/>
  <circle cx="2" cy="2" r="1" fill="srgba(24.5502%,59.292%,77.9889%,1)"/>
  <circle cx="3" cy="2" r="1" fill="srgba(59.3835%,34.7524%,42.4323%,1)"/>
  <circle cx="4" cy="2" r="1" fill="srgba(43.1434%,47.1946%,60.0626%,1)"/>
  <circle cx="5" cy="2" r="1" fill="srgba(21.8158%,60.1129%,79.6139%,1)"/>
  <circle cx="6" cy="2" r="1" fill="srgba(20.2564%,60.0946%,80.029%,1)"/>
  <circle cx="7" cy="2" r="1" fill="srgba(19.9847%,59.9969%,80.0015%,1)"/>
  <circle cx="8" cy="2" r="1" fill="srgba(51,153,204,1)"/>
  <circle cx="9" cy="2" r="1" fill="srgba(51,153,204,1)"/>
  <circle cx="10" cy="2" r="1" fill="srgba(51,153,204,1)"/>
  <circle cx="11" cy="2" r="1" fill="srgba(51,153,204,1)"/>
  <circle cx="12" cy="2" r="1" fill="srgba(51,153,204,1)"/>
  <circle cx="13" cy="2" r="1" fill="srgba(51,153,204,1)"/>
  <circle cx="14" cy="2" r="1" fill="srgba(51,153,204,1)"/>
  <circle cx="15" cy="2" r="1" fill="srgba(51,153,204,1)"/>
  <circle cx="0" cy="3" r="1" fill="srgba(20.0015%,60.4105%,80.4318%,1)"/>
  <circle cx="1" cy="3" r="1" fill="srgba(33.46%,59.7147%,75.9594%,1)"/>
  <circle cx="2" cy="3" r="1" fill="srgba(58.5016%,38.5794%,46.6941%,1)"/>
  <circle cx="3" cy="3" r="1" fill="srgba(77.5174%,9.62844%,10.8705%,1)"/>
  <circle cx="4" cy="3" r="1" fill="srgba(71.5587%,19.7833%,23.2456%,1)"/>
  <circle cx="5" cy="3" r="1" fill="srgba(49.0745%,49.2714%,60.5982%,1)"/>
  <circle cx="6" cy="3" r="1" fill="srgba(25.4002%,61.5015%,80.0839%,1)"/>
  <circle cx="7" cy="3" r="1" fill="srgba(19.7192%,59.9603%,80.0351%,1)"/>
  <circle cx="8" cy="3" r="1" fill="srgba(51,153,204,1)"/>
  <circle cx="9" cy="3" r="1" fill="srgba(51,153,204,1)"/>
  <circle cx="10" cy="3" r="1" fill="srgba(51,153,204,1)"/>
  <circle cx="11" cy="3" r="1" fill="srgba(51,153,204,1)"/>
  <circle cx="12" cy="3" r="1" fill="srgba(51,153,204,1)"/>
  <circle cx="13" cy="3" r="1" fill="srgba(51,153,204,1)"/>
  <circle cx="14" cy="3" r="1" fill="srgba(51,153,204,1)"/>
  <circle cx="15" cy="3" r="1" fill="srgba(51,153,204,1)"/>
  <circle cx="0" cy="4" r="1" fill="srgba(19.9786%,60.0397%,80.0473%,1)"/>
  <circle cx="1" cy="4" r="1" fill="srgba(21.4847%,59.9954%,79.5819%,1)"/>
  <circle cx="2" cy="4" r="1" fill="srgba(27.1138%,57.9309%,75.8251%,1)"/>
  <circle cx="3" cy="4" r="1" fill="srgba(61.265%,32.5154%,39.5407%,1)"/>
  <circle cx="4" cy="4" r="1" fill="srgba(45.0248%,45.594%,57.8515%,1)"/>
  <circle cx="5" cy="4" r="1" fill="srgba(23.0579%,59.7162%,78.8495%,1)"/>
  <circle cx="6" cy="4" r="1" fill="srgba(20.4547%,60.1526%,80.0351%,1)"/>
  <circle cx="7" cy="4" r="1" fill="srgba(19.9741%,59.9954%,80.0031%,1)"/>
  <circle cx="8" cy="4" r="1" fill="srgba(51,153,204,1)"/>
  <circle cx="9" cy="4" r="1" fill="srgba(51,153,204,1)"/>
  <circle cx="10" cy="4" r="1" fill="srgba(51,153,204,1)"/>
  <circle cx="11" cy="4" r="1" fill="srgba(51,153,204,1)"/>
  <circle cx="12" cy="4" r="1" fill="srgba(51,153,204,1)"/>
  <circle cx="13" cy="4" r="1" fill="srgba(51,153,204,1)"/>
  <circle cx="14" cy="4" r="1" fill="srgba(51,153,204,1)"/>
  <circle cx="15" cy="4" r="1" fill="srgba(51,153,204,1)"/>
  <circle cx="0" cy="5" r="1" fill="srgba(19.9863%,60.0107%,80.0153%,1)"/>
  <circle cx="1" cy="5" r="1" fill="srgba(20.1694%,59.8459%,79.7864%,1)"/>
  <circle cx="2" cy="5" r="1" fill="srgba(20.3494%,59.5239%,79.3713%,1)"/>
  <circle cx="3" cy="5" r="1" fill="srgba(38.9166%,55.7015%,70.1991%,1)"/>
  <circle cx="4" cy="5" r="1" fill="srgba(28.0858%,58.4878%,76.1593%,1)"/>
  <circle cx="5" cy="5" r="1" fill="srgba(19.2981%,60.1266%,80.3296%,1)"/>
  <circle cx="6" cy="5" r="1" fill="srgba(19.9939%,59.9954%,79.9969%,1)"/>
  <circle cx="7" cy="5" r="1" fill="srgba(51,153,204,1)"/>
  <circle cx="8" cy="5" r="1" fill="srgba(51,153,204,1)"/>
  <circle cx="9" cy="5" r="1" fill="srgba(51,153,204,1)"/>
  <circle cx="10" cy="5" r="1" fill="srgba(51,153,204,1)"/>
  <circle cx="11" cy="5" r="1" fill="srgba(51,153,204,1)"/>
  <circle cx="12" cy="5" r="1" fill="srgba(51,153,204,1)"/>
  <circle cx="13" cy="5" r="1" fill="srgba(51,153,204,1)"/>
  <circle cx="14" cy="5" r="1" fill="srgba(51,153,204,1)"/>
  <circle cx="15" cy="5" r="1" fill="srgba(51,153,204,1)"/>
  <circle cx="0" cy="6" r="1" fill="srgba(19.9756%,60.0168%,80.0244%,1)"/>
  <circle cx="1" cy="6" r="1" fill="srgba(20.3143%,59.791%,79.6857%,1)"/>
  <circle cx="2" cy="6" r="1" fill="srgba(21.6922%,58.7945%,78.2177%,1)"/>
  <circle cx="3" cy="6" r="1" fill="srgba(22.0829%,60.5875%,80.029%,1)"/>
  <circle cx="4" cy="6" r="1" fill="srgba(20.6165%,60.4166%,80.2686%,1)"/>
  <circle cx="5" cy="6" r="1" fill="srgba(19.9588%,59.9756%,79.9847%,1)"/>
  <circle cx="6" cy="6" r="1" fill="srgba(51,153,204,1)"/>
  <circle cx="7" cy="6" r="1" fill="srgba(51,153,204,1)"/>
  <circle cx="8" cy="6" r="1" fill="srgba(51,153,204,1)"/>
  <circle cx="9" cy="6" r="1" fill="srgba(51,153,204,1)"/>
  <circle cx="10" cy="6" r="1" fill="srgba(51,153,204,1)"/>
  <circle cx="11" cy="6" r="1" fill="srgba(51,153,204,1)"/>
  <circle cx="12" cy="6" r="1" fill="srgba(51,153,204,1)"/>
  <circle cx="13" cy="6" r="1" fill="srgba(51,153,204,1)"/>
  <circle cx="14" cy="6" r="1" fill="srgba(51,153,204,1)"/>
  <circle cx="15" cy="6" r="1" fill="srgba(51,153,204,1)"/>
  <circle cx="0" cy="7" r="1" fill="srgba(19.968%,60.0214%,80.032%,1)"/>
  <circle cx="1" cy="7" r="1" fill="srgba(20.4074%,59.7269%,79.5926%,1)"/>
  <circle cx="2" cy="7" r="1" fill="srgba(22.3285%,58.4588%,77.6761%,1)"/>
  <circle cx="3" cy="7" r="1" fill="srgba(20.5661%,59.5056%,79.3072%,1)"/>
  <circle cx="4" cy="7" r="1" fill="srgba(19.9115%,60.0092%,80.0351%,1)"/>
  <circle cx="5" cy="7" r="1" fill="srgba(20.0031%,60.0015%,80%,1)"/>
  <circle cx="6" cy="7" r="1" fill="srgba(51,153,204,1)"/>
  <circle cx="7" cy="7" r="1" fill="srgba(51,153,204,1)"/>
  <circle cx="8" cy="7" r="1" fill="srgba(51,153,204,1)"/>
  <circle cx="9" cy="7" r="1" fill="srgba(51,153,204,1)"/>
  <circle cx="10" cy="7" r="1" fill="srgba(51,153,204,1)"/>
  <circle cx="11" cy="7" r="1" fill="srgba(51,153,204,1)"/>
  <circle cx="12" cy="7" r="1" fill="srgba(51,153,204,1)"/>
  <circle cx="13" cy="7" r="1" fill="srgba(51,153,204,1)"/>
  <circle cx="14" cy="7" r="1" fill="srgba(51,153,204,1)"/>
  <circle cx="15" cy="7" r="1" fill="srgba(51,153,204,1)"/>
  <circle cx="0" cy="8" r="1" fill="srgba(19.9619%,60.0259%,80.0381%,1)"/>
  <circle cx="1" cy="8" r="1" fill="srgba(20.4929%,59.6719%,79.5071%,1)"/>
  <circle cx="2" cy="8" r="1" fill="srgba(22.855%,58.1033%,77.145%,1)"/>
  <circle cx="3" cy="8" r="1" fill="srgba(20.8301%,59.4476%,79.1699%,1)"/>
  <circle cx="4" cy="8" r="1" fill="srgba(19.9496%,60.0336%,80.0504%,1)"/>
  <circle cx="5" cy="8" r="1" fill="srgba(51,153,204,1)"/>
  <circle cx="6" cy="8" r="1" fill="srgba(51,153,204,1)"/>
  <circle cx="7" cy="8" r="1" fill="srgba(51,153,204,1)"/>
  <circle cx="8" cy="8" r="1" fill="srgba(51,153,204,1)"/>
  <circle cx="9" cy="8" r="1" fill="srgba(51,153,204,1)"/>
  <circle cx="10" cy="8" r="1" fill="srgba(51,153,204,1)"/>
  <circle cx="11" cy="8" r="1" fill="srgba(51,153,204,1)"/>
  <circle cx="12" cy="8" r="1" fill="srgba(51,153,204,1)"/>
  <circle cx="13" cy="8" r="1" fill="srgba(51,153,204,1)"/>
  <circle cx="14" cy="8" r="1" fill="srgba(51,153,204,1)"/>
  <circle cx="15" cy="8" r="1" fill="srgba(51,153,204,1)"/>
  <circle cx="0" cy="9" r="1" fill="srgba(18.5626%,59.3332%,81.4374%,1)"/>
  <circle cx="1" cy="9" r="1" fill="srgba(19.1943%,58.9319%,80.8057%,1)"/>
  <circle cx="2" cy="9" r="1" fill="srgba(22.0417%,57.1298%,77.9583%,1)"/>
  <circle cx="3" cy="9" r="1" fill="srgba(19.6048%,58.6725%,80.3952%,1)"/>
  <circle cx="4" cy="9" r="1" fill="srgba(18.5489%,59.3423%,81.4511%,1)"/>
  <circle cx="5" cy="9" r="1" fill="srgba(18.6084%,59.3042%,81.3916%,1)"/>
  <circle cx="6" cy="9" r="1" fill="srgba(18.6084%,59.3042%,81.3916%,1)"/>
  <circle cx="7" cy="9" r="1" fill="srgba(18.6084%,59.3042%,81.3916%,1)"/>
  <circle cx="8" cy="9" r="1" fill="srgba(18.6084%,59.3042%,81.3916%,1)"/>
  <circle cx="9" cy="9" r="1" fill="srgba(18.6084%,59.3042%,81.3916%,1)"/>
  <circle cx="10" cy="9" r="1" fill="srgba(18.6084%,59.3042%,81.3916%,1)"/>
  <circle cx="11" cy="9" r="1" fill="srgba(18.6084%,59.3042%,81.3916%,1)"/>
  <circle cx="12" cy="9" r="1" fill="srgba(18.6084%,59.3042%,81.3916%,1)"/>
  <circle cx="13" cy="9" r="1" fill="srgba(18.6084%,59.3042%,81.3916%,1)"/>
  <circle cx="14" cy="9" r="1" fill="srgba(18.6084%,59.3042%,81.3916%,1)"/>
  <circle cx="15" cy="9" r="1" fill="srgba(18.6084%,59.3042%,81.3916%,1)"/>
  <circle cx="0" cy="10" r="1" fill="srgba(49.6437%,74.8852%,50.3563%,1)"/>
  <circle cx="1" cy="10" r="1" fill="srgba(49.9779%,74.2458%,50.0221%,1)"/>
  <circle cx="2" cy="10" r="1" fill="srgba(51.487%,71.3375%,48.513%,1)"/>
  <circle cx="3" cy="10" r="1" fill="srgba(50.1961%,73.8262%,49.8039%,1)"/>
  <circle cx="4" cy="10" r="1" fill="srgba(49.6361%,74.9004%,50.3639%,1)"/>
  <circle cx="5" cy="10" r="1" fill="srgba(49.6681%,74.8394%,50.3319%,1)"/>
  <circle cx="6" cy="10" r="1" fill="srgba(49.6681%,74.8394%,50.3319%,1)"/>
  <circle cx="7" cy="10" r="1" fill="srgba(49.6681%,74.8394%,50.3319%,1)"/>
  <circle cx="8" cy="10" r="1" fill="srgba(49.6681%,74.8394%,50.3319%,1)"/>
  <circle cx="9" cy="10" r="1" fill="srgba(49.6681%,74.8394%,50.3319%,1)"/>
  <circle cx="10" cy="10" r="1" fill="srgba(49.6681%,74.8394%,50.3319%,1)"/>
  <circle cx="11" cy="10" r="1" fill="srgba(49.6681%,74.8394%,50.3319%,1)"/>
  <circle cx="12" cy="10" r="1" fill="srgba(49.6681%,74.8394%,50.3319%,1)"/>
  <circle cx="13" cy="10" r="1" fill="srgba(49.6681%,74.8394%,50.3319%,1)"/>
  <circle cx="14" cy="10" r="1" fill="srgba(49.6681%,74.8394%,50.3319%,1)"/>
  <circle cx="15" cy="10" r="1" fill="srgba(49.6681%,74.8394%,50.3319%,1)"/>
  <circle cx="0" cy="11" r="1" fill="srgba(62.8199%,81.474%,37.1801%,1)"/>
  <circle cx="1" cy="11" r="1" fill="srgba(63.0518%,80.7065%,36.9482%,1)"/>
  <circle cx="2" cy="11" r="1" fill="srgba(64.1184%,77.1817%,35.8816%,1)"/>
  <circle cx="3" cy="11" r="1" fill="srgba(63.2059%,80.1953%,36.7941%,1)"/>
  <circle cx="4" cy="11" r="1" fill="srgba(62.8138%,81.4923%,37.1862%,1)"/>
  <circle cx="5" cy="11" r="1" fill="srgba(62.8367%,81.4191%,37.1633%,1)"/>
  <circle cx="6" cy="11" r="1" fill="srgba(62.8367%,81.4191%,37.1633%,1)"/>
  <circle cx="7" cy="11" r="1" fill="srgba(62.8367%,81.4191%,37.1633%,1)"/>
  <circle cx="8" cy="11" r="1" fill="srgba(62.8367%,81.4191%,37.1633%,1)"/>
  <circle cx="9" cy="11" r="1" fill="srgba(62.8367%,81.4191%,37.1633%,1)"/>
  <circle cx="10" cy="11" r="1" fill="srgba(62.8367%,81.4191%,37.1633%,1)"/>
  <circle cx="11" cy="11" r="1" fill="srgba(62.8367%,81.4191%,37.1633%,1)"/>
  <circle cx="12" cy="11" r="1" fill="srgba(62.8367%,81.4191%,37.1633%,1)"/>
  <circle cx="13" cy="11" r="1" fill="srgba(62.8367%,81.4191%,37.1633%,1)"/>
  <circle cx="14" cy="11" r="1" fill="srgba(62.8367%,81.4191%,37.1633%,1)"/>
  <circle cx="15" cy="11" r="1" fill="srgba(62.8367%,81.4191%,37.1633%,1)"/>
  <circle cx="0" cy="12" r="1" fill="srgba(62.8092%,81.4725%,37.1908%,1)"/>
  <circle cx="1" cy="12" r="1" fill="srgba(63.0289%,80.6287%,36.9711%,1)"/>
  <circle cx="2" cy="12" r="1" fill="srgba(64.0391%,76.7269%,35.9609%,1)"/>
  <circle cx="3" cy="12" r="1" fill="srgba(63.1739%,80.0626%,36.8261%,1)"/>
  <circle cx="4" cy="12" r="1" fill="srgba(62.8031%,81.4923%,37.1969%,1)"/>
  <circle cx="5" cy="12" r="1" fill="srgba(62.8244%,81.4115%,37.1756%,1)"/>
  <circle cx="6" cy="12" r="1" fill="srgba(62.8244%,81.4115%,37.1756%,1)"/>
  <circle cx="7" cy="12" r="1" fill="srgba(62.8244%,81.4115%,37.1756%,1)"/>
  <circle cx="8" cy="12" r="1" fill="srgba(62.8244%,81.4115%,37.1756%,1)"/>
  <circle cx="9" cy="12" r="1" fill="srgba(62.8244%,81.4115%,37.1756%,1)"/>
  <circle cx="10" cy="12" r="1" fill="srgba(62.8244%,81.4115%,37.1756%,1)"/>
  <circle cx="11" cy="12" r="1" fill="srgba(62.8244%,81.4115%,37.1756%,1)"/>
  <circle cx="12" cy="12" r="1" fill="srgba(62.8244%,81.4115%,37.1756%,1)"/>
  <circle cx="13" cy="12" r="1" fill="srgba(62.8244%,81.4115%,37.1756%,1)"/>
  <circle cx="14" cy="12" r="1" fill="srgba(62.8244%,81.4115%,37.1756%,1)"/>
  <circle cx="15" cy="12" r="1" fill="srgba(62.8244%,81.4115%,37.1756%,1)"/>
  <circle cx="0" cy="13" r="1" fill="srgba(49.6651%,74.905%,50.3349%,1)"/>
  <circle cx="1" cy="13" r="1" fill="srgba(50.1137%,74.1176%,49.8863%,1)"/>
  <circle cx="2" cy="13" r="1" fill="srgba(52.2148%,70.4463%,47.7852%,1)"/>
  <circle cx="3" cy="13" r="1" fill="srgba(50.4204%,73.5836%,49.5796%,1)"/>
  <circle cx="4" cy="13" r="1" fill="srgba(49.6544%,74.9248%,50.3456%,1)"/>
  <circle cx="5" cy="13" r="1" fill="srgba(49.6971%,74.8486%,50.3029%,1)"/>
  <circle cx="6" cy="13" r="1" fill="srgba(49.6971%,74.8486%,50.3029%,1)"/>
  <circle cx="7" cy="13" r="1" fill="srgba(49.6971%,74.8486%,50.3029%,1)"/>
  <circle cx="8" cy="13" r="1" fill="srgba(49.6971%,74.8486%,50.3029%,1)"/>
  <circle cx="9" cy="13" r="1" fill="srgba(49.6971%,74.8486%,50.3029%,1)"/>
  <circle cx="10" cy="13" r="1" fill="srgba(49.6971%,74.8486%,50.3029%,1)"/>
  <circle cx="11" cy="13" r="1" fill="srgba(49.6971%,74.8486%,50.3029%,1)"/>
  <circle cx="12" cy="13" r="1" fill="srgba(49.6971%,74.8486%,50.3029%,1)"/>
  <circle cx="13" cy="13" r="1" fill="srgba(49.6971%,74.8486%,50.3029%,1)"/>
  <circle cx="14" cy="13" r="1" fill="srgba(49.6971%,74.8486%,50.3029%,1)"/>
  <circle cx="15" cy="13" r="1" fill="srgba(49.6971%,74.8486%,50.3029%,1)"/>
  <circle cx="0" cy="14" r="1" fill="srgba(18.5519%,59.3515%,81.4481%,1)"/>
  <circle cx="1" cy="14" r="1" fill="srgba(19.4842%,58.7533%,80.5158%,1)"/>
  <circle cx="2" cy="14" r="1" fill="srgba(23.8605%,55.9472%,76.1395%,1)"/>
  <circle cx="3" cy="14" r="1" fill="srgba(20.1221%,58.3459%,79.8779%,1)"/>
  <circle cx="4" cy="14" r="1" fill="srgba(18.529%,59.3668%,81.471%,1)"/>
  <circle cx="5" cy="14" r="1" fill="srgba(18.6191%,59.3088%,81.3809%,1)"/>
  <circle cx="6" cy="14" r="1" fill="srgba(18.6191%,59.3088%,81.3809%,1)"/>
  <circle cx="7" cy="14" r="1" fill="srgba(18.6191%,59.3088%,81.3809%,1)"/>
  <circle cx="8" cy="14" r="1" fill="srgba(18.6191%,59.3088%,81.3809%,1)"/>
  <circle cx="9" cy="14" r="1" fill="srgba(18.6191%,59.3088%,81.3809%,1)"/>
  <circle cx="10" cy="14" r="1" fill="srgba(18.6191%,59.3088%,81.3809%,1)"/>
  <circle cx="11" cy="14" r="1" fill="srgba(18.6191%,59.3088%,81.3809%,1)"/>
  <circle cx="12" cy="14" r="1" fill="srgba(18.6191%,59.3088%,81.3809%,1)"/>
  <circle cx="13" cy="14" r="1" fill="srgba(18.6191%,59.3088%,81.3809%,1)"/>
  <circle cx="14" cy="14" r="1" fill="srgba(18.6191%,59.3088%,81.3809%,1)"/>
  <circle cx="15" cy="14" r="1" fill="srgba(18.6191%,59.3088%,81.3809%,1)"/>
  <circle cx="0" cy="15" r="1" fill="srgba(19.9313%,60.0458%,80.0687%,1)"/>
  <circle cx="1" cy="15" r="1" fill="srgba(20.8774%,59.4156%,79.1226%,1)"/>
  <circle cx="2" cy="15" r="1" fill="srgba(25.3437%,56.4416%,74.6563%,1)"/>
  <circle cx="3" cy="15" r="1" fill="srgba(21.5274%,58.9822%,78.471%,1)"/>
  <circle cx="4" cy="15" r="1" fill="srgba(19.9084%,60.061%,80.0916%,1)"/>
  <circle cx="5" cy="15" r="1" fill="srgba(51,153,204,1)"/>
  <circle cx="6" cy="15" r="1" fill="srgba(51,153,204,1)"/>
  <circle cx="7" cy="15" r="1" fill="srgba(51,153,204,1)"/>
  <circle cx="8" cy="15" r="1" fill="srgba(51,153,204,1)"/>
  <circle cx="9" cy="15" r="1" fill="srgba(51,153,204,1)"/>
  <circle cx="10" cy="15" r="1" fill="srgba(51,153,204,1)"/>
  <circle cx="11" cy="15" r="1" fill="srgba(51,153,204,1)"/>
  <circle cx="12" cy="15" r="1" fill="srgba(51,153,204,1)"/>
  <circle cx="13" cy="15" r="1" fill="srgba(51,153,204,1)"/>
  <circle cx="14" cy="15" r="1" fill="srgba(51,153,204,1)"/>
  <circle cx="15" cy="15" r="1" fill="srgba(51,153,204,1)"/>
</svg>
