<?xml version="1.0" standalone="no"?>
<!DOCTYPE svg PUBLIC "-//W3C//DTD SVG 20010904//EN"
  "http://www.w3.org/TR/2001/REC-SVG-20010904/DTD/svg10.dtd">
<svg width="16" height="16">
  <circle cx="0" cy="0" r="1" fill="srgba(0.015259%,32.5566%,64.7135%,1)"/>
  <circle cx="1" cy="0" r="1" fill="srgba(0,83,165,1)"/>
  <circle cx="2" cy="0" r="1" fill="srgba(0%,32.5444%,64.712%,1)"/>
  <circle cx="3" cy="0" r="1" fill="srgba(0%,32.2606%,65.0935%,1)"/>
  <circle cx="4" cy="0" r="1" fill="srgba(58.6404%,61.7762%,26.6392%,1)"/>
  <circle cx="5" cy="0" r="1" fill="srgba(97.5372%,63.975%,3.71862%,1)"/>
  <circle cx="6" cy="0" r="1" fill="srgba(82.7878%,8.11627%,19.8886%,1)"/>
  <circle cx="7" cy="0" r="1" fill="srgba(88.5222%,30.7073%,13.4859%,1)"/>
  <circle cx="8" cy="0" r="1" fill="srgba(92.9824%,76.6934%,4.63416%,1)"/>
  <circle cx="9" cy="0" r="1" fill="srgba(18.7182%,41.6266%,52.5841%,1)"/>
  <circle cx="10" cy="0" r="1" fill="srgba(0%,31.9799%,65.4704%,1)"/>
  <circle cx="11" cy="0" r="1" fill="srgba(0,83,165,1)"/>
  <circle cx="12" cy="0" r="1" fill="srgba(0,83,165,1)"/>
  <circle cx="13" cy="0" r="1" fill="srgba(0,83,165,1)"/>
  <circle cx="14" cy="0" r="1" fill="srgba(0,83,165,1)"/>
  <circle cx="15" cy="0" r="1" fill="srgba(0,83,165,1)"/>
  <circle cx="0" cy="1" r="1" fill="srgba(0.015259%,32.5566%,64.7135%,1)"/>
  <circle cx="1" cy="1" r="1" fill="srgba(0,83,165,1)"/>
  <circle cx="2" cy="1" r="1" fill="srgba(0%,32.5444%,64.712%,1)"/>
  <circle cx="3" cy="1" r="1" fill="srgba(0%,32.2606%,65.0935%,1)"/>
  <circle cx="4" cy="1" r="1" fill="srgba(58.6404%,61.7762%,26.6392%,1)"/>
  <circle cx="5" cy="1" r="1" fill="srgba(97.5372%,63.975%,3.71862%,1)"/>
  <circle cx="6" cy="1" r="1" fill="srgba(82.7878%,8.11627%,19.8886%,1)"/>
  <circle cx="7" cy="1" r="1" fill="srgba(88.5222%,30.7073%,13.4859%,1)"/>
  <circle cx="8" cy="1" r="1" fill="srgba(92.9824%,76.6934%,4.63416%,1)"/>
  <circle cx="9" cy="1" r="1" fill="srgba(18.7182%,41.6266%,52.5841%,1)"/>
  <circle cx="10" cy="1" r="1" fill="srgba(0%,31.9799%,65.4704%,1)"/>
  <circle cx="11" cy="1" r="1" fill="srgba(0,83,165,1)"/>
  <circle cx="12" cy="1" r="1" fill="srgba(0,83,165,1)"/>
  <circle cx="13" cy="1" r="1" fill="srgba(0,83,165,1)"/>
  <circle cx="14" cy="1" r="1" fill="srgba(0,83,165,1)"/>
  <circle cx="15" cy="1" r="1" fill="srgba(0,83,165,1)"/>
  <circle cx="0" cy="2" r="1" fill="srgba(0.015259%,32.5566%,64.7135%,1)"/>
  <circle cx="1" cy="2" r="1" fill="srgba(0,83,165,1)"/>
  <circle cx="2" cy="2" r="1" fill="srgba(0%,32.5444%,64.712%,1)"/>
  <circle cx="3" cy="2" r="1" fill="srgba(0%,32.2606%,65.0935%,1)"/>
  <circle cx="4" cy="2" r="1" fill="srgba(58.6404%,61.7762%,26.6392%,1)"/>
  <circle cx="5" cy="2" r="1" fill="srgba(97.5372%,63.975%,3.71862%,1)"/>
  <circle cx="6" cy="2" r="1" fill="srgba(82.7878%,8.11627%,19.8886%,1)"/>
  <circle cx="7" cy="2" r="1" fill="srgba(88.5222%,30.7073%,13.4859%,1)"/>
  <circle cx="8" cy="2" r="1" fill="srgba(92.9824%,76.6934%,4.63416%,1)"/>
  <circle cx="9" cy="2" r="1" fill="srgba(18.7182%,41.6266%,52.5841%,1)"/>
  <circle cx="10" cy="2" r="1" fill="srgba(0%,31.9799%,65.4704%,1)"/>
  <circle cx="11" cy="2" r="1" fill="srgba(0,83,165,1)"/>
  <circle cx="12" cy="2" r="1" fill="srgba(0,83,165,1)"/>
  <circle cx="13" cy="2" r="1" fill="srgba(0,83,165,1)"/>
  <circle cx="14" cy="2" r="1" fill="srgba(0,83,165,1)"/>
  <circle cx="15" cy="2" r="1" fill="srgba(0,83,165,1)"/>
  <circle cx="0" cy="3" r="1" fill="srgba(0.015259%,32.5566%,64.7135%,1)"/>
  <circle cx="1" cy="3" r="1" fill="srgba(0,83,165,1)"/>
  <circle cx="2" cy="3" r="1" fill="srgba(0%,32.5444%,64.712%,1)"/>
  <circle cx="3" cy="3" r="1" fill="srgba(0%,32.2606%,65.0935%,1)"/>
  <circle cx="4" cy="3" r="1" fill="srgba(58.6404%,61.7762%,26.6392%,1)"/>
  <circle cx="5" cy="3" r="1" fill="srgba(97.5372%,63.975%,3.71862%,1)"/>
  <circle cx="6" cy="3" r="1" fill="srgba(82.7878%,8.11627%,19.8886%,1)"/>
  <circle cx="7" cy="3" r="1" fill="srgba(88.5222%,30.7073%,13.4859%,1)"/>
  <circle cx="8" cy="3" r="1" fill="srgba(92.9824%,76.6934%,4.63416%,1)"/>
  <circle cx="9" cy="3" r="1" fill="srgba(18.7182%,41.6266%,52.5841%,1)"/>
  <circle cx="10" cy="3" r="1" fill="srgba(0%,31.9799%,65.4704%,1)"/>
  <circle cx="11" cy="3" r="1" fill="srgba(0,83,165,1)"/>
  <circle cx="12" cy="3" r="1" fill="srgba(0,83,165,1)"/>
  <circle cx="13" cy="3" r="1" fill="srgba(0,83,165,1)"/>
  <circle cx="14" cy="3" r="1" fill="srgba(0,83,165,1)"/>
  <circle cx="15" cy="3" r="1" fill="srgba(0,83,165,1)"/>
  <circle cx="0" cy="4" r="1" fill="srgba(0%,31.7144%,65.8442%,1)"/>
  <circle cx="1" cy="4" r="1" fill="srgba(0%,31.7067%,65.8366%,1)"/>
  <circle cx="2" cy="4" r="1" fill="srgba(0%,31.7021%,65.8427%,1)"/>
  <circle cx="3" cy="4" r="1" fill="srgba(0%,31.4137%,66.2303%,1)"/>
  <circle cx="4" cy="4" r="1" fill="srgba(58.5946%,61.4267%,27.1107%,1)"/>
  <circle cx="5" cy="4" r="1" fill="srgba(97.5357%,63.9902%,3.69879%,1)"/>
  <circle cx="6" cy="4" r="1" fill="srgba(82.7878%,8.11627%,19.8886%,1)"/>
  <circle cx="7" cy="4" r="1" fill="srgba(88.5237%,30.7103%,13.4813%,1)"/>
  <circle cx="8" cy="4" r="1" fill="srgba(92.9732%,76.6369%,4.71199%,1)"/>
  <circle cx="9" cy="4" r="1" fill="srgba(18.7015%,40.9415%,53.5027%,1)"/>
  <circle cx="10" cy="4" r="1" fill="srgba(0%,31.1269%,66.6133%,1)"/>
  <circle cx="11" cy="4" r="1" fill="srgba(0%,31.7067%,65.8366%,1)"/>
  <circle cx="12" cy="4" r="1" fill="srgba(0%,31.7067%,65.8366%,1)"/>
  <circle cx="13" cy="4" r="1" fill="srgba(0%,31.7067%,65.8366%,1)"/>
  <circle cx="14" cy="4" r="1" fill="srgba(0%,31.7067%,65.8366%,1)"/>
  <circle cx="15" cy="4" r="1" fill="srgba(0%,31.7067%,65.8366%,1)"/>
  <circle cx="0" cy="5" r="1" fill="srgba(37.3388%,50.9483%,40.5035%,1)"/>
  <circle cx="1" cy="5" r="1" fill="srgba(37.3373%,50.9468%,40.4929%,1)"/>
  <circle cx="2" cy="5" r="1" fill="srgba(37.3312%,50.9438%,40.4959%,1)"/>
  <circle cx="3" cy="5" r="1" fill="srgba(36.9635%,50.7668%,40.7355%,1)"/>
  <circle cx="4" cy="5" r="1" fill="srgba(74.1772%,69.6941%,16.5621%,1)"/>
  <circle cx="5" cy="5" r="1" fill="srgba(96.8963%,64.0024%,4.13367%,1)"/>
  <circle cx="6" cy="5" r="1" fill="srgba(82.7878%,8.12696%,19.8886%,1)"/>
  <circle cx="7" cy="5" r="1" fill="srgba(88.3635%,30.7729%,13.5882%,1)"/>
  <circle cx="8" cy="5" r="1" fill="srgba(95.5337%,78.3536%,2.98161%,1)"/>
  <circle cx="9" cy="5" r="1" fill="srgba(49.073%,56.6644%,32.9%,1)"/>
  <circle cx="10" cy="5" r="1" fill="srgba(36.5972%,50.5898%,40.9705%,1)"/>
  <circle cx="11" cy="5" r="1" fill="srgba(37.3373%,50.9468%,40.4929%,1)"/>
  <circle cx="12" cy="5" r="1" fill="srgba(37.3373%,50.9468%,40.4929%,1)"/>
  <circle cx="13" cy="5" r="1" fill="srgba(37.3373%,50.9468%,40.4929%,1)"/>
  <circle cx="14" cy="5" r="1" fill="srgba(37.3373%,50.9468%,40.4929%,1)"/>
  <circle cx="15" cy="5" r="1" fill="srgba(37.3373%,50.9468%,40.4929%,1)"/>
  <circle cx="0" cy="6" r="1" fill="srgba(98.2666%,73.9208%,1.944%,1)"/>
  <circle cx="1" cy="6" r="1" fill="srgba(98.2879%,73.9269%,1.93027%,1)"/>
  <circle cx="2" cy="6" r="1" fill="srgba(98.2864%,73.9269%,1.93027%,1)"/>
  <circle cx="3" cy="6" r="1" fill="srgba(98.2864%,73.9269%,1.93027%,1)"/>
  <circle cx="4" cy="6" r="1" fill="srgba(98.5733%,74.9203%,1.62814%,1)"/>
  <circle cx="5" cy="6" r="1" fill="srgba(94.5922%,57.9522%,6.2501%,1)"/>
  <circle cx="6" cy="6" r="1" fill="srgba(82.7481%,7.9469%,19.9344%,1)"/>
  <circle cx="7" cy="6" r="1" fill="srgba(87.5669%,28.2856%,14.3709%,1)"/>
  <circle cx="8" cy="6" r="1" fill="srgba(98.2086%,73.2479%,2.0676%,1)"/>
  <circle cx="9" cy="6" r="1" fill="srgba(98.3169%,73.9864%,1.90433%,1)"/>
  <circle cx="10" cy="6" r="1" fill="srgba(98.2849%,73.9269%,1.93179%,1)"/>
  <circle cx="11" cy="6" r="1" fill="srgba(98.2864%,73.9269%,1.93027%,1)"/>
  <circle cx="12" cy="6" r="1" fill="srgba(98.2864%,73.9269%,1.93027%,1)"/>
  <circle cx="13" cy="6" r="1" fill="srgba(98.2864%,73.9269%,1.93027%,1)"/>
  <circle cx="14" cy="6" r="1" fill="srgba(98.2864%,73.9269%,1.93027%,1)"/>
  <circle cx="15" cy="6" r="1" fill="srgba(98.2864%,73.9269%,1.93027%,1)"/>
  <circle cx="0" cy="7" r="1" fill="srgba(84.9256%,17.023%,17.435%,1)"/>
  <circle cx="1" cy="7" r="1" fill="srgba(84.9226%,17.0108%,17.4395%,1)"/>
  <circle cx="2" cy="7" r="1" fill="srgba(84.9226%,17.0108%,17.4395%,1)"/>
  <circle cx="3" cy="7" r="1" fill="srgba(84.9226%,17.0108%,17.4395%,1)"/>
  <circle cx="4" cy="7" r="1" fill="srgba(84.9409%,17.1557%,17.409%,1)"/>
  <circle cx="5" cy="7" r="1" fill="srgba(84.2908%,14.4594%,18.1537%,1)"/>
  <circle cx="6" cy="7" r="1" fill="srgba(82.4155%,6.54002%,20.3204%,1)"/>
  <circle cx="7" cy="7" r="1" fill="srgba(83.1785%,9.7612%,19.4385%,1)"/>
  <circle cx="8" cy="7" r="1" fill="srgba(84.8676%,16.8826%,17.4899%,1)"/>
  <circle cx="9" cy="7" r="1" fill="srgba(84.918%,17.0153%,17.4411%,1)"/>
  <circle cx="10" cy="7" r="1" fill="srgba(84.9226%,17.0108%,17.4395%,1)"/>
  <circle cx="11" cy="7" r="1" fill="srgba(84.9226%,17.0108%,17.4395%,1)"/>
  <circle cx="12" cy="7" r="1" fill="srgba(84.9226%,17.0108%,17.4395%,1)"/>
  <circle cx="13" cy="7" r="1" fill="srgba(84.9226%,17.0108%,17.4395%,1)"/>
  <circle cx="14" cy="7" r="1" fill="srgba(84.9226%,17.0108%,17.4395%,1)"/>
  <circle cx="15" cy="7" r="1" fill="srgba(84.9226%,17.0108%,17.4395%,1)"/>
  <circle cx="0" cy="8" r="1" fill="srgba(84.9271%,17.0245%,17.4334%,1)"/>
  <circle cx="1" cy="8" r="1" fill="srgba(84.9241%,17.0123%,17.438%,1)"/>
  <circle cx="2" cy="8" r="1" fill="srgba(84.9241%,17.0123%,17.438%,1)"/>
  <circle cx="3" cy="8" r="1" fill="srgba(84.9241%,17.0123%,17.438%,1)"/>
  <circle cx="4" cy="8" r="1" fill="srgba(84.9409%,17.1557%,17.409%,1)"/>
  <circle cx="5" cy="8" r="1" fill="srgba(84.2908%,14.4594%,18.1537%,1)"/>
  <circle cx="6" cy="8" r="1" fill="srgba(82.4155%,6.54002%,20.3204%,1)"/>
  <circle cx="7" cy="8" r="1" fill="srgba(83.1785%,9.7612%,19.4385%,1)"/>
  <circle cx="8" cy="8" r="1" fill="srgba(84.8676%,16.8841%,17.4899%,1)"/>
  <circle cx="9" cy="8" r="1" fill="srgba(84.9195%,17.0169%,17.4395%,1)"/>
  <circle cx="10" cy="8" r="1" fill="srgba(84.9241%,17.0123%,17.438%,1)"/>
  <circle cx="11" cy="8" r="1" fill="srgba(84.9241%,17.0123%,17.438%,1)"/>
  <circle cx="12" cy="8" r="1" fill="srgba(84.9241%,17.0123%,17.438%,1)"/>
  <circle cx="13" cy="8" r="1" fill="srgba(84.9241%,17.0123%,17.438%,1)"/>
  <circle cx="14" cy="8" r="1" fill="srgba(84.9241%,17.0123%,17.438%,1)"/>
  <circle cx="15" cy="8" r="1" fill="srgba(84.9241%,17.0123%,17.438%,1)"/>
  <circle cx="0" cy="9" r="1" fill="srgba(98.2345%,73.9055%,1.96384%,1)"/>
  <circle cx="1" cy="9" r="1" fill="srgba(98.2559%,73.9117%,1.9501%,1)"/>
  <circle cx="2" cy="9" r="1" fill="srgba(98.2544%,73.9117%,1.9501%,1)"/>
  <circle cx="3" cy="9" r="1" fill="srgba(98.2528%,73.9117%,1.9501%,1)"/>
  <circle cx="4" cy="9" r="1" fill="srgba(98.5611%,74.9142%,1.63577%,1)"/>
  <circle cx="5" cy="9" r="1" fill="srgba(94.5922%,57.9522%,6.2501%,1)"/>
  <circle cx="6" cy="9" r="1" fill="srgba(82.7481%,7.9469%,19.9344%,1)"/>
  <circle cx="7" cy="9" r="1" fill="srgba(87.5669%,28.2856%,14.3709%,1)"/>
  <circle cx="8" cy="9" r="1" fill="srgba(98.2071%,73.2479%,2.06912%,1)"/>
  <circle cx="9" cy="9" r="1" fill="srgba(98.291%,73.9727%,1.92111%,1)"/>
  <circle cx="10" cy="9" r="1" fill="srgba(98.2528%,73.9117%,1.95163%,1)"/>
  <circle cx="11" cy="9" r="1" fill="srgba(98.2544%,73.9117%,1.9501%,1)"/>
  <circle cx="12" cy="9" r="1" fill="srgba(98.2544%,73.9117%,1.9501%,1)"/>
  <circle cx="13" cy="9" r="1" fill="srgba(98.2544%,73.9117%,1.9501%,1)"/>
  <circle cx="14" cy="9" r="1" fill="srgba(98.2544%,73.9117%,1.9501%,1)"/>
  <circle cx="15" cy="9" r="1" fill="srgba(98.2544%,73.9117%,1.9501%,1)"/>
  <circle cx="0" cy="10" r="1" fill="srgba(37.1618%,50.8644%,40.6195%,1)"/>
  <circle cx="1" cy="10" r="1" fill="srgba(37.1603%,50.8629%,40.6088%,1)"/>
  <circle cx="2" cy="10" r="1" fill="srgba(37.1542%,50.8598%,40.6119%,1)"/>
  <circle cx="3" cy="10" r="1" fill="srgba(36.7849%,50.6813%,40.8515%,1)"/>
  <circle cx="4" cy="10" r="1" fill="srgba(74.1024%,69.659%,16.611%,1)"/>
  <circle cx="5" cy="10" r="1" fill="srgba(96.8994%,64.004%,4.13062%,1)"/>
  <circle cx="6" cy="10" r="1" fill="srgba(82.7878%,8.12696%,19.8886%,1)"/>
  <circle cx="7" cy="10" r="1" fill="srgba(88.3635%,30.7729%,13.5882%,1)"/>
  <circle cx="8" cy="10" r="1" fill="srgba(95.5215%,78.3474%,2.98924%,1)"/>
  <circle cx="9" cy="10" r="1" fill="srgba(48.9281%,56.5972%,32.9946%,1)"/>
  <circle cx="10" cy="10" r="1" fill="srgba(36.4187%,50.5043%,41.088%,1)"/>
  <circle cx="11" cy="10" r="1" fill="srgba(37.1603%,50.8629%,40.6088%,1)"/>
  <circle cx="12" cy="10" r="1" fill="srgba(37.1603%,50.8629%,40.6088%,1)"/>
  <circle cx="13" cy="10" r="1" fill="srgba(37.1603%,50.8629%,40.6088%,1)"/>
  <circle cx="14" cy="10" r="1" fill="srgba(37.1603%,50.8629%,40.6088%,1)"/>
  <circle cx="15" cy="10" r="1" fill="srgba(37.1603%,50.8629%,40.6088%,1)"/>
  <circle cx="0" cy="11" r="1" fill="srgba(0%,31.7144%,65.8442%,1)"/>
  <circle cx="1" cy="11" r="1" fill="srgba(0%,31.7067%,65.8366%,1)"/>
  <circle cx="2" cy="11" r="1" fill="srgba(0%,31.7021%,65.8427%,1)"/>
  <circle cx="3" cy="11" r="1" fill="srgba(0%,31.4137%,66.2303%,1)"/>
  <circle cx="4" cy="11" r="1" fill="srgba(58.5946%,61.4267%,27.1107%,1)"/>
  <circle cx="5" cy="11" r="1" fill="srgba(97.5357%,63.9902%,3.69879%,1)"/>
  <circle cx="6" cy="11" r="1" fill="srgba(82.7878%,8.11627%,19.8886%,1)"/>
  <circle cx="7" cy="11" r="1" fill="srgba(88.5237%,30.7103%,13.4813%,1)"/>
  <circle cx="8" cy="11" r="1" fill="srgba(92.9732%,76.6369%,4.71199%,1)"/>
  <circle cx="9" cy="11" r="1" fill="srgba(18.7015%,40.9415%,53.5027%,1)"/>
  <circle cx="10" cy="11" r="1" fill="srgba(0%,31.1269%,66.6133%,1)"/>
  <circle cx="11" cy="11" r="1" fill="srgba(0%,31.7067%,65.8366%,1)"/>
  <circle cx="12" cy="11" r="1" fill="srgba(0%,31.7067%,65.8366%,1)"/>
  <circle cx="13" cy="11" r="1" fill="srgba(0%,31.7067%,65.8366%,1)"/>
  <circle cx="14" cy="11" r="1" fill="srgba(0%,31.7067%,65.8366%,1)"/>
  <circle cx="15" cy="11" r="1" fill="srgba(0%,31.7067%,65.8366%,1)"/>
  <circle cx="0" cy="12" r="1" fill="srgba(0.015259%,32.5566%,64.7135%,1)"/>
  <circle cx="1" cy="12" r="1" fill="srgba(0,83,165,1)"/>
  <circle cx="2" cy="12" r="1" fill="srgba(0%,32.5444%,64.712%,1)"/>
  <circle cx="3" cy="12" r="1" fill="srgba(0%,32.2606%,65.0935%,1)"/>
  <circle cx="4" cy="12" r="1" fill="srgba(58.6404%,61.7762%,26.6392%,1)"/>
  <circle cx="5" cy="12" r="1" fill="srgba(97.5372%,63.975%,3.71862%,1)"/>
  <circle cx="6" cy="12" r="1" fill="srgba(82.7878%,8.11627%,19.8886%,1)"/>
  <circle cx="7" cy="12" r="1" fill="srgba(88.5222%,30.7073%,13.4859%,1)"/>
  <circle cx="8" cy="12" r="1" fill="srgba(92.9824%,76.6934%,4.63416%,1)"/>
  <circle cx="9" cy="12" r="1" fill="srgba(18.7182%,41.6266%,52.5841%,1)"/>
  <circle cx="10" cy="12" r="1" fill="srgba(0%,31.9799%,65.4704%,1)"/>
  <circle cx="11" cy="12" r="1" fill="srgba(0,83,165,1)"/>
  <circle cx="12" cy="12" r="1" fill="srgba(0,83,165,1)"/>
  <circle cx="13" cy="12" r="1" fill="srgba(0,83,165,1)"/>
  <circle cx="14" cy="12" r="1" fill="srgba(0,83,165,1)"/>
  <circle cx="15" cy="12" r="1" fill="srgba(0,83,165,1)"/>
  <circle cx="0" cy="13" r="1" fill="srgba(0.015259%,32.5566%,64.7135%,1)"/>
  <circle cx="1" cy="13" r="1" fill="srgba(0,83,165,1)"/>
  <circle cx="2" cy="13" r="1" fill="srgba(0%,32.5444%,64.712%,1)"/>
  <circle cx="3" cy="13" r="1" fill="srgba(0%,32.2606%,65.0935%,1)"/>
  <circle cx="4" cy="13" r="1" fill="srgba(58.6404%,61.7762%,26.6392%,1)"/>
  <circle cx="5" cy="13" r="1" fill="srgba(97.5372%,63.975%,3.71862%,1)"/>
  <circle cx="6" cy="13" r="1" fill="srgba(82.7878%,8.11627%,19.8886%,1)"/>
  <circle cx="7" cy="13" r="1" fill="srgba(88.5222%,30.7073%,13.4859%,1)"/>
  <circle cx="8" cy="13" r="1" fill="srgba(92.9824%,76.6934%,4.63416%,1)"/>
  <circle cx="9" cy="13" r="1" fill="srgba(18.7182%,41.6266%,52.5841%,1)"/>
  <circle cx="10" cy="13" r="1" fill="srgba(0%,31.9799%,65.4704%,1)"/>
  <circle cx="11" cy="13" r="1" fill="srgba(0,83,165,1)"/>
  <circle cx="12" cy="13" r="1" fill="srgba(0,83,165,1)"/>
  <circle cx="13" cy="13" r="1" fill="srgba(0,83,165,1)"/>
  <circle cx="14" cy="13" r="1" fill="srgba(0,83,165,1)"/>
  <circle cx="15" cy="13" r="1" fill="srgba(0,83,165,1)"/>
  <circle cx="0" cy="14" r="1" fill="srgba(0.015259%,32.5566%,64.7135%,1)"/>
  <circle cx="1" cy="14" r="1" fill="srgba(0,83,165,1)"/>
  <circle cx="2" cy="14" r="1" fill="srgba(0%,32.5444%,64.712%,1)"/>
  <circle cx="3" cy="14" r="1" fill="srgba(0%,32.2606%,65.0935%,1)"/>
  <circle cx="4" cy="14" r="1" fill="srgba(58.6404%,61.7762%,26.6392%,1)"/>
  <circle cx="5" cy="14" r="1" fill="srgba(97.5372%,63.975%,3.71862%,1)"/>
  <circle cx="6" cy="14" r="1" fill="srgba(82.7878%,8.11627%,19.8886%,1)"/>
  <circle cx="7" cy="14" r="1" fill="srgba(88.5222%,30.7073%,13.4859%,1)"/>
  <circle cx="8" cy="14" r="1" fill="srgba(92.9824%,76.6934%,4.63416%,1)"/>
  <circle cx="9" cy="14" r="1" fill="srgba(18.7182%,41.6266%,52.5841%,1)"/>
  <circle cx="10" cy="14" r="1" fill="srgba(0%,31.9799%,65.4704%,1)"/>
  <circle cx="11" cy="14" r="1" fill="srgba(0,83,165,1)"/>
  <circle cx="12" cy="14" r="1" fill="srgba(0,83,165,1)"/>
  <circle cx="13" cy="14" r="1" fill="srgba(0,83,165,1)"/>
  <circle cx="14" cy="14" r="1" fill="srgba(0,83,165,1)"/>
  <circle cx="15" cy="14" r="1" fill="srgba(0,83,165,1)"/>
  <circle cx="0" cy="15" r="1" fill="srgba(0.015259%,32.5566%,64.7135%,1)"/>
  <circle cx="1" cy="15" r="1" fill="srgba(0,83,165,1)"/>
  <circle cx="2" cy="15" r="1" fill="srgba(0%,32.5444%,64.712%,1)"/>
  <circle cx="3" cy="15" r="1" fill="srgba(0%,32.2606%,65.0935%,1)"/>
  <circle cx="4" cy="15" r="1" fill="srgba(58.6404%,61.7762%,26.6392%,1)"/>
  <circle cx="5" cy="15" r="1" fill="srgba(97.5372%,63.975%,3.71862%,1)"/>
  <circle cx="6" cy="15" r="1" fill="srgba(82.7878%,8.11627%,19.8886%,1)"/>
  <circle cx="7" cy="15" r="1" fill="srgba(88.5222%,30.7073%,13.4859%,1)"/>
  <circle cx="8" cy="15" r="1" fill="srgba(92.9824%,76.6934%,4.63416%,1)"/>
  <circle cx="9" cy="15" r="1" fill="srgba(18.7182%,41.6266%,52.5841%,1)"/>
  <circle cx="10" cy="15" r="1" fill="srgba(0%,31.9799%,65.4704%,1)"/>
  <circle cx="11" cy="15" r="1" fill="srgba(0,83,165,1)"/>
  <circle cx="12" cy="15" r="1" fill="srgba(0,83,165,1)"/>
  <circle cx="13" cy="15" r="1" fill="srgba(0,83,165,1)"/>
  <circle cx="14" cy="15" r="1" fill="srgba(0,83,165,1)"/>
  <circle cx="15" cy="15" r="1" fill="srgba(0,83,165,1)"/>
</svg>
