<?xml version="1.0" standalone="no"?>
<!DOCTYPE svg PUBLIC "-//W3C//DTD SVG 20010904//EN"
  "http://www.w3.org/TR/2001/REC-SVG-20010904/DTD/svg10.dtd">
<svg width="16" height="16">
  <circle cx="0" cy="0" r="1" fill="srgba(0,185,228,1)"/>
  <circle cx="1" cy="0" r="1" fill="srgba(0,185,228,1)"/>
  <circle cx="2" cy="0" r="1" fill="srgba(0,185,228,1)"/>
  <circle cx="3" cy="0" r="1" fill="srgba(0,185,228,1)"/>
  <circle cx="4" cy="0" r="1" fill="srgba(0,185,228,1)"/>
  <circle cx="5" cy="0" r="1" fill="srgba(0,185,228,1)"/>
  <circle cx="6" cy="0" r="1" fill="srgba(0,185,228,1)"/>
  <circle cx="7" cy="0" r="1" fill="srgba(0,185,228,1)"/>
  <circle cx="8" cy="0" r="1" fill="srgba(0,185,228,1)"/>
  <circle cx="9" cy="0" r="1" fill="srgba(0,185,228,1)"/>
  <circle cx="10" cy="0" r="1" fill="srgba(0,185,228,1)"/>
  <circle cx="11" cy="0" r="1" fill="srgba(0,185,228,1)"/>
  <circle cx="12" cy="0" r="1" fill="srgba(0,185,228,1)"/>
  <circle cx="13" cy="0" r="1" fill="srgba(0,185,228,1)"/>
  <circle cx="14" cy="0" r="1" fill="srgba(0,185,228,1)"/>
  <circle cx="15" cy="0" r="1" fill="srgba(0,185,228,1)"/>
  <circle cx="0" cy="1" r="1" fill="srgba(0,185,228,1)"/>
  <circle cx="1" cy="1" r="1" fill="srgba(0,185,228,1)"/>
  <circle cx="2" cy="1" r="1" fill="srgba(0,185,228,1)"/>
  <circle cx="3" cy="1" r="1" fill="srgba(0,185,228,1)"/>
  <circle cx="4" cy="1" r="1" fill="srgba(0,185,228,1)"/>
  <circle cx="5" cy="1" r="1" fill="srgba(0,185,228,1)"/>
  <circle cx="6" cy="1" r="1" fill="srgba(0,185,228,1)"/>
  <circle cx="7" cy="1" r="1" fill="srgba(0,185,228,1)"/>
  <circle cx="8" cy="1" r="1" fill="srgba(0,185,228,1)"/>
  <circle cx="9" cy="1" r="1" fill="srgba(0,185,228,1)"/>
  <circle cx="10" cy="1" r="1" fill="srgba(0,185,228,1)"/>
  <circle cx="11" cy="1" r="1" fill="srgba(0,185,228,1)"/>
  <circle cx="12" cy="1" r="1" fill="srgba(0,185,228,1)"/>
  <circle cx="13" cy="1" r="1" fill="srgba(0,185,228,1)"/>
  <circle cx="14" cy="1" r="1" fill="srgba(0,185,228,1)"/>
  <circle cx="15" cy="1" r="1" fill="srgba(0,185,228,1)"/>
  <circle cx="0" cy="2" r="1" fill="srgba(0,185,228,1)"/>
  <circle cx="1" cy="2" r="1" fill="srgba(0,185,228,1)"/>
  <circle cx="2" cy="2" r="1" fill="srgba(0,185,228,1)"/>
  <circle cx="3" cy="2" r="1" fill="srgba(0,185,228,1)"/>
  <circle cx="4" cy="2" r="1" fill="srgba(0,185,228,1)"/>
  <circle cx="5" cy="2" r="1" fill="srgba(0,185,228,1)"/>
  <circle cx="6" cy="2" r="1" fill="srgba(0,185,228,1)"/>
  <circle cx="7" cy="2" r="1" fill="srgba(0,185,228,1)"/>
  <circle cx="8" cy="2" r="1" fill="srgba(0,185,228,1)"/>
  <circle cx="9" cy="2" r="1" fill="srgba(0,185,228,1)"/>
  <circle cx="10" cy="2" r="1" fill="srgba(0,185,228,1)"/>
  <circle cx="11" cy="2" r="1" fill="srgba(0,185,228,1)"/>
  <circle cx="12" cy="2" r="1" fill="srgba(0,185,228,1)"/>
  <circle cx="13" cy="2" r="1" fill="srgba(0,185,228,1)"/>
  <circle cx="14" cy="2" r="1" fill="srgba(0,185,228,1)"/>
  <circle cx="15" cy="2" r="1" fill="srgba(0,185,228,1)"/>
  <circle cx="0" cy="3" r="1" fill="srgba(0%,72.5734%,89.4408%,1)"/>
  <circle cx="1" cy="3" r="1" fill="srgba(0%,72.5734%,89.4408%,1)"/>
  <circle cx="2" cy="3" r="1" fill="srgba(0%,72.5734%,89.4408%,1)"/>
  <circle cx="3" cy="3" r="1" fill="srgba(0%,72.5734%,89.4408%,1)"/>
  <circle cx="4" cy="3" r="1" fill="srgba(0%,72.5734%,89.4408%,1)"/>
  <circle cx="5" cy="3" r="1" fill="srgba(0%,72.5734%,89.4408%,1)"/>
  <circle cx="6" cy="3" r="1" fill="srgba(0%,72.5734%,89.4408%,1)"/>
  <circle cx="7" cy="3" r="1" fill="srgba(0%,72.5734%,89.4408%,1)"/>
  <circle cx="8" cy="3" r="1" fill="srgba(0%,72.5734%,89.4408%,1)"/>
  <circle cx="9" cy="3" r="1" fill="srgba(0%,72.5734%,89.4408%,1)"/>
  <circle cx="10" cy="3" r="1" fill="srgba(0%,72.5734%,89.4408%,1)"/>
  <circle cx="11" cy="3" r="1" fill="srgba(0%,72.5734%,89.4408%,1)"/>
  <circle cx="12" cy="3" r="1" fill="srgba(0%,72.5734%,89.4408%,1)"/>
  <circle cx="13" cy="3" r="1" fill="srgba(0%,72.5734%,89.4408%,1)"/>
  <circle cx="14" cy="3" r="1" fill="srgba(0%,72.5734%,89.4408%,1)"/>
  <circle cx="15" cy="3" r="1" fill="srgba(0%,72.5734%,89.4408%,1)"/>
  <circle cx="0" cy="4" r="1" fill="srgba(0.413519%,72.2988%,89.1142%,1)"/>
  <circle cx="1" cy="4" r="1" fill="srgba(0.413519%,72.2988%,89.1142%,1)"/>
  <circle cx="2" cy="4" r="1" fill="srgba(0.413519%,72.2988%,89.1142%,1)"/>
  <circle cx="3" cy="4" r="1" fill="srgba(0.413519%,72.2988%,89.1142%,1)"/>
  <circle cx="4" cy="4" r="1" fill="srgba(0.413519%,72.3064%,89.1203%,1)"/>
  <circle cx="5" cy="4" r="1" fill="srgba(0.404364%,72.1874%,89.012%,1)"/>
  <circle cx="6" cy="4" r="1" fill="srgba(0.326543%,71.2642%,88.1575%,1)"/>
  <circle cx="7" cy="4" r="1" fill="srgba(0.325017%,71.2474%,88.1407%,1)"/>
  <circle cx="8" cy="4" r="1" fill="srgba(0.364691%,71.7342%,88.5908%,1)"/>
  <circle cx="9" cy="4" r="1" fill="srgba(0.408942%,72.2499%,89.07%,1)"/>
  <circle cx="10" cy="4" r="1" fill="srgba(0.413519%,72.3018%,89.1173%,1)"/>
  <circle cx="11" cy="4" r="1" fill="srgba(0.413519%,72.2988%,89.1142%,1)"/>
  <circle cx="12" cy="4" r="1" fill="srgba(0.413519%,72.2988%,89.1142%,1)"/>
  <circle cx="13" cy="4" r="1" fill="srgba(0.413519%,72.2988%,89.1142%,1)"/>
  <circle cx="14" cy="4" r="1" fill="srgba(0.413519%,72.2988%,89.1142%,1)"/>
  <circle cx="15" cy="4" r="1" fill="srgba(0.413519%,72.2988%,89.1142%,1)"/>
  <circle cx="0" cy="5" r="1" fill="srgba(59.9603%,36.1212%,46.1524%,1)"/>
  <circle cx="1" cy="5" r="1" fill="srgba(59.9603%,36.1212%,46.1524%,1)"/>
  <circle cx="2" cy="5" r="1" fill="srgba(59.9603%,36.1212%,46.1524%,1)"/>
  <circle cx="3" cy="5" r="1" fill="srgba(59.9603%,36.1227%,46.154%,1)"/>
  <circle cx="4" cy="5" r="1" fill="srgba(59.9466%,35.9625%,46.006%,1)"/>
  <circle cx="5" cy="5" r="1" fill="srgba(60.0626%,37.348%,47.2877%,1)"/>
  <circle cx="6" cy="5" r="1" fill="srgba(61.6281%,55.9655%,64.5136%,1)"/>
  <circle cx="7" cy="5" r="1" fill="srgba(62.153%,62.2065%,70.2876%,1)"/>
  <circle cx="8" cy="5" r="1" fill="srgba(60.9201%,47.5425%,56.7208%,1)"/>
  <circle cx="9" cy="5" r="1" fill="srgba(60%,36.6003%,46.5949%,1)"/>
  <circle cx="10" cy="5" r="1" fill="srgba(59.9298%,35.7717%,45.8289%,1)"/>
  <circle cx="11" cy="5" r="1" fill="srgba(59.9588%,36.0967%,46.1295%,1)"/>
  <circle cx="12" cy="5" r="1" fill="srgba(59.9603%,36.1227%,46.154%,1)"/>
  <circle cx="13" cy="5" r="1" fill="srgba(59.9603%,36.1212%,46.1524%,1)"/>
  <circle cx="14" cy="5" r="1" fill="srgba(59.9603%,36.1212%,46.1524%,1)"/>
  <circle cx="15" cy="5" r="1" fill="srgba(59.9603%,36.1212%,46.1524%,1)"/>
  <circle cx="0" cy="6" r="1" fill="srgba(94.5586%,15.0958%,21.1856%,1)"/>
  <circle cx="1" cy="6" r="1" fill="srgba(94.5586%,15.0958%,21.1856%,1)"/>
  <circle cx="2" cy="6" r="1" fill="srgba(94.5586%,15.0958%,21.1856%,1)"/>
  <circle cx="3" cy="6" r="1" fill="srgba(94.5571%,15.0729%,21.1658%,1)"/>
  <circle cx="4" cy="6" r="1" fill="srgba(94.5342%,14.7601%,20.8759%,1)"/>
  <circle cx="5" cy="6" r="1" fill="srgba(97.2961%,48.4581%,52.0546%,1)"/>
  <circle cx="6" cy="6" r="1" fill="srgba(98.6236%,64.6876%,67.0695%,1)"/>
  <circle cx="7" cy="6" r="1" fill="srgba(95.8907%,30.8659%,35.7763%,1)"/>
  <circle cx="8" cy="6" r="1" fill="srgba(95.2697%,23.5492%,29.0074%,1)"/>
  <circle cx="9" cy="6" r="1" fill="srgba(95.0103%,20.4608%,26.1494%,1)"/>
  <circle cx="10" cy="6" r="1" fill="srgba(94.9538%,19.794%,25.5329%,1)"/>
  <circle cx="11" cy="6" r="1" fill="srgba(94.5754%,15.2972%,21.3718%,1)"/>
  <circle cx="12" cy="6" r="1" fill="srgba(94.5571%,15.0683%,21.1597%,1)"/>
  <circle cx="13" cy="6" r="1" fill="srgba(94.5586%,15.0958%,21.1856%,1)"/>
  <circle cx="14" cy="6" r="1" fill="srgba(94.5586%,15.0958%,21.1856%,1)"/>
  <circle cx="15" cy="6" r="1" fill="srgba(94.5586%,15.0958%,21.1856%,1)"/>
  <circle cx="0" cy="7" r="1" fill="srgba(237,41,57,1)"/>
  <circle cx="1" cy="7" r="1" fill="srgba(237,41,57,1)"/>
  <circle cx="2" cy="7" r="1" fill="srgba(237,41,57,1)"/>
  <circle cx="3" cy="7" r="1" fill="srgba(92.9152%,15.7641%,22.063%,1)"/>
  <circle cx="4" cy="7" r="1" fill="srgba(93.3898%,21.4237%,27.2984%,1)"/>
  <circle cx="5" cy="7" r="1" fill="srgba(97.9202%,75.2758%,77.1252%,1)"/>
  <circle cx="6" cy="7" r="1" fill="srgba(94.3206%,32.4804%,37.528%,1)"/>
  <circle cx="7" cy="7" r="1" fill="srgba(92.7749%,14.1039%,20.5264%,1)"/>
  <circle cx="8" cy="7" r="1" fill="srgba(93.0465%,17.3251%,23.5065%,1)"/>
  <circle cx="9" cy="7" r="1" fill="srgba(96.5545%,59.0265%,62.0905%,1)"/>
  <circle cx="10" cy="7" r="1" fill="srgba(97.5769%,71.194%,73.3486%,1)"/>
  <circle cx="11" cy="7" r="1" fill="srgba(93.5683%,23.5447%,29.2607%,1)"/>
  <circle cx="12" cy="7" r="1" fill="srgba(92.9046%,15.642%,21.9501%,1)"/>
  <circle cx="13" cy="7" r="1" fill="srgba(237,41,57,1)"/>
  <circle cx="14" cy="7" r="1" fill="srgba(237,41,57,1)"/>
  <circle cx="15" cy="7" r="1" fill="srgba(237,41,57,1)"/>
  <circle cx="0" cy="8" r="1" fill="srgba(237,41,57,1)"/>
  <circle cx="1" cy="8" r="1" fill="srgba(237,41,57,1)"/>
  <circle cx="2" cy="8" r="1" fill="srgba(237,41,57,1)"/>
  <circle cx="3" cy="8" r="1" fill="srgba(92.9152%,15.7656%,22.063%,1)"/>
  <circle cx="4" cy="8" r="1" fill="srgba(93.3898%,21.4115%,27.2877%,1)"/>
  <circle cx="5" cy="8" r="1" fill="srgba(97.9187%,75.2621%,77.1115%,1)"/>
  <circle cx="6" cy="8" r="1" fill="srgba(94.3236%,32.5185%,37.5631%,1)"/>
  <circle cx="7" cy="8" r="1" fill="srgba(92.7749%,14.1024%,20.5249%,1)"/>
  <circle cx="8" cy="8" r="1" fill="srgba(93.0449%,17.3144%,23.4974%,1)"/>
  <circle cx="9" cy="8" r="1" fill="srgba(96.5408%,58.8846%,61.9608%,1)"/>
  <circle cx="10" cy="8" r="1" fill="srgba(97.5616%,71.0231%,73.1899%,1)"/>
  <circle cx="11" cy="8" r="1" fill="srgba(93.5653%,23.505%,29.2241%,1)"/>
  <circle cx="12" cy="8" r="1" fill="srgba(92.9046%,15.6451%,21.9516%,1)"/>
  <circle cx="13" cy="8" r="1" fill="srgba(237,41,57,1)"/>
  <circle cx="14" cy="8" r="1" fill="srgba(237,41,57,1)"/>
  <circle cx="15" cy="8" r="1" fill="srgba(237,41,57,1)"/>
  <circle cx="0" cy="9" r="1" fill="srgba(94.1283%,15.2941%,22.3804%,1)"/>
  <circle cx="1" cy="9" r="1" fill="srgba(94.1283%,15.2941%,22.3804%,1)"/>
  <circle cx="2" cy="9" r="1" fill="srgba(94.1283%,15.2941%,22.3804%,1)"/>
  <circle cx="3" cy="9" r="1" fill="srgba(94.1268%,15.2728%,22.3606%,1)"/>
  <circle cx="4" cy="9" r="1" fill="srgba(94.1009%,14.9554%,22.0661%,1)"/>
  <circle cx="5" cy="9" r="1" fill="srgba(96.9131%,48.5588%,53.1594%,1)"/>
  <circle cx="6" cy="9" r="1" fill="srgba(98.2834%,64.9577%,68.3314%,1)"/>
  <circle cx="7" cy="9" r="1" fill="srgba(95.462%,31.1406%,37.0428%,1)"/>
  <circle cx="8" cy="9" r="1" fill="srgba(94.8379%,23.7385%,30.193%,1)"/>
  <circle cx="9" cy="9" r="1" fill="srgba(94.5769%,20.6302%,27.3182%,1)"/>
  <circle cx="10" cy="9" r="1" fill="srgba(94.5174%,19.9176%,26.659%,1)"/>
  <circle cx="11" cy="9" r="1" fill="srgba(94.1436%,15.4833%,22.5559%,1)"/>
  <circle cx="12" cy="9" r="1" fill="srgba(94.1268%,15.2682%,22.356%,1)"/>
  <circle cx="13" cy="9" r="1" fill="srgba(94.1283%,15.2941%,22.3804%,1)"/>
  <circle cx="14" cy="9" r="1" fill="srgba(94.1283%,15.2941%,22.3804%,1)"/>
  <circle cx="15" cy="9" r="1" fill="srgba(94.1283%,15.2941%,22.3804%,1)"/>
  <circle cx="0" cy="10" r="1" fill="srgba(68.7343%,32.0806%,21.7929%,1)"/>
  <circle cx="1" cy="10" r="1" fill="srgba(68.7343%,32.0806%,21.7929%,1)"/>
  <circle cx="2" cy="10" r="1" fill="srgba(68.7343%,32.0806%,21.7929%,1)"/>
  <circle cx="3" cy="10" r="1" fill="srgba(68.7343%,32.0821%,21.7945%,1)"/>
  <circle cx="4" cy="10" r="1" fill="srgba(68.7205%,31.9249%,21.648%,1)"/>
  <circle cx="5" cy="10" r="1" fill="srgba(68.835%,33.2769%,22.8992%,1)"/>
  <circle cx="6" cy="10" r="1" fill="srgba(70.3975%,51.8563%,40.09%,1)"/>
  <circle cx="7" cy="10" r="1" fill="srgba(70.927%,58.1598%,45.922%,1)"/>
  <circle cx="8" cy="10" r="1" fill="srgba(69.6895%,43.4394%,32.3033%,1)"/>
  <circle cx="9" cy="10" r="1" fill="srgba(68.7739%,32.5521%,22.2293%,1)"/>
  <circle cx="10" cy="10" r="1" fill="srgba(68.7053%,31.7342%,21.4725%,1)"/>
  <circle cx="11" cy="10" r="1" fill="srgba(68.7327%,32.0562%,21.77%,1)"/>
  <circle cx="12" cy="10" r="1" fill="srgba(68.7343%,32.0821%,21.7945%,1)"/>
  <circle cx="13" cy="10" r="1" fill="srgba(68.7343%,32.0806%,21.7929%,1)"/>
  <circle cx="14" cy="10" r="1" fill="srgba(68.7343%,32.0806%,21.7929%,1)"/>
  <circle cx="15" cy="10" r="1" fill="srgba(68.7343%,32.0806%,21.7929%,1)"/>
  <circle cx="0" cy="11" r="1" fill="srgba(25.0111%,60.9751%,20.7904%,1)"/>
  <circle cx="1" cy="11" r="1" fill="srgba(25.0111%,60.9751%,20.7904%,1)"/>
  <circle cx="2" cy="11" r="1" fill="srgba(25.0111%,60.9751%,20.7904%,1)"/>
  <circle cx="3" cy="11" r="1" fill="srgba(25.0111%,60.9751%,20.7904%,1)"/>
  <circle cx="4" cy="11" r="1" fill="srgba(25.0111%,60.9827%,20.7965%,1)"/>
  <circle cx="5" cy="11" r="1" fill="srgba(25.0019%,60.8667%,20.6897%,1)"/>
  <circle cx="6" cy="11" r="1" fill="srgba(24.9241%,59.9435%,19.8352%,1)"/>
  <circle cx="7" cy="11" r="1" fill="srgba(24.9226%,59.9222%,19.8154%,1)"/>
  <circle cx="8" cy="11" r="1" fill="srgba(24.9638%,60.4135%,20.2701%,1)"/>
  <circle cx="9" cy="11" r="1" fill="srgba(25.0065%,60.9277%,20.7462%,1)"/>
  <circle cx="10" cy="11" r="1" fill="srgba(25.0111%,60.9781%,20.7935%,1)"/>
  <circle cx="11" cy="11" r="1" fill="srgba(25.0111%,60.9751%,20.7904%,1)"/>
  <circle cx="12" cy="11" r="1" fill="srgba(25.0111%,60.9751%,20.7904%,1)"/>
  <circle cx="13" cy="11" r="1" fill="srgba(25.0111%,60.9751%,20.7904%,1)"/>
  <circle cx="14" cy="11" r="1" fill="srgba(25.0111%,60.9751%,20.7904%,1)"/>
  <circle cx="15" cy="11" r="1" fill="srgba(25.0111%,60.9751%,20.7904%,1)"/>
  <circle cx="0" cy="12" r="1" fill="srgba(24.6754%,61.1963%,20.7843%,1)"/>
  <circle cx="1" cy="12" r="1" fill="srgba(24.6754%,61.1963%,20.7843%,1)"/>
  <circle cx="2" cy="12" r="1" fill="srgba(24.6754%,61.1963%,20.7843%,1)"/>
  <circle cx="3" cy="12" r="1" fill="srgba(24.6754%,61.1963%,20.7843%,1)"/>
  <circle cx="4" cy="12" r="1" fill="srgba(24.6754%,61.1963%,20.7843%,1)"/>
  <circle cx="5" cy="12" r="1" fill="srgba(24.6754%,61.1963%,20.7843%,1)"/>
  <circle cx="6" cy="12" r="1" fill="srgba(24.6754%,61.1963%,20.7843%,1)"/>
  <circle cx="7" cy="12" r="1" fill="srgba(24.6754%,61.1963%,20.7843%,1)"/>
  <circle cx="8" cy="12" r="1" fill="srgba(24.6754%,61.1963%,20.7843%,1)"/>
  <circle cx="9" cy="12" r="1" fill="srgba(24.6754%,61.1963%,20.7843%,1)"/>
  <circle cx="10" cy="12" r="1" fill="srgba(24.6754%,61.1963%,20.7843%,1)"/>
  <circle cx="11" cy="12" r="1" fill="srgba(24.6754%,61.1963%,20.7843%,1)"/>
  <circle cx="12" cy="12" r="1" fill="srgba(24.6754%,61.1963%,20.7843%,1)"/>
  <circle cx="13" cy="12" r="1" fill="srgba(24.6754%,61.1963%,20.7843%,1)"/>
  <circle cx="14" cy="12" r="1" fill="srgba(24.6754%,61.1963%,20.7843%,1)"/>
  <circle cx="15" cy="12" r="1" fill="srgba(24.6754%,61.1963%,20.7843%,1)"/>
  <circle cx="0" cy="13" r="1" fill="srgba(63,156,53,1)"/>
  <circle cx="1" cy="13" r="1" fill="srgba(63,156,53,1)"/>
  <circle cx="2" cy="13" r="1" fill="srgba(63,156,53,1)"/>
  <circle cx="3" cy="13" r="1" fill="srgba(63,156,53,1)"/>
  <circle cx="4" cy="13" r="1" fill="srgba(63,156,53,1)"/>
  <circle cx="5" cy="13" r="1" fill="srgba(63,156,53,1)"/>
  <circle cx="6" cy="13" r="1" fill="srgba(63,156,53,1)"/>
  <circle cx="7" cy="13" r="1" fill="srgba(63,156,53,1)"/>
  <circle cx="8" cy="13" r="1" fill="srgba(63,156,53,1)"/>
  <circle cx="9" cy="13" r="1" fill="srgba(63,156,53,1)"/>
  <circle cx="10" cy="13" r="1" fill="srgba(63,156,53,1)"/>
  <circle cx="11" cy="13" r="1" fill="srgba(63,156,53,1)"/>
  <circle cx="12" cy="13" r="1" fill="srgba(63,156,53,1)"/>
  <circle cx="13" cy="13" r="1" fill="srgba(63,156,53,1)"/>
  <circle cx="14" cy="13" r="1" fill="srgba(63,156,53,1)"/>
  <circle cx="15" cy="13" r="1" fill="srgba(63,156,53,1)"/>
  <circle cx="0" cy="14" r="1" fill="srgba(63,156,53,1)"/>
  <circle cx="1" cy="14" r="1" fill="srgba(63,156,53,1)"/>
  <circle cx="2" cy="14" r="1" fill="srgba(63,156,53,1)"/>
  <circle cx="3" cy="14" r="1" fill="srgba(63,156,53,1)"/>
  <circle cx="4" cy="14" r="1" fill="srgba(63,156,53,1)"/>
  <circle cx="5" cy="14" r="1" fill="srgba(63,156,53,1)"/>
  <circle cx="6" cy="14" r="1" fill="srgba(63,156,53,1)"/>
  <circle cx="7" cy="14" r="1" fill="srgba(63,156,53,1)"/>
  <circle cx="8" cy="14" r="1" fill="srgba(63,156,53,1)"/>
  <circle cx="9" cy="14" r="1" fill="srgba(63,156,53,1)"/>
  <circle cx="10" cy="14" r="1" fill="srgba(63,156,53,1)"/>
  <circle cx="11" cy="14" r="1" fill="srgba(63,156,53,1)"/>
  <circle cx="12" cy="14" r="1" fill="srgba(63,156,53,1)"/>
  <circle cx="13" cy="14" r="1" fill="srgba(63,156,53,1)"/>
  <circle cx="14" cy="14" r="1" fill="srgba(63,156,53,1)"/>
  <circle cx="15" cy="14" r="1" fill="srgba(63,156,53,1)"/>
  <circle cx="0" cy="15" r="1" fill="srgba(63,156,53,1)"/>
  <circle cx="1" cy="15" r="1" fill="srgba(63,156,53,1)"/>
  <circle cx="2" cy="15" r="1" fill="srgba(63,156,53,1)"/>
  <circle cx="3" cy="15" r="1" fill="srgba(63,156,53,1)"/>
  <circle cx="4" cy="15" r="1" fill="srgba(63,156,53,1)"/>
  <circle cx="5" cy="15" r="1" fill="srgba(63,156,53,1)"/>
  <circle cx="6" cy="15" r="1" fill="srgba(63,156,53,1)"/>
  <circle cx="7" cy="15" r="1" fill="srgba(63,156,53,1)"/>
  <circle cx="8" cy="15" r="1" fill="srgba(63,156,53,1)"/>
  <circle cx="9" cy="15" r="1" fill="srgba(63,156,53,1)"/>
  <circle cx="10" cy="15" r="1" fill="srgba(63,156,53,1)"/>
  <circle cx="11" cy="15" r="1" fill="srgba(63,156,53,1)"/>
  <circle cx="12" cy="15" r="1" fill="srgba(63,156,53,1)"/>
  <circle cx="13" cy="15" r="1" fill="srgba(63,156,53,1)"/>
  <circle cx="14" cy="15" r="1" fill="srgba(63,156,53,1)"/>
  <circle cx="15" cy="15" r="1" fill="srgba(63,156,53,1)"/>
</svg>
