<?xml version="1.0" standalone="no"?>
<!DOCTYPE svg PUBLIC "-//W3C//DTD SVG 20010904//EN"
  "http://www.w3.org/TR/2001/REC-SVG-20010904/DTD/svg10.dtd">
<svg width="16" height="16">
  <circle cx="0" cy="0" r="1" fill="srgba(6.34775%,6.34775%,62.5376%,1)"/>
  <circle cx="1" cy="0" r="1" fill="srgba(25.2216%,25.3864%,70.9102%,1)"/>
  <circle cx="2" cy="0" r="1" fill="srgba(24.9042%,21.2833%,51.9615%,1)"/>
  <circle cx="3" cy="0" r="1" fill="srgba(82.5254%,66.3142%,10.3212%,1)"/>
  <circle cx="4" cy="0" r="1" fill="srgba(100%,81.0971%,0%,1)"/>
  <circle cx="5" cy="0" r="1" fill="srgba(100%,79.9893%,0%,1)"/>
  <circle cx="6" cy="0" r="1" fill="srgba(255,204,0,1)"/>
  <circle cx="7" cy="0" r="1" fill="srgba(255,204,0,1)"/>
  <circle cx="8" cy="0" r="1" fill="srgba(255,204,0,1)"/>
  <circle cx="9" cy="0" r="1" fill="srgba(255,204,0,1)"/>
  <circle cx="10" cy="0" r="1" fill="srgba(255,204,0,1)"/>
  <circle cx="11" cy="0" r="1" fill="srgba(255,204,0,1)"/>
  <circle cx="12" cy="0" r="1" fill="srgba(255,204,0,1)"/>
  <circle cx="13" cy="0" r="1" fill="srgba(255,204,0,1)"/>
  <circle cx="14" cy="0" r="1" fill="srgba(255,204,0,1)"/>
  <circle cx="15" cy="0" r="1" fill="srgba(255,204,0,1)"/>
  <circle cx="0" cy="1" r="1" fill="srgba(23.5691%,23.5691%,69.4255%,1)"/>
  <circle cx="1" cy="1" r="1" fill="srgba(75.1064%,75.1125%,90.071%,1)"/>
  <circle cx="2" cy="1" r="1" fill="srgba(24.6555%,24.7547%,70.3197%,1)"/>
  <circle cx="3" cy="1" r="1" fill="srgba(24.477%,19.5209%,45.0553%,1)"/>
  <circle cx="4" cy="1" r="1" fill="srgba(84.6235%,67.9011%,8.81056%,1)"/>
  <circle cx="5" cy="1" r="1" fill="srgba(100%,80.9766%,0%,1)"/>
  <circle cx="6" cy="1" r="1" fill="srgba(100%,79.9908%,0%,1)"/>
  <circle cx="7" cy="1" r="1" fill="srgba(255,204,0,1)"/>
  <circle cx="8" cy="1" r="1" fill="srgba(255,204,0,1)"/>
  <circle cx="9" cy="1" r="1" fill="srgba(255,204,0,1)"/>
  <circle cx="10" cy="1" r="1" fill="srgba(255,204,0,1)"/>
  <circle cx="11" cy="1" r="1" fill="srgba(255,204,0,1)"/>
  <circle cx="12" cy="1" r="1" fill="srgba(255,204,0,1)"/>
  <circle cx="13" cy="1" r="1" fill="srgba(255,204,0,1)"/>
  <circle cx="14" cy="1" r="1" fill="srgba(255,204,0,1)"/>
  <circle cx="15" cy="1" r="1" fill="srgba(255,204,0,1)"/>
  <circle cx="0" cy="2" r="1" fill="srgba(7.41131%,7.41131%,62.8901%,1)"/>
  <circle cx="1" cy="2" r="1" fill="srgba(23.2349%,23.2349%,69.2821%,1)"/>
  <circle cx="2" cy="2" r="1" fill="srgba(29.6239%,29.6315%,71.8898%,1)"/>
  <circle cx="3" cy="2" r="1" fill="srgba(37.7905%,38.0255%,76.2875%,1)"/>
  <circle cx="4" cy="2" r="1" fill="srgba(29.482%,24.6601%,47.7806%,1)"/>
  <circle cx="5" cy="2" r="1" fill="srgba(84.4297%,67.7317%,8.84565%,1)"/>
  <circle cx="6" cy="2" r="1" fill="srgba(100%,80.9796%,0%,1)"/>
  <circle cx="7" cy="2" r="1" fill="srgba(100%,79.9908%,0%,1)"/>
  <circle cx="8" cy="2" r="1" fill="srgba(255,204,0,1)"/>
  <circle cx="9" cy="2" r="1" fill="srgba(255,204,0,1)"/>
  <circle cx="10" cy="2" r="1" fill="srgba(255,204,0,1)"/>
  <circle cx="11" cy="2" r="1" fill="srgba(255,204,0,1)"/>
  <circle cx="12" cy="2" r="1" fill="srgba(255,204,0,1)"/>
  <circle cx="13" cy="2" r="1" fill="srgba(255,204,0,1)"/>
  <circle cx="14" cy="2" r="1" fill="srgba(255,204,0,1)"/>
  <circle cx="15" cy="2" r="1" fill="srgba(255,204,0,1)"/>
  <circle cx="0" cy="3" r="1" fill="srgba(0%,0%,59.8886%,1)"/>
  <circle cx="1" cy="3" r="1" fill="srgba(0%,0%,59.3225%,1)"/>
  <circle cx="2" cy="3" r="1" fill="srgba(36.643%,36.6415%,74.5663%,1)"/>
  <circle cx="3" cy="3" r="1" fill="srgba(64.9897%,64.9958%,86.0349%,1)"/>
  <circle cx="4" cy="3" r="1" fill="srgba(11.5496%,11.7052%,65.5299%,1)"/>
  <circle cx="5" cy="3" r="1" fill="srgba(26.5812%,21.7487%,46.5888%,1)"/>
  <circle cx="6" cy="3" r="1" fill="srgba(84.7227%,68.0247%,8.96468%,1)"/>
  <circle cx="7" cy="3" r="1" fill="srgba(100%,80.9644%,0%,1)"/>
  <circle cx="8" cy="3" r="1" fill="srgba(100%,79.9908%,0%,1)"/>
  <circle cx="9" cy="3" r="1" fill="srgba(255,204,0,1)"/>
  <circle cx="10" cy="3" r="1" fill="srgba(255,204,0,1)"/>
  <circle cx="11" cy="3" r="1" fill="srgba(255,204,0,1)"/>
  <circle cx="12" cy="3" r="1" fill="srgba(255,204,0,1)"/>
  <circle cx="13" cy="3" r="1" fill="srgba(255,204,0,1)"/>
  <circle cx="14" cy="3" r="1" fill="srgba(255,204,0,1)"/>
  <circle cx="15" cy="3" r="1" fill="srgba(255,204,0,1)"/>
  <circle cx="0" cy="4" r="1" fill="srgba(0%,0%,60.0015%,1)"/>
  <circle cx="1" cy="4" r="1" fill="srgba(0%,0%,59.9374%,1)"/>
  <circle cx="2" cy="4" r="1" fill="srgba(4.97749%,4.97749%,61.9165%,1)"/>
  <circle cx="3" cy="4" r="1" fill="srgba(11.6518%,11.6518%,64.6586%,1)"/>
  <circle cx="4" cy="4" r="1" fill="srgba(51.0903%,51.0979%,80.4761%,1)"/>
  <circle cx="5" cy="4" r="1" fill="srgba(43.0762%,43.3097%,78.4009%,1)"/>
  <circle cx="6" cy="4" r="1" fill="srgba(25.6931%,20.8713%,46.2684%,1)"/>
  <circle cx="7" cy="4" r="1" fill="srgba(84.5136%,67.8126%,8.88228%,1)"/>
  <circle cx="8" cy="4" r="1" fill="srgba(100%,80.9644%,0%,1)"/>
  <circle cx="9" cy="4" r="1" fill="srgba(100%,79.9908%,0%,1)"/>
  <circle cx="10" cy="4" r="1" fill="srgba(255,204,0,1)"/>
  <circle cx="11" cy="4" r="1" fill="srgba(255,204,0,1)"/>
  <circle cx="12" cy="4" r="1" fill="srgba(255,204,0,1)"/>
  <circle cx="13" cy="4" r="1" fill="srgba(255,204,0,1)"/>
  <circle cx="14" cy="4" r="1" fill="srgba(255,204,0,1)"/>
  <circle cx="15" cy="4" r="1" fill="srgba(255,204,0,1)"/>
  <circle cx="0" cy="5" r="1" fill="srgba(0,0,153,1)"/>
  <circle cx="1" cy="5" r="1" fill="srgba(0%,0%,60.0031%,1)"/>
  <circle cx="2" cy="5" r="1" fill="srgba(0%,0%,59.8276%,1)"/>
  <circle cx="3" cy="5" r="1" fill="srgba(1.55947%,1.55947%,60.4669%,1)"/>
  <circle cx="4" cy="5" r="1" fill="srgba(41.6159%,41.6159%,76.6278%,1)"/>
  <circle cx="5" cy="5" r="1" fill="srgba(38.9837%,38.9914%,75.6359%,1)"/>
  <circle cx="6" cy="5" r="1" fill="srgba(15.285%,15.5184%,67.2847%,1)"/>
  <circle cx="7" cy="5" r="1" fill="srgba(29.3797%,24.5655%,47.7516%,1)"/>
  <circle cx="8" cy="5" r="1" fill="srgba(84.8768%,68.1849%,9.03334%,1)"/>
  <circle cx="9" cy="5" r="1" fill="srgba(100%,80.9583%,0%,1)"/>
  <circle cx="10" cy="5" r="1" fill="srgba(100%,79.9908%,0%,1)"/>
  <circle cx="11" cy="5" r="1" fill="srgba(255,204,0,1)"/>
  <circle cx="12" cy="5" r="1" fill="srgba(255,204,0,1)"/>
  <circle cx="13" cy="5" r="1" fill="srgba(255,204,0,1)"/>
  <circle cx="14" cy="5" r="1" fill="srgba(255,204,0,1)"/>
  <circle cx="15" cy="5" r="1" fill="srgba(255,204,0,1)"/>
  <circle cx="0" cy="6" r="1" fill="srgba(0,0,153,1)"/>
  <circle cx="1" cy="6" r="1" fill="srgba(0,0,153,1)"/>
  <circle cx="2" cy="6" r="1" fill="srgba(0%,0%,59.9969%,1)"/>
  <circle cx="3" cy="6" r="1" fill="srgba(0.244144%,0.244144%,60.0977%,1)"/>
  <circle cx="4" cy="6" r="1" fill="srgba(0.677501%,0.677501%,60.1038%,1)"/>
  <circle cx="5" cy="6" r="1" fill="srgba(15.8526%,15.8526%,66.2135%,1)"/>
  <circle cx="6" cy="6" r="1" fill="srgba(73.1121%,73.1212%,89.3004%,1)"/>
  <circle cx="7" cy="6" r="1" fill="srgba(31.5801%,31.7952%,73.7133%,1)"/>
  <circle cx="8" cy="6" r="1" fill="srgba(23.5004%,18.677%,45.3239%,1)"/>
  <circle cx="9" cy="6" r="1" fill="srgba(84.4862%,67.7943%,8.88075%,1)"/>
  <circle cx="10" cy="6" r="1" fill="srgba(100%,80.9812%,0%,1)"/>
  <circle cx="11" cy="6" r="1" fill="srgba(100%,79.9908%,0%,1)"/>
  <circle cx="12" cy="6" r="1" fill="srgba(255,204,0,1)"/>
  <circle cx="13" cy="6" r="1" fill="srgba(255,204,0,1)"/>
  <circle cx="14" cy="6" r="1" fill="srgba(255,204,0,1)"/>
  <circle cx="15" cy="6" r="1" fill="srgba(255,204,0,1)"/>
  <circle cx="0" cy="7" r="1" fill="srgba(0,0,153,1)"/>
  <circle cx="1" cy="7" r="1" fill="srgba(0,0,153,1)"/>
  <circle cx="2" cy="7" r="1" fill="srgba(0,0,153,1)"/>
  <circle cx="3" cy="7" r="1" fill="srgba(0%,0%,59.9939%,1)"/>
  <circle cx="4" cy="7" r="1" fill="srgba(0%,0%,59.8245%,1)"/>
  <circle cx="5" cy="7" r="1" fill="srgba(5.47036%,5.47036%,62.1393%,1)"/>
  <circle cx="6" cy="7" r="1" fill="srgba(30.4005%,30.4005%,72.1538%,1)"/>
  <circle cx="7" cy="7" r="1" fill="srgba(26.7338%,26.7414%,70.7362%,1)"/>
  <circle cx="8" cy="7" r="1" fill="srgba(31.635%,31.8685%,73.8247%,1)"/>
  <circle cx="9" cy="7" r="1" fill="srgba(30.193%,25.3788%,48.0797%,1)"/>
  <circle cx="10" cy="7" r="1" fill="srgba(84.5243%,67.8325%,8.89296%,1)"/>
  <circle cx="11" cy="7" r="1" fill="srgba(100%,80.9766%,0%,1)"/>
  <circle cx="12" cy="7" r="1" fill="srgba(100%,79.9908%,0%,1)"/>
  <circle cx="13" cy="7" r="1" fill="srgba(255,204,0,1)"/>
  <circle cx="14" cy="7" r="1" fill="srgba(255,204,0,1)"/>
  <circle cx="15" cy="7" r="1" fill="srgba(255,204,0,1)"/>
  <circle cx="0" cy="8" r="1" fill="srgba(0,0,153,1)"/>
  <circle cx="1" cy="8" r="1" fill="srgba(0,0,153,1)"/>
  <circle cx="2" cy="8" r="1" fill="srgba(0,0,153,1)"/>
  <circle cx="3" cy="8" r="1" fill="srgba(0,0,153,1)"/>
  <circle cx="4" cy="8" r="1" fill="srgba(0,0,153,1)"/>
  <circle cx="5" cy="8" r="1" fill="srgba(0.077821%,0.077821%,59.9878%,1)"/>
  <circle cx="6" cy="8" r="1" fill="srgba(0,0,151,1)"/>
  <circle cx="7" cy="8" r="1" fill="srgba(30.8324%,30.8324%,72.1889%,1)"/>
  <circle cx="8" cy="8" r="1" fill="srgba(72.6848%,72.694%,89.1295%,1)"/>
  <circle cx="9" cy="8" r="1" fill="srgba(15.3826%,15.523%,67.0008%,1)"/>
  <circle cx="10" cy="8" r="1" fill="srgba(25.3208%,20.4776%,46.0395%,1)"/>
  <circle cx="11" cy="8" r="1" fill="srgba(84.593%,67.9011%,8.925%,1)"/>
  <circle cx="12" cy="8" r="1" fill="srgba(100%,80.9751%,0%,1)"/>
  <circle cx="13" cy="8" r="1" fill="srgba(100%,79.9908%,0%,1)"/>
  <circle cx="14" cy="8" r="1" fill="srgba(255,204,0,1)"/>
  <circle cx="15" cy="8" r="1" fill="srgba(255,204,0,1)"/>
  <circle cx="0" cy="9" r="1" fill="srgba(0,0,153,1)"/>
  <circle cx="1" cy="9" r="1" fill="srgba(0,0,153,1)"/>
  <circle cx="2" cy="9" r="1" fill="srgba(0,0,153,1)"/>
  <circle cx="3" cy="9" r="1" fill="srgba(0,0,153,1)"/>
  <circle cx="4" cy="9" r="1" fill="srgba(0,0,153,1)"/>
  <circle cx="5" cy="9" r="1" fill="srgba(0,0,153,1)"/>
  <circle cx="6" cy="9" r="1" fill="srgba(0%,0%,59.8657%,1)"/>
  <circle cx="7" cy="9" r="1" fill="srgba(6.32029%,6.32029%,62.4353%,1)"/>
  <circle cx="8" cy="9" r="1" fill="srgba(14.9203%,14.9203%,65.9648%,1)"/>
  <circle cx="9" cy="9" r="1" fill="srgba(40.6546%,40.6622%,76.3058%,1)"/>
  <circle cx="10" cy="9" r="1" fill="srgba(42.9511%,43.1861%,78.3551%,1)"/>
  <circle cx="11" cy="9" r="1" fill="srgba(27.3716%,22.5574%,46.9535%,1)"/>
  <circle cx="12" cy="9" r="1" fill="srgba(84.4511%,67.7531%,8.86702%,1)"/>
  <circle cx="13" cy="9" r="1" fill="srgba(100%,80.9735%,0%,1)"/>
  <circle cx="14" cy="9" r="1" fill="srgba(100%,79.9908%,0%,1)"/>
  <circle cx="15" cy="9" r="1" fill="srgba(255,204,0,1)"/>
  <circle cx="0" cy="10" r="1" fill="srgba(0,0,153,1)"/>
  <circle cx="1" cy="10" r="1" fill="srgba(0,0,153,1)"/>
  <circle cx="2" cy="10" r="1" fill="srgba(0,0,153,1)"/>
  <circle cx="3" cy="10" r="1" fill="srgba(0,0,153,1)"/>
  <circle cx="4" cy="10" r="1" fill="srgba(0,0,153,1)"/>
  <circle cx="5" cy="10" r="1" fill="srgba(0,0,153,1)"/>
  <circle cx="6" cy="10" r="1" fill="srgba(0%,0%,60.0076%,1)"/>
  <circle cx="7" cy="10" r="1" fill="srgba(0%,0%,59.8306%,1)"/>
  <circle cx="8" cy="10" r="1" fill="srgba(0.354009%,0.354009%,59.8703%,1)"/>
  <circle cx="9" cy="10" r="1" fill="srgba(41.6419%,41.6403%,76.6217%,1)"/>
  <circle cx="10" cy="10" r="1" fill="srgba(49.6208%,49.6269%,79.8871%,1)"/>
  <circle cx="11" cy="10" r="1" fill="srgba(11.2993%,11.5084%,65.655%,1)"/>
  <circle cx="12" cy="10" r="1" fill="srgba(28.3207%,23.5065%,47.3396%,1)"/>
  <circle cx="13" cy="10" r="1" fill="srgba(84.8493%,68.1575%,9.03029%,1)"/>
  <circle cx="14" cy="10" r="1" fill="srgba(100%,80.9491%,0%,1)"/>
  <circle cx="15" cy="10" r="1" fill="srgba(100%,79.9893%,0%,1)"/>
  <circle cx="0" cy="11" r="1" fill="srgba(0,0,153,1)"/>
  <circle cx="1" cy="11" r="1" fill="srgba(0,0,153,1)"/>
  <circle cx="2" cy="11" r="1" fill="srgba(0,0,153,1)"/>
  <circle cx="3" cy="11" r="1" fill="srgba(0,0,153,1)"/>
  <circle cx="4" cy="11" r="1" fill="srgba(0,0,153,1)"/>
  <circle cx="5" cy="11" r="1" fill="srgba(0,0,153,1)"/>
  <circle cx="6" cy="11" r="1" fill="srgba(0,0,153,1)"/>
  <circle cx="7" cy="11" r="1" fill="srgba(0,0,153,1)"/>
  <circle cx="8" cy="11" r="1" fill="srgba(0.161746%,0.161746%,60.0504%,1)"/>
  <circle cx="9" cy="11" r="1" fill="srgba(2.26749%,2.26749%,60.8392%,1)"/>
  <circle cx="10" cy="11" r="1" fill="srgba(12.1355%,12.1355%,64.8096%,1)"/>
  <circle cx="11" cy="11" r="1" fill="srgba(65.7923%,65.8%,86.3584%,1)"/>
  <circle cx="12" cy="11" r="1" fill="srgba(37.8592%,38.0926%,76.3027%,1)"/>
  <circle cx="13" cy="11" r="1" fill="srgba(23.8087%,18.9944%,45.5238%,1)"/>
  <circle cx="14" cy="11" r="1" fill="srgba(84.6204%,67.9026%,8.82277%,1)"/>
  <circle cx="15" cy="11" r="1" fill="srgba(100%,81.1048%,0%,1)"/>
  <circle cx="0" cy="12" r="1" fill="srgba(0,0,153,1)"/>
  <circle cx="1" cy="12" r="1" fill="srgba(0,0,153,1)"/>
  <circle cx="2" cy="12" r="1" fill="srgba(0,0,153,1)"/>
  <circle cx="3" cy="12" r="1" fill="srgba(0,0,153,1)"/>
  <circle cx="4" cy="12" r="1" fill="srgba(0,0,153,1)"/>
  <circle cx="5" cy="12" r="1" fill="srgba(0,0,153,1)"/>
  <circle cx="6" cy="12" r="1" fill="srgba(0,0,153,1)"/>
  <circle cx="7" cy="12" r="1" fill="srgba(0,0,153,1)"/>
  <circle cx="8" cy="12" r="1" fill="srgba(0%,0%,59.9954%,1)"/>
  <circle cx="9" cy="12" r="1" fill="srgba(0%,0%,59.8322%,1)"/>
  <circle cx="10" cy="12" r="1" fill="srgba(3.89105%,3.89105%,61.4923%,1)"/>
  <circle cx="11" cy="12" r="1" fill="srgba(36.4965%,36.4965%,74.5907%,1)"/>
  <circle cx="12" cy="12" r="1" fill="srgba(28.6%,28.6076%,71.4794%,1)"/>
  <circle cx="13" cy="12" r="1" fill="srgba(24.6052%,24.8402%,71.0124%,1)"/>
  <circle cx="14" cy="12" r="1" fill="srgba(30.7866%,25.864%,47.7424%,1)"/>
  <circle cx="15" cy="12" r="1" fill="srgba(82.5864%,66.1662%,10.2037%,1)"/>
  <circle cx="0" cy="13" r="1" fill="srgba(0,0,153,1)"/>
  <circle cx="1" cy="13" r="1" fill="srgba(0,0,153,1)"/>
  <circle cx="2" cy="13" r="1" fill="srgba(0,0,153,1)"/>
  <circle cx="3" cy="13" r="1" fill="srgba(0,0,153,1)"/>
  <circle cx="4" cy="13" r="1" fill="srgba(0,0,153,1)"/>
  <circle cx="5" cy="13" r="1" fill="srgba(0,0,153,1)"/>
  <circle cx="6" cy="13" r="1" fill="srgba(0,0,153,1)"/>
  <circle cx="7" cy="13" r="1" fill="srgba(0,0,153,1)"/>
  <circle cx="8" cy="13" r="1" fill="srgba(0,0,153,1)"/>
  <circle cx="9" cy="13" r="1" fill="srgba(0%,0%,59.9954%,1)"/>
  <circle cx="10" cy="13" r="1" fill="srgba(0.177005%,0.177005%,60.0656%,1)"/>
  <circle cx="11" cy="13" r="1" fill="srgba(0%,0%,59.3866%,1)"/>
  <circle cx="12" cy="13" r="1" fill="srgba(24.3015%,24.3%,69.5369%,1)"/>
  <circle cx="13" cy="13" r="1" fill="srgba(76.26%,76.2707%,90.5653%,1)"/>
  <circle cx="14" cy="13" r="1" fill="srgba(21.7838%,21.8326%,69.0578%,1)"/>
  <circle cx="15" cy="13" r="1" fill="srgba(18.3322%,14.7143%,49.2897%,1)"/>
  <circle cx="0" cy="14" r="1" fill="srgba(0,0,153,1)"/>
  <circle cx="1" cy="14" r="1" fill="srgba(0,0,153,1)"/>
  <circle cx="2" cy="14" r="1" fill="srgba(0,0,153,1)"/>
  <circle cx="3" cy="14" r="1" fill="srgba(0,0,153,1)"/>
  <circle cx="4" cy="14" r="1" fill="srgba(0,0,153,1)"/>
  <circle cx="5" cy="14" r="1" fill="srgba(0,0,153,1)"/>
  <circle cx="6" cy="14" r="1" fill="srgba(0,0,153,1)"/>
  <circle cx="7" cy="14" r="1" fill="srgba(0,0,153,1)"/>
  <circle cx="8" cy="14" r="1" fill="srgba(0,0,153,1)"/>
  <circle cx="9" cy="14" r="1" fill="srgba(0,0,153,1)"/>
  <circle cx="10" cy="14" r="1" fill="srgba(0%,0%,59.9969%,1)"/>
  <circle cx="11" cy="14" r="1" fill="srgba(0%,0%,59.8291%,1)"/>
  <circle cx="12" cy="14" r="1" fill="srgba(6.6453%,6.6453%,62.5711%,1)"/>
  <circle cx="13" cy="14" r="1" fill="srgba(20.3342%,20.3342%,68.1239%,1)"/>
  <circle cx="14" cy="14" r="1" fill="srgba(32.0012%,32.0058%,72.8237%,1)"/>
  <circle cx="15" cy="14" r="1" fill="srgba(43.8285%,43.9933%,78.352%,1)"/>
  <circle cx="0" cy="15" r="1" fill="srgba(0,0,153,1)"/>
  <circle cx="1" cy="15" r="1" fill="srgba(0,0,153,1)"/>
  <circle cx="2" cy="15" r="1" fill="srgba(0,0,153,1)"/>
  <circle cx="3" cy="15" r="1" fill="srgba(0,0,153,1)"/>
  <circle cx="4" cy="15" r="1" fill="srgba(0,0,153,1)"/>
  <circle cx="5" cy="15" r="1" fill="srgba(0,0,153,1)"/>
  <circle cx="6" cy="15" r="1" fill="srgba(0,0,153,1)"/>
  <circle cx="7" cy="15" r="1" fill="srgba(0,0,153,1)"/>
  <circle cx="8" cy="15" r="1" fill="srgba(0,0,153,1)"/>
  <circle cx="9" cy="15" r="1" fill="srgba(0,0,153,1)"/>
  <circle cx="10" cy="15" r="1" fill="srgba(0,0,153,1)"/>
  <circle cx="11" cy="15" r="1" fill="srgba(0%,0%,60.0076%,1)"/>
  <circle cx="12" cy="15" r="1" fill="srgba(0%,0%,59.8535%,1)"/>
  <circle cx="13" cy="15" r="1" fill="srgba(0%,0%,59.3439%,1)"/>
  <circle cx="14" cy="15" r="1" fill="srgba(42.7543%,42.7543%,77.0245%,1)"/>
  <circle cx="15" cy="15" r="1" fill="srgba(76.3226%,76.3226%,90.5348%,1)"/>
</svg>
