<?xml version="1.0" standalone="no"?>
<!DOCTYPE svg PUBLIC "-//W3C//DTD SVG 20010904//EN"
  "http://www.w3.org/TR/2001/REC-SVG-20010904/DTD/svg10.dtd">
<svg width="16" height="16">
  <circle cx="0" cy="0" r="1" fill="srgba(0,38,127,1)"/>
  <circle cx="1" cy="0" r="1" fill="srgba(0,38,127,1)"/>
  <circle cx="2" cy="0" r="1" fill="srgba(0,38,127,1)"/>
  <circle cx="3" cy="0" r="1" fill="srgba(0%,14.8745%,49.8192%,1)"/>
  <circle cx="4" cy="0" r="1" fill="srgba(0.447089%,15.1827%,49.6498%,1)"/>
  <circle cx="5" cy="0" r="1" fill="srgba(64.5243%,55.6344%,27.2908%,1)"/>
  <circle cx="6" cy="0" r="1" fill="srgba(100%,79.1379%,14.2947%,1)"/>
  <circle cx="7" cy="0" r="1" fill="srgba(255,199,38,1)"/>
  <circle cx="8" cy="0" r="1" fill="srgba(255,199,38,1)"/>
  <circle cx="9" cy="0" r="1" fill="srgba(100%,79.1379%,14.2947%,1)"/>
  <circle cx="10" cy="0" r="1" fill="srgba(64.535%,55.6451%,27.2801%,1)"/>
  <circle cx="11" cy="0" r="1" fill="srgba(0.448615%,15.1843%,49.6468%,1)"/>
  <circle cx="12" cy="0" r="1" fill="srgba(0%,14.8745%,49.8192%,1)"/>
  <circle cx="13" cy="0" r="1" fill="srgba(0,38,127,1)"/>
  <circle cx="14" cy="0" r="1" fill="srgba(0,38,127,1)"/>
  <circle cx="15" cy="0" r="1" fill="srgba(0,38,127,1)"/>
  <circle cx="0" cy="1" r="1" fill="srgba(0,38,127,1)"/>
  <circle cx="1" cy="1" r="1" fill="srgba(0,38,127,1)"/>
  <circle cx="2" cy="1" r="1" fill="srgba(0,38,127,1)"/>
  <circle cx="3" cy="1" r="1" fill="srgba(0%,14.8745%,49.8192%,1)"/>
  <circle cx="4" cy="1" r="1" fill="srgba(0.447089%,15.1827%,49.6498%,1)"/>
  <circle cx="5" cy="1" r="1" fill="srgba(64.5243%,55.6344%,27.2908%,1)"/>
  <circle cx="6" cy="1" r="1" fill="srgba(100%,79.1379%,14.2947%,1)"/>
  <circle cx="7" cy="1" r="1" fill="srgba(255,199,38,1)"/>
  <circle cx="8" cy="1" r="1" fill="srgba(255,199,38,1)"/>
  <circle cx="9" cy="1" r="1" fill="srgba(100%,79.1379%,14.2947%,1)"/>
  <circle cx="10" cy="1" r="1" fill="srgba(64.535%,55.6451%,27.2801%,1)"/>
  <circle cx="11" cy="1" r="1" fill="srgba(0.448615%,15.1843%,49.6468%,1)"/>
  <circle cx="12" cy="1" r="1" fill="srgba(0%,14.8745%,49.8192%,1)"/>
  <circle cx="13" cy="1" r="1" fill="srgba(0,38,127,1)"/>
  <circle cx="14" cy="1" r="1" fill="srgba(0,38,127,1)"/>
  <circle cx="15" cy="1" r="1" fill="srgba(0,38,127,1)"/>
  <circle cx="0" cy="2" r="1" fill="srgba(0,38,127,1)"/>
  <circle cx="1" cy="2" r="1" fill="srgba(0,38,127,1)"/>
  <circle cx="2" cy="2" r="1" fill="srgba(0,38,127,1)"/>
  <circle cx="3" cy="2" r="1" fill="srgba(0%,14.8745%,49.8192%,1)"/>
  <circle cx="4" cy="2" r="1" fill="srgba(0.447089%,15.1827%,49.6498%,1)"/>
  <circle cx="5" cy="2" r="1" fill="srgba(64.5243%,55.6344%,27.2908%,1)"/>
  <circle cx="6" cy="2" r="1" fill="srgba(100%,79.1379%,14.2947%,1)"/>
  <circle cx="7" cy="2" r="1" fill="srgba(255,199,38,1)"/>
  <circle cx="8" cy="2" r="1" fill="srgba(255,199,38,1)"/>
  <circle cx="9" cy="2" r="1" fill="srgba(100%,79.1379%,14.2947%,1)"/>
  <circle cx="10" cy="2" r="1" fill="srgba(64.535%,55.6451%,27.2801%,1)"/>
  <circle cx="11" cy="2" r="1" fill="srgba(0.448615%,15.1843%,49.6468%,1)"/>
  <circle cx="12" cy="2" r="1" fill="srgba(0%,14.8745%,49.8192%,1)"/>
  <circle cx="13" cy="2" r="1" fill="srgba(0,38,127,1)"/>
  <circle cx="14" cy="2" r="1" fill="srgba(0,38,127,1)"/>
  <circle cx="15" cy="2" r="1" fill="srgba(0,38,127,1)"/>
  <circle cx="0" cy="3" r="1" fill="srgba(0,38,127,1)"/>
  <circle cx="1" cy="3" r="1" fill="srgba(0,38,127,1)"/>
  <circle cx="2" cy="3" r="1" fill="srgba(0,38,127,1)"/>
  <circle cx="3" cy="3" r="1" fill="srgba(0%,14.8745%,49.8192%,1)"/>
  <circle cx="4" cy="3" r="1" fill="srgba(0.447089%,15.1827%,49.6498%,1)"/>
  <circle cx="5" cy="3" r="1" fill="srgba(64.5243%,55.6344%,27.2908%,1)"/>
  <circle cx="6" cy="3" r="1" fill="srgba(100%,79.1379%,14.2947%,1)"/>
  <circle cx="7" cy="3" r="1" fill="srgba(100%,78.0407%,14.902%,1)"/>
  <circle cx="8" cy="3" r="1" fill="srgba(100%,78.0407%,14.902%,1)"/>
  <circle cx="9" cy="3" r="1" fill="srgba(100%,79.1379%,14.2947%,1)"/>
  <circle cx="10" cy="3" r="1" fill="srgba(64.535%,55.6451%,27.2801%,1)"/>
  <circle cx="11" cy="3" r="1" fill="srgba(0.448615%,15.1843%,49.6468%,1)"/>
  <circle cx="12" cy="3" r="1" fill="srgba(0%,14.8745%,49.8192%,1)"/>
  <circle cx="13" cy="3" r="1" fill="srgba(0,38,127,1)"/>
  <circle cx="14" cy="3" r="1" fill="srgba(0,38,127,1)"/>
  <circle cx="15" cy="3" r="1" fill="srgba(0,38,127,1)"/>
  <circle cx="0" cy="4" r="1" fill="srgba(0,38,127,1)"/>
  <circle cx="1" cy="4" r="1" fill="srgba(0,38,127,1)"/>
  <circle cx="2" cy="4" r="1" fill="srgba(0,38,127,1)"/>
  <circle cx="3" cy="4" r="1" fill="srgba(0%,14.8745%,49.8192%,1)"/>
  <circle cx="4" cy="4" r="1" fill="srgba(0.447089%,15.1797%,49.6483%,1)"/>
  <circle cx="5" cy="4" r="1" fill="srgba(64.5243%,55.6817%,27.2999%,1)"/>
  <circle cx="6" cy="4" r="1" fill="srgba(100%,80.0916%,14.4762%,1)"/>
  <circle cx="7" cy="4" r="1" fill="srgba(100%,78.9944%,15.0835%,1)"/>
  <circle cx="8" cy="4" r="1" fill="srgba(100%,78.9944%,15.0835%,1)"/>
  <circle cx="9" cy="4" r="1" fill="srgba(100%,80.0916%,14.4762%,1)"/>
  <circle cx="10" cy="4" r="1" fill="srgba(64.535%,55.6924%,27.2892%,1)"/>
  <circle cx="11" cy="4" r="1" fill="srgba(0.448615%,15.1812%,49.6468%,1)"/>
  <circle cx="12" cy="4" r="1" fill="srgba(0%,14.8745%,49.8192%,1)"/>
  <circle cx="13" cy="4" r="1" fill="srgba(0,38,127,1)"/>
  <circle cx="14" cy="4" r="1" fill="srgba(0,38,127,1)"/>
  <circle cx="15" cy="4" r="1" fill="srgba(0,38,127,1)"/>
  <circle cx="0" cy="5" r="1" fill="srgba(0,38,127,1)"/>
  <circle cx="1" cy="5" r="1" fill="srgba(0,38,127,1)"/>
  <circle cx="2" cy="5" r="1" fill="srgba(0,38,127,1)"/>
  <circle cx="3" cy="5" r="1" fill="srgba(0%,14.8745%,49.8192%,1)"/>
  <circle cx="4" cy="5" r="1" fill="srgba(0.52491%,15.2438%,49.6605%,1)"/>
  <circle cx="5" cy="5" r="1" fill="srgba(63.4424%,54.7906%,27.129%,1)"/>
  <circle cx="6" cy="5" r="1" fill="srgba(71.6289%,55.639%,9.80697%,1)"/>
  <circle cx="7" cy="5" r="1" fill="srgba(48.3513%,37.734%,7.20378%,1)"/>
  <circle cx="8" cy="5" r="1" fill="srgba(48.3497%,37.734%,7.20378%,1)"/>
  <circle cx="9" cy="5" r="1" fill="srgba(71.6396%,55.6481%,9.8085%,1)"/>
  <circle cx="10" cy="5" r="1" fill="srgba(63.4592%,54.8043%,27.1199%,1)"/>
  <circle cx="11" cy="5" r="1" fill="srgba(0.526436%,15.2453%,49.659%,1)"/>
  <circle cx="12" cy="5" r="1" fill="srgba(0%,14.8745%,49.8192%,1)"/>
  <circle cx="13" cy="5" r="1" fill="srgba(0,38,127,1)"/>
  <circle cx="14" cy="5" r="1" fill="srgba(0,38,127,1)"/>
  <circle cx="15" cy="5" r="1" fill="srgba(0,38,127,1)"/>
  <circle cx="0" cy="6" r="1" fill="srgba(0,38,127,1)"/>
  <circle cx="1" cy="6" r="1" fill="srgba(0,38,127,1)"/>
  <circle cx="2" cy="6" r="1" fill="srgba(0,38,127,1)"/>
  <circle cx="3" cy="6" r="1" fill="srgba(0%,14.8745%,49.8192%,1)"/>
  <circle cx="4" cy="6" r="1" fill="srgba(0.788891%,15.4498%,49.7002%,1)"/>
  <circle cx="5" cy="6" r="1" fill="srgba(59.0127%,51.3329%,26.4683%,1)"/>
  <circle cx="6" cy="6" r="1" fill="srgba(38.3948%,29.7032%,4.85542%,1)"/>
  <circle cx="7" cy="6" r="1" fill="srgba(17.5998%,13.7346%,2.62303%,1)"/>
  <circle cx="8" cy="6" r="1" fill="srgba(17.5952%,13.7316%,2.62303%,1)"/>
  <circle cx="9" cy="6" r="1" fill="srgba(38.4222%,29.7261%,4.86%,1)"/>
  <circle cx="10" cy="6" r="1" fill="srgba(59.0372%,51.3542%,26.4607%,1)"/>
  <circle cx="11" cy="6" r="1" fill="srgba(0.791943%,15.4513%,49.6986%,1)"/>
  <circle cx="12" cy="6" r="1" fill="srgba(0%,14.8745%,49.8192%,1)"/>
  <circle cx="13" cy="6" r="1" fill="srgba(0,38,127,1)"/>
  <circle cx="14" cy="6" r="1" fill="srgba(0,38,127,1)"/>
  <circle cx="15" cy="6" r="1" fill="srgba(0,38,127,1)"/>
  <circle cx="0" cy="7" r="1" fill="srgba(0,38,127,1)"/>
  <circle cx="1" cy="7" r="1" fill="srgba(0,38,127,1)"/>
  <circle cx="2" cy="7" r="1" fill="srgba(0,38,127,1)"/>
  <circle cx="3" cy="7" r="1" fill="srgba(0%,14.8745%,49.8192%,1)"/>
  <circle cx="4" cy="7" r="1" fill="srgba(0.471504%,15.2026%,49.6529%,1)"/>
  <circle cx="5" cy="7" r="1" fill="srgba(64.6799%,55.7549%,27.3136%,1)"/>
  <circle cx="6" cy="7" r="1" fill="srgba(62.7451%,48.7053%,8.48402%,1)"/>
  <circle cx="7" cy="7" r="1" fill="srgba(23.1632%,18.0758%,3.45006%,1)"/>
  <circle cx="8" cy="7" r="1" fill="srgba(23.1785%,18.088%,3.45312%,1)"/>
  <circle cx="9" cy="7" r="1" fill="srgba(62.7588%,48.719%,8.48554%,1)"/>
  <circle cx="10" cy="7" r="1" fill="srgba(64.6921%,55.7671%,27.303%,1)"/>
  <circle cx="11" cy="7" r="1" fill="srgba(0.474556%,15.2041%,49.6513%,1)"/>
  <circle cx="12" cy="7" r="1" fill="srgba(0%,14.8745%,49.8192%,1)"/>
  <circle cx="13" cy="7" r="1" fill="srgba(0,38,127,1)"/>
  <circle cx="14" cy="7" r="1" fill="srgba(0,38,127,1)"/>
  <circle cx="15" cy="7" r="1" fill="srgba(0,38,127,1)"/>
  <circle cx="0" cy="8" r="1" fill="srgba(0,38,127,1)"/>
  <circle cx="1" cy="8" r="1" fill="srgba(0,38,127,1)"/>
  <circle cx="2" cy="8" r="1" fill="srgba(0,38,127,1)"/>
  <circle cx="3" cy="8" r="1" fill="srgba(0%,14.8745%,49.8192%,1)"/>
  <circle cx="4" cy="8" r="1" fill="srgba(0.447089%,15.1812%,49.6498%,1)"/>
  <circle cx="5" cy="8" r="1" fill="srgba(64.9073%,55.9472%,27.3503%,1)"/>
  <circle cx="6" cy="8" r="1" fill="srgba(71.7693%,55.9411%,9.86191%,1)"/>
  <circle cx="7" cy="8" r="1" fill="srgba(57.9889%,45.2979%,8.64576%,1)"/>
  <circle cx="8" cy="8" r="1" fill="srgba(58.0041%,45.3101%,8.64729%,1)"/>
  <circle cx="9" cy="8" r="1" fill="srgba(71.7861%,55.9548%,9.86343%,1)"/>
  <circle cx="10" cy="8" r="1" fill="srgba(64.9165%,55.9579%,27.3396%,1)"/>
  <circle cx="11" cy="8" r="1" fill="srgba(0.448615%,15.1843%,49.6468%,1)"/>
  <circle cx="12" cy="8" r="1" fill="srgba(0%,14.8745%,49.8192%,1)"/>
  <circle cx="13" cy="8" r="1" fill="srgba(0,38,127,1)"/>
  <circle cx="14" cy="8" r="1" fill="srgba(0,38,127,1)"/>
  <circle cx="15" cy="8" r="1" fill="srgba(0,38,127,1)"/>
  <circle cx="0" cy="9" r="1" fill="srgba(0,38,127,1)"/>
  <circle cx="1" cy="9" r="1" fill="srgba(0,38,127,1)"/>
  <circle cx="2" cy="9" r="1" fill="srgba(0,38,127,1)"/>
  <circle cx="3" cy="9" r="1" fill="srgba(0%,14.8745%,49.8192%,1)"/>
  <circle cx="4" cy="9" r="1" fill="srgba(0.447089%,15.1827%,49.6498%,1)"/>
  <circle cx="5" cy="9" r="1" fill="srgba(64.593%,55.6832%,27.2999%,1)"/>
  <circle cx="6" cy="9" r="1" fill="srgba(89.4743%,69.6162%,12.4743%,1)"/>
  <circle cx="7" cy="9" r="1" fill="srgba(96.5988%,75.4726%,14.4106%,1)"/>
  <circle cx="8" cy="9" r="1" fill="srgba(96.5988%,75.4726%,14.4106%,1)"/>
  <circle cx="9" cy="9" r="1" fill="srgba(89.4804%,69.6208%,12.4758%,1)"/>
  <circle cx="10" cy="9" r="1" fill="srgba(64.6036%,55.6939%,27.2892%,1)"/>
  <circle cx="11" cy="9" r="1" fill="srgba(0.448615%,15.1843%,49.6468%,1)"/>
  <circle cx="12" cy="9" r="1" fill="srgba(0%,14.8745%,49.8192%,1)"/>
  <circle cx="13" cy="9" r="1" fill="srgba(0,38,127,1)"/>
  <circle cx="14" cy="9" r="1" fill="srgba(0,38,127,1)"/>
  <circle cx="15" cy="9" r="1" fill="srgba(0,38,127,1)"/>
  <circle cx="0" cy="10" r="1" fill="srgba(0,38,127,1)"/>
  <circle cx="1" cy="10" r="1" fill="srgba(0,38,127,1)"/>
  <circle cx="2" cy="10" r="1" fill="srgba(0,38,127,1)"/>
  <circle cx="3" cy="10" r="1" fill="srgba(0%,14.8745%,49.8192%,1)"/>
  <circle cx="4" cy="10" r="1" fill="srgba(0.447089%,15.1827%,49.6498%,1)"/>
  <circle cx="5" cy="10" r="1" fill="srgba(64.5243%,55.6329%,27.2908%,1)"/>
  <circle cx="6" cy="10" r="1" fill="srgba(100%,79.379%,14.3404%,1)"/>
  <circle cx="7" cy="10" r="1" fill="srgba(100%,78.1262%,14.9187%,1)"/>
  <circle cx="8" cy="10" r="1" fill="srgba(100%,78.1262%,14.9187%,1)"/>
  <circle cx="9" cy="10" r="1" fill="srgba(100%,79.3774%,14.3404%,1)"/>
  <circle cx="10" cy="10" r="1" fill="srgba(64.535%,55.6435%,27.2801%,1)"/>
  <circle cx="11" cy="10" r="1" fill="srgba(0.448615%,15.1843%,49.6468%,1)"/>
  <circle cx="12" cy="10" r="1" fill="srgba(0%,14.8745%,49.8192%,1)"/>
  <circle cx="13" cy="10" r="1" fill="srgba(0,38,127,1)"/>
  <circle cx="14" cy="10" r="1" fill="srgba(0,38,127,1)"/>
  <circle cx="15" cy="10" r="1" fill="srgba(0,38,127,1)"/>
  <circle cx="0" cy="11" r="1" fill="srgba(0,38,127,1)"/>
  <circle cx="1" cy="11" r="1" fill="srgba(0,38,127,1)"/>
  <circle cx="2" cy="11" r="1" fill="srgba(0,38,127,1)"/>
  <circle cx="3" cy="11" r="1" fill="srgba(0%,14.8745%,49.8192%,1)"/>
  <circle cx="4" cy="11" r="1" fill="srgba(0.447089%,15.1827%,49.6498%,1)"/>
  <circle cx="5" cy="11" r="1" fill="srgba(64.5243%,55.6344%,27.2908%,1)"/>
  <circle cx="6" cy="11" r="1" fill="srgba(100%,79.1379%,14.2947%,1)"/>
  <circle cx="7" cy="11" r="1" fill="srgba(255,199,38,1)"/>
  <circle cx="8" cy="11" r="1" fill="srgba(255,199,38,1)"/>
  <circle cx="9" cy="11" r="1" fill="srgba(100%,79.1379%,14.2947%,1)"/>
  <circle cx="10" cy="11" r="1" fill="srgba(64.535%,55.6451%,27.2801%,1)"/>
  <circle cx="11" cy="11" r="1" fill="srgba(0.448615%,15.1843%,49.6468%,1)"/>
  <circle cx="12" cy="11" r="1" fill="srgba(0%,14.8745%,49.8192%,1)"/>
  <circle cx="13" cy="11" r="1" fill="srgba(0,38,127,1)"/>
  <circle cx="14" cy="11" r="1" fill="srgba(0,38,127,1)"/>
  <circle cx="15" cy="11" r="1" fill="srgba(0,38,127,1)"/>
  <circle cx="0" cy="12" r="1" fill="srgba(0,38,127,1)"/>
  <circle cx="1" cy="12" r="1" fill="srgba(0,38,127,1)"/>
  <circle cx="2" cy="12" r="1" fill="srgba(0,38,127,1)"/>
  <circle cx="3" cy="12" r="1" fill="srgba(0%,14.8745%,49.8192%,1)"/>
  <circle cx="4" cy="12" r="1" fill="srgba(0.447089%,15.1827%,49.6498%,1)"/>
  <circle cx="5" cy="12" r="1" fill="srgba(64.5243%,55.6344%,27.2908%,1)"/>
  <circle cx="6" cy="12" r="1" fill="srgba(100%,79.1379%,14.2947%,1)"/>
  <circle cx="7" cy="12" r="1" fill="srgba(255,199,38,1)"/>
  <circle cx="8" cy="12" r="1" fill="srgba(255,199,38,1)"/>
  <circle cx="9" cy="12" r="1" fill="srgba(100%,79.1379%,14.2947%,1)"/>
  <circle cx="10" cy="12" r="1" fill="srgba(64.535%,55.6451%,27.2801%,1)"/>
  <circle cx="11" cy="12" r="1" fill="srgba(0.448615%,15.1843%,49.6468%,1)"/>
  <circle cx="12" cy="12" r="1" fill="srgba(0%,14.8745%,49.8192%,1)"/>
  <circle cx="13" cy="12" r="1" fill="srgba(0,38,127,1)"/>
  <circle cx="14" cy="12" r="1" fill="srgba(0,38,127,1)"/>
  <circle cx="15" cy="12" r="1" fill="srgba(0,38,127,1)"/>
  <circle cx="0" cy="13" r="1" fill="srgba(0,38,127,1)"/>
  <circle cx="1" cy="13" r="1" fill="srgba(0,38,127,1)"/>
  <circle cx="2" cy="13" r="1" fill="srgba(0,38,127,1)"/>
  <circle cx="3" cy="13" r="1" fill="srgba(0%,14.8745%,49.8192%,1)"/>
  <circle cx="4" cy="13" r="1" fill="srgba(0.447089%,15.1827%,49.6498%,1)"/>
  <circle cx="5" cy="13" r="1" fill="srgba(64.5243%,55.6344%,27.2908%,1)"/>
  <circle cx="6" cy="13" r="1" fill="srgba(100%,79.1379%,14.2947%,1)"/>
  <circle cx="7" cy="13" r="1" fill="srgba(255,199,38,1)"/>
  <circle cx="8" cy="13" r="1" fill="srgba(255,199,38,1)"/>
  <circle cx="9" cy="13" r="1" fill="srgba(100%,79.1379%,14.2947%,1)"/>
  <circle cx="10" cy="13" r="1" fill="srgba(64.535%,55.6451%,27.2801%,1)"/>
  <circle cx="11" cy="13" r="1" fill="srgba(0.448615%,15.1843%,49.6468%,1)"/>
  <circle cx="12" cy="13" r="1" fill="srgba(0%,14.8745%,49.8192%,1)"/>
  <circle cx="13" cy="13" r="1" fill="srgba(0,38,127,1)"/>
  <circle cx="14" cy="13" r="1" fill="srgba(0,38,127,1)"/>
  <circle cx="15" cy="13" r="1" fill="srgba(0,38,127,1)"/>
  <circle cx="0" cy="14" r="1" fill="srgba(0,38,127,1)"/>
  <circle cx="1" cy="14" r="1" fill="srgba(0,38,127,1)"/>
  <circle cx="2" cy="14" r="1" fill="srgba(0,38,127,1)"/>
  <circle cx="3" cy="14" r="1" fill="srgba(0%,14.8745%,49.8192%,1)"/>
  <circle cx="4" cy="14" r="1" fill="srgba(0.447089%,15.1827%,49.6498%,1)"/>
  <circle cx="5" cy="14" r="1" fill="srgba(64.5243%,55.6344%,27.2908%,1)"/>
  <circle cx="6" cy="14" r="1" fill="srgba(100%,79.1379%,14.2947%,1)"/>
  <circle cx="7" cy="14" r="1" fill="srgba(255,199,38,1)"/>
  <circle cx="8" cy="14" r="1" fill="srgba(255,199,38,1)"/>
  <circle cx="9" cy="14" r="1" fill="srgba(100%,79.1379%,14.2947%,1)"/>
  <circle cx="10" cy="14" r="1" fill="srgba(64.535%,55.6451%,27.2801%,1)"/>
  <circle cx="11" cy="14" r="1" fill="srgba(0.448615%,15.1843%,49.6468%,1)"/>
  <circle cx="12" cy="14" r="1" fill="srgba(0%,14.8745%,49.8192%,1)"/>
  <circle cx="13" cy="14" r="1" fill="srgba(0,38,127,1)"/>
  <circle cx="14" cy="14" r="1" fill="srgba(0,38,127,1)"/>
  <circle cx="15" cy="14" r="1" fill="srgba(0,38,127,1)"/>
  <circle cx="0" cy="15" r="1" fill="srgba(0,38,127,1)"/>
  <circle cx="1" cy="15" r="1" fill="srgba(0,38,127,1)"/>
  <circle cx="2" cy="15" r="1" fill="srgba(0,38,127,1)"/>
  <circle cx="3" cy="15" r="1" fill="srgba(0%,14.8745%,49.8192%,1)"/>
  <circle cx="4" cy="15" r="1" fill="srgba(0.447089%,15.1827%,49.6498%,1)"/>
  <circle cx="5" cy="15" r="1" fill="srgba(64.5243%,55.6344%,27.2908%,1)"/>
  <circle cx="6" cy="15" r="1" fill="srgba(100%,79.1379%,14.2947%,1)"/>
  <circle cx="7" cy="15" r="1" fill="srgba(255,199,38,1)"/>
  <circle cx="8" cy="15" r="1" fill="srgba(255,199,38,1)"/>
  <circle cx="9" cy="15" r="1" fill="srgba(100%,79.1379%,14.2947%,1)"/>
  <circle cx="10" cy="15" r="1" fill="srgba(64.535%,55.6451%,27.2801%,1)"/>
  <circle cx="11" cy="15" r="1" fill="srgba(0.448615%,15.1843%,49.6468%,1)"/>
  <circle cx="12" cy="15" r="1" fill="srgba(0%,14.8745%,49.8192%,1)"/>
  <circle cx="13" cy="15" r="1" fill="srgba(0,38,127,1)"/>
  <circle cx="14" cy="15" r="1" fill="srgba(0,38,127,1)"/>
  <circle cx="15" cy="15" r="1" fill="srgba(0,38,127,1)"/>
</svg>
