<?xml version="1.0" standalone="no"?>
<!DOCTYPE svg PUBLIC "-//W3C//DTD SVG 20010904//EN"
  "http://www.w3.org/TR/2001/REC-SVG-20010904/DTD/svg10.dtd">
<svg width="16" height="16">
  <circle cx="0" cy="0" r="1" fill="srgba(0,106,78,1)"/>
  <circle cx="1" cy="0" r="1" fill="srgba(0,106,78,1)"/>
  <circle cx="2" cy="0" r="1" fill="srgba(0,106,78,1)"/>
  <circle cx="3" cy="0" r="1" fill="srgba(0,106,78,1)"/>
  <circle cx="4" cy="0" r="1" fill="srgba(0,106,78,1)"/>
  <circle cx="5" cy="0" r="1" fill="srgba(0,106,78,1)"/>
  <circle cx="6" cy="0" r="1" fill="srgba(0,106,78,1)"/>
  <circle cx="7" cy="0" r="1" fill="srgba(0,106,78,1)"/>
  <circle cx="8" cy="0" r="1" fill="srgba(0,106,78,1)"/>
  <circle cx="9" cy="0" r="1" fill="srgba(0,106,78,1)"/>
  <circle cx="10" cy="0" r="1" fill="srgba(0,106,78,1)"/>
  <circle cx="11" cy="0" r="1" fill="srgba(0,106,78,1)"/>
  <circle cx="12" cy="0" r="1" fill="srgba(0,106,78,1)"/>
  <circle cx="13" cy="0" r="1" fill="srgba(0,106,78,1)"/>
  <circle cx="14" cy="0" r="1" fill="srgba(0,106,78,1)"/>
  <circle cx="15" cy="0" r="1" fill="srgba(0,106,78,1)"/>
  <circle cx="0" cy="1" r="1" fill="srgba(0,106,78,1)"/>
  <circle cx="1" cy="1" r="1" fill="srgba(0,106,78,1)"/>
  <circle cx="2" cy="1" r="1" fill="srgba(0,106,78,1)"/>
  <circle cx="3" cy="1" r="1" fill="srgba(0%,41.5671%,30.5882%,1)"/>
  <circle cx="4" cy="1" r="1" fill="srgba(0%,41.5961%,30.5943%,1)"/>
  <circle cx="5" cy="1" r="1" fill="srgba(0%,41.8067%,30.6371%,1)"/>
  <circle cx="6" cy="1" r="1" fill="srgba(0%,41.9791%,30.6722%,1)"/>
  <circle cx="7" cy="1" r="1" fill="srgba(0%,41.9974%,30.6752%,1)"/>
  <circle cx="8" cy="1" r="1" fill="srgba(0%,41.8936%,30.6538%,1)"/>
  <circle cx="9" cy="1" r="1" fill="srgba(0%,41.6526%,30.605%,1)"/>
  <circle cx="10" cy="1" r="1" fill="srgba(0%,41.5671%,30.5882%,1)"/>
  <circle cx="11" cy="1" r="1" fill="srgba(0,106,78,1)"/>
  <circle cx="12" cy="1" r="1" fill="srgba(0,106,78,1)"/>
  <circle cx="13" cy="1" r="1" fill="srgba(0,106,78,1)"/>
  <circle cx="14" cy="1" r="1" fill="srgba(0,106,78,1)"/>
  <circle cx="15" cy="1" r="1" fill="srgba(0,106,78,1)"/>
  <circle cx="0" cy="2" r="1" fill="srgba(0,106,78,1)"/>
  <circle cx="1" cy="2" r="1" fill="srgba(0,106,78,1)"/>
  <circle cx="2" cy="2" r="1" fill="srgba(0%,41.564%,30.5867%,1)"/>
  <circle cx="3" cy="2" r="1" fill="srgba(0%,41.7487%,30.6249%,1)"/>
  <circle cx="4" cy="2" r="1" fill="srgba(1.57778%,41.3306%,30.5394%,1)"/>
  <circle cx="5" cy="2" r="1" fill="srgba(14.7463%,37.6944%,29.8009%,1)"/>
  <circle cx="6" cy="2" r="1" fill="srgba(29.5918%,33.8064%,29.012%,1)"/>
  <circle cx="7" cy="2" r="1" fill="srgba(32.282%,33.1014%,28.8685%,1)"/>
  <circle cx="8" cy="2" r="1" fill="srgba(21.2116%,36.0006%,29.456%,1)"/>
  <circle cx="9" cy="2" r="1" fill="srgba(5.01717%,40.3235%,30.3349%,1)"/>
  <circle cx="10" cy="2" r="1" fill="srgba(0%,41.8418%,30.6432%,1)"/>
  <circle cx="11" cy="2" r="1" fill="srgba(0%,41.5839%,30.5913%,1)"/>
  <circle cx="12" cy="2" r="1" fill="srgba(0%,41.5671%,30.5882%,1)"/>
  <circle cx="13" cy="2" r="1" fill="srgba(0,106,78,1)"/>
  <circle cx="14" cy="2" r="1" fill="srgba(0,106,78,1)"/>
  <circle cx="15" cy="2" r="1" fill="srgba(0,106,78,1)"/>
  <circle cx="0" cy="3" r="1" fill="srgba(0,106,78,1)"/>
  <circle cx="1" cy="3" r="1" fill="srgba(0%,41.564%,30.5867%,1)"/>
  <circle cx="2" cy="3" r="1" fill="srgba(0%,41.7807%,30.631%,1)"/>
  <circle cx="3" cy="3" r="1" fill="srgba(10.4524%,38.9227%,30.0496%,1)"/>
  <circle cx="4" cy="3" r="1" fill="srgba(54.5525%,27.2541%,27.6799%,1)"/>
  <circle cx="5" cy="3" r="1" fill="srgba(85.7694%,19.0723%,26.0182%,1)"/>
  <circle cx="6" cy="3" r="1" fill="srgba(94.1756%,16.8673%,25.5711%,1)"/>
  <circle cx="7" cy="3" r="1" fill="srgba(94.9386%,16.6659%,25.5299%,1)"/>
  <circle cx="8" cy="3" r="1" fill="srgba(90.5577%,17.8164%,25.7633%,1)"/>
  <circle cx="9" cy="3" r="1" fill="srgba(69.8711%,23.241%,26.865%,1)"/>
  <circle cx="10" cy="3" r="1" fill="srgba(24.5823%,35.1492%,29.2836%,1)"/>
  <circle cx="11" cy="3" r="1" fill="srgba(0.276188%,41.6495%,30.605%,1)"/>
  <circle cx="12" cy="3" r="1" fill="srgba(0%,41.5869%,30.5913%,1)"/>
  <circle cx="13" cy="3" r="1" fill="srgba(0,106,78,1)"/>
  <circle cx="14" cy="3" r="1" fill="srgba(0,106,78,1)"/>
  <circle cx="15" cy="3" r="1" fill="srgba(0,106,78,1)"/>
  <circle cx="0" cy="4" r="1" fill="srgba(0%,41.5671%,30.5882%,1)"/>
  <circle cx="1" cy="4" r="1" fill="srgba(0%,41.7243%,30.6203%,1)"/>
  <circle cx="2" cy="4" r="1" fill="srgba(9.02571%,39.295%,30.1259%,1)"/>
  <circle cx="3" cy="4" r="1" fill="srgba(68.1209%,23.7003%,26.9581%,1)"/>
  <circle cx="4" cy="4" r="1" fill="srgba(96.8933%,16.1547%,25.4261%,1)"/>
  <circle cx="5" cy="4" r="1" fill="srgba(96.4019%,16.2829%,25.452%,1)"/>
  <circle cx="6" cy="4" r="1" fill="srgba(95.7855%,16.4446%,25.4856%,1)"/>
  <circle cx="7" cy="4" r="1" fill="srgba(95.7427%,16.4553%,25.4871%,1)"/>
  <circle cx="8" cy="4" r="1" fill="srgba(96.0372%,16.379%,25.4719%,1)"/>
  <circle cx="9" cy="4" r="1" fill="srgba(97.3083%,16.0449%,25.4032%,1)"/>
  <circle cx="10" cy="4" r="1" fill="srgba(86.0105%,19.0051%,26.0044%,1)"/>
  <circle cx="11" cy="4" r="1" fill="srgba(27.1504%,34.5068%,29.1539%,1)"/>
  <circle cx="12" cy="4" r="1" fill="srgba(0%,41.8173%,30.6386%,1)"/>
  <circle cx="13" cy="4" r="1" fill="srgba(0%,41.5671%,30.5882%,1)"/>
  <circle cx="14" cy="4" r="1" fill="srgba(0,106,78,1)"/>
  <circle cx="15" cy="4" r="1" fill="srgba(0,106,78,1)"/>
  <circle cx="0" cy="5" r="1" fill="srgba(0%,41.5793%,30.5898%,1)"/>
  <circle cx="1" cy="5" r="1" fill="srgba(0%,41.6495%,30.605%,1)"/>
  <circle cx="2" cy="5" r="1" fill="srgba(48.3909%,28.9067%,28.0171%,1)"/>
  <circle cx="3" cy="5" r="1" fill="srgba(96.4492%,16.2692%,25.449%,1)"/>
  <circle cx="4" cy="5" r="1" fill="srgba(95.8007%,16.4401%,25.4841%,1)"/>
  <circle cx="5" cy="5" r="1" fill="srgba(95.6832%,16.4706%,25.4902%,1)"/>
  <circle cx="6" cy="5" r="1" fill="srgba(244,42,65,1)"/>
  <circle cx="7" cy="5" r="1" fill="srgba(244,42,65,1)"/>
  <circle cx="8" cy="5" r="1" fill="srgba(244,42,65,1)"/>
  <circle cx="9" cy="5" r="1" fill="srgba(95.6695%,16.4752%,25.4917%,1)"/>
  <circle cx="10" cy="5" r="1" fill="srgba(97.1756%,16.08%,25.4108%,1)"/>
  <circle cx="11" cy="5" r="1" fill="srgba(75.4971%,21.7746%,26.5675%,1)"/>
  <circle cx="12" cy="5" r="1" fill="srgba(8.40772%,39.411%,30.1503%,1)"/>
  <circle cx="13" cy="5" r="1" fill="srgba(0%,41.709%,30.6172%,1)"/>
  <circle cx="14" cy="5" r="1" fill="srgba(0,106,78,1)"/>
  <circle cx="15" cy="5" r="1" fill="srgba(0,106,78,1)"/>
  <circle cx="0" cy="6" r="1" fill="srgba(0%,41.7273%,30.6203%,1)"/>
  <circle cx="1" cy="6" r="1" fill="srgba(8.26276%,39.4064%,30.1488%,1)"/>
  <circle cx="2" cy="6" r="1" fill="srgba(79.147%,20.8118%,26.3722%,1)"/>
  <circle cx="3" cy="6" r="1" fill="srgba(96.7926%,16.1807%,25.4307%,1)"/>
  <circle cx="4" cy="6" r="1" fill="srgba(95.6817%,16.4721%,25.4902%,1)"/>
  <circle cx="5" cy="6" r="1" fill="srgba(244,42,65,1)"/>
  <circle cx="6" cy="6" r="1" fill="srgba(244,42,65,1)"/>
  <circle cx="7" cy="6" r="1" fill="srgba(244,42,65,1)"/>
  <circle cx="8" cy="6" r="1" fill="srgba(244,42,65,1)"/>
  <circle cx="9" cy="6" r="1" fill="srgba(244,42,65,1)"/>
  <circle cx="10" cy="6" r="1" fill="srgba(95.819%,16.4355%,25.4826%,1)"/>
  <circle cx="11" cy="6" r="1" fill="srgba(94.1848%,16.8643%,25.5711%,1)"/>
  <circle cx="12" cy="6" r="1" fill="srgba(31.0628%,33.4279%,28.9357%,1)"/>
  <circle cx="13" cy="6" r="1" fill="srgba(0%,41.9638%,30.6691%,1)"/>
  <circle cx="14" cy="6" r="1" fill="srgba(0,106,78,1)"/>
  <circle cx="15" cy="6" r="1" fill="srgba(0,106,78,1)"/>
  <circle cx="0" cy="7" r="1" fill="srgba(0%,41.9043%,30.6569%,1)"/>
  <circle cx="1" cy="7" r="1" fill="srgba(17.7523%,36.9116%,29.6437%,1)"/>
  <circle cx="2" cy="7" r="1" fill="srgba(89.1646%,18.1811%,25.8381%,1)"/>
  <circle cx="3" cy="7" r="1" fill="srgba(96.1028%,16.3607%,25.4673%,1)"/>
  <circle cx="4" cy="7" r="1" fill="srgba(244,42,65,1)"/>
  <circle cx="5" cy="7" r="1" fill="srgba(244,42,65,1)"/>
  <circle cx="6" cy="7" r="1" fill="srgba(244,42,65,1)"/>
  <circle cx="7" cy="7" r="1" fill="srgba(244,42,65,1)"/>
  <circle cx="8" cy="7" r="1" fill="srgba(244,42,65,1)"/>
  <circle cx="9" cy="7" r="1" fill="srgba(244,42,65,1)"/>
  <circle cx="10" cy="7" r="1" fill="srgba(95.6817%,16.4721%,25.4902%,1)"/>
  <circle cx="11" cy="7" r="1" fill="srgba(96.9604%,16.1364%,25.4231%,1)"/>
  <circle cx="12" cy="7" r="1" fill="srgba(46.6224%,29.3385%,28.1041%,1)"/>
  <circle cx="13" cy="7" r="1" fill="srgba(0%,41.9318%,30.6615%,1)"/>
  <circle cx="14" cy="7" r="1" fill="srgba(0,106,78,1)"/>
  <circle cx="15" cy="7" r="1" fill="srgba(0,106,78,1)"/>
  <circle cx="0" cy="8" r="1" fill="srgba(0%,41.9043%,30.6569%,1)"/>
  <circle cx="1" cy="8" r="1" fill="srgba(17.7386%,36.9162%,29.6437%,1)"/>
  <circle cx="2" cy="8" r="1" fill="srgba(89.1554%,18.1842%,25.8381%,1)"/>
  <circle cx="3" cy="8" r="1" fill="srgba(96.1044%,16.3607%,25.4673%,1)"/>
  <circle cx="4" cy="8" r="1" fill="srgba(244,42,65,1)"/>
  <circle cx="5" cy="8" r="1" fill="srgba(244,42,65,1)"/>
  <circle cx="6" cy="8" r="1" fill="srgba(244,42,65,1)"/>
  <circle cx="7" cy="8" r="1" fill="srgba(244,42,65,1)"/>
  <circle cx="8" cy="8" r="1" fill="srgba(244,42,65,1)"/>
  <circle cx="9" cy="8" r="1" fill="srgba(244,42,65,1)"/>
  <circle cx="10" cy="8" r="1" fill="srgba(95.6817%,16.4721%,25.4902%,1)"/>
  <circle cx="11" cy="8" r="1" fill="srgba(96.9589%,16.1364%,25.4231%,1)"/>
  <circle cx="12" cy="8" r="1" fill="srgba(46.6026%,29.3446%,28.1056%,1)"/>
  <circle cx="13" cy="8" r="1" fill="srgba(0%,41.9318%,30.6615%,1)"/>
  <circle cx="14" cy="8" r="1" fill="srgba(0,106,78,1)"/>
  <circle cx="15" cy="8" r="1" fill="srgba(0,106,78,1)"/>
  <circle cx="0" cy="9" r="1" fill="srgba(0%,41.7273%,30.6203%,1)"/>
  <circle cx="1" cy="9" r="1" fill="srgba(8.23529%,39.4141%,30.1503%,1)"/>
  <circle cx="2" cy="9" r="1" fill="srgba(79.1012%,20.824%,26.3737%,1)"/>
  <circle cx="3" cy="9" r="1" fill="srgba(96.7956%,16.1791%,25.4307%,1)"/>
  <circle cx="4" cy="9" r="1" fill="srgba(95.6817%,16.4721%,25.4902%,1)"/>
  <circle cx="5" cy="9" r="1" fill="srgba(244,42,65,1)"/>
  <circle cx="6" cy="9" r="1" fill="srgba(244,42,65,1)"/>
  <circle cx="7" cy="9" r="1" fill="srgba(244,42,65,1)"/>
  <circle cx="8" cy="9" r="1" fill="srgba(244,42,65,1)"/>
  <circle cx="9" cy="9" r="1" fill="srgba(244,42,65,1)"/>
  <circle cx="10" cy="9" r="1" fill="srgba(95.819%,16.4355%,25.4826%,1)"/>
  <circle cx="11" cy="9" r="1" fill="srgba(94.1665%,16.8688%,25.5711%,1)"/>
  <circle cx="12" cy="9" r="1" fill="srgba(31.0109%,33.4417%,28.9372%,1)"/>
  <circle cx="13" cy="9" r="1" fill="srgba(0%,41.9623%,30.6691%,1)"/>
  <circle cx="14" cy="9" r="1" fill="srgba(0,106,78,1)"/>
  <circle cx="15" cy="9" r="1" fill="srgba(0,106,78,1)"/>
  <circle cx="0" cy="10" r="1" fill="srgba(0%,41.5793%,30.5898%,1)"/>
  <circle cx="1" cy="10" r="1" fill="srgba(0%,41.6526%,30.605%,1)"/>
  <circle cx="2" cy="10" r="1" fill="srgba(48.2811%,28.9357%,28.0217%,1)"/>
  <circle cx="3" cy="10" r="1" fill="srgba(96.4355%,16.2722%,25.4505%,1)"/>
  <circle cx="4" cy="10" r="1" fill="srgba(95.8022%,16.4401%,25.4841%,1)"/>
  <circle cx="5" cy="10" r="1" fill="srgba(95.6832%,16.4706%,25.4902%,1)"/>
  <circle cx="6" cy="10" r="1" fill="srgba(244,42,65,1)"/>
  <circle cx="7" cy="10" r="1" fill="srgba(244,42,65,1)"/>
  <circle cx="8" cy="10" r="1" fill="srgba(244,42,65,1)"/>
  <circle cx="9" cy="10" r="1" fill="srgba(95.6695%,16.4752%,25.4917%,1)"/>
  <circle cx="10" cy="10" r="1" fill="srgba(97.1817%,16.0784%,25.4108%,1)"/>
  <circle cx="11" cy="10" r="1" fill="srgba(75.407%,21.7975%,26.5736%,1)"/>
  <circle cx="12" cy="10" r="1" fill="srgba(8.35737%,39.4232%,30.1534%,1)"/>
  <circle cx="13" cy="10" r="1" fill="srgba(0%,41.709%,30.6172%,1)"/>
  <circle cx="14" cy="10" r="1" fill="srgba(0,106,78,1)"/>
  <circle cx="15" cy="10" r="1" fill="srgba(0,106,78,1)"/>
  <circle cx="0" cy="11" r="1" fill="srgba(0%,41.5671%,30.5882%,1)"/>
  <circle cx="1" cy="11" r="1" fill="srgba(0%,41.7243%,30.6203%,1)"/>
  <circle cx="2" cy="11" r="1" fill="srgba(8.9601%,39.3118%,30.1305%,1)"/>
  <circle cx="3" cy="11" r="1" fill="srgba(67.9606%,23.743%,26.9688%,1)"/>
  <circle cx="4" cy="11" r="1" fill="srgba(96.875%,16.1593%,25.4276%,1)"/>
  <circle cx="5" cy="11" r="1" fill="srgba(96.4096%,16.2814%,25.452%,1)"/>
  <circle cx="6" cy="11" r="1" fill="srgba(95.787%,16.4446%,25.4841%,1)"/>
  <circle cx="7" cy="11" r="1" fill="srgba(95.7427%,16.4553%,25.4871%,1)"/>
  <circle cx="8" cy="11" r="1" fill="srgba(96.0433%,16.3775%,25.4719%,1)"/>
  <circle cx="9" cy="11" r="1" fill="srgba(97.3129%,16.0433%,25.4032%,1)"/>
  <circle cx="10" cy="11" r="1" fill="srgba(85.8961%,19.0341%,26.0105%,1)"/>
  <circle cx="11" cy="11" r="1" fill="srgba(27.0222%,34.5403%,29.1615%,1)"/>
  <circle cx="12" cy="11" r="1" fill="srgba(0%,41.8173%,30.6386%,1)"/>
  <circle cx="13" cy="11" r="1" fill="srgba(0%,41.5671%,30.5882%,1)"/>
  <circle cx="14" cy="11" r="1" fill="srgba(0,106,78,1)"/>
  <circle cx="15" cy="11" r="1" fill="srgba(0,106,78,1)"/>
  <circle cx="0" cy="12" r="1" fill="srgba(0,106,78,1)"/>
  <circle cx="1" cy="12" r="1" fill="srgba(0%,41.564%,30.5867%,1)"/>
  <circle cx="2" cy="12" r="1" fill="srgba(0%,41.7807%,30.631%,1)"/>
  <circle cx="3" cy="12" r="1" fill="srgba(10.3456%,38.9517%,30.0572%,1)"/>
  <circle cx="4" cy="12" r="1" fill="srgba(54.3206%,27.3152%,27.6936%,1)"/>
  <circle cx="5" cy="12" r="1" fill="srgba(85.6504%,19.1028%,26.0258%,1)"/>
  <circle cx="6" cy="12" r="1" fill="srgba(94.1527%,16.8734%,25.5726%,1)"/>
  <circle cx="7" cy="12" r="1" fill="srgba(94.9355%,16.6674%,25.5299%,1)"/>
  <circle cx="8" cy="12" r="1" fill="srgba(90.4814%,17.8363%,25.7679%,1)"/>
  <circle cx="9" cy="12" r="1" fill="srgba(69.6651%,23.2944%,26.8757%,1)"/>
  <circle cx="10" cy="12" r="1" fill="srgba(24.4038%,35.1965%,29.2927%,1)"/>
  <circle cx="11" cy="12" r="1" fill="srgba(0.257877%,41.6526%,30.605%,1)"/>
  <circle cx="12" cy="12" r="1" fill="srgba(0%,41.5869%,30.5913%,1)"/>
  <circle cx="13" cy="12" r="1" fill="srgba(0,106,78,1)"/>
  <circle cx="14" cy="12" r="1" fill="srgba(0,106,78,1)"/>
  <circle cx="15" cy="12" r="1" fill="srgba(0,106,78,1)"/>
  <circle cx="0" cy="13" r="1" fill="srgba(0,106,78,1)"/>
  <circle cx="1" cy="13" r="1" fill="srgba(0,106,78,1)"/>
  <circle cx="2" cy="13" r="1" fill="srgba(0%,41.564%,30.5867%,1)"/>
  <circle cx="3" cy="13" r="1" fill="srgba(0%,41.7472%,30.6249%,1)"/>
  <circle cx="4" cy="13" r="1" fill="srgba(1.54116%,41.3413%,30.5425%,1)"/>
  <circle cx="5" cy="13" r="1" fill="srgba(14.609%,37.731%,29.81%,1)"/>
  <circle cx="6" cy="13" r="1" fill="srgba(29.5354%,33.8216%,29.015%,1)"/>
  <circle cx="7" cy="13" r="1" fill="srgba(32.2698%,33.1044%,28.8685%,1)"/>
  <circle cx="8" cy="13" r="1" fill="srgba(21.0773%,36.0357%,29.4636%,1)"/>
  <circle cx="9" cy="13" r="1" fill="srgba(4.93782%,40.3449%,30.3395%,1)"/>
  <circle cx="10" cy="13" r="1" fill="srgba(0%,41.8433%,30.6432%,1)"/>
  <circle cx="11" cy="13" r="1" fill="srgba(0%,41.5824%,30.5913%,1)"/>
  <circle cx="12" cy="13" r="1" fill="srgba(0%,41.5671%,30.5882%,1)"/>
  <circle cx="13" cy="13" r="1" fill="srgba(0,106,78,1)"/>
  <circle cx="14" cy="13" r="1" fill="srgba(0,106,78,1)"/>
  <circle cx="15" cy="13" r="1" fill="srgba(0,106,78,1)"/>
  <circle cx="0" cy="14" r="1" fill="srgba(0,106,78,1)"/>
  <circle cx="1" cy="14" r="1" fill="srgba(0,106,78,1)"/>
  <circle cx="2" cy="14" r="1" fill="srgba(0,106,78,1)"/>
  <circle cx="3" cy="14" r="1" fill="srgba(0%,41.5671%,30.5882%,1)"/>
  <circle cx="4" cy="14" r="1" fill="srgba(0%,41.5946%,30.5928%,1)"/>
  <circle cx="5" cy="14" r="1" fill="srgba(0%,41.8036%,30.6355%,1)"/>
  <circle cx="6" cy="14" r="1" fill="srgba(0%,41.9791%,30.6722%,1)"/>
  <circle cx="7" cy="14" r="1" fill="srgba(0%,41.9974%,30.6752%,1)"/>
  <circle cx="8" cy="14" r="1" fill="srgba(0%,41.8921%,30.6538%,1)"/>
  <circle cx="9" cy="14" r="1" fill="srgba(0%,41.6526%,30.605%,1)"/>
  <circle cx="10" cy="14" r="1" fill="srgba(0%,41.5671%,30.5882%,1)"/>
  <circle cx="11" cy="14" r="1" fill="srgba(0,106,78,1)"/>
  <circle cx="12" cy="14" r="1" fill="srgba(0,106,78,1)"/>
  <circle cx="13" cy="14" r="1" fill="srgba(0,106,78,1)"/>
  <circle cx="14" cy="14" r="1" fill="srgba(0,106,78,1)"/>
  <circle cx="15" cy="14" r="1" fill="srgba(0,106,78,1)"/>
  <circle cx="0" cy="15" r="1" fill="srgba(0,106,78,1)"/>
  <circle cx="1" cy="15" r="1" fill="srgba(0,106,78,1)"/>
  <circle cx="2" cy="15" r="1" fill="srgba(0,106,78,1)"/>
  <circle cx="3" cy="15" r="1" fill="srgba(0,106,78,1)"/>
  <circle cx="4" cy="15" r="1" fill="srgba(0,106,78,1)"/>
  <circle cx="5" cy="15" r="1" fill="srgba(0,106,78,1)"/>
  <circle cx="6" cy="15" r="1" fill="srgba(0,106,78,1)"/>
  <circle cx="7" cy="15" r="1" fill="srgba(0,106,78,1)"/>
  <circle cx="8" cy="15" r="1" fill="srgba(0,106,78,1)"/>
  <circle cx="9" cy="15" r="1" fill="srgba(0,106,78,1)"/>
  <circle cx="10" cy="15" r="1" fill="srgba(0,106,78,1)"/>
  <circle cx="11" cy="15" r="1" fill="srgba(0,106,78,1)"/>
  <circle cx="12" cy="15" r="1" fill="srgba(0,106,78,1)"/>
  <circle cx="13" cy="15" r="1" fill="srgba(0,106,78,1)"/>
  <circle cx="14" cy="15" r="1" fill="srgba(0,106,78,1)"/>
  <circle cx="15" cy="15" r="1" fill="srgba(0,106,78,1)"/>
</svg>
