<?xml version="1.0" standalone="no"?>
<!DOCTYPE svg PUBLIC "-//W3C//DTD SVG 20010904//EN"
  "http://www.w3.org/TR/2001/REC-SVG-20010904/DTD/svg10.dtd">
<svg width="16" height="16">
  <circle cx="0" cy="0" r="1" fill="srgba(87.1519%,0.69276%,0.69276%,1)"/>
  <circle cx="1" cy="0" r="1" fill="srgba(87.0542%,0%,0%,1)"/>
  <circle cx="2" cy="0" r="1" fill="srgba(222,0,0,1)"/>
  <circle cx="3" cy="0" r="1" fill="srgba(222,0,0,1)"/>
  <circle cx="4" cy="0" r="1" fill="srgba(222,0,0,1)"/>
  <circle cx="5" cy="0" r="1" fill="srgba(222,0,0,1)"/>
  <circle cx="6" cy="0" r="1" fill="srgba(222,0,0,1)"/>
  <circle cx="7" cy="0" r="1" fill="srgba(222,0,0,1)"/>
  <circle cx="8" cy="0" r="1" fill="srgba(222,0,0,1)"/>
  <circle cx="9" cy="0" r="1" fill="srgba(222,0,0,1)"/>
  <circle cx="10" cy="0" r="1" fill="srgba(222,0,0,1)"/>
  <circle cx="11" cy="0" r="1" fill="srgba(222,0,0,1)"/>
  <circle cx="12" cy="0" r="1" fill="srgba(222,0,0,1)"/>
  <circle cx="13" cy="0" r="1" fill="srgba(222,0,0,1)"/>
  <circle cx="14" cy="0" r="1" fill="srgba(222,0,0,1)"/>
  <circle cx="15" cy="0" r="1" fill="srgba(222,0,0,1)"/>
  <circle cx="0" cy="1" r="1" fill="srgba(87.1519%,0.69276%,0.69276%,1)"/>
  <circle cx="1" cy="1" r="1" fill="srgba(87.0542%,0%,0%,1)"/>
  <circle cx="2" cy="1" r="1" fill="srgba(222,0,0,1)"/>
  <circle cx="3" cy="1" r="1" fill="srgba(222,0,0,1)"/>
  <circle cx="4" cy="1" r="1" fill="srgba(222,0,0,1)"/>
  <circle cx="5" cy="1" r="1" fill="srgba(222,0,0,1)"/>
  <circle cx="6" cy="1" r="1" fill="srgba(222,0,0,1)"/>
  <circle cx="7" cy="1" r="1" fill="srgba(222,0,0,1)"/>
  <circle cx="8" cy="1" r="1" fill="srgba(222,0,0,1)"/>
  <circle cx="9" cy="1" r="1" fill="srgba(222,0,0,1)"/>
  <circle cx="10" cy="1" r="1" fill="srgba(222,0,0,1)"/>
  <circle cx="11" cy="1" r="1" fill="srgba(222,0,0,1)"/>
  <circle cx="12" cy="1" r="1" fill="srgba(222,0,0,1)"/>
  <circle cx="13" cy="1" r="1" fill="srgba(222,0,0,1)"/>
  <circle cx="14" cy="1" r="1" fill="srgba(222,0,0,1)"/>
  <circle cx="15" cy="1" r="1" fill="srgba(222,0,0,1)"/>
  <circle cx="0" cy="2" r="1" fill="srgba(87.1519%,0.69276%,0.69276%,1)"/>
  <circle cx="1" cy="2" r="1" fill="srgba(87.0542%,0%,0%,1)"/>
  <circle cx="2" cy="2" r="1" fill="srgba(222,0,0,1)"/>
  <circle cx="3" cy="2" r="1" fill="srgba(222,0,0,1)"/>
  <circle cx="4" cy="2" r="1" fill="srgba(222,0,0,1)"/>
  <circle cx="5" cy="2" r="1" fill="srgba(222,0,0,1)"/>
  <circle cx="6" cy="2" r="1" fill="srgba(222,0,0,1)"/>
  <circle cx="7" cy="2" r="1" fill="srgba(222,0,0,1)"/>
  <circle cx="8" cy="2" r="1" fill="srgba(222,0,0,1)"/>
  <circle cx="9" cy="2" r="1" fill="srgba(222,0,0,1)"/>
  <circle cx="10" cy="2" r="1" fill="srgba(222,0,0,1)"/>
  <circle cx="11" cy="2" r="1" fill="srgba(222,0,0,1)"/>
  <circle cx="12" cy="2" r="1" fill="srgba(222,0,0,1)"/>
  <circle cx="13" cy="2" r="1" fill="srgba(222,0,0,1)"/>
  <circle cx="14" cy="2" r="1" fill="srgba(222,0,0,1)"/>
  <circle cx="15" cy="2" r="1" fill="srgba(222,0,0,1)"/>
  <circle cx="0" cy="3" r="1" fill="srgba(87.1519%,0.69276%,0.69276%,1)"/>
  <circle cx="1" cy="3" r="1" fill="srgba(87.0542%,0%,0%,1)"/>
  <circle cx="2" cy="3" r="1" fill="srgba(222,0,0,1)"/>
  <circle cx="3" cy="3" r="1" fill="srgba(222,0,0,1)"/>
  <circle cx="4" cy="3" r="1" fill="srgba(222,0,0,1)"/>
  <circle cx="5" cy="3" r="1" fill="srgba(222,0,0,1)"/>
  <circle cx="6" cy="3" r="1" fill="srgba(222,0,0,1)"/>
  <circle cx="7" cy="3" r="1" fill="srgba(222,0,0,1)"/>
  <circle cx="8" cy="3" r="1" fill="srgba(222,0,0,1)"/>
  <circle cx="9" cy="3" r="1" fill="srgba(222,0,0,1)"/>
  <circle cx="10" cy="3" r="1" fill="srgba(222,0,0,1)"/>
  <circle cx="11" cy="3" r="1" fill="srgba(222,0,0,1)"/>
  <circle cx="12" cy="3" r="1" fill="srgba(222,0,0,1)"/>
  <circle cx="13" cy="3" r="1" fill="srgba(222,0,0,1)"/>
  <circle cx="14" cy="3" r="1" fill="srgba(222,0,0,1)"/>
  <circle cx="15" cy="3" r="1" fill="srgba(222,0,0,1)"/>
  <circle cx="0" cy="4" r="1" fill="srgba(87.1519%,0.69276%,0.69276%,1)"/>
  <circle cx="1" cy="4" r="1" fill="srgba(87.0542%,0%,0%,1)"/>
  <circle cx="2" cy="4" r="1" fill="srgba(222,0,0,1)"/>
  <circle cx="3" cy="4" r="1" fill="srgba(222,0,0,1)"/>
  <circle cx="4" cy="4" r="1" fill="srgba(222,0,0,1)"/>
  <circle cx="5" cy="4" r="1" fill="srgba(222,0,0,1)"/>
  <circle cx="6" cy="4" r="1" fill="srgba(222,0,0,1)"/>
  <circle cx="7" cy="4" r="1" fill="srgba(222,0,0,1)"/>
  <circle cx="8" cy="4" r="1" fill="srgba(222,0,0,1)"/>
  <circle cx="9" cy="4" r="1" fill="srgba(222,0,0,1)"/>
  <circle cx="10" cy="4" r="1" fill="srgba(222,0,0,1)"/>
  <circle cx="11" cy="4" r="1" fill="srgba(222,0,0,1)"/>
  <circle cx="12" cy="4" r="1" fill="srgba(222,0,0,1)"/>
  <circle cx="13" cy="4" r="1" fill="srgba(222,0,0,1)"/>
  <circle cx="14" cy="4" r="1" fill="srgba(222,0,0,1)"/>
  <circle cx="15" cy="4" r="1" fill="srgba(222,0,0,1)"/>
  <circle cx="0" cy="5" r="1" fill="srgba(87.1519%,0.69276%,0.69276%,1)"/>
  <circle cx="1" cy="5" r="1" fill="srgba(87.0542%,0%,0%,1)"/>
  <circle cx="2" cy="5" r="1" fill="srgba(222,0,0,1)"/>
  <circle cx="3" cy="5" r="1" fill="srgba(87.0558%,0%,0%,1)"/>
  <circle cx="4" cy="5" r="1" fill="srgba(87.0558%,0%,0%,1)"/>
  <circle cx="5" cy="5" r="1" fill="srgba(222,0,0,1)"/>
  <circle cx="6" cy="5" r="1" fill="srgba(222,0,0,1)"/>
  <circle cx="7" cy="5" r="1" fill="srgba(87.0558%,0%,0%,1)"/>
  <circle cx="8" cy="5" r="1" fill="srgba(87.0558%,0%,0%,1)"/>
  <circle cx="9" cy="5" r="1" fill="srgba(222,0,0,1)"/>
  <circle cx="10" cy="5" r="1" fill="srgba(222,0,0,1)"/>
  <circle cx="11" cy="5" r="1" fill="srgba(87.0542%,0%,0%,1)"/>
  <circle cx="12" cy="5" r="1" fill="srgba(87.0558%,0%,0%,1)"/>
  <circle cx="13" cy="5" r="1" fill="srgba(222,0,0,1)"/>
  <circle cx="14" cy="5" r="1" fill="srgba(222,0,0,1)"/>
  <circle cx="15" cy="5" r="1" fill="srgba(222,0,0,1)"/>
  <circle cx="0" cy="6" r="1" fill="srgba(87.6539%,0.688182%,0.697337%,1)"/>
  <circle cx="1" cy="6" r="1" fill="srgba(87.5563%,0%,0%,1)"/>
  <circle cx="2" cy="6" r="1" fill="srgba(87.5578%,0%,0%,1)"/>
  <circle cx="3" cy="6" r="1" fill="srgba(87.6158%,0.238041%,0%,1)"/>
  <circle cx="4" cy="6" r="1" fill="srgba(87.5532%,0.407416%,0%,1)"/>
  <circle cx="5" cy="6" r="1" fill="srgba(87.3365%,0%,0%,1)"/>
  <circle cx="6" cy="6" r="1" fill="srgba(87.5685%,0%,0%,1)"/>
  <circle cx="7" cy="6" r="1" fill="srgba(87.3564%,0.306706%,0%,1)"/>
  <circle cx="8" cy="6" r="1" fill="srgba(87.3762%,0.271611%,0%,1)"/>
  <circle cx="9" cy="6" r="1" fill="srgba(87.5654%,0%,0%,1)"/>
  <circle cx="10" cy="6" r="1" fill="srgba(87.3259%,0%,0%,1)"/>
  <circle cx="11" cy="6" r="1" fill="srgba(87.5746%,0.43946%,0%,1)"/>
  <circle cx="12" cy="6" r="1" fill="srgba(87.6066%,0.201419%,0%,1)"/>
  <circle cx="13" cy="6" r="1" fill="srgba(87.5578%,0%,0%,1)"/>
  <circle cx="14" cy="6" r="1" fill="srgba(87.5608%,0%,0%,1)"/>
  <circle cx="15" cy="6" r="1" fill="srgba(87.5593%,0%,0%,1)"/>
  <circle cx="0" cy="7" r="1" fill="srgba(79.3927%,8.00031%,0.616464%,1)"/>
  <circle cx="1" cy="7" r="1" fill="srgba(79.295%,7.35943%,0%,1)"/>
  <circle cx="2" cy="7" r="1" fill="srgba(79.2905%,7.32738%,0%,1)"/>
  <circle cx="3" cy="7" r="1" fill="srgba(79.382%,8.43977%,0%,1)"/>
  <circle cx="4" cy="7" r="1" fill="srgba(81.8479%,18.4161%,0%,1)"/>
  <circle cx="5" cy="7" r="1" fill="srgba(83.2654%,11.8547%,0%,1)"/>
  <circle cx="6" cy="7" r="1" fill="srgba(78.8312%,6.43168%,0%,1)"/>
  <circle cx="7" cy="7" r="1" fill="srgba(84.3397%,20.3159%,0%,1)"/>
  <circle cx="8" cy="7" r="1" fill="srgba(83.7949%,18.912%,0%,1)"/>
  <circle cx="9" cy="7" r="1" fill="srgba(78.9075%,6.45914%,0%,1)"/>
  <circle cx="10" cy="7" r="1" fill="srgba(83.4943%,12.5261%,0%,1)"/>
  <circle cx="11" cy="7" r="1" fill="srgba(81.5854%,18.0468%,0%,1)"/>
  <circle cx="12" cy="7" r="1" fill="srgba(79.3545%,8.13916%,0%,1)"/>
  <circle cx="13" cy="7" r="1" fill="srgba(79.2935%,7.34417%,0%,1)"/>
  <circle cx="14" cy="7" r="1" fill="srgba(79.2981%,7.39452%,0%,1)"/>
  <circle cx="15" cy="7" r="1" fill="srgba(79.3347%,7.36095%,0%,1)"/>
  <circle cx="0" cy="8" r="1" fill="srgba(29.1218%,55.3445%,0.12665%,1)"/>
  <circle cx="1" cy="8" r="1" fill="srgba(29.0242%,55.2819%,0%,1)"/>
  <circle cx="2" cy="8" r="1" fill="srgba(29.0288%,55.2865%,0%,1)"/>
  <circle cx="3" cy="8" r="1" fill="srgba(28.9006%,55.1278%,0%,1)"/>
  <circle cx="4" cy="8" r="1" fill="srgba(31.1055%,58.7488%,0%,1)"/>
  <circle cx="5" cy="8" r="1" fill="srgba(51.6548%,66.1189%,0%,1)"/>
  <circle cx="6" cy="8" r="1" fill="srgba(38.2208%,58.7304%,0%,1)"/>
  <circle cx="7" cy="8" r="1" fill="srgba(66.7643%,74.2489%,0%,1)"/>
  <circle cx="8" cy="8" r="1" fill="srgba(63.4684%,72.5216%,0%,1)"/>
  <circle cx="9" cy="8" r="1" fill="srgba(39.4369%,59.2187%,0%,1)"/>
  <circle cx="10" cy="8" r="1" fill="srgba(50.7683%,65.9998%,0%,1)"/>
  <circle cx="11" cy="8" r="1" fill="srgba(30.5318%,58.2986%,0%,1)"/>
  <circle cx="12" cy="8" r="1" fill="srgba(28.9311%,55.1278%,0%,1)"/>
  <circle cx="13" cy="8" r="1" fill="srgba(29.0288%,55.2865%,0%,1)"/>
  <circle cx="14" cy="8" r="1" fill="srgba(29.015%,55.2987%,0%,1)"/>
  <circle cx="15" cy="8" r="1" fill="srgba(29.2851%,55.0423%,0%,1)"/>
  <circle cx="0" cy="9" r="1" fill="srgba(20.3433%,63.6088%,0.0411994%,1)"/>
  <circle cx="1" cy="9" r="1" fill="srgba(20.2457%,63.6469%,0%,1)"/>
  <circle cx="2" cy="9" r="1" fill="srgba(20.2502%,63.6454%,0%,1)"/>
  <circle cx="3" cy="9" r="1" fill="srgba(20.2564%,63.6545%,0%,1)"/>
  <circle cx="4" cy="9" r="1" fill="srgba(19.6033%,63.2319%,0%,1)"/>
  <circle cx="5" cy="9" r="1" fill="srgba(29.3645%,67.2389%,0%,1)"/>
  <circle cx="6" cy="9" r="1" fill="srgba(57.3373%,78.7198%,0%,1)"/>
  <circle cx="7" cy="9" r="1" fill="srgba(80.2335%,87.7836%,0%,1)"/>
  <circle cx="8" cy="9" r="1" fill="srgba(78.4222%,87.0695%,0%,1)"/>
  <circle cx="9" cy="9" r="1" fill="srgba(56.5972%,78.4176%,0%,1)"/>
  <circle cx="10" cy="9" r="1" fill="srgba(27.6249%,66.5187%,0%,1)"/>
  <circle cx="11" cy="9" r="1" fill="srgba(19.7284%,63.2959%,0%,1)"/>
  <circle cx="12" cy="9" r="1" fill="srgba(20.2548%,63.6545%,0%,1)"/>
  <circle cx="13" cy="9" r="1" fill="srgba(20.2502%,63.6454%,0%,1)"/>
  <circle cx="14" cy="9" r="1" fill="srgba(20.2335%,63.6606%,0%,1)"/>
  <circle cx="15" cy="9" r="1" fill="srgba(20.5447%,63.3661%,0%,1)"/>
  <circle cx="0" cy="10" r="1" fill="srgba(20.8774%,63.1067%,0.0457771%,1)"/>
  <circle cx="1" cy="10" r="1" fill="srgba(20.7797%,63.1388%,0%,1)"/>
  <circle cx="2" cy="10" r="1" fill="srgba(53,161,0,1)"/>
  <circle cx="3" cy="10" r="1" fill="srgba(53,161,0,1)"/>
  <circle cx="4" cy="10" r="1" fill="srgba(19.7299%,62.71%,0%,1)"/>
  <circle cx="5" cy="10" r="1" fill="srgba(42.4414%,71.9295%,0%,1)"/>
  <circle cx="6" cy="10" r="1" fill="srgba(77.4685%,86.1479%,0%,1)"/>
  <circle cx="7" cy="10" r="1" fill="srgba(41.3169%,71.4733%,0%,1)"/>
  <circle cx="8" cy="10" r="1" fill="srgba(43.1693%,72.224%,0%,1)"/>
  <circle cx="9" cy="10" r="1" fill="srgba(78.0499%,86.3828%,0%,1)"/>
  <circle cx="10" cy="10" r="1" fill="srgba(39.3637%,70.6798%,0%,1)"/>
  <circle cx="11" cy="10" r="1" fill="srgba(19.8062%,62.7405%,0%,1)"/>
  <circle cx="12" cy="10" r="1" fill="srgba(53,161,0,1)"/>
  <circle cx="13" cy="10" r="1" fill="srgba(53,161,0,1)"/>
  <circle cx="14" cy="10" r="1" fill="srgba(20.7675%,63.1525%,0%,1)"/>
  <circle cx="15" cy="10" r="1" fill="srgba(21.0773%,62.8595%,0%,1)"/>
  <circle cx="0" cy="11" r="1" fill="srgba(20.8774%,63.1067%,0.0457771%,1)"/>
  <circle cx="1" cy="11" r="1" fill="srgba(20.7797%,63.1388%,0%,1)"/>
  <circle cx="2" cy="11" r="1" fill="srgba(53,161,0,1)"/>
  <circle cx="3" cy="11" r="1" fill="srgba(53,161,0,1)"/>
  <circle cx="4" cy="11" r="1" fill="srgba(20.5768%,63.0533%,0%,1)"/>
  <circle cx="5" cy="11" r="1" fill="srgba(33.8293%,68.4321%,0%,1)"/>
  <circle cx="6" cy="11" r="1" fill="srgba(28.7266%,66.3615%,0%,1)"/>
  <circle cx="7" cy="11" r="1" fill="srgba(19.704%,62.6993%,0%,1)"/>
  <circle cx="8" cy="11" r="1" fill="srgba(19.736%,62.7115%,0%,1)"/>
  <circle cx="9" cy="11" r="1" fill="srgba(29.8085%,66.8009%,0%,1)"/>
  <circle cx="10" cy="11" r="1" fill="srgba(32.8954%,68.0537%,0%,1)"/>
  <circle cx="11" cy="11" r="1" fill="srgba(20.4517%,63.0014%,0%,1)"/>
  <circle cx="12" cy="11" r="1" fill="srgba(53,161,0,1)"/>
  <circle cx="13" cy="11" r="1" fill="srgba(53,161,0,1)"/>
  <circle cx="14" cy="11" r="1" fill="srgba(20.7675%,63.1525%,0%,1)"/>
  <circle cx="15" cy="11" r="1" fill="srgba(21.0773%,62.8595%,0%,1)"/>
  <circle cx="0" cy="12" r="1" fill="srgba(20.8774%,63.1067%,0.0457771%,1)"/>
  <circle cx="1" cy="12" r="1" fill="srgba(20.7797%,63.1388%,0%,1)"/>
  <circle cx="2" cy="12" r="1" fill="srgba(53,161,0,1)"/>
  <circle cx="3" cy="12" r="1" fill="srgba(53,161,0,1)"/>
  <circle cx="4" cy="12" r="1" fill="srgba(20.8087%,63.1479%,0%,1)"/>
  <circle cx="5" cy="12" r="1" fill="srgba(20.3616%,62.9648%,0%,1)"/>
  <circle cx="6" cy="12" r="1" fill="srgba(20.3388%,62.9557%,0%,1)"/>
  <circle cx="7" cy="12" r="1" fill="srgba(20.7965%,63.1418%,0%,1)"/>
  <circle cx="8" cy="12" r="1" fill="srgba(20.7935%,63.1418%,0%,1)"/>
  <circle cx="9" cy="12" r="1" fill="srgba(20.2945%,62.9389%,0%,1)"/>
  <circle cx="10" cy="12" r="1" fill="srgba(20.4089%,62.9847%,0%,1)"/>
  <circle cx="11" cy="12" r="1" fill="srgba(20.8087%,63.1464%,0%,1)"/>
  <circle cx="12" cy="12" r="1" fill="srgba(53,161,0,1)"/>
  <circle cx="13" cy="12" r="1" fill="srgba(53,161,0,1)"/>
  <circle cx="14" cy="12" r="1" fill="srgba(20.7675%,63.1525%,0%,1)"/>
  <circle cx="15" cy="12" r="1" fill="srgba(21.0773%,62.8595%,0%,1)"/>
  <circle cx="0" cy="13" r="1" fill="srgba(20.8774%,63.1067%,0.0457771%,1)"/>
  <circle cx="1" cy="13" r="1" fill="srgba(20.7797%,63.1388%,0%,1)"/>
  <circle cx="2" cy="13" r="1" fill="srgba(53,161,0,1)"/>
  <circle cx="3" cy="13" r="1" fill="srgba(53,161,0,1)"/>
  <circle cx="4" cy="13" r="1" fill="srgba(53,161,0,1)"/>
  <circle cx="5" cy="13" r="1" fill="srgba(53,161,0,1)"/>
  <circle cx="6" cy="13" r="1" fill="srgba(53,161,0,1)"/>
  <circle cx="7" cy="13" r="1" fill="srgba(53,161,0,1)"/>
  <circle cx="8" cy="13" r="1" fill="srgba(53,161,0,1)"/>
  <circle cx="9" cy="13" r="1" fill="srgba(53,161,0,1)"/>
  <circle cx="10" cy="13" r="1" fill="srgba(53,161,0,1)"/>
  <circle cx="11" cy="13" r="1" fill="srgba(53,161,0,1)"/>
  <circle cx="12" cy="13" r="1" fill="srgba(53,161,0,1)"/>
  <circle cx="13" cy="13" r="1" fill="srgba(53,161,0,1)"/>
  <circle cx="14" cy="13" r="1" fill="srgba(20.7675%,63.1525%,0%,1)"/>
  <circle cx="15" cy="13" r="1" fill="srgba(21.0773%,62.8595%,0%,1)"/>
  <circle cx="0" cy="14" r="1" fill="srgba(20.8774%,63.1067%,0.0457771%,1)"/>
  <circle cx="1" cy="14" r="1" fill="srgba(20.7797%,63.1388%,0%,1)"/>
  <circle cx="2" cy="14" r="1" fill="srgba(53,161,0,1)"/>
  <circle cx="3" cy="14" r="1" fill="srgba(53,161,0,1)"/>
  <circle cx="4" cy="14" r="1" fill="srgba(53,161,0,1)"/>
  <circle cx="5" cy="14" r="1" fill="srgba(53,161,0,1)"/>
  <circle cx="6" cy="14" r="1" fill="srgba(53,161,0,1)"/>
  <circle cx="7" cy="14" r="1" fill="srgba(53,161,0,1)"/>
  <circle cx="8" cy="14" r="1" fill="srgba(53,161,0,1)"/>
  <circle cx="9" cy="14" r="1" fill="srgba(53,161,0,1)"/>
  <circle cx="10" cy="14" r="1" fill="srgba(53,161,0,1)"/>
  <circle cx="11" cy="14" r="1" fill="srgba(53,161,0,1)"/>
  <circle cx="12" cy="14" r="1" fill="srgba(53,161,0,1)"/>
  <circle cx="13" cy="14" r="1" fill="srgba(53,161,0,1)"/>
  <circle cx="14" cy="14" r="1" fill="srgba(20.7675%,63.1525%,0%,1)"/>
  <circle cx="15" cy="14" r="1" fill="srgba(21.0773%,62.8595%,0%,1)"/>
  <circle cx="0" cy="15" r="1" fill="srgba(20.8774%,63.1067%,0.047303%,1)"/>
  <circle cx="1" cy="15" r="1" fill="srgba(20.7797%,63.1388%,0%,1)"/>
  <circle cx="2" cy="15" r="1" fill="srgba(53,161,0,1)"/>
  <circle cx="3" cy="15" r="1" fill="srgba(53,161,0,1)"/>
  <circle cx="4" cy="15" r="1" fill="srgba(53,161,0,1)"/>
  <circle cx="5" cy="15" r="1" fill="srgba(53,161,0,1)"/>
  <circle cx="6" cy="15" r="1" fill="srgba(53,161,0,1)"/>
  <circle cx="7" cy="15" r="1" fill="srgba(53,161,0,1)"/>
  <circle cx="8" cy="15" r="1" fill="srgba(53,161,0,1)"/>
  <circle cx="9" cy="15" r="1" fill="srgba(53,161,0,1)"/>
  <circle cx="10" cy="15" r="1" fill="srgba(53,161,0,1)"/>
  <circle cx="11" cy="15" r="1" fill="srgba(53,161,0,1)"/>
  <circle cx="12" cy="15" r="1" fill="srgba(53,161,0,1)"/>
  <circle cx="13" cy="15" r="1" fill="srgba(53,161,0,1)"/>
  <circle cx="14" cy="15" r="1" fill="srgba(20.7675%,63.1525%,0%,1)"/>
  <circle cx="15" cy="15" r="1" fill="srgba(21.0773%,62.8641%,0.00457771%,1)"/>
</svg>
