<?xml version="1.0" standalone="no"?>
<!DOCTYPE svg PUBLIC "-//W3C//DTD SVG 20010904//EN"
  "http://www.w3.org/TR/2001/REC-SVG-20010904/DTD/svg10.dtd">
<svg width="16" height="16">
  <circle cx="0" cy="0" r="1" fill="srgba(88.0491%,0%,5.19417%,1)"/>
  <circle cx="1" cy="0" r="1" fill="srgba(88.1804%,0%,6.22568%,1)"/>
  <circle cx="2" cy="0" r="1" fill="srgba(88.2368%,0%,6.67887%,1)"/>
  <circle cx="3" cy="0" r="1" fill="srgba(225,0,17,1)"/>
  <circle cx="4" cy="0" r="1" fill="srgba(225,0,17,1)"/>
  <circle cx="5" cy="0" r="1" fill="srgba(225,0,17,1)"/>
  <circle cx="6" cy="0" r="1" fill="srgba(225,0,17,1)"/>
  <circle cx="7" cy="0" r="1" fill="srgba(225,0,17,1)"/>
  <circle cx="8" cy="0" r="1" fill="srgba(225,0,17,1)"/>
  <circle cx="9" cy="0" r="1" fill="srgba(225,0,17,1)"/>
  <circle cx="10" cy="0" r="1" fill="srgba(225,0,17,1)"/>
  <circle cx="11" cy="0" r="1" fill="srgba(225,0,17,1)"/>
  <circle cx="12" cy="0" r="1" fill="srgba(225,0,17,1)"/>
  <circle cx="13" cy="0" r="1" fill="srgba(225,0,17,1)"/>
  <circle cx="14" cy="0" r="1" fill="srgba(225,0,17,1)"/>
  <circle cx="15" cy="0" r="1" fill="srgba(225,0,17,1)"/>
  <circle cx="0" cy="1" r="1" fill="srgba(92.0485%,32.3995%,36.9223%,1)"/>
  <circle cx="1" cy="1" r="1" fill="srgba(88.9525%,6.3447%,12.3629%,1)"/>
  <circle cx="2" cy="1" r="1" fill="srgba(88.043%,0%,5.14382%,1)"/>
  <circle cx="3" cy="1" r="1" fill="srgba(88.1285%,0%,5.82589%,1)"/>
  <circle cx="4" cy="1" r="1" fill="srgba(88.22%,0%,6.54154%,1)"/>
  <circle cx="5" cy="1" r="1" fill="srgba(88.2353%,0%,6.67124%,1)"/>
  <circle cx="6" cy="1" r="1" fill="srgba(225,0,17,1)"/>
  <circle cx="7" cy="1" r="1" fill="srgba(225,0,17,1)"/>
  <circle cx="8" cy="1" r="1" fill="srgba(225,0,17,1)"/>
  <circle cx="9" cy="1" r="1" fill="srgba(225,0,17,1)"/>
  <circle cx="10" cy="1" r="1" fill="srgba(225,0,17,1)"/>
  <circle cx="11" cy="1" r="1" fill="srgba(225,0,17,1)"/>
  <circle cx="12" cy="1" r="1" fill="srgba(225,0,17,1)"/>
  <circle cx="13" cy="1" r="1" fill="srgba(225,0,17,1)"/>
  <circle cx="14" cy="1" r="1" fill="srgba(225,0,17,1)"/>
  <circle cx="15" cy="1" r="1" fill="srgba(225,0,17,1)"/>
  <circle cx="0" cy="2" r="1" fill="srgba(99.6658%,97.1572%,97.348%,1)"/>
  <circle cx="1" cy="2" r="1" fill="srgba(96.9772%,74.3023%,76.0159%,1)"/>
  <circle cx="2" cy="2" r="1" fill="srgba(92.6909%,37.8698%,42.0111%,1)"/>
  <circle cx="3" cy="2" r="1" fill="srgba(89.9504%,14.5785%,20.2731%,1)"/>
  <circle cx="4" cy="2" r="1" fill="srgba(88.6015%,3.11131%,9.57046%,1)"/>
  <circle cx="5" cy="2" r="1" fill="srgba(88.249%,0.117494%,6.77653%,1)"/>
  <circle cx="6" cy="2" r="1" fill="srgba(88.2338%,0%,6.65599%,1)"/>
  <circle cx="7" cy="2" r="1" fill="srgba(225,0,17,1)"/>
  <circle cx="8" cy="2" r="1" fill="srgba(225,0,17,1)"/>
  <circle cx="9" cy="2" r="1" fill="srgba(225,0,17,1)"/>
  <circle cx="10" cy="2" r="1" fill="srgba(225,0,17,1)"/>
  <circle cx="11" cy="2" r="1" fill="srgba(225,0,17,1)"/>
  <circle cx="12" cy="2" r="1" fill="srgba(225,0,17,1)"/>
  <circle cx="13" cy="2" r="1" fill="srgba(225,0,17,1)"/>
  <circle cx="14" cy="2" r="1" fill="srgba(225,0,17,1)"/>
  <circle cx="15" cy="2" r="1" fill="srgba(225,0,17,1)"/>
  <circle cx="0" cy="3" r="1" fill="white"/>
  <circle cx="1" cy="3" r="1" fill="white"/>
  <circle cx="2" cy="3" r="1" fill="srgba(99.7543%,97.908%,98.0484%,1)"/>
  <circle cx="3" cy="3" r="1" fill="srgba(97.7905%,81.2238%,82.475%,1)"/>
  <circle cx="4" cy="3" r="1" fill="srgba(93.2464%,42.6001%,46.4256%,1)"/>
  <circle cx="5" cy="3" r="1" fill="srgba(88.7709%,4.55024%,10.9133%,1)"/>
  <circle cx="6" cy="3" r="1" fill="srgba(88.2002%,0%,6.38895%,1)"/>
  <circle cx="7" cy="3" r="1" fill="srgba(225,0,17,1)"/>
  <circle cx="8" cy="3" r="1" fill="srgba(225,0,17,1)"/>
  <circle cx="9" cy="3" r="1" fill="srgba(225,0,17,1)"/>
  <circle cx="10" cy="3" r="1" fill="srgba(225,0,17,1)"/>
  <circle cx="11" cy="3" r="1" fill="srgba(225,0,17,1)"/>
  <circle cx="12" cy="3" r="1" fill="srgba(225,0,17,1)"/>
  <circle cx="13" cy="3" r="1" fill="srgba(225,0,17,1)"/>
  <circle cx="14" cy="3" r="1" fill="srgba(225,0,17,1)"/>
  <circle cx="15" cy="3" r="1" fill="srgba(225,0,17,1)"/>
  <circle cx="0" cy="4" r="1" fill="white"/>
  <circle cx="1" cy="4" r="1" fill="white"/>
  <circle cx="2" cy="4" r="1" fill="srgba(97.8653%,81.857%,83.0671%,1)"/>
  <circle cx="3" cy="4" r="1" fill="srgba(92.6024%,37.1267%,41.3184%,1)"/>
  <circle cx="4" cy="4" r="1" fill="srgba(89.3843%,9.77188%,15.787%,1)"/>
  <circle cx="5" cy="4" r="1" fill="srgba(88.368%,1.13222%,7.72259%,1)"/>
  <circle cx="6" cy="4" r="1" fill="srgba(88.2261%,0%,6.59495%,1)"/>
  <circle cx="7" cy="4" r="1" fill="srgba(225,0,17,1)"/>
  <circle cx="8" cy="4" r="1" fill="srgba(225,0,17,1)"/>
  <circle cx="9" cy="4" r="1" fill="srgba(225,0,17,1)"/>
  <circle cx="10" cy="4" r="1" fill="srgba(225,0,17,1)"/>
  <circle cx="11" cy="4" r="1" fill="srgba(225,0,17,1)"/>
  <circle cx="12" cy="4" r="1" fill="srgba(225,0,17,1)"/>
  <circle cx="13" cy="4" r="1" fill="srgba(225,0,17,1)"/>
  <circle cx="14" cy="4" r="1" fill="srgba(225,0,17,1)"/>
  <circle cx="15" cy="4" r="1" fill="srgba(225,0,17,1)"/>
  <circle cx="0" cy="5" r="1" fill="white"/>
  <circle cx="1" cy="5" r="1" fill="white"/>
  <circle cx="2" cy="5" r="1" fill="srgba(98.3734%,86.1738%,87.0954%,1)"/>
  <circle cx="3" cy="5" r="1" fill="srgba(94.9248%,56.878%,59.7513%,1)"/>
  <circle cx="4" cy="5" r="1" fill="srgba(92.3049%,34.6059%,38.9639%,1)"/>
  <circle cx="5" cy="5" r="1" fill="srgba(88.925%,5.86557%,12.1416%,1)"/>
  <circle cx="6" cy="5" r="1" fill="srgba(88.1941%,0%,6.33555%,1)"/>
  <circle cx="7" cy="5" r="1" fill="srgba(225,0,17,1)"/>
  <circle cx="8" cy="5" r="1" fill="srgba(225,0,17,1)"/>
  <circle cx="9" cy="5" r="1" fill="srgba(225,0,17,1)"/>
  <circle cx="10" cy="5" r="1" fill="srgba(225,0,17,1)"/>
  <circle cx="11" cy="5" r="1" fill="srgba(225,0,17,1)"/>
  <circle cx="12" cy="5" r="1" fill="srgba(225,0,17,1)"/>
  <circle cx="13" cy="5" r="1" fill="srgba(225,0,17,1)"/>
  <circle cx="14" cy="5" r="1" fill="srgba(225,0,17,1)"/>
  <circle cx="15" cy="5" r="1" fill="srgba(225,0,17,1)"/>
  <circle cx="0" cy="6" r="1" fill="white"/>
  <circle cx="1" cy="6" r="1" fill="white"/>
  <circle cx="2" cy="6" r="1" fill="srgba(98.5397%,87.5944%,88.4215%,1)"/>
  <circle cx="3" cy="6" r="1" fill="srgba(96.3104%,68.6488%,70.7378%,1)"/>
  <circle cx="4" cy="6" r="1" fill="srgba(92.1294%,33.1075%,37.5662%,1)"/>
  <circle cx="5" cy="6" r="1" fill="srgba(88.6046%,3.14794%,9.60403%,1)"/>
  <circle cx="6" cy="6" r="1" fill="srgba(88.2109%,0%,6.46983%,1)"/>
  <circle cx="7" cy="6" r="1" fill="srgba(225,0,17,1)"/>
  <circle cx="8" cy="6" r="1" fill="srgba(225,0,17,1)"/>
  <circle cx="9" cy="6" r="1" fill="srgba(225,0,17,1)"/>
  <circle cx="10" cy="6" r="1" fill="srgba(225,0,17,1)"/>
  <circle cx="11" cy="6" r="1" fill="srgba(225,0,17,1)"/>
  <circle cx="12" cy="6" r="1" fill="srgba(225,0,17,1)"/>
  <circle cx="13" cy="6" r="1" fill="srgba(225,0,17,1)"/>
  <circle cx="14" cy="6" r="1" fill="srgba(225,0,17,1)"/>
  <circle cx="15" cy="6" r="1" fill="srgba(225,0,17,1)"/>
  <circle cx="0" cy="7" r="1" fill="white"/>
  <circle cx="1" cy="7" r="1" fill="white"/>
  <circle cx="2" cy="7" r="1" fill="srgba(98.6984%,88.9403%,89.6773%,1)"/>
  <circle cx="3" cy="7" r="1" fill="srgba(95.0713%,58.1155%,60.9079%,1)"/>
  <circle cx="4" cy="7" r="1" fill="srgba(91.3054%,26.0975%,31.0246%,1)"/>
  <circle cx="5" cy="7" r="1" fill="srgba(88.5466%,2.65049%,9.14015%,1)"/>
  <circle cx="6" cy="7" r="1" fill="srgba(88.2139%,0%,6.50187%,1)"/>
  <circle cx="7" cy="7" r="1" fill="srgba(225,0,17,1)"/>
  <circle cx="8" cy="7" r="1" fill="srgba(225,0,17,1)"/>
  <circle cx="9" cy="7" r="1" fill="srgba(225,0,17,1)"/>
  <circle cx="10" cy="7" r="1" fill="srgba(225,0,17,1)"/>
  <circle cx="11" cy="7" r="1" fill="srgba(225,0,17,1)"/>
  <circle cx="12" cy="7" r="1" fill="srgba(225,0,17,1)"/>
  <circle cx="13" cy="7" r="1" fill="srgba(225,0,17,1)"/>
  <circle cx="14" cy="7" r="1" fill="srgba(225,0,17,1)"/>
  <circle cx="15" cy="7" r="1" fill="srgba(225,0,17,1)"/>
  <circle cx="0" cy="8" r="1" fill="white"/>
  <circle cx="1" cy="8" r="1" fill="white"/>
  <circle cx="2" cy="8" r="1" fill="srgba(98.7182%,89.1096%,89.8344%,1)"/>
  <circle cx="3" cy="8" r="1" fill="srgba(95.1064%,58.4131%,61.1841%,1)"/>
  <circle cx="4" cy="8" r="1" fill="srgba(91.2642%,25.745%,30.695%,1)"/>
  <circle cx="5" cy="8" r="1" fill="srgba(88.5328%,2.52842%,9.02571%,1)"/>
  <circle cx="6" cy="8" r="1" fill="srgba(88.2155%,0%,6.50797%,1)"/>
  <circle cx="7" cy="8" r="1" fill="srgba(225,0,17,1)"/>
  <circle cx="8" cy="8" r="1" fill="srgba(225,0,17,1)"/>
  <circle cx="9" cy="8" r="1" fill="srgba(225,0,17,1)"/>
  <circle cx="10" cy="8" r="1" fill="srgba(225,0,17,1)"/>
  <circle cx="11" cy="8" r="1" fill="srgba(225,0,17,1)"/>
  <circle cx="12" cy="8" r="1" fill="srgba(225,0,17,1)"/>
  <circle cx="13" cy="8" r="1" fill="srgba(225,0,17,1)"/>
  <circle cx="14" cy="8" r="1" fill="srgba(225,0,17,1)"/>
  <circle cx="15" cy="8" r="1" fill="srgba(225,0,17,1)"/>
  <circle cx="0" cy="9" r="1" fill="white"/>
  <circle cx="1" cy="9" r="1" fill="white"/>
  <circle cx="2" cy="9" r="1" fill="srgba(98.7076%,89.0211%,89.7536%,1)"/>
  <circle cx="3" cy="9" r="1" fill="srgba(95.1415%,58.7106%,61.4618%,1)"/>
  <circle cx="4" cy="9" r="1" fill="srgba(91.3436%,26.4195%,31.3252%,1)"/>
  <circle cx="5" cy="9" r="1" fill="srgba(88.5481%,2.6566%,9.14626%,1)"/>
  <circle cx="6" cy="9" r="1" fill="srgba(88.2139%,0%,6.50187%,1)"/>
  <circle cx="7" cy="9" r="1" fill="srgba(225,0,17,1)"/>
  <circle cx="8" cy="9" r="1" fill="srgba(225,0,17,1)"/>
  <circle cx="9" cy="9" r="1" fill="srgba(225,0,17,1)"/>
  <circle cx="10" cy="9" r="1" fill="srgba(225,0,17,1)"/>
  <circle cx="11" cy="9" r="1" fill="srgba(225,0,17,1)"/>
  <circle cx="12" cy="9" r="1" fill="srgba(225,0,17,1)"/>
  <circle cx="13" cy="9" r="1" fill="srgba(225,0,17,1)"/>
  <circle cx="14" cy="9" r="1" fill="srgba(225,0,17,1)"/>
  <circle cx="15" cy="9" r="1" fill="srgba(225,0,17,1)"/>
  <circle cx="0" cy="10" r="1" fill="white"/>
  <circle cx="1" cy="10" r="1" fill="white"/>
  <circle cx="2" cy="10" r="1" fill="srgba(98.7182%,89.1096%,89.8344%,1)"/>
  <circle cx="3" cy="10" r="1" fill="srgba(95.1064%,58.4131%,61.1841%,1)"/>
  <circle cx="4" cy="10" r="1" fill="srgba(91.2642%,25.745%,30.695%,1)"/>
  <circle cx="5" cy="10" r="1" fill="srgba(88.5328%,2.52842%,9.02571%,1)"/>
  <circle cx="6" cy="10" r="1" fill="srgba(88.2155%,0%,6.50797%,1)"/>
  <circle cx="7" cy="10" r="1" fill="srgba(225,0,17,1)"/>
  <circle cx="8" cy="10" r="1" fill="srgba(225,0,17,1)"/>
  <circle cx="9" cy="10" r="1" fill="srgba(225,0,17,1)"/>
  <circle cx="10" cy="10" r="1" fill="srgba(225,0,17,1)"/>
  <circle cx="11" cy="10" r="1" fill="srgba(225,0,17,1)"/>
  <circle cx="12" cy="10" r="1" fill="srgba(225,0,17,1)"/>
  <circle cx="13" cy="10" r="1" fill="srgba(225,0,17,1)"/>
  <circle cx="14" cy="10" r="1" fill="srgba(225,0,17,1)"/>
  <circle cx="15" cy="10" r="1" fill="srgba(225,0,17,1)"/>
  <circle cx="0" cy="11" r="1" fill="white"/>
  <circle cx="1" cy="11" r="1" fill="white"/>
  <circle cx="2" cy="11" r="1" fill="srgba(98.7076%,89.0211%,89.7536%,1)"/>
  <circle cx="3" cy="11" r="1" fill="srgba(95.1415%,58.7106%,61.4618%,1)"/>
  <circle cx="4" cy="11" r="1" fill="srgba(91.3436%,26.4195%,31.3252%,1)"/>
  <circle cx="5" cy="11" r="1" fill="srgba(88.5481%,2.6566%,9.14626%,1)"/>
  <circle cx="6" cy="11" r="1" fill="srgba(88.2139%,0%,6.50187%,1)"/>
  <circle cx="7" cy="11" r="1" fill="srgba(225,0,17,1)"/>
  <circle cx="8" cy="11" r="1" fill="srgba(225,0,17,1)"/>
  <circle cx="9" cy="11" r="1" fill="srgba(225,0,17,1)"/>
  <circle cx="10" cy="11" r="1" fill="srgba(225,0,17,1)"/>
  <circle cx="11" cy="11" r="1" fill="srgba(225,0,17,1)"/>
  <circle cx="12" cy="11" r="1" fill="srgba(225,0,17,1)"/>
  <circle cx="13" cy="11" r="1" fill="srgba(225,0,17,1)"/>
  <circle cx="14" cy="11" r="1" fill="srgba(225,0,17,1)"/>
  <circle cx="15" cy="11" r="1" fill="srgba(225,0,17,1)"/>
  <circle cx="0" cy="12" r="1" fill="white"/>
  <circle cx="1" cy="12" r="1" fill="white"/>
  <circle cx="2" cy="12" r="1" fill="srgba(98.7182%,89.1096%,89.8344%,1)"/>
  <circle cx="3" cy="12" r="1" fill="srgba(95.1064%,58.4131%,61.1841%,1)"/>
  <circle cx="4" cy="12" r="1" fill="srgba(91.2642%,25.745%,30.695%,1)"/>
  <circle cx="5" cy="12" r="1" fill="srgba(88.5328%,2.52842%,9.02571%,1)"/>
  <circle cx="6" cy="12" r="1" fill="srgba(88.2155%,0%,6.50797%,1)"/>
  <circle cx="7" cy="12" r="1" fill="srgba(225,0,17,1)"/>
  <circle cx="8" cy="12" r="1" fill="srgba(225,0,17,1)"/>
  <circle cx="9" cy="12" r="1" fill="srgba(225,0,17,1)"/>
  <circle cx="10" cy="12" r="1" fill="srgba(225,0,17,1)"/>
  <circle cx="11" cy="12" r="1" fill="srgba(225,0,17,1)"/>
  <circle cx="12" cy="12" r="1" fill="srgba(225,0,17,1)"/>
  <circle cx="13" cy="12" r="1" fill="srgba(225,0,17,1)"/>
  <circle cx="14" cy="12" r="1" fill="srgba(225,0,17,1)"/>
  <circle cx="15" cy="12" r="1" fill="srgba(225,0,17,1)"/>
  <circle cx="0" cy="13" r="1" fill="white"/>
  <circle cx="1" cy="13" r="1" fill="white"/>
  <circle cx="2" cy="13" r="1" fill="srgba(98.7076%,89.0211%,89.7536%,1)"/>
  <circle cx="3" cy="13" r="1" fill="srgba(95.1415%,58.7106%,61.4618%,1)"/>
  <circle cx="4" cy="13" r="1" fill="srgba(91.3436%,26.4195%,31.3252%,1)"/>
  <circle cx="5" cy="13" r="1" fill="srgba(88.5481%,2.6566%,9.14626%,1)"/>
  <circle cx="6" cy="13" r="1" fill="srgba(88.2139%,0%,6.50187%,1)"/>
  <circle cx="7" cy="13" r="1" fill="srgba(225,0,17,1)"/>
  <circle cx="8" cy="13" r="1" fill="srgba(225,0,17,1)"/>
  <circle cx="9" cy="13" r="1" fill="srgba(225,0,17,1)"/>
  <circle cx="10" cy="13" r="1" fill="srgba(225,0,17,1)"/>
  <circle cx="11" cy="13" r="1" fill="srgba(225,0,17,1)"/>
  <circle cx="12" cy="13" r="1" fill="srgba(225,0,17,1)"/>
  <circle cx="13" cy="13" r="1" fill="srgba(225,0,17,1)"/>
  <circle cx="14" cy="13" r="1" fill="srgba(225,0,17,1)"/>
  <circle cx="15" cy="13" r="1" fill="srgba(225,0,17,1)"/>
  <circle cx="0" cy="14" r="1" fill="white"/>
  <circle cx="1" cy="14" r="1" fill="white"/>
  <circle cx="2" cy="14" r="1" fill="srgba(98.6923%,88.8899%,89.63%,1)"/>
  <circle cx="3" cy="14" r="1" fill="srgba(95.0576%,57.9995%,60.7996%,1)"/>
  <circle cx="4" cy="14" r="1" fill="srgba(91.2413%,25.5543%,30.5165%,1)"/>
  <circle cx="5" cy="14" r="1" fill="srgba(88.5313%,2.51011%,9.01045%,1)"/>
  <circle cx="6" cy="14" r="1" fill="srgba(88.2155%,0%,6.5095%,1)"/>
  <circle cx="7" cy="14" r="1" fill="srgba(225,0,17,1)"/>
  <circle cx="8" cy="14" r="1" fill="srgba(225,0,17,1)"/>
  <circle cx="9" cy="14" r="1" fill="srgba(225,0,17,1)"/>
  <circle cx="10" cy="14" r="1" fill="srgba(225,0,17,1)"/>
  <circle cx="11" cy="14" r="1" fill="srgba(225,0,17,1)"/>
  <circle cx="12" cy="14" r="1" fill="srgba(225,0,17,1)"/>
  <circle cx="13" cy="14" r="1" fill="srgba(225,0,17,1)"/>
  <circle cx="14" cy="14" r="1" fill="srgba(225,0,17,1)"/>
  <circle cx="15" cy="14" r="1" fill="srgba(225,0,17,1)"/>
  <circle cx="0" cy="15" r="1" fill="srgba(99.968%,99.7223%,99.7391%,1)"/>
  <circle cx="1" cy="15" r="1" fill="srgba(99.9786%,99.8123%,99.8215%,1)"/>
  <circle cx="2" cy="15" r="1" fill="srgba(99.144%,92.7306%,93.2128%,1)"/>
  <circle cx="3" cy="15" r="1" fill="srgba(96.1349%,67.1489%,69.337%,1)"/>
  <circle cx="4" cy="15" r="1" fill="srgba(91.9585%,31.6457%,36.2036%,1)"/>
  <circle cx="5" cy="15" r="1" fill="srgba(88.6168%,3.23796%,9.68795%,1)"/>
  <circle cx="6" cy="15" r="1" fill="srgba(88.2094%,0%,6.46677%,1)"/>
  <circle cx="7" cy="15" r="1" fill="srgba(225,0,17,1)"/>
  <circle cx="8" cy="15" r="1" fill="srgba(225,0,17,1)"/>
  <circle cx="9" cy="15" r="1" fill="srgba(225,0,17,1)"/>
  <circle cx="10" cy="15" r="1" fill="srgba(225,0,17,1)"/>
  <circle cx="11" cy="15" r="1" fill="srgba(225,0,17,1)"/>
  <circle cx="12" cy="15" r="1" fill="srgba(225,0,17,1)"/>
  <circle cx="13" cy="15" r="1" fill="srgba(225,0,17,1)"/>
  <circle cx="14" cy="15" r="1" fill="srgba(225,0,17,1)"/>
  <circle cx="15" cy="15" r="1" fill="srgba(225,0,17,1)"/>
</svg>
