<?xml version="1.0" standalone="no"?>
<!DOCTYPE svg PUBLIC "-//W3C//DTD SVG 20010904//EN"
  "http://www.w3.org/TR/2001/REC-SVG-20010904/DTD/svg10.dtd">
<svg width="16" height="16">
  <circle cx="0" cy="0" r="1" fill="red"/>
  <circle cx="1" cy="0" r="1" fill="red"/>
  <circle cx="2" cy="0" r="1" fill="red"/>
  <circle cx="3" cy="0" r="1" fill="red"/>
  <circle cx="4" cy="0" r="1" fill="red"/>
  <circle cx="5" cy="0" r="1" fill="red"/>
  <circle cx="6" cy="0" r="1" fill="red"/>
  <circle cx="7" cy="0" r="1" fill="red"/>
  <circle cx="8" cy="0" r="1" fill="red"/>
  <circle cx="9" cy="0" r="1" fill="red"/>
  <circle cx="10" cy="0" r="1" fill="red"/>
  <circle cx="11" cy="0" r="1" fill="red"/>
  <circle cx="12" cy="0" r="1" fill="red"/>
  <circle cx="13" cy="0" r="1" fill="red"/>
  <circle cx="14" cy="0" r="1" fill="red"/>
  <circle cx="15" cy="0" r="1" fill="red"/>
  <circle cx="0" cy="1" r="1" fill="srgba(100%,6.58579%,6.58579%,1)"/>
  <circle cx="1" cy="1" r="1" fill="srgba(100%,0.00762951%,0.00762951%,1)"/>
  <circle cx="2" cy="1" r="1" fill="red"/>
  <circle cx="3" cy="1" r="1" fill="red"/>
  <circle cx="4" cy="1" r="1" fill="red"/>
  <circle cx="5" cy="1" r="1" fill="red"/>
  <circle cx="6" cy="1" r="1" fill="red"/>
  <circle cx="7" cy="1" r="1" fill="red"/>
  <circle cx="8" cy="1" r="1" fill="red"/>
  <circle cx="9" cy="1" r="1" fill="red"/>
  <circle cx="10" cy="1" r="1" fill="red"/>
  <circle cx="11" cy="1" r="1" fill="red"/>
  <circle cx="12" cy="1" r="1" fill="red"/>
  <circle cx="13" cy="1" r="1" fill="red"/>
  <circle cx="14" cy="1" r="1" fill="srgba(100%,0.793469%,0.793469%,1)"/>
  <circle cx="15" cy="1" r="1" fill="srgba(100%,14.9828%,14.9828%,1)"/>
  <circle cx="0" cy="2" r="1" fill="srgba(100%,75.3552%,75.3552%,1)"/>
  <circle cx="1" cy="2" r="1" fill="srgba(100%,32.9%,32.9%,1)"/>
  <circle cx="2" cy="2" r="1" fill="srgba(100%,3.19982%,3.19982%,1)"/>
  <circle cx="3" cy="2" r="1" fill="red"/>
  <circle cx="4" cy="2" r="1" fill="red"/>
  <circle cx="5" cy="2" r="1" fill="red"/>
  <circle cx="6" cy="2" r="1" fill="red"/>
  <circle cx="7" cy="2" r="1" fill="red"/>
  <circle cx="8" cy="2" r="1" fill="red"/>
  <circle cx="9" cy="2" r="1" fill="red"/>
  <circle cx="10" cy="2" r="1" fill="red"/>
  <circle cx="11" cy="2" r="1" fill="red"/>
  <circle cx="12" cy="2" r="1" fill="red"/>
  <circle cx="13" cy="2" r="1" fill="srgba(100%,8.94179%,8.94179%,1)"/>
  <circle cx="14" cy="2" r="1" fill="srgba(100%,48.0766%,48.0766%,1)"/>
  <circle cx="15" cy="2" r="1" fill="srgba(100%,87.0878%,87.0878%,1)"/>
  <circle cx="0" cy="3" r="1" fill="white"/>
  <circle cx="1" cy="3" r="1" fill="srgba(100%,95.8526%,95.8526%,1)"/>
  <circle cx="2" cy="3" r="1" fill="srgba(100%,64.3198%,64.3198%,1)"/>
  <circle cx="3" cy="3" r="1" fill="srgba(100%,19.2355%,19.2355%,1)"/>
  <circle cx="4" cy="3" r="1" fill="srgba(100%,0.581369%,0.581369%,1)"/>
  <circle cx="5" cy="3" r="1" fill="srgba(100%,13.2937%,13.2937%,1)"/>
  <circle cx="6" cy="3" r="1" fill="srgba(100%,42.6825%,42.6825%,1)"/>
  <circle cx="7" cy="3" r="1" fill="srgba(100%,59.0417%,59.0417%,1)"/>
  <circle cx="8" cy="3" r="1" fill="srgba(100%,55.903%,55.903%,1)"/>
  <circle cx="9" cy="3" r="1" fill="srgba(100%,33.4646%,33.4646%,1)"/>
  <circle cx="10" cy="3" r="1" fill="srgba(100%,5.9968%,5.9968%,1)"/>
  <circle cx="11" cy="3" r="1" fill="srgba(100%,2.94957%,2.94957%,1)"/>
  <circle cx="12" cy="3" r="1" fill="srgba(100%,32.4163%,32.4163%,1)"/>
  <circle cx="13" cy="3" r="1" fill="srgba(100%,78.0835%,78.0835%,1)"/>
  <circle cx="14" cy="3" r="1" fill="srgba(100%,99.0753%,99.0753%,1)"/>
  <circle cx="15" cy="3" r="1" fill="white"/>
  <circle cx="0" cy="4" r="1" fill="srgba(92.7642%,98.6374%,92.7642%,1)"/>
  <circle cx="1" cy="4" r="1" fill="srgba(99.9649%,100%,99.9756%,1)"/>
  <circle cx="2" cy="4" r="1" fill="white"/>
  <circle cx="3" cy="4" r="1" fill="srgba(100%,88.6412%,88.6412%,1)"/>
  <circle cx="4" cy="4" r="1" fill="srgba(100%,59.2996%,59.2996%,1)"/>
  <circle cx="5" cy="4" r="1" fill="srgba(100%,82.8504%,82.8504%,1)"/>
  <circle cx="6" cy="4" r="1" fill="srgba(100%,99.7391%,99.7391%,1)"/>
  <circle cx="7" cy="4" r="1" fill="white"/>
  <circle cx="8" cy="4" r="1" fill="white"/>
  <circle cx="9" cy="4" r="1" fill="srgba(100%,97.818%,97.818%,1)"/>
  <circle cx="10" cy="4" r="1" fill="srgba(100%,71.0018%,71.0018%,1)"/>
  <circle cx="11" cy="4" r="1" fill="srgba(100%,65.9129%,65.9129%,1)"/>
  <circle cx="12" cy="4" r="1" fill="srgba(100%,95.6878%,95.6878%,1)"/>
  <circle cx="13" cy="4" r="1" fill="white"/>
  <circle cx="14" cy="4" r="1" fill="srgba(99.0616%,99.823%,99.0616%,1)"/>
  <circle cx="15" cy="4" r="1" fill="srgba(83.946%,96.9772%,83.946%,1)"/>
  <circle cx="0" cy="5" r="1" fill="srgba(23.4531%,85.5909%,23.4531%,1)"/>
  <circle cx="1" cy="5" r="1" fill="srgba(65.8%,93.5622%,65.8%,1)"/>
  <circle cx="2" cy="5" r="1" fill="srgba(96.4263%,99.3271%,96.4263%,1)"/>
  <circle cx="3" cy="5" r="1" fill="white"/>
  <circle cx="4" cy="5" r="1" fill="white"/>
  <circle cx="5" cy="5" r="1" fill="white"/>
  <circle cx="6" cy="5" r="1" fill="srgba(99.2447%,99.8032%,99.1455%,1)"/>
  <circle cx="7" cy="5" r="1" fill="srgba(92.3262%,93.0282%,86.3569%,1)"/>
  <circle cx="8" cy="5" r="1" fill="srgba(96.199%,96.9818%,93.7011%,1)"/>
  <circle cx="9" cy="5" r="1" fill="white"/>
  <circle cx="10" cy="5" r="1" fill="white"/>
  <circle cx="11" cy="5" r="1" fill="white"/>
  <circle cx="12" cy="5" r="1" fill="white"/>
  <circle cx="13" cy="5" r="1" fill="srgba(90.3655%,98.1857%,90.3655%,1)"/>
  <circle cx="14" cy="5" r="1" fill="srgba(50.5211%,90.6859%,50.5211%,1)"/>
  <circle cx="15" cy="5" r="1" fill="srgba(12.0394%,83.4409%,12.0394%,1)"/>
  <circle cx="0" cy="6" r="1" fill="srgba(0%,80.9155%,0%,1)"/>
  <circle cx="1" cy="6" r="1" fill="srgba(3.72473%,81.7807%,3.72473%,1)"/>
  <circle cx="2" cy="6" r="1" fill="srgba(34.8013%,87.7302%,34.8013%,1)"/>
  <circle cx="3" cy="6" r="1" fill="srgba(87.2663%,97.6028%,87.2663%,1)"/>
  <circle cx="4" cy="6" r="1" fill="white"/>
  <circle cx="5" cy="6" r="1" fill="white"/>
  <circle cx="6" cy="6" r="1" fill="srgba(93.9544%,95.7794%,90.5089%,1)"/>
  <circle cx="7" cy="6" r="1" fill="srgba(82.2827%,39.2309%,23.9979%,1)"/>
  <circle cx="8" cy="6" r="1" fill="srgba(77.9294%,71.5389%,52.4193%,1)"/>
  <circle cx="9" cy="6" r="1" fill="srgba(98.0926%,100%,99.2035%,1)"/>
  <circle cx="10" cy="6" r="1" fill="white"/>
  <circle cx="11" cy="6" r="1" fill="white"/>
  <circle cx="12" cy="6" r="1" fill="srgba(72.0043%,94.7295%,72.0043%,1)"/>
  <circle cx="13" cy="6" r="1" fill="srgba(20.5997%,85.0538%,20.5997%,1)"/>
  <circle cx="14" cy="6" r="1" fill="srgba(0.761425%,81.1475%,0.761425%,1)"/>
  <circle cx="15" cy="6" r="1" fill="srgba(0%,81.0163%,0%,1)"/>
  <circle cx="0" cy="7" r="1" fill="srgba(0%,81.1795%,0%,1)"/>
  <circle cx="1" cy="7" r="1" fill="srgba(0%,81.0956%,0%,1)"/>
  <circle cx="2" cy="7" r="1" fill="srgba(2.36973%,81.4054%,2.36973%,1)"/>
  <circle cx="3" cy="7" r="1" fill="srgba(71.3787%,94.58%,71.3787%,1)"/>
  <circle cx="4" cy="7" r="1" fill="white"/>
  <circle cx="5" cy="7" r="1" fill="white"/>
  <circle cx="6" cy="7" r="1" fill="srgba(96.8521%,98.2483%,95.5077%,1)"/>
  <circle cx="7" cy="7" r="1" fill="srgba(85.0019%,70.6569%,57.6013%,1)"/>
  <circle cx="8" cy="7" r="1" fill="srgba(76.9955%,84.0772%,64.0513%,1)"/>
  <circle cx="9" cy="7" r="1" fill="srgba(98.0148%,100%,98.4253%,1)"/>
  <circle cx="10" cy="7" r="1" fill="white"/>
  <circle cx="11" cy="7" r="1" fill="white"/>
  <circle cx="12" cy="7" r="1" fill="srgba(43.534%,89.2744%,43.534%,1)"/>
  <circle cx="13" cy="7" r="1" fill="srgba(0%,80.6744%,0%,1)"/>
  <circle cx="14" cy="7" r="1" fill="srgba(0%,81.1627%,0%,1)"/>
  <circle cx="15" cy="7" r="1" fill="srgba(0.00762951%,81.178%,0.00762951%,1)"/>
  <circle cx="0" cy="8" r="1" fill="srgba(0%,81.1795%,0%,1)"/>
  <circle cx="1" cy="8" r="1" fill="srgba(0%,81.0941%,0%,1)"/>
  <circle cx="2" cy="8" r="1" fill="srgba(2.3682%,81.4054%,2.3682%,1)"/>
  <circle cx="3" cy="8" r="1" fill="srgba(71.3664%,94.5785%,71.3664%,1)"/>
  <circle cx="4" cy="8" r="1" fill="white"/>
  <circle cx="5" cy="8" r="1" fill="srgba(98.6755%,99.8459%,98.9197%,1)"/>
  <circle cx="6" cy="8" r="1" fill="srgba(99.4034%,99.9298%,99.5178%,1)"/>
  <circle cx="7" cy="8" r="1" fill="srgba(99.0509%,99.9603%,99.353%,1)"/>
  <circle cx="8" cy="8" r="1" fill="srgba(97.6959%,99.7086%,97.8119%,1)"/>
  <circle cx="9" cy="8" r="1" fill="srgba(98.674%,99.8352%,98.8769%,1)"/>
  <circle cx="10" cy="8" r="1" fill="srgba(99.2172%,99.9115%,99.3683%,1)"/>
  <circle cx="11" cy="8" r="1" fill="white"/>
  <circle cx="12" cy="8" r="1" fill="srgba(43.5233%,89.2729%,43.5233%,1)"/>
  <circle cx="13" cy="8" r="1" fill="srgba(0%,80.6744%,0%,1)"/>
  <circle cx="14" cy="8" r="1" fill="srgba(0%,81.1627%,0%,1)"/>
  <circle cx="15" cy="8" r="1" fill="srgba(0.00762951%,81.178%,0.00762951%,1)"/>
  <circle cx="0" cy="9" r="1" fill="srgba(0%,80.914%,0%,1)"/>
  <circle cx="1" cy="9" r="1" fill="srgba(3.80713%,81.7975%,3.80713%,1)"/>
  <circle cx="2" cy="9" r="1" fill="srgba(35.0637%,87.7821%,35.0637%,1)"/>
  <circle cx="3" cy="9" r="1" fill="srgba(87.6066%,97.7813%,87.7348%,1)"/>
  <circle cx="4" cy="9" r="1" fill="srgba(96.9512%,97.821%,95.1247%,1)"/>
  <circle cx="5" cy="9" r="1" fill="srgba(84.4968%,66.0288%,52.5322%,1)"/>
  <circle cx="6" cy="9" r="1" fill="srgba(87.9103%,85.6535%,75.1278%,1)"/>
  <circle cx="7" cy="9" r="1" fill="srgba(99.5926%,100%,100%,1)"/>
  <circle cx="8" cy="9" r="1" fill="srgba(97.1664%,98.7823%,96.3149%,1)"/>
  <circle cx="9" cy="9" r="1" fill="srgba(85.0568%,68.0797%,55.0698%,1)"/>
  <circle cx="10" cy="9" r="1" fill="srgba(86.9657%,82.5498%,71.1986%,1)"/>
  <circle cx="11" cy="9" r="1" fill="srgba(99.3957%,100%,100%,1)"/>
  <circle cx="12" cy="9" r="1" fill="srgba(72.256%,94.7753%,72.2576%,1)"/>
  <circle cx="13" cy="9" r="1" fill="srgba(20.8194%,85.0965%,20.8194%,1)"/>
  <circle cx="14" cy="9" r="1" fill="srgba(0.793469%,81.1551%,0.793469%,1)"/>
  <circle cx="15" cy="9" r="1" fill="srgba(0%,81.0147%,0%,1)"/>
  <circle cx="0" cy="10" r="1" fill="srgba(23.6927%,85.6367%,23.6927%,1)"/>
  <circle cx="1" cy="10" r="1" fill="srgba(66.0655%,93.6126%,66.0655%,1)"/>
  <circle cx="2" cy="10" r="1" fill="srgba(96.5042%,99.3423%,96.5042%,1)"/>
  <circle cx="3" cy="10" r="1" fill="white"/>
  <circle cx="4" cy="10" r="1" fill="srgba(93.9239%,95.9197%,90.6661%,1)"/>
  <circle cx="5" cy="10" r="1" fill="srgba(82.0508%,41.9486%,26.3645%,1)"/>
  <circle cx="6" cy="10" r="1" fill="srgba(72.9946%,72.1324%,48.6305%,1)"/>
  <circle cx="7" cy="10" r="1" fill="srgba(98.0819%,100%,99.176%,1)"/>
  <circle cx="8" cy="10" r="1" fill="srgba(95.3124%,97.5677%,93.4859%,1)"/>
  <circle cx="9" cy="10" r="1" fill="srgba(82.6246%,44.7944%,29.6849%,1)"/>
  <circle cx="10" cy="10" r="1" fill="srgba(72.5856%,67.8843%,44.0406%,1)"/>
  <circle cx="11" cy="10" r="1" fill="srgba(96.2951%,100%,97.3663%,1)"/>
  <circle cx="12" cy="10" r="1" fill="white"/>
  <circle cx="13" cy="10" r="1" fill="srgba(90.5074%,98.2132%,90.5074%,1)"/>
  <circle cx="14" cy="10" r="1" fill="srgba(50.8064%,90.7393%,50.8064%,1)"/>
  <circle cx="15" cy="10" r="1" fill="srgba(12.2118%,83.4745%,12.2118%,1)"/>
  <circle cx="0" cy="11" r="1" fill="srgba(92.8893%,98.6618%,92.8893%,1)"/>
  <circle cx="1" cy="11" r="1" fill="srgba(99.971%,100%,99.9832%,1)"/>
  <circle cx="2" cy="11" r="1" fill="white"/>
  <circle cx="3" cy="11" r="1" fill="srgba(100%,88.5039%,88.5389%,1)"/>
  <circle cx="4" cy="11" r="1" fill="srgba(99.4491%,58.8769%,58.3963%,1)"/>
  <circle cx="5" cy="11" r="1" fill="srgba(93.0449%,77.6379%,71.5862%,1)"/>
  <circle cx="6" cy="11" r="1" fill="srgba(88.6168%,96.3134%,86.4515%,1)"/>
  <circle cx="7" cy="11" r="1" fill="srgba(99.2218%,100%,99.35%,1)"/>
  <circle cx="8" cy="11" r="1" fill="srgba(99.6658%,100%,100%,1)"/>
  <circle cx="9" cy="11" r="1" fill="srgba(93.785%,93.3822%,88.0522%,1)"/>
  <circle cx="10" cy="11" r="1" fill="srgba(88.2017%,66.5461%,56.2997%,1)"/>
  <circle cx="11" cy="11" r="1" fill="srgba(98.6343%,65.4658%,64.2771%,1)"/>
  <circle cx="12" cy="11" r="1" fill="srgba(100%,95.6146%,95.671%,1)"/>
  <circle cx="13" cy="11" r="1" fill="white"/>
  <circle cx="14" cy="11" r="1" fill="srgba(99.0906%,99.8291%,99.0906%,1)"/>
  <circle cx="15" cy="11" r="1" fill="srgba(84.1382%,97.0138%,84.1382%,1)"/>
  <circle cx="0" cy="12" r="1" fill="white"/>
  <circle cx="1" cy="12" r="1" fill="srgba(100%,95.7656%,95.7656%,1)"/>
  <circle cx="2" cy="12" r="1" fill="srgba(100%,64.0452%,64.0452%,1)"/>
  <circle cx="3" cy="12" r="1" fill="srgba(100%,19.0249%,19.0234%,1)"/>
  <circle cx="4" cy="12" r="1" fill="srgba(100%,0.543221%,0.560006%,1)"/>
  <circle cx="5" cy="12" r="1" fill="srgba(99.9985%,13.3852%,13.6919%,1)"/>
  <circle cx="6" cy="12" r="1" fill="srgba(99.9939%,42.5605%,42.9572%,1)"/>
  <circle cx="7" cy="12" r="1" fill="srgba(100%,58.8495%,58.8815%,1)"/>
  <circle cx="8" cy="12" r="1" fill="srgba(100%,55.6634%,55.6802%,1)"/>
  <circle cx="9" cy="12" r="1" fill="srgba(100%,33.402%,33.6934%,1)"/>
  <circle cx="10" cy="12" r="1" fill="srgba(99.9939%,6.0914%,6.45457%,1)"/>
  <circle cx="11" cy="12" r="1" fill="srgba(100%,2.87938%,2.91142%,1)"/>
  <circle cx="12" cy="12" r="1" fill="srgba(100%,32.1538%,32.1523%,1)"/>
  <circle cx="13" cy="12" r="1" fill="srgba(100%,77.8592%,77.8592%,1)"/>
  <circle cx="14" cy="12" r="1" fill="srgba(100%,99.0387%,99.0387%,1)"/>
  <circle cx="15" cy="12" r="1" fill="white"/>
  <circle cx="0" cy="13" r="1" fill="srgba(100%,75.1095%,75.1095%,1)"/>
  <circle cx="1" cy="13" r="1" fill="srgba(100%,32.639%,32.639%,1)"/>
  <circle cx="2" cy="13" r="1" fill="srgba(100%,3.1281%,3.1281%,1)"/>
  <circle cx="3" cy="13" r="1" fill="red"/>
  <circle cx="4" cy="13" r="1" fill="red"/>
  <circle cx="5" cy="13" r="1" fill="red"/>
  <circle cx="6" cy="13" r="1" fill="red"/>
  <circle cx="7" cy="13" r="1" fill="red"/>
  <circle cx="8" cy="13" r="1" fill="red"/>
  <circle cx="9" cy="13" r="1" fill="red"/>
  <circle cx="10" cy="13" r="1" fill="red"/>
  <circle cx="11" cy="13" r="1" fill="red"/>
  <circle cx="12" cy="13" r="1" fill="red"/>
  <circle cx="13" cy="13" r="1" fill="srgba(100%,8.80446%,8.80446%,1)"/>
  <circle cx="14" cy="13" r="1" fill="srgba(100%,47.7928%,47.7928%,1)"/>
  <circle cx="15" cy="13" r="1" fill="srgba(100%,86.9078%,86.9078%,1)"/>
  <circle cx="0" cy="14" r="1" fill="srgba(100%,6.46677%,6.46677%,1)"/>
  <circle cx="1" cy="14" r="1" fill="srgba(100%,0.0015259%,0.0015259%,1)"/>
  <circle cx="2" cy="14" r="1" fill="red"/>
  <circle cx="3" cy="14" r="1" fill="red"/>
  <circle cx="4" cy="14" r="1" fill="red"/>
  <circle cx="5" cy="14" r="1" fill="red"/>
  <circle cx="6" cy="14" r="1" fill="red"/>
  <circle cx="7" cy="14" r="1" fill="red"/>
  <circle cx="8" cy="14" r="1" fill="red"/>
  <circle cx="9" cy="14" r="1" fill="red"/>
  <circle cx="10" cy="14" r="1" fill="red"/>
  <circle cx="11" cy="14" r="1" fill="red"/>
  <circle cx="12" cy="14" r="1" fill="red"/>
  <circle cx="13" cy="14" r="1" fill="red"/>
  <circle cx="14" cy="14" r="1" fill="srgba(100%,0.764477%,0.764477%,1)"/>
  <circle cx="15" cy="14" r="1" fill="srgba(100%,14.7967%,14.7967%,1)"/>
  <circle cx="0" cy="15" r="1" fill="srgba(100%,0.0335698%,0.0335698%,1)"/>
  <circle cx="1" cy="15" r="1" fill="srgba(100%,0.123598%,0.123598%,1)"/>
  <circle cx="2" cy="15" r="1" fill="srgba(100%,0.131228%,0.131228%,1)"/>
  <circle cx="3" cy="15" r="1" fill="srgba(100%,0.131228%,0.131228%,1)"/>
  <circle cx="4" cy="15" r="1" fill="srgba(100%,0.131228%,0.131228%,1)"/>
  <circle cx="5" cy="15" r="1" fill="srgba(100%,0.131228%,0.131228%,1)"/>
  <circle cx="6" cy="15" r="1" fill="srgba(100%,0.131228%,0.131228%,1)"/>
  <circle cx="7" cy="15" r="1" fill="srgba(100%,0.131228%,0.131228%,1)"/>
  <circle cx="8" cy="15" r="1" fill="srgba(100%,0.131228%,0.131228%,1)"/>
  <circle cx="9" cy="15" r="1" fill="srgba(100%,0.131228%,0.131228%,1)"/>
  <circle cx="10" cy="15" r="1" fill="srgba(100%,0.131228%,0.131228%,1)"/>
  <circle cx="11" cy="15" r="1" fill="srgba(100%,0.131228%,0.131228%,1)"/>
  <circle cx="12" cy="15" r="1" fill="srgba(100%,0.131228%,0.131228%,1)"/>
  <circle cx="13" cy="15" r="1" fill="srgba(100%,0.132753%,0.132753%,1)"/>
  <circle cx="14" cy="15" r="1" fill="srgba(100%,0.10071%,0.10071%,1)"/>
  <circle cx="15" cy="15" r="1" fill="srgba(100%,0.00762951%,0.00762951%,1)"/>
</svg>
