<?xml version="1.0" standalone="no"?>
<!DOCTYPE svg PUBLIC "-//W3C//DTD SVG 20010904//EN"
  "http://www.w3.org/TR/2001/REC-SVG-20010904/DTD/svg10.dtd">
<svg width="16" height="16">
  <circle cx="0" cy="0" r="1" fill="srgba(49,148,0,1)"/>
  <circle cx="1" cy="0" r="1" fill="srgba(49,148,0,1)"/>
  <circle cx="2" cy="0" r="1" fill="srgba(49,148,0,1)"/>
  <circle cx="3" cy="0" r="1" fill="srgba(49,148,0,1)"/>
  <circle cx="4" cy="0" r="1" fill="srgba(19.2004%,58.0346%,0%,1)"/>
  <circle cx="5" cy="0" r="1" fill="srgba(19.0402%,57.9828%,0.0030518%,1)"/>
  <circle cx="6" cy="0" r="1" fill="srgba(68.4855%,73.8247%,0.0213626%,1)"/>
  <circle cx="7" cy="0" r="1" fill="srgba(100%,84.3732%,0%,1)"/>
  <circle cx="8" cy="0" r="1" fill="srgba(255,214,0,1)"/>
  <circle cx="9" cy="0" r="1" fill="srgba(255,214,0,1)"/>
  <circle cx="10" cy="0" r="1" fill="srgba(255,214,0,1)"/>
  <circle cx="11" cy="0" r="1" fill="srgba(255,214,0,1)"/>
  <circle cx="12" cy="0" r="1" fill="srgba(255,214,0,1)"/>
  <circle cx="13" cy="0" r="1" fill="srgba(255,214,0,1)"/>
  <circle cx="14" cy="0" r="1" fill="srgba(255,214,0,1)"/>
  <circle cx="15" cy="0" r="1" fill="srgba(255,214,0,1)"/>
  <circle cx="0" cy="1" r="1" fill="srgba(49,148,0,1)"/>
  <circle cx="1" cy="1" r="1" fill="srgba(49,148,0,1)"/>
  <circle cx="2" cy="1" r="1" fill="srgba(49,148,0,1)"/>
  <circle cx="3" cy="1" r="1" fill="srgba(49,148,0,1)"/>
  <circle cx="4" cy="1" r="1" fill="srgba(19.2004%,58.0346%,0%,1)"/>
  <circle cx="5" cy="1" r="1" fill="srgba(19.0402%,57.9828%,0.0030518%,1)"/>
  <circle cx="6" cy="1" r="1" fill="srgba(68.4855%,73.8247%,0.0213626%,1)"/>
  <circle cx="7" cy="1" r="1" fill="srgba(100%,84.3732%,0%,1)"/>
  <circle cx="8" cy="1" r="1" fill="srgba(255,214,0,1)"/>
  <circle cx="9" cy="1" r="1" fill="srgba(255,214,0,1)"/>
  <circle cx="10" cy="1" r="1" fill="srgba(255,214,0,1)"/>
  <circle cx="11" cy="1" r="1" fill="srgba(255,214,0,1)"/>
  <circle cx="12" cy="1" r="1" fill="srgba(255,214,0,1)"/>
  <circle cx="13" cy="1" r="1" fill="srgba(255,214,0,1)"/>
  <circle cx="14" cy="1" r="1" fill="srgba(255,214,0,1)"/>
  <circle cx="15" cy="1" r="1" fill="srgba(255,214,0,1)"/>
  <circle cx="0" cy="2" r="1" fill="srgba(49,148,0,1)"/>
  <circle cx="1" cy="2" r="1" fill="srgba(49,148,0,1)"/>
  <circle cx="2" cy="2" r="1" fill="srgba(49,148,0,1)"/>
  <circle cx="3" cy="2" r="1" fill="srgba(49,148,0,1)"/>
  <circle cx="4" cy="2" r="1" fill="srgba(19.2004%,58.0346%,0%,1)"/>
  <circle cx="5" cy="2" r="1" fill="srgba(19.0402%,57.9828%,0.0030518%,1)"/>
  <circle cx="6" cy="2" r="1" fill="srgba(68.4855%,73.8247%,0.0213626%,1)"/>
  <circle cx="7" cy="2" r="1" fill="srgba(100%,84.3732%,0%,1)"/>
  <circle cx="8" cy="2" r="1" fill="srgba(255,214,0,1)"/>
  <circle cx="9" cy="2" r="1" fill="srgba(255,214,0,1)"/>
  <circle cx="10" cy="2" r="1" fill="srgba(255,214,0,1)"/>
  <circle cx="11" cy="2" r="1" fill="srgba(255,214,0,1)"/>
  <circle cx="12" cy="2" r="1" fill="srgba(255,214,0,1)"/>
  <circle cx="13" cy="2" r="1" fill="srgba(255,214,0,1)"/>
  <circle cx="14" cy="2" r="1" fill="srgba(255,214,0,1)"/>
  <circle cx="15" cy="2" r="1" fill="srgba(255,214,0,1)"/>
  <circle cx="0" cy="3" r="1" fill="srgba(49,148,0,1)"/>
  <circle cx="1" cy="3" r="1" fill="srgba(49,148,0,1)"/>
  <circle cx="2" cy="3" r="1" fill="srgba(49,148,0,1)"/>
  <circle cx="3" cy="3" r="1" fill="srgba(49,148,0,1)"/>
  <circle cx="4" cy="3" r="1" fill="srgba(19.2004%,58.0346%,0%,1)"/>
  <circle cx="5" cy="3" r="1" fill="srgba(19.0402%,57.9828%,0.0030518%,1)"/>
  <circle cx="6" cy="3" r="1" fill="srgba(68.4855%,73.8247%,0.0213626%,1)"/>
  <circle cx="7" cy="3" r="1" fill="srgba(100%,84.3732%,0%,1)"/>
  <circle cx="8" cy="3" r="1" fill="srgba(255,214,0,1)"/>
  <circle cx="9" cy="3" r="1" fill="srgba(255,214,0,1)"/>
  <circle cx="10" cy="3" r="1" fill="srgba(255,214,0,1)"/>
  <circle cx="11" cy="3" r="1" fill="srgba(255,214,0,1)"/>
  <circle cx="12" cy="3" r="1" fill="srgba(255,214,0,1)"/>
  <circle cx="13" cy="3" r="1" fill="srgba(255,214,0,1)"/>
  <circle cx="14" cy="3" r="1" fill="srgba(255,214,0,1)"/>
  <circle cx="15" cy="3" r="1" fill="srgba(255,214,0,1)"/>
  <circle cx="0" cy="4" r="1" fill="srgba(49,148,0,1)"/>
  <circle cx="1" cy="4" r="1" fill="srgba(49,148,0,1)"/>
  <circle cx="2" cy="4" r="1" fill="srgba(49,148,0,1)"/>
  <circle cx="3" cy="4" r="1" fill="srgba(49,148,0,1)"/>
  <circle cx="4" cy="4" r="1" fill="srgba(19.2004%,58.0346%,0%,1)"/>
  <circle cx="5" cy="4" r="1" fill="srgba(19.0402%,57.9828%,0.0030518%,1)"/>
  <circle cx="6" cy="4" r="1" fill="srgba(68.4855%,73.8247%,0.0213626%,1)"/>
  <circle cx="7" cy="4" r="1" fill="srgba(100%,84.3732%,0%,1)"/>
  <circle cx="8" cy="4" r="1" fill="srgba(255,214,0,1)"/>
  <circle cx="9" cy="4" r="1" fill="srgba(255,214,0,1)"/>
  <circle cx="10" cy="4" r="1" fill="srgba(255,214,0,1)"/>
  <circle cx="11" cy="4" r="1" fill="srgba(255,214,0,1)"/>
  <circle cx="12" cy="4" r="1" fill="srgba(255,214,0,1)"/>
  <circle cx="13" cy="4" r="1" fill="srgba(255,214,0,1)"/>
  <circle cx="14" cy="4" r="1" fill="srgba(255,214,0,1)"/>
  <circle cx="15" cy="4" r="1" fill="srgba(255,214,0,1)"/>
  <circle cx="0" cy="5" r="1" fill="srgba(49,148,0,1)"/>
  <circle cx="1" cy="5" r="1" fill="srgba(49,148,0,1)"/>
  <circle cx="2" cy="5" r="1" fill="srgba(49,148,0,1)"/>
  <circle cx="3" cy="5" r="1" fill="srgba(49,148,0,1)"/>
  <circle cx="4" cy="5" r="1" fill="srgba(19.2004%,58.0346%,0%,1)"/>
  <circle cx="5" cy="5" r="1" fill="srgba(19.0402%,57.9828%,0.0030518%,1)"/>
  <circle cx="6" cy="5" r="1" fill="srgba(68.4855%,73.8247%,0.0213626%,1)"/>
  <circle cx="7" cy="5" r="1" fill="srgba(100%,84.3732%,0%,1)"/>
  <circle cx="8" cy="5" r="1" fill="srgba(255,214,0,1)"/>
  <circle cx="9" cy="5" r="1" fill="srgba(255,214,0,1)"/>
  <circle cx="10" cy="5" r="1" fill="srgba(255,214,0,1)"/>
  <circle cx="11" cy="5" r="1" fill="srgba(255,214,0,1)"/>
  <circle cx="12" cy="5" r="1" fill="srgba(255,214,0,1)"/>
  <circle cx="13" cy="5" r="1" fill="srgba(255,214,0,1)"/>
  <circle cx="14" cy="5" r="1" fill="srgba(255,214,0,1)"/>
  <circle cx="15" cy="5" r="1" fill="srgba(255,214,0,1)"/>
  <circle cx="0" cy="6" r="1" fill="srgba(49,148,0,1)"/>
  <circle cx="1" cy="6" r="1" fill="srgba(49,148,0,1)"/>
  <circle cx="2" cy="6" r="1" fill="srgba(49,148,0,1)"/>
  <circle cx="3" cy="6" r="1" fill="srgba(49,148,0,1)"/>
  <circle cx="4" cy="6" r="1" fill="srgba(19.2004%,58.0346%,0%,1)"/>
  <circle cx="5" cy="6" r="1" fill="srgba(19.0402%,57.9812%,0.0030518%,1)"/>
  <circle cx="6" cy="6" r="1" fill="srgba(68.4855%,74.1619%,0.0198367%,1)"/>
  <circle cx="7" cy="6" r="1" fill="srgba(100%,84.9363%,0%,1)"/>
  <circle cx="8" cy="6" r="1" fill="srgba(100%,84.4755%,0%,1)"/>
  <circle cx="9" cy="6" r="1" fill="srgba(100%,84.4755%,0%,1)"/>
  <circle cx="10" cy="6" r="1" fill="srgba(100%,84.4755%,0%,1)"/>
  <circle cx="11" cy="6" r="1" fill="srgba(100%,84.4755%,0%,1)"/>
  <circle cx="12" cy="6" r="1" fill="srgba(100%,84.4755%,0%,1)"/>
  <circle cx="13" cy="6" r="1" fill="srgba(100%,84.4755%,0%,1)"/>
  <circle cx="14" cy="6" r="1" fill="srgba(100%,84.4755%,0%,1)"/>
  <circle cx="15" cy="6" r="1" fill="srgba(100%,84.4755%,0%,1)"/>
  <circle cx="0" cy="7" r="1" fill="srgba(49,148,0,1)"/>
  <circle cx="1" cy="7" r="1" fill="srgba(49,148,0,1)"/>
  <circle cx="2" cy="7" r="1" fill="srgba(49,148,0,1)"/>
  <circle cx="3" cy="7" r="1" fill="srgba(49,148,0,1)"/>
  <circle cx="4" cy="7" r="1" fill="srgba(19.2004%,58.0362%,0%,1)"/>
  <circle cx="5" cy="7" r="1" fill="srgba(19.0448%,58.0026%,0.0015259%,1)"/>
  <circle cx="6" cy="7" r="1" fill="srgba(67.5334%,68.6061%,0.483711%,1)"/>
  <circle cx="7" cy="7" r="1" fill="srgba(99.8215%,75.6619%,0.770581%,1)"/>
  <circle cx="8" cy="7" r="1" fill="srgba(98.439%,75.3597%,0.756847%,1)"/>
  <circle cx="9" cy="7" r="1" fill="srgba(98.439%,75.3597%,0.756847%,1)"/>
  <circle cx="10" cy="7" r="1" fill="srgba(98.439%,75.3597%,0.756847%,1)"/>
  <circle cx="11" cy="7" r="1" fill="srgba(98.439%,75.3597%,0.756847%,1)"/>
  <circle cx="12" cy="7" r="1" fill="srgba(98.439%,75.3597%,0.756847%,1)"/>
  <circle cx="13" cy="7" r="1" fill="srgba(98.439%,75.3597%,0.756847%,1)"/>
  <circle cx="14" cy="7" r="1" fill="srgba(98.439%,75.3597%,0.756847%,1)"/>
  <circle cx="15" cy="7" r="1" fill="srgba(98.439%,75.3597%,0.756847%,1)"/>
  <circle cx="0" cy="8" r="1" fill="srgba(49,148,0,1)"/>
  <circle cx="1" cy="8" r="1" fill="srgba(49,148,0,1)"/>
  <circle cx="2" cy="8" r="1" fill="srgba(49,148,0,1)"/>
  <circle cx="3" cy="8" r="1" fill="srgba(49,148,0,1)"/>
  <circle cx="4" cy="8" r="1" fill="srgba(19.202%,58.0468%,0%,1)"/>
  <circle cx="5" cy="8" r="1" fill="srgba(19.0646%,58.1216%,0%,1)"/>
  <circle cx="6" cy="8" r="1" fill="srgba(61.5457%,35.7748%,3.38598%,1)"/>
  <circle cx="7" cy="8" r="1" fill="srgba(89.8314%,20.8652%,5.61379%,1)"/>
  <circle cx="8" cy="8" r="1" fill="srgba(88.6198%,21.503%,5.51766%,1)"/>
  <circle cx="9" cy="8" r="1" fill="srgba(88.6198%,21.503%,5.51766%,1)"/>
  <circle cx="10" cy="8" r="1" fill="srgba(88.6198%,21.503%,5.51766%,1)"/>
  <circle cx="11" cy="8" r="1" fill="srgba(88.6198%,21.503%,5.51766%,1)"/>
  <circle cx="12" cy="8" r="1" fill="srgba(88.6198%,21.503%,5.51766%,1)"/>
  <circle cx="13" cy="8" r="1" fill="srgba(88.6198%,21.503%,5.51766%,1)"/>
  <circle cx="14" cy="8" r="1" fill="srgba(88.6198%,21.503%,5.51766%,1)"/>
  <circle cx="15" cy="8" r="1" fill="srgba(88.6198%,21.503%,5.51766%,1)"/>
  <circle cx="0" cy="9" r="1" fill="srgba(49,148,0,1)"/>
  <circle cx="1" cy="9" r="1" fill="srgba(49,148,0,1)"/>
  <circle cx="2" cy="9" r="1" fill="srgba(49,148,0,1)"/>
  <circle cx="3" cy="9" r="1" fill="srgba(49,148,0,1)"/>
  <circle cx="4" cy="9" r="1" fill="srgba(19.2035%,58.0484%,0%,1)"/>
  <circle cx="5" cy="9" r="1" fill="srgba(19.0692%,58.1415%,0%,1)"/>
  <circle cx="6" cy="9" r="1" fill="srgba(60.531%,30.2174%,3.87732%,1)"/>
  <circle cx="7" cy="9" r="1" fill="srgba(88.1407%,11.5908%,6.43473%,1)"/>
  <circle cx="8" cy="9" r="1" fill="srgba(86.9581%,12.3873%,6.32334%,1)"/>
  <circle cx="9" cy="9" r="1" fill="srgba(86.9581%,12.3873%,6.32334%,1)"/>
  <circle cx="10" cy="9" r="1" fill="srgba(86.9581%,12.3873%,6.32334%,1)"/>
  <circle cx="11" cy="9" r="1" fill="srgba(86.9581%,12.3873%,6.32334%,1)"/>
  <circle cx="12" cy="9" r="1" fill="srgba(86.9581%,12.3873%,6.32334%,1)"/>
  <circle cx="13" cy="9" r="1" fill="srgba(86.9581%,12.3873%,6.32334%,1)"/>
  <circle cx="14" cy="9" r="1" fill="srgba(86.9581%,12.3873%,6.32334%,1)"/>
  <circle cx="15" cy="9" r="1" fill="srgba(86.9581%,12.3873%,6.32334%,1)"/>
  <circle cx="0" cy="10" r="1" fill="srgba(49,148,0,1)"/>
  <circle cx="1" cy="10" r="1" fill="srgba(49,148,0,1)"/>
  <circle cx="2" cy="10" r="1" fill="srgba(49,148,0,1)"/>
  <circle cx="3" cy="10" r="1" fill="srgba(49,148,0,1)"/>
  <circle cx="4" cy="10" r="1" fill="srgba(19.2035%,58.0484%,0%,1)"/>
  <circle cx="5" cy="10" r="1" fill="srgba(19.0692%,58.1399%,0%,1)"/>
  <circle cx="6" cy="10" r="1" fill="srgba(60.5936%,30.5547%,3.84833%,1)"/>
  <circle cx="7" cy="10" r="1" fill="srgba(88.2429%,12.1538%,6.38437%,1)"/>
  <circle cx="8" cy="10" r="1" fill="srgba(222,33,16,1)"/>
  <circle cx="9" cy="10" r="1" fill="srgba(222,33,16,1)"/>
  <circle cx="10" cy="10" r="1" fill="srgba(222,33,16,1)"/>
  <circle cx="11" cy="10" r="1" fill="srgba(222,33,16,1)"/>
  <circle cx="12" cy="10" r="1" fill="srgba(222,33,16,1)"/>
  <circle cx="13" cy="10" r="1" fill="srgba(222,33,16,1)"/>
  <circle cx="14" cy="10" r="1" fill="srgba(222,33,16,1)"/>
  <circle cx="15" cy="10" r="1" fill="srgba(222,33,16,1)"/>
  <circle cx="0" cy="11" r="1" fill="srgba(49,148,0,1)"/>
  <circle cx="1" cy="11" r="1" fill="srgba(49,148,0,1)"/>
  <circle cx="2" cy="11" r="1" fill="srgba(49,148,0,1)"/>
  <circle cx="3" cy="11" r="1" fill="srgba(49,148,0,1)"/>
  <circle cx="4" cy="11" r="1" fill="srgba(19.2035%,58.0484%,0%,1)"/>
  <circle cx="5" cy="11" r="1" fill="srgba(19.0692%,58.1399%,0%,1)"/>
  <circle cx="6" cy="11" r="1" fill="srgba(60.5936%,30.5547%,3.84833%,1)"/>
  <circle cx="7" cy="11" r="1" fill="srgba(88.2429%,12.1538%,6.38437%,1)"/>
  <circle cx="8" cy="11" r="1" fill="srgba(222,33,16,1)"/>
  <circle cx="9" cy="11" r="1" fill="srgba(222,33,16,1)"/>
  <circle cx="10" cy="11" r="1" fill="srgba(222,33,16,1)"/>
  <circle cx="11" cy="11" r="1" fill="srgba(222,33,16,1)"/>
  <circle cx="12" cy="11" r="1" fill="srgba(222,33,16,1)"/>
  <circle cx="13" cy="11" r="1" fill="srgba(222,33,16,1)"/>
  <circle cx="14" cy="11" r="1" fill="srgba(222,33,16,1)"/>
  <circle cx="15" cy="11" r="1" fill="srgba(222,33,16,1)"/>
  <circle cx="0" cy="12" r="1" fill="srgba(49,148,0,1)"/>
  <circle cx="1" cy="12" r="1" fill="srgba(49,148,0,1)"/>
  <circle cx="2" cy="12" r="1" fill="srgba(49,148,0,1)"/>
  <circle cx="3" cy="12" r="1" fill="srgba(49,148,0,1)"/>
  <circle cx="4" cy="12" r="1" fill="srgba(19.2035%,58.0484%,0%,1)"/>
  <circle cx="5" cy="12" r="1" fill="srgba(19.0692%,58.1399%,0%,1)"/>
  <circle cx="6" cy="12" r="1" fill="srgba(60.5936%,30.5547%,3.84833%,1)"/>
  <circle cx="7" cy="12" r="1" fill="srgba(88.2429%,12.1538%,6.38437%,1)"/>
  <circle cx="8" cy="12" r="1" fill="srgba(222,33,16,1)"/>
  <circle cx="9" cy="12" r="1" fill="srgba(222,33,16,1)"/>
  <circle cx="10" cy="12" r="1" fill="srgba(222,33,16,1)"/>
  <circle cx="11" cy="12" r="1" fill="srgba(222,33,16,1)"/>
  <circle cx="12" cy="12" r="1" fill="srgba(222,33,16,1)"/>
  <circle cx="13" cy="12" r="1" fill="srgba(222,33,16,1)"/>
  <circle cx="14" cy="12" r="1" fill="srgba(222,33,16,1)"/>
  <circle cx="15" cy="12" r="1" fill="srgba(222,33,16,1)"/>
  <circle cx="0" cy="13" r="1" fill="srgba(49,148,0,1)"/>
  <circle cx="1" cy="13" r="1" fill="srgba(49,148,0,1)"/>
  <circle cx="2" cy="13" r="1" fill="srgba(49,148,0,1)"/>
  <circle cx="3" cy="13" r="1" fill="srgba(49,148,0,1)"/>
  <circle cx="4" cy="13" r="1" fill="srgba(19.2035%,58.0484%,0%,1)"/>
  <circle cx="5" cy="13" r="1" fill="srgba(19.0692%,58.1399%,0%,1)"/>
  <circle cx="6" cy="13" r="1" fill="srgba(60.5936%,30.5547%,3.84833%,1)"/>
  <circle cx="7" cy="13" r="1" fill="srgba(88.2429%,12.1538%,6.38437%,1)"/>
  <circle cx="8" cy="13" r="1" fill="srgba(222,33,16,1)"/>
  <circle cx="9" cy="13" r="1" fill="srgba(222,33,16,1)"/>
  <circle cx="10" cy="13" r="1" fill="srgba(222,33,16,1)"/>
  <circle cx="11" cy="13" r="1" fill="srgba(222,33,16,1)"/>
  <circle cx="12" cy="13" r="1" fill="srgba(222,33,16,1)"/>
  <circle cx="13" cy="13" r="1" fill="srgba(222,33,16,1)"/>
  <circle cx="14" cy="13" r="1" fill="srgba(222,33,16,1)"/>
  <circle cx="15" cy="13" r="1" fill="srgba(222,33,16,1)"/>
  <circle cx="0" cy="14" r="1" fill="srgba(49,148,0,1)"/>
  <circle cx="1" cy="14" r="1" fill="srgba(49,148,0,1)"/>
  <circle cx="2" cy="14" r="1" fill="srgba(49,148,0,1)"/>
  <circle cx="3" cy="14" r="1" fill="srgba(49,148,0,1)"/>
  <circle cx="4" cy="14" r="1" fill="srgba(19.2035%,58.0484%,0%,1)"/>
  <circle cx="5" cy="14" r="1" fill="srgba(19.0692%,58.1399%,0%,1)"/>
  <circle cx="6" cy="14" r="1" fill="srgba(60.5936%,30.5547%,3.84833%,1)"/>
  <circle cx="7" cy="14" r="1" fill="srgba(88.2429%,12.1538%,6.38437%,1)"/>
  <circle cx="8" cy="14" r="1" fill="srgba(222,33,16,1)"/>
  <circle cx="9" cy="14" r="1" fill="srgba(222,33,16,1)"/>
  <circle cx="10" cy="14" r="1" fill="srgba(222,33,16,1)"/>
  <circle cx="11" cy="14" r="1" fill="srgba(222,33,16,1)"/>
  <circle cx="12" cy="14" r="1" fill="srgba(222,33,16,1)"/>
  <circle cx="13" cy="14" r="1" fill="srgba(222,33,16,1)"/>
  <circle cx="14" cy="14" r="1" fill="srgba(222,33,16,1)"/>
  <circle cx="15" cy="14" r="1" fill="srgba(222,33,16,1)"/>
  <circle cx="0" cy="15" r="1" fill="srgba(49,148,0,1)"/>
  <circle cx="1" cy="15" r="1" fill="srgba(49,148,0,1)"/>
  <circle cx="2" cy="15" r="1" fill="srgba(49,148,0,1)"/>
  <circle cx="3" cy="15" r="1" fill="srgba(49,148,0,1)"/>
  <circle cx="4" cy="15" r="1" fill="srgba(19.2035%,58.0484%,0%,1)"/>
  <circle cx="5" cy="15" r="1" fill="srgba(19.0692%,58.1399%,0%,1)"/>
  <circle cx="6" cy="15" r="1" fill="srgba(60.5936%,30.5547%,3.84833%,1)"/>
  <circle cx="7" cy="15" r="1" fill="srgba(88.2429%,12.1538%,6.38437%,1)"/>
  <circle cx="8" cy="15" r="1" fill="srgba(222,33,16,1)"/>
  <circle cx="9" cy="15" r="1" fill="srgba(222,33,16,1)"/>
  <circle cx="10" cy="15" r="1" fill="srgba(222,33,16,1)"/>
  <circle cx="11" cy="15" r="1" fill="srgba(222,33,16,1)"/>
  <circle cx="12" cy="15" r="1" fill="srgba(222,33,16,1)"/>
  <circle cx="13" cy="15" r="1" fill="srgba(222,33,16,1)"/>
  <circle cx="14" cy="15" r="1" fill="srgba(222,33,16,1)"/>
  <circle cx="15" cy="15" r="1" fill="srgba(222,33,16,1)"/>
</svg>
