<?xml version="1.0" standalone="no"?>
<!DOCTYPE svg PUBLIC "-//W3C//DTD SVG 20010904//EN"
  "http://www.w3.org/TR/2001/REC-SVG-20010904/DTD/svg10.dtd">
<svg width="16" height="16">
  <circle cx="0" cy="0" r="1" fill="srgba(59.9268%,45.684%,60.3128%,1)"/>
  <circle cx="1" cy="0" r="1" fill="srgba(65.1133%,55.5627%,68.2078%,1)"/>
  <circle cx="2" cy="0" r="1" fill="srgba(30.1915%,39.5392%,63.9231%,1)"/>
  <circle cx="3" cy="0" r="1" fill="srgba(61.3367%,35.8053%,50.2922%,1)"/>
  <circle cx="4" cy="0" r="1" fill="srgba(61.12%,34.7417%,49.3339%,1)"/>
  <circle cx="5" cy="0" r="1" fill="srgba(28.3864%,30.6889%,55.9365%,1)"/>
  <circle cx="6" cy="0" r="1" fill="srgba(63.7751%,49.9611%,63.2151%,1)"/>
  <circle cx="7" cy="0" r="1" fill="srgba(64.0024%,48.5252%,61.7533%,1)"/>
  <circle cx="8" cy="0" r="1" fill="srgba(76.5286%,12.8969%,23.2471%,1)"/>
  <circle cx="9" cy="0" r="1" fill="srgba(81.4603%,7.51049%,16.4492%,1)"/>
  <circle cx="10" cy="0" r="1" fill="srgba(207,20,43,1)"/>
  <circle cx="11" cy="0" r="1" fill="srgba(207,20,43,1)"/>
  <circle cx="12" cy="0" r="1" fill="srgba(207,20,43,1)"/>
  <circle cx="13" cy="0" r="1" fill="srgba(207,20,43,1)"/>
  <circle cx="14" cy="0" r="1" fill="srgba(207,20,43,1)"/>
  <circle cx="15" cy="0" r="1" fill="srgba(207,20,43,1)"/>
  <circle cx="0" cy="1" r="1" fill="srgba(61.3535%,33.959%,48.5008%,1)"/>
  <circle cx="1" cy="1" r="1" fill="srgba(79.1073%,41.4084%,50.0069%,1)"/>
  <circle cx="2" cy="1" r="1" fill="srgba(85.1301%,50.5333%,56.91%,1)"/>
  <circle cx="3" cy="1" r="1" fill="srgba(81.8067%,34.6365%,42.5879%,1)"/>
  <circle cx="4" cy="1" r="1" fill="srgba(81.1673%,31.5023%,39.762%,1)"/>
  <circle cx="5" cy="1" r="1" fill="srgba(83.949%,44.7456%,51.6854%,1)"/>
  <circle cx="6" cy="1" r="1" fill="srgba(80.5509%,48.809%,56.7056%,1)"/>
  <circle cx="7" cy="1" r="1" fill="srgba(64.1154%,32.6253%,46.3249%,1)"/>
  <circle cx="8" cy="1" r="1" fill="srgba(78.1796%,10.6584%,20.5493%,1)"/>
  <circle cx="9" cy="1" r="1" fill="srgba(81.3611%,7.65393%,16.6201%,1)"/>
  <circle cx="10" cy="1" r="1" fill="srgba(207,20,43,1)"/>
  <circle cx="11" cy="1" r="1" fill="srgba(207,20,43,1)"/>
  <circle cx="12" cy="1" r="1" fill="srgba(207,20,43,1)"/>
  <circle cx="13" cy="1" r="1" fill="srgba(207,20,43,1)"/>
  <circle cx="14" cy="1" r="1" fill="srgba(207,20,43,1)"/>
  <circle cx="15" cy="1" r="1" fill="srgba(207,20,43,1)"/>
  <circle cx="0" cy="2" r="1" fill="srgba(61.7411%,36.4569%,50.7927%,1)"/>
  <circle cx="1" cy="2" r="1" fill="srgba(80.7034%,49.0043%,56.8429%,1)"/>
  <circle cx="2" cy="2" r="1" fill="srgba(83.9322%,45.1026%,52.0302%,1)"/>
  <circle cx="3" cy="2" r="1" fill="srgba(81.1337%,31.7433%,40.0015%,1)"/>
  <circle cx="4" cy="2" r="1" fill="srgba(81.7777%,34.8852%,42.8351%,1)"/>
  <circle cx="5" cy="2" r="1" fill="srgba(85.1377%,50.9667%,57.3236%,1)"/>
  <circle cx="6" cy="2" r="1" fill="srgba(79.2187%,42.089%,50.6294%,1)"/>
  <circle cx="7" cy="2" r="1" fill="srgba(63.7018%,31.1345%,45.0126%,1)"/>
  <circle cx="8" cy="2" r="1" fill="srgba(78.1842%,10.8095%,20.6928%,1)"/>
  <circle cx="9" cy="2" r="1" fill="srgba(81.3611%,7.64782%,16.614%,1)"/>
  <circle cx="10" cy="2" r="1" fill="srgba(207,20,43,1)"/>
  <circle cx="11" cy="2" r="1" fill="srgba(207,20,43,1)"/>
  <circle cx="12" cy="2" r="1" fill="srgba(207,20,43,1)"/>
  <circle cx="13" cy="2" r="1" fill="srgba(207,20,43,1)"/>
  <circle cx="14" cy="2" r="1" fill="srgba(207,20,43,1)"/>
  <circle cx="15" cy="2" r="1" fill="srgba(207,20,43,1)"/>
  <circle cx="0" cy="3" r="1" fill="srgba(64.2039%,48.6564%,61.8143%,1)"/>
  <circle cx="1" cy="3" r="1" fill="srgba(65.9739%,44.6006%,57.3175%,1)"/>
  <circle cx="2" cy="3" r="1" fill="srgba(34.6441%,27.9438%,51.2657%,1)"/>
  <circle cx="3" cy="3" r="1" fill="srgba(63.5798%,31.8486%,45.7435%,1)"/>
  <circle cx="4" cy="3" r="1" fill="srgba(63.769%,32.7657%,46.569%,1)"/>
  <circle cx="5" cy="3" r="1" fill="srgba(36.2371%,35.6909%,58.2528%,1)"/>
  <circle cx="6" cy="3" r="1" fill="srgba(66.9215%,50.1289%,62.3682%,1)"/>
  <circle cx="7" cy="3" r="1" fill="srgba(64.8798%,37.1267%,50.4402%,1)"/>
  <circle cx="8" cy="3" r="1" fill="srgba(76.672%,10.1274%,20.5203%,1)"/>
  <circle cx="9" cy="3" r="1" fill="srgba(81.4511%,7.67987%,16.6171%,1)"/>
  <circle cx="10" cy="3" r="1" fill="srgba(207,20,43,1)"/>
  <circle cx="11" cy="3" r="1" fill="srgba(207,20,43,1)"/>
  <circle cx="12" cy="3" r="1" fill="srgba(207,20,43,1)"/>
  <circle cx="13" cy="3" r="1" fill="srgba(207,20,43,1)"/>
  <circle cx="14" cy="3" r="1" fill="srgba(207,20,43,1)"/>
  <circle cx="15" cy="3" r="1" fill="srgba(207,20,43,1)"/>
  <circle cx="0" cy="4" r="1" fill="srgba(82.7176%,13.196%,21.5488%,1)"/>
  <circle cx="1" cy="4" r="1" fill="srgba(74.0826%,9.71695%,20.9552%,1)"/>
  <circle cx="2" cy="4" r="1" fill="srgba(70.2327%,8.31922%,20.8392%,1)"/>
  <circle cx="3" cy="4" r="1" fill="srgba(78.2681%,10.7256%,20.5875%,1)"/>
  <circle cx="4" cy="4" r="1" fill="srgba(78.2559%,10.6661%,20.5325%,1)"/>
  <circle cx="5" cy="4" r="1" fill="srgba(70.1427%,7.88586%,20.4486%,1)"/>
  <circle cx="6" cy="4" r="1" fill="srgba(74.4381%,11.7388%,22.7985%,1)"/>
  <circle cx="7" cy="4" r="1" fill="srgba(83.0396%,15.0423%,23.2319%,1)"/>
  <circle cx="8" cy="4" r="1" fill="srgba(81.4694%,8.35279%,17.261%,1)"/>
  <circle cx="9" cy="4" r="1" fill="srgba(81.1673%,7.776%,16.8063%,1)"/>
  <circle cx="10" cy="4" r="1" fill="srgba(81.0086%,6.74449%,15.8785%,1)"/>
  <circle cx="11" cy="4" r="1" fill="srgba(80.9796%,6.36301%,15.5413%,1)"/>
  <circle cx="12" cy="4" r="1" fill="srgba(81.1368%,6.52781%,15.7046%,1)"/>
  <circle cx="13" cy="4" r="1" fill="srgba(81.2055%,6.82841%,15.9762%,1)"/>
  <circle cx="14" cy="4" r="1" fill="srgba(81.3703%,7.79889%,16.8475%,1)"/>
  <circle cx="15" cy="4" r="1" fill="srgba(81.3703%,7.86603%,16.907%,1)"/>
  <circle cx="0" cy="5" r="1" fill="srgba(81.1627%,7.54864%,16.582%,1)"/>
  <circle cx="1" cy="5" r="1" fill="srgba(81.6236%,7.69207%,16.5728%,1)"/>
  <circle cx="2" cy="5" r="1" fill="srgba(81.8128%,7.7821%,16.5988%,1)"/>
  <circle cx="3" cy="5" r="1" fill="srgba(81.355%,7.64935%,16.6186%,1)"/>
  <circle cx="4" cy="5" r="1" fill="srgba(81.355%,7.64935%,16.6186%,1)"/>
  <circle cx="5" cy="5" r="1" fill="srgba(81.8143%,7.78668%,16.6018%,1)"/>
  <circle cx="6" cy="5" r="1" fill="srgba(81.6129%,7.6173%,16.5042%,1)"/>
  <circle cx="7" cy="5" r="1" fill="srgba(81.1261%,7.39757%,16.4477%,1)"/>
  <circle cx="8" cy="5" r="1" fill="srgba(81.1765%,7.77752%,16.8063%,1)"/>
  <circle cx="9" cy="5" r="1" fill="srgba(81.0193%,8.4535%,17.3785%,1)"/>
  <circle cx="10" cy="5" r="1" fill="srgba(83.3371%,28.1971%,34.9691%,1)"/>
  <circle cx="11" cy="5" r="1" fill="srgba(83.9475%,35.6207%,41.532%,1)"/>
  <circle cx="12" cy="5" r="1" fill="srgba(81.8326%,33.5668%,39.469%,1)"/>
  <circle cx="13" cy="5" r="1" fill="srgba(81.5167%,28.2383%,34.7494%,1)"/>
  <circle cx="14" cy="5" r="1" fill="srgba(79.4308%,8.88838%,17.5586%,1)"/>
  <circle cx="15" cy="5" r="1" fill="srgba(79.5392%,7.59594%,16.4462%,1)"/>
  <circle cx="0" cy="6" r="1" fill="srgba(207,20,43,1)"/>
  <circle cx="1" cy="6" r="1" fill="srgba(207,20,43,1)"/>
  <circle cx="2" cy="6" r="1" fill="srgba(207,20,43,1)"/>
  <circle cx="3" cy="6" r="1" fill="srgba(207,20,43,1)"/>
  <circle cx="4" cy="6" r="1" fill="srgba(207,20,43,1)"/>
  <circle cx="5" cy="6" r="1" fill="srgba(207,20,43,1)"/>
  <circle cx="6" cy="6" r="1" fill="srgba(207,20,43,1)"/>
  <circle cx="7" cy="6" r="1" fill="srgba(207,20,43,1)"/>
  <circle cx="8" cy="6" r="1" fill="srgba(81.1933%,7.72412%,16.7605%,1)"/>
  <circle cx="9" cy="6" r="1" fill="srgba(80.9384%,9.8558%,18.5855%,1)"/>
  <circle cx="10" cy="6" r="1" fill="srgba(91.9905%,72.4269%,75.0362%,1)"/>
  <circle cx="11" cy="6" r="1" fill="srgba(79.2554%,80.3357%,80.6561%,1)"/>
  <circle cx="12" cy="6" r="1" fill="srgba(59.7452%,57.8714%,58.5702%,1)"/>
  <circle cx="13" cy="6" r="1" fill="srgba(58.9609%,49.1402%,51.0506%,1)"/>
  <circle cx="14" cy="6" r="1" fill="srgba(46.5843%,7.19768%,12.1843%,1)"/>
  <circle cx="15" cy="6" r="1" fill="srgba(45.0721%,2.70085%,7.9057%,1)"/>
  <circle cx="0" cy="7" r="1" fill="srgba(207,20,43,1)"/>
  <circle cx="1" cy="7" r="1" fill="srgba(207,20,43,1)"/>
  <circle cx="2" cy="7" r="1" fill="srgba(207,20,43,1)"/>
  <circle cx="3" cy="7" r="1" fill="srgba(207,20,43,1)"/>
  <circle cx="4" cy="7" r="1" fill="srgba(207,20,43,1)"/>
  <circle cx="5" cy="7" r="1" fill="srgba(207,20,43,1)"/>
  <circle cx="6" cy="7" r="1" fill="srgba(207,20,43,1)"/>
  <circle cx="7" cy="7" r="1" fill="srgba(207,20,43,1)"/>
  <circle cx="8" cy="7" r="1" fill="srgba(81.1933%,7.72259%,16.759%,1)"/>
  <circle cx="9" cy="7" r="1" fill="srgba(81.2924%,10.1625%,18.819%,1)"/>
  <circle cx="10" cy="7" r="1" fill="srgba(87.071%,68.513%,72.2332%,1)"/>
  <circle cx="11" cy="7" r="1" fill="srgba(65.0217%,68.6717%,70.312%,1)"/>
  <circle cx="12" cy="7" r="1" fill="srgba(61.6434%,61.706%,63.1388%,1)"/>
  <circle cx="13" cy="7" r="1" fill="srgba(74.8363%,76.2463%,78.1476%,1)"/>
  <circle cx="14" cy="7" r="1" fill="srgba(60.2548%,60.2853%,60.708%,1)"/>
  <circle cx="15" cy="7" r="1" fill="srgba(39.5209%,38.2773%,38.3352%,1)"/>
  <circle cx="0" cy="8" r="1" fill="srgba(207,20,43,1)"/>
  <circle cx="1" cy="8" r="1" fill="srgba(207,20,43,1)"/>
  <circle cx="2" cy="8" r="1" fill="srgba(207,20,43,1)"/>
  <circle cx="3" cy="8" r="1" fill="srgba(207,20,43,1)"/>
  <circle cx="4" cy="8" r="1" fill="srgba(207,20,43,1)"/>
  <circle cx="5" cy="8" r="1" fill="srgba(207,20,43,1)"/>
  <circle cx="6" cy="8" r="1" fill="srgba(207,20,43,1)"/>
  <circle cx="7" cy="8" r="1" fill="srgba(207,20,43,1)"/>
  <circle cx="8" cy="8" r="1" fill="srgba(81.2024%,7.72717%,16.7681%,1)"/>
  <circle cx="9" cy="8" r="1" fill="srgba(80.9323%,9.98398%,18.5473%,1)"/>
  <circle cx="10" cy="8" r="1" fill="srgba(86.4805%,67.9286%,70.132%,1)"/>
  <circle cx="11" cy="8" r="1" fill="srgba(70.5592%,72.224%,73.1121%,1)"/>
  <circle cx="12" cy="8" r="1" fill="srgba(72.1279%,72.224%,72.6497%,1)"/>
  <circle cx="13" cy="8" r="1" fill="srgba(98.9822%,98.9792%,99.0173%,1)"/>
  <circle cx="14" cy="8" r="1" fill="srgba(98.8907%,98.909%,98.9059%,1)"/>
  <circle cx="15" cy="8" r="1" fill="srgba(94.9737%,97.2473%,98.0316%,1)"/>
  <circle cx="0" cy="9" r="1" fill="srgba(207,20,43,1)"/>
  <circle cx="1" cy="9" r="1" fill="srgba(207,20,43,1)"/>
  <circle cx="2" cy="9" r="1" fill="srgba(207,20,43,1)"/>
  <circle cx="3" cy="9" r="1" fill="srgba(207,20,43,1)"/>
  <circle cx="4" cy="9" r="1" fill="srgba(207,20,43,1)"/>
  <circle cx="5" cy="9" r="1" fill="srgba(207,20,43,1)"/>
  <circle cx="6" cy="9" r="1" fill="srgba(207,20,43,1)"/>
  <circle cx="7" cy="9" r="1" fill="srgba(207,20,43,1)"/>
  <circle cx="8" cy="9" r="1" fill="srgba(81.207%,7.80957%,16.8475%,1)"/>
  <circle cx="9" cy="9" r="1" fill="srgba(80.5066%,7.82788%,16.4126%,1)"/>
  <circle cx="10" cy="9" r="1" fill="srgba(69.6605%,44.2588%,41.912%,1)"/>
  <circle cx="11" cy="9" r="1" fill="srgba(67.7333%,69.5003%,67.0649%,1)"/>
  <circle cx="12" cy="9" r="1" fill="srgba(68.2322%,66.7903%,55.8846%,1)"/>
  <circle cx="13" cy="9" r="1" fill="srgba(81.6587%,89.0043%,90.1457%,1)"/>
  <circle cx="14" cy="9" r="1" fill="srgba(69.1569%,84.9073%,90.753%,1)"/>
  <circle cx="15" cy="9" r="1" fill="srgba(52.3247%,76.9787%,85.9113%,1)"/>
  <circle cx="0" cy="10" r="1" fill="srgba(207,20,43,1)"/>
  <circle cx="1" cy="10" r="1" fill="srgba(207,20,43,1)"/>
  <circle cx="2" cy="10" r="1" fill="srgba(207,20,43,1)"/>
  <circle cx="3" cy="10" r="1" fill="srgba(207,20,43,1)"/>
  <circle cx="4" cy="10" r="1" fill="srgba(207,20,43,1)"/>
  <circle cx="5" cy="10" r="1" fill="srgba(207,20,43,1)"/>
  <circle cx="6" cy="10" r="1" fill="srgba(207,20,43,1)"/>
  <circle cx="7" cy="10" r="1" fill="srgba(207,20,43,1)"/>
  <circle cx="8" cy="10" r="1" fill="srgba(81.1765%,7.84466%,16.8643%,1)"/>
  <circle cx="9" cy="10" r="1" fill="srgba(81.2177%,6.81773%,15.9197%,1)"/>
  <circle cx="10" cy="10" r="1" fill="srgba(79.7925%,24.4724%,32.0241%,1)"/>
  <circle cx="11" cy="10" r="1" fill="srgba(68.4733%,64.8325%,61.3504%,1)"/>
  <circle cx="12" cy="10" r="1" fill="srgba(60.6958%,55.2895%,15.5138%,1)"/>
  <circle cx="13" cy="10" r="1" fill="srgba(61.0086%,69.0425%,46.6636%,1)"/>
  <circle cx="14" cy="10" r="1" fill="srgba(39.4522%,69.2592%,80.0961%,1)"/>
  <circle cx="15" cy="10" r="1" fill="srgba(38.3429%,70.3014%,81.9837%,1)"/>
  <circle cx="0" cy="11" r="1" fill="srgba(207,20,43,1)"/>
  <circle cx="1" cy="11" r="1" fill="srgba(207,20,43,1)"/>
  <circle cx="2" cy="11" r="1" fill="srgba(207,20,43,1)"/>
  <circle cx="3" cy="11" r="1" fill="srgba(207,20,43,1)"/>
  <circle cx="4" cy="11" r="1" fill="srgba(207,20,43,1)"/>
  <circle cx="5" cy="11" r="1" fill="srgba(207,20,43,1)"/>
  <circle cx="6" cy="11" r="1" fill="srgba(207,20,43,1)"/>
  <circle cx="7" cy="11" r="1" fill="srgba(207,20,43,1)"/>
  <circle cx="8" cy="11" r="1" fill="srgba(207,20,43,1)"/>
  <circle cx="9" cy="11" r="1" fill="srgba(81.2268%,6.97642%,16.0525%,1)"/>
  <circle cx="10" cy="11" r="1" fill="srgba(80.1038%,22.2766%,30.5989%,1)"/>
  <circle cx="11" cy="11" r="1" fill="srgba(63.4409%,56.7864%,43.1815%,1)"/>
  <circle cx="12" cy="11" r="1" fill="srgba(62.6505%,56.759%,11.223%,1)"/>
  <circle cx="13" cy="11" r="1" fill="srgba(84.6937%,73.9254%,13.1655%,1)"/>
  <circle cx="14" cy="11" r="1" fill="srgba(59.5972%,70.9346%,52.1614%,1)"/>
  <circle cx="15" cy="11" r="1" fill="srgba(38.7289%,70.573%,82.5422%,1)"/>
  <circle cx="0" cy="12" r="1" fill="srgba(207,20,43,1)"/>
  <circle cx="1" cy="12" r="1" fill="srgba(207,20,43,1)"/>
  <circle cx="2" cy="12" r="1" fill="srgba(207,20,43,1)"/>
  <circle cx="3" cy="12" r="1" fill="srgba(207,20,43,1)"/>
  <circle cx="4" cy="12" r="1" fill="srgba(207,20,43,1)"/>
  <circle cx="5" cy="12" r="1" fill="srgba(207,20,43,1)"/>
  <circle cx="6" cy="12" r="1" fill="srgba(207,20,43,1)"/>
  <circle cx="7" cy="12" r="1" fill="srgba(207,20,43,1)"/>
  <circle cx="8" cy="12" r="1" fill="srgba(207,20,43,1)"/>
  <circle cx="9" cy="12" r="1" fill="srgba(81.2436%,7.01152%,16.083%,1)"/>
  <circle cx="10" cy="12" r="1" fill="srgba(79.6277%,21.5259%,29.9641%,1)"/>
  <circle cx="11" cy="12" r="1" fill="srgba(64.8295%,56.7254%,37.1756%,1)"/>
  <circle cx="12" cy="12" r="1" fill="srgba(64.3946%,58.4161%,10.6996%,1)"/>
  <circle cx="13" cy="12" r="1" fill="srgba(89.0043%,77.9004%,9.16609%,1)"/>
  <circle cx="14" cy="12" r="1" fill="srgba(90.0023%,79.7116%,9.91531%,1)"/>
  <circle cx="15" cy="12" r="1" fill="srgba(54.3206%,72.8267%,59.295%,1)"/>
  <circle cx="0" cy="13" r="1" fill="srgba(207,20,43,1)"/>
  <circle cx="1" cy="13" r="1" fill="srgba(207,20,43,1)"/>
  <circle cx="2" cy="13" r="1" fill="srgba(207,20,43,1)"/>
  <circle cx="3" cy="13" r="1" fill="srgba(207,20,43,1)"/>
  <circle cx="4" cy="13" r="1" fill="srgba(207,20,43,1)"/>
  <circle cx="5" cy="13" r="1" fill="srgba(207,20,43,1)"/>
  <circle cx="6" cy="13" r="1" fill="srgba(207,20,43,1)"/>
  <circle cx="7" cy="13" r="1" fill="srgba(207,20,43,1)"/>
  <circle cx="8" cy="13" r="1" fill="srgba(207,20,43,1)"/>
  <circle cx="9" cy="13" r="1" fill="srgba(81.2345%,7.0161%,16.0906%,1)"/>
  <circle cx="10" cy="13" r="1" fill="srgba(79.7147%,21.3443%,29.7917%,1)"/>
  <circle cx="11" cy="13" r="1" fill="srgba(67.3823%,58.6007%,36.5209%,1)"/>
  <circle cx="12" cy="13" r="1" fill="srgba(66.3325%,60.2045%,10.5959%,1)"/>
  <circle cx="13" cy="13" r="1" fill="srgba(88.1422%,77.5296%,9.21798%,1)"/>
  <circle cx="14" cy="13" r="1" fill="srgba(97.0138%,81.0925%,0%,1)"/>
  <circle cx="15" cy="13" r="1" fill="srgba(87.7333%,78.9563%,11.7525%,1)"/>
  <circle cx="0" cy="14" r="1" fill="srgba(207,20,43,1)"/>
  <circle cx="1" cy="14" r="1" fill="srgba(207,20,43,1)"/>
  <circle cx="2" cy="14" r="1" fill="srgba(207,20,43,1)"/>
  <circle cx="3" cy="14" r="1" fill="srgba(207,20,43,1)"/>
  <circle cx="4" cy="14" r="1" fill="srgba(207,20,43,1)"/>
  <circle cx="5" cy="14" r="1" fill="srgba(207,20,43,1)"/>
  <circle cx="6" cy="14" r="1" fill="srgba(207,20,43,1)"/>
  <circle cx="7" cy="14" r="1" fill="srgba(207,20,43,1)"/>
  <circle cx="8" cy="14" r="1" fill="srgba(207,20,43,1)"/>
  <circle cx="9" cy="14" r="1" fill="srgba(81.2222%,7.01915%,16.0952%,1)"/>
  <circle cx="10" cy="14" r="1" fill="srgba(79.8581%,21.239%,29.7398%,1)"/>
  <circle cx="11" cy="14" r="1" fill="srgba(70.9194%,61.4832%,36.9909%,1)"/>
  <circle cx="12" cy="14" r="1" fill="srgba(68.5344%,61.5885%,9.10353%,1)"/>
  <circle cx="13" cy="14" r="1" fill="srgba(87.6967%,76.9284%,8.35126%,1)"/>
  <circle cx="14" cy="14" r="1" fill="srgba(96.6445%,81.0605%,0%,1)"/>
  <circle cx="15" cy="14" r="1" fill="srgba(96.4462%,80.856%,0%,1)"/>
  <circle cx="0" cy="15" r="1" fill="srgba(207,20,43,1)"/>
  <circle cx="1" cy="15" r="1" fill="srgba(207,20,43,1)"/>
  <circle cx="2" cy="15" r="1" fill="srgba(207,20,43,1)"/>
  <circle cx="3" cy="15" r="1" fill="srgba(207,20,43,1)"/>
  <circle cx="4" cy="15" r="1" fill="srgba(207,20,43,1)"/>
  <circle cx="5" cy="15" r="1" fill="srgba(207,20,43,1)"/>
  <circle cx="6" cy="15" r="1" fill="srgba(207,20,43,1)"/>
  <circle cx="7" cy="15" r="1" fill="srgba(207,20,43,1)"/>
  <circle cx="8" cy="15" r="1" fill="srgba(207,20,43,1)"/>
  <circle cx="9" cy="15" r="1" fill="srgba(81.1933%,7.00694%,16.0952%,1)"/>
  <circle cx="10" cy="15" r="1" fill="srgba(80.3235%,21.4054%,29.7658%,1)"/>
  <circle cx="11" cy="15" r="1" fill="srgba(74.4991%,64.3229%,37.5357%,1)"/>
  <circle cx="12" cy="15" r="1" fill="srgba(70.0328%,62.3499%,7.43114%,1)"/>
  <circle cx="13" cy="15" r="1" fill="srgba(86.9642%,76.0586%,7.28618%,1)"/>
  <circle cx="14" cy="15" r="1" fill="srgba(96.6888%,81.1124%,0%,1)"/>
  <circle cx="15" cy="15" r="1" fill="srgba(245,206,0,1)"/>
</svg>
