<?xml version="1.0" standalone="no"?>
<!DOCTYPE svg PUBLIC "-//W3C//DTD SVG 20010904//EN"
  "http://www.w3.org/TR/2001/REC-SVG-20010904/DTD/svg10.dtd">
<svg width="16" height="16">
  <circle cx="0" cy="0" r="1" fill="srgba(96.8948%,87.9652%,9.92752%,1)"/>
  <circle cx="1" cy="0" r="1" fill="srgba(96.8124%,87.6463%,7.54559%,1)"/>
  <circle cx="2" cy="0" r="1" fill="srgba(96.8475%,87.7821%,8.56641%,1)"/>
  <circle cx="3" cy="0" r="1" fill="srgba(247,224,23,1)"/>
  <circle cx="4" cy="0" r="1" fill="srgba(247,224,23,1)"/>
  <circle cx="5" cy="0" r="1" fill="srgba(247,224,23,1)"/>
  <circle cx="6" cy="0" r="1" fill="srgba(247,224,23,1)"/>
  <circle cx="7" cy="0" r="1" fill="srgba(247,224,23,1)"/>
  <circle cx="8" cy="0" r="1" fill="srgba(247,224,23,1)"/>
  <circle cx="9" cy="0" r="1" fill="srgba(247,224,23,1)"/>
  <circle cx="10" cy="0" r="1" fill="srgba(247,224,23,1)"/>
  <circle cx="11" cy="0" r="1" fill="srgba(247,224,23,1)"/>
  <circle cx="12" cy="0" r="1" fill="srgba(247,224,23,1)"/>
  <circle cx="13" cy="0" r="1" fill="srgba(247,224,23,1)"/>
  <circle cx="14" cy="0" r="1" fill="srgba(247,224,23,1)"/>
  <circle cx="15" cy="0" r="1" fill="srgba(247,224,23,1)"/>
  <circle cx="0" cy="1" r="1" fill="srgba(98.8113%,95.3902%,65.5009%,1)"/>
  <circle cx="1" cy="1" r="1" fill="srgba(97.8317%,91.5969%,37.1054%,1)"/>
  <circle cx="2" cy="1" r="1" fill="srgba(97.0626%,88.6198%,14.8241%,1)"/>
  <circle cx="3" cy="1" r="1" fill="srgba(96.8231%,87.6875%,7.85992%,1)"/>
  <circle cx="4" cy="1" r="1" fill="srgba(96.8353%,87.7348%,8.20935%,1)"/>
  <circle cx="5" cy="1" r="1" fill="srgba(96.8612%,87.8355%,8.96162%,1)"/>
  <circle cx="6" cy="1" r="1" fill="srgba(96.8627%,87.8431%,9.02419%,1)"/>
  <circle cx="7" cy="1" r="1" fill="srgba(96.8643%,87.8477%,9.01961%,1)"/>
  <circle cx="8" cy="1" r="1" fill="srgba(96.8643%,87.8492%,9.01961%,1)"/>
  <circle cx="9" cy="1" r="1" fill="srgba(247,224,23,1)"/>
  <circle cx="10" cy="1" r="1" fill="srgba(247,224,23,1)"/>
  <circle cx="11" cy="1" r="1" fill="srgba(247,224,23,1)"/>
  <circle cx="12" cy="1" r="1" fill="srgba(247,224,23,1)"/>
  <circle cx="13" cy="1" r="1" fill="srgba(247,224,23,1)"/>
  <circle cx="14" cy="1" r="1" fill="srgba(247,224,23,1)"/>
  <circle cx="15" cy="1" r="1" fill="srgba(247,224,23,1)"/>
  <circle cx="0" cy="2" r="1" fill="white"/>
  <circle cx="1" cy="2" r="1" fill="srgba(99.9008%,99.6155%,97.1191%,1)"/>
  <circle cx="2" cy="2" r="1" fill="srgba(99.2966%,97.2763%,79.6109%,1)"/>
  <circle cx="3" cy="2" r="1" fill="srgba(98.2498%,93.2204%,49.2561%,1)"/>
  <circle cx="4" cy="2" r="1" fill="srgba(97.3037%,89.5521%,21.8112%,1)"/>
  <circle cx="5" cy="2" r="1" fill="srgba(96.8688%,87.8676%,9.19814%,1)"/>
  <circle cx="6" cy="2" r="1" fill="srgba(96.82%,87.6799%,7.77295%,1)"/>
  <circle cx="7" cy="2" r="1" fill="srgba(96.8475%,87.776%,8.77852%,1)"/>
  <circle cx="8" cy="2" r="1" fill="srgba(96.8887%,87.9728%,9.01656%,1)"/>
  <circle cx="9" cy="2" r="1" fill="srgba(96.8643%,87.8508%,9.01961%,1)"/>
  <circle cx="10" cy="2" r="1" fill="srgba(247,224,23,1)"/>
  <circle cx="11" cy="2" r="1" fill="srgba(247,224,23,1)"/>
  <circle cx="12" cy="2" r="1" fill="srgba(247,224,23,1)"/>
  <circle cx="13" cy="2" r="1" fill="srgba(247,224,23,1)"/>
  <circle cx="14" cy="2" r="1" fill="srgba(247,224,23,1)"/>
  <circle cx="15" cy="2" r="1" fill="srgba(247,224,23,1)"/>
  <circle cx="0" cy="3" r="1" fill="white"/>
  <circle cx="1" cy="3" r="1" fill="white"/>
  <circle cx="2" cy="3" r="1" fill="white"/>
  <circle cx="3" cy="3" r="1" fill="srgba(99.9802%,99.9237%,99.4247%,1)"/>
  <circle cx="4" cy="3" r="1" fill="srgba(99.6109%,98.4894%,88.6931%,1)"/>
  <circle cx="5" cy="3" r="1" fill="srgba(98.6923%,94.934%,62.0874%,1)"/>
  <circle cx="6" cy="3" r="1" fill="srgba(97.7096%,91.2276%,31.3146%,1)"/>
  <circle cx="7" cy="3" r="1" fill="srgba(95.819%,82.2751%,13.3043%,1)"/>
  <circle cx="8" cy="3" r="1" fill="srgba(94.2138%,74.1726%,9.36751%,1)"/>
  <circle cx="9" cy="3" r="1" fill="srgba(96.9055%,88.0903%,8.42603%,1)"/>
  <circle cx="10" cy="3" r="1" fill="srgba(96.8627%,87.8416%,8.99977%,1)"/>
  <circle cx="11" cy="3" r="1" fill="srgba(96.8627%,87.8431%,9.02113%,1)"/>
  <circle cx="12" cy="3" r="1" fill="srgba(247,224,23,1)"/>
  <circle cx="13" cy="3" r="1" fill="srgba(247,224,23,1)"/>
  <circle cx="14" cy="3" r="1" fill="srgba(247,224,23,1)"/>
  <circle cx="15" cy="3" r="1" fill="srgba(247,224,23,1)"/>
  <circle cx="0" cy="4" r="1" fill="srgba(92.8862%,92.8862%,92.8862%,1)"/>
  <circle cx="1" cy="4" r="1" fill="srgba(99.6933%,99.6933%,99.6933%,1)"/>
  <circle cx="2" cy="4" r="1" fill="white"/>
  <circle cx="3" cy="4" r="1" fill="white"/>
  <circle cx="4" cy="4" r="1" fill="white"/>
  <circle cx="5" cy="4" r="1" fill="white"/>
  <circle cx="6" cy="4" r="1" fill="srgba(99.9329%,99.8627%,95.2605%,1)"/>
  <circle cx="7" cy="4" r="1" fill="srgba(95.8785%,80.3677%,63.1937%,1)"/>
  <circle cx="8" cy="4" r="1" fill="srgba(92.6513%,65.333%,26.8467%,1)"/>
  <circle cx="9" cy="4" r="1" fill="srgba(97.1359%,88.864%,17.7691%,1)"/>
  <circle cx="10" cy="4" r="1" fill="srgba(96.8444%,87.776%,8.35737%,1)"/>
  <circle cx="11" cy="4" r="1" fill="srgba(96.8261%,87.7043%,7.97436%,1)"/>
  <circle cx="12" cy="4" r="1" fill="srgba(96.8582%,87.8248%,8.88838%,1)"/>
  <circle cx="13" cy="4" r="1" fill="srgba(96.8627%,87.8447%,9.02571%,1)"/>
  <circle cx="14" cy="4" r="1" fill="srgba(247,224,23,1)"/>
  <circle cx="15" cy="4" r="1" fill="srgba(247,224,23,1)"/>
  <circle cx="0" cy="5" r="1" fill="srgba(19.2981%,20.5371%,20.4013%,1)"/>
  <circle cx="1" cy="5" r="1" fill="srgba(49.2988%,50.5394%,50.4021%,1)"/>
  <circle cx="2" cy="5" r="1" fill="srgba(81.3565%,82.62%,82.4796%,1)"/>
  <circle cx="3" cy="5" r="1" fill="srgba(97.4578%,98.2788%,98.2025%,1)"/>
  <circle cx="4" cy="5" r="1" fill="white"/>
  <circle cx="5" cy="5" r="1" fill="white"/>
  <circle cx="6" cy="5" r="1" fill="srgba(99.9588%,99.7864%,99.9176%,1)"/>
  <circle cx="7" cy="5" r="1" fill="srgba(93.9452%,69.9382%,73.4463%,1)"/>
  <circle cx="8" cy="5" r="1" fill="srgba(95.1965%,76.1944%,77.409%,1)"/>
  <circle cx="9" cy="5" r="1" fill="srgba(99.8306%,99.6674%,86.2333%,1)"/>
  <circle cx="10" cy="5" r="1" fill="srgba(98.7945%,95.6786%,57.1359%,1)"/>
  <circle cx="11" cy="5" r="1" fill="srgba(97.7737%,91.7113%,27.6997%,1)"/>
  <circle cx="12" cy="5" r="1" fill="srgba(97.2305%,89.6086%,11.957%,1)"/>
  <circle cx="13" cy="5" r="1" fill="srgba(97.1221%,89.189%,8.86854%,1)"/>
  <circle cx="14" cy="5" r="1" fill="srgba(97.1237%,89.1936%,8.91737%,1)"/>
  <circle cx="15" cy="5" r="1" fill="srgba(97.1237%,89.1936%,8.92195%,1)"/>
  <circle cx="0" cy="6" r="1" fill="srgba(24.007%,0.80415%,3.37987%,1)"/>
  <circle cx="1" cy="6" r="1" fill="srgba(24.5274%,1.3077%,3.86664%,1)"/>
  <circle cx="2" cy="6" r="1" fill="srgba(35.1156%,11.8135%,14.3801%,1)"/>
  <circle cx="3" cy="6" r="1" fill="srgba(62.5986%,39.3774%,41.9333%,1)"/>
  <circle cx="4" cy="6" r="1" fill="srgba(90.2235%,67.0695%,69.6178%,1)"/>
  <circle cx="5" cy="6" r="1" fill="srgba(94.4411%,71.49%,74.0154%,1)"/>
  <circle cx="6" cy="6" r="1" fill="srgba(93.2631%,66.5904%,69.5293%,1)"/>
  <circle cx="7" cy="6" r="1" fill="srgba(88.6839%,43.9063%,48.8472%,1)"/>
  <circle cx="8" cy="6" r="1" fill="srgba(92.4788%,62.7115%,66.0746%,1)"/>
  <circle cx="9" cy="6" r="1" fill="srgba(94.2947%,71.6762%,75.0088%,1)"/>
  <circle cx="10" cy="6" r="1" fill="srgba(94.1573%,70.9972%,74.3343%,1)"/>
  <circle cx="11" cy="6" r="1" fill="srgba(93.8811%,69.9519%,65.7755%,1)"/>
  <circle cx="12" cy="6" r="1" fill="srgba(93.048%,66.7216%,41.6098%,1)"/>
  <circle cx="13" cy="6" r="1" fill="srgba(92.1614%,63.3112%,15.2819%,1)"/>
  <circle cx="14" cy="6" r="1" fill="srgba(91.9661%,62.536%,10.2327%,1)"/>
  <circle cx="15" cy="6" r="1" fill="srgba(91.9631%,62.5086%,10.4341%,1)"/>
  <circle cx="0" cy="7" r="1" fill="srgba(73.4264%,5.55276%,13.5378%,1)"/>
  <circle cx="1" cy="7" r="1" fill="srgba(72.4651%,4.93324%,13.3959%,1)"/>
  <circle cx="2" cy="7" r="1" fill="srgba(73.2509%,5.2491%,12.9397%,1)"/>
  <circle cx="3" cy="7" r="1" fill="srgba(77.6822%,5.13466%,13.1441%,1)"/>
  <circle cx="4" cy="7" r="1" fill="srgba(80.7904%,7.33043%,15.4452%,1)"/>
  <circle cx="5" cy="7" r="1" fill="srgba(81.503%,8.13001%,16.2356%,1)"/>
  <circle cx="6" cy="7" r="1" fill="srgba(81.4038%,7.79583%,15.9289%,1)"/>
  <circle cx="7" cy="7" r="1" fill="srgba(81.2299%,6.93217%,15.1431%,1)"/>
  <circle cx="8" cy="7" r="1" fill="srgba(81.4237%,7.89197%,16.0159%,1)"/>
  <circle cx="9" cy="7" r="1" fill="srgba(81.4633%,8.08881%,16.1852%,1)"/>
  <circle cx="10" cy="7" r="1" fill="srgba(81.4221%,7.87366%,16.1776%,1)"/>
  <circle cx="11" cy="7" r="1" fill="srgba(81.3901%,7.68444%,16.7269%,1)"/>
  <circle cx="12" cy="7" r="1" fill="srgba(81.3565%,7.49828%,17.174%,1)"/>
  <circle cx="13" cy="7" r="1" fill="srgba(81.619%,8.8716%,16.7239%,1)"/>
  <circle cx="14" cy="7" r="1" fill="srgba(82.443%,12.9961%,19.6353%,1)"/>
  <circle cx="15" cy="7" r="1" fill="srgba(82.8031%,14.7799%,21.265%,1)"/>
  <circle cx="0" cy="8" r="1" fill="srgba(66.3493%,47.9881%,7.52728%,1)"/>
  <circle cx="1" cy="8" r="1" fill="srgba(36.4996%,21.442%,4.67689%,1)"/>
  <circle cx="2" cy="8" r="1" fill="srgba(19.884%,4.04974%,3.38445%,1)"/>
  <circle cx="3" cy="8" r="1" fill="srgba(55.0378%,3.83459%,10.1747%,1)"/>
  <circle cx="4" cy="8" r="1" fill="srgba(81.8677%,6.66056%,14.9752%,1)"/>
  <circle cx="5" cy="8" r="1" fill="srgba(81.1353%,6.46067%,14.8272%,1)"/>
  <circle cx="6" cy="8" r="1" fill="srgba(81.0712%,6.12802%,14.8669%,1)"/>
  <circle cx="7" cy="8" r="1" fill="srgba(81.0651%,6.0914%,14.9111%,1)"/>
  <circle cx="8" cy="8" r="1" fill="srgba(81.0529%,6.03342%,14.8699%,1)"/>
  <circle cx="9" cy="8" r="1" fill="srgba(81.0254%,5.8854%,14.8699%,1)"/>
  <circle cx="10" cy="8" r="1" fill="srgba(81.5656%,8.68086%,14.6685%,1)"/>
  <circle cx="11" cy="8" r="1" fill="srgba(82.4796%,13.4203%,14.0749%,1)"/>
  <circle cx="12" cy="8" r="1" fill="srgba(84.9638%,25.7023%,25.9281%,1)"/>
  <circle cx="13" cy="8" r="1" fill="srgba(88.8136%,44.773%,44.152%,1)"/>
  <circle cx="14" cy="8" r="1" fill="srgba(93.7041%,68.9891%,66.9871%,1)"/>
  <circle cx="15" cy="8" r="1" fill="srgba(96.3989%,82.3316%,79.6536%,1)"/>
  <circle cx="0" cy="9" r="1" fill="srgba(97.174%,88.8975%,8.96315%,1)"/>
  <circle cx="1" cy="9" r="1" fill="srgba(89.81%,82.2858%,8.27192%,1)"/>
  <circle cx="2" cy="9" r="1" fill="srgba(66.659%,59.1089%,6.35386%,1)"/>
  <circle cx="3" cy="9" r="1" fill="srgba(60.0641%,22.5956%,9.08522%,1)"/>
  <circle cx="4" cy="9" r="1" fill="srgba(81.0163%,6.30961%,14.9111%,1)"/>
  <circle cx="5" cy="9" r="1" fill="srgba(81.5198%,8.40314%,14.7784%,1)"/>
  <circle cx="6" cy="9" r="1" fill="srgba(82.5772%,13.9147%,14.3755%,1)"/>
  <circle cx="7" cy="9" r="1" fill="srgba(82.9496%,15.8389%,14.2367%,1)"/>
  <circle cx="8" cy="9" r="1" fill="srgba(82.9435%,15.8206%,14.2382%,1)"/>
  <circle cx="9" cy="9" r="1" fill="srgba(82.7298%,14.7036%,14.3191%,1)"/>
  <circle cx="10" cy="9" r="1" fill="srgba(86.5187%,34.3084%,12.8954%,1)"/>
  <circle cx="11" cy="9" r="1" fill="srgba(93.4905%,70.3746%,10.1961%,1)"/>
  <circle cx="12" cy="9" r="1" fill="srgba(95.5673%,80.6989%,19.1836%,1)"/>
  <circle cx="13" cy="9" r="1" fill="srgba(97.1466%,88.4825%,27.6204%,1)"/>
  <circle cx="14" cy="9" r="1" fill="srgba(97.8546%,91.9142%,32.2301%,1)"/>
  <circle cx="15" cy="9" r="1" fill="srgba(97.8912%,92.0363%,33.3791%,1)"/>
  <circle cx="0" cy="10" r="1" fill="srgba(96.8658%,87.8676%,9.01808%,1)"/>
  <circle cx="1" cy="10" r="1" fill="srgba(97.2351%,87.9881%,9.07607%,1)"/>
  <circle cx="2" cy="10" r="1" fill="srgba(97.409%,85.185%,9.41329%,1)"/>
  <circle cx="3" cy="10" r="1" fill="srgba(88.9952%,46.5019%,12.0348%,1)"/>
  <circle cx="4" cy="10" r="1" fill="srgba(81.0346%,6.13107%,14.934%,1)"/>
  <circle cx="5" cy="10" r="1" fill="srgba(84.1138%,21.8723%,13.8003%,1)"/>
  <circle cx="6" cy="10" r="1" fill="srgba(88.4337%,44.2771%,12.1752%,1)"/>
  <circle cx="7" cy="10" r="1" fill="srgba(91.0674%,57.8607%,11.1925%,1)"/>
  <circle cx="8" cy="10" r="1" fill="srgba(92.9305%,67.5059%,10.4952%,1)"/>
  <circle cx="9" cy="10" r="1" fill="srgba(92.6528%,66.0624%,10.5974%,1)"/>
  <circle cx="10" cy="10" r="1" fill="srgba(92.7459%,66.5354%,10.5623%,1)"/>
  <circle cx="11" cy="10" r="1" fill="srgba(94.0871%,73.4569%,10.071%,1)"/>
  <circle cx="12" cy="10" r="1" fill="srgba(93.9437%,72.7413%,10.3426%,1)"/>
  <circle cx="13" cy="10" r="1" fill="srgba(94.4244%,75.2438%,10.0908%,1)"/>
  <circle cx="14" cy="10" r="1" fill="srgba(95.8801%,82.9221%,9.34005%,1)"/>
  <circle cx="15" cy="10" r="1" fill="srgba(96.9055%,87.7317%,8.89296%,1)"/>
  <circle cx="0" cy="11" r="1" fill="srgba(247,224,23,1)"/>
  <circle cx="1" cy="11" r="1" fill="srgba(96.8795%,87.9332%,9.0135%,1)"/>
  <circle cx="2" cy="11" r="1" fill="srgba(96.8139%,87.5914%,9.03639%,1)"/>
  <circle cx="3" cy="11" r="1" fill="srgba(89.6208%,50.3319%,11.7342%,1)"/>
  <circle cx="4" cy="11" r="1" fill="srgba(81.0422%,5.96323%,14.9538%,1)"/>
  <circle cx="5" cy="11" r="1" fill="srgba(87.4784%,39.3027%,12.5353%,1)"/>
  <circle cx="6" cy="11" r="1" fill="srgba(92.8054%,66.8605%,10.5379%,1)"/>
  <circle cx="7" cy="11" r="1" fill="srgba(93.7285%,71.6243%,10.1946%,1)"/>
  <circle cx="8" cy="11" r="1" fill="srgba(92.9061%,67.3472%,10.5043%,1)"/>
  <circle cx="9" cy="11" r="1" fill="srgba(95.1019%,78.7289%,9.68032%,1)"/>
  <circle cx="10" cy="11" r="1" fill="srgba(91.7739%,61.5259%,10.9285%,1)"/>
  <circle cx="11" cy="11" r="1" fill="srgba(89.9702%,52.0989%,11.6091%,1)"/>
  <circle cx="12" cy="11" r="1" fill="srgba(88.5267%,44.7425%,12.1035%,1)"/>
  <circle cx="13" cy="11" r="1" fill="srgba(87.9515%,41.2085%,12.3613%,1)"/>
  <circle cx="14" cy="11" r="1" fill="srgba(87.1702%,50.2281%,11.2139%,1)"/>
  <circle cx="15" cy="11" r="1" fill="srgba(77.5509%,65.4459%,7.69207%,1)"/>
  <circle cx="0" cy="12" r="1" fill="srgba(247,224,23,1)"/>
  <circle cx="1" cy="12" r="1" fill="srgba(96.8734%,87.8965%,9.01503%,1)"/>
  <circle cx="2" cy="12" r="1" fill="srgba(96.7971%,87.5029%,9.04402%,1)"/>
  <circle cx="3" cy="12" r="1" fill="srgba(87.2129%,37.908%,12.6345%,1)"/>
  <circle cx="4" cy="12" r="1" fill="srgba(80.7218%,4.31067%,15.0729%,1)"/>
  <circle cx="5" cy="12" r="1" fill="srgba(88.922%,46.7613%,11.9951%,1)"/>
  <circle cx="6" cy="12" r="1" fill="srgba(96.5515%,86.2501%,9.13405%,1)"/>
  <circle cx="7" cy="12" r="1" fill="srgba(96.9741%,88.4154%,8.97841%,1)"/>
  <circle cx="8" cy="12" r="1" fill="srgba(96.9421%,88.2506%,8.99062%,1)"/>
  <circle cx="9" cy="12" r="1" fill="srgba(96.8902%,87.982%,9.00893%,1)"/>
  <circle cx="10" cy="12" r="1" fill="srgba(96.846%,87.7562%,9.02571%,1)"/>
  <circle cx="11" cy="12" r="1" fill="srgba(96.6796%,86.8757%,9.0898%,1)"/>
  <circle cx="12" cy="12" r="1" fill="srgba(96.1486%,84.1596%,9.28664%,1)"/>
  <circle cx="13" cy="12" r="1" fill="srgba(95.8145%,82.2751%,9.42855%,1)"/>
  <circle cx="14" cy="12" r="1" fill="srgba(95.1827%,81.9486%,9.34157%,1)"/>
  <circle cx="15" cy="12" r="1" fill="srgba(91.2612%,81.7227%,8.60914%,1)"/>
  <circle cx="0" cy="13" r="1" fill="srgba(247,224,23,1)"/>
  <circle cx="1" cy="13" r="1" fill="srgba(96.8688%,87.8706%,9.01808%,1)"/>
  <circle cx="2" cy="13" r="1" fill="srgba(96.9375%,88.2261%,8.99214%,1)"/>
  <circle cx="3" cy="13" r="1" fill="srgba(88.2139%,43.0686%,12.2637%,1)"/>
  <circle cx="4" cy="13" r="1" fill="srgba(80.7279%,4.34577%,15.0698%,1)"/>
  <circle cx="5" cy="13" r="1" fill="srgba(88.7312%,45.7649%,12.0684%,1)"/>
  <circle cx="6" cy="13" r="1" fill="srgba(96.6018%,86.5019%,9.11727%,1)"/>
  <circle cx="7" cy="13" r="1" fill="srgba(96.8887%,87.9805%,9.00893%,1)"/>
  <circle cx="8" cy="13" r="1" fill="srgba(96.8612%,87.834%,9.01961%,1)"/>
  <circle cx="9" cy="13" r="1" fill="srgba(96.8475%,87.7653%,9.02419%,1)"/>
  <circle cx="10" cy="13" r="1" fill="srgba(96.8688%,87.8691%,9.01808%,1)"/>
  <circle cx="11" cy="13" r="1" fill="srgba(96.8765%,87.9149%,9.0135%,1)"/>
  <circle cx="12" cy="13" r="1" fill="srgba(96.91%,88.0888%,9.0013%,1)"/>
  <circle cx="13" cy="13" r="1" fill="srgba(96.9314%,88.2033%,8.99367%,1)"/>
  <circle cx="14" cy="13" r="1" fill="srgba(96.9543%,88.1804%,8.99977%,1)"/>
  <circle cx="15" cy="13" r="1" fill="srgba(97.1633%,88.1727%,9.0425%,1)"/>
  <circle cx="0" cy="14" r="1" fill="srgba(247,224,23,1)"/>
  <circle cx="1" cy="14" r="1" fill="srgba(96.8658%,87.8584%,9.01808%,1)"/>
  <circle cx="2" cy="14" r="1" fill="srgba(97.0169%,88.6458%,8.96162%,1)"/>
  <circle cx="3" cy="14" r="1" fill="srgba(92.4681%,65.1133%,10.6661%,1)"/>
  <circle cx="4" cy="14" r="1" fill="srgba(81.7533%,9.65286%,14.6853%,1)"/>
  <circle cx="5" cy="14" r="1" fill="srgba(88.5389%,44.77%,12.1401%,1)"/>
  <circle cx="6" cy="14" r="1" fill="srgba(96.6354%,86.6667%,9.10353%,1)"/>
  <circle cx="7" cy="14" r="1" fill="srgba(96.8826%,87.9484%,9.01198%,1)"/>
  <circle cx="8" cy="14" r="1" fill="srgba(96.8627%,87.8416%,9.01961%,1)"/>
  <circle cx="9" cy="14" r="1" fill="srgba(96.8612%,87.8355%,9.01961%,1)"/>
  <circle cx="10" cy="14" r="1" fill="srgba(247,224,23,1)"/>
  <circle cx="11" cy="14" r="1" fill="srgba(247,224,23,1)"/>
  <circle cx="12" cy="14" r="1" fill="srgba(247,224,23,1)"/>
  <circle cx="13" cy="14" r="1" fill="srgba(247,224,23,1)"/>
  <circle cx="14" cy="14" r="1" fill="srgba(247,224,23,1)"/>
  <circle cx="15" cy="14" r="1" fill="srgba(247,224,23,1)"/>
  <circle cx="0" cy="15" r="1" fill="srgba(247,224,23,1)"/>
  <circle cx="1" cy="15" r="1" fill="srgba(96.8643%,87.8477%,9.01961%,1)"/>
  <circle cx="2" cy="15" r="1" fill="srgba(96.8841%,87.953%,9.01198%,1)"/>
  <circle cx="3" cy="15" r="1" fill="srgba(96.347%,85.1774%,9.21187%,1)"/>
  <circle cx="4" cy="15" r="1" fill="srgba(86.5766%,34.612%,12.8756%,1)"/>
  <circle cx="5" cy="15" r="1" fill="srgba(88.3299%,43.6835%,12.221%,1)"/>
  <circle cx="6" cy="15" r="1" fill="srgba(96.6674%,86.8299%,9.09438%,1)"/>
  <circle cx="7" cy="15" r="1" fill="srgba(96.8811%,87.9377%,9.01198%,1)"/>
  <circle cx="8" cy="15" r="1" fill="srgba(247,224,23,1)"/>
  <circle cx="9" cy="15" r="1" fill="srgba(96.8627%,87.8431%,9.01808%,1)"/>
  <circle cx="10" cy="15" r="1" fill="srgba(247,224,23,1)"/>
  <circle cx="11" cy="15" r="1" fill="srgba(247,224,23,1)"/>
  <circle cx="12" cy="15" r="1" fill="srgba(247,224,23,1)"/>
  <circle cx="13" cy="15" r="1" fill="srgba(247,224,23,1)"/>
  <circle cx="14" cy="15" r="1" fill="srgba(247,224,23,1)"/>
  <circle cx="15" cy="15" r="1" fill="srgba(247,224,23,1)"/>
</svg>
