<?xml version="1.0" standalone="no"?>
<!DOCTYPE svg PUBLIC "-//W3C//DTD SVG 20010904//EN"
  "http://www.w3.org/TR/2001/REC-SVG-20010904/DTD/svg10.dtd">
<svg width="16" height="16">
  <circle cx="0" cy="0" r="1" fill="srgba(80.5295%,16.2539%,11.3436%,1)"/>
  <circle cx="1" cy="0" r="1" fill="srgba(78.2391%,15.7931%,11.0216%,1)"/>
  <circle cx="2" cy="0" r="1" fill="srgba(81.4084%,16.434%,11.4672%,1)"/>
  <circle cx="3" cy="0" r="1" fill="srgba(83.8544%,16.9284%,11.8105%,1)"/>
  <circle cx="4" cy="0" r="1" fill="srgba(79.6338%,16.0769%,11.2169%,1)"/>
  <circle cx="5" cy="0" r="1" fill="srgba(76.3455%,15.4116%,10.7576%,1)"/>
  <circle cx="6" cy="0" r="1" fill="srgba(85.0782%,17.1756%,11.9829%,1)"/>
  <circle cx="7" cy="0" r="1" fill="srgba(80.6271%,16.2768%,11.3603%,1)"/>
  <circle cx="8" cy="0" r="1" fill="srgba(80.9613%,16.3455%,11.4046%,1)"/>
  <circle cx="9" cy="0" r="1" fill="srgba(83.6622%,16.8887%,11.783%,1)"/>
  <circle cx="10" cy="0" r="1" fill="srgba(213,43,30,1)"/>
  <circle cx="11" cy="0" r="1" fill="srgba(213,43,30,1)"/>
  <circle cx="12" cy="0" r="1" fill="srgba(213,43,30,1)"/>
  <circle cx="13" cy="0" r="1" fill="srgba(213,43,30,1)"/>
  <circle cx="14" cy="0" r="1" fill="srgba(213,43,30,1)"/>
  <circle cx="15" cy="0" r="1" fill="srgba(213,43,30,1)"/>
  <circle cx="0" cy="1" r="1" fill="srgba(84.8524%,17.1298%,11.9509%,1)"/>
  <circle cx="1" cy="1" r="1" fill="srgba(81.7731%,16.5072%,11.519%,1)"/>
  <circle cx="2" cy="1" r="1" fill="srgba(79.295%,16.0082%,11.1711%,1)"/>
  <circle cx="3" cy="1" r="1" fill="srgba(83.4775%,16.8521%,11.7586%,1)"/>
  <circle cx="4" cy="1" r="1" fill="srgba(84.0864%,16.9757%,11.8441%,1)"/>
  <circle cx="5" cy="1" r="1" fill="srgba(75.4528%,15.2346%,10.634%,1)"/>
  <circle cx="6" cy="1" r="1" fill="srgba(64.0009%,12.9198%,9.01503%,1)"/>
  <circle cx="7" cy="1" r="1" fill="srgba(52.6223%,10.6233%,7.41436%,1)"/>
  <circle cx="8" cy="1" r="1" fill="srgba(75.8175%,15.3079%,10.6798%,1)"/>
  <circle cx="9" cy="1" r="1" fill="srgba(85.0401%,17.1679%,11.9768%,1)"/>
  <circle cx="10" cy="1" r="1" fill="srgba(84.4968%,17.0581%,11.9005%,1)"/>
  <circle cx="11" cy="1" r="1" fill="srgba(84.332%,17.0245%,11.8776%,1)"/>
  <circle cx="12" cy="1" r="1" fill="srgba(84.155%,16.9894%,11.8532%,1)"/>
  <circle cx="13" cy="1" r="1" fill="srgba(83.975%,16.9528%,11.8273%,1)"/>
  <circle cx="14" cy="1" r="1" fill="srgba(83.8041%,16.9177%,11.8029%,1)"/>
  <circle cx="15" cy="1" r="1" fill="srgba(83.6759%,16.8917%,11.7845%,1)"/>
  <circle cx="0" cy="2" r="1" fill="srgba(51.2413%,10.3471%,7.21294%,1)"/>
  <circle cx="1" cy="2" r="1" fill="srgba(51.429%,10.3838%,7.24346%,1)"/>
  <circle cx="2" cy="2" r="1" fill="srgba(48.8945%,9.87259%,6.88945%,1)"/>
  <circle cx="3" cy="2" r="1" fill="srgba(49.9001%,10.074%,7.03136%,1)"/>
  <circle cx="4" cy="2" r="1" fill="srgba(55.1156%,11.1269%,7.76379%,1)"/>
  <circle cx="5" cy="2" r="1" fill="srgba(42.7771%,8.63661%,6.02731%,1)"/>
  <circle cx="6" cy="2" r="1" fill="srgba(6.82383%,1.37789%,0.961318%,1)"/>
  <circle cx="7" cy="2" r="1" fill="srgba(0.37232%,0.0747692%,0.0534066%,1)"/>
  <circle cx="8" cy="2" r="1" fill="srgba(29.7169%,5.99832%,4.18555%,1)"/>
  <circle cx="9" cy="2" r="1" fill="srgba(64.9226%,13.106%,9.14473%,1)"/>
  <circle cx="10" cy="2" r="1" fill="srgba(68.1346%,13.7545%,9.5964%,1)"/>
  <circle cx="11" cy="2" r="1" fill="srgba(70.9438%,14.3221%,9.99161%,1)"/>
  <circle cx="12" cy="2" r="1" fill="srgba(73.7789%,14.8943%,10.3914%,1)"/>
  <circle cx="13" cy="2" r="1" fill="srgba(76.5179%,15.4467%,10.7774%,1)"/>
  <circle cx="14" cy="2" r="1" fill="srgba(79.0906%,15.9655%,11.1391%,1)"/>
  <circle cx="15" cy="2" r="1" fill="srgba(81.1048%,16.3729%,11.4229%,1)"/>
  <circle cx="0" cy="3" r="1" fill="black"/>
  <circle cx="1" cy="3" r="1" fill="srgba(0.00762951%,0.0015259%,0.0015259%,1)"/>
  <circle cx="2" cy="3" r="1" fill="srgba(0.106813%,0.0213626%,0.015259%,1)"/>
  <circle cx="3" cy="3" r="1" fill="srgba(0.189212%,0.0381476%,0.0259403%,1)"/>
  <circle cx="4" cy="3" r="1" fill="srgba(0.535592%,0.108339%,0.0747692%,1)"/>
  <circle cx="5" cy="3" r="1" fill="srgba(0.598154%,0.120546%,0.0839246%,1)"/>
  <circle cx="6" cy="3" r="1" fill="srgba(0.015259%,0.0030518%,0.0015259%,1)"/>
  <circle cx="7" cy="3" r="1" fill="black"/>
  <circle cx="8" cy="3" r="1" fill="srgba(0.80415%,0.161746%,0.112917%,1)"/>
  <circle cx="9" cy="3" r="1" fill="srgba(4.07874%,0.823987%,0.575265%,1)"/>
  <circle cx="10" cy="3" r="1" fill="srgba(5.84268%,1.17952%,0.822461%,1)"/>
  <circle cx="11" cy="3" r="1" fill="srgba(7.87823%,1.58999%,1.10933%,1)"/>
  <circle cx="12" cy="3" r="1" fill="srgba(10.4631%,2.11185%,1.47402%,1)"/>
  <circle cx="13" cy="3" r="1" fill="srgba(13.7423%,2.77409%,1.93637%,1)"/>
  <circle cx="14" cy="3" r="1" fill="srgba(17.9324%,3.61944%,2.52537%,1)"/>
  <circle cx="15" cy="3" r="1" fill="srgba(22.4903%,4.53956%,3.16777%,1)"/>
  <circle cx="0" cy="4" r="1" fill="black"/>
  <circle cx="1" cy="4" r="1" fill="black"/>
  <circle cx="2" cy="4" r="1" fill="black"/>
  <circle cx="3" cy="4" r="1" fill="black"/>
  <circle cx="4" cy="4" r="1" fill="black"/>
  <circle cx="5" cy="4" r="1" fill="black"/>
  <circle cx="6" cy="4" r="1" fill="black"/>
  <circle cx="7" cy="4" r="1" fill="black"/>
  <circle cx="8" cy="4" r="1" fill="black"/>
  <circle cx="9" cy="4" r="1" fill="black"/>
  <circle cx="10" cy="4" r="1" fill="black"/>
  <circle cx="11" cy="4" r="1" fill="black"/>
  <circle cx="12" cy="4" r="1" fill="black"/>
  <circle cx="13" cy="4" r="1" fill="black"/>
  <circle cx="14" cy="4" r="1" fill="black"/>
  <circle cx="15" cy="4" r="1" fill="black"/>
  <circle cx="0" cy="5" r="1" fill="black"/>
  <circle cx="1" cy="5" r="1" fill="black"/>
  <circle cx="2" cy="5" r="1" fill="black"/>
  <circle cx="3" cy="5" r="1" fill="black"/>
  <circle cx="4" cy="5" r="1" fill="black"/>
  <circle cx="5" cy="5" r="1" fill="black"/>
  <circle cx="6" cy="5" r="1" fill="black"/>
  <circle cx="7" cy="5" r="1" fill="srgba(0.0656138%,0.0991836%,0.0900282%,1)"/>
  <circle cx="8" cy="5" r="1" fill="srgba(0.0289921%,0.0564584%,0.0503548%,1)"/>
  <circle cx="9" cy="5" r="1" fill="black"/>
  <circle cx="10" cy="5" r="1" fill="black"/>
  <circle cx="11" cy="5" r="1" fill="black"/>
  <circle cx="12" cy="5" r="1" fill="black"/>
  <circle cx="13" cy="5" r="1" fill="black"/>
  <circle cx="14" cy="5" r="1" fill="srgba(0%,0.15259%,0.0732433%,1)"/>
  <circle cx="15" cy="5" r="1" fill="srgba(0%,0.474556%,0.234989%,1)"/>
  <circle cx="0" cy="6" r="1" fill="srgba(19.9374%,19.5224%,19.2508%,1)"/>
  <circle cx="1" cy="6" r="1" fill="srgba(19.8032%,20.1999%,20.4593%,1)"/>
  <circle cx="2" cy="6" r="1" fill="srgba(18.7396%,18.9532%,19.0951%,1)"/>
  <circle cx="3" cy="6" r="1" fill="srgba(17.8805%,17.8897%,17.8973%,1)"/>
  <circle cx="4" cy="6" r="1" fill="srgba(17.3266%,17.3251%,17.3312%,1)"/>
  <circle cx="5" cy="6" r="1" fill="srgba(18.3474%,18.3978%,18.4131%,1)"/>
  <circle cx="6" cy="6" r="1" fill="srgba(30.0206%,29.0593%,28.777%,1)"/>
  <circle cx="7" cy="6" r="1" fill="srgba(44.7959%,40.2487%,39.2447%,1)"/>
  <circle cx="8" cy="6" r="1" fill="srgba(42.388%,39.6887%,38.2437%,1)"/>
  <circle cx="9" cy="6" r="1" fill="srgba(40.2991%,40.3098%,37.612%,1)"/>
  <circle cx="10" cy="6" r="1" fill="srgba(42.0035%,42.3316%,39.6765%,1)"/>
  <circle cx="11" cy="6" r="1" fill="srgba(45.3696%,45.8%,43.537%,1)"/>
  <circle cx="12" cy="6" r="1" fill="srgba(45.9358%,46.6056%,44.21%,1)"/>
  <circle cx="13" cy="6" r="1" fill="srgba(43.9567%,44.8127%,42.1866%,1)"/>
  <circle cx="14" cy="6" r="1" fill="srgba(34.1558%,29.7749%,26.5614%,1)"/>
  <circle cx="15" cy="6" r="1" fill="srgba(27.9713%,20.4471%,17.1313%,1)"/>
  <circle cx="0" cy="7" r="1" fill="srgba(67.0527%,49.0608%,37.2366%,1)"/>
  <circle cx="1" cy="7" r="1" fill="srgba(73.8628%,63.3906%,56.5316%,1)"/>
  <circle cx="2" cy="7" r="1" fill="srgba(80.1816%,76.5972%,74.2351%,1)"/>
  <circle cx="3" cy="7" r="1" fill="srgba(85.568%,85.3986%,85.275%,1)"/>
  <circle cx="4" cy="7" r="1" fill="srgba(89.3797%,89.3935%,89.4209%,1)"/>
  <circle cx="5" cy="7" r="1" fill="srgba(92.694%,92.697%,92.7016%,1)"/>
  <circle cx="6" cy="7" r="1" fill="srgba(97.7005%,98.0056%,98.027%,1)"/>
  <circle cx="7" cy="7" r="1" fill="srgba(81.4466%,73.0938%,71.8074%,1)"/>
  <circle cx="8" cy="7" r="1" fill="srgba(73.9284%,64.86%,63.5935%,1)"/>
  <circle cx="9" cy="7" r="1" fill="srgba(89.8772%,90.1061%,89.9672%,1)"/>
  <circle cx="10" cy="7" r="1" fill="srgba(87.7333%,87.5853%,87.3716%,1)"/>
  <circle cx="11" cy="7" r="1" fill="srgba(87.1046%,86.9093%,86.6972%,1)"/>
  <circle cx="12" cy="7" r="1" fill="srgba(87.7104%,87.5608%,87.3503%,1)"/>
  <circle cx="13" cy="7" r="1" fill="srgba(90.2647%,90.4311%,90.2754%,1)"/>
  <circle cx="14" cy="7" r="1" fill="srgba(65.5253%,48.751%,46.8055%,1)"/>
  <circle cx="15" cy="7" r="1" fill="srgba(47.2877%,18.3627%,15.1675%,1)"/>
  <circle cx="0" cy="8" r="1" fill="srgba(62.3346%,34.4366%,16.1501%,1)"/>
  <circle cx="1" cy="8" r="1" fill="srgba(64.1733%,37.8668%,20.1526%,1)"/>
  <circle cx="2" cy="8" r="1" fill="srgba(80.6683%,67.4922%,58.1964%,1)"/>
  <circle cx="3" cy="8" r="1" fill="srgba(98.3536%,97.8424%,97.4624%,1)"/>
  <circle cx="4" cy="8" r="1" fill="white"/>
  <circle cx="5" cy="8" r="1" fill="white"/>
  <circle cx="6" cy="8" r="1" fill="white"/>
  <circle cx="7" cy="8" r="1" fill="srgba(76.8566%,67.0268%,65.5497%,1)"/>
  <circle cx="8" cy="8" r="1" fill="srgba(50.3136%,33.0144%,30.5653%,1)"/>
  <circle cx="9" cy="8" r="1" fill="srgba(87.0298%,84.5411%,84.2756%,1)"/>
  <circle cx="10" cy="8" r="1" fill="srgba(91.0765%,91.2673%,91.2917%,1)"/>
  <circle cx="11" cy="8" r="1" fill="srgba(90.7668%,90.7774%,90.7805%,1)"/>
  <circle cx="12" cy="8" r="1" fill="srgba(90.6264%,90.631%,90.6325%,1)"/>
  <circle cx="13" cy="8" r="1" fill="srgba(90.8705%,91.0552%,91.075%,1)"/>
  <circle cx="14" cy="8" r="1" fill="srgba(65.3925%,47.8676%,46.0258%,1)"/>
  <circle cx="15" cy="8" r="1" fill="srgba(47.0527%,16.5667%,13.3608%,1)"/>
  <circle cx="0" cy="9" r="1" fill="srgba(72.3537%,53.8842%,40.5081%,1)"/>
  <circle cx="1" cy="9" r="1" fill="srgba(80.8057%,66.2226%,54.789%,1)"/>
  <circle cx="2" cy="9" r="1" fill="srgba(98.0102%,96.3745%,95.0042%,1)"/>
  <circle cx="3" cy="9" r="1" fill="white"/>
  <circle cx="4" cy="9" r="1" fill="white"/>
  <circle cx="5" cy="9" r="1" fill="white"/>
  <circle cx="6" cy="9" r="1" fill="white"/>
  <circle cx="7" cy="9" r="1" fill="srgba(77.6272%,67.6341%,66.2379%,1)"/>
  <circle cx="8" cy="9" r="1" fill="srgba(36.8658%,17.9019%,14.9294%,1)"/>
  <circle cx="9" cy="9" r="1" fill="srgba(71.0216%,59.3683%,58.0468%,1)"/>
  <circle cx="10" cy="9" r="1" fill="srgba(91.1223%,91.3985%,91.4321%,1)"/>
  <circle cx="11" cy="9" r="1" fill="srgba(90.5913%,90.5928%,90.5928%,1)"/>
  <circle cx="12" cy="9" r="1" fill="srgba(90.5928%,90.5959%,90.5959%,1)"/>
  <circle cx="13" cy="9" r="1" fill="srgba(90.808%,90.9804%,90.9987%,1)"/>
  <circle cx="14" cy="9" r="1" fill="srgba(65.2461%,47.7165%,45.8747%,1)"/>
  <circle cx="15" cy="9" r="1" fill="srgba(47.0069%,16.6201%,13.4218%,1)"/>
  <circle cx="0" cy="10" r="1" fill="srgba(80.061%,64.4739%,51.1116%,1)"/>
  <circle cx="1" cy="10" r="1" fill="srgba(96.1334%,92.9427%,90.1778%,1)"/>
  <circle cx="2" cy="10" r="1" fill="white"/>
  <circle cx="3" cy="10" r="1" fill="white"/>
  <circle cx="4" cy="10" r="1" fill="white"/>
  <circle cx="5" cy="10" r="1" fill="white"/>
  <circle cx="6" cy="10" r="1" fill="white"/>
  <circle cx="7" cy="10" r="1" fill="srgba(78.0499%,69.0394%,66.8833%,1)"/>
  <circle cx="8" cy="10" r="1" fill="srgba(32.8756%,16.9802%,13.756%,1)"/>
  <circle cx="9" cy="10" r="1" fill="srgba(51.2581%,30.1152%,27.6005%,1)"/>
  <circle cx="10" cy="10" r="1" fill="srgba(85.893%,82.2644%,81.9013%,1)"/>
  <circle cx="11" cy="10" r="1" fill="srgba(90.9224%,91.1543%,91.1788%,1)"/>
  <circle cx="12" cy="10" r="1" fill="srgba(90.5928%,90.5943%,90.5943%,1)"/>
  <circle cx="13" cy="10" r="1" fill="srgba(90.7866%,90.9377%,90.9545%,1)"/>
  <circle cx="14" cy="10" r="1" fill="srgba(65.0797%,47.4571%,45.6046%,1)"/>
  <circle cx="15" cy="10" r="1" fill="srgba(46.9657%,16.6659%,13.4798%,1)"/>
  <circle cx="0" cy="11" r="1" fill="srgba(89.9794%,81.7395%,74.7204%,1)"/>
  <circle cx="1" cy="11" r="1" fill="white"/>
  <circle cx="2" cy="11" r="1" fill="white"/>
  <circle cx="3" cy="11" r="1" fill="white"/>
  <circle cx="4" cy="11" r="1" fill="white"/>
  <circle cx="5" cy="11" r="1" fill="white"/>
  <circle cx="6" cy="11" r="1" fill="white"/>
  <circle cx="7" cy="11" r="1" fill="srgba(78.8464%,72.3033%,68.2429%,1)"/>
  <circle cx="8" cy="11" r="1" fill="srgba(31.6533%,18.378%,14.5281%,1)"/>
  <circle cx="9" cy="11" r="1" fill="srgba(39.7986%,17.4105%,14.4701%,1)"/>
  <circle cx="10" cy="11" r="1" fill="srgba(70.1411%,55.3353%,53.8079%,1)"/>
  <circle cx="11" cy="11" r="1" fill="srgba(90.8705%,91.0689%,91.0887%,1)"/>
  <circle cx="12" cy="11" r="1" fill="srgba(90.6081%,90.6218%,90.6233%,1)"/>
  <circle cx="13" cy="11" r="1" fill="srgba(90.7576%,90.869%,90.8812%,1)"/>
  <circle cx="14" cy="11" r="1" fill="srgba(66.0975%,45.4231%,43.1769%,1)"/>
  <circle cx="15" cy="11" r="1" fill="srgba(47.8477%,15.5093%,12.0562%,1)"/>
  <circle cx="0" cy="12" r="1" fill="srgba(98.1964%,96.7224%,95.4681%,1)"/>
  <circle cx="1" cy="12" r="1" fill="white"/>
  <circle cx="2" cy="12" r="1" fill="white"/>
  <circle cx="3" cy="12" r="1" fill="white"/>
  <circle cx="4" cy="12" r="1" fill="white"/>
  <circle cx="5" cy="12" r="1" fill="white"/>
  <circle cx="6" cy="12" r="1" fill="white"/>
  <circle cx="7" cy="12" r="1" fill="srgba(79.0875%,73.0449%,68.7465%,1)"/>
  <circle cx="8" cy="12" r="1" fill="srgba(31.1421%,18.6038%,14.725%,1)"/>
  <circle cx="9" cy="12" r="1" fill="srgba(34.8516%,16.7544%,13.8476%,1)"/>
  <circle cx="10" cy="12" r="1" fill="srgba(53.5775%,27.3335%,24.8264%,1)"/>
  <circle cx="11" cy="12" r="1" fill="srgba(84.1917%,79.6475%,79.2401%,1)"/>
  <circle cx="12" cy="12" r="1" fill="srgba(91.0109%,91.31%,91.3375%,1)"/>
  <circle cx="13" cy="12" r="1" fill="srgba(90.6783%,90.7942%,90.808%,1)"/>
  <circle cx="14" cy="12" r="1" fill="srgba(66.8315%,43.1876%,40.5631%,1)"/>
  <circle cx="15" cy="12" r="1" fill="srgba(50.5821%,11.8853%,7.6051%,1)"/>
  <circle cx="0" cy="13" r="1" fill="srgba(99.9954%,99.9924%,99.9893%,1)"/>
  <circle cx="1" cy="13" r="1" fill="white"/>
  <circle cx="2" cy="13" r="1" fill="white"/>
  <circle cx="3" cy="13" r="1" fill="white"/>
  <circle cx="4" cy="13" r="1" fill="white"/>
  <circle cx="5" cy="13" r="1" fill="white"/>
  <circle cx="6" cy="13" r="1" fill="white"/>
  <circle cx="7" cy="13" r="1" fill="srgba(78.2544%,74.9523%,68.2795%,1)"/>
  <circle cx="8" cy="13" r="1" fill="srgba(30.5592%,20.1984%,14.5129%,1)"/>
  <circle cx="9" cy="13" r="1" fill="srgba(30.985%,17.3739%,13.9834%,1)"/>
  <circle cx="10" cy="13" r="1" fill="srgba(43.5325%,24.5258%,11.8807%,1)"/>
  <circle cx="11" cy="13" r="1" fill="srgba(67.1458%,51.9921%,49.3919%,1)"/>
  <circle cx="12" cy="13" r="1" fill="srgba(90.5898%,90.5257%,90.573%,1)"/>
  <circle cx="13" cy="13" r="1" fill="srgba(90.6722%,90.7744%,90.7851%,1)"/>
  <circle cx="14" cy="13" r="1" fill="srgba(67.2221%,44.004%,41.3947%,1)"/>
  <circle cx="15" cy="13" r="1" fill="srgba(50.8537%,11.5511%,7.1931%,1)"/>
  <circle cx="0" cy="14" r="1" fill="white"/>
  <circle cx="1" cy="14" r="1" fill="white"/>
  <circle cx="2" cy="14" r="1" fill="white"/>
  <circle cx="3" cy="14" r="1" fill="white"/>
  <circle cx="4" cy="14" r="1" fill="white"/>
  <circle cx="5" cy="14" r="1" fill="white"/>
  <circle cx="6" cy="14" r="1" fill="white"/>
  <circle cx="7" cy="14" r="1" fill="srgba(75.0988%,82.9358%,67.2435%,1)"/>
  <circle cx="8" cy="14" r="1" fill="srgba(28.2185%,26.5034%,13.7026%,1)"/>
  <circle cx="9" cy="14" r="1" fill="srgba(27.8431%,17.7905%,14.0978%,1)"/>
  <circle cx="10" cy="14" r="1" fill="srgba(34.6136%,40.5814%,8.5069%,1)"/>
  <circle cx="11" cy="14" r="1" fill="srgba(50.6416%,30.1411%,20.4517%,1)"/>
  <circle cx="12" cy="14" r="1" fill="srgba(82.2431%,76.3897%,75.8953%,1)"/>
  <circle cx="13" cy="14" r="1" fill="srgba(91.0628%,91.4275%,91.4626%,1)"/>
  <circle cx="14" cy="14" r="1" fill="srgba(81.529%,70.8812%,68.9509%,1)"/>
  <circle cx="15" cy="14" r="1" fill="srgba(63.6728%,39.4858%,36.1639%,1)"/>
  <circle cx="0" cy="15" r="1" fill="white"/>
  <circle cx="1" cy="15" r="1" fill="white"/>
  <circle cx="2" cy="15" r="1" fill="white"/>
  <circle cx="3" cy="15" r="1" fill="white"/>
  <circle cx="4" cy="15" r="1" fill="white"/>
  <circle cx="5" cy="15" r="1" fill="white"/>
  <circle cx="6" cy="15" r="1" fill="white"/>
  <circle cx="7" cy="15" r="1" fill="srgba(74.3587%,85.0889%,66.8406%,1)"/>
  <circle cx="8" cy="15" r="1" fill="srgba(27.8111%,28.5801%,13.4005%,1)"/>
  <circle cx="9" cy="15" r="1" fill="srgba(26.6453%,17.2763%,14.5342%,1)"/>
  <circle cx="10" cy="15" r="1" fill="srgba(34.1741%,32.8695%,9.86648%,1)"/>
  <circle cx="11" cy="15" r="1" fill="srgba(37.1801%,45.2995%,7.72259%,1)"/>
  <circle cx="12" cy="15" r="1" fill="srgba(64.7517%,53.814%,47.3701%,1)"/>
  <circle cx="13" cy="15" r="1" fill="srgba(90.5257%,90.1747%,90.3975%,1)"/>
  <circle cx="14" cy="15" r="1" fill="srgba(87.3671%,81.5885%,79.8947%,1)"/>
  <circle cx="15" cy="15" r="1" fill="srgba(83.2822%,72.5551%,69.7581%,1)"/>
</svg>
