<?xml version="1.0" standalone="no"?>
<!DOCTYPE svg PUBLIC "-//W3C//DTD SVG 20010904//EN"
  "http://www.w3.org/TR/2001/REC-SVG-20010904/DTD/svg10.dtd">
<svg width="16" height="16">
  <circle cx="0" cy="0" r="1" fill="srgba(34,158,69,1)"/>
  <circle cx="1" cy="0" r="1" fill="srgba(34,158,69,1)"/>
  <circle cx="2" cy="0" r="1" fill="srgba(34,158,69,1)"/>
  <circle cx="3" cy="0" r="1" fill="srgba(34,158,69,1)"/>
  <circle cx="4" cy="0" r="1" fill="srgba(34,158,69,1)"/>
  <circle cx="5" cy="0" r="1" fill="srgba(34,158,69,1)"/>
  <circle cx="6" cy="0" r="1" fill="srgba(34,158,69,1)"/>
  <circle cx="7" cy="0" r="1" fill="srgba(34,158,69,1)"/>
  <circle cx="8" cy="0" r="1" fill="srgba(34,158,69,1)"/>
  <circle cx="9" cy="0" r="1" fill="srgba(34,158,69,1)"/>
  <circle cx="10" cy="0" r="1" fill="srgba(34,158,69,1)"/>
  <circle cx="11" cy="0" r="1" fill="srgba(34,158,69,1)"/>
  <circle cx="12" cy="0" r="1" fill="srgba(34,158,69,1)"/>
  <circle cx="13" cy="0" r="1" fill="srgba(34,158,69,1)"/>
  <circle cx="14" cy="0" r="1" fill="srgba(34,158,69,1)"/>
  <circle cx="15" cy="0" r="1" fill="srgba(34,158,69,1)"/>
  <circle cx="0" cy="1" r="1" fill="srgba(34,158,69,1)"/>
  <circle cx="1" cy="1" r="1" fill="srgba(34,158,69,1)"/>
  <circle cx="2" cy="1" r="1" fill="srgba(34,158,69,1)"/>
  <circle cx="3" cy="1" r="1" fill="srgba(34,158,69,1)"/>
  <circle cx="4" cy="1" r="1" fill="srgba(34,158,69,1)"/>
  <circle cx="5" cy="1" r="1" fill="srgba(34,158,69,1)"/>
  <circle cx="6" cy="1" r="1" fill="srgba(34,158,69,1)"/>
  <circle cx="7" cy="1" r="1" fill="srgba(13.3318%,61.9608%,27.0588%,1)"/>
  <circle cx="8" cy="1" r="1" fill="srgba(13.3303%,61.9593%,27.0603%,1)"/>
  <circle cx="9" cy="1" r="1" fill="srgba(34,158,69,1)"/>
  <circle cx="10" cy="1" r="1" fill="srgba(34,158,69,1)"/>
  <circle cx="11" cy="1" r="1" fill="srgba(34,158,69,1)"/>
  <circle cx="12" cy="1" r="1" fill="srgba(34,158,69,1)"/>
  <circle cx="13" cy="1" r="1" fill="srgba(34,158,69,1)"/>
  <circle cx="14" cy="1" r="1" fill="srgba(34,158,69,1)"/>
  <circle cx="15" cy="1" r="1" fill="srgba(34,158,69,1)"/>
  <circle cx="0" cy="2" r="1" fill="srgba(34,158,69,1)"/>
  <circle cx="1" cy="2" r="1" fill="srgba(34,158,69,1)"/>
  <circle cx="2" cy="2" r="1" fill="srgba(34,158,69,1)"/>
  <circle cx="3" cy="2" r="1" fill="srgba(34,158,69,1)"/>
  <circle cx="4" cy="2" r="1" fill="srgba(34,158,69,1)"/>
  <circle cx="5" cy="2" r="1" fill="srgba(13.3425%,61.9638%,27.0558%,1)"/>
  <circle cx="6" cy="2" r="1" fill="srgba(13.1701%,61.9059%,27.1046%,1)"/>
  <circle cx="7" cy="2" r="1" fill="srgba(12.398%,61.651%,27.3213%,1)"/>
  <circle cx="8" cy="2" r="1" fill="srgba(12.34%,61.6312%,27.3365%,1)"/>
  <circle cx="9" cy="2" r="1" fill="srgba(12.9747%,61.8418%,27.1595%,1)"/>
  <circle cx="10" cy="2" r="1" fill="srgba(13.3471%,61.9654%,27.0558%,1)"/>
  <circle cx="11" cy="2" r="1" fill="srgba(34,158,69,1)"/>
  <circle cx="12" cy="2" r="1" fill="srgba(34,158,69,1)"/>
  <circle cx="13" cy="2" r="1" fill="srgba(34,158,69,1)"/>
  <circle cx="14" cy="2" r="1" fill="srgba(34,158,69,1)"/>
  <circle cx="15" cy="2" r="1" fill="srgba(34,158,69,1)"/>
  <circle cx="0" cy="3" r="1" fill="srgba(34,158,69,1)"/>
  <circle cx="1" cy="3" r="1" fill="srgba(34,158,69,1)"/>
  <circle cx="2" cy="3" r="1" fill="srgba(34,158,69,1)"/>
  <circle cx="3" cy="3" r="1" fill="srgba(13.3349%,61.9608%,27.0588%,1)"/>
  <circle cx="4" cy="3" r="1" fill="srgba(34,158,69,1)"/>
  <circle cx="5" cy="3" r="1" fill="srgba(12.5505%,61.6999%,27.2801%,1)"/>
  <circle cx="6" cy="3" r="1" fill="srgba(14.7692%,62.4521%,26.6407%,1)"/>
  <circle cx="7" cy="3" r="1" fill="srgba(40.499%,71.162%,19.2355%,1)"/>
  <circle cx="8" cy="3" r="1" fill="srgba(48.2017%,73.8018%,16.9833%,1)"/>
  <circle cx="9" cy="3" r="1" fill="srgba(18.5672%,63.7812%,25.4994%,1)"/>
  <circle cx="10" cy="3" r="1" fill="srgba(12.2454%,61.5976%,27.3655%,1)"/>
  <circle cx="11" cy="3" r="1" fill="srgba(13.2708%,61.9394%,27.0771%,1)"/>
  <circle cx="12" cy="3" r="1" fill="srgba(13.3379%,61.9623%,27.0573%,1)"/>
  <circle cx="13" cy="3" r="1" fill="srgba(34,158,69,1)"/>
  <circle cx="14" cy="3" r="1" fill="srgba(34,158,69,1)"/>
  <circle cx="15" cy="3" r="1" fill="srgba(34,158,69,1)"/>
  <circle cx="0" cy="4" r="1" fill="srgba(34,158,69,1)"/>
  <circle cx="1" cy="4" r="1" fill="srgba(34,158,69,1)"/>
  <circle cx="2" cy="4" r="1" fill="srgba(13.344%,61.9638%,27.0558%,1)"/>
  <circle cx="3" cy="4" r="1" fill="srgba(13.1014%,61.8845%,27.1244%,1)"/>
  <circle cx="4" cy="4" r="1" fill="srgba(12.2835%,61.6068%,27.3579%,1)"/>
  <circle cx="5" cy="4" r="1" fill="srgba(24.683%,65.832%,23.7583%,1)"/>
  <circle cx="6" cy="4" r="1" fill="srgba(62.9801%,78.5%,13.0632%,1)"/>
  <circle cx="7" cy="4" r="1" fill="srgba(86.8513%,83.4485%,9.63149%,1)"/>
  <circle cx="8" cy="4" r="1" fill="srgba(86.836%,82.1225%,11.0842%,1)"/>
  <circle cx="9" cy="4" r="1" fill="srgba(70.4707%,79.7375%,12.3323%,1)"/>
  <circle cx="10" cy="4" r="1" fill="srgba(33.1701%,68.8441%,21.1643%,1)"/>
  <circle cx="11" cy="4" r="1" fill="srgba(13.167%,61.9059%,27.1061%,1)"/>
  <circle cx="12" cy="4" r="1" fill="srgba(12.8115%,61.7868%,27.2053%,1)"/>
  <circle cx="13" cy="4" r="1" fill="srgba(13.3455%,61.9654%,27.0558%,1)"/>
  <circle cx="14" cy="4" r="1" fill="srgba(34,158,69,1)"/>
  <circle cx="15" cy="4" r="1" fill="srgba(34,158,69,1)"/>
  <circle cx="0" cy="5" r="1" fill="srgba(13.3349%,61.9608%,27.0588%,1)"/>
  <circle cx="1" cy="5" r="1" fill="srgba(13.3227%,61.9577%,27.0619%,1)"/>
  <circle cx="2" cy="5" r="1" fill="srgba(12.4498%,61.6678%,27.306%,1)"/>
  <circle cx="3" cy="5" r="1" fill="srgba(15.5459%,62.6947%,26.4378%,1)"/>
  <circle cx="4" cy="5" r="1" fill="srgba(43.3021%,72.0012%,18.5565%,1)"/>
  <circle cx="5" cy="5" r="1" fill="srgba(79.8489%,82.6307%,9.16304%,1)"/>
  <circle cx="6" cy="5" r="1" fill="srgba(60.6317%,61.4237%,29.9626%,1)"/>
  <circle cx="7" cy="5" r="1" fill="srgba(29.8848%,38.1918%,53.0053%,1)"/>
  <circle cx="8" cy="5" r="1" fill="srgba(25.1759%,34.7021%,56.4858%,1)"/>
  <circle cx="9" cy="5" r="1" fill="srgba(41.3443%,46.5995%,44.6403%,1)"/>
  <circle cx="10" cy="5" r="1" fill="srgba(72.7337%,74.1955%,16.968%,1)"/>
  <circle cx="11" cy="5" r="1" fill="srgba(54.7387%,75.7076%,13.8079%,1)"/>
  <circle cx="12" cy="5" r="1" fill="srgba(19.9344%,64.0146%,23.7324%,1)"/>
  <circle cx="13" cy="5" r="1" fill="srgba(11.8624%,61.3321%,26.0075%,1)"/>
  <circle cx="14" cy="5" r="1" fill="srgba(12.0287%,61.387%,25.9663%,1)"/>
  <circle cx="15" cy="5" r="1" fill="srgba(12.0394%,61.3901%,25.9663%,1)"/>
  <circle cx="0" cy="6" r="1" fill="srgba(13.1701%,61.9059%,27.1046%,1)"/>
  <circle cx="1" cy="6" r="1" fill="srgba(12.5628%,61.706%,27.274%,1)"/>
  <circle cx="2" cy="6" r="1" fill="srgba(26.5782%,66.3554%,23.3448%,1)"/>
  <circle cx="3" cy="6" r="1" fill="srgba(66.0456%,79.4507%,12.2759%,1)"/>
  <circle cx="4" cy="6" r="1" fill="srgba(95.2087%,89.3538%,3.52026%,1)"/>
  <circle cx="5" cy="6" r="1" fill="srgba(82.1134%,79.4873%,32.5017%,1)"/>
  <circle cx="6" cy="6" r="1" fill="srgba(47.8248%,55.8053%,74.815%,1)"/>
  <circle cx="7" cy="6" r="1" fill="srgba(38.7747%,49.4118%,72.2011%,1)"/>
  <circle cx="8" cy="6" r="1" fill="srgba(36.6003%,47.9164%,70.2434%,1)"/>
  <circle cx="9" cy="6" r="1" fill="srgba(37.1817%,47.7272%,72.8969%,1)"/>
  <circle cx="10" cy="6" r="1" fill="srgba(56.5591%,61.5946%,59.9619%,1)"/>
  <circle cx="11" cy="6" r="1" fill="srgba(94.4961%,90.3227%,31.429%,1)"/>
  <circle cx="12" cy="6" r="1" fill="srgba(76.5682%,85.4704%,34.7509%,1)"/>
  <circle cx="13" cy="6" r="1" fill="srgba(42.0127%,73.9101%,44.2298%,1)"/>
  <circle cx="14" cy="6" r="1" fill="srgba(35.2026%,71.6365%,45.922%,1)"/>
  <circle cx="15" cy="6" r="1" fill="srgba(35.3918%,71.6884%,45.7145%,1)"/>
  <circle cx="0" cy="7" r="1" fill="srgba(14.6777%,62.4063%,26.6819%,1)"/>
  <circle cx="1" cy="7" r="1" fill="srgba(44.7807%,72.3949%,18.2406%,1)"/>
  <circle cx="2" cy="7" r="1" fill="srgba(85.9327%,86.0472%,6.70329%,1)"/>
  <circle cx="3" cy="7" r="1" fill="srgba(98.323%,90.1946%,3.18761%,1)"/>
  <circle cx="4" cy="7" r="1" fill="srgba(96.0159%,88.6732%,4.42206%,1)"/>
  <circle cx="5" cy="7" r="1" fill="srgba(52.987%,57.7615%,49.1966%,1)"/>
  <circle cx="6" cy="7" r="1" fill="srgba(47.3091%,67.4907%,62.1363%,1)"/>
  <circle cx="7" cy="7" r="1" fill="srgba(38.1552%,70.9697%,41.1749%,1)"/>
  <circle cx="8" cy="7" r="1" fill="srgba(61.6114%,81.5396%,64.1749%,1)"/>
  <circle cx="9" cy="7" r="1" fill="srgba(81.6876%,91.1238%,83.8636%,1)"/>
  <circle cx="10" cy="7" r="1" fill="srgba(85.5344%,93.0694%,88.7434%,1)"/>
  <circle cx="11" cy="7" r="1" fill="srgba(90.6813%,96.1471%,90.9407%,1)"/>
  <circle cx="12" cy="7" r="1" fill="srgba(93.2647%,97.4472%,91.6411%,1)"/>
  <circle cx="13" cy="7" r="1" fill="srgba(92.9793%,97.5906%,93.7774%,1)"/>
  <circle cx="14" cy="7" r="1" fill="srgba(93.5683%,98.0331%,95.6924%,1)"/>
  <circle cx="15" cy="7" r="1" fill="srgba(93.1365%,97.8363%,95.3124%,1)"/>
  <circle cx="0" cy="8" r="1" fill="srgba(14.7951%,62.446%,26.6484%,1)"/>
  <circle cx="1" cy="8" r="1" fill="srgba(46.0288%,72.8084%,17.8927%,1)"/>
  <circle cx="2" cy="8" r="1" fill="srgba(86.804%,86.3355%,6.46067%,1)"/>
  <circle cx="3" cy="8" r="1" fill="srgba(98.3658%,90.2098%,3.17693%,1)"/>
  <circle cx="4" cy="8" r="1" fill="srgba(96.1593%,88.7922%,4.48615%,1)"/>
  <circle cx="5" cy="8" r="1" fill="srgba(42.8717%,49.4072%,44.1047%,1)"/>
  <circle cx="6" cy="8" r="1" fill="srgba(20.6058%,53.5256%,38.2895%,1)"/>
  <circle cx="7" cy="8" r="1" fill="srgba(17.0687%,61.5671%,20.4822%,1)"/>
  <circle cx="8" cy="8" r="1" fill="srgba(53.7194%,78.3383%,55.9182%,1)"/>
  <circle cx="9" cy="8" r="1" fill="srgba(71.6762%,86.7659%,73.0114%,1)"/>
  <circle cx="10" cy="8" r="1" fill="srgba(49.6269%,76.495%,52.1492%,1)"/>
  <circle cx="11" cy="8" r="1" fill="srgba(70.0832%,86.2119%,72.0851%,1)"/>
  <circle cx="12" cy="8" r="1" fill="srgba(71.2993%,86.9306%,73.5637%,1)"/>
  <circle cx="13" cy="8" r="1" fill="srgba(63.3143%,83.3845%,66.2425%,1)"/>
  <circle cx="14" cy="8" r="1" fill="srgba(75.6542%,89.5766%,78.7213%,1)"/>
  <circle cx="15" cy="8" r="1" fill="srgba(83.1037%,93.3089%,86.3157%,1)"/>
  <circle cx="0" cy="9" r="1" fill="srgba(13.1594%,61.9028%,27.1077%,1)"/>
  <circle cx="1" cy="9" r="1" fill="srgba(12.6802%,61.7441%,27.2419%,1)"/>
  <circle cx="2" cy="9" r="1" fill="srgba(27.3228%,66.6026%,23.1373%,1)"/>
  <circle cx="3" cy="9" r="1" fill="srgba(66.6667%,79.6567%,12.105%,1)"/>
  <circle cx="4" cy="9" r="1" fill="srgba(95.4696%,89.5079%,3.62402%,1)"/>
  <circle cx="5" cy="9" r="1" fill="srgba(69.0837%,68.8319%,25.6443%,1)"/>
  <circle cx="6" cy="9" r="1" fill="srgba(21.9043%,55.4452%,33.1167%,1)"/>
  <circle cx="7" cy="9" r="1" fill="srgba(17.3709%,61.7151%,21.0285%,1)"/>
  <circle cx="8" cy="9" r="1" fill="srgba(55.7382%,79.2584%,57.8759%,1)"/>
  <circle cx="9" cy="9" r="1" fill="srgba(90.7073%,95.6451%,91.1559%,1)"/>
  <circle cx="10" cy="9" r="1" fill="srgba(40.6302%,72.1752%,43.4943%,1)"/>
  <circle cx="11" cy="9" r="1" fill="srgba(28.9601%,66.6987%,32.3674%,1)"/>
  <circle cx="12" cy="9" r="1" fill="srgba(46.0014%,74.6746%,48.5679%,1)"/>
  <circle cx="13" cy="9" r="1" fill="srgba(71.104%,86.4454%,72.4758%,1)"/>
  <circle cx="14" cy="9" r="1" fill="srgba(81.3718%,91.3298%,82.3926%,1)"/>
  <circle cx="15" cy="9" r="1" fill="srgba(73.0388%,87.57%,74.7585%,1)"/>
  <circle cx="0" cy="10" r="1" fill="srgba(13.3349%,61.9608%,27.0588%,1)"/>
  <circle cx="1" cy="10" r="1" fill="srgba(13.3165%,61.9547%,27.0634%,1)"/>
  <circle cx="2" cy="10" r="1" fill="srgba(12.4208%,61.6587%,27.3152%,1)"/>
  <circle cx="3" cy="10" r="1" fill="srgba(15.6664%,62.7344%,26.4057%,1)"/>
  <circle cx="4" cy="10" r="1" fill="srgba(43.3555%,72.0012%,18.5641%,1)"/>
  <circle cx="5" cy="10" r="1" fill="srgba(78.6557%,82.5895%,9.71695%,1)"/>
  <circle cx="6" cy="10" r="1" fill="srgba(37.9156%,67.2099%,19.8886%,1)"/>
  <circle cx="7" cy="10" r="1" fill="srgba(17.1817%,61.387%,22.3514%,1)"/>
  <circle cx="8" cy="10" r="1" fill="srgba(38.5901%,71.223%,41.5549%,1)"/>
  <circle cx="9" cy="10" r="1" fill="srgba(75.6222%,88.5771%,76.8002%,1)"/>
  <circle cx="10" cy="10" r="1" fill="srgba(66.4714%,84.2878%,68.0919%,1)"/>
  <circle cx="11" cy="10" r="1" fill="srgba(32.0058%,68.1376%,35.2911%,1)"/>
  <circle cx="12" cy="10" r="1" fill="srgba(16.7895%,61.0071%,20.8103%,1)"/>
  <circle cx="13" cy="10" r="1" fill="srgba(23.7705%,64.2786%,27.4525%,1)"/>
  <circle cx="14" cy="10" r="1" fill="srgba(46.0792%,74.7295%,48.6793%,1)"/>
  <circle cx="15" cy="10" r="1" fill="srgba(60.174%,81.326%,62.0783%,1)"/>
  <circle cx="0" cy="11" r="1" fill="srgba(34,158,69,1)"/>
  <circle cx="1" cy="11" r="1" fill="srgba(34,158,69,1)"/>
  <circle cx="2" cy="11" r="1" fill="srgba(13.344%,61.9638%,27.0558%,1)"/>
  <circle cx="3" cy="11" r="1" fill="srgba(13.0968%,61.883%,27.1244%,1)"/>
  <circle cx="4" cy="11" r="1" fill="srgba(12.3171%,61.622%,27.3518%,1)"/>
  <circle cx="5" cy="11" r="1" fill="srgba(23.8956%,65.4978%,23.9704%,1)"/>
  <circle cx="6" cy="11" r="1" fill="srgba(25.5833%,64.8386%,21.5518%,1)"/>
  <circle cx="7" cy="11" r="1" fill="srgba(18.7808%,61.9532%,23.09%,1)"/>
  <circle cx="8" cy="11" r="1" fill="srgba(21.0315%,62.9953%,24.8463%,1)"/>
  <circle cx="9" cy="11" r="1" fill="srgba(53.1044%,78.024%,55.3689%,1)"/>
  <circle cx="10" cy="11" r="1" fill="srgba(90.1366%,95.3796%,90.6126%,1)"/>
  <circle cx="11" cy="11" r="1" fill="srgba(46.6423%,74.995%,49.218%,1)"/>
  <circle cx="12" cy="11" r="1" fill="srgba(17.5174%,61.3489%,21.5015%,1)"/>
  <circle cx="13" cy="11" r="1" fill="srgba(18.5107%,61.8143%,22.446%,1)"/>
  <circle cx="14" cy="11" r="1" fill="srgba(17.6822%,61.4267%,21.6587%,1)"/>
  <circle cx="15" cy="11" r="1" fill="srgba(17.7081%,61.4389%,21.6831%,1)"/>
  <circle cx="0" cy="12" r="1" fill="srgba(34,158,69,1)"/>
  <circle cx="1" cy="12" r="1" fill="srgba(34,158,69,1)"/>
  <circle cx="2" cy="12" r="1" fill="srgba(34,158,69,1)"/>
  <circle cx="3" cy="12" r="1" fill="srgba(13.3349%,61.9608%,27.0588%,1)"/>
  <circle cx="4" cy="12" r="1" fill="srgba(13.3272%,61.9608%,27.0634%,1)"/>
  <circle cx="5" cy="12" r="1" fill="srgba(12.8359%,61.7639%,27.1489%,1)"/>
  <circle cx="6" cy="12" r="1" fill="srgba(16.7407%,61.8158%,24.1352%,1)"/>
  <circle cx="7" cy="12" r="1" fill="srgba(19.3881%,62.1805%,23.0991%,1)"/>
  <circle cx="8" cy="12" r="1" fill="srgba(21.593%,63.2593%,25.3803%,1)"/>
  <circle cx="9" cy="12" r="1" fill="srgba(53.7148%,78.3108%,55.9503%,1)"/>
  <circle cx="10" cy="12" r="1" fill="white"/>
  <circle cx="11" cy="12" r="1" fill="srgba(63.1678%,82.742%,64.947%,1)"/>
  <circle cx="12" cy="12" r="1" fill="srgba(18.1643%,61.651%,22.1164%,1)"/>
  <circle cx="13" cy="12" r="1" fill="srgba(18.8159%,61.9577%,22.7375%,1)"/>
  <circle cx="14" cy="12" r="1" fill="srgba(48,158,58,1)"/>
  <circle cx="15" cy="12" r="1" fill="srgba(48,158,58,1)"/>
  <circle cx="0" cy="13" r="1" fill="srgba(34,158,69,1)"/>
  <circle cx="1" cy="13" r="1" fill="srgba(34,158,69,1)"/>
  <circle cx="2" cy="13" r="1" fill="srgba(34,158,69,1)"/>
  <circle cx="3" cy="13" r="1" fill="srgba(34,158,69,1)"/>
  <circle cx="4" cy="13" r="1" fill="srgba(13.3272%,61.9608%,27.0634%,1)"/>
  <circle cx="5" cy="13" r="1" fill="srgba(13.4264%,61.9608%,26.9856%,1)"/>
  <circle cx="6" cy="13" r="1" fill="srgba(17.1145%,61.944%,24.0253%,1)"/>
  <circle cx="7" cy="13" r="1" fill="srgba(19.5346%,62.2507%,23.2639%,1)"/>
  <circle cx="8" cy="13" r="1" fill="srgba(21.7151%,63.3158%,25.4978%,1)"/>
  <circle cx="9" cy="13" r="1" fill="srgba(53.521%,78.2193%,55.7656%,1)"/>
  <circle cx="10" cy="13" r="1" fill="white"/>
  <circle cx="11" cy="13" r="1" fill="srgba(77.5906%,89.4972%,78.6725%,1)"/>
  <circle cx="12" cy="13" r="1" fill="srgba(20.6592%,62.8199%,24.4907%,1)"/>
  <circle cx="13" cy="13" r="1" fill="srgba(18.584%,61.8494%,22.5177%,1)"/>
  <circle cx="14" cy="13" r="1" fill="srgba(18.8281%,61.9623%,22.7497%,1)"/>
  <circle cx="15" cy="13" r="1" fill="srgba(48,158,58,1)"/>
  <circle cx="0" cy="14" r="1" fill="srgba(34,158,69,1)"/>
  <circle cx="1" cy="14" r="1" fill="srgba(34,158,69,1)"/>
  <circle cx="2" cy="14" r="1" fill="srgba(34,158,69,1)"/>
  <circle cx="3" cy="14" r="1" fill="srgba(34,158,69,1)"/>
  <circle cx="4" cy="14" r="1" fill="srgba(13.3272%,61.9608%,27.0634%,1)"/>
  <circle cx="5" cy="14" r="1" fill="srgba(13.4234%,61.9608%,26.9886%,1)"/>
  <circle cx="6" cy="14" r="1" fill="srgba(17.0916%,61.9379%,24.0238%,1)"/>
  <circle cx="7" cy="14" r="1" fill="srgba(19.7101%,62.3331%,23.4302%,1)"/>
  <circle cx="8" cy="14" r="1" fill="srgba(21.8387%,63.3738%,25.6138%,1)"/>
  <circle cx="9" cy="14" r="1" fill="srgba(53.3257%,78.1277%,55.581%,1)"/>
  <circle cx="10" cy="14" r="1" fill="white"/>
  <circle cx="11" cy="14" r="1" fill="srgba(93.0632%,96.7498%,93.3989%,1)"/>
  <circle cx="12" cy="14" r="1" fill="srgba(42.7405%,73.1685%,45.507%,1)"/>
  <circle cx="13" cy="14" r="1" fill="srgba(19.266%,62.1683%,23.1647%,1)"/>
  <circle cx="14" cy="14" r="1" fill="srgba(18.0423%,61.5946%,22.002%,1)"/>
  <circle cx="15" cy="14" r="1" fill="srgba(18.204%,61.6693%,22.1546%,1)"/>
  <circle cx="0" cy="15" r="1" fill="srgba(34,158,69,1)"/>
  <circle cx="1" cy="15" r="1" fill="srgba(34,158,69,1)"/>
  <circle cx="2" cy="15" r="1" fill="srgba(34,158,69,1)"/>
  <circle cx="3" cy="15" r="1" fill="srgba(34,158,69,1)"/>
  <circle cx="4" cy="15" r="1" fill="srgba(13.3272%,61.9608%,27.0634%,1)"/>
  <circle cx="5" cy="15" r="1" fill="srgba(13.4203%,61.9608%,26.9902%,1)"/>
  <circle cx="6" cy="15" r="1" fill="srgba(17.0718%,61.9333%,24.0208%,1)"/>
  <circle cx="7" cy="15" r="1" fill="srgba(19.8657%,62.4063%,23.5767%,1)"/>
  <circle cx="8" cy="15" r="1" fill="srgba(21.9425%,63.4226%,25.713%,1)"/>
  <circle cx="9" cy="15" r="1" fill="srgba(53.1502%,78.0468%,55.4147%,1)"/>
  <circle cx="10" cy="15" r="1" fill="white"/>
  <circle cx="11" cy="15" r="1" fill="white"/>
  <circle cx="12" cy="15" r="1" fill="srgba(91.8791%,96.1944%,92.2713%,1)"/>
  <circle cx="13" cy="15" r="1" fill="srgba(61.2467%,81.8402%,63.1189%,1)"/>
  <circle cx="14" cy="15" r="1" fill="srgba(38.3185%,71.0964%,41.2985%,1)"/>
  <circle cx="15" cy="15" r="1" fill="srgba(32.3156%,68.2826%,35.584%,1)"/>
</svg>
