<?xml version="1.0" standalone="no"?>
<!DOCTYPE svg PUBLIC "-//W3C//DTD SVG 20010904//EN"
  "http://www.w3.org/TR/2001/REC-SVG-20010904/DTD/svg10.dtd">
<svg width="16" height="16">
  <circle cx="0" cy="0" r="1" fill="srgba(5.93881%,78.2406%,81.1627%,1)"/>
  <circle cx="1" cy="0" r="1" fill="srgba(6.10208%,82.4231%,85.507%,1)"/>
  <circle cx="2" cy="0" r="1" fill="srgba(6.06546%,81.474%,84.5212%,1)"/>
  <circle cx="3" cy="0" r="1" fill="srgba(6.06088%,81.3596%,84.4022%,1)"/>
  <circle cx="4" cy="0" r="1" fill="srgba(6.06088%,81.3657%,84.4083%,1)"/>
  <circle cx="5" cy="0" r="1" fill="srgba(6.06088%,81.3657%,84.4083%,1)"/>
  <circle cx="6" cy="0" r="1" fill="srgba(6.06088%,81.3657%,84.4083%,1)"/>
  <circle cx="7" cy="0" r="1" fill="srgba(6.06088%,81.3657%,84.4083%,1)"/>
  <circle cx="8" cy="0" r="1" fill="srgba(6.06088%,81.3657%,84.4083%,1)"/>
  <circle cx="9" cy="0" r="1" fill="srgba(6.06088%,81.3657%,84.4083%,1)"/>
  <circle cx="10" cy="0" r="1" fill="srgba(6.06088%,81.3657%,84.4083%,1)"/>
  <circle cx="11" cy="0" r="1" fill="srgba(6.06088%,81.3657%,84.4083%,1)"/>
  <circle cx="12" cy="0" r="1" fill="srgba(6.06088%,81.3657%,84.4083%,1)"/>
  <circle cx="13" cy="0" r="1" fill="srgba(6.06088%,81.3657%,84.4083%,1)"/>
  <circle cx="14" cy="0" r="1" fill="srgba(6.06088%,81.3657%,84.4083%,1)"/>
  <circle cx="15" cy="0" r="1" fill="srgba(6.06088%,81.3657%,84.4083%,1)"/>
  <circle cx="0" cy="1" r="1" fill="srgba(0.859083%,26.2318%,27.2572%,1)"/>
  <circle cx="1" cy="1" r="1" fill="srgba(2.18662%,60.4074%,62.7588%,1)"/>
  <circle cx="2" cy="1" r="1" fill="srgba(2.95872%,80.3128%,83.4379%,1)"/>
  <circle cx="3" cy="1" r="1" fill="srgba(3.00298%,81.4527%,84.622%,1)"/>
  <circle cx="4" cy="1" r="1" fill="srgba(2.97704%,80.7538%,83.8956%,1)"/>
  <circle cx="5" cy="1" r="1" fill="srgba(2.97704%,80.7507%,83.8926%,1)"/>
  <circle cx="6" cy="1" r="1" fill="srgba(2.97704%,80.7523%,83.8941%,1)"/>
  <circle cx="7" cy="1" r="1" fill="srgba(2.97704%,80.7523%,83.8941%,1)"/>
  <circle cx="8" cy="1" r="1" fill="srgba(2.97704%,80.7523%,83.8941%,1)"/>
  <circle cx="9" cy="1" r="1" fill="srgba(2.97704%,80.7523%,83.8941%,1)"/>
  <circle cx="10" cy="1" r="1" fill="srgba(2.97704%,80.7523%,83.8941%,1)"/>
  <circle cx="11" cy="1" r="1" fill="srgba(2.97704%,80.7523%,83.8941%,1)"/>
  <circle cx="12" cy="1" r="1" fill="srgba(2.97704%,80.7523%,83.8941%,1)"/>
  <circle cx="13" cy="1" r="1" fill="srgba(2.97704%,80.7523%,83.8941%,1)"/>
  <circle cx="14" cy="1" r="1" fill="srgba(2.97704%,80.7523%,83.8941%,1)"/>
  <circle cx="15" cy="1" r="1" fill="srgba(2.97704%,80.7523%,83.8941%,1)"/>
  <circle cx="0" cy="2" r="1" fill="black"/>
  <circle cx="1" cy="2" r="1" fill="srgba(0.230411%,5.94644%,6.17685%,1)"/>
  <circle cx="2" cy="2" r="1" fill="srgba(1.40536%,36.2005%,37.6059%,1)"/>
  <circle cx="3" cy="2" r="1" fill="srgba(2.74205%,70.6126%,73.3547%,1)"/>
  <circle cx="4" cy="2" r="1" fill="srgba(3.1754%,81.7548%,84.9302%,1)"/>
  <circle cx="5" cy="2" r="1" fill="srgba(3.14946%,81.091%,84.2405%,1)"/>
  <circle cx="6" cy="2" r="1" fill="srgba(3.13725%,80.7736%,83.9094%,1)"/>
  <circle cx="7" cy="2" r="1" fill="srgba(8,206,214,1)"/>
  <circle cx="8" cy="2" r="1" fill="srgba(8,206,214,1)"/>
  <circle cx="9" cy="2" r="1" fill="srgba(8,206,214,1)"/>
  <circle cx="10" cy="2" r="1" fill="srgba(8,206,214,1)"/>
  <circle cx="11" cy="2" r="1" fill="srgba(8,206,214,1)"/>
  <circle cx="12" cy="2" r="1" fill="srgba(8,206,214,1)"/>
  <circle cx="13" cy="2" r="1" fill="srgba(8,206,214,1)"/>
  <circle cx="14" cy="2" r="1" fill="srgba(8,206,214,1)"/>
  <circle cx="15" cy="2" r="1" fill="srgba(8,206,214,1)"/>
  <circle cx="0" cy="3" r="1" fill="black"/>
  <circle cx="1" cy="3" r="1" fill="black"/>
  <circle cx="2" cy="3" r="1" fill="srgba(0.00762951%,0.198367%,0.205997%,1)"/>
  <circle cx="3" cy="3" r="1" fill="srgba(0.531014%,13.6675%,14.197%,1)"/>
  <circle cx="4" cy="3" r="1" fill="srgba(1.93484%,49.8054%,51.7388%,1)"/>
  <circle cx="5" cy="3" r="1" fill="srgba(2.99687%,77.1847%,80.1816%,1)"/>
  <circle cx="6" cy="3" r="1" fill="srgba(3.17845%,81.8311%,85.0095%,1)"/>
  <circle cx="7" cy="3" r="1" fill="srgba(3.12657%,80.8576%,84.0101%,1)"/>
  <circle cx="8" cy="3" r="1" fill="srgba(3.11437%,80.7767%,83.9368%,1)"/>
  <circle cx="9" cy="3" r="1" fill="srgba(3.11437%,80.7813%,83.9414%,1)"/>
  <circle cx="10" cy="3" r="1" fill="srgba(3.11437%,80.7813%,83.9414%,1)"/>
  <circle cx="11" cy="3" r="1" fill="srgba(3.11437%,80.7813%,83.9414%,1)"/>
  <circle cx="12" cy="3" r="1" fill="srgba(3.11437%,80.7813%,83.9414%,1)"/>
  <circle cx="13" cy="3" r="1" fill="srgba(3.11437%,80.7813%,83.9414%,1)"/>
  <circle cx="14" cy="3" r="1" fill="srgba(3.11437%,80.7813%,83.9414%,1)"/>
  <circle cx="15" cy="3" r="1" fill="srgba(3.11437%,80.7813%,83.9414%,1)"/>
  <circle cx="0" cy="4" r="1" fill="black"/>
  <circle cx="1" cy="4" r="1" fill="black"/>
  <circle cx="2" cy="4" r="1" fill="black"/>
  <circle cx="3" cy="4" r="1" fill="black"/>
  <circle cx="4" cy="4" r="1" fill="srgba(0.0823987%,2.10422%,2.18509%,1)"/>
  <circle cx="5" cy="4" r="1" fill="srgba(0.961318%,24.741%,25.7023%,1)"/>
  <circle cx="6" cy="4" r="1" fill="srgba(2.40482%,62.2141%,64.6403%,1)"/>
  <circle cx="7" cy="4" r="1" fill="srgba(3.93072%,80.7446%,83.0991%,1)"/>
  <circle cx="8" cy="4" r="1" fill="srgba(3.7644%,81.4908%,84.065%,1)"/>
  <circle cx="9" cy="4" r="1" fill="srgba(3.05791%,80.7721%,83.9872%,1)"/>
  <circle cx="10" cy="4" r="1" fill="srgba(3.06096%,80.7752%,83.9872%,1)"/>
  <circle cx="11" cy="4" r="1" fill="srgba(3.06249%,80.7767%,83.9872%,1)"/>
  <circle cx="12" cy="4" r="1" fill="srgba(3.06249%,80.7767%,83.9872%,1)"/>
  <circle cx="13" cy="4" r="1" fill="srgba(3.06249%,80.7767%,83.9872%,1)"/>
  <circle cx="14" cy="4" r="1" fill="srgba(3.06249%,80.7767%,83.9872%,1)"/>
  <circle cx="15" cy="4" r="1" fill="srgba(3.06249%,80.7767%,83.9872%,1)"/>
  <circle cx="0" cy="5" r="1" fill="black"/>
  <circle cx="1" cy="5" r="1" fill="black"/>
  <circle cx="2" cy="5" r="1" fill="black"/>
  <circle cx="3" cy="5" r="1" fill="black"/>
  <circle cx="4" cy="5" r="1" fill="black"/>
  <circle cx="5" cy="5" r="1" fill="black"/>
  <circle cx="6" cy="5" r="1" fill="srgba(0%,6.77806%,7.49523%,1)"/>
  <circle cx="7" cy="5" r="1" fill="srgba(14.3862%,39.5697%,28.4611%,1)"/>
  <circle cx="8" cy="5" r="1" fill="srgba(51.6091%,77.1527%,32.3095%,1)"/>
  <circle cx="9" cy="5" r="1" fill="srgba(64.2603%,88.5084%,32.0897%,1)"/>
  <circle cx="10" cy="5" r="1" fill="srgba(63.2837%,87.6158%,32.0897%,1)"/>
  <circle cx="11" cy="5" r="1" fill="srgba(62.9526%,87.3136%,32.0897%,1)"/>
  <circle cx="12" cy="5" r="1" fill="srgba(62.9664%,87.3259%,32.0897%,1)"/>
  <circle cx="13" cy="5" r="1" fill="srgba(62.9664%,87.3259%,32.0897%,1)"/>
  <circle cx="14" cy="5" r="1" fill="srgba(62.9664%,87.3259%,32.0897%,1)"/>
  <circle cx="15" cy="5" r="1" fill="srgba(62.9664%,87.3259%,32.0897%,1)"/>
  <circle cx="0" cy="6" r="1" fill="black"/>
  <circle cx="1" cy="6" r="1" fill="black"/>
  <circle cx="2" cy="6" r="1" fill="black"/>
  <circle cx="3" cy="6" r="1" fill="black"/>
  <circle cx="4" cy="6" r="1" fill="black"/>
  <circle cx="5" cy="6" r="1" fill="black"/>
  <circle cx="6" cy="6" r="1" fill="black"/>
  <circle cx="7" cy="6" r="1" fill="srgba(1.05745%,0.448615%,0%,1)"/>
  <circle cx="8" cy="6" r="1" fill="srgba(20.441%,17.322%,0%,1)"/>
  <circle cx="9" cy="6" r="1" fill="srgba(65.9892%,58.8922%,0%,1)"/>
  <circle cx="10" cy="6" r="1" fill="srgba(96.8887%,88.2536%,0%,1)"/>
  <circle cx="11" cy="6" r="1" fill="srgba(100%,92.1584%,0%,1)"/>
  <circle cx="12" cy="6" r="1" fill="srgba(100%,91.5389%,0%,1)"/>
  <circle cx="13" cy="6" r="1" fill="srgba(100%,91.5572%,0%,1)"/>
  <circle cx="14" cy="6" r="1" fill="srgba(100%,91.5572%,0%,1)"/>
  <circle cx="15" cy="6" r="1" fill="srgba(100%,91.5572%,0%,1)"/>
  <circle cx="0" cy="7" r="1" fill="black"/>
  <circle cx="1" cy="7" r="1" fill="black"/>
  <circle cx="2" cy="7" r="1" fill="black"/>
  <circle cx="3" cy="7" r="1" fill="black"/>
  <circle cx="4" cy="7" r="1" fill="black"/>
  <circle cx="5" cy="7" r="1" fill="black"/>
  <circle cx="6" cy="7" r="1" fill="black"/>
  <circle cx="7" cy="7" r="1" fill="black"/>
  <circle cx="8" cy="7" r="1" fill="black"/>
  <circle cx="9" cy="7" r="1" fill="srgba(2.60014%,2.37736%,0%,1)"/>
  <circle cx="10" cy="7" r="1" fill="srgba(33.7789%,30.8644%,0%,1)"/>
  <circle cx="11" cy="7" r="1" fill="srgba(88.1987%,80.5905%,0%,1)"/>
  <circle cx="12" cy="7" r="1" fill="srgba(100%,91.9448%,0%,1)"/>
  <circle cx="13" cy="7" r="1" fill="srgba(255,233,0,1)"/>
  <circle cx="14" cy="7" r="1" fill="srgba(255,233,0,1)"/>
  <circle cx="15" cy="7" r="1" fill="srgba(255,233,0,1)"/>
  <circle cx="0" cy="8" r="1" fill="black"/>
  <circle cx="1" cy="8" r="1" fill="black"/>
  <circle cx="2" cy="8" r="1" fill="black"/>
  <circle cx="3" cy="8" r="1" fill="black"/>
  <circle cx="4" cy="8" r="1" fill="black"/>
  <circle cx="5" cy="8" r="1" fill="black"/>
  <circle cx="6" cy="8" r="1" fill="black"/>
  <circle cx="7" cy="8" r="1" fill="black"/>
  <circle cx="8" cy="8" r="1" fill="black"/>
  <circle cx="9" cy="8" r="1" fill="srgba(9.6849%,8.84871%,0%,1)"/>
  <circle cx="10" cy="8" r="1" fill="srgba(49.9794%,45.6672%,0%,1)"/>
  <circle cx="11" cy="8" r="1" fill="srgba(92.6543%,84.6616%,0%,1)"/>
  <circle cx="12" cy="8" r="1" fill="srgba(100%,91.7433%,0%,1)"/>
  <circle cx="13" cy="8" r="1" fill="srgba(255,233,0,1)"/>
  <circle cx="14" cy="8" r="1" fill="srgba(255,233,0,1)"/>
  <circle cx="15" cy="8" r="1" fill="srgba(255,233,0,1)"/>
  <circle cx="0" cy="9" r="1" fill="black"/>
  <circle cx="1" cy="9" r="1" fill="black"/>
  <circle cx="2" cy="9" r="1" fill="black"/>
  <circle cx="3" cy="9" r="1" fill="black"/>
  <circle cx="4" cy="9" r="1" fill="black"/>
  <circle cx="5" cy="9" r="1" fill="black"/>
  <circle cx="6" cy="9" r="1" fill="black"/>
  <circle cx="7" cy="9" r="1" fill="srgba(4.02075%,2.79698%,0%,1)"/>
  <circle cx="8" cy="9" r="1" fill="srgba(34.2535%,29.9245%,0%,1)"/>
  <circle cx="9" cy="9" r="1" fill="srgba(80.7782%,72.5338%,0%,1)"/>
  <circle cx="10" cy="9" r="1" fill="srgba(99.7528%,91.8212%,0%,1)"/>
  <circle cx="11" cy="9" r="1" fill="srgba(100%,92.0516%,0%,1)"/>
  <circle cx="12" cy="9" r="1" fill="srgba(100%,91.5358%,0%,1)"/>
  <circle cx="13" cy="9" r="1" fill="srgba(100%,91.5557%,0%,1)"/>
  <circle cx="14" cy="9" r="1" fill="srgba(100%,91.5557%,0%,1)"/>
  <circle cx="15" cy="9" r="1" fill="srgba(100%,91.5557%,0%,1)"/>
  <circle cx="0" cy="10" r="1" fill="black"/>
  <circle cx="1" cy="10" r="1" fill="black"/>
  <circle cx="2" cy="10" r="1" fill="black"/>
  <circle cx="3" cy="10" r="1" fill="black"/>
  <circle cx="4" cy="10" r="1" fill="black"/>
  <circle cx="5" cy="10" r="1" fill="srgba(0%,0.169375%,0.256352%,1)"/>
  <circle cx="6" cy="10" r="1" fill="srgba(1.40536%,13.9635%,13.6568%,1)"/>
  <circle cx="7" cy="10" r="1" fill="srgba(29.781%,53.6965%,28.5313%,1)"/>
  <circle cx="8" cy="10" r="1" fill="srgba(62.858%,84.2191%,28.8548%,1)"/>
  <circle cx="9" cy="10" r="1" fill="srgba(67.9652%,88.8579%,28.8228%,1)"/>
  <circle cx="10" cy="10" r="1" fill="srgba(66.7933%,87.7867%,28.8228%,1)"/>
  <circle cx="11" cy="10" r="1" fill="srgba(66.7262%,87.7241%,28.8228%,1)"/>
  <circle cx="12" cy="10" r="1" fill="srgba(66.7308%,87.7287%,28.8228%,1)"/>
  <circle cx="13" cy="10" r="1" fill="srgba(66.7308%,87.7287%,28.8228%,1)"/>
  <circle cx="14" cy="10" r="1" fill="srgba(66.7308%,87.7287%,28.8228%,1)"/>
  <circle cx="15" cy="10" r="1" fill="srgba(66.7308%,87.7287%,28.8228%,1)"/>
  <circle cx="0" cy="11" r="1" fill="black"/>
  <circle cx="1" cy="11" r="1" fill="black"/>
  <circle cx="2" cy="11" r="1" fill="black"/>
  <circle cx="3" cy="11" r="1" fill="black"/>
  <circle cx="4" cy="11" r="1" fill="srgba(0.213626%,5.49783%,5.71145%,1)"/>
  <circle cx="5" cy="11" r="1" fill="srgba(1.37026%,35.6008%,36.9955%,1)"/>
  <circle cx="6" cy="11" r="1" fill="srgba(2.94499%,70.6416%,73.1868%,1)"/>
  <circle cx="7" cy="11" r="1" fill="srgba(4.84627%,81.9547%,83.5019%,1)"/>
  <circle cx="8" cy="11" r="1" fill="srgba(4.13672%,81.1673%,83.3509%,1)"/>
  <circle cx="9" cy="11" r="1" fill="srgba(3.79187%,80.8438%,83.3417%,1)"/>
  <circle cx="10" cy="11" r="1" fill="srgba(3.8056%,80.856%,83.3417%,1)"/>
  <circle cx="11" cy="11" r="1" fill="srgba(3.8056%,80.856%,83.3417%,1)"/>
  <circle cx="12" cy="11" r="1" fill="srgba(3.8056%,80.856%,83.3417%,1)"/>
  <circle cx="13" cy="11" r="1" fill="srgba(3.8056%,80.856%,83.3417%,1)"/>
  <circle cx="14" cy="11" r="1" fill="srgba(3.8056%,80.856%,83.3417%,1)"/>
  <circle cx="15" cy="11" r="1" fill="srgba(3.8056%,80.856%,83.3417%,1)"/>
  <circle cx="0" cy="12" r="1" fill="black"/>
  <circle cx="1" cy="12" r="1" fill="black"/>
  <circle cx="2" cy="12" r="1" fill="srgba(0.0488289%,1.2665%,1.31533%,1)"/>
  <circle cx="3" cy="12" r="1" fill="srgba(0.830091%,21.3748%,22.2065%,1)"/>
  <circle cx="4" cy="12" r="1" fill="srgba(2.30869%,59.4705%,61.7807%,1)"/>
  <circle cx="5" cy="12" r="1" fill="srgba(3.11437%,80.1755%,83.2883%,1)"/>
  <circle cx="6" cy="12" r="1" fill="srgba(3.15862%,81.4939%,84.6647%,1)"/>
  <circle cx="7" cy="12" r="1" fill="srgba(3.09148%,80.7797%,83.9612%,1)"/>
  <circle cx="8" cy="12" r="1" fill="srgba(3.08385%,80.7767%,83.9673%,1)"/>
  <circle cx="9" cy="12" r="1" fill="srgba(3.08385%,80.7782%,83.9673%,1)"/>
  <circle cx="10" cy="12" r="1" fill="srgba(3.08385%,80.7782%,83.9673%,1)"/>
  <circle cx="11" cy="12" r="1" fill="srgba(3.08385%,80.7782%,83.9673%,1)"/>
  <circle cx="12" cy="12" r="1" fill="srgba(3.08385%,80.7782%,83.9673%,1)"/>
  <circle cx="13" cy="12" r="1" fill="srgba(3.08385%,80.7782%,83.9673%,1)"/>
  <circle cx="14" cy="12" r="1" fill="srgba(3.08385%,80.7782%,83.9673%,1)"/>
  <circle cx="15" cy="12" r="1" fill="srgba(3.08385%,80.7782%,83.9673%,1)"/>
  <circle cx="0" cy="13" r="1" fill="black"/>
  <circle cx="1" cy="13" r="1" fill="srgba(0.39826%,10.2342%,10.6325%,1)"/>
  <circle cx="2" cy="13" r="1" fill="srgba(1.75784%,45.2552%,47.013%,1)"/>
  <circle cx="3" cy="13" r="1" fill="srgba(2.93584%,75.5917%,78.5275%,1)"/>
  <circle cx="4" cy="13" r="1" fill="srgba(3.17998%,81.8814%,85.0614%,1)"/>
  <circle cx="5" cy="13" r="1" fill="srgba(3.14183%,80.8927%,84.0345%,1)"/>
  <circle cx="6" cy="13" r="1" fill="srgba(3.13725%,80.7782%,83.9155%,1)"/>
  <circle cx="7" cy="13" r="1" fill="srgba(8,206,214,1)"/>
  <circle cx="8" cy="13" r="1" fill="srgba(8,206,214,1)"/>
  <circle cx="9" cy="13" r="1" fill="srgba(8,206,214,1)"/>
  <circle cx="10" cy="13" r="1" fill="srgba(8,206,214,1)"/>
  <circle cx="11" cy="13" r="1" fill="srgba(8,206,214,1)"/>
  <circle cx="12" cy="13" r="1" fill="srgba(8,206,214,1)"/>
  <circle cx="13" cy="13" r="1" fill="srgba(8,206,214,1)"/>
  <circle cx="14" cy="13" r="1" fill="srgba(8,206,214,1)"/>
  <circle cx="15" cy="13" r="1" fill="srgba(8,206,214,1)"/>
  <circle cx="0" cy="14" r="1" fill="srgba(1.30159%,33.611%,34.9172%,1)"/>
  <circle cx="1" cy="14" r="1" fill="srgba(2.58488%,66.6636%,69.2531%,1)"/>
  <circle cx="2" cy="14" r="1" fill="srgba(3.15862%,81.4435%,84.6067%,1)"/>
  <circle cx="3" cy="14" r="1" fill="srgba(3.14946%,81.1948%,84.3488%,1)"/>
  <circle cx="4" cy="14" r="1" fill="srgba(3.13268%,80.7706%,83.9094%,1)"/>
  <circle cx="5" cy="14" r="1" fill="srgba(3.13268%,80.7828%,83.9216%,1)"/>
  <circle cx="6" cy="14" r="1" fill="srgba(3.13268%,80.7828%,83.9216%,1)"/>
  <circle cx="7" cy="14" r="1" fill="srgba(3.13268%,80.7828%,83.9216%,1)"/>
  <circle cx="8" cy="14" r="1" fill="srgba(3.13268%,80.7828%,83.9216%,1)"/>
  <circle cx="9" cy="14" r="1" fill="srgba(3.13268%,80.7828%,83.9216%,1)"/>
  <circle cx="10" cy="14" r="1" fill="srgba(3.13268%,80.7828%,83.9216%,1)"/>
  <circle cx="11" cy="14" r="1" fill="srgba(3.13268%,80.7828%,83.9216%,1)"/>
  <circle cx="12" cy="14" r="1" fill="srgba(3.13268%,80.7828%,83.9216%,1)"/>
  <circle cx="13" cy="14" r="1" fill="srgba(3.13268%,80.7828%,83.9216%,1)"/>
  <circle cx="14" cy="14" r="1" fill="srgba(3.13268%,80.7828%,83.9216%,1)"/>
  <circle cx="15" cy="14" r="1" fill="srgba(3.13268%,80.7828%,83.9216%,1)"/>
  <circle cx="0" cy="15" r="1" fill="srgba(3.1693%,79.826%,82.9175%,1)"/>
  <circle cx="1" cy="15" r="1" fill="srgba(3.24102%,81.6876%,84.8508%,1)"/>
  <circle cx="2" cy="15" r="1" fill="srgba(3.20745%,80.8255%,83.9551%,1)"/>
  <circle cx="3" cy="15" r="1" fill="srgba(3.20592%,80.7965%,83.9261%,1)"/>
  <circle cx="4" cy="15" r="1" fill="srgba(3.20592%,80.7996%,83.9292%,1)"/>
  <circle cx="5" cy="15" r="1" fill="srgba(3.20592%,80.7996%,83.9292%,1)"/>
  <circle cx="6" cy="15" r="1" fill="srgba(3.20592%,80.7996%,83.9292%,1)"/>
  <circle cx="7" cy="15" r="1" fill="srgba(3.20592%,80.7996%,83.9292%,1)"/>
  <circle cx="8" cy="15" r="1" fill="srgba(3.20592%,80.7996%,83.9292%,1)"/>
  <circle cx="9" cy="15" r="1" fill="srgba(3.20592%,80.7996%,83.9292%,1)"/>
  <circle cx="10" cy="15" r="1" fill="srgba(3.20592%,80.7996%,83.9292%,1)"/>
  <circle cx="11" cy="15" r="1" fill="srgba(3.20592%,80.7996%,83.9292%,1)"/>
  <circle cx="12" cy="15" r="1" fill="srgba(3.20592%,80.7996%,83.9292%,1)"/>
  <circle cx="13" cy="15" r="1" fill="srgba(3.20592%,80.7996%,83.9292%,1)"/>
  <circle cx="14" cy="15" r="1" fill="srgba(3.20592%,80.7996%,83.9292%,1)"/>
  <circle cx="15" cy="15" r="1" fill="srgba(3.20592%,80.7996%,83.9292%,1)"/>
</svg>
