<?xml version="1.0" standalone="no"?>
<!DOCTYPE svg PUBLIC "-//W3C//DTD SVG 20010904//EN"
  "http://www.w3.org/TR/2001/REC-SVG-20010904/DTD/svg10.dtd">
<svg width="16" height="16">
  <circle cx="0" cy="0" r="1" fill="srgba(255,213,32,1)"/>
  <circle cx="1" cy="0" r="1" fill="srgba(255,213,32,1)"/>
  <circle cx="2" cy="0" r="1" fill="srgba(255,213,32,1)"/>
  <circle cx="3" cy="0" r="1" fill="srgba(255,213,32,1)"/>
  <circle cx="4" cy="0" r="1" fill="srgba(255,213,32,1)"/>
  <circle cx="5" cy="0" r="1" fill="srgba(255,213,32,1)"/>
  <circle cx="6" cy="0" r="1" fill="srgba(255,213,32,1)"/>
  <circle cx="7" cy="0" r="1" fill="srgba(255,213,32,1)"/>
  <circle cx="8" cy="0" r="1" fill="srgba(255,213,32,1)"/>
  <circle cx="9" cy="0" r="1" fill="srgba(255,213,32,1)"/>
  <circle cx="10" cy="0" r="1" fill="srgba(255,213,32,1)"/>
  <circle cx="11" cy="0" r="1" fill="srgba(255,213,32,1)"/>
  <circle cx="12" cy="0" r="1" fill="srgba(100%,83.5218%,12.5475%,1)"/>
  <circle cx="13" cy="0" r="1" fill="srgba(100%,83.8178%,12.5795%,1)"/>
  <circle cx="14" cy="0" r="1" fill="srgba(100%,81.7105%,12.3598%,1)"/>
  <circle cx="15" cy="0" r="1" fill="srgba(100%,57.055%,9.80392%,1)"/>
  <circle cx="0" cy="1" r="1" fill="srgba(255,213,32,1)"/>
  <circle cx="1" cy="1" r="1" fill="srgba(255,213,32,1)"/>
  <circle cx="2" cy="1" r="1" fill="srgba(255,213,32,1)"/>
  <circle cx="3" cy="1" r="1" fill="srgba(255,213,32,1)"/>
  <circle cx="4" cy="1" r="1" fill="srgba(255,213,32,1)"/>
  <circle cx="5" cy="1" r="1" fill="srgba(255,213,32,1)"/>
  <circle cx="6" cy="1" r="1" fill="srgba(255,213,32,1)"/>
  <circle cx="7" cy="1" r="1" fill="srgba(100%,83.5294%,12.5505%,1)"/>
  <circle cx="8" cy="1" r="1" fill="srgba(100%,83.534%,12.5383%,1)"/>
  <circle cx="9" cy="1" r="1" fill="srgba(100%,83.5554%,12.2591%,1)"/>
  <circle cx="10" cy="1" r="1" fill="srgba(100%,83.5111%,11.7327%,1)"/>
  <circle cx="11" cy="1" r="1" fill="srgba(100%,83.5172%,12.2957%,1)"/>
  <circle cx="12" cy="1" r="1" fill="srgba(100%,83.7766%,12.5689%,1)"/>
  <circle cx="13" cy="1" r="1" fill="srgba(100%,82.2782%,12.3659%,1)"/>
  <circle cx="14" cy="1" r="1" fill="srgba(99.9542%,56.8276%,9.49874%,1)"/>
  <circle cx="15" cy="1" r="1" fill="srgba(99.9802%,32.3613%,7.19158%,1)"/>
  <circle cx="0" cy="2" r="1" fill="srgba(255,213,32,1)"/>
  <circle cx="1" cy="2" r="1" fill="srgba(255,213,32,1)"/>
  <circle cx="2" cy="2" r="1" fill="srgba(255,213,32,1)"/>
  <circle cx="3" cy="2" r="1" fill="srgba(255,213,32,1)"/>
  <circle cx="4" cy="2" r="1" fill="srgba(255,213,32,1)"/>
  <circle cx="5" cy="2" r="1" fill="srgba(255,213,32,1)"/>
  <circle cx="6" cy="2" r="1" fill="srgba(255,213,32,1)"/>
  <circle cx="7" cy="2" r="1" fill="srgba(100%,83.534%,12.5383%,1)"/>
  <circle cx="8" cy="2" r="1" fill="srgba(99.9115%,83.476%,12.5811%,1)"/>
  <circle cx="9" cy="2" r="1" fill="srgba(98.2483%,82.9465%,16.9802%,1)"/>
  <circle cx="10" cy="2" r="1" fill="srgba(96.5499%,83.3738%,26.6163%,1)"/>
  <circle cx="11" cy="2" r="1" fill="srgba(99.0753%,83.7736%,16.7071%,1)"/>
  <circle cx="12" cy="2" r="1" fill="srgba(99.9985%,82.1942%,12.5689%,1)"/>
  <circle cx="13" cy="2" r="1" fill="srgba(99.8001%,57.6669%,10.6813%,1)"/>
  <circle cx="14" cy="2" r="1" fill="srgba(98.2879%,38.2849%,16.4477%,1)"/>
  <circle cx="15" cy="2" r="1" fill="srgba(99.5285%,31.6793%,9.0074%,1)"/>
  <circle cx="0" cy="3" r="1" fill="srgba(255,213,32,1)"/>
  <circle cx="1" cy="3" r="1" fill="srgba(255,213,32,1)"/>
  <circle cx="2" cy="3" r="1" fill="srgba(255,213,32,1)"/>
  <circle cx="3" cy="3" r="1" fill="srgba(255,213,32,1)"/>
  <circle cx="4" cy="3" r="1" fill="srgba(255,213,32,1)"/>
  <circle cx="5" cy="3" r="1" fill="srgba(255,213,32,1)"/>
  <circle cx="6" cy="3" r="1" fill="srgba(100%,83.5294%,12.5383%,1)"/>
  <circle cx="7" cy="3" r="1" fill="srgba(99.9817%,83.5203%,12.5795%,1)"/>
  <circle cx="8" cy="3" r="1" fill="srgba(99.1547%,83.5218%,16.1471%,1)"/>
  <circle cx="9" cy="3" r="1" fill="srgba(94.4411%,87.0069%,54.966%,1)"/>
  <circle cx="10" cy="3" r="1" fill="srgba(91.3802%,89.543%,81.21%,1)"/>
  <circle cx="11" cy="3" r="1" fill="srgba(91.9142%,85.1881%,61.7304%,1)"/>
  <circle cx="12" cy="3" r="1" fill="srgba(91.9463%,74.342%,46.3844%,1)"/>
  <circle cx="13" cy="3" r="1" fill="srgba(92.6314%,52.4956%,37.0123%,1)"/>
  <circle cx="14" cy="3" r="1" fill="srgba(92.1828%,65.4841%,56.7437%,1)"/>
  <circle cx="15" cy="3" r="1" fill="srgba(95.9136%,40.0076%,21.0468%,1)"/>
  <circle cx="0" cy="4" r="1" fill="srgba(255,213,32,1)"/>
  <circle cx="1" cy="4" r="1" fill="srgba(255,213,32,1)"/>
  <circle cx="2" cy="4" r="1" fill="srgba(255,213,32,1)"/>
  <circle cx="3" cy="4" r="1" fill="srgba(255,213,32,1)"/>
  <circle cx="4" cy="4" r="1" fill="srgba(255,213,32,1)"/>
  <circle cx="5" cy="4" r="1" fill="srgba(255,213,32,1)"/>
  <circle cx="6" cy="4" r="1" fill="srgba(100%,83.5355%,12.4132%,1)"/>
  <circle cx="7" cy="4" r="1" fill="srgba(99.1165%,83.2136%,14.6761%,1)"/>
  <circle cx="8" cy="4" r="1" fill="srgba(95.0378%,83.508%,33.8231%,1)"/>
  <circle cx="9" cy="4" r="1" fill="srgba(91.2886%,87.1107%,69.0944%,1)"/>
  <circle cx="10" cy="4" r="1" fill="srgba(92.4804%,93.1319%,93.7163%,1)"/>
  <circle cx="11" cy="4" r="1" fill="srgba(88.6656%,78.3658%,72.9381%,1)"/>
  <circle cx="12" cy="4" r="1" fill="srgba(88.6427%,69.9535%,63.3753%,1)"/>
  <circle cx="13" cy="4" r="1" fill="srgba(88.9387%,65.0034%,57.1099%,1)"/>
  <circle cx="14" cy="4" r="1" fill="srgba(93.2235%,67.8035%,59.1684%,1)"/>
  <circle cx="15" cy="4" r="1" fill="srgba(96.3882%,44.7318%,27.2099%,1)"/>
  <circle cx="0" cy="5" r="1" fill="srgba(255,213,32,1)"/>
  <circle cx="1" cy="5" r="1" fill="srgba(255,213,32,1)"/>
  <circle cx="2" cy="5" r="1" fill="srgba(255,213,32,1)"/>
  <circle cx="3" cy="5" r="1" fill="srgba(255,213,32,1)"/>
  <circle cx="4" cy="5" r="1" fill="srgba(100%,83.5294%,12.5551%,1)"/>
  <circle cx="5" cy="5" r="1" fill="srgba(99.9985%,83.5279%,12.4239%,1)"/>
  <circle cx="6" cy="5" r="1" fill="srgba(100%,83.5203%,11.8669%,1)"/>
  <circle cx="7" cy="5" r="1" fill="srgba(100%,83.5554%,11.7494%,1)"/>
  <circle cx="8" cy="5" r="1" fill="srgba(94.3969%,82.7329%,32.1736%,1)"/>
  <circle cx="9" cy="5" r="1" fill="srgba(90.3044%,82.7634%,50.6798%,1)"/>
  <circle cx="10" cy="5" r="1" fill="srgba(96.0754%,96.1013%,94.7631%,1)"/>
  <circle cx="11" cy="5" r="1" fill="srgba(91.8868%,83.827%,81.323%,1)"/>
  <circle cx="12" cy="5" r="1" fill="srgba(90.8324%,80.3616%,76.8841%,1)"/>
  <circle cx="13" cy="5" r="1" fill="srgba(83.9246%,72.6864%,68.8716%,1)"/>
  <circle cx="14" cy="5" r="1" fill="srgba(90.454%,73.3562%,67.5593%,1)"/>
  <circle cx="15" cy="5" r="1" fill="srgba(91.9371%,55.1598%,42.6917%,1)"/>
  <circle cx="0" cy="6" r="1" fill="srgba(255,213,32,1)"/>
  <circle cx="1" cy="6" r="1" fill="srgba(255,213,32,1)"/>
  <circle cx="2" cy="6" r="1" fill="srgba(255,213,32,1)"/>
  <circle cx="3" cy="6" r="1" fill="srgba(100%,83.5309%,12.5628%,1)"/>
  <circle cx="4" cy="6" r="1" fill="srgba(100%,83.505%,12.1981%,1)"/>
  <circle cx="5" cy="6" r="1" fill="srgba(99.3576%,83.476%,14.8928%,1)"/>
  <circle cx="6" cy="6" r="1" fill="srgba(96.7819%,83.473%,26.1524%,1)"/>
  <circle cx="7" cy="6" r="1" fill="srgba(96.6918%,83.0701%,23.679%,1)"/>
  <circle cx="8" cy="6" r="1" fill="srgba(94.1299%,82.7161%,35.7275%,1)"/>
  <circle cx="9" cy="6" r="1" fill="srgba(90.0511%,78.88%,56.2753%,1)"/>
  <circle cx="10" cy="6" r="1" fill="srgba(96.2707%,95.227%,94.4152%,1)"/>
  <circle cx="11" cy="6" r="1" fill="srgba(93.7438%,91.5648%,90.8583%,1)"/>
  <circle cx="12" cy="6" r="1" fill="srgba(90.0114%,87.6036%,86.7872%,1)"/>
  <circle cx="13" cy="6" r="1" fill="srgba(80.4837%,76.8719%,75.6451%,1)"/>
  <circle cx="14" cy="6" r="1" fill="srgba(84.3153%,72.3705%,68.3238%,1)"/>
  <circle cx="15" cy="6" r="1" fill="srgba(89.2164%,45.5451%,30.7408%,1)"/>
  <circle cx="0" cy="7" r="1" fill="srgba(255,213,32,1)"/>
  <circle cx="1" cy="7" r="1" fill="srgba(255,213,32,1)"/>
  <circle cx="2" cy="7" r="1" fill="srgba(100%,83.5294%,12.5505%,1)"/>
  <circle cx="3" cy="7" r="1" fill="srgba(100%,83.4714%,11.9265%,1)"/>
  <circle cx="4" cy="7" r="1" fill="srgba(98.8556%,84.4404%,22.1775%,1)"/>
  <circle cx="5" cy="7" r="1" fill="srgba(93.9086%,83.0472%,36.2509%,1)"/>
  <circle cx="6" cy="7" r="1" fill="srgba(87.6387%,77.0001%,30.6142%,1)"/>
  <circle cx="7" cy="7" r="1" fill="srgba(83.7629%,74.0963%,38.3078%,1)"/>
  <circle cx="8" cy="7" r="1" fill="srgba(81.3062%,60.0229%,34.7616%,1)"/>
  <circle cx="9" cy="7" r="1" fill="srgba(78.2437%,67.0314%,62.3209%,1)"/>
  <circle cx="10" cy="7" r="1" fill="srgba(95.2117%,94.9981%,95.0698%,1)"/>
  <circle cx="11" cy="7" r="1" fill="srgba(93.7545%,93.9651%,94.0352%,1)"/>
  <circle cx="12" cy="7" r="1" fill="srgba(87.1489%,85.3696%,84.7684%,1)"/>
  <circle cx="13" cy="7" r="1" fill="srgba(77.7615%,60.6439%,54.8486%,1)"/>
  <circle cx="14" cy="7" r="1" fill="srgba(82.0493%,57.0825%,48.6244%,1)"/>
  <circle cx="15" cy="7" r="1" fill="srgba(88.2536%,35.0774%,17.0565%,1)"/>
  <circle cx="0" cy="8" r="1" fill="srgba(255,213,32,1)"/>
  <circle cx="1" cy="8" r="1" fill="srgba(255,213,32,1)"/>
  <circle cx="2" cy="8" r="1" fill="srgba(100%,83.5294%,12.5216%,1)"/>
  <circle cx="3" cy="8" r="1" fill="srgba(100%,83.4867%,12.2271%,1)"/>
  <circle cx="4" cy="8" r="1" fill="srgba(96.8612%,85.9754%,39.0295%,1)"/>
  <circle cx="5" cy="8" r="1" fill="srgba(89.9825%,79.8688%,36.0678%,1)"/>
  <circle cx="6" cy="8" r="1" fill="srgba(86.8223%,77.9873%,40.8865%,1)"/>
  <circle cx="7" cy="8" r="1" fill="srgba(85.3696%,66.4683%,44.8753%,1)"/>
  <circle cx="8" cy="8" r="1" fill="srgba(85.3483%,63.8315%,55.1247%,1)"/>
  <circle cx="9" cy="8" r="1" fill="srgba(83.1724%,77.1893%,75.3902%,1)"/>
  <circle cx="10" cy="8" r="1" fill="srgba(95.082%,95.0072%,94.9767%,1)"/>
  <circle cx="11" cy="8" r="1" fill="srgba(95.1415%,95.2438%,95.2789%,1)"/>
  <circle cx="12" cy="8" r="1" fill="srgba(87.6738%,86.2654%,85.7877%,1)"/>
  <circle cx="13" cy="8" r="1" fill="srgba(80.7141%,59.8047%,52.7184%,1)"/>
  <circle cx="14" cy="8" r="1" fill="srgba(86.4912%,53.4554%,42.266%,1)"/>
  <circle cx="15" cy="8" r="1" fill="srgba(91.9539%,49.0593%,34.5174%,1)"/>
  <circle cx="0" cy="9" r="1" fill="srgba(100%,83.5294%,12.5521%,1)"/>
  <circle cx="1" cy="9" r="1" fill="srgba(100%,83.5431%,12.4971%,1)"/>
  <circle cx="2" cy="9" r="1" fill="srgba(100%,83.5172%,11.8791%,1)"/>
  <circle cx="3" cy="9" r="1" fill="srgba(99.733%,83.769%,14.1222%,1)"/>
  <circle cx="4" cy="9" r="1" fill="srgba(93.1044%,87.3045%,61.8692%,1)"/>
  <circle cx="5" cy="9" r="1" fill="srgba(87.0314%,78.3078%,41.0269%,1)"/>
  <circle cx="6" cy="9" r="1" fill="srgba(84.0604%,75.0011%,63.0152%,1)"/>
  <circle cx="7" cy="9" r="1" fill="srgba(84.4709%,70.161%,65.0523%,1)"/>
  <circle cx="8" cy="9" r="1" fill="srgba(86.7842%,72.4392%,67.7485%,1)"/>
  <circle cx="9" cy="9" r="1" fill="srgba(84.7517%,80.8896%,79.5758%,1)"/>
  <circle cx="10" cy="9" r="1" fill="srgba(94.9203%,94.4579%,94.3023%,1)"/>
  <circle cx="11" cy="9" r="1" fill="srgba(95.6527%,95.6924%,95.7061%,1)"/>
  <circle cx="12" cy="9" r="1" fill="srgba(87.0192%,87.306%,87.4037%,1)"/>
  <circle cx="13" cy="9" r="1" fill="srgba(78.7823%,67.8813%,64.1855%,1)"/>
  <circle cx="14" cy="9" r="1" fill="srgba(83.4485%,40.9674%,26.5705%,1)"/>
  <circle cx="15" cy="9" r="1" fill="srgba(87.6722%,34.3221%,16.2402%,1)"/>
  <circle cx="0" cy="10" r="1" fill="srgba(100%,83.5584%,12.2606%,1)"/>
  <circle cx="1" cy="10" r="1" fill="srgba(98.529%,82.6307%,13.9162%,1)"/>
  <circle cx="2" cy="10" r="1" fill="srgba(95.2941%,82.7787%,28.8838%,1)"/>
  <circle cx="3" cy="10" r="1" fill="srgba(92.2515%,80.4303%,28.8716%,1)"/>
  <circle cx="4" cy="10" r="1" fill="srgba(81.4466%,77.3693%,60.3799%,1)"/>
  <circle cx="5" cy="10" r="1" fill="srgba(74.493%,60.9155%,46.9429%,1)"/>
  <circle cx="6" cy="10" r="1" fill="srgba(73.0663%,58.143%,51.7021%,1)"/>
  <circle cx="7" cy="10" r="1" fill="srgba(76.9085%,61.3901%,56.2539%,1)"/>
  <circle cx="8" cy="10" r="1" fill="srgba(78.8861%,48.5176%,38.2223%,1)"/>
  <circle cx="9" cy="10" r="1" fill="srgba(78.0591%,69.8604%,67.0832%,1)"/>
  <circle cx="10" cy="10" r="1" fill="srgba(94.4976%,94.0948%,93.9178%,1)"/>
  <circle cx="11" cy="10" r="1" fill="srgba(97.29%,97.3953%,97.4228%,1)"/>
  <circle cx="12" cy="10" r="1" fill="srgba(92.9015%,92.9747%,92.9992%,1)"/>
  <circle cx="13" cy="10" r="1" fill="srgba(84.181%,83.7964%,83.6667%,1)"/>
  <circle cx="14" cy="10" r="1" fill="srgba(87.8935%,56.4019%,45.7328%,1)"/>
  <circle cx="15" cy="10" r="1" fill="srgba(91.5541%,34.4594%,15.1095%,1)"/>
  <circle cx="0" cy="11" r="1" fill="srgba(99.4476%,83.3249%,13.7194%,1)"/>
  <circle cx="1" cy="11" r="1" fill="srgba(96.4233%,84.6799%,34.081%,1)"/>
  <circle cx="2" cy="11" r="1" fill="srgba(88.5847%,83.2181%,59.5636%,1)"/>
  <circle cx="3" cy="11" r="1" fill="srgba(83.7766%,77.7783%,59.4934%,1)"/>
  <circle cx="4" cy="11" r="1" fill="srgba(86.659%,76.611%,66.8025%,1)"/>
  <circle cx="5" cy="11" r="1" fill="srgba(80.174%,53.6263%,45.3696%,1)"/>
  <circle cx="6" cy="11" r="1" fill="srgba(77.8454%,54.6746%,46.9169%,1)"/>
  <circle cx="7" cy="11" r="1" fill="srgba(83.4073%,50.312%,39.0951%,1)"/>
  <circle cx="8" cy="11" r="1" fill="srgba(84.4236%,52.7245%,41.9806%,1)"/>
  <circle cx="9" cy="11" r="1" fill="srgba(85.2476%,76.1532%,73.0724%,1)"/>
  <circle cx="10" cy="11" r="1" fill="srgba(90.7347%,81.7014%,78.6404%,1)"/>
  <circle cx="11" cy="11" r="1" fill="srgba(95.7183%,94.7417%,94.4121%,1)"/>
  <circle cx="12" cy="11" r="1" fill="srgba(91.7525%,91.7983%,91.8151%,1)"/>
  <circle cx="13" cy="11" r="1" fill="srgba(86.8238%,87.2068%,87.3381%,1)"/>
  <circle cx="14" cy="11" r="1" fill="srgba(91.0857%,84.7837%,82.6459%,1)"/>
  <circle cx="15" cy="11" r="1" fill="srgba(93.1426%,50.9071%,36.585%,1)"/>
  <circle cx="0" cy="12" r="1" fill="srgba(97.5937%,87.0817%,41.8219%,1)"/>
  <circle cx="1" cy="12" r="1" fill="srgba(96.939%,88.5985%,51.957%,1)"/>
  <circle cx="2" cy="12" r="1" fill="srgba(93.1731%,85.7008%,50.0328%,1)"/>
  <circle cx="3" cy="12" r="1" fill="srgba(89.1264%,77.5555%,71.96%,1)"/>
  <circle cx="4" cy="12" r="1" fill="srgba(94.287%,66.8757%,56.5164%,1)"/>
  <circle cx="5" cy="12" r="1" fill="srgba(86.7994%,54.3801%,43.4577%,1)"/>
  <circle cx="6" cy="12" r="1" fill="srgba(83.6728%,56.997%,47.9652%,1)"/>
  <circle cx="7" cy="12" r="1" fill="srgba(91.1254%,35.7076%,16.9299%,1)"/>
  <circle cx="8" cy="12" r="1" fill="srgba(91.4885%,40.6683%,23.444%,1)"/>
  <circle cx="9" cy="12" r="1" fill="srgba(88.0903%,64.6891%,56.7575%,1)"/>
  <circle cx="10" cy="12" r="1" fill="srgba(91.1467%,72.6925%,66.4408%,1)"/>
  <circle cx="11" cy="12" r="1" fill="srgba(93.8888%,93.109%,92.8435%,1)"/>
  <circle cx="12" cy="12" r="1" fill="srgba(91.9265%,91.9768%,91.9936%,1)"/>
  <circle cx="13" cy="12" r="1" fill="srgba(87.9011%,87.9072%,87.9103%,1)"/>
  <circle cx="14" cy="12" r="1" fill="srgba(95.4833%,95.7076%,95.7671%,1)"/>
  <circle cx="15" cy="12" r="1" fill="srgba(98.1964%,80.9796%,75.1278%,1)"/>
  <circle cx="0" cy="13" r="1" fill="srgba(98.0102%,91.7174%,63.1083%,1)"/>
  <circle cx="1" cy="13" r="1" fill="srgba(99.1592%,84.2481%,30.0038%,1)"/>
  <circle cx="2" cy="13" r="1" fill="srgba(95.0942%,71.4229%,33.4874%,1)"/>
  <circle cx="3" cy="13" r="1" fill="srgba(90.3883%,72.0211%,66.1219%,1)"/>
  <circle cx="4" cy="13" r="1" fill="srgba(94.5342%,64.0192%,53.7499%,1)"/>
  <circle cx="5" cy="13" r="1" fill="srgba(88.8533%,57.6272%,47.042%,1)"/>
  <circle cx="6" cy="13" r="1" fill="srgba(85.1881%,55.9716%,46.07%,1)"/>
  <circle cx="7" cy="13" r="1" fill="srgba(94.7219%,34.9157%,14.6395%,1)"/>
  <circle cx="8" cy="13" r="1" fill="srgba(94.5251%,31.6976%,10.3838%,1)"/>
  <circle cx="9" cy="13" r="1" fill="srgba(87.779%,55.8663%,45.0492%,1)"/>
  <circle cx="10" cy="13" r="1" fill="srgba(92.0821%,72.4056%,65.7389%,1)"/>
  <circle cx="11" cy="13" r="1" fill="srgba(93.37%,92.871%,92.7016%,1)"/>
  <circle cx="12" cy="13" r="1" fill="srgba(93.6599%,93.7148%,93.7331%,1)"/>
  <circle cx="13" cy="13" r="1" fill="srgba(89.1341%,89.1341%,89.1341%,1)"/>
  <circle cx="14" cy="13" r="1" fill="srgba(96.3714%,96.3851%,96.3897%,1)"/>
  <circle cx="15" cy="13" r="1" fill="srgba(99.4553%,99.2065%,99.115%,1)"/>
  <circle cx="0" cy="14" r="1" fill="srgba(98.8663%,83.2227%,25.1667%,1)"/>
  <circle cx="1" cy="14" r="1" fill="srgba(99.6323%,56.6827%,13.4493%,1)"/>
  <circle cx="2" cy="14" r="1" fill="srgba(95.1949%,47.1855%,28.9387%,1)"/>
  <circle cx="3" cy="14" r="1" fill="srgba(90.8675%,67.4388%,59.6612%,1)"/>
  <circle cx="4" cy="14" r="1" fill="srgba(95.2956%,63.1708%,52.282%,1)"/>
  <circle cx="5" cy="14" r="1" fill="srgba(91.2108%,45.8488%,30.4555%,1)"/>
  <circle cx="6" cy="14" r="1" fill="srgba(86.6453%,33.9925%,16.1532%,1)"/>
  <circle cx="7" cy="14" r="1" fill="srgba(96.0372%,33.3806%,12.1218%,1)"/>
  <circle cx="8" cy="14" r="1" fill="srgba(97.1054%,31.7754%,9.61471%,1)"/>
  <circle cx="9" cy="14" r="1" fill="srgba(87.7882%,49.7581%,36.8643%,1)"/>
  <circle cx="10" cy="14" r="1" fill="srgba(90.808%,63.6881%,54.4854%,1)"/>
  <circle cx="11" cy="14" r="1" fill="srgba(93.7041%,91.6243%,90.9178%,1)"/>
  <circle cx="12" cy="14" r="1" fill="srgba(94.2199%,94.3877%,94.4442%,1)"/>
  <circle cx="13" cy="14" r="1" fill="srgba(89.4682%,89.4682%,89.4682%,1)"/>
  <circle cx="14" cy="14" r="1" fill="srgba(97.8805%,97.8805%,97.8805%,1)"/>
  <circle cx="15" cy="14" r="1" fill="white"/>
  <circle cx="0" cy="15" r="1" fill="srgba(99.9893%,56.9497%,9.12337%,1)"/>
  <circle cx="1" cy="15" r="1" fill="srgba(100%,31.5251%,5.81674%,1)"/>
  <circle cx="2" cy="15" r="1" fill="srgba(95.1507%,43.5874%,26.4729%,1)"/>
  <circle cx="3" cy="15" r="1" fill="srgba(90.9712%,64.239%,55.1522%,1)"/>
  <circle cx="4" cy="15" r="1" fill="srgba(95.4376%,61.6892%,50.2556%,1)"/>
  <circle cx="5" cy="15" r="1" fill="srgba(91.7571%,45.9983%,30.4936%,1)"/>
  <circle cx="6" cy="15" r="1" fill="srgba(86.9947%,32.7016%,14.3038%,1)"/>
  <circle cx="7" cy="15" r="1" fill="srgba(96.1776%,31.8975%,10.0999%,1)"/>
  <circle cx="8" cy="15" r="1" fill="srgba(97.1527%,31.7876%,9.62692%,1)"/>
  <circle cx="9" cy="15" r="1" fill="srgba(88.5481%,43.5355%,28.2811%,1)"/>
  <circle cx="10" cy="15" r="1" fill="srgba(90.9453%,54.7967%,42.5391%,1)"/>
  <circle cx="11" cy="15" r="1" fill="srgba(93.2952%,90.0343%,88.9235%,1)"/>
  <circle cx="12" cy="15" r="1" fill="srgba(95.5001%,95.758%,95.8465%,1)"/>
  <circle cx="13" cy="15" r="1" fill="srgba(92.4193%,92.4193%,92.4193%,1)"/>
  <circle cx="14" cy="15" r="1" fill="srgba(98.146%,98.146%,98.146%,1)"/>
  <circle cx="15" cy="15" r="1" fill="white"/>
</svg>
