<?xml version="1.0" standalone="no"?>
<!DOCTYPE svg PUBLIC "-//W3C//DTD SVG 20010904//EN"
  "http://www.w3.org/TR/2001/REC-SVG-20010904/DTD/svg10.dtd">
<svg width="16" height="16">
  <circle cx="0" cy="0" r="1" fill="srgba(215,40,40,1)"/>
  <circle cx="1" cy="0" r="1" fill="srgba(215,40,40,1)"/>
  <circle cx="2" cy="0" r="1" fill="srgba(84.152%,14.8135%,14.8135%,1)"/>
  <circle cx="3" cy="0" r="1" fill="srgba(88.0049%,30.2007%,29.7704%,1)"/>
  <circle cx="4" cy="0" r="1" fill="srgba(80.3769%,78.5153%,85.3208%,1)"/>
  <circle cx="5" cy="0" r="1" fill="srgba(6.07156%,27.0954%,62.118%,1)"/>
  <circle cx="6" cy="0" r="1" fill="srgba(17.2%,36.4584%,67.3915%,1)"/>
  <circle cx="7" cy="0" r="1" fill="srgba(88.3787%,72.6757%,75.5261%,1)"/>
  <circle cx="8" cy="0" r="1" fill="srgba(85.3468%,18.9975%,18.8159%,1)"/>
  <circle cx="9" cy="0" r="1" fill="srgba(84.2802%,15.5077%,15.5077%,1)"/>
  <circle cx="10" cy="0" r="1" fill="srgba(215,40,40,1)"/>
  <circle cx="11" cy="0" r="1" fill="srgba(215,40,40,1)"/>
  <circle cx="12" cy="0" r="1" fill="srgba(215,40,40,1)"/>
  <circle cx="13" cy="0" r="1" fill="srgba(215,40,40,1)"/>
  <circle cx="14" cy="0" r="1" fill="srgba(215,40,40,1)"/>
  <circle cx="15" cy="0" r="1" fill="srgba(215,40,40,1)"/>
  <circle cx="0" cy="1" r="1" fill="srgba(215,40,40,1)"/>
  <circle cx="1" cy="1" r="1" fill="srgba(215,40,40,1)"/>
  <circle cx="2" cy="1" r="1" fill="srgba(84.152%,14.8135%,14.8135%,1)"/>
  <circle cx="3" cy="1" r="1" fill="srgba(88.0049%,30.2007%,29.7704%,1)"/>
  <circle cx="4" cy="1" r="1" fill="srgba(80.3769%,78.5153%,85.3208%,1)"/>
  <circle cx="5" cy="1" r="1" fill="srgba(6.07156%,27.0954%,62.118%,1)"/>
  <circle cx="6" cy="1" r="1" fill="srgba(17.2%,36.4584%,67.3915%,1)"/>
  <circle cx="7" cy="1" r="1" fill="srgba(88.3787%,72.6757%,75.5261%,1)"/>
  <circle cx="8" cy="1" r="1" fill="srgba(85.3468%,18.9975%,18.8159%,1)"/>
  <circle cx="9" cy="1" r="1" fill="srgba(84.2802%,15.5077%,15.5077%,1)"/>
  <circle cx="10" cy="1" r="1" fill="srgba(215,40,40,1)"/>
  <circle cx="11" cy="1" r="1" fill="srgba(215,40,40,1)"/>
  <circle cx="12" cy="1" r="1" fill="srgba(215,40,40,1)"/>
  <circle cx="13" cy="1" r="1" fill="srgba(215,40,40,1)"/>
  <circle cx="14" cy="1" r="1" fill="srgba(215,40,40,1)"/>
  <circle cx="15" cy="1" r="1" fill="srgba(215,40,40,1)"/>
  <circle cx="0" cy="2" r="1" fill="srgba(215,40,40,1)"/>
  <circle cx="1" cy="2" r="1" fill="srgba(215,40,40,1)"/>
  <circle cx="2" cy="2" r="1" fill="srgba(84.152%,14.8135%,14.8135%,1)"/>
  <circle cx="3" cy="2" r="1" fill="srgba(88.0049%,30.2007%,29.7704%,1)"/>
  <circle cx="4" cy="2" r="1" fill="srgba(80.3769%,78.5153%,85.3208%,1)"/>
  <circle cx="5" cy="2" r="1" fill="srgba(6.07156%,27.0954%,62.118%,1)"/>
  <circle cx="6" cy="2" r="1" fill="srgba(17.2%,36.4584%,67.3915%,1)"/>
  <circle cx="7" cy="2" r="1" fill="srgba(88.3787%,72.6757%,75.5261%,1)"/>
  <circle cx="8" cy="2" r="1" fill="srgba(85.3468%,18.9975%,18.8159%,1)"/>
  <circle cx="9" cy="2" r="1" fill="srgba(84.2802%,15.5077%,15.5077%,1)"/>
  <circle cx="10" cy="2" r="1" fill="srgba(215,40,40,1)"/>
  <circle cx="11" cy="2" r="1" fill="srgba(215,40,40,1)"/>
  <circle cx="12" cy="2" r="1" fill="srgba(215,40,40,1)"/>
  <circle cx="13" cy="2" r="1" fill="srgba(215,40,40,1)"/>
  <circle cx="14" cy="2" r="1" fill="srgba(215,40,40,1)"/>
  <circle cx="15" cy="2" r="1" fill="srgba(215,40,40,1)"/>
  <circle cx="0" cy="3" r="1" fill="srgba(215,40,40,1)"/>
  <circle cx="1" cy="3" r="1" fill="srgba(215,40,40,1)"/>
  <circle cx="2" cy="3" r="1" fill="srgba(84.152%,14.8135%,14.8135%,1)"/>
  <circle cx="3" cy="3" r="1" fill="srgba(88.0049%,30.2007%,29.7704%,1)"/>
  <circle cx="4" cy="3" r="1" fill="srgba(80.3769%,78.5153%,85.3208%,1)"/>
  <circle cx="5" cy="3" r="1" fill="srgba(6.07156%,27.0954%,62.118%,1)"/>
  <circle cx="6" cy="3" r="1" fill="srgba(17.2%,36.4584%,67.3915%,1)"/>
  <circle cx="7" cy="3" r="1" fill="srgba(88.3787%,72.6757%,75.5261%,1)"/>
  <circle cx="8" cy="3" r="1" fill="srgba(85.3468%,18.9975%,18.8159%,1)"/>
  <circle cx="9" cy="3" r="1" fill="srgba(84.2802%,15.5077%,15.5077%,1)"/>
  <circle cx="10" cy="3" r="1" fill="srgba(215,40,40,1)"/>
  <circle cx="11" cy="3" r="1" fill="srgba(215,40,40,1)"/>
  <circle cx="12" cy="3" r="1" fill="srgba(215,40,40,1)"/>
  <circle cx="13" cy="3" r="1" fill="srgba(215,40,40,1)"/>
  <circle cx="14" cy="3" r="1" fill="srgba(215,40,40,1)"/>
  <circle cx="15" cy="3" r="1" fill="srgba(215,40,40,1)"/>
  <circle cx="0" cy="4" r="1" fill="srgba(84.2786%,15.5001%,15.5001%,1)"/>
  <circle cx="1" cy="4" r="1" fill="srgba(84.2786%,15.5001%,15.5001%,1)"/>
  <circle cx="2" cy="4" r="1" fill="srgba(84.1154%,14.6258%,14.6258%,1)"/>
  <circle cx="3" cy="4" r="1" fill="srgba(87.9759%,30.045%,29.6132%,1)"/>
  <circle cx="4" cy="4" r="1" fill="srgba(80.3738%,78.4985%,85.3056%,1)"/>
  <circle cx="5" cy="4" r="1" fill="srgba(6.07156%,27.097%,62.1195%,1)"/>
  <circle cx="6" cy="4" r="1" fill="srgba(17.2015%,36.4614%,67.3945%,1)"/>
  <circle cx="7" cy="4" r="1" fill="srgba(88.3696%,72.6284%,75.4788%,1)"/>
  <circle cx="8" cy="4" r="1" fill="srgba(85.3132%,18.8174%,18.6358%,1)"/>
  <circle cx="9" cy="4" r="1" fill="srgba(84.2451%,15.3216%,15.3216%,1)"/>
  <circle cx="10" cy="4" r="1" fill="srgba(84.2786%,15.5001%,15.5001%,1)"/>
  <circle cx="11" cy="4" r="1" fill="srgba(84.2786%,15.5001%,15.5001%,1)"/>
  <circle cx="12" cy="4" r="1" fill="srgba(84.2786%,15.5001%,15.5001%,1)"/>
  <circle cx="13" cy="4" r="1" fill="srgba(84.2786%,15.5001%,15.5001%,1)"/>
  <circle cx="14" cy="4" r="1" fill="srgba(84.2786%,15.5001%,15.5001%,1)"/>
  <circle cx="15" cy="4" r="1" fill="srgba(84.2786%,15.5001%,15.5001%,1)"/>
  <circle cx="0" cy="5" r="1" fill="srgba(85.5741%,19.2844%,19.0265%,1)"/>
  <circle cx="1" cy="5" r="1" fill="srgba(85.5741%,19.2844%,19.0265%,1)"/>
  <circle cx="2" cy="5" r="1" fill="srgba(85.4246%,18.4497%,18.1888%,1)"/>
  <circle cx="3" cy="5" r="1" fill="srgba(89.0654%,33.2204%,32.5719%,1)"/>
  <circle cx="4" cy="5" r="1" fill="srgba(80.4974%,78.8327%,85.6123%,1)"/>
  <circle cx="5" cy="5" r="1" fill="srgba(6.07004%,27.0802%,62.1012%,1)"/>
  <circle cx="6" cy="5" r="1" fill="srgba(17.1939%,36.4141%,67.3472%,1)"/>
  <circle cx="7" cy="5" r="1" fill="srgba(88.7129%,73.5973%,76.376%,1)"/>
  <circle cx="8" cy="5" r="1" fill="srgba(86.566%,22.4643%,22.0356%,1)"/>
  <circle cx="9" cy="5" r="1" fill="srgba(85.5436%,19.1058%,18.8495%,1)"/>
  <circle cx="10" cy="5" r="1" fill="srgba(85.5741%,19.2767%,19.0204%,1)"/>
  <circle cx="11" cy="5" r="1" fill="srgba(85.5741%,19.2767%,19.0204%,1)"/>
  <circle cx="12" cy="5" r="1" fill="srgba(85.5741%,19.2767%,19.0204%,1)"/>
  <circle cx="13" cy="5" r="1" fill="srgba(85.5741%,19.2767%,19.0204%,1)"/>
  <circle cx="14" cy="5" r="1" fill="srgba(85.5741%,19.2767%,19.0204%,1)"/>
  <circle cx="15" cy="5" r="1" fill="srgba(85.5741%,19.2767%,19.0204%,1)"/>
  <circle cx="0" cy="6" r="1" fill="srgba(85.3788%,70.6035%,74.5892%,1)"/>
  <circle cx="1" cy="6" r="1" fill="srgba(85.3788%,70.6035%,74.5892%,1)"/>
  <circle cx="2" cy="6" r="1" fill="srgba(85.3376%,70.3853%,74.3709%,1)"/>
  <circle cx="3" cy="6" r="1" fill="srgba(87.0451%,74.8074%,78.4085%,1)"/>
  <circle cx="4" cy="6" r="1" fill="srgba(72.636%,77.1069%,87.1717%,1)"/>
  <circle cx="5" cy="6" r="1" fill="srgba(5.3666%,26.2486%,61.5091%,1)"/>
  <circle cx="6" cy="6" r="1" fill="srgba(15.2087%,34.0963%,65.7069%,1)"/>
  <circle cx="7" cy="6" r="1" fill="srgba(81.471%,80.9796%,87.512%,1)"/>
  <circle cx="8" cy="6" r="1" fill="srgba(85.9495%,71.6564%,75.4803%,1)"/>
  <circle cx="9" cy="6" r="1" fill="srgba(85.3712%,70.5409%,74.5266%,1)"/>
  <circle cx="10" cy="6" r="1" fill="srgba(85.3788%,70.5852%,74.5708%,1)"/>
  <circle cx="11" cy="6" r="1" fill="srgba(85.3788%,70.5852%,74.5708%,1)"/>
  <circle cx="12" cy="6" r="1" fill="srgba(85.3788%,70.5852%,74.5708%,1)"/>
  <circle cx="13" cy="6" r="1" fill="srgba(85.3788%,70.5852%,74.5708%,1)"/>
  <circle cx="14" cy="6" r="1" fill="srgba(85.3788%,70.5852%,74.5708%,1)"/>
  <circle cx="15" cy="6" r="1" fill="srgba(85.3788%,70.5852%,74.5708%,1)"/>
  <circle cx="0" cy="7" r="1" fill="srgba(12.9915%,33.164%,65.6641%,1)"/>
  <circle cx="1" cy="7" r="1" fill="srgba(12.9915%,33.164%,65.6641%,1)"/>
  <circle cx="2" cy="7" r="1" fill="srgba(12.9946%,33.1762%,65.6764%,1)"/>
  <circle cx="3" cy="7" r="1" fill="srgba(13.1014%,33.0785%,65.5238%,1)"/>
  <circle cx="4" cy="7" r="1" fill="srgba(10.4463%,30.2037%,63.5737%,1)"/>
  <circle cx="5" cy="7" r="1" fill="srgba(0.762951%,22.5498%,59.5193%,1)"/>
  <circle cx="6" cy="7" r="1" fill="srgba(2.16068%,23.6316%,60.0793%,1)"/>
  <circle cx="7" cy="7" r="1" fill="srgba(11.8425%,31.4717%,64.3351%,1)"/>
  <circle cx="8" cy="7" r="1" fill="srgba(13.0449%,33.1701%,65.6458%,1)"/>
  <circle cx="9" cy="7" r="1" fill="srgba(12.9915%,33.1685%,65.6672%,1)"/>
  <circle cx="10" cy="7" r="1" fill="srgba(12.9915%,33.1655%,65.6641%,1)"/>
  <circle cx="11" cy="7" r="1" fill="srgba(12.9915%,33.1655%,65.6641%,1)"/>
  <circle cx="12" cy="7" r="1" fill="srgba(12.9915%,33.1655%,65.6641%,1)"/>
  <circle cx="13" cy="7" r="1" fill="srgba(12.9915%,33.1655%,65.6641%,1)"/>
  <circle cx="14" cy="7" r="1" fill="srgba(12.9915%,33.1655%,65.6641%,1)"/>
  <circle cx="15" cy="7" r="1" fill="srgba(12.9915%,33.1655%,65.6641%,1)"/>
  <circle cx="0" cy="8" r="1" fill="srgba(10.8476%,30.988%,64.2466%,1)"/>
  <circle cx="1" cy="8" r="1" fill="srgba(10.8476%,30.988%,64.2466%,1)"/>
  <circle cx="2" cy="8" r="1" fill="srgba(10.8492%,30.9972%,64.2557%,1)"/>
  <circle cx="3" cy="8" r="1" fill="srgba(10.9453%,30.9392%,64.1505%,1)"/>
  <circle cx="4" cy="8" r="1" fill="srgba(8.77089%,28.8319%,62.8214%,1)"/>
  <circle cx="5" cy="8" r="1" fill="srgba(0.642405%,22.4598%,59.4751%,1)"/>
  <circle cx="6" cy="8" r="1" fill="srgba(1.81888%,23.3753%,59.9512%,1)"/>
  <circle cx="7" cy="8" r="1" fill="srgba(9.92294%,29.7826%,63.3478%,1)"/>
  <circle cx="8" cy="8" r="1" fill="srgba(10.8614%,30.8156%,64.0543%,1)"/>
  <circle cx="9" cy="8" r="1" fill="srgba(10.8141%,30.8064%,64.065%,1)"/>
  <circle cx="10" cy="8" r="1" fill="srgba(10.8141%,30.8049%,64.0635%,1)"/>
  <circle cx="11" cy="8" r="1" fill="srgba(10.8141%,30.8049%,64.0635%,1)"/>
  <circle cx="12" cy="8" r="1" fill="srgba(10.8141%,30.8049%,64.0635%,1)"/>
  <circle cx="13" cy="8" r="1" fill="srgba(10.8141%,30.8049%,64.0635%,1)"/>
  <circle cx="14" cy="8" r="1" fill="srgba(10.8141%,30.8049%,64.0635%,1)"/>
  <circle cx="15" cy="8" r="1" fill="srgba(10.8141%,30.8049%,64.0635%,1)"/>
  <circle cx="0" cy="9" r="1" fill="srgba(85.5528%,80.0443%,84.7211%,1)"/>
  <circle cx="1" cy="9" r="1" fill="srgba(85.5528%,80.0443%,84.7211%,1)"/>
  <circle cx="2" cy="9" r="1" fill="srgba(85.5268%,79.9069%,84.5838%,1)"/>
  <circle cx="3" cy="9" r="1" fill="srgba(86.9841%,83.0915%,87.3899%,1)"/>
  <circle cx="4" cy="9" r="1" fill="srgba(71.368%,77.2351%,87.8614%,1)"/>
  <circle cx="5" cy="9" r="1" fill="srgba(5.23995%,26.0777%,61.3794%,1)"/>
  <circle cx="6" cy="9" r="1" fill="srgba(14.8531%,33.6278%,65.3559%,1)"/>
  <circle cx="7" cy="9" r="1" fill="srgba(80.4852%,83.5294%,90.6966%,1)"/>
  <circle cx="8" cy="9" r="1" fill="srgba(86.5812%,83.5966%,88.1147%,1)"/>
  <circle cx="9" cy="9" r="1" fill="srgba(86.0639%,82.771%,87.4479%,1)"/>
  <circle cx="10" cy="9" r="1" fill="srgba(86.07%,82.8%,87.4769%,1)"/>
  <circle cx="11" cy="9" r="1" fill="srgba(86.07%,82.8%,87.4769%,1)"/>
  <circle cx="12" cy="9" r="1" fill="srgba(86.07%,82.8%,87.4769%,1)"/>
  <circle cx="13" cy="9" r="1" fill="srgba(86.07%,82.8%,87.4769%,1)"/>
  <circle cx="14" cy="9" r="1" fill="srgba(86.07%,82.8%,87.4769%,1)"/>
  <circle cx="15" cy="9" r="1" fill="srgba(86.07%,82.8%,87.4769%,1)"/>
  <circle cx="0" cy="10" r="1" fill="srgba(87.0176%,26.5034%,26.2013%,1)"/>
  <circle cx="1" cy="10" r="1" fill="srgba(87.0176%,26.5034%,26.2013%,1)"/>
  <circle cx="2" cy="10" r="1" fill="srgba(86.8406%,25.5039%,25.1987%,1)"/>
  <circle cx="3" cy="10" r="1" fill="srgba(91.0582%,43.7385%,43.0716%,1)"/>
  <circle cx="4" cy="10" r="1" fill="srgba(81.0986%,82.1683%,88.9555%,1)"/>
  <circle cx="5" cy="10" r="1" fill="srgba(6.03037%,26.8589%,61.8799%,1)"/>
  <circle cx="6" cy="10" r="1" fill="srgba(17.1328%,36.0754%,67.0069%,1)"/>
  <circle cx="7" cy="10" r="1" fill="srgba(89.9321%,80.2533%,83.0396%,1)"/>
  <circle cx="8" cy="10" r="1" fill="srgba(88.8762%,34.4671%,34.0017%,1)"/>
  <circle cx="9" cy="10" r="1" fill="srgba(87.5654%,29.4057%,29.1005%,1)"/>
  <circle cx="10" cy="10" r="1" fill="srgba(87.6143%,29.6818%,29.3782%,1)"/>
  <circle cx="11" cy="10" r="1" fill="srgba(87.6143%,29.6818%,29.3782%,1)"/>
  <circle cx="12" cy="10" r="1" fill="srgba(87.6143%,29.6818%,29.3782%,1)"/>
  <circle cx="13" cy="10" r="1" fill="srgba(87.6143%,29.6818%,29.3782%,1)"/>
  <circle cx="14" cy="10" r="1" fill="srgba(87.6143%,29.6818%,29.3782%,1)"/>
  <circle cx="15" cy="10" r="1" fill="srgba(87.6143%,29.6818%,29.3782%,1)"/>
  <circle cx="0" cy="11" r="1" fill="srgba(84.1917%,15.0271%,15.0271%,1)"/>
  <circle cx="1" cy="11" r="1" fill="srgba(84.1917%,15.0271%,15.0271%,1)"/>
  <circle cx="2" cy="11" r="1" fill="srgba(83.9765%,13.872%,13.872%,1)"/>
  <circle cx="3" cy="11" r="1" fill="srgba(88.8563%,34.8104%,34.3786%,1)"/>
  <circle cx="4" cy="11" r="1" fill="srgba(80.9476%,81.6007%,88.4062%,1)"/>
  <circle cx="5" cy="11" r="1" fill="srgba(6.03342%,26.8879%,61.9104%,1)"/>
  <circle cx="6" cy="11" r="1" fill="srgba(17.1603%,36.2463%,67.1809%,1)"/>
  <circle cx="7" cy="11" r="1" fill="srgba(89.2424%,77.3327%,80.1831%,1)"/>
  <circle cx="8" cy="11" r="1" fill="srgba(85.6336%,20.5447%,20.3632%,1)"/>
  <circle cx="9" cy="11" r="1" fill="srgba(84.0909%,14.493%,14.493%,1)"/>
  <circle cx="10" cy="11" r="1" fill="srgba(84.1535%,14.8287%,14.8287%,1)"/>
  <circle cx="11" cy="11" r="1" fill="srgba(84.1535%,14.8287%,14.8287%,1)"/>
  <circle cx="12" cy="11" r="1" fill="srgba(84.1535%,14.8287%,14.8287%,1)"/>
  <circle cx="13" cy="11" r="1" fill="srgba(84.1535%,14.8287%,14.8287%,1)"/>
  <circle cx="14" cy="11" r="1" fill="srgba(84.1535%,14.8287%,14.8287%,1)"/>
  <circle cx="15" cy="11" r="1" fill="srgba(84.1535%,14.8287%,14.8287%,1)"/>
  <circle cx="0" cy="12" r="1" fill="srgba(215,40,40,1)"/>
  <circle cx="1" cy="12" r="1" fill="srgba(215,40,40,1)"/>
  <circle cx="2" cy="12" r="1" fill="srgba(84.1001%,14.5403%,14.5403%,1)"/>
  <circle cx="3" cy="12" r="1" fill="srgba(88.9509%,35.3231%,34.8913%,1)"/>
  <circle cx="4" cy="12" r="1" fill="srgba(80.9537%,81.6327%,88.4382%,1)"/>
  <circle cx="5" cy="12" r="1" fill="srgba(6.03342%,26.8864%,61.9089%,1)"/>
  <circle cx="6" cy="12" r="1" fill="srgba(17.1588%,36.2356%,67.1702%,1)"/>
  <circle cx="7" cy="12" r="1" fill="srgba(89.2744%,77.5021%,80.351%,1)"/>
  <circle cx="8" cy="12" r="1" fill="srgba(85.7832%,21.3489%,21.1673%,1)"/>
  <circle cx="9" cy="12" r="1" fill="srgba(84.2527%,15.3552%,15.3552%,1)"/>
  <circle cx="10" cy="12" r="1" fill="srgba(215,40,40,1)"/>
  <circle cx="11" cy="12" r="1" fill="srgba(215,40,40,1)"/>
  <circle cx="12" cy="12" r="1" fill="srgba(215,40,40,1)"/>
  <circle cx="13" cy="12" r="1" fill="srgba(215,40,40,1)"/>
  <circle cx="14" cy="12" r="1" fill="srgba(215,40,40,1)"/>
  <circle cx="15" cy="12" r="1" fill="srgba(215,40,40,1)"/>
  <circle cx="0" cy="13" r="1" fill="srgba(215,40,40,1)"/>
  <circle cx="1" cy="13" r="1" fill="srgba(215,40,40,1)"/>
  <circle cx="2" cy="13" r="1" fill="srgba(84.1001%,14.5403%,14.5403%,1)"/>
  <circle cx="3" cy="13" r="1" fill="srgba(88.9509%,35.3231%,34.8913%,1)"/>
  <circle cx="4" cy="13" r="1" fill="srgba(80.9537%,81.6327%,88.4382%,1)"/>
  <circle cx="5" cy="13" r="1" fill="srgba(6.03342%,26.8864%,61.9089%,1)"/>
  <circle cx="6" cy="13" r="1" fill="srgba(17.1588%,36.2356%,67.1702%,1)"/>
  <circle cx="7" cy="13" r="1" fill="srgba(89.2744%,77.5021%,80.351%,1)"/>
  <circle cx="8" cy="13" r="1" fill="srgba(85.7832%,21.3489%,21.1673%,1)"/>
  <circle cx="9" cy="13" r="1" fill="srgba(84.2527%,15.3552%,15.3552%,1)"/>
  <circle cx="10" cy="13" r="1" fill="srgba(215,40,40,1)"/>
  <circle cx="11" cy="13" r="1" fill="srgba(215,40,40,1)"/>
  <circle cx="12" cy="13" r="1" fill="srgba(215,40,40,1)"/>
  <circle cx="13" cy="13" r="1" fill="srgba(215,40,40,1)"/>
  <circle cx="14" cy="13" r="1" fill="srgba(215,40,40,1)"/>
  <circle cx="15" cy="13" r="1" fill="srgba(215,40,40,1)"/>
  <circle cx="0" cy="14" r="1" fill="srgba(84.2847%,15.5322%,15.5322%,1)"/>
  <circle cx="1" cy="14" r="1" fill="srgba(84.2847%,15.5322%,15.5322%,1)"/>
  <circle cx="2" cy="14" r="1" fill="srgba(84.0711%,14.3847%,14.3847%,1)"/>
  <circle cx="3" cy="14" r="1" fill="srgba(88.9281%,35.2041%,34.7723%,1)"/>
  <circle cx="4" cy="14" r="1" fill="srgba(80.9506%,81.5991%,88.4169%,1)"/>
  <circle cx="5" cy="14" r="1" fill="srgba(6.03189%,26.7521%,61.8387%,1)"/>
  <circle cx="6" cy="14" r="1" fill="srgba(17.1588%,36.1196%,67.1092%,1)"/>
  <circle cx="7" cy="14" r="1" fill="srgba(89.2683%,77.4594%,80.3159%,1)"/>
  <circle cx="8" cy="14" r="1" fill="srgba(85.7557%,21.2039%,21.0224%,1)"/>
  <circle cx="9" cy="14" r="1" fill="srgba(84.2222%,15.198%,15.198%,1)"/>
  <circle cx="10" cy="14" r="1" fill="srgba(84.2847%,15.5306%,15.5306%,1)"/>
  <circle cx="11" cy="14" r="1" fill="srgba(84.2847%,15.5306%,15.5306%,1)"/>
  <circle cx="12" cy="14" r="1" fill="srgba(84.2847%,15.5306%,15.5306%,1)"/>
  <circle cx="13" cy="14" r="1" fill="srgba(84.2847%,15.5306%,15.5306%,1)"/>
  <circle cx="14" cy="14" r="1" fill="srgba(84.2847%,15.5306%,15.5306%,1)"/>
  <circle cx="15" cy="14" r="1" fill="srgba(84.2847%,15.5306%,15.5306%,1)"/>
  <circle cx="0" cy="15" r="1" fill="srgba(84.8341%,18.5016%,18.5016%,1)"/>
  <circle cx="1" cy="15" r="1" fill="srgba(84.8341%,18.5016%,18.5016%,1)"/>
  <circle cx="2" cy="15" r="1" fill="srgba(84.6281%,17.3938%,17.3938%,1)"/>
  <circle cx="3" cy="15" r="1" fill="srgba(89.3172%,37.4823%,37.0657%,1)"/>
  <circle cx="4" cy="15" r="1" fill="srgba(81.5915%,82.2477%,88.8258%,1)"/>
  <circle cx="5" cy="15" r="1" fill="srgba(9.18288%,29.34%,63.183%,1)"/>
  <circle cx="6" cy="15" r="1" fill="srgba(19.9359%,38.3749%,68.2673%,1)"/>
  <circle cx="7" cy="15" r="1" fill="srgba(89.6345%,78.2574%,81.0117%,1)"/>
  <circle cx="8" cy="15" r="1" fill="srgba(86.2623%,23.9902%,23.8148%,1)"/>
  <circle cx="9" cy="15" r="1" fill="srgba(84.7822%,18.1979%,18.1979%,1)"/>
  <circle cx="10" cy="15" r="1" fill="srgba(84.8417%,18.5183%,18.5183%,1)"/>
  <circle cx="11" cy="15" r="1" fill="srgba(84.8417%,18.5183%,18.5183%,1)"/>
  <circle cx="12" cy="15" r="1" fill="srgba(84.8417%,18.5183%,18.5183%,1)"/>
  <circle cx="13" cy="15" r="1" fill="srgba(84.8417%,18.5183%,18.5183%,1)"/>
  <circle cx="14" cy="15" r="1" fill="srgba(84.8417%,18.5183%,18.5183%,1)"/>
  <circle cx="15" cy="15" r="1" fill="srgba(84.8417%,18.5183%,18.5183%,1)"/>
</svg>
