<?xml version="1.0" standalone="no"?>
<!DOCTYPE svg PUBLIC "-//W3C//DTD SVG 20010904//EN"
  "http://www.w3.org/TR/2001/REC-SVG-20010904/DTD/svg10.dtd">
<svg width="16" height="16">
  <circle cx="0" cy="0" r="1" fill="srgba(88.9342%,63.3463%,63.3463%,1)"/>
  <circle cx="1" cy="0" r="1" fill="srgba(90.7698%,69.4362%,69.4362%,1)"/>
  <circle cx="2" cy="0" r="1" fill="srgba(88.9052%,63.2563%,63.2563%,1)"/>
  <circle cx="3" cy="0" r="1" fill="srgba(81.4694%,38.6557%,38.6557%,1)"/>
  <circle cx="4" cy="0" r="1" fill="srgba(69.6666%,0%,0%,1)"/>
  <circle cx="5" cy="0" r="1" fill="srgba(178,0,0,1)"/>
  <circle cx="6" cy="0" r="1" fill="srgba(178,0,0,1)"/>
  <circle cx="7" cy="0" r="1" fill="srgba(178,0,0,1)"/>
  <circle cx="8" cy="0" r="1" fill="srgba(178,0,0,1)"/>
  <circle cx="9" cy="0" r="1" fill="srgba(178,0,0,1)"/>
  <circle cx="10" cy="0" r="1" fill="srgba(178,0,0,1)"/>
  <circle cx="11" cy="0" r="1" fill="srgba(178,0,0,1)"/>
  <circle cx="12" cy="0" r="1" fill="srgba(178,0,0,1)"/>
  <circle cx="13" cy="0" r="1" fill="srgba(178,0,0,1)"/>
  <circle cx="14" cy="0" r="1" fill="srgba(69.8024%,0%,0%,1)"/>
  <circle cx="15" cy="0" r="1" fill="srgba(69.8421%,0.131228%,0.131228%,1)"/>
  <circle cx="0" cy="1" r="1" fill="srgba(88.8685%,63.1388%,63.1388%,1)"/>
  <circle cx="1" cy="1" r="1" fill="srgba(87.2465%,57.7646%,57.7646%,1)"/>
  <circle cx="2" cy="1" r="1" fill="srgba(89.4621%,65.098%,65.098%,1)"/>
  <circle cx="3" cy="1" r="1" fill="srgba(79.2203%,31.2032%,31.2032%,1)"/>
  <circle cx="4" cy="1" r="1" fill="srgba(69.6651%,0%,0%,1)"/>
  <circle cx="5" cy="1" r="1" fill="srgba(178,0,0,1)"/>
  <circle cx="6" cy="1" r="1" fill="srgba(178,0,0,1)"/>
  <circle cx="7" cy="1" r="1" fill="srgba(178,0,0,1)"/>
  <circle cx="8" cy="1" r="1" fill="srgba(178,0,0,1)"/>
  <circle cx="9" cy="1" r="1" fill="srgba(178,0,0,1)"/>
  <circle cx="10" cy="1" r="1" fill="srgba(178,0,0,1)"/>
  <circle cx="11" cy="1" r="1" fill="srgba(178,0,0,1)"/>
  <circle cx="12" cy="1" r="1" fill="srgba(178,0,0,1)"/>
  <circle cx="13" cy="1" r="1" fill="srgba(178,0,0,1)"/>
  <circle cx="14" cy="1" r="1" fill="srgba(69.8024%,0%,0%,1)"/>
  <circle cx="15" cy="1" r="1" fill="srgba(69.8421%,0.131228%,0.131228%,1)"/>
  <circle cx="0" cy="2" r="1" fill="srgba(87.2541%,57.7768%,57.7768%,1)"/>
  <circle cx="1" cy="2" r="1" fill="srgba(87.9423%,60.0641%,60.0641%,1)"/>
  <circle cx="2" cy="2" r="1" fill="srgba(87.1092%,57.3053%,57.3053%,1)"/>
  <circle cx="3" cy="2" r="1" fill="srgba(80.087%,34.0597%,34.0597%,1)"/>
  <circle cx="4" cy="2" r="1" fill="srgba(69.6605%,0%,0%,1)"/>
  <circle cx="5" cy="2" r="1" fill="srgba(178,0,0,1)"/>
  <circle cx="6" cy="2" r="1" fill="srgba(178,0,0,1)"/>
  <circle cx="7" cy="2" r="1" fill="srgba(178,0,0,1)"/>
  <circle cx="8" cy="2" r="1" fill="srgba(178,0,0,1)"/>
  <circle cx="9" cy="2" r="1" fill="srgba(178,0,0,1)"/>
  <circle cx="10" cy="2" r="1" fill="srgba(178,0,0,1)"/>
  <circle cx="11" cy="2" r="1" fill="srgba(178,0,0,1)"/>
  <circle cx="12" cy="2" r="1" fill="srgba(178,0,0,1)"/>
  <circle cx="13" cy="2" r="1" fill="srgba(178,0,0,1)"/>
  <circle cx="14" cy="2" r="1" fill="srgba(69.8024%,0%,0%,1)"/>
  <circle cx="15" cy="2" r="1" fill="srgba(69.8421%,0.131228%,0.131228%,1)"/>
  <circle cx="0" cy="3" r="1" fill="srgba(84.9317%,50.1015%,50.1015%,1)"/>
  <circle cx="1" cy="3" r="1" fill="srgba(84.152%,47.5288%,47.5288%,1)"/>
  <circle cx="2" cy="3" r="1" fill="srgba(85.1011%,50.6752%,50.6752%,1)"/>
  <circle cx="3" cy="3" r="1" fill="srgba(77.8622%,26.7048%,26.7048%,1)"/>
  <circle cx="4" cy="3" r="1" fill="srgba(69.7078%,0%,0%,1)"/>
  <circle cx="5" cy="3" r="1" fill="srgba(178,0,0,1)"/>
  <circle cx="6" cy="3" r="1" fill="srgba(178,0,0,1)"/>
  <circle cx="7" cy="3" r="1" fill="srgba(178,0,0,1)"/>
  <circle cx="8" cy="3" r="1" fill="srgba(178,0,0,1)"/>
  <circle cx="9" cy="3" r="1" fill="srgba(178,0,0,1)"/>
  <circle cx="10" cy="3" r="1" fill="srgba(178,0,0,1)"/>
  <circle cx="11" cy="3" r="1" fill="srgba(178,0,0,1)"/>
  <circle cx="12" cy="3" r="1" fill="srgba(178,0,0,1)"/>
  <circle cx="13" cy="3" r="1" fill="srgba(178,0,0,1)"/>
  <circle cx="14" cy="3" r="1" fill="srgba(69.8024%,0%,0%,1)"/>
  <circle cx="15" cy="3" r="1" fill="srgba(69.8421%,0.131228%,0.131228%,1)"/>
  <circle cx="0" cy="4" r="1" fill="srgba(82.3239%,41.445%,41.445%,1)"/>
  <circle cx="1" cy="4" r="1" fill="srgba(84.2237%,47.7379%,47.7379%,1)"/>
  <circle cx="2" cy="4" r="1" fill="srgba(81.4343%,38.5153%,38.5153%,1)"/>
  <circle cx="3" cy="4" r="1" fill="srgba(78.6435%,29.2805%,29.2805%,1)"/>
  <circle cx="4" cy="4" r="1" fill="srgba(69.7459%,0%,0%,1)"/>
  <circle cx="5" cy="4" r="1" fill="srgba(178,0,0,1)"/>
  <circle cx="6" cy="4" r="1" fill="srgba(178,0,0,1)"/>
  <circle cx="7" cy="4" r="1" fill="srgba(178,0,0,1)"/>
  <circle cx="8" cy="4" r="1" fill="srgba(178,0,0,1)"/>
  <circle cx="9" cy="4" r="1" fill="srgba(178,0,0,1)"/>
  <circle cx="10" cy="4" r="1" fill="srgba(178,0,0,1)"/>
  <circle cx="11" cy="4" r="1" fill="srgba(178,0,0,1)"/>
  <circle cx="12" cy="4" r="1" fill="srgba(178,0,0,1)"/>
  <circle cx="13" cy="4" r="1" fill="srgba(178,0,0,1)"/>
  <circle cx="14" cy="4" r="1" fill="srgba(69.8024%,0%,0%,1)"/>
  <circle cx="15" cy="4" r="1" fill="srgba(69.8421%,0.131228%,0.131228%,1)"/>
  <circle cx="0" cy="5" r="1" fill="srgba(79.2721%,31.4488%,31.4488%,1)"/>
  <circle cx="1" cy="5" r="1" fill="srgba(80.1633%,34.3282%,34.3282%,1)"/>
  <circle cx="2" cy="5" r="1" fill="srgba(79.5758%,32.4468%,32.4468%,1)"/>
  <circle cx="3" cy="5" r="1" fill="srgba(75.9701%,20.4685%,20.4685%,1)"/>
  <circle cx="4" cy="5" r="1" fill="srgba(69.8878%,0.27924%,0.27924%,1)"/>
  <circle cx="5" cy="5" r="1" fill="srgba(178,0,0,1)"/>
  <circle cx="6" cy="5" r="1" fill="srgba(178,0,0,1)"/>
  <circle cx="7" cy="5" r="1" fill="srgba(178,0,0,1)"/>
  <circle cx="8" cy="5" r="1" fill="srgba(178,0,0,1)"/>
  <circle cx="9" cy="5" r="1" fill="srgba(178,0,0,1)"/>
  <circle cx="10" cy="5" r="1" fill="srgba(178,0,0,1)"/>
  <circle cx="11" cy="5" r="1" fill="srgba(178,0,0,1)"/>
  <circle cx="12" cy="5" r="1" fill="srgba(178,0,0,1)"/>
  <circle cx="13" cy="5" r="1" fill="srgba(178,0,0,1)"/>
  <circle cx="14" cy="5" r="1" fill="srgba(69.8024%,0%,0%,1)"/>
  <circle cx="15" cy="5" r="1" fill="srgba(69.8421%,0.131228%,0.131228%,1)"/>
  <circle cx="0" cy="6" r="1" fill="srgba(90.8263%,69.6162%,69.6162%,1)"/>
  <circle cx="1" cy="6" r="1" fill="srgba(87.7928%,59.5789%,59.5789%,1)"/>
  <circle cx="2" cy="6" r="1" fill="srgba(89.9748%,66.8132%,66.8132%,1)"/>
  <circle cx="3" cy="6" r="1" fill="srgba(81.1261%,37.5128%,37.5128%,1)"/>
  <circle cx="4" cy="6" r="1" fill="srgba(69.5598%,0%,0%,1)"/>
  <circle cx="5" cy="6" r="1" fill="srgba(178,0,0,1)"/>
  <circle cx="6" cy="6" r="1" fill="srgba(178,0,0,1)"/>
  <circle cx="7" cy="6" r="1" fill="srgba(178,0,0,1)"/>
  <circle cx="8" cy="6" r="1" fill="srgba(178,0,0,1)"/>
  <circle cx="9" cy="6" r="1" fill="srgba(178,0,0,1)"/>
  <circle cx="10" cy="6" r="1" fill="srgba(178,0,0,1)"/>
  <circle cx="11" cy="6" r="1" fill="srgba(178,0,0,1)"/>
  <circle cx="12" cy="6" r="1" fill="srgba(178,0,0,1)"/>
  <circle cx="13" cy="6" r="1" fill="srgba(178,0,0,1)"/>
  <circle cx="14" cy="6" r="1" fill="srgba(69.8024%,0%,0%,1)"/>
  <circle cx="15" cy="6" r="1" fill="srgba(69.8421%,0.131228%,0.131228%,1)"/>
  <circle cx="0" cy="7" r="1" fill="srgba(87.5593%,58.8006%,58.8006%,1)"/>
  <circle cx="1" cy="7" r="1" fill="srgba(89.7795%,66.1555%,66.1555%,1)"/>
  <circle cx="2" cy="7" r="1" fill="srgba(88.4215%,61.6602%,61.6602%,1)"/>
  <circle cx="3" cy="7" r="1" fill="srgba(79.9695%,33.6782%,33.6782%,1)"/>
  <circle cx="4" cy="7" r="1" fill="srgba(69.6483%,0%,0%,1)"/>
  <circle cx="5" cy="7" r="1" fill="srgba(178,0,0,1)"/>
  <circle cx="6" cy="7" r="1" fill="srgba(178,0,0,1)"/>
  <circle cx="7" cy="7" r="1" fill="srgba(178,0,0,1)"/>
  <circle cx="8" cy="7" r="1" fill="srgba(178,0,0,1)"/>
  <circle cx="9" cy="7" r="1" fill="srgba(178,0,0,1)"/>
  <circle cx="10" cy="7" r="1" fill="srgba(178,0,0,1)"/>
  <circle cx="11" cy="7" r="1" fill="srgba(178,0,0,1)"/>
  <circle cx="12" cy="7" r="1" fill="srgba(178,0,0,1)"/>
  <circle cx="13" cy="7" r="1" fill="srgba(178,0,0,1)"/>
  <circle cx="14" cy="7" r="1" fill="srgba(69.8024%,0%,0%,1)"/>
  <circle cx="15" cy="7" r="1" fill="srgba(69.8421%,0.131228%,0.131228%,1)"/>
  <circle cx="0" cy="8" r="1" fill="srgba(87.5853%,58.8937%,58.8937%,1)"/>
  <circle cx="1" cy="8" r="1" fill="srgba(89.7932%,66.2028%,66.2028%,1)"/>
  <circle cx="2" cy="8" r="1" fill="srgba(88.4504%,61.7487%,61.7487%,1)"/>
  <circle cx="3" cy="8" r="1" fill="srgba(79.971%,33.6828%,33.6828%,1)"/>
  <circle cx="4" cy="8" r="1" fill="srgba(69.6468%,0%,0%,1)"/>
  <circle cx="5" cy="8" r="1" fill="srgba(178,0,0,1)"/>
  <circle cx="6" cy="8" r="1" fill="srgba(178,0,0,1)"/>
  <circle cx="7" cy="8" r="1" fill="srgba(178,0,0,1)"/>
  <circle cx="8" cy="8" r="1" fill="srgba(178,0,0,1)"/>
  <circle cx="9" cy="8" r="1" fill="srgba(178,0,0,1)"/>
  <circle cx="10" cy="8" r="1" fill="srgba(178,0,0,1)"/>
  <circle cx="11" cy="8" r="1" fill="srgba(178,0,0,1)"/>
  <circle cx="12" cy="8" r="1" fill="srgba(178,0,0,1)"/>
  <circle cx="13" cy="8" r="1" fill="srgba(178,0,0,1)"/>
  <circle cx="14" cy="8" r="1" fill="srgba(69.8024%,0%,0%,1)"/>
  <circle cx="15" cy="8" r="1" fill="srgba(69.8421%,0.131228%,0.131228%,1)"/>
  <circle cx="0" cy="9" r="1" fill="srgba(90.7912%,69.5048%,69.5048%,1)"/>
  <circle cx="1" cy="9" r="1" fill="srgba(87.7897%,59.5697%,59.5697%,1)"/>
  <circle cx="2" cy="9" r="1" fill="srgba(89.9443%,66.7414%,66.7414%,1)"/>
  <circle cx="3" cy="9" r="1" fill="srgba(81.4679%,37.4487%,37.467%,1)"/>
  <circle cx="4" cy="9" r="1" fill="srgba(70.3365%,0%,0%,1)"/>
  <circle cx="5" cy="9" r="1" fill="srgba(70.5715%,0%,0%,1)"/>
  <circle cx="6" cy="9" r="1" fill="srgba(70.5715%,0%,0%,1)"/>
  <circle cx="7" cy="9" r="1" fill="srgba(70.5715%,0%,0%,1)"/>
  <circle cx="8" cy="9" r="1" fill="srgba(70.5715%,0%,0%,1)"/>
  <circle cx="9" cy="9" r="1" fill="srgba(70.5715%,0%,0%,1)"/>
  <circle cx="10" cy="9" r="1" fill="srgba(70.5715%,0%,0%,1)"/>
  <circle cx="11" cy="9" r="1" fill="srgba(70.5715%,0%,0%,1)"/>
  <circle cx="12" cy="9" r="1" fill="srgba(70.5715%,0%,0%,1)"/>
  <circle cx="13" cy="9" r="1" fill="srgba(70.5715%,0%,0%,1)"/>
  <circle cx="14" cy="9" r="1" fill="srgba(70.5699%,0%,0%,1)"/>
  <circle cx="15" cy="9" r="1" fill="srgba(70.6096%,0.111391%,0.131228%,1)"/>
  <circle cx="0" cy="10" r="1" fill="srgba(79.2538%,31.3756%,31.3756%,1)"/>
  <circle cx="1" cy="10" r="1" fill="srgba(80.1419%,34.2641%,34.2641%,1)"/>
  <circle cx="2" cy="10" r="1" fill="srgba(79.8245%,31.986%,32.3705%,1)"/>
  <circle cx="3" cy="10" r="1" fill="srgba(68.1376%,31.6075%,20.4822%,1)"/>
  <circle cx="4" cy="10" r="1" fill="srgba(52.7077%,24.918%,0.450141%,1)"/>
  <circle cx="5" cy="10" r="1" fill="srgba(52.8054%,24.3763%,0.166323%,1)"/>
  <circle cx="6" cy="10" r="1" fill="srgba(52.8054%,24.3763%,0.167849%,1)"/>
  <circle cx="7" cy="10" r="1" fill="srgba(52.8054%,24.3763%,0.167849%,1)"/>
  <circle cx="8" cy="10" r="1" fill="srgba(52.8054%,24.3763%,0.167849%,1)"/>
  <circle cx="9" cy="10" r="1" fill="srgba(52.8054%,24.3763%,0.167849%,1)"/>
  <circle cx="10" cy="10" r="1" fill="srgba(52.8054%,24.3763%,0.167849%,1)"/>
  <circle cx="11" cy="10" r="1" fill="srgba(52.8054%,24.3763%,0.167849%,1)"/>
  <circle cx="12" cy="10" r="1" fill="srgba(52.8054%,24.3763%,0.167849%,1)"/>
  <circle cx="13" cy="10" r="1" fill="srgba(52.8054%,24.3763%,0.167849%,1)"/>
  <circle cx="14" cy="10" r="1" fill="srgba(52.8023%,24.3702%,0.16022%,1)"/>
  <circle cx="15" cy="10" r="1" fill="srgba(52.8679%,24.4739%,0.297551%,1)"/>
  <circle cx="0" cy="11" r="1" fill="srgba(82.3407%,41.5045%,41.5045%,1)"/>
  <circle cx="1" cy="11" r="1" fill="srgba(84.239%,47.7974%,47.7974%,1)"/>
  <circle cx="2" cy="11" r="1" fill="srgba(82.1759%,37.6745%,38.6648%,1)"/>
  <circle cx="3" cy="11" r="1" fill="srgba(58.3856%,58.117%,29.3385%,1)"/>
  <circle cx="4" cy="11" r="1" fill="srgba(25.2766%,62.9816%,0%,1)"/>
  <circle cx="5" cy="11" r="1" fill="srgba(25.8106%,62.4979%,0.0289921%,1)"/>
  <circle cx="6" cy="11" r="1" fill="srgba(25.8122%,62.4979%,0.030518%,1)"/>
  <circle cx="7" cy="11" r="1" fill="srgba(25.8122%,62.4979%,0.030518%,1)"/>
  <circle cx="8" cy="11" r="1" fill="srgba(25.8122%,62.4979%,0.030518%,1)"/>
  <circle cx="9" cy="11" r="1" fill="srgba(25.8122%,62.4979%,0.030518%,1)"/>
  <circle cx="10" cy="11" r="1" fill="srgba(25.8122%,62.4979%,0.030518%,1)"/>
  <circle cx="11" cy="11" r="1" fill="srgba(25.8122%,62.4979%,0.030518%,1)"/>
  <circle cx="12" cy="11" r="1" fill="srgba(25.8122%,62.4979%,0.030518%,1)"/>
  <circle cx="13" cy="11" r="1" fill="srgba(25.8122%,62.4979%,0.030518%,1)"/>
  <circle cx="14" cy="11" r="1" fill="srgba(25.8061%,62.4949%,0.0228885%,1)"/>
  <circle cx="15" cy="11" r="1" fill="srgba(25.9129%,62.5437%,0.161746%,1)"/>
  <circle cx="0" cy="12" r="1" fill="srgba(84.8661%,49.8833%,49.8833%,1)"/>
  <circle cx="1" cy="12" r="1" fill="srgba(84.0452%,47.1824%,47.1824%,1)"/>
  <circle cx="2" cy="12" r="1" fill="srgba(85.7496%,49.5155%,50.5058%,1)"/>
  <circle cx="3" cy="12" r="1" fill="srgba(57.6165%,55.3033%,26.6056%,1)"/>
  <circle cx="4" cy="12" r="1" fill="srgba(25.3056%,62.7283%,0%,1)"/>
  <circle cx="5" cy="12" r="1" fill="srgba(25.8717%,62.3651%,0%,1)"/>
  <circle cx="6" cy="12" r="1" fill="srgba(25.8732%,62.3651%,0%,1)"/>
  <circle cx="7" cy="12" r="1" fill="srgba(25.8732%,62.3651%,0%,1)"/>
  <circle cx="8" cy="12" r="1" fill="srgba(25.8732%,62.3651%,0%,1)"/>
  <circle cx="9" cy="12" r="1" fill="srgba(25.8732%,62.3651%,0%,1)"/>
  <circle cx="10" cy="12" r="1" fill="srgba(25.8732%,62.3651%,0%,1)"/>
  <circle cx="11" cy="12" r="1" fill="srgba(25.8732%,62.3651%,0%,1)"/>
  <circle cx="12" cy="12" r="1" fill="srgba(25.8732%,62.3651%,0%,1)"/>
  <circle cx="13" cy="12" r="1" fill="srgba(25.8732%,62.3651%,0%,1)"/>
  <circle cx="14" cy="12" r="1" fill="srgba(25.8671%,62.3621%,0%,1)"/>
  <circle cx="15" cy="12" r="1" fill="srgba(25.9739%,62.4109%,0.131228%,1)"/>
  <circle cx="0" cy="13" r="1" fill="srgba(87.2374%,57.7401%,57.7401%,1)"/>
  <circle cx="1" cy="13" r="1" fill="srgba(87.8996%,59.9435%,59.9435%,1)"/>
  <circle cx="2" cy="13" r="1" fill="srgba(87.7836%,56.2554%,57.2442%,1)"/>
  <circle cx="3" cy="13" r="1" fill="srgba(59.852%,62.7741%,34.0581%,1)"/>
  <circle cx="4" cy="13" r="1" fill="srgba(25.2644%,62.5574%,0%,1)"/>
  <circle cx="5" cy="13" r="1" fill="srgba(25.8808%,62.3529%,0%,1)"/>
  <circle cx="6" cy="13" r="1" fill="srgba(66,159,0,1)"/>
  <circle cx="7" cy="13" r="1" fill="srgba(66,159,0,1)"/>
  <circle cx="8" cy="13" r="1" fill="srgba(66,159,0,1)"/>
  <circle cx="9" cy="13" r="1" fill="srgba(66,159,0,1)"/>
  <circle cx="10" cy="13" r="1" fill="srgba(66,159,0,1)"/>
  <circle cx="11" cy="13" r="1" fill="srgba(66,159,0,1)"/>
  <circle cx="12" cy="13" r="1" fill="srgba(66,159,0,1)"/>
  <circle cx="13" cy="13" r="1" fill="srgba(66,159,0,1)"/>
  <circle cx="14" cy="13" r="1" fill="srgba(25.8762%,62.3499%,0%,1)"/>
  <circle cx="15" cy="13" r="1" fill="srgba(25.9831%,62.3987%,0.131228%,1)"/>
  <circle cx="0" cy="14" r="1" fill="srgba(88.893%,63.2029%,63.2074%,1)"/>
  <circle cx="1" cy="14" r="1" fill="srgba(87.2374%,57.7249%,57.7279%,1)"/>
  <circle cx="2" cy="14" r="1" fill="srgba(90.1289%,64.0085%,64.9989%,1)"/>
  <circle cx="3" cy="14" r="1" fill="srgba(58.9837%,59.9527%,31.2245%,1)"/>
  <circle cx="4" cy="14" r="1" fill="srgba(25.2613%,62.5696%,0%,1)"/>
  <circle cx="5" cy="14" r="1" fill="srgba(25.8747%,62.3499%,0%,1)"/>
  <circle cx="6" cy="14" r="1" fill="srgba(25.8762%,62.3499%,0%,1)"/>
  <circle cx="7" cy="14" r="1" fill="srgba(25.8762%,62.3499%,0%,1)"/>
  <circle cx="8" cy="14" r="1" fill="srgba(25.8762%,62.3499%,0%,1)"/>
  <circle cx="9" cy="14" r="1" fill="srgba(25.8762%,62.3499%,0%,1)"/>
  <circle cx="10" cy="14" r="1" fill="srgba(25.8762%,62.3499%,0%,1)"/>
  <circle cx="11" cy="14" r="1" fill="srgba(25.8762%,62.3499%,0%,1)"/>
  <circle cx="12" cy="14" r="1" fill="srgba(25.8762%,62.3499%,0%,1)"/>
  <circle cx="13" cy="14" r="1" fill="srgba(25.8762%,62.3499%,0%,1)"/>
  <circle cx="14" cy="14" r="1" fill="srgba(25.8701%,62.3468%,0%,1)"/>
  <circle cx="15" cy="14" r="1" fill="srgba(25.977%,62.3957%,0.131228%,1)"/>
  <circle cx="0" cy="15" r="1" fill="srgba(88.9372%,63.6057%,63.537%,1)"/>
  <circle cx="1" cy="15" r="1" fill="srgba(90.7576%,69.6178%,69.5552%,1)"/>
  <circle cx="2" cy="15" r="1" fill="srgba(89.5811%,62.4506%,63.3677%,1)"/>
  <circle cx="3" cy="15" r="1" fill="srgba(61.2055%,67.602%,38.7823%,1)"/>
  <circle cx="4" cy="15" r="1" fill="srgba(25.3635%,62.6246%,0%,1)"/>
  <circle cx="5" cy="15" r="1" fill="srgba(25.9831%,62.3987%,0.129702%,1)"/>
  <circle cx="6" cy="15" r="1" fill="srgba(25.9831%,62.3987%,0.131228%,1)"/>
  <circle cx="7" cy="15" r="1" fill="srgba(25.9831%,62.3987%,0.131228%,1)"/>
  <circle cx="8" cy="15" r="1" fill="srgba(25.9831%,62.3987%,0.131228%,1)"/>
  <circle cx="9" cy="15" r="1" fill="srgba(25.9831%,62.3987%,0.131228%,1)"/>
  <circle cx="10" cy="15" r="1" fill="srgba(25.9831%,62.3987%,0.131228%,1)"/>
  <circle cx="11" cy="15" r="1" fill="srgba(25.9831%,62.3987%,0.131228%,1)"/>
  <circle cx="12" cy="15" r="1" fill="srgba(25.9831%,62.3987%,0.131228%,1)"/>
  <circle cx="13" cy="15" r="1" fill="srgba(25.9831%,62.3987%,0.131228%,1)"/>
  <circle cx="14" cy="15" r="1" fill="srgba(25.977%,62.3957%,0.123598%,1)"/>
  <circle cx="15" cy="15" r="1" fill="srgba(26.0822%,62.4445%,0.262455%,1)"/>
</svg>
