<?xml version="1.0" standalone="no"?>
<!DOCTYPE svg PUBLIC "-//W3C//DTD SVG 20010904//EN"
  "http://www.w3.org/TR/2001/REC-SVG-20010904/DTD/svg10.dtd">
<svg width="16" height="16">
  <circle cx="0" cy="0" r="1" fill="srgba(77.7279%,0%,0%,1)"/>
  <circle cx="1" cy="0" r="1" fill="srgba(77.7279%,0%,0%,1)"/>
  <circle cx="2" cy="0" r="1" fill="srgba(77.7279%,0%,0%,1)"/>
  <circle cx="3" cy="0" r="1" fill="srgba(77.7279%,0%,0%,1)"/>
  <circle cx="4" cy="0" r="1" fill="srgba(77.7279%,0%,0%,1)"/>
  <circle cx="5" cy="0" r="1" fill="srgba(77.7279%,0%,0%,1)"/>
  <circle cx="6" cy="0" r="1" fill="srgba(77.7279%,0%,0%,1)"/>
  <circle cx="7" cy="0" r="1" fill="srgba(77.7279%,0%,0%,1)"/>
  <circle cx="8" cy="0" r="1" fill="srgba(77.7279%,0%,0%,1)"/>
  <circle cx="9" cy="0" r="1" fill="srgba(77.7279%,0%,0%,1)"/>
  <circle cx="10" cy="0" r="1" fill="srgba(77.7279%,0%,0%,1)"/>
  <circle cx="11" cy="0" r="1" fill="srgba(77.7279%,0%,0%,1)"/>
  <circle cx="12" cy="0" r="1" fill="srgba(77.7279%,0%,0%,1)"/>
  <circle cx="13" cy="0" r="1" fill="srgba(77.7279%,0%,0%,1)"/>
  <circle cx="14" cy="0" r="1" fill="srgba(77.7264%,0%,0%,1)"/>
  <circle cx="15" cy="0" r="1" fill="srgba(77.7584%,0.154116%,0.15259%,1)"/>
  <circle cx="0" cy="1" r="1" fill="srgba(76.5438%,0.328069%,0.991836%,1)"/>
  <circle cx="1" cy="1" r="1" fill="srgba(76.5438%,0.328069%,0.991836%,1)"/>
  <circle cx="2" cy="1" r="1" fill="srgba(76.5438%,0.328069%,0.991836%,1)"/>
  <circle cx="3" cy="1" r="1" fill="srgba(76.5438%,0.328069%,0.991836%,1)"/>
  <circle cx="4" cy="1" r="1" fill="srgba(76.5438%,0.328069%,0.991836%,1)"/>
  <circle cx="5" cy="1" r="1" fill="srgba(76.5438%,0.328069%,0.991836%,1)"/>
  <circle cx="6" cy="1" r="1" fill="srgba(76.5438%,0.328069%,0.991836%,1)"/>
  <circle cx="7" cy="1" r="1" fill="srgba(76.5423%,0.326543%,0.990311%,1)"/>
  <circle cx="8" cy="1" r="1" fill="srgba(76.5423%,0.326543%,0.990311%,1)"/>
  <circle cx="9" cy="1" r="1" fill="srgba(76.5438%,0.328069%,0.991836%,1)"/>
  <circle cx="10" cy="1" r="1" fill="srgba(76.5438%,0.328069%,0.991836%,1)"/>
  <circle cx="11" cy="1" r="1" fill="srgba(76.5438%,0.328069%,0.991836%,1)"/>
  <circle cx="12" cy="1" r="1" fill="srgba(76.5438%,0.328069%,0.991836%,1)"/>
  <circle cx="13" cy="1" r="1" fill="srgba(76.5438%,0.328069%,0.991836%,1)"/>
  <circle cx="14" cy="1" r="1" fill="srgba(76.5423%,0.318914%,0.984207%,1)"/>
  <circle cx="15" cy="1" r="1" fill="srgba(76.5759%,0.479133%,1.1429%,1)"/>
  <circle cx="0" cy="2" r="1" fill="srgba(24.3427%,15.8816%,47.9164%,1)"/>
  <circle cx="1" cy="2" r="1" fill="srgba(24.3427%,15.8816%,47.9164%,1)"/>
  <circle cx="2" cy="2" r="1" fill="srgba(24.3427%,15.8816%,47.9164%,1)"/>
  <circle cx="3" cy="2" r="1" fill="srgba(24.3427%,15.8816%,47.9164%,1)"/>
  <circle cx="4" cy="2" r="1" fill="srgba(24.3549%,15.8907%,47.9179%,1)"/>
  <circle cx="5" cy="2" r="1" fill="srgba(23.9048%,15.5413%,47.8019%,1)"/>
  <circle cx="6" cy="2" r="1" fill="srgba(23.1861%,14.9325%,47.8233%,1)"/>
  <circle cx="7" cy="2" r="1" fill="srgba(23.7919%,15.3552%,48.1743%,1)"/>
  <circle cx="8" cy="2" r="1" fill="srgba(23.8972%,15.4177%,48.2811%,1)"/>
  <circle cx="9" cy="2" r="1" fill="srgba(23.2731%,14.9844%,47.9103%,1)"/>
  <circle cx="10" cy="2" r="1" fill="srgba(23.9536%,15.5718%,47.8492%,1)"/>
  <circle cx="11" cy="2" r="1" fill="srgba(24.3519%,15.8892%,47.9149%,1)"/>
  <circle cx="12" cy="2" r="1" fill="srgba(24.3427%,15.8816%,47.9164%,1)"/>
  <circle cx="13" cy="2" r="1" fill="srgba(24.3427%,15.8816%,47.9164%,1)"/>
  <circle cx="14" cy="2" r="1" fill="srgba(24.3381%,15.8801%,47.9179%,1)"/>
  <circle cx="15" cy="2" r="1" fill="srgba(24.4373%,15.9136%,47.9011%,1)"/>
  <circle cx="0" cy="3" r="1" fill="srgba(0%,23.5264%,70.9773%,1)"/>
  <circle cx="1" cy="3" r="1" fill="srgba(0%,23.5264%,70.9773%,1)"/>
  <circle cx="2" cy="3" r="1" fill="srgba(0%,23.5264%,70.9773%,1)"/>
  <circle cx="3" cy="3" r="1" fill="srgba(0%,23.5279%,70.9682%,1)"/>
  <circle cx="4" cy="3" r="1" fill="srgba(0%,23.006%,70.988%,1)"/>
  <circle cx="5" cy="3" r="1" fill="srgba(5.79843%,28.6275%,72.8222%,1)"/>
  <circle cx="6" cy="3" r="1" fill="srgba(26.1265%,45.6291%,75.0546%,1)"/>
  <circle cx="7" cy="3" r="1" fill="srgba(39.0356%,56.7544%,74.4472%,1)"/>
  <circle cx="8" cy="3" r="1" fill="srgba(36.3165%,55.2377%,71.7769%,1)"/>
  <circle cx="9" cy="3" r="1" fill="srgba(24.5899%,44.8173%,73.611%,1)"/>
  <circle cx="10" cy="3" r="1" fill="srgba(5.36355%,28.3452%,72.4025%,1)"/>
  <circle cx="11" cy="3" r="1" fill="srgba(0%,22.974%,70.9346%,1)"/>
  <circle cx="12" cy="3" r="1" fill="srgba(0%,23.5309%,70.9728%,1)"/>
  <circle cx="13" cy="3" r="1" fill="srgba(0%,23.5264%,70.9773%,1)"/>
  <circle cx="14" cy="3" r="1" fill="srgba(0%,23.5279%,70.9834%,1)"/>
  <circle cx="15" cy="3" r="1" fill="srgba(0.0991836%,23.5004%,70.8812%,1)"/>
  <circle cx="0" cy="4" r="1" fill="srgba(0%,23.154%,69.8558%,1)"/>
  <circle cx="1" cy="4" r="1" fill="srgba(0%,23.154%,69.8558%,1)"/>
  <circle cx="2" cy="4" r="1" fill="srgba(0%,23.1632%,69.8573%,1)"/>
  <circle cx="3" cy="4" r="1" fill="srgba(0%,22.6383%,69.8589%,1)"/>
  <circle cx="4" cy="4" r="1" fill="srgba(14.3191%,34.3771%,72.4147%,1)"/>
  <circle cx="5" cy="4" r="1" fill="srgba(51.4412%,66.3981%,70.6126%,1)"/>
  <circle cx="6" cy="4" r="1" fill="srgba(54.5907%,72.8649%,55.7687%,1)"/>
  <circle cx="7" cy="4" r="1" fill="srgba(61.4572%,75.1385%,60.4059%,1)"/>
  <circle cx="8" cy="4" r="1" fill="srgba(53.0022%,68.0552%,51.429%,1)"/>
  <circle cx="9" cy="4" r="1" fill="srgba(54.6517%,70.7103%,55.3704%,1)"/>
  <circle cx="10" cy="4" r="1" fill="srgba(49.9748%,65.3971%,69.2683%,1)"/>
  <circle cx="11" cy="4" r="1" fill="srgba(14.8745%,34.7051%,73.051%,1)"/>
  <circle cx="12" cy="4" r="1" fill="srgba(0%,22.6001%,69.7841%,1)"/>
  <circle cx="13" cy="4" r="1" fill="srgba(0%,23.1617%,69.8543%,1)"/>
  <circle cx="14" cy="4" r="1" fill="srgba(0%,23.154%,69.8573%,1)"/>
  <circle cx="15" cy="4" r="1" fill="srgba(0.123598%,23.1296%,69.7597%,1)"/>
  <circle cx="0" cy="5" r="1" fill="srgba(0%,22.884%,69.0303%,1)"/>
  <circle cx="1" cy="5" r="1" fill="srgba(0%,22.8809%,69.0257%,1)"/>
  <circle cx="2" cy="5" r="1" fill="srgba(0%,22.5574%,68.925%,1)"/>
  <circle cx="3" cy="5" r="1" fill="srgba(6.36454%,27.6463%,70.5119%,1)"/>
  <circle cx="4" cy="5" r="1" fill="srgba(51.9799%,66.479%,71.0719%,1)"/>
  <circle cx="5" cy="5" r="1" fill="srgba(64.889%,76.6888%,61.6999%,1)"/>
  <circle cx="6" cy="5" r="1" fill="srgba(37.409%,56.733%,34.5876%,1)"/>
  <circle cx="7" cy="5" r="1" fill="srgba(29.9687%,45.4017%,28.4443%,1)"/>
  <circle cx="8" cy="5" r="1" fill="srgba(29.8131%,35.7046%,24.7135%,1)"/>
  <circle cx="9" cy="5" r="1" fill="srgba(39.1775%,42.1973%,29.8695%,1)"/>
  <circle cx="10" cy="5" r="1" fill="srgba(57.8912%,69.7353%,55.4208%,1)"/>
  <circle cx="11" cy="5" r="1" fill="srgba(49.9168%,64.8356%,69.1081%,1)"/>
  <circle cx="12" cy="5" r="1" fill="srgba(5.93881%,27.335%,70.2434%,1)"/>
  <circle cx="13" cy="5" r="1" fill="srgba(0%,22.6108%,69.0501%,1)"/>
  <circle cx="14" cy="5" r="1" fill="srgba(0%,22.9236%,69.1539%,1)"/>
  <circle cx="15" cy="5" r="1" fill="srgba(0.122072%,22.8962%,69.0455%,1)"/>
  <circle cx="0" cy="6" r="1" fill="srgba(0%,22.8275%,68.8624%,1)"/>
  <circle cx="1" cy="6" r="1" fill="srgba(0%,22.829%,68.8685%,1)"/>
  <circle cx="2" cy="6" r="1" fill="srgba(0%,21.9486%,68.8884%,1)"/>
  <circle cx="3" cy="6" r="1" fill="srgba(25.5512%,43.7018%,71.2474%,1)"/>
  <circle cx="4" cy="6" r="1" fill="srgba(58.5473%,74.3389%,59.5682%,1)"/>
  <circle cx="5" cy="6" r="1" fill="srgba(76.0189%,74.1009%,52.5444%,1)"/>
  <circle cx="6" cy="6" r="1" fill="srgba(47.895%,54.3709%,25.3727%,1)"/>
  <circle cx="7" cy="6" r="1" fill="srgba(33.547%,46.9505%,31.0842%,1)"/>
  <circle cx="8" cy="6" r="1" fill="srgba(34.7311%,38.3719%,23.1235%,1)"/>
  <circle cx="9" cy="6" r="1" fill="srgba(40.6806%,36.9818%,28.0201%,1)"/>
  <circle cx="10" cy="6" r="1" fill="srgba(48.1468%,43.4134%,37.6303%,1)"/>
  <circle cx="11" cy="6" r="1" fill="srgba(55.2667%,70.1411%,55.5169%,1)"/>
  <circle cx="12" cy="6" r="1" fill="srgba(24.3671%,42.4277%,69.8253%,1)"/>
  <circle cx="13" cy="6" r="1" fill="srgba(0%,21.7288%,68.1163%,1)"/>
  <circle cx="14" cy="6" r="1" fill="srgba(0%,22.5574%,68.0446%,1)"/>
  <circle cx="15" cy="6" r="1" fill="srgba(0.122072%,22.5895%,68.1209%,1)"/>
  <circle cx="0" cy="7" r="1" fill="srgba(0%,23.1556%,69.8619%,1)"/>
  <circle cx="1" cy="7" r="1" fill="srgba(0%,23.154%,69.8619%,1)"/>
  <circle cx="2" cy="7" r="1" fill="srgba(0%,22.7253%,70.2602%,1)"/>
  <circle cx="3" cy="7" r="1" fill="srgba(37.5357%,54.4137%,70.5074%,1)"/>
  <circle cx="4" cy="7" r="1" fill="srgba(71.9677%,82.9007%,70.7088%,1)"/>
  <circle cx="5" cy="7" r="1" fill="srgba(92.1294%,90.3044%,85.655%,1)"/>
  <circle cx="6" cy="7" r="1" fill="srgba(66.0456%,70.3822%,59.2584%,1)"/>
  <circle cx="7" cy="7" r="1" fill="srgba(73.1975%,75.4818%,66.3981%,1)"/>
  <circle cx="8" cy="7" r="1" fill="srgba(74.7219%,72.7977%,32.0623%,1)"/>
  <circle cx="9" cy="7" r="1" fill="srgba(71.6625%,67.1778%,46.1509%,1)"/>
  <circle cx="10" cy="7" r="1" fill="srgba(34.7463%,32.4514%,32.7184%,1)"/>
  <circle cx="11" cy="7" r="1" fill="srgba(34.6975%,42.2858%,33.3883%,1)"/>
  <circle cx="12" cy="7" r="1" fill="srgba(30.6355%,45.6977%,61.8631%,1)"/>
  <circle cx="13" cy="7" r="1" fill="srgba(0%,21.3306%,65.7649%,1)"/>
  <circle cx="14" cy="7" r="1" fill="srgba(0%,21.3291%,64.3946%,1)"/>
  <circle cx="15" cy="7" r="1" fill="srgba(0.11902%,20.9079%,63.0823%,1)"/>
  <circle cx="0" cy="8" r="1" fill="srgba(0,59,178,1)"/>
  <circle cx="1" cy="8" r="1" fill="srgba(0%,23.1357%,69.8039%,1)"/>
  <circle cx="2" cy="8" r="1" fill="srgba(0%,22.7115%,70.2327%,1)"/>
  <circle cx="3" cy="8" r="1" fill="srgba(37.1649%,54.3786%,70.0679%,1)"/>
  <circle cx="4" cy="8" r="1" fill="srgba(49.7642%,70.6416%,49.8039%,1)"/>
  <circle cx="5" cy="8" r="1" fill="srgba(71.7754%,80.7614%,68.922%,1)"/>
  <circle cx="6" cy="8" r="1" fill="srgba(55.021%,70.9483%,57.8408%,1)"/>
  <circle cx="7" cy="8" r="1" fill="srgba(44.654%,72.5963%,70.7149%,1)"/>
  <circle cx="8" cy="8" r="1" fill="srgba(47.0237%,76.0967%,59.0555%,1)"/>
  <circle cx="9" cy="8" r="1" fill="srgba(58.5611%,66.1662%,51.1711%,1)"/>
  <circle cx="10" cy="8" r="1" fill="srgba(48.2048%,48.1987%,50.3227%,1)"/>
  <circle cx="11" cy="8" r="1" fill="srgba(6.50187%,7.00694%,6.39658%,1)"/>
  <circle cx="12" cy="8" r="1" fill="srgba(7.78973%,13.7835%,23.7629%,1)"/>
  <circle cx="13" cy="8" r="1" fill="srgba(0.11902%,19.0936%,57.1588%,1)"/>
  <circle cx="14" cy="8" r="1" fill="srgba(0%,22.6596%,67.248%,1)"/>
  <circle cx="15" cy="8" r="1" fill="srgba(0.120546%,21.4832%,64.8585%,1)"/>
  <circle cx="0" cy="9" r="1" fill="srgba(0,59,178,1)"/>
  <circle cx="1" cy="9" r="1" fill="srgba(0,59,178,1)"/>
  <circle cx="2" cy="9" r="1" fill="srgba(0%,22.2431%,69.8039%,1)"/>
  <circle cx="3" cy="9" r="1" fill="srgba(25.1484%,43.8132%,71.5343%,1)"/>
  <circle cx="4" cy="9" r="1" fill="srgba(28.2689%,57.2412%,32.2423%,1)"/>
  <circle cx="5" cy="9" r="1" fill="srgba(36.2371%,60.9812%,39.3393%,1)"/>
  <circle cx="6" cy="9" r="1" fill="srgba(22.0371%,49.1142%,29.1859%,1)"/>
  <circle cx="7" cy="9" r="1" fill="srgba(6.92607%,29.6513%,22.4674%,1)"/>
  <circle cx="8" cy="9" r="1" fill="srgba(5.29335%,34.107%,31.5541%,1)"/>
  <circle cx="9" cy="9" r="1" fill="srgba(9.76425%,31.7296%,20.734%,1)"/>
  <circle cx="10" cy="9" r="1" fill="srgba(34.8043%,42.8641%,41.0956%,1)"/>
  <circle cx="11" cy="9" r="1" fill="srgba(12.9824%,17.7584%,15.7687%,1)"/>
  <circle cx="12" cy="9" r="1" fill="black"/>
  <circle cx="13" cy="9" r="1" fill="srgba(0%,3.5996%,9.71084%,1)"/>
  <circle cx="14" cy="9" r="1" fill="srgba(0%,14.9142%,39.3103%,1)"/>
  <circle cx="15" cy="9" r="1" fill="srgba(0.102235%,21.1475%,54.9065%,1)"/>
  <circle cx="0" cy="10" r="1" fill="srgba(0,59,178,1)"/>
  <circle cx="1" cy="10" r="1" fill="srgba(0,59,178,1)"/>
  <circle cx="2" cy="10" r="1" fill="srgba(0%,22.8473%,69.7993%,1)"/>
  <circle cx="3" cy="10" r="1" fill="srgba(4.89052%,27.2374%,69.2256%,1)"/>
  <circle cx="4" cy="10" r="1" fill="srgba(18.6984%,48.2322%,33.3745%,1)"/>
  <circle cx="5" cy="10" r="1" fill="srgba(53.7087%,73.0541%,52.3247%,1)"/>
  <circle cx="6" cy="10" r="1" fill="srgba(47.4388%,70.3716%,59.8901%,1)"/>
  <circle cx="7" cy="10" r="1" fill="srgba(19.234%,26.6835%,23.3051%,1)"/>
  <circle cx="8" cy="10" r="1" fill="srgba(11.8883%,15.5261%,11.5358%,1)"/>
  <circle cx="9" cy="10" r="1" fill="srgba(13.5195%,20.7034%,14.9294%,1)"/>
  <circle cx="10" cy="10" r="1" fill="srgba(13.3989%,19.443%,13.1624%,1)"/>
  <circle cx="11" cy="10" r="1" fill="srgba(8.72206%,14.0124%,14.7631%,1)"/>
  <circle cx="12" cy="10" r="1" fill="srgba(0%,0.437934%,2.15915%,1)"/>
  <circle cx="13" cy="10" r="1" fill="black"/>
  <circle cx="14" cy="10" r="1" fill="srgba(0%,1.03456%,2.05081%,1)"/>
  <circle cx="15" cy="10" r="1" fill="srgba(0.0167849%,4.88746%,6.43168%,1)"/>
  <circle cx="0" cy="11" r="1" fill="srgba(0,59,178,1)"/>
  <circle cx="1" cy="11" r="1" fill="srgba(0,59,178,1)"/>
  <circle cx="2" cy="11" r="1" fill="srgba(0%,23.1342%,69.8558%,1)"/>
  <circle cx="3" cy="11" r="1" fill="srgba(0%,22.9511%,67.7485%,1)"/>
  <circle cx="4" cy="11" r="1" fill="srgba(12.0333%,39.0173%,47.5715%,1)"/>
  <circle cx="5" cy="11" r="1" fill="srgba(50.9468%,66.5675%,68.1682%,1)"/>
  <circle cx="6" cy="11" r="1" fill="srgba(33.5851%,54.6365%,36.701%,1)"/>
  <circle cx="7" cy="11" r="1" fill="srgba(3.31731%,8.36652%,3.8056%,1)"/>
  <circle cx="8" cy="11" r="1" fill="srgba(1.38705%,1.25429%,1.33211%,1)"/>
  <circle cx="9" cy="11" r="1" fill="srgba(12.6986%,17.1283%,13.4768%,1)"/>
  <circle cx="10" cy="11" r="1" fill="srgba(18.7945%,24.9638%,28.2719%,1)"/>
  <circle cx="11" cy="11" r="1" fill="srgba(7.61425%,12.4895%,21.0849%,1)"/>
  <circle cx="12" cy="11" r="1" fill="srgba(0%,0.68513%,2.69627%,1)"/>
  <circle cx="13" cy="11" r="1" fill="black"/>
  <circle cx="14" cy="11" r="1" fill="black"/>
  <circle cx="15" cy="11" r="1" fill="srgba(0%,0%,0.00915541%,1)"/>
  <circle cx="0" cy="12" r="1" fill="srgba(0%,23.5279%,70.9819%,1)"/>
  <circle cx="1" cy="12" r="1" fill="srgba(0%,23.5279%,70.9819%,1)"/>
  <circle cx="2" cy="12" r="1" fill="srgba(0%,23.5203%,71.0124%,1)"/>
  <circle cx="3" cy="12" r="1" fill="srgba(0%,23.9246%,69.4926%,1)"/>
  <circle cx="4" cy="12" r="1" fill="srgba(0%,29.0059%,48.4184%,1)"/>
  <circle cx="5" cy="12" r="1" fill="srgba(4.91798%,29.3645%,65.3788%,1)"/>
  <circle cx="6" cy="12" r="1" fill="srgba(13.8537%,37.293%,38.584%,1)"/>
  <circle cx="7" cy="12" r="1" fill="srgba(1.49996%,7.45403%,3.09911%,1)"/>
  <circle cx="8" cy="12" r="1" fill="black"/>
  <circle cx="9" cy="12" r="1" fill="srgba(0.776684%,0.968948%,1.25124%,1)"/>
  <circle cx="10" cy="12" r="1" fill="srgba(2.05386%,13.55%,37.705%,1)"/>
  <circle cx="11" cy="12" r="1" fill="srgba(0.0366217%,13.0892%,40.3418%,1)"/>
  <circle cx="12" cy="12" r="1" fill="srgba(0%,4.57771%,13.7835%,1)"/>
  <circle cx="13" cy="12" r="1" fill="srgba(0%,0.509651%,1.53964%,1)"/>
  <circle cx="14" cy="12" r="1" fill="black"/>
  <circle cx="15" cy="12" r="1" fill="black"/>
  <circle cx="0" cy="13" r="1" fill="srgba(24.6128%,15.8022%,47.6768%,1)"/>
  <circle cx="1" cy="13" r="1" fill="srgba(24.6128%,15.8022%,47.6768%,1)"/>
  <circle cx="2" cy="13" r="1" fill="srgba(24.622%,15.7977%,47.6875%,1)"/>
  <circle cx="3" cy="13" r="1" fill="srgba(24.4617%,16.1654%,46.9062%,1)"/>
  <circle cx="4" cy="13" r="1" fill="srgba(19.823%,22.0691%,34.844%,1)"/>
  <circle cx="5" cy="13" r="1" fill="srgba(21.3794%,19.1119%,41.503%,1)"/>
  <circle cx="6" cy="13" r="1" fill="srgba(11.0277%,23.2898%,21.5824%,1)"/>
  <circle cx="7" cy="13" r="1" fill="srgba(1.59457%,5.66873%,2.09354%,1)"/>
  <circle cx="8" cy="13" r="1" fill="black"/>
  <circle cx="9" cy="13" r="1" fill="black"/>
  <circle cx="10" cy="13" r="1" fill="srgba(1.44198%,4.7776%,14.6136%,1)"/>
  <circle cx="11" cy="13" r="1" fill="srgba(17.3663%,15.2316%,45.9648%,1)"/>
  <circle cx="12" cy="13" r="1" fill="srgba(22.5772%,13.4005%,40.4349%,1)"/>
  <circle cx="13" cy="13" r="1" fill="srgba(12.7276%,4.0238%,12.1416%,1)"/>
  <circle cx="14" cy="13" r="1" fill="black"/>
  <circle cx="15" cy="13" r="1" fill="black"/>
  <circle cx="0" cy="14" r="1" fill="srgba(76.6567%,0.302129%,0.924697%,1)"/>
  <circle cx="1" cy="14" r="1" fill="srgba(77.1344%,0.308232%,0.929274%,1)"/>
  <circle cx="2" cy="14" r="1" fill="srgba(76.7483%,0.306706%,0.929274%,1)"/>
  <circle cx="3" cy="14" r="1" fill="srgba(73.3165%,0.582895%,0.920119%,1)"/>
  <circle cx="4" cy="14" r="1" fill="srgba(59.176%,5.43526%,0.755322%,1)"/>
  <circle cx="5" cy="14" r="1" fill="srgba(53.3364%,5.37728%,0.798047%,1)"/>
  <circle cx="6" cy="14" r="1" fill="srgba(26.7384%,12.6604%,0.424201%,1)"/>
  <circle cx="7" cy="14" r="1" fill="srgba(5.23079%,2.93889%,0.0488289%,1)"/>
  <circle cx="8" cy="14" r="1" fill="black"/>
  <circle cx="9" cy="14" r="1" fill="black"/>
  <circle cx="10" cy="14" r="1" fill="srgba(3.66979%,0.0289921%,0.0900282%,1)"/>
  <circle cx="11" cy="14" r="1" fill="srgba(19.5071%,0.263981%,0.794995%,1)"/>
  <circle cx="12" cy="14" r="1" fill="srgba(20.0229%,0.440986%,1.33059%,1)"/>
  <circle cx="13" cy="14" r="1" fill="srgba(12.0943%,0.271611%,0.819409%,1)"/>
  <circle cx="14" cy="14" r="1" fill="srgba(0.0701915%,0%,0%,1)"/>
  <circle cx="15" cy="14" r="1" fill="black"/>
  <circle cx="0" cy="15" r="1" fill="srgba(77.0703%,0.0854505%,0.047303%,1)"/>
  <circle cx="1" cy="15" r="1" fill="srgba(64.1474%,0.00762951%,0.00457771%,1)"/>
  <circle cx="2" cy="15" r="1" fill="srgba(42.121%,0%,0%,1)"/>
  <circle cx="3" cy="15" r="1" fill="srgba(24.7822%,0.015259%,0%,1)"/>
  <circle cx="4" cy="15" r="1" fill="srgba(13.1945%,0.291447%,0.0015259%,1)"/>
  <circle cx="5" cy="15" r="1" fill="srgba(6.30961%,0.440986%,0%,1)"/>
  <circle cx="6" cy="15" r="1" fill="srgba(2.13779%,0.788891%,0.0015259%,1)"/>
  <circle cx="7" cy="15" r="1" fill="srgba(0.52491%,0.0747692%,0.00457771%,1)"/>
  <circle cx="8" cy="15" r="1" fill="srgba(0%,0%,0.0015259%,1)"/>
  <circle cx="9" cy="15" r="1" fill="black"/>
  <circle cx="10" cy="15" r="1" fill="srgba(0.0030518%,0%,0%,1)"/>
  <circle cx="11" cy="15" r="1" fill="black"/>
  <circle cx="12" cy="15" r="1" fill="black"/>
  <circle cx="13" cy="15" r="1" fill="srgba(0.0015259%,0%,0%,1)"/>
  <circle cx="14" cy="15" r="1" fill="srgba(0.00457771%,0%,0%,1)"/>
  <circle cx="15" cy="15" r="1" fill="black"/>
</svg>
