<?xml version="1.0" standalone="no"?>
<!DOCTYPE svg PUBLIC "-//W3C//DTD SVG 20010904//EN"
  "http://www.w3.org/TR/2001/REC-SVG-20010904/DTD/svg10.dtd">
<svg width="16" height="16">
  <circle cx="0" cy="0" r="1" fill="srgba(191,10,48,1)"/>
  <circle cx="1" cy="0" r="1" fill="srgba(74.5144%,2.43839%,17.5708%,1)"/>
  <circle cx="2" cy="0" r="1" fill="srgba(86.656%,48.925%,56.8551%,1)"/>
  <circle cx="3" cy="0" r="1" fill="white"/>
  <circle cx="4" cy="0" r="1" fill="white"/>
  <circle cx="5" cy="0" r="1" fill="white"/>
  <circle cx="6" cy="0" r="1" fill="white"/>
  <circle cx="7" cy="0" r="1" fill="white"/>
  <circle cx="8" cy="0" r="1" fill="white"/>
  <circle cx="9" cy="0" r="1" fill="white"/>
  <circle cx="10" cy="0" r="1" fill="white"/>
  <circle cx="11" cy="0" r="1" fill="white"/>
  <circle cx="12" cy="0" r="1" fill="white"/>
  <circle cx="13" cy="0" r="1" fill="srgba(94.7692%,79.968%,83.0732%,1)"/>
  <circle cx="14" cy="0" r="1" fill="srgba(76.289%,9.22408%,23.3021%,1)"/>
  <circle cx="15" cy="0" r="1" fill="srgba(74.8943%,3.888%,18.7945%,1)"/>
  <circle cx="0" cy="1" r="1" fill="srgba(191,10,48,1)"/>
  <circle cx="1" cy="1" r="1" fill="srgba(74.5144%,2.43839%,17.5708%,1)"/>
  <circle cx="2" cy="1" r="1" fill="srgba(86.656%,48.925%,56.8551%,1)"/>
  <circle cx="3" cy="1" r="1" fill="white"/>
  <circle cx="4" cy="1" r="1" fill="white"/>
  <circle cx="5" cy="1" r="1" fill="white"/>
  <circle cx="6" cy="1" r="1" fill="white"/>
  <circle cx="7" cy="1" r="1" fill="white"/>
  <circle cx="8" cy="1" r="1" fill="white"/>
  <circle cx="9" cy="1" r="1" fill="white"/>
  <circle cx="10" cy="1" r="1" fill="white"/>
  <circle cx="11" cy="1" r="1" fill="white"/>
  <circle cx="12" cy="1" r="1" fill="white"/>
  <circle cx="13" cy="1" r="1" fill="srgba(94.7692%,79.968%,83.0732%,1)"/>
  <circle cx="14" cy="1" r="1" fill="srgba(76.289%,9.22408%,23.3021%,1)"/>
  <circle cx="15" cy="1" r="1" fill="srgba(74.8943%,3.888%,18.7945%,1)"/>
  <circle cx="0" cy="2" r="1" fill="srgba(191,10,48,1)"/>
  <circle cx="1" cy="2" r="1" fill="srgba(74.5144%,2.43839%,17.5708%,1)"/>
  <circle cx="2" cy="2" r="1" fill="srgba(86.656%,48.925%,56.8551%,1)"/>
  <circle cx="3" cy="2" r="1" fill="white"/>
  <circle cx="4" cy="2" r="1" fill="white"/>
  <circle cx="5" cy="2" r="1" fill="white"/>
  <circle cx="6" cy="2" r="1" fill="white"/>
  <circle cx="7" cy="2" r="1" fill="srgba(99.9512%,99.8123%,99.8413%,1)"/>
  <circle cx="8" cy="2" r="1" fill="srgba(99.942%,99.7757%,99.8093%,1)"/>
  <circle cx="9" cy="2" r="1" fill="white"/>
  <circle cx="10" cy="2" r="1" fill="white"/>
  <circle cx="11" cy="2" r="1" fill="white"/>
  <circle cx="12" cy="2" r="1" fill="white"/>
  <circle cx="13" cy="2" r="1" fill="srgba(94.7692%,79.968%,83.0732%,1)"/>
  <circle cx="14" cy="2" r="1" fill="srgba(76.289%,9.22408%,23.3021%,1)"/>
  <circle cx="15" cy="2" r="1" fill="srgba(74.8943%,3.888%,18.7945%,1)"/>
  <circle cx="0" cy="3" r="1" fill="srgba(191,10,48,1)"/>
  <circle cx="1" cy="3" r="1" fill="srgba(74.5144%,2.43839%,17.5708%,1)"/>
  <circle cx="2" cy="3" r="1" fill="srgba(86.656%,48.925%,56.8551%,1)"/>
  <circle cx="3" cy="3" r="1" fill="white"/>
  <circle cx="4" cy="3" r="1" fill="white"/>
  <circle cx="5" cy="3" r="1" fill="srgba(100%,99.9985%,99.9985%,1)"/>
  <circle cx="6" cy="3" r="1" fill="white"/>
  <circle cx="7" cy="3" r="1" fill="srgba(95.4467%,82.5681%,85.2705%,1)"/>
  <circle cx="8" cy="3" r="1" fill="srgba(94.6151%,79.3835%,82.5788%,1)"/>
  <circle cx="9" cy="3" r="1" fill="white"/>
  <circle cx="10" cy="3" r="1" fill="srgba(99.9908%,99.9664%,99.971%,1)"/>
  <circle cx="11" cy="3" r="1" fill="white"/>
  <circle cx="12" cy="3" r="1" fill="white"/>
  <circle cx="13" cy="3" r="1" fill="srgba(94.7692%,79.968%,83.0732%,1)"/>
  <circle cx="14" cy="3" r="1" fill="srgba(76.289%,9.22408%,23.3021%,1)"/>
  <circle cx="15" cy="3" r="1" fill="srgba(74.8943%,3.888%,18.7945%,1)"/>
  <circle cx="0" cy="4" r="1" fill="srgba(191,10,48,1)"/>
  <circle cx="1" cy="4" r="1" fill="srgba(74.5144%,2.43839%,17.5708%,1)"/>
  <circle cx="2" cy="4" r="1" fill="srgba(86.656%,48.925%,56.8551%,1)"/>
  <circle cx="3" cy="4" r="1" fill="white"/>
  <circle cx="4" cy="4" r="1" fill="white"/>
  <circle cx="5" cy="4" r="1" fill="srgba(99.8947%,99.5972%,99.6597%,1)"/>
  <circle cx="6" cy="4" r="1" fill="srgba(99.1073%,96.582%,97.1115%,1)"/>
  <circle cx="7" cy="4" r="1" fill="srgba(85.0904%,42.9252%,51.7769%,1)"/>
  <circle cx="8" cy="4" r="1" fill="srgba(82.1729%,31.7525%,42.3377%,1)"/>
  <circle cx="9" cy="4" r="1" fill="srgba(93.3318%,74.4762%,78.4344%,1)"/>
  <circle cx="10" cy="4" r="1" fill="srgba(99.7086%,98.8861%,99.06%,1)"/>
  <circle cx="11" cy="4" r="1" fill="white"/>
  <circle cx="12" cy="4" r="1" fill="white"/>
  <circle cx="13" cy="4" r="1" fill="srgba(94.7692%,79.968%,83.0732%,1)"/>
  <circle cx="14" cy="4" r="1" fill="srgba(76.289%,9.22408%,23.3021%,1)"/>
  <circle cx="15" cy="4" r="1" fill="srgba(74.8943%,3.888%,18.7945%,1)"/>
  <circle cx="0" cy="5" r="1" fill="srgba(191,10,48,1)"/>
  <circle cx="1" cy="5" r="1" fill="srgba(74.5144%,2.43839%,17.5708%,1)"/>
  <circle cx="2" cy="5" r="1" fill="srgba(86.6682%,48.9693%,56.8917%,1)"/>
  <circle cx="3" cy="5" r="1" fill="white"/>
  <circle cx="4" cy="5" r="1" fill="srgba(99.5132%,98.1384%,98.4268%,1)"/>
  <circle cx="5" cy="5" r="1" fill="srgba(97.525%,90.5257%,91.9951%,1)"/>
  <circle cx="6" cy="5" r="1" fill="srgba(94.8379%,80.2411%,83.3066%,1)"/>
  <circle cx="7" cy="5" r="1" fill="srgba(80.8545%,26.7109%,38.0789%,1)"/>
  <circle cx="8" cy="5" r="1" fill="srgba(76.4828%,9.97787%,23.9414%,1)"/>
  <circle cx="9" cy="5" r="1" fill="srgba(87.7714%,53.196%,60.4532%,1)"/>
  <circle cx="10" cy="5" r="1" fill="srgba(98.0392%,92.4926%,93.6568%,1)"/>
  <circle cx="11" cy="5" r="1" fill="srgba(99.4903%,98.0514%,98.3536%,1)"/>
  <circle cx="12" cy="5" r="1" fill="white"/>
  <circle cx="13" cy="5" r="1" fill="srgba(94.7829%,80.0198%,83.1174%,1)"/>
  <circle cx="14" cy="5" r="1" fill="srgba(76.289%,9.22408%,23.3021%,1)"/>
  <circle cx="15" cy="5" r="1" fill="srgba(74.8943%,3.888%,18.7945%,1)"/>
  <circle cx="0" cy="6" r="1" fill="srgba(191,10,48,1)"/>
  <circle cx="1" cy="6" r="1" fill="srgba(74.5144%,2.43839%,17.5708%,1)"/>
  <circle cx="2" cy="6" r="1" fill="srgba(86.7445%,49.2622%,57.1405%,1)"/>
  <circle cx="3" cy="6" r="1" fill="srgba(98.8785%,95.7061%,96.3729%,1)"/>
  <circle cx="4" cy="6" r="1" fill="srgba(86.3478%,47.7379%,55.8419%,1)"/>
  <circle cx="5" cy="6" r="1" fill="srgba(80.3738%,24.8692%,36.5225%,1)"/>
  <circle cx="6" cy="6" r="1" fill="srgba(87.3426%,51.5541%,59.0692%,1)"/>
  <circle cx="7" cy="6" r="1" fill="srgba(80.4654%,25.2186%,36.8185%,1)"/>
  <circle cx="8" cy="6" r="1" fill="srgba(76.4034%,9.66964%,23.679%,1)"/>
  <circle cx="9" cy="6" r="1" fill="srgba(85.626%,44.9744%,53.5088%,1)"/>
  <circle cx="10" cy="6" r="1" fill="srgba(81.2055%,28.0537%,39.2126%,1)"/>
  <circle cx="11" cy="6" r="1" fill="srgba(85.0294%,42.6947%,51.5831%,1)"/>
  <circle cx="12" cy="6" r="1" fill="srgba(97.8714%,91.8532%,93.1151%,1)"/>
  <circle cx="13" cy="6" r="1" fill="srgba(94.9264%,80.5631%,83.5767%,1)"/>
  <circle cx="14" cy="6" r="1" fill="srgba(76.289%,9.22408%,23.3021%,1)"/>
  <circle cx="15" cy="6" r="1" fill="srgba(74.8943%,3.888%,18.7945%,1)"/>
  <circle cx="0" cy="7" r="1" fill="srgba(191,10,48,1)"/>
  <circle cx="1" cy="7" r="1" fill="srgba(74.5144%,2.43839%,17.5708%,1)"/>
  <circle cx="2" cy="7" r="1" fill="srgba(86.7399%,49.2439%,57.1237%,1)"/>
  <circle cx="3" cy="7" r="1" fill="srgba(98.9654%,96.0418%,96.6552%,1)"/>
  <circle cx="4" cy="7" r="1" fill="srgba(80.7126%,26.1662%,37.6165%,1)"/>
  <circle cx="5" cy="7" r="1" fill="srgba(74.049%,0.656138%,16.0647%,1)"/>
  <circle cx="6" cy="7" r="1" fill="srgba(87.3548%,51.5938%,59.1012%,1)"/>
  <circle cx="7" cy="7" r="1" fill="srgba(80.9705%,27.1519%,38.4497%,1)"/>
  <circle cx="8" cy="7" r="1" fill="srgba(75.2804%,5.36965%,20.0473%,1)"/>
  <circle cx="9" cy="7" r="1" fill="srgba(77.9675%,15.6542%,28.7358%,1)"/>
  <circle cx="10" cy="7" r="1" fill="srgba(74.3404%,1.77005%,17.0062%,1)"/>
  <circle cx="11" cy="7" r="1" fill="srgba(78.352%,17.1298%,29.984%,1)"/>
  <circle cx="12" cy="7" r="1" fill="srgba(97.7234%,91.2856%,92.6375%,1)"/>
  <circle cx="13" cy="7" r="1" fill="srgba(94.9294%,80.5783%,83.5889%,1)"/>
  <circle cx="14" cy="7" r="1" fill="srgba(76.289%,9.22408%,23.3021%,1)"/>
  <circle cx="15" cy="7" r="1" fill="srgba(74.8943%,3.888%,18.7945%,1)"/>
  <circle cx="0" cy="8" r="1" fill="srgba(191,10,48,1)"/>
  <circle cx="1" cy="8" r="1" fill="srgba(74.5144%,2.43839%,17.5708%,1)"/>
  <circle cx="2" cy="8" r="1" fill="srgba(86.7109%,49.1325%,57.0291%,1)"/>
  <circle cx="3" cy="8" r="1" fill="srgba(99.5941%,98.4451%,98.6877%,1)"/>
  <circle cx="4" cy="8" r="1" fill="srgba(87.6478%,52.7153%,60.0488%,1)"/>
  <circle cx="5" cy="8" r="1" fill="srgba(75.6359%,6.73228%,21.1978%,1)"/>
  <circle cx="6" cy="8" r="1" fill="srgba(87.1305%,50.7332%,58.3734%,1)"/>
  <circle cx="7" cy="8" r="1" fill="srgba(80.8835%,26.8162%,38.1674%,1)"/>
  <circle cx="8" cy="8" r="1" fill="srgba(74.5785%,2.68559%,17.7798%,1)"/>
  <circle cx="9" cy="8" r="1" fill="srgba(75.1339%,4.80812%,19.5727%,1)"/>
  <circle cx="10" cy="8" r="1" fill="srgba(75.7107%,7.01305%,21.4359%,1)"/>
  <circle cx="11" cy="8" r="1" fill="srgba(86.5431%,48.4794%,56.4721%,1)"/>
  <circle cx="12" cy="8" r="1" fill="srgba(99.1867%,96.8887%,97.3724%,1)"/>
  <circle cx="13" cy="8" r="1" fill="srgba(94.8486%,80.267%,83.3265%,1)"/>
  <circle cx="14" cy="8" r="1" fill="srgba(76.289%,9.22408%,23.3021%,1)"/>
  <circle cx="15" cy="8" r="1" fill="srgba(74.8943%,3.888%,18.7945%,1)"/>
  <circle cx="0" cy="9" r="1" fill="srgba(191,10,48,1)"/>
  <circle cx="1" cy="9" r="1" fill="srgba(74.5144%,2.43839%,17.5708%,1)"/>
  <circle cx="2" cy="9" r="1" fill="srgba(86.656%,48.925%,56.8551%,1)"/>
  <circle cx="3" cy="9" r="1" fill="white"/>
  <circle cx="4" cy="9" r="1" fill="srgba(99.5254%,98.1811%,98.4634%,1)"/>
  <circle cx="5" cy="9" r="1" fill="srgba(88.1346%,54.5785%,61.6236%,1)"/>
  <circle cx="6" cy="9" r="1" fill="srgba(86.807%,49.4926%,57.3281%,1)"/>
  <circle cx="7" cy="9" r="1" fill="srgba(80.9567%,27.097%,38.4054%,1)"/>
  <circle cx="8" cy="9" r="1" fill="srgba(74.8257%,3.62707%,18.5748%,1)"/>
  <circle cx="9" cy="9" r="1" fill="srgba(74.9432%,4.07874%,18.9563%,1)"/>
  <circle cx="10" cy="9" r="1" fill="srgba(87.5639%,52.3888%,59.7742%,1)"/>
  <circle cx="11" cy="9" r="1" fill="srgba(99.4156%,97.76%,98.1079%,1)"/>
  <circle cx="12" cy="9" r="1" fill="white"/>
  <circle cx="13" cy="9" r="1" fill="srgba(94.7692%,79.968%,83.0732%,1)"/>
  <circle cx="14" cy="9" r="1" fill="srgba(76.289%,9.22408%,23.3021%,1)"/>
  <circle cx="15" cy="9" r="1" fill="srgba(74.8943%,3.888%,18.7945%,1)"/>
  <circle cx="0" cy="10" r="1" fill="srgba(191,10,48,1)"/>
  <circle cx="1" cy="10" r="1" fill="srgba(74.5144%,2.43839%,17.5708%,1)"/>
  <circle cx="2" cy="10" r="1" fill="srgba(86.656%,48.925%,56.8551%,1)"/>
  <circle cx="3" cy="10" r="1" fill="white"/>
  <circle cx="4" cy="10" r="1" fill="white"/>
  <circle cx="5" cy="10" r="1" fill="srgba(97.1817%,89.2134%,90.8858%,1)"/>
  <circle cx="6" cy="10" r="1" fill="srgba(87.9713%,53.9498%,61.0925%,1)"/>
  <circle cx="7" cy="10" r="1" fill="srgba(87.5837%,52.4712%,59.8428%,1)"/>
  <circle cx="8" cy="10" r="1" fill="srgba(88.8319%,57.2473%,63.8773%,1)"/>
  <circle cx="9" cy="10" r="1" fill="srgba(90.1381%,62.2477%,68.1041%,1)"/>
  <circle cx="10" cy="10" r="1" fill="srgba(96.4614%,86.453%,88.5542%,1)"/>
  <circle cx="11" cy="10" r="1" fill="white"/>
  <circle cx="12" cy="10" r="1" fill="white"/>
  <circle cx="13" cy="10" r="1" fill="srgba(94.7692%,79.968%,83.0732%,1)"/>
  <circle cx="14" cy="10" r="1" fill="srgba(76.289%,9.22408%,23.3021%,1)"/>
  <circle cx="15" cy="10" r="1" fill="srgba(74.8943%,3.888%,18.7945%,1)"/>
  <circle cx="0" cy="11" r="1" fill="srgba(191,10,48,1)"/>
  <circle cx="1" cy="11" r="1" fill="srgba(74.5144%,2.43839%,17.5708%,1)"/>
  <circle cx="2" cy="11" r="1" fill="srgba(86.656%,48.925%,56.8551%,1)"/>
  <circle cx="3" cy="11" r="1" fill="white"/>
  <circle cx="4" cy="11" r="1" fill="white"/>
  <circle cx="5" cy="11" r="1" fill="white"/>
  <circle cx="6" cy="11" r="1" fill="srgba(89.9611%,61.5656%,67.5273%,1)"/>
  <circle cx="7" cy="11" r="1" fill="srgba(89.453%,59.6262%,65.8885%,1)"/>
  <circle cx="8" cy="11" r="1" fill="srgba(94.7356%,79.8459%,82.9709%,1)"/>
  <circle cx="9" cy="11" r="1" fill="white"/>
  <circle cx="10" cy="11" r="1" fill="srgba(99.9939%,99.9756%,99.9802%,1)"/>
  <circle cx="11" cy="11" r="1" fill="white"/>
  <circle cx="12" cy="11" r="1" fill="white"/>
  <circle cx="13" cy="11" r="1" fill="srgba(94.7692%,79.968%,83.0732%,1)"/>
  <circle cx="14" cy="11" r="1" fill="srgba(76.289%,9.22408%,23.3021%,1)"/>
  <circle cx="15" cy="11" r="1" fill="srgba(74.8943%,3.888%,18.7945%,1)"/>
  <circle cx="0" cy="12" r="1" fill="srgba(191,10,48,1)"/>
  <circle cx="1" cy="12" r="1" fill="srgba(74.5144%,2.43839%,17.5708%,1)"/>
  <circle cx="2" cy="12" r="1" fill="srgba(86.656%,48.925%,56.8551%,1)"/>
  <circle cx="3" cy="12" r="1" fill="white"/>
  <circle cx="4" cy="12" r="1" fill="white"/>
  <circle cx="5" cy="12" r="1" fill="white"/>
  <circle cx="6" cy="12" r="1" fill="srgba(90.7118%,64.445%,69.9596%,1)"/>
  <circle cx="7" cy="12" r="1" fill="srgba(92.1019%,69.7627%,74.4533%,1)"/>
  <circle cx="8" cy="12" r="1" fill="srgba(97.3892%,90.0069%,91.5557%,1)"/>
  <circle cx="9" cy="12" r="1" fill="white"/>
  <circle cx="10" cy="12" r="1" fill="white"/>
  <circle cx="11" cy="12" r="1" fill="white"/>
  <circle cx="12" cy="12" r="1" fill="white"/>
  <circle cx="13" cy="12" r="1" fill="srgba(94.7692%,79.968%,83.0732%,1)"/>
  <circle cx="14" cy="12" r="1" fill="srgba(76.289%,9.22408%,23.3021%,1)"/>
  <circle cx="15" cy="12" r="1" fill="srgba(74.8943%,3.888%,18.7945%,1)"/>
  <circle cx="0" cy="13" r="1" fill="srgba(191,10,48,1)"/>
  <circle cx="1" cy="13" r="1" fill="srgba(74.5144%,2.43839%,17.5708%,1)"/>
  <circle cx="2" cy="13" r="1" fill="srgba(86.656%,48.925%,56.8551%,1)"/>
  <circle cx="3" cy="13" r="1" fill="white"/>
  <circle cx="4" cy="13" r="1" fill="white"/>
  <circle cx="5" cy="13" r="1" fill="white"/>
  <circle cx="6" cy="13" r="1" fill="srgba(91.2596%,66.5385%,71.7281%,1)"/>
  <circle cx="7" cy="13" r="1" fill="srgba(94.7921%,80.0626%,83.154%,1)"/>
  <circle cx="8" cy="13" r="1" fill="white"/>
  <circle cx="9" cy="13" r="1" fill="white"/>
  <circle cx="10" cy="13" r="1" fill="white"/>
  <circle cx="11" cy="13" r="1" fill="white"/>
  <circle cx="12" cy="13" r="1" fill="white"/>
  <circle cx="13" cy="13" r="1" fill="srgba(94.7692%,79.968%,83.0732%,1)"/>
  <circle cx="14" cy="13" r="1" fill="srgba(76.289%,9.22408%,23.3021%,1)"/>
  <circle cx="15" cy="13" r="1" fill="srgba(74.8943%,3.888%,18.7945%,1)"/>
  <circle cx="0" cy="14" r="1" fill="srgba(191,10,48,1)"/>
  <circle cx="1" cy="14" r="1" fill="srgba(74.5144%,2.43839%,17.5708%,1)"/>
  <circle cx="2" cy="14" r="1" fill="srgba(86.656%,48.925%,56.8551%,1)"/>
  <circle cx="3" cy="14" r="1" fill="white"/>
  <circle cx="4" cy="14" r="1" fill="white"/>
  <circle cx="5" cy="14" r="1" fill="white"/>
  <circle cx="6" cy="14" r="1" fill="srgba(91.9585%,69.2149%,73.991%,1)"/>
  <circle cx="7" cy="14" r="1" fill="srgba(94.9752%,80.7675%,83.7507%,1)"/>
  <circle cx="8" cy="14" r="1" fill="white"/>
  <circle cx="9" cy="14" r="1" fill="white"/>
  <circle cx="10" cy="14" r="1" fill="white"/>
  <circle cx="11" cy="14" r="1" fill="white"/>
  <circle cx="12" cy="14" r="1" fill="white"/>
  <circle cx="13" cy="14" r="1" fill="srgba(94.7692%,79.968%,83.0732%,1)"/>
  <circle cx="14" cy="14" r="1" fill="srgba(76.289%,9.22408%,23.3021%,1)"/>
  <circle cx="15" cy="14" r="1" fill="srgba(74.8943%,3.888%,18.7945%,1)"/>
  <circle cx="0" cy="15" r="1" fill="srgba(191,10,48,1)"/>
  <circle cx="1" cy="15" r="1" fill="srgba(74.5144%,2.43839%,17.5708%,1)"/>
  <circle cx="2" cy="15" r="1" fill="srgba(86.656%,48.925%,56.8551%,1)"/>
  <circle cx="3" cy="15" r="1" fill="white"/>
  <circle cx="4" cy="15" r="1" fill="white"/>
  <circle cx="5" cy="15" r="1" fill="white"/>
  <circle cx="6" cy="15" r="1" fill="srgba(92.5734%,71.5709%,75.9808%,1)"/>
  <circle cx="7" cy="15" r="1" fill="srgba(95.1507%,81.4405%,84.3198%,1)"/>
  <circle cx="8" cy="15" r="1" fill="white"/>
  <circle cx="9" cy="15" r="1" fill="white"/>
  <circle cx="10" cy="15" r="1" fill="white"/>
  <circle cx="11" cy="15" r="1" fill="white"/>
  <circle cx="12" cy="15" r="1" fill="white"/>
  <circle cx="13" cy="15" r="1" fill="srgba(94.7692%,79.968%,83.0732%,1)"/>
  <circle cx="14" cy="15" r="1" fill="srgba(76.289%,9.22408%,23.3021%,1)"/>
  <circle cx="15" cy="15" r="1" fill="srgba(74.8943%,3.888%,18.7945%,1)"/>
</svg>
