<?xml version="1.0" standalone="no"?>
<!DOCTYPE svg PUBLIC "-//W3C//DTD SVG 20010904//EN"
  "http://www.w3.org/TR/2001/REC-SVG-20010904/DTD/svg10.dtd">
<svg width="16" height="16">
  <circle cx="0" cy="0" r="1" fill="green"/>
  <circle cx="1" cy="0" r="1" fill="green"/>
  <circle cx="2" cy="0" r="1" fill="green"/>
  <circle cx="3" cy="0" r="1" fill="green"/>
  <circle cx="4" cy="0" r="1" fill="green"/>
  <circle cx="5" cy="0" r="1" fill="green"/>
  <circle cx="6" cy="0" r="1" fill="green"/>
  <circle cx="7" cy="0" r="1" fill="green"/>
  <circle cx="8" cy="0" r="1" fill="green"/>
  <circle cx="9" cy="0" r="1" fill="green"/>
  <circle cx="10" cy="0" r="1" fill="green"/>
  <circle cx="11" cy="0" r="1" fill="green"/>
  <circle cx="12" cy="0" r="1" fill="green"/>
  <circle cx="13" cy="0" r="1" fill="green"/>
  <circle cx="14" cy="0" r="1" fill="green"/>
  <circle cx="15" cy="0" r="1" fill="green"/>
  <circle cx="0" cy="1" r="1" fill="green"/>
  <circle cx="1" cy="1" r="1" fill="green"/>
  <circle cx="2" cy="1" r="1" fill="green"/>
  <circle cx="3" cy="1" r="1" fill="green"/>
  <circle cx="4" cy="1" r="1" fill="green"/>
  <circle cx="5" cy="1" r="1" fill="green"/>
  <circle cx="6" cy="1" r="1" fill="green"/>
  <circle cx="7" cy="1" r="1" fill="green"/>
  <circle cx="8" cy="1" r="1" fill="green"/>
  <circle cx="9" cy="1" r="1" fill="green"/>
  <circle cx="10" cy="1" r="1" fill="green"/>
  <circle cx="11" cy="1" r="1" fill="green"/>
  <circle cx="12" cy="1" r="1" fill="green"/>
  <circle cx="13" cy="1" r="1" fill="green"/>
  <circle cx="14" cy="1" r="1" fill="green"/>
  <circle cx="15" cy="1" r="1" fill="green"/>
  <circle cx="0" cy="2" r="1" fill="green"/>
  <circle cx="1" cy="2" r="1" fill="srgba(0%,50.0099%,0%,1)"/>
  <circle cx="2" cy="2" r="1" fill="srgba(0%,49.8344%,0%,1)"/>
  <circle cx="3" cy="2" r="1" fill="srgba(0%,50.0984%,0%,1)"/>
  <circle cx="4" cy="2" r="1" fill="srgba(0%,50.2007%,0%,1)"/>
  <circle cx="5" cy="2" r="1" fill="green"/>
  <circle cx="6" cy="2" r="1" fill="green"/>
  <circle cx="7" cy="2" r="1" fill="green"/>
  <circle cx="8" cy="2" r="1" fill="green"/>
  <circle cx="9" cy="2" r="1" fill="green"/>
  <circle cx="10" cy="2" r="1" fill="green"/>
  <circle cx="11" cy="2" r="1" fill="green"/>
  <circle cx="12" cy="2" r="1" fill="srgba(0%,50.1884%,0%,1)"/>
  <circle cx="13" cy="2" r="1" fill="srgba(0%,50.19%,0%,1)"/>
  <circle cx="14" cy="2" r="1" fill="green"/>
  <circle cx="15" cy="2" r="1" fill="green"/>
  <circle cx="0" cy="3" r="1" fill="srgba(0%,49.9672%,0%,1)"/>
  <circle cx="1" cy="3" r="1" fill="srgba(7.76532%,53.0404%,0%,1)"/>
  <circle cx="2" cy="3" r="1" fill="srgba(15.9228%,56.2036%,0%,1)"/>
  <circle cx="3" cy="3" r="1" fill="srgba(4.41444%,51.7037%,0%,1)"/>
  <circle cx="4" cy="3" r="1" fill="srgba(0%,50.0145%,0%,1)"/>
  <circle cx="5" cy="3" r="1" fill="srgba(0%,50.2022%,0%,1)"/>
  <circle cx="6" cy="3" r="1" fill="green"/>
  <circle cx="7" cy="3" r="1" fill="green"/>
  <circle cx="8" cy="3" r="1" fill="green"/>
  <circle cx="9" cy="3" r="1" fill="green"/>
  <circle cx="10" cy="3" r="1" fill="green"/>
  <circle cx="11" cy="3" r="1" fill="srgba(0%,50.1915%,0%,1)"/>
  <circle cx="12" cy="3" r="1" fill="srgba(0.37995%,50.2663%,0%,1)"/>
  <circle cx="13" cy="3" r="1" fill="srgba(0.347906%,50.2602%,0%,1)"/>
  <circle cx="14" cy="3" r="1" fill="srgba(0%,50.1915%,0%,1)"/>
  <circle cx="15" cy="3" r="1" fill="green"/>
  <circle cx="0" cy="4" r="1" fill="srgba(22.0294%,58.4619%,0%,1)"/>
  <circle cx="1" cy="4" r="1" fill="srgba(75.1507%,78.4863%,0%,1)"/>
  <circle cx="2" cy="4" r="1" fill="srgba(70.7393%,76.9055%,0%,1)"/>
  <circle cx="3" cy="4" r="1" fill="srgba(55.4086%,71.0704%,0%,1)"/>
  <circle cx="4" cy="4" r="1" fill="srgba(7.13359%,52.8588%,0%,1)"/>
  <circle cx="5" cy="4" r="1" fill="srgba(0%,50.0298%,0%,1)"/>
  <circle cx="6" cy="4" r="1" fill="srgba(0%,50.1976%,0%,1)"/>
  <circle cx="7" cy="4" r="1" fill="srgba(0%,50.0298%,0%,1)"/>
  <circle cx="8" cy="4" r="1" fill="srgba(0%,49.8634%,0%,1)"/>
  <circle cx="9" cy="4" r="1" fill="srgba(0%,50.1183%,0%,1)"/>
  <circle cx="10" cy="4" r="1" fill="srgba(0%,50.1991%,0%,1)"/>
  <circle cx="11" cy="4" r="1" fill="srgba(0%,49.897%,0%,1)"/>
  <circle cx="12" cy="4" r="1" fill="srgba(22.4796%,58.6587%,0%,1)"/>
  <circle cx="13" cy="4" r="1" fill="srgba(20.6424%,57.9675%,0%,1)"/>
  <circle cx="14" cy="4" r="1" fill="srgba(0%,49.8543%,0%,1)"/>
  <circle cx="15" cy="4" r="1" fill="srgba(0%,50.1671%,0%,1)"/>
  <circle cx="0" cy="5" r="1" fill="srgba(64.4053%,74.5983%,0%,1)"/>
  <circle cx="1" cy="5" r="1" fill="srgba(99.3042%,87.9927%,0%,1)"/>
  <circle cx="2" cy="5" r="1" fill="srgba(50.5058%,67.7134%,0%,1)"/>
  <circle cx="3" cy="5" r="1" fill="srgba(41.6388%,65.4337%,0%,1)"/>
  <circle cx="4" cy="5" r="1" fill="srgba(23.6652%,59.1287%,0%,1)"/>
  <circle cx="5" cy="5" r="1" fill="srgba(0%,49.7627%,0%,1)"/>
  <circle cx="6" cy="5" r="1" fill="srgba(0%,49.984%,0%,1)"/>
  <circle cx="7" cy="5" r="1" fill="srgba(7.48608%,52.9152%,0%,1)"/>
  <circle cx="8" cy="5" r="1" fill="srgba(14.316%,55.5917%,0%,1)"/>
  <circle cx="9" cy="5" r="1" fill="srgba(3.25017%,51.4107%,0%,1)"/>
  <circle cx="10" cy="5" r="1" fill="srgba(0%,49.8817%,0%,1)"/>
  <circle cx="11" cy="5" r="1" fill="srgba(0%,49.987%,0%,1)"/>
  <circle cx="12" cy="5" r="1" fill="srgba(9.50027%,53.7758%,0%,1)"/>
  <circle cx="13" cy="5" r="1" fill="srgba(8.65797%,53.4539%,0%,1)"/>
  <circle cx="14" cy="5" r="1" fill="srgba(0.875868%,50.5211%,0%,1)"/>
  <circle cx="15" cy="5" r="1" fill="srgba(1.51064%,50.7591%,0%,1)"/>
  <circle cx="0" cy="6" r="1" fill="srgba(59.4903%,72.6665%,0%,1)"/>
  <circle cx="1" cy="6" r="1" fill="srgba(99.791%,88.2078%,0%,1)"/>
  <circle cx="2" cy="6" r="1" fill="srgba(55.2697%,66.6148%,0%,1)"/>
  <circle cx="3" cy="6" r="1" fill="srgba(6.18143%,51.4076%,0%,1)"/>
  <circle cx="4" cy="6" r="1" fill="srgba(3.86358%,51.6808%,0%,1)"/>
  <circle cx="5" cy="6" r="1" fill="srgba(0%,49.836%,0%,1)"/>
  <circle cx="6" cy="6" r="1" fill="srgba(15.7977%,56.1288%,0%,1)"/>
  <circle cx="7" cy="6" r="1" fill="srgba(60.4791%,72.9625%,0%,1)"/>
  <circle cx="8" cy="6" r="1" fill="srgba(30.7851%,61.7853%,0%,1)"/>
  <circle cx="9" cy="6" r="1" fill="srgba(6.90318%,52.7947%,0%,1)"/>
  <circle cx="10" cy="6" r="1" fill="srgba(12.4651%,54.8882%,0%,1)"/>
  <circle cx="11" cy="6" r="1" fill="srgba(3.83001%,51.6442%,0%,1)"/>
  <circle cx="12" cy="6" r="1" fill="srgba(0%,49.9245%,0%,1)"/>
  <circle cx="13" cy="6" r="1" fill="srgba(0%,49.5857%,0%,1)"/>
  <circle cx="14" cy="6" r="1" fill="srgba(22.4949%,58.6145%,0%,1)"/>
  <circle cx="15" cy="6" r="1" fill="srgba(27.4174%,60.5219%,0%,1)"/>
  <circle cx="0" cy="7" r="1" fill="srgba(14.5373%,55.6741%,0%,1)"/>
  <circle cx="1" cy="7" r="1" fill="srgba(63.0777%,72.8634%,0%,1)"/>
  <circle cx="2" cy="7" r="1" fill="srgba(47.0619%,62.6398%,0%,1)"/>
  <circle cx="3" cy="7" r="1" fill="srgba(3.90478%,51.4382%,0%,1)"/>
  <circle cx="4" cy="7" r="1" fill="srgba(0%,49.9977%,0%,1)"/>
  <circle cx="5" cy="7" r="1" fill="srgba(0%,49.6483%,0%,1)"/>
  <circle cx="6" cy="7" r="1" fill="srgba(47.985%,68.4489%,0%,1)"/>
  <circle cx="7" cy="7" r="1" fill="srgba(50.3593%,69.3889%,0%,1)"/>
  <circle cx="8" cy="7" r="1" fill="srgba(0%,49.4102%,0%,1)"/>
  <circle cx="9" cy="7" r="1" fill="srgba(1.19783%,50.5333%,0%,1)"/>
  <circle cx="10" cy="7" r="1" fill="srgba(31.6533%,62.1164%,0%,1)"/>
  <circle cx="11" cy="7" r="1" fill="srgba(9.67422%,53.8369%,0%,1)"/>
  <circle cx="12" cy="7" r="1" fill="srgba(0%,49.929%,0%,1)"/>
  <circle cx="13" cy="7" r="1" fill="srgba(3.51263%,51.519%,0%,1)"/>
  <circle cx="14" cy="7" r="1" fill="srgba(8.24598%,53.2998%,0%,1)"/>
  <circle cx="15" cy="7" r="1" fill="srgba(6.91234%,52.7993%,0%,1)"/>
  <circle cx="0" cy="8" r="1" fill="srgba(0%,49.9947%,0%,1)"/>
  <circle cx="1" cy="8" r="1" fill="srgba(3.67132%,50.0755%,0%,1)"/>
  <circle cx="2" cy="8" r="1" fill="srgba(7.53796%,49.1722%,0%,1)"/>
  <circle cx="3" cy="8" r="1" fill="srgba(0.2121%,50.4082%,0%,1)"/>
  <circle cx="4" cy="8" r="1" fill="srgba(0%,50.1869%,0%,1)"/>
  <circle cx="5" cy="8" r="1" fill="srgba(0%,49.7459%,0%,1)"/>
  <circle cx="6" cy="8" r="1" fill="srgba(34.3999%,63.1464%,0%,1)"/>
  <circle cx="7" cy="8" r="1" fill="srgba(54.8516%,70.8446%,0%,1)"/>
  <circle cx="8" cy="8" r="1" fill="srgba(4.41596%,51.8578%,0%,1)"/>
  <circle cx="9" cy="8" r="1" fill="srgba(0.572213%,50.4051%,0%,1)"/>
  <circle cx="10" cy="8" r="1" fill="srgba(0.646983%,50.3563%,0%,1)"/>
  <circle cx="11" cy="8" r="1" fill="srgba(0.187686%,50.2373%,0%,1)"/>
  <circle cx="12" cy="8" r="1" fill="srgba(0%,50.0404%,0%,1)"/>
  <circle cx="13" cy="8" r="1" fill="srgba(8.87922%,53.5424%,0%,1)"/>
  <circle cx="14" cy="8" r="1" fill="srgba(5.76181%,52.2438%,0%,1)"/>
  <circle cx="15" cy="8" r="1" fill="srgba(0%,49.8939%,0%,1)"/>
  <circle cx="0" cy="9" r="1" fill="srgba(0%,50.2525%,0%,1)"/>
  <circle cx="1" cy="9" r="1" fill="srgba(1.25582%,49.3294%,0%,1)"/>
  <circle cx="2" cy="9" r="1" fill="srgba(3.6408%,47.7577%,0%,1)"/>
  <circle cx="3" cy="9" r="1" fill="srgba(0%,50.2632%,0%,1)"/>
  <circle cx="4" cy="9" r="1" fill="green"/>
  <circle cx="5" cy="9" r="1" fill="srgba(0%,50.1442%,0%,1)"/>
  <circle cx="6" cy="9" r="1" fill="srgba(1.78683%,50.7576%,0%,1)"/>
  <circle cx="7" cy="9" r="1" fill="srgba(34.6746%,63.2349%,0%,1)"/>
  <circle cx="8" cy="9" r="1" fill="srgba(36.5423%,63.9536%,0%,1)"/>
  <circle cx="9" cy="9" r="1" fill="srgba(7.98505%,53.2021%,0%,1)"/>
  <circle cx="10" cy="9" r="1" fill="srgba(0%,50.0755%,0%,1)"/>
  <circle cx="11" cy="9" r="1" fill="green"/>
  <circle cx="12" cy="9" r="1" fill="srgba(0.0656138%,50.0389%,0%,1)"/>
  <circle cx="13" cy="9" r="1" fill="srgba(0.0595102%,49.9596%,0%,1)"/>
  <circle cx="14" cy="9" r="1" fill="srgba(0%,50.1427%,0%,1)"/>
  <circle cx="15" cy="9" r="1" fill="srgba(0%,50.2007%,0%,1)"/>
  <circle cx="0" cy="10" r="1" fill="srgba(0%,50.2495%,0%,1)"/>
  <circle cx="1" cy="10" r="1" fill="srgba(1.2253%,49.4087%,0%,1)"/>
  <circle cx="2" cy="10" r="1" fill="srgba(3.52331%,47.9286%,0%,1)"/>
  <circle cx="3" cy="10" r="1" fill="srgba(0%,50.2693%,0%,1)"/>
  <circle cx="4" cy="10" r="1" fill="green"/>
  <circle cx="5" cy="10" r="1" fill="srgba(0%,50.1991%,0%,1)"/>
  <circle cx="6" cy="10" r="1" fill="srgba(0%,50.1244%,0%,1)"/>
  <circle cx="7" cy="10" r="1" fill="srgba(0.560006%,50.1259%,0%,1)"/>
  <circle cx="8" cy="10" r="1" fill="srgba(2.59556%,51.162%,0%,1)"/>
  <circle cx="9" cy="10" r="1" fill="srgba(0.529488%,50.3929%,0%,1)"/>
  <circle cx="10" cy="10" r="1" fill="srgba(0%,50.1854%,0%,1)"/>
  <circle cx="11" cy="10" r="1" fill="srgba(0%,49.9336%,0%,1)"/>
  <circle cx="12" cy="10" r="1" fill="srgba(19.5804%,57.5662%,0%,1)"/>
  <circle cx="13" cy="10" r="1" fill="srgba(17.9812%,56.9635%,0%,1)"/>
  <circle cx="14" cy="10" r="1" fill="srgba(0%,49.9184%,0%,1)"/>
  <circle cx="15" cy="10" r="1" fill="green"/>
  <circle cx="0" cy="11" r="1" fill="srgba(0%,50.248%,0%,1)"/>
  <circle cx="1" cy="11" r="1" fill="srgba(1.19478%,49.427%,0%,1)"/>
  <circle cx="2" cy="11" r="1" fill="srgba(3.41344%,48.0003%,0%,1)"/>
  <circle cx="3" cy="11" r="1" fill="srgba(0%,50.2678%,0%,1)"/>
  <circle cx="4" cy="11" r="1" fill="green"/>
  <circle cx="5" cy="11" r="1" fill="green"/>
  <circle cx="6" cy="11" r="1" fill="green"/>
  <circle cx="7" cy="11" r="1" fill="srgba(0%,50.1884%,0%,1)"/>
  <circle cx="8" cy="11" r="1" fill="srgba(0%,50.1671%,0%,1)"/>
  <circle cx="9" cy="11" r="1" fill="srgba(0%,50.193%,0%,1)"/>
  <circle cx="10" cy="11" r="1" fill="green"/>
  <circle cx="11" cy="11" r="1" fill="srgba(0%,50.0191%,0%,1)"/>
  <circle cx="12" cy="11" r="1" fill="srgba(13.1197%,55.1339%,0%,1)"/>
  <circle cx="13" cy="11" r="1" fill="srgba(12.0394%,54.7265%,0%,1)"/>
  <circle cx="14" cy="11" r="1" fill="srgba(0%,50.0084%,0%,1)"/>
  <circle cx="15" cy="11" r="1" fill="green"/>
  <circle cx="0" cy="12" r="1" fill="srgba(0%,50.248%,0%,1)"/>
  <circle cx="1" cy="12" r="1" fill="srgba(1.16732%,49.4438%,0%,1)"/>
  <circle cx="2" cy="12" r="1" fill="srgba(3.32189%,48.0552%,0%,1)"/>
  <circle cx="3" cy="12" r="1" fill="srgba(0%,50.2663%,0%,1)"/>
  <circle cx="4" cy="12" r="1" fill="green"/>
  <circle cx="5" cy="12" r="1" fill="green"/>
  <circle cx="6" cy="12" r="1" fill="green"/>
  <circle cx="7" cy="12" r="1" fill="green"/>
  <circle cx="8" cy="12" r="1" fill="green"/>
  <circle cx="9" cy="12" r="1" fill="green"/>
  <circle cx="10" cy="12" r="1" fill="green"/>
  <circle cx="11" cy="12" r="1" fill="srgba(0%,50.2037%,0%,1)"/>
  <circle cx="12" cy="12" r="1" fill="srgba(0%,49.9535%,0%,1)"/>
  <circle cx="13" cy="12" r="1" fill="srgba(0%,49.9733%,0%,1)"/>
  <circle cx="14" cy="12" r="1" fill="srgba(0%,50.2052%,0%,1)"/>
  <circle cx="15" cy="12" r="1" fill="green"/>
  <circle cx="0" cy="13" r="1" fill="srgba(0%,50.2464%,0%,1)"/>
  <circle cx="1" cy="13" r="1" fill="srgba(1.13527%,49.4652%,0%,1)"/>
  <circle cx="2" cy="13" r="1" fill="srgba(3.21508%,48.1239%,0%,1)"/>
  <circle cx="3" cy="13" r="1" fill="srgba(0%,50.2647%,0%,1)"/>
  <circle cx="4" cy="13" r="1" fill="green"/>
  <circle cx="5" cy="13" r="1" fill="green"/>
  <circle cx="6" cy="13" r="1" fill="green"/>
  <circle cx="7" cy="13" r="1" fill="green"/>
  <circle cx="8" cy="13" r="1" fill="green"/>
  <circle cx="9" cy="13" r="1" fill="green"/>
  <circle cx="10" cy="13" r="1" fill="green"/>
  <circle cx="11" cy="13" r="1" fill="green"/>
  <circle cx="12" cy="13" r="1" fill="green"/>
  <circle cx="13" cy="13" r="1" fill="green"/>
  <circle cx="14" cy="13" r="1" fill="green"/>
  <circle cx="15" cy="13" r="1" fill="green"/>
  <circle cx="0" cy="14" r="1" fill="srgba(0%,50.2449%,0%,1)"/>
  <circle cx="1" cy="14" r="1" fill="srgba(1.09865%,49.4881%,0%,1)"/>
  <circle cx="2" cy="14" r="1" fill="srgba(3.09606%,48.2017%,0%,1)"/>
  <circle cx="3" cy="14" r="1" fill="srgba(0%,50.2632%,0%,1)"/>
  <circle cx="4" cy="14" r="1" fill="green"/>
  <circle cx="5" cy="14" r="1" fill="green"/>
  <circle cx="6" cy="14" r="1" fill="green"/>
  <circle cx="7" cy="14" r="1" fill="green"/>
  <circle cx="8" cy="14" r="1" fill="green"/>
  <circle cx="9" cy="14" r="1" fill="green"/>
  <circle cx="10" cy="14" r="1" fill="green"/>
  <circle cx="11" cy="14" r="1" fill="green"/>
  <circle cx="12" cy="14" r="1" fill="srgba(0%,50.1946%,0%,1)"/>
  <circle cx="13" cy="14" r="1" fill="green"/>
  <circle cx="14" cy="14" r="1" fill="green"/>
  <circle cx="15" cy="14" r="1" fill="green"/>
  <circle cx="0" cy="15" r="1" fill="srgba(0%,50.2434%,0%,1)"/>
  <circle cx="1" cy="15" r="1" fill="srgba(1.0605%,49.514%,0%,1)"/>
  <circle cx="2" cy="15" r="1" fill="srgba(2.97551%,48.2826%,0%,1)"/>
  <circle cx="3" cy="15" r="1" fill="srgba(0%,50.2602%,0%,1)"/>
  <circle cx="4" cy="15" r="1" fill="green"/>
  <circle cx="5" cy="15" r="1" fill="green"/>
  <circle cx="6" cy="15" r="1" fill="green"/>
  <circle cx="7" cy="15" r="1" fill="green"/>
  <circle cx="8" cy="15" r="1" fill="green"/>
  <circle cx="9" cy="15" r="1" fill="green"/>
  <circle cx="10" cy="15" r="1" fill="green"/>
  <circle cx="11" cy="15" r="1" fill="green"/>
  <circle cx="12" cy="15" r="1" fill="green"/>
  <circle cx="13" cy="15" r="1" fill="srgba(0%,50.193%,0%,1)"/>
  <circle cx="14" cy="15" r="1" fill="srgba(0%,50.1946%,0%,1)"/>
  <circle cx="15" cy="15" r="1" fill="green"/>
</svg>
