<?xml version="1.0" standalone="no"?>
<!DOCTYPE svg PUBLIC "-//W3C//DTD SVG 20010904//EN"
  "http://www.w3.org/TR/2001/REC-SVG-20010904/DTD/svg10.dtd">
<svg width="16" height="16">
  <circle cx="0" cy="0" r="1" fill="srgba(0,127,255,1)"/>
  <circle cx="1" cy="0" r="1" fill="srgba(0,127,255,1)"/>
  <circle cx="2" cy="0" r="1" fill="srgba(0%,49.7871%,100%,1)"/>
  <circle cx="3" cy="0" r="1" fill="srgba(1.00404%,50.0206%,99.06%,1)"/>
  <circle cx="4" cy="0" r="1" fill="srgba(0.634775%,49.9336%,99.4064%,1)"/>
  <circle cx="5" cy="0" r="1" fill="srgba(0%,49.7932%,100%,1)"/>
  <circle cx="6" cy="0" r="1" fill="srgba(0,127,255,1)"/>
  <circle cx="7" cy="0" r="1" fill="srgba(0,127,255,1)"/>
  <circle cx="8" cy="0" r="1" fill="srgba(0,127,255,1)"/>
  <circle cx="9" cy="0" r="1" fill="srgba(0,127,255,1)"/>
  <circle cx="10" cy="0" r="1" fill="srgba(0,127,255,1)"/>
  <circle cx="11" cy="0" r="1" fill="srgba(0,127,255,1)"/>
  <circle cx="12" cy="0" r="1" fill="srgba(0,127,255,1)"/>
  <circle cx="13" cy="0" r="1" fill="srgba(0,127,255,1)"/>
  <circle cx="14" cy="0" r="1" fill="srgba(0%,49.7932%,100%,1)"/>
  <circle cx="15" cy="0" r="1" fill="srgba(0.392157%,50.0038%,100%,1)"/>
  <circle cx="0" cy="1" r="1" fill="srgba(0%,49.7963%,100%,1)"/>
  <circle cx="1" cy="1" r="1" fill="srgba(0%,49.7414%,100%,1)"/>
  <circle cx="2" cy="1" r="1" fill="srgba(0%,49.4026%,100%,1)"/>
  <circle cx="3" cy="1" r="1" fill="srgba(20.9644%,57.0809%,80.3937%,1)"/>
  <circle cx="4" cy="1" r="1" fill="srgba(13.6446%,54.4945%,87.2404%,1)"/>
  <circle cx="5" cy="1" r="1" fill="srgba(0%,49.4347%,100%,1)"/>
  <circle cx="6" cy="1" r="1" fill="srgba(0%,49.752%,100%,1)"/>
  <circle cx="7" cy="1" r="1" fill="srgba(0%,49.8024%,100%,1)"/>
  <circle cx="8" cy="1" r="1" fill="srgba(0,127,255,1)"/>
  <circle cx="9" cy="1" r="1" fill="srgba(0,127,255,1)"/>
  <circle cx="10" cy="1" r="1" fill="srgba(0,127,255,1)"/>
  <circle cx="11" cy="1" r="1" fill="srgba(0,127,255,1)"/>
  <circle cx="12" cy="1" r="1" fill="srgba(0,127,255,1)"/>
  <circle cx="13" cy="1" r="1" fill="srgba(0%,49.8085%,100%,1)"/>
  <circle cx="14" cy="1" r="1" fill="srgba(0%,49.6956%,100%,1)"/>
  <circle cx="15" cy="1" r="1" fill="srgba(0.384527%,49.5857%,100%,1)"/>
  <circle cx="0" cy="2" r="1" fill="srgba(0.442512%,49.9596%,99.5865%,1)"/>
  <circle cx="1" cy="2" r="1" fill="srgba(3.88647%,51.1727%,96.3668%,1)"/>
  <circle cx="2" cy="2" r="1" fill="srgba(3.6408%,51.0857%,96.5957%,1)"/>
  <circle cx="3" cy="2" r="1" fill="srgba(56.1135%,69.5689%,47.5212%,1)"/>
  <circle cx="4" cy="2" r="1" fill="srgba(40.557%,64.0894%,62.0706%,1)"/>
  <circle cx="5" cy="2" r="1" fill="srgba(2.67948%,50.7469%,97.496%,1)"/>
  <circle cx="6" cy="2" r="1" fill="srgba(3.24865%,50.9483%,96.9619%,1)"/>
  <circle cx="7" cy="2" r="1" fill="srgba(0.0549325%,49.8238%,99.9481%,1)"/>
  <circle cx="8" cy="2" r="1" fill="srgba(0%,49.8024%,100%,1)"/>
  <circle cx="9" cy="2" r="1" fill="srgba(0,127,255,1)"/>
  <circle cx="10" cy="2" r="1" fill="srgba(0,127,255,1)"/>
  <circle cx="11" cy="2" r="1" fill="srgba(0%,49.8054%,100%,1)"/>
  <circle cx="12" cy="2" r="1" fill="srgba(0%,49.781%,100%,1)"/>
  <circle cx="13" cy="2" r="1" fill="srgba(0%,49.3797%,100%,1)"/>
  <circle cx="14" cy="2" r="1" fill="srgba(4.24201%,51.603%,96.0952%,1)"/>
  <circle cx="15" cy="2" r="1" fill="srgba(29.6574%,60.8194%,72.5429%,1)"/>
  <circle cx="0" cy="3" r="1" fill="srgba(0.967422%,50.1442%,99.0967%,1)"/>
  <circle cx="1" cy="3" r="1" fill="srgba(32.8435%,61.3718%,69.2866%,1)"/>
  <circle cx="2" cy="3" r="1" fill="srgba(70.1808%,74.522%,34.3679%,1)"/>
  <circle cx="3" cy="3" r="1" fill="srgba(90.5501%,81.6983%,15.3155%,1)"/>
  <circle cx="4" cy="3" r="1" fill="srgba(86.273%,80.1907%,19.3164%,1)"/>
  <circle cx="5" cy="3" r="1" fill="srgba(65.1179%,72.7398%,39.1043%,1)"/>
  <circle cx="6" cy="3" r="1" fill="srgba(22.62%,57.7722%,78.8479%,1)"/>
  <circle cx="7" cy="3" r="1" fill="srgba(0%,49.6727%,100%,1)"/>
  <circle cx="8" cy="3" r="1" fill="srgba(0%,49.7993%,100%,1)"/>
  <circle cx="9" cy="3" r="1" fill="srgba(0,127,255,1)"/>
  <circle cx="10" cy="3" r="1" fill="srgba(0%,49.807%,100%,1)"/>
  <circle cx="11" cy="3" r="1" fill="srgba(0%,49.5445%,100%,1)"/>
  <circle cx="12" cy="3" r="1" fill="srgba(0.746166%,49.9672%,99.3332%,1)"/>
  <circle cx="13" cy="3" r="1" fill="srgba(20.2426%,57.8927%,81.2222%,1)"/>
  <circle cx="14" cy="3" r="1" fill="srgba(62.7314%,64.2237%,40.1038%,1)"/>
  <circle cx="15" cy="3" r="1" fill="srgba(85.7847%,46.8299%,14.493%,1)"/>
  <circle cx="0" cy="4" r="1" fill="srgba(0%,49.7078%,100%,1)"/>
  <circle cx="1" cy="4" r="1" fill="srgba(3.25322%,50.9346%,96.9574%,1)"/>
  <circle cx="2" cy="4" r="1" fill="srgba(51.3848%,67.9026%,51.9432%,1)"/>
  <circle cx="3" cy="4" r="1" fill="srgba(98.7579%,84.5884%,7.63867%,1)"/>
  <circle cx="4" cy="4" r="1" fill="srgba(94.7784%,83.1876%,11.3603%,1)"/>
  <circle cx="5" cy="4" r="1" fill="srgba(35.8694%,62.4384%,66.453%,1)"/>
  <circle cx="6" cy="4" r="1" fill="srgba(0.906386%,50.103%,99.1531%,1)"/>
  <circle cx="7" cy="4" r="1" fill="srgba(0%,49.7612%,100%,1)"/>
  <circle cx="8" cy="4" r="1" fill="srgba(0%,49.8085%,100%,1)"/>
  <circle cx="9" cy="4" r="1" fill="srgba(0%,49.6986%,100%,1)"/>
  <circle cx="10" cy="4" r="1" fill="srgba(0%,49.4011%,100%,1)"/>
  <circle cx="11" cy="4" r="1" fill="srgba(10.1198%,54.197%,90.6752%,1)"/>
  <circle cx="12" cy="4" r="1" fill="srgba(48.3345%,64.4739%,54.4198%,1)"/>
  <circle cx="13" cy="4" r="1" fill="srgba(82.0005%,53.7652%,19.3286%,1)"/>
  <circle cx="14" cy="4" r="1" fill="srgba(85.2674%,22.0951%,11.0246%,1)"/>
  <circle cx="15" cy="4" r="1" fill="srgba(81.0727%,6.52323%,12.7092%,1)"/>
  <circle cx="0" cy="5" r="1" fill="srgba(0%,49.8024%,100%,1)"/>
  <circle cx="1" cy="5" r="1" fill="srgba(0%,49.4804%,100%,1)"/>
  <circle cx="2" cy="5" r="1" fill="srgba(47.5563%,66.4881%,55.5245%,1)"/>
  <circle cx="3" cy="5" r="1" fill="srgba(70.2693%,74.5586%,34.2824%,1)"/>
  <circle cx="4" cy="5" r="1" fill="srgba(73.9834%,75.8633%,30.808%,1)"/>
  <circle cx="5" cy="5" r="1" fill="srgba(31.4824%,60.8026%,70.5562%,1)"/>
  <circle cx="6" cy="5" r="1" fill="srgba(0%,49.2638%,100%,1)"/>
  <circle cx="7" cy="5" r="1" fill="srgba(0%,49.7826%,100%,1)"/>
  <circle cx="8" cy="5" r="1" fill="srgba(0%,49.3797%,100%,1)"/>
  <circle cx="9" cy="5" r="1" fill="srgba(3.78271%,51.487%,96.5423%,1)"/>
  <circle cx="10" cy="5" r="1" fill="srgba(33.5241%,61.7639%,68.6687%,1)"/>
  <circle cx="11" cy="5" r="1" fill="srgba(74.1802%,61.0376%,28.2444%,1)"/>
  <circle cx="12" cy="5" r="1" fill="srgba(86.5156%,32.578%,11.4641%,1)"/>
  <circle cx="13" cy="5" r="1" fill="srgba(81.9455%,8.84413%,12.1996%,1)"/>
  <circle cx="14" cy="5" r="1" fill="srgba(80.5356%,5.10262%,12.9992%,1)"/>
  <circle cx="15" cy="5" r="1" fill="srgba(80.5966%,5.51156%,13.0205%,1)"/>
  <circle cx="0" cy="6" r="1" fill="srgba(0%,49.7566%,100%,1)"/>
  <circle cx="1" cy="6" r="1" fill="srgba(2.40482%,50.6508%,97.7508%,1)"/>
  <circle cx="2" cy="6" r="1" fill="srgba(27.071%,59.3454%,74.6838%,1)"/>
  <circle cx="3" cy="6" r="1" fill="srgba(6.69871%,52.0439%,93.7362%,1)"/>
  <circle cx="4" cy="6" r="1" fill="srgba(12.5261%,54.139%,88.2856%,1)"/>
  <circle cx="5" cy="6" r="1" fill="srgba(23.6606%,58.146%,77.8729%,1)"/>
  <circle cx="6" cy="6" r="1" fill="srgba(0%,49.5521%,100%,1)"/>
  <circle cx="7" cy="6" r="1" fill="srgba(0.735485%,49.9626%,99.3408%,1)"/>
  <circle cx="8" cy="6" r="1" fill="srgba(20.2365%,57.8912%,81.2268%,1)"/>
  <circle cx="9" cy="6" r="1" fill="srgba(62.5528%,64.5747%,40.3372%,1)"/>
  <circle cx="10" cy="6" r="1" fill="srgba(85.8534%,43.7201%,13.9025%,1)"/>
  <circle cx="11" cy="6" r="1" fill="srgba(83.4943%,14.136%,11.5114%,1)"/>
  <circle cx="12" cy="6" r="1" fill="srgba(80.6134%,5.19265%,12.9381%,1)"/>
  <circle cx="13" cy="6" r="1" fill="srgba(80.5295%,5.09651%,13.0053%,1)"/>
  <circle cx="14" cy="6" r="1" fill="srgba(82.06%,9.4728%,12.1843%,1)"/>
  <circle cx="15" cy="6" r="1" fill="srgba(86.2577%,30.4128%,11.4336%,1)"/>
  <circle cx="0" cy="7" r="1" fill="srgba(0%,49.7993%,100%,1)"/>
  <circle cx="1" cy="7" r="1" fill="srgba(0.181582%,49.8695%,99.8291%,1)"/>
  <circle cx="2" cy="7" r="1" fill="srgba(0.436408%,49.6818%,99.5926%,1)"/>
  <circle cx="3" cy="7" r="1" fill="srgba(0%,49.6635%,100%,1)"/>
  <circle cx="4" cy="7" r="1" fill="srgba(0%,49.485%,100%,1)"/>
  <circle cx="5" cy="7" r="1" fill="srgba(0%,49.3797%,100%,1)"/>
  <circle cx="6" cy="7" r="1" fill="srgba(10.1442%,54.229%,90.6508%,1)"/>
  <circle cx="7" cy="7" r="1" fill="srgba(48.3375%,64.4755%,54.4167%,1)"/>
  <circle cx="8" cy="7" r="1" fill="srgba(81.9974%,53.7697%,19.3317%,1)"/>
  <circle cx="9" cy="7" r="1" fill="srgba(85.3056%,22.2477%,11.0124%,1)"/>
  <circle cx="10" cy="7" r="1" fill="srgba(81.0056%,6.12802%,12.6986%,1)"/>
  <circle cx="11" cy="7" r="1" fill="srgba(80.5295%,5.15145%,13.0144%,1)"/>
  <circle cx="12" cy="7" r="1" fill="srgba(81.0498%,6.24552%,12.6741%,1)"/>
  <circle cx="13" cy="7" r="1" fill="srgba(85.42%,22.8901%,11.0033%,1)"/>
  <circle cx="14" cy="7" r="1" fill="srgba(81.0986%,54.3893%,20.3052%,1)"/>
  <circle cx="15" cy="7" r="1" fill="srgba(51.3924%,65.3666%,51.8151%,1)"/>
  <circle cx="0" cy="8" r="1" fill="srgba(0,127,255,1)"/>
  <circle cx="1" cy="8" r="1" fill="srgba(0%,49.8024%,100%,1)"/>
  <circle cx="2" cy="8" r="1" fill="srgba(0%,49.7749%,100%,1)"/>
  <circle cx="3" cy="8" r="1" fill="srgba(0%,49.3797%,100%,1)"/>
  <circle cx="4" cy="8" r="1" fill="srgba(3.78119%,51.4855%,96.5438%,1)"/>
  <circle cx="5" cy="8" r="1" fill="srgba(33.5103%,61.7594%,68.6824%,1)"/>
  <circle cx="6" cy="8" r="1" fill="srgba(74.1817%,61.0422%,28.2444%,1)"/>
  <circle cx="7" cy="8" r="1" fill="srgba(86.5171%,32.5841%,11.4641%,1)"/>
  <circle cx="8" cy="8" r="1" fill="srgba(81.9471%,8.84565%,12.2011%,1)"/>
  <circle cx="9" cy="8" r="1" fill="srgba(80.5295%,5.10109%,13.0068%,1)"/>
  <circle cx="10" cy="8" r="1" fill="srgba(80.6271%,5.21859%,12.929%,1)"/>
  <circle cx="11" cy="8" r="1" fill="srgba(83.6149%,14.5983%,11.4656%,1)"/>
  <circle cx="12" cy="8" r="1" fill="srgba(85.7038%,44.4526%,14.168%,1)"/>
  <circle cx="13" cy="8" r="1" fill="srgba(61.6495%,64.6799%,41.2497%,1)"/>
  <circle cx="14" cy="8" r="1" fill="srgba(19.2721%,57.554%,82.1103%,1)"/>
  <circle cx="15" cy="8" r="1" fill="srgba(1.09255%,50.1778%,99.3591%,1)"/>
  <circle cx="0" cy="9" r="1" fill="srgba(0%,49.807%,100%,1)"/>
  <circle cx="1" cy="9" r="1" fill="srgba(0%,49.5476%,100%,1)"/>
  <circle cx="2" cy="9" r="1" fill="srgba(0.746166%,49.9672%,99.3317%,1)"/>
  <circle cx="3" cy="9" r="1" fill="srgba(20.2441%,57.8927%,81.2192%,1)"/>
  <circle cx="4" cy="9" r="1" fill="srgba(62.5544%,64.5762%,40.3372%,1)"/>
  <circle cx="5" cy="9" r="1" fill="srgba(85.8518%,43.7186%,13.904%,1)"/>
  <circle cx="6" cy="9" r="1" fill="srgba(83.4943%,14.1375%,11.5129%,1)"/>
  <circle cx="7" cy="9" r="1" fill="srgba(80.6134%,5.19265%,12.9381%,1)"/>
  <circle cx="8" cy="9" r="1" fill="srgba(80.5295%,5.09651%,13.0053%,1)"/>
  <circle cx="9" cy="9" r="1" fill="srgba(82.0325%,9.11574%,12.1584%,1)"/>
  <circle cx="10" cy="9" r="1" fill="srgba(86.5476%,33.3318%,11.5541%,1)"/>
  <circle cx="11" cy="9" r="1" fill="srgba(73.5073%,61.4069%,28.9693%,1)"/>
  <circle cx="12" cy="9" r="1" fill="srgba(32.5582%,61.5259%,69.5888%,1)"/>
  <circle cx="13" cy="9" r="1" fill="srgba(3.48211%,51.3466%,96.8185%,1)"/>
  <circle cx="14" cy="9" r="1" fill="srgba(0%,49.3797%,100%,1)"/>
  <circle cx="15" cy="9" r="1" fill="srgba(0.392157%,49.9809%,100%,1)"/>
  <circle cx="0" cy="10" r="1" fill="srgba(0%,49.3706%,100%,1)"/>
  <circle cx="1" cy="10" r="1" fill="srgba(10.0404%,54.1588%,90.7469%,1)"/>
  <circle cx="2" cy="10" r="1" fill="srgba(48.3406%,64.4755%,54.4137%,1)"/>
  <circle cx="3" cy="10" r="1" fill="srgba(82.005%,53.7728%,19.3256%,1)"/>
  <circle cx="4" cy="10" r="1" fill="srgba(85.3056%,22.2492%,11.014%,1)"/>
  <circle cx="5" cy="10" r="1" fill="srgba(81.0056%,6.12955%,12.7001%,1)"/>
  <circle cx="6" cy="10" r="1" fill="srgba(80.5295%,5.15145%,13.0144%,1)"/>
  <circle cx="7" cy="10" r="1" fill="srgba(81.0483%,6.24552%,12.6741%,1)"/>
  <circle cx="8" cy="10" r="1" fill="srgba(85.42%,22.887%,11.0033%,1)"/>
  <circle cx="9" cy="10" r="1" fill="srgba(81.6052%,54.3694%,19.8169%,1)"/>
  <circle cx="10" cy="10" r="1" fill="srgba(47.3335%,64.3641%,55.3933%,1)"/>
  <circle cx="11" cy="10" r="1" fill="srgba(9.57046%,53.9788%,91.1833%,1)"/>
  <circle cx="12" cy="10" r="1" fill="srgba(0%,49.3874%,100%,1)"/>
  <circle cx="13" cy="10" r="1" fill="srgba(0%,49.7063%,100%,1)"/>
  <circle cx="14" cy="10" r="1" fill="srgba(0%,49.7963%,100%,1)"/>
  <circle cx="15" cy="10" r="1" fill="srgba(0.392157%,50.0038%,100%,1)"/>
  <circle cx="0" cy="11" r="1" fill="srgba(36.9528%,62.8534%,65.4475%,1)"/>
  <circle cx="1" cy="11" r="1" fill="srgba(73.6706%,60.9842%,28.7419%,1)"/>
  <circle cx="2" cy="11" r="1" fill="srgba(86.5171%,32.5856%,11.4656%,1)"/>
  <circle cx="3" cy="11" r="1" fill="srgba(81.9455%,8.84565%,12.2011%,1)"/>
  <circle cx="4" cy="11" r="1" fill="srgba(80.5295%,5.10109%,13.0068%,1)"/>
  <circle cx="5" cy="11" r="1" fill="srgba(80.6271%,5.21859%,12.929%,1)"/>
  <circle cx="6" cy="11" r="1" fill="srgba(83.6149%,14.5968%,11.4672%,1)"/>
  <circle cx="7" cy="11" r="1" fill="srgba(85.7084%,44.4511%,14.165%,1)"/>
  <circle cx="8" cy="11" r="1" fill="srgba(61.6571%,64.6784%,41.2421%,1)"/>
  <circle cx="9" cy="11" r="1" fill="srgba(19.4461%,57.6287%,81.9669%,1)"/>
  <circle cx="10" cy="11" r="1" fill="srgba(0.631724%,49.9031%,99.4354%,1)"/>
  <circle cx="11" cy="11" r="1" fill="srgba(0%,49.5567%,100%,1)"/>
  <circle cx="12" cy="11" r="1" fill="srgba(0%,49.807%,100%,1)"/>
  <circle cx="13" cy="11" r="1" fill="srgba(0,127,255,1)"/>
  <circle cx="14" cy="11" r="1" fill="srgba(0%,49.7932%,100%,1)"/>
  <circle cx="15" cy="11" r="1" fill="srgba(0.392157%,50.0038%,100%,1)"/>
  <circle cx="0" cy="12" r="1" fill="srgba(86.5171%,41.0132%,12.8145%,1)"/>
  <circle cx="1" cy="12" r="1" fill="srgba(83.447%,14.5174%,11.6213%,1)"/>
  <circle cx="2" cy="12" r="1" fill="srgba(80.6134%,5.19265%,12.9381%,1)"/>
  <circle cx="3" cy="12" r="1" fill="srgba(80.5295%,5.09651%,13.0053%,1)"/>
  <circle cx="4" cy="12" r="1" fill="srgba(82.0325%,9.11269%,12.1584%,1)"/>
  <circle cx="5" cy="12" r="1" fill="srgba(86.5461%,33.3211%,11.5557%,1)"/>
  <circle cx="6" cy="12" r="1" fill="srgba(73.5088%,61.4038%,28.9693%,1)"/>
  <circle cx="7" cy="12" r="1" fill="srgba(32.5628%,61.5259%,69.5842%,1)"/>
  <circle cx="8" cy="12" r="1" fill="srgba(3.48669%,51.3481%,96.8154%,1)"/>
  <circle cx="9" cy="12" r="1" fill="srgba(0%,49.3874%,100%,1)"/>
  <circle cx="10" cy="12" r="1" fill="srgba(0%,49.7841%,100%,1)"/>
  <circle cx="11" cy="12" r="1" fill="srgba(0%,49.8054%,100%,1)"/>
  <circle cx="12" cy="12" r="1" fill="srgba(0,127,255,1)"/>
  <circle cx="13" cy="12" r="1" fill="srgba(0,127,255,1)"/>
  <circle cx="14" cy="12" r="1" fill="srgba(0%,49.7932%,100%,1)"/>
  <circle cx="15" cy="12" r="1" fill="srgba(0.392157%,50.0038%,100%,1)"/>
  <circle cx="0" cy="13" r="1" fill="srgba(80.798%,5.71145%,12.8374%,1)"/>
  <circle cx="1" cy="13" r="1" fill="srgba(80.5478%,5.20333%,13.0053%,1)"/>
  <circle cx="2" cy="13" r="1" fill="srgba(81.0498%,6.24552%,12.6741%,1)"/>
  <circle cx="3" cy="13" r="1" fill="srgba(85.42%,22.8855%,11.0033%,1)"/>
  <circle cx="4" cy="13" r="1" fill="srgba(81.6068%,54.3648%,19.8169%,1)"/>
  <circle cx="5" cy="13" r="1" fill="srgba(47.335%,64.361%,55.3918%,1)"/>
  <circle cx="6" cy="13" r="1" fill="srgba(9.57198%,53.9788%,91.1833%,1)"/>
  <circle cx="7" cy="13" r="1" fill="srgba(0%,49.3874%,100%,1)"/>
  <circle cx="8" cy="13" r="1" fill="srgba(0%,49.7063%,100%,1)"/>
  <circle cx="9" cy="13" r="1" fill="srgba(0%,49.8085%,100%,1)"/>
  <circle cx="10" cy="13" r="1" fill="srgba(0,127,255,1)"/>
  <circle cx="11" cy="13" r="1" fill="srgba(0,127,255,1)"/>
  <circle cx="12" cy="13" r="1" fill="srgba(0,127,255,1)"/>
  <circle cx="13" cy="13" r="1" fill="srgba(0,127,255,1)"/>
  <circle cx="14" cy="13" r="1" fill="srgba(0%,49.7932%,100%,1)"/>
  <circle cx="15" cy="13" r="1" fill="srgba(0.392157%,50.0038%,100%,1)"/>
  <circle cx="0" cy="14" r="1" fill="srgba(80.6836%,5.7557%,12.9534%,1)"/>
  <circle cx="1" cy="14" r="1" fill="srgba(83.0777%,14.8425%,12.0241%,1)"/>
  <circle cx="2" cy="14" r="1" fill="srgba(85.0111%,44.4755%,14.8394%,1)"/>
  <circle cx="3" cy="14" r="1" fill="srgba(61.1551%,64.5502%,41.6999%,1)"/>
  <circle cx="4" cy="14" r="1" fill="srgba(19.2752%,57.557%,82.1057%,1)"/>
  <circle cx="5" cy="14" r="1" fill="srgba(0.621042%,49.8909%,99.44%,1)"/>
  <circle cx="6" cy="14" r="1" fill="srgba(0%,49.5476%,100%,1)"/>
  <circle cx="7" cy="14" r="1" fill="srgba(0%,49.7963%,100%,1)"/>
  <circle cx="8" cy="14" r="1" fill="srgba(0%,49.7932%,100%,1)"/>
  <circle cx="9" cy="14" r="1" fill="srgba(0%,49.7932%,100%,1)"/>
  <circle cx="10" cy="14" r="1" fill="srgba(0%,49.7932%,100%,1)"/>
  <circle cx="11" cy="14" r="1" fill="srgba(0%,49.7932%,100%,1)"/>
  <circle cx="12" cy="14" r="1" fill="srgba(0%,49.7932%,100%,1)"/>
  <circle cx="13" cy="14" r="1" fill="srgba(0%,49.7932%,100%,1)"/>
  <circle cx="14" cy="14" r="1" fill="srgba(0%,49.7826%,100%,1)"/>
  <circle cx="15" cy="14" r="1" fill="srgba(0.392157%,49.9931%,100%,1)"/>
  <circle cx="0" cy="15" r="1" fill="srgba(85.8305%,29.5354%,11.7342%,1)"/>
  <circle cx="1" cy="15" r="1" fill="srgba(81.3413%,61.7838%,21.5152%,1)"/>
  <circle cx="2" cy="15" r="1" fill="srgba(37.5799%,63.389%,65.2766%,1)"/>
  <circle cx="3" cy="15" r="1" fill="srgba(4.19318%,51.7586%,96.3821%,1)"/>
  <circle cx="4" cy="15" r="1" fill="srgba(0%,49.5308%,100%,1)"/>
  <circle cx="5" cy="15" r="1" fill="srgba(0.331121%,49.9809%,100%,1)"/>
  <circle cx="6" cy="15" r="1" fill="srgba(0.395209%,50.0053%,100%,1)"/>
  <circle cx="7" cy="15" r="1" fill="srgba(0.392157%,50.0038%,100%,1)"/>
  <circle cx="8" cy="15" r="1" fill="srgba(0.392157%,50.0038%,100%,1)"/>
  <circle cx="9" cy="15" r="1" fill="srgba(0.392157%,50.0038%,100%,1)"/>
  <circle cx="10" cy="15" r="1" fill="srgba(0.392157%,50.0038%,100%,1)"/>
  <circle cx="11" cy="15" r="1" fill="srgba(0.392157%,50.0038%,100%,1)"/>
  <circle cx="12" cy="15" r="1" fill="srgba(0.392157%,50.0038%,100%,1)"/>
  <circle cx="13" cy="15" r="1" fill="srgba(0.392157%,50.0038%,100%,1)"/>
  <circle cx="14" cy="15" r="1" fill="srgba(0.370794%,49.9931%,100%,1)"/>
  <circle cx="15" cy="15" r="1" fill="srgba(0.782788%,50.2037%,100%,1)"/>
</svg>
