<?xml version="1.0" standalone="no"?>
<!DOCTYPE svg PUBLIC "-//W3C//DTD SVG 20010904//EN"
  "http://www.w3.org/TR/2001/REC-SVG-20010904/DTD/svg10.dtd">
<svg width="16" height="16">
  <circle cx="0" cy="0" r="1" fill="blue"/>
  <circle cx="1" cy="0" r="1" fill="srgba(3.83917%,3.83917%,96.1608%,1)"/>
  <circle cx="2" cy="0" r="1" fill="srgba(19.5132%,19.5132%,80.4868%,1)"/>
  <circle cx="3" cy="0" r="1" fill="srgba(0.355535%,0.355535%,99.6445%,1)"/>
  <circle cx="4" cy="0" r="1" fill="blue"/>
  <circle cx="5" cy="0" r="1" fill="blue"/>
  <circle cx="6" cy="0" r="1" fill="blue"/>
  <circle cx="7" cy="0" r="1" fill="blue"/>
  <circle cx="8" cy="0" r="1" fill="srgba(60.9903%,0%,39.0097%,1)"/>
  <circle cx="9" cy="0" r="1" fill="red"/>
  <circle cx="10" cy="0" r="1" fill="red"/>
  <circle cx="11" cy="0" r="1" fill="red"/>
  <circle cx="12" cy="0" r="1" fill="srgba(39.0097%,0%,60.9903%,1)"/>
  <circle cx="13" cy="0" r="1" fill="blue"/>
  <circle cx="14" cy="0" r="1" fill="blue"/>
  <circle cx="15" cy="0" r="1" fill="blue"/>
  <circle cx="0" cy="1" r="1" fill="srgba(6.06546%,6.06546%,93.9345%,1)"/>
  <circle cx="1" cy="1" r="1" fill="srgba(44.9989%,44.9989%,55.0011%,1)"/>
  <circle cx="2" cy="1" r="1" fill="srgba(63.1693%,63.1693%,36.8307%,1)"/>
  <circle cx="3" cy="1" r="1" fill="srgba(2.88396%,2.88396%,97.116%,1)"/>
  <circle cx="4" cy="1" r="1" fill="blue"/>
  <circle cx="5" cy="1" r="1" fill="blue"/>
  <circle cx="6" cy="1" r="1" fill="blue"/>
  <circle cx="7" cy="1" r="1" fill="blue"/>
  <circle cx="8" cy="1" r="1" fill="srgba(60.9903%,0%,39.0097%,1)"/>
  <circle cx="9" cy="1" r="1" fill="red"/>
  <circle cx="10" cy="1" r="1" fill="red"/>
  <circle cx="11" cy="1" r="1" fill="red"/>
  <circle cx="12" cy="1" r="1" fill="srgba(39.0097%,0%,60.9903%,1)"/>
  <circle cx="13" cy="1" r="1" fill="blue"/>
  <circle cx="14" cy="1" r="1" fill="blue"/>
  <circle cx="15" cy="1" r="1" fill="blue"/>
  <circle cx="0" cy="2" r="1" fill="srgba(0%,0%,99.7772%,1)"/>
  <circle cx="1" cy="2" r="1" fill="srgba(47.4006%,47.4006%,51.6426%,1)"/>
  <circle cx="2" cy="2" r="1" fill="srgba(67.1275%,67.1275%,32.0546%,1)"/>
  <circle cx="3" cy="2" r="1" fill="srgba(4.75624%,4.75624%,95.1614%,1)"/>
  <circle cx="4" cy="2" r="1" fill="blue"/>
  <circle cx="5" cy="2" r="1" fill="blue"/>
  <circle cx="6" cy="2" r="1" fill="blue"/>
  <circle cx="7" cy="2" r="1" fill="blue"/>
  <circle cx="8" cy="2" r="1" fill="srgba(60.9903%,0%,39.0097%,1)"/>
  <circle cx="9" cy="2" r="1" fill="red"/>
  <circle cx="10" cy="2" r="1" fill="red"/>
  <circle cx="11" cy="2" r="1" fill="red"/>
  <circle cx="12" cy="2" r="1" fill="srgba(39.0097%,0%,60.9903%,1)"/>
  <circle cx="13" cy="2" r="1" fill="blue"/>
  <circle cx="14" cy="2" r="1" fill="blue"/>
  <circle cx="15" cy="2" r="1" fill="blue"/>
  <circle cx="0" cy="3" r="1" fill="srgba(15.2438%,15.2438%,99.8795%,1)"/>
  <circle cx="1" cy="3" r="1" fill="srgba(28.2231%,28.2231%,87.013%,1)"/>
  <circle cx="2" cy="3" r="1" fill="srgba(34.6563%,34.6563%,77.908%,1)"/>
  <circle cx="3" cy="3" r="1" fill="srgba(33.1136%,33.1136%,76.8948%,1)"/>
  <circle cx="4" cy="3" r="1" fill="srgba(14.4533%,14.4533%,100%,1)"/>
  <circle cx="5" cy="3" r="1" fill="srgba(15.1827%,15.1827%,100%,1)"/>
  <circle cx="6" cy="3" r="1" fill="srgba(15.1659%,15.1858%,100%,1)"/>
  <circle cx="7" cy="3" r="1" fill="srgba(14.9996%,15.2163%,100%,1)"/>
  <circle cx="8" cy="3" r="1" fill="srgba(66.9123%,5.92355%,39.0097%,1)"/>
  <circle cx="9" cy="3" r="1" fill="red"/>
  <circle cx="10" cy="3" r="1" fill="red"/>
  <circle cx="11" cy="3" r="1" fill="red"/>
  <circle cx="12" cy="3" r="1" fill="srgba(48.2704%,9.25917%,60.9903%,1)"/>
  <circle cx="13" cy="3" r="1" fill="srgba(13.7026%,15.4482%,100%,1)"/>
  <circle cx="14" cy="3" r="1" fill="srgba(15.1827%,15.1827%,100%,1)"/>
  <circle cx="15" cy="3" r="1" fill="srgba(15.1827%,15.1827%,100%,1)"/>
  <circle cx="0" cy="4" r="1" fill="srgba(90.7118%,90.7118%,99.9969%,1)"/>
  <circle cx="1" cy="4" r="1" fill="srgba(89.9428%,89.9428%,100%,1)"/>
  <circle cx="2" cy="4" r="1" fill="srgba(91.8395%,91.8395%,84.123%,1)"/>
  <circle cx="3" cy="4" r="1" fill="srgba(93.933%,93.933%,67.5257%,1)"/>
  <circle cx="4" cy="4" r="1" fill="srgba(90.5913%,90.5913%,100%,1)"/>
  <circle cx="5" cy="4" r="1" fill="srgba(90.6996%,90.6996%,100%,1)"/>
  <circle cx="6" cy="4" r="1" fill="srgba(90.6981%,90.7164%,100%,1)"/>
  <circle cx="7" cy="4" r="1" fill="srgba(90.6798%,90.8965%,100%,1)"/>
  <circle cx="8" cy="4" r="1" fill="srgba(96.3714%,35.3826%,39.0097%,1)"/>
  <circle cx="9" cy="4" r="1" fill="red"/>
  <circle cx="10" cy="4" r="1" fill="red"/>
  <circle cx="11" cy="4" r="1" fill="red"/>
  <circle cx="12" cy="4" r="1" fill="srgba(94.3282%,55.317%,60.9903%,1)"/>
  <circle cx="13" cy="4" r="1" fill="srgba(90.5379%,92.2835%,100%,1)"/>
  <circle cx="14" cy="4" r="1" fill="srgba(90.6996%,90.6996%,100%,1)"/>
  <circle cx="15" cy="4" r="1" fill="srgba(90.6996%,90.6996%,100%,1)"/>
  <circle cx="0" cy="5" r="1" fill="white"/>
  <circle cx="1" cy="5" r="1" fill="white"/>
  <circle cx="2" cy="5" r="1" fill="srgba(100%,100%,87.3671%,1)"/>
  <circle cx="3" cy="5" r="1" fill="srgba(100%,100%,71.667%,1)"/>
  <circle cx="4" cy="5" r="1" fill="white"/>
  <circle cx="5" cy="5" r="1" fill="white"/>
  <circle cx="6" cy="5" r="1" fill="white"/>
  <circle cx="7" cy="5" r="1" fill="white"/>
  <circle cx="8" cy="5" r="1" fill="srgba(100%,39.0097%,39.0097%,1)"/>
  <circle cx="9" cy="5" r="1" fill="red"/>
  <circle cx="10" cy="5" r="1" fill="red"/>
  <circle cx="11" cy="5" r="1" fill="red"/>
  <circle cx="12" cy="5" r="1" fill="srgba(100%,60.9903%,60.9903%,1)"/>
  <circle cx="13" cy="5" r="1" fill="white"/>
  <circle cx="14" cy="5" r="1" fill="white"/>
  <circle cx="15" cy="5" r="1" fill="white"/>
  <circle cx="0" cy="6" r="1" fill="white"/>
  <circle cx="1" cy="6" r="1" fill="white"/>
  <circle cx="2" cy="6" r="1" fill="srgba(100%,100%,90.2739%,1)"/>
  <circle cx="3" cy="6" r="1" fill="srgba(100%,100%,76.0693%,1)"/>
  <circle cx="4" cy="6" r="1" fill="white"/>
  <circle cx="5" cy="6" r="1" fill="white"/>
  <circle cx="6" cy="6" r="1" fill="white"/>
  <circle cx="7" cy="6" r="1" fill="white"/>
  <circle cx="8" cy="6" r="1" fill="srgba(100%,39.0097%,39.0097%,1)"/>
  <circle cx="9" cy="6" r="1" fill="red"/>
  <circle cx="10" cy="6" r="1" fill="red"/>
  <circle cx="11" cy="6" r="1" fill="red"/>
  <circle cx="12" cy="6" r="1" fill="srgba(100%,60.9903%,60.9903%,1)"/>
  <circle cx="13" cy="6" r="1" fill="white"/>
  <circle cx="14" cy="6" r="1" fill="white"/>
  <circle cx="15" cy="6" r="1" fill="white"/>
  <circle cx="0" cy="7" r="1" fill="srgba(86.2135%,94.5388%,86.2135%,1)"/>
  <circle cx="1" cy="7" r="1" fill="srgba(86.1677%,94.5205%,86.5934%,1)"/>
  <circle cx="2" cy="7" r="1" fill="srgba(87.0054%,94.8531%,79.8306%,1)"/>
  <circle cx="3" cy="7" r="1" fill="srgba(88.4886%,95.4406%,69.0791%,1)"/>
  <circle cx="4" cy="7" r="1" fill="srgba(86.1463%,94.5129%,86.746%,1)"/>
  <circle cx="5" cy="7" r="1" fill="srgba(86.2135%,94.5388%,86.2135%,1)"/>
  <circle cx="6" cy="7" r="1" fill="srgba(86.2104%,94.5571%,86.2303%,1)"/>
  <circle cx="7" cy="7" r="1" fill="srgba(86.183%,94.7433%,86.3996%,1)"/>
  <circle cx="8" cy="7" r="1" fill="srgba(94.6212%,36.8795%,33.6324%,1)"/>
  <circle cx="9" cy="7" r="1" fill="red"/>
  <circle cx="10" cy="7" r="1" fill="red"/>
  <circle cx="11" cy="7" r="1" fill="red"/>
  <circle cx="12" cy="7" r="1" fill="srgba(91.5923%,57.6593%,52.5811%,1)"/>
  <circle cx="13" cy="7" r="1" fill="srgba(85.9724%,96.1898%,87.718%,1)"/>
  <circle cx="14" cy="7" r="1" fill="srgba(86.2135%,94.5388%,86.2135%,1)"/>
  <circle cx="15" cy="7" r="1" fill="srgba(86.2135%,94.5388%,86.2135%,1)"/>
  <circle cx="0" cy="8" r="1" fill="srgba(10.4448%,64.5289%,10.4448%,1)"/>
  <circle cx="1" cy="8" r="1" fill="srgba(10.2007%,64.4327%,10.4829%,1)"/>
  <circle cx="2" cy="8" r="1" fill="srgba(14.7036%,66.215%,9.8024%,1)"/>
  <circle cx="3" cy="8" r="1" fill="srgba(23.1998%,69.5811%,8.62287%,1)"/>
  <circle cx="4" cy="8" r="1" fill="srgba(10.0832%,64.3854%,10.4997%,1)"/>
  <circle cx="5" cy="8" r="1" fill="srgba(10.4448%,64.5289%,10.4448%,1)"/>
  <circle cx="6" cy="8" r="1" fill="srgba(10.428%,64.5411%,10.4463%,1)"/>
  <circle cx="7" cy="8" r="1" fill="srgba(10.251%,64.6693%,10.4677%,1)"/>
  <circle cx="8" cy="8" r="1" fill="srgba(65.0645%,25.1728%,4.07416%,1)"/>
  <circle cx="9" cy="8" r="1" fill="red"/>
  <circle cx="10" cy="8" r="1" fill="red"/>
  <circle cx="11" cy="8" r="1" fill="red"/>
  <circle cx="12" cy="8" r="1" fill="srgba(45.3803%,39.3561%,6.37064%,1)"/>
  <circle cx="13" cy="8" r="1" fill="srgba(8.88075%,65.655%,10.6279%,1)"/>
  <circle cx="14" cy="8" r="1" fill="srgba(10.4448%,64.5289%,10.4448%,1)"/>
  <circle cx="15" cy="8" r="1" fill="srgba(10.4448%,64.5289%,10.4448%,1)"/>
  <circle cx="0" cy="9" r="1" fill="srgba(0%,60.1251%,0%,1)"/>
  <circle cx="1" cy="9" r="1" fill="srgba(0%,60.061%,0%,1)"/>
  <circle cx="2" cy="9" r="1" fill="srgba(2.90532%,61.2848%,0%,1)"/>
  <circle cx="3" cy="9" r="1" fill="srgba(9.48653%,63.9139%,0%,1)"/>
  <circle cx="4" cy="9" r="1" fill="srgba(0%,60.029%,0%,1)"/>
  <circle cx="5" cy="9" r="1" fill="srgba(0%,60.1251%,0%,1)"/>
  <circle cx="6" cy="9" r="1" fill="srgba(0%,60.1373%,0%,1)"/>
  <circle cx="7" cy="9" r="1" fill="srgba(0%,60.2548%,0%,1)"/>
  <circle cx="8" cy="9" r="1" fill="srgba(60.9903%,23.4546%,0%,1)"/>
  <circle cx="9" cy="9" r="1" fill="red"/>
  <circle cx="10" cy="9" r="1" fill="red"/>
  <circle cx="11" cy="9" r="1" fill="red"/>
  <circle cx="12" cy="9" r="1" fill="srgba(39.0097%,36.6705%,0%,1)"/>
  <circle cx="13" cy="9" r="1" fill="srgba(0%,61.1749%,0%,1)"/>
  <circle cx="14" cy="9" r="1" fill="srgba(0%,60.1251%,0%,1)"/>
  <circle cx="15" cy="9" r="1" fill="srgba(0%,60.1251%,0%,1)"/>
  <circle cx="0" cy="10" r="1" fill="srgba(0%,60.061%,0%,1)"/>
  <circle cx="1" cy="10" r="1" fill="srgba(0%,60.0366%,0%,1)"/>
  <circle cx="2" cy="10" r="1" fill="srgba(1.14443%,60.5188%,0%,1)"/>
  <circle cx="3" cy="10" r="1" fill="srgba(4.065%,61.6907%,0%,1)"/>
  <circle cx="4" cy="10" r="1" fill="srgba(0%,60.0244%,0%,1)"/>
  <circle cx="5" cy="10" r="1" fill="srgba(0%,60.061%,0%,1)"/>
  <circle cx="6" cy="10" r="1" fill="srgba(0%,60.0732%,0%,1)"/>
  <circle cx="7" cy="10" r="1" fill="srgba(0%,60.1907%,0%,1)"/>
  <circle cx="8" cy="10" r="1" fill="srgba(60.9903%,23.4302%,0%,1)"/>
  <circle cx="9" cy="10" r="1" fill="red"/>
  <circle cx="10" cy="10" r="1" fill="red"/>
  <circle cx="11" cy="10" r="1" fill="red"/>
  <circle cx="12" cy="10" r="1" fill="srgba(39.0097%,36.6308%,0%,1)"/>
  <circle cx="13" cy="10" r="1" fill="srgba(0%,61.1093%,0%,1)"/>
  <circle cx="14" cy="10" r="1" fill="srgba(0%,60.061%,0%,1)"/>
  <circle cx="15" cy="10" r="1" fill="srgba(0%,60.061%,0%,1)"/>
  <circle cx="0" cy="11" r="1" fill="srgba(12.9213%,65.5085%,0.425727%,1)"/>
  <circle cx="1" cy="11" r="1" fill="srgba(12.9046%,65.5024%,0.425727%,1)"/>
  <circle cx="2" cy="11" r="1" fill="srgba(13.2769%,65.6489%,0.421149%,1)"/>
  <circle cx="3" cy="11" r="1" fill="srgba(14.3572%,66.0777%,0.408942%,1)"/>
  <circle cx="4" cy="11" r="1" fill="srgba(12.8985%,65.4994%,0.425727%,1)"/>
  <circle cx="5" cy="11" r="1" fill="srgba(12.9213%,65.5085%,0.425727%,1)"/>
  <circle cx="6" cy="11" r="1" fill="srgba(12.9046%,65.5207%,0.425727%,1)"/>
  <circle cx="7" cy="11" r="1" fill="srgba(12.7321%,65.6504%,0.427253%,1)"/>
  <circle cx="8" cy="11" r="1" fill="srgba(66.0304%,25.5543%,0.166323%,1)"/>
  <circle cx="9" cy="11" r="1" fill="red"/>
  <circle cx="10" cy="11" r="1" fill="red"/>
  <circle cx="11" cy="11" r="1" fill="red"/>
  <circle cx="12" cy="11" r="1" fill="srgba(46.891%,39.9542%,0.259403%,1)"/>
  <circle cx="13" cy="11" r="1" fill="srgba(11.4015%,66.6529%,0.433356%,1)"/>
  <circle cx="14" cy="11" r="1" fill="srgba(12.9213%,65.5085%,0.425727%,1)"/>
  <circle cx="15" cy="11" r="1" fill="srgba(12.9213%,65.5085%,0.425727%,1)"/>
  <circle cx="0" cy="12" r="1" fill="srgba(88.7434%,95.5398%,0.399786%,1)"/>
  <circle cx="1" cy="12" r="1" fill="srgba(88.7388%,95.5383%,0.399786%,1)"/>
  <circle cx="2" cy="12" r="1" fill="srgba(88.8319%,95.5749%,0.395209%,1)"/>
  <circle cx="3" cy="12" r="1" fill="srgba(89.1157%,95.6878%,0.383001%,1)"/>
  <circle cx="4" cy="12" r="1" fill="srgba(88.7373%,95.5383%,0.399786%,1)"/>
  <circle cx="5" cy="12" r="1" fill="srgba(88.7434%,95.5398%,0.399786%,1)"/>
  <circle cx="6" cy="12" r="1" fill="srgba(88.7419%,95.5581%,0.399786%,1)"/>
  <circle cx="7" cy="12" r="1" fill="srgba(88.719%,95.7473%,0.401312%,1)"/>
  <circle cx="8" cy="12" r="1" fill="srgba(95.6085%,37.2702%,0.155642%,1)"/>
  <circle cx="9" cy="12" r="1" fill="red"/>
  <circle cx="10" cy="12" r="1" fill="red"/>
  <circle cx="11" cy="12" r="1" fill="red"/>
  <circle cx="12" cy="12" r="1" fill="srgba(93.135%,58.2696%,0.244144%,1)"/>
  <circle cx="13" cy="12" r="1" fill="srgba(88.5466%,97.2076%,0.407416%,1)"/>
  <circle cx="14" cy="12" r="1" fill="srgba(88.7434%,95.5398%,0.399786%,1)"/>
  <circle cx="15" cy="12" r="1" fill="srgba(88.7434%,95.5398%,0.399786%,1)"/>
  <circle cx="0" cy="13" r="1" fill="yellow"/>
  <circle cx="1" cy="13" r="1" fill="yellow"/>
  <circle cx="2" cy="13" r="1" fill="yellow"/>
  <circle cx="3" cy="13" r="1" fill="yellow"/>
  <circle cx="4" cy="13" r="1" fill="yellow"/>
  <circle cx="5" cy="13" r="1" fill="yellow"/>
  <circle cx="6" cy="13" r="1" fill="yellow"/>
  <circle cx="7" cy="13" r="1" fill="yellow"/>
  <circle cx="8" cy="13" r="1" fill="srgba(100%,39.0097%,0%,1)"/>
  <circle cx="9" cy="13" r="1" fill="red"/>
  <circle cx="10" cy="13" r="1" fill="red"/>
  <circle cx="11" cy="13" r="1" fill="red"/>
  <circle cx="12" cy="13" r="1" fill="srgba(100%,60.9903%,0%,1)"/>
  <circle cx="13" cy="13" r="1" fill="yellow"/>
  <circle cx="14" cy="13" r="1" fill="yellow"/>
  <circle cx="15" cy="13" r="1" fill="yellow"/>
  <circle cx="0" cy="14" r="1" fill="yellow"/>
  <circle cx="1" cy="14" r="1" fill="yellow"/>
  <circle cx="2" cy="14" r="1" fill="yellow"/>
  <circle cx="3" cy="14" r="1" fill="yellow"/>
  <circle cx="4" cy="14" r="1" fill="yellow"/>
  <circle cx="5" cy="14" r="1" fill="yellow"/>
  <circle cx="6" cy="14" r="1" fill="yellow"/>
  <circle cx="7" cy="14" r="1" fill="yellow"/>
  <circle cx="8" cy="14" r="1" fill="srgba(100%,39.0097%,0%,1)"/>
  <circle cx="9" cy="14" r="1" fill="red"/>
  <circle cx="10" cy="14" r="1" fill="red"/>
  <circle cx="11" cy="14" r="1" fill="red"/>
  <circle cx="12" cy="14" r="1" fill="srgba(100%,60.9903%,0%,1)"/>
  <circle cx="13" cy="14" r="1" fill="yellow"/>
  <circle cx="14" cy="14" r="1" fill="yellow"/>
  <circle cx="15" cy="14" r="1" fill="yellow"/>
  <circle cx="0" cy="15" r="1" fill="yellow"/>
  <circle cx="1" cy="15" r="1" fill="yellow"/>
  <circle cx="2" cy="15" r="1" fill="yellow"/>
  <circle cx="3" cy="15" r="1" fill="yellow"/>
  <circle cx="4" cy="15" r="1" fill="yellow"/>
  <circle cx="5" cy="15" r="1" fill="yellow"/>
  <circle cx="6" cy="15" r="1" fill="yellow"/>
  <circle cx="7" cy="15" r="1" fill="yellow"/>
  <circle cx="8" cy="15" r="1" fill="srgba(100%,39.0097%,0%,1)"/>
  <circle cx="9" cy="15" r="1" fill="red"/>
  <circle cx="10" cy="15" r="1" fill="red"/>
  <circle cx="11" cy="15" r="1" fill="red"/>
  <circle cx="12" cy="15" r="1" fill="srgba(100%,60.9903%,0%,1)"/>
  <circle cx="13" cy="15" r="1" fill="yellow"/>
  <circle cx="14" cy="15" r="1" fill="yellow"/>
  <circle cx="15" cy="15" r="1" fill="yellow"/>
</svg>
