<?xml version="1.0" standalone="no"?>
<!DOCTYPE svg PUBLIC "-//W3C//DTD SVG 20010904//EN"
  "http://www.w3.org/TR/2001/REC-SVG-20010904/DTD/svg10.dtd">
<svg width="16" height="16">
  <circle cx="0" cy="0" r="1" fill="srgba(0,202,0,1)"/>
  <circle cx="1" cy="0" r="1" fill="srgba(0,202,0,1)"/>
  <circle cx="2" cy="0" r="1" fill="srgba(0,202,0,1)"/>
  <circle cx="3" cy="0" r="1" fill="srgba(0,202,0,1)"/>
  <circle cx="4" cy="0" r="1" fill="srgba(0,202,0,1)"/>
  <circle cx="5" cy="0" r="1" fill="srgba(0,202,0,1)"/>
  <circle cx="6" cy="0" r="1" fill="srgba(0,202,0,1)"/>
  <circle cx="7" cy="0" r="1" fill="srgba(0,202,0,1)"/>
  <circle cx="8" cy="0" r="1" fill="srgba(0%,79.2172%,0%,1)"/>
  <circle cx="9" cy="0" r="1" fill="srgba(0%,79.1836%,0%,1)"/>
  <circle cx="10" cy="0" r="1" fill="srgba(0.143435%,79.0616%,0%,1)"/>
  <circle cx="11" cy="0" r="1" fill="srgba(37.0993%,86.8971%,0%,1)"/>
  <circle cx="12" cy="0" r="1" fill="srgba(94.8547%,98.9288%,0%,1)"/>
  <circle cx="13" cy="0" r="1" fill="yellow"/>
  <circle cx="14" cy="0" r="1" fill="yellow"/>
  <circle cx="15" cy="0" r="1" fill="srgba(100%,100%,0.161746%,1)"/>
  <circle cx="0" cy="1" r="1" fill="srgba(0,202,0,1)"/>
  <circle cx="1" cy="1" r="1" fill="srgba(0,202,0,1)"/>
  <circle cx="2" cy="1" r="1" fill="srgba(0,202,0,1)"/>
  <circle cx="3" cy="1" r="1" fill="srgba(0,202,0,1)"/>
  <circle cx="4" cy="1" r="1" fill="srgba(0,202,0,1)"/>
  <circle cx="5" cy="1" r="1" fill="srgba(0,202,0,1)"/>
  <circle cx="6" cy="1" r="1" fill="srgba(0,202,0,1)"/>
  <circle cx="7" cy="1" r="1" fill="srgba(0%,79.2172%,0%,1)"/>
  <circle cx="8" cy="1" r="1" fill="srgba(0%,79.1882%,0%,1)"/>
  <circle cx="9" cy="1" r="1" fill="srgba(0.122072%,79.0814%,0%,1)"/>
  <circle cx="10" cy="1" r="1" fill="srgba(32.3217%,85.9068%,0%,1)"/>
  <circle cx="11" cy="1" r="1" fill="srgba(89.9702%,97.9141%,0%,1)"/>
  <circle cx="12" cy="1" r="1" fill="yellow"/>
  <circle cx="13" cy="1" r="1" fill="yellow"/>
  <circle cx="14" cy="1" r="1" fill="yellow"/>
  <circle cx="15" cy="1" r="1" fill="srgba(100%,100%,0.161746%,1)"/>
  <circle cx="0" cy="2" r="1" fill="srgba(0,202,0,1)"/>
  <circle cx="1" cy="2" r="1" fill="srgba(0,202,0,1)"/>
  <circle cx="2" cy="2" r="1" fill="srgba(0,202,0,1)"/>
  <circle cx="3" cy="2" r="1" fill="srgba(0,202,0,1)"/>
  <circle cx="4" cy="2" r="1" fill="srgba(0,202,0,1)"/>
  <circle cx="5" cy="2" r="1" fill="srgba(0,202,0,1)"/>
  <circle cx="6" cy="2" r="1" fill="srgba(0%,79.2172%,0%,1)"/>
  <circle cx="7" cy="2" r="1" fill="srgba(0%,79.1882%,0%,1)"/>
  <circle cx="8" cy="2" r="1" fill="srgba(0.123598%,79.0799%,0%,1)"/>
  <circle cx="9" cy="2" r="1" fill="srgba(32.5887%,85.9632%,0%,1)"/>
  <circle cx="10" cy="2" r="1" fill="srgba(90.3868%,98.0011%,0%,1)"/>
  <circle cx="11" cy="2" r="1" fill="yellow"/>
  <circle cx="12" cy="2" r="1" fill="yellow"/>
  <circle cx="13" cy="2" r="1" fill="yellow"/>
  <circle cx="14" cy="2" r="1" fill="yellow"/>
  <circle cx="15" cy="2" r="1" fill="srgba(100%,100%,0.161746%,1)"/>
  <circle cx="0" cy="3" r="1" fill="srgba(0,202,0,1)"/>
  <circle cx="1" cy="3" r="1" fill="srgba(0,202,0,1)"/>
  <circle cx="2" cy="3" r="1" fill="srgba(0,202,0,1)"/>
  <circle cx="3" cy="3" r="1" fill="srgba(0,202,0,1)"/>
  <circle cx="4" cy="3" r="1" fill="srgba(0,202,0,1)"/>
  <circle cx="5" cy="3" r="1" fill="srgba(0%,79.2172%,0%,1)"/>
  <circle cx="6" cy="3" r="1" fill="srgba(0%,79.1882%,0%,1)"/>
  <circle cx="7" cy="3" r="1" fill="srgba(0.123598%,79.0799%,0%,1)"/>
  <circle cx="8" cy="3" r="1" fill="srgba(32.5887%,85.9632%,0%,1)"/>
  <circle cx="9" cy="3" r="1" fill="srgba(90.3868%,98.0011%,0%,1)"/>
  <circle cx="10" cy="3" r="1" fill="yellow"/>
  <circle cx="11" cy="3" r="1" fill="yellow"/>
  <circle cx="12" cy="3" r="1" fill="yellow"/>
  <circle cx="13" cy="3" r="1" fill="yellow"/>
  <circle cx="14" cy="3" r="1" fill="yellow"/>
  <circle cx="15" cy="3" r="1" fill="srgba(100%,99.9481%,0.158694%,1)"/>
  <circle cx="0" cy="4" r="1" fill="srgba(0,202,0,1)"/>
  <circle cx="1" cy="4" r="1" fill="srgba(0,202,0,1)"/>
  <circle cx="2" cy="4" r="1" fill="srgba(0,202,0,1)"/>
  <circle cx="3" cy="4" r="1" fill="srgba(0,202,0,1)"/>
  <circle cx="4" cy="4" r="1" fill="srgba(0%,79.2172%,0%,1)"/>
  <circle cx="5" cy="4" r="1" fill="srgba(0%,79.1882%,0%,1)"/>
  <circle cx="6" cy="4" r="1" fill="srgba(0.123598%,79.0799%,0%,1)"/>
  <circle cx="7" cy="4" r="1" fill="srgba(32.5887%,85.9632%,0%,1)"/>
  <circle cx="8" cy="4" r="1" fill="srgba(90.3868%,98.0011%,0%,1)"/>
  <circle cx="9" cy="4" r="1" fill="yellow"/>
  <circle cx="10" cy="4" r="1" fill="yellow"/>
  <circle cx="11" cy="4" r="1" fill="yellow"/>
  <circle cx="12" cy="4" r="1" fill="yellow"/>
  <circle cx="13" cy="4" r="1" fill="yellow"/>
  <circle cx="14" cy="4" r="1" fill="srgba(100%,99.2401%,0%,1)"/>
  <circle cx="15" cy="4" r="1" fill="srgba(100%,73.8811%,0.0610361%,1)"/>
  <circle cx="0" cy="5" r="1" fill="srgba(0,202,0,1)"/>
  <circle cx="1" cy="5" r="1" fill="srgba(0,202,0,1)"/>
  <circle cx="2" cy="5" r="1" fill="srgba(0,202,0,1)"/>
  <circle cx="3" cy="5" r="1" fill="srgba(0%,79.2172%,0%,1)"/>
  <circle cx="4" cy="5" r="1" fill="srgba(0%,79.1882%,0%,1)"/>
  <circle cx="5" cy="5" r="1" fill="srgba(0.123598%,79.0799%,0%,1)"/>
  <circle cx="6" cy="5" r="1" fill="srgba(32.5887%,85.9632%,0%,1)"/>
  <circle cx="7" cy="5" r="1" fill="srgba(90.3868%,98.0011%,0%,1)"/>
  <circle cx="8" cy="5" r="1" fill="yellow"/>
  <circle cx="9" cy="5" r="1" fill="yellow"/>
  <circle cx="10" cy="5" r="1" fill="yellow"/>
  <circle cx="11" cy="5" r="1" fill="yellow"/>
  <circle cx="12" cy="5" r="1" fill="yellow"/>
  <circle cx="13" cy="5" r="1" fill="srgba(100%,99.8672%,0%,1)"/>
  <circle cx="14" cy="5" r="1" fill="srgba(100%,66.7842%,0%,1)"/>
  <circle cx="15" cy="5" r="1" fill="srgba(100%,11.0018%,0.0122072%,1)"/>
  <circle cx="0" cy="6" r="1" fill="srgba(0,202,0,1)"/>
  <circle cx="1" cy="6" r="1" fill="srgba(0,202,0,1)"/>
  <circle cx="2" cy="6" r="1" fill="srgba(0%,79.2172%,0%,1)"/>
  <circle cx="3" cy="6" r="1" fill="srgba(0%,79.1882%,0%,1)"/>
  <circle cx="4" cy="6" r="1" fill="srgba(0.123598%,79.0799%,0%,1)"/>
  <circle cx="5" cy="6" r="1" fill="srgba(32.5887%,85.9632%,0%,1)"/>
  <circle cx="6" cy="6" r="1" fill="srgba(90.3868%,98.0011%,0%,1)"/>
  <circle cx="7" cy="6" r="1" fill="yellow"/>
  <circle cx="8" cy="6" r="1" fill="yellow"/>
  <circle cx="9" cy="6" r="1" fill="yellow"/>
  <circle cx="10" cy="6" r="1" fill="yellow"/>
  <circle cx="11" cy="6" r="1" fill="yellow"/>
  <circle cx="12" cy="6" r="1" fill="srgba(100%,99.8672%,0%,1)"/>
  <circle cx="13" cy="6" r="1" fill="srgba(100%,67.3121%,0%,1)"/>
  <circle cx="14" cy="6" r="1" fill="srgba(100%,9.47585%,0%,1)"/>
  <circle cx="15" cy="6" r="1" fill="srgba(100%,0%,0.015259%,1)"/>
  <circle cx="0" cy="7" r="1" fill="srgba(0,202,0,1)"/>
  <circle cx="1" cy="7" r="1" fill="srgba(0%,79.2172%,0%,1)"/>
  <circle cx="2" cy="7" r="1" fill="srgba(0%,79.1882%,0%,1)"/>
  <circle cx="3" cy="7" r="1" fill="srgba(0.123598%,79.0799%,0%,1)"/>
  <circle cx="4" cy="7" r="1" fill="srgba(32.5887%,85.9632%,0%,1)"/>
  <circle cx="5" cy="7" r="1" fill="srgba(90.3868%,98.0011%,0%,1)"/>
  <circle cx="6" cy="7" r="1" fill="yellow"/>
  <circle cx="7" cy="7" r="1" fill="yellow"/>
  <circle cx="8" cy="7" r="1" fill="yellow"/>
  <circle cx="9" cy="7" r="1" fill="yellow"/>
  <circle cx="10" cy="7" r="1" fill="yellow"/>
  <circle cx="11" cy="7" r="1" fill="srgba(100%,99.8672%,0%,1)"/>
  <circle cx="12" cy="7" r="1" fill="srgba(100%,67.3121%,0%,1)"/>
  <circle cx="13" cy="7" r="1" fill="srgba(100%,9.55978%,0%,1)"/>
  <circle cx="14" cy="7" r="1" fill="red"/>
  <circle cx="15" cy="7" r="1" fill="srgba(100%,0.161746%,0.015259%,1)"/>
  <circle cx="0" cy="8" r="1" fill="srgba(0%,79.2172%,0%,1)"/>
  <circle cx="1" cy="8" r="1" fill="srgba(0%,79.1882%,0%,1)"/>
  <circle cx="2" cy="8" r="1" fill="srgba(0.123598%,79.0799%,0%,1)"/>
  <circle cx="3" cy="8" r="1" fill="srgba(32.5887%,85.9632%,0%,1)"/>
  <circle cx="4" cy="8" r="1" fill="srgba(90.3868%,98.0011%,0%,1)"/>
  <circle cx="5" cy="8" r="1" fill="yellow"/>
  <circle cx="6" cy="8" r="1" fill="yellow"/>
  <circle cx="7" cy="8" r="1" fill="yellow"/>
  <circle cx="8" cy="8" r="1" fill="yellow"/>
  <circle cx="9" cy="8" r="1" fill="yellow"/>
  <circle cx="10" cy="8" r="1" fill="srgba(100%,99.8672%,0%,1)"/>
  <circle cx="11" cy="8" r="1" fill="srgba(100%,67.3121%,0%,1)"/>
  <circle cx="12" cy="8" r="1" fill="srgba(100%,9.55978%,0%,1)"/>
  <circle cx="13" cy="8" r="1" fill="red"/>
  <circle cx="14" cy="8" r="1" fill="red"/>
  <circle cx="15" cy="8" r="1" fill="srgba(100%,0.161746%,0.015259%,1)"/>
  <circle cx="0" cy="9" r="1" fill="srgba(0%,79.1836%,0%,1)"/>
  <circle cx="1" cy="9" r="1" fill="srgba(0.122072%,79.0814%,0%,1)"/>
  <circle cx="2" cy="9" r="1" fill="srgba(32.5887%,85.9632%,0%,1)"/>
  <circle cx="3" cy="9" r="1" fill="srgba(90.3868%,98.0011%,0%,1)"/>
  <circle cx="4" cy="9" r="1" fill="yellow"/>
  <circle cx="5" cy="9" r="1" fill="yellow"/>
  <circle cx="6" cy="9" r="1" fill="yellow"/>
  <circle cx="7" cy="9" r="1" fill="yellow"/>
  <circle cx="8" cy="9" r="1" fill="yellow"/>
  <circle cx="9" cy="9" r="1" fill="srgba(100%,99.8672%,0%,1)"/>
  <circle cx="10" cy="9" r="1" fill="srgba(100%,67.3121%,0%,1)"/>
  <circle cx="11" cy="9" r="1" fill="srgba(100%,9.55978%,0%,1)"/>
  <circle cx="12" cy="9" r="1" fill="red"/>
  <circle cx="13" cy="9" r="1" fill="red"/>
  <circle cx="14" cy="9" r="1" fill="red"/>
  <circle cx="15" cy="9" r="1" fill="srgba(100%,0.161746%,0.015259%,1)"/>
  <circle cx="0" cy="10" r="1" fill="srgba(0.140383%,79.0616%,0%,1)"/>
  <circle cx="1" cy="10" r="1" fill="srgba(32.3354%,85.9098%,0%,1)"/>
  <circle cx="2" cy="10" r="1" fill="srgba(90.3868%,98.0011%,0%,1)"/>
  <circle cx="3" cy="10" r="1" fill="yellow"/>
  <circle cx="4" cy="10" r="1" fill="yellow"/>
  <circle cx="5" cy="10" r="1" fill="yellow"/>
  <circle cx="6" cy="10" r="1" fill="yellow"/>
  <circle cx="7" cy="10" r="1" fill="yellow"/>
  <circle cx="8" cy="10" r="1" fill="srgba(100%,99.8672%,0%,1)"/>
  <circle cx="9" cy="10" r="1" fill="srgba(100%,67.3121%,0%,1)"/>
  <circle cx="10" cy="10" r="1" fill="srgba(100%,9.55978%,0%,1)"/>
  <circle cx="11" cy="10" r="1" fill="red"/>
  <circle cx="12" cy="10" r="1" fill="red"/>
  <circle cx="13" cy="10" r="1" fill="red"/>
  <circle cx="14" cy="10" r="1" fill="red"/>
  <circle cx="15" cy="10" r="1" fill="srgba(100%,0.161746%,0.015259%,1)"/>
  <circle cx="0" cy="11" r="1" fill="srgba(37.0108%,86.9032%,0%,1)"/>
  <circle cx="1" cy="11" r="1" fill="srgba(89.6895%,97.8546%,0%,1)"/>
  <circle cx="2" cy="11" r="1" fill="yellow"/>
  <circle cx="3" cy="11" r="1" fill="yellow"/>
  <circle cx="4" cy="11" r="1" fill="yellow"/>
  <circle cx="5" cy="11" r="1" fill="yellow"/>
  <circle cx="6" cy="11" r="1" fill="yellow"/>
  <circle cx="7" cy="11" r="1" fill="srgba(100%,99.8672%,0%,1)"/>
  <circle cx="8" cy="11" r="1" fill="srgba(100%,67.3121%,0%,1)"/>
  <circle cx="9" cy="11" r="1" fill="srgba(100%,9.55978%,0%,1)"/>
  <circle cx="10" cy="11" r="1" fill="red"/>
  <circle cx="11" cy="11" r="1" fill="red"/>
  <circle cx="12" cy="11" r="1" fill="red"/>
  <circle cx="13" cy="11" r="1" fill="red"/>
  <circle cx="14" cy="11" r="1" fill="red"/>
  <circle cx="15" cy="11" r="1" fill="srgba(100%,0.161746%,0.015259%,1)"/>
  <circle cx="0" cy="12" r="1" fill="srgba(94.2962%,98.8128%,0%,1)"/>
  <circle cx="1" cy="12" r="1" fill="yellow"/>
  <circle cx="2" cy="12" r="1" fill="yellow"/>
  <circle cx="3" cy="12" r="1" fill="yellow"/>
  <circle cx="4" cy="12" r="1" fill="yellow"/>
  <circle cx="5" cy="12" r="1" fill="yellow"/>
  <circle cx="6" cy="12" r="1" fill="srgba(100%,99.8672%,0%,1)"/>
  <circle cx="7" cy="12" r="1" fill="srgba(100%,67.3121%,0%,1)"/>
  <circle cx="8" cy="12" r="1" fill="srgba(100%,9.55978%,0%,1)"/>
  <circle cx="9" cy="12" r="1" fill="red"/>
  <circle cx="10" cy="12" r="1" fill="red"/>
  <circle cx="11" cy="12" r="1" fill="red"/>
  <circle cx="12" cy="12" r="1" fill="red"/>
  <circle cx="13" cy="12" r="1" fill="red"/>
  <circle cx="14" cy="12" r="1" fill="red"/>
  <circle cx="15" cy="12" r="1" fill="srgba(100%,0.161746%,0.015259%,1)"/>
  <circle cx="0" cy="13" r="1" fill="yellow"/>
  <circle cx="1" cy="13" r="1" fill="yellow"/>
  <circle cx="2" cy="13" r="1" fill="yellow"/>
  <circle cx="3" cy="13" r="1" fill="yellow"/>
  <circle cx="4" cy="13" r="1" fill="yellow"/>
  <circle cx="5" cy="13" r="1" fill="srgba(100%,99.8672%,0%,1)"/>
  <circle cx="6" cy="13" r="1" fill="srgba(100%,67.3121%,0%,1)"/>
  <circle cx="7" cy="13" r="1" fill="srgba(100%,9.55978%,0%,1)"/>
  <circle cx="8" cy="13" r="1" fill="red"/>
  <circle cx="9" cy="13" r="1" fill="red"/>
  <circle cx="10" cy="13" r="1" fill="red"/>
  <circle cx="11" cy="13" r="1" fill="red"/>
  <circle cx="12" cy="13" r="1" fill="red"/>
  <circle cx="13" cy="13" r="1" fill="red"/>
  <circle cx="14" cy="13" r="1" fill="red"/>
  <circle cx="15" cy="13" r="1" fill="srgba(100%,0.161746%,0.015259%,1)"/>
  <circle cx="0" cy="14" r="1" fill="yellow"/>
  <circle cx="1" cy="14" r="1" fill="yellow"/>
  <circle cx="2" cy="14" r="1" fill="yellow"/>
  <circle cx="3" cy="14" r="1" fill="yellow"/>
  <circle cx="4" cy="14" r="1" fill="srgba(100%,99.7147%,0%,1)"/>
  <circle cx="5" cy="14" r="1" fill="srgba(100%,66.833%,0%,1)"/>
  <circle cx="6" cy="14" r="1" fill="srgba(100%,9.47738%,0%,1)"/>
  <circle cx="7" cy="14" r="1" fill="red"/>
  <circle cx="8" cy="14" r="1" fill="red"/>
  <circle cx="9" cy="14" r="1" fill="red"/>
  <circle cx="10" cy="14" r="1" fill="red"/>
  <circle cx="11" cy="14" r="1" fill="red"/>
  <circle cx="12" cy="14" r="1" fill="red"/>
  <circle cx="13" cy="14" r="1" fill="red"/>
  <circle cx="14" cy="14" r="1" fill="red"/>
  <circle cx="15" cy="14" r="1" fill="srgba(100%,0.161746%,0.015259%,1)"/>
  <circle cx="0" cy="15" r="1" fill="srgba(100%,100%,0.131228%,1)"/>
  <circle cx="1" cy="15" r="1" fill="srgba(100%,100%,0.131228%,1)"/>
  <circle cx="2" cy="15" r="1" fill="srgba(100%,100%,0.131228%,1)"/>
  <circle cx="3" cy="15" r="1" fill="srgba(100%,100%,0.129702%,1)"/>
  <circle cx="4" cy="15" r="1" fill="srgba(100%,73.9513%,0.0457771%,1)"/>
  <circle cx="5" cy="15" r="1" fill="srgba(100%,11.1131%,0.00610361%,1)"/>
  <circle cx="6" cy="15" r="1" fill="srgba(100%,0%,0.00762951%,1)"/>
  <circle cx="7" cy="15" r="1" fill="srgba(100%,0.131228%,0.00762951%,1)"/>
  <circle cx="8" cy="15" r="1" fill="srgba(100%,0.131228%,0.00762951%,1)"/>
  <circle cx="9" cy="15" r="1" fill="srgba(100%,0.131228%,0.00762951%,1)"/>
  <circle cx="10" cy="15" r="1" fill="srgba(100%,0.131228%,0.00762951%,1)"/>
  <circle cx="11" cy="15" r="1" fill="srgba(100%,0.131228%,0.00762951%,1)"/>
  <circle cx="12" cy="15" r="1" fill="srgba(100%,0.131228%,0.00762951%,1)"/>
  <circle cx="13" cy="15" r="1" fill="srgba(100%,0.131228%,0.00762951%,1)"/>
  <circle cx="14" cy="15" r="1" fill="srgba(100%,0.122072%,0.00610361%,1)"/>
  <circle cx="15" cy="15" r="1" fill="srgba(100%,0.292973%,0.0228885%,1)"/>
</svg>
