<?xml version="1.0" standalone="no"?>
<!DOCTYPE svg PUBLIC "-//W3C//DTD SVG 20010904//EN"
  "http://www.w3.org/TR/2001/REC-SVG-20010904/DTD/svg10.dtd">
<svg width="16" height="16">
  <circle cx="0" cy="0" r="1" fill="srgba(213,43,30,1)"/>
  <circle cx="1" cy="0" r="1" fill="srgba(213,43,30,1)"/>
  <circle cx="2" cy="0" r="1" fill="srgba(213,43,30,1)"/>
  <circle cx="3" cy="0" r="1" fill="srgba(213,43,30,1)"/>
  <circle cx="4" cy="0" r="1" fill="srgba(213,43,30,1)"/>
  <circle cx="5" cy="0" r="1" fill="srgba(213,43,30,1)"/>
  <circle cx="6" cy="0" r="1" fill="srgba(213,43,30,1)"/>
  <circle cx="7" cy="0" r="1" fill="srgba(213,43,30,1)"/>
  <circle cx="8" cy="0" r="1" fill="srgba(213,43,30,1)"/>
  <circle cx="9" cy="0" r="1" fill="srgba(213,43,30,1)"/>
  <circle cx="10" cy="0" r="1" fill="srgba(213,43,30,1)"/>
  <circle cx="11" cy="0" r="1" fill="srgba(213,43,30,1)"/>
  <circle cx="12" cy="0" r="1" fill="srgba(213,43,30,1)"/>
  <circle cx="13" cy="0" r="1" fill="srgba(213,43,30,1)"/>
  <circle cx="14" cy="0" r="1" fill="srgba(83.5294%,16.8612%,11.7632%,1)"/>
  <circle cx="15" cy="0" r="1" fill="srgba(83.5294%,16.878%,11.7876%,1)"/>
  <circle cx="0" cy="1" r="1" fill="srgba(213,43,30,1)"/>
  <circle cx="1" cy="1" r="1" fill="srgba(213,43,30,1)"/>
  <circle cx="2" cy="1" r="1" fill="srgba(213,43,30,1)"/>
  <circle cx="3" cy="1" r="1" fill="srgba(213,43,30,1)"/>
  <circle cx="4" cy="1" r="1" fill="srgba(213,43,30,1)"/>
  <circle cx="5" cy="1" r="1" fill="srgba(83.5309%,16.8719%,11.7739%,1)"/>
  <circle cx="6" cy="1" r="1" fill="srgba(83.4653%,16.5393%,11.4229%,1)"/>
  <circle cx="7" cy="1" r="1" fill="srgba(83.3997%,16.2081%,11.0719%,1)"/>
  <circle cx="8" cy="1" r="1" fill="srgba(83.3997%,16.2081%,11.0719%,1)"/>
  <circle cx="9" cy="1" r="1" fill="srgba(83.4653%,16.5408%,11.4229%,1)"/>
  <circle cx="10" cy="1" r="1" fill="srgba(83.5309%,16.8719%,11.7739%,1)"/>
  <circle cx="11" cy="1" r="1" fill="srgba(213,43,30,1)"/>
  <circle cx="12" cy="1" r="1" fill="srgba(213,43,30,1)"/>
  <circle cx="13" cy="1" r="1" fill="srgba(213,43,30,1)"/>
  <circle cx="14" cy="1" r="1" fill="srgba(83.5294%,16.8612%,11.7632%,1)"/>
  <circle cx="15" cy="1" r="1" fill="srgba(83.5294%,16.878%,11.7876%,1)"/>
  <circle cx="0" cy="2" r="1" fill="srgba(213,43,30,1)"/>
  <circle cx="1" cy="2" r="1" fill="srgba(213,43,30,1)"/>
  <circle cx="2" cy="2" r="1" fill="srgba(213,43,30,1)"/>
  <circle cx="3" cy="2" r="1" fill="srgba(213,43,30,1)"/>
  <circle cx="4" cy="2" r="1" fill="srgba(213,43,30,1)"/>
  <circle cx="5" cy="2" r="1" fill="srgba(83.5019%,16.7239%,11.6167%,1)"/>
  <circle cx="6" cy="2" r="1" fill="srgba(84.5228%,21.883%,17.0932%,1)"/>
  <circle cx="7" cy="2" r="1" fill="srgba(85.5436%,27.0375%,22.562%,1)"/>
  <circle cx="8" cy="2" r="1" fill="srgba(85.5436%,27.0359%,22.562%,1)"/>
  <circle cx="9" cy="2" r="1" fill="srgba(84.5228%,21.8769%,17.0855%,1)"/>
  <circle cx="10" cy="2" r="1" fill="srgba(83.5019%,16.7224%,11.6167%,1)"/>
  <circle cx="11" cy="2" r="1" fill="srgba(213,43,30,1)"/>
  <circle cx="12" cy="2" r="1" fill="srgba(213,43,30,1)"/>
  <circle cx="13" cy="2" r="1" fill="srgba(213,43,30,1)"/>
  <circle cx="14" cy="2" r="1" fill="srgba(83.5294%,16.8612%,11.7632%,1)"/>
  <circle cx="15" cy="2" r="1" fill="srgba(83.5294%,16.878%,11.7876%,1)"/>
  <circle cx="0" cy="3" r="1" fill="srgba(213,43,30,1)"/>
  <circle cx="1" cy="3" r="1" fill="srgba(213,43,30,1)"/>
  <circle cx="2" cy="3" r="1" fill="srgba(213,43,30,1)"/>
  <circle cx="3" cy="3" r="1" fill="srgba(213,43,30,1)"/>
  <circle cx="4" cy="3" r="1" fill="srgba(213,43,30,1)"/>
  <circle cx="5" cy="3" r="1" fill="srgba(83.328%,15.8465%,10.6874%,1)"/>
  <circle cx="6" cy="3" r="1" fill="srgba(90.7713%,53.4401%,50.5928%,1)"/>
  <circle cx="7" cy="3" r="1" fill="srgba(98.2147%,90.9972%,90.4448%,1)"/>
  <circle cx="8" cy="3" r="1" fill="srgba(98.2147%,90.9957%,90.4417%,1)"/>
  <circle cx="9" cy="3" r="1" fill="srgba(90.7713%,53.402%,50.5364%,1)"/>
  <circle cx="10" cy="3" r="1" fill="srgba(83.328%,15.845%,10.6844%,1)"/>
  <circle cx="11" cy="3" r="1" fill="srgba(213,43,30,1)"/>
  <circle cx="12" cy="3" r="1" fill="srgba(213,43,30,1)"/>
  <circle cx="13" cy="3" r="1" fill="srgba(213,43,30,1)"/>
  <circle cx="14" cy="3" r="1" fill="srgba(83.5294%,16.8612%,11.7632%,1)"/>
  <circle cx="15" cy="3" r="1" fill="srgba(83.5294%,16.878%,11.7876%,1)"/>
  <circle cx="0" cy="4" r="1" fill="srgba(213,43,30,1)"/>
  <circle cx="1" cy="4" r="1" fill="srgba(213,43,30,1)"/>
  <circle cx="2" cy="4" r="1" fill="srgba(213,43,30,1)"/>
  <circle cx="3" cy="4" r="1" fill="srgba(213,43,30,1)"/>
  <circle cx="4" cy="4" r="1" fill="srgba(213,43,30,1)"/>
  <circle cx="5" cy="4" r="1" fill="srgba(83.3005%,15.7076%,10.5394%,1)"/>
  <circle cx="6" cy="4" r="1" fill="srgba(91.7647%,58.4527%,55.9152%,1)"/>
  <circle cx="7" cy="4" r="1" fill="white"/>
  <circle cx="8" cy="4" r="1" fill="white"/>
  <circle cx="9" cy="4" r="1" fill="srgba(91.7647%,58.4268%,55.8679%,1)"/>
  <circle cx="10" cy="4" r="1" fill="srgba(83.3005%,15.7061%,10.5364%,1)"/>
  <circle cx="11" cy="4" r="1" fill="srgba(213,43,30,1)"/>
  <circle cx="12" cy="4" r="1" fill="srgba(213,43,30,1)"/>
  <circle cx="13" cy="4" r="1" fill="srgba(213,43,30,1)"/>
  <circle cx="14" cy="4" r="1" fill="srgba(83.5294%,16.8612%,11.7632%,1)"/>
  <circle cx="15" cy="4" r="1" fill="srgba(83.5294%,16.878%,11.7876%,1)"/>
  <circle cx="0" cy="5" r="1" fill="srgba(213,43,30,1)"/>
  <circle cx="1" cy="5" r="1" fill="srgba(83.5309%,16.8719%,11.7739%,1)"/>
  <circle cx="2" cy="5" r="1" fill="srgba(83.5019%,16.7239%,11.6167%,1)"/>
  <circle cx="3" cy="5" r="1" fill="srgba(83.328%,15.8465%,10.6874%,1)"/>
  <circle cx="4" cy="5" r="1" fill="srgba(83.299%,15.6985%,10.5303%,1)"/>
  <circle cx="5" cy="5" r="1" fill="srgba(83.0686%,14.5373%,9.29732%,1)"/>
  <circle cx="6" cy="5" r="1" fill="srgba(91.6503%,57.8759%,55.3033%,1)"/>
  <circle cx="7" cy="5" r="1" fill="white"/>
  <circle cx="8" cy="5" r="1" fill="white"/>
  <circle cx="9" cy="5" r="1" fill="srgba(91.6503%,57.8317%,55.2361%,1)"/>
  <circle cx="10" cy="5" r="1" fill="srgba(83.0686%,14.5342%,9.29274%,1)"/>
  <circle cx="11" cy="5" r="1" fill="srgba(83.299%,15.6985%,10.5303%,1)"/>
  <circle cx="12" cy="5" r="1" fill="srgba(83.328%,15.8465%,10.6874%,1)"/>
  <circle cx="13" cy="5" r="1" fill="srgba(83.5019%,16.7239%,11.6167%,1)"/>
  <circle cx="14" cy="5" r="1" fill="srgba(83.5309%,16.8704%,11.7723%,1)"/>
  <circle cx="15" cy="5" r="1" fill="srgba(83.5294%,16.878%,11.7876%,1)"/>
  <circle cx="0" cy="6" r="1" fill="srgba(213,43,30,1)"/>
  <circle cx="1" cy="6" r="1" fill="srgba(83.4653%,16.5393%,11.4229%,1)"/>
  <circle cx="2" cy="6" r="1" fill="srgba(84.5228%,21.886%,17.0947%,1)"/>
  <circle cx="3" cy="6" r="1" fill="srgba(90.7713%,53.4432%,50.5867%,1)"/>
  <circle cx="4" cy="6" r="1" fill="srgba(91.8288%,58.7778%,56.2493%,1)"/>
  <circle cx="5" cy="6" r="1" fill="srgba(91.6503%,57.8759%,55.2926%,1)"/>
  <circle cx="6" cy="6" r="1" fill="srgba(95.8816%,79.237%,77.969%,1)"/>
  <circle cx="7" cy="6" r="1" fill="white"/>
  <circle cx="8" cy="6" r="1" fill="white"/>
  <circle cx="9" cy="6" r="1" fill="srgba(95.8816%,79.2157%,77.9355%,1)"/>
  <circle cx="10" cy="6" r="1" fill="srgba(91.6503%,57.8744%,55.2895%,1)"/>
  <circle cx="11" cy="6" r="1" fill="srgba(91.8288%,58.7778%,56.2493%,1)"/>
  <circle cx="12" cy="6" r="1" fill="srgba(90.7713%,53.4295%,50.5699%,1)"/>
  <circle cx="13" cy="6" r="1" fill="srgba(84.5228%,21.8723%,17.0794%,1)"/>
  <circle cx="14" cy="6" r="1" fill="srgba(83.4653%,16.5393%,11.4214%,1)"/>
  <circle cx="15" cy="6" r="1" fill="srgba(83.5294%,16.878%,11.7876%,1)"/>
  <circle cx="0" cy="7" r="1" fill="srgba(213,43,30,1)"/>
  <circle cx="1" cy="7" r="1" fill="srgba(83.4012%,16.2173%,11.0796%,1)"/>
  <circle cx="2" cy="7" r="1" fill="srgba(85.5161%,26.9047%,22.4201%,1)"/>
  <circle cx="3" cy="7" r="1" fill="srgba(98.0133%,89.9855%,89.3706%,1)"/>
  <circle cx="4" cy="7" r="1" fill="white"/>
  <circle cx="5" cy="7" r="1" fill="white"/>
  <circle cx="6" cy="7" r="1" fill="white"/>
  <circle cx="7" cy="7" r="1" fill="white"/>
  <circle cx="8" cy="7" r="1" fill="white"/>
  <circle cx="9" cy="7" r="1" fill="white"/>
  <circle cx="10" cy="7" r="1" fill="white"/>
  <circle cx="11" cy="7" r="1" fill="white"/>
  <circle cx="12" cy="7" r="1" fill="srgba(98.0133%,89.9718%,89.3568%,1)"/>
  <circle cx="13" cy="7" r="1" fill="srgba(85.5161%,26.891%,22.4079%,1)"/>
  <circle cx="14" cy="7" r="1" fill="srgba(83.4012%,16.2173%,11.0796%,1)"/>
  <circle cx="15" cy="7" r="1" fill="srgba(83.5294%,16.878%,11.7876%,1)"/>
  <circle cx="0" cy="8" r="1" fill="srgba(213,43,30,1)"/>
  <circle cx="1" cy="8" r="1" fill="srgba(83.4012%,16.2173%,11.0796%,1)"/>
  <circle cx="2" cy="8" r="1" fill="srgba(85.5161%,26.9047%,22.4201%,1)"/>
  <circle cx="3" cy="8" r="1" fill="srgba(98.0133%,89.9855%,89.3706%,1)"/>
  <circle cx="4" cy="8" r="1" fill="white"/>
  <circle cx="5" cy="8" r="1" fill="white"/>
  <circle cx="6" cy="8" r="1" fill="white"/>
  <circle cx="7" cy="8" r="1" fill="white"/>
  <circle cx="8" cy="8" r="1" fill="white"/>
  <circle cx="9" cy="8" r="1" fill="white"/>
  <circle cx="10" cy="8" r="1" fill="white"/>
  <circle cx="11" cy="8" r="1" fill="white"/>
  <circle cx="12" cy="8" r="1" fill="srgba(98.0133%,89.9718%,89.3568%,1)"/>
  <circle cx="13" cy="8" r="1" fill="srgba(85.5161%,26.891%,22.4079%,1)"/>
  <circle cx="14" cy="8" r="1" fill="srgba(83.4012%,16.2173%,11.0796%,1)"/>
  <circle cx="15" cy="8" r="1" fill="srgba(83.5294%,16.878%,11.7876%,1)"/>
  <circle cx="0" cy="9" r="1" fill="srgba(213,43,30,1)"/>
  <circle cx="1" cy="9" r="1" fill="srgba(83.4653%,16.5408%,11.4229%,1)"/>
  <circle cx="2" cy="9" r="1" fill="srgba(84.5228%,21.8799%,17.0901%,1)"/>
  <circle cx="3" cy="9" r="1" fill="srgba(90.7713%,53.4051%,50.5486%,1)"/>
  <circle cx="4" cy="9" r="1" fill="srgba(91.8288%,58.7335%,56.2036%,1)"/>
  <circle cx="5" cy="9" r="1" fill="srgba(91.6503%,57.8317%,55.2468%,1)"/>
  <circle cx="6" cy="9" r="1" fill="srgba(95.8816%,79.2157%,77.9461%,1)"/>
  <circle cx="7" cy="9" r="1" fill="white"/>
  <circle cx="8" cy="9" r="1" fill="white"/>
  <circle cx="9" cy="9" r="1" fill="srgba(95.8816%,79.1943%,77.9141%,1)"/>
  <circle cx="10" cy="9" r="1" fill="srgba(91.6503%,57.8317%,55.2453%,1)"/>
  <circle cx="11" cy="9" r="1" fill="srgba(91.8288%,58.735%,56.2051%,1)"/>
  <circle cx="12" cy="9" r="1" fill="srgba(90.7713%,53.3913%,50.5318%,1)"/>
  <circle cx="13" cy="9" r="1" fill="srgba(84.5228%,21.8677%,17.0733%,1)"/>
  <circle cx="14" cy="9" r="1" fill="srgba(83.4653%,16.5408%,11.4229%,1)"/>
  <circle cx="15" cy="9" r="1" fill="srgba(83.5294%,16.878%,11.7876%,1)"/>
  <circle cx="0" cy="10" r="1" fill="srgba(213,43,30,1)"/>
  <circle cx="1" cy="10" r="1" fill="srgba(83.5309%,16.8719%,11.7739%,1)"/>
  <circle cx="2" cy="10" r="1" fill="srgba(83.5019%,16.7224%,11.6167%,1)"/>
  <circle cx="3" cy="10" r="1" fill="srgba(83.328%,15.8434%,10.6844%,1)"/>
  <circle cx="4" cy="10" r="1" fill="srgba(83.299%,15.6954%,10.5272%,1)"/>
  <circle cx="5" cy="10" r="1" fill="srgba(83.0686%,14.5342%,9.29427%,1)"/>
  <circle cx="6" cy="10" r="1" fill="srgba(91.6503%,57.8744%,55.3017%,1)"/>
  <circle cx="7" cy="10" r="1" fill="white"/>
  <circle cx="8" cy="10" r="1" fill="white"/>
  <circle cx="9" cy="10" r="1" fill="srgba(91.6503%,57.8302%,55.2346%,1)"/>
  <circle cx="10" cy="10" r="1" fill="srgba(83.0686%,14.5312%,9.28969%,1)"/>
  <circle cx="11" cy="10" r="1" fill="srgba(83.299%,15.6954%,10.5272%,1)"/>
  <circle cx="12" cy="10" r="1" fill="srgba(83.328%,15.845%,10.6844%,1)"/>
  <circle cx="13" cy="10" r="1" fill="srgba(83.5019%,16.7239%,11.6167%,1)"/>
  <circle cx="14" cy="10" r="1" fill="srgba(83.5309%,16.8704%,11.7723%,1)"/>
  <circle cx="15" cy="10" r="1" fill="srgba(83.5294%,16.878%,11.7876%,1)"/>
  <circle cx="0" cy="11" r="1" fill="srgba(213,43,30,1)"/>
  <circle cx="1" cy="11" r="1" fill="srgba(213,43,30,1)"/>
  <circle cx="2" cy="11" r="1" fill="srgba(213,43,30,1)"/>
  <circle cx="3" cy="11" r="1" fill="srgba(213,43,30,1)"/>
  <circle cx="4" cy="11" r="1" fill="srgba(213,43,30,1)"/>
  <circle cx="5" cy="11" r="1" fill="srgba(83.3005%,15.7076%,10.5394%,1)"/>
  <circle cx="6" cy="11" r="1" fill="srgba(91.7647%,58.4527%,55.9152%,1)"/>
  <circle cx="7" cy="11" r="1" fill="white"/>
  <circle cx="8" cy="11" r="1" fill="white"/>
  <circle cx="9" cy="11" r="1" fill="srgba(91.7647%,58.4268%,55.8679%,1)"/>
  <circle cx="10" cy="11" r="1" fill="srgba(83.3005%,15.7061%,10.5364%,1)"/>
  <circle cx="11" cy="11" r="1" fill="srgba(213,43,30,1)"/>
  <circle cx="12" cy="11" r="1" fill="srgba(213,43,30,1)"/>
  <circle cx="13" cy="11" r="1" fill="srgba(213,43,30,1)"/>
  <circle cx="14" cy="11" r="1" fill="srgba(83.5294%,16.8612%,11.7632%,1)"/>
  <circle cx="15" cy="11" r="1" fill="srgba(83.5294%,16.878%,11.7876%,1)"/>
  <circle cx="0" cy="12" r="1" fill="srgba(213,43,30,1)"/>
  <circle cx="1" cy="12" r="1" fill="srgba(213,43,30,1)"/>
  <circle cx="2" cy="12" r="1" fill="srgba(213,43,30,1)"/>
  <circle cx="3" cy="12" r="1" fill="srgba(213,43,30,1)"/>
  <circle cx="4" cy="12" r="1" fill="srgba(213,43,30,1)"/>
  <circle cx="5" cy="12" r="1" fill="srgba(83.328%,15.848%,10.6874%,1)"/>
  <circle cx="6" cy="12" r="1" fill="srgba(90.7713%,53.431%,50.5791%,1)"/>
  <circle cx="7" cy="12" r="1" fill="srgba(98.2147%,90.9773%,90.4173%,1)"/>
  <circle cx="8" cy="12" r="1" fill="srgba(98.2147%,90.9743%,90.4143%,1)"/>
  <circle cx="9" cy="12" r="1" fill="srgba(90.7713%,53.3913%,50.5226%,1)"/>
  <circle cx="10" cy="12" r="1" fill="srgba(83.328%,15.845%,10.6844%,1)"/>
  <circle cx="11" cy="12" r="1" fill="srgba(213,43,30,1)"/>
  <circle cx="12" cy="12" r="1" fill="srgba(213,43,30,1)"/>
  <circle cx="13" cy="12" r="1" fill="srgba(213,43,30,1)"/>
  <circle cx="14" cy="12" r="1" fill="srgba(83.5294%,16.8612%,11.7632%,1)"/>
  <circle cx="15" cy="12" r="1" fill="srgba(83.5294%,16.878%,11.7876%,1)"/>
  <circle cx="0" cy="13" r="1" fill="srgba(213,43,30,1)"/>
  <circle cx="1" cy="13" r="1" fill="srgba(213,43,30,1)"/>
  <circle cx="2" cy="13" r="1" fill="srgba(213,43,30,1)"/>
  <circle cx="3" cy="13" r="1" fill="srgba(213,43,30,1)"/>
  <circle cx="4" cy="13" r="1" fill="srgba(213,43,30,1)"/>
  <circle cx="5" cy="13" r="1" fill="srgba(83.5019%,16.7239%,11.6167%,1)"/>
  <circle cx="6" cy="13" r="1" fill="srgba(84.5228%,21.8723%,17.0794%,1)"/>
  <circle cx="7" cy="13" r="1" fill="srgba(85.5436%,27.0161%,22.536%,1)"/>
  <circle cx="8" cy="13" r="1" fill="srgba(85.5436%,27.0161%,22.536%,1)"/>
  <circle cx="9" cy="13" r="1" fill="srgba(84.5228%,21.8677%,17.0718%,1)"/>
  <circle cx="10" cy="13" r="1" fill="srgba(83.5019%,16.7239%,11.6167%,1)"/>
  <circle cx="11" cy="13" r="1" fill="srgba(213,43,30,1)"/>
  <circle cx="12" cy="13" r="1" fill="srgba(213,43,30,1)"/>
  <circle cx="13" cy="13" r="1" fill="srgba(213,43,30,1)"/>
  <circle cx="14" cy="13" r="1" fill="srgba(83.5294%,16.8612%,11.7632%,1)"/>
  <circle cx="15" cy="13" r="1" fill="srgba(83.5294%,16.878%,11.7876%,1)"/>
  <circle cx="0" cy="14" r="1" fill="srgba(83.5294%,16.8612%,11.7632%,1)"/>
  <circle cx="1" cy="14" r="1" fill="srgba(83.5294%,16.8612%,11.7632%,1)"/>
  <circle cx="2" cy="14" r="1" fill="srgba(83.5294%,16.8612%,11.7632%,1)"/>
  <circle cx="3" cy="14" r="1" fill="srgba(83.5294%,16.8612%,11.7632%,1)"/>
  <circle cx="4" cy="14" r="1" fill="srgba(83.5294%,16.8612%,11.7632%,1)"/>
  <circle cx="5" cy="14" r="1" fill="srgba(83.5309%,16.8704%,11.7723%,1)"/>
  <circle cx="6" cy="14" r="1" fill="srgba(83.4653%,16.5393%,11.4214%,1)"/>
  <circle cx="7" cy="14" r="1" fill="srgba(83.3997%,16.2097%,11.0719%,1)"/>
  <circle cx="8" cy="14" r="1" fill="srgba(83.3997%,16.2097%,11.0719%,1)"/>
  <circle cx="9" cy="14" r="1" fill="srgba(83.4653%,16.5408%,11.4229%,1)"/>
  <circle cx="10" cy="14" r="1" fill="srgba(83.5309%,16.8704%,11.7723%,1)"/>
  <circle cx="11" cy="14" r="1" fill="srgba(83.5294%,16.8612%,11.7632%,1)"/>
  <circle cx="12" cy="14" r="1" fill="srgba(83.5294%,16.8612%,11.7632%,1)"/>
  <circle cx="13" cy="14" r="1" fill="srgba(83.5294%,16.8612%,11.7632%,1)"/>
  <circle cx="14" cy="14" r="1" fill="srgba(83.5294%,16.8597%,11.7617%,1)"/>
  <circle cx="15" cy="14" r="1" fill="srgba(83.5294%,16.8765%,11.7861%,1)"/>
  <circle cx="0" cy="15" r="1" fill="srgba(83.5294%,16.878%,11.7876%,1)"/>
  <circle cx="1" cy="15" r="1" fill="srgba(83.5294%,16.878%,11.7876%,1)"/>
  <circle cx="2" cy="15" r="1" fill="srgba(83.5294%,16.878%,11.7876%,1)"/>
  <circle cx="3" cy="15" r="1" fill="srgba(83.5294%,16.878%,11.7876%,1)"/>
  <circle cx="4" cy="15" r="1" fill="srgba(83.5294%,16.878%,11.7876%,1)"/>
  <circle cx="5" cy="15" r="1" fill="srgba(83.5294%,16.878%,11.7876%,1)"/>
  <circle cx="6" cy="15" r="1" fill="srgba(83.5294%,16.878%,11.7876%,1)"/>
  <circle cx="7" cy="15" r="1" fill="srgba(83.5294%,16.878%,11.7876%,1)"/>
  <circle cx="8" cy="15" r="1" fill="srgba(83.5294%,16.878%,11.7876%,1)"/>
  <circle cx="9" cy="15" r="1" fill="srgba(83.5294%,16.878%,11.7876%,1)"/>
  <circle cx="10" cy="15" r="1" fill="srgba(83.5294%,16.878%,11.7876%,1)"/>
  <circle cx="11" cy="15" r="1" fill="srgba(83.5294%,16.878%,11.7876%,1)"/>
  <circle cx="12" cy="15" r="1" fill="srgba(83.5294%,16.878%,11.7876%,1)"/>
  <circle cx="13" cy="15" r="1" fill="srgba(83.5294%,16.878%,11.7876%,1)"/>
  <circle cx="14" cy="15" r="1" fill="srgba(83.5294%,16.8765%,11.7861%,1)"/>
  <circle cx="15" cy="15" r="1" fill="srgba(83.5294%,16.8933%,11.8105%,1)"/>
</svg>
