<?xml version="1.0" standalone="no"?>
<!DOCTYPE svg PUBLIC "-//W3C//DTD SVG 20010904//EN"
  "http://www.w3.org/TR/2001/REC-SVG-20010904/DTD/svg10.dtd">
<svg width="16" height="16">
  <circle cx="0" cy="0" r="1" fill="srgba(71.3146%,39.5483%,47.8462%,1)"/>
  <circle cx="1" cy="0" r="1" fill="srgba(81.033%,59.4079%,64.831%,1)"/>
  <circle cx="2" cy="0" r="1" fill="srgba(45.7893%,41.0941%,62.3102%,1)"/>
  <circle cx="3" cy="0" r="1" fill="srgba(8.48249%,9.16915%,45.7725%,1)"/>
  <circle cx="4" cy="0" r="1" fill="srgba(26.2943%,21.8906%,50.428%,1)"/>
  <circle cx="5" cy="0" r="1" fill="srgba(83.5447%,21.4405%,21.7868%,1)"/>
  <circle cx="6" cy="0" r="1" fill="srgba(58.3078%,31.7571%,45.5573%,1)"/>
  <circle cx="7" cy="0" r="1" fill="srgba(3.46532%,4.34119%,42.9282%,1)"/>
  <circle cx="8" cy="0" r="1" fill="srgba(24.8859%,14.0566%,43.0274%,1)"/>
  <circle cx="9" cy="0" r="1" fill="srgba(65.9113%,37.6501%,48.4611%,1)"/>
  <circle cx="10" cy="0" r="1" fill="srgba(81.2863%,55.4177%,60.3189%,1)"/>
  <circle cx="11" cy="0" r="1" fill="srgba(29.6498%,25.7588%,53.5103%,1)"/>
  <circle cx="12" cy="0" r="1" fill="srgba(0%,0%,39.5331%,1)"/>
  <circle cx="13" cy="0" r="1" fill="srgba(0,0,102,1)"/>
  <circle cx="14" cy="0" r="1" fill="srgba(0,0,102,1)"/>
  <circle cx="15" cy="0" r="1" fill="srgba(0,0,102,1)"/>
  <circle cx="0" cy="1" r="1" fill="srgba(26.8193%,22.5299%,51.3741%,1)"/>
  <circle cx="1" cy="1" r="1" fill="srgba(54.5876%,37.1054%,53.521%,1)"/>
  <circle cx="2" cy="1" r="1" fill="srgba(85.0309%,57.0565%,60.2457%,1)"/>
  <circle cx="3" cy="1" r="1" fill="srgba(75.3277%,63.6469%,72.3461%,1)"/>
  <circle cx="4" cy="1" r="1" fill="srgba(60.8591%,55.5978%,70.7301%,1)"/>
  <circle cx="5" cy="1" r="1" fill="srgba(83.2181%,20.9812%,21.4725%,1)"/>
  <circle cx="6" cy="1" r="1" fill="srgba(71.5038%,42.5437%,51.0491%,1)"/>
  <circle cx="7" cy="1" r="1" fill="srgba(58.7533%,38.9456%,53.4646%,1)"/>
  <circle cx="8" cy="1" r="1" fill="srgba(85.7389%,59.6414%,62.7375%,1)"/>
  <circle cx="9" cy="1" r="1" fill="srgba(74.342%,63.4119%,72.5795%,1)"/>
  <circle cx="10" cy="1" r="1" fill="srgba(37.911%,36.5438%,61.2421%,1)"/>
  <circle cx="11" cy="1" r="1" fill="srgba(9.39193%,9.13405%,45.3513%,1)"/>
  <circle cx="12" cy="1" r="1" fill="srgba(0%,0%,39.7726%,1)"/>
  <circle cx="13" cy="1" r="1" fill="srgba(0,0,102,1)"/>
  <circle cx="14" cy="1" r="1" fill="srgba(0,0,102,1)"/>
  <circle cx="15" cy="1" r="1" fill="srgba(0,0,102,1)"/>
  <circle cx="0" cy="2" r="1" fill="srgba(79.4064%,24.1001%,26.807%,1)"/>
  <circle cx="1" cy="2" r="1" fill="srgba(78.9761%,24.3046%,27.2465%,1)"/>
  <circle cx="2" cy="2" r="1" fill="srgba(83.2074%,25.2735%,26.1967%,1)"/>
  <circle cx="3" cy="2" r="1" fill="srgba(86.627%,28.2261%,27.7363%,1)"/>
  <circle cx="4" cy="2" r="1" fill="srgba(86.659%,30.1671%,29.8543%,1)"/>
  <circle cx="5" cy="2" r="1" fill="srgba(81.3321%,6.85893%,6.88029%,1)"/>
  <circle cx="6" cy="2" r="1" fill="srgba(84.0803%,19.5453%,19.4614%,1)"/>
  <circle cx="7" cy="2" r="1" fill="srgba(86.4958%,26.9963%,26.45%,1)"/>
  <circle cx="8" cy="2" r="1" fill="srgba(86.1631%,31.0262%,31.0491%,1)"/>
  <circle cx="9" cy="2" r="1" fill="srgba(80.4776%,25.7572%,28.0949%,1)"/>
  <circle cx="10" cy="2" r="1" fill="srgba(79.5956%,23.6088%,26.1723%,1)"/>
  <circle cx="11" cy="2" r="1" fill="srgba(35.4772%,10.8095%,34.1527%,1)"/>
  <circle cx="12" cy="2" r="1" fill="srgba(0%,0%,40.2182%,1)"/>
  <circle cx="13" cy="2" r="1" fill="srgba(0,0,102,1)"/>
  <circle cx="14" cy="2" r="1" fill="srgba(0,0,102,1)"/>
  <circle cx="15" cy="2" r="1" fill="srgba(0,0,102,1)"/>
  <circle cx="0" cy="3" r="1" fill="srgba(65.9159%,29.4911%,39.4812%,1)"/>
  <circle cx="1" cy="3" r="1" fill="srgba(69.7154%,33.9406%,42.4765%,1)"/>
  <circle cx="2" cy="3" r="1" fill="srgba(86.0929%,48.9433%,50.7912%,1)"/>
  <circle cx="3" cy="3" r="1" fill="srgba(89.5445%,43.0091%,42.536%,1)"/>
  <circle cx="4" cy="3" r="1" fill="srgba(85.3834%,40.4349%,41.7853%,1)"/>
  <circle cx="5" cy="3" r="1" fill="srgba(82.1424%,12.0623%,12.1981%,1)"/>
  <circle cx="6" cy="3" r="1" fill="srgba(84.6815%,33.9422%,34.9966%,1)"/>
  <circle cx="7" cy="3" r="1" fill="srgba(89.4453%,51.0857%,51.4702%,1)"/>
  <circle cx="8" cy="3" r="1" fill="srgba(88.2963%,40.206%,40.0763%,1)"/>
  <circle cx="9" cy="3" r="1" fill="srgba(75.3323%,35.8511%,41.7685%,1)"/>
  <circle cx="10" cy="3" r="1" fill="srgba(66.9581%,30.9911%,40.6104%,1)"/>
  <circle cx="11" cy="3" r="1" fill="srgba(29.5018%,13.434%,40.0259%,1)"/>
  <circle cx="12" cy="3" r="1" fill="srgba(0%,0%,39.9985%,1)"/>
  <circle cx="13" cy="3" r="1" fill="srgba(0,0,102,1)"/>
  <circle cx="14" cy="3" r="1" fill="srgba(0,0,102,1)"/>
  <circle cx="15" cy="3" r="1" fill="srgba(0,0,102,1)"/>
  <circle cx="0" cy="4" r="1" fill="srgba(32.5978%,32.604%,59.5666%,1)"/>
  <circle cx="1" cy="4" r="1" fill="srgba(66.511%,56.0342%,68.3848%,1)"/>
  <circle cx="2" cy="4" r="1" fill="srgba(81.2741%,56.3943%,61.3962%,1)"/>
  <circle cx="3" cy="4" r="1" fill="srgba(52.2896%,31.1879%,48.1559%,1)"/>
  <circle cx="4" cy="4" r="1" fill="srgba(43.8529%,35.4833%,57.142%,1)"/>
  <circle cx="5" cy="4" r="1" fill="srgba(84.3198%,21.4191%,21.9181%,1)"/>
  <circle cx="6" cy="4" r="1" fill="srgba(65.2567%,38.8144%,50.2892%,1)"/>
  <circle cx="7" cy="4" r="1" fill="srgba(41.3489%,42.2843%,65.8259%,1)"/>
  <circle cx="8" cy="4" r="1" fill="srgba(75.2773%,58.8968%,67.1504%,1)"/>
  <circle cx="9" cy="4" r="1" fill="srgba(76.3836%,49.9977%,56.8048%,1)"/>
  <circle cx="10" cy="4" r="1" fill="srgba(42.8763%,27.5151%,48.8289%,1)"/>
  <circle cx="11" cy="4" r="1" fill="srgba(9.11421%,7.10155%,43.2547%,1)"/>
  <circle cx="12" cy="4" r="1" fill="srgba(0%,0%,39.8749%,1)"/>
  <circle cx="13" cy="4" r="1" fill="srgba(0,0,102,1)"/>
  <circle cx="14" cy="4" r="1" fill="srgba(0,0,102,1)"/>
  <circle cx="15" cy="4" r="1" fill="srgba(0,0,102,1)"/>
  <circle cx="0" cy="5" r="1" fill="srgba(59.7513%,41.091%,55.3246%,1)"/>
  <circle cx="1" cy="5" r="1" fill="srgba(51.5801%,28.4779%,45.5329%,1)"/>
  <circle cx="2" cy="5" r="1" fill="srgba(18.5061%,10.7729%,42.5971%,1)"/>
  <circle cx="3" cy="5" r="1" fill="srgba(0.308232%,0.422675%,40.4028%,1)"/>
  <circle cx="4" cy="5" r="1" fill="srgba(18.0652%,15.0515%,47.3304%,1)"/>
  <circle cx="5" cy="5" r="1" fill="srgba(57.5036%,14.7646%,27.4846%,1)"/>
  <circle cx="6" cy="5" r="1" fill="srgba(40.2213%,21.9028%,43.7354%,1)"/>
  <circle cx="7" cy="5" r="1" fill="srgba(0.540169%,1.57168%,40.7904%,1)"/>
  <circle cx="8" cy="5" r="1" fill="srgba(8.82734%,9.54604%,46.0533%,1)"/>
  <circle cx="9" cy="5" r="1" fill="srgba(40.7645%,36.6186%,59.8978%,1)"/>
  <circle cx="10" cy="5" r="1" fill="srgba(61.0346%,41.7548%,55.4116%,1)"/>
  <circle cx="11" cy="5" r="1" fill="srgba(23.0869%,10.5913%,40.1068%,1)"/>
  <circle cx="12" cy="5" r="1" fill="srgba(0%,0%,39.939%,1)"/>
  <circle cx="13" cy="5" r="1" fill="srgba(0,0,102,1)"/>
  <circle cx="14" cy="5" r="1" fill="srgba(0,0,102,1)"/>
  <circle cx="15" cy="5" r="1" fill="srgba(0,0,102,1)"/>
  <circle cx="0" cy="6" r="1" fill="srgba(1.33516%,0.341802%,38.8495%,1)"/>
  <circle cx="1" cy="6" r="1" fill="srgba(0.480659%,0.433356%,40.1846%,1)"/>
  <circle cx="2" cy="6" r="1" fill="srgba(0%,0%,39.9145%,1)"/>
  <circle cx="3" cy="6" r="1" fill="srgba(0%,0%,39.9298%,1)"/>
  <circle cx="4" cy="6" r="1" fill="srgba(0.389105%,0.323491%,40.1648%,1)"/>
  <circle cx="5" cy="6" r="1" fill="srgba(1.23293%,0.317388%,39.7314%,1)"/>
  <circle cx="6" cy="6" r="1" fill="srgba(0.862135%,0.469978%,40.0855%,1)"/>
  <circle cx="7" cy="6" r="1" fill="srgba(0.0137331%,0.0335698%,40.0305%,1)"/>
  <circle cx="8" cy="6" r="1" fill="srgba(0%,0%,39.6323%,1)"/>
  <circle cx="9" cy="6" r="1" fill="srgba(0%,0%,39.4324%,1)"/>
  <circle cx="10" cy="6" r="1" fill="srgba(15.9136%,16.5377%,50.2174%,1)"/>
  <circle cx="11" cy="6" r="1" fill="srgba(11.5801%,11.3619%,46.685%,1)"/>
  <circle cx="12" cy="6" r="1" fill="srgba(0%,0%,39.6139%,1)"/>
  <circle cx="13" cy="6" r="1" fill="srgba(0%,0%,39.7513%,1)"/>
  <circle cx="14" cy="6" r="1" fill="srgba(0%,0%,39.8215%,1)"/>
  <circle cx="15" cy="6" r="1" fill="srgba(0%,0%,40.0076%,1)"/>
  <circle cx="0" cy="7" r="1" fill="srgba(0%,0%,40.0153%,1)"/>
  <circle cx="1" cy="7" r="1" fill="srgba(0%,0%,39.9878%,1)"/>
  <circle cx="2" cy="7" r="1" fill="srgba(0,0,102,1)"/>
  <circle cx="3" cy="7" r="1" fill="srgba(0,0,102,1)"/>
  <circle cx="4" cy="7" r="1" fill="srgba(0%,0%,39.9893%,1)"/>
  <circle cx="5" cy="7" r="1" fill="srgba(0%,0%,40.0168%,1)"/>
  <circle cx="6" cy="7" r="1" fill="srgba(0%,0%,39.9954%,1)"/>
  <circle cx="7" cy="7" r="1" fill="srgba(0%,0%,39.9985%,1)"/>
  <circle cx="8" cy="7" r="1" fill="srgba(0%,0%,39.9969%,1)"/>
  <circle cx="9" cy="7" r="1" fill="srgba(0%,0%,39.2172%,1)"/>
  <circle cx="10" cy="7" r="1" fill="srgba(40.4715%,40.473%,64.2725%,1)"/>
  <circle cx="11" cy="7" r="1" fill="srgba(28.7892%,28.7907%,57.258%,1)"/>
  <circle cx="12" cy="7" r="1" fill="srgba(0%,0%,39.0036%,1)"/>
  <circle cx="13" cy="7" r="1" fill="srgba(7.48608%,7.48608%,44.4923%,1)"/>
  <circle cx="14" cy="7" r="1" fill="srgba(4.96681%,4.96681%,42.9603%,1)"/>
  <circle cx="15" cy="7" r="1" fill="srgba(0%,0%,39.8657%,1)"/>
  <circle cx="0" cy="8" r="1" fill="srgba(0,0,102,1)"/>
  <circle cx="1" cy="8" r="1" fill="srgba(0,0,102,1)"/>
  <circle cx="2" cy="8" r="1" fill="srgba(0,0,102,1)"/>
  <circle cx="3" cy="8" r="1" fill="srgba(0,0,102,1)"/>
  <circle cx="4" cy="8" r="1" fill="srgba(0,0,102,1)"/>
  <circle cx="5" cy="8" r="1" fill="srgba(0,0,102,1)"/>
  <circle cx="6" cy="8" r="1" fill="srgba(0,0,102,1)"/>
  <circle cx="7" cy="8" r="1" fill="srgba(0,0,102,1)"/>
  <circle cx="8" cy="8" r="1" fill="srgba(0,0,102,1)"/>
  <circle cx="9" cy="8" r="1" fill="srgba(0%,0%,39.089%,1)"/>
  <circle cx="10" cy="8" r="1" fill="srgba(44.3458%,44.3458%,66.5568%,1)"/>
  <circle cx="11" cy="8" r="1" fill="srgba(32.5826%,32.5826%,59.5346%,1)"/>
  <circle cx="12" cy="8" r="1" fill="srgba(0%,0%,39.0707%,1)"/>
  <circle cx="13" cy="8" r="1" fill="srgba(38.4924%,38.4924%,63.0976%,1)"/>
  <circle cx="14" cy="8" r="1" fill="srgba(25.3925%,25.3925%,55.1812%,1)"/>
  <circle cx="15" cy="8" r="1" fill="srgba(0%,0%,39.3393%,1)"/>
  <circle cx="0" cy="9" r="1" fill="srgba(0,0,102,1)"/>
  <circle cx="1" cy="9" r="1" fill="srgba(0,0,102,1)"/>
  <circle cx="2" cy="9" r="1" fill="srgba(0,0,102,1)"/>
  <circle cx="3" cy="9" r="1" fill="srgba(0,0,102,1)"/>
  <circle cx="4" cy="9" r="1" fill="srgba(0,0,102,1)"/>
  <circle cx="5" cy="9" r="1" fill="srgba(0,0,102,1)"/>
  <circle cx="6" cy="9" r="1" fill="srgba(0,0,102,1)"/>
  <circle cx="7" cy="9" r="1" fill="srgba(0,0,102,1)"/>
  <circle cx="8" cy="9" r="1" fill="srgba(0,0,102,1)"/>
  <circle cx="9" cy="9" r="1" fill="srgba(0%,0%,39.0265%,1)"/>
  <circle cx="10" cy="9" r="1" fill="srgba(42.5238%,42.5238%,65.5131%,1)"/>
  <circle cx="11" cy="9" r="1" fill="srgba(35.3323%,35.3323%,61.1963%,1)"/>
  <circle cx="12" cy="9" r="1" fill="srgba(0%,0%,38.9242%,1)"/>
  <circle cx="13" cy="9" r="1" fill="srgba(5.51156%,5.51156%,43.3082%,1)"/>
  <circle cx="14" cy="9" r="1" fill="srgba(13.2067%,13.2067%,47.9088%,1)"/>
  <circle cx="15" cy="9" r="1" fill="srgba(5.31472%,5.31472%,43.1724%,1)"/>
  <circle cx="0" cy="10" r="1" fill="srgba(0,0,102,1)"/>
  <circle cx="1" cy="10" r="1" fill="srgba(0,0,102,1)"/>
  <circle cx="2" cy="10" r="1" fill="srgba(0,0,102,1)"/>
  <circle cx="3" cy="10" r="1" fill="srgba(0,0,102,1)"/>
  <circle cx="4" cy="10" r="1" fill="srgba(0,0,102,1)"/>
  <circle cx="5" cy="10" r="1" fill="srgba(0,0,102,1)"/>
  <circle cx="6" cy="10" r="1" fill="srgba(0,0,102,1)"/>
  <circle cx="7" cy="10" r="1" fill="srgba(0,0,102,1)"/>
  <circle cx="8" cy="10" r="1" fill="srgba(0,0,102,1)"/>
  <circle cx="9" cy="10" r="1" fill="srgba(0%,0%,38.9807%,1)"/>
  <circle cx="10" cy="10" r="1" fill="srgba(40.4654%,40.4654%,64.2771%,1)"/>
  <circle cx="11" cy="10" r="1" fill="srgba(38.0652%,38.0652%,62.8321%,1)"/>
  <circle cx="12" cy="10" r="1" fill="srgba(0%,0%,38.9654%,1)"/>
  <circle cx="13" cy="10" r="1" fill="srgba(0%,0%,39.2981%,1)"/>
  <circle cx="14" cy="10" r="1" fill="srgba(18.0423%,18.0423%,50.6905%,1)"/>
  <circle cx="15" cy="10" r="1" fill="srgba(11.519%,11.519%,46.9001%,1)"/>
  <circle cx="0" cy="11" r="1" fill="srgba(0,0,102,1)"/>
  <circle cx="1" cy="11" r="1" fill="srgba(0,0,102,1)"/>
  <circle cx="2" cy="11" r="1" fill="srgba(0,0,102,1)"/>
  <circle cx="3" cy="11" r="1" fill="srgba(0,0,102,1)"/>
  <circle cx="4" cy="11" r="1" fill="srgba(0,0,102,1)"/>
  <circle cx="5" cy="11" r="1" fill="srgba(0,0,102,1)"/>
  <circle cx="6" cy="11" r="1" fill="srgba(0,0,102,1)"/>
  <circle cx="7" cy="11" r="1" fill="srgba(0,0,102,1)"/>
  <circle cx="8" cy="11" r="1" fill="srgba(0,0,102,1)"/>
  <circle cx="9" cy="11" r="1" fill="srgba(0%,0%,38.9593%,1)"/>
  <circle cx="10" cy="11" r="1" fill="srgba(38.3352%,38.3352%,62.9969%,1)"/>
  <circle cx="11" cy="11" r="1" fill="srgba(40.7843%,40.7843%,64.4602%,1)"/>
  <circle cx="12" cy="11" r="1" fill="srgba(0%,0%,38.9822%,1)"/>
  <circle cx="13" cy="11" r="1" fill="srgba(0%,0%,39.3454%,1)"/>
  <circle cx="14" cy="11" r="1" fill="srgba(22.6246%,22.6246%,53.5561%,1)"/>
  <circle cx="15" cy="11" r="1" fill="srgba(15.8129%,15.8129%,49.4697%,1)"/>
  <circle cx="0" cy="12" r="1" fill="srgba(0,0,102,1)"/>
  <circle cx="1" cy="12" r="1" fill="srgba(0,0,102,1)"/>
  <circle cx="2" cy="12" r="1" fill="srgba(0,0,102,1)"/>
  <circle cx="3" cy="12" r="1" fill="srgba(0,0,102,1)"/>
  <circle cx="4" cy="12" r="1" fill="srgba(0,0,102,1)"/>
  <circle cx="5" cy="12" r="1" fill="srgba(0,0,102,1)"/>
  <circle cx="6" cy="12" r="1" fill="srgba(0%,0%,40.0046%,1)"/>
  <circle cx="7" cy="12" r="1" fill="srgba(0%,0%,39.9298%,1)"/>
  <circle cx="8" cy="12" r="1" fill="srgba(0%,0%,39.5666%,1)"/>
  <circle cx="9" cy="12" r="1" fill="srgba(0%,0%,38.8739%,1)"/>
  <circle cx="10" cy="12" r="1" fill="srgba(36.1395%,36.1395%,61.6831%,1)"/>
  <circle cx="11" cy="12" r="1" fill="srgba(43.4546%,43.4546%,66.0533%,1)"/>
  <circle cx="12" cy="12" r="1" fill="srgba(0%,0%,39.0311%,1)"/>
  <circle cx="13" cy="12" r="1" fill="srgba(0%,0%,39.2248%,1)"/>
  <circle cx="14" cy="12" r="1" fill="srgba(26.8116%,26.8116%,56.0769%,1)"/>
  <circle cx="15" cy="12" r="1" fill="srgba(20.5081%,20.5081%,52.282%,1)"/>
  <circle cx="0" cy="13" r="1" fill="srgba(0,0,102,1)"/>
  <circle cx="1" cy="13" r="1" fill="srgba(0,0,102,1)"/>
  <circle cx="2" cy="13" r="1" fill="srgba(0,0,102,1)"/>
  <circle cx="3" cy="13" r="1" fill="srgba(0,0,102,1)"/>
  <circle cx="4" cy="13" r="1" fill="srgba(0,0,102,1)"/>
  <circle cx="5" cy="13" r="1" fill="srgba(0,0,102,1)"/>
  <circle cx="6" cy="13" r="1" fill="srgba(0%,0%,39.9374%,1)"/>
  <circle cx="7" cy="13" r="1" fill="srgba(1.84329%,1.84329%,41.1063%,1)"/>
  <circle cx="8" cy="13" r="1" fill="srgba(13.8079%,13.8079%,48.2918%,1)"/>
  <circle cx="9" cy="13" r="1" fill="srgba(1.05898%,1.05898%,40.3098%,1)"/>
  <circle cx="10" cy="13" r="1" fill="srgba(33.8323%,33.8323%,59.9252%,1)"/>
  <circle cx="11" cy="13" r="1" fill="srgba(46.2379%,46.2379%,67.4266%,1)"/>
  <circle cx="12" cy="13" r="1" fill="srgba(0%,0%,38.9609%,1)"/>
  <circle cx="13" cy="13" r="1" fill="srgba(0%,0%,39.1287%,1)"/>
  <circle cx="14" cy="13" r="1" fill="srgba(30.6233%,30.6233%,58.3642%,1)"/>
  <circle cx="15" cy="13" r="1" fill="srgba(25.5665%,25.5665%,55.3124%,1)"/>
  <circle cx="0" cy="14" r="1" fill="srgba(0,0,102,1)"/>
  <circle cx="1" cy="14" r="1" fill="srgba(0,0,102,1)"/>
  <circle cx="2" cy="14" r="1" fill="srgba(0,0,102,1)"/>
  <circle cx="3" cy="14" r="1" fill="srgba(0,0,102,1)"/>
  <circle cx="4" cy="14" r="1" fill="srgba(0,0,102,1)"/>
  <circle cx="5" cy="14" r="1" fill="srgba(0,0,102,1)"/>
  <circle cx="6" cy="14" r="1" fill="srgba(0%,0%,39.791%,1)"/>
  <circle cx="7" cy="14" r="1" fill="srgba(5.91287%,5.91287%,43.5477%,1)"/>
  <circle cx="8" cy="14" r="1" fill="srgba(45.1728%,45.1728%,67.1046%,1)"/>
  <circle cx="9" cy="14" r="1" fill="srgba(29.7658%,29.7658%,57.8592%,1)"/>
  <circle cx="10" cy="14" r="1" fill="srgba(51.1467%,51.1467%,70.6889%,1)"/>
  <circle cx="11" cy="14" r="1" fill="srgba(58.5412%,58.5412%,75.1247%,1)"/>
  <circle cx="12" cy="14" r="1" fill="srgba(11.3024%,11.3024%,46.7811%,1)"/>
  <circle cx="13" cy="14" r="1" fill="srgba(0%,0%,38.674%,1)"/>
  <circle cx="14" cy="14" r="1" fill="srgba(34.1207%,34.1207%,60.47%,1)"/>
  <circle cx="15" cy="14" r="1" fill="srgba(31.0063%,31.0063%,58.5946%,1)"/>
  <circle cx="0" cy="15" r="1" fill="srgba(0,0,102,1)"/>
  <circle cx="1" cy="15" r="1" fill="srgba(0,0,102,1)"/>
  <circle cx="2" cy="15" r="1" fill="srgba(0,0,102,1)"/>
  <circle cx="3" cy="15" r="1" fill="srgba(0,0,102,1)"/>
  <circle cx="4" cy="15" r="1" fill="srgba(0,0,102,1)"/>
  <circle cx="5" cy="15" r="1" fill="srgba(0,0,102,1)"/>
  <circle cx="6" cy="15" r="1" fill="srgba(0%,0%,39.9756%,1)"/>
  <circle cx="7" cy="15" r="1" fill="srgba(0.59205%,0.59205%,40.3388%,1)"/>
  <circle cx="8" cy="15" r="1" fill="srgba(3.99939%,3.99939%,42.3682%,1)"/>
  <circle cx="9" cy="15" r="1" fill="srgba(23.4104%,23.4104%,54.0215%,1)"/>
  <circle cx="10" cy="15" r="1" fill="srgba(51.8578%,51.8578%,71.1177%,1)"/>
  <circle cx="11" cy="15" r="1" fill="srgba(62.5391%,62.5391%,77.5235%,1)"/>
  <circle cx="12" cy="15" r="1" fill="srgba(13.2799%,13.2799%,47.9683%,1)"/>
  <circle cx="13" cy="15" r="1" fill="srgba(0%,0%,38.587%,1)"/>
  <circle cx="14" cy="15" r="1" fill="srgba(36.9558%,36.9558%,62.1729%,1)"/>
  <circle cx="15" cy="15" r="1" fill="srgba(36.1471%,36.1471%,61.6892%,1)"/>
</svg>
