<?xml version="1.0" standalone="no"?>
<!DOCTYPE svg PUBLIC "-//W3C//DTD SVG 20010904//EN"
  "http://www.w3.org/TR/2001/REC-SVG-20010904/DTD/svg10.dtd">
<svg width="16" height="16">
  <circle cx="0" cy="0" r="1" fill="srgba(0.392157%,22.7436%,65.0965%,1)"/>
  <circle cx="1" cy="0" r="1" fill="srgba(0.392157%,22.7436%,65.0965%,1)"/>
  <circle cx="2" cy="0" r="1" fill="srgba(0.393683%,22.7451%,65.098%,1)"/>
  <circle cx="3" cy="0" r="1" fill="srgba(0.360113%,22.71%,65.0813%,1)"/>
  <circle cx="4" cy="0" r="1" fill="srgba(0.360113%,22.71%,65.0813%,1)"/>
  <circle cx="5" cy="0" r="1" fill="srgba(0.393683%,22.7451%,65.098%,1)"/>
  <circle cx="6" cy="0" r="1" fill="srgba(0%,22.1256%,64.8173%,1)"/>
  <circle cx="7" cy="0" r="1" fill="srgba(12.6909%,32.285%,69.4072%,1)"/>
  <circle cx="8" cy="0" r="1" fill="srgba(88.2521%,90.8904%,95.8846%,1)"/>
  <circle cx="9" cy="0" r="1" fill="white"/>
  <circle cx="10" cy="0" r="1" fill="white"/>
  <circle cx="11" cy="0" r="1" fill="white"/>
  <circle cx="12" cy="0" r="1" fill="white"/>
  <circle cx="13" cy="0" r="1" fill="white"/>
  <circle cx="14" cy="0" r="1" fill="white"/>
  <circle cx="15" cy="0" r="1" fill="white"/>
  <circle cx="0" cy="1" r="1" fill="srgba(0.392157%,22.7436%,65.0965%,1)"/>
  <circle cx="1" cy="1" r="1" fill="srgba(0.392157%,22.7436%,65.0965%,1)"/>
  <circle cx="2" cy="1" r="1" fill="srgba(0.357061%,22.7237%,65.0874%,1)"/>
  <circle cx="3" cy="1" r="1" fill="srgba(0.880446%,22.9709%,65.1987%,1)"/>
  <circle cx="4" cy="1" r="1" fill="srgba(0.863661%,22.9587%,65.1942%,1)"/>
  <circle cx="5" cy="1" r="1" fill="srgba(0.358587%,22.7237%,65.0874%,1)"/>
  <circle cx="6" cy="1" r="1" fill="srgba(0%,22.1256%,64.8173%,1)"/>
  <circle cx="7" cy="1" r="1" fill="srgba(12.6909%,32.285%,69.4072%,1)"/>
  <circle cx="8" cy="1" r="1" fill="srgba(88.2521%,90.8904%,95.8846%,1)"/>
  <circle cx="9" cy="1" r="1" fill="white"/>
  <circle cx="10" cy="1" r="1" fill="white"/>
  <circle cx="11" cy="1" r="1" fill="white"/>
  <circle cx="12" cy="1" r="1" fill="white"/>
  <circle cx="13" cy="1" r="1" fill="white"/>
  <circle cx="14" cy="1" r="1" fill="white"/>
  <circle cx="15" cy="1" r="1" fill="white"/>
  <circle cx="0" cy="2" r="1" fill="srgba(0.390631%,22.742%,65.0965%,1)"/>
  <circle cx="1" cy="2" r="1" fill="srgba(0.411994%,22.771%,65.1087%,1)"/>
  <circle cx="2" cy="2" r="1" fill="srgba(0%,21.5824%,64.5686%,1)"/>
  <circle cx="3" cy="2" r="1" fill="srgba(17.4884%,35.5749%,70.9194%,1)"/>
  <circle cx="4" cy="2" r="1" fill="srgba(17.1511%,35.2224%,70.7591%,1)"/>
  <circle cx="5" cy="2" r="1" fill="srgba(0%,21.1902%,64.3915%,1)"/>
  <circle cx="6" cy="2" r="1" fill="srgba(0%,22.1027%,64.8066%,1)"/>
  <circle cx="7" cy="2" r="1" fill="srgba(12.6925%,32.2866%,69.4087%,1)"/>
  <circle cx="8" cy="2" r="1" fill="srgba(88.2521%,90.8904%,95.8846%,1)"/>
  <circle cx="9" cy="2" r="1" fill="white"/>
  <circle cx="10" cy="2" r="1" fill="white"/>
  <circle cx="11" cy="2" r="1" fill="white"/>
  <circle cx="12" cy="2" r="1" fill="white"/>
  <circle cx="13" cy="2" r="1" fill="white"/>
  <circle cx="14" cy="2" r="1" fill="white"/>
  <circle cx="15" cy="2" r="1" fill="white"/>
  <circle cx="0" cy="3" r="1" fill="srgba(0.306706%,22.678%,65.066%,1)"/>
  <circle cx="1" cy="3" r="1" fill="srgba(1.23903%,23.3997%,65.3941%,1)"/>
  <circle cx="2" cy="3" r="1" fill="srgba(26.5934%,43.0426%,74.3145%,1)"/>
  <circle cx="3" cy="3" r="1" fill="srgba(68.307%,75.378%,88.957%,1)"/>
  <circle cx="4" cy="3" r="1" fill="srgba(67.1122%,74.4518%,88.5374%,1)"/>
  <circle cx="5" cy="3" r="1" fill="srgba(25.5131%,42.2065%,73.9345%,1)"/>
  <circle cx="6" cy="3" r="1" fill="srgba(0.462348%,22.7985%,65.1225%,1)"/>
  <circle cx="7" cy="3" r="1" fill="srgba(12.6177%,32.2286%,69.3828%,1)"/>
  <circle cx="8" cy="3" r="1" fill="srgba(88.2521%,90.8904%,95.8846%,1)"/>
  <circle cx="9" cy="3" r="1" fill="white"/>
  <circle cx="10" cy="3" r="1" fill="white"/>
  <circle cx="11" cy="3" r="1" fill="white"/>
  <circle cx="12" cy="3" r="1" fill="white"/>
  <circle cx="13" cy="3" r="1" fill="white"/>
  <circle cx="14" cy="3" r="1" fill="white"/>
  <circle cx="15" cy="3" r="1" fill="white"/>
  <circle cx="0" cy="4" r="1" fill="srgba(0.378424%,22.7329%,65.0919%,1)"/>
  <circle cx="1" cy="4" r="1" fill="srgba(0%,22.3697%,64.9271%,1)"/>
  <circle cx="2" cy="4" r="1" fill="srgba(17.6272%,36.1013%,71.1513%,1)"/>
  <circle cx="3" cy="4" r="1" fill="srgba(85.4444%,88.6702%,94.9615%,1)"/>
  <circle cx="4" cy="4" r="1" fill="srgba(88.2536%,90.8476%,95.9503%,1)"/>
  <circle cx="5" cy="4" r="1" fill="srgba(24.6601%,41.5503%,73.6248%,1)"/>
  <circle cx="6" cy="4" r="1" fill="srgba(0%,21.9272%,64.7272%,1)"/>
  <circle cx="7" cy="4" r="1" fill="srgba(12.6619%,32.2621%,69.398%,1)"/>
  <circle cx="8" cy="4" r="1" fill="srgba(88.2521%,90.8904%,95.8846%,1)"/>
  <circle cx="9" cy="4" r="1" fill="white"/>
  <circle cx="10" cy="4" r="1" fill="white"/>
  <circle cx="11" cy="4" r="1" fill="white"/>
  <circle cx="12" cy="4" r="1" fill="white"/>
  <circle cx="13" cy="4" r="1" fill="white"/>
  <circle cx="14" cy="4" r="1" fill="white"/>
  <circle cx="15" cy="4" r="1" fill="white"/>
  <circle cx="0" cy="5" r="1" fill="srgba(0.392157%,22.7436%,65.0965%,1)"/>
  <circle cx="1" cy="5" r="1" fill="srgba(0%,22.2477%,64.8707%,1)"/>
  <circle cx="2" cy="5" r="1" fill="srgba(10.8339%,30.7561%,68.7327%,1)"/>
  <circle cx="3" cy="5" r="1" fill="srgba(38.0102%,51.8746%,78.32%,1)"/>
  <circle cx="4" cy="5" r="1" fill="srgba(35.172%,49.659%,77.3144%,1)"/>
  <circle cx="5" cy="5" r="1" fill="srgba(8.33295%,28.6671%,67.7852%,1)"/>
  <circle cx="6" cy="5" r="1" fill="srgba(0%,21.7166%,64.6326%,1)"/>
  <circle cx="7" cy="5" r="1" fill="srgba(12.6925%,32.2866%,69.4087%,1)"/>
  <circle cx="8" cy="5" r="1" fill="srgba(88.2521%,90.8904%,95.8846%,1)"/>
  <circle cx="9" cy="5" r="1" fill="white"/>
  <circle cx="10" cy="5" r="1" fill="white"/>
  <circle cx="11" cy="5" r="1" fill="white"/>
  <circle cx="12" cy="5" r="1" fill="white"/>
  <circle cx="13" cy="5" r="1" fill="white"/>
  <circle cx="14" cy="5" r="1" fill="white"/>
  <circle cx="15" cy="5" r="1" fill="white"/>
  <circle cx="0" cy="6" r="1" fill="srgba(0%,22.7771%,65.5177%,1)"/>
  <circle cx="1" cy="6" r="1" fill="srgba(0%,22.7268%,65.4948%,1)"/>
  <circle cx="2" cy="6" r="1" fill="srgba(1.10018%,23.6759%,65.9251%,1)"/>
  <circle cx="3" cy="6" r="1" fill="srgba(0.822461%,22.6902%,65.478%,1)"/>
  <circle cx="4" cy="6" r="1" fill="srgba(0.688182%,22.5696%,65.4231%,1)"/>
  <circle cx="5" cy="6" r="1" fill="srgba(0.968948%,23.5691%,65.8762%,1)"/>
  <circle cx="6" cy="6" r="1" fill="srgba(0%,22.118%,65.2232%,1)"/>
  <circle cx="7" cy="6" r="1" fill="srgba(12.343%,32.3171%,69.7795%,1)"/>
  <circle cx="8" cy="6" r="1" fill="srgba(88.2017%,90.8965%,95.9365%,1)"/>
  <circle cx="9" cy="6" r="1" fill="white"/>
  <circle cx="10" cy="6" r="1" fill="white"/>
  <circle cx="11" cy="6" r="1" fill="white"/>
  <circle cx="12" cy="6" r="1" fill="white"/>
  <circle cx="13" cy="6" r="1" fill="white"/>
  <circle cx="14" cy="6" r="1" fill="white"/>
  <circle cx="15" cy="6" r="1" fill="white"/>
  <circle cx="0" cy="7" r="1" fill="srgba(10.927%,22.237%,58.6023%,1)"/>
  <circle cx="1" cy="7" r="1" fill="srgba(10.93%,22.24%,58.6038%,1)"/>
  <circle cx="2" cy="7" r="1" fill="srgba(10.8614%,22.1866%,58.5794%,1)"/>
  <circle cx="3" cy="7" r="1" fill="srgba(10.8782%,22.1988%,58.5855%,1)"/>
  <circle cx="4" cy="7" r="1" fill="srgba(10.8888%,22.2065%,58.5885%,1)"/>
  <circle cx="5" cy="7" r="1" fill="srgba(10.8705%,22.1927%,58.5824%,1)"/>
  <circle cx="6" cy="7" r="1" fill="srgba(10.2342%,21.6999%,58.3597%,1)"/>
  <circle cx="7" cy="7" r="1" fill="srgba(21.6724%,30.573%,62.3697%,1)"/>
  <circle cx="8" cy="7" r="1" fill="srgba(87.689%,81.7777%,85.5055%,1)"/>
  <circle cx="9" cy="7" r="1" fill="srgba(98.616%,90.251%,89.3339%,1)"/>
  <circle cx="10" cy="7" r="1" fill="srgba(97.9522%,89.7353%,89.1005%,1)"/>
  <circle cx="11" cy="7" r="1" fill="srgba(97.9522%,89.7353%,89.1005%,1)"/>
  <circle cx="12" cy="7" r="1" fill="srgba(97.9522%,89.7353%,89.1005%,1)"/>
  <circle cx="13" cy="7" r="1" fill="srgba(97.9522%,89.7353%,89.1005%,1)"/>
  <circle cx="14" cy="7" r="1" fill="srgba(97.9507%,89.7307%,89.0959%,1)"/>
  <circle cx="15" cy="7" r="1" fill="srgba(97.966%,89.8054%,89.1752%,1)"/>
  <circle cx="0" cy="8" r="1" fill="srgba(73.9757%,18.0621%,18.4405%,1)"/>
  <circle cx="1" cy="8" r="1" fill="srgba(73.9757%,18.0621%,18.4405%,1)"/>
  <circle cx="2" cy="8" r="1" fill="srgba(73.9757%,18.0621%,18.4405%,1)"/>
  <circle cx="3" cy="8" r="1" fill="srgba(73.9757%,18.0621%,18.4405%,1)"/>
  <circle cx="4" cy="8" r="1" fill="srgba(73.9757%,18.0621%,18.4405%,1)"/>
  <circle cx="5" cy="8" r="1" fill="srgba(73.9757%,18.0621%,18.4405%,1)"/>
  <circle cx="6" cy="8" r="1" fill="srgba(73.8842%,17.9904%,18.4085%,1)"/>
  <circle cx="7" cy="8" r="1" fill="srgba(75.3933%,19.1623%,18.938%,1)"/>
  <circle cx="8" cy="8" r="1" fill="srgba(84.1047%,25.9174%,21.9928%,1)"/>
  <circle cx="9" cy="8" r="1" fill="srgba(85.5451%,27.0359%,22.4979%,1)"/>
  <circle cx="10" cy="8" r="1" fill="srgba(85.4582%,26.9673%,22.4674%,1)"/>
  <circle cx="11" cy="8" r="1" fill="srgba(85.4582%,26.9673%,22.4674%,1)"/>
  <circle cx="12" cy="8" r="1" fill="srgba(85.4582%,26.9673%,22.4674%,1)"/>
  <circle cx="13" cy="8" r="1" fill="srgba(85.4582%,26.9673%,22.4674%,1)"/>
  <circle cx="14" cy="8" r="1" fill="srgba(85.452%,26.9398%,22.4369%,1)"/>
  <circle cx="15" cy="8" r="1" fill="srgba(85.5604%,27.4693%,23.0045%,1)"/>
  <circle cx="0" cy="9" r="1" fill="srgba(84.1459%,17.2015%,11.7494%,1)"/>
  <circle cx="1" cy="9" r="1" fill="srgba(84.1459%,17.2015%,11.7494%,1)"/>
  <circle cx="2" cy="9" r="1" fill="srgba(84.1459%,17.2015%,11.7494%,1)"/>
  <circle cx="3" cy="9" r="1" fill="srgba(84.1459%,17.2015%,11.7494%,1)"/>
  <circle cx="4" cy="9" r="1" fill="srgba(84.1459%,17.2015%,11.7494%,1)"/>
  <circle cx="5" cy="9" r="1" fill="srgba(84.1459%,17.2015%,11.7494%,1)"/>
  <circle cx="6" cy="9" r="1" fill="srgba(84.152%,17.2061%,11.751%,1)"/>
  <circle cx="7" cy="9" r="1" fill="srgba(84.0543%,17.1298%,11.7174%,1)"/>
  <circle cx="8" cy="9" r="1" fill="srgba(83.4897%,16.6934%,11.5206%,1)"/>
  <circle cx="9" cy="9" r="1" fill="srgba(83.3967%,16.6201%,11.4885%,1)"/>
  <circle cx="10" cy="9" r="1" fill="srgba(83.4028%,16.6247%,11.49%,1)"/>
  <circle cx="11" cy="9" r="1" fill="srgba(83.4028%,16.6247%,11.49%,1)"/>
  <circle cx="12" cy="9" r="1" fill="srgba(83.4028%,16.6247%,11.49%,1)"/>
  <circle cx="13" cy="9" r="1" fill="srgba(83.4028%,16.6247%,11.49%,1)"/>
  <circle cx="14" cy="9" r="1" fill="srgba(83.3967%,16.5927%,11.4565%,1)"/>
  <circle cx="15" cy="9" r="1" fill="srgba(83.5187%,17.1984%,12.1019%,1)"/>
  <circle cx="0" cy="10" r="1" fill="srgba(83.5279%,17.2534%,12.1569%,1)"/>
  <circle cx="1" cy="10" r="1" fill="srgba(83.5279%,17.2534%,12.1569%,1)"/>
  <circle cx="2" cy="10" r="1" fill="srgba(83.5279%,17.2534%,12.1569%,1)"/>
  <circle cx="3" cy="10" r="1" fill="srgba(83.5279%,17.2534%,12.1569%,1)"/>
  <circle cx="4" cy="10" r="1" fill="srgba(83.5279%,17.2534%,12.1569%,1)"/>
  <circle cx="5" cy="10" r="1" fill="srgba(83.5279%,17.2534%,12.1569%,1)"/>
  <circle cx="6" cy="10" r="1" fill="srgba(83.5279%,17.2534%,12.1569%,1)"/>
  <circle cx="7" cy="10" r="1" fill="srgba(83.5279%,17.2534%,12.1569%,1)"/>
  <circle cx="8" cy="10" r="1" fill="srgba(83.5279%,17.2534%,12.1569%,1)"/>
  <circle cx="9" cy="10" r="1" fill="srgba(83.5279%,17.2534%,12.1569%,1)"/>
  <circle cx="10" cy="10" r="1" fill="srgba(83.5279%,17.2534%,12.1569%,1)"/>
  <circle cx="11" cy="10" r="1" fill="srgba(83.5279%,17.2534%,12.1569%,1)"/>
  <circle cx="12" cy="10" r="1" fill="srgba(83.5279%,17.2534%,12.1569%,1)"/>
  <circle cx="13" cy="10" r="1" fill="srgba(83.5279%,17.2534%,12.1569%,1)"/>
  <circle cx="14" cy="10" r="1" fill="srgba(83.5218%,17.2213%,12.1233%,1)"/>
  <circle cx="15" cy="10" r="1" fill="srgba(83.6439%,17.8225%,12.7642%,1)"/>
  <circle cx="0" cy="11" r="1" fill="srgba(83.5279%,17.2534%,12.1569%,1)"/>
  <circle cx="1" cy="11" r="1" fill="srgba(83.5279%,17.2534%,12.1569%,1)"/>
  <circle cx="2" cy="11" r="1" fill="srgba(83.5279%,17.2534%,12.1569%,1)"/>
  <circle cx="3" cy="11" r="1" fill="srgba(83.5279%,17.2534%,12.1569%,1)"/>
  <circle cx="4" cy="11" r="1" fill="srgba(83.5279%,17.2534%,12.1569%,1)"/>
  <circle cx="5" cy="11" r="1" fill="srgba(83.5279%,17.2534%,12.1569%,1)"/>
  <circle cx="6" cy="11" r="1" fill="srgba(83.5279%,17.2534%,12.1569%,1)"/>
  <circle cx="7" cy="11" r="1" fill="srgba(83.5279%,17.2534%,12.1569%,1)"/>
  <circle cx="8" cy="11" r="1" fill="srgba(83.5279%,17.2534%,12.1569%,1)"/>
  <circle cx="9" cy="11" r="1" fill="srgba(83.5279%,17.2534%,12.1569%,1)"/>
  <circle cx="10" cy="11" r="1" fill="srgba(83.5279%,17.2534%,12.1569%,1)"/>
  <circle cx="11" cy="11" r="1" fill="srgba(83.5279%,17.2534%,12.1569%,1)"/>
  <circle cx="12" cy="11" r="1" fill="srgba(83.5279%,17.2534%,12.1569%,1)"/>
  <circle cx="13" cy="11" r="1" fill="srgba(83.5279%,17.2534%,12.1569%,1)"/>
  <circle cx="14" cy="11" r="1" fill="srgba(83.5218%,17.2213%,12.1233%,1)"/>
  <circle cx="15" cy="11" r="1" fill="srgba(83.6439%,17.8225%,12.7642%,1)"/>
  <circle cx="0" cy="12" r="1" fill="srgba(83.5279%,17.2534%,12.1569%,1)"/>
  <circle cx="1" cy="12" r="1" fill="srgba(83.5279%,17.2534%,12.1569%,1)"/>
  <circle cx="2" cy="12" r="1" fill="srgba(83.5279%,17.2534%,12.1569%,1)"/>
  <circle cx="3" cy="12" r="1" fill="srgba(83.5279%,17.2534%,12.1569%,1)"/>
  <circle cx="4" cy="12" r="1" fill="srgba(83.5279%,17.2534%,12.1569%,1)"/>
  <circle cx="5" cy="12" r="1" fill="srgba(83.5279%,17.2534%,12.1569%,1)"/>
  <circle cx="6" cy="12" r="1" fill="srgba(83.5279%,17.2534%,12.1569%,1)"/>
  <circle cx="7" cy="12" r="1" fill="srgba(83.5279%,17.2534%,12.1569%,1)"/>
  <circle cx="8" cy="12" r="1" fill="srgba(83.5279%,17.2534%,12.1569%,1)"/>
  <circle cx="9" cy="12" r="1" fill="srgba(83.5279%,17.2534%,12.1569%,1)"/>
  <circle cx="10" cy="12" r="1" fill="srgba(83.5279%,17.2534%,12.1569%,1)"/>
  <circle cx="11" cy="12" r="1" fill="srgba(83.5279%,17.2534%,12.1569%,1)"/>
  <circle cx="12" cy="12" r="1" fill="srgba(83.5279%,17.2534%,12.1569%,1)"/>
  <circle cx="13" cy="12" r="1" fill="srgba(83.5279%,17.2534%,12.1569%,1)"/>
  <circle cx="14" cy="12" r="1" fill="srgba(83.5218%,17.2213%,12.1233%,1)"/>
  <circle cx="15" cy="12" r="1" fill="srgba(83.6439%,17.8225%,12.7642%,1)"/>
  <circle cx="0" cy="13" r="1" fill="srgba(83.5279%,17.2534%,12.1569%,1)"/>
  <circle cx="1" cy="13" r="1" fill="srgba(83.5279%,17.2534%,12.1569%,1)"/>
  <circle cx="2" cy="13" r="1" fill="srgba(83.5279%,17.2534%,12.1569%,1)"/>
  <circle cx="3" cy="13" r="1" fill="srgba(83.5279%,17.2534%,12.1569%,1)"/>
  <circle cx="4" cy="13" r="1" fill="srgba(83.5279%,17.2534%,12.1569%,1)"/>
  <circle cx="5" cy="13" r="1" fill="srgba(83.5279%,17.2534%,12.1569%,1)"/>
  <circle cx="6" cy="13" r="1" fill="srgba(83.5279%,17.2534%,12.1569%,1)"/>
  <circle cx="7" cy="13" r="1" fill="srgba(83.5279%,17.2534%,12.1569%,1)"/>
  <circle cx="8" cy="13" r="1" fill="srgba(83.5279%,17.2534%,12.1569%,1)"/>
  <circle cx="9" cy="13" r="1" fill="srgba(83.5279%,17.2534%,12.1569%,1)"/>
  <circle cx="10" cy="13" r="1" fill="srgba(83.5279%,17.2534%,12.1569%,1)"/>
  <circle cx="11" cy="13" r="1" fill="srgba(83.5279%,17.2534%,12.1569%,1)"/>
  <circle cx="12" cy="13" r="1" fill="srgba(83.5279%,17.2534%,12.1569%,1)"/>
  <circle cx="13" cy="13" r="1" fill="srgba(83.5279%,17.2534%,12.1569%,1)"/>
  <circle cx="14" cy="13" r="1" fill="srgba(83.5218%,17.2213%,12.1233%,1)"/>
  <circle cx="15" cy="13" r="1" fill="srgba(83.6439%,17.8225%,12.7642%,1)"/>
  <circle cx="0" cy="14" r="1" fill="srgba(83.5203%,17.2168%,12.1187%,1)"/>
  <circle cx="1" cy="14" r="1" fill="srgba(83.5203%,17.2168%,12.1187%,1)"/>
  <circle cx="2" cy="14" r="1" fill="srgba(83.5203%,17.2168%,12.1187%,1)"/>
  <circle cx="3" cy="14" r="1" fill="srgba(83.5203%,17.2168%,12.1187%,1)"/>
  <circle cx="4" cy="14" r="1" fill="srgba(83.5203%,17.2168%,12.1187%,1)"/>
  <circle cx="5" cy="14" r="1" fill="srgba(83.5203%,17.2168%,12.1187%,1)"/>
  <circle cx="6" cy="14" r="1" fill="srgba(83.5203%,17.2168%,12.1187%,1)"/>
  <circle cx="7" cy="14" r="1" fill="srgba(83.5203%,17.2168%,12.1187%,1)"/>
  <circle cx="8" cy="14" r="1" fill="srgba(83.5203%,17.2168%,12.1187%,1)"/>
  <circle cx="9" cy="14" r="1" fill="srgba(83.5203%,17.2168%,12.1187%,1)"/>
  <circle cx="10" cy="14" r="1" fill="srgba(83.5203%,17.2168%,12.1187%,1)"/>
  <circle cx="11" cy="14" r="1" fill="srgba(83.5203%,17.2168%,12.1187%,1)"/>
  <circle cx="12" cy="14" r="1" fill="srgba(83.5203%,17.2168%,12.1187%,1)"/>
  <circle cx="13" cy="14" r="1" fill="srgba(83.5203%,17.2168%,12.1187%,1)"/>
  <circle cx="14" cy="14" r="1" fill="srgba(83.5142%,17.1847%,12.0851%,1)"/>
  <circle cx="15" cy="14" r="1" fill="srgba(83.6362%,17.7859%,12.7276%,1)"/>
  <circle cx="0" cy="15" r="1" fill="srgba(83.6591%,17.908%,12.8496%,1)"/>
  <circle cx="1" cy="15" r="1" fill="srgba(83.6591%,17.908%,12.8496%,1)"/>
  <circle cx="2" cy="15" r="1" fill="srgba(83.6591%,17.908%,12.8496%,1)"/>
  <circle cx="3" cy="15" r="1" fill="srgba(83.6591%,17.908%,12.8496%,1)"/>
  <circle cx="4" cy="15" r="1" fill="srgba(83.6591%,17.908%,12.8496%,1)"/>
  <circle cx="5" cy="15" r="1" fill="srgba(83.6591%,17.908%,12.8496%,1)"/>
  <circle cx="6" cy="15" r="1" fill="srgba(83.6591%,17.908%,12.8496%,1)"/>
  <circle cx="7" cy="15" r="1" fill="srgba(83.6591%,17.908%,12.8496%,1)"/>
  <circle cx="8" cy="15" r="1" fill="srgba(83.6591%,17.908%,12.8496%,1)"/>
  <circle cx="9" cy="15" r="1" fill="srgba(83.6591%,17.908%,12.8496%,1)"/>
  <circle cx="10" cy="15" r="1" fill="srgba(83.6591%,17.908%,12.8496%,1)"/>
  <circle cx="11" cy="15" r="1" fill="srgba(83.6591%,17.908%,12.8496%,1)"/>
  <circle cx="12" cy="15" r="1" fill="srgba(83.6591%,17.908%,12.8496%,1)"/>
  <circle cx="13" cy="15" r="1" fill="srgba(83.6591%,17.908%,12.8496%,1)"/>
  <circle cx="14" cy="15" r="1" fill="srgba(83.653%,17.8759%,12.8161%,1)"/>
  <circle cx="15" cy="15" r="1" fill="srgba(83.7736%,18.4726%,13.4524%,1)"/>
</svg>
