<?xml version="1.0" standalone="no"?>
<!DOCTYPE svg PUBLIC "-//W3C//DTD SVG 20010904//EN"
  "http://www.w3.org/TR/2001/REC-SVG-20010904/DTD/svg10.dtd">
<svg width="16" height="16">
  <circle cx="0" cy="0" r="1" fill="srgba(0%,47.6158%,37.0504%,1)"/>
  <circle cx="1" cy="0" r="1" fill="srgba(9.76425%,51.2154%,34.0719%,1)"/>
  <circle cx="2" cy="0" r="1" fill="srgba(67.2114%,71.0552%,17.6532%,1)"/>
  <circle cx="3" cy="0" r="1" fill="srgba(22.446%,55.4665%,30.576%,1)"/>
  <circle cx="4" cy="0" r="1" fill="srgba(0%,47.2602%,37.229%,1)"/>
  <circle cx="5" cy="0" r="1" fill="srgba(52.7016%,21.5885%,23.0518%,1)"/>
  <circle cx="6" cy="0" r="1" fill="srgba(82.1851%,5.94797%,14.5159%,1)"/>
  <circle cx="7" cy="0" r="1" fill="srgba(206,17,38,1)"/>
  <circle cx="8" cy="0" r="1" fill="srgba(206,17,38,1)"/>
  <circle cx="9" cy="0" r="1" fill="srgba(80.47%,5.35134%,15.0072%,1)"/>
  <circle cx="10" cy="0" r="1" fill="srgba(87.2999%,33.9208%,13.164%,1)"/>
  <circle cx="11" cy="0" r="1" fill="srgba(98.7686%,81.7411%,8.7602%,1)"/>
  <circle cx="12" cy="0" r="1" fill="srgba(98.8312%,81.9898%,8.61982%,1)"/>
  <circle cx="13" cy="0" r="1" fill="srgba(252,209,22,1)"/>
  <circle cx="14" cy="0" r="1" fill="srgba(252,209,22,1)"/>
  <circle cx="15" cy="0" r="1" fill="srgba(252,209,22,1)"/>
  <circle cx="0" cy="1" r="1" fill="srgba(0%,47.8416%,36.8643%,1)"/>
  <circle cx="1" cy="1" r="1" fill="srgba(0%,47.5166%,37.1328%,1)"/>
  <circle cx="2" cy="1" r="1" fill="srgba(30.3151%,58.2696%,28.2338%,1)"/>
  <circle cx="3" cy="1" r="1" fill="srgba(62.7817%,69.5506%,18.9212%,1)"/>
  <circle cx="4" cy="1" r="1" fill="srgba(7.96826%,50.1213%,34.8623%,1)"/>
  <circle cx="5" cy="1" r="1" fill="srgba(52.2591%,21.3794%,23.2258%,1)"/>
  <circle cx="6" cy="1" r="1" fill="srgba(82.1851%,5.94949%,14.5144%,1)"/>
  <circle cx="7" cy="1" r="1" fill="srgba(206,17,38,1)"/>
  <circle cx="8" cy="1" r="1" fill="srgba(206,17,38,1)"/>
  <circle cx="9" cy="1" r="1" fill="srgba(80.47%,5.35134%,15.0072%,1)"/>
  <circle cx="10" cy="1" r="1" fill="srgba(87.2999%,33.9208%,13.164%,1)"/>
  <circle cx="11" cy="1" r="1" fill="srgba(98.7686%,81.7411%,8.7602%,1)"/>
  <circle cx="12" cy="1" r="1" fill="srgba(98.8312%,81.9883%,8.61982%,1)"/>
  <circle cx="13" cy="1" r="1" fill="srgba(252,209,22,1)"/>
  <circle cx="14" cy="1" r="1" fill="srgba(252,209,22,1)"/>
  <circle cx="15" cy="1" r="1" fill="srgba(252,209,22,1)"/>
  <circle cx="0" cy="2" r="1" fill="srgba(0,122,94,1)"/>
  <circle cx="1" cy="2" r="1" fill="srgba(0%,47.7989%,36.8994%,1)"/>
  <circle cx="2" cy="2" r="1" fill="srgba(0.987259%,47.9911%,36.7407%,1)"/>
  <circle cx="3" cy="2" r="1" fill="srgba(49.1341%,64.802%,22.8458%,1)"/>
  <circle cx="4" cy="2" r="1" fill="srgba(50.4768%,64.947%,22.5772%,1)"/>
  <circle cx="5" cy="2" r="1" fill="srgba(53.8399%,21.6464%,22.7878%,1)"/>
  <circle cx="6" cy="2" r="1" fill="srgba(82.0539%,5.88235%,14.5525%,1)"/>
  <circle cx="7" cy="2" r="1" fill="srgba(206,17,38,1)"/>
  <circle cx="8" cy="2" r="1" fill="srgba(206,17,38,1)"/>
  <circle cx="9" cy="2" r="1" fill="srgba(80.4639%,5.32692%,15.0088%,1)"/>
  <circle cx="10" cy="2" r="1" fill="srgba(87.2282%,33.6248%,13.1975%,1)"/>
  <circle cx="11" cy="2" r="1" fill="srgba(98.7625%,81.7182%,8.76478%,1)"/>
  <circle cx="12" cy="2" r="1" fill="srgba(98.8312%,81.9898%,8.61982%,1)"/>
  <circle cx="13" cy="2" r="1" fill="srgba(252,209,22,1)"/>
  <circle cx="14" cy="2" r="1" fill="srgba(252,209,22,1)"/>
  <circle cx="15" cy="2" r="1" fill="srgba(252,209,22,1)"/>
  <circle cx="0" cy="3" r="1" fill="srgba(0,122,94,1)"/>
  <circle cx="1" cy="3" r="1" fill="srgba(0%,47.8462%,36.8612%,1)"/>
  <circle cx="2" cy="3" r="1" fill="srgba(0%,47.6448%,37.0275%,1)"/>
  <circle cx="3" cy="3" r="1" fill="srgba(7.3991%,50.2296%,34.8989%,1)"/>
  <circle cx="4" cy="3" r="1" fill="srgba(64.123%,70.1381%,18.6069%,1)"/>
  <circle cx="5" cy="3" r="1" fill="srgba(78.8098%,35.2728%,15.3079%,1)"/>
  <circle cx="6" cy="3" r="1" fill="srgba(80.914%,5.53292%,14.8806%,1)"/>
  <circle cx="7" cy="3" r="1" fill="srgba(80.7843%,6.66819%,14.902%,1)"/>
  <circle cx="8" cy="3" r="1" fill="srgba(80.7843%,6.66819%,14.902%,1)"/>
  <circle cx="9" cy="3" r="1" fill="srgba(80.4761%,5.38033%,15.0057%,1)"/>
  <circle cx="10" cy="3" r="1" fill="srgba(88.4871%,38.851%,12.5368%,1)"/>
  <circle cx="11" cy="3" r="1" fill="srgba(98.8754%,82.1866%,8.67628%,1)"/>
  <circle cx="12" cy="3" r="1" fill="srgba(98.8281%,81.9791%,8.62287%,1)"/>
  <circle cx="13" cy="3" r="1" fill="srgba(252,209,22,1)"/>
  <circle cx="14" cy="3" r="1" fill="srgba(252,209,22,1)"/>
  <circle cx="15" cy="3" r="1" fill="srgba(252,209,22,1)"/>
  <circle cx="0" cy="4" r="1" fill="srgba(0,122,94,1)"/>
  <circle cx="1" cy="4" r="1" fill="srgba(0,122,94,1)"/>
  <circle cx="2" cy="4" r="1" fill="srgba(0%,47.8492%,36.8582%,1)"/>
  <circle cx="3" cy="4" r="1" fill="srgba(0%,47.4281%,37.2076%,1)"/>
  <circle cx="4" cy="4" r="1" fill="srgba(19.7772%,55.024%,31.3252%,1)"/>
  <circle cx="5" cy="4" r="1" fill="srgba(83.6698%,64.4099%,13.2021%,1)"/>
  <circle cx="6" cy="4" r="1" fill="srgba(84.1962%,18.2269%,13.7591%,1)"/>
  <circle cx="7" cy="4" r="1" fill="srgba(80.5951%,5.87625%,14.9676%,1)"/>
  <circle cx="8" cy="4" r="1" fill="srgba(80.5951%,5.87625%,14.9676%,1)"/>
  <circle cx="9" cy="4" r="1" fill="srgba(83.4989%,17.9904%,13.9574%,1)"/>
  <circle cx="10" cy="4" r="1" fill="srgba(95.6146%,68.5679%,9.79629%,1)"/>
  <circle cx="11" cy="4" r="1" fill="srgba(98.9517%,82.4994%,8.59388%,1)"/>
  <circle cx="12" cy="4" r="1" fill="srgba(98.8235%,81.9623%,8.62745%,1)"/>
  <circle cx="13" cy="4" r="1" fill="srgba(252,209,22,1)"/>
  <circle cx="14" cy="4" r="1" fill="srgba(252,209,22,1)"/>
  <circle cx="15" cy="4" r="1" fill="srgba(252,209,22,1)"/>
  <circle cx="0" cy="5" r="1" fill="srgba(0,122,94,1)"/>
  <circle cx="1" cy="5" r="1" fill="srgba(0,122,94,1)"/>
  <circle cx="2" cy="5" r="1" fill="srgba(0,122,94,1)"/>
  <circle cx="3" cy="5" r="1" fill="srgba(0%,47.8477%,36.875%,1)"/>
  <circle cx="4" cy="5" r="1" fill="srgba(0.741588%,47.0054%,36.907%,1)"/>
  <circle cx="5" cy="5" r="1" fill="srgba(60.7462%,50.3502%,20.3159%,1)"/>
  <circle cx="6" cy="5" r="1" fill="srgba(93.4737%,53.2036%,10.5867%,1)"/>
  <circle cx="7" cy="5" r="1" fill="srgba(81.5488%,9.85733%,14.6365%,1)"/>
  <circle cx="8" cy="5" r="1" fill="srgba(81.5503%,9.86191%,14.6365%,1)"/>
  <circle cx="9" cy="5" r="1" fill="srgba(91.7952%,52.6207%,11.0689%,1)"/>
  <circle cx="10" cy="5" r="1" fill="srgba(94.0917%,62.2614%,10.7256%,1)"/>
  <circle cx="11" cy="5" r="1" fill="srgba(98.5992%,81.0346%,8.80293%,1)"/>
  <circle cx="12" cy="5" r="1" fill="srgba(98.8296%,81.9837%,8.62135%,1)"/>
  <circle cx="13" cy="5" r="1" fill="srgba(252,209,22,1)"/>
  <circle cx="14" cy="5" r="1" fill="srgba(252,209,22,1)"/>
  <circle cx="15" cy="5" r="1" fill="srgba(252,209,22,1)"/>
  <circle cx="0" cy="6" r="1" fill="srgba(0,122,94,1)"/>
  <circle cx="1" cy="6" r="1" fill="srgba(0,122,94,1)"/>
  <circle cx="2" cy="6" r="1" fill="srgba(0,122,94,1)"/>
  <circle cx="3" cy="6" r="1" fill="srgba(0%,47.8599%,36.8688%,1)"/>
  <circle cx="4" cy="6" r="1" fill="srgba(0.437934%,47.5288%,36.8673%,1)"/>
  <circle cx="5" cy="6" r="1" fill="srgba(53.1365%,23.4134%,22.9313%,1)"/>
  <circle cx="6" cy="6" r="1" fill="srgba(92.4544%,48.8167%,10.9438%,1)"/>
  <circle cx="7" cy="6" r="1" fill="srgba(89.6849%,43.8209%,11.8059%,1)"/>
  <circle cx="8" cy="6" r="1" fill="srgba(89.6864%,43.8239%,11.8044%,1)"/>
  <circle cx="9" cy="6" r="1" fill="srgba(90.7378%,48.2139%,11.4336%,1)"/>
  <circle cx="10" cy="6" r="1" fill="srgba(87.7455%,35.7809%,13.0144%,1)"/>
  <circle cx="11" cy="6" r="1" fill="srgba(98.7228%,81.5549%,8.77699%,1)"/>
  <circle cx="12" cy="6" r="1" fill="srgba(98.8312%,81.9898%,8.61982%,1)"/>
  <circle cx="13" cy="6" r="1" fill="srgba(252,209,22,1)"/>
  <circle cx="14" cy="6" r="1" fill="srgba(252,209,22,1)"/>
  <circle cx="15" cy="6" r="1" fill="srgba(252,209,22,1)"/>
  <circle cx="0" cy="7" r="1" fill="srgba(0,122,94,1)"/>
  <circle cx="1" cy="7" r="1" fill="srgba(0%,47.8447%,36.8612%,1)"/>
  <circle cx="2" cy="7" r="1" fill="srgba(0%,47.8157%,36.8856%,1)"/>
  <circle cx="3" cy="7" r="1" fill="srgba(0%,47.602%,37.0809%,1)"/>
  <circle cx="4" cy="7" r="1" fill="srgba(0.471504%,47.1565%,37.2763%,1)"/>
  <circle cx="5" cy="7" r="1" fill="srgba(52.7062%,21.4694%,23.1891%,1)"/>
  <circle cx="6" cy="7" r="1" fill="srgba(87.2694%,27.1778%,12.7367%,1)"/>
  <circle cx="7" cy="7" r="1" fill="srgba(97.4487%,76.2158%,9.10201%,1)"/>
  <circle cx="8" cy="7" r="1" fill="srgba(97.4456%,76.2097%,9.10506%,1)"/>
  <circle cx="9" cy="7" r="1" fill="srgba(85.5512%,26.5644%,13.2341%,1)"/>
  <circle cx="10" cy="7" r="1" fill="srgba(87.3106%,33.9681%,13.164%,1)"/>
  <circle cx="11" cy="7" r="1" fill="srgba(98.7564%,81.6907%,8.76478%,1)"/>
  <circle cx="12" cy="7" r="1" fill="srgba(98.8312%,81.9898%,8.61982%,1)"/>
  <circle cx="13" cy="7" r="1" fill="srgba(252,209,22,1)"/>
  <circle cx="14" cy="7" r="1" fill="srgba(252,209,22,1)"/>
  <circle cx="15" cy="7" r="1" fill="srgba(252,209,22,1)"/>
  <circle cx="0" cy="8" r="1" fill="srgba(0%,47.5471%,37.1069%,1)"/>
  <circle cx="1" cy="8" r="1" fill="srgba(0%,47.2999%,37.3114%,1)"/>
  <circle cx="2" cy="8" r="1" fill="srgba(1.37942%,48.1621%,36.5988%,1)"/>
  <circle cx="3" cy="8" r="1" fill="srgba(12.6345%,52.2271%,33.2433%,1)"/>
  <circle cx="4" cy="8" r="1" fill="srgba(35.2163%,59.7757%,26.8544%,1)"/>
  <circle cx="5" cy="8" r="1" fill="srgba(77.5586%,58.4955%,15.1949%,1)"/>
  <circle cx="6" cy="8" r="1" fill="srgba(94.0993%,58.8663%,10.3227%,1)"/>
  <circle cx="7" cy="8" r="1" fill="srgba(96.6247%,72.7794%,9.39193%,1)"/>
  <circle cx="8" cy="8" r="1" fill="srgba(96.6232%,72.781%,9.3904%,1)"/>
  <circle cx="9" cy="8" r="1" fill="srgba(93.2158%,58.5657%,10.5745%,1)"/>
  <circle cx="10" cy="8" r="1" fill="srgba(94.6487%,64.567%,10.3075%,1)"/>
  <circle cx="11" cy="8" r="1" fill="srgba(98.7732%,81.7533%,8.69459%,1)"/>
  <circle cx="12" cy="8" r="1" fill="srgba(98.8266%,81.973%,8.6244%,1)"/>
  <circle cx="13" cy="8" r="1" fill="srgba(252,209,22,1)"/>
  <circle cx="14" cy="8" r="1" fill="srgba(252,209,22,1)"/>
  <circle cx="15" cy="8" r="1" fill="srgba(252,209,22,1)"/>
  <circle cx="0" cy="9" r="1" fill="srgba(14.6227%,52.8923%,32.6848%,1)"/>
  <circle cx="1" cy="9" r="1" fill="srgba(35.3307%,60.0397%,26.7674%,1)"/>
  <circle cx="2" cy="9" r="1" fill="srgba(58.2971%,67.9698%,20.206%,1)"/>
  <circle cx="3" cy="9" r="1" fill="srgba(66.5904%,70.8537%,17.8317%,1)"/>
  <circle cx="4" cy="9" r="1" fill="srgba(54.7967%,66.7292%,21.2802%,1)"/>
  <circle cx="5" cy="9" r="1" fill="srgba(70.1366%,39.0402%,17.702%,1)"/>
  <circle cx="6" cy="9" r="1" fill="srgba(83.2792%,13.3837%,14.0917%,1)"/>
  <circle cx="7" cy="9" r="1" fill="srgba(89.5689%,43.3295%,11.8471%,1)"/>
  <circle cx="8" cy="9" r="1" fill="srgba(89.5674%,43.3265%,11.8471%,1)"/>
  <circle cx="9" cy="9" r="1" fill="srgba(82.3148%,13.0556%,14.3664%,1)"/>
  <circle cx="10" cy="9" r="1" fill="srgba(90.2571%,46.2409%,11.9478%,1)"/>
  <circle cx="11" cy="9" r="1" fill="srgba(98.8281%,81.9852%,8.69917%,1)"/>
  <circle cx="12" cy="9" r="1" fill="srgba(98.8281%,81.9791%,8.62287%,1)"/>
  <circle cx="13" cy="9" r="1" fill="srgba(252,209,22,1)"/>
  <circle cx="14" cy="9" r="1" fill="srgba(252,209,22,1)"/>
  <circle cx="15" cy="9" r="1" fill="srgba(252,209,22,1)"/>
  <circle cx="0" cy="10" r="1" fill="srgba(64.5136%,70.1183%,18.4298%,1)"/>
  <circle cx="1" cy="10" r="1" fill="srgba(51.6152%,65.6626%,22.1164%,1)"/>
  <circle cx="2" cy="10" r="1" fill="srgba(28.1163%,57.5494%,28.8289%,1)"/>
  <circle cx="3" cy="10" r="1" fill="srgba(8.66255%,50.8705%,34.3771%,1)"/>
  <circle cx="4" cy="10" r="1" fill="srgba(0.991836%,47.6402%,36.907%,1)"/>
  <circle cx="5" cy="10" r="1" fill="srgba(52.4788%,20.6851%,23.3036%,1)"/>
  <circle cx="6" cy="10" r="1" fill="srgba(81.7594%,4.18402%,14.6563%,1)"/>
  <circle cx="7" cy="10" r="1" fill="srgba(88.7617%,39.9603%,12.1279%,1)"/>
  <circle cx="8" cy="10" r="1" fill="srgba(88.7602%,39.9542%,12.1279%,1)"/>
  <circle cx="9" cy="10" r="1" fill="srgba(80.0443%,3.57824%,15.1537%,1)"/>
  <circle cx="10" cy="10" r="1" fill="srgba(87.1382%,33.2479%,13.2296%,1)"/>
  <circle cx="11" cy="10" r="1" fill="srgba(98.7655%,81.7304%,8.76326%,1)"/>
  <circle cx="12" cy="10" r="1" fill="srgba(98.8312%,81.9898%,8.61982%,1)"/>
  <circle cx="13" cy="10" r="1" fill="srgba(252,209,22,1)"/>
  <circle cx="14" cy="10" r="1" fill="srgba(252,209,22,1)"/>
  <circle cx="15" cy="10" r="1" fill="srgba(252,209,22,1)"/>
  <circle cx="0" cy="11" r="1" fill="srgba(5.98001%,49.9107%,35.1522%,1)"/>
  <circle cx="1" cy="11" r="1" fill="srgba(0.384527%,47.6646%,37.0108%,1)"/>
  <circle cx="2" cy="11" r="1" fill="srgba(0%,47.3396%,37.2793%,1)"/>
  <circle cx="3" cy="11" r="1" fill="srgba(0%,47.6829%,37.0153%,1)"/>
  <circle cx="4" cy="11" r="1" fill="srgba(0.485237%,47.715%,36.8521%,1)"/>
  <circle cx="5" cy="11" r="1" fill="srgba(52.7031%,21.5824%,23.0579%,1)"/>
  <circle cx="6" cy="11" r="1" fill="srgba(81.883%,4.6891%,14.6212%,1)"/>
  <circle cx="7" cy="11" r="1" fill="srgba(88.7221%,39.8077%,12.1401%,1)"/>
  <circle cx="8" cy="11" r="1" fill="srgba(88.7205%,39.8001%,12.1401%,1)"/>
  <circle cx="9" cy="11" r="1" fill="srgba(80.1678%,4.09247%,15.111%,1)"/>
  <circle cx="10" cy="11" r="1" fill="srgba(87.2999%,33.9208%,13.164%,1)"/>
  <circle cx="11" cy="11" r="1" fill="srgba(98.7686%,81.7411%,8.7602%,1)"/>
  <circle cx="12" cy="11" r="1" fill="srgba(98.8312%,81.9898%,8.61982%,1)"/>
  <circle cx="13" cy="11" r="1" fill="srgba(252,209,22,1)"/>
  <circle cx="14" cy="11" r="1" fill="srgba(252,209,22,1)"/>
  <circle cx="15" cy="11" r="1" fill="srgba(252,209,22,1)"/>
  <circle cx="0" cy="12" r="1" fill="srgba(0%,47.7272%,36.9589%,1)"/>
  <circle cx="1" cy="12" r="1" fill="srgba(0%,47.8355%,36.8688%,1)"/>
  <circle cx="2" cy="12" r="1" fill="srgba(0,122,94,1)"/>
  <circle cx="3" cy="12" r="1" fill="srgba(0%,47.8584%,36.8688%,1)"/>
  <circle cx="4" cy="12" r="1" fill="srgba(0.485237%,47.7256%,36.8429%,1)"/>
  <circle cx="5" cy="12" r="1" fill="srgba(52.7031%,21.5808%,23.0579%,1)"/>
  <circle cx="6" cy="12" r="1" fill="srgba(81.8814%,4.68147%,14.6212%,1)"/>
  <circle cx="7" cy="12" r="1" fill="srgba(88.6458%,39.4751%,12.1675%,1)"/>
  <circle cx="8" cy="12" r="1" fill="srgba(88.6442%,39.4675%,12.1691%,1)"/>
  <circle cx="9" cy="12" r="1" fill="srgba(80.1663%,4.08637%,15.1125%,1)"/>
  <circle cx="10" cy="12" r="1" fill="srgba(87.2999%,33.9208%,13.164%,1)"/>
  <circle cx="11" cy="12" r="1" fill="srgba(98.7686%,81.7411%,8.7602%,1)"/>
  <circle cx="12" cy="12" r="1" fill="srgba(98.8312%,81.9898%,8.61982%,1)"/>
  <circle cx="13" cy="12" r="1" fill="srgba(252,209,22,1)"/>
  <circle cx="14" cy="12" r="1" fill="srgba(252,209,22,1)"/>
  <circle cx="15" cy="12" r="1" fill="srgba(252,209,22,1)"/>
  <circle cx="0" cy="13" r="1" fill="srgba(0,122,94,1)"/>
  <circle cx="1" cy="13" r="1" fill="srgba(0,122,94,1)"/>
  <circle cx="2" cy="13" r="1" fill="srgba(0,122,94,1)"/>
  <circle cx="3" cy="13" r="1" fill="srgba(0%,47.8584%,36.8688%,1)"/>
  <circle cx="4" cy="13" r="1" fill="srgba(0.485237%,47.7256%,36.8429%,1)"/>
  <circle cx="5" cy="13" r="1" fill="srgba(52.7031%,21.5808%,23.0579%,1)"/>
  <circle cx="6" cy="13" r="1" fill="srgba(81.8799%,4.67536%,14.6227%,1)"/>
  <circle cx="7" cy="13" r="1" fill="srgba(88.5634%,39.1424%,12.195%,1)"/>
  <circle cx="8" cy="13" r="1" fill="srgba(88.5603%,39.1348%,12.1965%,1)"/>
  <circle cx="9" cy="13" r="1" fill="srgba(80.1648%,4.07874%,15.1125%,1)"/>
  <circle cx="10" cy="13" r="1" fill="srgba(87.2999%,33.9208%,13.164%,1)"/>
  <circle cx="11" cy="13" r="1" fill="srgba(98.7686%,81.7411%,8.7602%,1)"/>
  <circle cx="12" cy="13" r="1" fill="srgba(98.8312%,81.9898%,8.61982%,1)"/>
  <circle cx="13" cy="13" r="1" fill="srgba(252,209,22,1)"/>
  <circle cx="14" cy="13" r="1" fill="srgba(252,209,22,1)"/>
  <circle cx="15" cy="13" r="1" fill="srgba(252,209,22,1)"/>
  <circle cx="0" cy="14" r="1" fill="srgba(0,122,94,1)"/>
  <circle cx="1" cy="14" r="1" fill="srgba(0,122,94,1)"/>
  <circle cx="2" cy="14" r="1" fill="srgba(0,122,94,1)"/>
  <circle cx="3" cy="14" r="1" fill="srgba(0%,47.8584%,36.8688%,1)"/>
  <circle cx="4" cy="14" r="1" fill="srgba(0.485237%,47.7256%,36.8429%,1)"/>
  <circle cx="5" cy="14" r="1" fill="srgba(52.7031%,21.5808%,23.0579%,1)"/>
  <circle cx="6" cy="14" r="1" fill="srgba(81.8784%,4.66926%,14.6227%,1)"/>
  <circle cx="7" cy="14" r="1" fill="srgba(88.4855%,38.8037%,12.224%,1)"/>
  <circle cx="8" cy="14" r="1" fill="srgba(88.484%,38.7961%,12.224%,1)"/>
  <circle cx="9" cy="14" r="1" fill="srgba(80.1633%,4.07263%,15.1125%,1)"/>
  <circle cx="10" cy="14" r="1" fill="srgba(87.2999%,33.9208%,13.164%,1)"/>
  <circle cx="11" cy="14" r="1" fill="srgba(98.7686%,81.7411%,8.7602%,1)"/>
  <circle cx="12" cy="14" r="1" fill="srgba(98.8312%,81.9898%,8.61982%,1)"/>
  <circle cx="13" cy="14" r="1" fill="srgba(252,209,22,1)"/>
  <circle cx="14" cy="14" r="1" fill="srgba(252,209,22,1)"/>
  <circle cx="15" cy="14" r="1" fill="srgba(252,209,22,1)"/>
  <circle cx="0" cy="15" r="1" fill="srgba(0,122,94,1)"/>
  <circle cx="1" cy="15" r="1" fill="srgba(0,122,94,1)"/>
  <circle cx="2" cy="15" r="1" fill="srgba(0,122,94,1)"/>
  <circle cx="3" cy="15" r="1" fill="srgba(0%,47.8584%,36.8688%,1)"/>
  <circle cx="4" cy="15" r="1" fill="srgba(0.485237%,47.7256%,36.8429%,1)"/>
  <circle cx="5" cy="15" r="1" fill="srgba(52.7031%,21.5808%,23.0579%,1)"/>
  <circle cx="6" cy="15" r="1" fill="srgba(81.8769%,4.66316%,14.6242%,1)"/>
  <circle cx="7" cy="15" r="1" fill="srgba(88.4123%,38.5046%,12.2484%,1)"/>
  <circle cx="8" cy="15" r="1" fill="srgba(88.4092%,38.497%,12.2499%,1)"/>
  <circle cx="9" cy="15" r="1" fill="srgba(80.1617%,4.06806%,15.1141%,1)"/>
  <circle cx="10" cy="15" r="1" fill="srgba(87.2999%,33.9208%,13.164%,1)"/>
  <circle cx="11" cy="15" r="1" fill="srgba(98.7686%,81.7411%,8.7602%,1)"/>
  <circle cx="12" cy="15" r="1" fill="srgba(98.8312%,81.9898%,8.61982%,1)"/>
  <circle cx="13" cy="15" r="1" fill="srgba(252,209,22,1)"/>
  <circle cx="14" cy="15" r="1" fill="srgba(252,209,22,1)"/>
  <circle cx="15" cy="15" r="1" fill="srgba(252,209,22,1)"/>
</svg>
