<?xml version="1.0" standalone="no"?>
<!DOCTYPE svg PUBLIC "-//W3C//DTD SVG 20010904//EN"
  "http://www.w3.org/TR/2001/REC-SVG-20010904/DTD/svg10.dtd">
<svg width="16" height="16">
  <circle cx="0" cy="0" r="1" fill="srgba(222,41,16,1)"/>
  <circle cx="1" cy="0" r="1" fill="srgba(222,41,16,1)"/>
  <circle cx="2" cy="0" r="1" fill="srgba(222,41,16,1)"/>
  <circle cx="3" cy="0" r="1" fill="srgba(222,41,16,1)"/>
  <circle cx="4" cy="0" r="1" fill="srgba(222,41,16,1)"/>
  <circle cx="5" cy="0" r="1" fill="srgba(222,41,16,1)"/>
  <circle cx="6" cy="0" r="1" fill="srgba(87.0603%,16.0891%,6.27298%,1)"/>
  <circle cx="7" cy="0" r="1" fill="srgba(86.9947%,15.7244%,6.30655%,1)"/>
  <circle cx="8" cy="0" r="1" fill="srgba(87.5914%,18.999%,6.01663%,1)"/>
  <circle cx="9" cy="0" r="1" fill="srgba(92.0485%,43.4424%,3.85595%,1)"/>
  <circle cx="10" cy="0" r="1" fill="srgba(95.8953%,64.5426%,1.98978%,1)"/>
  <circle cx="11" cy="0" r="1" fill="srgba(91.1513%,38.5275%,4.29084%,1)"/>
  <circle cx="12" cy="0" r="1" fill="srgba(87.1717%,16.6979%,6.21958%,1)"/>
  <circle cx="13" cy="0" r="1" fill="srgba(87.0466%,16.0128%,6.28061%,1)"/>
  <circle cx="14" cy="0" r="1" fill="srgba(222,41,16,1)"/>
  <circle cx="15" cy="0" r="1" fill="srgba(87.0573%,16.0693%,6.27451%,1)"/>
  <circle cx="0" cy="1" r="1" fill="srgba(87.0588%,16.08%,6.27451%,1)"/>
  <circle cx="1" cy="1" r="1" fill="srgba(87.0542%,16.051%,6.27756%,1)"/>
  <circle cx="2" cy="1" r="1" fill="srgba(87.042%,15.9884%,6.28214%,1)"/>
  <circle cx="3" cy="1" r="1" fill="srgba(87.0436%,15.9991%,6.28061%,1)"/>
  <circle cx="4" cy="1" r="1" fill="srgba(87.0573%,16.0678%,6.27604%,1)"/>
  <circle cx="5" cy="1" r="1" fill="srgba(222,41,16,1)"/>
  <circle cx="6" cy="1" r="1" fill="srgba(86.9963%,15.7321%,6.30503%,1)"/>
  <circle cx="7" cy="1" r="1" fill="srgba(88.0552%,21.5381%,5.79232%,1)"/>
  <circle cx="8" cy="1" r="1" fill="srgba(94.1833%,55.1583%,2.81987%,1)"/>
  <circle cx="9" cy="1" r="1" fill="srgba(93.8445%,53.2998%,2.98466%,1)"/>
  <circle cx="10" cy="1" r="1" fill="srgba(88.8685%,26.0075%,5.39712%,1)"/>
  <circle cx="11" cy="1" r="1" fill="srgba(86.8818%,15.108%,6.35996%,1)"/>
  <circle cx="12" cy="1" r="1" fill="srgba(86.8589%,14.9798%,6.37217%,1)"/>
  <circle cx="13" cy="1" r="1" fill="srgba(86.8421%,14.8898%,6.3798%,1)"/>
  <circle cx="14" cy="1" r="1" fill="srgba(86.8864%,15.1339%,6.35843%,1)"/>
  <circle cx="15" cy="1" r="1" fill="srgba(87.0359%,15.9533%,6.28519%,1)"/>
  <circle cx="0" cy="2" r="1" fill="srgba(87.0542%,16.0494%,6.27756%,1)"/>
  <circle cx="1" cy="2" r="1" fill="srgba(87.1427%,16.5408%,6.23331%,1)"/>
  <circle cx="2" cy="2" r="1" fill="srgba(87.3243%,17.5433%,6.14481%,1)"/>
  <circle cx="3" cy="2" r="1" fill="srgba(87.2938%,17.3785%,6.15854%,1)"/>
  <circle cx="4" cy="2" r="1" fill="srgba(87.0909%,16.2585%,6.25772%,1)"/>
  <circle cx="5" cy="2" r="1" fill="srgba(87.0573%,16.0662%,6.27604%,1)"/>
  <circle cx="6" cy="2" r="1" fill="srgba(87.0207%,15.8679%,6.29282%,1)"/>
  <circle cx="7" cy="2" r="1" fill="srgba(87.7119%,19.6612%,5.95865%,1)"/>
  <circle cx="8" cy="2" r="1" fill="srgba(89.572%,29.8589%,5.05684%,1)"/>
  <circle cx="9" cy="2" r="1" fill="srgba(87.6875%,19.5254%,5.96933%,1)"/>
  <circle cx="10" cy="2" r="1" fill="srgba(88.2033%,22.3575%,5.71908%,1)"/>
  <circle cx="11" cy="2" r="1" fill="srgba(89.2744%,28.2277%,5.20027%,1)"/>
  <circle cx="12" cy="2" r="1" fill="srgba(90.4189%,34.5068%,4.64485%,1)"/>
  <circle cx="13" cy="2" r="1" fill="srgba(91.6396%,41.207%,4.0528%,1)"/>
  <circle cx="14" cy="2" r="1" fill="srgba(92.7932%,47.5334%,3.49432%,1)"/>
  <circle cx="15" cy="2" r="1" fill="srgba(93.6202%,52.0668%,3.093%,1)"/>
  <circle cx="0" cy="3" r="1" fill="srgba(86.8833%,15.1186%,6.35996%,1)"/>
  <circle cx="1" cy="3" r="1" fill="srgba(89.9046%,31.696%,4.89357%,1)"/>
  <circle cx="2" cy="3" r="1" fill="srgba(96.1578%,66.009%,1.85855%,1)"/>
  <circle cx="3" cy="3" r="1" fill="srgba(95.1049%,60.2319%,2.36973%,1)"/>
  <circle cx="4" cy="3" r="1" fill="srgba(88.1483%,22.0569%,5.74502%,1)"/>
  <circle cx="5" cy="3" r="1" fill="srgba(86.9886%,15.6909%,6.30808%,1)"/>
  <circle cx="6" cy="3" r="1" fill="srgba(87.0603%,16.0891%,6.27298%,1)"/>
  <circle cx="7" cy="3" r="1" fill="srgba(87.0237%,15.8831%,6.29129%,1)"/>
  <circle cx="8" cy="3" r="1" fill="srgba(86.8788%,15.0912%,6.36149%,1)"/>
  <circle cx="9" cy="3" r="1" fill="srgba(91.6747%,41.3977%,4.03601%,1)"/>
  <circle cx="10" cy="3" r="1" fill="srgba(95.0546%,59.9329%,2.39872%,1)"/>
  <circle cx="11" cy="3" r="1" fill="srgba(94.4121%,56.408%,2.71%,1)"/>
  <circle cx="12" cy="3" r="1" fill="srgba(93.4691%,51.2367%,3.16625%,1)"/>
  <circle cx="13" cy="3" r="1" fill="srgba(92.2316%,44.448%,3.76593%,1)"/>
  <circle cx="14" cy="3" r="1" fill="srgba(90.8736%,36.9986%,4.42512%,1)"/>
  <circle cx="15" cy="3" r="1" fill="srgba(89.7017%,30.5715%,4.99275%,1)"/>
  <circle cx="0" cy="4" r="1" fill="srgba(86.8132%,14.7066%,6.39353%,1)"/>
  <circle cx="1" cy="4" r="1" fill="srgba(91.0491%,38.294%,4.33967%,1)"/>
  <circle cx="2" cy="4" r="1" fill="srgba(99.91%,87.7028%,0.0442512%,1)"/>
  <circle cx="3" cy="4" r="1" fill="srgba(98.3902%,79.2264%,0.781262%,1)"/>
  <circle cx="4" cy="4" r="1" fill="srgba(88.5618%,24.4465%,5.54513%,1)"/>
  <circle cx="5" cy="4" r="1" fill="srgba(86.9612%,15.5367%,6.32181%,1)"/>
  <circle cx="6" cy="4" r="1" fill="srgba(222,41,16,1)"/>
  <circle cx="7" cy="4" r="1" fill="srgba(87.0588%,16.08%,6.27451%,1)"/>
  <circle cx="8" cy="4" r="1" fill="srgba(87.0466%,16.0098%,6.28061%,1)"/>
  <circle cx="9" cy="4" r="1" fill="srgba(87.6585%,19.3698%,5.98306%,1)"/>
  <circle cx="10" cy="4" r="1" fill="srgba(87.7028%,19.6063%,5.96323%,1)"/>
  <circle cx="11" cy="4" r="1" fill="srgba(87.2099%,16.907%,6.20127%,1)"/>
  <circle cx="12" cy="4" r="1" fill="srgba(86.9535%,15.4986%,6.32639%,1)"/>
  <circle cx="13" cy="4" r="1" fill="srgba(86.8482%,14.9203%,6.37675%,1)"/>
  <circle cx="14" cy="4" r="1" fill="srgba(86.8544%,14.9599%,6.37369%,1)"/>
  <circle cx="15" cy="4" r="1" fill="srgba(86.9062%,15.2438%,6.34775%,1)"/>
  <circle cx="0" cy="5" r="1" fill="srgba(86.8147%,14.7356%,6.39353%,1)"/>
  <circle cx="1" cy="5" r="1" fill="srgba(90.9972%,37.6837%,4.36408%,1)"/>
  <circle cx="2" cy="5" r="1" fill="srgba(99.8978%,86.4973%,0.0503548%,1)"/>
  <circle cx="3" cy="5" r="1" fill="srgba(98.3368%,77.9324%,0.807202%,1)"/>
  <circle cx="4" cy="5" r="1" fill="srgba(88.5115%,24.0421%,5.57107%,1)"/>
  <circle cx="5" cy="5" r="1" fill="srgba(86.9642%,15.5627%,6.32029%,1)"/>
  <circle cx="6" cy="5" r="1" fill="srgba(87.0588%,16.0815%,6.27451%,1)"/>
  <circle cx="7" cy="5" r="1" fill="srgba(87.0375%,15.9594%,6.28519%,1)"/>
  <circle cx="8" cy="5" r="1" fill="srgba(87.1855%,16.7697%,6.21347%,1)"/>
  <circle cx="9" cy="5" r="1" fill="srgba(90.5303%,35.1141%,4.59144%,1)"/>
  <circle cx="10" cy="5" r="1" fill="srgba(90.0343%,32.3964%,4.83253%,1)"/>
  <circle cx="11" cy="5" r="1" fill="srgba(87.9088%,20.737%,5.86252%,1)"/>
  <circle cx="12" cy="5" r="1" fill="srgba(86.9947%,15.7244%,6.30503%,1)"/>
  <circle cx="13" cy="5" r="1" fill="srgba(86.8589%,14.9813%,6.37217%,1)"/>
  <circle cx="14" cy="5" r="1" fill="srgba(86.9703%,15.5962%,6.31724%,1)"/>
  <circle cx="15" cy="5" r="1" fill="srgba(87.0466%,16.0098%,6.28061%,1)"/>
  <circle cx="0" cy="6" r="1" fill="srgba(86.8147%,14.7433%,6.392%,1)"/>
  <circle cx="1" cy="6" r="1" fill="srgba(90.9514%,37.4304%,4.38697%,1)"/>
  <circle cx="2" cy="6" r="1" fill="srgba(99.8871%,86.4393%,0.0549325%,1)"/>
  <circle cx="3" cy="6" r="1" fill="srgba(98.2849%,77.6532%,0.831617%,1)"/>
  <circle cx="4" cy="6" r="1" fill="srgba(88.4627%,23.7766%,5.59396%,1)"/>
  <circle cx="5" cy="6" r="1" fill="srgba(86.9688%,15.581%,6.31876%,1)"/>
  <circle cx="6" cy="6" r="1" fill="srgba(87.0497%,16.0281%,6.27909%,1)"/>
  <circle cx="7" cy="6" r="1" fill="srgba(87.3259%,17.5463%,6.14481%,1)"/>
  <circle cx="8" cy="6" r="1" fill="srgba(87.1931%,16.8154%,6.2089%,1)"/>
  <circle cx="9" cy="6" r="1" fill="srgba(91.0155%,37.7829%,4.35492%,1)"/>
  <circle cx="10" cy="6" r="1" fill="srgba(94.3389%,56.0037%,2.7451%,1)"/>
  <circle cx="11" cy="6" r="1" fill="srgba(94.905%,59.115%,2.46891%,1)"/>
  <circle cx="12" cy="6" r="1" fill="srgba(93.55%,51.6777%,3.12657%,1)"/>
  <circle cx="13" cy="6" r="1" fill="srgba(91.0048%,37.7203%,4.36103%,1)"/>
  <circle cx="14" cy="6" r="1" fill="srgba(88.6152%,24.6143%,5.51919%,1)"/>
  <circle cx="15" cy="6" r="1" fill="srgba(87.3106%,17.4533%,6.15244%,1)"/>
  <circle cx="0" cy="7" r="1" fill="srgba(86.8162%,14.7509%,6.392%,1)"/>
  <circle cx="1" cy="7" r="1" fill="srgba(90.9071%,37.1801%,4.40833%,1)"/>
  <circle cx="2" cy="7" r="1" fill="srgba(99.8764%,86.3813%,0.0595102%,1)"/>
  <circle cx="3" cy="7" r="1" fill="srgba(98.2345%,77.3709%,0.856031%,1)"/>
  <circle cx="4" cy="7" r="1" fill="srgba(88.4138%,23.5126%,5.61685%,1)"/>
  <circle cx="5" cy="7" r="1" fill="srgba(86.9703%,15.5962%,6.31724%,1)"/>
  <circle cx="6" cy="7" r="1" fill="srgba(86.952%,15.494%,6.32639%,1)"/>
  <circle cx="7" cy="7" r="1" fill="srgba(91.3207%,39.4553%,4.20691%,1)"/>
  <circle cx="8" cy="7" r="1" fill="srgba(92.4727%,45.771%,3.64996%,1)"/>
  <circle cx="9" cy="7" r="1" fill="srgba(87.2435%,17.0886%,6.18448%,1)"/>
  <circle cx="10" cy="7" r="1" fill="srgba(87.0741%,16.1654%,6.26688%,1)"/>
  <circle cx="11" cy="7" r="1" fill="srgba(88.3742%,23.3005%,5.63668%,1)"/>
  <circle cx="12" cy="7" r="1" fill="srgba(90.5577%,35.2728%,4.57771%,1)"/>
  <circle cx="13" cy="7" r="1" fill="srgba(93.0266%,48.8106%,3.3814%,1)"/>
  <circle cx="14" cy="7" r="1" fill="srgba(94.4717%,56.7361%,2.68101%,1)"/>
  <circle cx="15" cy="7" r="1" fill="srgba(94.1878%,55.172%,2.81834%,1)"/>
  <circle cx="0" cy="8" r="1" fill="srgba(86.8177%,14.7585%,6.39048%,1)"/>
  <circle cx="1" cy="8" r="1" fill="srgba(90.8614%,36.9299%,4.43122%,1)"/>
  <circle cx="2" cy="8" r="1" fill="srgba(99.8657%,86.3233%,0.0656138%,1)"/>
  <circle cx="3" cy="8" r="1" fill="srgba(98.1796%,77.0764%,0.881971%,1)"/>
  <circle cx="4" cy="8" r="1" fill="srgba(88.368%,23.2609%,5.63973%,1)"/>
  <circle cx="5" cy="8" r="1" fill="srgba(86.9749%,15.6146%,6.31571%,1)"/>
  <circle cx="6" cy="8" r="1" fill="srgba(87.0115%,15.819%,6.2974%,1)"/>
  <circle cx="7" cy="8" r="1" fill="srgba(88.1621%,22.1317%,5.73892%,1)"/>
  <circle cx="8" cy="8" r="1" fill="srgba(93.814%,53.1228%,2.99992%,1)"/>
  <circle cx="9" cy="8" r="1" fill="srgba(93.8674%,53.4203%,2.97398%,1)"/>
  <circle cx="10" cy="8" r="1" fill="srgba(88.0598%,21.5671%,5.78927%,1)"/>
  <circle cx="11" cy="8" r="1" fill="srgba(86.8421%,14.8882%,6.3798%,1)"/>
  <circle cx="12" cy="8" r="1" fill="srgba(86.8727%,15.0546%,6.36454%,1)"/>
  <circle cx="13" cy="8" r="1" fill="srgba(86.92%,15.3185%,6.34165%,1)"/>
  <circle cx="14" cy="8" r="1" fill="srgba(87.6112%,19.1119%,6.00595%,1)"/>
  <circle cx="15" cy="8" r="1" fill="srgba(89.0623%,27.0741%,5.30251%,1)"/>
  <circle cx="0" cy="9" r="1" fill="srgba(86.8193%,14.7662%,6.39048%,1)"/>
  <circle cx="1" cy="9" r="1" fill="srgba(90.8141%,36.6781%,4.45258%,1)"/>
  <circle cx="2" cy="9" r="1" fill="srgba(99.855%,86.2654%,0.0701915%,1)"/>
  <circle cx="3" cy="9" r="1" fill="srgba(98.1262%,76.7788%,0.909438%,1)"/>
  <circle cx="4" cy="9" r="1" fill="srgba(88.3238%,23.0137%,5.6611%,1)"/>
  <circle cx="5" cy="9" r="1" fill="srgba(86.978%,15.6313%,6.31418%,1)"/>
  <circle cx="6" cy="9" r="1" fill="srgba(87.0619%,16.0922%,6.27298%,1)"/>
  <circle cx="7" cy="9" r="1" fill="srgba(86.9718%,15.5962%,6.31724%,1)"/>
  <circle cx="8" cy="9" r="1" fill="srgba(87.3365%,17.5998%,6.14023%,1)"/>
  <circle cx="9" cy="9" r="1" fill="srgba(92.1859%,44.1932%,3.78882%,1)"/>
  <circle cx="10" cy="9" r="1" fill="srgba(94.7662%,58.352%,2.53758%,1)"/>
  <circle cx="11" cy="9" r="1" fill="srgba(89.0929%,27.2328%,5.28878%,1)"/>
  <circle cx="12" cy="9" r="1" fill="srgba(86.8956%,15.1843%,6.35386%,1)"/>
  <circle cx="13" cy="9" r="1" fill="srgba(87.0512%,16.0342%,6.27909%,1)"/>
  <circle cx="14" cy="9" r="1" fill="srgba(87.0314%,15.9258%,6.28824%,1)"/>
  <circle cx="15" cy="9" r="1" fill="srgba(86.9459%,15.4559%,6.32944%,1)"/>
  <circle cx="0" cy="10" r="1" fill="srgba(86.8208%,14.7738%,6.39048%,1)"/>
  <circle cx="1" cy="10" r="1" fill="srgba(90.7683%,36.4279%,4.47547%,1)"/>
  <circle cx="2" cy="10" r="1" fill="srgba(99.8444%,86.2074%,0.0747692%,1)"/>
  <circle cx="3" cy="10" r="1" fill="srgba(98.0728%,76.4828%,0.933852%,1)"/>
  <circle cx="4" cy="10" r="1" fill="srgba(88.2795%,22.768%,5.68246%,1)"/>
  <circle cx="5" cy="10" r="1" fill="srgba(86.981%,15.6481%,6.31266%,1)"/>
  <circle cx="6" cy="10" r="1" fill="srgba(222,41,16,1)"/>
  <circle cx="7" cy="10" r="1" fill="srgba(87.0603%,16.0861%,6.27451%,1)"/>
  <circle cx="8" cy="10" r="1" fill="srgba(87.0222%,15.874%,6.29282%,1)"/>
  <circle cx="9" cy="10" r="1" fill="srgba(86.9917%,15.7122%,6.30655%,1)"/>
  <circle cx="10" cy="10" r="1" fill="srgba(90.4982%,34.9386%,4.6067%,1)"/>
  <circle cx="11" cy="10" r="1" fill="srgba(94.9859%,59.5529%,2.43076%,1)"/>
  <circle cx="12" cy="10" r="1" fill="srgba(90.4067%,34.4503%,4.65095%,1)"/>
  <circle cx="13" cy="10" r="1" fill="srgba(86.978%,15.6359%,6.31418%,1)"/>
  <circle cx="14" cy="10" r="1" fill="srgba(87.0283%,15.9091%,6.28977%,1)"/>
  <circle cx="15" cy="10" r="1" fill="srgba(87.0603%,16.0861%,6.27451%,1)"/>
  <circle cx="0" cy="11" r="1" fill="srgba(86.8223%,14.7814%,6.38895%,1)"/>
  <circle cx="1" cy="11" r="1" fill="srgba(90.7256%,36.1837%,4.49683%,1)"/>
  <circle cx="2" cy="11" r="1" fill="srgba(99.8337%,86.1448%,0.0808728%,1)"/>
  <circle cx="3" cy="11" r="1" fill="srgba(98.0179%,76.1837%,0.959792%,1)"/>
  <circle cx="4" cy="11" r="1" fill="srgba(88.2338%,22.5193%,5.70382%,1)"/>
  <circle cx="5" cy="11" r="1" fill="srgba(86.9841%,15.6649%,6.31113%,1)"/>
  <circle cx="6" cy="11" r="1" fill="srgba(222,41,16,1)"/>
  <circle cx="7" cy="11" r="1" fill="srgba(222,41,16,1)"/>
  <circle cx="8" cy="11" r="1" fill="srgba(87.0588%,16.0815%,6.27451%,1)"/>
  <circle cx="9" cy="11" r="1" fill="srgba(87.0497%,16.0296%,6.27909%,1)"/>
  <circle cx="10" cy="11" r="1" fill="srgba(86.894%,15.1781%,6.35386%,1)"/>
  <circle cx="11" cy="11" r="1" fill="srgba(89.0288%,26.8833%,5.3193%,1)"/>
  <circle cx="12" cy="11" r="1" fill="srgba(94.464%,56.7041%,2.68406%,1)"/>
  <circle cx="13" cy="11" r="1" fill="srgba(91.841%,42.3148%,3.95514%,1)"/>
  <circle cx="14" cy="11" r="1" fill="srgba(87.2557%,17.1542%,6.1799%,1)"/>
  <circle cx="15" cy="11" r="1" fill="srgba(86.9764%,15.6252%,6.31418%,1)"/>
  <circle cx="0" cy="12" r="1" fill="srgba(86.8238%,14.7906%,6.38895%,1)"/>
  <circle cx="1" cy="12" r="1" fill="srgba(90.6798%,35.9411%,4.51972%,1)"/>
  <circle cx="2" cy="12" r="1" fill="srgba(99.8215%,86.0777%,0.0869764%,1)"/>
  <circle cx="3" cy="12" r="1" fill="srgba(97.9614%,75.8801%,0.988785%,1)"/>
  <circle cx="4" cy="12" r="1" fill="srgba(88.191%,22.2843%,5.72671%,1)"/>
  <circle cx="5" cy="12" r="1" fill="srgba(86.9856%,15.6802%,6.30961%,1)"/>
  <circle cx="6" cy="12" r="1" fill="srgba(222,41,16,1)"/>
  <circle cx="7" cy="12" r="1" fill="srgba(222,41,16,1)"/>
  <circle cx="8" cy="12" r="1" fill="srgba(222,41,16,1)"/>
  <circle cx="9" cy="12" r="1" fill="srgba(222,41,16,1)"/>
  <circle cx="10" cy="12" r="1" fill="srgba(87.0603%,16.0845%,6.27451%,1)"/>
  <circle cx="11" cy="12" r="1" fill="srgba(86.92%,15.317%,6.34165%,1)"/>
  <circle cx="12" cy="12" r="1" fill="srgba(87.9469%,20.9491%,5.84421%,1)"/>
  <circle cx="13" cy="12" r="1" fill="srgba(93.3211%,50.428%,3.23796%,1)"/>
  <circle cx="14" cy="12" r="1" fill="srgba(93.0907%,49.1646%,3.34936%,1)"/>
  <circle cx="15" cy="12" r="1" fill="srgba(87.9484%,20.9583%,5.84268%,1)"/>
  <circle cx="0" cy="13" r="1" fill="srgba(86.8254%,14.7997%,6.38743%,1)"/>
  <circle cx="1" cy="13" r="1" fill="srgba(90.6355%,35.697%,4.54108%,1)"/>
  <circle cx="2" cy="13" r="1" fill="srgba(99.8093%,86.009%,0.09308%,1)"/>
  <circle cx="3" cy="13" r="1" fill="srgba(97.9049%,75.5657%,1.01625%,1)"/>
  <circle cx="4" cy="13" r="1" fill="srgba(88.1483%,22.0554%,5.74655%,1)"/>
  <circle cx="5" cy="13" r="1" fill="srgba(86.9886%,15.6954%,6.30808%,1)"/>
  <circle cx="6" cy="13" r="1" fill="srgba(222,41,16,1)"/>
  <circle cx="7" cy="13" r="1" fill="srgba(222,41,16,1)"/>
  <circle cx="8" cy="13" r="1" fill="srgba(222,41,16,1)"/>
  <circle cx="9" cy="13" r="1" fill="srgba(222,41,16,1)"/>
  <circle cx="10" cy="13" r="1" fill="srgba(222,41,16,1)"/>
  <circle cx="11" cy="13" r="1" fill="srgba(87.0619%,16.0922%,6.27298%,1)"/>
  <circle cx="12" cy="13" r="1" fill="srgba(86.9795%,15.639%,6.31266%,1)"/>
  <circle cx="13" cy="13" r="1" fill="srgba(87.2862%,17.3281%,6.16312%,1)"/>
  <circle cx="14" cy="13" r="1" fill="srgba(91.7937%,42.0462%,3.97955%,1)"/>
  <circle cx="15" cy="13" r="1" fill="srgba(94.4991%,56.8917%,2.66728%,1)"/>
  <circle cx="0" cy="14" r="1" fill="srgba(86.8269%,14.8089%,6.38743%,1)"/>
  <circle cx="1" cy="14" r="1" fill="srgba(90.5913%,35.4513%,4.56245%,1)"/>
  <circle cx="2" cy="14" r="1" fill="srgba(99.7955%,85.9403%,0.0991836%,1)"/>
  <circle cx="3" cy="14" r="1" fill="srgba(97.847%,75.2483%,1.04372%,1)"/>
  <circle cx="4" cy="14" r="1" fill="srgba(88.1071%,21.8235%,5.76638%,1)"/>
  <circle cx="5" cy="14" r="1" fill="srgba(86.9917%,15.7122%,6.30655%,1)"/>
  <circle cx="6" cy="14" r="1" fill="srgba(222,41,16,1)"/>
  <circle cx="7" cy="14" r="1" fill="srgba(222,41,16,1)"/>
  <circle cx="8" cy="14" r="1" fill="srgba(222,41,16,1)"/>
  <circle cx="9" cy="14" r="1" fill="srgba(222,41,16,1)"/>
  <circle cx="10" cy="14" r="1" fill="srgba(222,41,16,1)"/>
  <circle cx="11" cy="14" r="1" fill="srgba(222,41,16,1)"/>
  <circle cx="12" cy="14" r="1" fill="srgba(87.0603%,16.0861%,6.27451%,1)"/>
  <circle cx="13" cy="14" r="1" fill="srgba(87.0268%,15.903%,6.28977%,1)"/>
  <circle cx="14" cy="14" r="1" fill="srgba(87.0359%,15.9518%,6.28519%,1)"/>
  <circle cx="15" cy="14" r="1" fill="srgba(89.5872%,29.9458%,5.04921%,1)"/>
  <circle cx="0" cy="15" r="1" fill="srgba(86.8284%,14.818%,6.3859%,1)"/>
  <circle cx="1" cy="15" r="1" fill="srgba(90.5501%,35.23%,4.58076%,1)"/>
  <circle cx="2" cy="15" r="1" fill="srgba(99.7848%,85.8793%,0.103761%,1)"/>
  <circle cx="3" cy="15" r="1" fill="srgba(97.7966%,74.9615%,1.06813%,1)"/>
  <circle cx="4" cy="15" r="1" fill="srgba(88.069%,21.6144%,5.7847%,1)"/>
  <circle cx="5" cy="15" r="1" fill="srgba(86.9947%,15.7259%,6.30503%,1)"/>
  <circle cx="6" cy="15" r="1" fill="srgba(222,41,16,1)"/>
  <circle cx="7" cy="15" r="1" fill="srgba(222,41,16,1)"/>
  <circle cx="8" cy="15" r="1" fill="srgba(222,41,16,1)"/>
  <circle cx="9" cy="15" r="1" fill="srgba(222,41,16,1)"/>
  <circle cx="10" cy="15" r="1" fill="srgba(222,41,16,1)"/>
  <circle cx="11" cy="15" r="1" fill="srgba(222,41,16,1)"/>
  <circle cx="12" cy="15" r="1" fill="srgba(222,41,16,1)"/>
  <circle cx="13" cy="15" r="1" fill="srgba(87.0588%,16.0815%,6.27451%,1)"/>
  <circle cx="14" cy="15" r="1" fill="srgba(87.0512%,16.0388%,6.27756%,1)"/>
  <circle cx="15" cy="15" r="1" fill="srgba(86.92%,15.314%,6.34165%,1)"/>
</svg>
