<?xml version="1.0" standalone="no"?>
<!DOCTYPE svg PUBLIC "-//W3C//DTD SVG 20010904//EN"
  "http://www.w3.org/TR/2001/REC-SVG-20010904/DTD/svg10.dtd">
<svg width="16" height="16">
  <circle cx="0" cy="0" r="1" fill="srgba(19.6719%,24.7272%,74.1802%,1)"/>
  <circle cx="1" cy="0" r="1" fill="srgba(1.55337%,31.1498%,93.4493%,1)"/>
  <circle cx="2" cy="0" r="1" fill="srgba(0%,31.6869%,95.0591%,1)"/>
  <circle cx="3" cy="0" r="1" fill="srgba(0%,31.3756%,94.1253%,1)"/>
  <circle cx="4" cy="0" r="1" fill="srgba(0%,31.3725%,94.1161%,1)"/>
  <circle cx="5" cy="0" r="1" fill="srgba(0,80,240,1)"/>
  <circle cx="6" cy="0" r="1" fill="srgba(0,80,240,1)"/>
  <circle cx="7" cy="0" r="1" fill="srgba(0,80,240,1)"/>
  <circle cx="8" cy="0" r="1" fill="srgba(0,80,240,1)"/>
  <circle cx="9" cy="0" r="1" fill="srgba(0,80,240,1)"/>
  <circle cx="10" cy="0" r="1" fill="srgba(0,80,240,1)"/>
  <circle cx="11" cy="0" r="1" fill="srgba(0,80,240,1)"/>
  <circle cx="12" cy="0" r="1" fill="srgba(0,80,240,1)"/>
  <circle cx="13" cy="0" r="1" fill="srgba(0,80,240,1)"/>
  <circle cx="14" cy="0" r="1" fill="srgba(0,80,240,1)"/>
  <circle cx="15" cy="0" r="1" fill="srgba(0,80,240,1)"/>
  <circle cx="0" cy="1" r="1" fill="srgba(83.2258%,3.27916%,9.83902%,1)"/>
  <circle cx="1" cy="1" r="1" fill="srgba(50.2205%,14.4198%,43.2593%,1)"/>
  <circle cx="2" cy="1" r="1" fill="srgba(11.9799%,27.3533%,82.0569%,1)"/>
  <circle cx="3" cy="1" r="1" fill="srgba(0%,31.722%,95.1598%,1)"/>
  <circle cx="4" cy="1" r="1" fill="srgba(0%,31.4656%,94.5617%,1)"/>
  <circle cx="5" cy="1" r="1" fill="srgba(0%,31.2184%,94.0932%,1)"/>
  <circle cx="6" cy="1" r="1" fill="srgba(0%,31.2215%,94.1054%,1)"/>
  <circle cx="7" cy="1" r="1" fill="srgba(0%,31.2215%,94.1054%,1)"/>
  <circle cx="8" cy="1" r="1" fill="srgba(0%,31.2215%,94.1054%,1)"/>
  <circle cx="9" cy="1" r="1" fill="srgba(0%,31.2215%,94.1054%,1)"/>
  <circle cx="10" cy="1" r="1" fill="srgba(0%,31.2215%,94.1054%,1)"/>
  <circle cx="11" cy="1" r="1" fill="srgba(0%,31.2215%,94.1054%,1)"/>
  <circle cx="12" cy="1" r="1" fill="srgba(0%,31.2215%,94.1054%,1)"/>
  <circle cx="13" cy="1" r="1" fill="srgba(0%,31.2215%,94.1054%,1)"/>
  <circle cx="14" cy="1" r="1" fill="srgba(0%,31.2215%,94.1054%,1)"/>
  <circle cx="15" cy="1" r="1" fill="srgba(0%,31.2215%,94.1054%,1)"/>
  <circle cx="0" cy="2" r="1" fill="srgba(93.5943%,0%,0%,1)"/>
  <circle cx="1" cy="2" r="1" fill="srgba(93.6522%,0.0823987%,0.247196%,1)"/>
  <circle cx="2" cy="2" r="1" fill="srgba(78.0255%,5.04463%,15.1324%,1)"/>
  <circle cx="3" cy="2" r="1" fill="srgba(38.1308%,18.4222%,55.4208%,1)"/>
  <circle cx="4" cy="2" r="1" fill="srgba(7.44945%,30.5913%,88.3879%,1)"/>
  <circle cx="5" cy="2" r="1" fill="srgba(3.50652%,35.1095%,95.7153%,1)"/>
  <circle cx="6" cy="2" r="1" fill="srgba(3.66674%,34.0795%,94.5312%,1)"/>
  <circle cx="7" cy="2" r="1" fill="srgba(3.65301%,33.872%,94.3236%,1)"/>
  <circle cx="8" cy="2" r="1" fill="srgba(3.65301%,33.8811%,94.3328%,1)"/>
  <circle cx="9" cy="2" r="1" fill="srgba(3.65301%,33.8811%,94.3328%,1)"/>
  <circle cx="10" cy="2" r="1" fill="srgba(3.65301%,33.8811%,94.3328%,1)"/>
  <circle cx="11" cy="2" r="1" fill="srgba(3.65301%,33.8811%,94.3328%,1)"/>
  <circle cx="12" cy="2" r="1" fill="srgba(3.65301%,33.8811%,94.3328%,1)"/>
  <circle cx="13" cy="2" r="1" fill="srgba(3.65301%,33.8811%,94.3328%,1)"/>
  <circle cx="14" cy="2" r="1" fill="srgba(3.65301%,33.8811%,94.3328%,1)"/>
  <circle cx="15" cy="2" r="1" fill="srgba(3.65301%,33.8811%,94.3328%,1)"/>
  <circle cx="0" cy="3" r="1" fill="srgba(92.9381%,0%,0%,1)"/>
  <circle cx="1" cy="3" r="1" fill="srgba(92.9671%,0%,0%,1)"/>
  <circle cx="2" cy="3" r="1" fill="srgba(93.9055%,0%,0%,1)"/>
  <circle cx="3" cy="3" r="1" fill="srgba(91.4992%,0.31281%,1.72122%,1)"/>
  <circle cx="4" cy="3" r="1" fill="srgba(75.8679%,13.0892%,24.9409%,1)"/>
  <circle cx="5" cy="3" r="1" fill="srgba(72.7871%,53.8506%,69.6468%,1)"/>
  <circle cx="6" cy="3" r="1" fill="srgba(74.9737%,81.0468%,96.6171%,1)"/>
  <circle cx="7" cy="3" r="1" fill="srgba(75.1858%,84.0558%,99.6201%,1)"/>
  <circle cx="8" cy="3" r="1" fill="srgba(75.108%,82.9664%,98.587%,1)"/>
  <circle cx="9" cy="3" r="1" fill="srgba(75.1049%,82.9145%,98.5321%,1)"/>
  <circle cx="10" cy="3" r="1" fill="srgba(75.1049%,82.9175%,98.5351%,1)"/>
  <circle cx="11" cy="3" r="1" fill="srgba(75.1049%,82.9175%,98.5351%,1)"/>
  <circle cx="12" cy="3" r="1" fill="srgba(75.1049%,82.9175%,98.5351%,1)"/>
  <circle cx="13" cy="3" r="1" fill="srgba(75.1049%,82.9175%,98.5351%,1)"/>
  <circle cx="14" cy="3" r="1" fill="srgba(75.1049%,82.9175%,98.5351%,1)"/>
  <circle cx="15" cy="3" r="1" fill="srgba(75.1049%,82.9175%,98.5351%,1)"/>
  <circle cx="0" cy="4" r="1" fill="srgba(237,0,0,1)"/>
  <circle cx="1" cy="4" r="1" fill="srgba(237,0,0,1)"/>
  <circle cx="2" cy="4" r="1" fill="srgba(92.932%,0%,0%,1)"/>
  <circle cx="3" cy="4" r="1" fill="srgba(93.0419%,0%,0%,1)"/>
  <circle cx="4" cy="4" r="1" fill="srgba(93.9849%,0%,0%,1)"/>
  <circle cx="5" cy="4" r="1" fill="srgba(94.7799%,6.04105%,5.34676%,1)"/>
  <circle cx="6" cy="4" r="1" fill="srgba(97.116%,38.9822%,38.0407%,1)"/>
  <circle cx="7" cy="4" r="1" fill="srgba(99.6826%,82.6459%,81.7578%,1)"/>
  <circle cx="8" cy="4" r="1" fill="srgba(100%,99.7192%,99.498%,1)"/>
  <circle cx="9" cy="4" r="1" fill="white"/>
  <circle cx="10" cy="4" r="1" fill="white"/>
  <circle cx="11" cy="4" r="1" fill="white"/>
  <circle cx="12" cy="4" r="1" fill="white"/>
  <circle cx="13" cy="4" r="1" fill="white"/>
  <circle cx="14" cy="4" r="1" fill="white"/>
  <circle cx="15" cy="4" r="1" fill="white"/>
  <circle cx="0" cy="5" r="1" fill="srgba(237,0,0,1)"/>
  <circle cx="1" cy="5" r="1" fill="srgba(92.9335%,0%,0%,1)"/>
  <circle cx="2" cy="5" r="1" fill="srgba(92.9595%,0.492866%,0.492866%,1)"/>
  <circle cx="3" cy="5" r="1" fill="srgba(93.724%,11.4809%,11.4809%,1)"/>
  <circle cx="4" cy="5" r="1" fill="srgba(93.0297%,1.38552%,1.38552%,1)"/>
  <circle cx="5" cy="5" r="1" fill="srgba(92.9107%,0%,0%,1)"/>
  <circle cx="6" cy="5" r="1" fill="srgba(92.8511%,0%,0%,1)"/>
  <circle cx="7" cy="5" r="1" fill="srgba(93.7194%,11.1376%,11.1376%,1)"/>
  <circle cx="8" cy="5" r="1" fill="srgba(96.5377%,50.8721%,50.8721%,1)"/>
  <circle cx="9" cy="5" r="1" fill="srgba(99.2096%,89.7963%,89.7963%,1)"/>
  <circle cx="10" cy="5" r="1" fill="srgba(99.4003%,100%,100%,1)"/>
  <circle cx="11" cy="5" r="1" fill="srgba(99.8993%,100%,100%,1)"/>
  <circle cx="12" cy="5" r="1" fill="white"/>
  <circle cx="13" cy="5" r="1" fill="white"/>
  <circle cx="14" cy="5" r="1" fill="white"/>
  <circle cx="15" cy="5" r="1" fill="white"/>
  <circle cx="0" cy="6" r="1" fill="srgba(92.9458%,0.062562%,0.062562%,1)"/>
  <circle cx="1" cy="6" r="1" fill="srgba(93.1106%,2.39872%,2.39872%,1)"/>
  <circle cx="2" cy="6" r="1" fill="srgba(93.4874%,7.72259%,7.72259%,1)"/>
  <circle cx="3" cy="6" r="1" fill="srgba(96.8063%,54.7951%,54.7951%,1)"/>
  <circle cx="4" cy="6" r="1" fill="srgba(93.5988%,9.92752%,9.92752%,1)"/>
  <circle cx="5" cy="6" r="1" fill="srgba(92.8985%,0%,0%,1)"/>
  <circle cx="6" cy="6" r="1" fill="srgba(237,0,0,1)"/>
  <circle cx="7" cy="6" r="1" fill="srgba(92.8862%,0%,0%,1)"/>
  <circle cx="8" cy="6" r="1" fill="srgba(92.9717%,0.730907%,0.701915%,1)"/>
  <circle cx="9" cy="6" r="1" fill="srgba(94.0063%,19.3851%,19.585%,1)"/>
  <circle cx="10" cy="6" r="1" fill="srgba(74.1283%,47.7012%,62.3224%,1)"/>
  <circle cx="11" cy="6" r="1" fill="srgba(45.2354%,58.3459%,92.5139%,1)"/>
  <circle cx="12" cy="6" r="1" fill="srgba(40.2197%,59.968%,97.5189%,1)"/>
  <circle cx="13" cy="6" r="1" fill="srgba(41.1887%,59.6414%,96.5377%,1)"/>
  <circle cx="14" cy="6" r="1" fill="srgba(41.1872%,59.6414%,96.5393%,1)"/>
  <circle cx="15" cy="6" r="1" fill="srgba(41.1872%,59.6414%,96.5393%,1)"/>
  <circle cx="0" cy="7" r="1" fill="srgba(92.9122%,0%,0%,1)"/>
  <circle cx="1" cy="7" r="1" fill="srgba(94.5937%,23.4104%,23.4104%,1)"/>
  <circle cx="2" cy="7" r="1" fill="srgba(97.7813%,68.5725%,68.5725%,1)"/>
  <circle cx="3" cy="7" r="1" fill="srgba(99.5529%,93.6538%,93.6538%,1)"/>
  <circle cx="4" cy="7" r="1" fill="srgba(95.7641%,40.1617%,40.1617%,1)"/>
  <circle cx="5" cy="7" r="1" fill="srgba(92.8756%,0%,0%,1)"/>
  <circle cx="6" cy="7" r="1" fill="srgba(92.9381%,0%,0%,1)"/>
  <circle cx="7" cy="7" r="1" fill="srgba(237,0,0,1)"/>
  <circle cx="8" cy="7" r="1" fill="srgba(92.9381%,0%,0%,1)"/>
  <circle cx="9" cy="7" r="1" fill="srgba(92.9946%,0%,0%,1)"/>
  <circle cx="10" cy="7" r="1" fill="srgba(89.2988%,0.357061%,2.43534%,1)"/>
  <circle cx="11" cy="7" r="1" fill="srgba(63.9841%,7.99573%,27.4266%,1)"/>
  <circle cx="12" cy="7" r="1" fill="srgba(17.5311%,23.8575%,75.0118%,1)"/>
  <circle cx="13" cy="7" r="1" fill="srgba(0%,30.338%,94.4518%,1)"/>
  <circle cx="14" cy="7" r="1" fill="srgba(0%,30.1961%,94.0246%,1)"/>
  <circle cx="15" cy="7" r="1" fill="srgba(0%,30.193%,94.0169%,1)"/>
  <circle cx="0" cy="8" r="1" fill="srgba(92.929%,0%,0%,1)"/>
  <circle cx="1" cy="8" r="1" fill="srgba(93.0434%,1.47097%,1.47097%,1)"/>
  <circle cx="2" cy="8" r="1" fill="srgba(96.8841%,55.8404%,55.8404%,1)"/>
  <circle cx="3" cy="8" r="1" fill="srgba(99.9496%,99.2905%,99.2905%,1)"/>
  <circle cx="4" cy="8" r="1" fill="srgba(99.1775%,88.3421%,88.3421%,1)"/>
  <circle cx="5" cy="8" r="1" fill="srgba(94.5632%,22.9892%,22.9892%,1)"/>
  <circle cx="6" cy="8" r="1" fill="srgba(92.8847%,0%,0%,1)"/>
  <circle cx="7" cy="8" r="1" fill="srgba(237,0,0,1)"/>
  <circle cx="8" cy="8" r="1" fill="srgba(92.9381%,0%,0%,1)"/>
  <circle cx="9" cy="8" r="1" fill="srgba(92.9915%,0%,0%,1)"/>
  <circle cx="10" cy="8" r="1" fill="srgba(88.7556%,0.476081%,2.92515%,1)"/>
  <circle cx="11" cy="8" r="1" fill="srgba(62.4048%,8.52216%,29.0257%,1)"/>
  <circle cx="12" cy="8" r="1" fill="srgba(16.7529%,24.1199%,75.8007%,1)"/>
  <circle cx="13" cy="8" r="1" fill="srgba(0%,30.3334%,94.4381%,1)"/>
  <circle cx="14" cy="8" r="1" fill="srgba(0%,30.1961%,94.0246%,1)"/>
  <circle cx="15" cy="8" r="1" fill="srgba(0%,30.193%,94.0169%,1)"/>
  <circle cx="0" cy="9" r="1" fill="srgba(92.9351%,0%,0%,1)"/>
  <circle cx="1" cy="9" r="1" fill="srgba(93.048%,1.561%,1.561%,1)"/>
  <circle cx="2" cy="9" r="1" fill="srgba(95.9258%,42.3178%,42.3178%,1)"/>
  <circle cx="3" cy="9" r="1" fill="srgba(95.4421%,35.4025%,35.4025%,1)"/>
  <circle cx="4" cy="9" r="1" fill="srgba(97.8271%,69.2103%,69.2103%,1)"/>
  <circle cx="5" cy="9" r="1" fill="srgba(97.2274%,60.7233%,60.7233%,1)"/>
  <circle cx="6" cy="9" r="1" fill="srgba(93.0709%,1.84482%,1.84482%,1)"/>
  <circle cx="7" cy="9" r="1" fill="srgba(92.871%,0%,0%,1)"/>
  <circle cx="8" cy="9" r="1" fill="srgba(93.0068%,0.978103%,0.939956%,1)"/>
  <circle cx="9" cy="9" r="1" fill="srgba(93.8582%,20.734%,21.0941%,1)"/>
  <circle cx="10" cy="9" r="1" fill="srgba(72.6802%,48.4688%,64.0818%,1)"/>
  <circle cx="11" cy="9" r="1" fill="srgba(44.6174%,58.5367%,93.1212%,1)"/>
  <circle cx="12" cy="9" r="1" fill="srgba(40.2152%,59.9695%,97.5235%,1)"/>
  <circle cx="13" cy="9" r="1" fill="srgba(41.1917%,59.6399%,96.5347%,1)"/>
  <circle cx="14" cy="9" r="1" fill="srgba(41.1872%,59.6414%,96.5393%,1)"/>
  <circle cx="15" cy="9" r="1" fill="srgba(41.1872%,59.6414%,96.5393%,1)"/>
  <circle cx="0" cy="10" r="1" fill="srgba(92.9366%,0%,0%,1)"/>
  <circle cx="1" cy="10" r="1" fill="srgba(93.0098%,0.953689%,0.953689%,1)"/>
  <circle cx="2" cy="10" r="1" fill="srgba(93.225%,4.30915%,4.30915%,1)"/>
  <circle cx="3" cy="10" r="1" fill="srgba(92.7886%,0%,0%,1)"/>
  <circle cx="4" cy="10" r="1" fill="srgba(94.583%,23.74%,23.74%,1)"/>
  <circle cx="5" cy="10" r="1" fill="srgba(94.3664%,20.412%,20.412%,1)"/>
  <circle cx="6" cy="10" r="1" fill="srgba(92.8313%,0%,0%,1)"/>
  <circle cx="7" cy="10" r="1" fill="srgba(93.8048%,12.3232%,12.3232%,1)"/>
  <circle cx="8" cy="10" r="1" fill="srgba(96.6827%,52.9534%,52.9534%,1)"/>
  <circle cx="9" cy="10" r="1" fill="srgba(99.2645%,90.8248%,90.8248%,1)"/>
  <circle cx="10" cy="10" r="1" fill="srgba(99.4018%,100%,100%,1)"/>
  <circle cx="11" cy="10" r="1" fill="srgba(99.9176%,100%,100%,1)"/>
  <circle cx="12" cy="10" r="1" fill="white"/>
  <circle cx="13" cy="10" r="1" fill="white"/>
  <circle cx="14" cy="10" r="1" fill="white"/>
  <circle cx="15" cy="10" r="1" fill="white"/>
  <circle cx="0" cy="11" r="1" fill="srgba(237,0,0,1)"/>
  <circle cx="1" cy="11" r="1" fill="srgba(92.9366%,0%,0%,1)"/>
  <circle cx="2" cy="11" r="1" fill="srgba(92.9137%,0%,0%,1)"/>
  <circle cx="3" cy="11" r="1" fill="srgba(93.0465%,0%,0%,1)"/>
  <circle cx="4" cy="11" r="1" fill="srgba(95.4589%,21.4633%,21.088%,1)"/>
  <circle cx="5" cy="11" r="1" fill="srgba(95.6176%,19.3103%,18.5458%,1)"/>
  <circle cx="6" cy="11" r="1" fill="srgba(97.2122%,40.2853%,39.35%,1)"/>
  <circle cx="7" cy="11" r="1" fill="srgba(99.7391%,84.1459%,83.2731%,1)"/>
  <circle cx="8" cy="11" r="1" fill="srgba(100%,99.8642%,99.6719%,1)"/>
  <circle cx="9" cy="11" r="1" fill="white"/>
  <circle cx="10" cy="11" r="1" fill="white"/>
  <circle cx="11" cy="11" r="1" fill="white"/>
  <circle cx="12" cy="11" r="1" fill="white"/>
  <circle cx="13" cy="11" r="1" fill="white"/>
  <circle cx="14" cy="11" r="1" fill="white"/>
  <circle cx="15" cy="11" r="1" fill="white"/>
  <circle cx="0" cy="12" r="1" fill="srgba(92.9381%,0%,0%,1)"/>
  <circle cx="1" cy="12" r="1" fill="srgba(92.9808%,0%,0%,1)"/>
  <circle cx="2" cy="12" r="1" fill="srgba(93.9757%,0%,0%,1)"/>
  <circle cx="3" cy="12" r="1" fill="srgba(90.9575%,0.224308%,1.94553%,1)"/>
  <circle cx="4" cy="12" r="1" fill="srgba(75.4528%,17.7935%,30.132%,1)"/>
  <circle cx="5" cy="12" r="1" fill="srgba(73.1548%,58.8922%,74.6792%,1)"/>
  <circle cx="6" cy="12" r="1" fill="srgba(74.9966%,81.3703%,96.9345%,1)"/>
  <circle cx="7" cy="12" r="1" fill="srgba(75.1812%,83.9887%,99.559%,1)"/>
  <circle cx="8" cy="12" r="1" fill="srgba(75.108%,82.9526%,98.5733%,1)"/>
  <circle cx="9" cy="12" r="1" fill="srgba(75.1049%,82.9145%,98.5321%,1)"/>
  <circle cx="10" cy="12" r="1" fill="srgba(75.1049%,82.9175%,98.5351%,1)"/>
  <circle cx="11" cy="12" r="1" fill="srgba(75.1049%,82.9175%,98.5351%,1)"/>
  <circle cx="12" cy="12" r="1" fill="srgba(75.1049%,82.9175%,98.5351%,1)"/>
  <circle cx="13" cy="12" r="1" fill="srgba(75.1049%,82.9175%,98.5351%,1)"/>
  <circle cx="14" cy="12" r="1" fill="srgba(75.1049%,82.9175%,98.5351%,1)"/>
  <circle cx="15" cy="12" r="1" fill="srgba(75.1049%,82.9175%,98.5351%,1)"/>
  <circle cx="0" cy="13" r="1" fill="srgba(93.6782%,0%,0%,1)"/>
  <circle cx="1" cy="13" r="1" fill="srgba(93.4264%,0.143435%,0.430304%,1)"/>
  <circle cx="2" cy="13" r="1" fill="srgba(76.4385%,5.57412%,16.7224%,1)"/>
  <circle cx="3" cy="13" r="1" fill="srgba(35.967%,19.1623%,57.6242%,1)"/>
  <circle cx="4" cy="13" r="1" fill="srgba(6.76432%,30.8598%,89.1203%,1)"/>
  <circle cx="5" cy="13" r="1" fill="srgba(3.52331%,34.9676%,95.555%,1)"/>
  <circle cx="6" cy="13" r="1" fill="srgba(3.66522%,34.0536%,94.5052%,1)"/>
  <circle cx="7" cy="13" r="1" fill="srgba(3.65301%,33.872%,94.3236%,1)"/>
  <circle cx="8" cy="13" r="1" fill="srgba(3.65301%,33.8811%,94.3328%,1)"/>
  <circle cx="9" cy="13" r="1" fill="srgba(3.65301%,33.8811%,94.3328%,1)"/>
  <circle cx="10" cy="13" r="1" fill="srgba(3.65301%,33.8811%,94.3328%,1)"/>
  <circle cx="11" cy="13" r="1" fill="srgba(3.65301%,33.8811%,94.3328%,1)"/>
  <circle cx="12" cy="13" r="1" fill="srgba(3.65301%,33.8811%,94.3328%,1)"/>
  <circle cx="13" cy="13" r="1" fill="srgba(3.65301%,33.8811%,94.3328%,1)"/>
  <circle cx="14" cy="13" r="1" fill="srgba(3.65301%,33.8811%,94.3328%,1)"/>
  <circle cx="15" cy="13" r="1" fill="srgba(3.65301%,33.8811%,94.3328%,1)"/>
  <circle cx="0" cy="14" r="1" fill="srgba(81.886%,3.73236%,11.1955%,1)"/>
  <circle cx="1" cy="14" r="1" fill="srgba(47.921%,15.1949%,45.5848%,1)"/>
  <circle cx="2" cy="14" r="1" fill="srgba(10.6615%,27.8065%,83.4226%,1)"/>
  <circle cx="3" cy="14" r="1" fill="srgba(0%,31.7586%,95.2682%,1)"/>
  <circle cx="4" cy="14" r="1" fill="srgba(0%,31.4412%,94.5037%,1)"/>
  <circle cx="5" cy="14" r="1" fill="srgba(0%,31.2169%,94.0932%,1)"/>
  <circle cx="6" cy="14" r="1" fill="srgba(0%,31.2215%,94.1054%,1)"/>
  <circle cx="7" cy="14" r="1" fill="srgba(0%,31.2215%,94.1054%,1)"/>
  <circle cx="8" cy="14" r="1" fill="srgba(0%,31.2215%,94.1054%,1)"/>
  <circle cx="9" cy="14" r="1" fill="srgba(0%,31.2215%,94.1054%,1)"/>
  <circle cx="10" cy="14" r="1" fill="srgba(0%,31.2215%,94.1054%,1)"/>
  <circle cx="11" cy="14" r="1" fill="srgba(0%,31.2215%,94.1054%,1)"/>
  <circle cx="12" cy="14" r="1" fill="srgba(0%,31.2215%,94.1054%,1)"/>
  <circle cx="13" cy="14" r="1" fill="srgba(0%,31.2215%,94.1054%,1)"/>
  <circle cx="14" cy="14" r="1" fill="srgba(0%,31.2215%,94.1054%,1)"/>
  <circle cx="15" cy="14" r="1" fill="srgba(0%,31.2215%,94.1054%,1)"/>
  <circle cx="0" cy="15" r="1" fill="srgba(17.7142%,25.391%,76.1715%,1)"/>
  <circle cx="1" cy="15" r="1" fill="srgba(1.20089%,31.2902%,93.872%,1)"/>
  <circle cx="2" cy="15" r="1" fill="srgba(0%,31.6579%,94.9722%,1)"/>
  <circle cx="3" cy="15" r="1" fill="srgba(0,80,240,1)"/>
  <circle cx="4" cy="15" r="1" fill="srgba(0%,31.3725%,94.1161%,1)"/>
  <circle cx="5" cy="15" r="1" fill="srgba(0,80,240,1)"/>
  <circle cx="6" cy="15" r="1" fill="srgba(0,80,240,1)"/>
  <circle cx="7" cy="15" r="1" fill="srgba(0,80,240,1)"/>
  <circle cx="8" cy="15" r="1" fill="srgba(0,80,240,1)"/>
  <circle cx="9" cy="15" r="1" fill="srgba(0,80,240,1)"/>
  <circle cx="10" cy="15" r="1" fill="srgba(0,80,240,1)"/>
  <circle cx="11" cy="15" r="1" fill="srgba(0,80,240,1)"/>
  <circle cx="12" cy="15" r="1" fill="srgba(0,80,240,1)"/>
  <circle cx="13" cy="15" r="1" fill="srgba(0,80,240,1)"/>
  <circle cx="14" cy="15" r="1" fill="srgba(0,80,240,1)"/>
  <circle cx="15" cy="15" r="1" fill="srgba(0,80,240,1)"/>
</svg>
