<?xml version="1.0" standalone="no"?>
<!DOCTYPE svg PUBLIC "-//W3C//DTD SVG 20010904//EN"
  "http://www.w3.org/TR/2001/REC-SVG-20010904/DTD/svg10.dtd">
<svg width="16" height="16">
  <circle cx="0" cy="0" r="1" fill="srgba(8,24,115,1)"/>
  <circle cx="1" cy="0" r="1" fill="srgba(8,24,115,1)"/>
  <circle cx="2" cy="0" r="1" fill="srgba(8,24,115,1)"/>
  <circle cx="3" cy="0" r="1" fill="srgba(8,24,115,1)"/>
  <circle cx="4" cy="0" r="1" fill="srgba(8,24,115,1)"/>
  <circle cx="5" cy="0" r="1" fill="srgba(8,24,115,1)"/>
  <circle cx="6" cy="0" r="1" fill="srgba(8,24,115,1)"/>
  <circle cx="7" cy="0" r="1" fill="srgba(8,24,115,1)"/>
  <circle cx="8" cy="0" r="1" fill="srgba(8,24,115,1)"/>
  <circle cx="9" cy="0" r="1" fill="srgba(8,24,115,1)"/>
  <circle cx="10" cy="0" r="1" fill="srgba(8,24,115,1)"/>
  <circle cx="11" cy="0" r="1" fill="srgba(8,24,115,1)"/>
  <circle cx="12" cy="0" r="1" fill="srgba(8,24,115,1)"/>
  <circle cx="13" cy="0" r="1" fill="srgba(8,24,115,1)"/>
  <circle cx="14" cy="0" r="1" fill="srgba(8,24,115,1)"/>
  <circle cx="15" cy="0" r="1" fill="srgba(8,24,115,1)"/>
  <circle cx="0" cy="1" r="1" fill="srgba(8,24,115,1)"/>
  <circle cx="1" cy="1" r="1" fill="srgba(8,24,115,1)"/>
  <circle cx="2" cy="1" r="1" fill="srgba(8,24,115,1)"/>
  <circle cx="3" cy="1" r="1" fill="srgba(8,24,115,1)"/>
  <circle cx="4" cy="1" r="1" fill="srgba(8,24,115,1)"/>
  <circle cx="5" cy="1" r="1" fill="srgba(8,24,115,1)"/>
  <circle cx="6" cy="1" r="1" fill="srgba(8,24,115,1)"/>
  <circle cx="7" cy="1" r="1" fill="srgba(8,24,115,1)"/>
  <circle cx="8" cy="1" r="1" fill="srgba(8,24,115,1)"/>
  <circle cx="9" cy="1" r="1" fill="srgba(8,24,115,1)"/>
  <circle cx="10" cy="1" r="1" fill="srgba(8,24,115,1)"/>
  <circle cx="11" cy="1" r="1" fill="srgba(8,24,115,1)"/>
  <circle cx="12" cy="1" r="1" fill="srgba(8,24,115,1)"/>
  <circle cx="13" cy="1" r="1" fill="srgba(8,24,115,1)"/>
  <circle cx="14" cy="1" r="1" fill="srgba(8,24,115,1)"/>
  <circle cx="15" cy="1" r="1" fill="srgba(8,24,115,1)"/>
  <circle cx="0" cy="2" r="1" fill="srgba(8,24,115,1)"/>
  <circle cx="1" cy="2" r="1" fill="srgba(8,24,115,1)"/>
  <circle cx="2" cy="2" r="1" fill="srgba(8,24,115,1)"/>
  <circle cx="3" cy="2" r="1" fill="srgba(8,24,115,1)"/>
  <circle cx="4" cy="2" r="1" fill="srgba(8,24,115,1)"/>
  <circle cx="5" cy="2" r="1" fill="srgba(8,24,115,1)"/>
  <circle cx="6" cy="2" r="1" fill="srgba(8,24,115,1)"/>
  <circle cx="7" cy="2" r="1" fill="srgba(8,24,115,1)"/>
  <circle cx="8" cy="2" r="1" fill="srgba(8,24,115,1)"/>
  <circle cx="9" cy="2" r="1" fill="srgba(8,24,115,1)"/>
  <circle cx="10" cy="2" r="1" fill="srgba(8,24,115,1)"/>
  <circle cx="11" cy="2" r="1" fill="srgba(8,24,115,1)"/>
  <circle cx="12" cy="2" r="1" fill="srgba(8,24,115,1)"/>
  <circle cx="13" cy="2" r="1" fill="srgba(8,24,115,1)"/>
  <circle cx="14" cy="2" r="1" fill="srgba(8,24,115,1)"/>
  <circle cx="15" cy="2" r="1" fill="srgba(8,24,115,1)"/>
  <circle cx="0" cy="3" r="1" fill="srgba(8,24,115,1)"/>
  <circle cx="1" cy="3" r="1" fill="srgba(8,24,115,1)"/>
  <circle cx="2" cy="3" r="1" fill="srgba(8,24,115,1)"/>
  <circle cx="3" cy="3" r="1" fill="srgba(8,24,115,1)"/>
  <circle cx="4" cy="3" r="1" fill="srgba(8,24,115,1)"/>
  <circle cx="5" cy="3" r="1" fill="srgba(3.1281%,9.40566%,45.1026%,1)"/>
  <circle cx="6" cy="3" r="1" fill="srgba(3.11437%,9.39498%,45.1072%,1)"/>
  <circle cx="7" cy="3" r="1" fill="srgba(3.13878%,9.41176%,45.098%,1)"/>
  <circle cx="8" cy="3" r="1" fill="srgba(8,24,115,1)"/>
  <circle cx="9" cy="3" r="1" fill="srgba(8,24,115,1)"/>
  <circle cx="10" cy="3" r="1" fill="srgba(8,24,115,1)"/>
  <circle cx="11" cy="3" r="1" fill="srgba(8,24,115,1)"/>
  <circle cx="12" cy="3" r="1" fill="srgba(8,24,115,1)"/>
  <circle cx="13" cy="3" r="1" fill="srgba(8,24,115,1)"/>
  <circle cx="14" cy="3" r="1" fill="srgba(8,24,115,1)"/>
  <circle cx="15" cy="3" r="1" fill="srgba(8,24,115,1)"/>
  <circle cx="0" cy="4" r="1" fill="srgba(8,24,115,1)"/>
  <circle cx="1" cy="4" r="1" fill="srgba(8,24,115,1)"/>
  <circle cx="2" cy="4" r="1" fill="srgba(3.14336%,9.41634%,45.095%,1)"/>
  <circle cx="3" cy="4" r="1" fill="srgba(3.03807%,9.33852%,45.1408%,1)"/>
  <circle cx="4" cy="4" r="1" fill="srgba(3.04875%,9.34615%,45.1362%,1)"/>
  <circle cx="5" cy="4" r="1" fill="srgba(2.77714%,9.14626%,45.2537%,1)"/>
  <circle cx="6" cy="4" r="1" fill="srgba(2.63523%,9.04097%,45.3162%,1)"/>
  <circle cx="7" cy="4" r="1" fill="srgba(3.03349%,9.33547%,45.1423%,1)"/>
  <circle cx="8" cy="4" r="1" fill="srgba(3.01366%,9.32021%,45.1514%,1)"/>
  <circle cx="9" cy="4" r="1" fill="srgba(3.13268%,9.40871%,45.0996%,1)"/>
  <circle cx="10" cy="4" r="1" fill="srgba(8,24,115,1)"/>
  <circle cx="11" cy="4" r="1" fill="srgba(8,24,115,1)"/>
  <circle cx="12" cy="4" r="1" fill="srgba(8,24,115,1)"/>
  <circle cx="13" cy="4" r="1" fill="srgba(8,24,115,1)"/>
  <circle cx="14" cy="4" r="1" fill="srgba(8,24,115,1)"/>
  <circle cx="15" cy="4" r="1" fill="srgba(8,24,115,1)"/>
  <circle cx="0" cy="5" r="1" fill="srgba(8,24,115,1)"/>
  <circle cx="1" cy="5" r="1" fill="srgba(3.13573%,9.41024%,45.098%,1)"/>
  <circle cx="2" cy="5" r="1" fill="srgba(3.07012%,9.36294%,45.127%,1)"/>
  <circle cx="3" cy="5" r="1" fill="srgba(4.65095%,10.5272%,44.4419%,1)"/>
  <circle cx="4" cy="5" r="1" fill="srgba(4.01923%,10.0618%,44.715%,1)"/>
  <circle cx="5" cy="5" r="1" fill="srgba(18.2895%,20.5753%,38.5351%,1)"/>
  <circle cx="6" cy="5" r="1" fill="srgba(32.4437%,31.0048%,32.4041%,1)"/>
  <circle cx="7" cy="5" r="1" fill="srgba(4.53498%,10.4402%,44.4938%,1)"/>
  <circle cx="8" cy="5" r="1" fill="srgba(4.67689%,10.547%,44.4312%,1)"/>
  <circle cx="9" cy="5" r="1" fill="srgba(3.18303%,9.44533%,45.0782%,1)"/>
  <circle cx="10" cy="5" r="1" fill="srgba(3.13878%,9.41329%,45.098%,1)"/>
  <circle cx="11" cy="5" r="1" fill="srgba(8,24,115,1)"/>
  <circle cx="12" cy="5" r="1" fill="srgba(8,24,115,1)"/>
  <circle cx="13" cy="5" r="1" fill="srgba(8,24,115,1)"/>
  <circle cx="14" cy="5" r="1" fill="srgba(8,24,115,1)"/>
  <circle cx="15" cy="5" r="1" fill="srgba(8,24,115,1)"/>
  <circle cx="0" cy="6" r="1" fill="srgba(2.44297%,8.76173%,44.7044%,1)"/>
  <circle cx="1" cy="6" r="1" fill="srgba(2.41398%,8.74037%,44.715%,1)"/>
  <circle cx="2" cy="6" r="1" fill="srgba(2.09354%,8.52827%,44.9775%,1)"/>
  <circle cx="3" cy="6" r="1" fill="srgba(34.5998%,32.462%,30.8034%,1)"/>
  <circle cx="4" cy="6" r="1" fill="srgba(32.7916%,31.1238%,31.5541%,1)"/>
  <circle cx="5" cy="6" r="1" fill="srgba(18.7945%,20.8118%,37.6211%,1)"/>
  <circle cx="6" cy="6" r="1" fill="srgba(34.3404%,32.2652%,30.8873%,1)"/>
  <circle cx="7" cy="6" r="1" fill="srgba(14.3587%,17.5387%,39.5422%,1)"/>
  <circle cx="8" cy="6" r="1" fill="srgba(46.2913%,41.0636%,25.7023%,1)"/>
  <circle cx="9" cy="6" r="1" fill="srgba(8.75257%,13.4264%,42.0645%,1)"/>
  <circle cx="10" cy="6" r="1" fill="srgba(2.07523%,8.50233%,44.9271%,1)"/>
  <circle cx="11" cy="6" r="1" fill="srgba(2.4445%,8.76173%,44.6998%,1)"/>
  <circle cx="12" cy="6" r="1" fill="srgba(2.44297%,8.76173%,44.7044%,1)"/>
  <circle cx="13" cy="6" r="1" fill="srgba(2.44297%,8.76173%,44.7044%,1)"/>
  <circle cx="14" cy="6" r="1" fill="srgba(2.44297%,8.76173%,44.7044%,1)"/>
  <circle cx="15" cy="6" r="1" fill="srgba(2.44297%,8.76173%,44.7044%,1)"/>
  <circle cx="0" cy="7" r="1" fill="srgba(13.8827%,19.4598%,51.194%,1)"/>
  <circle cx="1" cy="7" r="1" fill="srgba(13.872%,19.4415%,51.1513%,1)"/>
  <circle cx="2" cy="7" r="1" fill="srgba(14.1527%,19.2996%,49.2622%,1)"/>
  <circle cx="3" cy="7" r="1" fill="srgba(29.2103%,30.6477%,44.0253%,1)"/>
  <circle cx="4" cy="7" r="1" fill="srgba(28.5603%,30.277%,44.8478%,1)"/>
  <circle cx="5" cy="7" r="1" fill="srgba(13.4234%,19.1196%,51.3878%,1)"/>
  <circle cx="6" cy="7" r="1" fill="srgba(13.1777%,18.9395%,51.4946%,1)"/>
  <circle cx="7" cy="7" r="1" fill="srgba(19.6887%,23.7369%,48.6763%,1)"/>
  <circle cx="8" cy="7" r="1" fill="srgba(37.8134%,37.0993%,40.856%,1)"/>
  <circle cx="9" cy="7" r="1" fill="srgba(17.5921%,21.9059%,48.1453%,1)"/>
  <circle cx="10" cy="7" r="1" fill="srgba(13.9727%,19.3271%,50.1534%,1)"/>
  <circle cx="11" cy="7" r="1" fill="srgba(13.8628%,19.4522%,51.2413%,1)"/>
  <circle cx="12" cy="7" r="1" fill="srgba(13.8827%,19.4583%,51.1894%,1)"/>
  <circle cx="13" cy="7" r="1" fill="srgba(13.8827%,19.4583%,51.1894%,1)"/>
  <circle cx="14" cy="7" r="1" fill="srgba(13.8827%,19.4583%,51.1894%,1)"/>
  <circle cx="15" cy="7" r="1" fill="srgba(13.8827%,19.4583%,51.1894%,1)"/>
  <circle cx="0" cy="8" r="1" fill="srgba(87.454%,89.0166%,93.9544%,1)"/>
  <circle cx="1" cy="8" r="1" fill="srgba(87.4479%,88.2902%,90.3059%,1)"/>
  <circle cx="2" cy="8" r="1" fill="srgba(87.9423%,80.7584%,50.2647%,1)"/>
  <circle cx="3" cy="8" r="1" fill="srgba(86.9078%,85.2888%,77.409%,1)"/>
  <circle cx="4" cy="8" r="1" fill="srgba(86.8132%,88.6458%,94.7417%,1)"/>
  <circle cx="5" cy="8" r="1" fill="srgba(87.4678%,88.9784%,93.7057%,1)"/>
  <circle cx="6" cy="8" r="1" fill="srgba(87.4495%,88.9662%,93.7133%,1)"/>
  <circle cx="7" cy="8" r="1" fill="srgba(87.2587%,88.8365%,93.8552%,1)"/>
  <circle cx="8" cy="8" r="1" fill="srgba(86.4378%,88.1575%,93.8323%,1)"/>
  <circle cx="9" cy="8" r="1" fill="srgba(87.7211%,82.0401%,57.6516%,1)"/>
  <circle cx="10" cy="8" r="1" fill="srgba(87.6997%,83.8437%,66.8421%,1)"/>
  <circle cx="11" cy="8" r="1" fill="srgba(87.4372%,89.099%,94.4305%,1)"/>
  <circle cx="12" cy="8" r="1" fill="srgba(87.454%,88.9708%,93.7209%,1)"/>
  <circle cx="13" cy="8" r="1" fill="srgba(87.454%,88.9693%,93.7118%,1)"/>
  <circle cx="14" cy="8" r="1" fill="srgba(87.454%,88.9693%,93.7118%,1)"/>
  <circle cx="15" cy="8" r="1" fill="srgba(87.454%,88.9693%,93.7118%,1)"/>
  <circle cx="0" cy="9" r="1" fill="srgba(93.6065%,57.5082%,53.7667%,1)"/>
  <circle cx="1" cy="9" r="1" fill="srgba(93.611%,57.2564%,52.3857%,1)"/>
  <circle cx="2" cy="9" r="1" fill="srgba(93.5927%,53.6797%,34.2138%,1)"/>
  <circle cx="3" cy="9" r="1" fill="srgba(93.6095%,56.1028%,46.45%,1)"/>
  <circle cx="4" cy="9" r="1" fill="srgba(93.6065%,57.5723%,54.0902%,1)"/>
  <circle cx="5" cy="9" r="1" fill="srgba(93.6065%,57.4929%,53.6843%,1)"/>
  <circle cx="6" cy="9" r="1" fill="srgba(93.6065%,57.4929%,53.6843%,1)"/>
  <circle cx="7" cy="9" r="1" fill="srgba(93.6065%,57.4929%,53.6889%,1)"/>
  <circle cx="8" cy="9" r="1" fill="srgba(93.608%,57.5128%,53.7545%,1)"/>
  <circle cx="9" cy="9" r="1" fill="srgba(93.6126%,54.4747%,37.8607%,1)"/>
  <circle cx="10" cy="9" r="1" fill="srgba(93.6141%,55.2758%,42.0249%,1)"/>
  <circle cx="11" cy="9" r="1" fill="srgba(93.6065%,57.5769%,54.1115%,1)"/>
  <circle cx="12" cy="9" r="1" fill="srgba(93.6065%,57.4929%,53.6843%,1)"/>
  <circle cx="13" cy="9" r="1" fill="srgba(93.6065%,57.4929%,53.6843%,1)"/>
  <circle cx="14" cy="9" r="1" fill="srgba(93.6065%,57.4929%,53.6843%,1)"/>
  <circle cx="15" cy="9" r="1" fill="srgba(93.6065%,57.4929%,53.6843%,1)"/>
  <circle cx="0" cy="10" r="1" fill="srgba(91.7174%,47.4556%,42.9984%,1)"/>
  <circle cx="1" cy="10" r="1" fill="srgba(91.7113%,47.3182%,42.4094%,1)"/>
  <circle cx="2" cy="10" r="1" fill="srgba(91.8303%,45.951%,32.4575%,1)"/>
  <circle cx="3" cy="10" r="1" fill="srgba(91.751%,46.656%,37.9751%,1)"/>
  <circle cx="4" cy="10" r="1" fill="srgba(91.7159%,47.4693%,43.1281%,1)"/>
  <circle cx="5" cy="10" r="1" fill="srgba(91.7174%,47.4449%,42.948%,1)"/>
  <circle cx="6" cy="10" r="1" fill="srgba(91.7174%,47.4449%,42.948%,1)"/>
  <circle cx="7" cy="10" r="1" fill="srgba(91.7174%,47.4525%,42.9831%,1)"/>
  <circle cx="8" cy="10" r="1" fill="srgba(91.6976%,47.2908%,42.6551%,1)"/>
  <circle cx="9" cy="10" r="1" fill="srgba(92.0912%,46.273%,28.1926%,1)"/>
  <circle cx="10" cy="10" r="1" fill="srgba(91.9661%,46.4057%,31.8212%,1)"/>
  <circle cx="11" cy="10" r="1" fill="srgba(91.7006%,47.4098%,43.1632%,1)"/>
  <circle cx="12" cy="10" r="1" fill="srgba(91.7174%,47.4464%,42.9541%,1)"/>
  <circle cx="13" cy="10" r="1" fill="srgba(91.7174%,47.4449%,42.948%,1)"/>
  <circle cx="14" cy="10" r="1" fill="srgba(91.7174%,47.4449%,42.948%,1)"/>
  <circle cx="15" cy="10" r="1" fill="srgba(91.7174%,47.4449%,42.948%,1)"/>
  <circle cx="0" cy="11" r="1" fill="srgba(91.0185%,91.0063%,94.342%,1)"/>
  <circle cx="1" cy="11" r="1" fill="srgba(91.0658%,90.5791%,92.0058%,1)"/>
  <circle cx="2" cy="11" r="1" fill="srgba(91.2703%,82.3072%,49.0501%,1)"/>
  <circle cx="3" cy="11" r="1" fill="srgba(90.7729%,86.6255%,73.1441%,1)"/>
  <circle cx="4" cy="11" r="1" fill="srgba(90.4753%,90.7591%,95.3506%,1)"/>
  <circle cx="5" cy="11" r="1" fill="srgba(91.0048%,90.9651%,94.1878%,1)"/>
  <circle cx="6" cy="11" r="1" fill="srgba(91.0109%,90.9697%,94.1848%,1)"/>
  <circle cx="7" cy="11" r="1" fill="srgba(90.9163%,90.9071%,94.2641%,1)"/>
  <circle cx="8" cy="11" r="1" fill="srgba(90.3349%,90.4356%,94.345%,1)"/>
  <circle cx="9" cy="11" r="1" fill="srgba(90.8873%,84.0528%,58.9853%,1)"/>
  <circle cx="10" cy="11" r="1" fill="srgba(91.0582%,85.9281%,68.0064%,1)"/>
  <circle cx="11" cy="11" r="1" fill="srgba(91.0201%,91.1269%,94.9828%,1)"/>
  <circle cx="12" cy="11" r="1" fill="srgba(91.0216%,90.9789%,94.1848%,1)"/>
  <circle cx="13" cy="11" r="1" fill="srgba(91.0216%,90.9773%,94.1802%,1)"/>
  <circle cx="14" cy="11" r="1" fill="srgba(91.0216%,90.9773%,94.1802%,1)"/>
  <circle cx="15" cy="11" r="1" fill="srgba(91.0216%,90.9773%,94.1802%,1)"/>
  <circle cx="0" cy="12" r="1" fill="srgba(18.0346%,23.3906%,53.6049%,1)"/>
  <circle cx="1" cy="12" r="1" fill="srgba(18.1018%,23.4012%,53.3791%,1)"/>
  <circle cx="2" cy="12" r="1" fill="srgba(18.1445%,22.388%,48.1178%,1)"/>
  <circle cx="3" cy="12" r="1" fill="srgba(26.3218%,28.9891%,47.483%,1)"/>
  <circle cx="4" cy="12" r="1" fill="srgba(28.806%,31.3497%,49.0715%,1)"/>
  <circle cx="5" cy="12" r="1" fill="srgba(17.6654%,23.1159%,53.756%,1)"/>
  <circle cx="6" cy="12" r="1" fill="srgba(17.3159%,22.8595%,53.9071%,1)"/>
  <circle cx="7" cy="12" r="1" fill="srgba(19.7452%,24.6479%,52.8527%,1)"/>
  <circle cx="8" cy="12" r="1" fill="srgba(31.8929%,33.5958%,47.5822%,1)"/>
  <circle cx="9" cy="12" r="1" fill="srgba(21.2345%,25.4536%,50.7713%,1)"/>
  <circle cx="10" cy="12" r="1" fill="srgba(17.9034%,23.0701%,52.5536%,1)"/>
  <circle cx="11" cy="12" r="1" fill="srgba(18.0392%,23.3997%,53.6324%,1)"/>
  <circle cx="12" cy="12" r="1" fill="srgba(18.0392%,23.3921%,53.5943%,1)"/>
  <circle cx="13" cy="12" r="1" fill="srgba(18.0392%,23.3921%,53.5943%,1)"/>
  <circle cx="14" cy="12" r="1" fill="srgba(18.0392%,23.3921%,53.5943%,1)"/>
  <circle cx="15" cy="12" r="1" fill="srgba(18.0392%,23.3921%,53.5943%,1)"/>
  <circle cx="0" cy="13" r="1" fill="srgba(2.17899%,8.51606%,44.5533%,1)"/>
  <circle cx="1" cy="13" r="1" fill="srgba(2.16831%,8.51148%,44.5762%,1)"/>
  <circle cx="2" cy="13" r="1" fill="srgba(1.31533%,7.94537%,45.2628%,1)"/>
  <circle cx="3" cy="13" r="1" fill="srgba(31.6121%,30.2281%,31.9661%,1)"/>
  <circle cx="4" cy="13" r="1" fill="srgba(40.6485%,36.8536%,27.8828%,1)"/>
  <circle cx="5" cy="13" r="1" fill="srgba(16.7269%,19.2325%,38.2544%,1)"/>
  <circle cx="6" cy="13" r="1" fill="srgba(29.5018%,28.6473%,32.7199%,1)"/>
  <circle cx="7" cy="13" r="1" fill="srgba(10.2846%,14.4854%,41.0437%,1)"/>
  <circle cx="8" cy="13" r="1" fill="srgba(51.6289%,44.9485%,23.1357%,1)"/>
  <circle cx="9" cy="13" r="1" fill="srgba(14.4442%,17.5708%,39.3423%,1)"/>
  <circle cx="10" cy="13" r="1" fill="srgba(1.51675%,8.04456%,44.921%,1)"/>
  <circle cx="11" cy="13" r="1" fill="srgba(2.17899%,8.51606%,44.5533%,1)"/>
  <circle cx="12" cy="13" r="1" fill="srgba(2.17899%,8.51606%,44.5548%,1)"/>
  <circle cx="13" cy="13" r="1" fill="srgba(2.17899%,8.51606%,44.5548%,1)"/>
  <circle cx="14" cy="13" r="1" fill="srgba(2.17899%,8.51606%,44.5548%,1)"/>
  <circle cx="15" cy="13" r="1" fill="srgba(2.17899%,8.51606%,44.5548%,1)"/>
  <circle cx="0" cy="14" r="1" fill="srgba(8,24,115,1)"/>
  <circle cx="1" cy="14" r="1" fill="srgba(8,24,115,1)"/>
  <circle cx="2" cy="14" r="1" fill="srgba(3.01061%,9.31868%,45.153%,1)"/>
  <circle cx="3" cy="14" r="1" fill="srgba(6.73228%,12.0607%,43.5401%,1)"/>
  <circle cx="4" cy="14" r="1" fill="srgba(7.10155%,12.3339%,43.3799%,1)"/>
  <circle cx="5" cy="14" r="1" fill="srgba(20.4822%,22.1912%,37.5845%,1)"/>
  <circle cx="6" cy="14" r="1" fill="srgba(36.6506%,34.1039%,30.5821%,1)"/>
  <circle cx="7" cy="14" r="1" fill="srgba(5.13008%,10.8797%,44.2359%,1)"/>
  <circle cx="8" cy="14" r="1" fill="srgba(9.02724%,13.7514%,42.5467%,1)"/>
  <circle cx="9" cy="14" r="1" fill="srgba(4.67231%,10.5425%,44.4327%,1)"/>
  <circle cx="10" cy="14" r="1" fill="srgba(3.03502%,9.33547%,45.1423%,1)"/>
  <circle cx="11" cy="14" r="1" fill="srgba(8,24,115,1)"/>
  <circle cx="12" cy="14" r="1" fill="srgba(8,24,115,1)"/>
  <circle cx="13" cy="14" r="1" fill="srgba(8,24,115,1)"/>
  <circle cx="14" cy="14" r="1" fill="srgba(8,24,115,1)"/>
  <circle cx="15" cy="14" r="1" fill="srgba(8,24,115,1)"/>
  <circle cx="0" cy="15" r="1" fill="srgba(8,24,115,1)"/>
  <circle cx="1" cy="15" r="1" fill="srgba(8,24,115,1)"/>
  <circle cx="2" cy="15" r="1" fill="srgba(3.14488%,9.41787%,45.095%,1)"/>
  <circle cx="3" cy="15" r="1" fill="srgba(2.87938%,9.22103%,45.2094%,1)"/>
  <circle cx="4" cy="15" r="1" fill="srgba(2.80156%,9.16457%,45.243%,1)"/>
  <circle cx="5" cy="15" r="1" fill="srgba(3.10826%,9.39193%,45.1102%,1)"/>
  <circle cx="6" cy="15" r="1" fill="srgba(2.9633%,9.28359%,45.1743%,1)"/>
  <circle cx="7" cy="15" r="1" fill="srgba(3.09453%,9.37972%,45.1164%,1)"/>
  <circle cx="8" cy="15" r="1" fill="srgba(2.71916%,9.10353%,45.2796%,1)"/>
  <circle cx="9" cy="15" r="1" fill="srgba(3.02281%,9.32631%,45.1484%,1)"/>
  <circle cx="10" cy="15" r="1" fill="srgba(3.14488%,9.41787%,45.095%,1)"/>
  <circle cx="11" cy="15" r="1" fill="srgba(8,24,115,1)"/>
  <circle cx="12" cy="15" r="1" fill="srgba(8,24,115,1)"/>
  <circle cx="13" cy="15" r="1" fill="srgba(8,24,115,1)"/>
  <circle cx="14" cy="15" r="1" fill="srgba(8,24,115,1)"/>
  <circle cx="15" cy="15" r="1" fill="srgba(8,24,115,1)"/>
</svg>
