<?xml version="1.0" standalone="no"?>
<!DOCTYPE svg PUBLIC "-//W3C//DTD SVG 20010904//EN"
  "http://www.w3.org/TR/2001/REC-SVG-20010904/DTD/svg10.dtd">
<svg width="16" height="16">
  <circle cx="0" cy="0" r="1" fill="srgba(0%,16.6598%,49.6818%,1)"/>
  <circle cx="1" cy="0" r="1" fill="srgba(0%,15.6878%,49.0944%,1)"/>
  <circle cx="2" cy="0" r="1" fill="srgba(0.0137331%,16.17%,49.3858%,1)"/>
  <circle cx="3" cy="0" r="1" fill="srgba(0.0030518%,16.8872%,49.8192%,1)"/>
  <circle cx="4" cy="0" r="1" fill="srgba(0,43,127,1)"/>
  <circle cx="5" cy="0" r="1" fill="srgba(0,43,127,1)"/>
  <circle cx="6" cy="0" r="1" fill="srgba(0,43,127,1)"/>
  <circle cx="7" cy="0" r="1" fill="srgba(0,43,127,1)"/>
  <circle cx="8" cy="0" r="1" fill="srgba(0,43,127,1)"/>
  <circle cx="9" cy="0" r="1" fill="srgba(0,43,127,1)"/>
  <circle cx="10" cy="0" r="1" fill="srgba(0,43,127,1)"/>
  <circle cx="11" cy="0" r="1" fill="srgba(0,43,127,1)"/>
  <circle cx="12" cy="0" r="1" fill="srgba(0,43,127,1)"/>
  <circle cx="13" cy="0" r="1" fill="srgba(0,43,127,1)"/>
  <circle cx="14" cy="0" r="1" fill="srgba(0,43,127,1)"/>
  <circle cx="15" cy="0" r="1" fill="srgba(0,43,127,1)"/>
  <circle cx="0" cy="1" r="1" fill="srgba(3.05028%,19.3973%,51.3359%,1)"/>
  <circle cx="1" cy="1" r="1" fill="srgba(24.6113%,37.322%,62.1576%,1)"/>
  <circle cx="2" cy="1" r="1" fill="srgba(32.3491%,43.7568%,66.0426%,1)"/>
  <circle cx="3" cy="1" r="1" fill="srgba(0.665293%,17.4151%,50.1381%,1)"/>
  <circle cx="4" cy="1" r="1" fill="srgba(0%,16.8383%,49.7887%,1)"/>
  <circle cx="5" cy="1" r="1" fill="srgba(0,43,127,1)"/>
  <circle cx="6" cy="1" r="1" fill="srgba(0,43,127,1)"/>
  <circle cx="7" cy="1" r="1" fill="srgba(0,43,127,1)"/>
  <circle cx="8" cy="1" r="1" fill="srgba(0,43,127,1)"/>
  <circle cx="9" cy="1" r="1" fill="srgba(0,43,127,1)"/>
  <circle cx="10" cy="1" r="1" fill="srgba(0,43,127,1)"/>
  <circle cx="11" cy="1" r="1" fill="srgba(0,43,127,1)"/>
  <circle cx="12" cy="1" r="1" fill="srgba(0,43,127,1)"/>
  <circle cx="13" cy="1" r="1" fill="srgba(0,43,127,1)"/>
  <circle cx="14" cy="1" r="1" fill="srgba(0,43,127,1)"/>
  <circle cx="15" cy="1" r="1" fill="srgba(0,43,127,1)"/>
  <circle cx="0" cy="2" r="1" fill="srgba(5.90372%,21.7685%,52.7687%,1)"/>
  <circle cx="1" cy="2" r="1" fill="srgba(66.0533%,71.7754%,82.9618%,1)"/>
  <circle cx="2" cy="2" r="1" fill="srgba(65.9586%,71.7037%,82.916%,1)"/>
  <circle cx="3" cy="2" r="1" fill="srgba(0.479133%,17.145%,49.9748%,1)"/>
  <circle cx="4" cy="2" r="1" fill="srgba(0%,15.9335%,49.2439%,1)"/>
  <circle cx="5" cy="2" r="1" fill="srgba(0%,16.3485%,49.4942%,1)"/>
  <circle cx="6" cy="2" r="1" fill="srgba(0%,16.8872%,49.8192%,1)"/>
  <circle cx="7" cy="2" r="1" fill="srgba(0,43,127,1)"/>
  <circle cx="8" cy="2" r="1" fill="srgba(0,43,127,1)"/>
  <circle cx="9" cy="2" r="1" fill="srgba(0,43,127,1)"/>
  <circle cx="10" cy="2" r="1" fill="srgba(0,43,127,1)"/>
  <circle cx="11" cy="2" r="1" fill="srgba(0,43,127,1)"/>
  <circle cx="12" cy="2" r="1" fill="srgba(0,43,127,1)"/>
  <circle cx="13" cy="2" r="1" fill="srgba(0,43,127,1)"/>
  <circle cx="14" cy="2" r="1" fill="srgba(0,43,127,1)"/>
  <circle cx="15" cy="2" r="1" fill="srgba(0,43,127,1)"/>
  <circle cx="0" cy="3" r="1" fill="srgba(0%,15.9792%,49.2699%,1)"/>
  <circle cx="1" cy="3" r="1" fill="srgba(59.089%,65.6764%,79.2737%,1)"/>
  <circle cx="2" cy="3" r="1" fill="srgba(66.4668%,72.0989%,83.154%,1)"/>
  <circle cx="3" cy="3" r="1" fill="srgba(3.10063%,19.4247%,51.3512%,1)"/>
  <circle cx="4" cy="3" r="1" fill="srgba(18.6419%,32.3613%,59.1608%,1)"/>
  <circle cx="5" cy="3" r="1" fill="srgba(12.9458%,27.6249%,56.3012%,1)"/>
  <circle cx="6" cy="3" r="1" fill="srgba(0%,16.3821%,49.514%,1)"/>
  <circle cx="7" cy="3" r="1" fill="srgba(0,43,127,1)"/>
  <circle cx="8" cy="3" r="1" fill="srgba(0,43,127,1)"/>
  <circle cx="9" cy="3" r="1" fill="srgba(0,43,127,1)"/>
  <circle cx="10" cy="3" r="1" fill="srgba(0,43,127,1)"/>
  <circle cx="11" cy="3" r="1" fill="srgba(0,43,127,1)"/>
  <circle cx="12" cy="3" r="1" fill="srgba(0,43,127,1)"/>
  <circle cx="13" cy="3" r="1" fill="srgba(0,43,127,1)"/>
  <circle cx="14" cy="3" r="1" fill="srgba(0,43,127,1)"/>
  <circle cx="15" cy="3" r="1" fill="srgba(0,43,127,1)"/>
  <circle cx="0" cy="4" r="1" fill="srgba(0%,16.1593%,49.3797%,1)"/>
  <circle cx="1" cy="4" r="1" fill="srgba(58.0636%,65.1362%,78.9502%,1)"/>
  <circle cx="2" cy="4" r="1" fill="srgba(73.3898%,77.8775%,86.6407%,1)"/>
  <circle cx="3" cy="4" r="1" fill="srgba(49.1386%,57.7173%,74.4686%,1)"/>
  <circle cx="4" cy="4" r="1" fill="srgba(90.7591%,92.3171%,95.3613%,1)"/>
  <circle cx="5" cy="4" r="1" fill="srgba(35.9609%,46.7597%,67.8523%,1)"/>
  <circle cx="6" cy="4" r="1" fill="srgba(0%,15.4314%,48.9403%,1)"/>
  <circle cx="7" cy="4" r="1" fill="srgba(0,43,127,1)"/>
  <circle cx="8" cy="4" r="1" fill="srgba(0,43,127,1)"/>
  <circle cx="9" cy="4" r="1" fill="srgba(0,43,127,1)"/>
  <circle cx="10" cy="4" r="1" fill="srgba(0,43,127,1)"/>
  <circle cx="11" cy="4" r="1" fill="srgba(0,43,127,1)"/>
  <circle cx="12" cy="4" r="1" fill="srgba(0,43,127,1)"/>
  <circle cx="13" cy="4" r="1" fill="srgba(0,43,127,1)"/>
  <circle cx="14" cy="4" r="1" fill="srgba(0,43,127,1)"/>
  <circle cx="15" cy="4" r="1" fill="srgba(0,43,127,1)"/>
  <circle cx="0" cy="5" r="1" fill="srgba(0%,16.0891%,49.337%,1)"/>
  <circle cx="1" cy="5" r="1" fill="srgba(57.7234%,64.8524%,78.7793%,1)"/>
  <circle cx="2" cy="5" r="1" fill="srgba(67.5441%,73.0175%,83.7064%,1)"/>
  <circle cx="3" cy="5" r="1" fill="srgba(40.2045%,50.2892%,69.984%,1)"/>
  <circle cx="4" cy="5" r="1" fill="srgba(99.3286%,99.4415%,99.6628%,1)"/>
  <circle cx="5" cy="5" r="1" fill="srgba(35.8556%,46.6728%,67.8004%,1)"/>
  <circle cx="6" cy="5" r="1" fill="srgba(0%,15.4131%,48.9296%,1)"/>
  <circle cx="7" cy="5" r="1" fill="srgba(0,43,127,1)"/>
  <circle cx="8" cy="5" r="1" fill="srgba(0,43,127,1)"/>
  <circle cx="9" cy="5" r="1" fill="srgba(0,43,127,1)"/>
  <circle cx="10" cy="5" r="1" fill="srgba(0,43,127,1)"/>
  <circle cx="11" cy="5" r="1" fill="srgba(0,43,127,1)"/>
  <circle cx="12" cy="5" r="1" fill="srgba(0,43,127,1)"/>
  <circle cx="13" cy="5" r="1" fill="srgba(0,43,127,1)"/>
  <circle cx="14" cy="5" r="1" fill="srgba(0,43,127,1)"/>
  <circle cx="15" cy="5" r="1" fill="srgba(0,43,127,1)"/>
  <circle cx="0" cy="6" r="1" fill="srgba(0%,16.0174%,49.2943%,1)"/>
  <circle cx="1" cy="6" r="1" fill="srgba(57.1527%,64.3809%,78.4955%,1)"/>
  <circle cx="2" cy="6" r="1" fill="srgba(66.2486%,71.8868%,83.0259%,1)"/>
  <circle cx="3" cy="6" r="1" fill="srgba(36.6262%,47.2068%,68.1239%,1)"/>
  <circle cx="4" cy="6" r="1" fill="srgba(99.2218%,99.3515%,99.6078%,1)"/>
  <circle cx="5" cy="6" r="1" fill="srgba(36.1852%,46.9459%,67.9667%,1)"/>
  <circle cx="6" cy="6" r="1" fill="srgba(0%,15.4131%,48.9296%,1)"/>
  <circle cx="7" cy="6" r="1" fill="srgba(0,43,127,1)"/>
  <circle cx="8" cy="6" r="1" fill="srgba(0,43,127,1)"/>
  <circle cx="9" cy="6" r="1" fill="srgba(0,43,127,1)"/>
  <circle cx="10" cy="6" r="1" fill="srgba(0,43,127,1)"/>
  <circle cx="11" cy="6" r="1" fill="srgba(0,43,127,1)"/>
  <circle cx="12" cy="6" r="1" fill="srgba(0,43,127,1)"/>
  <circle cx="13" cy="6" r="1" fill="srgba(0,43,127,1)"/>
  <circle cx="14" cy="6" r="1" fill="srgba(0,43,127,1)"/>
  <circle cx="15" cy="6" r="1" fill="srgba(0,43,127,1)"/>
  <circle cx="0" cy="7" r="1" fill="srgba(0%,15.9533%,49.2546%,1)"/>
  <circle cx="1" cy="7" r="1" fill="srgba(56.5042%,63.8376%,78.1659%,1)"/>
  <circle cx="2" cy="7" r="1" fill="srgba(66.4866%,72.1386%,83.1769%,1)"/>
  <circle cx="3" cy="7" r="1" fill="srgba(36.1013%,46.8757%,67.9255%,1)"/>
  <circle cx="4" cy="7" r="1" fill="srgba(99.2645%,99.3896%,99.6307%,1)"/>
  <circle cx="5" cy="7" r="1" fill="srgba(37.1328%,47.7348%,68.4413%,1)"/>
  <circle cx="6" cy="7" r="1" fill="srgba(0%,15.4116%,48.9281%,1)"/>
  <circle cx="7" cy="7" r="1" fill="srgba(0,43,127,1)"/>
  <circle cx="8" cy="7" r="1" fill="srgba(0,43,127,1)"/>
  <circle cx="9" cy="7" r="1" fill="srgba(0,43,127,1)"/>
  <circle cx="10" cy="7" r="1" fill="srgba(0,43,127,1)"/>
  <circle cx="11" cy="7" r="1" fill="srgba(0,43,127,1)"/>
  <circle cx="12" cy="7" r="1" fill="srgba(0,43,127,1)"/>
  <circle cx="13" cy="7" r="1" fill="srgba(0,43,127,1)"/>
  <circle cx="14" cy="7" r="1" fill="srgba(0,43,127,1)"/>
  <circle cx="15" cy="7" r="1" fill="srgba(0,43,127,1)"/>
  <circle cx="0" cy="8" r="1" fill="srgba(0%,15.3597%,49.5232%,1)"/>
  <circle cx="1" cy="8" r="1" fill="srgba(55.8389%,63.0564%,77.9736%,1)"/>
  <circle cx="2" cy="8" r="1" fill="srgba(66.7079%,72.1553%,83.389%,1)"/>
  <circle cx="3" cy="8" r="1" fill="srgba(35.5596%,46.0975%,67.8584%,1)"/>
  <circle cx="4" cy="8" r="1" fill="srgba(99.237%,99.3652%,99.6216%,1)"/>
  <circle cx="5" cy="8" r="1" fill="srgba(37.763%,47.9347%,68.9433%,1)"/>
  <circle cx="6" cy="8" r="1" fill="srgba(0%,14.873%,49.2317%,1)"/>
  <circle cx="7" cy="8" r="1" fill="srgba(0%,16.3333%,50.103%,1)"/>
  <circle cx="8" cy="8" r="1" fill="srgba(0%,16.3333%,50.103%,1)"/>
  <circle cx="9" cy="8" r="1" fill="srgba(0%,16.3333%,50.103%,1)"/>
  <circle cx="10" cy="8" r="1" fill="srgba(0%,16.3333%,50.103%,1)"/>
  <circle cx="11" cy="8" r="1" fill="srgba(0%,16.3333%,50.103%,1)"/>
  <circle cx="12" cy="8" r="1" fill="srgba(0%,16.3333%,50.103%,1)"/>
  <circle cx="13" cy="8" r="1" fill="srgba(0%,16.3333%,50.103%,1)"/>
  <circle cx="14" cy="8" r="1" fill="srgba(0%,16.3333%,50.103%,1)"/>
  <circle cx="15" cy="8" r="1" fill="srgba(0%,16.3333%,50.103%,1)"/>
  <circle cx="0" cy="9" r="1" fill="srgba(9.70321%,24.1367%,44.4907%,1)"/>
  <circle cx="1" cy="9" r="1" fill="srgba(60.0809%,66.4591%,75.4192%,1)"/>
  <circle cx="2" cy="9" r="1" fill="srgba(70.5074%,75.2224%,81.8845%,1)"/>
  <circle cx="3" cy="9" r="1" fill="srgba(42.1073%,51.3588%,64.3839%,1)"/>
  <circle cx="4" cy="9" r="1" fill="srgba(99.2432%,99.3637%,99.527%,1)"/>
  <circle cx="5" cy="9" r="1" fill="srgba(44.7333%,53.5683%,66.0395%,1)"/>
  <circle cx="6" cy="9" r="1" fill="srgba(9.24239%,23.7491%,44.2115%,1)"/>
  <circle cx="7" cy="9" r="1" fill="srgba(10.7958%,25.0553%,45.1667%,1)"/>
  <circle cx="8" cy="9" r="1" fill="srgba(10.7958%,25.0553%,45.1667%,1)"/>
  <circle cx="9" cy="9" r="1" fill="srgba(10.7958%,25.0553%,45.1667%,1)"/>
  <circle cx="10" cy="9" r="1" fill="srgba(10.7958%,25.0553%,45.1667%,1)"/>
  <circle cx="11" cy="9" r="1" fill="srgba(10.7958%,25.0553%,45.1667%,1)"/>
  <circle cx="12" cy="9" r="1" fill="srgba(10.7958%,25.0553%,45.1667%,1)"/>
  <circle cx="13" cy="9" r="1" fill="srgba(10.7958%,25.0553%,45.1667%,1)"/>
  <circle cx="14" cy="9" r="1" fill="srgba(10.7958%,25.0553%,45.1667%,1)"/>
  <circle cx="15" cy="9" r="1" fill="srgba(10.7958%,25.0553%,45.1667%,1)"/>
  <circle cx="0" cy="10" r="1" fill="srgba(85.3223%,81.5274%,11.931%,1)"/>
  <circle cx="1" cy="10" r="1" fill="srgba(93.463%,91.7479%,60.4547%,1)"/>
  <circle cx="2" cy="10" r="1" fill="srgba(95.2193%,93.994%,71.4626%,1)"/>
  <circle cx="3" cy="10" r="1" fill="srgba(90.5562%,88.098%,43.1189%,1)"/>
  <circle cx="4" cy="10" r="1" fill="srgba(99.8688%,99.8306%,99.1394%,1)"/>
  <circle cx="5" cy="10" r="1" fill="srgba(91.0369%,88.7388%,46.4271%,1)"/>
  <circle cx="6" cy="10" r="1" fill="srgba(85.2537%,81.4435%,11.5557%,1)"/>
  <circle cx="7" cy="10" r="1" fill="srgba(85.5055%,81.7609%,13.0632%,1)"/>
  <circle cx="8" cy="10" r="1" fill="srgba(85.5055%,81.7609%,13.0632%,1)"/>
  <circle cx="9" cy="10" r="1" fill="srgba(85.5055%,81.7609%,13.0632%,1)"/>
  <circle cx="10" cy="10" r="1" fill="srgba(85.5055%,81.7609%,13.0632%,1)"/>
  <circle cx="11" cy="10" r="1" fill="srgba(85.5055%,81.7609%,13.0632%,1)"/>
  <circle cx="12" cy="10" r="1" fill="srgba(85.5055%,81.7609%,13.0632%,1)"/>
  <circle cx="13" cy="10" r="1" fill="srgba(85.5055%,81.7609%,13.0632%,1)"/>
  <circle cx="14" cy="10" r="1" fill="srgba(85.5055%,81.7609%,13.0632%,1)"/>
  <circle cx="15" cy="10" r="1" fill="srgba(85.5055%,81.7609%,13.0632%,1)"/>
  <circle cx="0" cy="11" r="1" fill="srgba(87.715%,83.3494%,10.8385%,1)"/>
  <circle cx="1" cy="11" r="1" fill="srgba(94.3633%,92.3888%,59.4537%,1)"/>
  <circle cx="2" cy="11" r="1" fill="srgba(96.0632%,94.6548%,71.2978%,1)"/>
  <circle cx="3" cy="11" r="1" fill="srgba(91.986%,89.1569%,42.0737%,1)"/>
  <circle cx="4" cy="11" r="1" fill="srgba(99.8489%,99.8032%,98.999%,1)"/>
  <circle cx="5" cy="11" r="1" fill="srgba(92.5933%,89.9458%,46.0517%,1)"/>
  <circle cx="6" cy="11" r="1" fill="srgba(87.6768%,83.2944%,10.5211%,1)"/>
  <circle cx="7" cy="11" r="1" fill="srgba(87.8843%,83.5767%,12.0348%,1)"/>
  <circle cx="8" cy="11" r="1" fill="srgba(87.8843%,83.5767%,12.0348%,1)"/>
  <circle cx="9" cy="11" r="1" fill="srgba(87.8843%,83.5767%,12.0348%,1)"/>
  <circle cx="10" cy="11" r="1" fill="srgba(87.8843%,83.5767%,12.0348%,1)"/>
  <circle cx="11" cy="11" r="1" fill="srgba(87.8843%,83.5767%,12.0348%,1)"/>
  <circle cx="12" cy="11" r="1" fill="srgba(87.8843%,83.5767%,12.0348%,1)"/>
  <circle cx="13" cy="11" r="1" fill="srgba(87.8843%,83.5767%,12.0348%,1)"/>
  <circle cx="14" cy="11" r="1" fill="srgba(87.8843%,83.5767%,12.0348%,1)"/>
  <circle cx="15" cy="11" r="1" fill="srgba(87.8843%,83.5767%,12.0348%,1)"/>
  <circle cx="0" cy="12" r="1" fill="srgba(11.8074%,25.7298%,43.4058%,1)"/>
  <circle cx="1" cy="12" r="1" fill="srgba(59.2691%,65.7023%,73.9117%,1)"/>
  <circle cx="2" cy="12" r="1" fill="srgba(71.8242%,76.2707%,81.9013%,1)"/>
  <circle cx="3" cy="12" r="1" fill="srgba(42.2934%,51.4061%,63.003%,1)"/>
  <circle cx="4" cy="12" r="1" fill="srgba(98.854%,99.0356%,99.2767%,1)"/>
  <circle cx="5" cy="12" r="1" fill="srgba(46.981%,55.3491%,65.948%,1)"/>
  <circle cx="6" cy="12" r="1" fill="srgba(11.5633%,25.5238%,43.2441%,1)"/>
  <circle cx="7" cy="12" r="1" fill="srgba(13.0434%,26.7704%,44.1947%,1)"/>
  <circle cx="8" cy="12" r="1" fill="srgba(13.0434%,26.7704%,44.1947%,1)"/>
  <circle cx="9" cy="12" r="1" fill="srgba(13.0434%,26.7704%,44.1947%,1)"/>
  <circle cx="10" cy="12" r="1" fill="srgba(13.0434%,26.7704%,44.1947%,1)"/>
  <circle cx="11" cy="12" r="1" fill="srgba(13.0434%,26.7704%,44.1947%,1)"/>
  <circle cx="12" cy="12" r="1" fill="srgba(13.0434%,26.7704%,44.1947%,1)"/>
  <circle cx="13" cy="12" r="1" fill="srgba(13.0434%,26.7704%,44.1947%,1)"/>
  <circle cx="14" cy="12" r="1" fill="srgba(13.0434%,26.7704%,44.1947%,1)"/>
  <circle cx="15" cy="12" r="1" fill="srgba(13.0434%,26.7704%,44.1947%,1)"/>
  <circle cx="0" cy="13" r="1" fill="srgba(0%,14.992%,49.4347%,1)"/>
  <circle cx="1" cy="13" r="1" fill="srgba(52.5505%,60.2564%,76.3516%,1)"/>
  <circle cx="2" cy="13" r="1" fill="srgba(67.7394%,73.0083%,83.946%,1)"/>
  <circle cx="3" cy="13" r="1" fill="srgba(33.196%,44.0558%,66.7185%,1)"/>
  <circle cx="4" cy="13" r="1" fill="srgba(98.5275%,98.7732%,99.2691%,1)"/>
  <circle cx="5" cy="13" r="1" fill="srgba(39.2874%,49.1508%,69.7566%,1)"/>
  <circle cx="6" cy="13" r="1" fill="srgba(0%,14.8074%,49.3248%,1)"/>
  <circle cx="7" cy="13" r="1" fill="srgba(0%,16.2219%,50.1671%,1)"/>
  <circle cx="8" cy="13" r="1" fill="srgba(0%,16.2219%,50.1671%,1)"/>
  <circle cx="9" cy="13" r="1" fill="srgba(0%,16.2219%,50.1671%,1)"/>
  <circle cx="10" cy="13" r="1" fill="srgba(0%,16.2219%,50.1671%,1)"/>
  <circle cx="11" cy="13" r="1" fill="srgba(0%,16.2219%,50.1671%,1)"/>
  <circle cx="12" cy="13" r="1" fill="srgba(0%,16.2219%,50.1671%,1)"/>
  <circle cx="13" cy="13" r="1" fill="srgba(0%,16.2219%,50.1671%,1)"/>
  <circle cx="14" cy="13" r="1" fill="srgba(0%,16.2219%,50.1671%,1)"/>
  <circle cx="15" cy="13" r="1" fill="srgba(0%,16.2219%,50.1671%,1)"/>
  <circle cx="0" cy="14" r="1" fill="srgba(0%,15.5962%,49.0394%,1)"/>
  <circle cx="1" cy="14" r="1" fill="srgba(51.8746%,59.9893%,75.8434%,1)"/>
  <circle cx="2" cy="14" r="1" fill="srgba(67.9774%,73.3761%,83.9231%,1)"/>
  <circle cx="3" cy="14" r="1" fill="srgba(32.784%,44.1184%,66.2593%,1)"/>
  <circle cx="4" cy="14" r="1" fill="srgba(98.3612%,98.6374%,99.176%,1)"/>
  <circle cx="5" cy="14" r="1" fill="srgba(39.6307%,49.8116%,69.6971%,1)"/>
  <circle cx="6" cy="14" r="1" fill="srgba(0%,15.4711%,48.9631%,1)"/>
  <circle cx="7" cy="14" r="1" fill="srgba(0,43,127,1)"/>
  <circle cx="8" cy="14" r="1" fill="srgba(0,43,127,1)"/>
  <circle cx="9" cy="14" r="1" fill="srgba(0,43,127,1)"/>
  <circle cx="10" cy="14" r="1" fill="srgba(0,43,127,1)"/>
  <circle cx="11" cy="14" r="1" fill="srgba(0,43,127,1)"/>
  <circle cx="12" cy="14" r="1" fill="srgba(0,43,127,1)"/>
  <circle cx="13" cy="14" r="1" fill="srgba(0,43,127,1)"/>
  <circle cx="14" cy="14" r="1" fill="srgba(0,43,127,1)"/>
  <circle cx="15" cy="14" r="1" fill="srgba(0,43,127,1)"/>
  <circle cx="0" cy="15" r="1" fill="srgba(0%,15.5566%,49.0166%,1)"/>
  <circle cx="1" cy="15" r="1" fill="srgba(51.2596%,59.4781%,75.5352%,1)"/>
  <circle cx="2" cy="15" r="1" fill="srgba(68.1392%,73.5119%,84.0055%,1)"/>
  <circle cx="3" cy="15" r="1" fill="srgba(32.4178%,43.8132%,66.0746%,1)"/>
  <circle cx="4" cy="15" r="1" fill="srgba(98.1689%,98.4787%,99.0814%,1)"/>
  <circle cx="5" cy="15" r="1" fill="srgba(39.9283%,50.0587%,69.8482%,1)"/>
  <circle cx="6" cy="15" r="1" fill="srgba(0%,15.4894%,48.9738%,1)"/>
  <circle cx="7" cy="15" r="1" fill="srgba(0,43,127,1)"/>
  <circle cx="8" cy="15" r="1" fill="srgba(0,43,127,1)"/>
  <circle cx="9" cy="15" r="1" fill="srgba(0,43,127,1)"/>
  <circle cx="10" cy="15" r="1" fill="srgba(0,43,127,1)"/>
  <circle cx="11" cy="15" r="1" fill="srgba(0,43,127,1)"/>
  <circle cx="12" cy="15" r="1" fill="srgba(0,43,127,1)"/>
  <circle cx="13" cy="15" r="1" fill="srgba(0,43,127,1)"/>
  <circle cx="14" cy="15" r="1" fill="srgba(0,43,127,1)"/>
  <circle cx="15" cy="15" r="1" fill="srgba(0,43,127,1)"/>
</svg>
