<?xml version="1.0" standalone="no"?>
<!DOCTYPE svg PUBLIC "-//W3C//DTD SVG 20010904//EN"
  "http://www.w3.org/TR/2001/REC-SVG-20010904/DTD/svg10.dtd">
<svg width="16" height="16">
  <circle cx="0" cy="0" r="1" fill="srgba(5.4902%,33.5256%,46.8574%,1)"/>
  <circle cx="1" cy="0" r="1" fill="srgba(10.6035%,52.7031%,27.3213%,1)"/>
  <circle cx="2" cy="0" r="1" fill="srgba(11.0399%,54.342%,25.6535%,1)"/>
  <circle cx="3" cy="0" r="1" fill="srgba(10.9789%,54.1115%,25.8885%,1)"/>
  <circle cx="4" cy="0" r="1" fill="srgba(28,138,66,1)"/>
  <circle cx="5" cy="0" r="1" fill="srgba(28,138,66,1)"/>
  <circle cx="6" cy="0" r="1" fill="srgba(28,138,66,1)"/>
  <circle cx="7" cy="0" r="1" fill="srgba(28,138,66,1)"/>
  <circle cx="8" cy="0" r="1" fill="srgba(28,138,66,1)"/>
  <circle cx="9" cy="0" r="1" fill="srgba(28,138,66,1)"/>
  <circle cx="10" cy="0" r="1" fill="srgba(28,138,66,1)"/>
  <circle cx="11" cy="0" r="1" fill="srgba(10.7744%,54.0627%,25.89%,1)"/>
  <circle cx="12" cy="0" r="1" fill="srgba(23.624%,57.4594%,25.3803%,1)"/>
  <circle cx="13" cy="0" r="1" fill="srgba(25.2842%,57.8988%,25.3117%,1)"/>
  <circle cx="14" cy="0" r="1" fill="srgba(25.2445%,57.8882%,25.3178%,1)"/>
  <circle cx="15" cy="0" r="1" fill="srgba(23.8331%,57.5158%,25.3727%,1)"/>
  <circle cx="0" cy="1" r="1" fill="srgba(0.411994%,14.3542%,66.4012%,1)"/>
  <circle cx="1" cy="1" r="1" fill="srgba(5.4902%,33.5256%,46.8589%,1)"/>
  <circle cx="2" cy="1" r="1" fill="srgba(10.7286%,53.1731%,26.8421%,1)"/>
  <circle cx="3" cy="1" r="1" fill="srgba(11.0323%,54.313%,25.6825%,1)"/>
  <circle cx="4" cy="1" r="1" fill="srgba(10.9789%,54.1115%,25.8885%,1)"/>
  <circle cx="5" cy="1" r="1" fill="srgba(28,138,66,1)"/>
  <circle cx="6" cy="1" r="1" fill="srgba(28,138,66,1)"/>
  <circle cx="7" cy="1" r="1" fill="srgba(28,138,66,1)"/>
  <circle cx="8" cy="1" r="1" fill="srgba(28,138,66,1)"/>
  <circle cx="9" cy="1" r="1" fill="srgba(28,138,66,1)"/>
  <circle cx="10" cy="1" r="1" fill="srgba(28,138,66,1)"/>
  <circle cx="11" cy="1" r="1" fill="srgba(10.8629%,54.0871%,25.8869%,1)"/>
  <circle cx="12" cy="1" r="1" fill="srgba(13.5592%,54.7997%,25.7786%,1)"/>
  <circle cx="13" cy="1" r="1" fill="srgba(32.1157%,59.7055%,25.0416%,1)"/>
  <circle cx="14" cy="1" r="1" fill="srgba(71.1421%,70.0206%,23.4974%,1)"/>
  <circle cx="15" cy="1" r="1" fill="srgba(73.5103%,70.6477%,23.4028%,1)"/>
  <circle cx="0" cy="2" r="1" fill="srgba(0%,12.7169%,68.072%,1)"/>
  <circle cx="1" cy="2" r="1" fill="srgba(0.328069%,13.8842%,66.8803%,1)"/>
  <circle cx="2" cy="2" r="1" fill="srgba(5.4902%,33.5256%,46.8589%,1)"/>
  <circle cx="3" cy="2" r="1" fill="srgba(10.7271%,53.1655%,26.8498%,1)"/>
  <circle cx="4" cy="2" r="1" fill="srgba(11.0323%,54.3145%,25.6809%,1)"/>
  <circle cx="5" cy="2" r="1" fill="srgba(10.9789%,54.1115%,25.8885%,1)"/>
  <circle cx="6" cy="2" r="1" fill="srgba(28,138,66,1)"/>
  <circle cx="7" cy="2" r="1" fill="srgba(28,138,66,1)"/>
  <circle cx="8" cy="2" r="1" fill="srgba(28,138,66,1)"/>
  <circle cx="9" cy="2" r="1" fill="srgba(28,138,66,1)"/>
  <circle cx="10" cy="2" r="1" fill="srgba(28,138,66,1)"/>
  <circle cx="11" cy="2" r="1" fill="srgba(10.988%,54.1192%,25.8824%,1)"/>
  <circle cx="12" cy="2" r="1" fill="srgba(10.7317%,54.052%,25.8915%,1)"/>
  <circle cx="13" cy="2" r="1" fill="srgba(11.5846%,54.2779%,25.8579%,1)"/>
  <circle cx="14" cy="2" r="1" fill="srgba(20.2808%,56.5759%,25.5131%,1)"/>
  <circle cx="15" cy="2" r="1" fill="srgba(22.2156%,57.0886%,25.4368%,1)"/>
  <circle cx="0" cy="3" r="1" fill="srgba(0%,12.9473%,67.837%,1)"/>
  <circle cx="1" cy="3" r="1" fill="srgba(0%,12.7459%,68.043%,1)"/>
  <circle cx="2" cy="3" r="1" fill="srgba(0.331121%,13.8918%,66.8727%,1)"/>
  <circle cx="3" cy="3" r="1" fill="srgba(5.4902%,33.5256%,46.8589%,1)"/>
  <circle cx="4" cy="3" r="1" fill="srgba(10.7271%,53.1655%,26.8498%,1)"/>
  <circle cx="5" cy="3" r="1" fill="srgba(11.0323%,54.3145%,25.6809%,1)"/>
  <circle cx="6" cy="3" r="1" fill="srgba(10.9789%,54.1115%,25.8885%,1)"/>
  <circle cx="7" cy="3" r="1" fill="srgba(28,138,66,1)"/>
  <circle cx="8" cy="3" r="1" fill="srgba(28,138,66,1)"/>
  <circle cx="9" cy="3" r="1" fill="srgba(28,138,66,1)"/>
  <circle cx="10" cy="3" r="1" fill="srgba(28,138,66,1)"/>
  <circle cx="11" cy="3" r="1" fill="srgba(28,138,66,1)"/>
  <circle cx="12" cy="3" r="1" fill="srgba(10.985%,54.1192%,25.8824%,1)"/>
  <circle cx="13" cy="3" r="1" fill="srgba(10.9209%,54.1024%,25.8854%,1)"/>
  <circle cx="14" cy="3" r="1" fill="srgba(10.4219%,53.9696%,25.9037%,1)"/>
  <circle cx="15" cy="3" r="1" fill="srgba(10.309%,53.9406%,25.9083%,1)"/>
  <circle cx="0" cy="4" r="1" fill="srgba(0,33,173,1)"/>
  <circle cx="1" cy="4" r="1" fill="srgba(0%,12.9473%,67.837%,1)"/>
  <circle cx="2" cy="4" r="1" fill="srgba(0%,12.7443%,68.0446%,1)"/>
  <circle cx="3" cy="4" r="1" fill="srgba(0.331121%,13.8918%,66.8727%,1)"/>
  <circle cx="4" cy="4" r="1" fill="srgba(5.4902%,33.5256%,46.8589%,1)"/>
  <circle cx="5" cy="4" r="1" fill="srgba(10.7271%,53.1655%,26.8498%,1)"/>
  <circle cx="6" cy="4" r="1" fill="srgba(11.0231%,54.313%,25.6825%,1)"/>
  <circle cx="7" cy="4" r="1" fill="srgba(10.692%,54.0368%,25.8991%,1)"/>
  <circle cx="8" cy="4" r="1" fill="srgba(10.6935%,54.0414%,25.893%,1)"/>
  <circle cx="9" cy="4" r="1" fill="srgba(10.9712%,54.1146%,25.8824%,1)"/>
  <circle cx="10" cy="4" r="1" fill="srgba(10.9819%,54.1176%,25.8824%,1)"/>
  <circle cx="11" cy="4" r="1" fill="srgba(28,138,66,1)"/>
  <circle cx="12" cy="4" r="1" fill="srgba(28,138,66,1)"/>
  <circle cx="13" cy="4" r="1" fill="srgba(28,138,66,1)"/>
  <circle cx="14" cy="4" r="1" fill="srgba(28,138,66,1)"/>
  <circle cx="15" cy="4" r="1" fill="srgba(28,138,66,1)"/>
  <circle cx="0" cy="5" r="1" fill="srgba(0,33,173,1)"/>
  <circle cx="1" cy="5" r="1" fill="srgba(0,33,173,1)"/>
  <circle cx="2" cy="5" r="1" fill="srgba(0%,12.9473%,67.837%,1)"/>
  <circle cx="3" cy="5" r="1" fill="srgba(0%,12.7443%,68.0446%,1)"/>
  <circle cx="4" cy="5" r="1" fill="srgba(0.332647%,13.8918%,66.8727%,1)"/>
  <circle cx="5" cy="5" r="1" fill="srgba(5.45205%,33.5073%,46.8681%,1)"/>
  <circle cx="6" cy="5" r="1" fill="srgba(10.1625%,52.7062%,27.2099%,1)"/>
  <circle cx="7" cy="5" r="1" fill="srgba(15.4162%,55.3765%,25.6123%,1)"/>
  <circle cx="8" cy="5" r="1" fill="srgba(15.404%,55.2865%,25.7069%,1)"/>
  <circle cx="9" cy="5" r="1" fill="srgba(10.4921%,53.9879%,25.9022%,1)"/>
  <circle cx="10" cy="5" r="1" fill="srgba(10.9453%,54.1085%,25.8839%,1)"/>
  <circle cx="11" cy="5" r="1" fill="srgba(10.9819%,54.1176%,25.8824%,1)"/>
  <circle cx="12" cy="5" r="1" fill="srgba(28,138,66,1)"/>
  <circle cx="13" cy="5" r="1" fill="srgba(28,138,66,1)"/>
  <circle cx="14" cy="5" r="1" fill="srgba(28,138,66,1)"/>
  <circle cx="15" cy="5" r="1" fill="srgba(28,138,66,1)"/>
  <circle cx="0" cy="6" r="1" fill="srgba(0,33,173,1)"/>
  <circle cx="1" cy="6" r="1" fill="srgba(0,33,173,1)"/>
  <circle cx="2" cy="6" r="1" fill="srgba(0,33,173,1)"/>
  <circle cx="3" cy="6" r="1" fill="srgba(0%,12.9473%,67.837%,1)"/>
  <circle cx="4" cy="6" r="1" fill="srgba(0%,12.7367%,68.0491%,1)"/>
  <circle cx="5" cy="6" r="1" fill="srgba(0%,13.8689%,66.7842%,1)"/>
  <circle cx="6" cy="6" r="1" fill="srgba(32.0134%,45.9388%,39.9481%,1)"/>
  <circle cx="7" cy="6" r="1" fill="srgba(79.9161%,72.8115%,22.6368%,1)"/>
  <circle cx="8" cy="6" r="1" fill="srgba(79.0646%,72.1141%,23.1815%,1)"/>
  <circle cx="9" cy="6" r="1" fill="srgba(36.0204%,60.7355%,24.889%,1)"/>
  <circle cx="10" cy="6" r="1" fill="srgba(10.4875%,53.9879%,25.9022%,1)"/>
  <circle cx="11" cy="6" r="1" fill="srgba(10.9712%,54.1146%,25.8824%,1)"/>
  <circle cx="12" cy="6" r="1" fill="srgba(28,138,66,1)"/>
  <circle cx="13" cy="6" r="1" fill="srgba(28,138,66,1)"/>
  <circle cx="14" cy="6" r="1" fill="srgba(28,138,66,1)"/>
  <circle cx="15" cy="6" r="1" fill="srgba(28,138,66,1)"/>
  <circle cx="0" cy="7" r="1" fill="srgba(0,33,173,1)"/>
  <circle cx="1" cy="7" r="1" fill="srgba(0%,12.9519%,67.8462%,1)"/>
  <circle cx="2" cy="7" r="1" fill="srgba(0%,12.7626%,67.7775%,1)"/>
  <circle cx="3" cy="7" r="1" fill="srgba(0%,12.2087%,67.5715%,1)"/>
  <circle cx="4" cy="7" r="1" fill="srgba(0%,12.694%,67.9667%,1)"/>
  <circle cx="5" cy="7" r="1" fill="srgba(5.62142%,16.2325%,65.6626%,1)"/>
  <circle cx="6" cy="7" r="1" fill="srgba(65.185%,58.9425%,34.0734%,1)"/>
  <circle cx="7" cy="7" r="1" fill="srgba(68.7694%,69.9367%,23.0426%,1)"/>
  <circle cx="8" cy="7" r="1" fill="srgba(73.8277%,70.8721%,23.3692%,1)"/>
  <circle cx="9" cy="7" r="1" fill="srgba(78.3322%,72.0439%,23.1922%,1)"/>
  <circle cx="10" cy="7" r="1" fill="srgba(15.4009%,55.2804%,25.7084%,1)"/>
  <circle cx="11" cy="7" r="1" fill="srgba(10.695%,54.0429%,25.893%,1)"/>
  <circle cx="12" cy="7" r="1" fill="srgba(28,138,66,1)"/>
  <circle cx="13" cy="7" r="1" fill="srgba(28,138,66,1)"/>
  <circle cx="14" cy="7" r="1" fill="srgba(28,138,66,1)"/>
  <circle cx="15" cy="7" r="1" fill="srgba(28,138,66,1)"/>
  <circle cx="0" cy="8" r="1" fill="srgba(0,33,173,1)"/>
  <circle cx="1" cy="8" r="1" fill="srgba(0%,12.7611%,67.776%,1)"/>
  <circle cx="2" cy="8" r="1" fill="srgba(3.76745%,16.2219%,69.0547%,1)"/>
  <circle cx="3" cy="8" r="1" fill="srgba(15.6466%,26.5629%,72.874%,1)"/>
  <circle cx="4" cy="8" r="1" fill="srgba(0.607309%,13.5409%,68.2872%,1)"/>
  <circle cx="5" cy="8" r="1" fill="srgba(5.98764%,16.3867%,65.5329%,1)"/>
  <circle cx="6" cy="8" r="1" fill="srgba(59.4324%,57.7859%,33.9178%,1)"/>
  <circle cx="7" cy="8" r="1" fill="srgba(27.3915%,59.0692%,24.5991%,1)"/>
  <circle cx="8" cy="8" r="1" fill="srgba(54.6868%,66.1555%,23.7751%,1)"/>
  <circle cx="9" cy="8" r="1" fill="srgba(79.5346%,72.8511%,22.6291%,1)"/>
  <circle cx="10" cy="8" r="1" fill="srgba(15.407%,55.3674%,25.6153%,1)"/>
  <circle cx="11" cy="8" r="1" fill="srgba(10.6935%,54.0368%,25.8991%,1)"/>
  <circle cx="12" cy="8" r="1" fill="srgba(28,138,66,1)"/>
  <circle cx="13" cy="8" r="1" fill="srgba(28,138,66,1)"/>
  <circle cx="14" cy="8" r="1" fill="srgba(28,138,66,1)"/>
  <circle cx="15" cy="8" r="1" fill="srgba(28,138,66,1)"/>
  <circle cx="0" cy="9" r="1" fill="srgba(0%,12.9335%,67.8401%,1)"/>
  <circle cx="1" cy="9" r="1" fill="srgba(0%,12.5536%,67.6997%,1)"/>
  <circle cx="2" cy="9" r="1" fill="srgba(7.87823%,19.8001%,70.3761%,1)"/>
  <circle cx="3" cy="9" r="1" fill="srgba(32.3232%,41.0834%,78.2376%,1)"/>
  <circle cx="4" cy="9" r="1" fill="srgba(1.96231%,14.6212%,68.4718%,1)"/>
  <circle cx="5" cy="9" r="1" fill="srgba(0.0030518%,11.7098%,67.8752%,1)"/>
  <circle cx="6" cy="9" r="1" fill="srgba(19.1363%,30.4372%,53.1838%,1)"/>
  <circle cx="7" cy="9" r="1" fill="srgba(20.6088%,54.7311%,27.6204%,1)"/>
  <circle cx="8" cy="9" r="1" fill="srgba(42.562%,55.6435%,32.0317%,1)"/>
  <circle cx="9" cy="9" r="1" fill="srgba(33.0968%,46.0929%,40.0488%,1)"/>
  <circle cx="10" cy="9" r="1" fill="srgba(10.1411%,52.7016%,27.2084%,1)"/>
  <circle cx="11" cy="9" r="1" fill="srgba(11.0231%,54.313%,25.6825%,1)"/>
  <circle cx="12" cy="9" r="1" fill="srgba(10.9789%,54.1115%,25.8885%,1)"/>
  <circle cx="13" cy="9" r="1" fill="srgba(28,138,66,1)"/>
  <circle cx="14" cy="9" r="1" fill="srgba(28,138,66,1)"/>
  <circle cx="15" cy="9" r="1" fill="srgba(28,138,66,1)"/>
  <circle cx="0" cy="10" r="1" fill="srgba(0.148013%,12.7199%,67.7623%,1)"/>
  <circle cx="1" cy="10" r="1" fill="srgba(0.11902%,12.7596%,67.776%,1)"/>
  <circle cx="2" cy="10" r="1" fill="srgba(0.062562%,12.9122%,67.8325%,1)"/>
  <circle cx="3" cy="10" r="1" fill="srgba(0.260929%,12.8313%,67.8019%,1)"/>
  <circle cx="4" cy="10" r="1" fill="srgba(0.790417%,13.521%,68.0568%,1)"/>
  <circle cx="5" cy="10" r="1" fill="srgba(22.9633%,32.6314%,75.6619%,1)"/>
  <circle cx="6" cy="10" r="1" fill="srgba(8.79072%,24.5289%,64.6647%,1)"/>
  <circle cx="7" cy="10" r="1" fill="srgba(9.29732%,47.3518%,32.3659%,1)"/>
  <circle cx="8" cy="10" r="1" fill="srgba(6.14328%,30.8797%,49.868%,1)"/>
  <circle cx="9" cy="10" r="1" fill="srgba(0.422675%,13.3089%,67.3777%,1)"/>
  <circle cx="10" cy="10" r="1" fill="srgba(5.47189%,33.5088%,46.8681%,1)"/>
  <circle cx="11" cy="10" r="1" fill="srgba(10.7271%,53.1655%,26.8498%,1)"/>
  <circle cx="12" cy="10" r="1" fill="srgba(11.0323%,54.3145%,25.6809%,1)"/>
  <circle cx="13" cy="10" r="1" fill="srgba(10.9789%,54.1115%,25.8885%,1)"/>
  <circle cx="14" cy="10" r="1" fill="srgba(28,138,66,1)"/>
  <circle cx="15" cy="10" r="1" fill="srgba(28,138,66,1)"/>
  <circle cx="0" cy="11" r="1" fill="srgba(24.5029%,34.2733%,75.7214%,1)"/>
  <circle cx="1" cy="11" r="1" fill="srgba(20.2045%,30.5318%,74.3404%,1)"/>
  <circle cx="2" cy="11" r="1" fill="srgba(0%,12.1859%,67.5639%,1)"/>
  <circle cx="3" cy="11" r="1" fill="srgba(0.531014%,13.3867%,68.0079%,1)"/>
  <circle cx="4" cy="11" r="1" fill="srgba(2.91752%,15.4803%,68.7816%,1)"/>
  <circle cx="5" cy="11" r="1" fill="srgba(24.2771%,33.8323%,76.0021%,1)"/>
  <circle cx="6" cy="11" r="1" fill="srgba(8.95094%,24.4877%,65.3193%,1)"/>
  <circle cx="7" cy="11" r="1" fill="srgba(8.93111%,47.7531%,31.8425%,1)"/>
  <circle cx="8" cy="11" r="1" fill="srgba(4.45106%,29.6178%,50.8278%,1)"/>
  <circle cx="9" cy="11" r="1" fill="srgba(0%,12.0897%,68.7083%,1)"/>
  <circle cx="10" cy="11" r="1" fill="srgba(0.331121%,13.8918%,66.8727%,1)"/>
  <circle cx="11" cy="11" r="1" fill="srgba(5.4902%,33.5256%,46.8589%,1)"/>
  <circle cx="12" cy="11" r="1" fill="srgba(10.7271%,53.1655%,26.8498%,1)"/>
  <circle cx="13" cy="11" r="1" fill="srgba(11.0323%,54.3145%,25.6809%,1)"/>
  <circle cx="14" cy="11" r="1" fill="srgba(10.9789%,54.1115%,25.8885%,1)"/>
  <circle cx="15" cy="11" r="1" fill="srgba(28,138,66,1)"/>
  <circle cx="0" cy="12" r="1" fill="srgba(13.2952%,24.5167%,72.1172%,1)"/>
  <circle cx="1" cy="12" r="1" fill="srgba(10.9575%,22.4811%,71.3664%,1)"/>
  <circle cx="2" cy="12" r="1" fill="srgba(0%,12.3049%,67.6081%,1)"/>
  <circle cx="3" cy="12" r="1" fill="srgba(4.9485%,17.2488%,69.4347%,1)"/>
  <circle cx="4" cy="12" r="1" fill="srgba(17.8424%,28.4428%,73.5698%,1)"/>
  <circle cx="5" cy="12" r="1" fill="srgba(0.0961318%,12.0348%,67.8752%,1)"/>
  <circle cx="6" cy="12" r="1" fill="srgba(1.08797%,16.7834%,63.5584%,1)"/>
  <circle cx="7" cy="12" r="1" fill="srgba(9.38888%,48.1559%,31.9783%,1)"/>
  <circle cx="8" cy="12" r="1" fill="srgba(4.40833%,29.482%,50.9911%,1)"/>
  <circle cx="9" cy="12" r="1" fill="srgba(0%,12.2988%,68.4977%,1)"/>
  <circle cx="10" cy="12" r="1" fill="srgba(0%,12.7443%,68.0446%,1)"/>
  <circle cx="11" cy="12" r="1" fill="srgba(0.331121%,13.8918%,66.8727%,1)"/>
  <circle cx="12" cy="12" r="1" fill="srgba(5.4902%,33.5256%,46.8589%,1)"/>
  <circle cx="13" cy="12" r="1" fill="srgba(10.7271%,53.1655%,26.8498%,1)"/>
  <circle cx="14" cy="12" r="1" fill="srgba(11.0323%,54.313%,25.6825%,1)"/>
  <circle cx="15" cy="12" r="1" fill="srgba(10.9789%,54.1115%,25.8885%,1)"/>
  <circle cx="0" cy="13" r="1" fill="srgba(0%,12.3308%,67.6173%,1)"/>
  <circle cx="1" cy="13" r="1" fill="srgba(0%,12.4468%,67.66%,1)"/>
  <circle cx="2" cy="13" r="1" fill="srgba(0%,12.7855%,67.7852%,1)"/>
  <circle cx="3" cy="13" r="1" fill="srgba(0.419623%,12.5582%,67.7012%,1)"/>
  <circle cx="4" cy="13" r="1" fill="srgba(1.46487%,14.1405%,68.2856%,1)"/>
  <circle cx="5" cy="13" r="1" fill="srgba(0%,12.7443%,68.0644%,1)"/>
  <circle cx="6" cy="13" r="1" fill="srgba(0.889601%,16.2722%,64.4495%,1)"/>
  <circle cx="7" cy="13" r="1" fill="srgba(9.10353%,47.0771%,33.0571%,1)"/>
  <circle cx="8" cy="13" r="1" fill="srgba(4.34577%,29.2302%,51.2398%,1)"/>
  <circle cx="9" cy="13" r="1" fill="srgba(0%,12.2881%,68.5084%,1)"/>
  <circle cx="10" cy="13" r="1" fill="srgba(0%,12.9473%,67.837%,1)"/>
  <circle cx="11" cy="13" r="1" fill="srgba(0%,12.7443%,68.0446%,1)"/>
  <circle cx="12" cy="13" r="1" fill="srgba(0.331121%,13.8918%,66.8727%,1)"/>
  <circle cx="13" cy="13" r="1" fill="srgba(5.4902%,33.5256%,46.8589%,1)"/>
  <circle cx="14" cy="13" r="1" fill="srgba(10.7286%,53.1731%,26.8437%,1)"/>
  <circle cx="15" cy="13" r="1" fill="srgba(11.0399%,54.342%,25.6535%,1)"/>
  <circle cx="0" cy="14" r="1" fill="srgba(0,33,173,1)"/>
  <circle cx="1" cy="14" r="1" fill="srgba(0%,12.694%,67.7516%,1)"/>
  <circle cx="2" cy="14" r="1" fill="srgba(5.20485%,17.4731%,69.5171%,1)"/>
  <circle cx="3" cy="14" r="1" fill="srgba(27.2465%,36.6491%,76.5988%,1)"/>
  <circle cx="4" cy="14" r="1" fill="srgba(2.4155%,14.995%,68.6015%,1)"/>
  <circle cx="5" cy="14" r="1" fill="srgba(0%,12.6665%,67.9698%,1)"/>
  <circle cx="6" cy="14" r="1" fill="srgba(0.701915%,15.5657%,65.1682%,1)"/>
  <circle cx="7" cy="14" r="1" fill="srgba(8.79988%,45.9312%,34.2245%,1)"/>
  <circle cx="8" cy="14" r="1" fill="srgba(4.28321%,29.0043%,51.4717%,1)"/>
  <circle cx="9" cy="14" r="1" fill="srgba(0%,12.285%,68.5115%,1)"/>
  <circle cx="10" cy="14" r="1" fill="srgba(0,33,173,1)"/>
  <circle cx="11" cy="14" r="1" fill="srgba(0%,12.9473%,67.837%,1)"/>
  <circle cx="12" cy="14" r="1" fill="srgba(0%,12.7459%,68.043%,1)"/>
  <circle cx="13" cy="14" r="1" fill="srgba(0.328069%,13.8842%,66.8803%,1)"/>
  <circle cx="14" cy="14" r="1" fill="srgba(5.4902%,33.5256%,46.8589%,1)"/>
  <circle cx="15" cy="14" r="1" fill="srgba(10.6035%,52.7031%,27.3213%,1)"/>
  <circle cx="0" cy="15" r="1" fill="srgba(0,33,173,1)"/>
  <circle cx="1" cy="15" r="1" fill="srgba(0%,12.7108%,67.7577%,1)"/>
  <circle cx="2" cy="15" r="1" fill="srgba(4.82338%,17.1405%,69.3935%,1)"/>
  <circle cx="3" cy="15" r="1" fill="srgba(25.3071%,34.9737%,75.9808%,1)"/>
  <circle cx="4" cy="15" r="1" fill="srgba(2.22477%,14.8775%,68.5588%,1)"/>
  <circle cx="5" cy="15" r="1" fill="srgba(0%,12.7169%,67.9347%,1)"/>
  <circle cx="6" cy="15" r="1" fill="srgba(0.549325%,14.9966%,65.7481%,1)"/>
  <circle cx="7" cy="15" r="1" fill="srgba(8.50996%,44.8447%,35.3323%,1)"/>
  <circle cx="8" cy="15" r="1" fill="srgba(4.22827%,28.7984%,51.6823%,1)"/>
  <circle cx="9" cy="15" r="1" fill="srgba(0%,12.2805%,68.5176%,1)"/>
  <circle cx="10" cy="15" r="1" fill="srgba(0,33,173,1)"/>
  <circle cx="11" cy="15" r="1" fill="srgba(0,33,173,1)"/>
  <circle cx="12" cy="15" r="1" fill="srgba(0%,12.9473%,67.837%,1)"/>
  <circle cx="13" cy="15" r="1" fill="srgba(0%,12.7169%,68.072%,1)"/>
  <circle cx="14" cy="15" r="1" fill="srgba(0.463874%,14.3542%,66.4012%,1)"/>
  <circle cx="15" cy="15" r="1" fill="srgba(5.4902%,33.5241%,46.8574%,1)"/>
</svg>
