<?xml version="1.0" standalone="no"?>
<!DOCTYPE svg PUBLIC "-//W3C//DTD SVG 20010904//EN"
  "http://www.w3.org/TR/2001/REC-SVG-20010904/DTD/svg10.dtd">
<svg width="16" height="16">
  <circle cx="0" cy="0" r="1" fill="white"/>
  <circle cx="1" cy="0" r="1" fill="white"/>
  <circle cx="2" cy="0" r="1" fill="white"/>
  <circle cx="3" cy="0" r="1" fill="white"/>
  <circle cx="4" cy="0" r="1" fill="white"/>
  <circle cx="5" cy="0" r="1" fill="white"/>
  <circle cx="6" cy="0" r="1" fill="white"/>
  <circle cx="7" cy="0" r="1" fill="white"/>
  <circle cx="8" cy="0" r="1" fill="white"/>
  <circle cx="9" cy="0" r="1" fill="white"/>
  <circle cx="10" cy="0" r="1" fill="white"/>
  <circle cx="11" cy="0" r="1" fill="white"/>
  <circle cx="12" cy="0" r="1" fill="white"/>
  <circle cx="13" cy="0" r="1" fill="white"/>
  <circle cx="14" cy="0" r="1" fill="white"/>
  <circle cx="15" cy="0" r="1" fill="white"/>
  <circle cx="0" cy="1" r="1" fill="white"/>
  <circle cx="1" cy="1" r="1" fill="white"/>
  <circle cx="2" cy="1" r="1" fill="white"/>
  <circle cx="3" cy="1" r="1" fill="white"/>
  <circle cx="4" cy="1" r="1" fill="white"/>
  <circle cx="5" cy="1" r="1" fill="white"/>
  <circle cx="6" cy="1" r="1" fill="white"/>
  <circle cx="7" cy="1" r="1" fill="white"/>
  <circle cx="8" cy="1" r="1" fill="white"/>
  <circle cx="9" cy="1" r="1" fill="white"/>
  <circle cx="10" cy="1" r="1" fill="white"/>
  <circle cx="11" cy="1" r="1" fill="white"/>
  <circle cx="12" cy="1" r="1" fill="white"/>
  <circle cx="13" cy="1" r="1" fill="white"/>
  <circle cx="14" cy="1" r="1" fill="white"/>
  <circle cx="15" cy="1" r="1" fill="white"/>
  <circle cx="0" cy="2" r="1" fill="white"/>
  <circle cx="1" cy="2" r="1" fill="white"/>
  <circle cx="2" cy="2" r="1" fill="white"/>
  <circle cx="3" cy="2" r="1" fill="white"/>
  <circle cx="4" cy="2" r="1" fill="white"/>
  <circle cx="5" cy="2" r="1" fill="white"/>
  <circle cx="6" cy="2" r="1" fill="white"/>
  <circle cx="7" cy="2" r="1" fill="white"/>
  <circle cx="8" cy="2" r="1" fill="white"/>
  <circle cx="9" cy="2" r="1" fill="white"/>
  <circle cx="10" cy="2" r="1" fill="white"/>
  <circle cx="11" cy="2" r="1" fill="white"/>
  <circle cx="12" cy="2" r="1" fill="white"/>
  <circle cx="13" cy="2" r="1" fill="white"/>
  <circle cx="14" cy="2" r="1" fill="srgba(96.5499%,89.0074%,79.5392%,1)"/>
  <circle cx="15" cy="2" r="1" fill="srgba(92.9046%,77.3892%,57.9156%,1)"/>
  <circle cx="0" cy="3" r="1" fill="white"/>
  <circle cx="1" cy="3" r="1" fill="white"/>
  <circle cx="2" cy="3" r="1" fill="white"/>
  <circle cx="3" cy="3" r="1" fill="white"/>
  <circle cx="4" cy="3" r="1" fill="white"/>
  <circle cx="5" cy="3" r="1" fill="white"/>
  <circle cx="6" cy="3" r="1" fill="white"/>
  <circle cx="7" cy="3" r="1" fill="white"/>
  <circle cx="8" cy="3" r="1" fill="white"/>
  <circle cx="9" cy="3" r="1" fill="white"/>
  <circle cx="10" cy="3" r="1" fill="white"/>
  <circle cx="11" cy="3" r="1" fill="white"/>
  <circle cx="12" cy="3" r="1" fill="white"/>
  <circle cx="13" cy="3" r="1" fill="srgba(99.7681%,99.2599%,98.6069%,1)"/>
  <circle cx="14" cy="3" r="1" fill="srgba(89.044%,65.0935%,35.3933%,1)"/>
  <circle cx="15" cy="3" r="1" fill="srgba(82.7802%,45.1392%,0%,1)"/>
  <circle cx="0" cy="4" r="1" fill="white"/>
  <circle cx="1" cy="4" r="1" fill="white"/>
  <circle cx="2" cy="4" r="1" fill="white"/>
  <circle cx="3" cy="4" r="1" fill="white"/>
  <circle cx="4" cy="4" r="1" fill="white"/>
  <circle cx="5" cy="4" r="1" fill="white"/>
  <circle cx="6" cy="4" r="1" fill="white"/>
  <circle cx="7" cy="4" r="1" fill="white"/>
  <circle cx="8" cy="4" r="1" fill="white"/>
  <circle cx="9" cy="4" r="1" fill="white"/>
  <circle cx="10" cy="4" r="1" fill="srgba(99.9374%,99.8032%,99.6338%,1)"/>
  <circle cx="11" cy="4" r="1" fill="srgba(99.8703%,99.588%,99.2325%,1)"/>
  <circle cx="12" cy="4" r="1" fill="white"/>
  <circle cx="13" cy="4" r="1" fill="srgba(99.6628%,98.9242%,98.0362%,1)"/>
  <circle cx="14" cy="4" r="1" fill="srgba(88.0247%,61.8448%,29.34%,1)"/>
  <circle cx="15" cy="4" r="1" fill="srgba(82.8199%,45.2613%,0%,1)"/>
  <circle cx="0" cy="5" r="1" fill="white"/>
  <circle cx="1" cy="5" r="1" fill="white"/>
  <circle cx="2" cy="5" r="1" fill="white"/>
  <circle cx="3" cy="5" r="1" fill="white"/>
  <circle cx="4" cy="5" r="1" fill="white"/>
  <circle cx="5" cy="5" r="1" fill="white"/>
  <circle cx="6" cy="5" r="1" fill="white"/>
  <circle cx="7" cy="5" r="1" fill="white"/>
  <circle cx="8" cy="5" r="1" fill="white"/>
  <circle cx="9" cy="5" r="1" fill="white"/>
  <circle cx="10" cy="5" r="1" fill="srgba(99.7513%,99.2096%,98.529%,1)"/>
  <circle cx="11" cy="5" r="1" fill="srgba(99.5071%,98.4268%,97.0733%,1)"/>
  <circle cx="12" cy="5" r="1" fill="white"/>
  <circle cx="13" cy="5" r="1" fill="srgba(99.6994%,99.0417%,98.2162%,1)"/>
  <circle cx="14" cy="5" r="1" fill="srgba(88.1834%,62.3529%,29.929%,1)"/>
  <circle cx="15" cy="5" r="1" fill="srgba(82.8214%,45.2659%,0%,1)"/>
  <circle cx="0" cy="6" r="1" fill="white"/>
  <circle cx="1" cy="6" r="1" fill="white"/>
  <circle cx="2" cy="6" r="1" fill="white"/>
  <circle cx="3" cy="6" r="1" fill="white"/>
  <circle cx="4" cy="6" r="1" fill="white"/>
  <circle cx="5" cy="6" r="1" fill="white"/>
  <circle cx="6" cy="6" r="1" fill="white"/>
  <circle cx="7" cy="6" r="1" fill="white"/>
  <circle cx="8" cy="6" r="1" fill="white"/>
  <circle cx="9" cy="6" r="1" fill="white"/>
  <circle cx="10" cy="6" r="1" fill="srgba(99.4736%,98.323%,96.8795%,1)"/>
  <circle cx="11" cy="6" r="1" fill="srgba(99.0448%,96.9543%,94.3313%,1)"/>
  <circle cx="12" cy="6" r="1" fill="white"/>
  <circle cx="13" cy="6" r="1" fill="srgba(99.7284%,99.1348%,98.3932%,1)"/>
  <circle cx="14" cy="6" r="1" fill="srgba(88.2811%,62.6612%,30.5089%,1)"/>
  <circle cx="15" cy="6" r="1" fill="srgba(82.8183%,45.2567%,0%,1)"/>
  <circle cx="0" cy="7" r="1" fill="white"/>
  <circle cx="1" cy="7" r="1" fill="white"/>
  <circle cx="2" cy="7" r="1" fill="white"/>
  <circle cx="3" cy="7" r="1" fill="white"/>
  <circle cx="4" cy="7" r="1" fill="white"/>
  <circle cx="5" cy="7" r="1" fill="white"/>
  <circle cx="6" cy="7" r="1" fill="white"/>
  <circle cx="7" cy="7" r="1" fill="white"/>
  <circle cx="8" cy="7" r="1" fill="white"/>
  <circle cx="9" cy="7" r="1" fill="white"/>
  <circle cx="10" cy="7" r="1" fill="srgba(98.3078%,94.6059%,89.9779%,1)"/>
  <circle cx="11" cy="7" r="1" fill="srgba(98.0148%,93.6736%,88.2521%,1)"/>
  <circle cx="12" cy="7" r="1" fill="white"/>
  <circle cx="13" cy="7" r="1" fill="srgba(99.7574%,99.2264%,98.5595%,1)"/>
  <circle cx="14" cy="7" r="1" fill="srgba(88.3787%,62.974%,31.0842%,1)"/>
  <circle cx="15" cy="7" r="1" fill="srgba(82.8153%,45.2491%,0%,1)"/>
  <circle cx="0" cy="8" r="1" fill="white"/>
  <circle cx="1" cy="8" r="1" fill="white"/>
  <circle cx="2" cy="8" r="1" fill="white"/>
  <circle cx="3" cy="8" r="1" fill="white"/>
  <circle cx="4" cy="8" r="1" fill="white"/>
  <circle cx="5" cy="8" r="1" fill="white"/>
  <circle cx="6" cy="8" r="1" fill="white"/>
  <circle cx="7" cy="8" r="1" fill="white"/>
  <circle cx="8" cy="8" r="1" fill="white"/>
  <circle cx="9" cy="8" r="1" fill="white"/>
  <circle cx="10" cy="8" r="1" fill="srgba(95.3658%,85.2262%,72.5277%,1)"/>
  <circle cx="11" cy="8" r="1" fill="srgba(96.2585%,88.0751%,77.8378%,1)"/>
  <circle cx="12" cy="8" r="1" fill="white"/>
  <circle cx="13" cy="8" r="1" fill="srgba(99.7833%,99.3088%,98.7137%,1)"/>
  <circle cx="14" cy="8" r="1" fill="srgba(88.4779%,63.2883%,31.6732%,1)"/>
  <circle cx="15" cy="8" r="1" fill="srgba(82.8138%,45.2415%,0%,1)"/>
  <circle cx="0" cy="9" r="1" fill="white"/>
  <circle cx="1" cy="9" r="1" fill="white"/>
  <circle cx="2" cy="9" r="1" fill="srgba(91.8334%,92.4407%,90.5303%,1)"/>
  <circle cx="3" cy="9" r="1" fill="srgba(81.593%,82.9633%,78.6557%,1)"/>
  <circle cx="4" cy="9" r="1" fill="srgba(83.621%,84.8417%,81.0071%,1)"/>
  <circle cx="5" cy="9" r="1" fill="srgba(97.2686%,97.4716%,96.8322%,1)"/>
  <circle cx="6" cy="9" r="1" fill="white"/>
  <circle cx="7" cy="9" r="1" fill="white"/>
  <circle cx="8" cy="9" r="1" fill="srgba(99.8657%,99.8749%,99.8444%,1)"/>
  <circle cx="9" cy="9" r="1" fill="srgba(89.9886%,91.2947%,89.572%,1)"/>
  <circle cx="10" cy="9" r="1" fill="srgba(81.0773%,71.3207%,54.5724%,1)"/>
  <circle cx="11" cy="9" r="1" fill="srgba(86.1051%,78.3383%,65.3544%,1)"/>
  <circle cx="12" cy="9" r="1" fill="srgba(98.2406%,98.9258%,99.1257%,1)"/>
  <circle cx="13" cy="9" r="1" fill="srgba(99.9222%,99.4919%,98.999%,1)"/>
  <circle cx="14" cy="9" r="1" fill="srgba(88.5618%,63.5554%,32.2637%,1)"/>
  <circle cx="15" cy="9" r="1" fill="srgba(82.8107%,45.2323%,0%,1)"/>
  <circle cx="0" cy="10" r="1" fill="white"/>
  <circle cx="1" cy="10" r="1" fill="srgba(98.1765%,98.3124%,97.8851%,1)"/>
  <circle cx="2" cy="10" r="1" fill="srgba(67.5349%,69.9565%,62.3545%,1)"/>
  <circle cx="3" cy="10" r="1" fill="srgba(33.8582%,38.7884%,23.3051%,1)"/>
  <circle cx="4" cy="10" r="1" fill="srgba(34.6441%,39.5117%,24.2145%,1)"/>
  <circle cx="5" cy="10" r="1" fill="srgba(66.1234%,68.6458%,60.7156%,1)"/>
  <circle cx="6" cy="10" r="1" fill="srgba(78.5824%,80.177%,75.1644%,1)"/>
  <circle cx="7" cy="10" r="1" fill="srgba(78.2376%,79.8581%,74.7646%,1)"/>
  <circle cx="8" cy="10" r="1" fill="srgba(76.0159%,77.8012%,72.1889%,1)"/>
  <circle cx="9" cy="10" r="1" fill="srgba(46.6773%,51.2108%,39.3576%,1)"/>
  <circle cx="10" cy="10" r="1" fill="srgba(45.0706%,37.911%,12.5628%,1)"/>
  <circle cx="11" cy="10" r="1" fill="srgba(59.7223%,53.875%,34.6212%,1)"/>
  <circle cx="12" cy="10" r="1" fill="srgba(88.5573%,89.9611%,87.8935%,1)"/>
  <circle cx="13" cy="10" r="1" fill="srgba(100%,99.8322%,99.527%,1)"/>
  <circle cx="14" cy="10" r="1" fill="srgba(89.2287%,65.0309%,34.7478%,1)"/>
  <circle cx="15" cy="10" r="1" fill="srgba(82.829%,45.2705%,0%,1)"/>
  <circle cx="0" cy="11" r="1" fill="srgba(70.1183%,72.3369%,65.3483%,1)"/>
  <circle cx="1" cy="11" r="1" fill="srgba(65.6199%,68.1758%,60.1343%,1)"/>
  <circle cx="2" cy="11" r="1" fill="srgba(41.9409%,46.2638%,32.6772%,1)"/>
  <circle cx="3" cy="11" r="1" fill="srgba(28.0858%,33.4401%,16.611%,1)"/>
  <circle cx="4" cy="11" r="1" fill="srgba(28.0446%,33.402%,16.5606%,1)"/>
  <circle cx="5" cy="11" r="1" fill="srgba(33.7026%,38.6389%,23.1235%,1)"/>
  <circle cx="6" cy="11" r="1" fill="srgba(40.3677%,44.8096%,30.8507%,1)"/>
  <circle cx="7" cy="11" r="1" fill="srgba(44.8554%,48.9616%,36.054%,1)"/>
  <circle cx="8" cy="11" r="1" fill="srgba(36.1074%,40.8667%,25.9129%,1)"/>
  <circle cx="9" cy="11" r="1" fill="srgba(29.3111%,35.14%,19.2248%,1)"/>
  <circle cx="10" cy="11" r="1" fill="srgba(44.0711%,36.8688%,11.1589%,1)"/>
  <circle cx="11" cy="11" r="1" fill="srgba(44.4221%,39.649%,16.7453%,1)"/>
  <circle cx="12" cy="11" r="1" fill="srgba(56.5316%,60.2991%,50.7179%,1)"/>
  <circle cx="13" cy="11" r="1" fill="srgba(69.0929%,71.8471%,65.1286%,1)"/>
  <circle cx="14" cy="11" r="1" fill="srgba(75.346%,58.4024%,31.7861%,1)"/>
  <circle cx="15" cy="11" r="1" fill="srgba(83.2685%,45.9022%,0%,1)"/>
  <circle cx="0" cy="12" r="1" fill="srgba(29.9901%,35.201%,18.8174%,1)"/>
  <circle cx="1" cy="12" r="1" fill="srgba(40.8148%,45.2232%,31.3695%,1)"/>
  <circle cx="2" cy="12" r="1" fill="srgba(44.9958%,49.0959%,36.2203%,1)"/>
  <circle cx="3" cy="12" r="1" fill="srgba(36.2631%,41.0132%,26.0945%,1)"/>
  <circle cx="4" cy="12" r="1" fill="srgba(26.537%,32.0073%,14.815%,1)"/>
  <circle cx="5" cy="12" r="1" fill="srgba(29.0349%,34.3206%,17.7142%,1)"/>
  <circle cx="6" cy="12" r="1" fill="srgba(30.4936%,35.671%,19.4049%,1)"/>
  <circle cx="7" cy="12" r="1" fill="srgba(32.4285%,37.4624%,21.648%,1)"/>
  <circle cx="8" cy="12" r="1" fill="srgba(29.247%,34.5174%,17.9568%,1)"/>
  <circle cx="9" cy="12" r="1" fill="srgba(26.9291%,32.9381%,16.4645%,1)"/>
  <circle cx="10" cy="12" r="1" fill="srgba(44.3915%,37.0459%,11.2764%,1)"/>
  <circle cx="11" cy="12" r="1" fill="srgba(50.2907%,45.0202%,23.4211%,1)"/>
  <circle cx="12" cy="12" r="1" fill="srgba(45.9525%,50.5211%,38.4771%,1)"/>
  <circle cx="13" cy="12" r="1" fill="srgba(32.7901%,37.9706%,22.4384%,1)"/>
  <circle cx="14" cy="12" r="1" fill="srgba(58.2864%,40.5524%,7.64782%,1)"/>
  <circle cx="15" cy="12" r="1" fill="srgba(83.92%,46.4393%,0%,1)"/>
  <circle cx="0" cy="13" r="1" fill="srgba(84.3076%,85.4749%,81.8021%,1)"/>
  <circle cx="1" cy="13" r="1" fill="srgba(89.3339%,90.1289%,87.631%,1)"/>
  <circle cx="2" cy="13" r="1" fill="srgba(69.7246%,71.9799%,64.8951%,1)"/>
  <circle cx="3" cy="13" r="1" fill="srgba(52.3079%,55.8633%,44.6998%,1)"/>
  <circle cx="4" cy="13" r="1" fill="srgba(25.98%,31.4916%,14.168%,1)"/>
  <circle cx="5" cy="13" r="1" fill="srgba(26.9291%,32.3705%,15.2697%,1)"/>
  <circle cx="6" cy="13" r="1" fill="srgba(26.0777%,31.5831%,14.2824%,1)"/>
  <circle cx="7" cy="13" r="1" fill="srgba(25.8915%,31.4107%,14.0658%,1)"/>
  <circle cx="8" cy="13" r="1" fill="srgba(26.5705%,32.0394%,14.8516%,1)"/>
  <circle cx="9" cy="13" r="1" fill="srgba(25.7588%,31.8563%,15.1125%,1)"/>
  <circle cx="10" cy="13" r="1" fill="srgba(46.0853%,38.4924%,12.9839%,1)"/>
  <circle cx="11" cy="13" r="1" fill="srgba(67.6844%,61.059%,43.4623%,1)"/>
  <circle cx="12" cy="13" r="1" fill="srgba(81.5595%,83.5065%,79.8276%,1)"/>
  <circle cx="13" cy="13" r="1" fill="srgba(88.4611%,88.6885%,85.2873%,1)"/>
  <circle cx="14" cy="13" r="1" fill="srgba(82.7527%,57.4792%,23.9612%,1)"/>
  <circle cx="15" cy="13" r="1" fill="srgba(83.1495%,45.5634%,0%,1)"/>
  <circle cx="0" cy="14" r="1" fill="white"/>
  <circle cx="1" cy="14" r="1" fill="srgba(97.023%,97.2427%,96.5469%,1)"/>
  <circle cx="2" cy="14" r="1" fill="srgba(75.7412%,77.5463%,71.8685%,1)"/>
  <circle cx="3" cy="14" r="1" fill="srgba(45.2781%,49.3553%,36.5438%,1)"/>
  <circle cx="4" cy="14" r="1" fill="srgba(25.835%,31.3573%,14.0002%,1)"/>
  <circle cx="5" cy="14" r="1" fill="srgba(26.6789%,32.1386%,14.9767%,1)"/>
  <circle cx="6" cy="14" r="1" fill="srgba(26.3584%,31.8425%,14.6059%,1)"/>
  <circle cx="7" cy="14" r="1" fill="srgba(26.2562%,31.7479%,14.4884%,1)"/>
  <circle cx="8" cy="14" r="1" fill="srgba(26.6361%,32.0989%,14.9294%,1)"/>
  <circle cx="9" cy="14" r="1" fill="srgba(25.4536%,31.577%,14.7646%,1)"/>
  <circle cx="10" cy="14" r="1" fill="srgba(45.2277%,37.5769%,11.7327%,1)"/>
  <circle cx="11" cy="14" r="1" fill="srgba(71.0002%,64.065%,47.1763%,1)"/>
  <circle cx="12" cy="14" r="1" fill="srgba(88.716%,90.1335%,88.1315%,1)"/>
  <circle cx="13" cy="14" r="1" fill="srgba(99.9496%,99.3027%,98.5687%,1)"/>
  <circle cx="14" cy="14" r="1" fill="srgba(88.2551%,62.5162%,30.2159%,1)"/>
  <circle cx="15" cy="14" r="1" fill="srgba(82.8183%,45.2613%,0%,1)"/>
  <circle cx="0" cy="15" r="1" fill="white"/>
  <circle cx="1" cy="15" r="1" fill="srgba(97.5311%,97.7142%,97.1374%,1)"/>
  <circle cx="2" cy="15" r="1" fill="srgba(59.2798%,62.3117%,52.7825%,1)"/>
  <circle cx="3" cy="15" r="1" fill="srgba(26.7018%,32.1599%,15.0057%,1)"/>
  <circle cx="4" cy="15" r="1" fill="srgba(26.1875%,31.6838%,14.4091%,1)"/>
  <circle cx="5" cy="15" r="1" fill="srgba(28.8884%,34.1848%,17.5402%,1)"/>
  <circle cx="6" cy="15" r="1" fill="srgba(26.7613%,32.2148%,15.0744%,1)"/>
  <circle cx="7" cy="15" r="1" fill="srgba(26.1601%,31.6594%,14.3771%,1)"/>
  <circle cx="8" cy="15" r="1" fill="srgba(28.5252%,33.846%,17.1191%,1)"/>
  <circle cx="9" cy="15" r="1" fill="srgba(26.4134%,32.4651%,15.8801%,1)"/>
  <circle cx="10" cy="15" r="1" fill="srgba(43.3356%,35.7153%,9.30648%,1)"/>
  <circle cx="11" cy="15" r="1" fill="srgba(52.0378%,46.4591%,25.0736%,1)"/>
  <circle cx="12" cy="15" r="1" fill="srgba(84.7044%,86.424%,83.4852%,1)"/>
  <circle cx="13" cy="15" r="1" fill="srgba(100%,99.5972%,98.9273%,1)"/>
  <circle cx="14" cy="15" r="1" fill="srgba(88.2109%,62.4399%,30.0893%,1)"/>
  <circle cx="15" cy="15" r="1" fill="srgba(82.8199%,45.2644%,0%,1)"/>
</svg>
