<?xml version="1.0" standalone="no"?>
<!DOCTYPE svg PUBLIC "-//W3C//DTD SVG 20010904//EN"
  "http://www.w3.org/TR/2001/REC-SVG-20010904/DTD/svg10.dtd">
<svg width="16" height="16">
  <circle cx="0" cy="0" r="1" fill="white"/>
  <circle cx="1" cy="0" r="1" fill="white"/>
  <circle cx="2" cy="0" r="1" fill="white"/>
  <circle cx="3" cy="0" r="1" fill="white"/>
  <circle cx="4" cy="0" r="1" fill="white"/>
  <circle cx="5" cy="0" r="1" fill="white"/>
  <circle cx="6" cy="0" r="1" fill="white"/>
  <circle cx="7" cy="0" r="1" fill="white"/>
  <circle cx="8" cy="0" r="1" fill="white"/>
  <circle cx="9" cy="0" r="1" fill="white"/>
  <circle cx="10" cy="0" r="1" fill="white"/>
  <circle cx="11" cy="0" r="1" fill="white"/>
  <circle cx="12" cy="0" r="1" fill="white"/>
  <circle cx="13" cy="0" r="1" fill="white"/>
  <circle cx="14" cy="0" r="1" fill="white"/>
  <circle cx="15" cy="0" r="1" fill="srgba(99.9619%,99.53%,99.53%,1)"/>
  <circle cx="0" cy="1" r="1" fill="srgba(81.8479%,81.8479%,89.7505%,1)"/>
  <circle cx="1" cy="1" r="1" fill="srgba(99.0478%,99.0478%,99.4629%,1)"/>
  <circle cx="2" cy="1" r="1" fill="white"/>
  <circle cx="3" cy="1" r="1" fill="white"/>
  <circle cx="4" cy="1" r="1" fill="white"/>
  <circle cx="5" cy="1" r="1" fill="white"/>
  <circle cx="6" cy="1" r="1" fill="white"/>
  <circle cx="7" cy="1" r="1" fill="white"/>
  <circle cx="8" cy="1" r="1" fill="white"/>
  <circle cx="9" cy="1" r="1" fill="white"/>
  <circle cx="10" cy="1" r="1" fill="white"/>
  <circle cx="11" cy="1" r="1" fill="white"/>
  <circle cx="12" cy="1" r="1" fill="white"/>
  <circle cx="13" cy="1" r="1" fill="white"/>
  <circle cx="14" cy="1" r="1" fill="white"/>
  <circle cx="15" cy="1" r="1" fill="srgba(99.9619%,99.53%,99.53%,1)"/>
  <circle cx="0" cy="2" r="1" fill="srgba(11.1406%,11.1406%,49.7887%,1)"/>
  <circle cx="1" cy="2" r="1" fill="srgba(53.2204%,53.2204%,73.5851%,1)"/>
  <circle cx="2" cy="2" r="1" fill="srgba(93.4386%,93.4386%,96.2951%,1)"/>
  <circle cx="3" cy="2" r="1" fill="white"/>
  <circle cx="4" cy="2" r="1" fill="white"/>
  <circle cx="5" cy="2" r="1" fill="white"/>
  <circle cx="6" cy="2" r="1" fill="white"/>
  <circle cx="7" cy="2" r="1" fill="white"/>
  <circle cx="8" cy="2" r="1" fill="white"/>
  <circle cx="9" cy="2" r="1" fill="white"/>
  <circle cx="10" cy="2" r="1" fill="white"/>
  <circle cx="11" cy="2" r="1" fill="white"/>
  <circle cx="12" cy="2" r="1" fill="white"/>
  <circle cx="13" cy="2" r="1" fill="white"/>
  <circle cx="14" cy="2" r="1" fill="white"/>
  <circle cx="15" cy="2" r="1" fill="srgba(99.9619%,99.53%,99.53%,1)"/>
  <circle cx="0" cy="3" r="1" fill="srgba(0%,0%,43.0564%,1)"/>
  <circle cx="1" cy="3" r="1" fill="srgba(1.44045%,1.44045%,43.8804%,1)"/>
  <circle cx="2" cy="3" r="1" fill="srgba(28.3375%,28.3375%,59.5407%,1)"/>
  <circle cx="3" cy="3" r="1" fill="srgba(77.9355%,77.9355%,87.541%,1)"/>
  <circle cx="4" cy="3" r="1" fill="srgba(99.4842%,99.4842%,99.7086%,1)"/>
  <circle cx="5" cy="3" r="1" fill="white"/>
  <circle cx="6" cy="3" r="1" fill="white"/>
  <circle cx="7" cy="3" r="1" fill="white"/>
  <circle cx="8" cy="3" r="1" fill="white"/>
  <circle cx="9" cy="3" r="1" fill="white"/>
  <circle cx="10" cy="3" r="1" fill="white"/>
  <circle cx="11" cy="3" r="1" fill="white"/>
  <circle cx="12" cy="3" r="1" fill="white"/>
  <circle cx="13" cy="3" r="1" fill="white"/>
  <circle cx="14" cy="3" r="1" fill="white"/>
  <circle cx="15" cy="3" r="1" fill="srgba(99.9619%,99.53%,99.53%,1)"/>
  <circle cx="0" cy="4" r="1" fill="srgba(0%,0%,43.534%,1)"/>
  <circle cx="1" cy="4" r="1" fill="srgba(0%,0%,43.4516%,1)"/>
  <circle cx="2" cy="4" r="1" fill="srgba(0%,0%,42.771%,1)"/>
  <circle cx="3" cy="4" r="1" fill="srgba(9.94583%,9.94583%,49.0059%,1)"/>
  <circle cx="4" cy="4" r="1" fill="srgba(53.9406%,53.9406%,73.9971%,1)"/>
  <circle cx="5" cy="4" r="1" fill="srgba(93.5607%,93.5607%,96.3638%,1)"/>
  <circle cx="6" cy="4" r="1" fill="white"/>
  <circle cx="7" cy="4" r="1" fill="white"/>
  <circle cx="8" cy="4" r="1" fill="white"/>
  <circle cx="9" cy="4" r="1" fill="white"/>
  <circle cx="10" cy="4" r="1" fill="white"/>
  <circle cx="11" cy="4" r="1" fill="white"/>
  <circle cx="12" cy="4" r="1" fill="white"/>
  <circle cx="13" cy="4" r="1" fill="white"/>
  <circle cx="14" cy="4" r="1" fill="white"/>
  <circle cx="15" cy="4" r="1" fill="srgba(99.9619%,99.53%,99.53%,1)"/>
  <circle cx="0" cy="5" r="1" fill="srgba(0,0,111,1)"/>
  <circle cx="1" cy="5" r="1" fill="srgba(0,0,111,1)"/>
  <circle cx="2" cy="5" r="1" fill="srgba(0%,0%,43.537%,1)"/>
  <circle cx="3" cy="5" r="1" fill="srgba(0%,0%,43.1083%,1)"/>
  <circle cx="4" cy="5" r="1" fill="srgba(1.50301%,1.50301%,43.917%,1)"/>
  <circle cx="5" cy="5" r="1" fill="srgba(28.5985%,28.5985%,59.6857%,1)"/>
  <circle cx="6" cy="5" r="1" fill="srgba(78.1811%,78.1811%,87.6799%,1)"/>
  <circle cx="7" cy="5" r="1" fill="srgba(99.5132%,99.5132%,99.7253%,1)"/>
  <circle cx="8" cy="5" r="1" fill="white"/>
  <circle cx="9" cy="5" r="1" fill="white"/>
  <circle cx="10" cy="5" r="1" fill="white"/>
  <circle cx="11" cy="5" r="1" fill="white"/>
  <circle cx="12" cy="5" r="1" fill="white"/>
  <circle cx="13" cy="5" r="1" fill="white"/>
  <circle cx="14" cy="5" r="1" fill="white"/>
  <circle cx="15" cy="5" r="1" fill="srgba(99.9619%,99.53%,99.53%,1)"/>
  <circle cx="0" cy="6" r="1" fill="srgba(0,0,111,1)"/>
  <circle cx="1" cy="6" r="1" fill="srgba(0,0,111,1)"/>
  <circle cx="2" cy="6" r="1" fill="srgba(0,0,111,1)"/>
  <circle cx="3" cy="6" r="1" fill="srgba(0%,0%,43.534%,1)"/>
  <circle cx="4" cy="6" r="1" fill="srgba(0%,0%,43.4485%,1)"/>
  <circle cx="5" cy="6" r="1" fill="srgba(0%,0%,42.7726%,1)"/>
  <circle cx="6" cy="6" r="1" fill="srgba(10.1045%,10.1045%,49.099%,1)"/>
  <circle cx="7" cy="6" r="1" fill="srgba(54.2397%,54.2397%,74.1695%,1)"/>
  <circle cx="8" cy="6" r="1" fill="srgba(93.6858%,93.6858%,96.4355%,1)"/>
  <circle cx="9" cy="6" r="1" fill="white"/>
  <circle cx="10" cy="6" r="1" fill="white"/>
  <circle cx="11" cy="6" r="1" fill="white"/>
  <circle cx="12" cy="6" r="1" fill="white"/>
  <circle cx="13" cy="6" r="1" fill="white"/>
  <circle cx="14" cy="6" r="1" fill="white"/>
  <circle cx="15" cy="6" r="1" fill="srgba(99.9619%,99.5361%,99.5361%,1)"/>
  <circle cx="0" cy="7" r="1" fill="srgba(0,0,111,1)"/>
  <circle cx="1" cy="7" r="1" fill="srgba(0,0,111,1)"/>
  <circle cx="2" cy="7" r="1" fill="srgba(0,0,111,1)"/>
  <circle cx="3" cy="7" r="1" fill="srgba(0,0,111,1)"/>
  <circle cx="4" cy="7" r="1" fill="srgba(0,0,111,1)"/>
  <circle cx="5" cy="7" r="1" fill="srgba(0%,0%,43.537%,1)"/>
  <circle cx="6" cy="7" r="1" fill="srgba(0%,0%,43.0976%,1)"/>
  <circle cx="7" cy="7" r="1" fill="srgba(1.38857%,1.55642%,44.033%,1)"/>
  <circle cx="8" cy="7" r="1" fill="srgba(28.0766%,29.0074%,60.3647%,1)"/>
  <circle cx="9" cy="7" r="1" fill="srgba(82.2721%,75.8724%,83.3127%,1)"/>
  <circle cx="10" cy="7" r="1" fill="srgba(99.53%,88.0827%,87.7928%,1)"/>
  <circle cx="11" cy="7" r="1" fill="srgba(98.8785%,87.5929%,87.5929%,1)"/>
  <circle cx="12" cy="7" r="1" fill="srgba(98.8785%,87.5929%,87.5929%,1)"/>
  <circle cx="13" cy="7" r="1" fill="srgba(98.8785%,87.5929%,87.5929%,1)"/>
  <circle cx="14" cy="7" r="1" fill="srgba(98.88%,87.6097%,87.6097%,1)"/>
  <circle cx="15" cy="7" r="1" fill="srgba(98.854%,87.2786%,87.2786%,1)"/>
  <circle cx="0" cy="8" r="1" fill="srgba(0,0,111,1)"/>
  <circle cx="1" cy="8" r="1" fill="srgba(0,0,111,1)"/>
  <circle cx="2" cy="8" r="1" fill="srgba(0,0,111,1)"/>
  <circle cx="3" cy="8" r="1" fill="srgba(0,0,111,1)"/>
  <circle cx="4" cy="8" r="1" fill="srgba(0,0,111,1)"/>
  <circle cx="5" cy="8" r="1" fill="srgba(0%,0%,43.5248%,1)"/>
  <circle cx="6" cy="8" r="1" fill="srgba(0%,0%,43.9017%,1)"/>
  <circle cx="7" cy="8" r="1" fill="srgba(1.72122%,0%,42.8794%,1)"/>
  <circle cx="8" cy="8" r="1" fill="srgba(27.6143%,0%,29.1768%,1)"/>
  <circle cx="9" cy="8" r="1" fill="srgba(76.9863%,6.45762%,13.1807%,1)"/>
  <circle cx="10" cy="8" r="1" fill="srgba(92.6238%,11.8837%,11.6228%,1)"/>
  <circle cx="11" cy="8" r="1" fill="srgba(92.0363%,11.7388%,11.7388%,1)"/>
  <circle cx="12" cy="8" r="1" fill="srgba(92.0363%,11.7388%,11.7388%,1)"/>
  <circle cx="13" cy="8" r="1" fill="srgba(92.0363%,11.7388%,11.7388%,1)"/>
  <circle cx="14" cy="8" r="1" fill="srgba(92.0333%,11.7037%,11.7037%,1)"/>
  <circle cx="15" cy="8" r="1" fill="srgba(92.0928%,12.3766%,12.3766%,1)"/>
  <circle cx="0" cy="9" r="1" fill="srgba(0,0,111,1)"/>
  <circle cx="1" cy="9" r="1" fill="srgba(0,0,111,1)"/>
  <circle cx="2" cy="9" r="1" fill="srgba(0,0,111,1)"/>
  <circle cx="3" cy="9" r="1" fill="srgba(0%,0%,43.5248%,1)"/>
  <circle cx="4" cy="9" r="1" fill="srgba(0%,0%,43.6103%,1)"/>
  <circle cx="5" cy="9" r="1" fill="srgba(0%,0%,44.1032%,1)"/>
  <circle cx="6" cy="9" r="1" fill="srgba(10.6035%,0%,38.5397%,1)"/>
  <circle cx="7" cy="9" r="1" fill="srgba(51.8807%,0%,18.6923%,1)"/>
  <circle cx="8" cy="9" r="1" fill="srgba(86.5888%,0%,2.30411%,1)"/>
  <circle cx="9" cy="9" r="1" fill="srgba(91.8196%,0%,0%,1)"/>
  <circle cx="10" cy="9" r="1" fill="srgba(90.8934%,0%,0%,1)"/>
  <circle cx="11" cy="9" r="1" fill="srgba(90.9117%,0%,0%,1)"/>
  <circle cx="12" cy="9" r="1" fill="srgba(90.9117%,0%,0%,1)"/>
  <circle cx="13" cy="9" r="1" fill="srgba(90.9117%,0%,0%,1)"/>
  <circle cx="14" cy="9" r="1" fill="srgba(90.9071%,0%,0%,1)"/>
  <circle cx="15" cy="9" r="1" fill="srgba(90.9819%,0.779736%,0.779736%,1)"/>
  <circle cx="0" cy="10" r="1" fill="srgba(0,0,111,1)"/>
  <circle cx="1" cy="10" r="1" fill="srgba(0,0,111,1)"/>
  <circle cx="2" cy="10" r="1" fill="srgba(0%,0%,43.5248%,1)"/>
  <circle cx="3" cy="10" r="1" fill="srgba(0%,0%,43.8956%,1)"/>
  <circle cx="4" cy="10" r="1" fill="srgba(1.8555%,0%,42.9709%,1)"/>
  <circle cx="5" cy="10" r="1" fill="srgba(28.4489%,0%,29.9077%,1)"/>
  <circle cx="6" cy="10" r="1" fill="srgba(73.1838%,0%,8.53285%,1)"/>
  <circle cx="7" cy="10" r="1" fill="srgba(91.667%,0%,0.108339%,1)"/>
  <circle cx="8" cy="10" r="1" fill="srgba(91.3756%,0%,0%,1)"/>
  <circle cx="9" cy="10" r="1" fill="srgba(90.9667%,0%,0%,1)"/>
  <circle cx="10" cy="10" r="1" fill="srgba(232,0,0,1)"/>
  <circle cx="11" cy="10" r="1" fill="srgba(232,0,0,1)"/>
  <circle cx="12" cy="10" r="1" fill="srgba(232,0,0,1)"/>
  <circle cx="13" cy="10" r="1" fill="srgba(232,0,0,1)"/>
  <circle cx="14" cy="10" r="1" fill="srgba(90.9758%,0%,0%,1)"/>
  <circle cx="15" cy="10" r="1" fill="srgba(91.0491%,0.784314%,0.784314%,1)"/>
  <circle cx="0" cy="11" r="1" fill="srgba(0%,0%,43.5248%,1)"/>
  <circle cx="1" cy="11" r="1" fill="srgba(0%,0%,43.6088%,1)"/>
  <circle cx="2" cy="11" r="1" fill="srgba(0%,0%,44.1047%,1)"/>
  <circle cx="3" cy="11" r="1" fill="srgba(10.5241%,0%,38.5779%,1)"/>
  <circle cx="4" cy="11" r="1" fill="srgba(51.7601%,0%,18.7472%,1)"/>
  <circle cx="5" cy="11" r="1" fill="srgba(86.566%,0%,2.31785%,1)"/>
  <circle cx="6" cy="11" r="1" fill="srgba(92.076%,0%,0%,1)"/>
  <circle cx="7" cy="11" r="1" fill="srgba(91.014%,0%,0%,1)"/>
  <circle cx="8" cy="11" r="1" fill="srgba(90.9773%,0%,0%,1)"/>
  <circle cx="9" cy="11" r="1" fill="srgba(232,0,0,1)"/>
  <circle cx="10" cy="11" r="1" fill="srgba(232,0,0,1)"/>
  <circle cx="11" cy="11" r="1" fill="srgba(232,0,0,1)"/>
  <circle cx="12" cy="11" r="1" fill="srgba(232,0,0,1)"/>
  <circle cx="13" cy="11" r="1" fill="srgba(232,0,0,1)"/>
  <circle cx="14" cy="11" r="1" fill="srgba(90.9758%,0%,0%,1)"/>
  <circle cx="15" cy="11" r="1" fill="srgba(91.0491%,0.784314%,0.784314%,1)"/>
  <circle cx="0" cy="12" r="1" fill="srgba(0%,0%,43.9445%,1)"/>
  <circle cx="1" cy="12" r="1" fill="srgba(1.81888%,0%,42.9847%,1)"/>
  <circle cx="2" cy="12" r="1" fill="srgba(28.3223%,0%,29.9672%,1)"/>
  <circle cx="3" cy="12" r="1" fill="srgba(73.08%,0%,8.5832%,1)"/>
  <circle cx="4" cy="12" r="1" fill="srgba(91.6533%,0%,0.112917%,1)"/>
  <circle cx="5" cy="12" r="1" fill="srgba(91.3787%,0%,0%,1)"/>
  <circle cx="6" cy="12" r="1" fill="srgba(90.9667%,0%,0%,1)"/>
  <circle cx="7" cy="12" r="1" fill="srgba(232,0,0,1)"/>
  <circle cx="8" cy="12" r="1" fill="srgba(232,0,0,1)"/>
  <circle cx="9" cy="12" r="1" fill="srgba(232,0,0,1)"/>
  <circle cx="10" cy="12" r="1" fill="srgba(232,0,0,1)"/>
  <circle cx="11" cy="12" r="1" fill="srgba(232,0,0,1)"/>
  <circle cx="12" cy="12" r="1" fill="srgba(232,0,0,1)"/>
  <circle cx="13" cy="12" r="1" fill="srgba(232,0,0,1)"/>
  <circle cx="14" cy="12" r="1" fill="srgba(90.9758%,0%,0%,1)"/>
  <circle cx="15" cy="12" r="1" fill="srgba(91.0491%,0.784314%,0.784314%,1)"/>
  <circle cx="0" cy="13" r="1" fill="srgba(11.8868%,0%,37.8515%,1)"/>
  <circle cx="1" cy="13" r="1" fill="srgba(51.2749%,0%,18.9837%,1)"/>
  <circle cx="2" cy="13" r="1" fill="srgba(86.5187%,0%,2.33768%,1)"/>
  <circle cx="3" cy="13" r="1" fill="srgba(92.079%,0%,0%,1)"/>
  <circle cx="4" cy="13" r="1" fill="srgba(91.0155%,0%,0%,1)"/>
  <circle cx="5" cy="13" r="1" fill="srgba(90.9773%,0%,0%,1)"/>
  <circle cx="6" cy="13" r="1" fill="srgba(232,0,0,1)"/>
  <circle cx="7" cy="13" r="1" fill="srgba(232,0,0,1)"/>
  <circle cx="8" cy="13" r="1" fill="srgba(232,0,0,1)"/>
  <circle cx="9" cy="13" r="1" fill="srgba(232,0,0,1)"/>
  <circle cx="10" cy="13" r="1" fill="srgba(232,0,0,1)"/>
  <circle cx="11" cy="13" r="1" fill="srgba(232,0,0,1)"/>
  <circle cx="12" cy="13" r="1" fill="srgba(232,0,0,1)"/>
  <circle cx="13" cy="13" r="1" fill="srgba(232,0,0,1)"/>
  <circle cx="14" cy="13" r="1" fill="srgba(90.9758%,0%,0%,1)"/>
  <circle cx="15" cy="13" r="1" fill="srgba(91.0491%,0.784314%,0.784314%,1)"/>
  <circle cx="0" cy="14" r="1" fill="srgba(76.5713%,0%,6.87266%,1)"/>
  <circle cx="1" cy="14" r="1" fill="srgba(91.2718%,0%,0.277714%,1)"/>
  <circle cx="2" cy="14" r="1" fill="srgba(91.3741%,0%,0%,1)"/>
  <circle cx="3" cy="14" r="1" fill="srgba(90.9621%,0%,0%,1)"/>
  <circle cx="4" cy="14" r="1" fill="srgba(90.9758%,0%,0%,1)"/>
  <circle cx="5" cy="14" r="1" fill="srgba(90.9758%,0%,0%,1)"/>
  <circle cx="6" cy="14" r="1" fill="srgba(90.9758%,0%,0%,1)"/>
  <circle cx="7" cy="14" r="1" fill="srgba(90.9758%,0%,0%,1)"/>
  <circle cx="8" cy="14" r="1" fill="srgba(90.9758%,0%,0%,1)"/>
  <circle cx="9" cy="14" r="1" fill="srgba(90.9758%,0%,0%,1)"/>
  <circle cx="10" cy="14" r="1" fill="srgba(90.9758%,0%,0%,1)"/>
  <circle cx="11" cy="14" r="1" fill="srgba(90.9758%,0%,0%,1)"/>
  <circle cx="12" cy="14" r="1" fill="srgba(90.9758%,0%,0%,1)"/>
  <circle cx="13" cy="14" r="1" fill="srgba(90.9758%,0%,0%,1)"/>
  <circle cx="14" cy="14" r="1" fill="srgba(90.9712%,0%,0%,1)"/>
  <circle cx="15" cy="14" r="1" fill="srgba(91.0445%,0.784314%,0.784314%,1)"/>
  <circle cx="0" cy="15" r="1" fill="srgba(91.986%,0.784314%,0.347906%,1)"/>
  <circle cx="1" cy="15" r="1" fill="srgba(91.0994%,0.784314%,0.759899%,1)"/>
  <circle cx="2" cy="15" r="1" fill="srgba(91.046%,0.784314%,0.78584%,1)"/>
  <circle cx="3" cy="15" r="1" fill="srgba(91.0491%,0.784314%,0.784314%,1)"/>
  <circle cx="4" cy="15" r="1" fill="srgba(91.0491%,0.784314%,0.784314%,1)"/>
  <circle cx="5" cy="15" r="1" fill="srgba(91.0491%,0.784314%,0.784314%,1)"/>
  <circle cx="6" cy="15" r="1" fill="srgba(91.0491%,0.784314%,0.784314%,1)"/>
  <circle cx="7" cy="15" r="1" fill="srgba(91.0491%,0.784314%,0.784314%,1)"/>
  <circle cx="8" cy="15" r="1" fill="srgba(91.0491%,0.784314%,0.784314%,1)"/>
  <circle cx="9" cy="15" r="1" fill="srgba(91.0491%,0.784314%,0.784314%,1)"/>
  <circle cx="10" cy="15" r="1" fill="srgba(91.0491%,0.784314%,0.784314%,1)"/>
  <circle cx="11" cy="15" r="1" fill="srgba(91.0491%,0.784314%,0.784314%,1)"/>
  <circle cx="12" cy="15" r="1" fill="srgba(91.0491%,0.784314%,0.784314%,1)"/>
  <circle cx="13" cy="15" r="1" fill="srgba(91.0491%,0.784314%,0.784314%,1)"/>
  <circle cx="14" cy="15" r="1" fill="srgba(91.0445%,0.741588%,0.741588%,1)"/>
  <circle cx="15" cy="15" r="1" fill="srgba(91.1177%,1.56252%,1.56252%,1)"/>
</svg>
