<?xml version="1.0" standalone="no"?>
<!DOCTYPE svg PUBLIC "-//W3C//DTD SVG 20010904//EN"
  "http://www.w3.org/TR/2001/REC-SVG-20010904/DTD/svg10.dtd">
<svg width="16" height="16">
  <circle cx="0" cy="0" r="1" fill="srgba(43.6118%,62.385%,99.9741%,1)"/>
  <circle cx="1" cy="0" r="1" fill="srgba(39.2599%,59.5117%,100%,1)"/>
  <circle cx="2" cy="0" r="1" fill="srgba(39.9359%,59.9573%,100%,1)"/>
  <circle cx="3" cy="0" r="1" fill="srgba(40.0046%,60.0031%,100%,1)"/>
  <circle cx="4" cy="0" r="1" fill="srgba(102,153,255,1)"/>
  <circle cx="5" cy="0" r="1" fill="srgba(102,153,255,1)"/>
  <circle cx="6" cy="0" r="1" fill="srgba(102,153,255,1)"/>
  <circle cx="7" cy="0" r="1" fill="srgba(102,153,255,1)"/>
  <circle cx="8" cy="0" r="1" fill="srgba(102,153,255,1)"/>
  <circle cx="9" cy="0" r="1" fill="srgba(102,153,255,1)"/>
  <circle cx="10" cy="0" r="1" fill="srgba(102,153,255,1)"/>
  <circle cx="11" cy="0" r="1" fill="srgba(102,153,255,1)"/>
  <circle cx="12" cy="0" r="1" fill="srgba(102,153,255,1)"/>
  <circle cx="13" cy="0" r="1" fill="srgba(102,153,255,1)"/>
  <circle cx="14" cy="0" r="1" fill="srgba(40.0015%,59.9893%,100%,1)"/>
  <circle cx="15" cy="0" r="1" fill="srgba(39.9847%,60.1999%,99.5377%,1)"/>
  <circle cx="0" cy="1" r="1" fill="srgba(82.6017%,88.1239%,99.7208%,1)"/>
  <circle cx="1" cy="1" r="1" fill="srgba(55.2041%,70.0359%,99.8993%,1)"/>
  <circle cx="2" cy="1" r="1" fill="srgba(40%,60%,99.9969%,1)"/>
  <circle cx="3" cy="1" r="1" fill="srgba(39.6323%,59.7574%,100%,1)"/>
  <circle cx="4" cy="1" r="1" fill="srgba(40.0092%,60.0061%,100%,1)"/>
  <circle cx="5" cy="1" r="1" fill="srgba(102,153,255,1)"/>
  <circle cx="6" cy="1" r="1" fill="srgba(102,153,255,1)"/>
  <circle cx="7" cy="1" r="1" fill="srgba(102,153,255,1)"/>
  <circle cx="8" cy="1" r="1" fill="srgba(102,153,255,1)"/>
  <circle cx="9" cy="1" r="1" fill="srgba(102,153,255,1)"/>
  <circle cx="10" cy="1" r="1" fill="srgba(102,153,255,1)"/>
  <circle cx="11" cy="1" r="1" fill="srgba(102,153,255,1)"/>
  <circle cx="12" cy="1" r="1" fill="srgba(102,153,255,1)"/>
  <circle cx="13" cy="1" r="1" fill="srgba(102,153,255,1)"/>
  <circle cx="14" cy="1" r="1" fill="srgba(40.0015%,59.9893%,100%,1)"/>
  <circle cx="15" cy="1" r="1" fill="srgba(39.9847%,60.1999%,99.5377%,1)"/>
  <circle cx="0" cy="2" r="1" fill="srgba(100%,100%,99.6017%,1)"/>
  <circle cx="1" cy="2" r="1" fill="srgba(95.1064%,96.463%,99.6384%,1)"/>
  <circle cx="2" cy="2" r="1" fill="srgba(69.8116%,79.6689%,99.8047%,1)"/>
  <circle cx="3" cy="2" r="1" fill="srgba(44.567%,63.0121%,99.968%,1)"/>
  <circle cx="4" cy="2" r="1" fill="srgba(39.2065%,59.4766%,100%,1)"/>
  <circle cx="5" cy="2" r="1" fill="srgba(39.9451%,59.9634%,100%,1)"/>
  <circle cx="6" cy="2" r="1" fill="srgba(40.0031%,60.0015%,100%,1)"/>
  <circle cx="7" cy="2" r="1" fill="srgba(102,153,255,1)"/>
  <circle cx="8" cy="2" r="1" fill="srgba(102,153,255,1)"/>
  <circle cx="9" cy="2" r="1" fill="srgba(102,153,255,1)"/>
  <circle cx="10" cy="2" r="1" fill="srgba(102,153,255,1)"/>
  <circle cx="11" cy="2" r="1" fill="srgba(102,153,255,1)"/>
  <circle cx="12" cy="2" r="1" fill="srgba(102,153,255,1)"/>
  <circle cx="13" cy="2" r="1" fill="srgba(102,153,255,1)"/>
  <circle cx="14" cy="2" r="1" fill="srgba(40.0015%,59.9893%,100%,1)"/>
  <circle cx="15" cy="2" r="1" fill="srgba(39.9847%,60.1999%,99.5377%,1)"/>
  <circle cx="0" cy="3" r="1" fill="srgba(100%,99.6033%,99.6078%,1)"/>
  <circle cx="1" cy="3" r="1" fill="srgba(100%,99.8169%,99.6048%,1)"/>
  <circle cx="2" cy="3" r="1" fill="srgba(99.4125%,99.4644%,99.6078%,1)"/>
  <circle cx="3" cy="3" r="1" fill="srgba(84.6921%,89.5033%,99.7086%,1)"/>
  <circle cx="4" cy="3" r="1" fill="srgba(54.8272%,69.7902%,99.9039%,1)"/>
  <circle cx="5" cy="3" r="1" fill="srgba(39.9771%,59.9847%,99.9969%,1)"/>
  <circle cx="6" cy="3" r="1" fill="srgba(39.6338%,59.7589%,100%,1)"/>
  <circle cx="7" cy="3" r="1" fill="srgba(40.0092%,60.0061%,100%,1)"/>
  <circle cx="8" cy="3" r="1" fill="srgba(102,153,255,1)"/>
  <circle cx="9" cy="3" r="1" fill="srgba(102,153,255,1)"/>
  <circle cx="10" cy="3" r="1" fill="srgba(102,153,255,1)"/>
  <circle cx="11" cy="3" r="1" fill="srgba(102,153,255,1)"/>
  <circle cx="12" cy="3" r="1" fill="srgba(102,153,255,1)"/>
  <circle cx="13" cy="3" r="1" fill="srgba(102,153,255,1)"/>
  <circle cx="14" cy="3" r="1" fill="srgba(40.0015%,59.9893%,100%,1)"/>
  <circle cx="15" cy="3" r="1" fill="srgba(39.9847%,60.1999%,99.5377%,1)"/>
  <circle cx="0" cy="4" r="1" fill="srgba(255,254,254,1)"/>
  <circle cx="1" cy="4" r="1" fill="srgba(100%,99.6048%,99.6078%,1)"/>
  <circle cx="2" cy="4" r="1" fill="srgba(100%,99.6658%,99.6246%,1)"/>
  <circle cx="3" cy="4" r="1" fill="srgba(100%,100%,99.6094%,1)"/>
  <circle cx="4" cy="4" r="1" fill="srgba(94.9859%,96.3836%,99.6399%,1)"/>
  <circle cx="5" cy="4" r="1" fill="srgba(69.6269%,79.5529%,99.8077%,1)"/>
  <circle cx="6" cy="4" r="1" fill="srgba(44.4785%,62.9572%,99.9695%,1)"/>
  <circle cx="7" cy="4" r="1" fill="srgba(39.2096%,59.4781%,100%,1)"/>
  <circle cx="8" cy="4" r="1" fill="srgba(39.9466%,59.9649%,100%,1)"/>
  <circle cx="9" cy="4" r="1" fill="srgba(40.0031%,60.0015%,100%,1)"/>
  <circle cx="10" cy="4" r="1" fill="srgba(102,153,255,1)"/>
  <circle cx="11" cy="4" r="1" fill="srgba(102,153,255,1)"/>
  <circle cx="12" cy="4" r="1" fill="srgba(102,153,255,1)"/>
  <circle cx="13" cy="4" r="1" fill="srgba(102,153,255,1)"/>
  <circle cx="14" cy="4" r="1" fill="srgba(40.0015%,59.9893%,100%,1)"/>
  <circle cx="15" cy="4" r="1" fill="srgba(39.9847%,60.1999%,99.5377%,1)"/>
  <circle cx="0" cy="5" r="1" fill="srgba(100%,99.6094%,99.6094%,1)"/>
  <circle cx="1" cy="5" r="1" fill="srgba(100%,99.678%,99.678%,1)"/>
  <circle cx="2" cy="5" r="1" fill="srgba(100%,99.5468%,99.5468%,1)"/>
  <circle cx="3" cy="5" r="1" fill="srgba(100%,99.5789%,99.5834%,1)"/>
  <circle cx="4" cy="5" r="1" fill="srgba(100%,99.8245%,99.6063%,1)"/>
  <circle cx="5" cy="5" r="1" fill="srgba(99.3866%,99.4461%,99.6078%,1)"/>
  <circle cx="6" cy="5" r="1" fill="srgba(84.5411%,89.4041%,99.7086%,1)"/>
  <circle cx="7" cy="5" r="1" fill="srgba(54.6715%,69.6849%,99.9039%,1)"/>
  <circle cx="8" cy="5" r="1" fill="srgba(39.9527%,59.968%,99.9969%,1)"/>
  <circle cx="9" cy="5" r="1" fill="srgba(39.6399%,59.762%,100%,1)"/>
  <circle cx="10" cy="5" r="1" fill="srgba(40.0092%,60.0061%,100%,1)"/>
  <circle cx="11" cy="5" r="1" fill="srgba(102,153,255,1)"/>
  <circle cx="12" cy="5" r="1" fill="srgba(102,153,255,1)"/>
  <circle cx="13" cy="5" r="1" fill="srgba(102,153,255,1)"/>
  <circle cx="14" cy="5" r="1" fill="srgba(40.0015%,59.9893%,100%,1)"/>
  <circle cx="15" cy="5" r="1" fill="srgba(39.9847%,60.1999%,99.5377%,1)"/>
  <circle cx="0" cy="6" r="1" fill="srgba(100%,99.5834%,99.5834%,1)"/>
  <circle cx="1" cy="6" r="1" fill="srgba(100%,98.262%,98.262%,1)"/>
  <circle cx="2" cy="6" r="1" fill="srgba(100%,79.4263%,79.4263%,1)"/>
  <circle cx="3" cy="6" r="1" fill="srgba(100%,92.3171%,92.3171%,1)"/>
  <circle cx="4" cy="6" r="1" fill="white"/>
  <circle cx="5" cy="6" r="1" fill="srgba(100%,99.6475%,99.6063%,1)"/>
  <circle cx="6" cy="6" r="1" fill="srgba(100%,100%,99.6033%,1)"/>
  <circle cx="7" cy="6" r="1" fill="srgba(94.9004%,96.3256%,99.6399%,1)"/>
  <circle cx="8" cy="6" r="1" fill="srgba(69.4469%,79.4339%,99.8077%,1)"/>
  <circle cx="9" cy="6" r="1" fill="srgba(44.3946%,62.9023%,99.9695%,1)"/>
  <circle cx="10" cy="6" r="1" fill="srgba(39.5544%,59.5102%,100%,1)"/>
  <circle cx="11" cy="6" r="1" fill="srgba(40.3281%,59.8413%,100%,1)"/>
  <circle cx="12" cy="6" r="1" fill="srgba(40.3204%,59.8398%,100%,1)"/>
  <circle cx="13" cy="6" r="1" fill="srgba(40.3204%,59.8398%,100%,1)"/>
  <circle cx="14" cy="6" r="1" fill="srgba(40.322%,59.8291%,100%,1)"/>
  <circle cx="15" cy="6" r="1" fill="srgba(40.2991%,60.0397%,99.5438%,1)"/>
  <circle cx="0" cy="7" r="1" fill="white"/>
  <circle cx="1" cy="7" r="1" fill="srgba(100%,78.3642%,78.3642%,1)"/>
  <circle cx="2" cy="7" r="1" fill="srgba(100%,21.3504%,21.3504%,1)"/>
  <circle cx="3" cy="7" r="1" fill="srgba(100%,59.4797%,59.4797%,1)"/>
  <circle cx="4" cy="7" r="1" fill="srgba(100%,99.9619%,99.9619%,1)"/>
  <circle cx="5" cy="7" r="1" fill="srgba(100%,99.6536%,99.6536%,1)"/>
  <circle cx="6" cy="7" r="1" fill="srgba(100%,99.6048%,99.6078%,1)"/>
  <circle cx="7" cy="7" r="1" fill="srgba(100%,99.823%,99.6002%,1)"/>
  <circle cx="8" cy="7" r="1" fill="srgba(99.498%,99.4553%,99.7009%,1)"/>
  <circle cx="9" cy="7" r="1" fill="srgba(85.42%,89.4697%,100%,1)"/>
  <circle cx="10" cy="7" r="1" fill="srgba(49.4377%,69.163%,93.3898%,1)"/>
  <circle cx="11" cy="7" r="1" fill="srgba(34.6014%,62.2583%,87.4601%,1)"/>
  <circle cx="12" cy="7" r="1" fill="srgba(35.0393%,62.4781%,87.5914%,1)"/>
  <circle cx="13" cy="7" r="1" fill="srgba(35.0408%,62.4796%,87.5929%,1)"/>
  <circle cx="14" cy="7" r="1" fill="srgba(35.0362%,62.4689%,87.6097%,1)"/>
  <circle cx="15" cy="7" r="1" fill="srgba(35.1186%,62.6734%,87.2801%,1)"/>
  <circle cx="0" cy="8" r="1" fill="white"/>
  <circle cx="1" cy="8" r="1" fill="srgba(100%,89.0425%,89.0425%,1)"/>
  <circle cx="2" cy="8" r="1" fill="srgba(100%,43.3082%,43.3082%,1)"/>
  <circle cx="3" cy="8" r="1" fill="srgba(100%,32.3873%,32.3873%,1)"/>
  <circle cx="4" cy="8" r="1" fill="srgba(100%,85.3696%,85.3696%,1)"/>
  <circle cx="5" cy="8" r="1" fill="white"/>
  <circle cx="6" cy="8" r="1" fill="srgba(100%,99.6048%,99.6124%,1)"/>
  <circle cx="7" cy="8" r="1" fill="srgba(100%,99.7513%,99.9847%,1)"/>
  <circle cx="8" cy="8" r="1" fill="srgba(98.5916%,99.5239%,98.3825%,1)"/>
  <circle cx="9" cy="8" r="1" fill="srgba(72.0958%,94.4472%,71.133%,1)"/>
  <circle cx="10" cy="8" r="1" fill="srgba(20.911%,82.5574%,24.1581%,1)"/>
  <circle cx="11" cy="8" r="1" fill="srgba(4.14435%,77.5097%,11.2566%,1)"/>
  <circle cx="12" cy="8" r="1" fill="srgba(4.69673%,77.6501%,11.7372%,1)"/>
  <circle cx="13" cy="8" r="1" fill="srgba(4.69825%,77.6516%,11.7388%,1)"/>
  <circle cx="14" cy="8" r="1" fill="srgba(4.66163%,77.6425%,11.7052%,1)"/>
  <circle cx="15" cy="8" r="1" fill="srgba(5.34829%,77.8042%,12.3369%,1)"/>
  <circle cx="0" cy="9" r="1" fill="srgba(100%,99.7406%,99.7406%,1)"/>
  <circle cx="1" cy="9" r="1" fill="srgba(100%,97.7234%,97.7234%,1)"/>
  <circle cx="2" cy="9" r="1" fill="srgba(100%,97.0413%,97.0413%,1)"/>
  <circle cx="3" cy="9" r="1" fill="srgba(100%,75.9152%,75.9152%,1)"/>
  <circle cx="4" cy="9" r="1" fill="srgba(100%,93.1868%,93.1838%,1)"/>
  <circle cx="5" cy="9" r="1" fill="srgba(100%,99.9496%,100%,1)"/>
  <circle cx="6" cy="9" r="1" fill="srgba(100%,99.8718%,100%,1)"/>
  <circle cx="7" cy="9" r="1" fill="srgba(90.0923%,97.7173%,89.8161%,1)"/>
  <circle cx="8" cy="9" r="1" fill="srgba(46.2242%,89.07%,46.0395%,1)"/>
  <circle cx="9" cy="9" r="1" fill="srgba(6.5095%,81.1978%,6.48356%,1)"/>
  <circle cx="10" cy="9" r="1" fill="srgba(0%,79.8703%,0%,1)"/>
  <circle cx="11" cy="9" r="1" fill="srgba(0%,80.1556%,0%,1)"/>
  <circle cx="12" cy="9" r="1" fill="srgba(0%,80.1526%,0%,1)"/>
  <circle cx="13" cy="9" r="1" fill="srgba(0%,80.1526%,0%,1)"/>
  <circle cx="14" cy="9" r="1" fill="srgba(0%,80.145%,0%,1)"/>
  <circle cx="15" cy="9" r="1" fill="srgba(0.738537%,80.2991%,0.732433%,1)"/>
  <circle cx="0" cy="10" r="1" fill="srgba(100%,99.6017%,99.6017%,1)"/>
  <circle cx="1" cy="10" r="1" fill="srgba(100%,99.6872%,99.6872%,1)"/>
  <circle cx="2" cy="10" r="1" fill="srgba(100%,99.7147%,99.7147%,1)"/>
  <circle cx="3" cy="10" r="1" fill="srgba(100%,93.4981%,93.5042%,1)"/>
  <circle cx="4" cy="10" r="1" fill="srgba(100%,98.6282%,98.8571%,1)"/>
  <circle cx="5" cy="10" r="1" fill="srgba(98.5397%,99.53%,98.4436%,1)"/>
  <circle cx="6" cy="10" r="1" fill="srgba(71.6625%,94.0505%,71.3817%,1)"/>
  <circle cx="7" cy="10" r="1" fill="srgba(22.1103%,84.3351%,22.0249%,1)"/>
  <circle cx="8" cy="10" r="1" fill="srgba(0.523384%,79.9161%,0.521859%,1)"/>
  <circle cx="9" cy="10" r="1" fill="srgba(0%,79.8978%,0%,1)"/>
  <circle cx="10" cy="10" r="1" fill="srgba(0%,80.0031%,0%,1)"/>
  <circle cx="11" cy="10" r="1" fill="srgba(0,204,0,1)"/>
  <circle cx="12" cy="10" r="1" fill="srgba(0,204,0,1)"/>
  <circle cx="13" cy="10" r="1" fill="srgba(0,204,0,1)"/>
  <circle cx="14" cy="10" r="1" fill="srgba(0%,79.9924%,0%,1)"/>
  <circle cx="15" cy="10" r="1" fill="srgba(0.738537%,80.1465%,0.738537%,1)"/>
  <circle cx="0" cy="11" r="1" fill="srgba(255,254,254,1)"/>
  <circle cx="1" cy="11" r="1" fill="srgba(100%,99.6063%,99.6033%,1)"/>
  <circle cx="2" cy="11" r="1" fill="srgba(100%,99.6353%,99.7024%,1)"/>
  <circle cx="3" cy="11" r="1" fill="srgba(100%,99.8901%,100%,1)"/>
  <circle cx="4" cy="11" r="1" fill="srgba(90.1732%,97.731%,89.8955%,1)"/>
  <circle cx="5" cy="11" r="1" fill="srgba(46.3615%,89.0898%,46.1738%,1)"/>
  <circle cx="6" cy="11" r="1" fill="srgba(6.54459%,81.2055%,6.52018%,1)"/>
  <circle cx="7" cy="11" r="1" fill="srgba(0%,79.7498%,0%,1)"/>
  <circle cx="8" cy="11" r="1" fill="srgba(0%,79.9878%,0%,1)"/>
  <circle cx="9" cy="11" r="1" fill="srgba(0%,80.0015%,0%,1)"/>
  <circle cx="10" cy="11" r="1" fill="srgba(0,204,0,1)"/>
  <circle cx="11" cy="11" r="1" fill="srgba(0,204,0,1)"/>
  <circle cx="12" cy="11" r="1" fill="srgba(0,204,0,1)"/>
  <circle cx="13" cy="11" r="1" fill="srgba(0,204,0,1)"/>
  <circle cx="14" cy="11" r="1" fill="srgba(0%,79.9924%,0%,1)"/>
  <circle cx="15" cy="11" r="1" fill="srgba(0.738537%,80.1465%,0.738537%,1)"/>
  <circle cx="0" cy="12" r="1" fill="srgba(100%,99.6048%,99.6124%,1)"/>
  <circle cx="1" cy="12" r="1" fill="srgba(100%,99.7513%,99.9786%,1)"/>
  <circle cx="2" cy="12" r="1" fill="srgba(98.5595%,99.4873%,98.4161%,1)"/>
  <circle cx="3" cy="12" r="1" fill="srgba(71.7967%,94.0749%,71.5129%,1)"/>
  <circle cx="4" cy="12" r="1" fill="srgba(22.2324%,84.3534%,22.1439%,1)"/>
  <circle cx="5" cy="12" r="1" fill="srgba(0.538643%,79.9176%,0.535592%,1)"/>
  <circle cx="6" cy="12" r="1" fill="srgba(0%,79.8978%,0%,1)"/>
  <circle cx="7" cy="12" r="1" fill="srgba(0%,80.0031%,0%,1)"/>
  <circle cx="8" cy="12" r="1" fill="srgba(0,204,0,1)"/>
  <circle cx="9" cy="12" r="1" fill="srgba(0,204,0,1)"/>
  <circle cx="10" cy="12" r="1" fill="srgba(0,204,0,1)"/>
  <circle cx="11" cy="12" r="1" fill="srgba(0,204,0,1)"/>
  <circle cx="12" cy="12" r="1" fill="srgba(0,204,0,1)"/>
  <circle cx="13" cy="12" r="1" fill="srgba(0,204,0,1)"/>
  <circle cx="14" cy="12" r="1" fill="srgba(0%,79.9924%,0%,1)"/>
  <circle cx="15" cy="12" r="1" fill="srgba(0.738537%,80.1465%,0.738537%,1)"/>
  <circle cx="0" cy="13" r="1" fill="srgba(100%,99.9023%,100%,1)"/>
  <circle cx="1" cy="13" r="1" fill="srgba(90.3227%,97.7615%,90.0465%,1)"/>
  <circle cx="2" cy="13" r="1" fill="srgba(46.4561%,89.1112%,46.2684%,1)"/>
  <circle cx="3" cy="13" r="1" fill="srgba(6.598%,81.2161%,6.57206%,1)"/>
  <circle cx="4" cy="13" r="1" fill="srgba(0%,79.7498%,0%,1)"/>
  <circle cx="5" cy="13" r="1" fill="srgba(0%,79.9878%,0%,1)"/>
  <circle cx="6" cy="13" r="1" fill="srgba(0%,80.0015%,0%,1)"/>
  <circle cx="7" cy="13" r="1" fill="srgba(0,204,0,1)"/>
  <circle cx="8" cy="13" r="1" fill="srgba(0,204,0,1)"/>
  <circle cx="9" cy="13" r="1" fill="srgba(0,204,0,1)"/>
  <circle cx="10" cy="13" r="1" fill="srgba(0,204,0,1)"/>
  <circle cx="11" cy="13" r="1" fill="srgba(0,204,0,1)"/>
  <circle cx="12" cy="13" r="1" fill="srgba(0,204,0,1)"/>
  <circle cx="13" cy="13" r="1" fill="srgba(0,204,0,1)"/>
  <circle cx="14" cy="13" r="1" fill="srgba(0%,79.9924%,0%,1)"/>
  <circle cx="15" cy="13" r="1" fill="srgba(0.738537%,80.1465%,0.738537%,1)"/>
  <circle cx="0" cy="14" r="1" fill="srgba(67.9591%,93.3257%,67.6921%,1)"/>
  <circle cx="1" cy="14" r="1" fill="srgba(22.7115%,84.4495%,22.6215%,1)"/>
  <circle cx="2" cy="14" r="1" fill="srgba(0.537118%,79.913%,0.535592%,1)"/>
  <circle cx="3" cy="14" r="1" fill="srgba(0%,79.8886%,0%,1)"/>
  <circle cx="4" cy="14" r="1" fill="srgba(0%,79.9939%,0%,1)"/>
  <circle cx="5" cy="14" r="1" fill="srgba(0%,79.9908%,0%,1)"/>
  <circle cx="6" cy="14" r="1" fill="srgba(0%,79.9908%,0%,1)"/>
  <circle cx="7" cy="14" r="1" fill="srgba(0%,79.9908%,0%,1)"/>
  <circle cx="8" cy="14" r="1" fill="srgba(0%,79.9908%,0%,1)"/>
  <circle cx="9" cy="14" r="1" fill="srgba(0%,79.9908%,0%,1)"/>
  <circle cx="10" cy="14" r="1" fill="srgba(0%,79.9908%,0%,1)"/>
  <circle cx="11" cy="14" r="1" fill="srgba(0%,79.9908%,0%,1)"/>
  <circle cx="12" cy="14" r="1" fill="srgba(0%,79.9908%,0%,1)"/>
  <circle cx="13" cy="14" r="1" fill="srgba(0%,79.9908%,0%,1)"/>
  <circle cx="14" cy="14" r="1" fill="srgba(0%,79.9832%,0%,1)"/>
  <circle cx="15" cy="14" r="1" fill="srgba(0.738537%,80.1373%,0.738537%,1)"/>
  <circle cx="0" cy="15" r="1" fill="srgba(5.67941%,81.0651%,5.65805%,1)"/>
  <circle cx="1" cy="15" r="1" fill="srgba(0.0671397%,79.9161%,0.0671397%,1)"/>
  <circle cx="2" cy="15" r="1" fill="srgba(0.706493%,80.1404%,0.706493%,1)"/>
  <circle cx="3" cy="15" r="1" fill="srgba(0.788891%,80.1556%,0.788891%,1)"/>
  <circle cx="4" cy="15" r="1" fill="srgba(0.784314%,80.1541%,0.784314%,1)"/>
  <circle cx="5" cy="15" r="1" fill="srgba(0.784314%,80.1541%,0.784314%,1)"/>
  <circle cx="6" cy="15" r="1" fill="srgba(0.784314%,80.1541%,0.784314%,1)"/>
  <circle cx="7" cy="15" r="1" fill="srgba(0.784314%,80.1541%,0.784314%,1)"/>
  <circle cx="8" cy="15" r="1" fill="srgba(0.784314%,80.1541%,0.784314%,1)"/>
  <circle cx="9" cy="15" r="1" fill="srgba(0.784314%,80.1541%,0.784314%,1)"/>
  <circle cx="10" cy="15" r="1" fill="srgba(0.784314%,80.1541%,0.784314%,1)"/>
  <circle cx="11" cy="15" r="1" fill="srgba(0.784314%,80.1541%,0.784314%,1)"/>
  <circle cx="12" cy="15" r="1" fill="srgba(0.784314%,80.1541%,0.784314%,1)"/>
  <circle cx="13" cy="15" r="1" fill="srgba(0.784314%,80.1541%,0.784314%,1)"/>
  <circle cx="14" cy="15" r="1" fill="srgba(0.743114%,80.1465%,0.743114%,1)"/>
  <circle cx="15" cy="15" r="1" fill="srgba(1.51675%,80.2991%,1.51675%,1)"/>
</svg>
