<?xml version="1.0" standalone="no"?>
<!DOCTYPE svg PUBLIC "-//W3C//DTD SVG 20010904//EN"
  "http://www.w3.org/TR/2001/REC-SVG-20010904/DTD/svg10.dtd">
<svg width="16" height="16">
  <circle cx="0" cy="0" r="1" fill="srgba(198,12,48,1)"/>
  <circle cx="1" cy="0" r="1" fill="srgba(198,12,48,1)"/>
  <circle cx="2" cy="0" r="1" fill="srgba(198,12,48,1)"/>
  <circle cx="3" cy="0" r="1" fill="srgba(77.3358%,3.37987%,17.6944%,1)"/>
  <circle cx="4" cy="0" r="1" fill="srgba(88.8228%,52.3522%,59.411%,1)"/>
  <circle cx="5" cy="0" r="1" fill="white"/>
  <circle cx="6" cy="0" r="1" fill="srgba(94.1939%,75.259%,78.9258%,1)"/>
  <circle cx="7" cy="0" r="1" fill="srgba(78.3642%,7.76837%,21.4328%,1)"/>
  <circle cx="8" cy="0" r="1" fill="srgba(77.6043%,4.51972%,18.6648%,1)"/>
  <circle cx="9" cy="0" r="1" fill="srgba(198,12,48,1)"/>
  <circle cx="10" cy="0" r="1" fill="srgba(198,12,48,1)"/>
  <circle cx="11" cy="0" r="1" fill="srgba(198,12,48,1)"/>
  <circle cx="12" cy="0" r="1" fill="srgba(198,12,48,1)"/>
  <circle cx="13" cy="0" r="1" fill="srgba(198,12,48,1)"/>
  <circle cx="14" cy="0" r="1" fill="srgba(198,12,48,1)"/>
  <circle cx="15" cy="0" r="1" fill="srgba(198,12,48,1)"/>
  <circle cx="0" cy="1" r="1" fill="srgba(198,12,48,1)"/>
  <circle cx="1" cy="1" r="1" fill="srgba(198,12,48,1)"/>
  <circle cx="2" cy="1" r="1" fill="srgba(198,12,48,1)"/>
  <circle cx="3" cy="1" r="1" fill="srgba(77.3358%,3.37987%,17.6944%,1)"/>
  <circle cx="4" cy="1" r="1" fill="srgba(88.8228%,52.3522%,59.411%,1)"/>
  <circle cx="5" cy="1" r="1" fill="white"/>
  <circle cx="6" cy="1" r="1" fill="srgba(94.1939%,75.259%,78.9258%,1)"/>
  <circle cx="7" cy="1" r="1" fill="srgba(78.3642%,7.76837%,21.4328%,1)"/>
  <circle cx="8" cy="1" r="1" fill="srgba(77.6043%,4.51972%,18.6648%,1)"/>
  <circle cx="9" cy="1" r="1" fill="srgba(198,12,48,1)"/>
  <circle cx="10" cy="1" r="1" fill="srgba(198,12,48,1)"/>
  <circle cx="11" cy="1" r="1" fill="srgba(198,12,48,1)"/>
  <circle cx="12" cy="1" r="1" fill="srgba(198,12,48,1)"/>
  <circle cx="13" cy="1" r="1" fill="srgba(198,12,48,1)"/>
  <circle cx="14" cy="1" r="1" fill="srgba(198,12,48,1)"/>
  <circle cx="15" cy="1" r="1" fill="srgba(198,12,48,1)"/>
  <circle cx="0" cy="2" r="1" fill="srgba(198,12,48,1)"/>
  <circle cx="1" cy="2" r="1" fill="srgba(198,12,48,1)"/>
  <circle cx="2" cy="2" r="1" fill="srgba(198,12,48,1)"/>
  <circle cx="3" cy="2" r="1" fill="srgba(77.3358%,3.37987%,17.6944%,1)"/>
  <circle cx="4" cy="2" r="1" fill="srgba(88.8228%,52.3522%,59.411%,1)"/>
  <circle cx="5" cy="2" r="1" fill="white"/>
  <circle cx="6" cy="2" r="1" fill="srgba(94.1939%,75.259%,78.9258%,1)"/>
  <circle cx="7" cy="2" r="1" fill="srgba(78.3642%,7.76837%,21.4328%,1)"/>
  <circle cx="8" cy="2" r="1" fill="srgba(77.6043%,4.51972%,18.6648%,1)"/>
  <circle cx="9" cy="2" r="1" fill="srgba(198,12,48,1)"/>
  <circle cx="10" cy="2" r="1" fill="srgba(198,12,48,1)"/>
  <circle cx="11" cy="2" r="1" fill="srgba(198,12,48,1)"/>
  <circle cx="12" cy="2" r="1" fill="srgba(198,12,48,1)"/>
  <circle cx="13" cy="2" r="1" fill="srgba(198,12,48,1)"/>
  <circle cx="14" cy="2" r="1" fill="srgba(198,12,48,1)"/>
  <circle cx="15" cy="2" r="1" fill="srgba(198,12,48,1)"/>
  <circle cx="0" cy="3" r="1" fill="srgba(198,12,48,1)"/>
  <circle cx="1" cy="3" r="1" fill="srgba(198,12,48,1)"/>
  <circle cx="2" cy="3" r="1" fill="srgba(198,12,48,1)"/>
  <circle cx="3" cy="3" r="1" fill="srgba(77.3358%,3.37987%,17.6944%,1)"/>
  <circle cx="4" cy="3" r="1" fill="srgba(88.8228%,52.3522%,59.411%,1)"/>
  <circle cx="5" cy="3" r="1" fill="white"/>
  <circle cx="6" cy="3" r="1" fill="srgba(94.1939%,75.259%,78.9258%,1)"/>
  <circle cx="7" cy="3" r="1" fill="srgba(78.3642%,7.76837%,21.4328%,1)"/>
  <circle cx="8" cy="3" r="1" fill="srgba(77.6043%,4.51972%,18.6648%,1)"/>
  <circle cx="9" cy="3" r="1" fill="srgba(198,12,48,1)"/>
  <circle cx="10" cy="3" r="1" fill="srgba(198,12,48,1)"/>
  <circle cx="11" cy="3" r="1" fill="srgba(198,12,48,1)"/>
  <circle cx="12" cy="3" r="1" fill="srgba(198,12,48,1)"/>
  <circle cx="13" cy="3" r="1" fill="srgba(198,12,48,1)"/>
  <circle cx="14" cy="3" r="1" fill="srgba(198,12,48,1)"/>
  <circle cx="15" cy="3" r="1" fill="srgba(198,12,48,1)"/>
  <circle cx="0" cy="4" r="1" fill="srgba(198,12,48,1)"/>
  <circle cx="1" cy="4" r="1" fill="srgba(198,12,48,1)"/>
  <circle cx="2" cy="4" r="1" fill="srgba(198,12,48,1)"/>
  <circle cx="3" cy="4" r="1" fill="srgba(77.3358%,3.37987%,17.6944%,1)"/>
  <circle cx="4" cy="4" r="1" fill="srgba(88.8228%,52.3522%,59.411%,1)"/>
  <circle cx="5" cy="4" r="1" fill="white"/>
  <circle cx="6" cy="4" r="1" fill="srgba(94.1939%,75.259%,78.9258%,1)"/>
  <circle cx="7" cy="4" r="1" fill="srgba(78.3642%,7.76837%,21.4328%,1)"/>
  <circle cx="8" cy="4" r="1" fill="srgba(77.6043%,4.51972%,18.6648%,1)"/>
  <circle cx="9" cy="4" r="1" fill="srgba(198,12,48,1)"/>
  <circle cx="10" cy="4" r="1" fill="srgba(198,12,48,1)"/>
  <circle cx="11" cy="4" r="1" fill="srgba(198,12,48,1)"/>
  <circle cx="12" cy="4" r="1" fill="srgba(198,12,48,1)"/>
  <circle cx="13" cy="4" r="1" fill="srgba(198,12,48,1)"/>
  <circle cx="14" cy="4" r="1" fill="srgba(198,12,48,1)"/>
  <circle cx="15" cy="4" r="1" fill="srgba(198,12,48,1)"/>
  <circle cx="0" cy="5" r="1" fill="srgba(77.3587%,3.47601%,17.7752%,1)"/>
  <circle cx="1" cy="5" r="1" fill="srgba(77.3587%,3.47601%,17.7752%,1)"/>
  <circle cx="2" cy="5" r="1" fill="srgba(77.3587%,3.47601%,17.7752%,1)"/>
  <circle cx="3" cy="5" r="1" fill="srgba(77.0443%,2.13321%,16.6308%,1)"/>
  <circle cx="4" cy="5" r="1" fill="srgba(88.6793%,51.7372%,58.8876%,1)"/>
  <circle cx="5" cy="5" r="1" fill="white"/>
  <circle cx="6" cy="5" r="1" fill="srgba(94.1192%,74.9401%,78.6542%,1)"/>
  <circle cx="7" cy="5" r="1" fill="srgba(78.085%,6.57816%,20.4196%,1)"/>
  <circle cx="8" cy="5" r="1" fill="srgba(77.3144%,3.28832%,17.615%,1)"/>
  <circle cx="9" cy="5" r="1" fill="srgba(77.3587%,3.47601%,17.7752%,1)"/>
  <circle cx="10" cy="5" r="1" fill="srgba(77.3587%,3.47601%,17.7752%,1)"/>
  <circle cx="11" cy="5" r="1" fill="srgba(77.3587%,3.47601%,17.7752%,1)"/>
  <circle cx="12" cy="5" r="1" fill="srgba(77.3587%,3.47601%,17.7752%,1)"/>
  <circle cx="13" cy="5" r="1" fill="srgba(77.3587%,3.47601%,17.7752%,1)"/>
  <circle cx="14" cy="5" r="1" fill="srgba(77.3587%,3.47601%,17.7752%,1)"/>
  <circle cx="15" cy="5" r="1" fill="srgba(77.3587%,3.47601%,17.7752%,1)"/>
  <circle cx="0" cy="6" r="1" fill="srgba(82.3056%,24.5518%,35.7336%,1)"/>
  <circle cx="1" cy="6" r="1" fill="srgba(82.3056%,24.5518%,35.7336%,1)"/>
  <circle cx="2" cy="6" r="1" fill="srgba(82.3056%,24.5518%,35.7336%,1)"/>
  <circle cx="3" cy="6" r="1" fill="srgba(82.06%,23.5019%,34.8394%,1)"/>
  <circle cx="4" cy="6" r="1" fill="srgba(91.1528%,62.2751%,67.866%,1)"/>
  <circle cx="5" cy="6" r="1" fill="white"/>
  <circle cx="6" cy="6" r="1" fill="srgba(95.404%,80.412%,83.3158%,1)"/>
  <circle cx="7" cy="6" r="1" fill="srgba(82.8733%,26.9764%,37.7996%,1)"/>
  <circle cx="8" cy="6" r="1" fill="srgba(82.2705%,24.4053%,35.6085%,1)"/>
  <circle cx="9" cy="6" r="1" fill="srgba(82.3056%,24.5518%,35.7336%,1)"/>
  <circle cx="10" cy="6" r="1" fill="srgba(82.3056%,24.5518%,35.7336%,1)"/>
  <circle cx="11" cy="6" r="1" fill="srgba(82.3056%,24.5518%,35.7336%,1)"/>
  <circle cx="12" cy="6" r="1" fill="srgba(82.3056%,24.5518%,35.7336%,1)"/>
  <circle cx="13" cy="6" r="1" fill="srgba(82.3056%,24.5518%,35.7336%,1)"/>
  <circle cx="14" cy="6" r="1" fill="srgba(82.3056%,24.5518%,35.7336%,1)"/>
  <circle cx="15" cy="6" r="1" fill="srgba(82.3056%,24.5518%,35.7336%,1)"/>
  <circle cx="0" cy="7" r="1" fill="srgba(98.8296%,94.9996%,95.7427%,1)"/>
  <circle cx="1" cy="7" r="1" fill="srgba(98.8296%,94.9996%,95.7427%,1)"/>
  <circle cx="2" cy="7" r="1" fill="srgba(98.8296%,94.9996%,95.7427%,1)"/>
  <circle cx="3" cy="7" r="1" fill="srgba(98.8128%,94.9294%,95.6832%,1)"/>
  <circle cx="4" cy="7" r="1" fill="srgba(99.4141%,97.499%,97.8714%,1)"/>
  <circle cx="5" cy="7" r="1" fill="white"/>
  <circle cx="6" cy="7" r="1" fill="srgba(99.6963%,98.7015%,98.8952%,1)"/>
  <circle cx="7" cy="7" r="1" fill="srgba(98.8678%,95.1598%,95.8801%,1)"/>
  <circle cx="8" cy="7" r="1" fill="srgba(98.8281%,94.9905%,95.7351%,1)"/>
  <circle cx="9" cy="7" r="1" fill="srgba(98.8296%,94.9996%,95.7427%,1)"/>
  <circle cx="10" cy="7" r="1" fill="srgba(98.8296%,94.9996%,95.7427%,1)"/>
  <circle cx="11" cy="7" r="1" fill="srgba(98.8296%,94.9996%,95.7427%,1)"/>
  <circle cx="12" cy="7" r="1" fill="srgba(98.8296%,94.9996%,95.7427%,1)"/>
  <circle cx="13" cy="7" r="1" fill="srgba(98.8296%,94.9996%,95.7427%,1)"/>
  <circle cx="14" cy="7" r="1" fill="srgba(98.8296%,94.9996%,95.7427%,1)"/>
  <circle cx="15" cy="7" r="1" fill="srgba(98.8296%,94.9996%,95.7427%,1)"/>
  <circle cx="0" cy="8" r="1" fill="srgba(98.8296%,94.9996%,95.7427%,1)"/>
  <circle cx="1" cy="8" r="1" fill="srgba(98.8296%,94.9996%,95.7427%,1)"/>
  <circle cx="2" cy="8" r="1" fill="srgba(98.8296%,94.9996%,95.7427%,1)"/>
  <circle cx="3" cy="8" r="1" fill="srgba(98.8128%,94.9294%,95.6832%,1)"/>
  <circle cx="4" cy="8" r="1" fill="srgba(99.4141%,97.499%,97.8714%,1)"/>
  <circle cx="5" cy="8" r="1" fill="white"/>
  <circle cx="6" cy="8" r="1" fill="srgba(99.6963%,98.7015%,98.8952%,1)"/>
  <circle cx="7" cy="8" r="1" fill="srgba(98.8678%,95.1598%,95.8801%,1)"/>
  <circle cx="8" cy="8" r="1" fill="srgba(98.8281%,94.9905%,95.7351%,1)"/>
  <circle cx="9" cy="8" r="1" fill="srgba(98.8296%,94.9996%,95.7427%,1)"/>
  <circle cx="10" cy="8" r="1" fill="srgba(98.8296%,94.9996%,95.7427%,1)"/>
  <circle cx="11" cy="8" r="1" fill="srgba(98.8296%,94.9996%,95.7427%,1)"/>
  <circle cx="12" cy="8" r="1" fill="srgba(98.8296%,94.9996%,95.7427%,1)"/>
  <circle cx="13" cy="8" r="1" fill="srgba(98.8296%,94.9996%,95.7427%,1)"/>
  <circle cx="14" cy="8" r="1" fill="srgba(98.8296%,94.9996%,95.7427%,1)"/>
  <circle cx="15" cy="8" r="1" fill="srgba(98.8296%,94.9996%,95.7427%,1)"/>
  <circle cx="0" cy="9" r="1" fill="srgba(82.3056%,24.5518%,35.7336%,1)"/>
  <circle cx="1" cy="9" r="1" fill="srgba(82.3056%,24.5518%,35.7336%,1)"/>
  <circle cx="2" cy="9" r="1" fill="srgba(82.3056%,24.5518%,35.7336%,1)"/>
  <circle cx="3" cy="9" r="1" fill="srgba(82.06%,23.5019%,34.8394%,1)"/>
  <circle cx="4" cy="9" r="1" fill="srgba(91.1528%,62.2751%,67.866%,1)"/>
  <circle cx="5" cy="9" r="1" fill="white"/>
  <circle cx="6" cy="9" r="1" fill="srgba(95.404%,80.412%,83.3158%,1)"/>
  <circle cx="7" cy="9" r="1" fill="srgba(82.8733%,26.9764%,37.7996%,1)"/>
  <circle cx="8" cy="9" r="1" fill="srgba(82.2705%,24.4053%,35.6085%,1)"/>
  <circle cx="9" cy="9" r="1" fill="srgba(82.3056%,24.5518%,35.7336%,1)"/>
  <circle cx="10" cy="9" r="1" fill="srgba(82.3056%,24.5518%,35.7336%,1)"/>
  <circle cx="11" cy="9" r="1" fill="srgba(82.3056%,24.5518%,35.7336%,1)"/>
  <circle cx="12" cy="9" r="1" fill="srgba(82.3056%,24.5518%,35.7336%,1)"/>
  <circle cx="13" cy="9" r="1" fill="srgba(82.3056%,24.5518%,35.7336%,1)"/>
  <circle cx="14" cy="9" r="1" fill="srgba(82.3056%,24.5518%,35.7336%,1)"/>
  <circle cx="15" cy="9" r="1" fill="srgba(82.3056%,24.5518%,35.7336%,1)"/>
  <circle cx="0" cy="10" r="1" fill="srgba(77.3587%,3.47601%,17.7752%,1)"/>
  <circle cx="1" cy="10" r="1" fill="srgba(77.3587%,3.47601%,17.7752%,1)"/>
  <circle cx="2" cy="10" r="1" fill="srgba(77.3587%,3.47601%,17.7752%,1)"/>
  <circle cx="3" cy="10" r="1" fill="srgba(77.0443%,2.13321%,16.6308%,1)"/>
  <circle cx="4" cy="10" r="1" fill="srgba(88.6793%,51.7372%,58.8876%,1)"/>
  <circle cx="5" cy="10" r="1" fill="white"/>
  <circle cx="6" cy="10" r="1" fill="srgba(94.1192%,74.9401%,78.6542%,1)"/>
  <circle cx="7" cy="10" r="1" fill="srgba(78.085%,6.57816%,20.4196%,1)"/>
  <circle cx="8" cy="10" r="1" fill="srgba(77.3144%,3.28832%,17.615%,1)"/>
  <circle cx="9" cy="10" r="1" fill="srgba(77.3587%,3.47601%,17.7752%,1)"/>
  <circle cx="10" cy="10" r="1" fill="srgba(77.3587%,3.47601%,17.7752%,1)"/>
  <circle cx="11" cy="10" r="1" fill="srgba(77.3587%,3.47601%,17.7752%,1)"/>
  <circle cx="12" cy="10" r="1" fill="srgba(77.3587%,3.47601%,17.7752%,1)"/>
  <circle cx="13" cy="10" r="1" fill="srgba(77.3587%,3.47601%,17.7752%,1)"/>
  <circle cx="14" cy="10" r="1" fill="srgba(77.3587%,3.47601%,17.7752%,1)"/>
  <circle cx="15" cy="10" r="1" fill="srgba(77.3587%,3.47601%,17.7752%,1)"/>
  <circle cx="0" cy="11" r="1" fill="srgba(198,12,48,1)"/>
  <circle cx="1" cy="11" r="1" fill="srgba(198,12,48,1)"/>
  <circle cx="2" cy="11" r="1" fill="srgba(198,12,48,1)"/>
  <circle cx="3" cy="11" r="1" fill="srgba(77.3358%,3.37987%,17.6944%,1)"/>
  <circle cx="4" cy="11" r="1" fill="srgba(88.8228%,52.3522%,59.411%,1)"/>
  <circle cx="5" cy="11" r="1" fill="white"/>
  <circle cx="6" cy="11" r="1" fill="srgba(94.1939%,75.259%,78.9258%,1)"/>
  <circle cx="7" cy="11" r="1" fill="srgba(78.3642%,7.76837%,21.4328%,1)"/>
  <circle cx="8" cy="11" r="1" fill="srgba(77.6043%,4.51972%,18.6648%,1)"/>
  <circle cx="9" cy="11" r="1" fill="srgba(198,12,48,1)"/>
  <circle cx="10" cy="11" r="1" fill="srgba(198,12,48,1)"/>
  <circle cx="11" cy="11" r="1" fill="srgba(198,12,48,1)"/>
  <circle cx="12" cy="11" r="1" fill="srgba(198,12,48,1)"/>
  <circle cx="13" cy="11" r="1" fill="srgba(198,12,48,1)"/>
  <circle cx="14" cy="11" r="1" fill="srgba(198,12,48,1)"/>
  <circle cx="15" cy="11" r="1" fill="srgba(198,12,48,1)"/>
  <circle cx="0" cy="12" r="1" fill="srgba(198,12,48,1)"/>
  <circle cx="1" cy="12" r="1" fill="srgba(198,12,48,1)"/>
  <circle cx="2" cy="12" r="1" fill="srgba(198,12,48,1)"/>
  <circle cx="3" cy="12" r="1" fill="srgba(77.3358%,3.37987%,17.6944%,1)"/>
  <circle cx="4" cy="12" r="1" fill="srgba(88.8228%,52.3522%,59.411%,1)"/>
  <circle cx="5" cy="12" r="1" fill="white"/>
  <circle cx="6" cy="12" r="1" fill="srgba(94.1939%,75.259%,78.9258%,1)"/>
  <circle cx="7" cy="12" r="1" fill="srgba(78.3642%,7.76837%,21.4328%,1)"/>
  <circle cx="8" cy="12" r="1" fill="srgba(77.6043%,4.51972%,18.6648%,1)"/>
  <circle cx="9" cy="12" r="1" fill="srgba(198,12,48,1)"/>
  <circle cx="10" cy="12" r="1" fill="srgba(198,12,48,1)"/>
  <circle cx="11" cy="12" r="1" fill="srgba(198,12,48,1)"/>
  <circle cx="12" cy="12" r="1" fill="srgba(198,12,48,1)"/>
  <circle cx="13" cy="12" r="1" fill="srgba(198,12,48,1)"/>
  <circle cx="14" cy="12" r="1" fill="srgba(198,12,48,1)"/>
  <circle cx="15" cy="12" r="1" fill="srgba(198,12,48,1)"/>
  <circle cx="0" cy="13" r="1" fill="srgba(198,12,48,1)"/>
  <circle cx="1" cy="13" r="1" fill="srgba(198,12,48,1)"/>
  <circle cx="2" cy="13" r="1" fill="srgba(198,12,48,1)"/>
  <circle cx="3" cy="13" r="1" fill="srgba(77.3358%,3.37987%,17.6944%,1)"/>
  <circle cx="4" cy="13" r="1" fill="srgba(88.8228%,52.3522%,59.411%,1)"/>
  <circle cx="5" cy="13" r="1" fill="white"/>
  <circle cx="6" cy="13" r="1" fill="srgba(94.1939%,75.259%,78.9258%,1)"/>
  <circle cx="7" cy="13" r="1" fill="srgba(78.3642%,7.76837%,21.4328%,1)"/>
  <circle cx="8" cy="13" r="1" fill="srgba(77.6043%,4.51972%,18.6648%,1)"/>
  <circle cx="9" cy="13" r="1" fill="srgba(198,12,48,1)"/>
  <circle cx="10" cy="13" r="1" fill="srgba(198,12,48,1)"/>
  <circle cx="11" cy="13" r="1" fill="srgba(198,12,48,1)"/>
  <circle cx="12" cy="13" r="1" fill="srgba(198,12,48,1)"/>
  <circle cx="13" cy="13" r="1" fill="srgba(198,12,48,1)"/>
  <circle cx="14" cy="13" r="1" fill="srgba(198,12,48,1)"/>
  <circle cx="15" cy="13" r="1" fill="srgba(198,12,48,1)"/>
  <circle cx="0" cy="14" r="1" fill="srgba(198,12,48,1)"/>
  <circle cx="1" cy="14" r="1" fill="srgba(198,12,48,1)"/>
  <circle cx="2" cy="14" r="1" fill="srgba(198,12,48,1)"/>
  <circle cx="3" cy="14" r="1" fill="srgba(77.3358%,3.37987%,17.6944%,1)"/>
  <circle cx="4" cy="14" r="1" fill="srgba(88.8228%,52.3522%,59.411%,1)"/>
  <circle cx="5" cy="14" r="1" fill="white"/>
  <circle cx="6" cy="14" r="1" fill="srgba(94.1939%,75.259%,78.9258%,1)"/>
  <circle cx="7" cy="14" r="1" fill="srgba(78.3642%,7.76837%,21.4328%,1)"/>
  <circle cx="8" cy="14" r="1" fill="srgba(77.6043%,4.51972%,18.6648%,1)"/>
  <circle cx="9" cy="14" r="1" fill="srgba(198,12,48,1)"/>
  <circle cx="10" cy="14" r="1" fill="srgba(198,12,48,1)"/>
  <circle cx="11" cy="14" r="1" fill="srgba(198,12,48,1)"/>
  <circle cx="12" cy="14" r="1" fill="srgba(198,12,48,1)"/>
  <circle cx="13" cy="14" r="1" fill="srgba(198,12,48,1)"/>
  <circle cx="14" cy="14" r="1" fill="srgba(198,12,48,1)"/>
  <circle cx="15" cy="14" r="1" fill="srgba(198,12,48,1)"/>
  <circle cx="0" cy="15" r="1" fill="srgba(198,12,48,1)"/>
  <circle cx="1" cy="15" r="1" fill="srgba(198,12,48,1)"/>
  <circle cx="2" cy="15" r="1" fill="srgba(198,12,48,1)"/>
  <circle cx="3" cy="15" r="1" fill="srgba(77.3358%,3.37987%,17.6944%,1)"/>
  <circle cx="4" cy="15" r="1" fill="srgba(88.8228%,52.3522%,59.411%,1)"/>
  <circle cx="5" cy="15" r="1" fill="white"/>
  <circle cx="6" cy="15" r="1" fill="srgba(94.1939%,75.259%,78.9258%,1)"/>
  <circle cx="7" cy="15" r="1" fill="srgba(78.3642%,7.76837%,21.4328%,1)"/>
  <circle cx="8" cy="15" r="1" fill="srgba(77.6043%,4.51972%,18.6648%,1)"/>
  <circle cx="9" cy="15" r="1" fill="srgba(198,12,48,1)"/>
  <circle cx="10" cy="15" r="1" fill="srgba(198,12,48,1)"/>
  <circle cx="11" cy="15" r="1" fill="srgba(198,12,48,1)"/>
  <circle cx="12" cy="15" r="1" fill="srgba(198,12,48,1)"/>
  <circle cx="13" cy="15" r="1" fill="srgba(198,12,48,1)"/>
  <circle cx="14" cy="15" r="1" fill="srgba(198,12,48,1)"/>
  <circle cx="15" cy="15" r="1" fill="srgba(198,12,48,1)"/>
</svg>
