<?xml version="1.0" standalone="no"?>
<!DOCTYPE svg PUBLIC "-//W3C//DTD SVG 20010904//EN"
  "http://www.w3.org/TR/2001/REC-SVG-20010904/DTD/svg10.dtd">
<svg width="16" height="16">
  <circle cx="0" cy="0" r="1" fill="srgba(16,140,0,1)"/>
  <circle cx="1" cy="0" r="1" fill="srgba(16,140,0,1)"/>
  <circle cx="2" cy="0" r="1" fill="srgba(16,140,0,1)"/>
  <circle cx="3" cy="0" r="1" fill="srgba(16,140,0,1)"/>
  <circle cx="4" cy="0" r="1" fill="srgba(4.63874%,54.3954%,0%,1)"/>
  <circle cx="5" cy="0" r="1" fill="srgba(40.5676%,65.7343%,0%,1)"/>
  <circle cx="6" cy="0" r="1" fill="srgba(93.1701%,78.3383%,0%,1)"/>
  <circle cx="7" cy="0" r="1" fill="srgba(17.4426%,14.3389%,0%,1)"/>
  <circle cx="8" cy="0" r="1" fill="srgba(37.583%,37.8302%,38.7778%,1)"/>
  <circle cx="9" cy="0" r="1" fill="srgba(94.9691%,97.6776%,94.6151%,1)"/>
  <circle cx="10" cy="0" r="1" fill="srgba(25.9861%,64.3931%,21.0254%,1)"/>
  <circle cx="11" cy="0" r="1" fill="srgba(5.05531%,54.316%,0%,1)"/>
  <circle cx="12" cy="0" r="1" fill="srgba(16,140,0,1)"/>
  <circle cx="13" cy="0" r="1" fill="srgba(16,140,0,1)"/>
  <circle cx="14" cy="0" r="1" fill="srgba(16,140,0,1)"/>
  <circle cx="15" cy="0" r="1" fill="srgba(16,140,0,1)"/>
  <circle cx="0" cy="1" r="1" fill="srgba(16,140,0,1)"/>
  <circle cx="1" cy="1" r="1" fill="srgba(16,140,0,1)"/>
  <circle cx="2" cy="1" r="1" fill="srgba(16,140,0,1)"/>
  <circle cx="3" cy="1" r="1" fill="srgba(16,140,0,1)"/>
  <circle cx="4" cy="1" r="1" fill="srgba(4.63874%,54.3954%,0%,1)"/>
  <circle cx="5" cy="1" r="1" fill="srgba(40.5676%,65.7343%,0%,1)"/>
  <circle cx="6" cy="1" r="1" fill="srgba(93.1701%,78.3383%,0%,1)"/>
  <circle cx="7" cy="1" r="1" fill="srgba(17.4426%,14.3389%,0%,1)"/>
  <circle cx="8" cy="1" r="1" fill="srgba(37.583%,37.8302%,38.7778%,1)"/>
  <circle cx="9" cy="1" r="1" fill="srgba(94.9691%,97.6776%,94.6151%,1)"/>
  <circle cx="10" cy="1" r="1" fill="srgba(25.9861%,64.3931%,21.0254%,1)"/>
  <circle cx="11" cy="1" r="1" fill="srgba(5.05531%,54.316%,0%,1)"/>
  <circle cx="12" cy="1" r="1" fill="srgba(16,140,0,1)"/>
  <circle cx="13" cy="1" r="1" fill="srgba(16,140,0,1)"/>
  <circle cx="14" cy="1" r="1" fill="srgba(16,140,0,1)"/>
  <circle cx="15" cy="1" r="1" fill="srgba(16,140,0,1)"/>
  <circle cx="0" cy="2" r="1" fill="srgba(16,140,0,1)"/>
  <circle cx="1" cy="2" r="1" fill="srgba(16,140,0,1)"/>
  <circle cx="2" cy="2" r="1" fill="srgba(16,140,0,1)"/>
  <circle cx="3" cy="2" r="1" fill="srgba(16,140,0,1)"/>
  <circle cx="4" cy="2" r="1" fill="srgba(4.63874%,54.3938%,0%,1)"/>
  <circle cx="5" cy="2" r="1" fill="srgba(40.5676%,65.7633%,0%,1)"/>
  <circle cx="6" cy="2" r="1" fill="srgba(93.1685%,78.7839%,0%,1)"/>
  <circle cx="7" cy="2" r="1" fill="srgba(17.4395%,14.5098%,0%,1)"/>
  <circle cx="8" cy="2" r="1" fill="srgba(37.5784%,37.85%,38.8083%,1)"/>
  <circle cx="9" cy="2" r="1" fill="srgba(94.9645%,97.6852%,94.6227%,1)"/>
  <circle cx="10" cy="2" r="1" fill="srgba(25.9785%,64.3977%,21.0269%,1)"/>
  <circle cx="11" cy="2" r="1" fill="srgba(5.05531%,54.316%,0%,1)"/>
  <circle cx="12" cy="2" r="1" fill="srgba(16,140,0,1)"/>
  <circle cx="13" cy="2" r="1" fill="srgba(16,140,0,1)"/>
  <circle cx="14" cy="2" r="1" fill="srgba(16,140,0,1)"/>
  <circle cx="15" cy="2" r="1" fill="srgba(16,140,0,1)"/>
  <circle cx="0" cy="3" r="1" fill="srgba(16,140,0,1)"/>
  <circle cx="1" cy="3" r="1" fill="srgba(16,140,0,1)"/>
  <circle cx="2" cy="3" r="1" fill="srgba(16,140,0,1)"/>
  <circle cx="3" cy="3" r="1" fill="srgba(6.28519%,54.8974%,0%,1)"/>
  <circle cx="4" cy="3" r="1" fill="srgba(4.43427%,54.5281%,0%,1)"/>
  <circle cx="5" cy="3" r="1" fill="srgba(39.855%,65.4749%,0.047303%,1)"/>
  <circle cx="6" cy="3" r="1" fill="srgba(93.8033%,71.3375%,0.784314%,1)"/>
  <circle cx="7" cy="3" r="1" fill="srgba(38.0941%,16.5652%,0.267033%,1)"/>
  <circle cx="8" cy="3" r="1" fill="srgba(53.3593%,33.6995%,30.8019%,1)"/>
  <circle cx="9" cy="3" r="1" fill="srgba(93.8338%,85.7481%,81.6434%,1)"/>
  <circle cx="10" cy="3" r="1" fill="srgba(25.4337%,63.6927%,20.1953%,1)"/>
  <circle cx="11" cy="3" r="1" fill="srgba(4.76539%,54.5174%,0%,1)"/>
  <circle cx="12" cy="3" r="1" fill="srgba(6.28977%,54.8943%,0%,1)"/>
  <circle cx="13" cy="3" r="1" fill="srgba(16,140,0,1)"/>
  <circle cx="14" cy="3" r="1" fill="srgba(16,140,0,1)"/>
  <circle cx="15" cy="3" r="1" fill="srgba(16,140,0,1)"/>
  <circle cx="0" cy="4" r="1" fill="srgba(4.72114%,54.4213%,0%,1)"/>
  <circle cx="1" cy="4" r="1" fill="srgba(4.72114%,54.4213%,0%,1)"/>
  <circle cx="2" cy="4" r="1" fill="srgba(4.72114%,54.4198%,0%,1)"/>
  <circle cx="3" cy="4" r="1" fill="srgba(4.51514%,54.5403%,0%,1)"/>
  <circle cx="4" cy="4" r="1" fill="srgba(7.49981%,53.5378%,0.199893%,1)"/>
  <circle cx="5" cy="4" r="1" fill="srgba(50.8949%,43.8697%,2.31022%,1)"/>
  <circle cx="6" cy="4" r="1" fill="srgba(89.5399%,28.2307%,4.97597%,1)"/>
  <circle cx="7" cy="4" r="1" fill="srgba(79.8489%,23.5676%,4.79896%,1)"/>
  <circle cx="8" cy="4" r="1" fill="srgba(79.53%,24.535%,6.18143%,1)"/>
  <circle cx="9" cy="4" r="1" fill="srgba(87.5471%,28.2872%,15.8404%,1)"/>
  <circle cx="10" cy="4" r="1" fill="srgba(48.5664%,41.4084%,7.34569%,1)"/>
  <circle cx="11" cy="4" r="1" fill="srgba(9.56283%,52.784%,0.0442512%,1)"/>
  <circle cx="12" cy="4" r="1" fill="srgba(4.4419%,54.6105%,0%,1)"/>
  <circle cx="13" cy="4" r="1" fill="srgba(4.72114%,54.4182%,0%,1)"/>
  <circle cx="14" cy="4" r="1" fill="srgba(4.72114%,54.4213%,0%,1)"/>
  <circle cx="15" cy="4" r="1" fill="srgba(4.72114%,54.4213%,0%,1)"/>
  <circle cx="0" cy="5" r="1" fill="srgba(48.0644%,68.1102%,0%,1)"/>
  <circle cx="1" cy="5" r="1" fill="srgba(48.0644%,68.1102%,0%,1)"/>
  <circle cx="2" cy="5" r="1" fill="srgba(48.0735%,68.1331%,0%,1)"/>
  <circle cx="3" cy="5" r="1" fill="srgba(47.3503%,68.1712%,0%,1)"/>
  <circle cx="4" cy="5" r="1" fill="srgba(57.3144%,43.1357%,2.64897%,1)"/>
  <circle cx="5" cy="5" r="1" fill="srgba(72.7718%,32.5643%,3.92462%,1)"/>
  <circle cx="6" cy="5" r="1" fill="srgba(75.4131%,39.6353%,3.1632%,1)"/>
  <circle cx="7" cy="5" r="1" fill="srgba(85.1225%,26.981%,8.3711%,1)"/>
  <circle cx="8" cy="5" r="1" fill="srgba(85.3956%,26.9154%,8.37873%,1)"/>
  <circle cx="9" cy="5" r="1" fill="srgba(74.6273%,33.4264%,2.95262%,1)"/>
  <circle cx="10" cy="5" r="1" fill="srgba(74.9783%,39.8947%,3.01823%,1)"/>
  <circle cx="11" cy="5" r="1" fill="srgba(60.2411%,38.9136%,3.13878%,1)"/>
  <circle cx="12" cy="5" r="1" fill="srgba(47.2114%,67.4937%,0.0396735%,1)"/>
  <circle cx="13" cy="5" r="1" fill="srgba(48.0797%,68.1712%,0%,1)"/>
  <circle cx="14" cy="5" r="1" fill="srgba(48.0644%,68.1102%,0%,1)"/>
  <circle cx="15" cy="5" r="1" fill="srgba(48.0644%,68.1102%,0%,1)"/>
  <circle cx="0" cy="6" r="1" fill="srgba(92.7092%,77.3632%,0%,1)"/>
  <circle cx="1" cy="6" r="1" fill="srgba(92.7092%,77.3632%,0%,1)"/>
  <circle cx="2" cy="6" r="1" fill="srgba(92.665%,77.7035%,0%,1)"/>
  <circle cx="3" cy="6" r="1" fill="srgba(93.8857%,71.7617%,0.668345%,1)"/>
  <circle cx="4" cy="6" r="1" fill="srgba(83.7293%,33.7438%,4.23285%,1)"/>
  <circle cx="5" cy="6" r="1" fill="srgba(71.4687%,38.0362%,3.38293%,1)"/>
  <circle cx="6" cy="6" r="1" fill="srgba(79.9222%,44.8173%,2.14389%,1)"/>
  <circle cx="7" cy="6" r="1" fill="srgba(69.8863%,28.8624%,23.8224%,1)"/>
  <circle cx="8" cy="6" r="1" fill="srgba(62.8779%,25.1957%,43.6164%,1)"/>
  <circle cx="9" cy="6" r="1" fill="srgba(74.9737%,36.9741%,6.41794%,1)"/>
  <circle cx="10" cy="6" r="1" fill="srgba(78.0987%,43.7613%,2.80156%,1)"/>
  <circle cx="11" cy="6" r="1" fill="srgba(81.7472%,30.7027%,4.43122%,1)"/>
  <circle cx="12" cy="6" r="1" fill="srgba(93.489%,68.9662%,0.956741%,1)"/>
  <circle cx="13" cy="6" r="1" fill="srgba(92.6711%,77.8866%,0%,1)"/>
  <circle cx="14" cy="6" r="1" fill="srgba(92.7092%,77.3632%,0%,1)"/>
  <circle cx="15" cy="6" r="1" fill="srgba(92.7092%,77.3632%,0%,1)"/>
  <circle cx="0" cy="7" r="1" fill="srgba(15.0179%,12.3217%,0%,1)"/>
  <circle cx="1" cy="7" r="1" fill="srgba(15.0179%,12.3217%,0%,1)"/>
  <circle cx="2" cy="7" r="1" fill="srgba(13.9117%,12.2332%,0%,1)"/>
  <circle cx="3" cy="7" r="1" fill="srgba(34.0002%,13.2708%,1.41146%,1)"/>
  <circle cx="4" cy="7" r="1" fill="srgba(79.8734%,29.6849%,4.37934%,1)"/>
  <circle cx="5" cy="7" r="1" fill="srgba(74.9996%,41.7044%,3.16014%,1)"/>
  <circle cx="6" cy="7" r="1" fill="srgba(81.7762%,38.7564%,2.81834%,1)"/>
  <circle cx="7" cy="7" r="1" fill="srgba(63.36%,23.9338%,43.3158%,1)"/>
  <circle cx="8" cy="7" r="1" fill="srgba(43.7797%,28.7449%,71.3283%,1)"/>
  <circle cx="9" cy="7" r="1" fill="srgba(72.2408%,36.5866%,16.0632%,1)"/>
  <circle cx="10" cy="7" r="1" fill="srgba(79.4903%,40.8576%,2.51011%,1)"/>
  <circle cx="11" cy="7" r="1" fill="srgba(77.583%,32.607%,4.1413%,1)"/>
  <circle cx="12" cy="7" r="1" fill="srgba(39.6429%,14.3557%,1.81125%,1)"/>
  <circle cx="13" cy="7" r="1" fill="srgba(13.7377%,12.2377%,0%,1)"/>
  <circle cx="14" cy="7" r="1" fill="srgba(15.0179%,12.3217%,0%,1)"/>
  <circle cx="15" cy="7" r="1" fill="srgba(15.0179%,12.3217%,0%,1)"/>
  <circle cx="0" cy="8" r="1" fill="srgba(36.1227%,36.4416%,37.174%,1)"/>
  <circle cx="1" cy="8" r="1" fill="srgba(36.1227%,36.4416%,37.174%,1)"/>
  <circle cx="2" cy="8" r="1" fill="srgba(35.2987%,36.669%,37.5479%,1)"/>
  <circle cx="3" cy="8" r="1" fill="srgba(50.2815%,32.2301%,31.3085%,1)"/>
  <circle cx="4" cy="8" r="1" fill="srgba(79.2126%,38.0987%,5.7145%,1)"/>
  <circle cx="5" cy="8" r="1" fill="srgba(77.847%,47.422%,2.41245%,1)"/>
  <circle cx="6" cy="8" r="1" fill="srgba(84.126%,34.0383%,2.94347%,1)"/>
  <circle cx="7" cy="8" r="1" fill="srgba(71.9051%,20.8011%,36.8627%,1)"/>
  <circle cx="8" cy="8" r="1" fill="srgba(38.8022%,29.4545%,67.2358%,1)"/>
  <circle cx="9" cy="8" r="1" fill="srgba(67.5837%,38.5504%,13.8262%,1)"/>
  <circle cx="10" cy="8" r="1" fill="srgba(80.2121%,39.205%,2.56809%,1)"/>
  <circle cx="11" cy="8" r="1" fill="srgba(78.1689%,42.0798%,4.14435%,1)"/>
  <circle cx="12" cy="8" r="1" fill="srgba(54.0856%,32.4407%,28.8304%,1)"/>
  <circle cx="13" cy="8" r="1" fill="srgba(35.2224%,36.6995%,37.6593%,1)"/>
  <circle cx="14" cy="8" r="1" fill="srgba(36.1227%,36.4416%,37.174%,1)"/>
  <circle cx="15" cy="8" r="1" fill="srgba(36.1227%,36.4416%,37.174%,1)"/>
  <circle cx="0" cy="9" r="1" fill="srgba(96.9085%,98.4817%,96.7071%,1)"/>
  <circle cx="1" cy="9" r="1" fill="srgba(96.9085%,98.4817%,96.7071%,1)"/>
  <circle cx="2" cy="9" r="1" fill="srgba(96.9772%,99.0265%,97.3144%,1)"/>
  <circle cx="3" cy="9" r="1" fill="srgba(95.8953%,89.1707%,87.1977%,1)"/>
  <circle cx="4" cy="9" r="1" fill="srgba(72.9183%,59.2981%,17.0916%,1)"/>
  <circle cx="5" cy="9" r="1" fill="srgba(74.5495%,57.792%,0.384527%,1)"/>
  <circle cx="6" cy="9" r="1" fill="srgba(83.1632%,28.5893%,4.16571%,1)"/>
  <circle cx="7" cy="9" r="1" fill="srgba(76.3607%,28.4199%,5.76486%,1)"/>
  <circle cx="8" cy="9" r="1" fill="srgba(41.5457%,45.6229%,18.79%,1)"/>
  <circle cx="9" cy="9" r="1" fill="srgba(66.2684%,35.8618%,7.82788%,1)"/>
  <circle cx="10" cy="9" r="1" fill="srgba(76.0616%,38.0804%,2.35294%,1)"/>
  <circle cx="11" cy="9" r="1" fill="srgba(71.7418%,66.4607%,9.66964%,1)"/>
  <circle cx="12" cy="9" r="1" fill="srgba(93.2311%,88.6732%,80.8362%,1)"/>
  <circle cx="13" cy="9" r="1" fill="srgba(97.1847%,99.115%,97.6822%,1)"/>
  <circle cx="14" cy="9" r="1" fill="srgba(96.9085%,98.4817%,96.7071%,1)"/>
  <circle cx="15" cy="9" r="1" fill="srgba(96.9085%,98.4817%,96.7071%,1)"/>
  <circle cx="0" cy="10" r="1" fill="srgba(30.7897%,66.7094%,26.157%,1)"/>
  <circle cx="1" cy="10" r="1" fill="srgba(30.7897%,66.7094%,26.157%,1)"/>
  <circle cx="2" cy="10" r="1" fill="srgba(30.7927%,66.7353%,26.1845%,1)"/>
  <circle cx="3" cy="10" r="1" fill="srgba(30.016%,65.655%,25.7679%,1)"/>
  <circle cx="4" cy="10" r="1" fill="srgba(51.3191%,67.5731%,8.13153%,1)"/>
  <circle cx="5" cy="10" r="1" fill="srgba(66.9368%,53.7804%,0.610361%,1)"/>
  <circle cx="6" cy="10" r="1" fill="srgba(79.4308%,22.5513%,4.7776%,1)"/>
  <circle cx="7" cy="10" r="1" fill="srgba(87.2618%,32.1035%,4.31373%,1)"/>
  <circle cx="8" cy="10" r="1" fill="srgba(75.3231%,50.515%,1.944%,1)"/>
  <circle cx="9" cy="10" r="1" fill="srgba(70.5165%,23.2044%,3.67742%,1)"/>
  <circle cx="10" cy="10" r="1" fill="srgba(61.4343%,39.0143%,1.96536%,1)"/>
  <circle cx="11" cy="10" r="1" fill="srgba(67.0985%,70.28%,4.50752%,1)"/>
  <circle cx="12" cy="10" r="1" fill="srgba(32.9274%,65.8488%,23.9414%,1)"/>
  <circle cx="13" cy="10" r="1" fill="srgba(30.7088%,66.8116%,26.3005%,1)"/>
  <circle cx="14" cy="10" r="1" fill="srgba(30.7897%,66.7094%,26.157%,1)"/>
  <circle cx="15" cy="10" r="1" fill="srgba(30.7897%,66.7094%,26.157%,1)"/>
  <circle cx="0" cy="11" r="1" fill="srgba(4.84627%,54.2153%,0%,1)"/>
  <circle cx="1" cy="11" r="1" fill="srgba(4.84627%,54.2153%,0%,1)"/>
  <circle cx="2" cy="11" r="1" fill="srgba(4.84627%,54.2153%,0%,1)"/>
  <circle cx="3" cy="11" r="1" fill="srgba(3.76745%,53.6217%,0%,1)"/>
  <circle cx="4" cy="11" r="1" fill="srgba(43.8117%,65.8656%,0%,1)"/>
  <circle cx="5" cy="11" r="1" fill="srgba(66.6667%,56.1257%,0.601205%,1)"/>
  <circle cx="6" cy="11" r="1" fill="srgba(81.3123%,26.2852%,4.4831%,1)"/>
  <circle cx="7" cy="11" r="1" fill="srgba(76.463%,37.5311%,3.46532%,1)"/>
  <circle cx="8" cy="11" r="1" fill="srgba(72.5261%,47.2404%,3.39666%,1)"/>
  <circle cx="9" cy="11" r="1" fill="srgba(73.9895%,22.3011%,11.9158%,1)"/>
  <circle cx="10" cy="11" r="1" fill="srgba(54.4366%,50.2342%,2.67796%,1)"/>
  <circle cx="11" cy="11" r="1" fill="srgba(63.679%,69.0898%,0.00610361%,1)"/>
  <circle cx="12" cy="11" r="1" fill="srgba(9.65591%,53.4676%,0%,1)"/>
  <circle cx="13" cy="11" r="1" fill="srgba(4.58076%,54.2916%,0%,1)"/>
  <circle cx="14" cy="11" r="1" fill="srgba(4.84627%,54.2153%,0%,1)"/>
  <circle cx="15" cy="11" r="1" fill="srgba(4.84627%,54.2153%,0%,1)"/>
  <circle cx="0" cy="12" r="1" fill="srgba(16,140,0,1)"/>
  <circle cx="1" cy="12" r="1" fill="srgba(16,140,0,1)"/>
  <circle cx="2" cy="12" r="1" fill="srgba(6.27451%,54.9035%,0%,1)"/>
  <circle cx="3" cy="12" r="1" fill="srgba(5.05531%,54.2458%,0%,1)"/>
  <circle cx="4" cy="12" r="1" fill="srgba(48.9525%,66.8742%,0%,1)"/>
  <circle cx="5" cy="12" r="1" fill="srgba(80.9033%,71.6457%,0.0228885%,1)"/>
  <circle cx="6" cy="12" r="1" fill="srgba(87.2892%,65.8564%,0.794995%,1)"/>
  <circle cx="7" cy="12" r="1" fill="srgba(48.3696%,40.6928%,0%,1)"/>
  <circle cx="8" cy="12" r="1" fill="srgba(68.3635%,63.0732%,25.8015%,1)"/>
  <circle cx="9" cy="12" r="1" fill="srgba(88.2902%,76.936%,72.4483%,1)"/>
  <circle cx="10" cy="12" r="1" fill="srgba(59.0311%,64.8035%,10.5226%,1)"/>
  <circle cx="11" cy="12" r="1" fill="srgba(66.331%,69.662%,0%,1)"/>
  <circle cx="12" cy="12" r="1" fill="srgba(12.1401%,54.0047%,0%,1)"/>
  <circle cx="13" cy="12" r="1" fill="srgba(5.91897%,54.9691%,0%,1)"/>
  <circle cx="14" cy="12" r="1" fill="srgba(16,140,0,1)"/>
  <circle cx="15" cy="12" r="1" fill="srgba(16,140,0,1)"/>
  <circle cx="0" cy="13" r="1" fill="srgba(16,140,0,1)"/>
  <circle cx="1" cy="13" r="1" fill="srgba(16,140,0,1)"/>
  <circle cx="2" cy="13" r="1" fill="srgba(6.26993%,54.902%,0%,1)"/>
  <circle cx="3" cy="13" r="1" fill="srgba(5.25216%,54.4091%,0%,1)"/>
  <circle cx="4" cy="13" r="1" fill="srgba(45.8762%,63.7629%,0%,1)"/>
  <circle cx="5" cy="13" r="1" fill="srgba(81.7563%,72.8573%,0%,1)"/>
  <circle cx="6" cy="13" r="1" fill="srgba(90.5547%,76.8978%,0%,1)"/>
  <circle cx="7" cy="13" r="1" fill="srgba(39.6017%,39.4736%,0%,1)"/>
  <circle cx="8" cy="13" r="1" fill="srgba(63.8972%,63.7613%,34.3175%,1)"/>
  <circle cx="9" cy="13" r="1" fill="srgba(92.8389%,92.0699%,89.0074%,1)"/>
  <circle cx="10" cy="13" r="1" fill="srgba(64.8157%,68.954%,14.2779%,1)"/>
  <circle cx="11" cy="13" r="1" fill="srgba(62.1164%,66.4393%,0%,1)"/>
  <circle cx="12" cy="13" r="1" fill="srgba(12.3339%,54.168%,0%,1)"/>
  <circle cx="13" cy="13" r="1" fill="srgba(5.88846%,54.9462%,0%,1)"/>
  <circle cx="14" cy="13" r="1" fill="srgba(16,140,0,1)"/>
  <circle cx="15" cy="13" r="1" fill="srgba(16,140,0,1)"/>
  <circle cx="0" cy="14" r="1" fill="srgba(16,140,0,1)"/>
  <circle cx="1" cy="14" r="1" fill="srgba(16,140,0,1)"/>
  <circle cx="2" cy="14" r="1" fill="srgba(6.27451%,54.9111%,0%,1)"/>
  <circle cx="3" cy="14" r="1" fill="srgba(5.89609%,54.8287%,0%,1)"/>
  <circle cx="4" cy="14" r="1" fill="srgba(16.4721%,39.2966%,0%,1)"/>
  <circle cx="5" cy="14" r="1" fill="srgba(64.5335%,61.1505%,0%,1)"/>
  <circle cx="6" cy="14" r="1" fill="srgba(91.22%,77.5753%,0%,1)"/>
  <circle cx="7" cy="14" r="1" fill="srgba(40.9354%,37.6822%,0%,1)"/>
  <circle cx="8" cy="14" r="1" fill="srgba(61.8799%,60.7614%,37.023%,1)"/>
  <circle cx="9" cy="14" r="1" fill="srgba(96.2799%,95.6542%,92.3033%,1)"/>
  <circle cx="10" cy="14" r="1" fill="srgba(65.6031%,67.0909%,17.8424%,1)"/>
  <circle cx="11" cy="14" r="1" fill="srgba(32.8557%,43.3127%,0%,1)"/>
  <circle cx="12" cy="14" r="1" fill="srgba(10.8736%,53.8155%,0%,1)"/>
  <circle cx="13" cy="14" r="1" fill="srgba(5.97543%,54.9752%,0%,1)"/>
  <circle cx="14" cy="14" r="1" fill="srgba(16,140,0,1)"/>
  <circle cx="15" cy="14" r="1" fill="srgba(16,140,0,1)"/>
  <circle cx="0" cy="15" r="1" fill="srgba(16,140,0,1)"/>
  <circle cx="1" cy="15" r="1" fill="srgba(16,140,0,1)"/>
  <circle cx="2" cy="15" r="1" fill="srgba(6.27451%,54.9035%,0%,1)"/>
  <circle cx="3" cy="15" r="1" fill="srgba(6.17685%,54.9859%,0%,1)"/>
  <circle cx="4" cy="15" r="1" fill="srgba(5.30404%,44.773%,0%,1)"/>
  <circle cx="5" cy="15" r="1" fill="srgba(50.2922%,58.0133%,0%,1)"/>
  <circle cx="6" cy="15" r="1" fill="srgba(87.2587%,74.699%,0%,1)"/>
  <circle cx="7" cy="15" r="1" fill="srgba(40.4913%,35.1598%,0%,1)"/>
  <circle cx="8" cy="15" r="1" fill="srgba(58.9532%,57.3632%,38.822%,1)"/>
  <circle cx="9" cy="15" r="1" fill="srgba(98.1598%,97.8149%,94.3359%,1)"/>
  <circle cx="10" cy="15" r="1" fill="srgba(75.3826%,75.3613%,20.5142%,1)"/>
  <circle cx="11" cy="15" r="1" fill="srgba(17.319%,40.9522%,0%,1)"/>
  <circle cx="12" cy="15" r="1" fill="srgba(7.43114%,51.754%,0%,1)"/>
  <circle cx="13" cy="15" r="1" fill="srgba(6.17685%,55.0942%,0%,1)"/>
  <circle cx="14" cy="15" r="1" fill="srgba(16,140,0,1)"/>
  <circle cx="15" cy="15" r="1" fill="srgba(16,140,0,1)"/>
</svg>
