<?xml version="1.0" standalone="no"?>
<!DOCTYPE svg PUBLIC "-//W3C//DTD SVG 20010904//EN"
  "http://www.w3.org/TR/2001/REC-SVG-20010904/DTD/svg10.dtd">
<svg width="16" height="16">
  <circle cx="0" cy="0" r="1" fill="srgba(0,49,156,1)"/>
  <circle cx="1" cy="0" r="1" fill="srgba(0,49,156,1)"/>
  <circle cx="2" cy="0" r="1" fill="srgba(0,49,156,1)"/>
  <circle cx="3" cy="0" r="1" fill="srgba(0,49,156,1)"/>
  <circle cx="4" cy="0" r="1" fill="srgba(0%,18.1674%,60.6729%,1)"/>
  <circle cx="5" cy="0" r="1" fill="srgba(20.9613%,36.1501%,69.3156%,1)"/>
  <circle cx="6" cy="0" r="1" fill="srgba(94.4793%,95.5398%,97.8576%,1)"/>
  <circle cx="7" cy="0" r="1" fill="white"/>
  <circle cx="8" cy="0" r="1" fill="white"/>
  <circle cx="9" cy="0" r="1" fill="srgba(99.2844%,96.2661%,95.9686%,1)"/>
  <circle cx="10" cy="0" r="1" fill="srgba(87.6356%,35.462%,30.3334%,1)"/>
  <circle cx="11" cy="0" r="1" fill="srgba(83.6973%,14.905%,8.14374%,1)"/>
  <circle cx="12" cy="0" r="1" fill="srgba(214,41,24,1)"/>
  <circle cx="13" cy="0" r="1" fill="srgba(214,41,24,1)"/>
  <circle cx="14" cy="0" r="1" fill="srgba(83.92%,16.0693%,9.40108%,1)"/>
  <circle cx="15" cy="0" r="1" fill="srgba(83.9521%,16.2554%,9.60403%,1)"/>
  <circle cx="0" cy="1" r="1" fill="srgba(0,49,156,1)"/>
  <circle cx="1" cy="1" r="1" fill="srgba(0,49,156,1)"/>
  <circle cx="2" cy="1" r="1" fill="srgba(0,49,156,1)"/>
  <circle cx="3" cy="1" r="1" fill="srgba(0,49,156,1)"/>
  <circle cx="4" cy="1" r="1" fill="srgba(0%,18.1674%,60.6729%,1)"/>
  <circle cx="5" cy="1" r="1" fill="srgba(20.9613%,36.1501%,69.3156%,1)"/>
  <circle cx="6" cy="1" r="1" fill="srgba(94.4793%,95.5398%,97.8576%,1)"/>
  <circle cx="7" cy="1" r="1" fill="white"/>
  <circle cx="8" cy="1" r="1" fill="white"/>
  <circle cx="9" cy="1" r="1" fill="srgba(99.2844%,96.2661%,95.9686%,1)"/>
  <circle cx="10" cy="1" r="1" fill="srgba(87.6356%,35.462%,30.3334%,1)"/>
  <circle cx="11" cy="1" r="1" fill="srgba(83.6973%,14.905%,8.14374%,1)"/>
  <circle cx="12" cy="1" r="1" fill="srgba(214,41,24,1)"/>
  <circle cx="13" cy="1" r="1" fill="srgba(214,41,24,1)"/>
  <circle cx="14" cy="1" r="1" fill="srgba(83.92%,16.0693%,9.40108%,1)"/>
  <circle cx="15" cy="1" r="1" fill="srgba(83.9521%,16.2554%,9.60403%,1)"/>
  <circle cx="0" cy="2" r="1" fill="srgba(0,49,156,1)"/>
  <circle cx="1" cy="2" r="1" fill="srgba(0,49,156,1)"/>
  <circle cx="2" cy="2" r="1" fill="srgba(0,49,156,1)"/>
  <circle cx="3" cy="2" r="1" fill="srgba(0,49,156,1)"/>
  <circle cx="4" cy="2" r="1" fill="srgba(0%,18.1674%,60.6729%,1)"/>
  <circle cx="5" cy="2" r="1" fill="srgba(20.9613%,36.1501%,69.3156%,1)"/>
  <circle cx="6" cy="2" r="1" fill="srgba(94.4793%,95.5398%,97.8576%,1)"/>
  <circle cx="7" cy="2" r="1" fill="white"/>
  <circle cx="8" cy="2" r="1" fill="white"/>
  <circle cx="9" cy="2" r="1" fill="srgba(99.2844%,96.2661%,95.9686%,1)"/>
  <circle cx="10" cy="2" r="1" fill="srgba(87.6356%,35.462%,30.3334%,1)"/>
  <circle cx="11" cy="2" r="1" fill="srgba(83.6973%,14.905%,8.14374%,1)"/>
  <circle cx="12" cy="2" r="1" fill="srgba(214,41,24,1)"/>
  <circle cx="13" cy="2" r="1" fill="srgba(214,41,24,1)"/>
  <circle cx="14" cy="2" r="1" fill="srgba(83.92%,16.0693%,9.40108%,1)"/>
  <circle cx="15" cy="2" r="1" fill="srgba(83.9521%,16.2554%,9.60403%,1)"/>
  <circle cx="0" cy="3" r="1" fill="srgba(0,49,156,1)"/>
  <circle cx="1" cy="3" r="1" fill="srgba(0,49,156,1)"/>
  <circle cx="2" cy="3" r="1" fill="srgba(0,49,156,1)"/>
  <circle cx="3" cy="3" r="1" fill="srgba(0,49,156,1)"/>
  <circle cx="4" cy="3" r="1" fill="srgba(0%,18.1674%,60.6729%,1)"/>
  <circle cx="5" cy="3" r="1" fill="srgba(20.9613%,36.1501%,69.3156%,1)"/>
  <circle cx="6" cy="3" r="1" fill="srgba(94.4793%,95.5398%,97.8576%,1)"/>
  <circle cx="7" cy="3" r="1" fill="white"/>
  <circle cx="8" cy="3" r="1" fill="white"/>
  <circle cx="9" cy="3" r="1" fill="srgba(99.2844%,96.2661%,95.9686%,1)"/>
  <circle cx="10" cy="3" r="1" fill="srgba(87.6356%,35.462%,30.3334%,1)"/>
  <circle cx="11" cy="3" r="1" fill="srgba(83.6973%,14.905%,8.14374%,1)"/>
  <circle cx="12" cy="3" r="1" fill="srgba(214,41,24,1)"/>
  <circle cx="13" cy="3" r="1" fill="srgba(214,41,24,1)"/>
  <circle cx="14" cy="3" r="1" fill="srgba(83.92%,16.0693%,9.40108%,1)"/>
  <circle cx="15" cy="3" r="1" fill="srgba(83.9521%,16.2554%,9.60403%,1)"/>
  <circle cx="0" cy="4" r="1" fill="srgba(0%,18.4054%,60.7874%,1)"/>
  <circle cx="1" cy="4" r="1" fill="srgba(0%,18.4054%,60.7874%,1)"/>
  <circle cx="2" cy="4" r="1" fill="srgba(0%,18.4054%,60.7874%,1)"/>
  <circle cx="3" cy="4" r="1" fill="srgba(0%,18.4054%,60.7874%,1)"/>
  <circle cx="4" cy="4" r="1" fill="srgba(0%,17.3465%,60.2777%,1)"/>
  <circle cx="5" cy="4" r="1" fill="srgba(20.9537%,35.5093%,69.0074%,1)"/>
  <circle cx="6" cy="4" r="1" fill="srgba(94.4747%,95.4955%,97.8347%,1)"/>
  <circle cx="7" cy="4" r="1" fill="white"/>
  <circle cx="8" cy="4" r="1" fill="white"/>
  <circle cx="9" cy="4" r="1" fill="srgba(99.2782%,96.231%,95.935%,1)"/>
  <circle cx="10" cy="4" r="1" fill="srgba(87.5242%,34.8531%,29.7398%,1)"/>
  <circle cx="11" cy="4" r="1" fill="srgba(83.5492%,14.1009%,7.364%,1)"/>
  <circle cx="12" cy="4" r="1" fill="srgba(83.7766%,15.2865%,8.64729%,1)"/>
  <circle cx="13" cy="4" r="1" fill="srgba(83.7781%,15.288%,8.65034%,1)"/>
  <circle cx="14" cy="4" r="1" fill="srgba(83.7659%,15.2499%,8.55573%,1)"/>
  <circle cx="15" cy="4" r="1" fill="srgba(83.7949%,15.4314%,8.73121%,1)"/>
  <circle cx="0" cy="5" r="1" fill="srgba(15.6069%,31.8212%,67.2343%,1)"/>
  <circle cx="1" cy="5" r="1" fill="srgba(15.6069%,31.8212%,67.2343%,1)"/>
  <circle cx="2" cy="5" r="1" fill="srgba(15.6069%,31.8212%,67.2343%,1)"/>
  <circle cx="3" cy="5" r="1" fill="srgba(15.6069%,31.8212%,67.2343%,1)"/>
  <circle cx="4" cy="5" r="1" fill="srgba(14.5113%,30.9361%,66.8086%,1)"/>
  <circle cx="5" cy="5" r="1" fill="srgba(33.2952%,46.1128%,74.1039%,1)"/>
  <circle cx="6" cy="5" r="1" fill="srgba(95.3216%,96.2249%,98.1842%,1)"/>
  <circle cx="7" cy="5" r="1" fill="srgba(100%,100%,99.9329%,1)"/>
  <circle cx="8" cy="5" r="1" fill="srgba(99.9145%,100%,98.8296%,1)"/>
  <circle cx="9" cy="5" r="1" fill="srgba(99.2172%,96.3043%,94.5312%,1)"/>
  <circle cx="10" cy="5" r="1" fill="srgba(89.308%,44.7639%,39.0021%,1)"/>
  <circle cx="11" cy="5" r="1" fill="srgba(85.9724%,27.3777%,20.1877%,1)"/>
  <circle cx="12" cy="5" r="1" fill="srgba(86.1524%,28.3406%,21.1704%,1)"/>
  <circle cx="13" cy="5" r="1" fill="srgba(86.1524%,28.333%,21.149%,1)"/>
  <circle cx="14" cy="5" r="1" fill="srgba(86.3264%,28.8396%,22.7085%,1)"/>
  <circle cx="15" cy="5" r="1" fill="srgba(86.4164%,29.1661%,23.4455%,1)"/>
  <circle cx="0" cy="6" r="1" fill="srgba(91.0475%,92.7657%,96.5225%,1)"/>
  <circle cx="1" cy="6" r="1" fill="srgba(91.0475%,92.7657%,96.5225%,1)"/>
  <circle cx="2" cy="6" r="1" fill="srgba(91.0475%,92.7657%,96.5225%,1)"/>
  <circle cx="3" cy="6" r="1" fill="srgba(91.0475%,92.7657%,96.5225%,1)"/>
  <circle cx="4" cy="6" r="1" fill="srgba(91.0033%,92.7291%,96.5072%,1)"/>
  <circle cx="5" cy="6" r="1" fill="srgba(91.8563%,93.5241%,97.1099%,1)"/>
  <circle cx="6" cy="6" r="1" fill="srgba(80.3388%,83.2166%,86.3157%,1)"/>
  <circle cx="7" cy="6" r="1" fill="srgba(83.0365%,78.9441%,63.6973%,1)"/>
  <circle cx="8" cy="6" r="1" fill="srgba(88.6687%,76.6339%,54.7814%,1)"/>
  <circle cx="9" cy="6" r="1" fill="srgba(93.0617%,82.1973%,52.7047%,1)"/>
  <circle cx="10" cy="6" r="1" fill="srgba(93.7362%,78.8525%,46.6758%,1)"/>
  <circle cx="11" cy="6" r="1" fill="srgba(93.254%,76.8185%,44.5701%,1)"/>
  <circle cx="12" cy="6" r="1" fill="srgba(93.2448%,76.8536%,44.4694%,1)"/>
  <circle cx="13" cy="6" r="1" fill="srgba(93.2464%,76.8643%,44.5106%,1)"/>
  <circle cx="14" cy="6" r="1" fill="srgba(93.8781%,78.6999%,50.1122%,1)"/>
  <circle cx="15" cy="6" r="1" fill="srgba(94.1238%,79.4034%,52.3171%,1)"/>
  <circle cx="0" cy="7" r="1" fill="white"/>
  <circle cx="1" cy="7" r="1" fill="white"/>
  <circle cx="2" cy="7" r="1" fill="white"/>
  <circle cx="3" cy="7" r="1" fill="white"/>
  <circle cx="4" cy="7" r="1" fill="white"/>
  <circle cx="5" cy="7" r="1" fill="srgba(93.9879%,95.7015%,95.8801%,1)"/>
  <circle cx="6" cy="7" r="1" fill="srgba(45.0889%,55.8938%,52.2148%,1)"/>
  <circle cx="7" cy="7" r="1" fill="srgba(80.1709%,68.5725%,34.6731%,1)"/>
  <circle cx="8" cy="7" r="1" fill="srgba(84.9149%,65.687%,33.2311%,1)"/>
  <circle cx="9" cy="7" r="1" fill="srgba(85.9663%,72.3445%,35.9503%,1)"/>
  <circle cx="10" cy="7" r="1" fill="srgba(91.9707%,79.4186%,38.1888%,1)"/>
  <circle cx="11" cy="7" r="1" fill="srgba(92.8435%,79.3896%,36.7025%,1)"/>
  <circle cx="12" cy="7" r="1" fill="srgba(92.8954%,79.4095%,36.5393%,1)"/>
  <circle cx="13" cy="7" r="1" fill="srgba(92.9366%,79.3957%,36.4614%,1)"/>
  <circle cx="14" cy="7" r="1" fill="srgba(92.9244%,79.3606%,36.347%,1)"/>
  <circle cx="15" cy="7" r="1" fill="srgba(92.8939%,79.3408%,36.3165%,1)"/>
  <circle cx="0" cy="8" r="1" fill="white"/>
  <circle cx="1" cy="8" r="1" fill="white"/>
  <circle cx="2" cy="8" r="1" fill="white"/>
  <circle cx="3" cy="8" r="1" fill="white"/>
  <circle cx="4" cy="8" r="1" fill="white"/>
  <circle cx="5" cy="8" r="1" fill="srgba(91.3161%,94.2397%,89.9916%,1)"/>
  <circle cx="6" cy="8" r="1" fill="srgba(44.3854%,56.5286%,28.5084%,1)"/>
  <circle cx="7" cy="8" r="1" fill="srgba(86.8406%,70.5669%,29.0425%,1)"/>
  <circle cx="8" cy="8" r="1" fill="srgba(96.1486%,78.2315%,32.372%,1)"/>
  <circle cx="9" cy="8" r="1" fill="srgba(96.0098%,77.2076%,31.3756%,1)"/>
  <circle cx="10" cy="8" r="1" fill="srgba(90.1305%,80.2258%,47.5303%,1)"/>
  <circle cx="11" cy="8" r="1" fill="srgba(87.8264%,79.3774%,41.6617%,1)"/>
  <circle cx="12" cy="8" r="1" fill="srgba(92.7718%,79.3561%,37.0397%,1)"/>
  <circle cx="13" cy="8" r="1" fill="srgba(92.9122%,79.382%,37.1359%,1)"/>
  <circle cx="14" cy="8" r="1" fill="srgba(92.8695%,79.2355%,36.8612%,1)"/>
  <circle cx="15" cy="8" r="1" fill="srgba(92.9091%,79.2645%,36.9635%,1)"/>
  <circle cx="0" cy="9" r="1" fill="white"/>
  <circle cx="1" cy="9" r="1" fill="white"/>
  <circle cx="2" cy="9" r="1" fill="white"/>
  <circle cx="3" cy="9" r="1" fill="white"/>
  <circle cx="4" cy="9" r="1" fill="white"/>
  <circle cx="5" cy="9" r="1" fill="srgba(91.078%,93.0953%,89.4362%,1)"/>
  <circle cx="6" cy="9" r="1" fill="srgba(46.7536%,54.3221%,24.1428%,1)"/>
  <circle cx="7" cy="9" r="1" fill="srgba(85.4444%,68.7617%,24.8157%,1)"/>
  <circle cx="8" cy="9" r="1" fill="srgba(97.3907%,77.3968%,30.573%,1)"/>
  <circle cx="9" cy="9" r="1" fill="srgba(96.9512%,77.0245%,30.2632%,1)"/>
  <circle cx="10" cy="9" r="1" fill="srgba(94.725%,77.7142%,33.3669%,1)"/>
  <circle cx="11" cy="9" r="1" fill="srgba(73.1853%,72.8588%,28.5206%,1)"/>
  <circle cx="12" cy="9" r="1" fill="srgba(77.5677%,73.8659%,28.4779%,1)"/>
  <circle cx="13" cy="9" r="1" fill="srgba(92.4605%,79.3362%,36.7285%,1)"/>
  <circle cx="14" cy="9" r="1" fill="srgba(92.3735%,79.2569%,36.6064%,1)"/>
  <circle cx="15" cy="9" r="1" fill="srgba(92.3949%,79.2065%,36.6384%,1)"/>
  <circle cx="0" cy="10" r="1" fill="srgba(90.0786%,48.2216%,44.1032%,1)"/>
  <circle cx="1" cy="10" r="1" fill="srgba(90.0786%,48.2216%,44.1032%,1)"/>
  <circle cx="2" cy="10" r="1" fill="srgba(90.0786%,48.2216%,44.1032%,1)"/>
  <circle cx="3" cy="10" r="1" fill="srgba(90.0786%,48.2216%,44.1032%,1)"/>
  <circle cx="4" cy="10" r="1" fill="srgba(90.4585%,48.1346%,44.1382%,1)"/>
  <circle cx="5" cy="10" r="1" fill="srgba(83.7339%,49.6147%,43.6179%,1)"/>
  <circle cx="6" cy="10" r="1" fill="srgba(61.6846%,40.4959%,19.8596%,1)"/>
  <circle cx="7" cy="10" r="1" fill="srgba(89.7307%,68.2841%,25.2659%,1)"/>
  <circle cx="8" cy="10" r="1" fill="srgba(97.0718%,77.4746%,30.7118%,1)"/>
  <circle cx="9" cy="10" r="1" fill="srgba(94.6624%,78.0835%,33.817%,1)"/>
  <circle cx="10" cy="10" r="1" fill="srgba(97.8439%,77.0962%,30.1457%,1)"/>
  <circle cx="11" cy="10" r="1" fill="srgba(85.8289%,74.5693%,27.7531%,1)"/>
  <circle cx="12" cy="10" r="1" fill="srgba(46.8666%,62.5956%,11.5587%,1)"/>
  <circle cx="13" cy="10" r="1" fill="srgba(75.8312%,73.1518%,27.4846%,1)"/>
  <circle cx="14" cy="10" r="1" fill="srgba(93.193%,79.4125%,37.0138%,1)"/>
  <circle cx="15" cy="10" r="1" fill="srgba(92.9168%,79.3103%,36.8688%,1)"/>
  <circle cx="0" cy="11" r="1" fill="srgba(83.6408%,14.6136%,7.8294%,1)"/>
  <circle cx="1" cy="11" r="1" fill="srgba(83.6408%,14.6136%,7.8294%,1)"/>
  <circle cx="2" cy="11" r="1" fill="srgba(83.6408%,14.6136%,7.8294%,1)"/>
  <circle cx="3" cy="11" r="1" fill="srgba(83.6408%,14.6136%,7.8294%,1)"/>
  <circle cx="4" cy="11" r="1" fill="srgba(83.9017%,14.1787%,7.4342%,1)"/>
  <circle cx="5" cy="11" r="1" fill="srgba(79.0311%,21.6632%,14.3511%,1)"/>
  <circle cx="6" cy="11" r="1" fill="srgba(63.65%,37.2396%,18.706%,1)"/>
  <circle cx="7" cy="11" r="1" fill="srgba(91.4458%,69.2119%,26.186%,1)"/>
  <circle cx="8" cy="11" r="1" fill="srgba(96.9604%,77.4517%,30.7424%,1)"/>
  <circle cx="9" cy="11" r="1" fill="srgba(93.2311%,78.819%,36.1227%,1)"/>
  <circle cx="10" cy="11" r="1" fill="srgba(95.2407%,78.0819%,33.3898%,1)"/>
  <circle cx="11" cy="11" r="1" fill="srgba(96.1868%,76.4614%,29.1585%,1)"/>
  <circle cx="12" cy="11" r="1" fill="srgba(56.1364%,64.5212%,13.3577%,1)"/>
  <circle cx="13" cy="11" r="1" fill="srgba(32.3888%,57.3327%,3.78882%,1)"/>
  <circle cx="14" cy="11" r="1" fill="srgba(64.5151%,68.9326%,21.239%,1)"/>
  <circle cx="15" cy="11" r="1" fill="srgba(89.7398%,78.0667%,35.1064%,1)"/>
  <circle cx="0" cy="12" r="1" fill="srgba(214,41,24,1)"/>
  <circle cx="1" cy="12" r="1" fill="srgba(214,41,24,1)"/>
  <circle cx="2" cy="12" r="1" fill="srgba(214,41,24,1)"/>
  <circle cx="3" cy="12" r="1" fill="srgba(214,41,24,1)"/>
  <circle cx="4" cy="12" r="1" fill="srgba(84.1855%,15.6786%,9.03487%,1)"/>
  <circle cx="5" cy="12" r="1" fill="srgba(79.1775%,22.5559%,15.6176%,1)"/>
  <circle cx="6" cy="12" r="1" fill="srgba(63.9994%,36.8154%,19.5911%,1)"/>
  <circle cx="7" cy="12" r="1" fill="srgba(91.4717%,69.1676%,26.3951%,1)"/>
  <circle cx="8" cy="12" r="1" fill="srgba(96.9314%,77.438%,30.7073%,1)"/>
  <circle cx="9" cy="12" r="1" fill="srgba(93.0922%,78.9334%,36.3516%,1)"/>
  <circle cx="10" cy="12" r="1" fill="srgba(93.2326%,79.06%,36.3912%,1)"/>
  <circle cx="11" cy="12" r="1" fill="srgba(96.4294%,77.8546%,32.4712%,1)"/>
  <circle cx="12" cy="12" r="1" fill="srgba(89.0944%,74.1009%,25.7679%,1)"/>
  <circle cx="13" cy="12" r="1" fill="srgba(38.8403%,58.8205%,5.54055%,1)"/>
  <circle cx="14" cy="12" r="1" fill="srgba(26.4164%,55.1522%,0.788891%,1)"/>
  <circle cx="15" cy="12" r="1" fill="srgba(46.3294%,62.3133%,11.281%,1)"/>
  <circle cx="0" cy="13" r="1" fill="srgba(214,41,24,1)"/>
  <circle cx="1" cy="13" r="1" fill="srgba(214,41,24,1)"/>
  <circle cx="2" cy="13" r="1" fill="srgba(214,41,24,1)"/>
  <circle cx="3" cy="13" r="1" fill="srgba(214,41,24,1)"/>
  <circle cx="4" cy="13" r="1" fill="srgba(84.1901%,15.6741%,9.02113%,1)"/>
  <circle cx="5" cy="13" r="1" fill="srgba(79.1348%,22.5254%,15.8099%,1)"/>
  <circle cx="6" cy="13" r="1" fill="srgba(65.0797%,35.9533%,20.1633%,1)"/>
  <circle cx="7" cy="13" r="1" fill="srgba(91.6991%,69.3111%,26.5766%,1)"/>
  <circle cx="8" cy="13" r="1" fill="srgba(94.316%,73.55%,29.0867%,1)"/>
  <circle cx="9" cy="13" r="1" fill="srgba(91.7769%,76.7285%,35.3658%,1)"/>
  <circle cx="10" cy="13" r="1" fill="srgba(92.9671%,79.3912%,37.0214%,1)"/>
  <circle cx="11" cy="13" r="1" fill="srgba(93.5958%,78.8632%,35.8083%,1)"/>
  <circle cx="12" cy="13" r="1" fill="srgba(97.2656%,77.5662%,31.5068%,1)"/>
  <circle cx="13" cy="13" r="1" fill="srgba(77.2213%,70.2647%,20.3922%,1)"/>
  <circle cx="14" cy="13" r="1" fill="srgba(31.1055%,56.4508%,2.27665%,1)"/>
  <circle cx="15" cy="13" r="1" fill="srgba(24.2161%,54.2901%,0%,1)"/>
  <circle cx="0" cy="14" r="1" fill="srgba(83.92%,16.0662%,9.39803%,1)"/>
  <circle cx="1" cy="14" r="1" fill="srgba(83.92%,16.0662%,9.39803%,1)"/>
  <circle cx="2" cy="14" r="1" fill="srgba(83.92%,16.0662%,9.39803%,1)"/>
  <circle cx="3" cy="14" r="1" fill="srgba(83.92%,16.0662%,9.39803%,1)"/>
  <circle cx="4" cy="14" r="1" fill="srgba(84.1917%,15.6481%,8.98299%,1)"/>
  <circle cx="5" cy="14" r="1" fill="srgba(79.1501%,22.623%,16.144%,1)"/>
  <circle cx="6" cy="14" r="1" fill="srgba(66.4866%,35.2483%,20.9094%,1)"/>
  <circle cx="7" cy="14" r="1" fill="srgba(92.1431%,69.688%,26.8711%,1)"/>
  <circle cx="8" cy="14" r="1" fill="srgba(90.7851%,66.8254%,26.1128%,1)"/>
  <circle cx="9" cy="14" r="1" fill="srgba(86.2013%,64.3244%,29.9687%,1)"/>
  <circle cx="10" cy="14" r="1" fill="srgba(93.1868%,79.678%,37.0962%,1)"/>
  <circle cx="11" cy="14" r="1" fill="srgba(92.845%,79.2279%,36.875%,1)"/>
  <circle cx="12" cy="14" r="1" fill="srgba(94.0642%,78.6404%,35.0454%,1)"/>
  <circle cx="13" cy="14" r="1" fill="srgba(97.0001%,77.0626%,30.312%,1)"/>
  <circle cx="14" cy="14" r="1" fill="srgba(66.6835%,67.1183%,16.2219%,1)"/>
  <circle cx="15" cy="14" r="1" fill="srgba(33.5485%,57.5311%,4.03601%,1)"/>
  <circle cx="0" cy="15" r="1" fill="srgba(83.9597%,16.3012%,9.64981%,1)"/>
  <circle cx="1" cy="15" r="1" fill="srgba(83.9597%,16.3012%,9.64981%,1)"/>
  <circle cx="2" cy="15" r="1" fill="srgba(83.9597%,16.3012%,9.64981%,1)"/>
  <circle cx="3" cy="15" r="1" fill="srgba(83.9597%,16.3012%,9.64981%,1)"/>
  <circle cx="4" cy="15" r="1" fill="srgba(84.2359%,15.8694%,9.2134%,1)"/>
  <circle cx="5" cy="15" r="1" fill="srgba(79.1424%,23.0274%,16.7117%,1)"/>
  <circle cx="6" cy="15" r="1" fill="srgba(67.0695%,35.256%,21.8997%,1)"/>
  <circle cx="7" cy="15" r="1" fill="srgba(92.0317%,69.2088%,26.8116%,1)"/>
  <circle cx="8" cy="15" r="1" fill="srgba(95.494%,74.8791%,29.6162%,1)"/>
  <circle cx="9" cy="15" r="1" fill="srgba(90.7378%,73.7575%,34.1558%,1)"/>
  <circle cx="10" cy="15" r="1" fill="srgba(92.8405%,78.6633%,36.6537%,1)"/>
  <circle cx="11" cy="15" r="1" fill="srgba(92.4071%,78.8647%,36.4828%,1)"/>
  <circle cx="12" cy="15" r="1" fill="srgba(92.1889%,79.1302%,36.4569%,1)"/>
  <circle cx="13" cy="15" r="1" fill="srgba(94.6181%,78.1979%,33.6614%,1)"/>
  <circle cx="14" cy="15" r="1" fill="srgba(95.552%,76.1852%,28.7205%,1)"/>
  <circle cx="15" cy="15" r="1" fill="srgba(84.2374%,74.3542%,27.776%,1)"/>
</svg>
