<?xml version="1.0" standalone="no"?>
<!DOCTYPE svg PUBLIC "-//W3C//DTD SVG 20010904//EN"
  "http://www.w3.org/TR/2001/REC-SVG-20010904/DTD/svg10.dtd">
<svg width="16" height="16">
  <circle cx="0" cy="0" r="1" fill="srgba(0,98,51,1)"/>
  <circle cx="1" cy="0" r="1" fill="srgba(0,98,51,1)"/>
  <circle cx="2" cy="0" r="1" fill="srgba(0,98,51,1)"/>
  <circle cx="3" cy="0" r="1" fill="srgba(0,98,51,1)"/>
  <circle cx="4" cy="0" r="1" fill="srgba(0,98,51,1)"/>
  <circle cx="5" cy="0" r="1" fill="srgba(0,98,51,1)"/>
  <circle cx="6" cy="0" r="1" fill="srgba(0%,37.9507%,19.3744%,1)"/>
  <circle cx="7" cy="0" r="1" fill="srgba(12.0607%,45.8579%,29.6498%,1)"/>
  <circle cx="8" cy="0" r="1" fill="srgba(87.9393%,92.5734%,90.3502%,1)"/>
  <circle cx="9" cy="0" r="1" fill="white"/>
  <circle cx="10" cy="0" r="1" fill="white"/>
  <circle cx="11" cy="0" r="1" fill="white"/>
  <circle cx="12" cy="0" r="1" fill="white"/>
  <circle cx="13" cy="0" r="1" fill="white"/>
  <circle cx="14" cy="0" r="1" fill="white"/>
  <circle cx="15" cy="0" r="1" fill="white"/>
  <circle cx="0" cy="1" r="1" fill="srgba(0,98,51,1)"/>
  <circle cx="1" cy="1" r="1" fill="srgba(0,98,51,1)"/>
  <circle cx="2" cy="1" r="1" fill="srgba(0,98,51,1)"/>
  <circle cx="3" cy="1" r="1" fill="srgba(0,98,51,1)"/>
  <circle cx="4" cy="1" r="1" fill="srgba(0,98,51,1)"/>
  <circle cx="5" cy="1" r="1" fill="srgba(0,98,51,1)"/>
  <circle cx="6" cy="1" r="1" fill="srgba(0%,37.9507%,19.3744%,1)"/>
  <circle cx="7" cy="1" r="1" fill="srgba(12.0607%,45.8579%,29.6498%,1)"/>
  <circle cx="8" cy="1" r="1" fill="srgba(87.9393%,92.5734%,90.3502%,1)"/>
  <circle cx="9" cy="1" r="1" fill="white"/>
  <circle cx="10" cy="1" r="1" fill="white"/>
  <circle cx="11" cy="1" r="1" fill="white"/>
  <circle cx="12" cy="1" r="1" fill="white"/>
  <circle cx="13" cy="1" r="1" fill="white"/>
  <circle cx="14" cy="1" r="1" fill="white"/>
  <circle cx="15" cy="1" r="1" fill="white"/>
  <circle cx="0" cy="2" r="1" fill="srgba(0,98,51,1)"/>
  <circle cx="1" cy="2" r="1" fill="srgba(0,98,51,1)"/>
  <circle cx="2" cy="2" r="1" fill="srgba(0,98,51,1)"/>
  <circle cx="3" cy="2" r="1" fill="srgba(0,98,51,1)"/>
  <circle cx="4" cy="2" r="1" fill="srgba(0,98,51,1)"/>
  <circle cx="5" cy="2" r="1" fill="srgba(0%,38.4298%,20%,1)"/>
  <circle cx="6" cy="2" r="1" fill="srgba(0%,37.9995%,19.3744%,1)"/>
  <circle cx="7" cy="2" r="1" fill="srgba(12.0607%,46.0273%,29.6468%,1)"/>
  <circle cx="8" cy="2" r="1" fill="srgba(87.9393%,92.6055%,90.3502%,1)"/>
  <circle cx="9" cy="2" r="1" fill="white"/>
  <circle cx="10" cy="2" r="1" fill="white"/>
  <circle cx="11" cy="2" r="1" fill="white"/>
  <circle cx="12" cy="2" r="1" fill="white"/>
  <circle cx="13" cy="2" r="1" fill="white"/>
  <circle cx="14" cy="2" r="1" fill="white"/>
  <circle cx="15" cy="2" r="1" fill="white"/>
  <circle cx="0" cy="3" r="1" fill="srgba(0,98,51,1)"/>
  <circle cx="1" cy="3" r="1" fill="srgba(0,98,51,1)"/>
  <circle cx="2" cy="3" r="1" fill="srgba(0,98,51,1)"/>
  <circle cx="3" cy="3" r="1" fill="srgba(0,98,51,1)"/>
  <circle cx="4" cy="3" r="1" fill="srgba(0%,38.439%,20%,1)"/>
  <circle cx="5" cy="3" r="1" fill="srgba(0%,38.764%,19.9954%,1)"/>
  <circle cx="6" cy="3" r="1" fill="srgba(1.1841%,37.4243%,19.4629%,1)"/>
  <circle cx="7" cy="3" r="1" fill="srgba(18.7594%,41.5839%,28.3757%,1)"/>
  <circle cx="8" cy="3" r="1" fill="srgba(87.5975%,83.2059%,82.8397%,1)"/>
  <circle cx="9" cy="3" r="1" fill="srgba(100%,97.3419%,97.9309%,1)"/>
  <circle cx="10" cy="3" r="1" fill="white"/>
  <circle cx="11" cy="3" r="1" fill="white"/>
  <circle cx="12" cy="3" r="1" fill="white"/>
  <circle cx="13" cy="3" r="1" fill="white"/>
  <circle cx="14" cy="3" r="1" fill="white"/>
  <circle cx="15" cy="3" r="1" fill="white"/>
  <circle cx="0" cy="4" r="1" fill="srgba(0,98,51,1)"/>
  <circle cx="1" cy="4" r="1" fill="srgba(0,98,51,1)"/>
  <circle cx="2" cy="4" r="1" fill="srgba(0,98,51,1)"/>
  <circle cx="3" cy="4" r="1" fill="srgba(0%,38.439%,20%,1)"/>
  <circle cx="4" cy="4" r="1" fill="srgba(0%,38.6007%,19.9985%,1)"/>
  <circle cx="5" cy="4" r="1" fill="srgba(17.9477%,31.4763%,20.0855%,1)"/>
  <circle cx="6" cy="4" r="1" fill="srgba(54.3923%,16.9574%,20.0748%,1)"/>
  <circle cx="7" cy="4" r="1" fill="srgba(68.6732%,15.0561%,23.0457%,1)"/>
  <circle cx="8" cy="4" r="1" fill="srgba(85.7206%,37.9721%,46.4988%,1)"/>
  <circle cx="9" cy="4" r="1" fill="srgba(92.2072%,57.7188%,64.1398%,1)"/>
  <circle cx="10" cy="4" r="1" fill="srgba(97.0581%,84.3702%,86.7247%,1)"/>
  <circle cx="11" cy="4" r="1" fill="srgba(99.9435%,99.7009%,99.7452%,1)"/>
  <circle cx="12" cy="4" r="1" fill="white"/>
  <circle cx="13" cy="4" r="1" fill="white"/>
  <circle cx="14" cy="4" r="1" fill="white"/>
  <circle cx="15" cy="4" r="1" fill="white"/>
  <circle cx="0" cy="5" r="1" fill="srgba(0,98,51,1)"/>
  <circle cx="1" cy="5" r="1" fill="srgba(0,98,51,1)"/>
  <circle cx="2" cy="5" r="1" fill="srgba(0%,38.4298%,20%,1)"/>
  <circle cx="3" cy="5" r="1" fill="srgba(0%,38.764%,19.9954%,1)"/>
  <circle cx="4" cy="5" r="1" fill="srgba(17.9294%,31.5084%,20.0839%,1)"/>
  <circle cx="5" cy="5" r="1" fill="srgba(71.9448%,10.3365%,20.3433%,1)"/>
  <circle cx="6" cy="5" r="1" fill="srgba(66.4897%,11.7464%,19.7452%,1)"/>
  <circle cx="7" cy="5" r="1" fill="srgba(33.0648%,36.6735%,28.9723%,1)"/>
  <circle cx="8" cy="5" r="1" fill="srgba(87.9927%,87.7943%,86.5904%,1)"/>
  <circle cx="9" cy="5" r="1" fill="srgba(99.3927%,93.5836%,94.7387%,1)"/>
  <circle cx="10" cy="5" r="1" fill="srgba(97.2717%,85.5009%,87.686%,1)"/>
  <circle cx="11" cy="5" r="1" fill="srgba(99.1623%,95.5489%,96.2203%,1)"/>
  <circle cx="12" cy="5" r="1" fill="white"/>
  <circle cx="13" cy="5" r="1" fill="white"/>
  <circle cx="14" cy="5" r="1" fill="white"/>
  <circle cx="15" cy="5" r="1" fill="white"/>
  <circle cx="0" cy="6" r="1" fill="srgba(0,98,51,1)"/>
  <circle cx="1" cy="6" r="1" fill="srgba(0,98,51,1)"/>
  <circle cx="2" cy="6" r="1" fill="srgba(0%,38.4771%,20%,1)"/>
  <circle cx="3" cy="6" r="1" fill="srgba(1.51217%,37.8515%,20.0061%,1)"/>
  <circle cx="4" cy="6" r="1" fill="srgba(54.2245%,17.2702%,20.2564%,1)"/>
  <circle cx="5" cy="6" r="1" fill="srgba(78.3993%,7.81109%,20.3738%,1)"/>
  <circle cx="6" cy="6" r="1" fill="srgba(20.0488%,29.9794%,19.5193%,1)"/>
  <circle cx="7" cy="6" r="1" fill="srgba(11.0292%,45.5436%,28.8045%,1)"/>
  <circle cx="8" cy="6" r="1" fill="srgba(86.5919%,85.4795%,84.2969%,1)"/>
  <circle cx="9" cy="6" r="1" fill="srgba(97.5433%,83.2914%,86.0258%,1)"/>
  <circle cx="10" cy="6" r="1" fill="srgba(97.2213%,85.2613%,87.4784%,1)"/>
  <circle cx="11" cy="6" r="1" fill="white"/>
  <circle cx="12" cy="6" r="1" fill="white"/>
  <circle cx="13" cy="6" r="1" fill="white"/>
  <circle cx="14" cy="6" r="1" fill="white"/>
  <circle cx="15" cy="6" r="1" fill="white"/>
  <circle cx="0" cy="7" r="1" fill="srgba(0,98,51,1)"/>
  <circle cx="1" cy="7" r="1" fill="srgba(0,98,51,1)"/>
  <circle cx="2" cy="7" r="1" fill="srgba(0%,38.6297%,19.9969%,1)"/>
  <circle cx="3" cy="7" r="1" fill="srgba(7.93622%,35.3338%,20.0381%,1)"/>
  <circle cx="4" cy="7" r="1" fill="srgba(71.2917%,10.5928%,20.3388%,1)"/>
  <circle cx="5" cy="7" r="1" fill="srgba(64.3595%,13.3425%,20.3052%,1)"/>
  <circle cx="6" cy="7" r="1" fill="srgba(3.30358%,36.5759%,19.44%,1)"/>
  <circle cx="7" cy="7" r="1" fill="srgba(11.7815%,45.8167%,29.5293%,1)"/>
  <circle cx="8" cy="7" r="1" fill="srgba(80.8682%,55.0271%,58.4604%,1)"/>
  <circle cx="9" cy="7" r="1" fill="srgba(85.6611%,20.1801%,32.4193%,1)"/>
  <circle cx="10" cy="7" r="1" fill="srgba(91.0277%,52.3613%,59.5361%,1)"/>
  <circle cx="11" cy="7" r="1" fill="srgba(98.8434%,93.8628%,94.7875%,1)"/>
  <circle cx="12" cy="7" r="1" fill="white"/>
  <circle cx="13" cy="7" r="1" fill="white"/>
  <circle cx="14" cy="7" r="1" fill="white"/>
  <circle cx="15" cy="7" r="1" fill="white"/>
  <circle cx="0" cy="8" r="1" fill="srgba(0,98,51,1)"/>
  <circle cx="1" cy="8" r="1" fill="srgba(0,98,51,1)"/>
  <circle cx="2" cy="8" r="1" fill="srgba(0%,38.6297%,19.9969%,1)"/>
  <circle cx="3" cy="8" r="1" fill="srgba(7.92706%,35.3368%,20.0381%,1)"/>
  <circle cx="4" cy="8" r="1" fill="srgba(71.2795%,10.5974%,20.3388%,1)"/>
  <circle cx="5" cy="8" r="1" fill="srgba(64.3641%,13.341%,20.3052%,1)"/>
  <circle cx="6" cy="8" r="1" fill="srgba(3.3051%,36.5759%,19.44%,1)"/>
  <circle cx="7" cy="8" r="1" fill="srgba(11.7784%,45.8076%,29.5201%,1)"/>
  <circle cx="8" cy="8" r="1" fill="srgba(80.8759%,55.0683%,58.4939%,1)"/>
  <circle cx="9" cy="8" r="1" fill="srgba(85.6748%,20.2609%,32.488%,1)"/>
  <circle cx="10" cy="8" r="1" fill="srgba(91.0307%,52.3827%,59.5529%,1)"/>
  <circle cx="11" cy="8" r="1" fill="srgba(98.8449%,93.8689%,94.7936%,1)"/>
  <circle cx="12" cy="8" r="1" fill="white"/>
  <circle cx="13" cy="8" r="1" fill="white"/>
  <circle cx="14" cy="8" r="1" fill="white"/>
  <circle cx="15" cy="8" r="1" fill="white"/>
  <circle cx="0" cy="9" r="1" fill="srgba(0,98,51,1)"/>
  <circle cx="1" cy="9" r="1" fill="srgba(0,98,51,1)"/>
  <circle cx="2" cy="9" r="1" fill="srgba(0%,38.4771%,20%,1)"/>
  <circle cx="3" cy="9" r="1" fill="srgba(1.49996%,37.8546%,20.0076%,1)"/>
  <circle cx="4" cy="9" r="1" fill="srgba(54.1741%,17.2885%,20.2579%,1)"/>
  <circle cx="5" cy="9" r="1" fill="srgba(78.4207%,7.80346%,20.3723%,1)"/>
  <circle cx="6" cy="9" r="1" fill="srgba(20.1068%,29.9565%,19.5193%,1)"/>
  <circle cx="7" cy="9" r="1" fill="srgba(11.0292%,45.5406%,28.8014%,1)"/>
  <circle cx="8" cy="9" r="1" fill="srgba(86.6041%,85.5436%,84.3519%,1)"/>
  <circle cx="9" cy="9" r="1" fill="srgba(97.5601%,83.3768%,86.0975%,1)"/>
  <circle cx="10" cy="9" r="1" fill="srgba(97.2274%,85.2949%,87.5074%,1)"/>
  <circle cx="11" cy="9" r="1" fill="white"/>
  <circle cx="12" cy="9" r="1" fill="white"/>
  <circle cx="13" cy="9" r="1" fill="white"/>
  <circle cx="14" cy="9" r="1" fill="white"/>
  <circle cx="15" cy="9" r="1" fill="white"/>
  <circle cx="0" cy="10" r="1" fill="srgba(0,98,51,1)"/>
  <circle cx="1" cy="10" r="1" fill="srgba(0,98,51,1)"/>
  <circle cx="2" cy="10" r="1" fill="srgba(0%,38.4298%,20%,1)"/>
  <circle cx="3" cy="10" r="1" fill="srgba(0%,38.764%,19.9954%,1)"/>
  <circle cx="4" cy="10" r="1" fill="srgba(17.8973%,31.519%,20.0839%,1)"/>
  <circle cx="5" cy="10" r="1" fill="srgba(71.9005%,10.3532%,20.3433%,1)"/>
  <circle cx="6" cy="10" r="1" fill="srgba(66.5614%,11.7174%,19.7452%,1)"/>
  <circle cx="7" cy="10" r="1" fill="srgba(33.135%,36.643%,28.9708%,1)"/>
  <circle cx="8" cy="10" r="1" fill="srgba(87.9911%,87.7546%,86.5583%,1)"/>
  <circle cx="9" cy="10" r="1" fill="srgba(99.3866%,93.5576%,94.7158%,1)"/>
  <circle cx="10" cy="10" r="1" fill="srgba(97.2686%,85.4932%,87.6799%,1)"/>
  <circle cx="11" cy="10" r="1" fill="srgba(99.1623%,95.5489%,96.2203%,1)"/>
  <circle cx="12" cy="10" r="1" fill="white"/>
  <circle cx="13" cy="10" r="1" fill="white"/>
  <circle cx="14" cy="10" r="1" fill="white"/>
  <circle cx="15" cy="10" r="1" fill="white"/>
  <circle cx="0" cy="11" r="1" fill="srgba(0,98,51,1)"/>
  <circle cx="1" cy="11" r="1" fill="srgba(0,98,51,1)"/>
  <circle cx="2" cy="11" r="1" fill="srgba(0,98,51,1)"/>
  <circle cx="3" cy="11" r="1" fill="srgba(0%,38.439%,20%,1)"/>
  <circle cx="4" cy="11" r="1" fill="srgba(0%,38.6023%,19.9985%,1)"/>
  <circle cx="5" cy="11" r="1" fill="srgba(17.8698%,31.5053%,20.0839%,1)"/>
  <circle cx="6" cy="11" r="1" fill="srgba(54.2809%,16.9986%,20.0748%,1)"/>
  <circle cx="7" cy="11" r="1" fill="srgba(68.6732%,15.0591%,23.0488%,1)"/>
  <circle cx="8" cy="11" r="1" fill="srgba(85.713%,37.9263%,46.4622%,1)"/>
  <circle cx="9" cy="11" r="1" fill="srgba(92.2225%,57.8012%,64.21%,1)"/>
  <circle cx="10" cy="11" r="1" fill="srgba(97.0764%,84.4724%,86.8116%,1)"/>
  <circle cx="11" cy="11" r="1" fill="srgba(99.9435%,99.6994%,99.7436%,1)"/>
  <circle cx="12" cy="11" r="1" fill="white"/>
  <circle cx="13" cy="11" r="1" fill="white"/>
  <circle cx="14" cy="11" r="1" fill="white"/>
  <circle cx="15" cy="11" r="1" fill="white"/>
  <circle cx="0" cy="12" r="1" fill="srgba(0,98,51,1)"/>
  <circle cx="1" cy="12" r="1" fill="srgba(0,98,51,1)"/>
  <circle cx="2" cy="12" r="1" fill="srgba(0,98,51,1)"/>
  <circle cx="3" cy="12" r="1" fill="srgba(0,98,51,1)"/>
  <circle cx="4" cy="12" r="1" fill="srgba(0%,38.439%,20%,1)"/>
  <circle cx="5" cy="12" r="1" fill="srgba(0%,38.764%,19.9954%,1)"/>
  <circle cx="6" cy="12" r="1" fill="srgba(1.16426%,37.4319%,19.4629%,1)"/>
  <circle cx="7" cy="12" r="1" fill="srgba(18.7396%,41.5961%,28.3803%,1)"/>
  <circle cx="8" cy="12" r="1" fill="srgba(87.5975%,83.2303%,82.8595%,1)"/>
  <circle cx="9" cy="12" r="1" fill="srgba(100%,97.3678%,97.9538%,1)"/>
  <circle cx="10" cy="12" r="1" fill="white"/>
  <circle cx="11" cy="12" r="1" fill="white"/>
  <circle cx="12" cy="12" r="1" fill="white"/>
  <circle cx="13" cy="12" r="1" fill="white"/>
  <circle cx="14" cy="12" r="1" fill="white"/>
  <circle cx="15" cy="12" r="1" fill="white"/>
  <circle cx="0" cy="13" r="1" fill="srgba(0,98,51,1)"/>
  <circle cx="1" cy="13" r="1" fill="srgba(0,98,51,1)"/>
  <circle cx="2" cy="13" r="1" fill="srgba(0,98,51,1)"/>
  <circle cx="3" cy="13" r="1" fill="srgba(0,98,51,1)"/>
  <circle cx="4" cy="13" r="1" fill="srgba(0,98,51,1)"/>
  <circle cx="5" cy="13" r="1" fill="srgba(0%,38.4298%,20%,1)"/>
  <circle cx="6" cy="13" r="1" fill="srgba(0%,37.998%,19.3744%,1)"/>
  <circle cx="7" cy="13" r="1" fill="srgba(12.0607%,46.0258%,29.6468%,1)"/>
  <circle cx="8" cy="13" r="1" fill="srgba(87.9393%,92.6055%,90.3502%,1)"/>
  <circle cx="9" cy="13" r="1" fill="white"/>
  <circle cx="10" cy="13" r="1" fill="white"/>
  <circle cx="11" cy="13" r="1" fill="white"/>
  <circle cx="12" cy="13" r="1" fill="white"/>
  <circle cx="13" cy="13" r="1" fill="white"/>
  <circle cx="14" cy="13" r="1" fill="white"/>
  <circle cx="15" cy="13" r="1" fill="white"/>
  <circle cx="0" cy="14" r="1" fill="srgba(0,98,51,1)"/>
  <circle cx="1" cy="14" r="1" fill="srgba(0,98,51,1)"/>
  <circle cx="2" cy="14" r="1" fill="srgba(0,98,51,1)"/>
  <circle cx="3" cy="14" r="1" fill="srgba(0,98,51,1)"/>
  <circle cx="4" cy="14" r="1" fill="srgba(0,98,51,1)"/>
  <circle cx="5" cy="14" r="1" fill="srgba(0,98,51,1)"/>
  <circle cx="6" cy="14" r="1" fill="srgba(0%,37.9507%,19.3744%,1)"/>
  <circle cx="7" cy="14" r="1" fill="srgba(12.0607%,45.8579%,29.6498%,1)"/>
  <circle cx="8" cy="14" r="1" fill="srgba(87.9393%,92.5734%,90.3502%,1)"/>
  <circle cx="9" cy="14" r="1" fill="white"/>
  <circle cx="10" cy="14" r="1" fill="white"/>
  <circle cx="11" cy="14" r="1" fill="white"/>
  <circle cx="12" cy="14" r="1" fill="white"/>
  <circle cx="13" cy="14" r="1" fill="white"/>
  <circle cx="14" cy="14" r="1" fill="white"/>
  <circle cx="15" cy="14" r="1" fill="white"/>
  <circle cx="0" cy="15" r="1" fill="srgba(0,98,51,1)"/>
  <circle cx="1" cy="15" r="1" fill="srgba(0,98,51,1)"/>
  <circle cx="2" cy="15" r="1" fill="srgba(0,98,51,1)"/>
  <circle cx="3" cy="15" r="1" fill="srgba(0,98,51,1)"/>
  <circle cx="4" cy="15" r="1" fill="srgba(0,98,51,1)"/>
  <circle cx="5" cy="15" r="1" fill="srgba(0,98,51,1)"/>
  <circle cx="6" cy="15" r="1" fill="srgba(0%,37.9507%,19.3744%,1)"/>
  <circle cx="7" cy="15" r="1" fill="srgba(12.0607%,45.8579%,29.6498%,1)"/>
  <circle cx="8" cy="15" r="1" fill="srgba(87.9393%,92.5734%,90.3502%,1)"/>
  <circle cx="9" cy="15" r="1" fill="white"/>
  <circle cx="10" cy="15" r="1" fill="white"/>
  <circle cx="11" cy="15" r="1" fill="white"/>
  <circle cx="12" cy="15" r="1" fill="white"/>
  <circle cx="13" cy="15" r="1" fill="white"/>
  <circle cx="14" cy="15" r="1" fill="white"/>
  <circle cx="15" cy="15" r="1" fill="white"/>
</svg>
