<?xml version="1.0" standalone="no"?>
<!DOCTYPE svg PUBLIC "-//W3C//DTD SVG 20010904//EN"
  "http://www.w3.org/TR/2001/REC-SVG-20010904/DTD/svg10.dtd">
<svg width="16" height="16">
  <circle cx="0" cy="0" r="1" fill="srgba(255,232,0,1)"/>
  <circle cx="1" cy="0" r="1" fill="srgba(255,232,0,1)"/>
  <circle cx="2" cy="0" r="1" fill="srgba(255,232,0,1)"/>
  <circle cx="3" cy="0" r="1" fill="srgba(255,232,0,1)"/>
  <circle cx="4" cy="0" r="1" fill="srgba(100%,90.9789%,0%,1)"/>
  <circle cx="5" cy="0" r="1" fill="srgba(100%,90.9972%,0%,1)"/>
  <circle cx="6" cy="0" r="1" fill="srgba(100%,91.194%,0%,1)"/>
  <circle cx="7" cy="0" r="1" fill="srgba(100%,91.0796%,0%,1)"/>
  <circle cx="8" cy="0" r="1" fill="srgba(100%,91.0033%,0%,1)"/>
  <circle cx="9" cy="0" r="1" fill="srgba(100%,90.9957%,0%,1)"/>
  <circle cx="10" cy="0" r="1" fill="srgba(255,232,0,1)"/>
  <circle cx="11" cy="0" r="1" fill="srgba(255,232,0,1)"/>
  <circle cx="12" cy="0" r="1" fill="srgba(255,232,0,1)"/>
  <circle cx="13" cy="0" r="1" fill="srgba(255,232,0,1)"/>
  <circle cx="14" cy="0" r="1" fill="srgba(255,232,0,1)"/>
  <circle cx="15" cy="0" r="1" fill="srgba(100%,90.9804%,0.00762951%,1)"/>
  <circle cx="0" cy="1" r="1" fill="srgba(255,232,0,1)"/>
  <circle cx="1" cy="1" r="1" fill="srgba(255,232,0,1)"/>
  <circle cx="2" cy="1" r="1" fill="srgba(255,232,0,1)"/>
  <circle cx="3" cy="1" r="1" fill="srgba(100%,90.9728%,0%,1)"/>
  <circle cx="4" cy="1" r="1" fill="srgba(100%,91.1543%,0%,1)"/>
  <circle cx="5" cy="1" r="1" fill="srgba(99.7696%,90.8583%,0%,1)"/>
  <circle cx="6" cy="1" r="1" fill="srgba(97.9538%,87.6539%,0%,1)"/>
  <circle cx="7" cy="1" r="1" fill="srgba(99.1028%,89.5674%,0.0213626%,1)"/>
  <circle cx="8" cy="1" r="1" fill="srgba(99.8138%,90.8476%,0.0167849%,1)"/>
  <circle cx="9" cy="1" r="1" fill="srgba(99.9374%,91.281%,0%,1)"/>
  <circle cx="10" cy="1" r="1" fill="srgba(100%,91.6274%,0%,1)"/>
  <circle cx="11" cy="1" r="1" fill="srgba(100%,91.5816%,0%,1)"/>
  <circle cx="12" cy="1" r="1" fill="srgba(100%,91.4763%,0%,1)"/>
  <circle cx="13" cy="1" r="1" fill="srgba(100%,91.4549%,0%,1)"/>
  <circle cx="14" cy="1" r="1" fill="srgba(100%,91.4427%,0%,1)"/>
  <circle cx="15" cy="1" r="1" fill="srgba(100%,91.4321%,0.00762951%,1)"/>
  <circle cx="0" cy="2" r="1" fill="srgba(255,232,0,1)"/>
  <circle cx="1" cy="2" r="1" fill="srgba(255,232,0,1)"/>
  <circle cx="2" cy="2" r="1" fill="srgba(255,232,0,1)"/>
  <circle cx="3" cy="2" r="1" fill="srgba(100%,91.1955%,0%,1)"/>
  <circle cx="4" cy="2" r="1" fill="srgba(97.6577%,87.5273%,0.437934%,1)"/>
  <circle cx="5" cy="2" r="1" fill="srgba(84.6906%,66.4027%,0.314336%,1)"/>
  <circle cx="6" cy="2" r="1" fill="srgba(72.6574%,46.949%,0%,1)"/>
  <circle cx="7" cy="2" r="1" fill="srgba(73.8125%,52.0653%,2.21103%,1)"/>
  <circle cx="8" cy="2" r="1" fill="srgba(83.9124%,67.1397%,1.98825%,1)"/>
  <circle cx="9" cy="2" r="1" fill="srgba(88.6778%,72.9686%,0%,1)"/>
  <circle cx="10" cy="2" r="1" fill="srgba(86.2211%,69.1157%,0.511177%,1)"/>
  <circle cx="11" cy="2" r="1" fill="srgba(94.4076%,81.8128%,0.225834%,1)"/>
  <circle cx="12" cy="2" r="1" fill="srgba(96.173%,84.1108%,0%,1)"/>
  <circle cx="13" cy="2" r="1" fill="srgba(96.5408%,84.4388%,0%,1)"/>
  <circle cx="14" cy="2" r="1" fill="srgba(96.6644%,84.6296%,0%,1)"/>
  <circle cx="15" cy="2" r="1" fill="srgba(96.7727%,84.8051%,0.00610361%,1)"/>
  <circle cx="0" cy="3" r="1" fill="srgba(255,232,0,1)"/>
  <circle cx="1" cy="3" r="1" fill="srgba(255,232,0,1)"/>
  <circle cx="2" cy="3" r="1" fill="srgba(100%,90.9834%,0%,1)"/>
  <circle cx="3" cy="3" r="1" fill="srgba(100%,91.249%,0%,1)"/>
  <circle cx="4" cy="3" r="1" fill="srgba(94.789%,85.7908%,6.46067%,1)"/>
  <circle cx="5" cy="3" r="1" fill="srgba(59.8856%,50.2678%,8.20325%,1)"/>
  <circle cx="6" cy="3" r="1" fill="srgba(48.1239%,31.1208%,0%,1)"/>
  <circle cx="7" cy="3" r="1" fill="srgba(54.8333%,26.8421%,1.21767%,1)"/>
  <circle cx="8" cy="3" r="1" fill="srgba(57.7279%,33.0205%,0.880446%,1)"/>
  <circle cx="9" cy="3" r="1" fill="srgba(57.0321%,32.8038%,0.262455%,1)"/>
  <circle cx="10" cy="3" r="1" fill="srgba(49.5995%,37.377%,8.90669%,1)"/>
  <circle cx="11" cy="3" r="1" fill="srgba(44.1657%,35.4681%,2.83055%,1)"/>
  <circle cx="12" cy="3" r="1" fill="srgba(44.1276%,35.4406%,0%,1)"/>
  <circle cx="13" cy="3" r="1" fill="srgba(43.2822%,35.5062%,0%,1)"/>
  <circle cx="14" cy="3" r="1" fill="srgba(43.4775%,35.8785%,0%,1)"/>
  <circle cx="15" cy="3" r="1" fill="srgba(43.7507%,36.2448%,0%,1)"/>
  <circle cx="0" cy="4" r="1" fill="srgba(255,232,0,1)"/>
  <circle cx="1" cy="4" r="1" fill="srgba(255,232,0,1)"/>
  <circle cx="2" cy="4" r="1" fill="srgba(100%,90.9758%,0%,1)"/>
  <circle cx="3" cy="4" r="1" fill="srgba(100%,91.9844%,0%,1)"/>
  <circle cx="4" cy="4" r="1" fill="srgba(74.5739%,67.1443%,22.4475%,1)"/>
  <circle cx="5" cy="4" r="1" fill="srgba(38.3703%,25.1225%,21.9532%,1)"/>
  <circle cx="6" cy="4" r="1" fill="srgba(36.0464%,14.287%,2.22477%,1)"/>
  <circle cx="7" cy="4" r="1" fill="srgba(52.0882%,33.7255%,17.0901%,1)"/>
  <circle cx="8" cy="4" r="1" fill="srgba(55.4376%,43.0381%,25.1331%,1)"/>
  <circle cx="9" cy="4" r="1" fill="srgba(40.9201%,27.0405%,3.87427%,1)"/>
  <circle cx="10" cy="4" r="1" fill="srgba(26.7323%,23.4897%,28.5054%,1)"/>
  <circle cx="11" cy="4" r="1" fill="srgba(10.6554%,19.353%,31.5175%,1)"/>
  <circle cx="12" cy="4" r="1" fill="srgba(3.54467%,13.4218%,20.8682%,1)"/>
  <circle cx="13" cy="4" r="1" fill="srgba(2.79698%,12.6543%,20.3098%,1)"/>
  <circle cx="14" cy="4" r="1" fill="srgba(2.50553%,12.0272%,19.4507%,1)"/>
  <circle cx="15" cy="4" r="1" fill="srgba(2.30259%,11.4931%,18.6984%,1)"/>
  <circle cx="0" cy="5" r="1" fill="srgba(255,232,0,1)"/>
  <circle cx="1" cy="5" r="1" fill="srgba(255,232,0,1)"/>
  <circle cx="2" cy="5" r="1" fill="srgba(100%,91.1925%,0%,1)"/>
  <circle cx="3" cy="5" r="1" fill="srgba(96.0632%,88.0354%,2.81529%,1)"/>
  <circle cx="4" cy="5" r="1" fill="srgba(47.8004%,37.6913%,35.108%,1)"/>
  <circle cx="5" cy="5" r="1" fill="srgba(47.1992%,13.9132%,24.0116%,1)"/>
  <circle cx="6" cy="5" r="1" fill="srgba(55.5108%,20.6073%,3.66217%,1)"/>
  <circle cx="7" cy="5" r="1" fill="srgba(50.6386%,45.5695%,42.7634%,1)"/>
  <circle cx="8" cy="5" r="1" fill="srgba(58.5901%,61.4115%,62.8794%,1)"/>
  <circle cx="9" cy="5" r="1" fill="srgba(53.9681%,33.492%,17.6959%,1)"/>
  <circle cx="10" cy="5" r="1" fill="srgba(45.2918%,35.8862%,44.1566%,1)"/>
  <circle cx="11" cy="5" r="1" fill="srgba(32.7337%,62.9984%,88.3742%,1)"/>
  <circle cx="12" cy="5" r="1" fill="srgba(31.3466%,67.8813%,93.5134%,1)"/>
  <circle cx="13" cy="5" r="1" fill="srgba(32.2408%,67.6432%,92.7306%,1)"/>
  <circle cx="14" cy="5" r="1" fill="srgba(32.8923%,67.6585%,92.2957%,1)"/>
  <circle cx="15" cy="5" r="1" fill="srgba(33.4386%,67.6463%,91.8868%,1)"/>
  <circle cx="0" cy="6" r="1" fill="srgba(100%,91.6304%,0%,1)"/>
  <circle cx="1" cy="6" r="1" fill="srgba(100%,91.6274%,0%,1)"/>
  <circle cx="2" cy="6" r="1" fill="srgba(100%,92.813%,0%,1)"/>
  <circle cx="3" cy="6" r="1" fill="srgba(70.6065%,65.2873%,21.5152%,1)"/>
  <circle cx="4" cy="6" r="1" fill="srgba(31.7098%,15.6252%,47.1931%,1)"/>
  <circle cx="5" cy="6" r="1" fill="srgba(62.0233%,8.37415%,19.0448%,1)"/>
  <circle cx="6" cy="6" r="1" fill="srgba(64.4053%,23.299%,1.36873%,1)"/>
  <circle cx="7" cy="6" r="1" fill="srgba(57.0626%,54.2992%,50.0221%,1)"/>
  <circle cx="8" cy="6" r="1" fill="srgba(58.9212%,74.1085%,62.5223%,1)"/>
  <circle cx="9" cy="6" r="1" fill="srgba(74.02%,37.7966%,18.4268%,1)"/>
  <circle cx="10" cy="6" r="1" fill="srgba(56.3287%,24.3503%,41.6709%,1)"/>
  <circle cx="11" cy="6" r="1" fill="srgba(35.4253%,65.4765%,89.662%,1)"/>
  <circle cx="12" cy="6" r="1" fill="srgba(30.9804%,70.9041%,98.9883%,1)"/>
  <circle cx="13" cy="6" r="1" fill="srgba(32.0668%,70.9285%,98.4604%,1)"/>
  <circle cx="14" cy="6" r="1" fill="srgba(32.7825%,71.2596%,98.526%,1)"/>
  <circle cx="15" cy="6" r="1" fill="srgba(33.434%,71.5679%,98.587%,1)"/>
  <circle cx="0" cy="7" r="1" fill="srgba(87.9255%,80.94%,6.72313%,1)"/>
  <circle cx="1" cy="7" r="1" fill="srgba(88.0812%,81.0925%,6.59037%,1)"/>
  <circle cx="2" cy="7" r="1" fill="srgba(85.7771%,78.851%,8.46571%,1)"/>
  <circle cx="3" cy="7" r="1" fill="srgba(30.6966%,28.986%,51.22%,1)"/>
  <circle cx="4" cy="7" r="1" fill="srgba(46.5995%,26.9612%,33.9208%,1)"/>
  <circle cx="5" cy="7" r="1" fill="srgba(59.1928%,7.94385%,21.5183%,1)"/>
  <circle cx="6" cy="7" r="1" fill="srgba(61.9272%,14.4045%,4.21454%,1)"/>
  <circle cx="7" cy="7" r="1" fill="srgba(54.1985%,52.2148%,51.1147%,1)"/>
  <circle cx="8" cy="7" r="1" fill="srgba(47.5776%,63.6637%,66.0517%,1)"/>
  <circle cx="9" cy="7" r="1" fill="srgba(68.6976%,24.2649%,21.2924%,1)"/>
  <circle cx="10" cy="7" r="1" fill="srgba(51.9341%,14.8455%,33.3486%,1)"/>
  <circle cx="11" cy="7" r="1" fill="srgba(27.3381%,60.7599%,88.6122%,1)"/>
  <circle cx="12" cy="7" r="1" fill="srgba(21.0346%,66.3951%,98.1888%,1)"/>
  <circle cx="13" cy="7" r="1" fill="srgba(21.3642%,66.0121%,97.6196%,1)"/>
  <circle cx="14" cy="7" r="1" fill="srgba(21.326%,65.9953%,97.6165%,1)"/>
  <circle cx="15" cy="7" r="1" fill="srgba(21.2924%,65.98%,97.615%,1)"/>
  <circle cx="0" cy="8" r="1" fill="srgba(12.0485%,17.8576%,48.9754%,1)"/>
  <circle cx="1" cy="8" r="1" fill="srgba(12.1141%,17.9995%,48.7282%,1)"/>
  <circle cx="2" cy="8" r="1" fill="srgba(10.9834%,14.5602%,54.725%,1)"/>
  <circle cx="3" cy="8" r="1" fill="srgba(1.44198%,4.00244%,68.8258%,1)"/>
  <circle cx="4" cy="8" r="1" fill="srgba(29.4682%,15.6619%,37.7707%,1)"/>
  <circle cx="5" cy="8" r="1" fill="srgba(58.3001%,27.7241%,24.8859%,1)"/>
  <circle cx="6" cy="8" r="1" fill="srgba(50.1823%,21.4481%,17.1283%,1)"/>
  <circle cx="7" cy="8" r="1" fill="srgba(56.8933%,49.3065%,39.7055%,1)"/>
  <circle cx="8" cy="8" r="1" fill="srgba(52.6741%,47.4754%,42.8077%,1)"/>
  <circle cx="9" cy="8" r="1" fill="srgba(41.7075%,28.6671%,47.8676%,1)"/>
  <circle cx="10" cy="8" r="1" fill="srgba(58.3734%,35.7321%,32.0043%,1)"/>
  <circle cx="11" cy="8" r="1" fill="srgba(27.1275%,62.8183%,90.2953%,1)"/>
  <circle cx="12" cy="8" r="1" fill="srgba(21.6861%,66.5309%,98.0652%,1)"/>
  <circle cx="13" cy="8" r="1" fill="srgba(56,169,249,1)"/>
  <circle cx="14" cy="8" r="1" fill="srgba(56,169,249,1)"/>
  <circle cx="15" cy="8" r="1" fill="srgba(56,169,249,1)"/>
  <circle cx="0" cy="9" r="1" fill="srgba(0%,7.20073%,56.1151%,1)"/>
  <circle cx="1" cy="9" r="1" fill="srgba(0%,7.12596%,56.0952%,1)"/>
  <circle cx="2" cy="9" r="1" fill="srgba(0%,2.99535%,64.8081%,1)"/>
  <circle cx="3" cy="9" r="1" fill="srgba(0%,4.11383%,64.477%,1)"/>
  <circle cx="4" cy="9" r="1" fill="srgba(17.7417%,7.06798%,42.9496%,1)"/>
  <circle cx="5" cy="9" r="1" fill="srgba(40.6455%,21.5045%,28.7343%,1)"/>
  <circle cx="6" cy="9" r="1" fill="srgba(33.7606%,21.4725%,24.9714%,1)"/>
  <circle cx="7" cy="9" r="1" fill="srgba(52.1004%,31.4961%,34.0719%,1)"/>
  <circle cx="8" cy="9" r="1" fill="srgba(41.03%,35.2789%,39.0997%,1)"/>
  <circle cx="9" cy="9" r="1" fill="srgba(26.3844%,36.1044%,51.0979%,1)"/>
  <circle cx="10" cy="9" r="1" fill="srgba(41.8799%,35.1064%,44.8814%,1)"/>
  <circle cx="11" cy="9" r="1" fill="srgba(24.033%,62.62%,92.9793%,1)"/>
  <circle cx="12" cy="9" r="1" fill="srgba(21.8173%,66.4637%,97.9171%,1)"/>
  <circle cx="13" cy="9" r="1" fill="srgba(56,169,249,1)"/>
  <circle cx="14" cy="9" r="1" fill="srgba(56,169,249,1)"/>
  <circle cx="15" cy="9" r="1" fill="srgba(56,169,249,1)"/>
  <circle cx="0" cy="10" r="1" fill="srgba(0%,7.91638%,56.0754%,1)"/>
  <circle cx="1" cy="10" r="1" fill="srgba(0%,7.72107%,56.022%,1)"/>
  <circle cx="2" cy="10" r="1" fill="srgba(0%,3.86358%,64.3565%,1)"/>
  <circle cx="3" cy="10" r="1" fill="srgba(0%,6.66972%,59.4263%,1)"/>
  <circle cx="4" cy="10" r="1" fill="srgba(14.3236%,6.49729%,45.5863%,1)"/>
  <circle cx="5" cy="10" r="1" fill="srgba(14.2519%,6.02579%,44.9439%,1)"/>
  <circle cx="6" cy="10" r="1" fill="srgba(11.5679%,9.73831%,43.0823%,1)"/>
  <circle cx="7" cy="10" r="1" fill="srgba(34.9691%,14.8318%,39.3698%,1)"/>
  <circle cx="8" cy="10" r="1" fill="srgba(15.584%,16.0159%,55.8602%,1)"/>
  <circle cx="9" cy="10" r="1" fill="srgba(2.64744%,12.7626%,58.3261%,1)"/>
  <circle cx="10" cy="10" r="1" fill="srgba(18.7564%,36.7956%,71.6243%,1)"/>
  <circle cx="11" cy="10" r="1" fill="srgba(22.7756%,64.3687%,95.3063%,1)"/>
  <circle cx="12" cy="10" r="1" fill="srgba(21.915%,66.3828%,97.7798%,1)"/>
  <circle cx="13" cy="10" r="1" fill="srgba(56,169,249,1)"/>
  <circle cx="14" cy="10" r="1" fill="srgba(56,169,249,1)"/>
  <circle cx="15" cy="10" r="1" fill="srgba(56,169,249,1)"/>
  <circle cx="0" cy="11" r="1" fill="srgba(10.5287%,6.95048%,49.4438%,1)"/>
  <circle cx="1" cy="11" r="1" fill="srgba(7.69055%,6.06241%,53.5988%,1)"/>
  <circle cx="2" cy="11" r="1" fill="srgba(6.75975%,3.62097%,59.9969%,1)"/>
  <circle cx="3" cy="11" r="1" fill="srgba(9.92752%,6.82689%,50.1793%,1)"/>
  <circle cx="4" cy="11" r="1" fill="srgba(21.181%,5.78927%,41.6587%,1)"/>
  <circle cx="5" cy="11" r="1" fill="srgba(16.9696%,6.20127%,44.744%,1)"/>
  <circle cx="6" cy="11" r="1" fill="srgba(10.4799%,6.73381%,49.1493%,1)"/>
  <circle cx="7" cy="11" r="1" fill="srgba(13.2235%,11.3985%,50.6844%,1)"/>
  <circle cx="8" cy="11" r="1" fill="srgba(12.7749%,15.7595%,55.2117%,1)"/>
  <circle cx="9" cy="11" r="1" fill="srgba(10.3761%,5.95712%,48.5481%,1)"/>
  <circle cx="10" cy="11" r="1" fill="srgba(18.2879%,30.9377%,67.0359%,1)"/>
  <circle cx="11" cy="11" r="1" fill="srgba(22.6017%,65.6184%,96.6003%,1)"/>
  <circle cx="12" cy="11" r="1" fill="srgba(21.9211%,66.3508%,97.7447%,1)"/>
  <circle cx="13" cy="11" r="1" fill="srgba(56,169,249,1)"/>
  <circle cx="14" cy="11" r="1" fill="srgba(56,169,249,1)"/>
  <circle cx="15" cy="11" r="1" fill="srgba(56,169,249,1)"/>
  <circle cx="0" cy="12" r="1" fill="srgba(76.1273%,0.959792%,11.4244%,1)"/>
  <circle cx="1" cy="12" r="1" fill="srgba(46.7887%,0.746166%,34.8531%,1)"/>
  <circle cx="2" cy="12" r="1" fill="srgba(57.2915%,0.578317%,26.9841%,1)"/>
  <circle cx="3" cy="12" r="1" fill="srgba(76.1242%,0.970474%,11.5221%,1)"/>
  <circle cx="4" cy="12" r="1" fill="srgba(75.4726%,0.798047%,10.3304%,1)"/>
  <circle cx="5" cy="12" r="1" fill="srgba(75.3429%,0.860609%,11.1131%,1)"/>
  <circle cx="6" cy="12" r="1" fill="srgba(75.4498%,0.62562%,11.9493%,1)"/>
  <circle cx="7" cy="12" r="1" fill="srgba(70.074%,5.87625%,18.4726%,1)"/>
  <circle cx="8" cy="12" r="1" fill="srgba(65.6474%,10.695%,24.6662%,1)"/>
  <circle cx="9" cy="12" r="1" fill="srgba(75.6176%,0.228885%,11.1788%,1)"/>
  <circle cx="10" cy="12" r="1" fill="srgba(71.2657%,6.56291%,17.7066%,1)"/>
  <circle cx="11" cy="12" r="1" fill="srgba(34.1421%,52.7916%,78.6877%,1)"/>
  <circle cx="12" cy="12" r="1" fill="srgba(21.239%,67.0756%,98.7747%,1)"/>
  <circle cx="13" cy="12" r="1" fill="srgba(21.9654%,66.2699%,97.641%,1)"/>
  <circle cx="14" cy="12" r="1" fill="srgba(56,169,249,1)"/>
  <circle cx="15" cy="12" r="1" fill="srgba(56,169,249,1)"/>
  <circle cx="0" cy="13" r="1" fill="srgba(80.1175%,0%,10.2388%,1)"/>
  <circle cx="1" cy="13" r="1" fill="srgba(45.7115%,0%,37.1588%,1)"/>
  <circle cx="2" cy="13" r="1" fill="srgba(80.8423%,0%,9.87869%,1)"/>
  <circle cx="3" cy="13" r="1" fill="srgba(86.5095%,0%,5.72519%,1)"/>
  <circle cx="4" cy="13" r="1" fill="srgba(84.5258%,0%,5.00191%,1)"/>
  <circle cx="5" cy="13" r="1" fill="srgba(85.2247%,0%,5.37881%,1)"/>
  <circle cx="6" cy="13" r="1" fill="srgba(86.5782%,0%,5.51919%,1)"/>
  <circle cx="7" cy="13" r="1" fill="srgba(80.3922%,4.55634%,12.1126%,1)"/>
  <circle cx="8" cy="13" r="1" fill="srgba(75.0317%,9.31563%,18.6542%,1)"/>
  <circle cx="9" cy="13" r="1" fill="srgba(86.4485%,0%,5.33913%,1)"/>
  <circle cx="10" cy="13" r="1" fill="srgba(85.2293%,0%,3.92004%,1)"/>
  <circle cx="11" cy="13" r="1" fill="srgba(59.6368%,26.2455%,41.7517%,1)"/>
  <circle cx="12" cy="13" r="1" fill="srgba(22.7436%,65.5055%,96.6323%,1)"/>
  <circle cx="13" cy="13" r="1" fill="srgba(21.8738%,66.3645%,97.7707%,1)"/>
  <circle cx="14" cy="13" r="1" fill="srgba(56,169,249,1)"/>
  <circle cx="15" cy="13" r="1" fill="srgba(56,169,249,1)"/>
  <circle cx="0" cy="14" r="1" fill="srgba(72.4727%,0%,15.8846%,1)"/>
  <circle cx="1" cy="14" r="1" fill="srgba(60.4227%,0%,25.1957%,1)"/>
  <circle cx="2" cy="14" r="1" fill="srgba(86.1585%,0%,5.7496%,1)"/>
  <circle cx="3" cy="14" r="1" fill="srgba(85.5573%,0%,6.32639%,1)"/>
  <circle cx="4" cy="14" r="1" fill="srgba(83.6606%,0%,5.23232%,1)"/>
  <circle cx="5" cy="14" r="1" fill="srgba(84.5563%,0%,5.72824%,1)"/>
  <circle cx="6" cy="14" r="1" fill="srgba(85.8854%,0%,5.95254%,1)"/>
  <circle cx="7" cy="14" r="1" fill="srgba(80.0763%,4.10163%,11.8212%,1)"/>
  <circle cx="8" cy="14" r="1" fill="srgba(74.818%,8.67018%,18.0575%,1)"/>
  <circle cx="9" cy="14" r="1" fill="srgba(85.7404%,0%,5.79232%,1)"/>
  <circle cx="10" cy="14" r="1" fill="srgba(84.1093%,0%,4.80812%,1)"/>
  <circle cx="11" cy="14" r="1" fill="srgba(79.8825%,5.01717%,12.2194%,1)"/>
  <circle cx="12" cy="14" r="1" fill="srgba(36.8582%,50.8278%,76.3577%,1)"/>
  <circle cx="13" cy="14" r="1" fill="srgba(21.2039%,67.0634%,98.735%,1)"/>
  <circle cx="14" cy="14" r="1" fill="srgba(21.9623%,66.273%,97.644%,1)"/>
  <circle cx="15" cy="14" r="1" fill="srgba(56,169,249,1)"/>
  <circle cx="0" cy="15" r="1" fill="srgba(77.2366%,0%,11.4534%,1)"/>
  <circle cx="1" cy="15" r="1" fill="srgba(79.0692%,0%,10.5028%,1)"/>
  <circle cx="2" cy="15" r="1" fill="srgba(85.9129%,0%,5.99374%,1)"/>
  <circle cx="3" cy="15" r="1" fill="srgba(85.5497%,0%,6.32029%,1)"/>
  <circle cx="4" cy="15" r="1" fill="srgba(84.0513%,0%,5.50698%,1)"/>
  <circle cx="5" cy="15" r="1" fill="srgba(84.6433%,0%,5.8381%,1)"/>
  <circle cx="6" cy="15" r="1" fill="srgba(85.8564%,0%,5.99069%,1)"/>
  <circle cx="7" cy="15" r="1" fill="srgba(80.3159%,3.70336%,11.2673%,1)"/>
  <circle cx="8" cy="15" r="1" fill="srgba(75.1171%,8.08423%,17.2335%,1)"/>
  <circle cx="9" cy="15" r="1" fill="srgba(85.6535%,0%,5.83047%,1)"/>
  <circle cx="10" cy="15" r="1" fill="srgba(84.0116%,0%,5.49325%,1)"/>
  <circle cx="11" cy="15" r="1" fill="srgba(85.6413%,0%,4.50294%,1)"/>
  <circle cx="12" cy="15" r="1" fill="srgba(60.4013%,26.424%,42.4552%,1)"/>
  <circle cx="13" cy="15" r="1" fill="srgba(22.5223%,65.6748%,96.8383%,1)"/>
  <circle cx="14" cy="15" r="1" fill="srgba(21.8982%,66.3401%,97.7371%,1)"/>
  <circle cx="15" cy="15" r="1" fill="srgba(56,169,249,1)"/>
</svg>
