<?xml version="1.0" standalone="no"?>
<!DOCTYPE svg PUBLIC "-//W3C//DTD SVG 20010904//EN"
  "http://www.w3.org/TR/2001/REC-SVG-20010904/DTD/svg10.dtd">
<svg width="16" height="16">
  <circle cx="0" cy="0" r="1" fill="srgba(206,17,38,1)"/>
  <circle cx="1" cy="0" r="1" fill="srgba(206,17,38,1)"/>
  <circle cx="2" cy="0" r="1" fill="srgba(206,17,38,1)"/>
  <circle cx="3" cy="0" r="1" fill="srgba(206,17,38,1)"/>
  <circle cx="4" cy="0" r="1" fill="srgba(206,17,38,1)"/>
  <circle cx="5" cy="0" r="1" fill="srgba(206,17,38,1)"/>
  <circle cx="6" cy="0" r="1" fill="srgba(206,17,38,1)"/>
  <circle cx="7" cy="0" r="1" fill="srgba(206,17,38,1)"/>
  <circle cx="8" cy="0" r="1" fill="srgba(206,17,38,1)"/>
  <circle cx="9" cy="0" r="1" fill="srgba(206,17,38,1)"/>
  <circle cx="10" cy="0" r="1" fill="srgba(206,17,38,1)"/>
  <circle cx="11" cy="0" r="1" fill="srgba(206,17,38,1)"/>
  <circle cx="12" cy="0" r="1" fill="srgba(206,17,38,1)"/>
  <circle cx="13" cy="0" r="1" fill="srgba(206,17,38,1)"/>
  <circle cx="14" cy="0" r="1" fill="srgba(206,17,38,1)"/>
  <circle cx="15" cy="0" r="1" fill="srgba(206,17,38,1)"/>
  <circle cx="0" cy="1" r="1" fill="srgba(206,17,38,1)"/>
  <circle cx="1" cy="1" r="1" fill="srgba(206,17,38,1)"/>
  <circle cx="2" cy="1" r="1" fill="srgba(206,17,38,1)"/>
  <circle cx="3" cy="1" r="1" fill="srgba(206,17,38,1)"/>
  <circle cx="4" cy="1" r="1" fill="srgba(206,17,38,1)"/>
  <circle cx="5" cy="1" r="1" fill="srgba(206,17,38,1)"/>
  <circle cx="6" cy="1" r="1" fill="srgba(206,17,38,1)"/>
  <circle cx="7" cy="1" r="1" fill="srgba(206,17,38,1)"/>
  <circle cx="8" cy="1" r="1" fill="srgba(206,17,38,1)"/>
  <circle cx="9" cy="1" r="1" fill="srgba(206,17,38,1)"/>
  <circle cx="10" cy="1" r="1" fill="srgba(206,17,38,1)"/>
  <circle cx="11" cy="1" r="1" fill="srgba(206,17,38,1)"/>
  <circle cx="12" cy="1" r="1" fill="srgba(206,17,38,1)"/>
  <circle cx="13" cy="1" r="1" fill="srgba(206,17,38,1)"/>
  <circle cx="14" cy="1" r="1" fill="srgba(206,17,38,1)"/>
  <circle cx="15" cy="1" r="1" fill="srgba(206,17,38,1)"/>
  <circle cx="0" cy="2" r="1" fill="srgba(206,17,38,1)"/>
  <circle cx="1" cy="2" r="1" fill="srgba(206,17,38,1)"/>
  <circle cx="2" cy="2" r="1" fill="srgba(206,17,38,1)"/>
  <circle cx="3" cy="2" r="1" fill="srgba(206,17,38,1)"/>
  <circle cx="4" cy="2" r="1" fill="srgba(206,17,38,1)"/>
  <circle cx="5" cy="2" r="1" fill="srgba(206,17,38,1)"/>
  <circle cx="6" cy="2" r="1" fill="srgba(206,17,38,1)"/>
  <circle cx="7" cy="2" r="1" fill="srgba(206,17,38,1)"/>
  <circle cx="8" cy="2" r="1" fill="srgba(206,17,38,1)"/>
  <circle cx="9" cy="2" r="1" fill="srgba(206,17,38,1)"/>
  <circle cx="10" cy="2" r="1" fill="srgba(206,17,38,1)"/>
  <circle cx="11" cy="2" r="1" fill="srgba(206,17,38,1)"/>
  <circle cx="12" cy="2" r="1" fill="srgba(206,17,38,1)"/>
  <circle cx="13" cy="2" r="1" fill="srgba(206,17,38,1)"/>
  <circle cx="14" cy="2" r="1" fill="srgba(206,17,38,1)"/>
  <circle cx="15" cy="2" r="1" fill="srgba(206,17,38,1)"/>
  <circle cx="0" cy="3" r="1" fill="srgba(80.7752%,6.62547%,14.8638%,1)"/>
  <circle cx="1" cy="3" r="1" fill="srgba(80.7752%,6.62547%,14.8638%,1)"/>
  <circle cx="2" cy="3" r="1" fill="srgba(80.7752%,6.62547%,14.8638%,1)"/>
  <circle cx="3" cy="3" r="1" fill="srgba(80.7752%,6.62547%,14.8638%,1)"/>
  <circle cx="4" cy="3" r="1" fill="srgba(80.7752%,6.62547%,14.8638%,1)"/>
  <circle cx="5" cy="3" r="1" fill="srgba(80.7752%,6.62547%,14.8638%,1)"/>
  <circle cx="6" cy="3" r="1" fill="srgba(80.7752%,6.62547%,14.8638%,1)"/>
  <circle cx="7" cy="3" r="1" fill="srgba(80.7752%,6.62547%,14.8638%,1)"/>
  <circle cx="8" cy="3" r="1" fill="srgba(80.7752%,6.62547%,14.8638%,1)"/>
  <circle cx="9" cy="3" r="1" fill="srgba(80.7752%,6.62547%,14.8638%,1)"/>
  <circle cx="10" cy="3" r="1" fill="srgba(80.7752%,6.62547%,14.8638%,1)"/>
  <circle cx="11" cy="3" r="1" fill="srgba(80.7752%,6.62547%,14.8638%,1)"/>
  <circle cx="12" cy="3" r="1" fill="srgba(80.7752%,6.62547%,14.8638%,1)"/>
  <circle cx="13" cy="3" r="1" fill="srgba(80.7752%,6.62547%,14.8638%,1)"/>
  <circle cx="14" cy="3" r="1" fill="srgba(80.7752%,6.62547%,14.8638%,1)"/>
  <circle cx="15" cy="3" r="1" fill="srgba(80.7752%,6.62547%,14.8638%,1)"/>
  <circle cx="0" cy="4" r="1" fill="srgba(80.8698%,7.08019%,15.2789%,1)"/>
  <circle cx="1" cy="4" r="1" fill="srgba(80.8698%,7.08019%,15.2789%,1)"/>
  <circle cx="2" cy="4" r="1" fill="srgba(80.8698%,7.08019%,15.2789%,1)"/>
  <circle cx="3" cy="4" r="1" fill="srgba(80.8698%,7.08019%,15.2789%,1)"/>
  <circle cx="4" cy="4" r="1" fill="srgba(80.8698%,7.08019%,15.2789%,1)"/>
  <circle cx="5" cy="4" r="1" fill="srgba(80.8698%,7.08019%,15.2789%,1)"/>
  <circle cx="6" cy="4" r="1" fill="srgba(80.8728%,7.08476%,15.2911%,1)"/>
  <circle cx="7" cy="4" r="1" fill="srgba(80.911%,7.1519%,15.4467%,1)"/>
  <circle cx="8" cy="4" r="1" fill="srgba(80.8515%,7.04967%,15.2056%,1)"/>
  <circle cx="9" cy="4" r="1" fill="srgba(80.8499%,7.04662%,15.198%,1)"/>
  <circle cx="10" cy="4" r="1" fill="srgba(80.8591%,7.06493%,15.2407%,1)"/>
  <circle cx="11" cy="4" r="1" fill="srgba(80.8713%,7.08324%,15.285%,1)"/>
  <circle cx="12" cy="4" r="1" fill="srgba(80.882%,7.10307%,15.3323%,1)"/>
  <circle cx="13" cy="4" r="1" fill="srgba(80.8652%,7.07408%,15.2605%,1)"/>
  <circle cx="14" cy="4" r="1" fill="srgba(80.8469%,7.04356%,15.1904%,1)"/>
  <circle cx="15" cy="4" r="1" fill="srgba(80.853%,7.05119%,15.2117%,1)"/>
  <circle cx="0" cy="5" r="1" fill="srgba(93.1792%,66.8757%,69.7978%,1)"/>
  <circle cx="1" cy="5" r="1" fill="srgba(93.1792%,66.8757%,69.7978%,1)"/>
  <circle cx="2" cy="5" r="1" fill="srgba(93.1792%,66.8757%,69.7978%,1)"/>
  <circle cx="3" cy="5" r="1" fill="srgba(93.1792%,66.8757%,69.7978%,1)"/>
  <circle cx="4" cy="5" r="1" fill="srgba(93.1792%,66.8742%,69.7963%,1)"/>
  <circle cx="5" cy="5" r="1" fill="srgba(93.1899%,66.894%,69.8421%,1)"/>
  <circle cx="6" cy="5" r="1" fill="srgba(93.3211%,67.1199%,70.3731%,1)"/>
  <circle cx="7" cy="5" r="1" fill="srgba(90.399%,62.1103%,58.5428%,1)"/>
  <circle cx="8" cy="5" r="1" fill="srgba(90.457%,62.2141%,58.8037%,1)"/>
  <circle cx="9" cy="5" r="1" fill="srgba(91.0582%,63.2441%,61.2222%,1)"/>
  <circle cx="10" cy="5" r="1" fill="srgba(91.1803%,63.447%,61.6907%,1)"/>
  <circle cx="11" cy="5" r="1" fill="srgba(91.2963%,63.6362%,62.1561%,1)"/>
  <circle cx="12" cy="5" r="1" fill="srgba(91.3436%,63.7247%,62.3468%,1)"/>
  <circle cx="13" cy="5" r="1" fill="srgba(92.0333%,64.9027%,65.124%,1)"/>
  <circle cx="14" cy="5" r="1" fill="srgba(92.6726%,65.9968%,67.7119%,1)"/>
  <circle cx="15" cy="5" r="1" fill="srgba(92.7581%,66.1524%,68.0842%,1)"/>
  <circle cx="0" cy="6" r="1" fill="white"/>
  <circle cx="1" cy="6" r="1" fill="white"/>
  <circle cx="2" cy="6" r="1" fill="white"/>
  <circle cx="3" cy="6" r="1" fill="white"/>
  <circle cx="4" cy="6" r="1" fill="white"/>
  <circle cx="5" cy="6" r="1" fill="srgba(99.675%,99.4675%,98.6847%,1)"/>
  <circle cx="6" cy="6" r="1" fill="srgba(95.9686%,93.7606%,83.772%,1)"/>
  <circle cx="7" cy="6" r="1" fill="srgba(93.3776%,89.633%,73.312%,1)"/>
  <circle cx="8" cy="6" r="1" fill="srgba(95.0072%,92.4971%,79.9268%,1)"/>
  <circle cx="9" cy="6" r="1" fill="srgba(94.6395%,91.8624%,78.439%,1)"/>
  <circle cx="10" cy="6" r="1" fill="srgba(97.2045%,96.26%,88.8197%,1)"/>
  <circle cx="11" cy="6" r="1" fill="srgba(98.1277%,97.8485%,92.5521%,1)"/>
  <circle cx="12" cy="6" r="1" fill="srgba(98.7457%,98.7625%,95.05%,1)"/>
  <circle cx="13" cy="6" r="1" fill="srgba(99.8367%,99.9084%,99.3927%,1)"/>
  <circle cx="14" cy="6" r="1" fill="white"/>
  <circle cx="15" cy="6" r="1" fill="white"/>
  <circle cx="0" cy="7" r="1" fill="white"/>
  <circle cx="1" cy="7" r="1" fill="white"/>
  <circle cx="2" cy="7" r="1" fill="white"/>
  <circle cx="3" cy="7" r="1" fill="white"/>
  <circle cx="4" cy="7" r="1" fill="white"/>
  <circle cx="5" cy="7" r="1" fill="srgba(99.1653%,98.5702%,96.6384%,1)"/>
  <circle cx="6" cy="7" r="1" fill="srgba(87.9774%,79.3927%,51.4153%,1)"/>
  <circle cx="7" cy="7" r="1" fill="srgba(88.0797%,79.5666%,51.7922%,1)"/>
  <circle cx="8" cy="7" r="1" fill="srgba(88.8975%,80.972%,55.082%,1)"/>
  <circle cx="9" cy="7" r="1" fill="srgba(91.0826%,84.715%,63.9124%,1)"/>
  <circle cx="10" cy="7" r="1" fill="srgba(91.0994%,84.744%,63.9841%,1)"/>
  <circle cx="11" cy="7" r="1" fill="srgba(89.6162%,82.1973%,57.969%,1)"/>
  <circle cx="12" cy="7" r="1" fill="srgba(88.1407%,79.6674%,51.9905%,1)"/>
  <circle cx="13" cy="7" r="1" fill="srgba(97.7295%,96.1028%,90.7988%,1)"/>
  <circle cx="14" cy="7" r="1" fill="srgba(98.6999%,97.7676%,94.7265%,1)"/>
  <circle cx="15" cy="7" r="1" fill="srgba(99.0646%,98.3932%,96.2051%,1)"/>
  <circle cx="0" cy="8" r="1" fill="white"/>
  <circle cx="1" cy="8" r="1" fill="white"/>
  <circle cx="2" cy="8" r="1" fill="white"/>
  <circle cx="3" cy="8" r="1" fill="white"/>
  <circle cx="4" cy="8" r="1" fill="white"/>
  <circle cx="5" cy="8" r="1" fill="srgba(98.8968%,98.1094%,95.5993%,1)"/>
  <circle cx="6" cy="8" r="1" fill="srgba(87.1077%,77.8988%,48.069%,1)"/>
  <circle cx="7" cy="8" r="1" fill="srgba(86.9902%,77.6959%,47.3411%,1)"/>
  <circle cx="8" cy="8" r="1" fill="srgba(91.5114%,85.452%,65.6489%,1)"/>
  <circle cx="9" cy="8" r="1" fill="srgba(88.5039%,80.2914%,53.4615%,1)"/>
  <circle cx="10" cy="8" r="1" fill="srgba(98.8296%,97.9934%,95.259%,1)"/>
  <circle cx="11" cy="8" r="1" fill="srgba(97.6028%,95.8892%,90.2922%,1)"/>
  <circle cx="12" cy="8" r="1" fill="srgba(96.8124%,94.5342%,87.0939%,1)"/>
  <circle cx="13" cy="8" r="1" fill="srgba(98.8937%,98.1003%,95.5154%,1)"/>
  <circle cx="14" cy="8" r="1" fill="srgba(99.1272%,98.5031%,96.463%,1)"/>
  <circle cx="15" cy="8" r="1" fill="srgba(99.6139%,99.3362%,98.4329%,1)"/>
  <circle cx="0" cy="9" r="1" fill="white"/>
  <circle cx="1" cy="9" r="1" fill="white"/>
  <circle cx="2" cy="9" r="1" fill="white"/>
  <circle cx="3" cy="9" r="1" fill="white"/>
  <circle cx="4" cy="9" r="1" fill="white"/>
  <circle cx="5" cy="9" r="1" fill="srgba(99.2737%,98.6572%,96.6461%,1)"/>
  <circle cx="6" cy="9" r="1" fill="srgba(92.1645%,85.9159%,65.507%,1)"/>
  <circle cx="7" cy="9" r="1" fill="srgba(87.0787%,77.7951%,47.4861%,1)"/>
  <circle cx="8" cy="9" r="1" fill="srgba(93.9406%,89.6193%,75.4864%,1)"/>
  <circle cx="9" cy="9" r="1" fill="srgba(88.1453%,79.6826%,52.0256%,1)"/>
  <circle cx="10" cy="9" r="1" fill="srgba(93.6477%,89.1096%,74.2748%,1)"/>
  <circle cx="11" cy="9" r="1" fill="srgba(94.9554%,91.342%,79.5407%,1)"/>
  <circle cx="12" cy="9" r="1" fill="srgba(95.5886%,92.4331%,82.121%,1)"/>
  <circle cx="13" cy="9" r="1" fill="srgba(96.0174%,93.167%,83.8422%,1)"/>
  <circle cx="14" cy="9" r="1" fill="srgba(96.257%,93.5821%,84.8386%,1)"/>
  <circle cx="15" cy="9" r="1" fill="srgba(96.9406%,94.7509%,87.5959%,1)"/>
  <circle cx="0" cy="10" r="1" fill="srgba(65.1087%,65.1087%,65.1087%,1)"/>
  <circle cx="1" cy="10" r="1" fill="srgba(65.1087%,65.1087%,65.1087%,1)"/>
  <circle cx="2" cy="10" r="1" fill="srgba(65.1087%,65.1087%,65.1087%,1)"/>
  <circle cx="3" cy="10" r="1" fill="srgba(65.1087%,65.1087%,65.1087%,1)"/>
  <circle cx="4" cy="10" r="1" fill="srgba(65.1102%,65.1118%,65.1164%,1)"/>
  <circle cx="5" cy="10" r="1" fill="srgba(64.8585%,65.0782%,65.7939%,1)"/>
  <circle cx="6" cy="10" r="1" fill="srgba(67.4998%,62.179%,44.8081%,1)"/>
  <circle cx="7" cy="10" r="1" fill="srgba(79.6368%,65.6916%,20.1312%,1)"/>
  <circle cx="8" cy="10" r="1" fill="srgba(90.8156%,84.2222%,62.6719%,1)"/>
  <circle cx="9" cy="10" r="1" fill="srgba(78.6938%,63.4745%,13.7621%,1)"/>
  <circle cx="10" cy="10" r="1" fill="srgba(78.0179%,62.3163%,11.0246%,1)"/>
  <circle cx="11" cy="10" r="1" fill="srgba(78.6267%,63.3539%,13.4615%,1)"/>
  <circle cx="12" cy="10" r="1" fill="srgba(79.1974%,64.3336%,15.7733%,1)"/>
  <circle cx="13" cy="10" r="1" fill="srgba(79.4919%,64.8402%,16.965%,1)"/>
  <circle cx="14" cy="10" r="1" fill="srgba(79.6277%,65.0767%,17.5418%,1)"/>
  <circle cx="15" cy="10" r="1" fill="srgba(79.9741%,65.6703%,18.9456%,1)"/>
  <circle cx="0" cy="11" r="1" fill="srgba(0.572213%,0.572213%,0.572213%,1)"/>
  <circle cx="1" cy="11" r="1" fill="srgba(0.572213%,0.572213%,0.572213%,1)"/>
  <circle cx="2" cy="11" r="1" fill="srgba(0.572213%,0.572213%,0.572213%,1)"/>
  <circle cx="3" cy="11" r="1" fill="srgba(0.572213%,0.572213%,0.572213%,1)"/>
  <circle cx="4" cy="11" r="1" fill="srgba(0.572213%,0.572213%,0.572213%,1)"/>
  <circle cx="5" cy="11" r="1" fill="srgba(0%,0%,0.590524%,1)"/>
  <circle cx="6" cy="11" r="1" fill="srgba(21.9638%,16.7926%,0.0228885%,1)"/>
  <circle cx="7" cy="11" r="1" fill="srgba(76.6003%,61.4725%,12.401%,1)"/>
  <circle cx="8" cy="11" r="1" fill="srgba(89.4163%,81.7655%,56.9726%,1)"/>
  <circle cx="9" cy="11" r="1" fill="srgba(75.906%,58.6969%,3.14794%,1)"/>
  <circle cx="10" cy="11" r="1" fill="srgba(75.0759%,57.2747%,0%,1)"/>
  <circle cx="11" cy="11" r="1" fill="srgba(75.079%,57.2793%,0%,1)"/>
  <circle cx="12" cy="11" r="1" fill="srgba(75.0454%,57.2213%,0%,1)"/>
  <circle cx="13" cy="11" r="1" fill="srgba(75.0286%,57.1908%,0%,1)"/>
  <circle cx="14" cy="11" r="1" fill="srgba(75.0195%,57.1771%,0%,1)"/>
  <circle cx="15" cy="11" r="1" fill="srgba(74.9981%,57.1405%,0%,1)"/>
  <circle cx="0" cy="12" r="1" fill="black"/>
  <circle cx="1" cy="12" r="1" fill="black"/>
  <circle cx="2" cy="12" r="1" fill="black"/>
  <circle cx="3" cy="12" r="1" fill="black"/>
  <circle cx="4" cy="12" r="1" fill="black"/>
  <circle cx="5" cy="12" r="1" fill="black"/>
  <circle cx="6" cy="12" r="1" fill="srgba(21.4725%,16.318%,0%,1)"/>
  <circle cx="7" cy="12" r="1" fill="srgba(76.3149%,61.0117%,11.2444%,1)"/>
  <circle cx="8" cy="12" r="1" fill="srgba(88.7098%,80.5478%,53.8781%,1)"/>
  <circle cx="9" cy="12" r="1" fill="srgba(76.0525%,58.9456%,3.06706%,1)"/>
  <circle cx="10" cy="12" r="1" fill="srgba(75.2621%,57.5937%,0%,1)"/>
  <circle cx="11" cy="12" r="1" fill="srgba(192,147,0,1)"/>
  <circle cx="12" cy="12" r="1" fill="srgba(192,147,0,1)"/>
  <circle cx="13" cy="12" r="1" fill="srgba(192,147,0,1)"/>
  <circle cx="14" cy="12" r="1" fill="srgba(192,147,0,1)"/>
  <circle cx="15" cy="12" r="1" fill="srgba(192,147,0,1)"/>
  <circle cx="0" cy="13" r="1" fill="black"/>
  <circle cx="1" cy="13" r="1" fill="black"/>
  <circle cx="2" cy="13" r="1" fill="black"/>
  <circle cx="3" cy="13" r="1" fill="black"/>
  <circle cx="4" cy="13" r="1" fill="black"/>
  <circle cx="5" cy="13" r="1" fill="black"/>
  <circle cx="6" cy="13" r="1" fill="srgba(21.355%,16.3943%,0.204471%,1)"/>
  <circle cx="7" cy="13" r="1" fill="srgba(76.6186%,61.6098%,12.575%,1)"/>
  <circle cx="8" cy="13" r="1" fill="srgba(86.1311%,76.1196%,43.4104%,1)"/>
  <circle cx="9" cy="13" r="1" fill="srgba(75.8724%,58.6374%,2.33768%,1)"/>
  <circle cx="10" cy="13" r="1" fill="srgba(75.2712%,57.6089%,0%,1)"/>
  <circle cx="11" cy="13" r="1" fill="srgba(192,147,0,1)"/>
  <circle cx="12" cy="13" r="1" fill="srgba(192,147,0,1)"/>
  <circle cx="13" cy="13" r="1" fill="srgba(192,147,0,1)"/>
  <circle cx="14" cy="13" r="1" fill="srgba(192,147,0,1)"/>
  <circle cx="15" cy="13" r="1" fill="srgba(192,147,0,1)"/>
  <circle cx="0" cy="14" r="1" fill="black"/>
  <circle cx="1" cy="14" r="1" fill="black"/>
  <circle cx="2" cy="14" r="1" fill="black"/>
  <circle cx="3" cy="14" r="1" fill="black"/>
  <circle cx="4" cy="14" r="1" fill="black"/>
  <circle cx="5" cy="14" r="1" fill="black"/>
  <circle cx="6" cy="14" r="1" fill="srgba(21.8601%,17.2351%,2.13016%,1)"/>
  <circle cx="7" cy="14" r="1" fill="srgba(77.3617%,62.8733%,15.5428%,1)"/>
  <circle cx="8" cy="14" r="1" fill="srgba(76.3531%,59.3591%,3.84527%,1)"/>
  <circle cx="9" cy="14" r="1" fill="srgba(75.3536%,57.7508%,0.244144%,1)"/>
  <circle cx="10" cy="14" r="1" fill="srgba(75.2926%,57.644%,0%,1)"/>
  <circle cx="11" cy="14" r="1" fill="srgba(192,147,0,1)"/>
  <circle cx="12" cy="14" r="1" fill="srgba(192,147,0,1)"/>
  <circle cx="13" cy="14" r="1" fill="srgba(192,147,0,1)"/>
  <circle cx="14" cy="14" r="1" fill="srgba(192,147,0,1)"/>
  <circle cx="15" cy="14" r="1" fill="srgba(192,147,0,1)"/>
  <circle cx="0" cy="15" r="1" fill="black"/>
  <circle cx="1" cy="15" r="1" fill="black"/>
  <circle cx="2" cy="15" r="1" fill="black"/>
  <circle cx="3" cy="15" r="1" fill="black"/>
  <circle cx="4" cy="15" r="1" fill="black"/>
  <circle cx="5" cy="15" r="1" fill="black"/>
  <circle cx="6" cy="15" r="1" fill="srgba(21.4389%,16.4462%,0.137331%,1)"/>
  <circle cx="7" cy="15" r="1" fill="srgba(73.8949%,56.907%,1.51217%,1)"/>
  <circle cx="8" cy="15" r="1" fill="srgba(75.3536%,57.6486%,0.0671397%,1)"/>
  <circle cx="9" cy="15" r="1" fill="srgba(75.2895%,57.6394%,0%,1)"/>
  <circle cx="10" cy="15" r="1" fill="srgba(192,147,0,1)"/>
  <circle cx="11" cy="15" r="1" fill="srgba(192,147,0,1)"/>
  <circle cx="12" cy="15" r="1" fill="srgba(192,147,0,1)"/>
  <circle cx="13" cy="15" r="1" fill="srgba(192,147,0,1)"/>
  <circle cx="14" cy="15" r="1" fill="srgba(192,147,0,1)"/>
  <circle cx="15" cy="15" r="1" fill="srgba(192,147,0,1)"/>
</svg>
