<?xml version="1.0" standalone="no"?>
<!DOCTYPE svg PUBLIC "-//W3C//DTD SVG 20010904//EN"
  "http://www.w3.org/TR/2001/REC-SVG-20010904/DTD/svg10.dtd">
<svg width="16" height="16">
  <circle cx="0" cy="0" r="1" fill="black"/>
  <circle cx="1" cy="0" r="1" fill="black"/>
  <circle cx="2" cy="0" r="1" fill="black"/>
  <circle cx="3" cy="0" r="1" fill="black"/>
  <circle cx="4" cy="0" r="1" fill="black"/>
  <circle cx="5" cy="0" r="1" fill="black"/>
  <circle cx="6" cy="0" r="1" fill="black"/>
  <circle cx="7" cy="0" r="1" fill="black"/>
  <circle cx="8" cy="0" r="1" fill="black"/>
  <circle cx="9" cy="0" r="1" fill="black"/>
  <circle cx="10" cy="0" r="1" fill="black"/>
  <circle cx="11" cy="0" r="1" fill="black"/>
  <circle cx="12" cy="0" r="1" fill="black"/>
  <circle cx="13" cy="0" r="1" fill="black"/>
  <circle cx="14" cy="0" r="1" fill="black"/>
  <circle cx="15" cy="0" r="1" fill="black"/>
  <circle cx="0" cy="1" r="1" fill="black"/>
  <circle cx="1" cy="1" r="1" fill="black"/>
  <circle cx="2" cy="1" r="1" fill="black"/>
  <circle cx="3" cy="1" r="1" fill="black"/>
  <circle cx="4" cy="1" r="1" fill="black"/>
  <circle cx="5" cy="1" r="1" fill="black"/>
  <circle cx="6" cy="1" r="1" fill="black"/>
  <circle cx="7" cy="1" r="1" fill="black"/>
  <circle cx="8" cy="1" r="1" fill="black"/>
  <circle cx="9" cy="1" r="1" fill="black"/>
  <circle cx="10" cy="1" r="1" fill="black"/>
  <circle cx="11" cy="1" r="1" fill="black"/>
  <circle cx="12" cy="1" r="1" fill="black"/>
  <circle cx="13" cy="1" r="1" fill="black"/>
  <circle cx="14" cy="1" r="1" fill="black"/>
  <circle cx="15" cy="1" r="1" fill="black"/>
  <circle cx="0" cy="2" r="1" fill="black"/>
  <circle cx="1" cy="2" r="1" fill="black"/>
  <circle cx="2" cy="2" r="1" fill="black"/>
  <circle cx="3" cy="2" r="1" fill="black"/>
  <circle cx="4" cy="2" r="1" fill="black"/>
  <circle cx="5" cy="2" r="1" fill="black"/>
  <circle cx="6" cy="2" r="1" fill="black"/>
  <circle cx="7" cy="2" r="1" fill="black"/>
  <circle cx="8" cy="2" r="1" fill="black"/>
  <circle cx="9" cy="2" r="1" fill="black"/>
  <circle cx="10" cy="2" r="1" fill="black"/>
  <circle cx="11" cy="2" r="1" fill="black"/>
  <circle cx="12" cy="2" r="1" fill="black"/>
  <circle cx="13" cy="2" r="1" fill="black"/>
  <circle cx="14" cy="2" r="1" fill="black"/>
  <circle cx="15" cy="2" r="1" fill="black"/>
  <circle cx="0" cy="3" r="1" fill="srgba(0.526436%,0%,0%,1)"/>
  <circle cx="1" cy="3" r="1" fill="black"/>
  <circle cx="2" cy="3" r="1" fill="black"/>
  <circle cx="3" cy="3" r="1" fill="black"/>
  <circle cx="4" cy="3" r="1" fill="black"/>
  <circle cx="5" cy="3" r="1" fill="black"/>
  <circle cx="6" cy="3" r="1" fill="black"/>
  <circle cx="7" cy="3" r="1" fill="black"/>
  <circle cx="8" cy="3" r="1" fill="black"/>
  <circle cx="9" cy="3" r="1" fill="black"/>
  <circle cx="10" cy="3" r="1" fill="black"/>
  <circle cx="11" cy="3" r="1" fill="black"/>
  <circle cx="12" cy="3" r="1" fill="black"/>
  <circle cx="13" cy="3" r="1" fill="black"/>
  <circle cx="14" cy="3" r="1" fill="black"/>
  <circle cx="15" cy="3" r="1" fill="black"/>
  <circle cx="0" cy="4" r="1" fill="srgba(44.4968%,0%,0%,1)"/>
  <circle cx="1" cy="4" r="1" fill="srgba(7.46319%,0.987259%,0.987259%,1)"/>
  <circle cx="2" cy="4" r="1" fill="srgba(0.96437%,2.10422%,2.10422%,1)"/>
  <circle cx="3" cy="4" r="1" fill="srgba(1.27565%,1.28481%,1.28481%,1)"/>
  <circle cx="4" cy="4" r="1" fill="srgba(1.27565%,1.27413%,1.27413%,1)"/>
  <circle cx="5" cy="4" r="1" fill="srgba(1.27565%,1.27565%,1.27565%,1)"/>
  <circle cx="6" cy="4" r="1" fill="srgba(1.27565%,1.2726%,1.2726%,1)"/>
  <circle cx="7" cy="4" r="1" fill="srgba(1.27565%,1.31991%,1.31228%,1)"/>
  <circle cx="8" cy="4" r="1" fill="srgba(1.27565%,1.9089%,1.86007%,1)"/>
  <circle cx="9" cy="4" r="1" fill="srgba(1.27565%,1.75479%,1.74258%,1)"/>
  <circle cx="10" cy="4" r="1" fill="srgba(1.27565%,1.2726%,1.2726%,1)"/>
  <circle cx="11" cy="4" r="1" fill="srgba(1.27565%,1.27565%,1.27565%,1)"/>
  <circle cx="12" cy="4" r="1" fill="srgba(1.27565%,1.27565%,1.27565%,1)"/>
  <circle cx="13" cy="4" r="1" fill="srgba(1.27565%,1.27565%,1.27565%,1)"/>
  <circle cx="14" cy="4" r="1" fill="srgba(1.27565%,1.27565%,1.27565%,1)"/>
  <circle cx="15" cy="4" r="1" fill="srgba(1.27565%,1.27565%,1.27565%,1)"/>
  <circle cx="0" cy="5" r="1" fill="srgba(97.9461%,0%,0%,1)"/>
  <circle cx="1" cy="5" r="1" fill="srgba(77.5311%,8.18952%,8.18952%,1)"/>
  <circle cx="2" cy="5" r="1" fill="srgba(67.6417%,50.6279%,50.6279%,1)"/>
  <circle cx="3" cy="5" r="1" fill="srgba(68.0354%,69.1981%,69.1981%,1)"/>
  <circle cx="4" cy="5" r="1" fill="srgba(68.0354%,68.2322%,68.2322%,1)"/>
  <circle cx="5" cy="5" r="1" fill="srgba(68.0354%,68.0247%,68.0247%,1)"/>
  <circle cx="6" cy="5" r="1" fill="srgba(68.0354%,68.1346%,68.1254%,1)"/>
  <circle cx="7" cy="5" r="1" fill="srgba(68.0354%,67.9881%,68.1209%,1)"/>
  <circle cx="8" cy="5" r="1" fill="srgba(68.0354%,57.612%,58.3688%,1)"/>
  <circle cx="9" cy="5" r="1" fill="srgba(68.0354%,60.4242%,60.6073%,1)"/>
  <circle cx="10" cy="5" r="1" fill="srgba(68.0354%,68.2017%,68.2017%,1)"/>
  <circle cx="11" cy="5" r="1" fill="srgba(68.0354%,68.0491%,68.0507%,1)"/>
  <circle cx="12" cy="5" r="1" fill="srgba(68.0354%,68.0354%,68.0354%,1)"/>
  <circle cx="13" cy="5" r="1" fill="srgba(68.0354%,68.0354%,68.0354%,1)"/>
  <circle cx="14" cy="5" r="1" fill="srgba(68.0354%,68.0354%,68.0354%,1)"/>
  <circle cx="15" cy="5" r="1" fill="srgba(68.0354%,68.0354%,68.0354%,1)"/>
  <circle cx="0" cy="6" r="1" fill="red"/>
  <circle cx="1" cy="6" r="1" fill="srgba(100%,0.0167849%,0.0167849%,1)"/>
  <circle cx="2" cy="6" r="1" fill="srgba(100%,16.6751%,16.6751%,1)"/>
  <circle cx="3" cy="6" r="1" fill="srgba(100%,67.9637%,67.9637%,1)"/>
  <circle cx="4" cy="6" r="1" fill="srgba(100%,98.706%,98.706%,1)"/>
  <circle cx="5" cy="6" r="1" fill="white"/>
  <circle cx="6" cy="6" r="1" fill="white"/>
  <circle cx="7" cy="6" r="1" fill="srgba(100%,66.0426%,66.685%,1)"/>
  <circle cx="8" cy="6" r="1" fill="srgba(100%,37.9629%,39.086%,1)"/>
  <circle cx="9" cy="6" r="1" fill="srgba(100%,86.1616%,86.3203%,1)"/>
  <circle cx="10" cy="6" r="1" fill="srgba(100%,99.3057%,99.1485%,1)"/>
  <circle cx="11" cy="6" r="1" fill="srgba(100%,99.9023%,99.8886%,1)"/>
  <circle cx="12" cy="6" r="1" fill="white"/>
  <circle cx="13" cy="6" r="1" fill="white"/>
  <circle cx="14" cy="6" r="1" fill="white"/>
  <circle cx="15" cy="6" r="1" fill="white"/>
  <circle cx="0" cy="7" r="1" fill="red"/>
  <circle cx="1" cy="7" r="1" fill="red"/>
  <circle cx="2" cy="7" r="1" fill="red"/>
  <circle cx="3" cy="7" r="1" fill="srgba(100%,4.81575%,4.81575%,1)"/>
  <circle cx="4" cy="7" r="1" fill="srgba(100%,46.4759%,46.4759%,1)"/>
  <circle cx="5" cy="7" r="1" fill="srgba(100%,95.4986%,95.4971%,1)"/>
  <circle cx="6" cy="7" r="1" fill="srgba(100%,93.7026%,93.7163%,1)"/>
  <circle cx="7" cy="7" r="1" fill="srgba(100%,21.4588%,21.767%,1)"/>
  <circle cx="8" cy="7" r="1" fill="srgba(100%,61.68%,62.5177%,1)"/>
  <circle cx="9" cy="7" r="1" fill="srgba(100%,91.5892%,90.5165%,1)"/>
  <circle cx="10" cy="7" r="1" fill="srgba(100%,62.6215%,58.7366%,1)"/>
  <circle cx="11" cy="7" r="1" fill="srgba(100%,88.4047%,87.1992%,1)"/>
  <circle cx="12" cy="7" r="1" fill="white"/>
  <circle cx="13" cy="7" r="1" fill="white"/>
  <circle cx="14" cy="7" r="1" fill="white"/>
  <circle cx="15" cy="7" r="1" fill="white"/>
  <circle cx="0" cy="8" r="1" fill="red"/>
  <circle cx="1" cy="8" r="1" fill="red"/>
  <circle cx="2" cy="8" r="1" fill="red"/>
  <circle cx="3" cy="8" r="1" fill="srgba(100%,3.93225%,3.93225%,1)"/>
  <circle cx="4" cy="8" r="1" fill="srgba(100%,44.1627%,44.1627%,1)"/>
  <circle cx="5" cy="8" r="1" fill="srgba(100%,95.0637%,95.0637%,1)"/>
  <circle cx="6" cy="8" r="1" fill="srgba(100%,94.1207%,94.1115%,1)"/>
  <circle cx="7" cy="8" r="1" fill="srgba(100%,22.385%,22.5681%,1)"/>
  <circle cx="8" cy="8" r="1" fill="srgba(100%,60.9369%,61.7731%,1)"/>
  <circle cx="9" cy="8" r="1" fill="srgba(100%,85.9693%,84.3366%,1)"/>
  <circle cx="10" cy="8" r="1" fill="srgba(100%,40.4395%,34.2473%,1)"/>
  <circle cx="11" cy="8" r="1" fill="srgba(100%,74.4076%,71.7494%,1)"/>
  <circle cx="12" cy="8" r="1" fill="white"/>
  <circle cx="13" cy="8" r="1" fill="white"/>
  <circle cx="14" cy="8" r="1" fill="white"/>
  <circle cx="15" cy="8" r="1" fill="white"/>
  <circle cx="0" cy="9" r="1" fill="red"/>
  <circle cx="1" cy="9" r="1" fill="red"/>
  <circle cx="2" cy="9" r="1" fill="srgba(100%,14.3847%,15.0423%,1)"/>
  <circle cx="3" cy="9" r="1" fill="srgba(100%,64.7532%,65.4719%,1)"/>
  <circle cx="4" cy="9" r="1" fill="srgba(100%,97.9416%,98.1964%,1)"/>
  <circle cx="5" cy="9" r="1" fill="white"/>
  <circle cx="6" cy="9" r="1" fill="white"/>
  <circle cx="7" cy="9" r="1" fill="srgba(100%,68.4398%,68.9769%,1)"/>
  <circle cx="8" cy="9" r="1" fill="srgba(100%,38.4161%,39.5636%,1)"/>
  <circle cx="9" cy="9" r="1" fill="srgba(100%,81.7319%,82.7878%,1)"/>
  <circle cx="10" cy="9" r="1" fill="srgba(100%,96.5469%,96.6262%,1)"/>
  <circle cx="11" cy="9" r="1" fill="srgba(100%,98.2376%,98.2528%,1)"/>
  <circle cx="12" cy="9" r="1" fill="white"/>
  <circle cx="13" cy="9" r="1" fill="white"/>
  <circle cx="14" cy="9" r="1" fill="white"/>
  <circle cx="15" cy="9" r="1" fill="white"/>
  <circle cx="0" cy="10" r="1" fill="srgba(98.2589%,0.291447%,0%,1)"/>
  <circle cx="1" cy="10" r="1" fill="srgba(82.4994%,19.4003%,10.396%,1)"/>
  <circle cx="2" cy="10" r="1" fill="srgba(76.0204%,68.2841%,55.9472%,1)"/>
  <circle cx="3" cy="10" r="1" fill="srgba(76.318%,87.9698%,75.7855%,1)"/>
  <circle cx="4" cy="10" r="1" fill="srgba(76.318%,87.155%,74.9722%,1)"/>
  <circle cx="5" cy="10" r="1" fill="srgba(76.318%,86.9032%,74.7204%,1)"/>
  <circle cx="6" cy="10" r="1" fill="srgba(76.318%,86.9825%,74.7997%,1)"/>
  <circle cx="7" cy="10" r="1" fill="srgba(76.318%,87.2526%,75.0607%,1)"/>
  <circle cx="8" cy="10" r="1" fill="srgba(76.318%,78.6938%,66.6407%,1)"/>
  <circle cx="9" cy="10" r="1" fill="srgba(76.318%,79.9847%,68.2231%,1)"/>
  <circle cx="10" cy="10" r="1" fill="srgba(76.318%,87.2496%,75.0958%,1)"/>
  <circle cx="11" cy="10" r="1" fill="srgba(76.318%,87.0558%,74.8867%,1)"/>
  <circle cx="12" cy="10" r="1" fill="srgba(76.318%,86.9078%,74.725%,1)"/>
  <circle cx="13" cy="10" r="1" fill="srgba(76.318%,86.9154%,74.7326%,1)"/>
  <circle cx="14" cy="10" r="1" fill="srgba(76.318%,86.9154%,74.7326%,1)"/>
  <circle cx="15" cy="10" r="1" fill="srgba(76.318%,86.9154%,74.7326%,1)"/>
  <circle cx="0" cy="11" r="1" fill="srgba(49.4469%,25.9266%,0%,1)"/>
  <circle cx="1" cy="11" r="1" fill="srgba(14.8394%,45.7816%,1.95468%,1)"/>
  <circle cx="2" cy="11" r="1" fill="srgba(9.26986%,51.0765%,4.38544%,1)"/>
  <circle cx="3" cy="11" r="1" fill="srgba(9.5552%,50.0633%,3.51873%,1)"/>
  <circle cx="4" cy="11" r="1" fill="srgba(9.5552%,50.0435%,3.49889%,1)"/>
  <circle cx="5" cy="11" r="1" fill="srgba(9.5552%,50.045%,3.50042%,1)"/>
  <circle cx="6" cy="11" r="1" fill="srgba(9.5552%,50.0435%,3.49889%,1)"/>
  <circle cx="7" cy="11" r="1" fill="srgba(9.5552%,50.0679%,3.52331%,1)"/>
  <circle cx="8" cy="11" r="1" fill="srgba(9.5552%,50.5379%,3.98413%,1)"/>
  <circle cx="9" cy="11" r="1" fill="srgba(9.5552%,50.4845%,3.91241%,1)"/>
  <circle cx="10" cy="11" r="1" fill="srgba(9.5552%,50.0435%,3.49889%,1)"/>
  <circle cx="11" cy="11" r="1" fill="srgba(9.5552%,50.045%,3.50042%,1)"/>
  <circle cx="12" cy="11" r="1" fill="srgba(9.5552%,50.045%,3.50042%,1)"/>
  <circle cx="13" cy="11" r="1" fill="srgba(9.5552%,50.045%,3.50042%,1)"/>
  <circle cx="14" cy="11" r="1" fill="srgba(9.5552%,50.045%,3.50042%,1)"/>
  <circle cx="15" cy="11" r="1" fill="srgba(9.5552%,50.045%,3.50042%,1)"/>
  <circle cx="0" cy="12" r="1" fill="srgba(5.99222%,48.3848%,0%,1)"/>
  <circle cx="1" cy="12" r="1" fill="srgba(5.72061%,48.4306%,0%,1)"/>
  <circle cx="2" cy="12" r="1" fill="srgba(6.0914%,48.1163%,0%,1)"/>
  <circle cx="3" cy="12" r="1" fill="srgba(6.07462%,48.1254%,0%,1)"/>
  <circle cx="4" cy="12" r="1" fill="srgba(6.07462%,48.1254%,0%,1)"/>
  <circle cx="5" cy="12" r="1" fill="srgba(6.07462%,48.1254%,0%,1)"/>
  <circle cx="6" cy="12" r="1" fill="srgba(6.07462%,48.1254%,0%,1)"/>
  <circle cx="7" cy="12" r="1" fill="srgba(6.07462%,48.1254%,0%,1)"/>
  <circle cx="8" cy="12" r="1" fill="srgba(6.07462%,48.1254%,0%,1)"/>
  <circle cx="9" cy="12" r="1" fill="srgba(6.07462%,48.1254%,0%,1)"/>
  <circle cx="10" cy="12" r="1" fill="srgba(6.07462%,48.1254%,0%,1)"/>
  <circle cx="11" cy="12" r="1" fill="srgba(6.07462%,48.1254%,0%,1)"/>
  <circle cx="12" cy="12" r="1" fill="srgba(6.07462%,48.1254%,0%,1)"/>
  <circle cx="13" cy="12" r="1" fill="srgba(6.07462%,48.1254%,0%,1)"/>
  <circle cx="14" cy="12" r="1" fill="srgba(6.07462%,48.1254%,0%,1)"/>
  <circle cx="15" cy="12" r="1" fill="srgba(6.07462%,48.1254%,0%,1)"/>
  <circle cx="0" cy="13" r="1" fill="srgba(6.23484%,48.2551%,0%,1)"/>
  <circle cx="1" cy="13" r="1" fill="srgba(6.27604%,48.2338%,0%,1)"/>
  <circle cx="2" cy="13" r="1" fill="srgba(16,123,0,1)"/>
  <circle cx="3" cy="13" r="1" fill="srgba(16,123,0,1)"/>
  <circle cx="4" cy="13" r="1" fill="srgba(16,123,0,1)"/>
  <circle cx="5" cy="13" r="1" fill="srgba(16,123,0,1)"/>
  <circle cx="6" cy="13" r="1" fill="srgba(16,123,0,1)"/>
  <circle cx="7" cy="13" r="1" fill="srgba(16,123,0,1)"/>
  <circle cx="8" cy="13" r="1" fill="srgba(16,123,0,1)"/>
  <circle cx="9" cy="13" r="1" fill="srgba(16,123,0,1)"/>
  <circle cx="10" cy="13" r="1" fill="srgba(16,123,0,1)"/>
  <circle cx="11" cy="13" r="1" fill="srgba(16,123,0,1)"/>
  <circle cx="12" cy="13" r="1" fill="srgba(16,123,0,1)"/>
  <circle cx="13" cy="13" r="1" fill="srgba(16,123,0,1)"/>
  <circle cx="14" cy="13" r="1" fill="srgba(16,123,0,1)"/>
  <circle cx="15" cy="13" r="1" fill="srgba(16,123,0,1)"/>
  <circle cx="0" cy="14" r="1" fill="srgba(16,123,0,1)"/>
  <circle cx="1" cy="14" r="1" fill="srgba(16,123,0,1)"/>
  <circle cx="2" cy="14" r="1" fill="srgba(16,123,0,1)"/>
  <circle cx="3" cy="14" r="1" fill="srgba(16,123,0,1)"/>
  <circle cx="4" cy="14" r="1" fill="srgba(16,123,0,1)"/>
  <circle cx="5" cy="14" r="1" fill="srgba(16,123,0,1)"/>
  <circle cx="6" cy="14" r="1" fill="srgba(16,123,0,1)"/>
  <circle cx="7" cy="14" r="1" fill="srgba(16,123,0,1)"/>
  <circle cx="8" cy="14" r="1" fill="srgba(16,123,0,1)"/>
  <circle cx="9" cy="14" r="1" fill="srgba(16,123,0,1)"/>
  <circle cx="10" cy="14" r="1" fill="srgba(16,123,0,1)"/>
  <circle cx="11" cy="14" r="1" fill="srgba(16,123,0,1)"/>
  <circle cx="12" cy="14" r="1" fill="srgba(16,123,0,1)"/>
  <circle cx="13" cy="14" r="1" fill="srgba(16,123,0,1)"/>
  <circle cx="14" cy="14" r="1" fill="srgba(16,123,0,1)"/>
  <circle cx="15" cy="14" r="1" fill="srgba(16,123,0,1)"/>
  <circle cx="0" cy="15" r="1" fill="srgba(16,123,0,1)"/>
  <circle cx="1" cy="15" r="1" fill="srgba(16,123,0,1)"/>
  <circle cx="2" cy="15" r="1" fill="srgba(16,123,0,1)"/>
  <circle cx="3" cy="15" r="1" fill="srgba(16,123,0,1)"/>
  <circle cx="4" cy="15" r="1" fill="srgba(16,123,0,1)"/>
  <circle cx="5" cy="15" r="1" fill="srgba(16,123,0,1)"/>
  <circle cx="6" cy="15" r="1" fill="srgba(16,123,0,1)"/>
  <circle cx="7" cy="15" r="1" fill="srgba(16,123,0,1)"/>
  <circle cx="8" cy="15" r="1" fill="srgba(16,123,0,1)"/>
  <circle cx="9" cy="15" r="1" fill="srgba(16,123,0,1)"/>
  <circle cx="10" cy="15" r="1" fill="srgba(16,123,0,1)"/>
  <circle cx="11" cy="15" r="1" fill="srgba(16,123,0,1)"/>
  <circle cx="12" cy="15" r="1" fill="srgba(16,123,0,1)"/>
  <circle cx="13" cy="15" r="1" fill="srgba(16,123,0,1)"/>
  <circle cx="14" cy="15" r="1" fill="srgba(16,123,0,1)"/>
  <circle cx="15" cy="15" r="1" fill="srgba(16,123,0,1)"/>
</svg>
