<?xml version="1.0" standalone="no"?>
<!DOCTYPE svg PUBLIC "-//W3C//DTD SVG 20010904//EN"
  "http://www.w3.org/TR/2001/REC-SVG-20010904/DTD/svg10.dtd">
<svg width="16" height="16">
  <circle cx="0" cy="0" r="1" fill="srgba(27.158%,48.2704%,24.7639%,1)"/>
  <circle cx="1" cy="0" r="1" fill="srgba(20.6561%,54.8974%,26.0639%,1)"/>
  <circle cx="2" cy="0" r="1" fill="srgba(22.6795%,52.8359%,25.6596%,1)"/>
  <circle cx="3" cy="0" r="1" fill="srgba(26.2577%,49.1875%,24.9439%,1)"/>
  <circle cx="4" cy="0" r="1" fill="srgba(29.3553%,46.0288%,24.3244%,1)"/>
  <circle cx="5" cy="0" r="1" fill="srgba(32.52%,42.8046%,23.6912%,1)"/>
  <circle cx="6" cy="0" r="1" fill="srgba(35.7794%,39.4827%,23.0396%,1)"/>
  <circle cx="7" cy="0" r="1" fill="srgba(39.0829%,36.1135%,22.3789%,1)"/>
  <circle cx="8" cy="0" r="1" fill="srgba(42.4048%,32.7291%,21.7136%,1)"/>
  <circle cx="9" cy="0" r="1" fill="srgba(45.6901%,29.3797%,21.0575%,1)"/>
  <circle cx="10" cy="0" r="1" fill="srgba(48.9082%,26.099%,20.4135%,1)"/>
  <circle cx="11" cy="0" r="1" fill="srgba(52.0531%,22.8931%,19.7848%,1)"/>
  <circle cx="12" cy="0" r="1" fill="srgba(55.0454%,19.8428%,19.1867%,1)"/>
  <circle cx="13" cy="0" r="1" fill="srgba(57.8225%,17.0123%,18.6297%,1)"/>
  <circle cx="14" cy="0" r="1" fill="srgba(60.4929%,14.2901%,18.0972%,1)"/>
  <circle cx="15" cy="0" r="1" fill="srgba(62.7283%,12.0104%,17.6486%,1)"/>
  <circle cx="0" cy="1" r="1" fill="srgba(65.4154%,9.27138%,17.113%,1)"/>
  <circle cx="1" cy="1" r="1" fill="srgba(45.8488%,29.2164%,21.0269%,1)"/>
  <circle cx="2" cy="1" r="1" fill="srgba(23.3936%,52.1065%,25.5177%,1)"/>
  <circle cx="3" cy="1" r="1" fill="srgba(13.2387%,62.4567%,27.5486%,1)"/>
  <circle cx="4" cy="1" r="1" fill="srgba(12.4758%,63.2349%,27.7012%,1)"/>
  <circle cx="5" cy="1" r="1" fill="srgba(13.0968%,62.6017%,27.5776%,1)"/>
  <circle cx="6" cy="1" r="1" fill="srgba(13.2036%,62.4933%,27.5547%,1)"/>
  <circle cx="7" cy="1" r="1" fill="srgba(13.3211%,62.3743%,27.5319%,1)"/>
  <circle cx="8" cy="1" r="1" fill="srgba(13.5271%,62.1637%,27.4907%,1)"/>
  <circle cx="9" cy="1" r="1" fill="srgba(13.8415%,61.8433%,27.4281%,1)"/>
  <circle cx="10" cy="1" r="1" fill="srgba(14.287%,61.3886%,27.3381%,1)"/>
  <circle cx="11" cy="1" r="1" fill="srgba(14.8943%,60.7706%,27.2175%,1)"/>
  <circle cx="12" cy="1" r="1" fill="srgba(15.6664%,59.9832%,27.0634%,1)"/>
  <circle cx="13" cy="1" r="1" fill="srgba(16.6064%,59.0249%,26.8742%,1)"/>
  <circle cx="14" cy="1" r="1" fill="srgba(17.7691%,57.8408%,26.6423%,1)"/>
  <circle cx="15" cy="1" r="1" fill="srgba(18.9853%,56.5988%,26.3981%,1)"/>
  <circle cx="0" cy="2" r="1" fill="srgba(75.0668%,0%,15.1827%,1)"/>
  <circle cx="1" cy="2" r="1" fill="srgba(75.1049%,0.0747692%,15.1751%,1)"/>
  <circle cx="2" cy="2" r="1" fill="srgba(67.8614%,6.80095%,16.6232%,1)"/>
  <circle cx="3" cy="2" r="1" fill="srgba(47.602%,27.4281%,20.676%,1)"/>
  <circle cx="4" cy="2" r="1" fill="srgba(24.9027%,50.5669%,25.2155%,1)"/>
  <circle cx="5" cy="2" r="1" fill="srgba(13.9925%,61.6876%,27.3976%,1)"/>
  <circle cx="6" cy="2" r="1" fill="srgba(12.9976%,62.7024%,27.5959%,1)"/>
  <circle cx="7" cy="2" r="1" fill="srgba(13.6568%,62.031%,27.4647%,1)"/>
  <circle cx="8" cy="2" r="1" fill="srgba(13.7285%,61.9577%,27.4495%,1)"/>
  <circle cx="9" cy="2" r="1" fill="srgba(13.7194%,61.9669%,27.4525%,1)"/>
  <circle cx="10" cy="2" r="1" fill="srgba(13.7057%,61.9806%,27.4556%,1)"/>
  <circle cx="11" cy="2" r="1" fill="srgba(13.6782%,62.0096%,27.4601%,1)"/>
  <circle cx="12" cy="2" r="1" fill="srgba(13.6355%,62.0523%,27.4693%,1)"/>
  <circle cx="13" cy="2" r="1" fill="srgba(13.5775%,62.1118%,27.4815%,1)"/>
  <circle cx="14" cy="2" r="1" fill="srgba(13.4997%,62.1897%,27.4968%,1)"/>
  <circle cx="15" cy="2" r="1" fill="srgba(13.4173%,62.2751%,27.512%,1)"/>
  <circle cx="0" cy="3" r="1" fill="srgba(74.5083%,0%,15.2941%,1)"/>
  <circle cx="1" cy="3" r="1" fill="srgba(74.5174%,0%,15.2926%,1)"/>
  <circle cx="2" cy="3" r="1" fill="srgba(74.9554%,0%,15.2056%,1)"/>
  <circle cx="3" cy="3" r="1" fill="srgba(75.2041%,0.0122072%,15.1553%,1)"/>
  <circle cx="4" cy="3" r="1" fill="srgba(68.6183%,6.0441%,16.4721%,1)"/>
  <circle cx="5" cy="3" r="1" fill="srgba(48.9693%,26.0334%,20.4028%,1)"/>
  <circle cx="6" cy="3" r="1" fill="srgba(25.9327%,49.5171%,25.0095%,1)"/>
  <circle cx="7" cy="3" r="1" fill="srgba(14.255%,61.4206%,27.3457%,1)"/>
  <circle cx="8" cy="3" r="1" fill="srgba(12.9564%,62.7451%,27.6051%,1)"/>
  <circle cx="9" cy="3" r="1" fill="srgba(13.64%,62.0493%,27.4678%,1)"/>
  <circle cx="10" cy="3" r="1" fill="srgba(13.7301%,61.9562%,27.4495%,1)"/>
  <circle cx="11" cy="3" r="1" fill="srgba(35,158,70,1)"/>
  <circle cx="12" cy="3" r="1" fill="srgba(35,158,70,1)"/>
  <circle cx="13" cy="3" r="1" fill="srgba(35,158,70,1)"/>
  <circle cx="14" cy="3" r="1" fill="srgba(35,158,70,1)"/>
  <circle cx="15" cy="3" r="1" fill="srgba(35,158,70,1)"/>
  <circle cx="0" cy="4" r="1" fill="srgba(190,0,39,1)"/>
  <circle cx="1" cy="4" r="1" fill="srgba(190,0,39,1)"/>
  <circle cx="2" cy="4" r="1" fill="srgba(74.5083%,0%,15.2941%,1)"/>
  <circle cx="3" cy="4" r="1" fill="srgba(74.5129%,0%,15.2941%,1)"/>
  <circle cx="4" cy="4" r="1" fill="srgba(74.9111%,0%,15.2132%,1)"/>
  <circle cx="5" cy="4" r="1" fill="srgba(75.2789%,0%,15.14%,1)"/>
  <circle cx="6" cy="4" r="1" fill="srgba(69.3278%,5.33761%,16.3302%,1)"/>
  <circle cx="7" cy="4" r="1" fill="srgba(50.3212%,24.654%,20.1312%,1)"/>
  <circle cx="8" cy="4" r="1" fill="srgba(27.0039%,48.426%,24.7944%,1)"/>
  <circle cx="9" cy="4" r="1" fill="srgba(14.551%,61.1185%,27.2862%,1)"/>
  <circle cx="10" cy="4" r="1" fill="srgba(12.9183%,62.7832%,27.6127%,1)"/>
  <circle cx="11" cy="4" r="1" fill="srgba(13.6187%,62.0691%,27.4723%,1)"/>
  <circle cx="12" cy="4" r="1" fill="srgba(13.7301%,61.9562%,27.4495%,1)"/>
  <circle cx="13" cy="4" r="1" fill="srgba(35,158,70,1)"/>
  <circle cx="14" cy="4" r="1" fill="srgba(35,158,70,1)"/>
  <circle cx="15" cy="4" r="1" fill="srgba(35,158,70,1)"/>
  <circle cx="0" cy="5" r="1" fill="srgba(190,0,39,1)"/>
  <circle cx="1" cy="5" r="1" fill="srgba(190,0,39,1)"/>
  <circle cx="2" cy="5" r="1" fill="srgba(190,0,39,1)"/>
  <circle cx="3" cy="5" r="1" fill="srgba(74.5098%,0%,15.2956%,1)"/>
  <circle cx="4" cy="5" r="1" fill="srgba(74.4991%,0%,15.2728%,1)"/>
  <circle cx="5" cy="5" r="1" fill="srgba(74.3511%,0%,14.966%,1)"/>
  <circle cx="6" cy="5" r="1" fill="srgba(74.7112%,0%,14.8989%,1)"/>
  <circle cx="7" cy="5" r="1" fill="srgba(75.3307%,0%,15.1247%,1)"/>
  <circle cx="8" cy="5" r="1" fill="srgba(69.9931%,4.68452%,16.1975%,1)"/>
  <circle cx="9" cy="5" r="1" fill="srgba(51.6594%,23.2898%,19.8642%,1)"/>
  <circle cx="10" cy="5" r="1" fill="srgba(28.1147%,47.2938%,24.5731%,1)"/>
  <circle cx="11" cy="5" r="1" fill="srgba(14.8852%,60.7782%,27.219%,1)"/>
  <circle cx="12" cy="5" r="1" fill="srgba(12.8862%,62.8168%,27.6188%,1)"/>
  <circle cx="13" cy="5" r="1" fill="srgba(13.5958%,62.092%,27.4769%,1)"/>
  <circle cx="14" cy="5" r="1" fill="srgba(13.7316%,61.9547%,27.4495%,1)"/>
  <circle cx="15" cy="5" r="1" fill="srgba(35,158,70,1)"/>
  <circle cx="0" cy="6" r="1" fill="srgba(190,0,39,1)"/>
  <circle cx="1" cy="6" r="1" fill="srgba(190,0,39,1)"/>
  <circle cx="2" cy="6" r="1" fill="srgba(190,0,39,1)"/>
  <circle cx="3" cy="6" r="1" fill="srgba(74.4976%,0%,15.2697%,1)"/>
  <circle cx="4" cy="6" r="1" fill="srgba(74.6548%,0.619516%,15.5962%,1)"/>
  <circle cx="5" cy="6" r="1" fill="srgba(77.6562%,13.4035%,21.825%,1)"/>
  <circle cx="6" cy="6" r="1" fill="srgba(77.5647%,13.2815%,21.6358%,1)"/>
  <circle cx="7" cy="6" r="1" fill="srgba(74.3496%,0.0167849%,14.9691%,1)"/>
  <circle cx="8" cy="6" r="1" fill="srgba(74.8043%,0%,15.1843%,1)"/>
  <circle cx="9" cy="6" r="1" fill="srgba(75.3735%,0%,15.1247%,1)"/>
  <circle cx="10" cy="6" r="1" fill="srgba(70.6126%,4.07874%,16.0739%,1)"/>
  <circle cx="11" cy="6" r="1" fill="srgba(52.9808%,21.9409%,19.6002%,1)"/>
  <circle cx="12" cy="6" r="1" fill="srgba(29.2653%,46.1219%,24.3427%,1)"/>
  <circle cx="13" cy="6" r="1" fill="srgba(15.256%,60.4013%,27.1458%,1)"/>
  <circle cx="14" cy="6" r="1" fill="srgba(12.8664%,62.8367%,27.6234%,1)"/>
  <circle cx="15" cy="6" r="1" fill="srgba(13.55%,62.1393%,27.4861%,1)"/>
  <circle cx="0" cy="7" r="1" fill="srgba(190,0,39,1)"/>
  <circle cx="1" cy="7" r="1" fill="srgba(190,0,39,1)"/>
  <circle cx="2" cy="7" r="1" fill="srgba(190,0,39,1)"/>
  <circle cx="3" cy="7" r="1" fill="srgba(74.4778%,0%,15.227%,1)"/>
  <circle cx="4" cy="7" r="1" fill="srgba(75.0072%,2.12406%,16.3287%,1)"/>
  <circle cx="5" cy="7" r="1" fill="srgba(81.326%,29.0669%,29.4408%,1)"/>
  <circle cx="6" cy="7" r="1" fill="srgba(87.1641%,53.962%,41.561%,1)"/>
  <circle cx="7" cy="7" r="1" fill="srgba(80.9125%,27.3899%,28.5801%,1)"/>
  <circle cx="8" cy="7" r="1" fill="srgba(74.818%,1.74868%,15.935%,1)"/>
  <circle cx="9" cy="7" r="1" fill="srgba(74.3832%,0%,15.0408%,1)"/>
  <circle cx="10" cy="7" r="1" fill="srgba(74.7036%,0%,15.0668%,1)"/>
  <circle cx="11" cy="7" r="1" fill="srgba(75.3216%,0%,14.9645%,1)"/>
  <circle cx="12" cy="7" r="1" fill="srgba(71.1208%,3.31273%,15.8221%,1)"/>
  <circle cx="13" cy="7" r="1" fill="srgba(54.2153%,20.3708%,19.2279%,1)"/>
  <circle cx="14" cy="7" r="1" fill="srgba(30.2724%,44.4663%,23.6805%,1)"/>
  <circle cx="15" cy="7" r="1" fill="srgba(16.0784%,58.2803%,25.8579%,1)"/>
  <circle cx="0" cy="8" r="1" fill="srgba(190,0,39,1)"/>
  <circle cx="1" cy="8" r="1" fill="srgba(190,0,39,1)"/>
  <circle cx="2" cy="8" r="1" fill="srgba(190,0,39,1)"/>
  <circle cx="3" cy="8" r="1" fill="srgba(74.5113%,0%,15.2956%,1)"/>
  <circle cx="4" cy="8" r="1" fill="srgba(74.3984%,0%,15.0622%,1)"/>
  <circle cx="5" cy="8" r="1" fill="srgba(75.9533%,6.57816%,18.291%,1)"/>
  <circle cx="6" cy="8" r="1" fill="srgba(91.5251%,72.6345%,50.6081%,1)"/>
  <circle cx="7" cy="8" r="1" fill="srgba(92.5689%,77.0016%,52.7749%,1)"/>
  <circle cx="8" cy="8" r="1" fill="srgba(79.7589%,22.3865%,26.1891%,1)"/>
  <circle cx="9" cy="8" r="1" fill="srgba(76.0678%,6.6453%,18.5275%,1)"/>
  <circle cx="10" cy="8" r="1" fill="srgba(76.0479%,6.5568%,18.4848%,1)"/>
  <circle cx="11" cy="8" r="1" fill="srgba(75.8999%,5.95865%,18.1949%,1)"/>
  <circle cx="12" cy="8" r="1" fill="srgba(76.0525%,4.77455%,17.4838%,1)"/>
  <circle cx="13" cy="8" r="1" fill="srgba(76.6415%,3.05028%,16.5347%,1)"/>
  <circle cx="14" cy="8" r="1" fill="srgba(72.343%,12.5536%,22.7298%,1)"/>
  <circle cx="15" cy="8" r="1" fill="srgba(57.3495%,47.0329%,44.9668%,1)"/>
  <circle cx="0" cy="9" r="1" fill="srgba(190,0,39,1)"/>
  <circle cx="1" cy="9" r="1" fill="srgba(190,0,39,1)"/>
  <circle cx="2" cy="9" r="1" fill="srgba(190,0,39,1)"/>
  <circle cx="3" cy="9" r="1" fill="srgba(190,0,39,1)"/>
  <circle cx="4" cy="9" r="1" fill="srgba(74.3542%,0%,14.9722%,1)"/>
  <circle cx="5" cy="9" r="1" fill="srgba(75.2178%,3.55077%,16.7651%,1)"/>
  <circle cx="6" cy="9" r="1" fill="srgba(83.9612%,40.3632%,34.9096%,1)"/>
  <circle cx="7" cy="9" r="1" fill="srgba(91.5862%,72.813%,50.7362%,1)"/>
  <circle cx="8" cy="9" r="1" fill="srgba(85.0431%,44.9165%,37.1572%,1)"/>
  <circle cx="9" cy="9" r="1" fill="srgba(82.3438%,33.4051%,31.5511%,1)"/>
  <circle cx="10" cy="9" r="1" fill="srgba(82.3209%,33.2952%,31.4992%,1)"/>
  <circle cx="11" cy="9" r="1" fill="srgba(82.4949%,33.8643%,31.7021%,1)"/>
  <circle cx="12" cy="9" r="1" fill="srgba(82.3224%,43.1434%,40.1236%,1)"/>
  <circle cx="13" cy="9" r="1" fill="srgba(81.7288%,63.1403%,58.6099%,1)"/>
  <circle cx="14" cy="9" r="1" fill="srgba(81.8952%,73.2433%,67.6997%,1)"/>
  <circle cx="15" cy="9" r="1" fill="srgba(82.4628%,84.1215%,77.7676%,1)"/>
  <circle cx="0" cy="10" r="1" fill="srgba(190,0,39,1)"/>
  <circle cx="1" cy="10" r="1" fill="srgba(190,0,39,1)"/>
  <circle cx="2" cy="10" r="1" fill="srgba(74.5083%,0%,15.2911%,1)"/>
  <circle cx="3" cy="10" r="1" fill="srgba(74.5174%,0.0335698%,15.3109%,1)"/>
  <circle cx="4" cy="10" r="1" fill="srgba(76.1624%,7.04662%,18.7243%,1)"/>
  <circle cx="5" cy="10" r="1" fill="srgba(76.8368%,9.92142%,20.1236%,1)"/>
  <circle cx="6" cy="10" r="1" fill="srgba(80.1984%,24.2481%,27.0924%,1)"/>
  <circle cx="7" cy="10" r="1" fill="srgba(87.2435%,54.0688%,41.5183%,1)"/>
  <circle cx="8" cy="10" r="1" fill="srgba(86.302%,49.4011%,38.9929%,1)"/>
  <circle cx="9" cy="10" r="1" fill="srgba(90.4845%,66.659%,47.1687%,1)"/>
  <circle cx="10" cy="10" r="1" fill="srgba(91.6915%,71.5175%,49.4224%,1)"/>
  <circle cx="11" cy="10" r="1" fill="srgba(91.9158%,72.5734%,49.9733%,1)"/>
  <circle cx="12" cy="10" r="1" fill="srgba(91.8364%,80.1602%,56.7559%,1)"/>
  <circle cx="13" cy="10" r="1" fill="srgba(91.7037%,88.6107%,64.3809%,1)"/>
  <circle cx="14" cy="10" r="1" fill="srgba(91.9707%,88.896%,64.1871%,1)"/>
  <circle cx="15" cy="10" r="1" fill="srgba(92.2911%,88.2109%,63.0533%,1)"/>
  <circle cx="0" cy="11" r="1" fill="srgba(190,0,39,1)"/>
  <circle cx="1" cy="11" r="1" fill="srgba(190,0,39,1)"/>
  <circle cx="2" cy="11" r="1" fill="srgba(74.5037%,0%,15.2804%,1)"/>
  <circle cx="3" cy="11" r="1" fill="srgba(74.5983%,0.37995%,15.4818%,1)"/>
  <circle cx="4" cy="11" r="1" fill="srgba(79.3194%,20.4288%,25.2094%,1)"/>
  <circle cx="5" cy="11" r="1" fill="srgba(79.3866%,19.8398%,24.5777%,1)"/>
  <circle cx="6" cy="11" r="1" fill="srgba(78.822%,17.2946%,23.2883%,1)"/>
  <circle cx="7" cy="11" r="1" fill="srgba(82.2492%,35.8755%,33.875%,1)"/>
  <circle cx="8" cy="11" r="1" fill="srgba(83.9704%,62.7329%,54.5525%,1)"/>
  <circle cx="9" cy="11" r="1" fill="srgba(83.3402%,85.2781%,75.3536%,1)"/>
  <circle cx="10" cy="11" r="1" fill="srgba(85.9724%,88.2063%,73.5485%,1)"/>
  <circle cx="11" cy="11" r="1" fill="srgba(88.2033%,88.3711%,69.9855%,1)"/>
  <circle cx="12" cy="11" r="1" fill="srgba(90.2358%,88.2567%,66.5095%,1)"/>
  <circle cx="13" cy="11" r="1" fill="srgba(92.0027%,88.072%,63.4089%,1)"/>
  <circle cx="14" cy="11" r="1" fill="srgba(93.4279%,88.2994%,61.2436%,1)"/>
  <circle cx="15" cy="11" r="1" fill="srgba(94.4167%,88.4749%,59.7543%,1)"/>
  <circle cx="0" cy="12" r="1" fill="srgba(190,0,39,1)"/>
  <circle cx="1" cy="12" r="1" fill="srgba(74.5098%,0%,15.3002%,1)"/>
  <circle cx="2" cy="12" r="1" fill="srgba(74.519%,0%,15.1156%,1)"/>
  <circle cx="3" cy="12" r="1" fill="srgba(74.5632%,0%,14.229%,1)"/>
  <circle cx="4" cy="12" r="1" fill="srgba(74.4121%,0.593576%,15.314%,1)"/>
  <circle cx="5" cy="12" r="1" fill="srgba(73.7514%,11.9905%,27.0665%,1)"/>
  <circle cx="6" cy="12" r="1" fill="srgba(72.8939%,39.1714%,52.3003%,1)"/>
  <circle cx="7" cy="12" r="1" fill="srgba(80.0076%,73.8827%,70.8995%,1)"/>
  <circle cx="8" cy="12" r="1" fill="srgba(82.0829%,86.4057%,78.4329%,1)"/>
  <circle cx="9" cy="12" r="1" fill="srgba(76.3699%,85.4597%,87.0863%,1)"/>
  <circle cx="10" cy="12" r="1" fill="srgba(71.5114%,84.4694%,94.2885%,1)"/>
  <circle cx="11" cy="12" r="1" fill="srgba(71.2932%,84.4358%,94.6273%,1)"/>
  <circle cx="12" cy="12" r="1" fill="srgba(72.1172%,84.5792%,93.3806%,1)"/>
  <circle cx="13" cy="12" r="1" fill="srgba(73.5576%,84.8341%,91.2062%,1)"/>
  <circle cx="14" cy="12" r="1" fill="srgba(75.2682%,85.1301%,88.6305%,1)"/>
  <circle cx="15" cy="12" r="1" fill="srgba(77.0214%,85.4368%,85.9861%,1)"/>
  <circle cx="0" cy="13" r="1" fill="srgba(74.5312%,0%,14.847%,1)"/>
  <circle cx="1" cy="13" r="1" fill="srgba(74.5693%,0%,14.0826%,1)"/>
  <circle cx="2" cy="13" r="1" fill="srgba(74.3954%,2.72679%,17.6257%,1)"/>
  <circle cx="3" cy="13" r="1" fill="srgba(73.5897%,19.7482%,34.1405%,1)"/>
  <circle cx="4" cy="13" r="1" fill="srgba(72.224%,49.1234%,62.1332%,1)"/>
  <circle cx="5" cy="13" r="1" fill="srgba(71.043%,74.3984%,86.2425%,1)"/>
  <circle cx="6" cy="13" r="1" fill="srgba(70.5684%,84.7059%,96.0616%,1)"/>
  <circle cx="7" cy="13" r="1" fill="srgba(73.521%,85.5283%,91.8807%,1)"/>
  <circle cx="8" cy="13" r="1" fill="srgba(83.3921%,86.5675%,76.4004%,1)"/>
  <circle cx="9" cy="13" r="1" fill="srgba(80.3799%,86.0227%,80.9186%,1)"/>
  <circle cx="10" cy="13" r="1" fill="srgba(70.6447%,84.3244%,95.6023%,1)"/>
  <circle cx="11" cy="13" r="1" fill="srgba(70.5699%,84.3107%,95.7137%,1)"/>
  <circle cx="12" cy="13" r="1" fill="srgba(70.5226%,84.3015%,95.7855%,1)"/>
  <circle cx="13" cy="13" r="1" fill="srgba(70.4616%,84.2924%,95.877%,1)"/>
  <circle cx="14" cy="13" r="1" fill="srgba(70.3716%,84.2756%,96.0128%,1)"/>
  <circle cx="15" cy="13" r="1" fill="srgba(70.2861%,84.2603%,96.1425%,1)"/>
  <circle cx="0" cy="14" r="1" fill="srgba(74.1573%,7.58831%,22.5299%,1)"/>
  <circle cx="1" cy="14" r="1" fill="srgba(73.1884%,28.3864%,42.359%,1)"/>
  <circle cx="2" cy="14" r="1" fill="srgba(71.7906%,58.4375%,71.014%,1)"/>
  <circle cx="3" cy="14" r="1" fill="srgba(70.8217%,79.2721%,90.8782%,1)"/>
  <circle cx="4" cy="14" r="1" fill="srgba(70.5348%,85.4658%,96.7849%,1)"/>
  <circle cx="5" cy="14" r="1" fill="srgba(70.5577%,84.9638%,96.3058%,1)"/>
  <circle cx="6" cy="14" r="1" fill="srgba(70.515%,84.3397%,95.8312%,1)"/>
  <circle cx="7" cy="14" r="1" fill="srgba(71.7311%,84.5228%,93.9727%,1)"/>
  <circle cx="8" cy="14" r="1" fill="srgba(79.6414%,85.9037%,82.0401%,1)"/>
  <circle cx="9" cy="14" r="1" fill="srgba(72.0806%,84.5899%,93.4478%,1)"/>
  <circle cx="10" cy="14" r="1" fill="srgba(70.4967%,84.3168%,95.8419%,1)"/>
  <circle cx="11" cy="14" r="1" fill="srgba(70.5867%,84.332%,95.7031%,1)"/>
  <circle cx="12" cy="14" r="1" fill="srgba(70.5867%,84.332%,95.7046%,1)"/>
  <circle cx="13" cy="14" r="1" fill="srgba(70.5867%,84.3366%,95.7092%,1)"/>
  <circle cx="14" cy="14" r="1" fill="srgba(70.5867%,84.3381%,95.7092%,1)"/>
  <circle cx="15" cy="14" r="1" fill="srgba(70.5867%,84.3381%,95.7092%,1)"/>
  <circle cx="0" cy="15" r="1" fill="srgba(71.4336%,66.1738%,78.3932%,1)"/>
  <circle cx="1" cy="15" r="1" fill="srgba(70.7057%,81.8555%,93.3455%,1)"/>
  <circle cx="2" cy="15" r="1" fill="srgba(70.5287%,85.6489%,96.9619%,1)"/>
  <circle cx="3" cy="15" r="1" fill="srgba(70.5776%,84.6067%,95.967%,1)"/>
  <circle cx="4" cy="15" r="1" fill="srgba(70.5959%,84.2039%,95.584%,1)"/>
  <circle cx="5" cy="15" r="1" fill="srgba(70.5959%,84.184%,95.5642%,1)"/>
  <circle cx="6" cy="15" r="1" fill="srgba(70.5974%,84.1001%,95.4757%,1)"/>
  <circle cx="7" cy="15" r="1" fill="srgba(70.7759%,84.123%,95.201%,1)"/>
  <circle cx="8" cy="15" r="1" fill="srgba(77.229%,85.301%,85.5192%,1)"/>
  <circle cx="9" cy="15" r="1" fill="srgba(71.4061%,84.1917%,94.2168%,1)"/>
  <circle cx="10" cy="15" r="1" fill="srgba(70.5791%,83.978%,95.4055%,1)"/>
  <circle cx="11" cy="15" r="1" fill="srgba(70.6035%,83.9826%,95.3704%,1)"/>
  <circle cx="12" cy="15" r="1" fill="srgba(70.6035%,83.9811%,95.3689%,1)"/>
  <circle cx="13" cy="15" r="1" fill="srgba(70.6081%,83.9094%,95.2972%,1)"/>
  <circle cx="14" cy="15" r="1" fill="srgba(70.6111%,83.8743%,95.2621%,1)"/>
  <circle cx="15" cy="15" r="1" fill="srgba(70.6111%,83.8758%,95.2636%,1)"/>
</svg>
