<?xml version="1.0" standalone="no"?>
<!DOCTYPE svg PUBLIC "-//W3C//DTD SVG 20010904//EN"
  "http://www.w3.org/TR/2001/REC-SVG-20010904/DTD/svg10.dtd">
<svg width="16" height="16">
  <circle cx="0" cy="0" r="1" fill="srgba(198,11,30,1)"/>
  <circle cx="1" cy="0" r="1" fill="srgba(198,11,30,1)"/>
  <circle cx="2" cy="0" r="1" fill="srgba(198,11,30,1)"/>
  <circle cx="3" cy="0" r="1" fill="srgba(198,11,30,1)"/>
  <circle cx="4" cy="0" r="1" fill="srgba(198,11,30,1)"/>
  <circle cx="5" cy="0" r="1" fill="srgba(198,11,30,1)"/>
  <circle cx="6" cy="0" r="1" fill="srgba(198,11,30,1)"/>
  <circle cx="7" cy="0" r="1" fill="srgba(77.6379%,4.21759%,11.7006%,1)"/>
  <circle cx="8" cy="0" r="1" fill="srgba(77.9492%,6.1677%,13.0236%,1)"/>
  <circle cx="9" cy="0" r="1" fill="srgba(80.4013%,15.613%,19.5361%,1)"/>
  <circle cx="10" cy="0" r="1" fill="srgba(77.7127%,5.1133%,12.3003%,1)"/>
  <circle cx="11" cy="0" r="1" fill="srgba(77.6486%,4.27558%,11.7388%,1)"/>
  <circle cx="12" cy="0" r="1" fill="srgba(198,11,30,1)"/>
  <circle cx="13" cy="0" r="1" fill="srgba(198,11,30,1)"/>
  <circle cx="14" cy="0" r="1" fill="srgba(198,11,30,1)"/>
  <circle cx="15" cy="0" r="1" fill="srgba(198,11,30,1)"/>
  <circle cx="0" cy="1" r="1" fill="srgba(198,11,30,1)"/>
  <circle cx="1" cy="1" r="1" fill="srgba(198,11,30,1)"/>
  <circle cx="2" cy="1" r="1" fill="srgba(198,11,30,1)"/>
  <circle cx="3" cy="1" r="1" fill="srgba(198,11,30,1)"/>
  <circle cx="4" cy="1" r="1" fill="srgba(198,11,30,1)"/>
  <circle cx="5" cy="1" r="1" fill="srgba(198,11,30,1)"/>
  <circle cx="6" cy="1" r="1" fill="srgba(77.673%,4.31525%,11.7693%,1)"/>
  <circle cx="7" cy="1" r="1" fill="srgba(77.2442%,4.17334%,11.6228%,1)"/>
  <circle cx="8" cy="1" r="1" fill="srgba(77.3495%,6.34928%,13.0678%,1)"/>
  <circle cx="9" cy="1" r="1" fill="srgba(82.7558%,20.8652%,23.267%,1)"/>
  <circle cx="10" cy="1" r="1" fill="srgba(78.5275%,8.27344%,14.4778%,1)"/>
  <circle cx="11" cy="1" r="1" fill="srgba(77.5921%,4.08026%,11.6045%,1)"/>
  <circle cx="12" cy="1" r="1" fill="srgba(198,11,30,1)"/>
  <circle cx="13" cy="1" r="1" fill="srgba(198,11,30,1)"/>
  <circle cx="14" cy="1" r="1" fill="srgba(198,11,30,1)"/>
  <circle cx="15" cy="1" r="1" fill="srgba(198,11,30,1)"/>
  <circle cx="0" cy="2" r="1" fill="srgba(77.4731%,3.74762%,11.8563%,1)"/>
  <circle cx="1" cy="2" r="1" fill="srgba(77.4731%,3.74762%,11.8563%,1)"/>
  <circle cx="2" cy="2" r="1" fill="srgba(77.4731%,3.74762%,11.8563%,1)"/>
  <circle cx="3" cy="2" r="1" fill="srgba(77.4731%,3.74762%,11.8563%,1)"/>
  <circle cx="4" cy="2" r="1" fill="srgba(77.4731%,3.74762%,11.8563%,1)"/>
  <circle cx="5" cy="2" r="1" fill="srgba(77.4731%,3.74762%,11.8563%,1)"/>
  <circle cx="6" cy="2" r="1" fill="srgba(77.5235%,3.74914%,11.8639%,1)"/>
  <circle cx="7" cy="2" r="1" fill="srgba(76.6949%,3.58129%,11.6457%,1)"/>
  <circle cx="8" cy="2" r="1" fill="srgba(76.5621%,5.92203%,13.106%,1)"/>
  <circle cx="9" cy="2" r="1" fill="srgba(84.0833%,23.3753%,25.1362%,1)"/>
  <circle cx="10" cy="2" r="1" fill="srgba(80.618%,14.6029%,18.912%,1)"/>
  <circle cx="11" cy="2" r="1" fill="srgba(77.3526%,3.57824%,11.6243%,1)"/>
  <circle cx="12" cy="2" r="1" fill="srgba(77.4731%,3.73999%,11.8578%,1)"/>
  <circle cx="13" cy="2" r="1" fill="srgba(77.4731%,3.74762%,11.8563%,1)"/>
  <circle cx="14" cy="2" r="1" fill="srgba(77.4731%,3.74762%,11.8563%,1)"/>
  <circle cx="15" cy="2" r="1" fill="srgba(77.4731%,3.74762%,11.8563%,1)"/>
  <circle cx="0" cy="3" r="1" fill="srgba(80.3433%,13.0648%,10.3456%,1)"/>
  <circle cx="1" cy="3" r="1" fill="srgba(80.3433%,13.0648%,10.3456%,1)"/>
  <circle cx="2" cy="3" r="1" fill="srgba(80.3433%,13.0648%,10.3456%,1)"/>
  <circle cx="3" cy="3" r="1" fill="srgba(80.3433%,13.0648%,10.3456%,1)"/>
  <circle cx="4" cy="3" r="1" fill="srgba(80.3433%,13.0648%,10.3456%,1)"/>
  <circle cx="5" cy="3" r="1" fill="srgba(80.3433%,13.0648%,10.3456%,1)"/>
  <circle cx="6" cy="3" r="1" fill="srgba(80.4028%,13.077%,10.3517%,1)"/>
  <circle cx="7" cy="3" r="1" fill="srgba(79.5499%,12.8603%,10.1228%,1)"/>
  <circle cx="8" cy="3" r="1" fill="srgba(79.0433%,14.1482%,11.8868%,1)"/>
  <circle cx="9" cy="3" r="1" fill="srgba(84.7532%,24.9378%,25.2323%,1)"/>
  <circle cx="10" cy="3" r="1" fill="srgba(83.6072%,22.3194%,23.9628%,1)"/>
  <circle cx="11" cy="3" r="1" fill="srgba(79.9939%,12.9427%,11.5999%,1)"/>
  <circle cx="12" cy="3" r="1" fill="srgba(80.3769%,13.0968%,10.2525%,1)"/>
  <circle cx="13" cy="3" r="1" fill="srgba(80.3494%,13.0694%,10.3441%,1)"/>
  <circle cx="14" cy="3" r="1" fill="srgba(80.3494%,13.0694%,10.3441%,1)"/>
  <circle cx="15" cy="3" r="1" fill="srgba(80.3464%,13.0663%,10.3456%,1)"/>
  <circle cx="0" cy="4" r="1" fill="srgba(97.3037%,68.1117%,1.41909%,1)"/>
  <circle cx="1" cy="4" r="1" fill="srgba(97.3037%,68.1132%,1.42519%,1)"/>
  <circle cx="2" cy="4" r="1" fill="srgba(97.3297%,68.0644%,1.12001%,1)"/>
  <circle cx="3" cy="4" r="1" fill="srgba(97.3434%,67.863%,0.262455%,1)"/>
  <circle cx="4" cy="4" r="1" fill="srgba(97.3053%,67.7195%,0%,1)"/>
  <circle cx="5" cy="4" r="1" fill="srgba(97.2488%,67.7226%,0.0335698%,1)"/>
  <circle cx="6" cy="4" r="1" fill="srgba(97.2351%,67.8035%,0.299077%,1)"/>
  <circle cx="7" cy="4" r="1" fill="srgba(95.2468%,66.5431%,0.401312%,1)"/>
  <circle cx="8" cy="4" r="1" fill="srgba(92.2591%,60.4059%,3.25933%,1)"/>
  <circle cx="9" cy="4" r="1" fill="srgba(86.1433%,30.7988%,22.9786%,1)"/>
  <circle cx="10" cy="4" r="1" fill="srgba(85.0141%,25.4688%,26.2852%,1)"/>
  <circle cx="11" cy="4" r="1" fill="srgba(91.0628%,49.8833%,10.0542%,1)"/>
  <circle cx="12" cy="4" r="1" fill="srgba(96.9955%,68.0415%,0.0717174%,1)"/>
  <circle cx="13" cy="4" r="1" fill="srgba(96.8063%,67.4739%,0.299077%,1)"/>
  <circle cx="14" cy="4" r="1" fill="srgba(96.8078%,67.4449%,0.183108%,1)"/>
  <circle cx="15" cy="4" r="1" fill="srgba(97.2015%,67.7195%,0.0701915%,1)"/>
  <circle cx="0" cy="5" r="1" fill="srgba(100%,77.4182%,0%,1)"/>
  <circle cx="1" cy="5" r="1" fill="srgba(99.9985%,77.1695%,0%,1)"/>
  <circle cx="2" cy="5" r="1" fill="srgba(99.7375%,78.0972%,4.48157%,1)"/>
  <circle cx="3" cy="5" r="1" fill="srgba(99.3317%,81.4298%,19.9847%,1)"/>
  <circle cx="4" cy="5" r="1" fill="srgba(99.1043%,84.9928%,36.1517%,1)"/>
  <circle cx="5" cy="5" r="1" fill="srgba(99.0646%,87.57%,47.425%,1)"/>
  <circle cx="6" cy="5" r="1" fill="srgba(99.0631%,88.9326%,53.3745%,1)"/>
  <circle cx="7" cy="5" r="1" fill="srgba(92.7855%,84.21%,52.1874%,1)"/>
  <circle cx="8" cy="5" r="1" fill="srgba(90.425%,80.3891%,53.4218%,1)"/>
  <circle cx="9" cy="5" r="1" fill="srgba(88.4321%,65.864%,62.0539%,1)"/>
  <circle cx="10" cy="5" r="1" fill="srgba(87.9271%,62.8428%,63.9963%,1)"/>
  <circle cx="11" cy="5" r="1" fill="srgba(89.8299%,71.2261%,59.2432%,1)"/>
  <circle cx="12" cy="5" r="1" fill="srgba(93.5927%,84.3%,51.7845%,1)"/>
  <circle cx="13" cy="5" r="1" fill="srgba(91.8868%,82.6215%,49.8329%,1)"/>
  <circle cx="14" cy="5" r="1" fill="srgba(90.3105%,80.6897%,46.7628%,1)"/>
  <circle cx="15" cy="5" r="1" fill="srgba(91.722%,80.6043%,41.706%,1)"/>
  <circle cx="0" cy="6" r="1" fill="srgba(99.8413%,76.8032%,0.614939%,1)"/>
  <circle cx="1" cy="6" r="1" fill="srgba(98.9471%,82.4338%,27.6661%,1)"/>
  <circle cx="2" cy="6" r="1" fill="srgba(98.9578%,92.8649%,72.6192%,1)"/>
  <circle cx="3" cy="6" r="1" fill="srgba(99.5056%,98.0911%,93.3974%,1)"/>
  <circle cx="4" cy="6" r="1" fill="srgba(99.7894%,99.7253%,99.3683%,1)"/>
  <circle cx="5" cy="6" r="1" fill="srgba(99.8962%,100%,100%,1)"/>
  <circle cx="6" cy="6" r="1" fill="srgba(99.8779%,99.9374%,99.9695%,1)"/>
  <circle cx="7" cy="6" r="1" fill="srgba(96.0876%,96.3149%,96.9055%,1)"/>
  <circle cx="8" cy="6" r="1" fill="srgba(97.9904%,98.1003%,98.088%,1)"/>
  <circle cx="9" cy="6" r="1" fill="srgba(99.0814%,99.3973%,99.2233%,1)"/>
  <circle cx="10" cy="6" r="1" fill="srgba(99.3362%,99.9084%,99.913%,1)"/>
  <circle cx="11" cy="6" r="1" fill="srgba(99.2767%,99.794%,100%,1)"/>
  <circle cx="12" cy="6" r="1" fill="srgba(98.6709%,99.1257%,100%,1)"/>
  <circle cx="13" cy="6" r="1" fill="srgba(96.8658%,97.3266%,98.9181%,1)"/>
  <circle cx="14" cy="6" r="1" fill="srgba(93.1792%,93.6187%,95.3384%,1)"/>
  <circle cx="15" cy="6" r="1" fill="srgba(87.5486%,87.9103%,89.3568%,1)"/>
  <circle cx="0" cy="7" r="1" fill="srgba(98.9288%,82.2843%,26.9917%,1)"/>
  <circle cx="1" cy="7" r="1" fill="srgba(99.3332%,97.055%,89.4072%,1)"/>
  <circle cx="2" cy="7" r="1" fill="white"/>
  <circle cx="3" cy="7" r="1" fill="white"/>
  <circle cx="4" cy="7" r="1" fill="srgba(99.9969%,99.9969%,99.9969%,1)"/>
  <circle cx="5" cy="7" r="1" fill="white"/>
  <circle cx="6" cy="7" r="1" fill="srgba(92.8649%,92.3781%,87.5319%,1)"/>
  <circle cx="7" cy="7" r="1" fill="srgba(82.1515%,81.0483%,71.2749%,1)"/>
  <circle cx="8" cy="7" r="1" fill="srgba(93.5409%,92.5231%,85.6886%,1)"/>
  <circle cx="9" cy="7" r="1" fill="srgba(83.4607%,78.4665%,39.9252%,1)"/>
  <circle cx="10" cy="7" r="1" fill="srgba(83.679%,78.1933%,35.9274%,1)"/>
  <circle cx="11" cy="7" r="1" fill="srgba(83.8651%,78.5321%,37.4853%,1)"/>
  <circle cx="12" cy="7" r="1" fill="srgba(83.6637%,78.5183%,38.9288%,1)"/>
  <circle cx="13" cy="7" r="1" fill="srgba(83.8392%,78.7854%,39.8825%,1)"/>
  <circle cx="14" cy="7" r="1" fill="srgba(84.1169%,78.9883%,39.4797%,1)"/>
  <circle cx="15" cy="7" r="1" fill="srgba(82.2248%,77.0504%,37.1496%,1)"/>
  <circle cx="0" cy="8" r="1" fill="srgba(98.8052%,89.1493%,57.0977%,1)"/>
  <circle cx="1" cy="8" r="1" fill="srgba(99.9374%,100%,100%,1)"/>
  <circle cx="2" cy="8" r="1" fill="white"/>
  <circle cx="3" cy="8" r="1" fill="white"/>
  <circle cx="4" cy="8" r="1" fill="white"/>
  <circle cx="5" cy="8" r="1" fill="white"/>
  <circle cx="6" cy="8" r="1" fill="srgba(88.5451%,88.2185%,82.9038%,1)"/>
  <circle cx="7" cy="8" r="1" fill="srgba(54.7631%,51.8379%,43.5508%,1)"/>
  <circle cx="8" cy="8" r="1" fill="srgba(68.365%,63.8041%,45.6413%,1)"/>
  <circle cx="9" cy="8" r="1" fill="srgba(76.0845%,67.5669%,3.8819%,1)"/>
  <circle cx="10" cy="8" r="1" fill="srgba(77.9858%,68.7877%,0%,1)"/>
  <circle cx="11" cy="8" r="1" fill="srgba(77.9385%,68.7755%,0%,1)"/>
  <circle cx="12" cy="8" r="1" fill="srgba(77.9477%,68.7846%,0%,1)"/>
  <circle cx="13" cy="8" r="1" fill="srgba(77.5647%,68.4443%,0%,1)"/>
  <circle cx="14" cy="8" r="1" fill="srgba(77.6501%,68.5206%,0%,1)"/>
  <circle cx="15" cy="8" r="1" fill="srgba(78.1506%,68.9769%,0%,1)"/>
  <circle cx="0" cy="9" r="1" fill="srgba(95.256%,84.9744%,45.6092%,1)"/>
  <circle cx="1" cy="9" r="1" fill="srgba(99.4308%,99.411%,98.7121%,1)"/>
  <circle cx="2" cy="9" r="1" fill="white"/>
  <circle cx="3" cy="9" r="1" fill="white"/>
  <circle cx="4" cy="9" r="1" fill="white"/>
  <circle cx="5" cy="9" r="1" fill="white"/>
  <circle cx="6" cy="9" r="1" fill="srgba(97.8363%,97.6501%,96.614%,1)"/>
  <circle cx="7" cy="9" r="1" fill="srgba(71.2856%,66.7872%,52.4193%,1)"/>
  <circle cx="8" cy="9" r="1" fill="srgba(63.5889%,55.4284%,7.6173%,1)"/>
  <circle cx="9" cy="9" r="1" fill="srgba(76.0113%,67.1611%,0%,1)"/>
  <circle cx="10" cy="9" r="1" fill="srgba(78.2284%,69.2332%,0%,1)"/>
  <circle cx="11" cy="9" r="1" fill="srgba(78.4543%,69.4316%,0%,1)"/>
  <circle cx="12" cy="9" r="1" fill="srgba(78.4558%,69.4331%,0%,1)"/>
  <circle cx="13" cy="9" r="1" fill="srgba(78.0743%,69.0944%,0%,1)"/>
  <circle cx="14" cy="9" r="1" fill="srgba(78.1109%,69.1279%,0%,1)"/>
  <circle cx="15" cy="9" r="1" fill="srgba(78.3246%,69.3187%,0%,1)"/>
  <circle cx="0" cy="10" r="1" fill="srgba(81.3107%,72.2713%,10.5241%,1)"/>
  <circle cx="1" cy="10" r="1" fill="srgba(93.254%,90.9133%,72.6833%,1)"/>
  <circle cx="2" cy="10" r="1" fill="white"/>
  <circle cx="3" cy="10" r="1" fill="white"/>
  <circle cx="4" cy="10" r="1" fill="white"/>
  <circle cx="5" cy="10" r="1" fill="srgba(98.9975%,98.7228%,96.5942%,1)"/>
  <circle cx="6" cy="10" r="1" fill="srgba(93.8872%,93.0892%,86.8269%,1)"/>
  <circle cx="7" cy="10" r="1" fill="srgba(92.2148%,90.8598%,82.3545%,1)"/>
  <circle cx="8" cy="10" r="1" fill="srgba(81.4664%,75.7839%,34.8409%,1)"/>
  <circle cx="9" cy="10" r="1" fill="srgba(76.2158%,67.6066%,1.24971%,1)"/>
  <circle cx="10" cy="10" r="1" fill="srgba(77.9553%,68.9784%,0%,1)"/>
  <circle cx="11" cy="10" r="1" fill="srgba(78.4146%,69.3965%,0%,1)"/>
  <circle cx="12" cy="10" r="1" fill="srgba(78.4543%,69.4331%,0%,1)"/>
  <circle cx="13" cy="10" r="1" fill="srgba(78.0774%,69.0974%,0%,1)"/>
  <circle cx="14" cy="10" r="1" fill="srgba(77.8027%,68.8548%,0%,1)"/>
  <circle cx="15" cy="10" r="1" fill="srgba(77.7783%,68.8334%,0%,1)"/>
  <circle cx="0" cy="11" r="1" fill="srgba(78.1704%,69.1234%,0%,1)"/>
  <circle cx="1" cy="11" r="1" fill="srgba(80.5921%,72.7611%,12.8389%,1)"/>
  <circle cx="2" cy="11" r="1" fill="srgba(90.0343%,86.3447%,57.9339%,1)"/>
  <circle cx="3" cy="11" r="1" fill="srgba(95.9594%,94.5861%,84.0238%,1)"/>
  <circle cx="4" cy="11" r="1" fill="srgba(95.6298%,94.1527%,82.7863%,1)"/>
  <circle cx="5" cy="11" r="1" fill="srgba(87.3548%,82.6062%,46.067%,1)"/>
  <circle cx="6" cy="11" r="1" fill="srgba(85.4429%,81.239%,49.5583%,1)"/>
  <circle cx="7" cy="11" r="1" fill="srgba(86.8482%,86.3767%,72.3079%,1)"/>
  <circle cx="8" cy="11" r="1" fill="srgba(81.8936%,83.389%,71.0536%,1)"/>
  <circle cx="9" cy="11" r="1" fill="srgba(77.3709%,69.3385%,8.07202%,1)"/>
  <circle cx="10" cy="11" r="1" fill="srgba(77.9828%,68.9555%,0%,1)"/>
  <circle cx="11" cy="11" r="1" fill="srgba(78.201%,69.2073%,0%,1)"/>
  <circle cx="12" cy="11" r="1" fill="srgba(78.4695%,69.4453%,0%,1)"/>
  <circle cx="13" cy="11" r="1" fill="srgba(78.0438%,69.0684%,0%,1)"/>
  <circle cx="14" cy="11" r="1" fill="srgba(77.3587%,68.4596%,0%,1)"/>
  <circle cx="15" cy="11" r="1" fill="srgba(77.7722%,68.8273%,0%,1)"/>
  <circle cx="0" cy="12" r="1" fill="srgba(78.4375%,69.4194%,0%,1)"/>
  <circle cx="1" cy="12" r="1" fill="srgba(78.2879%,69.1966%,0%,1)"/>
  <circle cx="2" cy="12" r="1" fill="srgba(78.4237%,69.4881%,1.39162%,1)"/>
  <circle cx="3" cy="12" r="1" fill="srgba(79.8734%,71.6976%,8.76326%,1)"/>
  <circle cx="4" cy="12" r="1" fill="srgba(79.7223%,71.4839%,8.09186%,1)"/>
  <circle cx="5" cy="12" r="1" fill="srgba(78.2849%,69.2302%,0.347906%,1)"/>
  <circle cx="6" cy="12" r="1" fill="srgba(80.3937%,72.9427%,19.0356%,1)"/>
  <circle cx="7" cy="12" r="1" fill="srgba(69.0761%,69.2439%,18.8235%,1)"/>
  <circle cx="8" cy="12" r="1" fill="srgba(35.3887%,63.566%,39.2386%,1)"/>
  <circle cx="9" cy="12" r="1" fill="srgba(72.1035%,67.4937%,6.16464%,1)"/>
  <circle cx="10" cy="12" r="1" fill="srgba(78.5946%,69.337%,0%,1)"/>
  <circle cx="11" cy="12" r="1" fill="srgba(77.9034%,68.9448%,0%,1)"/>
  <circle cx="12" cy="12" r="1" fill="srgba(78.4665%,69.4438%,0%,1)"/>
  <circle cx="13" cy="12" r="1" fill="srgba(78.0713%,69.0929%,0%,1)"/>
  <circle cx="14" cy="12" r="1" fill="srgba(78.0926%,69.1112%,0%,1)"/>
  <circle cx="15" cy="12" r="1" fill="srgba(78.4405%,69.4194%,0%,1)"/>
  <circle cx="0" cy="13" r="1" fill="srgba(200,177,0,1)"/>
  <circle cx="1" cy="13" r="1" fill="srgba(78.4314%,69.4133%,0%,1)"/>
  <circle cx="2" cy="13" r="1" fill="srgba(78.4207%,69.3919%,0%,1)"/>
  <circle cx="3" cy="13" r="1" fill="srgba(78.3398%,69.2668%,0%,1)"/>
  <circle cx="4" cy="13" r="1" fill="srgba(78.349%,69.279%,0%,1)"/>
  <circle cx="5" cy="13" r="1" fill="srgba(78.4741%,69.4438%,0%,1)"/>
  <circle cx="6" cy="13" r="1" fill="srgba(78.2574%,68.8167%,0%,1)"/>
  <circle cx="7" cy="13" r="1" fill="srgba(66.6682%,66.0578%,5.69314%,1)"/>
  <circle cx="8" cy="13" r="1" fill="srgba(20.4883%,57.7142%,30.9361%,1)"/>
  <circle cx="9" cy="13" r="1" fill="srgba(68.4779%,66.0517%,4.20996%,1)"/>
  <circle cx="10" cy="13" r="1" fill="srgba(79.0066%,69.5979%,0%,1)"/>
  <circle cx="11" cy="13" r="1" fill="srgba(77.8424%,68.8914%,0%,1)"/>
  <circle cx="12" cy="13" r="1" fill="srgba(78.3291%,69.3217%,0%,1)"/>
  <circle cx="13" cy="13" r="1" fill="srgba(78.0789%,69.1005%,0%,1)"/>
  <circle cx="14" cy="13" r="1" fill="srgba(78.0987%,69.1157%,0%,1)"/>
  <circle cx="15" cy="13" r="1" fill="srgba(78.4558%,69.4347%,0%,1)"/>
  <circle cx="0" cy="14" r="1" fill="srgba(200,177,0,1)"/>
  <circle cx="1" cy="14" r="1" fill="srgba(200,177,0,1)"/>
  <circle cx="2" cy="14" r="1" fill="srgba(200,177,0,1)"/>
  <circle cx="3" cy="14" r="1" fill="srgba(200,177,0,1)"/>
  <circle cx="4" cy="14" r="1" fill="srgba(200,177,0,1)"/>
  <circle cx="5" cy="14" r="1" fill="srgba(78.4756%,69.4514%,0%,1)"/>
  <circle cx="6" cy="14" r="1" fill="srgba(78.3276%,68.8945%,0%,1)"/>
  <circle cx="7" cy="14" r="1" fill="srgba(66.7582%,66.1891%,5.67941%,1)"/>
  <circle cx="8" cy="14" r="1" fill="srgba(21.3489%,58.1262%,31.368%,1)"/>
  <circle cx="9" cy="14" r="1" fill="srgba(68.7984%,66.2531%,4.29236%,1)"/>
  <circle cx="10" cy="14" r="1" fill="srgba(79.0204%,69.6147%,0%,1)"/>
  <circle cx="11" cy="14" r="1" fill="srgba(78.0987%,69.1173%,0%,1)"/>
  <circle cx="12" cy="14" r="1" fill="srgba(78.027%,69.0547%,0%,1)"/>
  <circle cx="13" cy="14" r="1" fill="srgba(78.0926%,69.1112%,0%,1)"/>
  <circle cx="14" cy="14" r="1" fill="srgba(78.0987%,69.1157%,0%,1)"/>
  <circle cx="15" cy="14" r="1" fill="srgba(78.4558%,69.4347%,0%,1)"/>
  <circle cx="0" cy="15" r="1" fill="srgba(200,177,0,1)"/>
  <circle cx="1" cy="15" r="1" fill="srgba(200,177,0,1)"/>
  <circle cx="2" cy="15" r="1" fill="srgba(200,177,0,1)"/>
  <circle cx="3" cy="15" r="1" fill="srgba(200,177,0,1)"/>
  <circle cx="4" cy="15" r="1" fill="srgba(200,177,0,1)"/>
  <circle cx="5" cy="15" r="1" fill="srgba(78.4756%,69.4514%,0%,1)"/>
  <circle cx="6" cy="15" r="1" fill="srgba(78.323%,68.8884%,0%,1)"/>
  <circle cx="7" cy="15" r="1" fill="srgba(66.7292%,66.186%,5.69924%,1)"/>
  <circle cx="8" cy="15" r="1" fill="srgba(21.3733%,58.1674%,31.3848%,1)"/>
  <circle cx="9" cy="15" r="1" fill="srgba(68.8655%,66.3096%,4.28931%,1)"/>
  <circle cx="10" cy="15" r="1" fill="srgba(78.999%,69.5964%,0%,1)"/>
  <circle cx="11" cy="15" r="1" fill="srgba(78.3551%,69.3446%,0%,1)"/>
  <circle cx="12" cy="15" r="1" fill="srgba(77.8363%,68.8869%,0%,1)"/>
  <circle cx="13" cy="15" r="1" fill="srgba(78.0392%,69.0639%,0%,1)"/>
  <circle cx="14" cy="15" r="1" fill="srgba(78.0987%,69.1173%,0%,1)"/>
  <circle cx="15" cy="15" r="1" fill="srgba(78.4558%,69.4347%,0%,1)"/>
</svg>
