<?xml version="1.0" standalone="no"?>
<!DOCTYPE svg PUBLIC "-//W3C//DTD SVG 20010904//EN"
  "http://www.w3.org/TR/2001/REC-SVG-20010904/DTD/svg10.dtd">
<svg width="16" height="16">
  <circle cx="0" cy="0" r="1" fill="srgba(41,140,8,1)"/>
  <circle cx="1" cy="0" r="1" fill="srgba(41,140,8,1)"/>
  <circle cx="2" cy="0" r="1" fill="srgba(41,140,8,1)"/>
  <circle cx="3" cy="0" r="1" fill="srgba(41,140,8,1)"/>
  <circle cx="4" cy="0" r="1" fill="srgba(41,140,8,1)"/>
  <circle cx="5" cy="0" r="1" fill="srgba(41,140,8,1)"/>
  <circle cx="6" cy="0" r="1" fill="srgba(41,140,8,1)"/>
  <circle cx="7" cy="0" r="1" fill="srgba(41,140,8,1)"/>
  <circle cx="8" cy="0" r="1" fill="srgba(41,140,8,1)"/>
  <circle cx="9" cy="0" r="1" fill="srgba(41,140,8,1)"/>
  <circle cx="10" cy="0" r="1" fill="srgba(41,140,8,1)"/>
  <circle cx="11" cy="0" r="1" fill="srgba(41,140,8,1)"/>
  <circle cx="12" cy="0" r="1" fill="srgba(41,140,8,1)"/>
  <circle cx="13" cy="0" r="1" fill="srgba(41,140,8,1)"/>
  <circle cx="14" cy="0" r="1" fill="srgba(16.0464%,54.8898%,3.12047%,1)"/>
  <circle cx="15" cy="0" r="1" fill="srgba(16.6476%,55.1171%,3.43481%,1)"/>
  <circle cx="0" cy="1" r="1" fill="srgba(41,140,8,1)"/>
  <circle cx="1" cy="1" r="1" fill="srgba(41,140,8,1)"/>
  <circle cx="2" cy="1" r="1" fill="srgba(41,140,8,1)"/>
  <circle cx="3" cy="1" r="1" fill="srgba(41,140,8,1)"/>
  <circle cx="4" cy="1" r="1" fill="srgba(41,140,8,1)"/>
  <circle cx="5" cy="1" r="1" fill="srgba(41,140,8,1)"/>
  <circle cx="6" cy="1" r="1" fill="srgba(41,140,8,1)"/>
  <circle cx="7" cy="1" r="1" fill="srgba(41,140,8,1)"/>
  <circle cx="8" cy="1" r="1" fill="srgba(41,140,8,1)"/>
  <circle cx="9" cy="1" r="1" fill="srgba(41,140,8,1)"/>
  <circle cx="10" cy="1" r="1" fill="srgba(41,140,8,1)"/>
  <circle cx="11" cy="1" r="1" fill="srgba(41,140,8,1)"/>
  <circle cx="12" cy="1" r="1" fill="srgba(41,140,8,1)"/>
  <circle cx="13" cy="1" r="1" fill="srgba(41,140,8,1)"/>
  <circle cx="14" cy="1" r="1" fill="srgba(16.0464%,54.8898%,3.122%,1)"/>
  <circle cx="15" cy="1" r="1" fill="srgba(16.6476%,55.1095%,3.40581%,1)"/>
  <circle cx="0" cy="2" r="1" fill="srgba(41,140,8,1)"/>
  <circle cx="1" cy="2" r="1" fill="srgba(41,140,8,1)"/>
  <circle cx="2" cy="2" r="1" fill="srgba(41,140,8,1)"/>
  <circle cx="3" cy="2" r="1" fill="srgba(41,140,8,1)"/>
  <circle cx="4" cy="2" r="1" fill="srgba(41,140,8,1)"/>
  <circle cx="5" cy="2" r="1" fill="srgba(41,140,8,1)"/>
  <circle cx="6" cy="2" r="1" fill="srgba(41,140,8,1)"/>
  <circle cx="7" cy="2" r="1" fill="srgba(41,140,8,1)"/>
  <circle cx="8" cy="2" r="1" fill="srgba(41,140,8,1)"/>
  <circle cx="9" cy="2" r="1" fill="srgba(41,140,8,1)"/>
  <circle cx="10" cy="2" r="1" fill="srgba(41,140,8,1)"/>
  <circle cx="11" cy="2" r="1" fill="srgba(41,140,8,1)"/>
  <circle cx="12" cy="2" r="1" fill="srgba(41,140,8,1)"/>
  <circle cx="13" cy="2" r="1" fill="srgba(41,140,8,1)"/>
  <circle cx="14" cy="2" r="1" fill="srgba(16.0464%,54.8898%,3.122%,1)"/>
  <circle cx="15" cy="2" r="1" fill="srgba(16.6476%,55.1095%,3.40734%,1)"/>
  <circle cx="0" cy="3" r="1" fill="srgba(41,140,8,1)"/>
  <circle cx="1" cy="3" r="1" fill="srgba(41,140,8,1)"/>
  <circle cx="2" cy="3" r="1" fill="srgba(41,140,8,1)"/>
  <circle cx="3" cy="3" r="1" fill="srgba(41,140,8,1)"/>
  <circle cx="4" cy="3" r="1" fill="srgba(41,140,8,1)"/>
  <circle cx="5" cy="3" r="1" fill="srgba(16.0769%,54.9004%,3.14336%,1)"/>
  <circle cx="6" cy="3" r="1" fill="srgba(16.1013%,54.9203%,3.02892%,1)"/>
  <circle cx="7" cy="3" r="1" fill="srgba(16.2158%,55.0134%,2.50095%,1)"/>
  <circle cx="8" cy="3" r="1" fill="srgba(16.2463%,55.0378%,2.35599%,1)"/>
  <circle cx="9" cy="3" r="1" fill="srgba(16.1379%,54.9493%,2.86259%,1)"/>
  <circle cx="10" cy="3" r="1" fill="srgba(16.0784%,54.902%,3.13878%,1)"/>
  <circle cx="11" cy="3" r="1" fill="srgba(41,140,8,1)"/>
  <circle cx="12" cy="3" r="1" fill="srgba(41,140,8,1)"/>
  <circle cx="13" cy="3" r="1" fill="srgba(41,140,8,1)"/>
  <circle cx="14" cy="3" r="1" fill="srgba(16.0464%,54.8898%,3.122%,1)"/>
  <circle cx="15" cy="3" r="1" fill="srgba(16.6476%,55.1095%,3.40734%,1)"/>
  <circle cx="0" cy="4" r="1" fill="srgba(14.6166%,54.5052%,2.96635%,1)"/>
  <circle cx="1" cy="4" r="1" fill="srgba(14.6166%,54.5052%,2.96635%,1)"/>
  <circle cx="2" cy="4" r="1" fill="srgba(14.6166%,54.5052%,2.96635%,1)"/>
  <circle cx="3" cy="4" r="1" fill="srgba(14.6166%,54.5052%,2.96635%,1)"/>
  <circle cx="4" cy="4" r="1" fill="srgba(14.5922%,54.4961%,2.98161%,1)"/>
  <circle cx="5" cy="4" r="1" fill="srgba(15.2056%,54.7234%,2.51926%,1)"/>
  <circle cx="6" cy="4" r="1" fill="srgba(15.555%,54.5983%,4.51667%,1)"/>
  <circle cx="7" cy="4" r="1" fill="srgba(13.7102%,53.0922%,13.2555%,1)"/>
  <circle cx="8" cy="4" r="1" fill="srgba(13.0556%,52.639%,15.6359%,1)"/>
  <circle cx="9" cy="4" r="1" fill="srgba(15.0668%,54.1421%,7.34569%,1)"/>
  <circle cx="10" cy="4" r="1" fill="srgba(15.6222%,54.8501%,2.43992%,1)"/>
  <circle cx="11" cy="4" r="1" fill="srgba(14.6456%,54.5174%,2.93431%,1)"/>
  <circle cx="12" cy="4" r="1" fill="srgba(14.6151%,54.5052%,2.96788%,1)"/>
  <circle cx="13" cy="4" r="1" fill="srgba(14.6166%,54.5052%,2.96635%,1)"/>
  <circle cx="14" cy="4" r="1" fill="srgba(14.5846%,54.493%,2.95109%,1)"/>
  <circle cx="15" cy="4" r="1" fill="srgba(15.1965%,54.7143%,3.23033%,1)"/>
  <circle cx="0" cy="5" r="1" fill="srgba(49.1249%,63.8499%,6.99321%,1)"/>
  <circle cx="1" cy="5" r="1" fill="srgba(49.1249%,63.8499%,6.99321%,1)"/>
  <circle cx="2" cy="5" r="1" fill="srgba(49.1249%,63.8499%,6.99321%,1)"/>
  <circle cx="3" cy="5" r="1" fill="srgba(49.1157%,63.8468%,6.99931%,1)"/>
  <circle cx="4" cy="5" r="1" fill="srgba(49.7734%,64.0833%,6.54917%,1)"/>
  <circle cx="5" cy="5" r="1" fill="srgba(38.8602%,60.1709%,13.7819%,1)"/>
  <circle cx="6" cy="5" r="1" fill="srgba(11.6991%,48.8701%,45.7313%,1)"/>
  <circle cx="7" cy="5" r="1" fill="srgba(6.58732%,45.1225%,66.1631%,1)"/>
  <circle cx="8" cy="5" r="1" fill="srgba(10.3014%,46.2165%,65.7588%,1)"/>
  <circle cx="9" cy="5" r="1" fill="srgba(5.91592%,45.8915%,57.6043%,1)"/>
  <circle cx="10" cy="5" r="1" fill="srgba(27.5975%,55.8541%,23.7247%,1)"/>
  <circle cx="11" cy="5" r="1" fill="srgba(49.2943%,63.9307%,6.70481%,1)"/>
  <circle cx="12" cy="5" r="1" fill="srgba(49.1432%,63.856%,6.98253%,1)"/>
  <circle cx="13" cy="5" r="1" fill="srgba(49.1249%,63.8499%,6.99321%,1)"/>
  <circle cx="14" cy="5" r="1" fill="srgba(49.1051%,63.8392%,6.97032%,1)"/>
  <circle cx="15" cy="5" r="1" fill="srgba(49.4697%,64.036%,7.38994%,1)"/>
  <circle cx="0" cy="6" r="1" fill="srgba(100%,77.7066%,12.9671%,1)"/>
  <circle cx="1" cy="6" r="1" fill="srgba(100%,77.7066%,12.9671%,1)"/>
  <circle cx="2" cy="6" r="1" fill="srgba(100%,77.7066%,12.9671%,1)"/>
  <circle cx="3" cy="6" r="1" fill="srgba(100%,77.7737%,12.845%,1)"/>
  <circle cx="4" cy="6" r="1" fill="srgba(97.5463%,76.8536%,14.5129%,1)"/>
  <circle cx="5" cy="6" r="1" fill="srgba(37.8424%,55.4528%,53.3532%,1)"/>
  <circle cx="6" cy="6" r="1" fill="srgba(11.5068%,45.9083%,71.104%,1)"/>
  <circle cx="7" cy="6" r="1" fill="srgba(16.1288%,47.6219%,67.7729%,1)"/>
  <circle cx="8" cy="6" r="1" fill="srgba(29.9565%,52.5856%,58.6587%,1)"/>
  <circle cx="9" cy="6" r="1" fill="srgba(17.8012%,48.1529%,67.042%,1)"/>
  <circle cx="10" cy="6" r="1" fill="srgba(17.1466%,47.9332%,67.1305%,1)"/>
  <circle cx="11" cy="6" r="1" fill="srgba(83.8132%,71.9463%,23.4012%,1)"/>
  <circle cx="12" cy="6" r="1" fill="srgba(100%,78.0377%,12.3674%,1)"/>
  <circle cx="13" cy="6" r="1" fill="srgba(100%,77.7066%,12.9671%,1)"/>
  <circle cx="14" cy="6" r="1" fill="srgba(100%,77.6974%,12.9335%,1)"/>
  <circle cx="15" cy="6" r="1" fill="srgba(100%,77.8607%,13.5607%,1)"/>
  <circle cx="0" cy="7" r="1" fill="srgba(100%,77.6516%,12.9427%,1)"/>
  <circle cx="1" cy="7" r="1" fill="srgba(100%,77.6516%,12.9427%,1)"/>
  <circle cx="2" cy="7" r="1" fill="srgba(100%,77.6516%,12.9427%,1)"/>
  <circle cx="3" cy="7" r="1" fill="srgba(100%,78.0209%,12.2728%,1)"/>
  <circle cx="4" cy="7" r="1" fill="srgba(83.4897%,71.7433%,23.6545%,1)"/>
  <circle cx="5" cy="7" r="1" fill="srgba(9.32021%,44.9409%,72.2515%,1)"/>
  <circle cx="6" cy="7" r="1" fill="srgba(8.99672%,45.0782%,71.9982%,1)"/>
  <circle cx="7" cy="7" r="1" fill="srgba(16.3943%,47.7333%,67.1794%,1)"/>
  <circle cx="8" cy="7" r="1" fill="srgba(55.7137%,61.9089%,41.4755%,1)"/>
  <circle cx="9" cy="7" r="1" fill="srgba(29.865%,52.6329%,58.2971%,1)"/>
  <circle cx="10" cy="7" r="1" fill="srgba(15.7626%,47.3289%,67.9179%,1)"/>
  <circle cx="11" cy="7" r="1" fill="srgba(54.8806%,61.4389%,42.3392%,1)"/>
  <circle cx="12" cy="7" r="1" fill="srgba(100%,78.1872%,11.9722%,1)"/>
  <circle cx="13" cy="7" r="1" fill="srgba(100%,77.6516%,12.9427%,1)"/>
  <circle cx="14" cy="7" r="1" fill="srgba(100%,77.6425%,12.9091%,1)"/>
  <circle cx="15" cy="7" r="1" fill="srgba(100%,77.8058%,13.5348%,1)"/>
  <circle cx="0" cy="8" r="1" fill="srgba(255,198,33,1)"/>
  <circle cx="1" cy="8" r="1" fill="srgba(255,198,33,1)"/>
  <circle cx="2" cy="8" r="1" fill="srgba(255,198,33,1)"/>
  <circle cx="3" cy="8" r="1" fill="srgba(100%,78.1155%,12.0928%,1)"/>
  <circle cx="4" cy="8" r="1" fill="srgba(78.677%,69.9641%,26.8711%,1)"/>
  <circle cx="5" cy="8" r="1" fill="srgba(12.6177%,46.3188%,69.7444%,1)"/>
  <circle cx="6" cy="8" r="1" fill="srgba(30.1717%,52.7337%,58.114%,1)"/>
  <circle cx="7" cy="8" r="1" fill="srgba(51.8578%,60.4639%,44.094%,1)"/>
  <circle cx="8" cy="8" r="1" fill="srgba(52.8847%,60.8316%,43.4302%,1)"/>
  <circle cx="9" cy="8" r="1" fill="srgba(42.6184%,57.1756%,50.0618%,1)"/>
  <circle cx="10" cy="8" r="1" fill="srgba(34.9493%,54.3679%,55.1522%,1)"/>
  <circle cx="11" cy="8" r="1" fill="srgba(48.0415%,58.9517%,46.8376%,1)"/>
  <circle cx="12" cy="8" r="1" fill="srgba(100%,78.1003%,12.1202%,1)"/>
  <circle cx="13" cy="8" r="1" fill="srgba(255,198,33,1)"/>
  <circle cx="14" cy="8" r="1" fill="srgba(100%,77.6379%,12.9076%,1)"/>
  <circle cx="15" cy="8" r="1" fill="srgba(100%,77.8012%,13.5332%,1)"/>
  <circle cx="0" cy="9" r="1" fill="srgba(100%,78.7518%,13.0022%,1)"/>
  <circle cx="1" cy="9" r="1" fill="srgba(100%,78.7518%,13.0022%,1)"/>
  <circle cx="2" cy="9" r="1" fill="srgba(100%,78.7518%,13.0022%,1)"/>
  <circle cx="3" cy="9" r="1" fill="srgba(100%,78.9609%,12.6238%,1)"/>
  <circle cx="4" cy="9" r="1" fill="srgba(90.8064%,75.4681%,18.9624%,1)"/>
  <circle cx="5" cy="9" r="1" fill="srgba(23.6728%,51.4305%,62.4475%,1)"/>
  <circle cx="6" cy="9" r="1" fill="srgba(21.8631%,50.0984%,63.5416%,1)"/>
  <circle cx="7" cy="9" r="1" fill="srgba(51.7266%,60.4105%,44.1779%,1)"/>
  <circle cx="8" cy="9" r="1" fill="srgba(39.4797%,56.0449%,52.1019%,1)"/>
  <circle cx="9" cy="9" r="1" fill="srgba(66.2989%,65.6062%,34.7478%,1)"/>
  <circle cx="10" cy="9" r="1" fill="srgba(45.2552%,58.6999%,48.4367%,1)"/>
  <circle cx="11" cy="9" r="1" fill="srgba(67.9423%,67.3106%,33.7804%,1)"/>
  <circle cx="12" cy="9" r="1" fill="srgba(100%,79.2508%,12.0974%,1)"/>
  <circle cx="13" cy="9" r="1" fill="srgba(100%,78.7518%,13.0022%,1)"/>
  <circle cx="14" cy="9" r="1" fill="srgba(100%,78.7442%,12.9686%,1)"/>
  <circle cx="15" cy="9" r="1" fill="srgba(100%,78.8998%,13.6004%,1)"/>
  <circle cx="0" cy="10" r="1" fill="srgba(97.9339%,56.3699%,11.78%,1)"/>
  <circle cx="1" cy="10" r="1" fill="srgba(97.9339%,56.3699%,11.78%,1)"/>
  <circle cx="2" cy="10" r="1" fill="srgba(97.9339%,56.3699%,11.78%,1)"/>
  <circle cx="3" cy="10" r="1" fill="srgba(97.9477%,56.3745%,11.7708%,1)"/>
  <circle cx="4" cy="10" r="1" fill="srgba(98.5733%,56.5087%,11.3558%,1)"/>
  <circle cx="5" cy="10" r="1" fill="srgba(63.0396%,45.2338%,34.519%,1)"/>
  <circle cx="6" cy="10" r="1" fill="srgba(22.3957%,44.3214%,62.4689%,1)"/>
  <circle cx="7" cy="10" r="1" fill="srgba(33.9513%,54.6914%,55.8221%,1)"/>
  <circle cx="8" cy="10" r="1" fill="srgba(37.5937%,55.8267%,53.7819%,1)"/>
  <circle cx="9" cy="10" r="1" fill="srgba(86.4012%,73.0297%,21.6876%,1)"/>
  <circle cx="10" cy="10" r="1" fill="srgba(74.7311%,57.3724%,27.7546%,1)"/>
  <circle cx="11" cy="10" r="1" fill="srgba(92.2286%,53.994%,15.4376%,1)"/>
  <circle cx="12" cy="10" r="1" fill="srgba(98.2467%,56.4813%,11.577%,1)"/>
  <circle cx="13" cy="10" r="1" fill="srgba(97.9339%,56.3699%,11.78%,1)"/>
  <circle cx="14" cy="10" r="1" fill="srgba(97.9324%,56.3546%,11.754%,1)"/>
  <circle cx="15" cy="10" r="1" fill="srgba(97.9492%,56.6354%,12.253%,1)"/>
  <circle cx="0" cy="11" r="1" fill="srgba(93.7896%,13.6141%,9.44839%,1)"/>
  <circle cx="1" cy="11" r="1" fill="srgba(93.7896%,13.6141%,9.44839%,1)"/>
  <circle cx="2" cy="11" r="1" fill="srgba(93.7896%,13.6141%,9.44839%,1)"/>
  <circle cx="3" cy="11" r="1" fill="srgba(93.7881%,13.6141%,9.44991%,1)"/>
  <circle cx="4" cy="11" r="1" fill="srgba(93.9086%,13.6172%,9.36751%,1)"/>
  <circle cx="5" cy="11" r="1" fill="srgba(93.4691%,13.7758%,9.68948%,1)"/>
  <circle cx="6" cy="11" r="1" fill="srgba(75.4589%,22.7329%,23.2136%,1)"/>
  <circle cx="7" cy="11" r="1" fill="srgba(66.6117%,47.0924%,32.285%,1)"/>
  <circle cx="8" cy="11" r="1" fill="srgba(66.7887%,50.5745%,32.4636%,1)"/>
  <circle cx="9" cy="11" r="1" fill="srgba(99.9207%,78.558%,12.6482%,1)"/>
  <circle cx="10" cy="11" r="1" fill="srgba(97.0489%,43.2044%,10.7652%,1)"/>
  <circle cx="11" cy="11" r="1" fill="srgba(93.9452%,12.6864%,9.23018%,1)"/>
  <circle cx="12" cy="11" r="1" fill="srgba(93.7743%,13.608%,9.45907%,1)"/>
  <circle cx="13" cy="11" r="1" fill="srgba(93.7896%,13.6141%,9.44839%,1)"/>
  <circle cx="14" cy="11" r="1" fill="srgba(93.7865%,13.5866%,9.43465%,1)"/>
  <circle cx="15" cy="11" r="1" fill="srgba(93.8354%,14.1024%,9.68338%,1)"/>
  <circle cx="0" cy="12" r="1" fill="srgba(93.7209%,12.8954%,9.40871%,1)"/>
  <circle cx="1" cy="12" r="1" fill="srgba(93.7209%,12.8954%,9.40871%,1)"/>
  <circle cx="2" cy="12" r="1" fill="srgba(93.7209%,12.8954%,9.40871%,1)"/>
  <circle cx="3" cy="12" r="1" fill="srgba(93.7209%,12.8954%,9.40871%,1)"/>
  <circle cx="4" cy="12" r="1" fill="srgba(93.7163%,12.8969%,9.41176%,1)"/>
  <circle cx="5" cy="12" r="1" fill="srgba(93.7621%,12.5597%,9.34157%,1)"/>
  <circle cx="6" cy="12" r="1" fill="srgba(95.2911%,18.8464%,9.01503%,1)"/>
  <circle cx="7" cy="12" r="1" fill="srgba(96.6934%,38.9746%,10.4112%,1)"/>
  <circle cx="8" cy="12" r="1" fill="srgba(96.3867%,38.4405%,10.6722%,1)"/>
  <circle cx="9" cy="12" r="1" fill="srgba(100%,78.6023%,12.9885%,1)"/>
  <circle cx="10" cy="12" r="1" fill="srgba(96.7727%,44.3122%,11.1177%,1)"/>
  <circle cx="11" cy="12" r="1" fill="srgba(93.6294%,11.9432%,9.35683%,1)"/>
  <circle cx="12" cy="12" r="1" fill="srgba(93.7209%,12.8954%,9.40871%,1)"/>
  <circle cx="13" cy="12" r="1" fill="srgba(93.7209%,12.8954%,9.40871%,1)"/>
  <circle cx="14" cy="12" r="1" fill="srgba(93.7179%,12.8679%,9.39651%,1)"/>
  <circle cx="15" cy="12" r="1" fill="srgba(93.7667%,13.3883%,9.63912%,1)"/>
  <circle cx="0" cy="13" r="1" fill="srgba(239,33,24,1)"/>
  <circle cx="1" cy="13" r="1" fill="srgba(239,33,24,1)"/>
  <circle cx="2" cy="13" r="1" fill="srgba(239,33,24,1)"/>
  <circle cx="3" cy="13" r="1" fill="srgba(239,33,24,1)"/>
  <circle cx="4" cy="13" r="1" fill="srgba(239,33,24,1)"/>
  <circle cx="5" cy="13" r="1" fill="srgba(93.6797%,12.4697%,9.38582%,1)"/>
  <circle cx="6" cy="13" r="1" fill="srgba(94.5403%,21.3626%,9.87106%,1)"/>
  <circle cx="7" cy="13" r="1" fill="srgba(96.5362%,41.9318%,10.9895%,1)"/>
  <circle cx="8" cy="13" r="1" fill="srgba(96.1944%,38.3886%,10.7973%,1)"/>
  <circle cx="9" cy="13" r="1" fill="srgba(100%,78.7076%,12.9992%,1)"/>
  <circle cx="10" cy="13" r="1" fill="srgba(96.9314%,46.006%,11.2154%,1)"/>
  <circle cx="11" cy="13" r="1" fill="srgba(93.6431%,12.0912%,9.36599%,1)"/>
  <circle cx="12" cy="13" r="1" fill="srgba(239,33,24,1)"/>
  <circle cx="13" cy="13" r="1" fill="srgba(239,33,24,1)"/>
  <circle cx="14" cy="13" r="1" fill="srgba(93.7224%,12.9137%,9.39956%,1)"/>
  <circle cx="15" cy="13" r="1" fill="srgba(93.7713%,13.434%,9.64218%,1)"/>
  <circle cx="0" cy="14" r="1" fill="srgba(93.724%,12.9152%,9.38582%,1)"/>
  <circle cx="1" cy="14" r="1" fill="srgba(93.724%,12.9152%,9.38582%,1)"/>
  <circle cx="2" cy="14" r="1" fill="srgba(93.724%,12.9152%,9.38582%,1)"/>
  <circle cx="3" cy="14" r="1" fill="srgba(93.724%,12.9152%,9.38582%,1)"/>
  <circle cx="4" cy="14" r="1" fill="srgba(93.724%,12.9152%,9.38582%,1)"/>
  <circle cx="5" cy="14" r="1" fill="srgba(93.6629%,12.2774%,9.35073%,1)"/>
  <circle cx="6" cy="14" r="1" fill="srgba(94.7936%,23.9673%,9.99313%,1)"/>
  <circle cx="7" cy="14" r="1" fill="srgba(96.7636%,44.3229%,11.1086%,1)"/>
  <circle cx="8" cy="14" r="1" fill="srgba(96.1715%,38.2223%,10.7759%,1)"/>
  <circle cx="9" cy="14" r="1" fill="srgba(100%,78.8006%,12.9976%,1)"/>
  <circle cx="10" cy="14" r="1" fill="srgba(97.0947%,47.689%,11.2932%,1)"/>
  <circle cx="11" cy="14" r="1" fill="srgba(93.6553%,12.1996%,9.34615%,1)"/>
  <circle cx="12" cy="14" r="1" fill="srgba(93.724%,12.9152%,9.38582%,1)"/>
  <circle cx="13" cy="14" r="1" fill="srgba(93.724%,12.9152%,9.38582%,1)"/>
  <circle cx="14" cy="14" r="1" fill="srgba(93.7209%,12.8878%,9.37362%,1)"/>
  <circle cx="15" cy="14" r="1" fill="srgba(93.7697%,13.4066%,9.61318%,1)"/>
  <circle cx="0" cy="15" r="1" fill="srgba(93.756%,13.3959%,9.88937%,1)"/>
  <circle cx="1" cy="15" r="1" fill="srgba(93.756%,13.3959%,9.88937%,1)"/>
  <circle cx="2" cy="15" r="1" fill="srgba(93.756%,13.3959%,9.88937%,1)"/>
  <circle cx="3" cy="15" r="1" fill="srgba(93.756%,13.3959%,9.88937%,1)"/>
  <circle cx="4" cy="15" r="1" fill="srgba(93.756%,13.3959%,9.88937%,1)"/>
  <circle cx="5" cy="15" r="1" fill="srgba(93.6797%,12.6177%,9.85122%,1)"/>
  <circle cx="6" cy="15" r="1" fill="srgba(95.0698%,26.9322%,10.5486%,1)"/>
  <circle cx="7" cy="15" r="1" fill="srgba(96.9451%,46.2562%,11.5053%,1)"/>
  <circle cx="8" cy="15" r="1" fill="srgba(96.17%,38.3032%,11.1223%,1)"/>
  <circle cx="9" cy="15" r="1" fill="srgba(100%,78.6053%,13.1075%,1)"/>
  <circle cx="10" cy="15" r="1" fill="srgba(97.2412%,49.2668%,11.6548%,1)"/>
  <circle cx="11" cy="15" r="1" fill="srgba(93.7011%,12.8344%,9.86191%,1)"/>
  <circle cx="12" cy="15" r="1" fill="srgba(93.756%,13.3928%,9.88937%,1)"/>
  <circle cx="13" cy="15" r="1" fill="srgba(93.756%,13.3959%,9.88937%,1)"/>
  <circle cx="14" cy="15" r="1" fill="srgba(93.753%,13.3669%,9.87106%,1)"/>
  <circle cx="15" cy="15" r="1" fill="srgba(93.8018%,13.9117%,10.2205%,1)"/>
</svg>
