<?xml version="1.0" standalone="no"?>
<!DOCTYPE svg PUBLIC "-//W3C//DTD SVG 20010904//EN"
  "http://www.w3.org/TR/2001/REC-SVG-20010904/DTD/svg10.dtd">
<svg width="16" height="16">
  <circle cx="0" cy="0" r="1" fill="white"/>
  <circle cx="1" cy="0" r="1" fill="white"/>
  <circle cx="2" cy="0" r="1" fill="white"/>
  <circle cx="3" cy="0" r="1" fill="srgba(78.5779%,83.0289%,89.3309%,1)"/>
  <circle cx="4" cy="0" r="1" fill="srgba(5.26894%,24.9577%,52.8206%,1)"/>
  <circle cx="5" cy="0" r="1" fill="srgba(0%,20.5249%,50.0328%,1)"/>
  <circle cx="6" cy="0" r="1" fill="srgba(0%,20.6271%,50.0969%,1)"/>
  <circle cx="7" cy="0" r="1" fill="srgba(3.27459%,23.3783%,51.8257%,1)"/>
  <circle cx="8" cy="0" r="1" fill="srgba(74.1848%,79.5514%,87.1397%,1)"/>
  <circle cx="9" cy="0" r="1" fill="white"/>
  <circle cx="10" cy="0" r="1" fill="white"/>
  <circle cx="11" cy="0" r="1" fill="white"/>
  <circle cx="12" cy="0" r="1" fill="white"/>
  <circle cx="13" cy="0" r="1" fill="white"/>
  <circle cx="14" cy="0" r="1" fill="white"/>
  <circle cx="15" cy="0" r="1" fill="white"/>
  <circle cx="0" cy="1" r="1" fill="white"/>
  <circle cx="1" cy="1" r="1" fill="white"/>
  <circle cx="2" cy="1" r="1" fill="white"/>
  <circle cx="3" cy="1" r="1" fill="srgba(78.5779%,83.0289%,89.3309%,1)"/>
  <circle cx="4" cy="1" r="1" fill="srgba(5.26894%,24.9577%,52.8206%,1)"/>
  <circle cx="5" cy="1" r="1" fill="srgba(0%,20.5249%,50.0328%,1)"/>
  <circle cx="6" cy="1" r="1" fill="srgba(0%,20.6271%,50.0969%,1)"/>
  <circle cx="7" cy="1" r="1" fill="srgba(3.27459%,23.3783%,51.8257%,1)"/>
  <circle cx="8" cy="1" r="1" fill="srgba(74.1848%,79.5514%,87.1397%,1)"/>
  <circle cx="9" cy="1" r="1" fill="white"/>
  <circle cx="10" cy="1" r="1" fill="white"/>
  <circle cx="11" cy="1" r="1" fill="white"/>
  <circle cx="12" cy="1" r="1" fill="white"/>
  <circle cx="13" cy="1" r="1" fill="white"/>
  <circle cx="14" cy="1" r="1" fill="white"/>
  <circle cx="15" cy="1" r="1" fill="white"/>
  <circle cx="0" cy="2" r="1" fill="white"/>
  <circle cx="1" cy="2" r="1" fill="white"/>
  <circle cx="2" cy="2" r="1" fill="white"/>
  <circle cx="3" cy="2" r="1" fill="srgba(78.5779%,83.0289%,89.3309%,1)"/>
  <circle cx="4" cy="2" r="1" fill="srgba(5.26894%,24.9577%,52.8206%,1)"/>
  <circle cx="5" cy="2" r="1" fill="srgba(0%,20.5249%,50.0328%,1)"/>
  <circle cx="6" cy="2" r="1" fill="srgba(0%,20.6271%,50.0969%,1)"/>
  <circle cx="7" cy="2" r="1" fill="srgba(3.27459%,23.3783%,51.8257%,1)"/>
  <circle cx="8" cy="2" r="1" fill="srgba(74.1848%,79.5514%,87.1397%,1)"/>
  <circle cx="9" cy="2" r="1" fill="white"/>
  <circle cx="10" cy="2" r="1" fill="white"/>
  <circle cx="11" cy="2" r="1" fill="white"/>
  <circle cx="12" cy="2" r="1" fill="white"/>
  <circle cx="13" cy="2" r="1" fill="white"/>
  <circle cx="14" cy="2" r="1" fill="white"/>
  <circle cx="15" cy="2" r="1" fill="white"/>
  <circle cx="0" cy="3" r="1" fill="white"/>
  <circle cx="1" cy="3" r="1" fill="white"/>
  <circle cx="2" cy="3" r="1" fill="white"/>
  <circle cx="3" cy="3" r="1" fill="srgba(78.5779%,83.0289%,89.3309%,1)"/>
  <circle cx="4" cy="3" r="1" fill="srgba(5.26894%,24.9577%,52.8206%,1)"/>
  <circle cx="5" cy="3" r="1" fill="srgba(0%,20.5249%,50.0328%,1)"/>
  <circle cx="6" cy="3" r="1" fill="srgba(0%,20.6271%,50.0969%,1)"/>
  <circle cx="7" cy="3" r="1" fill="srgba(3.27459%,23.3783%,51.8257%,1)"/>
  <circle cx="8" cy="3" r="1" fill="srgba(74.1848%,79.5514%,87.1397%,1)"/>
  <circle cx="9" cy="3" r="1" fill="white"/>
  <circle cx="10" cy="3" r="1" fill="white"/>
  <circle cx="11" cy="3" r="1" fill="white"/>
  <circle cx="12" cy="3" r="1" fill="white"/>
  <circle cx="13" cy="3" r="1" fill="white"/>
  <circle cx="14" cy="3" r="1" fill="white"/>
  <circle cx="15" cy="3" r="1" fill="white"/>
  <circle cx="0" cy="4" r="1" fill="white"/>
  <circle cx="1" cy="4" r="1" fill="white"/>
  <circle cx="2" cy="4" r="1" fill="white"/>
  <circle cx="3" cy="4" r="1" fill="srgba(78.5824%,83.0335%,89.3339%,1)"/>
  <circle cx="4" cy="4" r="1" fill="srgba(5.27047%,24.9592%,52.8222%,1)"/>
  <circle cx="5" cy="4" r="1" fill="srgba(0%,20.5249%,50.0328%,1)"/>
  <circle cx="6" cy="4" r="1" fill="srgba(0%,20.6271%,50.0969%,1)"/>
  <circle cx="7" cy="4" r="1" fill="srgba(3.27764%,23.3814%,51.8273%,1)"/>
  <circle cx="8" cy="4" r="1" fill="srgba(74.1924%,79.556%,87.1427%,1)"/>
  <circle cx="9" cy="4" r="1" fill="white"/>
  <circle cx="10" cy="4" r="1" fill="white"/>
  <circle cx="11" cy="4" r="1" fill="white"/>
  <circle cx="12" cy="4" r="1" fill="white"/>
  <circle cx="13" cy="4" r="1" fill="white"/>
  <circle cx="14" cy="4" r="1" fill="white"/>
  <circle cx="15" cy="4" r="1" fill="white"/>
  <circle cx="0" cy="5" r="1" fill="srgba(76.4279%,81.323%,88.2612%,1)"/>
  <circle cx="1" cy="5" r="1" fill="srgba(76.4279%,81.323%,88.2612%,1)"/>
  <circle cx="2" cy="5" r="1" fill="srgba(77.438%,82.1225%,88.7648%,1)"/>
  <circle cx="3" cy="5" r="1" fill="srgba(60.0549%,68.3528%,80.1068%,1)"/>
  <circle cx="4" cy="5" r="1" fill="srgba(4.02686%,23.9734%,52.2011%,1)"/>
  <circle cx="5" cy="5" r="1" fill="srgba(0%,20.5859%,50.071%,1)"/>
  <circle cx="6" cy="5" r="1" fill="srgba(0%,20.6638%,50.1213%,1)"/>
  <circle cx="7" cy="5" r="1" fill="srgba(2.50248%,22.7665%,51.4412%,1)"/>
  <circle cx="8" cy="5" r="1" fill="srgba(56.6979%,65.6947%,78.4314%,1)"/>
  <circle cx="9" cy="5" r="1" fill="srgba(77.583%,82.2385%,88.8365%,1)"/>
  <circle cx="10" cy="5" r="1" fill="srgba(76.4279%,81.323%,88.2612%,1)"/>
  <circle cx="11" cy="5" r="1" fill="srgba(76.4279%,81.323%,88.2612%,1)"/>
  <circle cx="12" cy="5" r="1" fill="srgba(76.4279%,81.323%,88.2612%,1)"/>
  <circle cx="13" cy="5" r="1" fill="srgba(76.4279%,81.323%,88.2612%,1)"/>
  <circle cx="14" cy="5" r="1" fill="srgba(76.4279%,81.323%,88.2612%,1)"/>
  <circle cx="15" cy="5" r="1" fill="srgba(76.4279%,81.323%,88.2612%,1)"/>
  <circle cx="0" cy="6" r="1" fill="srgba(4.2237%,24.1276%,52.3003%,1)"/>
  <circle cx="1" cy="6" r="1" fill="srgba(4.2237%,24.1276%,52.3003%,1)"/>
  <circle cx="2" cy="6" r="1" fill="srgba(4.28016%,24.1718%,52.3278%,1)"/>
  <circle cx="3" cy="6" r="1" fill="srgba(3.31884%,23.4119%,51.8502%,1)"/>
  <circle cx="4" cy="6" r="1" fill="srgba(0.222782%,20.9598%,50.3075%,1)"/>
  <circle cx="5" cy="6" r="1" fill="srgba(0%,20.7736%,50.1884%,1)"/>
  <circle cx="6" cy="6" r="1" fill="srgba(0%,20.7782%,50.1915%,1)"/>
  <circle cx="7" cy="6" r="1" fill="srgba(0.138857%,20.8942%,50.2647%,1)"/>
  <circle cx="8" cy="6" r="1" fill="srgba(3.13268%,23.2639%,51.7571%,1)"/>
  <circle cx="9" cy="6" r="1" fill="srgba(4.28779%,24.1779%,52.3323%,1)"/>
  <circle cx="10" cy="6" r="1" fill="srgba(4.2237%,24.1276%,52.3003%,1)"/>
  <circle cx="11" cy="6" r="1" fill="srgba(4.2237%,24.1276%,52.3003%,1)"/>
  <circle cx="12" cy="6" r="1" fill="srgba(4.2237%,24.1276%,52.3003%,1)"/>
  <circle cx="13" cy="6" r="1" fill="srgba(4.2237%,24.1276%,52.3003%,1)"/>
  <circle cx="14" cy="6" r="1" fill="srgba(4.2237%,24.1276%,52.3003%,1)"/>
  <circle cx="15" cy="6" r="1" fill="srgba(4.2237%,24.1276%,52.3003%,1)"/>
  <circle cx="0" cy="7" r="1" fill="srgba(0%,20.5798%,50.0679%,1)"/>
  <circle cx="1" cy="7" r="1" fill="srgba(0%,20.5798%,50.0679%,1)"/>
  <circle cx="2" cy="7" r="1" fill="srgba(0%,20.5768%,50.0664%,1)"/>
  <circle cx="3" cy="7" r="1" fill="srgba(0%,20.6241%,50.0954%,1)"/>
  <circle cx="4" cy="7" r="1" fill="srgba(0%,20.7736%,50.19%,1)"/>
  <circle cx="5" cy="7" r="1" fill="srgba(0,53,128,1)"/>
  <circle cx="6" cy="7" r="1" fill="srgba(0,53,128,1)"/>
  <circle cx="7" cy="7" r="1" fill="srgba(0%,20.7782%,50.1915%,1)"/>
  <circle cx="8" cy="7" r="1" fill="srgba(0%,20.6332%,50.1015%,1)"/>
  <circle cx="9" cy="7" r="1" fill="srgba(0%,20.5768%,50.0664%,1)"/>
  <circle cx="10" cy="7" r="1" fill="srgba(0%,20.5798%,50.0679%,1)"/>
  <circle cx="11" cy="7" r="1" fill="srgba(0%,20.5798%,50.0679%,1)"/>
  <circle cx="12" cy="7" r="1" fill="srgba(0%,20.5798%,50.0679%,1)"/>
  <circle cx="13" cy="7" r="1" fill="srgba(0%,20.5798%,50.0679%,1)"/>
  <circle cx="14" cy="7" r="1" fill="srgba(0%,20.5798%,50.0679%,1)"/>
  <circle cx="15" cy="7" r="1" fill="srgba(0%,20.5798%,50.0679%,1)"/>
  <circle cx="0" cy="8" r="1" fill="srgba(0%,20.5798%,50.0679%,1)"/>
  <circle cx="1" cy="8" r="1" fill="srgba(0%,20.5798%,50.0679%,1)"/>
  <circle cx="2" cy="8" r="1" fill="srgba(0%,20.5768%,50.0664%,1)"/>
  <circle cx="3" cy="8" r="1" fill="srgba(0%,20.6241%,50.0954%,1)"/>
  <circle cx="4" cy="8" r="1" fill="srgba(0%,20.7736%,50.19%,1)"/>
  <circle cx="5" cy="8" r="1" fill="srgba(0,53,128,1)"/>
  <circle cx="6" cy="8" r="1" fill="srgba(0,53,128,1)"/>
  <circle cx="7" cy="8" r="1" fill="srgba(0%,20.7782%,50.1915%,1)"/>
  <circle cx="8" cy="8" r="1" fill="srgba(0%,20.6332%,50.1015%,1)"/>
  <circle cx="9" cy="8" r="1" fill="srgba(0%,20.5768%,50.0664%,1)"/>
  <circle cx="10" cy="8" r="1" fill="srgba(0%,20.5798%,50.0679%,1)"/>
  <circle cx="11" cy="8" r="1" fill="srgba(0%,20.5798%,50.0679%,1)"/>
  <circle cx="12" cy="8" r="1" fill="srgba(0%,20.5798%,50.0679%,1)"/>
  <circle cx="13" cy="8" r="1" fill="srgba(0%,20.5798%,50.0679%,1)"/>
  <circle cx="14" cy="8" r="1" fill="srgba(0%,20.5798%,50.0679%,1)"/>
  <circle cx="15" cy="8" r="1" fill="srgba(0%,20.5798%,50.0679%,1)"/>
  <circle cx="0" cy="9" r="1" fill="srgba(4.2237%,24.1276%,52.3003%,1)"/>
  <circle cx="1" cy="9" r="1" fill="srgba(4.2237%,24.1276%,52.3003%,1)"/>
  <circle cx="2" cy="9" r="1" fill="srgba(4.28016%,24.1718%,52.3278%,1)"/>
  <circle cx="3" cy="9" r="1" fill="srgba(3.31884%,23.4119%,51.8502%,1)"/>
  <circle cx="4" cy="9" r="1" fill="srgba(0.222782%,20.9598%,50.3075%,1)"/>
  <circle cx="5" cy="9" r="1" fill="srgba(0%,20.7736%,50.1884%,1)"/>
  <circle cx="6" cy="9" r="1" fill="srgba(0%,20.7782%,50.1915%,1)"/>
  <circle cx="7" cy="9" r="1" fill="srgba(0.138857%,20.8942%,50.2647%,1)"/>
  <circle cx="8" cy="9" r="1" fill="srgba(3.13268%,23.2639%,51.7571%,1)"/>
  <circle cx="9" cy="9" r="1" fill="srgba(4.28779%,24.1779%,52.3323%,1)"/>
  <circle cx="10" cy="9" r="1" fill="srgba(4.2237%,24.1276%,52.3003%,1)"/>
  <circle cx="11" cy="9" r="1" fill="srgba(4.2237%,24.1276%,52.3003%,1)"/>
  <circle cx="12" cy="9" r="1" fill="srgba(4.2237%,24.1276%,52.3003%,1)"/>
  <circle cx="13" cy="9" r="1" fill="srgba(4.2237%,24.1276%,52.3003%,1)"/>
  <circle cx="14" cy="9" r="1" fill="srgba(4.2237%,24.1276%,52.3003%,1)"/>
  <circle cx="15" cy="9" r="1" fill="srgba(4.2237%,24.1276%,52.3003%,1)"/>
  <circle cx="0" cy="10" r="1" fill="srgba(76.4279%,81.323%,88.2612%,1)"/>
  <circle cx="1" cy="10" r="1" fill="srgba(76.4279%,81.323%,88.2612%,1)"/>
  <circle cx="2" cy="10" r="1" fill="srgba(77.438%,82.1225%,88.7648%,1)"/>
  <circle cx="3" cy="10" r="1" fill="srgba(60.0549%,68.3528%,80.1068%,1)"/>
  <circle cx="4" cy="10" r="1" fill="srgba(4.02686%,23.9734%,52.2011%,1)"/>
  <circle cx="5" cy="10" r="1" fill="srgba(0%,20.5859%,50.071%,1)"/>
  <circle cx="6" cy="10" r="1" fill="srgba(0%,20.6638%,50.1213%,1)"/>
  <circle cx="7" cy="10" r="1" fill="srgba(2.50248%,22.7665%,51.4412%,1)"/>
  <circle cx="8" cy="10" r="1" fill="srgba(56.6979%,65.6947%,78.4314%,1)"/>
  <circle cx="9" cy="10" r="1" fill="srgba(77.583%,82.2385%,88.8365%,1)"/>
  <circle cx="10" cy="10" r="1" fill="srgba(76.4279%,81.323%,88.2612%,1)"/>
  <circle cx="11" cy="10" r="1" fill="srgba(76.4279%,81.323%,88.2612%,1)"/>
  <circle cx="12" cy="10" r="1" fill="srgba(76.4279%,81.323%,88.2612%,1)"/>
  <circle cx="13" cy="10" r="1" fill="srgba(76.4279%,81.323%,88.2612%,1)"/>
  <circle cx="14" cy="10" r="1" fill="srgba(76.4279%,81.323%,88.2612%,1)"/>
  <circle cx="15" cy="10" r="1" fill="srgba(76.4279%,81.323%,88.2612%,1)"/>
  <circle cx="0" cy="11" r="1" fill="white"/>
  <circle cx="1" cy="11" r="1" fill="white"/>
  <circle cx="2" cy="11" r="1" fill="white"/>
  <circle cx="3" cy="11" r="1" fill="srgba(78.5824%,83.0335%,89.3339%,1)"/>
  <circle cx="4" cy="11" r="1" fill="srgba(5.27047%,24.9592%,52.8222%,1)"/>
  <circle cx="5" cy="11" r="1" fill="srgba(0%,20.5249%,50.0328%,1)"/>
  <circle cx="6" cy="11" r="1" fill="srgba(0%,20.6271%,50.0969%,1)"/>
  <circle cx="7" cy="11" r="1" fill="srgba(3.27764%,23.3814%,51.8273%,1)"/>
  <circle cx="8" cy="11" r="1" fill="srgba(74.1924%,79.556%,87.1427%,1)"/>
  <circle cx="9" cy="11" r="1" fill="white"/>
  <circle cx="10" cy="11" r="1" fill="white"/>
  <circle cx="11" cy="11" r="1" fill="white"/>
  <circle cx="12" cy="11" r="1" fill="white"/>
  <circle cx="13" cy="11" r="1" fill="white"/>
  <circle cx="14" cy="11" r="1" fill="white"/>
  <circle cx="15" cy="11" r="1" fill="white"/>
  <circle cx="0" cy="12" r="1" fill="white"/>
  <circle cx="1" cy="12" r="1" fill="white"/>
  <circle cx="2" cy="12" r="1" fill="white"/>
  <circle cx="3" cy="12" r="1" fill="srgba(78.5779%,83.0289%,89.3309%,1)"/>
  <circle cx="4" cy="12" r="1" fill="srgba(5.26894%,24.9577%,52.8206%,1)"/>
  <circle cx="5" cy="12" r="1" fill="srgba(0%,20.5249%,50.0328%,1)"/>
  <circle cx="6" cy="12" r="1" fill="srgba(0%,20.6271%,50.0969%,1)"/>
  <circle cx="7" cy="12" r="1" fill="srgba(3.27459%,23.3783%,51.8257%,1)"/>
  <circle cx="8" cy="12" r="1" fill="srgba(74.1848%,79.5514%,87.1397%,1)"/>
  <circle cx="9" cy="12" r="1" fill="white"/>
  <circle cx="10" cy="12" r="1" fill="white"/>
  <circle cx="11" cy="12" r="1" fill="white"/>
  <circle cx="12" cy="12" r="1" fill="white"/>
  <circle cx="13" cy="12" r="1" fill="white"/>
  <circle cx="14" cy="12" r="1" fill="white"/>
  <circle cx="15" cy="12" r="1" fill="white"/>
  <circle cx="0" cy="13" r="1" fill="white"/>
  <circle cx="1" cy="13" r="1" fill="white"/>
  <circle cx="2" cy="13" r="1" fill="white"/>
  <circle cx="3" cy="13" r="1" fill="srgba(78.5779%,83.0289%,89.3309%,1)"/>
  <circle cx="4" cy="13" r="1" fill="srgba(5.26894%,24.9577%,52.8206%,1)"/>
  <circle cx="5" cy="13" r="1" fill="srgba(0%,20.5249%,50.0328%,1)"/>
  <circle cx="6" cy="13" r="1" fill="srgba(0%,20.6271%,50.0969%,1)"/>
  <circle cx="7" cy="13" r="1" fill="srgba(3.27459%,23.3783%,51.8257%,1)"/>
  <circle cx="8" cy="13" r="1" fill="srgba(74.1848%,79.5514%,87.1397%,1)"/>
  <circle cx="9" cy="13" r="1" fill="white"/>
  <circle cx="10" cy="13" r="1" fill="white"/>
  <circle cx="11" cy="13" r="1" fill="white"/>
  <circle cx="12" cy="13" r="1" fill="white"/>
  <circle cx="13" cy="13" r="1" fill="white"/>
  <circle cx="14" cy="13" r="1" fill="white"/>
  <circle cx="15" cy="13" r="1" fill="white"/>
  <circle cx="0" cy="14" r="1" fill="white"/>
  <circle cx="1" cy="14" r="1" fill="white"/>
  <circle cx="2" cy="14" r="1" fill="white"/>
  <circle cx="3" cy="14" r="1" fill="srgba(78.5779%,83.0289%,89.3309%,1)"/>
  <circle cx="4" cy="14" r="1" fill="srgba(5.26894%,24.9577%,52.8206%,1)"/>
  <circle cx="5" cy="14" r="1" fill="srgba(0%,20.5249%,50.0328%,1)"/>
  <circle cx="6" cy="14" r="1" fill="srgba(0%,20.6271%,50.0969%,1)"/>
  <circle cx="7" cy="14" r="1" fill="srgba(3.27459%,23.3783%,51.8257%,1)"/>
  <circle cx="8" cy="14" r="1" fill="srgba(74.1848%,79.5514%,87.1397%,1)"/>
  <circle cx="9" cy="14" r="1" fill="white"/>
  <circle cx="10" cy="14" r="1" fill="white"/>
  <circle cx="11" cy="14" r="1" fill="white"/>
  <circle cx="12" cy="14" r="1" fill="white"/>
  <circle cx="13" cy="14" r="1" fill="white"/>
  <circle cx="14" cy="14" r="1" fill="white"/>
  <circle cx="15" cy="14" r="1" fill="white"/>
  <circle cx="0" cy="15" r="1" fill="white"/>
  <circle cx="1" cy="15" r="1" fill="white"/>
  <circle cx="2" cy="15" r="1" fill="white"/>
  <circle cx="3" cy="15" r="1" fill="srgba(78.5779%,83.0289%,89.3309%,1)"/>
  <circle cx="4" cy="15" r="1" fill="srgba(5.26894%,24.9577%,52.8206%,1)"/>
  <circle cx="5" cy="15" r="1" fill="srgba(0%,20.5249%,50.0328%,1)"/>
  <circle cx="6" cy="15" r="1" fill="srgba(0%,20.6271%,50.0969%,1)"/>
  <circle cx="7" cy="15" r="1" fill="srgba(3.27459%,23.3783%,51.8257%,1)"/>
  <circle cx="8" cy="15" r="1" fill="srgba(74.1848%,79.5514%,87.1397%,1)"/>
  <circle cx="9" cy="15" r="1" fill="white"/>
  <circle cx="10" cy="15" r="1" fill="white"/>
  <circle cx="11" cy="15" r="1" fill="white"/>
  <circle cx="12" cy="15" r="1" fill="white"/>
  <circle cx="13" cy="15" r="1" fill="white"/>
  <circle cx="14" cy="15" r="1" fill="white"/>
  <circle cx="15" cy="15" r="1" fill="white"/>
</svg>
