<?xml version="1.0" standalone="no"?>
<!DOCTYPE svg PUBLIC "-//W3C//DTD SVG 20010904//EN"
  "http://www.w3.org/TR/2001/REC-SVG-20010904/DTD/svg10.dtd">
<svg width="16" height="16">
  <circle cx="0" cy="0" r="1" fill="srgba(80.8621%,47.1229%,54.6792%,1)"/>
  <circle cx="1" cy="0" r="1" fill="srgba(73.6385%,59.5987%,75.7305%,1)"/>
  <circle cx="2" cy="0" r="1" fill="srgba(21.5412%,21.8204%,77.2381%,1)"/>
  <circle cx="3" cy="0" r="1" fill="srgba(8.49928%,9.17983%,73.579%,1)"/>
  <circle cx="4" cy="0" r="1" fill="srgba(73.1121%,26.3142%,36.9558%,1)"/>
  <circle cx="5" cy="0" r="1" fill="srgba(61.0452%,27.6051%,49.2042%,1)"/>
  <circle cx="6" cy="0" r="1" fill="srgba(3.30053%,4.76844%,73.5225%,1)"/>
  <circle cx="7" cy="0" r="1" fill="srgba(28.8258%,16.4569%,64.5212%,1)"/>
  <circle cx="8" cy="0" r="1" fill="srgba(77.6684%,44.5136%,54.6715%,1)"/>
  <circle cx="9" cy="0" r="1" fill="srgba(71.0399%,63.7781%,78.8113%,1)"/>
  <circle cx="10" cy="0" r="1" fill="srgba(41.0941%,69.366%,99.9344%,1)"/>
  <circle cx="11" cy="0" r="1" fill="srgba(40.3357%,69.4255%,100%,1)"/>
  <circle cx="12" cy="0" r="1" fill="srgba(103,177,255,1)"/>
  <circle cx="13" cy="0" r="1" fill="srgba(103,177,255,1)"/>
  <circle cx="14" cy="0" r="1" fill="srgba(103,177,255,1)"/>
  <circle cx="15" cy="0" r="1" fill="srgba(103,177,255,1)"/>
  <circle cx="0" cy="1" r="1" fill="srgba(24.7211%,18.5458%,70.5943%,1)"/>
  <circle cx="1" cy="1" r="1" fill="srgba(65.7084%,40.8148%,60.6256%,1)"/>
  <circle cx="2" cy="1" r="1" fill="srgba(81.1902%,61.1093%,70.8446%,1)"/>
  <circle cx="3" cy="1" r="1" fill="srgba(49.8161%,49.9016%,85.3407%,1)"/>
  <circle cx="4" cy="1" r="1" fill="srgba(75.7885%,29.4194%,38.323%,1)"/>
  <circle cx="5" cy="1" r="1" fill="srgba(67.953%,33.8125%,50.4128%,1)"/>
  <circle cx="6" cy="1" r="1" fill="srgba(50.0175%,32.8283%,65.0767%,1)"/>
  <circle cx="7" cy="1" r="1" fill="srgba(83.2181%,57.229%,64.4877%,1)"/>
  <circle cx="8" cy="1" r="1" fill="srgba(60.3296%,53.6217%,80.6882%,1)"/>
  <circle cx="9" cy="1" r="1" fill="srgba(26.07%,34.8211%,84.3671%,1)"/>
  <circle cx="10" cy="1" r="1" fill="srgba(38.8891%,66.9429%,99.0082%,1)"/>
  <circle cx="11" cy="1" r="1" fill="srgba(40.4608%,69.5384%,100%,1)"/>
  <circle cx="12" cy="1" r="1" fill="srgba(103,177,255,1)"/>
  <circle cx="13" cy="1" r="1" fill="srgba(103,177,255,1)"/>
  <circle cx="14" cy="1" r="1" fill="srgba(103,177,255,1)"/>
  <circle cx="15" cy="1" r="1" fill="srgba(103,177,255,1)"/>
  <circle cx="0" cy="2" r="1" fill="srgba(68.1178%,34.3282%,50.8705%,1)"/>
  <circle cx="1" cy="2" r="1" fill="srgba(73.4188%,38.1704%,50.7134%,1)"/>
  <circle cx="2" cy="2" r="1" fill="srgba(87.8767%,43.473%,44.1932%,1)"/>
  <circle cx="3" cy="2" r="1" fill="srgba(90.4112%,54.0032%,54.3481%,1)"/>
  <circle cx="4" cy="2" r="1" fill="srgba(83.8163%,23.0304%,23.7247%,1)"/>
  <circle cx="5" cy="2" r="1" fill="srgba(84.7547%,29.4697%,30.4738%,1)"/>
  <circle cx="6" cy="2" r="1" fill="srgba(89.4041%,45.7191%,45.4887%,1)"/>
  <circle cx="7" cy="2" r="1" fill="srgba(87.5425%,51.7952%,54.2794%,1)"/>
  <circle cx="8" cy="2" r="1" fill="srgba(71.5114%,36.7926%,51.0185%,1)"/>
  <circle cx="9" cy="2" r="1" fill="srgba(61.1841%,42.6535%,62.6902%,1)"/>
  <circle cx="10" cy="2" r="1" fill="srgba(41.4282%,68.1437%,98.2177%,1)"/>
  <circle cx="11" cy="2" r="1" fill="srgba(40.3296%,69.4896%,100%,1)"/>
  <circle cx="12" cy="2" r="1" fill="srgba(103,177,255,1)"/>
  <circle cx="13" cy="2" r="1" fill="srgba(103,177,255,1)"/>
  <circle cx="14" cy="2" r="1" fill="srgba(103,177,255,1)"/>
  <circle cx="15" cy="2" r="1" fill="srgba(103,177,255,1)"/>
  <circle cx="0" cy="3" r="1" fill="srgba(84.1779%,18.4878%,18.0636%,1)"/>
  <circle cx="1" cy="3" r="1" fill="srgba(83.0442%,17.5189%,17.9248%,1)"/>
  <circle cx="2" cy="3" r="1" fill="srgba(83.6805%,19.1623%,19.2981%,1)"/>
  <circle cx="3" cy="3" r="1" fill="srgba(84.4312%,18.117%,17.4044%,1)"/>
  <circle cx="4" cy="3" r="1" fill="srgba(81.7746%,7.55627%,7.32433%,1)"/>
  <circle cx="5" cy="3" r="1" fill="srgba(82.7085%,11.1818%,10.7668%,1)"/>
  <circle cx="6" cy="3" r="1" fill="srgba(84.4556%,18.9609%,18.3764%,1)"/>
  <circle cx="7" cy="3" r="1" fill="srgba(83.1403%,17.3938%,17.6928%,1)"/>
  <circle cx="8" cy="3" r="1" fill="srgba(83.9841%,17.3526%,17.1435%,1)"/>
  <circle cx="9" cy="3" r="1" fill="srgba(73.3639%,31.2917%,38.6221%,1)"/>
  <circle cx="10" cy="3" r="1" fill="srgba(42.0035%,67.5807%,97.0672%,1)"/>
  <circle cx="11" cy="3" r="1" fill="srgba(40.2945%,69.5232%,100%,1)"/>
  <circle cx="12" cy="3" r="1" fill="srgba(103,177,255,1)"/>
  <circle cx="13" cy="3" r="1" fill="srgba(103,177,255,1)"/>
  <circle cx="14" cy="3" r="1" fill="srgba(103,177,255,1)"/>
  <circle cx="15" cy="3" r="1" fill="srgba(103,177,255,1)"/>
  <circle cx="0" cy="4" r="1" fill="srgba(34.8394%,29.8497%,74.963%,1)"/>
  <circle cx="1" cy="4" r="1" fill="srgba(63.1785%,56.6705%,81.5122%,1)"/>
  <circle cx="2" cy="4" r="1" fill="srgba(92.1279%,68.7633%,70.1976%,1)"/>
  <circle cx="3" cy="4" r="1" fill="srgba(76.9833%,52.5994%,64.5411%,1)"/>
  <circle cx="4" cy="4" r="1" fill="srgba(81.236%,31.5175%,35.9854%,1)"/>
  <circle cx="5" cy="4" r="1" fill="srgba(79.9802%,43.6805%,51.4092%,1)"/>
  <circle cx="6" cy="4" r="1" fill="srgba(84.0772%,72.781%,82.0264%,1)"/>
  <circle cx="7" cy="4" r="1" fill="srgba(87.7577%,57.6867%,61.0193%,1)"/>
  <circle cx="8" cy="4" r="1" fill="srgba(52.7276%,38.8067%,69.9626%,1)"/>
  <circle cx="9" cy="4" r="1" fill="srgba(34.9752%,38.7701%,81.1826%,1)"/>
  <circle cx="10" cy="4" r="1" fill="srgba(39.9924%,67.8111%,99.0677%,1)"/>
  <circle cx="11" cy="4" r="1" fill="srgba(40.412%,69.5048%,100%,1)"/>
  <circle cx="12" cy="4" r="1" fill="srgba(103,177,255,1)"/>
  <circle cx="13" cy="4" r="1" fill="srgba(103,177,255,1)"/>
  <circle cx="14" cy="4" r="1" fill="srgba(103,177,255,1)"/>
  <circle cx="15" cy="4" r="1" fill="srgba(103,177,255,1)"/>
  <circle cx="0" cy="5" r="1" fill="srgba(57.4838%,49.0379%,77.7874%,1)"/>
  <circle cx="1" cy="5" r="1" fill="srgba(79.0417%,51.957%,62.1912%,1)"/>
  <circle cx="2" cy="5" r="1" fill="srgba(48.1056%,25.7496%,58.6587%,1)"/>
  <circle cx="3" cy="5" r="1" fill="srgba(17.3754%,14.3603%,72.3095%,1)"/>
  <circle cx="4" cy="5" r="1" fill="srgba(73.1884%,26.1997%,37.1038%,1)"/>
  <circle cx="5" cy="5" r="1" fill="srgba(61.384%,27.7043%,49.2378%,1)"/>
  <circle cx="6" cy="5" r="1" fill="srgba(18.1323%,19.2798%,77.4563%,1)"/>
  <circle cx="7" cy="5" r="1" fill="srgba(61.6114%,50.5547%,75.9197%,1)"/>
  <circle cx="8" cy="5" r="1" fill="srgba(77.1893%,47.4769%,58.8098%,1)"/>
  <circle cx="9" cy="5" r="1" fill="srgba(45.7389%,36.0159%,68.5786%,1)"/>
  <circle cx="10" cy="5" r="1" fill="srgba(39.4598%,67.2007%,98.7869%,1)"/>
  <circle cx="11" cy="5" r="1" fill="srgba(40.4196%,69.5308%,100%,1)"/>
  <circle cx="12" cy="5" r="1" fill="srgba(103,177,255,1)"/>
  <circle cx="13" cy="5" r="1" fill="srgba(103,177,255,1)"/>
  <circle cx="14" cy="5" r="1" fill="srgba(103,177,255,1)"/>
  <circle cx="15" cy="5" r="1" fill="srgba(103,177,255,1)"/>
  <circle cx="0" cy="6" r="1" fill="srgba(65.6687%,60.9247%,75.9686%,1)"/>
  <circle cx="1" cy="6" r="1" fill="srgba(45.4795%,48.8243%,79.4385%,1)"/>
  <circle cx="2" cy="6" r="1" fill="srgba(21.3642%,36.6674%,86.392%,1)"/>
  <circle cx="3" cy="6" r="1" fill="srgba(23.92%,39.2004%,87.129%,1)"/>
  <circle cx="4" cy="6" r="1" fill="srgba(56.5301%,48.2719%,69.1249%,1)"/>
  <circle cx="5" cy="6" r="1" fill="srgba(50.5821%,48.8838%,75.0759%,1)"/>
  <circle cx="6" cy="6" r="1" fill="srgba(20.3769%,35.8816%,86.3432%,1)"/>
  <circle cx="7" cy="6" r="1" fill="srgba(24.4373%,39.9619%,87.5578%,1)"/>
  <circle cx="8" cy="6" r="1" fill="srgba(55.0042%,66.4408%,91.9524%,1)"/>
  <circle cx="9" cy="6" r="1" fill="srgba(59.6918%,64.9149%,82.8977%,1)"/>
  <circle cx="10" cy="6" r="1" fill="srgba(40.6683%,69.1234%,97.7432%,1)"/>
  <circle cx="11" cy="6" r="1" fill="srgba(39.736%,70.0191%,100%,1)"/>
  <circle cx="12" cy="6" r="1" fill="srgba(39.7925%,69.9825%,100%,1)"/>
  <circle cx="13" cy="6" r="1" fill="srgba(39.7162%,69.6956%,100%,1)"/>
  <circle cx="14" cy="6" r="1" fill="srgba(39.9908%,69.8726%,100%,1)"/>
  <circle cx="15" cy="6" r="1" fill="srgba(40.3876%,69.4285%,100%,1)"/>
  <circle cx="0" cy="7" r="1" fill="srgba(39.5956%,69.3858%,99.9283%,1)"/>
  <circle cx="1" cy="7" r="1" fill="srgba(39.9039%,69.8985%,100%,1)"/>
  <circle cx="2" cy="7" r="1" fill="srgba(40.8545%,70.2998%,100%,1)"/>
  <circle cx="3" cy="7" r="1" fill="srgba(40.8652%,70.2968%,99.9985%,1)"/>
  <circle cx="4" cy="7" r="1" fill="srgba(39.9222%,70.0298%,99.9969%,1)"/>
  <circle cx="5" cy="7" r="1" fill="srgba(40.0931%,70.0114%,99.9969%,1)"/>
  <circle cx="6" cy="7" r="1" fill="srgba(40.9659%,70.3868%,100%,1)"/>
  <circle cx="7" cy="7" r="1" fill="srgba(40.6897%,70.1213%,99.9985%,1)"/>
  <circle cx="8" cy="7" r="1" fill="srgba(39.3393%,69.6559%,100%,1)"/>
  <circle cx="9" cy="7" r="1" fill="srgba(52.1965%,52.723%,73.1701%,1)"/>
  <circle cx="10" cy="7" r="1" fill="srgba(63.7247%,35.5627%,48.1666%,1)"/>
  <circle cx="11" cy="7" r="1" fill="srgba(63.0488%,39.3896%,49.5827%,1)"/>
  <circle cx="12" cy="7" r="1" fill="srgba(63.2334%,39.6551%,49.5003%,1)"/>
  <circle cx="13" cy="7" r="1" fill="srgba(64.5747%,44.3854%,48.7312%,1)"/>
  <circle cx="14" cy="7" r="1" fill="srgba(55.2865%,48.9555%,67.1382%,1)"/>
  <circle cx="15" cy="7" r="1" fill="srgba(40.4868%,68.9723%,99.6262%,1)"/>
  <circle cx="0" cy="8" r="1" fill="srgba(103,177,255,1)"/>
  <circle cx="1" cy="8" r="1" fill="srgba(103,177,255,1)"/>
  <circle cx="2" cy="8" r="1" fill="srgba(103,177,255,1)"/>
  <circle cx="3" cy="8" r="1" fill="srgba(103,177,255,1)"/>
  <circle cx="4" cy="8" r="1" fill="srgba(103,177,255,1)"/>
  <circle cx="5" cy="8" r="1" fill="srgba(103,177,255,1)"/>
  <circle cx="6" cy="8" r="1" fill="srgba(103,177,255,1)"/>
  <circle cx="7" cy="8" r="1" fill="srgba(103,177,255,1)"/>
  <circle cx="8" cy="8" r="1" fill="srgba(39.8169%,69.8665%,100%,1)"/>
  <circle cx="9" cy="8" r="1" fill="srgba(64.8631%,43.0243%,50.8843%,1)"/>
  <circle cx="10" cy="8" r="1" fill="srgba(88.603%,32.4849%,0%,1)"/>
  <circle cx="11" cy="8" r="1" fill="srgba(88.9311%,43.0823%,0%,1)"/>
  <circle cx="12" cy="8" r="1" fill="srgba(92.8267%,64.1672%,0%,1)"/>
  <circle cx="13" cy="8" r="1" fill="srgba(94.3496%,64.9958%,0%,1)"/>
  <circle cx="14" cy="8" r="1" fill="srgba(72.2194%,40.7202%,31.6548%,1)"/>
  <circle cx="15" cy="8" r="1" fill="srgba(42.771%,68.6702%,93.4264%,1)"/>
  <circle cx="0" cy="9" r="1" fill="srgba(103,177,255,1)"/>
  <circle cx="1" cy="9" r="1" fill="srgba(103,177,255,1)"/>
  <circle cx="2" cy="9" r="1" fill="srgba(103,177,255,1)"/>
  <circle cx="3" cy="9" r="1" fill="srgba(103,177,255,1)"/>
  <circle cx="4" cy="9" r="1" fill="srgba(40.7141%,69.7536%,100%,1)"/>
  <circle cx="5" cy="9" r="1" fill="srgba(41.0575%,70.1076%,100%,1)"/>
  <circle cx="6" cy="9" r="1" fill="srgba(40.9216%,69.958%,100%,1)"/>
  <circle cx="7" cy="9" r="1" fill="srgba(40.8637%,69.8939%,100%,1)"/>
  <circle cx="8" cy="9" r="1" fill="srgba(40.4135%,70.3258%,100%,1)"/>
  <circle cx="9" cy="9" r="1" fill="srgba(65.4078%,48.1682%,53.1182%,1)"/>
  <circle cx="10" cy="9" r="1" fill="srgba(91.4351%,56.524%,1.09865%,1)"/>
  <circle cx="11" cy="9" r="1" fill="srgba(93.6309%,70.5089%,0.43183%,1)"/>
  <circle cx="12" cy="9" r="1" fill="srgba(94.3587%,72.6482%,0.114443%,1)"/>
  <circle cx="13" cy="9" r="1" fill="srgba(93.6233%,64.6448%,0%,1)"/>
  <circle cx="14" cy="9" r="1" fill="srgba(71.7693%,47.2251%,33.431%,1)"/>
  <circle cx="15" cy="9" r="1" fill="srgba(42.0066%,68.3619%,95.964%,1)"/>
  <circle cx="0" cy="10" r="1" fill="srgba(103,177,255,1)"/>
  <circle cx="1" cy="10" r="1" fill="srgba(103,177,255,1)"/>
  <circle cx="2" cy="10" r="1" fill="srgba(40.3937%,69.4148%,100%,1)"/>
  <circle cx="3" cy="10" r="1" fill="srgba(40.4868%,69.5064%,100%,1)"/>
  <circle cx="4" cy="10" r="1" fill="srgba(35.108%,63.7842%,86.7781%,1)"/>
  <circle cx="5" cy="10" r="1" fill="srgba(24.8325%,52.9732%,61.4878%,1)"/>
  <circle cx="6" cy="10" r="1" fill="srgba(19.7696%,47.66%,48.9448%,1)"/>
  <circle cx="7" cy="10" r="1" fill="srgba(18.9715%,46.8223%,46.9688%,1)"/>
  <circle cx="8" cy="10" r="1" fill="srgba(20.7416%,49.1325%,52.2759%,1)"/>
  <circle cx="9" cy="10" r="1" fill="srgba(32.1767%,38.9883%,32.4819%,1)"/>
  <circle cx="10" cy="10" r="1" fill="srgba(40.8774%,38.1003%,8.49622%,1)"/>
  <circle cx="11" cy="10" r="1" fill="srgba(73.2113%,39.3805%,27.3579%,1)"/>
  <circle cx="12" cy="10" r="1" fill="srgba(87.3091%,56.9787%,6.55222%,1)"/>
  <circle cx="13" cy="10" r="1" fill="srgba(75.3704%,77.4121%,23.4318%,1)"/>
  <circle cx="14" cy="10" r="1" fill="srgba(73.6904%,70.4036%,64.8966%,1)"/>
  <circle cx="15" cy="10" r="1" fill="srgba(42.4628%,69.4972%,96.1532%,1)"/>
  <circle cx="0" cy="11" r="1" fill="srgba(103,177,255,1)"/>
  <circle cx="1" cy="11" r="1" fill="srgba(103,177,255,1)"/>
  <circle cx="2" cy="11" r="1" fill="srgba(40.6943%,69.7322%,100%,1)"/>
  <circle cx="3" cy="11" r="1" fill="srgba(35.6542%,64.3702%,88.2719%,1)"/>
  <circle cx="4" cy="11" r="1" fill="srgba(8.45502%,35.8083%,20.9293%,1)"/>
  <circle cx="5" cy="11" r="1" fill="srgba(0.030518%,26.8727%,0.077821%,1)"/>
  <circle cx="6" cy="11" r="1" fill="srgba(0%,26.4302%,0%,1)"/>
  <circle cx="7" cy="11" r="1" fill="srgba(0%,26.3966%,0%,1)"/>
  <circle cx="8" cy="11" r="1" fill="srgba(0%,26.5064%,0%,1)"/>
  <circle cx="9" cy="11" r="1" fill="srgba(0%,27.126%,0.0762951%,1)"/>
  <circle cx="10" cy="11" r="1" fill="srgba(3.09758%,28.1849%,2.7985%,1)"/>
  <circle cx="11" cy="11" r="1" fill="srgba(58.4115%,28.2353%,21.6602%,1)"/>
  <circle cx="12" cy="11" r="1" fill="srgba(90.4341%,50.9392%,5.64889%,1)"/>
  <circle cx="13" cy="11" r="1" fill="srgba(84.033%,60.8331%,28.0262%,1)"/>
  <circle cx="14" cy="11" r="1" fill="srgba(69.6574%,60.6546%,67.4083%,1)"/>
  <circle cx="15" cy="11" r="1" fill="srgba(42.031%,69.8955%,95.8968%,1)"/>
  <circle cx="0" cy="12" r="1" fill="srgba(103,177,255,1)"/>
  <circle cx="1" cy="12" r="1" fill="srgba(103,177,255,1)"/>
  <circle cx="2" cy="12" r="1" fill="srgba(40.7996%,69.8451%,100%,1)"/>
  <circle cx="3" cy="12" r="1" fill="srgba(33.9223%,62.5086%,83.9231%,1)"/>
  <circle cx="4" cy="12" r="1" fill="srgba(3.85443%,30.8263%,9.52316%,1)"/>
  <circle cx="5" cy="12" r="1" fill="srgba(0%,26.7857%,0%,1)"/>
  <circle cx="6" cy="12" r="1" fill="srgba(0%,27.0603%,0%,1)"/>
  <circle cx="7" cy="12" r="1" fill="srgba(0,69,0,1)"/>
  <circle cx="8" cy="12" r="1" fill="srgba(0,69,0,1)"/>
  <circle cx="9" cy="12" r="1" fill="srgba(0%,27.0939%,0%,1)"/>
  <circle cx="10" cy="12" r="1" fill="srgba(2.96483%,26.8711%,1.41909%,1)"/>
  <circle cx="11" cy="12" r="1" fill="srgba(40.1663%,17.5006%,7.48913%,1)"/>
  <circle cx="12" cy="12" r="1" fill="srgba(86.4698%,49.9123%,4.28321%,1)"/>
  <circle cx="13" cy="12" r="1" fill="srgba(93.254%,54.2763%,22.5681%,1)"/>
  <circle cx="14" cy="12" r="1" fill="srgba(61.0636%,47.779%,63.3112%,1)"/>
  <circle cx="15" cy="12" r="1" fill="srgba(37.8241%,68.014%,96.4553%,1)"/>
  <circle cx="0" cy="13" r="1" fill="srgba(103,177,255,1)"/>
  <circle cx="1" cy="13" r="1" fill="srgba(103,177,255,1)"/>
  <circle cx="2" cy="13" r="1" fill="srgba(40.7538%,69.7978%,100%,1)"/>
  <circle cx="3" cy="13" r="1" fill="srgba(34.3496%,62.9603%,85.0385%,1)"/>
  <circle cx="4" cy="13" r="1" fill="srgba(4.80507%,31.7632%,11.8975%,1)"/>
  <circle cx="5" cy="13" r="1" fill="srgba(0%,26.6712%,0%,1)"/>
  <circle cx="6" cy="13" r="1" fill="srgba(0%,27.0741%,0%,1)"/>
  <circle cx="7" cy="13" r="1" fill="srgba(0%,27.0695%,0%,1)"/>
  <circle cx="8" cy="13" r="1" fill="srgba(0%,27.0741%,0%,1)"/>
  <circle cx="9" cy="13" r="1" fill="srgba(0%,26.7933%,0%,1)"/>
  <circle cx="10" cy="13" r="1" fill="srgba(6.15854%,30.6966%,5.76791%,1)"/>
  <circle cx="11" cy="13" r="1" fill="srgba(42.3499%,42.3697%,29.0822%,1)"/>
  <circle cx="12" cy="13" r="1" fill="srgba(61.7762%,49.5735%,12.4285%,1)"/>
  <circle cx="13" cy="13" r="1" fill="srgba(86.4729%,82.8092%,52.6909%,1)"/>
  <circle cx="14" cy="13" r="1" fill="srgba(78.1949%,84.0696%,90.6935%,1)"/>
  <circle cx="15" cy="13" r="1" fill="srgba(64.6998%,77.6272%,87.7806%,1)"/>
  <circle cx="0" cy="14" r="1" fill="srgba(103,177,255,1)"/>
  <circle cx="1" cy="14" r="1" fill="srgba(103,177,255,1)"/>
  <circle cx="2" cy="14" r="1" fill="srgba(40.9857%,70.0374%,100%,1)"/>
  <circle cx="3" cy="14" r="1" fill="srgba(29.8528%,58.2498%,73.9101%,1)"/>
  <circle cx="4" cy="14" r="1" fill="srgba(1.58999%,28.4306%,3.9353%,1)"/>
  <circle cx="5" cy="14" r="1" fill="srgba(0%,26.6026%,0%,1)"/>
  <circle cx="6" cy="14" r="1" fill="srgba(0%,26.7994%,0%,1)"/>
  <circle cx="7" cy="14" r="1" fill="srgba(0%,26.9017%,0%,1)"/>
  <circle cx="8" cy="14" r="1" fill="srgba(0%,26.8864%,0%,1)"/>
  <circle cx="9" cy="14" r="1" fill="srgba(0%,25.8839%,0%,1)"/>
  <circle cx="10" cy="14" r="1" fill="srgba(14.4518%,37.0779%,18.7488%,1)"/>
  <circle cx="11" cy="14" r="1" fill="srgba(64.1062%,52.9488%,45.8686%,1)"/>
  <circle cx="12" cy="14" r="1" fill="srgba(45.2384%,34.5861%,7.88586%,1)"/>
  <circle cx="13" cy="14" r="1" fill="srgba(30.3899%,47.4891%,14.3145%,1)"/>
  <circle cx="14" cy="14" r="1" fill="srgba(32.3445%,56.4675%,30.9026%,1)"/>
  <circle cx="15" cy="14" r="1" fill="srgba(32.488%,57.5296%,31.873%,1)"/>
  <circle cx="0" cy="15" r="1" fill="srgba(103,177,255,1)"/>
  <circle cx="1" cy="15" r="1" fill="srgba(103,177,255,1)"/>
  <circle cx="2" cy="15" r="1" fill="srgba(40.5524%,69.5811%,100%,1)"/>
  <circle cx="3" cy="15" r="1" fill="srgba(38.0362%,66.8986%,94.168%,1)"/>
  <circle cx="4" cy="15" r="1" fill="srgba(13.7789%,41.2802%,34.1131%,1)"/>
  <circle cx="5" cy="15" r="1" fill="srgba(0%,26.8055%,0%,1)"/>
  <circle cx="6" cy="15" r="1" fill="srgba(0%,26.8284%,0%,1)"/>
  <circle cx="7" cy="15" r="1" fill="srgba(0%,26.7262%,0%,1)"/>
  <circle cx="8" cy="15" r="1" fill="srgba(0%,26.4271%,0%,1)"/>
  <circle cx="9" cy="15" r="1" fill="srgba(2.63371%,28.9555%,6.7277%,1)"/>
  <circle cx="10" cy="15" r="1" fill="srgba(27.303%,54.7234%,65.1118%,1)"/>
  <circle cx="11" cy="15" r="1" fill="srgba(48.2414%,60.4959%,79.1424%,1)"/>
  <circle cx="12" cy="15" r="1" fill="srgba(48.2765%,52.343%,39.1333%,1)"/>
  <circle cx="13" cy="15" r="1" fill="srgba(13.5576%,43.5447%,17.612%,1)"/>
  <circle cx="14" cy="15" r="1" fill="srgba(0%,35.6771%,0%,1)"/>
  <circle cx="15" cy="15" r="1" fill="srgba(0%,36.4782%,0%,1)"/>
</svg>
