<?xml version="1.0" standalone="no"?>
<!DOCTYPE svg PUBLIC "-//W3C//DTD SVG 20010904//EN"
  "http://www.w3.org/TR/2001/REC-SVG-20010904/DTD/svg10.dtd">
<svg width="16" height="16">
  <circle cx="0" cy="0" r="1" fill="srgba(79.2828%,36.3592%,40.3525%,1)"/>
  <circle cx="1" cy="0" r="1" fill="srgba(89.1035%,63.1327%,64.8951%,1)"/>
  <circle cx="2" cy="0" r="1" fill="srgba(64.4816%,59.8566%,73.6019%,1)"/>
  <circle cx="3" cy="0" r="1" fill="srgba(21.7945%,22.9755%,54.3923%,1)"/>
  <circle cx="4" cy="0" r="1" fill="srgba(1.44961%,1.70138%,40.6607%,1)"/>
  <circle cx="5" cy="0" r="1" fill="srgba(0%,0%,38.3658%,1)"/>
  <circle cx="6" cy="0" r="1" fill="srgba(34.7539%,31.8364%,57.5784%,1)"/>
  <circle cx="7" cy="0" r="1" fill="srgba(84.2817%,23.0274%,23.1922%,1)"/>
  <circle cx="8" cy="0" r="1" fill="srgba(84.0162%,22.8275%,23.2746%,1)"/>
  <circle cx="9" cy="0" r="1" fill="srgba(40.9781%,36.4828%,55.5367%,1)"/>
  <circle cx="10" cy="0" r="1" fill="srgba(0.933852%,0.454719%,37.9858%,1)"/>
  <circle cx="11" cy="0" r="1" fill="srgba(2.14847%,2.80613%,42.2232%,1)"/>
  <circle cx="12" cy="0" r="1" fill="srgba(23.6347%,16.0433%,45.8244%,1)"/>
  <circle cx="13" cy="0" r="1" fill="srgba(63.4272%,32.7672%,44.3275%,1)"/>
  <circle cx="14" cy="0" r="1" fill="srgba(89.4804%,48.0903%,48.1575%,1)"/>
  <circle cx="15" cy="0" r="1" fill="srgba(89.0745%,70.0252%,72.4865%,1)"/>
  <circle cx="0" cy="1" r="1" fill="srgba(22.0081%,14.6181%,45.0736%,1)"/>
  <circle cx="1" cy="1" r="1" fill="srgba(53.7346%,27.4907%,43.3707%,1)"/>
  <circle cx="2" cy="1" r="1" fill="srgba(82.182%,45.0416%,48.455%,1)"/>
  <circle cx="3" cy="1" r="1" fill="srgba(84.0986%,61.7121%,65.8335%,1)"/>
  <circle cx="4" cy="1" r="1" fill="srgba(56.3729%,52.0836%,69.1066%,1)"/>
  <circle cx="5" cy="1" r="1" fill="srgba(17.6806%,18.0728%,51.0399%,1)"/>
  <circle cx="6" cy="1" r="1" fill="srgba(36.0876%,33.2631%,58.5092%,1)"/>
  <circle cx="7" cy="1" r="1" fill="srgba(84.184%,22.9297%,23.1235%,1)"/>
  <circle cx="8" cy="1" r="1" fill="srgba(83.9033%,22.7359%,23.2258%,1)"/>
  <circle cx="9" cy="1" r="1" fill="srgba(42.7085%,38.172%,56.5438%,1)"/>
  <circle cx="10" cy="1" r="1" fill="srgba(21.6175%,14.3633%,43.1739%,1)"/>
  <circle cx="11" cy="1" r="1" fill="srgba(54.696%,28.2307%,43.8178%,1)"/>
  <circle cx="12" cy="1" r="1" fill="srgba(82.5986%,45.4688%,48.7144%,1)"/>
  <circle cx="13" cy="1" r="1" fill="srgba(86.0487%,63.7293%,67.0756%,1)"/>
  <circle cx="14" cy="1" r="1" fill="srgba(59.0249%,55.1751%,71.1772%,1)"/>
  <circle cx="15" cy="1" r="1" fill="srgba(23.7797%,24.5884%,55.1537%,1)"/>
  <circle cx="0" cy="2" r="1" fill="srgba(33.4249%,30.9087%,57.2869%,1)"/>
  <circle cx="1" cy="2" r="1" fill="srgba(36.2402%,34.1527%,59.4476%,1)"/>
  <circle cx="2" cy="2" r="1" fill="srgba(55.7321%,46.1067%,62.8504%,1)"/>
  <circle cx="3" cy="2" r="1" fill="srgba(85.214%,55.3506%,58.2788%,1)"/>
  <circle cx="4" cy="2" r="1" fill="srgba(94.2962%,64.976%,64.3244%,1)"/>
  <circle cx="5" cy="2" r="1" fill="srgba(88.423%,82.5055%,86.5461%,1)"/>
  <circle cx="6" cy="2" r="1" fill="srgba(78.0789%,72.4926%,80.705%,1)"/>
  <circle cx="7" cy="2" r="1" fill="srgba(83.9353%,22.0035%,22.2309%,1)"/>
  <circle cx="8" cy="2" r="1" fill="srgba(84.0772%,22.2431%,22.6261%,1)"/>
  <circle cx="9" cy="2" r="1" fill="srgba(78.9715%,66.0777%,68.9998%,1)"/>
  <circle cx="10" cy="2" r="1" fill="srgba(83.7903%,50.2831%,51.5435%,1)"/>
  <circle cx="11" cy="2" r="1" fill="srgba(95.3521%,68.7984%,68.1483%,1)"/>
  <circle cx="12" cy="2" r="1" fill="srgba(90.8522%,83.1937%,86.1112%,1)"/>
  <circle cx="13" cy="2" r="1" fill="srgba(57.6913%,55.0942%,71.7815%,1)"/>
  <circle cx="14" cy="2" r="1" fill="srgba(36.0876%,32.8161%,58.0713%,1)"/>
  <circle cx="15" cy="2" r="1" fill="srgba(33.3028%,30.2647%,56.64%,1)"/>
  <circle cx="0" cy="3" r="1" fill="srgba(84.2618%,22.8779%,23.0365%,1)"/>
  <circle cx="1" cy="3" r="1" fill="srgba(84.1108%,22.7237%,22.9404%,1)"/>
  <circle cx="2" cy="3" r="1" fill="srgba(83.1846%,22.2004%,22.8275%,1)"/>
  <circle cx="3" cy="3" r="1" fill="srgba(84.0024%,23.3677%,23.7034%,1)"/>
  <circle cx="4" cy="3" r="1" fill="srgba(84.3946%,21.8418%,21.8296%,1)"/>
  <circle cx="5" cy="3" r="1" fill="srgba(85.185%,23.4531%,23.2074%,1)"/>
  <circle cx="6" cy="3" r="1" fill="srgba(85.478%,23.3433%,22.9404%,1)"/>
  <circle cx="7" cy="3" r="1" fill="srgba(81.2192%,7.35332%,7.44182%,1)"/>
  <circle cx="8" cy="3" r="1" fill="srgba(80.2335%,14.3648%,15.5276%,1)"/>
  <circle cx="9" cy="3" r="1" fill="srgba(83.1205%,35.2728%,32.5399%,1)"/>
  <circle cx="10" cy="3" r="1" fill="srgba(83.1083%,34.2535%,33.8399%,1)"/>
  <circle cx="11" cy="3" r="1" fill="srgba(83.299%,34.8074%,36.4553%,1)"/>
  <circle cx="12" cy="3" r="1" fill="srgba(82.1592%,33.106%,35.0011%,1)"/>
  <circle cx="13" cy="3" r="1" fill="srgba(81.1093%,31.9768%,34.2199%,1)"/>
  <circle cx="14" cy="3" r="1" fill="srgba(83.0808%,31.545%,32.903%,1)"/>
  <circle cx="15" cy="3" r="1" fill="srgba(84.6952%,24.3091%,24.5274%,1)"/>
  <circle cx="0" cy="4" r="1" fill="srgba(84.2924%,23.0426%,23.1998%,1)"/>
  <circle cx="1" cy="4" r="1" fill="srgba(84.1398%,22.8901%,23.1098%,1)"/>
  <circle cx="2" cy="4" r="1" fill="srgba(83.1113%,21.8524%,22.4811%,1)"/>
  <circle cx="3" cy="4" r="1" fill="srgba(83.917%,22.9145%,23.2456%,1)"/>
  <circle cx="4" cy="4" r="1" fill="srgba(84.9393%,24.6113%,24.6021%,1)"/>
  <circle cx="5" cy="4" r="1" fill="srgba(84.9897%,22.8885%,22.681%,1)"/>
  <circle cx="6" cy="4" r="1" fill="srgba(85.507%,21.8921%,21.3764%,1)"/>
  <circle cx="7" cy="4" r="1" fill="srgba(77.8317%,18.5107%,20.6638%,1)"/>
  <circle cx="8" cy="4" r="1" fill="srgba(36.6262%,46.4134%,65.33%,1)"/>
  <circle cx="9" cy="4" r="1" fill="srgba(35.3902%,46.0075%,58.6252%,1)"/>
  <circle cx="10" cy="4" r="1" fill="srgba(38.5977%,46.8345%,59.826%,1)"/>
  <circle cx="11" cy="4" r="1" fill="srgba(38.1247%,47.1946%,62.5055%,1)"/>
  <circle cx="12" cy="4" r="1" fill="srgba(37.6852%,47.5746%,63.389%,1)"/>
  <circle cx="13" cy="4" r="1" fill="srgba(40.032%,50.2876%,66.0212%,1)"/>
  <circle cx="14" cy="4" r="1" fill="srgba(54.8608%,50.3227%,61.2329%,1)"/>
  <circle cx="15" cy="4" r="1" fill="srgba(79.8764%,26.5156%,26.8879%,1)"/>
  <circle cx="0" cy="5" r="1" fill="srgba(33.3242%,30.3975%,56.7773%,1)"/>
  <circle cx="1" cy="5" r="1" fill="srgba(36.1501%,33.4722%,58.7503%,1)"/>
  <circle cx="2" cy="5" r="1" fill="srgba(57.8454%,55.967%,72.6482%,1)"/>
  <circle cx="3" cy="5" r="1" fill="srgba(90.9239%,83.9246%,86.8605%,1)"/>
  <circle cx="4" cy="5" r="1" fill="srgba(95.2819%,69.3263%,68.6183%,1)"/>
  <circle cx="5" cy="5" r="1" fill="srgba(83.5523%,50.8995%,54.2138%,1)"/>
  <circle cx="6" cy="5" r="1" fill="srgba(78.8556%,65.8%,73.0175%,1)"/>
  <circle cx="7" cy="5" r="1" fill="srgba(78.8174%,37.3724%,40.7568%,1)"/>
  <circle cx="8" cy="5" r="1" fill="srgba(37.1725%,53.0495%,69.4499%,1)"/>
  <circle cx="9" cy="5" r="1" fill="srgba(22.3941%,26.8772%,26.511%,1)"/>
  <circle cx="10" cy="5" r="1" fill="srgba(10.4295%,12.8634%,12.8161%,1)"/>
  <circle cx="11" cy="5" r="1" fill="srgba(8.93721%,12.1401%,14.0459%,1)"/>
  <circle cx="12" cy="5" r="1" fill="srgba(11.046%,14.2092%,16.0052%,1)"/>
  <circle cx="13" cy="5" r="1" fill="srgba(17.9278%,20.8042%,22.3453%,1)"/>
  <circle cx="14" cy="5" r="1" fill="srgba(29.5659%,31.252%,32.221%,1)"/>
  <circle cx="15" cy="5" r="1" fill="srgba(44.2237%,42.443%,42.3041%,1)"/>
  <circle cx="0" cy="6" r="1" fill="srgba(24.2252%,25.037%,55.4314%,1)"/>
  <circle cx="1" cy="6" r="1" fill="srgba(59.765%,55.8328%,71.5404%,1)"/>
  <circle cx="2" cy="6" r="1" fill="srgba(86.8162%,64.2084%,67.2251%,1)"/>
  <circle cx="3" cy="6" r="1" fill="srgba(83.1952%,45.7221%,48.7007%,1)"/>
  <circle cx="4" cy="6" r="1" fill="srgba(55.1827%,28.51%,43.7736%,1)"/>
  <circle cx="5" cy="6" r="1" fill="srgba(18.9746%,12.4132%,44.1688%,1)"/>
  <circle cx="6" cy="6" r="1" fill="srgba(37.0062%,32.8756%,57.7295%,1)"/>
  <circle cx="7" cy="6" r="1" fill="srgba(79.8428%,37.8988%,41.0376%,1)"/>
  <circle cx="8" cy="6" r="1" fill="srgba(29.6727%,47.808%,66.2669%,1)"/>
  <circle cx="9" cy="6" r="1" fill="srgba(13.6004%,17.5448%,17.0581%,1)"/>
  <circle cx="10" cy="6" r="1" fill="srgba(3.52636%,2.26902%,0%,1)"/>
  <circle cx="11" cy="6" r="1" fill="black"/>
  <circle cx="12" cy="6" r="1" fill="black"/>
  <circle cx="13" cy="6" r="1" fill="black"/>
  <circle cx="14" cy="6" r="1" fill="black"/>
  <circle cx="15" cy="6" r="1" fill="srgba(0.198367%,0.19379%,0.21973%,1)"/>
  <circle cx="0" cy="7" r="1" fill="srgba(78.436%,61.5564%,68.4977%,1)"/>
  <circle cx="1" cy="7" r="1" fill="srgba(78.674%,42.2217%,47.1092%,1)"/>
  <circle cx="2" cy="7" r="1" fill="srgba(55.6664%,28.7404%,43.7827%,1)"/>
  <circle cx="3" cy="7" r="1" fill="srgba(20.7034%,14.0734%,45.1286%,1)"/>
  <circle cx="4" cy="7" r="1" fill="srgba(2.02182%,2.56352%,41.8952%,1)"/>
  <circle cx="5" cy="7" r="1" fill="srgba(0%,0%,39.0066%,1)"/>
  <circle cx="6" cy="7" r="1" fill="srgba(30.7439%,27.155%,54.4717%,1)"/>
  <circle cx="7" cy="7" r="1" fill="srgba(71.3176%,34.8318%,41.767%,1)"/>
  <circle cx="8" cy="7" r="1" fill="srgba(26.3478%,47.1%,67.4357%,1)"/>
  <circle cx="9" cy="7" r="1" fill="srgba(12.3919%,19.8795%,20.4334%,1)"/>
  <circle cx="10" cy="7" r="1" fill="srgba(3.82391%,4.6128%,0.737011%,1)"/>
  <circle cx="11" cy="7" r="1" fill="srgba(0%,2.0798%,0.813306%,1)"/>
  <circle cx="12" cy="7" r="1" fill="srgba(0%,2.27054%,0.860609%,1)"/>
  <circle cx="13" cy="7" r="1" fill="srgba(0%,2.18967%,0.796521%,1)"/>
  <circle cx="14" cy="7" r="1" fill="srgba(0%,2.16373%,0.776684%,1)"/>
  <circle cx="15" cy="7" r="1" fill="srgba(0%,2.13779%,0.75227%,1)"/>
  <circle cx="0" cy="8" r="1" fill="srgba(10.5806%,3.17693%,37.8561%,1)"/>
  <circle cx="1" cy="8" r="1" fill="srgba(9.42397%,4.13977%,39.4842%,1)"/>
  <circle cx="2" cy="8" r="1" fill="srgba(2.30869%,2.7512%,41.9776%,1)"/>
  <circle cx="3" cy="8" r="1" fill="srgba(0%,0%,39.7314%,1)"/>
  <circle cx="4" cy="8" r="1" fill="srgba(0%,0%,39.9084%,1)"/>
  <circle cx="5" cy="8" r="1" fill="srgba(0%,0%,39.9054%,1)"/>
  <circle cx="6" cy="8" r="1" fill="srgba(3.68353%,3.0045%,41.5244%,1)"/>
  <circle cx="7" cy="8" r="1" fill="srgba(17.7874%,15.9487%,47.7241%,1)"/>
  <circle cx="8" cy="8" r="1" fill="srgba(28.8655%,53.6477%,75.3246%,1)"/>
  <circle cx="9" cy="8" r="1" fill="srgba(18.143%,37.1588%,33.8994%,1)"/>
  <circle cx="10" cy="8" r="1" fill="srgba(4.25879%,26.2486%,9.42092%,1)"/>
  <circle cx="11" cy="8" r="1" fill="srgba(2.58183%,24.1199%,9.50484%,1)"/>
  <circle cx="12" cy="8" r="1" fill="srgba(2.87633%,23.5645%,9.41482%,1)"/>
  <circle cx="13" cy="8" r="1" fill="srgba(5.55428%,25.1835%,10.5486%,1)"/>
  <circle cx="14" cy="8" r="1" fill="srgba(5.81064%,26.2242%,11.1559%,1)"/>
  <circle cx="15" cy="8" r="1" fill="srgba(5.89456%,26.2608%,11.1925%,1)"/>
  <circle cx="0" cy="9" r="1" fill="srgba(0%,0%,40.1266%,1)"/>
  <circle cx="1" cy="9" r="1" fill="srgba(0%,0%,39.9619%,1)"/>
  <circle cx="2" cy="9" r="1" fill="srgba(0%,0%,39.9115%,1)"/>
  <circle cx="3" cy="9" r="1" fill="srgba(0%,0%,40.0046%,1)"/>
  <circle cx="4" cy="9" r="1" fill="srgba(0,0,102,1)"/>
  <circle cx="5" cy="9" r="1" fill="srgba(0%,0%,40.0061%,1)"/>
  <circle cx="6" cy="9" r="1" fill="srgba(0%,0%,39.3347%,1)"/>
  <circle cx="7" cy="9" r="1" fill="srgba(8.93416%,12.3247%,48.2567%,1)"/>
  <circle cx="8" cy="9" r="1" fill="srgba(41.5915%,63.4546%,82.2538%,1)"/>
  <circle cx="9" cy="9" r="1" fill="srgba(58.9166%,49.5384%,50.0542%,1)"/>
  <circle cx="10" cy="9" r="1" fill="srgba(52.5826%,42.2004%,25.4856%,1)"/>
  <circle cx="11" cy="9" r="1" fill="srgba(52.9091%,47.7424%,22.7329%,1)"/>
  <circle cx="12" cy="9" r="1" fill="srgba(57.467%,42.9007%,22.0768%,1)"/>
  <circle cx="13" cy="9" r="1" fill="srgba(65.391%,45.4688%,26.7231%,1)"/>
  <circle cx="14" cy="9" r="1" fill="srgba(67.7516%,47.7745%,28.9647%,1)"/>
  <circle cx="15" cy="9" r="1" fill="srgba(70.277%,49.7047%,30.4158%,1)"/>
  <circle cx="0" cy="10" r="1" fill="srgba(0,0,102,1)"/>
  <circle cx="1" cy="10" r="1" fill="srgba(0,0,102,1)"/>
  <circle cx="2" cy="10" r="1" fill="srgba(0,0,102,1)"/>
  <circle cx="3" cy="10" r="1" fill="srgba(0,0,102,1)"/>
  <circle cx="4" cy="10" r="1" fill="srgba(0,0,102,1)"/>
  <circle cx="5" cy="10" r="1" fill="srgba(0,0,102,1)"/>
  <circle cx="6" cy="10" r="1" fill="srgba(0%,0%,39.6582%,1)"/>
  <circle cx="7" cy="10" r="1" fill="srgba(6.47288%,8.23224%,45.4292%,1)"/>
  <circle cx="8" cy="10" r="1" fill="srgba(37.7249%,55.1736%,72.9793%,1)"/>
  <circle cx="9" cy="10" r="1" fill="srgba(68.5649%,39.8184%,43.0671%,1)"/>
  <circle cx="10" cy="10" r="1" fill="srgba(84.6357%,45.0294%,17.7508%,1)"/>
  <circle cx="11" cy="10" r="1" fill="srgba(70.2937%,56.8505%,24.947%,1)"/>
  <circle cx="12" cy="10" r="1" fill="srgba(77.8164%,60.6165%,25.1835%,1)"/>
  <circle cx="13" cy="10" r="1" fill="srgba(83.6423%,53.1701%,30.7301%,1)"/>
  <circle cx="14" cy="10" r="1" fill="srgba(86.2531%,54.2138%,33.489%,1)"/>
  <circle cx="15" cy="10" r="1" fill="srgba(87.393%,55.0011%,34.1085%,1)"/>
  <circle cx="0" cy="11" r="1" fill="srgba(0,0,102,1)"/>
  <circle cx="1" cy="11" r="1" fill="srgba(0,0,102,1)"/>
  <circle cx="2" cy="11" r="1" fill="srgba(0%,0%,40.0793%,1)"/>
  <circle cx="3" cy="11" r="1" fill="srgba(0%,0%,40.3357%,1)"/>
  <circle cx="4" cy="11" r="1" fill="srgba(0%,0%,40.6058%,1)"/>
  <circle cx="5" cy="11" r="1" fill="srgba(0.00915541%,0.0030518%,40.6699%,1)"/>
  <circle cx="6" cy="11" r="1" fill="srgba(0%,0%,40.3555%,1)"/>
  <circle cx="7" cy="11" r="1" fill="srgba(3.16167%,3.27306%,42.0859%,1)"/>
  <circle cx="8" cy="11" r="1" fill="srgba(48.188%,49.1341%,63.1556%,1)"/>
  <circle cx="9" cy="11" r="1" fill="srgba(78.7121%,42.6078%,40.6104%,1)"/>
  <circle cx="10" cy="11" r="1" fill="srgba(79.0112%,36.2509%,16.1929%,1)"/>
  <circle cx="11" cy="11" r="1" fill="srgba(72.5597%,56.9986%,27.3274%,1)"/>
  <circle cx="12" cy="11" r="1" fill="srgba(68.6915%,51.2642%,26.0502%,1)"/>
  <circle cx="13" cy="11" r="1" fill="srgba(76.3684%,48.5817%,27.3899%,1)"/>
  <circle cx="14" cy="11" r="1" fill="srgba(74.9905%,49.0196%,29.4118%,1)"/>
  <circle cx="15" cy="11" r="1" fill="srgba(73.8369%,49.4118%,29.5537%,1)"/>
  <circle cx="0" cy="12" r="1" fill="srgba(0%,0%,40.4837%,1)"/>
  <circle cx="1" cy="12" r="1" fill="srgba(0.0350958%,0.0137331%,40.5158%,1)"/>
  <circle cx="2" cy="12" r="1" fill="srgba(0.198367%,0.0793469%,38.7991%,1)"/>
  <circle cx="3" cy="12" r="1" fill="srgba(0.404364%,0.161746%,34.7341%,1)"/>
  <circle cx="4" cy="12" r="1" fill="srgba(0.555428%,0.221256%,29.2729%,1)"/>
  <circle cx="5" cy="12" r="1" fill="srgba(0.627146%,0.247196%,23.6301%,1)"/>
  <circle cx="6" cy="12" r="1" fill="srgba(0.642405%,0.257877%,18.6618%,1)"/>
  <circle cx="7" cy="12" r="1" fill="srgba(6.16617%,5.72824%,18.0407%,1)"/>
  <circle cx="8" cy="12" r="1" fill="srgba(12.7199%,14.9477%,20.119%,1)"/>
  <circle cx="9" cy="12" r="1" fill="srgba(40.2426%,8.52064%,9.05165%,1)"/>
  <circle cx="10" cy="12" r="1" fill="srgba(40.8621%,9.55367%,4.87373%,1)"/>
  <circle cx="11" cy="12" r="1" fill="srgba(16.8811%,13.2082%,5.066%,1)"/>
  <circle cx="12" cy="12" r="1" fill="srgba(28.2887%,19.8917%,8.28412%,1)"/>
  <circle cx="13" cy="12" r="1" fill="srgba(31.1284%,19.8413%,10.9758%,1)"/>
  <circle cx="14" cy="12" r="1" fill="srgba(25.1484%,16.849%,9.91073%,1)"/>
  <circle cx="15" cy="12" r="1" fill="srgba(23.6744%,16.6415%,9.61013%,1)"/>
  <circle cx="0" cy="13" r="1" fill="srgba(0.486763%,0.19379%,31.9387%,1)"/>
  <circle cx="1" cy="13" r="1" fill="srgba(0.643931%,0.257877%,21.622%,1)"/>
  <circle cx="2" cy="13" r="1" fill="srgba(0.576791%,0.231937%,11.2825%,1)"/>
  <circle cx="3" cy="13" r="1" fill="srgba(0.399786%,0.16022%,4.66926%,1)"/>
  <circle cx="4" cy="13" r="1" fill="srgba(0.221256%,0.0885023%,1.26192%,1)"/>
  <circle cx="5" cy="13" r="1" fill="srgba(0.0991836%,0.0396735%,0.062562%,1)"/>
  <circle cx="6" cy="13" r="1" fill="srgba(0.0320439%,0.0122072%,0%,1)"/>
  <circle cx="7" cy="13" r="1" fill="srgba(0.0030518%,0.0015259%,0%,1)"/>
  <circle cx="8" cy="13" r="1" fill="black"/>
  <circle cx="9" cy="13" r="1" fill="srgba(31.577%,0.325017%,0.0656138%,1)"/>
  <circle cx="10" cy="13" r="1" fill="srgba(25.5558%,0.523384%,0.0961318%,1)"/>
  <circle cx="11" cy="13" r="1" fill="black"/>
  <circle cx="12" cy="13" r="1" fill="srgba(10.7622%,10.1183%,4.01923%,1)"/>
  <circle cx="13" cy="13" r="1" fill="srgba(28.867%,25.3529%,13.4722%,1)"/>
  <circle cx="14" cy="13" r="1" fill="srgba(5.88846%,13.3654%,6.06088%,1)"/>
  <circle cx="15" cy="13" r="1" fill="srgba(0%,7.94079%,2.98466%,1)"/>
  <circle cx="0" cy="14" r="1" fill="srgba(0.306706%,0.123598%,2.89158%,1)"/>
  <circle cx="1" cy="14" r="1" fill="srgba(0.0808728%,0.0320439%,0.15259%,1)"/>
  <circle cx="2" cy="14" r="1" fill="black"/>
  <circle cx="3" cy="14" r="1" fill="black"/>
  <circle cx="4" cy="14" r="1" fill="black"/>
  <circle cx="5" cy="14" r="1" fill="black"/>
  <circle cx="6" cy="14" r="1" fill="black"/>
  <circle cx="7" cy="14" r="1" fill="black"/>
  <circle cx="8" cy="14" r="1" fill="black"/>
  <circle cx="9" cy="14" r="1" fill="srgba(29.4118%,0.352483%,0.077821%,1)"/>
  <circle cx="10" cy="14" r="1" fill="srgba(24.6571%,0.544747%,0.120546%,1)"/>
  <circle cx="11" cy="14" r="1" fill="black"/>
  <circle cx="12" cy="14" r="1" fill="srgba(8.11322%,10.0435%,3.77661%,1)"/>
  <circle cx="13" cy="14" r="1" fill="srgba(30.5806%,37.0672%,18.2696%,1)"/>
  <circle cx="14" cy="14" r="1" fill="srgba(10.5486%,33.4676%,14.7936%,1)"/>
  <circle cx="15" cy="14" r="1" fill="srgba(0%,30.2068%,11.9493%,1)"/>
  <circle cx="0" cy="15" r="1" fill="black"/>
  <circle cx="1" cy="15" r="1" fill="black"/>
  <circle cx="2" cy="15" r="1" fill="black"/>
  <circle cx="3" cy="15" r="1" fill="black"/>
  <circle cx="4" cy="15" r="1" fill="black"/>
  <circle cx="5" cy="15" r="1" fill="black"/>
  <circle cx="6" cy="15" r="1" fill="black"/>
  <circle cx="7" cy="15" r="1" fill="black"/>
  <circle cx="8" cy="15" r="1" fill="black"/>
  <circle cx="9" cy="15" r="1" fill="srgba(27.2786%,0.325017%,0.0732433%,1)"/>
  <circle cx="10" cy="15" r="1" fill="srgba(23.4791%,0.37995%,0.0854505%,1)"/>
  <circle cx="11" cy="15" r="1" fill="black"/>
  <circle cx="12" cy="15" r="1" fill="srgba(11.8486%,13.0587%,5.0309%,1)"/>
  <circle cx="13" cy="15" r="1" fill="srgba(13.6843%,33.1365%,14.3511%,1)"/>
  <circle cx="14" cy="15" r="1" fill="srgba(5.25673%,31.9707%,13.434%,1)"/>
  <circle cx="15" cy="15" r="1" fill="srgba(0%,31.2993%,12.5124%,1)"/>
</svg>
