<?xml version="1.0" standalone="no"?>
<!DOCTYPE svg PUBLIC "-//W3C//DTD SVG 20010904//EN"
  "http://www.w3.org/TR/2001/REC-SVG-20010904/DTD/svg10.dtd">
<svg width="16" height="16">
  <circle cx="0" cy="0" r="1" fill="srgba(103,151,214,1)"/>
  <circle cx="1" cy="0" r="1" fill="srgba(103,151,214,1)"/>
  <circle cx="2" cy="0" r="1" fill="srgba(103,151,214,1)"/>
  <circle cx="3" cy="0" r="1" fill="srgba(103,151,214,1)"/>
  <circle cx="4" cy="0" r="1" fill="srgba(103,151,214,1)"/>
  <circle cx="5" cy="0" r="1" fill="srgba(103,151,214,1)"/>
  <circle cx="6" cy="0" r="1" fill="srgba(103,151,214,1)"/>
  <circle cx="7" cy="0" r="1" fill="srgba(103,151,214,1)"/>
  <circle cx="8" cy="0" r="1" fill="srgba(103,151,214,1)"/>
  <circle cx="9" cy="0" r="1" fill="srgba(103,151,214,1)"/>
  <circle cx="10" cy="0" r="1" fill="srgba(103,151,214,1)"/>
  <circle cx="11" cy="0" r="1" fill="srgba(103,151,214,1)"/>
  <circle cx="12" cy="0" r="1" fill="srgba(103,151,214,1)"/>
  <circle cx="13" cy="0" r="1" fill="srgba(103,151,214,1)"/>
  <circle cx="14" cy="0" r="1" fill="srgba(40.3861%,59.2111%,83.92%,1)"/>
  <circle cx="15" cy="0" r="1" fill="srgba(40.5005%,59.292%,83.9521%,1)"/>
  <circle cx="0" cy="1" r="1" fill="srgba(103,151,214,1)"/>
  <circle cx="1" cy="1" r="1" fill="srgba(103,151,214,1)"/>
  <circle cx="2" cy="1" r="1" fill="srgba(103,151,214,1)"/>
  <circle cx="3" cy="1" r="1" fill="srgba(103,151,214,1)"/>
  <circle cx="4" cy="1" r="1" fill="srgba(103,151,214,1)"/>
  <circle cx="5" cy="1" r="1" fill="srgba(40.3952%,59.2172%,83.9216%,1)"/>
  <circle cx="6" cy="1" r="1" fill="srgba(40.3388%,59.1791%,83.9078%,1)"/>
  <circle cx="7" cy="1" r="1" fill="srgba(40.238%,59.1104%,83.8804%,1)"/>
  <circle cx="8" cy="1" r="1" fill="srgba(39.5804%,58.6603%,83.7018%,1)"/>
  <circle cx="9" cy="1" r="1" fill="srgba(40.0061%,58.9517%,83.8178%,1)"/>
  <circle cx="10" cy="1" r="1" fill="srgba(40.4013%,59.2218%,83.9246%,1)"/>
  <circle cx="11" cy="1" r="1" fill="srgba(103,151,214,1)"/>
  <circle cx="12" cy="1" r="1" fill="srgba(103,151,214,1)"/>
  <circle cx="13" cy="1" r="1" fill="srgba(103,151,214,1)"/>
  <circle cx="14" cy="1" r="1" fill="srgba(40.3861%,59.2111%,83.92%,1)"/>
  <circle cx="15" cy="1" r="1" fill="srgba(40.5005%,59.292%,83.9521%,1)"/>
  <circle cx="0" cy="2" r="1" fill="srgba(103,151,214,1)"/>
  <circle cx="1" cy="2" r="1" fill="srgba(103,151,214,1)"/>
  <circle cx="2" cy="2" r="1" fill="srgba(103,151,214,1)"/>
  <circle cx="3" cy="2" r="1" fill="srgba(103,151,214,1)"/>
  <circle cx="4" cy="2" r="1" fill="srgba(103,151,214,1)"/>
  <circle cx="5" cy="2" r="1" fill="srgba(40.3525%,59.1882%,83.9109%,1)"/>
  <circle cx="6" cy="2" r="1" fill="srgba(41.2955%,59.8337%,84.1657%,1)"/>
  <circle cx="7" cy="2" r="1" fill="srgba(42.8763%,60.9155%,84.5914%,1)"/>
  <circle cx="8" cy="2" r="1" fill="srgba(55.5032%,69.5521%,87.9988%,1)"/>
  <circle cx="9" cy="2" r="1" fill="srgba(48.2551%,64.5945%,86.0456%,1)"/>
  <circle cx="10" cy="2" r="1" fill="srgba(40.2564%,59.1226%,83.8849%,1)"/>
  <circle cx="11" cy="2" r="1" fill="srgba(40.3891%,59.2142%,83.92%,1)"/>
  <circle cx="12" cy="2" r="1" fill="srgba(103,151,214,1)"/>
  <circle cx="13" cy="2" r="1" fill="srgba(103,151,214,1)"/>
  <circle cx="14" cy="2" r="1" fill="srgba(40.3861%,59.2111%,83.92%,1)"/>
  <circle cx="15" cy="2" r="1" fill="srgba(40.5005%,59.292%,83.9521%,1)"/>
  <circle cx="0" cy="3" r="1" fill="srgba(103,151,214,1)"/>
  <circle cx="1" cy="3" r="1" fill="srgba(103,151,214,1)"/>
  <circle cx="2" cy="3" r="1" fill="srgba(103,151,214,1)"/>
  <circle cx="3" cy="3" r="1" fill="srgba(103,151,214,1)"/>
  <circle cx="4" cy="3" r="1" fill="srgba(103,151,214,1)"/>
  <circle cx="5" cy="3" r="1" fill="srgba(40.2853%,59.1424%,83.8926%,1)"/>
  <circle cx="6" cy="3" r="1" fill="srgba(42.1927%,60.4456%,84.4068%,1)"/>
  <circle cx="7" cy="3" r="1" fill="srgba(60.2564%,72.8069%,89.2805%,1)"/>
  <circle cx="8" cy="3" r="1" fill="srgba(81.5747%,87.3945%,95.0317%,1)"/>
  <circle cx="9" cy="3" r="1" fill="srgba(48.867%,65.0141%,86.2089%,1)"/>
  <circle cx="10" cy="3" r="1" fill="srgba(40.0412%,58.9746%,83.827%,1)"/>
  <circle cx="11" cy="3" r="1" fill="srgba(40.3906%,59.2157%,83.9216%,1)"/>
  <circle cx="12" cy="3" r="1" fill="srgba(103,151,214,1)"/>
  <circle cx="13" cy="3" r="1" fill="srgba(103,151,214,1)"/>
  <circle cx="14" cy="3" r="1" fill="srgba(40.3861%,59.2111%,83.92%,1)"/>
  <circle cx="15" cy="3" r="1" fill="srgba(40.5005%,59.292%,83.9521%,1)"/>
  <circle cx="0" cy="4" r="1" fill="srgba(103,151,214,1)"/>
  <circle cx="1" cy="4" r="1" fill="srgba(103,151,214,1)"/>
  <circle cx="2" cy="4" r="1" fill="srgba(103,151,214,1)"/>
  <circle cx="3" cy="4" r="1" fill="srgba(103,151,214,1)"/>
  <circle cx="4" cy="4" r="1" fill="srgba(103,151,214,1)"/>
  <circle cx="5" cy="4" r="1" fill="srgba(40.3464%,59.1852%,83.9094%,1)"/>
  <circle cx="6" cy="4" r="1" fill="srgba(41.3336%,59.8596%,84.1749%,1)"/>
  <circle cx="7" cy="4" r="1" fill="srgba(49.7658%,65.6291%,86.4515%,1)"/>
  <circle cx="8" cy="4" r="1" fill="srgba(50.4128%,66.0731%,86.6255%,1)"/>
  <circle cx="9" cy="4" r="1" fill="srgba(42.9618%,60.9735%,84.6143%,1)"/>
  <circle cx="10" cy="4" r="1" fill="srgba(40.2243%,59.1012%,83.8758%,1)"/>
  <circle cx="11" cy="4" r="1" fill="srgba(103,151,214,1)"/>
  <circle cx="12" cy="4" r="1" fill="srgba(103,151,214,1)"/>
  <circle cx="13" cy="4" r="1" fill="srgba(103,151,214,1)"/>
  <circle cx="14" cy="4" r="1" fill="srgba(40.3861%,59.2111%,83.92%,1)"/>
  <circle cx="15" cy="4" r="1" fill="srgba(40.5005%,59.292%,83.9521%,1)"/>
  <circle cx="0" cy="5" r="1" fill="srgba(103,151,214,1)"/>
  <circle cx="1" cy="5" r="1" fill="srgba(40.3998%,59.2218%,83.9231%,1)"/>
  <circle cx="2" cy="5" r="1" fill="srgba(40.1022%,59.0173%,83.8437%,1)"/>
  <circle cx="3" cy="5" r="1" fill="srgba(40.2182%,59.0967%,83.8743%,1)"/>
  <circle cx="4" cy="5" r="1" fill="srgba(40.3296%,59.173%,83.9048%,1)"/>
  <circle cx="5" cy="5" r="1" fill="srgba(40.3952%,59.2172%,83.9231%,1)"/>
  <circle cx="6" cy="5" r="1" fill="srgba(40.3723%,59.202%,83.9155%,1)"/>
  <circle cx="7" cy="5" r="1" fill="srgba(39.9512%,58.9136%,83.8025%,1)"/>
  <circle cx="8" cy="5" r="1" fill="srgba(39.8596%,58.8525%,83.7781%,1)"/>
  <circle cx="9" cy="5" r="1" fill="srgba(40.2991%,59.1516%,83.8972%,1)"/>
  <circle cx="10" cy="5" r="1" fill="srgba(40.3998%,59.2218%,83.9231%,1)"/>
  <circle cx="11" cy="5" r="1" fill="srgba(40.3479%,59.1852%,83.9094%,1)"/>
  <circle cx="12" cy="5" r="1" fill="srgba(40.2731%,59.1348%,83.8895%,1)"/>
  <circle cx="13" cy="5" r="1" fill="srgba(40.0534%,58.9837%,83.83%,1)"/>
  <circle cx="14" cy="5" r="1" fill="srgba(40.3693%,59.2004%,83.9155%,1)"/>
  <circle cx="15" cy="5" r="1" fill="srgba(40.5005%,59.2935%,83.9521%,1)"/>
  <circle cx="0" cy="6" r="1" fill="srgba(40.4044%,59.2233%,83.9246%,1)"/>
  <circle cx="1" cy="6" r="1" fill="srgba(39.9573%,58.9181%,83.8041%,1)"/>
  <circle cx="2" cy="6" r="1" fill="srgba(46.2211%,63.2044%,85.4932%,1)"/>
  <circle cx="3" cy="6" r="1" fill="srgba(43.6149%,61.4206%,84.7898%,1)"/>
  <circle cx="4" cy="6" r="1" fill="srgba(41.5686%,60.0214%,84.239%,1)"/>
  <circle cx="5" cy="6" r="1" fill="srgba(40.3433%,59.1821%,83.9078%,1)"/>
  <circle cx="6" cy="6" r="1" fill="srgba(103,151,214,1)"/>
  <circle cx="7" cy="6" r="1" fill="srgba(103,151,214,1)"/>
  <circle cx="8" cy="6" r="1" fill="srgba(103,151,214,1)"/>
  <circle cx="9" cy="6" r="1" fill="srgba(103,151,214,1)"/>
  <circle cx="10" cy="6" r="1" fill="srgba(40.3449%,59.1821%,83.9094%,1)"/>
  <circle cx="11" cy="6" r="1" fill="srgba(41.1917%,59.762%,84.1367%,1)"/>
  <circle cx="12" cy="6" r="1" fill="srgba(42.5559%,60.6958%,84.506%,1)"/>
  <circle cx="13" cy="6" r="1" fill="srgba(47.2343%,63.8972%,85.7679%,1)"/>
  <circle cx="14" cy="6" r="1" fill="srgba(40.4211%,59.2355%,83.9292%,1)"/>
  <circle cx="15" cy="6" r="1" fill="srgba(40.4868%,59.2844%,83.949%,1)"/>
  <circle cx="0" cy="7" r="1" fill="srgba(40.1892%,59.0768%,83.8666%,1)"/>
  <circle cx="1" cy="7" r="1" fill="srgba(44.6586%,62.1332%,85.0721%,1)"/>
  <circle cx="2" cy="7" r="1" fill="srgba(73.8933%,82.1378%,92.958%,1)"/>
  <circle cx="3" cy="7" r="1" fill="srgba(78.8632%,85.536%,94.2977%,1)"/>
  <circle cx="4" cy="7" r="1" fill="srgba(47.7012%,64.2161%,85.8946%,1)"/>
  <circle cx="5" cy="7" r="1" fill="srgba(39.9939%,58.9425%,83.8132%,1)"/>
  <circle cx="6" cy="7" r="1" fill="srgba(103,151,214,1)"/>
  <circle cx="7" cy="7" r="1" fill="srgba(103,151,214,1)"/>
  <circle cx="8" cy="7" r="1" fill="srgba(103,151,214,1)"/>
  <circle cx="9" cy="7" r="1" fill="srgba(103,151,214,1)"/>
  <circle cx="10" cy="7" r="1" fill="srgba(40.1999%,59.0845%,83.8697%,1)"/>
  <circle cx="11" cy="7" r="1" fill="srgba(43.386%,61.2634%,84.7288%,1)"/>
  <circle cx="12" cy="7" r="1" fill="srgba(72.108%,80.914%,92.4758%,1)"/>
  <circle cx="13" cy="7" r="1" fill="srgba(80.557%,86.6957%,94.7555%,1)"/>
  <circle cx="14" cy="7" r="1" fill="srgba(48.7297%,64.9195%,86.1707%,1)"/>
  <circle cx="15" cy="7" r="1" fill="srgba(40.4273%,59.2432%,83.9322%,1)"/>
  <circle cx="0" cy="8" r="1" fill="srgba(40.1785%,59.0692%,83.8636%,1)"/>
  <circle cx="1" cy="8" r="1" fill="srgba(45.0278%,62.3865%,85.1713%,1)"/>
  <circle cx="2" cy="8" r="1" fill="srgba(75.6008%,83.3066%,93.4188%,1)"/>
  <circle cx="3" cy="8" r="1" fill="srgba(78.9776%,85.6168%,94.3297%,1)"/>
  <circle cx="4" cy="8" r="1" fill="srgba(47.0588%,63.7766%,85.7191%,1)"/>
  <circle cx="5" cy="8" r="1" fill="srgba(40.0031%,58.9502%,83.8163%,1)"/>
  <circle cx="6" cy="8" r="1" fill="srgba(103,151,214,1)"/>
  <circle cx="7" cy="8" r="1" fill="srgba(103,151,214,1)"/>
  <circle cx="8" cy="8" r="1" fill="srgba(103,151,214,1)"/>
  <circle cx="9" cy="8" r="1" fill="srgba(103,151,214,1)"/>
  <circle cx="10" cy="8" r="1" fill="srgba(40.2319%,59.1058%,83.8788%,1)"/>
  <circle cx="11" cy="8" r="1" fill="srgba(42.8397%,60.8896%,84.5808%,1)"/>
  <circle cx="12" cy="8" r="1" fill="srgba(72.018%,80.8545%,92.4514%,1)"/>
  <circle cx="13" cy="8" r="1" fill="srgba(81.9028%,87.6188%,95.1202%,1)"/>
  <circle cx="14" cy="8" r="1" fill="srgba(49.5399%,65.4734%,86.389%,1)"/>
  <circle cx="15" cy="8" r="1" fill="srgba(40.3998%,59.2248%,83.9261%,1)"/>
  <circle cx="0" cy="9" r="1" fill="srgba(40.4044%,59.2233%,83.9246%,1)"/>
  <circle cx="1" cy="9" r="1" fill="srgba(40.0916%,59.0097%,83.8407%,1)"/>
  <circle cx="2" cy="9" r="1" fill="srgba(47.0497%,63.772%,85.7191%,1)"/>
  <circle cx="3" cy="9" r="1" fill="srgba(43.4974%,61.3413%,84.7593%,1)"/>
  <circle cx="4" cy="9" r="1" fill="srgba(41.6052%,60.0443%,84.2481%,1)"/>
  <circle cx="5" cy="9" r="1" fill="srgba(40.3326%,59.1745%,83.9048%,1)"/>
  <circle cx="6" cy="9" r="1" fill="srgba(103,151,214,1)"/>
  <circle cx="7" cy="9" r="1" fill="srgba(103,151,214,1)"/>
  <circle cx="8" cy="9" r="1" fill="srgba(103,151,214,1)"/>
  <circle cx="9" cy="9" r="1" fill="srgba(103,151,214,1)"/>
  <circle cx="10" cy="9" r="1" fill="srgba(40.3464%,59.1836%,83.9094%,1)"/>
  <circle cx="11" cy="9" r="1" fill="srgba(41.146%,59.7314%,84.1245%,1)"/>
  <circle cx="12" cy="9" r="1" fill="srgba(42.5986%,60.7248%,84.5167%,1)"/>
  <circle cx="13" cy="9" r="1" fill="srgba(47.6783%,64.2008%,85.8869%,1)"/>
  <circle cx="14" cy="9" r="1" fill="srgba(40.8362%,59.5193%,84.0421%,1)"/>
  <circle cx="15" cy="9" r="1" fill="srgba(40.4593%,59.266%,83.9414%,1)"/>
  <circle cx="0" cy="10" r="1" fill="srgba(103,151,214,1)"/>
  <circle cx="1" cy="10" r="1" fill="srgba(40.3967%,59.2187%,83.9231%,1)"/>
  <circle cx="2" cy="10" r="1" fill="srgba(40.0793%,59.0005%,83.8376%,1)"/>
  <circle cx="3" cy="10" r="1" fill="srgba(40.2197%,59.0982%,83.8743%,1)"/>
  <circle cx="4" cy="10" r="1" fill="srgba(40.325%,59.1699%,83.9033%,1)"/>
  <circle cx="5" cy="10" r="1" fill="srgba(40.3952%,59.2172%,83.9231%,1)"/>
  <circle cx="6" cy="10" r="1" fill="srgba(103,151,214,1)"/>
  <circle cx="7" cy="10" r="1" fill="srgba(103,151,214,1)"/>
  <circle cx="8" cy="10" r="1" fill="srgba(103,151,214,1)"/>
  <circle cx="9" cy="10" r="1" fill="srgba(103,151,214,1)"/>
  <circle cx="10" cy="10" r="1" fill="srgba(40.3952%,59.2172%,83.9216%,1)"/>
  <circle cx="11" cy="10" r="1" fill="srgba(40.3494%,59.1867%,83.9094%,1)"/>
  <circle cx="12" cy="10" r="1" fill="srgba(40.2655%,59.1302%,83.888%,1)"/>
  <circle cx="13" cy="10" r="1" fill="srgba(40.0412%,58.9761%,83.827%,1)"/>
  <circle cx="14" cy="10" r="1" fill="srgba(40.3571%,59.1913%,83.9124%,1)"/>
  <circle cx="15" cy="10" r="1" fill="srgba(40.5005%,59.2935%,83.9521%,1)"/>
  <circle cx="0" cy="11" r="1" fill="srgba(103,151,214,1)"/>
  <circle cx="1" cy="11" r="1" fill="srgba(103,151,214,1)"/>
  <circle cx="2" cy="11" r="1" fill="srgba(103,151,214,1)"/>
  <circle cx="3" cy="11" r="1" fill="srgba(103,151,214,1)"/>
  <circle cx="4" cy="11" r="1" fill="srgba(103,151,214,1)"/>
  <circle cx="5" cy="11" r="1" fill="srgba(103,151,214,1)"/>
  <circle cx="6" cy="11" r="1" fill="srgba(103,151,214,1)"/>
  <circle cx="7" cy="11" r="1" fill="srgba(103,151,214,1)"/>
  <circle cx="8" cy="11" r="1" fill="srgba(103,151,214,1)"/>
  <circle cx="9" cy="11" r="1" fill="srgba(103,151,214,1)"/>
  <circle cx="10" cy="11" r="1" fill="srgba(103,151,214,1)"/>
  <circle cx="11" cy="11" r="1" fill="srgba(103,151,214,1)"/>
  <circle cx="12" cy="11" r="1" fill="srgba(103,151,214,1)"/>
  <circle cx="13" cy="11" r="1" fill="srgba(103,151,214,1)"/>
  <circle cx="14" cy="11" r="1" fill="srgba(40.3861%,59.2111%,83.92%,1)"/>
  <circle cx="15" cy="11" r="1" fill="srgba(40.5005%,59.292%,83.9521%,1)"/>
  <circle cx="0" cy="12" r="1" fill="srgba(103,151,214,1)"/>
  <circle cx="1" cy="12" r="1" fill="srgba(103,151,214,1)"/>
  <circle cx="2" cy="12" r="1" fill="srgba(103,151,214,1)"/>
  <circle cx="3" cy="12" r="1" fill="srgba(103,151,214,1)"/>
  <circle cx="4" cy="12" r="1" fill="srgba(103,151,214,1)"/>
  <circle cx="5" cy="12" r="1" fill="srgba(40.3937%,59.2157%,83.9216%,1)"/>
  <circle cx="6" cy="12" r="1" fill="srgba(40.3677%,59.1989%,83.9155%,1)"/>
  <circle cx="7" cy="12" r="1" fill="srgba(39.9344%,58.9029%,83.798%,1)"/>
  <circle cx="8" cy="12" r="1" fill="srgba(39.8779%,58.8647%,83.7827%,1)"/>
  <circle cx="9" cy="12" r="1" fill="srgba(40.293%,59.147%,83.8941%,1)"/>
  <circle cx="10" cy="12" r="1" fill="srgba(40.3983%,59.2203%,83.9231%,1)"/>
  <circle cx="11" cy="12" r="1" fill="srgba(103,151,214,1)"/>
  <circle cx="12" cy="12" r="1" fill="srgba(103,151,214,1)"/>
  <circle cx="13" cy="12" r="1" fill="srgba(103,151,214,1)"/>
  <circle cx="14" cy="12" r="1" fill="srgba(40.3861%,59.2111%,83.92%,1)"/>
  <circle cx="15" cy="12" r="1" fill="srgba(40.5005%,59.292%,83.9521%,1)"/>
  <circle cx="0" cy="13" r="1" fill="srgba(103,151,214,1)"/>
  <circle cx="1" cy="13" r="1" fill="srgba(103,151,214,1)"/>
  <circle cx="2" cy="13" r="1" fill="srgba(103,151,214,1)"/>
  <circle cx="3" cy="13" r="1" fill="srgba(103,151,214,1)"/>
  <circle cx="4" cy="13" r="1" fill="srgba(103,151,214,1)"/>
  <circle cx="5" cy="13" r="1" fill="srgba(40.354%,59.1897%,83.9109%,1)"/>
  <circle cx="6" cy="13" r="1" fill="srgba(41.1963%,59.765%,84.1382%,1)"/>
  <circle cx="7" cy="13" r="1" fill="srgba(49.2012%,65.2415%,86.2974%,1)"/>
  <circle cx="8" cy="13" r="1" fill="srgba(50.222%,65.9403%,86.5736%,1)"/>
  <circle cx="9" cy="13" r="1" fill="srgba(43.2074%,61.1414%,84.6815%,1)"/>
  <circle cx="10" cy="13" r="1" fill="srgba(40.2197%,59.0982%,83.8758%,1)"/>
  <circle cx="11" cy="13" r="1" fill="srgba(103,151,214,1)"/>
  <circle cx="12" cy="13" r="1" fill="srgba(103,151,214,1)"/>
  <circle cx="13" cy="13" r="1" fill="srgba(103,151,214,1)"/>
  <circle cx="14" cy="13" r="1" fill="srgba(40.3861%,59.2111%,83.92%,1)"/>
  <circle cx="15" cy="13" r="1" fill="srgba(40.5005%,59.292%,83.9521%,1)"/>
  <circle cx="0" cy="14" r="1" fill="srgba(40.3876%,59.2126%,83.92%,1)"/>
  <circle cx="1" cy="14" r="1" fill="srgba(40.3876%,59.2126%,83.92%,1)"/>
  <circle cx="2" cy="14" r="1" fill="srgba(40.3876%,59.2126%,83.92%,1)"/>
  <circle cx="3" cy="14" r="1" fill="srgba(40.3876%,59.2126%,83.92%,1)"/>
  <circle cx="4" cy="14" r="1" fill="srgba(40.3876%,59.2126%,83.92%,1)"/>
  <circle cx="5" cy="14" r="1" fill="srgba(40.2228%,59.0997%,83.8758%,1)"/>
  <circle cx="6" cy="14" r="1" fill="srgba(43.3509%,61.2406%,84.7196%,1)"/>
  <circle cx="7" cy="14" r="1" fill="srgba(78.1216%,85.0294%,94.0978%,1)"/>
  <circle cx="8" cy="14" r="1" fill="srgba(73.994%,82.2049%,92.9839%,1)"/>
  <circle cx="9" cy="14" r="1" fill="srgba(42.4613%,60.6317%,84.4785%,1)"/>
  <circle cx="10" cy="14" r="1" fill="srgba(40.238%,59.1104%,83.8788%,1)"/>
  <circle cx="11" cy="14" r="1" fill="srgba(40.3876%,59.2126%,83.92%,1)"/>
  <circle cx="12" cy="14" r="1" fill="srgba(40.3876%,59.2126%,83.92%,1)"/>
  <circle cx="13" cy="14" r="1" fill="srgba(40.3876%,59.2126%,83.92%,1)"/>
  <circle cx="14" cy="14" r="1" fill="srgba(40.3815%,59.2081%,83.9185%,1)"/>
  <circle cx="15" cy="14" r="1" fill="srgba(40.4959%,59.2889%,83.9506%,1)"/>
  <circle cx="0" cy="15" r="1" fill="srgba(40.4685%,59.2691%,83.9445%,1)"/>
  <circle cx="1" cy="15" r="1" fill="srgba(40.4685%,59.2691%,83.9445%,1)"/>
  <circle cx="2" cy="15" r="1" fill="srgba(40.4685%,59.2691%,83.9445%,1)"/>
  <circle cx="3" cy="15" r="1" fill="srgba(40.4685%,59.2691%,83.9445%,1)"/>
  <circle cx="4" cy="15" r="1" fill="srgba(40.4685%,59.2691%,83.9445%,1)"/>
  <circle cx="5" cy="15" r="1" fill="srgba(40.2136%,59.0951%,83.8758%,1)"/>
  <circle cx="6" cy="15" r="1" fill="srgba(45.4765%,62.6947%,85.2949%,1)"/>
  <circle cx="7" cy="15" r="1" fill="srgba(68.5435%,78.4787%,91.5175%,1)"/>
  <circle cx="8" cy="15" r="1" fill="srgba(59.0005%,71.9493%,88.9433%,1)"/>
  <circle cx="9" cy="15" r="1" fill="srgba(39.6078%,58.6801%,83.711%,1)"/>
  <circle cx="10" cy="15" r="1" fill="srgba(40.473%,59.2721%,83.946%,1)"/>
  <circle cx="11" cy="15" r="1" fill="srgba(40.4685%,59.2691%,83.9445%,1)"/>
  <circle cx="12" cy="15" r="1" fill="srgba(40.4685%,59.2691%,83.9445%,1)"/>
  <circle cx="13" cy="15" r="1" fill="srgba(40.4685%,59.2691%,83.9445%,1)"/>
  <circle cx="14" cy="15" r="1" fill="srgba(40.4623%,59.2645%,83.9429%,1)"/>
  <circle cx="15" cy="15" r="1" fill="srgba(40.5768%,59.3454%,83.975%,1)"/>
</svg>
