<?xml version="1.0" standalone="no"?>
<!DOCTYPE svg PUBLIC "-//W3C//DTD SVG 20010904//EN"
  "http://www.w3.org/TR/2001/REC-SVG-20010904/DTD/svg10.dtd">
<svg width="16" height="16">
  <circle cx="0" cy="0" r="1" fill="white"/>
  <circle cx="1" cy="0" r="1" fill="white"/>
  <circle cx="2" cy="0" r="1" fill="white"/>
  <circle cx="3" cy="0" r="1" fill="srgba(75.4665%,82.0706%,91.3085%,1)"/>
  <circle cx="4" cy="0" r="1" fill="srgba(31.3466%,23.4211%,47.1321%,1)"/>
  <circle cx="5" cy="0" r="1" fill="srgba(83.9963%,15.4543%,15.5749%,1)"/>
  <circle cx="6" cy="0" r="1" fill="srgba(40.6836%,18.8678%,38.146%,1)"/>
  <circle cx="7" cy="0" r="1" fill="srgba(60.5325%,70.2663%,85.0599%,1)"/>
  <circle cx="8" cy="0" r="1" fill="white"/>
  <circle cx="9" cy="0" r="1" fill="white"/>
  <circle cx="10" cy="0" r="1" fill="white"/>
  <circle cx="11" cy="0" r="1" fill="white"/>
  <circle cx="12" cy="0" r="1" fill="white"/>
  <circle cx="13" cy="0" r="1" fill="white"/>
  <circle cx="14" cy="0" r="1" fill="white"/>
  <circle cx="15" cy="0" r="1" fill="white"/>
  <circle cx="0" cy="1" r="1" fill="white"/>
  <circle cx="1" cy="1" r="1" fill="white"/>
  <circle cx="2" cy="1" r="1" fill="white"/>
  <circle cx="3" cy="1" r="1" fill="srgba(75.4665%,82.0706%,91.3085%,1)"/>
  <circle cx="4" cy="1" r="1" fill="srgba(31.3466%,23.4211%,47.1321%,1)"/>
  <circle cx="5" cy="1" r="1" fill="srgba(83.9963%,15.4543%,15.5749%,1)"/>
  <circle cx="6" cy="1" r="1" fill="srgba(40.6836%,18.8678%,38.146%,1)"/>
  <circle cx="7" cy="1" r="1" fill="srgba(60.5325%,70.2663%,85.0599%,1)"/>
  <circle cx="8" cy="1" r="1" fill="white"/>
  <circle cx="9" cy="1" r="1" fill="white"/>
  <circle cx="10" cy="1" r="1" fill="white"/>
  <circle cx="11" cy="1" r="1" fill="white"/>
  <circle cx="12" cy="1" r="1" fill="white"/>
  <circle cx="13" cy="1" r="1" fill="white"/>
  <circle cx="14" cy="1" r="1" fill="white"/>
  <circle cx="15" cy="1" r="1" fill="white"/>
  <circle cx="0" cy="2" r="1" fill="white"/>
  <circle cx="1" cy="2" r="1" fill="white"/>
  <circle cx="2" cy="2" r="1" fill="white"/>
  <circle cx="3" cy="2" r="1" fill="srgba(75.4665%,82.0706%,91.3085%,1)"/>
  <circle cx="4" cy="2" r="1" fill="srgba(31.3466%,23.4211%,47.1321%,1)"/>
  <circle cx="5" cy="2" r="1" fill="srgba(83.9963%,15.4543%,15.5749%,1)"/>
  <circle cx="6" cy="2" r="1" fill="srgba(40.6836%,18.8678%,38.146%,1)"/>
  <circle cx="7" cy="2" r="1" fill="srgba(60.5325%,70.2663%,85.0599%,1)"/>
  <circle cx="8" cy="2" r="1" fill="white"/>
  <circle cx="9" cy="2" r="1" fill="white"/>
  <circle cx="10" cy="2" r="1" fill="white"/>
  <circle cx="11" cy="2" r="1" fill="white"/>
  <circle cx="12" cy="2" r="1" fill="white"/>
  <circle cx="13" cy="2" r="1" fill="white"/>
  <circle cx="14" cy="2" r="1" fill="white"/>
  <circle cx="15" cy="2" r="1" fill="white"/>
  <circle cx="0" cy="3" r="1" fill="white"/>
  <circle cx="1" cy="3" r="1" fill="white"/>
  <circle cx="2" cy="3" r="1" fill="white"/>
  <circle cx="3" cy="3" r="1" fill="srgba(75.4665%,82.0706%,91.3085%,1)"/>
  <circle cx="4" cy="3" r="1" fill="srgba(31.3466%,23.4211%,47.1321%,1)"/>
  <circle cx="5" cy="3" r="1" fill="srgba(83.9963%,15.4543%,15.5749%,1)"/>
  <circle cx="6" cy="3" r="1" fill="srgba(40.6836%,18.8678%,38.146%,1)"/>
  <circle cx="7" cy="3" r="1" fill="srgba(60.5325%,70.2663%,85.0599%,1)"/>
  <circle cx="8" cy="3" r="1" fill="white"/>
  <circle cx="9" cy="3" r="1" fill="white"/>
  <circle cx="10" cy="3" r="1" fill="white"/>
  <circle cx="11" cy="3" r="1" fill="white"/>
  <circle cx="12" cy="3" r="1" fill="white"/>
  <circle cx="13" cy="3" r="1" fill="white"/>
  <circle cx="14" cy="3" r="1" fill="white"/>
  <circle cx="15" cy="3" r="1" fill="white"/>
  <circle cx="0" cy="4" r="1" fill="white"/>
  <circle cx="1" cy="4" r="1" fill="white"/>
  <circle cx="2" cy="4" r="1" fill="white"/>
  <circle cx="3" cy="4" r="1" fill="srgba(75.4681%,82.0722%,91.3085%,1)"/>
  <circle cx="4" cy="4" r="1" fill="srgba(31.3481%,23.4226%,47.1321%,1)"/>
  <circle cx="5" cy="4" r="1" fill="srgba(83.9963%,15.4543%,15.5749%,1)"/>
  <circle cx="6" cy="4" r="1" fill="srgba(40.6836%,18.8678%,38.146%,1)"/>
  <circle cx="7" cy="4" r="1" fill="srgba(60.5325%,70.2678%,85.0614%,1)"/>
  <circle cx="8" cy="4" r="1" fill="white"/>
  <circle cx="9" cy="4" r="1" fill="white"/>
  <circle cx="10" cy="4" r="1" fill="white"/>
  <circle cx="11" cy="4" r="1" fill="white"/>
  <circle cx="12" cy="4" r="1" fill="white"/>
  <circle cx="13" cy="4" r="1" fill="white"/>
  <circle cx="14" cy="4" r="1" fill="white"/>
  <circle cx="15" cy="4" r="1" fill="white"/>
  <circle cx="0" cy="5" r="1" fill="srgba(96.6491%,97.6959%,98.97%,1)"/>
  <circle cx="1" cy="5" r="1" fill="srgba(96.6491%,97.6959%,98.97%,1)"/>
  <circle cx="2" cy="5" r="1" fill="srgba(98.0026%,98.7549%,99.5239%,1)"/>
  <circle cx="3" cy="5" r="1" fill="srgba(72.8862%,80.3067%,90.5623%,1)"/>
  <circle cx="4" cy="5" r="1" fill="srgba(31.1894%,23.3371%,47.2068%,1)"/>
  <circle cx="5" cy="5" r="1" fill="srgba(84.004%,15.462%,15.5779%,1)"/>
  <circle cx="6" cy="5" r="1" fill="srgba(40.679%,18.8846%,38.2437%,1)"/>
  <circle cx="7" cy="5" r="1" fill="srgba(58.4543%,68.8533%,84.4984%,1)"/>
  <circle cx="8" cy="5" r="1" fill="srgba(98.3368%,99.0173%,99.6612%,1)"/>
  <circle cx="9" cy="5" r="1" fill="srgba(96.6491%,97.6959%,98.97%,1)"/>
  <circle cx="10" cy="5" r="1" fill="srgba(96.6491%,97.6959%,98.97%,1)"/>
  <circle cx="11" cy="5" r="1" fill="srgba(96.6491%,97.6959%,98.97%,1)"/>
  <circle cx="12" cy="5" r="1" fill="srgba(96.6491%,97.6959%,98.97%,1)"/>
  <circle cx="13" cy="5" r="1" fill="srgba(96.6491%,97.6959%,98.97%,1)"/>
  <circle cx="14" cy="5" r="1" fill="srgba(96.6491%,97.6959%,98.97%,1)"/>
  <circle cx="15" cy="5" r="1" fill="srgba(96.6491%,97.6959%,98.97%,1)"/>
  <circle cx="0" cy="6" r="1" fill="srgba(32.3125%,42.2522%,67.071%,1)"/>
  <circle cx="1" cy="6" r="1" fill="srgba(32.3125%,42.2522%,67.071%,1)"/>
  <circle cx="2" cy="6" r="1" fill="srgba(32.6848%,42.5422%,67.2221%,1)"/>
  <circle cx="3" cy="6" r="1" fill="srgba(24.8493%,37.5631%,65.2537%,1)"/>
  <circle cx="4" cy="6" r="1" fill="srgba(32.0043%,20.5829%,43.7781%,1)"/>
  <circle cx="5" cy="6" r="1" fill="srgba(84.2161%,15.6252%,15.6634%,1)"/>
  <circle cx="6" cy="6" r="1" fill="srgba(43.714%,18.6908%,36.6323%,1)"/>
  <circle cx="7" cy="6" r="1" fill="srgba(20.9995%,34.4198%,63.5355%,1)"/>
  <circle cx="8" cy="6" r="1" fill="srgba(32.7764%,42.6139%,67.2602%,1)"/>
  <circle cx="9" cy="6" r="1" fill="srgba(32.3125%,42.2522%,67.071%,1)"/>
  <circle cx="10" cy="6" r="1" fill="srgba(32.3125%,42.2522%,67.071%,1)"/>
  <circle cx="11" cy="6" r="1" fill="srgba(32.3125%,42.2522%,67.071%,1)"/>
  <circle cx="12" cy="6" r="1" fill="srgba(32.3125%,42.2522%,67.071%,1)"/>
  <circle cx="13" cy="6" r="1" fill="srgba(32.3125%,42.2522%,67.071%,1)"/>
  <circle cx="14" cy="6" r="1" fill="srgba(32.3125%,42.2522%,67.071%,1)"/>
  <circle cx="15" cy="6" r="1" fill="srgba(32.3125%,42.2522%,67.071%,1)"/>
  <circle cx="0" cy="7" r="1" fill="srgba(68.0018%,15.584%,22.6856%,1)"/>
  <circle cx="1" cy="7" r="1" fill="srgba(68.0018%,15.584%,22.6856%,1)"/>
  <circle cx="2" cy="7" r="1" fill="srgba(67.9805%,15.5673%,22.6764%,1)"/>
  <circle cx="3" cy="7" r="1" fill="srgba(68.1086%,15.8801%,22.9603%,1)"/>
  <circle cx="4" cy="7" r="1" fill="srgba(74.1863%,16.3806%,20.8499%,1)"/>
  <circle cx="5" cy="7" r="1" fill="srgba(84.3153%,15.6893%,15.6893%,1)"/>
  <circle cx="6" cy="7" r="1" fill="srgba(76.6842%,16.2554%,19.6277%,1)"/>
  <circle cx="7" cy="7" r="1" fill="srgba(68.3711%,16.0601%,23.0381%,1)"/>
  <circle cx="8" cy="7" r="1" fill="srgba(67.9744%,15.5627%,22.6749%,1)"/>
  <circle cx="9" cy="7" r="1" fill="srgba(68.0018%,15.584%,22.6856%,1)"/>
  <circle cx="10" cy="7" r="1" fill="srgba(68.0018%,15.584%,22.6856%,1)"/>
  <circle cx="11" cy="7" r="1" fill="srgba(68.0018%,15.584%,22.6856%,1)"/>
  <circle cx="12" cy="7" r="1" fill="srgba(68.0018%,15.584%,22.6856%,1)"/>
  <circle cx="13" cy="7" r="1" fill="srgba(68.0018%,15.584%,22.6856%,1)"/>
  <circle cx="14" cy="7" r="1" fill="srgba(68.0018%,15.584%,22.6856%,1)"/>
  <circle cx="15" cy="7" r="1" fill="srgba(68.0018%,15.584%,22.6856%,1)"/>
  <circle cx="0" cy="8" r="1" fill="srgba(68.0186%,15.584%,22.6764%,1)"/>
  <circle cx="1" cy="8" r="1" fill="srgba(68.0186%,15.584%,22.6764%,1)"/>
  <circle cx="2" cy="8" r="1" fill="srgba(67.9973%,15.5673%,22.6673%,1)"/>
  <circle cx="3" cy="8" r="1" fill="srgba(68.1254%,15.8801%,22.9511%,1)"/>
  <circle cx="4" cy="8" r="1" fill="srgba(74.1985%,16.3806%,20.8453%,1)"/>
  <circle cx="5" cy="8" r="1" fill="srgba(84.3153%,15.6893%,15.6893%,1)"/>
  <circle cx="6" cy="8" r="1" fill="srgba(76.6918%,16.2554%,19.6231%,1)"/>
  <circle cx="7" cy="8" r="1" fill="srgba(68.3879%,16.0601%,23.0304%,1)"/>
  <circle cx="8" cy="8" r="1" fill="srgba(67.9911%,15.5627%,22.6658%,1)"/>
  <circle cx="9" cy="8" r="1" fill="srgba(68.0186%,15.584%,22.6764%,1)"/>
  <circle cx="10" cy="8" r="1" fill="srgba(68.0186%,15.584%,22.6764%,1)"/>
  <circle cx="11" cy="8" r="1" fill="srgba(68.0186%,15.584%,22.6764%,1)"/>
  <circle cx="12" cy="8" r="1" fill="srgba(68.0186%,15.584%,22.6764%,1)"/>
  <circle cx="13" cy="8" r="1" fill="srgba(68.0186%,15.584%,22.6764%,1)"/>
  <circle cx="14" cy="8" r="1" fill="srgba(68.0186%,15.584%,22.6764%,1)"/>
  <circle cx="15" cy="8" r="1" fill="srgba(68.0186%,15.584%,22.6764%,1)"/>
  <circle cx="0" cy="9" r="1" fill="srgba(32.3217%,42.2522%,67.0665%,1)"/>
  <circle cx="1" cy="9" r="1" fill="srgba(32.3217%,42.2522%,67.0665%,1)"/>
  <circle cx="2" cy="9" r="1" fill="srgba(32.694%,42.5422%,67.2175%,1)"/>
  <circle cx="3" cy="9" r="1" fill="srgba(24.8585%,37.5631%,65.2491%,1)"/>
  <circle cx="4" cy="9" r="1" fill="srgba(32.0119%,20.5829%,43.7751%,1)"/>
  <circle cx="5" cy="9" r="1" fill="srgba(84.2161%,15.6252%,15.6634%,1)"/>
  <circle cx="6" cy="9" r="1" fill="srgba(43.7201%,18.6893%,36.6293%,1)"/>
  <circle cx="7" cy="9" r="1" fill="srgba(21.0086%,34.4198%,63.5309%,1)"/>
  <circle cx="8" cy="9" r="1" fill="srgba(32.7855%,42.6139%,67.2557%,1)"/>
  <circle cx="9" cy="9" r="1" fill="srgba(32.3217%,42.2522%,67.0665%,1)"/>
  <circle cx="10" cy="9" r="1" fill="srgba(32.3217%,42.2522%,67.0665%,1)"/>
  <circle cx="11" cy="9" r="1" fill="srgba(32.3217%,42.2522%,67.0665%,1)"/>
  <circle cx="12" cy="9" r="1" fill="srgba(32.3217%,42.2522%,67.0665%,1)"/>
  <circle cx="13" cy="9" r="1" fill="srgba(32.3217%,42.2522%,67.0665%,1)"/>
  <circle cx="14" cy="9" r="1" fill="srgba(32.3217%,42.2522%,67.0665%,1)"/>
  <circle cx="15" cy="9" r="1" fill="srgba(32.3217%,42.2522%,67.0665%,1)"/>
  <circle cx="0" cy="10" r="1" fill="srgba(96.6491%,97.6959%,98.97%,1)"/>
  <circle cx="1" cy="10" r="1" fill="srgba(96.6491%,97.6959%,98.97%,1)"/>
  <circle cx="2" cy="10" r="1" fill="srgba(98.0026%,98.7549%,99.5239%,1)"/>
  <circle cx="3" cy="10" r="1" fill="srgba(72.8862%,80.3067%,90.5623%,1)"/>
  <circle cx="4" cy="10" r="1" fill="srgba(31.1894%,23.3371%,47.2068%,1)"/>
  <circle cx="5" cy="10" r="1" fill="srgba(84.004%,15.462%,15.5779%,1)"/>
  <circle cx="6" cy="10" r="1" fill="srgba(40.679%,18.8846%,38.2437%,1)"/>
  <circle cx="7" cy="10" r="1" fill="srgba(58.4543%,68.8533%,84.4984%,1)"/>
  <circle cx="8" cy="10" r="1" fill="srgba(98.3368%,99.0173%,99.6612%,1)"/>
  <circle cx="9" cy="10" r="1" fill="srgba(96.6491%,97.6959%,98.97%,1)"/>
  <circle cx="10" cy="10" r="1" fill="srgba(96.6491%,97.6959%,98.97%,1)"/>
  <circle cx="11" cy="10" r="1" fill="srgba(96.6491%,97.6959%,98.97%,1)"/>
  <circle cx="12" cy="10" r="1" fill="srgba(96.6491%,97.6959%,98.97%,1)"/>
  <circle cx="13" cy="10" r="1" fill="srgba(96.6491%,97.6959%,98.97%,1)"/>
  <circle cx="14" cy="10" r="1" fill="srgba(96.6491%,97.6959%,98.97%,1)"/>
  <circle cx="15" cy="10" r="1" fill="srgba(96.6491%,97.6959%,98.97%,1)"/>
  <circle cx="0" cy="11" r="1" fill="white"/>
  <circle cx="1" cy="11" r="1" fill="white"/>
  <circle cx="2" cy="11" r="1" fill="white"/>
  <circle cx="3" cy="11" r="1" fill="srgba(75.4681%,82.0722%,91.3085%,1)"/>
  <circle cx="4" cy="11" r="1" fill="srgba(31.3481%,23.4226%,47.1321%,1)"/>
  <circle cx="5" cy="11" r="1" fill="srgba(83.9963%,15.4543%,15.5749%,1)"/>
  <circle cx="6" cy="11" r="1" fill="srgba(40.6836%,18.8678%,38.146%,1)"/>
  <circle cx="7" cy="11" r="1" fill="srgba(60.5325%,70.2678%,85.0614%,1)"/>
  <circle cx="8" cy="11" r="1" fill="white"/>
  <circle cx="9" cy="11" r="1" fill="white"/>
  <circle cx="10" cy="11" r="1" fill="white"/>
  <circle cx="11" cy="11" r="1" fill="white"/>
  <circle cx="12" cy="11" r="1" fill="white"/>
  <circle cx="13" cy="11" r="1" fill="white"/>
  <circle cx="14" cy="11" r="1" fill="white"/>
  <circle cx="15" cy="11" r="1" fill="white"/>
  <circle cx="0" cy="12" r="1" fill="white"/>
  <circle cx="1" cy="12" r="1" fill="white"/>
  <circle cx="2" cy="12" r="1" fill="white"/>
  <circle cx="3" cy="12" r="1" fill="srgba(75.4665%,82.0706%,91.3085%,1)"/>
  <circle cx="4" cy="12" r="1" fill="srgba(31.3466%,23.4211%,47.1321%,1)"/>
  <circle cx="5" cy="12" r="1" fill="srgba(83.9963%,15.4543%,15.5749%,1)"/>
  <circle cx="6" cy="12" r="1" fill="srgba(40.6836%,18.8678%,38.146%,1)"/>
  <circle cx="7" cy="12" r="1" fill="srgba(60.5325%,70.2663%,85.0599%,1)"/>
  <circle cx="8" cy="12" r="1" fill="white"/>
  <circle cx="9" cy="12" r="1" fill="white"/>
  <circle cx="10" cy="12" r="1" fill="white"/>
  <circle cx="11" cy="12" r="1" fill="white"/>
  <circle cx="12" cy="12" r="1" fill="white"/>
  <circle cx="13" cy="12" r="1" fill="white"/>
  <circle cx="14" cy="12" r="1" fill="white"/>
  <circle cx="15" cy="12" r="1" fill="white"/>
  <circle cx="0" cy="13" r="1" fill="white"/>
  <circle cx="1" cy="13" r="1" fill="white"/>
  <circle cx="2" cy="13" r="1" fill="white"/>
  <circle cx="3" cy="13" r="1" fill="srgba(75.4665%,82.0706%,91.3085%,1)"/>
  <circle cx="4" cy="13" r="1" fill="srgba(31.3466%,23.4211%,47.1321%,1)"/>
  <circle cx="5" cy="13" r="1" fill="srgba(83.9963%,15.4543%,15.5749%,1)"/>
  <circle cx="6" cy="13" r="1" fill="srgba(40.6836%,18.8678%,38.146%,1)"/>
  <circle cx="7" cy="13" r="1" fill="srgba(60.5325%,70.2663%,85.0599%,1)"/>
  <circle cx="8" cy="13" r="1" fill="white"/>
  <circle cx="9" cy="13" r="1" fill="white"/>
  <circle cx="10" cy="13" r="1" fill="white"/>
  <circle cx="11" cy="13" r="1" fill="white"/>
  <circle cx="12" cy="13" r="1" fill="white"/>
  <circle cx="13" cy="13" r="1" fill="white"/>
  <circle cx="14" cy="13" r="1" fill="white"/>
  <circle cx="15" cy="13" r="1" fill="white"/>
  <circle cx="0" cy="14" r="1" fill="white"/>
  <circle cx="1" cy="14" r="1" fill="white"/>
  <circle cx="2" cy="14" r="1" fill="white"/>
  <circle cx="3" cy="14" r="1" fill="srgba(75.4665%,82.0706%,91.3085%,1)"/>
  <circle cx="4" cy="14" r="1" fill="srgba(31.3466%,23.4211%,47.1321%,1)"/>
  <circle cx="5" cy="14" r="1" fill="srgba(83.9963%,15.4543%,15.5749%,1)"/>
  <circle cx="6" cy="14" r="1" fill="srgba(40.6836%,18.8678%,38.146%,1)"/>
  <circle cx="7" cy="14" r="1" fill="srgba(60.5325%,70.2663%,85.0599%,1)"/>
  <circle cx="8" cy="14" r="1" fill="white"/>
  <circle cx="9" cy="14" r="1" fill="white"/>
  <circle cx="10" cy="14" r="1" fill="white"/>
  <circle cx="11" cy="14" r="1" fill="white"/>
  <circle cx="12" cy="14" r="1" fill="white"/>
  <circle cx="13" cy="14" r="1" fill="white"/>
  <circle cx="14" cy="14" r="1" fill="white"/>
  <circle cx="15" cy="14" r="1" fill="white"/>
  <circle cx="0" cy="15" r="1" fill="white"/>
  <circle cx="1" cy="15" r="1" fill="white"/>
  <circle cx="2" cy="15" r="1" fill="white"/>
  <circle cx="3" cy="15" r="1" fill="srgba(75.4665%,82.0706%,91.3085%,1)"/>
  <circle cx="4" cy="15" r="1" fill="srgba(31.3466%,23.4211%,47.1321%,1)"/>
  <circle cx="5" cy="15" r="1" fill="srgba(83.9963%,15.4543%,15.5749%,1)"/>
  <circle cx="6" cy="15" r="1" fill="srgba(40.6836%,18.8678%,38.146%,1)"/>
  <circle cx="7" cy="15" r="1" fill="srgba(60.5325%,70.2663%,85.0599%,1)"/>
  <circle cx="8" cy="15" r="1" fill="white"/>
  <circle cx="9" cy="15" r="1" fill="white"/>
  <circle cx="10" cy="15" r="1" fill="white"/>
  <circle cx="11" cy="15" r="1" fill="white"/>
  <circle cx="12" cy="15" r="1" fill="white"/>
  <circle cx="13" cy="15" r="1" fill="white"/>
  <circle cx="14" cy="15" r="1" fill="white"/>
  <circle cx="15" cy="15" r="1" fill="white"/>
</svg>
