<?xml version="1.0" standalone="no"?>
<!DOCTYPE svg PUBLIC "-//W3C//DTD SVG 20010904//EN"
  "http://www.w3.org/TR/2001/REC-SVG-20010904/DTD/svg10.dtd">
<svg width="16" height="16">
  <circle cx="0" cy="0" r="1" fill="white"/>
  <circle cx="1" cy="0" r="1" fill="white"/>
  <circle cx="2" cy="0" r="1" fill="white"/>
  <circle cx="3" cy="0" r="1" fill="white"/>
  <circle cx="4" cy="0" r="1" fill="white"/>
  <circle cx="5" cy="0" r="1" fill="white"/>
  <circle cx="6" cy="0" r="1" fill="srgba(94.0276%,70.9728%,73.2967%,1)"/>
  <circle cx="7" cy="0" r="1" fill="srgba(81.0559%,7.97894%,15.3262%,1)"/>
  <circle cx="8" cy="0" r="1" fill="srgba(81.0559%,7.97894%,15.3262%,1)"/>
  <circle cx="9" cy="0" r="1" fill="srgba(94.0276%,70.9728%,73.2967%,1)"/>
  <circle cx="10" cy="0" r="1" fill="white"/>
  <circle cx="11" cy="0" r="1" fill="white"/>
  <circle cx="12" cy="0" r="1" fill="white"/>
  <circle cx="13" cy="0" r="1" fill="white"/>
  <circle cx="14" cy="0" r="1" fill="white"/>
  <circle cx="15" cy="0" r="1" fill="white"/>
  <circle cx="0" cy="1" r="1" fill="white"/>
  <circle cx="1" cy="1" r="1" fill="white"/>
  <circle cx="2" cy="1" r="1" fill="white"/>
  <circle cx="3" cy="1" r="1" fill="white"/>
  <circle cx="4" cy="1" r="1" fill="white"/>
  <circle cx="5" cy="1" r="1" fill="white"/>
  <circle cx="6" cy="1" r="1" fill="srgba(94.0276%,70.9728%,73.2967%,1)"/>
  <circle cx="7" cy="1" r="1" fill="srgba(81.0559%,7.97894%,15.3262%,1)"/>
  <circle cx="8" cy="1" r="1" fill="srgba(81.0559%,7.97894%,15.3262%,1)"/>
  <circle cx="9" cy="1" r="1" fill="srgba(94.0276%,70.9728%,73.2967%,1)"/>
  <circle cx="10" cy="1" r="1" fill="white"/>
  <circle cx="11" cy="1" r="1" fill="white"/>
  <circle cx="12" cy="1" r="1" fill="white"/>
  <circle cx="13" cy="1" r="1" fill="white"/>
  <circle cx="14" cy="1" r="1" fill="white"/>
  <circle cx="15" cy="1" r="1" fill="white"/>
  <circle cx="0" cy="2" r="1" fill="white"/>
  <circle cx="1" cy="2" r="1" fill="white"/>
  <circle cx="2" cy="2" r="1" fill="white"/>
  <circle cx="3" cy="2" r="1" fill="white"/>
  <circle cx="4" cy="2" r="1" fill="white"/>
  <circle cx="5" cy="2" r="1" fill="white"/>
  <circle cx="6" cy="2" r="1" fill="srgba(94.0276%,70.9728%,73.2967%,1)"/>
  <circle cx="7" cy="2" r="1" fill="srgba(81.0559%,7.97894%,15.3262%,1)"/>
  <circle cx="8" cy="2" r="1" fill="srgba(81.0559%,7.97894%,15.3262%,1)"/>
  <circle cx="9" cy="2" r="1" fill="srgba(94.0276%,70.9728%,73.2967%,1)"/>
  <circle cx="10" cy="2" r="1" fill="white"/>
  <circle cx="11" cy="2" r="1" fill="white"/>
  <circle cx="12" cy="2" r="1" fill="white"/>
  <circle cx="13" cy="2" r="1" fill="white"/>
  <circle cx="14" cy="2" r="1" fill="white"/>
  <circle cx="15" cy="2" r="1" fill="white"/>
  <circle cx="0" cy="3" r="1" fill="white"/>
  <circle cx="1" cy="3" r="1" fill="white"/>
  <circle cx="2" cy="3" r="1" fill="white"/>
  <circle cx="3" cy="3" r="1" fill="white"/>
  <circle cx="4" cy="3" r="1" fill="white"/>
  <circle cx="5" cy="3" r="1" fill="white"/>
  <circle cx="6" cy="3" r="1" fill="srgba(94.0276%,70.9728%,73.2967%,1)"/>
  <circle cx="7" cy="3" r="1" fill="srgba(81.0559%,7.97894%,15.3262%,1)"/>
  <circle cx="8" cy="3" r="1" fill="srgba(81.0559%,7.97894%,15.3262%,1)"/>
  <circle cx="9" cy="3" r="1" fill="srgba(94.0276%,70.9728%,73.2967%,1)"/>
  <circle cx="10" cy="3" r="1" fill="white"/>
  <circle cx="11" cy="3" r="1" fill="white"/>
  <circle cx="12" cy="3" r="1" fill="white"/>
  <circle cx="13" cy="3" r="1" fill="white"/>
  <circle cx="14" cy="3" r="1" fill="white"/>
  <circle cx="15" cy="3" r="1" fill="white"/>
  <circle cx="0" cy="4" r="1" fill="white"/>
  <circle cx="1" cy="4" r="1" fill="white"/>
  <circle cx="2" cy="4" r="1" fill="white"/>
  <circle cx="3" cy="4" r="1" fill="white"/>
  <circle cx="4" cy="4" r="1" fill="white"/>
  <circle cx="5" cy="4" r="1" fill="white"/>
  <circle cx="6" cy="4" r="1" fill="srgba(94.0276%,70.9728%,73.2967%,1)"/>
  <circle cx="7" cy="4" r="1" fill="srgba(81.0559%,7.97894%,15.3262%,1)"/>
  <circle cx="8" cy="4" r="1" fill="srgba(81.0559%,7.97894%,15.3262%,1)"/>
  <circle cx="9" cy="4" r="1" fill="srgba(94.0276%,70.9728%,73.2967%,1)"/>
  <circle cx="10" cy="4" r="1" fill="white"/>
  <circle cx="11" cy="4" r="1" fill="white"/>
  <circle cx="12" cy="4" r="1" fill="white"/>
  <circle cx="13" cy="4" r="1" fill="white"/>
  <circle cx="14" cy="4" r="1" fill="white"/>
  <circle cx="15" cy="4" r="1" fill="white"/>
  <circle cx="0" cy="5" r="1" fill="white"/>
  <circle cx="1" cy="5" r="1" fill="white"/>
  <circle cx="2" cy="5" r="1" fill="white"/>
  <circle cx="3" cy="5" r="1" fill="white"/>
  <circle cx="4" cy="5" r="1" fill="white"/>
  <circle cx="5" cy="5" r="1" fill="white"/>
  <circle cx="6" cy="5" r="1" fill="srgba(94.0276%,70.9743%,73.2982%,1)"/>
  <circle cx="7" cy="5" r="1" fill="srgba(81.0559%,7.97894%,15.3262%,1)"/>
  <circle cx="8" cy="5" r="1" fill="srgba(81.0559%,7.97894%,15.3262%,1)"/>
  <circle cx="9" cy="5" r="1" fill="srgba(94.0276%,70.9743%,73.2982%,1)"/>
  <circle cx="10" cy="5" r="1" fill="white"/>
  <circle cx="11" cy="5" r="1" fill="white"/>
  <circle cx="12" cy="5" r="1" fill="white"/>
  <circle cx="13" cy="5" r="1" fill="white"/>
  <circle cx="14" cy="5" r="1" fill="white"/>
  <circle cx="15" cy="5" r="1" fill="white"/>
  <circle cx="0" cy="6" r="1" fill="srgba(94.0276%,70.9728%,73.2967%,1)"/>
  <circle cx="1" cy="6" r="1" fill="srgba(94.0276%,70.9728%,73.2967%,1)"/>
  <circle cx="2" cy="6" r="1" fill="srgba(94.0276%,70.9728%,73.2967%,1)"/>
  <circle cx="3" cy="6" r="1" fill="srgba(94.0276%,70.9728%,73.2967%,1)"/>
  <circle cx="4" cy="6" r="1" fill="srgba(94.0276%,70.9728%,73.2967%,1)"/>
  <circle cx="5" cy="6" r="1" fill="srgba(94.2489%,72.05%,74.2885%,1)"/>
  <circle cx="6" cy="6" r="1" fill="srgba(89.9107%,50.9728%,54.8959%,1)"/>
  <circle cx="7" cy="6" r="1" fill="srgba(80.9705%,7.57%,14.9508%,1)"/>
  <circle cx="8" cy="6" r="1" fill="srgba(80.9705%,7.57%,14.9508%,1)"/>
  <circle cx="9" cy="6" r="1" fill="srgba(89.9107%,50.9728%,54.8959%,1)"/>
  <circle cx="10" cy="6" r="1" fill="srgba(94.2489%,72.05%,74.2885%,1)"/>
  <circle cx="11" cy="6" r="1" fill="srgba(94.0276%,70.9728%,73.2967%,1)"/>
  <circle cx="12" cy="6" r="1" fill="srgba(94.0276%,70.9728%,73.2967%,1)"/>
  <circle cx="13" cy="6" r="1" fill="srgba(94.0276%,70.9728%,73.2967%,1)"/>
  <circle cx="14" cy="6" r="1" fill="srgba(94.0276%,70.9728%,73.2967%,1)"/>
  <circle cx="15" cy="6" r="1" fill="srgba(94.0276%,70.9728%,73.2967%,1)"/>
  <circle cx="0" cy="7" r="1" fill="srgba(81.0559%,7.97894%,15.3262%,1)"/>
  <circle cx="1" cy="7" r="1" fill="srgba(81.0559%,7.97894%,15.3262%,1)"/>
  <circle cx="2" cy="7" r="1" fill="srgba(81.0559%,7.97894%,15.3262%,1)"/>
  <circle cx="3" cy="7" r="1" fill="srgba(81.0559%,7.97894%,15.3262%,1)"/>
  <circle cx="4" cy="7" r="1" fill="srgba(81.0559%,7.97894%,15.3262%,1)"/>
  <circle cx="5" cy="7" r="1" fill="srgba(81.0605%,8.00031%,15.346%,1)"/>
  <circle cx="6" cy="7" r="1" fill="srgba(80.972%,7.57153%,14.9508%,1)"/>
  <circle cx="7" cy="7" r="1" fill="srgba(80.7889%,6.68498%,14.1344%,1)"/>
  <circle cx="8" cy="7" r="1" fill="srgba(80.7889%,6.68498%,14.1344%,1)"/>
  <circle cx="9" cy="7" r="1" fill="srgba(80.972%,7.57153%,14.9508%,1)"/>
  <circle cx="10" cy="7" r="1" fill="srgba(81.0605%,8.00031%,15.346%,1)"/>
  <circle cx="11" cy="7" r="1" fill="srgba(81.0559%,7.97894%,15.3262%,1)"/>
  <circle cx="12" cy="7" r="1" fill="srgba(81.0559%,7.97894%,15.3262%,1)"/>
  <circle cx="13" cy="7" r="1" fill="srgba(81.0559%,7.97894%,15.3262%,1)"/>
  <circle cx="14" cy="7" r="1" fill="srgba(81.0559%,7.97894%,15.3262%,1)"/>
  <circle cx="15" cy="7" r="1" fill="srgba(81.0559%,7.97894%,15.3262%,1)"/>
  <circle cx="0" cy="8" r="1" fill="srgba(81.0559%,7.97894%,15.3262%,1)"/>
  <circle cx="1" cy="8" r="1" fill="srgba(81.0559%,7.97894%,15.3262%,1)"/>
  <circle cx="2" cy="8" r="1" fill="srgba(81.0559%,7.97894%,15.3262%,1)"/>
  <circle cx="3" cy="8" r="1" fill="srgba(81.0559%,7.97894%,15.3262%,1)"/>
  <circle cx="4" cy="8" r="1" fill="srgba(81.0559%,7.97894%,15.3262%,1)"/>
  <circle cx="5" cy="8" r="1" fill="srgba(81.0605%,8.00031%,15.346%,1)"/>
  <circle cx="6" cy="8" r="1" fill="srgba(80.972%,7.57153%,14.9508%,1)"/>
  <circle cx="7" cy="8" r="1" fill="srgba(80.7889%,6.68498%,14.1344%,1)"/>
  <circle cx="8" cy="8" r="1" fill="srgba(80.7889%,6.68498%,14.1344%,1)"/>
  <circle cx="9" cy="8" r="1" fill="srgba(80.972%,7.57153%,14.9508%,1)"/>
  <circle cx="10" cy="8" r="1" fill="srgba(81.0605%,8.00031%,15.346%,1)"/>
  <circle cx="11" cy="8" r="1" fill="srgba(81.0559%,7.97894%,15.3262%,1)"/>
  <circle cx="12" cy="8" r="1" fill="srgba(81.0559%,7.97894%,15.3262%,1)"/>
  <circle cx="13" cy="8" r="1" fill="srgba(81.0559%,7.97894%,15.3262%,1)"/>
  <circle cx="14" cy="8" r="1" fill="srgba(81.0559%,7.97894%,15.3262%,1)"/>
  <circle cx="15" cy="8" r="1" fill="srgba(81.0559%,7.97894%,15.3262%,1)"/>
  <circle cx="0" cy="9" r="1" fill="srgba(94.0276%,70.9728%,73.2967%,1)"/>
  <circle cx="1" cy="9" r="1" fill="srgba(94.0276%,70.9728%,73.2967%,1)"/>
  <circle cx="2" cy="9" r="1" fill="srgba(94.0276%,70.9728%,73.2967%,1)"/>
  <circle cx="3" cy="9" r="1" fill="srgba(94.0276%,70.9728%,73.2967%,1)"/>
  <circle cx="4" cy="9" r="1" fill="srgba(94.0276%,70.9728%,73.2967%,1)"/>
  <circle cx="5" cy="9" r="1" fill="srgba(94.2489%,72.05%,74.2885%,1)"/>
  <circle cx="6" cy="9" r="1" fill="srgba(89.9107%,50.9728%,54.8959%,1)"/>
  <circle cx="7" cy="9" r="1" fill="srgba(80.9705%,7.57%,14.9508%,1)"/>
  <circle cx="8" cy="9" r="1" fill="srgba(80.9705%,7.57%,14.9508%,1)"/>
  <circle cx="9" cy="9" r="1" fill="srgba(89.9107%,50.9728%,54.8959%,1)"/>
  <circle cx="10" cy="9" r="1" fill="srgba(94.2489%,72.05%,74.2885%,1)"/>
  <circle cx="11" cy="9" r="1" fill="srgba(94.0276%,70.9728%,73.2967%,1)"/>
  <circle cx="12" cy="9" r="1" fill="srgba(94.0276%,70.9728%,73.2967%,1)"/>
  <circle cx="13" cy="9" r="1" fill="srgba(94.0276%,70.9728%,73.2967%,1)"/>
  <circle cx="14" cy="9" r="1" fill="srgba(94.0276%,70.9728%,73.2967%,1)"/>
  <circle cx="15" cy="9" r="1" fill="srgba(94.0276%,70.9728%,73.2967%,1)"/>
  <circle cx="0" cy="10" r="1" fill="white"/>
  <circle cx="1" cy="10" r="1" fill="white"/>
  <circle cx="2" cy="10" r="1" fill="white"/>
  <circle cx="3" cy="10" r="1" fill="white"/>
  <circle cx="4" cy="10" r="1" fill="white"/>
  <circle cx="5" cy="10" r="1" fill="white"/>
  <circle cx="6" cy="10" r="1" fill="srgba(94.0276%,70.9743%,73.2982%,1)"/>
  <circle cx="7" cy="10" r="1" fill="srgba(81.0559%,7.97894%,15.3262%,1)"/>
  <circle cx="8" cy="10" r="1" fill="srgba(81.0559%,7.97894%,15.3262%,1)"/>
  <circle cx="9" cy="10" r="1" fill="srgba(94.0276%,70.9743%,73.2982%,1)"/>
  <circle cx="10" cy="10" r="1" fill="white"/>
  <circle cx="11" cy="10" r="1" fill="white"/>
  <circle cx="12" cy="10" r="1" fill="white"/>
  <circle cx="13" cy="10" r="1" fill="white"/>
  <circle cx="14" cy="10" r="1" fill="white"/>
  <circle cx="15" cy="10" r="1" fill="white"/>
  <circle cx="0" cy="11" r="1" fill="white"/>
  <circle cx="1" cy="11" r="1" fill="white"/>
  <circle cx="2" cy="11" r="1" fill="white"/>
  <circle cx="3" cy="11" r="1" fill="white"/>
  <circle cx="4" cy="11" r="1" fill="white"/>
  <circle cx="5" cy="11" r="1" fill="white"/>
  <circle cx="6" cy="11" r="1" fill="srgba(94.0276%,70.9728%,73.2967%,1)"/>
  <circle cx="7" cy="11" r="1" fill="srgba(81.0559%,7.97894%,15.3262%,1)"/>
  <circle cx="8" cy="11" r="1" fill="srgba(81.0559%,7.97894%,15.3262%,1)"/>
  <circle cx="9" cy="11" r="1" fill="srgba(94.0276%,70.9728%,73.2967%,1)"/>
  <circle cx="10" cy="11" r="1" fill="white"/>
  <circle cx="11" cy="11" r="1" fill="white"/>
  <circle cx="12" cy="11" r="1" fill="white"/>
  <circle cx="13" cy="11" r="1" fill="white"/>
  <circle cx="14" cy="11" r="1" fill="white"/>
  <circle cx="15" cy="11" r="1" fill="white"/>
  <circle cx="0" cy="12" r="1" fill="white"/>
  <circle cx="1" cy="12" r="1" fill="white"/>
  <circle cx="2" cy="12" r="1" fill="white"/>
  <circle cx="3" cy="12" r="1" fill="white"/>
  <circle cx="4" cy="12" r="1" fill="white"/>
  <circle cx="5" cy="12" r="1" fill="white"/>
  <circle cx="6" cy="12" r="1" fill="srgba(94.0276%,70.9728%,73.2967%,1)"/>
  <circle cx="7" cy="12" r="1" fill="srgba(81.0559%,7.97894%,15.3262%,1)"/>
  <circle cx="8" cy="12" r="1" fill="srgba(81.0559%,7.97894%,15.3262%,1)"/>
  <circle cx="9" cy="12" r="1" fill="srgba(94.0276%,70.9728%,73.2967%,1)"/>
  <circle cx="10" cy="12" r="1" fill="white"/>
  <circle cx="11" cy="12" r="1" fill="white"/>
  <circle cx="12" cy="12" r="1" fill="white"/>
  <circle cx="13" cy="12" r="1" fill="white"/>
  <circle cx="14" cy="12" r="1" fill="white"/>
  <circle cx="15" cy="12" r="1" fill="white"/>
  <circle cx="0" cy="13" r="1" fill="white"/>
  <circle cx="1" cy="13" r="1" fill="white"/>
  <circle cx="2" cy="13" r="1" fill="white"/>
  <circle cx="3" cy="13" r="1" fill="white"/>
  <circle cx="4" cy="13" r="1" fill="white"/>
  <circle cx="5" cy="13" r="1" fill="white"/>
  <circle cx="6" cy="13" r="1" fill="srgba(94.0276%,70.9728%,73.2967%,1)"/>
  <circle cx="7" cy="13" r="1" fill="srgba(81.0559%,7.97894%,15.3262%,1)"/>
  <circle cx="8" cy="13" r="1" fill="srgba(81.0559%,7.97894%,15.3262%,1)"/>
  <circle cx="9" cy="13" r="1" fill="srgba(94.0276%,70.9728%,73.2967%,1)"/>
  <circle cx="10" cy="13" r="1" fill="white"/>
  <circle cx="11" cy="13" r="1" fill="white"/>
  <circle cx="12" cy="13" r="1" fill="white"/>
  <circle cx="13" cy="13" r="1" fill="white"/>
  <circle cx="14" cy="13" r="1" fill="white"/>
  <circle cx="15" cy="13" r="1" fill="white"/>
  <circle cx="0" cy="14" r="1" fill="white"/>
  <circle cx="1" cy="14" r="1" fill="white"/>
  <circle cx="2" cy="14" r="1" fill="white"/>
  <circle cx="3" cy="14" r="1" fill="white"/>
  <circle cx="4" cy="14" r="1" fill="white"/>
  <circle cx="5" cy="14" r="1" fill="white"/>
  <circle cx="6" cy="14" r="1" fill="srgba(94.0276%,70.9728%,73.2967%,1)"/>
  <circle cx="7" cy="14" r="1" fill="srgba(81.0559%,7.97894%,15.3262%,1)"/>
  <circle cx="8" cy="14" r="1" fill="srgba(81.0559%,7.97894%,15.3262%,1)"/>
  <circle cx="9" cy="14" r="1" fill="srgba(94.0276%,70.9728%,73.2967%,1)"/>
  <circle cx="10" cy="14" r="1" fill="white"/>
  <circle cx="11" cy="14" r="1" fill="white"/>
  <circle cx="12" cy="14" r="1" fill="white"/>
  <circle cx="13" cy="14" r="1" fill="white"/>
  <circle cx="14" cy="14" r="1" fill="white"/>
  <circle cx="15" cy="14" r="1" fill="white"/>
  <circle cx="0" cy="15" r="1" fill="white"/>
  <circle cx="1" cy="15" r="1" fill="white"/>
  <circle cx="2" cy="15" r="1" fill="white"/>
  <circle cx="3" cy="15" r="1" fill="white"/>
  <circle cx="4" cy="15" r="1" fill="white"/>
  <circle cx="5" cy="15" r="1" fill="white"/>
  <circle cx="6" cy="15" r="1" fill="srgba(94.0276%,70.9728%,73.2967%,1)"/>
  <circle cx="7" cy="15" r="1" fill="srgba(81.0559%,7.97894%,15.3262%,1)"/>
  <circle cx="8" cy="15" r="1" fill="srgba(81.0559%,7.97894%,15.3262%,1)"/>
  <circle cx="9" cy="15" r="1" fill="srgba(94.0276%,70.9728%,73.2967%,1)"/>
  <circle cx="10" cy="15" r="1" fill="white"/>
  <circle cx="11" cy="15" r="1" fill="white"/>
  <circle cx="12" cy="15" r="1" fill="white"/>
  <circle cx="13" cy="15" r="1" fill="white"/>
  <circle cx="14" cy="15" r="1" fill="white"/>
  <circle cx="15" cy="15" r="1" fill="white"/>
</svg>
