<?xml version="1.0" standalone="no"?>
<!DOCTYPE svg PUBLIC "-//W3C//DTD SVG 20010904//EN"
  "http://www.w3.org/TR/2001/REC-SVG-20010904/DTD/svg10.dtd">
<svg width="16" height="16">
  <circle cx="0" cy="0" r="1" fill="white"/>
  <circle cx="1" cy="0" r="1" fill="white"/>
  <circle cx="2" cy="0" r="1" fill="white"/>
  <circle cx="3" cy="0" r="1" fill="white"/>
  <circle cx="4" cy="0" r="1" fill="white"/>
  <circle cx="5" cy="0" r="1" fill="white"/>
  <circle cx="6" cy="0" r="1" fill="srgba(90.0999%,49.9977%,49.9962%,1)"/>
  <circle cx="7" cy="0" r="1" fill="srgba(79.3256%,0%,0%,1)"/>
  <circle cx="8" cy="0" r="1" fill="srgba(79.0753%,0%,0%,1)"/>
  <circle cx="9" cy="0" r="1" fill="srgba(90.0786%,50.0008%,50.0038%,1)"/>
  <circle cx="10" cy="0" r="1" fill="white"/>
  <circle cx="11" cy="0" r="1" fill="srgba(99.8856%,100%,100%,1)"/>
  <circle cx="12" cy="0" r="1" fill="srgba(99.8672%,100%,100%,1)"/>
  <circle cx="13" cy="0" r="1" fill="srgba(99.8825%,100%,100%,1)"/>
  <circle cx="14" cy="0" r="1" fill="srgba(99.8993%,100%,100%,1)"/>
  <circle cx="15" cy="0" r="1" fill="srgba(99.9115%,100%,100%,1)"/>
  <circle cx="0" cy="1" r="1" fill="white"/>
  <circle cx="1" cy="1" r="1" fill="white"/>
  <circle cx="2" cy="1" r="1" fill="white"/>
  <circle cx="3" cy="1" r="1" fill="white"/>
  <circle cx="4" cy="1" r="1" fill="white"/>
  <circle cx="5" cy="1" r="1" fill="white"/>
  <circle cx="6" cy="1" r="1" fill="srgba(88.8746%,52.1187%,52.3751%,1)"/>
  <circle cx="7" cy="1" r="1" fill="srgba(76.2753%,9.40719%,4.09552%,1)"/>
  <circle cx="8" cy="1" r="1" fill="srgba(72.0241%,14.6746%,5.46578%,1)"/>
  <circle cx="9" cy="1" r="1" fill="srgba(80.4395%,48.3711%,40.9674%,1)"/>
  <circle cx="10" cy="1" r="1" fill="srgba(90.8721%,86.1891%,64.3153%,1)"/>
  <circle cx="11" cy="1" r="1" fill="srgba(94.4289%,87.3381%,58.1903%,1)"/>
  <circle cx="12" cy="1" r="1" fill="srgba(95.2224%,87.9622%,57.8958%,1)"/>
  <circle cx="13" cy="1" r="1" fill="srgba(95.3399%,88.2383%,58.9883%,1)"/>
  <circle cx="14" cy="1" r="1" fill="srgba(95.4253%,88.4184%,59.6124%,1)"/>
  <circle cx="15" cy="1" r="1" fill="srgba(95.4711%,88.5145%,59.9451%,1)"/>
  <circle cx="0" cy="2" r="1" fill="white"/>
  <circle cx="1" cy="2" r="1" fill="white"/>
  <circle cx="2" cy="2" r="1" fill="white"/>
  <circle cx="3" cy="2" r="1" fill="white"/>
  <circle cx="4" cy="2" r="1" fill="white"/>
  <circle cx="5" cy="2" r="1" fill="srgba(98.8525%,99.3042%,99.5621%,1)"/>
  <circle cx="6" cy="2" r="1" fill="srgba(77.0291%,60.5966%,51.6793%,1)"/>
  <circle cx="7" cy="2" r="1" fill="srgba(65.6352%,41.5839%,16.1669%,1)"/>
  <circle cx="8" cy="2" r="1" fill="srgba(69.5094%,53.6675%,29.572%,1)"/>
  <circle cx="9" cy="2" r="1" fill="srgba(73.7438%,61.8845%,45.4627%,1)"/>
  <circle cx="10" cy="2" r="1" fill="srgba(81.1505%,72.546%,52.1157%,1)"/>
  <circle cx="11" cy="2" r="1" fill="srgba(86.1753%,73.9452%,35.2209%,1)"/>
  <circle cx="12" cy="2" r="1" fill="srgba(88.4962%,72.6864%,13.3547%,1)"/>
  <circle cx="13" cy="2" r="1" fill="srgba(91.7006%,73.4112%,1.0605%,1)"/>
  <circle cx="14" cy="2" r="1" fill="srgba(92.6543%,73.933%,0%,1)"/>
  <circle cx="15" cy="2" r="1" fill="srgba(92.5536%,73.8125%,0%,1)"/>
  <circle cx="0" cy="3" r="1" fill="white"/>
  <circle cx="1" cy="3" r="1" fill="white"/>
  <circle cx="2" cy="3" r="1" fill="white"/>
  <circle cx="3" cy="3" r="1" fill="white"/>
  <circle cx="4" cy="3" r="1" fill="white"/>
  <circle cx="5" cy="3" r="1" fill="srgba(99.1684%,99.4064%,99.6414%,1)"/>
  <circle cx="6" cy="3" r="1" fill="srgba(72.3445%,62.6474%,41.9806%,1)"/>
  <circle cx="7" cy="3" r="1" fill="srgba(59.2691%,44.8356%,2.8336%,1)"/>
  <circle cx="8" cy="3" r="1" fill="srgba(65.5558%,54.2962%,9.29732%,1)"/>
  <circle cx="9" cy="3" r="1" fill="srgba(74.5785%,61.1444%,8.72511%,1)"/>
  <circle cx="10" cy="3" r="1" fill="srgba(79.3545%,66.9505%,24.6555%,1)"/>
  <circle cx="11" cy="3" r="1" fill="srgba(79.2874%,69.7978%,44.8219%,1)"/>
  <circle cx="12" cy="3" r="1" fill="srgba(81.7823%,72.4834%,49.6971%,1)"/>
  <circle cx="13" cy="3" r="1" fill="srgba(84.9989%,74.5464%,46.1051%,1)"/>
  <circle cx="14" cy="3" r="1" fill="srgba(84.7456%,73.8323%,42.5147%,1)"/>
  <circle cx="15" cy="3" r="1" fill="srgba(83.9902%,71.0521%,27.2709%,1)"/>
  <circle cx="0" cy="4" r="1" fill="white"/>
  <circle cx="1" cy="4" r="1" fill="srgba(98.1018%,96.5255%,96.4752%,1)"/>
  <circle cx="2" cy="4" r="1" fill="srgba(92.0348%,85.4231%,85.2079%,1)"/>
  <circle cx="3" cy="4" r="1" fill="srgba(85.304%,73.1029%,72.7092%,1)"/>
  <circle cx="4" cy="4" r="1" fill="srgba(80.1373%,63.6439%,63.1098%,1)"/>
  <circle cx="5" cy="4" r="1" fill="srgba(76.9146%,57.7356%,57.3068%,1)"/>
  <circle cx="6" cy="4" r="1" fill="srgba(70.3243%,49.1356%,35.3704%,1)"/>
  <circle cx="7" cy="4" r="1" fill="srgba(75.0637%,63.0228%,42.8779%,1)"/>
  <circle cx="8" cy="4" r="1" fill="srgba(82.562%,71.9448%,52.6986%,1)"/>
  <circle cx="9" cy="4" r="1" fill="srgba(87.8859%,75.967%,52.0226%,1)"/>
  <circle cx="10" cy="4" r="1" fill="srgba(93.7606%,80.7645%,53.1563%,1)"/>
  <circle cx="11" cy="4" r="1" fill="srgba(92.7642%,81.6266%,64.77%,1)"/>
  <circle cx="12" cy="4" r="1" fill="srgba(94.5098%,84.5304%,75.3002%,1)"/>
  <circle cx="13" cy="4" r="1" fill="srgba(95.8038%,85.7984%,76.8505%,1)"/>
  <circle cx="14" cy="4" r="1" fill="srgba(95.6481%,85.6733%,76.8048%,1)"/>
  <circle cx="15" cy="4" r="1" fill="srgba(95.1949%,85.0004%,74.5769%,1)"/>
  <circle cx="0" cy="5" r="1" fill="srgba(82.1012%,67.2389%,66.7597%,1)"/>
  <circle cx="1" cy="5" r="1" fill="srgba(67.8904%,41.2284%,40.3693%,1)"/>
  <circle cx="2" cy="5" r="1" fill="srgba(59.5041%,25.8778%,24.7929%,1)"/>
  <circle cx="3" cy="5" r="1" fill="srgba(56.5393%,20.4532%,19.2889%,1)"/>
  <circle cx="4" cy="5" r="1" fill="srgba(55.6497%,18.8235%,17.6349%,1)"/>
  <circle cx="5" cy="5" r="1" fill="srgba(54.8974%,17.6318%,16.5332%,1)"/>
  <circle cx="6" cy="5" r="1" fill="srgba(64.1337%,31.162%,28.7953%,1)"/>
  <circle cx="7" cy="5" r="1" fill="srgba(93.4859%,79.3744%,69.929%,1)"/>
  <circle cx="8" cy="5" r="1" fill="srgba(96.9696%,85.7404%,75.1141%,1)"/>
  <circle cx="9" cy="5" r="1" fill="srgba(96.5408%,85.1896%,74.8547%,1)"/>
  <circle cx="10" cy="5" r="1" fill="srgba(96.2066%,84.9165%,74.8028%,1)"/>
  <circle cx="11" cy="5" r="1" fill="srgba(96.2982%,84.8981%,74.1588%,1)"/>
  <circle cx="12" cy="5" r="1" fill="srgba(96.1929%,84.7456%,73.6858%,1)"/>
  <circle cx="13" cy="5" r="1" fill="srgba(96.1105%,84.6708%,73.6248%,1)"/>
  <circle cx="14" cy="5" r="1" fill="srgba(96.1135%,84.6723%,73.6263%,1)"/>
  <circle cx="15" cy="5" r="1" fill="srgba(96.141%,84.7074%,73.7087%,1)"/>
  <circle cx="0" cy="6" r="1" fill="srgba(56.3745%,20.1495%,18.9807%,1)"/>
  <circle cx="1" cy="6" r="1" fill="srgba(55.4574%,18.4695%,17.2763%,1)"/>
  <circle cx="2" cy="6" r="1" fill="srgba(55.8541%,19.1974%,18.0148%,1)"/>
  <circle cx="3" cy="6" r="1" fill="srgba(56.0433%,19.5453%,18.3673%,1)"/>
  <circle cx="4" cy="6" r="1" fill="srgba(56.0769%,19.6063%,18.4298%,1)"/>
  <circle cx="5" cy="6" r="1" fill="srgba(55.6008%,18.88%,17.8058%,1)"/>
  <circle cx="6" cy="6" r="1" fill="srgba(63.83%,31.6716%,28.7022%,1)"/>
  <circle cx="7" cy="6" r="1" fill="srgba(93.2357%,79.1318%,69.1371%,1)"/>
  <circle cx="8" cy="6" r="1" fill="srgba(96.4508%,85.3285%,74.2489%,1)"/>
  <circle cx="9" cy="6" r="1" fill="srgba(96.4157%,85.8991%,74.7616%,1)"/>
  <circle cx="10" cy="6" r="1" fill="srgba(96.408%,86.1799%,75.0088%,1)"/>
  <circle cx="11" cy="6" r="1" fill="srgba(96.3638%,86.1784%,75.0072%,1)"/>
  <circle cx="12" cy="6" r="1" fill="srgba(96.3195%,86.1494%,74.9828%,1)"/>
  <circle cx="13" cy="6" r="1" fill="srgba(96.2768%,86.1051%,74.9432%,1)"/>
  <circle cx="14" cy="6" r="1" fill="srgba(96.2371%,86.0517%,74.8974%,1)"/>
  <circle cx="15" cy="6" r="1" fill="srgba(96.202%,85.9983%,74.8516%,1)"/>
  <circle cx="0" cy="7" r="1" fill="srgba(56.0388%,19.5361%,18.3581%,1)"/>
  <circle cx="1" cy="7" r="1" fill="srgba(56.08%,19.6109%,18.4344%,1)"/>
  <circle cx="2" cy="7" r="1" fill="srgba(143,50,47,1)"/>
  <circle cx="3" cy="7" r="1" fill="srgba(143,50,47,1)"/>
  <circle cx="4" cy="7" r="1" fill="srgba(143,50,47,1)"/>
  <circle cx="5" cy="7" r="1" fill="srgba(55.584%,18.819%,17.8256%,1)"/>
  <circle cx="6" cy="7" r="1" fill="srgba(65.1118%,34.2901%,27.8019%,1)"/>
  <circle cx="7" cy="7" r="1" fill="srgba(92.0333%,78.6419%,67.8126%,1)"/>
  <circle cx="8" cy="7" r="1" fill="srgba(92.3262%,80.0702%,69.7581%,1)"/>
  <circle cx="9" cy="7" r="1" fill="srgba(89.0852%,63.3661%,55.1858%,1)"/>
  <circle cx="10" cy="7" r="1" fill="srgba(87.248%,54.9218%,47.8401%,1)"/>
  <circle cx="11" cy="7" r="1" fill="srgba(86.5614%,51.7418%,45.0736%,1)"/>
  <circle cx="12" cy="7" r="1" fill="srgba(86.0227%,49.3355%,42.9786%,1)"/>
  <circle cx="13" cy="7" r="1" fill="srgba(85.5863%,47.3808%,41.2787%,1)"/>
  <circle cx="14" cy="7" r="1" fill="srgba(85.333%,45.8396%,39.9374%,1)"/>
  <circle cx="15" cy="7" r="1" fill="srgba(85.1011%,44.5869%,38.8464%,1)"/>
  <circle cx="0" cy="8" r="1" fill="srgba(143,50,47,1)"/>
  <circle cx="1" cy="8" r="1" fill="srgba(143,50,47,1)"/>
  <circle cx="2" cy="8" r="1" fill="srgba(143,50,47,1)"/>
  <circle cx="3" cy="8" r="1" fill="srgba(143,50,47,1)"/>
  <circle cx="4" cy="8" r="1" fill="srgba(56.0784%,19.6094%,18.4329%,1)"/>
  <circle cx="5" cy="8" r="1" fill="srgba(55.5703%,18.8113%,17.8225%,1)"/>
  <circle cx="6" cy="8" r="1" fill="srgba(66.0578%,38.0026%,27.3365%,1)"/>
  <circle cx="7" cy="8" r="1" fill="srgba(92.8145%,80.5051%,68.7541%,1)"/>
  <circle cx="8" cy="8" r="1" fill="srgba(88.2353%,65.9831%,57.5387%,1)"/>
  <circle cx="9" cy="8" r="1" fill="srgba(78.7015%,6.59342%,5.76944%,1)"/>
  <circle cx="10" cy="8" r="1" fill="srgba(79.3545%,0%,0%,1)"/>
  <circle cx="11" cy="8" r="1" fill="srgba(79.3576%,0.0274662%,0.0259403%,1)"/>
  <circle cx="12" cy="8" r="1" fill="srgba(79.3927%,0%,0%,1)"/>
  <circle cx="13" cy="8" r="1" fill="srgba(79.4202%,0%,0%,1)"/>
  <circle cx="14" cy="8" r="1" fill="srgba(79.4583%,0%,0%,1)"/>
  <circle cx="15" cy="8" r="1" fill="srgba(79.4797%,0%,0%,1)"/>
  <circle cx="0" cy="9" r="1" fill="srgba(143,50,47,1)"/>
  <circle cx="1" cy="9" r="1" fill="srgba(143,50,47,1)"/>
  <circle cx="2" cy="9" r="1" fill="srgba(143,50,47,1)"/>
  <circle cx="3" cy="9" r="1" fill="srgba(143,50,47,1)"/>
  <circle cx="4" cy="9" r="1" fill="srgba(56.0723%,19.5956%,18.4161%,1)"/>
  <circle cx="5" cy="9" r="1" fill="srgba(55.7488%,19.4003%,18.4451%,1)"/>
  <circle cx="6" cy="9" r="1" fill="srgba(64.7639%,42.1622%,32.4605%,1)"/>
  <circle cx="7" cy="9" r="1" fill="srgba(89.9413%,77.9095%,66.6804%,1)"/>
  <circle cx="8" cy="9" r="1" fill="srgba(89.4759%,73.3364%,63.9353%,1)"/>
  <circle cx="9" cy="9" r="1" fill="srgba(82.62%,31.9326%,27.8355%,1)"/>
  <circle cx="10" cy="9" r="1" fill="srgba(79.35%,2.63218%,2.30259%,1)"/>
  <circle cx="11" cy="9" r="1" fill="srgba(79.9786%,0%,0%,1)"/>
  <circle cx="12" cy="9" r="1" fill="srgba(80.0244%,0%,0%,1)"/>
  <circle cx="13" cy="9" r="1" fill="srgba(80.0092%,0%,0%,1)"/>
  <circle cx="14" cy="9" r="1" fill="srgba(80.0061%,0%,0%,1)"/>
  <circle cx="15" cy="9" r="1" fill="srgba(80.0031%,0%,0%,1)"/>
  <circle cx="0" cy="10" r="1" fill="srgba(143,50,47,1)"/>
  <circle cx="1" cy="10" r="1" fill="srgba(143,50,47,1)"/>
  <circle cx="2" cy="10" r="1" fill="srgba(143,50,47,1)"/>
  <circle cx="3" cy="10" r="1" fill="srgba(143,50,47,1)"/>
  <circle cx="4" cy="10" r="1" fill="srgba(56.0143%,19.4217%,18.2712%,1)"/>
  <circle cx="5" cy="10" r="1" fill="srgba(56.5805%,22.1408%,20.6607%,1)"/>
  <circle cx="6" cy="10" r="1" fill="srgba(69.1234%,49.3828%,35.1553%,1)"/>
  <circle cx="7" cy="10" r="1" fill="srgba(91.0323%,77.8042%,66.1219%,1)"/>
  <circle cx="8" cy="10" r="1" fill="srgba(89.6147%,79.5346%,69.3599%,1)"/>
  <circle cx="9" cy="10" r="1" fill="srgba(94.6624%,82.1744%,71.5328%,1)"/>
  <circle cx="10" cy="10" r="1" fill="srgba(86.3096%,51.5862%,44.9424%,1)"/>
  <circle cx="11" cy="10" r="1" fill="srgba(79.7421%,11.043%,9.6376%,1)"/>
  <circle cx="12" cy="10" r="1" fill="srgba(79.6933%,0%,0%,1)"/>
  <circle cx="13" cy="10" r="1" fill="srgba(80.032%,0%,0%,1)"/>
  <circle cx="14" cy="10" r="1" fill="srgba(204,0,0,1)"/>
  <circle cx="15" cy="10" r="1" fill="srgba(204,0,0,1)"/>
  <circle cx="0" cy="11" r="1" fill="srgba(143,50,47,1)"/>
  <circle cx="1" cy="11" r="1" fill="srgba(143,50,47,1)"/>
  <circle cx="2" cy="11" r="1" fill="srgba(143,50,47,1)"/>
  <circle cx="3" cy="11" r="1" fill="srgba(56.083%,19.617%,18.4405%,1)"/>
  <circle cx="4" cy="11" r="1" fill="srgba(55.7397%,18.8098%,17.9431%,1)"/>
  <circle cx="5" cy="11" r="1" fill="srgba(61.2894%,32.5582%,26.7201%,1)"/>
  <circle cx="6" cy="11" r="1" fill="srgba(78.6603%,61.3535%,42.1302%,1)"/>
  <circle cx="7" cy="11" r="1" fill="srgba(92.9183%,78.7839%,67.5837%,1)"/>
  <circle cx="8" cy="11" r="1" fill="srgba(89.3568%,78.8785%,68.7694%,1)"/>
  <circle cx="9" cy="11" r="1" fill="srgba(93.9239%,82.945%,72.2148%,1)"/>
  <circle cx="10" cy="11" r="1" fill="srgba(96.1822%,85.6367%,74.5373%,1)"/>
  <circle cx="11" cy="11" r="1" fill="srgba(90.5623%,69.0547%,60.1343%,1)"/>
  <circle cx="12" cy="11" r="1" fill="srgba(81.6388%,26.3935%,23.0137%,1)"/>
  <circle cx="13" cy="11" r="1" fill="srgba(79.3561%,1.48165%,1.29854%,1)"/>
  <circle cx="14" cy="11" r="1" fill="srgba(79.9954%,0%,0%,1)"/>
  <circle cx="15" cy="11" r="1" fill="srgba(80.0076%,0%,0%,1)"/>
  <circle cx="0" cy="12" r="1" fill="srgba(55.6054%,18.7411%,17.5525%,1)"/>
  <circle cx="1" cy="12" r="1" fill="srgba(56.0143%,19.4903%,18.3124%,1)"/>
  <circle cx="2" cy="12" r="1" fill="srgba(56.0845%,19.6185%,18.4421%,1)"/>
  <circle cx="3" cy="12" r="1" fill="srgba(55.8328%,19.1577%,17.9721%,1)"/>
  <circle cx="4" cy="12" r="1" fill="srgba(57.1664%,21.5564%,20.7095%,1)"/>
  <circle cx="5" cy="12" r="1" fill="srgba(76.2707%,60.5325%,49.9107%,1)"/>
  <circle cx="6" cy="12" r="1" fill="srgba(86.0594%,71.812%,57.2763%,1)"/>
  <circle cx="7" cy="12" r="1" fill="srgba(93.0526%,78.677%,67.4754%,1)"/>
  <circle cx="8" cy="12" r="1" fill="srgba(91.8425%,81.1093%,70.6798%,1)"/>
  <circle cx="9" cy="12" r="1" fill="srgba(91.4427%,80.5676%,70.1701%,1)"/>
  <circle cx="10" cy="12" r="1" fill="srgba(95.4803%,84.1749%,73.2692%,1)"/>
  <circle cx="11" cy="12" r="1" fill="srgba(96.408%,85.7389%,74.6227%,1)"/>
  <circle cx="12" cy="12" r="1" fill="srgba(93.9483%,80.2701%,69.8802%,1)"/>
  <circle cx="13" cy="12" r="1" fill="srgba(85.1469%,46.0746%,40.145%,1)"/>
  <circle cx="14" cy="12" r="1" fill="srgba(79.5102%,7.95605%,6.94743%,1)"/>
  <circle cx="15" cy="12" r="1" fill="srgba(79.7498%,0%,0%,1)"/>
  <circle cx="0" cy="13" r="1" fill="srgba(65.066%,36.0601%,35.1232%,1)"/>
  <circle cx="1" cy="13" r="1" fill="srgba(56.8856%,21.0834%,19.9298%,1)"/>
  <circle cx="2" cy="13" r="1" fill="srgba(55.5627%,18.6633%,17.4731%,1)"/>
  <circle cx="3" cy="13" r="1" fill="srgba(57.7829%,22.7085%,21.6403%,1)"/>
  <circle cx="4" cy="13" r="1" fill="srgba(75.3567%,55.2499%,53.0709%,1)"/>
  <circle cx="5" cy="13" r="1" fill="srgba(92.192%,88.2017%,75.9731%,1)"/>
  <circle cx="6" cy="13" r="1" fill="srgba(88.7694%,74.081%,63.8529%,1)"/>
  <circle cx="7" cy="13" r="1" fill="srgba(93.4508%,78.5657%,67.2221%,1)"/>
  <circle cx="8" cy="13" r="1" fill="srgba(93.135%,82.2873%,71.6854%,1)"/>
  <circle cx="9" cy="13" r="1" fill="srgba(92.3888%,81.4145%,70.8965%,1)"/>
  <circle cx="10" cy="13" r="1" fill="srgba(92.8115%,81.7914%,71.22%,1)"/>
  <circle cx="11" cy="13" r="1" fill="srgba(96.1578%,84.7669%,73.7774%,1)"/>
  <circle cx="12" cy="13" r="1" fill="srgba(96.2448%,85.1118%,74.078%,1)"/>
  <circle cx="13" cy="13" r="1" fill="srgba(95.7946%,85.0355%,74.0169%,1)"/>
  <circle cx="14" cy="13" r="1" fill="srgba(89.3477%,64.2603%,55.964%,1)"/>
  <circle cx="15" cy="13" r="1" fill="srgba(81.2055%,24.271%,21.1658%,1)"/>
  <circle cx="0" cy="14" r="1" fill="srgba(96.0693%,92.8054%,92.7001%,1)"/>
  <circle cx="1" cy="14" r="1" fill="srgba(85.687%,73.8003%,73.4173%,1)"/>
  <circle cx="2" cy="14" r="1" fill="srgba(80.4456%,64.2084%,63.6866%,1)"/>
  <circle cx="3" cy="14" r="1" fill="srgba(88.1071%,78.1628%,78.2193%,1)"/>
  <circle cx="4" cy="14" r="1" fill="srgba(95.2667%,92.5978%,86.1509%,1)"/>
  <circle cx="5" cy="14" r="1" fill="srgba(95.3475%,93.4325%,84.2603%,1)"/>
  <circle cx="6" cy="14" r="1" fill="srgba(89.3645%,74.313%,65.7084%,1)"/>
  <circle cx="7" cy="14" r="1" fill="srgba(93.4844%,78.4054%,67.155%,1)"/>
  <circle cx="8" cy="14" r="1" fill="srgba(94.6578%,83.6576%,72.8573%,1)"/>
  <circle cx="9" cy="14" r="1" fill="srgba(92.7077%,81.6983%,71.1421%,1)"/>
  <circle cx="10" cy="14" r="1" fill="srgba(92.462%,81.4786%,70.9529%,1)"/>
  <circle cx="11" cy="14" r="1" fill="srgba(94.5785%,83.3677%,72.5765%,1)"/>
  <circle cx="12" cy="14" r="1" fill="srgba(96.1639%,84.7791%,73.7896%,1)"/>
  <circle cx="13" cy="14" r="1" fill="srgba(96.1166%,84.7654%,73.7758%,1)"/>
  <circle cx="14" cy="14" r="1" fill="srgba(96.2783%,85.5863%,74.4915%,1)"/>
  <circle cx="15" cy="14" r="1" fill="srgba(93.8811%,80.1068%,69.7398%,1)"/>
  <circle cx="0" cy="15" r="1" fill="white"/>
  <circle cx="1" cy="15" r="1" fill="white"/>
  <circle cx="2" cy="15" r="1" fill="white"/>
  <circle cx="3" cy="15" r="1" fill="white"/>
  <circle cx="4" cy="15" r="1" fill="srgba(92.2438%,89.7154%,79.6002%,1)"/>
  <circle cx="5" cy="15" r="1" fill="srgba(90.8248%,89.424%,82.9068%,1)"/>
  <circle cx="6" cy="15" r="1" fill="srgba(87.1046%,71.6228%,62.4262%,1)"/>
  <circle cx="7" cy="15" r="1" fill="srgba(93.4813%,78.3627%,67.2389%,1)"/>
  <circle cx="8" cy="15" r="1" fill="srgba(95.9915%,84.8508%,73.8796%,1)"/>
  <circle cx="9" cy="15" r="1" fill="srgba(92.0882%,81.146%,70.6691%,1)"/>
  <circle cx="10" cy="15" r="1" fill="srgba(94.3709%,83.183%,72.4163%,1)"/>
  <circle cx="11" cy="15" r="1" fill="srgba(92.1248%,81.178%,70.695%,1)"/>
  <circle cx="12" cy="15" r="1" fill="srgba(96.022%,84.6555%,73.6828%,1)"/>
  <circle cx="13" cy="15" r="1" fill="srgba(96.08%,84.7074%,73.727%,1)"/>
  <circle cx="14" cy="15" r="1" fill="srgba(96.0784%,84.7013%,73.7224%,1)"/>
  <circle cx="15" cy="15" r="1" fill="srgba(96.2341%,85.0645%,74.0368%,1)"/>
</svg>
