<?xml version="1.0" standalone="no"?>
<!DOCTYPE svg PUBLIC "-//W3C//DTD SVG 20010904//EN"
  "http://www.w3.org/TR/2001/REC-SVG-20010904/DTD/svg10.dtd">
<svg width="16" height="16">
  <circle cx="0" cy="0" r="1" fill="white"/>
  <circle cx="1" cy="0" r="1" fill="srgba(97.7417%,98.6358%,99.4141%,1)"/>
  <circle cx="2" cy="0" r="1" fill="srgba(46.4652%,67.6417%,86.1265%,1)"/>
  <circle cx="3" cy="0" r="1" fill="srgba(1.38247%,39.9191%,74.2504%,1)"/>
  <circle cx="4" cy="0" r="1" fill="srgba(0%,39.4171%,74.0368%,1)"/>
  <circle cx="5" cy="0" r="1" fill="srgba(0%,39.6139%,74.1207%,1)"/>
  <circle cx="6" cy="0" r="1" fill="srgba(0,101,189,1)"/>
  <circle cx="7" cy="0" r="1" fill="srgba(0,101,189,1)"/>
  <circle cx="8" cy="0" r="1" fill="srgba(0,101,189,1)"/>
  <circle cx="9" cy="0" r="1" fill="srgba(0,101,189,1)"/>
  <circle cx="10" cy="0" r="1" fill="srgba(0%,39.6139%,74.1207%,1)"/>
  <circle cx="11" cy="0" r="1" fill="srgba(0%,39.4171%,74.0368%,1)"/>
  <circle cx="12" cy="0" r="1" fill="srgba(1.38247%,39.9191%,74.2504%,1)"/>
  <circle cx="13" cy="0" r="1" fill="srgba(46.4652%,67.6417%,86.1265%,1)"/>
  <circle cx="14" cy="0" r="1" fill="srgba(97.7417%,98.6374%,99.4141%,1)"/>
  <circle cx="15" cy="0" r="1" fill="white"/>
  <circle cx="0" cy="1" r="1" fill="srgba(97.0031%,98.1903%,99.2248%,1)"/>
  <circle cx="1" cy="1" r="1" fill="white"/>
  <circle cx="2" cy="1" r="1" fill="srgba(93.8735%,96.3012%,98.4131%,1)"/>
  <circle cx="3" cy="1" r="1" fill="srgba(40.7691%,64.2054%,84.6555%,1)"/>
  <circle cx="4" cy="1" r="1" fill="srgba(1.18868%,39.8688%,74.229%,1)"/>
  <circle cx="5" cy="1" r="1" fill="srgba(0%,39.4415%,74.0459%,1)"/>
  <circle cx="6" cy="1" r="1" fill="srgba(0%,39.6124%,74.1192%,1)"/>
  <circle cx="7" cy="1" r="1" fill="srgba(0,101,189,1)"/>
  <circle cx="8" cy="1" r="1" fill="srgba(0,101,189,1)"/>
  <circle cx="9" cy="1" r="1" fill="srgba(0%,39.6124%,74.1192%,1)"/>
  <circle cx="10" cy="1" r="1" fill="srgba(0%,39.4415%,74.0459%,1)"/>
  <circle cx="11" cy="1" r="1" fill="srgba(1.18868%,39.8688%,74.229%,1)"/>
  <circle cx="12" cy="1" r="1" fill="srgba(40.7691%,64.2054%,84.6555%,1)"/>
  <circle cx="13" cy="1" r="1" fill="srgba(93.8735%,96.3012%,98.4131%,1)"/>
  <circle cx="14" cy="1" r="1" fill="white"/>
  <circle cx="15" cy="1" r="1" fill="srgba(97.0031%,98.1903%,99.2248%,1)"/>
  <circle cx="0" cy="2" r="1" fill="srgba(46.2226%,67.5227%,86.0792%,1)"/>
  <circle cx="1" cy="2" r="1" fill="srgba(93.4432%,96.0403%,98.3032%,1)"/>
  <circle cx="2" cy="2" r="1" fill="white"/>
  <circle cx="3" cy="2" r="1" fill="srgba(94.2306%,96.5164%,98.5061%,1)"/>
  <circle cx="4" cy="2" r="1" fill="srgba(41.1063%,64.4083%,84.7425%,1)"/>
  <circle cx="5" cy="2" r="1" fill="srgba(1.19936%,39.8718%,74.2306%,1)"/>
  <circle cx="6" cy="2" r="1" fill="srgba(0%,39.44%,74.0459%,1)"/>
  <circle cx="7" cy="2" r="1" fill="srgba(0%,39.6124%,74.1192%,1)"/>
  <circle cx="8" cy="2" r="1" fill="srgba(0%,39.6124%,74.1192%,1)"/>
  <circle cx="9" cy="2" r="1" fill="srgba(0%,39.44%,74.0459%,1)"/>
  <circle cx="10" cy="2" r="1" fill="srgba(1.19936%,39.8718%,74.2306%,1)"/>
  <circle cx="11" cy="2" r="1" fill="srgba(41.1063%,64.4083%,84.7425%,1)"/>
  <circle cx="12" cy="2" r="1" fill="srgba(94.2306%,96.5164%,98.5061%,1)"/>
  <circle cx="13" cy="2" r="1" fill="white"/>
  <circle cx="14" cy="2" r="1" fill="srgba(93.4432%,96.0403%,98.3032%,1)"/>
  <circle cx="15" cy="2" r="1" fill="srgba(46.2226%,67.5227%,86.0792%,1)"/>
  <circle cx="0" cy="3" r="1" fill="srgba(1.32601%,39.8962%,74.2412%,1)"/>
  <circle cx="1" cy="3" r="1" fill="srgba(40.5875%,64.094%,84.6113%,1)"/>
  <circle cx="2" cy="3" r="1" fill="srgba(94.1558%,96.4721%,98.4878%,1)"/>
  <circle cx="3" cy="3" r="1" fill="white"/>
  <circle cx="4" cy="3" r="1" fill="srgba(94.2336%,96.5179%,98.5061%,1)"/>
  <circle cx="5" cy="3" r="1" fill="srgba(41.1063%,64.4083%,84.7425%,1)"/>
  <circle cx="6" cy="3" r="1" fill="srgba(1.19936%,39.8718%,74.2306%,1)"/>
  <circle cx="7" cy="3" r="1" fill="srgba(0%,39.4446%,74.0475%,1)"/>
  <circle cx="8" cy="3" r="1" fill="srgba(0%,39.4446%,74.0475%,1)"/>
  <circle cx="9" cy="3" r="1" fill="srgba(1.19936%,39.8718%,74.2306%,1)"/>
  <circle cx="10" cy="3" r="1" fill="srgba(41.1063%,64.4083%,84.7425%,1)"/>
  <circle cx="11" cy="3" r="1" fill="srgba(94.2336%,96.5179%,98.5061%,1)"/>
  <circle cx="12" cy="3" r="1" fill="white"/>
  <circle cx="13" cy="3" r="1" fill="srgba(94.1558%,96.4721%,98.4878%,1)"/>
  <circle cx="14" cy="3" r="1" fill="srgba(40.5875%,64.094%,84.6113%,1)"/>
  <circle cx="15" cy="3" r="1" fill="srgba(1.32601%,39.8962%,74.2412%,1)"/>
  <circle cx="0" cy="4" r="1" fill="srgba(0%,39.4202%,74.0368%,1)"/>
  <circle cx="1" cy="4" r="1" fill="srgba(1.15816%,39.8489%,74.2214%,1)"/>
  <circle cx="2" cy="4" r="1" fill="srgba(40.9033%,64.2863%,84.6937%,1)"/>
  <circle cx="3" cy="4" r="1" fill="srgba(94.1558%,96.4721%,98.4878%,1)"/>
  <circle cx="4" cy="4" r="1" fill="white"/>
  <circle cx="5" cy="4" r="1" fill="srgba(94.2336%,96.5179%,98.5061%,1)"/>
  <circle cx="6" cy="4" r="1" fill="srgba(41.1063%,64.4129%,84.744%,1)"/>
  <circle cx="7" cy="4" r="1" fill="srgba(1.07424%,39.7284%,74.168%,1)"/>
  <circle cx="8" cy="4" r="1" fill="srgba(1.07424%,39.7284%,74.168%,1)"/>
  <circle cx="9" cy="4" r="1" fill="srgba(41.1063%,64.4129%,84.744%,1)"/>
  <circle cx="10" cy="4" r="1" fill="srgba(94.2336%,96.5179%,98.5061%,1)"/>
  <circle cx="11" cy="4" r="1" fill="white"/>
  <circle cx="12" cy="4" r="1" fill="srgba(94.1558%,96.4721%,98.4878%,1)"/>
  <circle cx="13" cy="4" r="1" fill="srgba(40.9033%,64.2863%,84.6937%,1)"/>
  <circle cx="14" cy="4" r="1" fill="srgba(1.15816%,39.8489%,74.2214%,1)"/>
  <circle cx="15" cy="4" r="1" fill="srgba(0%,39.4202%,74.0368%,1)"/>
  <circle cx="0" cy="5" r="1" fill="srgba(0%,39.6124%,74.1192%,1)"/>
  <circle cx="1" cy="5" r="1" fill="srgba(0%,39.4446%,74.0475%,1)"/>
  <circle cx="2" cy="5" r="1" fill="srgba(1.16579%,39.852%,74.2214%,1)"/>
  <circle cx="3" cy="5" r="1" fill="srgba(40.9049%,64.2863%,84.6937%,1)"/>
  <circle cx="4" cy="5" r="1" fill="srgba(94.1573%,96.4721%,98.4878%,1)"/>
  <circle cx="5" cy="5" r="1" fill="white"/>
  <circle cx="6" cy="5" r="1" fill="srgba(94.1466%,96.4645%,98.4833%,1)"/>
  <circle cx="7" cy="5" r="1" fill="srgba(41.6846%,64.7822%,84.9012%,1)"/>
  <circle cx="8" cy="5" r="1" fill="srgba(41.6846%,64.7822%,84.9012%,1)"/>
  <circle cx="9" cy="5" r="1" fill="srgba(94.1466%,96.4645%,98.4833%,1)"/>
  <circle cx="10" cy="5" r="1" fill="white"/>
  <circle cx="11" cy="5" r="1" fill="srgba(94.1573%,96.4721%,98.4878%,1)"/>
  <circle cx="12" cy="5" r="1" fill="srgba(40.9049%,64.2863%,84.6937%,1)"/>
  <circle cx="13" cy="5" r="1" fill="srgba(1.16579%,39.852%,74.2214%,1)"/>
  <circle cx="14" cy="5" r="1" fill="srgba(0%,39.4446%,74.0475%,1)"/>
  <circle cx="15" cy="5" r="1" fill="srgba(0%,39.6124%,74.1192%,1)"/>
  <circle cx="0" cy="6" r="1" fill="srgba(0,101,189,1)"/>
  <circle cx="1" cy="6" r="1" fill="srgba(0%,39.6124%,74.1192%,1)"/>
  <circle cx="2" cy="6" r="1" fill="srgba(0%,39.443%,74.0475%,1)"/>
  <circle cx="3" cy="6" r="1" fill="srgba(1.16732%,39.852%,74.2214%,1)"/>
  <circle cx="4" cy="6" r="1" fill="srgba(40.9064%,64.2878%,84.6937%,1)"/>
  <circle cx="5" cy="6" r="1" fill="srgba(94.1558%,96.4721%,98.4878%,1)"/>
  <circle cx="6" cy="6" r="1" fill="white"/>
  <circle cx="7" cy="6" r="1" fill="srgba(95.9304%,97.5418%,98.9456%,1)"/>
  <circle cx="8" cy="6" r="1" fill="srgba(95.9304%,97.5418%,98.9456%,1)"/>
  <circle cx="9" cy="6" r="1" fill="white"/>
  <circle cx="10" cy="6" r="1" fill="srgba(94.1558%,96.4721%,98.4878%,1)"/>
  <circle cx="11" cy="6" r="1" fill="srgba(40.9064%,64.2878%,84.6937%,1)"/>
  <circle cx="12" cy="6" r="1" fill="srgba(1.16732%,39.852%,74.2214%,1)"/>
  <circle cx="13" cy="6" r="1" fill="srgba(0%,39.443%,74.0475%,1)"/>
  <circle cx="14" cy="6" r="1" fill="srgba(0%,39.6124%,74.1192%,1)"/>
  <circle cx="15" cy="6" r="1" fill="srgba(0,101,189,1)"/>
  <circle cx="0" cy="7" r="1" fill="srgba(0,101,189,1)"/>
  <circle cx="1" cy="7" r="1" fill="srgba(0,101,189,1)"/>
  <circle cx="2" cy="7" r="1" fill="srgba(0%,39.6124%,74.1192%,1)"/>
  <circle cx="3" cy="7" r="1" fill="srgba(0%,39.4476%,74.049%,1)"/>
  <circle cx="4" cy="7" r="1" fill="srgba(0.929274%,39.707%,74.1604%,1)"/>
  <circle cx="5" cy="7" r="1" fill="srgba(41.5122%,64.654%,84.8493%,1)"/>
  <circle cx="6" cy="7" r="1" fill="srgba(96.4782%,97.8744%,99.0875%,1)"/>
  <circle cx="7" cy="7" r="1" fill="white"/>
  <circle cx="8" cy="7" r="1" fill="white"/>
  <circle cx="9" cy="7" r="1" fill="srgba(96.4782%,97.8744%,99.0875%,1)"/>
  <circle cx="10" cy="7" r="1" fill="srgba(41.5122%,64.654%,84.8493%,1)"/>
  <circle cx="11" cy="7" r="1" fill="srgba(0.929274%,39.707%,74.1604%,1)"/>
  <circle cx="12" cy="7" r="1" fill="srgba(0%,39.4476%,74.049%,1)"/>
  <circle cx="13" cy="7" r="1" fill="srgba(0%,39.6124%,74.1192%,1)"/>
  <circle cx="14" cy="7" r="1" fill="srgba(0,101,189,1)"/>
  <circle cx="15" cy="7" r="1" fill="srgba(0,101,189,1)"/>
  <circle cx="0" cy="8" r="1" fill="srgba(0,101,189,1)"/>
  <circle cx="1" cy="8" r="1" fill="srgba(0,101,189,1)"/>
  <circle cx="2" cy="8" r="1" fill="srgba(0%,39.6124%,74.1192%,1)"/>
  <circle cx="3" cy="8" r="1" fill="srgba(0%,39.4446%,74.0475%,1)"/>
  <circle cx="4" cy="8" r="1" fill="srgba(0.965896%,39.7299%,74.1695%,1)"/>
  <circle cx="5" cy="8" r="1" fill="srgba(41.6861%,64.7593%,84.892%,1)"/>
  <circle cx="6" cy="8" r="1" fill="srgba(96.5042%,97.8897%,99.0951%,1)"/>
  <circle cx="7" cy="8" r="1" fill="white"/>
  <circle cx="8" cy="8" r="1" fill="white"/>
  <circle cx="9" cy="8" r="1" fill="srgba(96.5042%,97.8897%,99.0936%,1)"/>
  <circle cx="10" cy="8" r="1" fill="srgba(41.6861%,64.7578%,84.892%,1)"/>
  <circle cx="11" cy="8" r="1" fill="srgba(0.965896%,39.7299%,74.1695%,1)"/>
  <circle cx="12" cy="8" r="1" fill="srgba(0%,39.4446%,74.0475%,1)"/>
  <circle cx="13" cy="8" r="1" fill="srgba(0%,39.6124%,74.1192%,1)"/>
  <circle cx="14" cy="8" r="1" fill="srgba(0,101,189,1)"/>
  <circle cx="15" cy="8" r="1" fill="srgba(0,101,189,1)"/>
  <circle cx="0" cy="9" r="1" fill="srgba(0,101,189,1)"/>
  <circle cx="1" cy="9" r="1" fill="srgba(0%,39.6124%,74.1192%,1)"/>
  <circle cx="2" cy="9" r="1" fill="srgba(0%,39.44%,74.0459%,1)"/>
  <circle cx="3" cy="9" r="1" fill="srgba(1.19783%,39.8703%,74.229%,1)"/>
  <circle cx="4" cy="9" r="1" fill="srgba(41.1032%,64.4068%,84.741%,1)"/>
  <circle cx="5" cy="9" r="1" fill="srgba(94.2336%,96.5179%,98.5061%,1)"/>
  <circle cx="6" cy="9" r="1" fill="white"/>
  <circle cx="7" cy="9" r="1" fill="srgba(95.8679%,97.5036%,98.9303%,1)"/>
  <circle cx="8" cy="9" r="1" fill="srgba(95.8679%,97.5036%,98.9303%,1)"/>
  <circle cx="9" cy="9" r="1" fill="white"/>
  <circle cx="10" cy="9" r="1" fill="srgba(94.2336%,96.5179%,98.5061%,1)"/>
  <circle cx="11" cy="9" r="1" fill="srgba(41.1032%,64.4068%,84.741%,1)"/>
  <circle cx="12" cy="9" r="1" fill="srgba(1.19783%,39.8703%,74.229%,1)"/>
  <circle cx="13" cy="9" r="1" fill="srgba(0%,39.44%,74.0459%,1)"/>
  <circle cx="14" cy="9" r="1" fill="srgba(0%,39.6124%,74.1192%,1)"/>
  <circle cx="15" cy="9" r="1" fill="srgba(0,101,189,1)"/>
  <circle cx="0" cy="10" r="1" fill="srgba(0%,39.6139%,74.1207%,1)"/>
  <circle cx="1" cy="10" r="1" fill="srgba(0%,39.4415%,74.0459%,1)"/>
  <circle cx="2" cy="10" r="1" fill="srgba(1.19936%,39.8718%,74.2306%,1)"/>
  <circle cx="3" cy="10" r="1" fill="srgba(41.1063%,64.4083%,84.7425%,1)"/>
  <circle cx="4" cy="10" r="1" fill="srgba(94.2306%,96.5164%,98.5061%,1)"/>
  <circle cx="5" cy="10" r="1" fill="white"/>
  <circle cx="6" cy="10" r="1" fill="srgba(94.0703%,96.4187%,98.4649%,1)"/>
  <circle cx="7" cy="10" r="1" fill="srgba(41.4694%,64.6525%,84.8493%,1)"/>
  <circle cx="8" cy="10" r="1" fill="srgba(41.4694%,64.6525%,84.8493%,1)"/>
  <circle cx="9" cy="10" r="1" fill="srgba(94.0703%,96.4187%,98.4649%,1)"/>
  <circle cx="10" cy="10" r="1" fill="white"/>
  <circle cx="11" cy="10" r="1" fill="srgba(94.2306%,96.5164%,98.5061%,1)"/>
  <circle cx="12" cy="10" r="1" fill="srgba(41.1063%,64.4083%,84.7425%,1)"/>
  <circle cx="13" cy="10" r="1" fill="srgba(1.19936%,39.8718%,74.2306%,1)"/>
  <circle cx="14" cy="10" r="1" fill="srgba(0%,39.4415%,74.0459%,1)"/>
  <circle cx="15" cy="10" r="1" fill="srgba(0%,39.6139%,74.1207%,1)"/>
  <circle cx="0" cy="11" r="1" fill="srgba(0%,39.4171%,74.0368%,1)"/>
  <circle cx="1" cy="11" r="1" fill="srgba(1.1902%,39.8688%,74.229%,1)"/>
  <circle cx="2" cy="11" r="1" fill="srgba(41.1063%,64.4083%,84.7425%,1)"/>
  <circle cx="3" cy="11" r="1" fill="srgba(94.2336%,96.5179%,98.5061%,1)"/>
  <circle cx="4" cy="11" r="1" fill="white"/>
  <circle cx="5" cy="11" r="1" fill="srgba(94.1558%,96.4721%,98.4878%,1)"/>
  <circle cx="6" cy="11" r="1" fill="srgba(40.9033%,64.2893%,84.6952%,1)"/>
  <circle cx="7" cy="11" r="1" fill="srgba(1.04372%,39.7101%,74.1604%,1)"/>
  <circle cx="8" cy="11" r="1" fill="srgba(1.04372%,39.7101%,74.1604%,1)"/>
  <circle cx="9" cy="11" r="1" fill="srgba(40.9033%,64.2893%,84.6952%,1)"/>
  <circle cx="10" cy="11" r="1" fill="srgba(94.1558%,96.4721%,98.4878%,1)"/>
  <circle cx="11" cy="11" r="1" fill="white"/>
  <circle cx="12" cy="11" r="1" fill="srgba(94.2336%,96.5179%,98.5061%,1)"/>
  <circle cx="13" cy="11" r="1" fill="srgba(41.1063%,64.4083%,84.7425%,1)"/>
  <circle cx="14" cy="11" r="1" fill="srgba(1.1902%,39.8688%,74.229%,1)"/>
  <circle cx="15" cy="11" r="1" fill="srgba(0%,39.4171%,74.0368%,1)"/>
  <circle cx="0" cy="12" r="1" fill="srgba(1.36263%,39.9191%,74.2504%,1)"/>
  <circle cx="1" cy="12" r="1" fill="srgba(40.7874%,64.2161%,84.6601%,1)"/>
  <circle cx="2" cy="12" r="1" fill="srgba(94.2336%,96.5179%,98.5061%,1)"/>
  <circle cx="3" cy="12" r="1" fill="white"/>
  <circle cx="4" cy="12" r="1" fill="srgba(94.1558%,96.4721%,98.4878%,1)"/>
  <circle cx="5" cy="12" r="1" fill="srgba(40.9033%,64.2863%,84.6937%,1)"/>
  <circle cx="6" cy="12" r="1" fill="srgba(1.16579%,39.852%,74.2214%,1)"/>
  <circle cx="7" cy="12" r="1" fill="srgba(0%,39.4476%,74.049%,1)"/>
  <circle cx="8" cy="12" r="1" fill="srgba(0%,39.4476%,74.049%,1)"/>
  <circle cx="9" cy="12" r="1" fill="srgba(1.16579%,39.852%,74.2214%,1)"/>
  <circle cx="10" cy="12" r="1" fill="srgba(40.9033%,64.2863%,84.6937%,1)"/>
  <circle cx="11" cy="12" r="1" fill="srgba(94.1558%,96.4721%,98.4878%,1)"/>
  <circle cx="12" cy="12" r="1" fill="white"/>
  <circle cx="13" cy="12" r="1" fill="srgba(94.2336%,96.5179%,98.5061%,1)"/>
  <circle cx="14" cy="12" r="1" fill="srgba(40.7874%,64.2161%,84.6601%,1)"/>
  <circle cx="15" cy="12" r="1" fill="srgba(1.36263%,39.9191%,74.2504%,1)"/>
  <circle cx="0" cy="13" r="1" fill="srgba(46.4439%,67.6555%,86.1326%,1)"/>
  <circle cx="1" cy="13" r="1" fill="srgba(93.5195%,96.0861%,98.3215%,1)"/>
  <circle cx="2" cy="13" r="1" fill="white"/>
  <circle cx="3" cy="13" r="1" fill="srgba(94.1573%,96.4721%,98.4878%,1)"/>
  <circle cx="4" cy="13" r="1" fill="srgba(40.9049%,64.2863%,84.6937%,1)"/>
  <circle cx="5" cy="13" r="1" fill="srgba(1.16579%,39.852%,74.2214%,1)"/>
  <circle cx="6" cy="13" r="1" fill="srgba(0%,39.443%,74.0475%,1)"/>
  <circle cx="7" cy="13" r="1" fill="srgba(0%,39.6124%,74.1192%,1)"/>
  <circle cx="8" cy="13" r="1" fill="srgba(0%,39.6124%,74.1192%,1)"/>
  <circle cx="9" cy="13" r="1" fill="srgba(0%,39.443%,74.0475%,1)"/>
  <circle cx="10" cy="13" r="1" fill="srgba(1.16579%,39.852%,74.2214%,1)"/>
  <circle cx="11" cy="13" r="1" fill="srgba(40.9049%,64.2863%,84.6937%,1)"/>
  <circle cx="12" cy="13" r="1" fill="srgba(94.1573%,96.4721%,98.4878%,1)"/>
  <circle cx="13" cy="13" r="1" fill="white"/>
  <circle cx="14" cy="13" r="1" fill="srgba(93.5195%,96.0861%,98.3215%,1)"/>
  <circle cx="15" cy="13" r="1" fill="srgba(46.4439%,67.6555%,86.1326%,1)"/>
  <circle cx="0" cy="14" r="1" fill="srgba(97.0535%,98.2193%,99.2355%,1)"/>
  <circle cx="1" cy="14" r="1" fill="white"/>
  <circle cx="2" cy="14" r="1" fill="srgba(93.7972%,96.2554%,98.3948%,1)"/>
  <circle cx="3" cy="14" r="1" fill="srgba(40.5798%,64.0909%,84.6098%,1)"/>
  <circle cx="4" cy="14" r="1" fill="srgba(1.15816%,39.8489%,74.2214%,1)"/>
  <circle cx="5" cy="14" r="1" fill="srgba(0%,39.4446%,74.0475%,1)"/>
  <circle cx="6" cy="14" r="1" fill="srgba(0%,39.6124%,74.1192%,1)"/>
  <circle cx="7" cy="14" r="1" fill="srgba(0,101,189,1)"/>
  <circle cx="8" cy="14" r="1" fill="srgba(0,101,189,1)"/>
  <circle cx="9" cy="14" r="1" fill="srgba(0%,39.6124%,74.1192%,1)"/>
  <circle cx="10" cy="14" r="1" fill="srgba(0%,39.4446%,74.0475%,1)"/>
  <circle cx="11" cy="14" r="1" fill="srgba(1.15816%,39.8489%,74.2214%,1)"/>
  <circle cx="12" cy="14" r="1" fill="srgba(40.5798%,64.0909%,84.6098%,1)"/>
  <circle cx="13" cy="14" r="1" fill="srgba(93.7987%,96.2554%,98.3948%,1)"/>
  <circle cx="14" cy="14" r="1" fill="white"/>
  <circle cx="15" cy="14" r="1" fill="srgba(97.0535%,98.2193%,99.2355%,1)"/>
  <circle cx="0" cy="15" r="1" fill="white"/>
  <circle cx="1" cy="15" r="1" fill="srgba(97.6913%,98.6069%,99.4018%,1)"/>
  <circle cx="2" cy="15" r="1" fill="srgba(46.2455%,67.509%,86.0746%,1)"/>
  <circle cx="3" cy="15" r="1" fill="srgba(1.34585%,39.8962%,74.2412%,1)"/>
  <circle cx="4" cy="15" r="1" fill="srgba(0%,39.4202%,74.0368%,1)"/>
  <circle cx="5" cy="15" r="1" fill="srgba(0%,39.6124%,74.1192%,1)"/>
  <circle cx="6" cy="15" r="1" fill="srgba(0,101,189,1)"/>
  <circle cx="7" cy="15" r="1" fill="srgba(0,101,189,1)"/>
  <circle cx="8" cy="15" r="1" fill="srgba(0,101,189,1)"/>
  <circle cx="9" cy="15" r="1" fill="srgba(0,101,189,1)"/>
  <circle cx="10" cy="15" r="1" fill="srgba(0%,39.6124%,74.1192%,1)"/>
  <circle cx="11" cy="15" r="1" fill="srgba(0%,39.4202%,74.0368%,1)"/>
  <circle cx="12" cy="15" r="1" fill="srgba(1.34585%,39.8962%,74.2412%,1)"/>
  <circle cx="13" cy="15" r="1" fill="srgba(46.2455%,67.509%,86.0746%,1)"/>
  <circle cx="14" cy="15" r="1" fill="srgba(97.6913%,98.6069%,99.4018%,1)"/>
  <circle cx="15" cy="15" r="1" fill="white"/>
</svg>
