<?xml version="1.0" standalone="no"?>
<!DOCTYPE svg PUBLIC "-//W3C//DTD SVG 20010904//EN"
  "http://www.w3.org/TR/2001/REC-SVG-20010904/DTD/svg10.dtd">
<svg width="16" height="16">
  <circle cx="0" cy="0" r="1" fill="white"/>
  <circle cx="1" cy="0" r="1" fill="white"/>
  <circle cx="2" cy="0" r="1" fill="white"/>
  <circle cx="3" cy="0" r="1" fill="white"/>
  <circle cx="4" cy="0" r="1" fill="white"/>
  <circle cx="5" cy="0" r="1" fill="white"/>
  <circle cx="6" cy="0" r="1" fill="white"/>
  <circle cx="7" cy="0" r="1" fill="white"/>
  <circle cx="8" cy="0" r="1" fill="white"/>
  <circle cx="9" cy="0" r="1" fill="white"/>
  <circle cx="10" cy="0" r="1" fill="white"/>
  <circle cx="11" cy="0" r="1" fill="white"/>
  <circle cx="12" cy="0" r="1" fill="white"/>
  <circle cx="13" cy="0" r="1" fill="white"/>
  <circle cx="14" cy="0" r="1" fill="white"/>
  <circle cx="15" cy="0" r="1" fill="white"/>
  <circle cx="0" cy="1" r="1" fill="white"/>
  <circle cx="1" cy="1" r="1" fill="white"/>
  <circle cx="2" cy="1" r="1" fill="white"/>
  <circle cx="3" cy="1" r="1" fill="white"/>
  <circle cx="4" cy="1" r="1" fill="white"/>
  <circle cx="5" cy="1" r="1" fill="white"/>
  <circle cx="6" cy="1" r="1" fill="white"/>
  <circle cx="7" cy="1" r="1" fill="white"/>
  <circle cx="8" cy="1" r="1" fill="white"/>
  <circle cx="9" cy="1" r="1" fill="white"/>
  <circle cx="10" cy="1" r="1" fill="white"/>
  <circle cx="11" cy="1" r="1" fill="white"/>
  <circle cx="12" cy="1" r="1" fill="white"/>
  <circle cx="13" cy="1" r="1" fill="white"/>
  <circle cx="14" cy="1" r="1" fill="white"/>
  <circle cx="15" cy="1" r="1" fill="white"/>
  <circle cx="0" cy="2" r="1" fill="white"/>
  <circle cx="1" cy="2" r="1" fill="white"/>
  <circle cx="2" cy="2" r="1" fill="white"/>
  <circle cx="3" cy="2" r="1" fill="white"/>
  <circle cx="4" cy="2" r="1" fill="white"/>
  <circle cx="5" cy="2" r="1" fill="white"/>
  <circle cx="6" cy="2" r="1" fill="white"/>
  <circle cx="7" cy="2" r="1" fill="white"/>
  <circle cx="8" cy="2" r="1" fill="white"/>
  <circle cx="9" cy="2" r="1" fill="white"/>
  <circle cx="10" cy="2" r="1" fill="white"/>
  <circle cx="11" cy="2" r="1" fill="white"/>
  <circle cx="12" cy="2" r="1" fill="white"/>
  <circle cx="13" cy="2" r="1" fill="white"/>
  <circle cx="14" cy="2" r="1" fill="white"/>
  <circle cx="15" cy="2" r="1" fill="white"/>
  <circle cx="0" cy="3" r="1" fill="white"/>
  <circle cx="1" cy="3" r="1" fill="white"/>
  <circle cx="2" cy="3" r="1" fill="white"/>
  <circle cx="3" cy="3" r="1" fill="srgba(99.9863%,99.9863%,99.9863%,1)"/>
  <circle cx="4" cy="3" r="1" fill="srgba(99.7696%,99.7742%,99.7726%,1)"/>
  <circle cx="5" cy="3" r="1" fill="srgba(99.9832%,99.9832%,99.9832%,1)"/>
  <circle cx="6" cy="3" r="1" fill="white"/>
  <circle cx="7" cy="3" r="1" fill="white"/>
  <circle cx="8" cy="3" r="1" fill="white"/>
  <circle cx="9" cy="3" r="1" fill="srgba(98.2895%,95.3857%,95.9289%,1)"/>
  <circle cx="10" cy="3" r="1" fill="srgba(93.4874%,83.2105%,85.1179%,1)"/>
  <circle cx="11" cy="3" r="1" fill="srgba(99.2905%,98.6664%,98.7839%,1)"/>
  <circle cx="12" cy="3" r="1" fill="white"/>
  <circle cx="13" cy="3" r="1" fill="white"/>
  <circle cx="14" cy="3" r="1" fill="white"/>
  <circle cx="15" cy="3" r="1" fill="white"/>
  <circle cx="0" cy="4" r="1" fill="white"/>
  <circle cx="1" cy="4" r="1" fill="white"/>
  <circle cx="2" cy="4" r="1" fill="white"/>
  <circle cx="3" cy="4" r="1" fill="srgba(99.379%,99.3683%,99.3698%,1)"/>
  <circle cx="4" cy="4" r="1" fill="srgba(94.6853%,94.6181%,94.6288%,1)"/>
  <circle cx="5" cy="4" r="1" fill="srgba(99.823%,99.823%,99.823%,1)"/>
  <circle cx="6" cy="4" r="1" fill="white"/>
  <circle cx="7" cy="4" r="1" fill="srgba(99.8917%,100%,100%,1)"/>
  <circle cx="8" cy="4" r="1" fill="srgba(94.9554%,83.4287%,85.5711%,1)"/>
  <circle cx="9" cy="4" r="1" fill="srgba(85.536%,37.2702%,46.2272%,1)"/>
  <circle cx="10" cy="4" r="1" fill="srgba(80.061%,20.9903%,31.9524%,1)"/>
  <circle cx="11" cy="4" r="1" fill="srgba(95.1431%,85.2461%,87.0863%,1)"/>
  <circle cx="12" cy="4" r="1" fill="white"/>
  <circle cx="13" cy="4" r="1" fill="white"/>
  <circle cx="14" cy="4" r="1" fill="white"/>
  <circle cx="15" cy="4" r="1" fill="srgba(99.9359%,99.9359%,99.9359%,1)"/>
  <circle cx="0" cy="5" r="1" fill="white"/>
  <circle cx="1" cy="5" r="1" fill="srgba(99.9207%,99.9207%,99.9207%,1)"/>
  <circle cx="2" cy="5" r="1" fill="srgba(99.9985%,100%,100%,1)"/>
  <circle cx="3" cy="5" r="1" fill="srgba(99.0906%,98.9532%,98.9792%,1)"/>
  <circle cx="4" cy="5" r="1" fill="srgba(93.2525%,92.2408%,92.4269%,1)"/>
  <circle cx="5" cy="5" r="1" fill="srgba(99.794%,99.7787%,99.7818%,1)"/>
  <circle cx="6" cy="5" r="1" fill="white"/>
  <circle cx="7" cy="5" r="1" fill="srgba(92.7901%,73.2616%,76.8841%,1)"/>
  <circle cx="8" cy="5" r="1" fill="srgba(83.2181%,19.4491%,31.2825%,1)"/>
  <circle cx="9" cy="5" r="1" fill="srgba(82.3545%,4.82185%,19.2096%,1)"/>
  <circle cx="10" cy="5" r="1" fill="srgba(80.7599%,5.12398%,19.1592%,1)"/>
  <circle cx="11" cy="5" r="1" fill="srgba(88.5588%,52.5948%,59.2706%,1)"/>
  <circle cx="12" cy="5" r="1" fill="srgba(99.8474%,100%,100%,1)"/>
  <circle cx="13" cy="5" r="1" fill="white"/>
  <circle cx="14" cy="5" r="1" fill="white"/>
  <circle cx="15" cy="5" r="1" fill="srgba(97.8286%,97.8851%,97.8759%,1)"/>
  <circle cx="0" cy="6" r="1" fill="white"/>
  <circle cx="1" cy="6" r="1" fill="srgba(99.5285%,99.4247%,99.4934%,1)"/>
  <circle cx="2" cy="6" r="1" fill="srgba(99.884%,99.8611%,99.8795%,1)"/>
  <circle cx="3" cy="6" r="1" fill="srgba(99.1318%,98.8479%,98.8983%,1)"/>
  <circle cx="4" cy="6" r="1" fill="srgba(92.8969%,90.6905%,91.1345%,1)"/>
  <circle cx="5" cy="6" r="1" fill="srgba(96.7849%,94.7601%,95.2453%,1)"/>
  <circle cx="6" cy="6" r="1" fill="srgba(90.5577%,78.1491%,80.4578%,1)"/>
  <circle cx="7" cy="6" r="1" fill="srgba(78.4436%,32.9885%,41.4237%,1)"/>
  <circle cx="8" cy="6" r="1" fill="srgba(75.3124%,8.36652%,20.7889%,1)"/>
  <circle cx="9" cy="6" r="1" fill="srgba(75.2941%,9.61318%,21.8021%,1)"/>
  <circle cx="10" cy="6" r="1" fill="srgba(74.5983%,7.85077%,20.238%,1)"/>
  <circle cx="11" cy="6" r="1" fill="srgba(75.0423%,21.0315%,31.0506%,1)"/>
  <circle cx="12" cy="6" r="1" fill="srgba(85.3178%,76.2341%,77.9767%,1)"/>
  <circle cx="13" cy="6" r="1" fill="srgba(89.2226%,85.6611%,86.5583%,1)"/>
  <circle cx="14" cy="6" r="1" fill="srgba(92.5002%,88.5756%,89.5552%,1)"/>
  <circle cx="15" cy="6" r="1" fill="srgba(94.522%,91.9707%,92.697%,1)"/>
  <circle cx="0" cy="7" r="1" fill="srgba(87.9393%,96.0266%,90.634%,1)"/>
  <circle cx="1" cy="7" r="1" fill="srgba(87.9255%,95.9747%,90.6081%,1)"/>
  <circle cx="2" cy="7" r="1" fill="srgba(87.953%,96.0067%,90.6401%,1)"/>
  <circle cx="3" cy="7" r="1" fill="srgba(87.4052%,95.0317%,89.7688%,1)"/>
  <circle cx="4" cy="7" r="1" fill="srgba(78.7732%,83.2746%,79.0326%,1)"/>
  <circle cx="5" cy="7" r="1" fill="srgba(78.4375%,79.7147%,76.0952%,1)"/>
  <circle cx="6" cy="7" r="1" fill="srgba(76.8734%,27.6448%,36.2707%,1)"/>
  <circle cx="7" cy="7" r="1" fill="srgba(75.0317%,8.5893%,20.9522%,1)"/>
  <circle cx="8" cy="7" r="1" fill="srgba(75.9731%,7.25719%,20.0092%,1)"/>
  <circle cx="9" cy="7" r="1" fill="srgba(75.1995%,7.20836%,19.826%,1)"/>
  <circle cx="10" cy="7" r="1" fill="srgba(74.0551%,6.86961%,19.3408%,1)"/>
  <circle cx="11" cy="7" r="1" fill="srgba(73.8094%,6.46525%,19.0188%,1)"/>
  <circle cx="12" cy="7" r="1" fill="srgba(68.7297%,33.3394%,38.9395%,1)"/>
  <circle cx="13" cy="7" r="1" fill="srgba(71.0628%,73.7758%,69.5293%,1)"/>
  <circle cx="14" cy="7" r="1" fill="srgba(77.0504%,80.885%,76.2325%,1)"/>
  <circle cx="15" cy="7" r="1" fill="srgba(81.268%,86.2638%,81.4099%,1)"/>
  <circle cx="0" cy="8" r="1" fill="srgba(12.0607%,71.0307%,31.7189%,1)"/>
  <circle cx="1" cy="8" r="1" fill="srgba(12.0607%,70.6157%,31.5801%,1)"/>
  <circle cx="2" cy="8" r="1" fill="srgba(12.0562%,70.454%,31.5267%,1)"/>
  <circle cx="3" cy="8" r="1" fill="srgba(12.4071%,68.7663%,30.9941%,1)"/>
  <circle cx="4" cy="8" r="1" fill="srgba(13.2403%,61.0376%,27.7043%,1)"/>
  <circle cx="5" cy="8" r="1" fill="srgba(16.9833%,60.795%,28.3177%,1)"/>
  <circle cx="6" cy="8" r="1" fill="srgba(69.1234%,14.1161%,20.6455%,1)"/>
  <circle cx="7" cy="8" r="1" fill="srgba(80.7401%,5.40322%,19.6216%,1)"/>
  <circle cx="8" cy="8" r="1" fill="srgba(79.0143%,5.92966%,19.4903%,1)"/>
  <circle cx="9" cy="8" r="1" fill="srgba(78.9014%,5.9205%,19.4614%,1)"/>
  <circle cx="10" cy="8" r="1" fill="srgba(77.2717%,5.81064%,19.0707%,1)"/>
  <circle cx="11" cy="8" r="1" fill="srgba(78.2422%,5.24147%,19.0204%,1)"/>
  <circle cx="12" cy="8" r="1" fill="srgba(63.2258%,15.7183%,20.7736%,1)"/>
  <circle cx="13" cy="8" r="1" fill="srgba(17.4304%,62.2614%,29.9962%,1)"/>
  <circle cx="14" cy="8" r="1" fill="srgba(12.2789%,71.2276%,32.2301%,1)"/>
  <circle cx="15" cy="8" r="1" fill="srgba(12.3903%,70.4173%,31.8151%,1)"/>
  <circle cx="0" cy="9" r="1" fill="srgba(0%,66.8009%,21.7472%,1)"/>
  <circle cx="1" cy="9" r="1" fill="srgba(0%,66.7826%,21.7411%,1)"/>
  <circle cx="2" cy="9" r="1" fill="srgba(0%,66.7735%,21.735%,1)"/>
  <circle cx="3" cy="9" r="1" fill="srgba(0.515755%,65.5772%,21.4572%,1)"/>
  <circle cx="4" cy="9" r="1" fill="srgba(4.07568%,59.1669%,20.1938%,1)"/>
  <circle cx="5" cy="9" r="1" fill="srgba(6.14481%,59.7086%,20.8469%,1)"/>
  <circle cx="6" cy="9" r="1" fill="srgba(62.9831%,14.1115%,18.6328%,1)"/>
  <circle cx="7" cy="9" r="1" fill="srgba(74.6807%,5.08736%,18.2971%,1)"/>
  <circle cx="8" cy="9" r="1" fill="srgba(72.0592%,5.4902%,17.8408%,1)"/>
  <circle cx="9" cy="9" r="1" fill="srgba(76.8109%,5.85183%,19.0188%,1)"/>
  <circle cx="10" cy="9" r="1" fill="srgba(75.9442%,5.78622%,18.8052%,1)"/>
  <circle cx="11" cy="9" r="1" fill="srgba(74.1482%,5.59854%,18.3459%,1)"/>
  <circle cx="12" cy="9" r="1" fill="srgba(66.923%,5.26284%,16.5377%,1)"/>
  <circle cx="13" cy="9" r="1" fill="srgba(27.2984%,38.9075%,18.613%,1)"/>
  <circle cx="14" cy="9" r="1" fill="srgba(0%,64.6448%,20.8087%,1)"/>
  <circle cx="15" cy="9" r="1" fill="srgba(0%,63.8895%,20.7767%,1)"/>
  <circle cx="0" cy="10" r="1" fill="srgba(0,171,57,1)"/>
  <circle cx="1" cy="10" r="1" fill="srgba(0%,67.068%,22.356%,1)"/>
  <circle cx="2" cy="10" r="1" fill="srgba(0%,66.8589%,22.2843%,1)"/>
  <circle cx="3" cy="10" r="1" fill="srgba(0.56611%,66.0639%,22.1469%,1)"/>
  <circle cx="4" cy="10" r="1" fill="srgba(4.60212%,58.6053%,20.5554%,1)"/>
  <circle cx="5" cy="10" r="1" fill="srgba(6.11276%,59.7574%,21.2787%,1)"/>
  <circle cx="6" cy="10" r="1" fill="srgba(66.5034%,15.5825%,19.9741%,1)"/>
  <circle cx="7" cy="10" r="1" fill="srgba(80.4456%,5.45815%,19.6963%,1)"/>
  <circle cx="8" cy="10" r="1" fill="srgba(73.0968%,5.56802%,18.1003%,1)"/>
  <circle cx="9" cy="10" r="1" fill="srgba(77.3297%,5.89151%,19.1485%,1)"/>
  <circle cx="10" cy="10" r="1" fill="srgba(81.3672%,6.19974%,20.148%,1)"/>
  <circle cx="11" cy="10" r="1" fill="srgba(80.734%,6.15244%,19.9924%,1)"/>
  <circle cx="12" cy="10" r="1" fill="srgba(72.3919%,4.72419%,17.6638%,1)"/>
  <circle cx="13" cy="10" r="1" fill="srgba(59.3393%,18.0514%,19.1913%,1)"/>
  <circle cx="14" cy="10" r="1" fill="srgba(5.77096%,61.1597%,21.5991%,1)"/>
  <circle cx="15" cy="10" r="1" fill="srgba(0%,66.4317%,22.0478%,1)"/>
  <circle cx="0" cy="11" r="1" fill="srgba(0,171,57,1)"/>
  <circle cx="1" cy="11" r="1" fill="srgba(0%,67.1916%,22.3972%,1)"/>
  <circle cx="2" cy="11" r="1" fill="srgba(0%,63.6088%,21.2009%,1)"/>
  <circle cx="3" cy="11" r="1" fill="srgba(0.601205%,62.4918%,20.9644%,1)"/>
  <circle cx="4" cy="11" r="1" fill="srgba(5.0248%,56.0647%,19.8032%,1)"/>
  <circle cx="5" cy="11" r="1" fill="srgba(5.54818%,57.1695%,20.2899%,1)"/>
  <circle cx="6" cy="11" r="1" fill="srgba(63.5935%,16.4157%,19.6048%,1)"/>
  <circle cx="7" cy="11" r="1" fill="srgba(80.4242%,5.40322%,19.6735%,1)"/>
  <circle cx="8" cy="11" r="1" fill="srgba(79.9512%,6.0914%,19.7986%,1)"/>
  <circle cx="9" cy="11" r="1" fill="srgba(81.3748%,6.19974%,20.1511%,1)"/>
  <circle cx="10" cy="11" r="1" fill="srgba(81.4405%,6.20432%,20.1663%,1)"/>
  <circle cx="11" cy="11" r="1" fill="srgba(81.561%,6.21347%,20.1968%,1)"/>
  <circle cx="12" cy="11" r="1" fill="srgba(74.4518%,5.58328%,18.407%,1)"/>
  <circle cx="13" cy="11" r="1" fill="srgba(77.3495%,6.73381%,19.4339%,1)"/>
  <circle cx="14" cy="11" r="1" fill="srgba(28.8792%,44.0146%,21.0376%,1)"/>
  <circle cx="15" cy="11" r="1" fill="srgba(0%,68.1132%,22.3972%,1)"/>
  <circle cx="0" cy="12" r="1" fill="srgba(0,171,57,1)"/>
  <circle cx="1" cy="12" r="1" fill="srgba(0%,67.2389%,22.4125%,1)"/>
  <circle cx="2" cy="12" r="1" fill="srgba(0%,62.5895%,20.8621%,1)"/>
  <circle cx="3" cy="12" r="1" fill="srgba(0.622568%,61.1597%,20.5264%,1)"/>
  <circle cx="4" cy="12" r="1" fill="srgba(5.35592%,57.3571%,20.3052%,1)"/>
  <circle cx="5" cy="12" r="1" fill="srgba(4.87221%,59.9603%,21.0697%,1)"/>
  <circle cx="6" cy="12" r="1" fill="srgba(63.8514%,17.2335%,19.9344%,1)"/>
  <circle cx="7" cy="12" r="1" fill="srgba(82.649%,5.52071%,20.2075%,1)"/>
  <circle cx="8" cy="12" r="1" fill="srgba(82.3346%,6.27298%,20.3876%,1)"/>
  <circle cx="9" cy="12" r="1" fill="srgba(82.3072%,6.27146%,20.3815%,1)"/>
  <circle cx="10" cy="12" r="1" fill="srgba(82.2049%,6.26383%,20.3555%,1)"/>
  <circle cx="11" cy="12" r="1" fill="srgba(81.9486%,6.24399%,20.2914%,1)"/>
  <circle cx="12" cy="12" r="1" fill="srgba(75.0118%,5.72213%,18.5763%,1)"/>
  <circle cx="13" cy="12" r="1" fill="srgba(80.2792%,5.22621%,19.5789%,1)"/>
  <circle cx="14" cy="12" r="1" fill="srgba(60.0717%,21.03%,20.3479%,1)"/>
  <circle cx="15" cy="12" r="1" fill="srgba(4.88746%,62.7039%,21.9089%,1)"/>
  <circle cx="0" cy="13" r="1" fill="srgba(0,171,57,1)"/>
  <circle cx="1" cy="13" r="1" fill="srgba(0%,67.1305%,22.3774%,1)"/>
  <circle cx="2" cy="13" r="1" fill="srgba(0%,65.7053%,21.8997%,1)"/>
  <circle cx="3" cy="13" r="1" fill="srgba(0.648508%,63.3814%,21.2711%,1)"/>
  <circle cx="4" cy="13" r="1" fill="srgba(5.74502%,58.7106%,20.8438%,1)"/>
  <circle cx="5" cy="13" r="1" fill="srgba(4.1886%,62.9862%,21.9257%,1)"/>
  <circle cx="6" cy="13" r="1" fill="srgba(64.1138%,18.0972%,20.2792%,1)"/>
  <circle cx="7" cy="13" r="1" fill="srgba(83.505%,5.53445%,20.4013%,1)"/>
  <circle cx="8" cy="13" r="1" fill="srgba(82.3621%,6.27451%,20.3937%,1)"/>
  <circle cx="9" cy="13" r="1" fill="srgba(82.359%,6.27451%,20.3937%,1)"/>
  <circle cx="10" cy="13" r="1" fill="srgba(82.3682%,6.27604%,20.3952%,1)"/>
  <circle cx="11" cy="13" r="1" fill="srgba(82.1286%,6.25772%,20.3372%,1)"/>
  <circle cx="12" cy="13" r="1" fill="srgba(75.0774%,5.72061%,18.5916%,1)"/>
  <circle cx="13" cy="13" r="1" fill="srgba(79.9344%,5.96628%,19.7498%,1)"/>
  <circle cx="14" cy="13" r="1" fill="srgba(79.2554%,8.02167%,20.2884%,1)"/>
  <circle cx="15" cy="13" r="1" fill="srgba(29.3919%,43.2242%,20.8804%,1)"/>
  <circle cx="0" cy="14" r="1" fill="srgba(0,171,57,1)"/>
  <circle cx="1" cy="14" r="1" fill="srgba(0,171,57,1)"/>
  <circle cx="2" cy="14" r="1" fill="srgba(0%,67.0939%,22.3621%,1)"/>
  <circle cx="3" cy="14" r="1" fill="srgba(0.679026%,66.0563%,22.1683%,1)"/>
  <circle cx="4" cy="14" r="1" fill="srgba(6.21958%,58.2361%,20.7904%,1)"/>
  <circle cx="5" cy="14" r="1" fill="srgba(3.60571%,63.3951%,21.9333%,1)"/>
  <circle cx="6" cy="14" r="1" fill="srgba(62.7543%,18.9975%,20.2777%,1)"/>
  <circle cx="7" cy="14" r="1" fill="srgba(83.5309%,5.48562%,20.3906%,1)"/>
  <circle cx="8" cy="14" r="1" fill="srgba(210,16,52,1)"/>
  <circle cx="9" cy="14" r="1" fill="srgba(210,16,52,1)"/>
  <circle cx="10" cy="14" r="1" fill="srgba(82.3545%,6.27451%,20.3922%,1)"/>
  <circle cx="11" cy="14" r="1" fill="srgba(82.2934%,6.26993%,20.3769%,1)"/>
  <circle cx="12" cy="14" r="1" fill="srgba(81.4389%,6.20432%,20.1663%,1)"/>
  <circle cx="13" cy="14" r="1" fill="srgba(82.2507%,6.27298%,20.3693%,1)"/>
  <circle cx="14" cy="14" r="1" fill="srgba(82.9282%,5.87167%,20.3861%,1)"/>
  <circle cx="15" cy="14" r="1" fill="srgba(65.1682%,16.9207%,20.1236%,1)"/>
  <circle cx="0" cy="15" r="1" fill="srgba(0,171,57,1)"/>
  <circle cx="1" cy="15" r="1" fill="srgba(0,171,57,1)"/>
  <circle cx="2" cy="15" r="1" fill="srgba(0%,67.0787%,22.3575%,1)"/>
  <circle cx="3" cy="15" r="1" fill="srgba(0.701915%,66.07%,22.179%,1)"/>
  <circle cx="4" cy="15" r="1" fill="srgba(6.58427%,57.9599%,20.7782%,1)"/>
  <circle cx="5" cy="15" r="1" fill="srgba(3.12352%,63.801%,21.9608%,1)"/>
  <circle cx="6" cy="15" r="1" fill="srgba(61.5778%,19.8199%,20.2914%,1)"/>
  <circle cx="7" cy="15" r="1" fill="srgba(83.5782%,5.44594%,20.3891%,1)"/>
  <circle cx="8" cy="15" r="1" fill="srgba(210,16,52,1)"/>
  <circle cx="9" cy="15" r="1" fill="srgba(210,16,52,1)"/>
  <circle cx="10" cy="15" r="1" fill="srgba(210,16,52,1)"/>
  <circle cx="11" cy="15" r="1" fill="srgba(82.3575%,6.27451%,20.3937%,1)"/>
  <circle cx="12" cy="15" r="1" fill="srgba(82.4201%,6.27909%,20.4089%,1)"/>
  <circle cx="13" cy="15" r="1" fill="srgba(82.359%,6.27451%,20.3937%,1)"/>
  <circle cx="14" cy="15" r="1" fill="srgba(82.3941%,6.26078%,20.3967%,1)"/>
  <circle cx="15" cy="15" r="1" fill="srgba(82.063%,6.24399%,20.3174%,1)"/>
</svg>
