<?xml version="1.0" standalone="no"?>
<!DOCTYPE svg PUBLIC "-//W3C//DTD SVG 20010904//EN"
  "http://www.w3.org/TR/2001/REC-SVG-20010904/DTD/svg10.dtd">
<svg width="16" height="16">
  <circle cx="0" cy="0" r="1" fill="srgba(0%,0%,39.9954%,1)"/>
  <circle cx="1" cy="0" r="1" fill="srgba(0,0,102,1)"/>
  <circle cx="2" cy="0" r="1" fill="srgba(0,0,102,1)"/>
  <circle cx="3" cy="0" r="1" fill="srgba(0%,0%,39.9741%,1)"/>
  <circle cx="4" cy="0" r="1" fill="srgba(0.444038%,0.453193%,40.2762%,1)"/>
  <circle cx="5" cy="0" r="1" fill="srgba(64.6113%,65.0401%,79.2416%,1)"/>
  <circle cx="6" cy="0" r="1" fill="srgba(89.9779%,42.9374%,42.2416%,1)"/>
  <circle cx="7" cy="0" r="1" fill="srgba(79.6567%,0%,0%,1)"/>
  <circle cx="8" cy="0" r="1" fill="srgba(79.6551%,0%,0%,1)"/>
  <circle cx="9" cy="0" r="1" fill="srgba(89.9657%,42.884%,42.1881%,1)"/>
  <circle cx="10" cy="0" r="1" fill="srgba(64.6601%,65.0843%,79.2645%,1)"/>
  <circle cx="11" cy="0" r="1" fill="srgba(0.454719%,0.463874%,40.2823%,1)"/>
  <circle cx="12" cy="0" r="1" fill="srgba(0%,0%,39.9725%,1)"/>
  <circle cx="13" cy="0" r="1" fill="srgba(0,0,102,1)"/>
  <circle cx="14" cy="0" r="1" fill="srgba(0,0,102,1)"/>
  <circle cx="15" cy="0" r="1" fill="srgba(0%,0%,39.9847%,1)"/>
  <circle cx="0" cy="1" r="1" fill="srgba(0.0534066%,0.0534066%,39.292%,1)"/>
  <circle cx="1" cy="1" r="1" fill="srgba(0%,0%,39.5453%,1)"/>
  <circle cx="2" cy="1" r="1" fill="srgba(0%,0%,39.9908%,1)"/>
  <circle cx="3" cy="1" r="1" fill="srgba(0%,0%,39.9741%,1)"/>
  <circle cx="4" cy="1" r="1" fill="srgba(0.444038%,0.453193%,40.2762%,1)"/>
  <circle cx="5" cy="1" r="1" fill="srgba(64.6113%,65.0401%,79.2416%,1)"/>
  <circle cx="6" cy="1" r="1" fill="srgba(89.9779%,42.9374%,42.2416%,1)"/>
  <circle cx="7" cy="1" r="1" fill="srgba(79.6567%,0%,0%,1)"/>
  <circle cx="8" cy="1" r="1" fill="srgba(79.6551%,0%,0%,1)"/>
  <circle cx="9" cy="1" r="1" fill="srgba(89.9657%,42.884%,42.1881%,1)"/>
  <circle cx="10" cy="1" r="1" fill="srgba(64.6601%,65.0843%,79.2645%,1)"/>
  <circle cx="11" cy="1" r="1" fill="srgba(0.454719%,0.463874%,40.2823%,1)"/>
  <circle cx="12" cy="1" r="1" fill="srgba(0%,0%,39.9756%,1)"/>
  <circle cx="13" cy="1" r="1" fill="srgba(0%,0%,39.968%,1)"/>
  <circle cx="14" cy="1" r="1" fill="srgba(0%,0%,39.4522%,1)"/>
  <circle cx="15" cy="1" r="1" fill="srgba(0.373846%,0.640879%,40.1343%,1)"/>
  <circle cx="0" cy="2" r="1" fill="srgba(43.299%,43.4485%,66.1448%,1)"/>
  <circle cx="1" cy="2" r="1" fill="srgba(12.4376%,12.4361%,47.4449%,1)"/>
  <circle cx="2" cy="2" r="1" fill="srgba(0.180056%,0.180056%,39.4614%,1)"/>
  <circle cx="3" cy="2" r="1" fill="srgba(0%,0%,39.4858%,1)"/>
  <circle cx="4" cy="2" r="1" fill="srgba(0.444038%,0.453193%,40.264%,1)"/>
  <circle cx="5" cy="2" r="1" fill="srgba(64.6113%,65.0401%,79.2416%,1)"/>
  <circle cx="6" cy="2" r="1" fill="srgba(89.9779%,42.9374%,42.2416%,1)"/>
  <circle cx="7" cy="2" r="1" fill="srgba(79.6567%,0%,0%,1)"/>
  <circle cx="8" cy="2" r="1" fill="srgba(79.6551%,0%,0%,1)"/>
  <circle cx="9" cy="2" r="1" fill="srgba(89.9657%,42.884%,42.1881%,1)"/>
  <circle cx="10" cy="2" r="1" fill="srgba(64.6601%,65.0843%,79.266%,1)"/>
  <circle cx="11" cy="2" r="1" fill="srgba(0.454719%,0.463874%,40.2502%,1)"/>
  <circle cx="12" cy="2" r="1" fill="srgba(0%,0%,39.3759%,1)"/>
  <circle cx="13" cy="2" r="1" fill="srgba(0.770581%,1.20241%,40.5982%,1)"/>
  <circle cx="14" cy="2" r="1" fill="srgba(16.6155%,17.2534%,50.6889%,1)"/>
  <circle cx="15" cy="2" r="1" fill="srgba(48.1147%,40.9277%,60.9659%,1)"/>
  <circle cx="0" cy="3" r="1" fill="srgba(99.2966%,97.4975%,97.4731%,1)"/>
  <circle cx="1" cy="3" r="1" fill="srgba(84.6372%,85.6611%,91.9051%,1)"/>
  <circle cx="2" cy="3" r="1" fill="srgba(47.332%,47.5425%,68.6305%,1)"/>
  <circle cx="3" cy="3" r="1" fill="srgba(12.2484%,12.2393%,47.3259%,1)"/>
  <circle cx="4" cy="3" r="1" fill="srgba(0.654612%,0.662242%,39.7757%,1)"/>
  <circle cx="5" cy="3" r="1" fill="srgba(64.5609%,64.9897%,78.9059%,1)"/>
  <circle cx="6" cy="3" r="1" fill="srgba(89.9779%,42.9374%,42.2568%,1)"/>
  <circle cx="7" cy="3" r="1" fill="srgba(79.6567%,0%,0%,1)"/>
  <circle cx="8" cy="3" r="1" fill="srgba(79.6551%,0%,0%,1)"/>
  <circle cx="9" cy="3" r="1" fill="srgba(89.9672%,42.884%,42.2034%,1)"/>
  <circle cx="10" cy="3" r="1" fill="srgba(64.5731%,64.9775%,78.8846%,1)"/>
  <circle cx="11" cy="3" r="1" fill="srgba(1.21767%,1.6434%,40.8499%,1)"/>
  <circle cx="12" cy="3" r="1" fill="srgba(16.1212%,16.9223%,50.573%,1)"/>
  <circle cx="13" cy="3" r="1" fill="srgba(51.0597%,42.0554%,60.734%,1)"/>
  <circle cx="14" cy="3" r="1" fill="srgba(78.9273%,41.3413%,46.0136%,1)"/>
  <circle cx="15" cy="3" r="1" fill="srgba(85.1789%,22.3774%,22.0249%,1)"/>
  <circle cx="0" cy="4" r="1" fill="srgba(86.7491%,33.4936%,33.4707%,1)"/>
  <circle cx="1" cy="4" r="1" fill="srgba(94.9538%,70.9941%,70.5974%,1)"/>
  <circle cx="2" cy="4" r="1" fill="srgba(99.2691%,96.4736%,96.3577%,1)"/>
  <circle cx="3" cy="4" r="1" fill="srgba(84.6281%,84.7913%,90.9529%,1)"/>
  <circle cx="4" cy="4" r="1" fill="srgba(48.0491%,48.0659%,68.8472%,1)"/>
  <circle cx="5" cy="4" r="1" fill="srgba(72.9534%,73.3867%,84.2496%,1)"/>
  <circle cx="6" cy="4" r="1" fill="srgba(89.514%,42.4735%,41.9638%,1)"/>
  <circle cx="7" cy="4" r="1" fill="srgba(79.6567%,0%,0%,1)"/>
  <circle cx="8" cy="4" r="1" fill="srgba(79.6551%,0%,0%,1)"/>
  <circle cx="9" cy="4" r="1" fill="srgba(89.4194%,42.3529%,41.8769%,1)"/>
  <circle cx="10" cy="4" r="1" fill="srgba(74.7051%,75.1278%,85.2903%,1)"/>
  <circle cx="11" cy="4" r="1" fill="srgba(51.3588%,42.9068%,61.5183%,1)"/>
  <circle cx="12" cy="4" r="1" fill="srgba(79.1913%,43.2059%,47.9316%,1)"/>
  <circle cx="13" cy="4" r="1" fill="srgba(85.1881%,22.1927%,21.8173%,1)"/>
  <circle cx="14" cy="4" r="1" fill="srgba(86.8513%,31.1467%,30.8354%,1)"/>
  <circle cx="15" cy="4" r="1" fill="srgba(93.2357%,66.1234%,66.1173%,1)"/>
  <circle cx="0" cy="5" r="1" fill="srgba(92.9305%,64.6509%,64.6509%,1)"/>
  <circle cx="1" cy="5" r="1" fill="srgba(93.7911%,68.9494%,68.9494%,1)"/>
  <circle cx="2" cy="5" r="1" fill="srgba(98.1964%,90.9728%,90.9728%,1)"/>
  <circle cx="3" cy="5" r="1" fill="white"/>
  <circle cx="4" cy="5" r="1" fill="srgba(99.2111%,99.3362%,99.6567%,1)"/>
  <circle cx="5" cy="5" r="1" fill="srgba(98.5962%,99.1699%,99.7864%,1)"/>
  <circle cx="6" cy="5" r="1" fill="srgba(88.2979%,41.2604%,41.2375%,1)"/>
  <circle cx="7" cy="5" r="1" fill="srgba(79.6567%,0%,0%,1)"/>
  <circle cx="8" cy="5" r="1" fill="srgba(79.6567%,0%,0%,1)"/>
  <circle cx="9" cy="5" r="1" fill="srgba(88.2704%,41.2406%,41.2284%,1)"/>
  <circle cx="10" cy="5" r="1" fill="srgba(99.1043%,99.0768%,99.4324%,1)"/>
  <circle cx="11" cy="5" r="1" fill="srgba(97.0611%,82.5971%,82.3255%,1)"/>
  <circle cx="12" cy="5" r="1" fill="srgba(93.7316%,65.5283%,65.2155%,1)"/>
  <circle cx="13" cy="5" r="1" fill="srgba(94.6883%,73.3852%,73.3791%,1)"/>
  <circle cx="14" cy="5" r="1" fill="srgba(99.1928%,95.9731%,95.9731%,1)"/>
  <circle cx="15" cy="5" r="1" fill="white"/>
  <circle cx="0" cy="6" r="1" fill="srgba(88.5832%,42.9053%,42.9053%,1)"/>
  <circle cx="1" cy="6" r="1" fill="srgba(88.5298%,42.6368%,42.6368%,1)"/>
  <circle cx="2" cy="6" r="1" fill="srgba(88.304%,41.5106%,41.5106%,1)"/>
  <circle cx="3" cy="6" r="1" fill="srgba(88.2307%,41.1582%,41.1597%,1)"/>
  <circle cx="4" cy="6" r="1" fill="srgba(88.2918%,41.2345%,41.2131%,1)"/>
  <circle cx="5" cy="6" r="1" fill="srgba(88.3787%,41.4954%,41.4557%,1)"/>
  <circle cx="6" cy="6" r="1" fill="srgba(83.389%,16.9604%,16.9619%,1)"/>
  <circle cx="7" cy="6" r="1" fill="srgba(79.8581%,0%,0%,1)"/>
  <circle cx="8" cy="6" r="1" fill="srgba(79.8581%,0%,0%,1)"/>
  <circle cx="9" cy="6" r="1" fill="srgba(83.386%,16.939%,16.939%,1)"/>
  <circle cx="10" cy="6" r="1" fill="srgba(88.3406%,41.4603%,41.4374%,1)"/>
  <circle cx="11" cy="6" r="1" fill="srgba(88.4199%,41.9745%,41.9638%,1)"/>
  <circle cx="12" cy="6" r="1" fill="srgba(88.574%,42.8656%,42.8672%,1)"/>
  <circle cx="13" cy="6" r="1" fill="srgba(88.5191%,42.5879%,42.5879%,1)"/>
  <circle cx="14" cy="6" r="1" fill="srgba(88.2933%,41.4588%,41.4588%,1)"/>
  <circle cx="15" cy="6" r="1" fill="srgba(88.2338%,41.1643%,41.1643%,1)"/>
  <circle cx="0" cy="7" r="1" fill="srgba(79.6567%,0%,0%,1)"/>
  <circle cx="1" cy="7" r="1" fill="srgba(79.6567%,0%,0%,1)"/>
  <circle cx="2" cy="7" r="1" fill="srgba(79.6567%,0%,0%,1)"/>
  <circle cx="3" cy="7" r="1" fill="srgba(79.6567%,0%,0%,1)"/>
  <circle cx="4" cy="7" r="1" fill="srgba(79.6567%,0%,0%,1)"/>
  <circle cx="5" cy="7" r="1" fill="srgba(79.6551%,0%,0%,1)"/>
  <circle cx="6" cy="7" r="1" fill="srgba(79.8581%,0%,0%,1)"/>
  <circle cx="7" cy="7" r="1" fill="srgba(80.0061%,0%,0%,1)"/>
  <circle cx="8" cy="7" r="1" fill="srgba(80.0061%,0%,0%,1)"/>
  <circle cx="9" cy="7" r="1" fill="srgba(79.8581%,0%,0%,1)"/>
  <circle cx="10" cy="7" r="1" fill="srgba(79.6551%,0%,0%,1)"/>
  <circle cx="11" cy="7" r="1" fill="srgba(79.6567%,0%,0%,1)"/>
  <circle cx="12" cy="7" r="1" fill="srgba(79.6567%,0%,0%,1)"/>
  <circle cx="13" cy="7" r="1" fill="srgba(79.6567%,0%,0%,1)"/>
  <circle cx="14" cy="7" r="1" fill="srgba(79.6567%,0%,0%,1)"/>
  <circle cx="15" cy="7" r="1" fill="srgba(79.6567%,0%,0%,1)"/>
  <circle cx="0" cy="8" r="1" fill="srgba(79.6567%,0%,0%,1)"/>
  <circle cx="1" cy="8" r="1" fill="srgba(79.6567%,0%,0%,1)"/>
  <circle cx="2" cy="8" r="1" fill="srgba(79.6567%,0%,0%,1)"/>
  <circle cx="3" cy="8" r="1" fill="srgba(79.6567%,0%,0%,1)"/>
  <circle cx="4" cy="8" r="1" fill="srgba(79.6567%,0%,0%,1)"/>
  <circle cx="5" cy="8" r="1" fill="srgba(79.6551%,0%,0%,1)"/>
  <circle cx="6" cy="8" r="1" fill="srgba(79.8581%,0%,0%,1)"/>
  <circle cx="7" cy="8" r="1" fill="srgba(80.0061%,0%,0%,1)"/>
  <circle cx="8" cy="8" r="1" fill="srgba(80.0061%,0%,0%,1)"/>
  <circle cx="9" cy="8" r="1" fill="srgba(79.8581%,0%,0%,1)"/>
  <circle cx="10" cy="8" r="1" fill="srgba(79.6551%,0%,0%,1)"/>
  <circle cx="11" cy="8" r="1" fill="srgba(79.6567%,0%,0%,1)"/>
  <circle cx="12" cy="8" r="1" fill="srgba(79.6567%,0%,0%,1)"/>
  <circle cx="13" cy="8" r="1" fill="srgba(79.6567%,0%,0%,1)"/>
  <circle cx="14" cy="8" r="1" fill="srgba(79.6567%,0%,0%,1)"/>
  <circle cx="15" cy="8" r="1" fill="srgba(79.6567%,0%,0%,1)"/>
  <circle cx="0" cy="9" r="1" fill="srgba(88.2338%,41.1643%,41.1643%,1)"/>
  <circle cx="1" cy="9" r="1" fill="srgba(88.2948%,41.4603%,41.4603%,1)"/>
  <circle cx="2" cy="9" r="1" fill="srgba(88.5191%,42.5895%,42.5895%,1)"/>
  <circle cx="3" cy="9" r="1" fill="srgba(88.574%,42.8656%,42.8656%,1)"/>
  <circle cx="4" cy="9" r="1" fill="srgba(88.4199%,41.973%,41.9608%,1)"/>
  <circle cx="5" cy="9" r="1" fill="srgba(88.3421%,41.4649%,41.442%,1)"/>
  <circle cx="6" cy="9" r="1" fill="srgba(83.3906%,16.9604%,16.9604%,1)"/>
  <circle cx="7" cy="9" r="1" fill="srgba(79.8581%,0%,0%,1)"/>
  <circle cx="8" cy="9" r="1" fill="srgba(79.8581%,0%,0%,1)"/>
  <circle cx="9" cy="9" r="1" fill="srgba(83.386%,16.939%,16.9406%,1)"/>
  <circle cx="10" cy="9" r="1" fill="srgba(88.3406%,41.4542%,41.4298%,1)"/>
  <circle cx="11" cy="9" r="1" fill="srgba(88.2673%,41.21%,41.1978%,1)"/>
  <circle cx="12" cy="9" r="1" fill="srgba(88.2322%,41.1597%,41.1612%,1)"/>
  <circle cx="13" cy="9" r="1" fill="srgba(88.304%,41.5076%,41.5076%,1)"/>
  <circle cx="14" cy="9" r="1" fill="srgba(88.5283%,42.6322%,42.6322%,1)"/>
  <circle cx="15" cy="9" r="1" fill="srgba(88.5832%,42.9053%,42.9053%,1)"/>
  <circle cx="0" cy="10" r="1" fill="white"/>
  <circle cx="1" cy="10" r="1" fill="srgba(99.1882%,95.9472%,95.9487%,1)"/>
  <circle cx="2" cy="10" r="1" fill="srgba(94.6853%,73.3623%,73.3562%,1)"/>
  <circle cx="3" cy="10" r="1" fill="srgba(93.7438%,65.5558%,65.2399%,1)"/>
  <circle cx="4" cy="10" r="1" fill="srgba(97.0535%,82.6322%,82.3682%,1)"/>
  <circle cx="5" cy="10" r="1" fill="srgba(99.0814%,99.0631%,99.4293%,1)"/>
  <circle cx="6" cy="10" r="1" fill="srgba(88.2826%,41.294%,41.2818%,1)"/>
  <circle cx="7" cy="10" r="1" fill="srgba(79.6567%,0%,0%,1)"/>
  <circle cx="8" cy="10" r="1" fill="srgba(79.6567%,0%,0%,1)"/>
  <circle cx="9" cy="10" r="1" fill="srgba(88.2612%,41.1826%,41.1688%,1)"/>
  <circle cx="10" cy="10" r="1" fill="srgba(99.1958%,99.7467%,100%,1)"/>
  <circle cx="11" cy="10" r="1" fill="srgba(99.5972%,99.6826%,99.8474%,1)"/>
  <circle cx="12" cy="10" r="1" fill="white"/>
  <circle cx="13" cy="10" r="1" fill="srgba(98.2071%,91.0384%,91.0384%,1)"/>
  <circle cx="14" cy="10" r="1" fill="srgba(93.8018%,69.0105%,69.0105%,1)"/>
  <circle cx="15" cy="10" r="1" fill="srgba(92.9259%,64.6311%,64.6311%,1)"/>
  <circle cx="0" cy="11" r="1" fill="srgba(93.2235%,66.0517%,66.0441%,1)"/>
  <circle cx="1" cy="11" r="1" fill="srgba(86.8452%,31.0948%,30.7805%,1)"/>
  <circle cx="2" cy="11" r="1" fill="srgba(85.1835%,22.2278%,21.8601%,1)"/>
  <circle cx="3" cy="11" r="1" fill="srgba(79.0997%,43.2105%,47.9835%,1)"/>
  <circle cx="4" cy="11" r="1" fill="srgba(51.1604%,42.7558%,61.4527%,1)"/>
  <circle cx="5" cy="11" r="1" fill="srgba(74.5983%,75.0271%,85.2338%,1)"/>
  <circle cx="6" cy="11" r="1" fill="srgba(89.4347%,42.4094%,41.9318%,1)"/>
  <circle cx="7" cy="11" r="1" fill="srgba(79.6567%,0%,0%,1)"/>
  <circle cx="8" cy="11" r="1" fill="srgba(79.6551%,0%,0%,1)"/>
  <circle cx="9" cy="11" r="1" fill="srgba(89.4194%,42.3377%,41.8601%,1)"/>
  <circle cx="10" cy="11" r="1" fill="srgba(74.6349%,75.0607%,85.2537%,1)"/>
  <circle cx="11" cy="11" r="1" fill="srgba(53.2662%,53.283%,71.9844%,1)"/>
  <circle cx="12" cy="11" r="1" fill="srgba(88.0552%,88.22%,93.0129%,1)"/>
  <circle cx="13" cy="11" r="1" fill="srgba(99.6674%,96.9696%,96.6888%,1)"/>
  <circle cx="14" cy="11" r="1" fill="srgba(94.7723%,70.9514%,70.6355%,1)"/>
  <circle cx="15" cy="11" r="1" fill="srgba(86.7353%,33.6065%,33.5988%,1)"/>
  <circle cx="0" cy="12" r="1" fill="srgba(85.182%,22.4399%,22.092%,1)"/>
  <circle cx="1" cy="12" r="1" fill="srgba(78.8754%,41.384%,46.0822%,1)"/>
  <circle cx="2" cy="12" r="1" fill="srgba(50.901%,41.9394%,60.6806%,1)"/>
  <circle cx="3" cy="12" r="1" fill="srgba(15.9869%,16.7941%,50.4982%,1)"/>
  <circle cx="4" cy="12" r="1" fill="srgba(1.18563%,1.60678%,40.824%,1)"/>
  <circle cx="5" cy="12" r="1" fill="srgba(64.5243%,64.9348%,78.8617%,1)"/>
  <circle cx="6" cy="12" r="1" fill="srgba(89.9779%,42.9374%,42.2568%,1)"/>
  <circle cx="7" cy="12" r="1" fill="srgba(79.6567%,0%,0%,1)"/>
  <circle cx="8" cy="12" r="1" fill="srgba(79.6551%,0%,0%,1)"/>
  <circle cx="9" cy="12" r="1" fill="srgba(89.9672%,42.884%,42.2049%,1)"/>
  <circle cx="10" cy="12" r="1" fill="srgba(64.5792%,65.0034%,78.8861%,1)"/>
  <circle cx="11" cy="12" r="1" fill="srgba(1.10018%,1.1078%,40.1389%,1)"/>
  <circle cx="12" cy="12" r="1" fill="srgba(15.7809%,15.7717%,49.4667%,1)"/>
  <circle cx="13" cy="12" r="1" fill="srgba(53.1624%,53.373%,72.134%,1)"/>
  <circle cx="14" cy="12" r="1" fill="srgba(88.4108%,89.4041%,94.1009%,1)"/>
  <circle cx="15" cy="12" r="1" fill="srgba(99.8352%,98.1277%,97.8103%,1)"/>
  <circle cx="0" cy="13" r="1" fill="srgba(48.0034%,40.8652%,60.9461%,1)"/>
  <circle cx="1" cy="13" r="1" fill="srgba(16.527%,17.1725%,50.6401%,1)"/>
  <circle cx="2" cy="13" r="1" fill="srgba(0.755322%,1.18563%,40.5829%,1)"/>
  <circle cx="3" cy="13" r="1" fill="srgba(0%,0%,39.379%,1)"/>
  <circle cx="4" cy="13" r="1" fill="srgba(0.444038%,0.453193%,40.2441%,1)"/>
  <circle cx="5" cy="13" r="1" fill="srgba(64.6113%,65.0401%,79.2432%,1)"/>
  <circle cx="6" cy="13" r="1" fill="srgba(89.9779%,42.9374%,42.2416%,1)"/>
  <circle cx="7" cy="13" r="1" fill="srgba(79.6567%,0%,0%,1)"/>
  <circle cx="8" cy="13" r="1" fill="srgba(79.6551%,0%,0%,1)"/>
  <circle cx="9" cy="13" r="1" fill="srgba(89.9657%,42.884%,42.1881%,1)"/>
  <circle cx="10" cy="13" r="1" fill="srgba(64.6601%,65.0843%,79.266%,1)"/>
  <circle cx="11" cy="13" r="1" fill="srgba(0.454719%,0.463874%,40.2533%,1)"/>
  <circle cx="12" cy="13" r="1" fill="srgba(0%,0%,39.3698%,1)"/>
  <circle cx="13" cy="13" r="1" fill="srgba(0.650034%,0.650034%,39.8444%,1)"/>
  <circle cx="14" cy="13" r="1" fill="srgba(16.3226%,16.3195%,49.7978%,1)"/>
  <circle cx="15" cy="13" r="1" fill="srgba(49.7566%,49.9031%,70.016%,1)"/>
  <circle cx="0" cy="14" r="1" fill="srgba(0.367742%,0.631724%,40.1251%,1)"/>
  <circle cx="1" cy="14" r="1" fill="srgba(0%,0%,39.4537%,1)"/>
  <circle cx="2" cy="14" r="1" fill="srgba(0%,0%,39.968%,1)"/>
  <circle cx="3" cy="14" r="1" fill="srgba(0%,0%,39.9756%,1)"/>
  <circle cx="4" cy="14" r="1" fill="srgba(0.444038%,0.453193%,40.2762%,1)"/>
  <circle cx="5" cy="14" r="1" fill="srgba(64.6113%,65.0401%,79.2416%,1)"/>
  <circle cx="6" cy="14" r="1" fill="srgba(89.9779%,42.9374%,42.2416%,1)"/>
  <circle cx="7" cy="14" r="1" fill="srgba(79.6567%,0%,0%,1)"/>
  <circle cx="8" cy="14" r="1" fill="srgba(79.6551%,0%,0%,1)"/>
  <circle cx="9" cy="14" r="1" fill="srgba(89.9657%,42.884%,42.1881%,1)"/>
  <circle cx="10" cy="14" r="1" fill="srgba(64.6601%,65.0843%,79.2645%,1)"/>
  <circle cx="11" cy="14" r="1" fill="srgba(0.454719%,0.463874%,40.2823%,1)"/>
  <circle cx="12" cy="14" r="1" fill="srgba(0%,0%,39.9756%,1)"/>
  <circle cx="13" cy="14" r="1" fill="srgba(0%,0%,39.9695%,1)"/>
  <circle cx="14" cy="14" r="1" fill="srgba(0%,0%,39.4339%,1)"/>
  <circle cx="15" cy="14" r="1" fill="srgba(0.306706%,0.306706%,39.5682%,1)"/>
  <circle cx="0" cy="15" r="1" fill="srgba(0%,0%,39.9847%,1)"/>
  <circle cx="1" cy="15" r="1" fill="srgba(0,0,102,1)"/>
  <circle cx="2" cy="15" r="1" fill="srgba(0,0,102,1)"/>
  <circle cx="3" cy="15" r="1" fill="srgba(0%,0%,39.9741%,1)"/>
  <circle cx="4" cy="15" r="1" fill="srgba(0.444038%,0.453193%,40.2762%,1)"/>
  <circle cx="5" cy="15" r="1" fill="srgba(64.6113%,65.0401%,79.2416%,1)"/>
  <circle cx="6" cy="15" r="1" fill="srgba(89.9779%,42.9374%,42.2416%,1)"/>
  <circle cx="7" cy="15" r="1" fill="srgba(79.6567%,0%,0%,1)"/>
  <circle cx="8" cy="15" r="1" fill="srgba(79.6551%,0%,0%,1)"/>
  <circle cx="9" cy="15" r="1" fill="srgba(89.9657%,42.884%,42.1881%,1)"/>
  <circle cx="10" cy="15" r="1" fill="srgba(64.6601%,65.0843%,79.2645%,1)"/>
  <circle cx="11" cy="15" r="1" fill="srgba(0.454719%,0.463874%,40.2823%,1)"/>
  <circle cx="12" cy="15" r="1" fill="srgba(0%,0%,39.9725%,1)"/>
  <circle cx="13" cy="15" r="1" fill="srgba(0,0,102,1)"/>
  <circle cx="14" cy="15" r="1" fill="srgba(0,0,102,1)"/>
  <circle cx="15" cy="15" r="1" fill="srgba(0%,0%,39.9847%,1)"/>
</svg>
