<?xml version="1.0" standalone="no"?>
<!DOCTYPE svg PUBLIC "-//W3C//DTD SVG 20010904//EN"
  "http://www.w3.org/TR/2001/REC-SVG-20010904/DTD/svg10.dtd">
<svg width="16" height="16">
  <circle cx="0" cy="0" r="1" fill="red"/>
  <circle cx="1" cy="0" r="1" fill="srgba(100%,3.80407%,0%,1)"/>
  <circle cx="2" cy="0" r="1" fill="srgba(100%,16.7025%,0%,1)"/>
  <circle cx="3" cy="0" r="1" fill="srgba(100%,0.889601%,0%,1)"/>
  <circle cx="4" cy="0" r="1" fill="red"/>
  <circle cx="5" cy="0" r="1" fill="red"/>
  <circle cx="6" cy="0" r="1" fill="red"/>
  <circle cx="7" cy="0" r="1" fill="srgba(100%,12.6589%,0%,1)"/>
  <circle cx="8" cy="0" r="1" fill="srgba(100%,8.40925%,0%,1)"/>
  <circle cx="9" cy="0" r="1" fill="red"/>
  <circle cx="10" cy="0" r="1" fill="red"/>
  <circle cx="11" cy="0" r="1" fill="red"/>
  <circle cx="12" cy="0" r="1" fill="srgba(100%,3.85443%,0%,1)"/>
  <circle cx="13" cy="0" r="1" fill="srgba(100%,15.6802%,0%,1)"/>
  <circle cx="14" cy="0" r="1" fill="srgba(100%,0.726329%,0%,1)"/>
  <circle cx="15" cy="0" r="1" fill="red"/>
  <circle cx="0" cy="1" r="1" fill="red"/>
  <circle cx="1" cy="1" r="1" fill="srgba(100%,7.76684%,0%,1)"/>
  <circle cx="2" cy="1" r="1" fill="srgba(100%,32.9976%,0%,1)"/>
  <circle cx="3" cy="1" r="1" fill="srgba(100%,3.05486%,0%,1)"/>
  <circle cx="4" cy="1" r="1" fill="red"/>
  <circle cx="5" cy="1" r="1" fill="red"/>
  <circle cx="6" cy="1" r="1" fill="red"/>
  <circle cx="7" cy="1" r="1" fill="srgba(100%,25.8015%,0%,1)"/>
  <circle cx="8" cy="1" r="1" fill="srgba(100%,17.7493%,0%,1)"/>
  <circle cx="9" cy="1" r="1" fill="red"/>
  <circle cx="10" cy="1" r="1" fill="red"/>
  <circle cx="11" cy="1" r="1" fill="red"/>
  <circle cx="12" cy="1" r="1" fill="srgba(100%,8.4062%,0%,1)"/>
  <circle cx="13" cy="1" r="1" fill="srgba(100%,42.2034%,0%,1)"/>
  <circle cx="14" cy="1" r="1" fill="srgba(100%,2.68559%,0%,1)"/>
  <circle cx="15" cy="1" r="1" fill="red"/>
  <circle cx="0" cy="2" r="1" fill="red"/>
  <circle cx="1" cy="2" r="1" fill="srgba(97.4609%,2.80308%,0%,1)"/>
  <circle cx="2" cy="2" r="1" fill="srgba(94.5281%,23.9033%,0%,1)"/>
  <circle cx="3" cy="2" r="1" fill="srgba(99.8489%,24.7761%,0%,1)"/>
  <circle cx="4" cy="2" r="1" fill="srgba(99.3317%,22.1042%,0%,1)"/>
  <circle cx="5" cy="2" r="1" fill="srgba(99.3301%,22.2568%,0%,1)"/>
  <circle cx="6" cy="2" r="1" fill="srgba(99.3301%,22.2065%,0%,1)"/>
  <circle cx="7" cy="2" r="1" fill="srgba(99.3393%,25.0645%,0%,1)"/>
  <circle cx="8" cy="2" r="1" fill="srgba(99.4141%,31.4794%,0%,1)"/>
  <circle cx="9" cy="2" r="1" fill="srgba(99.3332%,22.4704%,0%,1)"/>
  <circle cx="10" cy="2" r="1" fill="srgba(99.3301%,22.2553%,0%,1)"/>
  <circle cx="11" cy="2" r="1" fill="srgba(99.3301%,22.0157%,0%,1)"/>
  <circle cx="12" cy="2" r="1" fill="srgba(99.8199%,27.1%,0%,1)"/>
  <circle cx="13" cy="2" r="1" fill="srgba(98.323%,53.4386%,0%,1)"/>
  <circle cx="14" cy="2" r="1" fill="srgba(98.6084%,5.92813%,0%,1)"/>
  <circle cx="15" cy="2" r="1" fill="red"/>
  <circle cx="0" cy="3" r="1" fill="red"/>
  <circle cx="1" cy="3" r="1" fill="srgba(87.5975%,7.33349%,0%,1)"/>
  <circle cx="2" cy="3" r="1" fill="srgba(42.0981%,57.5494%,0%,1)"/>
  <circle cx="3" cy="3" r="1" fill="srgba(86.3493%,75.4757%,0%,1)"/>
  <circle cx="4" cy="3" r="1" fill="srgba(100%,77.4975%,0%,1)"/>
  <circle cx="5" cy="3" r="1" fill="srgba(99.7833%,77.2854%,0%,1)"/>
  <circle cx="6" cy="3" r="1" fill="srgba(99.762%,77.2808%,0%,1)"/>
  <circle cx="7" cy="3" r="1" fill="srgba(99.7665%,77.1954%,0%,1)"/>
  <circle cx="8" cy="3" r="1" fill="srgba(99.7925%,77.6028%,0%,1)"/>
  <circle cx="9" cy="3" r="1" fill="srgba(99.7635%,77.2992%,0%,1)"/>
  <circle cx="10" cy="3" r="1" fill="srgba(99.7833%,77.2854%,0%,1)"/>
  <circle cx="11" cy="3" r="1" fill="srgba(100%,77.4502%,0%,1)"/>
  <circle cx="12" cy="3" r="1" fill="srgba(90.045%,76.376%,0%,1)"/>
  <circle cx="13" cy="3" r="1" fill="srgba(90.956%,69.0501%,0%,1)"/>
  <circle cx="14" cy="3" r="1" fill="srgba(97.052%,9.51705%,0%,1)"/>
  <circle cx="15" cy="3" r="1" fill="red"/>
  <circle cx="0" cy="4" r="1" fill="red"/>
  <circle cx="1" cy="4" r="1" fill="srgba(87.2587%,7.55627%,0%,1)"/>
  <circle cx="2" cy="4" r="1" fill="srgba(13.5119%,53.8018%,0%,1)"/>
  <circle cx="3" cy="4" r="1" fill="srgba(24.2741%,65.6809%,0%,1)"/>
  <circle cx="4" cy="4" r="1" fill="srgba(79.5514%,75.5154%,0%,1)"/>
  <circle cx="5" cy="4" r="1" fill="srgba(100%,79.556%,0%,1)"/>
  <circle cx="6" cy="4" r="1" fill="srgba(100%,79.3484%,0%,1)"/>
  <circle cx="7" cy="4" r="1" fill="srgba(100%,79.3378%,0%,1)"/>
  <circle cx="8" cy="4" r="1" fill="srgba(100%,79.4232%,0%,1)"/>
  <circle cx="9" cy="4" r="1" fill="srgba(100%,79.3545%,0%,1)"/>
  <circle cx="10" cy="4" r="1" fill="srgba(100%,79.556%,0%,1)"/>
  <circle cx="11" cy="4" r="1" fill="srgba(79.1699%,75.4345%,0%,1)"/>
  <circle cx="12" cy="4" r="1" fill="srgba(31.1406%,67.0161%,0%,1)"/>
  <circle cx="13" cy="4" r="1" fill="srgba(83.8972%,69.4972%,0%,1)"/>
  <circle cx="14" cy="4" r="1" fill="srgba(100%,11.7327%,0%,1)"/>
  <circle cx="15" cy="4" r="1" fill="red"/>
  <circle cx="0" cy="5" r="1" fill="red"/>
  <circle cx="1" cy="5" r="1" fill="srgba(87.3457%,7.55169%,0%,1)"/>
  <circle cx="2" cy="5" r="1" fill="srgba(12.7825%,53.6538%,0%,1)"/>
  <circle cx="3" cy="5" r="1" fill="srgba(1.31075%,61.1093%,0%,1)"/>
  <circle cx="4" cy="5" r="1" fill="srgba(15.2285%,63.2044%,0%,1)"/>
  <circle cx="5" cy="5" r="1" fill="srgba(72.1889%,73.991%,0%,1)"/>
  <circle cx="6" cy="5" r="1" fill="srgba(99.826%,79.4934%,0%,1)"/>
  <circle cx="7" cy="5" r="1" fill="srgba(100%,80.3677%,0%,1)"/>
  <circle cx="8" cy="5" r="1" fill="srgba(100%,80.618%,0%,1)"/>
  <circle cx="9" cy="5" r="1" fill="srgba(99.8291%,79.5026%,0%,1)"/>
  <circle cx="10" cy="5" r="1" fill="srgba(72.224%,73.9971%,0%,1)"/>
  <circle cx="11" cy="5" r="1" fill="srgba(14.7021%,63.0961%,0%,1)"/>
  <circle cx="12" cy="5" r="1" fill="srgba(9.90768%,62.5803%,0%,1)"/>
  <circle cx="13" cy="5" r="1" fill="srgba(86.0868%,72.9824%,0%,1)"/>
  <circle cx="14" cy="5" r="1" fill="srgba(100%,16.2356%,0%,1)"/>
  <circle cx="15" cy="5" r="1" fill="red"/>
  <circle cx="0" cy="6" r="1" fill="srgba(100%,0.2533%,0%,1)"/>
  <circle cx="1" cy="6" r="1" fill="srgba(88.5557%,17.9843%,0%,1)"/>
  <circle cx="2" cy="6" r="1" fill="srgba(15.288%,56.1074%,0%,1)"/>
  <circle cx="3" cy="6" r="1" fill="srgba(0.898756%,61.0513%,0%,1)"/>
  <circle cx="4" cy="6" r="1" fill="srgba(0%,60.1678%,0%,1)"/>
  <circle cx="5" cy="6" r="1" fill="srgba(9.92599%,62.3423%,0%,1)"/>
  <circle cx="6" cy="6" r="1" fill="srgba(64.6693%,70.2052%,0%,1)"/>
  <circle cx="7" cy="6" r="1" fill="srgba(99.7955%,56.5545%,0%,1)"/>
  <circle cx="8" cy="6" r="1" fill="srgba(99.6902%,57.6471%,0%,1)"/>
  <circle cx="9" cy="6" r="1" fill="srgba(64.5243%,70.5959%,0%,1)"/>
  <circle cx="10" cy="6" r="1" fill="srgba(9.95804%,62.3239%,0%,1)"/>
  <circle cx="11" cy="6" r="1" fill="srgba(0%,60.0214%,0%,1)"/>
  <circle cx="12" cy="6" r="1" fill="srgba(11.7021%,62.9267%,0%,1)"/>
  <circle cx="13" cy="6" r="1" fill="srgba(87.5441%,75.8694%,0%,1)"/>
  <circle cx="14" cy="6" r="1" fill="srgba(100%,21.7258%,0%,1)"/>
  <circle cx="15" cy="6" r="1" fill="red"/>
  <circle cx="0" cy="7" r="1" fill="srgba(100%,2.00961%,0%,1)"/>
  <circle cx="1" cy="7" r="1" fill="srgba(98.3764%,52.5551%,0%,1)"/>
  <circle cx="2" cy="7" r="1" fill="srgba(73.962%,71.6777%,0%,1)"/>
  <circle cx="3" cy="7" r="1" fill="srgba(15.6649%,63.6759%,0%,1)"/>
  <circle cx="4" cy="7" r="1" fill="srgba(0%,60.2136%,0%,1)"/>
  <circle cx="5" cy="7" r="1" fill="srgba(0%,61.0422%,0%,1)"/>
  <circle cx="6" cy="7" r="1" fill="srgba(36.6217%,41.5946%,0%,1)"/>
  <circle cx="7" cy="7" r="1" fill="srgba(99.1485%,27.7226%,0%,1)"/>
  <circle cx="8" cy="7" r="1" fill="srgba(98.6557%,23.3249%,0%,1)"/>
  <circle cx="9" cy="7" r="1" fill="srgba(34.432%,41.9699%,0%,1)"/>
  <circle cx="10" cy="7" r="1" fill="srgba(0%,61.0971%,0%,1)"/>
  <circle cx="11" cy="7" r="1" fill="srgba(0%,60.2213%,0%,1)"/>
  <circle cx="12" cy="7" r="1" fill="srgba(13.1365%,63.1632%,0%,1)"/>
  <circle cx="13" cy="7" r="1" fill="srgba(88.9204%,77.8225%,0%,1)"/>
  <circle cx="14" cy="7" r="1" fill="srgba(100%,26.8559%,0%,1)"/>
  <circle cx="15" cy="7" r="1" fill="red"/>
  <circle cx="0" cy="8" r="1" fill="srgba(100%,1.96841%,0%,1)"/>
  <circle cx="1" cy="8" r="1" fill="srgba(100%,47.2328%,0%,1)"/>
  <circle cx="2" cy="8" r="1" fill="srgba(88.658%,48.3192%,0%,1)"/>
  <circle cx="3" cy="8" r="1" fill="srgba(23.8422%,63.0014%,0%,1)"/>
  <circle cx="4" cy="8" r="1" fill="srgba(0%,60.2365%,0%,1)"/>
  <circle cx="5" cy="8" r="1" fill="srgba(0%,61.1658%,0%,1)"/>
  <circle cx="6" cy="8" r="1" fill="srgba(40.0244%,38.1933%,0%,1)"/>
  <circle cx="7" cy="8" r="1" fill="srgba(100%,31.1513%,0%,1)"/>
  <circle cx="8" cy="8" r="1" fill="srgba(99.6368%,41.6037%,0%,1)"/>
  <circle cx="9" cy="8" r="1" fill="srgba(37.6654%,42.623%,0%,1)"/>
  <circle cx="10" cy="8" r="1" fill="srgba(0%,61.0208%,0%,1)"/>
  <circle cx="11" cy="8" r="1" fill="srgba(0%,60.2289%,0%,1)"/>
  <circle cx="12" cy="8" r="1" fill="srgba(12.5292%,63.3783%,0%,1)"/>
  <circle cx="13" cy="8" r="1" fill="srgba(72.5246%,68.5634%,0%,1)"/>
  <circle cx="14" cy="8" r="1" fill="srgba(96.2737%,14.6273%,0%,1)"/>
  <circle cx="15" cy="8" r="1" fill="red"/>
  <circle cx="0" cy="9" r="1" fill="red"/>
  <circle cx="1" cy="9" r="1" fill="srgba(91.8608%,14.8379%,0%,1)"/>
  <circle cx="2" cy="9" r="1" fill="srgba(28.3314%,53.3303%,0%,1)"/>
  <circle cx="3" cy="9" r="1" fill="srgba(1.49844%,60.3388%,0%,1)"/>
  <circle cx="4" cy="9" r="1" fill="srgba(0%,60.1877%,0%,1)"/>
  <circle cx="5" cy="9" r="1" fill="srgba(9.93668%,62.4674%,0%,1)"/>
  <circle cx="6" cy="9" r="1" fill="srgba(65.6779%,68.246%,0%,1)"/>
  <circle cx="7" cy="9" r="1" fill="srgba(100%,47.5898%,0%,1)"/>
  <circle cx="8" cy="9" r="1" fill="srgba(100%,50.0481%,0%,1)"/>
  <circle cx="9" cy="9" r="1" fill="srgba(65.4307%,69.1722%,0%,1)"/>
  <circle cx="10" cy="9" r="1" fill="srgba(9.96719%,62.4216%,0%,1)"/>
  <circle cx="11" cy="9" r="1" fill="srgba(0%,60.1511%,0%,1)"/>
  <circle cx="12" cy="9" r="1" fill="srgba(1.11696%,61.2192%,0%,1)"/>
  <circle cx="13" cy="9" r="1" fill="srgba(17.232%,54.6548%,0%,1)"/>
  <circle cx="14" cy="9" r="1" fill="srgba(88.3497%,7.81567%,0%,1)"/>
  <circle cx="15" cy="9" r="1" fill="red"/>
  <circle cx="0" cy="10" r="1" fill="red"/>
  <circle cx="1" cy="10" r="1" fill="srgba(87.425%,7.55779%,0%,1)"/>
  <circle cx="2" cy="10" r="1" fill="srgba(11.4824%,53.611%,0%,1)"/>
  <circle cx="3" cy="10" r="1" fill="srgba(0%,60.621%,0%,1)"/>
  <circle cx="4" cy="10" r="1" fill="srgba(15.4025%,63.2395%,0%,1)"/>
  <circle cx="5" cy="10" r="1" fill="srgba(72.2621%,73.9986%,0%,1)"/>
  <circle cx="6" cy="10" r="1" fill="srgba(99.8322%,79.5987%,0%,1)"/>
  <circle cx="7" cy="10" r="1" fill="srgba(100%,80.2487%,0%,1)"/>
  <circle cx="8" cy="10" r="1" fill="srgba(100%,80.1724%,0%,1)"/>
  <circle cx="9" cy="10" r="1" fill="srgba(99.8367%,79.5605%,0%,1)"/>
  <circle cx="10" cy="10" r="1" fill="srgba(72.2942%,74.0063%,0%,1)"/>
  <circle cx="11" cy="10" r="1" fill="srgba(15.4238%,63.2441%,0%,1)"/>
  <circle cx="12" cy="10" r="1" fill="srgba(0%,60.5783%,0%,1)"/>
  <circle cx="13" cy="10" r="1" fill="srgba(11.4519%,53.3852%,0%,1)"/>
  <circle cx="14" cy="10" r="1" fill="srgba(87.393%,7.59594%,0%,1)"/>
  <circle cx="15" cy="10" r="1" fill="red"/>
  <circle cx="0" cy="11" r="1" fill="red"/>
  <circle cx="1" cy="11" r="1" fill="srgba(87.4083%,7.58679%,0%,1)"/>
  <circle cx="2" cy="11" r="1" fill="srgba(11.2535%,53.3471%,0%,1)"/>
  <circle cx="3" cy="11" r="1" fill="srgba(21.3153%,65.0797%,0%,1)"/>
  <circle cx="4" cy="11" r="1" fill="srgba(79.7894%,75.5627%,0%,1)"/>
  <circle cx="5" cy="11" r="1" fill="srgba(100%,79.5575%,0%,1)"/>
  <circle cx="6" cy="11" r="1" fill="srgba(100%,79.3484%,0%,1)"/>
  <circle cx="7" cy="11" r="1" fill="srgba(100%,79.3332%,0%,1)"/>
  <circle cx="8" cy="11" r="1" fill="srgba(100%,79.3332%,0%,1)"/>
  <circle cx="9" cy="11" r="1" fill="srgba(100%,79.3484%,0%,1)"/>
  <circle cx="10" cy="11" r="1" fill="srgba(100%,79.5575%,0%,1)"/>
  <circle cx="11" cy="11" r="1" fill="srgba(79.8154%,75.5673%,0%,1)"/>
  <circle cx="12" cy="11" r="1" fill="srgba(21.3458%,65.0843%,0%,1)"/>
  <circle cx="13" cy="11" r="1" fill="srgba(11.2169%,53.3669%,0%,1)"/>
  <circle cx="14" cy="11" r="1" fill="srgba(87.3671%,7.60662%,0%,1)"/>
  <circle cx="15" cy="11" r="1" fill="red"/>
  <circle cx="0" cy="12" r="1" fill="red"/>
  <circle cx="1" cy="12" r="1" fill="srgba(87.6799%,7.38994%,0%,1)"/>
  <circle cx="2" cy="12" r="1" fill="srgba(41.0513%,57.2335%,0%,1)"/>
  <circle cx="3" cy="12" r="1" fill="srgba(85.1911%,75.1446%,0%,1)"/>
  <circle cx="4" cy="12" r="1" fill="srgba(100%,77.5082%,0%,1)"/>
  <circle cx="5" cy="12" r="1" fill="srgba(99.7955%,77.2747%,0%,1)"/>
  <circle cx="6" cy="12" r="1" fill="srgba(99.7742%,77.2747%,0%,1)"/>
  <circle cx="7" cy="12" r="1" fill="srgba(99.7757%,77.2183%,0%,1)"/>
  <circle cx="8" cy="12" r="1" fill="srgba(99.7757%,77.2213%,0%,1)"/>
  <circle cx="9" cy="12" r="1" fill="srgba(99.7742%,77.2747%,0%,1)"/>
  <circle cx="10" cy="12" r="1" fill="srgba(99.7955%,77.2747%,0%,1)"/>
  <circle cx="11" cy="12" r="1" fill="srgba(100%,77.5082%,0%,1)"/>
  <circle cx="12" cy="12" r="1" fill="srgba(85.2171%,75.1537%,0%,1)"/>
  <circle cx="13" cy="12" r="1" fill="srgba(41.0468%,57.3526%,0%,1)"/>
  <circle cx="14" cy="12" r="1" fill="srgba(87.6432%,7.41741%,0%,1)"/>
  <circle cx="15" cy="12" r="1" fill="red"/>
  <circle cx="0" cy="13" r="1" fill="red"/>
  <circle cx="1" cy="13" r="1" fill="srgba(97.4746%,2.34226%,0%,1)"/>
  <circle cx="2" cy="13" r="1" fill="srgba(94.583%,19.9847%,0%,1)"/>
  <circle cx="3" cy="13" r="1" fill="srgba(99.8779%,22.6291%,0%,1)"/>
  <circle cx="4" cy="13" r="1" fill="srgba(99.3698%,22.2263%,0%,1)"/>
  <circle cx="5" cy="13" r="1" fill="srgba(99.3683%,22.2278%,0%,1)"/>
  <circle cx="6" cy="13" r="1" fill="srgba(99.3683%,22.1805%,0%,1)"/>
  <circle cx="7" cy="13" r="1" fill="srgba(99.3683%,22.7329%,0%,1)"/>
  <circle cx="8" cy="13" r="1" fill="srgba(99.3683%,22.8748%,0%,1)"/>
  <circle cx="9" cy="13" r="1" fill="srgba(99.3683%,22.1836%,0%,1)"/>
  <circle cx="10" cy="13" r="1" fill="srgba(99.3683%,22.2278%,0%,1)"/>
  <circle cx="11" cy="13" r="1" fill="srgba(99.3698%,22.2248%,0%,1)"/>
  <circle cx="12" cy="13" r="1" fill="srgba(99.8795%,22.5452%,0%,1)"/>
  <circle cx="13" cy="13" r="1" fill="srgba(94.5861%,18.8098%,0%,1)"/>
  <circle cx="14" cy="13" r="1" fill="srgba(97.4685%,2.33463%,0%,1)"/>
  <circle cx="15" cy="13" r="1" fill="red"/>
  <circle cx="0" cy="14" r="1" fill="red"/>
  <circle cx="1" cy="14" r="1" fill="srgba(100%,7.21447%,0%,1)"/>
  <circle cx="2" cy="14" r="1" fill="srgba(100%,28.6885%,0%,1)"/>
  <circle cx="3" cy="14" r="1" fill="srgba(100%,1.48165%,0%,1)"/>
  <circle cx="4" cy="14" r="1" fill="red"/>
  <circle cx="5" cy="14" r="1" fill="red"/>
  <circle cx="6" cy="14" r="1" fill="red"/>
  <circle cx="7" cy="14" r="1" fill="srgba(100%,22.7878%,0%,1)"/>
  <circle cx="8" cy="14" r="1" fill="srgba(100%,14.4961%,0%,1)"/>
  <circle cx="9" cy="14" r="1" fill="red"/>
  <circle cx="10" cy="14" r="1" fill="red"/>
  <circle cx="11" cy="14" r="1" fill="red"/>
  <circle cx="12" cy="14" r="1" fill="red"/>
  <circle cx="13" cy="14" r="1" fill="red"/>
  <circle cx="14" cy="14" r="1" fill="red"/>
  <circle cx="15" cy="14" r="1" fill="red"/>
  <circle cx="0" cy="15" r="1" fill="red"/>
  <circle cx="1" cy="15" r="1" fill="srgba(100%,4.85084%,0%,1)"/>
  <circle cx="2" cy="15" r="1" fill="srgba(100%,24.4114%,0%,1)"/>
  <circle cx="3" cy="15" r="1" fill="srgba(100%,4.36713%,0%,1)"/>
  <circle cx="4" cy="15" r="1" fill="red"/>
  <circle cx="5" cy="15" r="1" fill="red"/>
  <circle cx="6" cy="15" r="1" fill="red"/>
  <circle cx="7" cy="15" r="1" fill="srgba(100%,22.2583%,0%,1)"/>
  <circle cx="8" cy="15" r="1" fill="srgba(100%,19.8459%,0%,1)"/>
  <circle cx="9" cy="15" r="1" fill="red"/>
  <circle cx="10" cy="15" r="1" fill="red"/>
  <circle cx="11" cy="15" r="1" fill="red"/>
  <circle cx="12" cy="15" r="1" fill="red"/>
  <circle cx="13" cy="15" r="1" fill="red"/>
  <circle cx="14" cy="15" r="1" fill="red"/>
  <circle cx="15" cy="15" r="1" fill="red"/>
</svg>
