<?xml version="1.0" standalone="no"?>
<!DOCTYPE svg PUBLIC "-//W3C//DTD SVG 20010904//EN"
  "http://www.w3.org/TR/2001/REC-SVG-20010904/DTD/svg10.dtd">
<svg width="16" height="16">
  <circle cx="0" cy="0" r="1" fill="white"/>
  <circle cx="1" cy="0" r="1" fill="white"/>
  <circle cx="2" cy="0" r="1" fill="white"/>
  <circle cx="3" cy="0" r="1" fill="white"/>
  <circle cx="4" cy="0" r="1" fill="white"/>
  <circle cx="5" cy="0" r="1" fill="white"/>
  <circle cx="6" cy="0" r="1" fill="white"/>
  <circle cx="7" cy="0" r="1" fill="white"/>
  <circle cx="8" cy="0" r="1" fill="white"/>
  <circle cx="9" cy="0" r="1" fill="white"/>
  <circle cx="10" cy="0" r="1" fill="white"/>
  <circle cx="11" cy="0" r="1" fill="white"/>
  <circle cx="12" cy="0" r="1" fill="white"/>
  <circle cx="13" cy="0" r="1" fill="white"/>
  <circle cx="14" cy="0" r="1" fill="white"/>
  <circle cx="15" cy="0" r="1" fill="white"/>
  <circle cx="0" cy="1" r="1" fill="white"/>
  <circle cx="1" cy="1" r="1" fill="white"/>
  <circle cx="2" cy="1" r="1" fill="white"/>
  <circle cx="3" cy="1" r="1" fill="white"/>
  <circle cx="4" cy="1" r="1" fill="white"/>
  <circle cx="5" cy="1" r="1" fill="white"/>
  <circle cx="6" cy="1" r="1" fill="white"/>
  <circle cx="7" cy="1" r="1" fill="white"/>
  <circle cx="8" cy="1" r="1" fill="white"/>
  <circle cx="9" cy="1" r="1" fill="white"/>
  <circle cx="10" cy="1" r="1" fill="white"/>
  <circle cx="11" cy="1" r="1" fill="white"/>
  <circle cx="12" cy="1" r="1" fill="white"/>
  <circle cx="13" cy="1" r="1" fill="white"/>
  <circle cx="14" cy="1" r="1" fill="white"/>
  <circle cx="15" cy="1" r="1" fill="white"/>
  <circle cx="0" cy="2" r="1" fill="white"/>
  <circle cx="1" cy="2" r="1" fill="white"/>
  <circle cx="2" cy="2" r="1" fill="white"/>
  <circle cx="3" cy="2" r="1" fill="white"/>
  <circle cx="4" cy="2" r="1" fill="white"/>
  <circle cx="5" cy="2" r="1" fill="white"/>
  <circle cx="6" cy="2" r="1" fill="srgba(100%,98.4665%,98.4665%,1)"/>
  <circle cx="7" cy="2" r="1" fill="srgba(100%,88.7556%,88.7556%,1)"/>
  <circle cx="8" cy="2" r="1" fill="srgba(100%,88.7221%,88.7221%,1)"/>
  <circle cx="9" cy="2" r="1" fill="srgba(100%,98.4329%,98.4329%,1)"/>
  <circle cx="10" cy="2" r="1" fill="white"/>
  <circle cx="11" cy="2" r="1" fill="white"/>
  <circle cx="12" cy="2" r="1" fill="white"/>
  <circle cx="13" cy="2" r="1" fill="white"/>
  <circle cx="14" cy="2" r="1" fill="white"/>
  <circle cx="15" cy="2" r="1" fill="white"/>
  <circle cx="0" cy="3" r="1" fill="white"/>
  <circle cx="1" cy="3" r="1" fill="white"/>
  <circle cx="2" cy="3" r="1" fill="srgba(100%,99.9756%,99.9756%,1)"/>
  <circle cx="3" cy="3" r="1" fill="srgba(100%,94.4701%,94.4701%,1)"/>
  <circle cx="4" cy="3" r="1" fill="srgba(100%,98.2681%,98.2681%,1)"/>
  <circle cx="5" cy="3" r="1" fill="white"/>
  <circle cx="6" cy="3" r="1" fill="srgba(100%,89.2821%,89.2821%,1)"/>
  <circle cx="7" cy="3" r="1" fill="srgba(100%,21.4527%,21.4527%,1)"/>
  <circle cx="8" cy="3" r="1" fill="srgba(100%,21.2253%,21.2253%,1)"/>
  <circle cx="9" cy="3" r="1" fill="srgba(100%,89.0547%,89.0547%,1)"/>
  <circle cx="10" cy="3" r="1" fill="white"/>
  <circle cx="11" cy="3" r="1" fill="srgba(100%,98.2971%,98.2971%,1)"/>
  <circle cx="12" cy="3" r="1" fill="srgba(100%,94.4594%,94.4594%,1)"/>
  <circle cx="13" cy="3" r="1" fill="srgba(100%,99.9695%,99.9695%,1)"/>
  <circle cx="14" cy="3" r="1" fill="white"/>
  <circle cx="15" cy="3" r="1" fill="white"/>
  <circle cx="0" cy="4" r="1" fill="white"/>
  <circle cx="1" cy="4" r="1" fill="white"/>
  <circle cx="2" cy="4" r="1" fill="srgba(100%,90.2342%,90.2342%,1)"/>
  <circle cx="3" cy="4" r="1" fill="srgba(100%,43.2578%,43.2578%,1)"/>
  <circle cx="4" cy="4" r="1" fill="srgba(100%,70.9224%,70.9224%,1)"/>
  <circle cx="5" cy="4" r="1" fill="white"/>
  <circle cx="6" cy="4" r="1" fill="srgba(100%,87.9088%,87.9088%,1)"/>
  <circle cx="7" cy="4" r="1" fill="srgba(100%,11.2551%,11.2551%,1)"/>
  <circle cx="8" cy="4" r="1" fill="srgba(100%,10.9957%,10.9957%,1)"/>
  <circle cx="9" cy="4" r="1" fill="srgba(100%,87.6478%,87.6478%,1)"/>
  <circle cx="10" cy="4" r="1" fill="white"/>
  <circle cx="11" cy="4" r="1" fill="srgba(100%,71.1589%,71.1589%,1)"/>
  <circle cx="12" cy="4" r="1" fill="srgba(100%,43.1434%,43.1434%,1)"/>
  <circle cx="13" cy="4" r="1" fill="srgba(100%,90.0938%,90.0938%,1)"/>
  <circle cx="14" cy="4" r="1" fill="white"/>
  <circle cx="15" cy="4" r="1" fill="white"/>
  <circle cx="0" cy="5" r="1" fill="white"/>
  <circle cx="1" cy="5" r="1" fill="white"/>
  <circle cx="2" cy="5" r="1" fill="srgba(100%,91.6243%,91.6243%,1)"/>
  <circle cx="3" cy="5" r="1" fill="srgba(100%,47.7272%,47.7272%,1)"/>
  <circle cx="4" cy="5" r="1" fill="srgba(100%,73.9345%,73.9345%,1)"/>
  <circle cx="5" cy="5" r="1" fill="white"/>
  <circle cx="6" cy="5" r="1" fill="srgba(100%,87.9194%,87.9194%,1)"/>
  <circle cx="7" cy="5" r="1" fill="srgba(100%,11.2657%,11.2657%,1)"/>
  <circle cx="8" cy="5" r="1" fill="srgba(100%,11.0079%,11.0079%,1)"/>
  <circle cx="9" cy="5" r="1" fill="srgba(100%,87.66%,87.66%,1)"/>
  <circle cx="10" cy="5" r="1" fill="white"/>
  <circle cx="11" cy="5" r="1" fill="srgba(100%,74.1588%,74.1588%,1)"/>
  <circle cx="12" cy="5" r="1" fill="srgba(100%,47.6173%,47.6173%,1)"/>
  <circle cx="13" cy="5" r="1" fill="srgba(100%,91.4961%,91.4961%,1)"/>
  <circle cx="14" cy="5" r="1" fill="white"/>
  <circle cx="15" cy="5" r="1" fill="white"/>
  <circle cx="0" cy="6" r="1" fill="srgba(100%,92.9244%,92.9244%,1)"/>
  <circle cx="1" cy="6" r="1" fill="srgba(100%,87.8996%,87.8996%,1)"/>
  <circle cx="2" cy="6" r="1" fill="srgba(100%,88.4413%,88.4413%,1)"/>
  <circle cx="3" cy="6" r="1" fill="srgba(100%,84.6799%,84.6799%,1)"/>
  <circle cx="4" cy="6" r="1" fill="srgba(100%,87.4907%,87.4907%,1)"/>
  <circle cx="5" cy="6" r="1" fill="srgba(100%,88.7968%,88.7968%,1)"/>
  <circle cx="6" cy="6" r="1" fill="srgba(100%,77.351%,77.351%,1)"/>
  <circle cx="7" cy="6" r="1" fill="srgba(100%,9.90463%,9.90463%,1)"/>
  <circle cx="8" cy="6" r="1" fill="srgba(100%,9.6788%,9.6788%,1)"/>
  <circle cx="9" cy="6" r="1" fill="srgba(100%,77.1237%,77.1237%,1)"/>
  <circle cx="10" cy="6" r="1" fill="srgba(100%,88.809%,88.809%,1)"/>
  <circle cx="11" cy="6" r="1" fill="srgba(100%,87.5074%,87.5074%,1)"/>
  <circle cx="12" cy="6" r="1" fill="srgba(100%,84.6662%,84.6662%,1)"/>
  <circle cx="13" cy="6" r="1" fill="srgba(100%,88.4398%,88.4398%,1)"/>
  <circle cx="14" cy="6" r="1" fill="srgba(100%,87.8965%,87.8965%,1)"/>
  <circle cx="15" cy="6" r="1" fill="srgba(100%,92.8679%,92.8679%,1)"/>
  <circle cx="0" cy="7" r="1" fill="srgba(100%,47.7165%,47.7165%,1)"/>
  <circle cx="1" cy="7" r="1" fill="srgba(100%,10.7561%,10.7561%,1)"/>
  <circle cx="2" cy="7" r="1" fill="srgba(100%,11.3832%,11.3832%,1)"/>
  <circle cx="3" cy="7" r="1" fill="srgba(100%,11.6487%,11.6487%,1)"/>
  <circle cx="4" cy="7" r="1" fill="srgba(100%,11.4672%,11.4672%,1)"/>
  <circle cx="5" cy="7" r="1" fill="srgba(100%,11.4656%,11.4656%,1)"/>
  <circle cx="6" cy="7" r="1" fill="srgba(100%,10.0038%,10.0038%,1)"/>
  <circle cx="7" cy="7" r="1" fill="srgba(100%,1.28176%,1.28176%,1)"/>
  <circle cx="8" cy="7" r="1" fill="srgba(100%,1.25124%,1.25124%,1)"/>
  <circle cx="9" cy="7" r="1" fill="srgba(100%,9.97482%,9.97482%,1)"/>
  <circle cx="10" cy="7" r="1" fill="srgba(100%,11.4687%,11.4687%,1)"/>
  <circle cx="11" cy="7" r="1" fill="srgba(100%,11.4656%,11.4656%,1)"/>
  <circle cx="12" cy="7" r="1" fill="srgba(100%,11.6503%,11.6503%,1)"/>
  <circle cx="13" cy="7" r="1" fill="srgba(100%,11.3832%,11.3832%,1)"/>
  <circle cx="14" cy="7" r="1" fill="srgba(100%,10.7362%,10.7362%,1)"/>
  <circle cx="15" cy="7" r="1" fill="srgba(100%,47.2984%,47.2984%,1)"/>
  <circle cx="0" cy="8" r="1" fill="srgba(100%,47.4144%,47.4144%,1)"/>
  <circle cx="1" cy="8" r="1" fill="srgba(100%,10.2419%,10.2419%,1)"/>
  <circle cx="2" cy="8" r="1" fill="srgba(100%,10.8721%,10.8721%,1)"/>
  <circle cx="3" cy="8" r="1" fill="srgba(100%,11.1254%,11.1254%,1)"/>
  <circle cx="4" cy="8" r="1" fill="srgba(100%,10.9514%,10.9514%,1)"/>
  <circle cx="5" cy="8" r="1" fill="srgba(100%,10.9514%,10.9514%,1)"/>
  <circle cx="6" cy="8" r="1" fill="srgba(100%,9.55367%,9.55367%,1)"/>
  <circle cx="7" cy="8" r="1" fill="srgba(100%,1.22377%,1.22377%,1)"/>
  <circle cx="8" cy="8" r="1" fill="srgba(100%,1.19631%,1.19631%,1)"/>
  <circle cx="9" cy="8" r="1" fill="srgba(100%,9.52621%,9.52621%,1)"/>
  <circle cx="10" cy="8" r="1" fill="srgba(100%,10.9529%,10.9529%,1)"/>
  <circle cx="11" cy="8" r="1" fill="srgba(100%,10.9499%,10.9499%,1)"/>
  <circle cx="12" cy="8" r="1" fill="srgba(100%,11.1254%,11.1254%,1)"/>
  <circle cx="13" cy="8" r="1" fill="srgba(100%,10.8721%,10.8721%,1)"/>
  <circle cx="14" cy="8" r="1" fill="srgba(100%,10.222%,10.222%,1)"/>
  <circle cx="15" cy="8" r="1" fill="srgba(100%,46.9947%,46.9947%,1)"/>
  <circle cx="0" cy="9" r="1" fill="srgba(100%,92.6284%,92.6284%,1)"/>
  <circle cx="1" cy="9" r="1" fill="srgba(100%,87.393%,87.393%,1)"/>
  <circle cx="2" cy="9" r="1" fill="srgba(100%,87.9362%,87.9362%,1)"/>
  <circle cx="3" cy="9" r="1" fill="srgba(100%,84.3473%,84.3473%,1)"/>
  <circle cx="4" cy="9" r="1" fill="srgba(100%,87.0375%,87.0375%,1)"/>
  <circle cx="5" cy="9" r="1" fill="srgba(100%,88.2887%,88.2887%,1)"/>
  <circle cx="6" cy="9" r="1" fill="srgba(100%,76.9085%,76.9085%,1)"/>
  <circle cx="7" cy="9" r="1" fill="srgba(100%,9.84817%,9.84817%,1)"/>
  <circle cx="8" cy="9" r="1" fill="srgba(100%,9.62387%,9.62387%,1)"/>
  <circle cx="9" cy="9" r="1" fill="srgba(100%,76.6842%,76.6842%,1)"/>
  <circle cx="10" cy="9" r="1" fill="srgba(100%,88.2994%,88.2994%,1)"/>
  <circle cx="11" cy="9" r="1" fill="srgba(100%,87.0542%,87.0542%,1)"/>
  <circle cx="12" cy="9" r="1" fill="srgba(100%,84.3351%,84.3351%,1)"/>
  <circle cx="13" cy="9" r="1" fill="srgba(100%,87.9347%,87.9347%,1)"/>
  <circle cx="14" cy="9" r="1" fill="srgba(100%,87.3915%,87.3915%,1)"/>
  <circle cx="15" cy="9" r="1" fill="srgba(100%,92.5704%,92.5704%,1)"/>
  <circle cx="0" cy="10" r="1" fill="white"/>
  <circle cx="1" cy="10" r="1" fill="white"/>
  <circle cx="2" cy="10" r="1" fill="srgba(100%,91.78%,91.78%,1)"/>
  <circle cx="3" cy="10" r="1" fill="srgba(100%,48.2887%,48.2887%,1)"/>
  <circle cx="4" cy="10" r="1" fill="srgba(100%,74.2947%,74.2947%,1)"/>
  <circle cx="5" cy="10" r="1" fill="white"/>
  <circle cx="6" cy="10" r="1" fill="srgba(100%,87.9194%,87.9194%,1)"/>
  <circle cx="7" cy="10" r="1" fill="srgba(100%,11.2673%,11.2673%,1)"/>
  <circle cx="8" cy="10" r="1" fill="srgba(100%,11.0079%,11.0079%,1)"/>
  <circle cx="9" cy="10" r="1" fill="srgba(100%,87.66%,87.66%,1)"/>
  <circle cx="10" cy="10" r="1" fill="white"/>
  <circle cx="11" cy="10" r="1" fill="srgba(100%,74.5159%,74.5159%,1)"/>
  <circle cx="12" cy="10" r="1" fill="srgba(100%,48.1819%,48.1819%,1)"/>
  <circle cx="13" cy="10" r="1" fill="srgba(100%,91.6548%,91.6548%,1)"/>
  <circle cx="14" cy="10" r="1" fill="white"/>
  <circle cx="15" cy="10" r="1" fill="white"/>
  <circle cx="0" cy="11" r="1" fill="white"/>
  <circle cx="1" cy="11" r="1" fill="white"/>
  <circle cx="2" cy="11" r="1" fill="srgba(100%,90.0664%,90.0664%,1)"/>
  <circle cx="3" cy="11" r="1" fill="srgba(100%,42.6841%,42.6841%,1)"/>
  <circle cx="4" cy="11" r="1" fill="srgba(100%,70.5409%,70.5409%,1)"/>
  <circle cx="5" cy="11" r="1" fill="white"/>
  <circle cx="6" cy="11" r="1" fill="srgba(100%,87.9088%,87.9088%,1)"/>
  <circle cx="7" cy="11" r="1" fill="srgba(100%,11.2551%,11.2551%,1)"/>
  <circle cx="8" cy="11" r="1" fill="srgba(100%,10.9957%,10.9957%,1)"/>
  <circle cx="9" cy="11" r="1" fill="srgba(100%,87.6493%,87.6493%,1)"/>
  <circle cx="10" cy="11" r="1" fill="white"/>
  <circle cx="11" cy="11" r="1" fill="srgba(100%,70.779%,70.779%,1)"/>
  <circle cx="12" cy="11" r="1" fill="srgba(100%,42.5711%,42.5711%,1)"/>
  <circle cx="13" cy="11" r="1" fill="srgba(100%,89.9245%,89.9245%,1)"/>
  <circle cx="14" cy="11" r="1" fill="white"/>
  <circle cx="15" cy="11" r="1" fill="white"/>
  <circle cx="0" cy="12" r="1" fill="white"/>
  <circle cx="1" cy="12" r="1" fill="white"/>
  <circle cx="2" cy="12" r="1" fill="srgba(100%,99.9756%,99.9756%,1)"/>
  <circle cx="3" cy="12" r="1" fill="srgba(100%,94.2092%,94.2092%,1)"/>
  <circle cx="4" cy="12" r="1" fill="srgba(100%,98.1857%,98.1857%,1)"/>
  <circle cx="5" cy="12" r="1" fill="white"/>
  <circle cx="6" cy="12" r="1" fill="srgba(100%,89.2241%,89.2241%,1)"/>
  <circle cx="7" cy="12" r="1" fill="srgba(100%,21.0254%,21.0254%,1)"/>
  <circle cx="8" cy="12" r="1" fill="srgba(100%,20.7965%,20.7965%,1)"/>
  <circle cx="9" cy="12" r="1" fill="srgba(100%,88.9952%,88.9952%,1)"/>
  <circle cx="10" cy="12" r="1" fill="white"/>
  <circle cx="11" cy="12" r="1" fill="srgba(100%,98.2162%,98.2162%,1)"/>
  <circle cx="12" cy="12" r="1" fill="srgba(100%,94.1985%,94.1985%,1)"/>
  <circle cx="13" cy="12" r="1" fill="srgba(100%,99.968%,99.968%,1)"/>
  <circle cx="14" cy="12" r="1" fill="white"/>
  <circle cx="15" cy="12" r="1" fill="white"/>
  <circle cx="0" cy="13" r="1" fill="white"/>
  <circle cx="1" cy="13" r="1" fill="white"/>
  <circle cx="2" cy="13" r="1" fill="white"/>
  <circle cx="3" cy="13" r="1" fill="white"/>
  <circle cx="4" cy="13" r="1" fill="white"/>
  <circle cx="5" cy="13" r="1" fill="white"/>
  <circle cx="6" cy="13" r="1" fill="srgba(100%,98.4039%,98.4039%,1)"/>
  <circle cx="7" cy="13" r="1" fill="srgba(100%,88.2994%,88.2994%,1)"/>
  <circle cx="8" cy="13" r="1" fill="srgba(100%,88.2643%,88.2643%,1)"/>
  <circle cx="9" cy="13" r="1" fill="srgba(100%,98.3688%,98.3688%,1)"/>
  <circle cx="10" cy="13" r="1" fill="white"/>
  <circle cx="11" cy="13" r="1" fill="white"/>
  <circle cx="12" cy="13" r="1" fill="white"/>
  <circle cx="13" cy="13" r="1" fill="white"/>
  <circle cx="14" cy="13" r="1" fill="white"/>
  <circle cx="15" cy="13" r="1" fill="white"/>
  <circle cx="0" cy="14" r="1" fill="white"/>
  <circle cx="1" cy="14" r="1" fill="white"/>
  <circle cx="2" cy="14" r="1" fill="white"/>
  <circle cx="3" cy="14" r="1" fill="white"/>
  <circle cx="4" cy="14" r="1" fill="white"/>
  <circle cx="5" cy="14" r="1" fill="white"/>
  <circle cx="6" cy="14" r="1" fill="white"/>
  <circle cx="7" cy="14" r="1" fill="white"/>
  <circle cx="8" cy="14" r="1" fill="white"/>
  <circle cx="9" cy="14" r="1" fill="white"/>
  <circle cx="10" cy="14" r="1" fill="white"/>
  <circle cx="11" cy="14" r="1" fill="white"/>
  <circle cx="12" cy="14" r="1" fill="white"/>
  <circle cx="13" cy="14" r="1" fill="white"/>
  <circle cx="14" cy="14" r="1" fill="white"/>
  <circle cx="15" cy="14" r="1" fill="white"/>
  <circle cx="0" cy="15" r="1" fill="white"/>
  <circle cx="1" cy="15" r="1" fill="white"/>
  <circle cx="2" cy="15" r="1" fill="white"/>
  <circle cx="3" cy="15" r="1" fill="white"/>
  <circle cx="4" cy="15" r="1" fill="white"/>
  <circle cx="5" cy="15" r="1" fill="white"/>
  <circle cx="6" cy="15" r="1" fill="white"/>
  <circle cx="7" cy="15" r="1" fill="white"/>
  <circle cx="8" cy="15" r="1" fill="white"/>
  <circle cx="9" cy="15" r="1" fill="white"/>
  <circle cx="10" cy="15" r="1" fill="white"/>
  <circle cx="11" cy="15" r="1" fill="white"/>
  <circle cx="12" cy="15" r="1" fill="white"/>
  <circle cx="13" cy="15" r="1" fill="white"/>
  <circle cx="14" cy="15" r="1" fill="white"/>
  <circle cx="15" cy="15" r="1" fill="white"/>
</svg>
