<?xml version="1.0" standalone="no"?>
<!DOCTYPE svg PUBLIC "-//W3C//DTD SVG 20010904//EN"
  "http://www.w3.org/TR/2001/REC-SVG-20010904/DTD/svg10.dtd">
<svg width="16" height="16">
  <circle cx="0" cy="0" r="1" fill="srgba(51.4015%,70.4875%,11.6945%,1)"/>
  <circle cx="1" cy="0" r="1" fill="srgba(6.19669%,54.9279%,18.4253%,1)"/>
  <circle cx="2" cy="0" r="1" fill="srgba(2.20798%,53.5393%,18.8952%,1)"/>
  <circle cx="3" cy="0" r="1" fill="srgba(2.76036%,53.7301%,18.822%,1)"/>
  <circle cx="4" cy="0" r="1" fill="srgba(7,137,48,1)"/>
  <circle cx="5" cy="0" r="1" fill="srgba(7,137,48,1)"/>
  <circle cx="6" cy="0" r="1" fill="srgba(7,137,48,1)"/>
  <circle cx="7" cy="0" r="1" fill="srgba(7,137,48,1)"/>
  <circle cx="8" cy="0" r="1" fill="srgba(7,137,48,1)"/>
  <circle cx="9" cy="0" r="1" fill="srgba(7,137,48,1)"/>
  <circle cx="10" cy="0" r="1" fill="srgba(7,137,48,1)"/>
  <circle cx="11" cy="0" r="1" fill="srgba(7,137,48,1)"/>
  <circle cx="12" cy="0" r="1" fill="srgba(7,137,48,1)"/>
  <circle cx="13" cy="0" r="1" fill="srgba(7,137,48,1)"/>
  <circle cx="14" cy="0" r="1" fill="srgba(7,137,48,1)"/>
  <circle cx="15" cy="0" r="1" fill="srgba(7,137,48,1)"/>
  <circle cx="0" cy="1" r="1" fill="srgba(95.6771%,85.6077%,4.1825%,1)"/>
  <circle cx="1" cy="1" r="1" fill="srgba(51.2902%,70.4341%,11.5999%,1)"/>
  <circle cx="2" cy="1" r="1" fill="srgba(5.0782%,54.5418%,18.584%,1)"/>
  <circle cx="3" cy="1" r="1" fill="srgba(2.27665%,53.5622%,18.8861%,1)"/>
  <circle cx="4" cy="1" r="1" fill="srgba(2.75883%,53.7301%,18.822%,1)"/>
  <circle cx="5" cy="1" r="1" fill="srgba(7,137,48,1)"/>
  <circle cx="6" cy="1" r="1" fill="srgba(7,137,48,1)"/>
  <circle cx="7" cy="1" r="1" fill="srgba(7,137,48,1)"/>
  <circle cx="8" cy="1" r="1" fill="srgba(7,137,48,1)"/>
  <circle cx="9" cy="1" r="1" fill="srgba(7,137,48,1)"/>
  <circle cx="10" cy="1" r="1" fill="srgba(7,137,48,1)"/>
  <circle cx="11" cy="1" r="1" fill="srgba(7,137,48,1)"/>
  <circle cx="12" cy="1" r="1" fill="srgba(7,137,48,1)"/>
  <circle cx="13" cy="1" r="1" fill="srgba(7,137,48,1)"/>
  <circle cx="14" cy="1" r="1" fill="srgba(7,137,48,1)"/>
  <circle cx="15" cy="1" r="1" fill="srgba(7,137,48,1)"/>
  <circle cx="0" cy="2" r="1" fill="srgba(99.3057%,86.8391%,3.43328%,1)"/>
  <circle cx="1" cy="2" r="1" fill="srgba(96.643%,85.9739%,3.99023%,1)"/>
  <circle cx="2" cy="2" r="1" fill="srgba(51.2978%,70.4387%,11.606%,1)"/>
  <circle cx="3" cy="2" r="1" fill="srgba(5.09651%,54.5495%,18.5809%,1)"/>
  <circle cx="4" cy="2" r="1" fill="srgba(2.27207%,53.5622%,18.8861%,1)"/>
  <circle cx="5" cy="2" r="1" fill="srgba(2.75883%,53.7301%,18.822%,1)"/>
  <circle cx="6" cy="2" r="1" fill="srgba(7,137,48,1)"/>
  <circle cx="7" cy="2" r="1" fill="srgba(7,137,48,1)"/>
  <circle cx="8" cy="2" r="1" fill="srgba(7,137,48,1)"/>
  <circle cx="9" cy="2" r="1" fill="srgba(7,137,48,1)"/>
  <circle cx="10" cy="2" r="1" fill="srgba(7,137,48,1)"/>
  <circle cx="11" cy="2" r="1" fill="srgba(7,137,48,1)"/>
  <circle cx="12" cy="2" r="1" fill="srgba(7,137,48,1)"/>
  <circle cx="13" cy="2" r="1" fill="srgba(7,137,48,1)"/>
  <circle cx="14" cy="2" r="1" fill="srgba(7,137,48,1)"/>
  <circle cx="15" cy="2" r="1" fill="srgba(7,137,48,1)"/>
  <circle cx="0" cy="3" r="1" fill="srgba(98.8098%,86.6621%,3.53246%,1)"/>
  <circle cx="1" cy="3" r="1" fill="srgba(99.2447%,86.8177%,3.44549%,1)"/>
  <circle cx="2" cy="3" r="1" fill="srgba(96.6262%,85.9678%,3.99329%,1)"/>
  <circle cx="3" cy="3" r="1" fill="srgba(51.2978%,70.4387%,11.606%,1)"/>
  <circle cx="4" cy="3" r="1" fill="srgba(5.09651%,54.5495%,18.5809%,1)"/>
  <circle cx="5" cy="3" r="1" fill="srgba(2.27207%,53.5622%,18.8861%,1)"/>
  <circle cx="6" cy="3" r="1" fill="srgba(2.75883%,53.7301%,18.822%,1)"/>
  <circle cx="7" cy="3" r="1" fill="srgba(7,137,48,1)"/>
  <circle cx="8" cy="3" r="1" fill="srgba(7,137,48,1)"/>
  <circle cx="9" cy="3" r="1" fill="srgba(7,137,48,1)"/>
  <circle cx="10" cy="3" r="1" fill="srgba(7,137,48,1)"/>
  <circle cx="11" cy="3" r="1" fill="srgba(7,137,48,1)"/>
  <circle cx="12" cy="3" r="1" fill="srgba(7,137,48,1)"/>
  <circle cx="13" cy="3" r="1" fill="srgba(7,137,48,1)"/>
  <circle cx="14" cy="3" r="1" fill="srgba(7,137,48,1)"/>
  <circle cx="15" cy="3" r="1" fill="srgba(7,137,48,1)"/>
  <circle cx="0" cy="4" r="1" fill="srgba(252,221,9,1)"/>
  <circle cx="1" cy="4" r="1" fill="srgba(98.8113%,86.6621%,3.53246%,1)"/>
  <circle cx="2" cy="4" r="1" fill="srgba(99.2477%,86.8177%,3.44549%,1)"/>
  <circle cx="3" cy="4" r="1" fill="srgba(96.6262%,85.9678%,3.99329%,1)"/>
  <circle cx="4" cy="4" r="1" fill="srgba(51.2978%,70.4387%,11.606%,1)"/>
  <circle cx="5" cy="4" r="1" fill="srgba(5.09651%,54.5495%,18.5809%,1)"/>
  <circle cx="6" cy="4" r="1" fill="srgba(2.28275%,53.5561%,18.8846%,1)"/>
  <circle cx="7" cy="4" r="1" fill="srgba(2.5803%,53.8308%,18.8403%,1)"/>
  <circle cx="8" cy="4" r="1" fill="srgba(2.56657%,53.8262%,18.8418%,1)"/>
  <circle cx="9" cy="4" r="1" fill="srgba(2.75578%,53.7194%,18.822%,1)"/>
  <circle cx="10" cy="4" r="1" fill="srgba(7,137,48,1)"/>
  <circle cx="11" cy="4" r="1" fill="srgba(7,137,48,1)"/>
  <circle cx="12" cy="4" r="1" fill="srgba(7,137,48,1)"/>
  <circle cx="13" cy="4" r="1" fill="srgba(7,137,48,1)"/>
  <circle cx="14" cy="4" r="1" fill="srgba(7,137,48,1)"/>
  <circle cx="15" cy="4" r="1" fill="srgba(7,137,48,1)"/>
  <circle cx="0" cy="5" r="1" fill="srgba(252,221,9,1)"/>
  <circle cx="1" cy="5" r="1" fill="srgba(252,221,9,1)"/>
  <circle cx="2" cy="5" r="1" fill="srgba(98.8113%,86.6621%,3.53246%,1)"/>
  <circle cx="3" cy="5" r="1" fill="srgba(99.2477%,86.8177%,3.44549%,1)"/>
  <circle cx="4" cy="5" r="1" fill="srgba(96.6262%,85.9678%,3.99329%,1)"/>
  <circle cx="5" cy="5" r="1" fill="srgba(51.3008%,70.4585%,11.6045%,1)"/>
  <circle cx="6" cy="5" r="1" fill="srgba(4.91951%,54.7433%,18.5946%,1)"/>
  <circle cx="7" cy="5" r="1" fill="srgba(5.10719%,51.9982%,18.5885%,1)"/>
  <circle cx="8" cy="5" r="1" fill="srgba(5.55123%,52.1538%,18.5306%,1)"/>
  <circle cx="9" cy="5" r="1" fill="srgba(2.46433%,53.8842%,18.8525%,1)"/>
  <circle cx="10" cy="5" r="1" fill="srgba(2.72374%,53.7377%,18.8251%,1)"/>
  <circle cx="11" cy="5" r="1" fill="srgba(2.74662%,53.7255%,18.8235%,1)"/>
  <circle cx="12" cy="5" r="1" fill="srgba(7,137,48,1)"/>
  <circle cx="13" cy="5" r="1" fill="srgba(7,137,48,1)"/>
  <circle cx="14" cy="5" r="1" fill="srgba(7,137,48,1)"/>
  <circle cx="15" cy="5" r="1" fill="srgba(7,137,48,1)"/>
  <circle cx="0" cy="6" r="1" fill="srgba(252,221,9,1)"/>
  <circle cx="1" cy="6" r="1" fill="srgba(252,221,9,1)"/>
  <circle cx="2" cy="6" r="1" fill="srgba(252,221,9,1)"/>
  <circle cx="3" cy="6" r="1" fill="srgba(98.8113%,86.6621%,3.53246%,1)"/>
  <circle cx="4" cy="6" r="1" fill="srgba(99.2538%,86.8513%,3.44244%,1)"/>
  <circle cx="5" cy="6" r="1" fill="srgba(96.5332%,85.4139%,4.04059%,1)"/>
  <circle cx="6" cy="6" r="1" fill="srgba(49.8436%,68.8869%,11.8975%,1)"/>
  <circle cx="7" cy="6" r="1" fill="srgba(30.367%,40.2838%,15.9319%,1)"/>
  <circle cx="8" cy="6" r="1" fill="srgba(27.8325%,39.4034%,16.2112%,1)"/>
  <circle cx="9" cy="6" r="1" fill="srgba(3.90631%,53.0694%,18.703%,1)"/>
  <circle cx="10" cy="6" r="1" fill="srgba(3.32036%,53.4005%,18.764%,1)"/>
  <circle cx="11" cy="6" r="1" fill="srgba(2.71153%,53.7453%,18.8266%,1)"/>
  <circle cx="12" cy="6" r="1" fill="srgba(7,137,48,1)"/>
  <circle cx="13" cy="6" r="1" fill="srgba(7,137,48,1)"/>
  <circle cx="14" cy="6" r="1" fill="srgba(7,137,48,1)"/>
  <circle cx="15" cy="6" r="1" fill="srgba(7,137,48,1)"/>
  <circle cx="0" cy="7" r="1" fill="srgba(252,221,9,1)"/>
  <circle cx="1" cy="7" r="1" fill="srgba(252,221,9,1)"/>
  <circle cx="2" cy="7" r="1" fill="srgba(252,221,9,1)"/>
  <circle cx="3" cy="7" r="1" fill="srgba(252,221,9,1)"/>
  <circle cx="4" cy="7" r="1" fill="srgba(98.8464%,86.8711%,3.51415%,1)"/>
  <circle cx="5" cy="7" r="1" fill="srgba(98.7503%,83.7415%,3.70336%,1)"/>
  <circle cx="6" cy="7" r="1" fill="srgba(90.0267%,52.0073%,6.96269%,1)"/>
  <circle cx="7" cy="7" r="1" fill="srgba(77.1969%,16.3226%,10.9117%,1)"/>
  <circle cx="8" cy="7" r="1" fill="srgba(71.5053%,14.3542%,11.6838%,1)"/>
  <circle cx="9" cy="7" r="1" fill="srgba(37.6455%,34.0322%,15.1843%,1)"/>
  <circle cx="10" cy="7" r="1" fill="srgba(5.94034%,51.9234%,18.4909%,1)"/>
  <circle cx="11" cy="7" r="1" fill="srgba(2.52842%,53.8476%,18.8464%,1)"/>
  <circle cx="12" cy="7" r="1" fill="srgba(7,137,48,1)"/>
  <circle cx="13" cy="7" r="1" fill="srgba(7,137,48,1)"/>
  <circle cx="14" cy="7" r="1" fill="srgba(7,137,48,1)"/>
  <circle cx="15" cy="7" r="1" fill="srgba(7,137,48,1)"/>
  <circle cx="0" cy="8" r="1" fill="srgba(252,221,9,1)"/>
  <circle cx="1" cy="8" r="1" fill="srgba(252,221,9,1)"/>
  <circle cx="2" cy="8" r="1" fill="srgba(252,221,9,1)"/>
  <circle cx="3" cy="8" r="1" fill="srgba(252,221,9,1)"/>
  <circle cx="4" cy="8" r="1" fill="srgba(98.8251%,86.6712%,3.52941%,1)"/>
  <circle cx="5" cy="8" r="1" fill="srgba(98.9197%,87.3121%,3.47753%,1)"/>
  <circle cx="6" cy="8" r="1" fill="srgba(96.5469%,71.7556%,4.74098%,1)"/>
  <circle cx="7" cy="8" r="1" fill="srgba(88.5237%,17.9431%,9.10964%,1)"/>
  <circle cx="8" cy="8" r="1" fill="srgba(78.0758%,14.3664%,10.7942%,1)"/>
  <circle cx="9" cy="8" r="1" fill="srgba(17.3922%,44.6265%,17.3831%,1)"/>
  <circle cx="10" cy="8" r="1" fill="srgba(1.83413%,54.0246%,18.9242%,1)"/>
  <circle cx="11" cy="8" r="1" fill="srgba(2.75273%,53.7331%,18.822%,1)"/>
  <circle cx="12" cy="8" r="1" fill="srgba(7,137,48,1)"/>
  <circle cx="13" cy="8" r="1" fill="srgba(7,137,48,1)"/>
  <circle cx="14" cy="8" r="1" fill="srgba(7,137,48,1)"/>
  <circle cx="15" cy="8" r="1" fill="srgba(7,137,48,1)"/>
  <circle cx="0" cy="9" r="1" fill="srgba(252,221,9,1)"/>
  <circle cx="1" cy="9" r="1" fill="srgba(252,221,9,1)"/>
  <circle cx="2" cy="9" r="1" fill="srgba(252,221,9,1)"/>
  <circle cx="3" cy="9" r="1" fill="srgba(252,221,9,1)"/>
  <circle cx="4" cy="9" r="1" fill="srgba(252,221,9,1)"/>
  <circle cx="5" cy="9" r="1" fill="srgba(98.9364%,87.3381%,3.47295%,1)"/>
  <circle cx="6" cy="9" r="1" fill="srgba(96.7102%,74.052%,4.58534%,1)"/>
  <circle cx="7" cy="9" r="1" fill="srgba(94.9294%,62.6459%,5.52071%,1)"/>
  <circle cx="8" cy="9" r="1" fill="srgba(93.3089%,62.0951%,5.81827%,1)"/>
  <circle cx="9" cy="9" r="1" fill="srgba(50.0496%,58.117%,12.4483%,1)"/>
  <circle cx="10" cy="9" r="1" fill="srgba(5.14076%,55.1965%,18.5412%,1)"/>
  <circle cx="11" cy="9" r="1" fill="srgba(2.27207%,53.5622%,18.8861%,1)"/>
  <circle cx="12" cy="9" r="1" fill="srgba(2.75883%,53.7301%,18.822%,1)"/>
  <circle cx="13" cy="9" r="1" fill="srgba(7,137,48,1)"/>
  <circle cx="14" cy="9" r="1" fill="srgba(7,137,48,1)"/>
  <circle cx="15" cy="9" r="1" fill="srgba(7,137,48,1)"/>
  <circle cx="0" cy="10" r="1" fill="srgba(252,221,9,1)"/>
  <circle cx="1" cy="10" r="1" fill="srgba(252,221,9,1)"/>
  <circle cx="2" cy="10" r="1" fill="srgba(252,221,9,1)"/>
  <circle cx="3" cy="10" r="1" fill="srgba(252,221,9,1)"/>
  <circle cx="4" cy="10" r="1" fill="srgba(252,221,9,1)"/>
  <circle cx="5" cy="10" r="1" fill="srgba(98.8266%,86.6819%,3.52789%,1)"/>
  <circle cx="6" cy="10" r="1" fill="srgba(98.7137%,86.0121%,3.58434%,1)"/>
  <circle cx="7" cy="10" r="1" fill="srgba(98.9166%,87.2679%,3.48058%,1)"/>
  <circle cx="8" cy="10" r="1" fill="srgba(99.2737%,87.3915%,3.41497%,1)"/>
  <circle cx="9" cy="10" r="1" fill="srgba(96.5026%,85.2888%,4.065%,1)"/>
  <circle cx="10" cy="10" r="1" fill="srgba(51.3039%,70.4555%,11.6045%,1)"/>
  <circle cx="11" cy="10" r="1" fill="srgba(5.09651%,54.5495%,18.5809%,1)"/>
  <circle cx="12" cy="10" r="1" fill="srgba(2.27207%,53.5622%,18.8861%,1)"/>
  <circle cx="13" cy="10" r="1" fill="srgba(2.75883%,53.7301%,18.822%,1)"/>
  <circle cx="14" cy="10" r="1" fill="srgba(7,137,48,1)"/>
  <circle cx="15" cy="10" r="1" fill="srgba(7,137,48,1)"/>
  <circle cx="0" cy="11" r="1" fill="srgba(252,221,9,1)"/>
  <circle cx="1" cy="11" r="1" fill="srgba(252,221,9,1)"/>
  <circle cx="2" cy="11" r="1" fill="srgba(252,221,9,1)"/>
  <circle cx="3" cy="11" r="1" fill="srgba(252,221,9,1)"/>
  <circle cx="4" cy="11" r="1" fill="srgba(252,221,9,1)"/>
  <circle cx="5" cy="11" r="1" fill="srgba(98.8235%,86.6651%,3.52941%,1)"/>
  <circle cx="6" cy="11" r="1" fill="srgba(98.8296%,86.7048%,3.52636%,1)"/>
  <circle cx="7" cy="11" r="1" fill="srgba(98.8251%,86.6789%,3.52789%,1)"/>
  <circle cx="8" cy="11" r="1" fill="srgba(98.8144%,86.6743%,3.53094%,1)"/>
  <circle cx="9" cy="11" r="1" fill="srgba(99.2538%,86.8559%,3.44244%,1)"/>
  <circle cx="10" cy="11" r="1" fill="srgba(96.6262%,85.9678%,3.99329%,1)"/>
  <circle cx="11" cy="11" r="1" fill="srgba(51.2978%,70.4387%,11.606%,1)"/>
  <circle cx="12" cy="11" r="1" fill="srgba(5.09651%,54.5495%,18.5809%,1)"/>
  <circle cx="13" cy="11" r="1" fill="srgba(2.27207%,53.5622%,18.8861%,1)"/>
  <circle cx="14" cy="11" r="1" fill="srgba(2.75883%,53.7301%,18.822%,1)"/>
  <circle cx="15" cy="11" r="1" fill="srgba(7,137,48,1)"/>
  <circle cx="0" cy="12" r="1" fill="srgba(252,221,9,1)"/>
  <circle cx="1" cy="12" r="1" fill="srgba(252,221,9,1)"/>
  <circle cx="2" cy="12" r="1" fill="srgba(252,221,9,1)"/>
  <circle cx="3" cy="12" r="1" fill="srgba(252,221,9,1)"/>
  <circle cx="4" cy="12" r="1" fill="srgba(252,221,9,1)"/>
  <circle cx="5" cy="12" r="1" fill="srgba(252,221,9,1)"/>
  <circle cx="6" cy="12" r="1" fill="srgba(252,221,9,1)"/>
  <circle cx="7" cy="12" r="1" fill="srgba(252,221,9,1)"/>
  <circle cx="8" cy="12" r="1" fill="srgba(252,221,9,1)"/>
  <circle cx="9" cy="12" r="1" fill="srgba(98.8113%,86.6621%,3.53246%,1)"/>
  <circle cx="10" cy="12" r="1" fill="srgba(99.2477%,86.8177%,3.44549%,1)"/>
  <circle cx="11" cy="12" r="1" fill="srgba(96.6262%,85.9678%,3.99329%,1)"/>
  <circle cx="12" cy="12" r="1" fill="srgba(51.2978%,70.4387%,11.606%,1)"/>
  <circle cx="13" cy="12" r="1" fill="srgba(5.09651%,54.5495%,18.5809%,1)"/>
  <circle cx="14" cy="12" r="1" fill="srgba(2.27665%,53.5622%,18.8846%,1)"/>
  <circle cx="15" cy="12" r="1" fill="srgba(2.76036%,53.7301%,18.822%,1)"/>
  <circle cx="0" cy="13" r="1" fill="srgba(252,221,9,1)"/>
  <circle cx="1" cy="13" r="1" fill="srgba(252,221,9,1)"/>
  <circle cx="2" cy="13" r="1" fill="srgba(252,221,9,1)"/>
  <circle cx="3" cy="13" r="1" fill="srgba(252,221,9,1)"/>
  <circle cx="4" cy="13" r="1" fill="srgba(252,221,9,1)"/>
  <circle cx="5" cy="13" r="1" fill="srgba(252,221,9,1)"/>
  <circle cx="6" cy="13" r="1" fill="srgba(252,221,9,1)"/>
  <circle cx="7" cy="13" r="1" fill="srgba(252,221,9,1)"/>
  <circle cx="8" cy="13" r="1" fill="srgba(252,221,9,1)"/>
  <circle cx="9" cy="13" r="1" fill="srgba(252,221,9,1)"/>
  <circle cx="10" cy="13" r="1" fill="srgba(98.8113%,86.6621%,3.53246%,1)"/>
  <circle cx="11" cy="13" r="1" fill="srgba(99.2477%,86.8177%,3.44549%,1)"/>
  <circle cx="12" cy="13" r="1" fill="srgba(96.6262%,85.9678%,3.99329%,1)"/>
  <circle cx="13" cy="13" r="1" fill="srgba(51.2978%,70.4387%,11.606%,1)"/>
  <circle cx="14" cy="13" r="1" fill="srgba(5.0782%,54.5418%,18.584%,1)"/>
  <circle cx="15" cy="13" r="1" fill="srgba(2.20798%,53.5393%,18.8937%,1)"/>
  <circle cx="0" cy="14" r="1" fill="srgba(252,221,9,1)"/>
  <circle cx="1" cy="14" r="1" fill="srgba(252,221,9,1)"/>
  <circle cx="2" cy="14" r="1" fill="srgba(252,221,9,1)"/>
  <circle cx="3" cy="14" r="1" fill="srgba(252,221,9,1)"/>
  <circle cx="4" cy="14" r="1" fill="srgba(252,221,9,1)"/>
  <circle cx="5" cy="14" r="1" fill="srgba(252,221,9,1)"/>
  <circle cx="6" cy="14" r="1" fill="srgba(252,221,9,1)"/>
  <circle cx="7" cy="14" r="1" fill="srgba(252,221,9,1)"/>
  <circle cx="8" cy="14" r="1" fill="srgba(252,221,9,1)"/>
  <circle cx="9" cy="14" r="1" fill="srgba(252,221,9,1)"/>
  <circle cx="10" cy="14" r="1" fill="srgba(252,221,9,1)"/>
  <circle cx="11" cy="14" r="1" fill="srgba(98.8113%,86.6621%,3.53246%,1)"/>
  <circle cx="12" cy="14" r="1" fill="srgba(99.2447%,86.8177%,3.44549%,1)"/>
  <circle cx="13" cy="14" r="1" fill="srgba(96.6461%,85.9739%,3.99023%,1)"/>
  <circle cx="14" cy="14" r="1" fill="srgba(51.2902%,70.4341%,11.5999%,1)"/>
  <circle cx="15" cy="14" r="1" fill="srgba(6.19669%,54.9279%,18.4253%,1)"/>
  <circle cx="0" cy="15" r="1" fill="srgba(252,221,9,1)"/>
  <circle cx="1" cy="15" r="1" fill="srgba(252,221,9,1)"/>
  <circle cx="2" cy="15" r="1" fill="srgba(252,221,9,1)"/>
  <circle cx="3" cy="15" r="1" fill="srgba(252,221,9,1)"/>
  <circle cx="4" cy="15" r="1" fill="srgba(252,221,9,1)"/>
  <circle cx="5" cy="15" r="1" fill="srgba(252,221,9,1)"/>
  <circle cx="6" cy="15" r="1" fill="srgba(252,221,9,1)"/>
  <circle cx="7" cy="15" r="1" fill="srgba(252,221,9,1)"/>
  <circle cx="8" cy="15" r="1" fill="srgba(252,221,9,1)"/>
  <circle cx="9" cy="15" r="1" fill="srgba(252,221,9,1)"/>
  <circle cx="10" cy="15" r="1" fill="srgba(252,221,9,1)"/>
  <circle cx="11" cy="15" r="1" fill="srgba(252,221,9,1)"/>
  <circle cx="12" cy="15" r="1" fill="srgba(98.8113%,86.6621%,3.53246%,1)"/>
  <circle cx="13" cy="15" r="1" fill="srgba(99.292%,86.8391%,3.43328%,1)"/>
  <circle cx="14" cy="15" r="1" fill="srgba(95.4955%,85.6077%,4.1825%,1)"/>
  <circle cx="15" cy="15" r="1" fill="srgba(51.4015%,70.4875%,11.6945%,1)"/>
</svg>
