<?xml version="1.0" standalone="no"?>
<!DOCTYPE svg PUBLIC "-//W3C//DTD SVG 20010904//EN"
  "http://www.w3.org/TR/2001/REC-SVG-20010904/DTD/svg10.dtd">
<svg width="16" height="16">
  <circle cx="0" cy="0" r="1" fill="white"/>
  <circle cx="1" cy="0" r="1" fill="white"/>
  <circle cx="2" cy="0" r="1" fill="white"/>
  <circle cx="3" cy="0" r="1" fill="white"/>
  <circle cx="4" cy="0" r="1" fill="white"/>
  <circle cx="5" cy="0" r="1" fill="white"/>
  <circle cx="6" cy="0" r="1" fill="srgba(96.8032%,66.8757%,70.7744%,1)"/>
  <circle cx="7" cy="0" r="1" fill="srgba(91.017%,7.03899%,17.9767%,1)"/>
  <circle cx="8" cy="0" r="1" fill="srgba(91.017%,7.03899%,17.9767%,1)"/>
  <circle cx="9" cy="0" r="1" fill="srgba(96.8032%,66.8757%,70.7744%,1)"/>
  <circle cx="10" cy="0" r="1" fill="white"/>
  <circle cx="11" cy="0" r="1" fill="white"/>
  <circle cx="12" cy="0" r="1" fill="white"/>
  <circle cx="13" cy="0" r="1" fill="white"/>
  <circle cx="14" cy="0" r="1" fill="white"/>
  <circle cx="15" cy="0" r="1" fill="white"/>
  <circle cx="0" cy="1" r="1" fill="white"/>
  <circle cx="1" cy="1" r="1" fill="white"/>
  <circle cx="2" cy="1" r="1" fill="white"/>
  <circle cx="3" cy="1" r="1" fill="white"/>
  <circle cx="4" cy="1" r="1" fill="white"/>
  <circle cx="5" cy="1" r="1" fill="white"/>
  <circle cx="6" cy="1" r="1" fill="srgba(96.8032%,66.8757%,70.7744%,1)"/>
  <circle cx="7" cy="1" r="1" fill="srgba(91.017%,7.03899%,17.9767%,1)"/>
  <circle cx="8" cy="1" r="1" fill="srgba(91.017%,7.03899%,17.9767%,1)"/>
  <circle cx="9" cy="1" r="1" fill="srgba(96.8032%,66.8757%,70.7744%,1)"/>
  <circle cx="10" cy="1" r="1" fill="white"/>
  <circle cx="11" cy="1" r="1" fill="white"/>
  <circle cx="12" cy="1" r="1" fill="white"/>
  <circle cx="13" cy="1" r="1" fill="white"/>
  <circle cx="14" cy="1" r="1" fill="white"/>
  <circle cx="15" cy="1" r="1" fill="white"/>
  <circle cx="0" cy="2" r="1" fill="white"/>
  <circle cx="1" cy="2" r="1" fill="white"/>
  <circle cx="2" cy="2" r="1" fill="white"/>
  <circle cx="3" cy="2" r="1" fill="white"/>
  <circle cx="4" cy="2" r="1" fill="white"/>
  <circle cx="5" cy="2" r="1" fill="white"/>
  <circle cx="6" cy="2" r="1" fill="srgba(96.8017%,66.8605%,70.7759%,1)"/>
  <circle cx="7" cy="2" r="1" fill="srgba(90.9804%,6.58885%,18.027%,1)"/>
  <circle cx="8" cy="2" r="1" fill="srgba(90.9804%,6.58885%,18.027%,1)"/>
  <circle cx="9" cy="2" r="1" fill="srgba(96.8017%,66.8605%,70.7759%,1)"/>
  <circle cx="10" cy="2" r="1" fill="white"/>
  <circle cx="11" cy="2" r="1" fill="white"/>
  <circle cx="12" cy="2" r="1" fill="white"/>
  <circle cx="13" cy="2" r="1" fill="white"/>
  <circle cx="14" cy="2" r="1" fill="white"/>
  <circle cx="15" cy="2" r="1" fill="white"/>
  <circle cx="0" cy="3" r="1" fill="white"/>
  <circle cx="1" cy="3" r="1" fill="white"/>
  <circle cx="2" cy="3" r="1" fill="white"/>
  <circle cx="3" cy="3" r="1" fill="white"/>
  <circle cx="4" cy="3" r="1" fill="white"/>
  <circle cx="5" cy="3" r="1" fill="white"/>
  <circle cx="6" cy="3" r="1" fill="srgba(96.8246%,67.1229%,70.7469%,1)"/>
  <circle cx="7" cy="3" r="1" fill="srgba(91.5984%,14.0139%,17.1893%,1)"/>
  <circle cx="8" cy="3" r="1" fill="srgba(91.5984%,14.0124%,17.1893%,1)"/>
  <circle cx="9" cy="3" r="1" fill="srgba(96.8246%,67.1229%,70.7469%,1)"/>
  <circle cx="10" cy="3" r="1" fill="white"/>
  <circle cx="11" cy="3" r="1" fill="white"/>
  <circle cx="12" cy="3" r="1" fill="white"/>
  <circle cx="13" cy="3" r="1" fill="white"/>
  <circle cx="14" cy="3" r="1" fill="white"/>
  <circle cx="15" cy="3" r="1" fill="white"/>
  <circle cx="0" cy="4" r="1" fill="white"/>
  <circle cx="1" cy="4" r="1" fill="white"/>
  <circle cx="2" cy="4" r="1" fill="white"/>
  <circle cx="3" cy="4" r="1" fill="white"/>
  <circle cx="4" cy="4" r="1" fill="white"/>
  <circle cx="5" cy="4" r="1" fill="white"/>
  <circle cx="6" cy="4" r="1" fill="srgba(96.762%,66.3813%,70.8309%,1)"/>
  <circle cx="7" cy="4" r="1" fill="srgba(94.1146%,44.2039%,13.7865%,1)"/>
  <circle cx="8" cy="4" r="1" fill="srgba(94.1146%,44.2023%,13.7865%,1)"/>
  <circle cx="9" cy="4" r="1" fill="srgba(96.762%,66.3813%,70.8309%,1)"/>
  <circle cx="10" cy="4" r="1" fill="white"/>
  <circle cx="11" cy="4" r="1" fill="white"/>
  <circle cx="12" cy="4" r="1" fill="white"/>
  <circle cx="13" cy="4" r="1" fill="white"/>
  <circle cx="14" cy="4" r="1" fill="white"/>
  <circle cx="15" cy="4" r="1" fill="white"/>
  <circle cx="0" cy="5" r="1" fill="white"/>
  <circle cx="1" cy="5" r="1" fill="white"/>
  <circle cx="2" cy="5" r="1" fill="white"/>
  <circle cx="3" cy="5" r="1" fill="white"/>
  <circle cx="4" cy="5" r="1" fill="white"/>
  <circle cx="5" cy="5" r="1" fill="white"/>
  <circle cx="6" cy="5" r="1" fill="srgba(96.6934%,65.5512%,70.9377%,1)"/>
  <circle cx="7" cy="5" r="1" fill="srgba(94.0993%,43.9796%,13.8155%,1)"/>
  <circle cx="8" cy="5" r="1" fill="srgba(94.0993%,43.9796%,13.8155%,1)"/>
  <circle cx="9" cy="5" r="1" fill="srgba(96.6934%,65.5512%,70.9377%,1)"/>
  <circle cx="10" cy="5" r="1" fill="white"/>
  <circle cx="11" cy="5" r="1" fill="white"/>
  <circle cx="12" cy="5" r="1" fill="white"/>
  <circle cx="13" cy="5" r="1" fill="white"/>
  <circle cx="14" cy="5" r="1" fill="white"/>
  <circle cx="15" cy="5" r="1" fill="white"/>
  <circle cx="0" cy="6" r="1" fill="srgba(96.8032%,66.8757%,70.7744%,1)"/>
  <circle cx="1" cy="6" r="1" fill="srgba(96.8032%,66.8757%,70.7744%,1)"/>
  <circle cx="2" cy="6" r="1" fill="srgba(96.8017%,66.8589%,70.7759%,1)"/>
  <circle cx="3" cy="6" r="1" fill="srgba(96.8246%,67.1275%,70.7454%,1)"/>
  <circle cx="4" cy="6" r="1" fill="srgba(96.7636%,66.3935%,70.8293%,1)"/>
  <circle cx="5" cy="6" r="1" fill="srgba(96.7941%,66.5888%,71.8502%,1)"/>
  <circle cx="6" cy="6" r="1" fill="srgba(94.522%,42.8962%,52.2164%,1)"/>
  <circle cx="7" cy="6" r="1" fill="srgba(94.02%,43.0579%,13.785%,1)"/>
  <circle cx="8" cy="6" r="1" fill="srgba(94.02%,43.0579%,13.785%,1)"/>
  <circle cx="9" cy="6" r="1" fill="srgba(94.522%,42.8962%,52.2164%,1)"/>
  <circle cx="10" cy="6" r="1" fill="srgba(96.7941%,66.5888%,71.8502%,1)"/>
  <circle cx="11" cy="6" r="1" fill="srgba(96.7636%,66.3935%,70.8293%,1)"/>
  <circle cx="12" cy="6" r="1" fill="srgba(96.8246%,67.1275%,70.7454%,1)"/>
  <circle cx="13" cy="6" r="1" fill="srgba(96.8017%,66.8589%,70.7759%,1)"/>
  <circle cx="14" cy="6" r="1" fill="srgba(96.8032%,66.8757%,70.7744%,1)"/>
  <circle cx="15" cy="6" r="1" fill="srgba(96.8032%,66.8757%,70.7744%,1)"/>
  <circle cx="0" cy="7" r="1" fill="srgba(91.017%,7.03899%,17.9767%,1)"/>
  <circle cx="1" cy="7" r="1" fill="srgba(91.017%,7.03899%,17.9767%,1)"/>
  <circle cx="2" cy="7" r="1" fill="srgba(90.9789%,6.58885%,18.027%,1)"/>
  <circle cx="3" cy="7" r="1" fill="srgba(91.5999%,14.0307%,17.1878%,1)"/>
  <circle cx="4" cy="7" r="1" fill="srgba(94.1207%,44.3076%,13.7728%,1)"/>
  <circle cx="5" cy="7" r="1" fill="srgba(94.0993%,44.0757%,13.8064%,1)"/>
  <circle cx="6" cy="7" r="1" fill="srgba(94.02%,43.151%,13.7728%,1)"/>
  <circle cx="7" cy="7" r="1" fill="srgba(95.7107%,63.447%,11.2474%,1)"/>
  <circle cx="8" cy="7" r="1" fill="srgba(95.7107%,63.4485%,11.2474%,1)"/>
  <circle cx="9" cy="7" r="1" fill="srgba(94.02%,43.151%,13.7728%,1)"/>
  <circle cx="10" cy="7" r="1" fill="srgba(94.0993%,44.0757%,13.8064%,1)"/>
  <circle cx="11" cy="7" r="1" fill="srgba(94.1207%,44.3107%,13.7713%,1)"/>
  <circle cx="12" cy="7" r="1" fill="srgba(91.5999%,14.0307%,17.1878%,1)"/>
  <circle cx="13" cy="7" r="1" fill="srgba(90.9789%,6.58885%,18.027%,1)"/>
  <circle cx="14" cy="7" r="1" fill="srgba(91.017%,7.03899%,17.9767%,1)"/>
  <circle cx="15" cy="7" r="1" fill="srgba(91.017%,7.03899%,17.9767%,1)"/>
  <circle cx="0" cy="8" r="1" fill="srgba(91.017%,7.03899%,17.9767%,1)"/>
  <circle cx="1" cy="8" r="1" fill="srgba(91.017%,7.03899%,17.9767%,1)"/>
  <circle cx="2" cy="8" r="1" fill="srgba(90.9789%,6.59037%,18.027%,1)"/>
  <circle cx="3" cy="8" r="1" fill="srgba(91.5984%,14.0063%,17.1908%,1)"/>
  <circle cx="4" cy="8" r="1" fill="srgba(94.1176%,44.1749%,13.7865%,1)"/>
  <circle cx="5" cy="8" r="1" fill="srgba(94.0993%,43.9475%,13.817%,1)"/>
  <circle cx="6" cy="8" r="1" fill="srgba(94.02%,43.0213%,13.7835%,1)"/>
  <circle cx="7" cy="8" r="1" fill="srgba(95.7107%,63.3783%,11.252%,1)"/>
  <circle cx="8" cy="8" r="1" fill="srgba(95.7107%,63.3783%,11.252%,1)"/>
  <circle cx="9" cy="8" r="1" fill="srgba(94.02%,43.0213%,13.7835%,1)"/>
  <circle cx="10" cy="8" r="1" fill="srgba(94.0993%,43.9475%,13.817%,1)"/>
  <circle cx="11" cy="8" r="1" fill="srgba(94.1161%,44.1779%,13.7865%,1)"/>
  <circle cx="12" cy="8" r="1" fill="srgba(91.5984%,14.0078%,17.1908%,1)"/>
  <circle cx="13" cy="8" r="1" fill="srgba(90.9789%,6.59037%,18.027%,1)"/>
  <circle cx="14" cy="8" r="1" fill="srgba(91.017%,7.03899%,17.9767%,1)"/>
  <circle cx="15" cy="8" r="1" fill="srgba(91.017%,7.03899%,17.9767%,1)"/>
  <circle cx="0" cy="9" r="1" fill="srgba(96.8032%,66.8757%,70.7744%,1)"/>
  <circle cx="1" cy="9" r="1" fill="srgba(96.8032%,66.8757%,70.7744%,1)"/>
  <circle cx="2" cy="9" r="1" fill="srgba(96.8017%,66.8589%,70.7759%,1)"/>
  <circle cx="3" cy="9" r="1" fill="srgba(96.8231%,67.1199%,70.7469%,1)"/>
  <circle cx="4" cy="9" r="1" fill="srgba(96.7636%,66.3767%,70.8309%,1)"/>
  <circle cx="5" cy="9" r="1" fill="srgba(96.7941%,66.5827%,71.8502%,1)"/>
  <circle cx="6" cy="9" r="1" fill="srgba(94.522%,42.8916%,52.2164%,1)"/>
  <circle cx="7" cy="9" r="1" fill="srgba(94.02%,43.0549%,13.785%,1)"/>
  <circle cx="8" cy="9" r="1" fill="srgba(94.02%,43.0549%,13.785%,1)"/>
  <circle cx="9" cy="9" r="1" fill="srgba(94.522%,42.8916%,52.2164%,1)"/>
  <circle cx="10" cy="9" r="1" fill="srgba(96.7941%,66.5827%,71.8502%,1)"/>
  <circle cx="11" cy="9" r="1" fill="srgba(96.7636%,66.3767%,70.8309%,1)"/>
  <circle cx="12" cy="9" r="1" fill="srgba(96.8231%,67.1199%,70.7469%,1)"/>
  <circle cx="13" cy="9" r="1" fill="srgba(96.8017%,66.8589%,70.7759%,1)"/>
  <circle cx="14" cy="9" r="1" fill="srgba(96.8032%,66.8757%,70.7744%,1)"/>
  <circle cx="15" cy="9" r="1" fill="srgba(96.8032%,66.8757%,70.7744%,1)"/>
  <circle cx="0" cy="10" r="1" fill="white"/>
  <circle cx="1" cy="10" r="1" fill="white"/>
  <circle cx="2" cy="10" r="1" fill="white"/>
  <circle cx="3" cy="10" r="1" fill="white"/>
  <circle cx="4" cy="10" r="1" fill="white"/>
  <circle cx="5" cy="10" r="1" fill="white"/>
  <circle cx="6" cy="10" r="1" fill="srgba(96.6934%,65.5512%,70.9377%,1)"/>
  <circle cx="7" cy="10" r="1" fill="srgba(94.0993%,43.978%,13.8155%,1)"/>
  <circle cx="8" cy="10" r="1" fill="srgba(94.0993%,43.978%,13.8155%,1)"/>
  <circle cx="9" cy="10" r="1" fill="srgba(96.6934%,65.5512%,70.9377%,1)"/>
  <circle cx="10" cy="10" r="1" fill="white"/>
  <circle cx="11" cy="10" r="1" fill="white"/>
  <circle cx="12" cy="10" r="1" fill="white"/>
  <circle cx="13" cy="10" r="1" fill="white"/>
  <circle cx="14" cy="10" r="1" fill="white"/>
  <circle cx="15" cy="10" r="1" fill="white"/>
  <circle cx="0" cy="11" r="1" fill="white"/>
  <circle cx="1" cy="11" r="1" fill="white"/>
  <circle cx="2" cy="11" r="1" fill="white"/>
  <circle cx="3" cy="11" r="1" fill="white"/>
  <circle cx="4" cy="11" r="1" fill="white"/>
  <circle cx="5" cy="11" r="1" fill="white"/>
  <circle cx="6" cy="11" r="1" fill="srgba(96.7636%,66.3874%,70.8293%,1)"/>
  <circle cx="7" cy="11" r="1" fill="srgba(94.1192%,44.2481%,13.7804%,1)"/>
  <circle cx="8" cy="11" r="1" fill="srgba(94.1192%,44.2451%,13.7804%,1)"/>
  <circle cx="9" cy="11" r="1" fill="srgba(96.762%,66.3874%,70.8293%,1)"/>
  <circle cx="10" cy="11" r="1" fill="white"/>
  <circle cx="11" cy="11" r="1" fill="white"/>
  <circle cx="12" cy="11" r="1" fill="white"/>
  <circle cx="13" cy="11" r="1" fill="white"/>
  <circle cx="14" cy="11" r="1" fill="white"/>
  <circle cx="15" cy="11" r="1" fill="white"/>
  <circle cx="0" cy="12" r="1" fill="white"/>
  <circle cx="1" cy="12" r="1" fill="white"/>
  <circle cx="2" cy="12" r="1" fill="white"/>
  <circle cx="3" cy="12" r="1" fill="white"/>
  <circle cx="4" cy="12" r="1" fill="white"/>
  <circle cx="5" cy="12" r="1" fill="white"/>
  <circle cx="6" cy="12" r="1" fill="srgba(96.8246%,67.1244%,70.7469%,1)"/>
  <circle cx="7" cy="12" r="1" fill="srgba(91.5999%,14.0261%,17.1878%,1)"/>
  <circle cx="8" cy="12" r="1" fill="srgba(91.5999%,14.0246%,17.1878%,1)"/>
  <circle cx="9" cy="12" r="1" fill="srgba(96.8246%,67.1244%,70.7469%,1)"/>
  <circle cx="10" cy="12" r="1" fill="white"/>
  <circle cx="11" cy="12" r="1" fill="white"/>
  <circle cx="12" cy="12" r="1" fill="white"/>
  <circle cx="13" cy="12" r="1" fill="white"/>
  <circle cx="14" cy="12" r="1" fill="white"/>
  <circle cx="15" cy="12" r="1" fill="white"/>
  <circle cx="0" cy="13" r="1" fill="white"/>
  <circle cx="1" cy="13" r="1" fill="white"/>
  <circle cx="2" cy="13" r="1" fill="white"/>
  <circle cx="3" cy="13" r="1" fill="white"/>
  <circle cx="4" cy="13" r="1" fill="white"/>
  <circle cx="5" cy="13" r="1" fill="white"/>
  <circle cx="6" cy="13" r="1" fill="srgba(96.8017%,66.8589%,70.7774%,1)"/>
  <circle cx="7" cy="13" r="1" fill="srgba(90.9804%,6.58885%,18.027%,1)"/>
  <circle cx="8" cy="13" r="1" fill="srgba(90.9804%,6.58885%,18.027%,1)"/>
  <circle cx="9" cy="13" r="1" fill="srgba(96.8017%,66.8605%,70.7759%,1)"/>
  <circle cx="10" cy="13" r="1" fill="white"/>
  <circle cx="11" cy="13" r="1" fill="white"/>
  <circle cx="12" cy="13" r="1" fill="white"/>
  <circle cx="13" cy="13" r="1" fill="white"/>
  <circle cx="14" cy="13" r="1" fill="white"/>
  <circle cx="15" cy="13" r="1" fill="white"/>
  <circle cx="0" cy="14" r="1" fill="white"/>
  <circle cx="1" cy="14" r="1" fill="white"/>
  <circle cx="2" cy="14" r="1" fill="white"/>
  <circle cx="3" cy="14" r="1" fill="white"/>
  <circle cx="4" cy="14" r="1" fill="white"/>
  <circle cx="5" cy="14" r="1" fill="white"/>
  <circle cx="6" cy="14" r="1" fill="srgba(96.8032%,66.8757%,70.7744%,1)"/>
  <circle cx="7" cy="14" r="1" fill="srgba(91.017%,7.03899%,17.9767%,1)"/>
  <circle cx="8" cy="14" r="1" fill="srgba(91.017%,7.03899%,17.9767%,1)"/>
  <circle cx="9" cy="14" r="1" fill="srgba(96.8032%,66.8757%,70.7744%,1)"/>
  <circle cx="10" cy="14" r="1" fill="white"/>
  <circle cx="11" cy="14" r="1" fill="white"/>
  <circle cx="12" cy="14" r="1" fill="white"/>
  <circle cx="13" cy="14" r="1" fill="white"/>
  <circle cx="14" cy="14" r="1" fill="white"/>
  <circle cx="15" cy="14" r="1" fill="white"/>
  <circle cx="0" cy="15" r="1" fill="white"/>
  <circle cx="1" cy="15" r="1" fill="white"/>
  <circle cx="2" cy="15" r="1" fill="white"/>
  <circle cx="3" cy="15" r="1" fill="white"/>
  <circle cx="4" cy="15" r="1" fill="white"/>
  <circle cx="5" cy="15" r="1" fill="white"/>
  <circle cx="6" cy="15" r="1" fill="srgba(96.8032%,66.8757%,70.7744%,1)"/>
  <circle cx="7" cy="15" r="1" fill="srgba(91.017%,7.03899%,17.9767%,1)"/>
  <circle cx="8" cy="15" r="1" fill="srgba(91.017%,7.03899%,17.9767%,1)"/>
  <circle cx="9" cy="15" r="1" fill="srgba(96.8032%,66.8757%,70.7744%,1)"/>
  <circle cx="10" cy="15" r="1" fill="white"/>
  <circle cx="11" cy="15" r="1" fill="white"/>
  <circle cx="12" cy="15" r="1" fill="white"/>
  <circle cx="13" cy="15" r="1" fill="white"/>
  <circle cx="14" cy="15" r="1" fill="white"/>
  <circle cx="15" cy="15" r="1" fill="white"/>
</svg>
