<?xml version="1.0" standalone="no"?>
<!DOCTYPE svg PUBLIC "-//W3C//DTD SVG 20010904//EN"
  "http://www.w3.org/TR/2001/REC-SVG-20010904/DTD/svg10.dtd">
<svg width="16" height="16">
  <circle cx="0" cy="0" r="1" fill="srgba(206,17,38,1)"/>
  <circle cx="1" cy="0" r="1" fill="srgba(206,17,38,1)"/>
  <circle cx="2" cy="0" r="1" fill="srgba(206,17,38,1)"/>
  <circle cx="3" cy="0" r="1" fill="srgba(206,17,38,1)"/>
  <circle cx="4" cy="0" r="1" fill="srgba(206,17,38,1)"/>
  <circle cx="5" cy="0" r="1" fill="srgba(206,17,38,1)"/>
  <circle cx="6" cy="0" r="1" fill="srgba(206,17,38,1)"/>
  <circle cx="7" cy="0" r="1" fill="srgba(206,17,38,1)"/>
  <circle cx="8" cy="0" r="1" fill="srgba(206,17,38,1)"/>
  <circle cx="9" cy="0" r="1" fill="srgba(206,17,38,1)"/>
  <circle cx="10" cy="0" r="1" fill="srgba(206,17,38,1)"/>
  <circle cx="11" cy="0" r="1" fill="srgba(206,17,38,1)"/>
  <circle cx="12" cy="0" r="1" fill="srgba(206,17,38,1)"/>
  <circle cx="13" cy="0" r="1" fill="srgba(206,17,38,1)"/>
  <circle cx="14" cy="0" r="1" fill="srgba(206,17,38,1)"/>
  <circle cx="15" cy="0" r="1" fill="srgba(206,17,38,1)"/>
  <circle cx="0" cy="1" r="1" fill="srgba(206,17,38,1)"/>
  <circle cx="1" cy="1" r="1" fill="srgba(206,17,38,1)"/>
  <circle cx="2" cy="1" r="1" fill="srgba(206,17,38,1)"/>
  <circle cx="3" cy="1" r="1" fill="srgba(206,17,38,1)"/>
  <circle cx="4" cy="1" r="1" fill="srgba(206,17,38,1)"/>
  <circle cx="5" cy="1" r="1" fill="srgba(206,17,38,1)"/>
  <circle cx="6" cy="1" r="1" fill="srgba(206,17,38,1)"/>
  <circle cx="7" cy="1" r="1" fill="srgba(206,17,38,1)"/>
  <circle cx="8" cy="1" r="1" fill="srgba(206,17,38,1)"/>
  <circle cx="9" cy="1" r="1" fill="srgba(206,17,38,1)"/>
  <circle cx="10" cy="1" r="1" fill="srgba(206,17,38,1)"/>
  <circle cx="11" cy="1" r="1" fill="srgba(206,17,38,1)"/>
  <circle cx="12" cy="1" r="1" fill="srgba(206,17,38,1)"/>
  <circle cx="13" cy="1" r="1" fill="srgba(206,17,38,1)"/>
  <circle cx="14" cy="1" r="1" fill="srgba(206,17,38,1)"/>
  <circle cx="15" cy="1" r="1" fill="srgba(206,17,38,1)"/>
  <circle cx="0" cy="2" r="1" fill="srgba(206,17,38,1)"/>
  <circle cx="1" cy="2" r="1" fill="srgba(206,17,38,1)"/>
  <circle cx="2" cy="2" r="1" fill="srgba(206,17,38,1)"/>
  <circle cx="3" cy="2" r="1" fill="srgba(206,17,38,1)"/>
  <circle cx="4" cy="2" r="1" fill="srgba(206,17,38,1)"/>
  <circle cx="5" cy="2" r="1" fill="srgba(206,17,38,1)"/>
  <circle cx="6" cy="2" r="1" fill="srgba(206,17,38,1)"/>
  <circle cx="7" cy="2" r="1" fill="srgba(206,17,38,1)"/>
  <circle cx="8" cy="2" r="1" fill="srgba(206,17,38,1)"/>
  <circle cx="9" cy="2" r="1" fill="srgba(206,17,38,1)"/>
  <circle cx="10" cy="2" r="1" fill="srgba(206,17,38,1)"/>
  <circle cx="11" cy="2" r="1" fill="srgba(206,17,38,1)"/>
  <circle cx="12" cy="2" r="1" fill="srgba(206,17,38,1)"/>
  <circle cx="13" cy="2" r="1" fill="srgba(206,17,38,1)"/>
  <circle cx="14" cy="2" r="1" fill="srgba(206,17,38,1)"/>
  <circle cx="15" cy="2" r="1" fill="srgba(206,17,38,1)"/>
  <circle cx="0" cy="3" r="1" fill="srgba(80.7767%,6.6331%,14.905%,1)"/>
  <circle cx="1" cy="3" r="1" fill="srgba(80.7767%,6.6331%,14.905%,1)"/>
  <circle cx="2" cy="3" r="1" fill="srgba(80.7767%,6.6331%,14.905%,1)"/>
  <circle cx="3" cy="3" r="1" fill="srgba(80.7767%,6.6331%,14.905%,1)"/>
  <circle cx="4" cy="3" r="1" fill="srgba(80.7767%,6.6331%,14.905%,1)"/>
  <circle cx="5" cy="3" r="1" fill="srgba(80.7767%,6.6331%,14.905%,1)"/>
  <circle cx="6" cy="3" r="1" fill="srgba(80.7767%,6.6331%,14.905%,1)"/>
  <circle cx="7" cy="3" r="1" fill="srgba(80.7767%,6.6331%,14.905%,1)"/>
  <circle cx="8" cy="3" r="1" fill="srgba(80.7767%,6.6331%,14.905%,1)"/>
  <circle cx="9" cy="3" r="1" fill="srgba(80.7767%,6.6331%,14.905%,1)"/>
  <circle cx="10" cy="3" r="1" fill="srgba(80.7767%,6.6331%,14.905%,1)"/>
  <circle cx="11" cy="3" r="1" fill="srgba(80.7767%,6.6331%,14.905%,1)"/>
  <circle cx="12" cy="3" r="1" fill="srgba(80.7767%,6.6331%,14.905%,1)"/>
  <circle cx="13" cy="3" r="1" fill="srgba(80.7767%,6.6331%,14.905%,1)"/>
  <circle cx="14" cy="3" r="1" fill="srgba(80.7767%,6.6331%,14.905%,1)"/>
  <circle cx="15" cy="3" r="1" fill="srgba(80.7767%,6.6331%,14.905%,1)"/>
  <circle cx="0" cy="4" r="1" fill="srgba(80.8637%,7.00084%,14.873%,1)"/>
  <circle cx="1" cy="4" r="1" fill="srgba(80.8637%,7.00084%,14.873%,1)"/>
  <circle cx="2" cy="4" r="1" fill="srgba(80.8637%,7.00084%,14.873%,1)"/>
  <circle cx="3" cy="4" r="1" fill="srgba(80.8637%,7.00084%,14.873%,1)"/>
  <circle cx="4" cy="4" r="1" fill="srgba(80.8637%,7.00084%,14.873%,1)"/>
  <circle cx="5" cy="4" r="1" fill="srgba(80.8637%,7.00084%,14.873%,1)"/>
  <circle cx="6" cy="4" r="1" fill="srgba(80.8453%,6.98558%,14.8714%,1)"/>
  <circle cx="7" cy="4" r="1" fill="srgba(81.1841%,7.26635%,14.9004%,1)"/>
  <circle cx="8" cy="4" r="1" fill="srgba(81.1841%,7.26635%,14.9004%,1)"/>
  <circle cx="9" cy="4" r="1" fill="srgba(80.8453%,6.98558%,14.8714%,1)"/>
  <circle cx="10" cy="4" r="1" fill="srgba(80.8637%,7.00084%,14.873%,1)"/>
  <circle cx="11" cy="4" r="1" fill="srgba(80.8637%,7.00084%,14.873%,1)"/>
  <circle cx="12" cy="4" r="1" fill="srgba(80.8637%,7.00084%,14.873%,1)"/>
  <circle cx="13" cy="4" r="1" fill="srgba(80.8637%,7.00084%,14.873%,1)"/>
  <circle cx="14" cy="4" r="1" fill="srgba(80.8637%,7.00084%,14.873%,1)"/>
  <circle cx="15" cy="4" r="1" fill="srgba(80.8637%,7.00084%,14.873%,1)"/>
  <circle cx="0" cy="5" r="1" fill="srgba(92.4208%,55.2392%,10.8461%,1)"/>
  <circle cx="1" cy="5" r="1" fill="srgba(92.4208%,55.2392%,10.8461%,1)"/>
  <circle cx="2" cy="5" r="1" fill="srgba(92.4208%,55.2392%,10.8461%,1)"/>
  <circle cx="3" cy="5" r="1" fill="srgba(92.4208%,55.2392%,10.8461%,1)"/>
  <circle cx="4" cy="5" r="1" fill="srgba(92.4208%,55.2392%,10.8461%,1)"/>
  <circle cx="5" cy="5" r="1" fill="srgba(92.4361%,55.2529%,10.8476%,1)"/>
  <circle cx="6" cy="5" r="1" fill="srgba(92.9778%,55.7015%,10.8965%,1)"/>
  <circle cx="7" cy="5" r="1" fill="srgba(83.8224%,48.1071%,10.0954%,1)"/>
  <circle cx="8" cy="5" r="1" fill="srgba(83.8239%,48.1102%,10.0954%,1)"/>
  <circle cx="9" cy="5" r="1" fill="srgba(92.9778%,55.7015%,10.8965%,1)"/>
  <circle cx="10" cy="5" r="1" fill="srgba(92.4361%,55.2529%,10.8476%,1)"/>
  <circle cx="11" cy="5" r="1" fill="srgba(92.4208%,55.2392%,10.8461%,1)"/>
  <circle cx="12" cy="5" r="1" fill="srgba(92.4208%,55.2392%,10.8461%,1)"/>
  <circle cx="13" cy="5" r="1" fill="srgba(92.4208%,55.2392%,10.8461%,1)"/>
  <circle cx="14" cy="5" r="1" fill="srgba(92.4208%,55.2392%,10.8461%,1)"/>
  <circle cx="15" cy="5" r="1" fill="srgba(92.4208%,55.2392%,10.8461%,1)"/>
  <circle cx="0" cy="6" r="1" fill="srgba(99.1379%,83.2715%,8.51911%,1)"/>
  <circle cx="1" cy="6" r="1" fill="srgba(99.1379%,83.2715%,8.51911%,1)"/>
  <circle cx="2" cy="6" r="1" fill="srgba(99.1379%,83.2715%,8.51911%,1)"/>
  <circle cx="3" cy="6" r="1" fill="srgba(99.1394%,83.2731%,8.51911%,1)"/>
  <circle cx="4" cy="6" r="1" fill="srgba(99.1058%,83.2441%,8.51606%,1)"/>
  <circle cx="5" cy="6" r="1" fill="srgba(98.294%,82.5711%,8.44587%,1)"/>
  <circle cx="6" cy="6" r="1" fill="srgba(100%,84.2542%,8.62135%,1)"/>
  <circle cx="7" cy="6" r="1" fill="srgba(60.2899%,50.9712%,5.14229%,1)"/>
  <circle cx="8" cy="6" r="1" fill="srgba(60.296%,50.9773%,5.14382%,1)"/>
  <circle cx="9" cy="6" r="1" fill="srgba(100%,84.2542%,8.62135%,1)"/>
  <circle cx="10" cy="6" r="1" fill="srgba(98.294%,82.5711%,8.44587%,1)"/>
  <circle cx="11" cy="6" r="1" fill="srgba(99.1058%,83.2441%,8.51606%,1)"/>
  <circle cx="12" cy="6" r="1" fill="srgba(99.1394%,83.2731%,8.51911%,1)"/>
  <circle cx="13" cy="6" r="1" fill="srgba(99.1379%,83.2715%,8.51911%,1)"/>
  <circle cx="14" cy="6" r="1" fill="srgba(99.1379%,83.2715%,8.51911%,1)"/>
  <circle cx="15" cy="6" r="1" fill="srgba(99.1379%,83.2715%,8.51911%,1)"/>
  <circle cx="0" cy="7" r="1" fill="srgba(252,209,22,1)"/>
  <circle cx="1" cy="7" r="1" fill="srgba(252,209,22,1)"/>
  <circle cx="2" cy="7" r="1" fill="srgba(252,209,22,1)"/>
  <circle cx="3" cy="7" r="1" fill="srgba(98.8357%,81.9699%,8.62898%,1)"/>
  <circle cx="4" cy="7" r="1" fill="srgba(99.1638%,82.2431%,8.65797%,1)"/>
  <circle cx="5" cy="7" r="1" fill="srgba(77.847%,64.5594%,6.79789%,1)"/>
  <circle cx="6" cy="7" r="1" fill="srgba(42.591%,35.3185%,3.72168%,1)"/>
  <circle cx="7" cy="7" r="1" fill="srgba(15.7168%,13.0343%,1.37331%,1)"/>
  <circle cx="8" cy="7" r="1" fill="srgba(15.7214%,13.0373%,1.37331%,1)"/>
  <circle cx="9" cy="7" r="1" fill="srgba(42.594%,35.3201%,3.72168%,1)"/>
  <circle cx="10" cy="7" r="1" fill="srgba(77.8515%,64.564%,6.79942%,1)"/>
  <circle cx="11" cy="7" r="1" fill="srgba(99.1638%,82.2431%,8.65797%,1)"/>
  <circle cx="12" cy="7" r="1" fill="srgba(98.8357%,81.9699%,8.62898%,1)"/>
  <circle cx="13" cy="7" r="1" fill="srgba(252,209,22,1)"/>
  <circle cx="14" cy="7" r="1" fill="srgba(252,209,22,1)"/>
  <circle cx="15" cy="7" r="1" fill="srgba(252,209,22,1)"/>
  <circle cx="0" cy="8" r="1" fill="srgba(252,209,22,1)"/>
  <circle cx="1" cy="8" r="1" fill="srgba(252,209,22,1)"/>
  <circle cx="2" cy="8" r="1" fill="srgba(252,209,22,1)"/>
  <circle cx="3" cy="8" r="1" fill="srgba(252,209,22,1)"/>
  <circle cx="4" cy="8" r="1" fill="srgba(99.0097%,82.1164%,8.64424%,1)"/>
  <circle cx="5" cy="8" r="1" fill="srgba(95.8907%,79.5285%,8.3711%,1)"/>
  <circle cx="6" cy="8" r="1" fill="srgba(54.8547%,45.4948%,4.78828%,1)"/>
  <circle cx="7" cy="8" r="1" fill="srgba(1.8677%,1.54879%,0.163272%,1)"/>
  <circle cx="8" cy="8" r="1" fill="srgba(1.86923%,1.55032%,0.163272%,1)"/>
  <circle cx="9" cy="8" r="1" fill="srgba(54.8623%,45.5009%,4.78828%,1)"/>
  <circle cx="10" cy="8" r="1" fill="srgba(95.8923%,79.5285%,8.3711%,1)"/>
  <circle cx="11" cy="8" r="1" fill="srgba(99.0097%,82.1164%,8.64424%,1)"/>
  <circle cx="12" cy="8" r="1" fill="srgba(252,209,22,1)"/>
  <circle cx="13" cy="8" r="1" fill="srgba(252,209,22,1)"/>
  <circle cx="14" cy="8" r="1" fill="srgba(252,209,22,1)"/>
  <circle cx="15" cy="8" r="1" fill="srgba(252,209,22,1)"/>
  <circle cx="0" cy="9" r="1" fill="srgba(100%,82.6566%,8.34821%,1)"/>
  <circle cx="1" cy="9" r="1" fill="srgba(100%,82.6566%,8.34821%,1)"/>
  <circle cx="2" cy="9" r="1" fill="srgba(100%,82.6566%,8.34821%,1)"/>
  <circle cx="3" cy="9" r="1" fill="srgba(100%,82.6566%,8.34821%,1)"/>
  <circle cx="4" cy="9" r="1" fill="srgba(100%,82.649%,8.34668%,1)"/>
  <circle cx="5" cy="9" r="1" fill="srgba(100%,83.946%,8.48402%,1)"/>
  <circle cx="6" cy="9" r="1" fill="srgba(64.8539%,53.4722%,5.27504%,1)"/>
  <circle cx="7" cy="9" r="1" fill="srgba(30.6966%,24.7105%,2.24765%,1)"/>
  <circle cx="8" cy="9" r="1" fill="srgba(30.6935%,24.7074%,2.24613%,1)"/>
  <circle cx="9" cy="9" r="1" fill="srgba(64.8615%,53.4783%,5.27504%,1)"/>
  <circle cx="10" cy="9" r="1" fill="srgba(100%,83.946%,8.48402%,1)"/>
  <circle cx="11" cy="9" r="1" fill="srgba(100%,82.649%,8.34668%,1)"/>
  <circle cx="12" cy="9" r="1" fill="srgba(100%,82.6566%,8.34821%,1)"/>
  <circle cx="13" cy="9" r="1" fill="srgba(100%,82.6566%,8.34821%,1)"/>
  <circle cx="14" cy="9" r="1" fill="srgba(100%,82.6566%,8.34821%,1)"/>
  <circle cx="15" cy="9" r="1" fill="srgba(100%,82.6566%,8.34821%,1)"/>
  <circle cx="0" cy="10" r="1" fill="srgba(63.7659%,67.7714%,14.3282%,1)"/>
  <circle cx="1" cy="10" r="1" fill="srgba(63.7659%,67.7714%,14.3282%,1)"/>
  <circle cx="2" cy="10" r="1" fill="srgba(63.7659%,67.7714%,14.3282%,1)"/>
  <circle cx="3" cy="10" r="1" fill="srgba(63.7659%,67.7714%,14.3282%,1)"/>
  <circle cx="4" cy="10" r="1" fill="srgba(63.7797%,67.7836%,14.3297%,1)"/>
  <circle cx="5" cy="10" r="1" fill="srgba(63.4302%,67.4922%,14.2992%,1)"/>
  <circle cx="6" cy="10" r="1" fill="srgba(44.3793%,51.6915%,12.6345%,1)"/>
  <circle cx="7" cy="10" r="1" fill="srgba(56.64%,61.8601%,13.7057%,1)"/>
  <circle cx="8" cy="10" r="1" fill="srgba(56.6369%,61.8585%,13.7057%,1)"/>
  <circle cx="9" cy="10" r="1" fill="srgba(44.3809%,51.693%,12.6345%,1)"/>
  <circle cx="10" cy="10" r="1" fill="srgba(63.4302%,67.4922%,14.2992%,1)"/>
  <circle cx="11" cy="10" r="1" fill="srgba(63.7797%,67.7836%,14.3297%,1)"/>
  <circle cx="12" cy="10" r="1" fill="srgba(63.7659%,67.7714%,14.3282%,1)"/>
  <circle cx="13" cy="10" r="1" fill="srgba(63.7659%,67.7714%,14.3282%,1)"/>
  <circle cx="14" cy="10" r="1" fill="srgba(63.7659%,67.7714%,14.3282%,1)"/>
  <circle cx="15" cy="10" r="1" fill="srgba(63.7659%,67.7714%,14.3282%,1)"/>
  <circle cx="0" cy="11" r="1" fill="srgba(0.440986%,42.1393%,24.6326%,1)"/>
  <circle cx="1" cy="11" r="1" fill="srgba(0.440986%,42.1393%,24.6326%,1)"/>
  <circle cx="2" cy="11" r="1" fill="srgba(0.440986%,42.1393%,24.6326%,1)"/>
  <circle cx="3" cy="11" r="1" fill="srgba(0.440986%,42.1393%,24.6326%,1)"/>
  <circle cx="4" cy="11" r="1" fill="srgba(0.440986%,42.1408%,24.6326%,1)"/>
  <circle cx="5" cy="11" r="1" fill="srgba(0.413519%,42.1073%,24.6296%,1)"/>
  <circle cx="6" cy="11" r="1" fill="srgba(1.08949%,42.6276%,24.6845%,1)"/>
  <circle cx="7" cy="11" r="1" fill="srgba(0.868238%,42.4933%,24.6708%,1)"/>
  <circle cx="8" cy="11" r="1" fill="srgba(0.868238%,42.4933%,24.6708%,1)"/>
  <circle cx="9" cy="11" r="1" fill="srgba(1.08949%,42.6276%,24.6845%,1)"/>
  <circle cx="10" cy="11" r="1" fill="srgba(0.413519%,42.1073%,24.6296%,1)"/>
  <circle cx="11" cy="11" r="1" fill="srgba(0.440986%,42.1408%,24.6326%,1)"/>
  <circle cx="12" cy="11" r="1" fill="srgba(0.440986%,42.1393%,24.6326%,1)"/>
  <circle cx="13" cy="11" r="1" fill="srgba(0.440986%,42.1393%,24.6326%,1)"/>
  <circle cx="14" cy="11" r="1" fill="srgba(0.440986%,42.1393%,24.6326%,1)"/>
  <circle cx="15" cy="11" r="1" fill="srgba(0.440986%,42.1393%,24.6326%,1)"/>
  <circle cx="0" cy="12" r="1" fill="srgba(0%,41.9425%,24.7135%,1)"/>
  <circle cx="1" cy="12" r="1" fill="srgba(0%,41.9425%,24.7135%,1)"/>
  <circle cx="2" cy="12" r="1" fill="srgba(0%,41.9425%,24.7135%,1)"/>
  <circle cx="3" cy="12" r="1" fill="srgba(0%,41.9425%,24.7135%,1)"/>
  <circle cx="4" cy="12" r="1" fill="srgba(0%,41.9425%,24.7135%,1)"/>
  <circle cx="5" cy="12" r="1" fill="srgba(0%,41.9425%,24.7135%,1)"/>
  <circle cx="6" cy="12" r="1" fill="srgba(0%,41.944%,24.7135%,1)"/>
  <circle cx="7" cy="12" r="1" fill="srgba(0%,41.9425%,24.7135%,1)"/>
  <circle cx="8" cy="12" r="1" fill="srgba(0%,41.9425%,24.7135%,1)"/>
  <circle cx="9" cy="12" r="1" fill="srgba(0%,41.944%,24.7135%,1)"/>
  <circle cx="10" cy="12" r="1" fill="srgba(0%,41.9425%,24.7135%,1)"/>
  <circle cx="11" cy="12" r="1" fill="srgba(0%,41.9425%,24.7135%,1)"/>
  <circle cx="12" cy="12" r="1" fill="srgba(0%,41.9425%,24.7135%,1)"/>
  <circle cx="13" cy="12" r="1" fill="srgba(0%,41.9425%,24.7135%,1)"/>
  <circle cx="14" cy="12" r="1" fill="srgba(0%,41.9425%,24.7135%,1)"/>
  <circle cx="15" cy="12" r="1" fill="srgba(0%,41.9425%,24.7135%,1)"/>
  <circle cx="0" cy="13" r="1" fill="srgba(0,107,63,1)"/>
  <circle cx="1" cy="13" r="1" fill="srgba(0,107,63,1)"/>
  <circle cx="2" cy="13" r="1" fill="srgba(0,107,63,1)"/>
  <circle cx="3" cy="13" r="1" fill="srgba(0,107,63,1)"/>
  <circle cx="4" cy="13" r="1" fill="srgba(0,107,63,1)"/>
  <circle cx="5" cy="13" r="1" fill="srgba(0,107,63,1)"/>
  <circle cx="6" cy="13" r="1" fill="srgba(0,107,63,1)"/>
  <circle cx="7" cy="13" r="1" fill="srgba(0,107,63,1)"/>
  <circle cx="8" cy="13" r="1" fill="srgba(0,107,63,1)"/>
  <circle cx="9" cy="13" r="1" fill="srgba(0,107,63,1)"/>
  <circle cx="10" cy="13" r="1" fill="srgba(0,107,63,1)"/>
  <circle cx="11" cy="13" r="1" fill="srgba(0,107,63,1)"/>
  <circle cx="12" cy="13" r="1" fill="srgba(0,107,63,1)"/>
  <circle cx="13" cy="13" r="1" fill="srgba(0,107,63,1)"/>
  <circle cx="14" cy="13" r="1" fill="srgba(0,107,63,1)"/>
  <circle cx="15" cy="13" r="1" fill="srgba(0,107,63,1)"/>
  <circle cx="0" cy="14" r="1" fill="srgba(0,107,63,1)"/>
  <circle cx="1" cy="14" r="1" fill="srgba(0,107,63,1)"/>
  <circle cx="2" cy="14" r="1" fill="srgba(0,107,63,1)"/>
  <circle cx="3" cy="14" r="1" fill="srgba(0,107,63,1)"/>
  <circle cx="4" cy="14" r="1" fill="srgba(0,107,63,1)"/>
  <circle cx="5" cy="14" r="1" fill="srgba(0,107,63,1)"/>
  <circle cx="6" cy="14" r="1" fill="srgba(0,107,63,1)"/>
  <circle cx="7" cy="14" r="1" fill="srgba(0,107,63,1)"/>
  <circle cx="8" cy="14" r="1" fill="srgba(0,107,63,1)"/>
  <circle cx="9" cy="14" r="1" fill="srgba(0,107,63,1)"/>
  <circle cx="10" cy="14" r="1" fill="srgba(0,107,63,1)"/>
  <circle cx="11" cy="14" r="1" fill="srgba(0,107,63,1)"/>
  <circle cx="12" cy="14" r="1" fill="srgba(0,107,63,1)"/>
  <circle cx="13" cy="14" r="1" fill="srgba(0,107,63,1)"/>
  <circle cx="14" cy="14" r="1" fill="srgba(0,107,63,1)"/>
  <circle cx="15" cy="14" r="1" fill="srgba(0,107,63,1)"/>
  <circle cx="0" cy="15" r="1" fill="srgba(0,107,63,1)"/>
  <circle cx="1" cy="15" r="1" fill="srgba(0,107,63,1)"/>
  <circle cx="2" cy="15" r="1" fill="srgba(0,107,63,1)"/>
  <circle cx="3" cy="15" r="1" fill="srgba(0,107,63,1)"/>
  <circle cx="4" cy="15" r="1" fill="srgba(0,107,63,1)"/>
  <circle cx="5" cy="15" r="1" fill="srgba(0,107,63,1)"/>
  <circle cx="6" cy="15" r="1" fill="srgba(0,107,63,1)"/>
  <circle cx="7" cy="15" r="1" fill="srgba(0,107,63,1)"/>
  <circle cx="8" cy="15" r="1" fill="srgba(0,107,63,1)"/>
  <circle cx="9" cy="15" r="1" fill="srgba(0,107,63,1)"/>
  <circle cx="10" cy="15" r="1" fill="srgba(0,107,63,1)"/>
  <circle cx="11" cy="15" r="1" fill="srgba(0,107,63,1)"/>
  <circle cx="12" cy="15" r="1" fill="srgba(0,107,63,1)"/>
  <circle cx="13" cy="15" r="1" fill="srgba(0,107,63,1)"/>
  <circle cx="14" cy="15" r="1" fill="srgba(0,107,63,1)"/>
  <circle cx="15" cy="15" r="1" fill="srgba(0,107,63,1)"/>
</svg>
