<?xml version="1.0" standalone="no"?>
<!DOCTYPE svg PUBLIC "-//W3C//DTD SVG 20010904//EN"
  "http://www.w3.org/TR/2001/REC-SVG-20010904/DTD/svg10.dtd">
<svg width="16" height="16">
  <circle cx="0" cy="0" r="1" fill="white"/>
  <circle cx="1" cy="0" r="1" fill="white"/>
  <circle cx="2" cy="0" r="1" fill="white"/>
  <circle cx="3" cy="0" r="1" fill="white"/>
  <circle cx="4" cy="0" r="1" fill="white"/>
  <circle cx="5" cy="0" r="1" fill="white"/>
  <circle cx="6" cy="0" r="1" fill="white"/>
  <circle cx="7" cy="0" r="1" fill="white"/>
  <circle cx="8" cy="0" r="1" fill="white"/>
  <circle cx="9" cy="0" r="1" fill="white"/>
  <circle cx="10" cy="0" r="1" fill="white"/>
  <circle cx="11" cy="0" r="1" fill="white"/>
  <circle cx="12" cy="0" r="1" fill="white"/>
  <circle cx="13" cy="0" r="1" fill="white"/>
  <circle cx="14" cy="0" r="1" fill="white"/>
  <circle cx="15" cy="0" r="1" fill="white"/>
  <circle cx="0" cy="1" r="1" fill="white"/>
  <circle cx="1" cy="1" r="1" fill="white"/>
  <circle cx="2" cy="1" r="1" fill="white"/>
  <circle cx="3" cy="1" r="1" fill="srgba(99.646%,99.35%,99.3652%,1)"/>
  <circle cx="4" cy="1" r="1" fill="srgba(97.3495%,95.0011%,95.1354%,1)"/>
  <circle cx="5" cy="1" r="1" fill="srgba(97.0794%,94.7051%,94.844%,1)"/>
  <circle cx="6" cy="1" r="1" fill="srgba(88.3482%,75.8694%,76.5576%,1)"/>
  <circle cx="7" cy="1" r="1" fill="srgba(83.8682%,59.0433%,60.4089%,1)"/>
  <circle cx="8" cy="1" r="1" fill="srgba(83.8682%,59.0433%,60.4074%,1)"/>
  <circle cx="9" cy="1" r="1" fill="srgba(88.3482%,75.8694%,76.5576%,1)"/>
  <circle cx="10" cy="1" r="1" fill="srgba(97.0794%,94.7051%,94.844%,1)"/>
  <circle cx="11" cy="1" r="1" fill="srgba(97.3495%,95.0011%,95.1354%,1)"/>
  <circle cx="12" cy="1" r="1" fill="srgba(99.646%,99.35%,99.3652%,1)"/>
  <circle cx="13" cy="1" r="1" fill="white"/>
  <circle cx="14" cy="1" r="1" fill="white"/>
  <circle cx="15" cy="1" r="1" fill="white"/>
  <circle cx="0" cy="2" r="1" fill="white"/>
  <circle cx="1" cy="2" r="1" fill="white"/>
  <circle cx="2" cy="2" r="1" fill="white"/>
  <circle cx="3" cy="2" r="1" fill="srgba(98.2971%,97.145%,97.2076%,1)"/>
  <circle cx="4" cy="2" r="1" fill="srgba(79.3179%,46.3096%,48.1239%,1)"/>
  <circle cx="5" cy="2" r="1" fill="srgba(74.8013%,24.8142%,27.5669%,1)"/>
  <circle cx="6" cy="2" r="1" fill="srgba(76.6522%,44.799%,46.5171%,1)"/>
  <circle cx="7" cy="2" r="1" fill="srgba(67.8477%,5.80301%,8.56641%,1)"/>
  <circle cx="8" cy="2" r="1" fill="srgba(67.8447%,5.80301%,8.56489%,1)"/>
  <circle cx="9" cy="2" r="1" fill="srgba(76.6506%,44.799%,46.5171%,1)"/>
  <circle cx="10" cy="2" r="1" fill="srgba(74.7631%,24.8157%,27.5654%,1)"/>
  <circle cx="11" cy="2" r="1" fill="srgba(79.2676%,46.3096%,48.1209%,1)"/>
  <circle cx="12" cy="2" r="1" fill="srgba(98.2986%,97.145%,97.2076%,1)"/>
  <circle cx="13" cy="2" r="1" fill="white"/>
  <circle cx="14" cy="2" r="1" fill="white"/>
  <circle cx="15" cy="2" r="1" fill="white"/>
  <circle cx="0" cy="3" r="1" fill="white"/>
  <circle cx="1" cy="3" r="1" fill="white"/>
  <circle cx="2" cy="3" r="1" fill="srgba(98.8327%,98.8357%,98.8357%,1)"/>
  <circle cx="3" cy="3" r="1" fill="srgba(97.7066%,98.9548%,98.9075%,1)"/>
  <circle cx="4" cy="3" r="1" fill="srgba(83.3829%,47.8218%,49.1661%,1)"/>
  <circle cx="5" cy="3" r="1" fill="srgba(76.4935%,4.58839%,7.38842%,1)"/>
  <circle cx="6" cy="3" r="1" fill="srgba(84.3061%,57.8195%,59.0036%,1)"/>
  <circle cx="7" cy="3" r="1" fill="srgba(59.9008%,7.75463%,10.5898%,1)"/>
  <circle cx="8" cy="3" r="1" fill="srgba(59.8947%,7.75463%,10.5898%,1)"/>
  <circle cx="9" cy="3" r="1" fill="srgba(84.3198%,57.8195%,59.0036%,1)"/>
  <circle cx="10" cy="3" r="1" fill="srgba(77.0809%,4.58839%,7.42046%,1)"/>
  <circle cx="11" cy="3" r="1" fill="srgba(84.1367%,47.8218%,49.2073%,1)"/>
  <circle cx="12" cy="3" r="1" fill="srgba(97.6791%,98.9548%,98.9059%,1)"/>
  <circle cx="13" cy="3" r="1" fill="srgba(98.8327%,98.8373%,98.8373%,1)"/>
  <circle cx="14" cy="3" r="1" fill="white"/>
  <circle cx="15" cy="3" r="1" fill="white"/>
  <circle cx="0" cy="4" r="1" fill="white"/>
  <circle cx="1" cy="4" r="1" fill="white"/>
  <circle cx="2" cy="4" r="1" fill="srgba(97.6593%,97.6074%,97.6089%,1)"/>
  <circle cx="3" cy="4" r="1" fill="srgba(95.0149%,94.9416%,94.9447%,1)"/>
  <circle cx="4" cy="4" r="1" fill="srgba(71.2749%,47.2816%,48.6046%,1)"/>
  <circle cx="5" cy="4" r="1" fill="srgba(37.5998%,5.07515%,6.86198%,1)"/>
  <circle cx="6" cy="4" r="1" fill="srgba(81.8875%,57.1817%,58.5382%,1)"/>
  <circle cx="7" cy="4" r="1" fill="srgba(41.6785%,7.16716%,9.06844%,1)"/>
  <circle cx="8" cy="4" r="1" fill="srgba(41.6785%,7.16716%,9.06844%,1)"/>
  <circle cx="9" cy="4" r="1" fill="srgba(81.9104%,57.1817%,58.5397%,1)"/>
  <circle cx="10" cy="4" r="1" fill="srgba(38.6938%,5.07515%,6.92302%,1)"/>
  <circle cx="11" cy="4" r="1" fill="srgba(72.7169%,47.2816%,48.6854%,1)"/>
  <circle cx="12" cy="4" r="1" fill="srgba(94.963%,94.9416%,94.9416%,1)"/>
  <circle cx="13" cy="4" r="1" fill="srgba(97.6623%,97.6089%,97.612%,1)"/>
  <circle cx="14" cy="4" r="1" fill="white"/>
  <circle cx="15" cy="4" r="1" fill="white"/>
  <circle cx="0" cy="5" r="1" fill="white"/>
  <circle cx="1" cy="5" r="1" fill="white"/>
  <circle cx="2" cy="5" r="1" fill="srgba(99.707%,99.7894%,99.7848%,1)"/>
  <circle cx="3" cy="5" r="1" fill="srgba(84.6204%,64.7044%,65.7969%,1)"/>
  <circle cx="4" cy="5" r="1" fill="srgba(65.7908%,16.1776%,18.9044%,1)"/>
  <circle cx="5" cy="5" r="1" fill="srgba(43.7842%,2.25223%,4.53346%,1)"/>
  <circle cx="6" cy="5" r="1" fill="srgba(76.3973%,25.6397%,28.426%,1)"/>
  <circle cx="7" cy="5" r="1" fill="srgba(53.9849%,2.49332%,5.32235%,1)"/>
  <circle cx="8" cy="5" r="1" fill="srgba(53.9849%,2.49332%,5.32235%,1)"/>
  <circle cx="9" cy="5" r="1" fill="srgba(76.3958%,25.6397%,28.426%,1)"/>
  <circle cx="10" cy="5" r="1" fill="srgba(43.7293%,2.25223%,4.5304%,1)"/>
  <circle cx="11" cy="5" r="1" fill="srgba(65.7206%,16.1776%,18.9014%,1)"/>
  <circle cx="12" cy="5" r="1" fill="srgba(84.6235%,64.7044%,65.7969%,1)"/>
  <circle cx="13" cy="5" r="1" fill="srgba(99.707%,99.7894%,99.7848%,1)"/>
  <circle cx="14" cy="5" r="1" fill="white"/>
  <circle cx="15" cy="5" r="1" fill="white"/>
  <circle cx="0" cy="6" r="1" fill="white"/>
  <circle cx="1" cy="6" r="1" fill="white"/>
  <circle cx="2" cy="6" r="1" fill="white"/>
  <circle cx="3" cy="6" r="1" fill="srgba(90.3807%,75.3582%,75.9579%,1)"/>
  <circle cx="4" cy="6" r="1" fill="srgba(78.7701%,5.24605%,8.75715%,1)"/>
  <circle cx="5" cy="6" r="1" fill="srgba(78.3993%,0%,3.91547%,1)"/>
  <circle cx="6" cy="6" r="1" fill="srgba(73.8827%,0%,3.30968%,1)"/>
  <circle cx="7" cy="6" r="1" fill="srgba(78.2788%,0%,4.21149%,1)"/>
  <circle cx="8" cy="6" r="1" fill="srgba(78.2727%,0%,4.21149%,1)"/>
  <circle cx="9" cy="6" r="1" fill="srgba(73.8811%,0%,3.30968%,1)"/>
  <circle cx="10" cy="6" r="1" fill="srgba(78.3993%,0%,3.91547%,1)"/>
  <circle cx="11" cy="6" r="1" fill="srgba(78.7701%,5.24605%,8.75715%,1)"/>
  <circle cx="12" cy="6" r="1" fill="srgba(90.3807%,75.3582%,75.9579%,1)"/>
  <circle cx="13" cy="6" r="1" fill="white"/>
  <circle cx="14" cy="6" r="1" fill="white"/>
  <circle cx="15" cy="6" r="1" fill="white"/>
  <circle cx="0" cy="7" r="1" fill="white"/>
  <circle cx="1" cy="7" r="1" fill="white"/>
  <circle cx="2" cy="7" r="1" fill="white"/>
  <circle cx="3" cy="7" r="1" fill="srgba(94.1238%,81.4359%,82.1347%,1)"/>
  <circle cx="4" cy="7" r="1" fill="srgba(82.9038%,6.91691%,11.0994%,1)"/>
  <circle cx="5" cy="7" r="1" fill="srgba(79.237%,0%,3.94903%,1)"/>
  <circle cx="6" cy="7" r="1" fill="srgba(80.4013%,0%,4.42512%,1)"/>
  <circle cx="7" cy="7" r="1" fill="srgba(64.1901%,0%,3.53399%,1)"/>
  <circle cx="8" cy="7" r="1" fill="srgba(64.3519%,0%,3.54314%,1)"/>
  <circle cx="9" cy="7" r="1" fill="srgba(80.4303%,0%,4.42817%,1)"/>
  <circle cx="10" cy="7" r="1" fill="srgba(79.234%,0%,3.94751%,1)"/>
  <circle cx="11" cy="7" r="1" fill="srgba(82.9053%,6.91691%,11.0994%,1)"/>
  <circle cx="12" cy="7" r="1" fill="srgba(94.1238%,81.4359%,82.1347%,1)"/>
  <circle cx="13" cy="7" r="1" fill="white"/>
  <circle cx="14" cy="7" r="1" fill="white"/>
  <circle cx="15" cy="7" r="1" fill="white"/>
  <circle cx="0" cy="8" r="1" fill="white"/>
  <circle cx="1" cy="8" r="1" fill="white"/>
  <circle cx="2" cy="8" r="1" fill="white"/>
  <circle cx="3" cy="8" r="1" fill="srgba(95.1781%,81.4405%,82.1942%,1)"/>
  <circle cx="4" cy="8" r="1" fill="srgba(61.0712%,6.91997%,9.88632%,1)"/>
  <circle cx="5" cy="8" r="1" fill="srgba(23.6835%,0%,0.87892%,1)"/>
  <circle cx="6" cy="8" r="1" fill="srgba(67.5731%,0%,3.71862%,1)"/>
  <circle cx="7" cy="8" r="1" fill="srgba(15.5367%,0%,0.854505%,1)"/>
  <circle cx="8" cy="8" r="1" fill="srgba(15.8083%,0%,0.87129%,1)"/>
  <circle cx="9" cy="8" r="1" fill="srgba(67.7317%,0%,3.72625%,1)"/>
  <circle cx="10" cy="8" r="1" fill="srgba(23.7934%,0%,0.894179%,1)"/>
  <circle cx="11" cy="8" r="1" fill="srgba(61.2055%,6.91997%,9.90768%,1)"/>
  <circle cx="12" cy="8" r="1" fill="srgba(95.2041%,81.4405%,82.1988%,1)"/>
  <circle cx="13" cy="8" r="1" fill="white"/>
  <circle cx="14" cy="8" r="1" fill="white"/>
  <circle cx="15" cy="8" r="1" fill="white"/>
  <circle cx="0" cy="9" r="1" fill="white"/>
  <circle cx="1" cy="9" r="1" fill="white"/>
  <circle cx="2" cy="9" r="1" fill="white"/>
  <circle cx="3" cy="9" r="1" fill="srgba(89.0135%,70.4234%,71.4458%,1)"/>
  <circle cx="4" cy="9" r="1" fill="srgba(58.3932%,5.47341%,8.38636%,1)"/>
  <circle cx="5" cy="9" r="1" fill="srgba(31.0231%,0.430304%,2.26444%,1)"/>
  <circle cx="6" cy="9" r="1" fill="srgba(61.738%,2.69474%,3.42107%,1)"/>
  <circle cx="7" cy="9" r="1" fill="srgba(27.3747%,11.3298%,1.52895%,1)"/>
  <circle cx="8" cy="9" r="1" fill="srgba(23.7842%,9.15694%,1.32601%,1)"/>
  <circle cx="9" cy="9" r="1" fill="srgba(59.3942%,3.29747%,3.26848%,1)"/>
  <circle cx="10" cy="9" r="1" fill="srgba(28.6687%,0%,1.31228%,1)"/>
  <circle cx="11" cy="9" r="1" fill="srgba(55.5261%,4.17792%,6.94896%,1)"/>
  <circle cx="12" cy="9" r="1" fill="srgba(85.2857%,67.657%,69.0669%,1)"/>
  <circle cx="13" cy="9" r="1" fill="srgba(95.3811%,96.3043%,97.1252%,1)"/>
  <circle cx="14" cy="9" r="1" fill="srgba(95.1812%,95.3414%,96.3516%,1)"/>
  <circle cx="15" cy="9" r="1" fill="srgba(95.3552%,95.523%,96.4553%,1)"/>
  <circle cx="0" cy="10" r="1" fill="srgba(95.4757%,68.8167%,70.2831%,1)"/>
  <circle cx="1" cy="10" r="1" fill="srgba(95.4849%,68.8273%,70.2937%,1)"/>
  <circle cx="2" cy="10" r="1" fill="srgba(95.3002%,68.8808%,70.3349%,1)"/>
  <circle cx="3" cy="10" r="1" fill="srgba(85.6413%,45.4475%,47.657%,1)"/>
  <circle cx="4" cy="10" r="1" fill="srgba(81.9104%,28.9708%,31.8791%,1)"/>
  <circle cx="5" cy="10" r="1" fill="srgba(78.1689%,22.7832%,26.3127%,1)"/>
  <circle cx="6" cy="10" r="1" fill="srgba(75.9899%,20.0305%,15.1324%,1)"/>
  <circle cx="7" cy="10" r="1" fill="srgba(75.552%,57.1786%,5.78622%,1)"/>
  <circle cx="8" cy="10" r="1" fill="srgba(64.7044%,53.0068%,3.53552%,1)"/>
  <circle cx="9" cy="10" r="1" fill="srgba(69.3874%,50.1686%,7.75006%,1)"/>
  <circle cx="10" cy="10" r="1" fill="srgba(72.5505%,49.3095%,5.17891%,1)"/>
  <circle cx="11" cy="10" r="1" fill="srgba(74.0764%,49.4423%,3.78729%,1)"/>
  <circle cx="12" cy="10" r="1" fill="srgba(72.3293%,57.409%,15.3368%,1)"/>
  <circle cx="13" cy="10" r="1" fill="srgba(76.1578%,70.4555%,33.3059%,1)"/>
  <circle cx="14" cy="10" r="1" fill="srgba(76.0754%,71.2947%,40.9461%,1)"/>
  <circle cx="15" cy="10" r="1" fill="srgba(76.7758%,72.3598%,49.1707%,1)"/>
  <circle cx="0" cy="11" r="1" fill="srgba(85.7038%,1.47555%,6.11124%,1)"/>
  <circle cx="1" cy="11" r="1" fill="srgba(85.7038%,1.47555%,6.11124%,1)"/>
  <circle cx="2" cy="11" r="1" fill="srgba(85.7115%,1.47097%,6.10666%,1)"/>
  <circle cx="3" cy="11" r="1" fill="srgba(86.0609%,2.47044%,7.07103%,1)"/>
  <circle cx="4" cy="11" r="1" fill="srgba(86.183%,3.2517%,7.81567%,1)"/>
  <circle cx="5" cy="11" r="1" fill="srgba(86.2806%,2.52842%,7.51049%,1)"/>
  <circle cx="6" cy="11" r="1" fill="srgba(83.0228%,8.47791%,6.57511%,1)"/>
  <circle cx="7" cy="11" r="1" fill="srgba(72.2652%,53.6095%,4.34577%,1)"/>
  <circle cx="8" cy="11" r="1" fill="srgba(63.1006%,55.7931%,3.54772%,1)"/>
  <circle cx="9" cy="11" r="1" fill="srgba(85.4612%,74.9844%,5.56344%,1)"/>
  <circle cx="10" cy="11" r="1" fill="srgba(95.1095%,83.5904%,5.57565%,1)"/>
  <circle cx="11" cy="11" r="1" fill="srgba(97.94%,86.2028%,5.53292%,1)"/>
  <circle cx="12" cy="11" r="1" fill="srgba(97.5189%,85.2827%,4.96681%,1)"/>
  <circle cx="13" cy="11" r="1" fill="srgba(97.0336%,84.3656%,4.46632%,1)"/>
  <circle cx="14" cy="11" r="1" fill="srgba(96.6339%,84.1444%,5.24758%,1)"/>
  <circle cx="15" cy="11" r="1" fill="srgba(96.0372%,83.6042%,6.598%,1)"/>
  <circle cx="0" cy="12" r="1" fill="srgba(85.4765%,0%,4.61585%,1)"/>
  <circle cx="1" cy="12" r="1" fill="srgba(85.4765%,0%,4.61585%,1)"/>
  <circle cx="2" cy="12" r="1" fill="srgba(85.4765%,0%,4.61585%,1)"/>
  <circle cx="3" cy="12" r="1" fill="srgba(85.4765%,0%,4.61585%,1)"/>
  <circle cx="4" cy="12" r="1" fill="srgba(85.4765%,0%,4.61585%,1)"/>
  <circle cx="5" cy="12" r="1" fill="srgba(85.5482%,0%,4.62043%,1)"/>
  <circle cx="6" cy="12" r="1" fill="srgba(84.7761%,2.51164%,4.59449%,1)"/>
  <circle cx="7" cy="12" r="1" fill="srgba(77.2396%,47.3518%,4.3183%,1)"/>
  <circle cx="8" cy="12" r="1" fill="srgba(67.6036%,60.2701%,3.81933%,1)"/>
  <circle cx="9" cy="12" r="1" fill="srgba(84.1917%,71.2596%,4.71962%,1)"/>
  <circle cx="10" cy="12" r="1" fill="srgba(94.0551%,80.9781%,5.29946%,1)"/>
  <circle cx="11" cy="12" r="1" fill="srgba(97.4945%,84.9729%,5.50393%,1)"/>
  <circle cx="12" cy="12" r="1" fill="srgba(248,216,14,1)"/>
  <circle cx="13" cy="12" r="1" fill="srgba(97.2595%,84.7089%,5.4902%,1)"/>
  <circle cx="14" cy="12" r="1" fill="srgba(97.2854%,84.7303%,5.47951%,1)"/>
  <circle cx="15" cy="12" r="1" fill="srgba(97.3388%,84.7807%,5.43069%,1)"/>
  <circle cx="0" cy="13" r="1" fill="srgba(218,0,12,1)"/>
  <circle cx="1" cy="13" r="1" fill="srgba(218,0,12,1)"/>
  <circle cx="2" cy="13" r="1" fill="srgba(218,0,12,1)"/>
  <circle cx="3" cy="13" r="1" fill="srgba(218,0,12,1)"/>
  <circle cx="4" cy="13" r="1" fill="srgba(218,0,12,1)"/>
  <circle cx="5" cy="13" r="1" fill="srgba(85.5131%,0%,4.70741%,1)"/>
  <circle cx="6" cy="13" r="1" fill="srgba(85.2934%,0%,4.69368%,1)"/>
  <circle cx="7" cy="13" r="1" fill="srgba(75.0912%,24.2405%,4.17487%,1)"/>
  <circle cx="8" cy="13" r="1" fill="srgba(69.5476%,53.8384%,3.91699%,1)"/>
  <circle cx="9" cy="13" r="1" fill="srgba(79.0402%,32.0958%,4.40223%,1)"/>
  <circle cx="10" cy="13" r="1" fill="srgba(92.488%,72.1324%,5.2079%,1)"/>
  <circle cx="11" cy="13" r="1" fill="srgba(97.5738%,85.4795%,5.50851%,1)"/>
  <circle cx="12" cy="13" r="1" fill="srgba(248,216,14,1)"/>
  <circle cx="13" cy="13" r="1" fill="srgba(248,216,14,1)"/>
  <circle cx="14" cy="13" r="1" fill="srgba(248,216,14,1)"/>
  <circle cx="15" cy="13" r="1" fill="srgba(248,216,14,1)"/>
  <circle cx="0" cy="14" r="1" fill="srgba(218,0,12,1)"/>
  <circle cx="1" cy="14" r="1" fill="srgba(218,0,12,1)"/>
  <circle cx="2" cy="14" r="1" fill="srgba(218,0,12,1)"/>
  <circle cx="3" cy="14" r="1" fill="srgba(218,0,12,1)"/>
  <circle cx="4" cy="14" r="1" fill="srgba(218,0,12,1)"/>
  <circle cx="5" cy="14" r="1" fill="srgba(85.7389%,0%,4.71809%,1)"/>
  <circle cx="6" cy="14" r="1" fill="srgba(79.9512%,8.60151%,4.41444%,1)"/>
  <circle cx="7" cy="14" r="1" fill="srgba(68.6488%,33.6507%,3.83612%,1)"/>
  <circle cx="8" cy="14" r="1" fill="srgba(65.1972%,31.3252%,3.64385%,1)"/>
  <circle cx="9" cy="14" r="1" fill="srgba(78.8281%,13.9101%,4.36103%,1)"/>
  <circle cx="10" cy="14" r="1" fill="srgba(91.8898%,67.9469%,5.16976%,1)"/>
  <circle cx="11" cy="14" r="1" fill="srgba(97.5921%,85.7206%,5.51003%,1)"/>
  <circle cx="12" cy="14" r="1" fill="srgba(248,216,14,1)"/>
  <circle cx="13" cy="14" r="1" fill="srgba(248,216,14,1)"/>
  <circle cx="14" cy="14" r="1" fill="srgba(248,216,14,1)"/>
  <circle cx="15" cy="14" r="1" fill="srgba(248,216,14,1)"/>
  <circle cx="0" cy="15" r="1" fill="srgba(218,0,12,1)"/>
  <circle cx="1" cy="15" r="1" fill="srgba(218,0,12,1)"/>
  <circle cx="2" cy="15" r="1" fill="srgba(218,0,12,1)"/>
  <circle cx="3" cy="15" r="1" fill="srgba(218,0,12,1)"/>
  <circle cx="4" cy="15" r="1" fill="srgba(218,0,12,1)"/>
  <circle cx="5" cy="15" r="1" fill="srgba(85.6748%,0%,4.71504%,1)"/>
  <circle cx="6" cy="15" r="1" fill="srgba(81.6464%,6.41032%,4.50294%,1)"/>
  <circle cx="7" cy="15" r="1" fill="srgba(68.2521%,26.8269%,3.80102%,1)"/>
  <circle cx="8" cy="15" r="1" fill="srgba(63.4302%,26.9017%,3.53246%,1)"/>
  <circle cx="9" cy="15" r="1" fill="srgba(78.8296%,10.3105%,4.35492%,1)"/>
  <circle cx="10" cy="15" r="1" fill="srgba(90.9194%,63.8056%,5.10719%,1)"/>
  <circle cx="11" cy="15" r="1" fill="srgba(97.6059%,85.9236%,5.51156%,1)"/>
  <circle cx="12" cy="15" r="1" fill="srgba(248,216,14,1)"/>
  <circle cx="13" cy="15" r="1" fill="srgba(248,216,14,1)"/>
  <circle cx="14" cy="15" r="1" fill="srgba(248,216,14,1)"/>
  <circle cx="15" cy="15" r="1" fill="srgba(248,216,14,1)"/>
</svg>
