<?xml version="1.0" standalone="no"?>
<!DOCTYPE svg PUBLIC "-//W3C//DTD SVG 20010904//EN"
  "http://www.w3.org/TR/2001/REC-SVG-20010904/DTD/svg10.dtd">
<svg width="16" height="16">
  <circle cx="0" cy="0" r="1" fill="white"/>
  <circle cx="1" cy="0" r="1" fill="white"/>
  <circle cx="2" cy="0" r="1" fill="white"/>
  <circle cx="3" cy="0" r="1" fill="white"/>
  <circle cx="4" cy="0" r="1" fill="white"/>
  <circle cx="5" cy="0" r="1" fill="white"/>
  <circle cx="6" cy="0" r="1" fill="white"/>
  <circle cx="7" cy="0" r="1" fill="white"/>
  <circle cx="8" cy="0" r="1" fill="white"/>
  <circle cx="9" cy="0" r="1" fill="white"/>
  <circle cx="10" cy="0" r="1" fill="white"/>
  <circle cx="11" cy="0" r="1" fill="white"/>
  <circle cx="12" cy="0" r="1" fill="white"/>
  <circle cx="13" cy="0" r="1" fill="white"/>
  <circle cx="14" cy="0" r="1" fill="white"/>
  <circle cx="15" cy="0" r="1" fill="white"/>
  <circle cx="0" cy="1" r="1" fill="white"/>
  <circle cx="1" cy="1" r="1" fill="white"/>
  <circle cx="2" cy="1" r="1" fill="white"/>
  <circle cx="3" cy="1" r="1" fill="white"/>
  <circle cx="4" cy="1" r="1" fill="white"/>
  <circle cx="5" cy="1" r="1" fill="white"/>
  <circle cx="6" cy="1" r="1" fill="white"/>
  <circle cx="7" cy="1" r="1" fill="white"/>
  <circle cx="8" cy="1" r="1" fill="white"/>
  <circle cx="9" cy="1" r="1" fill="white"/>
  <circle cx="10" cy="1" r="1" fill="white"/>
  <circle cx="11" cy="1" r="1" fill="white"/>
  <circle cx="12" cy="1" r="1" fill="white"/>
  <circle cx="13" cy="1" r="1" fill="white"/>
  <circle cx="14" cy="1" r="1" fill="white"/>
  <circle cx="15" cy="1" r="1" fill="white"/>
  <circle cx="0" cy="2" r="1" fill="white"/>
  <circle cx="1" cy="2" r="1" fill="white"/>
  <circle cx="2" cy="2" r="1" fill="white"/>
  <circle cx="3" cy="2" r="1" fill="white"/>
  <circle cx="4" cy="2" r="1" fill="white"/>
  <circle cx="5" cy="2" r="1" fill="white"/>
  <circle cx="6" cy="2" r="1" fill="white"/>
  <circle cx="7" cy="2" r="1" fill="white"/>
  <circle cx="8" cy="2" r="1" fill="white"/>
  <circle cx="9" cy="2" r="1" fill="white"/>
  <circle cx="10" cy="2" r="1" fill="white"/>
  <circle cx="11" cy="2" r="1" fill="white"/>
  <circle cx="12" cy="2" r="1" fill="white"/>
  <circle cx="13" cy="2" r="1" fill="white"/>
  <circle cx="14" cy="2" r="1" fill="white"/>
  <circle cx="15" cy="2" r="1" fill="white"/>
  <circle cx="0" cy="3" r="1" fill="white"/>
  <circle cx="1" cy="3" r="1" fill="white"/>
  <circle cx="2" cy="3" r="1" fill="white"/>
  <circle cx="3" cy="3" r="1" fill="white"/>
  <circle cx="4" cy="3" r="1" fill="white"/>
  <circle cx="5" cy="3" r="1" fill="white"/>
  <circle cx="6" cy="3" r="1" fill="white"/>
  <circle cx="7" cy="3" r="1" fill="white"/>
  <circle cx="8" cy="3" r="1" fill="white"/>
  <circle cx="9" cy="3" r="1" fill="white"/>
  <circle cx="10" cy="3" r="1" fill="white"/>
  <circle cx="11" cy="3" r="1" fill="white"/>
  <circle cx="12" cy="3" r="1" fill="white"/>
  <circle cx="13" cy="3" r="1" fill="white"/>
  <circle cx="14" cy="3" r="1" fill="white"/>
  <circle cx="15" cy="3" r="1" fill="white"/>
  <circle cx="0" cy="4" r="1" fill="white"/>
  <circle cx="1" cy="4" r="1" fill="white"/>
  <circle cx="2" cy="4" r="1" fill="white"/>
  <circle cx="3" cy="4" r="1" fill="white"/>
  <circle cx="4" cy="4" r="1" fill="white"/>
  <circle cx="5" cy="4" r="1" fill="white"/>
  <circle cx="6" cy="4" r="1" fill="white"/>
  <circle cx="7" cy="4" r="1" fill="white"/>
  <circle cx="8" cy="4" r="1" fill="white"/>
  <circle cx="9" cy="4" r="1" fill="white"/>
  <circle cx="10" cy="4" r="1" fill="white"/>
  <circle cx="11" cy="4" r="1" fill="white"/>
  <circle cx="12" cy="4" r="1" fill="white"/>
  <circle cx="13" cy="4" r="1" fill="white"/>
  <circle cx="14" cy="4" r="1" fill="white"/>
  <circle cx="15" cy="4" r="1" fill="white"/>
  <circle cx="0" cy="5" r="1" fill="white"/>
  <circle cx="1" cy="5" r="1" fill="white"/>
  <circle cx="2" cy="5" r="1" fill="white"/>
  <circle cx="3" cy="5" r="1" fill="white"/>
  <circle cx="4" cy="5" r="1" fill="white"/>
  <circle cx="5" cy="5" r="1" fill="white"/>
  <circle cx="6" cy="5" r="1" fill="white"/>
  <circle cx="7" cy="5" r="1" fill="white"/>
  <circle cx="8" cy="5" r="1" fill="white"/>
  <circle cx="9" cy="5" r="1" fill="white"/>
  <circle cx="10" cy="5" r="1" fill="white"/>
  <circle cx="11" cy="5" r="1" fill="white"/>
  <circle cx="12" cy="5" r="1" fill="white"/>
  <circle cx="13" cy="5" r="1" fill="white"/>
  <circle cx="14" cy="5" r="1" fill="white"/>
  <circle cx="15" cy="5" r="1" fill="white"/>
  <circle cx="0" cy="6" r="1" fill="white"/>
  <circle cx="1" cy="6" r="1" fill="white"/>
  <circle cx="2" cy="6" r="1" fill="white"/>
  <circle cx="3" cy="6" r="1" fill="white"/>
  <circle cx="4" cy="6" r="1" fill="white"/>
  <circle cx="5" cy="6" r="1" fill="white"/>
  <circle cx="6" cy="6" r="1" fill="white"/>
  <circle cx="7" cy="6" r="1" fill="white"/>
  <circle cx="8" cy="6" r="1" fill="white"/>
  <circle cx="9" cy="6" r="1" fill="white"/>
  <circle cx="10" cy="6" r="1" fill="white"/>
  <circle cx="11" cy="6" r="1" fill="white"/>
  <circle cx="12" cy="6" r="1" fill="white"/>
  <circle cx="13" cy="6" r="1" fill="white"/>
  <circle cx="14" cy="6" r="1" fill="white"/>
  <circle cx="15" cy="6" r="1" fill="white"/>
  <circle cx="0" cy="7" r="1" fill="srgba(98.7137%,89.7368%,89.7368%,1)"/>
  <circle cx="1" cy="7" r="1" fill="srgba(99.7467%,97.9614%,97.9614%,1)"/>
  <circle cx="2" cy="7" r="1" fill="srgba(99.9863%,99.8611%,99.8611%,1)"/>
  <circle cx="3" cy="7" r="1" fill="srgba(99.9725%,99.7498%,99.7498%,1)"/>
  <circle cx="4" cy="7" r="1" fill="srgba(99.9725%,99.7498%,99.7498%,1)"/>
  <circle cx="5" cy="7" r="1" fill="srgba(99.9725%,99.7498%,99.7498%,1)"/>
  <circle cx="6" cy="7" r="1" fill="srgba(99.9725%,99.7498%,99.7498%,1)"/>
  <circle cx="7" cy="7" r="1" fill="srgba(99.9725%,99.7498%,99.7498%,1)"/>
  <circle cx="8" cy="7" r="1" fill="srgba(99.9725%,99.7498%,99.7498%,1)"/>
  <circle cx="9" cy="7" r="1" fill="srgba(99.9908%,99.8901%,99.8901%,1)"/>
  <circle cx="10" cy="7" r="1" fill="srgba(99.6902%,97.5036%,97.5036%,1)"/>
  <circle cx="11" cy="7" r="1" fill="srgba(98.6526%,89.247%,89.247%,1)"/>
  <circle cx="12" cy="7" r="1" fill="srgba(98.5641%,88.5435%,88.5435%,1)"/>
  <circle cx="13" cy="7" r="1" fill="srgba(98.5687%,88.5847%,88.5847%,1)"/>
  <circle cx="14" cy="7" r="1" fill="srgba(98.5687%,88.5847%,88.5847%,1)"/>
  <circle cx="15" cy="7" r="1" fill="srgba(98.5687%,88.5847%,88.5847%,1)"/>
  <circle cx="0" cy="8" r="1" fill="srgba(89.9351%,19.7772%,19.7772%,1)"/>
  <circle cx="1" cy="8" r="1" fill="srgba(97.8882%,83.1403%,83.1403%,1)"/>
  <circle cx="2" cy="8" r="1" fill="white"/>
  <circle cx="3" cy="8" r="1" fill="srgba(99.9741%,99.765%,99.765%,1)"/>
  <circle cx="4" cy="8" r="1" fill="srgba(99.9741%,99.765%,99.765%,1)"/>
  <circle cx="5" cy="8" r="1" fill="srgba(99.9741%,99.765%,99.765%,1)"/>
  <circle cx="6" cy="8" r="1" fill="srgba(99.9741%,99.765%,99.765%,1)"/>
  <circle cx="7" cy="8" r="1" fill="srgba(99.9741%,99.765%,99.765%,1)"/>
  <circle cx="8" cy="8" r="1" fill="srgba(99.9741%,99.765%,99.765%,1)"/>
  <circle cx="9" cy="8" r="1" fill="white"/>
  <circle cx="10" cy="8" r="1" fill="srgba(97.3938%,79.2081%,79.2081%,1)"/>
  <circle cx="11" cy="8" r="1" fill="srgba(89.5247%,16.5118%,16.5118%,1)"/>
  <circle cx="12" cy="8" r="1" fill="srgba(89.0242%,12.52%,12.52%,1)"/>
  <circle cx="13" cy="8" r="1" fill="srgba(89.0532%,12.752%,12.752%,1)"/>
  <circle cx="14" cy="8" r="1" fill="srgba(89.0532%,12.752%,12.752%,1)"/>
  <circle cx="15" cy="8" r="1" fill="srgba(89.0532%,12.752%,12.752%,1)"/>
  <circle cx="0" cy="9" r="1" fill="srgba(87.5746%,1.75631%,1.75631%,1)"/>
  <circle cx="1" cy="9" r="1" fill="srgba(95.6069%,65.1499%,65.1499%,1)"/>
  <circle cx="2" cy="9" r="1" fill="white"/>
  <circle cx="3" cy="9" r="1" fill="white"/>
  <circle cx="4" cy="9" r="1" fill="white"/>
  <circle cx="5" cy="9" r="1" fill="white"/>
  <circle cx="6" cy="9" r="1" fill="white"/>
  <circle cx="7" cy="9" r="1" fill="white"/>
  <circle cx="8" cy="9" r="1" fill="white"/>
  <circle cx="9" cy="9" r="1" fill="white"/>
  <circle cx="10" cy="9" r="1" fill="srgba(94.8898%,59.4827%,59.4827%,1)"/>
  <circle cx="11" cy="9" r="1" fill="srgba(87.3777%,0.218204%,0.218204%,1)"/>
  <circle cx="12" cy="9" r="1" fill="srgba(87.3396%,0%,0%,1)"/>
  <circle cx="13" cy="9" r="1" fill="srgba(87.3472%,0%,0%,1)"/>
  <circle cx="14" cy="9" r="1" fill="srgba(87.3472%,0%,0%,1)"/>
  <circle cx="15" cy="9" r="1" fill="srgba(87.3472%,0%,0%,1)"/>
  <circle cx="0" cy="10" r="1" fill="srgba(87.2724%,0%,0%,1)"/>
  <circle cx="1" cy="10" r="1" fill="srgba(91.0704%,29.0303%,29.0303%,1)"/>
  <circle cx="2" cy="10" r="1" fill="srgba(99.2676%,94.1619%,94.1619%,1)"/>
  <circle cx="3" cy="10" r="1" fill="white"/>
  <circle cx="4" cy="10" r="1" fill="white"/>
  <circle cx="5" cy="10" r="1" fill="white"/>
  <circle cx="6" cy="10" r="1" fill="white"/>
  <circle cx="7" cy="10" r="1" fill="white"/>
  <circle cx="8" cy="10" r="1" fill="white"/>
  <circle cx="9" cy="10" r="1" fill="srgba(98.9471%,91.606%,91.606%,1)"/>
  <circle cx="10" cy="10" r="1" fill="srgba(90.4509%,24.1123%,24.1123%,1)"/>
  <circle cx="11" cy="10" r="1" fill="srgba(87.3014%,0%,0%,1)"/>
  <circle cx="12" cy="10" r="1" fill="srgba(223,0,0,1)"/>
  <circle cx="13" cy="10" r="1" fill="srgba(223,0,0,1)"/>
  <circle cx="14" cy="10" r="1" fill="srgba(223,0,0,1)"/>
  <circle cx="15" cy="10" r="1" fill="srgba(223,0,0,1)"/>
  <circle cx="0" cy="11" r="1" fill="srgba(87.4296%,0%,0%,1)"/>
  <circle cx="1" cy="11" r="1" fill="srgba(87.6005%,1.60067%,1.60067%,1)"/>
  <circle cx="2" cy="11" r="1" fill="srgba(93.1518%,45.507%,45.507%,1)"/>
  <circle cx="3" cy="11" r="1" fill="srgba(99.2645%,94.1344%,94.1344%,1)"/>
  <circle cx="4" cy="11" r="1" fill="white"/>
  <circle cx="5" cy="11" r="1" fill="white"/>
  <circle cx="6" cy="11" r="1" fill="white"/>
  <circle cx="7" cy="11" r="1" fill="white"/>
  <circle cx="8" cy="11" r="1" fill="srgba(99.0433%,92.3751%,92.3751%,1)"/>
  <circle cx="9" cy="11" r="1" fill="srgba(92.5277%,40.5631%,40.5631%,1)"/>
  <circle cx="10" cy="11" r="1" fill="srgba(87.4937%,0.730907%,0.730907%,1)"/>
  <circle cx="11" cy="11" r="1" fill="srgba(87.4403%,0%,0%,1)"/>
  <circle cx="12" cy="11" r="1" fill="srgba(223,0,0,1)"/>
  <circle cx="13" cy="11" r="1" fill="srgba(223,0,0,1)"/>
  <circle cx="14" cy="11" r="1" fill="srgba(223,0,0,1)"/>
  <circle cx="15" cy="11" r="1" fill="srgba(223,0,0,1)"/>
  <circle cx="0" cy="12" r="1" fill="srgba(87.4525%,0%,0%,1)"/>
  <circle cx="1" cy="12" r="1" fill="srgba(87.4144%,0%,0%,1)"/>
  <circle cx="2" cy="12" r="1" fill="srgba(87.5837%,1.74411%,1.74411%,1)"/>
  <circle cx="3" cy="12" r="1" fill="srgba(90.9224%,27.6722%,27.6722%,1)"/>
  <circle cx="4" cy="12" r="1" fill="srgba(95.4253%,63.5492%,63.5492%,1)"/>
  <circle cx="5" cy="12" r="1" fill="srgba(97.4502%,79.6857%,79.6857%,1)"/>
  <circle cx="6" cy="12" r="1" fill="srgba(97.38%,79.1257%,79.1257%,1)"/>
  <circle cx="7" cy="12" r="1" fill="srgba(95.1629%,61.4588%,61.4588%,1)"/>
  <circle cx="8" cy="12" r="1" fill="srgba(90.5547%,24.7715%,24.7715%,1)"/>
  <circle cx="9" cy="12" r="1" fill="srgba(87.5013%,1.10475%,1.10475%,1)"/>
  <circle cx="10" cy="12" r="1" fill="srgba(87.4235%,0%,0%,1)"/>
  <circle cx="11" cy="12" r="1" fill="srgba(223,0,0,1)"/>
  <circle cx="12" cy="12" r="1" fill="srgba(223,0,0,1)"/>
  <circle cx="13" cy="12" r="1" fill="srgba(223,0,0,1)"/>
  <circle cx="14" cy="12" r="1" fill="srgba(223,0,0,1)"/>
  <circle cx="15" cy="12" r="1" fill="srgba(223,0,0,1)"/>
  <circle cx="0" cy="13" r="1" fill="srgba(223,0,0,1)"/>
  <circle cx="1" cy="13" r="1" fill="srgba(87.4525%,0%,0%,1)"/>
  <circle cx="2" cy="13" r="1" fill="srgba(87.4342%,0%,0%,1)"/>
  <circle cx="3" cy="13" r="1" fill="srgba(87.2938%,0%,0%,1)"/>
  <circle cx="4" cy="13" r="1" fill="srgba(87.5608%,1.3138%,1.3138%,1)"/>
  <circle cx="5" cy="13" r="1" fill="srgba(88.188%,5.85641%,5.85641%,1)"/>
  <circle cx="6" cy="13" r="1" fill="srgba(88.1544%,5.58175%,5.58175%,1)"/>
  <circle cx="7" cy="13" r="1" fill="srgba(87.5166%,1.0544%,1.0544%,1)"/>
  <circle cx="8" cy="13" r="1" fill="srgba(87.2999%,0%,0%,1)"/>
  <circle cx="9" cy="13" r="1" fill="srgba(87.4388%,0%,0%,1)"/>
  <circle cx="10" cy="13" r="1" fill="srgba(87.4525%,0%,0%,1)"/>
  <circle cx="11" cy="13" r="1" fill="srgba(223,0,0,1)"/>
  <circle cx="12" cy="13" r="1" fill="srgba(223,0,0,1)"/>
  <circle cx="13" cy="13" r="1" fill="srgba(223,0,0,1)"/>
  <circle cx="14" cy="13" r="1" fill="srgba(223,0,0,1)"/>
  <circle cx="15" cy="13" r="1" fill="srgba(223,0,0,1)"/>
  <circle cx="0" cy="14" r="1" fill="srgba(223,0,0,1)"/>
  <circle cx="1" cy="14" r="1" fill="srgba(223,0,0,1)"/>
  <circle cx="2" cy="14" r="1" fill="srgba(223,0,0,1)"/>
  <circle cx="3" cy="14" r="1" fill="srgba(223,0,0,1)"/>
  <circle cx="4" cy="14" r="1" fill="srgba(87.4403%,0%,0%,1)"/>
  <circle cx="5" cy="14" r="1" fill="srgba(87.4052%,0%,0%,1)"/>
  <circle cx="6" cy="14" r="1" fill="srgba(87.4067%,0%,0%,1)"/>
  <circle cx="7" cy="14" r="1" fill="srgba(87.4418%,0%,0%,1)"/>
  <circle cx="8" cy="14" r="1" fill="srgba(223,0,0,1)"/>
  <circle cx="9" cy="14" r="1" fill="srgba(223,0,0,1)"/>
  <circle cx="10" cy="14" r="1" fill="srgba(223,0,0,1)"/>
  <circle cx="11" cy="14" r="1" fill="srgba(223,0,0,1)"/>
  <circle cx="12" cy="14" r="1" fill="srgba(223,0,0,1)"/>
  <circle cx="13" cy="14" r="1" fill="srgba(223,0,0,1)"/>
  <circle cx="14" cy="14" r="1" fill="srgba(223,0,0,1)"/>
  <circle cx="15" cy="14" r="1" fill="srgba(223,0,0,1)"/>
  <circle cx="0" cy="15" r="1" fill="srgba(223,0,0,1)"/>
  <circle cx="1" cy="15" r="1" fill="srgba(223,0,0,1)"/>
  <circle cx="2" cy="15" r="1" fill="srgba(223,0,0,1)"/>
  <circle cx="3" cy="15" r="1" fill="srgba(223,0,0,1)"/>
  <circle cx="4" cy="15" r="1" fill="srgba(223,0,0,1)"/>
  <circle cx="5" cy="15" r="1" fill="srgba(223,0,0,1)"/>
  <circle cx="6" cy="15" r="1" fill="srgba(223,0,0,1)"/>
  <circle cx="7" cy="15" r="1" fill="srgba(223,0,0,1)"/>
  <circle cx="8" cy="15" r="1" fill="srgba(223,0,0,1)"/>
  <circle cx="9" cy="15" r="1" fill="srgba(223,0,0,1)"/>
  <circle cx="10" cy="15" r="1" fill="srgba(223,0,0,1)"/>
  <circle cx="11" cy="15" r="1" fill="srgba(223,0,0,1)"/>
  <circle cx="12" cy="15" r="1" fill="srgba(223,0,0,1)"/>
  <circle cx="13" cy="15" r="1" fill="srgba(223,0,0,1)"/>
  <circle cx="14" cy="15" r="1" fill="srgba(223,0,0,1)"/>
  <circle cx="15" cy="15" r="1" fill="srgba(223,0,0,1)"/>
</svg>
