<?xml version="1.0" standalone="no"?>
<!DOCTYPE svg PUBLIC "-//W3C//DTD SVG 20010904//EN"
  "http://www.w3.org/TR/2001/REC-SVG-20010904/DTD/svg10.dtd">
<svg width="16" height="16">
  <circle cx="0" cy="0" r="1" fill="srgba(16.8841%,55.7183%,24.9546%,1)"/>
  <circle cx="1" cy="0" r="1" fill="srgba(24.4602%,60.4837%,0%,1)"/>
  <circle cx="2" cy="0" r="1" fill="srgba(24.3122%,60.3922%,0%,1)"/>
  <circle cx="3" cy="0" r="1" fill="srgba(62,154,0,1)"/>
  <circle cx="4" cy="0" r="1" fill="srgba(62,154,0,1)"/>
  <circle cx="5" cy="0" r="1" fill="srgba(62,154,0,1)"/>
  <circle cx="6" cy="0" r="1" fill="srgba(62,154,0,1)"/>
  <circle cx="7" cy="0" r="1" fill="srgba(62,154,0,1)"/>
  <circle cx="8" cy="0" r="1" fill="srgba(62,154,0,1)"/>
  <circle cx="9" cy="0" r="1" fill="srgba(62,154,0,1)"/>
  <circle cx="10" cy="0" r="1" fill="srgba(62,154,0,1)"/>
  <circle cx="11" cy="0" r="1" fill="srgba(62,154,0,1)"/>
  <circle cx="12" cy="0" r="1" fill="srgba(62,154,0,1)"/>
  <circle cx="13" cy="0" r="1" fill="srgba(62,154,0,1)"/>
  <circle cx="14" cy="0" r="1" fill="srgba(62,154,0,1)"/>
  <circle cx="15" cy="0" r="1" fill="srgba(62,154,0,1)"/>
  <circle cx="0" cy="1" r="1" fill="srgba(5.26131%,48.3803%,63.444%,1)"/>
  <circle cx="1" cy="1" r="1" fill="srgba(21.3138%,58.5061%,10.3349%,1)"/>
  <circle cx="2" cy="1" r="1" fill="srgba(24.5151%,60.5188%,0%,1)"/>
  <circle cx="3" cy="1" r="1" fill="srgba(24.3122%,60.3906%,0%,1)"/>
  <circle cx="4" cy="1" r="1" fill="srgba(62,154,0,1)"/>
  <circle cx="5" cy="1" r="1" fill="srgba(62,154,0,1)"/>
  <circle cx="6" cy="1" r="1" fill="srgba(62,154,0,1)"/>
  <circle cx="7" cy="1" r="1" fill="srgba(62,154,0,1)"/>
  <circle cx="8" cy="1" r="1" fill="srgba(62,154,0,1)"/>
  <circle cx="9" cy="1" r="1" fill="srgba(62,154,0,1)"/>
  <circle cx="10" cy="1" r="1" fill="srgba(62,154,0,1)"/>
  <circle cx="11" cy="1" r="1" fill="srgba(62,154,0,1)"/>
  <circle cx="12" cy="1" r="1" fill="srgba(62,154,0,1)"/>
  <circle cx="13" cy="1" r="1" fill="srgba(62,154,0,1)"/>
  <circle cx="14" cy="1" r="1" fill="srgba(62,154,0,1)"/>
  <circle cx="15" cy="1" r="1" fill="srgba(62,154,0,1)"/>
  <circle cx="0" cy="2" r="1" fill="srgba(0%,44.9744%,81.4298%,1)"/>
  <circle cx="1" cy="2" r="1" fill="srgba(10.8995%,51.9265%,44.802%,1)"/>
  <circle cx="2" cy="2" r="1" fill="srgba(24.1581%,60.296%,0.898756%,1)"/>
  <circle cx="3" cy="2" r="1" fill="srgba(24.3442%,60.412%,0%,1)"/>
  <circle cx="4" cy="2" r="1" fill="srgba(62,154,0,1)"/>
  <circle cx="5" cy="2" r="1" fill="srgba(62,154,0,1)"/>
  <circle cx="6" cy="2" r="1" fill="srgba(62,154,0,1)"/>
  <circle cx="7" cy="2" r="1" fill="srgba(62,154,0,1)"/>
  <circle cx="8" cy="2" r="1" fill="srgba(62,154,0,1)"/>
  <circle cx="9" cy="2" r="1" fill="srgba(62,154,0,1)"/>
  <circle cx="10" cy="2" r="1" fill="srgba(62,154,0,1)"/>
  <circle cx="11" cy="2" r="1" fill="srgba(62,154,0,1)"/>
  <circle cx="12" cy="2" r="1" fill="srgba(62,154,0,1)"/>
  <circle cx="13" cy="2" r="1" fill="srgba(62,154,0,1)"/>
  <circle cx="14" cy="2" r="1" fill="srgba(62,154,0,1)"/>
  <circle cx="15" cy="2" r="1" fill="srgba(62,154,0,1)"/>
  <circle cx="0" cy="3" r="1" fill="srgba(0%,45.005%,81.2741%,1)"/>
  <circle cx="1" cy="3" r="1" fill="srgba(1.72732%,46.1082%,75.4299%,1)"/>
  <circle cx="2" cy="3" r="1" fill="srgba(17.9431%,56.3821%,21.4527%,1)"/>
  <circle cx="3" cy="3" r="1" fill="srgba(24.622%,60.5875%,0%,1)"/>
  <circle cx="4" cy="3" r="1" fill="srgba(24.2756%,60.3708%,0%,1)"/>
  <circle cx="5" cy="3" r="1" fill="srgba(24.2802%,60.3738%,0%,1)"/>
  <circle cx="6" cy="3" r="1" fill="srgba(24.2802%,60.3738%,0%,1)"/>
  <circle cx="7" cy="3" r="1" fill="srgba(24.2802%,60.3738%,0%,1)"/>
  <circle cx="8" cy="3" r="1" fill="srgba(24.2802%,60.3738%,0%,1)"/>
  <circle cx="9" cy="3" r="1" fill="srgba(24.2802%,60.3738%,0%,1)"/>
  <circle cx="10" cy="3" r="1" fill="srgba(24.2802%,60.3738%,0%,1)"/>
  <circle cx="11" cy="3" r="1" fill="srgba(24.2802%,60.3738%,0%,1)"/>
  <circle cx="12" cy="3" r="1" fill="srgba(24.2802%,60.3738%,0%,1)"/>
  <circle cx="13" cy="3" r="1" fill="srgba(24.2802%,60.3738%,0%,1)"/>
  <circle cx="14" cy="3" r="1" fill="srgba(24.2802%,60.3738%,0%,1)"/>
  <circle cx="15" cy="3" r="1" fill="srgba(24.2802%,60.3738%,0%,1)"/>
  <circle cx="0" cy="4" r="1" fill="srgba(0%,45.1011%,80.7706%,1)"/>
  <circle cx="1" cy="4" r="1" fill="srgba(0%,44.892%,81.8692%,1)"/>
  <circle cx="2" cy="4" r="1" fill="srgba(6.47135%,49.1157%,59.6216%,1)"/>
  <circle cx="3" cy="4" r="1" fill="srgba(23.2853%,59.6841%,6.16617%,1)"/>
  <circle cx="4" cy="4" r="1" fill="srgba(24.8432%,60.6821%,0.0961318%,1)"/>
  <circle cx="5" cy="4" r="1" fill="srgba(24.6448%,60.56%,0.427253%,1)"/>
  <circle cx="6" cy="4" r="1" fill="srgba(24.7456%,60.6989%,0.772107%,1)"/>
  <circle cx="7" cy="4" r="1" fill="srgba(24.8035%,60.7752%,0.950637%,1)"/>
  <circle cx="8" cy="4" r="1" fill="srgba(24.8066%,60.7782%,0.949111%,1)"/>
  <circle cx="9" cy="4" r="1" fill="srgba(24.8112%,60.7782%,0.927749%,1)"/>
  <circle cx="10" cy="4" r="1" fill="srgba(24.7608%,60.7004%,0.698863%,1)"/>
  <circle cx="11" cy="4" r="1" fill="srgba(24.7562%,60.6989%,0.71107%,1)"/>
  <circle cx="12" cy="4" r="1" fill="srgba(24.7456%,60.6897%,0.715648%,1)"/>
  <circle cx="13" cy="4" r="1" fill="srgba(24.7517%,60.6973%,0.729381%,1)"/>
  <circle cx="14" cy="4" r="1" fill="srgba(24.7486%,60.6973%,0.743114%,1)"/>
  <circle cx="15" cy="4" r="1" fill="srgba(24.7471%,60.6973%,0.756847%,1)"/>
  <circle cx="0" cy="5" r="1" fill="srgba(0,115,206,1)"/>
  <circle cx="1" cy="5" r="1" fill="srgba(0%,45.0782%,80.885%,1)"/>
  <circle cx="2" cy="5" r="1" fill="srgba(0%,44.8768%,79.4705%,1)"/>
  <circle cx="3" cy="5" r="1" fill="srgba(34.4884%,64.5426%,64.2084%,1)"/>
  <circle cx="4" cy="5" r="1" fill="srgba(73.492%,86.1418%,64.1718%,1)"/>
  <circle cx="5" cy="5" r="1" fill="srgba(73.2433%,86.0548%,64.7944%,1)"/>
  <circle cx="6" cy="5" r="1" fill="srgba(71.3512%,83.505%,58.6297%,1)"/>
  <circle cx="7" cy="5" r="1" fill="srgba(70.3578%,82.1729%,55.465%,1)"/>
  <circle cx="8" cy="5" r="1" fill="srgba(70.9712%,82.3896%,56.0784%,1)"/>
  <circle cx="9" cy="5" r="1" fill="srgba(71.4382%,82.6413%,56.91%,1)"/>
  <circle cx="10" cy="5" r="1" fill="srgba(72.4468%,84.1291%,60.9751%,1)"/>
  <circle cx="11" cy="5" r="1" fill="srgba(72.4834%,84.1489%,60.8057%,1)"/>
  <circle cx="12" cy="5" r="1" fill="srgba(72.578%,84.2725%,60.6546%,1)"/>
  <circle cx="13" cy="5" r="1" fill="srgba(71.9875%,83.917%,60.0153%,1)"/>
  <circle cx="14" cy="5" r="1" fill="srgba(71.4641%,83.6576%,59.2172%,1)"/>
  <circle cx="15" cy="5" r="1" fill="srgba(71.4366%,83.6057%,58.8022%,1)"/>
  <circle cx="0" cy="6" r="1" fill="srgba(0,115,206,1)"/>
  <circle cx="1" cy="6" r="1" fill="srgba(0%,45.0996%,80.7782%,1)"/>
  <circle cx="2" cy="6" r="1" fill="srgba(0%,44.683%,80.7385%,1)"/>
  <circle cx="3" cy="6" r="1" fill="srgba(12.9198%,52.1126%,84.445%,1)"/>
  <circle cx="4" cy="6" r="1" fill="srgba(82.0554%,90.132%,97.2824%,1)"/>
  <circle cx="5" cy="6" r="1" fill="white"/>
  <circle cx="6" cy="6" r="1" fill="srgba(95.3323%,93.5698%,87.1595%,1)"/>
  <circle cx="7" cy="6" r="1" fill="srgba(91.0689%,88.0186%,76.1364%,1)"/>
  <circle cx="8" cy="6" r="1" fill="srgba(78.6099%,82.3575%,67.1626%,1)"/>
  <circle cx="9" cy="6" r="1" fill="srgba(73.4264%,82.0645%,65.4047%,1)"/>
  <circle cx="10" cy="6" r="1" fill="srgba(75.5718%,84.8676%,71.8486%,1)"/>
  <circle cx="11" cy="6" r="1" fill="srgba(76.3195%,85.391%,72.6741%,1)"/>
  <circle cx="12" cy="6" r="1" fill="srgba(79.324%,86.949%,74.2885%,1)"/>
  <circle cx="13" cy="6" r="1" fill="srgba(85.301%,88.7327%,78.0148%,1)"/>
  <circle cx="14" cy="6" r="1" fill="srgba(94.0002%,92.0226%,82.8244%,1)"/>
  <circle cx="15" cy="6" r="1" fill="srgba(95.0622%,92.2194%,81.6526%,1)"/>
  <circle cx="0" cy="7" r="1" fill="srgba(0,115,206,1)"/>
  <circle cx="1" cy="7" r="1" fill="srgba(0,115,206,1)"/>
  <circle cx="2" cy="7" r="1" fill="srgba(0%,45.1011%,80.7858%,1)"/>
  <circle cx="3" cy="7" r="1" fill="srgba(0%,44.3381%,80.5188%,1)"/>
  <circle cx="4" cy="7" r="1" fill="srgba(36.112%,64.7837%,87.6738%,1)"/>
  <circle cx="5" cy="7" r="1" fill="srgba(97.6257%,98.7259%,99.5819%,1)"/>
  <circle cx="6" cy="7" r="1" fill="srgba(98.024%,97.9919%,98.0133%,1)"/>
  <circle cx="7" cy="7" r="1" fill="srgba(89.2103%,87.9942%,86.9062%,1)"/>
  <circle cx="8" cy="7" r="1" fill="srgba(33.6156%,65.6809%,44.7044%,1)"/>
  <circle cx="9" cy="7" r="1" fill="srgba(4.97292%,61.3169%,27.0268%,1)"/>
  <circle cx="10" cy="7" r="1" fill="srgba(5.9266%,61.8326%,27.5456%,1)"/>
  <circle cx="11" cy="7" r="1" fill="srgba(5.96628%,61.8387%,27.6005%,1)"/>
  <circle cx="12" cy="7" r="1" fill="srgba(7.15343%,62.2751%,28.5237%,1)"/>
  <circle cx="13" cy="7" r="1" fill="srgba(13.9071%,64.831%,33.6721%,1)"/>
  <circle cx="14" cy="7" r="1" fill="srgba(68.3558%,86.3127%,75.5016%,1)"/>
  <circle cx="15" cy="7" r="1" fill="srgba(100%,99.1852%,99.9619%,1)"/>
  <circle cx="0" cy="8" r="1" fill="srgba(0,115,206,1)"/>
  <circle cx="1" cy="8" r="1" fill="srgba(0,115,206,1)"/>
  <circle cx="2" cy="8" r="1" fill="srgba(0%,45.1011%,80.7858%,1)"/>
  <circle cx="3" cy="8" r="1" fill="srgba(0%,44.3381%,80.5188%,1)"/>
  <circle cx="4" cy="8" r="1" fill="srgba(36.17%,64.8402%,87.7302%,1)"/>
  <circle cx="5" cy="8" r="1" fill="srgba(96.7056%,97.8058%,98.6618%,1)"/>
  <circle cx="6" cy="8" r="1" fill="srgba(96.2707%,96.2875%,96.3882%,1)"/>
  <circle cx="7" cy="8" r="1" fill="srgba(86.5751%,84.3488%,81.4481%,1)"/>
  <circle cx="8" cy="8" r="1" fill="srgba(27.454%,61.7426%,36.4508%,1)"/>
  <circle cx="9" cy="8" r="1" fill="srgba(2.90684%,60.8286%,25.0004%,1)"/>
  <circle cx="10" cy="8" r="1" fill="srgba(8.63508%,63.2792%,29.5842%,1)"/>
  <circle cx="11" cy="8" r="1" fill="srgba(11.281%,64.4541%,31.6518%,1)"/>
  <circle cx="12" cy="8" r="1" fill="srgba(13.7499%,65.3452%,33.518%,1)"/>
  <circle cx="13" cy="8" r="1" fill="srgba(16.1852%,66.1753%,35.3368%,1)"/>
  <circle cx="14" cy="8" r="1" fill="srgba(68.9174%,86.7597%,75.7519%,1)"/>
  <circle cx="15" cy="8" r="1" fill="srgba(100%,99.4766%,100%,1)"/>
  <circle cx="0" cy="9" r="1" fill="srgba(0,115,206,1)"/>
  <circle cx="1" cy="9" r="1" fill="srgba(0%,45.095%,80.7797%,1)"/>
  <circle cx="2" cy="9" r="1" fill="srgba(0%,44.7379%,80.7279%,1)"/>
  <circle cx="3" cy="9" r="1" fill="srgba(12.3201%,52.781%,84.3137%,1)"/>
  <circle cx="4" cy="9" r="1" fill="srgba(81.4939%,90.6691%,97.2976%,1)"/>
  <circle cx="5" cy="9" r="1" fill="srgba(99.2767%,98.9349%,98.5977%,1)"/>
  <circle cx="6" cy="9" r="1" fill="srgba(74.1176%,74.3236%,74.5068%,1)"/>
  <circle cx="7" cy="9" r="1" fill="srgba(73.5836%,72.0302%,68.7984%,1)"/>
  <circle cx="8" cy="9" r="1" fill="srgba(41.323%,65.0782%,46.7582%,1)"/>
  <circle cx="9" cy="9" r="1" fill="srgba(25.4353%,58.7655%,38.4207%,1)"/>
  <circle cx="10" cy="9" r="1" fill="srgba(52.5475%,72.5017%,60.1938%,1)"/>
  <circle cx="11" cy="9" r="1" fill="srgba(75.5779%,82.4033%,78.1933%,1)"/>
  <circle cx="12" cy="9" r="1" fill="srgba(77.557%,83.1617%,79.7055%,1)"/>
  <circle cx="13" cy="9" r="1" fill="srgba(79.9603%,84.3366%,81.6373%,1)"/>
  <circle cx="14" cy="9" r="1" fill="srgba(86.3096%,87.1946%,86.6484%,1)"/>
  <circle cx="15" cy="9" r="1" fill="srgba(88.4581%,88.3894%,88.4321%,1)"/>
  <circle cx="0" cy="10" r="1" fill="srgba(0,115,206,1)"/>
  <circle cx="1" cy="10" r="1" fill="srgba(0%,45.1362%,80.8728%,1)"/>
  <circle cx="2" cy="10" r="1" fill="srgba(0.901808%,44.1962%,79.6063%,1)"/>
  <circle cx="3" cy="10" r="1" fill="srgba(52.1187%,51.6701%,66.7689%,1)"/>
  <circle cx="4" cy="10" r="1" fill="srgba(96.8154%,69.0715%,67.5456%,1)"/>
  <circle cx="5" cy="10" r="1" fill="srgba(95.5215%,69.8222%,68.6168%,1)"/>
  <circle cx="6" cy="10" r="1" fill="srgba(37.1908%,31.1788%,30.9483%,1)"/>
  <circle cx="7" cy="10" r="1" fill="srgba(17.4243%,17.3327%,16.7437%,1)"/>
  <circle cx="8" cy="10" r="1" fill="srgba(24.6326%,44.6372%,31.0567%,1)"/>
  <circle cx="9" cy="10" r="1" fill="srgba(4.5243%,30.2541%,14.4182%,1)"/>
  <circle cx="10" cy="10" r="1" fill="srgba(11.1254%,31.989%,19.0967%,1)"/>
  <circle cx="11" cy="10" r="1" fill="srgba(68.2475%,77.29%,71.7144%,1)"/>
  <circle cx="12" cy="10" r="1" fill="srgba(95.4116%,94.9935%,95.2514%,1)"/>
  <circle cx="13" cy="10" r="1" fill="srgba(94.3099%,94.0185%,94.1985%,1)"/>
  <circle cx="14" cy="10" r="1" fill="srgba(93.991%,93.9269%,93.9666%,1)"/>
  <circle cx="15" cy="10" r="1" fill="srgba(94.052%,94.0566%,94.0536%,1)"/>
  <circle cx="0" cy="11" r="1" fill="srgba(0%,45.0919%,80.7721%,1)"/>
  <circle cx="1" cy="11" r="1" fill="srgba(0%,45.5299%,81.7426%,1)"/>
  <circle cx="2" cy="11" r="1" fill="srgba(23.6423%,36.6842%,62.0874%,1)"/>
  <circle cx="3" cy="11" r="1" fill="srgba(83.1601%,15.7687%,14.8775%,1)"/>
  <circle cx="4" cy="11" r="1" fill="srgba(89.5933%,13.0465%,9.31563%,1)"/>
  <circle cx="5" cy="11" r="1" fill="srgba(88.922%,16.8399%,13.4981%,1)"/>
  <circle cx="6" cy="11" r="1" fill="srgba(34.3664%,17.4273%,16.6445%,1)"/>
  <circle cx="7" cy="11" r="1" fill="black"/>
  <circle cx="8" cy="11" r="1" fill="srgba(0.148013%,3.60418%,1.1078%,1)"/>
  <circle cx="9" cy="11" r="1" fill="srgba(0%,6.99168%,2.5391%,1)"/>
  <circle cx="10" cy="11" r="1" fill="srgba(0%,4.08942%,1.07271%,1)"/>
  <circle cx="11" cy="11" r="1" fill="srgba(14.052%,20.4105%,16.35%,1)"/>
  <circle cx="12" cy="11" r="1" fill="srgba(69.865%,70.7179%,70.2007%,1)"/>
  <circle cx="13" cy="11" r="1" fill="srgba(98.4619%,98.4085%,98.4405%,1)"/>
  <circle cx="14" cy="11" r="1" fill="white"/>
  <circle cx="15" cy="11" r="1" fill="white"/>
  <circle cx="0" cy="12" r="1" fill="srgba(0%,45.2934%,81.2161%,1)"/>
  <circle cx="1" cy="12" r="1" fill="srgba(6.32486%,42.9725%,76.0678%,1)"/>
  <circle cx="2" cy="12" r="1" fill="srgba(65.6962%,21.3718%,28.1239%,1)"/>
  <circle cx="3" cy="12" r="1" fill="srgba(90.2205%,12.4819%,8.42145%,1)"/>
  <circle cx="4" cy="12" r="1" fill="srgba(89.0455%,12.7245%,9.18898%,1)"/>
  <circle cx="5" cy="12" r="1" fill="srgba(88.7907%,16.3455%,12.987%,1)"/>
  <circle cx="6" cy="12" r="1" fill="srgba(33.8476%,16.8292%,16.0418%,1)"/>
  <circle cx="7" cy="12" r="1" fill="black"/>
  <circle cx="8" cy="12" r="1" fill="srgba(0%,0.00457771%,0.0015259%,1)"/>
  <circle cx="9" cy="12" r="1" fill="srgba(0%,0.0762951%,0.0289921%,1)"/>
  <circle cx="10" cy="12" r="1" fill="srgba(0%,0.865187%,0.331121%,1)"/>
  <circle cx="11" cy="12" r="1" fill="srgba(0%,0.00610361%,0%,1)"/>
  <circle cx="12" cy="12" r="1" fill="srgba(6.04257%,6.02579%,6.03494%,1)"/>
  <circle cx="13" cy="12" r="1" fill="srgba(42.7634%,42.7619%,42.7619%,1)"/>
  <circle cx="14" cy="12" r="1" fill="srgba(87.0085%,87.0085%,87.0085%,1)"/>
  <circle cx="15" cy="12" r="1" fill="white"/>
  <circle cx="0" cy="13" r="1" fill="srgba(0%,45.3574%,81.3596%,1)"/>
  <circle cx="1" cy="13" r="1" fill="srgba(39.9054%,30.7408%,48.9158%,1)"/>
  <circle cx="2" cy="13" r="1" fill="srgba(88.4489%,13.1441%,9.86191%,1)"/>
  <circle cx="3" cy="13" r="1" fill="srgba(89.1341%,12.9%,9.32021%,1)"/>
  <circle cx="4" cy="13" r="1" fill="srgba(89.073%,12.7733%,9.23323%,1)"/>
  <circle cx="5" cy="13" r="1" fill="srgba(88.5588%,16.0098%,12.6452%,1)"/>
  <circle cx="6" cy="13" r="1" fill="srgba(32.6802%,14.8959%,14.0734%,1)"/>
  <circle cx="7" cy="13" r="1" fill="black"/>
  <circle cx="8" cy="13" r="1" fill="black"/>
  <circle cx="9" cy="13" r="1" fill="black"/>
  <circle cx="10" cy="13" r="1" fill="srgba(0%,0.402838%,0.154116%,1)"/>
  <circle cx="11" cy="13" r="1" fill="srgba(0%,0.129702%,0.0503548%,1)"/>
  <circle cx="12" cy="13" r="1" fill="srgba(0.31281%,0%,0%,1)"/>
  <circle cx="13" cy="13" r="1" fill="srgba(0.624094%,0.157168%,0.157168%,1)"/>
  <circle cx="14" cy="13" r="1" fill="srgba(17.4838%,17.5113%,17.5113%,1)"/>
  <circle cx="15" cy="13" r="1" fill="srgba(59.2737%,59.2737%,59.2737%,1)"/>
  <circle cx="0" cy="14" r="1" fill="srgba(19.266%,38.1979%,65.4673%,1)"/>
  <circle cx="1" cy="14" r="1" fill="srgba(78.0346%,16.907%,18.2147%,1)"/>
  <circle cx="2" cy="14" r="1" fill="srgba(89.7597%,12.6741%,8.81819%,1)"/>
  <circle cx="3" cy="14" r="1" fill="srgba(89.0135%,12.9442%,9.41634%,1)"/>
  <circle cx="4" cy="14" r="1" fill="srgba(89.0791%,12.7901%,9.25002%,1)"/>
  <circle cx="5" cy="14" r="1" fill="srgba(88.452%,15.6497%,12.2728%,1)"/>
  <circle cx="6" cy="14" r="1" fill="srgba(32.3568%,13.2403%,12.3552%,1)"/>
  <circle cx="7" cy="14" r="1" fill="black"/>
  <circle cx="8" cy="14" r="1" fill="black"/>
  <circle cx="9" cy="14" r="1" fill="black"/>
  <circle cx="10" cy="14" r="1" fill="srgba(0%,0.173953%,0.0671397%,1)"/>
  <circle cx="11" cy="14" r="1" fill="srgba(0%,0.0549325%,0.0213626%,1)"/>
  <circle cx="12" cy="14" r="1" fill="srgba(0.0854505%,0.00915541%,0.00762951%,1)"/>
  <circle cx="13" cy="14" r="1" fill="srgba(0.112917%,0.0167849%,0.0122072%,1)"/>
  <circle cx="14" cy="14" r="1" fill="black"/>
  <circle cx="15" cy="14" r="1" fill="srgba(1.89059%,1.89059%,1.89059%,1)"/>
  <circle cx="0" cy="15" r="1" fill="srgba(61.8158%,22.768%,31.2215%,1)"/>
  <circle cx="1" cy="15" r="1" fill="srgba(89.5552%,12.7474%,8.98299%,1)"/>
  <circle cx="2" cy="15" r="1" fill="srgba(89.015%,12.9427%,9.41482%,1)"/>
  <circle cx="3" cy="15" r="1" fill="srgba(227,33,24,1)"/>
  <circle cx="4" cy="15" r="1" fill="srgba(89.0837%,12.8038%,9.26375%,1)"/>
  <circle cx="5" cy="15" r="1" fill="srgba(88.4001%,15.3689%,11.9829%,1)"/>
  <circle cx="6" cy="15" r="1" fill="srgba(32.2988%,12.1233%,11.191%,1)"/>
  <circle cx="7" cy="15" r="1" fill="black"/>
  <circle cx="8" cy="15" r="1" fill="black"/>
  <circle cx="9" cy="15" r="1" fill="black"/>
  <circle cx="10" cy="15" r="1" fill="black"/>
  <circle cx="11" cy="15" r="1" fill="black"/>
  <circle cx="12" cy="15" r="1" fill="black"/>
  <circle cx="13" cy="15" r="1" fill="black"/>
  <circle cx="14" cy="15" r="1" fill="black"/>
  <circle cx="15" cy="15" r="1" fill="black"/>
</svg>
