<?xml version="1.0" standalone="no"?>
<!DOCTYPE svg PUBLIC "-//W3C//DTD SVG 20010904//EN"
  "http://www.w3.org/TR/2001/REC-SVG-20010904/DTD/svg10.dtd">
<svg width="16" height="16">
  <circle cx="0" cy="0" r="1" fill="srgba(13,94,175,1)"/>
  <circle cx="1" cy="0" r="1" fill="srgba(13,94,175,1)"/>
  <circle cx="2" cy="0" r="1" fill="srgba(3.53857%,35.8251%,68.1117%,1)"/>
  <circle cx="3" cy="0" r="1" fill="srgba(47.4235%,65.0217%,82.62%,1)"/>
  <circle cx="4" cy="0" r="1" fill="white"/>
  <circle cx="5" cy="0" r="1" fill="srgba(39.4598%,59.7192%,79.9893%,1)"/>
  <circle cx="6" cy="0" r="1" fill="srgba(3.44091%,35.7595%,68.0797%,1)"/>
  <circle cx="7" cy="0" r="1" fill="srgba(5.11635%,36.875%,68.6336%,1)"/>
  <circle cx="8" cy="0" r="1" fill="srgba(4.80354%,36.6674%,68.5298%,1)"/>
  <circle cx="9" cy="0" r="1" fill="srgba(3.56603%,35.8434%,68.1209%,1)"/>
  <circle cx="10" cy="0" r="1" fill="srgba(3.43481%,35.7565%,68.0766%,1)"/>
  <circle cx="11" cy="0" r="1" fill="srgba(3.44244%,35.761%,68.0797%,1)"/>
  <circle cx="12" cy="0" r="1" fill="srgba(3.44244%,35.761%,68.0797%,1)"/>
  <circle cx="13" cy="0" r="1" fill="srgba(3.44244%,35.761%,68.0797%,1)"/>
  <circle cx="14" cy="0" r="1" fill="srgba(3.44244%,35.761%,68.0797%,1)"/>
  <circle cx="15" cy="0" r="1" fill="srgba(3.44244%,35.761%,68.0797%,1)"/>
  <circle cx="0" cy="1" r="1" fill="srgba(13,94,175,1)"/>
  <circle cx="1" cy="1" r="1" fill="srgba(13,94,175,1)"/>
  <circle cx="2" cy="1" r="1" fill="srgba(3.53857%,35.8251%,68.1117%,1)"/>
  <circle cx="3" cy="1" r="1" fill="srgba(47.4235%,65.0217%,82.62%,1)"/>
  <circle cx="4" cy="1" r="1" fill="white"/>
  <circle cx="5" cy="1" r="1" fill="srgba(39.4598%,59.7192%,79.9893%,1)"/>
  <circle cx="6" cy="1" r="1" fill="srgba(3.44091%,35.7595%,68.0797%,1)"/>
  <circle cx="7" cy="1" r="1" fill="srgba(4.81727%,36.6766%,68.5344%,1)"/>
  <circle cx="8" cy="1" r="1" fill="srgba(9.51095%,39.7986%,70.0862%,1)"/>
  <circle cx="9" cy="1" r="1" fill="srgba(28.1025%,52.166%,76.2325%,1)"/>
  <circle cx="10" cy="1" r="1" fill="srgba(30.0633%,53.4707%,76.8795%,1)"/>
  <circle cx="11" cy="1" r="1" fill="srgba(29.9458%,53.3928%,76.8414%,1)"/>
  <circle cx="12" cy="1" r="1" fill="srgba(29.9458%,53.3928%,76.8414%,1)"/>
  <circle cx="13" cy="1" r="1" fill="srgba(29.9458%,53.3928%,76.8414%,1)"/>
  <circle cx="14" cy="1" r="1" fill="srgba(29.9458%,53.3928%,76.8414%,1)"/>
  <circle cx="15" cy="1" r="1" fill="srgba(29.9458%,53.3928%,76.8414%,1)"/>
  <circle cx="0" cy="2" r="1" fill="srgba(3.53857%,35.8251%,68.1117%,1)"/>
  <circle cx="1" cy="2" r="1" fill="srgba(3.53857%,35.8251%,68.1117%,1)"/>
  <circle cx="2" cy="2" r="1" fill="srgba(1.95468%,34.7707%,67.5883%,1)"/>
  <circle cx="3" cy="2" r="1" fill="srgba(46.5599%,64.4465%,82.3346%,1)"/>
  <circle cx="4" cy="2" r="1" fill="white"/>
  <circle cx="5" cy="2" r="1" fill="srgba(38.4649%,59.0585%,79.6612%,1)"/>
  <circle cx="6" cy="2" r="1" fill="srgba(1.85397%,34.7036%,67.5547%,1)"/>
  <circle cx="7" cy="2" r="1" fill="srgba(2.46433%,35.111%,67.7562%,1)"/>
  <circle cx="8" cy="2" r="1" fill="srgba(20.4364%,47.0665%,73.698%,1)"/>
  <circle cx="9" cy="2" r="1" fill="srgba(91.6106%,94.4182%,97.2274%,1)"/>
  <circle cx="10" cy="2" r="1" fill="srgba(99.118%,99.4125%,99.7086%,1)"/>
  <circle cx="11" cy="2" r="1" fill="srgba(98.6694%,99.115%,99.5605%,1)"/>
  <circle cx="12" cy="2" r="1" fill="srgba(98.6694%,99.115%,99.5605%,1)"/>
  <circle cx="13" cy="2" r="1" fill="srgba(98.6694%,99.115%,99.5605%,1)"/>
  <circle cx="14" cy="2" r="1" fill="srgba(98.6694%,99.115%,99.5605%,1)"/>
  <circle cx="15" cy="2" r="1" fill="srgba(98.6694%,99.115%,99.5605%,1)"/>
  <circle cx="0" cy="3" r="1" fill="srgba(47.4235%,65.0217%,82.62%,1)"/>
  <circle cx="1" cy="3" r="1" fill="srgba(47.4235%,65.0217%,82.62%,1)"/>
  <circle cx="2" cy="3" r="1" fill="srgba(46.5599%,64.4465%,82.3346%,1)"/>
  <circle cx="3" cy="3" r="1" fill="srgba(70.8721%,80.6226%,90.3716%,1)"/>
  <circle cx="4" cy="3" r="1" fill="white"/>
  <circle cx="5" cy="3" r="1" fill="srgba(66.4607%,77.6852%,88.9143%,1)"/>
  <circle cx="6" cy="3" r="1" fill="srgba(46.5049%,64.4114%,82.3163%,1)"/>
  <circle cx="7" cy="3" r="1" fill="srgba(47.306%,64.9439%,82.5818%,1)"/>
  <circle cx="8" cy="3" r="1" fill="srgba(49.2744%,66.2531%,83.2319%,1)"/>
  <circle cx="9" cy="3" r="1" fill="srgba(57.0733%,71.4412%,85.8091%,1)"/>
  <circle cx="10" cy="3" r="1" fill="srgba(57.8958%,71.9875%,86.0822%,1)"/>
  <circle cx="11" cy="3" r="1" fill="srgba(57.847%,71.9554%,86.0655%,1)"/>
  <circle cx="12" cy="3" r="1" fill="srgba(57.847%,71.9554%,86.0655%,1)"/>
  <circle cx="13" cy="3" r="1" fill="srgba(57.847%,71.9554%,86.0655%,1)"/>
  <circle cx="14" cy="3" r="1" fill="srgba(57.847%,71.9554%,86.0655%,1)"/>
  <circle cx="15" cy="3" r="1" fill="srgba(57.847%,71.9554%,86.0655%,1)"/>
  <circle cx="0" cy="4" r="1" fill="white"/>
  <circle cx="1" cy="4" r="1" fill="white"/>
  <circle cx="2" cy="4" r="1" fill="white"/>
  <circle cx="3" cy="4" r="1" fill="white"/>
  <circle cx="4" cy="4" r="1" fill="white"/>
  <circle cx="5" cy="4" r="1" fill="white"/>
  <circle cx="6" cy="4" r="1" fill="white"/>
  <circle cx="7" cy="4" r="1" fill="white"/>
  <circle cx="8" cy="4" r="1" fill="srgba(83.0488%,88.7221%,94.3954%,1)"/>
  <circle cx="9" cy="4" r="1" fill="srgba(11.5969%,41.1872%,70.7744%,1)"/>
  <circle cx="10" cy="4" r="1" fill="srgba(4.05432%,36.17%,68.2811%,1)"/>
  <circle cx="11" cy="4" r="1" fill="srgba(4.50446%,36.4691%,68.4306%,1)"/>
  <circle cx="12" cy="4" r="1" fill="srgba(4.50446%,36.4691%,68.4306%,1)"/>
  <circle cx="13" cy="4" r="1" fill="srgba(4.50446%,36.4691%,68.4306%,1)"/>
  <circle cx="14" cy="4" r="1" fill="srgba(4.50446%,36.4691%,68.4306%,1)"/>
  <circle cx="15" cy="4" r="1" fill="srgba(4.50446%,36.4691%,68.4306%,1)"/>
  <circle cx="0" cy="5" r="1" fill="srgba(39.4598%,59.7192%,79.9893%,1)"/>
  <circle cx="1" cy="5" r="1" fill="srgba(39.4598%,59.7192%,79.9893%,1)"/>
  <circle cx="2" cy="5" r="1" fill="srgba(38.4649%,59.057%,79.6612%,1)"/>
  <circle cx="3" cy="5" r="1" fill="srgba(66.4607%,77.6837%,88.9143%,1)"/>
  <circle cx="4" cy="5" r="1" fill="white"/>
  <circle cx="5" cy="5" r="1" fill="srgba(61.3794%,74.3023%,87.2374%,1)"/>
  <circle cx="6" cy="5" r="1" fill="srgba(38.4024%,59.0158%,79.6399%,1)"/>
  <circle cx="7" cy="5" r="1" fill="srgba(39.1592%,59.5193%,79.8901%,1)"/>
  <circle cx="8" cy="5" r="1" fill="srgba(44.1993%,62.8748%,81.5549%,1)"/>
  <circle cx="9" cy="5" r="1" fill="srgba(64.1703%,76.17%,88.1498%,1)"/>
  <circle cx="10" cy="5" r="1" fill="srgba(66.276%,77.5723%,88.8457%,1)"/>
  <circle cx="11" cy="5" r="1" fill="srgba(66.1509%,77.4884%,88.8045%,1)"/>
  <circle cx="12" cy="5" r="1" fill="srgba(66.1509%,77.4884%,88.8045%,1)"/>
  <circle cx="13" cy="5" r="1" fill="srgba(66.1509%,77.4884%,88.8045%,1)"/>
  <circle cx="14" cy="5" r="1" fill="srgba(66.1509%,77.4884%,88.8045%,1)"/>
  <circle cx="15" cy="5" r="1" fill="srgba(66.1509%,77.4884%,88.8045%,1)"/>
  <circle cx="0" cy="6" r="1" fill="srgba(3.44091%,35.7595%,68.0797%,1)"/>
  <circle cx="1" cy="6" r="1" fill="srgba(3.44091%,35.7595%,68.0797%,1)"/>
  <circle cx="2" cy="6" r="1" fill="srgba(1.85397%,34.7036%,67.5547%,1)"/>
  <circle cx="3" cy="6" r="1" fill="srgba(46.5064%,64.4114%,82.3163%,1)"/>
  <circle cx="4" cy="6" r="1" fill="white"/>
  <circle cx="5" cy="6" r="1" fill="srgba(38.4024%,59.0158%,79.6399%,1)"/>
  <circle cx="6" cy="6" r="1" fill="srgba(1.75479%,34.638%,67.5227%,1)"/>
  <circle cx="7" cy="6" r="1" fill="srgba(2.40024%,35.0668%,67.7363%,1)"/>
  <circle cx="8" cy="6" r="1" fill="srgba(19.8138%,46.6514%,73.4936%,1)"/>
  <circle cx="9" cy="6" r="1" fill="srgba(88.7755%,92.5307%,96.2905%,1)"/>
  <circle cx="10" cy="6" r="1" fill="srgba(96.0494%,97.3693%,98.6954%,1)"/>
  <circle cx="11" cy="6" r="1" fill="srgba(95.6146%,97.0809%,98.5519%,1)"/>
  <circle cx="12" cy="6" r="1" fill="srgba(95.6146%,97.0809%,98.5519%,1)"/>
  <circle cx="13" cy="6" r="1" fill="srgba(95.6146%,97.0809%,98.5519%,1)"/>
  <circle cx="14" cy="6" r="1" fill="srgba(95.6146%,97.0809%,98.5519%,1)"/>
  <circle cx="15" cy="6" r="1" fill="srgba(95.6146%,97.0809%,98.5519%,1)"/>
  <circle cx="0" cy="7" r="1" fill="srgba(4.03601%,36.1563%,68.2765%,1)"/>
  <circle cx="1" cy="7" r="1" fill="srgba(4.03601%,36.1563%,68.2765%,1)"/>
  <circle cx="2" cy="7" r="1" fill="srgba(2.45975%,35.108%,67.7546%,1)"/>
  <circle cx="3" cy="7" r="1" fill="srgba(46.836%,64.6311%,82.4247%,1)"/>
  <circle cx="4" cy="7" r="1" fill="white"/>
  <circle cx="5" cy="7" r="1" fill="srgba(38.7823%,59.2691%,79.7665%,1)"/>
  <circle cx="6" cy="7" r="1" fill="srgba(2.36057%,35.0408%,67.7226%,1)"/>
  <circle cx="7" cy="7" r="1" fill="srgba(3.82849%,36.0174%,68.2078%,1)"/>
  <circle cx="8" cy="7" r="1" fill="srgba(7.3106%,38.3337%,69.3599%,1)"/>
  <circle cx="9" cy="7" r="1" fill="srgba(21.1002%,47.5059%,73.9193%,1)"/>
  <circle cx="10" cy="7" r="1" fill="srgba(22.5544%,48.4733%,74.3999%,1)"/>
  <circle cx="11" cy="7" r="1" fill="srgba(22.4674%,48.4154%,74.3709%,1)"/>
  <circle cx="12" cy="7" r="1" fill="srgba(22.4674%,48.4154%,74.3709%,1)"/>
  <circle cx="13" cy="7" r="1" fill="srgba(22.4674%,48.4154%,74.3709%,1)"/>
  <circle cx="14" cy="7" r="1" fill="srgba(22.4674%,48.4154%,74.3709%,1)"/>
  <circle cx="15" cy="7" r="1" fill="srgba(22.4674%,48.4154%,74.3709%,1)"/>
  <circle cx="0" cy="8" r="1" fill="srgba(21.8021%,47.9744%,74.1451%,1)"/>
  <circle cx="1" cy="8" r="1" fill="srgba(21.8021%,47.9744%,74.1451%,1)"/>
  <circle cx="2" cy="8" r="1" fill="srgba(20.5203%,47.1214%,73.7209%,1)"/>
  <circle cx="3" cy="8" r="1" fill="srgba(56.5957%,71.1208%,85.6474%,1)"/>
  <circle cx="4" cy="8" r="1" fill="white"/>
  <circle cx="5" cy="8" r="1" fill="srgba(50.0481%,66.7628%,83.4852%,1)"/>
  <circle cx="6" cy="8" r="1" fill="srgba(20.4395%,47.068%,73.695%,1)"/>
  <circle cx="7" cy="8" r="1" fill="srgba(21.8112%,47.9805%,74.1482%,1)"/>
  <circle cx="8" cy="8" r="1" fill="srgba(21.6541%,47.8752%,74.0963%,1)"/>
  <circle cx="9" cy="8" r="1" fill="srgba(21.033%,47.4601%,73.8933%,1)"/>
  <circle cx="10" cy="8" r="1" fill="srgba(20.9674%,47.4159%,73.872%,1)"/>
  <circle cx="11" cy="8" r="1" fill="srgba(20.972%,47.4189%,73.8735%,1)"/>
  <circle cx="12" cy="8" r="1" fill="srgba(20.972%,47.4189%,73.8735%,1)"/>
  <circle cx="13" cy="8" r="1" fill="srgba(20.972%,47.4189%,73.8735%,1)"/>
  <circle cx="14" cy="8" r="1" fill="srgba(20.972%,47.4189%,73.8735%,1)"/>
  <circle cx="15" cy="8" r="1" fill="srgba(20.972%,47.4189%,73.8735%,1)"/>
  <circle cx="0" cy="9" r="1" fill="srgba(94.5006%,96.3394%,98.1796%,1)"/>
  <circle cx="1" cy="9" r="1" fill="srgba(94.5006%,96.3394%,98.1796%,1)"/>
  <circle cx="2" cy="9" r="1" fill="srgba(94.4106%,96.2799%,98.1491%,1)"/>
  <circle cx="3" cy="9" r="1" fill="srgba(96.9543%,97.9736%,98.9914%,1)"/>
  <circle cx="4" cy="9" r="1" fill="white"/>
  <circle cx="5" cy="9" r="1" fill="srgba(96.4996%,97.6699%,98.8418%,1)"/>
  <circle cx="6" cy="9" r="1" fill="srgba(94.4045%,96.2753%,98.1476%,1)"/>
  <circle cx="7" cy="9" r="1" fill="srgba(94.4976%,96.3378%,98.1781%,1)"/>
  <circle cx="8" cy="9" r="1" fill="srgba(94.5373%,96.3638%,98.1918%,1)"/>
  <circle cx="9" cy="9" r="1" fill="srgba(94.6914%,96.4645%,98.2452%,1)"/>
  <circle cx="10" cy="9" r="1" fill="srgba(94.7082%,96.4752%,98.2498%,1)"/>
  <circle cx="11" cy="9" r="1" fill="srgba(94.7066%,96.4752%,98.2498%,1)"/>
  <circle cx="12" cy="9" r="1" fill="srgba(94.7066%,96.4752%,98.2498%,1)"/>
  <circle cx="13" cy="9" r="1" fill="srgba(94.7066%,96.4752%,98.2498%,1)"/>
  <circle cx="14" cy="9" r="1" fill="srgba(94.7066%,96.4752%,98.2498%,1)"/>
  <circle cx="15" cy="9" r="1" fill="srgba(94.7066%,96.4752%,98.2498%,1)"/>
  <circle cx="0" cy="10" r="1" fill="srgba(68.1422%,78.7976%,89.4636%,1)"/>
  <circle cx="1" cy="10" r="1" fill="srgba(68.1422%,78.7976%,89.4636%,1)"/>
  <circle cx="2" cy="10" r="1" fill="srgba(68.1498%,78.8022%,89.4667%,1)"/>
  <circle cx="3" cy="10" r="1" fill="srgba(67.9423%,78.6648%,89.398%,1)"/>
  <circle cx="4" cy="10" r="1" fill="srgba(67.6921%,78.5%,89.3156%,1)"/>
  <circle cx="5" cy="10" r="1" fill="srgba(67.9805%,78.6908%,89.4102%,1)"/>
  <circle cx="6" cy="10" r="1" fill="srgba(68.1498%,78.8022%,89.4667%,1)"/>
  <circle cx="7" cy="10" r="1" fill="srgba(68.1422%,78.7976%,89.4636%,1)"/>
  <circle cx="8" cy="10" r="1" fill="srgba(68.1392%,78.7961%,89.4621%,1)"/>
  <circle cx="9" cy="10" r="1" fill="srgba(68.1285%,78.7884%,89.4591%,1)"/>
  <circle cx="10" cy="10" r="1" fill="srgba(68.127%,78.7884%,89.4591%,1)"/>
  <circle cx="11" cy="10" r="1" fill="srgba(68.127%,78.7884%,89.4591%,1)"/>
  <circle cx="12" cy="10" r="1" fill="srgba(68.127%,78.7884%,89.4591%,1)"/>
  <circle cx="13" cy="10" r="1" fill="srgba(68.127%,78.7884%,89.4591%,1)"/>
  <circle cx="14" cy="10" r="1" fill="srgba(68.127%,78.7884%,89.4591%,1)"/>
  <circle cx="15" cy="10" r="1" fill="srgba(68.127%,78.7884%,89.4591%,1)"/>
  <circle cx="0" cy="11" r="1" fill="srgba(4.74556%,36.6278%,68.51%,1)"/>
  <circle cx="1" cy="11" r="1" fill="srgba(4.74556%,36.6278%,68.51%,1)"/>
  <circle cx="2" cy="11" r="1" fill="srgba(4.74556%,36.6278%,68.51%,1)"/>
  <circle cx="3" cy="11" r="1" fill="srgba(4.74556%,36.6278%,68.51%,1)"/>
  <circle cx="4" cy="11" r="1" fill="srgba(4.74556%,36.6278%,68.51%,1)"/>
  <circle cx="5" cy="11" r="1" fill="srgba(4.74556%,36.6278%,68.51%,1)"/>
  <circle cx="6" cy="11" r="1" fill="srgba(4.74556%,36.6278%,68.51%,1)"/>
  <circle cx="7" cy="11" r="1" fill="srgba(4.74556%,36.6278%,68.51%,1)"/>
  <circle cx="8" cy="11" r="1" fill="srgba(4.74556%,36.6278%,68.51%,1)"/>
  <circle cx="9" cy="11" r="1" fill="srgba(4.74556%,36.6278%,68.51%,1)"/>
  <circle cx="10" cy="11" r="1" fill="srgba(4.74556%,36.6278%,68.51%,1)"/>
  <circle cx="11" cy="11" r="1" fill="srgba(4.74556%,36.6278%,68.51%,1)"/>
  <circle cx="12" cy="11" r="1" fill="srgba(4.74556%,36.6278%,68.51%,1)"/>
  <circle cx="13" cy="11" r="1" fill="srgba(4.74556%,36.6278%,68.51%,1)"/>
  <circle cx="14" cy="11" r="1" fill="srgba(4.74556%,36.6278%,68.51%,1)"/>
  <circle cx="15" cy="11" r="1" fill="srgba(4.74556%,36.6278%,68.51%,1)"/>
  <circle cx="0" cy="12" r="1" fill="srgba(55.9365%,70.6935%,85.4398%,1)"/>
  <circle cx="1" cy="12" r="1" fill="srgba(55.9365%,70.6935%,85.4398%,1)"/>
  <circle cx="2" cy="12" r="1" fill="srgba(55.9365%,70.6935%,85.4398%,1)"/>
  <circle cx="3" cy="12" r="1" fill="srgba(55.9365%,70.6935%,85.4398%,1)"/>
  <circle cx="4" cy="12" r="1" fill="srgba(55.9365%,70.6935%,85.4398%,1)"/>
  <circle cx="5" cy="12" r="1" fill="srgba(55.9365%,70.6935%,85.4398%,1)"/>
  <circle cx="6" cy="12" r="1" fill="srgba(55.9365%,70.6935%,85.4398%,1)"/>
  <circle cx="7" cy="12" r="1" fill="srgba(55.9365%,70.6935%,85.4398%,1)"/>
  <circle cx="8" cy="12" r="1" fill="srgba(55.9365%,70.6935%,85.4398%,1)"/>
  <circle cx="9" cy="12" r="1" fill="srgba(55.9365%,70.6935%,85.4398%,1)"/>
  <circle cx="10" cy="12" r="1" fill="srgba(55.9365%,70.6935%,85.4398%,1)"/>
  <circle cx="11" cy="12" r="1" fill="srgba(55.9365%,70.6935%,85.4398%,1)"/>
  <circle cx="12" cy="12" r="1" fill="srgba(55.9365%,70.6935%,85.4398%,1)"/>
  <circle cx="13" cy="12" r="1" fill="srgba(55.9365%,70.6935%,85.4398%,1)"/>
  <circle cx="14" cy="12" r="1" fill="srgba(55.9365%,70.6935%,85.4398%,1)"/>
  <circle cx="15" cy="12" r="1" fill="srgba(55.9365%,70.6935%,85.4398%,1)"/>
  <circle cx="0" cy="13" r="1" fill="srgba(99.2462%,99.498%,99.7498%,1)"/>
  <circle cx="1" cy="13" r="1" fill="srgba(99.2462%,99.498%,99.7498%,1)"/>
  <circle cx="2" cy="13" r="1" fill="srgba(99.2462%,99.498%,99.7498%,1)"/>
  <circle cx="3" cy="13" r="1" fill="srgba(99.2462%,99.498%,99.7498%,1)"/>
  <circle cx="4" cy="13" r="1" fill="srgba(99.2462%,99.498%,99.7498%,1)"/>
  <circle cx="5" cy="13" r="1" fill="srgba(99.2462%,99.498%,99.7498%,1)"/>
  <circle cx="6" cy="13" r="1" fill="srgba(99.2462%,99.498%,99.7498%,1)"/>
  <circle cx="7" cy="13" r="1" fill="srgba(99.2462%,99.498%,99.7498%,1)"/>
  <circle cx="8" cy="13" r="1" fill="srgba(99.2462%,99.498%,99.7498%,1)"/>
  <circle cx="9" cy="13" r="1" fill="srgba(99.2462%,99.498%,99.7498%,1)"/>
  <circle cx="10" cy="13" r="1" fill="srgba(99.2462%,99.498%,99.7498%,1)"/>
  <circle cx="11" cy="13" r="1" fill="srgba(99.2462%,99.498%,99.7498%,1)"/>
  <circle cx="12" cy="13" r="1" fill="srgba(99.2462%,99.498%,99.7498%,1)"/>
  <circle cx="13" cy="13" r="1" fill="srgba(99.2462%,99.498%,99.7498%,1)"/>
  <circle cx="14" cy="13" r="1" fill="srgba(99.2462%,99.498%,99.7498%,1)"/>
  <circle cx="15" cy="13" r="1" fill="srgba(99.2462%,99.498%,99.7498%,1)"/>
  <circle cx="0" cy="14" r="1" fill="srgba(31.7617%,54.6014%,77.4411%,1)"/>
  <circle cx="1" cy="14" r="1" fill="srgba(31.7617%,54.6014%,77.4411%,1)"/>
  <circle cx="2" cy="14" r="1" fill="srgba(31.7617%,54.6014%,77.4411%,1)"/>
  <circle cx="3" cy="14" r="1" fill="srgba(31.7617%,54.6014%,77.4411%,1)"/>
  <circle cx="4" cy="14" r="1" fill="srgba(31.7617%,54.6014%,77.4411%,1)"/>
  <circle cx="5" cy="14" r="1" fill="srgba(31.7617%,54.6014%,77.4411%,1)"/>
  <circle cx="6" cy="14" r="1" fill="srgba(31.7617%,54.6014%,77.4411%,1)"/>
  <circle cx="7" cy="14" r="1" fill="srgba(31.7617%,54.6014%,77.4411%,1)"/>
  <circle cx="8" cy="14" r="1" fill="srgba(31.7617%,54.6014%,77.4411%,1)"/>
  <circle cx="9" cy="14" r="1" fill="srgba(31.7617%,54.6014%,77.4411%,1)"/>
  <circle cx="10" cy="14" r="1" fill="srgba(31.7617%,54.6014%,77.4411%,1)"/>
  <circle cx="11" cy="14" r="1" fill="srgba(31.7617%,54.6014%,77.4411%,1)"/>
  <circle cx="12" cy="14" r="1" fill="srgba(31.7617%,54.6014%,77.4411%,1)"/>
  <circle cx="13" cy="14" r="1" fill="srgba(31.7617%,54.6014%,77.4411%,1)"/>
  <circle cx="14" cy="14" r="1" fill="srgba(31.7617%,54.6014%,77.4411%,1)"/>
  <circle cx="15" cy="14" r="1" fill="srgba(31.7617%,54.6014%,77.4411%,1)"/>
  <circle cx="0" cy="15" r="1" fill="srgba(3.37224%,35.7153%,68.0568%,1)"/>
  <circle cx="1" cy="15" r="1" fill="srgba(3.37224%,35.7153%,68.0568%,1)"/>
  <circle cx="2" cy="15" r="1" fill="srgba(3.37224%,35.7153%,68.0568%,1)"/>
  <circle cx="3" cy="15" r="1" fill="srgba(3.37224%,35.7153%,68.0568%,1)"/>
  <circle cx="4" cy="15" r="1" fill="srgba(3.37224%,35.7153%,68.0568%,1)"/>
  <circle cx="5" cy="15" r="1" fill="srgba(3.37224%,35.7153%,68.0568%,1)"/>
  <circle cx="6" cy="15" r="1" fill="srgba(3.37224%,35.7153%,68.0568%,1)"/>
  <circle cx="7" cy="15" r="1" fill="srgba(3.37224%,35.7153%,68.0568%,1)"/>
  <circle cx="8" cy="15" r="1" fill="srgba(3.37224%,35.7153%,68.0568%,1)"/>
  <circle cx="9" cy="15" r="1" fill="srgba(3.37224%,35.7153%,68.0568%,1)"/>
  <circle cx="10" cy="15" r="1" fill="srgba(3.37224%,35.7153%,68.0568%,1)"/>
  <circle cx="11" cy="15" r="1" fill="srgba(3.37224%,35.7153%,68.0568%,1)"/>
  <circle cx="12" cy="15" r="1" fill="srgba(3.37224%,35.7153%,68.0568%,1)"/>
  <circle cx="13" cy="15" r="1" fill="srgba(3.37224%,35.7153%,68.0568%,1)"/>
  <circle cx="14" cy="15" r="1" fill="srgba(3.37224%,35.7153%,68.0568%,1)"/>
  <circle cx="15" cy="15" r="1" fill="srgba(3.37224%,35.7153%,68.0568%,1)"/>
</svg>
