<?xml version="1.0" standalone="no"?>
<!DOCTYPE svg PUBLIC "-//W3C//DTD SVG 20010904//EN"
  "http://www.w3.org/TR/2001/REC-SVG-20010904/DTD/svg10.dtd">
<svg width="16" height="16">
  <circle cx="0" cy="0" r="1" fill="srgba(83.1205%,40.1984%,42.6566%,1)"/>
  <circle cx="1" cy="0" r="1" fill="srgba(93.3364%,67.335%,67.4006%,1)"/>
  <circle cx="2" cy="0" r="1" fill="srgba(69.9367%,65.2903%,76.849%,1)"/>
  <circle cx="3" cy="0" r="1" fill="srgba(25.8289%,27.01%,56.8124%,1)"/>
  <circle cx="4" cy="0" r="1" fill="srgba(2.28122%,2.54826%,41.2543%,1)"/>
  <circle cx="5" cy="0" r="1" fill="srgba(0%,0%,38.2879%,1)"/>
  <circle cx="6" cy="0" r="1" fill="srgba(34.7646%,31.8425%,57.5448%,1)"/>
  <circle cx="7" cy="0" r="1" fill="srgba(84.2847%,23.0198%,23.1846%,1)"/>
  <circle cx="8" cy="0" r="1" fill="srgba(84.2832%,23.0396%,23.3158%,1)"/>
  <circle cx="9" cy="0" r="1" fill="srgba(34.7234%,31.8135%,55.404%,1)"/>
  <circle cx="10" cy="0" r="1" fill="srgba(0%,0%,37.3693%,1)"/>
  <circle cx="11" cy="0" r="1" fill="srgba(2.43381%,2.50553%,42.1729%,1)"/>
  <circle cx="12" cy="0" r="1" fill="srgba(23.9261%,16.6812%,46.9963%,1)"/>
  <circle cx="13" cy="0" r="1" fill="srgba(62.2446%,40.2762%,52.3308%,1)"/>
  <circle cx="14" cy="0" r="1" fill="srgba(88.0629%,47.7531%,49.0135%,1)"/>
  <circle cx="15" cy="0" r="1" fill="srgba(87.7333%,68.8762%,72.6116%,1)"/>
  <circle cx="0" cy="1" r="1" fill="srgba(21.7395%,14.374%,44.9378%,1)"/>
  <circle cx="1" cy="1" r="1" fill="srgba(53.434%,27.2267%,43.2288%,1)"/>
  <circle cx="2" cy="1" r="1" fill="srgba(82.3316%,45.1942%,48.5466%,1)"/>
  <circle cx="3" cy="1" r="1" fill="srgba(86.2654%,63.8071%,67.0542%,1)"/>
  <circle cx="4" cy="1" r="1" fill="srgba(60.4105%,56.0769%,71.4778%,1)"/>
  <circle cx="5" cy="1" r="1" fill="srgba(20.6455%,21.0361%,52.8161%,1)"/>
  <circle cx="6" cy="1" r="1" fill="srgba(36.7178%,33.9025%,58.9197%,1)"/>
  <circle cx="7" cy="1" r="1" fill="srgba(84.2603%,23.0198%,23.2959%,1)"/>
  <circle cx="8" cy="1" r="1" fill="srgba(82.7115%,21.1109%,20.2899%,1)"/>
  <circle cx="9" cy="1" r="1" fill="srgba(44.6357%,38.9258%,46.3584%,1)"/>
  <circle cx="10" cy="1" r="1" fill="srgba(22.5055%,19.4476%,32.4102%,1)"/>
  <circle cx="11" cy="1" r="1" fill="srgba(46.7247%,36.0449%,41.2299%,1)"/>
  <circle cx="12" cy="1" r="1" fill="srgba(71.8608%,40.1007%,33.904%,1)"/>
  <circle cx="13" cy="1" r="1" fill="srgba(77.8363%,58.851%,53.9986%,1)"/>
  <circle cx="14" cy="1" r="1" fill="srgba(76.8948%,69.836%,63.7369%,1)"/>
  <circle cx="15" cy="1" r="1" fill="srgba(49.9504%,46.7979%,51.3954%,1)"/>
  <circle cx="0" cy="2" r="1" fill="srgba(33.4371%,30.9194%,57.2961%,1)"/>
  <circle cx="1" cy="2" r="1" fill="srgba(36.2325%,34.1482%,59.4491%,1)"/>
  <circle cx="2" cy="2" r="1" fill="srgba(55.6771%,46.096%,62.8687%,1)"/>
  <circle cx="3" cy="2" r="1" fill="srgba(85.0553%,55.2804%,58.2834%,1)"/>
  <circle cx="4" cy="2" r="1" fill="srgba(94.4488%,65.156%,64.4465%,1)"/>
  <circle cx="5" cy="2" r="1" fill="srgba(90.2983%,84.3824%,87.6692%,1)"/>
  <circle cx="6" cy="2" r="1" fill="srgba(80.2029%,74.612%,81.9699%,1)"/>
  <circle cx="7" cy="2" r="1" fill="srgba(84.1657%,22.2477%,22.6444%,1)"/>
  <circle cx="8" cy="2" r="1" fill="srgba(81.6541%,18.9258%,15.9594%,1)"/>
  <circle cx="9" cy="2" r="1" fill="srgba(73.93%,61.0834%,39.8154%,1)"/>
  <circle cx="10" cy="2" r="1" fill="srgba(68.9723%,56.1898%,28.7388%,1)"/>
  <circle cx="11" cy="2" r="1" fill="srgba(78.7472%,65.0019%,31.6442%,1)"/>
  <circle cx="12" cy="2" r="1" fill="srgba(78.114%,64.6998%,32.5795%,1)"/>
  <circle cx="13" cy="2" r="1" fill="srgba(74.8516%,67.187%,46.4897%,1)"/>
  <circle cx="14" cy="2" r="1" fill="srgba(76.2554%,64.3046%,33.2906%,1)"/>
  <circle cx="15" cy="2" r="1" fill="srgba(75.8404%,63.2792%,31.4275%,1)"/>
  <circle cx="0" cy="3" r="1" fill="srgba(84.2618%,22.8748%,23.032%,1)"/>
  <circle cx="1" cy="3" r="1" fill="srgba(84.1123%,22.7207%,22.9374%,1)"/>
  <circle cx="2" cy="3" r="1" fill="srgba(83.1876%,22.1942%,22.8214%,1)"/>
  <circle cx="3" cy="3" r="1" fill="srgba(84.0009%,23.3677%,23.7049%,1)"/>
  <circle cx="4" cy="3" r="1" fill="srgba(84.3915%,21.8631%,21.854%,1)"/>
  <circle cx="5" cy="3" r="1" fill="srgba(85.0843%,23.3555%,23.1495%,1)"/>
  <circle cx="6" cy="3" r="1" fill="srgba(85.4414%,23.4195%,23.0396%,1)"/>
  <circle cx="7" cy="3" r="1" fill="srgba(80.9934%,5.49172%,5.65499%,1)"/>
  <circle cx="8" cy="3" r="1" fill="srgba(79.4919%,10.692%,7.46471%,1)"/>
  <circle cx="9" cy="3" r="1" fill="srgba(74.2031%,36.2829%,22.6337%,1)"/>
  <circle cx="10" cy="3" r="1" fill="srgba(66.6285%,16.1288%,8.15442%,1)"/>
  <circle cx="11" cy="3" r="1" fill="srgba(63.5157%,36.611%,12.7443%,1)"/>
  <circle cx="12" cy="3" r="1" fill="srgba(68.2719%,50.7027%,22.2049%,1)"/>
  <circle cx="13" cy="3" r="1" fill="srgba(66.3737%,52.3507%,32.5597%,1)"/>
  <circle cx="14" cy="3" r="1" fill="srgba(69.3111%,52.4422%,23.5737%,1)"/>
  <circle cx="15" cy="3" r="1" fill="srgba(70.1305%,53.2433%,23.3204%,1)"/>
  <circle cx="0" cy="4" r="1" fill="srgba(84.3244%,23.1937%,23.3494%,1)"/>
  <circle cx="1" cy="4" r="1" fill="srgba(84.1718%,23.0411%,23.2593%,1)"/>
  <circle cx="2" cy="4" r="1" fill="srgba(83.1418%,22.0035%,22.6322%,1)"/>
  <circle cx="3" cy="4" r="1" fill="srgba(83.9506%,23.0701%,23.4012%,1)"/>
  <circle cx="4" cy="4" r="1" fill="srgba(84.9744%,24.7639%,24.7532%,1)"/>
  <circle cx="5" cy="4" r="1" fill="srgba(85.0278%,23.0106%,22.8016%,1)"/>
  <circle cx="6" cy="4" r="1" fill="srgba(85.1469%,22.4994%,22.118%,1)"/>
  <circle cx="7" cy="4" r="1" fill="srgba(81.3169%,24.1444%,24.2542%,1)"/>
  <circle cx="8" cy="4" r="1" fill="srgba(82.7176%,50.8003%,47.7485%,1)"/>
  <circle cx="9" cy="4" r="1" fill="srgba(68.7022%,36.4767%,25.7099%,1)"/>
  <circle cx="10" cy="4" r="1" fill="srgba(57.1267%,7.50439%,5.7084%,1)"/>
  <circle cx="11" cy="4" r="1" fill="srgba(56.0769%,19.1089%,5.71908%,1)"/>
  <circle cx="12" cy="4" r="1" fill="srgba(75.967%,58.706%,44.3824%,1)"/>
  <circle cx="13" cy="4" r="1" fill="srgba(77.5509%,73.7102%,63.3768%,1)"/>
  <circle cx="14" cy="4" r="1" fill="srgba(78.9914%,66.9108%,35.1446%,1)"/>
  <circle cx="15" cy="4" r="1" fill="srgba(79.8672%,66.9856%,32.9351%,1)"/>
  <circle cx="0" cy="5" r="1" fill="srgba(34.4808%,31.6106%,58.0514%,1)"/>
  <circle cx="1" cy="5" r="1" fill="srgba(37.5525%,34.6883%,59.9634%,1)"/>
  <circle cx="2" cy="5" r="1" fill="srgba(59.1806%,56.3958%,73.0739%,1)"/>
  <circle cx="3" cy="5" r="1" fill="srgba(91.9768%,84.6082%,87.7394%,1)"/>
  <circle cx="4" cy="5" r="1" fill="srgba(95.407%,69.4224%,69.337%,1)"/>
  <circle cx="5" cy="5" r="1" fill="srgba(83.4592%,50.8186%,54.8638%,1)"/>
  <circle cx="6" cy="5" r="1" fill="srgba(78.735%,66.9139%,74.7845%,1)"/>
  <circle cx="7" cy="5" r="1" fill="srgba(85.9068%,30.9636%,30.9941%,1)"/>
  <circle cx="8" cy="5" r="1" fill="srgba(66.7994%,36.0266%,52.8969%,1)"/>
  <circle cx="9" cy="5" r="1" fill="srgba(36.8658%,35.555%,60.1404%,1)"/>
  <circle cx="10" cy="5" r="1" fill="srgba(24.7776%,21.6632%,34.5251%,1)"/>
  <circle cx="11" cy="5" r="1" fill="srgba(37.3541%,25.2247%,32.6024%,1)"/>
  <circle cx="12" cy="5" r="1" fill="srgba(48.1422%,37.4029%,41.7441%,1)"/>
  <circle cx="13" cy="5" r="1" fill="srgba(57.8882%,54.963%,53.8933%,1)"/>
  <circle cx="14" cy="5" r="1" fill="srgba(69.8299%,60.647%,35.0576%,1)"/>
  <circle cx="15" cy="5" r="1" fill="srgba(75.5322%,64.7639%,33.8231%,1)"/>
  <circle cx="0" cy="6" r="1" fill="srgba(5.17433%,5.44747%,34.0581%,1)"/>
  <circle cx="1" cy="6" r="1" fill="srgba(35.0286%,35.5947%,51.3725%,1)"/>
  <circle cx="2" cy="6" r="1" fill="srgba(62.1164%,56.5316%,59.7116%,1)"/>
  <circle cx="3" cy="6" r="1" fill="srgba(62.8702%,32.9763%,32.5154%,1)"/>
  <circle cx="4" cy="6" r="1" fill="srgba(51.6182%,24.8631%,28.4886%,1)"/>
  <circle cx="5" cy="6" r="1" fill="srgba(19.6521%,13.0846%,30.9758%,1)"/>
  <circle cx="6" cy="6" r="1" fill="srgba(24.5228%,22.649%,38.5626%,1)"/>
  <circle cx="7" cy="6" r="1" fill="srgba(55.0484%,15.5642%,14.9935%,1)"/>
  <circle cx="8" cy="6" r="1" fill="srgba(33.1228%,3.85748%,27.7028%,1)"/>
  <circle cx="9" cy="6" r="1" fill="srgba(27.3045%,27.2313%,57.499%,1)"/>
  <circle cx="10" cy="6" r="1" fill="srgba(32.3232%,31.9799%,32.2133%,1)"/>
  <circle cx="11" cy="6" r="1" fill="srgba(28.127%,28.2429%,50.251%,1)"/>
  <circle cx="12" cy="6" r="1" fill="srgba(15.8145%,10.193%,62.9816%,1)"/>
  <circle cx="13" cy="6" r="1" fill="srgba(44.8936%,35.3704%,52.9763%,1)"/>
  <circle cx="14" cy="6" r="1" fill="srgba(72.6207%,56.6995%,43.0228%,1)"/>
  <circle cx="15" cy="6" r="1" fill="srgba(80.6363%,60.7721%,34.8058%,1)"/>
  <circle cx="0" cy="7" r="1" fill="srgba(10.1152%,3.9704%,10.1381%,1)"/>
  <circle cx="1" cy="7" r="1" fill="srgba(9.28206%,7.3518%,12.0989%,1)"/>
  <circle cx="2" cy="7" r="1" fill="srgba(3.12963%,2.46891%,7.93622%,1)"/>
  <circle cx="3" cy="7" r="1" fill="srgba(1.33364%,0.31281%,5.08431%,1)"/>
  <circle cx="4" cy="7" r="1" fill="srgba(0.700389%,1.11849%,7.60357%,1)"/>
  <circle cx="5" cy="7" r="1" fill="srgba(0%,0%,7.36858%,1)"/>
  <circle cx="6" cy="7" r="1" fill="srgba(6.19059%,5.38949%,13.1655%,1)"/>
  <circle cx="7" cy="7" r="1" fill="srgba(18.6831%,5.82742%,9.64675%,1)"/>
  <circle cx="8" cy="7" r="1" fill="srgba(12.4269%,8.74495%,8.4184%,1)"/>
  <circle cx="9" cy="7" r="1" fill="srgba(24.4129%,24.3214%,23.7354%,1)"/>
  <circle cx="10" cy="7" r="1" fill="srgba(38.0499%,39.6063%,39.6567%,1)"/>
  <circle cx="11" cy="7" r="1" fill="srgba(45.066%,47.2862%,56.231%,1)"/>
  <circle cx="12" cy="7" r="1" fill="srgba(35.1659%,37.6699%,71.4565%,1)"/>
  <circle cx="13" cy="7" r="1" fill="srgba(40.2289%,39.7345%,62.9755%,1)"/>
  <circle cx="14" cy="7" r="1" fill="srgba(63.3036%,50.4326%,43.4073%,1)"/>
  <circle cx="15" cy="7" r="1" fill="srgba(68.3223%,52.3659%,38.9822%,1)"/>
  <circle cx="0" cy="8" r="1" fill="srgba(5.65957%,1.16579%,36.1868%,1)"/>
  <circle cx="1" cy="8" r="1" fill="srgba(3.26696%,1.83108%,37.2488%,1)"/>
  <circle cx="2" cy="8" r="1" fill="srgba(0.202945%,0.276188%,36.437%,1)"/>
  <circle cx="3" cy="8" r="1" fill="srgba(0%,0%,36.0449%,1)"/>
  <circle cx="4" cy="8" r="1" fill="srgba(0%,0%,36.2768%,1)"/>
  <circle cx="5" cy="8" r="1" fill="srgba(0%,0%,37.0321%,1)"/>
  <circle cx="6" cy="8" r="1" fill="srgba(3.2166%,2.80919%,40.4898%,1)"/>
  <circle cx="7" cy="8" r="1" fill="srgba(12.0394%,6.46525%,33.1502%,1)"/>
  <circle cx="8" cy="8" r="1" fill="srgba(13.8628%,12.8038%,14.5739%,1)"/>
  <circle cx="9" cy="8" r="1" fill="srgba(5.95254%,6.05631%,5.96475%,1)"/>
  <circle cx="10" cy="8" r="1" fill="srgba(8.27039%,8.7068%,8.87617%,1)"/>
  <circle cx="11" cy="8" r="1" fill="srgba(23.621%,25.1164%,25.2171%,1)"/>
  <circle cx="12" cy="8" r="1" fill="srgba(45.4002%,48.3543%,47.7852%,1)"/>
  <circle cx="13" cy="8" r="1" fill="srgba(54.6304%,58.3764%,58.584%,1)"/>
  <circle cx="14" cy="8" r="1" fill="srgba(54.1817%,58.5748%,60.2609%,1)"/>
  <circle cx="15" cy="8" r="1" fill="srgba(53.4463%,57.9171%,59.8108%,1)"/>
  <circle cx="0" cy="9" r="1" fill="srgba(0%,0%,40.2319%,1)"/>
  <circle cx="1" cy="9" r="1" fill="srgba(0%,0%,40.1587%,1)"/>
  <circle cx="2" cy="9" r="1" fill="srgba(0%,0%,40.2213%,1)"/>
  <circle cx="3" cy="9" r="1" fill="srgba(0%,0%,40.2533%,1)"/>
  <circle cx="4" cy="9" r="1" fill="srgba(0%,0%,40.235%,1)"/>
  <circle cx="5" cy="9" r="1" fill="srgba(0%,0%,40.2945%,1)"/>
  <circle cx="6" cy="9" r="1" fill="srgba(0.939956%,0.959792%,38.5245%,1)"/>
  <circle cx="7" cy="9" r="1" fill="srgba(5.98459%,6.17838%,31.4565%,1)"/>
  <circle cx="8" cy="9" r="1" fill="srgba(15.9152%,15.9625%,18.3124%,1)"/>
  <circle cx="9" cy="9" r="1" fill="srgba(10.2846%,10.28%,10.1427%,1)"/>
  <circle cx="10" cy="9" r="1" fill="srgba(0.598154%,0.595102%,0.595102%,1)"/>
  <circle cx="11" cy="9" r="1" fill="srgba(0.0213626%,0.0228885%,0.0244144%,1)"/>
  <circle cx="12" cy="9" r="1" fill="srgba(5.86404%,6.23789%,6.36301%,1)"/>
  <circle cx="13" cy="9" r="1" fill="srgba(23.9475%,25.4994%,26.0182%,1)"/>
  <circle cx="14" cy="9" r="1" fill="srgba(44.448%,47.3396%,48.3024%,1)"/>
  <circle cx="15" cy="9" r="1" fill="srgba(53.8079%,57.3037%,58.4756%,1)"/>
  <circle cx="0" cy="10" r="1" fill="srgba(0,0,102,1)"/>
  <circle cx="1" cy="10" r="1" fill="srgba(0.00915541%,0.00915541%,39.9878%,1)"/>
  <circle cx="2" cy="10" r="1" fill="srgba(0.015259%,0.015259%,39.9786%,1)"/>
  <circle cx="3" cy="10" r="1" fill="srgba(0.0137331%,0.0137331%,39.9802%,1)"/>
  <circle cx="4" cy="10" r="1" fill="srgba(0.015259%,0.015259%,39.9802%,1)"/>
  <circle cx="5" cy="10" r="1" fill="srgba(0%,0%,40.2075%,1)"/>
  <circle cx="6" cy="10" r="1" fill="srgba(2.51164%,2.51011%,36.5133%,1)"/>
  <circle cx="7" cy="10" r="1" fill="srgba(13.5348%,13.5973%,23.0625%,1)"/>
  <circle cx="8" cy="10" r="1" fill="srgba(17.145%,17.1862%,17.6883%,1)"/>
  <circle cx="9" cy="10" r="1" fill="srgba(16.7437%,16.7666%,16.7498%,1)"/>
  <circle cx="10" cy="10" r="1" fill="srgba(10.663%,10.6844%,10.6905%,1)"/>
  <circle cx="11" cy="10" r="1" fill="srgba(5.1957%,5.21401%,5.22011%,1)"/>
  <circle cx="12" cy="10" r="1" fill="srgba(4.16724%,4.15656%,4.15351%,1)"/>
  <circle cx="13" cy="10" r="1" fill="srgba(3.48211%,3.45464%,3.44549%,1)"/>
  <circle cx="14" cy="10" r="1" fill="srgba(9.06844%,9.45754%,9.57656%,1)"/>
  <circle cx="15" cy="10" r="1" fill="srgba(22.7451%,23.8209%,24.4099%,1)"/>
  <circle cx="0" cy="11" r="1" fill="srgba(0%,0%,40.0015%,1)"/>
  <circle cx="1" cy="11" r="1" fill="srgba(0.384527%,0.384527%,39.472%,1)"/>
  <circle cx="2" cy="11" r="1" fill="srgba(0.648508%,0.648508%,39.1028%,1)"/>
  <circle cx="3" cy="11" r="1" fill="srgba(0.657664%,0.657664%,39.0936%,1)"/>
  <circle cx="4" cy="11" r="1" fill="srgba(0.691234%,0.691234%,39.0463%,1)"/>
  <circle cx="5" cy="11" r="1" fill="srgba(0.611887%,0.611887%,39.1653%,1)"/>
  <circle cx="6" cy="11" r="1" fill="srgba(2.3621%,2.35294%,36.4767%,1)"/>
  <circle cx="7" cy="11" r="1" fill="srgba(20.621%,21.181%,26.389%,1)"/>
  <circle cx="8" cy="11" r="1" fill="srgba(21.8036%,22.2568%,22.0493%,1)"/>
  <circle cx="9" cy="11" r="1" fill="srgba(19.5438%,19.791%,19.8718%,1)"/>
  <circle cx="10" cy="11" r="1" fill="srgba(18.7137%,18.9288%,19.0021%,1)"/>
  <circle cx="11" cy="11" r="1" fill="srgba(10.4479%,10.6355%,10.6996%,1)"/>
  <circle cx="12" cy="11" r="1" fill="srgba(3.90936%,4.06958%,4.12146%,1)"/>
  <circle cx="13" cy="11" r="1" fill="srgba(3.40734%,3.54162%,3.58587%,1)"/>
  <circle cx="14" cy="11" r="1" fill="srgba(2.65812%,2.74662%,2.77256%,1)"/>
  <circle cx="15" cy="11" r="1" fill="srgba(1.81582%,1.8265%,1.85245%,1)"/>
  <circle cx="0" cy="12" r="1" fill="srgba(0,0,102,1)"/>
  <circle cx="1" cy="12" r="1" fill="srgba(0.0457771%,0.0457771%,39.9374%,1)"/>
  <circle cx="2" cy="12" r="1" fill="srgba(0.0793469%,0.0793469%,39.8917%,1)"/>
  <circle cx="3" cy="12" r="1" fill="srgba(0.0808728%,0.0808728%,39.8871%,1)"/>
  <circle cx="4" cy="12" r="1" fill="srgba(0.0869764%,0.0869764%,39.881%,1)"/>
  <circle cx="5" cy="12" r="1" fill="srgba(0.0183108%,0.0183108%,39.9756%,1)"/>
  <circle cx="6" cy="12" r="1" fill="srgba(1.2192%,1.2192%,38.2773%,1)"/>
  <circle cx="7" cy="12" r="1" fill="srgba(18.587%,19.0509%,26.688%,1)"/>
  <circle cx="8" cy="12" r="1" fill="srgba(18.3673%,18.4924%,18.0621%,1)"/>
  <circle cx="9" cy="12" r="1" fill="srgba(16.9574%,16.9665%,16.9696%,1)"/>
  <circle cx="10" cy="12" r="1" fill="srgba(17.0703%,17.0779%,17.0794%,1)"/>
  <circle cx="11" cy="12" r="1" fill="srgba(15.581%,15.5886%,15.5901%,1)"/>
  <circle cx="12" cy="12" r="1" fill="srgba(5.21096%,5.21553%,5.21706%,1)"/>
  <circle cx="13" cy="12" r="1" fill="black"/>
  <circle cx="14" cy="12" r="1" fill="srgba(0.0900282%,0.09308%,0.0946059%,1)"/>
  <circle cx="15" cy="12" r="1" fill="srgba(0.0869764%,0.0900282%,0.0915541%,1)"/>
  <circle cx="0" cy="13" r="1" fill="srgba(0,0,102,1)"/>
  <circle cx="1" cy="13" r="1" fill="srgba(0%,0%,40.0015%,1)"/>
  <circle cx="2" cy="13" r="1" fill="srgba(0%,0%,40.0015%,1)"/>
  <circle cx="3" cy="13" r="1" fill="srgba(0%,0%,40.0015%,1)"/>
  <circle cx="4" cy="13" r="1" fill="srgba(0%,0%,40.0031%,1)"/>
  <circle cx="5" cy="13" r="1" fill="srgba(0%,0%,40.0565%,1)"/>
  <circle cx="6" cy="13" r="1" fill="srgba(0.624094%,0.622568%,39.1211%,1)"/>
  <circle cx="7" cy="13" r="1" fill="srgba(17.0825%,17.4975%,27.5456%,1)"/>
  <circle cx="8" cy="13" r="1" fill="srgba(17.9782%,18.0606%,17.5021%,1)"/>
  <circle cx="9" cy="13" r="1" fill="srgba(16.8231%,16.8185%,16.8185%,1)"/>
  <circle cx="10" cy="13" r="1" fill="srgba(16.8597%,16.8597%,16.8597%,1)"/>
  <circle cx="11" cy="13" r="1" fill="srgba(17.0443%,17.0443%,17.0443%,1)"/>
  <circle cx="12" cy="13" r="1" fill="srgba(14.6014%,14.6014%,14.6014%,1)"/>
  <circle cx="13" cy="13" r="1" fill="srgba(3.7705%,3.7705%,3.7705%,1)"/>
  <circle cx="14" cy="13" r="1" fill="black"/>
  <circle cx="15" cy="13" r="1" fill="black"/>
  <circle cx="0" cy="14" r="1" fill="srgba(0%,0%,39.9985%,1)"/>
  <circle cx="1" cy="14" r="1" fill="srgba(0%,0%,39.9985%,1)"/>
  <circle cx="2" cy="14" r="1" fill="srgba(0%,0%,39.9985%,1)"/>
  <circle cx="3" cy="14" r="1" fill="srgba(0%,0%,39.9985%,1)"/>
  <circle cx="4" cy="14" r="1" fill="srgba(0%,0%,39.9985%,1)"/>
  <circle cx="5" cy="14" r="1" fill="srgba(0%,0%,40.0198%,1)"/>
  <circle cx="6" cy="14" r="1" fill="srgba(0.234989%,0.233463%,39.6445%,1)"/>
  <circle cx="7" cy="14" r="1" fill="srgba(15.4818%,15.8526%,28.5573%,1)"/>
  <circle cx="8" cy="14" r="1" fill="srgba(17.94%,18.0148%,17.3709%,1)"/>
  <circle cx="9" cy="14" r="1" fill="srgba(16.8292%,16.8261%,16.8246%,1)"/>
  <circle cx="10" cy="14" r="1" fill="grey17"/>
  <circle cx="11" cy="14" r="1" fill="srgba(16.8597%,16.8597%,16.8597%,1)"/>
  <circle cx="12" cy="14" r="1" fill="srgba(17.0733%,17.0733%,17.0733%,1)"/>
  <circle cx="13" cy="14" r="1" fill="srgba(13.5241%,13.5241%,13.5241%,1)"/>
  <circle cx="14" cy="14" r="1" fill="srgba(2.67338%,2.67338%,2.67338%,1)"/>
  <circle cx="15" cy="14" r="1" fill="black"/>
  <circle cx="0" cy="15" r="1" fill="srgba(0.0228885%,0.0228885%,40.0153%,1)"/>
  <circle cx="1" cy="15" r="1" fill="srgba(0.0228885%,0.0228885%,40.0153%,1)"/>
  <circle cx="2" cy="15" r="1" fill="srgba(0.0228885%,0.0228885%,40.0153%,1)"/>
  <circle cx="3" cy="15" r="1" fill="srgba(0.0228885%,0.0228885%,40.0153%,1)"/>
  <circle cx="4" cy="15" r="1" fill="srgba(0.0228885%,0.0228885%,40.0153%,1)"/>
  <circle cx="5" cy="15" r="1" fill="srgba(0.0183108%,0.0183108%,40.0214%,1)"/>
  <circle cx="6" cy="15" r="1" fill="srgba(0.00915541%,0.00762951%,39.9954%,1)"/>
  <circle cx="7" cy="15" r="1" fill="srgba(13.8903%,14.2123%,29.4713%,1)"/>
  <circle cx="8" cy="15" r="1" fill="srgba(17.8576%,17.9232%,17.2503%,1)"/>
  <circle cx="9" cy="15" r="1" fill="srgba(16.8322%,16.8292%,16.8292%,1)"/>
  <circle cx="10" cy="15" r="1" fill="grey17"/>
  <circle cx="11" cy="15" r="1" fill="grey17"/>
  <circle cx="12" cy="15" r="1" fill="srgba(16.8658%,16.8658%,16.8658%,1)"/>
  <circle cx="13" cy="15" r="1" fill="srgba(17.0886%,17.0886%,17.0886%,1)"/>
  <circle cx="14" cy="15" r="1" fill="srgba(11.4565%,11.4565%,11.4565%,1)"/>
  <circle cx="15" cy="15" r="1" fill="srgba(1.14595%,1.14595%,1.14595%,1)"/>
</svg>
