<?xml version="1.0" standalone="no"?>
<!DOCTYPE svg PUBLIC "-//W3C//DTD SVG 20010904//EN"
  "http://www.w3.org/TR/2001/REC-SVG-20010904/DTD/svg10.dtd">
<svg width="16" height="16">
  <circle cx="0" cy="0" r="1" fill="srgba(73,151,208,1)"/>
  <circle cx="1" cy="0" r="1" fill="srgba(73,151,208,1)"/>
  <circle cx="2" cy="0" r="1" fill="srgba(73,151,208,1)"/>
  <circle cx="3" cy="0" r="1" fill="srgba(28.5954%,59.1974%,81.561%,1)"/>
  <circle cx="4" cy="0" r="1" fill="srgba(28.9464%,59.3988%,81.651%,1)"/>
  <circle cx="5" cy="0" r="1" fill="srgba(74.6838%,85.5344%,93.4646%,1)"/>
  <circle cx="6" cy="0" r="1" fill="white"/>
  <circle cx="7" cy="0" r="1" fill="white"/>
  <circle cx="8" cy="0" r="1" fill="white"/>
  <circle cx="9" cy="0" r="1" fill="white"/>
  <circle cx="10" cy="0" r="1" fill="srgba(74.6838%,85.5344%,93.4646%,1)"/>
  <circle cx="11" cy="0" r="1" fill="srgba(28.9464%,59.3988%,81.651%,1)"/>
  <circle cx="12" cy="0" r="1" fill="srgba(28.5954%,59.1974%,81.561%,1)"/>
  <circle cx="13" cy="0" r="1" fill="srgba(73,151,208,1)"/>
  <circle cx="14" cy="0" r="1" fill="srgba(73,151,208,1)"/>
  <circle cx="15" cy="0" r="1" fill="srgba(73,151,208,1)"/>
  <circle cx="0" cy="1" r="1" fill="srgba(73,151,208,1)"/>
  <circle cx="1" cy="1" r="1" fill="srgba(73,151,208,1)"/>
  <circle cx="2" cy="1" r="1" fill="srgba(73,151,208,1)"/>
  <circle cx="3" cy="1" r="1" fill="srgba(28.5954%,59.1974%,81.561%,1)"/>
  <circle cx="4" cy="1" r="1" fill="srgba(28.9464%,59.3988%,81.651%,1)"/>
  <circle cx="5" cy="1" r="1" fill="srgba(74.6838%,85.5344%,93.4646%,1)"/>
  <circle cx="6" cy="1" r="1" fill="white"/>
  <circle cx="7" cy="1" r="1" fill="white"/>
  <circle cx="8" cy="1" r="1" fill="white"/>
  <circle cx="9" cy="1" r="1" fill="white"/>
  <circle cx="10" cy="1" r="1" fill="srgba(74.6838%,85.5344%,93.4646%,1)"/>
  <circle cx="11" cy="1" r="1" fill="srgba(28.9464%,59.3988%,81.651%,1)"/>
  <circle cx="12" cy="1" r="1" fill="srgba(28.5954%,59.1974%,81.561%,1)"/>
  <circle cx="13" cy="1" r="1" fill="srgba(73,151,208,1)"/>
  <circle cx="14" cy="1" r="1" fill="srgba(73,151,208,1)"/>
  <circle cx="15" cy="1" r="1" fill="srgba(73,151,208,1)"/>
  <circle cx="0" cy="2" r="1" fill="srgba(73,151,208,1)"/>
  <circle cx="1" cy="2" r="1" fill="srgba(73,151,208,1)"/>
  <circle cx="2" cy="2" r="1" fill="srgba(73,151,208,1)"/>
  <circle cx="3" cy="2" r="1" fill="srgba(28.5954%,59.1974%,81.561%,1)"/>
  <circle cx="4" cy="2" r="1" fill="srgba(28.9464%,59.3988%,81.651%,1)"/>
  <circle cx="5" cy="2" r="1" fill="srgba(74.6838%,85.5344%,93.4646%,1)"/>
  <circle cx="6" cy="2" r="1" fill="white"/>
  <circle cx="7" cy="2" r="1" fill="white"/>
  <circle cx="8" cy="2" r="1" fill="white"/>
  <circle cx="9" cy="2" r="1" fill="white"/>
  <circle cx="10" cy="2" r="1" fill="srgba(74.6838%,85.5344%,93.4646%,1)"/>
  <circle cx="11" cy="2" r="1" fill="srgba(28.9464%,59.3988%,81.651%,1)"/>
  <circle cx="12" cy="2" r="1" fill="srgba(28.5954%,59.1974%,81.561%,1)"/>
  <circle cx="13" cy="2" r="1" fill="srgba(73,151,208,1)"/>
  <circle cx="14" cy="2" r="1" fill="srgba(73,151,208,1)"/>
  <circle cx="15" cy="2" r="1" fill="srgba(73,151,208,1)"/>
  <circle cx="0" cy="3" r="1" fill="srgba(73,151,208,1)"/>
  <circle cx="1" cy="3" r="1" fill="srgba(73,151,208,1)"/>
  <circle cx="2" cy="3" r="1" fill="srgba(73,151,208,1)"/>
  <circle cx="3" cy="3" r="1" fill="srgba(28.5954%,59.1974%,81.561%,1)"/>
  <circle cx="4" cy="3" r="1" fill="srgba(28.9464%,59.3988%,81.651%,1)"/>
  <circle cx="5" cy="3" r="1" fill="srgba(74.6838%,85.5344%,93.4646%,1)"/>
  <circle cx="6" cy="3" r="1" fill="white"/>
  <circle cx="7" cy="3" r="1" fill="white"/>
  <circle cx="8" cy="3" r="1" fill="white"/>
  <circle cx="9" cy="3" r="1" fill="white"/>
  <circle cx="10" cy="3" r="1" fill="srgba(74.6838%,85.5344%,93.4646%,1)"/>
  <circle cx="11" cy="3" r="1" fill="srgba(28.9464%,59.3988%,81.651%,1)"/>
  <circle cx="12" cy="3" r="1" fill="srgba(28.5954%,59.1974%,81.561%,1)"/>
  <circle cx="13" cy="3" r="1" fill="srgba(73,151,208,1)"/>
  <circle cx="14" cy="3" r="1" fill="srgba(73,151,208,1)"/>
  <circle cx="15" cy="3" r="1" fill="srgba(73,151,208,1)"/>
  <circle cx="0" cy="4" r="1" fill="srgba(73,151,208,1)"/>
  <circle cx="1" cy="4" r="1" fill="srgba(73,151,208,1)"/>
  <circle cx="2" cy="4" r="1" fill="srgba(73,151,208,1)"/>
  <circle cx="3" cy="4" r="1" fill="srgba(28.5954%,59.1974%,81.561%,1)"/>
  <circle cx="4" cy="4" r="1" fill="srgba(28.9464%,59.3988%,81.651%,1)"/>
  <circle cx="5" cy="4" r="1" fill="srgba(74.6838%,85.5344%,93.4646%,1)"/>
  <circle cx="6" cy="4" r="1" fill="white"/>
  <circle cx="7" cy="4" r="1" fill="white"/>
  <circle cx="8" cy="4" r="1" fill="white"/>
  <circle cx="9" cy="4" r="1" fill="white"/>
  <circle cx="10" cy="4" r="1" fill="srgba(74.6838%,85.5344%,93.4646%,1)"/>
  <circle cx="11" cy="4" r="1" fill="srgba(28.9464%,59.3988%,81.651%,1)"/>
  <circle cx="12" cy="4" r="1" fill="srgba(28.5954%,59.1974%,81.561%,1)"/>
  <circle cx="13" cy="4" r="1" fill="srgba(73,151,208,1)"/>
  <circle cx="14" cy="4" r="1" fill="srgba(73,151,208,1)"/>
  <circle cx="15" cy="4" r="1" fill="srgba(73,151,208,1)"/>
  <circle cx="0" cy="5" r="1" fill="srgba(73,151,208,1)"/>
  <circle cx="1" cy="5" r="1" fill="srgba(73,151,208,1)"/>
  <circle cx="2" cy="5" r="1" fill="srgba(73,151,208,1)"/>
  <circle cx="3" cy="5" r="1" fill="srgba(28.5954%,59.1974%,81.561%,1)"/>
  <circle cx="4" cy="5" r="1" fill="srgba(28.9464%,59.3988%,81.651%,1)"/>
  <circle cx="5" cy="5" r="1" fill="srgba(74.6838%,85.5344%,93.4646%,1)"/>
  <circle cx="6" cy="5" r="1" fill="white"/>
  <circle cx="7" cy="5" r="1" fill="white"/>
  <circle cx="8" cy="5" r="1" fill="white"/>
  <circle cx="9" cy="5" r="1" fill="white"/>
  <circle cx="10" cy="5" r="1" fill="srgba(74.7433%,85.6718%,93.8872%,1)"/>
  <circle cx="11" cy="5" r="1" fill="srgba(29.0791%,59.7498%,82.8031%,1)"/>
  <circle cx="12" cy="5" r="1" fill="srgba(28.7114%,59.5102%,82.707%,1)"/>
  <circle cx="13" cy="5" r="1" fill="srgba(28.7037%,59.4217%,82.6947%,1)"/>
  <circle cx="14" cy="5" r="1" fill="srgba(28.6839%,59.3683%,82.6917%,1)"/>
  <circle cx="15" cy="5" r="1" fill="srgba(28.6671%,59.3652%,82.6276%,1)"/>
  <circle cx="0" cy="6" r="1" fill="srgba(73,151,208,1)"/>
  <circle cx="1" cy="6" r="1" fill="srgba(73,151,208,1)"/>
  <circle cx="2" cy="6" r="1" fill="srgba(73,151,208,1)"/>
  <circle cx="3" cy="6" r="1" fill="srgba(28.5954%,59.1974%,81.561%,1)"/>
  <circle cx="4" cy="6" r="1" fill="srgba(28.9479%,59.3988%,81.6526%,1)"/>
  <circle cx="5" cy="6" r="1" fill="srgba(74.9828%,85.7694%,93.8216%,1)"/>
  <circle cx="6" cy="6" r="1" fill="srgba(92.1004%,93.6217%,89.5003%,1)"/>
  <circle cx="7" cy="6" r="1" fill="srgba(80.3998%,82.6856%,72.4758%,1)"/>
  <circle cx="8" cy="6" r="1" fill="srgba(72.9351%,76.289%,63.4897%,1)"/>
  <circle cx="9" cy="6" r="1" fill="srgba(70.4326%,76.733%,63.6194%,1)"/>
  <circle cx="10" cy="6" r="1" fill="srgba(54.9447%,68.0262%,59.3622%,1)"/>
  <circle cx="11" cy="6" r="1" fill="srgba(28.7404%,53.2265%,52.5902%,1)"/>
  <circle cx="12" cy="6" r="1" fill="srgba(28.6351%,53.6019%,52.6497%,1)"/>
  <circle cx="13" cy="6" r="1" fill="srgba(29.4469%,55.3552%,52.9259%,1)"/>
  <circle cx="14" cy="6" r="1" fill="srgba(29.7505%,56.3516%,53.1075%,1)"/>
  <circle cx="15" cy="6" r="1" fill="srgba(29.9351%,56.4553%,54.9599%,1)"/>
  <circle cx="0" cy="7" r="1" fill="srgba(73,151,208,1)"/>
  <circle cx="1" cy="7" r="1" fill="srgba(73,151,208,1)"/>
  <circle cx="2" cy="7" r="1" fill="srgba(73,151,208,1)"/>
  <circle cx="3" cy="7" r="1" fill="srgba(28.5954%,59.1974%,81.561%,1)"/>
  <circle cx="4" cy="7" r="1" fill="srgba(28.9601%,59.4079%,81.6663%,1)"/>
  <circle cx="5" cy="7" r="1" fill="srgba(74.6731%,85.51%,93.4676%,1)"/>
  <circle cx="6" cy="7" r="1" fill="srgba(70.9865%,77.2595%,64.2435%,1)"/>
  <circle cx="7" cy="7" r="1" fill="srgba(59.704%,59.7269%,29.9306%,1)"/>
  <circle cx="8" cy="7" r="1" fill="srgba(29.1249%,36.8917%,10.3349%,1)"/>
  <circle cx="9" cy="7" r="1" fill="srgba(20.1251%,33.608%,11.8212%,1)"/>
  <circle cx="10" cy="7" r="1" fill="srgba(20.7385%,33.994%,11.783%,1)"/>
  <circle cx="11" cy="7" r="1" fill="srgba(21.1154%,34.3191%,11.8853%,1)"/>
  <circle cx="12" cy="7" r="1" fill="srgba(21.2314%,34.6685%,11.9524%,1)"/>
  <circle cx="13" cy="7" r="1" fill="srgba(23.3249%,40.4578%,12.9778%,1)"/>
  <circle cx="14" cy="7" r="1" fill="srgba(25.4154%,46.6133%,14.0581%,1)"/>
  <circle cx="15" cy="7" r="1" fill="srgba(27.2145%,46.0319%,14.4701%,1)"/>
  <circle cx="0" cy="8" r="1" fill="srgba(73,151,208,1)"/>
  <circle cx="1" cy="8" r="1" fill="srgba(73,151,208,1)"/>
  <circle cx="2" cy="8" r="1" fill="srgba(73,151,208,1)"/>
  <circle cx="3" cy="8" r="1" fill="srgba(28.5954%,59.1974%,81.561%,1)"/>
  <circle cx="4" cy="8" r="1" fill="srgba(28.9586%,59.4079%,81.6648%,1)"/>
  <circle cx="5" cy="8" r="1" fill="srgba(74.8333%,85.7008%,93.695%,1)"/>
  <circle cx="6" cy="8" r="1" fill="srgba(68.0369%,73.6049%,60.3708%,1)"/>
  <circle cx="7" cy="8" r="1" fill="srgba(55.9335%,50.3883%,18.497%,1)"/>
  <circle cx="8" cy="8" r="1" fill="srgba(30.1427%,36.759%,9.72457%,1)"/>
  <circle cx="9" cy="8" r="1" fill="srgba(19.8047%,32.6574%,12.2667%,1)"/>
  <circle cx="10" cy="8" r="1" fill="srgba(20.354%,32.8588%,12.1386%,1)"/>
  <circle cx="11" cy="8" r="1" fill="srgba(20.3555%,32.8527%,12.1386%,1)"/>
  <circle cx="12" cy="8" r="1" fill="srgba(20.3372%,32.8038%,12.1294%,1)"/>
  <circle cx="13" cy="8" r="1" fill="srgba(20.5356%,33.3639%,12.2316%,1)"/>
  <circle cx="14" cy="8" r="1" fill="srgba(20.7538%,33.9925%,12.3476%,1)"/>
  <circle cx="15" cy="8" r="1" fill="srgba(20.7126%,33.5653%,12.1767%,1)"/>
  <circle cx="0" cy="9" r="1" fill="srgba(73,151,208,1)"/>
  <circle cx="1" cy="9" r="1" fill="srgba(73,151,208,1)"/>
  <circle cx="2" cy="9" r="1" fill="srgba(73,151,208,1)"/>
  <circle cx="3" cy="9" r="1" fill="srgba(28.5954%,59.1974%,81.561%,1)"/>
  <circle cx="4" cy="9" r="1" fill="srgba(28.9464%,59.3988%,81.651%,1)"/>
  <circle cx="5" cy="9" r="1" fill="srgba(75.5138%,86.2516%,94.5434%,1)"/>
  <circle cx="6" cy="9" r="1" fill="srgba(69.4194%,74.7265%,61.0895%,1)"/>
  <circle cx="7" cy="9" r="1" fill="srgba(50.4829%,43.6881%,9.8558%,1)"/>
  <circle cx="8" cy="9" r="1" fill="srgba(30.6096%,37.1771%,10.0481%,1)"/>
  <circle cx="9" cy="9" r="1" fill="srgba(19.9039%,32.8038%,12.3171%,1)"/>
  <circle cx="10" cy="9" r="1" fill="srgba(20.3876%,32.9351%,12.1538%,1)"/>
  <circle cx="11" cy="9" r="1" fill="srgba(52,84,31,1)"/>
  <circle cx="12" cy="9" r="1" fill="srgba(52,84,31,1)"/>
  <circle cx="13" cy="9" r="1" fill="srgba(20.3784%,32.9046%,12.1508%,1)"/>
  <circle cx="14" cy="9" r="1" fill="srgba(20.3662%,32.8725%,12.1447%,1)"/>
  <circle cx="15" cy="9" r="1" fill="srgba(20.3754%,32.9015%,12.1508%,1)"/>
  <circle cx="0" cy="10" r="1" fill="srgba(73,151,208,1)"/>
  <circle cx="1" cy="10" r="1" fill="srgba(73,151,208,1)"/>
  <circle cx="2" cy="10" r="1" fill="srgba(73,151,208,1)"/>
  <circle cx="3" cy="10" r="1" fill="srgba(28.5954%,59.1974%,81.561%,1)"/>
  <circle cx="4" cy="10" r="1" fill="srgba(28.9464%,59.3988%,81.651%,1)"/>
  <circle cx="5" cy="10" r="1" fill="srgba(75.5138%,86.1997%,94.5373%,1)"/>
  <circle cx="6" cy="10" r="1" fill="srgba(73.8277%,78.9822%,66.1601%,1)"/>
  <circle cx="7" cy="10" r="1" fill="srgba(52.3247%,45.1591%,10.9148%,1)"/>
  <circle cx="8" cy="10" r="1" fill="srgba(30.2205%,36.7285%,9.82528%,1)"/>
  <circle cx="9" cy="10" r="1" fill="srgba(19.8245%,32.7062%,12.2744%,1)"/>
  <circle cx="10" cy="10" r="1" fill="srgba(52,84,31,1)"/>
  <circle cx="11" cy="10" r="1" fill="srgba(52,84,31,1)"/>
  <circle cx="12" cy="10" r="1" fill="srgba(52,84,31,1)"/>
  <circle cx="13" cy="10" r="1" fill="srgba(52,84,31,1)"/>
  <circle cx="14" cy="10" r="1" fill="srgba(52,84,31,1)"/>
  <circle cx="15" cy="10" r="1" fill="srgba(52,84,31,1)"/>
  <circle cx="0" cy="11" r="1" fill="srgba(73,151,208,1)"/>
  <circle cx="1" cy="11" r="1" fill="srgba(73,151,208,1)"/>
  <circle cx="2" cy="11" r="1" fill="srgba(73,151,208,1)"/>
  <circle cx="3" cy="11" r="1" fill="srgba(28.5954%,59.1974%,81.561%,1)"/>
  <circle cx="4" cy="11" r="1" fill="srgba(28.9464%,59.3988%,81.651%,1)"/>
  <circle cx="5" cy="11" r="1" fill="srgba(75.5978%,86.2684%,94.6304%,1)"/>
  <circle cx="6" cy="11" r="1" fill="srgba(75.1308%,80.0046%,67.8492%,1)"/>
  <circle cx="7" cy="11" r="1" fill="srgba(52.3949%,45.0217%,11.6197%,1)"/>
  <circle cx="8" cy="11" r="1" fill="srgba(30.5531%,36.6049%,9.99008%,1)"/>
  <circle cx="9" cy="11" r="1" fill="srgba(19.8062%,32.7184%,12.2713%,1)"/>
  <circle cx="10" cy="11" r="1" fill="srgba(52,84,31,1)"/>
  <circle cx="11" cy="11" r="1" fill="srgba(52,84,31,1)"/>
  <circle cx="12" cy="11" r="1" fill="srgba(52,84,31,1)"/>
  <circle cx="13" cy="11" r="1" fill="srgba(52,84,31,1)"/>
  <circle cx="14" cy="11" r="1" fill="srgba(52,84,31,1)"/>
  <circle cx="15" cy="11" r="1" fill="srgba(52,84,31,1)"/>
  <circle cx="0" cy="12" r="1" fill="srgba(73,151,208,1)"/>
  <circle cx="1" cy="12" r="1" fill="srgba(73,151,208,1)"/>
  <circle cx="2" cy="12" r="1" fill="srgba(73,151,208,1)"/>
  <circle cx="3" cy="12" r="1" fill="srgba(28.5954%,59.1974%,81.561%,1)"/>
  <circle cx="4" cy="12" r="1" fill="srgba(28.9464%,59.3988%,81.651%,1)"/>
  <circle cx="5" cy="12" r="1" fill="srgba(75.7%,86.3569%,94.7417%,1)"/>
  <circle cx="6" cy="12" r="1" fill="srgba(75.9747%,80.6363%,69.0471%,1)"/>
  <circle cx="7" cy="12" r="1" fill="srgba(51.4977%,43.4958%,13.0205%,1)"/>
  <circle cx="8" cy="12" r="1" fill="srgba(30.6691%,35.996%,10.3685%,1)"/>
  <circle cx="9" cy="12" r="1" fill="srgba(19.7971%,32.7581%,12.2576%,1)"/>
  <circle cx="10" cy="12" r="1" fill="srgba(52,84,31,1)"/>
  <circle cx="11" cy="12" r="1" fill="srgba(52,84,31,1)"/>
  <circle cx="12" cy="12" r="1" fill="srgba(52,84,31,1)"/>
  <circle cx="13" cy="12" r="1" fill="srgba(52,84,31,1)"/>
  <circle cx="14" cy="12" r="1" fill="srgba(52,84,31,1)"/>
  <circle cx="15" cy="12" r="1" fill="srgba(52,84,31,1)"/>
  <circle cx="0" cy="13" r="1" fill="srgba(73,151,208,1)"/>
  <circle cx="1" cy="13" r="1" fill="srgba(73,151,208,1)"/>
  <circle cx="2" cy="13" r="1" fill="srgba(73,151,208,1)"/>
  <circle cx="3" cy="13" r="1" fill="srgba(28.5954%,59.1974%,81.561%,1)"/>
  <circle cx="4" cy="13" r="1" fill="srgba(28.9464%,59.3988%,81.651%,1)"/>
  <circle cx="5" cy="13" r="1" fill="srgba(75.7534%,86.4012%,94.7936%,1)"/>
  <circle cx="6" cy="13" r="1" fill="srgba(77.9004%,82.237%,71.5206%,1)"/>
  <circle cx="7" cy="13" r="1" fill="srgba(53.3516%,46.5766%,17.7401%,1)"/>
  <circle cx="8" cy="13" r="1" fill="srgba(30.3593%,35.9472%,10.7515%,1)"/>
  <circle cx="9" cy="13" r="1" fill="srgba(19.7696%,32.7916%,12.2469%,1)"/>
  <circle cx="10" cy="13" r="1" fill="srgba(20.3937%,32.9397%,12.1569%,1)"/>
  <circle cx="11" cy="13" r="1" fill="srgba(52,84,31,1)"/>
  <circle cx="12" cy="13" r="1" fill="srgba(52,84,31,1)"/>
  <circle cx="13" cy="13" r="1" fill="srgba(52,84,31,1)"/>
  <circle cx="14" cy="13" r="1" fill="srgba(52,84,31,1)"/>
  <circle cx="15" cy="13" r="1" fill="srgba(52,84,31,1)"/>
  <circle cx="0" cy="14" r="1" fill="srgba(73,151,208,1)"/>
  <circle cx="1" cy="14" r="1" fill="srgba(73,151,208,1)"/>
  <circle cx="2" cy="14" r="1" fill="srgba(73,151,208,1)"/>
  <circle cx="3" cy="14" r="1" fill="srgba(28.5954%,59.1974%,81.561%,1)"/>
  <circle cx="4" cy="14" r="1" fill="srgba(28.9464%,59.3988%,81.651%,1)"/>
  <circle cx="5" cy="14" r="1" fill="srgba(75.7794%,86.4271%,94.8104%,1)"/>
  <circle cx="6" cy="14" r="1" fill="srgba(80.2426%,83.9734%,74.5754%,1)"/>
  <circle cx="7" cy="14" r="1" fill="srgba(52.9824%,46.0731%,18.4649%,1)"/>
  <circle cx="8" cy="14" r="1" fill="srgba(34.1466%,34.5022%,10.9926%,1)"/>
  <circle cx="9" cy="14" r="1" fill="srgba(21.413%,31.8273%,12.2484%,1)"/>
  <circle cx="10" cy="14" r="1" fill="srgba(20.3113%,32.9931%,12.1569%,1)"/>
  <circle cx="11" cy="14" r="1" fill="srgba(52,84,31,1)"/>
  <circle cx="12" cy="14" r="1" fill="srgba(52,84,31,1)"/>
  <circle cx="13" cy="14" r="1" fill="srgba(52,84,31,1)"/>
  <circle cx="14" cy="14" r="1" fill="srgba(52,84,31,1)"/>
  <circle cx="15" cy="14" r="1" fill="srgba(52,84,31,1)"/>
  <circle cx="0" cy="15" r="1" fill="srgba(73,151,208,1)"/>
  <circle cx="1" cy="15" r="1" fill="srgba(73,151,208,1)"/>
  <circle cx="2" cy="15" r="1" fill="srgba(73,151,208,1)"/>
  <circle cx="3" cy="15" r="1" fill="srgba(28.5954%,59.1974%,81.561%,1)"/>
  <circle cx="4" cy="15" r="1" fill="srgba(28.9464%,59.3988%,81.651%,1)"/>
  <circle cx="5" cy="15" r="1" fill="srgba(75.7229%,86.3951%,94.7265%,1)"/>
  <circle cx="6" cy="15" r="1" fill="srgba(82.9999%,85.7877%,78.2605%,1)"/>
  <circle cx="7" cy="15" r="1" fill="srgba(51.1421%,43.0808%,18.1521%,1)"/>
  <circle cx="8" cy="15" r="1" fill="srgba(30.7408%,33.6431%,10.8278%,1)"/>
  <circle cx="9" cy="15" r="1" fill="srgba(21.1917%,32.0058%,12.224%,1)"/>
  <circle cx="10" cy="15" r="1" fill="srgba(20.3723%,32.9534%,12.1569%,1)"/>
  <circle cx="11" cy="15" r="1" fill="srgba(52,84,31,1)"/>
  <circle cx="12" cy="15" r="1" fill="srgba(52,84,31,1)"/>
  <circle cx="13" cy="15" r="1" fill="srgba(52,84,31,1)"/>
  <circle cx="14" cy="15" r="1" fill="srgba(52,84,31,1)"/>
  <circle cx="15" cy="15" r="1" fill="srgba(52,84,31,1)"/>
</svg>
