<?xml version="1.0" standalone="no"?>
<!DOCTYPE svg PUBLIC "-//W3C//DTD SVG 20010904//EN"
  "http://www.w3.org/TR/2001/REC-SVG-20010904/DTD/svg10.dtd">
<svg width="16" height="16">
  <circle cx="0" cy="0" r="1" fill="srgba(65.0538%,6.49882%,24.2512%,1)"/>
  <circle cx="1" cy="0" r="1" fill="srgba(52.6436%,15.0271%,36.0006%,1)"/>
  <circle cx="2" cy="0" r="1" fill="srgba(52.4636%,15.1507%,36.17%,1)"/>
  <circle cx="3" cy="0" r="1" fill="srgba(52.4697%,15.1461%,36.1639%,1)"/>
  <circle cx="4" cy="0" r="1" fill="srgba(52.4697%,15.1461%,36.1639%,1)"/>
  <circle cx="5" cy="0" r="1" fill="srgba(52.4697%,15.1461%,36.1639%,1)"/>
  <circle cx="6" cy="0" r="1" fill="srgba(52.4697%,15.1461%,36.1639%,1)"/>
  <circle cx="7" cy="0" r="1" fill="srgba(52.4697%,15.1461%,36.1639%,1)"/>
  <circle cx="8" cy="0" r="1" fill="srgba(52.4697%,15.1461%,36.1639%,1)"/>
  <circle cx="9" cy="0" r="1" fill="srgba(52.4697%,15.1461%,36.1639%,1)"/>
  <circle cx="10" cy="0" r="1" fill="srgba(52.4697%,15.1461%,36.1639%,1)"/>
  <circle cx="11" cy="0" r="1" fill="srgba(52.4697%,15.1461%,36.1639%,1)"/>
  <circle cx="12" cy="0" r="1" fill="srgba(52.4697%,15.1461%,36.1639%,1)"/>
  <circle cx="13" cy="0" r="1" fill="srgba(52.459%,15.1537%,36.1746%,1)"/>
  <circle cx="14" cy="0" r="1" fill="srgba(52.7596%,14.9462%,35.8877%,1)"/>
  <circle cx="15" cy="0" r="1" fill="srgba(65.7359%,6.02426%,23.5996%,1)"/>
  <circle cx="0" cy="1" r="1" fill="srgba(52.6421%,15.0271%,36.0006%,1)"/>
  <circle cx="1" cy="1" r="1" fill="srgba(23.9429%,34.7417%,63.1617%,1)"/>
  <circle cx="2" cy="1" r="1" fill="srgba(23.5279%,35.0256%,63.5538%,1)"/>
  <circle cx="3" cy="1" r="1" fill="srgba(23.5416%,35.0164%,63.5401%,1)"/>
  <circle cx="4" cy="1" r="1" fill="srgba(23.5416%,35.0164%,63.5401%,1)"/>
  <circle cx="5" cy="1" r="1" fill="srgba(23.5416%,35.0164%,63.5401%,1)"/>
  <circle cx="6" cy="1" r="1" fill="srgba(23.5416%,35.0164%,63.5401%,1)"/>
  <circle cx="7" cy="1" r="1" fill="srgba(23.5416%,35.0164%,63.5401%,1)"/>
  <circle cx="8" cy="1" r="1" fill="srgba(23.5416%,35.0164%,63.5401%,1)"/>
  <circle cx="9" cy="1" r="1" fill="srgba(23.5416%,35.0164%,63.5401%,1)"/>
  <circle cx="10" cy="1" r="1" fill="srgba(23.5416%,35.0164%,63.5401%,1)"/>
  <circle cx="11" cy="1" r="1" fill="srgba(23.5416%,35.0164%,63.5401%,1)"/>
  <circle cx="12" cy="1" r="1" fill="srgba(23.5416%,35.0164%,63.5401%,1)"/>
  <circle cx="13" cy="1" r="1" fill="srgba(23.5172%,35.0332%,63.563%,1)"/>
  <circle cx="14" cy="1" r="1" fill="srgba(24.213%,34.5525%,62.9038%,1)"/>
  <circle cx="15" cy="1" r="1" fill="srgba(54.2184%,13.93%,34.4945%,1)"/>
  <circle cx="0" cy="2" r="1" fill="srgba(52.4636%,15.1492%,36.17%,1)"/>
  <circle cx="1" cy="2" r="1" fill="srgba(23.5279%,35.0256%,63.5538%,1)"/>
  <circle cx="2" cy="2" r="1" fill="srgba(23.1098%,35.3124%,63.949%,1)"/>
  <circle cx="3" cy="2" r="1" fill="srgba(23.1235%,35.3033%,63.9353%,1)"/>
  <circle cx="4" cy="2" r="1" fill="srgba(23.1235%,35.3033%,63.9353%,1)"/>
  <circle cx="5" cy="2" r="1" fill="srgba(23.1235%,35.3033%,63.9353%,1)"/>
  <circle cx="6" cy="2" r="1" fill="srgba(23.1235%,35.3033%,63.9353%,1)"/>
  <circle cx="7" cy="2" r="1" fill="srgba(23.1235%,35.3033%,63.9353%,1)"/>
  <circle cx="8" cy="2" r="1" fill="srgba(23.1235%,35.3033%,63.9353%,1)"/>
  <circle cx="9" cy="2" r="1" fill="srgba(23.1235%,35.3033%,63.9353%,1)"/>
  <circle cx="10" cy="2" r="1" fill="srgba(23.1235%,35.3033%,63.9353%,1)"/>
  <circle cx="11" cy="2" r="1" fill="srgba(23.1235%,35.3033%,63.9353%,1)"/>
  <circle cx="12" cy="2" r="1" fill="srgba(23.1235%,35.3033%,63.9353%,1)"/>
  <circle cx="13" cy="2" r="1" fill="srgba(23.0991%,35.3201%,63.9597%,1)"/>
  <circle cx="14" cy="2" r="1" fill="srgba(23.801%,34.8363%,63.2929%,1)"/>
  <circle cx="15" cy="2" r="1" fill="srgba(54.052%,14.0444%,34.6517%,1)"/>
  <circle cx="0" cy="3" r="1" fill="srgba(52.4697%,15.1461%,36.1639%,1)"/>
  <circle cx="1" cy="3" r="1" fill="srgba(23.5416%,35.0164%,63.5401%,1)"/>
  <circle cx="2" cy="3" r="1" fill="srgba(23.1235%,35.3033%,63.9353%,1)"/>
  <circle cx="3" cy="3" r="1" fill="srgba(59,90,163,1)"/>
  <circle cx="4" cy="3" r="1" fill="srgba(59,90,163,1)"/>
  <circle cx="5" cy="3" r="1" fill="srgba(59,90,163,1)"/>
  <circle cx="6" cy="3" r="1" fill="srgba(23.1357%,35.2972%,63.917%,1)"/>
  <circle cx="7" cy="3" r="1" fill="srgba(23.1617%,35.2255%,64.0162%,1)"/>
  <circle cx="8" cy="3" r="1" fill="srgba(23.1952%,35.1324%,64.1428%,1)"/>
  <circle cx="9" cy="3" r="1" fill="srgba(23.1785%,35.1766%,64.0818%,1)"/>
  <circle cx="10" cy="3" r="1" fill="srgba(23.1693%,35.2041%,64.0452%,1)"/>
  <circle cx="11" cy="3" r="1" fill="srgba(23.1601%,35.2285%,64.0116%,1)"/>
  <circle cx="12" cy="3" r="1" fill="srgba(23.154%,35.2468%,63.9857%,1)"/>
  <circle cx="13" cy="3" r="1" fill="srgba(23.1235%,35.2804%,63.9887%,1)"/>
  <circle cx="14" cy="3" r="1" fill="srgba(23.8209%,34.8089%,63.3051%,1)"/>
  <circle cx="15" cy="3" r="1" fill="srgba(54.0703%,14.0352%,34.6517%,1)"/>
  <circle cx="0" cy="4" r="1" fill="srgba(52.4697%,15.1461%,36.1639%,1)"/>
  <circle cx="1" cy="4" r="1" fill="srgba(23.5416%,35.0164%,63.5401%,1)"/>
  <circle cx="2" cy="4" r="1" fill="srgba(23.1235%,35.3033%,63.9353%,1)"/>
  <circle cx="3" cy="4" r="1" fill="srgba(59,90,163,1)"/>
  <circle cx="4" cy="4" r="1" fill="srgba(59,90,163,1)"/>
  <circle cx="5" cy="4" r="1" fill="srgba(59,90,163,1)"/>
  <circle cx="6" cy="4" r="1" fill="srgba(23.1617%,35.2255%,64.0162%,1)"/>
  <circle cx="7" cy="4" r="1" fill="srgba(22.7481%,36.3973%,62.4125%,1)"/>
  <circle cx="8" cy="4" r="1" fill="srgba(22.182%,37.9995%,60.2213%,1)"/>
  <circle cx="9" cy="4" r="1" fill="srgba(22.3926%,37.4029%,61.0376%,1)"/>
  <circle cx="10" cy="4" r="1" fill="srgba(22.5208%,37.0428%,61.529%,1)"/>
  <circle cx="11" cy="4" r="1" fill="srgba(22.6474%,36.6827%,62.0233%,1)"/>
  <circle cx="12" cy="4" r="1" fill="srgba(22.7466%,36.4004%,62.4079%,1)"/>
  <circle cx="13" cy="4" r="1" fill="srgba(22.8046%,36.1852%,62.7497%,1)"/>
  <circle cx="14" cy="4" r="1" fill="srgba(23.5615%,35.5138%,62.3682%,1)"/>
  <circle cx="15" cy="4" r="1" fill="srgba(53.3272%,14.9325%,34.464%,1)"/>
  <circle cx="0" cy="5" r="1" fill="srgba(52.4697%,15.1461%,36.1639%,1)"/>
  <circle cx="1" cy="5" r="1" fill="srgba(23.5416%,35.0164%,63.5401%,1)"/>
  <circle cx="2" cy="5" r="1" fill="srgba(23.1235%,35.3033%,63.9353%,1)"/>
  <circle cx="3" cy="5" r="1" fill="srgba(59,90,163,1)"/>
  <circle cx="4" cy="5" r="1" fill="srgba(59,90,163,1)"/>
  <circle cx="5" cy="5" r="1" fill="srgba(23.1525%,35.2514%,63.9811%,1)"/>
  <circle cx="6" cy="5" r="1" fill="srgba(22.9587%,35.8083%,63.2181%,1)"/>
  <circle cx="7" cy="5" r="1" fill="srgba(19.971%,44.0848%,51.8776%,1)"/>
  <circle cx="8" cy="5" r="1" fill="srgba(17.3419%,50.4875%,43.5645%,1)"/>
  <circle cx="9" cy="5" r="1" fill="srgba(18.3368%,48.5985%,45.8289%,1)"/>
  <circle cx="10" cy="5" r="1" fill="srgba(18.6328%,48.0797%,46.4302%,1)"/>
  <circle cx="11" cy="5" r="1" fill="srgba(18.8434%,47.4632%,47.2724%,1)"/>
  <circle cx="12" cy="5" r="1" fill="srgba(19.0997%,46.5461%,48.7022%,1)"/>
  <circle cx="13" cy="5" r="1" fill="srgba(19.4797%,45.4765%,50.1503%,1)"/>
  <circle cx="14" cy="5" r="1" fill="srgba(20.5081%,43.7629%,51.4397%,1)"/>
  <circle cx="15" cy="5" r="1" fill="srgba(42.4979%,27.8798%,32.3461%,1)"/>
  <circle cx="0" cy="6" r="1" fill="srgba(52.4697%,15.1461%,36.1639%,1)"/>
  <circle cx="1" cy="6" r="1" fill="srgba(23.5416%,35.0164%,63.5401%,1)"/>
  <circle cx="2" cy="6" r="1" fill="srgba(23.1235%,35.3033%,63.9353%,1)"/>
  <circle cx="3" cy="6" r="1" fill="srgba(59,90,163,1)"/>
  <circle cx="4" cy="6" r="1" fill="srgba(59,90,163,1)"/>
  <circle cx="5" cy="6" r="1" fill="srgba(23.2242%,35.0774%,64.2252%,1)"/>
  <circle cx="6" cy="6" r="1" fill="srgba(21.3993%,39.3072%,58.2467%,1)"/>
  <circle cx="7" cy="6" r="1" fill="srgba(18.5229%,49.7597%,43.8315%,1)"/>
  <circle cx="8" cy="6" r="1" fill="srgba(27.245%,44.8661%,44.329%,1)"/>
  <circle cx="9" cy="6" r="1" fill="srgba(21.1444%,45.507%,48.9174%,1)"/>
  <circle cx="10" cy="6" r="1" fill="srgba(19.0066%,45.3254%,50.2312%,1)"/>
  <circle cx="11" cy="6" r="1" fill="srgba(19.8764%,44.2267%,51.8898%,1)"/>
  <circle cx="12" cy="6" r="1" fill="srgba(22.0752%,41.2085%,53.2845%,1)"/>
  <circle cx="13" cy="6" r="1" fill="srgba(22.7939%,38.6038%,57.3419%,1)"/>
  <circle cx="14" cy="6" r="1" fill="srgba(23.2837%,36.1334%,61.6678%,1)"/>
  <circle cx="15" cy="6" r="1" fill="srgba(52.903%,15.4055%,34.4564%,1)"/>
  <circle cx="0" cy="7" r="1" fill="srgba(52.4697%,15.1461%,36.1639%,1)"/>
  <circle cx="1" cy="7" r="1" fill="srgba(23.5416%,35.0164%,63.5401%,1)"/>
  <circle cx="2" cy="7" r="1" fill="srgba(23.1235%,35.3033%,63.9353%,1)"/>
  <circle cx="3" cy="7" r="1" fill="srgba(59,90,163,1)"/>
  <circle cx="4" cy="7" r="1" fill="srgba(59,90,163,1)"/>
  <circle cx="5" cy="7" r="1" fill="srgba(23.0152%,35.1232%,64.0146%,1)"/>
  <circle cx="6" cy="7" r="1" fill="srgba(25.5283%,37.8882%,61.9379%,1)"/>
  <circle cx="7" cy="7" r="1" fill="srgba(45.8259%,58.2452%,64.2313%,1)"/>
  <circle cx="8" cy="7" r="1" fill="srgba(64.5899%,28.7938%,32.5887%,1)"/>
  <circle cx="9" cy="7" r="1" fill="srgba(53.7209%,33.2097%,32.6177%,1)"/>
  <circle cx="10" cy="7" r="1" fill="srgba(33.7713%,46.8391%,51.6869%,1)"/>
  <circle cx="11" cy="7" r="1" fill="srgba(21.9608%,39.0936%,59.1073%,1)"/>
  <circle cx="12" cy="7" r="1" fill="srgba(37.5662%,27.129%,46.2547%,1)"/>
  <circle cx="13" cy="7" r="1" fill="srgba(28.2109%,32.578%,57.3907%,1)"/>
  <circle cx="14" cy="7" r="1" fill="srgba(23.4882%,35.0576%,63.5706%,1)"/>
  <circle cx="15" cy="7" r="1" fill="srgba(54.0963%,14.0246%,34.6609%,1)"/>
  <circle cx="0" cy="8" r="1" fill="srgba(52.4697%,15.1461%,36.1639%,1)"/>
  <circle cx="1" cy="8" r="1" fill="srgba(23.5416%,35.0164%,63.5401%,1)"/>
  <circle cx="2" cy="8" r="1" fill="srgba(23.1235%,35.3033%,63.9353%,1)"/>
  <circle cx="3" cy="8" r="1" fill="srgba(59,90,163,1)"/>
  <circle cx="4" cy="8" r="1" fill="srgba(59,90,163,1)"/>
  <circle cx="5" cy="8" r="1" fill="srgba(22.4247%,34.8302%,63.743%,1)"/>
  <circle cx="6" cy="8" r="1" fill="srgba(46.6331%,51.1589%,70.1717%,1)"/>
  <circle cx="7" cy="8" r="1" fill="srgba(78.8144%,75.7321%,78.6099%,1)"/>
  <circle cx="8" cy="8" r="1" fill="srgba(75.0164%,23.3936%,32.3491%,1)"/>
  <circle cx="9" cy="8" r="1" fill="srgba(73.1746%,9.98245%,21.8891%,1)"/>
  <circle cx="10" cy="8" r="1" fill="srgba(41.2222%,40.2335%,57.1084%,1)"/>
  <circle cx="11" cy="8" r="1" fill="srgba(26.5675%,32.755%,60.9369%,1)"/>
  <circle cx="12" cy="8" r="1" fill="srgba(55.1736%,13.3715%,33.8628%,1)"/>
  <circle cx="13" cy="8" r="1" fill="srgba(28.513%,31.5877%,58.9578%,1)"/>
  <circle cx="14" cy="8" r="1" fill="srgba(23.5157%,35.0271%,63.5691%,1)"/>
  <circle cx="15" cy="8" r="1" fill="srgba(54.0566%,14.0398%,34.6471%,1)"/>
  <circle cx="0" cy="9" r="1" fill="srgba(52.4697%,15.1461%,36.1639%,1)"/>
  <circle cx="1" cy="9" r="1" fill="srgba(23.5416%,35.0164%,63.5401%,1)"/>
  <circle cx="2" cy="9" r="1" fill="srgba(23.1235%,35.3033%,63.9353%,1)"/>
  <circle cx="3" cy="9" r="1" fill="srgba(59,90,163,1)"/>
  <circle cx="4" cy="9" r="1" fill="srgba(23.0182%,35.1827%,63.8651%,1)"/>
  <circle cx="5" cy="9" r="1" fill="srgba(24.7745%,36.9497%,64.773%,1)"/>
  <circle cx="6" cy="9" r="1" fill="srgba(65.3696%,72.6604%,81.7792%,1)"/>
  <circle cx="7" cy="9" r="1" fill="srgba(82.237%,57.8897%,63.2105%,1)"/>
  <circle cx="8" cy="9" r="1" fill="srgba(73.9437%,6.21653%,19.7467%,1)"/>
  <circle cx="9" cy="9" r="1" fill="srgba(74.6914%,2.69627%,17.1893%,1)"/>
  <circle cx="10" cy="9" r="1" fill="srgba(44.4572%,34.5327%,54.4961%,1)"/>
  <circle cx="11" cy="9" r="1" fill="srgba(32.604%,28.7526%,54.9783%,1)"/>
  <circle cx="12" cy="9" r="1" fill="srgba(46.0548%,19.5499%,42.2293%,1)"/>
  <circle cx="13" cy="9" r="1" fill="srgba(24.4755%,34.374%,62.6551%,1)"/>
  <circle cx="14" cy="9" r="1" fill="srgba(23.7186%,34.8928%,63.3692%,1)"/>
  <circle cx="15" cy="9" r="1" fill="srgba(54.0566%,14.0398%,34.6471%,1)"/>
  <circle cx="0" cy="10" r="1" fill="srgba(52.4697%,15.1461%,36.1639%,1)"/>
  <circle cx="1" cy="10" r="1" fill="srgba(23.5416%,35.0164%,63.5401%,1)"/>
  <circle cx="2" cy="10" r="1" fill="srgba(23.1235%,35.3033%,63.9353%,1)"/>
  <circle cx="3" cy="10" r="1" fill="srgba(59,90,163,1)"/>
  <circle cx="4" cy="10" r="1" fill="srgba(22.6993%,34.9203%,63.8636%,1)"/>
  <circle cx="5" cy="10" r="1" fill="srgba(30.1289%,42.1271%,65.4337%,1)"/>
  <circle cx="6" cy="10" r="1" fill="srgba(72.1157%,58.381%,55.021%,1)"/>
  <circle cx="7" cy="10" r="1" fill="srgba(75.6863%,8.43366%,20.6332%,1)"/>
  <circle cx="8" cy="10" r="1" fill="srgba(74.4854%,0%,14.6578%,1)"/>
  <circle cx="9" cy="10" r="1" fill="srgba(75.4406%,1.77157%,16.379%,1)"/>
  <circle cx="10" cy="10" r="1" fill="srgba(52.2911%,34.0871%,52.3552%,1)"/>
  <circle cx="11" cy="10" r="1" fill="srgba(27.7592%,32.639%,60.0092%,1)"/>
  <circle cx="12" cy="10" r="1" fill="srgba(24.1596%,34.5907%,62.9526%,1)"/>
  <circle cx="13" cy="10" r="1" fill="srgba(22.945%,35.4269%,64.1032%,1)"/>
  <circle cx="14" cy="10" r="1" fill="srgba(23.8193%,34.8241%,63.2746%,1)"/>
  <circle cx="15" cy="10" r="1" fill="srgba(54.0566%,14.0398%,34.6471%,1)"/>
  <circle cx="0" cy="11" r="1" fill="srgba(52.4697%,15.1461%,36.1639%,1)"/>
  <circle cx="1" cy="11" r="1" fill="srgba(23.5416%,35.0164%,63.5401%,1)"/>
  <circle cx="2" cy="11" r="1" fill="srgba(23.1235%,35.3033%,63.9353%,1)"/>
  <circle cx="3" cy="11" r="1" fill="srgba(59,90,163,1)"/>
  <circle cx="4" cy="11" r="1" fill="srgba(22.5711%,34.8257%,63.9216%,1)"/>
  <circle cx="5" cy="11" r="1" fill="srgba(32.4376%,44.2771%,64.77%,1)"/>
  <circle cx="6" cy="11" r="1" fill="srgba(77.1466%,46.4195%,41.4099%,1)"/>
  <circle cx="7" cy="11" r="1" fill="srgba(74.699%,0%,14.6059%,1)"/>
  <circle cx="8" cy="11" r="1" fill="srgba(74.551%,0%,15.0713%,1)"/>
  <circle cx="9" cy="11" r="1" fill="srgba(74.9538%,4.44495%,18.7289%,1)"/>
  <circle cx="10" cy="11" r="1" fill="srgba(50.37%,36.2066%,54.9874%,1)"/>
  <circle cx="11" cy="11" r="1" fill="srgba(25.9602%,33.286%,61.1978%,1)"/>
  <circle cx="12" cy="11" r="1" fill="srgba(22.8687%,35.4788%,64.1764%,1)"/>
  <circle cx="13" cy="11" r="1" fill="srgba(23.1174%,35.3079%,63.9414%,1)"/>
  <circle cx="14" cy="11" r="1" fill="srgba(23.8148%,34.8272%,63.2792%,1)"/>
  <circle cx="15" cy="11" r="1" fill="srgba(54.0566%,14.0398%,34.6471%,1)"/>
  <circle cx="0" cy="12" r="1" fill="srgba(52.4697%,15.1461%,36.1639%,1)"/>
  <circle cx="1" cy="12" r="1" fill="srgba(23.5416%,35.0164%,63.5401%,1)"/>
  <circle cx="2" cy="12" r="1" fill="srgba(23.1235%,35.3033%,63.9353%,1)"/>
  <circle cx="3" cy="12" r="1" fill="srgba(59,90,163,1)"/>
  <circle cx="4" cy="12" r="1" fill="srgba(22.3377%,34.58%,63.8071%,1)"/>
  <circle cx="5" cy="12" r="1" fill="srgba(37.5738%,49.7002%,67.2724%,1)"/>
  <circle cx="6" cy="12" r="1" fill="srgba(82.9191%,55.3109%,46.2623%,1)"/>
  <circle cx="7" cy="12" r="1" fill="srgba(76.5469%,7.57763%,18.5016%,1)"/>
  <circle cx="8" cy="12" r="1" fill="srgba(76.08%,9.95804%,19.5117%,1)"/>
  <circle cx="9" cy="12" r="1" fill="srgba(73.077%,16.7559%,28.2277%,1)"/>
  <circle cx="10" cy="12" r="1" fill="srgba(45.9739%,36.9314%,56.1913%,1)"/>
  <circle cx="11" cy="12" r="1" fill="srgba(24.3763%,33.6446%,62.1164%,1)"/>
  <circle cx="12" cy="12" r="1" fill="srgba(23.0304%,35.3674%,64.0223%,1)"/>
  <circle cx="13" cy="12" r="1" fill="srgba(23.1128%,35.3109%,63.946%,1)"/>
  <circle cx="14" cy="12" r="1" fill="srgba(23.8148%,34.8272%,63.2792%,1)"/>
  <circle cx="15" cy="12" r="1" fill="srgba(54.0566%,14.0398%,34.6471%,1)"/>
  <circle cx="0" cy="13" r="1" fill="srgba(52.4636%,15.1492%,36.17%,1)"/>
  <circle cx="1" cy="13" r="1" fill="srgba(23.5279%,35.0256%,63.5538%,1)"/>
  <circle cx="2" cy="13" r="1" fill="srgba(23.1098%,35.3124%,63.949%,1)"/>
  <circle cx="3" cy="13" r="1" fill="srgba(23.1235%,35.3033%,63.9353%,1)"/>
  <circle cx="4" cy="13" r="1" fill="srgba(22.5193%,34.7936%,63.9139%,1)"/>
  <circle cx="5" cy="13" r="1" fill="srgba(32.8344%,44.1215%,64.7288%,1)"/>
  <circle cx="6" cy="13" r="1" fill="srgba(86.7277%,77.2793%,57.229%,1)"/>
  <circle cx="7" cy="13" r="1" fill="srgba(81.1292%,24.7822%,27.0817%,1)"/>
  <circle cx="8" cy="13" r="1" fill="srgba(78.2818%,17.0977%,23.1388%,1)"/>
  <circle cx="9" cy="13" r="1" fill="srgba(78.2422%,43.3158%,40.5646%,1)"/>
  <circle cx="10" cy="13" r="1" fill="srgba(57.9843%,19.0204%,35.967%,1)"/>
  <circle cx="11" cy="13" r="1" fill="srgba(29.9092%,30.1732%,57.203%,1)"/>
  <circle cx="12" cy="13" r="1" fill="srgba(22.5025%,35.7305%,64.5228%,1)"/>
  <circle cx="13" cy="13" r="1" fill="srgba(23.0991%,35.3201%,63.9582%,1)"/>
  <circle cx="14" cy="13" r="1" fill="srgba(23.801%,34.8363%,63.2929%,1)"/>
  <circle cx="15" cy="13" r="1" fill="srgba(54.052%,14.0444%,34.6517%,1)"/>
  <circle cx="0" cy="14" r="1" fill="srgba(52.6421%,15.0271%,36.0006%,1)"/>
  <circle cx="1" cy="14" r="1" fill="srgba(23.9429%,34.7417%,63.1617%,1)"/>
  <circle cx="2" cy="14" r="1" fill="srgba(23.5279%,35.0256%,63.5538%,1)"/>
  <circle cx="3" cy="14" r="1" fill="srgba(23.5416%,35.0164%,63.5401%,1)"/>
  <circle cx="4" cy="14" r="1" fill="srgba(23.0014%,34.5693%,63.5447%,1)"/>
  <circle cx="5" cy="14" r="1" fill="srgba(31.8822%,41.9181%,63.4699%,1)"/>
  <circle cx="6" cy="14" r="1" fill="srgba(89.4209%,89.9947%,63.4577%,1)"/>
  <circle cx="7" cy="14" r="1" fill="srgba(92.8786%,72.9107%,50.6142%,1)"/>
  <circle cx="8" cy="14" r="1" fill="srgba(79.7604%,50.2876%,37.9889%,1)"/>
  <circle cx="9" cy="14" r="1" fill="srgba(78.3841%,30.0587%,31.5755%,1)"/>
  <circle cx="10" cy="14" r="1" fill="srgba(49.691%,17.0809%,38.7915%,1)"/>
  <circle cx="11" cy="14" r="1" fill="srgba(32.6528%,28.6961%,54.8791%,1)"/>
  <circle cx="12" cy="14" r="1" fill="srgba(27.0268%,32.6223%,60.2396%,1)"/>
  <circle cx="13" cy="14" r="1" fill="srgba(23.5264%,35.0271%,63.5538%,1)"/>
  <circle cx="14" cy="14" r="1" fill="srgba(24.2084%,34.5571%,62.9084%,1)"/>
  <circle cx="15" cy="14" r="1" fill="srgba(54.2184%,13.93%,34.4945%,1)"/>
  <circle cx="0" cy="15" r="1" fill="srgba(65.0538%,6.49882%,24.2512%,1)"/>
  <circle cx="1" cy="15" r="1" fill="srgba(52.6436%,15.0271%,36.0006%,1)"/>
  <circle cx="2" cy="15" r="1" fill="srgba(52.4636%,15.1507%,36.17%,1)"/>
  <circle cx="3" cy="15" r="1" fill="srgba(52.4697%,15.1461%,36.1639%,1)"/>
  <circle cx="4" cy="15" r="1" fill="srgba(52.134%,14.5541%,35.9701%,1)"/>
  <circle cx="5" cy="15" r="1" fill="srgba(57.6547%,24.3046%,39.1547%,1)"/>
  <circle cx="6" cy="15" r="1" fill="srgba(93.3043%,87.6356%,59.9924%,1)"/>
  <circle cx="7" cy="15" r="1" fill="srgba(95.938%,87.4327%,57.7951%,1)"/>
  <circle cx="8" cy="15" r="1" fill="srgba(78.7121%,64.0253%,43.8087%,1)"/>
  <circle cx="9" cy="15" r="1" fill="srgba(80.9339%,26.6117%,27.895%,1)"/>
  <circle cx="10" cy="15" r="1" fill="srgba(69.1356%,4.20996%,20.6439%,1)"/>
  <circle cx="11" cy="15" r="1" fill="srgba(56.6705%,12.1828%,32.1416%,1)"/>
  <circle cx="12" cy="15" r="1" fill="srgba(60.3677%,9.71847%,28.6839%,1)"/>
  <circle cx="13" cy="15" r="1" fill="srgba(52.8618%,14.876%,35.7916%,1)"/>
  <circle cx="14" cy="15" r="1" fill="srgba(52.7352%,14.963%,35.9121%,1)"/>
  <circle cx="15" cy="15" r="1" fill="srgba(65.7359%,6.02426%,23.5996%,1)"/>
</svg>
