<?xml version="1.0" standalone="no"?>
<!DOCTYPE svg PUBLIC "-//W3C//DTD SVG 20010904//EN"
  "http://www.w3.org/TR/2001/REC-SVG-20010904/DTD/svg10.dtd">
<svg width="16" height="16">
  <circle cx="0" cy="0" r="1" fill="srgba(206,17,38,1)"/>
  <circle cx="1" cy="0" r="1" fill="srgba(206,17,38,1)"/>
  <circle cx="2" cy="0" r="1" fill="srgba(206,17,38,1)"/>
  <circle cx="3" cy="0" r="1" fill="srgba(206,17,38,1)"/>
  <circle cx="4" cy="0" r="1" fill="srgba(206,17,38,1)"/>
  <circle cx="5" cy="0" r="1" fill="srgba(206,17,38,1)"/>
  <circle cx="6" cy="0" r="1" fill="srgba(80.6439%,6.07919%,14.9508%,1)"/>
  <circle cx="7" cy="0" r="1" fill="srgba(82.9603%,15.7488%,14.1451%,1)"/>
  <circle cx="8" cy="0" r="1" fill="srgba(96.6476%,72.8786%,9.3843%,1)"/>
  <circle cx="9" cy="0" r="1" fill="srgba(98.9639%,82.5483%,8.57862%,1)"/>
  <circle cx="10" cy="0" r="1" fill="srgba(252,209,22,1)"/>
  <circle cx="11" cy="0" r="1" fill="srgba(252,209,22,1)"/>
  <circle cx="12" cy="0" r="1" fill="srgba(252,209,22,1)"/>
  <circle cx="13" cy="0" r="1" fill="srgba(252,209,22,1)"/>
  <circle cx="14" cy="0" r="1" fill="srgba(252,209,22,1)"/>
  <circle cx="15" cy="0" r="1" fill="srgba(252,209,22,1)"/>
  <circle cx="0" cy="1" r="1" fill="srgba(206,17,38,1)"/>
  <circle cx="1" cy="1" r="1" fill="srgba(206,17,38,1)"/>
  <circle cx="2" cy="1" r="1" fill="srgba(206,17,38,1)"/>
  <circle cx="3" cy="1" r="1" fill="srgba(206,17,38,1)"/>
  <circle cx="4" cy="1" r="1" fill="srgba(206,17,38,1)"/>
  <circle cx="5" cy="1" r="1" fill="srgba(206,17,38,1)"/>
  <circle cx="6" cy="1" r="1" fill="srgba(80.6439%,6.07919%,14.9508%,1)"/>
  <circle cx="7" cy="1" r="1" fill="srgba(82.9603%,15.7488%,14.1451%,1)"/>
  <circle cx="8" cy="1" r="1" fill="srgba(96.6476%,72.8786%,9.3843%,1)"/>
  <circle cx="9" cy="1" r="1" fill="srgba(98.9639%,82.5483%,8.57862%,1)"/>
  <circle cx="10" cy="1" r="1" fill="srgba(252,209,22,1)"/>
  <circle cx="11" cy="1" r="1" fill="srgba(252,209,22,1)"/>
  <circle cx="12" cy="1" r="1" fill="srgba(252,209,22,1)"/>
  <circle cx="13" cy="1" r="1" fill="srgba(252,209,22,1)"/>
  <circle cx="14" cy="1" r="1" fill="srgba(252,209,22,1)"/>
  <circle cx="15" cy="1" r="1" fill="srgba(252,209,22,1)"/>
  <circle cx="0" cy="2" r="1" fill="srgba(206,17,38,1)"/>
  <circle cx="1" cy="2" r="1" fill="srgba(206,17,38,1)"/>
  <circle cx="2" cy="2" r="1" fill="srgba(206,17,38,1)"/>
  <circle cx="3" cy="2" r="1" fill="srgba(206,17,38,1)"/>
  <circle cx="4" cy="2" r="1" fill="srgba(206,17,38,1)"/>
  <circle cx="5" cy="2" r="1" fill="srgba(206,17,38,1)"/>
  <circle cx="6" cy="2" r="1" fill="srgba(80.6439%,6.07919%,14.9508%,1)"/>
  <circle cx="7" cy="2" r="1" fill="srgba(82.9603%,15.7488%,14.1451%,1)"/>
  <circle cx="8" cy="2" r="1" fill="srgba(96.6476%,72.8786%,9.3843%,1)"/>
  <circle cx="9" cy="2" r="1" fill="srgba(98.9639%,82.5483%,8.57862%,1)"/>
  <circle cx="10" cy="2" r="1" fill="srgba(252,209,22,1)"/>
  <circle cx="11" cy="2" r="1" fill="srgba(252,209,22,1)"/>
  <circle cx="12" cy="2" r="1" fill="srgba(252,209,22,1)"/>
  <circle cx="13" cy="2" r="1" fill="srgba(252,209,22,1)"/>
  <circle cx="14" cy="2" r="1" fill="srgba(252,209,22,1)"/>
  <circle cx="15" cy="2" r="1" fill="srgba(252,209,22,1)"/>
  <circle cx="0" cy="3" r="1" fill="srgba(206,17,38,1)"/>
  <circle cx="1" cy="3" r="1" fill="srgba(206,17,38,1)"/>
  <circle cx="2" cy="3" r="1" fill="srgba(206,17,38,1)"/>
  <circle cx="3" cy="3" r="1" fill="srgba(206,17,38,1)"/>
  <circle cx="4" cy="3" r="1" fill="srgba(206,17,38,1)"/>
  <circle cx="5" cy="3" r="1" fill="srgba(206,17,38,1)"/>
  <circle cx="6" cy="3" r="1" fill="srgba(80.6439%,6.07919%,14.9508%,1)"/>
  <circle cx="7" cy="3" r="1" fill="srgba(82.9603%,15.7488%,14.1451%,1)"/>
  <circle cx="8" cy="3" r="1" fill="srgba(96.6476%,72.8786%,9.3843%,1)"/>
  <circle cx="9" cy="3" r="1" fill="srgba(98.9639%,82.5483%,8.57862%,1)"/>
  <circle cx="10" cy="3" r="1" fill="srgba(252,209,22,1)"/>
  <circle cx="11" cy="3" r="1" fill="srgba(252,209,22,1)"/>
  <circle cx="12" cy="3" r="1" fill="srgba(252,209,22,1)"/>
  <circle cx="13" cy="3" r="1" fill="srgba(252,209,22,1)"/>
  <circle cx="14" cy="3" r="1" fill="srgba(252,209,22,1)"/>
  <circle cx="15" cy="3" r="1" fill="srgba(252,209,22,1)"/>
  <circle cx="0" cy="4" r="1" fill="srgba(206,17,38,1)"/>
  <circle cx="1" cy="4" r="1" fill="srgba(206,17,38,1)"/>
  <circle cx="2" cy="4" r="1" fill="srgba(80.7706%,6.66514%,14.8989%,1)"/>
  <circle cx="3" cy="4" r="1" fill="srgba(81.0422%,6.68803%,14.9493%,1)"/>
  <circle cx="4" cy="4" r="1" fill="srgba(81.0422%,6.68803%,14.9493%,1)"/>
  <circle cx="5" cy="4" r="1" fill="srgba(80.7706%,6.66514%,14.8989%,1)"/>
  <circle cx="6" cy="4" r="1" fill="srgba(80.6439%,6.07919%,14.9508%,1)"/>
  <circle cx="7" cy="4" r="1" fill="srgba(82.9603%,15.7488%,14.1451%,1)"/>
  <circle cx="8" cy="4" r="1" fill="srgba(96.6476%,72.8786%,9.3843%,1)"/>
  <circle cx="9" cy="4" r="1" fill="srgba(98.9639%,82.5483%,8.57862%,1)"/>
  <circle cx="10" cy="4" r="1" fill="srgba(252,209,22,1)"/>
  <circle cx="11" cy="4" r="1" fill="srgba(252,209,22,1)"/>
  <circle cx="12" cy="4" r="1" fill="srgba(252,209,22,1)"/>
  <circle cx="13" cy="4" r="1" fill="srgba(252,209,22,1)"/>
  <circle cx="14" cy="4" r="1" fill="srgba(252,209,22,1)"/>
  <circle cx="15" cy="4" r="1" fill="srgba(252,209,22,1)"/>
  <circle cx="0" cy="5" r="1" fill="srgba(80.7797%,6.66667%,14.902%,1)"/>
  <circle cx="1" cy="5" r="1" fill="srgba(80.8774%,6.6743%,14.9187%,1)"/>
  <circle cx="2" cy="5" r="1" fill="srgba(81.4466%,6.7216%,15.024%,1)"/>
  <circle cx="3" cy="5" r="1" fill="srgba(73.8125%,6.0914%,13.6172%,1)"/>
  <circle cx="4" cy="5" r="1" fill="srgba(73.8155%,6.0914%,13.6172%,1)"/>
  <circle cx="5" cy="5" r="1" fill="srgba(81.4466%,6.7216%,15.024%,1)"/>
  <circle cx="6" cy="5" r="1" fill="srgba(80.7385%,6.08682%,14.9691%,1)"/>
  <circle cx="7" cy="5" r="1" fill="srgba(82.9572%,15.7473%,14.1451%,1)"/>
  <circle cx="8" cy="5" r="1" fill="srgba(96.6476%,72.8786%,9.3843%,1)"/>
  <circle cx="9" cy="5" r="1" fill="srgba(98.9639%,82.5483%,8.57862%,1)"/>
  <circle cx="10" cy="5" r="1" fill="srgba(252,209,22,1)"/>
  <circle cx="11" cy="5" r="1" fill="srgba(252,209,22,1)"/>
  <circle cx="12" cy="5" r="1" fill="srgba(252,209,22,1)"/>
  <circle cx="13" cy="5" r="1" fill="srgba(252,209,22,1)"/>
  <circle cx="14" cy="5" r="1" fill="srgba(252,209,22,1)"/>
  <circle cx="15" cy="5" r="1" fill="srgba(252,209,22,1)"/>
  <circle cx="0" cy="6" r="1" fill="srgba(80.8698%,6.6743%,14.9172%,1)"/>
  <circle cx="1" cy="6" r="1" fill="srgba(78.9029%,6.51102%,14.5556%,1)"/>
  <circle cx="2" cy="6" r="1" fill="srgba(77.5708%,6.40116%,14.3099%,1)"/>
  <circle cx="3" cy="6" r="1" fill="srgba(47.6463%,3.93072%,8.7892%,1)"/>
  <circle cx="4" cy="6" r="1" fill="srgba(47.6524%,3.93225%,8.79072%,1)"/>
  <circle cx="5" cy="6" r="1" fill="srgba(77.5708%,6.40116%,14.3099%,1)"/>
  <circle cx="6" cy="6" r="1" fill="srgba(78.7411%,5.9205%,14.6029%,1)"/>
  <circle cx="7" cy="6" r="1" fill="srgba(83.1281%,15.7733%,14.1405%,1)"/>
  <circle cx="8" cy="6" r="1" fill="srgba(97.3266%,73.0159%,9.24697%,1)"/>
  <circle cx="9" cy="6" r="1" fill="srgba(99.7421%,82.7054%,8.42145%,1)"/>
  <circle cx="10" cy="6" r="1" fill="srgba(99.5956%,82.1164%,8.47181%,1)"/>
  <circle cx="11" cy="6" r="1" fill="srgba(99.5956%,82.1164%,8.47181%,1)"/>
  <circle cx="12" cy="6" r="1" fill="srgba(99.5956%,82.1164%,8.47181%,1)"/>
  <circle cx="13" cy="6" r="1" fill="srgba(99.5956%,82.1164%,8.47181%,1)"/>
  <circle cx="14" cy="6" r="1" fill="srgba(99.5956%,82.1164%,8.47181%,1)"/>
  <circle cx="15" cy="6" r="1" fill="srgba(99.5956%,82.1164%,8.47181%,1)"/>
  <circle cx="0" cy="7" r="1" fill="srgba(81.2726%,6.70634%,14.992%,1)"/>
  <circle cx="1" cy="7" r="1" fill="srgba(72.2332%,5.96017%,13.3242%,1)"/>
  <circle cx="2" cy="7" r="1" fill="srgba(35.3689%,2.916%,6.52476%,1)"/>
  <circle cx="3" cy="7" r="1" fill="srgba(8.61524%,0.709545%,1.58999%,1)"/>
  <circle cx="4" cy="7" r="1" fill="srgba(8.61677%,0.709545%,1.58999%,1)"/>
  <circle cx="5" cy="7" r="1" fill="srgba(35.3719%,2.916%,6.52628%,1)"/>
  <circle cx="6" cy="7" r="1" fill="srgba(72.1218%,5.38491%,13.3425%,1)"/>
  <circle cx="7" cy="7" r="1" fill="srgba(81.9516%,15.4925%,14.5159%,1)"/>
  <circle cx="8" cy="7" r="1" fill="srgba(86.1662%,70.7576%,11.5053%,1)"/>
  <circle cx="9" cy="7" r="1" fill="srgba(86.952%,80.1175%,11.0094%,1)"/>
  <circle cx="10" cy="7" r="1" fill="srgba(86.9047%,79.5483%,11.0399%,1)"/>
  <circle cx="11" cy="7" r="1" fill="srgba(86.9047%,79.5483%,11.0399%,1)"/>
  <circle cx="12" cy="7" r="1" fill="srgba(86.9047%,79.5483%,11.0399%,1)"/>
  <circle cx="13" cy="7" r="1" fill="srgba(86.9047%,79.5483%,11.0399%,1)"/>
  <circle cx="14" cy="7" r="1" fill="srgba(86.9047%,79.5483%,11.0399%,1)"/>
  <circle cx="15" cy="7" r="1" fill="srgba(86.9047%,79.5483%,11.0399%,1)"/>
  <circle cx="0" cy="8" r="1" fill="srgba(80.7996%,6.66819%,14.905%,1)"/>
  <circle cx="1" cy="8" r="1" fill="srgba(81.5488%,6.72923%,15.0423%,1)"/>
  <circle cx="2" cy="8" r="1" fill="srgba(60.0168%,4.95155%,11.0704%,1)"/>
  <circle cx="3" cy="8" r="1" fill="srgba(6.10208%,0.503548%,1.12612%,1)"/>
  <circle cx="4" cy="8" r="1" fill="srgba(6.10513%,0.503548%,1.12612%,1)"/>
  <circle cx="5" cy="8" r="1" fill="srgba(60.0244%,4.95308%,11.0719%,1)"/>
  <circle cx="6" cy="8" r="1" fill="srgba(82.092%,6.27909%,14.9554%,1)"/>
  <circle cx="7" cy="8" r="1" fill="srgba(72.491%,13.6278%,16.2692%,1)"/>
  <circle cx="8" cy="8" r="1" fill="srgba(20.2243%,57.4136%,24.8508%,1)"/>
  <circle cx="9" cy="8" r="1" fill="srgba(11.3802%,64.8234%,26.3035%,1)"/>
  <circle cx="10" cy="8" r="1" fill="srgba(11.9188%,64.3732%,26.215%,1)"/>
  <circle cx="11" cy="8" r="1" fill="srgba(11.9188%,64.3732%,26.215%,1)"/>
  <circle cx="12" cy="8" r="1" fill="srgba(11.9188%,64.3732%,26.215%,1)"/>
  <circle cx="13" cy="8" r="1" fill="srgba(11.9188%,64.3732%,26.215%,1)"/>
  <circle cx="14" cy="8" r="1" fill="srgba(11.9188%,64.3732%,26.215%,1)"/>
  <circle cx="15" cy="8" r="1" fill="srgba(11.9188%,64.3732%,26.215%,1)"/>
  <circle cx="0" cy="9" r="1" fill="srgba(206,17,38,1)"/>
  <circle cx="1" cy="9" r="1" fill="srgba(81.6495%,6.73838%,15.0622%,1)"/>
  <circle cx="2" cy="9" r="1" fill="srgba(59.4171%,4.90425%,10.9606%,1)"/>
  <circle cx="3" cy="9" r="1" fill="srgba(47.8401%,3.94751%,8.82429%,1)"/>
  <circle cx="4" cy="9" r="1" fill="srgba(47.8386%,3.94751%,8.82429%,1)"/>
  <circle cx="5" cy="9" r="1" fill="srgba(59.4217%,4.90425%,10.9606%,1)"/>
  <circle cx="6" cy="9" r="1" fill="srgba(82.2873%,6.30808%,14.9538%,1)"/>
  <circle cx="7" cy="9" r="1" fill="srgba(71.0399%,13.3165%,16.5759%,1)"/>
  <circle cx="8" cy="9" r="1" fill="srgba(9.74441%,55.1553%,27.1092%,1)"/>
  <circle cx="9" cy="9" r="1" fill="srgba(0%,62.2354%,28.8914%,1)"/>
  <circle cx="10" cy="9" r="1" fill="srgba(0%,61.8051%,28.7831%,1)"/>
  <circle cx="11" cy="9" r="1" fill="srgba(0%,61.8051%,28.7831%,1)"/>
  <circle cx="12" cy="9" r="1" fill="srgba(0%,61.8051%,28.7831%,1)"/>
  <circle cx="13" cy="9" r="1" fill="srgba(0%,61.8051%,28.7831%,1)"/>
  <circle cx="14" cy="9" r="1" fill="srgba(0%,61.8051%,28.7831%,1)"/>
  <circle cx="15" cy="9" r="1" fill="srgba(0%,61.8051%,28.7831%,1)"/>
  <circle cx="0" cy="10" r="1" fill="srgba(206,17,38,1)"/>
  <circle cx="1" cy="10" r="1" fill="srgba(80.7782%,6.66667%,14.9004%,1)"/>
  <circle cx="2" cy="10" r="1" fill="srgba(77.6501%,6.40879%,14.3236%,1)"/>
  <circle cx="3" cy="10" r="1" fill="srgba(80.8774%,6.6743%,14.9187%,1)"/>
  <circle cx="4" cy="10" r="1" fill="srgba(80.8759%,6.6743%,14.9187%,1)"/>
  <circle cx="5" cy="10" r="1" fill="srgba(77.6486%,6.40726%,14.3236%,1)"/>
  <circle cx="6" cy="10" r="1" fill="srgba(81.4099%,6.23484%,14.7936%,1)"/>
  <circle cx="7" cy="10" r="1" fill="srgba(71.0414%,13.3364%,16.5576%,1)"/>
  <circle cx="8" cy="10" r="1" fill="srgba(9.74441%,55.2911%,26.9718%,1)"/>
  <circle cx="9" cy="10" r="1" fill="srgba(0%,62.3926%,28.7343%,1)"/>
  <circle cx="10" cy="10" r="1" fill="srgba(0,158,73,1)"/>
  <circle cx="11" cy="10" r="1" fill="srgba(0,158,73,1)"/>
  <circle cx="12" cy="10" r="1" fill="srgba(0,158,73,1)"/>
  <circle cx="13" cy="10" r="1" fill="srgba(0,158,73,1)"/>
  <circle cx="14" cy="10" r="1" fill="srgba(0,158,73,1)"/>
  <circle cx="15" cy="10" r="1" fill="srgba(0,158,73,1)"/>
  <circle cx="0" cy="11" r="1" fill="srgba(206,17,38,1)"/>
  <circle cx="1" cy="11" r="1" fill="srgba(206,17,38,1)"/>
  <circle cx="2" cy="11" r="1" fill="srgba(80.9735%,6.68193%,14.9371%,1)"/>
  <circle cx="3" cy="11" r="1" fill="srgba(80.8316%,6.67124%,14.9111%,1)"/>
  <circle cx="4" cy="11" r="1" fill="srgba(80.8316%,6.67124%,14.9111%,1)"/>
  <circle cx="5" cy="11" r="1" fill="srgba(80.9735%,6.68193%,14.9371%,1)"/>
  <circle cx="6" cy="11" r="1" fill="srgba(81.416%,6.23484%,14.7951%,1)"/>
  <circle cx="7" cy="11" r="1" fill="srgba(71.0399%,13.3364%,16.5576%,1)"/>
  <circle cx="8" cy="11" r="1" fill="srgba(9.74441%,55.2911%,26.9718%,1)"/>
  <circle cx="9" cy="11" r="1" fill="srgba(0%,62.3926%,28.7343%,1)"/>
  <circle cx="10" cy="11" r="1" fill="srgba(0,158,73,1)"/>
  <circle cx="11" cy="11" r="1" fill="srgba(0,158,73,1)"/>
  <circle cx="12" cy="11" r="1" fill="srgba(0,158,73,1)"/>
  <circle cx="13" cy="11" r="1" fill="srgba(0,158,73,1)"/>
  <circle cx="14" cy="11" r="1" fill="srgba(0,158,73,1)"/>
  <circle cx="15" cy="11" r="1" fill="srgba(0,158,73,1)"/>
  <circle cx="0" cy="12" r="1" fill="srgba(206,17,38,1)"/>
  <circle cx="1" cy="12" r="1" fill="srgba(206,17,38,1)"/>
  <circle cx="2" cy="12" r="1" fill="srgba(206,17,38,1)"/>
  <circle cx="3" cy="12" r="1" fill="srgba(206,17,38,1)"/>
  <circle cx="4" cy="12" r="1" fill="srgba(206,17,38,1)"/>
  <circle cx="5" cy="12" r="1" fill="srgba(206,17,38,1)"/>
  <circle cx="6" cy="12" r="1" fill="srgba(81.416%,6.23484%,14.7951%,1)"/>
  <circle cx="7" cy="12" r="1" fill="srgba(71.0399%,13.3364%,16.5576%,1)"/>
  <circle cx="8" cy="12" r="1" fill="srgba(9.74441%,55.2911%,26.9718%,1)"/>
  <circle cx="9" cy="12" r="1" fill="srgba(0%,62.3926%,28.7343%,1)"/>
  <circle cx="10" cy="12" r="1" fill="srgba(0,158,73,1)"/>
  <circle cx="11" cy="12" r="1" fill="srgba(0,158,73,1)"/>
  <circle cx="12" cy="12" r="1" fill="srgba(0,158,73,1)"/>
  <circle cx="13" cy="12" r="1" fill="srgba(0,158,73,1)"/>
  <circle cx="14" cy="12" r="1" fill="srgba(0,158,73,1)"/>
  <circle cx="15" cy="12" r="1" fill="srgba(0,158,73,1)"/>
  <circle cx="0" cy="13" r="1" fill="srgba(206,17,38,1)"/>
  <circle cx="1" cy="13" r="1" fill="srgba(206,17,38,1)"/>
  <circle cx="2" cy="13" r="1" fill="srgba(206,17,38,1)"/>
  <circle cx="3" cy="13" r="1" fill="srgba(206,17,38,1)"/>
  <circle cx="4" cy="13" r="1" fill="srgba(206,17,38,1)"/>
  <circle cx="5" cy="13" r="1" fill="srgba(206,17,38,1)"/>
  <circle cx="6" cy="13" r="1" fill="srgba(81.416%,6.23484%,14.7951%,1)"/>
  <circle cx="7" cy="13" r="1" fill="srgba(71.0399%,13.3364%,16.5576%,1)"/>
  <circle cx="8" cy="13" r="1" fill="srgba(9.74441%,55.2911%,26.9718%,1)"/>
  <circle cx="9" cy="13" r="1" fill="srgba(0%,62.3926%,28.7343%,1)"/>
  <circle cx="10" cy="13" r="1" fill="srgba(0,158,73,1)"/>
  <circle cx="11" cy="13" r="1" fill="srgba(0,158,73,1)"/>
  <circle cx="12" cy="13" r="1" fill="srgba(0,158,73,1)"/>
  <circle cx="13" cy="13" r="1" fill="srgba(0,158,73,1)"/>
  <circle cx="14" cy="13" r="1" fill="srgba(0,158,73,1)"/>
  <circle cx="15" cy="13" r="1" fill="srgba(0,158,73,1)"/>
  <circle cx="0" cy="14" r="1" fill="srgba(206,17,38,1)"/>
  <circle cx="1" cy="14" r="1" fill="srgba(206,17,38,1)"/>
  <circle cx="2" cy="14" r="1" fill="srgba(206,17,38,1)"/>
  <circle cx="3" cy="14" r="1" fill="srgba(206,17,38,1)"/>
  <circle cx="4" cy="14" r="1" fill="srgba(206,17,38,1)"/>
  <circle cx="5" cy="14" r="1" fill="srgba(206,17,38,1)"/>
  <circle cx="6" cy="14" r="1" fill="srgba(81.416%,6.23484%,14.7951%,1)"/>
  <circle cx="7" cy="14" r="1" fill="srgba(71.0399%,13.3364%,16.5576%,1)"/>
  <circle cx="8" cy="14" r="1" fill="srgba(9.74441%,55.2911%,26.9718%,1)"/>
  <circle cx="9" cy="14" r="1" fill="srgba(0%,62.3926%,28.7343%,1)"/>
  <circle cx="10" cy="14" r="1" fill="srgba(0,158,73,1)"/>
  <circle cx="11" cy="14" r="1" fill="srgba(0,158,73,1)"/>
  <circle cx="12" cy="14" r="1" fill="srgba(0,158,73,1)"/>
  <circle cx="13" cy="14" r="1" fill="srgba(0,158,73,1)"/>
  <circle cx="14" cy="14" r="1" fill="srgba(0,158,73,1)"/>
  <circle cx="15" cy="14" r="1" fill="srgba(0,158,73,1)"/>
  <circle cx="0" cy="15" r="1" fill="srgba(206,17,38,1)"/>
  <circle cx="1" cy="15" r="1" fill="srgba(206,17,38,1)"/>
  <circle cx="2" cy="15" r="1" fill="srgba(206,17,38,1)"/>
  <circle cx="3" cy="15" r="1" fill="srgba(206,17,38,1)"/>
  <circle cx="4" cy="15" r="1" fill="srgba(206,17,38,1)"/>
  <circle cx="5" cy="15" r="1" fill="srgba(206,17,38,1)"/>
  <circle cx="6" cy="15" r="1" fill="srgba(81.416%,6.23484%,14.7951%,1)"/>
  <circle cx="7" cy="15" r="1" fill="srgba(71.0399%,13.3364%,16.5576%,1)"/>
  <circle cx="8" cy="15" r="1" fill="srgba(9.74441%,55.2911%,26.9718%,1)"/>
  <circle cx="9" cy="15" r="1" fill="srgba(0%,62.3926%,28.7343%,1)"/>
  <circle cx="10" cy="15" r="1" fill="srgba(0,158,73,1)"/>
  <circle cx="11" cy="15" r="1" fill="srgba(0,158,73,1)"/>
  <circle cx="12" cy="15" r="1" fill="srgba(0,158,73,1)"/>
  <circle cx="13" cy="15" r="1" fill="srgba(0,158,73,1)"/>
  <circle cx="14" cy="15" r="1" fill="srgba(0,158,73,1)"/>
  <circle cx="15" cy="15" r="1" fill="srgba(0,158,73,1)"/>
</svg>
