<?xml version="1.0" standalone="no"?>
<!DOCTYPE svg PUBLIC "-//W3C//DTD SVG 20010904//EN"
  "http://www.w3.org/TR/2001/REC-SVG-20010904/DTD/svg10.dtd">
<svg width="16" height="16">
  <circle cx="0" cy="0" r="1" fill="srgba(51.8196%,72.0638%,27.0253%,1)"/>
  <circle cx="1" cy="0" r="1" fill="srgba(23.1647%,58.5885%,3.09148%,1)"/>
  <circle cx="2" cy="0" r="1" fill="srgba(21.4176%,57.6761%,3.1281%,1)"/>
  <circle cx="3" cy="0" r="1" fill="srgba(22.3087%,58.0224%,3.13725%,1)"/>
  <circle cx="4" cy="0" r="1" fill="srgba(22.356%,58.0407%,3.13725%,1)"/>
  <circle cx="5" cy="0" r="1" fill="srgba(57,148,8,1)"/>
  <circle cx="6" cy="0" r="1" fill="srgba(57,148,8,1)"/>
  <circle cx="7" cy="0" r="1" fill="srgba(57,148,8,1)"/>
  <circle cx="8" cy="0" r="1" fill="srgba(57,148,8,1)"/>
  <circle cx="9" cy="0" r="1" fill="srgba(57,148,8,1)"/>
  <circle cx="10" cy="0" r="1" fill="srgba(57,148,8,1)"/>
  <circle cx="11" cy="0" r="1" fill="srgba(57,148,8,1)"/>
  <circle cx="12" cy="0" r="1" fill="srgba(57,148,8,1)"/>
  <circle cx="13" cy="0" r="1" fill="srgba(57,148,8,1)"/>
  <circle cx="14" cy="0" r="1" fill="srgba(57,148,8,1)"/>
  <circle cx="15" cy="0" r="1" fill="srgba(57,148,8,1)"/>
  <circle cx="0" cy="1" r="1" fill="srgba(81.7105%,51.0964%,16.817%,1)"/>
  <circle cx="1" cy="1" r="1" fill="srgba(65.1026%,71.6426%,4.25269%,1)"/>
  <circle cx="2" cy="1" r="1" fill="srgba(35.1019%,63.1357%,3.09453%,1)"/>
  <circle cx="3" cy="1" r="1" fill="srgba(22.1134%,57.94%,3.13725%,1)"/>
  <circle cx="4" cy="1" r="1" fill="srgba(21.6403%,57.7722%,3.13725%,1)"/>
  <circle cx="5" cy="1" r="1" fill="srgba(22.3316%,58.0316%,3.13725%,1)"/>
  <circle cx="6" cy="1" r="1" fill="srgba(22.3545%,58.0392%,3.13725%,1)"/>
  <circle cx="7" cy="1" r="1" fill="srgba(57,148,8,1)"/>
  <circle cx="8" cy="1" r="1" fill="srgba(57,148,8,1)"/>
  <circle cx="9" cy="1" r="1" fill="srgba(57,148,8,1)"/>
  <circle cx="10" cy="1" r="1" fill="srgba(57,148,8,1)"/>
  <circle cx="11" cy="1" r="1" fill="srgba(57,148,8,1)"/>
  <circle cx="12" cy="1" r="1" fill="srgba(57,148,8,1)"/>
  <circle cx="13" cy="1" r="1" fill="srgba(57,148,8,1)"/>
  <circle cx="14" cy="1" r="1" fill="srgba(57,148,8,1)"/>
  <circle cx="15" cy="1" r="1" fill="srgba(57,148,8,1)"/>
  <circle cx="0" cy="2" r="1" fill="srgba(88.1361%,15.0988%,6.44388%,1)"/>
  <circle cx="1" cy="2" r="1" fill="srgba(94.1756%,49.4865%,4.71351%,1)"/>
  <circle cx="2" cy="2" r="1" fill="srgba(90.7088%,82.1851%,3.19982%,1)"/>
  <circle cx="3" cy="2" r="1" fill="srgba(62.8641%,73.4463%,3.12505%,1)"/>
  <circle cx="4" cy="2" r="1" fill="srgba(33.3684%,62.15%,3.13725%,1)"/>
  <circle cx="5" cy="2" r="1" fill="srgba(21.7975%,57.8317%,3.13725%,1)"/>
  <circle cx="6" cy="2" r="1" fill="srgba(21.7365%,57.8088%,3.13725%,1)"/>
  <circle cx="7" cy="2" r="1" fill="srgba(22.3453%,58.0362%,3.13725%,1)"/>
  <circle cx="8" cy="2" r="1" fill="srgba(22.3545%,58.0392%,3.13725%,1)"/>
  <circle cx="9" cy="2" r="1" fill="srgba(57,148,8,1)"/>
  <circle cx="10" cy="2" r="1" fill="srgba(57,148,8,1)"/>
  <circle cx="11" cy="2" r="1" fill="srgba(57,148,8,1)"/>
  <circle cx="12" cy="2" r="1" fill="srgba(57,148,8,1)"/>
  <circle cx="13" cy="2" r="1" fill="srgba(57,148,8,1)"/>
  <circle cx="14" cy="2" r="1" fill="srgba(57,148,8,1)"/>
  <circle cx="15" cy="2" r="1" fill="srgba(57,148,8,1)"/>
  <circle cx="0" cy="3" r="1" fill="srgba(87.0497%,12.9335%,6.71397%,1)"/>
  <circle cx="1" cy="3" r="1" fill="srgba(87.4113%,14.873%,6.1677%,1)"/>
  <circle cx="2" cy="3" r="1" fill="srgba(94.5129%,53.2052%,4.57923%,1)"/>
  <circle cx="3" cy="3" r="1" fill="srgba(99.7833%,86.6896%,3.1632%,1)"/>
  <circle cx="4" cy="3" r="1" fill="srgba(89.3233%,83.2578%,3.12963%,1)"/>
  <circle cx="5" cy="3" r="1" fill="srgba(59.9176%,72.0745%,3.13725%,1)"/>
  <circle cx="6" cy="3" r="1" fill="srgba(31.4839%,61.4511%,3.13725%,1)"/>
  <circle cx="7" cy="3" r="1" fill="srgba(21.5396%,57.7356%,3.13725%,1)"/>
  <circle cx="8" cy="3" r="1" fill="srgba(21.8448%,57.8485%,3.13725%,1)"/>
  <circle cx="9" cy="3" r="1" fill="srgba(22.3545%,58.0392%,3.13725%,1)"/>
  <circle cx="10" cy="3" r="1" fill="srgba(57,148,8,1)"/>
  <circle cx="11" cy="3" r="1" fill="srgba(57,148,8,1)"/>
  <circle cx="12" cy="3" r="1" fill="srgba(57,148,8,1)"/>
  <circle cx="13" cy="3" r="1" fill="srgba(57,148,8,1)"/>
  <circle cx="14" cy="3" r="1" fill="srgba(57,148,8,1)"/>
  <circle cx="15" cy="3" r="1" fill="srgba(57,148,8,1)"/>
  <circle cx="0" cy="4" r="1" fill="srgba(87.1229%,13.3455%,6.69718%,1)"/>
  <circle cx="1" cy="4" r="1" fill="srgba(86.978%,12.4788%,6.26993%,1)"/>
  <circle cx="2" cy="4" r="1" fill="srgba(87.6387%,16.2646%,6.13413%,1)"/>
  <circle cx="3" cy="4" r="1" fill="srgba(94.8821%,57.7523%,4.37629%,1)"/>
  <circle cx="4" cy="4" r="1" fill="srgba(99.9985%,87.509%,3.12963%,1)"/>
  <circle cx="5" cy="4" r="1" fill="srgba(99.5575%,87.2663%,3.13268%,1)"/>
  <circle cx="6" cy="4" r="1" fill="srgba(87.2724%,82.2995%,3.13725%,1)"/>
  <circle cx="7" cy="4" r="1" fill="srgba(56.7224%,70.8858%,3.13725%,1)"/>
  <circle cx="8" cy="4" r="1" fill="srgba(29.6422%,60.763%,3.13725%,1)"/>
  <circle cx="9" cy="4" r="1" fill="srgba(21.355%,57.6654%,3.13268%,1)"/>
  <circle cx="10" cy="4" r="1" fill="srgba(21.8997%,57.8607%,3.07164%,1)"/>
  <circle cx="11" cy="4" r="1" fill="srgba(22.3468%,58.0346%,3.12047%,1)"/>
  <circle cx="12" cy="4" r="1" fill="srgba(22.3545%,58.0392%,3.13878%,1)"/>
  <circle cx="13" cy="4" r="1" fill="srgba(57,148,8,1)"/>
  <circle cx="14" cy="4" r="1" fill="srgba(57,148,8,1)"/>
  <circle cx="15" cy="4" r="1" fill="srgba(57,148,8,1)"/>
  <circle cx="0" cy="5" r="1" fill="srgba(87.1199%,13.3333%,6.69718%,1)"/>
  <circle cx="1" cy="5" r="1" fill="srgba(87.0573%,12.932%,6.2501%,1)"/>
  <circle cx="2" cy="5" r="1" fill="srgba(86.9566%,12.3552%,6.29892%,1)"/>
  <circle cx="3" cy="5" r="1" fill="srgba(88.0125%,18.3978%,6.04257%,1)"/>
  <circle cx="4" cy="5" r="1" fill="srgba(95.7763%,62.9816%,4.15503%,1)"/>
  <circle cx="5" cy="5" r="1" fill="srgba(100%,87.7546%,3.10826%,1)"/>
  <circle cx="6" cy="5" r="1" fill="srgba(100%,87.4022%,3.13573%,1)"/>
  <circle cx="7" cy="5" r="1" fill="srgba(99.173%,86.9871%,3.13725%,1)"/>
  <circle cx="8" cy="5" r="1" fill="srgba(84.8508%,81.3901%,3.1342%,1)"/>
  <circle cx="9" cy="5" r="1" fill="srgba(53.3577%,69.6345%,3.19524%,1)"/>
  <circle cx="10" cy="5" r="1" fill="srgba(28.8334%,60.621%,4.32898%,1)"/>
  <circle cx="11" cy="5" r="1" fill="srgba(21.5518%,57.789%,3.50347%,1)"/>
  <circle cx="12" cy="5" r="1" fill="srgba(21.4832%,57.6181%,2.41855%,1)"/>
  <circle cx="13" cy="5" r="1" fill="srgba(22.2324%,57.9721%,2.97551%,1)"/>
  <circle cx="14" cy="5" r="1" fill="srgba(22.3575%,58.0423%,3.14336%,1)"/>
  <circle cx="15" cy="5" r="1" fill="srgba(57,148,8,1)"/>
  <circle cx="0" cy="6" r="1" fill="srgba(87.1199%,13.3333%,6.69718%,1)"/>
  <circle cx="1" cy="6" r="1" fill="srgba(87.0558%,12.9198%,6.25162%,1)"/>
  <circle cx="2" cy="6" r="1" fill="srgba(87.0619%,12.9564%,6.27451%,1)"/>
  <circle cx="3" cy="6" r="1" fill="srgba(86.9276%,12.192%,6.30655%,1)"/>
  <circle cx="4" cy="6" r="1" fill="srgba(88.5283%,21.3474%,5.91745%,1)"/>
  <circle cx="5" cy="6" r="1" fill="srgba(96.6934%,68.2963%,3.93072%,1)"/>
  <circle cx="6" cy="6" r="1" fill="srgba(100%,87.892%,3.10216%,1)"/>
  <circle cx="7" cy="6" r="1" fill="srgba(100%,87.0817%,3.13725%,1)"/>
  <circle cx="8" cy="6" r="1" fill="srgba(100%,87.3991%,3.1342%,1)"/>
  <circle cx="9" cy="6" r="1" fill="srgba(98.5824%,86.7216%,3.08537%,1)"/>
  <circle cx="10" cy="6" r="1" fill="srgba(85.0202%,81.9623%,6.94591%,1)"/>
  <circle cx="11" cy="6" r="1" fill="srgba(60.2991%,74.0124%,16.5347%,1)"/>
  <circle cx="12" cy="6" r="1" fill="srgba(36.5454%,65.0767%,16.1059%,1)"/>
  <circle cx="13" cy="6" r="1" fill="srgba(23.8407%,58.9914%,6.10361%,1)"/>
  <circle cx="14" cy="6" r="1" fill="srgba(21.1688%,57.4029%,1.69223%,1)"/>
  <circle cx="15" cy="6" r="1" fill="srgba(22.005%,57.85%,2.70085%,1)"/>
  <circle cx="0" cy="7" r="1" fill="srgba(87.1199%,13.3333%,6.69718%,1)"/>
  <circle cx="1" cy="7" r="1" fill="srgba(87.0558%,12.9198%,6.25162%,1)"/>
  <circle cx="2" cy="7" r="1" fill="srgba(222,33,16,1)"/>
  <circle cx="3" cy="7" r="1" fill="srgba(87.0619%,12.9549%,6.27451%,1)"/>
  <circle cx="4" cy="7" r="1" fill="srgba(86.9062%,12.0623%,6.31113%,1)"/>
  <circle cx="5" cy="7" r="1" fill="srgba(89.1615%,24.9821%,5.76486%,1)"/>
  <circle cx="6" cy="7" r="1" fill="srgba(97.7111%,73.9498%,3.69116%,1)"/>
  <circle cx="7" cy="7" r="1" fill="srgba(100%,87.7073%,3.10979%,1)"/>
  <circle cx="8" cy="7" r="1" fill="srgba(100%,87.0573%,3.13725%,1)"/>
  <circle cx="9" cy="7" r="1" fill="srgba(100%,87.0939%,3.12963%,1)"/>
  <circle cx="10" cy="7" r="1" fill="srgba(100%,87.3777%,3.00145%,1)"/>
  <circle cx="11" cy="7" r="1" fill="srgba(99.826%,87.6616%,5.91287%,1)"/>
  <circle cx="12" cy="7" r="1" fill="srgba(93.1868%,86.833%,20.4807%,1)"/>
  <circle cx="13" cy="7" r="1" fill="srgba(74.7692%,83.1098%,44.1566%,1)"/>
  <circle cx="14" cy="7" r="1" fill="srgba(49.7322%,72.8389%,37.3144%,1)"/>
  <circle cx="15" cy="7" r="1" fill="srgba(27.6112%,60.885%,9.7322%,1)"/>
  <circle cx="0" cy="8" r="1" fill="srgba(87.1199%,13.3333%,6.69718%,1)"/>
  <circle cx="1" cy="8" r="1" fill="srgba(87.0558%,12.9198%,6.25162%,1)"/>
  <circle cx="2" cy="8" r="1" fill="srgba(222,33,16,1)"/>
  <circle cx="3" cy="8" r="1" fill="srgba(87.0619%,12.9564%,6.27451%,1)"/>
  <circle cx="4" cy="8" r="1" fill="srgba(86.9184%,12.1355%,6.30808%,1)"/>
  <circle cx="5" cy="8" r="1" fill="srgba(88.6336%,21.9577%,5.89303%,1)"/>
  <circle cx="6" cy="8" r="1" fill="srgba(97.2412%,71.2627%,3.80713%,1)"/>
  <circle cx="7" cy="8" r="1" fill="srgba(100%,87.8126%,3.10521%,1)"/>
  <circle cx="8" cy="8" r="1" fill="srgba(100%,87.0603%,3.14488%,1)"/>
  <circle cx="9" cy="8" r="1" fill="srgba(100%,87.039%,2.99077%,1)"/>
  <circle cx="10" cy="8" r="1" fill="srgba(100%,86.8849%,1.84634%,1)"/>
  <circle cx="11" cy="8" r="1" fill="srgba(100%,87.6844%,6.37064%,1)"/>
  <circle cx="12" cy="8" r="1" fill="srgba(100%,91.4504%,32.2805%,1)"/>
  <circle cx="13" cy="8" r="1" fill="srgba(92.8679%,93.0694%,67.6692%,1)"/>
  <circle cx="14" cy="8" r="1" fill="srgba(62.9892%,79.9954%,53.8262%,1)"/>
  <circle cx="15" cy="8" r="1" fill="srgba(29.6193%,61.9699%,12.2362%,1)"/>
  <circle cx="0" cy="9" r="1" fill="srgba(87.1199%,13.3333%,6.69718%,1)"/>
  <circle cx="1" cy="9" r="1" fill="srgba(87.0558%,12.9198%,6.25162%,1)"/>
  <circle cx="2" cy="9" r="1" fill="srgba(87.0619%,12.9564%,6.27451%,1)"/>
  <circle cx="3" cy="9" r="1" fill="srgba(86.9337%,12.2255%,6.30503%,1)"/>
  <circle cx="4" cy="9" r="1" fill="srgba(88.3284%,20.206%,5.9678%,1)"/>
  <circle cx="5" cy="9" r="1" fill="srgba(96.2005%,65.4093%,4.05432%,1)"/>
  <circle cx="6" cy="9" r="1" fill="srgba(100%,87.6204%,3.11894%,1)"/>
  <circle cx="7" cy="9" r="1" fill="srgba(100%,87.0649%,3.05791%,1)"/>
  <circle cx="8" cy="9" r="1" fill="srgba(100%,86.9032%,1.98672%,1)"/>
  <circle cx="9" cy="9" r="1" fill="srgba(100%,87.4739%,4.97749%,1)"/>
  <circle cx="10" cy="9" r="1" fill="srgba(100%,90.7469%,28.0293%,1)"/>
  <circle cx="11" cy="9" r="1" fill="srgba(92.6268%,91.7449%,58.6328%,1)"/>
  <circle cx="12" cy="9" r="1" fill="srgba(66.3569%,81.2787%,53.994%,1)"/>
  <circle cx="13" cy="9" r="1" fill="srgba(36.0906%,65.6138%,21.4023%,1)"/>
  <circle cx="14" cy="9" r="1" fill="srgba(22.4628%,58.1018%,3.30205%,1)"/>
  <circle cx="15" cy="9" r="1" fill="srgba(21.8967%,57.792%,2.56657%,1)"/>
  <circle cx="0" cy="10" r="1" fill="srgba(87.1199%,13.3333%,6.69718%,1)"/>
  <circle cx="1" cy="10" r="1" fill="srgba(87.0573%,12.9335%,6.2501%,1)"/>
  <circle cx="2" cy="10" r="1" fill="srgba(86.952%,12.3278%,6.30045%,1)"/>
  <circle cx="3" cy="10" r="1" fill="srgba(88.0308%,18.5016%,6.03952%,1)"/>
  <circle cx="4" cy="10" r="1" fill="srgba(95.6542%,62.2629%,4.19013%,1)"/>
  <circle cx="5" cy="10" r="1" fill="srgba(100%,87.6112%,3.0808%,1)"/>
  <circle cx="6" cy="10" r="1" fill="srgba(100%,86.9978%,2.16831%,1)"/>
  <circle cx="7" cy="10" r="1" fill="srgba(100%,87.2984%,3.80407%,1)"/>
  <circle cx="8" cy="10" r="1" fill="srgba(100%,90.161%,23.4623%,1)"/>
  <circle cx="9" cy="10" r="1" fill="srgba(93.4371%,91.4504%,54.0856%,1)"/>
  <circle cx="10" cy="10" r="1" fill="srgba(67.9866%,81.8509%,53.7255%,1)"/>
  <circle cx="11" cy="10" r="1" fill="srgba(37.3022%,66.302%,23.1662%,1)"/>
  <circle cx="12" cy="10" r="1" fill="srgba(22.6123%,58.2223%,3.78271%,1)"/>
  <circle cx="13" cy="10" r="1" fill="srgba(21.5015%,57.5769%,2.06455%,1)"/>
  <circle cx="14" cy="10" r="1" fill="srgba(22.3011%,58.0117%,3.07317%,1)"/>
  <circle cx="15" cy="10" r="1" fill="srgba(22.3575%,58.0407%,3.14183%,1)"/>
  <circle cx="0" cy="11" r="1" fill="srgba(87.1229%,13.3486%,6.69718%,1)"/>
  <circle cx="1" cy="11" r="1" fill="srgba(86.9673%,12.4117%,6.27298%,1)"/>
  <circle cx="2" cy="11" r="1" fill="srgba(87.7745%,17.0336%,6.10361%,1)"/>
  <circle cx="3" cy="11" r="1" fill="srgba(95.0851%,58.97%,4.31983%,1)"/>
  <circle cx="4" cy="11" r="1" fill="srgba(99.9466%,87.1855%,2.35752%,1)"/>
  <circle cx="5" cy="11" r="1" fill="srgba(100%,87.2847%,2.97704%,1)"/>
  <circle cx="6" cy="11" r="1" fill="srgba(100%,89.6269%,19.3469%,1)"/>
  <circle cx="7" cy="11" r="1" fill="srgba(94.1939%,91.1009%,49.2851%,1)"/>
  <circle cx="8" cy="11" r="1" fill="srgba(69.601%,82.3468%,52.9305%,1)"/>
  <circle cx="9" cy="11" r="1" fill="srgba(38.5565%,66.9627%,24.6052%,1)"/>
  <circle cx="10" cy="11" r="1" fill="srgba(22.9114%,58.4039%,4.30152%,1)"/>
  <circle cx="11" cy="11" r="1" fill="srgba(21.4496%,57.5494%,1.99893%,1)"/>
  <circle cx="12" cy="11" r="1" fill="srgba(22.2858%,58.0026%,3.05333%,1)"/>
  <circle cx="13" cy="11" r="1" fill="srgba(22.3575%,58.0423%,3.14183%,1)"/>
  <circle cx="14" cy="11" r="1" fill="srgba(57,148,8,1)"/>
  <circle cx="15" cy="11" r="1" fill="srgba(57,148,8,1)"/>
  <circle cx="0" cy="12" r="1" fill="srgba(87.0375%,12.8634%,6.71855%,1)"/>
  <circle cx="1" cy="12" r="1" fill="srgba(87.5502%,15.7504%,6.13718%,1)"/>
  <circle cx="2" cy="12" r="1" fill="srgba(94.4976%,55.4986%,3.88495%,1)"/>
  <circle cx="3" cy="12" r="1" fill="srgba(99.8703%,86.8605%,2.46281%,1)"/>
  <circle cx="4" cy="12" r="1" fill="srgba(100%,89.3187%,15.7092%,1)"/>
  <circle cx="5" cy="12" r="1" fill="srgba(94.8943%,90.7088%,44.3244%,1)"/>
  <circle cx="6" cy="12" r="1" fill="srgba(71.1971%,82.7634%,51.5862%,1)"/>
  <circle cx="7" cy="12" r="1" fill="srgba(39.8566%,67.6234%,25.9068%,1)"/>
  <circle cx="8" cy="12" r="1" fill="srgba(23.2486%,58.6084%,4.89509%,1)"/>
  <circle cx="9" cy="12" r="1" fill="srgba(21.3993%,57.5235%,1.944%,1)"/>
  <circle cx="10" cy="12" r="1" fill="srgba(22.269%,57.9934%,3.03044%,1)"/>
  <circle cx="11" cy="12" r="1" fill="srgba(22.3575%,58.0423%,3.14336%,1)"/>
  <circle cx="12" cy="12" r="1" fill="srgba(57,148,8,1)"/>
  <circle cx="13" cy="12" r="1" fill="srgba(57,148,8,1)"/>
  <circle cx="14" cy="12" r="1" fill="srgba(57,148,8,1)"/>
  <circle cx="15" cy="12" r="1" fill="srgba(57,148,8,1)"/>
  <circle cx="0" cy="13" r="1" fill="srgba(87.483%,15.3643%,6.10666%,1)"/>
  <circle cx="1" cy="13" r="1" fill="srgba(94.0444%,51.7723%,3.63775%,1)"/>
  <circle cx="2" cy="13" r="1" fill="srgba(100%,87.9072%,12.6314%,1)"/>
  <circle cx="3" cy="13" r="1" fill="srgba(95.555%,90.5303%,39.3179%,1)"/>
  <circle cx="4" cy="13" r="1" fill="srgba(72.7703%,83.0915%,49.691%,1)"/>
  <circle cx="5" cy="13" r="1" fill="srgba(41.1994%,68.2719%,27.0085%,1)"/>
  <circle cx="6" cy="13" r="1" fill="srgba(23.624%,58.8373%,5.55581%,1)"/>
  <circle cx="7" cy="13" r="1" fill="srgba(21.3535%,57.5006%,1.90433%,1)"/>
  <circle cx="8" cy="13" r="1" fill="srgba(22.2477%,57.9828%,3.0045%,1)"/>
  <circle cx="9" cy="13" r="1" fill="srgba(22.359%,58.0423%,3.14488%,1)"/>
  <circle cx="10" cy="13" r="1" fill="srgba(57,148,8,1)"/>
  <circle cx="11" cy="13" r="1" fill="srgba(57,148,8,1)"/>
  <circle cx="12" cy="13" r="1" fill="srgba(57,148,8,1)"/>
  <circle cx="13" cy="13" r="1" fill="srgba(57,148,8,1)"/>
  <circle cx="14" cy="13" r="1" fill="srgba(57,148,8,1)"/>
  <circle cx="15" cy="13" r="1" fill="srgba(57,148,8,1)"/>
  <circle cx="0" cy="14" r="1" fill="srgba(94.7967%,55.1431%,13.225%,1)"/>
  <circle cx="1" cy="14" r="1" fill="srgba(95.4513%,87.4403%,33.9483%,1)"/>
  <circle cx="2" cy="14" r="1" fill="srgba(73.9544%,83.4592%,46.9139%,1)"/>
  <circle cx="3" cy="14" r="1" fill="srgba(42.4262%,68.8106%,27.66%,1)"/>
  <circle cx="4" cy="14" r="1" fill="srgba(24.0284%,59.0814%,6.24704%,1)"/>
  <circle cx="5" cy="14" r="1" fill="srgba(21.3199%,57.4868%,1.89517%,1)"/>
  <circle cx="6" cy="14" r="1" fill="srgba(22.2263%,57.9706%,2.97551%,1)"/>
  <circle cx="7" cy="14" r="1" fill="srgba(22.359%,58.0423%,3.14488%,1)"/>
  <circle cx="8" cy="14" r="1" fill="srgba(57,148,8,1)"/>
  <circle cx="9" cy="14" r="1" fill="srgba(57,148,8,1)"/>
  <circle cx="10" cy="14" r="1" fill="srgba(57,148,8,1)"/>
  <circle cx="11" cy="14" r="1" fill="srgba(57,148,8,1)"/>
  <circle cx="12" cy="14" r="1" fill="srgba(57,148,8,1)"/>
  <circle cx="13" cy="14" r="1" fill="srgba(57,148,8,1)"/>
  <circle cx="14" cy="14" r="1" fill="srgba(57,148,8,1)"/>
  <circle cx="15" cy="14" r="1" fill="srgba(57,148,8,1)"/>
  <circle cx="0" cy="15" r="1" fill="srgba(80.3784%,85.388%,51.8624%,1)"/>
  <circle cx="1" cy="15" r="1" fill="srgba(47.4571%,71.5084%,31.841%,1)"/>
  <circle cx="2" cy="15" r="1" fill="srgba(24.7944%,59.5315%,7.55932%,1)"/>
  <circle cx="3" cy="15" r="1" fill="srgba(21.1292%,57.3938%,1.72427%,1)"/>
  <circle cx="4" cy="15" r="1" fill="srgba(22.1775%,57.9446%,2.91295%,1)"/>
  <circle cx="5" cy="15" r="1" fill="srgba(22.3606%,58.0438%,3.14794%,1)"/>
  <circle cx="6" cy="15" r="1" fill="srgba(57,148,8,1)"/>
  <circle cx="7" cy="15" r="1" fill="srgba(57,148,8,1)"/>
  <circle cx="8" cy="15" r="1" fill="srgba(57,148,8,1)"/>
  <circle cx="9" cy="15" r="1" fill="srgba(57,148,8,1)"/>
  <circle cx="10" cy="15" r="1" fill="srgba(57,148,8,1)"/>
  <circle cx="11" cy="15" r="1" fill="srgba(57,148,8,1)"/>
  <circle cx="12" cy="15" r="1" fill="srgba(57,148,8,1)"/>
  <circle cx="13" cy="15" r="1" fill="srgba(57,148,8,1)"/>
  <circle cx="14" cy="15" r="1" fill="srgba(57,148,8,1)"/>
  <circle cx="15" cy="15" r="1" fill="srgba(57,148,8,1)"/>
</svg>
