<?xml version="1.0" standalone="no"?>
<!DOCTYPE svg PUBLIC "-//W3C//DTD SVG 20010904//EN"
  "http://www.w3.org/TR/2001/REC-SVG-20010904/DTD/svg10.dtd">
<svg width="16" height="16">
  <circle cx="0" cy="0" r="1" fill="srgba(74.02%,3.97345%,3.97345%,1)"/>
  <circle cx="1" cy="0" r="1" fill="srgba(72.8817%,0%,0%,1)"/>
  <circle cx="2" cy="0" r="1" fill="srgba(186,0,0,1)"/>
  <circle cx="3" cy="0" r="1" fill="srgba(186,0,0,1)"/>
  <circle cx="4" cy="0" r="1" fill="srgba(186,0,0,1)"/>
  <circle cx="5" cy="0" r="1" fill="srgba(186,0,0,1)"/>
  <circle cx="6" cy="0" r="1" fill="srgba(186,0,0,1)"/>
  <circle cx="7" cy="0" r="1" fill="srgba(186,0,0,1)"/>
  <circle cx="8" cy="0" r="1" fill="srgba(186,0,0,1)"/>
  <circle cx="9" cy="0" r="1" fill="srgba(186,0,0,1)"/>
  <circle cx="10" cy="0" r="1" fill="srgba(186,0,0,1)"/>
  <circle cx="11" cy="0" r="1" fill="srgba(186,0,0,1)"/>
  <circle cx="12" cy="0" r="1" fill="srgba(186,0,0,1)"/>
  <circle cx="13" cy="0" r="1" fill="srgba(186,0,0,1)"/>
  <circle cx="14" cy="0" r="1" fill="srgba(186,0,0,1)"/>
  <circle cx="15" cy="0" r="1" fill="srgba(186,0,0,1)"/>
  <circle cx="0" cy="1" r="1" fill="srgba(74.02%,3.97345%,3.97345%,1)"/>
  <circle cx="1" cy="1" r="1" fill="srgba(72.8817%,0%,0%,1)"/>
  <circle cx="2" cy="1" r="1" fill="srgba(186,0,0,1)"/>
  <circle cx="3" cy="1" r="1" fill="srgba(186,0,0,1)"/>
  <circle cx="4" cy="1" r="1" fill="srgba(186,0,0,1)"/>
  <circle cx="5" cy="1" r="1" fill="srgba(186,0,0,1)"/>
  <circle cx="6" cy="1" r="1" fill="srgba(186,0,0,1)"/>
  <circle cx="7" cy="1" r="1" fill="srgba(186,0,0,1)"/>
  <circle cx="8" cy="1" r="1" fill="srgba(72.9397%,0%,0%,1)"/>
  <circle cx="9" cy="1" r="1" fill="srgba(186,0,0,1)"/>
  <circle cx="10" cy="1" r="1" fill="srgba(186,0,0,1)"/>
  <circle cx="11" cy="1" r="1" fill="srgba(186,0,0,1)"/>
  <circle cx="12" cy="1" r="1" fill="srgba(186,0,0,1)"/>
  <circle cx="13" cy="1" r="1" fill="srgba(186,0,0,1)"/>
  <circle cx="14" cy="1" r="1" fill="srgba(186,0,0,1)"/>
  <circle cx="15" cy="1" r="1" fill="srgba(186,0,0,1)"/>
  <circle cx="0" cy="2" r="1" fill="srgba(74.02%,3.97345%,3.97345%,1)"/>
  <circle cx="1" cy="2" r="1" fill="srgba(72.8817%,0%,0%,1)"/>
  <circle cx="2" cy="2" r="1" fill="srgba(186,0,0,1)"/>
  <circle cx="3" cy="2" r="1" fill="srgba(186,0,0,1)"/>
  <circle cx="4" cy="2" r="1" fill="srgba(186,0,0,1)"/>
  <circle cx="5" cy="2" r="1" fill="srgba(72.9442%,0%,0%,1)"/>
  <circle cx="6" cy="2" r="1" fill="srgba(72.8878%,0%,0%,1)"/>
  <circle cx="7" cy="2" r="1" fill="srgba(72.604%,0.0015259%,0.0015259%,1)"/>
  <circle cx="8" cy="2" r="1" fill="srgba(72.8786%,0.173953%,0.173953%,1)"/>
  <circle cx="9" cy="2" r="1" fill="srgba(72.9534%,0.0274662%,0.0274662%,1)"/>
  <circle cx="10" cy="2" r="1" fill="srgba(186,0,0,1)"/>
  <circle cx="11" cy="2" r="1" fill="srgba(186,0,0,1)"/>
  <circle cx="12" cy="2" r="1" fill="srgba(186,0,0,1)"/>
  <circle cx="13" cy="2" r="1" fill="srgba(186,0,0,1)"/>
  <circle cx="14" cy="2" r="1" fill="srgba(186,0,0,1)"/>
  <circle cx="15" cy="2" r="1" fill="srgba(186,0,0,1)"/>
  <circle cx="0" cy="3" r="1" fill="srgba(74.02%,3.97345%,3.97345%,1)"/>
  <circle cx="1" cy="3" r="1" fill="srgba(72.8817%,0%,0%,1)"/>
  <circle cx="2" cy="3" r="1" fill="srgba(186,0,0,1)"/>
  <circle cx="3" cy="3" r="1" fill="srgba(186,0,0,1)"/>
  <circle cx="4" cy="3" r="1" fill="srgba(186,0,0,1)"/>
  <circle cx="5" cy="3" r="1" fill="srgba(72.8878%,0%,0%,1)"/>
  <circle cx="6" cy="3" r="1" fill="srgba(73.5607%,2.65354%,2.65354%,1)"/>
  <circle cx="7" cy="3" r="1" fill="srgba(82.6825%,36.0403%,36.0403%,1)"/>
  <circle cx="8" cy="3" r="1" fill="srgba(81.7517%,32.6864%,32.6864%,1)"/>
  <circle cx="9" cy="3" r="1" fill="srgba(72.8511%,0%,0%,1)"/>
  <circle cx="10" cy="3" r="1" fill="srgba(72.9397%,0%,0%,1)"/>
  <circle cx="11" cy="3" r="1" fill="srgba(186,0,0,1)"/>
  <circle cx="12" cy="3" r="1" fill="srgba(186,0,0,1)"/>
  <circle cx="13" cy="3" r="1" fill="srgba(186,0,0,1)"/>
  <circle cx="14" cy="3" r="1" fill="srgba(186,0,0,1)"/>
  <circle cx="15" cy="3" r="1" fill="srgba(186,0,0,1)"/>
  <circle cx="0" cy="4" r="1" fill="srgba(74.02%,3.97345%,3.97345%,1)"/>
  <circle cx="1" cy="4" r="1" fill="srgba(72.8817%,0%,0%,1)"/>
  <circle cx="2" cy="4" r="1" fill="srgba(72.9427%,0%,0%,1)"/>
  <circle cx="3" cy="4" r="1" fill="srgba(72.9107%,0%,0%,1)"/>
  <circle cx="4" cy="4" r="1" fill="srgba(72.7153%,0%,0%,1)"/>
  <circle cx="5" cy="4" r="1" fill="srgba(72.3522%,0%,0%,1)"/>
  <circle cx="6" cy="4" r="1" fill="srgba(82.0539%,33.9422%,33.9422%,1)"/>
  <circle cx="7" cy="4" r="1" fill="srgba(98.0194%,92.668%,92.668%,1)"/>
  <circle cx="8" cy="4" r="1" fill="srgba(91.3344%,68.1483%,68.1483%,1)"/>
  <circle cx="9" cy="4" r="1" fill="srgba(73.2357%,2.45365%,2.45365%,1)"/>
  <circle cx="10" cy="4" r="1" fill="srgba(72.4376%,0%,0%,1)"/>
  <circle cx="11" cy="4" r="1" fill="srgba(72.7276%,0%,0%,1)"/>
  <circle cx="12" cy="4" r="1" fill="srgba(72.9397%,0%,0%,1)"/>
  <circle cx="13" cy="4" r="1" fill="srgba(186,0,0,1)"/>
  <circle cx="14" cy="4" r="1" fill="srgba(186,0,0,1)"/>
  <circle cx="15" cy="4" r="1" fill="srgba(186,0,0,1)"/>
  <circle cx="0" cy="5" r="1" fill="srgba(74.02%,3.97345%,3.97345%,1)"/>
  <circle cx="1" cy="5" r="1" fill="srgba(72.8817%,0%,0%,1)"/>
  <circle cx="2" cy="5" r="1" fill="srgba(72.903%,0%,0%,1)"/>
  <circle cx="3" cy="5" r="1" fill="srgba(73.4844%,2.17594%,2.17594%,1)"/>
  <circle cx="4" cy="5" r="1" fill="srgba(76.6369%,13.7133%,13.7133%,1)"/>
  <circle cx="5" cy="5" r="1" fill="srgba(77.4685%,16.7285%,16.7285%,1)"/>
  <circle cx="6" cy="5" r="1" fill="srgba(90.6188%,65.333%,65.333%,1)"/>
  <circle cx="7" cy="5" r="1" fill="srgba(98.7686%,95.4788%,95.4788%,1)"/>
  <circle cx="8" cy="5" r="1" fill="srgba(91.8822%,69.9992%,69.9992%,1)"/>
  <circle cx="9" cy="5" r="1" fill="srgba(80.5417%,28.0858%,28.0858%,1)"/>
  <circle cx="10" cy="5" r="1" fill="srgba(81.767%,32.6192%,32.6192%,1)"/>
  <circle cx="11" cy="5" r="1" fill="srgba(76.7391%,14.0673%,14.0673%,1)"/>
  <circle cx="12" cy="5" r="1" fill="srgba(72.9671%,0.192264%,0.192264%,1)"/>
  <circle cx="13" cy="5" r="1" fill="srgba(72.9335%,0%,0%,1)"/>
  <circle cx="14" cy="5" r="1" fill="srgba(186,0,0,1)"/>
  <circle cx="15" cy="5" r="1" fill="srgba(186,0,0,1)"/>
  <circle cx="0" cy="6" r="1" fill="srgba(74.02%,3.97345%,3.97345%,1)"/>
  <circle cx="1" cy="6" r="1" fill="srgba(72.8817%,0%,0%,1)"/>
  <circle cx="2" cy="6" r="1" fill="srgba(72.7489%,0%,0%,1)"/>
  <circle cx="3" cy="6" r="1" fill="srgba(76.5469%,13.3242%,13.3242%,1)"/>
  <circle cx="4" cy="6" r="1" fill="srgba(86.2913%,49.3355%,49.3355%,1)"/>
  <circle cx="5" cy="6" r="1" fill="srgba(86.0639%,48.5023%,48.5023%,1)"/>
  <circle cx="6" cy="6" r="1" fill="srgba(90.7836%,65.9419%,65.9419%,1)"/>
  <circle cx="7" cy="6" r="1" fill="srgba(91.5053%,68.603%,68.603%,1)"/>
  <circle cx="8" cy="6" r="1" fill="srgba(88.481%,57.4243%,57.4243%,1)"/>
  <circle cx="9" cy="6" r="1" fill="srgba(97.1283%,89.3919%,89.3919%,1)"/>
  <circle cx="10" cy="6" r="1" fill="srgba(96.6537%,87.6738%,87.6738%,1)"/>
  <circle cx="11" cy="6" r="1" fill="srgba(85.8045%,47.5242%,47.5242%,1)"/>
  <circle cx="12" cy="6" r="1" fill="srgba(74.3633%,5.8732%,5.8732%,1)"/>
  <circle cx="13" cy="6" r="1" fill="srgba(72.668%,0%,0%,1)"/>
  <circle cx="14" cy="6" r="1" fill="srgba(72.9397%,0%,0%,1)"/>
  <circle cx="15" cy="6" r="1" fill="srgba(186,0,0,1)"/>
  <circle cx="0" cy="7" r="1" fill="srgba(74.02%,3.97345%,3.97345%,1)"/>
  <circle cx="1" cy="7" r="1" fill="srgba(72.8817%,0%,0%,1)"/>
  <circle cx="2" cy="7" r="1" fill="srgba(72.6665%,0%,0%,1)"/>
  <circle cx="3" cy="7" r="1" fill="srgba(77.9843%,18.6221%,18.6221%,1)"/>
  <circle cx="4" cy="7" r="1" fill="srgba(91.7571%,69.7444%,69.7444%,1)"/>
  <circle cx="5" cy="7" r="1" fill="srgba(74.7036%,8.02319%,8.02319%,1)"/>
  <circle cx="6" cy="7" r="1" fill="srgba(75.1202%,9.08675%,9.08675%,1)"/>
  <circle cx="7" cy="7" r="1" fill="srgba(79.7742%,25.4826%,25.4826%,1)"/>
  <circle cx="8" cy="7" r="1" fill="srgba(79.5712%,24.6235%,24.6235%,1)"/>
  <circle cx="9" cy="7" r="1" fill="srgba(90.0587%,63.2441%,63.2441%,1)"/>
  <circle cx="10" cy="7" r="1" fill="srgba(98.6572%,95.0393%,95.0393%,1)"/>
  <circle cx="11" cy="7" r="1" fill="srgba(89.4133%,60.8667%,60.8667%,1)"/>
  <circle cx="12" cy="7" r="1" fill="srgba(79.9619%,25.9342%,25.9342%,1)"/>
  <circle cx="13" cy="7" r="1" fill="srgba(75.6451%,10.0633%,10.0633%,1)"/>
  <circle cx="14" cy="7" r="1" fill="srgba(72.9335%,0.0366217%,0.0366217%,1)"/>
  <circle cx="15" cy="7" r="1" fill="srgba(72.9381%,0%,0%,1)"/>
  <circle cx="0" cy="8" r="1" fill="srgba(74.02%,3.97345%,3.97345%,1)"/>
  <circle cx="1" cy="8" r="1" fill="srgba(72.8817%,0%,0%,1)"/>
  <circle cx="2" cy="8" r="1" fill="srgba(72.929%,0%,0%,1)"/>
  <circle cx="3" cy="8" r="1" fill="srgba(73.0114%,0.511177%,0.511177%,1)"/>
  <circle cx="4" cy="8" r="1" fill="srgba(79.6078%,24.7547%,24.7547%,1)"/>
  <circle cx="5" cy="8" r="1" fill="srgba(81.3443%,31.0506%,31.0506%,1)"/>
  <circle cx="6" cy="8" r="1" fill="srgba(81.4511%,31.4488%,31.4488%,1)"/>
  <circle cx="7" cy="8" r="1" fill="srgba(87.5807%,54.0963%,54.0963%,1)"/>
  <circle cx="8" cy="8" r="1" fill="srgba(76.4141%,13.0892%,13.0892%,1)"/>
  <circle cx="9" cy="8" r="1" fill="srgba(76.5362%,13.2845%,13.2845%,1)"/>
  <circle cx="10" cy="8" r="1" fill="srgba(93.2692%,75.0622%,75.0622%,1)"/>
  <circle cx="11" cy="8" r="1" fill="srgba(99.1241%,96.7636%,96.7636%,1)"/>
  <circle cx="12" cy="8" r="1" fill="srgba(98.3581%,93.9223%,93.9223%,1)"/>
  <circle cx="13" cy="8" r="1" fill="srgba(93.051%,74.3206%,74.3206%,1)"/>
  <circle cx="14" cy="8" r="1" fill="srgba(75.0317%,7.72412%,7.72412%,1)"/>
  <circle cx="15" cy="8" r="1" fill="srgba(72.784%,0%,0%,1)"/>
  <circle cx="0" cy="9" r="1" fill="srgba(74.02%,3.97345%,3.97345%,1)"/>
  <circle cx="1" cy="9" r="1" fill="srgba(72.8817%,0%,0%,1)"/>
  <circle cx="2" cy="9" r="1" fill="srgba(72.9427%,0%,0%,1)"/>
  <circle cx="3" cy="9" r="1" fill="srgba(72.7474%,0%,0%,1)"/>
  <circle cx="4" cy="9" r="1" fill="srgba(75.3796%,10.2449%,10.2449%,1)"/>
  <circle cx="5" cy="9" r="1" fill="srgba(95.5413%,83.8422%,83.8422%,1)"/>
  <circle cx="6" cy="9" r="1" fill="srgba(99.7696%,99.1333%,99.1333%,1)"/>
  <circle cx="7" cy="9" r="1" fill="srgba(98.4771%,94.3725%,94.3725%,1)"/>
  <circle cx="8" cy="9" r="1" fill="srgba(79.3774%,23.743%,23.743%,1)"/>
  <circle cx="9" cy="9" r="1" fill="srgba(71.4549%,0%,0%,1)"/>
  <circle cx="10" cy="9" r="1" fill="srgba(80.9918%,31.0353%,31.0353%,1)"/>
  <circle cx="11" cy="9" r="1" fill="srgba(99.3606%,97.5601%,97.5601%,1)"/>
  <circle cx="12" cy="9" r="1" fill="white"/>
  <circle cx="13" cy="9" r="1" fill="srgba(93.6065%,76.4218%,76.4218%,1)"/>
  <circle cx="14" cy="9" r="1" fill="srgba(74.4091%,5.5375%,5.5375%,1)"/>
  <circle cx="15" cy="9" r="1" fill="srgba(72.8313%,0%,0%,1)"/>
  <circle cx="0" cy="10" r="1" fill="srgba(74.02%,3.97345%,3.97345%,1)"/>
  <circle cx="1" cy="10" r="1" fill="srgba(72.8817%,0%,0%,1)"/>
  <circle cx="2" cy="10" r="1" fill="srgba(186,0,0,1)"/>
  <circle cx="3" cy="10" r="1" fill="srgba(72.6955%,0%,0%,1)"/>
  <circle cx="4" cy="10" r="1" fill="srgba(77.6226%,17.2992%,17.2992%,1)"/>
  <circle cx="5" cy="10" r="1" fill="srgba(97.2335%,89.7749%,89.7749%,1)"/>
  <circle cx="6" cy="10" r="1" fill="white"/>
  <circle cx="7" cy="10" r="1" fill="srgba(95.0866%,81.8372%,81.8372%,1)"/>
  <circle cx="8" cy="10" r="1" fill="srgba(75.4818%,8.97536%,8.97536%,1)"/>
  <circle cx="9" cy="10" r="1" fill="srgba(69.6864%,0%,0%,1)"/>
  <circle cx="10" cy="10" r="1" fill="srgba(77.8454%,22.7939%,22.7939%,1)"/>
  <circle cx="11" cy="10" r="1" fill="srgba(98.7701%,95.1812%,95.1812%,1)"/>
  <circle cx="12" cy="10" r="1" fill="white"/>
  <circle cx="13" cy="10" r="1" fill="srgba(93.0327%,74.2458%,74.2458%,1)"/>
  <circle cx="14" cy="10" r="1" fill="srgba(74.728%,6.61936%,6.61936%,1)"/>
  <circle cx="15" cy="10" r="1" fill="srgba(72.842%,0%,0%,1)"/>
  <circle cx="0" cy="11" r="1" fill="srgba(74.02%,3.97345%,3.97345%,1)"/>
  <circle cx="1" cy="11" r="1" fill="srgba(72.8817%,0%,0%,1)"/>
  <circle cx="2" cy="11" r="1" fill="srgba(186,0,0,1)"/>
  <circle cx="3" cy="11" r="1" fill="srgba(72.7276%,0%,0%,1)"/>
  <circle cx="4" cy="11" r="1" fill="srgba(77.3587%,16.3256%,16.3256%,1)"/>
  <circle cx="5" cy="11" r="1" fill="srgba(96.553%,87.2602%,87.2602%,1)"/>
  <circle cx="6" cy="11" r="1" fill="white"/>
  <circle cx="7" cy="11" r="1" fill="srgba(92.7916%,73.6187%,73.6187%,1)"/>
  <circle cx="8" cy="11" r="1" fill="srgba(73.8338%,2.96941%,2.96941%,1)"/>
  <circle cx="9" cy="11" r="1" fill="srgba(69.3111%,0.144961%,0.144961%,1)"/>
  <circle cx="10" cy="11" r="1" fill="srgba(82.6551%,41.7609%,41.7609%,1)"/>
  <circle cx="11" cy="11" r="1" fill="srgba(95.3445%,82.4201%,82.4201%,1)"/>
  <circle cx="12" cy="11" r="1" fill="srgba(94.522%,79.7543%,79.7543%,1)"/>
  <circle cx="13" cy="11" r="1" fill="srgba(93.3577%,75.4543%,75.4543%,1)"/>
  <circle cx="14" cy="11" r="1" fill="srgba(83.4592%,38.8708%,38.8708%,1)"/>
  <circle cx="15" cy="11" r="1" fill="srgba(73.4691%,1.95163%,1.95163%,1)"/>
  <circle cx="0" cy="12" r="1" fill="srgba(74.02%,3.97345%,3.97345%,1)"/>
  <circle cx="1" cy="12" r="1" fill="srgba(72.8817%,0%,0%,1)"/>
  <circle cx="2" cy="12" r="1" fill="srgba(186,0,0,1)"/>
  <circle cx="3" cy="12" r="1" fill="srgba(72.8496%,0%,0%,1)"/>
  <circle cx="4" cy="12" r="1" fill="srgba(74.3435%,5.66262%,5.66262%,1)"/>
  <circle cx="5" cy="12" r="1" fill="srgba(94.3236%,79.2966%,79.2966%,1)"/>
  <circle cx="6" cy="12" r="1" fill="white"/>
  <circle cx="7" cy="12" r="1" fill="srgba(92.8649%,73.6172%,73.6172%,1)"/>
  <circle cx="8" cy="12" r="1" fill="srgba(73.904%,2.99077%,2.99077%,1)"/>
  <circle cx="9" cy="12" r="1" fill="srgba(69.485%,0.738537%,0.738537%,1)"/>
  <circle cx="10" cy="12" r="1" fill="srgba(73.6339%,8.4123%,8.4123%,1)"/>
  <circle cx="11" cy="12" r="1" fill="srgba(75.1415%,7.76074%,7.76074%,1)"/>
  <circle cx="12" cy="12" r="1" fill="srgba(74.5083%,5.79232%,5.79232%,1)"/>
  <circle cx="13" cy="12" r="1" fill="srgba(74.2657%,4.89357%,4.89357%,1)"/>
  <circle cx="14" cy="12" r="1" fill="srgba(74.1192%,4.35187%,4.35187%,1)"/>
  <circle cx="15" cy="12" r="1" fill="srgba(73.0877%,0.543221%,0.543221%,1)"/>
  <circle cx="0" cy="13" r="1" fill="srgba(74.02%,3.97345%,3.97345%,1)"/>
  <circle cx="1" cy="13" r="1" fill="srgba(72.8817%,0%,0%,1)"/>
  <circle cx="2" cy="13" r="1" fill="srgba(186,0,0,1)"/>
  <circle cx="3" cy="13" r="1" fill="srgba(72.8634%,0%,0%,1)"/>
  <circle cx="4" cy="13" r="1" fill="srgba(74.2%,4.654%,4.654%,1)"/>
  <circle cx="5" cy="13" r="1" fill="srgba(93.8643%,77.3281%,77.3281%,1)"/>
  <circle cx="6" cy="13" r="1" fill="white"/>
  <circle cx="7" cy="13" r="1" fill="srgba(92.8649%,73.6172%,73.6172%,1)"/>
  <circle cx="8" cy="13" r="1" fill="srgba(73.9208%,3.04723%,3.04723%,1)"/>
  <circle cx="9" cy="13" r="1" fill="srgba(69.2226%,0%,0%,1)"/>
  <circle cx="10" cy="13" r="1" fill="srgba(71.2154%,0%,0%,1)"/>
  <circle cx="11" cy="13" r="1" fill="srgba(72.9091%,0%,0%,1)"/>
  <circle cx="12" cy="13" r="1" fill="srgba(72.8435%,0%,0%,1)"/>
  <circle cx="13" cy="13" r="1" fill="srgba(72.8634%,0%,0%,1)"/>
  <circle cx="14" cy="13" r="1" fill="srgba(72.8862%,0%,0%,1)"/>
  <circle cx="15" cy="13" r="1" fill="srgba(72.9351%,0%,0%,1)"/>
  <circle cx="0" cy="14" r="1" fill="srgba(74.02%,3.97345%,3.97345%,1)"/>
  <circle cx="1" cy="14" r="1" fill="srgba(72.8817%,0%,0%,1)"/>
  <circle cx="2" cy="14" r="1" fill="srgba(186,0,0,1)"/>
  <circle cx="3" cy="14" r="1" fill="srgba(72.8786%,0%,0%,1)"/>
  <circle cx="4" cy="14" r="1" fill="srgba(73.9712%,3.80713%,3.80713%,1)"/>
  <circle cx="5" cy="14" r="1" fill="srgba(93.3608%,75.4665%,75.4665%,1)"/>
  <circle cx="6" cy="14" r="1" fill="white"/>
  <circle cx="7" cy="14" r="1" fill="srgba(92.8649%,73.6172%,73.6172%,1)"/>
  <circle cx="8" cy="14" r="1" fill="srgba(73.9193%,3.04723%,3.04723%,1)"/>
  <circle cx="9" cy="14" r="1" fill="srgba(69.2424%,0%,0%,1)"/>
  <circle cx="10" cy="14" r="1" fill="srgba(71.3497%,0%,0%,1)"/>
  <circle cx="11" cy="14" r="1" fill="srgba(73.0434%,0%,0%,1)"/>
  <circle cx="12" cy="14" r="1" fill="srgba(186,0,0,1)"/>
  <circle cx="13" cy="14" r="1" fill="srgba(186,0,0,1)"/>
  <circle cx="14" cy="14" r="1" fill="srgba(186,0,0,1)"/>
  <circle cx="15" cy="14" r="1" fill="srgba(186,0,0,1)"/>
  <circle cx="0" cy="15" r="1" fill="srgba(74.02%,3.97345%,3.97345%,1)"/>
  <circle cx="1" cy="15" r="1" fill="srgba(72.8817%,0%,0%,1)"/>
  <circle cx="2" cy="15" r="1" fill="srgba(186,0,0,1)"/>
  <circle cx="3" cy="15" r="1" fill="srgba(72.8893%,0%,0%,1)"/>
  <circle cx="4" cy="15" r="1" fill="srgba(73.7911%,3.14488%,3.14488%,1)"/>
  <circle cx="5" cy="15" r="1" fill="srgba(92.9198%,73.843%,73.843%,1)"/>
  <circle cx="6" cy="15" r="1" fill="white"/>
  <circle cx="7" cy="15" r="1" fill="srgba(92.8649%,73.6172%,73.6172%,1)"/>
  <circle cx="8" cy="15" r="1" fill="srgba(73.9208%,3.04723%,3.04723%,1)"/>
  <circle cx="9" cy="15" r="1" fill="srgba(69.247%,0%,0%,1)"/>
  <circle cx="10" cy="15" r="1" fill="srgba(71.3436%,0%,0%,1)"/>
  <circle cx="11" cy="15" r="1" fill="srgba(73.0434%,0%,0%,1)"/>
  <circle cx="12" cy="15" r="1" fill="srgba(186,0,0,1)"/>
  <circle cx="13" cy="15" r="1" fill="srgba(186,0,0,1)"/>
  <circle cx="14" cy="15" r="1" fill="srgba(186,0,0,1)"/>
  <circle cx="15" cy="15" r="1" fill="srgba(186,0,0,1)"/>
</svg>
