<?xml version="1.0" standalone="no"?>
<!DOCTYPE svg PUBLIC "-//W3C//DTD SVG 20010904//EN"
  "http://www.w3.org/TR/2001/REC-SVG-20010904/DTD/svg10.dtd">
<svg width="16" height="16">
  <circle cx="0" cy="0" r="1" fill="srgba(72.6635%,44.242%,52.3339%,1)"/>
  <circle cx="1" cy="0" r="1" fill="srgba(63.3753%,50.4082%,63.7629%,1)"/>
  <circle cx="2" cy="0" r="1" fill="srgba(15.1385%,16.2783%,50.2968%,1)"/>
  <circle cx="3" cy="0" r="1" fill="srgba(50.6691%,23.7079%,40.6027%,1)"/>
  <circle cx="4" cy="0" r="1" fill="srgba(66.3813%,25.4856%,34.7662%,1)"/>
  <circle cx="5" cy="0" r="1" fill="srgba(11.7311%,9.7322%,44.7883%,1)"/>
  <circle cx="6" cy="0" r="1" fill="srgba(49.0471%,28.1407%,46.4332%,1)"/>
  <circle cx="7" cy="0" r="1" fill="srgba(74.0795%,50.8003%,58.8388%,1)"/>
  <circle cx="8" cy="0" r="1" fill="srgba(17.3144%,15.0439%,47.8889%,1)"/>
  <circle cx="9" cy="0" r="1" fill="srgba(0%,0%,39.559%,1)"/>
  <circle cx="10" cy="0" r="1" fill="srgba(0,0,102,1)"/>
  <circle cx="11" cy="0" r="1" fill="srgba(0,0,102,1)"/>
  <circle cx="12" cy="0" r="1" fill="srgba(0,0,102,1)"/>
  <circle cx="13" cy="0" r="1" fill="srgba(0,0,102,1)"/>
  <circle cx="14" cy="0" r="1" fill="srgba(0,0,102,1)"/>
  <circle cx="15" cy="0" r="1" fill="srgba(0,0,102,1)"/>
  <circle cx="0" cy="1" r="1" fill="srgba(37.2412%,27.7836%,51.9417%,1)"/>
  <circle cx="1" cy="1" r="1" fill="srgba(73.5271%,48.484%,56.5682%,1)"/>
  <circle cx="2" cy="1" r="1" fill="srgba(78.2361%,62.9267%,70.0999%,1)"/>
  <circle cx="3" cy="1" r="1" fill="srgba(73.2204%,43.5935%,51.3375%,1)"/>
  <circle cx="4" cy="1" r="1" fill="srgba(76.7239%,31.928%,36.762%,1)"/>
  <circle cx="5" cy="1" r="1" fill="srgba(70.248%,47.0161%,56.5927%,1)"/>
  <circle cx="6" cy="1" r="1" fill="srgba(82.6169%,63.415%,68.4474%,1)"/>
  <circle cx="7" cy="1" r="1" fill="srgba(44.0925%,38.8922%,60.7355%,1)"/>
  <circle cx="8" cy="1" r="1" fill="srgba(7.23888%,6.21653%,43.2181%,1)"/>
  <circle cx="9" cy="1" r="1" fill="srgba(0%,0%,39.8032%,1)"/>
  <circle cx="10" cy="1" r="1" fill="srgba(0,0,102,1)"/>
  <circle cx="11" cy="1" r="1" fill="srgba(0,0,102,1)"/>
  <circle cx="12" cy="1" r="1" fill="srgba(0,0,102,1)"/>
  <circle cx="13" cy="1" r="1" fill="srgba(0,0,102,1)"/>
  <circle cx="14" cy="1" r="1" fill="srgba(0,0,102,1)"/>
  <circle cx="15" cy="1" r="1" fill="srgba(0,0,102,1)"/>
  <circle cx="0" cy="2" r="1" fill="srgba(82.2522%,21.9379%,23.0045%,1)"/>
  <circle cx="1" cy="2" r="1" fill="srgba(82.2019%,21.5808%,22.6368%,1)"/>
  <circle cx="2" cy="2" r="1" fill="srgba(85.6947%,24.2145%,23.7873%,1)"/>
  <circle cx="3" cy="2" r="1" fill="srgba(84.2283%,17.1145%,16.7102%,1)"/>
  <circle cx="4" cy="2" r="1" fill="srgba(82.8107%,11.7418%,11.5114%,1)"/>
  <circle cx="5" cy="2" r="1" fill="srgba(85.9998%,23.9475%,23.3417%,1)"/>
  <circle cx="6" cy="2" r="1" fill="srgba(83.4119%,23.801%,24.4739%,1)"/>
  <circle cx="7" cy="2" r="1" fill="srgba(79.8444%,20.9766%,23.151%,1)"/>
  <circle cx="8" cy="2" r="1" fill="srgba(23.2273%,6.5919%,35.6344%,1)"/>
  <circle cx="9" cy="2" r="1" fill="srgba(0%,0%,40.2564%,1)"/>
  <circle cx="10" cy="2" r="1" fill="srgba(0,0,102,1)"/>
  <circle cx="11" cy="2" r="1" fill="srgba(0,0,102,1)"/>
  <circle cx="12" cy="2" r="1" fill="srgba(0,0,102,1)"/>
  <circle cx="13" cy="2" r="1" fill="srgba(0,0,102,1)"/>
  <circle cx="14" cy="2" r="1" fill="srgba(0,0,102,1)"/>
  <circle cx="15" cy="2" r="1" fill="srgba(0,0,102,1)"/>
  <circle cx="0" cy="3" r="1" fill="srgba(53.1594%,31.6396%,48.2261%,1)"/>
  <circle cx="1" cy="3" r="1" fill="srgba(77.3922%,52.6833%,59.2569%,1)"/>
  <circle cx="2" cy="3" r="1" fill="srgba(87.7379%,51.5709%,52.8603%,1)"/>
  <circle cx="3" cy="3" r="1" fill="srgba(81.1917%,34.9767%,37.8805%,1)"/>
  <circle cx="4" cy="3" r="1" fill="srgba(82.2553%,30.9499%,32.9229%,1)"/>
  <circle cx="5" cy="3" r="1" fill="srgba(87.1794%,58.9471%,61.2543%,1)"/>
  <circle cx="6" cy="3" r="1" fill="srgba(81.8479%,45.6153%,49.2546%,1)"/>
  <circle cx="7" cy="3" r="1" fill="srgba(54.4594%,31.6442%,47.5792%,1)"/>
  <circle cx="8" cy="3" r="1" fill="srgba(13.7728%,8.02777%,41.9425%,1)"/>
  <circle cx="9" cy="3" r="1" fill="srgba(0%,0%,39.8901%,1)"/>
  <circle cx="10" cy="3" r="1" fill="srgba(0,0,102,1)"/>
  <circle cx="11" cy="3" r="1" fill="srgba(0,0,102,1)"/>
  <circle cx="12" cy="3" r="1" fill="srgba(0,0,102,1)"/>
  <circle cx="13" cy="3" r="1" fill="srgba(0,0,102,1)"/>
  <circle cx="14" cy="3" r="1" fill="srgba(0,0,102,1)"/>
  <circle cx="15" cy="3" r="1" fill="srgba(0,0,102,1)"/>
  <circle cx="0" cy="4" r="1" fill="srgba(56.1532%,46.7826%,63.3829%,1)"/>
  <circle cx="1" cy="4" r="1" fill="srgba(70.9957%,47.8126%,57.0947%,1)"/>
  <circle cx="2" cy="4" r="1" fill="srgba(33.6461%,21.5305%,46.8589%,1)"/>
  <circle cx="3" cy="4" r="1" fill="srgba(54.3435%,26.7887%,42.2904%,1)"/>
  <circle cx="4" cy="4" r="1" fill="srgba(67.8401%,27.2282%,36.0342%,1)"/>
  <circle cx="5" cy="4" r="1" fill="srgba(30.222%,30.3075%,58.2284%,1)"/>
  <circle cx="6" cy="4" r="1" fill="srgba(67.8431%,51.5023%,62.7298%,1)"/>
  <circle cx="7" cy="4" r="1" fill="srgba(58.3062%,36.3439%,50.8232%,1)"/>
  <circle cx="8" cy="4" r="1" fill="srgba(9.44228%,5.34066%,41.1536%,1)"/>
  <circle cx="9" cy="4" r="1" fill="srgba(0%,0%,39.9237%,1)"/>
  <circle cx="10" cy="4" r="1" fill="srgba(0%,0%,40.0015%,1)"/>
  <circle cx="11" cy="4" r="1" fill="srgba(0%,0%,39.7345%,1)"/>
  <circle cx="12" cy="4" r="1" fill="srgba(0%,0%,39.8123%,1)"/>
  <circle cx="13" cy="4" r="1" fill="srgba(0%,0%,40.0076%,1)"/>
  <circle cx="14" cy="4" r="1" fill="srgba(0,0,102,1)"/>
  <circle cx="15" cy="4" r="1" fill="srgba(0,0,102,1)"/>
  <circle cx="0" cy="5" r="1" fill="srgba(34.5022%,19.8383%,44.567%,1)"/>
  <circle cx="1" cy="5" r="1" fill="srgba(13.7346%,7.68597%,41.622%,1)"/>
  <circle cx="2" cy="5" r="1" fill="srgba(0%,0.459297%,40.6561%,1)"/>
  <circle cx="3" cy="5" r="1" fill="srgba(19.7314%,9.31716%,40.3082%,1)"/>
  <circle cx="4" cy="5" r="1" fill="srgba(25.9342%,10.132%,38.1155%,1)"/>
  <circle cx="5" cy="5" r="1" fill="srgba(1.24208%,1.66018%,40.6729%,1)"/>
  <circle cx="6" cy="5" r="1" fill="srgba(8.94484%,9.41482%,45.7939%,1)"/>
  <circle cx="7" cy="5" r="1" fill="srgba(32.3934%,24.9943%,51.3008%,1)"/>
  <circle cx="8" cy="5" r="1" fill="srgba(9.7322%,4.7837%,40.3952%,1)"/>
  <circle cx="9" cy="5" r="1" fill="srgba(0%,0%,39.9664%,1)"/>
  <circle cx="10" cy="5" r="1" fill="srgba(0%,0%,39.971%,1)"/>
  <circle cx="11" cy="5" r="1" fill="srgba(7.76379%,7.76379%,44.6586%,1)"/>
  <circle cx="12" cy="5" r="1" fill="srgba(5.43832%,5.43832%,43.2624%,1)"/>
  <circle cx="13" cy="5" r="1" fill="srgba(0%,0%,39.8688%,1)"/>
  <circle cx="14" cy="5" r="1" fill="srgba(0,0,102,1)"/>
  <circle cx="15" cy="5" r="1" fill="srgba(0,0,102,1)"/>
  <circle cx="0" cy="6" r="1" fill="srgba(0%,0%,39.7299%,1)"/>
  <circle cx="1" cy="6" r="1" fill="srgba(0%,0%,39.91%,1)"/>
  <circle cx="2" cy="6" r="1" fill="srgba(0%,0%,39.9634%,1)"/>
  <circle cx="3" cy="6" r="1" fill="srgba(0%,0%,39.9878%,1)"/>
  <circle cx="4" cy="6" r="1" fill="srgba(0%,0%,40.09%,1)"/>
  <circle cx="5" cy="6" r="1" fill="srgba(0%,0%,39.9496%,1)"/>
  <circle cx="6" cy="6" r="1" fill="srgba(0%,0%,39.6857%,1)"/>
  <circle cx="7" cy="6" r="1" fill="srgba(0%,0%,39.5529%,1)"/>
  <circle cx="8" cy="6" r="1" fill="srgba(0%,0%,40.0412%,1)"/>
  <circle cx="9" cy="6" r="1" fill="srgba(0%,0%,39.9725%,1)"/>
  <circle cx="10" cy="6" r="1" fill="srgba(0.0518807%,0.0518807%,40.032%,1)"/>
  <circle cx="11" cy="6" r="1" fill="srgba(41.4832%,41.4832%,64.8905%,1)"/>
  <circle cx="12" cy="6" r="1" fill="srgba(29.3965%,29.3965%,57.6379%,1)"/>
  <circle cx="13" cy="6" r="1" fill="srgba(0%,0%,39.3698%,1)"/>
  <circle cx="14" cy="6" r="1" fill="srgba(0%,0%,39.9649%,1)"/>
  <circle cx="15" cy="6" r="1" fill="srgba(0%,0%,39.9969%,1)"/>
  <circle cx="0" cy="7" r="1" fill="srgba(0,0,102,1)"/>
  <circle cx="1" cy="7" r="1" fill="srgba(0,0,102,1)"/>
  <circle cx="2" cy="7" r="1" fill="srgba(0,0,102,1)"/>
  <circle cx="3" cy="7" r="1" fill="srgba(0,0,102,1)"/>
  <circle cx="4" cy="7" r="1" fill="srgba(0,0,102,1)"/>
  <circle cx="5" cy="7" r="1" fill="srgba(0,0,102,1)"/>
  <circle cx="6" cy="7" r="1" fill="srgba(0,0,102,1)"/>
  <circle cx="7" cy="7" r="1" fill="srgba(0%,0%,40.0031%,1)"/>
  <circle cx="8" cy="7" r="1" fill="srgba(0%,0%,39.881%,1)"/>
  <circle cx="9" cy="7" r="1" fill="srgba(0%,0%,39.881%,1)"/>
  <circle cx="10" cy="7" r="1" fill="srgba(0%,0%,39.971%,1)"/>
  <circle cx="11" cy="7" r="1" fill="srgba(6.8513%,6.8513%,44.1108%,1)"/>
  <circle cx="12" cy="7" r="1" fill="srgba(4.76539%,4.76539%,42.8626%,1)"/>
  <circle cx="13" cy="7" r="1" fill="srgba(0%,0%,39.8917%,1)"/>
  <circle cx="14" cy="7" r="1" fill="srgba(0.90486%,0.90486%,40.267%,1)"/>
  <circle cx="15" cy="7" r="1" fill="srgba(0.0839246%,0.0839246%,39.9969%,1)"/>
  <circle cx="0" cy="8" r="1" fill="srgba(0,0,102,1)"/>
  <circle cx="1" cy="8" r="1" fill="srgba(0,0,102,1)"/>
  <circle cx="2" cy="8" r="1" fill="srgba(0,0,102,1)"/>
  <circle cx="3" cy="8" r="1" fill="srgba(0,0,102,1)"/>
  <circle cx="4" cy="8" r="1" fill="srgba(0,0,102,1)"/>
  <circle cx="5" cy="8" r="1" fill="srgba(0,0,102,1)"/>
  <circle cx="6" cy="8" r="1" fill="srgba(0,0,102,1)"/>
  <circle cx="7" cy="8" r="1" fill="srgba(0%,0%,39.942%,1)"/>
  <circle cx="8" cy="8" r="1" fill="srgba(3.38903%,3.38903%,42.0218%,1)"/>
  <circle cx="9" cy="8" r="1" fill="srgba(3.29442%,3.29442%,41.9654%,1)"/>
  <circle cx="10" cy="8" r="1" fill="srgba(0%,0%,39.942%,1)"/>
  <circle cx="11" cy="8" r="1" fill="srgba(0%,0%,39.7681%,1)"/>
  <circle cx="12" cy="8" r="1" fill="srgba(0%,0%,39.5483%,1)"/>
  <circle cx="13" cy="8" r="1" fill="srgba(8.67628%,8.67628%,45.2125%,1)"/>
  <circle cx="14" cy="8" r="1" fill="srgba(42.8901%,42.8901%,65.7343%,1)"/>
  <circle cx="15" cy="8" r="1" fill="srgba(7.59747%,7.59747%,44.5594%,1)"/>
  <circle cx="0" cy="9" r="1" fill="srgba(0,0,102,1)"/>
  <circle cx="1" cy="9" r="1" fill="srgba(0,0,102,1)"/>
  <circle cx="2" cy="9" r="1" fill="srgba(0,0,102,1)"/>
  <circle cx="3" cy="9" r="1" fill="srgba(0,0,102,1)"/>
  <circle cx="4" cy="9" r="1" fill="srgba(0,0,102,1)"/>
  <circle cx="5" cy="9" r="1" fill="srgba(0,0,102,1)"/>
  <circle cx="6" cy="9" r="1" fill="srgba(0%,0%,39.9924%,1)"/>
  <circle cx="7" cy="9" r="1" fill="srgba(0%,0%,39.5911%,1)"/>
  <circle cx="8" cy="9" r="1" fill="srgba(35.2697%,35.2697%,61.1627%,1)"/>
  <circle cx="9" cy="9" r="1" fill="srgba(34.3343%,34.3343%,60.5997%,1)"/>
  <circle cx="10" cy="9" r="1" fill="srgba(0%,0%,39.5453%,1)"/>
  <circle cx="11" cy="9" r="1" fill="srgba(0%,0%,40.0031%,1)"/>
  <circle cx="12" cy="9" r="1" fill="srgba(0%,0%,39.6445%,1)"/>
  <circle cx="13" cy="9" r="1" fill="srgba(5.38186%,5.38186%,43.0732%,1)"/>
  <circle cx="14" cy="9" r="1" fill="srgba(26.949%,26.949%,56.1791%,1)"/>
  <circle cx="15" cy="9" r="1" fill="srgba(4.67842%,4.67842%,42.8077%,1)"/>
  <circle cx="0" cy="10" r="1" fill="srgba(0,0,102,1)"/>
  <circle cx="1" cy="10" r="1" fill="srgba(0%,0%,39.9969%,1)"/>
  <circle cx="2" cy="10" r="1" fill="srgba(0%,0%,39.9924%,1)"/>
  <circle cx="3" cy="10" r="1" fill="srgba(0,0,102,1)"/>
  <circle cx="4" cy="10" r="1" fill="srgba(0,0,102,1)"/>
  <circle cx="5" cy="10" r="1" fill="srgba(0,0,102,1)"/>
  <circle cx="6" cy="10" r="1" fill="srgba(0%,0%,39.9969%,1)"/>
  <circle cx="7" cy="10" r="1" fill="srgba(0%,0%,39.8611%,1)"/>
  <circle cx="8" cy="10" r="1" fill="srgba(10.1854%,10.1854%,46.1112%,1)"/>
  <circle cx="9" cy="10" r="1" fill="srgba(9.90616%,9.90616%,45.9434%,1)"/>
  <circle cx="10" cy="10" r="1" fill="srgba(0%,0%,39.8489%,1)"/>
  <circle cx="11" cy="10" r="1" fill="srgba(0%,0%,39.6735%,1)"/>
  <circle cx="12" cy="10" r="1" fill="srgba(9.57351%,9.57351%,45.7496%,1)"/>
  <circle cx="13" cy="10" r="1" fill="srgba(9.19051%,9.19051%,45.3696%,1)"/>
  <circle cx="14" cy="10" r="1" fill="srgba(0%,0%,39.0295%,1)"/>
  <circle cx="15" cy="10" r="1" fill="srgba(0%,0%,39.8764%,1)"/>
  <circle cx="0" cy="11" r="1" fill="srgba(0,0,102,1)"/>
  <circle cx="1" cy="11" r="1" fill="srgba(0.0961318%,0.0961318%,39.6246%,1)"/>
  <circle cx="2" cy="11" r="1" fill="srgba(0.192264%,0.192264%,39.5041%,1)"/>
  <circle cx="3" cy="11" r="1" fill="srgba(0%,0%,39.9344%,1)"/>
  <circle cx="4" cy="11" r="1" fill="srgba(0%,0%,40.0031%,1)"/>
  <circle cx="5" cy="11" r="1" fill="srgba(0,0,102,1)"/>
  <circle cx="6" cy="11" r="1" fill="srgba(0,0,102,1)"/>
  <circle cx="7" cy="11" r="1" fill="srgba(0%,0%,40.0076%,1)"/>
  <circle cx="8" cy="11" r="1" fill="srgba(0%,0%,39.6689%,1)"/>
  <circle cx="9" cy="11" r="1" fill="srgba(0%,0%,39.678%,1)"/>
  <circle cx="10" cy="11" r="1" fill="srgba(0%,0%,40.0076%,1)"/>
  <circle cx="11" cy="11" r="1" fill="srgba(0%,0%,39.3362%,1)"/>
  <circle cx="12" cy="11" r="1" fill="srgba(18.2193%,18.2193%,50.9316%,1)"/>
  <circle cx="13" cy="11" r="1" fill="srgba(19.1318%,19.1318%,51.4794%,1)"/>
  <circle cx="14" cy="11" r="1" fill="srgba(0%,0%,39.324%,1)"/>
  <circle cx="15" cy="11" r="1" fill="srgba(0,0,102,1)"/>
  <circle cx="0" cy="12" r="1" fill="srgba(0%,0%,39.8734%,1)"/>
  <circle cx="1" cy="12" r="1" fill="srgba(19.6048%,19.6048%,51.7632%,1)"/>
  <circle cx="2" cy="12" r="1" fill="srgba(29.4911%,29.4911%,57.6959%,1)"/>
  <circle cx="3" cy="12" r="1" fill="srgba(2.26749%,2.26749%,41.3611%,1)"/>
  <circle cx="4" cy="12" r="1" fill="srgba(0%,0%,39.9008%,1)"/>
  <circle cx="5" cy="12" r="1" fill="srgba(0,0,102,1)"/>
  <circle cx="6" cy="12" r="1" fill="srgba(0,0,102,1)"/>
  <circle cx="7" cy="12" r="1" fill="srgba(0,0,102,1)"/>
  <circle cx="8" cy="12" r="1" fill="srgba(0,0,102,1)"/>
  <circle cx="9" cy="12" r="1" fill="srgba(0,0,102,1)"/>
  <circle cx="10" cy="12" r="1" fill="srgba(0,0,102,1)"/>
  <circle cx="11" cy="12" r="1" fill="srgba(0%,0%,38.8251%,1)"/>
  <circle cx="12" cy="12" r="1" fill="srgba(18.2925%,18.2925%,50.605%,1)"/>
  <circle cx="13" cy="12" r="1" fill="srgba(20.0549%,20.0549%,52.0394%,1)"/>
  <circle cx="14" cy="12" r="1" fill="srgba(0%,0%,39.3027%,1)"/>
  <circle cx="15" cy="12" r="1" fill="srgba(0,0,102,1)"/>
  <circle cx="0" cy="13" r="1" fill="srgba(0.0747692%,0.0747692%,40.0443%,1)"/>
  <circle cx="1" cy="13" r="1" fill="srgba(45.6382%,45.6382%,67.3823%,1)"/>
  <circle cx="2" cy="13" r="1" fill="srgba(66.9902%,66.9902%,80.1938%,1)"/>
  <circle cx="3" cy="13" r="1" fill="srgba(6.21805%,6.21805%,43.7308%,1)"/>
  <circle cx="4" cy="13" r="1" fill="srgba(0%,0%,39.7696%,1)"/>
  <circle cx="5" cy="13" r="1" fill="srgba(0,0,102,1)"/>
  <circle cx="6" cy="13" r="1" fill="srgba(0,0,102,1)"/>
  <circle cx="7" cy="13" r="1" fill="srgba(0,0,102,1)"/>
  <circle cx="8" cy="13" r="1" fill="srgba(0,0,102,1)"/>
  <circle cx="9" cy="13" r="1" fill="srgba(0%,0%,39.9908%,1)"/>
  <circle cx="10" cy="13" r="1" fill="srgba(0%,0%,39.9725%,1)"/>
  <circle cx="11" cy="13" r="1" fill="srgba(17.0108%,17.0108%,50.2068%,1)"/>
  <circle cx="12" cy="13" r="1" fill="srgba(31.7556%,31.7556%,59.0524%,1)"/>
  <circle cx="13" cy="13" r="1" fill="srgba(20.6973%,20.6973%,52.4193%,1)"/>
  <circle cx="14" cy="13" r="1" fill="srgba(0%,0%,39.2737%,1)"/>
  <circle cx="15" cy="13" r="1" fill="srgba(0,0,102,1)"/>
  <circle cx="0" cy="14" r="1" fill="srgba(0%,0%,39.8795%,1)"/>
  <circle cx="1" cy="14" r="1" fill="srgba(7.46777%,7.46777%,44.4816%,1)"/>
  <circle cx="2" cy="14" r="1" fill="srgba(11.6548%,11.6548%,46.9932%,1)"/>
  <circle cx="3" cy="14" r="1" fill="srgba(0.555428%,0.555428%,40.3342%,1)"/>
  <circle cx="4" cy="14" r="1" fill="srgba(0%,0%,39.9847%,1)"/>
  <circle cx="5" cy="14" r="1" fill="srgba(0,0,102,1)"/>
  <circle cx="6" cy="14" r="1" fill="srgba(0,0,102,1)"/>
  <circle cx="7" cy="14" r="1" fill="srgba(0,0,102,1)"/>
  <circle cx="8" cy="14" r="1" fill="srgba(0,0,102,1)"/>
  <circle cx="9" cy="14" r="1" fill="srgba(0%,0%,39.9771%,1)"/>
  <circle cx="10" cy="14" r="1" fill="srgba(0.0198367%,0.0198367%,40.0122%,1)"/>
  <circle cx="11" cy="14" r="1" fill="srgba(35.3033%,35.3033%,61.181%,1)"/>
  <circle cx="12" cy="14" r="1" fill="srgba(45.3803%,45.3803%,67.2267%,1)"/>
  <circle cx="13" cy="14" r="1" fill="srgba(21.4115%,21.4115%,52.8466%,1)"/>
  <circle cx="14" cy="14" r="1" fill="srgba(0%,0%,39.2462%,1)"/>
  <circle cx="15" cy="14" r="1" fill="srgba(0,0,102,1)"/>
  <circle cx="0" cy="15" r="1" fill="srgba(0%,0%,40.0122%,1)"/>
  <circle cx="1" cy="15" r="1" fill="srgba(0%,0%,39.7269%,1)"/>
  <circle cx="2" cy="15" r="1" fill="srgba(0%,0%,39.5544%,1)"/>
  <circle cx="3" cy="15" r="1" fill="srgba(0%,0%,39.9893%,1)"/>
  <circle cx="4" cy="15" r="1" fill="srgba(0,0,102,1)"/>
  <circle cx="5" cy="15" r="1" fill="srgba(0,0,102,1)"/>
  <circle cx="6" cy="15" r="1" fill="srgba(0,0,102,1)"/>
  <circle cx="7" cy="15" r="1" fill="srgba(0,0,102,1)"/>
  <circle cx="8" cy="15" r="1" fill="srgba(0,0,102,1)"/>
  <circle cx="9" cy="15" r="1" fill="srgba(0,0,102,1)"/>
  <circle cx="10" cy="15" r="1" fill="srgba(0%,0%,39.9756%,1)"/>
  <circle cx="11" cy="15" r="1" fill="srgba(0.302129%,0.302129%,40.0488%,1)"/>
  <circle cx="12" cy="15" r="1" fill="srgba(21.1643%,21.1643%,52.5917%,1)"/>
  <circle cx="13" cy="15" r="1" fill="srgba(23.3478%,23.3478%,54.0093%,1)"/>
  <circle cx="14" cy="15" r="1" fill="srgba(0%,0%,39.2248%,1)"/>
  <circle cx="15" cy="15" r="1" fill="srgba(0,0,102,1)"/>
</svg>
