<?xml version="1.0" standalone="no"?>
<!DOCTYPE svg PUBLIC "-//W3C//DTD SVG 20010904//EN"
  "http://www.w3.org/TR/2001/REC-SVG-20010904/DTD/svg10.dtd">
<svg width="16" height="16">
  <circle cx="0" cy="0" r="1" fill="red"/>
  <circle cx="1" cy="0" r="1" fill="red"/>
  <circle cx="2" cy="0" r="1" fill="red"/>
  <circle cx="3" cy="0" r="1" fill="red"/>
  <circle cx="4" cy="0" r="1" fill="red"/>
  <circle cx="5" cy="0" r="1" fill="red"/>
  <circle cx="6" cy="0" r="1" fill="red"/>
  <circle cx="7" cy="0" r="1" fill="red"/>
  <circle cx="8" cy="0" r="1" fill="red"/>
  <circle cx="9" cy="0" r="1" fill="red"/>
  <circle cx="10" cy="0" r="1" fill="red"/>
  <circle cx="11" cy="0" r="1" fill="red"/>
  <circle cx="12" cy="0" r="1" fill="red"/>
  <circle cx="13" cy="0" r="1" fill="red"/>
  <circle cx="14" cy="0" r="1" fill="red"/>
  <circle cx="15" cy="0" r="1" fill="red"/>
  <circle cx="0" cy="1" r="1" fill="red"/>
  <circle cx="1" cy="1" r="1" fill="red"/>
  <circle cx="2" cy="1" r="1" fill="red"/>
  <circle cx="3" cy="1" r="1" fill="red"/>
  <circle cx="4" cy="1" r="1" fill="red"/>
  <circle cx="5" cy="1" r="1" fill="srgba(100%,0.0350958%,0.0167849%,1)"/>
  <circle cx="6" cy="1" r="1" fill="srgba(100%,0.289921%,0.122072%,1)"/>
  <circle cx="7" cy="1" r="1" fill="srgba(99.9603%,0.296025%,0.350958%,1)"/>
  <circle cx="8" cy="1" r="1" fill="srgba(99.9588%,0.289921%,0.341802%,1)"/>
  <circle cx="9" cy="1" r="1" fill="srgba(100%,0.239567%,0.0320439%,1)"/>
  <circle cx="10" cy="1" r="1" fill="srgba(100%,0.0289921%,0.00610361%,1)"/>
  <circle cx="11" cy="1" r="1" fill="red"/>
  <circle cx="12" cy="1" r="1" fill="red"/>
  <circle cx="13" cy="1" r="1" fill="red"/>
  <circle cx="14" cy="1" r="1" fill="red"/>
  <circle cx="15" cy="1" r="1" fill="red"/>
  <circle cx="0" cy="2" r="1" fill="red"/>
  <circle cx="1" cy="2" r="1" fill="red"/>
  <circle cx="2" cy="2" r="1" fill="red"/>
  <circle cx="3" cy="2" r="1" fill="red"/>
  <circle cx="4" cy="2" r="1" fill="srgba(97.3587%,7.62341%,8.08881%,1)"/>
  <circle cx="5" cy="2" r="1" fill="srgba(95.375%,14.5586%,15.6039%,1)"/>
  <circle cx="6" cy="2" r="1" fill="srgba(86.7628%,16.6018%,23.9277%,1)"/>
  <circle cx="7" cy="2" r="1" fill="srgba(72.6101%,26.9871%,31.3832%,1)"/>
  <circle cx="8" cy="2" r="1" fill="srgba(67.4098%,26.6667%,33.3745%,1)"/>
  <circle cx="9" cy="2" r="1" fill="srgba(74.2428%,13.9223%,27.866%,1)"/>
  <circle cx="10" cy="2" r="1" fill="srgba(87.48%,11.667%,15.8068%,1)"/>
  <circle cx="11" cy="2" r="1" fill="srgba(94.7662%,7.1046%,7.28923%,1)"/>
  <circle cx="12" cy="2" r="1" fill="srgba(100%,0.537118%,0%,1)"/>
  <circle cx="13" cy="2" r="1" fill="srgba(99.9878%,0.521859%,0.0137331%,1)"/>
  <circle cx="14" cy="2" r="1" fill="srgba(99.9908%,0.418097%,0.00610361%,1)"/>
  <circle cx="15" cy="2" r="1" fill="srgba(99.9893%,0.390631%,0.00610361%,1)"/>
  <circle cx="0" cy="3" r="1" fill="red"/>
  <circle cx="1" cy="3" r="1" fill="red"/>
  <circle cx="2" cy="3" r="1" fill="red"/>
  <circle cx="3" cy="3" r="1" fill="red"/>
  <circle cx="4" cy="3" r="1" fill="srgba(64.9256%,36.9436%,42.0661%,1)"/>
  <circle cx="5" cy="3" r="1" fill="srgba(56.6354%,49.5338%,39.147%,1)"/>
  <circle cx="6" cy="3" r="1" fill="srgba(58.6267%,10.6935%,30.7317%,1)"/>
  <circle cx="7" cy="3" r="1" fill="srgba(38.6648%,44.9821%,50.1717%,1)"/>
  <circle cx="8" cy="3" r="1" fill="srgba(26.1662%,48.8273%,54.3374%,1)"/>
  <circle cx="9" cy="3" r="1" fill="srgba(57.7173%,15.198%,28.4886%,1)"/>
  <circle cx="10" cy="3" r="1" fill="srgba(41.2528%,37.5814%,48.304%,1)"/>
  <circle cx="11" cy="3" r="1" fill="srgba(58.3719%,28.0552%,29.0105%,1)"/>
  <circle cx="12" cy="3" r="1" fill="srgba(100%,7.3228%,2.76188%,1)"/>
  <circle cx="13" cy="3" r="1" fill="srgba(99.7101%,6.15854%,2.35447%,1)"/>
  <circle cx="14" cy="3" r="1" fill="srgba(99.7574%,4.96681%,1.63424%,1)"/>
  <circle cx="15" cy="3" r="1" fill="srgba(99.8047%,4.28779%,1.08339%,1)"/>
  <circle cx="0" cy="4" r="1" fill="srgba(100%,0.444038%,0.444038%,1)"/>
  <circle cx="1" cy="4" r="1" fill="srgba(100%,0.444038%,0.444038%,1)"/>
  <circle cx="2" cy="4" r="1" fill="srgba(100%,0.43946%,0.43946%,1)"/>
  <circle cx="3" cy="4" r="1" fill="red"/>
  <circle cx="4" cy="4" r="1" fill="srgba(63.9841%,22.9068%,32.1111%,1)"/>
  <circle cx="5" cy="4" r="1" fill="srgba(10.515%,22.0676%,29.7047%,1)"/>
  <circle cx="6" cy="4" r="1" fill="srgba(26.0472%,3.19219%,24.9775%,1)"/>
  <circle cx="7" cy="4" r="1" fill="srgba(14.5174%,23.5431%,38.3001%,1)"/>
  <circle cx="8" cy="4" r="1" fill="srgba(12.4697%,24.6036%,35.7443%,1)"/>
  <circle cx="9" cy="4" r="1" fill="srgba(69.8787%,9.91073%,13.5485%,1)"/>
  <circle cx="10" cy="4" r="1" fill="srgba(40.5982%,25.0553%,32.4865%,1)"/>
  <circle cx="11" cy="4" r="1" fill="srgba(31.4153%,11.6686%,13.3547%,1)"/>
  <circle cx="12" cy="4" r="1" fill="srgba(94.1405%,27.8599%,27.8355%,1)"/>
  <circle cx="13" cy="4" r="1" fill="srgba(100%,40.2747%,40.1953%,1)"/>
  <circle cx="14" cy="4" r="1" fill="srgba(99.9496%,50.5592%,50.4753%,1)"/>
  <circle cx="15" cy="4" r="1" fill="srgba(99.8535%,57.4487%,57.3617%,1)"/>
  <circle cx="0" cy="5" r="1" fill="srgba(100%,64.5151%,64.5151%,1)"/>
  <circle cx="1" cy="5" r="1" fill="srgba(100%,64.5151%,64.5151%,1)"/>
  <circle cx="2" cy="5" r="1" fill="srgba(100%,64.5151%,64.5151%,1)"/>
  <circle cx="3" cy="5" r="1" fill="srgba(100%,64.7593%,64.6479%,1)"/>
  <circle cx="4" cy="5" r="1" fill="srgba(93.051%,60.2548%,61.8921%,1)"/>
  <circle cx="5" cy="5" r="1" fill="srgba(24.6143%,14.8791%,17.6715%,1)"/>
  <circle cx="6" cy="5" r="1" fill="srgba(0%,0%,2.12253%,1)"/>
  <circle cx="7" cy="5" r="1" fill="srgba(0%,0.141909%,1.15358%,1)"/>
  <circle cx="8" cy="5" r="1" fill="srgba(9.81003%,0%,0.180056%,1)"/>
  <circle cx="9" cy="5" r="1" fill="srgba(84.3214%,1.10933%,1.71511%,1)"/>
  <circle cx="10" cy="5" r="1" fill="srgba(65.0599%,4.84321%,7.1809%,1)"/>
  <circle cx="11" cy="5" r="1" fill="srgba(4.46479%,0.585946%,0.753796%,1)"/>
  <circle cx="12" cy="5" r="1" fill="srgba(29.0471%,1.90127%,1.89364%,1)"/>
  <circle cx="13" cy="5" r="1" fill="srgba(67.8309%,5.79232%,5.79232%,1)"/>
  <circle cx="14" cy="5" r="1" fill="srgba(94.1527%,12.6711%,12.6711%,1)"/>
  <circle cx="15" cy="5" r="1" fill="srgba(100%,21.384%,21.384%,1)"/>
  <circle cx="0" cy="6" r="1" fill="white"/>
  <circle cx="1" cy="6" r="1" fill="white"/>
  <circle cx="2" cy="6" r="1" fill="white"/>
  <circle cx="3" cy="6" r="1" fill="white"/>
  <circle cx="4" cy="6" r="1" fill="srgba(99.0417%,89.369%,89.3156%,1)"/>
  <circle cx="5" cy="6" r="1" fill="srgba(33.2006%,17.3556%,17.2595%,1)"/>
  <circle cx="6" cy="6" r="1" fill="black"/>
  <circle cx="7" cy="6" r="1" fill="black"/>
  <circle cx="8" cy="6" r="1" fill="srgba(10.0572%,0%,0%,1)"/>
  <circle cx="9" cy="6" r="1" fill="srgba(87.0298%,0%,0%,1)"/>
  <circle cx="10" cy="6" r="1" fill="srgba(74.5403%,0%,0%,1)"/>
  <circle cx="11" cy="6" r="1" fill="srgba(3.04265%,0%,0%,1)"/>
  <circle cx="12" cy="6" r="1" fill="black"/>
  <circle cx="13" cy="6" r="1" fill="srgba(3.07012%,0%,0%,1)"/>
  <circle cx="14" cy="6" r="1" fill="srgba(25.0034%,0%,0%,1)"/>
  <circle cx="15" cy="6" r="1" fill="srgba(58.7549%,0%,0%,1)"/>
  <circle cx="0" cy="7" r="1" fill="white"/>
  <circle cx="1" cy="7" r="1" fill="white"/>
  <circle cx="2" cy="7" r="1" fill="white"/>
  <circle cx="3" cy="7" r="1" fill="white"/>
  <circle cx="4" cy="7" r="1" fill="srgba(99.0295%,95.0576%,95.0576%,1)"/>
  <circle cx="5" cy="7" r="1" fill="srgba(33.1518%,29.9123%,29.9123%,1)"/>
  <circle cx="6" cy="7" r="1" fill="black"/>
  <circle cx="7" cy="7" r="1" fill="black"/>
  <circle cx="8" cy="7" r="1" fill="srgba(10.1991%,0%,0%,1)"/>
  <circle cx="9" cy="7" r="1" fill="srgba(87.1595%,0%,0%,1)"/>
  <circle cx="10" cy="7" r="1" fill="srgba(74.5129%,0%,0%,1)"/>
  <circle cx="11" cy="7" r="1" fill="srgba(3.03655%,0%,0%,1)"/>
  <circle cx="12" cy="7" r="1" fill="black"/>
  <circle cx="13" cy="7" r="1" fill="black"/>
  <circle cx="14" cy="7" r="1" fill="black"/>
  <circle cx="15" cy="7" r="1" fill="srgba(1.02388%,0%,0%,1)"/>
  <circle cx="0" cy="8" r="1" fill="white"/>
  <circle cx="1" cy="8" r="1" fill="white"/>
  <circle cx="2" cy="8" r="1" fill="white"/>
  <circle cx="3" cy="8" r="1" fill="white"/>
  <circle cx="4" cy="8" r="1" fill="srgba(99.0249%,95.2468%,95.2468%,1)"/>
  <circle cx="5" cy="8" r="1" fill="srgba(33.135%,30.3243%,30.3243%,1)"/>
  <circle cx="6" cy="8" r="1" fill="black"/>
  <circle cx="7" cy="8" r="1" fill="black"/>
  <circle cx="8" cy="8" r="1" fill="srgba(10.2678%,0%,0%,1)"/>
  <circle cx="9" cy="8" r="1" fill="srgba(87.2282%,0%,0%,1)"/>
  <circle cx="10" cy="8" r="1" fill="srgba(74.522%,0%,0%,1)"/>
  <circle cx="11" cy="8" r="1" fill="srgba(3.04112%,0%,0%,1)"/>
  <circle cx="12" cy="8" r="1" fill="black"/>
  <circle cx="13" cy="8" r="1" fill="black"/>
  <circle cx="14" cy="8" r="1" fill="black"/>
  <circle cx="15" cy="8" r="1" fill="black"/>
  <circle cx="0" cy="9" r="1" fill="white"/>
  <circle cx="1" cy="9" r="1" fill="white"/>
  <circle cx="2" cy="9" r="1" fill="white"/>
  <circle cx="3" cy="9" r="1" fill="white"/>
  <circle cx="4" cy="9" r="1" fill="srgba(99.028%,95.935%,95.7733%,1)"/>
  <circle cx="5" cy="9" r="1" fill="srgba(33.1487%,30.193%,29.9611%,1)"/>
  <circle cx="6" cy="9" r="1" fill="black"/>
  <circle cx="7" cy="9" r="1" fill="black"/>
  <circle cx="8" cy="9" r="1" fill="srgba(10.3044%,0%,0%,1)"/>
  <circle cx="9" cy="9" r="1" fill="srgba(87.2724%,0%,0%,1)"/>
  <circle cx="10" cy="9" r="1" fill="srgba(74.5327%,0%,0%,1)"/>
  <circle cx="11" cy="9" r="1" fill="srgba(3.0457%,0%,0%,1)"/>
  <circle cx="12" cy="9" r="1" fill="black"/>
  <circle cx="13" cy="9" r="1" fill="black"/>
  <circle cx="14" cy="9" r="1" fill="black"/>
  <circle cx="15" cy="9" r="1" fill="srgba(0.0183108%,0%,0%,1)"/>
  <circle cx="0" cy="10" r="1" fill="srgba(67.7211%,67.7211%,85.3925%,1)"/>
  <circle cx="1" cy="10" r="1" fill="srgba(67.7211%,67.7211%,85.3925%,1)"/>
  <circle cx="2" cy="10" r="1" fill="srgba(67.7211%,67.7211%,85.3925%,1)"/>
  <circle cx="3" cy="10" r="1" fill="srgba(67.7668%,67.8386%,85.5177%,1)"/>
  <circle cx="4" cy="10" r="1" fill="srgba(66.8482%,65.8778%,83.5538%,1)"/>
  <circle cx="5" cy="10" r="1" fill="srgba(27.5456%,22.7283%,30.9026%,1)"/>
  <circle cx="6" cy="10" r="1" fill="srgba(15.9106%,13.3745%,12.7382%,1)"/>
  <circle cx="7" cy="10" r="1" fill="srgba(20.3311%,8.22766%,8.04456%,1)"/>
  <circle cx="8" cy="10" r="1" fill="srgba(32.6574%,8.04913%,7.94842%,1)"/>
  <circle cx="9" cy="10" r="1" fill="srgba(90.0816%,3.61181%,3.55993%,1)"/>
  <circle cx="10" cy="10" r="1" fill="srgba(86.8284%,0%,0%,1)"/>
  <circle cx="11" cy="10" r="1" fill="srgba(49.2348%,0%,0%,1)"/>
  <circle cx="12" cy="10" r="1" fill="srgba(43.7186%,0%,0%,1)"/>
  <circle cx="13" cy="10" r="1" fill="srgba(39.3225%,0%,0%,1)"/>
  <circle cx="14" cy="10" r="1" fill="srgba(34.8699%,0%,0%,1)"/>
  <circle cx="15" cy="10" r="1" fill="srgba(21.6571%,0%,0%,1)"/>
  <circle cx="0" cy="11" r="1" fill="srgba(9.4255%,9.4255%,59.0082%,1)"/>
  <circle cx="1" cy="11" r="1" fill="srgba(9.4255%,9.4255%,59.0082%,1)"/>
  <circle cx="2" cy="11" r="1" fill="srgba(9.4255%,9.4255%,59.0082%,1)"/>
  <circle cx="3" cy="11" r="1" fill="srgba(9.42702%,9.42397%,59.0097%,1)"/>
  <circle cx="4" cy="11" r="1" fill="srgba(8.93721%,9.24239%,59.0372%,1)"/>
  <circle cx="5" cy="11" r="1" fill="srgba(16.7956%,11.9692%,53.7911%,1)"/>
  <circle cx="6" cy="11" r="1" fill="srgba(61.0346%,53.2097%,69.7581%,1)"/>
  <circle cx="7" cy="11" r="1" fill="srgba(87.602%,36.173%,39.7711%,1)"/>
  <circle cx="8" cy="11" r="1" fill="srgba(90.3777%,27.4968%,30.3456%,1)"/>
  <circle cx="9" cy="11" r="1" fill="srgba(96.7102%,11.1696%,12.0211%,1)"/>
  <circle cx="10" cy="11" r="1" fill="red"/>
  <circle cx="11" cy="11" r="1" fill="red"/>
  <circle cx="12" cy="11" r="1" fill="red"/>
  <circle cx="13" cy="11" r="1" fill="srgba(99.9771%,0%,0%,1)"/>
  <circle cx="14" cy="11" r="1" fill="srgba(99.5026%,0%,0%,1)"/>
  <circle cx="15" cy="11" r="1" fill="srgba(92.5658%,0%,0%,1)"/>
  <circle cx="0" cy="12" r="1" fill="srgba(8.97841%,8.97841%,58.8052%,1)"/>
  <circle cx="1" cy="12" r="1" fill="srgba(8.97841%,8.97841%,58.8052%,1)"/>
  <circle cx="2" cy="12" r="1" fill="srgba(8.97841%,8.97841%,58.8052%,1)"/>
  <circle cx="3" cy="12" r="1" fill="srgba(8.97841%,8.97841%,58.8052%,1)"/>
  <circle cx="4" cy="12" r="1" fill="srgba(8.99062%,8.98299%,58.8067%,1)"/>
  <circle cx="5" cy="12" r="1" fill="srgba(8.65644%,8.8365%,59.0799%,1)"/>
  <circle cx="6" cy="12" r="1" fill="srgba(11.9615%,11.9066%,60.4074%,1)"/>
  <circle cx="7" cy="12" r="1" fill="srgba(36.4782%,13.1182%,48.0888%,1)"/>
  <circle cx="8" cy="12" r="1" fill="srgba(46.5492%,11.194%,40.3281%,1)"/>
  <circle cx="9" cy="12" r="1" fill="srgba(87.8294%,2.60929%,9.02724%,1)"/>
  <circle cx="10" cy="12" r="1" fill="red"/>
  <circle cx="11" cy="12" r="1" fill="red"/>
  <circle cx="12" cy="12" r="1" fill="red"/>
  <circle cx="13" cy="12" r="1" fill="red"/>
  <circle cx="14" cy="12" r="1" fill="red"/>
  <circle cx="15" cy="12" r="1" fill="red"/>
  <circle cx="0" cy="13" r="1" fill="srgba(23,23,150,1)"/>
  <circle cx="1" cy="13" r="1" fill="srgba(23,23,150,1)"/>
  <circle cx="2" cy="13" r="1" fill="srgba(23,23,150,1)"/>
  <circle cx="3" cy="13" r="1" fill="srgba(23,23,150,1)"/>
  <circle cx="4" cy="13" r="1" fill="srgba(23,23,150,1)"/>
  <circle cx="5" cy="13" r="1" fill="srgba(9.02724%,9.02724%,58.8266%,1)"/>
  <circle cx="6" cy="13" r="1" fill="srgba(7.9942%,8.93416%,59.2996%,1)"/>
  <circle cx="7" cy="13" r="1" fill="srgba(20.0855%,7.51659%,51.3588%,1)"/>
  <circle cx="8" cy="13" r="1" fill="srgba(29.3858%,6.33402%,43.4012%,1)"/>
  <circle cx="9" cy="13" r="1" fill="srgba(79.2035%,1.24666%,8.62898%,1)"/>
  <circle cx="10" cy="13" r="1" fill="red"/>
  <circle cx="11" cy="13" r="1" fill="srgba(99.3881%,0%,0%,1)"/>
  <circle cx="12" cy="13" r="1" fill="srgba(99.3561%,0%,0%,1)"/>
  <circle cx="13" cy="13" r="1" fill="red"/>
  <circle cx="14" cy="13" r="1" fill="red"/>
  <circle cx="15" cy="13" r="1" fill="red"/>
  <circle cx="0" cy="14" r="1" fill="srgba(23,23,150,1)"/>
  <circle cx="1" cy="14" r="1" fill="srgba(23,23,150,1)"/>
  <circle cx="2" cy="14" r="1" fill="srgba(23,23,150,1)"/>
  <circle cx="3" cy="14" r="1" fill="srgba(23,23,150,1)"/>
  <circle cx="4" cy="14" r="1" fill="srgba(23,23,150,1)"/>
  <circle cx="5" cy="14" r="1" fill="srgba(23,23,150,1)"/>
  <circle cx="6" cy="14" r="1" fill="srgba(8.47791%,9.07301%,59.173%,1)"/>
  <circle cx="7" cy="14" r="1" fill="srgba(17.2427%,8.26276%,53.8888%,1)"/>
  <circle cx="8" cy="14" r="1" fill="srgba(18.6694%,7.08171%,46.1845%,1)"/>
  <circle cx="9" cy="14" r="1" fill="srgba(60.4379%,1.33516%,8.70985%,1)"/>
  <circle cx="10" cy="14" r="1" fill="red"/>
  <circle cx="11" cy="14" r="1" fill="srgba(90.0084%,0%,0%,1)"/>
  <circle cx="12" cy="14" r="1" fill="srgba(50.7256%,0%,0%,1)"/>
  <circle cx="13" cy="14" r="1" fill="srgba(76.4294%,0%,0%,1)"/>
  <circle cx="14" cy="14" r="1" fill="srgba(98.0667%,0%,0%,1)"/>
  <circle cx="15" cy="14" r="1" fill="red"/>
  <circle cx="0" cy="15" r="1" fill="srgba(23,23,150,1)"/>
  <circle cx="1" cy="15" r="1" fill="srgba(23,23,150,1)"/>
  <circle cx="2" cy="15" r="1" fill="srgba(23,23,150,1)"/>
  <circle cx="3" cy="15" r="1" fill="srgba(23,23,150,1)"/>
  <circle cx="4" cy="15" r="1" fill="srgba(23,23,150,1)"/>
  <circle cx="5" cy="15" r="1" fill="srgba(23,23,150,1)"/>
  <circle cx="6" cy="15" r="1" fill="srgba(8.80293%,9.04097%,58.9639%,1)"/>
  <circle cx="7" cy="15" r="1" fill="srgba(12.2789%,8.75715%,57.1115%,1)"/>
  <circle cx="8" cy="15" r="1" fill="srgba(12.4071%,7.67376%,50.0359%,1)"/>
  <circle cx="9" cy="15" r="1" fill="srgba(60.0183%,1.30312%,8.49622%,1)"/>
  <circle cx="10" cy="15" r="1" fill="red"/>
  <circle cx="11" cy="15" r="1" fill="srgba(94.8821%,0%,0%,1)"/>
  <circle cx="12" cy="15" r="1" fill="srgba(23.0045%,0%,0%,1)"/>
  <circle cx="13" cy="15" r="1" fill="srgba(7.10002%,0%,0%,1)"/>
  <circle cx="14" cy="15" r="1" fill="srgba(52.3064%,0%,0%,1)"/>
  <circle cx="15" cy="15" r="1" fill="srgba(95.6649%,0%,0%,1)"/>
</svg>
