<?xml version="1.0" standalone="no"?>
<!DOCTYPE svg PUBLIC "-//W3C//DTD SVG 20010904//EN"
  "http://www.w3.org/TR/2001/REC-SVG-20010904/DTD/svg10.dtd">
<svg width="16" height="16">
  <circle cx="0" cy="0" r="1" fill="srgba(0,32,159,1)"/>
  <circle cx="1" cy="0" r="1" fill="srgba(0,32,159,1)"/>
  <circle cx="2" cy="0" r="1" fill="srgba(0,32,159,1)"/>
  <circle cx="3" cy="0" r="1" fill="srgba(0,32,159,1)"/>
  <circle cx="4" cy="0" r="1" fill="srgba(0,32,159,1)"/>
  <circle cx="5" cy="0" r="1" fill="srgba(0%,12.517%,62.3758%,1)"/>
  <circle cx="6" cy="0" r="1" fill="srgba(0.434882%,13.3104%,61.7975%,1)"/>
  <circle cx="7" cy="0" r="1" fill="srgba(2.17288%,16.3302%,59.6307%,1)"/>
  <circle cx="8" cy="0" r="1" fill="srgba(0%,12.5338%,62.3697%,1)"/>
  <circle cx="9" cy="0" r="1" fill="srgba(0,32,159,1)"/>
  <circle cx="10" cy="0" r="1" fill="srgba(0,32,159,1)"/>
  <circle cx="11" cy="0" r="1" fill="srgba(0,32,159,1)"/>
  <circle cx="12" cy="0" r="1" fill="srgba(0,32,159,1)"/>
  <circle cx="13" cy="0" r="1" fill="srgba(0,32,159,1)"/>
  <circle cx="14" cy="0" r="1" fill="srgba(0,32,159,1)"/>
  <circle cx="15" cy="0" r="1" fill="srgba(0,32,159,1)"/>
  <circle cx="0" cy="1" r="1" fill="srgba(0,32,159,1)"/>
  <circle cx="1" cy="1" r="1" fill="srgba(0,32,159,1)"/>
  <circle cx="2" cy="1" r="1" fill="srgba(0,32,159,1)"/>
  <circle cx="3" cy="1" r="1" fill="srgba(0,32,159,1)"/>
  <circle cx="4" cy="1" r="1" fill="srgba(0,32,159,1)"/>
  <circle cx="5" cy="1" r="1" fill="srgba(0%,12.517%,62.3774%,1)"/>
  <circle cx="6" cy="1" r="1" fill="srgba(0.434882%,13.3181%,61.7853%,1)"/>
  <circle cx="7" cy="1" r="1" fill="srgba(2.17594%,16.3638%,59.5727%,1)"/>
  <circle cx="8" cy="1" r="1" fill="srgba(0%,12.5338%,62.3697%,1)"/>
  <circle cx="9" cy="1" r="1" fill="srgba(0,32,159,1)"/>
  <circle cx="10" cy="1" r="1" fill="srgba(0,32,159,1)"/>
  <circle cx="11" cy="1" r="1" fill="srgba(0,32,159,1)"/>
  <circle cx="12" cy="1" r="1" fill="srgba(0,32,159,1)"/>
  <circle cx="13" cy="1" r="1" fill="srgba(0,32,159,1)"/>
  <circle cx="14" cy="1" r="1" fill="srgba(0,32,159,1)"/>
  <circle cx="15" cy="1" r="1" fill="srgba(0,32,159,1)"/>
  <circle cx="0" cy="2" r="1" fill="srgba(0,32,159,1)"/>
  <circle cx="1" cy="2" r="1" fill="srgba(0,32,159,1)"/>
  <circle cx="2" cy="2" r="1" fill="srgba(0,32,159,1)"/>
  <circle cx="3" cy="2" r="1" fill="srgba(0,32,159,1)"/>
  <circle cx="4" cy="2" r="1" fill="srgba(0,32,159,1)"/>
  <circle cx="5" cy="2" r="1" fill="srgba(0%,12.517%,62.3774%,1)"/>
  <circle cx="6" cy="2" r="1" fill="srgba(0.434882%,13.3242%,61.7731%,1)"/>
  <circle cx="7" cy="2" r="1" fill="srgba(2.17594%,16.3958%,59.5132%,1)"/>
  <circle cx="8" cy="2" r="1" fill="srgba(0%,12.5338%,62.3713%,1)"/>
  <circle cx="9" cy="2" r="1" fill="srgba(0,32,159,1)"/>
  <circle cx="10" cy="2" r="1" fill="srgba(0,32,159,1)"/>
  <circle cx="11" cy="2" r="1" fill="srgba(0,32,159,1)"/>
  <circle cx="12" cy="2" r="1" fill="srgba(0,32,159,1)"/>
  <circle cx="13" cy="2" r="1" fill="srgba(0,32,159,1)"/>
  <circle cx="14" cy="2" r="1" fill="srgba(0,32,159,1)"/>
  <circle cx="15" cy="2" r="1" fill="srgba(0,32,159,1)"/>
  <circle cx="0" cy="3" r="1" fill="srgba(0,32,159,1)"/>
  <circle cx="1" cy="3" r="1" fill="srgba(0,32,159,1)"/>
  <circle cx="2" cy="3" r="1" fill="srgba(0,32,159,1)"/>
  <circle cx="3" cy="3" r="1" fill="srgba(0,32,159,1)"/>
  <circle cx="4" cy="3" r="1" fill="srgba(0,32,159,1)"/>
  <circle cx="5" cy="3" r="1" fill="srgba(0%,12.517%,62.3774%,1)"/>
  <circle cx="6" cy="3" r="1" fill="srgba(0.434882%,13.3303%,61.7594%,1)"/>
  <circle cx="7" cy="3" r="1" fill="srgba(2.17594%,16.4263%,59.4537%,1)"/>
  <circle cx="8" cy="3" r="1" fill="srgba(0%,12.5322%,62.3713%,1)"/>
  <circle cx="9" cy="3" r="1" fill="srgba(0,32,159,1)"/>
  <circle cx="10" cy="3" r="1" fill="srgba(0,32,159,1)"/>
  <circle cx="11" cy="3" r="1" fill="srgba(0,32,159,1)"/>
  <circle cx="12" cy="3" r="1" fill="srgba(0,32,159,1)"/>
  <circle cx="13" cy="3" r="1" fill="srgba(0,32,159,1)"/>
  <circle cx="14" cy="3" r="1" fill="srgba(0,32,159,1)"/>
  <circle cx="15" cy="3" r="1" fill="srgba(0,32,159,1)"/>
  <circle cx="0" cy="4" r="1" fill="srgba(0%,12.5475%,62.3743%,1)"/>
  <circle cx="1" cy="4" r="1" fill="srgba(0%,12.5475%,62.3819%,1)"/>
  <circle cx="2" cy="4" r="1" fill="srgba(0%,12.546%,62.3835%,1)"/>
  <circle cx="3" cy="4" r="1" fill="srgba(0%,12.5444%,62.3865%,1)"/>
  <circle cx="4" cy="4" r="1" fill="srgba(0%,12.5521%,62.3911%,1)"/>
  <circle cx="5" cy="4" r="1" fill="srgba(0%,12.163%,62.2644%,1)"/>
  <circle cx="6" cy="4" r="1" fill="srgba(0.428779%,12.6711%,61.4954%,1)"/>
  <circle cx="7" cy="4" r="1" fill="srgba(2.14694%,15.9335%,59.2081%,1)"/>
  <circle cx="8" cy="4" r="1" fill="srgba(0%,11.9982%,62.211%,1)"/>
  <circle cx="9" cy="4" r="1" fill="srgba(0%,11.9677%,62.1607%,1)"/>
  <circle cx="10" cy="4" r="1" fill="srgba(0%,12.2621%,62.2965%,1)"/>
  <circle cx="11" cy="4" r="1" fill="srgba(0%,12.5597%,62.417%,1)"/>
  <circle cx="12" cy="4" r="1" fill="srgba(0%,12.5429%,62.3865%,1)"/>
  <circle cx="13" cy="4" r="1" fill="srgba(0%,12.546%,62.3835%,1)"/>
  <circle cx="14" cy="4" r="1" fill="srgba(0%,12.546%,62.3835%,1)"/>
  <circle cx="15" cy="4" r="1" fill="srgba(0%,12.5444%,62.3758%,1)"/>
  <circle cx="0" cy="5" r="1" fill="srgba(0%,12.2255%,62.6307%,1)"/>
  <circle cx="1" cy="5" r="1" fill="srgba(0%,12.2362%,62.4689%,1)"/>
  <circle cx="2" cy="5" r="1" fill="srgba(0%,12.2576%,62.4262%,1)"/>
  <circle cx="3" cy="5" r="1" fill="srgba(0%,12.2911%,62.3728%,1)"/>
  <circle cx="4" cy="5" r="1" fill="srgba(0%,12.1324%,62.3194%,1)"/>
  <circle cx="5" cy="5" r="1" fill="srgba(6.71092%,18.0667%,64.9653%,1)"/>
  <circle cx="6" cy="5" r="1" fill="srgba(13.283%,24.2786%,66.5812%,1)"/>
  <circle cx="7" cy="5" r="1" fill="srgba(11.7754%,24.802%,62.2217%,1)"/>
  <circle cx="8" cy="5" r="1" fill="srgba(10.1534%,20.6592%,64.7974%,1)"/>
  <circle cx="9" cy="5" r="1" fill="srgba(11.8044%,21.4649%,65.2384%,1)"/>
  <circle cx="10" cy="5" r="1" fill="srgba(7.02373%,16.9009%,63.1388%,1)"/>
  <circle cx="11" cy="5" r="1" fill="srgba(0.965896%,12.2393%,61.5457%,1)"/>
  <circle cx="12" cy="5" r="1" fill="srgba(0.283818%,12.4651%,62.1637%,1)"/>
  <circle cx="13" cy="5" r="1" fill="srgba(0.437934%,12.5063%,62.1225%,1)"/>
  <circle cx="14" cy="5" r="1" fill="srgba(0.613413%,12.5948%,62.0569%,1)"/>
  <circle cx="15" cy="5" r="1" fill="srgba(0.798047%,12.6986%,62.1286%,1)"/>
  <circle cx="0" cy="6" r="1" fill="srgba(0.11902%,20.3616%,43.7064%,1)"/>
  <circle cx="1" cy="6" r="1" fill="srgba(0.114443%,19.7482%,43.4211%,1)"/>
  <circle cx="2" cy="6" r="1" fill="srgba(0.120546%,19.5422%,43.7232%,1)"/>
  <circle cx="3" cy="6" r="1" fill="srgba(0.132753%,19.4614%,43.7705%,1)"/>
  <circle cx="4" cy="6" r="1" fill="srgba(0%,19.7436%,42.4079%,1)"/>
  <circle cx="5" cy="6" r="1" fill="srgba(27.013%,44.9866%,52.0134%,1)"/>
  <circle cx="6" cy="6" r="1" fill="srgba(51.4351%,66.656%,60.705%,1)"/>
  <circle cx="7" cy="6" r="1" fill="srgba(30.9926%,50.6645%,40.8209%,1)"/>
  <circle cx="8" cy="6" r="1" fill="srgba(57.5189%,26.7399%,32.9076%,1)"/>
  <circle cx="9" cy="6" r="1" fill="srgba(73.2952%,22.6444%,32.813%,1)"/>
  <circle cx="10" cy="6" r="1" fill="srgba(65.1011%,14.757%,28.9143%,1)"/>
  <circle cx="11" cy="6" r="1" fill="srgba(29.4697%,19.1043%,31.6747%,1)"/>
  <circle cx="12" cy="6" r="1" fill="srgba(11.6854%,28.6458%,36.3989%,1)"/>
  <circle cx="13" cy="6" r="1" fill="srgba(14.1207%,29.3095%,35.2758%,1)"/>
  <circle cx="14" cy="6" r="1" fill="srgba(15.5764%,30.3487%,34.2245%,1)"/>
  <circle cx="15" cy="6" r="1" fill="srgba(17.023%,31.8044%,34.0078%,1)"/>
  <circle cx="0" cy="7" r="1" fill="srgba(0%,39.7513%,9.79171%,1)"/>
  <circle cx="1" cy="7" r="1" fill="srgba(0%,39.4873%,9.91226%,1)"/>
  <circle cx="2" cy="7" r="1" fill="srgba(0%,39.4018%,10.0771%,1)"/>
  <circle cx="3" cy="7" r="1" fill="srgba(0%,39.3057%,10.1869%,1)"/>
  <circle cx="4" cy="7" r="1" fill="srgba(0%,39.1257%,9.68795%,1)"/>
  <circle cx="5" cy="7" r="1" fill="srgba(0.758373%,41.6663%,9.92294%,1)"/>
  <circle cx="6" cy="7" r="1" fill="srgba(2.69474%,42.446%,13.0938%,1)"/>
  <circle cx="7" cy="7" r="1" fill="srgba(11.2108%,42.5238%,13.1243%,1)"/>
  <circle cx="8" cy="7" r="1" fill="srgba(58.1445%,15.5169%,7.50286%,1)"/>
  <circle cx="9" cy="7" r="1" fill="srgba(83.4958%,0%,7.11986%,1)"/>
  <circle cx="10" cy="7" r="1" fill="srgba(83.2715%,0%,7.17784%,1)"/>
  <circle cx="11" cy="7" r="1" fill="srgba(34.1711%,23.8087%,8.44282%,1)"/>
  <circle cx="12" cy="7" r="1" fill="srgba(0%,41.3855%,9.32937%,1)"/>
  <circle cx="13" cy="7" r="1" fill="srgba(0.822461%,40.7782%,9.18898%,1)"/>
  <circle cx="14" cy="7" r="1" fill="srgba(0.810254%,40.8347%,9.05623%,1)"/>
  <circle cx="15" cy="7" r="1" fill="srgba(0.80415%,41.0697%,8.96468%,1)"/>
  <circle cx="0" cy="8" r="1" fill="srgba(23.1586%,48.7205%,9.46059%,1)"/>
  <circle cx="1" cy="8" r="1" fill="srgba(23.505%,48.9982%,9.56435%,1)"/>
  <circle cx="2" cy="8" r="1" fill="srgba(23.5874%,49.0883%,9.60098%,1)"/>
  <circle cx="3" cy="8" r="1" fill="srgba(23.4211%,48.9708%,9.43313%,1)"/>
  <circle cx="4" cy="8" r="1" fill="srgba(23.0945%,48.1956%,9.03334%,1)"/>
  <circle cx="5" cy="8" r="1" fill="srgba(23.946%,48.3757%,8.46723%,1)"/>
  <circle cx="6" cy="8" r="1" fill="srgba(31.9402%,46.4942%,16.2005%,1)"/>
  <circle cx="7" cy="8" r="1" fill="srgba(40.3952%,54.5785%,27.7455%,1)"/>
  <circle cx="8" cy="8" r="1" fill="srgba(60.885%,37.5189%,13.7407%,1)"/>
  <circle cx="9" cy="8" r="1" fill="srgba(78.5382%,19.5666%,7.47539%,1)"/>
  <circle cx="10" cy="8" r="1" fill="srgba(79.9222%,15.906%,8.41993%,1)"/>
  <circle cx="11" cy="8" r="1" fill="srgba(45.6565%,33.5378%,8.49317%,1)"/>
  <circle cx="12" cy="8" r="1" fill="srgba(20.0595%,46.7247%,8.52522%,1)"/>
  <circle cx="13" cy="8" r="1" fill="srgba(20.972%,46.2135%,8.39551%,1)"/>
  <circle cx="14" cy="8" r="1" fill="srgba(20.9674%,46.2425%,8.32074%,1)"/>
  <circle cx="15" cy="8" r="1" fill="srgba(21.1276%,46.334%,8.30396%,1)"/>
  <circle cx="0" cy="9" r="1" fill="srgba(50.3487%,54.0856%,26.2196%,1)"/>
  <circle cx="1" cy="9" r="1" fill="srgba(47.9011%,50.6905%,22.0172%,1)"/>
  <circle cx="2" cy="9" r="1" fill="srgba(45.4398%,46.9902%,17.6623%,1)"/>
  <circle cx="3" cy="9" r="1" fill="srgba(42.5299%,43.0961%,13.048%,1)"/>
  <circle cx="4" cy="9" r="1" fill="srgba(39.1897%,38.7198%,8.42145%,1)"/>
  <circle cx="5" cy="9" r="1" fill="srgba(51.5572%,43.5966%,7.08934%,1)"/>
  <circle cx="6" cy="9" r="1" fill="srgba(66.3172%,51.4488%,15.5062%,1)"/>
  <circle cx="7" cy="9" r="1" fill="srgba(51.0475%,41.3413%,18.0713%,1)"/>
  <circle cx="8" cy="9" r="1" fill="srgba(49.3828%,36.3989%,8.44129%,1)"/>
  <circle cx="9" cy="9" r="1" fill="srgba(70.985%,54.8669%,17.1466%,1)"/>
  <circle cx="10" cy="9" r="1" fill="srgba(70.0206%,51.8853%,14.0444%,1)"/>
  <circle cx="11" cy="9" r="1" fill="srgba(69.5995%,54.0963%,11.7235%,1)"/>
  <circle cx="12" cy="9" r="1" fill="srgba(69.4987%,56.5332%,10.2464%,1)"/>
  <circle cx="13" cy="9" r="1" fill="srgba(70.7469%,57.5601%,9.13558%,1)"/>
  <circle cx="14" cy="9" r="1" fill="srgba(71.9036%,58.5031%,8.40467%,1)"/>
  <circle cx="15" cy="9" r="1" fill="srgba(73.1289%,59.3637%,8.09949%,1)"/>
  <circle cx="0" cy="10" r="1" fill="srgba(44.6143%,38.1674%,24.8936%,1)"/>
  <circle cx="1" cy="10" r="1" fill="srgba(34.3984%,25.6275%,9.28511%,1)"/>
  <circle cx="2" cy="10" r="1" fill="srgba(29.0867%,18.6984%,0.537118%,1)"/>
  <circle cx="3" cy="10" r="1" fill="srgba(29.0974%,18.3505%,0.138857%,1)"/>
  <circle cx="4" cy="10" r="1" fill="srgba(29.8024%,18.5306%,0%,1)"/>
  <circle cx="5" cy="10" r="1" fill="srgba(47.5654%,32.9854%,2.71458%,1)"/>
  <circle cx="6" cy="10" r="1" fill="srgba(52.3629%,37.9797%,6.18601%,1)"/>
  <circle cx="7" cy="10" r="1" fill="srgba(20.2518%,14.0444%,1.80819%,1)"/>
  <circle cx="8" cy="10" r="1" fill="srgba(9.28359%,4.3473%,1.6846%,1)"/>
  <circle cx="9" cy="10" r="1" fill="srgba(76.3622%,56.1868%,22.8595%,1)"/>
  <circle cx="10" cy="10" r="1" fill="srgba(92.3339%,70.4143%,11.1421%,1)"/>
  <circle cx="11" cy="10" r="1" fill="srgba(92.8862%,69.7856%,8.95705%,1)"/>
  <circle cx="12" cy="10" r="1" fill="srgba(92.8359%,69.633%,8.95705%,1)"/>
  <circle cx="13" cy="10" r="1" fill="srgba(93.2555%,69.929%,8.93568%,1)"/>
  <circle cx="14" cy="10" r="1" fill="srgba(93.8491%,70.3624%,8.95552%,1)"/>
  <circle cx="15" cy="10" r="1" fill="srgba(94.1451%,70.5821%,8.9662%,1)"/>
  <circle cx="0" cy="11" r="1" fill="srgba(52.1065%,43.3143%,7.2282%,1)"/>
  <circle cx="1" cy="11" r="1" fill="srgba(49.6956%,41.3596%,5.17891%,1)"/>
  <circle cx="2" cy="11" r="1" fill="srgba(44.9165%,39.2538%,4.3946%,1)"/>
  <circle cx="3" cy="11" r="1" fill="srgba(48.1422%,40.0229%,4.37476%,1)"/>
  <circle cx="4" cy="11" r="1" fill="srgba(66.7552%,49.4301%,5.44594%,1)"/>
  <circle cx="5" cy="11" r="1" fill="srgba(78.4115%,58.1949%,6.77043%,1)"/>
  <circle cx="6" cy="11" r="1" fill="srgba(80.2182%,60.7218%,8.91432%,1)"/>
  <circle cx="7" cy="11" r="1" fill="srgba(50.6889%,25.1026%,6.3386%,1)"/>
  <circle cx="8" cy="11" r="1" fill="srgba(19.8032%,5.18044%,2.85496%,1)"/>
  <circle cx="9" cy="11" r="1" fill="srgba(71.6304%,39.7314%,8.11017%,1)"/>
  <circle cx="10" cy="11" r="1" fill="srgba(93.6233%,69.5995%,8.77699%,1)"/>
  <circle cx="11" cy="11" r="1" fill="srgba(94.6777%,71.1467%,9.03944%,1)"/>
  <circle cx="12" cy="11" r="1" fill="srgba(94.4793%,70.9575%,9.01656%,1)"/>
  <circle cx="13" cy="11" r="1" fill="srgba(94.0932%,70.6676%,8.97841%,1)"/>
  <circle cx="14" cy="11" r="1" fill="srgba(93.753%,70.4128%,8.94789%,1)"/>
  <circle cx="15" cy="11" r="1" fill="srgba(93.8567%,70.4906%,8.95705%,1)"/>
  <circle cx="0" cy="12" r="1" fill="srgba(70.1503%,63.3509%,8.8777%,1)"/>
  <circle cx="1" cy="12" r="1" fill="srgba(60.1816%,59.8886%,8.82582%,1)"/>
  <circle cx="2" cy="12" r="1" fill="srgba(72.4758%,63.3417%,8.80293%,1)"/>
  <circle cx="3" cy="12" r="1" fill="srgba(90.7866%,69.5552%,8.98299%,1)"/>
  <circle cx="4" cy="12" r="1" fill="srgba(94.9554%,71.8395%,9.11574%,1)"/>
  <circle cx="5" cy="12" r="1" fill="srgba(92.0821%,66.7857%,8.65949%,1)"/>
  <circle cx="6" cy="12" r="1" fill="srgba(85.2277%,63.0121%,10.66%,1)"/>
  <circle cx="7" cy="12" r="1" fill="srgba(52.7306%,24.6891%,7.34417%,1)"/>
  <circle cx="8" cy="12" r="1" fill="srgba(52.2621%,23.6194%,6.83299%,1)"/>
  <circle cx="9" cy="12" r="1" fill="srgba(70.9316%,13.1411%,10.277%,1)"/>
  <circle cx="10" cy="12" r="1" fill="srgba(91.5511%,58.378%,8.55573%,1)"/>
  <circle cx="11" cy="12" r="1" fill="srgba(94.7097%,71.7067%,9.03944%,1)"/>
  <circle cx="12" cy="12" r="1" fill="srgba(94.5129%,70.9834%,9.01961%,1)"/>
  <circle cx="13" cy="12" r="1" fill="srgba(94.5373%,71.0002%,9.02266%,1)"/>
  <circle cx="14" cy="12" r="1" fill="srgba(94.4762%,70.956%,9.01656%,1)"/>
  <circle cx="15" cy="12" r="1" fill="srgba(94.2%,70.7469%,8.98909%,1)"/>
  <circle cx="0" cy="13" r="1" fill="srgba(60.734%,59.9008%,8.76783%,1)"/>
  <circle cx="1" cy="13" r="1" fill="srgba(80.145%,66.1463%,8.88838%,1)"/>
  <circle cx="2" cy="13" r="1" fill="srgba(93.4615%,70.547%,8.99367%,1)"/>
  <circle cx="3" cy="13" r="1" fill="srgba(94.8745%,71.9127%,9.03792%,1)"/>
  <circle cx="4" cy="13" r="1" fill="srgba(91.9844%,59.5911%,8.77699%,1)"/>
  <circle cx="5" cy="13" r="1" fill="srgba(86.1006%,34.5861%,7.98199%,1)"/>
  <circle cx="6" cy="13" r="1" fill="srgba(84.2283%,58.1964%,11.5953%,1)"/>
  <circle cx="7" cy="13" r="1" fill="srgba(46.5599%,35.5108%,7.5639%,1)"/>
  <circle cx="8" cy="13" r="1" fill="srgba(81.3107%,41.3611%,7.65087%,1)"/>
  <circle cx="9" cy="13" r="1" fill="srgba(80.4913%,7.33959%,7.89349%,1)"/>
  <circle cx="10" cy="13" r="1" fill="srgba(91.107%,57.4319%,8.68086%,1)"/>
  <circle cx="11" cy="13" r="1" fill="srgba(94.7219%,71.8044%,9.03944%,1)"/>
  <circle cx="12" cy="13" r="1" fill="srgba(241,181,23,1)"/>
  <circle cx="13" cy="13" r="1" fill="srgba(241,181,23,1)"/>
  <circle cx="14" cy="13" r="1" fill="srgba(94.5113%,70.9819%,9.01961%,1)"/>
  <circle cx="15" cy="13" r="1" fill="srgba(94.5281%,70.9941%,9.02113%,1)"/>
  <circle cx="0" cy="14" r="1" fill="srgba(95.6405%,71.3329%,9.02419%,1)"/>
  <circle cx="1" cy="14" r="1" fill="srgba(95.3231%,71.2535%,9.02724%,1)"/>
  <circle cx="2" cy="14" r="1" fill="srgba(94.6212%,71.5587%,9.02724%,1)"/>
  <circle cx="3" cy="14" r="1" fill="srgba(91.696%,58.529%,8.74952%,1)"/>
  <circle cx="4" cy="14" r="1" fill="srgba(84.6937%,15.9304%,8.0705%,1)"/>
  <circle cx="5" cy="14" r="1" fill="srgba(83.3143%,15.5123%,7.66155%,1)"/>
  <circle cx="6" cy="14" r="1" fill="srgba(84.5853%,58.7015%,12.5826%,1)"/>
  <circle cx="7" cy="14" r="1" fill="srgba(38.0224%,30.6111%,7.44335%,1)"/>
  <circle cx="8" cy="14" r="1" fill="srgba(83.2853%,51.902%,7.68597%,1)"/>
  <circle cx="9" cy="14" r="1" fill="srgba(83.9261%,17.6623%,7.98199%,1)"/>
  <circle cx="10" cy="14" r="1" fill="srgba(91.5404%,60.1572%,8.73121%,1)"/>
  <circle cx="11" cy="14" r="1" fill="srgba(94.6944%,71.6411%,9.03792%,1)"/>
  <circle cx="12" cy="14" r="1" fill="srgba(241,181,23,1)"/>
  <circle cx="13" cy="14" r="1" fill="srgba(241,181,23,1)"/>
  <circle cx="14" cy="14" r="1" fill="srgba(241,181,23,1)"/>
  <circle cx="15" cy="14" r="1" fill="srgba(241,181,23,1)"/>
  <circle cx="0" cy="15" r="1" fill="srgba(94.5113%,70.9804%,9.01961%,1)"/>
  <circle cx="1" cy="15" r="1" fill="srgba(94.6105%,71.4961%,9.02876%,1)"/>
  <circle cx="2" cy="15" r="1" fill="srgba(91.9646%,59.6857%,8.77394%,1)"/>
  <circle cx="3" cy="15" r="1" fill="srgba(85.2995%,20.7355%,8.13458%,1)"/>
  <circle cx="4" cy="15" r="1" fill="srgba(83.389%,5.30861%,7.94385%,1)"/>
  <circle cx="5" cy="15" r="1" fill="srgba(84.0681%,19.9573%,7.66613%,1)"/>
  <circle cx="6" cy="15" r="1" fill="srgba(85.1179%,59.707%,13.6645%,1)"/>
  <circle cx="7" cy="15" r="1" fill="srgba(30.8812%,24.7684%,7.47387%,1)"/>
  <circle cx="8" cy="15" r="1" fill="srgba(79.675%,59.7269%,7.30297%,1)"/>
  <circle cx="9" cy="15" r="1" fill="srgba(89.2805%,48.9876%,8.51148%,1)"/>
  <circle cx="10" cy="15" r="1" fill="srgba(91.7464%,62.1439%,8.74952%,1)"/>
  <circle cx="11" cy="15" r="1" fill="srgba(94.6807%,71.5129%,9.03639%,1)"/>
  <circle cx="12" cy="15" r="1" fill="srgba(241,181,23,1)"/>
  <circle cx="13" cy="15" r="1" fill="srgba(241,181,23,1)"/>
  <circle cx="14" cy="15" r="1" fill="srgba(241,181,23,1)"/>
  <circle cx="15" cy="15" r="1" fill="srgba(241,181,23,1)"/>
</svg>
