<?xml version="1.0" standalone="no"?>
<!DOCTYPE svg PUBLIC "-//W3C//DTD SVG 20010904//EN"
  "http://www.w3.org/TR/2001/REC-SVG-20010904/DTD/svg10.dtd">
<svg width="16" height="16">
  <circle cx="0" cy="0" r="1" fill="srgba(83.183%,20.9918%,8.86549%,1)"/>
  <circle cx="1" cy="0" r="1" fill="srgba(83.183%,20.9918%,8.86549%,1)"/>
  <circle cx="2" cy="0" r="1" fill="srgba(83.183%,20.9918%,8.86549%,1)"/>
  <circle cx="3" cy="0" r="1" fill="srgba(83.183%,20.9918%,8.86549%,1)"/>
  <circle cx="4" cy="0" r="1" fill="srgba(83.183%,20.9918%,8.86549%,1)"/>
  <circle cx="5" cy="0" r="1" fill="srgba(83.183%,20.9918%,8.86549%,1)"/>
  <circle cx="6" cy="0" r="1" fill="srgba(83.183%,20.9918%,8.86549%,1)"/>
  <circle cx="7" cy="0" r="1" fill="srgba(83.183%,20.9918%,8.86549%,1)"/>
  <circle cx="8" cy="0" r="1" fill="srgba(83.183%,20.9918%,8.86549%,1)"/>
  <circle cx="9" cy="0" r="1" fill="srgba(83.183%,20.9918%,8.86549%,1)"/>
  <circle cx="10" cy="0" r="1" fill="srgba(83.183%,20.9918%,8.86549%,1)"/>
  <circle cx="11" cy="0" r="1" fill="srgba(83.183%,20.9918%,8.86549%,1)"/>
  <circle cx="12" cy="0" r="1" fill="srgba(83.183%,20.9918%,8.86549%,1)"/>
  <circle cx="13" cy="0" r="1" fill="srgba(83.183%,20.9918%,8.86549%,1)"/>
  <circle cx="14" cy="0" r="1" fill="srgba(83.183%,20.9918%,8.86549%,1)"/>
  <circle cx="15" cy="0" r="1" fill="srgba(83.183%,20.9918%,8.86549%,1)"/>
  <circle cx="0" cy="1" r="1" fill="srgba(83.1342%,20.7721%,8.61372%,1)"/>
  <circle cx="1" cy="1" r="1" fill="srgba(83.1342%,20.7721%,8.61372%,1)"/>
  <circle cx="2" cy="1" r="1" fill="srgba(83.1342%,20.7721%,8.61372%,1)"/>
  <circle cx="3" cy="1" r="1" fill="srgba(83.1342%,20.7721%,8.61372%,1)"/>
  <circle cx="4" cy="1" r="1" fill="srgba(83.1342%,20.7721%,8.61372%,1)"/>
  <circle cx="5" cy="1" r="1" fill="srgba(83.1342%,20.7721%,8.61372%,1)"/>
  <circle cx="6" cy="1" r="1" fill="srgba(83.1342%,20.7721%,8.61372%,1)"/>
  <circle cx="7" cy="1" r="1" fill="srgba(83.1342%,20.7721%,8.61372%,1)"/>
  <circle cx="8" cy="1" r="1" fill="srgba(83.1342%,20.7721%,8.61372%,1)"/>
  <circle cx="9" cy="1" r="1" fill="srgba(83.1342%,20.7721%,8.61372%,1)"/>
  <circle cx="10" cy="1" r="1" fill="srgba(83.1342%,20.7721%,8.61372%,1)"/>
  <circle cx="11" cy="1" r="1" fill="srgba(83.1342%,20.7721%,8.61372%,1)"/>
  <circle cx="12" cy="1" r="1" fill="srgba(83.1342%,20.7721%,8.61372%,1)"/>
  <circle cx="13" cy="1" r="1" fill="srgba(83.1342%,20.7721%,8.61372%,1)"/>
  <circle cx="14" cy="1" r="1" fill="srgba(83.1342%,20.7721%,8.61372%,1)"/>
  <circle cx="15" cy="1" r="1" fill="srgba(83.1342%,20.7721%,8.61372%,1)"/>
  <circle cx="0" cy="2" r="1" fill="srgba(212,53,22,1)"/>
  <circle cx="1" cy="2" r="1" fill="srgba(212,53,22,1)"/>
  <circle cx="2" cy="2" r="1" fill="srgba(212,53,22,1)"/>
  <circle cx="3" cy="2" r="1" fill="srgba(212,53,22,1)"/>
  <circle cx="4" cy="2" r="1" fill="srgba(212,53,22,1)"/>
  <circle cx="5" cy="2" r="1" fill="srgba(212,53,22,1)"/>
  <circle cx="6" cy="2" r="1" fill="srgba(212,53,22,1)"/>
  <circle cx="7" cy="2" r="1" fill="srgba(212,53,22,1)"/>
  <circle cx="8" cy="2" r="1" fill="srgba(212,53,22,1)"/>
  <circle cx="9" cy="2" r="1" fill="srgba(212,53,22,1)"/>
  <circle cx="10" cy="2" r="1" fill="srgba(212,53,22,1)"/>
  <circle cx="11" cy="2" r="1" fill="srgba(212,53,22,1)"/>
  <circle cx="12" cy="2" r="1" fill="srgba(212,53,22,1)"/>
  <circle cx="13" cy="2" r="1" fill="srgba(212,53,22,1)"/>
  <circle cx="14" cy="2" r="1" fill="srgba(212,53,22,1)"/>
  <circle cx="15" cy="2" r="1" fill="srgba(212,53,22,1)"/>
  <circle cx="0" cy="3" r="1" fill="srgba(83.1296%,20.7523%,8.5893%,1)"/>
  <circle cx="1" cy="3" r="1" fill="srgba(83.1296%,20.7523%,8.5893%,1)"/>
  <circle cx="2" cy="3" r="1" fill="srgba(83.1296%,20.7523%,8.5893%,1)"/>
  <circle cx="3" cy="3" r="1" fill="srgba(83.1296%,20.7523%,8.5893%,1)"/>
  <circle cx="4" cy="3" r="1" fill="srgba(83.1296%,20.7523%,8.5893%,1)"/>
  <circle cx="5" cy="3" r="1" fill="srgba(83.1296%,20.7523%,8.5893%,1)"/>
  <circle cx="6" cy="3" r="1" fill="srgba(83.1296%,20.7523%,8.5893%,1)"/>
  <circle cx="7" cy="3" r="1" fill="srgba(83.1296%,20.7523%,8.5893%,1)"/>
  <circle cx="8" cy="3" r="1" fill="srgba(83.1296%,20.7523%,8.5893%,1)"/>
  <circle cx="9" cy="3" r="1" fill="srgba(83.1296%,20.7523%,8.5893%,1)"/>
  <circle cx="10" cy="3" r="1" fill="srgba(83.1296%,20.7523%,8.5893%,1)"/>
  <circle cx="11" cy="3" r="1" fill="srgba(83.1296%,20.7523%,8.5893%,1)"/>
  <circle cx="12" cy="3" r="1" fill="srgba(83.1296%,20.7523%,8.5893%,1)"/>
  <circle cx="13" cy="3" r="1" fill="srgba(83.1296%,20.7523%,8.5893%,1)"/>
  <circle cx="14" cy="3" r="1" fill="srgba(83.1296%,20.7523%,8.5893%,1)"/>
  <circle cx="15" cy="3" r="1" fill="srgba(83.1296%,20.7523%,8.5893%,1)"/>
  <circle cx="0" cy="4" r="1" fill="srgba(83.1983%,21.0773%,8.9662%,1)"/>
  <circle cx="1" cy="4" r="1" fill="srgba(83.1983%,21.0773%,8.9662%,1)"/>
  <circle cx="2" cy="4" r="1" fill="srgba(83.1983%,21.0773%,8.9662%,1)"/>
  <circle cx="3" cy="4" r="1" fill="srgba(83.1983%,21.0773%,8.9662%,1)"/>
  <circle cx="4" cy="4" r="1" fill="srgba(83.1983%,21.0773%,8.9662%,1)"/>
  <circle cx="5" cy="4" r="1" fill="srgba(83.1983%,21.0773%,8.9662%,1)"/>
  <circle cx="6" cy="4" r="1" fill="srgba(83.1983%,21.0773%,8.9662%,1)"/>
  <circle cx="7" cy="4" r="1" fill="srgba(83.1983%,21.0773%,8.9662%,1)"/>
  <circle cx="8" cy="4" r="1" fill="srgba(83.1983%,21.0773%,8.9662%,1)"/>
  <circle cx="9" cy="4" r="1" fill="srgba(83.1983%,21.0773%,8.9662%,1)"/>
  <circle cx="10" cy="4" r="1" fill="srgba(83.1983%,21.0773%,8.9662%,1)"/>
  <circle cx="11" cy="4" r="1" fill="srgba(83.1983%,21.0773%,8.9662%,1)"/>
  <circle cx="12" cy="4" r="1" fill="srgba(83.1983%,21.0773%,8.9662%,1)"/>
  <circle cx="13" cy="4" r="1" fill="srgba(83.1983%,21.0773%,8.9662%,1)"/>
  <circle cx="14" cy="4" r="1" fill="srgba(83.1983%,21.0773%,8.9662%,1)"/>
  <circle cx="15" cy="4" r="1" fill="srgba(83.1983%,21.0773%,8.9662%,1)"/>
  <circle cx="0" cy="5" r="1" fill="srgba(93.9528%,71.6182%,67.2602%,1)"/>
  <circle cx="1" cy="5" r="1" fill="srgba(93.9528%,71.6182%,67.2602%,1)"/>
  <circle cx="2" cy="5" r="1" fill="srgba(93.9528%,71.6182%,67.2602%,1)"/>
  <circle cx="3" cy="5" r="1" fill="srgba(93.9528%,71.6182%,67.2602%,1)"/>
  <circle cx="4" cy="5" r="1" fill="srgba(93.9528%,71.6182%,67.2602%,1)"/>
  <circle cx="5" cy="5" r="1" fill="srgba(93.9528%,71.6182%,67.2602%,1)"/>
  <circle cx="6" cy="5" r="1" fill="srgba(93.9528%,71.6182%,67.2602%,1)"/>
  <circle cx="7" cy="5" r="1" fill="srgba(93.9528%,71.6182%,67.2602%,1)"/>
  <circle cx="8" cy="5" r="1" fill="srgba(93.9528%,71.6182%,67.2602%,1)"/>
  <circle cx="9" cy="5" r="1" fill="srgba(93.9528%,71.6182%,67.2602%,1)"/>
  <circle cx="10" cy="5" r="1" fill="srgba(93.9528%,71.6182%,67.2602%,1)"/>
  <circle cx="11" cy="5" r="1" fill="srgba(93.9528%,71.6182%,67.2602%,1)"/>
  <circle cx="12" cy="5" r="1" fill="srgba(93.9528%,71.6182%,67.2602%,1)"/>
  <circle cx="13" cy="5" r="1" fill="srgba(93.9528%,71.6182%,67.2602%,1)"/>
  <circle cx="14" cy="5" r="1" fill="srgba(93.9528%,71.6182%,67.2602%,1)"/>
  <circle cx="15" cy="5" r="1" fill="srgba(93.9528%,71.6182%,67.2602%,1)"/>
  <circle cx="0" cy="6" r="1" fill="white"/>
  <circle cx="1" cy="6" r="1" fill="white"/>
  <circle cx="2" cy="6" r="1" fill="white"/>
  <circle cx="3" cy="6" r="1" fill="white"/>
  <circle cx="4" cy="6" r="1" fill="white"/>
  <circle cx="5" cy="6" r="1" fill="white"/>
  <circle cx="6" cy="6" r="1" fill="white"/>
  <circle cx="7" cy="6" r="1" fill="white"/>
  <circle cx="8" cy="6" r="1" fill="white"/>
  <circle cx="9" cy="6" r="1" fill="white"/>
  <circle cx="10" cy="6" r="1" fill="white"/>
  <circle cx="11" cy="6" r="1" fill="white"/>
  <circle cx="12" cy="6" r="1" fill="white"/>
  <circle cx="13" cy="6" r="1" fill="white"/>
  <circle cx="14" cy="6" r="1" fill="white"/>
  <circle cx="15" cy="6" r="1" fill="white"/>
  <circle cx="0" cy="7" r="1" fill="white"/>
  <circle cx="1" cy="7" r="1" fill="white"/>
  <circle cx="2" cy="7" r="1" fill="white"/>
  <circle cx="3" cy="7" r="1" fill="white"/>
  <circle cx="4" cy="7" r="1" fill="white"/>
  <circle cx="5" cy="7" r="1" fill="white"/>
  <circle cx="6" cy="7" r="1" fill="white"/>
  <circle cx="7" cy="7" r="1" fill="white"/>
  <circle cx="8" cy="7" r="1" fill="white"/>
  <circle cx="9" cy="7" r="1" fill="white"/>
  <circle cx="10" cy="7" r="1" fill="white"/>
  <circle cx="11" cy="7" r="1" fill="white"/>
  <circle cx="12" cy="7" r="1" fill="white"/>
  <circle cx="13" cy="7" r="1" fill="white"/>
  <circle cx="14" cy="7" r="1" fill="white"/>
  <circle cx="15" cy="7" r="1" fill="white"/>
  <circle cx="0" cy="8" r="1" fill="white"/>
  <circle cx="1" cy="8" r="1" fill="white"/>
  <circle cx="2" cy="8" r="1" fill="white"/>
  <circle cx="3" cy="8" r="1" fill="white"/>
  <circle cx="4" cy="8" r="1" fill="white"/>
  <circle cx="5" cy="8" r="1" fill="white"/>
  <circle cx="6" cy="8" r="1" fill="white"/>
  <circle cx="7" cy="8" r="1" fill="white"/>
  <circle cx="8" cy="8" r="1" fill="white"/>
  <circle cx="9" cy="8" r="1" fill="white"/>
  <circle cx="10" cy="8" r="1" fill="white"/>
  <circle cx="11" cy="8" r="1" fill="white"/>
  <circle cx="12" cy="8" r="1" fill="white"/>
  <circle cx="13" cy="8" r="1" fill="white"/>
  <circle cx="14" cy="8" r="1" fill="white"/>
  <circle cx="15" cy="8" r="1" fill="white"/>
  <circle cx="0" cy="9" r="1" fill="white"/>
  <circle cx="1" cy="9" r="1" fill="white"/>
  <circle cx="2" cy="9" r="1" fill="white"/>
  <circle cx="3" cy="9" r="1" fill="white"/>
  <circle cx="4" cy="9" r="1" fill="white"/>
  <circle cx="5" cy="9" r="1" fill="white"/>
  <circle cx="6" cy="9" r="1" fill="white"/>
  <circle cx="7" cy="9" r="1" fill="white"/>
  <circle cx="8" cy="9" r="1" fill="white"/>
  <circle cx="9" cy="9" r="1" fill="white"/>
  <circle cx="10" cy="9" r="1" fill="white"/>
  <circle cx="11" cy="9" r="1" fill="white"/>
  <circle cx="12" cy="9" r="1" fill="white"/>
  <circle cx="13" cy="9" r="1" fill="white"/>
  <circle cx="14" cy="9" r="1" fill="white"/>
  <circle cx="15" cy="9" r="1" fill="white"/>
  <circle cx="0" cy="10" r="1" fill="srgba(72.2911%,84.1306%,64.4938%,1)"/>
  <circle cx="1" cy="10" r="1" fill="srgba(72.2911%,84.1306%,64.4938%,1)"/>
  <circle cx="2" cy="10" r="1" fill="srgba(72.2911%,84.1306%,64.4938%,1)"/>
  <circle cx="3" cy="10" r="1" fill="srgba(72.2911%,84.1306%,64.4938%,1)"/>
  <circle cx="4" cy="10" r="1" fill="srgba(72.2911%,84.1306%,64.4938%,1)"/>
  <circle cx="5" cy="10" r="1" fill="srgba(72.2911%,84.1306%,64.4938%,1)"/>
  <circle cx="6" cy="10" r="1" fill="srgba(72.2911%,84.1306%,64.4938%,1)"/>
  <circle cx="7" cy="10" r="1" fill="srgba(72.2911%,84.1306%,64.4938%,1)"/>
  <circle cx="8" cy="10" r="1" fill="srgba(72.2911%,84.1306%,64.4938%,1)"/>
  <circle cx="9" cy="10" r="1" fill="srgba(72.2911%,84.1306%,64.4938%,1)"/>
  <circle cx="10" cy="10" r="1" fill="srgba(72.2911%,84.1306%,64.4938%,1)"/>
  <circle cx="11" cy="10" r="1" fill="srgba(72.2911%,84.1306%,64.4938%,1)"/>
  <circle cx="12" cy="10" r="1" fill="srgba(72.2911%,84.1306%,64.4938%,1)"/>
  <circle cx="13" cy="10" r="1" fill="srgba(72.2911%,84.1306%,64.4938%,1)"/>
  <circle cx="14" cy="10" r="1" fill="srgba(72.2911%,84.1306%,64.4938%,1)"/>
  <circle cx="15" cy="10" r="1" fill="srgba(72.2911%,84.1306%,64.4938%,1)"/>
  <circle cx="0" cy="11" r="1" fill="srgba(22.3041%,55.491%,0.43946%,1)"/>
  <circle cx="1" cy="11" r="1" fill="srgba(22.3041%,55.491%,0.43946%,1)"/>
  <circle cx="2" cy="11" r="1" fill="srgba(22.3041%,55.491%,0.43946%,1)"/>
  <circle cx="3" cy="11" r="1" fill="srgba(22.3041%,55.491%,0.43946%,1)"/>
  <circle cx="4" cy="11" r="1" fill="srgba(22.3041%,55.491%,0.43946%,1)"/>
  <circle cx="5" cy="11" r="1" fill="srgba(22.3041%,55.491%,0.43946%,1)"/>
  <circle cx="6" cy="11" r="1" fill="srgba(22.3041%,55.491%,0.43946%,1)"/>
  <circle cx="7" cy="11" r="1" fill="srgba(22.3041%,55.491%,0.43946%,1)"/>
  <circle cx="8" cy="11" r="1" fill="srgba(22.3041%,55.491%,0.43946%,1)"/>
  <circle cx="9" cy="11" r="1" fill="srgba(22.3041%,55.491%,0.43946%,1)"/>
  <circle cx="10" cy="11" r="1" fill="srgba(22.3041%,55.491%,0.43946%,1)"/>
  <circle cx="11" cy="11" r="1" fill="srgba(22.3041%,55.491%,0.43946%,1)"/>
  <circle cx="12" cy="11" r="1" fill="srgba(22.3041%,55.491%,0.43946%,1)"/>
  <circle cx="13" cy="11" r="1" fill="srgba(22.3041%,55.491%,0.43946%,1)"/>
  <circle cx="14" cy="11" r="1" fill="srgba(22.3041%,55.491%,0.43946%,1)"/>
  <circle cx="15" cy="11" r="1" fill="srgba(22.3041%,55.491%,0.43946%,1)"/>
  <circle cx="0" cy="12" r="1" fill="srgba(21.9257%,55.2743%,0%,1)"/>
  <circle cx="1" cy="12" r="1" fill="srgba(21.9257%,55.2743%,0%,1)"/>
  <circle cx="2" cy="12" r="1" fill="srgba(21.9257%,55.2743%,0%,1)"/>
  <circle cx="3" cy="12" r="1" fill="srgba(21.9257%,55.2743%,0%,1)"/>
  <circle cx="4" cy="12" r="1" fill="srgba(21.9257%,55.2743%,0%,1)"/>
  <circle cx="5" cy="12" r="1" fill="srgba(21.9257%,55.2743%,0%,1)"/>
  <circle cx="6" cy="12" r="1" fill="srgba(21.9257%,55.2743%,0%,1)"/>
  <circle cx="7" cy="12" r="1" fill="srgba(21.9257%,55.2743%,0%,1)"/>
  <circle cx="8" cy="12" r="1" fill="srgba(21.9257%,55.2743%,0%,1)"/>
  <circle cx="9" cy="12" r="1" fill="srgba(21.9257%,55.2743%,0%,1)"/>
  <circle cx="10" cy="12" r="1" fill="srgba(21.9257%,55.2743%,0%,1)"/>
  <circle cx="11" cy="12" r="1" fill="srgba(21.9257%,55.2743%,0%,1)"/>
  <circle cx="12" cy="12" r="1" fill="srgba(21.9257%,55.2743%,0%,1)"/>
  <circle cx="13" cy="12" r="1" fill="srgba(21.9257%,55.2743%,0%,1)"/>
  <circle cx="14" cy="12" r="1" fill="srgba(21.9257%,55.2743%,0%,1)"/>
  <circle cx="15" cy="12" r="1" fill="srgba(21.9257%,55.2743%,0%,1)"/>
  <circle cx="0" cy="13" r="1" fill="srgba(56,141,0,1)"/>
  <circle cx="1" cy="13" r="1" fill="srgba(56,141,0,1)"/>
  <circle cx="2" cy="13" r="1" fill="srgba(56,141,0,1)"/>
  <circle cx="3" cy="13" r="1" fill="srgba(56,141,0,1)"/>
  <circle cx="4" cy="13" r="1" fill="srgba(56,141,0,1)"/>
  <circle cx="5" cy="13" r="1" fill="srgba(56,141,0,1)"/>
  <circle cx="6" cy="13" r="1" fill="srgba(56,141,0,1)"/>
  <circle cx="7" cy="13" r="1" fill="srgba(56,141,0,1)"/>
  <circle cx="8" cy="13" r="1" fill="srgba(56,141,0,1)"/>
  <circle cx="9" cy="13" r="1" fill="srgba(56,141,0,1)"/>
  <circle cx="10" cy="13" r="1" fill="srgba(56,141,0,1)"/>
  <circle cx="11" cy="13" r="1" fill="srgba(56,141,0,1)"/>
  <circle cx="12" cy="13" r="1" fill="srgba(56,141,0,1)"/>
  <circle cx="13" cy="13" r="1" fill="srgba(56,141,0,1)"/>
  <circle cx="14" cy="13" r="1" fill="srgba(56,141,0,1)"/>
  <circle cx="15" cy="13" r="1" fill="srgba(56,141,0,1)"/>
  <circle cx="0" cy="14" r="1" fill="srgba(21.9593%,55.2941%,0%,1)"/>
  <circle cx="1" cy="14" r="1" fill="srgba(21.9593%,55.2941%,0%,1)"/>
  <circle cx="2" cy="14" r="1" fill="srgba(21.9593%,55.2941%,0%,1)"/>
  <circle cx="3" cy="14" r="1" fill="srgba(21.9593%,55.2941%,0%,1)"/>
  <circle cx="4" cy="14" r="1" fill="srgba(21.9593%,55.2941%,0%,1)"/>
  <circle cx="5" cy="14" r="1" fill="srgba(21.9593%,55.2941%,0%,1)"/>
  <circle cx="6" cy="14" r="1" fill="srgba(21.9593%,55.2941%,0%,1)"/>
  <circle cx="7" cy="14" r="1" fill="srgba(21.9593%,55.2941%,0%,1)"/>
  <circle cx="8" cy="14" r="1" fill="srgba(21.9593%,55.2941%,0%,1)"/>
  <circle cx="9" cy="14" r="1" fill="srgba(21.9593%,55.2941%,0%,1)"/>
  <circle cx="10" cy="14" r="1" fill="srgba(21.9593%,55.2941%,0%,1)"/>
  <circle cx="11" cy="14" r="1" fill="srgba(21.9593%,55.2941%,0%,1)"/>
  <circle cx="12" cy="14" r="1" fill="srgba(21.9593%,55.2941%,0%,1)"/>
  <circle cx="13" cy="14" r="1" fill="srgba(21.9593%,55.2941%,0%,1)"/>
  <circle cx="14" cy="14" r="1" fill="srgba(21.9593%,55.2941%,0%,1)"/>
  <circle cx="15" cy="14" r="1" fill="srgba(21.9593%,55.2941%,0%,1)"/>
  <circle cx="0" cy="15" r="1" fill="srgba(21.976%,55.3017%,0.0228885%,1)"/>
  <circle cx="1" cy="15" r="1" fill="srgba(21.976%,55.3017%,0.0228885%,1)"/>
  <circle cx="2" cy="15" r="1" fill="srgba(21.976%,55.3017%,0.0228885%,1)"/>
  <circle cx="3" cy="15" r="1" fill="srgba(21.976%,55.3017%,0.0228885%,1)"/>
  <circle cx="4" cy="15" r="1" fill="srgba(21.976%,55.3017%,0.0228885%,1)"/>
  <circle cx="5" cy="15" r="1" fill="srgba(21.976%,55.3017%,0.0228885%,1)"/>
  <circle cx="6" cy="15" r="1" fill="srgba(21.976%,55.3017%,0.0228885%,1)"/>
  <circle cx="7" cy="15" r="1" fill="srgba(21.976%,55.3017%,0.0228885%,1)"/>
  <circle cx="8" cy="15" r="1" fill="srgba(21.976%,55.3017%,0.0228885%,1)"/>
  <circle cx="9" cy="15" r="1" fill="srgba(21.976%,55.3017%,0.0228885%,1)"/>
  <circle cx="10" cy="15" r="1" fill="srgba(21.976%,55.3017%,0.0228885%,1)"/>
  <circle cx="11" cy="15" r="1" fill="srgba(21.976%,55.3017%,0.0228885%,1)"/>
  <circle cx="12" cy="15" r="1" fill="srgba(21.976%,55.3017%,0.0228885%,1)"/>
  <circle cx="13" cy="15" r="1" fill="srgba(21.976%,55.3017%,0.0228885%,1)"/>
  <circle cx="14" cy="15" r="1" fill="srgba(21.976%,55.3017%,0.0228885%,1)"/>
  <circle cx="15" cy="15" r="1" fill="srgba(21.976%,55.3017%,0.0228885%,1)"/>
</svg>
