<?xml version="1.0" standalone="no"?>
<!DOCTYPE svg PUBLIC "-//W3C//DTD SVG 20010904//EN"
  "http://www.w3.org/TR/2001/REC-SVG-20010904/DTD/svg10.dtd">
<svg width="16" height="16">
  <circle cx="0" cy="0" r="1" fill="white"/>
  <circle cx="1" cy="0" r="1" fill="white"/>
  <circle cx="2" cy="0" r="1" fill="white"/>
  <circle cx="3" cy="0" r="1" fill="white"/>
  <circle cx="4" cy="0" r="1" fill="white"/>
  <circle cx="5" cy="0" r="1" fill="white"/>
  <circle cx="6" cy="0" r="1" fill="white"/>
  <circle cx="7" cy="0" r="1" fill="white"/>
  <circle cx="8" cy="0" r="1" fill="white"/>
  <circle cx="9" cy="0" r="1" fill="white"/>
  <circle cx="10" cy="0" r="1" fill="white"/>
  <circle cx="11" cy="0" r="1" fill="white"/>
  <circle cx="12" cy="0" r="1" fill="white"/>
  <circle cx="13" cy="0" r="1" fill="white"/>
  <circle cx="14" cy="0" r="1" fill="white"/>
  <circle cx="15" cy="0" r="1" fill="white"/>
  <circle cx="0" cy="1" r="1" fill="srgba(50.3868%,50.3868%,90.0771%,1)"/>
  <circle cx="1" cy="1" r="1" fill="srgba(50.3868%,50.3868%,90.0771%,1)"/>
  <circle cx="2" cy="1" r="1" fill="srgba(50.3868%,50.3868%,90.0771%,1)"/>
  <circle cx="3" cy="1" r="1" fill="srgba(50.3868%,50.3868%,90.0771%,1)"/>
  <circle cx="4" cy="1" r="1" fill="srgba(50.3868%,50.3868%,90.0771%,1)"/>
  <circle cx="5" cy="1" r="1" fill="srgba(50.3868%,50.3868%,90.0771%,1)"/>
  <circle cx="6" cy="1" r="1" fill="srgba(50.3868%,50.3868%,90.0771%,1)"/>
  <circle cx="7" cy="1" r="1" fill="srgba(50.3868%,50.3868%,90.0771%,1)"/>
  <circle cx="8" cy="1" r="1" fill="srgba(50.3868%,50.3868%,90.0771%,1)"/>
  <circle cx="9" cy="1" r="1" fill="srgba(50.3868%,50.3868%,90.0771%,1)"/>
  <circle cx="10" cy="1" r="1" fill="srgba(50.3868%,50.3868%,90.0771%,1)"/>
  <circle cx="11" cy="1" r="1" fill="srgba(50.3868%,50.3868%,90.0771%,1)"/>
  <circle cx="12" cy="1" r="1" fill="srgba(50.3868%,50.3868%,90.0771%,1)"/>
  <circle cx="13" cy="1" r="1" fill="srgba(50.3868%,50.3868%,90.0771%,1)"/>
  <circle cx="14" cy="1" r="1" fill="srgba(50.3868%,50.3868%,90.0771%,1)"/>
  <circle cx="15" cy="1" r="1" fill="srgba(50.3868%,50.3868%,90.0771%,1)"/>
  <circle cx="0" cy="2" r="1" fill="srgba(0%,0%,79.3774%,1)"/>
  <circle cx="1" cy="2" r="1" fill="srgba(0%,0%,79.3774%,1)"/>
  <circle cx="2" cy="2" r="1" fill="srgba(0%,0%,79.3774%,1)"/>
  <circle cx="3" cy="2" r="1" fill="srgba(0%,0%,79.3774%,1)"/>
  <circle cx="4" cy="2" r="1" fill="srgba(0%,0%,79.3774%,1)"/>
  <circle cx="5" cy="2" r="1" fill="srgba(0%,0%,79.3774%,1)"/>
  <circle cx="6" cy="2" r="1" fill="srgba(0%,0%,79.3774%,1)"/>
  <circle cx="7" cy="2" r="1" fill="srgba(0%,0%,79.3942%,1)"/>
  <circle cx="8" cy="2" r="1" fill="srgba(0%,0%,79.382%,1)"/>
  <circle cx="9" cy="2" r="1" fill="srgba(0%,0%,79.3774%,1)"/>
  <circle cx="10" cy="2" r="1" fill="srgba(0%,0%,79.3774%,1)"/>
  <circle cx="11" cy="2" r="1" fill="srgba(0%,0%,79.3774%,1)"/>
  <circle cx="12" cy="2" r="1" fill="srgba(0%,0%,79.3774%,1)"/>
  <circle cx="13" cy="2" r="1" fill="srgba(0%,0%,79.3774%,1)"/>
  <circle cx="14" cy="2" r="1" fill="srgba(0%,0%,79.3774%,1)"/>
  <circle cx="15" cy="2" r="1" fill="srgba(0%,0%,79.3774%,1)"/>
  <circle cx="0" cy="3" r="1" fill="srgba(41.1765%,41.1765%,88.2368%,1)"/>
  <circle cx="1" cy="3" r="1" fill="srgba(41.1765%,41.1765%,88.2368%,1)"/>
  <circle cx="2" cy="3" r="1" fill="srgba(41.1765%,41.1765%,88.2368%,1)"/>
  <circle cx="3" cy="3" r="1" fill="srgba(41.1765%,41.1765%,88.2368%,1)"/>
  <circle cx="4" cy="3" r="1" fill="srgba(41.1765%,41.1765%,88.2368%,1)"/>
  <circle cx="5" cy="3" r="1" fill="srgba(41.1704%,41.1704%,88.2353%,1)"/>
  <circle cx="6" cy="3" r="1" fill="srgba(41.3062%,41.3062%,88.2628%,1)"/>
  <circle cx="7" cy="3" r="1" fill="srgba(40.2792%,40.2792%,88.0583%,1)"/>
  <circle cx="8" cy="3" r="1" fill="srgba(41.1322%,41.1322%,88.2277%,1)"/>
  <circle cx="9" cy="3" r="1" fill="srgba(41.1795%,41.1795%,88.2368%,1)"/>
  <circle cx="10" cy="3" r="1" fill="srgba(41.1765%,41.1765%,88.2368%,1)"/>
  <circle cx="11" cy="3" r="1" fill="srgba(41.1765%,41.1765%,88.2368%,1)"/>
  <circle cx="12" cy="3" r="1" fill="srgba(41.1765%,41.1765%,88.2368%,1)"/>
  <circle cx="13" cy="3" r="1" fill="srgba(41.1765%,41.1765%,88.2368%,1)"/>
  <circle cx="14" cy="3" r="1" fill="srgba(41.1765%,41.1765%,88.2368%,1)"/>
  <circle cx="15" cy="3" r="1" fill="srgba(41.1765%,41.1765%,88.2368%,1)"/>
  <circle cx="0" cy="4" r="1" fill="white"/>
  <circle cx="1" cy="4" r="1" fill="white"/>
  <circle cx="2" cy="4" r="1" fill="white"/>
  <circle cx="3" cy="4" r="1" fill="white"/>
  <circle cx="4" cy="4" r="1" fill="white"/>
  <circle cx="5" cy="4" r="1" fill="white"/>
  <circle cx="6" cy="4" r="1" fill="srgba(98.0056%,98.0056%,99.6017%,1)"/>
  <circle cx="7" cy="4" r="1" fill="srgba(61.857%,61.857%,92.372%,1)"/>
  <circle cx="8" cy="4" r="1" fill="srgba(86.4469%,86.4469%,97.29%,1)"/>
  <circle cx="9" cy="4" r="1" fill="white"/>
  <circle cx="10" cy="4" r="1" fill="white"/>
  <circle cx="11" cy="4" r="1" fill="white"/>
  <circle cx="12" cy="4" r="1" fill="white"/>
  <circle cx="13" cy="4" r="1" fill="white"/>
  <circle cx="14" cy="4" r="1" fill="white"/>
  <circle cx="15" cy="4" r="1" fill="white"/>
  <circle cx="0" cy="5" r="1" fill="white"/>
  <circle cx="1" cy="5" r="1" fill="white"/>
  <circle cx="2" cy="5" r="1" fill="white"/>
  <circle cx="3" cy="5" r="1" fill="srgba(99.9786%,99.9786%,99.9954%,1)"/>
  <circle cx="4" cy="5" r="1" fill="srgba(90.5989%,90.5989%,98.1201%,1)"/>
  <circle cx="5" cy="5" r="1" fill="srgba(85.4383%,85.4383%,97.0886%,1)"/>
  <circle cx="6" cy="5" r="1" fill="srgba(71.3725%,71.3725%,94.2748%,1)"/>
  <circle cx="7" cy="5" r="1" fill="srgba(58.5794%,58.5794%,91.7159%,1)"/>
  <circle cx="8" cy="5" r="1" fill="srgba(61.6846%,61.6846%,92.3369%,1)"/>
  <circle cx="9" cy="5" r="1" fill="srgba(85.3864%,85.3864%,97.0764%,1)"/>
  <circle cx="10" cy="5" r="1" fill="srgba(87.303%,87.303%,97.4609%,1)"/>
  <circle cx="11" cy="5" r="1" fill="srgba(97.2564%,97.2564%,99.4507%,1)"/>
  <circle cx="12" cy="5" r="1" fill="white"/>
  <circle cx="13" cy="5" r="1" fill="white"/>
  <circle cx="14" cy="5" r="1" fill="white"/>
  <circle cx="15" cy="5" r="1" fill="white"/>
  <circle cx="0" cy="6" r="1" fill="white"/>
  <circle cx="1" cy="6" r="1" fill="white"/>
  <circle cx="2" cy="6" r="1" fill="white"/>
  <circle cx="3" cy="6" r="1" fill="white"/>
  <circle cx="4" cy="6" r="1" fill="srgba(69.5979%,69.5979%,93.9178%,1)"/>
  <circle cx="5" cy="6" r="1" fill="srgba(35.0134%,35.0134%,87.0039%,1)"/>
  <circle cx="6" cy="6" r="1" fill="srgba(28.2383%,28.2383%,85.6123%,1)"/>
  <circle cx="7" cy="6" r="1" fill="srgba(82.4094%,82.4094%,96.4523%,1)"/>
  <circle cx="8" cy="6" r="1" fill="srgba(43.1785%,43.1785%,88.6122%,1)"/>
  <circle cx="9" cy="6" r="1" fill="srgba(23.2136%,23.2136%,84.6418%,1)"/>
  <circle cx="10" cy="6" r="1" fill="srgba(37.5982%,37.5982%,87.5196%,1)"/>
  <circle cx="11" cy="6" r="1" fill="srgba(92.4269%,92.4269%,98.4848%,1)"/>
  <circle cx="12" cy="6" r="1" fill="white"/>
  <circle cx="13" cy="6" r="1" fill="white"/>
  <circle cx="14" cy="6" r="1" fill="white"/>
  <circle cx="15" cy="6" r="1" fill="white"/>
  <circle cx="0" cy="7" r="1" fill="white"/>
  <circle cx="1" cy="7" r="1" fill="white"/>
  <circle cx="2" cy="7" r="1" fill="white"/>
  <circle cx="3" cy="7" r="1" fill="white"/>
  <circle cx="4" cy="7" r="1" fill="srgba(97.3556%,97.3556%,99.4705%,1)"/>
  <circle cx="5" cy="7" r="1" fill="srgba(88.3421%,88.3421%,97.6684%,1)"/>
  <circle cx="6" cy="7" r="1" fill="srgba(74.5754%,74.5754%,94.9172%,1)"/>
  <circle cx="7" cy="7" r="1" fill="srgba(72.7047%,72.7047%,94.5296%,1)"/>
  <circle cx="8" cy="7" r="1" fill="srgba(63.1907%,63.1907%,92.5994%,1)"/>
  <circle cx="9" cy="7" r="1" fill="srgba(46.4698%,46.4698%,89.2958%,1)"/>
  <circle cx="10" cy="7" r="1" fill="srgba(66.1112%,66.1112%,93.2219%,1)"/>
  <circle cx="11" cy="7" r="1" fill="white"/>
  <circle cx="12" cy="7" r="1" fill="white"/>
  <circle cx="13" cy="7" r="1" fill="white"/>
  <circle cx="14" cy="7" r="1" fill="white"/>
  <circle cx="15" cy="7" r="1" fill="white"/>
  <circle cx="0" cy="8" r="1" fill="white"/>
  <circle cx="1" cy="8" r="1" fill="white"/>
  <circle cx="2" cy="8" r="1" fill="white"/>
  <circle cx="3" cy="8" r="1" fill="white"/>
  <circle cx="4" cy="8" r="1" fill="srgba(90.9712%,90.9712%,98.1949%,1)"/>
  <circle cx="5" cy="8" r="1" fill="srgba(55.9045%,55.9045%,91.1833%,1)"/>
  <circle cx="6" cy="8" r="1" fill="srgba(65.3971%,65.3971%,93.0465%,1)"/>
  <circle cx="7" cy="8" r="1" fill="srgba(53.8323%,53.8323%,90.6752%,1)"/>
  <circle cx="8" cy="8" r="1" fill="srgba(63.8346%,63.8346%,92.7077%,1)"/>
  <circle cx="9" cy="8" r="1" fill="srgba(43.1891%,43.1891%,88.6412%,1)"/>
  <circle cx="10" cy="8" r="1" fill="srgba(67.5441%,67.5441%,93.5088%,1)"/>
  <circle cx="11" cy="8" r="1" fill="white"/>
  <circle cx="12" cy="8" r="1" fill="white"/>
  <circle cx="13" cy="8" r="1" fill="white"/>
  <circle cx="14" cy="8" r="1" fill="white"/>
  <circle cx="15" cy="8" r="1" fill="white"/>
  <circle cx="0" cy="9" r="1" fill="white"/>
  <circle cx="1" cy="9" r="1" fill="white"/>
  <circle cx="2" cy="9" r="1" fill="white"/>
  <circle cx="3" cy="9" r="1" fill="white"/>
  <circle cx="4" cy="9" r="1" fill="srgba(56.8612%,56.8612%,91.3725%,1)"/>
  <circle cx="5" cy="9" r="1" fill="srgba(35.6939%,35.6939%,87.1366%,1)"/>
  <circle cx="6" cy="9" r="1" fill="srgba(33.1075%,33.1075%,86.6224%,1)"/>
  <circle cx="7" cy="9" r="1" fill="srgba(52.9442%,52.9442%,90.5898%,1)"/>
  <circle cx="8" cy="9" r="1" fill="srgba(33.872%,33.872%,86.7674%,1)"/>
  <circle cx="9" cy="9" r="1" fill="srgba(34.0215%,34.0215%,86.7964%,1)"/>
  <circle cx="10" cy="9" r="1" fill="srgba(37.5051%,37.5051%,87.5013%,1)"/>
  <circle cx="11" cy="9" r="1" fill="srgba(91.4275%,91.4275%,98.2849%,1)"/>
  <circle cx="12" cy="9" r="1" fill="white"/>
  <circle cx="13" cy="9" r="1" fill="white"/>
  <circle cx="14" cy="9" r="1" fill="white"/>
  <circle cx="15" cy="9" r="1" fill="white"/>
  <circle cx="0" cy="10" r="1" fill="white"/>
  <circle cx="1" cy="10" r="1" fill="white"/>
  <circle cx="2" cy="10" r="1" fill="white"/>
  <circle cx="3" cy="10" r="1" fill="srgba(98.0041%,98.0041%,99.6017%,1)"/>
  <circle cx="4" cy="10" r="1" fill="srgba(29.7337%,29.7337%,85.8518%,1)"/>
  <circle cx="5" cy="10" r="1" fill="srgba(0%,0%,79.2569%,1)"/>
  <circle cx="6" cy="10" r="1" fill="srgba(22.4842%,22.4842%,84.1947%,1)"/>
  <circle cx="7" cy="10" r="1" fill="srgba(79.5895%,79.5895%,95.8862%,1)"/>
  <circle cx="8" cy="10" r="1" fill="srgba(25.8335%,25.8335%,85.1698%,1)"/>
  <circle cx="9" cy="10" r="1" fill="srgba(40.9384%,40.9384%,88.188%,1)"/>
  <circle cx="10" cy="10" r="1" fill="srgba(71.87%,71.87%,94.374%,1)"/>
  <circle cx="11" cy="10" r="1" fill="srgba(96.6735%,96.6735%,99.3347%,1)"/>
  <circle cx="12" cy="10" r="1" fill="white"/>
  <circle cx="13" cy="10" r="1" fill="white"/>
  <circle cx="14" cy="10" r="1" fill="white"/>
  <circle cx="15" cy="10" r="1" fill="white"/>
  <circle cx="0" cy="11" r="1" fill="white"/>
  <circle cx="1" cy="11" r="1" fill="white"/>
  <circle cx="2" cy="11" r="1" fill="white"/>
  <circle cx="3" cy="11" r="1" fill="srgba(97.7081%,97.7081%,99.5407%,1)"/>
  <circle cx="4" cy="11" r="1" fill="srgba(30.3319%,30.3319%,86.0624%,1)"/>
  <circle cx="5" cy="11" r="1" fill="srgba(10.8049%,10.8049%,82.1607%,1)"/>
  <circle cx="6" cy="11" r="1" fill="srgba(49.1325%,49.1325%,89.8253%,1)"/>
  <circle cx="7" cy="11" r="1" fill="srgba(90.7973%,90.7973%,98.1598%,1)"/>
  <circle cx="8" cy="11" r="1" fill="srgba(88.5298%,88.5298%,97.705%,1)"/>
  <circle cx="9" cy="11" r="1" fill="srgba(99.7711%,99.7711%,99.9542%,1)"/>
  <circle cx="10" cy="11" r="1" fill="white"/>
  <circle cx="11" cy="11" r="1" fill="white"/>
  <circle cx="12" cy="11" r="1" fill="white"/>
  <circle cx="13" cy="11" r="1" fill="white"/>
  <circle cx="14" cy="11" r="1" fill="white"/>
  <circle cx="15" cy="11" r="1" fill="white"/>
  <circle cx="0" cy="12" r="1" fill="srgba(45.565%,45.565%,89.1081%,1)"/>
  <circle cx="1" cy="12" r="1" fill="srgba(45.565%,45.565%,89.1081%,1)"/>
  <circle cx="2" cy="12" r="1" fill="srgba(45.6245%,45.6245%,89.1203%,1)"/>
  <circle cx="3" cy="12" r="1" fill="srgba(44.3122%,44.3122%,88.8579%,1)"/>
  <circle cx="4" cy="12" r="1" fill="srgba(21.7884%,21.7884%,84.3534%,1)"/>
  <circle cx="5" cy="12" r="1" fill="srgba(30.1503%,30.1503%,86.0258%,1)"/>
  <circle cx="6" cy="12" r="1" fill="srgba(58.0575%,58.0575%,91.6075%,1)"/>
  <circle cx="7" cy="12" r="1" fill="srgba(78.8663%,78.8663%,95.7717%,1)"/>
  <circle cx="8" cy="12" r="1" fill="srgba(46.5614%,46.5614%,89.308%,1)"/>
  <circle cx="9" cy="12" r="1" fill="srgba(45.5924%,45.5924%,89.1142%,1)"/>
  <circle cx="10" cy="12" r="1" fill="srgba(45.5619%,45.5619%,89.1081%,1)"/>
  <circle cx="11" cy="12" r="1" fill="srgba(45.565%,45.565%,89.1081%,1)"/>
  <circle cx="12" cy="12" r="1" fill="srgba(45.565%,45.565%,89.1081%,1)"/>
  <circle cx="13" cy="12" r="1" fill="srgba(45.565%,45.565%,89.1081%,1)"/>
  <circle cx="14" cy="12" r="1" fill="srgba(45.565%,45.565%,89.1081%,1)"/>
  <circle cx="15" cy="12" r="1" fill="srgba(45.565%,45.565%,89.1081%,1)"/>
  <circle cx="0" cy="13" r="1" fill="srgba(0%,0%,79.3561%,1)"/>
  <circle cx="1" cy="13" r="1" fill="srgba(0%,0%,79.3561%,1)"/>
  <circle cx="2" cy="13" r="1" fill="srgba(0%,0%,79.3561%,1)"/>
  <circle cx="3" cy="13" r="1" fill="srgba(0%,0%,79.3637%,1)"/>
  <circle cx="4" cy="13" r="1" fill="srgba(0%,0%,79.588%,1)"/>
  <circle cx="5" cy="13" r="1" fill="srgba(0%,0%,79.2401%,1)"/>
  <circle cx="6" cy="13" r="1" fill="srgba(25.3117%,25.3117%,84.6036%,1)"/>
  <circle cx="7" cy="13" r="1" fill="srgba(52.1553%,52.1553%,90.193%,1)"/>
  <circle cx="8" cy="13" r="1" fill="srgba(0%,0%,79.2676%,1)"/>
  <circle cx="9" cy="13" r="1" fill="srgba(0%,0%,79.353%,1)"/>
  <circle cx="10" cy="13" r="1" fill="srgba(0%,0%,79.3561%,1)"/>
  <circle cx="11" cy="13" r="1" fill="srgba(0%,0%,79.3561%,1)"/>
  <circle cx="12" cy="13" r="1" fill="srgba(0%,0%,79.3561%,1)"/>
  <circle cx="13" cy="13" r="1" fill="srgba(0%,0%,79.3561%,1)"/>
  <circle cx="14" cy="13" r="1" fill="srgba(0%,0%,79.3561%,1)"/>
  <circle cx="15" cy="13" r="1" fill="srgba(0%,0%,79.3561%,1)"/>
  <circle cx="0" cy="14" r="1" fill="srgba(45.8045%,45.8045%,89.1615%,1)"/>
  <circle cx="1" cy="14" r="1" fill="srgba(45.8045%,45.8045%,89.1615%,1)"/>
  <circle cx="2" cy="14" r="1" fill="srgba(45.8045%,45.8045%,89.1615%,1)"/>
  <circle cx="3" cy="14" r="1" fill="srgba(45.8045%,45.8045%,89.1615%,1)"/>
  <circle cx="4" cy="14" r="1" fill="srgba(45.8045%,45.8045%,89.1615%,1)"/>
  <circle cx="5" cy="14" r="1" fill="srgba(45.0309%,45.0309%,89.0074%,1)"/>
  <circle cx="6" cy="14" r="1" fill="srgba(59.3225%,59.3225%,91.8654%,1)"/>
  <circle cx="7" cy="14" r="1" fill="srgba(69.5567%,69.5567%,93.9117%,1)"/>
  <circle cx="8" cy="14" r="1" fill="srgba(45.1316%,45.1316%,89.0272%,1)"/>
  <circle cx="9" cy="14" r="1" fill="srgba(45.8045%,45.8045%,89.1615%,1)"/>
  <circle cx="10" cy="14" r="1" fill="srgba(45.8045%,45.8045%,89.1615%,1)"/>
  <circle cx="11" cy="14" r="1" fill="srgba(45.8045%,45.8045%,89.1615%,1)"/>
  <circle cx="12" cy="14" r="1" fill="srgba(45.8045%,45.8045%,89.1615%,1)"/>
  <circle cx="13" cy="14" r="1" fill="srgba(45.8045%,45.8045%,89.1615%,1)"/>
  <circle cx="14" cy="14" r="1" fill="srgba(45.8045%,45.8045%,89.1615%,1)"/>
  <circle cx="15" cy="14" r="1" fill="srgba(45.8045%,45.8045%,89.1615%,1)"/>
  <circle cx="0" cy="15" r="1" fill="white"/>
  <circle cx="1" cy="15" r="1" fill="white"/>
  <circle cx="2" cy="15" r="1" fill="white"/>
  <circle cx="3" cy="15" r="1" fill="white"/>
  <circle cx="4" cy="15" r="1" fill="white"/>
  <circle cx="5" cy="15" r="1" fill="white"/>
  <circle cx="6" cy="15" r="1" fill="srgba(99.9969%,99.9969%,100%,1)"/>
  <circle cx="7" cy="15" r="1" fill="srgba(99.968%,99.968%,99.9939%,1)"/>
  <circle cx="8" cy="15" r="1" fill="srgba(99.9985%,99.9985%,100%,1)"/>
  <circle cx="9" cy="15" r="1" fill="white"/>
  <circle cx="10" cy="15" r="1" fill="white"/>
  <circle cx="11" cy="15" r="1" fill="white"/>
  <circle cx="12" cy="15" r="1" fill="white"/>
  <circle cx="13" cy="15" r="1" fill="white"/>
  <circle cx="14" cy="15" r="1" fill="white"/>
  <circle cx="15" cy="15" r="1" fill="white"/>
</svg>
