<?xml version="1.0" standalone="no"?>
<!DOCTYPE svg PUBLIC "-//W3C//DTD SVG 20010904//EN"
  "http://www.w3.org/TR/2001/REC-SVG-20010904/DTD/svg10.dtd">
<svg width="16" height="16">
  <circle cx="0" cy="0" r="1" fill="srgba(73.9055%,3.56451%,3.56451%,1)"/>
  <circle cx="1" cy="0" r="1" fill="srgba(72.8878%,0%,0%,1)"/>
  <circle cx="2" cy="0" r="1" fill="srgba(186,0,0,1)"/>
  <circle cx="3" cy="0" r="1" fill="srgba(186,0,0,1)"/>
  <circle cx="4" cy="0" r="1" fill="srgba(186,0,0,1)"/>
  <circle cx="5" cy="0" r="1" fill="srgba(186,0,0,1)"/>
  <circle cx="6" cy="0" r="1" fill="srgba(186,0,0,1)"/>
  <circle cx="7" cy="0" r="1" fill="srgba(186,0,0,1)"/>
  <circle cx="8" cy="0" r="1" fill="srgba(186,0,0,1)"/>
  <circle cx="9" cy="0" r="1" fill="srgba(186,0,0,1)"/>
  <circle cx="10" cy="0" r="1" fill="srgba(186,0,0,1)"/>
  <circle cx="11" cy="0" r="1" fill="srgba(186,0,0,1)"/>
  <circle cx="12" cy="0" r="1" fill="srgba(186,0,0,1)"/>
  <circle cx="13" cy="0" r="1" fill="srgba(186,0,0,1)"/>
  <circle cx="14" cy="0" r="1" fill="srgba(186,0,0,1)"/>
  <circle cx="15" cy="0" r="1" fill="srgba(186,0,0,1)"/>
  <circle cx="0" cy="1" r="1" fill="srgba(73.904%,3.56451%,3.56451%,1)"/>
  <circle cx="1" cy="1" r="1" fill="srgba(72.9122%,0%,0%,1)"/>
  <circle cx="2" cy="1" r="1" fill="srgba(72.9839%,0%,0%,1)"/>
  <circle cx="3" cy="1" r="1" fill="srgba(186,0,0,1)"/>
  <circle cx="4" cy="1" r="1" fill="srgba(186,0,0,1)"/>
  <circle cx="5" cy="1" r="1" fill="srgba(72.9564%,0%,0%,1)"/>
  <circle cx="6" cy="1" r="1" fill="srgba(72.9702%,0%,0%,1)"/>
  <circle cx="7" cy="1" r="1" fill="srgba(72.9824%,0%,0%,1)"/>
  <circle cx="8" cy="1" r="1" fill="srgba(73.0236%,0%,0%,1)"/>
  <circle cx="9" cy="1" r="1" fill="srgba(73.0037%,0%,0%,1)"/>
  <circle cx="10" cy="1" r="1" fill="srgba(73.0068%,0%,0%,1)"/>
  <circle cx="11" cy="1" r="1" fill="srgba(73.0098%,0%,0%,1)"/>
  <circle cx="12" cy="1" r="1" fill="srgba(73.0129%,0%,0%,1)"/>
  <circle cx="13" cy="1" r="1" fill="srgba(73.0159%,0%,0%,1)"/>
  <circle cx="14" cy="1" r="1" fill="srgba(73.0205%,0%,0%,1)"/>
  <circle cx="15" cy="1" r="1" fill="srgba(73.0236%,0%,0%,1)"/>
  <circle cx="0" cy="2" r="1" fill="srgba(73.9315%,3.52483%,3.52483%,1)"/>
  <circle cx="1" cy="2" r="1" fill="srgba(72.5216%,0.355535%,0.355535%,1)"/>
  <circle cx="2" cy="2" r="1" fill="srgba(72.3079%,1.02541%,1.02541%,1)"/>
  <circle cx="3" cy="2" r="1" fill="srgba(72.9259%,0%,0%,1)"/>
  <circle cx="4" cy="2" r="1" fill="srgba(72.9107%,0%,0%,1)"/>
  <circle cx="5" cy="2" r="1" fill="srgba(72.2118%,0%,0%,1)"/>
  <circle cx="6" cy="2" r="1" fill="srgba(72.3293%,7.73785%,8.06592%,1)"/>
  <circle cx="7" cy="2" r="1" fill="srgba(71.4443%,13.3669%,11.4107%,1)"/>
  <circle cx="8" cy="2" r="1" fill="srgba(71.6945%,4.6128%,0.0732433%,1)"/>
  <circle cx="9" cy="2" r="1" fill="srgba(72.0577%,4.75166%,0.112917%,1)"/>
  <circle cx="10" cy="2" r="1" fill="srgba(72.0089%,4.70283%,0.120546%,1)"/>
  <circle cx="11" cy="2" r="1" fill="srgba(72.0089%,4.41749%,0.114443%,1)"/>
  <circle cx="12" cy="2" r="1" fill="srgba(72.0577%,4.13367%,0.0320439%,1)"/>
  <circle cx="13" cy="2" r="1" fill="srgba(72.1355%,3.83764%,0.0259403%,1)"/>
  <circle cx="14" cy="2" r="1" fill="srgba(72.0836%,3.96277%,0.0122072%,1)"/>
  <circle cx="15" cy="2" r="1" fill="srgba(71.9448%,3.89868%,0.0030518%,1)"/>
  <circle cx="0" cy="3" r="1" fill="srgba(74.0093%,3.18303%,3.18303%,1)"/>
  <circle cx="1" cy="3" r="1" fill="srgba(71.6732%,5.6199%,5.67025%,1)"/>
  <circle cx="2" cy="3" r="1" fill="srgba(64.593%,26.0777%,23.7873%,1)"/>
  <circle cx="3" cy="3" r="1" fill="srgba(68.2353%,3.56909%,2.87175%,1)"/>
  <circle cx="4" cy="3" r="1" fill="srgba(73.3364%,13.0297%,13.0678%,1)"/>
  <circle cx="5" cy="3" r="1" fill="srgba(76.8444%,42.0829%,42.3789%,1)"/>
  <circle cx="6" cy="3" r="1" fill="srgba(79.3301%,66.8269%,61.8097%,1)"/>
  <circle cx="7" cy="3" r="1" fill="srgba(76.3546%,69.9184%,54.1192%,1)"/>
  <circle cx="8" cy="3" r="1" fill="srgba(67.9133%,28.806%,10.869%,1)"/>
  <circle cx="9" cy="3" r="1" fill="srgba(67.0253%,15.378%,0%,1)"/>
  <circle cx="10" cy="3" r="1" fill="srgba(66.6438%,14.3587%,0%,1)"/>
  <circle cx="11" cy="3" r="1" fill="srgba(66.3706%,29.6635%,0.598154%,1)"/>
  <circle cx="12" cy="3" r="1" fill="srgba(60.3494%,35.0362%,11.1055%,1)"/>
  <circle cx="13" cy="3" r="1" fill="srgba(57.0108%,27.7806%,7.90723%,1)"/>
  <circle cx="14" cy="3" r="1" fill="srgba(58.0423%,22.4201%,7.88739%,1)"/>
  <circle cx="15" cy="3" r="1" fill="srgba(62.0279%,17.3922%,4.79896%,1)"/>
  <circle cx="0" cy="4" r="1" fill="srgba(73.9284%,3.51568%,3.51568%,1)"/>
  <circle cx="1" cy="4" r="1" fill="srgba(72.5582%,0%,0%,1)"/>
  <circle cx="2" cy="4" r="1" fill="srgba(61.4725%,25.0156%,23.0488%,1)"/>
  <circle cx="3" cy="4" r="1" fill="srgba(69.7566%,46.566%,45.8808%,1)"/>
  <circle cx="4" cy="4" r="1" fill="srgba(75.7397%,59.5804%,59.9222%,1)"/>
  <circle cx="5" cy="4" r="1" fill="srgba(63.4699%,54.9371%,55.407%,1)"/>
  <circle cx="6" cy="4" r="1" fill="srgba(53.6172%,32.6131%,26.9383%,1)"/>
  <circle cx="7" cy="4" r="1" fill="srgba(57.9904%,30.6584%,21.6815%,1)"/>
  <circle cx="8" cy="4" r="1" fill="srgba(56.7483%,24.0085%,20.6882%,1)"/>
  <circle cx="9" cy="4" r="1" fill="srgba(65.7252%,35.2117%,33.5775%,1)"/>
  <circle cx="10" cy="4" r="1" fill="srgba(65.5695%,33.8506%,33.6553%,1)"/>
  <circle cx="11" cy="4" r="1" fill="srgba(59.2935%,38.349%,28.7419%,1)"/>
  <circle cx="12" cy="4" r="1" fill="srgba(63.3555%,52.5338%,46.9368%,1)"/>
  <circle cx="13" cy="4" r="1" fill="srgba(63.0701%,33.077%,12.4498%,1)"/>
  <circle cx="14" cy="4" r="1" fill="srgba(62.562%,6.26993%,2.51469%,1)"/>
  <circle cx="15" cy="4" r="1" fill="srgba(63.7217%,3.13573%,3.67285%,1)"/>
  <circle cx="0" cy="5" r="1" fill="srgba(73.904%,3.56451%,3.56451%,1)"/>
  <circle cx="1" cy="5" r="1" fill="srgba(73.0083%,0%,0%,1)"/>
  <circle cx="2" cy="5" r="1" fill="srgba(60.7279%,4.89509%,5.17586%,1)"/>
  <circle cx="3" cy="5" r="1" fill="srgba(56.3531%,34.403%,20.5234%,1)"/>
  <circle cx="4" cy="5" r="1" fill="srgba(60.7965%,31.3954%,8.99214%,1)"/>
  <circle cx="5" cy="5" r="1" fill="srgba(47.0726%,14.3084%,2.14084%,1)"/>
  <circle cx="6" cy="5" r="1" fill="srgba(59.8993%,2.19425%,0%,1)"/>
  <circle cx="7" cy="5" r="1" fill="srgba(70.0694%,0%,0.239567%,1)"/>
  <circle cx="8" cy="5" r="1" fill="srgba(69.6147%,19.0341%,18.3703%,1)"/>
  <circle cx="9" cy="5" r="1" fill="srgba(83.1113%,78.0224%,72.7306%,1)"/>
  <circle cx="10" cy="5" r="1" fill="srgba(81.5915%,71.6396%,67.628%,1)"/>
  <circle cx="11" cy="5" r="1" fill="srgba(76.437%,70.1213%,68.4077%,1)"/>
  <circle cx="12" cy="5" r="1" fill="srgba(75.7076%,61.3596%,61.7639%,1)"/>
  <circle cx="13" cy="5" r="1" fill="srgba(66.07%,12.1645%,4.51209%,1)"/>
  <circle cx="14" cy="5" r="1" fill="srgba(60.5753%,1.20241%,0%,1)"/>
  <circle cx="15" cy="5" r="1" fill="srgba(57.8805%,0%,0%,1)"/>
  <circle cx="0" cy="6" r="1" fill="srgba(73.9055%,3.56451%,3.56451%,1)"/>
  <circle cx="1" cy="6" r="1" fill="srgba(72.958%,0%,0%,1)"/>
  <circle cx="2" cy="6" r="1" fill="srgba(61.3046%,0.360113%,0%,1)"/>
  <circle cx="3" cy="6" r="1" fill="srgba(56.025%,13.2479%,0%,1)"/>
  <circle cx="4" cy="6" r="1" fill="srgba(62.2019%,7.48455%,0%,1)"/>
  <circle cx="5" cy="6" r="1" fill="srgba(48.9784%,2.2034%,0%,1)"/>
  <circle cx="6" cy="6" r="1" fill="srgba(64.2924%,14.3603%,13.1167%,1)"/>
  <circle cx="7" cy="6" r="1" fill="srgba(72.195%,47.0298%,32.6909%,1)"/>
  <circle cx="8" cy="6" r="1" fill="srgba(66.9795%,54.5815%,26.0822%,1)"/>
  <circle cx="9" cy="6" r="1" fill="srgba(59.8413%,55.4009%,33.5653%,1)"/>
  <circle cx="10" cy="6" r="1" fill="srgba(55.816%,26.3691%,9.31868%,1)"/>
  <circle cx="11" cy="6" r="1" fill="srgba(58.4909%,45.6306%,33.138%,1)"/>
  <circle cx="12" cy="6" r="1" fill="srgba(65.2934%,44.0589%,35.8679%,1)"/>
  <circle cx="13" cy="6" r="1" fill="srgba(60.7385%,6.8864%,0%,1)"/>
  <circle cx="14" cy="6" r="1" fill="srgba(57.2519%,6.31724%,0%,1)"/>
  <circle cx="15" cy="6" r="1" fill="srgba(55.6954%,5.40169%,0%,1)"/>
  <circle cx="0" cy="7" r="1" fill="srgba(73.9055%,3.56451%,3.56451%,1)"/>
  <circle cx="1" cy="7" r="1" fill="srgba(72.9595%,0%,0%,1)"/>
  <circle cx="2" cy="7" r="1" fill="srgba(61.1398%,0.514229%,0%,1)"/>
  <circle cx="3" cy="7" r="1" fill="srgba(60.4349%,6.99779%,0%,1)"/>
  <circle cx="4" cy="7" r="1" fill="srgba(64.5029%,0%,0%,1)"/>
  <circle cx="5" cy="7" r="1" fill="srgba(48.9891%,6.63005%,6.69871%,1)"/>
  <circle cx="6" cy="7" r="1" fill="srgba(79.3484%,70.7164%,71.1498%,1)"/>
  <circle cx="7" cy="7" r="1" fill="srgba(90.2327%,91.3405%,82.2675%,1)"/>
  <circle cx="8" cy="7" r="1" fill="srgba(85.3834%,81.7014%,17.5021%,1)"/>
  <circle cx="9" cy="7" r="1" fill="srgba(83.1052%,80.0641%,17.3007%,1)"/>
  <circle cx="10" cy="7" r="1" fill="srgba(81.6098%,73.7255%,16.7285%,1)"/>
  <circle cx="11" cy="7" r="1" fill="srgba(78.8159%,73.0053%,12.372%,1)"/>
  <circle cx="12" cy="7" r="1" fill="srgba(77.9522%,64.2435%,5.5787%,1)"/>
  <circle cx="13" cy="7" r="1" fill="srgba(78.4253%,53.4051%,0.0595102%,1)"/>
  <circle cx="14" cy="7" r="1" fill="srgba(72.2683%,43.9597%,0.161746%,1)"/>
  <circle cx="15" cy="7" r="1" fill="srgba(70.7424%,31.7449%,0.0228885%,1)"/>
  <circle cx="0" cy="8" r="1" fill="srgba(73.9055%,3.56451%,3.56451%,1)"/>
  <circle cx="1" cy="8" r="1" fill="srgba(72.961%,0%,0%,1)"/>
  <circle cx="2" cy="8" r="1" fill="srgba(61.0727%,0.415045%,0%,1)"/>
  <circle cx="3" cy="8" r="1" fill="srgba(60.3388%,5.19722%,0%,1)"/>
  <circle cx="4" cy="8" r="1" fill="srgba(62.6535%,2.84886%,2.50858%,1)"/>
  <circle cx="5" cy="8" r="1" fill="srgba(46.5248%,26.8742%,25.8793%,1)"/>
  <circle cx="6" cy="8" r="1" fill="srgba(78.0591%,76.4721%,75.1965%,1)"/>
  <circle cx="7" cy="8" r="1" fill="srgba(80.2991%,56.8582%,54.9203%,1)"/>
  <circle cx="8" cy="8" r="1" fill="srgba(68.7724%,32.7657%,12.4224%,1)"/>
  <circle cx="9" cy="8" r="1" fill="srgba(76.0601%,41.8189%,30.9651%,1)"/>
  <circle cx="10" cy="8" r="1" fill="srgba(76.8887%,67.7165%,61.6938%,1)"/>
  <circle cx="11" cy="8" r="1" fill="srgba(54.5495%,48.3574%,34.9508%,1)"/>
  <circle cx="12" cy="8" r="1" fill="srgba(59.5422%,17.7111%,3.23949%,1)"/>
  <circle cx="13" cy="8" r="1" fill="srgba(69.8299%,6.05173%,0%,1)"/>
  <circle cx="14" cy="8" r="1" fill="srgba(70.2251%,3.97803%,0.0732433%,1)"/>
  <circle cx="15" cy="8" r="1" fill="srgba(71.136%,0.999466%,0.0106813%,1)"/>
  <circle cx="0" cy="9" r="1" fill="srgba(73.9055%,3.56451%,3.56451%,1)"/>
  <circle cx="1" cy="9" r="1" fill="srgba(72.9641%,0%,0%,1)"/>
  <circle cx="2" cy="9" r="1" fill="srgba(61.1719%,0.288396%,0%,1)"/>
  <circle cx="3" cy="9" r="1" fill="srgba(59.8978%,3.03502%,0%,1)"/>
  <circle cx="4" cy="9" r="1" fill="srgba(60.3235%,8.15747%,4.68299%,1)"/>
  <circle cx="5" cy="9" r="1" fill="srgba(35.8022%,31.6686%,18.9853%,1)"/>
  <circle cx="6" cy="9" r="1" fill="srgba(53.7881%,44.1489%,36.3607%,1)"/>
  <circle cx="7" cy="9" r="1" fill="srgba(59.939%,10.8858%,10.277%,1)"/>
  <circle cx="8" cy="9" r="1" fill="srgba(58.5199%,4.34882%,0%,1)"/>
  <circle cx="9" cy="9" r="1" fill="srgba(63.7705%,0%,0%,1)"/>
  <circle cx="10" cy="9" r="1" fill="srgba(61.0452%,33.1273%,33.5424%,1)"/>
  <circle cx="11" cy="9" r="1" fill="srgba(46.6148%,22.4155%,19.1165%,1)"/>
  <circle cx="12" cy="9" r="1" fill="srgba(56.5087%,5.01106%,0%,1)"/>
  <circle cx="13" cy="9" r="1" fill="srgba(63.4791%,0%,0%,1)"/>
  <circle cx="14" cy="9" r="1" fill="srgba(66.8833%,0%,0%,1)"/>
  <circle cx="15" cy="9" r="1" fill="srgba(72.7428%,0%,0%,1)"/>
  <circle cx="0" cy="10" r="1" fill="srgba(73.9055%,3.56451%,3.56451%,1)"/>
  <circle cx="1" cy="10" r="1" fill="srgba(72.9686%,0%,0%,1)"/>
  <circle cx="2" cy="10" r="1" fill="srgba(61.1963%,0.106813%,0%,1)"/>
  <circle cx="3" cy="10" r="1" fill="srgba(59.0951%,1.04829%,0%,1)"/>
  <circle cx="4" cy="10" r="1" fill="srgba(62.5162%,2.80461%,0%,1)"/>
  <circle cx="5" cy="10" r="1" fill="srgba(32.2911%,12.4071%,6.9749%,1)"/>
  <circle cx="6" cy="10" r="1" fill="srgba(64.6235%,59.4919%,59.4629%,1)"/>
  <circle cx="7" cy="10" r="1" fill="srgba(70.1579%,50.3258%,50.312%,1)"/>
  <circle cx="8" cy="10" r="1" fill="srgba(64.6586%,3.19219%,3.07012%,1)"/>
  <circle cx="9" cy="10" r="1" fill="srgba(70.8461%,0%,0%,1)"/>
  <circle cx="10" cy="10" r="1" fill="srgba(62.5025%,24.7456%,24.9348%,1)"/>
  <circle cx="11" cy="10" r="1" fill="srgba(49.7459%,17.0962%,14.284%,1)"/>
  <circle cx="12" cy="10" r="1" fill="srgba(62.2675%,3.7293%,0%,1)"/>
  <circle cx="13" cy="10" r="1" fill="srgba(71.7342%,0%,0%,1)"/>
  <circle cx="14" cy="10" r="1" fill="srgba(68.9937%,0%,0%,1)"/>
  <circle cx="15" cy="10" r="1" fill="srgba(67.9759%,0%,0%,1)"/>
  <circle cx="0" cy="11" r="1" fill="srgba(73.9315%,3.56451%,3.56451%,1)"/>
  <circle cx="1" cy="11" r="1" fill="srgba(72.1935%,0%,0%,1)"/>
  <circle cx="2" cy="11" r="1" fill="srgba(55.2285%,0.0030518%,0%,1)"/>
  <circle cx="3" cy="11" r="1" fill="srgba(60.206%,0%,0%,1)"/>
  <circle cx="4" cy="11" r="1" fill="srgba(62.6581%,1.36721%,0.030518%,1)"/>
  <circle cx="5" cy="11" r="1" fill="srgba(35.5032%,2.25223%,0%,1)"/>
  <circle cx="6" cy="11" r="1" fill="srgba(61.561%,15.0683%,15.1949%,1)"/>
  <circle cx="7" cy="11" r="1" fill="srgba(64.1276%,47.5486%,47.6158%,1)"/>
  <circle cx="8" cy="11" r="1" fill="srgba(57.7356%,27.9515%,28.0995%,1)"/>
  <circle cx="9" cy="11" r="1" fill="srgba(61.1353%,1.6434%,1.63577%,1)"/>
  <circle cx="10" cy="11" r="1" fill="srgba(50.576%,12.0302%,12.1736%,1)"/>
  <circle cx="11" cy="11" r="1" fill="srgba(42.562%,9.73526%,7.60662%,1)"/>
  <circle cx="12" cy="11" r="1" fill="srgba(52.9381%,3.05028%,0%,1)"/>
  <circle cx="13" cy="11" r="1" fill="srgba(60.322%,0%,0%,1)"/>
  <circle cx="14" cy="11" r="1" fill="srgba(60.3738%,0.277714%,0%,1)"/>
  <circle cx="15" cy="11" r="1" fill="srgba(56.9238%,0.834668%,0%,1)"/>
  <circle cx="0" cy="12" r="1" fill="srgba(73.9483%,3.56451%,3.56451%,1)"/>
  <circle cx="1" cy="12" r="1" fill="srgba(71.7403%,0%,0%,1)"/>
  <circle cx="2" cy="12" r="1" fill="srgba(55.1507%,0%,0%,1)"/>
  <circle cx="3" cy="12" r="1" fill="srgba(63.2639%,0%,0%,1)"/>
  <circle cx="4" cy="12" r="1" fill="srgba(58.3963%,0.202945%,0.00457771%,1)"/>
  <circle cx="5" cy="12" r="1" fill="srgba(43.1235%,0.376898%,0.00915541%,1)"/>
  <circle cx="6" cy="12" r="1" fill="srgba(65.2659%,0%,0%,1)"/>
  <circle cx="7" cy="12" r="1" fill="srgba(55.1812%,11.8074%,10.7454%,1)"/>
  <circle cx="8" cy="12" r="1" fill="srgba(64.7074%,49.8985%,47.7501%,1)"/>
  <circle cx="9" cy="12" r="1" fill="srgba(70.248%,7.53491%,7.58679%,1)"/>
  <circle cx="10" cy="12" r="1" fill="srgba(57.9797%,0.474556%,0.575265%,1)"/>
  <circle cx="11" cy="12" r="1" fill="srgba(48.1636%,2.21714%,0.714122%,1)"/>
  <circle cx="12" cy="12" r="1" fill="srgba(59.8627%,2.49332%,0.0213626%,1)"/>
  <circle cx="13" cy="12" r="1" fill="srgba(69.0089%,0%,0%,1)"/>
  <circle cx="14" cy="12" r="1" fill="srgba(68.7327%,0.198367%,0%,1)"/>
  <circle cx="15" cy="12" r="1" fill="srgba(65.3544%,0.582895%,0%,1)"/>
  <circle cx="0" cy="13" r="1" fill="srgba(73.9452%,3.56451%,3.56451%,1)"/>
  <circle cx="1" cy="13" r="1" fill="srgba(71.7693%,0%,0%,1)"/>
  <circle cx="2" cy="13" r="1" fill="srgba(59.382%,0%,0%,1)"/>
  <circle cx="3" cy="13" r="1" fill="srgba(65.6565%,0%,0%,1)"/>
  <circle cx="4" cy="13" r="1" fill="srgba(60.1328%,0%,0%,1)"/>
  <circle cx="5" cy="13" r="1" fill="srgba(53.8231%,0%,0%,1)"/>
  <circle cx="6" cy="13" r="1" fill="srgba(66.9627%,0%,0%,1)"/>
  <circle cx="7" cy="13" r="1" fill="srgba(55.6512%,12.6528%,9.75967%,1)"/>
  <circle cx="8" cy="13" r="1" fill="srgba(62.6535%,19.2569%,14.4228%,1)"/>
  <circle cx="9" cy="13" r="1" fill="srgba(73.5119%,0%,0%,1)"/>
  <circle cx="10" cy="13" r="1" fill="srgba(63.0518%,0%,0%,1)"/>
  <circle cx="11" cy="13" r="1" fill="srgba(52.6741%,0.901808%,0.0228885%,1)"/>
  <circle cx="12" cy="13" r="1" fill="srgba(62.7466%,1.4786%,0.0381476%,1)"/>
  <circle cx="13" cy="13" r="1" fill="srgba(73.6294%,0%,0%,1)"/>
  <circle cx="14" cy="13" r="1" fill="srgba(73.3745%,0%,0%,1)"/>
  <circle cx="15" cy="13" r="1" fill="srgba(70.7088%,0%,0%,1)"/>
  <circle cx="0" cy="14" r="1" fill="srgba(73.93%,3.56451%,3.56451%,1)"/>
  <circle cx="1" cy="14" r="1" fill="srgba(72.2438%,0%,0%,1)"/>
  <circle cx="2" cy="14" r="1" fill="srgba(67.126%,0%,0%,1)"/>
  <circle cx="3" cy="14" r="1" fill="srgba(67.6036%,0%,0%,1)"/>
  <circle cx="4" cy="14" r="1" fill="srgba(62.2843%,0%,0%,1)"/>
  <circle cx="5" cy="14" r="1" fill="srgba(63.0625%,0%,0%,1)"/>
  <circle cx="6" cy="14" r="1" fill="srgba(67.4952%,0%,0%,1)"/>
  <circle cx="7" cy="14" r="1" fill="srgba(54.9081%,2.16678%,2.24002%,1)"/>
  <circle cx="8" cy="14" r="1" fill="srgba(64.7852%,1.85397%,1.95163%,1)"/>
  <circle cx="9" cy="14" r="1" fill="srgba(73.6278%,0%,0%,1)"/>
  <circle cx="10" cy="14" r="1" fill="srgba(63.4241%,0%,0%,1)"/>
  <circle cx="11" cy="14" r="1" fill="srgba(53.6141%,0.225834%,0.00610361%,1)"/>
  <circle cx="12" cy="14" r="1" fill="srgba(61.8204%,0.360113%,0.00915541%,1)"/>
  <circle cx="13" cy="14" r="1" fill="srgba(73.4173%,0%,0%,1)"/>
  <circle cx="14" cy="14" r="1" fill="srgba(73.1136%,0%,0%,1)"/>
  <circle cx="15" cy="14" r="1" fill="srgba(69.3751%,0%,0%,1)"/>
  <circle cx="0" cy="15" r="1" fill="srgba(73.9055%,3.56451%,3.56451%,1)"/>
  <circle cx="1" cy="15" r="1" fill="srgba(72.8756%,0%,0%,1)"/>
  <circle cx="2" cy="15" r="1" fill="srgba(73.0388%,0%,0%,1)"/>
  <circle cx="3" cy="15" r="1" fill="srgba(71.9463%,0%,0%,1)"/>
  <circle cx="4" cy="15" r="1" fill="srgba(66.1814%,0%,0%,1)"/>
  <circle cx="5" cy="15" r="1" fill="srgba(65.359%,0%,0%,1)"/>
  <circle cx="6" cy="15" r="1" fill="srgba(67.5242%,0%,0%,1)"/>
  <circle cx="7" cy="15" r="1" fill="srgba(56.4553%,0%,0%,1)"/>
  <circle cx="8" cy="15" r="1" fill="srgba(65.5116%,0%,0%,1)"/>
  <circle cx="9" cy="15" r="1" fill="srgba(73.5622%,0%,0%,1)"/>
  <circle cx="10" cy="15" r="1" fill="srgba(64.1566%,0%,0%,1)"/>
  <circle cx="11" cy="15" r="1" fill="srgba(56.3577%,0%,0%,1)"/>
  <circle cx="12" cy="15" r="1" fill="srgba(61.6297%,0%,0%,1)"/>
  <circle cx="13" cy="15" r="1" fill="srgba(73.4874%,0%,0%,1)"/>
  <circle cx="14" cy="15" r="1" fill="srgba(73.0282%,0%,0%,1)"/>
  <circle cx="15" cy="15" r="1" fill="srgba(68.2185%,0%,0%,1)"/>
</svg>
