<?xml version="1.0" standalone="no"?>
<!DOCTYPE svg PUBLIC "-//W3C//DTD SVG 20010904//EN"
  "http://www.w3.org/TR/2001/REC-SVG-20010904/DTD/svg10.dtd">
<svg width="16" height="16">
  <circle cx="0" cy="0" r="1" fill="srgba(255,153,51,1)"/>
  <circle cx="1" cy="0" r="1" fill="srgba(255,153,51,1)"/>
  <circle cx="2" cy="0" r="1" fill="srgba(255,153,51,1)"/>
  <circle cx="3" cy="0" r="1" fill="srgba(255,153,51,1)"/>
  <circle cx="4" cy="0" r="1" fill="srgba(255,153,51,1)"/>
  <circle cx="5" cy="0" r="1" fill="srgba(255,153,51,1)"/>
  <circle cx="6" cy="0" r="1" fill="srgba(255,153,51,1)"/>
  <circle cx="7" cy="0" r="1" fill="srgba(255,153,51,1)"/>
  <circle cx="8" cy="0" r="1" fill="srgba(255,153,51,1)"/>
  <circle cx="9" cy="0" r="1" fill="srgba(255,153,51,1)"/>
  <circle cx="10" cy="0" r="1" fill="srgba(255,153,51,1)"/>
  <circle cx="11" cy="0" r="1" fill="srgba(255,153,51,1)"/>
  <circle cx="12" cy="0" r="1" fill="srgba(255,153,51,1)"/>
  <circle cx="13" cy="0" r="1" fill="srgba(255,153,51,1)"/>
  <circle cx="14" cy="0" r="1" fill="srgba(255,153,51,1)"/>
  <circle cx="15" cy="0" r="1" fill="srgba(255,153,51,1)"/>
  <circle cx="0" cy="1" r="1" fill="srgba(255,153,51,1)"/>
  <circle cx="1" cy="1" r="1" fill="srgba(255,153,51,1)"/>
  <circle cx="2" cy="1" r="1" fill="srgba(255,153,51,1)"/>
  <circle cx="3" cy="1" r="1" fill="srgba(255,153,51,1)"/>
  <circle cx="4" cy="1" r="1" fill="srgba(255,153,51,1)"/>
  <circle cx="5" cy="1" r="1" fill="srgba(255,153,51,1)"/>
  <circle cx="6" cy="1" r="1" fill="srgba(255,153,51,1)"/>
  <circle cx="7" cy="1" r="1" fill="srgba(255,153,51,1)"/>
  <circle cx="8" cy="1" r="1" fill="srgba(255,153,51,1)"/>
  <circle cx="9" cy="1" r="1" fill="srgba(255,153,51,1)"/>
  <circle cx="10" cy="1" r="1" fill="srgba(255,153,51,1)"/>
  <circle cx="11" cy="1" r="1" fill="srgba(255,153,51,1)"/>
  <circle cx="12" cy="1" r="1" fill="srgba(255,153,51,1)"/>
  <circle cx="13" cy="1" r="1" fill="srgba(255,153,51,1)"/>
  <circle cx="14" cy="1" r="1" fill="srgba(255,153,51,1)"/>
  <circle cx="15" cy="1" r="1" fill="srgba(255,153,51,1)"/>
  <circle cx="0" cy="2" r="1" fill="srgba(255,153,51,1)"/>
  <circle cx="1" cy="2" r="1" fill="srgba(255,153,51,1)"/>
  <circle cx="2" cy="2" r="1" fill="srgba(255,153,51,1)"/>
  <circle cx="3" cy="2" r="1" fill="srgba(255,153,51,1)"/>
  <circle cx="4" cy="2" r="1" fill="srgba(255,153,51,1)"/>
  <circle cx="5" cy="2" r="1" fill="srgba(255,153,51,1)"/>
  <circle cx="6" cy="2" r="1" fill="srgba(255,153,51,1)"/>
  <circle cx="7" cy="2" r="1" fill="srgba(255,153,51,1)"/>
  <circle cx="8" cy="2" r="1" fill="srgba(255,153,51,1)"/>
  <circle cx="9" cy="2" r="1" fill="srgba(255,153,51,1)"/>
  <circle cx="10" cy="2" r="1" fill="srgba(255,153,51,1)"/>
  <circle cx="11" cy="2" r="1" fill="srgba(255,153,51,1)"/>
  <circle cx="12" cy="2" r="1" fill="srgba(255,153,51,1)"/>
  <circle cx="13" cy="2" r="1" fill="srgba(255,153,51,1)"/>
  <circle cx="14" cy="2" r="1" fill="srgba(255,153,51,1)"/>
  <circle cx="15" cy="2" r="1" fill="srgba(255,153,51,1)"/>
  <circle cx="0" cy="3" r="1" fill="srgba(100%,59.9802%,19.9603%,1)"/>
  <circle cx="1" cy="3" r="1" fill="srgba(100%,59.9802%,19.9603%,1)"/>
  <circle cx="2" cy="3" r="1" fill="srgba(100%,59.9802%,19.9603%,1)"/>
  <circle cx="3" cy="3" r="1" fill="srgba(100%,59.9802%,19.9603%,1)"/>
  <circle cx="4" cy="3" r="1" fill="srgba(100%,59.9802%,19.9603%,1)"/>
  <circle cx="5" cy="3" r="1" fill="srgba(100%,59.9802%,19.9603%,1)"/>
  <circle cx="6" cy="3" r="1" fill="srgba(100%,59.9802%,19.9603%,1)"/>
  <circle cx="7" cy="3" r="1" fill="srgba(100%,59.9802%,19.9603%,1)"/>
  <circle cx="8" cy="3" r="1" fill="srgba(100%,59.9802%,19.9603%,1)"/>
  <circle cx="9" cy="3" r="1" fill="srgba(100%,59.9802%,19.9603%,1)"/>
  <circle cx="10" cy="3" r="1" fill="srgba(100%,59.9802%,19.9603%,1)"/>
  <circle cx="11" cy="3" r="1" fill="srgba(100%,59.9802%,19.9603%,1)"/>
  <circle cx="12" cy="3" r="1" fill="srgba(100%,59.9802%,19.9603%,1)"/>
  <circle cx="13" cy="3" r="1" fill="srgba(100%,59.9802%,19.9603%,1)"/>
  <circle cx="14" cy="3" r="1" fill="srgba(100%,59.9802%,19.9603%,1)"/>
  <circle cx="15" cy="3" r="1" fill="srgba(100%,59.9802%,19.9603%,1)"/>
  <circle cx="0" cy="4" r="1" fill="srgba(100%,60.2289%,20.4562%,1)"/>
  <circle cx="1" cy="4" r="1" fill="srgba(100%,60.2289%,20.4562%,1)"/>
  <circle cx="2" cy="4" r="1" fill="srgba(100%,60.2289%,20.4562%,1)"/>
  <circle cx="3" cy="4" r="1" fill="srgba(100%,60.2289%,20.4562%,1)"/>
  <circle cx="4" cy="4" r="1" fill="srgba(100%,60.2289%,20.4562%,1)"/>
  <circle cx="5" cy="4" r="1" fill="srgba(100%,60.2213%,20.4532%,1)"/>
  <circle cx="6" cy="4" r="1" fill="srgba(100%,60.3464%,20.5112%,1)"/>
  <circle cx="7" cy="4" r="1" fill="srgba(100%,61.0025%,20.8179%,1)"/>
  <circle cx="8" cy="4" r="1" fill="srgba(100%,61.0025%,20.8179%,1)"/>
  <circle cx="9" cy="4" r="1" fill="srgba(100%,60.3464%,20.5112%,1)"/>
  <circle cx="10" cy="4" r="1" fill="srgba(100%,60.2213%,20.4532%,1)"/>
  <circle cx="11" cy="4" r="1" fill="srgba(100%,60.2289%,20.4562%,1)"/>
  <circle cx="12" cy="4" r="1" fill="srgba(100%,60.2289%,20.4562%,1)"/>
  <circle cx="13" cy="4" r="1" fill="srgba(100%,60.2289%,20.4562%,1)"/>
  <circle cx="14" cy="4" r="1" fill="srgba(100%,60.2289%,20.4562%,1)"/>
  <circle cx="15" cy="4" r="1" fill="srgba(100%,60.2289%,20.4562%,1)"/>
  <circle cx="0" cy="5" r="1" fill="srgba(100%,86.0456%,72.0806%,1)"/>
  <circle cx="1" cy="5" r="1" fill="srgba(100%,86.0456%,72.0806%,1)"/>
  <circle cx="2" cy="5" r="1" fill="srgba(100%,86.0456%,72.0806%,1)"/>
  <circle cx="3" cy="5" r="1" fill="srgba(100%,86.0456%,72.0806%,1)"/>
  <circle cx="4" cy="5" r="1" fill="srgba(100%,86.038%,72.0775%,1)"/>
  <circle cx="5" cy="5" r="1" fill="srgba(100%,86.2928%,72.1965%,1)"/>
  <circle cx="6" cy="5" r="1" fill="srgba(97.7127%,84.1596%,71.2001%,1)"/>
  <circle cx="7" cy="5" r="1" fill="srgba(87.982%,74.0215%,66.4698%,1)"/>
  <circle cx="8" cy="5" r="1" fill="srgba(87.9881%,74.0276%,66.4714%,1)"/>
  <circle cx="9" cy="5" r="1" fill="srgba(97.7188%,84.1657%,71.2032%,1)"/>
  <circle cx="10" cy="5" r="1" fill="srgba(100%,86.2928%,72.1965%,1)"/>
  <circle cx="11" cy="5" r="1" fill="srgba(100%,86.038%,72.0775%,1)"/>
  <circle cx="12" cy="5" r="1" fill="srgba(100%,86.0456%,72.0806%,1)"/>
  <circle cx="13" cy="5" r="1" fill="srgba(100%,86.0456%,72.0806%,1)"/>
  <circle cx="14" cy="5" r="1" fill="srgba(100%,86.0456%,72.0806%,1)"/>
  <circle cx="15" cy="5" r="1" fill="srgba(100%,86.0456%,72.0806%,1)"/>
  <circle cx="0" cy="6" r="1" fill="white"/>
  <circle cx="1" cy="6" r="1" fill="white"/>
  <circle cx="2" cy="6" r="1" fill="white"/>
  <circle cx="3" cy="6" r="1" fill="white"/>
  <circle cx="4" cy="6" r="1" fill="white"/>
  <circle cx="5" cy="6" r="1" fill="srgba(98.0438%,98.1399%,99.263%,1)"/>
  <circle cx="6" cy="6" r="1" fill="srgba(73.5164%,74.1375%,88.8701%,1)"/>
  <circle cx="7" cy="6" r="1" fill="srgba(68.1971%,68.896%,86.5583%,1)"/>
  <circle cx="8" cy="6" r="1" fill="srgba(68.1956%,68.893%,86.5553%,1)"/>
  <circle cx="9" cy="6" r="1" fill="srgba(73.521%,74.1421%,88.8716%,1)"/>
  <circle cx="10" cy="6" r="1" fill="srgba(98.0499%,98.1445%,99.266%,1)"/>
  <circle cx="11" cy="6" r="1" fill="white"/>
  <circle cx="12" cy="6" r="1" fill="white"/>
  <circle cx="13" cy="6" r="1" fill="white"/>
  <circle cx="14" cy="6" r="1" fill="white"/>
  <circle cx="15" cy="6" r="1" fill="white"/>
  <circle cx="0" cy="7" r="1" fill="white"/>
  <circle cx="1" cy="7" r="1" fill="white"/>
  <circle cx="2" cy="7" r="1" fill="white"/>
  <circle cx="3" cy="7" r="1" fill="white"/>
  <circle cx="4" cy="7" r="1" fill="white"/>
  <circle cx="5" cy="7" r="1" fill="srgba(87.9622%,87.9622%,94.3816%,1)"/>
  <circle cx="6" cy="7" r="1" fill="srgba(68.188%,68.188%,85.1545%,1)"/>
  <circle cx="7" cy="7" r="1" fill="srgba(51.371%,51.371%,77.3083%,1)"/>
  <circle cx="8" cy="7" r="1" fill="srgba(51.3725%,51.3725%,77.3068%,1)"/>
  <circle cx="9" cy="7" r="1" fill="srgba(68.1773%,68.1773%,85.1499%,1)"/>
  <circle cx="10" cy="7" r="1" fill="srgba(87.9774%,87.9774%,94.3893%,1)"/>
  <circle cx="11" cy="7" r="1" fill="white"/>
  <circle cx="12" cy="7" r="1" fill="white"/>
  <circle cx="13" cy="7" r="1" fill="white"/>
  <circle cx="14" cy="7" r="1" fill="white"/>
  <circle cx="15" cy="7" r="1" fill="white"/>
  <circle cx="0" cy="8" r="1" fill="white"/>
  <circle cx="1" cy="8" r="1" fill="white"/>
  <circle cx="2" cy="8" r="1" fill="white"/>
  <circle cx="3" cy="8" r="1" fill="white"/>
  <circle cx="4" cy="8" r="1" fill="white"/>
  <circle cx="5" cy="8" r="1" fill="srgba(87.982%,87.982%,94.3908%,1)"/>
  <circle cx="6" cy="8" r="1" fill="srgba(68.2292%,68.2292%,85.1728%,1)"/>
  <circle cx="7" cy="8" r="1" fill="srgba(51.4321%,51.4321%,77.3327%,1)"/>
  <circle cx="8" cy="8" r="1" fill="srgba(51.4305%,51.4305%,77.3327%,1)"/>
  <circle cx="9" cy="8" r="1" fill="srgba(68.2246%,68.2246%,85.1698%,1)"/>
  <circle cx="10" cy="8" r="1" fill="srgba(87.9973%,87.9973%,94.3984%,1)"/>
  <circle cx="11" cy="8" r="1" fill="white"/>
  <circle cx="12" cy="8" r="1" fill="white"/>
  <circle cx="13" cy="8" r="1" fill="white"/>
  <circle cx="14" cy="8" r="1" fill="white"/>
  <circle cx="15" cy="8" r="1" fill="white"/>
  <circle cx="0" cy="9" r="1" fill="white"/>
  <circle cx="1" cy="9" r="1" fill="white"/>
  <circle cx="2" cy="9" r="1" fill="white"/>
  <circle cx="3" cy="9" r="1" fill="white"/>
  <circle cx="4" cy="9" r="1" fill="white"/>
  <circle cx="5" cy="9" r="1" fill="srgba(98.2773%,98.175%,99.3057%,1)"/>
  <circle cx="6" cy="9" r="1" fill="srgba(74.9996%,74.2885%,89.1539%,1)"/>
  <circle cx="7" cy="9" r="1" fill="srgba(69.8711%,69.0608%,86.8849%,1)"/>
  <circle cx="8" cy="9" r="1" fill="srgba(69.8634%,69.0517%,86.8803%,1)"/>
  <circle cx="9" cy="9" r="1" fill="srgba(75.0072%,74.2962%,89.1569%,1)"/>
  <circle cx="10" cy="9" r="1" fill="srgba(98.2818%,98.1811%,99.3072%,1)"/>
  <circle cx="11" cy="9" r="1" fill="white"/>
  <circle cx="12" cy="9" r="1" fill="white"/>
  <circle cx="13" cy="9" r="1" fill="white"/>
  <circle cx="14" cy="9" r="1" fill="white"/>
  <circle cx="15" cy="9" r="1" fill="white"/>
  <circle cx="0" cy="10" r="1" fill="srgba(67.0192%,83.4379%,65.4917%,1)"/>
  <circle cx="1" cy="10" r="1" fill="srgba(67.0192%,83.4379%,65.4917%,1)"/>
  <circle cx="2" cy="10" r="1" fill="srgba(67.0192%,83.4379%,65.4917%,1)"/>
  <circle cx="3" cy="10" r="1" fill="srgba(67.0192%,83.4379%,65.4917%,1)"/>
  <circle cx="4" cy="10" r="1" fill="srgba(67.013%,83.4318%,65.4887%,1)"/>
  <circle cx="5" cy="10" r="1" fill="srgba(67.2648%,83.6851%,65.6062%,1)"/>
  <circle cx="6" cy="10" r="1" fill="srgba(65.153%,81.5717%,64.6204%,1)"/>
  <circle cx="7" cy="10" r="1" fill="srgba(55.0134%,71.4321%,59.8901%,1)"/>
  <circle cx="8" cy="10" r="1" fill="srgba(55.0179%,71.4366%,59.8917%,1)"/>
  <circle cx="9" cy="10" r="1" fill="srgba(65.1575%,81.5778%,64.6235%,1)"/>
  <circle cx="10" cy="10" r="1" fill="srgba(67.2648%,83.6835%,65.6062%,1)"/>
  <circle cx="11" cy="10" r="1" fill="srgba(67.013%,83.4318%,65.4887%,1)"/>
  <circle cx="12" cy="10" r="1" fill="srgba(67.0192%,83.4379%,65.4917%,1)"/>
  <circle cx="13" cy="10" r="1" fill="srgba(67.0192%,83.4379%,65.4917%,1)"/>
  <circle cx="14" cy="10" r="1" fill="srgba(67.0192%,83.4379%,65.4917%,1)"/>
  <circle cx="15" cy="10" r="1" fill="srgba(67.0192%,83.4379%,65.4917%,1)"/>
  <circle cx="0" cy="11" r="1" fill="srgba(7.47234%,53.5409%,3.17845%,1)"/>
  <circle cx="1" cy="11" r="1" fill="srgba(7.47234%,53.5409%,3.17845%,1)"/>
  <circle cx="2" cy="11" r="1" fill="srgba(7.47234%,53.5409%,3.17845%,1)"/>
  <circle cx="3" cy="11" r="1" fill="srgba(7.47234%,53.5409%,3.17845%,1)"/>
  <circle cx="4" cy="11" r="1" fill="srgba(7.47234%,53.5409%,3.17845%,1)"/>
  <circle cx="5" cy="11" r="1" fill="srgba(7.46624%,53.5348%,3.1754%,1)"/>
  <circle cx="6" cy="11" r="1" fill="srgba(7.58831%,53.6568%,3.23339%,1)"/>
  <circle cx="7" cy="11" r="1" fill="srgba(8.24445%,54.313%,3.53857%,1)"/>
  <circle cx="8" cy="11" r="1" fill="srgba(8.24292%,54.3114%,3.53857%,1)"/>
  <circle cx="9" cy="11" r="1" fill="srgba(7.58831%,53.6568%,3.23186%,1)"/>
  <circle cx="10" cy="11" r="1" fill="srgba(7.46624%,53.5348%,3.1754%,1)"/>
  <circle cx="11" cy="11" r="1" fill="srgba(7.47234%,53.5409%,3.17845%,1)"/>
  <circle cx="12" cy="11" r="1" fill="srgba(7.47234%,53.5409%,3.17845%,1)"/>
  <circle cx="13" cy="11" r="1" fill="srgba(7.47234%,53.5409%,3.17845%,1)"/>
  <circle cx="14" cy="11" r="1" fill="srgba(7.47234%,53.5409%,3.17845%,1)"/>
  <circle cx="15" cy="11" r="1" fill="srgba(7.47234%,53.5409%,3.17845%,1)"/>
  <circle cx="0" cy="12" r="1" fill="srgba(7.01762%,53.312%,2.70237%,1)"/>
  <circle cx="1" cy="12" r="1" fill="srgba(7.01762%,53.312%,2.70237%,1)"/>
  <circle cx="2" cy="12" r="1" fill="srgba(7.01762%,53.312%,2.70237%,1)"/>
  <circle cx="3" cy="12" r="1" fill="srgba(7.01762%,53.312%,2.70237%,1)"/>
  <circle cx="4" cy="12" r="1" fill="srgba(7.01762%,53.312%,2.70237%,1)"/>
  <circle cx="5" cy="12" r="1" fill="srgba(7.01762%,53.312%,2.70237%,1)"/>
  <circle cx="6" cy="12" r="1" fill="srgba(7.01762%,53.312%,2.70237%,1)"/>
  <circle cx="7" cy="12" r="1" fill="srgba(7.01762%,53.312%,2.70237%,1)"/>
  <circle cx="8" cy="12" r="1" fill="srgba(7.01762%,53.312%,2.70237%,1)"/>
  <circle cx="9" cy="12" r="1" fill="srgba(7.01762%,53.312%,2.70237%,1)"/>
  <circle cx="10" cy="12" r="1" fill="srgba(7.01762%,53.312%,2.70237%,1)"/>
  <circle cx="11" cy="12" r="1" fill="srgba(7.01762%,53.312%,2.70237%,1)"/>
  <circle cx="12" cy="12" r="1" fill="srgba(7.01762%,53.312%,2.70237%,1)"/>
  <circle cx="13" cy="12" r="1" fill="srgba(7.01762%,53.312%,2.70237%,1)"/>
  <circle cx="14" cy="12" r="1" fill="srgba(7.01762%,53.312%,2.70237%,1)"/>
  <circle cx="15" cy="12" r="1" fill="srgba(7.01762%,53.312%,2.70237%,1)"/>
  <circle cx="0" cy="13" r="1" fill="srgba(18,136,7,1)"/>
  <circle cx="1" cy="13" r="1" fill="srgba(18,136,7,1)"/>
  <circle cx="2" cy="13" r="1" fill="srgba(18,136,7,1)"/>
  <circle cx="3" cy="13" r="1" fill="srgba(18,136,7,1)"/>
  <circle cx="4" cy="13" r="1" fill="srgba(18,136,7,1)"/>
  <circle cx="5" cy="13" r="1" fill="srgba(18,136,7,1)"/>
  <circle cx="6" cy="13" r="1" fill="srgba(18,136,7,1)"/>
  <circle cx="7" cy="13" r="1" fill="srgba(18,136,7,1)"/>
  <circle cx="8" cy="13" r="1" fill="srgba(18,136,7,1)"/>
  <circle cx="9" cy="13" r="1" fill="srgba(18,136,7,1)"/>
  <circle cx="10" cy="13" r="1" fill="srgba(18,136,7,1)"/>
  <circle cx="11" cy="13" r="1" fill="srgba(18,136,7,1)"/>
  <circle cx="12" cy="13" r="1" fill="srgba(18,136,7,1)"/>
  <circle cx="13" cy="13" r="1" fill="srgba(18,136,7,1)"/>
  <circle cx="14" cy="13" r="1" fill="srgba(18,136,7,1)"/>
  <circle cx="15" cy="13" r="1" fill="srgba(18,136,7,1)"/>
  <circle cx="0" cy="14" r="1" fill="srgba(18,136,7,1)"/>
  <circle cx="1" cy="14" r="1" fill="srgba(18,136,7,1)"/>
  <circle cx="2" cy="14" r="1" fill="srgba(18,136,7,1)"/>
  <circle cx="3" cy="14" r="1" fill="srgba(18,136,7,1)"/>
  <circle cx="4" cy="14" r="1" fill="srgba(18,136,7,1)"/>
  <circle cx="5" cy="14" r="1" fill="srgba(18,136,7,1)"/>
  <circle cx="6" cy="14" r="1" fill="srgba(18,136,7,1)"/>
  <circle cx="7" cy="14" r="1" fill="srgba(18,136,7,1)"/>
  <circle cx="8" cy="14" r="1" fill="srgba(18,136,7,1)"/>
  <circle cx="9" cy="14" r="1" fill="srgba(18,136,7,1)"/>
  <circle cx="10" cy="14" r="1" fill="srgba(18,136,7,1)"/>
  <circle cx="11" cy="14" r="1" fill="srgba(18,136,7,1)"/>
  <circle cx="12" cy="14" r="1" fill="srgba(18,136,7,1)"/>
  <circle cx="13" cy="14" r="1" fill="srgba(18,136,7,1)"/>
  <circle cx="14" cy="14" r="1" fill="srgba(18,136,7,1)"/>
  <circle cx="15" cy="14" r="1" fill="srgba(18,136,7,1)"/>
  <circle cx="0" cy="15" r="1" fill="srgba(18,136,7,1)"/>
  <circle cx="1" cy="15" r="1" fill="srgba(18,136,7,1)"/>
  <circle cx="2" cy="15" r="1" fill="srgba(18,136,7,1)"/>
  <circle cx="3" cy="15" r="1" fill="srgba(18,136,7,1)"/>
  <circle cx="4" cy="15" r="1" fill="srgba(18,136,7,1)"/>
  <circle cx="5" cy="15" r="1" fill="srgba(18,136,7,1)"/>
  <circle cx="6" cy="15" r="1" fill="srgba(18,136,7,1)"/>
  <circle cx="7" cy="15" r="1" fill="srgba(18,136,7,1)"/>
  <circle cx="8" cy="15" r="1" fill="srgba(18,136,7,1)"/>
  <circle cx="9" cy="15" r="1" fill="srgba(18,136,7,1)"/>
  <circle cx="10" cy="15" r="1" fill="srgba(18,136,7,1)"/>
  <circle cx="11" cy="15" r="1" fill="srgba(18,136,7,1)"/>
  <circle cx="12" cy="15" r="1" fill="srgba(18,136,7,1)"/>
  <circle cx="13" cy="15" r="1" fill="srgba(18,136,7,1)"/>
  <circle cx="14" cy="15" r="1" fill="srgba(18,136,7,1)"/>
  <circle cx="15" cy="15" r="1" fill="srgba(18,136,7,1)"/>
</svg>
