<?xml version="1.0" standalone="no"?>
<!DOCTYPE svg PUBLIC "-//W3C//DTD SVG 20010904//EN"
  "http://www.w3.org/TR/2001/REC-SVG-20010904/DTD/svg10.dtd">
<svg width="16" height="16">
  <circle cx="0" cy="0" r="1" fill="srgba(49.7444%,23.415%,40.3861%,1)"/>
  <circle cx="1" cy="0" r="1" fill="srgba(15.7504%,2.16678%,33.1395%,1)"/>
  <circle cx="2" cy="0" r="1" fill="srgba(0.31281%,1.03914%,39.3225%,1)"/>
  <circle cx="3" cy="0" r="1" fill="srgba(52.8573%,24.0391%,39.4919%,1)"/>
  <circle cx="4" cy="0" r="1" fill="srgba(64.3107%,25.4337%,35.4788%,1)"/>
  <circle cx="5" cy="0" r="1" fill="srgba(2.80919%,3.90478%,41.6876%,1)"/>
  <circle cx="6" cy="0" r="1" fill="srgba(0.349432%,0.668345%,39.4858%,1)"/>
  <circle cx="7" cy="0" r="1" fill="srgba(18.4894%,19.4079%,51.1559%,1)"/>
  <circle cx="8" cy="0" r="1" fill="srgba(33.6049%,33.8033%,59.5987%,1)"/>
  <circle cx="9" cy="0" r="1" fill="srgba(63.1266%,63.1144%,77.4289%,1)"/>
  <circle cx="10" cy="0" r="1" fill="srgba(92.9274%,92.932%,95.6664%,1)"/>
  <circle cx="11" cy="0" r="1" fill="srgba(99.0906%,99.4247%,99.0799%,1)"/>
  <circle cx="12" cy="0" r="1" fill="srgba(90.0252%,90.0954%,93.8155%,1)"/>
  <circle cx="13" cy="0" r="1" fill="srgba(45.9648%,45.7893%,67.1183%,1)"/>
  <circle cx="14" cy="0" r="1" fill="srgba(27.1214%,26.8711%,55.6619%,1)"/>
  <circle cx="15" cy="0" r="1" fill="srgba(52.0287%,52.0333%,70.6477%,1)"/>
  <circle cx="0" cy="1" r="1" fill="srgba(90.6371%,75.6588%,77.8393%,1)"/>
  <circle cx="1" cy="1" r="1" fill="srgba(69.9458%,41.3306%,50.222%,1)"/>
  <circle cx="2" cy="1" r="1" fill="srgba(44.3809%,23.2654%,42.8092%,1)"/>
  <circle cx="3" cy="1" r="1" fill="srgba(65.5283%,29.6452%,39.5422%,1)"/>
  <circle cx="4" cy="1" r="1" fill="srgba(72.4804%,27.3701%,33.6736%,1)"/>
  <circle cx="5" cy="1" r="1" fill="srgba(34.8074%,20.7919%,44.741%,1)"/>
  <circle cx="6" cy="1" r="1" fill="srgba(45.6825%,29.9748%,49.5369%,1)"/>
  <circle cx="7" cy="1" r="1" fill="srgba(80.3189%,66.6026%,72.9091%,1)"/>
  <circle cx="8" cy="1" r="1" fill="srgba(42.6841%,39.8291%,61.8906%,1)"/>
  <circle cx="9" cy="1" r="1" fill="srgba(13.2219%,13.0175%,47.4708%,1)"/>
  <circle cx="10" cy="1" r="1" fill="srgba(22.6871%,22.3743%,52.9992%,1)"/>
  <circle cx="11" cy="1" r="1" fill="srgba(46.1448%,57.7249%,55.6207%,1)"/>
  <circle cx="12" cy="1" r="1" fill="srgba(30.7988%,36.5881%,51.9738%,1)"/>
  <circle cx="13" cy="1" r="1" fill="srgba(15.024%,17.1115%,45.9464%,1)"/>
  <circle cx="14" cy="1" r="1" fill="srgba(23.4607%,27.2694%,49.3889%,1)"/>
  <circle cx="15" cy="1" r="1" fill="srgba(16.5713%,16.4904%,49.0349%,1)"/>
  <circle cx="0" cy="2" r="1" fill="srgba(83.8392%,24.0177%,24.4846%,1)"/>
  <circle cx="1" cy="2" r="1" fill="srgba(83.2685%,24.1032%,24.8554%,1)"/>
  <circle cx="2" cy="2" r="1" fill="srgba(84.6174%,23.679%,23.7339%,1)"/>
  <circle cx="3" cy="2" r="1" fill="srgba(83.6042%,15.7549%,15.5337%,1)"/>
  <circle cx="4" cy="2" r="1" fill="srgba(82.6795%,12.9183%,12.871%,1)"/>
  <circle cx="5" cy="2" r="1" fill="srgba(84.2924%,22.6688%,22.7848%,1)"/>
  <circle cx="6" cy="2" r="1" fill="srgba(83.2349%,20.9628%,21.4267%,1)"/>
  <circle cx="7" cy="2" r="1" fill="srgba(83.534%,24.7379%,25.5177%,1)"/>
  <circle cx="8" cy="2" r="1" fill="srgba(84.8814%,71.9188%,74.8684%,1)"/>
  <circle cx="9" cy="2" r="1" fill="srgba(62.298%,70.222%,70.695%,1)"/>
  <circle cx="10" cy="2" r="1" fill="srgba(44.1703%,45.5802%,64.3946%,1)"/>
  <circle cx="11" cy="2" r="1" fill="srgba(29.8711%,46.5064%,40.763%,1)"/>
  <circle cx="12" cy="2" r="1" fill="srgba(39.9878%,55.4025%,48.2002%,1)"/>
  <circle cx="13" cy="2" r="1" fill="srgba(35.967%,55.7076%,41.6587%,1)"/>
  <circle cx="14" cy="2" r="1" fill="srgba(65.2216%,74.3526%,69.6941%,1)"/>
  <circle cx="15" cy="2" r="1" fill="srgba(87.3213%,86.9993%,92.4987%,1)"/>
  <circle cx="0" cy="3" r="1" fill="srgba(34.5296%,25.713%,50.2754%,1)"/>
  <circle cx="1" cy="3" r="1" fill="srgba(47.2618%,28.8685%,47.5608%,1)"/>
  <circle cx="2" cy="3" r="1" fill="srgba(60.6897%,33.167%,45.7572%,1)"/>
  <circle cx="3" cy="3" r="1" fill="srgba(73.8659%,35.4833%,41.8997%,1)"/>
  <circle cx="4" cy="3" r="1" fill="srgba(76.1044%,33.3196%,38.4421%,1)"/>
  <circle cx="5" cy="3" r="1" fill="srgba(66.305%,50.9407%,62.5315%,1)"/>
  <circle cx="6" cy="3" r="1" fill="srgba(67.1489%,38.3612%,48.3207%,1)"/>
  <circle cx="7" cy="3" r="1" fill="srgba(35.6008%,21.0254%,44.7013%,1)"/>
  <circle cx="8" cy="3" r="1" fill="srgba(19.3668%,17.8714%,48.1254%,1)"/>
  <circle cx="9" cy="3" r="1" fill="srgba(23.1006%,38.3932%,38.1064%,1)"/>
  <circle cx="10" cy="3" r="1" fill="srgba(43.6896%,65.1789%,44.7272%,1)"/>
  <circle cx="11" cy="3" r="1" fill="srgba(46.6056%,67.9042%,46.7155%,1)"/>
  <circle cx="12" cy="3" r="1" fill="srgba(27.9393%,57.4548%,27.4525%,1)"/>
  <circle cx="13" cy="3" r="1" fill="srgba(22.1729%,45.5131%,29.8726%,1)"/>
  <circle cx="14" cy="3" r="1" fill="srgba(29.4331%,45.6519%,40.8743%,1)"/>
  <circle cx="15" cy="3" r="1" fill="srgba(45.922%,52.2194%,60.4486%,1)"/>
  <circle cx="0" cy="4" r="1" fill="srgba(67.2984%,50.0984%,61.1246%,1)"/>
  <circle cx="1" cy="4" r="1" fill="srgba(59.6124%,39.7681%,53.5225%,1)"/>
  <circle cx="2" cy="4" r="1" fill="srgba(28.5786%,25.066%,52.4544%,1)"/>
  <circle cx="3" cy="4" r="1" fill="srgba(59.649%,31.0246%,43.9078%,1)"/>
  <circle cx="4" cy="4" r="1" fill="srgba(63.7858%,24.979%,35.3033%,1)"/>
  <circle cx="5" cy="4" r="1" fill="srgba(11.6991%,13.0388%,47.4739%,1)"/>
  <circle cx="6" cy="4" r="1" fill="srgba(52.6452%,44.5838%,62.1866%,1)"/>
  <circle cx="7" cy="4" r="1" fill="srgba(72.0287%,51.0079%,60.2274%,1)"/>
  <circle cx="8" cy="4" r="1" fill="srgba(49.305%,48.0964%,58.6267%,1)"/>
  <circle cx="9" cy="4" r="1" fill="srgba(25.0187%,42.0752%,38.1918%,1)"/>
  <circle cx="10" cy="4" r="1" fill="srgba(23.2074%,50.84%,26.4393%,1)"/>
  <circle cx="11" cy="4" r="1" fill="srgba(18.6831%,51.6213%,18.6481%,1)"/>
  <circle cx="12" cy="4" r="1" fill="srgba(19.9115%,52.4025%,19.9557%,1)"/>
  <circle cx="13" cy="4" r="1" fill="srgba(40.5188%,63.9277%,41.0483%,1)"/>
  <circle cx="14" cy="4" r="1" fill="srgba(65.4078%,76.8261%,67.6463%,1)"/>
  <circle cx="15" cy="4" r="1" fill="srgba(45.6275%,47.4632%,64.8447%,1)"/>
  <circle cx="0" cy="5" r="1" fill="srgba(88.2338%,83.7156%,87.8431%,1)"/>
  <circle cx="1" cy="5" r="1" fill="srgba(58.2696%,57.9736%,74.1466%,1)"/>
  <circle cx="2" cy="5" r="1" fill="srgba(59.1821%,60.9369%,76.9467%,1)"/>
  <circle cx="3" cy="5" r="1" fill="srgba(83.4287%,54.1909%,57.937%,1)"/>
  <circle cx="4" cy="5" r="1" fill="srgba(81.6373%,42.2965%,45.8076%,1)"/>
  <circle cx="5" cy="5" r="1" fill="srgba(64.9866%,66.1067%,79.8032%,1)"/>
  <circle cx="6" cy="5" r="1" fill="srgba(77.8744%,78.3886%,87.0298%,1)"/>
  <circle cx="7" cy="5" r="1" fill="srgba(70.9224%,69.9458%,81.3397%,1)"/>
  <circle cx="8" cy="5" r="1" fill="srgba(58.8037%,60.6516%,70.6264%,1)"/>
  <circle cx="9" cy="5" r="1" fill="srgba(69.8009%,78.0407%,73.5988%,1)"/>
  <circle cx="10" cy="5" r="1" fill="srgba(49.1737%,69.8772%,48.9235%,1)"/>
  <circle cx="11" cy="5" r="1" fill="srgba(26.5446%,56.733%,26.2745%,1)"/>
  <circle cx="12" cy="5" r="1" fill="srgba(24.6555%,54.9355%,25.1209%,1)"/>
  <circle cx="13" cy="5" r="1" fill="srgba(47.5273%,67.7974%,48.275%,1)"/>
  <circle cx="14" cy="5" r="1" fill="srgba(71.4199%,76.9726%,77.0535%,1)"/>
  <circle cx="15" cy="5" r="1" fill="srgba(82.4018%,82.4811%,89.131%,1)"/>
  <circle cx="0" cy="6" r="1" fill="srgba(20.4776%,20.7294%,51.6289%,1)"/>
  <circle cx="1" cy="6" r="1" fill="srgba(11.6228%,11.6518%,45.9663%,1)"/>
  <circle cx="2" cy="6" r="1" fill="srgba(11.014%,12.1294%,46.8101%,1)"/>
  <circle cx="3" cy="6" r="1" fill="srgba(46.3539%,23.09%,41.12%,1)"/>
  <circle cx="4" cy="6" r="1" fill="srgba(69.102%,37.7111%,46.0243%,1)"/>
  <circle cx="5" cy="6" r="1" fill="srgba(64.4938%,65.3803%,79.2752%,1)"/>
  <circle cx="6" cy="6" r="1" fill="srgba(36.8917%,36.8902%,61.3886%,1)"/>
  <circle cx="7" cy="6" r="1" fill="srgba(11.1818%,11.2337%,45.7145%,1)"/>
  <circle cx="8" cy="6" r="1" fill="srgba(12.2576%,11.8288%,46.8177%,1)"/>
  <circle cx="9" cy="6" r="1" fill="srgba(28.9174%,39.2737%,46.1936%,1)"/>
  <circle cx="10" cy="6" r="1" fill="srgba(26.5507%,44.6189%,37.76%,1)"/>
  <circle cx="11" cy="6" r="1" fill="srgba(47.1397%,54.4167%,55.845%,1)"/>
  <circle cx="12" cy="6" r="1" fill="srgba(28.7068%,50.4753%,30.8583%,1)"/>
  <circle cx="13" cy="6" r="1" fill="srgba(23.2319%,37.818%,39.0204%,1)"/>
  <circle cx="14" cy="6" r="1" fill="srgba(29.9351%,50.6584%,36.8154%,1)"/>
  <circle cx="15" cy="6" r="1" fill="srgba(27.6112%,33.7758%,49.3767%,1)"/>
  <circle cx="0" cy="7" r="1" fill="srgba(52.6497%,52.6497%,71.0338%,1)"/>
  <circle cx="1" cy="7" r="1" fill="srgba(83.3845%,83.3845%,89.8344%,1)"/>
  <circle cx="2" cy="7" r="1" fill="srgba(81.8479%,81.9501%,89.0074%,1)"/>
  <circle cx="3" cy="7" r="1" fill="srgba(56.1059%,53.9727%,70.8064%,1)"/>
  <circle cx="4" cy="7" r="1" fill="srgba(25.0965%,22.2263%,51.0277%,1)"/>
  <circle cx="5" cy="7" r="1" fill="srgba(11.371%,11.4519%,45.8686%,1)"/>
  <circle cx="6" cy="7" r="1" fill="srgba(34.1344%,34.1344%,59.7055%,1)"/>
  <circle cx="7" cy="7" r="1" fill="srgba(78.5931%,78.5916%,86.9047%,1)"/>
  <circle cx="8" cy="7" r="1" fill="srgba(85.037%,85.0141%,90.8507%,1)"/>
  <circle cx="9" cy="7" r="1" fill="srgba(67.3259%,70.0862%,77.1435%,1)"/>
  <circle cx="10" cy="7" r="1" fill="srgba(27.689%,29.1051%,55.671%,1)"/>
  <circle cx="11" cy="7" r="1" fill="srgba(25.7527%,19.4263%,41.7441%,1)"/>
  <circle cx="12" cy="7" r="1" fill="srgba(53.785%,55.6847%,47.8996%,1)"/>
  <circle cx="13" cy="7" r="1" fill="srgba(77.1283%,79.9344%,84.5121%,1)"/>
  <circle cx="14" cy="7" r="1" fill="srgba(89.9184%,91.3161%,92.3827%,1)"/>
  <circle cx="15" cy="7" r="1" fill="srgba(73.5088%,74.7356%,82.4582%,1)"/>
  <circle cx="0" cy="8" r="1" fill="srgba(70.312%,70.312%,81.8372%,1)"/>
  <circle cx="1" cy="8" r="1" fill="srgba(36.0845%,36.0845%,60.8988%,1)"/>
  <circle cx="2" cy="8" r="1" fill="srgba(39.1501%,39.144%,62.768%,1)"/>
  <circle cx="3" cy="8" r="1" fill="srgba(71.8654%,72.0012%,82.9374%,1)"/>
  <circle cx="4" cy="8" r="1" fill="srgba(87.4525%,87.6341%,92.5246%,1)"/>
  <circle cx="5" cy="8" r="1" fill="srgba(86.5614%,86.5568%,91.7723%,1)"/>
  <circle cx="6" cy="8" r="1" fill="srgba(80.5966%,80.5966%,88.13%,1)"/>
  <circle cx="7" cy="8" r="1" fill="srgba(42.8016%,42.8016%,65.0065%,1)"/>
  <circle cx="8" cy="8" r="1" fill="srgba(34.995%,34.9966%,60.235%,1)"/>
  <circle cx="9" cy="8" r="1" fill="srgba(65.6367%,65.4704%,79.0814%,1)"/>
  <circle cx="10" cy="8" r="1" fill="srgba(87.2404%,87.6768%,91.1284%,1)"/>
  <circle cx="11" cy="8" r="1" fill="srgba(82.8168%,77.2091%,71.3741%,1)"/>
  <circle cx="12" cy="8" r="1" fill="srgba(83.5279%,76.8475%,68.632%,1)"/>
  <circle cx="13" cy="8" r="1" fill="srgba(56.8933%,57.2107%,72.0974%,1)"/>
  <circle cx="14" cy="8" r="1" fill="srgba(33.5409%,33.4401%,59.1302%,1)"/>
  <circle cx="15" cy="8" r="1" fill="srgba(55.5093%,55.4467%,72.874%,1)"/>
  <circle cx="0" cy="9" r="1" fill="srgba(13.1273%,13.1273%,46.8574%,1)"/>
  <circle cx="1" cy="9" r="1" fill="srgba(31.3268%,31.3268%,57.9889%,1)"/>
  <circle cx="2" cy="9" r="1" fill="srgba(28.452%,28.452%,56.2295%,1)"/>
  <circle cx="3" cy="9" r="1" fill="srgba(11.9463%,11.9463%,46.1326%,1)"/>
  <circle cx="4" cy="9" r="1" fill="srgba(21.7884%,21.7884%,52.1538%,1)"/>
  <circle cx="5" cy="9" r="1" fill="srgba(31.5343%,31.5343%,58.1155%,1)"/>
  <circle cx="6" cy="9" r="1" fill="srgba(17.0077%,17.0077%,49.2287%,1)"/>
  <circle cx="7" cy="9" r="1" fill="srgba(26.4805%,26.4805%,55.024%,1)"/>
  <circle cx="8" cy="9" r="1" fill="srgba(31.5679%,31.5724%,58.172%,1)"/>
  <circle cx="9" cy="9" r="1" fill="srgba(15.4482%,15.8785%,47.892%,1)"/>
  <circle cx="10" cy="9" r="1" fill="srgba(52.3842%,29.0349%,37.5326%,1)"/>
  <circle cx="11" cy="9" r="1" fill="srgba(81.6709%,37.4243%,26.2135%,1)"/>
  <circle cx="12" cy="9" r="1" fill="srgba(71.899%,30.7988%,19.9176%,1)"/>
  <circle cx="13" cy="9" r="1" fill="srgba(54.8562%,20.9262%,27.7714%,1)"/>
  <circle cx="14" cy="9" r="1" fill="srgba(37.1466%,35.9503%,57.9202%,1)"/>
  <circle cx="15" cy="9" r="1" fill="srgba(16.9268%,17.026%,49.453%,1)"/>
  <circle cx="0" cy="10" r="1" fill="srgba(77.3922%,77.3922%,86.1707%,1)"/>
  <circle cx="1" cy="10" r="1" fill="srgba(85.4505%,85.4505%,91.0994%,1)"/>
  <circle cx="2" cy="10" r="1" fill="srgba(86.5919%,86.5919%,91.7967%,1)"/>
  <circle cx="3" cy="10" r="1" fill="srgba(77.2885%,77.2885%,86.1051%,1)"/>
  <circle cx="4" cy="10" r="1" fill="srgba(47.4876%,47.4876%,67.8752%,1)"/>
  <circle cx="5" cy="10" r="1" fill="srgba(34.6777%,34.6777%,60.0381%,1)"/>
  <circle cx="6" cy="10" r="1" fill="srgba(61.532%,61.532%,76.4675%,1)"/>
  <circle cx="7" cy="10" r="1" fill="srgba(85.7618%,85.7618%,91.2902%,1)"/>
  <circle cx="8" cy="10" r="1" fill="srgba(86.0121%,86.0121%,91.4488%,1)"/>
  <circle cx="9" cy="10" r="1" fill="srgba(81.4176%,82.2431%,89.7612%,1)"/>
  <circle cx="10" cy="10" r="1" fill="srgba(76.2203%,54.3786%,46.2135%,1)"/>
  <circle cx="11" cy="10" r="1" fill="srgba(83.9918%,41.8616%,7.44793%,1)"/>
  <circle cx="12" cy="10" r="1" fill="srgba(84.8524%,44.6815%,8.53285%,1)"/>
  <circle cx="13" cy="10" r="1" fill="srgba(85.3086%,54.6975%,36.5713%,1)"/>
  <circle cx="14" cy="10" r="1" fill="srgba(85.33%,85.2094%,90.1823%,1)"/>
  <circle cx="15" cy="10" r="1" fill="srgba(86.0182%,86.0426%,91.5282%,1)"/>
  <circle cx="0" cy="11" r="1" fill="srgba(42.5635%,42.5635%,64.8646%,1)"/>
  <circle cx="1" cy="11" r="1" fill="srgba(12.9732%,12.9732%,46.7613%,1)"/>
  <circle cx="2" cy="11" r="1" fill="srgba(14.2855%,14.2855%,47.5624%,1)"/>
  <circle cx="3" cy="11" r="1" fill="srgba(43.8285%,43.8285%,65.6352%,1)"/>
  <circle cx="4" cy="11" r="1" fill="srgba(76.5316%,76.5316%,85.6428%,1)"/>
  <circle cx="5" cy="11" r="1" fill="srgba(85.2323%,85.2323%,90.9651%,1)"/>
  <circle cx="6" cy="11" r="1" fill="srgba(61.2802%,61.2802%,76.3119%,1)"/>
  <circle cx="7" cy="11" r="1" fill="srgba(17.409%,17.409%,49.4743%,1)"/>
  <circle cx="8" cy="11" r="1" fill="srgba(11.8425%,11.8425%,46.0685%,1)"/>
  <circle cx="9" cy="11" r="1" fill="srgba(36.5896%,36.6232%,61.5518%,1)"/>
  <circle cx="10" cy="11" r="1" fill="srgba(66.9337%,66.1738%,71.8746%,1)"/>
  <circle cx="11" cy="11" r="1" fill="srgba(69.4484%,65.7023%,55.2865%,1)"/>
  <circle cx="12" cy="11" r="1" fill="srgba(70.9178%,67.3304%,52.6024%,1)"/>
  <circle cx="13" cy="11" r="1" fill="srgba(50.1122%,49.1646%,53.7774%,1)"/>
  <circle cx="14" cy="11" r="1" fill="srgba(11.7479%,11.7052%,45.9022%,1)"/>
  <circle cx="15" cy="11" r="1" fill="srgba(26.2409%,26.2409%,54.8882%,1)"/>
  <circle cx="0" cy="12" r="1" fill="srgba(28.0247%,28.0247%,55.9701%,1)"/>
  <circle cx="1" cy="12" r="1" fill="srgba(62.4674%,62.4674%,77.0382%,1)"/>
  <circle cx="2" cy="12" r="1" fill="srgba(59.4629%,59.4629%,75.201%,1)"/>
  <circle cx="3" cy="12" r="1" fill="srgba(26.244%,26.244%,54.8791%,1)"/>
  <circle cx="4" cy="12" r="1" fill="srgba(9.40566%,9.40566%,44.5777%,1)"/>
  <circle cx="5" cy="12" r="1" fill="srgba(9.95651%,9.95651%,44.9149%,1)"/>
  <circle cx="6" cy="12" r="1" fill="srgba(17.1237%,17.1237%,49.2988%,1)"/>
  <circle cx="7" cy="12" r="1" fill="srgba(55.787%,55.787%,72.9519%,1)"/>
  <circle cx="8" cy="12" r="1" fill="srgba(63.537%,63.537%,77.6928%,1)"/>
  <circle cx="9" cy="12" r="1" fill="srgba(32.6787%,32.6772%,58.819%,1)"/>
  <circle cx="10" cy="12" r="1" fill="srgba(9.29732%,9.87106%,45.6321%,1)"/>
  <circle cx="11" cy="12" r="1" fill="srgba(25.6687%,17.3053%,36.5682%,1)"/>
  <circle cx="12" cy="12" r="1" fill="srgba(51.6289%,42.4475%,37.322%,1)"/>
  <circle cx="13" cy="12" r="1" fill="srgba(55.3079%,55.9121%,62.0172%,1)"/>
  <circle cx="14" cy="12" r="1" fill="srgba(65.2003%,65.2033%,78.7884%,1)"/>
  <circle cx="15" cy="12" r="1" fill="srgba(42.7543%,42.7543%,64.9821%,1)"/>
  <circle cx="0" cy="13" r="1" fill="srgba(83.7568%,83.7568%,90.0633%,1)"/>
  <circle cx="1" cy="13" r="1" fill="srgba(63.856%,63.856%,77.8882%,1)"/>
  <circle cx="2" cy="13" r="1" fill="srgba(66.8833%,66.8833%,79.7406%,1)"/>
  <circle cx="3" cy="13" r="1" fill="srgba(85.0416%,85.0416%,90.8492%,1)"/>
  <circle cx="4" cy="13" r="1" fill="srgba(76.5225%,76.5225%,85.6367%,1)"/>
  <circle cx="5" cy="13" r="1" fill="srgba(67.0161%,67.0161%,79.8215%,1)"/>
  <circle cx="6" cy="13" r="1" fill="srgba(80.6928%,80.6928%,88.1895%,1)"/>
  <circle cx="7" cy="13" r="1" fill="srgba(69.0349%,69.0349%,81.0575%,1)"/>
  <circle cx="8" cy="13" r="1" fill="srgba(63.476%,63.476%,77.6562%,1)"/>
  <circle cx="9" cy="13" r="1" fill="srgba(83.2975%,83.2975%,89.836%,1)"/>
  <circle cx="10" cy="13" r="1" fill="srgba(77.5937%,78.1308%,86.4591%,1)"/>
  <circle cx="11" cy="13" r="1" fill="srgba(63.5325%,54.3206%,56.5911%,1)"/>
  <circle cx="12" cy="13" r="1" fill="srgba(54.696%,43.8636%,36.321%,1)"/>
  <circle cx="13" cy="13" r="1" fill="srgba(52.2103%,52.7718%,59.1577%,1)"/>
  <circle cx="14" cy="13" r="1" fill="srgba(61.912%,61.912%,76.8078%,1)"/>
  <circle cx="15" cy="13" r="1" fill="srgba(78.8739%,78.8739%,87.0863%,1)"/>
  <circle cx="0" cy="14" r="1" fill="srgba(19.3225%,19.3225%,50.6462%,1)"/>
  <circle cx="1" cy="14" r="1" fill="srgba(12.9778%,12.9778%,46.7628%,1)"/>
  <circle cx="2" cy="14" r="1" fill="srgba(11.7662%,11.7662%,46.0212%,1)"/>
  <circle cx="3" cy="14" r="1" fill="srgba(19.3317%,19.3317%,50.6493%,1)"/>
  <circle cx="4" cy="14" r="1" fill="srgba(47.8843%,47.8843%,68.1178%,1)"/>
  <circle cx="5" cy="14" r="1" fill="srgba(60.6836%,60.6836%,75.9472%,1)"/>
  <circle cx="6" cy="14" r="1" fill="srgba(34.4274%,34.4274%,59.884%,1)"/>
  <circle cx="7" cy="14" r="1" fill="srgba(12.4041%,12.4041%,46.4118%,1)"/>
  <circle cx="8" cy="14" r="1" fill="srgba(12.4865%,12.4865%,46.4637%,1)"/>
  <circle cx="9" cy="14" r="1" fill="srgba(15.6878%,15.6878%,48.5039%,1)"/>
  <circle cx="10" cy="14" r="1" fill="srgba(40.5539%,40.9979%,63.0121%,1)"/>
  <circle cx="11" cy="14" r="1" fill="srgba(55.671%,48.0598%,54.1665%,1)"/>
  <circle cx="12" cy="14" r="1" fill="srgba(50.9682%,42.0737%,38.79%,1)"/>
  <circle cx="13" cy="14" r="1" fill="srgba(32.018%,32.4819%,46.1448%,1)"/>
  <circle cx="14" cy="14" r="1" fill="srgba(13.0373%,13.0373%,46.8116%,1)"/>
  <circle cx="15" cy="14" r="1" fill="srgba(11.4702%,11.4702%,45.7374%,1)"/>
  <circle cx="0" cy="15" r="1" fill="srgba(48.5679%,48.5679%,68.5374%,1)"/>
  <circle cx="1" cy="15" r="1" fill="srgba(84.4266%,84.4266%,90.4723%,1)"/>
  <circle cx="2" cy="15" r="1" fill="srgba(82.3285%,82.3285%,89.189%,1)"/>
  <circle cx="3" cy="15" r="1" fill="srgba(46.8879%,46.8879%,67.509%,1)"/>
  <circle cx="4" cy="15" r="1" fill="srgba(10.5364%,10.5364%,45.2705%,1)"/>
  <circle cx="5" cy="15" r="1" fill="srgba(0.717174%,0.717174%,39.2615%,1)"/>
  <circle cx="6" cy="15" r="1" fill="srgba(27.4434%,27.4434%,55.6115%,1)"/>
  <circle cx="7" cy="15" r="1" fill="srgba(78.6725%,78.6725%,86.952%,1)"/>
  <circle cx="8" cy="15" r="1" fill="srgba(85.6718%,85.6718%,91.2352%,1)"/>
  <circle cx="9" cy="15" r="1" fill="srgba(55.3124%,55.3124%,72.7474%,1)"/>
  <circle cx="10" cy="15" r="1" fill="srgba(14.8074%,14.8562%,45.6641%,1)"/>
  <circle cx="11" cy="15" r="1" fill="srgba(4.15808%,3.34173%,37.0108%,1)"/>
  <circle cx="12" cy="15" r="1" fill="srgba(29.6071%,28.687%,43.508%,1)"/>
  <circle cx="13" cy="15" r="1" fill="srgba(61.2467%,61.2985%,62.8244%,1)"/>
  <circle cx="14" cy="15" r="1" fill="srgba(86.067%,86.067%,91.2596%,1)"/>
  <circle cx="15" cy="15" r="1" fill="srgba(66.7292%,66.7292%,79.3515%,1)"/>
</svg>
