<?xml version="1.0" standalone="no"?>
<!DOCTYPE svg PUBLIC "-//W3C//DTD SVG 20010904//EN"
  "http://www.w3.org/TR/2001/REC-SVG-20010904/DTD/svg10.dtd">
<svg width="16" height="16">
  <circle cx="0" cy="0" r="1" fill="srgba(206,17,38,1)"/>
  <circle cx="1" cy="0" r="1" fill="srgba(206,17,38,1)"/>
  <circle cx="2" cy="0" r="1" fill="srgba(206,17,38,1)"/>
  <circle cx="3" cy="0" r="1" fill="srgba(206,17,38,1)"/>
  <circle cx="4" cy="0" r="1" fill="srgba(206,17,38,1)"/>
  <circle cx="5" cy="0" r="1" fill="srgba(206,17,38,1)"/>
  <circle cx="6" cy="0" r="1" fill="srgba(206,17,38,1)"/>
  <circle cx="7" cy="0" r="1" fill="srgba(206,17,38,1)"/>
  <circle cx="8" cy="0" r="1" fill="srgba(206,17,38,1)"/>
  <circle cx="9" cy="0" r="1" fill="srgba(206,17,38,1)"/>
  <circle cx="10" cy="0" r="1" fill="srgba(206,17,38,1)"/>
  <circle cx="11" cy="0" r="1" fill="srgba(206,17,38,1)"/>
  <circle cx="12" cy="0" r="1" fill="srgba(206,17,38,1)"/>
  <circle cx="13" cy="0" r="1" fill="srgba(206,17,38,1)"/>
  <circle cx="14" cy="0" r="1" fill="srgba(206,17,38,1)"/>
  <circle cx="15" cy="0" r="1" fill="srgba(206,17,38,1)"/>
  <circle cx="0" cy="1" r="1" fill="srgba(206,17,38,1)"/>
  <circle cx="1" cy="1" r="1" fill="srgba(206,17,38,1)"/>
  <circle cx="2" cy="1" r="1" fill="srgba(206,17,38,1)"/>
  <circle cx="3" cy="1" r="1" fill="srgba(206,17,38,1)"/>
  <circle cx="4" cy="1" r="1" fill="srgba(206,17,38,1)"/>
  <circle cx="5" cy="1" r="1" fill="srgba(206,17,38,1)"/>
  <circle cx="6" cy="1" r="1" fill="srgba(206,17,38,1)"/>
  <circle cx="7" cy="1" r="1" fill="srgba(206,17,38,1)"/>
  <circle cx="8" cy="1" r="1" fill="srgba(206,17,38,1)"/>
  <circle cx="9" cy="1" r="1" fill="srgba(206,17,38,1)"/>
  <circle cx="10" cy="1" r="1" fill="srgba(206,17,38,1)"/>
  <circle cx="11" cy="1" r="1" fill="srgba(206,17,38,1)"/>
  <circle cx="12" cy="1" r="1" fill="srgba(206,17,38,1)"/>
  <circle cx="13" cy="1" r="1" fill="srgba(206,17,38,1)"/>
  <circle cx="14" cy="1" r="1" fill="srgba(206,17,38,1)"/>
  <circle cx="15" cy="1" r="1" fill="srgba(206,17,38,1)"/>
  <circle cx="0" cy="2" r="1" fill="srgba(206,17,38,1)"/>
  <circle cx="1" cy="2" r="1" fill="srgba(206,17,38,1)"/>
  <circle cx="2" cy="2" r="1" fill="srgba(206,17,38,1)"/>
  <circle cx="3" cy="2" r="1" fill="srgba(206,17,38,1)"/>
  <circle cx="4" cy="2" r="1" fill="srgba(206,17,38,1)"/>
  <circle cx="5" cy="2" r="1" fill="srgba(206,17,38,1)"/>
  <circle cx="6" cy="2" r="1" fill="srgba(206,17,38,1)"/>
  <circle cx="7" cy="2" r="1" fill="srgba(206,17,38,1)"/>
  <circle cx="8" cy="2" r="1" fill="srgba(206,17,38,1)"/>
  <circle cx="9" cy="2" r="1" fill="srgba(206,17,38,1)"/>
  <circle cx="10" cy="2" r="1" fill="srgba(206,17,38,1)"/>
  <circle cx="11" cy="2" r="1" fill="srgba(206,17,38,1)"/>
  <circle cx="12" cy="2" r="1" fill="srgba(206,17,38,1)"/>
  <circle cx="13" cy="2" r="1" fill="srgba(206,17,38,1)"/>
  <circle cx="14" cy="2" r="1" fill="srgba(206,17,38,1)"/>
  <circle cx="15" cy="2" r="1" fill="srgba(206,17,38,1)"/>
  <circle cx="0" cy="3" r="1" fill="srgba(80.7752%,6.62547%,14.8638%,1)"/>
  <circle cx="1" cy="3" r="1" fill="srgba(80.7752%,6.62547%,14.8638%,1)"/>
  <circle cx="2" cy="3" r="1" fill="srgba(80.7752%,6.62547%,14.8638%,1)"/>
  <circle cx="3" cy="3" r="1" fill="srgba(80.7752%,6.62547%,14.8638%,1)"/>
  <circle cx="4" cy="3" r="1" fill="srgba(80.7752%,6.62547%,14.8638%,1)"/>
  <circle cx="5" cy="3" r="1" fill="srgba(80.7752%,6.62547%,14.8638%,1)"/>
  <circle cx="6" cy="3" r="1" fill="srgba(80.7752%,6.62547%,14.8638%,1)"/>
  <circle cx="7" cy="3" r="1" fill="srgba(80.7752%,6.62547%,14.8638%,1)"/>
  <circle cx="8" cy="3" r="1" fill="srgba(80.7752%,6.62547%,14.8638%,1)"/>
  <circle cx="9" cy="3" r="1" fill="srgba(80.7752%,6.62547%,14.8638%,1)"/>
  <circle cx="10" cy="3" r="1" fill="srgba(80.7752%,6.62547%,14.8638%,1)"/>
  <circle cx="11" cy="3" r="1" fill="srgba(80.7752%,6.62547%,14.8638%,1)"/>
  <circle cx="12" cy="3" r="1" fill="srgba(80.7752%,6.62547%,14.8638%,1)"/>
  <circle cx="13" cy="3" r="1" fill="srgba(80.7752%,6.62547%,14.8638%,1)"/>
  <circle cx="14" cy="3" r="1" fill="srgba(80.7752%,6.62547%,14.8638%,1)"/>
  <circle cx="15" cy="3" r="1" fill="srgba(80.7752%,6.62547%,14.8638%,1)"/>
  <circle cx="0" cy="4" r="1" fill="srgba(80.8698%,7.08019%,15.2789%,1)"/>
  <circle cx="1" cy="4" r="1" fill="srgba(80.8698%,7.08019%,15.2789%,1)"/>
  <circle cx="2" cy="4" r="1" fill="srgba(80.8698%,7.08019%,15.2789%,1)"/>
  <circle cx="3" cy="4" r="1" fill="srgba(80.8698%,7.08019%,15.2789%,1)"/>
  <circle cx="4" cy="4" r="1" fill="srgba(80.8698%,7.08019%,15.2789%,1)"/>
  <circle cx="5" cy="4" r="1" fill="srgba(80.8698%,7.08019%,15.2789%,1)"/>
  <circle cx="6" cy="4" r="1" fill="srgba(80.8698%,7.08019%,15.2789%,1)"/>
  <circle cx="7" cy="4" r="1" fill="srgba(80.8698%,7.08019%,15.2789%,1)"/>
  <circle cx="8" cy="4" r="1" fill="srgba(80.8698%,7.08019%,15.2789%,1)"/>
  <circle cx="9" cy="4" r="1" fill="srgba(80.8698%,7.08019%,15.2789%,1)"/>
  <circle cx="10" cy="4" r="1" fill="srgba(80.8698%,7.08019%,15.2789%,1)"/>
  <circle cx="11" cy="4" r="1" fill="srgba(80.8698%,7.08019%,15.2789%,1)"/>
  <circle cx="12" cy="4" r="1" fill="srgba(80.8698%,7.08019%,15.2789%,1)"/>
  <circle cx="13" cy="4" r="1" fill="srgba(80.8698%,7.08171%,15.2804%,1)"/>
  <circle cx="14" cy="4" r="1" fill="srgba(80.8698%,7.08171%,15.2804%,1)"/>
  <circle cx="15" cy="4" r="1" fill="srgba(80.8698%,7.08171%,15.2804%,1)"/>
  <circle cx="0" cy="5" r="1" fill="srgba(93.1792%,66.8757%,69.7978%,1)"/>
  <circle cx="1" cy="5" r="1" fill="srgba(93.1792%,66.8757%,69.7978%,1)"/>
  <circle cx="2" cy="5" r="1" fill="srgba(93.1792%,66.8757%,69.7978%,1)"/>
  <circle cx="3" cy="5" r="1" fill="srgba(93.1792%,66.8757%,69.7978%,1)"/>
  <circle cx="4" cy="5" r="1" fill="srgba(93.1792%,66.8757%,69.7978%,1)"/>
  <circle cx="5" cy="5" r="1" fill="srgba(93.1701%,66.8711%,69.7902%,1)"/>
  <circle cx="6" cy="5" r="1" fill="srgba(93.3806%,66.981%,69.9504%,1)"/>
  <circle cx="7" cy="5" r="1" fill="srgba(93.3547%,66.9673%,69.9321%,1)"/>
  <circle cx="8" cy="5" r="1" fill="srgba(93.5164%,67.0512%,70.0542%,1)"/>
  <circle cx="9" cy="5" r="1" fill="srgba(93.1945%,66.8833%,69.8085%,1)"/>
  <circle cx="10" cy="5" r="1" fill="srgba(93.1472%,66.8589%,69.7734%,1)"/>
  <circle cx="11" cy="5" r="1" fill="srgba(93.3089%,66.9429%,69.8955%,1)"/>
  <circle cx="12" cy="5" r="1" fill="srgba(93.0846%,66.8269%,69.7246%,1)"/>
  <circle cx="13" cy="5" r="1" fill="srgba(92.6101%,66.5782%,69.3629%,1)"/>
  <circle cx="14" cy="5" r="1" fill="srgba(92.5994%,66.5736%,69.3553%,1)"/>
  <circle cx="15" cy="5" r="1" fill="srgba(92.5734%,66.5599%,69.3355%,1)"/>
  <circle cx="0" cy="6" r="1" fill="white"/>
  <circle cx="1" cy="6" r="1" fill="white"/>
  <circle cx="2" cy="6" r="1" fill="white"/>
  <circle cx="3" cy="6" r="1" fill="white"/>
  <circle cx="4" cy="6" r="1" fill="white"/>
  <circle cx="5" cy="6" r="1" fill="white"/>
  <circle cx="6" cy="6" r="1" fill="srgba(96.4874%,98.3795%,97.5067%,1)"/>
  <circle cx="7" cy="6" r="1" fill="srgba(96.7788%,98.5336%,97.7386%,1)"/>
  <circle cx="8" cy="6" r="1" fill="srgba(93.5027%,97.0672%,95.4711%,1)"/>
  <circle cx="9" cy="6" r="1" fill="white"/>
  <circle cx="10" cy="6" r="1" fill="srgba(90.2296%,95.6542%,93.2387%,1)"/>
  <circle cx="11" cy="6" r="1" fill="srgba(68.4688%,85.0019%,77.2442%,1)"/>
  <circle cx="12" cy="6" r="1" fill="srgba(71.4824%,86.5705%,79.5331%,1)"/>
  <circle cx="13" cy="6" r="1" fill="srgba(79.53%,90.7683%,85.655%,1)"/>
  <circle cx="14" cy="6" r="1" fill="srgba(78.9685%,90.4814%,85.2262%,1)"/>
  <circle cx="15" cy="6" r="1" fill="srgba(78.8373%,90.4143%,85.127%,1)"/>
  <circle cx="0" cy="7" r="1" fill="white"/>
  <circle cx="1" cy="7" r="1" fill="white"/>
  <circle cx="2" cy="7" r="1" fill="white"/>
  <circle cx="3" cy="7" r="1" fill="white"/>
  <circle cx="4" cy="7" r="1" fill="white"/>
  <circle cx="5" cy="7" r="1" fill="white"/>
  <circle cx="6" cy="7" r="1" fill="srgba(87.0451%,93.2433%,90.1442%,1)"/>
  <circle cx="7" cy="7" r="1" fill="srgba(88.0156%,93.7499%,90.8827%,1)"/>
  <circle cx="8" cy="7" r="1" fill="srgba(79.2599%,89.1875%,84.2237%,1)"/>
  <circle cx="9" cy="7" r="1" fill="srgba(99.2248%,99.5956%,99.411%,1)"/>
  <circle cx="10" cy="7" r="1" fill="srgba(72.7276%,85.774%,79.2508%,1)"/>
  <circle cx="11" cy="7" r="1" fill="srgba(51.7235%,74.818%,63.2746%,1)"/>
  <circle cx="12" cy="7" r="1" fill="srgba(71.2139%,84.9866%,78.1018%,1)"/>
  <circle cx="13" cy="7" r="1" fill="srgba(97.7371%,98.819%,98.2803%,1)"/>
  <circle cx="14" cy="7" r="1" fill="srgba(97.7142%,98.8083%,98.262%,1)"/>
  <circle cx="15" cy="7" r="1" fill="srgba(97.6669%,98.7823%,98.2254%,1)"/>
  <circle cx="0" cy="8" r="1" fill="white"/>
  <circle cx="1" cy="8" r="1" fill="white"/>
  <circle cx="2" cy="8" r="1" fill="white"/>
  <circle cx="3" cy="8" r="1" fill="srgba(99.9542%,99.9771%,99.9664%,1)"/>
  <circle cx="4" cy="8" r="1" fill="srgba(99.588%,99.7848%,99.6857%,1)"/>
  <circle cx="5" cy="8" r="1" fill="white"/>
  <circle cx="6" cy="8" r="1" fill="srgba(86.8376%,93.1228%,89.9687%,1)"/>
  <circle cx="7" cy="8" r="1" fill="srgba(87.0192%,93.2219%,90.1137%,1)"/>
  <circle cx="8" cy="8" r="1" fill="srgba(62.0844%,80.2274%,71.1559%,1)"/>
  <circle cx="9" cy="8" r="1" fill="srgba(66.9215%,82.7481%,74.8333%,1)"/>
  <circle cx="10" cy="8" r="1" fill="srgba(59.9664%,79.118%,69.543%,1)"/>
  <circle cx="11" cy="8" r="1" fill="srgba(60.8942%,79.6033%,70.251%,1)"/>
  <circle cx="12" cy="8" r="1" fill="srgba(45.8091%,71.7372%,58.7716%,1)"/>
  <circle cx="13" cy="8" r="1" fill="srgba(49.6925%,73.7606%,61.7288%,1)"/>
  <circle cx="14" cy="8" r="1" fill="srgba(56.9467%,77.5448%,67.2435%,1)"/>
  <circle cx="15" cy="8" r="1" fill="srgba(59.0677%,78.6511%,68.8594%,1)"/>
  <circle cx="0" cy="9" r="1" fill="white"/>
  <circle cx="1" cy="9" r="1" fill="white"/>
  <circle cx="2" cy="9" r="1" fill="white"/>
  <circle cx="3" cy="9" r="1" fill="srgba(99.675%,99.852%,99.7635%,1)"/>
  <circle cx="4" cy="9" r="1" fill="srgba(97.0214%,98.6267%,97.8241%,1)"/>
  <circle cx="5" cy="9" r="1" fill="white"/>
  <circle cx="6" cy="9" r="1" fill="srgba(86.7964%,93.1258%,89.9611%,1)"/>
  <circle cx="7" cy="9" r="1" fill="srgba(91.4687%,95.613%,93.5409%,1)"/>
  <circle cx="8" cy="9" r="1" fill="srgba(78.9502%,89.6956%,84.3244%,1)"/>
  <circle cx="9" cy="9" r="1" fill="srgba(69.5705%,84.9104%,77.2137%,1)"/>
  <circle cx="10" cy="9" r="1" fill="srgba(35.6939%,66.717%,51.1574%,1)"/>
  <circle cx="11" cy="9" r="1" fill="srgba(63.9414%,81.355%,72.6543%,1)"/>
  <circle cx="12" cy="9" r="1" fill="srgba(76.2951%,88.4047%,82.3529%,1)"/>
  <circle cx="13" cy="9" r="1" fill="srgba(83.238%,92.0928%,87.6661%,1)"/>
  <circle cx="14" cy="9" r="1" fill="srgba(86.1677%,93.6172%,89.8924%,1)"/>
  <circle cx="15" cy="9" r="1" fill="srgba(87.834%,94.4869%,91.1604%,1)"/>
  <circle cx="0" cy="10" r="1" fill="srgba(64.5151%,64.5151%,64.5151%,1)"/>
  <circle cx="1" cy="10" r="1" fill="srgba(64.5151%,64.5151%,64.5151%,1)"/>
  <circle cx="2" cy="10" r="1" fill="srgba(64.5151%,64.5151%,64.5151%,1)"/>
  <circle cx="3" cy="10" r="1" fill="srgba(64.5045%,64.509%,64.5075%,1)"/>
  <circle cx="4" cy="10" r="1" fill="srgba(64.4205%,64.4663%,64.4434%,1)"/>
  <circle cx="5" cy="10" r="1" fill="srgba(64.9195%,64.6204%,64.77%,1)"/>
  <circle cx="6" cy="10" r="1" fill="srgba(56.0098%,62.2965%,59.1531%,1)"/>
  <circle cx="7" cy="10" r="1" fill="srgba(59.9405%,63.3188%,61.6297%,1)"/>
  <circle cx="8" cy="10" r="1" fill="srgba(61.1902%,62.6474%,61.9196%,1)"/>
  <circle cx="9" cy="10" r="1" fill="srgba(59.7513%,62.8046%,61.2726%,1)"/>
  <circle cx="10" cy="10" r="1" fill="srgba(21.5229%,52.6436%,36.8078%,1)"/>
  <circle cx="11" cy="10" r="1" fill="srgba(28.4138%,58.3215%,43.1968%,1)"/>
  <circle cx="12" cy="10" r="1" fill="srgba(60.9583%,63.3631%,62.1668%,1)"/>
  <circle cx="13" cy="10" r="1" fill="srgba(65.4139%,64.9393%,65.1774%,1)"/>
  <circle cx="14" cy="10" r="1" fill="srgba(65.4185%,64.9866%,65.2018%,1)"/>
  <circle cx="15" cy="10" r="1" fill="srgba(65.3147%,64.9317%,65.124%,1)"/>
  <circle cx="0" cy="11" r="1" fill="srgba(0.444038%,0.444038%,0.444038%,1)"/>
  <circle cx="1" cy="11" r="1" fill="srgba(0.444038%,0.444038%,0.444038%,1)"/>
  <circle cx="2" cy="11" r="1" fill="srgba(0.444038%,0.444038%,0.444038%,1)"/>
  <circle cx="3" cy="11" r="1" fill="srgba(0.444038%,0.444038%,0.444038%,1)"/>
  <circle cx="4" cy="11" r="1" fill="srgba(0.444038%,0.444038%,0.444038%,1)"/>
  <circle cx="5" cy="11" r="1" fill="srgba(0.447089%,0.151064%,0.299077%,1)"/>
  <circle cx="6" cy="11" r="1" fill="srgba(0.387579%,6.58885%,3.48821%,1)"/>
  <circle cx="7" cy="11" r="1" fill="srgba(0.416571%,3.73083%,2.0737%,1)"/>
  <circle cx="8" cy="11" r="1" fill="srgba(0.634775%,0.187686%,0.411994%,1)"/>
  <circle cx="9" cy="11" r="1" fill="srgba(0.526436%,2.43076%,1.47555%,1)"/>
  <circle cx="10" cy="11" r="1" fill="srgba(0.221256%,29.6056%,14.9035%,1)"/>
  <circle cx="11" cy="11" r="1" fill="srgba(0.158694%,41.976%,20.9155%,1)"/>
  <circle cx="12" cy="11" r="1" fill="srgba(0.630198%,7.6936%,4.1413%,1)"/>
  <circle cx="13" cy="11" r="1" fill="srgba(0.451667%,0%,0.225834%,1)"/>
  <circle cx="14" cy="11" r="1" fill="srgba(0.444038%,0.444038%,0.444038%,1)"/>
  <circle cx="15" cy="11" r="1" fill="srgba(0.444038%,0.444038%,0.444038%,1)"/>
  <circle cx="0" cy="12" r="1" fill="black"/>
  <circle cx="1" cy="12" r="1" fill="black"/>
  <circle cx="2" cy="12" r="1" fill="black"/>
  <circle cx="3" cy="12" r="1" fill="black"/>
  <circle cx="4" cy="12" r="1" fill="black"/>
  <circle cx="5" cy="12" r="1" fill="black"/>
  <circle cx="6" cy="12" r="1" fill="srgba(0%,6.11276%,3.05638%,1)"/>
  <circle cx="7" cy="12" r="1" fill="srgba(0%,3.24407%,1.62203%,1)"/>
  <circle cx="8" cy="12" r="1" fill="black"/>
  <circle cx="9" cy="12" r="1" fill="srgba(0%,1.51675%,0.755322%,1)"/>
  <circle cx="10" cy="12" r="1" fill="srgba(0%,27.6646%,13.8277%,1)"/>
  <circle cx="11" cy="12" r="1" fill="srgba(0%,47.4693%,23.7278%,1)"/>
  <circle cx="12" cy="12" r="1" fill="srgba(0%,20.2731%,10.1213%,1)"/>
  <circle cx="13" cy="12" r="1" fill="black"/>
  <circle cx="14" cy="12" r="1" fill="black"/>
  <circle cx="15" cy="12" r="1" fill="black"/>
  <circle cx="0" cy="13" r="1" fill="black"/>
  <circle cx="1" cy="13" r="1" fill="black"/>
  <circle cx="2" cy="13" r="1" fill="black"/>
  <circle cx="3" cy="13" r="1" fill="black"/>
  <circle cx="4" cy="13" r="1" fill="black"/>
  <circle cx="5" cy="13" r="1" fill="black"/>
  <circle cx="6" cy="13" r="1" fill="srgba(0%,5.98459%,2.99229%,1)"/>
  <circle cx="7" cy="13" r="1" fill="srgba(0%,3.13878%,1.56863%,1)"/>
  <circle cx="8" cy="13" r="1" fill="black"/>
  <circle cx="9" cy="13" r="1" fill="srgba(0%,1.24971%,0.621042%,1)"/>
  <circle cx="10" cy="13" r="1" fill="srgba(0%,26.6499%,13.3211%,1)"/>
  <circle cx="11" cy="13" r="1" fill="srgba(0%,48.1346%,24.0681%,1)"/>
  <circle cx="12" cy="13" r="1" fill="srgba(0%,34.9645%,17.4838%,1)"/>
  <circle cx="13" cy="13" r="1" fill="srgba(0%,1.99588%,0.99794%,1)"/>
  <circle cx="14" cy="13" r="1" fill="black"/>
  <circle cx="15" cy="13" r="1" fill="black"/>
  <circle cx="0" cy="14" r="1" fill="black"/>
  <circle cx="1" cy="14" r="1" fill="black"/>
  <circle cx="2" cy="14" r="1" fill="black"/>
  <circle cx="3" cy="14" r="1" fill="black"/>
  <circle cx="4" cy="14" r="1" fill="black"/>
  <circle cx="5" cy="14" r="1" fill="black"/>
  <circle cx="6" cy="14" r="1" fill="srgba(0%,5.82437%,2.91142%,1)"/>
  <circle cx="7" cy="14" r="1" fill="srgba(0%,3.01671%,1.50912%,1)"/>
  <circle cx="8" cy="14" r="1" fill="black"/>
  <circle cx="9" cy="14" r="1" fill="srgba(0%,1.08797%,0.541695%,1)"/>
  <circle cx="10" cy="14" r="1" fill="srgba(0%,25.9464%,12.9686%,1)"/>
  <circle cx="11" cy="14" r="1" fill="srgba(0%,47.5883%,23.7949%,1)"/>
  <circle cx="12" cy="14" r="1" fill="srgba(0%,44.976%,22.4887%,1)"/>
  <circle cx="13" cy="14" r="1" fill="srgba(0%,10.8812%,5.44137%,1)"/>
  <circle cx="14" cy="14" r="1" fill="black"/>
  <circle cx="15" cy="14" r="1" fill="black"/>
  <circle cx="0" cy="15" r="1" fill="black"/>
  <circle cx="1" cy="15" r="1" fill="black"/>
  <circle cx="2" cy="15" r="1" fill="black"/>
  <circle cx="3" cy="15" r="1" fill="black"/>
  <circle cx="4" cy="15" r="1" fill="black"/>
  <circle cx="5" cy="15" r="1" fill="black"/>
  <circle cx="6" cy="15" r="1" fill="srgba(0%,5.6733%,2.83665%,1)"/>
  <circle cx="7" cy="15" r="1" fill="srgba(0%,2.9099%,1.45418%,1)"/>
  <circle cx="8" cy="15" r="1" fill="black"/>
  <circle cx="9" cy="15" r="1" fill="srgba(0%,0.950637%,0.47303%,1)"/>
  <circle cx="10" cy="15" r="1" fill="srgba(0%,25.333%,12.6619%,1)"/>
  <circle cx="11" cy="15" r="1" fill="srgba(0%,47.3503%,23.6744%,1)"/>
  <circle cx="12" cy="15" r="1" fill="srgba(0%,48.4154%,24.2084%,1)"/>
  <circle cx="13" cy="15" r="1" fill="srgba(0%,23.6866%,11.8425%,1)"/>
  <circle cx="14" cy="15" r="1" fill="black"/>
  <circle cx="15" cy="15" r="1" fill="black"/>
</svg>
