<?xml version="1.0" standalone="no"?>
<!DOCTYPE svg PUBLIC "-//W3C//DTD SVG 20010904//EN"
  "http://www.w3.org/TR/2001/REC-SVG-20010904/DTD/svg10.dtd">
<svg width="16" height="16">
  <circle cx="0" cy="0" r="1" fill="srgba(35,159,64,1)"/>
  <circle cx="1" cy="0" r="1" fill="srgba(35,159,64,1)"/>
  <circle cx="2" cy="0" r="1" fill="srgba(35,159,64,1)"/>
  <circle cx="3" cy="0" r="1" fill="srgba(35,159,64,1)"/>
  <circle cx="4" cy="0" r="1" fill="srgba(35,159,64,1)"/>
  <circle cx="5" cy="0" r="1" fill="srgba(35,159,64,1)"/>
  <circle cx="6" cy="0" r="1" fill="srgba(35,159,64,1)"/>
  <circle cx="7" cy="0" r="1" fill="srgba(35,159,64,1)"/>
  <circle cx="8" cy="0" r="1" fill="srgba(35,159,64,1)"/>
  <circle cx="9" cy="0" r="1" fill="srgba(35,159,64,1)"/>
  <circle cx="10" cy="0" r="1" fill="srgba(35,159,64,1)"/>
  <circle cx="11" cy="0" r="1" fill="srgba(35,159,64,1)"/>
  <circle cx="12" cy="0" r="1" fill="srgba(35,159,64,1)"/>
  <circle cx="13" cy="0" r="1" fill="srgba(35,159,64,1)"/>
  <circle cx="14" cy="0" r="1" fill="srgba(13.7224%,62.3514%,25.0965%,1)"/>
  <circle cx="15" cy="0" r="1" fill="srgba(13.7713%,62.3758%,25.1362%,1)"/>
  <circle cx="0" cy="1" r="1" fill="srgba(35,159,64,1)"/>
  <circle cx="1" cy="1" r="1" fill="srgba(35,159,64,1)"/>
  <circle cx="2" cy="1" r="1" fill="srgba(35,159,64,1)"/>
  <circle cx="3" cy="1" r="1" fill="srgba(35,159,64,1)"/>
  <circle cx="4" cy="1" r="1" fill="srgba(35,159,64,1)"/>
  <circle cx="5" cy="1" r="1" fill="srgba(35,159,64,1)"/>
  <circle cx="6" cy="1" r="1" fill="srgba(35,159,64,1)"/>
  <circle cx="7" cy="1" r="1" fill="srgba(35,159,64,1)"/>
  <circle cx="8" cy="1" r="1" fill="srgba(35,159,64,1)"/>
  <circle cx="9" cy="1" r="1" fill="srgba(35,159,64,1)"/>
  <circle cx="10" cy="1" r="1" fill="srgba(35,159,64,1)"/>
  <circle cx="11" cy="1" r="1" fill="srgba(35,159,64,1)"/>
  <circle cx="12" cy="1" r="1" fill="srgba(35,159,64,1)"/>
  <circle cx="13" cy="1" r="1" fill="srgba(35,159,64,1)"/>
  <circle cx="14" cy="1" r="1" fill="srgba(13.7224%,62.3514%,25.0965%,1)"/>
  <circle cx="15" cy="1" r="1" fill="srgba(13.7713%,62.3758%,25.1362%,1)"/>
  <circle cx="0" cy="2" r="1" fill="srgba(35,159,64,1)"/>
  <circle cx="1" cy="2" r="1" fill="srgba(35,159,64,1)"/>
  <circle cx="2" cy="2" r="1" fill="srgba(35,159,64,1)"/>
  <circle cx="3" cy="2" r="1" fill="srgba(35,159,64,1)"/>
  <circle cx="4" cy="2" r="1" fill="srgba(35,159,64,1)"/>
  <circle cx="5" cy="2" r="1" fill="srgba(35,159,64,1)"/>
  <circle cx="6" cy="2" r="1" fill="srgba(35,159,64,1)"/>
  <circle cx="7" cy="2" r="1" fill="srgba(35,159,64,1)"/>
  <circle cx="8" cy="2" r="1" fill="srgba(35,159,64,1)"/>
  <circle cx="9" cy="2" r="1" fill="srgba(35,159,64,1)"/>
  <circle cx="10" cy="2" r="1" fill="srgba(35,159,64,1)"/>
  <circle cx="11" cy="2" r="1" fill="srgba(35,159,64,1)"/>
  <circle cx="12" cy="2" r="1" fill="srgba(35,159,64,1)"/>
  <circle cx="13" cy="2" r="1" fill="srgba(35,159,64,1)"/>
  <circle cx="14" cy="2" r="1" fill="srgba(13.7224%,62.3514%,25.0965%,1)"/>
  <circle cx="15" cy="2" r="1" fill="srgba(13.7713%,62.3758%,25.1362%,1)"/>
  <circle cx="0" cy="3" r="1" fill="srgba(13.3959%,62.2095%,24.8127%,1)"/>
  <circle cx="1" cy="3" r="1" fill="srgba(13.2876%,62.1622%,24.7196%,1)"/>
  <circle cx="2" cy="3" r="1" fill="srgba(13.4661%,62.24%,24.8722%,1)"/>
  <circle cx="3" cy="3" r="1" fill="srgba(13.2952%,62.1653%,24.7242%,1)"/>
  <circle cx="4" cy="3" r="1" fill="srgba(13.3974%,62.2095%,24.8142%,1)"/>
  <circle cx="5" cy="3" r="1" fill="srgba(13.4203%,62.2202%,24.8325%,1)"/>
  <circle cx="6" cy="3" r="1" fill="srgba(13.286%,62.1607%,24.7166%,1)"/>
  <circle cx="7" cy="3" r="1" fill="srgba(13.4661%,62.24%,24.8737%,1)"/>
  <circle cx="8" cy="3" r="1" fill="srgba(13.3013%,62.1683%,24.7303%,1)"/>
  <circle cx="9" cy="3" r="1" fill="srgba(13.3913%,62.208%,24.8081%,1)"/>
  <circle cx="10" cy="3" r="1" fill="srgba(13.434%,62.2263%,24.8447%,1)"/>
  <circle cx="11" cy="3" r="1" fill="srgba(13.2815%,62.1592%,24.7135%,1)"/>
  <circle cx="12" cy="3" r="1" fill="srgba(13.4646%,62.2385%,24.8722%,1)"/>
  <circle cx="13" cy="3" r="1" fill="srgba(13.3104%,62.1714%,24.7379%,1)"/>
  <circle cx="14" cy="3" r="1" fill="srgba(13.373%,62.1988%,24.7929%,1)"/>
  <circle cx="15" cy="3" r="1" fill="srgba(13.521%,62.2675%,24.921%,1)"/>
  <circle cx="0" cy="4" r="1" fill="srgba(33.0785%,70.7897%,41.8967%,1)"/>
  <circle cx="1" cy="4" r="1" fill="srgba(32.2911%,70.4433%,41.2055%,1)"/>
  <circle cx="2" cy="4" r="1" fill="srgba(33.1655%,70.8293%,41.976%,1)"/>
  <circle cx="3" cy="4" r="1" fill="srgba(32.6436%,70.602%,41.5183%,1)"/>
  <circle cx="4" cy="4" r="1" fill="srgba(32.3064%,70.4555%,41.2299%,1)"/>
  <circle cx="5" cy="4" r="1" fill="srgba(33.0236%,70.7652%,41.854%,1)"/>
  <circle cx="6" cy="4" r="1" fill="srgba(31.9844%,70.3502%,40.9812%,1)"/>
  <circle cx="7" cy="4" r="1" fill="srgba(33.1456%,71.3954%,42.4979%,1)"/>
  <circle cx="8" cy="4" r="1" fill="srgba(32.7626%,71.2184%,42.153%,1)"/>
  <circle cx="9" cy="4" r="1" fill="srgba(31.9081%,70.3166%,40.9125%,1)"/>
  <circle cx="10" cy="4" r="1" fill="srgba(33.0343%,70.7713%,41.8631%,1)"/>
  <circle cx="11" cy="4" r="1" fill="srgba(31.9814%,70.312%,40.9506%,1)"/>
  <circle cx="12" cy="4" r="1" fill="srgba(32.9366%,70.7301%,41.7792%,1)"/>
  <circle cx="13" cy="4" r="1" fill="srgba(32.8252%,70.6798%,41.677%,1)"/>
  <circle cx="14" cy="4" r="1" fill="srgba(32.0943%,70.3685%,41.0422%,1)"/>
  <circle cx="15" cy="4" r="1" fill="srgba(33.5271%,71.0002%,42.2904%,1)"/>
  <circle cx="0" cy="5" r="1" fill="srgba(81.3352%,91.8364%,83.7797%,1)"/>
  <circle cx="1" cy="5" r="1" fill="srgba(81.7975%,92.0378%,84.1794%,1)"/>
  <circle cx="2" cy="5" r="1" fill="srgba(81.3703%,91.8547%,83.8132%,1)"/>
  <circle cx="3" cy="5" r="1" fill="srgba(82.0325%,92.1431%,84.3854%,1)"/>
  <circle cx="4" cy="5" r="1" fill="srgba(81.2421%,91.7815%,83.6835%,1)"/>
  <circle cx="5" cy="5" r="1" fill="srgba(81.5091%,92.1996%,84.1993%,1)"/>
  <circle cx="6" cy="5" r="1" fill="srgba(81.6205%,91.5297%,83.6255%,1)"/>
  <circle cx="7" cy="5" r="1" fill="srgba(79.7543%,81.149%,73.08%,1)"/>
  <circle cx="8" cy="5" r="1" fill="srgba(80.5066%,81.6175%,73.8659%,1)"/>
  <circle cx="9" cy="5" r="1" fill="srgba(81.0544%,91.4229%,83.2624%,1)"/>
  <circle cx="10" cy="5" r="1" fill="srgba(81.4359%,92.1736%,84.1428%,1)"/>
  <circle cx="11" cy="5" r="1" fill="srgba(81.6999%,91.9799%,84.0848%,1)"/>
  <circle cx="12" cy="5" r="1" fill="srgba(81.2833%,91.8166%,83.7369%,1)"/>
  <circle cx="13" cy="5" r="1" fill="srgba(82.1088%,92.1752%,84.4526%,1)"/>
  <circle cx="14" cy="5" r="1" fill="srgba(81.1841%,91.7723%,83.65%,1)"/>
  <circle cx="15" cy="5" r="1" fill="srgba(81.1841%,91.7723%,83.65%,1)"/>
  <circle cx="0" cy="6" r="1" fill="white"/>
  <circle cx="1" cy="6" r="1" fill="white"/>
  <circle cx="2" cy="6" r="1" fill="white"/>
  <circle cx="3" cy="6" r="1" fill="white"/>
  <circle cx="4" cy="6" r="1" fill="white"/>
  <circle cx="5" cy="6" r="1" fill="srgba(99.3118%,93.5073%,93.6355%,1)"/>
  <circle cx="6" cy="6" r="1" fill="srgba(98.088%,81.6953%,82.0752%,1)"/>
  <circle cx="7" cy="6" r="1" fill="srgba(96.0678%,67.9667%,68.3391%,1)"/>
  <circle cx="8" cy="6" r="1" fill="srgba(95.6359%,64.9439%,65.2918%,1)"/>
  <circle cx="9" cy="6" r="1" fill="srgba(97.1725%,74.7051%,75.1049%,1)"/>
  <circle cx="10" cy="6" r="1" fill="srgba(99.3408%,93.6995%,93.8323%,1)"/>
  <circle cx="11" cy="6" r="1" fill="white"/>
  <circle cx="12" cy="6" r="1" fill="white"/>
  <circle cx="13" cy="6" r="1" fill="white"/>
  <circle cx="14" cy="6" r="1" fill="white"/>
  <circle cx="15" cy="6" r="1" fill="white"/>
  <circle cx="0" cy="7" r="1" fill="white"/>
  <circle cx="1" cy="7" r="1" fill="white"/>
  <circle cx="2" cy="7" r="1" fill="white"/>
  <circle cx="3" cy="7" r="1" fill="white"/>
  <circle cx="4" cy="7" r="1" fill="white"/>
  <circle cx="5" cy="7" r="1" fill="srgba(96.3836%,75.079%,75.079%,1)"/>
  <circle cx="6" cy="7" r="1" fill="srgba(95.7809%,70.9117%,70.9117%,1)"/>
  <circle cx="7" cy="7" r="1" fill="srgba(95.3613%,68.1926%,68.1926%,1)"/>
  <circle cx="8" cy="7" r="1" fill="srgba(94.9401%,65.301%,65.301%,1)"/>
  <circle cx="9" cy="7" r="1" fill="srgba(93.7316%,56.7941%,56.7941%,1)"/>
  <circle cx="10" cy="7" r="1" fill="srgba(96.3607%,74.9126%,74.9126%,1)"/>
  <circle cx="11" cy="7" r="1" fill="white"/>
  <circle cx="12" cy="7" r="1" fill="white"/>
  <circle cx="13" cy="7" r="1" fill="white"/>
  <circle cx="14" cy="7" r="1" fill="white"/>
  <circle cx="15" cy="7" r="1" fill="white"/>
  <circle cx="0" cy="8" r="1" fill="white"/>
  <circle cx="1" cy="8" r="1" fill="white"/>
  <circle cx="2" cy="8" r="1" fill="white"/>
  <circle cx="3" cy="8" r="1" fill="white"/>
  <circle cx="4" cy="8" r="1" fill="white"/>
  <circle cx="5" cy="8" r="1" fill="srgba(97.0321%,79.5499%,79.5499%,1)"/>
  <circle cx="6" cy="8" r="1" fill="srgba(93.6004%,55.8938%,55.8938%,1)"/>
  <circle cx="7" cy="8" r="1" fill="srgba(93.9773%,58.5306%,58.5306%,1)"/>
  <circle cx="8" cy="8" r="1" fill="srgba(93.8384%,57.5738%,57.5738%,1)"/>
  <circle cx="9" cy="8" r="1" fill="srgba(93.4997%,55.1995%,55.1995%,1)"/>
  <circle cx="10" cy="8" r="1" fill="srgba(97.0214%,79.472%,79.472%,1)"/>
  <circle cx="11" cy="8" r="1" fill="white"/>
  <circle cx="12" cy="8" r="1" fill="white"/>
  <circle cx="13" cy="8" r="1" fill="white"/>
  <circle cx="14" cy="8" r="1" fill="white"/>
  <circle cx="15" cy="8" r="1" fill="white"/>
  <circle cx="0" cy="9" r="1" fill="white"/>
  <circle cx="1" cy="9" r="1" fill="white"/>
  <circle cx="2" cy="9" r="1" fill="white"/>
  <circle cx="3" cy="9" r="1" fill="white"/>
  <circle cx="4" cy="9" r="1" fill="white"/>
  <circle cx="5" cy="9" r="1" fill="srgba(99.5102%,96.6323%,96.6323%,1)"/>
  <circle cx="6" cy="9" r="1" fill="srgba(96.6171%,76.6964%,76.6964%,1)"/>
  <circle cx="7" cy="9" r="1" fill="srgba(90.7897%,36.5301%,36.5301%,1)"/>
  <circle cx="8" cy="9" r="1" fill="srgba(90.7317%,36.1196%,36.1196%,1)"/>
  <circle cx="9" cy="9" r="1" fill="srgba(96.5682%,76.3516%,76.3516%,1)"/>
  <circle cx="10" cy="9" r="1" fill="srgba(99.501%,96.5621%,96.5621%,1)"/>
  <circle cx="11" cy="9" r="1" fill="white"/>
  <circle cx="12" cy="9" r="1" fill="white"/>
  <circle cx="13" cy="9" r="1" fill="white"/>
  <circle cx="14" cy="9" r="1" fill="white"/>
  <circle cx="15" cy="9" r="1" fill="white"/>
  <circle cx="0" cy="10" r="1" fill="srgba(96.5301%,76.1883%,76.1883%,1)"/>
  <circle cx="1" cy="10" r="1" fill="srgba(96.4767%,75.7839%,75.7839%,1)"/>
  <circle cx="2" cy="10" r="1" fill="srgba(96.643%,76.9314%,76.9314%,1)"/>
  <circle cx="3" cy="10" r="1" fill="srgba(96.5072%,75.9976%,75.9976%,1)"/>
  <circle cx="4" cy="10" r="1" fill="srgba(96.5423%,76.2448%,76.2448%,1)"/>
  <circle cx="5" cy="10" r="1" fill="srgba(96.7514%,77.6928%,77.6928%,1)"/>
  <circle cx="6" cy="10" r="1" fill="srgba(92.7932%,50.3212%,50.3212%,1)"/>
  <circle cx="7" cy="10" r="1" fill="srgba(88.751%,22.5376%,22.5376%,1)"/>
  <circle cx="8" cy="10" r="1" fill="srgba(88.9006%,23.563%,23.563%,1)"/>
  <circle cx="9" cy="10" r="1" fill="srgba(92.5887%,48.9082%,48.9082%,1)"/>
  <circle cx="10" cy="10" r="1" fill="srgba(96.7468%,77.6608%,77.6608%,1)"/>
  <circle cx="11" cy="10" r="1" fill="srgba(96.4416%,75.5642%,75.5642%,1)"/>
  <circle cx="12" cy="10" r="1" fill="srgba(96.6323%,76.8536%,76.8536%,1)"/>
  <circle cx="13" cy="10" r="1" fill="srgba(96.5347%,76.199%,76.199%,1)"/>
  <circle cx="14" cy="10" r="1" fill="srgba(96.4889%,75.9106%,75.9106%,1)"/>
  <circle cx="15" cy="10" r="1" fill="srgba(96.5774%,76.5454%,76.5454%,1)"/>
  <circle cx="0" cy="11" r="1" fill="srgba(88.9815%,24.0909%,24.0909%,1)"/>
  <circle cx="1" cy="11" r="1" fill="srgba(88.957%,23.9704%,23.9704%,1)"/>
  <circle cx="2" cy="11" r="1" fill="srgba(88.9158%,23.6561%,23.6561%,1)"/>
  <circle cx="3" cy="11" r="1" fill="srgba(89.015%,24.3214%,24.3214%,1)"/>
  <circle cx="4" cy="11" r="1" fill="srgba(88.8365%,23.1159%,23.1159%,1)"/>
  <circle cx="5" cy="11" r="1" fill="srgba(88.9998%,24.2084%,24.2084%,1)"/>
  <circle cx="6" cy="11" r="1" fill="srgba(87.7821%,16.1486%,16.1486%,1)"/>
  <circle cx="7" cy="11" r="1" fill="srgba(87.0039%,10.9468%,10.9468%,1)"/>
  <circle cx="8" cy="11" r="1" fill="srgba(87.0039%,10.9651%,10.9651%,1)"/>
  <circle cx="9" cy="11" r="1" fill="srgba(87.4937%,14.2214%,14.2214%,1)"/>
  <circle cx="10" cy="11" r="1" fill="srgba(88.9998%,24.2023%,24.2023%,1)"/>
  <circle cx="11" cy="11" r="1" fill="srgba(88.9113%,23.6561%,23.6561%,1)"/>
  <circle cx="12" cy="11" r="1" fill="srgba(88.8762%,23.3753%,23.3753%,1)"/>
  <circle cx="13" cy="11" r="1" fill="srgba(89.0211%,24.3839%,24.3839%,1)"/>
  <circle cx="14" cy="11" r="1" fill="srgba(88.7968%,22.9114%,22.9114%,1)"/>
  <circle cx="15" cy="11" r="1" fill="srgba(88.9631%,24.0299%,24.0299%,1)"/>
  <circle cx="0" cy="12" r="1" fill="srgba(85.507%,0.213626%,0.213626%,1)"/>
  <circle cx="1" cy="12" r="1" fill="srgba(85.5131%,0.247196%,0.247196%,1)"/>
  <circle cx="2" cy="12" r="1" fill="srgba(85.4978%,0.205997%,0.205997%,1)"/>
  <circle cx="3" cy="12" r="1" fill="srgba(85.5146%,0.247196%,0.247196%,1)"/>
  <circle cx="4" cy="12" r="1" fill="srgba(85.5009%,0.209049%,0.209049%,1)"/>
  <circle cx="5" cy="12" r="1" fill="srgba(85.5039%,0.227359%,0.227359%,1)"/>
  <circle cx="6" cy="12" r="1" fill="srgba(85.5222%,0.241093%,0.241093%,1)"/>
  <circle cx="7" cy="12" r="1" fill="srgba(85.5085%,0.169375%,0.169375%,1)"/>
  <circle cx="8" cy="12" r="1" fill="srgba(85.4994%,0.109865%,0.109865%,1)"/>
  <circle cx="9" cy="12" r="1" fill="srgba(85.4902%,0.132753%,0.132753%,1)"/>
  <circle cx="10" cy="12" r="1" fill="srgba(85.5039%,0.228885%,0.228885%,1)"/>
  <circle cx="11" cy="12" r="1" fill="srgba(85.5146%,0.248722%,0.248722%,1)"/>
  <circle cx="12" cy="12" r="1" fill="srgba(85.4963%,0.202945%,0.202945%,1)"/>
  <circle cx="13" cy="12" r="1" fill="srgba(85.5146%,0.241093%,0.241093%,1)"/>
  <circle cx="14" cy="12" r="1" fill="srgba(85.5024%,0.202945%,0.202945%,1)"/>
  <circle cx="15" cy="12" r="1" fill="srgba(85.5131%,0.271611%,0.271611%,1)"/>
  <circle cx="0" cy="13" r="1" fill="srgba(85.4887%,0%,0%,1)"/>
  <circle cx="1" cy="13" r="1" fill="srgba(85.4887%,0%,0%,1)"/>
  <circle cx="2" cy="13" r="1" fill="srgba(85.4887%,0%,0%,1)"/>
  <circle cx="3" cy="13" r="1" fill="srgba(85.4887%,0%,0%,1)"/>
  <circle cx="4" cy="13" r="1" fill="srgba(85.4887%,0%,0%,1)"/>
  <circle cx="5" cy="13" r="1" fill="srgba(85.4887%,0%,0%,1)"/>
  <circle cx="6" cy="13" r="1" fill="srgba(85.4887%,0%,0%,1)"/>
  <circle cx="7" cy="13" r="1" fill="srgba(218,0,0,1)"/>
  <circle cx="8" cy="13" r="1" fill="srgba(218,0,0,1)"/>
  <circle cx="9" cy="13" r="1" fill="srgba(218,0,0,1)"/>
  <circle cx="10" cy="13" r="1" fill="srgba(85.4887%,0%,0%,1)"/>
  <circle cx="11" cy="13" r="1" fill="srgba(85.4887%,0%,0%,1)"/>
  <circle cx="12" cy="13" r="1" fill="srgba(85.4887%,0%,0%,1)"/>
  <circle cx="13" cy="13" r="1" fill="srgba(85.4887%,0%,0%,1)"/>
  <circle cx="14" cy="13" r="1" fill="srgba(85.4887%,0%,0%,1)"/>
  <circle cx="15" cy="13" r="1" fill="srgba(85.4963%,0.0534066%,0.0534066%,1)"/>
  <circle cx="0" cy="14" r="1" fill="srgba(85.4887%,0%,0%,1)"/>
  <circle cx="1" cy="14" r="1" fill="srgba(85.4887%,0%,0%,1)"/>
  <circle cx="2" cy="14" r="1" fill="srgba(85.4887%,0%,0%,1)"/>
  <circle cx="3" cy="14" r="1" fill="srgba(85.4887%,0%,0%,1)"/>
  <circle cx="4" cy="14" r="1" fill="srgba(85.4887%,0%,0%,1)"/>
  <circle cx="5" cy="14" r="1" fill="srgba(85.4887%,0%,0%,1)"/>
  <circle cx="6" cy="14" r="1" fill="srgba(85.4887%,0%,0%,1)"/>
  <circle cx="7" cy="14" r="1" fill="srgba(85.4887%,0%,0%,1)"/>
  <circle cx="8" cy="14" r="1" fill="srgba(85.4887%,0%,0%,1)"/>
  <circle cx="9" cy="14" r="1" fill="srgba(85.4887%,0%,0%,1)"/>
  <circle cx="10" cy="14" r="1" fill="srgba(85.4887%,0%,0%,1)"/>
  <circle cx="11" cy="14" r="1" fill="srgba(85.4887%,0%,0%,1)"/>
  <circle cx="12" cy="14" r="1" fill="srgba(85.4887%,0%,0%,1)"/>
  <circle cx="13" cy="14" r="1" fill="srgba(85.4887%,0%,0%,1)"/>
  <circle cx="14" cy="14" r="1" fill="srgba(85.4887%,0%,0%,1)"/>
  <circle cx="15" cy="14" r="1" fill="srgba(85.4963%,0.0534066%,0.0534066%,1)"/>
  <circle cx="0" cy="15" r="1" fill="srgba(85.5055%,0.131228%,0.131228%,1)"/>
  <circle cx="1" cy="15" r="1" fill="srgba(85.5055%,0.131228%,0.131228%,1)"/>
  <circle cx="2" cy="15" r="1" fill="srgba(85.5055%,0.131228%,0.131228%,1)"/>
  <circle cx="3" cy="15" r="1" fill="srgba(85.5055%,0.131228%,0.131228%,1)"/>
  <circle cx="4" cy="15" r="1" fill="srgba(85.5055%,0.131228%,0.131228%,1)"/>
  <circle cx="5" cy="15" r="1" fill="srgba(85.5055%,0.131228%,0.131228%,1)"/>
  <circle cx="6" cy="15" r="1" fill="srgba(85.5055%,0.131228%,0.131228%,1)"/>
  <circle cx="7" cy="15" r="1" fill="srgba(85.5055%,0.131228%,0.131228%,1)"/>
  <circle cx="8" cy="15" r="1" fill="srgba(85.5055%,0.131228%,0.131228%,1)"/>
  <circle cx="9" cy="15" r="1" fill="srgba(85.5055%,0.131228%,0.131228%,1)"/>
  <circle cx="10" cy="15" r="1" fill="srgba(85.5055%,0.131228%,0.131228%,1)"/>
  <circle cx="11" cy="15" r="1" fill="srgba(85.5055%,0.131228%,0.131228%,1)"/>
  <circle cx="12" cy="15" r="1" fill="srgba(85.5055%,0.131228%,0.131228%,1)"/>
  <circle cx="13" cy="15" r="1" fill="srgba(85.5055%,0.131228%,0.131228%,1)"/>
  <circle cx="14" cy="15" r="1" fill="srgba(85.5055%,0.128176%,0.128176%,1)"/>
  <circle cx="15" cy="15" r="1" fill="srgba(85.5131%,0.184634%,0.184634%,1)"/>
</svg>
