<?xml version="1.0" standalone="no"?>
<!DOCTYPE svg PUBLIC "-//W3C//DTD SVG 20010904//EN"
  "http://www.w3.org/TR/2001/REC-SVG-20010904/DTD/svg10.dtd">
<svg width="16" height="16">
  <circle cx="0" cy="0" r="1" fill="srgba(0,56,151,1)"/>
  <circle cx="1" cy="0" r="1" fill="srgba(0%,21.9547%,59.2126%,1)"/>
  <circle cx="2" cy="0" r="1" fill="srgba(0%,21.5183%,59.0158%,1)"/>
  <circle cx="3" cy="0" r="1" fill="srgba(57.8058%,66.2684%,81.9287%,1)"/>
  <circle cx="4" cy="0" r="1" fill="srgba(91.0475%,44.0513%,43.4165%,1)"/>
  <circle cx="5" cy="0" r="1" fill="srgba(86.2547%,21.9684%,21.6327%,1)"/>
  <circle cx="6" cy="0" r="1" fill="srgba(83.4318%,75.1888%,80.3967%,1)"/>
  <circle cx="7" cy="0" r="1" fill="srgba(10.4524%,30.8782%,64.3%,1)"/>
  <circle cx="8" cy="0" r="1" fill="srgba(0%,21.442%,58.9441%,1)"/>
  <circle cx="9" cy="0" r="1" fill="srgba(0,56,151,1)"/>
  <circle cx="10" cy="0" r="1" fill="srgba(0,56,151,1)"/>
  <circle cx="11" cy="0" r="1" fill="srgba(0,56,151,1)"/>
  <circle cx="12" cy="0" r="1" fill="srgba(0,56,151,1)"/>
  <circle cx="13" cy="0" r="1" fill="srgba(0,56,151,1)"/>
  <circle cx="14" cy="0" r="1" fill="srgba(0,56,151,1)"/>
  <circle cx="15" cy="0" r="1" fill="srgba(0,56,151,1)"/>
  <circle cx="0" cy="1" r="1" fill="srgba(0,56,151,1)"/>
  <circle cx="1" cy="1" r="1" fill="srgba(0%,21.9547%,59.2126%,1)"/>
  <circle cx="2" cy="1" r="1" fill="srgba(0%,21.5183%,59.0158%,1)"/>
  <circle cx="3" cy="1" r="1" fill="srgba(57.8058%,66.2684%,81.9287%,1)"/>
  <circle cx="4" cy="1" r="1" fill="srgba(91.0475%,44.0513%,43.4165%,1)"/>
  <circle cx="5" cy="1" r="1" fill="srgba(86.2547%,21.9684%,21.6327%,1)"/>
  <circle cx="6" cy="1" r="1" fill="srgba(83.4318%,75.1888%,80.3967%,1)"/>
  <circle cx="7" cy="1" r="1" fill="srgba(10.4524%,30.8782%,64.3%,1)"/>
  <circle cx="8" cy="1" r="1" fill="srgba(0%,21.442%,58.9441%,1)"/>
  <circle cx="9" cy="1" r="1" fill="srgba(0,56,151,1)"/>
  <circle cx="10" cy="1" r="1" fill="srgba(0,56,151,1)"/>
  <circle cx="11" cy="1" r="1" fill="srgba(0,56,151,1)"/>
  <circle cx="12" cy="1" r="1" fill="srgba(0,56,151,1)"/>
  <circle cx="13" cy="1" r="1" fill="srgba(0,56,151,1)"/>
  <circle cx="14" cy="1" r="1" fill="srgba(0,56,151,1)"/>
  <circle cx="15" cy="1" r="1" fill="srgba(0,56,151,1)"/>
  <circle cx="0" cy="2" r="1" fill="srgba(0,56,151,1)"/>
  <circle cx="1" cy="2" r="1" fill="srgba(0%,21.9547%,59.2126%,1)"/>
  <circle cx="2" cy="2" r="1" fill="srgba(0%,21.5183%,59.0158%,1)"/>
  <circle cx="3" cy="2" r="1" fill="srgba(57.8058%,66.2684%,81.9287%,1)"/>
  <circle cx="4" cy="2" r="1" fill="srgba(91.0475%,44.0513%,43.4165%,1)"/>
  <circle cx="5" cy="2" r="1" fill="srgba(86.2547%,21.9684%,21.6327%,1)"/>
  <circle cx="6" cy="2" r="1" fill="srgba(83.4318%,75.1888%,80.3967%,1)"/>
  <circle cx="7" cy="2" r="1" fill="srgba(10.4524%,30.8782%,64.3%,1)"/>
  <circle cx="8" cy="2" r="1" fill="srgba(0%,21.442%,58.9441%,1)"/>
  <circle cx="9" cy="2" r="1" fill="srgba(0,56,151,1)"/>
  <circle cx="10" cy="2" r="1" fill="srgba(0,56,151,1)"/>
  <circle cx="11" cy="2" r="1" fill="srgba(0,56,151,1)"/>
  <circle cx="12" cy="2" r="1" fill="srgba(0,56,151,1)"/>
  <circle cx="13" cy="2" r="1" fill="srgba(0,56,151,1)"/>
  <circle cx="14" cy="2" r="1" fill="srgba(0,56,151,1)"/>
  <circle cx="15" cy="2" r="1" fill="srgba(0,56,151,1)"/>
  <circle cx="0" cy="3" r="1" fill="srgba(0,56,151,1)"/>
  <circle cx="1" cy="3" r="1" fill="srgba(0%,21.9547%,59.2126%,1)"/>
  <circle cx="2" cy="3" r="1" fill="srgba(0%,21.5183%,59.0158%,1)"/>
  <circle cx="3" cy="3" r="1" fill="srgba(57.8058%,66.2684%,81.9287%,1)"/>
  <circle cx="4" cy="3" r="1" fill="srgba(91.0475%,44.0513%,43.4165%,1)"/>
  <circle cx="5" cy="3" r="1" fill="srgba(86.2547%,21.9684%,21.6327%,1)"/>
  <circle cx="6" cy="3" r="1" fill="srgba(83.4318%,75.1888%,80.3967%,1)"/>
  <circle cx="7" cy="3" r="1" fill="srgba(10.4524%,30.8782%,64.3%,1)"/>
  <circle cx="8" cy="3" r="1" fill="srgba(0%,21.442%,58.9441%,1)"/>
  <circle cx="9" cy="3" r="1" fill="srgba(0,56,151,1)"/>
  <circle cx="10" cy="3" r="1" fill="srgba(0,56,151,1)"/>
  <circle cx="11" cy="3" r="1" fill="srgba(0,56,151,1)"/>
  <circle cx="12" cy="3" r="1" fill="srgba(0,56,151,1)"/>
  <circle cx="13" cy="3" r="1" fill="srgba(0,56,151,1)"/>
  <circle cx="14" cy="3" r="1" fill="srgba(0,56,151,1)"/>
  <circle cx="15" cy="3" r="1" fill="srgba(0,56,151,1)"/>
  <circle cx="0" cy="4" r="1" fill="srgba(0%,21.8204%,59.1424%,1)"/>
  <circle cx="1" cy="4" r="1" fill="srgba(0%,21.8143%,59.1394%,1)"/>
  <circle cx="2" cy="4" r="1" fill="srgba(0%,21.3779%,58.9425%,1)"/>
  <circle cx="3" cy="4" r="1" fill="srgba(57.8058%,66.2089%,81.8982%,1)"/>
  <circle cx="4" cy="4" r="1" fill="srgba(91.0475%,44.0543%,43.418%,1)"/>
  <circle cx="5" cy="4" r="1" fill="srgba(86.2547%,21.9699%,21.6327%,1)"/>
  <circle cx="6" cy="4" r="1" fill="srgba(83.4318%,75.169%,80.3876%,1)"/>
  <circle cx="7" cy="4" r="1" fill="srgba(10.4509%,30.7515%,64.2344%,1)"/>
  <circle cx="8" cy="4" r="1" fill="srgba(0%,21.3016%,58.8708%,1)"/>
  <circle cx="9" cy="4" r="1" fill="srgba(0%,21.8204%,59.1424%,1)"/>
  <circle cx="10" cy="4" r="1" fill="srgba(0%,21.8204%,59.1424%,1)"/>
  <circle cx="11" cy="4" r="1" fill="srgba(0%,21.8204%,59.1424%,1)"/>
  <circle cx="12" cy="4" r="1" fill="srgba(0%,21.8204%,59.1424%,1)"/>
  <circle cx="13" cy="4" r="1" fill="srgba(0%,21.8204%,59.1424%,1)"/>
  <circle cx="14" cy="4" r="1" fill="srgba(0%,21.8204%,59.1424%,1)"/>
  <circle cx="15" cy="4" r="1" fill="srgba(0%,21.8204%,59.1424%,1)"/>
  <circle cx="0" cy="5" r="1" fill="srgba(3.05028%,24.6525%,60.798%,1)"/>
  <circle cx="1" cy="5" r="1" fill="srgba(3.04265%,24.6464%,60.795%,1)"/>
  <circle cx="2" cy="5" r="1" fill="srgba(2.43381%,24.2283%,60.6088%,1)"/>
  <circle cx="3" cy="5" r="1" fill="srgba(59.089%,67.4098%,82.6032%,1)"/>
  <circle cx="4" cy="5" r="1" fill="srgba(90.9972%,44.0116%,43.3936%,1)"/>
  <circle cx="5" cy="5" r="1" fill="srgba(86.2272%,21.9471%,21.6205%,1)"/>
  <circle cx="6" cy="5" r="1" fill="srgba(83.8605%,75.5749%,80.6287%,1)"/>
  <circle cx="7" cy="5" r="1" fill="srgba(13.1884%,33.2967%,65.7252%,1)"/>
  <circle cx="8" cy="5" r="1" fill="srgba(2.40635%,24.152%,60.5371%,1)"/>
  <circle cx="9" cy="5" r="1" fill="srgba(3.05028%,24.6525%,60.798%,1)"/>
  <circle cx="10" cy="5" r="1" fill="srgba(3.05028%,24.6525%,60.798%,1)"/>
  <circle cx="11" cy="5" r="1" fill="srgba(3.05028%,24.6525%,60.798%,1)"/>
  <circle cx="12" cy="5" r="1" fill="srgba(3.05028%,24.6525%,60.798%,1)"/>
  <circle cx="13" cy="5" r="1" fill="srgba(3.05028%,24.6525%,60.798%,1)"/>
  <circle cx="14" cy="5" r="1" fill="srgba(3.05028%,24.6525%,60.798%,1)"/>
  <circle cx="15" cy="5" r="1" fill="srgba(3.05028%,24.6525%,60.798%,1)"/>
  <circle cx="0" cy="6" r="1" fill="srgba(72.3659%,73.5058%,83.4058%,1)"/>
  <circle cx="1" cy="6" r="1" fill="srgba(72.3644%,73.5042%,83.4043%,1)"/>
  <circle cx="2" cy="6" r="1" fill="srgba(72.2042%,73.431%,83.3951%,1)"/>
  <circle cx="3" cy="6" r="1" fill="srgba(87.6036%,84.6494%,88.8121%,1)"/>
  <circle cx="4" cy="6" r="1" fill="srgba(89.4514%,41.2253%,41.0559%,1)"/>
  <circle cx="5" cy="6" r="1" fill="srgba(85.5192%,21.0697%,20.9812%,1)"/>
  <circle cx="6" cy="6" r="1" fill="srgba(92.8038%,78.3871%,79.7711%,1)"/>
  <circle cx="7" cy="6" r="1" fill="srgba(75.2529%,76.466%,85.3483%,1)"/>
  <circle cx="8" cy="6" r="1" fill="srgba(72.1889%,73.3684%,83.3341%,1)"/>
  <circle cx="9" cy="6" r="1" fill="srgba(72.3659%,73.5058%,83.4058%,1)"/>
  <circle cx="10" cy="6" r="1" fill="srgba(72.3659%,73.5058%,83.4058%,1)"/>
  <circle cx="11" cy="6" r="1" fill="srgba(72.3659%,73.5058%,83.4058%,1)"/>
  <circle cx="12" cy="6" r="1" fill="srgba(72.3659%,73.5058%,83.4058%,1)"/>
  <circle cx="13" cy="6" r="1" fill="srgba(72.3659%,73.5058%,83.4058%,1)"/>
  <circle cx="14" cy="6" r="1" fill="srgba(72.3659%,73.5058%,83.4058%,1)"/>
  <circle cx="15" cy="6" r="1" fill="srgba(72.3659%,73.5058%,83.4058%,1)"/>
  <circle cx="0" cy="7" r="1" fill="srgba(88.6%,31.6518%,31.078%,1)"/>
  <circle cx="1" cy="7" r="1" fill="srgba(88.6%,31.6518%,31.078%,1)"/>
  <circle cx="2" cy="7" r="1" fill="srgba(88.6122%,31.6701%,31.0933%,1)"/>
  <circle cx="3" cy="7" r="1" fill="srgba(87.6753%,30.7897%,30.5486%,1)"/>
  <circle cx="4" cy="7" r="1" fill="srgba(85.1667%,20.3998%,20.4089%,1)"/>
  <circle cx="5" cy="7" r="1" fill="srgba(84.4816%,16.6522%,16.6567%,1)"/>
  <circle cx="6" cy="7" r="1" fill="srgba(86.8208%,28.1834%,28.1041%,1)"/>
  <circle cx="7" cy="7" r="1" fill="srgba(88.4703%,31.6838%,31.1696%,1)"/>
  <circle cx="8" cy="7" r="1" fill="srgba(88.6107%,31.6594%,31.0826%,1)"/>
  <circle cx="9" cy="7" r="1" fill="srgba(88.6%,31.6518%,31.078%,1)"/>
  <circle cx="10" cy="7" r="1" fill="srgba(88.6%,31.6518%,31.078%,1)"/>
  <circle cx="11" cy="7" r="1" fill="srgba(88.6%,31.6518%,31.078%,1)"/>
  <circle cx="12" cy="7" r="1" fill="srgba(88.6%,31.6518%,31.078%,1)"/>
  <circle cx="13" cy="7" r="1" fill="srgba(88.6%,31.6518%,31.078%,1)"/>
  <circle cx="14" cy="7" r="1" fill="srgba(88.6%,31.6518%,31.078%,1)"/>
  <circle cx="15" cy="7" r="1" fill="srgba(88.6%,31.6518%,31.078%,1)"/>
  <circle cx="0" cy="8" r="1" fill="srgba(88.6%,31.6518%,31.078%,1)"/>
  <circle cx="1" cy="8" r="1" fill="srgba(88.6%,31.6518%,31.078%,1)"/>
  <circle cx="2" cy="8" r="1" fill="srgba(88.6122%,31.6701%,31.0933%,1)"/>
  <circle cx="3" cy="8" r="1" fill="srgba(87.6753%,30.7897%,30.5486%,1)"/>
  <circle cx="4" cy="8" r="1" fill="srgba(85.1667%,20.3998%,20.4089%,1)"/>
  <circle cx="5" cy="8" r="1" fill="srgba(84.4816%,16.6522%,16.6567%,1)"/>
  <circle cx="6" cy="8" r="1" fill="srgba(86.8208%,28.1834%,28.1041%,1)"/>
  <circle cx="7" cy="8" r="1" fill="srgba(88.4703%,31.6838%,31.1696%,1)"/>
  <circle cx="8" cy="8" r="1" fill="srgba(88.6107%,31.6594%,31.0826%,1)"/>
  <circle cx="9" cy="8" r="1" fill="srgba(88.6%,31.6518%,31.078%,1)"/>
  <circle cx="10" cy="8" r="1" fill="srgba(88.6%,31.6518%,31.078%,1)"/>
  <circle cx="11" cy="8" r="1" fill="srgba(88.6%,31.6518%,31.078%,1)"/>
  <circle cx="12" cy="8" r="1" fill="srgba(88.6%,31.6518%,31.078%,1)"/>
  <circle cx="13" cy="8" r="1" fill="srgba(88.6%,31.6518%,31.078%,1)"/>
  <circle cx="14" cy="8" r="1" fill="srgba(88.6%,31.6518%,31.078%,1)"/>
  <circle cx="15" cy="8" r="1" fill="srgba(88.6%,31.6518%,31.078%,1)"/>
  <circle cx="0" cy="9" r="1" fill="srgba(72.3751%,73.5149%,83.4058%,1)"/>
  <circle cx="1" cy="9" r="1" fill="srgba(72.3735%,73.5134%,83.4043%,1)"/>
  <circle cx="2" cy="9" r="1" fill="srgba(72.2148%,73.4401%,83.3951%,1)"/>
  <circle cx="3" cy="9" r="1" fill="srgba(87.6066%,84.654%,88.8121%,1)"/>
  <circle cx="4" cy="9" r="1" fill="srgba(89.4514%,41.2253%,41.0559%,1)"/>
  <circle cx="5" cy="9" r="1" fill="srgba(85.5192%,21.0697%,20.9812%,1)"/>
  <circle cx="6" cy="9" r="1" fill="srgba(92.8054%,78.3886%,79.7711%,1)"/>
  <circle cx="7" cy="9" r="1" fill="srgba(75.2605%,76.4752%,85.3483%,1)"/>
  <circle cx="8" cy="9" r="1" fill="srgba(72.1981%,73.3776%,83.3341%,1)"/>
  <circle cx="9" cy="9" r="1" fill="srgba(72.3751%,73.5149%,83.4058%,1)"/>
  <circle cx="10" cy="9" r="1" fill="srgba(72.3751%,73.5149%,83.4058%,1)"/>
  <circle cx="11" cy="9" r="1" fill="srgba(72.3751%,73.5149%,83.4058%,1)"/>
  <circle cx="12" cy="9" r="1" fill="srgba(72.3751%,73.5149%,83.4058%,1)"/>
  <circle cx="13" cy="9" r="1" fill="srgba(72.3751%,73.5149%,83.4058%,1)"/>
  <circle cx="14" cy="9" r="1" fill="srgba(72.3751%,73.5149%,83.4058%,1)"/>
  <circle cx="15" cy="9" r="1" fill="srgba(72.3751%,73.5149%,83.4058%,1)"/>
  <circle cx="0" cy="10" r="1" fill="srgba(3.05486%,24.6555%,60.798%,1)"/>
  <circle cx="1" cy="10" r="1" fill="srgba(3.04723%,24.6494%,60.795%,1)"/>
  <circle cx="2" cy="10" r="1" fill="srgba(2.43839%,24.2313%,60.6088%,1)"/>
  <circle cx="3" cy="10" r="1" fill="srgba(59.0921%,67.4113%,82.6032%,1)"/>
  <circle cx="4" cy="10" r="1" fill="srgba(90.9972%,44.0101%,43.3936%,1)"/>
  <circle cx="5" cy="10" r="1" fill="srgba(86.2272%,21.9471%,21.6205%,1)"/>
  <circle cx="6" cy="10" r="1" fill="srgba(83.8605%,75.5764%,80.6287%,1)"/>
  <circle cx="7" cy="10" r="1" fill="srgba(13.193%,33.2998%,65.7252%,1)"/>
  <circle cx="8" cy="10" r="1" fill="srgba(2.41093%,24.155%,60.5371%,1)"/>
  <circle cx="9" cy="10" r="1" fill="srgba(3.05486%,24.6555%,60.798%,1)"/>
  <circle cx="10" cy="10" r="1" fill="srgba(3.05486%,24.6555%,60.798%,1)"/>
  <circle cx="11" cy="10" r="1" fill="srgba(3.05486%,24.6555%,60.798%,1)"/>
  <circle cx="12" cy="10" r="1" fill="srgba(3.05486%,24.6555%,60.798%,1)"/>
  <circle cx="13" cy="10" r="1" fill="srgba(3.05486%,24.6555%,60.798%,1)"/>
  <circle cx="14" cy="10" r="1" fill="srgba(3.05486%,24.6555%,60.798%,1)"/>
  <circle cx="15" cy="10" r="1" fill="srgba(3.05486%,24.6555%,60.798%,1)"/>
  <circle cx="0" cy="11" r="1" fill="srgba(0%,21.8204%,59.1424%,1)"/>
  <circle cx="1" cy="11" r="1" fill="srgba(0%,21.8143%,59.1394%,1)"/>
  <circle cx="2" cy="11" r="1" fill="srgba(0%,21.3779%,58.9425%,1)"/>
  <circle cx="3" cy="11" r="1" fill="srgba(57.8058%,66.2089%,81.8982%,1)"/>
  <circle cx="4" cy="11" r="1" fill="srgba(91.0475%,44.0543%,43.418%,1)"/>
  <circle cx="5" cy="11" r="1" fill="srgba(86.2547%,21.9699%,21.6327%,1)"/>
  <circle cx="6" cy="11" r="1" fill="srgba(83.4318%,75.169%,80.3876%,1)"/>
  <circle cx="7" cy="11" r="1" fill="srgba(10.4509%,30.7515%,64.2344%,1)"/>
  <circle cx="8" cy="11" r="1" fill="srgba(0%,21.3016%,58.8708%,1)"/>
  <circle cx="9" cy="11" r="1" fill="srgba(0%,21.8204%,59.1424%,1)"/>
  <circle cx="10" cy="11" r="1" fill="srgba(0%,21.8204%,59.1424%,1)"/>
  <circle cx="11" cy="11" r="1" fill="srgba(0%,21.8204%,59.1424%,1)"/>
  <circle cx="12" cy="11" r="1" fill="srgba(0%,21.8204%,59.1424%,1)"/>
  <circle cx="13" cy="11" r="1" fill="srgba(0%,21.8204%,59.1424%,1)"/>
  <circle cx="14" cy="11" r="1" fill="srgba(0%,21.8204%,59.1424%,1)"/>
  <circle cx="15" cy="11" r="1" fill="srgba(0%,21.8204%,59.1424%,1)"/>
  <circle cx="0" cy="12" r="1" fill="srgba(0,56,151,1)"/>
  <circle cx="1" cy="12" r="1" fill="srgba(0%,21.9547%,59.2126%,1)"/>
  <circle cx="2" cy="12" r="1" fill="srgba(0%,21.5183%,59.0158%,1)"/>
  <circle cx="3" cy="12" r="1" fill="srgba(57.8058%,66.2684%,81.9287%,1)"/>
  <circle cx="4" cy="12" r="1" fill="srgba(91.0475%,44.0513%,43.4165%,1)"/>
  <circle cx="5" cy="12" r="1" fill="srgba(86.2547%,21.9684%,21.6327%,1)"/>
  <circle cx="6" cy="12" r="1" fill="srgba(83.4318%,75.1888%,80.3967%,1)"/>
  <circle cx="7" cy="12" r="1" fill="srgba(10.4524%,30.8782%,64.3%,1)"/>
  <circle cx="8" cy="12" r="1" fill="srgba(0%,21.442%,58.9441%,1)"/>
  <circle cx="9" cy="12" r="1" fill="srgba(0,56,151,1)"/>
  <circle cx="10" cy="12" r="1" fill="srgba(0,56,151,1)"/>
  <circle cx="11" cy="12" r="1" fill="srgba(0,56,151,1)"/>
  <circle cx="12" cy="12" r="1" fill="srgba(0,56,151,1)"/>
  <circle cx="13" cy="12" r="1" fill="srgba(0,56,151,1)"/>
  <circle cx="14" cy="12" r="1" fill="srgba(0,56,151,1)"/>
  <circle cx="15" cy="12" r="1" fill="srgba(0,56,151,1)"/>
  <circle cx="0" cy="13" r="1" fill="srgba(0,56,151,1)"/>
  <circle cx="1" cy="13" r="1" fill="srgba(0%,21.9547%,59.2126%,1)"/>
  <circle cx="2" cy="13" r="1" fill="srgba(0%,21.5183%,59.0158%,1)"/>
  <circle cx="3" cy="13" r="1" fill="srgba(57.8058%,66.2684%,81.9287%,1)"/>
  <circle cx="4" cy="13" r="1" fill="srgba(91.0475%,44.0513%,43.4165%,1)"/>
  <circle cx="5" cy="13" r="1" fill="srgba(86.2547%,21.9684%,21.6327%,1)"/>
  <circle cx="6" cy="13" r="1" fill="srgba(83.4318%,75.1888%,80.3967%,1)"/>
  <circle cx="7" cy="13" r="1" fill="srgba(10.4524%,30.8782%,64.3%,1)"/>
  <circle cx="8" cy="13" r="1" fill="srgba(0%,21.442%,58.9441%,1)"/>
  <circle cx="9" cy="13" r="1" fill="srgba(0,56,151,1)"/>
  <circle cx="10" cy="13" r="1" fill="srgba(0,56,151,1)"/>
  <circle cx="11" cy="13" r="1" fill="srgba(0,56,151,1)"/>
  <circle cx="12" cy="13" r="1" fill="srgba(0,56,151,1)"/>
  <circle cx="13" cy="13" r="1" fill="srgba(0,56,151,1)"/>
  <circle cx="14" cy="13" r="1" fill="srgba(0,56,151,1)"/>
  <circle cx="15" cy="13" r="1" fill="srgba(0,56,151,1)"/>
  <circle cx="0" cy="14" r="1" fill="srgba(0,56,151,1)"/>
  <circle cx="1" cy="14" r="1" fill="srgba(0%,21.9547%,59.2126%,1)"/>
  <circle cx="2" cy="14" r="1" fill="srgba(0%,21.5183%,59.0158%,1)"/>
  <circle cx="3" cy="14" r="1" fill="srgba(57.8058%,66.2684%,81.9287%,1)"/>
  <circle cx="4" cy="14" r="1" fill="srgba(91.0475%,44.0513%,43.4165%,1)"/>
  <circle cx="5" cy="14" r="1" fill="srgba(86.2547%,21.9684%,21.6327%,1)"/>
  <circle cx="6" cy="14" r="1" fill="srgba(83.4318%,75.1888%,80.3967%,1)"/>
  <circle cx="7" cy="14" r="1" fill="srgba(10.4524%,30.8782%,64.3%,1)"/>
  <circle cx="8" cy="14" r="1" fill="srgba(0%,21.442%,58.9441%,1)"/>
  <circle cx="9" cy="14" r="1" fill="srgba(0,56,151,1)"/>
  <circle cx="10" cy="14" r="1" fill="srgba(0,56,151,1)"/>
  <circle cx="11" cy="14" r="1" fill="srgba(0,56,151,1)"/>
  <circle cx="12" cy="14" r="1" fill="srgba(0,56,151,1)"/>
  <circle cx="13" cy="14" r="1" fill="srgba(0,56,151,1)"/>
  <circle cx="14" cy="14" r="1" fill="srgba(0,56,151,1)"/>
  <circle cx="15" cy="14" r="1" fill="srgba(0,56,151,1)"/>
  <circle cx="0" cy="15" r="1" fill="srgba(0,56,151,1)"/>
  <circle cx="1" cy="15" r="1" fill="srgba(0%,21.9547%,59.2126%,1)"/>
  <circle cx="2" cy="15" r="1" fill="srgba(0%,21.5183%,59.0158%,1)"/>
  <circle cx="3" cy="15" r="1" fill="srgba(57.8058%,66.2684%,81.9287%,1)"/>
  <circle cx="4" cy="15" r="1" fill="srgba(91.0475%,44.0513%,43.4165%,1)"/>
  <circle cx="5" cy="15" r="1" fill="srgba(86.2547%,21.9684%,21.6327%,1)"/>
  <circle cx="6" cy="15" r="1" fill="srgba(83.4318%,75.1888%,80.3967%,1)"/>
  <circle cx="7" cy="15" r="1" fill="srgba(10.4524%,30.8782%,64.3%,1)"/>
  <circle cx="8" cy="15" r="1" fill="srgba(0%,21.442%,58.9441%,1)"/>
  <circle cx="9" cy="15" r="1" fill="srgba(0,56,151,1)"/>
  <circle cx="10" cy="15" r="1" fill="srgba(0,56,151,1)"/>
  <circle cx="11" cy="15" r="1" fill="srgba(0,56,151,1)"/>
  <circle cx="12" cy="15" r="1" fill="srgba(0,56,151,1)"/>
  <circle cx="13" cy="15" r="1" fill="srgba(0,56,151,1)"/>
  <circle cx="14" cy="15" r="1" fill="srgba(0,56,151,1)"/>
  <circle cx="15" cy="15" r="1" fill="srgba(0,56,151,1)"/>
</svg>
