<?xml version="1.0" standalone="no"?>
<!DOCTYPE svg PUBLIC "-//W3C//DTD SVG 20010904//EN"
  "http://www.w3.org/TR/2001/REC-SVG-20010904/DTD/svg10.dtd">
<svg width="16" height="16">
  <circle cx="0" cy="0" r="1" fill="white"/>
  <circle cx="1" cy="0" r="1" fill="white"/>
  <circle cx="2" cy="0" r="1" fill="white"/>
  <circle cx="3" cy="0" r="1" fill="white"/>
  <circle cx="4" cy="0" r="1" fill="white"/>
  <circle cx="5" cy="0" r="1" fill="white"/>
  <circle cx="6" cy="0" r="1" fill="white"/>
  <circle cx="7" cy="0" r="1" fill="srgba(97.4182%,95.1186%,77.5463%,1)"/>
  <circle cx="8" cy="0" r="1" fill="srgba(94.786%,88.0156%,38.9151%,1)"/>
  <circle cx="9" cy="0" r="1" fill="srgba(95.0011%,88.6152%,43.0716%,1)"/>
  <circle cx="10" cy="0" r="1" fill="srgba(94.8699%,88.5939%,43.9033%,1)"/>
  <circle cx="11" cy="0" r="1" fill="srgba(94.8959%,88.4413%,42.4216%,1)"/>
  <circle cx="12" cy="0" r="1" fill="srgba(94.9584%,88.3833%,41.6297%,1)"/>
  <circle cx="13" cy="0" r="1" fill="srgba(95.0439%,88.4382%,41.4511%,1)"/>
  <circle cx="14" cy="0" r="1" fill="srgba(94.9905%,88.4642%,42.0294%,1)"/>
  <circle cx="15" cy="0" r="1" fill="srgba(95.0973%,88.716%,42.7878%,1)"/>
  <circle cx="0" cy="1" r="1" fill="srgba(99.9802%,99.8489%,99.8672%,1)"/>
  <circle cx="1" cy="1" r="1" fill="white"/>
  <circle cx="2" cy="1" r="1" fill="white"/>
  <circle cx="3" cy="1" r="1" fill="white"/>
  <circle cx="4" cy="1" r="1" fill="white"/>
  <circle cx="5" cy="1" r="1" fill="white"/>
  <circle cx="6" cy="1" r="1" fill="srgba(99.8093%,98.1994%,96.9833%,1)"/>
  <circle cx="7" cy="1" r="1" fill="srgba(94.7265%,87.8141%,66.2547%,1)"/>
  <circle cx="8" cy="1" r="1" fill="srgba(90.9117%,84.5823%,48.6931%,1)"/>
  <circle cx="9" cy="1" r="1" fill="srgba(91.9524%,88.3482%,58.5779%,1)"/>
  <circle cx="10" cy="1" r="1" fill="srgba(91.9966%,88.8441%,60.4105%,1)"/>
  <circle cx="11" cy="1" r="1" fill="srgba(91.8379%,87.9118%,53.9971%,1)"/>
  <circle cx="12" cy="1" r="1" fill="srgba(91.6838%,87.1794%,49.1585%,1)"/>
  <circle cx="13" cy="1" r="1" fill="srgba(91.7815%,86.9459%,46.5705%,1)"/>
  <circle cx="14" cy="1" r="1" fill="srgba(91.426%,86.7109%,46.8696%,1)"/>
  <circle cx="15" cy="1" r="1" fill="srgba(91.0689%,85.2277%,46.3706%,1)"/>
  <circle cx="0" cy="2" r="1" fill="srgba(94.6319%,60.0687%,64.7669%,1)"/>
  <circle cx="1" cy="2" r="1" fill="srgba(98.8724%,91.6075%,92.5963%,1)"/>
  <circle cx="2" cy="2" r="1" fill="white"/>
  <circle cx="3" cy="2" r="1" fill="white"/>
  <circle cx="4" cy="2" r="1" fill="white"/>
  <circle cx="5" cy="2" r="1" fill="white"/>
  <circle cx="6" cy="2" r="1" fill="srgba(83.6103%,66.6011%,70.1442%,1)"/>
  <circle cx="7" cy="2" r="1" fill="srgba(78.2712%,51.6167%,28.3452%,1)"/>
  <circle cx="8" cy="2" r="1" fill="srgba(89.9641%,65.9113%,26.8101%,1)"/>
  <circle cx="9" cy="2" r="1" fill="srgba(93.286%,73.5531%,40.94%,1)"/>
  <circle cx="10" cy="2" r="1" fill="srgba(93.4661%,75.555%,45.0874%,1)"/>
  <circle cx="11" cy="2" r="1" fill="srgba(93.3852%,75.4681%,44.3%,1)"/>
  <circle cx="12" cy="2" r="1" fill="srgba(93.3181%,75.3582%,43.267%,1)"/>
  <circle cx="13" cy="2" r="1" fill="srgba(93.3318%,75.3292%,42.6734%,1)"/>
  <circle cx="14" cy="2" r="1" fill="srgba(93.3242%,75.465%,42.2934%,1)"/>
  <circle cx="15" cy="2" r="1" fill="srgba(92.5628%,69.9611%,36.6369%,1)"/>
  <circle cx="0" cy="3" r="1" fill="srgba(87.3472%,5.89914%,16.9696%,1)"/>
  <circle cx="1" cy="3" r="1" fill="srgba(90.2419%,27.4311%,35.9716%,1)"/>
  <circle cx="2" cy="3" r="1" fill="srgba(96.1044%,71.0307%,74.4396%,1)"/>
  <circle cx="3" cy="3" r="1" fill="srgba(99.6521%,97.4121%,97.7157%,1)"/>
  <circle cx="4" cy="3" r="1" fill="white"/>
  <circle cx="5" cy="3" r="1" fill="srgba(100%,99.2996%,99.1638%,1)"/>
  <circle cx="6" cy="3" r="1" fill="srgba(48.5878%,53.3883%,72.723%,1)"/>
  <circle cx="7" cy="3" r="1" fill="srgba(27.0542%,37.4853%,49.8939%,1)"/>
  <circle cx="8" cy="3" r="1" fill="srgba(57.9049%,33.022%,31.6793%,1)"/>
  <circle cx="9" cy="3" r="1" fill="srgba(82.62%,22.9603%,15.5245%,1)"/>
  <circle cx="10" cy="3" r="1" fill="srgba(95.0301%,17.3358%,7.54711%,1)"/>
  <circle cx="11" cy="3" r="1" fill="srgba(95.874%,15.5184%,7.02678%,1)"/>
  <circle cx="12" cy="3" r="1" fill="srgba(95.8343%,14.1634%,7.04356%,1)"/>
  <circle cx="13" cy="3" r="1" fill="srgba(95.8602%,12.726%,7.03136%,1)"/>
  <circle cx="14" cy="3" r="1" fill="srgba(95.8679%,11.2963%,7.01915%,1)"/>
  <circle cx="15" cy="3" r="1" fill="srgba(95.8709%,10.0877%,7.07713%,1)"/>
  <circle cx="0" cy="4" r="1" fill="srgba(92.0745%,41.0498%,47.9881%,1)"/>
  <circle cx="1" cy="4" r="1" fill="srgba(88.0659%,11.2398%,21.6846%,1)"/>
  <circle cx="2" cy="4" r="1" fill="srgba(87.8126%,9.35836%,20.0214%,1)"/>
  <circle cx="3" cy="4" r="1" fill="srgba(92.1431%,41.5656%,48.4398%,1)"/>
  <circle cx="4" cy="4" r="1" fill="srgba(97.789%,83.5233%,85.4627%,1)"/>
  <circle cx="5" cy="4" r="1" fill="srgba(100%,99.9008%,99.6887%,1)"/>
  <circle cx="6" cy="4" r="1" fill="srgba(45.5406%,60.1663%,81.1749%,1)"/>
  <circle cx="7" cy="4" r="1" fill="srgba(26.2715%,38.085%,51.4672%,1)"/>
  <circle cx="8" cy="4" r="1" fill="srgba(60.9201%,33.2891%,30.7362%,1)"/>
  <circle cx="9" cy="4" r="1" fill="srgba(84.3122%,22.4796%,15.7443%,1)"/>
  <circle cx="10" cy="4" r="1" fill="srgba(95.4253%,15.9075%,8.6244%,1)"/>
  <circle cx="11" cy="4" r="1" fill="srgba(95.9854%,12.7382%,8.27955%,1)"/>
  <circle cx="12" cy="4" r="1" fill="srgba(96.0678%,9.91379%,8.31922%,1)"/>
  <circle cx="13" cy="4" r="1" fill="srgba(96.1395%,6.92912%,8.31922%,1)"/>
  <circle cx="14" cy="4" r="1" fill="srgba(96.2997%,4.28016%,8.3299%,1)"/>
  <circle cx="15" cy="4" r="1" fill="srgba(96.3912%,2.27207%,8.33295%,1)"/>
  <circle cx="0" cy="5" r="1" fill="srgba(99.7177%,97.8973%,98.146%,1)"/>
  <circle cx="1" cy="5" r="1" fill="srgba(96.5576%,74.3954%,77.4121%,1)"/>
  <circle cx="2" cy="5" r="1" fill="srgba(90.6737%,30.6386%,38.8022%,1)"/>
  <circle cx="3" cy="5" r="1" fill="srgba(87.4037%,6.31571%,17.3373%,1)"/>
  <circle cx="4" cy="5" r="1" fill="srgba(88.8289%,16.8917%,26.6697%,1)"/>
  <circle cx="5" cy="5" r="1" fill="srgba(95.0927%,57.5494%,62.266%,1)"/>
  <circle cx="6" cy="5" r="1" fill="srgba(43.2441%,55.61%,79.1989%,1)"/>
  <circle cx="7" cy="5" r="1" fill="srgba(13.4966%,34.2367%,61.735%,1)"/>
  <circle cx="8" cy="5" r="1" fill="srgba(47.3518%,28.5756%,40.9659%,1)"/>
  <circle cx="9" cy="5" r="1" fill="srgba(78.8281%,16.5209%,20.7431%,1)"/>
  <circle cx="10" cy="5" r="1" fill="srgba(96.6995%,8.79683%,9.22713%,1)"/>
  <circle cx="11" cy="5" r="1" fill="srgba(99.4553%,5.79995%,7.44793%,1)"/>
  <circle cx="12" cy="5" r="1" fill="srgba(98.5458%,3.91241%,8.05524%,1)"/>
  <circle cx="13" cy="5" r="1" fill="srgba(98.0423%,1.75937%,8.44282%,1)"/>
  <circle cx="14" cy="5" r="1" fill="srgba(98.4146%,0.367742%,8.49928%,1)"/>
  <circle cx="15" cy="5" r="1" fill="srgba(98.7045%,0.28687%,8.52369%,1)"/>
  <circle cx="0" cy="6" r="1" fill="white"/>
  <circle cx="1" cy="6" r="1" fill="white"/>
  <circle cx="2" cy="6" r="1" fill="srgba(99.1516%,93.6904%,94.4335%,1)"/>
  <circle cx="3" cy="6" r="1" fill="srgba(94.6075%,59.9084%,64.6265%,1)"/>
  <circle cx="4" cy="6" r="1" fill="srgba(89.0974%,18.8907%,28.4321%,1)"/>
  <circle cx="5" cy="6" r="1" fill="srgba(88.1727%,6.42252%,17.1557%,1)"/>
  <circle cx="6" cy="6" r="1" fill="srgba(38.5855%,24.4236%,52.0455%,1)"/>
  <circle cx="7" cy="6" r="1" fill="srgba(0%,31.8517%,74.3282%,1)"/>
  <circle cx="8" cy="6" r="1" fill="srgba(1.20699%,30.8064%,72.4544%,1)"/>
  <circle cx="9" cy="6" r="1" fill="srgba(12.0348%,27.396%,65.2842%,1)"/>
  <circle cx="10" cy="6" r="1" fill="srgba(37.2137%,19.53%,49.102%,1)"/>
  <circle cx="11" cy="6" r="1" fill="srgba(66.244%,10.4326%,30.4295%,1)"/>
  <circle cx="12" cy="6" r="1" fill="srgba(88.7892%,3.3875%,15.935%,1)"/>
  <circle cx="13" cy="6" r="1" fill="srgba(98.9975%,0.270085%,9.14931%,1)"/>
  <circle cx="14" cy="6" r="1" fill="srgba(100%,0%,8.16358%,1)"/>
  <circle cx="15" cy="6" r="1" fill="srgba(100%,0%,8.50385%,1)"/>
  <circle cx="0" cy="7" r="1" fill="white"/>
  <circle cx="1" cy="7" r="1" fill="white"/>
  <circle cx="2" cy="7" r="1" fill="white"/>
  <circle cx="3" cy="7" r="1" fill="srgba(99.9878%,99.9054%,99.9176%,1)"/>
  <circle cx="4" cy="7" r="1" fill="srgba(98.2025%,86.5965%,88.1712%,1)"/>
  <circle cx="5" cy="7" r="1" fill="srgba(93.0739%,43.064%,49.4972%,1)"/>
  <circle cx="6" cy="7" r="1" fill="srgba(38.1231%,22.5788%,50.4723%,1)"/>
  <circle cx="7" cy="7" r="1" fill="srgba(0%,32.0348%,73.7316%,1)"/>
  <circle cx="8" cy="7" r="1" fill="srgba(0.0183108%,31.7952%,72.9671%,1)"/>
  <circle cx="9" cy="7" r="1" fill="srgba(0%,32.1004%,73.6202%,1)"/>
  <circle cx="10" cy="7" r="1" fill="srgba(10.0175%,28.7175%,66.7735%,1)"/>
  <circle cx="11" cy="7" r="1" fill="srgba(36.6964%,20.1007%,49.3248%,1)"/>
  <circle cx="12" cy="7" r="1" fill="srgba(47.187%,16.7758%,42.5925%,1)"/>
  <circle cx="13" cy="7" r="1" fill="srgba(61.9776%,12.079%,33.0785%,1)"/>
  <circle cx="14" cy="7" r="1" fill="srgba(84.8066%,4.82643%,18.3993%,1)"/>
  <circle cx="15" cy="7" r="1" fill="srgba(97.0809%,0.926223%,10.5058%,1)"/>
  <circle cx="0" cy="8" r="1" fill="white"/>
  <circle cx="1" cy="8" r="1" fill="white"/>
  <circle cx="2" cy="8" r="1" fill="white"/>
  <circle cx="3" cy="8" r="1" fill="srgba(99.9863%,99.8993%,99.9115%,1)"/>
  <circle cx="4" cy="8" r="1" fill="srgba(98.1918%,86.5232%,88.1071%,1)"/>
  <circle cx="5" cy="8" r="1" fill="srgba(93.0556%,42.9618%,49.4087%,1)"/>
  <circle cx="6" cy="8" r="1" fill="srgba(38.0835%,22.5834%,50.4891%,1)"/>
  <circle cx="7" cy="8" r="1" fill="srgba(0%,32.0485%,73.724%,1)"/>
  <circle cx="8" cy="8" r="1" fill="srgba(0.213626%,31.8853%,72.7993%,1)"/>
  <circle cx="9" cy="8" r="1" fill="srgba(0%,31.7937%,72.9839%,1)"/>
  <circle cx="10" cy="8" r="1" fill="srgba(0.749218%,31.5312%,72.4681%,1)"/>
  <circle cx="11" cy="8" r="1" fill="srgba(21.5717%,24.9119%,59.0677%,1)"/>
  <circle cx="12" cy="8" r="1" fill="srgba(68.6458%,9.95956%,28.7922%,1)"/>
  <circle cx="13" cy="8" r="1" fill="srgba(90.8492%,2.90684%,14.5129%,1)"/>
  <circle cx="14" cy="8" r="1" fill="srgba(91.5709%,2.67796%,14.049%,1)"/>
  <circle cx="15" cy="8" r="1" fill="srgba(94.7585%,1.66476%,11.9997%,1)"/>
  <circle cx="0" cy="9" r="1" fill="white"/>
  <circle cx="1" cy="9" r="1" fill="white"/>
  <circle cx="2" cy="9" r="1" fill="srgba(99.1455%,93.6416%,94.3893%,1)"/>
  <circle cx="3" cy="9" r="1" fill="srgba(94.5922%,59.7879%,64.5182%,1)"/>
  <circle cx="4" cy="9" r="1" fill="srgba(89.0867%,18.8144%,28.365%,1)"/>
  <circle cx="5" cy="9" r="1" fill="srgba(88.159%,6.45914%,17.1954%,1)"/>
  <circle cx="6" cy="9" r="1" fill="srgba(38.436%,24.4816%,52.1309%,1)"/>
  <circle cx="7" cy="9" r="1" fill="srgba(0%,32.1294%,73.7636%,1)"/>
  <circle cx="8" cy="9" r="1" fill="srgba(0.503548%,32.047%,72.6101%,1)"/>
  <circle cx="9" cy="9" r="1" fill="srgba(0.0198367%,31.7739%,72.9259%,1)"/>
  <circle cx="10" cy="9" r="1" fill="srgba(0%,31.7784%,72.9686%,1)"/>
  <circle cx="11" cy="9" r="1" fill="srgba(0%,32.1584%,73.7377%,1)"/>
  <circle cx="12" cy="9" r="1" fill="srgba(7.29992%,29.5705%,68.4962%,1)"/>
  <circle cx="13" cy="9" r="1" fill="srgba(50.2647%,15.79%,40.618%,1)"/>
  <circle cx="14" cy="9" r="1" fill="srgba(93.1411%,2.17899%,12.7062%,1)"/>
  <circle cx="15" cy="9" r="1" fill="srgba(100%,0%,7.55322%,1)"/>
  <circle cx="0" cy="10" r="1" fill="srgba(99.7101%,97.8439%,98.0972%,1)"/>
  <circle cx="1" cy="10" r="1" fill="srgba(96.5316%,74.2077%,77.2412%,1)"/>
  <circle cx="2" cy="10" r="1" fill="srgba(90.6569%,30.5135%,38.6877%,1)"/>
  <circle cx="3" cy="10" r="1" fill="srgba(87.4022%,6.3035%,17.3266%,1)"/>
  <circle cx="4" cy="10" r="1" fill="srgba(88.8502%,17.0443%,26.8025%,1)"/>
  <circle cx="5" cy="10" r="1" fill="srgba(95.0698%,57.7493%,62.4491%,1)"/>
  <circle cx="6" cy="10" r="1" fill="srgba(42.6642%,55.0164%,79.028%,1)"/>
  <circle cx="7" cy="10" r="1" fill="srgba(0%,31.0094%,72.7367%,1)"/>
  <circle cx="8" cy="10" r="1" fill="srgba(0.857557%,32.2454%,72.3796%,1)"/>
  <circle cx="9" cy="10" r="1" fill="srgba(0.0335698%,31.783%,72.9198%,1)"/>
  <circle cx="10" cy="10" r="1" fill="srgba(0,81,186,1)"/>
  <circle cx="11" cy="10" r="1" fill="srgba(0%,31.7586%,72.9305%,1)"/>
  <circle cx="12" cy="10" r="1" fill="srgba(0%,31.9509%,73.3181%,1)"/>
  <circle cx="13" cy="10" r="1" fill="srgba(1.0605%,31.7067%,72.8222%,1)"/>
  <circle cx="14" cy="10" r="1" fill="srgba(28.1758%,22.8244%,54.8196%,1)"/>
  <circle cx="15" cy="10" r="1" fill="srgba(75.668%,7.46471%,24.2802%,1)"/>
  <circle cx="0" cy="11" r="1" fill="srgba(92.0439%,40.8225%,47.7836%,1)"/>
  <circle cx="1" cy="11" r="1" fill="srgba(88.0522%,11.1406%,21.593%,1)"/>
  <circle cx="2" cy="11" r="1" fill="srgba(87.8233%,9.43008%,20.087%,1)"/>
  <circle cx="3" cy="11" r="1" fill="srgba(92.1706%,41.767%,48.6183%,1)"/>
  <circle cx="4" cy="11" r="1" fill="srgba(97.8103%,83.6881%,85.6077%,1)"/>
  <circle cx="5" cy="11" r="1" fill="srgba(100%,100%,99.9695%,1)"/>
  <circle cx="6" cy="11" r="1" fill="srgba(43.6988%,61.6297%,84.8096%,1)"/>
  <circle cx="7" cy="11" r="1" fill="srgba(0%,30.6966%,72.4117%,1)"/>
  <circle cx="8" cy="11" r="1" fill="srgba(1.23445%,32.4575%,72.1294%,1)"/>
  <circle cx="9" cy="11" r="1" fill="srgba(0.0442512%,31.7891%,72.9122%,1)"/>
  <circle cx="10" cy="11" r="1" fill="srgba(0,81,186,1)"/>
  <circle cx="11" cy="11" r="1" fill="srgba(0,81,186,1)"/>
  <circle cx="12" cy="11" r="1" fill="srgba(0%,31.7632%,72.9366%,1)"/>
  <circle cx="13" cy="11" r="1" fill="srgba(0%,31.8013%,73.0159%,1)"/>
  <circle cx="14" cy="11" r="1" fill="srgba(0%,31.9341%,73.8109%,1)"/>
  <circle cx="15" cy="11" r="1" fill="srgba(14.3526%,32.3949%,63.7797%,1)"/>
  <circle cx="0" cy="12" r="1" fill="srgba(87.3518%,5.92813%,16.9955%,1)"/>
  <circle cx="1" cy="12" r="1" fill="srgba(90.2647%,27.599%,36.1166%,1)"/>
  <circle cx="2" cy="12" r="1" fill="srgba(96.1303%,71.2154%,74.6044%,1)"/>
  <circle cx="3" cy="12" r="1" fill="srgba(99.6582%,97.4563%,97.7569%,1)"/>
  <circle cx="4" cy="12" r="1" fill="white"/>
  <circle cx="5" cy="12" r="1" fill="white"/>
  <circle cx="6" cy="12" r="1" fill="srgba(44.1108%,61.8616%,84.8783%,1)"/>
  <circle cx="7" cy="12" r="1" fill="srgba(0%,30.7301%,72.3812%,1)"/>
  <circle cx="8" cy="12" r="1" fill="srgba(1.60525%,32.668%,71.8822%,1)"/>
  <circle cx="9" cy="12" r="1" fill="srgba(0.0503548%,31.7922%,72.9076%,1)"/>
  <circle cx="10" cy="12" r="1" fill="srgba(0,81,186,1)"/>
  <circle cx="11" cy="12" r="1" fill="srgba(0,81,186,1)"/>
  <circle cx="12" cy="12" r="1" fill="srgba(0,81,186,1)"/>
  <circle cx="13" cy="12" r="1" fill="srgba(0%,31.7647%,72.9397%,1)"/>
  <circle cx="14" cy="12" r="1" fill="srgba(0%,31.4672%,73.2891%,1)"/>
  <circle cx="15" cy="12" r="1" fill="srgba(35.6344%,52.0714%,49.6101%,1)"/>
  <circle cx="0" cy="13" r="1" fill="srgba(94.6563%,60.2502%,64.9271%,1)"/>
  <circle cx="1" cy="13" r="1" fill="srgba(98.883%,91.6945%,92.6726%,1)"/>
  <circle cx="2" cy="13" r="1" fill="white"/>
  <circle cx="3" cy="13" r="1" fill="white"/>
  <circle cx="4" cy="13" r="1" fill="white"/>
  <circle cx="5" cy="13" r="1" fill="white"/>
  <circle cx="6" cy="13" r="1" fill="srgba(44.654%,62.2339%,85.0278%,1)"/>
  <circle cx="7" cy="13" r="1" fill="srgba(0%,30.7683%,72.3552%,1)"/>
  <circle cx="8" cy="13" r="1" fill="srgba(1.95621%,32.8649%,71.6533%,1)"/>
  <circle cx="9" cy="13" r="1" fill="srgba(0.0549325%,31.7952%,72.9046%,1)"/>
  <circle cx="10" cy="13" r="1" fill="srgba(0,81,186,1)"/>
  <circle cx="11" cy="13" r="1" fill="srgba(0,81,186,1)"/>
  <circle cx="12" cy="13" r="1" fill="srgba(0,81,186,1)"/>
  <circle cx="13" cy="13" r="1" fill="srgba(0%,31.6197%,73.1151%,1)"/>
  <circle cx="14" cy="13" r="1" fill="srgba(4.79744%,34.3236%,69.8665%,1)"/>
  <circle cx="15" cy="13" r="1" fill="srgba(67.9026%,69.6712%,27.8035%,1)"/>
  <circle cx="0" cy="14" r="1" fill="srgba(99.9802%,99.8535%,99.8718%,1)"/>
  <circle cx="1" cy="14" r="1" fill="white"/>
  <circle cx="2" cy="14" r="1" fill="white"/>
  <circle cx="3" cy="14" r="1" fill="white"/>
  <circle cx="4" cy="14" r="1" fill="white"/>
  <circle cx="5" cy="14" r="1" fill="white"/>
  <circle cx="6" cy="14" r="1" fill="srgba(45.2262%,62.6261%,85.182%,1)"/>
  <circle cx="7" cy="14" r="1" fill="srgba(0%,30.808%,72.3323%,1)"/>
  <circle cx="8" cy="14" r="1" fill="srgba(2.26749%,33.0388%,71.4488%,1)"/>
  <circle cx="9" cy="14" r="1" fill="srgba(0.0595102%,31.7983%,72.9015%,1)"/>
  <circle cx="10" cy="14" r="1" fill="srgba(0,81,186,1)"/>
  <circle cx="11" cy="14" r="1" fill="srgba(0,81,186,1)"/>
  <circle cx="12" cy="14" r="1" fill="srgba(0,81,186,1)"/>
  <circle cx="13" cy="14" r="1" fill="srgba(0%,31.1543%,73.7011%,1)"/>
  <circle cx="14" cy="14" r="1" fill="srgba(19.3744%,42.388%,59.7345%,1)"/>
  <circle cx="15" cy="14" r="1" fill="srgba(87.3472%,80.1434%,13.7453%,1)"/>
  <circle cx="0" cy="15" r="1" fill="white"/>
  <circle cx="1" cy="15" r="1" fill="white"/>
  <circle cx="2" cy="15" r="1" fill="white"/>
  <circle cx="3" cy="15" r="1" fill="white"/>
  <circle cx="4" cy="15" r="1" fill="white"/>
  <circle cx="5" cy="15" r="1" fill="white"/>
  <circle cx="6" cy="15" r="1" fill="srgba(45.9556%,63.1235%,85.3819%,1)"/>
  <circle cx="7" cy="15" r="1" fill="srgba(0%,30.8507%,72.3125%,1)"/>
  <circle cx="8" cy="15" r="1" fill="srgba(2.57115%,33.2128%,71.249%,1)"/>
  <circle cx="9" cy="15" r="1" fill="srgba(0.062562%,31.7998%,72.9%,1)"/>
  <circle cx="10" cy="15" r="1" fill="srgba(0,81,186,1)"/>
  <circle cx="11" cy="15" r="1" fill="srgba(0,81,186,1)"/>
  <circle cx="12" cy="15" r="1" fill="srgba(0,81,186,1)"/>
  <circle cx="13" cy="15" r="1" fill="srgba(0%,30.93%,73.9528%,1)"/>
  <circle cx="14" cy="15" r="1" fill="srgba(40.0229%,54.078%,46.1494%,1)"/>
  <circle cx="15" cy="15" r="1" fill="srgba(95.0866%,84.3076%,8.2063%,1)"/>
</svg>
