<?xml version="1.0" standalone="no"?>
<!DOCTYPE svg PUBLIC "-//W3C//DTD SVG 20010904//EN"
  "http://www.w3.org/TR/2001/REC-SVG-20010904/DTD/svg10.dtd">
<svg width="16" height="16">
  <circle cx="0" cy="0" r="1" fill="srgba(99.7391%,80.5234%,0%,1)"/>
  <circle cx="1" cy="0" r="1" fill="srgba(81.9501%,76.3943%,0%,1)"/>
  <circle cx="2" cy="0" r="1" fill="srgba(18.6267%,63.65%,0%,1)"/>
  <circle cx="3" cy="0" r="1" fill="srgba(0%,59.7192%,0%,1)"/>
  <circle cx="4" cy="0" r="1" fill="srgba(0%,60.0015%,0%,1)"/>
  <circle cx="5" cy="0" r="1" fill="srgba(0,153,0,1)"/>
  <circle cx="6" cy="0" r="1" fill="srgba(0,153,0,1)"/>
  <circle cx="7" cy="0" r="1" fill="srgba(0,153,0,1)"/>
  <circle cx="8" cy="0" r="1" fill="srgba(0,153,0,1)"/>
  <circle cx="9" cy="0" r="1" fill="srgba(0,153,0,1)"/>
  <circle cx="10" cy="0" r="1" fill="srgba(0,153,0,1)"/>
  <circle cx="11" cy="0" r="1" fill="srgba(0%,59.9985%,0%,1)"/>
  <circle cx="12" cy="0" r="1" fill="srgba(0%,59.7147%,0%,1)"/>
  <circle cx="13" cy="0" r="1" fill="srgba(21.767%,64.2863%,0%,1)"/>
  <circle cx="14" cy="0" r="1" fill="srgba(86.247%,77.2564%,0%,1)"/>
  <circle cx="15" cy="0" r="1" fill="srgba(100%,80.827%,0%,1)"/>
  <circle cx="0" cy="1" r="1" fill="srgba(85.9709%,68.983%,0%,1)"/>
  <circle cx="1" cy="1" r="1" fill="srgba(100%,80.7462%,0%,1)"/>
  <circle cx="2" cy="1" r="1" fill="srgba(76.7483%,75.3796%,0%,1)"/>
  <circle cx="3" cy="1" r="1" fill="srgba(16.2173%,63.1769%,0%,1)"/>
  <circle cx="4" cy="1" r="1" fill="srgba(0%,59.7543%,0%,1)"/>
  <circle cx="5" cy="1" r="1" fill="srgba(0%,60.0015%,0%,1)"/>
  <circle cx="6" cy="1" r="1" fill="srgba(0,153,0,1)"/>
  <circle cx="7" cy="1" r="1" fill="srgba(0,153,0,1)"/>
  <circle cx="8" cy="1" r="1" fill="srgba(0,153,0,1)"/>
  <circle cx="9" cy="1" r="1" fill="srgba(0,153,0,1)"/>
  <circle cx="10" cy="1" r="1" fill="srgba(0%,59.9985%,0%,1)"/>
  <circle cx="11" cy="1" r="1" fill="srgba(0%,59.7513%,0%,1)"/>
  <circle cx="12" cy="1" r="1" fill="srgba(18.7884%,63.6973%,0%,1)"/>
  <circle cx="13" cy="1" r="1" fill="srgba(79.7147%,75.9747%,0%,1)"/>
  <circle cx="14" cy="1" r="1" fill="srgba(100%,80.7462%,0%,1)"/>
  <circle cx="15" cy="1" r="1" fill="srgba(85.8595%,68.9189%,0.00457771%,1)"/>
  <circle cx="0" cy="2" r="1" fill="srgba(21.4557%,17.1542%,0%,1)"/>
  <circle cx="1" cy="2" r="1" fill="srgba(79.5041%,63.8148%,0%,1)"/>
  <circle cx="2" cy="2" r="1" fill="srgba(100%,81.2451%,0%,1)"/>
  <circle cx="3" cy="2" r="1" fill="srgba(77.4731%,75.5489%,0%,1)"/>
  <circle cx="4" cy="2" r="1" fill="srgba(16.5515%,63.2425%,0%,1)"/>
  <circle cx="5" cy="2" r="1" fill="srgba(0%,59.7528%,0%,1)"/>
  <circle cx="6" cy="2" r="1" fill="srgba(0%,60.0015%,0%,1)"/>
  <circle cx="7" cy="2" r="1" fill="srgba(0,153,0,1)"/>
  <circle cx="8" cy="2" r="1" fill="srgba(0,153,0,1)"/>
  <circle cx="9" cy="2" r="1" fill="srgba(0%,59.9985%,0%,1)"/>
  <circle cx="10" cy="2" r="1" fill="srgba(0%,59.7482%,0%,1)"/>
  <circle cx="11" cy="2" r="1" fill="srgba(18.9456%,63.7263%,0%,1)"/>
  <circle cx="12" cy="2" r="1" fill="srgba(80.1984%,76.1028%,0%,1)"/>
  <circle cx="13" cy="2" r="1" fill="srgba(100%,81.2528%,0%,1)"/>
  <circle cx="14" cy="2" r="1" fill="srgba(79.4369%,63.7583%,0%,1)"/>
  <circle cx="15" cy="2" r="1" fill="srgba(21.3947%,17.0993%,0.00762951%,1)"/>
  <circle cx="0" cy="3" r="1" fill="black"/>
  <circle cx="1" cy="3" r="1" fill="srgba(18.7213%,14.9676%,0%,1)"/>
  <circle cx="2" cy="3" r="1" fill="srgba(80.1251%,64.3122%,0%,1)"/>
  <circle cx="3" cy="3" r="1" fill="srgba(100%,81.2467%,0%,1)"/>
  <circle cx="4" cy="3" r="1" fill="srgba(77.7066%,75.5978%,0%,1)"/>
  <circle cx="5" cy="3" r="1" fill="srgba(16.7529%,63.2822%,0%,1)"/>
  <circle cx="6" cy="3" r="1" fill="srgba(0%,59.7513%,0%,1)"/>
  <circle cx="7" cy="3" r="1" fill="srgba(0%,60.0015%,0%,1)"/>
  <circle cx="8" cy="3" r="1" fill="srgba(0%,59.9985%,0%,1)"/>
  <circle cx="9" cy="3" r="1" fill="srgba(0%,59.7498%,0%,1)"/>
  <circle cx="10" cy="3" r="1" fill="srgba(18.9487%,63.7308%,0%,1)"/>
  <circle cx="11" cy="3" r="1" fill="srgba(80.1984%,76.1028%,0%,1)"/>
  <circle cx="12" cy="3" r="1" fill="srgba(100%,81.2528%,0%,1)"/>
  <circle cx="13" cy="3" r="1" fill="srgba(80.0504%,64.2527%,0%,1)"/>
  <circle cx="14" cy="3" r="1" fill="srgba(18.6572%,14.9142%,0%,1)"/>
  <circle cx="15" cy="3" r="1" fill="srgba(0%,0%,0.00762951%,1)"/>
  <circle cx="0" cy="4" r="1" fill="black"/>
  <circle cx="1" cy="4" r="1" fill="black"/>
  <circle cx="2" cy="4" r="1" fill="srgba(18.8678%,15.0851%,0%,1)"/>
  <circle cx="3" cy="4" r="1" fill="srgba(80.1251%,64.3122%,0%,1)"/>
  <circle cx="4" cy="4" r="1" fill="srgba(100%,81.2467%,0%,1)"/>
  <circle cx="5" cy="4" r="1" fill="srgba(77.937%,75.6435%,0%,1)"/>
  <circle cx="6" cy="4" r="1" fill="srgba(16.9528%,63.3234%,0%,1)"/>
  <circle cx="7" cy="4" r="1" fill="srgba(0%,59.7498%,0%,1)"/>
  <circle cx="8" cy="4" r="1" fill="srgba(0%,59.7498%,0%,1)"/>
  <circle cx="9" cy="4" r="1" fill="srgba(18.9517%,63.7339%,0%,1)"/>
  <circle cx="10" cy="4" r="1" fill="srgba(80.2045%,76.1089%,0%,1)"/>
  <circle cx="11" cy="4" r="1" fill="srgba(100%,81.2528%,0%,1)"/>
  <circle cx="12" cy="4" r="1" fill="srgba(80.0504%,64.2527%,0%,1)"/>
  <circle cx="13" cy="4" r="1" fill="srgba(18.8022%,15.0317%,0%,1)"/>
  <circle cx="14" cy="4" r="1" fill="black"/>
  <circle cx="15" cy="4" r="1" fill="srgba(0%,0.0015259%,0.00762951%,1)"/>
  <circle cx="0" cy="5" r="1" fill="black"/>
  <circle cx="1" cy="5" r="1" fill="black"/>
  <circle cx="2" cy="5" r="1" fill="black"/>
  <circle cx="3" cy="5" r="1" fill="srgba(18.8724%,15.0851%,0%,1)"/>
  <circle cx="4" cy="5" r="1" fill="srgba(80.1297%,64.3122%,0%,1)"/>
  <circle cx="5" cy="5" r="1" fill="srgba(100%,81.2482%,0%,1)"/>
  <circle cx="6" cy="5" r="1" fill="srgba(78.1582%,75.6863%,0%,1)"/>
  <circle cx="7" cy="5" r="1" fill="srgba(16.5789%,63.2792%,0%,1)"/>
  <circle cx="8" cy="5" r="1" fill="srgba(18.3658%,63.6423%,0%,1)"/>
  <circle cx="9" cy="5" r="1" fill="srgba(80.1999%,76.1059%,0%,1)"/>
  <circle cx="10" cy="5" r="1" fill="srgba(100%,81.2528%,0%,1)"/>
  <circle cx="11" cy="5" r="1" fill="srgba(80.0504%,64.2527%,0%,1)"/>
  <circle cx="12" cy="5" r="1" fill="srgba(18.8022%,15.0317%,0%,1)"/>
  <circle cx="13" cy="5" r="1" fill="black"/>
  <circle cx="14" cy="5" r="1" fill="black"/>
  <circle cx="15" cy="5" r="1" fill="srgba(0.00762951%,0.00762951%,0.00762951%,1)"/>
  <circle cx="0" cy="6" r="1" fill="black"/>
  <circle cx="1" cy="6" r="1" fill="black"/>
  <circle cx="2" cy="6" r="1" fill="black"/>
  <circle cx="3" cy="6" r="1" fill="black"/>
  <circle cx="4" cy="6" r="1" fill="srgba(18.8739%,15.0866%,0%,1)"/>
  <circle cx="5" cy="6" r="1" fill="srgba(80.1328%,64.303%,0%,1)"/>
  <circle cx="6" cy="6" r="1" fill="srgba(100%,81.0498%,0%,1)"/>
  <circle cx="7" cy="6" r="1" fill="srgba(81.2558%,76.2875%,0%,1)"/>
  <circle cx="8" cy="6" r="1" fill="srgba(82.3102%,76.5087%,0%,1)"/>
  <circle cx="9" cy="6" r="1" fill="srgba(100%,81.0758%,0%,1)"/>
  <circle cx="10" cy="6" r="1" fill="srgba(80.0504%,64.242%,0%,1)"/>
  <circle cx="11" cy="6" r="1" fill="srgba(18.8022%,15.0317%,0%,1)"/>
  <circle cx="12" cy="6" r="1" fill="black"/>
  <circle cx="13" cy="6" r="1" fill="black"/>
  <circle cx="14" cy="6" r="1" fill="black"/>
  <circle cx="15" cy="6" r="1" fill="srgba(0.00762951%,0.00762951%,0.00762951%,1)"/>
  <circle cx="0" cy="7" r="1" fill="black"/>
  <circle cx="1" cy="7" r="1" fill="black"/>
  <circle cx="2" cy="7" r="1" fill="black"/>
  <circle cx="3" cy="7" r="1" fill="black"/>
  <circle cx="4" cy="7" r="1" fill="black"/>
  <circle cx="5" cy="7" r="1" fill="srgba(18.4421%,14.7539%,0%,1)"/>
  <circle cx="6" cy="7" r="1" fill="srgba(82.8641%,66.2913%,0%,1)"/>
  <circle cx="7" cy="7" r="1" fill="srgba(100%,80.8637%,0%,1)"/>
  <circle cx="8" cy="7" r="1" fill="srgba(100%,80.8545%,0%,1)"/>
  <circle cx="9" cy="7" r="1" fill="srgba(82.501%,66.0029%,0%,1)"/>
  <circle cx="10" cy="7" r="1" fill="srgba(18.3307%,14.667%,0%,1)"/>
  <circle cx="11" cy="7" r="1" fill="black"/>
  <circle cx="12" cy="7" r="1" fill="black"/>
  <circle cx="13" cy="7" r="1" fill="black"/>
  <circle cx="14" cy="7" r="1" fill="black"/>
  <circle cx="15" cy="7" r="1" fill="srgba(0.00762951%,0.00762951%,0.00762951%,1)"/>
  <circle cx="0" cy="8" r="1" fill="black"/>
  <circle cx="1" cy="8" r="1" fill="black"/>
  <circle cx="2" cy="8" r="1" fill="black"/>
  <circle cx="3" cy="8" r="1" fill="black"/>
  <circle cx="4" cy="8" r="1" fill="black"/>
  <circle cx="5" cy="8" r="1" fill="srgba(18.5245%,14.818%,0%,1)"/>
  <circle cx="6" cy="8" r="1" fill="srgba(82.9145%,66.3294%,0%,1)"/>
  <circle cx="7" cy="8" r="1" fill="srgba(100%,80.8545%,0%,1)"/>
  <circle cx="8" cy="8" r="1" fill="srgba(100%,80.8774%,0%,1)"/>
  <circle cx="9" cy="8" r="1" fill="srgba(81.8219%,65.4566%,0%,1)"/>
  <circle cx="10" cy="8" r="1" fill="srgba(17.3281%,13.8613%,0%,1)"/>
  <circle cx="11" cy="8" r="1" fill="black"/>
  <circle cx="12" cy="8" r="1" fill="black"/>
  <circle cx="13" cy="8" r="1" fill="black"/>
  <circle cx="14" cy="8" r="1" fill="black"/>
  <circle cx="15" cy="8" r="1" fill="srgba(0.00762951%,0.00762951%,0.00762951%,1)"/>
  <circle cx="0" cy="9" r="1" fill="black"/>
  <circle cx="1" cy="9" r="1" fill="black"/>
  <circle cx="2" cy="9" r="1" fill="black"/>
  <circle cx="3" cy="9" r="1" fill="black"/>
  <circle cx="4" cy="9" r="1" fill="srgba(18.9639%,15.1568%,0%,1)"/>
  <circle cx="5" cy="9" r="1" fill="srgba(80.2167%,64.3717%,0%,1)"/>
  <circle cx="6" cy="9" r="1" fill="srgba(100%,81.0605%,0%,1)"/>
  <circle cx="7" cy="9" r="1" fill="srgba(82.5513%,76.556%,0%,1)"/>
  <circle cx="8" cy="9" r="1" fill="srgba(82.6047%,76.5698%,0%,1)"/>
  <circle cx="9" cy="9" r="1" fill="srgba(100%,81.0376%,0%,1)"/>
  <circle cx="10" cy="9" r="1" fill="srgba(79.0738%,63.4409%,0%,1)"/>
  <circle cx="11" cy="9" r="1" fill="srgba(17.9751%,14.3694%,0%,1)"/>
  <circle cx="12" cy="9" r="1" fill="black"/>
  <circle cx="13" cy="9" r="1" fill="black"/>
  <circle cx="14" cy="9" r="1" fill="black"/>
  <circle cx="15" cy="9" r="1" fill="srgba(0.00762951%,0.00762951%,0.00762951%,1)"/>
  <circle cx="0" cy="10" r="1" fill="black"/>
  <circle cx="1" cy="10" r="1" fill="black"/>
  <circle cx="2" cy="10" r="1" fill="black"/>
  <circle cx="3" cy="10" r="1" fill="srgba(18.9639%,15.1568%,0%,1)"/>
  <circle cx="4" cy="10" r="1" fill="srgba(80.2167%,64.3839%,0%,1)"/>
  <circle cx="5" cy="10" r="1" fill="srgba(100%,81.2528%,0%,1)"/>
  <circle cx="6" cy="10" r="1" fill="srgba(80.0381%,76.0739%,0%,1)"/>
  <circle cx="7" cy="10" r="1" fill="srgba(18.2208%,63.6179%,0%,1)"/>
  <circle cx="8" cy="10" r="1" fill="srgba(18.3078%,63.6347%,0%,1)"/>
  <circle cx="9" cy="10" r="1" fill="srgba(80.1328%,76.0983%,0%,1)"/>
  <circle cx="10" cy="10" r="1" fill="srgba(100%,81.2467%,0%,1)"/>
  <circle cx="11" cy="10" r="1" fill="srgba(79.2981%,63.6362%,0%,1)"/>
  <circle cx="12" cy="10" r="1" fill="srgba(18.1857%,14.5357%,0%,1)"/>
  <circle cx="13" cy="10" r="1" fill="black"/>
  <circle cx="14" cy="10" r="1" fill="black"/>
  <circle cx="15" cy="10" r="1" fill="srgba(0.00762951%,0.00762951%,0.00762951%,1)"/>
  <circle cx="0" cy="11" r="1" fill="black"/>
  <circle cx="1" cy="11" r="1" fill="black"/>
  <circle cx="2" cy="11" r="1" fill="srgba(18.9639%,15.1568%,0%,1)"/>
  <circle cx="3" cy="11" r="1" fill="srgba(80.2167%,64.3839%,0%,1)"/>
  <circle cx="4" cy="11" r="1" fill="srgba(100%,81.2528%,0%,1)"/>
  <circle cx="5" cy="11" r="1" fill="srgba(80.0443%,76.0754%,0%,1)"/>
  <circle cx="6" cy="11" r="1" fill="srgba(18.7961%,63.7034%,0%,1)"/>
  <circle cx="7" cy="11" r="1" fill="srgba(0%,59.7482%,0%,1)"/>
  <circle cx="8" cy="11" r="1" fill="srgba(0%,59.7482%,0%,1)"/>
  <circle cx="9" cy="11" r="1" fill="srgba(18.8861%,63.7217%,0%,1)"/>
  <circle cx="10" cy="11" r="1" fill="srgba(80.1389%,76.0998%,0%,1)"/>
  <circle cx="11" cy="11" r="1" fill="srgba(100%,81.2482%,0%,1)"/>
  <circle cx="12" cy="11" r="1" fill="srgba(79.5239%,63.8178%,0%,1)"/>
  <circle cx="13" cy="11" r="1" fill="srgba(18.3978%,14.7051%,0%,1)"/>
  <circle cx="14" cy="11" r="1" fill="black"/>
  <circle cx="15" cy="11" r="1" fill="srgba(0%,0.0015259%,0.00762951%,1)"/>
  <circle cx="0" cy="12" r="1" fill="black"/>
  <circle cx="1" cy="12" r="1" fill="srgba(18.8205%,15.0423%,0%,1)"/>
  <circle cx="2" cy="12" r="1" fill="srgba(80.2167%,64.3839%,0%,1)"/>
  <circle cx="3" cy="12" r="1" fill="srgba(100%,81.2528%,0%,1)"/>
  <circle cx="4" cy="12" r="1" fill="srgba(80.0381%,76.0708%,0%,1)"/>
  <circle cx="5" cy="12" r="1" fill="srgba(18.793%,63.6988%,0%,1)"/>
  <circle cx="6" cy="12" r="1" fill="srgba(0%,59.7498%,0%,1)"/>
  <circle cx="7" cy="12" r="1" fill="srgba(0,153,0,1)"/>
  <circle cx="8" cy="12" r="1" fill="srgba(0,153,0,1)"/>
  <circle cx="9" cy="12" r="1" fill="srgba(0%,59.7498%,0%,1)"/>
  <circle cx="10" cy="12" r="1" fill="srgba(18.8861%,63.7201%,0%,1)"/>
  <circle cx="11" cy="12" r="1" fill="srgba(80.1389%,76.0983%,0%,1)"/>
  <circle cx="12" cy="12" r="1" fill="srgba(100%,81.2497%,0%,1)"/>
  <circle cx="13" cy="12" r="1" fill="srgba(79.7452%,63.9979%,0%,1)"/>
  <circle cx="14" cy="12" r="1" fill="srgba(18.4619%,14.7585%,0%,1)"/>
  <circle cx="15" cy="12" r="1" fill="srgba(0%,0%,0.00762951%,1)"/>
  <circle cx="0" cy="13" r="1" fill="srgba(21.6251%,17.2824%,0%,1)"/>
  <circle cx="1" cy="13" r="1" fill="srgba(79.6292%,63.9109%,0%,1)"/>
  <circle cx="2" cy="13" r="1" fill="srgba(100%,81.2512%,0%,1)"/>
  <circle cx="3" cy="13" r="1" fill="srgba(80.0381%,76.0693%,0%,1)"/>
  <circle cx="4" cy="13" r="1" fill="srgba(18.79%,63.6973%,0%,1)"/>
  <circle cx="5" cy="13" r="1" fill="srgba(0%,59.7482%,0%,1)"/>
  <circle cx="6" cy="13" r="1" fill="srgba(0%,59.9985%,0%,1)"/>
  <circle cx="7" cy="13" r="1" fill="srgba(0,153,0,1)"/>
  <circle cx="8" cy="13" r="1" fill="srgba(0,153,0,1)"/>
  <circle cx="9" cy="13" r="1" fill="srgba(0%,59.9985%,0%,1)"/>
  <circle cx="10" cy="13" r="1" fill="srgba(0%,59.7498%,0%,1)"/>
  <circle cx="11" cy="13" r="1" fill="srgba(18.8861%,63.7217%,0%,1)"/>
  <circle cx="12" cy="13" r="1" fill="srgba(80.1373%,76.0983%,0%,1)"/>
  <circle cx="13" cy="13" r="1" fill="srgba(100%,81.2512%,0%,1)"/>
  <circle cx="14" cy="13" r="1" fill="srgba(79.3439%,63.679%,0%,1)"/>
  <circle cx="15" cy="13" r="1" fill="srgba(21.3993%,17.1038%,0.00762951%,1)"/>
  <circle cx="0" cy="14" r="1" fill="srgba(86.0472%,69.0669%,0%,1)"/>
  <circle cx="1" cy="14" r="1" fill="srgba(100%,80.7492%,0%,1)"/>
  <circle cx="2" cy="14" r="1" fill="srgba(79.5468%,75.935%,0%,1)"/>
  <circle cx="3" cy="14" r="1" fill="srgba(18.6282%,63.6606%,0%,1)"/>
  <circle cx="4" cy="14" r="1" fill="srgba(0%,59.7482%,0%,1)"/>
  <circle cx="5" cy="14" r="1" fill="srgba(0%,59.9969%,0%,1)"/>
  <circle cx="6" cy="14" r="1" fill="srgba(0%,59.9969%,0%,1)"/>
  <circle cx="7" cy="14" r="1" fill="srgba(0%,59.9969%,0%,1)"/>
  <circle cx="8" cy="14" r="1" fill="srgba(0%,59.9969%,0%,1)"/>
  <circle cx="9" cy="14" r="1" fill="srgba(0%,59.9969%,0%,1)"/>
  <circle cx="10" cy="14" r="1" fill="srgba(0%,59.9954%,0%,1)"/>
  <circle cx="11" cy="14" r="1" fill="srgba(0%,59.7482%,0%,1)"/>
  <circle cx="12" cy="14" r="1" fill="srgba(18.7289%,63.6896%,0%,1)"/>
  <circle cx="13" cy="14" r="1" fill="srgba(79.6567%,75.967%,0%,1)"/>
  <circle cx="14" cy="14" r="1" fill="srgba(100%,80.7462%,0%,1)"/>
  <circle cx="15" cy="14" r="1" fill="srgba(85.9403%,68.983%,0.00457771%,1)"/>
  <circle cx="0" cy="15" r="1" fill="srgba(100%,80.8057%,0.00610361%,1)"/>
  <circle cx="1" cy="15" r="1" fill="srgba(86.1143%,77.2396%,0.0686656%,1)"/>
  <circle cx="2" cy="15" r="1" fill="srgba(21.6876%,64.3%,0.132753%,1)"/>
  <circle cx="3" cy="15" r="1" fill="srgba(0%,59.7681%,0.131228%,1)"/>
  <circle cx="4" cy="15" r="1" fill="srgba(0.117494%,60.0519%,0.131228%,1)"/>
  <circle cx="5" cy="15" r="1" fill="srgba(0.131228%,60.0534%,0.131228%,1)"/>
  <circle cx="6" cy="15" r="1" fill="srgba(0.131228%,60.0534%,0.131228%,1)"/>
  <circle cx="7" cy="15" r="1" fill="srgba(0.131228%,60.0534%,0.131228%,1)"/>
  <circle cx="8" cy="15" r="1" fill="srgba(0.131228%,60.0534%,0.131228%,1)"/>
  <circle cx="9" cy="15" r="1" fill="srgba(0.131228%,60.0534%,0.131228%,1)"/>
  <circle cx="10" cy="15" r="1" fill="srgba(0.131228%,60.0534%,0.131228%,1)"/>
  <circle cx="11" cy="15" r="1" fill="srgba(0.117494%,60.0519%,0.131228%,1)"/>
  <circle cx="12" cy="15" r="1" fill="srgba(0%,59.7681%,0.131228%,1)"/>
  <circle cx="13" cy="15" r="1" fill="srgba(21.8082%,64.3336%,0.132753%,1)"/>
  <circle cx="14" cy="15" r="1" fill="srgba(86.2654%,77.2778%,0.0640879%,1)"/>
  <circle cx="15" cy="15" r="1" fill="srgba(100%,80.824%,0%,1)"/>
</svg>
