<?xml version="1.0" standalone="no"?>
<!DOCTYPE svg PUBLIC "-//W3C//DTD SVG 20010904//EN"
  "http://www.w3.org/TR/2001/REC-SVG-20010904/DTD/svg10.dtd">
<svg width="16" height="16">
  <circle cx="0" cy="0" r="1" fill="black"/>
  <circle cx="1" cy="0" r="1" fill="black"/>
  <circle cx="2" cy="0" r="1" fill="black"/>
  <circle cx="3" cy="0" r="1" fill="black"/>
  <circle cx="4" cy="0" r="1" fill="black"/>
  <circle cx="5" cy="0" r="1" fill="black"/>
  <circle cx="6" cy="0" r="1" fill="black"/>
  <circle cx="7" cy="0" r="1" fill="black"/>
  <circle cx="8" cy="0" r="1" fill="black"/>
  <circle cx="9" cy="0" r="1" fill="black"/>
  <circle cx="10" cy="0" r="1" fill="black"/>
  <circle cx="11" cy="0" r="1" fill="black"/>
  <circle cx="12" cy="0" r="1" fill="black"/>
  <circle cx="13" cy="0" r="1" fill="black"/>
  <circle cx="14" cy="0" r="1" fill="black"/>
  <circle cx="15" cy="0" r="1" fill="black"/>
  <circle cx="0" cy="1" r="1" fill="srgba(7.46929%,0%,0%,1)"/>
  <circle cx="1" cy="1" r="1" fill="srgba(0.180056%,0%,0%,1)"/>
  <circle cx="2" cy="1" r="1" fill="black"/>
  <circle cx="3" cy="1" r="1" fill="black"/>
  <circle cx="4" cy="1" r="1" fill="black"/>
  <circle cx="5" cy="1" r="1" fill="black"/>
  <circle cx="6" cy="1" r="1" fill="black"/>
  <circle cx="7" cy="1" r="1" fill="black"/>
  <circle cx="8" cy="1" r="1" fill="black"/>
  <circle cx="9" cy="1" r="1" fill="black"/>
  <circle cx="10" cy="1" r="1" fill="black"/>
  <circle cx="11" cy="1" r="1" fill="black"/>
  <circle cx="12" cy="1" r="1" fill="black"/>
  <circle cx="13" cy="1" r="1" fill="black"/>
  <circle cx="14" cy="1" r="1" fill="black"/>
  <circle cx="15" cy="1" r="1" fill="black"/>
  <circle cx="0" cy="2" r="1" fill="srgba(78.8373%,0%,0%,1)"/>
  <circle cx="1" cy="2" r="1" fill="srgba(42.9236%,0%,0%,1)"/>
  <circle cx="2" cy="2" r="1" fill="srgba(9.51858%,0%,0%,1)"/>
  <circle cx="3" cy="2" r="1" fill="black"/>
  <circle cx="4" cy="2" r="1" fill="black"/>
  <circle cx="5" cy="2" r="1" fill="black"/>
  <circle cx="6" cy="2" r="1" fill="black"/>
  <circle cx="7" cy="2" r="1" fill="black"/>
  <circle cx="8" cy="2" r="1" fill="black"/>
  <circle cx="9" cy="2" r="1" fill="black"/>
  <circle cx="10" cy="2" r="1" fill="black"/>
  <circle cx="11" cy="2" r="1" fill="black"/>
  <circle cx="12" cy="2" r="1" fill="black"/>
  <circle cx="13" cy="2" r="1" fill="black"/>
  <circle cx="14" cy="2" r="1" fill="black"/>
  <circle cx="15" cy="2" r="1" fill="black"/>
  <circle cx="0" cy="3" r="1" fill="red"/>
  <circle cx="1" cy="3" r="1" fill="srgba(98.822%,0%,0%,1)"/>
  <circle cx="2" cy="3" r="1" fill="srgba(81.0483%,0%,0%,1)"/>
  <circle cx="3" cy="3" r="1" fill="srgba(42.501%,0%,0%,1)"/>
  <circle cx="4" cy="3" r="1" fill="srgba(9.51858%,0%,0%,1)"/>
  <circle cx="5" cy="3" r="1" fill="black"/>
  <circle cx="6" cy="3" r="1" fill="black"/>
  <circle cx="7" cy="3" r="1" fill="black"/>
  <circle cx="8" cy="3" r="1" fill="black"/>
  <circle cx="9" cy="3" r="1" fill="black"/>
  <circle cx="10" cy="3" r="1" fill="black"/>
  <circle cx="11" cy="3" r="1" fill="black"/>
  <circle cx="12" cy="3" r="1" fill="black"/>
  <circle cx="13" cy="3" r="1" fill="black"/>
  <circle cx="14" cy="3" r="1" fill="black"/>
  <circle cx="15" cy="3" r="1" fill="black"/>
  <circle cx="0" cy="4" r="1" fill="red"/>
  <circle cx="1" cy="4" r="1" fill="red"/>
  <circle cx="2" cy="4" r="1" fill="red"/>
  <circle cx="3" cy="4" r="1" fill="srgba(98.8128%,0%,0%,1)"/>
  <circle cx="4" cy="4" r="1" fill="srgba(81.0483%,0%,0%,1)"/>
  <circle cx="5" cy="4" r="1" fill="srgba(42.4964%,0%,0%,1)"/>
  <circle cx="6" cy="4" r="1" fill="srgba(9.58877%,0.149538%,0.149538%,1)"/>
  <circle cx="7" cy="4" r="1" fill="srgba(0.471504%,1.68307%,1.68307%,1)"/>
  <circle cx="8" cy="4" r="1" fill="srgba(0.560006%,1.20699%,1.20699%,1)"/>
  <circle cx="9" cy="4" r="1" fill="srgba(0.570687%,0.572213%,0.572213%,1)"/>
  <circle cx="10" cy="4" r="1" fill="srgba(0.570687%,0.569162%,0.569162%,1)"/>
  <circle cx="11" cy="4" r="1" fill="srgba(0.570687%,0.570687%,0.570687%,1)"/>
  <circle cx="12" cy="4" r="1" fill="srgba(0.570687%,0.570687%,0.570687%,1)"/>
  <circle cx="13" cy="4" r="1" fill="srgba(0.570687%,0.570687%,0.570687%,1)"/>
  <circle cx="14" cy="4" r="1" fill="srgba(0.570687%,0.570687%,0.570687%,1)"/>
  <circle cx="15" cy="4" r="1" fill="srgba(0.570687%,0.570687%,0.570687%,1)"/>
  <circle cx="0" cy="5" r="1" fill="red"/>
  <circle cx="1" cy="5" r="1" fill="red"/>
  <circle cx="2" cy="5" r="1" fill="red"/>
  <circle cx="3" cy="5" r="1" fill="red"/>
  <circle cx="4" cy="5" r="1" fill="red"/>
  <circle cx="5" cy="5" r="1" fill="srgba(98.7533%,0%,0%,1)"/>
  <circle cx="6" cy="5" r="1" fill="srgba(81.59%,0.541695%,0.541695%,1)"/>
  <circle cx="7" cy="5" r="1" fill="srgba(65.4475%,22.9435%,22.9435%,1)"/>
  <circle cx="8" cy="5" r="1" fill="srgba(65.0599%,55.6207%,55.6207%,1)"/>
  <circle cx="9" cy="5" r="1" fill="srgba(65.098%,66.3111%,66.3111%,1)"/>
  <circle cx="10" cy="5" r="1" fill="srgba(65.098%,65.7465%,65.7465%,1)"/>
  <circle cx="11" cy="5" r="1" fill="srgba(65.098%,65.0996%,65.0996%,1)"/>
  <circle cx="12" cy="5" r="1" fill="srgba(65.098%,65.0965%,65.0965%,1)"/>
  <circle cx="13" cy="5" r="1" fill="grey65"/>
  <circle cx="14" cy="5" r="1" fill="grey65"/>
  <circle cx="15" cy="5" r="1" fill="grey65"/>
  <circle cx="0" cy="6" r="1" fill="srgba(100%,0.688182%,0.688182%,1)"/>
  <circle cx="1" cy="6" r="1" fill="srgba(100%,1.57168%,1.57168%,1)"/>
  <circle cx="2" cy="6" r="1" fill="srgba(100%,0.0534066%,0.0534066%,1)"/>
  <circle cx="3" cy="6" r="1" fill="red"/>
  <circle cx="4" cy="6" r="1" fill="red"/>
  <circle cx="5" cy="6" r="1" fill="red"/>
  <circle cx="6" cy="6" r="1" fill="red"/>
  <circle cx="7" cy="6" r="1" fill="srgba(100%,2.15457%,2.15457%,1)"/>
  <circle cx="8" cy="6" r="1" fill="srgba(100%,20.7111%,20.7111%,1)"/>
  <circle cx="9" cy="6" r="1" fill="srgba(100%,59.2508%,59.2508%,1)"/>
  <circle cx="10" cy="6" r="1" fill="srgba(100%,91.9493%,91.9493%,1)"/>
  <circle cx="11" cy="6" r="1" fill="white"/>
  <circle cx="12" cy="6" r="1" fill="white"/>
  <circle cx="13" cy="6" r="1" fill="white"/>
  <circle cx="14" cy="6" r="1" fill="white"/>
  <circle cx="15" cy="6" r="1" fill="white"/>
  <circle cx="0" cy="7" r="1" fill="srgba(100%,25.008%,25.008%,1)"/>
  <circle cx="1" cy="7" r="1" fill="srgba(100%,44.0116%,44.0116%,1)"/>
  <circle cx="2" cy="7" r="1" fill="srgba(100%,4.64637%,4.64637%,1)"/>
  <circle cx="3" cy="7" r="1" fill="red"/>
  <circle cx="4" cy="7" r="1" fill="red"/>
  <circle cx="5" cy="7" r="1" fill="red"/>
  <circle cx="6" cy="7" r="1" fill="red"/>
  <circle cx="7" cy="7" r="1" fill="red"/>
  <circle cx="8" cy="7" r="1" fill="red"/>
  <circle cx="9" cy="7" r="1" fill="srgba(100%,1.09865%,1.09865%,1)"/>
  <circle cx="10" cy="7" r="1" fill="srgba(100%,17.7981%,17.7981%,1)"/>
  <circle cx="11" cy="7" r="1" fill="srgba(100%,58.4192%,58.4192%,1)"/>
  <circle cx="12" cy="7" r="1" fill="srgba(100%,95.7214%,95.7214%,1)"/>
  <circle cx="13" cy="7" r="1" fill="white"/>
  <circle cx="14" cy="7" r="1" fill="white"/>
  <circle cx="15" cy="7" r="1" fill="white"/>
  <circle cx="0" cy="8" r="1" fill="srgba(100%,24.8402%,24.8402%,1)"/>
  <circle cx="1" cy="8" r="1" fill="srgba(100%,43.8682%,43.8682%,1)"/>
  <circle cx="2" cy="8" r="1" fill="srgba(100%,4.58839%,4.58839%,1)"/>
  <circle cx="3" cy="8" r="1" fill="red"/>
  <circle cx="4" cy="8" r="1" fill="red"/>
  <circle cx="5" cy="8" r="1" fill="red"/>
  <circle cx="6" cy="8" r="1" fill="red"/>
  <circle cx="7" cy="8" r="1" fill="red"/>
  <circle cx="8" cy="8" r="1" fill="red"/>
  <circle cx="9" cy="8" r="1" fill="srgba(100%,1.11849%,1.11849%,1)"/>
  <circle cx="10" cy="8" r="1" fill="srgba(100%,17.8973%,17.8973%,1)"/>
  <circle cx="11" cy="8" r="1" fill="srgba(100%,58.5214%,58.5214%,1)"/>
  <circle cx="12" cy="8" r="1" fill="srgba(100%,95.7351%,95.7351%,1)"/>
  <circle cx="13" cy="8" r="1" fill="white"/>
  <circle cx="14" cy="8" r="1" fill="white"/>
  <circle cx="15" cy="8" r="1" fill="white"/>
  <circle cx="0" cy="9" r="1" fill="srgba(100%,0.790417%,0.790417%,1)"/>
  <circle cx="1" cy="9" r="1" fill="srgba(100%,1.33211%,1.33211%,1)"/>
  <circle cx="2" cy="9" r="1" fill="srgba(100%,0.131228%,0.131228%,1)"/>
  <circle cx="3" cy="9" r="1" fill="red"/>
  <circle cx="4" cy="9" r="1" fill="red"/>
  <circle cx="5" cy="9" r="1" fill="red"/>
  <circle cx="6" cy="9" r="1" fill="red"/>
  <circle cx="7" cy="9" r="1" fill="srgba(100%,1.5259%,2.18204%,1)"/>
  <circle cx="8" cy="9" r="1" fill="srgba(100%,19.7498%,20.8103%,1)"/>
  <circle cx="9" cy="9" r="1" fill="srgba(100%,58.3261%,59.382%,1)"/>
  <circle cx="10" cy="9" r="1" fill="srgba(100%,91.1559%,92.015%,1)"/>
  <circle cx="11" cy="9" r="1" fill="white"/>
  <circle cx="12" cy="9" r="1" fill="white"/>
  <circle cx="13" cy="9" r="1" fill="white"/>
  <circle cx="14" cy="9" r="1" fill="white"/>
  <circle cx="15" cy="9" r="1" fill="white"/>
  <circle cx="0" cy="10" r="1" fill="red"/>
  <circle cx="1" cy="10" r="1" fill="red"/>
  <circle cx="2" cy="10" r="1" fill="red"/>
  <circle cx="3" cy="10" r="1" fill="red"/>
  <circle cx="4" cy="10" r="1" fill="red"/>
  <circle cx="5" cy="10" r="1" fill="srgba(98.7396%,0.701915%,0%,1)"/>
  <circle cx="6" cy="10" r="1" fill="srgba(81.4359%,11.6213%,0.482185%,1)"/>
  <circle cx="7" cy="10" r="1" fill="srgba(64.9226%,43.5889%,22.5422%,1)"/>
  <circle cx="8" cy="10" r="1" fill="srgba(64.4831%,76.4218%,55.111%,1)"/>
  <circle cx="9" cy="10" r="1" fill="srgba(64.5243%,87.0298%,65.7435%,1)"/>
  <circle cx="10" cy="10" r="1" fill="srgba(64.5243%,86.4546%,65.1682%,1)"/>
  <circle cx="11" cy="10" r="1" fill="srgba(64.5243%,85.8122%,64.5258%,1)"/>
  <circle cx="12" cy="10" r="1" fill="srgba(64.5243%,85.8091%,64.5228%,1)"/>
  <circle cx="13" cy="10" r="1" fill="srgba(64.5243%,85.8106%,64.5243%,1)"/>
  <circle cx="14" cy="10" r="1" fill="srgba(64.5243%,85.8106%,64.5243%,1)"/>
  <circle cx="15" cy="10" r="1" fill="srgba(64.5243%,85.8106%,64.5243%,1)"/>
  <circle cx="0" cy="11" r="1" fill="red"/>
  <circle cx="1" cy="11" r="1" fill="red"/>
  <circle cx="2" cy="11" r="1" fill="red"/>
  <circle cx="3" cy="11" r="1" fill="srgba(98.7945%,0.723278%,0%,1)"/>
  <circle cx="4" cy="11" r="1" fill="srgba(80.9537%,11.4275%,0%,1)"/>
  <circle cx="5" cy="11" r="1" fill="srgba(42.3713%,34.5693%,0%,1)"/>
  <circle cx="6" cy="11" r="1" fill="srgba(9.5079%,54.4305%,0.135805%,1)"/>
  <circle cx="7" cy="11" r="1" fill="srgba(0.358587%,61.3626%,1.57626%,1)"/>
  <circle cx="8" cy="11" r="1" fill="srgba(0.436408%,60.8179%,1.07881%,1)"/>
  <circle cx="9" cy="11" r="1" fill="srgba(0.447089%,60.1801%,0.448615%,1)"/>
  <circle cx="10" cy="11" r="1" fill="srgba(0.447089%,60.177%,0.445563%,1)"/>
  <circle cx="11" cy="11" r="1" fill="srgba(0.447089%,60.1785%,0.447089%,1)"/>
  <circle cx="12" cy="11" r="1" fill="srgba(0.447089%,60.1785%,0.447089%,1)"/>
  <circle cx="13" cy="11" r="1" fill="srgba(0.447089%,60.1785%,0.447089%,1)"/>
  <circle cx="14" cy="11" r="1" fill="srgba(0.447089%,60.1785%,0.447089%,1)"/>
  <circle cx="15" cy="11" r="1" fill="srgba(0.447089%,60.1785%,0.447089%,1)"/>
  <circle cx="0" cy="12" r="1" fill="red"/>
  <circle cx="1" cy="12" r="1" fill="srgba(98.8037%,0.717174%,0%,1)"/>
  <circle cx="2" cy="12" r="1" fill="srgba(80.9537%,11.4275%,0%,1)"/>
  <circle cx="3" cy="12" r="1" fill="srgba(42.3743%,34.5724%,0%,1)"/>
  <circle cx="4" cy="12" r="1" fill="srgba(9.45449%,54.3771%,0%,1)"/>
  <circle cx="5" cy="12" r="1" fill="srgba(0%,60.7324%,0%,1)"/>
  <circle cx="6" cy="12" r="1" fill="srgba(0%,60.3845%,0%,1)"/>
  <circle cx="7" cy="12" r="1" fill="srgba(0%,59.9847%,0%,1)"/>
  <circle cx="8" cy="12" r="1" fill="srgba(0%,59.9802%,0%,1)"/>
  <circle cx="9" cy="12" r="1" fill="srgba(0%,59.9817%,0%,1)"/>
  <circle cx="10" cy="12" r="1" fill="srgba(0%,59.9817%,0%,1)"/>
  <circle cx="11" cy="12" r="1" fill="srgba(0%,59.9817%,0%,1)"/>
  <circle cx="12" cy="12" r="1" fill="srgba(0%,59.9817%,0%,1)"/>
  <circle cx="13" cy="12" r="1" fill="srgba(0%,59.9817%,0%,1)"/>
  <circle cx="14" cy="12" r="1" fill="srgba(0%,59.9817%,0%,1)"/>
  <circle cx="15" cy="12" r="1" fill="srgba(0%,59.9817%,0%,1)"/>
  <circle cx="0" cy="13" r="1" fill="srgba(78.7366%,12.7581%,0%,1)"/>
  <circle cx="1" cy="13" r="1" fill="srgba(42.7985%,34.3175%,0%,1)"/>
  <circle cx="2" cy="13" r="1" fill="srgba(9.45449%,54.3771%,0%,1)"/>
  <circle cx="3" cy="13" r="1" fill="srgba(0%,60.7324%,0%,1)"/>
  <circle cx="4" cy="13" r="1" fill="srgba(0%,60.3861%,0%,1)"/>
  <circle cx="5" cy="13" r="1" fill="srgba(0,153,0,1)"/>
  <circle cx="6" cy="13" r="1" fill="srgba(0,153,0,1)"/>
  <circle cx="7" cy="13" r="1" fill="srgba(0,153,0,1)"/>
  <circle cx="8" cy="13" r="1" fill="srgba(0,153,0,1)"/>
  <circle cx="9" cy="13" r="1" fill="srgba(0,153,0,1)"/>
  <circle cx="10" cy="13" r="1" fill="srgba(0,153,0,1)"/>
  <circle cx="11" cy="13" r="1" fill="srgba(0,153,0,1)"/>
  <circle cx="12" cy="13" r="1" fill="srgba(0,153,0,1)"/>
  <circle cx="13" cy="13" r="1" fill="srgba(0,153,0,1)"/>
  <circle cx="14" cy="13" r="1" fill="srgba(0,153,0,1)"/>
  <circle cx="15" cy="13" r="1" fill="srgba(0,153,0,1)"/>
  <circle cx="0" cy="14" r="1" fill="srgba(7.41283%,55.6085%,0%,1)"/>
  <circle cx="1" cy="14" r="1" fill="srgba(0.175479%,60.5951%,0%,1)"/>
  <circle cx="2" cy="14" r="1" fill="srgba(0%,60.383%,0%,1)"/>
  <circle cx="3" cy="14" r="1" fill="srgba(0,153,0,1)"/>
  <circle cx="4" cy="14" r="1" fill="srgba(0,153,0,1)"/>
  <circle cx="5" cy="14" r="1" fill="srgba(0,153,0,1)"/>
  <circle cx="6" cy="14" r="1" fill="srgba(0,153,0,1)"/>
  <circle cx="7" cy="14" r="1" fill="srgba(0,153,0,1)"/>
  <circle cx="8" cy="14" r="1" fill="srgba(0,153,0,1)"/>
  <circle cx="9" cy="14" r="1" fill="srgba(0,153,0,1)"/>
  <circle cx="10" cy="14" r="1" fill="srgba(0,153,0,1)"/>
  <circle cx="11" cy="14" r="1" fill="srgba(0,153,0,1)"/>
  <circle cx="12" cy="14" r="1" fill="srgba(0,153,0,1)"/>
  <circle cx="13" cy="14" r="1" fill="srgba(0,153,0,1)"/>
  <circle cx="14" cy="14" r="1" fill="srgba(0,153,0,1)"/>
  <circle cx="15" cy="14" r="1" fill="srgba(0,153,0,1)"/>
  <circle cx="0" cy="15" r="1" fill="srgba(0%,60.325%,0%,1)"/>
  <circle cx="1" cy="15" r="1" fill="srgba(0%,60.0092%,0%,1)"/>
  <circle cx="2" cy="15" r="1" fill="srgba(0,153,0,1)"/>
  <circle cx="3" cy="15" r="1" fill="srgba(0,153,0,1)"/>
  <circle cx="4" cy="15" r="1" fill="srgba(0,153,0,1)"/>
  <circle cx="5" cy="15" r="1" fill="srgba(0,153,0,1)"/>
  <circle cx="6" cy="15" r="1" fill="srgba(0,153,0,1)"/>
  <circle cx="7" cy="15" r="1" fill="srgba(0,153,0,1)"/>
  <circle cx="8" cy="15" r="1" fill="srgba(0,153,0,1)"/>
  <circle cx="9" cy="15" r="1" fill="srgba(0,153,0,1)"/>
  <circle cx="10" cy="15" r="1" fill="srgba(0,153,0,1)"/>
  <circle cx="11" cy="15" r="1" fill="srgba(0,153,0,1)"/>
  <circle cx="12" cy="15" r="1" fill="srgba(0,153,0,1)"/>
  <circle cx="13" cy="15" r="1" fill="srgba(0,153,0,1)"/>
  <circle cx="14" cy="15" r="1" fill="srgba(0,153,0,1)"/>
  <circle cx="15" cy="15" r="1" fill="srgba(0,153,0,1)"/>
</svg>
