<?xml version="1.0" standalone="no"?>
<!DOCTYPE svg PUBLIC "-//W3C//DTD SVG 20010904//EN"
  "http://www.w3.org/TR/2001/REC-SVG-20010904/DTD/svg10.dtd">
<svg width="16" height="16">
  <circle cx="0" cy="0" r="1" fill="white"/>
  <circle cx="1" cy="0" r="1" fill="white"/>
  <circle cx="2" cy="0" r="1" fill="white"/>
  <circle cx="3" cy="0" r="1" fill="white"/>
  <circle cx="4" cy="0" r="1" fill="white"/>
  <circle cx="5" cy="0" r="1" fill="white"/>
  <circle cx="6" cy="0" r="1" fill="white"/>
  <circle cx="7" cy="0" r="1" fill="white"/>
  <circle cx="8" cy="0" r="1" fill="white"/>
  <circle cx="9" cy="0" r="1" fill="white"/>
  <circle cx="10" cy="0" r="1" fill="white"/>
  <circle cx="11" cy="0" r="1" fill="white"/>
  <circle cx="12" cy="0" r="1" fill="white"/>
  <circle cx="13" cy="0" r="1" fill="white"/>
  <circle cx="14" cy="0" r="1" fill="white"/>
  <circle cx="15" cy="0" r="1" fill="white"/>
  <circle cx="0" cy="1" r="1" fill="white"/>
  <circle cx="1" cy="1" r="1" fill="white"/>
  <circle cx="2" cy="1" r="1" fill="white"/>
  <circle cx="3" cy="1" r="1" fill="white"/>
  <circle cx="4" cy="1" r="1" fill="white"/>
  <circle cx="5" cy="1" r="1" fill="white"/>
  <circle cx="6" cy="1" r="1" fill="white"/>
  <circle cx="7" cy="1" r="1" fill="white"/>
  <circle cx="8" cy="1" r="1" fill="white"/>
  <circle cx="9" cy="1" r="1" fill="white"/>
  <circle cx="10" cy="1" r="1" fill="white"/>
  <circle cx="11" cy="1" r="1" fill="white"/>
  <circle cx="12" cy="1" r="1" fill="white"/>
  <circle cx="13" cy="1" r="1" fill="white"/>
  <circle cx="14" cy="1" r="1" fill="white"/>
  <circle cx="15" cy="1" r="1" fill="white"/>
  <circle cx="0" cy="2" r="1" fill="white"/>
  <circle cx="1" cy="2" r="1" fill="white"/>
  <circle cx="2" cy="2" r="1" fill="white"/>
  <circle cx="3" cy="2" r="1" fill="white"/>
  <circle cx="4" cy="2" r="1" fill="white"/>
  <circle cx="5" cy="2" r="1" fill="white"/>
  <circle cx="6" cy="2" r="1" fill="srgba(99.5468%,97.3678%,97.3678%,1)"/>
  <circle cx="7" cy="2" r="1" fill="srgba(98.4573%,91.0567%,91.0567%,1)"/>
  <circle cx="8" cy="2" r="1" fill="srgba(98.4573%,91.0613%,91.0613%,1)"/>
  <circle cx="9" cy="2" r="1" fill="srgba(99.5468%,97.3754%,97.3754%,1)"/>
  <circle cx="10" cy="2" r="1" fill="white"/>
  <circle cx="11" cy="2" r="1" fill="white"/>
  <circle cx="12" cy="2" r="1" fill="white"/>
  <circle cx="13" cy="2" r="1" fill="white"/>
  <circle cx="14" cy="2" r="1" fill="white"/>
  <circle cx="15" cy="2" r="1" fill="white"/>
  <circle cx="0" cy="3" r="1" fill="white"/>
  <circle cx="1" cy="3" r="1" fill="white"/>
  <circle cx="2" cy="3" r="1" fill="white"/>
  <circle cx="3" cy="3" r="1" fill="white"/>
  <circle cx="4" cy="3" r="1" fill="srgba(99.53%,97.2793%,97.2793%,1)"/>
  <circle cx="5" cy="3" r="1" fill="srgba(94.3618%,67.3213%,67.3213%,1)"/>
  <circle cx="6" cy="3" r="1" fill="srgba(88.0507%,30.7454%,30.7454%,1)"/>
  <circle cx="7" cy="3" r="1" fill="srgba(85.4414%,15.6252%,15.6252%,1)"/>
  <circle cx="8" cy="3" r="1" fill="srgba(85.4429%,15.6313%,15.6313%,1)"/>
  <circle cx="9" cy="3" r="1" fill="srgba(88.0568%,30.7774%,30.7774%,1)"/>
  <circle cx="10" cy="3" r="1" fill="srgba(94.3709%,67.3747%,67.3747%,1)"/>
  <circle cx="11" cy="3" r="1" fill="srgba(99.5331%,97.2961%,97.2961%,1)"/>
  <circle cx="12" cy="3" r="1" fill="white"/>
  <circle cx="13" cy="3" r="1" fill="white"/>
  <circle cx="14" cy="3" r="1" fill="white"/>
  <circle cx="15" cy="3" r="1" fill="white"/>
  <circle cx="0" cy="4" r="1" fill="white"/>
  <circle cx="1" cy="4" r="1" fill="white"/>
  <circle cx="2" cy="4" r="1" fill="white"/>
  <circle cx="3" cy="4" r="1" fill="srgba(99.5682%,97.499%,97.499%,1)"/>
  <circle cx="4" cy="4" r="1" fill="srgba(91.3161%,49.6468%,49.6468%,1)"/>
  <circle cx="5" cy="4" r="1" fill="srgba(83.3463%,3.9765%,3.9765%,1)"/>
  <circle cx="6" cy="4" r="1" fill="srgba(82.4475%,0%,0%,1)"/>
  <circle cx="7" cy="4" r="1" fill="srgba(82.5696%,0%,0%,1)"/>
  <circle cx="8" cy="4" r="1" fill="srgba(82.5696%,0%,0%,1)"/>
  <circle cx="9" cy="4" r="1" fill="srgba(82.446%,0%,0%,1)"/>
  <circle cx="10" cy="4" r="1" fill="srgba(83.3494%,3.99939%,3.99939%,1)"/>
  <circle cx="11" cy="4" r="1" fill="srgba(91.3313%,49.7322%,49.7322%,1)"/>
  <circle cx="12" cy="4" r="1" fill="srgba(99.5727%,97.5235%,97.5235%,1)"/>
  <circle cx="13" cy="4" r="1" fill="white"/>
  <circle cx="14" cy="4" r="1" fill="white"/>
  <circle cx="15" cy="4" r="1" fill="white"/>
  <circle cx="0" cy="5" r="1" fill="white"/>
  <circle cx="1" cy="5" r="1" fill="white"/>
  <circle cx="2" cy="5" r="1" fill="white"/>
  <circle cx="3" cy="5" r="1" fill="srgba(94.3343%,67.1656%,67.1656%,1)"/>
  <circle cx="4" cy="5" r="1" fill="srgba(83.3478%,4.26947%,4.26947%,1)"/>
  <circle cx="5" cy="5" r="1" fill="srgba(82.6383%,0%,0%,1)"/>
  <circle cx="6" cy="5" r="1" fill="srgba(82.7481%,0%,0%,1)"/>
  <circle cx="7" cy="5" r="1" fill="srgba(211,0,0,1)"/>
  <circle cx="8" cy="5" r="1" fill="srgba(211,0,0,1)"/>
  <circle cx="9" cy="5" r="1" fill="srgba(82.7481%,0%,0%,1)"/>
  <circle cx="10" cy="5" r="1" fill="srgba(82.6383%,0%,0%,1)"/>
  <circle cx="11" cy="5" r="1" fill="srgba(83.3539%,4.30762%,4.30762%,1)"/>
  <circle cx="12" cy="5" r="1" fill="srgba(94.3511%,67.2709%,67.2709%,1)"/>
  <circle cx="13" cy="5" r="1" fill="white"/>
  <circle cx="14" cy="5" r="1" fill="white"/>
  <circle cx="15" cy="5" r="1" fill="white"/>
  <circle cx="0" cy="6" r="1" fill="white"/>
  <circle cx="1" cy="6" r="1" fill="white"/>
  <circle cx="2" cy="6" r="1" fill="srgba(99.5865%,97.5891%,97.5891%,1)"/>
  <circle cx="3" cy="6" r="1" fill="srgba(88.0522%,31.1757%,31.1757%,1)"/>
  <circle cx="4" cy="6" r="1" fill="srgba(82.4475%,0%,0%,1)"/>
  <circle cx="5" cy="6" r="1" fill="srgba(82.7481%,0%,0%,1)"/>
  <circle cx="6" cy="6" r="1" fill="srgba(211,0,0,1)"/>
  <circle cx="7" cy="6" r="1" fill="srgba(211,0,0,1)"/>
  <circle cx="8" cy="6" r="1" fill="srgba(211,0,0,1)"/>
  <circle cx="9" cy="6" r="1" fill="srgba(211,0,0,1)"/>
  <circle cx="10" cy="6" r="1" fill="srgba(82.7481%,0%,0%,1)"/>
  <circle cx="11" cy="6" r="1" fill="srgba(82.446%,0%,0%,1)"/>
  <circle cx="12" cy="6" r="1" fill="srgba(88.0705%,31.2795%,31.2795%,1)"/>
  <circle cx="13" cy="6" r="1" fill="srgba(99.5926%,97.6211%,97.6211%,1)"/>
  <circle cx="14" cy="6" r="1" fill="white"/>
  <circle cx="15" cy="6" r="1" fill="white"/>
  <circle cx="0" cy="7" r="1" fill="white"/>
  <circle cx="1" cy="7" r="1" fill="white"/>
  <circle cx="2" cy="7" r="1" fill="srgba(98.4543%,91.0994%,91.0994%,1)"/>
  <circle cx="3" cy="7" r="1" fill="srgba(85.4429%,15.9258%,15.9258%,1)"/>
  <circle cx="4" cy="7" r="1" fill="srgba(82.5696%,0%,0%,1)"/>
  <circle cx="5" cy="7" r="1" fill="srgba(211,0,0,1)"/>
  <circle cx="6" cy="7" r="1" fill="srgba(211,0,0,1)"/>
  <circle cx="7" cy="7" r="1" fill="srgba(211,0,0,1)"/>
  <circle cx="8" cy="7" r="1" fill="srgba(211,0,0,1)"/>
  <circle cx="9" cy="7" r="1" fill="srgba(211,0,0,1)"/>
  <circle cx="10" cy="7" r="1" fill="srgba(211,0,0,1)"/>
  <circle cx="11" cy="7" r="1" fill="srgba(82.5696%,0%,0%,1)"/>
  <circle cx="12" cy="7" r="1" fill="srgba(85.4536%,15.9945%,15.9945%,1)"/>
  <circle cx="13" cy="7" r="1" fill="srgba(98.4634%,91.1498%,91.1498%,1)"/>
  <circle cx="14" cy="7" r="1" fill="white"/>
  <circle cx="15" cy="7" r="1" fill="white"/>
  <circle cx="0" cy="8" r="1" fill="white"/>
  <circle cx="1" cy="8" r="1" fill="white"/>
  <circle cx="2" cy="8" r="1" fill="srgba(98.4558%,91.1101%,91.1101%,1)"/>
  <circle cx="3" cy="8" r="1" fill="srgba(85.4444%,15.9411%,15.9411%,1)"/>
  <circle cx="4" cy="8" r="1" fill="srgba(82.5696%,0%,0%,1)"/>
  <circle cx="5" cy="8" r="1" fill="srgba(211,0,0,1)"/>
  <circle cx="6" cy="8" r="1" fill="srgba(211,0,0,1)"/>
  <circle cx="7" cy="8" r="1" fill="srgba(211,0,0,1)"/>
  <circle cx="8" cy="8" r="1" fill="srgba(211,0,0,1)"/>
  <circle cx="9" cy="8" r="1" fill="srgba(211,0,0,1)"/>
  <circle cx="10" cy="8" r="1" fill="srgba(211,0,0,1)"/>
  <circle cx="11" cy="8" r="1" fill="srgba(82.5681%,0%,0%,1)"/>
  <circle cx="12" cy="8" r="1" fill="srgba(85.4566%,16.0098%,16.0098%,1)"/>
  <circle cx="13" cy="8" r="1" fill="srgba(98.4649%,91.162%,91.162%,1)"/>
  <circle cx="14" cy="8" r="1" fill="white"/>
  <circle cx="15" cy="8" r="1" fill="white"/>
  <circle cx="0" cy="9" r="1" fill="white"/>
  <circle cx="1" cy="9" r="1" fill="white"/>
  <circle cx="2" cy="9" r="1" fill="srgba(99.5911%,97.6104%,97.6104%,1)"/>
  <circle cx="3" cy="9" r="1" fill="srgba(88.0674%,31.2612%,31.2612%,1)"/>
  <circle cx="4" cy="9" r="1" fill="srgba(82.4475%,0%,0%,1)"/>
  <circle cx="5" cy="9" r="1" fill="srgba(82.7481%,0%,0%,1)"/>
  <circle cx="6" cy="9" r="1" fill="srgba(211,0,0,1)"/>
  <circle cx="7" cy="9" r="1" fill="srgba(211,0,0,1)"/>
  <circle cx="8" cy="9" r="1" fill="srgba(211,0,0,1)"/>
  <circle cx="9" cy="9" r="1" fill="srgba(211,0,0,1)"/>
  <circle cx="10" cy="9" r="1" fill="srgba(82.7481%,0%,0%,1)"/>
  <circle cx="11" cy="9" r="1" fill="srgba(82.446%,0%,0%,1)"/>
  <circle cx="12" cy="9" r="1" fill="srgba(88.0858%,31.3619%,31.3619%,1)"/>
  <circle cx="13" cy="9" r="1" fill="srgba(99.5956%,97.641%,97.641%,1)"/>
  <circle cx="14" cy="9" r="1" fill="white"/>
  <circle cx="15" cy="9" r="1" fill="white"/>
  <circle cx="0" cy="10" r="1" fill="white"/>
  <circle cx="1" cy="10" r="1" fill="white"/>
  <circle cx="2" cy="10" r="1" fill="white"/>
  <circle cx="3" cy="10" r="1" fill="srgba(94.3618%,67.3274%,67.3274%,1)"/>
  <circle cx="4" cy="10" r="1" fill="srgba(83.3585%,4.33051%,4.33051%,1)"/>
  <circle cx="5" cy="10" r="1" fill="srgba(82.6368%,0%,0%,1)"/>
  <circle cx="6" cy="10" r="1" fill="srgba(82.7481%,0%,0%,1)"/>
  <circle cx="7" cy="10" r="1" fill="srgba(211,0,0,1)"/>
  <circle cx="8" cy="10" r="1" fill="srgba(211,0,0,1)"/>
  <circle cx="9" cy="10" r="1" fill="srgba(82.7481%,0%,0%,1)"/>
  <circle cx="10" cy="10" r="1" fill="srgba(82.6368%,0%,0%,1)"/>
  <circle cx="11" cy="10" r="1" fill="srgba(83.3646%,4.37018%,4.37018%,1)"/>
  <circle cx="12" cy="10" r="1" fill="srgba(94.3801%,67.4296%,67.4296%,1)"/>
  <circle cx="13" cy="10" r="1" fill="white"/>
  <circle cx="14" cy="10" r="1" fill="white"/>
  <circle cx="15" cy="10" r="1" fill="white"/>
  <circle cx="0" cy="11" r="1" fill="white"/>
  <circle cx="1" cy="11" r="1" fill="white"/>
  <circle cx="2" cy="11" r="1" fill="white"/>
  <circle cx="3" cy="11" r="1" fill="srgba(99.5743%,97.5372%,97.5372%,1)"/>
  <circle cx="4" cy="11" r="1" fill="srgba(91.3451%,49.8207%,49.8207%,1)"/>
  <circle cx="5" cy="11" r="1" fill="srgba(83.36%,4.04974%,4.04974%,1)"/>
  <circle cx="6" cy="11" r="1" fill="srgba(82.446%,0%,0%,1)"/>
  <circle cx="7" cy="11" r="1" fill="srgba(82.5696%,0%,0%,1)"/>
  <circle cx="8" cy="11" r="1" fill="srgba(82.5696%,0%,0%,1)"/>
  <circle cx="9" cy="11" r="1" fill="srgba(82.446%,0%,0%,1)"/>
  <circle cx="10" cy="11" r="1" fill="srgba(83.3646%,4.07263%,4.07263%,1)"/>
  <circle cx="11" cy="11" r="1" fill="srgba(91.3619%,49.9092%,49.9092%,1)"/>
  <circle cx="12" cy="11" r="1" fill="srgba(99.5789%,97.5616%,97.5616%,1)"/>
  <circle cx="13" cy="11" r="1" fill="white"/>
  <circle cx="14" cy="11" r="1" fill="white"/>
  <circle cx="15" cy="11" r="1" fill="white"/>
  <circle cx="0" cy="12" r="1" fill="white"/>
  <circle cx="1" cy="12" r="1" fill="white"/>
  <circle cx="2" cy="12" r="1" fill="white"/>
  <circle cx="3" cy="12" r="1" fill="white"/>
  <circle cx="4" cy="12" r="1" fill="srgba(99.5377%,97.322%,97.322%,1)"/>
  <circle cx="5" cy="12" r="1" fill="srgba(94.4091%,67.5883%,67.5883%,1)"/>
  <circle cx="6" cy="12" r="1" fill="srgba(88.0919%,30.9819%,30.9819%,1)"/>
  <circle cx="7" cy="12" r="1" fill="srgba(85.4536%,15.6954%,15.6954%,1)"/>
  <circle cx="8" cy="12" r="1" fill="srgba(85.4536%,15.7015%,15.7015%,1)"/>
  <circle cx="9" cy="12" r="1" fill="srgba(88.0964%,31.0094%,31.0094%,1)"/>
  <circle cx="10" cy="12" r="1" fill="srgba(94.4167%,67.6417%,67.6417%,1)"/>
  <circle cx="11" cy="12" r="1" fill="srgba(99.5407%,97.3388%,97.3388%,1)"/>
  <circle cx="12" cy="12" r="1" fill="white"/>
  <circle cx="13" cy="12" r="1" fill="white"/>
  <circle cx="14" cy="12" r="1" fill="white"/>
  <circle cx="15" cy="12" r="1" fill="white"/>
  <circle cx="0" cy="13" r="1" fill="white"/>
  <circle cx="1" cy="13" r="1" fill="white"/>
  <circle cx="2" cy="13" r="1" fill="white"/>
  <circle cx="3" cy="13" r="1" fill="white"/>
  <circle cx="4" cy="13" r="1" fill="white"/>
  <circle cx="5" cy="13" r="1" fill="white"/>
  <circle cx="6" cy="13" r="1" fill="srgba(99.556%,97.4243%,97.4243%,1)"/>
  <circle cx="7" cy="13" r="1" fill="srgba(98.4649%,91.104%,91.104%,1)"/>
  <circle cx="8" cy="13" r="1" fill="srgba(98.4649%,91.1086%,91.1086%,1)"/>
  <circle cx="9" cy="13" r="1" fill="srgba(99.556%,97.4304%,97.4304%,1)"/>
  <circle cx="10" cy="13" r="1" fill="white"/>
  <circle cx="11" cy="13" r="1" fill="white"/>
  <circle cx="12" cy="13" r="1" fill="white"/>
  <circle cx="13" cy="13" r="1" fill="white"/>
  <circle cx="14" cy="13" r="1" fill="white"/>
  <circle cx="15" cy="13" r="1" fill="white"/>
  <circle cx="0" cy="14" r="1" fill="white"/>
  <circle cx="1" cy="14" r="1" fill="white"/>
  <circle cx="2" cy="14" r="1" fill="white"/>
  <circle cx="3" cy="14" r="1" fill="white"/>
  <circle cx="4" cy="14" r="1" fill="white"/>
  <circle cx="5" cy="14" r="1" fill="white"/>
  <circle cx="6" cy="14" r="1" fill="white"/>
  <circle cx="7" cy="14" r="1" fill="white"/>
  <circle cx="8" cy="14" r="1" fill="white"/>
  <circle cx="9" cy="14" r="1" fill="white"/>
  <circle cx="10" cy="14" r="1" fill="white"/>
  <circle cx="11" cy="14" r="1" fill="white"/>
  <circle cx="12" cy="14" r="1" fill="white"/>
  <circle cx="13" cy="14" r="1" fill="white"/>
  <circle cx="14" cy="14" r="1" fill="white"/>
  <circle cx="15" cy="14" r="1" fill="white"/>
  <circle cx="0" cy="15" r="1" fill="white"/>
  <circle cx="1" cy="15" r="1" fill="white"/>
  <circle cx="2" cy="15" r="1" fill="white"/>
  <circle cx="3" cy="15" r="1" fill="white"/>
  <circle cx="4" cy="15" r="1" fill="white"/>
  <circle cx="5" cy="15" r="1" fill="white"/>
  <circle cx="6" cy="15" r="1" fill="white"/>
  <circle cx="7" cy="15" r="1" fill="white"/>
  <circle cx="8" cy="15" r="1" fill="white"/>
  <circle cx="9" cy="15" r="1" fill="white"/>
  <circle cx="10" cy="15" r="1" fill="white"/>
  <circle cx="11" cy="15" r="1" fill="white"/>
  <circle cx="12" cy="15" r="1" fill="white"/>
  <circle cx="13" cy="15" r="1" fill="white"/>
  <circle cx="14" cy="15" r="1" fill="white"/>
  <circle cx="15" cy="15" r="1" fill="white"/>
</svg>
