<?xml version="1.0" standalone="no"?>
<!DOCTYPE svg PUBLIC "-//W3C//DTD SVG 20010904//EN"
  "http://www.w3.org/TR/2001/REC-SVG-20010904/DTD/svg10.dtd">
<svg width="16" height="16">
  <circle cx="0" cy="0" r="1" fill="black"/>
  <circle cx="1" cy="0" r="1" fill="black"/>
  <circle cx="2" cy="0" r="1" fill="black"/>
  <circle cx="3" cy="0" r="1" fill="black"/>
  <circle cx="4" cy="0" r="1" fill="black"/>
  <circle cx="5" cy="0" r="1" fill="black"/>
  <circle cx="6" cy="0" r="1" fill="black"/>
  <circle cx="7" cy="0" r="1" fill="black"/>
  <circle cx="8" cy="0" r="1" fill="black"/>
  <circle cx="9" cy="0" r="1" fill="black"/>
  <circle cx="10" cy="0" r="1" fill="black"/>
  <circle cx="11" cy="0" r="1" fill="black"/>
  <circle cx="12" cy="0" r="1" fill="black"/>
  <circle cx="13" cy="0" r="1" fill="black"/>
  <circle cx="14" cy="0" r="1" fill="black"/>
  <circle cx="15" cy="0" r="1" fill="black"/>
  <circle cx="0" cy="1" r="1" fill="black"/>
  <circle cx="1" cy="1" r="1" fill="black"/>
  <circle cx="2" cy="1" r="1" fill="black"/>
  <circle cx="3" cy="1" r="1" fill="black"/>
  <circle cx="4" cy="1" r="1" fill="srgba(0.0381476%,0.0381476%,0.0381476%,1)"/>
  <circle cx="5" cy="1" r="1" fill="srgba(0.0167849%,0.0167849%,0.0167849%,1)"/>
  <circle cx="6" cy="1" r="1" fill="black"/>
  <circle cx="7" cy="1" r="1" fill="black"/>
  <circle cx="8" cy="1" r="1" fill="black"/>
  <circle cx="9" cy="1" r="1" fill="black"/>
  <circle cx="10" cy="1" r="1" fill="srgba(0.0183108%,0.0183108%,0.0183108%,1)"/>
  <circle cx="11" cy="1" r="1" fill="srgba(0.0381476%,0.0381476%,0.0381476%,1)"/>
  <circle cx="12" cy="1" r="1" fill="black"/>
  <circle cx="13" cy="1" r="1" fill="black"/>
  <circle cx="14" cy="1" r="1" fill="black"/>
  <circle cx="15" cy="1" r="1" fill="black"/>
  <circle cx="0" cy="2" r="1" fill="black"/>
  <circle cx="1" cy="2" r="1" fill="black"/>
  <circle cx="2" cy="2" r="1" fill="black"/>
  <circle cx="3" cy="2" r="1" fill="black"/>
  <circle cx="4" cy="2" r="1" fill="srgba(7.50896%,7.50896%,7.50896%,1)"/>
  <circle cx="5" cy="2" r="1" fill="srgba(10.2129%,10.2129%,10.2129%,1)"/>
  <circle cx="6" cy="2" r="1" fill="black"/>
  <circle cx="7" cy="2" r="1" fill="srgba(0.601205%,0.0976577%,0.0976577%,1)"/>
  <circle cx="8" cy="2" r="1" fill="srgba(0.590524%,0.0976577%,0.0976577%,1)"/>
  <circle cx="9" cy="2" r="1" fill="black"/>
  <circle cx="10" cy="2" r="1" fill="srgba(10.3685%,10.3685%,10.3685%,1)"/>
  <circle cx="11" cy="2" r="1" fill="srgba(7.34417%,7.34417%,7.34417%,1)"/>
  <circle cx="12" cy="2" r="1" fill="black"/>
  <circle cx="13" cy="2" r="1" fill="black"/>
  <circle cx="14" cy="2" r="1" fill="black"/>
  <circle cx="15" cy="2" r="1" fill="black"/>
  <circle cx="0" cy="3" r="1" fill="black"/>
  <circle cx="1" cy="3" r="1" fill="black"/>
  <circle cx="2" cy="3" r="1" fill="black"/>
  <circle cx="3" cy="3" r="1" fill="black"/>
  <circle cx="4" cy="3" r="1" fill="srgba(8.42145%,8.42145%,8.42145%,1)"/>
  <circle cx="5" cy="3" r="1" fill="srgba(44.126%,44.2908%,44.2908%,1)"/>
  <circle cx="6" cy="3" r="1" fill="srgba(7.63256%,4.90425%,4.90425%,1)"/>
  <circle cx="7" cy="3" r="1" fill="srgba(38.5855%,12.2362%,12.2362%,1)"/>
  <circle cx="8" cy="3" r="1" fill="srgba(38.1552%,12.0058%,12.0058%,1)"/>
  <circle cx="9" cy="3" r="1" fill="srgba(7.77142%,5.17586%,5.17586%,1)"/>
  <circle cx="10" cy="3" r="1" fill="srgba(44.2039%,44.361%,44.361%,1)"/>
  <circle cx="11" cy="3" r="1" fill="srgba(8.07813%,8.07813%,8.07813%,1)"/>
  <circle cx="12" cy="3" r="1" fill="black"/>
  <circle cx="13" cy="3" r="1" fill="black"/>
  <circle cx="14" cy="3" r="1" fill="black"/>
  <circle cx="15" cy="3" r="1" fill="black"/>
  <circle cx="0" cy="4" r="1" fill="srgba(25.3529%,26.6133%,26.6133%,1)"/>
  <circle cx="1" cy="4" r="1" fill="srgba(25.3529%,26.6133%,26.6133%,1)"/>
  <circle cx="2" cy="4" r="1" fill="srgba(25.3529%,26.6133%,26.6133%,1)"/>
  <circle cx="3" cy="4" r="1" fill="srgba(25.3468%,26.6072%,26.6072%,1)"/>
  <circle cx="4" cy="4" r="1" fill="srgba(24.9805%,26.2623%,26.2623%,1)"/>
  <circle cx="5" cy="4" r="1" fill="srgba(53.1121%,54.8547%,54.8547%,1)"/>
  <circle cx="6" cy="4" r="1" fill="srgba(49.9031%,22.7192%,22.7192%,1)"/>
  <circle cx="7" cy="4" r="1" fill="srgba(79.3942%,33.1853%,33.1853%,1)"/>
  <circle cx="8" cy="4" r="1" fill="srgba(79.0616%,32.6604%,32.6604%,1)"/>
  <circle cx="9" cy="4" r="1" fill="srgba(49.9351%,23.2639%,23.2639%,1)"/>
  <circle cx="10" cy="4" r="1" fill="srgba(52.8298%,54.6014%,54.6014%,1)"/>
  <circle cx="11" cy="4" r="1" fill="srgba(24.921%,26.2013%,26.2013%,1)"/>
  <circle cx="12" cy="4" r="1" fill="srgba(25.3483%,26.6087%,26.6087%,1)"/>
  <circle cx="13" cy="4" r="1" fill="srgba(25.3529%,26.6133%,26.6133%,1)"/>
  <circle cx="14" cy="4" r="1" fill="srgba(25.3529%,26.6133%,26.6133%,1)"/>
  <circle cx="15" cy="4" r="1" fill="srgba(25.3529%,26.6133%,26.6133%,1)"/>
  <circle cx="0" cy="5" r="1" fill="srgba(85.3178%,54.9889%,54.9889%,1)"/>
  <circle cx="1" cy="5" r="1" fill="srgba(85.3178%,54.9889%,54.9889%,1)"/>
  <circle cx="2" cy="5" r="1" fill="srgba(85.3178%,54.9889%,54.9889%,1)"/>
  <circle cx="3" cy="5" r="1" fill="srgba(85.3193%,54.9905%,54.9905%,1)"/>
  <circle cx="4" cy="5" r="1" fill="srgba(85.4719%,55.0515%,55.0515%,1)"/>
  <circle cx="5" cy="5" r="1" fill="srgba(81.8769%,52.9473%,52.9473%,1)"/>
  <circle cx="6" cy="5" r="1" fill="srgba(72.0912%,14.6502%,14.6502%,1)"/>
  <circle cx="7" cy="5" r="1" fill="srgba(84.0391%,38.6648%,38.6648%,1)"/>
  <circle cx="8" cy="5" r="1" fill="srgba(83.8926%,38.1125%,38.1125%,1)"/>
  <circle cx="9" cy="5" r="1" fill="srgba(72.0882%,14.9935%,14.9935%,1)"/>
  <circle cx="10" cy="5" r="1" fill="srgba(81.976%,53.0846%,53.0846%,1)"/>
  <circle cx="11" cy="5" r="1" fill="srgba(85.4673%,55.0469%,55.0469%,1)"/>
  <circle cx="12" cy="5" r="1" fill="srgba(85.3193%,54.9905%,54.9905%,1)"/>
  <circle cx="13" cy="5" r="1" fill="srgba(85.3178%,54.9889%,54.9889%,1)"/>
  <circle cx="14" cy="5" r="1" fill="srgba(85.3178%,54.9889%,54.9889%,1)"/>
  <circle cx="15" cy="5" r="1" fill="srgba(85.3178%,54.9889%,54.9889%,1)"/>
  <circle cx="0" cy="6" r="1" fill="srgba(73.4066%,0%,0%,1)"/>
  <circle cx="1" cy="6" r="1" fill="srgba(73.4066%,0%,0%,1)"/>
  <circle cx="2" cy="6" r="1" fill="srgba(73.4066%,0%,0%,1)"/>
  <circle cx="3" cy="6" r="1" fill="srgba(73.4066%,0%,0%,1)"/>
  <circle cx="4" cy="6" r="1" fill="srgba(74.3786%,0%,0%,1)"/>
  <circle cx="5" cy="6" r="1" fill="srgba(55.9045%,0%,0%,1)"/>
  <circle cx="6" cy="6" r="1" fill="srgba(47.9652%,0%,0%,1)"/>
  <circle cx="7" cy="6" r="1" fill="srgba(81.5869%,27.4891%,27.4891%,1)"/>
  <circle cx="8" cy="6" r="1" fill="srgba(81.4466%,27.0573%,27.0573%,1)"/>
  <circle cx="9" cy="6" r="1" fill="srgba(47.6051%,0%,0%,1)"/>
  <circle cx="10" cy="6" r="1" fill="srgba(56.2997%,0%,0%,1)"/>
  <circle cx="11" cy="6" r="1" fill="srgba(74.3633%,0%,0%,1)"/>
  <circle cx="12" cy="6" r="1" fill="srgba(73.4066%,0%,0%,1)"/>
  <circle cx="13" cy="6" r="1" fill="srgba(73.4066%,0%,0%,1)"/>
  <circle cx="14" cy="6" r="1" fill="srgba(73.4066%,0%,0%,1)"/>
  <circle cx="15" cy="6" r="1" fill="srgba(73.4066%,0%,0%,1)"/>
  <circle cx="0" cy="7" r="1" fill="srgba(73.3303%,0%,0%,1)"/>
  <circle cx="1" cy="7" r="1" fill="srgba(73.3303%,0%,0%,1)"/>
  <circle cx="2" cy="7" r="1" fill="srgba(73.3303%,0%,0%,1)"/>
  <circle cx="3" cy="7" r="1" fill="srgba(73.3303%,0%,0%,1)"/>
  <circle cx="4" cy="7" r="1" fill="srgba(74.5953%,0%,0%,1)"/>
  <circle cx="5" cy="7" r="1" fill="srgba(44.1505%,0%,0%,1)"/>
  <circle cx="6" cy="7" r="1" fill="srgba(32.7443%,0%,0%,1)"/>
  <circle cx="7" cy="7" r="1" fill="srgba(80.6561%,25.034%,25.034%,1)"/>
  <circle cx="8" cy="7" r="1" fill="srgba(80.4685%,24.5838%,24.5838%,1)"/>
  <circle cx="9" cy="7" r="1" fill="srgba(32.2438%,0%,0%,1)"/>
  <circle cx="10" cy="7" r="1" fill="srgba(44.7257%,0%,0%,1)"/>
  <circle cx="11" cy="7" r="1" fill="srgba(74.5968%,0%,0%,1)"/>
  <circle cx="12" cy="7" r="1" fill="srgba(73.3303%,0%,0%,1)"/>
  <circle cx="13" cy="7" r="1" fill="srgba(73.3303%,0%,0%,1)"/>
  <circle cx="14" cy="7" r="1" fill="srgba(73.3303%,0%,0%,1)"/>
  <circle cx="15" cy="7" r="1" fill="srgba(73.3303%,0%,0%,1)"/>
  <circle cx="0" cy="8" r="1" fill="srgba(73.3303%,0%,0%,1)"/>
  <circle cx="1" cy="8" r="1" fill="srgba(73.3303%,0%,0%,1)"/>
  <circle cx="2" cy="8" r="1" fill="srgba(73.3303%,0%,0%,1)"/>
  <circle cx="3" cy="8" r="1" fill="srgba(73.3303%,0%,0%,1)"/>
  <circle cx="4" cy="8" r="1" fill="srgba(74.5953%,0%,0%,1)"/>
  <circle cx="5" cy="8" r="1" fill="srgba(44.1779%,0%,0%,1)"/>
  <circle cx="6" cy="8" r="1" fill="srgba(32.7764%,0%,0%,1)"/>
  <circle cx="7" cy="8" r="1" fill="srgba(80.6577%,25.0355%,25.0355%,1)"/>
  <circle cx="8" cy="8" r="1" fill="srgba(80.4715%,24.5838%,24.5838%,1)"/>
  <circle cx="9" cy="8" r="1" fill="srgba(32.2744%,0%,0%,1)"/>
  <circle cx="10" cy="8" r="1" fill="srgba(44.7501%,0%,0%,1)"/>
  <circle cx="11" cy="8" r="1" fill="srgba(74.5953%,0%,0%,1)"/>
  <circle cx="12" cy="8" r="1" fill="srgba(73.3303%,0%,0%,1)"/>
  <circle cx="13" cy="8" r="1" fill="srgba(73.3303%,0%,0%,1)"/>
  <circle cx="14" cy="8" r="1" fill="srgba(73.3303%,0%,0%,1)"/>
  <circle cx="15" cy="8" r="1" fill="srgba(73.3303%,0%,0%,1)"/>
  <circle cx="0" cy="9" r="1" fill="srgba(73.4142%,0%,0%,1)"/>
  <circle cx="1" cy="9" r="1" fill="srgba(73.4142%,0%,0%,1)"/>
  <circle cx="2" cy="9" r="1" fill="srgba(73.4142%,0%,0%,1)"/>
  <circle cx="3" cy="9" r="1" fill="srgba(73.4142%,0%,0%,1)"/>
  <circle cx="4" cy="9" r="1" fill="srgba(74.3832%,0%,0%,1)"/>
  <circle cx="5" cy="9" r="1" fill="srgba(55.9915%,0%,0%,1)"/>
  <circle cx="6" cy="9" r="1" fill="srgba(48.0705%,0%,0%,1)"/>
  <circle cx="7" cy="9" r="1" fill="srgba(81.5961%,27.5303%,27.5303%,1)"/>
  <circle cx="8" cy="9" r="1" fill="srgba(81.4572%,27.1%,27.1%,1)"/>
  <circle cx="9" cy="9" r="1" fill="srgba(47.7104%,0%,0%,1)"/>
  <circle cx="10" cy="9" r="1" fill="srgba(56.3836%,0%,0%,1)"/>
  <circle cx="11" cy="9" r="1" fill="srgba(74.3679%,0%,0%,1)"/>
  <circle cx="12" cy="9" r="1" fill="srgba(73.4142%,0%,0%,1)"/>
  <circle cx="13" cy="9" r="1" fill="srgba(73.4142%,0%,0%,1)"/>
  <circle cx="14" cy="9" r="1" fill="srgba(73.4142%,0%,0%,1)"/>
  <circle cx="15" cy="9" r="1" fill="srgba(73.4142%,0%,0%,1)"/>
  <circle cx="0" cy="10" r="1" fill="srgba(85.3696%,56.6323%,55.1705%,1)"/>
  <circle cx="1" cy="10" r="1" fill="srgba(85.3696%,56.6323%,55.1705%,1)"/>
  <circle cx="2" cy="10" r="1" fill="srgba(85.3696%,56.6323%,55.1705%,1)"/>
  <circle cx="3" cy="10" r="1" fill="srgba(85.3696%,56.6323%,55.1705%,1)"/>
  <circle cx="4" cy="10" r="1" fill="srgba(85.5634%,56.7575%,55.2743%,1)"/>
  <circle cx="5" cy="10" r="1" fill="srgba(82.1012%,54.6105%,53.2708%,1)"/>
  <circle cx="6" cy="10" r="1" fill="srgba(72.0394%,14.9828%,14.6242%,1)"/>
  <circle cx="7" cy="10" r="1" fill="srgba(84.0436%,38.677%,38.674%,1)"/>
  <circle cx="8" cy="10" r="1" fill="srgba(83.8987%,38.1277%,38.1231%,1)"/>
  <circle cx="9" cy="10" r="1" fill="srgba(72.0317%,15.3246%,14.9569%,1)"/>
  <circle cx="10" cy="10" r="1" fill="srgba(82.2004%,54.7555%,53.4081%,1)"/>
  <circle cx="11" cy="10" r="1" fill="srgba(85.5573%,56.7498%,55.2682%,1)"/>
  <circle cx="12" cy="10" r="1" fill="srgba(85.3696%,56.6323%,55.1705%,1)"/>
  <circle cx="13" cy="10" r="1" fill="srgba(85.3696%,56.6323%,55.1705%,1)"/>
  <circle cx="14" cy="10" r="1" fill="srgba(85.3696%,56.6323%,55.1705%,1)"/>
  <circle cx="15" cy="10" r="1" fill="srgba(85.3696%,56.6323%,55.1705%,1)"/>
  <circle cx="0" cy="11" r="1" fill="srgba(25.3529%,56.6598%,26.6148%,1)"/>
  <circle cx="1" cy="11" r="1" fill="srgba(25.3529%,56.6598%,26.6148%,1)"/>
  <circle cx="2" cy="11" r="1" fill="srgba(25.3529%,56.6598%,26.6148%,1)"/>
  <circle cx="3" cy="11" r="1" fill="srgba(25.3529%,56.6598%,26.6148%,1)"/>
  <circle cx="4" cy="11" r="1" fill="srgba(25.0431%,56.5591%,26.3264%,1)"/>
  <circle cx="5" cy="11" r="1" fill="srgba(35.5322%,60.8789%,37.2808%,1)"/>
  <circle cx="6" cy="11" r="1" fill="srgba(41.7121%,32.1813%,14.6487%,1)"/>
  <circle cx="7" cy="11" r="1" fill="srgba(79.7986%,35.1308%,33.6019%,1)"/>
  <circle cx="8" cy="11" r="1" fill="srgba(79.4751%,34.7326%,33.0877%,1)"/>
  <circle cx="9" cy="11" r="1" fill="srgba(41.5091%,32.5963%,14.9523%,1)"/>
  <circle cx="10" cy="11" r="1" fill="srgba(35.404%,60.8667%,37.1801%,1)"/>
  <circle cx="11" cy="11" r="1" fill="srgba(25.0278%,56.5515%,26.3096%,1)"/>
  <circle cx="12" cy="11" r="1" fill="srgba(25.3529%,56.6598%,26.6148%,1)"/>
  <circle cx="13" cy="11" r="1" fill="srgba(25.3529%,56.6598%,26.6148%,1)"/>
  <circle cx="14" cy="11" r="1" fill="srgba(25.3529%,56.6598%,26.6148%,1)"/>
  <circle cx="15" cy="11" r="1" fill="srgba(25.3529%,56.6598%,26.6148%,1)"/>
  <circle cx="0" cy="12" r="1" fill="srgba(0%,39.115%,0%,1)"/>
  <circle cx="1" cy="12" r="1" fill="srgba(0%,39.115%,0%,1)"/>
  <circle cx="2" cy="12" r="1" fill="srgba(0%,39.115%,0%,1)"/>
  <circle cx="3" cy="12" r="1" fill="srgba(0%,39.1012%,0%,1)"/>
  <circle cx="4" cy="12" r="1" fill="srgba(1.40078%,39.5499%,1.40078%,1)"/>
  <circle cx="5" cy="12" r="1" fill="srgba(13.4142%,44.8005%,13.5775%,1)"/>
  <circle cx="6" cy="12" r="1" fill="srgba(3.5523%,38.7396%,0.862135%,1)"/>
  <circle cx="7" cy="12" r="1" fill="srgba(38.7137%,33.0602%,12.4224%,1)"/>
  <circle cx="8" cy="12" r="1" fill="srgba(38.2834%,33.0526%,12.2042%,1)"/>
  <circle cx="9" cy="12" r="1" fill="srgba(3.50195%,38.8403%,0.943008%,1)"/>
  <circle cx="10" cy="12" r="1" fill="srgba(13.4234%,44.7883%,13.579%,1)"/>
  <circle cx="11" cy="12" r="1" fill="srgba(1.31838%,39.5178%,1.31838%,1)"/>
  <circle cx="12" cy="12" r="1" fill="srgba(0%,39.1028%,0%,1)"/>
  <circle cx="13" cy="12" r="1" fill="srgba(0%,39.115%,0%,1)"/>
  <circle cx="14" cy="12" r="1" fill="srgba(0%,39.115%,0%,1)"/>
  <circle cx="15" cy="12" r="1" fill="srgba(0%,39.115%,0%,1)"/>
  <circle cx="0" cy="13" r="1" fill="srgba(0,102,0,1)"/>
  <circle cx="1" cy="13" r="1" fill="srgba(0,102,0,1)"/>
  <circle cx="2" cy="13" r="1" fill="srgba(0,102,0,1)"/>
  <circle cx="3" cy="13" r="1" fill="srgba(0%,39.9985%,0%,1)"/>
  <circle cx="4" cy="13" r="1" fill="srgba(0.2533%,40.0488%,0.2533%,1)"/>
  <circle cx="5" cy="13" r="1" fill="srgba(0.975051%,40.1068%,0.975051%,1)"/>
  <circle cx="6" cy="13" r="1" fill="srgba(0%,40.0793%,0%,1)"/>
  <circle cx="7" cy="13" r="1" fill="srgba(0.59968%,39.7208%,0.0961318%,1)"/>
  <circle cx="8" cy="13" r="1" fill="srgba(0.587472%,39.733%,0.0946059%,1)"/>
  <circle cx="9" cy="13" r="1" fill="srgba(0%,40.0748%,0%,1)"/>
  <circle cx="10" cy="13" r="1" fill="srgba(0.981155%,40.1099%,0.981155%,1)"/>
  <circle cx="11" cy="13" r="1" fill="srgba(0.242618%,40.0473%,0.242618%,1)"/>
  <circle cx="12" cy="13" r="1" fill="srgba(0%,39.9985%,0%,1)"/>
  <circle cx="13" cy="13" r="1" fill="srgba(0,102,0,1)"/>
  <circle cx="14" cy="13" r="1" fill="srgba(0,102,0,1)"/>
  <circle cx="15" cy="13" r="1" fill="srgba(0,102,0,1)"/>
  <circle cx="0" cy="14" r="1" fill="srgba(0,102,0,1)"/>
  <circle cx="1" cy="14" r="1" fill="srgba(0,102,0,1)"/>
  <circle cx="2" cy="14" r="1" fill="srgba(0,102,0,1)"/>
  <circle cx="3" cy="14" r="1" fill="srgba(0,102,0,1)"/>
  <circle cx="4" cy="14" r="1" fill="srgba(0%,39.9985%,0%,1)"/>
  <circle cx="5" cy="14" r="1" fill="srgba(0%,39.9939%,0%,1)"/>
  <circle cx="6" cy="14" r="1" fill="srgba(0,102,0,1)"/>
  <circle cx="7" cy="14" r="1" fill="srgba(0%,40.0153%,0%,1)"/>
  <circle cx="8" cy="14" r="1" fill="srgba(0%,40.0153%,0%,1)"/>
  <circle cx="9" cy="14" r="1" fill="srgba(0,102,0,1)"/>
  <circle cx="10" cy="14" r="1" fill="srgba(0%,39.9939%,0%,1)"/>
  <circle cx="11" cy="14" r="1" fill="srgba(0%,39.9985%,0%,1)"/>
  <circle cx="12" cy="14" r="1" fill="srgba(0,102,0,1)"/>
  <circle cx="13" cy="14" r="1" fill="srgba(0,102,0,1)"/>
  <circle cx="14" cy="14" r="1" fill="srgba(0,102,0,1)"/>
  <circle cx="15" cy="14" r="1" fill="srgba(0,102,0,1)"/>
  <circle cx="0" cy="15" r="1" fill="srgba(0,102,0,1)"/>
  <circle cx="1" cy="15" r="1" fill="srgba(0,102,0,1)"/>
  <circle cx="2" cy="15" r="1" fill="srgba(0,102,0,1)"/>
  <circle cx="3" cy="15" r="1" fill="srgba(0,102,0,1)"/>
  <circle cx="4" cy="15" r="1" fill="srgba(0,102,0,1)"/>
  <circle cx="5" cy="15" r="1" fill="srgba(0,102,0,1)"/>
  <circle cx="6" cy="15" r="1" fill="srgba(0,102,0,1)"/>
  <circle cx="7" cy="15" r="1" fill="srgba(0,102,0,1)"/>
  <circle cx="8" cy="15" r="1" fill="srgba(0,102,0,1)"/>
  <circle cx="9" cy="15" r="1" fill="srgba(0,102,0,1)"/>
  <circle cx="10" cy="15" r="1" fill="srgba(0,102,0,1)"/>
  <circle cx="11" cy="15" r="1" fill="srgba(0,102,0,1)"/>
  <circle cx="12" cy="15" r="1" fill="srgba(0,102,0,1)"/>
  <circle cx="13" cy="15" r="1" fill="srgba(0,102,0,1)"/>
  <circle cx="14" cy="15" r="1" fill="srgba(0,102,0,1)"/>
  <circle cx="15" cy="15" r="1" fill="srgba(0,102,0,1)"/>
</svg>
