<?xml version="1.0" standalone="no"?>
<!DOCTYPE svg PUBLIC "-//W3C//DTD SVG 20010904//EN"
  "http://www.w3.org/TR/2001/REC-SVG-20010904/DTD/svg10.dtd">
<svg width="16" height="16">
  <circle cx="0" cy="0" r="1" fill="srgba(190,0,39,1)"/>
  <circle cx="1" cy="0" r="1" fill="srgba(190,0,39,1)"/>
  <circle cx="2" cy="0" r="1" fill="srgba(190,0,39,1)"/>
  <circle cx="3" cy="0" r="1" fill="srgba(190,0,39,1)"/>
  <circle cx="4" cy="0" r="1" fill="srgba(190,0,39,1)"/>
  <circle cx="5" cy="0" r="1" fill="srgba(190,0,39,1)"/>
  <circle cx="6" cy="0" r="1" fill="srgba(190,0,39,1)"/>
  <circle cx="7" cy="0" r="1" fill="srgba(190,0,39,1)"/>
  <circle cx="8" cy="0" r="1" fill="srgba(190,0,39,1)"/>
  <circle cx="9" cy="0" r="1" fill="srgba(190,0,39,1)"/>
  <circle cx="10" cy="0" r="1" fill="srgba(190,0,39,1)"/>
  <circle cx="11" cy="0" r="1" fill="srgba(190,0,39,1)"/>
  <circle cx="12" cy="0" r="1" fill="srgba(190,0,39,1)"/>
  <circle cx="13" cy="0" r="1" fill="srgba(190,0,39,1)"/>
  <circle cx="14" cy="0" r="1" fill="srgba(74.5098%,0%,15.2926%,1)"/>
  <circle cx="15" cy="0" r="1" fill="srgba(74.5174%,0.0381476%,15.3246%,1)"/>
  <circle cx="0" cy="1" r="1" fill="srgba(190,0,39,1)"/>
  <circle cx="1" cy="1" r="1" fill="srgba(190,0,39,1)"/>
  <circle cx="2" cy="1" r="1" fill="srgba(190,0,39,1)"/>
  <circle cx="3" cy="1" r="1" fill="srgba(190,0,39,1)"/>
  <circle cx="4" cy="1" r="1" fill="srgba(190,0,39,1)"/>
  <circle cx="5" cy="1" r="1" fill="srgba(190,0,39,1)"/>
  <circle cx="6" cy="1" r="1" fill="srgba(190,0,39,1)"/>
  <circle cx="7" cy="1" r="1" fill="srgba(190,0,39,1)"/>
  <circle cx="8" cy="1" r="1" fill="srgba(190,0,39,1)"/>
  <circle cx="9" cy="1" r="1" fill="srgba(190,0,39,1)"/>
  <circle cx="10" cy="1" r="1" fill="srgba(190,0,39,1)"/>
  <circle cx="11" cy="1" r="1" fill="srgba(190,0,39,1)"/>
  <circle cx="12" cy="1" r="1" fill="srgba(190,0,39,1)"/>
  <circle cx="13" cy="1" r="1" fill="srgba(190,0,39,1)"/>
  <circle cx="14" cy="1" r="1" fill="srgba(74.5098%,0%,15.2926%,1)"/>
  <circle cx="15" cy="1" r="1" fill="srgba(74.5174%,0.0381476%,15.3246%,1)"/>
  <circle cx="0" cy="2" r="1" fill="srgba(190,0,39,1)"/>
  <circle cx="1" cy="2" r="1" fill="srgba(190,0,39,1)"/>
  <circle cx="2" cy="2" r="1" fill="srgba(190,0,39,1)"/>
  <circle cx="3" cy="2" r="1" fill="srgba(190,0,39,1)"/>
  <circle cx="4" cy="2" r="1" fill="srgba(74.5113%,0%,15.2941%,1)"/>
  <circle cx="5" cy="2" r="1" fill="srgba(74.4823%,0%,15.3109%,1)"/>
  <circle cx="6" cy="2" r="1" fill="srgba(74.4137%,0.00457771%,15.3521%,1)"/>
  <circle cx="7" cy="2" r="1" fill="srgba(74.4625%,0.015259%,15.3216%,1)"/>
  <circle cx="8" cy="2" r="1" fill="srgba(74.4091%,0.00457771%,15.3552%,1)"/>
  <circle cx="9" cy="2" r="1" fill="srgba(74.406%,0%,15.3567%,1)"/>
  <circle cx="10" cy="2" r="1" fill="srgba(74.4823%,0%,15.3109%,1)"/>
  <circle cx="11" cy="2" r="1" fill="srgba(190,0,39,1)"/>
  <circle cx="12" cy="2" r="1" fill="srgba(190,0,39,1)"/>
  <circle cx="13" cy="2" r="1" fill="srgba(190,0,39,1)"/>
  <circle cx="14" cy="2" r="1" fill="srgba(74.5098%,0%,15.2926%,1)"/>
  <circle cx="15" cy="2" r="1" fill="srgba(74.5174%,0.0381476%,15.3246%,1)"/>
  <circle cx="0" cy="3" r="1" fill="srgba(190,0,39,1)"/>
  <circle cx="1" cy="3" r="1" fill="srgba(190,0,39,1)"/>
  <circle cx="2" cy="3" r="1" fill="srgba(190,0,39,1)"/>
  <circle cx="3" cy="3" r="1" fill="srgba(190,0,39,1)"/>
  <circle cx="4" cy="3" r="1" fill="srgba(74.461%,0%,15.3231%,1)"/>
  <circle cx="5" cy="3" r="1" fill="srgba(74.9218%,1.84482%,15.0469%,1)"/>
  <circle cx="6" cy="3" r="1" fill="srgba(76.2448%,7.04509%,14.2519%,1)"/>
  <circle cx="7" cy="3" r="1" fill="srgba(76.0021%,6.3798%,14.3999%,1)"/>
  <circle cx="8" cy="3" r="1" fill="srgba(78.265%,15.259%,13.0404%,1)"/>
  <circle cx="9" cy="3" r="1" fill="srgba(76.7422%,9.20424%,13.9544%,1)"/>
  <circle cx="10" cy="3" r="1" fill="srgba(74.8531%,1.89517%,15.0881%,1)"/>
  <circle cx="11" cy="3" r="1" fill="srgba(74.4488%,0%,15.3307%,1)"/>
  <circle cx="12" cy="3" r="1" fill="srgba(190,0,39,1)"/>
  <circle cx="13" cy="3" r="1" fill="srgba(190,0,39,1)"/>
  <circle cx="14" cy="3" r="1" fill="srgba(74.5098%,0%,15.2926%,1)"/>
  <circle cx="15" cy="3" r="1" fill="srgba(74.5174%,0.0381476%,15.3246%,1)"/>
  <circle cx="0" cy="4" r="1" fill="srgba(190,0,39,1)"/>
  <circle cx="1" cy="4" r="1" fill="srgba(190,0,39,1)"/>
  <circle cx="2" cy="4" r="1" fill="srgba(190,0,39,1)"/>
  <circle cx="3" cy="4" r="1" fill="srgba(74.4686%,0%,15.3185%,1)"/>
  <circle cx="4" cy="4" r="1" fill="srgba(75.2605%,3.0045%,14.844%,1)"/>
  <circle cx="5" cy="4" r="1" fill="srgba(79.7101%,20.4013%,12.1752%,1)"/>
  <circle cx="6" cy="4" r="1" fill="srgba(85.1438%,41.7212%,8.91279%,1)"/>
  <circle cx="7" cy="4" r="1" fill="srgba(85.4917%,43.0823%,8.70527%,1)"/>
  <circle cx="8" cy="4" r="1" fill="srgba(88.6275%,55.3857%,6.82231%,1)"/>
  <circle cx="9" cy="4" r="1" fill="srgba(86.1601%,45.7023%,8.30396%,1)"/>
  <circle cx="10" cy="4" r="1" fill="srgba(80.9674%,25.3315%,11.4199%,1)"/>
  <circle cx="11" cy="4" r="1" fill="srgba(75.697%,4.80354%,14.5815%,1)"/>
  <circle cx="12" cy="4" r="1" fill="srgba(74.4457%,0%,15.3323%,1)"/>
  <circle cx="13" cy="4" r="1" fill="srgba(190,0,39,1)"/>
  <circle cx="14" cy="4" r="1" fill="srgba(74.5098%,0%,15.2926%,1)"/>
  <circle cx="15" cy="4" r="1" fill="srgba(74.5174%,0.0381476%,15.3246%,1)"/>
  <circle cx="0" cy="5" r="1" fill="srgba(190,0,39,1)"/>
  <circle cx="1" cy="5" r="1" fill="srgba(190,0,39,1)"/>
  <circle cx="2" cy="5" r="1" fill="srgba(74.4869%,0%,15.3079%,1)"/>
  <circle cx="3" cy="5" r="1" fill="srgba(74.7433%,0.953689%,15.1537%,1)"/>
  <circle cx="4" cy="5" r="1" fill="srgba(80.8606%,24.9271%,11.4824%,1)"/>
  <circle cx="5" cy="5" r="1" fill="srgba(86.0548%,45.2903%,8.36805%,1)"/>
  <circle cx="6" cy="5" r="1" fill="srgba(90.8476%,64.097%,5.4902%,1)"/>
  <circle cx="7" cy="5" r="1" fill="srgba(90.7774%,63.8209%,5.53292%,1)"/>
  <circle cx="8" cy="5" r="1" fill="srgba(90.9636%,64.5487%,5.42153%,1)"/>
  <circle cx="9" cy="5" r="1" fill="srgba(91.6121%,67.0893%,5.03395%,1)"/>
  <circle cx="10" cy="5" r="1" fill="srgba(90.0832%,61.0956%,5.94949%,1)"/>
  <circle cx="11" cy="5" r="1" fill="srgba(81.5717%,27.7195%,11.0552%,1)"/>
  <circle cx="12" cy="5" r="1" fill="srgba(75.1232%,2.45518%,14.9264%,1)"/>
  <circle cx="13" cy="5" r="1" fill="srgba(74.4686%,0%,15.3185%,1)"/>
  <circle cx="14" cy="5" r="1" fill="srgba(74.5098%,0%,15.2926%,1)"/>
  <circle cx="15" cy="5" r="1" fill="srgba(74.5174%,0.0381476%,15.3246%,1)"/>
  <circle cx="0" cy="6" r="1" fill="srgba(190,0,39,1)"/>
  <circle cx="1" cy="6" r="1" fill="srgba(190,0,39,1)"/>
  <circle cx="2" cy="6" r="1" fill="srgba(74.4106%,0%,15.3536%,1)"/>
  <circle cx="3" cy="6" r="1" fill="srgba(76.5057%,7.83246%,14.0963%,1)"/>
  <circle cx="4" cy="6" r="1" fill="srgba(86.4851%,46.9856%,8.10864%,1)"/>
  <circle cx="5" cy="6" r="1" fill="srgba(90.0893%,61.12%,5.94644%,1)"/>
  <circle cx="6" cy="6" r="1" fill="srgba(83.1235%,33.7896%,10.1274%,1)"/>
  <circle cx="7" cy="6" r="1" fill="srgba(90.3395%,62.0996%,5.7969%,1)"/>
  <circle cx="8" cy="6" r="1" fill="srgba(90.779%,63.827%,5.5314%,1)"/>
  <circle cx="9" cy="6" r="1" fill="srgba(82.4292%,31.0658%,10.544%,1)"/>
  <circle cx="10" cy="6" r="1" fill="srgba(89.7124%,59.6445%,6.17227%,1)"/>
  <circle cx="11" cy="6" r="1" fill="srgba(87.3396%,50.3334%,7.59594%,1)"/>
  <circle cx="12" cy="6" r="1" fill="srgba(77.351%,11.1498%,13.5912%,1)"/>
  <circle cx="13" cy="6" r="1" fill="srgba(74.3877%,0%,15.3674%,1)"/>
  <circle cx="14" cy="6" r="1" fill="srgba(74.5098%,0%,15.2926%,1)"/>
  <circle cx="15" cy="6" r="1" fill="srgba(74.5174%,0.0381476%,15.3246%,1)"/>
  <circle cx="0" cy="7" r="1" fill="srgba(190,0,39,1)"/>
  <circle cx="1" cy="7" r="1" fill="srgba(190,0,39,1)"/>
  <circle cx="2" cy="7" r="1" fill="srgba(74.3938%,0%,15.3643%,1)"/>
  <circle cx="3" cy="7" r="1" fill="srgba(78.2193%,14.5449%,13.0709%,1)"/>
  <circle cx="4" cy="7" r="1" fill="srgba(89.0806%,57.1588%,6.55375%,1)"/>
  <circle cx="5" cy="7" r="1" fill="srgba(90.0359%,60.9094%,5.98001%,1)"/>
  <circle cx="6" cy="7" r="1" fill="srgba(90.9026%,64.3091%,5.45968%,1)"/>
  <circle cx="7" cy="7" r="1" fill="srgba(79.5102%,19.6124%,12.2957%,1)"/>
  <circle cx="8" cy="7" r="1" fill="srgba(78.6938%,16.4111%,12.781%,1)"/>
  <circle cx="9" cy="7" r="1" fill="srgba(77.4197%,11.8853%,13.5485%,1)"/>
  <circle cx="10" cy="7" r="1" fill="srgba(85.8015%,44.5045%,8.51911%,1)"/>
  <circle cx="11" cy="7" r="1" fill="srgba(89.662%,59.4308%,6.20279%,1)"/>
  <circle cx="12" cy="7" r="1" fill="srgba(79.0204%,17.6974%,12.5872%,1)"/>
  <circle cx="13" cy="7" r="1" fill="srgba(74.4274%,0%,15.3429%,1)"/>
  <circle cx="14" cy="7" r="1" fill="srgba(74.5083%,0%,15.2941%,1)"/>
  <circle cx="15" cy="7" r="1" fill="srgba(74.5174%,0.0381476%,15.3246%,1)"/>
  <circle cx="0" cy="8" r="1" fill="srgba(190,0,39,1)"/>
  <circle cx="1" cy="8" r="1" fill="srgba(74.5083%,0%,15.2941%,1)"/>
  <circle cx="2" cy="8" r="1" fill="srgba(74.374%,0%,15.375%,1)"/>
  <circle cx="3" cy="8" r="1" fill="srgba(81.5747%,27.7089%,11.0552%,1)"/>
  <circle cx="4" cy="8" r="1" fill="srgba(91.281%,65.7954%,5.23079%,1)"/>
  <circle cx="5" cy="8" r="1" fill="srgba(90.5287%,62.8428%,5.68246%,1)"/>
  <circle cx="6" cy="8" r="1" fill="srgba(90.5882%,63.0777%,5.64584%,1)"/>
  <circle cx="7" cy="8" r="1" fill="srgba(85.7679%,44.1703%,8.53742%,1)"/>
  <circle cx="8" cy="8" r="1" fill="srgba(87.9316%,52.6558%,7.24193%,1)"/>
  <circle cx="9" cy="8" r="1" fill="srgba(85.8534%,44.538%,8.48859%,1)"/>
  <circle cx="10" cy="8" r="1" fill="srgba(87.6112%,51.4183%,7.43267%,1)"/>
  <circle cx="11" cy="8" r="1" fill="srgba(89.5796%,59.1196%,6.25162%,1)"/>
  <circle cx="12" cy="8" r="1" fill="srgba(79.0951%,17.9934%,12.5414%,1)"/>
  <circle cx="13" cy="8" r="1" fill="srgba(74.4396%,0%,15.3368%,1)"/>
  <circle cx="14" cy="8" r="1" fill="srgba(74.5068%,0%,15.2941%,1)"/>
  <circle cx="15" cy="8" r="1" fill="srgba(74.5174%,0.0381476%,15.3246%,1)"/>
  <circle cx="0" cy="9" r="1" fill="srgba(190,0,39,1)"/>
  <circle cx="1" cy="9" r="1" fill="srgba(74.5083%,0%,15.2956%,1)"/>
  <circle cx="2" cy="9" r="1" fill="srgba(74.3938%,0%,15.3628%,1)"/>
  <circle cx="3" cy="9" r="1" fill="srgba(86.894%,48.5878%,7.8645%,1)"/>
  <circle cx="4" cy="9" r="1" fill="srgba(91.046%,64.8722%,5.3727%,1)"/>
  <circle cx="5" cy="9" r="1" fill="srgba(90.4326%,62.4659%,5.73892%,1)"/>
  <circle cx="6" cy="9" r="1" fill="srgba(84.2588%,38.3215%,9.44228%,1)"/>
  <circle cx="7" cy="9" r="1" fill="srgba(88.9891%,57.0855%,6.60716%,1)"/>
  <circle cx="8" cy="9" r="1" fill="srgba(89.8833%,60.3342%,6.07004%,1)"/>
  <circle cx="9" cy="9" r="1" fill="srgba(84.7196%,40.0855%,9.16915%,1)"/>
  <circle cx="10" cy="9" r="1" fill="srgba(90.1534%,61.3855%,5.90829%,1)"/>
  <circle cx="11" cy="9" r="1" fill="srgba(86.6957%,47.8096%,7.98199%,1)"/>
  <circle cx="12" cy="9" r="1" fill="srgba(77.1664%,10.4311%,13.6995%,1)"/>
  <circle cx="13" cy="9" r="1" fill="srgba(74.3969%,0%,15.3613%,1)"/>
  <circle cx="14" cy="9" r="1" fill="srgba(74.5098%,0%,15.2926%,1)"/>
  <circle cx="15" cy="9" r="1" fill="srgba(74.5174%,0.0381476%,15.3246%,1)"/>
  <circle cx="0" cy="10" r="1" fill="srgba(190,0,39,1)"/>
  <circle cx="1" cy="10" r="1" fill="srgba(190,0,39,1)"/>
  <circle cx="2" cy="10" r="1" fill="srgba(74.1939%,0%,15.4833%,1)"/>
  <circle cx="3" cy="10" r="1" fill="srgba(86.8681%,48.5039%,7.87976%,1)"/>
  <circle cx="4" cy="10" r="1" fill="srgba(92.0348%,68.7526%,4.78065%,1)"/>
  <circle cx="5" cy="10" r="1" fill="srgba(89.369%,58.294%,6.3798%,1)"/>
  <circle cx="6" cy="10" r="1" fill="srgba(90.2495%,61.7472%,5.85031%,1)"/>
  <circle cx="7" cy="10" r="1" fill="srgba(88.2155%,53.7621%,7.0695%,1)"/>
  <circle cx="8" cy="10" r="1" fill="srgba(82.4262%,31.1376%,10.544%,1)"/>
  <circle cx="9" cy="10" r="1" fill="srgba(79.9573%,21.5717%,12.0256%,1)"/>
  <circle cx="10" cy="10" r="1" fill="srgba(89.0349%,56.9909%,6.57969%,1)"/>
  <circle cx="11" cy="10" r="1" fill="srgba(81.0575%,25.6855%,11.3649%,1)"/>
  <circle cx="12" cy="10" r="1" fill="srgba(75.0134%,2.00046%,14.992%,1)"/>
  <circle cx="13" cy="10" r="1" fill="srgba(74.4732%,0%,15.3155%,1)"/>
  <circle cx="14" cy="10" r="1" fill="srgba(74.5098%,0%,15.2926%,1)"/>
  <circle cx="15" cy="10" r="1" fill="srgba(74.5174%,0.0381476%,15.3246%,1)"/>
  <circle cx="0" cy="11" r="1" fill="srgba(190,0,39,1)"/>
  <circle cx="1" cy="11" r="1" fill="srgba(190,0,39,1)"/>
  <circle cx="2" cy="11" r="1" fill="srgba(74.0826%,0%,15.5505%,1)"/>
  <circle cx="3" cy="11" r="1" fill="srgba(84.8707%,40.705%,9.07759%,1)"/>
  <circle cx="4" cy="11" r="1" fill="srgba(88.4718%,54.7951%,6.91691%,1)"/>
  <circle cx="5" cy="11" r="1" fill="srgba(80.6928%,24.2588%,11.5862%,1)"/>
  <circle cx="6" cy="11" r="1" fill="srgba(86.6743%,47.7195%,7.99573%,1)"/>
  <circle cx="7" cy="11" r="1" fill="srgba(89.2805%,57.94%,6.4332%,1)"/>
  <circle cx="8" cy="11" r="1" fill="srgba(79.7421%,20.7034%,12.1553%,1)"/>
  <circle cx="9" cy="11" r="1" fill="srgba(79.7864%,20.943%,12.1279%,1)"/>
  <circle cx="10" cy="11" r="1" fill="srgba(88.8014%,56.0601%,6.71855%,1)"/>
  <circle cx="11" cy="11" r="1" fill="srgba(76.0494%,6.13107%,14.3694%,1)"/>
  <circle cx="12" cy="11" r="1" fill="srgba(74.4274%,0%,15.3429%,1)"/>
  <circle cx="13" cy="11" r="1" fill="srgba(190,0,39,1)"/>
  <circle cx="14" cy="11" r="1" fill="srgba(74.5098%,0%,15.2926%,1)"/>
  <circle cx="15" cy="11" r="1" fill="srgba(74.5174%,0.0381476%,15.3246%,1)"/>
  <circle cx="0" cy="12" r="1" fill="srgba(190,0,39,1)"/>
  <circle cx="1" cy="12" r="1" fill="srgba(190,0,39,1)"/>
  <circle cx="2" cy="12" r="1" fill="srgba(74.2885%,0%,15.4269%,1)"/>
  <circle cx="3" cy="12" r="1" fill="srgba(78.5626%,15.9899%,12.8634%,1)"/>
  <circle cx="4" cy="12" r="1" fill="srgba(78.8342%,17.3663%,12.6986%,1)"/>
  <circle cx="5" cy="12" r="1" fill="srgba(74.6807%,1.24514%,15.1919%,1)"/>
  <circle cx="6" cy="12" r="1" fill="srgba(76.9329%,9.96719%,13.8415%,1)"/>
  <circle cx="7" cy="12" r="1" fill="srgba(78.6587%,16.7559%,12.8069%,1)"/>
  <circle cx="8" cy="12" r="1" fill="srgba(75.9136%,5.76028%,14.4533%,1)"/>
  <circle cx="9" cy="12" r="1" fill="srgba(82.5818%,31.6472%,10.4524%,1)"/>
  <circle cx="10" cy="12" r="1" fill="srgba(93.0327%,72.8267%,4.18097%,1)"/>
  <circle cx="11" cy="12" r="1" fill="srgba(75.5154%,4.15808%,14.6899%,1)"/>
  <circle cx="12" cy="12" r="1" fill="srgba(74.4488%,0%,15.3307%,1)"/>
  <circle cx="13" cy="12" r="1" fill="srgba(190,0,39,1)"/>
  <circle cx="14" cy="12" r="1" fill="srgba(74.5098%,0%,15.2926%,1)"/>
  <circle cx="15" cy="12" r="1" fill="srgba(74.5174%,0.0381476%,15.3246%,1)"/>
  <circle cx="0" cy="13" r="1" fill="srgba(190,0,39,1)"/>
  <circle cx="1" cy="13" r="1" fill="srgba(190,0,39,1)"/>
  <circle cx="2" cy="13" r="1" fill="srgba(74.5129%,0%,15.2926%,1)"/>
  <circle cx="3" cy="13" r="1" fill="srgba(74.4274%,0.0122072%,15.3429%,1)"/>
  <circle cx="4" cy="13" r="1" fill="srgba(74.4091%,0.0122072%,15.3552%,1)"/>
  <circle cx="5" cy="13" r="1" fill="srgba(74.4823%,0%,15.3109%,1)"/>
  <circle cx="6" cy="13" r="1" fill="srgba(74.3969%,0%,15.3628%,1)"/>
  <circle cx="7" cy="13" r="1" fill="srgba(74.3969%,0.0106813%,15.3613%,1)"/>
  <circle cx="8" cy="13" r="1" fill="srgba(74.0597%,0%,15.5642%,1)"/>
  <circle cx="9" cy="13" r="1" fill="srgba(83.4394%,35.024%,9.93668%,1)"/>
  <circle cx="10" cy="13" r="1" fill="srgba(93.3089%,73.7591%,4.01465%,1)"/>
  <circle cx="11" cy="13" r="1" fill="srgba(75.4101%,3.53552%,14.7539%,1)"/>
  <circle cx="12" cy="13" r="1" fill="srgba(74.4564%,0%,15.3262%,1)"/>
  <circle cx="13" cy="13" r="1" fill="srgba(190,0,39,1)"/>
  <circle cx="14" cy="13" r="1" fill="srgba(74.5098%,0%,15.2926%,1)"/>
  <circle cx="15" cy="13" r="1" fill="srgba(74.5174%,0.0381476%,15.3246%,1)"/>
  <circle cx="0" cy="14" r="1" fill="srgba(74.5083%,0%,15.288%,1)"/>
  <circle cx="1" cy="14" r="1" fill="srgba(74.5083%,0%,15.288%,1)"/>
  <circle cx="2" cy="14" r="1" fill="srgba(74.5083%,0%,15.288%,1)"/>
  <circle cx="3" cy="14" r="1" fill="srgba(74.5068%,0%,15.288%,1)"/>
  <circle cx="4" cy="14" r="1" fill="srgba(74.5068%,0%,15.288%,1)"/>
  <circle cx="5" cy="14" r="1" fill="srgba(74.5083%,0%,15.288%,1)"/>
  <circle cx="6" cy="14" r="1" fill="srgba(74.5083%,0%,15.288%,1)"/>
  <circle cx="7" cy="14" r="1" fill="srgba(74.5068%,0%,15.288%,1)"/>
  <circle cx="8" cy="14" r="1" fill="srgba(74.0917%,0%,15.5398%,1)"/>
  <circle cx="9" cy="14" r="1" fill="srgba(82.4231%,31.0658%,10.544%,1)"/>
  <circle cx="10" cy="14" r="1" fill="srgba(92.6345%,71.1116%,4.41749%,1)"/>
  <circle cx="11" cy="14" r="1" fill="srgba(75.2712%,2.99229%,14.8302%,1)"/>
  <circle cx="12" cy="14" r="1" fill="srgba(74.464%,0%,15.314%,1)"/>
  <circle cx="13" cy="14" r="1" fill="srgba(74.5083%,0%,15.288%,1)"/>
  <circle cx="14" cy="14" r="1" fill="srgba(74.5083%,0%,15.2865%,1)"/>
  <circle cx="15" cy="14" r="1" fill="srgba(74.5159%,0.0381476%,15.3185%,1)"/>
  <circle cx="0" cy="15" r="1" fill="srgba(74.5403%,0.131228%,15.4025%,1)"/>
  <circle cx="1" cy="15" r="1" fill="srgba(74.5403%,0.131228%,15.4025%,1)"/>
  <circle cx="2" cy="15" r="1" fill="srgba(74.5403%,0.131228%,15.4025%,1)"/>
  <circle cx="3" cy="15" r="1" fill="srgba(74.5403%,0.131228%,15.4025%,1)"/>
  <circle cx="4" cy="15" r="1" fill="srgba(74.5403%,0.131228%,15.4025%,1)"/>
  <circle cx="5" cy="15" r="1" fill="srgba(74.5403%,0.131228%,15.4025%,1)"/>
  <circle cx="6" cy="15" r="1" fill="srgba(74.5403%,0.131228%,15.4025%,1)"/>
  <circle cx="7" cy="15" r="1" fill="srgba(74.5403%,0.131228%,15.4025%,1)"/>
  <circle cx="8" cy="15" r="1" fill="srgba(74.1436%,0%,15.6115%,1)"/>
  <circle cx="9" cy="15" r="1" fill="srgba(81.6327%,27.982%,11.0948%,1)"/>
  <circle cx="10" cy="15" r="1" fill="srgba(91.9677%,68.4977%,4.8661%,1)"/>
  <circle cx="11" cy="15" r="1" fill="srgba(75.1843%,2.65812%,15.0134%,1)"/>
  <circle cx="12" cy="15" r="1" fill="srgba(74.5037%,0%,15.4238%,1)"/>
  <circle cx="13" cy="15" r="1" fill="srgba(74.5403%,0.131228%,15.4025%,1)"/>
  <circle cx="14" cy="15" r="1" fill="srgba(74.5403%,0.129702%,15.4009%,1)"/>
  <circle cx="15" cy="15" r="1" fill="srgba(74.548%,0.169375%,15.433%,1)"/>
</svg>
