<?xml version="1.0" standalone="no"?>
<!DOCTYPE svg PUBLIC "-//W3C//DTD SVG 20010904//EN"
  "http://www.w3.org/TR/2001/REC-SVG-20010904/DTD/svg10.dtd">
<svg width="16" height="16">
  <circle cx="0" cy="0" r="1" fill="srgba(27,0,115,1)"/>
  <circle cx="1" cy="0" r="1" fill="srgba(27,0,115,1)"/>
  <circle cx="2" cy="0" r="1" fill="srgba(27,0,115,1)"/>
  <circle cx="3" cy="0" r="1" fill="srgba(27,0,115,1)"/>
  <circle cx="4" cy="0" r="1" fill="srgba(27,0,115,1)"/>
  <circle cx="5" cy="0" r="1" fill="srgba(27,0,115,1)"/>
  <circle cx="6" cy="0" r="1" fill="srgba(27,0,115,1)"/>
  <circle cx="7" cy="0" r="1" fill="srgba(27,0,115,1)"/>
  <circle cx="8" cy="0" r="1" fill="srgba(27,0,115,1)"/>
  <circle cx="9" cy="0" r="1" fill="srgba(27,0,115,1)"/>
  <circle cx="10" cy="0" r="1" fill="srgba(27,0,115,1)"/>
  <circle cx="11" cy="0" r="1" fill="srgba(27,0,115,1)"/>
  <circle cx="12" cy="0" r="1" fill="srgba(27,0,115,1)"/>
  <circle cx="13" cy="0" r="1" fill="srgba(27,0,115,1)"/>
  <circle cx="14" cy="0" r="1" fill="srgba(10.5867%,0%,45.0965%,1)"/>
  <circle cx="15" cy="0" r="1" fill="srgba(10.6188%,0.030518%,45.1133%,1)"/>
  <circle cx="0" cy="1" r="1" fill="srgba(27,0,115,1)"/>
  <circle cx="1" cy="1" r="1" fill="srgba(27,0,115,1)"/>
  <circle cx="2" cy="1" r="1" fill="srgba(27,0,115,1)"/>
  <circle cx="3" cy="1" r="1" fill="srgba(27,0,115,1)"/>
  <circle cx="4" cy="1" r="1" fill="srgba(27,0,115,1)"/>
  <circle cx="5" cy="1" r="1" fill="srgba(27,0,115,1)"/>
  <circle cx="6" cy="1" r="1" fill="srgba(27,0,115,1)"/>
  <circle cx="7" cy="1" r="1" fill="srgba(27,0,115,1)"/>
  <circle cx="8" cy="1" r="1" fill="srgba(27,0,115,1)"/>
  <circle cx="9" cy="1" r="1" fill="srgba(27,0,115,1)"/>
  <circle cx="10" cy="1" r="1" fill="srgba(27,0,115,1)"/>
  <circle cx="11" cy="1" r="1" fill="srgba(27,0,115,1)"/>
  <circle cx="12" cy="1" r="1" fill="srgba(27,0,115,1)"/>
  <circle cx="13" cy="1" r="1" fill="srgba(27,0,115,1)"/>
  <circle cx="14" cy="1" r="1" fill="srgba(10.5867%,0%,45.0965%,1)"/>
  <circle cx="15" cy="1" r="1" fill="srgba(10.6188%,0.030518%,45.1133%,1)"/>
  <circle cx="0" cy="2" r="1" fill="srgba(9.96719%,0%,45.4322%,1)"/>
  <circle cx="1" cy="2" r="1" fill="srgba(9.96719%,0%,45.4322%,1)"/>
  <circle cx="2" cy="2" r="1" fill="srgba(9.96719%,0%,45.4322%,1)"/>
  <circle cx="3" cy="2" r="1" fill="srgba(9.96719%,0%,45.4322%,1)"/>
  <circle cx="4" cy="2" r="1" fill="srgba(9.96719%,0%,45.4322%,1)"/>
  <circle cx="5" cy="2" r="1" fill="srgba(9.96719%,0%,45.4322%,1)"/>
  <circle cx="6" cy="2" r="1" fill="srgba(9.96719%,0%,45.4322%,1)"/>
  <circle cx="7" cy="2" r="1" fill="srgba(9.96567%,0%,45.4231%,1)"/>
  <circle cx="8" cy="2" r="1" fill="srgba(9.96567%,0%,45.4215%,1)"/>
  <circle cx="9" cy="2" r="1" fill="srgba(9.96719%,0%,45.4322%,1)"/>
  <circle cx="10" cy="2" r="1" fill="srgba(9.96719%,0%,45.4322%,1)"/>
  <circle cx="11" cy="2" r="1" fill="srgba(9.96719%,0%,45.4322%,1)"/>
  <circle cx="12" cy="2" r="1" fill="srgba(9.96719%,0%,45.4322%,1)"/>
  <circle cx="13" cy="2" r="1" fill="srgba(9.96719%,0%,45.4322%,1)"/>
  <circle cx="14" cy="2" r="1" fill="srgba(9.96567%,0%,45.4307%,1)"/>
  <circle cx="15" cy="2" r="1" fill="srgba(9.99771%,0.030518%,45.4475%,1)"/>
  <circle cx="0" cy="3" r="1" fill="srgba(20.1907%,0%,39.942%,1)"/>
  <circle cx="1" cy="3" r="1" fill="srgba(20.1907%,0%,39.942%,1)"/>
  <circle cx="2" cy="3" r="1" fill="srgba(20.1907%,0%,39.942%,1)"/>
  <circle cx="3" cy="3" r="1" fill="srgba(20.1892%,0%,39.9329%,1)"/>
  <circle cx="4" cy="3" r="1" fill="srgba(20.1892%,0%,39.9298%,1)"/>
  <circle cx="5" cy="3" r="1" fill="srgba(20.1907%,0%,39.942%,1)"/>
  <circle cx="6" cy="3" r="1" fill="srgba(20.1907%,0%,39.9405%,1)"/>
  <circle cx="7" cy="3" r="1" fill="srgba(20.1862%,0.134279%,39.8947%,1)"/>
  <circle cx="8" cy="3" r="1" fill="srgba(20.1907%,0.167849%,39.9405%,1)"/>
  <circle cx="9" cy="3" r="1" fill="srgba(20.1907%,0%,39.939%,1)"/>
  <circle cx="10" cy="3" r="1" fill="srgba(20.1907%,0%,39.942%,1)"/>
  <circle cx="11" cy="3" r="1" fill="srgba(20.1892%,0%,39.9329%,1)"/>
  <circle cx="12" cy="3" r="1" fill="srgba(20.1892%,0%,39.9298%,1)"/>
  <circle cx="13" cy="3" r="1" fill="srgba(20.1907%,0%,39.942%,1)"/>
  <circle cx="14" cy="3" r="1" fill="srgba(20.1892%,0%,39.9405%,1)"/>
  <circle cx="15" cy="3" r="1" fill="srgba(20.2136%,0.0274662%,39.9573%,1)"/>
  <circle cx="0" cy="4" r="1" fill="srgba(80.5936%,0%,7.50896%,1)"/>
  <circle cx="1" cy="4" r="1" fill="srgba(80.5936%,0%,7.50896%,1)"/>
  <circle cx="2" cy="4" r="1" fill="srgba(80.5936%,0%,7.51049%,1)"/>
  <circle cx="3" cy="4" r="1" fill="srgba(80.5829%,0.180056%,7.39452%,1)"/>
  <circle cx="4" cy="4" r="1" fill="srgba(80.5905%,0.221256%,7.46014%,1)"/>
  <circle cx="5" cy="4" r="1" fill="srgba(80.5936%,0%,7.51049%,1)"/>
  <circle cx="6" cy="4" r="1" fill="srgba(80.5219%,0%,6.79484%,1)"/>
  <circle cx="7" cy="4" r="1" fill="srgba(81.8845%,13.3806%,20.1358%,1)"/>
  <circle cx="8" cy="4" r="1" fill="srgba(81.8936%,13.4707%,20.2274%,1)"/>
  <circle cx="9" cy="4" r="1" fill="srgba(80.5203%,0%,6.78264%,1)"/>
  <circle cx="10" cy="4" r="1" fill="srgba(80.5936%,0%,7.51354%,1)"/>
  <circle cx="11" cy="4" r="1" fill="srgba(80.5844%,0.180056%,7.40063%,1)"/>
  <circle cx="12" cy="4" r="1" fill="srgba(80.5905%,0.222782%,7.46777%,1)"/>
  <circle cx="13" cy="4" r="1" fill="srgba(80.5936%,0%,7.50896%,1)"/>
  <circle cx="14" cy="4" r="1" fill="srgba(80.5951%,0%,7.50744%,1)"/>
  <circle cx="15" cy="4" r="1" fill="srgba(80.5707%,0.0030518%,7.52422%,1)"/>
  <circle cx="0" cy="5" r="1" fill="srgba(90.8171%,0%,2.01877%,1)"/>
  <circle cx="1" cy="5" r="1" fill="srgba(90.8171%,0%,2.02335%,1)"/>
  <circle cx="2" cy="5" r="1" fill="srgba(90.7591%,0%,1.44503%,1)"/>
  <circle cx="3" cy="5" r="1" fill="srgba(91.7037%,9.31106%,10.631%,1)"/>
  <circle cx="4" cy="5" r="1" fill="srgba(91.7632%,9.97177%,11.2215%,1)"/>
  <circle cx="5" cy="5" r="1" fill="srgba(90.75%,0%,1.34585%,1)"/>
  <circle cx="6" cy="5" r="1" fill="srgba(90.7805%,0%,1.61288%,1)"/>
  <circle cx="7" cy="5" r="1" fill="srgba(94.4747%,37.348%,37.9095%,1)"/>
  <circle cx="8" cy="5" r="1" fill="srgba(94.4686%,37.2702%,37.8347%,1)"/>
  <circle cx="9" cy="5" r="1" fill="srgba(90.7805%,0%,1.60525%,1)"/>
  <circle cx="10" cy="5" r="1" fill="srgba(90.7515%,0%,1.37026%,1)"/>
  <circle cx="11" cy="5" r="1" fill="srgba(91.6945%,9.28054%,10.5638%,1)"/>
  <circle cx="12" cy="5" r="1" fill="srgba(91.7647%,9.91531%,11.2367%,1)"/>
  <circle cx="13" cy="5" r="1" fill="srgba(90.7576%,0%,1.43282%,1)"/>
  <circle cx="14" cy="5" r="1" fill="srgba(90.8186%,0%,2.02182%,1)"/>
  <circle cx="15" cy="5" r="1" fill="srgba(90.7866%,0%,2.03403%,1)"/>
  <circle cx="0" cy="6" r="1" fill="srgba(230,0,6,1)"/>
  <circle cx="1" cy="6" r="1" fill="srgba(90.1884%,0%,2.27512%,1)"/>
  <circle cx="2" cy="6" r="1" fill="srgba(90.2464%,0.550851%,2.84428%,1)"/>
  <circle cx="3" cy="6" r="1" fill="srgba(93.9223%,38.0438%,39.0112%,1)"/>
  <circle cx="4" cy="6" r="1" fill="srgba(94.0352%,39.1409%,40.0961%,1)"/>
  <circle cx="5" cy="6" r="1" fill="srgba(90.2007%,0.177005%,2.37125%,1)"/>
  <circle cx="6" cy="6" r="1" fill="srgba(92.1309%,19.8108%,21.4115%,1)"/>
  <circle cx="7" cy="6" r="1" fill="srgba(97.29%,72.3384%,72.546%,1)"/>
  <circle cx="8" cy="6" r="1" fill="srgba(97.2885%,72.3323%,72.5383%,1)"/>
  <circle cx="9" cy="6" r="1" fill="srgba(92.1309%,19.8032%,21.4054%,1)"/>
  <circle cx="10" cy="6" r="1" fill="srgba(90.1793%,0%,2.18204%,1)"/>
  <circle cx="11" cy="6" r="1" fill="srgba(93.9208%,38.0133%,39.0036%,1)"/>
  <circle cx="12" cy="6" r="1" fill="srgba(93.7911%,36.6674%,37.7081%,1)"/>
  <circle cx="13" cy="6" r="1" fill="srgba(90.2159%,0.21973%,2.53605%,1)"/>
  <circle cx="14" cy="6" r="1" fill="srgba(90.1915%,0%,2.28885%,1)"/>
  <circle cx="15" cy="6" r="1" fill="srgba(90.1656%,0%,2.3682%,1)"/>
  <circle cx="0" cy="7" r="1" fill="srgba(230,0,6,1)"/>
  <circle cx="1" cy="7" r="1" fill="srgba(90.1152%,0%,1.55642%,1)"/>
  <circle cx="2" cy="7" r="1" fill="srgba(91.5923%,14.2321%,16.1334%,1)"/>
  <circle cx="3" cy="7" r="1" fill="srgba(97.232%,71.7449%,71.957%,1)"/>
  <circle cx="4" cy="7" r="1" fill="srgba(97.7066%,76.6629%,76.7834%,1)"/>
  <circle cx="5" cy="7" r="1" fill="srgba(95.7809%,57.0352%,57.8256%,1)"/>
  <circle cx="6" cy="7" r="1" fill="srgba(96.7422%,66.8269%,67.2969%,1)"/>
  <circle cx="7" cy="7" r="1" fill="srgba(98.3017%,82.6993%,82.6825%,1)"/>
  <circle cx="8" cy="7" r="1" fill="srgba(98.3047%,82.7131%,82.6963%,1)"/>
  <circle cx="9" cy="7" r="1" fill="srgba(96.7407%,66.8193%,67.2908%,1)"/>
  <circle cx="10" cy="7" r="1" fill="srgba(95.7748%,56.9451%,57.7386%,1)"/>
  <circle cx="11" cy="7" r="1" fill="srgba(97.6257%,75.7794%,75.9106%,1)"/>
  <circle cx="12" cy="7" r="1" fill="srgba(97.145%,70.9041%,71.1238%,1)"/>
  <circle cx="13" cy="7" r="1" fill="srgba(91.5724%,14.0322%,15.9319%,1)"/>
  <circle cx="14" cy="7" r="1" fill="srgba(90.1183%,0%,1.56405%,1)"/>
  <circle cx="15" cy="7" r="1" fill="srgba(90.1656%,0%,2.3682%,1)"/>
  <circle cx="0" cy="8" r="1" fill="srgba(90.1961%,0%,2.35752%,1)"/>
  <circle cx="1" cy="8" r="1" fill="srgba(90.0984%,0%,1.38705%,1)"/>
  <circle cx="2" cy="8" r="1" fill="srgba(91.5908%,14.8577%,16.1273%,1)"/>
  <circle cx="3" cy="8" r="1" fill="srgba(97.4868%,74.3633%,74.461%,1)"/>
  <circle cx="4" cy="8" r="1" fill="srgba(98.4222%,84.0253%,84.0116%,1)"/>
  <circle cx="5" cy="8" r="1" fill="srgba(98.7427%,87.2129%,87.1763%,1)"/>
  <circle cx="6" cy="8" r="1" fill="srgba(98.5351%,85.098%,85.0752%,1)"/>
  <circle cx="7" cy="8" r="1" fill="srgba(98.3505%,83.1373%,83.1373%,1)"/>
  <circle cx="8" cy="8" r="1" fill="srgba(98.32%,82.8397%,82.8397%,1)"/>
  <circle cx="9" cy="8" r="1" fill="srgba(98.529%,84.9973%,84.9729%,1)"/>
  <circle cx="10" cy="8" r="1" fill="srgba(98.7427%,87.1702%,87.1336%,1)"/>
  <circle cx="11" cy="8" r="1" fill="srgba(98.3734%,83.2685%,83.2547%,1)"/>
  <circle cx="12" cy="8" r="1" fill="srgba(97.5906%,75.4284%,75.5245%,1)"/>
  <circle cx="13" cy="8" r="1" fill="srgba(91.5953%,14.8791%,16.1852%,1)"/>
  <circle cx="14" cy="8" r="1" fill="srgba(90.0999%,0%,1.39162%,1)"/>
  <circle cx="15" cy="8" r="1" fill="srgba(90.1656%,0%,2.37278%,1)"/>
  <circle cx="0" cy="9" r="1" fill="srgba(90.1823%,0%,2.22019%,1)"/>
  <circle cx="1" cy="9" r="1" fill="srgba(90.1717%,0.344854%,2.09659%,1)"/>
  <circle cx="2" cy="9" r="1" fill="srgba(93.0205%,28.9372%,30.2754%,1)"/>
  <circle cx="3" cy="9" r="1" fill="srgba(97.3098%,72.5002%,72.5902%,1)"/>
  <circle cx="4" cy="9" r="1" fill="srgba(97.8668%,78.3032%,78.2971%,1)"/>
  <circle cx="5" cy="9" r="1" fill="srgba(98.2223%,81.8509%,81.8509%,1)"/>
  <circle cx="6" cy="9" r="1" fill="srgba(98.1338%,80.9415%,80.9415%,1)"/>
  <circle cx="7" cy="9" r="1" fill="srgba(98.0514%,80.0183%,80.0183%,1)"/>
  <circle cx="8" cy="9" r="1" fill="srgba(98.0423%,79.9344%,79.9344%,1)"/>
  <circle cx="9" cy="9" r="1" fill="srgba(98.1308%,80.8743%,80.8743%,1)"/>
  <circle cx="10" cy="9" r="1" fill="srgba(98.2162%,81.7716%,81.7716%,1)"/>
  <circle cx="11" cy="9" r="1" fill="srgba(97.8012%,77.4807%,77.4746%,1)"/>
  <circle cx="12" cy="9" r="1" fill="srgba(97.4151%,73.5531%,73.6446%,1)"/>
  <circle cx="13" cy="9" r="1" fill="srgba(92.9473%,28.1682%,29.5323%,1)"/>
  <circle cx="14" cy="9" r="1" fill="srgba(90.1595%,0.201419%,1.95926%,1)"/>
  <circle cx="15" cy="9" r="1" fill="srgba(90.1518%,0%,2.24308%,1)"/>
  <circle cx="0" cy="10" r="1" fill="srgba(90.8171%,0%,1.944%,1)"/>
  <circle cx="1" cy="10" r="1" fill="srgba(93.8079%,30.425%,31.5602%,1)"/>
  <circle cx="2" cy="10" r="1" fill="srgba(99.0082%,83.3631%,83.1678%,1)"/>
  <circle cx="3" cy="10" r="1" fill="srgba(99.144%,85.8534%,85.4871%,1)"/>
  <circle cx="4" cy="10" r="1" fill="srgba(99.1073%,85.5924%,85.2354%,1)"/>
  <circle cx="5" cy="10" r="1" fill="srgba(99.7711%,91.1376%,90.7744%,1)"/>
  <circle cx="6" cy="10" r="1" fill="srgba(99.762%,91.0292%,90.6615%,1)"/>
  <circle cx="7" cy="10" r="1" fill="srgba(99.4476%,89.2393%,88.9525%,1)"/>
  <circle cx="8" cy="10" r="1" fill="srgba(99.4324%,89.163%,88.8823%,1)"/>
  <circle cx="9" cy="10" r="1" fill="srgba(99.762%,91.0231%,90.6569%,1)"/>
  <circle cx="10" cy="10" r="1" fill="srgba(99.7726%,91.1421%,90.779%,1)"/>
  <circle cx="11" cy="10" r="1" fill="srgba(99.0799%,85.417%,85.0614%,1)"/>
  <circle cx="12" cy="10" r="1" fill="srgba(99.1333%,86.0243%,85.655%,1)"/>
  <circle cx="13" cy="10" r="1" fill="srgba(98.9578%,82.8428%,82.6627%,1)"/>
  <circle cx="14" cy="10" r="1" fill="srgba(93.7896%,30.2342%,31.3787%,1)"/>
  <circle cx="15" cy="10" r="1" fill="srgba(90.7851%,0%,1.95621%,1)"/>
  <circle cx="0" cy="11" r="1" fill="srgba(80.6653%,1.62814%,9.12642%,1)"/>
  <circle cx="1" cy="11" r="1" fill="srgba(83.3249%,28.7892%,35.5306%,1)"/>
  <circle cx="2" cy="11" r="1" fill="srgba(84.5243%,41.0285%,47.4907%,1)"/>
  <circle cx="3" cy="11" r="1" fill="srgba(84.1718%,37.3877%,43.8682%,1)"/>
  <circle cx="4" cy="11" r="1" fill="srgba(84.1703%,37.3938%,43.8758%,1)"/>
  <circle cx="5" cy="11" r="1" fill="srgba(84.4358%,40.1236%,46.6087%,1)"/>
  <circle cx="6" cy="11" r="1" fill="srgba(84.4312%,40.0778%,46.5629%,1)"/>
  <circle cx="7" cy="11" r="1" fill="srgba(84.3122%,38.8556%,45.3376%,1)"/>
  <circle cx="8" cy="11" r="1" fill="srgba(84.3061%,38.7839%,45.2644%,1)"/>
  <circle cx="9" cy="11" r="1" fill="srgba(84.4312%,40.0748%,46.5599%,1)"/>
  <circle cx="10" cy="11" r="1" fill="srgba(84.4358%,40.1221%,46.6072%,1)"/>
  <circle cx="11" cy="11" r="1" fill="srgba(84.1642%,37.4014%,43.8834%,1)"/>
  <circle cx="12" cy="11" r="1" fill="srgba(84.1627%,37.38%,43.8605%,1)"/>
  <circle cx="13" cy="11" r="1" fill="srgba(84.5274%,41.0605%,47.5212%,1)"/>
  <circle cx="14" cy="11" r="1" fill="srgba(83.3219%,28.7465%,35.491%,1)"/>
  <circle cx="15" cy="11" r="1" fill="srgba(80.6409%,1.61135%,9.1249%,1)"/>
  <circle cx="0" cy="12" r="1" fill="srgba(20.1038%,0%,39.942%,1)"/>
  <circle cx="1" cy="12" r="1" fill="srgba(20.0061%,0%,38.9746%,1)"/>
  <circle cx="2" cy="12" r="1" fill="srgba(19.9527%,0%,38.4436%,1)"/>
  <circle cx="3" cy="12" r="1" fill="srgba(19.9634%,0%,38.5534%,1)"/>
  <circle cx="4" cy="12" r="1" fill="srgba(19.9634%,0%,38.5534%,1)"/>
  <circle cx="5" cy="12" r="1" fill="srgba(19.9542%,0%,38.4604%,1)"/>
  <circle cx="6" cy="12" r="1" fill="srgba(19.9542%,0%,38.4619%,1)"/>
  <circle cx="7" cy="12" r="1" fill="srgba(19.9573%,0%,38.4939%,1)"/>
  <circle cx="8" cy="12" r="1" fill="srgba(19.9573%,0%,38.4955%,1)"/>
  <circle cx="9" cy="12" r="1" fill="srgba(19.9542%,0%,38.4634%,1)"/>
  <circle cx="10" cy="12" r="1" fill="srgba(19.9542%,0%,38.4604%,1)"/>
  <circle cx="11" cy="12" r="1" fill="srgba(19.9634%,0%,38.5534%,1)"/>
  <circle cx="12" cy="12" r="1" fill="srgba(19.9634%,0%,38.5534%,1)"/>
  <circle cx="13" cy="12" r="1" fill="srgba(19.9527%,0%,38.4436%,1)"/>
  <circle cx="14" cy="12" r="1" fill="srgba(20.0046%,0%,38.9761%,1)"/>
  <circle cx="15" cy="12" r="1" fill="srgba(20.1266%,0.0274662%,39.9588%,1)"/>
  <circle cx="0" cy="13" r="1" fill="srgba(9.97177%,0%,45.4292%,1)"/>
  <circle cx="1" cy="13" r="1" fill="srgba(9.97177%,0%,45.4292%,1)"/>
  <circle cx="2" cy="13" r="1" fill="srgba(9.97177%,0%,45.4292%,1)"/>
  <circle cx="3" cy="13" r="1" fill="srgba(9.97177%,0%,45.4292%,1)"/>
  <circle cx="4" cy="13" r="1" fill="srgba(9.97177%,0%,45.4292%,1)"/>
  <circle cx="5" cy="13" r="1" fill="srgba(9.97177%,0%,45.4292%,1)"/>
  <circle cx="6" cy="13" r="1" fill="srgba(9.97177%,0%,45.4292%,1)"/>
  <circle cx="7" cy="13" r="1" fill="srgba(9.97177%,0%,45.4292%,1)"/>
  <circle cx="8" cy="13" r="1" fill="srgba(9.97177%,0%,45.4292%,1)"/>
  <circle cx="9" cy="13" r="1" fill="srgba(9.97177%,0%,45.4292%,1)"/>
  <circle cx="10" cy="13" r="1" fill="srgba(9.97177%,0%,45.4292%,1)"/>
  <circle cx="11" cy="13" r="1" fill="srgba(9.97177%,0%,45.4292%,1)"/>
  <circle cx="12" cy="13" r="1" fill="srgba(9.97177%,0%,45.4292%,1)"/>
  <circle cx="13" cy="13" r="1" fill="srgba(9.97177%,0%,45.4292%,1)"/>
  <circle cx="14" cy="13" r="1" fill="srgba(9.97024%,0%,45.4276%,1)"/>
  <circle cx="15" cy="13" r="1" fill="srgba(10.0023%,0.030518%,45.4444%,1)"/>
  <circle cx="0" cy="14" r="1" fill="srgba(10.5821%,0%,45.0935%,1)"/>
  <circle cx="1" cy="14" r="1" fill="srgba(10.5821%,0%,45.0935%,1)"/>
  <circle cx="2" cy="14" r="1" fill="srgba(10.5821%,0%,45.0935%,1)"/>
  <circle cx="3" cy="14" r="1" fill="srgba(10.5821%,0%,45.0935%,1)"/>
  <circle cx="4" cy="14" r="1" fill="srgba(10.5821%,0%,45.0935%,1)"/>
  <circle cx="5" cy="14" r="1" fill="srgba(10.5821%,0%,45.0935%,1)"/>
  <circle cx="6" cy="14" r="1" fill="srgba(10.5821%,0%,45.0935%,1)"/>
  <circle cx="7" cy="14" r="1" fill="srgba(10.5821%,0%,45.0935%,1)"/>
  <circle cx="8" cy="14" r="1" fill="srgba(10.5821%,0%,45.0935%,1)"/>
  <circle cx="9" cy="14" r="1" fill="srgba(10.5821%,0%,45.0935%,1)"/>
  <circle cx="10" cy="14" r="1" fill="srgba(10.5821%,0%,45.0935%,1)"/>
  <circle cx="11" cy="14" r="1" fill="srgba(10.5821%,0%,45.0935%,1)"/>
  <circle cx="12" cy="14" r="1" fill="srgba(10.5821%,0%,45.0935%,1)"/>
  <circle cx="13" cy="14" r="1" fill="srgba(10.5821%,0%,45.0935%,1)"/>
  <circle cx="14" cy="14" r="1" fill="srgba(10.5806%,0%,45.0919%,1)"/>
  <circle cx="15" cy="14" r="1" fill="srgba(10.6126%,0.030518%,45.1087%,1)"/>
  <circle cx="0" cy="15" r="1" fill="srgba(10.7042%,0.131228%,45.1667%,1)"/>
  <circle cx="1" cy="15" r="1" fill="srgba(10.7042%,0.131228%,45.1667%,1)"/>
  <circle cx="2" cy="15" r="1" fill="srgba(10.7042%,0.131228%,45.1667%,1)"/>
  <circle cx="3" cy="15" r="1" fill="srgba(10.7042%,0.131228%,45.1667%,1)"/>
  <circle cx="4" cy="15" r="1" fill="srgba(10.7042%,0.131228%,45.1667%,1)"/>
  <circle cx="5" cy="15" r="1" fill="srgba(10.7042%,0.131228%,45.1667%,1)"/>
  <circle cx="6" cy="15" r="1" fill="srgba(10.7042%,0.131228%,45.1667%,1)"/>
  <circle cx="7" cy="15" r="1" fill="srgba(10.7042%,0.131228%,45.1667%,1)"/>
  <circle cx="8" cy="15" r="1" fill="srgba(10.7042%,0.131228%,45.1667%,1)"/>
  <circle cx="9" cy="15" r="1" fill="srgba(10.7042%,0.131228%,45.1667%,1)"/>
  <circle cx="10" cy="15" r="1" fill="srgba(10.7042%,0.131228%,45.1667%,1)"/>
  <circle cx="11" cy="15" r="1" fill="srgba(10.7042%,0.131228%,45.1667%,1)"/>
  <circle cx="12" cy="15" r="1" fill="srgba(10.7042%,0.131228%,45.1667%,1)"/>
  <circle cx="13" cy="15" r="1" fill="srgba(10.7042%,0.131228%,45.1667%,1)"/>
  <circle cx="14" cy="15" r="1" fill="srgba(10.7027%,0.129702%,45.1652%,1)"/>
  <circle cx="15" cy="15" r="1" fill="srgba(10.7347%,0.161746%,45.182%,1)"/>
</svg>
