<?xml version="1.0" standalone="no"?>
<!DOCTYPE svg PUBLIC "-//W3C//DTD SVG 20010904//EN"
  "http://www.w3.org/TR/2001/REC-SVG-20010904/DTD/svg10.dtd">
<svg width="16" height="16">
  <circle cx="0" cy="0" r="1" fill="srgba(231,62,45,1)"/>
  <circle cx="1" cy="0" r="1" fill="srgba(231,62,45,1)"/>
  <circle cx="2" cy="0" r="1" fill="srgba(231,62,45,1)"/>
  <circle cx="3" cy="0" r="1" fill="srgba(231,62,45,1)"/>
  <circle cx="4" cy="0" r="1" fill="srgba(90.5882%,24.2924%,17.6425%,1)"/>
  <circle cx="5" cy="0" r="1" fill="srgba(90.576%,24.1688%,17.6181%,1)"/>
  <circle cx="6" cy="0" r="1" fill="srgba(90.5379%,23.8758%,17.5555%,1)"/>
  <circle cx="7" cy="0" r="1" fill="srgba(90.576%,24.1764%,17.6196%,1)"/>
  <circle cx="8" cy="0" r="1" fill="srgba(90.5669%,24.0986%,17.6028%,1)"/>
  <circle cx="9" cy="0" r="1" fill="srgba(90.4936%,23.6027%,17.4975%,1)"/>
  <circle cx="10" cy="0" r="1" fill="srgba(90.4692%,23.4318%,17.4609%,1)"/>
  <circle cx="11" cy="0" r="1" fill="srgba(90.5577%,24.033%,17.5891%,1)"/>
  <circle cx="12" cy="0" r="1" fill="srgba(90.5898%,24.329%,17.6501%,1)"/>
  <circle cx="13" cy="0" r="1" fill="srgba(231,62,45,1)"/>
  <circle cx="14" cy="0" r="1" fill="srgba(90.5882%,24.3122%,17.6455%,1)"/>
  <circle cx="15" cy="0" r="1" fill="srgba(90.5959%,24.3519%,17.6852%,1)"/>
  <circle cx="0" cy="1" r="1" fill="srgba(231,62,45,1)"/>
  <circle cx="1" cy="1" r="1" fill="srgba(231,62,45,1)"/>
  <circle cx="2" cy="1" r="1" fill="srgba(231,62,45,1)"/>
  <circle cx="3" cy="1" r="1" fill="srgba(90.5852%,24.3122%,17.6455%,1)"/>
  <circle cx="4" cy="1" r="1" fill="srgba(90.6111%,25.0752%,17.7951%,1)"/>
  <circle cx="5" cy="1" r="1" fill="srgba(90.8583%,27.0817%,18.2147%,1)"/>
  <circle cx="6" cy="1" r="1" fill="srgba(91.368%,30.6355%,18.9685%,1)"/>
  <circle cx="7" cy="1" r="1" fill="srgba(90.7347%,26.0136%,17.9919%,1)"/>
  <circle cx="8" cy="1" r="1" fill="srgba(90.8721%,27.1565%,18.2315%,1)"/>
  <circle cx="9" cy="1" r="1" fill="srgba(91.9631%,34.7997%,19.8535%,1)"/>
  <circle cx="10" cy="1" r="1" fill="srgba(92.2652%,38.0362%,20.5142%,1)"/>
  <circle cx="11" cy="1" r="1" fill="srgba(91.0109%,28.716%,18.5473%,1)"/>
  <circle cx="12" cy="1" r="1" fill="srgba(90.5623%,24.0803%,17.5982%,1)"/>
  <circle cx="13" cy="1" r="1" fill="srgba(231,62,45,1)"/>
  <circle cx="14" cy="1" r="1" fill="srgba(90.5882%,24.3122%,17.6455%,1)"/>
  <circle cx="15" cy="1" r="1" fill="srgba(90.5959%,24.3519%,17.6852%,1)"/>
  <circle cx="0" cy="2" r="1" fill="srgba(231,62,45,1)"/>
  <circle cx="1" cy="2" r="1" fill="srgba(231,62,45,1)"/>
  <circle cx="2" cy="2" r="1" fill="srgba(90.5882%,24.3091%,17.6455%,1)"/>
  <circle cx="3" cy="2" r="1" fill="srgba(90.5592%,24.2802%,17.6364%,1)"/>
  <circle cx="4" cy="2" r="1" fill="srgba(90.8522%,30.6233%,18.8815%,1)"/>
  <circle cx="5" cy="2" r="1" fill="srgba(92.2927%,42.3575%,21.3367%,1)"/>
  <circle cx="6" cy="2" r="1" fill="srgba(95.0484%,59.4171%,25.0095%,1)"/>
  <circle cx="7" cy="2" r="1" fill="srgba(95.3857%,58.6465%,24.918%,1)"/>
  <circle cx="8" cy="2" r="1" fill="srgba(96.611%,63.4974%,26.0365%,1)"/>
  <circle cx="9" cy="2" r="1" fill="srgba(96.3806%,64.744%,26.2348%,1)"/>
  <circle cx="10" cy="2" r="1" fill="srgba(93.3883%,49.7505%,22.9114%,1)"/>
  <circle cx="11" cy="2" r="1" fill="srgba(91.046%,29.1539%,18.6358%,1)"/>
  <circle cx="12" cy="2" r="1" fill="srgba(90.5592%,24.033%,17.5891%,1)"/>
  <circle cx="13" cy="2" r="1" fill="srgba(231,62,45,1)"/>
  <circle cx="14" cy="2" r="1" fill="srgba(90.5882%,24.3122%,17.6455%,1)"/>
  <circle cx="15" cy="2" r="1" fill="srgba(90.5959%,24.3519%,17.6852%,1)"/>
  <circle cx="0" cy="3" r="1" fill="srgba(231,62,45,1)"/>
  <circle cx="1" cy="3" r="1" fill="srgba(231,62,45,1)"/>
  <circle cx="2" cy="3" r="1" fill="srgba(231,62,45,1)"/>
  <circle cx="3" cy="3" r="1" fill="srgba(90.5882%,24.3107%,17.6455%,1)"/>
  <circle cx="4" cy="3" r="1" fill="srgba(90.5745%,24.3076%,17.644%,1)"/>
  <circle cx="5" cy="3" r="1" fill="srgba(90.811%,29.6422%,18.6908%,1)"/>
  <circle cx="6" cy="3" r="1" fill="srgba(93.991%,52.7214%,23.5721%,1)"/>
  <circle cx="7" cy="3" r="1" fill="srgba(97.9294%,74.0703%,28.2506%,1)"/>
  <circle cx="8" cy="3" r="1" fill="srgba(98.3444%,75.5657%,28.6015%,1)"/>
  <circle cx="9" cy="3" r="1" fill="srgba(96.3317%,66.334%,26.5293%,1)"/>
  <circle cx="10" cy="3" r="1" fill="srgba(91.5068%,34.0444%,19.6368%,1)"/>
  <circle cx="11" cy="3" r="1" fill="srgba(90.4921%,23.4943%,17.4762%,1)"/>
  <circle cx="12" cy="3" r="1" fill="srgba(90.5898%,24.3259%,17.6501%,1)"/>
  <circle cx="13" cy="3" r="1" fill="srgba(231,62,45,1)"/>
  <circle cx="14" cy="3" r="1" fill="srgba(90.5882%,24.3122%,17.6455%,1)"/>
  <circle cx="15" cy="3" r="1" fill="srgba(90.5959%,24.3519%,17.6852%,1)"/>
  <circle cx="0" cy="4" r="1" fill="srgba(231,62,45,1)"/>
  <circle cx="1" cy="4" r="1" fill="srgba(231,62,45,1)"/>
  <circle cx="2" cy="4" r="1" fill="srgba(231,62,45,1)"/>
  <circle cx="3" cy="4" r="1" fill="srgba(231,62,45,1)"/>
  <circle cx="4" cy="4" r="1" fill="srgba(90.5898%,24.3153%,17.6486%,1)"/>
  <circle cx="5" cy="4" r="1" fill="srgba(90.5547%,23.8392%,17.5525%,1)"/>
  <circle cx="6" cy="4" r="1" fill="srgba(90.6844%,26.3172%,18.0438%,1)"/>
  <circle cx="7" cy="4" r="1" fill="srgba(92.1874%,39.4354%,20.766%,1)"/>
  <circle cx="8" cy="4" r="1" fill="srgba(93.7987%,49.7948%,22.9831%,1)"/>
  <circle cx="9" cy="4" r="1" fill="srgba(98.4436%,73.2952%,28.1926%,1)"/>
  <circle cx="10" cy="4" r="1" fill="srgba(91.9829%,34.9081%,19.8795%,1)"/>
  <circle cx="11" cy="4" r="1" fill="srgba(90.4997%,23.6561%,17.5082%,1)"/>
  <circle cx="12" cy="4" r="1" fill="srgba(231,62,45,1)"/>
  <circle cx="13" cy="4" r="1" fill="srgba(231,62,45,1)"/>
  <circle cx="14" cy="4" r="1" fill="srgba(90.5882%,24.3122%,17.6455%,1)"/>
  <circle cx="15" cy="4" r="1" fill="srgba(90.5959%,24.3519%,17.6852%,1)"/>
  <circle cx="0" cy="5" r="1" fill="srgba(231,62,45,1)"/>
  <circle cx="1" cy="5" r="1" fill="srgba(231,62,45,1)"/>
  <circle cx="2" cy="5" r="1" fill="srgba(231,62,45,1)"/>
  <circle cx="3" cy="5" r="1" fill="srgba(90.5882%,24.3091%,17.6455%,1)"/>
  <circle cx="4" cy="5" r="1" fill="srgba(90.5699%,24.1962%,17.6226%,1)"/>
  <circle cx="5" cy="5" r="1" fill="srgba(90.6416%,28.2719%,18.3948%,1)"/>
  <circle cx="6" cy="5" r="1" fill="srgba(92.2377%,44.4022%,21.6464%,1)"/>
  <circle cx="7" cy="5" r="1" fill="srgba(93.9162%,55.8587%,24.0269%,1)"/>
  <circle cx="8" cy="5" r="1" fill="srgba(95.3002%,63.476%,25.7099%,1)"/>
  <circle cx="9" cy="5" r="1" fill="srgba(98.2147%,73.1655%,28.1224%,1)"/>
  <circle cx="10" cy="5" r="1" fill="srgba(91.6442%,34.905%,19.8215%,1)"/>
  <circle cx="11" cy="5" r="1" fill="srgba(90.515%,23.6423%,17.5082%,1)"/>
  <circle cx="12" cy="5" r="1" fill="srgba(90.5882%,24.3168%,17.6471%,1)"/>
  <circle cx="13" cy="5" r="1" fill="srgba(231,62,45,1)"/>
  <circle cx="14" cy="5" r="1" fill="srgba(90.5882%,24.3122%,17.6455%,1)"/>
  <circle cx="15" cy="5" r="1" fill="srgba(90.5959%,24.3519%,17.6852%,1)"/>
  <circle cx="0" cy="6" r="1" fill="srgba(231,62,45,1)"/>
  <circle cx="1" cy="6" r="1" fill="srgba(231,62,45,1)"/>
  <circle cx="2" cy="6" r="1" fill="srgba(231,62,45,1)"/>
  <circle cx="3" cy="6" r="1" fill="srgba(90.5821%,24.1489%,17.615%,1)"/>
  <circle cx="4" cy="6" r="1" fill="srgba(90.605%,27.7012%,18.2818%,1)"/>
  <circle cx="5" cy="6" r="1" fill="srgba(93.5134%,53.579%,23.5492%,1)"/>
  <circle cx="6" cy="6" r="1" fill="srgba(96.8704%,73.5134%,27.7714%,1)"/>
  <circle cx="7" cy="6" r="1" fill="srgba(97.5723%,76.7529%,28.4779%,1)"/>
  <circle cx="8" cy="6" r="1" fill="srgba(97.6562%,76.7361%,28.5344%,1)"/>
  <circle cx="9" cy="6" r="1" fill="srgba(98.6831%,76.5743%,28.8197%,1)"/>
  <circle cx="10" cy="6" r="1" fill="srgba(93.2677%,51.1849%,23.0991%,1)"/>
  <circle cx="11" cy="6" r="1" fill="srgba(90.4845%,26.2669%,17.9934%,1)"/>
  <circle cx="12" cy="6" r="1" fill="srgba(90.5715%,23.9643%,17.5784%,1)"/>
  <circle cx="13" cy="6" r="1" fill="srgba(90.5715%,24.1169%,17.6074%,1)"/>
  <circle cx="14" cy="6" r="1" fill="srgba(90.5715%,24.1154%,17.6059%,1)"/>
  <circle cx="15" cy="6" r="1" fill="srgba(90.5791%,24.155%,17.6455%,1)"/>
  <circle cx="0" cy="7" r="1" fill="srgba(90.5119%,23.6988%,16.9787%,1)"/>
  <circle cx="1" cy="7" r="1" fill="srgba(90.5791%,24.2435%,17.5708%,1)"/>
  <circle cx="2" cy="7" r="1" fill="srgba(90.5791%,24.2206%,17.5555%,1)"/>
  <circle cx="3" cy="7" r="1" fill="srgba(90.4051%,23.209%,16.7544%,1)"/>
  <circle cx="4" cy="7" r="1" fill="srgba(91.7845%,40.2213%,19.8108%,1)"/>
  <circle cx="5" cy="7" r="1" fill="srgba(96.6644%,72.076%,26.5232%,1)"/>
  <circle cx="6" cy="7" r="1" fill="srgba(97.9706%,77.0031%,28.1346%,1)"/>
  <circle cx="7" cy="7" r="1" fill="srgba(99.1394%,77.6959%,28.8808%,1)"/>
  <circle cx="8" cy="7" r="1" fill="srgba(98.9136%,77.5402%,28.864%,1)"/>
  <circle cx="9" cy="7" r="1" fill="srgba(98.97%,77.966%,29.1234%,1)"/>
  <circle cx="10" cy="7" r="1" fill="srgba(96.1761%,69.9138%,26.6545%,1)"/>
  <circle cx="11" cy="7" r="1" fill="srgba(91.6579%,38.5275%,19.6063%,1)"/>
  <circle cx="12" cy="7" r="1" fill="srgba(90.9438%,27.7058%,18.1537%,1)"/>
  <circle cx="13" cy="7" r="1" fill="srgba(91.0353%,28.3635%,18.471%,1)"/>
  <circle cx="14" cy="7" r="1" fill="srgba(91.0246%,28.3894%,18.4741%,1)"/>
  <circle cx="15" cy="7" r="1" fill="srgba(91.0048%,28.3696%,18.4955%,1)"/>
  <circle cx="0" cy="8" r="1" fill="srgba(91.8456%,34.4182%,28.6427%,1)"/>
  <circle cx="1" cy="8" r="1" fill="srgba(90.7027%,25.2399%,18.6542%,1)"/>
  <circle cx="2" cy="8" r="1" fill="srgba(90.7195%,25.3834%,18.8281%,1)"/>
  <circle cx="3" cy="8" r="1" fill="srgba(92.6528%,37.3312%,31.6838%,1)"/>
  <circle cx="4" cy="8" r="1" fill="srgba(97.0748%,69.0501%,57.0504%,1)"/>
  <circle cx="5" cy="8" r="1" fill="srgba(99.6857%,87.509%,60.0351%,1)"/>
  <circle cx="6" cy="8" r="1" fill="srgba(99.5102%,80.3891%,37.0047%,1)"/>
  <circle cx="7" cy="8" r="1" fill="srgba(99.6262%,77.8866%,28.455%,1)"/>
  <circle cx="8" cy="8" r="1" fill="srgba(99.3378%,77.7676%,28.2795%,1)"/>
  <circle cx="9" cy="8" r="1" fill="srgba(98.9578%,76.3821%,28.0888%,1)"/>
  <circle cx="10" cy="8" r="1" fill="srgba(98.764%,79.2828%,45.6764%,1)"/>
  <circle cx="11" cy="8" r="1" fill="srgba(98.2895%,75.9915%,49.9947%,1)"/>
  <circle cx="12" cy="8" r="1" fill="srgba(94.9142%,56.1471%,26.7521%,1)"/>
  <circle cx="13" cy="8" r="1" fill="srgba(93.7423%,49.1783%,22.1866%,1)"/>
  <circle cx="14" cy="8" r="1" fill="srgba(94.0536%,46.038%,21.5503%,1)"/>
  <circle cx="15" cy="8" r="1" fill="srgba(93.8567%,43.0762%,21.062%,1)"/>
  <circle cx="0" cy="9" r="1" fill="srgba(98.6923%,89.7078%,88.8075%,1)"/>
  <circle cx="1" cy="9" r="1" fill="srgba(97.4151%,75.3048%,72.9992%,1)"/>
  <circle cx="2" cy="9" r="1" fill="srgba(98.265%,76.4691%,74.0764%,1)"/>
  <circle cx="3" cy="9" r="1" fill="srgba(89.8192%,85.9022%,86.9169%,1)"/>
  <circle cx="4" cy="9" r="1" fill="srgba(64.0681%,76.701%,83.8697%,1)"/>
  <circle cx="5" cy="9" r="1" fill="srgba(64.4373%,76.9177%,83.7293%,1)"/>
  <circle cx="6" cy="9" r="1" fill="srgba(92.9442%,91.7144%,84.2313%,1)"/>
  <circle cx="7" cy="9" r="1" fill="srgba(99.2142%,91.0704%,70.4234%,1)"/>
  <circle cx="8" cy="9" r="1" fill="srgba(75.9533%,72.5841%,50.0664%,1)"/>
  <circle cx="9" cy="9" r="1" fill="srgba(84.419%,68.2765%,31.1666%,1)"/>
  <circle cx="10" cy="9" r="1" fill="srgba(61.9898%,62.1668%,61.2085%,1)"/>
  <circle cx="11" cy="9" r="1" fill="srgba(75.3506%,82.768%,86.3401%,1)"/>
  <circle cx="12" cy="9" r="1" fill="srgba(97.0993%,81.4694%,77.8027%,1)"/>
  <circle cx="13" cy="9" r="1" fill="srgba(89.1356%,63.9963%,61.2909%,1)"/>
  <circle cx="14" cy="9" r="1" fill="srgba(49.8009%,34.3755%,39.2416%,1)"/>
  <circle cx="15" cy="9" r="1" fill="srgba(43.1678%,29.72%,36.1913%,1)"/>
  <circle cx="0" cy="10" r="1" fill="white"/>
  <circle cx="1" cy="10" r="1" fill="srgba(87.9881%,92.6833%,94.995%,1)"/>
  <circle cx="2" cy="10" r="1" fill="srgba(48.8563%,67.8431%,77.6089%,1)"/>
  <circle cx="3" cy="10" r="1" fill="srgba(25.9907%,52.2881%,66.2776%,1)"/>
  <circle cx="4" cy="10" r="1" fill="srgba(25.8762%,51.7601%,65.713%,1)"/>
  <circle cx="5" cy="10" r="1" fill="srgba(25.6596%,51.6152%,65.6336%,1)"/>
  <circle cx="6" cy="10" r="1" fill="srgba(29.1463%,54.0963%,67.9377%,1)"/>
  <circle cx="7" cy="10" r="1" fill="srgba(64.3244%,77.2564%,84.9882%,1)"/>
  <circle cx="8" cy="10" r="1" fill="srgba(85.2369%,88.0415%,85.5634%,1)"/>
  <circle cx="9" cy="10" r="1" fill="srgba(78.5397%,70.7271%,40.5783%,1)"/>
  <circle cx="10" cy="10" r="1" fill="srgba(35.1247%,55.8526%,63.6484%,1)"/>
  <circle cx="11" cy="10" r="1" fill="srgba(22.948%,50.1061%,64.9531%,1)"/>
  <circle cx="12" cy="10" r="1" fill="srgba(36.7102%,59.7024%,71.8242%,1)"/>
  <circle cx="13" cy="10" r="1" fill="srgba(78.1338%,86.6346%,90.8461%,1)"/>
  <circle cx="14" cy="10" r="1" fill="srgba(39.4507%,61.117%,72.755%,1)"/>
  <circle cx="15" cy="10" r="1" fill="srgba(8.04456%,40.3037%,57.9919%,1)"/>
  <circle cx="0" cy="11" r="1" fill="white"/>
  <circle cx="1" cy="11" r="1" fill="srgba(78.0987%,85.742%,89.865%,1)"/>
  <circle cx="2" cy="11" r="1" fill="srgba(46.7521%,65.3361%,75.3597%,1)"/>
  <circle cx="3" cy="11" r="1" fill="srgba(71.2932%,81.3123%,86.7155%,1)"/>
  <circle cx="4" cy="11" r="1" fill="srgba(78.5641%,86.0456%,90.0801%,1)"/>
  <circle cx="5" cy="11" r="1" fill="srgba(77.6654%,85.4597%,89.6651%,1)"/>
  <circle cx="6" cy="11" r="1" fill="srgba(62.0417%,75.2895%,82.4353%,1)"/>
  <circle cx="7" cy="11" r="1" fill="srgba(50.9178%,68.1727%,77.6822%,1)"/>
  <circle cx="8" cy="11" r="1" fill="srgba(96.2356%,95.3735%,91.3039%,1)"/>
  <circle cx="9" cy="11" r="1" fill="srgba(90.7164%,79.5529%,49.1127%,1)"/>
  <circle cx="10" cy="11" r="1" fill="srgba(65.7496%,75.8663%,78.2879%,1)"/>
  <circle cx="11" cy="11" r="1" fill="srgba(75.6649%,84.2618%,89.0654%,1)"/>
  <circle cx="12" cy="11" r="1" fill="srgba(51.5373%,68.452%,77.5753%,1)"/>
  <circle cx="13" cy="11" r="1" fill="srgba(71.6426%,81.5396%,86.8772%,1)"/>
  <circle cx="14" cy="11" r="1" fill="srgba(75.4162%,83.9948%,88.6229%,1)"/>
  <circle cx="15" cy="11" r="1" fill="srgba(29.3004%,53.9742%,67.2831%,1)"/>
  <circle cx="0" cy="12" r="1" fill="white"/>
  <circle cx="1" cy="12" r="1" fill="srgba(94.4152%,96.3638%,97.4151%,1)"/>
  <circle cx="2" cy="12" r="1" fill="srgba(71.0826%,81.1749%,86.6194%,1)"/>
  <circle cx="3" cy="12" r="1" fill="srgba(40.4486%,61.2329%,72.4422%,1)"/>
  <circle cx="4" cy="12" r="1" fill="srgba(17.7752%,46.4729%,61.9501%,1)"/>
  <circle cx="5" cy="12" r="1" fill="srgba(17.8943%,46.5507%,62.0066%,1)"/>
  <circle cx="6" cy="12" r="1" fill="srgba(45.6977%,64.6494%,74.8714%,1)"/>
  <circle cx="7" cy="12" r="1" fill="srgba(80.3204%,87.2847%,91.1955%,1)"/>
  <circle cx="8" cy="12" r="1" fill="srgba(98.9487%,97.5357%,93.8369%,1)"/>
  <circle cx="9" cy="12" r="1" fill="srgba(96.6003%,84.4724%,55.433%,1)"/>
  <circle cx="10" cy="12" r="1" fill="srgba(44.5792%,62.3499%,69.34%,1)"/>
  <circle cx="11" cy="12" r="1" fill="srgba(23.1357%,50.0465%,64.6921%,1)"/>
  <circle cx="12" cy="12" r="1" fill="srgba(57.763%,72.5048%,80.4547%,1)"/>
  <circle cx="13" cy="12" r="1" fill="srgba(89.0562%,92.8756%,94.9355%,1)"/>
  <circle cx="14" cy="12" r="1" fill="srgba(95.4467%,97.0367%,97.8927%,1)"/>
  <circle cx="15" cy="12" r="1" fill="srgba(44.0436%,63.5737%,74.1054%,1)"/>
  <circle cx="0" cy="13" r="1" fill="srgba(99.9207%,99.9481%,99.9634%,1)"/>
  <circle cx="1" cy="13" r="1" fill="srgba(67.6829%,78.9609%,85.0446%,1)"/>
  <circle cx="2" cy="13" r="1" fill="srgba(27.4083%,52.7443%,66.4103%,1)"/>
  <circle cx="3" cy="13" r="1" fill="srgba(51.6014%,68.4932%,77.6043%,1)"/>
  <circle cx="4" cy="13" r="1" fill="srgba(77.3953%,85.2842%,89.5399%,1)"/>
  <circle cx="5" cy="13" r="1" fill="srgba(76.1761%,84.4907%,88.9754%,1)"/>
  <circle cx="6" cy="13" r="1" fill="srgba(41.9913%,62.237%,73.1563%,1)"/>
  <circle cx="7" cy="13" r="1" fill="srgba(36.5423%,58.7579%,70.8492%,1)"/>
  <circle cx="8" cy="13" r="1" fill="srgba(94.583%,95.079%,93.051%,1)"/>
  <circle cx="9" cy="13" r="1" fill="srgba(96.5118%,85.6825%,59.5712%,1)"/>
  <circle cx="10" cy="13" r="1" fill="srgba(73.2555%,81.2696%,83.4195%,1)"/>
  <circle cx="11" cy="13" r="1" fill="srgba(65.7542%,77.7707%,84.3534%,1)"/>
  <circle cx="12" cy="13" r="1" fill="srgba(29.8207%,54.3145%,67.5242%,1)"/>
  <circle cx="13" cy="13" r="1" fill="srgba(60.3799%,74.2077%,81.6663%,1)"/>
  <circle cx="14" cy="13" r="1" fill="srgba(89.8665%,93.4035%,95.3109%,1)"/>
  <circle cx="15" cy="13" r="1" fill="srgba(38.8434%,60.1877%,71.7006%,1)"/>
  <circle cx="0" cy="14" r="1" fill="srgba(92.7749%,95.2972%,96.6567%,1)"/>
  <circle cx="1" cy="14" r="1" fill="srgba(72.6421%,82.1912%,87.3396%,1)"/>
  <circle cx="2" cy="14" r="1" fill="srgba(84.0314%,89.604%,92.6116%,1)"/>
  <circle cx="3" cy="14" r="1" fill="srgba(62.6612%,75.6924%,82.7222%,1)"/>
  <circle cx="4" cy="14" r="1" fill="srgba(27.4342%,52.7611%,66.4195%,1)"/>
  <circle cx="5" cy="14" r="1" fill="srgba(27.6448%,52.8969%,66.5187%,1)"/>
  <circle cx="6" cy="14" r="1" fill="srgba(66.1845%,77.9873%,84.3519%,1)"/>
  <circle cx="7" cy="14" r="1" fill="srgba(81.2848%,87.8599%,91.4717%,1)"/>
  <circle cx="8" cy="14" r="1" fill="srgba(94.3282%,95.2819%,94.1176%,1)"/>
  <circle cx="9" cy="14" r="1" fill="srgba(97.3526%,87.8126%,65.1896%,1)"/>
  <circle cx="10" cy="14" r="1" fill="srgba(47.9957%,65.0889%,72.5841%,1)"/>
  <circle cx="11" cy="14" r="1" fill="srgba(39.2325%,60.4868%,72.0165%,1)"/>
  <circle cx="12" cy="14" r="1" fill="srgba(76.4645%,84.6784%,89.1081%,1)"/>
  <circle cx="13" cy="14" r="1" fill="srgba(73.1914%,82.5467%,87.5944%,1)"/>
  <circle cx="14" cy="14" r="1" fill="srgba(74.8272%,83.6133%,88.3513%,1)"/>
  <circle cx="15" cy="14" r="1" fill="srgba(44.6815%,63.9902%,74.4015%,1)"/>
  <circle cx="0" cy="15" r="1" fill="srgba(91.4366%,94.403%,96.022%,1)"/>
  <circle cx="1" cy="15" r="1" fill="srgba(58.8602%,73.1746%,80.9323%,1)"/>
  <circle cx="2" cy="15" r="1" fill="srgba(18.3932%,46.8971%,62.2522%,1)"/>
  <circle cx="3" cy="15" r="1" fill="srgba(2.66117%,36.2371%,54.6761%,1)"/>
  <circle cx="4" cy="15" r="1" fill="srgba(0%,33.8399%,52.9717%,1)"/>
  <circle cx="5" cy="15" r="1" fill="srgba(0%,33.8293%,52.9641%,1)"/>
  <circle cx="6" cy="15" r="1" fill="srgba(4.64942%,37.6165%,55.6573%,1)"/>
  <circle cx="7" cy="15" r="1" fill="srgba(31.9158%,55.7107%,68.5725%,1)"/>
  <circle cx="8" cy="15" r="1" fill="srgba(90.0649%,92.8191%,93.1609%,1)"/>
  <circle cx="9" cy="15" r="1" fill="srgba(97.7005%,89.8787%,71.3771%,1)"/>
  <circle cx="10" cy="15" r="1" fill="srgba(35.259%,56.6049%,67.187%,1)"/>
  <circle cx="11" cy="15" r="1" fill="srgba(0%,33.2143%,52.5917%,1)"/>
  <circle cx="12" cy="15" r="1" fill="srgba(9.26223%,40.8621%,57.9629%,1)"/>
  <circle cx="13" cy="15" r="1" fill="srgba(48.7739%,66.6575%,76.2997%,1)"/>
  <circle cx="14" cy="15" r="1" fill="srgba(50.9712%,68.0842%,77.3144%,1)"/>
  <circle cx="15" cy="15" r="1" fill="srgba(41.8936%,62.1683%,73.109%,1)"/>
</svg>
