<?xml version="1.0" standalone="no"?>
<!DOCTYPE svg PUBLIC "-//W3C//DTD SVG 20010904//EN"
  "http://www.w3.org/TR/2001/REC-SVG-20010904/DTD/svg10.dtd">
<svg width="16" height="16">
  <circle cx="0" cy="0" r="1" fill="srgba(42.3362%,74.5739%,18.3474%,1)"/>
  <circle cx="1" cy="0" r="1" fill="srgba(84.6769%,93.2433%,4.87678%,1)"/>
  <circle cx="2" cy="0" r="1" fill="yellow"/>
  <circle cx="3" cy="0" r="1" fill="yellow"/>
  <circle cx="4" cy="0" r="1" fill="yellow"/>
  <circle cx="5" cy="0" r="1" fill="yellow"/>
  <circle cx="6" cy="0" r="1" fill="yellow"/>
  <circle cx="7" cy="0" r="1" fill="yellow"/>
  <circle cx="8" cy="0" r="1" fill="yellow"/>
  <circle cx="9" cy="0" r="1" fill="yellow"/>
  <circle cx="10" cy="0" r="1" fill="yellow"/>
  <circle cx="11" cy="0" r="1" fill="yellow"/>
  <circle cx="12" cy="0" r="1" fill="yellow"/>
  <circle cx="13" cy="0" r="1" fill="yellow"/>
  <circle cx="14" cy="0" r="1" fill="yellow"/>
  <circle cx="15" cy="0" r="1" fill="srgba(100%,100%,0.0228885%,1)"/>
  <circle cx="0" cy="1" r="1" fill="srgba(13.3577%,61.799%,27.5669%,1)"/>
  <circle cx="1" cy="1" r="1" fill="srgba(27.7226%,68.1315%,22.9984%,1)"/>
  <circle cx="2" cy="1" r="1" fill="srgba(69.1508%,86.3981%,9.81613%,1)"/>
  <circle cx="3" cy="1" r="1" fill="srgba(97.3373%,98.8266%,0.846876%,1)"/>
  <circle cx="4" cy="1" r="1" fill="yellow"/>
  <circle cx="5" cy="1" r="1" fill="yellow"/>
  <circle cx="6" cy="1" r="1" fill="yellow"/>
  <circle cx="7" cy="1" r="1" fill="yellow"/>
  <circle cx="8" cy="1" r="1" fill="yellow"/>
  <circle cx="9" cy="1" r="1" fill="yellow"/>
  <circle cx="10" cy="1" r="1" fill="yellow"/>
  <circle cx="11" cy="1" r="1" fill="yellow"/>
  <circle cx="12" cy="1" r="1" fill="yellow"/>
  <circle cx="13" cy="1" r="1" fill="yellow"/>
  <circle cx="14" cy="1" r="1" fill="yellow"/>
  <circle cx="15" cy="1" r="1" fill="srgba(100%,100%,0.0228885%,1)"/>
  <circle cx="0" cy="2" r="1" fill="srgba(13.7163%,61.9562%,27.454%,1)"/>
  <circle cx="1" cy="2" r="1" fill="srgba(12.8191%,61.561%,27.7394%,1)"/>
  <circle cx="2" cy="2" r="1" fill="srgba(16.4706%,63.1708%,26.5782%,1)"/>
  <circle cx="3" cy="2" r="1" fill="srgba(46.9123%,76.5927%,16.8917%,1)"/>
  <circle cx="4" cy="2" r="1" fill="srgba(87.7485%,94.5983%,3.89563%,1)"/>
  <circle cx="5" cy="2" r="1" fill="yellow"/>
  <circle cx="6" cy="2" r="1" fill="yellow"/>
  <circle cx="7" cy="2" r="1" fill="yellow"/>
  <circle cx="8" cy="2" r="1" fill="yellow"/>
  <circle cx="9" cy="2" r="1" fill="yellow"/>
  <circle cx="10" cy="2" r="1" fill="yellow"/>
  <circle cx="11" cy="2" r="1" fill="yellow"/>
  <circle cx="12" cy="2" r="1" fill="yellow"/>
  <circle cx="13" cy="2" r="1" fill="yellow"/>
  <circle cx="14" cy="2" r="1" fill="yellow"/>
  <circle cx="15" cy="2" r="1" fill="srgba(100%,100%,0.00762951%,1)"/>
  <circle cx="0" cy="3" r="1" fill="srgba(35,158,70,1)"/>
  <circle cx="1" cy="3" r="1" fill="srgba(13.7484%,61.9715%,27.4571%,1)"/>
  <circle cx="2" cy="3" r="1" fill="srgba(12.871%,61.5839%,27.0558%,1)"/>
  <circle cx="3" cy="3" r="1" fill="srgba(11.7952%,61.1093%,26.8849%,1)"/>
  <circle cx="4" cy="3" r="1" fill="srgba(28.3543%,68.4108%,23.1235%,1)"/>
  <circle cx="5" cy="3" r="1" fill="srgba(70.0145%,86.7781%,10.3136%,1)"/>
  <circle cx="6" cy="3" r="1" fill="srgba(97.5845%,98.9349%,10.6844%,1)"/>
  <circle cx="7" cy="3" r="1" fill="srgba(100%,100%,12.9381%,1)"/>
  <circle cx="8" cy="3" r="1" fill="srgba(100%,100%,12.2835%,1)"/>
  <circle cx="9" cy="3" r="1" fill="srgba(100%,100%,12.285%,1)"/>
  <circle cx="10" cy="3" r="1" fill="srgba(100%,100%,12.285%,1)"/>
  <circle cx="11" cy="3" r="1" fill="srgba(100%,100%,12.285%,1)"/>
  <circle cx="12" cy="3" r="1" fill="srgba(100%,100%,12.285%,1)"/>
  <circle cx="13" cy="3" r="1" fill="srgba(100%,100%,12.285%,1)"/>
  <circle cx="14" cy="3" r="1" fill="srgba(100%,100%,12.2835%,1)"/>
  <circle cx="15" cy="3" r="1" fill="srgba(100%,100%,12.3049%,1)"/>
  <circle cx="0" cy="4" r="1" fill="srgba(13.7392%,61.9669%,27.4632%,1)"/>
  <circle cx="1" cy="4" r="1" fill="srgba(13.0663%,61.6693%,26.8971%,1)"/>
  <circle cx="2" cy="4" r="1" fill="srgba(22.9969%,66.0487%,35.2453%,1)"/>
  <circle cx="3" cy="4" r="1" fill="srgba(45.4337%,75.9411%,54.1299%,1)"/>
  <circle cx="4" cy="4" r="1" fill="srgba(28.0323%,68.2689%,40.5142%,1)"/>
  <circle cx="5" cy="4" r="1" fill="srgba(16.7468%,63.2929%,26.8971%,1)"/>
  <circle cx="6" cy="4" r="1" fill="srgba(47.982%,77.0642%,44.7059%,1)"/>
  <circle cx="7" cy="4" r="1" fill="srgba(88.4367%,94.902%,78.5122%,1)"/>
  <circle cx="8" cy="4" r="1" fill="srgba(100%,100%,89.0623%,1)"/>
  <circle cx="9" cy="4" r="1" fill="srgba(100%,100%,88.3116%,1)"/>
  <circle cx="10" cy="4" r="1" fill="srgba(100%,100%,88.1407%,1)"/>
  <circle cx="11" cy="4" r="1" fill="srgba(100%,100%,88.1483%,1)"/>
  <circle cx="12" cy="4" r="1" fill="srgba(100%,100%,88.1483%,1)"/>
  <circle cx="13" cy="4" r="1" fill="srgba(100%,100%,88.1483%,1)"/>
  <circle cx="14" cy="4" r="1" fill="srgba(100%,100%,88.1483%,1)"/>
  <circle cx="15" cy="4" r="1" fill="srgba(100%,100%,88.1514%,1)"/>
  <circle cx="0" cy="5" r="1" fill="srgba(12.9198%,61.6052%,26.7735%,1)"/>
  <circle cx="1" cy="5" r="1" fill="srgba(26.0487%,67.3945%,37.8149%,1)"/>
  <circle cx="2" cy="5" r="1" fill="srgba(77.5189%,90.0893%,81.0971%,1)"/>
  <circle cx="3" cy="5" r="1" fill="srgba(56.5209%,80.8301%,63.4363%,1)"/>
  <circle cx="4" cy="5" r="1" fill="srgba(26.4424%,67.5669%,38.1338%,1)"/>
  <circle cx="5" cy="5" r="1" fill="srgba(13.785%,61.9867%,27.7379%,1)"/>
  <circle cx="6" cy="5" r="1" fill="srgba(12.8511%,61.5747%,27.4601%,1)"/>
  <circle cx="7" cy="5" r="1" fill="srgba(28.8151%,68.6137%,40.9094%,1)"/>
  <circle cx="8" cy="5" r="1" fill="srgba(71.0185%,87.2221%,76.4019%,1)"/>
  <circle cx="9" cy="5" r="1" fill="srgba(97.8378%,99.0463%,98.5107%,1)"/>
  <circle cx="10" cy="5" r="1" fill="white"/>
  <circle cx="11" cy="5" r="1" fill="white"/>
  <circle cx="12" cy="5" r="1" fill="white"/>
  <circle cx="13" cy="5" r="1" fill="white"/>
  <circle cx="14" cy="5" r="1" fill="white"/>
  <circle cx="15" cy="5" r="1" fill="white"/>
  <circle cx="0" cy="6" r="1" fill="srgba(14.1741%,62.1592%,27.8294%,1)"/>
  <circle cx="1" cy="6" r="1" fill="srgba(64.1947%,84.213%,69.8924%,1)"/>
  <circle cx="2" cy="6" r="1" fill="srgba(80.7645%,91.519%,83.8239%,1)"/>
  <circle cx="3" cy="6" r="1" fill="srgba(21.4481%,65.3651%,33.9452%,1)"/>
  <circle cx="4" cy="6" r="1" fill="srgba(39.0997%,73.1487%,48.7877%,1)"/>
  <circle cx="5" cy="6" r="1" fill="srgba(18.6481%,64.1321%,31.5908%,1)"/>
  <circle cx="6" cy="6" r="1" fill="srgba(13.4401%,61.8341%,27.2099%,1)"/>
  <circle cx="7" cy="6" r="1" fill="srgba(12.7489%,61.5305%,26.6285%,1)"/>
  <circle cx="8" cy="6" r="1" fill="srgba(17.1893%,63.4882%,30.3639%,1)"/>
  <circle cx="9" cy="6" r="1" fill="srgba(49.0974%,77.5555%,57.1954%,1)"/>
  <circle cx="10" cy="6" r="1" fill="srgba(89.1035%,95.1949%,90.837%,1)"/>
  <circle cx="11" cy="6" r="1" fill="white"/>
  <circle cx="12" cy="6" r="1" fill="white"/>
  <circle cx="13" cy="6" r="1" fill="white"/>
  <circle cx="14" cy="6" r="1" fill="white"/>
  <circle cx="15" cy="6" r="1" fill="white"/>
  <circle cx="0" cy="7" r="1" fill="srgba(20.8515%,65.1026%,33.4432%,1)"/>
  <circle cx="1" cy="7" r="1" fill="srgba(84.8417%,93.3165%,87.2526%,1)"/>
  <circle cx="2" cy="7" r="1" fill="srgba(63.3021%,83.8193%,69.1402%,1)"/>
  <circle cx="3" cy="7" r="1" fill="srgba(16.1044%,63.0091%,29.4514%,1)"/>
  <circle cx="4" cy="7" r="1" fill="srgba(37.2015%,72.311%,47.1946%,1)"/>
  <circle cx="5" cy="7" r="1" fill="srgba(18.2422%,63.9521%,31.249%,1)"/>
  <circle cx="6" cy="7" r="1" fill="srgba(13.4737%,61.8494%,27.2389%,1)"/>
  <circle cx="7" cy="7" r="1" fill="srgba(13.7377%,61.9669%,27.4617%,1)"/>
  <circle cx="8" cy="7" r="1" fill="srgba(13.3959%,61.8143%,27.1733%,1)"/>
  <circle cx="9" cy="7" r="1" fill="srgba(12.9442%,61.6297%,26.8025%,1)"/>
  <circle cx="10" cy="7" r="1" fill="srgba(29.0455%,69.6315%,40.9873%,1)"/>
  <circle cx="11" cy="7" r="1" fill="srgba(73.1075%,85.4124%,75.4406%,1)"/>
  <circle cx="12" cy="7" r="1" fill="srgba(96.8765%,88.1224%,89.8894%,1)"/>
  <circle cx="13" cy="7" r="1" fill="srgba(96.9314%,87.8157%,89.7002%,1)"/>
  <circle cx="14" cy="7" r="1" fill="srgba(96.8978%,87.8233%,89.688%,1)"/>
  <circle cx="15" cy="7" r="1" fill="srgba(96.8994%,87.8264%,89.691%,1)"/>
  <circle cx="0" cy="8" r="1" fill="srgba(21.0025%,65.1698%,33.5714%,1)"/>
  <circle cx="1" cy="8" r="1" fill="srgba(85.0278%,93.3989%,87.4113%,1)"/>
  <circle cx="2" cy="8" r="1" fill="srgba(63.1281%,83.743%,68.9937%,1)"/>
  <circle cx="3" cy="8" r="1" fill="srgba(15.494%,62.7405%,28.9372%,1)"/>
  <circle cx="4" cy="8" r="1" fill="srgba(34.8531%,71.2764%,45.2171%,1)"/>
  <circle cx="5" cy="8" r="1" fill="srgba(18.7839%,64.1917%,31.7052%,1)"/>
  <circle cx="6" cy="8" r="1" fill="srgba(13.434%,61.8326%,27.2053%,1)"/>
  <circle cx="7" cy="8" r="1" fill="srgba(13.7346%,61.9516%,27.4495%,1)"/>
  <circle cx="8" cy="8" r="1" fill="srgba(13.5271%,62.1653%,27.4922%,1)"/>
  <circle cx="9" cy="8" r="1" fill="srgba(13.0571%,62.6078%,27.5593%,1)"/>
  <circle cx="10" cy="8" r="1" fill="srgba(22.8077%,51.3436%,24.6662%,1)"/>
  <circle cx="11" cy="8" r="1" fill="srgba(55.8694%,23.5767%,22.2827%,1)"/>
  <circle cx="12" cy="8" r="1" fill="srgba(77.409%,11.8822%,25.2918%,1)"/>
  <circle cx="13" cy="8" r="1" fill="srgba(77.5937%,11.9387%,25.4292%,1)"/>
  <circle cx="14" cy="8" r="1" fill="srgba(77.5586%,11.9524%,25.42%,1)"/>
  <circle cx="15" cy="8" r="1" fill="srgba(77.5647%,11.9738%,25.4414%,1)"/>
  <circle cx="0" cy="9" r="1" fill="srgba(14.1161%,62.1332%,27.7806%,1)"/>
  <circle cx="1" cy="9" r="1" fill="srgba(62.5101%,83.4714%,68.4749%,1)"/>
  <circle cx="2" cy="9" r="1" fill="srgba(79.9985%,91.1818%,83.1815%,1)"/>
  <circle cx="3" cy="9" r="1" fill="srgba(21.355%,65.3239%,33.8674%,1)"/>
  <circle cx="4" cy="9" r="1" fill="srgba(39.8962%,73.4981%,49.4575%,1)"/>
  <circle cx="5" cy="9" r="1" fill="srgba(18.3474%,63.9963%,31.3375%,1)"/>
  <circle cx="6" cy="9" r="1" fill="srgba(13.4691%,61.8585%,27.2435%,1)"/>
  <circle cx="7" cy="9" r="1" fill="srgba(13.0709%,62.6276%,27.5822%,1)"/>
  <circle cx="8" cy="9" r="1" fill="srgba(15.7183%,59.9283%,27.0512%,1)"/>
  <circle cx="9" cy="9" r="1" fill="srgba(37.1679%,38.0621%,22.7619%,1)"/>
  <circle cx="10" cy="9" r="1" fill="srgba(65.9281%,8.8365%,17.0199%,1)"/>
  <circle cx="11" cy="9" r="1" fill="srgba(75.0423%,0%,14.9477%,1)"/>
  <circle cx="12" cy="9" r="1" fill="srgba(74.3664%,0%,14.6395%,1)"/>
  <circle cx="13" cy="9" r="1" fill="srgba(74.3114%,0%,14.638%,1)"/>
  <circle cx="14" cy="9" r="1" fill="srgba(74.313%,0%,14.6365%,1)"/>
  <circle cx="15" cy="9" r="1" fill="srgba(74.3206%,0.00762951%,14.6609%,1)"/>
  <circle cx="0" cy="10" r="1" fill="srgba(13.048%,61.6617%,26.8818%,1)"/>
  <circle cx="1" cy="10" r="1" fill="srgba(23.2563%,66.1631%,35.465%,1)"/>
  <circle cx="2" cy="10" r="1" fill="srgba(71.2261%,87.3136%,75.8053%,1)"/>
  <circle cx="3" cy="10" r="1" fill="srgba(53.3623%,79.4369%,60.7813%,1)"/>
  <circle cx="4" cy="10" r="1" fill="srgba(34.8989%,71.2902%,45.2583%,1)"/>
  <circle cx="5" cy="10" r="1" fill="srgba(18.2452%,64.1077%,31.249%,1)"/>
  <circle cx="6" cy="10" r="1" fill="srgba(13.1807%,62.237%,26.978%,1)"/>
  <circle cx="7" cy="10" r="1" fill="srgba(23.9368%,51.6762%,25.098%,1)"/>
  <circle cx="8" cy="10" r="1" fill="srgba(53.2448%,21.7823%,19.2386%,1)"/>
  <circle cx="9" cy="10" r="1" fill="srgba(73.4524%,1.75174%,15.1965%,1)"/>
  <circle cx="10" cy="10" r="1" fill="srgba(75.5123%,0%,14.7845%,1)"/>
  <circle cx="11" cy="10" r="1" fill="srgba(74.9142%,0%,14.905%,1)"/>
  <circle cx="12" cy="10" r="1" fill="srgba(74.9126%,0%,14.905%,1)"/>
  <circle cx="13" cy="10" r="1" fill="srgba(74.9126%,0%,14.905%,1)"/>
  <circle cx="14" cy="10" r="1" fill="srgba(74.9126%,0%,14.9035%,1)"/>
  <circle cx="15" cy="10" r="1" fill="srgba(74.9203%,0.0167849%,14.9279%,1)"/>
  <circle cx="0" cy="11" r="1" fill="srgba(13.7469%,61.9699%,27.4693%,1)"/>
  <circle cx="1" cy="11" r="1" fill="srgba(13.0724%,61.6724%,26.9017%,1)"/>
  <circle cx="2" cy="11" r="1" fill="srgba(19.5636%,64.5335%,32.3613%,1)"/>
  <circle cx="3" cy="11" r="1" fill="srgba(39.1928%,73.1914%,48.8655%,1)"/>
  <circle cx="4" cy="11" r="1" fill="srgba(44.5808%,75.9243%,53.1441%,1)"/>
  <circle cx="5" cy="11" r="1" fill="srgba(18.8647%,63.1083%,32.4285%,1)"/>
  <circle cx="6" cy="11" r="1" fill="srgba(30.6203%,42.4475%,28.3757%,1)"/>
  <circle cx="7" cy="11" r="1" fill="srgba(59.5071%,13.3425%,23.0747%,1)"/>
  <circle cx="8" cy="11" r="1" fill="srgba(69.0074%,3.66369%,21.1627%,1)"/>
  <circle cx="9" cy="11" r="1" fill="srgba(68.4428%,4.24048%,21.2757%,1)"/>
  <circle cx="10" cy="11" r="1" fill="srgba(68.2719%,4.41291%,21.3092%,1)"/>
  <circle cx="11" cy="11" r="1" fill="srgba(68.2795%,4.40528%,21.3077%,1)"/>
  <circle cx="12" cy="11" r="1" fill="srgba(68.2795%,4.40528%,21.3077%,1)"/>
  <circle cx="13" cy="11" r="1" fill="srgba(68.2795%,4.40528%,21.3077%,1)"/>
  <circle cx="14" cy="11" r="1" fill="srgba(68.2795%,4.40375%,21.3062%,1)"/>
  <circle cx="15" cy="11" r="1" fill="srgba(68.2887%,4.42817%,21.3291%,1)"/>
  <circle cx="0" cy="12" r="1" fill="srgba(35,158,70,1)"/>
  <circle cx="1" cy="12" r="1" fill="srgba(13.7407%,61.9638%,27.4678%,1)"/>
  <circle cx="2" cy="12" r="1" fill="srgba(13.3074%,61.8723%,27.01%,1)"/>
  <circle cx="3" cy="12" r="1" fill="srgba(12.43%,61.7304%,26.0472%,1)"/>
  <circle cx="4" cy="12" r="1" fill="srgba(17.2549%,58.6572%,34.9798%,1)"/>
  <circle cx="5" cy="12" r="1" fill="srgba(22.1744%,45.6748%,52.3171%,1)"/>
  <circle cx="6" cy="12" r="1" fill="srgba(27.6814%,32.636%,58.3383%,1)"/>
  <circle cx="7" cy="12" r="1" fill="srgba(29.8878%,30.573%,58.0941%,1)"/>
  <circle cx="8" cy="12" r="1" fill="srgba(29.3034%,31.1757%,58.1964%,1)"/>
  <circle cx="9" cy="12" r="1" fill="srgba(29.3019%,31.1788%,58.1964%,1)"/>
  <circle cx="10" cy="12" r="1" fill="srgba(29.3019%,31.1772%,58.1964%,1)"/>
  <circle cx="11" cy="12" r="1" fill="srgba(29.3019%,31.1772%,58.1964%,1)"/>
  <circle cx="12" cy="12" r="1" fill="srgba(29.3019%,31.1772%,58.1964%,1)"/>
  <circle cx="13" cy="12" r="1" fill="srgba(29.3019%,31.1772%,58.1964%,1)"/>
  <circle cx="14" cy="12" r="1" fill="srgba(29.3004%,31.1757%,58.1964%,1)"/>
  <circle cx="15" cy="12" r="1" fill="srgba(29.3156%,31.194%,58.2055%,1)"/>
  <circle cx="0" cy="13" r="1" fill="srgba(13.724%,61.9638%,27.4479%,1)"/>
  <circle cx="1" cy="13" r="1" fill="srgba(13.6278%,62.2385%,27.071%,1)"/>
  <circle cx="2" cy="13" r="1" fill="srgba(14.0093%,61.1566%,28.5512%,1)"/>
  <circle cx="3" cy="13" r="1" fill="srgba(17.2824%,51.9036%,41.2177%,1)"/>
  <circle cx="4" cy="13" r="1" fill="srgba(21.6114%,39.1485%,58.4421%,1)"/>
  <circle cx="5" cy="13" r="1" fill="srgba(23.0991%,34.934%,64.2618%,1)"/>
  <circle cx="6" cy="13" r="1" fill="srgba(22.8733%,35.4208%,64.303%,1)"/>
  <circle cx="7" cy="13" r="1" fill="srgba(22.7314%,35.5673%,64.2924%,1)"/>
  <circle cx="8" cy="13" r="1" fill="srgba(22.7375%,35.5612%,64.2924%,1)"/>
  <circle cx="9" cy="13" r="1" fill="srgba(22.7375%,35.5612%,64.2924%,1)"/>
  <circle cx="10" cy="13" r="1" fill="srgba(22.7375%,35.5612%,64.2924%,1)"/>
  <circle cx="11" cy="13" r="1" fill="srgba(22.7375%,35.5612%,64.2924%,1)"/>
  <circle cx="12" cy="13" r="1" fill="srgba(22.7375%,35.5612%,64.2924%,1)"/>
  <circle cx="13" cy="13" r="1" fill="srgba(22.7375%,35.5612%,64.2924%,1)"/>
  <circle cx="14" cy="13" r="1" fill="srgba(22.7359%,35.5596%,64.2924%,1)"/>
  <circle cx="15" cy="13" r="1" fill="srgba(22.7527%,35.5764%,64.3%,1)"/>
  <circle cx="0" cy="14" r="1" fill="srgba(13.6797%,62.0691%,27.2923%,1)"/>
  <circle cx="1" cy="14" r="1" fill="srgba(15.2331%,57.6669%,33.3135%,1)"/>
  <circle cx="2" cy="14" r="1" fill="srgba(19.7253%,44.9409%,50.721%,1)"/>
  <circle cx="3" cy="14" r="1" fill="srgba(22.884%,35.9884%,62.9633%,1)"/>
  <circle cx="4" cy="14" r="1" fill="srgba(23.2258%,35.021%,64.2847%,1)"/>
  <circle cx="5" cy="14" r="1" fill="srgba(23.1312%,35.288%,63.92%,1)"/>
  <circle cx="6" cy="14" r="1" fill="srgba(23.1312%,35.2895%,63.9185%,1)"/>
  <circle cx="7" cy="14" r="1" fill="srgba(23.1312%,35.2895%,63.9185%,1)"/>
  <circle cx="8" cy="14" r="1" fill="srgba(23.1312%,35.2895%,63.9185%,1)"/>
  <circle cx="9" cy="14" r="1" fill="srgba(23.1312%,35.2895%,63.9185%,1)"/>
  <circle cx="10" cy="14" r="1" fill="srgba(23.1312%,35.2895%,63.9185%,1)"/>
  <circle cx="11" cy="14" r="1" fill="srgba(23.1312%,35.2895%,63.9185%,1)"/>
  <circle cx="12" cy="14" r="1" fill="srgba(23.1312%,35.2895%,63.9185%,1)"/>
  <circle cx="13" cy="14" r="1" fill="srgba(23.1312%,35.2895%,63.9185%,1)"/>
  <circle cx="14" cy="14" r="1" fill="srgba(23.1296%,35.288%,63.9185%,1)"/>
  <circle cx="15" cy="14" r="1" fill="srgba(23.1464%,35.3048%,63.9261%,1)"/>
  <circle cx="0" cy="15" r="1" fill="srgba(16.9574%,53.1762%,39.6216%,1)"/>
  <circle cx="1" cy="15" r="1" fill="srgba(21.5702%,40.0992%,57.5113%,1)"/>
  <circle cx="2" cy="15" r="1" fill="srgba(23.3616%,35.0256%,64.4511%,1)"/>
  <circle cx="3" cy="15" r="1" fill="srgba(23.2685%,35.2926%,64.0864%,1)"/>
  <circle cx="4" cy="15" r="1" fill="srgba(23.2364%,35.3826%,63.9628%,1)"/>
  <circle cx="5" cy="15" r="1" fill="srgba(23.238%,35.378%,63.9673%,1)"/>
  <circle cx="6" cy="15" r="1" fill="srgba(23.238%,35.378%,63.9673%,1)"/>
  <circle cx="7" cy="15" r="1" fill="srgba(23.238%,35.378%,63.9673%,1)"/>
  <circle cx="8" cy="15" r="1" fill="srgba(23.238%,35.378%,63.9673%,1)"/>
  <circle cx="9" cy="15" r="1" fill="srgba(23.238%,35.378%,63.9673%,1)"/>
  <circle cx="10" cy="15" r="1" fill="srgba(23.238%,35.378%,63.9673%,1)"/>
  <circle cx="11" cy="15" r="1" fill="srgba(23.238%,35.378%,63.9673%,1)"/>
  <circle cx="12" cy="15" r="1" fill="srgba(23.238%,35.378%,63.9673%,1)"/>
  <circle cx="13" cy="15" r="1" fill="srgba(23.238%,35.378%,63.9673%,1)"/>
  <circle cx="14" cy="15" r="1" fill="srgba(23.2364%,35.3765%,63.9673%,1)"/>
  <circle cx="15" cy="15" r="1" fill="srgba(23.2532%,35.3933%,63.975%,1)"/>
</svg>
