<?xml version="1.0" standalone="no"?>
<!DOCTYPE svg PUBLIC "-//W3C//DTD SVG 20010904//EN"
  "http://www.w3.org/TR/2001/REC-SVG-20010904/DTD/svg10.dtd">
<svg width="16" height="16">
  <circle cx="0" cy="0" r="1" fill="srgba(20.9995%,63.2212%,0.0534066%,1)"/>
  <circle cx="1" cy="0" r="1" fill="srgba(20.9918%,63.2212%,0.0534066%,1)"/>
  <circle cx="2" cy="0" r="1" fill="srgba(20.9918%,63.2212%,0.0534066%,1)"/>
  <circle cx="3" cy="0" r="1" fill="srgba(20.9918%,63.2212%,0.0534066%,1)"/>
  <circle cx="4" cy="0" r="1" fill="srgba(20.9918%,63.2212%,0.0534066%,1)"/>
  <circle cx="5" cy="0" r="1" fill="srgba(20.9918%,63.2212%,0.0534066%,1)"/>
  <circle cx="6" cy="0" r="1" fill="srgba(20.9918%,63.2212%,0.0534066%,1)"/>
  <circle cx="7" cy="0" r="1" fill="srgba(20.9934%,63.2227%,0.0534066%,1)"/>
  <circle cx="8" cy="0" r="1" fill="srgba(20.9476%,63.1983%,0.0411994%,1)"/>
  <circle cx="9" cy="0" r="1" fill="srgba(20.8865%,63.1678%,0.0228885%,1)"/>
  <circle cx="10" cy="0" r="1" fill="srgba(20.8698%,63.1617%,0.0228885%,1)"/>
  <circle cx="11" cy="0" r="1" fill="srgba(19.91%,62.8122%,0.0228885%,1)"/>
  <circle cx="12" cy="0" r="1" fill="srgba(23.9979%,64.7166%,0.0228885%,1)"/>
  <circle cx="13" cy="0" r="1" fill="srgba(52.2728%,74.2733%,0.0167849%,1)"/>
  <circle cx="14" cy="0" r="1" fill="srgba(63.328%,62.2736%,0.192264%,1)"/>
  <circle cx="15" cy="0" r="1" fill="srgba(21.2329%,19.1821%,0.34638%,1)"/>
  <circle cx="0" cy="1" r="1" fill="srgba(20.7797%,63.1327%,0%,1)"/>
  <circle cx="1" cy="1" r="1" fill="srgba(20.7721%,63.1327%,0%,1)"/>
  <circle cx="2" cy="1" r="1" fill="srgba(20.7721%,63.1327%,0%,1)"/>
  <circle cx="3" cy="1" r="1" fill="srgba(20.7721%,63.1327%,0%,1)"/>
  <circle cx="4" cy="1" r="1" fill="srgba(20.7721%,63.1327%,0%,1)"/>
  <circle cx="5" cy="1" r="1" fill="srgba(20.7721%,63.1327%,0%,1)"/>
  <circle cx="6" cy="1" r="1" fill="srgba(20.7721%,63.1327%,0%,1)"/>
  <circle cx="7" cy="1" r="1" fill="srgba(20.7721%,63.1327%,0%,1)"/>
  <circle cx="8" cy="1" r="1" fill="srgba(20.7858%,63.1388%,0%,1)"/>
  <circle cx="9" cy="1" r="1" fill="srgba(20.4608%,63.0182%,0%,1)"/>
  <circle cx="10" cy="1" r="1" fill="srgba(20.1389%,62.9938%,0%,1)"/>
  <circle cx="11" cy="1" r="1" fill="srgba(34.7967%,68.8823%,0%,1)"/>
  <circle cx="12" cy="1" r="1" fill="srgba(61.2451%,72.5841%,0%,1)"/>
  <circle cx="13" cy="1" r="1" fill="srgba(45.8793%,43.7171%,0%,1)"/>
  <circle cx="14" cy="1" r="1" fill="srgba(8.95705%,7.94385%,0%,1)"/>
  <circle cx="15" cy="1" r="1" fill="black"/>
  <circle cx="0" cy="2" r="1" fill="srgba(20.7919%,63.1373%,0%,1)"/>
  <circle cx="1" cy="2" r="1" fill="srgba(53,161,0,1)"/>
  <circle cx="2" cy="2" r="1" fill="srgba(53,161,0,1)"/>
  <circle cx="3" cy="2" r="1" fill="srgba(53,161,0,1)"/>
  <circle cx="4" cy="2" r="1" fill="srgba(53,161,0,1)"/>
  <circle cx="5" cy="2" r="1" fill="srgba(53,161,0,1)"/>
  <circle cx="6" cy="2" r="1" fill="srgba(20.7874%,63.1388%,0%,1)"/>
  <circle cx="7" cy="2" r="1" fill="srgba(20.7446%,63.122%,0%,1)"/>
  <circle cx="8" cy="2" r="1" fill="srgba(19.8093%,62.7863%,0%,1)"/>
  <circle cx="9" cy="2" r="1" fill="srgba(25.1118%,65.1484%,0%,1)"/>
  <circle cx="10" cy="2" r="1" fill="srgba(51.8303%,73.6767%,0%,1)"/>
  <circle cx="11" cy="2" r="1" fill="srgba(59.7055%,60.6668%,0%,1)"/>
  <circle cx="12" cy="2" r="1" fill="srgba(23.1662%,20.618%,0%,1)"/>
  <circle cx="13" cy="2" r="1" fill="srgba(0.84535%,0.650034%,0%,1)"/>
  <circle cx="14" cy="2" r="1" fill="black"/>
  <circle cx="15" cy="2" r="1" fill="black"/>
  <circle cx="0" cy="3" r="1" fill="srgba(20.7919%,63.1373%,0%,1)"/>
  <circle cx="1" cy="3" r="1" fill="srgba(53,161,0,1)"/>
  <circle cx="2" cy="3" r="1" fill="srgba(53,161,0,1)"/>
  <circle cx="3" cy="3" r="1" fill="srgba(53,161,0,1)"/>
  <circle cx="4" cy="3" r="1" fill="srgba(53,161,0,1)"/>
  <circle cx="5" cy="3" r="1" fill="srgba(20.7965%,63.1418%,0%,1)"/>
  <circle cx="6" cy="3" r="1" fill="srgba(20.3433%,62.974%,0%,1)"/>
  <circle cx="7" cy="3" r="1" fill="srgba(20.5875%,63.1968%,0%,1)"/>
  <circle cx="8" cy="3" r="1" fill="srgba(38.1643%,70.0587%,0%,1)"/>
  <circle cx="9" cy="3" r="1" fill="srgba(63.2547%,71.812%,0%,1)"/>
  <circle cx="10" cy="3" r="1" fill="srgba(42.2507%,39.3362%,0%,1)"/>
  <circle cx="11" cy="3" r="1" fill="srgba(14.3832%,13.402%,8.01404%,1)"/>
  <circle cx="12" cy="3" r="1" fill="srgba(6.09903%,6.18601%,7.19005%,1)"/>
  <circle cx="13" cy="3" r="1" fill="srgba(8.84413%,8.84871%,8.88838%,1)"/>
  <circle cx="14" cy="3" r="1" fill="srgba(0.627146%,0.627146%,0.624094%,1)"/>
  <circle cx="15" cy="3" r="1" fill="black"/>
  <circle cx="0" cy="4" r="1" fill="srgba(20.7919%,63.1373%,0%,1)"/>
  <circle cx="1" cy="4" r="1" fill="srgba(53,161,0,1)"/>
  <circle cx="2" cy="4" r="1" fill="srgba(53,161,0,1)"/>
  <circle cx="3" cy="4" r="1" fill="srgba(20.7889%,63.1388%,0%,1)"/>
  <circle cx="4" cy="4" r="1" fill="srgba(20.7019%,63.1067%,0%,1)"/>
  <circle cx="5" cy="4" r="1" fill="srgba(19.736%,62.768%,0%,1)"/>
  <circle cx="6" cy="4" r="1" fill="srgba(27.0634%,65.9297%,0%,1)"/>
  <circle cx="7" cy="4" r="1" fill="srgba(55.2468%,74.2824%,0%,1)"/>
  <circle cx="8" cy="4" r="1" fill="srgba(58.4939%,58.0911%,0%,1)"/>
  <circle cx="9" cy="4" r="1" fill="srgba(20.0275%,17.7127%,0%,1)"/>
  <circle cx="10" cy="4" r="1" fill="black"/>
  <circle cx="11" cy="4" r="1" fill="srgba(28.6931%,28.719%,28.9906%,1)"/>
  <circle cx="12" cy="4" r="1" fill="srgba(75.3918%,75.3902%,75.3857%,1)"/>
  <circle cx="13" cy="4" r="1" fill="srgba(41.2573%,41.2573%,41.2573%,1)"/>
  <circle cx="14" cy="4" r="1" fill="black"/>
  <circle cx="15" cy="4" r="1" fill="black"/>
  <circle cx="0" cy="5" r="1" fill="srgba(20.7919%,63.1373%,0%,1)"/>
  <circle cx="1" cy="5" r="1" fill="srgba(53,161,0,1)"/>
  <circle cx="2" cy="5" r="1" fill="srgba(20.7935%,63.1403%,0%,1)"/>
  <circle cx="3" cy="5" r="1" fill="srgba(20.2045%,62.9236%,0%,1)"/>
  <circle cx="4" cy="5" r="1" fill="srgba(21.268%,63.4913%,0%,1)"/>
  <circle cx="5" cy="5" r="1" fill="srgba(41.6541%,71.2184%,0%,1)"/>
  <circle cx="6" cy="5" r="1" fill="srgba(64.3793%,70.5837%,0%,1)"/>
  <circle cx="7" cy="5" r="1" fill="srgba(38.7884%,35.6786%,0%,1)"/>
  <circle cx="8" cy="5" r="1" fill="srgba(5.01869%,4.25574%,0%,1)"/>
  <circle cx="9" cy="5" r="1" fill="black"/>
  <circle cx="10" cy="5" r="1" fill="srgba(4.41444%,4.41596%,4.41596%,1)"/>
  <circle cx="11" cy="5" r="1" fill="srgba(45.4688%,45.4688%,45.4688%,1)"/>
  <circle cx="12" cy="5" r="1" fill="srgba(87.5181%,87.5166%,87.5059%,1)"/>
  <circle cx="13" cy="5" r="1" fill="srgba(50.4143%,50.4341%,50.7027%,1)"/>
  <circle cx="14" cy="5" r="1" fill="srgba(5.03395%,5.11635%,4.97749%,1)"/>
  <circle cx="15" cy="5" r="1" fill="srgba(12.9732%,12.6528%,0%,1)"/>
  <circle cx="0" cy="6" r="1" fill="srgba(20.7996%,63.1403%,0%,1)"/>
  <circle cx="1" cy="6" r="1" fill="srgba(20.6424%,63.0854%,0%,1)"/>
  <circle cx="2" cy="6" r="1" fill="srgba(19.7375%,62.7802%,0%,1)"/>
  <circle cx="3" cy="6" r="1" fill="srgba(29.3767%,66.8315%,0%,1)"/>
  <circle cx="4" cy="6" r="1" fill="srgba(58.4619%,74.6715%,0%,1)"/>
  <circle cx="5" cy="6" r="1" fill="srgba(56.2799%,54.7784%,0%,1)"/>
  <circle cx="6" cy="6" r="1" fill="srgba(16.7208%,14.6868%,0%,1)"/>
  <circle cx="7" cy="6" r="1" fill="srgba(0.0701915%,0.0183108%,0%,1)"/>
  <circle cx="8" cy="6" r="1" fill="black"/>
  <circle cx="9" cy="6" r="1" fill="black"/>
  <circle cx="10" cy="6" r="1" fill="srgba(0.396735%,0.396735%,0.395209%,1)"/>
  <circle cx="11" cy="6" r="1" fill="srgba(5.40017%,5.40017%,5.41085%,1)"/>
  <circle cx="12" cy="6" r="1" fill="srgba(29.2424%,29.3263%,30.3136%,1)"/>
  <circle cx="13" cy="6" r="1" fill="srgba(8.542%,8.81971%,5.11482%,1)"/>
  <circle cx="14" cy="6" r="1" fill="srgba(39.7131%,35.346%,0.96437%,1)"/>
  <circle cx="15" cy="6" r="1" fill="srgba(78.2742%,53.5424%,0%,1)"/>
  <circle cx="0" cy="7" r="1" fill="srgba(19.9664%,62.8336%,0%,1)"/>
  <circle cx="1" cy="7" r="1" fill="srgba(22.208%,63.888%,0%,1)"/>
  <circle cx="2" cy="7" r="1" fill="srgba(45.3101%,72.3522%,0%,1)"/>
  <circle cx="3" cy="7" r="1" fill="srgba(64.8539%,68.9189%,0%,1)"/>
  <circle cx="4" cy="7" r="1" fill="srgba(34.8669%,31.7235%,0%,1)"/>
  <circle cx="5" cy="7" r="1" fill="srgba(3.53704%,2.97856%,0%,1)"/>
  <circle cx="6" cy="7" r="1" fill="black"/>
  <circle cx="7" cy="7" r="1" fill="black"/>
  <circle cx="8" cy="7" r="1" fill="black"/>
  <circle cx="9" cy="7" r="1" fill="black"/>
  <circle cx="10" cy="7" r="1" fill="black"/>
  <circle cx="11" cy="7" r="1" fill="srgba(0.0701915%,0.169375%,0.16022%,1)"/>
  <circle cx="12" cy="7" r="1" fill="srgba(17.0428%,16.5713%,1.19936%,1)"/>
  <circle cx="13" cy="7" r="1" fill="srgba(61.6617%,48.6809%,0.0244144%,1)"/>
  <circle cx="14" cy="7" r="1" fill="srgba(85.301%,38.117%,0%,1)"/>
  <circle cx="15" cy="7" r="1" fill="srgba(80.5951%,7.18395%,0%,1)"/>
  <circle cx="0" cy="8" r="1" fill="srgba(33.7331%,68.5389%,0%,1)"/>
  <circle cx="1" cy="8" r="1" fill="srgba(61.0178%,74.6731%,0%,1)"/>
  <circle cx="2" cy="8" r="1" fill="srgba(53.7804%,51.4366%,0.276188%,1)"/>
  <circle cx="3" cy="8" r="1" fill="srgba(13.2586%,11.5343%,0.376898%,1)"/>
  <circle cx="4" cy="8" r="1" fill="srgba(0%,0%,0.173953%,1)"/>
  <circle cx="5" cy="8" r="1" fill="srgba(0.163272%,0.172427%,0.267033%,1)"/>
  <circle cx="6" cy="8" r="1" fill="black"/>
  <circle cx="7" cy="8" r="1" fill="black"/>
  <circle cx="8" cy="8" r="1" fill="black"/>
  <circle cx="9" cy="8" r="1" fill="black"/>
  <circle cx="10" cy="8" r="1" fill="srgba(3.75982%,3.99634%,0%,1)"/>
  <circle cx="11" cy="8" r="1" fill="srgba(37.4334%,33.3806%,0%,1)"/>
  <circle cx="12" cy="8" r="1" fill="srgba(78.6175%,50.1015%,0%,1)"/>
  <circle cx="13" cy="8" r="1" fill="srgba(83.7186%,19.791%,0%,1)"/>
  <circle cx="14" cy="8" r="1" fill="srgba(78.1689%,0.537118%,0%,1)"/>
  <circle cx="15" cy="8" r="1" fill="srgba(77.9049%,0%,0%,1)"/>
  <circle cx="0" cy="9" r="1" fill="srgba(64.7257%,65.3437%,0.00457771%,1)"/>
  <circle cx="1" cy="9" r="1" fill="srgba(30.8583%,27.95%,0%,1)"/>
  <circle cx="2" cy="9" r="1" fill="srgba(7.24346%,6.87419%,5.12398%,1)"/>
  <circle cx="3" cy="9" r="1" fill="srgba(29.163%,29.2302%,29.8558%,1)"/>
  <circle cx="4" cy="9" r="1" fill="srgba(27.509%,27.509%,27.5181%,1)"/>
  <circle cx="5" cy="9" r="1" fill="srgba(6.95201%,6.95201%,6.95201%,1)"/>
  <circle cx="6" cy="9" r="1" fill="black"/>
  <circle cx="7" cy="9" r="1" fill="black"/>
  <circle cx="8" cy="9" r="1" fill="srgba(0%,0.0457771%,0%,1)"/>
  <circle cx="9" cy="9" r="1" fill="srgba(15.7504%,15.3185%,0%,1)"/>
  <circle cx="10" cy="9" r="1" fill="srgba(60.8789%,47.5746%,0%,1)"/>
  <circle cx="11" cy="9" r="1" fill="srgba(84.9363%,37.3159%,0%,1)"/>
  <circle cx="12" cy="9" r="1" fill="srgba(80.177%,5.99527%,0%,1)"/>
  <circle cx="13" cy="9" r="1" fill="srgba(77.7722%,0%,0%,1)"/>
  <circle cx="14" cy="9" r="1" fill="srgba(78.027%,0%,0%,1)"/>
  <circle cx="15" cy="9" r="1" fill="srgba(78.0407%,0%,0%,1)"/>
  <circle cx="0" cy="10" r="1" fill="srgba(8.04303%,6.99016%,0%,1)"/>
  <circle cx="1" cy="10" r="1" fill="black"/>
  <circle cx="2" cy="10" r="1" fill="srgba(16.3241%,16.3287%,16.3699%,1)"/>
  <circle cx="3" cy="10" r="1" fill="srgba(81.944%,81.944%,81.9425%,1)"/>
  <circle cx="4" cy="10" r="1" fill="srgba(79.3149%,79.3149%,79.3149%,1)"/>
  <circle cx="5" cy="10" r="1" fill="srgba(11.4595%,11.4595%,11.4595%,1)"/>
  <circle cx="6" cy="10" r="1" fill="black"/>
  <circle cx="7" cy="10" r="1" fill="srgba(3.52789%,3.7995%,0%,1)"/>
  <circle cx="8" cy="10" r="1" fill="srgba(36.5484%,32.4193%,0%,1)"/>
  <circle cx="9" cy="10" r="1" fill="srgba(77.908%,48.809%,0%,1)"/>
  <circle cx="10" cy="10" r="1" fill="srgba(83.5157%,19.0646%,0%,1)"/>
  <circle cx="11" cy="10" r="1" fill="srgba(78.1674%,0.474556%,0%,1)"/>
  <circle cx="12" cy="10" r="1" fill="srgba(77.9263%,0%,0%,1)"/>
  <circle cx="13" cy="10" r="1" fill="srgba(78.0423%,0%,0%,1)"/>
  <circle cx="14" cy="10" r="1" fill="srgba(199,0,0,1)"/>
  <circle cx="15" cy="10" r="1" fill="srgba(199,0,0,1)"/>
  <circle cx="0" cy="11" r="1" fill="black"/>
  <circle cx="1" cy="11" r="1" fill="srgba(0.177005%,0.177005%,0.177005%,1)"/>
  <circle cx="2" cy="11" r="1" fill="srgba(15.8038%,15.8038%,15.8038%,1)"/>
  <circle cx="3" cy="11" r="1" fill="srgba(57.8531%,57.8515%,57.8408%,1)"/>
  <circle cx="4" cy="11" r="1" fill="srgba(49.5186%,49.5369%,49.8009%,1)"/>
  <circle cx="5" cy="11" r="1" fill="srgba(12.5444%,12.7382%,13.4859%,1)"/>
  <circle cx="6" cy="11" r="1" fill="srgba(14.786%,14.3908%,0%,1)"/>
  <circle cx="7" cy="11" r="1" fill="srgba(59.8993%,46.2638%,0%,1)"/>
  <circle cx="8" cy="11" r="1" fill="srgba(84.4663%,36.1715%,0%,1)"/>
  <circle cx="9" cy="11" r="1" fill="srgba(80.1205%,5.68704%,0%,1)"/>
  <circle cx="10" cy="11" r="1" fill="srgba(77.7813%,0%,0%,1)"/>
  <circle cx="11" cy="11" r="1" fill="srgba(78.0285%,0%,0%,1)"/>
  <circle cx="12" cy="11" r="1" fill="srgba(199,0,0,1)"/>
  <circle cx="13" cy="11" r="1" fill="srgba(199,0,0,1)"/>
  <circle cx="14" cy="11" r="1" fill="srgba(199,0,0,1)"/>
  <circle cx="15" cy="11" r="1" fill="srgba(199,0,0,1)"/>
  <circle cx="0" cy="12" r="1" fill="srgba(0.00762951%,0.00762951%,0%,1)"/>
  <circle cx="1" cy="12" r="1" fill="black"/>
  <circle cx="2" cy="12" r="1" fill="black"/>
  <circle cx="3" cy="12" r="1" fill="srgba(9.75662%,9.80392%,10.4936%,1)"/>
  <circle cx="4" cy="12" r="1" fill="srgba(7.49828%,7.78668%,5.30404%,1)"/>
  <circle cx="5" cy="12" r="1" fill="srgba(34.7799%,30.5592%,0%,1)"/>
  <circle cx="6" cy="12" r="1" fill="srgba(77.1359%,47.4449%,0%,1)"/>
  <circle cx="7" cy="12" r="1" fill="srgba(83.3097%,18.3459%,0%,1)"/>
  <circle cx="8" cy="12" r="1" fill="srgba(78.1674%,0.415045%,0%,1)"/>
  <circle cx="9" cy="12" r="1" fill="srgba(77.9324%,0%,0%,1)"/>
  <circle cx="10" cy="12" r="1" fill="srgba(78.0423%,0%,0%,1)"/>
  <circle cx="11" cy="12" r="1" fill="srgba(199,0,0,1)"/>
  <circle cx="12" cy="12" r="1" fill="srgba(199,0,0,1)"/>
  <circle cx="13" cy="12" r="1" fill="srgba(199,0,0,1)"/>
  <circle cx="14" cy="12" r="1" fill="srgba(199,0,0,1)"/>
  <circle cx="15" cy="12" r="1" fill="srgba(199,0,0,1)"/>
  <circle cx="0" cy="13" r="1" fill="srgba(0.00762951%,0.00762951%,0%,1)"/>
  <circle cx="1" cy="13" r="1" fill="black"/>
  <circle cx="2" cy="13" r="1" fill="srgba(0%,0.0183108%,0%,1)"/>
  <circle cx="3" cy="13" r="1" fill="srgba(14.1894%,13.8216%,0%,1)"/>
  <circle cx="4" cy="13" r="1" fill="srgba(58.6831%,44.7089%,0%,1)"/>
  <circle cx="5" cy="13" r="1" fill="srgba(83.9979%,35.0347%,0%,1)"/>
  <circle cx="6" cy="13" r="1" fill="srgba(80.0671%,5.38949%,0%,1)"/>
  <circle cx="7" cy="13" r="1" fill="srgba(77.789%,0%,0%,1)"/>
  <circle cx="8" cy="13" r="1" fill="srgba(78.0301%,0%,0%,1)"/>
  <circle cx="9" cy="13" r="1" fill="srgba(199,0,0,1)"/>
  <circle cx="10" cy="13" r="1" fill="srgba(199,0,0,1)"/>
  <circle cx="11" cy="13" r="1" fill="srgba(199,0,0,1)"/>
  <circle cx="12" cy="13" r="1" fill="srgba(199,0,0,1)"/>
  <circle cx="13" cy="13" r="1" fill="srgba(199,0,0,1)"/>
  <circle cx="14" cy="13" r="1" fill="srgba(199,0,0,1)"/>
  <circle cx="15" cy="13" r="1" fill="srgba(199,0,0,1)"/>
  <circle cx="0" cy="14" r="1" fill="black"/>
  <circle cx="1" cy="14" r="1" fill="srgba(3.37224%,3.3814%,0%,1)"/>
  <circle cx="2" cy="14" r="1" fill="srgba(35.1019%,30.1961%,0%,1)"/>
  <circle cx="3" cy="14" r="1" fill="srgba(76.3195%,45.6443%,0%,1)"/>
  <circle cx="4" cy="14" r="1" fill="srgba(83.0579%,17.4792%,0%,1)"/>
  <circle cx="5" cy="14" r="1" fill="srgba(78.1613%,0.352483%,0%,1)"/>
  <circle cx="6" cy="14" r="1" fill="srgba(77.9309%,0%,0%,1)"/>
  <circle cx="7" cy="14" r="1" fill="srgba(78.0362%,0%,0%,1)"/>
  <circle cx="8" cy="14" r="1" fill="srgba(78.0331%,0%,0%,1)"/>
  <circle cx="9" cy="14" r="1" fill="srgba(78.0316%,0%,0%,1)"/>
  <circle cx="10" cy="14" r="1" fill="srgba(78.0316%,0%,0%,1)"/>
  <circle cx="11" cy="14" r="1" fill="srgba(78.0316%,0%,0%,1)"/>
  <circle cx="12" cy="14" r="1" fill="srgba(78.0301%,0%,0%,1)"/>
  <circle cx="13" cy="14" r="1" fill="srgba(78.0301%,0%,0%,1)"/>
  <circle cx="14" cy="14" r="1" fill="srgba(78.0301%,0%,0%,1)"/>
  <circle cx="15" cy="14" r="1" fill="srgba(78.0301%,0%,0%,1)"/>
  <circle cx="0" cy="15" r="1" fill="srgba(8.1178%,7.7821%,0.634775%,1)"/>
  <circle cx="1" cy="15" r="1" fill="srgba(53.4249%,44.4724%,0.700389%,1)"/>
  <circle cx="2" cy="15" r="1" fill="srgba(84.3717%,39.0906%,0.202945%,1)"/>
  <circle cx="3" cy="15" r="1" fill="srgba(80.3723%,6.0502%,0.207523%,1)"/>
  <circle cx="4" cy="15" r="1" fill="srgba(77.8515%,0%,0.210575%,1)"/>
  <circle cx="5" cy="15" r="1" fill="srgba(78.1384%,0.433356%,0.260929%,1)"/>
  <circle cx="6" cy="15" r="1" fill="srgba(78.1567%,0.505074%,0.27924%,1)"/>
  <circle cx="7" cy="15" r="1" fill="srgba(78.1552%,0.49897%,0.276188%,1)"/>
  <circle cx="8" cy="15" r="1" fill="srgba(78.1628%,0.529488%,0.292973%,1)"/>
  <circle cx="9" cy="15" r="1" fill="srgba(78.1842%,0.61799%,0.343328%,1)"/>
  <circle cx="10" cy="15" r="1" fill="srgba(78.1857%,0.624094%,0.34638%,1)"/>
  <circle cx="11" cy="15" r="1" fill="srgba(78.1857%,0.622568%,0.34638%,1)"/>
  <circle cx="12" cy="15" r="1" fill="srgba(78.1979%,0.694285%,0.383001%,1)"/>
  <circle cx="13" cy="15" r="1" fill="srgba(78.2086%,0.755322%,0.416571%,1)"/>
  <circle cx="14" cy="15" r="1" fill="srgba(78.2086%,0.753796%,0.415045%,1)"/>
  <circle cx="15" cy="15" r="1" fill="srgba(78.2086%,0.753796%,0.415045%,1)"/>
</svg>
