<?xml version="1.0" standalone="no"?>
<!DOCTYPE svg PUBLIC "-//W3C//DTD SVG 20010904//EN"
  "http://www.w3.org/TR/2001/REC-SVG-20010904/DTD/svg10.dtd">
<svg width="16" height="16">
  <circle cx="0" cy="0" r="1" fill="srgba(24.0604%,33.3639%,58.9532%,1)"/>
  <circle cx="1" cy="0" r="1" fill="srgba(24.0604%,33.3639%,58.9532%,1)"/>
  <circle cx="2" cy="0" r="1" fill="srgba(24.0604%,33.3639%,58.9532%,1)"/>
  <circle cx="3" cy="0" r="1" fill="srgba(24.0604%,33.3639%,58.9532%,1)"/>
  <circle cx="4" cy="0" r="1" fill="srgba(24.0604%,33.3639%,58.9532%,1)"/>
  <circle cx="5" cy="0" r="1" fill="srgba(24.0604%,33.3639%,58.9532%,1)"/>
  <circle cx="6" cy="0" r="1" fill="srgba(24.0604%,33.3639%,58.9532%,1)"/>
  <circle cx="7" cy="0" r="1" fill="srgba(24.0604%,33.3639%,58.9532%,1)"/>
  <circle cx="8" cy="0" r="1" fill="srgba(24.0604%,33.3639%,58.9532%,1)"/>
  <circle cx="9" cy="0" r="1" fill="srgba(24.0604%,33.3639%,58.9532%,1)"/>
  <circle cx="10" cy="0" r="1" fill="srgba(24.0604%,33.3639%,58.9532%,1)"/>
  <circle cx="11" cy="0" r="1" fill="srgba(24.0604%,33.3639%,58.9532%,1)"/>
  <circle cx="12" cy="0" r="1" fill="srgba(24.0604%,33.3639%,58.9532%,1)"/>
  <circle cx="13" cy="0" r="1" fill="srgba(24.0604%,33.3639%,58.9532%,1)"/>
  <circle cx="14" cy="0" r="1" fill="srgba(24.0604%,33.3639%,58.9532%,1)"/>
  <circle cx="15" cy="0" r="1" fill="srgba(24.0604%,33.3639%,58.9532%,1)"/>
  <circle cx="0" cy="1" r="1" fill="srgba(23.4913%,33.0129%,59.1989%,1)"/>
  <circle cx="1" cy="1" r="1" fill="srgba(23.4913%,33.0129%,59.1989%,1)"/>
  <circle cx="2" cy="1" r="1" fill="srgba(23.4913%,33.0129%,59.1989%,1)"/>
  <circle cx="3" cy="1" r="1" fill="srgba(23.4913%,33.0129%,59.1989%,1)"/>
  <circle cx="4" cy="1" r="1" fill="srgba(23.4913%,33.0129%,59.1989%,1)"/>
  <circle cx="5" cy="1" r="1" fill="srgba(23.4913%,33.0129%,59.1989%,1)"/>
  <circle cx="6" cy="1" r="1" fill="srgba(23.4913%,33.0129%,59.1989%,1)"/>
  <circle cx="7" cy="1" r="1" fill="srgba(23.4913%,33.0129%,59.1989%,1)"/>
  <circle cx="8" cy="1" r="1" fill="srgba(23.4913%,33.0129%,59.1989%,1)"/>
  <circle cx="9" cy="1" r="1" fill="srgba(23.4913%,33.0129%,59.1989%,1)"/>
  <circle cx="10" cy="1" r="1" fill="srgba(23.4913%,33.0129%,59.1989%,1)"/>
  <circle cx="11" cy="1" r="1" fill="srgba(23.4913%,33.0129%,59.1989%,1)"/>
  <circle cx="12" cy="1" r="1" fill="srgba(23.4913%,33.0129%,59.1989%,1)"/>
  <circle cx="13" cy="1" r="1" fill="srgba(23.4913%,33.0129%,59.1989%,1)"/>
  <circle cx="14" cy="1" r="1" fill="srgba(23.4913%,33.0129%,59.1989%,1)"/>
  <circle cx="15" cy="1" r="1" fill="srgba(23.4913%,33.0129%,59.1989%,1)"/>
  <circle cx="0" cy="2" r="1" fill="srgba(37.9263%,46.9947%,68.3467%,1)"/>
  <circle cx="1" cy="2" r="1" fill="srgba(37.9263%,46.9947%,68.3467%,1)"/>
  <circle cx="2" cy="2" r="1" fill="srgba(37.9263%,46.9947%,68.3467%,1)"/>
  <circle cx="3" cy="2" r="1" fill="srgba(37.9263%,46.9947%,68.3467%,1)"/>
  <circle cx="4" cy="2" r="1" fill="srgba(37.9263%,46.9947%,68.3467%,1)"/>
  <circle cx="5" cy="2" r="1" fill="srgba(37.9263%,46.9947%,68.3467%,1)"/>
  <circle cx="6" cy="2" r="1" fill="srgba(37.9248%,46.9902%,68.3421%,1)"/>
  <circle cx="7" cy="2" r="1" fill="srgba(37.9263%,46.9932%,68.3467%,1)"/>
  <circle cx="8" cy="2" r="1" fill="srgba(37.9263%,46.9947%,68.3467%,1)"/>
  <circle cx="9" cy="2" r="1" fill="srgba(37.9263%,46.9947%,68.3467%,1)"/>
  <circle cx="10" cy="2" r="1" fill="srgba(37.9263%,46.9947%,68.3467%,1)"/>
  <circle cx="11" cy="2" r="1" fill="srgba(37.9263%,46.9947%,68.3467%,1)"/>
  <circle cx="12" cy="2" r="1" fill="srgba(37.9263%,46.9947%,68.3467%,1)"/>
  <circle cx="13" cy="2" r="1" fill="srgba(37.9263%,46.9947%,68.3467%,1)"/>
  <circle cx="14" cy="2" r="1" fill="srgba(37.9263%,46.9947%,68.3467%,1)"/>
  <circle cx="15" cy="2" r="1" fill="srgba(37.9263%,46.9947%,68.3467%,1)"/>
  <circle cx="0" cy="3" r="1" fill="srgba(84.5808%,51.7311%,53.6965%,1)"/>
  <circle cx="1" cy="3" r="1" fill="srgba(84.5808%,51.7311%,53.6965%,1)"/>
  <circle cx="2" cy="3" r="1" fill="srgba(84.5808%,51.7327%,53.698%,1)"/>
  <circle cx="3" cy="3" r="1" fill="srgba(84.5808%,51.7327%,53.698%,1)"/>
  <circle cx="4" cy="3" r="1" fill="srgba(84.4053%,50.9468%,52.9107%,1)"/>
  <circle cx="5" cy="3" r="1" fill="srgba(84.2527%,50.2632%,52.2271%,1)"/>
  <circle cx="6" cy="3" r="1" fill="srgba(84.3915%,50.8873%,52.8511%,1)"/>
  <circle cx="7" cy="3" r="1" fill="srgba(84.2664%,50.3243%,52.2896%,1)"/>
  <circle cx="8" cy="3" r="1" fill="srgba(84.3702%,50.7881%,52.752%,1)"/>
  <circle cx="9" cy="3" r="1" fill="srgba(84.5762%,51.7098%,53.6736%,1)"/>
  <circle cx="10" cy="3" r="1" fill="srgba(84.5808%,51.7342%,53.6995%,1)"/>
  <circle cx="11" cy="3" r="1" fill="srgba(84.5808%,51.7311%,53.6965%,1)"/>
  <circle cx="12" cy="3" r="1" fill="srgba(84.5808%,51.7311%,53.6965%,1)"/>
  <circle cx="13" cy="3" r="1" fill="srgba(84.5808%,51.7311%,53.6965%,1)"/>
  <circle cx="14" cy="3" r="1" fill="srgba(84.5808%,51.7311%,53.6965%,1)"/>
  <circle cx="15" cy="3" r="1" fill="srgba(84.5808%,51.7311%,53.6965%,1)"/>
  <circle cx="0" cy="4" r="1" fill="srgba(77.8347%,0%,0%,1)"/>
  <circle cx="1" cy="4" r="1" fill="srgba(77.8347%,0%,0%,1)"/>
  <circle cx="2" cy="4" r="1" fill="srgba(77.8317%,0%,0%,1)"/>
  <circle cx="3" cy="4" r="1" fill="srgba(77.673%,0%,0%,1)"/>
  <circle cx="4" cy="4" r="1" fill="srgba(80.7248%,12.723%,12.6207%,1)"/>
  <circle cx="5" cy="4" r="1" fill="srgba(87.4601%,42.5711%,42.4445%,1)"/>
  <circle cx="6" cy="4" r="1" fill="srgba(90.4555%,55.9838%,55.8587%,1)"/>
  <circle cx="7" cy="4" r="1" fill="srgba(88.0934%,45.4093%,45.2842%,1)"/>
  <circle cx="8" cy="4" r="1" fill="srgba(81.4817%,16.0067%,15.8938%,1)"/>
  <circle cx="9" cy="4" r="1" fill="srgba(77.7356%,0.144961%,0.12665%,1)"/>
  <circle cx="10" cy="4" r="1" fill="srgba(77.821%,0%,0%,1)"/>
  <circle cx="11" cy="4" r="1" fill="srgba(77.8347%,0%,0%,1)"/>
  <circle cx="12" cy="4" r="1" fill="srgba(77.8347%,0%,0%,1)"/>
  <circle cx="13" cy="4" r="1" fill="srgba(77.8347%,0%,0%,1)"/>
  <circle cx="14" cy="4" r="1" fill="srgba(77.8347%,0%,0%,1)"/>
  <circle cx="15" cy="4" r="1" fill="srgba(77.8347%,0%,0%,1)"/>
  <circle cx="0" cy="5" r="1" fill="srgba(77.6455%,0%,0%,1)"/>
  <circle cx="1" cy="5" r="1" fill="srgba(198,0,0,1)"/>
  <circle cx="2" cy="5" r="1" fill="srgba(77.4365%,0%,0%,1)"/>
  <circle cx="3" cy="5" r="1" fill="srgba(82.5727%,22.2705%,22.2705%,1)"/>
  <circle cx="4" cy="5" r="1" fill="srgba(96.0006%,82.0859%,82.0859%,1)"/>
  <circle cx="5" cy="5" r="1" fill="srgba(99.8749%,99.4598%,99.4598%,1)"/>
  <circle cx="6" cy="5" r="1" fill="srgba(94.815%,77.6211%,77.6211%,1)"/>
  <circle cx="7" cy="5" r="1" fill="srgba(99.0051%,95.7137%,95.7137%,1)"/>
  <circle cx="8" cy="5" r="1" fill="srgba(97.0901%,86.9505%,86.9505%,1)"/>
  <circle cx="9" cy="5" r="1" fill="srgba(84.1169%,29.1356%,29.1356%,1)"/>
  <circle cx="10" cy="5" r="1" fill="srgba(77.4731%,0%,0%,1)"/>
  <circle cx="11" cy="5" r="1" fill="srgba(77.644%,0%,0%,1)"/>
  <circle cx="12" cy="5" r="1" fill="srgba(77.6455%,0%,0%,1)"/>
  <circle cx="13" cy="5" r="1" fill="srgba(77.6455%,0%,0%,1)"/>
  <circle cx="14" cy="5" r="1" fill="srgba(77.6455%,0%,0%,1)"/>
  <circle cx="15" cy="5" r="1" fill="srgba(77.6455%,0%,0%,1)"/>
  <circle cx="0" cy="6" r="1" fill="srgba(198,0,0,1)"/>
  <circle cx="1" cy="6" r="1" fill="srgba(77.5753%,0%,0%,1)"/>
  <circle cx="2" cy="6" r="1" fill="srgba(78.7289%,4.88289%,4.88289%,1)"/>
  <circle cx="3" cy="6" r="1" fill="srgba(93.5653%,71.281%,71.281%,1)"/>
  <circle cx="4" cy="6" r="1" fill="srgba(99.3576%,97.2915%,97.2915%,1)"/>
  <circle cx="5" cy="6" r="1" fill="srgba(97.6425%,89.8207%,89.8207%,1)"/>
  <circle cx="6" cy="6" r="1" fill="srgba(84.0375%,31.4199%,31.4199%,1)"/>
  <circle cx="7" cy="6" r="1" fill="srgba(94.8302%,77.7279%,77.7279%,1)"/>
  <circle cx="8" cy="6" r="1" fill="srgba(99.2706%,96.8994%,96.8994%,1)"/>
  <circle cx="9" cy="6" r="1" fill="srgba(95.0774%,78.0789%,78.0789%,1)"/>
  <circle cx="10" cy="6" r="1" fill="srgba(79.7024%,9.24086%,9.24086%,1)"/>
  <circle cx="11" cy="6" r="1" fill="srgba(77.5158%,0%,0%,1)"/>
  <circle cx="12" cy="6" r="1" fill="srgba(198,0,0,1)"/>
  <circle cx="13" cy="6" r="1" fill="srgba(198,0,0,1)"/>
  <circle cx="14" cy="6" r="1" fill="srgba(198,0,0,1)"/>
  <circle cx="15" cy="6" r="1" fill="srgba(198,0,0,1)"/>
  <circle cx="0" cy="7" r="1" fill="srgba(198,0,0,1)"/>
  <circle cx="1" cy="7" r="1" fill="srgba(77.4029%,0%,0%,1)"/>
  <circle cx="2" cy="7" r="1" fill="srgba(81.6266%,17.792%,17.792%,1)"/>
  <circle cx="3" cy="7" r="1" fill="srgba(97.258%,87.8843%,87.8843%,1)"/>
  <circle cx="4" cy="7" r="1" fill="srgba(89.8207%,56.022%,56.022%,1)"/>
  <circle cx="5" cy="7" r="1" fill="srgba(82.0035%,22.298%,22.298%,1)"/>
  <circle cx="6" cy="7" r="1" fill="srgba(77.5204%,3.27764%,3.27764%,1)"/>
  <circle cx="7" cy="7" r="1" fill="srgba(80.6836%,16.6659%,16.6659%,1)"/>
  <circle cx="8" cy="7" r="1" fill="srgba(87.4434%,45.7221%,45.7221%,1)"/>
  <circle cx="9" cy="7" r="1" fill="srgba(96.9619%,86.7475%,86.7475%,1)"/>
  <circle cx="10" cy="7" r="1" fill="srgba(83.5004%,26.1677%,26.1677%,1)"/>
  <circle cx="11" cy="7" r="1" fill="srgba(77.3159%,0%,0%,1)"/>
  <circle cx="12" cy="7" r="1" fill="srgba(198,0,0,1)"/>
  <circle cx="13" cy="7" r="1" fill="srgba(198,0,0,1)"/>
  <circle cx="14" cy="7" r="1" fill="srgba(198,0,0,1)"/>
  <circle cx="15" cy="7" r="1" fill="srgba(198,0,0,1)"/>
  <circle cx="0" cy="8" r="1" fill="srgba(198,0,0,1)"/>
  <circle cx="1" cy="8" r="1" fill="srgba(77.4029%,0%,0%,1)"/>
  <circle cx="2" cy="8" r="1" fill="srgba(81.5671%,17.5326%,17.5326%,1)"/>
  <circle cx="3" cy="8" r="1" fill="srgba(98.2895%,92.3339%,92.3339%,1)"/>
  <circle cx="4" cy="8" r="1" fill="srgba(98.4497%,93.286%,93.286%,1)"/>
  <circle cx="5" cy="8" r="1" fill="srgba(83.4195%,29.5201%,29.5201%,1)"/>
  <circle cx="6" cy="8" r="1" fill="srgba(76.1242%,0%,0%,1)"/>
  <circle cx="7" cy="8" r="1" fill="srgba(80.4944%,17.0794%,17.0794%,1)"/>
  <circle cx="8" cy="8" r="1" fill="srgba(96.7147%,85.8549%,85.8549%,1)"/>
  <circle cx="9" cy="8" r="1" fill="srgba(99.2782%,96.7605%,96.7605%,1)"/>
  <circle cx="10" cy="8" r="1" fill="srgba(83.3921%,25.7023%,25.7023%,1)"/>
  <circle cx="11" cy="8" r="1" fill="srgba(77.3159%,0%,0%,1)"/>
  <circle cx="12" cy="8" r="1" fill="srgba(198,0,0,1)"/>
  <circle cx="13" cy="8" r="1" fill="srgba(198,0,0,1)"/>
  <circle cx="14" cy="8" r="1" fill="srgba(198,0,0,1)"/>
  <circle cx="15" cy="8" r="1" fill="srgba(198,0,0,1)"/>
  <circle cx="0" cy="9" r="1" fill="srgba(198,0,0,1)"/>
  <circle cx="1" cy="9" r="1" fill="srgba(77.5738%,0%,0%,1)"/>
  <circle cx="2" cy="9" r="1" fill="srgba(78.7243%,4.86305%,4.86305%,1)"/>
  <circle cx="3" cy="9" r="1" fill="srgba(93.8613%,72.5429%,72.5429%,1)"/>
  <circle cx="4" cy="9" r="1" fill="srgba(98.6664%,94.2763%,94.2763%,1)"/>
  <circle cx="5" cy="9" r="1" fill="srgba(85.5512%,37.5525%,37.5525%,1)"/>
  <circle cx="6" cy="9" r="1" fill="srgba(88.574%,50.6188%,50.6188%,1)"/>
  <circle cx="7" cy="9" r="1" fill="srgba(84.7669%,34.1634%,34.1634%,1)"/>
  <circle cx="8" cy="9" r="1" fill="srgba(96.7681%,86.0639%,86.0639%,1)"/>
  <circle cx="9" cy="9" r="1" fill="srgba(95.7351%,80.9125%,80.9125%,1)"/>
  <circle cx="10" cy="9" r="1" fill="srgba(79.6918%,9.20424%,9.20424%,1)"/>
  <circle cx="11" cy="9" r="1" fill="srgba(77.5158%,0%,0%,1)"/>
  <circle cx="12" cy="9" r="1" fill="srgba(198,0,0,1)"/>
  <circle cx="13" cy="9" r="1" fill="srgba(198,0,0,1)"/>
  <circle cx="14" cy="9" r="1" fill="srgba(198,0,0,1)"/>
  <circle cx="15" cy="9" r="1" fill="srgba(198,0,0,1)"/>
  <circle cx="0" cy="10" r="1" fill="srgba(77.6455%,0%,0%,1)"/>
  <circle cx="1" cy="10" r="1" fill="srgba(198,0,0,1)"/>
  <circle cx="2" cy="10" r="1" fill="srgba(77.438%,0%,0%,1)"/>
  <circle cx="3" cy="10" r="1" fill="srgba(82.6673%,22.6825%,22.6825%,1)"/>
  <circle cx="4" cy="10" r="1" fill="srgba(94.5037%,75.6161%,75.6161%,1)"/>
  <circle cx="5" cy="10" r="1" fill="srgba(97.0581%,87.3045%,87.3045%,1)"/>
  <circle cx="6" cy="10" r="1" fill="white"/>
  <circle cx="7" cy="10" r="1" fill="srgba(97.789%,90.4616%,90.4616%,1)"/>
  <circle cx="8" cy="10" r="1" fill="srgba(94.9004%,77.4929%,77.4929%,1)"/>
  <circle cx="9" cy="10" r="1" fill="srgba(84.2176%,29.572%,29.572%,1)"/>
  <circle cx="10" cy="10" r="1" fill="srgba(77.4746%,0%,0%,1)"/>
  <circle cx="11" cy="10" r="1" fill="srgba(77.644%,0%,0%,1)"/>
  <circle cx="12" cy="10" r="1" fill="srgba(77.6455%,0%,0%,1)"/>
  <circle cx="13" cy="10" r="1" fill="srgba(77.6455%,0%,0%,1)"/>
  <circle cx="14" cy="10" r="1" fill="srgba(77.6455%,0%,0%,1)"/>
  <circle cx="15" cy="10" r="1" fill="srgba(77.6455%,0%,0%,1)"/>
  <circle cx="0" cy="11" r="1" fill="srgba(77.821%,0%,0%,1)"/>
  <circle cx="1" cy="11" r="1" fill="srgba(77.821%,0%,0%,1)"/>
  <circle cx="2" cy="11" r="1" fill="srgba(77.818%,0%,0%,1)"/>
  <circle cx="3" cy="11" r="1" fill="srgba(77.6562%,0%,0%,1)"/>
  <circle cx="4" cy="11" r="1" fill="srgba(80.7904%,13.0358%,12.9351%,1)"/>
  <circle cx="5" cy="11" r="1" fill="srgba(87.6677%,43.4958%,43.3722%,1)"/>
  <circle cx="6" cy="11" r="1" fill="srgba(90.5257%,56.3287%,56.2066%,1)"/>
  <circle cx="7" cy="11" r="1" fill="srgba(88.2719%,46.215%,46.0929%,1)"/>
  <circle cx="8" cy="11" r="1" fill="srgba(81.5885%,16.4935%,16.3836%,1)"/>
  <circle cx="9" cy="11" r="1" fill="srgba(77.7173%,0.125124%,0.108339%,1)"/>
  <circle cx="10" cy="11" r="1" fill="srgba(77.8058%,0%,0%,1)"/>
  <circle cx="11" cy="11" r="1" fill="srgba(77.821%,0%,0%,1)"/>
  <circle cx="12" cy="11" r="1" fill="srgba(77.821%,0%,0%,1)"/>
  <circle cx="13" cy="11" r="1" fill="srgba(77.821%,0%,0%,1)"/>
  <circle cx="14" cy="11" r="1" fill="srgba(77.821%,0%,0%,1)"/>
  <circle cx="15" cy="11" r="1" fill="srgba(77.821%,0%,0%,1)"/>
  <circle cx="0" cy="12" r="1" fill="srgba(84.625%,51.5282%,53.4569%,1)"/>
  <circle cx="1" cy="12" r="1" fill="srgba(84.625%,51.5282%,53.4569%,1)"/>
  <circle cx="2" cy="12" r="1" fill="srgba(84.625%,51.5297%,53.4585%,1)"/>
  <circle cx="3" cy="12" r="1" fill="srgba(84.625%,51.5297%,53.4585%,1)"/>
  <circle cx="4" cy="12" r="1" fill="srgba(84.448%,50.7378%,52.6665%,1)"/>
  <circle cx="5" cy="12" r="1" fill="srgba(84.3%,50.074%,52.0027%,1)"/>
  <circle cx="6" cy="12" r="1" fill="srgba(84.4404%,50.7027%,52.6314%,1)"/>
  <circle cx="7" cy="12" r="1" fill="srgba(84.3137%,50.135%,52.0638%,1)"/>
  <circle cx="8" cy="12" r="1" fill="srgba(84.4129%,50.5791%,52.5078%,1)"/>
  <circle cx="9" cy="12" r="1" fill="srgba(84.6204%,51.5053%,53.434%,1)"/>
  <circle cx="10" cy="12" r="1" fill="srgba(84.625%,51.5312%,53.46%,1)"/>
  <circle cx="11" cy="12" r="1" fill="srgba(84.625%,51.5282%,53.4569%,1)"/>
  <circle cx="12" cy="12" r="1" fill="srgba(84.625%,51.5282%,53.4569%,1)"/>
  <circle cx="13" cy="12" r="1" fill="srgba(84.625%,51.5282%,53.4569%,1)"/>
  <circle cx="14" cy="12" r="1" fill="srgba(84.625%,51.5282%,53.4569%,1)"/>
  <circle cx="15" cy="12" r="1" fill="srgba(84.625%,51.5282%,53.4569%,1)"/>
  <circle cx="0" cy="13" r="1" fill="srgba(38.0896%,47.1366%,68.4337%,1)"/>
  <circle cx="1" cy="13" r="1" fill="srgba(38.0896%,47.1366%,68.4337%,1)"/>
  <circle cx="2" cy="13" r="1" fill="srgba(38.0896%,47.1366%,68.4337%,1)"/>
  <circle cx="3" cy="13" r="1" fill="srgba(38.0896%,47.1366%,68.4337%,1)"/>
  <circle cx="4" cy="13" r="1" fill="srgba(38.0896%,47.1366%,68.4337%,1)"/>
  <circle cx="5" cy="13" r="1" fill="srgba(38.0896%,47.1366%,68.4337%,1)"/>
  <circle cx="6" cy="13" r="1" fill="srgba(38.088%,47.1321%,68.4291%,1)"/>
  <circle cx="7" cy="13" r="1" fill="srgba(38.0896%,47.1351%,68.4321%,1)"/>
  <circle cx="8" cy="13" r="1" fill="srgba(38.0896%,47.1366%,68.4337%,1)"/>
  <circle cx="9" cy="13" r="1" fill="srgba(38.0896%,47.1366%,68.4337%,1)"/>
  <circle cx="10" cy="13" r="1" fill="srgba(38.0896%,47.1366%,68.4337%,1)"/>
  <circle cx="11" cy="13" r="1" fill="srgba(38.0896%,47.1366%,68.4337%,1)"/>
  <circle cx="12" cy="13" r="1" fill="srgba(38.0896%,47.1366%,68.4337%,1)"/>
  <circle cx="13" cy="13" r="1" fill="srgba(38.0896%,47.1366%,68.4337%,1)"/>
  <circle cx="14" cy="13" r="1" fill="srgba(38.0896%,47.1366%,68.4337%,1)"/>
  <circle cx="15" cy="13" r="1" fill="srgba(38.0896%,47.1366%,68.4337%,1)"/>
  <circle cx="0" cy="14" r="1" fill="srgba(23.4806%,33.0022%,59.1867%,1)"/>
  <circle cx="1" cy="14" r="1" fill="srgba(23.4806%,33.0022%,59.1867%,1)"/>
  <circle cx="2" cy="14" r="1" fill="srgba(23.4806%,33.0022%,59.1867%,1)"/>
  <circle cx="3" cy="14" r="1" fill="srgba(23.4806%,33.0022%,59.1867%,1)"/>
  <circle cx="4" cy="14" r="1" fill="srgba(23.4806%,33.0022%,59.1867%,1)"/>
  <circle cx="5" cy="14" r="1" fill="srgba(23.4806%,33.0022%,59.1867%,1)"/>
  <circle cx="6" cy="14" r="1" fill="srgba(23.4806%,33.0022%,59.1867%,1)"/>
  <circle cx="7" cy="14" r="1" fill="srgba(23.4806%,33.0022%,59.1867%,1)"/>
  <circle cx="8" cy="14" r="1" fill="srgba(23.4806%,33.0022%,59.1867%,1)"/>
  <circle cx="9" cy="14" r="1" fill="srgba(23.4806%,33.0022%,59.1867%,1)"/>
  <circle cx="10" cy="14" r="1" fill="srgba(23.4806%,33.0022%,59.1867%,1)"/>
  <circle cx="11" cy="14" r="1" fill="srgba(23.4806%,33.0022%,59.1867%,1)"/>
  <circle cx="12" cy="14" r="1" fill="srgba(23.4806%,33.0022%,59.1867%,1)"/>
  <circle cx="13" cy="14" r="1" fill="srgba(23.4806%,33.0022%,59.1867%,1)"/>
  <circle cx="14" cy="14" r="1" fill="srgba(23.4806%,33.0022%,59.1867%,1)"/>
  <circle cx="15" cy="14" r="1" fill="srgba(23.4806%,33.0022%,59.1867%,1)"/>
  <circle cx="0" cy="15" r="1" fill="srgba(24.0986%,33.4249%,59.0692%,1)"/>
  <circle cx="1" cy="15" r="1" fill="srgba(24.0986%,33.4249%,59.0692%,1)"/>
  <circle cx="2" cy="15" r="1" fill="srgba(24.0986%,33.4249%,59.0692%,1)"/>
  <circle cx="3" cy="15" r="1" fill="srgba(24.0986%,33.4249%,59.0692%,1)"/>
  <circle cx="4" cy="15" r="1" fill="srgba(24.0986%,33.4249%,59.0692%,1)"/>
  <circle cx="5" cy="15" r="1" fill="srgba(24.0986%,33.4249%,59.0692%,1)"/>
  <circle cx="6" cy="15" r="1" fill="srgba(24.0986%,33.4249%,59.0692%,1)"/>
  <circle cx="7" cy="15" r="1" fill="srgba(24.0986%,33.4249%,59.0692%,1)"/>
  <circle cx="8" cy="15" r="1" fill="srgba(24.0986%,33.4249%,59.0692%,1)"/>
  <circle cx="9" cy="15" r="1" fill="srgba(24.0986%,33.4249%,59.0692%,1)"/>
  <circle cx="10" cy="15" r="1" fill="srgba(24.0986%,33.4249%,59.0692%,1)"/>
  <circle cx="11" cy="15" r="1" fill="srgba(24.0986%,33.4249%,59.0692%,1)"/>
  <circle cx="12" cy="15" r="1" fill="srgba(24.0986%,33.4249%,59.0692%,1)"/>
  <circle cx="13" cy="15" r="1" fill="srgba(24.0986%,33.4249%,59.0692%,1)"/>
  <circle cx="14" cy="15" r="1" fill="srgba(24.0986%,33.4249%,59.0692%,1)"/>
  <circle cx="15" cy="15" r="1" fill="srgba(24.0986%,33.4249%,59.0692%,1)"/>
</svg>
