<?xml version="1.0" standalone="no"?>
<!DOCTYPE svg PUBLIC "-//W3C//DTD SVG 20010904//EN"
  "http://www.w3.org/TR/2001/REC-SVG-20010904/DTD/svg10.dtd">
<svg width="16" height="16">
  <circle cx="0" cy="0" r="1" fill="srgba(96.5713%,96.5713%,96.5713%,1)"/>
  <circle cx="1" cy="0" r="1" fill="srgba(95.0881%,95.0881%,95.0881%,1)"/>
  <circle cx="2" cy="0" r="1" fill="white"/>
  <circle cx="3" cy="0" r="1" fill="white"/>
  <circle cx="4" cy="0" r="1" fill="white"/>
  <circle cx="5" cy="0" r="1" fill="white"/>
  <circle cx="6" cy="0" r="1" fill="white"/>
  <circle cx="7" cy="0" r="1" fill="white"/>
  <circle cx="8" cy="0" r="1" fill="white"/>
  <circle cx="9" cy="0" r="1" fill="white"/>
  <circle cx="10" cy="0" r="1" fill="white"/>
  <circle cx="11" cy="0" r="1" fill="white"/>
  <circle cx="12" cy="0" r="1" fill="white"/>
  <circle cx="13" cy="0" r="1" fill="srgba(98.3093%,98.3093%,98.3093%,1)"/>
  <circle cx="14" cy="0" r="1" fill="srgba(94.4991%,94.4991%,94.4991%,1)"/>
  <circle cx="15" cy="0" r="1" fill="srgba(99.9802%,99.9802%,99.9802%,1)"/>
  <circle cx="0" cy="1" r="1" fill="srgba(50.0465%,50.0465%,50.0465%,1)"/>
  <circle cx="1" cy="1" r="1" fill="srgba(52.1386%,52.1386%,52.1386%,1)"/>
  <circle cx="2" cy="1" r="1" fill="srgba(91.6838%,91.6838%,91.6838%,1)"/>
  <circle cx="3" cy="1" r="1" fill="white"/>
  <circle cx="4" cy="1" r="1" fill="white"/>
  <circle cx="5" cy="1" r="1" fill="white"/>
  <circle cx="6" cy="1" r="1" fill="white"/>
  <circle cx="7" cy="1" r="1" fill="white"/>
  <circle cx="8" cy="1" r="1" fill="white"/>
  <circle cx="9" cy="1" r="1" fill="white"/>
  <circle cx="10" cy="1" r="1" fill="white"/>
  <circle cx="11" cy="1" r="1" fill="white"/>
  <circle cx="12" cy="1" r="1" fill="srgba(98.233%,98.233%,98.233%,1)"/>
  <circle cx="13" cy="1" r="1" fill="srgba(72.1889%,72.1889%,72.1889%,1)"/>
  <circle cx="14" cy="1" r="1" fill="srgba(42.2843%,42.2843%,42.2843%,1)"/>
  <circle cx="15" cy="1" r="1" fill="srgba(87.6249%,87.6249%,87.6249%,1)"/>
  <circle cx="0" cy="2" r="1" fill="srgba(24.2863%,24.2863%,24.2863%,1)"/>
  <circle cx="1" cy="2" r="1" fill="srgba(26.3157%,26.3157%,26.3157%,1)"/>
  <circle cx="2" cy="2" r="1" fill="srgba(48.8914%,48.8914%,48.8914%,1)"/>
  <circle cx="3" cy="2" r="1" fill="srgba(88.1163%,88.1163%,88.1163%,1)"/>
  <circle cx="4" cy="2" r="1" fill="white"/>
  <circle cx="5" cy="2" r="1" fill="white"/>
  <circle cx="6" cy="2" r="1" fill="white"/>
  <circle cx="7" cy="2" r="1" fill="white"/>
  <circle cx="8" cy="2" r="1" fill="white"/>
  <circle cx="9" cy="2" r="1" fill="white"/>
  <circle cx="10" cy="2" r="1" fill="white"/>
  <circle cx="11" cy="2" r="1" fill="srgba(97.9034%,97.9034%,97.9034%,1)"/>
  <circle cx="12" cy="2" r="1" fill="srgba(64.6326%,64.6326%,64.6326%,1)"/>
  <circle cx="13" cy="2" r="1" fill="srgba(29.3538%,29.3538%,29.3538%,1)"/>
  <circle cx="14" cy="2" r="1" fill="srgba(96,96,96,1)"/>
  <circle cx="15" cy="2" r="1" fill="srgba(72.369%,72.369%,72.369%,1)"/>
  <circle cx="0" cy="3" r="1" fill="srgba(26.8269%,26.8269%,26.8269%,1)"/>
  <circle cx="1" cy="3" r="1" fill="srgba(30.1503%,30.1503%,30.1503%,1)"/>
  <circle cx="2" cy="3" r="1" fill="srgba(30.9758%,30.9758%,30.9758%,1)"/>
  <circle cx="3" cy="3" r="1" fill="srgba(86.128%,86.128%,86.128%,1)"/>
  <circle cx="4" cy="3" r="1" fill="white"/>
  <circle cx="5" cy="3" r="1" fill="srgba(98.7854%,94.4656%,94.4656%,1)"/>
  <circle cx="6" cy="3" r="1" fill="srgba(94.3648%,74.342%,74.342%,1)"/>
  <circle cx="7" cy="3" r="1" fill="srgba(91.4199%,60.9323%,60.9323%,1)"/>
  <circle cx="8" cy="3" r="1" fill="srgba(92.491%,65.8045%,65.8045%,1)"/>
  <circle cx="9" cy="3" r="1" fill="srgba(96.8292%,85.5619%,85.5619%,1)"/>
  <circle cx="10" cy="3" r="1" fill="srgba(99.9603%,99.3851%,99.3851%,1)"/>
  <circle cx="11" cy="3" r="1" fill="srgba(98.6877%,98.735%,98.735%,1)"/>
  <circle cx="12" cy="3" r="1" fill="srgba(51.6533%,51.6533%,51.6533%,1)"/>
  <circle cx="13" cy="3" r="1" fill="srgba(44.9271%,44.9271%,44.9271%,1)"/>
  <circle cx="14" cy="3" r="1" fill="srgba(33.7591%,33.7591%,33.7591%,1)"/>
  <circle cx="15" cy="3" r="1" fill="srgba(39.9847%,39.9847%,39.9847%,1)"/>
  <circle cx="0" cy="4" r="1" fill="srgba(30.164%,30.164%,30.164%,1)"/>
  <circle cx="1" cy="4" r="1" fill="srgba(28.3726%,28.3726%,28.3726%,1)"/>
  <circle cx="2" cy="4" r="1" fill="srgba(76.7315%,76.7376%,76.7376%,1)"/>
  <circle cx="3" cy="4" r="1" fill="white"/>
  <circle cx="4" cy="4" r="1" fill="srgba(95.8923%,81.2757%,81.2757%,1)"/>
  <circle cx="5" cy="4" r="1" fill="srgba(84.3595%,28.7816%,28.7816%,1)"/>
  <circle cx="6" cy="4" r="1" fill="srgba(78.8846%,3.85595%,3.85595%,1)"/>
  <circle cx="7" cy="4" r="1" fill="srgba(77.9736%,0%,0%,1)"/>
  <circle cx="8" cy="4" r="1" fill="srgba(78.2071%,0.868238%,0.868238%,1)"/>
  <circle cx="9" cy="4" r="1" fill="srgba(80.7813%,12.2484%,12.2271%,1)"/>
  <circle cx="10" cy="4" r="1" fill="srgba(90.3349%,55.7412%,55.7198%,1)"/>
  <circle cx="11" cy="4" r="1" fill="srgba(99.5651%,97.1725%,97.1725%,1)"/>
  <circle cx="12" cy="4" r="1" fill="srgba(96.7483%,96.9223%,96.9223%,1)"/>
  <circle cx="13" cy="4" r="1" fill="srgba(75.0332%,75.0332%,75.0332%,1)"/>
  <circle cx="14" cy="4" r="1" fill="srgba(35.6405%,35.6405%,35.6405%,1)"/>
  <circle cx="15" cy="4" r="1" fill="srgba(28.6961%,28.6961%,28.6961%,1)"/>
  <circle cx="0" cy="5" r="1" fill="srgba(49.543%,49.543%,49.543%,1)"/>
  <circle cx="1" cy="5" r="1" fill="srgba(68.8075%,68.8075%,68.8075%,1)"/>
  <circle cx="2" cy="5" r="1" fill="white"/>
  <circle cx="3" cy="5" r="1" fill="srgba(97.4624%,88.336%,88.336%,1)"/>
  <circle cx="4" cy="5" r="1" fill="srgba(82.7359%,21.6434%,21.6434%,1)"/>
  <circle cx="5" cy="5" r="1" fill="srgba(77.6318%,0%,0%,1)"/>
  <circle cx="6" cy="5" r="1" fill="srgba(77.9736%,0%,0%,1)"/>
  <circle cx="7" cy="5" r="1" fill="srgba(78.0453%,0%,0%,1)"/>
  <circle cx="8" cy="5" r="1" fill="srgba(78.5168%,0%,0%,1)"/>
  <circle cx="9" cy="5" r="1" fill="srgba(77.2976%,0%,0%,1)"/>
  <circle cx="10" cy="5" r="1" fill="srgba(77.9507%,3.01061%,2.99535%,1)"/>
  <circle cx="11" cy="5" r="1" fill="srgba(91.3573%,57.9187%,57.6837%,1)"/>
  <circle cx="12" cy="5" r="1" fill="white"/>
  <circle cx="13" cy="5" r="1" fill="srgba(88.6976%,88.7282%,88.7282%,1)"/>
  <circle cx="14" cy="5" r="1" fill="srgba(46.1677%,46.1677%,46.1677%,1)"/>
  <circle cx="15" cy="5" r="1" fill="srgba(76.6629%,76.6629%,76.6629%,1)"/>
  <circle cx="0" cy="6" r="1" fill="srgba(97.0077%,97.0077%,97.0077%,1)"/>
  <circle cx="1" cy="6" r="1" fill="srgba(99.0753%,99.0829%,99.0829%,1)"/>
  <circle cx="2" cy="6" r="1" fill="white"/>
  <circle cx="3" cy="6" r="1" fill="srgba(89.8161%,53.5714%,53.5439%,1)"/>
  <circle cx="4" cy="6" r="1" fill="srgba(77.8592%,0%,0%,1)"/>
  <circle cx="5" cy="6" r="1" fill="srgba(78.027%,0%,0%,1)"/>
  <circle cx="6" cy="6" r="1" fill="srgba(78.0423%,0%,0%,1)"/>
  <circle cx="7" cy="6" r="1" fill="srgba(78.3261%,0%,0%,1)"/>
  <circle cx="8" cy="6" r="1" fill="srgba(65.6992%,7.93469%,13.6126%,1)"/>
  <circle cx="9" cy="6" r="1" fill="srgba(43.0045%,22.3529%,38.3444%,1)"/>
  <circle cx="10" cy="6" r="1" fill="srgba(42.2248%,21.4527%,37.6791%,1)"/>
  <circle cx="11" cy="6" r="1" fill="srgba(67.8553%,25.0034%,31.2795%,1)"/>
  <circle cx="12" cy="6" r="1" fill="srgba(97.7722%,89.5064%,89.4728%,1)"/>
  <circle cx="13" cy="6" r="1" fill="white"/>
  <circle cx="14" cy="6" r="1" fill="srgba(97.1405%,97.1405%,97.1405%,1)"/>
  <circle cx="15" cy="6" r="1" fill="srgba(99.2676%,99.2676%,99.2676%,1)"/>
  <circle cx="0" cy="7" r="1" fill="white"/>
  <circle cx="1" cy="7" r="1" fill="white"/>
  <circle cx="2" cy="7" r="1" fill="srgba(98.9075%,98.4558%,98.7594%,1)"/>
  <circle cx="3" cy="7" r="1" fill="srgba(82.414%,31.8975%,32.987%,1)"/>
  <circle cx="4" cy="7" r="1" fill="srgba(77.7462%,0%,0%,1)"/>
  <circle cx="5" cy="7" r="1" fill="srgba(78.0377%,0%,0%,1)"/>
  <circle cx="6" cy="7" r="1" fill="srgba(78.4482%,0%,0%,1)"/>
  <circle cx="7" cy="7" r="1" fill="srgba(71.9844%,4.00549%,6.87114%,1)"/>
  <circle cx="8" cy="7" r="1" fill="srgba(33.7224%,28.2719%,48.5115%,1)"/>
  <circle cx="9" cy="7" r="1" fill="srgba(22.6337%,35.3307%,60.6241%,1)"/>
  <circle cx="10" cy="7" r="1" fill="srgba(22.6291%,35.1003%,60.3754%,1)"/>
  <circle cx="11" cy="7" r="1" fill="srgba(32.5841%,32.6192%,53.6904%,1)"/>
  <circle cx="12" cy="7" r="1" fill="srgba(86.7613%,78.6007%,82.0203%,1)"/>
  <circle cx="13" cy="7" r="1" fill="white"/>
  <circle cx="14" cy="7" r="1" fill="white"/>
  <circle cx="15" cy="7" r="1" fill="white"/>
  <circle cx="0" cy="8" r="1" fill="white"/>
  <circle cx="1" cy="8" r="1" fill="white"/>
  <circle cx="2" cy="8" r="1" fill="srgba(97.3098%,98.2712%,99.1943%,1)"/>
  <circle cx="3" cy="8" r="1" fill="srgba(71.4183%,34.3633%,40.0809%,1)"/>
  <circle cx="4" cy="8" r="1" fill="srgba(77.9324%,0%,0%,1)"/>
  <circle cx="5" cy="8" r="1" fill="srgba(78.6023%,0%,0%,1)"/>
  <circle cx="6" cy="8" r="1" fill="srgba(79.321%,0%,0%,1)"/>
  <circle cx="7" cy="8" r="1" fill="srgba(56.4202%,13.8674%,23.7934%,1)"/>
  <circle cx="8" cy="8" r="1" fill="srgba(24.0986%,34.3923%,59.0127%,1)"/>
  <circle cx="9" cy="8" r="1" fill="srgba(23.8773%,34.5373%,59.2645%,1)"/>
  <circle cx="10" cy="8" r="1" fill="srgba(23.8087%,34.4488%,59.1943%,1)"/>
  <circle cx="11" cy="8" r="1" fill="srgba(25.6474%,35.5673%,59.675%,1)"/>
  <circle cx="12" cy="8" r="1" fill="srgba(78.8449%,79.8199%,86.5171%,1)"/>
  <circle cx="13" cy="8" r="1" fill="white"/>
  <circle cx="14" cy="8" r="1" fill="white"/>
  <circle cx="15" cy="8" r="1" fill="white"/>
  <circle cx="0" cy="9" r="1" fill="white"/>
  <circle cx="1" cy="9" r="1" fill="white"/>
  <circle cx="2" cy="9" r="1" fill="srgba(99.6933%,100%,100%,1)"/>
  <circle cx="3" cy="9" r="1" fill="srgba(62.1408%,56.7361%,68.0934%,1)"/>
  <circle cx="4" cy="9" r="1" fill="srgba(58.5855%,10.399%,19.1058%,1)"/>
  <circle cx="5" cy="9" r="1" fill="srgba(70.3563%,4.91493%,8.42451%,1)"/>
  <circle cx="6" cy="9" r="1" fill="srgba(60.9567%,10.8919%,18.6923%,1)"/>
  <circle cx="7" cy="9" r="1" fill="srgba(32.0653%,29.3156%,50.3044%,1)"/>
  <circle cx="8" cy="9" r="1" fill="srgba(23.4882%,34.786%,59.6902%,1)"/>
  <circle cx="9" cy="9" r="1" fill="srgba(23.9246%,34.5098%,59.2142%,1)"/>
  <circle cx="10" cy="9" r="1" fill="srgba(23.4424%,34.1299%,58.9929%,1)"/>
  <circle cx="11" cy="9" r="1" fill="srgba(30.5974%,39.7772%,62.2721%,1)"/>
  <circle cx="12" cy="9" r="1" fill="srgba(87.0802%,88.2261%,92.3629%,1)"/>
  <circle cx="13" cy="9" r="1" fill="white"/>
  <circle cx="14" cy="9" r="1" fill="white"/>
  <circle cx="15" cy="9" r="1" fill="white"/>
  <circle cx="0" cy="10" r="1" fill="srgba(71.6258%,71.6258%,71.6258%,1)"/>
  <circle cx="1" cy="10" r="1" fill="srgba(87.7897%,87.7897%,87.7897%,1)"/>
  <circle cx="2" cy="10" r="1" fill="white"/>
  <circle cx="3" cy="10" r="1" fill="srgba(80.5219%,83.4119%,89.7536%,1)"/>
  <circle cx="4" cy="10" r="1" fill="srgba(30.6279%,37.7081%,60.0107%,1)"/>
  <circle cx="5" cy="10" r="1" fill="srgba(28.3803%,30.6462%,53.2265%,1)"/>
  <circle cx="6" cy="10" r="1" fill="srgba(25.7801%,33.3394%,57.1984%,1)"/>
  <circle cx="7" cy="10" r="1" fill="srgba(23.5645%,34.7387%,59.6078%,1)"/>
  <circle cx="8" cy="10" r="1" fill="srgba(23.9353%,34.5068%,59.2065%,1)"/>
  <circle cx="9" cy="10" r="1" fill="srgba(23.8361%,34.4442%,59.1791%,1)"/>
  <circle cx="10" cy="10" r="1" fill="srgba(22.6307%,33.3913%,58.5168%,1)"/>
  <circle cx="11" cy="10" r="1" fill="srgba(52.7092%,58.6557%,73.9559%,1)"/>
  <circle cx="12" cy="10" r="1" fill="srgba(98.5794%,98.6038%,99.1089%,1)"/>
  <circle cx="13" cy="10" r="1" fill="srgba(96.6705%,96.6629%,96.6217%,1)"/>
  <circle cx="14" cy="10" r="1" fill="srgba(69.3324%,69.3324%,69.3324%,1)"/>
  <circle cx="15" cy="10" r="1" fill="srgba(90.9148%,90.9148%,90.9148%,1)"/>
  <circle cx="0" cy="11" r="1" fill="srgba(31.0918%,31.0918%,31.0918%,1)"/>
  <circle cx="1" cy="11" r="1" fill="srgba(38.6938%,38.6938%,38.6938%,1)"/>
  <circle cx="2" cy="11" r="1" fill="srgba(93.1823%,93.1731%,93.1441%,1)"/>
  <circle cx="3" cy="11" r="1" fill="srgba(99.5972%,99.6551%,99.9145%,1)"/>
  <circle cx="4" cy="11" r="1" fill="srgba(66.3615%,71.0674%,81.9944%,1)"/>
  <circle cx="5" cy="11" r="1" fill="srgba(28.2887%,38.6099%,61.9272%,1)"/>
  <circle cx="6" cy="11" r="1" fill="srgba(22.4826%,33.4295%,58.616%,1)"/>
  <circle cx="7" cy="11" r="1" fill="srgba(22.7268%,33.5164%,58.613%,1)"/>
  <circle cx="8" cy="11" r="1" fill="srgba(22.6108%,33.402%,58.5351%,1)"/>
  <circle cx="9" cy="11" r="1" fill="srgba(23.7369%,34.2092%,58.9624%,1)"/>
  <circle cx="10" cy="11" r="1" fill="srgba(44.1733%,51.5679%,69.6651%,1)"/>
  <circle cx="11" cy="11" r="1" fill="srgba(89.5995%,90.8278%,94.1939%,1)"/>
  <circle cx="12" cy="11" r="1" fill="white"/>
  <circle cx="13" cy="11" r="1" fill="srgba(80.3616%,80.3616%,80.3616%,1)"/>
  <circle cx="14" cy="11" r="1" fill="srgba(32.781%,32.781%,32.781%,1)"/>
  <circle cx="15" cy="11" r="1" fill="srgba(40.6958%,40.6958%,40.6958%,1)"/>
  <circle cx="0" cy="12" r="1" fill="srgba(48.6763%,48.6763%,48.6763%,1)"/>
  <circle cx="1" cy="12" r="1" fill="srgba(42.8382%,42.8382%,42.8382%,1)"/>
  <circle cx="2" cy="12" r="1" fill="srgba(46.0822%,46.0822%,46.0822%,1)"/>
  <circle cx="3" cy="12" r="1" fill="srgba(96.3653%,96.3516%,96.321%,1)"/>
  <circle cx="4" cy="12" r="1" fill="srgba(98.9792%,99.1547%,99.5697%,1)"/>
  <circle cx="5" cy="12" r="1" fill="srgba(80.7263%,82.7817%,88.986%,1)"/>
  <circle cx="6" cy="12" r="1" fill="srgba(55.4711%,60.2518%,74.5892%,1)"/>
  <circle cx="7" cy="12" r="1" fill="srgba(44.39%,51.0262%,68.986%,1)"/>
  <circle cx="8" cy="12" r="1" fill="srgba(47.7348%,54.1802%,71.0796%,1)"/>
  <circle cx="9" cy="12" r="1" fill="srgba(67.1656%,70.9071%,81.4984%,1)"/>
  <circle cx="10" cy="12" r="1" fill="srgba(93.1319%,93.7743%,95.9838%,1)"/>
  <circle cx="11" cy="12" r="1" fill="white"/>
  <circle cx="12" cy="12" r="1" fill="srgba(71.3939%,71.3939%,71.3939%,1)"/>
  <circle cx="13" cy="12" r="1" fill="srgba(60.5249%,60.5249%,60.5249%,1)"/>
  <circle cx="14" cy="12" r="1" fill="srgba(68.6809%,68.6809%,68.6809%,1)"/>
  <circle cx="15" cy="12" r="1" fill="srgba(37.7951%,37.7951%,37.7951%,1)"/>
  <circle cx="0" cy="13" r="1" fill="srgba(51.6884%,51.6884%,51.6884%,1)"/>
  <circle cx="1" cy="13" r="1" fill="srgba(37.4472%,37.4472%,37.4472%,1)"/>
  <circle cx="2" cy="13" r="1" fill="srgba(32.2438%,32.2438%,32.2438%,1)"/>
  <circle cx="3" cy="13" r="1" fill="srgba(81.7136%,81.7136%,81.7136%,1)"/>
  <circle cx="4" cy="13" r="1" fill="white"/>
  <circle cx="5" cy="13" r="1" fill="white"/>
  <circle cx="6" cy="13" r="1" fill="srgba(99.6201%,99.5071%,99.6078%,1)"/>
  <circle cx="7" cy="13" r="1" fill="srgba(97.8775%,97.7691%,98.4207%,1)"/>
  <circle cx="8" cy="13" r="1" fill="srgba(98.6831%,98.6374%,99.0433%,1)"/>
  <circle cx="9" cy="13" r="1" fill="srgba(99.9893%,99.9756%,99.9786%,1)"/>
  <circle cx="10" cy="13" r="1" fill="white"/>
  <circle cx="11" cy="13" r="1" fill="srgba(98.3703%,98.3703%,98.3703%,1)"/>
  <circle cx="12" cy="13" r="1" fill="srgba(53.6751%,53.6751%,53.6751%,1)"/>
  <circle cx="13" cy="13" r="1" fill="srgba(29.8955%,29.8955%,29.8955%,1)"/>
  <circle cx="14" cy="13" r="1" fill="srgba(53.5195%,53.5195%,53.5195%,1)"/>
  <circle cx="15" cy="13" r="1" fill="srgba(70.3487%,70.3487%,70.3487%,1)"/>
  <circle cx="0" cy="14" r="1" fill="srgba(29.102%,29.102%,29.102%,1)"/>
  <circle cx="1" cy="14" r="1" fill="srgba(39.4949%,39.4949%,39.4949%,1)"/>
  <circle cx="2" cy="14" r="1" fill="srgba(77.4121%,77.4121%,77.4121%,1)"/>
  <circle cx="3" cy="14" r="1" fill="srgba(99.4598%,99.4598%,99.4598%,1)"/>
  <circle cx="4" cy="14" r="1" fill="white"/>
  <circle cx="5" cy="14" r="1" fill="white"/>
  <circle cx="6" cy="14" r="1" fill="white"/>
  <circle cx="7" cy="14" r="1" fill="white"/>
  <circle cx="8" cy="14" r="1" fill="white"/>
  <circle cx="9" cy="14" r="1" fill="white"/>
  <circle cx="10" cy="14" r="1" fill="white"/>
  <circle cx="11" cy="14" r="1" fill="white"/>
  <circle cx="12" cy="14" r="1" fill="srgba(95.7046%,95.7046%,95.7046%,1)"/>
  <circle cx="13" cy="14" r="1" fill="srgba(60.1709%,60.1709%,60.1709%,1)"/>
  <circle cx="14" cy="14" r="1" fill="srgba(32.401%,32.401%,32.401%,1)"/>
  <circle cx="15" cy="14" r="1" fill="srgba(78.9456%,78.9456%,78.9456%,1)"/>
  <circle cx="0" cy="15" r="1" fill="srgba(82.1088%,82.1088%,82.1088%,1)"/>
  <circle cx="1" cy="15" r="1" fill="srgba(81.0895%,81.0895%,81.0895%,1)"/>
  <circle cx="2" cy="15" r="1" fill="white"/>
  <circle cx="3" cy="15" r="1" fill="white"/>
  <circle cx="4" cy="15" r="1" fill="white"/>
  <circle cx="5" cy="15" r="1" fill="white"/>
  <circle cx="6" cy="15" r="1" fill="white"/>
  <circle cx="7" cy="15" r="1" fill="white"/>
  <circle cx="8" cy="15" r="1" fill="white"/>
  <circle cx="9" cy="15" r="1" fill="white"/>
  <circle cx="10" cy="15" r="1" fill="white"/>
  <circle cx="11" cy="15" r="1" fill="white"/>
  <circle cx="12" cy="15" r="1" fill="white"/>
  <circle cx="13" cy="15" r="1" fill="srgba(96.0113%,96.0113%,96.0113%,1)"/>
  <circle cx="14" cy="15" r="1" fill="srgba(83.7156%,83.7156%,83.7156%,1)"/>
  <circle cx="15" cy="15" r="1" fill="srgba(99.118%,99.118%,99.118%,1)"/>
</svg>
