<?xml version="1.0" standalone="no"?>
<!DOCTYPE svg PUBLIC "-//W3C//DTD SVG 20010904//EN"
  "http://www.w3.org/TR/2001/REC-SVG-20010904/DTD/svg10.dtd">
<svg width="16" height="16">
  <circle cx="0" cy="0" r="1" fill="srgba(0%,22.3285%,6.68956%,1)"/>
  <circle cx="1" cy="0" r="1" fill="srgba(0%,60.4868%,18.1186%,1)"/>
  <circle cx="2" cy="0" r="1" fill="srgba(0%,83.8834%,25.127%,1)"/>
  <circle cx="3" cy="0" r="1" fill="srgba(0%,86.1997%,25.8198%,1)"/>
  <circle cx="4" cy="0" r="1" fill="srgba(0%,85.1575%,25.5085%,1)"/>
  <circle cx="5" cy="0" r="1" fill="srgba(0%,85.0935%,25.4887%,1)"/>
  <circle cx="6" cy="0" r="1" fill="srgba(0,217,65,1)"/>
  <circle cx="7" cy="0" r="1" fill="srgba(0,217,65,1)"/>
  <circle cx="8" cy="0" r="1" fill="srgba(0,217,65,1)"/>
  <circle cx="9" cy="0" r="1" fill="srgba(0,217,65,1)"/>
  <circle cx="10" cy="0" r="1" fill="srgba(0,217,65,1)"/>
  <circle cx="11" cy="0" r="1" fill="srgba(0,217,65,1)"/>
  <circle cx="12" cy="0" r="1" fill="srgba(0,217,65,1)"/>
  <circle cx="13" cy="0" r="1" fill="srgba(0,217,65,1)"/>
  <circle cx="14" cy="0" r="1" fill="srgba(0%,85.098%,25.4887%,1)"/>
  <circle cx="15" cy="0" r="1" fill="srgba(0.030518%,85.1057%,25.5131%,1)"/>
  <circle cx="0" cy="1" r="1" fill="black"/>
  <circle cx="1" cy="1" r="1" fill="srgba(0%,6.12955%,1.83566%,1)"/>
  <circle cx="2" cy="1" r="1" fill="srgba(0%,34.1711%,10.2342%,1)"/>
  <circle cx="3" cy="1" r="1" fill="srgba(0%,69.4545%,20.8042%,1)"/>
  <circle cx="4" cy="1" r="1" fill="srgba(0%,85.2476%,25.5344%,1)"/>
  <circle cx="5" cy="1" r="1" fill="srgba(0%,85.835%,25.7115%,1)"/>
  <circle cx="6" cy="1" r="1" fill="srgba(0%,85.1087%,25.4932%,1)"/>
  <circle cx="7" cy="1" r="1" fill="srgba(0%,85.0965%,25.4902%,1)"/>
  <circle cx="8" cy="1" r="1" fill="srgba(0,217,65,1)"/>
  <circle cx="9" cy="1" r="1" fill="srgba(0,217,65,1)"/>
  <circle cx="10" cy="1" r="1" fill="srgba(0,217,65,1)"/>
  <circle cx="11" cy="1" r="1" fill="srgba(0,217,65,1)"/>
  <circle cx="12" cy="1" r="1" fill="srgba(0,217,65,1)"/>
  <circle cx="13" cy="1" r="1" fill="srgba(0,217,65,1)"/>
  <circle cx="14" cy="1" r="1" fill="srgba(0%,85.098%,25.4887%,1)"/>
  <circle cx="15" cy="1" r="1" fill="srgba(0.030518%,85.1057%,25.5131%,1)"/>
  <circle cx="0" cy="2" r="1" fill="black"/>
  <circle cx="1" cy="2" r="1" fill="black"/>
  <circle cx="2" cy="2" r="1" fill="black"/>
  <circle cx="3" cy="2" r="1" fill="srgba(0%,8.95247%,2.68254%,1)"/>
  <circle cx="4" cy="2" r="1" fill="srgba(0%,40.6302%,12.1706%,1)"/>
  <circle cx="5" cy="2" r="1" fill="srgba(0%,74.0078%,22.1683%,1)"/>
  <circle cx="6" cy="2" r="1" fill="srgba(0%,85.9495%,25.745%,1)"/>
  <circle cx="7" cy="2" r="1" fill="srgba(0%,85.6184%,25.6458%,1)"/>
  <circle cx="8" cy="2" r="1" fill="srgba(0%,85.0919%,25.4887%,1)"/>
  <circle cx="9" cy="2" r="1" fill="srgba(0,217,65,1)"/>
  <circle cx="10" cy="2" r="1" fill="srgba(0,217,65,1)"/>
  <circle cx="11" cy="2" r="1" fill="srgba(0,217,65,1)"/>
  <circle cx="12" cy="2" r="1" fill="srgba(0,217,65,1)"/>
  <circle cx="13" cy="2" r="1" fill="srgba(0,217,65,1)"/>
  <circle cx="14" cy="2" r="1" fill="srgba(0%,85.098%,25.4887%,1)"/>
  <circle cx="15" cy="2" r="1" fill="srgba(0.030518%,85.1057%,25.5131%,1)"/>
  <circle cx="0" cy="3" r="1" fill="black"/>
  <circle cx="1" cy="3" r="1" fill="black"/>
  <circle cx="2" cy="3" r="1" fill="black"/>
  <circle cx="3" cy="3" r="1" fill="black"/>
  <circle cx="4" cy="3" r="1" fill="srgba(0%,0.277714%,0.0839246%,1)"/>
  <circle cx="5" cy="3" r="1" fill="srgba(0%,13.1029%,3.92615%,1)"/>
  <circle cx="6" cy="3" r="1" fill="srgba(0%,47.5608%,14.2458%,1)"/>
  <circle cx="7" cy="3" r="1" fill="srgba(0%,77.8561%,23.3204%,1)"/>
  <circle cx="8" cy="3" r="1" fill="srgba(0%,86.2608%,25.8396%,1)"/>
  <circle cx="9" cy="3" r="1" fill="srgba(0%,85.4231%,25.5756%,1)"/>
  <circle cx="10" cy="3" r="1" fill="srgba(0%,85.0797%,25.4536%,1)"/>
  <circle cx="11" cy="3" r="1" fill="srgba(0%,85.0919%,25.4566%,1)"/>
  <circle cx="12" cy="3" r="1" fill="srgba(0%,85.0919%,25.4566%,1)"/>
  <circle cx="13" cy="3" r="1" fill="srgba(0%,85.0919%,25.4566%,1)"/>
  <circle cx="14" cy="3" r="1" fill="srgba(0%,85.0919%,25.4551%,1)"/>
  <circle cx="15" cy="3" r="1" fill="srgba(0.030518%,85.0996%,25.4795%,1)"/>
  <circle cx="0" cy="4" r="1" fill="black"/>
  <circle cx="1" cy="4" r="1" fill="black"/>
  <circle cx="2" cy="4" r="1" fill="black"/>
  <circle cx="3" cy="4" r="1" fill="black"/>
  <circle cx="4" cy="4" r="1" fill="black"/>
  <circle cx="5" cy="4" r="1" fill="black"/>
  <circle cx="6" cy="4" r="1" fill="srgba(0%,1.01625%,0.30518%,1)"/>
  <circle cx="7" cy="4" r="1" fill="srgba(0%,18.0972%,5.42%,1)"/>
  <circle cx="8" cy="4" r="1" fill="srgba(0%,54.3282%,16.2615%,1)"/>
  <circle cx="9" cy="4" r="1" fill="srgba(0.151064%,80.3677%,23.9948%,1)"/>
  <circle cx="10" cy="4" r="1" fill="srgba(0.444038%,85.3208%,25.8473%,1)"/>
  <circle cx="11" cy="4" r="1" fill="srgba(0.447089%,85.1667%,25.8244%,1)"/>
  <circle cx="12" cy="4" r="1" fill="srgba(0.447089%,85.1652%,25.8228%,1)"/>
  <circle cx="13" cy="4" r="1" fill="srgba(0.447089%,85.1652%,25.8228%,1)"/>
  <circle cx="14" cy="4" r="1" fill="srgba(0.445563%,85.1652%,25.8213%,1)"/>
  <circle cx="15" cy="4" r="1" fill="srgba(0.477607%,85.1728%,25.8457%,1)"/>
  <circle cx="0" cy="5" r="1" fill="black"/>
  <circle cx="1" cy="5" r="1" fill="black"/>
  <circle cx="2" cy="5" r="1" fill="black"/>
  <circle cx="3" cy="5" r="1" fill="black"/>
  <circle cx="4" cy="5" r="1" fill="black"/>
  <circle cx="5" cy="5" r="1" fill="black"/>
  <circle cx="6" cy="5" r="1" fill="black"/>
  <circle cx="7" cy="5" r="1" fill="black"/>
  <circle cx="8" cy="5" r="1" fill="srgba(0%,1.46181%,0%,1)"/>
  <circle cx="9" cy="5" r="1" fill="srgba(28.838%,49.4392%,34.8486%,1)"/>
  <circle cx="10" cy="5" r="1" fill="srgba(64.9912%,95.4559%,74.1176%,1)"/>
  <circle cx="11" cy="5" r="1" fill="srgba(64.5335%,94.728%,73.5729%,1)"/>
  <circle cx="12" cy="5" r="1" fill="srgba(64.5243%,94.7173%,73.5637%,1)"/>
  <circle cx="13" cy="5" r="1" fill="srgba(64.5243%,94.7173%,73.5637%,1)"/>
  <circle cx="14" cy="5" r="1" fill="srgba(64.5243%,94.7173%,73.5637%,1)"/>
  <circle cx="15" cy="5" r="1" fill="srgba(64.535%,94.7204%,73.5714%,1)"/>
  <circle cx="0" cy="6" r="1" fill="black"/>
  <circle cx="1" cy="6" r="1" fill="black"/>
  <circle cx="2" cy="6" r="1" fill="black"/>
  <circle cx="3" cy="6" r="1" fill="black"/>
  <circle cx="4" cy="6" r="1" fill="black"/>
  <circle cx="5" cy="6" r="1" fill="black"/>
  <circle cx="6" cy="6" r="1" fill="black"/>
  <circle cx="7" cy="6" r="1" fill="black"/>
  <circle cx="8" cy="6" r="1" fill="srgba(1.49386%,1.3962%,1.46334%,1)"/>
  <circle cx="9" cy="6" r="1" fill="srgba(65.4658%,64.9851%,65.3269%,1)"/>
  <circle cx="10" cy="6" r="1" fill="white"/>
  <circle cx="11" cy="6" r="1" fill="white"/>
  <circle cx="12" cy="6" r="1" fill="white"/>
  <circle cx="13" cy="6" r="1" fill="white"/>
  <circle cx="14" cy="6" r="1" fill="white"/>
  <circle cx="15" cy="6" r="1" fill="white"/>
  <circle cx="0" cy="7" r="1" fill="black"/>
  <circle cx="1" cy="7" r="1" fill="black"/>
  <circle cx="2" cy="7" r="1" fill="black"/>
  <circle cx="3" cy="7" r="1" fill="black"/>
  <circle cx="4" cy="7" r="1" fill="black"/>
  <circle cx="5" cy="7" r="1" fill="black"/>
  <circle cx="6" cy="7" r="1" fill="black"/>
  <circle cx="7" cy="7" r="1" fill="black"/>
  <circle cx="8" cy="7" r="1" fill="srgba(13.1762%,13.1762%,13.1762%,1)"/>
  <circle cx="9" cy="7" r="1" fill="srgba(87.2465%,87.2465%,87.2465%,1)"/>
  <circle cx="10" cy="7" r="1" fill="white"/>
  <circle cx="11" cy="7" r="1" fill="white"/>
  <circle cx="12" cy="7" r="1" fill="white"/>
  <circle cx="13" cy="7" r="1" fill="white"/>
  <circle cx="14" cy="7" r="1" fill="white"/>
  <circle cx="15" cy="7" r="1" fill="white"/>
  <circle cx="0" cy="8" r="1" fill="black"/>
  <circle cx="1" cy="8" r="1" fill="black"/>
  <circle cx="2" cy="8" r="1" fill="black"/>
  <circle cx="3" cy="8" r="1" fill="black"/>
  <circle cx="4" cy="8" r="1" fill="black"/>
  <circle cx="5" cy="8" r="1" fill="black"/>
  <circle cx="6" cy="8" r="1" fill="black"/>
  <circle cx="7" cy="8" r="1" fill="black"/>
  <circle cx="8" cy="8" r="1" fill="srgba(35.1812%,35.1812%,35.1812%,1)"/>
  <circle cx="9" cy="8" r="1" fill="srgba(98.6679%,98.6679%,98.6679%,1)"/>
  <circle cx="10" cy="8" r="1" fill="white"/>
  <circle cx="11" cy="8" r="1" fill="white"/>
  <circle cx="12" cy="8" r="1" fill="white"/>
  <circle cx="13" cy="8" r="1" fill="white"/>
  <circle cx="14" cy="8" r="1" fill="white"/>
  <circle cx="15" cy="8" r="1" fill="white"/>
  <circle cx="0" cy="9" r="1" fill="black"/>
  <circle cx="1" cy="9" r="1" fill="black"/>
  <circle cx="2" cy="9" r="1" fill="black"/>
  <circle cx="3" cy="9" r="1" fill="black"/>
  <circle cx="4" cy="9" r="1" fill="black"/>
  <circle cx="5" cy="9" r="1" fill="black"/>
  <circle cx="6" cy="9" r="1" fill="black"/>
  <circle cx="7" cy="9" r="1" fill="srgba(0.764477%,0.9308%,0.910964%,1)"/>
  <circle cx="8" cy="9" r="1" fill="srgba(62.2934%,62.9709%,62.8977%,1)"/>
  <circle cx="9" cy="9" r="1" fill="white"/>
  <circle cx="10" cy="9" r="1" fill="white"/>
  <circle cx="11" cy="9" r="1" fill="white"/>
  <circle cx="12" cy="9" r="1" fill="white"/>
  <circle cx="13" cy="9" r="1" fill="white"/>
  <circle cx="14" cy="9" r="1" fill="white"/>
  <circle cx="15" cy="9" r="1" fill="white"/>
  <circle cx="0" cy="10" r="1" fill="black"/>
  <circle cx="1" cy="10" r="1" fill="black"/>
  <circle cx="2" cy="10" r="1" fill="black"/>
  <circle cx="3" cy="10" r="1" fill="black"/>
  <circle cx="4" cy="10" r="1" fill="black"/>
  <circle cx="5" cy="10" r="1" fill="black"/>
  <circle cx="6" cy="10" r="1" fill="black"/>
  <circle cx="7" cy="10" r="1" fill="srgba(19.3042%,6.11582%,7.56085%,1)"/>
  <circle cx="8" cy="10" r="1" fill="srgba(85.7527%,55.6512%,58.9456%,1)"/>
  <circle cx="9" cy="10" r="1" fill="srgba(99.1302%,68.4749%,71.8288%,1)"/>
  <circle cx="10" cy="10" r="1" fill="srgba(98.32%,67.7104%,71.0597%,1)"/>
  <circle cx="11" cy="10" r="1" fill="srgba(98.32%,67.7104%,71.0597%,1)"/>
  <circle cx="12" cy="10" r="1" fill="srgba(98.32%,67.7104%,71.0597%,1)"/>
  <circle cx="13" cy="10" r="1" fill="srgba(98.32%,67.7104%,71.0597%,1)"/>
  <circle cx="14" cy="10" r="1" fill="srgba(98.32%,67.7104%,71.0597%,1)"/>
  <circle cx="15" cy="10" r="1" fill="srgba(98.32%,67.7211%,71.0674%,1)"/>
  <circle cx="0" cy="11" r="1" fill="black"/>
  <circle cx="1" cy="11" r="1" fill="black"/>
  <circle cx="2" cy="11" r="1" fill="black"/>
  <circle cx="3" cy="11" r="1" fill="black"/>
  <circle cx="4" cy="11" r="1" fill="black"/>
  <circle cx="5" cy="11" r="1" fill="srgba(3.5172%,0.347906%,0.694285%,1)"/>
  <circle cx="6" cy="11" r="1" fill="srgba(36.1379%,3.55993%,7.12749%,1)"/>
  <circle cx="7" cy="11" r="1" fill="srgba(81.445%,8.20325%,16.2295%,1)"/>
  <circle cx="8" cy="11" r="1" fill="srgba(95.6359%,9.95193%,19.3408%,1)"/>
  <circle cx="9" cy="11" r="1" fill="srgba(95.3201%,9.77646%,19.1501%,1)"/>
  <circle cx="10" cy="11" r="1" fill="srgba(95.3124%,9.78256%,19.1547%,1)"/>
  <circle cx="11" cy="11" r="1" fill="srgba(95.3124%,9.78256%,19.1547%,1)"/>
  <circle cx="12" cy="11" r="1" fill="srgba(95.3124%,9.78256%,19.1547%,1)"/>
  <circle cx="13" cy="11" r="1" fill="srgba(95.3124%,9.78256%,19.1547%,1)"/>
  <circle cx="14" cy="11" r="1" fill="srgba(95.3124%,9.78103%,19.1531%,1)"/>
  <circle cx="15" cy="11" r="1" fill="srgba(95.3124%,9.81308%,19.1775%,1)"/>
  <circle cx="0" cy="12" r="1" fill="black"/>
  <circle cx="1" cy="12" r="1" fill="black"/>
  <circle cx="2" cy="12" r="1" fill="black"/>
  <circle cx="3" cy="12" r="1" fill="black"/>
  <circle cx="4" cy="12" r="1" fill="srgba(15.1049%,1.49233%,2.98314%,1)"/>
  <circle cx="5" cy="12" r="1" fill="srgba(60.7675%,6.0029%,12.0043%,1)"/>
  <circle cx="6" cy="12" r="1" fill="srgba(92.8466%,9.17067%,18.3398%,1)"/>
  <circle cx="7" cy="12" r="1" fill="srgba(96.2493%,9.50179%,19.0082%,1)"/>
  <circle cx="8" cy="12" r="1" fill="srgba(95.2956%,9.37819%,18.793%,1)"/>
  <circle cx="9" cy="12" r="1" fill="srgba(95.2911%,9.37362%,18.7884%,1)"/>
  <circle cx="10" cy="12" r="1" fill="srgba(95.2926%,9.37362%,18.7884%,1)"/>
  <circle cx="11" cy="12" r="1" fill="srgba(95.2926%,9.37362%,18.7884%,1)"/>
  <circle cx="12" cy="12" r="1" fill="srgba(95.2926%,9.37362%,18.7884%,1)"/>
  <circle cx="13" cy="12" r="1" fill="srgba(95.2926%,9.37362%,18.7884%,1)"/>
  <circle cx="14" cy="12" r="1" fill="srgba(95.2926%,9.37209%,18.7869%,1)"/>
  <circle cx="15" cy="12" r="1" fill="srgba(95.2926%,9.40414%,18.8113%,1)"/>
  <circle cx="0" cy="13" r="1" fill="black"/>
  <circle cx="1" cy="13" r="1" fill="black"/>
  <circle cx="2" cy="13" r="1" fill="srgba(3.4287%,0.33875%,0.677501%,1)"/>
  <circle cx="3" cy="13" r="1" fill="srgba(35.8312%,3.53857%,7.07866%,1)"/>
  <circle cx="4" cy="13" r="1" fill="srgba(81.2177%,8.02167%,16.0418%,1)"/>
  <circle cx="5" cy="13" r="1" fill="srgba(96.4157%,9.52316%,19.0448%,1)"/>
  <circle cx="6" cy="13" r="1" fill="srgba(95.5596%,9.43771%,18.8754%,1)"/>
  <circle cx="7" cy="13" r="1" fill="srgba(95.2819%,9.41024%,18.8205%,1)"/>
  <circle cx="8" cy="13" r="1" fill="srgba(243,24,48,1)"/>
  <circle cx="9" cy="13" r="1" fill="srgba(243,24,48,1)"/>
  <circle cx="10" cy="13" r="1" fill="srgba(243,24,48,1)"/>
  <circle cx="11" cy="13" r="1" fill="srgba(243,24,48,1)"/>
  <circle cx="12" cy="13" r="1" fill="srgba(243,24,48,1)"/>
  <circle cx="13" cy="13" r="1" fill="srgba(243,24,48,1)"/>
  <circle cx="14" cy="13" r="1" fill="srgba(95.2941%,9.41024%,18.822%,1)"/>
  <circle cx="15" cy="13" r="1" fill="srgba(95.2941%,9.44228%,18.8464%,1)"/>
  <circle cx="0" cy="14" r="1" fill="srgba(0.062562%,0.00457771%,0.0106813%,1)"/>
  <circle cx="1" cy="14" r="1" fill="srgba(15.3368%,1.51064%,3.02434%,1)"/>
  <circle cx="2" cy="14" r="1" fill="srgba(60.7355%,5.99527%,11.9905%,1)"/>
  <circle cx="3" cy="14" r="1" fill="srgba(92.7749%,9.15694%,18.32%,1)"/>
  <circle cx="4" cy="14" r="1" fill="srgba(96.2539%,9.50027%,19.0066%,1)"/>
  <circle cx="5" cy="14" r="1" fill="srgba(95.2987%,9.40566%,18.819%,1)"/>
  <circle cx="6" cy="14" r="1" fill="srgba(95.2926%,9.40566%,18.8174%,1)"/>
  <circle cx="7" cy="14" r="1" fill="srgba(95.2941%,9.40566%,18.8174%,1)"/>
  <circle cx="8" cy="14" r="1" fill="srgba(95.2941%,9.40566%,18.8174%,1)"/>
  <circle cx="9" cy="14" r="1" fill="srgba(95.2941%,9.40566%,18.8174%,1)"/>
  <circle cx="10" cy="14" r="1" fill="srgba(95.2941%,9.40566%,18.8174%,1)"/>
  <circle cx="11" cy="14" r="1" fill="srgba(95.2941%,9.40566%,18.8174%,1)"/>
  <circle cx="12" cy="14" r="1" fill="srgba(95.2941%,9.40566%,18.8174%,1)"/>
  <circle cx="13" cy="14" r="1" fill="srgba(95.2941%,9.40566%,18.8174%,1)"/>
  <circle cx="14" cy="14" r="1" fill="srgba(95.2941%,9.40414%,18.8159%,1)"/>
  <circle cx="15" cy="14" r="1" fill="srgba(95.2941%,9.43618%,18.8403%,1)"/>
  <circle cx="0" cy="15" r="1" fill="srgba(31.6808%,3.24102%,6.36149%,1)"/>
  <circle cx="1" cy="15" r="1" fill="srgba(78.3993%,7.8584%,15.5917%,1)"/>
  <circle cx="2" cy="15" r="1" fill="srgba(96.5637%,9.65133%,19.1806%,1)"/>
  <circle cx="3" cy="15" r="1" fill="srgba(95.6115%,9.55825%,18.9929%,1)"/>
  <circle cx="4" cy="15" r="1" fill="srgba(95.288%,9.52621%,18.9288%,1)"/>
  <circle cx="5" cy="15" r="1" fill="srgba(95.3017%,9.52773%,18.9319%,1)"/>
  <circle cx="6" cy="15" r="1" fill="srgba(95.3017%,9.52773%,18.9319%,1)"/>
  <circle cx="7" cy="15" r="1" fill="srgba(95.3017%,9.52773%,18.9319%,1)"/>
  <circle cx="8" cy="15" r="1" fill="srgba(95.3017%,9.52773%,18.9319%,1)"/>
  <circle cx="9" cy="15" r="1" fill="srgba(95.3017%,9.52773%,18.9319%,1)"/>
  <circle cx="10" cy="15" r="1" fill="srgba(95.3017%,9.52773%,18.9319%,1)"/>
  <circle cx="11" cy="15" r="1" fill="srgba(95.3017%,9.52773%,18.9319%,1)"/>
  <circle cx="12" cy="15" r="1" fill="srgba(95.3017%,9.52773%,18.9319%,1)"/>
  <circle cx="13" cy="15" r="1" fill="srgba(95.3017%,9.52773%,18.9319%,1)"/>
  <circle cx="14" cy="15" r="1" fill="srgba(95.3017%,9.52621%,18.9303%,1)"/>
  <circle cx="15" cy="15" r="1" fill="srgba(95.3017%,9.55825%,18.9548%,1)"/>
</svg>
