<?xml version="1.0" standalone="no"?>
<!DOCTYPE svg PUBLIC "-//W3C//DTD SVG 20010904//EN"
  "http://www.w3.org/TR/2001/REC-SVG-20010904/DTD/svg10.dtd">
<svg width="16" height="16">
  <circle cx="0" cy="0" r="1" fill="srgba(83.1495%,40.2258%,42.6734%,1)"/>
  <circle cx="1" cy="0" r="1" fill="srgba(93.341%,67.3381%,67.4022%,1)"/>
  <circle cx="2" cy="0" r="1" fill="srgba(69.9351%,65.2873%,76.846%,1)"/>
  <circle cx="3" cy="0" r="1" fill="srgba(25.8274%,27.0085%,56.8124%,1)"/>
  <circle cx="4" cy="0" r="1" fill="srgba(2.28122%,2.54826%,41.2543%,1)"/>
  <circle cx="5" cy="0" r="1" fill="srgba(0%,0%,38.2879%,1)"/>
  <circle cx="6" cy="0" r="1" fill="srgba(34.7539%,31.8364%,57.5479%,1)"/>
  <circle cx="7" cy="0" r="1" fill="srgba(84.2817%,23.0274%,23.1937%,1)"/>
  <circle cx="8" cy="0" r="1" fill="srgba(84.2893%,23.035%,23.1998%,1)"/>
  <circle cx="9" cy="0" r="1" fill="srgba(34.7478%,31.8288%,57.5326%,1)"/>
  <circle cx="10" cy="0" r="1" fill="srgba(0%,0%,38.8754%,1)"/>
  <circle cx="11" cy="0" r="1" fill="srgba(2.32395%,2.93126%,42.1607%,1)"/>
  <circle cx="12" cy="0" r="1" fill="srgba(23.6271%,15.993%,45.7755%,1)"/>
  <circle cx="13" cy="0" r="1" fill="srgba(63.4241%,32.7382%,44.2969%,1)"/>
  <circle cx="14" cy="0" r="1" fill="srgba(89.485%,48.1025%,48.1682%,1)"/>
  <circle cx="15" cy="0" r="1" fill="srgba(89.0745%,70.0298%,72.491%,1)"/>
  <circle cx="0" cy="1" r="1" fill="srgba(21.8006%,14.435%,44.9744%,1)"/>
  <circle cx="1" cy="1" r="1" fill="srgba(53.5119%,27.3045%,43.2776%,1)"/>
  <circle cx="2" cy="1" r="1" fill="srgba(82.3682%,45.2277%,48.5664%,1)"/>
  <circle cx="3" cy="1" r="1" fill="srgba(86.2684%,63.8071%,67.0527%,1)"/>
  <circle cx="4" cy="1" r="1" fill="srgba(60.4105%,56.0784%,71.4778%,1)"/>
  <circle cx="5" cy="1" r="1" fill="srgba(20.6516%,21.0422%,52.8176%,1)"/>
  <circle cx="6" cy="1" r="1" fill="srgba(36.7117%,33.901%,58.9288%,1)"/>
  <circle cx="7" cy="1" r="1" fill="srgba(84.1566%,22.9023%,23.1128%,1)"/>
  <circle cx="8" cy="1" r="1" fill="srgba(84.1688%,22.9343%,23.1434%,1)"/>
  <circle cx="9" cy="1" r="1" fill="srgba(36.6766%,33.7179%,58.7427%,1)"/>
  <circle cx="10" cy="1" r="1" fill="srgba(18.9273%,12.3293%,44.097%,1)"/>
  <circle cx="11" cy="1" r="1" fill="srgba(54.8577%,28.3009%,43.6973%,1)"/>
  <circle cx="12" cy="1" r="1" fill="srgba(82.6093%,45.4948%,48.7388%,1)"/>
  <circle cx="13" cy="1" r="1" fill="srgba(86.067%,63.7812%,67.126%,1)"/>
  <circle cx="14" cy="1" r="1" fill="srgba(59.028%,55.1812%,71.1833%,1)"/>
  <circle cx="15" cy="1" r="1" fill="srgba(23.7797%,24.5884%,55.1537%,1)"/>
  <circle cx="0" cy="2" r="1" fill="srgba(33.4356%,30.9178%,57.2961%,1)"/>
  <circle cx="1" cy="2" r="1" fill="srgba(36.2509%,34.165%,59.4614%,1)"/>
  <circle cx="2" cy="2" r="1" fill="srgba(55.7443%,46.1646%,62.9129%,1)"/>
  <circle cx="3" cy="2" r="1" fill="srgba(85.1041%,55.3307%,58.3139%,1)"/>
  <circle cx="4" cy="2" r="1" fill="srgba(94.4472%,65.156%,64.445%,1)"/>
  <circle cx="5" cy="2" r="1" fill="srgba(90.3029%,84.387%,87.6722%,1)"/>
  <circle cx="6" cy="2" r="1" fill="srgba(80.2213%,74.6365%,81.9883%,1)"/>
  <circle cx="7" cy="2" r="1" fill="srgba(83.9734%,22.0218%,22.237%,1)"/>
  <circle cx="8" cy="2" r="1" fill="srgba(84.0558%,22.4079%,22.623%,1)"/>
  <circle cx="9" cy="2" r="1" fill="srgba(78.6313%,66.6438%,73.991%,1)"/>
  <circle cx="10" cy="2" r="1" fill="srgba(83.6255%,50.9117%,54.1924%,1)"/>
  <circle cx="11" cy="2" r="1" fill="srgba(95.3155%,69.4728%,68.7678%,1)"/>
  <circle cx="12" cy="2" r="1" fill="srgba(90.8049%,83.8376%,86.8208%,1)"/>
  <circle cx="13" cy="2" r="1" fill="srgba(57.6455%,55.7153%,72.4666%,1)"/>
  <circle cx="14" cy="2" r="1" fill="srgba(36.0723%,33.3394%,58.6404%,1)"/>
  <circle cx="15" cy="2" r="1" fill="srgba(33.3211%,30.341%,56.7193%,1)"/>
  <circle cx="0" cy="3" r="1" fill="srgba(84.2634%,22.8809%,23.0381%,1)"/>
  <circle cx="1" cy="3" r="1" fill="srgba(84.1138%,22.7253%,22.9419%,1)"/>
  <circle cx="2" cy="3" r="1" fill="srgba(83.1876%,22.1988%,22.826%,1)"/>
  <circle cx="3" cy="3" r="1" fill="srgba(84.0055%,23.3783%,23.714%,1)"/>
  <circle cx="4" cy="3" r="1" fill="srgba(84.3931%,21.8708%,21.8601%,1)"/>
  <circle cx="5" cy="3" r="1" fill="srgba(85.0843%,23.3616%,23.1556%,1)"/>
  <circle cx="6" cy="3" r="1" fill="srgba(85.4459%,23.4241%,23.0442%,1)"/>
  <circle cx="7" cy="3" r="1" fill="srgba(81.1048%,5.46731%,5.4612%,1)"/>
  <circle cx="8" cy="3" r="1" fill="srgba(81.117%,5.49783%,5.48257%,1)"/>
  <circle cx="9" cy="3" r="1" fill="srgba(85.3239%,22.7008%,22.6703%,1)"/>
  <circle cx="10" cy="3" r="1" fill="srgba(85.0477%,23.3249%,23.8727%,1)"/>
  <circle cx="11" cy="3" r="1" fill="srgba(84.947%,25.0507%,25.7984%,1)"/>
  <circle cx="12" cy="3" r="1" fill="srgba(83.8987%,22.8779%,23.6118%,1)"/>
  <circle cx="13" cy="3" r="1" fill="srgba(83.0869%,21.6953%,22.3148%,1)"/>
  <circle cx="14" cy="3" r="1" fill="srgba(84.1154%,22.7329%,22.9496%,1)"/>
  <circle cx="15" cy="3" r="1" fill="srgba(84.2634%,22.887%,23.0442%,1)"/>
  <circle cx="0" cy="4" r="1" fill="srgba(84.2893%,23.0411%,23.1968%,1)"/>
  <circle cx="1" cy="4" r="1" fill="srgba(84.1382%,22.8885%,23.1067%,1)"/>
  <circle cx="2" cy="4" r="1" fill="srgba(83.1083%,21.8509%,22.4796%,1)"/>
  <circle cx="3" cy="4" r="1" fill="srgba(83.9155%,22.9145%,23.2471%,1)"/>
  <circle cx="4" cy="4" r="1" fill="srgba(84.9378%,24.6082%,24.5991%,1)"/>
  <circle cx="5" cy="4" r="1" fill="srgba(84.9836%,22.855%,22.6474%,1)"/>
  <circle cx="6" cy="4" r="1" fill="srgba(85.2949%,22.6734%,22.2919%,1)"/>
  <circle cx="7" cy="4" r="1" fill="srgba(81.0971%,5.52529%,5.51614%,1)"/>
  <circle cx="8" cy="4" r="1" fill="srgba(81.564%,5.7023%,6.01663%,1)"/>
  <circle cx="9" cy="4" r="1" fill="srgba(84.7303%,22.9389%,15.2422%,1)"/>
  <circle cx="10" cy="4" r="1" fill="srgba(85.333%,30.5547%,4.094%,1)"/>
  <circle cx="11" cy="4" r="1" fill="srgba(86.4775%,34.8196%,3.55993%,1)"/>
  <circle cx="12" cy="4" r="1" fill="srgba(84.4465%,24.2756%,15.3948%,1)"/>
  <circle cx="13" cy="4" r="1" fill="srgba(83.7095%,22.443%,23.5386%,1)"/>
  <circle cx="14" cy="4" r="1" fill="srgba(84.1581%,22.8962%,23.3036%,1)"/>
  <circle cx="15" cy="4" r="1" fill="srgba(84.1947%,22.9496%,23.1601%,1)"/>
  <circle cx="0" cy="5" r="1" fill="srgba(33.315%,30.3868%,56.7666%,1)"/>
  <circle cx="1" cy="5" r="1" fill="srgba(36.1395%,33.463%,58.7396%,1)"/>
  <circle cx="2" cy="5" r="1" fill="srgba(57.8347%,55.9548%,72.636%,1)"/>
  <circle cx="3" cy="5" r="1" fill="srgba(90.9102%,83.8804%,86.8147%,1)"/>
  <circle cx="4" cy="5" r="1" fill="srgba(95.2636%,69.25%,68.542%,1)"/>
  <circle cx="5" cy="5" r="1" fill="srgba(83.5477%,50.8736%,54.1878%,1)"/>
  <circle cx="6" cy="5" r="1" fill="srgba(78.5443%,66.6667%,74.0627%,1)"/>
  <circle cx="7" cy="5" r="1" fill="srgba(84.4587%,22.7344%,23.0243%,1)"/>
  <circle cx="8" cy="5" r="1" fill="srgba(75.935%,22.5986%,21.7639%,1)"/>
  <circle cx="9" cy="5" r="1" fill="srgba(67.7913%,63.4699%,45.3681%,1)"/>
  <circle cx="10" cy="5" r="1" fill="srgba(66.5888%,56.3714%,7.76837%,1)"/>
  <circle cx="11" cy="5" r="1" fill="srgba(74.7738%,61.471%,5.23842%,1)"/>
  <circle cx="12" cy="5" r="1" fill="srgba(75.1156%,61.091%,31.9448%,1)"/>
  <circle cx="13" cy="5" r="1" fill="srgba(47.5013%,42.1378%,55.4971%,1)"/>
  <circle cx="14" cy="5" r="1" fill="srgba(36.083%,34.1344%,55.8892%,1)"/>
  <circle cx="15" cy="5" r="1" fill="srgba(34.9432%,32.5109%,57.9797%,1)"/>
  <circle cx="0" cy="6" r="1" fill="srgba(24.2252%,25.037%,55.4314%,1)"/>
  <circle cx="1" cy="6" r="1" fill="srgba(59.7635%,55.8312%,71.5373%,1)"/>
  <circle cx="2" cy="6" r="1" fill="srgba(86.8055%,64.1657%,67.1824%,1)"/>
  <circle cx="3" cy="6" r="1" fill="srgba(83.1815%,45.6779%,48.6564%,1)"/>
  <circle cx="4" cy="6" r="1" fill="srgba(55.1888%,28.5634%,43.827%,1)"/>
  <circle cx="5" cy="6" r="1" fill="srgba(18.9883%,12.4849%,44.2405%,1)"/>
  <circle cx="6" cy="6" r="1" fill="srgba(36.7071%,33.7346%,58.7594%,1)"/>
  <circle cx="7" cy="6" r="1" fill="srgba(85.2827%,23.4073%,23.7263%,1)"/>
  <circle cx="8" cy="6" r="1" fill="srgba(64.2039%,22.1744%,19.0112%,1)"/>
  <circle cx="9" cy="6" r="1" fill="srgba(24.0772%,42.3835%,35.4421%,1)"/>
  <circle cx="10" cy="6" r="1" fill="srgba(0.62562%,20.5188%,9.10353%,1)"/>
  <circle cx="11" cy="6" r="1" fill="srgba(8.81514%,23.4897%,7.90265%,1)"/>
  <circle cx="12" cy="6" r="1" fill="srgba(45.1835%,44.7959%,30.4875%,1)"/>
  <circle cx="13" cy="6" r="1" fill="srgba(67.2694%,39.9527%,40.6851%,1)"/>
  <circle cx="14" cy="6" r="1" fill="srgba(52.0058%,25.8488%,37.0947%,1)"/>
  <circle cx="15" cy="6" r="1" fill="srgba(25.9861%,18.4817%,46.7887%,1)"/>
  <circle cx="0" cy="7" r="1" fill="srgba(78.4344%,61.5534%,68.4932%,1)"/>
  <circle cx="1" cy="7" r="1" fill="srgba(78.6709%,42.2187%,47.1061%,1)"/>
  <circle cx="2" cy="7" r="1" fill="srgba(55.668%,28.777%,43.8209%,1)"/>
  <circle cx="3" cy="7" r="1" fill="srgba(20.708%,14.1054%,45.1606%,1)"/>
  <circle cx="4" cy="7" r="1" fill="srgba(2.02182%,2.56809%,41.8982%,1)"/>
  <circle cx="5" cy="7" r="1" fill="srgba(0%,0%,39.0021%,1)"/>
  <circle cx="6" cy="7" r="1" fill="srgba(30.4662%,27.8599%,55.3307%,1)"/>
  <circle cx="7" cy="7" r="1" fill="srgba(75.9518%,22.8901%,27.2541%,1)"/>
  <circle cx="8" cy="7" r="1" fill="srgba(72.4956%,22.9664%,22.829%,1)"/>
  <circle cx="9" cy="7" r="1" fill="srgba(42.2446%,37.4029%,32.8191%,1)"/>
  <circle cx="10" cy="7" r="1" fill="srgba(17.5845%,15.3429%,15.7168%,1)"/>
  <circle cx="11" cy="7" r="1" fill="srgba(34.165%,23.2822%,18.1674%,1)"/>
  <circle cx="12" cy="7" r="1" fill="srgba(42.1271%,29.4438%,35.2209%,1)"/>
  <circle cx="13" cy="7" r="1" fill="srgba(69.9245%,57.6669%,69.8894%,1)"/>
  <circle cx="14" cy="7" r="1" fill="srgba(81.1673%,58.8251%,64.9348%,1)"/>
  <circle cx="15" cy="7" r="1" fill="srgba(72.3751%,34.7219%,42.649%,1)"/>
  <circle cx="0" cy="8" r="1" fill="srgba(10.5806%,3.17693%,37.8546%,1)"/>
  <circle cx="1" cy="8" r="1" fill="srgba(9.42397%,4.1413%,39.4858%,1)"/>
  <circle cx="2" cy="8" r="1" fill="srgba(2.30869%,2.75273%,41.9791%,1)"/>
  <circle cx="3" cy="8" r="1" fill="srgba(0%,0%,39.7299%,1)"/>
  <circle cx="4" cy="8" r="1" fill="srgba(0%,0%,39.9069%,1)"/>
  <circle cx="5" cy="8" r="1" fill="srgba(0%,0%,39.9054%,1)"/>
  <circle cx="6" cy="8" r="1" fill="srgba(3.55383%,3.57824%,42.1729%,1)"/>
  <circle cx="7" cy="8" r="1" fill="srgba(20.0626%,6.64378%,37.467%,1)"/>
  <circle cx="8" cy="8" r="1" fill="srgba(70.8583%,18.7167%,12.6574%,1)"/>
  <circle cx="9" cy="8" r="1" fill="srgba(55.8083%,16.8414%,3.97345%,1)"/>
  <circle cx="10" cy="8" r="1" fill="srgba(55.2071%,26.2531%,2.68864%,1)"/>
  <circle cx="11" cy="8" r="1" fill="srgba(74.1253%,43.6622%,2.59403%,1)"/>
  <circle cx="12" cy="8" r="1" fill="srgba(70.3593%,28.6046%,3.81476%,1)"/>
  <circle cx="13" cy="8" r="1" fill="srgba(38.4527%,17.3449%,18.8281%,1)"/>
  <circle cx="14" cy="8" r="1" fill="srgba(24.7883%,23.1785%,34.789%,1)"/>
  <circle cx="15" cy="8" r="1" fill="srgba(28.0446%,21.5152%,30.3517%,1)"/>
  <circle cx="0" cy="9" r="1" fill="srgba(0%,0%,40.1266%,1)"/>
  <circle cx="1" cy="9" r="1" fill="srgba(0%,0%,39.9619%,1)"/>
  <circle cx="2" cy="9" r="1" fill="srgba(0%,0%,39.9115%,1)"/>
  <circle cx="3" cy="9" r="1" fill="srgba(0%,0%,40.0046%,1)"/>
  <circle cx="4" cy="9" r="1" fill="srgba(0,0,102,1)"/>
  <circle cx="5" cy="9" r="1" fill="srgba(0%,0%,40.0061%,1)"/>
  <circle cx="6" cy="9" r="1" fill="srgba(0%,0%,39.7696%,1)"/>
  <circle cx="7" cy="9" r="1" fill="srgba(12.5063%,6.9688%,41.8479%,1)"/>
  <circle cx="8" cy="9" r="1" fill="srgba(55.9823%,30.2083%,17.8683%,1)"/>
  <circle cx="9" cy="9" r="1" fill="srgba(37.8256%,21.9226%,0.0610361%,1)"/>
  <circle cx="10" cy="9" r="1" fill="srgba(60.7263%,45.684%,0.175479%,1)"/>
  <circle cx="11" cy="9" r="1" fill="srgba(83.0411%,63.1052%,0.0869764%,1)"/>
  <circle cx="12" cy="9" r="1" fill="srgba(89.279%,65.4902%,0.234989%,1)"/>
  <circle cx="13" cy="9" r="1" fill="srgba(68.7022%,49.6315%,7.0573%,1)"/>
  <circle cx="14" cy="9" r="1" fill="srgba(47.0481%,36.3851%,14.4762%,1)"/>
  <circle cx="15" cy="9" r="1" fill="srgba(40.4974%,31.3176%,16.4889%,1)"/>
  <circle cx="0" cy="10" r="1" fill="srgba(0,0,102,1)"/>
  <circle cx="1" cy="10" r="1" fill="srgba(0,0,102,1)"/>
  <circle cx="2" cy="10" r="1" fill="srgba(0,0,102,1)"/>
  <circle cx="3" cy="10" r="1" fill="srgba(0,0,102,1)"/>
  <circle cx="4" cy="10" r="1" fill="srgba(0,0,102,1)"/>
  <circle cx="5" cy="10" r="1" fill="srgba(0,0,102,1)"/>
  <circle cx="6" cy="10" r="1" fill="srgba(0%,0%,39.5254%,1)"/>
  <circle cx="7" cy="10" r="1" fill="srgba(9.95956%,11.7922%,47.9606%,1)"/>
  <circle cx="8" cy="10" r="1" fill="srgba(31.5633%,35.9747%,38.3322%,1)"/>
  <circle cx="9" cy="10" r="1" fill="srgba(15.7565%,14.3404%,0.714122%,1)"/>
  <circle cx="10" cy="10" r="1" fill="srgba(41.3703%,32.5414%,1.40536%,1)"/>
  <circle cx="11" cy="10" r="1" fill="srgba(81.7746%,64.9287%,0.970474%,1)"/>
  <circle cx="12" cy="10" r="1" fill="srgba(91.0307%,71.8685%,0.677501%,1)"/>
  <circle cx="13" cy="10" r="1" fill="srgba(100%,77.496%,0.0350958%,1)"/>
  <circle cx="14" cy="10" r="1" fill="srgba(98.4039%,76.141%,0.234989%,1)"/>
  <circle cx="15" cy="10" r="1" fill="srgba(95.1064%,73.5943%,1.21309%,1)"/>
  <circle cx="0" cy="11" r="1" fill="srgba(0,0,102,1)"/>
  <circle cx="1" cy="11" r="1" fill="srgba(0,0,102,1)"/>
  <circle cx="2" cy="11" r="1" fill="srgba(0,0,102,1)"/>
  <circle cx="3" cy="11" r="1" fill="srgba(0,0,102,1)"/>
  <circle cx="4" cy="11" r="1" fill="srgba(0%,0%,40.0061%,1)"/>
  <circle cx="5" cy="11" r="1" fill="srgba(0%,0%,39.8825%,1)"/>
  <circle cx="6" cy="11" r="1" fill="srgba(0%,0%,39.2737%,1)"/>
  <circle cx="7" cy="11" r="1" fill="srgba(18.8769%,15.9487%,48.1376%,1)"/>
  <circle cx="8" cy="11" r="1" fill="srgba(41.4313%,44.4175%,41.1109%,1)"/>
  <circle cx="9" cy="11" r="1" fill="srgba(17.4228%,23.566%,4.82795%,1)"/>
  <circle cx="10" cy="11" r="1" fill="srgba(41.0254%,33.4905%,3.84985%,1)"/>
  <circle cx="11" cy="11" r="1" fill="srgba(53.0678%,48.9281%,4.91493%,1)"/>
  <circle cx="12" cy="11" r="1" fill="srgba(68.7068%,59.028%,2.86412%,1)"/>
  <circle cx="13" cy="11" r="1" fill="srgba(100%,77.5921%,0%,1)"/>
  <circle cx="14" cy="11" r="1" fill="srgba(99.8215%,77.2946%,0%,1)"/>
  <circle cx="15" cy="11" r="1" fill="srgba(100%,77.5845%,0%,1)"/>
  <circle cx="0" cy="12" r="1" fill="srgba(0,0,102,1)"/>
  <circle cx="1" cy="12" r="1" fill="srgba(0,0,102,1)"/>
  <circle cx="2" cy="12" r="1" fill="srgba(0,0,102,1)"/>
  <circle cx="3" cy="12" r="1" fill="srgba(0,0,102,1)"/>
  <circle cx="4" cy="12" r="1" fill="srgba(0%,0%,39.884%,1)"/>
  <circle cx="5" cy="12" r="1" fill="srgba(2.56352%,2.60472%,41.7914%,1)"/>
  <circle cx="6" cy="12" r="1" fill="srgba(27.274%,26.6987%,51.9265%,1)"/>
  <circle cx="7" cy="12" r="1" fill="srgba(68.3772%,55.3643%,51.0384%,1)"/>
  <circle cx="8" cy="12" r="1" fill="srgba(46.5843%,47.3075%,35.3994%,1)"/>
  <circle cx="9" cy="12" r="1" fill="srgba(20.6546%,28.719%,6.36606%,1)"/>
  <circle cx="10" cy="12" r="1" fill="srgba(46.6117%,43.3631%,3.90326%,1)"/>
  <circle cx="11" cy="12" r="1" fill="srgba(41.6251%,42.3346%,5.12245%,1)"/>
  <circle cx="12" cy="12" r="1" fill="srgba(61.5274%,54.8455%,3.60571%,1)"/>
  <circle cx="13" cy="12" r="1" fill="srgba(98.1506%,75.6085%,0%,1)"/>
  <circle cx="14" cy="12" r="1" fill="srgba(82.0737%,63.4989%,0.0015259%,1)"/>
  <circle cx="15" cy="12" r="1" fill="srgba(78.79%,60.943%,0%,1)"/>
  <circle cx="0" cy="13" r="1" fill="srgba(0,0,102,1)"/>
  <circle cx="1" cy="13" r="1" fill="srgba(0,0,102,1)"/>
  <circle cx="2" cy="13" r="1" fill="srgba(0,0,102,1)"/>
  <circle cx="3" cy="13" r="1" fill="srgba(0,0,102,1)"/>
  <circle cx="4" cy="13" r="1" fill="srgba(0%,0%,39.8825%,1)"/>
  <circle cx="5" cy="13" r="1" fill="srgba(3.37987%,3.38445%,41.9318%,1)"/>
  <circle cx="6" cy="13" r="1" fill="srgba(58.883%,52.8939%,49.6071%,1)"/>
  <circle cx="7" cy="13" r="1" fill="srgba(74.4442%,61.5747%,36.228%,1)"/>
  <circle cx="8" cy="13" r="1" fill="srgba(55.4223%,48.9189%,21.6648%,1)"/>
  <circle cx="9" cy="13" r="1" fill="srgba(24.8981%,32.0241%,6.53696%,1)"/>
  <circle cx="10" cy="13" r="1" fill="srgba(31.075%,35.7809%,5.7145%,1)"/>
  <circle cx="11" cy="13" r="1" fill="srgba(42.4445%,43.4775%,5.08278%,1)"/>
  <circle cx="12" cy="13" r="1" fill="srgba(57.0184%,52.2118%,3.93988%,1)"/>
  <circle cx="13" cy="13" r="1" fill="srgba(98.2101%,75.6893%,0%,1)"/>
  <circle cx="14" cy="13" r="1" fill="srgba(48.1498%,37.2503%,0.0411994%,1)"/>
  <circle cx="15" cy="13" r="1" fill="srgba(5.41848%,4.19471%,0%,1)"/>
  <circle cx="0" cy="14" r="1" fill="srgba(0,0,102,1)"/>
  <circle cx="1" cy="14" r="1" fill="srgba(0,0,102,1)"/>
  <circle cx="2" cy="14" r="1" fill="srgba(0,0,102,1)"/>
  <circle cx="3" cy="14" r="1" fill="srgba(0,0,102,1)"/>
  <circle cx="4" cy="14" r="1" fill="srgba(0%,0%,40.0046%,1)"/>
  <circle cx="5" cy="14" r="1" fill="srgba(0%,0%,39.8276%,1)"/>
  <circle cx="6" cy="14" r="1" fill="srgba(28.3467%,24.9409%,44.5823%,1)"/>
  <circle cx="7" cy="14" r="1" fill="srgba(71.162%,60.1648%,60.6775%,1)"/>
  <circle cx="8" cy="14" r="1" fill="srgba(27.8187%,22.9099%,28.6183%,1)"/>
  <circle cx="9" cy="14" r="1" fill="srgba(20.8942%,28.5695%,6.41032%,1)"/>
  <circle cx="10" cy="14" r="1" fill="srgba(26.3828%,33.1533%,6.07309%,1)"/>
  <circle cx="11" cy="14" r="1" fill="srgba(41.7014%,42.829%,5.02785%,1)"/>
  <circle cx="12" cy="14" r="1" fill="srgba(52.4102%,49.5216%,4.27558%,1)"/>
  <circle cx="13" cy="14" r="1" fill="srgba(100%,78.3413%,0%,1)"/>
  <circle cx="14" cy="14" r="1" fill="srgba(85.4643%,66.183%,0.047303%,1)"/>
  <circle cx="15" cy="14" r="1" fill="srgba(18.616%,14.403%,0.0183108%,1)"/>
  <circle cx="0" cy="15" r="1" fill="srgba(0,0,102,1)"/>
  <circle cx="1" cy="15" r="1" fill="srgba(0,0,102,1)"/>
  <circle cx="2" cy="15" r="1" fill="srgba(0,0,102,1)"/>
  <circle cx="3" cy="15" r="1" fill="srgba(0,0,102,1)"/>
  <circle cx="4" cy="15" r="1" fill="srgba(0,0,102,1)"/>
  <circle cx="5" cy="15" r="1" fill="srgba(0%,0%,39.8306%,1)"/>
  <circle cx="6" cy="15" r="1" fill="srgba(5.51308%,5.80911%,43.6744%,1)"/>
  <circle cx="7" cy="15" r="1" fill="srgba(56.1868%,50.399%,68.3711%,1)"/>
  <circle cx="8" cy="15" r="1" fill="srgba(18.6633%,14.1131%,28.8182%,1)"/>
  <circle cx="9" cy="15" r="1" fill="srgba(17.6074%,22.1973%,4.74861%,1)"/>
  <circle cx="10" cy="15" r="1" fill="srgba(22.1164%,30.0832%,6.14328%,1)"/>
  <circle cx="11" cy="15" r="1" fill="srgba(39.8215%,41.326%,5.00496%,1)"/>
  <circle cx="12" cy="15" r="1" fill="srgba(48.6061%,47.3259%,4.62501%,1)"/>
  <circle cx="13" cy="15" r="1" fill="srgba(100%,77.435%,0%,1)"/>
  <circle cx="14" cy="15" r="1" fill="srgba(99.3942%,77.0901%,0.244144%,1)"/>
  <circle cx="15" cy="15" r="1" fill="srgba(61.355%,47.5792%,0.170901%,1)"/>
</svg>
