<?xml version="1.0" standalone="no"?>
<!DOCTYPE svg PUBLIC "-//W3C//DTD SVG 20010904//EN"
  "http://www.w3.org/TR/2001/REC-SVG-20010904/DTD/svg10.dtd">
<svg width="16" height="16">
  <circle cx="0" cy="0" r="1" fill="srgba(61.6052%,87.277%,67.9927%,1)"/>
  <circle cx="1" cy="0" r="1" fill="srgba(61.3901%,87.2663%,68.3711%,1)"/>
  <circle cx="2" cy="0" r="1" fill="srgba(48.8365%,86.5675%,90.602%,1)"/>
  <circle cx="3" cy="0" r="1" fill="srgba(43.209%,86.2562%,100%,1)"/>
  <circle cx="4" cy="0" r="1" fill="srgba(111,220,255,1)"/>
  <circle cx="5" cy="0" r="1" fill="srgba(111,220,255,1)"/>
  <circle cx="6" cy="0" r="1" fill="srgba(111,220,255,1)"/>
  <circle cx="7" cy="0" r="1" fill="srgba(111,220,255,1)"/>
  <circle cx="8" cy="0" r="1" fill="srgba(111,220,255,1)"/>
  <circle cx="9" cy="0" r="1" fill="srgba(111,220,255,1)"/>
  <circle cx="10" cy="0" r="1" fill="srgba(111,220,255,1)"/>
  <circle cx="11" cy="0" r="1" fill="srgba(111,220,255,1)"/>
  <circle cx="12" cy="0" r="1" fill="srgba(111,220,255,1)"/>
  <circle cx="13" cy="0" r="1" fill="srgba(111,220,255,1)"/>
  <circle cx="14" cy="0" r="1" fill="srgba(111,220,255,1)"/>
  <circle cx="15" cy="0" r="1" fill="srgba(111,220,255,1)"/>
  <circle cx="0" cy="1" r="1" fill="srgba(64.9531%,87.4662%,62.0661%,1)"/>
  <circle cx="1" cy="1" r="1" fill="srgba(67.4968%,87.6051%,57.5586%,1)"/>
  <circle cx="2" cy="1" r="1" fill="srgba(50.0526%,86.6361%,88.4474%,1)"/>
  <circle cx="3" cy="1" r="1" fill="srgba(43.1403%,86.2531%,100%,1)"/>
  <circle cx="4" cy="1" r="1" fill="srgba(111,220,255,1)"/>
  <circle cx="5" cy="1" r="1" fill="srgba(111,220,255,1)"/>
  <circle cx="6" cy="1" r="1" fill="srgba(111,220,255,1)"/>
  <circle cx="7" cy="1" r="1" fill="srgba(43.5248%,86.2745%,100%,1)"/>
  <circle cx="8" cy="1" r="1" fill="srgba(43.5065%,86.273%,100%,1)"/>
  <circle cx="9" cy="1" r="1" fill="srgba(43.5004%,86.273%,100%,1)"/>
  <circle cx="10" cy="1" r="1" fill="srgba(43.5218%,86.2745%,100%,1)"/>
  <circle cx="11" cy="1" r="1" fill="srgba(111,220,255,1)"/>
  <circle cx="12" cy="1" r="1" fill="srgba(111,220,255,1)"/>
  <circle cx="13" cy="1" r="1" fill="srgba(111,220,255,1)"/>
  <circle cx="14" cy="1" r="1" fill="srgba(111,220,255,1)"/>
  <circle cx="15" cy="1" r="1" fill="srgba(111,220,255,1)"/>
  <circle cx="0" cy="2" r="1" fill="srgba(70.8659%,87.7974%,51.5404%,1)"/>
  <circle cx="1" cy="2" r="1" fill="srgba(70.3075%,87.7638%,52.5689%,1)"/>
  <circle cx="2" cy="2" r="1" fill="srgba(48.1697%,86.5309%,91.7388%,1)"/>
  <circle cx="3" cy="2" r="1" fill="srgba(43.2395%,86.2577%,100%,1)"/>
  <circle cx="4" cy="2" r="1" fill="srgba(111,220,255,1)"/>
  <circle cx="5" cy="2" r="1" fill="srgba(43.5309%,86.2745%,100%,1)"/>
  <circle cx="6" cy="2" r="1" fill="srgba(43.3265%,86.2638%,100%,1)"/>
  <circle cx="7" cy="2" r="1" fill="srgba(43.1769%,86.2547%,99.8886%,1)"/>
  <circle cx="8" cy="2" r="1" fill="srgba(43.537%,86.2745%,99.382%,1)"/>
  <circle cx="9" cy="2" r="1" fill="srgba(43.621%,86.2791%,99.1684%,1)"/>
  <circle cx="10" cy="2" r="1" fill="srgba(43.3066%,86.2623%,99.6857%,1)"/>
  <circle cx="11" cy="2" r="1" fill="srgba(43.3631%,86.2654%,100%,1)"/>
  <circle cx="12" cy="2" r="1" fill="srgba(43.5248%,86.2745%,100%,1)"/>
  <circle cx="13" cy="2" r="1" fill="srgba(111,220,255,1)"/>
  <circle cx="14" cy="2" r="1" fill="srgba(111,220,255,1)"/>
  <circle cx="15" cy="2" r="1" fill="srgba(111,220,255,1)"/>
  <circle cx="0" cy="3" r="1" fill="srgba(68.6336%,87.6753%,55.5077%,1)"/>
  <circle cx="1" cy="3" r="1" fill="srgba(62.8092%,87.3487%,65.6992%,1)"/>
  <circle cx="2" cy="3" r="1" fill="srgba(47.1336%,86.4744%,93.6187%,1)"/>
  <circle cx="3" cy="3" r="1" fill="srgba(43.3005%,86.2623%,100%,1)"/>
  <circle cx="4" cy="3" r="1" fill="srgba(43.5325%,86.2745%,100%,1)"/>
  <circle cx="5" cy="3" r="1" fill="srgba(43.1342%,86.2516%,100%,1)"/>
  <circle cx="6" cy="3" r="1" fill="srgba(46.6529%,86.4469%,93.7743%,1)"/>
  <circle cx="7" cy="3" r="1" fill="srgba(54.6441%,86.8925%,80.2731%,1)"/>
  <circle cx="8" cy="3" r="1" fill="srgba(58.294%,87.0954%,73.4829%,1)"/>
  <circle cx="9" cy="3" r="1" fill="srgba(60.5554%,87.2206%,69.5811%,1)"/>
  <circle cx="10" cy="3" r="1" fill="srgba(55.6741%,86.949%,78.4863%,1)"/>
  <circle cx="11" cy="3" r="1" fill="srgba(46.4958%,86.4393%,94.6029%,1)"/>
  <circle cx="12" cy="3" r="1" fill="srgba(43.4165%,86.2684%,99.9115%,1)"/>
  <circle cx="13" cy="3" r="1" fill="srgba(43.5248%,86.2745%,100%,1)"/>
  <circle cx="14" cy="3" r="1" fill="srgba(111,220,255,1)"/>
  <circle cx="15" cy="3" r="1" fill="srgba(111,220,255,1)"/>
  <circle cx="0" cy="4" r="1" fill="srgba(78.4222%,88.2139%,38.2116%,1)"/>
  <circle cx="1" cy="4" r="1" fill="srgba(66.7552%,87.5639%,58.8708%,1)"/>
  <circle cx="2" cy="4" r="1" fill="srgba(52.8908%,86.7933%,83.4195%,1)"/>
  <circle cx="3" cy="4" r="1" fill="srgba(43.2044%,86.2562%,100%,1)"/>
  <circle cx="4" cy="4" r="1" fill="srgba(43.1418%,86.2531%,100%,1)"/>
  <circle cx="5" cy="4" r="1" fill="srgba(52.6925%,86.7826%,83.4012%,1)"/>
  <circle cx="6" cy="4" r="1" fill="srgba(78.0835%,88.1941%,38.8174%,1)"/>
  <circle cx="7" cy="4" r="1" fill="srgba(80.7935%,88.3452%,34.0108%,1)"/>
  <circle cx="8" cy="4" r="1" fill="srgba(81.503%,88.3848%,32.755%,1)"/>
  <circle cx="9" cy="4" r="1" fill="srgba(83.3417%,88.4871%,29.5003%,1)"/>
  <circle cx="10" cy="4" r="1" fill="srgba(77.4594%,88.1605%,39.9176%,1)"/>
  <circle cx="11" cy="4" r="1" fill="srgba(64.0223%,87.4144%,63.7125%,1)"/>
  <circle cx="12" cy="4" r="1" fill="srgba(47.2343%,86.479%,93.4356%,1)"/>
  <circle cx="13" cy="4" r="1" fill="srgba(43.4073%,86.2684%,100%,1)"/>
  <circle cx="14" cy="4" r="1" fill="srgba(43.5279%,86.2745%,100%,1)"/>
  <circle cx="15" cy="4" r="1" fill="srgba(111,220,255,1)"/>
  <circle cx="0" cy="5" r="1" fill="srgba(85.3529%,88.6%,25.9373%,1)"/>
  <circle cx="1" cy="5" r="1" fill="srgba(90.1381%,88.8655%,17.4609%,1)"/>
  <circle cx="2" cy="5" r="1" fill="srgba(55.3964%,86.9352%,78.9822%,1)"/>
  <circle cx="3" cy="5" r="1" fill="srgba(42.9618%,86.2425%,100%,1)"/>
  <circle cx="4" cy="5" r="1" fill="srgba(44.7944%,86.3447%,97.6944%,1)"/>
  <circle cx="5" cy="5" r="1" fill="srgba(78.7869%,88.2414%,37.4884%,1)"/>
  <circle cx="6" cy="5" r="1" fill="srgba(93.3867%,89.0623%,11.7144%,1)"/>
  <circle cx="7" cy="5" r="1" fill="srgba(96.0204%,89.1981%,7.04814%,1)"/>
  <circle cx="8" cy="5" r="1" fill="srgba(99.4415%,89.3889%,0.988785%,1)"/>
  <circle cx="9" cy="5" r="1" fill="srgba(99.8016%,89.4087%,0.350958%,1)"/>
  <circle cx="10" cy="5" r="1" fill="srgba(94.3267%,89.0959%,10.0481%,1)"/>
  <circle cx="11" cy="5" r="1" fill="srgba(75.8755%,88.072%,42.7207%,1)"/>
  <circle cx="12" cy="5" r="1" fill="srgba(58.4726%,87.1031%,73.5149%,1)"/>
  <circle cx="13" cy="5" r="1" fill="srgba(43.6225%,86.2791%,99.2126%,1)"/>
  <circle cx="14" cy="5" r="1" fill="srgba(42.9648%,86.2425%,100%,1)"/>
  <circle cx="15" cy="5" r="1" fill="srgba(43.0854%,86.2501%,100%,1)"/>
  <circle cx="0" cy="6" r="1" fill="srgba(75.1675%,88.0354%,43.9765%,1)"/>
  <circle cx="1" cy="6" r="1" fill="srgba(90.3334%,88.8823%,17.1176%,1)"/>
  <circle cx="2" cy="6" r="1" fill="srgba(49.4942%,86.6072%,89.4392%,1)"/>
  <circle cx="3" cy="6" r="1" fill="srgba(42.9358%,86.2409%,100%,1)"/>
  <circle cx="4" cy="6" r="1" fill="srgba(46.8132%,86.4576%,93.5256%,1)"/>
  <circle cx="5" cy="6" r="1" fill="srgba(85.9266%,88.6381%,24.7852%,1)"/>
  <circle cx="6" cy="6" r="1" fill="srgba(93.1121%,89.0318%,12.2042%,1)"/>
  <circle cx="7" cy="6" r="1" fill="srgba(99.9603%,89.4194%,0.0701915%,1)"/>
  <circle cx="8" cy="6" r="1" fill="srgba(100%,89.4133%,0%,1)"/>
  <circle cx="9" cy="6" r="1" fill="srgba(255,228,0,1)"/>
  <circle cx="10" cy="6" r="1" fill="srgba(100%,89.456%,0%,1)"/>
  <circle cx="11" cy="6" r="1" fill="srgba(85.4307%,88.6107%,25.7984%,1)"/>
  <circle cx="12" cy="6" r="1" fill="srgba(65.6886%,87.5044%,60.7599%,1)"/>
  <circle cx="13" cy="6" r="1" fill="srgba(53.7819%,86.8467%,81.8418%,1)"/>
  <circle cx="14" cy="6" r="1" fill="srgba(51.693%,86.7308%,85.5406%,1)"/>
  <circle cx="15" cy="6" r="1" fill="srgba(50.2373%,86.6499%,88.1178%,1)"/>
  <circle cx="0" cy="7" r="1" fill="srgba(74.3313%,87.9881%,45.4337%,1)"/>
  <circle cx="1" cy="7" r="1" fill="srgba(89.3843%,88.8228%,18.793%,1)"/>
  <circle cx="2" cy="7" r="1" fill="srgba(50.7301%,86.6743%,87.2389%,1)"/>
  <circle cx="3" cy="7" r="1" fill="srgba(42.9191%,86.2409%,100%,1)"/>
  <circle cx="4" cy="7" r="1" fill="srgba(60.5325%,87.219%,69.7856%,1)"/>
  <circle cx="5" cy="7" r="1" fill="srgba(87.4723%,88.7144%,22.1912%,1)"/>
  <circle cx="6" cy="7" r="1" fill="srgba(91.5343%,88.9448%,14.9905%,1)"/>
  <circle cx="7" cy="7" r="1" fill="srgba(99.9878%,89.4118%,0.0213626%,1)"/>
  <circle cx="8" cy="7" r="1" fill="srgba(255,228,0,1)"/>
  <circle cx="9" cy="7" r="1" fill="srgba(255,228,0,1)"/>
  <circle cx="10" cy="7" r="1" fill="srgba(100%,89.4469%,0%,1)"/>
  <circle cx="11" cy="7" r="1" fill="srgba(86.6865%,88.6763%,23.5767%,1)"/>
  <circle cx="12" cy="7" r="1" fill="srgba(67.4067%,87.6005%,57.7188%,1)"/>
  <circle cx="13" cy="7" r="1" fill="srgba(60.6943%,87.2313%,69.6025%,1)"/>
  <circle cx="14" cy="7" r="1" fill="srgba(66.0883%,87.5319%,60.0534%,1)"/>
  <circle cx="15" cy="7" r="1" fill="srgba(68.0674%,87.6371%,56.5423%,1)"/>
  <circle cx="0" cy="8" r="1" fill="srgba(76.585%,88.1132%,41.4374%,1)"/>
  <circle cx="1" cy="8" r="1" fill="srgba(89.9474%,88.8548%,17.7966%,1)"/>
  <circle cx="2" cy="8" r="1" fill="srgba(50.2525%,86.6468%,88.0751%,1)"/>
  <circle cx="3" cy="8" r="1" fill="srgba(45.6474%,86.392%,96.2493%,1)"/>
  <circle cx="4" cy="8" r="1" fill="srgba(70.2388%,87.7577%,52.7016%,1)"/>
  <circle cx="5" cy="8" r="1" fill="srgba(92.8695%,89.0181%,12.6253%,1)"/>
  <circle cx="6" cy="8" r="1" fill="srgba(95.877%,89.1829%,7.29992%,1)"/>
  <circle cx="7" cy="8" r="1" fill="srgba(99.6567%,89.4026%,0.610361%,1)"/>
  <circle cx="8" cy="8" r="1" fill="srgba(100%,89.424%,0%,1)"/>
  <circle cx="9" cy="8" r="1" fill="srgba(100%,89.4423%,0%,1)"/>
  <circle cx="10" cy="8" r="1" fill="srgba(99.4614%,89.4041%,0.955215%,1)"/>
  <circle cx="11" cy="8" r="1" fill="srgba(94.6761%,89.1157%,9.4255%,1)"/>
  <circle cx="12" cy="8" r="1" fill="srgba(87.7668%,88.7327%,21.6587%,1)"/>
  <circle cx="13" cy="8" r="1" fill="srgba(70.2113%,87.7562%,52.7504%,1)"/>
  <circle cx="14" cy="8" r="1" fill="srgba(73.0144%,87.9133%,47.7867%,1)"/>
  <circle cx="15" cy="8" r="1" fill="srgba(82.5177%,88.4352%,30.9545%,1)"/>
  <circle cx="0" cy="9" r="1" fill="srgba(73.3715%,87.9347%,47.1519%,1)"/>
  <circle cx="1" cy="9" r="1" fill="srgba(87.9774%,88.7465%,21.2894%,1)"/>
  <circle cx="2" cy="9" r="1" fill="srgba(48.3665%,86.5431%,91.4336%,1)"/>
  <circle cx="3" cy="9" r="1" fill="srgba(53.1167%,86.807%,83.0228%,1)"/>
  <circle cx="4" cy="9" r="1" fill="srgba(79.5865%,88.275%,36.1532%,1)"/>
  <circle cx="5" cy="9" r="1" fill="srgba(97.8195%,89.2927%,3.86053%,1)"/>
  <circle cx="6" cy="9" r="1" fill="srgba(98.7015%,89.3462%,2.29953%,1)"/>
  <circle cx="7" cy="9" r="1" fill="srgba(95.407%,89.1569%,8.13306%,1)"/>
  <circle cx="8" cy="9" r="1" fill="srgba(96.3745%,89.2103%,6.41947%,1)"/>
  <circle cx="9" cy="9" r="1" fill="srgba(90.8568%,88.9036%,16.1913%,1)"/>
  <circle cx="10" cy="9" r="1" fill="srgba(90.6294%,88.8914%,16.5942%,1)"/>
  <circle cx="11" cy="9" r="1" fill="srgba(91.9326%,88.9631%,14.2855%,1)"/>
  <circle cx="12" cy="9" r="1" fill="srgba(84.3793%,88.5435%,27.6631%,1)"/>
  <circle cx="13" cy="9" r="1" fill="srgba(60.2441%,87.2023%,70.4021%,1)"/>
  <circle cx="14" cy="9" r="1" fill="srgba(58.8647%,87.126%,72.842%,1)"/>
  <circle cx="15" cy="9" r="1" fill="srgba(59.2279%,87.1473%,72.2011%,1)"/>
  <circle cx="0" cy="10" r="1" fill="srgba(83.6591%,88.5023%,28.9357%,1)"/>
  <circle cx="1" cy="10" r="1" fill="srgba(88.7266%,88.7846%,19.9619%,1)"/>
  <circle cx="2" cy="10" r="1" fill="srgba(53.843%,86.8452%,81.735%,1)"/>
  <circle cx="3" cy="10" r="1" fill="srgba(54.8257%,86.9093%,79.9939%,1)"/>
  <circle cx="4" cy="10" r="1" fill="srgba(70.161%,87.7653%,52.8405%,1)"/>
  <circle cx="5" cy="10" r="1" fill="srgba(94.5083%,89.1081%,9.72457%,1)"/>
  <circle cx="6" cy="10" r="1" fill="srgba(99.0616%,89.3629%,1.66018%,1)"/>
  <circle cx="7" cy="10" r="1" fill="srgba(92.2225%,88.983%,13.7697%,1)"/>
  <circle cx="8" cy="10" r="1" fill="srgba(91.7479%,88.9647%,14.612%,1)"/>
  <circle cx="9" cy="10" r="1" fill="srgba(80.0565%,88.3162%,35.3155%,1)"/>
  <circle cx="10" cy="10" r="1" fill="srgba(72.6589%,87.892%,48.4169%,1)"/>
  <circle cx="11" cy="10" r="1" fill="srgba(70.7225%,87.7821%,51.8486%,1)"/>
  <circle cx="12" cy="10" r="1" fill="srgba(83.5309%,88.4962%,29.1691%,1)"/>
  <circle cx="13" cy="10" r="1" fill="srgba(87.4083%,88.7129%,22.3026%,1)"/>
  <circle cx="14" cy="10" r="1" fill="srgba(88.336%,88.7617%,20.6607%,1)"/>
  <circle cx="15" cy="10" r="1" fill="srgba(88.011%,88.7449%,21.236%,1)"/>
  <circle cx="0" cy="11" r="1" fill="srgba(86.7216%,88.6748%,23.5142%,1)"/>
  <circle cx="1" cy="11" r="1" fill="srgba(92.3354%,88.986%,13.5744%,1)"/>
  <circle cx="2" cy="11" r="1" fill="srgba(55.0927%,86.9154%,79.527%,1)"/>
  <circle cx="3" cy="11" r="1" fill="srgba(54.5556%,86.8864%,80.4746%,1)"/>
  <circle cx="4" cy="11" r="1" fill="srgba(67.0542%,87.5822%,58.1491%,1)"/>
  <circle cx="5" cy="11" r="1" fill="srgba(94.1711%,89.0898%,10.2602%,1)"/>
  <circle cx="6" cy="11" r="1" fill="srgba(99.5605%,89.3919%,0.781262%,1)"/>
  <circle cx="7" cy="11" r="1" fill="srgba(96.3622%,89.2195%,6.43931%,1)"/>
  <circle cx="8" cy="11" r="1" fill="srgba(90.1747%,88.8701%,17.3968%,1)"/>
  <circle cx="9" cy="11" r="1" fill="srgba(73.9483%,87.9652%,46.1341%,1)"/>
  <circle cx="10" cy="11" r="1" fill="srgba(55.5627%,86.9429%,78.6923%,1)"/>
  <circle cx="11" cy="11" r="1" fill="srgba(49.6056%,86.6117%,89.2454%,1)"/>
  <circle cx="12" cy="11" r="1" fill="srgba(49.9825%,86.6316%,88.5771%,1)"/>
  <circle cx="13" cy="11" r="1" fill="srgba(50.7469%,86.6743%,87.2236%,1)"/>
  <circle cx="14" cy="11" r="1" fill="srgba(51.136%,86.6957%,86.5324%,1)"/>
  <circle cx="15" cy="11" r="1" fill="srgba(51.0399%,86.6896%,86.7048%,1)"/>
  <circle cx="0" cy="12" r="1" fill="srgba(76.4034%,88.1025%,41.7914%,1)"/>
  <circle cx="1" cy="12" r="1" fill="srgba(91.0048%,88.9128%,15.9289%,1)"/>
  <circle cx="2" cy="12" r="1" fill="srgba(49.218%,86.5904%,89.926%,1)"/>
  <circle cx="3" cy="12" r="1" fill="srgba(54.403%,86.8788%,80.7446%,1)"/>
  <circle cx="4" cy="12" r="1" fill="srgba(66.3005%,87.5395%,59.6735%,1)"/>
  <circle cx="5" cy="12" r="1" fill="srgba(93.959%,89.0791%,10.6966%,1)"/>
  <circle cx="6" cy="12" r="1" fill="srgba(98.0941%,89.3065%,3.3753%,1)"/>
  <circle cx="7" cy="12" r="1" fill="srgba(91.9829%,88.9662%,14.197%,1)"/>
  <circle cx="8" cy="12" r="1" fill="srgba(68.5283%,87.6661%,55.7305%,1)"/>
  <circle cx="9" cy="12" r="1" fill="srgba(47.5471%,86.4958%,92.8847%,1)"/>
  <circle cx="10" cy="12" r="1" fill="srgba(56.9329%,87.0192%,76.2676%,1)"/>
  <circle cx="11" cy="12" r="1" fill="srgba(63.2929%,87.3762%,64.9989%,1)"/>
  <circle cx="12" cy="12" r="1" fill="srgba(67.7897%,87.6234%,57.0336%,1)"/>
  <circle cx="13" cy="12" r="1" fill="srgba(70.1259%,87.7516%,52.8939%,1)"/>
  <circle cx="14" cy="12" r="1" fill="srgba(68.5313%,87.6631%,55.7244%,1)"/>
  <circle cx="15" cy="12" r="1" fill="srgba(63.6759%,87.3869%,64.3259%,1)"/>
  <circle cx="0" cy="13" r="1" fill="srgba(75.7748%,88.069%,42.8565%,1)"/>
  <circle cx="1" cy="13" r="1" fill="srgba(90.5959%,88.8899%,16.6415%,1)"/>
  <circle cx="2" cy="13" r="1" fill="srgba(49.5598%,86.6087%,89.279%,1)"/>
  <circle cx="3" cy="13" r="1" fill="srgba(54.0963%,86.862%,81.2833%,1)"/>
  <circle cx="4" cy="13" r="1" fill="srgba(64.8966%,87.4632%,62.153%,1)"/>
  <circle cx="5" cy="13" r="1" fill="srgba(91.4702%,88.9418%,15.1034%,1)"/>
  <circle cx="6" cy="13" r="1" fill="srgba(95.6283%,89.1737%,7.73022%,1)"/>
  <circle cx="7" cy="13" r="1" fill="srgba(88.1392%,88.7572%,20.9918%,1)"/>
  <circle cx="8" cy="13" r="1" fill="srgba(72.8862%,87.9057%,48.014%,1)"/>
  <circle cx="9" cy="13" r="1" fill="srgba(51.5526%,86.717%,85.7923%,1)"/>
  <circle cx="10" cy="13" r="1" fill="srgba(68.5924%,87.6768%,55.6191%,1)"/>
  <circle cx="11" cy="13" r="1" fill="srgba(81.1917%,88.3742%,33.3043%,1)"/>
  <circle cx="12" cy="13" r="1" fill="srgba(96.907%,89.2393%,5.47799%,1)"/>
  <circle cx="13" cy="13" r="1" fill="srgba(96.9055%,89.2393%,5.47951%,1)"/>
  <circle cx="14" cy="13" r="1" fill="srgba(88.394%,88.7633%,20.557%,1)"/>
  <circle cx="15" cy="13" r="1" fill="srgba(75.4604%,88.0446%,43.4607%,1)"/>
  <circle cx="0" cy="14" r="1" fill="srgba(77.3281%,88.1529%,40.1495%,1)"/>
  <circle cx="1" cy="14" r="1" fill="srgba(91.725%,88.9525%,14.6548%,1)"/>
  <circle cx="2" cy="14" r="1" fill="srgba(50.8461%,86.6804%,87.0451%,1)"/>
  <circle cx="3" cy="14" r="1" fill="srgba(53.6599%,86.8376%,82.0539%,1)"/>
  <circle cx="4" cy="14" r="1" fill="srgba(62.7573%,87.3426%,65.9358%,1)"/>
  <circle cx="5" cy="14" r="1" fill="srgba(87.3884%,88.7129%,22.3362%,1)"/>
  <circle cx="6" cy="14" r="1" fill="srgba(88.5252%,88.7785%,20.2777%,1)"/>
  <circle cx="7" cy="14" r="1" fill="srgba(85.8808%,88.632%,24.9805%,1)"/>
  <circle cx="8" cy="14" r="1" fill="srgba(80.7507%,88.3436%,34.0963%,1)"/>
  <circle cx="9" cy="14" r="1" fill="srgba(56.7971%,87.0115%,76.202%,1)"/>
  <circle cx="10" cy="14" r="1" fill="srgba(70.2663%,87.7623%,52.4102%,1)"/>
  <circle cx="11" cy="14" r="1" fill="srgba(86.392%,88.6625%,24.1001%,1)"/>
  <circle cx="12" cy="14" r="1" fill="srgba(98.6801%,89.3477%,2.33616%,1)"/>
  <circle cx="13" cy="14" r="1" fill="srgba(100%,89.427%,0%,1)"/>
  <circle cx="14" cy="14" r="1" fill="srgba(100%,89.4316%,0%,1)"/>
  <circle cx="15" cy="14" r="1" fill="srgba(99.3317%,89.3797%,1.1841%,1)"/>
  <circle cx="0" cy="15" r="1" fill="srgba(76.6262%,88.1147%,41.3901%,1)"/>
  <circle cx="1" cy="15" r="1" fill="srgba(90.4845%,88.8838%,16.8505%,1)"/>
  <circle cx="2" cy="15" r="1" fill="srgba(49.8619%,86.627%,88.7861%,1)"/>
  <circle cx="3" cy="15" r="1" fill="srgba(53.2998%,86.8177%,82.6978%,1)"/>
  <circle cx="4" cy="15" r="1" fill="srgba(61.4466%,87.2694%,68.2673%,1)"/>
  <circle cx="5" cy="15" r="1" fill="srgba(85.6596%,88.6183%,25.3803%,1)"/>
  <circle cx="6" cy="15" r="1" fill="srgba(78.0056%,88.191%,38.8342%,1)"/>
  <circle cx="7" cy="15" r="1" fill="srgba(79.2218%,88.2597%,36.7147%,1)"/>
  <circle cx="8" cy="15" r="1" fill="srgba(67.332%,87.6036%,57.7874%,1)"/>
  <circle cx="9" cy="15" r="1" fill="srgba(60.8759%,87.2389%,69.2836%,1)"/>
  <circle cx="10" cy="15" r="1" fill="srgba(73.6843%,87.95%,46.5919%,1)"/>
  <circle cx="11" cy="15" r="1" fill="srgba(90.0969%,88.867%,17.5113%,1)"/>
  <circle cx="12" cy="15" r="1" fill="srgba(99.0936%,89.3614%,1.60372%,1)"/>
  <circle cx="13" cy="15" r="1" fill="srgba(100%,89.4148%,0%,1)"/>
  <circle cx="14" cy="15" r="1" fill="srgba(255,228,0,1)"/>
  <circle cx="15" cy="15" r="1" fill="srgba(100%,89.4133%,0%,1)"/>
</svg>
