<?xml version="1.0" standalone="no"?>
<!DOCTYPE svg PUBLIC "-//W3C//DTD SVG 20010904//EN"
  "http://www.w3.org/TR/2001/REC-SVG-20010904/DTD/svg10.dtd">
<svg width="16" height="16">
  <circle cx="0" cy="0" r="1" fill="srgba(233,0,18,1)"/>
  <circle cx="1" cy="0" r="1" fill="srgba(233,0,18,1)"/>
  <circle cx="2" cy="0" r="1" fill="srgba(233,0,18,1)"/>
  <circle cx="3" cy="0" r="1" fill="srgba(233,0,18,1)"/>
  <circle cx="4" cy="0" r="1" fill="srgba(233,0,18,1)"/>
  <circle cx="5" cy="0" r="1" fill="srgba(233,0,18,1)"/>
  <circle cx="6" cy="0" r="1" fill="srgba(233,0,18,1)"/>
  <circle cx="7" cy="0" r="1" fill="srgba(233,0,18,1)"/>
  <circle cx="8" cy="0" r="1" fill="srgba(233,0,18,1)"/>
  <circle cx="9" cy="0" r="1" fill="srgba(233,0,18,1)"/>
  <circle cx="10" cy="0" r="1" fill="srgba(233,0,18,1)"/>
  <circle cx="11" cy="0" r="1" fill="srgba(233,0,18,1)"/>
  <circle cx="12" cy="0" r="1" fill="srgba(233,0,18,1)"/>
  <circle cx="13" cy="0" r="1" fill="srgba(233,0,18,1)"/>
  <circle cx="14" cy="0" r="1" fill="srgba(233,0,18,1)"/>
  <circle cx="15" cy="0" r="1" fill="srgba(233,0,18,1)"/>
  <circle cx="0" cy="1" r="1" fill="srgba(233,0,18,1)"/>
  <circle cx="1" cy="1" r="1" fill="srgba(233,0,18,1)"/>
  <circle cx="2" cy="1" r="1" fill="srgba(233,0,18,1)"/>
  <circle cx="3" cy="1" r="1" fill="srgba(233,0,18,1)"/>
  <circle cx="4" cy="1" r="1" fill="srgba(233,0,18,1)"/>
  <circle cx="5" cy="1" r="1" fill="srgba(233,0,18,1)"/>
  <circle cx="6" cy="1" r="1" fill="srgba(233,0,18,1)"/>
  <circle cx="7" cy="1" r="1" fill="srgba(233,0,18,1)"/>
  <circle cx="8" cy="1" r="1" fill="srgba(233,0,18,1)"/>
  <circle cx="9" cy="1" r="1" fill="srgba(233,0,18,1)"/>
  <circle cx="10" cy="1" r="1" fill="srgba(233,0,18,1)"/>
  <circle cx="11" cy="1" r="1" fill="srgba(233,0,18,1)"/>
  <circle cx="12" cy="1" r="1" fill="srgba(233,0,18,1)"/>
  <circle cx="13" cy="1" r="1" fill="srgba(233,0,18,1)"/>
  <circle cx="14" cy="1" r="1" fill="srgba(233,0,18,1)"/>
  <circle cx="15" cy="1" r="1" fill="srgba(233,0,18,1)"/>
  <circle cx="0" cy="2" r="1" fill="srgba(92.166%,0%,6.40421%,1)"/>
  <circle cx="1" cy="2" r="1" fill="srgba(92.166%,0%,6.40421%,1)"/>
  <circle cx="2" cy="2" r="1" fill="srgba(92.166%,0%,6.40421%,1)"/>
  <circle cx="3" cy="2" r="1" fill="srgba(92.166%,0%,6.40421%,1)"/>
  <circle cx="4" cy="2" r="1" fill="srgba(92.166%,0%,6.40421%,1)"/>
  <circle cx="5" cy="2" r="1" fill="srgba(92.166%,0%,6.40421%,1)"/>
  <circle cx="6" cy="2" r="1" fill="srgba(92.166%,0%,6.40421%,1)"/>
  <circle cx="7" cy="2" r="1" fill="srgba(92.166%,0%,6.40421%,1)"/>
  <circle cx="8" cy="2" r="1" fill="srgba(92.166%,0%,6.40421%,1)"/>
  <circle cx="9" cy="2" r="1" fill="srgba(92.166%,0%,6.40421%,1)"/>
  <circle cx="10" cy="2" r="1" fill="srgba(92.166%,0%,6.40421%,1)"/>
  <circle cx="11" cy="2" r="1" fill="srgba(92.166%,0%,6.40421%,1)"/>
  <circle cx="12" cy="2" r="1" fill="srgba(92.166%,0%,6.40421%,1)"/>
  <circle cx="13" cy="2" r="1" fill="srgba(92.166%,0%,6.40421%,1)"/>
  <circle cx="14" cy="2" r="1" fill="srgba(92.166%,0%,6.40421%,1)"/>
  <circle cx="15" cy="2" r="1" fill="srgba(92.166%,0%,6.40421%,1)"/>
  <circle cx="0" cy="3" r="1" fill="srgba(79.0951%,3.2166%,17.1817%,1)"/>
  <circle cx="1" cy="3" r="1" fill="srgba(79.0936%,3.2166%,17.1832%,1)"/>
  <circle cx="2" cy="3" r="1" fill="srgba(79.0936%,3.2166%,17.1832%,1)"/>
  <circle cx="3" cy="3" r="1" fill="srgba(79.0936%,3.2166%,17.1832%,1)"/>
  <circle cx="4" cy="3" r="1" fill="srgba(79.0982%,3.21965%,17.1847%,1)"/>
  <circle cx="5" cy="3" r="1" fill="srgba(79.028%,3.16625%,17.171%,1)"/>
  <circle cx="6" cy="3" r="1" fill="srgba(78.0377%,2.41398%,16.9955%,1)"/>
  <circle cx="7" cy="3" r="1" fill="srgba(77.4014%,1.93027%,16.8841%,1)"/>
  <circle cx="8" cy="3" r="1" fill="srgba(77.4014%,1.93027%,16.8841%,1)"/>
  <circle cx="9" cy="3" r="1" fill="srgba(78.0392%,2.4155%,16.997%,1)"/>
  <circle cx="10" cy="3" r="1" fill="srgba(79.028%,3.16777%,17.171%,1)"/>
  <circle cx="11" cy="3" r="1" fill="srgba(79.0982%,3.21965%,17.1847%,1)"/>
  <circle cx="12" cy="3" r="1" fill="srgba(79.0936%,3.2166%,17.1832%,1)"/>
  <circle cx="13" cy="3" r="1" fill="srgba(79.0936%,3.2166%,17.1832%,1)"/>
  <circle cx="14" cy="3" r="1" fill="srgba(79.0936%,3.2166%,17.1832%,1)"/>
  <circle cx="15" cy="3" r="1" fill="srgba(79.0936%,3.2166%,17.1832%,1)"/>
  <circle cx="0" cy="4" r="1" fill="srgba(9.8497%,21.3474%,74.2397%,1)"/>
  <circle cx="1" cy="4" r="1" fill="srgba(9.84207%,21.3474%,74.2473%,1)"/>
  <circle cx="2" cy="4" r="1" fill="srgba(9.84207%,21.3474%,74.2473%,1)"/>
  <circle cx="3" cy="4" r="1" fill="srgba(9.84665%,21.3504%,74.2489%,1)"/>
  <circle cx="4" cy="4" r="1" fill="srgba(9.66506%,21.2131%,74.2168%,1)"/>
  <circle cx="5" cy="4" r="1" fill="srgba(10.0526%,21.5076%,74.284%,1)"/>
  <circle cx="6" cy="4" r="1" fill="srgba(28.1437%,35.2697%,77.4777%,1)"/>
  <circle cx="7" cy="4" r="1" fill="srgba(50.4494%,52.2408%,81.413%,1)"/>
  <circle cx="8" cy="4" r="1" fill="srgba(50.4387%,52.2332%,81.4115%,1)"/>
  <circle cx="9" cy="4" r="1" fill="srgba(28.1178%,35.2499%,77.4731%,1)"/>
  <circle cx="10" cy="4" r="1" fill="srgba(10.0481%,21.503%,74.284%,1)"/>
  <circle cx="11" cy="4" r="1" fill="srgba(9.66659%,21.2131%,74.2168%,1)"/>
  <circle cx="12" cy="4" r="1" fill="srgba(9.84665%,21.3504%,74.2489%,1)"/>
  <circle cx="13" cy="4" r="1" fill="srgba(9.84207%,21.3474%,74.2473%,1)"/>
  <circle cx="14" cy="4" r="1" fill="srgba(9.84207%,21.3474%,74.2473%,1)"/>
  <circle cx="15" cy="4" r="1" fill="srgba(9.84207%,21.3474%,74.2473%,1)"/>
  <circle cx="0" cy="5" r="1" fill="srgba(0%,24.0879%,82.8687%,1)"/>
  <circle cx="1" cy="5" r="1" fill="srgba(0%,24.0879%,82.8763%,1)"/>
  <circle cx="2" cy="5" r="1" fill="srgba(0%,24.0879%,82.8763%,1)"/>
  <circle cx="3" cy="5" r="1" fill="srgba(0%,24.0391%,82.8641%,1)"/>
  <circle cx="4" cy="5" r="1" fill="srgba(0.384527%,24.2405%,82.9114%,1)"/>
  <circle cx="5" cy="5" r="1" fill="srgba(38.4482%,53.6782%,89.7459%,1)"/>
  <circle cx="6" cy="5" r="1" fill="srgba(89.427%,92.6055%,98.6923%,1)"/>
  <circle cx="7" cy="5" r="1" fill="srgba(99.7848%,100%,100%,1)"/>
  <circle cx="8" cy="5" r="1" fill="srgba(99.7833%,100%,100%,1)"/>
  <circle cx="9" cy="5" r="1" fill="srgba(89.4011%,92.5872%,98.6877%,1)"/>
  <circle cx="10" cy="5" r="1" fill="srgba(38.3963%,53.6385%,89.7353%,1)"/>
  <circle cx="11" cy="5" r="1" fill="srgba(0.376898%,24.2344%,82.9099%,1)"/>
  <circle cx="12" cy="5" r="1" fill="srgba(0%,24.0391%,82.8656%,1)"/>
  <circle cx="13" cy="5" r="1" fill="srgba(0%,24.0879%,82.8763%,1)"/>
  <circle cx="14" cy="5" r="1" fill="srgba(0%,24.0879%,82.8763%,1)"/>
  <circle cx="15" cy="5" r="1" fill="srgba(0%,24.0879%,82.8763%,1)"/>
  <circle cx="0" cy="6" r="1" fill="srgba(0.00762951%,23.9216%,82.3453%,1)"/>
  <circle cx="1" cy="6" r="1" fill="srgba(0,61,210,1)"/>
  <circle cx="2" cy="6" r="1" fill="srgba(0,61,210,1)"/>
  <circle cx="3" cy="6" r="1" fill="srgba(0%,23.1189%,82.1668%,1)"/>
  <circle cx="4" cy="6" r="1" fill="srgba(18.3581%,37.8454%,85.5833%,1)"/>
  <circle cx="5" cy="6" r="1" fill="srgba(89.3645%,91.9036%,98.1216%,1)"/>
  <circle cx="6" cy="6" r="1" fill="white"/>
  <circle cx="7" cy="6" r="1" fill="white"/>
  <circle cx="8" cy="6" r="1" fill="white"/>
  <circle cx="9" cy="6" r="1" fill="white"/>
  <circle cx="10" cy="6" r="1" fill="srgba(89.3248%,91.8746%,98.114%,1)"/>
  <circle cx="11" cy="6" r="1" fill="srgba(18.3078%,37.8073%,85.5741%,1)"/>
  <circle cx="12" cy="6" r="1" fill="srgba(0%,23.1205%,82.1668%,1)"/>
  <circle cx="13" cy="6" r="1" fill="srgba(0,61,210,1)"/>
  <circle cx="14" cy="6" r="1" fill="srgba(0,61,210,1)"/>
  <circle cx="15" cy="6" r="1" fill="srgba(0,61,210,1)"/>
  <circle cx="0" cy="7" r="1" fill="srgba(0.00762951%,23.9216%,82.3453%,1)"/>
  <circle cx="1" cy="7" r="1" fill="srgba(0,61,210,1)"/>
  <circle cx="2" cy="7" r="1" fill="srgba(0,61,210,1)"/>
  <circle cx="3" cy="7" r="1" fill="srgba(0%,22.6474%,82.0569%,1)"/>
  <circle cx="4" cy="7" r="1" fill="srgba(40.3464%,54.6151%,89.4728%,1)"/>
  <circle cx="5" cy="7" r="1" fill="white"/>
  <circle cx="6" cy="7" r="1" fill="white"/>
  <circle cx="7" cy="7" r="1" fill="white"/>
  <circle cx="8" cy="7" r="1" fill="white"/>
  <circle cx="9" cy="7" r="1" fill="white"/>
  <circle cx="10" cy="7" r="1" fill="white"/>
  <circle cx="11" cy="7" r="1" fill="srgba(40.2884%,54.5724%,89.4621%,1)"/>
  <circle cx="12" cy="7" r="1" fill="srgba(0%,22.6474%,82.0569%,1)"/>
  <circle cx="13" cy="7" r="1" fill="srgba(0,61,210,1)"/>
  <circle cx="14" cy="7" r="1" fill="srgba(0,61,210,1)"/>
  <circle cx="15" cy="7" r="1" fill="srgba(0,61,210,1)"/>
  <circle cx="0" cy="8" r="1" fill="srgba(0.00762951%,23.9216%,82.3453%,1)"/>
  <circle cx="1" cy="8" r="1" fill="srgba(0,61,210,1)"/>
  <circle cx="2" cy="8" r="1" fill="srgba(0,61,210,1)"/>
  <circle cx="3" cy="8" r="1" fill="srgba(0%,22.6474%,82.0569%,1)"/>
  <circle cx="4" cy="8" r="1" fill="srgba(40.3052%,54.5846%,89.4652%,1)"/>
  <circle cx="5" cy="8" r="1" fill="white"/>
  <circle cx="6" cy="8" r="1" fill="white"/>
  <circle cx="7" cy="8" r="1" fill="white"/>
  <circle cx="8" cy="8" r="1" fill="white"/>
  <circle cx="9" cy="8" r="1" fill="white"/>
  <circle cx="10" cy="8" r="1" fill="white"/>
  <circle cx="11" cy="8" r="1" fill="srgba(40.2472%,54.5403%,89.4545%,1)"/>
  <circle cx="12" cy="8" r="1" fill="srgba(0%,22.6474%,82.0569%,1)"/>
  <circle cx="13" cy="8" r="1" fill="srgba(0,61,210,1)"/>
  <circle cx="14" cy="8" r="1" fill="srgba(0,61,210,1)"/>
  <circle cx="15" cy="8" r="1" fill="srgba(0,61,210,1)"/>
  <circle cx="0" cy="9" r="1" fill="srgba(0.00762951%,23.9216%,82.3453%,1)"/>
  <circle cx="1" cy="9" r="1" fill="srgba(0,61,210,1)"/>
  <circle cx="2" cy="9" r="1" fill="srgba(0,61,210,1)"/>
  <circle cx="3" cy="9" r="1" fill="srgba(0%,23.122%,82.1683%,1)"/>
  <circle cx="4" cy="9" r="1" fill="srgba(18.2712%,37.7783%,85.568%,1)"/>
  <circle cx="5" cy="9" r="1" fill="srgba(89.2805%,91.8395%,98.1064%,1)"/>
  <circle cx="6" cy="9" r="1" fill="white"/>
  <circle cx="7" cy="9" r="1" fill="white"/>
  <circle cx="8" cy="9" r="1" fill="white"/>
  <circle cx="9" cy="9" r="1" fill="white"/>
  <circle cx="10" cy="9" r="1" fill="srgba(89.2393%,91.8074%,98.1003%,1)"/>
  <circle cx="11" cy="9" r="1" fill="srgba(18.2193%,37.7386%,85.5589%,1)"/>
  <circle cx="12" cy="9" r="1" fill="srgba(0%,23.1235%,82.1683%,1)"/>
  <circle cx="13" cy="9" r="1" fill="srgba(0,61,210,1)"/>
  <circle cx="14" cy="9" r="1" fill="srgba(0,61,210,1)"/>
  <circle cx="15" cy="9" r="1" fill="srgba(0,61,210,1)"/>
  <circle cx="0" cy="10" r="1" fill="srgba(0%,24.0894%,82.8748%,1)"/>
  <circle cx="1" cy="10" r="1" fill="srgba(0%,24.0894%,82.8824%,1)"/>
  <circle cx="2" cy="10" r="1" fill="srgba(0%,24.0894%,82.8824%,1)"/>
  <circle cx="3" cy="10" r="1" fill="srgba(0%,24.0406%,82.8717%,1)"/>
  <circle cx="4" cy="10" r="1" fill="srgba(0.364691%,24.2267%,82.9145%,1)"/>
  <circle cx="5" cy="10" r="1" fill="srgba(38.1994%,53.4951%,89.7078%,1)"/>
  <circle cx="6" cy="10" r="1" fill="srgba(89.2653%,92.4926%,98.6694%,1)"/>
  <circle cx="7" cy="10" r="1" fill="srgba(99.7711%,100%,100%,1)"/>
  <circle cx="8" cy="10" r="1" fill="srgba(99.7696%,100%,100%,1)"/>
  <circle cx="9" cy="10" r="1" fill="srgba(89.2363%,92.4697%,98.6664%,1)"/>
  <circle cx="10" cy="10" r="1" fill="srgba(38.1445%,53.4524%,89.6986%,1)"/>
  <circle cx="11" cy="10" r="1" fill="srgba(0.357061%,24.2206%,82.9129%,1)"/>
  <circle cx="12" cy="10" r="1" fill="srgba(0%,24.0421%,82.8717%,1)"/>
  <circle cx="13" cy="10" r="1" fill="srgba(0%,24.0894%,82.8824%,1)"/>
  <circle cx="14" cy="10" r="1" fill="srgba(0%,24.0894%,82.8824%,1)"/>
  <circle cx="15" cy="10" r="1" fill="srgba(0%,24.0894%,82.8824%,1)"/>
  <circle cx="0" cy="11" r="1" fill="srgba(9.9443%,21.3214%,74.1573%,1)"/>
  <circle cx="1" cy="11" r="1" fill="srgba(9.93668%,21.3214%,74.165%,1)"/>
  <circle cx="2" cy="11" r="1" fill="srgba(9.93668%,21.3214%,74.165%,1)"/>
  <circle cx="3" cy="11" r="1" fill="srgba(9.94125%,21.3245%,74.1665%,1)"/>
  <circle cx="4" cy="11" r="1" fill="srgba(9.76425%,21.1902%,74.1344%,1)"/>
  <circle cx="5" cy="11" r="1" fill="srgba(10.1076%,21.4511%,74.1955%,1)"/>
  <circle cx="6" cy="11" r="1" fill="srgba(28.0858%,35.1278%,77.3678%,1)"/>
  <circle cx="7" cy="11" r="1" fill="srgba(50.4417%,52.137%,81.3138%,1)"/>
  <circle cx="8" cy="11" r="1" fill="srgba(50.4265%,52.1248%,81.3107%,1)"/>
  <circle cx="9" cy="11" r="1" fill="srgba(28.0537%,35.1049%,77.3632%,1)"/>
  <circle cx="10" cy="11" r="1" fill="srgba(10.1015%,21.4466%,74.1939%,1)"/>
  <circle cx="11" cy="11" r="1" fill="srgba(9.76425%,21.1902%,74.1344%,1)"/>
  <circle cx="12" cy="11" r="1" fill="srgba(9.94125%,21.3245%,74.1665%,1)"/>
  <circle cx="13" cy="11" r="1" fill="srgba(9.93668%,21.3214%,74.165%,1)"/>
  <circle cx="14" cy="11" r="1" fill="srgba(9.93668%,21.3214%,74.165%,1)"/>
  <circle cx="15" cy="11" r="1" fill="srgba(9.93668%,21.3214%,74.165%,1)"/>
  <circle cx="0" cy="12" r="1" fill="srgba(79.1958%,3.18914%,17.0932%,1)"/>
  <circle cx="1" cy="12" r="1" fill="srgba(79.1943%,3.18914%,17.0947%,1)"/>
  <circle cx="2" cy="12" r="1" fill="srgba(79.1943%,3.18914%,17.0947%,1)"/>
  <circle cx="3" cy="12" r="1" fill="srgba(79.1943%,3.18914%,17.0947%,1)"/>
  <circle cx="4" cy="12" r="1" fill="srgba(79.1989%,3.19219%,17.0962%,1)"/>
  <circle cx="5" cy="12" r="1" fill="srgba(79.1318%,3.14183%,17.084%,1)"/>
  <circle cx="6" cy="12" r="1" fill="srgba(78.146%,2.39261%,16.91%,1)"/>
  <circle cx="7" cy="12" r="1" fill="srgba(77.5036%,1.9028%,16.7956%,1)"/>
  <circle cx="8" cy="12" r="1" fill="srgba(77.5036%,1.9028%,16.7956%,1)"/>
  <circle cx="9" cy="12" r="1" fill="srgba(78.1476%,2.39414%,16.91%,1)"/>
  <circle cx="10" cy="12" r="1" fill="srgba(79.1318%,3.14183%,17.084%,1)"/>
  <circle cx="11" cy="12" r="1" fill="srgba(79.1989%,3.19219%,17.0962%,1)"/>
  <circle cx="12" cy="12" r="1" fill="srgba(79.1943%,3.18914%,17.0947%,1)"/>
  <circle cx="13" cy="12" r="1" fill="srgba(79.1943%,3.18914%,17.0947%,1)"/>
  <circle cx="14" cy="12" r="1" fill="srgba(79.1943%,3.18914%,17.0947%,1)"/>
  <circle cx="15" cy="12" r="1" fill="srgba(79.1943%,3.18914%,17.0947%,1)"/>
  <circle cx="0" cy="13" r="1" fill="srgba(92.1599%,0%,6.41032%,1)"/>
  <circle cx="1" cy="13" r="1" fill="srgba(92.1599%,0%,6.41032%,1)"/>
  <circle cx="2" cy="13" r="1" fill="srgba(92.1599%,0%,6.41032%,1)"/>
  <circle cx="3" cy="13" r="1" fill="srgba(92.1599%,0%,6.41032%,1)"/>
  <circle cx="4" cy="13" r="1" fill="srgba(92.1599%,0%,6.41032%,1)"/>
  <circle cx="5" cy="13" r="1" fill="srgba(92.1599%,0%,6.41032%,1)"/>
  <circle cx="6" cy="13" r="1" fill="srgba(92.1599%,0%,6.41032%,1)"/>
  <circle cx="7" cy="13" r="1" fill="srgba(92.1599%,0%,6.41032%,1)"/>
  <circle cx="8" cy="13" r="1" fill="srgba(92.1599%,0%,6.41032%,1)"/>
  <circle cx="9" cy="13" r="1" fill="srgba(92.1599%,0%,6.41032%,1)"/>
  <circle cx="10" cy="13" r="1" fill="srgba(92.1599%,0%,6.41032%,1)"/>
  <circle cx="11" cy="13" r="1" fill="srgba(92.1599%,0%,6.41032%,1)"/>
  <circle cx="12" cy="13" r="1" fill="srgba(92.1599%,0%,6.41032%,1)"/>
  <circle cx="13" cy="13" r="1" fill="srgba(92.1599%,0%,6.41032%,1)"/>
  <circle cx="14" cy="13" r="1" fill="srgba(92.1599%,0%,6.41032%,1)"/>
  <circle cx="15" cy="13" r="1" fill="srgba(92.1599%,0%,6.41032%,1)"/>
  <circle cx="0" cy="14" r="1" fill="srgba(233,0,18,1)"/>
  <circle cx="1" cy="14" r="1" fill="srgba(233,0,18,1)"/>
  <circle cx="2" cy="14" r="1" fill="srgba(233,0,18,1)"/>
  <circle cx="3" cy="14" r="1" fill="srgba(233,0,18,1)"/>
  <circle cx="4" cy="14" r="1" fill="srgba(233,0,18,1)"/>
  <circle cx="5" cy="14" r="1" fill="srgba(233,0,18,1)"/>
  <circle cx="6" cy="14" r="1" fill="srgba(233,0,18,1)"/>
  <circle cx="7" cy="14" r="1" fill="srgba(233,0,18,1)"/>
  <circle cx="8" cy="14" r="1" fill="srgba(233,0,18,1)"/>
  <circle cx="9" cy="14" r="1" fill="srgba(233,0,18,1)"/>
  <circle cx="10" cy="14" r="1" fill="srgba(233,0,18,1)"/>
  <circle cx="11" cy="14" r="1" fill="srgba(233,0,18,1)"/>
  <circle cx="12" cy="14" r="1" fill="srgba(233,0,18,1)"/>
  <circle cx="13" cy="14" r="1" fill="srgba(233,0,18,1)"/>
  <circle cx="14" cy="14" r="1" fill="srgba(233,0,18,1)"/>
  <circle cx="15" cy="14" r="1" fill="srgba(233,0,18,1)"/>
  <circle cx="0" cy="15" r="1" fill="srgba(233,0,18,1)"/>
  <circle cx="1" cy="15" r="1" fill="srgba(233,0,18,1)"/>
  <circle cx="2" cy="15" r="1" fill="srgba(233,0,18,1)"/>
  <circle cx="3" cy="15" r="1" fill="srgba(233,0,18,1)"/>
  <circle cx="4" cy="15" r="1" fill="srgba(233,0,18,1)"/>
  <circle cx="5" cy="15" r="1" fill="srgba(233,0,18,1)"/>
  <circle cx="6" cy="15" r="1" fill="srgba(233,0,18,1)"/>
  <circle cx="7" cy="15" r="1" fill="srgba(233,0,18,1)"/>
  <circle cx="8" cy="15" r="1" fill="srgba(233,0,18,1)"/>
  <circle cx="9" cy="15" r="1" fill="srgba(233,0,18,1)"/>
  <circle cx="10" cy="15" r="1" fill="srgba(233,0,18,1)"/>
  <circle cx="11" cy="15" r="1" fill="srgba(233,0,18,1)"/>
  <circle cx="12" cy="15" r="1" fill="srgba(233,0,18,1)"/>
  <circle cx="13" cy="15" r="1" fill="srgba(233,0,18,1)"/>
  <circle cx="14" cy="15" r="1" fill="srgba(233,0,18,1)"/>
  <circle cx="15" cy="15" r="1" fill="srgba(233,0,18,1)"/>
</svg>
