<?xml version="1.0" standalone="no"?>
<!DOCTYPE svg PUBLIC "-//W3C//DTD SVG 20010904//EN"
  "http://www.w3.org/TR/2001/REC-SVG-20010904/DTD/svg10.dtd">
<svg width="16" height="16">
  <circle cx="0" cy="0" r="1" fill="red"/>
  <circle cx="1" cy="0" r="1" fill="red"/>
  <circle cx="2" cy="0" r="1" fill="red"/>
  <circle cx="3" cy="0" r="1" fill="red"/>
  <circle cx="4" cy="0" r="1" fill="red"/>
  <circle cx="5" cy="0" r="1" fill="red"/>
  <circle cx="6" cy="0" r="1" fill="red"/>
  <circle cx="7" cy="0" r="1" fill="red"/>
  <circle cx="8" cy="0" r="1" fill="red"/>
  <circle cx="9" cy="0" r="1" fill="red"/>
  <circle cx="10" cy="0" r="1" fill="red"/>
  <circle cx="11" cy="0" r="1" fill="red"/>
  <circle cx="12" cy="0" r="1" fill="red"/>
  <circle cx="13" cy="0" r="1" fill="red"/>
  <circle cx="14" cy="0" r="1" fill="red"/>
  <circle cx="15" cy="0" r="1" fill="srgba(100%,0.030518%,0.030518%,1)"/>
  <circle cx="0" cy="1" r="1" fill="red"/>
  <circle cx="1" cy="1" r="1" fill="red"/>
  <circle cx="2" cy="1" r="1" fill="red"/>
  <circle cx="3" cy="1" r="1" fill="red"/>
  <circle cx="4" cy="1" r="1" fill="red"/>
  <circle cx="5" cy="1" r="1" fill="red"/>
  <circle cx="6" cy="1" r="1" fill="red"/>
  <circle cx="7" cy="1" r="1" fill="red"/>
  <circle cx="8" cy="1" r="1" fill="red"/>
  <circle cx="9" cy="1" r="1" fill="red"/>
  <circle cx="10" cy="1" r="1" fill="red"/>
  <circle cx="11" cy="1" r="1" fill="red"/>
  <circle cx="12" cy="1" r="1" fill="red"/>
  <circle cx="13" cy="1" r="1" fill="red"/>
  <circle cx="14" cy="1" r="1" fill="red"/>
  <circle cx="15" cy="1" r="1" fill="srgba(100%,0.030518%,0.030518%,1)"/>
  <circle cx="0" cy="2" r="1" fill="red"/>
  <circle cx="1" cy="2" r="1" fill="red"/>
  <circle cx="2" cy="2" r="1" fill="red"/>
  <circle cx="3" cy="2" r="1" fill="red"/>
  <circle cx="4" cy="2" r="1" fill="red"/>
  <circle cx="5" cy="2" r="1" fill="red"/>
  <circle cx="6" cy="2" r="1" fill="red"/>
  <circle cx="7" cy="2" r="1" fill="red"/>
  <circle cx="8" cy="2" r="1" fill="red"/>
  <circle cx="9" cy="2" r="1" fill="red"/>
  <circle cx="10" cy="2" r="1" fill="red"/>
  <circle cx="11" cy="2" r="1" fill="red"/>
  <circle cx="12" cy="2" r="1" fill="red"/>
  <circle cx="13" cy="2" r="1" fill="red"/>
  <circle cx="14" cy="2" r="1" fill="red"/>
  <circle cx="15" cy="2" r="1" fill="srgba(100%,0.015259%,0.015259%,1)"/>
  <circle cx="0" cy="3" r="1" fill="srgba(100%,12.0607%,12.0607%,1)"/>
  <circle cx="1" cy="3" r="1" fill="srgba(100%,12.0607%,12.0607%,1)"/>
  <circle cx="2" cy="3" r="1" fill="srgba(100%,12.0607%,12.0607%,1)"/>
  <circle cx="3" cy="3" r="1" fill="srgba(100%,12.0607%,12.0607%,1)"/>
  <circle cx="4" cy="3" r="1" fill="srgba(100%,12.0607%,12.0607%,1)"/>
  <circle cx="5" cy="3" r="1" fill="srgba(100%,12.0531%,12.0455%,1)"/>
  <circle cx="6" cy="3" r="1" fill="srgba(100%,12.2454%,12.4117%,1)"/>
  <circle cx="7" cy="3" r="1" fill="srgba(98.584%,11.7525%,11.4748%,1)"/>
  <circle cx="8" cy="3" r="1" fill="srgba(98.7549%,11.8868%,11.7281%,1)"/>
  <circle cx="9" cy="3" r="1" fill="srgba(100%,12.488%,12.8725%,1)"/>
  <circle cx="10" cy="3" r="1" fill="srgba(100%,12.0745%,12.0867%,1)"/>
  <circle cx="11" cy="3" r="1" fill="srgba(100%,12.0592%,12.0577%,1)"/>
  <circle cx="12" cy="3" r="1" fill="srgba(100%,12.0607%,12.0607%,1)"/>
  <circle cx="13" cy="3" r="1" fill="srgba(100%,12.0607%,12.0607%,1)"/>
  <circle cx="14" cy="3" r="1" fill="srgba(100%,12.0592%,12.0592%,1)"/>
  <circle cx="15" cy="3" r="1" fill="srgba(100%,12.0882%,12.0882%,1)"/>
  <circle cx="0" cy="4" r="1" fill="srgba(100%,87.9393%,87.9393%,1)"/>
  <circle cx="1" cy="4" r="1" fill="srgba(100%,87.9393%,87.9393%,1)"/>
  <circle cx="2" cy="4" r="1" fill="srgba(100%,87.9393%,87.9393%,1)"/>
  <circle cx="3" cy="4" r="1" fill="srgba(100%,87.9393%,87.9393%,1)"/>
  <circle cx="4" cy="4" r="1" fill="srgba(100%,87.9393%,87.9377%,1)"/>
  <circle cx="5" cy="4" r="1" fill="srgba(100%,88.0919%,88.2292%,1)"/>
  <circle cx="6" cy="4" r="1" fill="srgba(96.4843%,86.276%,84.7761%,1)"/>
  <circle cx="7" cy="4" r="1" fill="srgba(52.1157%,62.7924%,40.0885%,1)"/>
  <circle cx="8" cy="4" r="1" fill="srgba(50.518%,61.9348%,38.4543%,1)"/>
  <circle cx="9" cy="4" r="1" fill="srgba(88.5908%,81.9532%,76.5469%,1)"/>
  <circle cx="10" cy="4" r="1" fill="srgba(99.5041%,87.805%,87.6844%,1)"/>
  <circle cx="11" cy="4" r="1" fill="srgba(100%,88.1285%,88.3009%,1)"/>
  <circle cx="12" cy="4" r="1" fill="srgba(100%,88.0919%,88.2292%,1)"/>
  <circle cx="13" cy="4" r="1" fill="srgba(100%,88.0797%,88.2078%,1)"/>
  <circle cx="14" cy="4" r="1" fill="srgba(100%,88.069%,88.188%,1)"/>
  <circle cx="15" cy="4" r="1" fill="srgba(100%,88.0644%,88.1743%,1)"/>
  <circle cx="0" cy="5" r="1" fill="white"/>
  <circle cx="1" cy="5" r="1" fill="white"/>
  <circle cx="2" cy="5" r="1" fill="white"/>
  <circle cx="3" cy="5" r="1" fill="white"/>
  <circle cx="4" cy="5" r="1" fill="white"/>
  <circle cx="5" cy="5" r="1" fill="white"/>
  <circle cx="6" cy="5" r="1" fill="srgba(66.9444%,83.299%,67.6219%,1)"/>
  <circle cx="7" cy="5" r="1" fill="srgba(29.4942%,63.7339%,30.2815%,1)"/>
  <circle cx="8" cy="5" r="1" fill="srgba(31.1543%,64.6006%,31.9356%,1)"/>
  <circle cx="9" cy="5" r="1" fill="srgba(43.798%,71.2428%,44.5747%,1)"/>
  <circle cx="10" cy="5" r="1" fill="srgba(86.6453%,93.6934%,87.3671%,1)"/>
  <circle cx="11" cy="5" r="1" fill="srgba(95.7549%,98.5443%,96.5332%,1)"/>
  <circle cx="12" cy="5" r="1" fill="srgba(95.4955%,98.4146%,96.2768%,1)"/>
  <circle cx="13" cy="5" r="1" fill="srgba(95.8907%,98.6236%,96.672%,1)"/>
  <circle cx="14" cy="5" r="1" fill="srgba(96.2387%,98.8037%,97.0199%,1)"/>
  <circle cx="15" cy="5" r="1" fill="srgba(96.5164%,98.9487%,97.2976%,1)"/>
  <circle cx="0" cy="6" r="1" fill="white"/>
  <circle cx="1" cy="6" r="1" fill="white"/>
  <circle cx="2" cy="6" r="1" fill="white"/>
  <circle cx="3" cy="6" r="1" fill="white"/>
  <circle cx="4" cy="6" r="1" fill="srgba(99.6017%,99.791%,99.6017%,1)"/>
  <circle cx="5" cy="6" r="1" fill="srgba(73.0175%,85.8213%,73.0175%,1)"/>
  <circle cx="6" cy="6" r="1" fill="srgba(34.4152%,65.5344%,34.4152%,1)"/>
  <circle cx="7" cy="6" r="1" fill="srgba(29.3767%,62.8855%,29.3767%,1)"/>
  <circle cx="8" cy="6" r="1" fill="srgba(51.1986%,74.3542%,51.1986%,1)"/>
  <circle cx="9" cy="6" r="1" fill="srgba(36.672%,66.7216%,36.672%,1)"/>
  <circle cx="10" cy="6" r="1" fill="srgba(62.2904%,80.1831%,62.2904%,1)"/>
  <circle cx="11" cy="6" r="1" fill="srgba(86.8986%,93.1136%,86.8986%,1)"/>
  <circle cx="12" cy="6" r="1" fill="srgba(90.6401%,95.0835%,90.6401%,1)"/>
  <circle cx="13" cy="6" r="1" fill="srgba(91.9127%,95.7519%,91.9127%,1)"/>
  <circle cx="14" cy="6" r="1" fill="srgba(93.0602%,96.3516%,93.0602%,1)"/>
  <circle cx="15" cy="6" r="1" fill="srgba(93.9254%,96.8063%,93.9254%,1)"/>
  <circle cx="0" cy="7" r="1" fill="white"/>
  <circle cx="1" cy="7" r="1" fill="white"/>
  <circle cx="2" cy="7" r="1" fill="white"/>
  <circle cx="3" cy="7" r="1" fill="white"/>
  <circle cx="4" cy="7" r="1" fill="srgba(94.2733%,96.9909%,94.2733%,1)"/>
  <circle cx="5" cy="7" r="1" fill="srgba(54.374%,76.0235%,54.374%,1)"/>
  <circle cx="6" cy="7" r="1" fill="srgba(41.1154%,69.0517%,41.1154%,1)"/>
  <circle cx="7" cy="7" r="1" fill="srgba(14.6807%,55.1003%,14.6807%,1)"/>
  <circle cx="8" cy="7" r="1" fill="srgba(35.1934%,65.9419%,35.1934%,1)"/>
  <circle cx="9" cy="7" r="1" fill="srgba(11.8364%,53.4417%,11.8364%,1)"/>
  <circle cx="10" cy="7" r="1" fill="srgba(20.1144%,57.9736%,20.1144%,1)"/>
  <circle cx="11" cy="7" r="1" fill="srgba(71.7327%,85.1469%,71.7327%,1)"/>
  <circle cx="12" cy="7" r="1" fill="white"/>
  <circle cx="13" cy="7" r="1" fill="white"/>
  <circle cx="14" cy="7" r="1" fill="white"/>
  <circle cx="15" cy="7" r="1" fill="white"/>
  <circle cx="0" cy="8" r="1" fill="white"/>
  <circle cx="1" cy="8" r="1" fill="white"/>
  <circle cx="2" cy="8" r="1" fill="white"/>
  <circle cx="3" cy="8" r="1" fill="white"/>
  <circle cx="4" cy="8" r="1" fill="srgba(69.2439%,83.8392%,69.2439%,1)"/>
  <circle cx="5" cy="8" r="1" fill="srgba(37.2854%,67.0451%,37.2854%,1)"/>
  <circle cx="6" cy="8" r="1" fill="srgba(52.2133%,74.8898%,52.2133%,1)"/>
  <circle cx="7" cy="8" r="1" fill="srgba(11.7708%,53.6431%,11.7708%,1)"/>
  <circle cx="8" cy="8" r="1" fill="srgba(27.2114%,61.5244%,27.2114%,1)"/>
  <circle cx="9" cy="8" r="1" fill="srgba(13.6202%,54.3648%,13.6202%,1)"/>
  <circle cx="10" cy="8" r="1" fill="srgba(18.294%,57.0764%,18.294%,1)"/>
  <circle cx="11" cy="8" r="1" fill="srgba(51.4458%,74.4854%,51.4458%,1)"/>
  <circle cx="12" cy="8" r="1" fill="srgba(97.3816%,98.6236%,97.3816%,1)"/>
  <circle cx="13" cy="8" r="1" fill="white"/>
  <circle cx="14" cy="8" r="1" fill="white"/>
  <circle cx="15" cy="8" r="1" fill="white"/>
  <circle cx="0" cy="9" r="1" fill="white"/>
  <circle cx="1" cy="9" r="1" fill="white"/>
  <circle cx="2" cy="9" r="1" fill="white"/>
  <circle cx="3" cy="9" r="1" fill="srgba(91.3802%,95.4711%,91.3802%,1)"/>
  <circle cx="4" cy="9" r="1" fill="srgba(39.4232%,68.1682%,39.4232%,1)"/>
  <circle cx="5" cy="9" r="1" fill="srgba(37.4807%,67.1473%,37.4807%,1)"/>
  <circle cx="6" cy="9" r="1" fill="srgba(71.4351%,84.9897%,71.4351%,1)"/>
  <circle cx="7" cy="9" r="1" fill="srgba(44.7669%,70.9331%,44.7669%,1)"/>
  <circle cx="8" cy="9" r="1" fill="srgba(31.2306%,63.7842%,31.2306%,1)"/>
  <circle cx="9" cy="9" r="1" fill="srgba(18.381%,57.1115%,18.381%,1)"/>
  <circle cx="10" cy="9" r="1" fill="srgba(23.0884%,59.5834%,23.0884%,1)"/>
  <circle cx="11" cy="9" r="1" fill="srgba(36.4065%,66.5827%,36.4065%,1)"/>
  <circle cx="12" cy="9" r="1" fill="srgba(89.2515%,94.3526%,89.2515%,1)"/>
  <circle cx="13" cy="9" r="1" fill="white"/>
  <circle cx="14" cy="9" r="1" fill="white"/>
  <circle cx="15" cy="9" r="1" fill="white"/>
  <circle cx="0" cy="10" r="1" fill="white"/>
  <circle cx="1" cy="10" r="1" fill="white"/>
  <circle cx="2" cy="10" r="1" fill="white"/>
  <circle cx="3" cy="10" r="1" fill="srgba(96.9406%,98.6358%,97.1847%,1)"/>
  <circle cx="4" cy="10" r="1" fill="srgba(69.0455%,84.509%,69.8192%,1)"/>
  <circle cx="5" cy="10" r="1" fill="srgba(72.166%,86.0426%,72.8603%,1)"/>
  <circle cx="6" cy="10" r="1" fill="srgba(78.3978%,89.0593%,78.8159%,1)"/>
  <circle cx="7" cy="10" r="1" fill="srgba(40.766%,69.2439%,41.1368%,1)"/>
  <circle cx="8" cy="10" r="1" fill="srgba(30.2449%,63.4928%,30.4311%,1)"/>
  <circle cx="9" cy="10" r="1" fill="srgba(71.9402%,85.9251%,72.6131%,1)"/>
  <circle cx="10" cy="10" r="1" fill="srgba(80.7446%,90.6691%,81.532%,1)"/>
  <circle cx="11" cy="10" r="1" fill="srgba(63.328%,81.5229%,64.1199%,1)"/>
  <circle cx="12" cy="10" r="1" fill="srgba(82.6841%,91.3024%,83.093%,1)"/>
  <circle cx="13" cy="10" r="1" fill="white"/>
  <circle cx="14" cy="10" r="1" fill="white"/>
  <circle cx="15" cy="10" r="1" fill="white"/>
  <circle cx="0" cy="11" r="1" fill="srgba(100%,87.9316%,87.9316%,1)"/>
  <circle cx="1" cy="11" r="1" fill="srgba(100%,87.9316%,87.9316%,1)"/>
  <circle cx="2" cy="11" r="1" fill="srgba(100%,87.9286%,87.924%,1)"/>
  <circle cx="3" cy="11" r="1" fill="srgba(100%,87.9927%,88.0491%,1)"/>
  <circle cx="4" cy="11" r="1" fill="srgba(100%,88.4947%,89.0257%,1)"/>
  <circle cx="5" cy="11" r="1" fill="srgba(89.4453%,83.2181%,78.4268%,1)"/>
  <circle cx="6" cy="11" r="1" fill="srgba(78.4619%,81.0376%,70.808%,1)"/>
  <circle cx="7" cy="11" r="1" fill="srgba(74.725%,78.7762%,66.7811%,1)"/>
  <circle cx="8" cy="11" r="1" fill="srgba(55.6725%,67.6493%,46.6117%,1)"/>
  <circle cx="9" cy="11" r="1" fill="srgba(61.6526%,68.0522%,49.8802%,1)"/>
  <circle cx="10" cy="11" r="1" fill="srgba(97.0871%,86.9322%,86.0349%,1)"/>
  <circle cx="11" cy="11" r="1" fill="srgba(100%,88.632%,89.2638%,1)"/>
  <circle cx="12" cy="11" r="1" fill="srgba(99.6887%,87.8065%,87.6936%,1)"/>
  <circle cx="13" cy="11" r="1" fill="srgba(100%,87.9316%,87.9301%,1)"/>
  <circle cx="14" cy="11" r="1" fill="srgba(100%,87.9316%,87.9316%,1)"/>
  <circle cx="15" cy="11" r="1" fill="srgba(100%,87.9347%,87.9347%,1)"/>
  <circle cx="0" cy="12" r="1" fill="srgba(100%,12.0546%,12.0546%,1)"/>
  <circle cx="1" cy="12" r="1" fill="srgba(100%,12.0546%,12.0546%,1)"/>
  <circle cx="2" cy="12" r="1" fill="srgba(100%,12.0546%,12.0546%,1)"/>
  <circle cx="3" cy="12" r="1" fill="srgba(99.9985%,12.0546%,12.0546%,1)"/>
  <circle cx="4" cy="12" r="1" fill="srgba(99.9954%,11.873%,11.8715%,1)"/>
  <circle cx="5" cy="12" r="1" fill="srgba(96.556%,14.3297%,12.6864%,1)"/>
  <circle cx="6" cy="12" r="1" fill="srgba(98.6664%,42.6932%,42.2416%,1)"/>
  <circle cx="7" cy="12" r="1" fill="srgba(100%,42.504%,43.0213%,1)"/>
  <circle cx="8" cy="12" r="1" fill="srgba(99.0158%,34.1543%,33.8872%,1)"/>
  <circle cx="9" cy="12" r="1" fill="srgba(94.8028%,11.107%,8.64271%,1)"/>
  <circle cx="10" cy="12" r="1" fill="srgba(98.3795%,11.1696%,10.4005%,1)"/>
  <circle cx="11" cy="12" r="1" fill="srgba(100%,12.1065%,12.1523%,1)"/>
  <circle cx="12" cy="12" r="1" fill="srgba(100%,12.0577%,12.0592%,1)"/>
  <circle cx="13" cy="12" r="1" fill="srgba(100%,12.0546%,12.0546%,1)"/>
  <circle cx="14" cy="12" r="1" fill="srgba(100%,12.0531%,12.0531%,1)"/>
  <circle cx="15" cy="12" r="1" fill="srgba(100%,12.0821%,12.0821%,1)"/>
  <circle cx="0" cy="13" r="1" fill="red"/>
  <circle cx="1" cy="13" r="1" fill="red"/>
  <circle cx="2" cy="13" r="1" fill="red"/>
  <circle cx="3" cy="13" r="1" fill="srgba(99.9969%,0%,0%,1)"/>
  <circle cx="4" cy="13" r="1" fill="srgba(99.9985%,0%,0%,1)"/>
  <circle cx="5" cy="13" r="1" fill="srgba(100%,4.4007%,4.4007%,1)"/>
  <circle cx="6" cy="13" r="1" fill="srgba(100%,32.7871%,32.7871%,1)"/>
  <circle cx="7" cy="13" r="1" fill="srgba(100%,33.4127%,33.4127%,1)"/>
  <circle cx="8" cy="13" r="1" fill="srgba(100%,26.2348%,26.2409%,1)"/>
  <circle cx="9" cy="13" r="1" fill="srgba(100%,2.02182%,2.02335%,1)"/>
  <circle cx="10" cy="13" r="1" fill="red"/>
  <circle cx="11" cy="13" r="1" fill="red"/>
  <circle cx="12" cy="13" r="1" fill="red"/>
  <circle cx="13" cy="13" r="1" fill="red"/>
  <circle cx="14" cy="13" r="1" fill="red"/>
  <circle cx="15" cy="13" r="1" fill="srgba(100%,0.015259%,0.015259%,1)"/>
  <circle cx="0" cy="14" r="1" fill="red"/>
  <circle cx="1" cy="14" r="1" fill="red"/>
  <circle cx="2" cy="14" r="1" fill="red"/>
  <circle cx="3" cy="14" r="1" fill="srgba(99.9969%,0%,0%,1)"/>
  <circle cx="4" cy="14" r="1" fill="srgba(99.9985%,0%,0%,1)"/>
  <circle cx="5" cy="14" r="1" fill="srgba(100%,4.05585%,4.05585%,1)"/>
  <circle cx="6" cy="14" r="1" fill="srgba(100%,29.2638%,29.2638%,1)"/>
  <circle cx="7" cy="14" r="1" fill="srgba(100%,32.0867%,32.0867%,1)"/>
  <circle cx="8" cy="14" r="1" fill="srgba(100%,27.0939%,27.0939%,1)"/>
  <circle cx="9" cy="14" r="1" fill="srgba(100%,2.0264%,2.0264%,1)"/>
  <circle cx="10" cy="14" r="1" fill="red"/>
  <circle cx="11" cy="14" r="1" fill="red"/>
  <circle cx="12" cy="14" r="1" fill="red"/>
  <circle cx="13" cy="14" r="1" fill="red"/>
  <circle cx="14" cy="14" r="1" fill="red"/>
  <circle cx="15" cy="14" r="1" fill="srgba(100%,0.030518%,0.030518%,1)"/>
  <circle cx="0" cy="15" r="1" fill="srgba(100%,0.131228%,0.131228%,1)"/>
  <circle cx="1" cy="15" r="1" fill="srgba(100%,0.131228%,0.131228%,1)"/>
  <circle cx="2" cy="15" r="1" fill="srgba(100%,0.131228%,0.131228%,1)"/>
  <circle cx="3" cy="15" r="1" fill="srgba(99.9969%,0.131228%,0.131228%,1)"/>
  <circle cx="4" cy="15" r="1" fill="srgba(99.9985%,0%,0%,1)"/>
  <circle cx="5" cy="15" r="1" fill="srgba(100%,3.78576%,3.78576%,1)"/>
  <circle cx="6" cy="15" r="1" fill="srgba(100%,25.7755%,25.7755%,1)"/>
  <circle cx="7" cy="15" r="1" fill="srgba(100%,30.7759%,30.7759%,1)"/>
  <circle cx="8" cy="15" r="1" fill="srgba(100%,27.837%,27.837%,1)"/>
  <circle cx="9" cy="15" r="1" fill="srgba(100%,2.15152%,2.15152%,1)"/>
  <circle cx="10" cy="15" r="1" fill="srgba(100%,0.0946059%,0.0946059%,1)"/>
  <circle cx="11" cy="15" r="1" fill="srgba(100%,0.131228%,0.131228%,1)"/>
  <circle cx="12" cy="15" r="1" fill="srgba(100%,0.131228%,0.131228%,1)"/>
  <circle cx="13" cy="15" r="1" fill="srgba(100%,0.131228%,0.131228%,1)"/>
  <circle cx="14" cy="15" r="1" fill="srgba(100%,0.129702%,0.129702%,1)"/>
  <circle cx="15" cy="15" r="1" fill="srgba(100%,0.161746%,0.161746%,1)"/>
</svg>
