<?xml version="1.0" standalone="no"?>
<!DOCTYPE svg PUBLIC "-//W3C//DTD SVG 20010904//EN"
  "http://www.w3.org/TR/2001/REC-SVG-20010904/DTD/svg10.dtd">
<svg width="16" height="16">
  <circle cx="0" cy="0" r="1" fill="srgba(101,207,255,1)"/>
  <circle cx="1" cy="0" r="1" fill="srgba(101,207,255,1)"/>
  <circle cx="2" cy="0" r="1" fill="srgba(101,207,255,1)"/>
  <circle cx="3" cy="0" r="1" fill="srgba(101,207,255,1)"/>
  <circle cx="4" cy="0" r="1" fill="srgba(101,207,255,1)"/>
  <circle cx="5" cy="0" r="1" fill="srgba(101,207,255,1)"/>
  <circle cx="6" cy="0" r="1" fill="srgba(39.6155%,81.178%,100%,1)"/>
  <circle cx="7" cy="0" r="1" fill="srgba(39.498%,81.1429%,100%,1)"/>
  <circle cx="8" cy="0" r="1" fill="srgba(39.4369%,81.1231%,100%,1)"/>
  <circle cx="9" cy="0" r="1" fill="srgba(39.617%,81.1795%,100%,1)"/>
  <circle cx="10" cy="0" r="1" fill="srgba(101,207,255,1)"/>
  <circle cx="11" cy="0" r="1" fill="srgba(101,207,255,1)"/>
  <circle cx="12" cy="0" r="1" fill="srgba(101,207,255,1)"/>
  <circle cx="13" cy="0" r="1" fill="srgba(101,207,255,1)"/>
  <circle cx="14" cy="0" r="1" fill="srgba(101,207,255,1)"/>
  <circle cx="15" cy="0" r="1" fill="srgba(101,207,255,1)"/>
  <circle cx="0" cy="1" r="1" fill="srgba(101,207,255,1)"/>
  <circle cx="1" cy="1" r="1" fill="srgba(101,207,255,1)"/>
  <circle cx="2" cy="1" r="1" fill="srgba(101,207,255,1)"/>
  <circle cx="3" cy="1" r="1" fill="srgba(101,207,255,1)"/>
  <circle cx="4" cy="1" r="1" fill="srgba(101,207,255,1)"/>
  <circle cx="5" cy="1" r="1" fill="srgba(101,207,255,1)"/>
  <circle cx="6" cy="1" r="1" fill="srgba(39.4476%,81.1261%,100%,1)"/>
  <circle cx="7" cy="1" r="1" fill="srgba(42.0584%,81.9409%,100%,1)"/>
  <circle cx="8" cy="1" r="1" fill="srgba(42.7375%,82.153%,100%,1)"/>
  <circle cx="9" cy="1" r="1" fill="srgba(39.4064%,81.1139%,100%,1)"/>
  <circle cx="10" cy="1" r="1" fill="srgba(101,207,255,1)"/>
  <circle cx="11" cy="1" r="1" fill="srgba(101,207,255,1)"/>
  <circle cx="12" cy="1" r="1" fill="srgba(101,207,255,1)"/>
  <circle cx="13" cy="1" r="1" fill="srgba(101,207,255,1)"/>
  <circle cx="14" cy="1" r="1" fill="srgba(101,207,255,1)"/>
  <circle cx="15" cy="1" r="1" fill="srgba(101,207,255,1)"/>
  <circle cx="0" cy="2" r="1" fill="srgba(101,207,255,1)"/>
  <circle cx="1" cy="2" r="1" fill="srgba(101,207,255,1)"/>
  <circle cx="2" cy="2" r="1" fill="srgba(101,207,255,1)"/>
  <circle cx="3" cy="2" r="1" fill="srgba(101,207,255,1)"/>
  <circle cx="4" cy="2" r="1" fill="srgba(101,207,255,1)"/>
  <circle cx="5" cy="2" r="1" fill="srgba(101,207,255,1)"/>
  <circle cx="6" cy="2" r="1" fill="srgba(39.0921%,81.0147%,100%,1)"/>
  <circle cx="7" cy="2" r="1" fill="srgba(48.0873%,83.83%,99.9542%,1)"/>
  <circle cx="8" cy="2" r="1" fill="srgba(59.5346%,87.4784%,99.9557%,1)"/>
  <circle cx="9" cy="2" r="1" fill="srgba(39.1852%,81.0437%,100%,1)"/>
  <circle cx="10" cy="2" r="1" fill="srgba(39.6094%,81.1765%,100%,1)"/>
  <circle cx="11" cy="2" r="1" fill="srgba(101,207,255,1)"/>
  <circle cx="12" cy="2" r="1" fill="srgba(101,207,255,1)"/>
  <circle cx="13" cy="2" r="1" fill="srgba(101,207,255,1)"/>
  <circle cx="14" cy="2" r="1" fill="srgba(101,207,255,1)"/>
  <circle cx="15" cy="2" r="1" fill="srgba(101,207,255,1)"/>
  <circle cx="0" cy="3" r="1" fill="srgba(101,207,255,1)"/>
  <circle cx="1" cy="3" r="1" fill="srgba(101,207,255,1)"/>
  <circle cx="2" cy="3" r="1" fill="srgba(101,207,255,1)"/>
  <circle cx="3" cy="3" r="1" fill="srgba(101,207,255,1)"/>
  <circle cx="4" cy="3" r="1" fill="srgba(101,207,255,1)"/>
  <circle cx="5" cy="3" r="1" fill="srgba(101,207,255,1)"/>
  <circle cx="6" cy="3" r="1" fill="srgba(39.4476%,81.3916%,100%,1)"/>
  <circle cx="7" cy="3" r="1" fill="srgba(42.8504%,78.1018%,94.0688%,1)"/>
  <circle cx="8" cy="3" r="1" fill="srgba(70.6554%,84.77%,90.9667%,1)"/>
  <circle cx="9" cy="3" r="1" fill="srgba(43.9384%,82.8641%,100%,1)"/>
  <circle cx="10" cy="3" r="1" fill="srgba(39.3713%,81.1017%,100%,1)"/>
  <circle cx="11" cy="3" r="1" fill="srgba(101,207,255,1)"/>
  <circle cx="12" cy="3" r="1" fill="srgba(101,207,255,1)"/>
  <circle cx="13" cy="3" r="1" fill="srgba(101,207,255,1)"/>
  <circle cx="14" cy="3" r="1" fill="srgba(101,207,255,1)"/>
  <circle cx="15" cy="3" r="1" fill="srgba(101,207,255,1)"/>
  <circle cx="0" cy="4" r="1" fill="srgba(101,207,255,1)"/>
  <circle cx="1" cy="4" r="1" fill="srgba(101,207,255,1)"/>
  <circle cx="2" cy="4" r="1" fill="srgba(101,207,255,1)"/>
  <circle cx="3" cy="4" r="1" fill="srgba(101,207,255,1)"/>
  <circle cx="4" cy="4" r="1" fill="srgba(101,207,255,1)"/>
  <circle cx="5" cy="4" r="1" fill="srgba(101,207,255,1)"/>
  <circle cx="6" cy="4" r="1" fill="srgba(39.7223%,81.8036%,100%,1)"/>
  <circle cx="7" cy="4" r="1" fill="srgba(37.3846%,70.6035%,85.5604%,1)"/>
  <circle cx="8" cy="4" r="1" fill="srgba(54.3496%,58.6465%,60.4196%,1)"/>
  <circle cx="9" cy="4" r="1" fill="srgba(57.3953%,86.804%,99.9786%,1)"/>
  <circle cx="10" cy="4" r="1" fill="srgba(38.7289%,80.9155%,100%,1)"/>
  <circle cx="11" cy="4" r="1" fill="srgba(39.6109%,81.178%,100%,1)"/>
  <circle cx="12" cy="4" r="1" fill="srgba(101,207,255,1)"/>
  <circle cx="13" cy="4" r="1" fill="srgba(101,207,255,1)"/>
  <circle cx="14" cy="4" r="1" fill="srgba(101,207,255,1)"/>
  <circle cx="15" cy="4" r="1" fill="srgba(101,207,255,1)"/>
  <circle cx="0" cy="5" r="1" fill="srgba(101,207,255,1)"/>
  <circle cx="1" cy="5" r="1" fill="srgba(101,207,255,1)"/>
  <circle cx="2" cy="5" r="1" fill="srgba(101,207,255,1)"/>
  <circle cx="3" cy="5" r="1" fill="srgba(101,207,255,1)"/>
  <circle cx="4" cy="5" r="1" fill="srgba(101,207,255,1)"/>
  <circle cx="5" cy="5" r="1" fill="srgba(39.6033%,81.1749%,100%,1)"/>
  <circle cx="6" cy="5" r="1" fill="srgba(39.9634%,81.9638%,100%,1)"/>
  <circle cx="7" cy="5" r="1" fill="srgba(52.7428%,74.2641%,83.6805%,1)"/>
  <circle cx="8" cy="5" r="1" fill="srgba(29.2744%,28.3925%,27.9316%,1)"/>
  <circle cx="9" cy="5" r="1" fill="srgba(67.7852%,83.2258%,89.9992%,1)"/>
  <circle cx="10" cy="5" r="1" fill="srgba(40.8331%,81.973%,100%,1)"/>
  <circle cx="11" cy="5" r="1" fill="srgba(39.5422%,81.1566%,100%,1)"/>
  <circle cx="12" cy="5" r="1" fill="srgba(101,207,255,1)"/>
  <circle cx="13" cy="5" r="1" fill="srgba(101,207,255,1)"/>
  <circle cx="14" cy="5" r="1" fill="srgba(101,207,255,1)"/>
  <circle cx="15" cy="5" r="1" fill="srgba(101,207,255,1)"/>
  <circle cx="0" cy="6" r="1" fill="srgba(101,207,255,1)"/>
  <circle cx="1" cy="6" r="1" fill="srgba(101,207,255,1)"/>
  <circle cx="2" cy="6" r="1" fill="srgba(101,207,255,1)"/>
  <circle cx="3" cy="6" r="1" fill="srgba(101,207,255,1)"/>
  <circle cx="4" cy="6" r="1" fill="srgba(101,207,255,1)"/>
  <circle cx="5" cy="6" r="1" fill="srgba(39.2874%,81.0727%,100%,1)"/>
  <circle cx="6" cy="6" r="1" fill="srgba(45.8244%,84.1703%,100%,1)"/>
  <circle cx="7" cy="6" r="1" fill="srgba(52.784%,61.088%,64.5823%,1)"/>
  <circle cx="8" cy="6" r="1" fill="srgba(4.60517%,3.83459%,3.50805%,1)"/>
  <circle cx="9" cy="6" r="1" fill="srgba(58.2422%,62.385%,64.0986%,1)"/>
  <circle cx="10" cy="6" r="1" fill="srgba(51.2352%,85.8213%,100%,1)"/>
  <circle cx="11" cy="6" r="1" fill="srgba(38.9731%,80.9751%,100%,1)"/>
  <circle cx="12" cy="6" r="1" fill="srgba(101,207,255,1)"/>
  <circle cx="13" cy="6" r="1" fill="srgba(101,207,255,1)"/>
  <circle cx="14" cy="6" r="1" fill="srgba(101,207,255,1)"/>
  <circle cx="15" cy="6" r="1" fill="srgba(101,207,255,1)"/>
  <circle cx="0" cy="7" r="1" fill="srgba(101,207,255,1)"/>
  <circle cx="1" cy="7" r="1" fill="srgba(101,207,255,1)"/>
  <circle cx="2" cy="7" r="1" fill="srgba(101,207,255,1)"/>
  <circle cx="3" cy="7" r="1" fill="srgba(101,207,255,1)"/>
  <circle cx="4" cy="7" r="1" fill="srgba(39.6124%,81.178%,100%,1)"/>
  <circle cx="5" cy="7" r="1" fill="srgba(38.88%,81.088%,100%,1)"/>
  <circle cx="6" cy="7" r="1" fill="srgba(56.4965%,84.593%,97.0596%,1)"/>
  <circle cx="7" cy="7" r="1" fill="srgba(30.8156%,31.6228%,31.3954%,1)"/>
  <circle cx="8" cy="7" r="1" fill="black"/>
  <circle cx="9" cy="7" r="1" fill="srgba(30.7912%,30.4997%,30.3502%,1)"/>
  <circle cx="10" cy="7" r="1" fill="srgba(65.4093%,87.0481%,96.6445%,1)"/>
  <circle cx="11" cy="7" r="1" fill="srgba(39.1897%,81.2055%,100%,1)"/>
  <circle cx="12" cy="7" r="1" fill="srgba(39.6033%,81.1749%,100%,1)"/>
  <circle cx="13" cy="7" r="1" fill="srgba(101,207,255,1)"/>
  <circle cx="14" cy="7" r="1" fill="srgba(101,207,255,1)"/>
  <circle cx="15" cy="7" r="1" fill="srgba(101,207,255,1)"/>
  <circle cx="0" cy="8" r="1" fill="srgba(101,207,255,1)"/>
  <circle cx="1" cy="8" r="1" fill="srgba(101,207,255,1)"/>
  <circle cx="2" cy="8" r="1" fill="srgba(101,207,255,1)"/>
  <circle cx="3" cy="8" r="1" fill="srgba(101,207,255,1)"/>
  <circle cx="4" cy="8" r="1" fill="srgba(39.5148%,81.146%,100%,1)"/>
  <circle cx="5" cy="8" r="1" fill="srgba(41.9409%,82.7588%,100%,1)"/>
  <circle cx="6" cy="8" r="1" fill="srgba(57.6928%,71.9554%,78.5855%,1)"/>
  <circle cx="7" cy="8" r="1" fill="srgba(19.4995%,16.7117%,7.37926%,1)"/>
  <circle cx="8" cy="8" r="1" fill="srgba(30.2678%,24.2832%,0%,1)"/>
  <circle cx="9" cy="8" r="1" fill="srgba(8.14069%,7.48608%,6.598%,1)"/>
  <circle cx="10" cy="8" r="1" fill="srgba(65.2415%,73.4813%,77.0626%,1)"/>
  <circle cx="11" cy="8" r="1" fill="srgba(45.6489%,83.946%,100%,1)"/>
  <circle cx="12" cy="8" r="1" fill="srgba(39.2874%,81.0742%,100%,1)"/>
  <circle cx="13" cy="8" r="1" fill="srgba(101,207,255,1)"/>
  <circle cx="14" cy="8" r="1" fill="srgba(101,207,255,1)"/>
  <circle cx="15" cy="8" r="1" fill="srgba(101,207,255,1)"/>
  <circle cx="0" cy="9" r="1" fill="srgba(101,207,255,1)"/>
  <circle cx="1" cy="9" r="1" fill="srgba(101,207,255,1)"/>
  <circle cx="2" cy="9" r="1" fill="srgba(101,207,255,1)"/>
  <circle cx="3" cy="9" r="1" fill="srgba(39.6094%,81.1765%,100%,1)"/>
  <circle cx="4" cy="9" r="1" fill="srgba(38.9487%,80.9903%,100%,1)"/>
  <circle cx="5" cy="9" r="1" fill="srgba(51.4473%,85.2399%,100%,1)"/>
  <circle cx="6" cy="9" r="1" fill="srgba(40.4959%,44.2847%,46.7048%,1)"/>
  <circle cx="7" cy="9" r="1" fill="srgba(24.2405%,19.3866%,0%,1)"/>
  <circle cx="8" cy="9" r="1" fill="srgba(84.9012%,68.9891%,0%,1)"/>
  <circle cx="9" cy="9" r="1" fill="srgba(28.0461%,22.3819%,0%,1)"/>
  <circle cx="10" cy="9" r="1" fill="srgba(42.1592%,43.1662%,44.2023%,1)"/>
  <circle cx="11" cy="9" r="1" fill="srgba(59.7925%,87.541%,99.9466%,1)"/>
  <circle cx="12" cy="9" r="1" fill="srgba(38.7274%,80.9354%,100%,1)"/>
  <circle cx="13" cy="9" r="1" fill="srgba(39.6124%,81.178%,100%,1)"/>
  <circle cx="14" cy="9" r="1" fill="srgba(101,207,255,1)"/>
  <circle cx="15" cy="9" r="1" fill="srgba(101,207,255,1)"/>
  <circle cx="0" cy="10" r="1" fill="srgba(101,207,255,1)"/>
  <circle cx="1" cy="10" r="1" fill="srgba(101,207,255,1)"/>
  <circle cx="2" cy="10" r="1" fill="srgba(101,207,255,1)"/>
  <circle cx="3" cy="10" r="1" fill="srgba(39.6002%,81.1734%,100%,1)"/>
  <circle cx="4" cy="10" r="1" fill="srgba(39.7559%,81.7014%,100%,1)"/>
  <circle cx="5" cy="10" r="1" fill="srgba(58.4863%,79.4644%,89.2653%,1)"/>
  <circle cx="6" cy="10" r="1" fill="srgba(27.0176%,24.6998%,16.556%,1)"/>
  <circle cx="7" cy="10" r="1" fill="srgba(73.6599%,59.3439%,0%,1)"/>
  <circle cx="8" cy="10" r="1" fill="srgba(100%,82.3728%,0%,1)"/>
  <circle cx="9" cy="10" r="1" fill="srgba(82.7604%,67.0176%,0%,1)"/>
  <circle cx="10" cy="10" r="1" fill="srgba(33.0602%,28.9418%,14.4671%,1)"/>
  <circle cx="11" cy="10" r="1" fill="srgba(66.7201%,80.4837%,87.3487%,1)"/>
  <circle cx="12" cy="10" r="1" fill="srgba(41.7655%,82.4063%,100%,1)"/>
  <circle cx="13" cy="10" r="1" fill="srgba(39.501%,81.1429%,100%,1)"/>
  <circle cx="14" cy="10" r="1" fill="srgba(101,207,255,1)"/>
  <circle cx="15" cy="10" r="1" fill="srgba(101,207,255,1)"/>
  <circle cx="0" cy="11" r="1" fill="srgba(101,207,255,1)"/>
  <circle cx="1" cy="11" r="1" fill="srgba(101,207,255,1)"/>
  <circle cx="2" cy="11" r="1" fill="srgba(101,207,255,1)"/>
  <circle cx="3" cy="11" r="1" fill="srgba(39.266%,81.0697%,100%,1)"/>
  <circle cx="4" cy="11" r="1" fill="srgba(45.8137%,83.9292%,100%,1)"/>
  <circle cx="5" cy="11" r="1" fill="srgba(55.1247%,62.1775%,62.4231%,1)"/>
  <circle cx="6" cy="11" r="1" fill="srgba(63.4577%,51.2291%,1.24666%,1)"/>
  <circle cx="7" cy="11" r="1" fill="srgba(100%,81.2711%,0%,1)"/>
  <circle cx="8" cy="11" r="1" fill="srgba(100%,80.8316%,0%,1)"/>
  <circle cx="9" cy="11" r="1" fill="srgba(100%,81.7365%,0%,1)"/>
  <circle cx="10" cy="11" r="1" fill="srgba(74.3587%,60.1831%,0.52491%,1)"/>
  <circle cx="11" cy="11" r="1" fill="srgba(64.0238%,65.2811%,58.6542%,1)"/>
  <circle cx="12" cy="11" r="1" fill="srgba(52.5078%,85.7923%,100%,1)"/>
  <circle cx="13" cy="11" r="1" fill="srgba(38.8861%,80.9537%,100%,1)"/>
  <circle cx="14" cy="11" r="1" fill="srgba(39.6094%,81.1765%,100%,1)"/>
  <circle cx="15" cy="11" r="1" fill="srgba(101,207,255,1)"/>
  <circle cx="0" cy="12" r="1" fill="srgba(101,207,255,1)"/>
  <circle cx="1" cy="12" r="1" fill="srgba(101,207,255,1)"/>
  <circle cx="2" cy="12" r="1" fill="srgba(39.6124%,81.178%,100%,1)"/>
  <circle cx="3" cy="12" r="1" fill="srgba(38.8098%,81.0529%,100%,1)"/>
  <circle cx="4" cy="12" r="1" fill="srgba(57.3907%,84.7883%,96.2295%,1)"/>
  <circle cx="5" cy="12" r="1" fill="srgba(75.5016%,67.1427%,29.1493%,1)"/>
  <circle cx="6" cy="12" r="1" fill="srgba(96.6796%,78.2895%,0%,1)"/>
  <circle cx="7" cy="12" r="1" fill="srgba(100%,80.9903%,0%,1)"/>
  <circle cx="8" cy="12" r="1" fill="srgba(100%,80.7813%,0%,1)"/>
  <circle cx="9" cy="12" r="1" fill="srgba(100%,80.8453%,0%,1)"/>
  <circle cx="10" cy="12" r="1" fill="srgba(98.7411%,80.0107%,0%,1)"/>
  <circle cx="11" cy="12" r="1" fill="srgba(86.9337%,74.7539%,24.6509%,1)"/>
  <circle cx="12" cy="12" r="1" fill="srgba(69.5659%,88.5191%,93.4371%,1)"/>
  <circle cx="13" cy="12" r="1" fill="srgba(39.3271%,81.239%,100%,1)"/>
  <circle cx="14" cy="12" r="1" fill="srgba(39.5926%,81.1704%,100%,1)"/>
  <circle cx="15" cy="12" r="1" fill="srgba(101,207,255,1)"/>
  <circle cx="0" cy="13" r="1" fill="srgba(101,207,255,1)"/>
  <circle cx="1" cy="13" r="1" fill="srgba(101,207,255,1)"/>
  <circle cx="2" cy="13" r="1" fill="srgba(39.4949%,81.1475%,100%,1)"/>
  <circle cx="3" cy="13" r="1" fill="srgba(40.8606%,81.8021%,100%,1)"/>
  <circle cx="4" cy="13" r="1" fill="srgba(79.2462%,86.4561%,65.2003%,1)"/>
  <circle cx="5" cy="13" r="1" fill="srgba(98.996%,80.8133%,4.55787%,1)"/>
  <circle cx="6" cy="13" r="1" fill="srgba(100%,80.9293%,0%,1)"/>
  <circle cx="7" cy="13" r="1" fill="srgba(100%,80.7874%,0%,1)"/>
  <circle cx="8" cy="13" r="1" fill="srgba(100%,80.882%,0%,1)"/>
  <circle cx="9" cy="13" r="1" fill="srgba(100%,81.0758%,0%,1)"/>
  <circle cx="10" cy="13" r="1" fill="srgba(100%,81.1215%,0%,1)"/>
  <circle cx="11" cy="13" r="1" fill="srgba(100%,81.3519%,1.31685%,1)"/>
  <circle cx="12" cy="13" r="1" fill="srgba(90.2296%,87.274%,49.192%,1)"/>
  <circle cx="13" cy="13" r="1" fill="srgba(46.4454%,82.9389%,98.0316%,1)"/>
  <circle cx="14" cy="13" r="1" fill="srgba(39.1913%,81.0788%,100%,1)"/>
  <circle cx="15" cy="13" r="1" fill="srgba(101,207,255,1)"/>
  <circle cx="0" cy="14" r="1" fill="srgba(101,207,255,1)"/>
  <circle cx="1" cy="14" r="1" fill="srgba(39.6109%,81.1765%,100%,1)"/>
  <circle cx="2" cy="14" r="1" fill="srgba(38.9364%,81.1414%,100%,1)"/>
  <circle cx="3" cy="14" r="1" fill="srgba(54.7127%,81.6938%,77.7722%,1)"/>
  <circle cx="4" cy="14" r="1" fill="srgba(95.6405%,82.3911%,13.0312%,1)"/>
  <circle cx="5" cy="14" r="1" fill="srgba(100%,81.5198%,0%,1)"/>
  <circle cx="6" cy="14" r="1" fill="srgba(100%,81.416%,0%,1)"/>
  <circle cx="7" cy="14" r="1" fill="srgba(99.4553%,80.4242%,0%,1)"/>
  <circle cx="8" cy="14" r="1" fill="srgba(96.7376%,77.9065%,0%,1)"/>
  <circle cx="9" cy="14" r="1" fill="srgba(93.8216%,75.5825%,0.540169%,1)"/>
  <circle cx="10" cy="14" r="1" fill="srgba(92.7825%,76.4462%,6.57969%,1)"/>
  <circle cx="11" cy="14" r="1" fill="srgba(93.0022%,81.3031%,19.3393%,1)"/>
  <circle cx="12" cy="14" r="1" fill="srgba(84.4434%,83.2303%,37.7859%,1)"/>
  <circle cx="13" cy="14" r="1" fill="srgba(50.7866%,82.3331%,87.895%,1)"/>
  <circle cx="14" cy="14" r="1" fill="srgba(39.0005%,81.1185%,100%,1)"/>
  <circle cx="15" cy="14" r="1" fill="srgba(101,207,255,1)"/>
  <circle cx="0" cy="15" r="1" fill="srgba(101,207,255,1)"/>
  <circle cx="1" cy="15" r="1" fill="srgba(39.3011%,81.178%,100%,1)"/>
  <circle cx="2" cy="15" r="1" fill="srgba(44.5289%,81.2299%,92.0165%,1)"/>
  <circle cx="3" cy="15" r="1" fill="srgba(82.7451%,79.8856%,27.5227%,1)"/>
  <circle cx="4" cy="15" r="1" fill="srgba(88.5954%,71.0048%,0%,1)"/>
  <circle cx="5" cy="15" r="1" fill="srgba(75.3552%,60.8774%,0%,1)"/>
  <circle cx="6" cy="15" r="1" fill="srgba(61.6129%,49.7398%,0%,1)"/>
  <circle cx="7" cy="15" r="1" fill="srgba(51.3176%,42.0478%,3.38293%,1)"/>
  <circle cx="8" cy="15" r="1" fill="srgba(54.4106%,49.8573%,22.8946%,1)"/>
  <circle cx="9" cy="15" r="1" fill="srgba(56.8475%,63.5096%,50.0542%,1)"/>
  <circle cx="10" cy="15" r="1" fill="srgba(55.8053%,75.7702%,75.201%,1)"/>
  <circle cx="11" cy="15" r="1" fill="srgba(50.7637%,82.2446%,91.9997%,1)"/>
  <circle cx="12" cy="15" r="1" fill="srgba(43.1174%,81.9409%,98.0911%,1)"/>
  <circle cx="13" cy="15" r="1" fill="srgba(39.8428%,81.1612%,99.5438%,1)"/>
  <circle cx="14" cy="15" r="1" fill="srgba(39.5941%,81.1765%,100%,1)"/>
  <circle cx="15" cy="15" r="1" fill="srgba(101,207,255,1)"/>
</svg>
