<?xml version="1.0" standalone="no"?>
<!DOCTYPE svg PUBLIC "-//W3C//DTD SVG 20010904//EN"
  "http://www.w3.org/TR/2001/REC-SVG-20010904/DTD/svg10.dtd">
<svg width="16" height="16">
  <circle cx="0" cy="0" r="1" fill="srgba(0,43,127,1)"/>
  <circle cx="1" cy="0" r="1" fill="srgba(0,43,127,1)"/>
  <circle cx="2" cy="0" r="1" fill="srgba(0%,16.8658%,49.7978%,1)"/>
  <circle cx="3" cy="0" r="1" fill="srgba(0%,16.8048%,49.9092%,1)"/>
  <circle cx="4" cy="0" r="1" fill="srgba(0%,16.7224%,50.0374%,1)"/>
  <circle cx="5" cy="0" r="1" fill="srgba(0%,16.8627%,49.8085%,1)"/>
  <circle cx="6" cy="0" r="1" fill="srgba(0,43,127,1)"/>
  <circle cx="7" cy="0" r="1" fill="srgba(0,43,127,1)"/>
  <circle cx="8" cy="0" r="1" fill="srgba(0,43,127,1)"/>
  <circle cx="9" cy="0" r="1" fill="srgba(0,43,127,1)"/>
  <circle cx="10" cy="0" r="1" fill="srgba(0,43,127,1)"/>
  <circle cx="11" cy="0" r="1" fill="srgba(0,43,127,1)"/>
  <circle cx="12" cy="0" r="1" fill="srgba(0,43,127,1)"/>
  <circle cx="13" cy="0" r="1" fill="srgba(0,43,127,1)"/>
  <circle cx="14" cy="0" r="1" fill="srgba(0,43,127,1)"/>
  <circle cx="15" cy="0" r="1" fill="srgba(0,43,127,1)"/>
  <circle cx="0" cy="1" r="1" fill="srgba(0%,16.8673%,49.7963%,1)"/>
  <circle cx="1" cy="1" r="1" fill="srgba(0%,16.791%,49.9214%,1)"/>
  <circle cx="2" cy="1" r="1" fill="srgba(0%,16.3577%,50.4967%,1)"/>
  <circle cx="3" cy="1" r="1" fill="srgba(2.47807%,17.6501%,47.8492%,1)"/>
  <circle cx="4" cy="1" r="1" fill="srgba(6.18601%,19.4903%,44.2115%,1)"/>
  <circle cx="5" cy="1" r="1" fill="srgba(0%,16.3485%,50.4326%,1)"/>
  <circle cx="6" cy="1" r="1" fill="srgba(0%,16.6201%,50.1427%,1)"/>
  <circle cx="7" cy="1" r="1" fill="srgba(0%,16.8673%,49.8039%,1)"/>
  <circle cx="8" cy="1" r="1" fill="srgba(0,43,127,1)"/>
  <circle cx="9" cy="1" r="1" fill="srgba(0,43,127,1)"/>
  <circle cx="10" cy="1" r="1" fill="srgba(0,43,127,1)"/>
  <circle cx="11" cy="1" r="1" fill="srgba(0,43,127,1)"/>
  <circle cx="12" cy="1" r="1" fill="srgba(0,43,127,1)"/>
  <circle cx="13" cy="1" r="1" fill="srgba(0,43,127,1)"/>
  <circle cx="14" cy="1" r="1" fill="srgba(0,43,127,1)"/>
  <circle cx="15" cy="1" r="1" fill="srgba(0,43,127,1)"/>
  <circle cx="0" cy="2" r="1" fill="srgba(0%,16.7834%,49.9351%,1)"/>
  <circle cx="1" cy="2" r="1" fill="srgba(2.36057%,17.9934%,47.8416%,1)"/>
  <circle cx="2" cy="2" r="1" fill="srgba(14.7906%,24.5487%,39.0509%,1)"/>
  <circle cx="3" cy="2" r="1" fill="srgba(18.9685%,26.4103%,35.0896%,1)"/>
  <circle cx="4" cy="2" r="1" fill="srgba(26.482%,30.7134%,30.8019%,1)"/>
  <circle cx="5" cy="2" r="1" fill="srgba(16.1257%,25.1545%,37.8027%,1)"/>
  <circle cx="6" cy="2" r="1" fill="srgba(8.25513%,21.0773%,43.6072%,1)"/>
  <circle cx="7" cy="2" r="1" fill="srgba(0%,16.7926%,49.897%,1)"/>
  <circle cx="8" cy="2" r="1" fill="srgba(0%,16.878%,49.8589%,1)"/>
  <circle cx="9" cy="2" r="1" fill="srgba(0%,16.8795%,49.8528%,1)"/>
  <circle cx="10" cy="2" r="1" fill="srgba(0%,16.8795%,49.8528%,1)"/>
  <circle cx="11" cy="2" r="1" fill="srgba(0%,16.8811%,49.8558%,1)"/>
  <circle cx="12" cy="2" r="1" fill="srgba(0%,16.8811%,49.8589%,1)"/>
  <circle cx="13" cy="2" r="1" fill="srgba(0%,16.8826%,49.8604%,1)"/>
  <circle cx="14" cy="2" r="1" fill="srgba(0%,16.8826%,49.8634%,1)"/>
  <circle cx="15" cy="2" r="1" fill="srgba(0%,16.8841%,49.865%,1)"/>
  <circle cx="0" cy="3" r="1" fill="srgba(0%,16.3119%,50.425%,1)"/>
  <circle cx="1" cy="3" r="1" fill="srgba(17.5616%,26.1357%,37.4609%,1)"/>
  <circle cx="2" cy="3" r="1" fill="srgba(60.6607%,51.9982%,16.3653%,1)"/>
  <circle cx="3" cy="3" r="1" fill="srgba(53.0449%,45.362%,13.9742%,1)"/>
  <circle cx="4" cy="3" r="1" fill="srgba(48.5557%,41.648%,13.1441%,1)"/>
  <circle cx="5" cy="3" r="1" fill="srgba(61.4115%,52.1447%,15.053%,1)"/>
  <circle cx="6" cy="3" r="1" fill="srgba(40.9964%,39.6445%,24.3366%,1)"/>
  <circle cx="7" cy="3" r="1" fill="srgba(1.30922%,17.1679%,47.747%,1)"/>
  <circle cx="8" cy="3" r="1" fill="srgba(0%,16.6033%,49.276%,1)"/>
  <circle cx="9" cy="3" r="1" fill="srgba(0%,16.5637%,48.9235%,1)"/>
  <circle cx="10" cy="3" r="1" fill="srgba(0%,16.5408%,48.8563%,1)"/>
  <circle cx="11" cy="3" r="1" fill="srgba(0%,16.5194%,48.7938%,1)"/>
  <circle cx="12" cy="3" r="1" fill="srgba(0%,16.4965%,48.7297%,1)"/>
  <circle cx="13" cy="3" r="1" fill="srgba(0%,16.4767%,48.6702%,1)"/>
  <circle cx="14" cy="3" r="1" fill="srgba(0%,16.4569%,48.6107%,1)"/>
  <circle cx="15" cy="3" r="1" fill="srgba(0%,16.4385%,48.5573%,1)"/>
  <circle cx="0" cy="4" r="1" fill="srgba(0%,15.9365%,50.3746%,1)"/>
  <circle cx="1" cy="4" r="1" fill="srgba(24.8463%,31.7678%,37.6074%,1)"/>
  <circle cx="2" cy="4" r="1" fill="srgba(79.5499%,67.3762%,19.0219%,1)"/>
  <circle cx="3" cy="4" r="1" fill="srgba(79.5605%,67.2877%,18.7198%,1)"/>
  <circle cx="4" cy="4" r="1" fill="srgba(64.0253%,54.1558%,15.0729%,1)"/>
  <circle cx="5" cy="4" r="1" fill="srgba(27.6463%,23.2364%,6.07156%,1)"/>
  <circle cx="6" cy="4" r="1" fill="srgba(15.3048%,14.2382%,7.42199%,1)"/>
  <circle cx="7" cy="4" r="1" fill="srgba(0.602731%,6.03189%,16.4584%,1)"/>
  <circle cx="8" cy="4" r="1" fill="srgba(0%,5.75418%,17.116%,1)"/>
  <circle cx="9" cy="4" r="1" fill="srgba(0%,11.6243%,34.342%,1)"/>
  <circle cx="10" cy="4" r="1" fill="srgba(0%,15.8404%,46.8009%,1)"/>
  <circle cx="11" cy="4" r="1" fill="srgba(0%,15.5734%,46.0075%,1)"/>
  <circle cx="12" cy="4" r="1" fill="srgba(0%,15.4635%,45.6886%,1)"/>
  <circle cx="13" cy="4" r="1" fill="srgba(0%,15.3552%,45.362%,1)"/>
  <circle cx="14" cy="4" r="1" fill="srgba(0%,15.2407%,45.0278%,1)"/>
  <circle cx="15" cy="4" r="1" fill="srgba(0%,15.1415%,44.7349%,1)"/>
  <circle cx="0" cy="5" r="1" fill="srgba(0%,16.408%,50.0725%,1)"/>
  <circle cx="1" cy="5" r="1" fill="srgba(10.2434%,23.3738%,45.8518%,1)"/>
  <circle cx="2" cy="5" r="1" fill="srgba(56.8826%,51.8029%,24.2924%,1)"/>
  <circle cx="3" cy="5" r="1" fill="srgba(57.763%,49.7795%,16.3302%,1)"/>
  <circle cx="4" cy="5" r="1" fill="srgba(55.1934%,47.5532%,15.52%,1)"/>
  <circle cx="5" cy="5" r="1" fill="srgba(21.9409%,19.6521%,9.09133%,1)"/>
  <circle cx="6" cy="5" r="1" fill="srgba(0%,0%,1.561%,1)"/>
  <circle cx="7" cy="5" r="1" fill="black"/>
  <circle cx="8" cy="5" r="1" fill="srgba(0%,0.163272%,0.483711%,1)"/>
  <circle cx="9" cy="5" r="1" fill="srgba(0%,11.2459%,33.2174%,1)"/>
  <circle cx="10" cy="5" r="1" fill="srgba(0%,17.174%,50.7225%,1)"/>
  <circle cx="11" cy="5" r="1" fill="srgba(0%,16.8872%,49.8772%,1)"/>
  <circle cx="12" cy="5" r="1" fill="srgba(0%,16.8887%,49.8787%,1)"/>
  <circle cx="13" cy="5" r="1" fill="srgba(0%,16.8887%,49.8787%,1)"/>
  <circle cx="14" cy="5" r="1" fill="srgba(0%,16.8887%,49.8787%,1)"/>
  <circle cx="15" cy="5" r="1" fill="srgba(0%,16.8887%,49.8787%,1)"/>
  <circle cx="0" cy="6" r="1" fill="srgba(0%,16.9512%,50.0862%,1)"/>
  <circle cx="1" cy="6" r="1" fill="srgba(0.0854505%,16.8505%,50.0282%,1)"/>
  <circle cx="2" cy="6" r="1" fill="srgba(0.291447%,15.3338%,44.889%,1)"/>
  <circle cx="3" cy="6" r="1" fill="srgba(0%,12.7291%,39.0936%,1)"/>
  <circle cx="4" cy="6" r="1" fill="srgba(0.0396735%,12.2911%,37.1496%,1)"/>
  <circle cx="5" cy="6" r="1" fill="srgba(0.340276%,14.6914%,41.9257%,1)"/>
  <circle cx="6" cy="6" r="1" fill="srgba(0.0198367%,9.86954%,29.0944%,1)"/>
  <circle cx="7" cy="6" r="1" fill="srgba(0%,1.13069%,3.36309%,1)"/>
  <circle cx="8" cy="6" r="1" fill="srgba(0%,0.177005%,0.521859%,1)"/>
  <circle cx="9" cy="6" r="1" fill="srgba(0%,11.6258%,34.3633%,1)"/>
  <circle cx="10" cy="6" r="1" fill="srgba(0%,17.2274%,50.9194%,1)"/>
  <circle cx="11" cy="6" r="1" fill="srgba(0%,16.9421%,50.0771%,1)"/>
  <circle cx="12" cy="6" r="1" fill="srgba(0%,16.9421%,50.0771%,1)"/>
  <circle cx="13" cy="6" r="1" fill="srgba(0%,16.9421%,50.0771%,1)"/>
  <circle cx="14" cy="6" r="1" fill="srgba(0%,16.9421%,50.0771%,1)"/>
  <circle cx="15" cy="6" r="1" fill="srgba(0%,16.9421%,50.0771%,1)"/>
  <circle cx="0" cy="7" r="1" fill="srgba(9.74441%,15.6329%,45.5924%,1)"/>
  <circle cx="1" cy="7" r="1" fill="srgba(9.73678%,15.6298%,45.6016%,1)"/>
  <circle cx="2" cy="7" r="1" fill="srgba(9.70474%,15.7198%,45.9495%,1)"/>
  <circle cx="3" cy="7" r="1" fill="srgba(9.63912%,15.6725%,45.7404%,1)"/>
  <circle cx="4" cy="7" r="1" fill="srgba(9.31868%,15.1553%,44.2329%,1)"/>
  <circle cx="5" cy="7" r="1" fill="srgba(9.73373%,15.8404%,46.2379%,1)"/>
  <circle cx="6" cy="7" r="1" fill="srgba(9.74899%,15.6191%,45.5558%,1)"/>
  <circle cx="7" cy="7" r="1" fill="srgba(9.68795%,9.22866%,26.685%,1)"/>
  <circle cx="8" cy="7" r="1" fill="srgba(3.84985%,1.07576%,2.94652%,1)"/>
  <circle cx="9" cy="7" r="1" fill="srgba(6.63767%,10.7805%,31.4443%,1)"/>
  <circle cx="10" cy="7" r="1" fill="srgba(9.90616%,15.8938%,46.3539%,1)"/>
  <circle cx="11" cy="7" r="1" fill="srgba(9.74441%,15.6329%,45.594%,1)"/>
  <circle cx="12" cy="7" r="1" fill="srgba(9.74441%,15.6329%,45.594%,1)"/>
  <circle cx="13" cy="7" r="1" fill="srgba(9.74441%,15.6329%,45.594%,1)"/>
  <circle cx="14" cy="7" r="1" fill="srgba(9.74441%,15.6329%,45.594%,1)"/>
  <circle cx="15" cy="7" r="1" fill="srgba(9.74441%,15.6329%,45.594%,1)"/>
  <circle cx="0" cy="8" r="1" fill="srgba(71.0399%,7.89654%,19.1119%,1)"/>
  <circle cx="1" cy="8" r="1" fill="srgba(71.0399%,7.89654%,19.1119%,1)"/>
  <circle cx="2" cy="8" r="1" fill="srgba(71.0674%,7.8996%,19.1196%,1)"/>
  <circle cx="3" cy="8" r="1" fill="srgba(70.4128%,7.82483%,18.938%,1)"/>
  <circle cx="4" cy="8" r="1" fill="srgba(68.159%,7.57153%,18.323%,1)"/>
  <circle cx="5" cy="8" r="1" fill="srgba(71.0933%,7.90112%,19.1211%,1)"/>
  <circle cx="6" cy="8" r="1" fill="srgba(71.0491%,7.93317%,19.2187%,1)"/>
  <circle cx="7" cy="8" r="1" fill="srgba(71.4763%,7.86297%,18.9868%,1)"/>
  <circle cx="8" cy="8" r="1" fill="srgba(51.6945%,4.63111%,10.6126%,1)"/>
  <circle cx="9" cy="8" r="1" fill="srgba(55.3109%,5.96017%,14.3252%,1)"/>
  <circle cx="10" cy="8" r="1" fill="srgba(71.8456%,7.99725%,19.3606%,1)"/>
  <circle cx="11" cy="8" r="1" fill="srgba(71.0399%,7.89654%,19.1119%,1)"/>
  <circle cx="12" cy="8" r="1" fill="srgba(71.0399%,7.89654%,19.1119%,1)"/>
  <circle cx="13" cy="8" r="1" fill="srgba(71.0399%,7.89654%,19.1119%,1)"/>
  <circle cx="14" cy="8" r="1" fill="srgba(71.0399%,7.89654%,19.1119%,1)"/>
  <circle cx="15" cy="8" r="1" fill="srgba(71.0399%,7.89654%,19.1119%,1)"/>
  <circle cx="0" cy="9" r="1" fill="srgba(81.416%,6.58732%,14.6288%,1)"/>
  <circle cx="1" cy="9" r="1" fill="srgba(81.416%,6.58732%,14.6288%,1)"/>
  <circle cx="2" cy="9" r="1" fill="srgba(81.4496%,6.59037%,14.6349%,1)"/>
  <circle cx="3" cy="9" r="1" fill="srgba(80.6699%,6.52628%,14.4945%,1)"/>
  <circle cx="4" cy="9" r="1" fill="srgba(77.4929%,6.26841%,13.9223%,1)"/>
  <circle cx="5" cy="9" r="1" fill="srgba(80.7279%,6.53086%,14.5022%,1)"/>
  <circle cx="6" cy="9" r="1" fill="srgba(81.3519%,6.58122%,14.6151%,1)"/>
  <circle cx="7" cy="9" r="1" fill="srgba(81.564%,6.61326%,14.696%,1)"/>
  <circle cx="8" cy="9" r="1" fill="srgba(79.5941%,6.54459%,14.6136%,1)"/>
  <circle cx="9" cy="9" r="1" fill="srgba(76.5118%,6.22416%,13.846%,1)"/>
  <circle cx="10" cy="9" r="1" fill="srgba(81.6022%,6.60105%,14.6563%,1)"/>
  <circle cx="11" cy="9" r="1" fill="srgba(81.416%,6.58732%,14.6288%,1)"/>
  <circle cx="12" cy="9" r="1" fill="srgba(81.416%,6.58732%,14.6288%,1)"/>
  <circle cx="13" cy="9" r="1" fill="srgba(81.416%,6.58732%,14.6288%,1)"/>
  <circle cx="14" cy="9" r="1" fill="srgba(81.416%,6.58732%,14.6288%,1)"/>
  <circle cx="15" cy="9" r="1" fill="srgba(81.416%,6.58732%,14.6288%,1)"/>
  <circle cx="0" cy="10" r="1" fill="srgba(206,17,38,1)"/>
  <circle cx="1" cy="10" r="1" fill="srgba(206,17,38,1)"/>
  <circle cx="2" cy="10" r="1" fill="srgba(80.8301%,6.66972%,14.9111%,1)"/>
  <circle cx="3" cy="10" r="1" fill="srgba(79.884%,6.5919%,14.7356%,1)"/>
  <circle cx="4" cy="10" r="1" fill="srgba(74.9233%,6.18296%,13.8201%,1)"/>
  <circle cx="5" cy="10" r="1" fill="srgba(76.9482%,6.3508%,14.1955%,1)"/>
  <circle cx="6" cy="10" r="1" fill="srgba(80.2472%,6.62242%,14.8028%,1)"/>
  <circle cx="7" cy="10" r="1" fill="srgba(80.8957%,6.67582%,14.9218%,1)"/>
  <circle cx="8" cy="10" r="1" fill="srgba(79.5178%,6.56138%,14.6685%,1)"/>
  <circle cx="9" cy="10" r="1" fill="srgba(77.3861%,6.3859%,14.2748%,1)"/>
  <circle cx="10" cy="10" r="1" fill="srgba(80.9064%,6.67735%,14.9248%,1)"/>
  <circle cx="11" cy="10" r="1" fill="srgba(206,17,38,1)"/>
  <circle cx="12" cy="10" r="1" fill="srgba(206,17,38,1)"/>
  <circle cx="13" cy="10" r="1" fill="srgba(206,17,38,1)"/>
  <circle cx="14" cy="10" r="1" fill="srgba(206,17,38,1)"/>
  <circle cx="15" cy="10" r="1" fill="srgba(206,17,38,1)"/>
  <circle cx="0" cy="11" r="1" fill="srgba(206,17,38,1)"/>
  <circle cx="1" cy="11" r="1" fill="srgba(206,17,38,1)"/>
  <circle cx="2" cy="11" r="1" fill="srgba(80.798%,6.66819%,14.905%,1)"/>
  <circle cx="3" cy="11" r="1" fill="srgba(80.351%,6.63157%,14.8226%,1)"/>
  <circle cx="4" cy="11" r="1" fill="srgba(78.0545%,6.44083%,14.3984%,1)"/>
  <circle cx="5" cy="11" r="1" fill="srgba(80.7401%,6.66361%,14.8943%,1)"/>
  <circle cx="6" cy="11" r="1" fill="srgba(80.7691%,6.66514%,14.8989%,1)"/>
  <circle cx="7" cy="11" r="1" fill="srgba(80.8469%,6.67124%,14.9142%,1)"/>
  <circle cx="8" cy="11" r="1" fill="srgba(79.7665%,6.58274%,14.7143%,1)"/>
  <circle cx="9" cy="11" r="1" fill="srgba(78.1094%,6.44541%,14.4076%,1)"/>
  <circle cx="10" cy="11" r="1" fill="srgba(80.882%,6.6743%,14.9203%,1)"/>
  <circle cx="11" cy="11" r="1" fill="srgba(206,17,38,1)"/>
  <circle cx="12" cy="11" r="1" fill="srgba(206,17,38,1)"/>
  <circle cx="13" cy="11" r="1" fill="srgba(206,17,38,1)"/>
  <circle cx="14" cy="11" r="1" fill="srgba(206,17,38,1)"/>
  <circle cx="15" cy="11" r="1" fill="srgba(206,17,38,1)"/>
  <circle cx="0" cy="12" r="1" fill="srgba(206,17,38,1)"/>
  <circle cx="1" cy="12" r="1" fill="srgba(206,17,38,1)"/>
  <circle cx="2" cy="12" r="1" fill="srgba(80.7965%,6.66819%,14.9035%,1)"/>
  <circle cx="3" cy="12" r="1" fill="srgba(80.3693%,6.6331%,14.8257%,1)"/>
  <circle cx="4" cy="12" r="1" fill="srgba(77.9858%,6.43626%,14.3862%,1)"/>
  <circle cx="5" cy="12" r="1" fill="srgba(80.7523%,6.66361%,14.8959%,1)"/>
  <circle cx="6" cy="12" r="1" fill="srgba(206,17,38,1)"/>
  <circle cx="7" cy="12" r="1" fill="srgba(80.8209%,6.66972%,14.9081%,1)"/>
  <circle cx="8" cy="12" r="1" fill="srgba(80.1862%,6.61784%,14.7921%,1)"/>
  <circle cx="9" cy="12" r="1" fill="srgba(79.2264%,6.53849%,14.6136%,1)"/>
  <circle cx="10" cy="12" r="1" fill="srgba(80.8423%,6.67124%,14.9126%,1)"/>
  <circle cx="11" cy="12" r="1" fill="srgba(206,17,38,1)"/>
  <circle cx="12" cy="12" r="1" fill="srgba(206,17,38,1)"/>
  <circle cx="13" cy="12" r="1" fill="srgba(206,17,38,1)"/>
  <circle cx="14" cy="12" r="1" fill="srgba(206,17,38,1)"/>
  <circle cx="15" cy="12" r="1" fill="srgba(206,17,38,1)"/>
  <circle cx="0" cy="13" r="1" fill="srgba(206,17,38,1)"/>
  <circle cx="1" cy="13" r="1" fill="srgba(206,17,38,1)"/>
  <circle cx="2" cy="13" r="1" fill="srgba(80.7935%,6.66819%,14.9035%,1)"/>
  <circle cx="3" cy="13" r="1" fill="srgba(80.3998%,6.63462%,14.8302%,1)"/>
  <circle cx="4" cy="13" r="1" fill="srgba(77.9706%,6.43473%,14.3832%,1)"/>
  <circle cx="5" cy="13" r="1" fill="srgba(80.7401%,6.66361%,14.8943%,1)"/>
  <circle cx="6" cy="13" r="1" fill="srgba(206,17,38,1)"/>
  <circle cx="7" cy="13" r="1" fill="srgba(80.7889%,6.66667%,14.9035%,1)"/>
  <circle cx="8" cy="13" r="1" fill="srgba(80.7126%,6.66056%,14.8882%,1)"/>
  <circle cx="9" cy="13" r="1" fill="srgba(80.6012%,6.65141%,14.8684%,1)"/>
  <circle cx="10" cy="13" r="1" fill="srgba(80.7919%,6.66667%,14.9035%,1)"/>
  <circle cx="11" cy="13" r="1" fill="srgba(206,17,38,1)"/>
  <circle cx="12" cy="13" r="1" fill="srgba(206,17,38,1)"/>
  <circle cx="13" cy="13" r="1" fill="srgba(206,17,38,1)"/>
  <circle cx="14" cy="13" r="1" fill="srgba(206,17,38,1)"/>
  <circle cx="15" cy="13" r="1" fill="srgba(206,17,38,1)"/>
  <circle cx="0" cy="14" r="1" fill="srgba(206,17,38,1)"/>
  <circle cx="1" cy="14" r="1" fill="srgba(206,17,38,1)"/>
  <circle cx="2" cy="14" r="1" fill="srgba(80.7919%,6.66667%,14.9035%,1)"/>
  <circle cx="3" cy="14" r="1" fill="srgba(80.4181%,6.63615%,14.8348%,1)"/>
  <circle cx="4" cy="14" r="1" fill="srgba(77.9644%,6.4332%,14.3816%,1)"/>
  <circle cx="5" cy="14" r="1" fill="srgba(80.7309%,6.66209%,14.8928%,1)"/>
  <circle cx="6" cy="14" r="1" fill="srgba(206,17,38,1)"/>
  <circle cx="7" cy="14" r="1" fill="srgba(206,17,38,1)"/>
  <circle cx="8" cy="14" r="1" fill="srgba(80.7889%,6.66667%,14.9035%,1)"/>
  <circle cx="9" cy="14" r="1" fill="srgba(80.7965%,6.66819%,14.9035%,1)"/>
  <circle cx="10" cy="14" r="1" fill="srgba(206,17,38,1)"/>
  <circle cx="11" cy="14" r="1" fill="srgba(206,17,38,1)"/>
  <circle cx="12" cy="14" r="1" fill="srgba(206,17,38,1)"/>
  <circle cx="13" cy="14" r="1" fill="srgba(206,17,38,1)"/>
  <circle cx="14" cy="14" r="1" fill="srgba(206,17,38,1)"/>
  <circle cx="15" cy="14" r="1" fill="srgba(206,17,38,1)"/>
  <circle cx="0" cy="15" r="1" fill="srgba(206,17,38,1)"/>
  <circle cx="1" cy="15" r="1" fill="srgba(206,17,38,1)"/>
  <circle cx="2" cy="15" r="1" fill="srgba(80.7919%,6.66667%,14.9035%,1)"/>
  <circle cx="3" cy="15" r="1" fill="srgba(80.4334%,6.63767%,14.8379%,1)"/>
  <circle cx="4" cy="15" r="1" fill="srgba(77.9538%,6.4332%,14.3801%,1)"/>
  <circle cx="5" cy="15" r="1" fill="srgba(80.7233%,6.66209%,14.8913%,1)"/>
  <circle cx="6" cy="15" r="1" fill="srgba(206,17,38,1)"/>
  <circle cx="7" cy="15" r="1" fill="srgba(206,17,38,1)"/>
  <circle cx="8" cy="15" r="1" fill="srgba(206,17,38,1)"/>
  <circle cx="9" cy="15" r="1" fill="srgba(206,17,38,1)"/>
  <circle cx="10" cy="15" r="1" fill="srgba(206,17,38,1)"/>
  <circle cx="11" cy="15" r="1" fill="srgba(206,17,38,1)"/>
  <circle cx="12" cy="15" r="1" fill="srgba(206,17,38,1)"/>
  <circle cx="13" cy="15" r="1" fill="srgba(206,17,38,1)"/>
  <circle cx="14" cy="15" r="1" fill="srgba(206,17,38,1)"/>
  <circle cx="15" cy="15" r="1" fill="srgba(206,17,38,1)"/>
</svg>
