<?xml version="1.0" standalone="no"?>
<!DOCTYPE svg PUBLIC "-//W3C//DTD SVG 20010904//EN"
  "http://www.w3.org/TR/2001/REC-SVG-20010904/DTD/svg10.dtd">
<svg width="16" height="16">
  <circle cx="0" cy="0" r="1" fill="srgba(83.7171%,65.5711%,4.15351%,1)"/>
  <circle cx="1" cy="0" r="1" fill="srgba(59.6201%,56.5927%,10.2983%,1)"/>
  <circle cx="2" cy="0" r="1" fill="srgba(68.0446%,56.5637%,8.14984%,1)"/>
  <circle cx="3" cy="0" r="1" fill="srgba(97.7478%,57.0138%,0.573739%,1)"/>
  <circle cx="4" cy="0" r="1" fill="srgba(100%,58.7366%,0%,1)"/>
  <circle cx="5" cy="0" r="1" fill="srgba(96.4492%,66.0655%,0.621042%,1)"/>
  <circle cx="6" cy="0" r="1" fill="srgba(88.751%,59.5605%,2.65812%,1)"/>
  <circle cx="7" cy="0" r="1" fill="srgba(81.8387%,47.834%,6.44694%,1)"/>
  <circle cx="8" cy="0" r="1" fill="srgba(81.9669%,47.8584%,6.48508%,1)"/>
  <circle cx="9" cy="0" r="1" fill="srgba(81.9654%,47.8614%,6.48203%,1)"/>
  <circle cx="10" cy="0" r="1" fill="srgba(81.9654%,47.8614%,6.48203%,1)"/>
  <circle cx="11" cy="0" r="1" fill="srgba(81.9654%,47.8614%,6.48203%,1)"/>
  <circle cx="12" cy="0" r="1" fill="srgba(81.9654%,47.8614%,6.48203%,1)"/>
  <circle cx="13" cy="0" r="1" fill="srgba(81.7136%,47.5471%,6.55833%,1)"/>
  <circle cx="14" cy="0" r="1" fill="srgba(87.7592%,57.8088%,3.17235%,1)"/>
  <circle cx="15" cy="0" r="1" fill="srgba(96.5194%,68.9006%,0.263981%,1)"/>
  <circle cx="0" cy="1" r="1" fill="srgba(60.1389%,56.6018%,10.1656%,1)"/>
  <circle cx="1" cy="1" r="1" fill="srgba(1.15053%,34.6197%,25.1987%,1)"/>
  <circle cx="2" cy="1" r="1" fill="srgba(21.77%,34.5739%,19.9405%,1)"/>
  <circle cx="3" cy="1" r="1" fill="srgba(94.4869%,35.7839%,1.40536%,1)"/>
  <circle cx="4" cy="1" r="1" fill="srgba(100%,40.2945%,0%,1)"/>
  <circle cx="5" cy="1" r="1" fill="srgba(88.9906%,52.6894%,3.51568%,1)"/>
  <circle cx="6" cy="1" r="1" fill="srgba(65.7221%,29.0333%,10.9438%,1)"/>
  <circle cx="7" cy="1" r="1" fill="srgba(55.8114%,13.4447%,15.7656%,1)"/>
  <circle cx="8" cy="1" r="1" fill="srgba(55.8404%,13.2601%,15.8862%,1)"/>
  <circle cx="9" cy="1" r="1" fill="srgba(55.8389%,13.2677%,15.8816%,1)"/>
  <circle cx="10" cy="1" r="1" fill="srgba(55.8389%,13.2677%,15.8816%,1)"/>
  <circle cx="11" cy="1" r="1" fill="srgba(55.8389%,13.2677%,15.8816%,1)"/>
  <circle cx="12" cy="1" r="1" fill="srgba(55.8389%,13.2677%,15.8816%,1)"/>
  <circle cx="13" cy="1" r="1" fill="srgba(55.5718%,12.9717%,15.9426%,1)"/>
  <circle cx="14" cy="1" r="1" fill="srgba(64.4327%,26.807%,11.5099%,1)"/>
  <circle cx="15" cy="1" r="1" fill="srgba(87.3808%,56.2234%,3.83001%,1)"/>
  <circle cx="0" cy="2" r="1" fill="srgba(59.646%,56.408%,10.2953%,1)"/>
  <circle cx="1" cy="2" r="1" fill="srgba(0%,34.1466%,25.5192%,1)"/>
  <circle cx="2" cy="2" r="1" fill="srgba(20.8072%,34.1009%,20.1953%,1)"/>
  <circle cx="3" cy="2" r="1" fill="srgba(94.4182%,35.3368%,1.42367%,1)"/>
  <circle cx="4" cy="2" r="1" fill="srgba(100%,40.1892%,0%,1)"/>
  <circle cx="5" cy="2" r="1" fill="srgba(85.6077%,47.3762%,5.18654%,1)"/>
  <circle cx="6" cy="2" r="1" fill="srgba(55.436%,13.2052%,15.9533%,1)"/>
  <circle cx="7" cy="2" r="1" fill="srgba(55.2285%,12.4819%,16.0906%,1)"/>
  <circle cx="8" cy="2" r="1" fill="srgba(55.2743%,12.5231%,16.0861%,1)"/>
  <circle cx="9" cy="2" r="1" fill="srgba(55.2743%,12.5231%,16.0861%,1)"/>
  <circle cx="10" cy="2" r="1" fill="srgba(55.2743%,12.5231%,16.0861%,1)"/>
  <circle cx="11" cy="2" r="1" fill="srgba(55.2743%,12.5231%,16.0861%,1)"/>
  <circle cx="12" cy="2" r="1" fill="srgba(55.2743%,12.5231%,16.0861%,1)"/>
  <circle cx="13" cy="2" r="1" fill="srgba(55.2621%,12.5124%,16.0876%,1)"/>
  <circle cx="14" cy="2" r="1" fill="srgba(55.4528%,12.8847%,15.9442%,1)"/>
  <circle cx="15" cy="2" r="1" fill="srgba(81.7166%,47.5227%,6.57664%,1)"/>
  <circle cx="0" cy="3" r="1" fill="srgba(59.6475%,56.4157%,10.2907%,1)"/>
  <circle cx="1" cy="3" r="1" fill="srgba(0%,34.1634%,25.5085%,1)"/>
  <circle cx="2" cy="3" r="1" fill="srgba(20.8072%,34.1176%,20.1862%,1)"/>
  <circle cx="3" cy="3" r="1" fill="srgba(94.4198%,35.3521%,1.42214%,1)"/>
  <circle cx="4" cy="3" r="1" fill="srgba(100%,40.1907%,0%,1)"/>
  <circle cx="5" cy="3" r="1" fill="srgba(85.7588%,47.5944%,5.12398%,1)"/>
  <circle cx="6" cy="3" r="1" fill="srgba(55.8801%,13.6614%,15.8709%,1)"/>
  <circle cx="7" cy="3" r="1" fill="srgba(55.256%,12.4987%,16.0922%,1)"/>
  <circle cx="8" cy="3" r="1" fill="srgba(141,32,41,1)"/>
  <circle cx="9" cy="3" r="1" fill="srgba(141,32,41,1)"/>
  <circle cx="10" cy="3" r="1" fill="srgba(141,32,41,1)"/>
  <circle cx="11" cy="3" r="1" fill="srgba(141,32,41,1)"/>
  <circle cx="12" cy="3" r="1" fill="srgba(141,32,41,1)"/>
  <circle cx="13" cy="3" r="1" fill="srgba(55.2743%,12.5231%,16.0861%,1)"/>
  <circle cx="14" cy="3" r="1" fill="srgba(55.8419%,13.2662%,15.8846%,1)"/>
  <circle cx="15" cy="3" r="1" fill="srgba(81.9654%,47.8614%,6.48203%,1)"/>
  <circle cx="0" cy="4" r="1" fill="srgba(59.6475%,56.4157%,10.2907%,1)"/>
  <circle cx="1" cy="4" r="1" fill="srgba(0%,34.1634%,25.5085%,1)"/>
  <circle cx="2" cy="4" r="1" fill="srgba(20.8072%,34.1176%,20.1862%,1)"/>
  <circle cx="3" cy="4" r="1" fill="srgba(94.4198%,35.3521%,1.42214%,1)"/>
  <circle cx="4" cy="4" r="1" fill="srgba(100%,40.1907%,0%,1)"/>
  <circle cx="5" cy="4" r="1" fill="srgba(85.7588%,47.5944%,5.12398%,1)"/>
  <circle cx="6" cy="4" r="1" fill="srgba(55.877%,13.6614%,15.8694%,1)"/>
  <circle cx="7" cy="4" r="1" fill="srgba(55.256%,12.4987%,16.0922%,1)"/>
  <circle cx="8" cy="4" r="1" fill="srgba(141,32,41,1)"/>
  <circle cx="9" cy="4" r="1" fill="srgba(55.2987%,12.5505%,16.08%,1)"/>
  <circle cx="10" cy="4" r="1" fill="srgba(55.3704%,12.5597%,16.1044%,1)"/>
  <circle cx="11" cy="4" r="1" fill="srgba(55.3719%,12.4605%,16.1639%,1)"/>
  <circle cx="12" cy="4" r="1" fill="srgba(55.3643%,12.4788%,16.1501%,1)"/>
  <circle cx="13" cy="4" r="1" fill="srgba(54.6929%,11.8166%,16.257%,1)"/>
  <circle cx="14" cy="4" r="1" fill="srgba(54.9844%,12.2332%,16.1318%,1)"/>
  <circle cx="15" cy="4" r="1" fill="srgba(81.6495%,47.4723%,6.59342%,1)"/>
  <circle cx="0" cy="5" r="1" fill="srgba(59.6475%,56.4157%,10.2907%,1)"/>
  <circle cx="1" cy="5" r="1" fill="srgba(0%,34.1634%,25.5085%,1)"/>
  <circle cx="2" cy="5" r="1" fill="srgba(20.8072%,34.1176%,20.1862%,1)"/>
  <circle cx="3" cy="5" r="1" fill="srgba(94.4198%,35.3521%,1.42214%,1)"/>
  <circle cx="4" cy="5" r="1" fill="srgba(100%,40.1907%,0%,1)"/>
  <circle cx="5" cy="5" r="1" fill="srgba(85.7588%,47.5944%,5.12398%,1)"/>
  <circle cx="6" cy="5" r="1" fill="srgba(55.877%,13.6614%,15.8694%,1)"/>
  <circle cx="7" cy="5" r="1" fill="srgba(55.2544%,12.5017%,16.0891%,1)"/>
  <circle cx="8" cy="5" r="1" fill="srgba(55.3414%,12.4758%,16.1425%,1)"/>
  <circle cx="9" cy="5" r="1" fill="srgba(55.1888%,12.4025%,16.1196%,1)"/>
  <circle cx="10" cy="5" r="1" fill="srgba(54.1985%,12.4208%,15.6878%,1)"/>
  <circle cx="11" cy="5" r="1" fill="srgba(54.6624%,14.3267%,14.757%,1)"/>
  <circle cx="12" cy="5" r="1" fill="srgba(54.6258%,13.9559%,14.9615%,1)"/>
  <circle cx="13" cy="5" r="1" fill="srgba(65.2125%,29.4881%,10.2571%,1)"/>
  <circle cx="14" cy="5" r="1" fill="srgba(70.6889%,36.4309%,8.47181%,1)"/>
  <circle cx="15" cy="5" r="1" fill="srgba(84.0345%,53.8766%,3.80407%,1)"/>
  <circle cx="0" cy="6" r="1" fill="srgba(59.6475%,56.4157%,10.2907%,1)"/>
  <circle cx="1" cy="6" r="1" fill="srgba(0%,34.1634%,25.5085%,1)"/>
  <circle cx="2" cy="6" r="1" fill="srgba(20.8072%,34.1176%,20.1862%,1)"/>
  <circle cx="3" cy="6" r="1" fill="srgba(94.4198%,35.3521%,1.42214%,1)"/>
  <circle cx="4" cy="6" r="1" fill="srgba(100%,40.1907%,0%,1)"/>
  <circle cx="5" cy="6" r="1" fill="srgba(85.7588%,47.5944%,5.12398%,1)"/>
  <circle cx="6" cy="6" r="1" fill="srgba(55.874%,13.6614%,15.8679%,1)"/>
  <circle cx="7" cy="6" r="1" fill="srgba(55.3201%,12.4468%,16.1501%,1)"/>
  <circle cx="8" cy="6" r="1" fill="srgba(54.6365%,13.5424%,15.2087%,1)"/>
  <circle cx="9" cy="6" r="1" fill="srgba(44.4602%,11.7128%,11.9646%,1)"/>
  <circle cx="10" cy="6" r="1" fill="srgba(19.91%,4.75319%,5.64736%,1)"/>
  <circle cx="11" cy="6" r="1" fill="srgba(27.3732%,14.5632%,3.01213%,1)"/>
  <circle cx="12" cy="6" r="1" fill="srgba(37.0138%,21.2711%,3.13268%,1)"/>
  <circle cx="13" cy="6" r="1" fill="srgba(48.5786%,33.4737%,0.956741%,1)"/>
  <circle cx="14" cy="6" r="1" fill="srgba(50.2754%,36.4538%,0%,1)"/>
  <circle cx="15" cy="6" r="1" fill="srgba(46.2058%,33.2204%,0%,1)"/>
  <circle cx="0" cy="7" r="1" fill="srgba(59.6475%,56.4065%,10.2907%,1)"/>
  <circle cx="1" cy="7" r="1" fill="srgba(0%,34.1619%,25.5085%,1)"/>
  <circle cx="2" cy="7" r="1" fill="srgba(20.8072%,34.1176%,20.1862%,1)"/>
  <circle cx="3" cy="7" r="1" fill="srgba(94.4198%,35.3521%,1.42214%,1)"/>
  <circle cx="4" cy="7" r="1" fill="srgba(100%,40.1907%,0%,1)"/>
  <circle cx="5" cy="7" r="1" fill="srgba(85.7588%,47.5944%,5.12398%,1)"/>
  <circle cx="6" cy="7" r="1" fill="srgba(55.9228%,13.666%,15.8862%,1)"/>
  <circle cx="7" cy="7" r="1" fill="srgba(54.4518%,12.3217%,15.8556%,1)"/>
  <circle cx="8" cy="7" r="1" fill="srgba(56.5148%,19.2554%,12.6238%,1)"/>
  <circle cx="9" cy="7" r="1" fill="srgba(44.4083%,23.2364%,5.11025%,1)"/>
  <circle cx="10" cy="7" r="1" fill="srgba(7.53033%,3.56298%,1.09865%,1)"/>
  <circle cx="11" cy="7" r="1" fill="srgba(13.6049%,9.23476%,0.396735%,1)"/>
  <circle cx="12" cy="7" r="1" fill="srgba(4.11078%,3.32189%,0%,1)"/>
  <circle cx="13" cy="7" r="1" fill="srgba(0.868238%,0.720226%,0%,1)"/>
  <circle cx="14" cy="7" r="1" fill="srgba(1.04829%,0.747692%,0%,1)"/>
  <circle cx="15" cy="7" r="1" fill="srgba(0.450141%,0.323491%,0%,1)"/>
  <circle cx="0" cy="8" r="1" fill="srgba(59.6475%,56.4065%,10.2907%,1)"/>
  <circle cx="1" cy="8" r="1" fill="srgba(0%,34.1619%,25.5085%,1)"/>
  <circle cx="2" cy="8" r="1" fill="srgba(20.8072%,34.1176%,20.1862%,1)"/>
  <circle cx="3" cy="8" r="1" fill="srgba(94.4198%,35.3521%,1.42214%,1)"/>
  <circle cx="4" cy="8" r="1" fill="srgba(100%,40.1907%,0%,1)"/>
  <circle cx="5" cy="8" r="1" fill="srgba(85.7588%,47.5944%,5.12398%,1)"/>
  <circle cx="6" cy="8" r="1" fill="srgba(55.8801%,13.3181%,16.0754%,1)"/>
  <circle cx="7" cy="8" r="1" fill="srgba(54.197%,18.2238%,12.2484%,1)"/>
  <circle cx="8" cy="8" r="1" fill="srgba(77.4166%,51.8471%,2.20798%,1)"/>
  <circle cx="9" cy="8" r="1" fill="srgba(61.384%,43.5615%,0.367742%,1)"/>
  <circle cx="10" cy="8" r="1" fill="srgba(20.0092%,14.1009%,0.158694%,1)"/>
  <circle cx="11" cy="8" r="1" fill="srgba(79.8962%,56.9558%,0.227359%,1)"/>
  <circle cx="12" cy="8" r="1" fill="srgba(57.9126%,41.5808%,0%,1)"/>
  <circle cx="13" cy="8" r="1" fill="srgba(18.1399%,13.0175%,0%,1)"/>
  <circle cx="14" cy="8" r="1" fill="srgba(0.880446%,0.631724%,0%,1)"/>
  <circle cx="15" cy="8" r="1" fill="black"/>
  <circle cx="0" cy="9" r="1" fill="srgba(59.6475%,56.4157%,10.2907%,1)"/>
  <circle cx="1" cy="9" r="1" fill="srgba(0%,34.1634%,25.5085%,1)"/>
  <circle cx="2" cy="9" r="1" fill="srgba(20.8072%,34.1176%,20.1862%,1)"/>
  <circle cx="3" cy="9" r="1" fill="srgba(94.4198%,35.3521%,1.42214%,1)"/>
  <circle cx="4" cy="9" r="1" fill="srgba(100%,40.1907%,0%,1)"/>
  <circle cx="5" cy="9" r="1" fill="srgba(85.7588%,47.5944%,5.12398%,1)"/>
  <circle cx="6" cy="9" r="1" fill="srgba(55.6008%,13.0282%,16.1227%,1)"/>
  <circle cx="7" cy="9" r="1" fill="srgba(59.2035%,23.003%,11.6304%,1)"/>
  <circle cx="8" cy="9" r="1" fill="srgba(87.3411%,62.1378%,0.454719%,1)"/>
  <circle cx="9" cy="9" r="1" fill="srgba(57.7203%,41.3046%,0.0854505%,1)"/>
  <circle cx="10" cy="9" r="1" fill="srgba(6.54612%,4.69673%,0.0030518%,1)"/>
  <circle cx="11" cy="9" r="1" fill="srgba(73.196%,52.8893%,0%,1)"/>
  <circle cx="12" cy="9" r="1" fill="srgba(100%,73.341%,0%,1)"/>
  <circle cx="13" cy="9" r="1" fill="srgba(89.7826%,64.4694%,0%,1)"/>
  <circle cx="14" cy="9" r="1" fill="srgba(54.3343%,38.9914%,0%,1)"/>
  <circle cx="15" cy="9" r="1" fill="srgba(17.734%,12.726%,0%,1)"/>
  <circle cx="0" cy="10" r="1" fill="srgba(59.6475%,56.4157%,10.2907%,1)"/>
  <circle cx="1" cy="10" r="1" fill="srgba(0%,34.1634%,25.5085%,1)"/>
  <circle cx="2" cy="10" r="1" fill="srgba(20.8072%,34.1176%,20.1862%,1)"/>
  <circle cx="3" cy="10" r="1" fill="srgba(94.4198%,35.3521%,1.42214%,1)"/>
  <circle cx="4" cy="10" r="1" fill="srgba(100%,40.1907%,0%,1)"/>
  <circle cx="5" cy="10" r="1" fill="srgba(85.7588%,47.5944%,5.12398%,1)"/>
  <circle cx="6" cy="10" r="1" fill="srgba(55.5383%,12.9976%,16.1196%,1)"/>
  <circle cx="7" cy="10" r="1" fill="srgba(59.9893%,23.2136%,11.7556%,1)"/>
  <circle cx="8" cy="10" r="1" fill="srgba(93.434%,66.3294%,0.459297%,1)"/>
  <circle cx="9" cy="10" r="1" fill="srgba(66.2623%,47.5639%,0.00457771%,1)"/>
  <circle cx="10" cy="10" r="1" fill="srgba(0%,0%,0.00457771%,1)"/>
  <circle cx="11" cy="10" r="1" fill="srgba(34.7982%,25.0294%,0%,1)"/>
  <circle cx="12" cy="10" r="1" fill="srgba(97.5326%,70.2953%,0%,1)"/>
  <circle cx="13" cy="10" r="1" fill="srgba(100%,72.5994%,0%,1)"/>
  <circle cx="14" cy="10" r="1" fill="srgba(99.6765%,72.4743%,0%,1)"/>
  <circle cx="15" cy="10" r="1" fill="srgba(90.2632%,64.8264%,0%,1)"/>
  <circle cx="0" cy="11" r="1" fill="srgba(59.6475%,56.4157%,10.2907%,1)"/>
  <circle cx="1" cy="11" r="1" fill="srgba(0%,34.1634%,25.5085%,1)"/>
  <circle cx="2" cy="11" r="1" fill="srgba(20.8072%,34.1176%,20.1862%,1)"/>
  <circle cx="3" cy="11" r="1" fill="srgba(94.4198%,35.3521%,1.42214%,1)"/>
  <circle cx="4" cy="11" r="1" fill="srgba(100%,40.1907%,0%,1)"/>
  <circle cx="5" cy="11" r="1" fill="srgba(85.7588%,47.5944%,5.12398%,1)"/>
  <circle cx="6" cy="11" r="1" fill="srgba(55.6161%,13.0571%,16.1166%,1)"/>
  <circle cx="7" cy="11" r="1" fill="srgba(58.8952%,22.295%,11.8334%,1)"/>
  <circle cx="8" cy="11" r="1" fill="srgba(92.5505%,65.6046%,0.483711%,1)"/>
  <circle cx="9" cy="11" r="1" fill="srgba(69.4484%,49.9229%,0%,1)"/>
  <circle cx="10" cy="11" r="1" fill="srgba(2.73442%,1.96384%,0%,1)"/>
  <circle cx="11" cy="11" r="1" fill="srgba(9.65743%,6.93065%,0%,1)"/>
  <circle cx="12" cy="11" r="1" fill="srgba(75.3658%,54.0856%,0%,1)"/>
  <circle cx="13" cy="11" r="1" fill="srgba(96.5393%,69.2821%,0%,1)"/>
  <circle cx="14" cy="11" r="1" fill="srgba(95.552%,68.5725%,0%,1)"/>
  <circle cx="15" cy="11" r="1" fill="srgba(96.0998%,68.9677%,0%,1)"/>
  <circle cx="0" cy="12" r="1" fill="srgba(59.6475%,56.4157%,10.2907%,1)"/>
  <circle cx="1" cy="12" r="1" fill="srgba(0%,34.1634%,25.5085%,1)"/>
  <circle cx="2" cy="12" r="1" fill="srgba(20.8072%,34.1176%,20.1862%,1)"/>
  <circle cx="3" cy="12" r="1" fill="srgba(94.4198%,35.3521%,1.42214%,1)"/>
  <circle cx="4" cy="12" r="1" fill="srgba(100%,40.1907%,0%,1)"/>
  <circle cx="5" cy="12" r="1" fill="srgba(85.7588%,47.5944%,5.12398%,1)"/>
  <circle cx="6" cy="12" r="1" fill="srgba(55.5947%,13.0419%,16.1166%,1)"/>
  <circle cx="7" cy="12" r="1" fill="srgba(59.2905%,22.4659%,11.9112%,1)"/>
  <circle cx="8" cy="12" r="1" fill="srgba(92.5154%,65.5619%,0.514229%,1)"/>
  <circle cx="9" cy="12" r="1" fill="srgba(89.4804%,64.2664%,0%,1)"/>
  <circle cx="10" cy="12" r="1" fill="srgba(43.5309%,31.2413%,0%,1)"/>
  <circle cx="11" cy="12" r="1" fill="srgba(71.6487%,51.4168%,0%,1)"/>
  <circle cx="12" cy="12" r="1" fill="srgba(65.7984%,47.2206%,0%,1)"/>
  <circle cx="13" cy="12" r="1" fill="srgba(25.275%,18.1399%,0%,1)"/>
  <circle cx="14" cy="12" r="1" fill="srgba(22.8885%,16.4294%,0%,1)"/>
  <circle cx="15" cy="12" r="1" fill="srgba(22.9343%,16.4614%,0%,1)"/>
  <circle cx="0" cy="13" r="1" fill="srgba(59.646%,56.408%,10.2953%,1)"/>
  <circle cx="1" cy="13" r="1" fill="srgba(0%,34.1466%,25.5192%,1)"/>
  <circle cx="2" cy="13" r="1" fill="srgba(20.8072%,34.1009%,20.1953%,1)"/>
  <circle cx="3" cy="13" r="1" fill="srgba(94.4182%,35.3353%,1.42367%,1)"/>
  <circle cx="4" cy="13" r="1" fill="srgba(100%,40.1877%,0%,1)"/>
  <circle cx="5" cy="13" r="1" fill="srgba(85.6077%,47.3762%,5.18654%,1)"/>
  <circle cx="6" cy="13" r="1" fill="srgba(55.1461%,12.5902%,16.1944%,1)"/>
  <circle cx="7" cy="13" r="1" fill="srgba(59.3469%,22.3651%,11.9844%,1)"/>
  <circle cx="8" cy="13" r="1" fill="srgba(92.4239%,65.3849%,0.546273%,1)"/>
  <circle cx="9" cy="13" r="1" fill="srgba(98.0743%,70.7729%,0%,1)"/>
  <circle cx="10" cy="13" r="1" fill="srgba(58.8159%,42.7985%,0%,1)"/>
  <circle cx="11" cy="13" r="1" fill="srgba(95.3277%,69.4209%,0%,1)"/>
  <circle cx="12" cy="13" r="1" fill="srgba(91.8135%,66.3386%,0%,1)"/>
  <circle cx="13" cy="13" r="1" fill="srgba(21.2512%,15.2361%,0%,1)"/>
  <circle cx="14" cy="13" r="1" fill="black"/>
  <circle cx="15" cy="13" r="1" fill="black"/>
  <circle cx="0" cy="14" r="1" fill="srgba(60.1389%,56.6018%,10.1656%,1)"/>
  <circle cx="1" cy="14" r="1" fill="srgba(1.15053%,34.6197%,25.1987%,1)"/>
  <circle cx="2" cy="14" r="1" fill="srgba(21.77%,34.5769%,19.9405%,1)"/>
  <circle cx="3" cy="14" r="1" fill="srgba(94.4869%,35.7977%,1.40536%,1)"/>
  <circle cx="4" cy="14" r="1" fill="srgba(100%,40.3067%,0%,1)"/>
  <circle cx="5" cy="14" r="1" fill="srgba(88.9921%,52.6925%,3.51568%,1)"/>
  <circle cx="6" cy="14" r="1" fill="srgba(65.4459%,28.4443%,11.1772%,1)"/>
  <circle cx="7" cy="14" r="1" fill="srgba(59.7665%,22.9877%,11.7937%,1)"/>
  <circle cx="8" cy="14" r="1" fill="srgba(92.6116%,65.4856%,0.576791%,1)"/>
  <circle cx="9" cy="14" r="1" fill="srgba(98.0423%,70.4189%,0%,1)"/>
  <circle cx="10" cy="14" r="1" fill="srgba(59.2004%,42.4887%,0%,1)"/>
  <circle cx="11" cy="14" r="1" fill="srgba(94.9844%,68.1544%,0%,1)"/>
  <circle cx="12" cy="14" r="1" fill="srgba(100%,72.8634%,0%,1)"/>
  <circle cx="13" cy="14" r="1" fill="srgba(59.8596%,43.1373%,0%,1)"/>
  <circle cx="14" cy="14" r="1" fill="srgba(1.20851%,0.856031%,0%,1)"/>
  <circle cx="15" cy="14" r="1" fill="black"/>
  <circle cx="0" cy="15" r="1" fill="srgba(83.7171%,65.5711%,4.15351%,1)"/>
  <circle cx="1" cy="15" r="1" fill="srgba(59.6201%,56.5927%,10.2983%,1)"/>
  <circle cx="2" cy="15" r="1" fill="srgba(68.0446%,56.5774%,8.14984%,1)"/>
  <circle cx="3" cy="15" r="1" fill="srgba(97.7478%,57.0794%,0.573739%,1)"/>
  <circle cx="4" cy="15" r="1" fill="srgba(100%,58.7991%,0%,1)"/>
  <circle cx="5" cy="15" r="1" fill="srgba(96.4492%,66.0761%,0.621042%,1)"/>
  <circle cx="6" cy="15" r="1" fill="srgba(88.8548%,59.4736%,2.75425%,1)"/>
  <circle cx="7" cy="15" r="1" fill="srgba(79.379%,48.7724%,4.84627%,1)"/>
  <circle cx="8" cy="15" r="1" fill="srgba(93.7301%,66.8482%,0.244144%,1)"/>
  <circle cx="9" cy="15" r="1" fill="srgba(97.9629%,70.3288%,0%,1)"/>
  <circle cx="10" cy="15" r="1" fill="srgba(59.585%,42.7649%,0%,1)"/>
  <circle cx="11" cy="15" r="1" fill="srgba(95.1324%,68.2704%,0%,1)"/>
  <circle cx="12" cy="15" r="1" fill="srgba(100%,72.398%,0%,1)"/>
  <circle cx="13" cy="15" r="1" fill="srgba(89.3507%,64.4465%,0%,1)"/>
  <circle cx="14" cy="15" r="1" fill="srgba(16.6033%,11.9387%,0%,1)"/>
  <circle cx="15" cy="15" r="1" fill="black"/>
</svg>
