<?xml version="1.0" standalone="no"?>
<!DOCTYPE svg PUBLIC "-//W3C//DTD SVG 20010904//EN"
  "http://www.w3.org/TR/2001/REC-SVG-20010904/DTD/svg10.dtd">
<svg width="16" height="16">
  <circle cx="0" cy="0" r="1" fill="srgba(0,0,102,1)"/>
  <circle cx="1" cy="0" r="1" fill="srgba(0,0,102,1)"/>
  <circle cx="2" cy="0" r="1" fill="srgba(0%,0%,39.9847%,1)"/>
  <circle cx="3" cy="0" r="1" fill="srgba(0%,0%,39.5895%,1)"/>
  <circle cx="4" cy="0" r="1" fill="srgba(0%,0%,39.9268%,1)"/>
  <circle cx="5" cy="0" r="1" fill="srgba(0%,0%,39.9405%,1)"/>
  <circle cx="6" cy="0" r="1" fill="srgba(1.66629%,1.67086%,41.0056%,1)"/>
  <circle cx="7" cy="0" r="1" fill="srgba(69.4499%,69.4621%,81.6876%,1)"/>
  <circle cx="8" cy="0" r="1" fill="white"/>
  <circle cx="9" cy="0" r="1" fill="white"/>
  <circle cx="10" cy="0" r="1" fill="white"/>
  <circle cx="11" cy="0" r="1" fill="white"/>
  <circle cx="12" cy="0" r="1" fill="white"/>
  <circle cx="13" cy="0" r="1" fill="white"/>
  <circle cx="14" cy="0" r="1" fill="white"/>
  <circle cx="15" cy="0" r="1" fill="white"/>
  <circle cx="0" cy="1" r="1" fill="srgba(0%,0%,39.9863%,1)"/>
  <circle cx="1" cy="1" r="1" fill="srgba(0%,0%,39.6582%,1)"/>
  <circle cx="2" cy="1" r="1" fill="srgba(0.445563%,0.445563%,39.7391%,1)"/>
  <circle cx="3" cy="1" r="1" fill="srgba(14.6304%,14.6304%,48.5069%,1)"/>
  <circle cx="4" cy="1" r="1" fill="srgba(2.42618%,2.42618%,41.2818%,1)"/>
  <circle cx="5" cy="1" r="1" fill="srgba(0%,0%,39.913%,1)"/>
  <circle cx="6" cy="1" r="1" fill="srgba(1.61746%,1.18105%,40.4913%,1)"/>
  <circle cx="7" cy="1" r="1" fill="srgba(65.2308%,47.5547%,59.6979%,1)"/>
  <circle cx="8" cy="1" r="1" fill="srgba(95.2041%,69.398%,68.7373%,1)"/>
  <circle cx="9" cy="1" r="1" fill="srgba(93.6538%,68.2689%,68.2689%,1)"/>
  <circle cx="10" cy="1" r="1" fill="srgba(93.6538%,68.2689%,68.2689%,1)"/>
  <circle cx="11" cy="1" r="1" fill="srgba(93.6538%,68.2689%,68.2689%,1)"/>
  <circle cx="12" cy="1" r="1" fill="srgba(93.6538%,68.2689%,68.2689%,1)"/>
  <circle cx="13" cy="1" r="1" fill="srgba(93.6538%,68.2689%,68.2689%,1)"/>
  <circle cx="14" cy="1" r="1" fill="srgba(93.6538%,68.2689%,68.2689%,1)"/>
  <circle cx="15" cy="1" r="1" fill="srgba(93.6538%,68.2689%,68.2689%,1)"/>
  <circle cx="0" cy="2" r="1" fill="srgba(0.332647%,0.332647%,40.1984%,1)"/>
  <circle cx="1" cy="2" r="1" fill="srgba(8.9601%,8.9601%,45.3758%,1)"/>
  <circle cx="2" cy="2" r="1" fill="srgba(18.5992%,18.5992%,51.1589%,1)"/>
  <circle cx="3" cy="2" r="1" fill="srgba(65.6092%,65.6092%,79.3805%,1)"/>
  <circle cx="4" cy="2" r="1" fill="srgba(17.5418%,17.5418%,50.2144%,1)"/>
  <circle cx="5" cy="2" r="1" fill="srgba(0%,0%,39.237%,1)"/>
  <circle cx="6" cy="2" r="1" fill="srgba(1.52895%,0.341802%,39.6231%,1)"/>
  <circle cx="7" cy="2" r="1" fill="srgba(57.966%,9.91379%,21.9242%,1)"/>
  <circle cx="8" cy="2" r="1" fill="srgba(84.1123%,13.959%,13.2998%,1)"/>
  <circle cx="9" cy="2" r="1" fill="srgba(82.7512%,13.7407%,13.7407%,1)"/>
  <circle cx="10" cy="2" r="1" fill="srgba(82.7512%,13.7407%,13.7407%,1)"/>
  <circle cx="11" cy="2" r="1" fill="srgba(82.7512%,13.7407%,13.7407%,1)"/>
  <circle cx="12" cy="2" r="1" fill="srgba(82.7512%,13.7407%,13.7407%,1)"/>
  <circle cx="13" cy="2" r="1" fill="srgba(82.7512%,13.7407%,13.7407%,1)"/>
  <circle cx="14" cy="2" r="1" fill="srgba(82.7512%,13.7407%,13.7407%,1)"/>
  <circle cx="15" cy="2" r="1" fill="srgba(82.7512%,13.7407%,13.7407%,1)"/>
  <circle cx="0" cy="3" r="1" fill="srgba(0%,0%,39.9603%,1)"/>
  <circle cx="1" cy="3" r="1" fill="srgba(20.7874%,20.7874%,52.4727%,1)"/>
  <circle cx="2" cy="3" r="1" fill="srgba(72.1218%,72.1218%,83.2731%,1)"/>
  <circle cx="3" cy="3" r="1" fill="srgba(99.4324%,99.4324%,99.6597%,1)"/>
  <circle cx="4" cy="3" r="1" fill="srgba(65.5451%,65.5451%,79.3347%,1)"/>
  <circle cx="5" cy="3" r="1" fill="srgba(7.10002%,7.17327%,44.0406%,1)"/>
  <circle cx="6" cy="3" r="1" fill="srgba(1.10323%,0%,39.2325%,1)"/>
  <circle cx="7" cy="3" r="1" fill="srgba(58.0713%,10.4677%,22.4887%,1)"/>
  <circle cx="8" cy="3" r="1" fill="srgba(84.2741%,14.7753%,14.1161%,1)"/>
  <circle cx="9" cy="3" r="1" fill="srgba(82.9099%,14.5434%,14.5434%,1)"/>
  <circle cx="10" cy="3" r="1" fill="srgba(82.9099%,14.5434%,14.5434%,1)"/>
  <circle cx="11" cy="3" r="1" fill="srgba(82.9099%,14.5434%,14.5434%,1)"/>
  <circle cx="12" cy="3" r="1" fill="srgba(82.9099%,14.5434%,14.5434%,1)"/>
  <circle cx="13" cy="3" r="1" fill="srgba(82.9099%,14.5434%,14.5434%,1)"/>
  <circle cx="14" cy="3" r="1" fill="srgba(82.9099%,14.5434%,14.5434%,1)"/>
  <circle cx="15" cy="3" r="1" fill="srgba(82.9099%,14.5434%,14.5434%,1)"/>
  <circle cx="0" cy="4" r="1" fill="srgba(0%,0%,39.9313%,1)"/>
  <circle cx="1" cy="4" r="1" fill="srgba(0.502022%,0.502022%,40%,1)"/>
  <circle cx="2" cy="4" r="1" fill="srgba(54.0139%,54.0139%,72.3522%,1)"/>
  <circle cx="3" cy="4" r="1" fill="srgba(74.7524%,74.7524%,84.8539%,1)"/>
  <circle cx="4" cy="4" r="1" fill="srgba(89.6468%,89.6468%,93.7881%,1)"/>
  <circle cx="5" cy="4" r="1" fill="srgba(59.3927%,59.4247%,75.671%,1)"/>
  <circle cx="6" cy="4" r="1" fill="srgba(5.1606%,4.63722%,42.5208%,1)"/>
  <circle cx="7" cy="4" r="1" fill="srgba(64.1184%,42.9114%,55.1446%,1)"/>
  <circle cx="8" cy="4" r="1" fill="srgba(93.9101%,62.9496%,62.2873%,1)"/>
  <circle cx="9" cy="4" r="1" fill="srgba(92.3827%,61.9257%,61.9257%,1)"/>
  <circle cx="10" cy="4" r="1" fill="srgba(92.3827%,61.9257%,61.9257%,1)"/>
  <circle cx="11" cy="4" r="1" fill="srgba(92.3827%,61.9257%,61.9257%,1)"/>
  <circle cx="12" cy="4" r="1" fill="srgba(92.3827%,61.9257%,61.9257%,1)"/>
  <circle cx="13" cy="4" r="1" fill="srgba(92.3827%,61.9257%,61.9257%,1)"/>
  <circle cx="14" cy="4" r="1" fill="srgba(92.3827%,61.9257%,61.9257%,1)"/>
  <circle cx="15" cy="4" r="1" fill="srgba(92.3827%,61.9257%,61.9257%,1)"/>
  <circle cx="0" cy="5" r="1" fill="srgba(0%,0%,39.8489%,1)"/>
  <circle cx="1" cy="5" r="1" fill="srgba(2.43381%,2.43381%,41.4038%,1)"/>
  <circle cx="2" cy="5" r="1" fill="srgba(18.3505%,18.3505%,51.0002%,1)"/>
  <circle cx="3" cy="5" r="1" fill="srgba(3.86511%,3.86511%,42.2644%,1)"/>
  <circle cx="4" cy="5" r="1" fill="srgba(29.5323%,29.5323%,57.7111%,1)"/>
  <circle cx="5" cy="5" r="1" fill="srgba(45.6947%,45.7145%,67.4342%,1)"/>
  <circle cx="6" cy="5" r="1" fill="srgba(5.34676%,5.04005%,42.826%,1)"/>
  <circle cx="7" cy="5" r="1" fill="srgba(66.2425%,53.8705%,66.1219%,1)"/>
  <circle cx="8" cy="5" r="1" fill="srgba(97.145%,79.0845%,78.4222%,1)"/>
  <circle cx="9" cy="5" r="1" fill="srgba(95.5612%,77.7951%,77.7951%,1)"/>
  <circle cx="10" cy="5" r="1" fill="srgba(95.5612%,77.7951%,77.7951%,1)"/>
  <circle cx="11" cy="5" r="1" fill="srgba(95.5612%,77.7951%,77.7951%,1)"/>
  <circle cx="12" cy="5" r="1" fill="srgba(95.5612%,77.7951%,77.7951%,1)"/>
  <circle cx="13" cy="5" r="1" fill="srgba(95.5612%,77.7951%,77.7951%,1)"/>
  <circle cx="14" cy="5" r="1" fill="srgba(95.5612%,77.7951%,77.7951%,1)"/>
  <circle cx="15" cy="5" r="1" fill="srgba(95.5612%,77.7951%,77.7951%,1)"/>
  <circle cx="0" cy="6" r="1" fill="srgba(1.66171%,1.66171%,40.9979%,1)"/>
  <circle cx="1" cy="6" r="1" fill="srgba(1.61746%,1.61746%,40.9705%,1)"/>
  <circle cx="2" cy="6" r="1" fill="srgba(0.817884%,0.817884%,40.4883%,1)"/>
  <circle cx="3" cy="6" r="1" fill="srgba(0.230411%,0.230411%,40.1389%,1)"/>
  <circle cx="4" cy="6" r="1" fill="srgba(21.4008%,21.4008%,52.8405%,1)"/>
  <circle cx="5" cy="6" r="1" fill="srgba(19.884%,19.9649%,52.015%,1)"/>
  <circle cx="6" cy="6" r="1" fill="srgba(1.78836%,0.489815%,39.6429%,1)"/>
  <circle cx="7" cy="6" r="1" fill="srgba(57.409%,4.86305%,16.6461%,1)"/>
  <circle cx="8" cy="6" r="1" fill="srgba(82.4414%,5.72824%,5.08125%,1)"/>
  <circle cx="9" cy="6" r="1" fill="srgba(81.1353%,5.67178%,5.67178%,1)"/>
  <circle cx="10" cy="6" r="1" fill="srgba(81.1353%,5.67178%,5.67178%,1)"/>
  <circle cx="11" cy="6" r="1" fill="srgba(81.1353%,5.67178%,5.67178%,1)"/>
  <circle cx="12" cy="6" r="1" fill="srgba(81.1353%,5.67178%,5.67178%,1)"/>
  <circle cx="13" cy="6" r="1" fill="srgba(81.1353%,5.67178%,5.67178%,1)"/>
  <circle cx="14" cy="6" r="1" fill="srgba(81.1353%,5.67178%,5.67178%,1)"/>
  <circle cx="15" cy="6" r="1" fill="srgba(81.1353%,5.67178%,5.67178%,1)"/>
  <circle cx="0" cy="7" r="1" fill="srgba(69.7612%,71.0903%,83.3204%,1)"/>
  <circle cx="1" cy="7" r="1" fill="srgba(69.7612%,71.0903%,83.3204%,1)"/>
  <circle cx="2" cy="7" r="1" fill="srgba(69.7612%,71.0903%,83.3204%,1)"/>
  <circle cx="3" cy="7" r="1" fill="srgba(69.5583%,70.8904%,83.2029%,1)"/>
  <circle cx="4" cy="7" r="1" fill="srgba(72.8237%,74.0871%,85.0858%,1)"/>
  <circle cx="5" cy="7" r="1" fill="srgba(74.0108%,75.256%,85.7771%,1)"/>
  <circle cx="6" cy="7" r="1" fill="srgba(69.9809%,70.8888%,82.9877%,1)"/>
  <circle cx="7" cy="7" r="1" fill="srgba(86.8482%,70.8644%,74.5266%,1)"/>
  <circle cx="8" cy="7" r="1" fill="srgba(94.5129%,70.5653%,70.3639%,1)"/>
  <circle cx="9" cy="7" r="1" fill="srgba(94.1131%,70.5776%,70.5776%,1)"/>
  <circle cx="10" cy="7" r="1" fill="srgba(94.1131%,70.5776%,70.5776%,1)"/>
  <circle cx="11" cy="7" r="1" fill="srgba(94.1131%,70.5776%,70.5776%,1)"/>
  <circle cx="12" cy="7" r="1" fill="srgba(94.1131%,70.5776%,70.5776%,1)"/>
  <circle cx="13" cy="7" r="1" fill="srgba(94.1131%,70.5776%,70.5776%,1)"/>
  <circle cx="14" cy="7" r="1" fill="srgba(94.1131%,70.5776%,70.5776%,1)"/>
  <circle cx="15" cy="7" r="1" fill="srgba(94.1131%,70.5776%,70.5776%,1)"/>
  <circle cx="0" cy="8" r="1" fill="srgba(95.5016%,70.8705%,70.2068%,1)"/>
  <circle cx="1" cy="8" r="1" fill="srgba(95.5016%,70.8705%,70.2068%,1)"/>
  <circle cx="2" cy="8" r="1" fill="srgba(95.5016%,70.8705%,70.2068%,1)"/>
  <circle cx="3" cy="8" r="1" fill="srgba(95.5138%,70.8827%,70.2144%,1)"/>
  <circle cx="4" cy="8" r="1" fill="srgba(95.3201%,70.6889%,70.0969%,1)"/>
  <circle cx="5" cy="8" r="1" fill="srgba(95.259%,70.6264%,70.0603%,1)"/>
  <circle cx="6" cy="8" r="1" fill="srgba(95.491%,70.8827%,70.2251%,1)"/>
  <circle cx="7" cy="8" r="1" fill="srgba(94.5708%,70.869%,70.6706%,1)"/>
  <circle cx="8" cy="8" r="1" fill="srgba(94.1527%,70.8782%,70.8888%,1)"/>
  <circle cx="9" cy="8" r="1" fill="srgba(94.1741%,70.8782%,70.8782%,1)"/>
  <circle cx="10" cy="8" r="1" fill="srgba(94.1741%,70.8782%,70.8782%,1)"/>
  <circle cx="11" cy="8" r="1" fill="srgba(94.1741%,70.8782%,70.8782%,1)"/>
  <circle cx="12" cy="8" r="1" fill="srgba(94.1741%,70.8782%,70.8782%,1)"/>
  <circle cx="13" cy="8" r="1" fill="srgba(94.1741%,70.8782%,70.8782%,1)"/>
  <circle cx="14" cy="8" r="1" fill="srgba(94.1741%,70.8782%,70.8782%,1)"/>
  <circle cx="15" cy="8" r="1" fill="srgba(94.1741%,70.8782%,70.8782%,1)"/>
  <circle cx="0" cy="9" r="1" fill="srgba(81.1475%,5.73892%,5.73892%,1)"/>
  <circle cx="1" cy="9" r="1" fill="srgba(81.1475%,5.73892%,5.73892%,1)"/>
  <circle cx="2" cy="9" r="1" fill="srgba(81.1475%,5.73892%,5.73892%,1)"/>
  <circle cx="3" cy="9" r="1" fill="srgba(81.1475%,5.73892%,5.73892%,1)"/>
  <circle cx="4" cy="9" r="1" fill="srgba(81.1475%,5.73892%,5.73892%,1)"/>
  <circle cx="5" cy="9" r="1" fill="srgba(81.1475%,5.73892%,5.73892%,1)"/>
  <circle cx="6" cy="9" r="1" fill="srgba(81.1475%,5.73892%,5.73892%,1)"/>
  <circle cx="7" cy="9" r="1" fill="srgba(81.1475%,5.73892%,5.73892%,1)"/>
  <circle cx="8" cy="9" r="1" fill="srgba(81.1475%,5.73892%,5.73892%,1)"/>
  <circle cx="9" cy="9" r="1" fill="srgba(81.1475%,5.73892%,5.73892%,1)"/>
  <circle cx="10" cy="9" r="1" fill="srgba(81.1475%,5.73892%,5.73892%,1)"/>
  <circle cx="11" cy="9" r="1" fill="srgba(81.1475%,5.73892%,5.73892%,1)"/>
  <circle cx="12" cy="9" r="1" fill="srgba(81.1475%,5.73892%,5.73892%,1)"/>
  <circle cx="13" cy="9" r="1" fill="srgba(81.1475%,5.73892%,5.73892%,1)"/>
  <circle cx="14" cy="9" r="1" fill="srgba(81.1475%,5.73892%,5.73892%,1)"/>
  <circle cx="15" cy="9" r="1" fill="srgba(81.1475%,5.73892%,5.73892%,1)"/>
  <circle cx="0" cy="10" r="1" fill="srgba(95.5505%,77.7462%,77.7462%,1)"/>
  <circle cx="1" cy="10" r="1" fill="srgba(95.5505%,77.7462%,77.7462%,1)"/>
  <circle cx="2" cy="10" r="1" fill="srgba(95.5505%,77.7462%,77.7462%,1)"/>
  <circle cx="3" cy="10" r="1" fill="srgba(95.5505%,77.7462%,77.7462%,1)"/>
  <circle cx="4" cy="10" r="1" fill="srgba(95.5505%,77.7462%,77.7462%,1)"/>
  <circle cx="5" cy="10" r="1" fill="srgba(95.5505%,77.7462%,77.7462%,1)"/>
  <circle cx="6" cy="10" r="1" fill="srgba(95.5505%,77.7462%,77.7462%,1)"/>
  <circle cx="7" cy="10" r="1" fill="srgba(95.5505%,77.7462%,77.7462%,1)"/>
  <circle cx="8" cy="10" r="1" fill="srgba(95.5505%,77.7462%,77.7462%,1)"/>
  <circle cx="9" cy="10" r="1" fill="srgba(95.5505%,77.7462%,77.7462%,1)"/>
  <circle cx="10" cy="10" r="1" fill="srgba(95.5505%,77.7462%,77.7462%,1)"/>
  <circle cx="11" cy="10" r="1" fill="srgba(95.5505%,77.7462%,77.7462%,1)"/>
  <circle cx="12" cy="10" r="1" fill="srgba(95.5505%,77.7462%,77.7462%,1)"/>
  <circle cx="13" cy="10" r="1" fill="srgba(95.5505%,77.7462%,77.7462%,1)"/>
  <circle cx="14" cy="10" r="1" fill="srgba(95.5505%,77.7462%,77.7462%,1)"/>
  <circle cx="15" cy="10" r="1" fill="srgba(95.5505%,77.7462%,77.7462%,1)"/>
  <circle cx="0" cy="11" r="1" fill="srgba(92.6558%,63.299%,63.299%,1)"/>
  <circle cx="1" cy="11" r="1" fill="srgba(92.6558%,63.299%,63.299%,1)"/>
  <circle cx="2" cy="11" r="1" fill="srgba(92.6558%,63.299%,63.299%,1)"/>
  <circle cx="3" cy="11" r="1" fill="srgba(92.6558%,63.299%,63.299%,1)"/>
  <circle cx="4" cy="11" r="1" fill="srgba(92.6558%,63.299%,63.299%,1)"/>
  <circle cx="5" cy="11" r="1" fill="srgba(92.6558%,63.299%,63.299%,1)"/>
  <circle cx="6" cy="11" r="1" fill="srgba(92.6558%,63.299%,63.299%,1)"/>
  <circle cx="7" cy="11" r="1" fill="srgba(92.6558%,63.299%,63.299%,1)"/>
  <circle cx="8" cy="11" r="1" fill="srgba(92.6558%,63.299%,63.299%,1)"/>
  <circle cx="9" cy="11" r="1" fill="srgba(92.6558%,63.299%,63.299%,1)"/>
  <circle cx="10" cy="11" r="1" fill="srgba(92.6558%,63.299%,63.299%,1)"/>
  <circle cx="11" cy="11" r="1" fill="srgba(92.6558%,63.299%,63.299%,1)"/>
  <circle cx="12" cy="11" r="1" fill="srgba(92.6558%,63.299%,63.299%,1)"/>
  <circle cx="13" cy="11" r="1" fill="srgba(92.6558%,63.299%,63.299%,1)"/>
  <circle cx="14" cy="11" r="1" fill="srgba(92.6558%,63.299%,63.299%,1)"/>
  <circle cx="15" cy="11" r="1" fill="srgba(92.6558%,63.299%,63.299%,1)"/>
  <circle cx="0" cy="12" r="1" fill="srgba(81.5915%,7.94842%,7.94842%,1)"/>
  <circle cx="1" cy="12" r="1" fill="srgba(81.5915%,7.94842%,7.94842%,1)"/>
  <circle cx="2" cy="12" r="1" fill="srgba(81.5915%,7.94842%,7.94842%,1)"/>
  <circle cx="3" cy="12" r="1" fill="srgba(81.5915%,7.94842%,7.94842%,1)"/>
  <circle cx="4" cy="12" r="1" fill="srgba(81.5915%,7.94842%,7.94842%,1)"/>
  <circle cx="5" cy="12" r="1" fill="srgba(81.5915%,7.94842%,7.94842%,1)"/>
  <circle cx="6" cy="12" r="1" fill="srgba(81.5915%,7.94842%,7.94842%,1)"/>
  <circle cx="7" cy="12" r="1" fill="srgba(81.5915%,7.94842%,7.94842%,1)"/>
  <circle cx="8" cy="12" r="1" fill="srgba(81.5915%,7.94842%,7.94842%,1)"/>
  <circle cx="9" cy="12" r="1" fill="srgba(81.5915%,7.94842%,7.94842%,1)"/>
  <circle cx="10" cy="12" r="1" fill="srgba(81.5915%,7.94842%,7.94842%,1)"/>
  <circle cx="11" cy="12" r="1" fill="srgba(81.5915%,7.94842%,7.94842%,1)"/>
  <circle cx="12" cy="12" r="1" fill="srgba(81.5915%,7.94842%,7.94842%,1)"/>
  <circle cx="13" cy="12" r="1" fill="srgba(81.5915%,7.94842%,7.94842%,1)"/>
  <circle cx="14" cy="12" r="1" fill="srgba(81.5915%,7.94842%,7.94842%,1)"/>
  <circle cx="15" cy="12" r="1" fill="srgba(81.5915%,7.94842%,7.94842%,1)"/>
  <circle cx="0" cy="13" r="1" fill="srgba(96.8933%,84.4511%,84.4511%,1)"/>
  <circle cx="1" cy="13" r="1" fill="srgba(96.8933%,84.4511%,84.4511%,1)"/>
  <circle cx="2" cy="13" r="1" fill="srgba(96.8933%,84.4511%,84.4511%,1)"/>
  <circle cx="3" cy="13" r="1" fill="srgba(96.8933%,84.4511%,84.4511%,1)"/>
  <circle cx="4" cy="13" r="1" fill="srgba(96.8933%,84.4511%,84.4511%,1)"/>
  <circle cx="5" cy="13" r="1" fill="srgba(96.8933%,84.4511%,84.4511%,1)"/>
  <circle cx="6" cy="13" r="1" fill="srgba(96.8933%,84.4511%,84.4511%,1)"/>
  <circle cx="7" cy="13" r="1" fill="srgba(96.8933%,84.4511%,84.4511%,1)"/>
  <circle cx="8" cy="13" r="1" fill="srgba(96.8933%,84.4511%,84.4511%,1)"/>
  <circle cx="9" cy="13" r="1" fill="srgba(96.8933%,84.4511%,84.4511%,1)"/>
  <circle cx="10" cy="13" r="1" fill="srgba(96.8933%,84.4511%,84.4511%,1)"/>
  <circle cx="11" cy="13" r="1" fill="srgba(96.8933%,84.4511%,84.4511%,1)"/>
  <circle cx="12" cy="13" r="1" fill="srgba(96.8933%,84.4511%,84.4511%,1)"/>
  <circle cx="13" cy="13" r="1" fill="srgba(96.8933%,84.4511%,84.4511%,1)"/>
  <circle cx="14" cy="13" r="1" fill="srgba(96.8933%,84.4511%,84.4511%,1)"/>
  <circle cx="15" cy="13" r="1" fill="srgba(96.8933%,84.4511%,84.4511%,1)"/>
  <circle cx="0" cy="14" r="1" fill="srgba(90.6142%,53.0892%,53.0892%,1)"/>
  <circle cx="1" cy="14" r="1" fill="srgba(90.6142%,53.0892%,53.0892%,1)"/>
  <circle cx="2" cy="14" r="1" fill="srgba(90.6142%,53.0892%,53.0892%,1)"/>
  <circle cx="3" cy="14" r="1" fill="srgba(90.6142%,53.0892%,53.0892%,1)"/>
  <circle cx="4" cy="14" r="1" fill="srgba(90.6142%,53.0892%,53.0892%,1)"/>
  <circle cx="5" cy="14" r="1" fill="srgba(90.6142%,53.0892%,53.0892%,1)"/>
  <circle cx="6" cy="14" r="1" fill="srgba(90.6142%,53.0892%,53.0892%,1)"/>
  <circle cx="7" cy="14" r="1" fill="srgba(90.6142%,53.0892%,53.0892%,1)"/>
  <circle cx="8" cy="14" r="1" fill="srgba(90.6142%,53.0892%,53.0892%,1)"/>
  <circle cx="9" cy="14" r="1" fill="srgba(90.6142%,53.0892%,53.0892%,1)"/>
  <circle cx="10" cy="14" r="1" fill="srgba(90.6142%,53.0892%,53.0892%,1)"/>
  <circle cx="11" cy="14" r="1" fill="srgba(90.6142%,53.0892%,53.0892%,1)"/>
  <circle cx="12" cy="14" r="1" fill="srgba(90.6142%,53.0892%,53.0892%,1)"/>
  <circle cx="13" cy="14" r="1" fill="srgba(90.6142%,53.0892%,53.0892%,1)"/>
  <circle cx="14" cy="14" r="1" fill="srgba(90.6142%,53.0892%,53.0892%,1)"/>
  <circle cx="15" cy="14" r="1" fill="srgba(90.6142%,53.0892%,53.0892%,1)"/>
  <circle cx="0" cy="15" r="1" fill="srgba(79.7223%,0%,0%,1)"/>
  <circle cx="1" cy="15" r="1" fill="srgba(79.7223%,0%,0%,1)"/>
  <circle cx="2" cy="15" r="1" fill="srgba(79.7223%,0%,0%,1)"/>
  <circle cx="3" cy="15" r="1" fill="srgba(79.7223%,0%,0%,1)"/>
  <circle cx="4" cy="15" r="1" fill="srgba(79.7223%,0%,0%,1)"/>
  <circle cx="5" cy="15" r="1" fill="srgba(79.7223%,0%,0%,1)"/>
  <circle cx="6" cy="15" r="1" fill="srgba(79.7223%,0%,0%,1)"/>
  <circle cx="7" cy="15" r="1" fill="srgba(79.7223%,0%,0%,1)"/>
  <circle cx="8" cy="15" r="1" fill="srgba(79.7223%,0%,0%,1)"/>
  <circle cx="9" cy="15" r="1" fill="srgba(79.7223%,0%,0%,1)"/>
  <circle cx="10" cy="15" r="1" fill="srgba(79.7223%,0%,0%,1)"/>
  <circle cx="11" cy="15" r="1" fill="srgba(79.7223%,0%,0%,1)"/>
  <circle cx="12" cy="15" r="1" fill="srgba(79.7223%,0%,0%,1)"/>
  <circle cx="13" cy="15" r="1" fill="srgba(79.7223%,0%,0%,1)"/>
  <circle cx="14" cy="15" r="1" fill="srgba(79.7223%,0%,0%,1)"/>
  <circle cx="15" cy="15" r="1" fill="srgba(79.7223%,0%,0%,1)"/>
</svg>
