<?xml version="1.0" standalone="no"?>
<!DOCTYPE svg PUBLIC "-//W3C//DTD SVG 20010904//EN"
  "http://www.w3.org/TR/2001/REC-SVG-20010904/DTD/svg10.dtd">
<svg width="16" height="16">
  <circle cx="0" cy="0" r="1" fill="srgba(0,32,159,1)"/>
  <circle cx="1" cy="0" r="1" fill="srgba(0,32,159,1)"/>
  <circle cx="2" cy="0" r="1" fill="srgba(0,32,159,1)"/>
  <circle cx="3" cy="0" r="1" fill="srgba(0,32,159,1)"/>
  <circle cx="4" cy="0" r="1" fill="srgba(0,32,159,1)"/>
  <circle cx="5" cy="0" r="1" fill="srgba(0,32,159,1)"/>
  <circle cx="6" cy="0" r="1" fill="srgba(0,32,159,1)"/>
  <circle cx="7" cy="0" r="1" fill="srgba(0,32,159,1)"/>
  <circle cx="8" cy="0" r="1" fill="srgba(0,32,159,1)"/>
  <circle cx="9" cy="0" r="1" fill="srgba(0,32,159,1)"/>
  <circle cx="10" cy="0" r="1" fill="srgba(0,32,159,1)"/>
  <circle cx="11" cy="0" r="1" fill="srgba(0,32,159,1)"/>
  <circle cx="12" cy="0" r="1" fill="srgba(0,32,159,1)"/>
  <circle cx="13" cy="0" r="1" fill="srgba(0,32,159,1)"/>
  <circle cx="14" cy="0" r="1" fill="srgba(0,32,159,1)"/>
  <circle cx="15" cy="0" r="1" fill="srgba(0.00762951%,12.5566%,62.3529%,1)"/>
  <circle cx="0" cy="1" r="1" fill="srgba(0,32,159,1)"/>
  <circle cx="1" cy="1" r="1" fill="srgba(0,32,159,1)"/>
  <circle cx="2" cy="1" r="1" fill="srgba(0,32,159,1)"/>
  <circle cx="3" cy="1" r="1" fill="srgba(0,32,159,1)"/>
  <circle cx="4" cy="1" r="1" fill="srgba(0,32,159,1)"/>
  <circle cx="5" cy="1" r="1" fill="srgba(0,32,159,1)"/>
  <circle cx="6" cy="1" r="1" fill="srgba(0,32,159,1)"/>
  <circle cx="7" cy="1" r="1" fill="srgba(0,32,159,1)"/>
  <circle cx="8" cy="1" r="1" fill="srgba(0,32,159,1)"/>
  <circle cx="9" cy="1" r="1" fill="srgba(0,32,159,1)"/>
  <circle cx="10" cy="1" r="1" fill="srgba(0,32,159,1)"/>
  <circle cx="11" cy="1" r="1" fill="srgba(0,32,159,1)"/>
  <circle cx="12" cy="1" r="1" fill="srgba(0,32,159,1)"/>
  <circle cx="13" cy="1" r="1" fill="srgba(0,32,159,1)"/>
  <circle cx="14" cy="1" r="1" fill="srgba(0,32,159,1)"/>
  <circle cx="15" cy="1" r="1" fill="srgba(0.00762951%,12.5566%,62.3529%,1)"/>
  <circle cx="0" cy="2" r="1" fill="srgba(0,32,159,1)"/>
  <circle cx="1" cy="2" r="1" fill="srgba(0,32,159,1)"/>
  <circle cx="2" cy="2" r="1" fill="srgba(0,32,159,1)"/>
  <circle cx="3" cy="2" r="1" fill="srgba(0,32,159,1)"/>
  <circle cx="4" cy="2" r="1" fill="srgba(0,32,159,1)"/>
  <circle cx="5" cy="2" r="1" fill="srgba(0,32,159,1)"/>
  <circle cx="6" cy="2" r="1" fill="srgba(0,32,159,1)"/>
  <circle cx="7" cy="2" r="1" fill="srgba(0,32,159,1)"/>
  <circle cx="8" cy="2" r="1" fill="srgba(0,32,159,1)"/>
  <circle cx="9" cy="2" r="1" fill="srgba(0,32,159,1)"/>
  <circle cx="10" cy="2" r="1" fill="srgba(0,32,159,1)"/>
  <circle cx="11" cy="2" r="1" fill="srgba(0,32,159,1)"/>
  <circle cx="12" cy="2" r="1" fill="srgba(0,32,159,1)"/>
  <circle cx="13" cy="2" r="1" fill="srgba(0,32,159,1)"/>
  <circle cx="14" cy="2" r="1" fill="srgba(0,32,159,1)"/>
  <circle cx="15" cy="2" r="1" fill="srgba(0.00762951%,12.5566%,62.3529%,1)"/>
  <circle cx="0" cy="3" r="1" fill="srgba(0%,11.2581%,61.7975%,1)"/>
  <circle cx="1" cy="3" r="1" fill="srgba(0%,11.2581%,61.7975%,1)"/>
  <circle cx="2" cy="3" r="1" fill="srgba(0%,11.2581%,61.7975%,1)"/>
  <circle cx="3" cy="3" r="1" fill="srgba(0%,11.2581%,61.7975%,1)"/>
  <circle cx="4" cy="3" r="1" fill="srgba(0%,11.2581%,61.7975%,1)"/>
  <circle cx="5" cy="3" r="1" fill="srgba(0%,11.2581%,61.7975%,1)"/>
  <circle cx="6" cy="3" r="1" fill="srgba(0%,11.252%,61.7914%,1)"/>
  <circle cx="7" cy="3" r="1" fill="srgba(0%,11.3939%,61.9333%,1)"/>
  <circle cx="8" cy="3" r="1" fill="srgba(0%,11.7739%,62.3133%,1)"/>
  <circle cx="9" cy="3" r="1" fill="srgba(0%,11.8166%,62.356%,1)"/>
  <circle cx="10" cy="3" r="1" fill="srgba(0%,11.4855%,62.0249%,1)"/>
  <circle cx="11" cy="3" r="1" fill="srgba(0%,11.249%,61.7884%,1)"/>
  <circle cx="12" cy="3" r="1" fill="srgba(0%,11.2581%,61.7975%,1)"/>
  <circle cx="13" cy="3" r="1" fill="srgba(0%,11.2581%,61.7975%,1)"/>
  <circle cx="14" cy="3" r="1" fill="srgba(0%,11.2581%,61.7975%,1)"/>
  <circle cx="15" cy="3" r="1" fill="srgba(0%,11.2657%,61.7975%,1)"/>
  <circle cx="0" cy="4" r="1" fill="srgba(24.9042%,34.3252%,71.725%,1)"/>
  <circle cx="1" cy="4" r="1" fill="srgba(24.9042%,34.3252%,71.725%,1)"/>
  <circle cx="2" cy="4" r="1" fill="srgba(24.9042%,34.3252%,71.725%,1)"/>
  <circle cx="3" cy="4" r="1" fill="srgba(24.9042%,34.3252%,71.725%,1)"/>
  <circle cx="4" cy="4" r="1" fill="srgba(24.9042%,34.3252%,71.725%,1)"/>
  <circle cx="5" cy="4" r="1" fill="srgba(24.8951%,34.316%,71.7159%,1)"/>
  <circle cx="6" cy="4" r="1" fill="srgba(25.1179%,34.5388%,71.9387%,1)"/>
  <circle cx="7" cy="4" r="1" fill="srgba(22.4949%,31.9173%,69.3156%,1)"/>
  <circle cx="8" cy="4" r="1" fill="srgba(16.466%,25.8885%,63.2868%,1)"/>
  <circle cx="9" cy="4" r="1" fill="srgba(14.9935%,24.416%,61.8158%,1)"/>
  <circle cx="10" cy="4" r="1" fill="srgba(21.0498%,30.4723%,67.8706%,1)"/>
  <circle cx="11" cy="4" r="1" fill="srgba(25.0584%,34.4793%,71.8791%,1)"/>
  <circle cx="12" cy="4" r="1" fill="srgba(24.9042%,34.3252%,71.725%,1)"/>
  <circle cx="13" cy="4" r="1" fill="srgba(24.9042%,34.3252%,71.725%,1)"/>
  <circle cx="14" cy="4" r="1" fill="srgba(24.9042%,34.3252%,71.725%,1)"/>
  <circle cx="15" cy="4" r="1" fill="srgba(24.9104%,34.3313%,71.725%,1)"/>
  <circle cx="0" cy="5" r="1" fill="srgba(96.35%,96.8078%,98.6252%,1)"/>
  <circle cx="1" cy="5" r="1" fill="srgba(96.35%,96.8078%,98.6252%,1)"/>
  <circle cx="2" cy="5" r="1" fill="srgba(96.35%,96.8078%,98.6252%,1)"/>
  <circle cx="3" cy="5" r="1" fill="srgba(96.35%,96.8078%,98.6252%,1)"/>
  <circle cx="4" cy="5" r="1" fill="srgba(96.35%,96.8078%,98.6252%,1)"/>
  <circle cx="5" cy="5" r="1" fill="srgba(96.5591%,97.0169%,98.8342%,1)"/>
  <circle cx="6" cy="5" r="1" fill="srgba(93.5561%,94.0139%,95.8312%,1)"/>
  <circle cx="7" cy="5" r="1" fill="srgba(60.3128%,60.7706%,62.5879%,1)"/>
  <circle cx="8" cy="5" r="1" fill="srgba(20.885%,21.3428%,23.1601%,1)"/>
  <circle cx="9" cy="5" r="1" fill="srgba(44.9668%,45.4231%,47.2404%,1)"/>
  <circle cx="10" cy="5" r="1" fill="srgba(86.0487%,86.5064%,88.3238%,1)"/>
  <circle cx="11" cy="5" r="1" fill="srgba(96.8307%,97.2885%,99.1058%,1)"/>
  <circle cx="12" cy="5" r="1" fill="srgba(96.35%,96.8078%,98.6252%,1)"/>
  <circle cx="13" cy="5" r="1" fill="srgba(96.35%,96.8078%,98.6252%,1)"/>
  <circle cx="14" cy="5" r="1" fill="srgba(96.35%,96.8078%,98.6252%,1)"/>
  <circle cx="15" cy="5" r="1" fill="srgba(96.35%,96.8078%,98.6252%,1)"/>
  <circle cx="0" cy="6" r="1" fill="white"/>
  <circle cx="1" cy="6" r="1" fill="white"/>
  <circle cx="2" cy="6" r="1" fill="white"/>
  <circle cx="3" cy="6" r="1" fill="white"/>
  <circle cx="4" cy="6" r="1" fill="white"/>
  <circle cx="5" cy="6" r="1" fill="white"/>
  <circle cx="6" cy="6" r="1" fill="srgba(92.6299%,92.6268%,92.6131%,1)"/>
  <circle cx="7" cy="6" r="1" fill="srgba(52.2011%,52.1813%,52.1004%,1)"/>
  <circle cx="8" cy="6" r="1" fill="srgba(38.0072%,37.9843%,37.8973%,1)"/>
  <circle cx="9" cy="6" r="1" fill="srgba(86.5736%,86.5537%,86.4759%,1)"/>
  <circle cx="10" cy="6" r="1" fill="white"/>
  <circle cx="11" cy="6" r="1" fill="white"/>
  <circle cx="12" cy="6" r="1" fill="white"/>
  <circle cx="13" cy="6" r="1" fill="white"/>
  <circle cx="14" cy="6" r="1" fill="white"/>
  <circle cx="15" cy="6" r="1" fill="white"/>
  <circle cx="0" cy="7" r="1" fill="white"/>
  <circle cx="1" cy="7" r="1" fill="white"/>
  <circle cx="2" cy="7" r="1" fill="white"/>
  <circle cx="3" cy="7" r="1" fill="white"/>
  <circle cx="4" cy="7" r="1" fill="white"/>
  <circle cx="5" cy="7" r="1" fill="white"/>
  <circle cx="6" cy="7" r="1" fill="srgba(96.6506%,96.6506%,96.6506%,1)"/>
  <circle cx="7" cy="7" r="1" fill="srgba(38.555%,38.555%,38.555%,1)"/>
  <circle cx="8" cy="7" r="1" fill="srgba(29.2439%,29.2439%,29.2439%,1)"/>
  <circle cx="9" cy="7" r="1" fill="srgba(92.5582%,92.5582%,92.5582%,1)"/>
  <circle cx="10" cy="7" r="1" fill="white"/>
  <circle cx="11" cy="7" r="1" fill="white"/>
  <circle cx="12" cy="7" r="1" fill="white"/>
  <circle cx="13" cy="7" r="1" fill="white"/>
  <circle cx="14" cy="7" r="1" fill="white"/>
  <circle cx="15" cy="7" r="1" fill="white"/>
  <circle cx="0" cy="8" r="1" fill="white"/>
  <circle cx="1" cy="8" r="1" fill="white"/>
  <circle cx="2" cy="8" r="1" fill="white"/>
  <circle cx="3" cy="8" r="1" fill="white"/>
  <circle cx="4" cy="8" r="1" fill="white"/>
  <circle cx="5" cy="8" r="1" fill="white"/>
  <circle cx="6" cy="8" r="1" fill="srgba(74.6349%,74.6349%,74.6349%,1)"/>
  <circle cx="7" cy="8" r="1" fill="srgba(9.28206%,9.28206%,9.28206%,1)"/>
  <circle cx="8" cy="8" r="1" fill="srgba(3.93835%,3.93835%,3.93835%,1)"/>
  <circle cx="9" cy="8" r="1" fill="srgba(63.6255%,63.6255%,63.6255%,1)"/>
  <circle cx="10" cy="8" r="1" fill="white"/>
  <circle cx="11" cy="8" r="1" fill="white"/>
  <circle cx="12" cy="8" r="1" fill="white"/>
  <circle cx="13" cy="8" r="1" fill="white"/>
  <circle cx="14" cy="8" r="1" fill="white"/>
  <circle cx="15" cy="8" r="1" fill="white"/>
  <circle cx="0" cy="9" r="1" fill="white"/>
  <circle cx="1" cy="9" r="1" fill="white"/>
  <circle cx="2" cy="9" r="1" fill="white"/>
  <circle cx="3" cy="9" r="1" fill="white"/>
  <circle cx="4" cy="9" r="1" fill="white"/>
  <circle cx="5" cy="9" r="1" fill="srgba(82.3087%,82.2385%,82.2766%,1)"/>
  <circle cx="6" cy="9" r="1" fill="srgba(25.359%,25.2338%,25.3025%,1)"/>
  <circle cx="7" cy="9" r="1" fill="srgba(4.93172%,4.81117%,4.87678%,1)"/>
  <circle cx="8" cy="9" r="1" fill="srgba(3.25933%,3.17845%,3.22271%,1)"/>
  <circle cx="9" cy="9" r="1" fill="srgba(18.996%,18.8754%,18.9425%,1)"/>
  <circle cx="10" cy="9" r="1" fill="srgba(75.0149%,74.9279%,74.9752%,1)"/>
  <circle cx="11" cy="9" r="1" fill="white"/>
  <circle cx="12" cy="9" r="1" fill="white"/>
  <circle cx="13" cy="9" r="1" fill="white"/>
  <circle cx="14" cy="9" r="1" fill="white"/>
  <circle cx="15" cy="9" r="1" fill="white"/>
  <circle cx="0" cy="10" r="1" fill="srgba(96.286%,98.4558%,97.2641%,1)"/>
  <circle cx="1" cy="10" r="1" fill="srgba(96.286%,98.4558%,97.2641%,1)"/>
  <circle cx="2" cy="10" r="1" fill="srgba(96.286%,98.4558%,97.2641%,1)"/>
  <circle cx="3" cy="10" r="1" fill="srgba(96.286%,98.4558%,97.2641%,1)"/>
  <circle cx="4" cy="10" r="1" fill="srgba(96.9512%,99.1211%,97.9294%,1)"/>
  <circle cx="5" cy="10" r="1" fill="srgba(78.9471%,81.117%,79.9252%,1)"/>
  <circle cx="6" cy="10" r="1" fill="srgba(44.2802%,46.4485%,45.2567%,1)"/>
  <circle cx="7" cy="10" r="1" fill="srgba(35.5474%,37.7035%,36.5194%,1)"/>
  <circle cx="8" cy="10" r="1" fill="srgba(47.4754%,48.9296%,48.13%,1)"/>
  <circle cx="9" cy="10" r="1" fill="srgba(43.3585%,45.4002%,44.2786%,1)"/>
  <circle cx="10" cy="10" r="1" fill="srgba(71.6274%,73.8018%,72.607%,1)"/>
  <circle cx="11" cy="10" r="1" fill="srgba(96.7514%,98.9212%,97.7295%,1)"/>
  <circle cx="12" cy="10" r="1" fill="srgba(96.2905%,98.4604%,97.2686%,1)"/>
  <circle cx="13" cy="10" r="1" fill="srgba(96.286%,98.4558%,97.2641%,1)"/>
  <circle cx="14" cy="10" r="1" fill="srgba(96.286%,98.4558%,97.2641%,1)"/>
  <circle cx="15" cy="10" r="1" fill="srgba(96.286%,98.4558%,97.2641%,1)"/>
  <circle cx="0" cy="11" r="1" fill="srgba(24.7486%,68.716%,44.5243%,1)"/>
  <circle cx="1" cy="11" r="1" fill="srgba(24.7486%,68.716%,44.5243%,1)"/>
  <circle cx="2" cy="11" r="1" fill="srgba(24.7486%,68.716%,44.5243%,1)"/>
  <circle cx="3" cy="11" r="1" fill="srgba(24.7486%,68.716%,44.5243%,1)"/>
  <circle cx="4" cy="11" r="1" fill="srgba(24.7349%,68.7022%,44.5106%,1)"/>
  <circle cx="5" cy="11" r="1" fill="srgba(25.2674%,69.2348%,45.0431%,1)"/>
  <circle cx="6" cy="11" r="1" fill="srgba(22.797%,66.7659%,42.5727%,1)"/>
  <circle cx="7" cy="11" r="1" fill="srgba(18.2834%,61.9776%,37.9355%,1)"/>
  <circle cx="8" cy="11" r="1" fill="srgba(44.6006%,74.2672%,57.9461%,1)"/>
  <circle cx="9" cy="11" r="1" fill="srgba(26.8879%,68.3528%,45.5375%,1)"/>
  <circle cx="10" cy="11" r="1" fill="srgba(25.0629%,69.1386%,44.8875%,1)"/>
  <circle cx="11" cy="11" r="1" fill="srgba(24.7608%,68.7282%,44.5365%,1)"/>
  <circle cx="12" cy="11" r="1" fill="srgba(24.7486%,68.716%,44.5243%,1)"/>
  <circle cx="13" cy="11" r="1" fill="srgba(24.7486%,68.716%,44.5243%,1)"/>
  <circle cx="14" cy="11" r="1" fill="srgba(24.7486%,68.716%,44.5243%,1)"/>
  <circle cx="15" cy="11" r="1" fill="srgba(24.7547%,68.716%,44.5304%,1)"/>
  <circle cx="0" cy="12" r="1" fill="srgba(0%,57.821%,25.1911%,1)"/>
  <circle cx="1" cy="12" r="1" fill="srgba(0%,57.821%,25.1911%,1)"/>
  <circle cx="2" cy="12" r="1" fill="srgba(0%,57.821%,25.1911%,1)"/>
  <circle cx="3" cy="12" r="1" fill="srgba(0%,57.821%,25.1911%,1)"/>
  <circle cx="4" cy="12" r="1" fill="srgba(0%,57.821%,25.1911%,1)"/>
  <circle cx="5" cy="12" r="1" fill="srgba(0%,57.818%,25.1881%,1)"/>
  <circle cx="6" cy="12" r="1" fill="srgba(0%,57.9355%,25.304%,1)"/>
  <circle cx="7" cy="12" r="1" fill="srgba(0.640879%,58.5275%,26.1082%,1)"/>
  <circle cx="8" cy="12" r="1" fill="srgba(32.0119%,71.6442%,49.4697%,1)"/>
  <circle cx="9" cy="12" r="1" fill="srgba(5.48257%,60.2564%,29.4163%,1)"/>
  <circle cx="10" cy="12" r="1" fill="srgba(0%,57.7234%,25.0187%,1)"/>
  <circle cx="11" cy="12" r="1" fill="srgba(0%,57.821%,25.1911%,1)"/>
  <circle cx="12" cy="12" r="1" fill="srgba(0%,57.821%,25.1911%,1)"/>
  <circle cx="13" cy="12" r="1" fill="srgba(0%,57.821%,25.1911%,1)"/>
  <circle cx="14" cy="12" r="1" fill="srgba(0%,57.821%,25.1911%,1)"/>
  <circle cx="15" cy="12" r="1" fill="srgba(0%,57.821%,25.1987%,1)"/>
  <circle cx="0" cy="13" r="1" fill="srgba(0,149,67,1)"/>
  <circle cx="1" cy="13" r="1" fill="srgba(0,149,67,1)"/>
  <circle cx="2" cy="13" r="1" fill="srgba(0,149,67,1)"/>
  <circle cx="3" cy="13" r="1" fill="srgba(0,149,67,1)"/>
  <circle cx="4" cy="13" r="1" fill="srgba(0,149,67,1)"/>
  <circle cx="5" cy="13" r="1" fill="srgba(0,149,67,1)"/>
  <circle cx="6" cy="13" r="1" fill="srgba(0%,58.4298%,26.2715%,1)"/>
  <circle cx="7" cy="13" r="1" fill="srgba(0.666819%,58.7091%,26.7674%,1)"/>
  <circle cx="8" cy="13" r="1" fill="srgba(31.4214%,71.4961%,49.4453%,1)"/>
  <circle cx="9" cy="13" r="1" fill="srgba(5.23232%,60.6058%,30.132%,1)"/>
  <circle cx="10" cy="13" r="1" fill="srgba(0%,58.3413%,26.1143%,1)"/>
  <circle cx="11" cy="13" r="1" fill="srgba(0,149,67,1)"/>
  <circle cx="12" cy="13" r="1" fill="srgba(0,149,67,1)"/>
  <circle cx="13" cy="13" r="1" fill="srgba(0,149,67,1)"/>
  <circle cx="14" cy="13" r="1" fill="srgba(0,149,67,1)"/>
  <circle cx="15" cy="13" r="1" fill="srgba(0.00762951%,58.4314%,26.2821%,1)"/>
  <circle cx="0" cy="14" r="1" fill="srgba(0,149,67,1)"/>
  <circle cx="1" cy="14" r="1" fill="srgba(0,149,67,1)"/>
  <circle cx="2" cy="14" r="1" fill="srgba(0,149,67,1)"/>
  <circle cx="3" cy="14" r="1" fill="srgba(0,149,67,1)"/>
  <circle cx="4" cy="14" r="1" fill="srgba(0,149,67,1)"/>
  <circle cx="5" cy="14" r="1" fill="srgba(0,149,67,1)"/>
  <circle cx="6" cy="14" r="1" fill="srgba(0%,58.4298%,26.2715%,1)"/>
  <circle cx="7" cy="14" r="1" fill="srgba(0.691234%,58.7198%,26.7842%,1)"/>
  <circle cx="8" cy="14" r="1" fill="srgba(30.811%,71.2428%,48.9937%,1)"/>
  <circle cx="9" cy="14" r="1" fill="srgba(4.98207%,60.502%,29.9474%,1)"/>
  <circle cx="10" cy="14" r="1" fill="srgba(0%,58.3474%,26.1265%,1)"/>
  <circle cx="11" cy="14" r="1" fill="srgba(0,149,67,1)"/>
  <circle cx="12" cy="14" r="1" fill="srgba(0,149,67,1)"/>
  <circle cx="13" cy="14" r="1" fill="srgba(0,149,67,1)"/>
  <circle cx="14" cy="14" r="1" fill="srgba(0,149,67,1)"/>
  <circle cx="15" cy="14" r="1" fill="srgba(0.00762951%,58.4314%,26.2821%,1)"/>
  <circle cx="0" cy="15" r="1" fill="srgba(0,149,67,1)"/>
  <circle cx="1" cy="15" r="1" fill="srgba(0,149,67,1)"/>
  <circle cx="2" cy="15" r="1" fill="srgba(0,149,67,1)"/>
  <circle cx="3" cy="15" r="1" fill="srgba(0,149,67,1)"/>
  <circle cx="4" cy="15" r="1" fill="srgba(0,149,67,1)"/>
  <circle cx="5" cy="15" r="1" fill="srgba(0,149,67,1)"/>
  <circle cx="6" cy="15" r="1" fill="srgba(0%,58.4298%,26.2715%,1)"/>
  <circle cx="7" cy="15" r="1" fill="srgba(0.712596%,58.7289%,26.8009%,1)"/>
  <circle cx="8" cy="15" r="1" fill="srgba(30.2602%,71.014%,48.5893%,1)"/>
  <circle cx="9" cy="15" r="1" fill="srgba(4.75929%,60.4089%,29.7826%,1)"/>
  <circle cx="10" cy="15" r="1" fill="srgba(0%,58.3536%,26.1372%,1)"/>
  <circle cx="11" cy="15" r="1" fill="srgba(0,149,67,1)"/>
  <circle cx="12" cy="15" r="1" fill="srgba(0,149,67,1)"/>
  <circle cx="13" cy="15" r="1" fill="srgba(0,149,67,1)"/>
  <circle cx="14" cy="15" r="1" fill="srgba(0,149,67,1)"/>
  <circle cx="15" cy="15" r="1" fill="srgba(0.00762951%,58.4314%,26.2821%,1)"/>
</svg>
