<?xml version="1.0" standalone="no"?>
<!DOCTYPE svg PUBLIC "-//W3C//DTD SVG 20010904//EN"
  "http://www.w3.org/TR/2001/REC-SVG-20010904/DTD/svg10.dtd">
<svg width="16" height="16">
  <circle cx="0" cy="0" r="1" fill="srgba(231,0,19,1)"/>
  <circle cx="1" cy="0" r="1" fill="srgba(231,0,19,1)"/>
  <circle cx="2" cy="0" r="1" fill="srgba(231,0,19,1)"/>
  <circle cx="3" cy="0" r="1" fill="srgba(231,0,19,1)"/>
  <circle cx="4" cy="0" r="1" fill="srgba(231,0,19,1)"/>
  <circle cx="5" cy="0" r="1" fill="srgba(231,0,19,1)"/>
  <circle cx="6" cy="0" r="1" fill="srgba(231,0,19,1)"/>
  <circle cx="7" cy="0" r="1" fill="srgba(231,0,19,1)"/>
  <circle cx="8" cy="0" r="1" fill="srgba(231,0,19,1)"/>
  <circle cx="9" cy="0" r="1" fill="srgba(231,0,19,1)"/>
  <circle cx="10" cy="0" r="1" fill="srgba(231,0,19,1)"/>
  <circle cx="11" cy="0" r="1" fill="srgba(231,0,19,1)"/>
  <circle cx="12" cy="0" r="1" fill="srgba(231,0,19,1)"/>
  <circle cx="13" cy="0" r="1" fill="srgba(231,0,19,1)"/>
  <circle cx="14" cy="0" r="1" fill="srgba(231,0,19,1)"/>
  <circle cx="15" cy="0" r="1" fill="srgba(231,0,19,1)"/>
  <circle cx="0" cy="1" r="1" fill="srgba(231,0,19,1)"/>
  <circle cx="1" cy="1" r="1" fill="srgba(231,0,19,1)"/>
  <circle cx="2" cy="1" r="1" fill="srgba(231,0,19,1)"/>
  <circle cx="3" cy="1" r="1" fill="srgba(231,0,19,1)"/>
  <circle cx="4" cy="1" r="1" fill="srgba(231,0,19,1)"/>
  <circle cx="5" cy="1" r="1" fill="srgba(231,0,19,1)"/>
  <circle cx="6" cy="1" r="1" fill="srgba(231,0,19,1)"/>
  <circle cx="7" cy="1" r="1" fill="srgba(231,0,19,1)"/>
  <circle cx="8" cy="1" r="1" fill="srgba(231,0,19,1)"/>
  <circle cx="9" cy="1" r="1" fill="srgba(231,0,19,1)"/>
  <circle cx="10" cy="1" r="1" fill="srgba(231,0,19,1)"/>
  <circle cx="11" cy="1" r="1" fill="srgba(231,0,19,1)"/>
  <circle cx="12" cy="1" r="1" fill="srgba(231,0,19,1)"/>
  <circle cx="13" cy="1" r="1" fill="srgba(231,0,19,1)"/>
  <circle cx="14" cy="1" r="1" fill="srgba(231,0,19,1)"/>
  <circle cx="15" cy="1" r="1" fill="srgba(231,0,19,1)"/>
  <circle cx="0" cy="2" r="1" fill="srgba(91.2963%,0%,7.50896%,1)"/>
  <circle cx="1" cy="2" r="1" fill="srgba(91.2963%,0%,7.50896%,1)"/>
  <circle cx="2" cy="2" r="1" fill="srgba(91.2963%,0%,7.50896%,1)"/>
  <circle cx="3" cy="2" r="1" fill="srgba(91.2963%,0%,7.50896%,1)"/>
  <circle cx="4" cy="2" r="1" fill="srgba(91.2963%,0%,7.50896%,1)"/>
  <circle cx="5" cy="2" r="1" fill="srgba(91.2963%,0%,7.50896%,1)"/>
  <circle cx="6" cy="2" r="1" fill="srgba(91.2963%,0%,7.50896%,1)"/>
  <circle cx="7" cy="2" r="1" fill="srgba(91.2963%,0%,7.50896%,1)"/>
  <circle cx="8" cy="2" r="1" fill="srgba(91.2963%,0%,7.50896%,1)"/>
  <circle cx="9" cy="2" r="1" fill="srgba(91.2963%,0%,7.50896%,1)"/>
  <circle cx="10" cy="2" r="1" fill="srgba(91.2963%,0%,7.50896%,1)"/>
  <circle cx="11" cy="2" r="1" fill="srgba(91.2963%,0%,7.50896%,1)"/>
  <circle cx="12" cy="2" r="1" fill="srgba(91.2963%,0%,7.50896%,1)"/>
  <circle cx="13" cy="2" r="1" fill="srgba(91.2963%,0%,7.50896%,1)"/>
  <circle cx="14" cy="2" r="1" fill="srgba(91.2963%,0%,7.50896%,1)"/>
  <circle cx="15" cy="2" r="1" fill="srgba(91.2963%,0%,7.50896%,1)"/>
  <circle cx="0" cy="3" r="1" fill="srgba(79.6628%,0%,6.55222%,1)"/>
  <circle cx="1" cy="3" r="1" fill="srgba(79.6628%,0%,6.55222%,1)"/>
  <circle cx="2" cy="3" r="1" fill="srgba(79.6628%,0%,6.55222%,1)"/>
  <circle cx="3" cy="3" r="1" fill="srgba(79.6628%,0%,6.55222%,1)"/>
  <circle cx="4" cy="3" r="1" fill="srgba(79.6628%,0%,6.55222%,1)"/>
  <circle cx="5" cy="3" r="1" fill="srgba(79.6628%,0%,6.55222%,1)"/>
  <circle cx="6" cy="3" r="1" fill="srgba(79.6628%,0%,6.55222%,1)"/>
  <circle cx="7" cy="3" r="1" fill="srgba(79.6628%,0%,6.55222%,1)"/>
  <circle cx="8" cy="3" r="1" fill="srgba(79.6628%,0%,6.55222%,1)"/>
  <circle cx="9" cy="3" r="1" fill="srgba(79.6628%,0%,6.55222%,1)"/>
  <circle cx="10" cy="3" r="1" fill="srgba(79.6628%,0%,6.55222%,1)"/>
  <circle cx="11" cy="3" r="1" fill="srgba(79.6628%,0%,6.55222%,1)"/>
  <circle cx="12" cy="3" r="1" fill="srgba(79.6628%,0%,6.55222%,1)"/>
  <circle cx="13" cy="3" r="1" fill="srgba(79.6628%,0%,6.55222%,1)"/>
  <circle cx="14" cy="3" r="1" fill="srgba(79.6628%,0%,6.55222%,1)"/>
  <circle cx="15" cy="3" r="1" fill="srgba(79.6628%,0%,6.55222%,1)"/>
  <circle cx="0" cy="4" r="1" fill="srgba(10.9255%,0%,0.898756%,1)"/>
  <circle cx="1" cy="4" r="1" fill="srgba(10.9255%,0%,0.898756%,1)"/>
  <circle cx="2" cy="4" r="1" fill="srgba(10.9255%,0%,0.898756%,1)"/>
  <circle cx="3" cy="4" r="1" fill="srgba(10.9255%,0%,0.898756%,1)"/>
  <circle cx="4" cy="4" r="1" fill="srgba(10.9255%,0%,0.898756%,1)"/>
  <circle cx="5" cy="4" r="1" fill="srgba(10.927%,0%,0.900282%,1)"/>
  <circle cx="6" cy="4" r="1" fill="srgba(10.8934%,0%,0.865187%,1)"/>
  <circle cx="7" cy="4" r="1" fill="srgba(10.4402%,0%,0.411994%,1)"/>
  <circle cx="8" cy="4" r="1" fill="srgba(10.4952%,0%,0.468452%,1)"/>
  <circle cx="9" cy="4" r="1" fill="srgba(10.9026%,0%,0.875868%,1)"/>
  <circle cx="10" cy="4" r="1" fill="srgba(10.927%,0%,0.900282%,1)"/>
  <circle cx="11" cy="4" r="1" fill="srgba(10.9255%,0%,0.898756%,1)"/>
  <circle cx="12" cy="4" r="1" fill="srgba(10.9255%,0%,0.898756%,1)"/>
  <circle cx="13" cy="4" r="1" fill="srgba(10.9255%,0%,0.898756%,1)"/>
  <circle cx="14" cy="4" r="1" fill="srgba(10.9255%,0%,0.898756%,1)"/>
  <circle cx="15" cy="4" r="1" fill="srgba(10.9255%,0%,0.898756%,1)"/>
  <circle cx="0" cy="5" r="1" fill="black"/>
  <circle cx="1" cy="5" r="1" fill="black"/>
  <circle cx="2" cy="5" r="1" fill="black"/>
  <circle cx="3" cy="5" r="1" fill="black"/>
  <circle cx="4" cy="5" r="1" fill="black"/>
  <circle cx="5" cy="5" r="1" fill="black"/>
  <circle cx="6" cy="5" r="1" fill="srgba(0.596628%,0.741588%,0.729381%,1)"/>
  <circle cx="7" cy="5" r="1" fill="srgba(7.79583%,8.46418%,8.40772%,1)"/>
  <circle cx="8" cy="5" r="1" fill="srgba(6.15091%,6.8452%,6.78721%,1)"/>
  <circle cx="9" cy="5" r="1" fill="srgba(0.297551%,0.5066%,0.483711%,1)"/>
  <circle cx="10" cy="5" r="1" fill="black"/>
  <circle cx="11" cy="5" r="1" fill="black"/>
  <circle cx="12" cy="5" r="1" fill="black"/>
  <circle cx="13" cy="5" r="1" fill="black"/>
  <circle cx="14" cy="5" r="1" fill="black"/>
  <circle cx="15" cy="5" r="1" fill="black"/>
  <circle cx="0" cy="6" r="1" fill="black"/>
  <circle cx="1" cy="6" r="1" fill="black"/>
  <circle cx="2" cy="6" r="1" fill="black"/>
  <circle cx="3" cy="6" r="1" fill="black"/>
  <circle cx="4" cy="6" r="1" fill="black"/>
  <circle cx="5" cy="6" r="1" fill="srgba(0.10071%,0.10071%,0.10071%,1)"/>
  <circle cx="6" cy="6" r="1" fill="srgba(31.2016%,31.2016%,31.2016%,1)"/>
  <circle cx="7" cy="6" r="1" fill="srgba(38.0209%,38.0209%,38.0209%,1)"/>
  <circle cx="8" cy="6" r="1" fill="srgba(14.0398%,14.0398%,14.0398%,1)"/>
  <circle cx="9" cy="6" r="1" fill="srgba(5.52987%,5.52987%,5.52987%,1)"/>
  <circle cx="10" cy="6" r="1" fill="srgba(6.48508%,6.48508%,6.48508%,1)"/>
  <circle cx="11" cy="6" r="1" fill="srgba(1.38857%,1.38857%,1.38857%,1)"/>
  <circle cx="12" cy="6" r="1" fill="srgba(0.0320439%,0.0320439%,0.0320439%,1)"/>
  <circle cx="13" cy="6" r="1" fill="black"/>
  <circle cx="14" cy="6" r="1" fill="black"/>
  <circle cx="15" cy="6" r="1" fill="black"/>
  <circle cx="0" cy="7" r="1" fill="black"/>
  <circle cx="1" cy="7" r="1" fill="black"/>
  <circle cx="2" cy="7" r="1" fill="black"/>
  <circle cx="3" cy="7" r="1" fill="black"/>
  <circle cx="4" cy="7" r="1" fill="black"/>
  <circle cx="5" cy="7" r="1" fill="srgba(9.2195%,9.2195%,9.2195%,1)"/>
  <circle cx="6" cy="7" r="1" fill="srgba(55.1553%,55.1553%,55.1553%,1)"/>
  <circle cx="7" cy="7" r="1" fill="srgba(6.10056%,6.10056%,6.10056%,1)"/>
  <circle cx="8" cy="7" r="1" fill="black"/>
  <circle cx="9" cy="7" r="1" fill="srgba(25.742%,25.742%,25.742%,1)"/>
  <circle cx="10" cy="7" r="1" fill="srgba(67.4098%,67.4098%,67.4098%,1)"/>
  <circle cx="11" cy="7" r="1" fill="srgba(22.7314%,22.7314%,22.7314%,1)"/>
  <circle cx="12" cy="7" r="1" fill="black"/>
  <circle cx="13" cy="7" r="1" fill="black"/>
  <circle cx="14" cy="7" r="1" fill="black"/>
  <circle cx="15" cy="7" r="1" fill="black"/>
  <circle cx="0" cy="8" r="1" fill="black"/>
  <circle cx="1" cy="8" r="1" fill="black"/>
  <circle cx="2" cy="8" r="1" fill="black"/>
  <circle cx="3" cy="8" r="1" fill="black"/>
  <circle cx="4" cy="8" r="1" fill="black"/>
  <circle cx="5" cy="8" r="1" fill="srgba(9.20729%,9.20729%,9.20729%,1)"/>
  <circle cx="6" cy="8" r="1" fill="srgba(55.1553%,55.1553%,55.1553%,1)"/>
  <circle cx="7" cy="8" r="1" fill="srgba(6.12345%,6.12345%,6.12345%,1)"/>
  <circle cx="8" cy="8" r="1" fill="black"/>
  <circle cx="9" cy="8" r="1" fill="srgba(25.7191%,25.7191%,25.7191%,1)"/>
  <circle cx="10" cy="8" r="1" fill="srgba(67.3594%,67.3594%,67.3594%,1)"/>
  <circle cx="11" cy="8" r="1" fill="srgba(22.707%,22.707%,22.707%,1)"/>
  <circle cx="12" cy="8" r="1" fill="black"/>
  <circle cx="13" cy="8" r="1" fill="black"/>
  <circle cx="14" cy="8" r="1" fill="black"/>
  <circle cx="15" cy="8" r="1" fill="black"/>
  <circle cx="0" cy="9" r="1" fill="black"/>
  <circle cx="1" cy="9" r="1" fill="black"/>
  <circle cx="2" cy="9" r="1" fill="black"/>
  <circle cx="3" cy="9" r="1" fill="black"/>
  <circle cx="4" cy="9" r="1" fill="black"/>
  <circle cx="5" cy="9" r="1" fill="srgba(0.0961318%,0.0961318%,0.0961318%,1)"/>
  <circle cx="6" cy="9" r="1" fill="srgba(31.1482%,31.1482%,31.1482%,1)"/>
  <circle cx="7" cy="9" r="1" fill="srgba(38.0591%,38.0591%,38.0591%,1)"/>
  <circle cx="8" cy="9" r="1" fill="srgba(14.0307%,14.0307%,14.0307%,1)"/>
  <circle cx="9" cy="9" r="1" fill="srgba(5.49172%,5.49172%,5.49172%,1)"/>
  <circle cx="10" cy="9" r="1" fill="srgba(6.44694%,6.44694%,6.44694%,1)"/>
  <circle cx="11" cy="9" r="1" fill="srgba(1.37484%,1.37484%,1.37484%,1)"/>
  <circle cx="12" cy="9" r="1" fill="srgba(0.0335698%,0.0335698%,0.0335698%,1)"/>
  <circle cx="13" cy="9" r="1" fill="black"/>
  <circle cx="14" cy="9" r="1" fill="black"/>
  <circle cx="15" cy="9" r="1" fill="black"/>
  <circle cx="0" cy="10" r="1" fill="black"/>
  <circle cx="1" cy="10" r="1" fill="black"/>
  <circle cx="2" cy="10" r="1" fill="black"/>
  <circle cx="3" cy="10" r="1" fill="black"/>
  <circle cx="4" cy="10" r="1" fill="black"/>
  <circle cx="5" cy="10" r="1" fill="black"/>
  <circle cx="6" cy="10" r="1" fill="srgba(0.71107%,0.633249%,0.686656%,1)"/>
  <circle cx="7" cy="10" r="1" fill="srgba(8.34516%,7.98962%,8.24292%,1)"/>
  <circle cx="8" cy="10" r="1" fill="srgba(6.71855%,6.34775%,6.61173%,1)"/>
  <circle cx="9" cy="10" r="1" fill="srgba(0.456245%,0.343328%,0.419623%,1)"/>
  <circle cx="10" cy="10" r="1" fill="black"/>
  <circle cx="11" cy="10" r="1" fill="black"/>
  <circle cx="12" cy="10" r="1" fill="black"/>
  <circle cx="13" cy="10" r="1" fill="black"/>
  <circle cx="14" cy="10" r="1" fill="black"/>
  <circle cx="15" cy="10" r="1" fill="black"/>
  <circle cx="0" cy="11" r="1" fill="srgba(1.6556%,7.47387%,3.31121%,1)"/>
  <circle cx="1" cy="11" r="1" fill="srgba(1.6556%,7.47387%,3.31121%,1)"/>
  <circle cx="2" cy="11" r="1" fill="srgba(1.6556%,7.47387%,3.31121%,1)"/>
  <circle cx="3" cy="11" r="1" fill="srgba(1.6556%,7.47387%,3.31121%,1)"/>
  <circle cx="4" cy="11" r="1" fill="srgba(1.6556%,7.47387%,3.31121%,1)"/>
  <circle cx="5" cy="11" r="1" fill="srgba(1.65713%,7.47539%,3.31273%,1)"/>
  <circle cx="6" cy="11" r="1" fill="srgba(1.62356%,7.44182%,3.27916%,1)"/>
  <circle cx="7" cy="11" r="1" fill="srgba(1.17037%,6.98863%,2.82597%,1)"/>
  <circle cx="8" cy="11" r="1" fill="srgba(1.2253%,7.04356%,2.8809%,1)"/>
  <circle cx="9" cy="11" r="1" fill="srgba(1.63272%,7.45098%,3.28832%,1)"/>
  <circle cx="10" cy="11" r="1" fill="srgba(1.65713%,7.47539%,3.31273%,1)"/>
  <circle cx="11" cy="11" r="1" fill="srgba(1.6556%,7.47387%,3.31121%,1)"/>
  <circle cx="12" cy="11" r="1" fill="srgba(1.6556%,7.47387%,3.31121%,1)"/>
  <circle cx="13" cy="11" r="1" fill="srgba(1.6556%,7.47387%,3.31121%,1)"/>
  <circle cx="14" cy="11" r="1" fill="srgba(1.6556%,7.47387%,3.31121%,1)"/>
  <circle cx="15" cy="11" r="1" fill="srgba(1.6556%,7.47387%,3.31121%,1)"/>
  <circle cx="0" cy="12" r="1" fill="srgba(12.0699%,54.4869%,24.1398%,1)"/>
  <circle cx="1" cy="12" r="1" fill="srgba(12.0699%,54.4869%,24.1398%,1)"/>
  <circle cx="2" cy="12" r="1" fill="srgba(12.0699%,54.4869%,24.1398%,1)"/>
  <circle cx="3" cy="12" r="1" fill="srgba(12.0699%,54.4869%,24.1398%,1)"/>
  <circle cx="4" cy="12" r="1" fill="srgba(12.0699%,54.4869%,24.1398%,1)"/>
  <circle cx="5" cy="12" r="1" fill="srgba(12.0699%,54.4869%,24.1398%,1)"/>
  <circle cx="6" cy="12" r="1" fill="srgba(12.0699%,54.4869%,24.1398%,1)"/>
  <circle cx="7" cy="12" r="1" fill="srgba(12.0699%,54.4869%,24.1398%,1)"/>
  <circle cx="8" cy="12" r="1" fill="srgba(12.0699%,54.4869%,24.1398%,1)"/>
  <circle cx="9" cy="12" r="1" fill="srgba(12.0699%,54.4869%,24.1398%,1)"/>
  <circle cx="10" cy="12" r="1" fill="srgba(12.0699%,54.4869%,24.1398%,1)"/>
  <circle cx="11" cy="12" r="1" fill="srgba(12.0699%,54.4869%,24.1398%,1)"/>
  <circle cx="12" cy="12" r="1" fill="srgba(12.0699%,54.4869%,24.1398%,1)"/>
  <circle cx="13" cy="12" r="1" fill="srgba(12.0699%,54.4869%,24.1398%,1)"/>
  <circle cx="14" cy="12" r="1" fill="srgba(12.0699%,54.4869%,24.1398%,1)"/>
  <circle cx="15" cy="12" r="1" fill="srgba(12.0699%,54.4869%,24.1398%,1)"/>
  <circle cx="0" cy="13" r="1" fill="srgba(13.8323%,62.4445%,27.6661%,1)"/>
  <circle cx="1" cy="13" r="1" fill="srgba(13.8323%,62.4445%,27.6661%,1)"/>
  <circle cx="2" cy="13" r="1" fill="srgba(13.8323%,62.4445%,27.6661%,1)"/>
  <circle cx="3" cy="13" r="1" fill="srgba(13.8323%,62.4445%,27.6661%,1)"/>
  <circle cx="4" cy="13" r="1" fill="srgba(13.8323%,62.4445%,27.6661%,1)"/>
  <circle cx="5" cy="13" r="1" fill="srgba(13.8323%,62.4445%,27.6661%,1)"/>
  <circle cx="6" cy="13" r="1" fill="srgba(13.8323%,62.4445%,27.6661%,1)"/>
  <circle cx="7" cy="13" r="1" fill="srgba(13.8323%,62.4445%,27.6661%,1)"/>
  <circle cx="8" cy="13" r="1" fill="srgba(13.8323%,62.4445%,27.6661%,1)"/>
  <circle cx="9" cy="13" r="1" fill="srgba(13.8323%,62.4445%,27.6661%,1)"/>
  <circle cx="10" cy="13" r="1" fill="srgba(13.8323%,62.4445%,27.6661%,1)"/>
  <circle cx="11" cy="13" r="1" fill="srgba(13.8323%,62.4445%,27.6661%,1)"/>
  <circle cx="12" cy="13" r="1" fill="srgba(13.8323%,62.4445%,27.6661%,1)"/>
  <circle cx="13" cy="13" r="1" fill="srgba(13.8323%,62.4445%,27.6661%,1)"/>
  <circle cx="14" cy="13" r="1" fill="srgba(13.8323%,62.4445%,27.6661%,1)"/>
  <circle cx="15" cy="13" r="1" fill="srgba(13.8323%,62.4445%,27.6661%,1)"/>
  <circle cx="0" cy="14" r="1" fill="srgba(35,158,70,1)"/>
  <circle cx="1" cy="14" r="1" fill="srgba(35,158,70,1)"/>
  <circle cx="2" cy="14" r="1" fill="srgba(35,158,70,1)"/>
  <circle cx="3" cy="14" r="1" fill="srgba(35,158,70,1)"/>
  <circle cx="4" cy="14" r="1" fill="srgba(35,158,70,1)"/>
  <circle cx="5" cy="14" r="1" fill="srgba(35,158,70,1)"/>
  <circle cx="6" cy="14" r="1" fill="srgba(35,158,70,1)"/>
  <circle cx="7" cy="14" r="1" fill="srgba(35,158,70,1)"/>
  <circle cx="8" cy="14" r="1" fill="srgba(35,158,70,1)"/>
  <circle cx="9" cy="14" r="1" fill="srgba(35,158,70,1)"/>
  <circle cx="10" cy="14" r="1" fill="srgba(35,158,70,1)"/>
  <circle cx="11" cy="14" r="1" fill="srgba(35,158,70,1)"/>
  <circle cx="12" cy="14" r="1" fill="srgba(35,158,70,1)"/>
  <circle cx="13" cy="14" r="1" fill="srgba(35,158,70,1)"/>
  <circle cx="14" cy="14" r="1" fill="srgba(35,158,70,1)"/>
  <circle cx="15" cy="14" r="1" fill="srgba(35,158,70,1)"/>
  <circle cx="0" cy="15" r="1" fill="srgba(35,158,70,1)"/>
  <circle cx="1" cy="15" r="1" fill="srgba(35,158,70,1)"/>
  <circle cx="2" cy="15" r="1" fill="srgba(35,158,70,1)"/>
  <circle cx="3" cy="15" r="1" fill="srgba(35,158,70,1)"/>
  <circle cx="4" cy="15" r="1" fill="srgba(35,158,70,1)"/>
  <circle cx="5" cy="15" r="1" fill="srgba(35,158,70,1)"/>
  <circle cx="6" cy="15" r="1" fill="srgba(35,158,70,1)"/>
  <circle cx="7" cy="15" r="1" fill="srgba(35,158,70,1)"/>
  <circle cx="8" cy="15" r="1" fill="srgba(35,158,70,1)"/>
  <circle cx="9" cy="15" r="1" fill="srgba(35,158,70,1)"/>
  <circle cx="10" cy="15" r="1" fill="srgba(35,158,70,1)"/>
  <circle cx="11" cy="15" r="1" fill="srgba(35,158,70,1)"/>
  <circle cx="12" cy="15" r="1" fill="srgba(35,158,70,1)"/>
  <circle cx="13" cy="15" r="1" fill="srgba(35,158,70,1)"/>
  <circle cx="14" cy="15" r="1" fill="srgba(35,158,70,1)"/>
  <circle cx="15" cy="15" r="1" fill="srgba(35,158,70,1)"/>
</svg>
