<?xml version="1.0" standalone="no"?>
<!DOCTYPE svg PUBLIC "-//W3C//DTD SVG 20010904//EN"
  "http://www.w3.org/TR/2001/REC-SVG-20010904/DTD/svg10.dtd">
<svg width="16" height="16">
  <circle cx="0" cy="0" r="1" fill="srgba(193,39,45,1)"/>
  <circle cx="1" cy="0" r="1" fill="srgba(193,39,45,1)"/>
  <circle cx="2" cy="0" r="1" fill="srgba(193,39,45,1)"/>
  <circle cx="3" cy="0" r="1" fill="srgba(193,39,45,1)"/>
  <circle cx="4" cy="0" r="1" fill="srgba(193,39,45,1)"/>
  <circle cx="5" cy="0" r="1" fill="srgba(193,39,45,1)"/>
  <circle cx="6" cy="0" r="1" fill="srgba(193,39,45,1)"/>
  <circle cx="7" cy="0" r="1" fill="srgba(193,39,45,1)"/>
  <circle cx="8" cy="0" r="1" fill="srgba(193,39,45,1)"/>
  <circle cx="9" cy="0" r="1" fill="srgba(193,39,45,1)"/>
  <circle cx="10" cy="0" r="1" fill="srgba(193,39,45,1)"/>
  <circle cx="11" cy="0" r="1" fill="srgba(193,39,45,1)"/>
  <circle cx="12" cy="0" r="1" fill="srgba(193,39,45,1)"/>
  <circle cx="13" cy="0" r="1" fill="srgba(193,39,45,1)"/>
  <circle cx="14" cy="0" r="1" fill="srgba(193,39,45,1)"/>
  <circle cx="15" cy="0" r="1" fill="srgba(193,39,45,1)"/>
  <circle cx="0" cy="1" r="1" fill="srgba(193,39,45,1)"/>
  <circle cx="1" cy="1" r="1" fill="srgba(193,39,45,1)"/>
  <circle cx="2" cy="1" r="1" fill="srgba(193,39,45,1)"/>
  <circle cx="3" cy="1" r="1" fill="srgba(193,39,45,1)"/>
  <circle cx="4" cy="1" r="1" fill="srgba(193,39,45,1)"/>
  <circle cx="5" cy="1" r="1" fill="srgba(193,39,45,1)"/>
  <circle cx="6" cy="1" r="1" fill="srgba(193,39,45,1)"/>
  <circle cx="7" cy="1" r="1" fill="srgba(193,39,45,1)"/>
  <circle cx="8" cy="1" r="1" fill="srgba(193,39,45,1)"/>
  <circle cx="9" cy="1" r="1" fill="srgba(193,39,45,1)"/>
  <circle cx="10" cy="1" r="1" fill="srgba(193,39,45,1)"/>
  <circle cx="11" cy="1" r="1" fill="srgba(193,39,45,1)"/>
  <circle cx="12" cy="1" r="1" fill="srgba(193,39,45,1)"/>
  <circle cx="13" cy="1" r="1" fill="srgba(193,39,45,1)"/>
  <circle cx="14" cy="1" r="1" fill="srgba(193,39,45,1)"/>
  <circle cx="15" cy="1" r="1" fill="srgba(193,39,45,1)"/>
  <circle cx="0" cy="2" r="1" fill="srgba(193,39,45,1)"/>
  <circle cx="1" cy="2" r="1" fill="srgba(193,39,45,1)"/>
  <circle cx="2" cy="2" r="1" fill="srgba(193,39,45,1)"/>
  <circle cx="3" cy="2" r="1" fill="srgba(193,39,45,1)"/>
  <circle cx="4" cy="2" r="1" fill="srgba(193,39,45,1)"/>
  <circle cx="5" cy="2" r="1" fill="srgba(193,39,45,1)"/>
  <circle cx="6" cy="2" r="1" fill="srgba(193,39,45,1)"/>
  <circle cx="7" cy="2" r="1" fill="srgba(193,39,45,1)"/>
  <circle cx="8" cy="2" r="1" fill="srgba(193,39,45,1)"/>
  <circle cx="9" cy="2" r="1" fill="srgba(193,39,45,1)"/>
  <circle cx="10" cy="2" r="1" fill="srgba(193,39,45,1)"/>
  <circle cx="11" cy="2" r="1" fill="srgba(193,39,45,1)"/>
  <circle cx="12" cy="2" r="1" fill="srgba(193,39,45,1)"/>
  <circle cx="13" cy="2" r="1" fill="srgba(193,39,45,1)"/>
  <circle cx="14" cy="2" r="1" fill="srgba(193,39,45,1)"/>
  <circle cx="15" cy="2" r="1" fill="srgba(193,39,45,1)"/>
  <circle cx="0" cy="3" r="1" fill="srgba(193,39,45,1)"/>
  <circle cx="1" cy="3" r="1" fill="srgba(193,39,45,1)"/>
  <circle cx="2" cy="3" r="1" fill="srgba(193,39,45,1)"/>
  <circle cx="3" cy="3" r="1" fill="srgba(193,39,45,1)"/>
  <circle cx="4" cy="3" r="1" fill="srgba(193,39,45,1)"/>
  <circle cx="5" cy="3" r="1" fill="srgba(193,39,45,1)"/>
  <circle cx="6" cy="3" r="1" fill="srgba(193,39,45,1)"/>
  <circle cx="7" cy="3" r="1" fill="srgba(193,39,45,1)"/>
  <circle cx="8" cy="3" r="1" fill="srgba(193,39,45,1)"/>
  <circle cx="9" cy="3" r="1" fill="srgba(193,39,45,1)"/>
  <circle cx="10" cy="3" r="1" fill="srgba(193,39,45,1)"/>
  <circle cx="11" cy="3" r="1" fill="srgba(193,39,45,1)"/>
  <circle cx="12" cy="3" r="1" fill="srgba(193,39,45,1)"/>
  <circle cx="13" cy="3" r="1" fill="srgba(193,39,45,1)"/>
  <circle cx="14" cy="3" r="1" fill="srgba(193,39,45,1)"/>
  <circle cx="15" cy="3" r="1" fill="srgba(193,39,45,1)"/>
  <circle cx="0" cy="4" r="1" fill="srgba(193,39,45,1)"/>
  <circle cx="1" cy="4" r="1" fill="srgba(193,39,45,1)"/>
  <circle cx="2" cy="4" r="1" fill="srgba(193,39,45,1)"/>
  <circle cx="3" cy="4" r="1" fill="srgba(193,39,45,1)"/>
  <circle cx="4" cy="4" r="1" fill="srgba(193,39,45,1)"/>
  <circle cx="5" cy="4" r="1" fill="srgba(193,39,45,1)"/>
  <circle cx="6" cy="4" r="1" fill="srgba(75.6725%,15.2987%,17.6471%,1)"/>
  <circle cx="7" cy="4" r="1" fill="srgba(75.9319%,15.2193%,17.6394%,1)"/>
  <circle cx="8" cy="4" r="1" fill="srgba(75.9319%,15.2193%,17.6394%,1)"/>
  <circle cx="9" cy="4" r="1" fill="srgba(75.6725%,15.2987%,17.6471%,1)"/>
  <circle cx="10" cy="4" r="1" fill="srgba(193,39,45,1)"/>
  <circle cx="11" cy="4" r="1" fill="srgba(193,39,45,1)"/>
  <circle cx="12" cy="4" r="1" fill="srgba(193,39,45,1)"/>
  <circle cx="13" cy="4" r="1" fill="srgba(193,39,45,1)"/>
  <circle cx="14" cy="4" r="1" fill="srgba(193,39,45,1)"/>
  <circle cx="15" cy="4" r="1" fill="srgba(193,39,45,1)"/>
  <circle cx="0" cy="5" r="1" fill="srgba(193,39,45,1)"/>
  <circle cx="1" cy="5" r="1" fill="srgba(193,39,45,1)"/>
  <circle cx="2" cy="5" r="1" fill="srgba(193,39,45,1)"/>
  <circle cx="3" cy="5" r="1" fill="srgba(193,39,45,1)"/>
  <circle cx="4" cy="5" r="1" fill="srgba(75.6832%,15.2956%,17.6471%,1)"/>
  <circle cx="5" cy="5" r="1" fill="srgba(75.7671%,15.2697%,17.644%,1)"/>
  <circle cx="6" cy="5" r="1" fill="srgba(76.286%,15.111%,17.6287%,1)"/>
  <circle cx="7" cy="5" r="1" fill="srgba(69.3233%,17.2396%,17.8454%,1)"/>
  <circle cx="8" cy="5" r="1" fill="srgba(69.3248%,17.2396%,17.8454%,1)"/>
  <circle cx="9" cy="5" r="1" fill="srgba(76.286%,15.111%,17.6287%,1)"/>
  <circle cx="10" cy="5" r="1" fill="srgba(75.7671%,15.2697%,17.644%,1)"/>
  <circle cx="11" cy="5" r="1" fill="srgba(75.6832%,15.2956%,17.6471%,1)"/>
  <circle cx="12" cy="5" r="1" fill="srgba(193,39,45,1)"/>
  <circle cx="13" cy="5" r="1" fill="srgba(193,39,45,1)"/>
  <circle cx="14" cy="5" r="1" fill="srgba(193,39,45,1)"/>
  <circle cx="15" cy="5" r="1" fill="srgba(193,39,45,1)"/>
  <circle cx="0" cy="6" r="1" fill="srgba(193,39,45,1)"/>
  <circle cx="1" cy="6" r="1" fill="srgba(193,39,45,1)"/>
  <circle cx="2" cy="6" r="1" fill="srgba(193,39,45,1)"/>
  <circle cx="3" cy="6" r="1" fill="srgba(193,39,45,1)"/>
  <circle cx="4" cy="6" r="1" fill="srgba(75.7549%,15.2728%,17.6455%,1)"/>
  <circle cx="5" cy="6" r="1" fill="srgba(74.0307%,15.8007%,17.6974%,1)"/>
  <circle cx="6" cy="6" r="1" fill="srgba(72.6986%,16.2081%,17.7386%,1)"/>
  <circle cx="7" cy="6" r="1" fill="srgba(46.6941%,24.1581%,18.5504%,1)"/>
  <circle cx="8" cy="6" r="1" fill="srgba(46.7002%,24.155%,18.5489%,1)"/>
  <circle cx="9" cy="6" r="1" fill="srgba(72.6986%,16.2081%,17.7386%,1)"/>
  <circle cx="10" cy="6" r="1" fill="srgba(74.0322%,15.8007%,17.6974%,1)"/>
  <circle cx="11" cy="6" r="1" fill="srgba(75.7549%,15.2728%,17.6455%,1)"/>
  <circle cx="12" cy="6" r="1" fill="srgba(193,39,45,1)"/>
  <circle cx="13" cy="6" r="1" fill="srgba(193,39,45,1)"/>
  <circle cx="14" cy="6" r="1" fill="srgba(193,39,45,1)"/>
  <circle cx="15" cy="6" r="1" fill="srgba(193,39,45,1)"/>
  <circle cx="0" cy="7" r="1" fill="srgba(193,39,45,1)"/>
  <circle cx="1" cy="7" r="1" fill="srgba(193,39,45,1)"/>
  <circle cx="2" cy="7" r="1" fill="srgba(193,39,45,1)"/>
  <circle cx="3" cy="7" r="1" fill="srgba(193,39,45,1)"/>
  <circle cx="4" cy="7" r="1" fill="srgba(76.08%,15.1736%,17.6349%,1)"/>
  <circle cx="5" cy="7" r="1" fill="srgba(67.8157%,17.702%,17.8912%,1)"/>
  <circle cx="6" cy="7" r="1" fill="srgba(36.1929%,27.3686%,18.8739%,1)"/>
  <circle cx="7" cy="7" r="1" fill="srgba(27.2374%,30.1091%,19.1547%,1)"/>
  <circle cx="8" cy="7" r="1" fill="srgba(27.2358%,30.1076%,19.1547%,1)"/>
  <circle cx="9" cy="7" r="1" fill="srgba(36.2005%,27.3671%,18.8739%,1)"/>
  <circle cx="10" cy="7" r="1" fill="srgba(67.8233%,17.6989%,17.8897%,1)"/>
  <circle cx="11" cy="7" r="1" fill="srgba(76.08%,15.1736%,17.6349%,1)"/>
  <circle cx="12" cy="7" r="1" fill="srgba(193,39,45,1)"/>
  <circle cx="13" cy="7" r="1" fill="srgba(193,39,45,1)"/>
  <circle cx="14" cy="7" r="1" fill="srgba(193,39,45,1)"/>
  <circle cx="15" cy="7" r="1" fill="srgba(193,39,45,1)"/>
  <circle cx="0" cy="8" r="1" fill="srgba(193,39,45,1)"/>
  <circle cx="1" cy="8" r="1" fill="srgba(193,39,45,1)"/>
  <circle cx="2" cy="8" r="1" fill="srgba(193,39,45,1)"/>
  <circle cx="3" cy="8" r="1" fill="srgba(193,39,45,1)"/>
  <circle cx="4" cy="8" r="1" fill="srgba(75.6985%,15.2911%,17.6471%,1)"/>
  <circle cx="5" cy="8" r="1" fill="srgba(76.3485%,15.0912%,17.6272%,1)"/>
  <circle cx="6" cy="8" r="1" fill="srgba(57.1481%,20.9613%,18.2238%,1)"/>
  <circle cx="7" cy="8" r="1" fill="srgba(24.6952%,30.8827%,19.2325%,1)"/>
  <circle cx="8" cy="8" r="1" fill="srgba(24.6952%,30.8827%,19.2325%,1)"/>
  <circle cx="9" cy="8" r="1" fill="srgba(57.1572%,20.9567%,18.2238%,1)"/>
  <circle cx="10" cy="8" r="1" fill="srgba(76.3485%,15.0912%,17.6272%,1)"/>
  <circle cx="11" cy="8" r="1" fill="srgba(75.6985%,15.2911%,17.6471%,1)"/>
  <circle cx="12" cy="8" r="1" fill="srgba(193,39,45,1)"/>
  <circle cx="13" cy="8" r="1" fill="srgba(193,39,45,1)"/>
  <circle cx="14" cy="8" r="1" fill="srgba(193,39,45,1)"/>
  <circle cx="15" cy="8" r="1" fill="srgba(193,39,45,1)"/>
  <circle cx="0" cy="9" r="1" fill="srgba(193,39,45,1)"/>
  <circle cx="1" cy="9" r="1" fill="srgba(193,39,45,1)"/>
  <circle cx="2" cy="9" r="1" fill="srgba(193,39,45,1)"/>
  <circle cx="3" cy="9" r="1" fill="srgba(193,39,45,1)"/>
  <circle cx="4" cy="9" r="1" fill="srgba(193,39,45,1)"/>
  <circle cx="5" cy="9" r="1" fill="srgba(76.4874%,15.05%,17.6226%,1)"/>
  <circle cx="6" cy="9" r="1" fill="srgba(56.5438%,21.1475%,18.2422%,1)"/>
  <circle cx="7" cy="9" r="1" fill="srgba(46.9566%,24.0772%,18.5412%,1)"/>
  <circle cx="8" cy="9" r="1" fill="srgba(46.9551%,24.0772%,18.5397%,1)"/>
  <circle cx="9" cy="9" r="1" fill="srgba(56.553%,21.1429%,18.2406%,1)"/>
  <circle cx="10" cy="9" r="1" fill="srgba(76.4874%,15.05%,17.6226%,1)"/>
  <circle cx="11" cy="9" r="1" fill="srgba(193,39,45,1)"/>
  <circle cx="12" cy="9" r="1" fill="srgba(193,39,45,1)"/>
  <circle cx="13" cy="9" r="1" fill="srgba(193,39,45,1)"/>
  <circle cx="14" cy="9" r="1" fill="srgba(193,39,45,1)"/>
  <circle cx="15" cy="9" r="1" fill="srgba(193,39,45,1)"/>
  <circle cx="0" cy="10" r="1" fill="srgba(193,39,45,1)"/>
  <circle cx="1" cy="10" r="1" fill="srgba(193,39,45,1)"/>
  <circle cx="2" cy="10" r="1" fill="srgba(193,39,45,1)"/>
  <circle cx="3" cy="10" r="1" fill="srgba(193,39,45,1)"/>
  <circle cx="4" cy="10" r="1" fill="srgba(193,39,45,1)"/>
  <circle cx="5" cy="10" r="1" fill="srgba(75.6878%,15.2941%,17.6471%,1)"/>
  <circle cx="6" cy="10" r="1" fill="srgba(72.9427%,16.1334%,17.7325%,1)"/>
  <circle cx="7" cy="10" r="1" fill="srgba(75.6756%,15.2972%,17.6471%,1)"/>
  <circle cx="8" cy="10" r="1" fill="srgba(75.6756%,15.2972%,17.6471%,1)"/>
  <circle cx="9" cy="10" r="1" fill="srgba(72.9442%,16.1318%,17.7325%,1)"/>
  <circle cx="10" cy="10" r="1" fill="srgba(75.6893%,15.2926%,17.6471%,1)"/>
  <circle cx="11" cy="10" r="1" fill="srgba(193,39,45,1)"/>
  <circle cx="12" cy="10" r="1" fill="srgba(193,39,45,1)"/>
  <circle cx="13" cy="10" r="1" fill="srgba(193,39,45,1)"/>
  <circle cx="14" cy="10" r="1" fill="srgba(193,39,45,1)"/>
  <circle cx="15" cy="10" r="1" fill="srgba(193,39,45,1)"/>
  <circle cx="0" cy="11" r="1" fill="srgba(193,39,45,1)"/>
  <circle cx="1" cy="11" r="1" fill="srgba(193,39,45,1)"/>
  <circle cx="2" cy="11" r="1" fill="srgba(193,39,45,1)"/>
  <circle cx="3" cy="11" r="1" fill="srgba(193,39,45,1)"/>
  <circle cx="4" cy="11" r="1" fill="srgba(193,39,45,1)"/>
  <circle cx="5" cy="11" r="1" fill="srgba(193,39,45,1)"/>
  <circle cx="6" cy="11" r="1" fill="srgba(75.8511%,15.2438%,17.6425%,1)"/>
  <circle cx="7" cy="11" r="1" fill="srgba(75.7275%,15.2819%,17.6455%,1)"/>
  <circle cx="8" cy="11" r="1" fill="srgba(75.7275%,15.2819%,17.6455%,1)"/>
  <circle cx="9" cy="11" r="1" fill="srgba(75.8511%,15.2438%,17.6425%,1)"/>
  <circle cx="10" cy="11" r="1" fill="srgba(193,39,45,1)"/>
  <circle cx="11" cy="11" r="1" fill="srgba(193,39,45,1)"/>
  <circle cx="12" cy="11" r="1" fill="srgba(193,39,45,1)"/>
  <circle cx="13" cy="11" r="1" fill="srgba(193,39,45,1)"/>
  <circle cx="14" cy="11" r="1" fill="srgba(193,39,45,1)"/>
  <circle cx="15" cy="11" r="1" fill="srgba(193,39,45,1)"/>
  <circle cx="0" cy="12" r="1" fill="srgba(193,39,45,1)"/>
  <circle cx="1" cy="12" r="1" fill="srgba(193,39,45,1)"/>
  <circle cx="2" cy="12" r="1" fill="srgba(193,39,45,1)"/>
  <circle cx="3" cy="12" r="1" fill="srgba(193,39,45,1)"/>
  <circle cx="4" cy="12" r="1" fill="srgba(193,39,45,1)"/>
  <circle cx="5" cy="12" r="1" fill="srgba(193,39,45,1)"/>
  <circle cx="6" cy="12" r="1" fill="srgba(193,39,45,1)"/>
  <circle cx="7" cy="12" r="1" fill="srgba(193,39,45,1)"/>
  <circle cx="8" cy="12" r="1" fill="srgba(193,39,45,1)"/>
  <circle cx="9" cy="12" r="1" fill="srgba(193,39,45,1)"/>
  <circle cx="10" cy="12" r="1" fill="srgba(193,39,45,1)"/>
  <circle cx="11" cy="12" r="1" fill="srgba(193,39,45,1)"/>
  <circle cx="12" cy="12" r="1" fill="srgba(193,39,45,1)"/>
  <circle cx="13" cy="12" r="1" fill="srgba(193,39,45,1)"/>
  <circle cx="14" cy="12" r="1" fill="srgba(193,39,45,1)"/>
  <circle cx="15" cy="12" r="1" fill="srgba(193,39,45,1)"/>
  <circle cx="0" cy="13" r="1" fill="srgba(193,39,45,1)"/>
  <circle cx="1" cy="13" r="1" fill="srgba(193,39,45,1)"/>
  <circle cx="2" cy="13" r="1" fill="srgba(193,39,45,1)"/>
  <circle cx="3" cy="13" r="1" fill="srgba(193,39,45,1)"/>
  <circle cx="4" cy="13" r="1" fill="srgba(193,39,45,1)"/>
  <circle cx="5" cy="13" r="1" fill="srgba(193,39,45,1)"/>
  <circle cx="6" cy="13" r="1" fill="srgba(193,39,45,1)"/>
  <circle cx="7" cy="13" r="1" fill="srgba(193,39,45,1)"/>
  <circle cx="8" cy="13" r="1" fill="srgba(193,39,45,1)"/>
  <circle cx="9" cy="13" r="1" fill="srgba(193,39,45,1)"/>
  <circle cx="10" cy="13" r="1" fill="srgba(193,39,45,1)"/>
  <circle cx="11" cy="13" r="1" fill="srgba(193,39,45,1)"/>
  <circle cx="12" cy="13" r="1" fill="srgba(193,39,45,1)"/>
  <circle cx="13" cy="13" r="1" fill="srgba(193,39,45,1)"/>
  <circle cx="14" cy="13" r="1" fill="srgba(193,39,45,1)"/>
  <circle cx="15" cy="13" r="1" fill="srgba(193,39,45,1)"/>
  <circle cx="0" cy="14" r="1" fill="srgba(193,39,45,1)"/>
  <circle cx="1" cy="14" r="1" fill="srgba(193,39,45,1)"/>
  <circle cx="2" cy="14" r="1" fill="srgba(193,39,45,1)"/>
  <circle cx="3" cy="14" r="1" fill="srgba(193,39,45,1)"/>
  <circle cx="4" cy="14" r="1" fill="srgba(193,39,45,1)"/>
  <circle cx="5" cy="14" r="1" fill="srgba(193,39,45,1)"/>
  <circle cx="6" cy="14" r="1" fill="srgba(193,39,45,1)"/>
  <circle cx="7" cy="14" r="1" fill="srgba(193,39,45,1)"/>
  <circle cx="8" cy="14" r="1" fill="srgba(193,39,45,1)"/>
  <circle cx="9" cy="14" r="1" fill="srgba(193,39,45,1)"/>
  <circle cx="10" cy="14" r="1" fill="srgba(193,39,45,1)"/>
  <circle cx="11" cy="14" r="1" fill="srgba(193,39,45,1)"/>
  <circle cx="12" cy="14" r="1" fill="srgba(193,39,45,1)"/>
  <circle cx="13" cy="14" r="1" fill="srgba(193,39,45,1)"/>
  <circle cx="14" cy="14" r="1" fill="srgba(193,39,45,1)"/>
  <circle cx="15" cy="14" r="1" fill="srgba(193,39,45,1)"/>
  <circle cx="0" cy="15" r="1" fill="srgba(193,39,45,1)"/>
  <circle cx="1" cy="15" r="1" fill="srgba(193,39,45,1)"/>
  <circle cx="2" cy="15" r="1" fill="srgba(193,39,45,1)"/>
  <circle cx="3" cy="15" r="1" fill="srgba(193,39,45,1)"/>
  <circle cx="4" cy="15" r="1" fill="srgba(193,39,45,1)"/>
  <circle cx="5" cy="15" r="1" fill="srgba(193,39,45,1)"/>
  <circle cx="6" cy="15" r="1" fill="srgba(193,39,45,1)"/>
  <circle cx="7" cy="15" r="1" fill="srgba(193,39,45,1)"/>
  <circle cx="8" cy="15" r="1" fill="srgba(193,39,45,1)"/>
  <circle cx="9" cy="15" r="1" fill="srgba(193,39,45,1)"/>
  <circle cx="10" cy="15" r="1" fill="srgba(193,39,45,1)"/>
  <circle cx="11" cy="15" r="1" fill="srgba(193,39,45,1)"/>
  <circle cx="12" cy="15" r="1" fill="srgba(193,39,45,1)"/>
  <circle cx="13" cy="15" r="1" fill="srgba(193,39,45,1)"/>
  <circle cx="14" cy="15" r="1" fill="srgba(193,39,45,1)"/>
  <circle cx="15" cy="15" r="1" fill="srgba(193,39,45,1)"/>
</svg>
