<?xml version="1.0" standalone="no"?>
<!DOCTYPE svg PUBLIC "-//W3C//DTD SVG 20010904//EN"
  "http://www.w3.org/TR/2001/REC-SVG-20010904/DTD/svg10.dtd">
<svg width="16" height="16">
  <circle cx="0" cy="0" r="1" fill="srgba(0,49,156,1)"/>
  <circle cx="1" cy="0" r="1" fill="srgba(0,49,156,1)"/>
  <circle cx="2" cy="0" r="1" fill="srgba(0,49,156,1)"/>
  <circle cx="3" cy="0" r="1" fill="srgba(0%,19.1806%,61.2009%,1)"/>
  <circle cx="4" cy="0" r="1" fill="srgba(0.570687%,19.6185%,60.9522%,1)"/>
  <circle cx="5" cy="0" r="1" fill="srgba(65.098%,63.4562%,21.9272%,1)"/>
  <circle cx="6" cy="0" r="1" fill="srgba(255,225,0,1)"/>
  <circle cx="7" cy="0" r="1" fill="srgba(255,222,0,1)"/>
  <circle cx="8" cy="0" r="1" fill="srgba(255,222,0,1)"/>
  <circle cx="9" cy="0" r="1" fill="srgba(100%,88.3482%,0%,1)"/>
  <circle cx="10" cy="0" r="1" fill="srgba(95.4086%,60.827%,2.80308%,1)"/>
  <circle cx="11" cy="0" r="1" fill="srgba(87.1168%,13.286%,6.37064%,1)"/>
  <circle cx="12" cy="0" r="1" fill="srgba(87.0527%,12.9076%,6.27146%,1)"/>
  <circle cx="13" cy="0" r="1" fill="srgba(222,33,16,1)"/>
  <circle cx="14" cy="0" r="1" fill="srgba(222,33,16,1)"/>
  <circle cx="15" cy="0" r="1" fill="srgba(222,33,16,1)"/>
  <circle cx="0" cy="1" r="1" fill="srgba(0,49,156,1)"/>
  <circle cx="1" cy="1" r="1" fill="srgba(0,49,156,1)"/>
  <circle cx="2" cy="1" r="1" fill="srgba(0,49,156,1)"/>
  <circle cx="3" cy="1" r="1" fill="srgba(0%,19.1806%,61.2009%,1)"/>
  <circle cx="4" cy="1" r="1" fill="srgba(0.570687%,19.6185%,60.9522%,1)"/>
  <circle cx="5" cy="1" r="1" fill="srgba(65.098%,63.4562%,21.9272%,1)"/>
  <circle cx="6" cy="1" r="1" fill="srgba(255,225,0,1)"/>
  <circle cx="7" cy="1" r="1" fill="srgba(255,222,0,1)"/>
  <circle cx="8" cy="1" r="1" fill="srgba(255,222,0,1)"/>
  <circle cx="9" cy="1" r="1" fill="srgba(100%,88.3482%,0%,1)"/>
  <circle cx="10" cy="1" r="1" fill="srgba(95.4086%,60.827%,2.80308%,1)"/>
  <circle cx="11" cy="1" r="1" fill="srgba(87.1168%,13.286%,6.37064%,1)"/>
  <circle cx="12" cy="1" r="1" fill="srgba(87.0527%,12.9076%,6.27146%,1)"/>
  <circle cx="13" cy="1" r="1" fill="srgba(222,33,16,1)"/>
  <circle cx="14" cy="1" r="1" fill="srgba(222,33,16,1)"/>
  <circle cx="15" cy="1" r="1" fill="srgba(222,33,16,1)"/>
  <circle cx="0" cy="2" r="1" fill="srgba(0,49,156,1)"/>
  <circle cx="1" cy="2" r="1" fill="srgba(0,49,156,1)"/>
  <circle cx="2" cy="2" r="1" fill="srgba(0,49,156,1)"/>
  <circle cx="3" cy="2" r="1" fill="srgba(0%,19.1806%,61.2009%,1)"/>
  <circle cx="4" cy="2" r="1" fill="srgba(0.570687%,19.6185%,60.9522%,1)"/>
  <circle cx="5" cy="2" r="1" fill="srgba(65.098%,63.4668%,21.9272%,1)"/>
  <circle cx="6" cy="2" r="1" fill="srgba(100%,88.2536%,0%,1)"/>
  <circle cx="7" cy="2" r="1" fill="srgba(100%,87.1%,0%,1)"/>
  <circle cx="8" cy="2" r="1" fill="srgba(100%,87.0695%,0%,1)"/>
  <circle cx="9" cy="2" r="1" fill="srgba(100%,88.3482%,0%,1)"/>
  <circle cx="10" cy="2" r="1" fill="srgba(95.4116%,60.8377%,2.80308%,1)"/>
  <circle cx="11" cy="2" r="1" fill="srgba(87.1168%,13.286%,6.37064%,1)"/>
  <circle cx="12" cy="2" r="1" fill="srgba(87.0527%,12.9076%,6.27146%,1)"/>
  <circle cx="13" cy="2" r="1" fill="srgba(222,33,16,1)"/>
  <circle cx="14" cy="2" r="1" fill="srgba(222,33,16,1)"/>
  <circle cx="15" cy="2" r="1" fill="srgba(222,33,16,1)"/>
  <circle cx="0" cy="3" r="1" fill="srgba(0,49,156,1)"/>
  <circle cx="1" cy="3" r="1" fill="srgba(0,49,156,1)"/>
  <circle cx="2" cy="3" r="1" fill="srgba(0,49,156,1)"/>
  <circle cx="3" cy="3" r="1" fill="srgba(0%,19.1836%,61.1963%,1)"/>
  <circle cx="4" cy="3" r="1" fill="srgba(0.556954%,19.5682%,61.0376%,1)"/>
  <circle cx="5" cy="3" r="1" fill="srgba(64.8417%,63.3204%,22.0768%,1)"/>
  <circle cx="6" cy="3" r="1" fill="srgba(100%,88.1285%,0%,1)"/>
  <circle cx="7" cy="3" r="1" fill="srgba(98.7396%,86.3233%,0.123598%,1)"/>
  <circle cx="8" cy="3" r="1" fill="srgba(99.7238%,87.2755%,0.0579843%,1)"/>
  <circle cx="9" cy="3" r="1" fill="srgba(100%,88.9082%,0%,1)"/>
  <circle cx="10" cy="3" r="1" fill="srgba(95.2285%,60.7279%,2.74052%,1)"/>
  <circle cx="11" cy="3" r="1" fill="srgba(87.3426%,13.0983%,6.29587%,1)"/>
  <circle cx="12" cy="3" r="1" fill="srgba(87.1046%,12.8969%,6.26688%,1)"/>
  <circle cx="13" cy="3" r="1" fill="srgba(87.0558%,12.9427%,6.27451%,1)"/>
  <circle cx="14" cy="3" r="1" fill="srgba(222,33,16,1)"/>
  <circle cx="15" cy="3" r="1" fill="srgba(222,33,16,1)"/>
  <circle cx="0" cy="4" r="1" fill="srgba(0,49,156,1)"/>
  <circle cx="1" cy="4" r="1" fill="srgba(0,49,156,1)"/>
  <circle cx="2" cy="4" r="1" fill="srgba(0,49,156,1)"/>
  <circle cx="3" cy="4" r="1" fill="srgba(0%,19.1592%,61.3321%,1)"/>
  <circle cx="4" cy="4" r="1" fill="srgba(2.27207%,19.855%,58.9609%,1)"/>
  <circle cx="5" cy="4" r="1" fill="srgba(55.7565%,50.3548%,23.6942%,1)"/>
  <circle cx="6" cy="4" r="1" fill="srgba(93.8277%,80.0885%,0.535592%,1)"/>
  <circle cx="7" cy="4" r="1" fill="srgba(85.0828%,67.5761%,4.95003%,1)"/>
  <circle cx="8" cy="4" r="1" fill="srgba(86.8208%,74.1772%,4.71504%,1)"/>
  <circle cx="9" cy="4" r="1" fill="srgba(90.6493%,78.2498%,3.4638%,1)"/>
  <circle cx="10" cy="4" r="1" fill="srgba(77.0871%,51.0277%,9.94125%,1)"/>
  <circle cx="11" cy="4" r="1" fill="srgba(80.6592%,16.1334%,8.07507%,1)"/>
  <circle cx="12" cy="4" r="1" fill="srgba(86.2638%,13.0831%,6.34623%,1)"/>
  <circle cx="13" cy="4" r="1" fill="srgba(87.1107%,12.9259%,6.26688%,1)"/>
  <circle cx="14" cy="4" r="1" fill="srgba(222,33,16,1)"/>
  <circle cx="15" cy="4" r="1" fill="srgba(222,33,16,1)"/>
  <circle cx="0" cy="5" r="1" fill="srgba(0,49,156,1)"/>
  <circle cx="1" cy="5" r="1" fill="srgba(0,49,156,1)"/>
  <circle cx="2" cy="5" r="1" fill="srgba(0,49,156,1)"/>
  <circle cx="3" cy="5" r="1" fill="srgba(0%,19.0921%,61.6312%,1)"/>
  <circle cx="4" cy="5" r="1" fill="srgba(6.3798%,20.9308%,54.3435%,1)"/>
  <circle cx="5" cy="5" r="1" fill="srgba(46.3157%,36.0662%,21.1826%,1)"/>
  <circle cx="6" cy="5" r="1" fill="srgba(84.5731%,71.0185%,4.14893%,1)"/>
  <circle cx="7" cy="5" r="1" fill="srgba(88.9555%,73.7667%,2.89158%,1)"/>
  <circle cx="8" cy="5" r="1" fill="srgba(67.3243%,53.9528%,9.81308%,1)"/>
  <circle cx="9" cy="5" r="1" fill="srgba(68.1453%,54.1451%,12.6192%,1)"/>
  <circle cx="10" cy="5" r="1" fill="srgba(52.4117%,37.4105%,16.8643%,1)"/>
  <circle cx="11" cy="5" r="1" fill="srgba(68.9433%,21.9821%,10.8186%,1)"/>
  <circle cx="12" cy="5" r="1" fill="srgba(84.8615%,13.3791%,6.59648%,1)"/>
  <circle cx="13" cy="5" r="1" fill="srgba(87.5364%,12.7337%,6.27298%,1)"/>
  <circle cx="14" cy="5" r="1" fill="srgba(87.2877%,12.8283%,6.29129%,1)"/>
  <circle cx="15" cy="5" r="1" fill="srgba(87.1382%,12.9015%,6.28061%,1)"/>
  <circle cx="0" cy="6" r="1" fill="srgba(0,49,156,1)"/>
  <circle cx="1" cy="6" r="1" fill="srgba(0,49,156,1)"/>
  <circle cx="2" cy="6" r="1" fill="srgba(0%,19.2126%,61.181%,1)"/>
  <circle cx="3" cy="6" r="1" fill="srgba(0%,19.0967%,61.6098%,1)"/>
  <circle cx="4" cy="6" r="1" fill="srgba(6.05478%,21.5946%,53.4752%,1)"/>
  <circle cx="5" cy="6" r="1" fill="srgba(41.9287%,35.1034%,19.1562%,1)"/>
  <circle cx="6" cy="6" r="1" fill="srgba(74.8989%,37.0916%,4.93629%,1)"/>
  <circle cx="7" cy="6" r="1" fill="srgba(79.4781%,41.5091%,2.39414%,1)"/>
  <circle cx="8" cy="6" r="1" fill="srgba(76.9314%,41.416%,2.16983%,1)"/>
  <circle cx="9" cy="6" r="1" fill="srgba(75.6497%,36.9986%,3.88495%,1)"/>
  <circle cx="10" cy="6" r="1" fill="srgba(48.5496%,35.9091%,14.0368%,1)"/>
  <circle cx="11" cy="6" r="1" fill="srgba(70.8507%,20.2609%,7.77752%,1)"/>
  <circle cx="12" cy="6" r="1" fill="srgba(81.5778%,15.7061%,5.69162%,1)"/>
  <circle cx="13" cy="6" r="1" fill="srgba(81.8906%,15.5016%,5.90066%,1)"/>
  <circle cx="14" cy="6" r="1" fill="srgba(83.3143%,14.7967%,6.0029%,1)"/>
  <circle cx="15" cy="6" r="1" fill="srgba(85.7481%,13.5897%,6.1799%,1)"/>
  <circle cx="0" cy="7" r="1" fill="srgba(0,49,156,1)"/>
  <circle cx="1" cy="7" r="1" fill="srgba(0,49,156,1)"/>
  <circle cx="2" cy="7" r="1" fill="srgba(0%,19.0555%,61.4435%,1)"/>
  <circle cx="3" cy="7" r="1" fill="srgba(0%,21.5518%,57.3816%,1)"/>
  <circle cx="4" cy="7" r="1" fill="srgba(4.55787%,35.3017%,32.7459%,1)"/>
  <circle cx="5" cy="7" r="1" fill="srgba(29.6498%,44.9149%,12.3964%,1)"/>
  <circle cx="6" cy="7" r="1" fill="srgba(49.6284%,35.1324%,3.25017%,1)"/>
  <circle cx="7" cy="7" r="1" fill="srgba(66.6926%,45.7572%,0.796521%,1)"/>
  <circle cx="8" cy="7" r="1" fill="srgba(69.601%,48.8167%,0.376898%,1)"/>
  <circle cx="9" cy="7" r="1" fill="srgba(65.3971%,32.166%,4.75471%,1)"/>
  <circle cx="10" cy="7" r="1" fill="srgba(46.2638%,42.4308%,13.2555%,1)"/>
  <circle cx="11" cy="7" r="1" fill="srgba(63.7385%,36.8383%,6.23941%,1)"/>
  <circle cx="12" cy="7" r="1" fill="srgba(72.195%,20.6546%,5.00343%,1)"/>
  <circle cx="13" cy="7" r="1" fill="srgba(74.3923%,19.2111%,5.35897%,1)"/>
  <circle cx="14" cy="7" r="1" fill="srgba(78.0911%,17.3846%,5.626%,1)"/>
  <circle cx="15" cy="7" r="1" fill="srgba(83.8743%,14.5174%,6.04562%,1)"/>
  <circle cx="0" cy="8" r="1" fill="srgba(0,49,156,1)"/>
  <circle cx="1" cy="8" r="1" fill="srgba(0,49,156,1)"/>
  <circle cx="2" cy="8" r="1" fill="srgba(0%,18.9425%,61.6266%,1)"/>
  <circle cx="3" cy="8" r="1" fill="srgba(0%,23.415%,54.3908%,1)"/>
  <circle cx="4" cy="8" r="1" fill="srgba(5.15297%,42.4323%,20.4044%,1)"/>
  <circle cx="5" cy="8" r="1" fill="srgba(21.0132%,47.9438%,9.6849%,1)"/>
  <circle cx="6" cy="8" r="1" fill="srgba(27.628%,46.5232%,26.0243%,1)"/>
  <circle cx="7" cy="8" r="1" fill="srgba(75.5459%,71.4931%,17.8317%,1)"/>
  <circle cx="8" cy="8" r="1" fill="srgba(81.3291%,75.613%,17.0809%,1)"/>
  <circle cx="9" cy="8" r="1" fill="srgba(53.9269%,37.7127%,57.1832%,1)"/>
  <circle cx="10" cy="8" r="1" fill="srgba(57.2641%,41.3672%,22.0508%,1)"/>
  <circle cx="11" cy="8" r="1" fill="srgba(80.5264%,26.8345%,7.52728%,1)"/>
  <circle cx="12" cy="8" r="1" fill="srgba(87.9713%,12.2728%,6.17838%,1)"/>
  <circle cx="13" cy="8" r="1" fill="srgba(87.4769%,12.7337%,6.30503%,1)"/>
  <circle cx="14" cy="8" r="1" fill="srgba(87.3655%,12.7886%,6.2974%,1)"/>
  <circle cx="15" cy="8" r="1" fill="srgba(87.1687%,12.8862%,6.28214%,1)"/>
  <circle cx="0" cy="9" r="1" fill="srgba(0,49,156,1)"/>
  <circle cx="1" cy="9" r="1" fill="srgba(0,49,156,1)"/>
  <circle cx="2" cy="9" r="1" fill="srgba(0%,18.9868%,61.5564%,1)"/>
  <circle cx="3" cy="9" r="1" fill="srgba(0%,22.4857%,55.8999%,1)"/>
  <circle cx="4" cy="9" r="1" fill="srgba(1.09865%,40.4791%,23.3402%,1)"/>
  <circle cx="5" cy="9" r="1" fill="srgba(20.4273%,49.6773%,8.02472%,1)"/>
  <circle cx="6" cy="9" r="1" fill="srgba(39.4263%,50.9865%,24.2344%,1)"/>
  <circle cx="7" cy="9" r="1" fill="srgba(51.1955%,63.7766%,17.5662%,1)"/>
  <circle cx="8" cy="9" r="1" fill="srgba(51.7861%,61.1719%,20.4791%,1)"/>
  <circle cx="9" cy="9" r="1" fill="srgba(47.0924%,48.2399%,39.6551%,1)"/>
  <circle cx="10" cy="9" r="1" fill="srgba(56.8048%,45.1713%,16.7422%,1)"/>
  <circle cx="11" cy="9" r="1" fill="srgba(79.0402%,19.2218%,8.365%,1)"/>
  <circle cx="12" cy="9" r="1" fill="srgba(87.5868%,12.4743%,6.14481%,1)"/>
  <circle cx="13" cy="9" r="1" fill="srgba(87.0863%,12.9274%,6.27604%,1)"/>
  <circle cx="14" cy="9" r="1" fill="srgba(87.0634%,12.9381%,6.27451%,1)"/>
  <circle cx="15" cy="9" r="1" fill="srgba(222,33,16,1)"/>
  <circle cx="0" cy="10" r="1" fill="srgba(0,49,156,1)"/>
  <circle cx="1" cy="10" r="1" fill="srgba(0,49,156,1)"/>
  <circle cx="2" cy="10" r="1" fill="srgba(0%,19.0112%,61.5152%,1)"/>
  <circle cx="3" cy="10" r="1" fill="srgba(0%,22.1225%,56.5209%,1)"/>
  <circle cx="4" cy="10" r="1" fill="srgba(0.392157%,38.2956%,27.2801%,1)"/>
  <circle cx="5" cy="10" r="1" fill="srgba(24.0681%,47.4525%,3.30053%,1)"/>
  <circle cx="6" cy="10" r="1" fill="srgba(68.7953%,48.7877%,1.56405%,1)"/>
  <circle cx="7" cy="10" r="1" fill="srgba(58.2361%,55.3338%,9.78714%,1)"/>
  <circle cx="8" cy="10" r="1" fill="srgba(52.7535%,47.4311%,14.4396%,1)"/>
  <circle cx="9" cy="10" r="1" fill="srgba(78.3444%,49.8543%,3.46838%,1)"/>
  <circle cx="10" cy="10" r="1" fill="srgba(70.4967%,46.4912%,7.57916%,1)"/>
  <circle cx="11" cy="10" r="1" fill="srgba(75.8618%,18.8434%,8.28412%,1)"/>
  <circle cx="12" cy="10" r="1" fill="srgba(86.1463%,13.3486%,6.04257%,1)"/>
  <circle cx="13" cy="10" r="1" fill="srgba(86.6636%,13.1365%,6.24552%,1)"/>
  <circle cx="14" cy="10" r="1" fill="srgba(87.5944%,12.6757%,6.31266%,1)"/>
  <circle cx="15" cy="10" r="1" fill="srgba(88.2322%,12.3598%,6.35843%,1)"/>
  <circle cx="0" cy="11" r="1" fill="srgba(0,49,156,1)"/>
  <circle cx="1" cy="11" r="1" fill="srgba(0,49,156,1)"/>
  <circle cx="2" cy="11" r="1" fill="srgba(0%,19.0219%,61.4969%,1)"/>
  <circle cx="3" cy="11" r="1" fill="srgba(0%,22.1897%,56.2921%,1)"/>
  <circle cx="4" cy="11" r="1" fill="srgba(0%,40.8179%,24.7791%,1)"/>
  <circle cx="5" cy="11" r="1" fill="srgba(17.2442%,49.7414%,6.54917%,1)"/>
  <circle cx="6" cy="11" r="1" fill="srgba(33.8445%,55.845%,0.263981%,1)"/>
  <circle cx="7" cy="11" r="1" fill="srgba(23.946%,54.876%,3.32494%,1)"/>
  <circle cx="8" cy="11" r="1" fill="srgba(25.4063%,55.7168%,3.43175%,1)"/>
  <circle cx="9" cy="11" r="1" fill="srgba(38.6511%,55.4437%,0.823987%,1)"/>
  <circle cx="10" cy="11" r="1" fill="srgba(38.3856%,49.2119%,1.19936%,1)"/>
  <circle cx="11" cy="11" r="1" fill="srgba(32.9717%,39.4827%,2.73442%,1)"/>
  <circle cx="12" cy="11" r="1" fill="srgba(36.8215%,37.8576%,2.63371%,1)"/>
  <circle cx="13" cy="11" r="1" fill="srgba(38.8373%,36.8353%,2.7985%,1)"/>
  <circle cx="14" cy="11" r="1" fill="srgba(42.211%,35.1629%,3.04265%,1)"/>
  <circle cx="15" cy="11" r="1" fill="srgba(46.7964%,32.8908%,3.37224%,1)"/>
  <circle cx="0" cy="12" r="1" fill="srgba(0,49,156,1)"/>
  <circle cx="1" cy="12" r="1" fill="srgba(0,49,156,1)"/>
  <circle cx="2" cy="12" r="1" fill="srgba(0%,19.0402%,61.4664%,1)"/>
  <circle cx="3" cy="12" r="1" fill="srgba(0%,22.1881%,56.2539%,1)"/>
  <circle cx="4" cy="12" r="1" fill="srgba(0%,37.4441%,30.6493%,1)"/>
  <circle cx="5" cy="12" r="1" fill="srgba(14.8592%,54.8638%,10.338%,1)"/>
  <circle cx="6" cy="12" r="1" fill="srgba(47.2435%,71.8044%,0%,1)"/>
  <circle cx="7" cy="12" r="1" fill="srgba(43.331%,64.2527%,1.32143%,1)"/>
  <circle cx="8" cy="12" r="1" fill="srgba(46.6423%,67.1122%,0.355535%,1)"/>
  <circle cx="9" cy="12" r="1" fill="srgba(53.0663%,73.846%,0%,1)"/>
  <circle cx="10" cy="12" r="1" fill="srgba(50.5699%,58.9776%,1.47707%,1)"/>
  <circle cx="11" cy="12" r="1" fill="srgba(46.6697%,33.1731%,3.39208%,1)"/>
  <circle cx="12" cy="12" r="1" fill="srgba(47.1153%,32.7123%,3.39513%,1)"/>
  <circle cx="13" cy="12" r="1" fill="srgba(47.4891%,32.549%,3.4226%,1)"/>
  <circle cx="14" cy="12" r="1" fill="srgba(47.2572%,32.6635%,3.40581%,1)"/>
  <circle cx="15" cy="12" r="1" fill="srgba(47.364%,32.6101%,3.41344%,1)"/>
  <circle cx="0" cy="13" r="1" fill="srgba(0,49,156,1)"/>
  <circle cx="1" cy="13" r="1" fill="srgba(0,49,156,1)"/>
  <circle cx="2" cy="13" r="1" fill="srgba(0%,19.0677%,61.4221%,1)"/>
  <circle cx="3" cy="13" r="1" fill="srgba(0%,21.8555%,56.8017%,1)"/>
  <circle cx="4" cy="13" r="1" fill="srgba(0%,34.5464%,35.3292%,1)"/>
  <circle cx="5" cy="13" r="1" fill="srgba(15.1492%,52.5277%,13.64%,1)"/>
  <circle cx="6" cy="13" r="1" fill="srgba(50.6172%,72.3903%,0%,1)"/>
  <circle cx="7" cy="13" r="1" fill="srgba(46.8269%,65.3803%,0.860609%,1)"/>
  <circle cx="8" cy="13" r="1" fill="srgba(49.9672%,67.9225%,0.254826%,1)"/>
  <circle cx="9" cy="13" r="1" fill="srgba(55.4498%,73.9239%,0%,1)"/>
  <circle cx="10" cy="13" r="1" fill="srgba(49.7093%,59.057%,1.40993%,1)"/>
  <circle cx="11" cy="13" r="1" fill="srgba(39.6246%,36.6064%,2.90532%,1)"/>
  <circle cx="12" cy="13" r="1" fill="srgba(30.3502%,41.0208%,2.18662%,1)"/>
  <circle cx="13" cy="13" r="1" fill="srgba(17.1008%,47.6051%,1.23293%,1)"/>
  <circle cx="14" cy="13" r="1" fill="srgba(13.9651%,49.1585%,1.0071%,1)"/>
  <circle cx="15" cy="13" r="1" fill="srgba(36.6812%,37.9034%,2.64439%,1)"/>
  <circle cx="0" cy="14" r="1" fill="srgba(0,49,156,1)"/>
  <circle cx="1" cy="14" r="1" fill="srgba(0,49,156,1)"/>
  <circle cx="2" cy="14" r="1" fill="srgba(0%,19.1012%,61.3672%,1)"/>
  <circle cx="3" cy="14" r="1" fill="srgba(0%,21.2238%,57.85%,1)"/>
  <circle cx="4" cy="14" r="1" fill="srgba(0%,33.872%,36.1608%,1)"/>
  <circle cx="5" cy="14" r="1" fill="srgba(26.8406%,57.2%,11.9417%,1)"/>
  <circle cx="6" cy="14" r="1" fill="srgba(80.2991%,81.5747%,0%,1)"/>
  <circle cx="7" cy="14" r="1" fill="srgba(62.3041%,69.1859%,0.856031%,1)"/>
  <circle cx="8" cy="14" r="1" fill="srgba(53.9651%,68.6473%,0.259403%,1)"/>
  <circle cx="9" cy="14" r="1" fill="srgba(49.5277%,71.9463%,0%,1)"/>
  <circle cx="10" cy="14" r="1" fill="srgba(37.908%,58.7945%,1.02846%,1)"/>
  <circle cx="11" cy="14" r="1" fill="srgba(29.63%,41.474%,2.17594%,1)"/>
  <circle cx="12" cy="14" r="1" fill="srgba(29.4591%,41.4679%,2.12253%,1)"/>
  <circle cx="13" cy="14" r="1" fill="srgba(34.0612%,39.2004%,2.45518%,1)"/>
  <circle cx="14" cy="14" r="1" fill="srgba(43.4363%,34.5556%,3.12963%,1)"/>
  <circle cx="15" cy="14" r="1" fill="srgba(52.9046%,29.8634%,3.81323%,1)"/>
  <circle cx="0" cy="15" r="1" fill="srgba(0,49,156,1)"/>
  <circle cx="1" cy="15" r="1" fill="srgba(0,49,156,1)"/>
  <circle cx="2" cy="15" r="1" fill="srgba(0%,19.1485%,61.2863%,1)"/>
  <circle cx="3" cy="15" r="1" fill="srgba(0%,20.1633%,59.6017%,1)"/>
  <circle cx="4" cy="15" r="1" fill="srgba(0%,35.5688%,34.0169%,1)"/>
  <circle cx="5" cy="15" r="1" fill="srgba(17.528%,58.5443%,4.92256%,1)"/>
  <circle cx="6" cy="15" r="1" fill="srgba(25.0935%,64.1215%,0%,1)"/>
  <circle cx="7" cy="15" r="1" fill="srgba(26.5873%,61.8326%,0.0335698%,1)"/>
  <circle cx="8" cy="15" r="1" fill="srgba(38.5046%,65.9327%,0.0106813%,1)"/>
  <circle cx="9" cy="15" r="1" fill="srgba(56.1181%,74.3114%,0%,1)"/>
  <circle cx="10" cy="15" r="1" fill="srgba(62.7451%,58.851%,1.87991%,1)"/>
  <circle cx="11" cy="15" r="1" fill="srgba(57.8042%,27.7348%,4.2237%,1)"/>
  <circle cx="12" cy="15" r="1" fill="srgba(52.8145%,29.8848%,3.8056%,1)"/>
  <circle cx="13" cy="15" r="1" fill="srgba(42.8717%,34.8363%,3.08995%,1)"/>
  <circle cx="14" cy="15" r="1" fill="srgba(29.3736%,41.5244%,2.11643%,1)"/>
  <circle cx="15" cy="15" r="1" fill="srgba(20.5509%,45.8946%,1.48165%,1)"/>
</svg>
