<?xml version="1.0" standalone="no"?>
<!DOCTYPE svg PUBLIC "-//W3C//DTD SVG 20010904//EN"
  "http://www.w3.org/TR/2001/REC-SVG-20010904/DTD/svg10.dtd">
<svg width="16" height="16">
  <circle cx="0" cy="0" r="1" fill="srgba(82.2736%,62.8534%,21.5305%,1)"/>
  <circle cx="1" cy="0" r="1" fill="srgba(81.1521%,50.0725%,17.7157%,1)"/>
  <circle cx="2" cy="0" r="1" fill="srgba(81.0742%,49.1844%,17.4517%,1)"/>
  <circle cx="3" cy="0" r="1" fill="srgba(81.1124%,49.5644%,17.557%,1)"/>
  <circle cx="4" cy="0" r="1" fill="srgba(81.091%,49.3538%,17.499%,1)"/>
  <circle cx="5" cy="0" r="1" fill="srgba(81.0788%,49.2302%,17.4655%,1)"/>
  <circle cx="6" cy="0" r="1" fill="srgba(81.0803%,49.247%,17.4685%,1)"/>
  <circle cx="7" cy="0" r="1" fill="srgba(81.236%,50.7317%,17.8744%,1)"/>
  <circle cx="8" cy="0" r="1" fill="srgba(81.1505%,49.8634%,17.6349%,1)"/>
  <circle cx="9" cy="0" r="1" fill="srgba(81.0758%,49.2042%,17.4578%,1)"/>
  <circle cx="10" cy="0" r="1" fill="srgba(81.0788%,49.2378%,17.467%,1)"/>
  <circle cx="11" cy="0" r="1" fill="srgba(81.0788%,49.2378%,17.467%,1)"/>
  <circle cx="12" cy="0" r="1" fill="srgba(81.0788%,49.2378%,17.467%,1)"/>
  <circle cx="13" cy="0" r="1" fill="srgba(81.0758%,49.2088%,17.4578%,1)"/>
  <circle cx="14" cy="0" r="1" fill="srgba(81.1337%,49.868%,17.6547%,1)"/>
  <circle cx="15" cy="0" r="1" fill="srgba(82.2202%,62.2416%,21.3474%,1)"/>
  <circle cx="0" cy="1" r="1" fill="srgba(81.1521%,50.0725%,17.7157%,1)"/>
  <circle cx="1" cy="1" r="1" fill="srgba(77.3678%,6.9398%,4.85389%,1)"/>
  <circle cx="2" cy="1" r="1" fill="srgba(77.1038%,3.94141%,3.96124%,1)"/>
  <circle cx="3" cy="1" r="1" fill="srgba(77.2274%,5.28267%,4.35187%,1)"/>
  <circle cx="4" cy="1" r="1" fill="srgba(77.1588%,4.54108%,4.13519%,1)"/>
  <circle cx="5" cy="1" r="1" fill="srgba(77.1191%,4.09857%,4.00702%,1)"/>
  <circle cx="6" cy="1" r="1" fill="srgba(77.1237%,4.15808%,4.02533%,1)"/>
  <circle cx="7" cy="1" r="1" fill="srgba(77.6043%,9.3492%,5.53445%,1)"/>
  <circle cx="8" cy="1" r="1" fill="srgba(77.1954%,5.82284%,4.56092%,1)"/>
  <circle cx="9" cy="1" r="1" fill="srgba(77.0535%,3.41192%,3.81018%,1)"/>
  <circle cx="10" cy="1" r="1" fill="srgba(77.1099%,3.99939%,3.97803%,1)"/>
  <circle cx="11" cy="1" r="1" fill="srgba(77.1206%,4.13062%,4.01617%,1)"/>
  <circle cx="12" cy="1" r="1" fill="srgba(77.1206%,4.12299%,4.01465%,1)"/>
  <circle cx="13" cy="1" r="1" fill="srgba(77.1115%,4.0238%,3.98566%,1)"/>
  <circle cx="14" cy="1" r="1" fill="srgba(77.3068%,6.25162%,4.6479%,1)"/>
  <circle cx="15" cy="1" r="1" fill="srgba(80.9705%,48.0064%,17.1008%,1)"/>
  <circle cx="0" cy="2" r="1" fill="srgba(81.0758%,49.1966%,17.4548%,1)"/>
  <circle cx="1" cy="2" r="1" fill="srgba(77.1084%,3.98108%,3.97192%,1)"/>
  <circle cx="2" cy="2" r="1" fill="srgba(76.8322%,0.833143%,3.03502%,1)"/>
  <circle cx="3" cy="2" r="1" fill="srgba(76.9726%,2.37888%,3.48211%,1)"/>
  <circle cx="4" cy="2" r="1" fill="srgba(76.8933%,1.51827%,3.23339%,1)"/>
  <circle cx="5" cy="2" r="1" fill="srgba(76.8475%,1.01015%,3.08843%,1)"/>
  <circle cx="6" cy="2" r="1" fill="srgba(76.8292%,0.686656%,2.98161%,1)"/>
  <circle cx="7" cy="2" r="1" fill="srgba(77.322%,8.52369%,5.40932%,1)"/>
  <circle cx="8" cy="2" r="1" fill="srgba(77.3571%,12.2347%,6.69261%,1)"/>
  <circle cx="9" cy="2" r="1" fill="srgba(77.7203%,10.3593%,5.80301%,1)"/>
  <circle cx="10" cy="2" r="1" fill="srgba(76.9497%,2.21561%,3.40887%,1)"/>
  <circle cx="11" cy="2" r="1" fill="srgba(76.73%,0%,2.71763%,1)"/>
  <circle cx="12" cy="2" r="1" fill="srgba(76.7422%,0%,2.75731%,1)"/>
  <circle cx="13" cy="2" r="1" fill="srgba(76.7346%,0%,2.72679%,1)"/>
  <circle cx="14" cy="2" r="1" fill="srgba(76.9482%,2.26444%,3.44701%,1)"/>
  <circle cx="15" cy="2" r="1" fill="srgba(80.853%,46.7094%,16.7163%,1)"/>
  <circle cx="0" cy="3" r="1" fill="srgba(81.0788%,49.2378%,17.467%,1)"/>
  <circle cx="1" cy="3" r="1" fill="srgba(77.1206%,4.12299%,4.01465%,1)"/>
  <circle cx="2" cy="3" r="1" fill="srgba(76.8444%,0.976577%,3.07774%,1)"/>
  <circle cx="3" cy="3" r="1" fill="srgba(76.9986%,2.65507%,3.56603%,1)"/>
  <circle cx="4" cy="3" r="1" fill="srgba(76.9116%,1.70443%,3.28985%,1)"/>
  <circle cx="5" cy="3" r="1" fill="srgba(76.8078%,0.582895%,2.96483%,1)"/>
  <circle cx="6" cy="3" r="1" fill="srgba(77.9675%,12.2438%,6.30503%,1)"/>
  <circle cx="7" cy="3" r="1" fill="srgba(79.3179%,45.1209%,16.8017%,1)"/>
  <circle cx="8" cy="3" r="1" fill="srgba(79.8199%,52.6619%,19.0478%,1)"/>
  <circle cx="9" cy="3" r="1" fill="srgba(82.443%,60.679%,20.3937%,1)"/>
  <circle cx="10" cy="3" r="1" fill="srgba(80.032%,35.3582%,13.0724%,1)"/>
  <circle cx="11" cy="3" r="1" fill="srgba(79.3133%,27.5166%,10.7958%,1)"/>
  <circle cx="12" cy="3" r="1" fill="srgba(79.4537%,29.0074%,11.2291%,1)"/>
  <circle cx="13" cy="3" r="1" fill="srgba(79.1104%,25.5024%,10.2129%,1)"/>
  <circle cx="14" cy="3" r="1" fill="srgba(78.9532%,24.2924%,9.88022%,1)"/>
  <circle cx="15" cy="3" r="1" fill="srgba(81.4755%,53.5073%,18.613%,1)"/>
  <circle cx="0" cy="4" r="1" fill="srgba(81.0788%,49.2378%,17.467%,1)"/>
  <circle cx="1" cy="4" r="1" fill="srgba(77.1206%,4.12299%,4.01465%,1)"/>
  <circle cx="2" cy="4" r="1" fill="srgba(76.8444%,0.972%,3.07622%,1)"/>
  <circle cx="3" cy="4" r="1" fill="srgba(77.0108%,2.77104%,3.60113%,1)"/>
  <circle cx="4" cy="4" r="1" fill="srgba(76.9375%,1.96384%,3.36614%,1)"/>
  <circle cx="5" cy="4" r="1" fill="srgba(76.8627%,1.11391%,3.10826%,1)"/>
  <circle cx="6" cy="4" r="1" fill="srgba(80.1144%,36.4385%,13.3745%,1)"/>
  <circle cx="7" cy="4" r="1" fill="srgba(82.1759%,67.631%,22.623%,1)"/>
  <circle cx="8" cy="4" r="1" fill="srgba(81.5152%,64.5151%,21.7548%,1)"/>
  <circle cx="9" cy="4" r="1" fill="srgba(83.0259%,68.6305%,22.7573%,1)"/>
  <circle cx="10" cy="4" r="1" fill="srgba(83.151%,68.7617%,22.7832%,1)"/>
  <circle cx="11" cy="4" r="1" fill="srgba(83.154%,68.8075%,22.7985%,1)"/>
  <circle cx="12" cy="4" r="1" fill="srgba(83.183%,69.0883%,22.8794%,1)"/>
  <circle cx="13" cy="4" r="1" fill="srgba(82.9099%,66.6819%,22.1851%,1)"/>
  <circle cx="14" cy="4" r="1" fill="srgba(82.1881%,60.6638%,20.4608%,1)"/>
  <circle cx="15" cy="4" r="1" fill="srgba(82.4048%,64.7913%,21.7212%,1)"/>
  <circle cx="0" cy="5" r="1" fill="srgba(81.0788%,49.2378%,17.467%,1)"/>
  <circle cx="1" cy="5" r="1" fill="srgba(77.1206%,4.12299%,4.01465%,1)"/>
  <circle cx="2" cy="5" r="1" fill="srgba(76.8429%,0.956741%,3.07164%,1)"/>
  <circle cx="3" cy="5" r="1" fill="srgba(77.0153%,2.80766%,3.61486%,1)"/>
  <circle cx="4" cy="5" r="1" fill="srgba(78.6511%,20.4456%,8.72816%,1)"/>
  <circle cx="5" cy="5" r="1" fill="srgba(79.7162%,32.0073%,12.2911%,1)"/>
  <circle cx="6" cy="5" r="1" fill="srgba(81.7899%,54.0856%,18.8449%,1)"/>
  <circle cx="7" cy="5" r="1" fill="srgba(81.8112%,65.6016%,22.0249%,1)"/>
  <circle cx="8" cy="5" r="1" fill="srgba(81.3931%,64.2634%,21.6541%,1)"/>
  <circle cx="9" cy="5" r="1" fill="srgba(82.884%,67.9911%,22.5849%,1)"/>
  <circle cx="10" cy="5" r="1" fill="srgba(83.1464%,68.6641%,22.7543%,1)"/>
  <circle cx="11" cy="5" r="1" fill="srgba(83.1388%,68.6412%,22.7497%,1)"/>
  <circle cx="12" cy="5" r="1" fill="srgba(83.1373%,68.6366%,22.7481%,1)"/>
  <circle cx="13" cy="5" r="1" fill="srgba(83.1388%,68.6381%,22.7481%,1)"/>
  <circle cx="14" cy="5" r="1" fill="srgba(83.1357%,68.5817%,22.7314%,1)"/>
  <circle cx="15" cy="5" r="1" fill="srgba(83.1403%,68.6183%,22.742%,1)"/>
  <circle cx="0" cy="6" r="1" fill="srgba(81.0788%,49.2332%,17.4655%,1)"/>
  <circle cx="1" cy="6" r="1" fill="srgba(77.1191%,4.1001%,4.00855%,1)"/>
  <circle cx="2" cy="6" r="1" fill="srgba(76.8338%,0.852979%,3.04265%,1)"/>
  <circle cx="3" cy="6" r="1" fill="srgba(77.1603%,3.82086%,3.89563%,1)"/>
  <circle cx="4" cy="6" r="1" fill="srgba(78.8449%,31.9631%,12.1904%,1)"/>
  <circle cx="5" cy="6" r="1" fill="srgba(77.9538%,47.3457%,17.1923%,1)"/>
  <circle cx="6" cy="6" r="1" fill="srgba(79.4644%,49.0227%,17.6486%,1)"/>
  <circle cx="7" cy="6" r="1" fill="srgba(80.5371%,59.8871%,20.5051%,1)"/>
  <circle cx="8" cy="6" r="1" fill="srgba(80.9125%,63.1479%,21.3764%,1)"/>
  <circle cx="9" cy="6" r="1" fill="srgba(82.7481%,67.6478%,22.4994%,1)"/>
  <circle cx="10" cy="6" r="1" fill="srgba(83.154%,68.6687%,22.7543%,1)"/>
  <circle cx="11" cy="6" r="1" fill="srgba(212,175,58,1)"/>
  <circle cx="12" cy="6" r="1" fill="srgba(212,175,58,1)"/>
  <circle cx="13" cy="6" r="1" fill="srgba(212,175,58,1)"/>
  <circle cx="14" cy="6" r="1" fill="srgba(212,175,58,1)"/>
  <circle cx="15" cy="6" r="1" fill="srgba(212,175,58,1)"/>
  <circle cx="0" cy="7" r="1" fill="srgba(81.059%,48.986%,17.3907%,1)"/>
  <circle cx="1" cy="7" r="1" fill="srgba(77.0779%,3.61791%,3.86664%,1)"/>
  <circle cx="2" cy="7" r="1" fill="srgba(76.8505%,1.03304%,3.09453%,1)"/>
  <circle cx="3" cy="7" r="1" fill="srgba(77.4609%,6.62852%,4.70893%,1)"/>
  <circle cx="4" cy="7" r="1" fill="srgba(78.6267%,39.324%,14.464%,1)"/>
  <circle cx="5" cy="7" r="1" fill="srgba(75.4665%,47.4754%,17.3495%,1)"/>
  <circle cx="6" cy="7" r="1" fill="srgba(76.2875%,44.9622%,16.4721%,1)"/>
  <circle cx="7" cy="7" r="1" fill="srgba(79.4308%,58.645%,20.2167%,1)"/>
  <circle cx="8" cy="7" r="1" fill="srgba(80.4166%,61.8341%,21.0513%,1)"/>
  <circle cx="9" cy="7" r="1" fill="srgba(82.5818%,67.2267%,22.3941%,1)"/>
  <circle cx="10" cy="7" r="1" fill="srgba(83.1647%,68.6961%,22.7619%,1)"/>
  <circle cx="11" cy="7" r="1" fill="srgba(212,175,58,1)"/>
  <circle cx="12" cy="7" r="1" fill="srgba(212,175,58,1)"/>
  <circle cx="13" cy="7" r="1" fill="srgba(212,175,58,1)"/>
  <circle cx="14" cy="7" r="1" fill="srgba(212,175,58,1)"/>
  <circle cx="15" cy="7" r="1" fill="srgba(212,175,58,1)"/>
  <circle cx="0" cy="8" r="1" fill="srgba(81.7838%,56.7178%,19.6292%,1)"/>
  <circle cx="1" cy="8" r="1" fill="srgba(80.1694%,36.8185%,13.5134%,1)"/>
  <circle cx="2" cy="8" r="1" fill="srgba(80.6806%,42.1973%,15.0622%,1)"/>
  <circle cx="3" cy="8" r="1" fill="srgba(81.384%,49.3523%,17.1374%,1)"/>
  <circle cx="4" cy="8" r="1" fill="srgba(80.9842%,60.029%,20.4242%,1)"/>
  <circle cx="5" cy="8" r="1" fill="srgba(76.0098%,50.9102%,18.3276%,1)"/>
  <circle cx="6" cy="8" r="1" fill="srgba(74.7112%,47.538%,17.4807%,1)"/>
  <circle cx="7" cy="8" r="1" fill="srgba(78.1643%,56.2036%,19.6628%,1)"/>
  <circle cx="8" cy="8" r="1" fill="srgba(79.9207%,60.5737%,20.7446%,1)"/>
  <circle cx="9" cy="8" r="1" fill="srgba(82.3804%,66.717%,22.266%,1)"/>
  <circle cx="10" cy="8" r="1" fill="srgba(83.18%,68.7343%,22.7726%,1)"/>
  <circle cx="11" cy="8" r="1" fill="srgba(83.1434%,68.6427%,22.7481%,1)"/>
  <circle cx="12" cy="8" r="1" fill="srgba(83.1373%,68.629%,22.7451%,1)"/>
  <circle cx="13" cy="8" r="1" fill="srgba(212,175,58,1)"/>
  <circle cx="14" cy="8" r="1" fill="srgba(212,175,58,1)"/>
  <circle cx="15" cy="8" r="1" fill="srgba(212,175,58,1)"/>
  <circle cx="0" cy="9" r="1" fill="srgba(82.2385%,61.6327%,21.062%,1)"/>
  <circle cx="1" cy="9" r="1" fill="srgba(82.7054%,64.1352%,21.4572%,1)"/>
  <circle cx="2" cy="9" r="1" fill="srgba(83.2898%,70.2556%,23.2181%,1)"/>
  <circle cx="3" cy="9" r="1" fill="srgba(83.2853%,69.7307%,23.0594%,1)"/>
  <circle cx="4" cy="9" r="1" fill="srgba(81.854%,65.5818%,21.9959%,1)"/>
  <circle cx="5" cy="9" r="1" fill="srgba(76.463%,51.8029%,18.5367%,1)"/>
  <circle cx="6" cy="9" r="1" fill="srgba(76.173%,51.0918%,18.3597%,1)"/>
  <circle cx="7" cy="9" r="1" fill="srgba(77.8637%,55.3491%,19.4247%,1)"/>
  <circle cx="8" cy="9" r="1" fill="srgba(79.4186%,59.266%,20.4044%,1)"/>
  <circle cx="9" cy="9" r="1" fill="srgba(82.1378%,66.1143%,22.1164%,1)"/>
  <circle cx="10" cy="9" r="1" fill="srgba(83.1724%,68.7144%,22.7665%,1)"/>
  <circle cx="11" cy="9" r="1" fill="srgba(83.0167%,68.3207%,22.6688%,1)"/>
  <circle cx="12" cy="9" r="1" fill="srgba(83.1312%,68.6122%,22.7405%,1)"/>
  <circle cx="13" cy="9" r="1" fill="srgba(212,175,58,1)"/>
  <circle cx="14" cy="9" r="1" fill="srgba(212,175,58,1)"/>
  <circle cx="15" cy="9" r="1" fill="srgba(212,175,58,1)"/>
  <circle cx="0" cy="10" r="1" fill="srgba(81.0727%,49.163%,17.4456%,1)"/>
  <circle cx="1" cy="10" r="1" fill="srgba(79.6139%,30.9224%,11.8044%,1)"/>
  <circle cx="2" cy="10" r="1" fill="srgba(82.8626%,65.6657%,21.883%,1)"/>
  <circle cx="3" cy="10" r="1" fill="srgba(83.2105%,68.9586%,22.8351%,1)"/>
  <circle cx="4" cy="10" r="1" fill="srgba(81.9928%,65.7298%,22.0203%,1)"/>
  <circle cx="5" cy="10" r="1" fill="srgba(75.5505%,49.514%,17.966%,1)"/>
  <circle cx="6" cy="10" r="1" fill="srgba(74.4579%,46.7735%,17.2808%,1)"/>
  <circle cx="7" cy="10" r="1" fill="srgba(76.2325%,51.2444%,18.3993%,1)"/>
  <circle cx="8" cy="10" r="1" fill="srgba(78.9212%,58.0102%,20.09%,1)"/>
  <circle cx="9" cy="10" r="1" fill="srgba(81.8692%,65.4353%,21.9471%,1)"/>
  <circle cx="10" cy="10" r="1" fill="srgba(83.0701%,68.4596%,22.7024%,1)"/>
  <circle cx="11" cy="10" r="1" fill="srgba(82.5666%,67.1839%,22.3835%,1)"/>
  <circle cx="12" cy="10" r="1" fill="srgba(83.0884%,68.5023%,22.7131%,1)"/>
  <circle cx="13" cy="10" r="1" fill="srgba(83.1403%,68.6351%,22.7466%,1)"/>
  <circle cx="14" cy="10" r="1" fill="srgba(212,175,58,1)"/>
  <circle cx="15" cy="10" r="1" fill="srgba(212,175,58,1)"/>
  <circle cx="0" cy="11" r="1" fill="srgba(81.0498%,48.9387%,17.377%,1)"/>
  <circle cx="1" cy="11" r="1" fill="srgba(77.319%,6.48203%,4.63569%,1)"/>
  <circle cx="2" cy="11" r="1" fill="srgba(81.2726%,48.5969%,16.9146%,1)"/>
  <circle cx="3" cy="11" r="1" fill="srgba(83.2731%,69.6651%,23.0411%,1)"/>
  <circle cx="4" cy="11" r="1" fill="srgba(82.179%,66.2043%,22.1393%,1)"/>
  <circle cx="5" cy="11" r="1" fill="srgba(74.8455%,47.7424%,17.5235%,1)"/>
  <circle cx="6" cy="11" r="1" fill="srgba(72.5566%,41.9821%,16.0845%,1)"/>
  <circle cx="7" cy="11" r="1" fill="srgba(75.1507%,48.5145%,17.7157%,1)"/>
  <circle cx="8" cy="11" r="1" fill="srgba(78.4131%,56.7285%,19.7696%,1)"/>
  <circle cx="9" cy="11" r="1" fill="srgba(81.5503%,64.6296%,21.7456%,1)"/>
  <circle cx="10" cy="11" r="1" fill="srgba(83.2349%,68.8731%,22.8061%,1)"/>
  <circle cx="11" cy="11" r="1" fill="srgba(83.1235%,68.5939%,22.7359%,1)"/>
  <circle cx="12" cy="11" r="1" fill="srgba(83.1327%,68.6168%,22.742%,1)"/>
  <circle cx="13" cy="11" r="1" fill="srgba(83.1373%,68.629%,22.7451%,1)"/>
  <circle cx="14" cy="11" r="1" fill="srgba(212,175,58,1)"/>
  <circle cx="15" cy="11" r="1" fill="srgba(212,175,58,1)"/>
  <circle cx="0" cy="12" r="1" fill="srgba(81.0025%,48.4108%,17.2259%,1)"/>
  <circle cx="1" cy="12" r="1" fill="srgba(78.9975%,24.2832%,9.87564%,1)"/>
  <circle cx="2" cy="12" r="1" fill="srgba(82.6352%,63.2227%,21.1734%,1)"/>
  <circle cx="3" cy="12" r="1" fill="srgba(83.2136%,69.0486%,22.8626%,1)"/>
  <circle cx="4" cy="12" r="1" fill="srgba(82.2583%,66.4088%,22.1897%,1)"/>
  <circle cx="5" cy="12" r="1" fill="srgba(74.8379%,47.7226%,17.5189%,1)"/>
  <circle cx="6" cy="12" r="1" fill="srgba(72.4392%,41.6846%,16.0098%,1)"/>
  <circle cx="7" cy="12" r="1" fill="srgba(74.5708%,47.0497%,17.348%,1)"/>
  <circle cx="8" cy="12" r="1" fill="srgba(77.879%,55.375%,19.4278%,1)"/>
  <circle cx="9" cy="12" r="1" fill="srgba(81.1994%,63.7522%,21.5259%,1)"/>
  <circle cx="10" cy="12" r="1" fill="srgba(83.2578%,68.9326%,22.8214%,1)"/>
  <circle cx="11" cy="12" r="1" fill="srgba(212,175,58,1)"/>
  <circle cx="12" cy="12" r="1" fill="srgba(212,175,58,1)"/>
  <circle cx="13" cy="12" r="1" fill="srgba(212,175,58,1)"/>
  <circle cx="14" cy="12" r="1" fill="srgba(212,175,58,1)"/>
  <circle cx="15" cy="12" r="1" fill="srgba(212,175,58,1)"/>
  <circle cx="0" cy="13" r="1" fill="srgba(81.7288%,56.2112%,19.4934%,1)"/>
  <circle cx="1" cy="13" r="1" fill="srgba(82.0539%,57.1405%,19.4263%,1)"/>
  <circle cx="2" cy="13" r="1" fill="srgba(83.212%,69.4224%,22.9755%,1)"/>
  <circle cx="3" cy="13" r="1" fill="srgba(83.1815%,68.7297%,22.7695%,1)"/>
  <circle cx="4" cy="13" r="1" fill="srgba(82.3362%,66.5965%,22.2354%,1)"/>
  <circle cx="5" cy="13" r="1" fill="srgba(74.8516%,47.7485%,17.525%,1)"/>
  <circle cx="6" cy="13" r="1" fill="srgba(72.4544%,41.7227%,16.0174%,1)"/>
  <circle cx="7" cy="13" r="1" fill="srgba(74.1741%,46.1128%,17.1313%,1)"/>
  <circle cx="8" cy="13" r="1" fill="srgba(77.2137%,53.9391%,19.1363%,1)"/>
  <circle cx="9" cy="13" r="1" fill="srgba(80.8209%,62.7909%,21.2848%,1)"/>
  <circle cx="10" cy="13" r="1" fill="srgba(83.2792%,68.986%,22.8351%,1)"/>
  <circle cx="11" cy="13" r="1" fill="srgba(212,175,58,1)"/>
  <circle cx="12" cy="13" r="1" fill="srgba(212,175,58,1)"/>
  <circle cx="13" cy="13" r="1" fill="srgba(212,175,58,1)"/>
  <circle cx="14" cy="13" r="1" fill="srgba(212,175,58,1)"/>
  <circle cx="15" cy="13" r="1" fill="srgba(212,175,58,1)"/>
  <circle cx="0" cy="14" r="1" fill="srgba(82.8626%,67.7653%,22.7695%,1)"/>
  <circle cx="1" cy="14" r="1" fill="srgba(83.125%,68.5405%,22.7253%,1)"/>
  <circle cx="2" cy="14" r="1" fill="srgba(83.1388%,68.6473%,22.7512%,1)"/>
  <circle cx="3" cy="14" r="1" fill="srgba(83.183%,68.7419%,22.7741%,1)"/>
  <circle cx="4" cy="14" r="1" fill="srgba(82.3377%,66.6087%,22.2385%,1)"/>
  <circle cx="5" cy="14" r="1" fill="srgba(74.7982%,47.6204%,17.4929%,1)"/>
  <circle cx="6" cy="14" r="1" fill="srgba(72.4697%,41.7273%,16.0098%,1)"/>
  <circle cx="7" cy="14" r="1" fill="srgba(73.5378%,45.1957%,17.0977%,1)"/>
  <circle cx="8" cy="14" r="1" fill="srgba(75.1202%,51.8486%,19.5178%,1)"/>
  <circle cx="9" cy="14" r="1" fill="srgba(80.3967%,61.7288%,21.0224%,1)"/>
  <circle cx="10" cy="14" r="1" fill="srgba(83.2975%,69.0333%,22.8458%,1)"/>
  <circle cx="11" cy="14" r="1" fill="srgba(212,175,58,1)"/>
  <circle cx="12" cy="14" r="1" fill="srgba(212,175,58,1)"/>
  <circle cx="13" cy="14" r="1" fill="srgba(212,175,58,1)"/>
  <circle cx="14" cy="14" r="1" fill="srgba(212,175,58,1)"/>
  <circle cx="15" cy="14" r="1" fill="srgba(212,175,58,1)"/>
  <circle cx="0" cy="15" r="1" fill="srgba(83.0411%,68.5832%,22.8641%,1)"/>
  <circle cx="1" cy="15" r="1" fill="srgba(83.1434%,68.658%,22.7497%,1)"/>
  <circle cx="2" cy="15" r="1" fill="srgba(83.1373%,68.6259%,22.7451%,1)"/>
  <circle cx="3" cy="15" r="1" fill="srgba(83.183%,68.7449%,22.7741%,1)"/>
  <circle cx="4" cy="15" r="1" fill="srgba(82.298%,66.5156%,22.2171%,1)"/>
  <circle cx="5" cy="15" r="1" fill="srgba(74.7692%,47.5547%,17.4762%,1)"/>
  <circle cx="6" cy="15" r="1" fill="srgba(72.462%,41.7243%,16.0143%,1)"/>
  <circle cx="7" cy="15" r="1" fill="srgba(73.3791%,44.5472%,16.8627%,1)"/>
  <circle cx="8" cy="15" r="1" fill="srgba(74.8836%,50.7057%,19.0738%,1)"/>
  <circle cx="9" cy="15" r="1" fill="srgba(79.9832%,60.708%,20.7721%,1)"/>
  <circle cx="10" cy="15" r="1" fill="srgba(83.3112%,69.0669%,22.855%,1)"/>
  <circle cx="11" cy="15" r="1" fill="srgba(212,175,58,1)"/>
  <circle cx="12" cy="15" r="1" fill="srgba(212,175,58,1)"/>
  <circle cx="13" cy="15" r="1" fill="srgba(212,175,58,1)"/>
  <circle cx="14" cy="15" r="1" fill="srgba(212,175,58,1)"/>
  <circle cx="15" cy="15" r="1" fill="srgba(212,175,58,1)"/>
</svg>
