<?xml version="1.0" standalone="no"?>
<!DOCTYPE svg PUBLIC "-//W3C//DTD SVG 20010904//EN"
  "http://www.w3.org/TR/2001/REC-SVG-20010904/DTD/svg10.dtd">
<svg width="16" height="16">
  <circle cx="0" cy="0" r="1" fill="white"/>
  <circle cx="1" cy="0" r="1" fill="white"/>
  <circle cx="2" cy="0" r="1" fill="white"/>
  <circle cx="3" cy="0" r="1" fill="white"/>
  <circle cx="4" cy="0" r="1" fill="srgba(100%,99.7421%,99.7086%,1)"/>
  <circle cx="5" cy="0" r="1" fill="srgba(100%,48.8411%,42.3209%,1)"/>
  <circle cx="6" cy="0" r="1" fill="srgba(100%,18.6038%,8.22919%,1)"/>
  <circle cx="7" cy="0" r="1" fill="srgba(255,51,25,1)"/>
  <circle cx="8" cy="0" r="1" fill="srgba(255,51,25,1)"/>
  <circle cx="9" cy="0" r="1" fill="srgba(255,51,25,1)"/>
  <circle cx="10" cy="0" r="1" fill="srgba(255,51,25,1)"/>
  <circle cx="11" cy="0" r="1" fill="srgba(255,51,25,1)"/>
  <circle cx="12" cy="0" r="1" fill="srgba(255,51,25,1)"/>
  <circle cx="13" cy="0" r="1" fill="srgba(255,51,25,1)"/>
  <circle cx="14" cy="0" r="1" fill="srgba(255,51,25,1)"/>
  <circle cx="15" cy="0" r="1" fill="srgba(100%,20.0076%,9.81155%,1)"/>
  <circle cx="0" cy="1" r="1" fill="white"/>
  <circle cx="1" cy="1" r="1" fill="white"/>
  <circle cx="2" cy="1" r="1" fill="white"/>
  <circle cx="3" cy="1" r="1" fill="white"/>
  <circle cx="4" cy="1" r="1" fill="srgba(100%,99.7421%,99.7086%,1)"/>
  <circle cx="5" cy="1" r="1" fill="srgba(100%,48.8411%,42.3209%,1)"/>
  <circle cx="6" cy="1" r="1" fill="srgba(100%,18.6038%,8.22919%,1)"/>
  <circle cx="7" cy="1" r="1" fill="srgba(255,51,25,1)"/>
  <circle cx="8" cy="1" r="1" fill="srgba(255,51,25,1)"/>
  <circle cx="9" cy="1" r="1" fill="srgba(255,51,25,1)"/>
  <circle cx="10" cy="1" r="1" fill="srgba(255,51,25,1)"/>
  <circle cx="11" cy="1" r="1" fill="srgba(255,51,25,1)"/>
  <circle cx="12" cy="1" r="1" fill="srgba(255,51,25,1)"/>
  <circle cx="13" cy="1" r="1" fill="srgba(255,51,25,1)"/>
  <circle cx="14" cy="1" r="1" fill="srgba(255,51,25,1)"/>
  <circle cx="15" cy="1" r="1" fill="srgba(100%,20.0076%,9.81155%,1)"/>
  <circle cx="0" cy="2" r="1" fill="white"/>
  <circle cx="1" cy="2" r="1" fill="white"/>
  <circle cx="2" cy="2" r="1" fill="white"/>
  <circle cx="3" cy="2" r="1" fill="white"/>
  <circle cx="4" cy="2" r="1" fill="srgba(100%,99.7421%,99.7086%,1)"/>
  <circle cx="5" cy="2" r="1" fill="srgba(100%,48.8411%,42.3209%,1)"/>
  <circle cx="6" cy="2" r="1" fill="srgba(100%,18.6038%,8.22919%,1)"/>
  <circle cx="7" cy="2" r="1" fill="srgba(255,51,25,1)"/>
  <circle cx="8" cy="2" r="1" fill="srgba(255,51,25,1)"/>
  <circle cx="9" cy="2" r="1" fill="srgba(255,51,25,1)"/>
  <circle cx="10" cy="2" r="1" fill="srgba(255,51,25,1)"/>
  <circle cx="11" cy="2" r="1" fill="srgba(255,51,25,1)"/>
  <circle cx="12" cy="2" r="1" fill="srgba(255,51,25,1)"/>
  <circle cx="13" cy="2" r="1" fill="srgba(255,51,25,1)"/>
  <circle cx="14" cy="2" r="1" fill="srgba(255,51,25,1)"/>
  <circle cx="15" cy="2" r="1" fill="srgba(100%,20.0076%,9.81155%,1)"/>
  <circle cx="0" cy="3" r="1" fill="white"/>
  <circle cx="1" cy="3" r="1" fill="white"/>
  <circle cx="2" cy="3" r="1" fill="white"/>
  <circle cx="3" cy="3" r="1" fill="white"/>
  <circle cx="4" cy="3" r="1" fill="srgba(100%,99.7421%,99.7086%,1)"/>
  <circle cx="5" cy="3" r="1" fill="srgba(100%,48.8411%,42.3209%,1)"/>
  <circle cx="6" cy="3" r="1" fill="srgba(100%,18.6038%,8.22919%,1)"/>
  <circle cx="7" cy="3" r="1" fill="srgba(255,51,25,1)"/>
  <circle cx="8" cy="3" r="1" fill="srgba(255,51,25,1)"/>
  <circle cx="9" cy="3" r="1" fill="srgba(255,51,25,1)"/>
  <circle cx="10" cy="3" r="1" fill="srgba(255,51,25,1)"/>
  <circle cx="11" cy="3" r="1" fill="srgba(255,51,25,1)"/>
  <circle cx="12" cy="3" r="1" fill="srgba(255,51,25,1)"/>
  <circle cx="13" cy="3" r="1" fill="srgba(255,51,25,1)"/>
  <circle cx="14" cy="3" r="1" fill="srgba(255,51,25,1)"/>
  <circle cx="15" cy="3" r="1" fill="srgba(100%,20.0076%,9.81155%,1)"/>
  <circle cx="0" cy="4" r="1" fill="white"/>
  <circle cx="1" cy="4" r="1" fill="white"/>
  <circle cx="2" cy="4" r="1" fill="white"/>
  <circle cx="3" cy="4" r="1" fill="white"/>
  <circle cx="4" cy="4" r="1" fill="srgba(100%,99.7421%,99.7086%,1)"/>
  <circle cx="5" cy="4" r="1" fill="srgba(100%,48.8411%,42.3209%,1)"/>
  <circle cx="6" cy="4" r="1" fill="srgba(100%,18.6038%,8.22919%,1)"/>
  <circle cx="7" cy="4" r="1" fill="srgba(255,51,25,1)"/>
  <circle cx="8" cy="4" r="1" fill="srgba(255,51,25,1)"/>
  <circle cx="9" cy="4" r="1" fill="srgba(255,51,25,1)"/>
  <circle cx="10" cy="4" r="1" fill="srgba(255,51,25,1)"/>
  <circle cx="11" cy="4" r="1" fill="srgba(255,51,25,1)"/>
  <circle cx="12" cy="4" r="1" fill="srgba(255,51,25,1)"/>
  <circle cx="13" cy="4" r="1" fill="srgba(255,51,25,1)"/>
  <circle cx="14" cy="4" r="1" fill="srgba(255,51,25,1)"/>
  <circle cx="15" cy="4" r="1" fill="srgba(100%,20.0076%,9.81155%,1)"/>
  <circle cx="0" cy="5" r="1" fill="white"/>
  <circle cx="1" cy="5" r="1" fill="white"/>
  <circle cx="2" cy="5" r="1" fill="white"/>
  <circle cx="3" cy="5" r="1" fill="white"/>
  <circle cx="4" cy="5" r="1" fill="srgba(100%,99.7421%,99.7086%,1)"/>
  <circle cx="5" cy="5" r="1" fill="srgba(100%,48.8411%,42.3209%,1)"/>
  <circle cx="6" cy="5" r="1" fill="srgba(100%,18.6038%,8.22919%,1)"/>
  <circle cx="7" cy="5" r="1" fill="srgba(255,51,25,1)"/>
  <circle cx="8" cy="5" r="1" fill="srgba(255,51,25,1)"/>
  <circle cx="9" cy="5" r="1" fill="srgba(255,51,25,1)"/>
  <circle cx="10" cy="5" r="1" fill="srgba(255,51,25,1)"/>
  <circle cx="11" cy="5" r="1" fill="srgba(255,51,25,1)"/>
  <circle cx="12" cy="5" r="1" fill="srgba(255,51,25,1)"/>
  <circle cx="13" cy="5" r="1" fill="srgba(255,51,25,1)"/>
  <circle cx="14" cy="5" r="1" fill="srgba(255,51,25,1)"/>
  <circle cx="15" cy="5" r="1" fill="srgba(100%,20.0076%,9.81155%,1)"/>
  <circle cx="0" cy="6" r="1" fill="white"/>
  <circle cx="1" cy="6" r="1" fill="white"/>
  <circle cx="2" cy="6" r="1" fill="white"/>
  <circle cx="3" cy="6" r="1" fill="white"/>
  <circle cx="4" cy="6" r="1" fill="srgba(100%,99.7406%,99.7086%,1)"/>
  <circle cx="5" cy="6" r="1" fill="srgba(100%,48.5405%,42.2904%,1)"/>
  <circle cx="6" cy="6" r="1" fill="srgba(100%,18.1262%,8.18341%,1)"/>
  <circle cx="7" cy="6" r="1" fill="srgba(100%,19.53%,9.75814%,1)"/>
  <circle cx="8" cy="6" r="1" fill="srgba(100%,19.53%,9.75814%,1)"/>
  <circle cx="9" cy="6" r="1" fill="srgba(100%,19.53%,9.75814%,1)"/>
  <circle cx="10" cy="6" r="1" fill="srgba(100%,19.53%,9.75814%,1)"/>
  <circle cx="11" cy="6" r="1" fill="srgba(100%,19.53%,9.75814%,1)"/>
  <circle cx="12" cy="6" r="1" fill="srgba(100%,19.53%,9.75814%,1)"/>
  <circle cx="13" cy="6" r="1" fill="srgba(100%,19.53%,9.75814%,1)"/>
  <circle cx="14" cy="6" r="1" fill="srgba(100%,19.53%,9.75814%,1)"/>
  <circle cx="15" cy="6" r="1" fill="srgba(100%,19.5377%,9.76577%,1)"/>
  <circle cx="0" cy="7" r="1" fill="white"/>
  <circle cx="1" cy="7" r="1" fill="white"/>
  <circle cx="2" cy="7" r="1" fill="white"/>
  <circle cx="3" cy="7" r="1" fill="white"/>
  <circle cx="4" cy="7" r="1" fill="srgba(99.9603%,99.765%,99.7116%,1)"/>
  <circle cx="5" cy="7" r="1" fill="srgba(92.2789%,53.4813%,42.7771%,1)"/>
  <circle cx="6" cy="7" r="1" fill="srgba(87.715%,25.9876%,8.95857%,1)"/>
  <circle cx="7" cy="7" r="1" fill="srgba(87.9255%,27.2572%,10.5196%,1)"/>
  <circle cx="8" cy="7" r="1" fill="srgba(87.9255%,27.2572%,10.5196%,1)"/>
  <circle cx="9" cy="7" r="1" fill="srgba(87.9255%,27.2572%,10.5196%,1)"/>
  <circle cx="10" cy="7" r="1" fill="srgba(87.9255%,27.2572%,10.5196%,1)"/>
  <circle cx="11" cy="7" r="1" fill="srgba(87.9255%,27.2572%,10.5196%,1)"/>
  <circle cx="12" cy="7" r="1" fill="srgba(87.9255%,27.2572%,10.5196%,1)"/>
  <circle cx="13" cy="7" r="1" fill="srgba(87.9255%,27.2572%,10.5196%,1)"/>
  <circle cx="14" cy="7" r="1" fill="srgba(87.9255%,27.2572%,10.5196%,1)"/>
  <circle cx="15" cy="7" r="1" fill="srgba(87.9271%,27.2633%,10.5272%,1)"/>
  <circle cx="0" cy="8" r="1" fill="white"/>
  <circle cx="1" cy="8" r="1" fill="white"/>
  <circle cx="2" cy="8" r="1" fill="white"/>
  <circle cx="3" cy="8" r="1" fill="white"/>
  <circle cx="4" cy="8" r="1" fill="srgba(99.7162%,99.9115%,99.7238%,1)"/>
  <circle cx="5" cy="8" r="1" fill="srgba(43.7537%,82.5925%,45.626%,1)"/>
  <circle cx="6" cy="8" r="1" fill="srgba(10.5135%,72.3079%,13.4997%,1)"/>
  <circle cx="7" cy="8" r="1" fill="srgba(12.0485%,72.7825%,14.9828%,1)"/>
  <circle cx="8" cy="8" r="1" fill="srgba(12.0485%,72.7825%,14.9828%,1)"/>
  <circle cx="9" cy="8" r="1" fill="srgba(12.0485%,72.7825%,14.9828%,1)"/>
  <circle cx="10" cy="8" r="1" fill="srgba(12.0485%,72.7825%,14.9828%,1)"/>
  <circle cx="11" cy="8" r="1" fill="srgba(12.0485%,72.7825%,14.9828%,1)"/>
  <circle cx="12" cy="8" r="1" fill="srgba(12.0485%,72.7825%,14.9828%,1)"/>
  <circle cx="13" cy="8" r="1" fill="srgba(12.0485%,72.7825%,14.9828%,1)"/>
  <circle cx="14" cy="8" r="1" fill="srgba(12.0485%,72.7825%,14.9828%,1)"/>
  <circle cx="15" cy="8" r="1" fill="srgba(12.0562%,72.784%,14.9905%,1)"/>
  <circle cx="0" cy="9" r="1" fill="white"/>
  <circle cx="1" cy="9" r="1" fill="white"/>
  <circle cx="2" cy="9" r="1" fill="white"/>
  <circle cx="3" cy="9" r="1" fill="white"/>
  <circle cx="4" cy="9" r="1" fill="srgba(99.6765%,99.9359%,99.7269%,1)"/>
  <circle cx="5" cy="9" r="1" fill="srgba(36.0464%,87.5059%,46.1036%,1)"/>
  <circle cx="6" cy="9" r="1" fill="srgba(0%,80.1266%,14.2611%,1)"/>
  <circle cx="7" cy="9" r="1" fill="srgba(0%,80.4669%,15.7321%,1)"/>
  <circle cx="8" cy="9" r="1" fill="srgba(0%,80.4669%,15.7321%,1)"/>
  <circle cx="9" cy="9" r="1" fill="srgba(0%,80.4669%,15.7321%,1)"/>
  <circle cx="10" cy="9" r="1" fill="srgba(0%,80.4669%,15.7321%,1)"/>
  <circle cx="11" cy="9" r="1" fill="srgba(0%,80.4669%,15.7321%,1)"/>
  <circle cx="12" cy="9" r="1" fill="srgba(0%,80.4669%,15.7321%,1)"/>
  <circle cx="13" cy="9" r="1" fill="srgba(0%,80.4669%,15.7321%,1)"/>
  <circle cx="14" cy="9" r="1" fill="srgba(0%,80.4669%,15.7321%,1)"/>
  <circle cx="15" cy="9" r="1" fill="srgba(0%,80.4669%,15.7397%,1)"/>
  <circle cx="0" cy="10" r="1" fill="white"/>
  <circle cx="1" cy="10" r="1" fill="white"/>
  <circle cx="2" cy="10" r="1" fill="white"/>
  <circle cx="3" cy="10" r="1" fill="white"/>
  <circle cx="4" cy="10" r="1" fill="srgba(99.6765%,99.9344%,99.7269%,1)"/>
  <circle cx="5" cy="10" r="1" fill="srgba(36.0494%,87.2084%,46.0746%,1)"/>
  <circle cx="6" cy="10" r="1" fill="srgba(0%,79.6506%,14.2153%,1)"/>
  <circle cx="7" cy="10" r="1" fill="srgba(0,204,40,1)"/>
  <circle cx="8" cy="10" r="1" fill="srgba(0,204,40,1)"/>
  <circle cx="9" cy="10" r="1" fill="srgba(0,204,40,1)"/>
  <circle cx="10" cy="10" r="1" fill="srgba(0,204,40,1)"/>
  <circle cx="11" cy="10" r="1" fill="srgba(0,204,40,1)"/>
  <circle cx="12" cy="10" r="1" fill="srgba(0,204,40,1)"/>
  <circle cx="13" cy="10" r="1" fill="srgba(0,204,40,1)"/>
  <circle cx="14" cy="10" r="1" fill="srgba(0,204,40,1)"/>
  <circle cx="15" cy="10" r="1" fill="srgba(0.00762951%,80%,15.6939%,1)"/>
  <circle cx="0" cy="11" r="1" fill="white"/>
  <circle cx="1" cy="11" r="1" fill="white"/>
  <circle cx="2" cy="11" r="1" fill="white"/>
  <circle cx="3" cy="11" r="1" fill="white"/>
  <circle cx="4" cy="11" r="1" fill="srgba(99.6765%,99.9344%,99.7269%,1)"/>
  <circle cx="5" cy="11" r="1" fill="srgba(36.0494%,87.2084%,46.0746%,1)"/>
  <circle cx="6" cy="11" r="1" fill="srgba(0%,79.6506%,14.2153%,1)"/>
  <circle cx="7" cy="11" r="1" fill="srgba(0,204,40,1)"/>
  <circle cx="8" cy="11" r="1" fill="srgba(0,204,40,1)"/>
  <circle cx="9" cy="11" r="1" fill="srgba(0,204,40,1)"/>
  <circle cx="10" cy="11" r="1" fill="srgba(0,204,40,1)"/>
  <circle cx="11" cy="11" r="1" fill="srgba(0,204,40,1)"/>
  <circle cx="12" cy="11" r="1" fill="srgba(0,204,40,1)"/>
  <circle cx="13" cy="11" r="1" fill="srgba(0,204,40,1)"/>
  <circle cx="14" cy="11" r="1" fill="srgba(0,204,40,1)"/>
  <circle cx="15" cy="11" r="1" fill="srgba(0.00762951%,80%,15.6939%,1)"/>
  <circle cx="0" cy="12" r="1" fill="white"/>
  <circle cx="1" cy="12" r="1" fill="white"/>
  <circle cx="2" cy="12" r="1" fill="white"/>
  <circle cx="3" cy="12" r="1" fill="white"/>
  <circle cx="4" cy="12" r="1" fill="srgba(99.6765%,99.9344%,99.7269%,1)"/>
  <circle cx="5" cy="12" r="1" fill="srgba(36.0494%,87.2084%,46.0746%,1)"/>
  <circle cx="6" cy="12" r="1" fill="srgba(0%,79.6506%,14.2153%,1)"/>
  <circle cx="7" cy="12" r="1" fill="srgba(0,204,40,1)"/>
  <circle cx="8" cy="12" r="1" fill="srgba(0,204,40,1)"/>
  <circle cx="9" cy="12" r="1" fill="srgba(0,204,40,1)"/>
  <circle cx="10" cy="12" r="1" fill="srgba(0,204,40,1)"/>
  <circle cx="11" cy="12" r="1" fill="srgba(0,204,40,1)"/>
  <circle cx="12" cy="12" r="1" fill="srgba(0,204,40,1)"/>
  <circle cx="13" cy="12" r="1" fill="srgba(0,204,40,1)"/>
  <circle cx="14" cy="12" r="1" fill="srgba(0,204,40,1)"/>
  <circle cx="15" cy="12" r="1" fill="srgba(0.00762951%,80%,15.6939%,1)"/>
  <circle cx="0" cy="13" r="1" fill="white"/>
  <circle cx="1" cy="13" r="1" fill="white"/>
  <circle cx="2" cy="13" r="1" fill="white"/>
  <circle cx="3" cy="13" r="1" fill="white"/>
  <circle cx="4" cy="13" r="1" fill="srgba(99.6765%,99.9344%,99.7269%,1)"/>
  <circle cx="5" cy="13" r="1" fill="srgba(36.0494%,87.2084%,46.0746%,1)"/>
  <circle cx="6" cy="13" r="1" fill="srgba(0%,79.6506%,14.2153%,1)"/>
  <circle cx="7" cy="13" r="1" fill="srgba(0,204,40,1)"/>
  <circle cx="8" cy="13" r="1" fill="srgba(0,204,40,1)"/>
  <circle cx="9" cy="13" r="1" fill="srgba(0,204,40,1)"/>
  <circle cx="10" cy="13" r="1" fill="srgba(0,204,40,1)"/>
  <circle cx="11" cy="13" r="1" fill="srgba(0,204,40,1)"/>
  <circle cx="12" cy="13" r="1" fill="srgba(0,204,40,1)"/>
  <circle cx="13" cy="13" r="1" fill="srgba(0,204,40,1)"/>
  <circle cx="14" cy="13" r="1" fill="srgba(0,204,40,1)"/>
  <circle cx="15" cy="13" r="1" fill="srgba(0.00762951%,80%,15.6939%,1)"/>
  <circle cx="0" cy="14" r="1" fill="white"/>
  <circle cx="1" cy="14" r="1" fill="white"/>
  <circle cx="2" cy="14" r="1" fill="white"/>
  <circle cx="3" cy="14" r="1" fill="white"/>
  <circle cx="4" cy="14" r="1" fill="srgba(99.6765%,99.9344%,99.7269%,1)"/>
  <circle cx="5" cy="14" r="1" fill="srgba(36.0494%,87.2084%,46.0731%,1)"/>
  <circle cx="6" cy="14" r="1" fill="srgba(0%,79.6506%,14.2138%,1)"/>
  <circle cx="7" cy="14" r="1" fill="srgba(0%,80%,15.6847%,1)"/>
  <circle cx="8" cy="14" r="1" fill="srgba(0%,80%,15.6847%,1)"/>
  <circle cx="9" cy="14" r="1" fill="srgba(0%,80%,15.6847%,1)"/>
  <circle cx="10" cy="14" r="1" fill="srgba(0%,80%,15.6847%,1)"/>
  <circle cx="11" cy="14" r="1" fill="srgba(0%,80%,15.6847%,1)"/>
  <circle cx="12" cy="14" r="1" fill="srgba(0%,80%,15.6847%,1)"/>
  <circle cx="13" cy="14" r="1" fill="srgba(0%,80%,15.6847%,1)"/>
  <circle cx="14" cy="14" r="1" fill="srgba(0%,80%,15.6847%,1)"/>
  <circle cx="15" cy="14" r="1" fill="srgba(0.00762951%,80%,15.6924%,1)"/>
  <circle cx="0" cy="15" r="1" fill="white"/>
  <circle cx="1" cy="15" r="1" fill="white"/>
  <circle cx="2" cy="15" r="1" fill="white"/>
  <circle cx="3" cy="15" r="1" fill="white"/>
  <circle cx="4" cy="15" r="1" fill="srgba(99.6765%,99.9344%,99.7269%,1)"/>
  <circle cx="5" cy="15" r="1" fill="srgba(36.0632%,87.2129%,46.0899%,1)"/>
  <circle cx="6" cy="15" r="1" fill="srgba(0%,79.6582%,14.2382%,1)"/>
  <circle cx="7" cy="15" r="1" fill="srgba(0.0228885%,80.0076%,15.7092%,1)"/>
  <circle cx="8" cy="15" r="1" fill="srgba(0.0228885%,80.0076%,15.7092%,1)"/>
  <circle cx="9" cy="15" r="1" fill="srgba(0.0228885%,80.0076%,15.7092%,1)"/>
  <circle cx="10" cy="15" r="1" fill="srgba(0.0228885%,80.0076%,15.7092%,1)"/>
  <circle cx="11" cy="15" r="1" fill="srgba(0.0228885%,80.0076%,15.7092%,1)"/>
  <circle cx="12" cy="15" r="1" fill="srgba(0.0228885%,80.0076%,15.7092%,1)"/>
  <circle cx="13" cy="15" r="1" fill="srgba(0.0228885%,80.0076%,15.7092%,1)"/>
  <circle cx="14" cy="15" r="1" fill="srgba(0.0228885%,80.0076%,15.7092%,1)"/>
  <circle cx="15" cy="15" r="1" fill="srgba(0.030518%,80.0076%,15.7168%,1)"/>
</svg>
