<?xml version="1.0" standalone="no"?>
<!DOCTYPE svg PUBLIC "-//W3C//DTD SVG 20010904//EN"
  "http://www.w3.org/TR/2001/REC-SVG-20010904/DTD/svg10.dtd">
<svg width="16" height="16">
  <circle cx="0" cy="0" r="1" fill="srgba(23.1388%,35.2956%,63.9231%,1)"/>
  <circle cx="1" cy="0" r="1" fill="srgba(23.1235%,35.2819%,63.9155%,1)"/>
  <circle cx="2" cy="0" r="1" fill="srgba(22.9557%,35.14%,63.8361%,1)"/>
  <circle cx="3" cy="0" r="1" fill="srgba(24.123%,36.1242%,64.3839%,1)"/>
  <circle cx="4" cy="0" r="1" fill="srgba(28.5252%,39.8306%,66.45%,1)"/>
  <circle cx="5" cy="0" r="1" fill="srgba(23.1144%,35.2743%,63.9109%,1)"/>
  <circle cx="6" cy="0" r="1" fill="srgba(23.0121%,35.1888%,63.8636%,1)"/>
  <circle cx="7" cy="0" r="1" fill="srgba(23.1312%,35.2895%,63.9185%,1)"/>
  <circle cx="8" cy="0" r="1" fill="srgba(59,90,163,1)"/>
  <circle cx="9" cy="0" r="1" fill="srgba(59,90,163,1)"/>
  <circle cx="10" cy="0" r="1" fill="srgba(59,90,163,1)"/>
  <circle cx="11" cy="0" r="1" fill="srgba(59,90,163,1)"/>
  <circle cx="12" cy="0" r="1" fill="srgba(23.1495%,35.3002%,63.9155%,1)"/>
  <circle cx="13" cy="0" r="1" fill="srgba(22.7222%,35.0851%,64.1108%,1)"/>
  <circle cx="14" cy="0" r="1" fill="srgba(25.7954%,36.6308%,62.7115%,1)"/>
  <circle cx="15" cy="0" r="1" fill="srgba(56.7391%,52.1965%,48.6442%,1)"/>
  <circle cx="0" cy="1" r="1" fill="srgba(23.1189%,35.2789%,63.9139%,1)"/>
  <circle cx="1" cy="1" r="1" fill="srgba(23.1754%,35.3262%,63.9399%,1)"/>
  <circle cx="2" cy="1" r="1" fill="srgba(26.5751%,38.1888%,65.5344%,1)"/>
  <circle cx="3" cy="1" r="1" fill="srgba(35.4986%,45.7008%,69.723%,1)"/>
  <circle cx="4" cy="1" r="1" fill="srgba(43.2456%,52.224%,73.3608%,1)"/>
  <circle cx="5" cy="1" r="1" fill="srgba(33.1029%,43.6835%,68.6%,1)"/>
  <circle cx="6" cy="1" r="1" fill="srgba(25.6626%,37.4212%,65.1072%,1)"/>
  <circle cx="7" cy="1" r="1" fill="srgba(23.0457%,35.2178%,63.8788%,1)"/>
  <circle cx="8" cy="1" r="1" fill="srgba(23.1342%,35.2911%,63.92%,1)"/>
  <circle cx="9" cy="1" r="1" fill="srgba(59,90,163,1)"/>
  <circle cx="10" cy="1" r="1" fill="srgba(59,90,163,1)"/>
  <circle cx="11" cy="1" r="1" fill="srgba(23.1479%,35.3002%,63.917%,1)"/>
  <circle cx="12" cy="1" r="1" fill="srgba(22.742%,35.0958%,64.1016%,1)"/>
  <circle cx="13" cy="1" r="1" fill="srgba(25.3513%,36.4065%,62.9145%,1)"/>
  <circle cx="14" cy="1" r="1" fill="srgba(57.7844%,52.7214%,48.159%,1)"/>
  <circle cx="15" cy="1" r="1" fill="srgba(86.6148%,67.1366%,34.7967%,1)"/>
  <circle cx="0" cy="2" r="1" fill="srgba(22.9664%,35.1507%,63.8407%,1)"/>
  <circle cx="1" cy="2" r="1" fill="srgba(26.8147%,38.3902%,65.6474%,1)"/>
  <circle cx="2" cy="2" r="1" fill="srgba(45.4154%,54.049%,74.3786%,1)"/>
  <circle cx="3" cy="2" r="1" fill="srgba(69.5598%,74.374%,85.7115%,1)"/>
  <circle cx="4" cy="2" r="1" fill="srgba(78.9914%,82.3148%,90.1396%,1)"/>
  <circle cx="5" cy="2" r="1" fill="srgba(65.1453%,70.6584%,83.6408%,1)"/>
  <circle cx="6" cy="2" r="1" fill="srgba(39.3927%,48.9799%,71.5511%,1)"/>
  <circle cx="7" cy="2" r="1" fill="srgba(25.0523%,36.9085%,64.8219%,1)"/>
  <circle cx="8" cy="2" r="1" fill="srgba(23.0335%,35.2071%,63.8727%,1)"/>
  <circle cx="9" cy="2" r="1" fill="srgba(59,90,163,1)"/>
  <circle cx="10" cy="2" r="1" fill="srgba(23.1495%,35.3002%,63.9155%,1)"/>
  <circle cx="11" cy="2" r="1" fill="srgba(22.7054%,35.0774%,64.1184%,1)"/>
  <circle cx="12" cy="2" r="1" fill="srgba(25.7527%,36.6094%,62.7329%,1)"/>
  <circle cx="13" cy="2" r="1" fill="srgba(59.0173%,53.341%,47.5975%,1)"/>
  <circle cx="14" cy="2" r="1" fill="srgba(87.628%,67.509%,33.9666%,1)"/>
  <circle cx="15" cy="2" r="1" fill="srgba(89.4118%,69.9596%,37.3846%,1)"/>
  <circle cx="0" cy="3" r="1" fill="srgba(23.7644%,35.8221%,64.2161%,1)"/>
  <circle cx="1" cy="3" r="1" fill="srgba(35.3918%,45.6107%,69.6727%,1)"/>
  <circle cx="2" cy="3" r="1" fill="srgba(71.0079%,75.5932%,86.3905%,1)"/>
  <circle cx="3" cy="3" r="1" fill="srgba(97.5616%,97.9461%,98.8556%,1)"/>
  <circle cx="4" cy="3" r="1" fill="white"/>
  <circle cx="5" cy="3" r="1" fill="srgba(93.7484%,94.7387%,97.0657%,1)"/>
  <circle cx="6" cy="3" r="1" fill="srgba(60.0458%,66.3676%,81.2467%,1)"/>
  <circle cx="7" cy="3" r="1" fill="srgba(30.5821%,41.5625%,67.4174%,1)"/>
  <circle cx="8" cy="3" r="1" fill="srgba(23.2364%,35.378%,63.9673%,1)"/>
  <circle cx="9" cy="3" r="1" fill="srgba(23.1403%,35.2926%,63.9109%,1)"/>
  <circle cx="10" cy="3" r="1" fill="srgba(22.6703%,35.0591%,64.1337%,1)"/>
  <circle cx="11" cy="3" r="1" fill="srgba(26.1723%,36.8215%,62.5437%,1)"/>
  <circle cx="12" cy="3" r="1" fill="srgba(60.2136%,53.9254%,47.0039%,1)"/>
  <circle cx="13" cy="3" r="1" fill="srgba(87.8141%,67.4968%,33.5882%,1)"/>
  <circle cx="14" cy="3" r="1" fill="srgba(90.7317%,73.5561%,44.7913%,1)"/>
  <circle cx="15" cy="3" r="1" fill="srgba(96.1822%,89.5811%,78.5534%,1)"/>
  <circle cx="0" cy="4" r="1" fill="srgba(28.9494%,40.1892%,66.6499%,1)"/>
  <circle cx="1" cy="4" r="1" fill="srgba(44.683%,53.4356%,74.0352%,1)"/>
  <circle cx="2" cy="4" r="1" fill="srgba(81.5808%,84.4938%,91.3542%,1)"/>
  <circle cx="3" cy="4" r="1" fill="white"/>
  <circle cx="4" cy="4" r="1" fill="white"/>
  <circle cx="5" cy="4" r="1" fill="srgba(98.9639%,99.1272%,99.5132%,1)"/>
  <circle cx="6" cy="4" r="1" fill="srgba(71.22%,75.7733%,86.4927%,1)"/>
  <circle cx="7" cy="4" r="1" fill="srgba(39.8169%,49.3385%,71.751%,1)"/>
  <circle cx="8" cy="4" r="1" fill="srgba(26.5705%,38.1811%,65.5207%,1)"/>
  <circle cx="9" cy="4" r="1" fill="srgba(22.5559%,34.9752%,64.1138%,1)"/>
  <circle cx="10" cy="4" r="1" fill="srgba(26.6178%,37.0459%,62.3423%,1)"/>
  <circle cx="11" cy="4" r="1" fill="srgba(61.3947%,54.4793%,46.3523%,1)"/>
  <circle cx="12" cy="4" r="1" fill="srgba(88.098%,67.7729%,33.8231%,1)"/>
  <circle cx="13" cy="4" r="1" fill="srgba(91.7403%,76.4385%,50.811%,1)"/>
  <circle cx="14" cy="4" r="1" fill="srgba(97.9171%,94.1878%,87.95%,1)"/>
  <circle cx="15" cy="4" r="1" fill="srgba(99.9741%,100%,100%,1)"/>
  <circle cx="0" cy="5" r="1" fill="srgba(23.3463%,35.4696%,64.0192%,1)"/>
  <circle cx="1" cy="5" r="1" fill="srgba(33.9925%,44.4327%,69.0181%,1)"/>
  <circle cx="2" cy="5" r="1" fill="srgba(67.538%,72.6726%,84.7623%,1)"/>
  <circle cx="3" cy="5" r="1" fill="srgba(95.7519%,96.4233%,98.0056%,1)"/>
  <circle cx="4" cy="5" r="1" fill="srgba(99.4812%,99.5621%,99.7559%,1)"/>
  <circle cx="5" cy="5" r="1" fill="srgba(91.7571%,93.0632%,96.1303%,1)"/>
  <circle cx="6" cy="5" r="1" fill="srgba(58.0606%,64.6952%,80.3159%,1)"/>
  <circle cx="7" cy="5" r="1" fill="srgba(29.7704%,40.8743%,67.0237%,1)"/>
  <circle cx="8" cy="5" r="1" fill="srgba(22.6123%,35.0347%,64.1733%,1)"/>
  <circle cx="9" cy="5" r="1" fill="srgba(27.0909%,37.2854%,62.1286%,1)"/>
  <circle cx="10" cy="5" r="1" fill="srgba(62.5452%,54.9828%,45.626%,1)"/>
  <circle cx="11" cy="5" r="1" fill="srgba(88.4901%,68.4062%,34.8379%,1)"/>
  <circle cx="12" cy="5" r="1" fill="srgba(93.0419%,80.1297%,58.5061%,1)"/>
  <circle cx="13" cy="5" r="1" fill="srgba(98.7976%,96.6552%,93.0694%,1)"/>
  <circle cx="14" cy="5" r="1" fill="white"/>
  <circle cx="15" cy="5" r="1" fill="srgba(97.998%,98.3169%,99.0616%,1)"/>
  <circle cx="0" cy="6" r="1" fill="srgba(23.003%,35.1812%,63.859%,1)"/>
  <circle cx="1" cy="6" r="1" fill="srgba(25.6382%,37.3983%,65.095%,1)"/>
  <circle cx="2" cy="6" r="1" fill="srgba(41.9287%,51.1147%,72.7398%,1)"/>
  <circle cx="3" cy="6" r="1" fill="srgba(64.0742%,69.7551%,83.1357%,1)"/>
  <circle cx="4" cy="6" r="1" fill="srgba(73.64%,77.8073%,87.628%,1)"/>
  <circle cx="5" cy="6" r="1" fill="srgba(58.9197%,65.4185%,80.7172%,1)"/>
  <circle cx="6" cy="6" r="1" fill="srgba(37.0062%,46.9657%,70.4204%,1)"/>
  <circle cx="7" cy="6" r="1" fill="srgba(23.8972%,36.1288%,64.8096%,1)"/>
  <circle cx="8" cy="6" r="1" fill="srgba(27.5303%,37.4807%,61.8631%,1)"/>
  <circle cx="9" cy="6" r="1" fill="srgba(63.679%,55.4559%,44.8463%,1)"/>
  <circle cx="10" cy="6" r="1" fill="srgba(89.0578%,69.5842%,37.0092%,1)"/>
  <circle cx="11" cy="6" r="1" fill="srgba(94.4656%,84.1581%,66.891%,1)"/>
  <circle cx="12" cy="6" r="1" fill="srgba(99.4614%,98.4268%,96.6888%,1)"/>
  <circle cx="13" cy="6" r="1" fill="srgba(99.8993%,99.9832%,100%,1)"/>
  <circle cx="14" cy="6" r="1" fill="srgba(85.6474%,87.9179%,93.2631%,1)"/>
  <circle cx="15" cy="6" r="1" fill="srgba(52.4178%,59.9451%,77.6669%,1)"/>
  <circle cx="0" cy="7" r="1" fill="srgba(23.1281%,35.2865%,63.917%,1)"/>
  <circle cx="1" cy="7" r="1" fill="srgba(23.0701%,35.2377%,63.8895%,1)"/>
  <circle cx="2" cy="7" r="1" fill="srgba(25.4414%,37.2335%,65.0019%,1)"/>
  <circle cx="3" cy="7" r="1" fill="srgba(31.87%,42.6459%,68.0201%,1)"/>
  <circle cx="4" cy="7" r="1" fill="srgba(40.264%,49.7124%,71.96%,1)"/>
  <circle cx="5" cy="7" r="1" fill="srgba(29.604%,40.7324%,66.9444%,1)"/>
  <circle cx="6" cy="7" r="1" fill="srgba(23.9994%,36.2264%,64.8905%,1)"/>
  <circle cx="7" cy="7" r="1" fill="srgba(28.0446%,37.7264%,61.59%,1)"/>
  <circle cx="8" cy="7" r="1" fill="srgba(64.8005%,55.9365%,44.1032%,1)"/>
  <circle cx="9" cy="7" r="1" fill="srgba(89.8558%,71.4488%,40.6439%,1)"/>
  <circle cx="10" cy="7" r="1" fill="srgba(95.9213%,88.2139%,75.288%,1)"/>
  <circle cx="11" cy="7" r="1" fill="srgba(100%,99.6628%,98.9624%,1)"/>
  <circle cx="12" cy="7" r="1" fill="srgba(95.8145%,96.5148%,98.1384%,1)"/>
  <circle cx="13" cy="7" r="1" fill="srgba(67.3838%,72.5414%,84.6906%,1)"/>
  <circle cx="14" cy="7" r="1" fill="srgba(32.5673%,43.2319%,68.3467%,1)"/>
  <circle cx="15" cy="7" r="1" fill="srgba(22.2141%,34.5159%,63.4882%,1)"/>
  <circle cx="0" cy="8" r="1" fill="srgba(59,90,163,1)"/>
  <circle cx="1" cy="8" r="1" fill="srgba(59,90,163,1)"/>
  <circle cx="2" cy="8" r="1" fill="srgba(22.9969%,35.1751%,63.856%,1)"/>
  <circle cx="3" cy="8" r="1" fill="srgba(23.4745%,35.5779%,64.0803%,1)"/>
  <circle cx="4" cy="8" r="1" fill="srgba(26.6102%,38.2132%,65.5375%,1)"/>
  <circle cx="5" cy="8" r="1" fill="srgba(22.3758%,34.8714%,64.1611%,1)"/>
  <circle cx="6" cy="8" r="1" fill="srgba(28.6229%,37.9965%,61.2741%,1)"/>
  <circle cx="7" cy="8" r="1" fill="srgba(65.9495%,56.5118%,43.5767%,1)"/>
  <circle cx="8" cy="8" r="1" fill="srgba(90.9117%,74.0764%,45.8839%,1)"/>
  <circle cx="9" cy="8" r="1" fill="srgba(97.4166%,92.0912%,83.0655%,1)"/>
  <circle cx="10" cy="8" r="1" fill="srgba(99.6765%,99.7543%,99.8398%,1)"/>
  <circle cx="11" cy="8" r="1" fill="srgba(83.7613%,86.363%,92.462%,1)"/>
  <circle cx="12" cy="8" r="1" fill="srgba(46.4912%,54.9538%,74.8806%,1)"/>
  <circle cx="13" cy="8" r="1" fill="srgba(24.1291%,36.1303%,64.387%,1)"/>
  <circle cx="14" cy="8" r="1" fill="srgba(22.4537%,34.7189%,63.6011%,1)"/>
  <circle cx="15" cy="8" r="1" fill="srgba(23.2868%,35.4208%,63.9933%,1)"/>
  <circle cx="0" cy="9" r="1" fill="srgba(59,90,163,1)"/>
  <circle cx="1" cy="9" r="1" fill="srgba(59,90,163,1)"/>
  <circle cx="2" cy="9" r="1" fill="srgba(59,90,163,1)"/>
  <circle cx="3" cy="9" r="1" fill="srgba(23.1373%,35.2895%,63.9094%,1)"/>
  <circle cx="4" cy="9" r="1" fill="srgba(22.385%,34.8928%,64.2008%,1)"/>
  <circle cx="5" cy="9" r="1" fill="srgba(29.2927%,38.3124%,60.911%,1)"/>
  <circle cx="6" cy="9" r="1" fill="srgba(67.158%,57.3159%,43.5615%,1)"/>
  <circle cx="7" cy="9" r="1" fill="srgba(92.2972%,77.4929%,52.6726%,1)"/>
  <circle cx="8" cy="9" r="1" fill="srgba(98.9242%,95.5978%,89.723%,1)"/>
  <circle cx="9" cy="9" r="1" fill="srgba(94.7143%,95.79%,98.056%,1)"/>
  <circle cx="10" cy="9" r="1" fill="srgba(64.2283%,69.9046%,83.2578%,1)"/>
  <circle cx="11" cy="9" r="1" fill="srgba(30.8492%,41.7853%,67.5395%,1)"/>
  <circle cx="12" cy="9" r="1" fill="srgba(22.1027%,34.4228%,63.4363%,1)"/>
  <circle cx="13" cy="9" r="1" fill="srgba(22.9984%,35.1766%,63.856%,1)"/>
  <circle cx="14" cy="9" r="1" fill="srgba(23.1357%,35.2926%,63.9216%,1)"/>
  <circle cx="15" cy="9" r="1" fill="srgba(23.2837%,35.4177%,63.9902%,1)"/>
  <circle cx="0" cy="10" r="1" fill="srgba(59,90,163,1)"/>
  <circle cx="1" cy="10" r="1" fill="srgba(59,90,163,1)"/>
  <circle cx="2" cy="10" r="1" fill="srgba(23.1495%,35.3002%,63.9155%,1)"/>
  <circle cx="3" cy="10" r="1" fill="srgba(22.4323%,34.9447%,64.2557%,1)"/>
  <circle cx="4" cy="10" r="1" fill="srgba(29.9001%,38.5382%,60.4166%,1)"/>
  <circle cx="5" cy="10" r="1" fill="srgba(68.4932%,58.526%,44.4236%,1)"/>
  <circle cx="6" cy="10" r="1" fill="srgba(94.1833%,81.7212%,60.737%,1)"/>
  <circle cx="7" cy="10" r="1" fill="srgba(98.9364%,97.3205%,94.3511%,1)"/>
  <circle cx="8" cy="10" r="1" fill="srgba(81.3275%,84.5457%,91.9295%,1)"/>
  <circle cx="9" cy="10" r="1" fill="srgba(43.6912%,52.5963%,73.5668%,1)"/>
  <circle cx="10" cy="10" r="1" fill="srgba(23.5142%,35.6115%,64.0986%,1)"/>
  <circle cx="11" cy="10" r="1" fill="srgba(22.5574%,34.8058%,63.65%,1)"/>
  <circle cx="12" cy="10" r="1" fill="srgba(23.1464%,35.3017%,63.9261%,1)"/>
  <circle cx="13" cy="10" r="1" fill="srgba(59,90,163,1)"/>
  <circle cx="14" cy="10" r="1" fill="srgba(23.1296%,35.2865%,63.917%,1)"/>
  <circle cx="15" cy="10" r="1" fill="srgba(23.2837%,35.4177%,63.9902%,1)"/>
  <circle cx="0" cy="11" r="1" fill="srgba(59,90,163,1)"/>
  <circle cx="1" cy="11" r="1" fill="srgba(23.1479%,35.3002%,63.917%,1)"/>
  <circle cx="2" cy="11" r="1" fill="srgba(22.4033%,34.9294%,64.2679%,1)"/>
  <circle cx="3" cy="11" r="1" fill="srgba(30.5272%,38.7549%,59.8581%,1)"/>
  <circle cx="4" cy="11" r="1" fill="srgba(70.1518%,60.4303%,46.5888%,1)"/>
  <circle cx="5" cy="11" r="1" fill="srgba(96.2631%,86.2776%,69.3858%,1)"/>
  <circle cx="6" cy="11" r="1" fill="srgba(93.0587%,93.3852%,94.6349%,1)"/>
  <circle cx="7" cy="11" r="1" fill="srgba(61.1124%,67.4388%,82.2263%,1)"/>
  <circle cx="8" cy="11" r="1" fill="srgba(29.2393%,40.4273%,66.7735%,1)"/>
  <circle cx="9" cy="11" r="1" fill="srgba(22.1012%,34.4213%,63.4348%,1)"/>
  <circle cx="10" cy="11" r="1" fill="srgba(23.0411%,35.2132%,63.8773%,1)"/>
  <circle cx="11" cy="11" r="1" fill="srgba(23.1434%,35.2987%,63.9246%,1)"/>
  <circle cx="12" cy="11" r="1" fill="srgba(59,90,163,1)"/>
  <circle cx="13" cy="11" r="1" fill="srgba(59,90,163,1)"/>
  <circle cx="14" cy="11" r="1" fill="srgba(23.1296%,35.2865%,63.917%,1)"/>
  <circle cx="15" cy="11" r="1" fill="srgba(23.2837%,35.4177%,63.9902%,1)"/>
  <circle cx="0" cy="12" r="1" fill="srgba(23.1479%,35.3002%,63.9185%,1)"/>
  <circle cx="1" cy="12" r="1" fill="srgba(22.3789%,34.9065%,64.2512%,1)"/>
  <circle cx="2" cy="12" r="1" fill="srgba(31.2032%,39.0204%,59.3515%,1)"/>
  <circle cx="3" cy="12" r="1" fill="srgba(72.4193%,63.3692%,50.4616%,1)"/>
  <circle cx="4" cy="12" r="1" fill="srgba(96.144%,88.9372%,76.8612%,1)"/>
  <circle cx="5" cy="12" r="1" fill="srgba(78.5183%,81.8067%,89.6178%,1)"/>
  <circle cx="6" cy="12" r="1" fill="srgba(41.0803%,50.4967%,72.607%,1)"/>
  <circle cx="7" cy="12" r="1" fill="srgba(23.0289%,35.1995%,63.8621%,1)"/>
  <circle cx="8" cy="12" r="1" fill="srgba(22.6551%,34.8882%,63.6942%,1)"/>
  <circle cx="9" cy="12" r="1" fill="srgba(23.1495%,35.3033%,63.9277%,1)"/>
  <circle cx="10" cy="12" r="1" fill="srgba(59,90,163,1)"/>
  <circle cx="11" cy="12" r="1" fill="srgba(59,90,163,1)"/>
  <circle cx="12" cy="12" r="1" fill="srgba(59,90,163,1)"/>
  <circle cx="13" cy="12" r="1" fill="srgba(59,90,163,1)"/>
  <circle cx="14" cy="12" r="1" fill="srgba(23.1296%,35.2865%,63.917%,1)"/>
  <circle cx="15" cy="12" r="1" fill="srgba(23.2837%,35.4177%,63.9902%,1)"/>
  <circle cx="0" cy="13" r="1" fill="srgba(22.2217%,34.7906%,64.2222%,1)"/>
  <circle cx="1" cy="13" r="1" fill="srgba(32.0516%,39.5438%,59.2248%,1)"/>
  <circle cx="2" cy="13" r="1" fill="srgba(74.8272%,66.9764%,55.9045%,1)"/>
  <circle cx="3" cy="13" r="1" fill="srgba(89.7337%,86.0273%,80.6394%,1)"/>
  <circle cx="4" cy="13" r="1" fill="srgba(58.0011%,64.8402%,80.8209%,1)"/>
  <circle cx="5" cy="13" r="1" fill="srgba(27.8462%,39.2981%,66.2409%,1)"/>
  <circle cx="6" cy="13" r="1" fill="srgba(22.1363%,34.4503%,63.447%,1)"/>
  <circle cx="7" cy="13" r="1" fill="srgba(23.0762%,35.2422%,63.8926%,1)"/>
  <circle cx="8" cy="13" r="1" fill="srgba(23.1418%,35.2972%,63.9231%,1)"/>
  <circle cx="9" cy="13" r="1" fill="srgba(59,90,163,1)"/>
  <circle cx="10" cy="13" r="1" fill="srgba(59,90,163,1)"/>
  <circle cx="11" cy="13" r="1" fill="srgba(59,90,163,1)"/>
  <circle cx="12" cy="13" r="1" fill="srgba(59,90,163,1)"/>
  <circle cx="13" cy="13" r="1" fill="srgba(59,90,163,1)"/>
  <circle cx="14" cy="13" r="1" fill="srgba(23.1296%,35.2865%,63.917%,1)"/>
  <circle cx="15" cy="13" r="1" fill="srgba(23.2837%,35.4177%,63.9902%,1)"/>
  <circle cx="0" cy="14" r="1" fill="srgba(35.2102%,41.6922%,59.3164%,1)"/>
  <circle cx="1" cy="14" r="1" fill="srgba(73.93%,68.4581%,61.5808%,1)"/>
  <circle cx="2" cy="14" r="1" fill="srgba(74.374%,75.1675%,79.0768%,1)"/>
  <circle cx="3" cy="14" r="1" fill="srgba(38.6038%,48.5817%,71.9112%,1)"/>
  <circle cx="4" cy="14" r="1" fill="srgba(22.6734%,34.9142%,63.7293%,1)"/>
  <circle cx="5" cy="14" r="1" fill="srgba(22.7481%,34.966%,63.7369%,1)"/>
  <circle cx="6" cy="14" r="1" fill="srgba(23.1495%,35.3048%,63.9277%,1)"/>
  <circle cx="7" cy="14" r="1" fill="srgba(59,90,163,1)"/>
  <circle cx="8" cy="14" r="1" fill="srgba(59,90,163,1)"/>
  <circle cx="9" cy="14" r="1" fill="srgba(59,90,163,1)"/>
  <circle cx="10" cy="14" r="1" fill="srgba(59,90,163,1)"/>
  <circle cx="11" cy="14" r="1" fill="srgba(59,90,163,1)"/>
  <circle cx="12" cy="14" r="1" fill="srgba(59,90,163,1)"/>
  <circle cx="13" cy="14" r="1" fill="srgba(59,90,163,1)"/>
  <circle cx="14" cy="14" r="1" fill="srgba(23.1296%,35.2865%,63.917%,1)"/>
  <circle cx="15" cy="14" r="1" fill="srgba(23.2837%,35.4177%,63.9902%,1)"/>
  <circle cx="0" cy="15" r="1" fill="srgba(74.6029%,70.0969%,64.8264%,1)"/>
  <circle cx="1" cy="15" r="1" fill="srgba(58.9197%,63.3722%,75.1385%,1)"/>
  <circle cx="2" cy="15" r="1" fill="srgba(27.2496%,39.0127%,66.5522%,1)"/>
  <circle cx="3" cy="15" r="1" fill="srgba(22.0722%,34.3954%,63.415%,1)"/>
  <circle cx="4" cy="15" r="1" fill="srgba(23.0976%,35.2605%,63.9017%,1)"/>
  <circle cx="5" cy="15" r="1" fill="srgba(23.1403%,35.2972%,63.9231%,1)"/>
  <circle cx="6" cy="15" r="1" fill="srgba(59,90,163,1)"/>
  <circle cx="7" cy="15" r="1" fill="srgba(59,90,163,1)"/>
  <circle cx="8" cy="15" r="1" fill="srgba(59,90,163,1)"/>
  <circle cx="9" cy="15" r="1" fill="srgba(59,90,163,1)"/>
  <circle cx="10" cy="15" r="1" fill="srgba(59,90,163,1)"/>
  <circle cx="11" cy="15" r="1" fill="srgba(59,90,163,1)"/>
  <circle cx="12" cy="15" r="1" fill="srgba(59,90,163,1)"/>
  <circle cx="13" cy="15" r="1" fill="srgba(59,90,163,1)"/>
  <circle cx="14" cy="15" r="1" fill="srgba(23.1296%,35.2865%,63.917%,1)"/>
  <circle cx="15" cy="15" r="1" fill="srgba(23.2837%,35.4177%,63.9902%,1)"/>
</svg>
