<?xml version="1.0" standalone="no"?>
<!DOCTYPE svg PUBLIC "-//W3C//DTD SVG 20010904//EN"
  "http://www.w3.org/TR/2001/REC-SVG-20010904/DTD/svg10.dtd">
<svg width="16" height="16">
  <circle cx="0" cy="0" r="1" fill="srgba(91.1818%,45.0996%,0%,1)"/>
  <circle cx="1" cy="0" r="1" fill="srgba(99.3591%,87.6295%,0%,1)"/>
  <circle cx="2" cy="0" r="1" fill="srgba(98.3795%,82.1546%,0%,1)"/>
  <circle cx="3" cy="0" r="1" fill="srgba(86.0655%,19.379%,0%,1)"/>
  <circle cx="4" cy="0" r="1" fill="srgba(82.118%,0%,0%,1)"/>
  <circle cx="5" cy="0" r="1" fill="srgba(82.1042%,0%,0%,1)"/>
  <circle cx="6" cy="0" r="1" fill="srgba(90.6004%,42.3209%,0%,1)"/>
  <circle cx="7" cy="0" r="1" fill="srgba(100%,91.1284%,0%,1)"/>
  <circle cx="8" cy="0" r="1" fill="srgba(100%,91.1269%,0%,1)"/>
  <circle cx="9" cy="0" r="1" fill="srgba(90.6004%,42.3117%,0%,1)"/>
  <circle cx="10" cy="0" r="1" fill="srgba(82.1042%,0%,0%,1)"/>
  <circle cx="11" cy="0" r="1" fill="srgba(82.118%,0%,0%,1)"/>
  <circle cx="12" cy="0" r="1" fill="srgba(86.067%,19.3851%,0%,1)"/>
  <circle cx="13" cy="0" r="1" fill="srgba(98.3795%,82.1592%,0%,1)"/>
  <circle cx="14" cy="0" r="1" fill="srgba(99.3591%,87.6295%,0%,1)"/>
  <circle cx="15" cy="0" r="1" fill="srgba(91.1818%,45.0996%,0%,1)"/>
  <circle cx="0" cy="1" r="1" fill="srgba(82.9603%,3.38903%,0%,1)"/>
  <circle cx="1" cy="1" r="1" fill="srgba(91.1833%,45.1041%,0%,1)"/>
  <circle cx="2" cy="1" r="1" fill="srgba(99.6216%,89.0043%,0%,1)"/>
  <circle cx="3" cy="1" r="1" fill="srgba(94.3465%,61.619%,0%,1)"/>
  <circle cx="4" cy="1" r="1" fill="srgba(83.2151%,4.87678%,0%,1)"/>
  <circle cx="5" cy="1" r="1" fill="srgba(82.0005%,0%,0%,1)"/>
  <circle cx="6" cy="1" r="1" fill="srgba(87.4891%,26.4073%,0%,1)"/>
  <circle cx="7" cy="1" r="1" fill="srgba(99.5636%,88.0751%,0%,1)"/>
  <circle cx="8" cy="1" r="1" fill="srgba(99.5636%,88.072%,0%,1)"/>
  <circle cx="9" cy="1" r="1" fill="srgba(87.4891%,26.3996%,0%,1)"/>
  <circle cx="10" cy="1" r="1" fill="srgba(82.0005%,0%,0%,1)"/>
  <circle cx="11" cy="1" r="1" fill="srgba(83.2151%,4.87831%,0%,1)"/>
  <circle cx="12" cy="1" r="1" fill="srgba(94.3481%,61.6251%,0%,1)"/>
  <circle cx="13" cy="1" r="1" fill="srgba(99.6216%,89.0043%,0%,1)"/>
  <circle cx="14" cy="1" r="1" fill="srgba(91.1833%,45.1041%,0%,1)"/>
  <circle cx="15" cy="1" r="1" fill="srgba(82.9603%,3.38903%,0%,1)"/>
  <circle cx="0" cy="2" r="1" fill="srgba(82.2568%,0%,0%,1)"/>
  <circle cx="1" cy="2" r="1" fill="srgba(82.7588%,2.6978%,0%,1)"/>
  <circle cx="2" cy="2" r="1" fill="srgba(91.2093%,45.2644%,0%,1)"/>
  <circle cx="3" cy="2" r="1" fill="srgba(99.1989%,87.0634%,0%,1)"/>
  <circle cx="4" cy="2" r="1" fill="srgba(90.2129%,40.4959%,0%,1)"/>
  <circle cx="5" cy="2" r="1" fill="srgba(82.1012%,0%,0%,1)"/>
  <circle cx="6" cy="2" r="1" fill="srgba(84.6845%,12.1248%,0%,1)"/>
  <circle cx="7" cy="2" r="1" fill="srgba(98.0621%,80.4883%,0%,1)"/>
  <circle cx="8" cy="2" r="1" fill="srgba(98.0621%,80.4822%,0%,1)"/>
  <circle cx="9" cy="2" r="1" fill="srgba(84.6845%,12.1187%,0%,1)"/>
  <circle cx="10" cy="2" r="1" fill="srgba(82.1012%,0%,0%,1)"/>
  <circle cx="11" cy="2" r="1" fill="srgba(90.2144%,40.5035%,0%,1)"/>
  <circle cx="12" cy="2" r="1" fill="srgba(99.1989%,87.0649%,0%,1)"/>
  <circle cx="13" cy="2" r="1" fill="srgba(91.2093%,45.2644%,0%,1)"/>
  <circle cx="14" cy="2" r="1" fill="srgba(82.7588%,2.6978%,0%,1)"/>
  <circle cx="15" cy="2" r="1" fill="srgba(82.2568%,0%,0%,1)"/>
  <circle cx="0" cy="3" r="1" fill="srgba(82.356%,0%,0%,1)"/>
  <circle cx="1" cy="3" r="1" fill="srgba(82.269%,0%,0%,1)"/>
  <circle cx="2" cy="3" r="1" fill="srgba(82.7604%,2.71153%,0%,1)"/>
  <circle cx="3" cy="3" r="1" fill="srgba(91.31%,45.8045%,0%,1)"/>
  <circle cx="4" cy="3" r="1" fill="srgba(97.734%,78.9563%,0%,1)"/>
  <circle cx="5" cy="3" r="1" fill="srgba(86.2486%,20.2472%,0%,1)"/>
  <circle cx="6" cy="3" r="1" fill="srgba(82.7375%,2.37583%,0%,1)"/>
  <circle cx="7" cy="3" r="1" fill="srgba(95.5688%,67.9072%,0%,1)"/>
  <circle cx="8" cy="3" r="1" fill="srgba(95.5673%,67.8981%,0%,1)"/>
  <circle cx="9" cy="3" r="1" fill="srgba(82.7375%,2.37278%,0%,1)"/>
  <circle cx="10" cy="3" r="1" fill="srgba(86.2501%,20.2548%,0%,1)"/>
  <circle cx="11" cy="3" r="1" fill="srgba(97.7356%,78.9624%,0%,1)"/>
  <circle cx="12" cy="3" r="1" fill="srgba(91.31%,45.8045%,0%,1)"/>
  <circle cx="13" cy="3" r="1" fill="srgba(82.7604%,2.71153%,0%,1)"/>
  <circle cx="14" cy="3" r="1" fill="srgba(82.269%,0%,0%,1)"/>
  <circle cx="15" cy="3" r="1" fill="srgba(82.356%,0%,0%,1)"/>
  <circle cx="0" cy="4" r="1" fill="srgba(210,0,0,1)"/>
  <circle cx="1" cy="4" r="1" fill="srgba(82.356%,0%,0%,1)"/>
  <circle cx="2" cy="4" r="1" fill="srgba(82.269%,0%,0%,1)"/>
  <circle cx="3" cy="4" r="1" fill="srgba(82.7588%,2.70695%,0%,1)"/>
  <circle cx="4" cy="4" r="1" fill="srgba(91.4153%,46.2943%,0%,1)"/>
  <circle cx="5" cy="4" r="1" fill="srgba(94.7341%,63.2578%,0%,1)"/>
  <circle cx="6" cy="4" r="1" fill="srgba(83.5996%,6.70939%,0%,1)"/>
  <circle cx="7" cy="4" r="1" fill="srgba(91.4672%,46.9551%,0%,1)"/>
  <circle cx="8" cy="4" r="1" fill="srgba(91.4656%,46.9459%,0%,1)"/>
  <circle cx="9" cy="4" r="1" fill="srgba(83.6011%,6.71244%,0%,1)"/>
  <circle cx="10" cy="4" r="1" fill="srgba(94.7341%,63.2654%,0%,1)"/>
  <circle cx="11" cy="4" r="1" fill="srgba(91.4153%,46.2943%,0%,1)"/>
  <circle cx="12" cy="4" r="1" fill="srgba(82.7588%,2.70695%,0%,1)"/>
  <circle cx="13" cy="4" r="1" fill="srgba(82.269%,0%,0%,1)"/>
  <circle cx="14" cy="4" r="1" fill="srgba(82.356%,0%,0%,1)"/>
  <circle cx="15" cy="4" r="1" fill="srgba(210,0,0,1)"/>
  <circle cx="0" cy="5" r="1" fill="srgba(82.1118%,0%,0%,1)"/>
  <circle cx="1" cy="5" r="1" fill="srgba(82.0615%,0%,0%,1)"/>
  <circle cx="2" cy="5" r="1" fill="srgba(82.153%,0%,0%,1)"/>
  <circle cx="3" cy="5" r="1" fill="srgba(82.182%,0%,0%,1)"/>
  <circle cx="4" cy="5" r="1" fill="srgba(82.7924%,2.9572%,0%,1)"/>
  <circle cx="5" cy="5" r="1" fill="srgba(90.5653%,41.9486%,0%,1)"/>
  <circle cx="6" cy="5" r="1" fill="srgba(87.837%,28.0323%,0%,1)"/>
  <circle cx="7" cy="5" r="1" fill="srgba(88.2887%,30.3365%,0%,1)"/>
  <circle cx="8" cy="5" r="1" fill="srgba(88.2841%,30.312%,0%,1)"/>
  <circle cx="9" cy="5" r="1" fill="srgba(87.8386%,28.0339%,0%,1)"/>
  <circle cx="10" cy="5" r="1" fill="srgba(90.5653%,41.9547%,0%,1)"/>
  <circle cx="11" cy="5" r="1" fill="srgba(82.7924%,2.95567%,0%,1)"/>
  <circle cx="12" cy="5" r="1" fill="srgba(82.182%,0%,0%,1)"/>
  <circle cx="13" cy="5" r="1" fill="srgba(82.153%,0%,0%,1)"/>
  <circle cx="14" cy="5" r="1" fill="srgba(82.0615%,0%,0%,1)"/>
  <circle cx="15" cy="5" r="1" fill="srgba(82.1118%,0%,0%,1)"/>
  <circle cx="0" cy="6" r="1" fill="srgba(90.9636%,43.9979%,0%,1)"/>
  <circle cx="1" cy="6" r="1" fill="srgba(88.2216%,29.9794%,0%,1)"/>
  <circle cx="2" cy="6" r="1" fill="srgba(85.5848%,16.5133%,0%,1)"/>
  <circle cx="3" cy="6" r="1" fill="srgba(83.7034%,6.87877%,0%,1)"/>
  <circle cx="4" cy="6" r="1" fill="srgba(82.4796%,0.915541%,0%,1)"/>
  <circle cx="5" cy="6" r="1" fill="srgba(83.3722%,5.89151%,0%,1)"/>
  <circle cx="6" cy="6" r="1" fill="srgba(93.5088%,57.0092%,0%,1)"/>
  <circle cx="7" cy="6" r="1" fill="srgba(99.2676%,86.453%,0%,1)"/>
  <circle cx="8" cy="6" r="1" fill="srgba(99.266%,86.4393%,0%,1)"/>
  <circle cx="9" cy="6" r="1" fill="srgba(93.4997%,56.9665%,0%,1)"/>
  <circle cx="10" cy="6" r="1" fill="srgba(83.3692%,5.88083%,0%,1)"/>
  <circle cx="11" cy="6" r="1" fill="srgba(82.4796%,0.915541%,0%,1)"/>
  <circle cx="12" cy="6" r="1" fill="srgba(83.7034%,6.87877%,0%,1)"/>
  <circle cx="13" cy="6" r="1" fill="srgba(85.5863%,16.5133%,0%,1)"/>
  <circle cx="14" cy="6" r="1" fill="srgba(88.2216%,29.9794%,0%,1)"/>
  <circle cx="15" cy="6" r="1" fill="srgba(90.9636%,43.9994%,0%,1)"/>
  <circle cx="0" cy="7" r="1" fill="srgba(100%,91.2963%,0%,1)"/>
  <circle cx="1" cy="7" r="1" fill="srgba(99.7726%,89.1676%,0%,1)"/>
  <circle cx="2" cy="7" r="1" fill="srgba(98.7686%,83.8895%,0%,1)"/>
  <circle cx="3" cy="7" r="1" fill="srgba(97.0443%,75.079%,0%,1)"/>
  <circle cx="4" cy="7" r="1" fill="srgba(93.7484%,58.2361%,0%,1)"/>
  <circle cx="5" cy="7" r="1" fill="srgba(89.1295%,34.6914%,0%,1)"/>
  <circle cx="6" cy="7" r="1" fill="srgba(99.0753%,86.2486%,0%,1)"/>
  <circle cx="7" cy="7" r="1" fill="srgba(100%,90.7118%,0%,1)"/>
  <circle cx="8" cy="7" r="1" fill="srgba(100%,90.7134%,0%,1)"/>
  <circle cx="9" cy="7" r="1" fill="srgba(99.0723%,86.2348%,0%,1)"/>
  <circle cx="10" cy="7" r="1" fill="srgba(89.1264%,34.6746%,0%,1)"/>
  <circle cx="11" cy="7" r="1" fill="srgba(93.7514%,58.2437%,0%,1)"/>
  <circle cx="12" cy="7" r="1" fill="srgba(97.0443%,75.079%,0%,1)"/>
  <circle cx="13" cy="7" r="1" fill="srgba(98.7686%,83.8895%,0%,1)"/>
  <circle cx="14" cy="7" r="1" fill="srgba(99.7726%,89.1676%,0%,1)"/>
  <circle cx="15" cy="7" r="1" fill="srgba(100%,91.2963%,0%,1)"/>
  <circle cx="0" cy="8" r="1" fill="srgba(100%,91.2703%,0%,1)"/>
  <circle cx="1" cy="8" r="1" fill="srgba(99.7604%,89.0929%,0%,1)"/>
  <circle cx="2" cy="8" r="1" fill="srgba(98.7411%,83.7461%,0%,1)"/>
  <circle cx="3" cy="8" r="1" fill="srgba(96.997%,74.8348%,0%,1)"/>
  <circle cx="4" cy="8" r="1" fill="srgba(93.695%,57.9553%,0%,1)"/>
  <circle cx="5" cy="8" r="1" fill="srgba(89.1096%,34.5953%,0%,1)"/>
  <circle cx="6" cy="8" r="1" fill="srgba(99.0723%,86.2379%,0%,1)"/>
  <circle cx="7" cy="8" r="1" fill="srgba(100%,90.7149%,0%,1)"/>
  <circle cx="8" cy="8" r="1" fill="srgba(100%,90.7164%,0%,1)"/>
  <circle cx="9" cy="8" r="1" fill="srgba(99.0707%,86.2226%,0%,1)"/>
  <circle cx="10" cy="8" r="1" fill="srgba(89.1066%,34.5785%,0%,1)"/>
  <circle cx="11" cy="8" r="1" fill="srgba(93.6965%,57.9629%,0%,1)"/>
  <circle cx="12" cy="8" r="1" fill="srgba(96.997%,74.8333%,0%,1)"/>
  <circle cx="13" cy="8" r="1" fill="srgba(98.7411%,83.7461%,0%,1)"/>
  <circle cx="14" cy="8" r="1" fill="srgba(99.7604%,89.0929%,0%,1)"/>
  <circle cx="15" cy="8" r="1" fill="srgba(100%,91.2718%,0%,1)"/>
  <circle cx="0" cy="9" r="1" fill="srgba(90.901%,43.6759%,0%,1)"/>
  <circle cx="1" cy="9" r="1" fill="srgba(88.1651%,29.6941%,0%,1)"/>
  <circle cx="2" cy="9" r="1" fill="srgba(85.5467%,16.3134%,0%,1)"/>
  <circle cx="3" cy="9" r="1" fill="srgba(83.6744%,6.72618%,0%,1)"/>
  <circle cx="4" cy="9" r="1" fill="srgba(82.4643%,0.854505%,0%,1)"/>
  <circle cx="5" cy="9" r="1" fill="srgba(83.3646%,5.86557%,0%,1)"/>
  <circle cx="6" cy="9" r="1" fill="srgba(93.4844%,56.8963%,0%,1)"/>
  <circle cx="7" cy="9" r="1" fill="srgba(99.263%,86.4286%,0%,1)"/>
  <circle cx="8" cy="9" r="1" fill="srgba(99.263%,86.424%,0%,1)"/>
  <circle cx="9" cy="9" r="1" fill="srgba(93.4829%,56.8841%,0%,1)"/>
  <circle cx="10" cy="9" r="1" fill="srgba(83.3631%,5.85946%,0%,1)"/>
  <circle cx="11" cy="9" r="1" fill="srgba(82.4643%,0.854505%,0%,1)"/>
  <circle cx="12" cy="9" r="1" fill="srgba(83.6744%,6.72618%,0%,1)"/>
  <circle cx="13" cy="9" r="1" fill="srgba(85.5482%,16.3134%,0%,1)"/>
  <circle cx="14" cy="9" r="1" fill="srgba(88.1651%,29.6941%,0%,1)"/>
  <circle cx="15" cy="9" r="1" fill="srgba(90.9026%,43.6866%,0%,1)"/>
  <circle cx="0" cy="10" r="1" fill="srgba(82.1088%,0%,0%,1)"/>
  <circle cx="1" cy="10" r="1" fill="srgba(82.063%,0%,0%,1)"/>
  <circle cx="2" cy="10" r="1" fill="srgba(82.1561%,0%,0%,1)"/>
  <circle cx="3" cy="10" r="1" fill="srgba(82.1836%,0%,0%,1)"/>
  <circle cx="4" cy="10" r="1" fill="srgba(82.7939%,2.9572%,0%,1)"/>
  <circle cx="5" cy="10" r="1" fill="srgba(90.5638%,41.944%,0%,1)"/>
  <circle cx="6" cy="10" r="1" fill="srgba(87.8309%,27.9927%,0%,1)"/>
  <circle cx="7" cy="10" r="1" fill="srgba(88.2841%,30.3136%,0%,1)"/>
  <circle cx="8" cy="10" r="1" fill="srgba(88.2811%,30.3014%,0%,1)"/>
  <circle cx="9" cy="10" r="1" fill="srgba(87.8325%,28.0034%,0%,1)"/>
  <circle cx="10" cy="10" r="1" fill="srgba(90.5653%,41.9547%,0%,1)"/>
  <circle cx="11" cy="10" r="1" fill="srgba(82.7924%,2.9572%,0%,1)"/>
  <circle cx="12" cy="10" r="1" fill="srgba(82.1836%,0%,0%,1)"/>
  <circle cx="13" cy="10" r="1" fill="srgba(82.1561%,0%,0%,1)"/>
  <circle cx="14" cy="10" r="1" fill="srgba(82.063%,0%,0%,1)"/>
  <circle cx="15" cy="10" r="1" fill="srgba(82.1088%,0%,0%,1)"/>
  <circle cx="0" cy="11" r="1" fill="srgba(210,0,0,1)"/>
  <circle cx="1" cy="11" r="1" fill="srgba(82.356%,0%,0%,1)"/>
  <circle cx="2" cy="11" r="1" fill="srgba(82.269%,0%,0%,1)"/>
  <circle cx="3" cy="11" r="1" fill="srgba(82.7588%,2.70695%,0%,1)"/>
  <circle cx="4" cy="11" r="1" fill="srgba(91.4153%,46.2943%,0%,1)"/>
  <circle cx="5" cy="11" r="1" fill="srgba(94.7189%,63.18%,0%,1)"/>
  <circle cx="6" cy="11" r="1" fill="srgba(83.592%,6.66972%,0%,1)"/>
  <circle cx="7" cy="11" r="1" fill="srgba(91.4717%,46.9856%,0%,1)"/>
  <circle cx="8" cy="11" r="1" fill="srgba(91.4687%,46.9764%,0%,1)"/>
  <circle cx="9" cy="11" r="1" fill="srgba(83.5935%,6.67124%,0%,1)"/>
  <circle cx="10" cy="11" r="1" fill="srgba(94.7204%,63.1861%,0%,1)"/>
  <circle cx="11" cy="11" r="1" fill="srgba(91.4153%,46.2943%,0%,1)"/>
  <circle cx="12" cy="11" r="1" fill="srgba(82.7588%,2.70695%,0%,1)"/>
  <circle cx="13" cy="11" r="1" fill="srgba(82.269%,0%,0%,1)"/>
  <circle cx="14" cy="11" r="1" fill="srgba(82.356%,0%,0%,1)"/>
  <circle cx="15" cy="11" r="1" fill="srgba(210,0,0,1)"/>
  <circle cx="0" cy="12" r="1" fill="srgba(82.356%,0%,0%,1)"/>
  <circle cx="1" cy="12" r="1" fill="srgba(82.269%,0%,0%,1)"/>
  <circle cx="2" cy="12" r="1" fill="srgba(82.7604%,2.71153%,0%,1)"/>
  <circle cx="3" cy="12" r="1" fill="srgba(91.3115%,45.8061%,0%,1)"/>
  <circle cx="4" cy="12" r="1" fill="srgba(97.7279%,78.9136%,0%,1)"/>
  <circle cx="5" cy="12" r="1" fill="srgba(86.2364%,20.1831%,0%,1)"/>
  <circle cx="6" cy="12" r="1" fill="srgba(82.739%,2.38346%,0%,1)"/>
  <circle cx="7" cy="12" r="1" fill="srgba(95.5703%,67.9271%,0%,1)"/>
  <circle cx="8" cy="12" r="1" fill="srgba(95.5688%,67.9179%,0%,1)"/>
  <circle cx="9" cy="12" r="1" fill="srgba(82.739%,2.38041%,0%,1)"/>
  <circle cx="10" cy="12" r="1" fill="srgba(86.2379%,20.1907%,0%,1)"/>
  <circle cx="11" cy="12" r="1" fill="srgba(97.7295%,78.9197%,0%,1)"/>
  <circle cx="12" cy="12" r="1" fill="srgba(91.3115%,45.8061%,0%,1)"/>
  <circle cx="13" cy="12" r="1" fill="srgba(82.7604%,2.71153%,0%,1)"/>
  <circle cx="14" cy="12" r="1" fill="srgba(82.269%,0%,0%,1)"/>
  <circle cx="15" cy="12" r="1" fill="srgba(82.356%,0%,0%,1)"/>
  <circle cx="0" cy="13" r="1" fill="srgba(82.2568%,0%,0%,1)"/>
  <circle cx="1" cy="13" r="1" fill="srgba(82.7588%,2.6978%,0%,1)"/>
  <circle cx="2" cy="13" r="1" fill="srgba(91.2093%,45.2644%,0%,1)"/>
  <circle cx="3" cy="13" r="1" fill="srgba(99.1958%,87.0512%,0%,1)"/>
  <circle cx="4" cy="13" r="1" fill="srgba(90.2007%,40.4273%,0%,1)"/>
  <circle cx="5" cy="13" r="1" fill="srgba(82.0996%,0%,0%,1)"/>
  <circle cx="6" cy="13" r="1" fill="srgba(84.686%,12.1355%,0%,1)"/>
  <circle cx="7" cy="13" r="1" fill="srgba(98.0636%,80.4974%,0%,1)"/>
  <circle cx="8" cy="13" r="1" fill="srgba(98.0636%,80.4913%,0%,1)"/>
  <circle cx="9" cy="13" r="1" fill="srgba(84.686%,12.1294%,0%,1)"/>
  <circle cx="10" cy="13" r="1" fill="srgba(82.0996%,0%,0%,1)"/>
  <circle cx="11" cy="13" r="1" fill="srgba(90.2022%,40.4364%,0%,1)"/>
  <circle cx="12" cy="13" r="1" fill="srgba(99.1974%,87.0527%,0%,1)"/>
  <circle cx="13" cy="13" r="1" fill="srgba(91.2093%,45.2644%,0%,1)"/>
  <circle cx="14" cy="13" r="1" fill="srgba(82.7588%,2.6978%,0%,1)"/>
  <circle cx="15" cy="13" r="1" fill="srgba(82.2568%,0%,0%,1)"/>
  <circle cx="0" cy="14" r="1" fill="srgba(82.9603%,3.38903%,0%,1)"/>
  <circle cx="1" cy="14" r="1" fill="srgba(91.1833%,45.1041%,0%,1)"/>
  <circle cx="2" cy="14" r="1" fill="srgba(99.6201%,89.0028%,0%,1)"/>
  <circle cx="3" cy="14" r="1" fill="srgba(94.3389%,61.5702%,0%,1)"/>
  <circle cx="4" cy="14" r="1" fill="srgba(83.2105%,4.85542%,0%,1)"/>
  <circle cx="5" cy="14" r="1" fill="srgba(82.0005%,0%,0%,1)"/>
  <circle cx="6" cy="14" r="1" fill="srgba(87.4907%,26.4179%,0%,1)"/>
  <circle cx="7" cy="14" r="1" fill="srgba(99.5636%,88.0781%,0%,1)"/>
  <circle cx="8" cy="14" r="1" fill="srgba(99.5636%,88.0751%,0%,1)"/>
  <circle cx="9" cy="14" r="1" fill="srgba(87.4907%,26.4103%,0%,1)"/>
  <circle cx="10" cy="14" r="1" fill="srgba(82.0005%,0%,0%,1)"/>
  <circle cx="11" cy="14" r="1" fill="srgba(83.212%,4.85847%,0%,1)"/>
  <circle cx="12" cy="14" r="1" fill="srgba(94.3404%,61.5793%,0%,1)"/>
  <circle cx="13" cy="14" r="1" fill="srgba(99.6201%,89.0028%,0%,1)"/>
  <circle cx="14" cy="14" r="1" fill="srgba(91.1833%,45.1041%,0%,1)"/>
  <circle cx="15" cy="14" r="1" fill="srgba(82.9603%,3.38903%,0%,1)"/>
  <circle cx="0" cy="15" r="1" fill="srgba(91.1818%,45.098%,0%,1)"/>
  <circle cx="1" cy="15" r="1" fill="srgba(99.3591%,87.631%,0%,1)"/>
  <circle cx="2" cy="15" r="1" fill="srgba(98.3764%,82.1332%,0%,1)"/>
  <circle cx="3" cy="15" r="1" fill="srgba(86.0594%,19.3423%,0%,1)"/>
  <circle cx="4" cy="15" r="1" fill="srgba(82.118%,0%,0%,1)"/>
  <circle cx="5" cy="15" r="1" fill="srgba(82.1042%,0%,0%,1)"/>
  <circle cx="6" cy="15" r="1" fill="srgba(90.6004%,42.327%,0%,1)"/>
  <circle cx="7" cy="15" r="1" fill="srgba(100%,91.1284%,0%,1)"/>
  <circle cx="8" cy="15" r="1" fill="srgba(100%,91.1269%,0%,1)"/>
  <circle cx="9" cy="15" r="1" fill="srgba(90.6004%,42.3163%,0%,1)"/>
  <circle cx="10" cy="15" r="1" fill="srgba(82.1042%,0%,0%,1)"/>
  <circle cx="11" cy="15" r="1" fill="srgba(82.118%,0%,0%,1)"/>
  <circle cx="12" cy="15" r="1" fill="srgba(86.0609%,19.35%,0%,1)"/>
  <circle cx="13" cy="15" r="1" fill="srgba(98.3764%,82.1393%,0%,1)"/>
  <circle cx="14" cy="15" r="1" fill="srgba(99.3591%,87.631%,0%,1)"/>
  <circle cx="15" cy="15" r="1" fill="srgba(91.1818%,45.098%,0%,1)"/>
</svg>
