<?xml version="1.0" standalone="no"?>
<!DOCTYPE svg PUBLIC "-//W3C//DTD SVG 20010904//EN"
  "http://www.w3.org/TR/2001/REC-SVG-20010904/DTD/svg10.dtd">
<svg width="16" height="16">
  <circle cx="0" cy="0" r="1" fill="srgba(254,203,0,1)"/>
  <circle cx="1" cy="0" r="1" fill="srgba(254,203,0,1)"/>
  <circle cx="2" cy="0" r="1" fill="srgba(254,203,0,1)"/>
  <circle cx="3" cy="0" r="1" fill="srgba(254,203,0,1)"/>
  <circle cx="4" cy="0" r="1" fill="srgba(254,203,0,1)"/>
  <circle cx="5" cy="0" r="1" fill="srgba(254,203,0,1)"/>
  <circle cx="6" cy="0" r="1" fill="srgba(254,203,0,1)"/>
  <circle cx="7" cy="0" r="1" fill="srgba(254,203,0,1)"/>
  <circle cx="8" cy="0" r="1" fill="srgba(254,203,0,1)"/>
  <circle cx="9" cy="0" r="1" fill="srgba(254,203,0,1)"/>
  <circle cx="10" cy="0" r="1" fill="srgba(254,203,0,1)"/>
  <circle cx="11" cy="0" r="1" fill="srgba(254,203,0,1)"/>
  <circle cx="12" cy="0" r="1" fill="srgba(254,203,0,1)"/>
  <circle cx="13" cy="0" r="1" fill="srgba(254,203,0,1)"/>
  <circle cx="14" cy="0" r="1" fill="srgba(99.6078%,79.6063%,0%,1)"/>
  <circle cx="15" cy="0" r="1" fill="srgba(99.6078%,79.6231%,0.0686656%,1)"/>
  <circle cx="0" cy="1" r="1" fill="srgba(254,203,0,1)"/>
  <circle cx="1" cy="1" r="1" fill="srgba(254,203,0,1)"/>
  <circle cx="2" cy="1" r="1" fill="srgba(254,203,0,1)"/>
  <circle cx="3" cy="1" r="1" fill="srgba(254,203,0,1)"/>
  <circle cx="4" cy="1" r="1" fill="srgba(254,203,0,1)"/>
  <circle cx="5" cy="1" r="1" fill="srgba(254,203,0,1)"/>
  <circle cx="6" cy="1" r="1" fill="srgba(99.6078%,79.6109%,0%,1)"/>
  <circle cx="7" cy="1" r="1" fill="srgba(99.6063%,79.559%,0%,1)"/>
  <circle cx="8" cy="1" r="1" fill="srgba(99.6078%,79.5789%,0%,1)"/>
  <circle cx="9" cy="1" r="1" fill="srgba(99.6078%,79.6094%,0%,1)"/>
  <circle cx="10" cy="1" r="1" fill="srgba(254,203,0,1)"/>
  <circle cx="11" cy="1" r="1" fill="srgba(254,203,0,1)"/>
  <circle cx="12" cy="1" r="1" fill="srgba(254,203,0,1)"/>
  <circle cx="13" cy="1" r="1" fill="srgba(254,203,0,1)"/>
  <circle cx="14" cy="1" r="1" fill="srgba(99.6078%,79.6063%,0%,1)"/>
  <circle cx="15" cy="1" r="1" fill="srgba(99.6078%,79.6231%,0.0686656%,1)"/>
  <circle cx="0" cy="2" r="1" fill="srgba(254,203,0,1)"/>
  <circle cx="1" cy="2" r="1" fill="srgba(254,203,0,1)"/>
  <circle cx="2" cy="2" r="1" fill="srgba(254,203,0,1)"/>
  <circle cx="3" cy="2" r="1" fill="srgba(254,203,0,1)"/>
  <circle cx="4" cy="2" r="1" fill="srgba(254,203,0,1)"/>
  <circle cx="5" cy="2" r="1" fill="srgba(99.6078%,79.6094%,0%,1)"/>
  <circle cx="6" cy="2" r="1" fill="srgba(99.6063%,79.5422%,0%,1)"/>
  <circle cx="7" cy="2" r="1" fill="srgba(99.6216%,80.3265%,4.01617%,1)"/>
  <circle cx="8" cy="2" r="1" fill="srgba(99.617%,80.1144%,2.48264%,1)"/>
  <circle cx="9" cy="2" r="1" fill="srgba(99.6078%,79.5743%,0%,1)"/>
  <circle cx="10" cy="2" r="1" fill="srgba(254,203,0,1)"/>
  <circle cx="11" cy="2" r="1" fill="srgba(254,203,0,1)"/>
  <circle cx="12" cy="2" r="1" fill="srgba(254,203,0,1)"/>
  <circle cx="13" cy="2" r="1" fill="srgba(254,203,0,1)"/>
  <circle cx="14" cy="2" r="1" fill="srgba(99.6078%,79.6063%,0%,1)"/>
  <circle cx="15" cy="2" r="1" fill="srgba(99.6078%,79.6231%,0.0686656%,1)"/>
  <circle cx="0" cy="3" r="1" fill="srgba(99.6445%,79.6124%,0%,1)"/>
  <circle cx="1" cy="3" r="1" fill="srgba(99.6445%,79.6124%,0%,1)"/>
  <circle cx="2" cy="3" r="1" fill="srgba(99.6445%,79.6124%,0%,1)"/>
  <circle cx="3" cy="3" r="1" fill="srgba(99.6445%,79.6124%,0%,1)"/>
  <circle cx="4" cy="3" r="1" fill="srgba(99.6445%,79.6124%,0%,1)"/>
  <circle cx="5" cy="3" r="1" fill="srgba(99.6429%,79.5895%,0%,1)"/>
  <circle cx="6" cy="3" r="1" fill="srgba(99.6231%,79.8322%,1.58846%,1)"/>
  <circle cx="7" cy="3" r="1" fill="srgba(99.765%,87.9301%,40.9369%,1)"/>
  <circle cx="8" cy="3" r="1" fill="srgba(99.6735%,82.1515%,12.4788%,1)"/>
  <circle cx="9" cy="3" r="1" fill="srgba(99.6414%,79.4598%,0%,1)"/>
  <circle cx="10" cy="3" r="1" fill="srgba(99.6445%,79.6124%,0%,1)"/>
  <circle cx="11" cy="3" r="1" fill="srgba(99.6445%,79.6124%,0%,1)"/>
  <circle cx="12" cy="3" r="1" fill="srgba(99.6445%,79.6124%,0%,1)"/>
  <circle cx="13" cy="3" r="1" fill="srgba(99.6445%,79.6124%,0%,1)"/>
  <circle cx="14" cy="3" r="1" fill="srgba(99.6445%,79.6109%,0%,1)"/>
  <circle cx="15" cy="3" r="1" fill="srgba(99.6445%,79.6277%,0.0686656%,1)"/>
  <circle cx="0" cy="4" r="1" fill="srgba(99.2233%,79.5605%,0.0961318%,1)"/>
  <circle cx="1" cy="4" r="1" fill="srgba(99.2233%,79.5605%,0.0961318%,1)"/>
  <circle cx="2" cy="4" r="1" fill="srgba(99.2233%,79.5605%,0.0961318%,1)"/>
  <circle cx="3" cy="4" r="1" fill="srgba(99.2233%,79.5605%,0.0961318%,1)"/>
  <circle cx="4" cy="4" r="1" fill="srgba(99.237%,79.5651%,0.0946059%,1)"/>
  <circle cx="5" cy="4" r="1" fill="srgba(98.9776%,79.2569%,0%,1)"/>
  <circle cx="6" cy="4" r="1" fill="srgba(99.3271%,84.9836%,26.9306%,1)"/>
  <circle cx="7" cy="4" r="1" fill="srgba(99.9634%,96.1288%,80.9461%,1)"/>
  <circle cx="8" cy="4" r="1" fill="srgba(99.0127%,82.1576%,13.4157%,1)"/>
  <circle cx="9" cy="4" r="1" fill="srgba(97.9431%,78.9075%,0%,1)"/>
  <circle cx="10" cy="4" r="1" fill="srgba(98.3352%,79.2233%,0%,1)"/>
  <circle cx="11" cy="4" r="1" fill="srgba(98.97%,79.4644%,0.0106813%,1)"/>
  <circle cx="12" cy="4" r="1" fill="srgba(99.2111%,79.556%,0.0793469%,1)"/>
  <circle cx="13" cy="4" r="1" fill="srgba(99.2248%,79.5605%,0.0976577%,1)"/>
  <circle cx="14" cy="4" r="1" fill="srgba(99.2233%,79.559%,0.0915541%,1)"/>
  <circle cx="15" cy="4" r="1" fill="srgba(99.2233%,79.5758%,0.164797%,1)"/>
  <circle cx="0" cy="5" r="1" fill="srgba(48.3543%,73.2647%,12.9351%,1)"/>
  <circle cx="1" cy="5" r="1" fill="srgba(48.365%,73.2692%,12.9473%,1)"/>
  <circle cx="2" cy="5" r="1" fill="srgba(47.9988%,73.1304%,12.5795%,1)"/>
  <circle cx="3" cy="5" r="1" fill="srgba(47.9393%,73.1075%,12.5185%,1)"/>
  <circle cx="4" cy="5" r="1" fill="srgba(47.8614%,73.077%,12.4331%,1)"/>
  <circle cx="5" cy="5" r="1" fill="srgba(54.4442%,75.5291%,18.8281%,1)"/>
  <circle cx="6" cy="5" r="1" fill="srgba(92.3522%,93.8689%,76.4187%,1)"/>
  <circle cx="7" cy="5" r="1" fill="srgba(100%,99.5987%,97.4929%,1)"/>
  <circle cx="8" cy="5" r="1" fill="srgba(95.346%,92.1584%,65.4231%,1)"/>
  <circle cx="9" cy="5" r="1" fill="srgba(78.6709%,84.6983%,43.0747%,1)"/>
  <circle cx="10" cy="5" r="1" fill="srgba(62.6734%,78.6954%,27.3243%,1)"/>
  <circle cx="11" cy="5" r="1" fill="srgba(52.3323%,74.7738%,16.9329%,1)"/>
  <circle cx="12" cy="5" r="1" fill="srgba(48.2216%,73.2143%,12.8023%,1)"/>
  <circle cx="13" cy="5" r="1" fill="srgba(48.13%,73.1792%,12.7092%,1)"/>
  <circle cx="14" cy="5" r="1" fill="srgba(48.3604%,73.2662%,12.9412%,1)"/>
  <circle cx="15" cy="5" r="1" fill="srgba(48.3894%,73.2753%,12.9503%,1)"/>
  <circle cx="0" cy="6" r="1" fill="srgba(19.0158%,69.633%,20.3479%,1)"/>
  <circle cx="1" cy="6" r="1" fill="srgba(18.8373%,69.5659%,20.1694%,1)"/>
  <circle cx="2" cy="6" r="1" fill="srgba(25.1438%,71.957%,26.5049%,1)"/>
  <circle cx="3" cy="6" r="1" fill="srgba(26.0197%,72.2896%,27.3869%,1)"/>
  <circle cx="4" cy="6" r="1" fill="srgba(19.1226%,69.6757%,20.4623%,1)"/>
  <circle cx="5" cy="6" r="1" fill="srgba(57.2229%,84.1093%,58.6313%,1)"/>
  <circle cx="6" cy="6" r="1" fill="srgba(99.1318%,99.7482%,99.4675%,1)"/>
  <circle cx="7" cy="6" r="1" fill="white"/>
  <circle cx="8" cy="6" r="1" fill="srgba(99.9451%,100%,100%,1)"/>
  <circle cx="9" cy="6" r="1" fill="srgba(98.3444%,99.6582%,99.5102%,1)"/>
  <circle cx="10" cy="6" r="1" fill="srgba(92.3156%,97.4411%,94.0307%,1)"/>
  <circle cx="11" cy="6" r="1" fill="srgba(80.0519%,92.7855%,81.6846%,1)"/>
  <circle cx="12" cy="6" r="1" fill="srgba(56.4691%,83.8407%,57.9873%,1)"/>
  <circle cx="13" cy="6" r="1" fill="srgba(27.0802%,72.6925%,28.4535%,1)"/>
  <circle cx="14" cy="6" r="1" fill="srgba(18.677%,69.5048%,20.0107%,1)"/>
  <circle cx="15" cy="6" r="1" fill="srgba(19.0707%,69.6407%,20.3311%,1)"/>
  <circle cx="0" cy="7" r="1" fill="srgba(52,178,51,1)"/>
  <circle cx="1" cy="7" r="1" fill="srgba(19.8917%,69.6147%,19.4965%,1)"/>
  <circle cx="2" cy="7" r="1" fill="srgba(30.6172%,73.6828%,30.2739%,1)"/>
  <circle cx="3" cy="7" r="1" fill="srgba(70.9041%,88.9631%,70.7607%,1)"/>
  <circle cx="4" cy="7" r="1" fill="srgba(71.3756%,89.1432%,71.2367%,1)"/>
  <circle cx="5" cy="7" r="1" fill="srgba(92.4193%,97.1252%,92.3812%,1)"/>
  <circle cx="6" cy="7" r="1" fill="white"/>
  <circle cx="7" cy="7" r="1" fill="white"/>
  <circle cx="8" cy="7" r="1" fill="white"/>
  <circle cx="9" cy="7" r="1" fill="white"/>
  <circle cx="10" cy="7" r="1" fill="srgba(98.5733%,99.4583%,98.5657%,1)"/>
  <circle cx="11" cy="7" r="1" fill="srgba(64.0269%,86.3554%,63.8499%,1)"/>
  <circle cx="12" cy="7" r="1" fill="srgba(35.9579%,75.7076%,35.6435%,1)"/>
  <circle cx="13" cy="7" r="1" fill="srgba(23.1052%,70.8324%,22.7253%,1)"/>
  <circle cx="14" cy="7" r="1" fill="srgba(20.2686%,69.7581%,19.8795%,1)"/>
  <circle cx="15" cy="7" r="1" fill="srgba(20.4456%,69.8054%,19.9863%,1)"/>
  <circle cx="0" cy="8" r="1" fill="srgba(52,178,51,1)"/>
  <circle cx="1" cy="8" r="1" fill="srgba(20.3891%,69.8024%,19.9969%,1)"/>
  <circle cx="2" cy="8" r="1" fill="srgba(19.5621%,69.4896%,19.1669%,1)"/>
  <circle cx="3" cy="8" r="1" fill="srgba(42.4842%,78.1842%,42.2004%,1)"/>
  <circle cx="4" cy="8" r="1" fill="srgba(92.9137%,97.3114%,92.8786%,1)"/>
  <circle cx="5" cy="8" r="1" fill="white"/>
  <circle cx="6" cy="8" r="1" fill="white"/>
  <circle cx="7" cy="8" r="1" fill="srgba(99.9863%,99.9939%,99.9863%,1)"/>
  <circle cx="8" cy="8" r="1" fill="srgba(99.9847%,99.9939%,99.9847%,1)"/>
  <circle cx="9" cy="8" r="1" fill="white"/>
  <circle cx="10" cy="8" r="1" fill="srgba(97.4258%,99.0234%,97.4136%,1)"/>
  <circle cx="11" cy="8" r="1" fill="srgba(40.2152%,77.3236%,39.9207%,1)"/>
  <circle cx="12" cy="8" r="1" fill="srgba(18.2666%,68.9982%,17.8637%,1)"/>
  <circle cx="13" cy="8" r="1" fill="srgba(20.2319%,69.7429%,19.8383%,1)"/>
  <circle cx="14" cy="8" r="1" fill="srgba(20.3967%,69.8085%,20.0076%,1)"/>
  <circle cx="15" cy="8" r="1" fill="srgba(20.4395%,69.7704%,19.9985%,1)"/>
  <circle cx="0" cy="9" r="1" fill="srgba(19.1485%,70.7469%,19.9588%,1)"/>
  <circle cx="1" cy="9" r="1" fill="srgba(19.1485%,70.7469%,19.9588%,1)"/>
  <circle cx="2" cy="9" r="1" fill="srgba(19.086%,70.724%,19.8962%,1)"/>
  <circle cx="3" cy="9" r="1" fill="srgba(18.6801%,70.5699%,19.4873%,1)"/>
  <circle cx="4" cy="9" r="1" fill="srgba(50.602%,82.6627%,51.5724%,1)"/>
  <circle cx="5" cy="9" r="1" fill="srgba(96.231%,99.0539%,96.7086%,1)"/>
  <circle cx="6" cy="9" r="1" fill="white"/>
  <circle cx="7" cy="9" r="1" fill="srgba(99.9985%,100%,99.9985%,1)"/>
  <circle cx="8" cy="9" r="1" fill="srgba(99.9985%,100%,99.9985%,1)"/>
  <circle cx="9" cy="9" r="1" fill="white"/>
  <circle cx="10" cy="9" r="1" fill="srgba(98.5946%,99.469%,98.5901%,1)"/>
  <circle cx="11" cy="9" r="1" fill="srgba(43.7263%,79.5483%,44.213%,1)"/>
  <circle cx="12" cy="9" r="1" fill="srgba(17.8134%,70.2647%,18.6374%,1)"/>
  <circle cx="13" cy="9" r="1" fill="srgba(19.1485%,70.7469%,19.9588%,1)"/>
  <circle cx="14" cy="9" r="1" fill="srgba(19.1455%,70.7485%,19.9588%,1)"/>
  <circle cx="15" cy="9" r="1" fill="srgba(19.1958%,70.7057%,19.9573%,1)"/>
  <circle cx="0" cy="10" r="1" fill="srgba(45.8412%,50.5028%,20.8453%,1)"/>
  <circle cx="1" cy="10" r="1" fill="srgba(45.8412%,50.5028%,20.8453%,1)"/>
  <circle cx="2" cy="10" r="1" fill="srgba(45.8442%,50.5043%,20.8484%,1)"/>
  <circle cx="3" cy="10" r="1" fill="srgba(45.6214%,50.4204%,20.6241%,1)"/>
  <circle cx="4" cy="10" r="1" fill="srgba(47.451%,50.7118%,22.1195%,1)"/>
  <circle cx="5" cy="10" r="1" fill="srgba(81.7624%,71.2123%,62.9908%,1)"/>
  <circle cx="6" cy="10" r="1" fill="srgba(100%,98.7457%,99.2767%,1)"/>
  <circle cx="7" cy="10" r="1" fill="white"/>
  <circle cx="8" cy="10" r="1" fill="white"/>
  <circle cx="9" cy="10" r="1" fill="srgba(100%,99.8032%,99.8398%,1)"/>
  <circle cx="10" cy="10" r="1" fill="srgba(99.5361%,99.6201%,99.3606%,1)"/>
  <circle cx="11" cy="10" r="1" fill="srgba(64.1398%,68.0171%,48.2658%,1)"/>
  <circle cx="12" cy="10" r="1" fill="srgba(44.9104%,49.6437%,19.4781%,1)"/>
  <circle cx="13" cy="10" r="1" fill="srgba(45.8412%,50.5028%,20.8453%,1)"/>
  <circle cx="14" cy="10" r="1" fill="srgba(45.8396%,50.5028%,20.8438%,1)"/>
  <circle cx="15" cy="10" r="1" fill="srgba(45.8732%,50.4997%,20.8652%,1)"/>
  <circle cx="0" cy="11" r="1" fill="srgba(91.4733%,15.906%,22.3453%,1)"/>
  <circle cx="1" cy="11" r="1" fill="srgba(91.4733%,15.906%,22.3453%,1)"/>
  <circle cx="2" cy="11" r="1" fill="srgba(91.4733%,15.906%,22.3453%,1)"/>
  <circle cx="3" cy="11" r="1" fill="srgba(91.4824%,15.9197%,22.3636%,1)"/>
  <circle cx="4" cy="11" r="1" fill="srgba(91.1879%,14.6197%,21.0529%,1)"/>
  <circle cx="5" cy="11" r="1" fill="srgba(93.5012%,39.8672%,44.1962%,1)"/>
  <circle cx="6" cy="11" r="1" fill="srgba(99.6475%,96.321%,96.6155%,1)"/>
  <circle cx="7" cy="11" r="1" fill="srgba(99.6185%,96.0967%,96.405%,1)"/>
  <circle cx="8" cy="11" r="1" fill="srgba(97.9171%,78.6648%,80.351%,1)"/>
  <circle cx="9" cy="11" r="1" fill="srgba(95.5795%,54.7326%,58.3124%,1)"/>
  <circle cx="10" cy="11" r="1" fill="srgba(98.0972%,80.5264%,82.0661%,1)"/>
  <circle cx="11" cy="11" r="1" fill="srgba(94.876%,49.5674%,53.4279%,1)"/>
  <circle cx="12" cy="11" r="1" fill="srgba(91.3252%,14.4488%,20.9995%,1)"/>
  <circle cx="13" cy="11" r="1" fill="srgba(91.4733%,15.906%,22.3453%,1)"/>
  <circle cx="14" cy="11" r="1" fill="srgba(91.4733%,15.903%,22.3423%,1)"/>
  <circle cx="15" cy="11" r="1" fill="srgba(91.4809%,15.967%,22.3987%,1)"/>
  <circle cx="0" cy="12" r="1" fill="srgba(91.7952%,15.6634%,22.3545%,1)"/>
  <circle cx="1" cy="12" r="1" fill="srgba(91.7952%,15.6634%,22.3545%,1)"/>
  <circle cx="2" cy="12" r="1" fill="srgba(91.7952%,15.6634%,22.3545%,1)"/>
  <circle cx="3" cy="12" r="1" fill="srgba(91.7556%,15.2621%,21.9837%,1)"/>
  <circle cx="4" cy="12" r="1" fill="srgba(92.4697%,22.5727%,28.7175%,1)"/>
  <circle cx="5" cy="12" r="1" fill="srgba(96.7346%,66.3951%,69.0654%,1)"/>
  <circle cx="6" cy="12" r="1" fill="srgba(96.5057%,64.2267%,67.0542%,1)"/>
  <circle cx="7" cy="12" r="1" fill="srgba(93.8369%,36.9131%,41.8997%,1)"/>
  <circle cx="8" cy="12" r="1" fill="srgba(92.1645%,19.7726%,26.1158%,1)"/>
  <circle cx="9" cy="12" r="1" fill="srgba(91.5801%,13.7972%,20.6134%,1)"/>
  <circle cx="10" cy="12" r="1" fill="srgba(93.7423%,35.938%,41.0025%,1)"/>
  <circle cx="11" cy="12" r="1" fill="srgba(94.5449%,43.9445%,48.3909%,1)"/>
  <circle cx="12" cy="12" r="1" fill="srgba(91.7082%,14.7738%,21.5366%,1)"/>
  <circle cx="13" cy="12" r="1" fill="srgba(91.7952%,15.6634%,22.3545%,1)"/>
  <circle cx="14" cy="12" r="1" fill="srgba(91.7952%,15.6603%,22.3514%,1)"/>
  <circle cx="15" cy="12" r="1" fill="srgba(91.8029%,15.7244%,22.4079%,1)"/>
  <circle cx="0" cy="13" r="1" fill="srgba(234,40,57,1)"/>
  <circle cx="1" cy="13" r="1" fill="srgba(234,40,57,1)"/>
  <circle cx="2" cy="13" r="1" fill="srgba(234,40,57,1)"/>
  <circle cx="3" cy="13" r="1" fill="srgba(91.7388%,15.4223%,22.1103%,1)"/>
  <circle cx="4" cy="13" r="1" fill="srgba(92.3201%,21.3855%,27.602%,1)"/>
  <circle cx="5" cy="13" r="1" fill="srgba(92.6711%,24.979%,30.9117%,1)"/>
  <circle cx="6" cy="13" r="1" fill="srgba(91.7556%,15.5871%,22.2614%,1)"/>
  <circle cx="7" cy="13" r="1" fill="srgba(91.6487%,14.5068%,21.2665%,1)"/>
  <circle cx="8" cy="13" r="1" fill="srgba(91.7372%,15.407%,22.0951%,1)"/>
  <circle cx="9" cy="13" r="1" fill="srgba(91.7601%,15.639%,22.3102%,1)"/>
  <circle cx="10" cy="13" r="1" fill="srgba(91.8196%,16.2509%,22.8733%,1)"/>
  <circle cx="11" cy="13" r="1" fill="srgba(92.1782%,19.9222%,26.2531%,1)"/>
  <circle cx="12" cy="13" r="1" fill="srgba(91.7647%,15.6832%,22.3499%,1)"/>
  <circle cx="13" cy="13" r="1" fill="srgba(234,40,57,1)"/>
  <circle cx="14" cy="13" r="1" fill="srgba(91.7647%,15.6832%,22.3499%,1)"/>
  <circle cx="15" cy="13" r="1" fill="srgba(91.7723%,15.7473%,22.4063%,1)"/>
  <circle cx="0" cy="14" r="1" fill="srgba(234,40,57,1)"/>
  <circle cx="1" cy="14" r="1" fill="srgba(234,40,57,1)"/>
  <circle cx="2" cy="14" r="1" fill="srgba(234,40,57,1)"/>
  <circle cx="3" cy="14" r="1" fill="srgba(91.7662%,15.7015%,22.3667%,1)"/>
  <circle cx="4" cy="14" r="1" fill="srgba(91.7357%,15.3826%,22.0737%,1)"/>
  <circle cx="5" cy="14" r="1" fill="srgba(91.7113%,15.1446%,21.8555%,1)"/>
  <circle cx="6" cy="14" r="1" fill="srgba(91.7601%,15.6466%,22.3163%,1)"/>
  <circle cx="7" cy="14" r="1" fill="srgba(91.7647%,15.6893%,22.356%,1)"/>
  <circle cx="8" cy="14" r="1" fill="srgba(234,40,57,1)"/>
  <circle cx="9" cy="14" r="1" fill="srgba(91.7647%,15.6893%,22.356%,1)"/>
  <circle cx="10" cy="14" r="1" fill="srgba(91.7586%,15.6237%,22.295%,1)"/>
  <circle cx="11" cy="14" r="1" fill="srgba(91.7403%,15.433%,22.1195%,1)"/>
  <circle cx="12" cy="14" r="1" fill="srgba(91.7647%,15.6878%,22.3545%,1)"/>
  <circle cx="13" cy="14" r="1" fill="srgba(234,40,57,1)"/>
  <circle cx="14" cy="14" r="1" fill="srgba(91.7647%,15.6832%,22.3499%,1)"/>
  <circle cx="15" cy="14" r="1" fill="srgba(91.7723%,15.7473%,22.4063%,1)"/>
  <circle cx="0" cy="15" r="1" fill="srgba(234,40,57,1)"/>
  <circle cx="1" cy="15" r="1" fill="srgba(234,40,57,1)"/>
  <circle cx="2" cy="15" r="1" fill="srgba(234,40,57,1)"/>
  <circle cx="3" cy="15" r="1" fill="srgba(234,40,57,1)"/>
  <circle cx="4" cy="15" r="1" fill="srgba(234,40,57,1)"/>
  <circle cx="5" cy="15" r="1" fill="srgba(234,40,57,1)"/>
  <circle cx="6" cy="15" r="1" fill="srgba(234,40,57,1)"/>
  <circle cx="7" cy="15" r="1" fill="srgba(234,40,57,1)"/>
  <circle cx="8" cy="15" r="1" fill="srgba(234,40,57,1)"/>
  <circle cx="9" cy="15" r="1" fill="srgba(234,40,57,1)"/>
  <circle cx="10" cy="15" r="1" fill="srgba(234,40,57,1)"/>
  <circle cx="11" cy="15" r="1" fill="srgba(234,40,57,1)"/>
  <circle cx="12" cy="15" r="1" fill="srgba(234,40,57,1)"/>
  <circle cx="13" cy="15" r="1" fill="srgba(234,40,57,1)"/>
  <circle cx="14" cy="15" r="1" fill="srgba(91.7647%,15.6832%,22.3499%,1)"/>
  <circle cx="15" cy="15" r="1" fill="srgba(91.7723%,15.7473%,22.4063%,1)"/>
</svg>
