<?xml version="1.0" standalone="no"?>
<!DOCTYPE svg PUBLIC "-//W3C//DTD SVG 20010904//EN"
  "http://www.w3.org/TR/2001/REC-SVG-20010904/DTD/svg10.dtd">
<svg width="16" height="16">
  <circle cx="0" cy="0" r="1" fill="srgba(196,39,47,1)"/>
  <circle cx="1" cy="0" r="1" fill="srgba(196,39,47,1)"/>
  <circle cx="2" cy="0" r="1" fill="srgba(196,39,47,1)"/>
  <circle cx="3" cy="0" r="1" fill="srgba(76.8963%,15.2865%,18.4131%,1)"/>
  <circle cx="4" cy="0" r="1" fill="srgba(76.5209%,15.3674%,18.6114%,1)"/>
  <circle cx="5" cy="0" r="1" fill="srgba(27.5196%,25.922%,44.741%,1)"/>
  <circle cx="6" cy="0" r="1" fill="srgba(0%,32.0516%,59.9252%,1)"/>
  <circle cx="7" cy="0" r="1" fill="srgba(1,81,151,1)"/>
  <circle cx="8" cy="0" r="1" fill="srgba(1,81,151,1)"/>
  <circle cx="9" cy="0" r="1" fill="srgba(0%,32.0516%,59.9252%,1)"/>
  <circle cx="10" cy="0" r="1" fill="srgba(27.5105%,25.922%,44.7501%,1)"/>
  <circle cx="11" cy="0" r="1" fill="srgba(76.5194%,15.3674%,18.6145%,1)"/>
  <circle cx="12" cy="0" r="1" fill="srgba(76.8963%,15.2865%,18.4131%,1)"/>
  <circle cx="13" cy="0" r="1" fill="srgba(196,39,47,1)"/>
  <circle cx="14" cy="0" r="1" fill="srgba(196,39,47,1)"/>
  <circle cx="15" cy="0" r="1" fill="srgba(196,39,47,1)"/>
  <circle cx="0" cy="1" r="1" fill="srgba(196,39,47,1)"/>
  <circle cx="1" cy="1" r="1" fill="srgba(196,39,47,1)"/>
  <circle cx="2" cy="1" r="1" fill="srgba(196,39,47,1)"/>
  <circle cx="3" cy="1" r="1" fill="srgba(76.8963%,15.2865%,18.4131%,1)"/>
  <circle cx="4" cy="1" r="1" fill="srgba(76.5209%,15.3674%,18.6114%,1)"/>
  <circle cx="5" cy="1" r="1" fill="srgba(27.5196%,25.922%,44.741%,1)"/>
  <circle cx="6" cy="1" r="1" fill="srgba(0%,32.0516%,59.9252%,1)"/>
  <circle cx="7" cy="1" r="1" fill="srgba(1,81,151,1)"/>
  <circle cx="8" cy="1" r="1" fill="srgba(1,81,151,1)"/>
  <circle cx="9" cy="1" r="1" fill="srgba(0%,32.0516%,59.9252%,1)"/>
  <circle cx="10" cy="1" r="1" fill="srgba(27.5105%,25.922%,44.7501%,1)"/>
  <circle cx="11" cy="1" r="1" fill="srgba(76.5194%,15.3674%,18.6145%,1)"/>
  <circle cx="12" cy="1" r="1" fill="srgba(76.8963%,15.2865%,18.4131%,1)"/>
  <circle cx="13" cy="1" r="1" fill="srgba(196,39,47,1)"/>
  <circle cx="14" cy="1" r="1" fill="srgba(196,39,47,1)"/>
  <circle cx="15" cy="1" r="1" fill="srgba(196,39,47,1)"/>
  <circle cx="0" cy="2" r="1" fill="srgba(196,39,47,1)"/>
  <circle cx="1" cy="2" r="1" fill="srgba(196,39,47,1)"/>
  <circle cx="2" cy="2" r="1" fill="srgba(196,39,47,1)"/>
  <circle cx="3" cy="2" r="1" fill="srgba(76.8963%,15.2865%,18.4131%,1)"/>
  <circle cx="4" cy="2" r="1" fill="srgba(76.5209%,15.3674%,18.6114%,1)"/>
  <circle cx="5" cy="2" r="1" fill="srgba(27.5196%,25.922%,44.741%,1)"/>
  <circle cx="6" cy="2" r="1" fill="srgba(0%,32.0516%,59.9252%,1)"/>
  <circle cx="7" cy="2" r="1" fill="srgba(1,81,151,1)"/>
  <circle cx="8" cy="2" r="1" fill="srgba(1,81,151,1)"/>
  <circle cx="9" cy="2" r="1" fill="srgba(0%,32.0516%,59.9252%,1)"/>
  <circle cx="10" cy="2" r="1" fill="srgba(27.5105%,25.922%,44.7501%,1)"/>
  <circle cx="11" cy="2" r="1" fill="srgba(76.5194%,15.3674%,18.6145%,1)"/>
  <circle cx="12" cy="2" r="1" fill="srgba(76.8963%,15.2865%,18.4131%,1)"/>
  <circle cx="13" cy="2" r="1" fill="srgba(196,39,47,1)"/>
  <circle cx="14" cy="2" r="1" fill="srgba(196,39,47,1)"/>
  <circle cx="15" cy="2" r="1" fill="srgba(196,39,47,1)"/>
  <circle cx="0" cy="3" r="1" fill="srgba(196,39,47,1)"/>
  <circle cx="1" cy="3" r="1" fill="srgba(196,39,47,1)"/>
  <circle cx="2" cy="3" r="1" fill="srgba(76.8597%,15.285%,18.4329%,1)"/>
  <circle cx="3" cy="3" r="1" fill="srgba(76.8948%,15.2819%,18.4146%,1)"/>
  <circle cx="4" cy="3" r="1" fill="srgba(76.5209%,15.3674%,18.6114%,1)"/>
  <circle cx="5" cy="3" r="1" fill="srgba(27.5196%,25.922%,44.741%,1)"/>
  <circle cx="6" cy="3" r="1" fill="srgba(0%,32.0516%,59.9252%,1)"/>
  <circle cx="7" cy="3" r="1" fill="srgba(1,81,151,1)"/>
  <circle cx="8" cy="3" r="1" fill="srgba(1,81,151,1)"/>
  <circle cx="9" cy="3" r="1" fill="srgba(0%,32.0516%,59.9252%,1)"/>
  <circle cx="10" cy="3" r="1" fill="srgba(27.5105%,25.922%,44.7501%,1)"/>
  <circle cx="11" cy="3" r="1" fill="srgba(76.5194%,15.3674%,18.6145%,1)"/>
  <circle cx="12" cy="3" r="1" fill="srgba(76.8963%,15.2865%,18.4131%,1)"/>
  <circle cx="13" cy="3" r="1" fill="srgba(196,39,47,1)"/>
  <circle cx="14" cy="3" r="1" fill="srgba(196,39,47,1)"/>
  <circle cx="15" cy="3" r="1" fill="srgba(196,39,47,1)"/>
  <circle cx="0" cy="4" r="1" fill="srgba(196,39,47,1)"/>
  <circle cx="1" cy="4" r="1" fill="srgba(76.8566%,15.2743%,18.436%,1)"/>
  <circle cx="2" cy="4" r="1" fill="srgba(76.8505%,15.256%,18.4421%,1)"/>
  <circle cx="3" cy="4" r="1" fill="srgba(76.9177%,15.3536%,18.3948%,1)"/>
  <circle cx="4" cy="4" r="1" fill="srgba(76.5194%,15.3628%,18.613%,1)"/>
  <circle cx="5" cy="4" r="1" fill="srgba(27.5196%,25.922%,44.741%,1)"/>
  <circle cx="6" cy="4" r="1" fill="srgba(0%,32.0516%,59.9252%,1)"/>
  <circle cx="7" cy="4" r="1" fill="srgba(1,81,151,1)"/>
  <circle cx="8" cy="4" r="1" fill="srgba(1,81,151,1)"/>
  <circle cx="9" cy="4" r="1" fill="srgba(0%,32.0516%,59.9252%,1)"/>
  <circle cx="10" cy="4" r="1" fill="srgba(27.5105%,25.922%,44.7501%,1)"/>
  <circle cx="11" cy="4" r="1" fill="srgba(76.5194%,15.3674%,18.6145%,1)"/>
  <circle cx="12" cy="4" r="1" fill="srgba(76.8963%,15.2865%,18.4131%,1)"/>
  <circle cx="13" cy="4" r="1" fill="srgba(196,39,47,1)"/>
  <circle cx="14" cy="4" r="1" fill="srgba(196,39,47,1)"/>
  <circle cx="15" cy="4" r="1" fill="srgba(196,39,47,1)"/>
  <circle cx="0" cy="5" r="1" fill="srgba(76.8597%,15.2819%,18.4344%,1)"/>
  <circle cx="1" cy="5" r="1" fill="srgba(76.9207%,15.4757%,18.3825%,1)"/>
  <circle cx="2" cy="5" r="1" fill="srgba(81.1963%,29.0318%,14.7509%,1)"/>
  <circle cx="3" cy="5" r="1" fill="srgba(78.1735%,19.3347%,17.3297%,1)"/>
  <circle cx="4" cy="5" r="1" fill="srgba(76.4477%,15.1324%,18.6755%,1)"/>
  <circle cx="5" cy="5" r="1" fill="srgba(27.5196%,25.922%,44.741%,1)"/>
  <circle cx="6" cy="5" r="1" fill="srgba(0%,32.0516%,59.9252%,1)"/>
  <circle cx="7" cy="5" r="1" fill="srgba(1,81,151,1)"/>
  <circle cx="8" cy="5" r="1" fill="srgba(1,81,151,1)"/>
  <circle cx="9" cy="5" r="1" fill="srgba(0%,32.0516%,59.9252%,1)"/>
  <circle cx="10" cy="5" r="1" fill="srgba(27.5105%,25.922%,44.7501%,1)"/>
  <circle cx="11" cy="5" r="1" fill="srgba(76.5194%,15.3674%,18.6145%,1)"/>
  <circle cx="12" cy="5" r="1" fill="srgba(76.8963%,15.2865%,18.4131%,1)"/>
  <circle cx="13" cy="5" r="1" fill="srgba(196,39,47,1)"/>
  <circle cx="14" cy="5" r="1" fill="srgba(196,39,47,1)"/>
  <circle cx="15" cy="5" r="1" fill="srgba(196,39,47,1)"/>
  <circle cx="0" cy="6" r="1" fill="srgba(76.7788%,15.0286%,18.5031%,1)"/>
  <circle cx="1" cy="6" r="1" fill="srgba(77.6059%,17.6486%,17.8012%,1)"/>
  <circle cx="2" cy="6" r="1" fill="srgba(89.2271%,54.4869%,7.93317%,1)"/>
  <circle cx="3" cy="6" r="1" fill="srgba(80.8728%,27.8859%,15.0378%,1)"/>
  <circle cx="4" cy="6" r="1" fill="srgba(76.2219%,14.4198%,18.8663%,1)"/>
  <circle cx="5" cy="6" r="1" fill="srgba(27.5242%,25.9358%,44.7364%,1)"/>
  <circle cx="6" cy="6" r="1" fill="srgba(0%,32.0516%,59.9252%,1)"/>
  <circle cx="7" cy="6" r="1" fill="srgba(1,81,151,1)"/>
  <circle cx="8" cy="6" r="1" fill="srgba(1,81,151,1)"/>
  <circle cx="9" cy="6" r="1" fill="srgba(0%,32.0516%,59.9252%,1)"/>
  <circle cx="10" cy="6" r="1" fill="srgba(27.5105%,25.922%,44.7501%,1)"/>
  <circle cx="11" cy="6" r="1" fill="srgba(76.5194%,15.3674%,18.6145%,1)"/>
  <circle cx="12" cy="6" r="1" fill="srgba(76.8963%,15.2865%,18.4131%,1)"/>
  <circle cx="13" cy="6" r="1" fill="srgba(196,39,47,1)"/>
  <circle cx="14" cy="6" r="1" fill="srgba(196,39,47,1)"/>
  <circle cx="15" cy="6" r="1" fill="srgba(196,39,47,1)"/>
  <circle cx="0" cy="7" r="1" fill="srgba(77.2808%,16.6232%,18.0758%,1)"/>
  <circle cx="1" cy="7" r="1" fill="srgba(82.4002%,32.8496%,13.727%,1)"/>
  <circle cx="2" cy="7" r="1" fill="srgba(87.1443%,47.8981%,9.69558%,1)"/>
  <circle cx="3" cy="7" r="1" fill="srgba(84.3091%,38.7762%,12.1202%,1)"/>
  <circle cx="4" cy="7" r="1" fill="srgba(78.2132%,20.7309%,17.1756%,1)"/>
  <circle cx="5" cy="7" r="1" fill="srgba(27.4128%,25.5787%,44.8325%,1)"/>
  <circle cx="6" cy="7" r="1" fill="srgba(0%,32.0516%,59.9252%,1)"/>
  <circle cx="7" cy="7" r="1" fill="srgba(1,81,151,1)"/>
  <circle cx="8" cy="7" r="1" fill="srgba(1,81,151,1)"/>
  <circle cx="9" cy="7" r="1" fill="srgba(0%,32.0516%,59.9252%,1)"/>
  <circle cx="10" cy="7" r="1" fill="srgba(27.5105%,25.922%,44.7501%,1)"/>
  <circle cx="11" cy="7" r="1" fill="srgba(76.5194%,15.3674%,18.6145%,1)"/>
  <circle cx="12" cy="7" r="1" fill="srgba(76.8963%,15.2865%,18.4131%,1)"/>
  <circle cx="13" cy="7" r="1" fill="srgba(196,39,47,1)"/>
  <circle cx="14" cy="7" r="1" fill="srgba(196,39,47,1)"/>
  <circle cx="15" cy="7" r="1" fill="srgba(196,39,47,1)"/>
  <circle cx="0" cy="8" r="1" fill="srgba(77.94%,18.7228%,17.5128%,1)"/>
  <circle cx="1" cy="8" r="1" fill="srgba(89.4514%,55.2224%,7.73632%,1)"/>
  <circle cx="2" cy="8" r="1" fill="srgba(88.5908%,52.5002%,8.46876%,1)"/>
  <circle cx="3" cy="8" r="1" fill="srgba(90.3914%,58.0621%,6.95506%,1)"/>
  <circle cx="4" cy="8" r="1" fill="srgba(80.8728%,29.163%,14.9172%,1)"/>
  <circle cx="5" cy="8" r="1" fill="srgba(27.2572%,25.0874%,44.9638%,1)"/>
  <circle cx="6" cy="8" r="1" fill="srgba(0%,32.0516%,59.9252%,1)"/>
  <circle cx="7" cy="8" r="1" fill="srgba(1,81,151,1)"/>
  <circle cx="8" cy="8" r="1" fill="srgba(1,81,151,1)"/>
  <circle cx="9" cy="8" r="1" fill="srgba(0%,32.0516%,59.9252%,1)"/>
  <circle cx="10" cy="8" r="1" fill="srgba(27.5105%,25.922%,44.7501%,1)"/>
  <circle cx="11" cy="8" r="1" fill="srgba(76.5194%,15.3674%,18.6145%,1)"/>
  <circle cx="12" cy="8" r="1" fill="srgba(76.8963%,15.2865%,18.4131%,1)"/>
  <circle cx="13" cy="8" r="1" fill="srgba(196,39,47,1)"/>
  <circle cx="14" cy="8" r="1" fill="srgba(196,39,47,1)"/>
  <circle cx="15" cy="8" r="1" fill="srgba(196,39,47,1)"/>
  <circle cx="0" cy="9" r="1" fill="srgba(77.9294%,18.6877%,17.5235%,1)"/>
  <circle cx="1" cy="9" r="1" fill="srgba(89.7993%,56.318%,7.44335%,1)"/>
  <circle cx="2" cy="9" r="1" fill="srgba(90.3151%,57.9294%,7.00847%,1)"/>
  <circle cx="3" cy="9" r="1" fill="srgba(91.6838%,62.1469%,5.86099%,1)"/>
  <circle cx="4" cy="9" r="1" fill="srgba(80.8484%,29.0867%,14.9371%,1)"/>
  <circle cx="5" cy="9" r="1" fill="srgba(27.2557%,25.0797%,44.9653%,1)"/>
  <circle cx="6" cy="9" r="1" fill="srgba(0%,32.0516%,59.9252%,1)"/>
  <circle cx="7" cy="9" r="1" fill="srgba(1,81,151,1)"/>
  <circle cx="8" cy="9" r="1" fill="srgba(1,81,151,1)"/>
  <circle cx="9" cy="9" r="1" fill="srgba(0%,32.0516%,59.9252%,1)"/>
  <circle cx="10" cy="9" r="1" fill="srgba(27.5105%,25.922%,44.7501%,1)"/>
  <circle cx="11" cy="9" r="1" fill="srgba(76.5194%,15.3674%,18.6145%,1)"/>
  <circle cx="12" cy="9" r="1" fill="srgba(76.8963%,15.2865%,18.4131%,1)"/>
  <circle cx="13" cy="9" r="1" fill="srgba(196,39,47,1)"/>
  <circle cx="14" cy="9" r="1" fill="srgba(196,39,47,1)"/>
  <circle cx="15" cy="9" r="1" fill="srgba(196,39,47,1)"/>
  <circle cx="0" cy="10" r="1" fill="srgba(77.6837%,17.908%,17.731%,1)"/>
  <circle cx="1" cy="10" r="1" fill="srgba(86.009%,44.3122%,10.6584%,1)"/>
  <circle cx="2" cy="10" r="1" fill="srgba(85.153%,41.5564%,11.3954%,1)"/>
  <circle cx="3" cy="10" r="1" fill="srgba(86.7735%,46.5949%,10.0267%,1)"/>
  <circle cx="4" cy="10" r="1" fill="srgba(79.7757%,25.6916%,15.8465%,1)"/>
  <circle cx="5" cy="10" r="1" fill="srgba(27.3243%,25.2995%,44.9073%,1)"/>
  <circle cx="6" cy="10" r="1" fill="srgba(0%,32.0516%,59.9252%,1)"/>
  <circle cx="7" cy="10" r="1" fill="srgba(1,81,151,1)"/>
  <circle cx="8" cy="10" r="1" fill="srgba(1,81,151,1)"/>
  <circle cx="9" cy="10" r="1" fill="srgba(0%,32.0516%,59.9252%,1)"/>
  <circle cx="10" cy="10" r="1" fill="srgba(27.5105%,25.922%,44.7501%,1)"/>
  <circle cx="11" cy="10" r="1" fill="srgba(76.5194%,15.3674%,18.6145%,1)"/>
  <circle cx="12" cy="10" r="1" fill="srgba(76.8963%,15.2865%,18.4131%,1)"/>
  <circle cx="13" cy="10" r="1" fill="srgba(196,39,47,1)"/>
  <circle cx="14" cy="10" r="1" fill="srgba(196,39,47,1)"/>
  <circle cx="15" cy="10" r="1" fill="srgba(196,39,47,1)"/>
  <circle cx="0" cy="11" r="1" fill="srgba(76.9055%,15.4314%,18.3948%,1)"/>
  <circle cx="1" cy="11" r="1" fill="srgba(77.2625%,16.5698%,18.0896%,1)"/>
  <circle cx="2" cy="11" r="1" fill="srgba(77.0886%,16.0128%,18.2391%,1)"/>
  <circle cx="3" cy="11" r="1" fill="srgba(77.2717%,16.4797%,18.0941%,1)"/>
  <circle cx="4" cy="11" r="1" fill="srgba(76.6842%,15.8846%,18.4741%,1)"/>
  <circle cx="5" cy="11" r="1" fill="srgba(27.5105%,25.8915%,44.7486%,1)"/>
  <circle cx="6" cy="11" r="1" fill="srgba(0%,32.0516%,59.9252%,1)"/>
  <circle cx="7" cy="11" r="1" fill="srgba(1,81,151,1)"/>
  <circle cx="8" cy="11" r="1" fill="srgba(1,81,151,1)"/>
  <circle cx="9" cy="11" r="1" fill="srgba(0%,32.0516%,59.9252%,1)"/>
  <circle cx="10" cy="11" r="1" fill="srgba(27.5105%,25.922%,44.7501%,1)"/>
  <circle cx="11" cy="11" r="1" fill="srgba(76.5194%,15.3674%,18.6145%,1)"/>
  <circle cx="12" cy="11" r="1" fill="srgba(76.8963%,15.2865%,18.4131%,1)"/>
  <circle cx="13" cy="11" r="1" fill="srgba(196,39,47,1)"/>
  <circle cx="14" cy="11" r="1" fill="srgba(196,39,47,1)"/>
  <circle cx="15" cy="11" r="1" fill="srgba(196,39,47,1)"/>
  <circle cx="0" cy="12" r="1" fill="srgba(76.8597%,15.2865%,18.4329%,1)"/>
  <circle cx="1" cy="12" r="1" fill="srgba(76.8383%,15.2148%,18.4527%,1)"/>
  <circle cx="2" cy="12" r="1" fill="srgba(76.849%,15.2529%,18.4421%,1)"/>
  <circle cx="3" cy="12" r="1" fill="srgba(76.8734%,15.2117%,18.4344%,1)"/>
  <circle cx="4" cy="12" r="1" fill="srgba(76.5118%,15.3368%,18.6206%,1)"/>
  <circle cx="5" cy="12" r="1" fill="srgba(27.5212%,25.9236%,44.7395%,1)"/>
  <circle cx="6" cy="12" r="1" fill="srgba(0%,32.0516%,59.9252%,1)"/>
  <circle cx="7" cy="12" r="1" fill="srgba(1,81,151,1)"/>
  <circle cx="8" cy="12" r="1" fill="srgba(1,81,151,1)"/>
  <circle cx="9" cy="12" r="1" fill="srgba(0%,32.0516%,59.9252%,1)"/>
  <circle cx="10" cy="12" r="1" fill="srgba(27.5105%,25.922%,44.7501%,1)"/>
  <circle cx="11" cy="12" r="1" fill="srgba(76.5194%,15.3674%,18.6145%,1)"/>
  <circle cx="12" cy="12" r="1" fill="srgba(76.8963%,15.2865%,18.4131%,1)"/>
  <circle cx="13" cy="12" r="1" fill="srgba(196,39,47,1)"/>
  <circle cx="14" cy="12" r="1" fill="srgba(196,39,47,1)"/>
  <circle cx="15" cy="12" r="1" fill="srgba(196,39,47,1)"/>
  <circle cx="0" cy="13" r="1" fill="srgba(196,39,47,1)"/>
  <circle cx="1" cy="13" r="1" fill="srgba(196,39,47,1)"/>
  <circle cx="2" cy="13" r="1" fill="srgba(196,39,47,1)"/>
  <circle cx="3" cy="13" r="1" fill="srgba(76.8963%,15.2865%,18.4131%,1)"/>
  <circle cx="4" cy="13" r="1" fill="srgba(76.5209%,15.3674%,18.6114%,1)"/>
  <circle cx="5" cy="13" r="1" fill="srgba(27.5196%,25.922%,44.741%,1)"/>
  <circle cx="6" cy="13" r="1" fill="srgba(0%,32.0516%,59.9252%,1)"/>
  <circle cx="7" cy="13" r="1" fill="srgba(1,81,151,1)"/>
  <circle cx="8" cy="13" r="1" fill="srgba(1,81,151,1)"/>
  <circle cx="9" cy="13" r="1" fill="srgba(0%,32.0516%,59.9252%,1)"/>
  <circle cx="10" cy="13" r="1" fill="srgba(27.5105%,25.922%,44.7501%,1)"/>
  <circle cx="11" cy="13" r="1" fill="srgba(76.5194%,15.3674%,18.6145%,1)"/>
  <circle cx="12" cy="13" r="1" fill="srgba(76.8963%,15.2865%,18.4131%,1)"/>
  <circle cx="13" cy="13" r="1" fill="srgba(196,39,47,1)"/>
  <circle cx="14" cy="13" r="1" fill="srgba(196,39,47,1)"/>
  <circle cx="15" cy="13" r="1" fill="srgba(196,39,47,1)"/>
  <circle cx="0" cy="14" r="1" fill="srgba(196,39,47,1)"/>
  <circle cx="1" cy="14" r="1" fill="srgba(196,39,47,1)"/>
  <circle cx="2" cy="14" r="1" fill="srgba(196,39,47,1)"/>
  <circle cx="3" cy="14" r="1" fill="srgba(76.8963%,15.2865%,18.4131%,1)"/>
  <circle cx="4" cy="14" r="1" fill="srgba(76.5209%,15.3674%,18.6114%,1)"/>
  <circle cx="5" cy="14" r="1" fill="srgba(27.5196%,25.922%,44.741%,1)"/>
  <circle cx="6" cy="14" r="1" fill="srgba(0%,32.0516%,59.9252%,1)"/>
  <circle cx="7" cy="14" r="1" fill="srgba(1,81,151,1)"/>
  <circle cx="8" cy="14" r="1" fill="srgba(1,81,151,1)"/>
  <circle cx="9" cy="14" r="1" fill="srgba(0%,32.0516%,59.9252%,1)"/>
  <circle cx="10" cy="14" r="1" fill="srgba(27.5105%,25.922%,44.7501%,1)"/>
  <circle cx="11" cy="14" r="1" fill="srgba(76.5194%,15.3674%,18.6145%,1)"/>
  <circle cx="12" cy="14" r="1" fill="srgba(76.8963%,15.2865%,18.4131%,1)"/>
  <circle cx="13" cy="14" r="1" fill="srgba(196,39,47,1)"/>
  <circle cx="14" cy="14" r="1" fill="srgba(196,39,47,1)"/>
  <circle cx="15" cy="14" r="1" fill="srgba(196,39,47,1)"/>
  <circle cx="0" cy="15" r="1" fill="srgba(196,39,47,1)"/>
  <circle cx="1" cy="15" r="1" fill="srgba(196,39,47,1)"/>
  <circle cx="2" cy="15" r="1" fill="srgba(196,39,47,1)"/>
  <circle cx="3" cy="15" r="1" fill="srgba(76.8963%,15.2865%,18.4131%,1)"/>
  <circle cx="4" cy="15" r="1" fill="srgba(76.5209%,15.3674%,18.6114%,1)"/>
  <circle cx="5" cy="15" r="1" fill="srgba(27.5196%,25.922%,44.741%,1)"/>
  <circle cx="6" cy="15" r="1" fill="srgba(0%,32.0516%,59.9252%,1)"/>
  <circle cx="7" cy="15" r="1" fill="srgba(1,81,151,1)"/>
  <circle cx="8" cy="15" r="1" fill="srgba(1,81,151,1)"/>
  <circle cx="9" cy="15" r="1" fill="srgba(0%,32.0516%,59.9252%,1)"/>
  <circle cx="10" cy="15" r="1" fill="srgba(27.5105%,25.922%,44.7501%,1)"/>
  <circle cx="11" cy="15" r="1" fill="srgba(76.5194%,15.3674%,18.6145%,1)"/>
  <circle cx="12" cy="15" r="1" fill="srgba(76.8963%,15.2865%,18.4131%,1)"/>
  <circle cx="13" cy="15" r="1" fill="srgba(196,39,47,1)"/>
  <circle cx="14" cy="15" r="1" fill="srgba(196,39,47,1)"/>
  <circle cx="15" cy="15" r="1" fill="srgba(196,39,47,1)"/>
</svg>
