<?xml version="1.0" standalone="no"?>
<!DOCTYPE svg PUBLIC "-//W3C//DTD SVG 20010904//EN"
  "http://www.w3.org/TR/2001/REC-SVG-20010904/DTD/svg10.dtd">
<svg width="16" height="16">
  <circle cx="0" cy="0" r="1" fill="srgba(0,120,94,1)"/>
  <circle cx="1" cy="0" r="1" fill="srgba(0,120,94,1)"/>
  <circle cx="2" cy="0" r="1" fill="srgba(0,120,94,1)"/>
  <circle cx="3" cy="0" r="1" fill="srgba(0,120,94,1)"/>
  <circle cx="4" cy="0" r="1" fill="srgba(0,120,94,1)"/>
  <circle cx="5" cy="0" r="1" fill="srgba(0,120,94,1)"/>
  <circle cx="6" cy="0" r="1" fill="srgba(0,120,94,1)"/>
  <circle cx="7" cy="0" r="1" fill="srgba(0,120,94,1)"/>
  <circle cx="8" cy="0" r="1" fill="srgba(0,120,94,1)"/>
  <circle cx="9" cy="0" r="1" fill="srgba(0,120,94,1)"/>
  <circle cx="10" cy="0" r="1" fill="srgba(0,120,94,1)"/>
  <circle cx="11" cy="0" r="1" fill="srgba(0,120,94,1)"/>
  <circle cx="12" cy="0" r="1" fill="srgba(0,120,94,1)"/>
  <circle cx="13" cy="0" r="1" fill="srgba(0,120,94,1)"/>
  <circle cx="14" cy="0" r="1" fill="srgba(0,120,94,1)"/>
  <circle cx="15" cy="0" r="1" fill="srgba(0,120,94,1)"/>
  <circle cx="0" cy="1" r="1" fill="srgba(0,120,94,1)"/>
  <circle cx="1" cy="1" r="1" fill="srgba(0,120,94,1)"/>
  <circle cx="2" cy="1" r="1" fill="srgba(0,120,94,1)"/>
  <circle cx="3" cy="1" r="1" fill="srgba(0,120,94,1)"/>
  <circle cx="4" cy="1" r="1" fill="srgba(0,120,94,1)"/>
  <circle cx="5" cy="1" r="1" fill="srgba(0,120,94,1)"/>
  <circle cx="6" cy="1" r="1" fill="srgba(0%,47.0603%,36.8627%,1)"/>
  <circle cx="7" cy="1" r="1" fill="srgba(0%,47.0466%,36.8719%,1)"/>
  <circle cx="8" cy="1" r="1" fill="srgba(0%,47.0466%,36.8719%,1)"/>
  <circle cx="9" cy="1" r="1" fill="srgba(0%,47.0603%,36.8627%,1)"/>
  <circle cx="10" cy="1" r="1" fill="srgba(0,120,94,1)"/>
  <circle cx="11" cy="1" r="1" fill="srgba(0,120,94,1)"/>
  <circle cx="12" cy="1" r="1" fill="srgba(0,120,94,1)"/>
  <circle cx="13" cy="1" r="1" fill="srgba(0,120,94,1)"/>
  <circle cx="14" cy="1" r="1" fill="srgba(0,120,94,1)"/>
  <circle cx="15" cy="1" r="1" fill="srgba(0,120,94,1)"/>
  <circle cx="0" cy="2" r="1" fill="srgba(0,120,94,1)"/>
  <circle cx="1" cy="2" r="1" fill="srgba(0,120,94,1)"/>
  <circle cx="2" cy="2" r="1" fill="srgba(0,120,94,1)"/>
  <circle cx="3" cy="2" r="1" fill="srgba(0,120,94,1)"/>
  <circle cx="4" cy="2" r="1" fill="srgba(0,120,94,1)"/>
  <circle cx="5" cy="2" r="1" fill="srgba(0%,47.0314%,36.8856%,1)"/>
  <circle cx="6" cy="2" r="1" fill="srgba(0%,47.0329%,36.8826%,1)"/>
  <circle cx="7" cy="2" r="1" fill="srgba(0.550851%,47.0695%,36.8551%,1)"/>
  <circle cx="8" cy="2" r="1" fill="srgba(0.550851%,47.0695%,36.8551%,1)"/>
  <circle cx="9" cy="2" r="1" fill="srgba(0%,47.0329%,36.8826%,1)"/>
  <circle cx="10" cy="2" r="1" fill="srgba(0%,47.0314%,36.8841%,1)"/>
  <circle cx="11" cy="2" r="1" fill="srgba(0,120,94,1)"/>
  <circle cx="12" cy="2" r="1" fill="srgba(0,120,94,1)"/>
  <circle cx="13" cy="2" r="1" fill="srgba(0,120,94,1)"/>
  <circle cx="14" cy="2" r="1" fill="srgba(0,120,94,1)"/>
  <circle cx="15" cy="2" r="1" fill="srgba(0,120,94,1)"/>
  <circle cx="0" cy="3" r="1" fill="srgba(0,120,94,1)"/>
  <circle cx="1" cy="3" r="1" fill="srgba(0,120,94,1)"/>
  <circle cx="2" cy="3" r="1" fill="srgba(0,120,94,1)"/>
  <circle cx="3" cy="3" r="1" fill="srgba(0,120,94,1)"/>
  <circle cx="4" cy="3" r="1" fill="srgba(0%,47.0481%,36.8719%,1)"/>
  <circle cx="5" cy="3" r="1" fill="srgba(1.60983%,47.6188%,36.4096%,1)"/>
  <circle cx="6" cy="3" r="1" fill="srgba(0.39826%,47.1916%,36.7575%,1)"/>
  <circle cx="7" cy="3" r="1" fill="srgba(25.7191%,56.17%,29.4423%,1)"/>
  <circle cx="8" cy="3" r="1" fill="srgba(25.713%,56.1685%,29.4438%,1)"/>
  <circle cx="9" cy="3" r="1" fill="srgba(0.39826%,47.1916%,36.7575%,1)"/>
  <circle cx="10" cy="3" r="1" fill="srgba(1.60983%,47.6188%,36.4096%,1)"/>
  <circle cx="11" cy="3" r="1" fill="srgba(0%,47.0481%,36.8719%,1)"/>
  <circle cx="12" cy="3" r="1" fill="srgba(0,120,94,1)"/>
  <circle cx="13" cy="3" r="1" fill="srgba(0,120,94,1)"/>
  <circle cx="14" cy="3" r="1" fill="srgba(0,120,94,1)"/>
  <circle cx="15" cy="3" r="1" fill="srgba(0,120,94,1)"/>
  <circle cx="0" cy="4" r="1" fill="srgba(0,120,94,1)"/>
  <circle cx="1" cy="4" r="1" fill="srgba(0,120,94,1)"/>
  <circle cx="2" cy="4" r="1" fill="srgba(0%,47.0603%,36.8612%,1)"/>
  <circle cx="3" cy="4" r="1" fill="srgba(0%,47.0344%,36.8826%,1)"/>
  <circle cx="4" cy="4" r="1" fill="srgba(0%,46.6575%,37.1878%,1)"/>
  <circle cx="5" cy="4" r="1" fill="srgba(22.388%,54.963%,30.4906%,1)"/>
  <circle cx="6" cy="4" r="1" fill="srgba(11.2108%,50.8156%,33.3196%,1)"/>
  <circle cx="7" cy="4" r="1" fill="srgba(17.966%,53.3104%,31.6808%,1)"/>
  <circle cx="8" cy="4" r="1" fill="srgba(17.9599%,53.3074%,31.6823%,1)"/>
  <circle cx="9" cy="4" r="1" fill="srgba(11.2139%,50.8171%,33.3196%,1)"/>
  <circle cx="10" cy="4" r="1" fill="srgba(22.3819%,54.9599%,30.4936%,1)"/>
  <circle cx="11" cy="4" r="1" fill="srgba(0%,46.6575%,37.1878%,1)"/>
  <circle cx="12" cy="4" r="1" fill="srgba(0%,47.0344%,36.8826%,1)"/>
  <circle cx="13" cy="4" r="1" fill="srgba(0%,47.0603%,36.8612%,1)"/>
  <circle cx="14" cy="4" r="1" fill="srgba(0,120,94,1)"/>
  <circle cx="15" cy="4" r="1" fill="srgba(0,120,94,1)"/>
  <circle cx="0" cy="5" r="1" fill="srgba(0,120,94,1)"/>
  <circle cx="1" cy="5" r="1" fill="srgba(0,120,94,1)"/>
  <circle cx="2" cy="5" r="1" fill="srgba(0%,47.039%,36.878%,1)"/>
  <circle cx="3" cy="5" r="1" fill="srgba(1.1429%,47.4647%,36.5347%,1)"/>
  <circle cx="4" cy="5" r="1" fill="srgba(14.5922%,52.2316%,32.6741%,1)"/>
  <circle cx="5" cy="5" r="1" fill="srgba(6.03799%,49.1066%,34.6441%,1)"/>
  <circle cx="6" cy="5" r="1" fill="srgba(10.93%,52.4865%,41.8967%,1)"/>
  <circle cx="7" cy="5" r="1" fill="srgba(41.12%,68.9601%,63.5233%,1)"/>
  <circle cx="8" cy="5" r="1" fill="srgba(41.1093%,68.9555%,63.5172%,1)"/>
  <circle cx="9" cy="5" r="1" fill="srgba(10.9239%,52.4849%,41.8921%,1)"/>
  <circle cx="10" cy="5" r="1" fill="srgba(6.03799%,49.1081%,34.6441%,1)"/>
  <circle cx="11" cy="5" r="1" fill="srgba(14.5922%,52.2332%,32.6741%,1)"/>
  <circle cx="12" cy="5" r="1" fill="srgba(1.14137%,47.4632%,36.5347%,1)"/>
  <circle cx="13" cy="5" r="1" fill="srgba(0%,47.039%,36.878%,1)"/>
  <circle cx="14" cy="5" r="1" fill="srgba(0,120,94,1)"/>
  <circle cx="15" cy="5" r="1" fill="srgba(0,120,94,1)"/>
  <circle cx="0" cy="6" r="1" fill="srgba(0,120,94,1)"/>
  <circle cx="1" cy="6" r="1" fill="srgba(0,120,94,1)"/>
  <circle cx="2" cy="6" r="1" fill="srgba(0%,47.0329%,36.8841%,1)"/>
  <circle cx="3" cy="6" r="1" fill="srgba(1.54574%,47.6081%,36.4263%,1)"/>
  <circle cx="4" cy="6" r="1" fill="srgba(19.7192%,54.02%,31.0842%,1)"/>
  <circle cx="5" cy="6" r="1" fill="srgba(1.96078%,46.9184%,34.4411%,1)"/>
  <circle cx="6" cy="6" r="1" fill="srgba(30.4204%,62.6658%,55.6802%,1)"/>
  <circle cx="7" cy="6" r="1" fill="srgba(90.1915%,94.8165%,93.814%,1)"/>
  <circle cx="8" cy="6" r="1" fill="srgba(90.1884%,94.8165%,93.8125%,1)"/>
  <circle cx="9" cy="6" r="1" fill="srgba(30.4067%,62.6596%,55.671%,1)"/>
  <circle cx="10" cy="6" r="1" fill="srgba(1.96231%,46.92%,34.4411%,1)"/>
  <circle cx="11" cy="6" r="1" fill="srgba(19.7269%,54.0246%,31.0796%,1)"/>
  <circle cx="12" cy="6" r="1" fill="srgba(1.54421%,47.6081%,36.4263%,1)"/>
  <circle cx="13" cy="6" r="1" fill="srgba(0%,47.0329%,36.8841%,1)"/>
  <circle cx="14" cy="6" r="1" fill="srgba(0,120,94,1)"/>
  <circle cx="15" cy="6" r="1" fill="srgba(0,120,94,1)"/>
  <circle cx="0" cy="7" r="1" fill="srgba(0,120,94,1)"/>
  <circle cx="1" cy="7" r="1" fill="srgba(0,120,94,1)"/>
  <circle cx="2" cy="7" r="1" fill="srgba(0%,47.0603%,36.8627%,1)"/>
  <circle cx="3" cy="7" r="1" fill="srgba(0%,46.5476%,36.2905%,1)"/>
  <circle cx="4" cy="7" r="1" fill="srgba(16.0266%,55.3155%,47.1962%,1)"/>
  <circle cx="5" cy="7" r="1" fill="srgba(49.4347%,73.2189%,68.1422%,1)"/>
  <circle cx="6" cy="7" r="1" fill="srgba(47.4205%,72.1645%,66.7994%,1)"/>
  <circle cx="7" cy="7" r="1" fill="srgba(93.0938%,96.3439%,95.639%,1)"/>
  <circle cx="8" cy="7" r="1" fill="srgba(93.0861%,96.3394%,95.6344%,1)"/>
  <circle cx="9" cy="7" r="1" fill="srgba(47.422%,72.1645%,66.7994%,1)"/>
  <circle cx="10" cy="7" r="1" fill="srgba(49.4377%,73.2219%,68.1453%,1)"/>
  <circle cx="11" cy="7" r="1" fill="srgba(16.0021%,55.3033%,47.1809%,1)"/>
  <circle cx="12" cy="7" r="1" fill="srgba(0%,46.5476%,36.2905%,1)"/>
  <circle cx="13" cy="7" r="1" fill="srgba(0%,47.0603%,36.8627%,1)"/>
  <circle cx="14" cy="7" r="1" fill="srgba(0,120,94,1)"/>
  <circle cx="15" cy="7" r="1" fill="srgba(0,120,94,1)"/>
  <circle cx="0" cy="8" r="1" fill="srgba(0,120,94,1)"/>
  <circle cx="1" cy="8" r="1" fill="srgba(0,120,94,1)"/>
  <circle cx="2" cy="8" r="1" fill="srgba(0%,47.0497%,36.8521%,1)"/>
  <circle cx="3" cy="8" r="1" fill="srgba(0%,46.3371%,36.0021%,1)"/>
  <circle cx="4" cy="8" r="1" fill="srgba(29.987%,62.6703%,55.4803%,1)"/>
  <circle cx="5" cy="8" r="1" fill="srgba(97.9141%,98.8708%,98.6526%,1)"/>
  <circle cx="6" cy="8" r="1" fill="srgba(95.2392%,97.4807%,96.9955%,1)"/>
  <circle cx="7" cy="8" r="1" fill="srgba(97.2061%,98.5214%,98.2361%,1)"/>
  <circle cx="8" cy="8" r="1" fill="srgba(97.2061%,98.5214%,98.2361%,1)"/>
  <circle cx="9" cy="8" r="1" fill="srgba(95.2483%,97.4853%,97.0001%,1)"/>
  <circle cx="10" cy="8" r="1" fill="srgba(97.9004%,98.8632%,98.6435%,1)"/>
  <circle cx="11" cy="8" r="1" fill="srgba(29.9397%,62.6459%,55.4498%,1)"/>
  <circle cx="12" cy="8" r="1" fill="srgba(0%,46.3371%,36.0021%,1)"/>
  <circle cx="13" cy="8" r="1" fill="srgba(0%,47.0497%,36.8521%,1)"/>
  <circle cx="14" cy="8" r="1" fill="srgba(0,120,94,1)"/>
  <circle cx="15" cy="8" r="1" fill="srgba(0,120,94,1)"/>
  <circle cx="0" cy="9" r="1" fill="srgba(0,120,94,1)"/>
  <circle cx="1" cy="9" r="1" fill="srgba(0,120,94,1)"/>
  <circle cx="2" cy="9" r="1" fill="srgba(0%,47.0054%,36.7987%,1)"/>
  <circle cx="3" cy="9" r="1" fill="srgba(0.770581%,47.4678%,37.3495%,1)"/>
  <circle cx="4" cy="9" r="1" fill="srgba(40.3403%,68.4154%,62.3331%,1)"/>
  <circle cx="5" cy="9" r="1" fill="srgba(92.0089%,95.7702%,94.9538%,1)"/>
  <circle cx="6" cy="9" r="1" fill="srgba(95.2087%,97.464%,96.9741%,1)"/>
  <circle cx="7" cy="9" r="1" fill="srgba(80.5325%,89.6941%,87.7073%,1)"/>
  <circle cx="8" cy="9" r="1" fill="srgba(80.5463%,89.7017%,87.7165%,1)"/>
  <circle cx="9" cy="9" r="1" fill="srgba(95.2148%,97.4655%,96.9787%,1)"/>
  <circle cx="10" cy="9" r="1" fill="srgba(91.9982%,95.7641%,94.9477%,1)"/>
  <circle cx="11" cy="9" r="1" fill="srgba(40.3143%,68.4016%,62.3163%,1)"/>
  <circle cx="12" cy="9" r="1" fill="srgba(0.769055%,47.4662%,37.348%,1)"/>
  <circle cx="13" cy="9" r="1" fill="srgba(0%,47.0054%,36.7987%,1)"/>
  <circle cx="14" cy="9" r="1" fill="srgba(0,120,94,1)"/>
  <circle cx="15" cy="9" r="1" fill="srgba(0,120,94,1)"/>
  <circle cx="0" cy="10" r="1" fill="srgba(0,120,94,1)"/>
  <circle cx="1" cy="10" r="1" fill="srgba(0,120,94,1)"/>
  <circle cx="2" cy="10" r="1" fill="srgba(0%,46.9978%,36.791%,1)"/>
  <circle cx="3" cy="10" r="1" fill="srgba(2.12863%,48.1849%,38.2071%,1)"/>
  <circle cx="4" cy="10" r="1" fill="srgba(42.8519%,69.7444%,63.9216%,1)"/>
  <circle cx="5" cy="10" r="1" fill="srgba(52.7993%,75.0118%,70.2007%,1)"/>
  <circle cx="6" cy="10" r="1" fill="srgba(51.722%,74.4411%,69.5201%,1)"/>
  <circle cx="7" cy="10" r="1" fill="srgba(34.5571%,65.3529%,58.6801%,1)"/>
  <circle cx="8" cy="10" r="1" fill="srgba(34.5754%,65.3635%,58.6923%,1)"/>
  <circle cx="9" cy="10" r="1" fill="srgba(51.7327%,74.4457%,69.5262%,1)"/>
  <circle cx="10" cy="10" r="1" fill="srgba(52.7977%,75.0103%,70.2007%,1)"/>
  <circle cx="11" cy="10" r="1" fill="srgba(42.8595%,69.749%,63.9246%,1)"/>
  <circle cx="12" cy="10" r="1" fill="srgba(2.12711%,48.1849%,38.2055%,1)"/>
  <circle cx="13" cy="10" r="1" fill="srgba(0%,46.9978%,36.791%,1)"/>
  <circle cx="14" cy="10" r="1" fill="srgba(0,120,94,1)"/>
  <circle cx="15" cy="10" r="1" fill="srgba(0,120,94,1)"/>
  <circle cx="0" cy="11" r="1" fill="srgba(0,120,94,1)"/>
  <circle cx="1" cy="11" r="1" fill="srgba(0,120,94,1)"/>
  <circle cx="2" cy="11" r="1" fill="srgba(0%,46.9108%,36.6857%,1)"/>
  <circle cx="3" cy="11" r="1" fill="srgba(4.63569%,49.5125%,39.7894%,1)"/>
  <circle cx="4" cy="11" r="1" fill="srgba(30.4753%,63.1937%,56.1028%,1)"/>
  <circle cx="5" cy="11" r="1" fill="srgba(42.7649%,69.6986%,63.8636%,1)"/>
  <circle cx="6" cy="11" r="1" fill="srgba(56.2036%,76.8139%,72.3476%,1)"/>
  <circle cx="7" cy="11" r="1" fill="srgba(50.3944%,73.7377%,68.6748%,1)"/>
  <circle cx="8" cy="11" r="1" fill="srgba(50.3944%,73.7377%,68.6763%,1)"/>
  <circle cx="9" cy="11" r="1" fill="srgba(56.2127%,76.8185%,72.3537%,1)"/>
  <circle cx="10" cy="11" r="1" fill="srgba(42.7604%,69.6956%,63.8621%,1)"/>
  <circle cx="11" cy="11" r="1" fill="srgba(30.4692%,63.1891%,56.0998%,1)"/>
  <circle cx="12" cy="11" r="1" fill="srgba(4.62806%,49.5079%,39.7848%,1)"/>
  <circle cx="13" cy="11" r="1" fill="srgba(0%,46.9108%,36.6857%,1)"/>
  <circle cx="14" cy="11" r="1" fill="srgba(0,120,94,1)"/>
  <circle cx="15" cy="11" r="1" fill="srgba(0,120,94,1)"/>
  <circle cx="0" cy="12" r="1" fill="srgba(0,120,94,1)"/>
  <circle cx="1" cy="12" r="1" fill="srgba(0,120,94,1)"/>
  <circle cx="2" cy="12" r="1" fill="srgba(0%,47.013%,36.8078%,1)"/>
  <circle cx="3" cy="12" r="1" fill="srgba(1.59304%,47.9026%,37.8683%,1)"/>
  <circle cx="4" cy="12" r="1" fill="srgba(13.9986%,54.4701%,45.7008%,1)"/>
  <circle cx="5" cy="12" r="1" fill="srgba(10.7103%,52.7291%,43.624%,1)"/>
  <circle cx="6" cy="12" r="1" fill="srgba(21.0086%,58.1811%,50.1259%,1)"/>
  <circle cx="7" cy="12" r="1" fill="srgba(37.1572%,66.7308%,60.3189%,1)"/>
  <circle cx="8" cy="12" r="1" fill="srgba(37.1511%,66.7277%,60.3159%,1)"/>
  <circle cx="9" cy="12" r="1" fill="srgba(21.004%,58.1796%,50.1244%,1)"/>
  <circle cx="10" cy="12" r="1" fill="srgba(10.7134%,52.7306%,43.6271%,1)"/>
  <circle cx="11" cy="12" r="1" fill="srgba(13.9971%,54.4701%,45.6992%,1)"/>
  <circle cx="12" cy="12" r="1" fill="srgba(1.58846%,47.8996%,37.8653%,1)"/>
  <circle cx="13" cy="12" r="1" fill="srgba(0%,47.013%,36.8078%,1)"/>
  <circle cx="14" cy="12" r="1" fill="srgba(0,120,94,1)"/>
  <circle cx="15" cy="12" r="1" fill="srgba(0,120,94,1)"/>
  <circle cx="0" cy="13" r="1" fill="srgba(0,120,94,1)"/>
  <circle cx="1" cy="13" r="1" fill="srgba(0,120,94,1)"/>
  <circle cx="2" cy="13" r="1" fill="srgba(0%,47.0603%,36.8658%,1)"/>
  <circle cx="3" cy="13" r="1" fill="srgba(0%,46.9657%,36.7529%,1)"/>
  <circle cx="4" cy="13" r="1" fill="srgba(3.51263%,48.8151%,38.9578%,1)"/>
  <circle cx="5" cy="13" r="1" fill="srgba(7.24193%,50.9056%,41.4511%,1)"/>
  <circle cx="6" cy="13" r="1" fill="srgba(1.40841%,47.5639%,37.4655%,1)"/>
  <circle cx="7" cy="13" r="1" fill="srgba(3.38293%,48.3558%,38.407%,1)"/>
  <circle cx="8" cy="13" r="1" fill="srgba(3.38293%,48.3558%,38.407%,1)"/>
  <circle cx="9" cy="13" r="1" fill="srgba(1.40993%,47.5654%,37.467%,1)"/>
  <circle cx="10" cy="13" r="1" fill="srgba(7.24193%,50.9071%,41.4527%,1)"/>
  <circle cx="11" cy="13" r="1" fill="srgba(3.50958%,48.8136%,38.9563%,1)"/>
  <circle cx="12" cy="13" r="1" fill="srgba(0%,46.9657%,36.7529%,1)"/>
  <circle cx="13" cy="13" r="1" fill="srgba(0%,47.0603%,36.8658%,1)"/>
  <circle cx="14" cy="13" r="1" fill="srgba(0,120,94,1)"/>
  <circle cx="15" cy="13" r="1" fill="srgba(0,120,94,1)"/>
  <circle cx="0" cy="14" r="1" fill="srgba(0,120,94,1)"/>
  <circle cx="1" cy="14" r="1" fill="srgba(0,120,94,1)"/>
  <circle cx="2" cy="14" r="1" fill="srgba(0,120,94,1)"/>
  <circle cx="3" cy="14" r="1" fill="srgba(0%,47.0634%,36.8673%,1)"/>
  <circle cx="4" cy="14" r="1" fill="srgba(0%,46.9551%,36.7391%,1)"/>
  <circle cx="5" cy="14" r="1" fill="srgba(0%,46.8696%,36.6369%,1)"/>
  <circle cx="6" cy="14" r="1" fill="srgba(0%,46.9261%,36.7056%,1)"/>
  <circle cx="7" cy="14" r="1" fill="srgba(3.12352%,48.7144%,38.8373%,1)"/>
  <circle cx="8" cy="14" r="1" fill="srgba(3.12352%,48.7144%,38.8373%,1)"/>
  <circle cx="9" cy="14" r="1" fill="srgba(0%,46.9261%,36.7056%,1)"/>
  <circle cx="10" cy="14" r="1" fill="srgba(0%,46.8696%,36.6369%,1)"/>
  <circle cx="11" cy="14" r="1" fill="srgba(0%,46.9551%,36.7391%,1)"/>
  <circle cx="12" cy="14" r="1" fill="srgba(0%,47.0634%,36.8673%,1)"/>
  <circle cx="13" cy="14" r="1" fill="srgba(0,120,94,1)"/>
  <circle cx="14" cy="14" r="1" fill="srgba(0,120,94,1)"/>
  <circle cx="15" cy="14" r="1" fill="srgba(0,120,94,1)"/>
  <circle cx="0" cy="15" r="1" fill="srgba(0,120,94,1)"/>
  <circle cx="1" cy="15" r="1" fill="srgba(0,120,94,1)"/>
  <circle cx="2" cy="15" r="1" fill="srgba(0,120,94,1)"/>
  <circle cx="3" cy="15" r="1" fill="srgba(0,120,94,1)"/>
  <circle cx="4" cy="15" r="1" fill="srgba(0,120,94,1)"/>
  <circle cx="5" cy="15" r="1" fill="srgba(0,120,94,1)"/>
  <circle cx="6" cy="15" r="1" fill="srgba(0%,46.9627%,36.7483%,1)"/>
  <circle cx="7" cy="15" r="1" fill="srgba(2.81834%,48.5512%,38.6435%,1)"/>
  <circle cx="8" cy="15" r="1" fill="srgba(2.81682%,48.5512%,38.6419%,1)"/>
  <circle cx="9" cy="15" r="1" fill="srgba(0%,46.9627%,36.7483%,1)"/>
  <circle cx="10" cy="15" r="1" fill="srgba(0,120,94,1)"/>
  <circle cx="11" cy="15" r="1" fill="srgba(0,120,94,1)"/>
  <circle cx="12" cy="15" r="1" fill="srgba(0,120,94,1)"/>
  <circle cx="13" cy="15" r="1" fill="srgba(0,120,94,1)"/>
  <circle cx="14" cy="15" r="1" fill="srgba(0,120,94,1)"/>
  <circle cx="15" cy="15" r="1" fill="srgba(0,120,94,1)"/>
</svg>
