<?xml version="1.0" standalone="no"?>
<!DOCTYPE svg PUBLIC "-//W3C//DTD SVG 20010904//EN"
  "http://www.w3.org/TR/2001/REC-SVG-20010904/DTD/svg10.dtd">
<svg width="16" height="16">
  <circle cx="0" cy="0" r="1" fill="srgba(15.3552%,31.1482%,49.3385%,1)"/>
  <circle cx="1" cy="0" r="1" fill="srgba(15.5398%,31.2123%,49.3782%,1)"/>
  <circle cx="2" cy="0" r="1" fill="srgba(16.6552%,30.7027%,48.2856%,1)"/>
  <circle cx="3" cy="0" r="1" fill="srgba(16.9207%,30.7546%,48.3207%,1)"/>
  <circle cx="4" cy="0" r="1" fill="srgba(20.0168%,28.9097%,44.509%,1)"/>
  <circle cx="5" cy="0" r="1" fill="srgba(22.446%,28.127%,42.118%,1)"/>
  <circle cx="6" cy="0" r="1" fill="srgba(25.7572%,29.2073%,39.8245%,1)"/>
  <circle cx="7" cy="0" r="1" fill="srgba(25.3712%,26.6117%,43.0243%,1)"/>
  <circle cx="8" cy="0" r="1" fill="srgba(27.7607%,25.5497%,37.6013%,1)"/>
  <circle cx="9" cy="0" r="1" fill="srgba(24.8432%,28.4169%,41.1414%,1)"/>
  <circle cx="10" cy="0" r="1" fill="srgba(25.1591%,27.7394%,39.5224%,1)"/>
  <circle cx="11" cy="0" r="1" fill="srgba(21.8509%,29.4804%,43.0838%,1)"/>
  <circle cx="12" cy="0" r="1" fill="srgba(18.0682%,31.8135%,48.014%,1)"/>
  <circle cx="13" cy="0" r="1" fill="srgba(15.9777%,32.639%,52.5811%,1)"/>
  <circle cx="14" cy="0" r="1" fill="srgba(14.464%,32.4727%,52.1309%,1)"/>
  <circle cx="15" cy="0" r="1" fill="srgba(14.1253%,32.3339%,50.7698%,1)"/>
  <circle cx="0" cy="1" r="1" fill="srgba(14.6654%,31.9509%,50.7393%,1)"/>
  <circle cx="1" cy="1" r="1" fill="srgba(17.1527%,30.2358%,47.4525%,1)"/>
  <circle cx="2" cy="1" r="1" fill="srgba(19.1287%,29.0822%,44.8615%,1)"/>
  <circle cx="3" cy="1" r="1" fill="srgba(20.2686%,28.069%,43.8529%,1)"/>
  <circle cx="4" cy="1" r="1" fill="srgba(31.635%,28.368%,34.1283%,1)"/>
  <circle cx="5" cy="1" r="1" fill="srgba(42.7481%,32.0424%,23.418%,1)"/>
  <circle cx="6" cy="1" r="1" fill="srgba(53.3989%,39.6567%,18.2177%,1)"/>
  <circle cx="7" cy="1" r="1" fill="srgba(44.6586%,36.6644%,24.2496%,1)"/>
  <circle cx="8" cy="1" r="1" fill="srgba(24.448%,27.8355%,16.8811%,1)"/>
  <circle cx="9" cy="1" r="1" fill="srgba(29.7368%,31.5358%,12.5154%,1)"/>
  <circle cx="10" cy="1" r="1" fill="srgba(48.8136%,33.4432%,16.3256%,1)"/>
  <circle cx="11" cy="1" r="1" fill="srgba(50.8064%,40.4883%,24.3351%,1)"/>
  <circle cx="12" cy="1" r="1" fill="srgba(51.4015%,46.9352%,25.5283%,1)"/>
  <circle cx="13" cy="1" r="1" fill="srgba(47.6356%,44.9134%,29.485%,1)"/>
  <circle cx="14" cy="1" r="1" fill="srgba(50.5501%,48.957%,32.4575%,1)"/>
  <circle cx="15" cy="1" r="1" fill="srgba(53.1899%,54.7234%,36.1593%,1)"/>
  <circle cx="0" cy="2" r="1" fill="srgba(15.8434%,31.3329%,49.5216%,1)"/>
  <circle cx="1" cy="2" r="1" fill="srgba(18.6755%,29.4774%,45.8534%,1)"/>
  <circle cx="2" cy="2" r="1" fill="srgba(23.4531%,25.4902%,44.9287%,1)"/>
  <circle cx="3" cy="2" r="1" fill="srgba(31.664%,22.4399%,41.3733%,1)"/>
  <circle cx="4" cy="2" r="1" fill="srgba(42.7771%,33.0495%,31.0094%,1)"/>
  <circle cx="5" cy="2" r="1" fill="srgba(51.9921%,47.9622%,34.2046%,1)"/>
  <circle cx="6" cy="2" r="1" fill="srgba(56.5133%,54.7768%,38.9532%,1)"/>
  <circle cx="7" cy="2" r="1" fill="srgba(47.0146%,48.1254%,50.0313%,1)"/>
  <circle cx="8" cy="2" r="1" fill="srgba(36.3912%,41.3809%,38.2544%,1)"/>
  <circle cx="9" cy="2" r="1" fill="srgba(42.7344%,42.9191%,32.105%,1)"/>
  <circle cx="10" cy="2" r="1" fill="srgba(63.5996%,43.6179%,23.4943%,1)"/>
  <circle cx="11" cy="2" r="1" fill="srgba(56.6995%,39.1287%,20.9735%,1)"/>
  <circle cx="12" cy="2" r="1" fill="srgba(63.1861%,41.6617%,12.1096%,1)"/>
  <circle cx="13" cy="2" r="1" fill="srgba(67.3732%,46.1173%,15.761%,1)"/>
  <circle cx="14" cy="2" r="1" fill="srgba(74.2489%,52.842%,17.673%,1)"/>
  <circle cx="15" cy="2" r="1" fill="srgba(84.1352%,59.0845%,15.1858%,1)"/>
  <circle cx="0" cy="3" r="1" fill="srgba(15.4055%,31.9921%,50.7958%,1)"/>
  <circle cx="1" cy="3" r="1" fill="srgba(20.531%,28.452%,43.7369%,1)"/>
  <circle cx="2" cy="3" r="1" fill="srgba(31.0582%,22.0523%,42.1378%,1)"/>
  <circle cx="3" cy="3" r="1" fill="srgba(46.1357%,30.4921%,38.7152%,1)"/>
  <circle cx="4" cy="3" r="1" fill="srgba(39.7101%,43.7568%,47.5959%,1)"/>
  <circle cx="5" cy="3" r="1" fill="srgba(56.4004%,61.8372%,58.3017%,1)"/>
  <circle cx="6" cy="3" r="1" fill="srgba(82.6078%,77.6776%,53.1472%,1)"/>
  <circle cx="7" cy="3" r="1" fill="srgba(75.9213%,74.5327%,78.8815%,1)"/>
  <circle cx="8" cy="3" r="1" fill="srgba(69.7856%,67.7409%,74.6105%,1)"/>
  <circle cx="9" cy="3" r="1" fill="srgba(68.5756%,64.0116%,59.1073%,1)"/>
  <circle cx="10" cy="3" r="1" fill="srgba(65.6367%,60.734%,45.6336%,1)"/>
  <circle cx="11" cy="3" r="1" fill="srgba(57.6791%,53.3715%,33.4157%,1)"/>
  <circle cx="12" cy="3" r="1" fill="srgba(66.1006%,48.4428%,19.5804%,1)"/>
  <circle cx="13" cy="3" r="1" fill="srgba(62.0279%,40.708%,30.7759%,1)"/>
  <circle cx="14" cy="3" r="1" fill="srgba(67.4083%,46.3325%,35.2407%,1)"/>
  <circle cx="15" cy="3" r="1" fill="srgba(65.9281%,48.365%,36.1151%,1)"/>
  <circle cx="0" cy="4" r="1" fill="srgba(17.3754%,30.2037%,48.072%,1)"/>
  <circle cx="1" cy="4" r="1" fill="srgba(26.5644%,28.6793%,37.9522%,1)"/>
  <circle cx="2" cy="4" r="1" fill="srgba(48.6336%,38.7274%,19.1989%,1)"/>
  <circle cx="3" cy="4" r="1" fill="srgba(47.3503%,49.6651%,45.6992%,1)"/>
  <circle cx="4" cy="4" r="1" fill="srgba(67.1672%,73.5546%,77.8134%,1)"/>
  <circle cx="5" cy="4" r="1" fill="srgba(86.6209%,88.3665%,71.7647%,1)"/>
  <circle cx="6" cy="4" r="1" fill="srgba(87.0649%,86.8406%,49.9672%,1)"/>
  <circle cx="7" cy="4" r="1" fill="srgba(81.7472%,84.5289%,78.7106%,1)"/>
  <circle cx="8" cy="4" r="1" fill="srgba(69.1157%,71.8761%,68.9281%,1)"/>
  <circle cx="9" cy="4" r="1" fill="srgba(61.1627%,62.6184%,42.2248%,1)"/>
  <circle cx="10" cy="4" r="1" fill="srgba(76.2387%,76.2676%,46.186%,1)"/>
  <circle cx="11" cy="4" r="1" fill="srgba(72.5994%,69.6803%,33.1518%,1)"/>
  <circle cx="12" cy="4" r="1" fill="srgba(57.2656%,58.8037%,24.0436%,1)"/>
  <circle cx="13" cy="4" r="1" fill="srgba(40.3342%,33.7194%,28.0018%,1)"/>
  <circle cx="14" cy="4" r="1" fill="srgba(45.5192%,32.7993%,32.8817%,1)"/>
  <circle cx="15" cy="4" r="1" fill="srgba(46.4134%,33.7667%,29.659%,1)"/>
  <circle cx="0" cy="5" r="1" fill="srgba(22.4628%,28.2918%,43.6255%,1)"/>
  <circle cx="1" cy="5" r="1" fill="srgba(35.3979%,27.3198%,27.364%,1)"/>
  <circle cx="2" cy="5" r="1" fill="srgba(58.6816%,51.6091%,17.2671%,1)"/>
  <circle cx="3" cy="5" r="1" fill="srgba(69.9092%,65.5314%,62.3346%,1)"/>
  <circle cx="4" cy="5" r="1" fill="srgba(75.7%,76.1364%,74.0826%,1)"/>
  <circle cx="5" cy="5" r="1" fill="srgba(74.0963%,77.0672%,58.117%,1)"/>
  <circle cx="6" cy="5" r="1" fill="srgba(75.2331%,76.701%,39.2065%,1)"/>
  <circle cx="7" cy="5" r="1" fill="srgba(79.1379%,83.1022%,76.0494%,1)"/>
  <circle cx="8" cy="5" r="1" fill="srgba(65.6168%,69.1997%,65.3971%,1)"/>
  <circle cx="9" cy="5" r="1" fill="srgba(42.7848%,47.6921%,27.4586%,1)"/>
  <circle cx="10" cy="5" r="1" fill="srgba(45.0889%,51.2306%,25.2033%,1)"/>
  <circle cx="11" cy="5" r="1" fill="srgba(39.646%,47.0878%,28.1697%,1)"/>
  <circle cx="12" cy="5" r="1" fill="srgba(38.7015%,46.2989%,24.1627%,1)"/>
  <circle cx="13" cy="5" r="1" fill="srgba(25.9937%,35.2132%,18.6877%,1)"/>
  <circle cx="14" cy="5" r="1" fill="srgba(16.8795%,39.7208%,6.23331%,1)"/>
  <circle cx="15" cy="5" r="1" fill="srgba(17.5647%,40.206%,5.34218%,1)"/>
  <circle cx="0" cy="6" r="1" fill="srgba(23.7507%,27.1412%,44.9119%,1)"/>
  <circle cx="1" cy="6" r="1" fill="srgba(46.4118%,31.7906%,26.2989%,1)"/>
  <circle cx="2" cy="6" r="1" fill="srgba(69.7292%,60.4608%,23.4119%,1)"/>
  <circle cx="3" cy="6" r="1" fill="srgba(66.9398%,59.8032%,49.5018%,1)"/>
  <circle cx="4" cy="6" r="1" fill="srgba(77.6745%,72.137%,58.1033%,1)"/>
  <circle cx="5" cy="6" r="1" fill="srgba(89.044%,83.2868%,60.6577%,1)"/>
  <circle cx="6" cy="6" r="1" fill="srgba(89.4209%,84.1245%,56.936%,1)"/>
  <circle cx="7" cy="6" r="1" fill="srgba(96.1227%,95.2071%,93.0709%,1)"/>
  <circle cx="8" cy="6" r="1" fill="srgba(89.6437%,89.1112%,89.2027%,1)"/>
  <circle cx="9" cy="6" r="1" fill="srgba(71.4504%,69.366%,63.5645%,1)"/>
  <circle cx="10" cy="6" r="1" fill="srgba(69.5781%,67.3442%,64.3931%,1)"/>
  <circle cx="11" cy="6" r="1" fill="srgba(57.9202%,55.111%,60.6729%,1)"/>
  <circle cx="12" cy="6" r="1" fill="srgba(60.4105%,53.4157%,47.8386%,1)"/>
  <circle cx="13" cy="6" r="1" fill="srgba(44.4144%,43.6866%,42.1775%,1)"/>
  <circle cx="14" cy="6" r="1" fill="srgba(17.7829%,44.4099%,6.44388%,1)"/>
  <circle cx="15" cy="6" r="1" fill="srgba(14.6044%,46.2104%,2.04776%,1)"/>
  <circle cx="0" cy="7" r="1" fill="srgba(30.7408%,30.2876%,64.5914%,1)"/>
  <circle cx="1" cy="7" r="1" fill="srgba(63.9796%,45.0004%,52.221%,1)"/>
  <circle cx="2" cy="7" r="1" fill="srgba(61.4847%,51.2322%,38.1613%,1)"/>
  <circle cx="3" cy="7" r="1" fill="srgba(23.769%,34.7341%,65.0538%,1)"/>
  <circle cx="4" cy="7" r="1" fill="srgba(29.4682%,45.8228%,72.5963%,1)"/>
  <circle cx="5" cy="7" r="1" fill="srgba(76.0281%,80.4486%,86.9474%,1)"/>
  <circle cx="6" cy="7" r="1" fill="srgba(97.2641%,97.4762%,96.6873%,1)"/>
  <circle cx="7" cy="7" r="1" fill="srgba(99.617%,99.6246%,99.5285%,1)"/>
  <circle cx="8" cy="7" r="1" fill="srgba(99.9603%,99.9466%,99.8825%,1)"/>
  <circle cx="9" cy="7" r="1" fill="srgba(98.5504%,98.5672%,98.1582%,1)"/>
  <circle cx="10" cy="7" r="1" fill="srgba(82.4369%,80.8637%,83.4394%,1)"/>
  <circle cx="11" cy="7" r="1" fill="srgba(58.4237%,55.1949%,60.7538%,1)"/>
  <circle cx="12" cy="7" r="1" fill="srgba(62.2614%,55.3155%,45.3056%,1)"/>
  <circle cx="13" cy="7" r="1" fill="srgba(56.2341%,49.07%,47.9149%,1)"/>
  <circle cx="14" cy="7" r="1" fill="srgba(41.4725%,35.5993%,22.945%,1)"/>
  <circle cx="15" cy="7" r="1" fill="srgba(34.7341%,31.6716%,18.7381%,1)"/>
  <circle cx="0" cy="8" r="1" fill="srgba(41.6663%,17.4548%,67.7455%,1)"/>
  <circle cx="1" cy="8" r="1" fill="srgba(50.8949%,44.3046%,42.1714%,1)"/>
  <circle cx="2" cy="8" r="1" fill="srgba(56.6171%,53.2876%,40.5097%,1)"/>
  <circle cx="3" cy="8" r="1" fill="srgba(18.8449%,35.0439%,66.3157%,1)"/>
  <circle cx="4" cy="8" r="1" fill="srgba(4.42512%,37.9049%,72.6909%,1)"/>
  <circle cx="5" cy="8" r="1" fill="srgba(17.2641%,49.4957%,69.9931%,1)"/>
  <circle cx="6" cy="8" r="1" fill="srgba(82.3713%,87.2724%,85.037%,1)"/>
  <circle cx="7" cy="8" r="1" fill="white"/>
  <circle cx="8" cy="8" r="1" fill="white"/>
  <circle cx="9" cy="8" r="1" fill="srgba(86.5553%,85.3895%,76.9543%,1)"/>
  <circle cx="10" cy="8" r="1" fill="srgba(59.5483%,57.2213%,51.9707%,1)"/>
  <circle cx="11" cy="8" r="1" fill="srgba(53.7728%,51.6106%,55.407%,1)"/>
  <circle cx="12" cy="8" r="1" fill="srgba(64.7044%,57.8958%,43.0686%,1)"/>
  <circle cx="13" cy="8" r="1" fill="srgba(56.347%,50.5455%,47.5196%,1)"/>
  <circle cx="14" cy="8" r="1" fill="srgba(32.6268%,36.3806%,22.2217%,1)"/>
  <circle cx="15" cy="8" r="1" fill="srgba(29.0272%,40.647%,24.8829%,1)"/>
  <circle cx="0" cy="9" r="1" fill="srgba(42.6658%,19.3637%,66.4729%,1)"/>
  <circle cx="1" cy="9" r="1" fill="srgba(23.6866%,40.473%,17.8088%,1)"/>
  <circle cx="2" cy="9" r="1" fill="srgba(21.5061%,47.538%,8.0827%,1)"/>
  <circle cx="3" cy="9" r="1" fill="srgba(12.4453%,42.4353%,19.1501%,1)"/>
  <circle cx="4" cy="9" r="1" fill="srgba(5.26284%,41.2253%,29.5323%,1)"/>
  <circle cx="5" cy="9" r="1" fill="srgba(14.1863%,45.4673%,42.4521%,1)"/>
  <circle cx="6" cy="9" r="1" fill="srgba(84.3977%,88.249%,85.333%,1)"/>
  <circle cx="7" cy="9" r="1" fill="srgba(86.3127%,90.2083%,93.1441%,1)"/>
  <circle cx="8" cy="9" r="1" fill="srgba(90.2144%,91.9127%,93.6172%,1)"/>
  <circle cx="9" cy="9" r="1" fill="srgba(89.5033%,88.0293%,78.381%,1)"/>
  <circle cx="10" cy="9" r="1" fill="srgba(59.5087%,57.8286%,49.8543%,1)"/>
  <circle cx="11" cy="9" r="1" fill="srgba(54.7524%,54.0536%,55.0256%,1)"/>
  <circle cx="12" cy="9" r="1" fill="srgba(67.1427%,60.5585%,41.1109%,1)"/>
  <circle cx="13" cy="9" r="1" fill="srgba(46.7124%,44.9119%,40.2014%,1)"/>
  <circle cx="14" cy="9" r="1" fill="srgba(30.8675%,29.8878%,32.7489%,1)"/>
  <circle cx="15" cy="9" r="1" fill="srgba(52.2774%,46.7704%,56.8338%,1)"/>
  <circle cx="0" cy="10" r="1" fill="srgba(35.7763%,20.3037%,71.3405%,1)"/>
  <circle cx="1" cy="10" r="1" fill="srgba(40.795%,47.8523%,42.8412%,1)"/>
  <circle cx="2" cy="10" r="1" fill="srgba(57.8866%,58.9014%,35.3292%,1)"/>
  <circle cx="3" cy="10" r="1" fill="srgba(43.7018%,56.35%,57.2244%,1)"/>
  <circle cx="4" cy="10" r="1" fill="srgba(3.15862%,42.5223%,56.144%,1)"/>
  <circle cx="5" cy="10" r="1" fill="srgba(25.2338%,53.3791%,63.6088%,1)"/>
  <circle cx="6" cy="10" r="1" fill="srgba(61.7395%,75.288%,82.2705%,1)"/>
  <circle cx="7" cy="10" r="1" fill="srgba(20.177%,50.338%,70.4891%,1)"/>
  <circle cx="8" cy="10" r="1" fill="srgba(46.1219%,55.1354%,61.8601%,1)"/>
  <circle cx="9" cy="10" r="1" fill="srgba(68.8334%,76.2783%,79.8611%,1)"/>
  <circle cx="10" cy="10" r="1" fill="srgba(60.7248%,59.7787%,58.7106%,1)"/>
  <circle cx="11" cy="10" r="1" fill="srgba(54.9447%,54.0856%,54.7417%,1)"/>
  <circle cx="12" cy="10" r="1" fill="srgba(67.2251%,60.0031%,37.7203%,1)"/>
  <circle cx="13" cy="10" r="1" fill="srgba(48.397%,43.6301%,33.6507%,1)"/>
  <circle cx="14" cy="10" r="1" fill="srgba(49.0364%,41.8677%,47.068%,1)"/>
  <circle cx="15" cy="10" r="1" fill="srgba(53.5912%,48.7663%,57.7615%,1)"/>
  <circle cx="0" cy="11" r="1" fill="srgba(25.5497%,21.3397%,72.7535%,1)"/>
  <circle cx="1" cy="11" r="1" fill="srgba(41.503%,53.5195%,52.1843%,1)"/>
  <circle cx="2" cy="11" r="1" fill="srgba(80.8225%,68.1666%,37.6455%,1)"/>
  <circle cx="3" cy="11" r="1" fill="srgba(70.8034%,67.2007%,71.6655%,1)"/>
  <circle cx="4" cy="11" r="1" fill="srgba(23.6378%,51.8379%,71.8868%,1)"/>
  <circle cx="5" cy="11" r="1" fill="srgba(17.0687%,46.6484%,62.5513%,1)"/>
  <circle cx="6" cy="11" r="1" fill="srgba(12.8038%,45.8946%,61.7884%,1)"/>
  <circle cx="7" cy="11" r="1" fill="srgba(7.45556%,40.5463%,63.4882%,1)"/>
  <circle cx="8" cy="11" r="1" fill="srgba(32.369%,43.5172%,52.4331%,1)"/>
  <circle cx="9" cy="11" r="1" fill="srgba(25.4292%,47.2816%,53.1991%,1)"/>
  <circle cx="10" cy="11" r="1" fill="srgba(54.8669%,53.7957%,46.717%,1)"/>
  <circle cx="11" cy="11" r="1" fill="srgba(50.0008%,49.369%,50.3899%,1)"/>
  <circle cx="12" cy="11" r="1" fill="srgba(57.9446%,49.5155%,30.0542%,1)"/>
  <circle cx="13" cy="11" r="1" fill="srgba(52.7413%,45.4658%,35.5688%,1)"/>
  <circle cx="14" cy="11" r="1" fill="srgba(55.0927%,47.1672%,48.069%,1)"/>
  <circle cx="15" cy="11" r="1" fill="srgba(51.2047%,47.3289%,54.9386%,1)"/>
  <circle cx="0" cy="12" r="1" fill="srgba(19.1897%,26.7308%,73.0861%,1)"/>
  <circle cx="1" cy="12" r="1" fill="srgba(35.3124%,50.193%,47.0008%,1)"/>
  <circle cx="2" cy="12" r="1" fill="srgba(66.1784%,61.6342%,38.4588%,1)"/>
  <circle cx="3" cy="12" r="1" fill="srgba(58.5779%,45.716%,44.4099%,1)"/>
  <circle cx="4" cy="12" r="1" fill="srgba(63.5279%,60.5493%,58.7411%,1)"/>
  <circle cx="5" cy="12" r="1" fill="srgba(63.7461%,71.0613%,71.5312%,1)"/>
  <circle cx="6" cy="12" r="1" fill="srgba(12.7077%,45.301%,60.441%,1)"/>
  <circle cx="7" cy="12" r="1" fill="srgba(10.3777%,41.5473%,62.9007%,1)"/>
  <circle cx="8" cy="12" r="1" fill="srgba(34.9142%,44.686%,52.7382%,1)"/>
  <circle cx="9" cy="12" r="1" fill="srgba(21.4923%,46.276%,50.8659%,1)"/>
  <circle cx="10" cy="12" r="1" fill="srgba(53.6858%,52.5414%,42.533%,1)"/>
  <circle cx="11" cy="12" r="1" fill="srgba(49.1234%,43.2639%,39.1058%,1)"/>
  <circle cx="12" cy="12" r="1" fill="srgba(60.0305%,46.7338%,24.9424%,1)"/>
  <circle cx="13" cy="12" r="1" fill="srgba(56.5866%,46.2043%,37.0596%,1)"/>
  <circle cx="14" cy="12" r="1" fill="srgba(55.1247%,45.214%,45.948%,1)"/>
  <circle cx="15" cy="12" r="1" fill="srgba(51.4916%,47.6829%,54.7295%,1)"/>
  <circle cx="0" cy="13" r="1" fill="srgba(9.93668%,34.2535%,74.0627%,1)"/>
  <circle cx="1" cy="13" r="1" fill="srgba(34.9691%,55.6786%,49.9779%,1)"/>
  <circle cx="2" cy="13" r="1" fill="srgba(42.7527%,58.7457%,43.8956%,1)"/>
  <circle cx="3" cy="13" r="1" fill="srgba(32.5826%,31.0124%,43.2456%,1)"/>
  <circle cx="4" cy="13" r="1" fill="srgba(59.9588%,38.6069%,31.3603%,1)"/>
  <circle cx="5" cy="13" r="1" fill="srgba(65.6413%,56.1868%,48.8075%,1)"/>
  <circle cx="6" cy="13" r="1" fill="srgba(11.4595%,44.2908%,61.3901%,1)"/>
  <circle cx="7" cy="13" r="1" fill="srgba(14.4457%,45.0629%,66.0258%,1)"/>
  <circle cx="8" cy="13" r="1" fill="srgba(39.057%,48.5817%,56.5026%,1)"/>
  <circle cx="9" cy="13" r="1" fill="srgba(20.058%,47.1427%,53.9513%,1)"/>
  <circle cx="10" cy="13" r="1" fill="srgba(51.6197%,44.622%,31.1009%,1)"/>
  <circle cx="11" cy="13" r="1" fill="srgba(53.1838%,36.788%,28.6168%,1)"/>
  <circle cx="12" cy="13" r="1" fill="srgba(66.6285%,60.5859%,33.0251%,1)"/>
  <circle cx="13" cy="13" r="1" fill="srgba(55.9335%,55.0927%,47.0787%,1)"/>
  <circle cx="14" cy="13" r="1" fill="srgba(53.3303%,49.2699%,51.31%,1)"/>
  <circle cx="15" cy="13" r="1" fill="srgba(48.5344%,48.0186%,56.2783%,1)"/>
  <circle cx="0" cy="14" r="1" fill="srgba(1.13985%,41.7197%,74.5647%,1)"/>
  <circle cx="1" cy="14" r="1" fill="srgba(33.637%,55.8007%,50.5531%,1)"/>
  <circle cx="2" cy="14" r="1" fill="srgba(37.322%,57.0016%,47.364%,1)"/>
  <circle cx="3" cy="14" r="1" fill="srgba(24.3824%,29.3797%,45.2766%,1)"/>
  <circle cx="4" cy="14" r="1" fill="srgba(33.0114%,34.2214%,43.2059%,1)"/>
  <circle cx="5" cy="14" r="1" fill="srgba(26.0029%,50.7576%,64.7532%,1)"/>
  <circle cx="6" cy="14" r="1" fill="srgba(7.23888%,43.5035%,63.5416%,1)"/>
  <circle cx="7" cy="14" r="1" fill="srgba(18.1811%,45.4459%,64.2054%,1)"/>
  <circle cx="8" cy="14" r="1" fill="srgba(40.1495%,48.9021%,56.3729%,1)"/>
  <circle cx="9" cy="14" r="1" fill="srgba(18.114%,47.9347%,55.8541%,1)"/>
  <circle cx="10" cy="14" r="1" fill="srgba(22.9923%,42.562%,49.0257%,1)"/>
  <circle cx="11" cy="14" r="1" fill="srgba(50.7851%,41.9028%,24.8005%,1)"/>
  <circle cx="12" cy="14" r="1" fill="srgba(51.075%,60.3388%,36.3531%,1)"/>
  <circle cx="13" cy="14" r="1" fill="srgba(20.7889%,49.0272%,59.1348%,1)"/>
  <circle cx="14" cy="14" r="1" fill="srgba(20.5493%,43.4592%,62.4857%,1)"/>
  <circle cx="15" cy="14" r="1" fill="srgba(10.8949%,41.3123%,68.1422%,1)"/>
  <circle cx="0" cy="15" r="1" fill="srgba(0%,43.9185%,74.5388%,1)"/>
  <circle cx="1" cy="15" r="1" fill="srgba(28.2856%,55.1858%,53.8506%,1)"/>
  <circle cx="2" cy="15" r="1" fill="srgba(18.4527%,51.162%,61.1414%,1)"/>
  <circle cx="3" cy="15" r="1" fill="srgba(22.0905%,29.604%,46.7796%,1)"/>
  <circle cx="4" cy="15" r="1" fill="srgba(20.4288%,32.0287%,47.0085%,1)"/>
  <circle cx="5" cy="15" r="1" fill="srgba(4.13825%,44.8631%,70.1289%,1)"/>
  <circle cx="6" cy="15" r="1" fill="srgba(5.73739%,45.6199%,68.1331%,1)"/>
  <circle cx="7" cy="15" r="1" fill="srgba(21.5854%,45.8885%,62.7512%,1)"/>
  <circle cx="8" cy="15" r="1" fill="srgba(40.8377%,49.16%,56.3943%,1)"/>
  <circle cx="9" cy="15" r="1" fill="srgba(18.0529%,50.3655%,59.4324%,1)"/>
  <circle cx="10" cy="15" r="1" fill="srgba(18.2254%,45.7099%,56.6781%,1)"/>
  <circle cx="11" cy="15" r="1" fill="srgba(50.7973%,45.745%,26.3645%,1)"/>
  <circle cx="12" cy="15" r="1" fill="srgba(51.5053%,61.9776%,36.0861%,1)"/>
  <circle cx="13" cy="15" r="1" fill="srgba(14.0215%,49.0547%,64.0986%,1)"/>
  <circle cx="14" cy="15" r="1" fill="srgba(10.8461%,42.6581%,69.5247%,1)"/>
  <circle cx="15" cy="15" r="1" fill="srgba(2.69932%,41.6587%,74.2565%,1)"/>
</svg>
