<?xml version="1.0" standalone="no"?>
<!DOCTYPE svg PUBLIC "-//W3C//DTD SVG 20010904//EN"
  "http://www.w3.org/TR/2001/REC-SVG-20010904/DTD/svg10.dtd">
<svg width="16" height="16">
  <circle cx="0" cy="0" r="1" fill="srgba(0,98,51,1)"/>
  <circle cx="1" cy="0" r="1" fill="srgba(0,98,51,1)"/>
  <circle cx="2" cy="0" r="1" fill="srgba(0,98,51,1)"/>
  <circle cx="3" cy="0" r="1" fill="srgba(0,98,51,1)"/>
  <circle cx="4" cy="0" r="1" fill="srgba(0,98,51,1)"/>
  <circle cx="5" cy="0" r="1" fill="srgba(0,98,51,1)"/>
  <circle cx="6" cy="0" r="1" fill="srgba(0,98,51,1)"/>
  <circle cx="7" cy="0" r="1" fill="srgba(0,98,51,1)"/>
  <circle cx="8" cy="0" r="1" fill="srgba(0,98,51,1)"/>
  <circle cx="9" cy="0" r="1" fill="srgba(0,98,51,1)"/>
  <circle cx="10" cy="0" r="1" fill="srgba(0,98,51,1)"/>
  <circle cx="11" cy="0" r="1" fill="srgba(0,98,51,1)"/>
  <circle cx="12" cy="0" r="1" fill="srgba(0,98,51,1)"/>
  <circle cx="13" cy="0" r="1" fill="srgba(0,98,51,1)"/>
  <circle cx="14" cy="0" r="1" fill="srgba(0,98,51,1)"/>
  <circle cx="15" cy="0" r="1" fill="srgba(0,98,51,1)"/>
  <circle cx="0" cy="1" r="1" fill="srgba(0,98,51,1)"/>
  <circle cx="1" cy="1" r="1" fill="srgba(0,98,51,1)"/>
  <circle cx="2" cy="1" r="1" fill="srgba(0,98,51,1)"/>
  <circle cx="3" cy="1" r="1" fill="srgba(0,98,51,1)"/>
  <circle cx="4" cy="1" r="1" fill="srgba(0,98,51,1)"/>
  <circle cx="5" cy="1" r="1" fill="srgba(0,98,51,1)"/>
  <circle cx="6" cy="1" r="1" fill="srgba(0%,38.436%,19.9969%,1)"/>
  <circle cx="7" cy="1" r="1" fill="srgba(0%,38.3566%,20.0381%,1)"/>
  <circle cx="8" cy="1" r="1" fill="srgba(0%,38.3566%,20.0381%,1)"/>
  <circle cx="9" cy="1" r="1" fill="srgba(0%,38.436%,19.9969%,1)"/>
  <circle cx="10" cy="1" r="1" fill="srgba(0,98,51,1)"/>
  <circle cx="11" cy="1" r="1" fill="srgba(0,98,51,1)"/>
  <circle cx="12" cy="1" r="1" fill="srgba(0,98,51,1)"/>
  <circle cx="13" cy="1" r="1" fill="srgba(0,98,51,1)"/>
  <circle cx="14" cy="1" r="1" fill="srgba(0,98,51,1)"/>
  <circle cx="15" cy="1" r="1" fill="srgba(0,98,51,1)"/>
  <circle cx="0" cy="2" r="1" fill="srgba(0,98,51,1)"/>
  <circle cx="1" cy="2" r="1" fill="srgba(0,98,51,1)"/>
  <circle cx="2" cy="2" r="1" fill="srgba(0,98,51,1)"/>
  <circle cx="3" cy="2" r="1" fill="srgba(0,98,51,1)"/>
  <circle cx="4" cy="2" r="1" fill="srgba(0,98,51,1)"/>
  <circle cx="5" cy="2" r="1" fill="srgba(0%,38.4253%,20.0031%,1)"/>
  <circle cx="6" cy="2" r="1" fill="srgba(0%,38.1857%,20.1282%,1)"/>
  <circle cx="7" cy="2" r="1" fill="srgba(3.29747%,39.4598%,19.4644%,1)"/>
  <circle cx="8" cy="2" r="1" fill="srgba(3.29747%,39.4598%,19.4644%,1)"/>
  <circle cx="9" cy="2" r="1" fill="srgba(0%,38.1857%,20.1282%,1)"/>
  <circle cx="10" cy="2" r="1" fill="srgba(0%,38.4253%,20.0031%,1)"/>
  <circle cx="11" cy="2" r="1" fill="srgba(0,98,51,1)"/>
  <circle cx="12" cy="2" r="1" fill="srgba(0,98,51,1)"/>
  <circle cx="13" cy="2" r="1" fill="srgba(0,98,51,1)"/>
  <circle cx="14" cy="2" r="1" fill="srgba(0,98,51,1)"/>
  <circle cx="15" cy="2" r="1" fill="srgba(0,98,51,1)"/>
  <circle cx="0" cy="3" r="1" fill="srgba(0,98,51,1)"/>
  <circle cx="1" cy="3" r="1" fill="srgba(0%,38.4329%,19.9985%,1)"/>
  <circle cx="2" cy="3" r="1" fill="srgba(0%,38.4024%,20.0153%,1)"/>
  <circle cx="3" cy="3" r="1" fill="srgba(0%,38.4054%,20.0137%,1)"/>
  <circle cx="4" cy="3" r="1" fill="srgba(0%,38.4268%,20.0031%,1)"/>
  <circle cx="5" cy="3" r="1" fill="srgba(0.204471%,38.5092%,19.9588%,1)"/>
  <circle cx="6" cy="3" r="1" fill="srgba(6.04257%,40.7492%,18.79%,1)"/>
  <circle cx="7" cy="3" r="1" fill="srgba(33.7713%,51.4076%,13.2448%,1)"/>
  <circle cx="8" cy="3" r="1" fill="srgba(33.7636%,51.4046%,13.2464%,1)"/>
  <circle cx="9" cy="3" r="1" fill="srgba(6.04105%,40.7492%,18.79%,1)"/>
  <circle cx="10" cy="3" r="1" fill="srgba(0.204471%,38.5092%,19.9588%,1)"/>
  <circle cx="11" cy="3" r="1" fill="srgba(0%,38.4268%,20.0031%,1)"/>
  <circle cx="12" cy="3" r="1" fill="srgba(0%,38.4054%,20.0137%,1)"/>
  <circle cx="13" cy="3" r="1" fill="srgba(0%,38.4024%,20.0153%,1)"/>
  <circle cx="14" cy="3" r="1" fill="srgba(0%,38.4329%,19.9985%,1)"/>
  <circle cx="15" cy="3" r="1" fill="srgba(0,98,51,1)"/>
  <circle cx="0" cy="4" r="1" fill="srgba(0,98,51,1)"/>
  <circle cx="1" cy="4" r="1" fill="srgba(0%,38.4039%,20.0137%,1)"/>
  <circle cx="2" cy="4" r="1" fill="srgba(1.26955%,38.8769%,19.7681%,1)"/>
  <circle cx="3" cy="4" r="1" fill="srgba(1.11849%,38.8022%,19.8062%,1)"/>
  <circle cx="4" cy="4" r="1" fill="srgba(0%,38.3963%,20.0183%,1)"/>
  <circle cx="5" cy="4" r="1" fill="srgba(0%,38.3444%,20.0458%,1)"/>
  <circle cx="6" cy="4" r="1" fill="srgba(24.564%,47.8508%,15.0866%,1)"/>
  <circle cx="7" cy="4" r="1" fill="srgba(84.0223%,71.043%,3.19524%,1)"/>
  <circle cx="8" cy="4" r="1" fill="srgba(84.0146%,71.0399%,3.19677%,1)"/>
  <circle cx="9" cy="4" r="1" fill="srgba(24.5548%,47.8462%,15.0866%,1)"/>
  <circle cx="10" cy="4" r="1" fill="srgba(0%,38.3444%,20.0458%,1)"/>
  <circle cx="11" cy="4" r="1" fill="srgba(0%,38.3963%,20.0183%,1)"/>
  <circle cx="12" cy="4" r="1" fill="srgba(1.11696%,38.8022%,19.8062%,1)"/>
  <circle cx="13" cy="4" r="1" fill="srgba(1.2665%,38.8754%,19.7681%,1)"/>
  <circle cx="14" cy="4" r="1" fill="srgba(0%,38.4039%,20.0137%,1)"/>
  <circle cx="15" cy="4" r="1" fill="srgba(0,98,51,1)"/>
  <circle cx="0" cy="5" r="1" fill="srgba(0,98,51,1)"/>
  <circle cx="1" cy="5" r="1" fill="srgba(0%,38.1582%,20.1419%,1)"/>
  <circle cx="2" cy="5" r="1" fill="srgba(11.7479%,42.9328%,17.6577%,1)"/>
  <circle cx="3" cy="5" r="1" fill="srgba(11.1101%,42.5574%,17.8515%,1)"/>
  <circle cx="4" cy="5" r="1" fill="srgba(0%,38.1582%,20.1419%,1)"/>
  <circle cx="5" cy="5" r="1" fill="srgba(0%,38.2177%,20.1114%,1)"/>
  <circle cx="6" cy="5" r="1" fill="srgba(8.68544%,41.6526%,18.3246%,1)"/>
  <circle cx="7" cy="5" r="1" fill="srgba(58.1643%,60.7752%,8.3711%,1)"/>
  <circle cx="8" cy="5" r="1" fill="srgba(58.1598%,60.7721%,8.37263%,1)"/>
  <circle cx="9" cy="5" r="1" fill="srgba(8.67933%,41.6495%,18.3261%,1)"/>
  <circle cx="10" cy="5" r="1" fill="srgba(0%,38.2177%,20.1114%,1)"/>
  <circle cx="11" cy="5" r="1" fill="srgba(0%,38.1567%,20.1419%,1)"/>
  <circle cx="12" cy="5" r="1" fill="srgba(11.1254%,42.565%,17.85%,1)"/>
  <circle cx="13" cy="5" r="1" fill="srgba(11.7433%,42.9313%,17.6593%,1)"/>
  <circle cx="14" cy="5" r="1" fill="srgba(0%,38.1582%,20.1419%,1)"/>
  <circle cx="15" cy="5" r="1" fill="srgba(0,98,51,1)"/>
  <circle cx="0" cy="6" r="1" fill="srgba(0,98,51,1)"/>
  <circle cx="1" cy="6" r="1" fill="srgba(0%,37.9904%,20.2274%,1)"/>
  <circle cx="2" cy="6" r="1" fill="srgba(19.0799%,45.8091%,16.1807%,1)"/>
  <circle cx="3" cy="6" r="1" fill="srgba(32.7718%,50.9468%,13.5103%,1)"/>
  <circle cx="4" cy="6" r="1" fill="srgba(0%,37.9065%,20.2716%,1)"/>
  <circle cx="5" cy="6" r="1" fill="srgba(0%,38.3597%,20.0381%,1)"/>
  <circle cx="6" cy="6" r="1" fill="srgba(3.2929%,39.704%,19.3378%,1)"/>
  <circle cx="7" cy="6" r="1" fill="srgba(5.24758%,40.3235%,19.0143%,1)"/>
  <circle cx="8" cy="6" r="1" fill="srgba(5.24758%,40.3235%,19.0143%,1)"/>
  <circle cx="9" cy="6" r="1" fill="srgba(3.29137%,39.704%,19.3378%,1)"/>
  <circle cx="10" cy="6" r="1" fill="srgba(0%,38.3597%,20.0381%,1)"/>
  <circle cx="11" cy="6" r="1" fill="srgba(0%,37.908%,20.2716%,1)"/>
  <circle cx="12" cy="6" r="1" fill="srgba(32.8023%,50.9621%,13.5058%,1)"/>
  <circle cx="13" cy="6" r="1" fill="srgba(19.0646%,45.8061%,16.1822%,1)"/>
  <circle cx="14" cy="6" r="1" fill="srgba(0%,37.9904%,20.2274%,1)"/>
  <circle cx="15" cy="6" r="1" fill="srgba(0,98,51,1)"/>
  <circle cx="0" cy="7" r="1" fill="srgba(0,98,51,1)"/>
  <circle cx="1" cy="7" r="1" fill="srgba(0%,38.204%,20.119%,1)"/>
  <circle cx="2" cy="7" r="1" fill="srgba(10.3914%,42.4109%,17.9278%,1)"/>
  <circle cx="3" cy="7" r="1" fill="srgba(62.5223%,62.4613%,7.49371%,1)"/>
  <circle cx="4" cy="7" r="1" fill="srgba(12.9259%,43.1998%,17.5189%,1)"/>
  <circle cx="5" cy="7" r="1" fill="srgba(0%,37.879%,20.2869%,1)"/>
  <circle cx="6" cy="7" r="1" fill="srgba(0%,38.3459%,20.0443%,1)"/>
  <circle cx="7" cy="7" r="1" fill="srgba(0%,38.3108%,20.0626%,1)"/>
  <circle cx="8" cy="7" r="1" fill="srgba(0%,38.3108%,20.0626%,1)"/>
  <circle cx="9" cy="7" r="1" fill="srgba(0%,38.3444%,20.0443%,1)"/>
  <circle cx="10" cy="7" r="1" fill="srgba(0%,37.879%,20.2884%,1)"/>
  <circle cx="11" cy="7" r="1" fill="srgba(12.9458%,43.2059%,17.5143%,1)"/>
  <circle cx="12" cy="7" r="1" fill="srgba(62.5162%,62.4598%,7.49523%,1)"/>
  <circle cx="13" cy="7" r="1" fill="srgba(10.3655%,42.4018%,17.9339%,1)"/>
  <circle cx="14" cy="7" r="1" fill="srgba(0%,38.204%,20.119%,1)"/>
  <circle cx="15" cy="7" r="1" fill="srgba(0,98,51,1)"/>
  <circle cx="0" cy="8" r="1" fill="srgba(0,98,51,1)"/>
  <circle cx="1" cy="8" r="1" fill="srgba(0%,38.4161%,20.0076%,1)"/>
  <circle cx="2" cy="8" r="1" fill="srgba(0%,38.3398%,20.0473%,1)"/>
  <circle cx="3" cy="8" r="1" fill="srgba(50.5806%,57.821%,9.90921%,1)"/>
  <circle cx="4" cy="8" r="1" fill="srgba(70.3151%,65.4582%,5.93576%,1)"/>
  <circle cx="5" cy="8" r="1" fill="srgba(16.0937%,44.6204%,16.7788%,1)"/>
  <circle cx="6" cy="8" r="1" fill="srgba(0.263981%,38.2193%,20.1099%,1)"/>
  <circle cx="7" cy="8" r="1" fill="srgba(0%,37.7493%,20.3555%,1)"/>
  <circle cx="8" cy="8" r="1" fill="srgba(0%,37.7493%,20.3555%,1)"/>
  <circle cx="9" cy="8" r="1" fill="srgba(0.265507%,38.2223%,20.1099%,1)"/>
  <circle cx="10" cy="8" r="1" fill="srgba(16.1166%,44.6311%,16.7742%,1)"/>
  <circle cx="11" cy="8" r="1" fill="srgba(70.3349%,65.4658%,5.93271%,1)"/>
  <circle cx="12" cy="8" r="1" fill="srgba(50.5318%,57.8042%,9.91989%,1)"/>
  <circle cx="13" cy="8" r="1" fill="srgba(0%,38.3383%,20.0488%,1)"/>
  <circle cx="14" cy="8" r="1" fill="srgba(0%,38.4161%,20.0076%,1)"/>
  <circle cx="15" cy="8" r="1" fill="srgba(0,98,51,1)"/>
  <circle cx="0" cy="9" r="1" fill="srgba(0,98,51,1)"/>
  <circle cx="1" cy="9" r="1" fill="srgba(0%,38.4329%,20%,1)"/>
  <circle cx="2" cy="9" r="1" fill="srgba(0%,38.2055%,20.1175%,1)"/>
  <circle cx="3" cy="9" r="1" fill="srgba(8.62593%,41.5961%,18.3536%,1)"/>
  <circle cx="4" cy="9" r="1" fill="srgba(68.8685%,64.8951%,6.22721%,1)"/>
  <circle cx="5" cy="9" r="1" fill="srgba(87.3976%,72.018%,2.52079%,1)"/>
  <circle cx="6" cy="9" r="1" fill="srgba(57.9751%,60.7111%,8.40467%,1)"/>
  <circle cx="7" cy="9" r="1" fill="srgba(39.0661%,53.4447%,12.1859%,1)"/>
  <circle cx="8" cy="9" r="1" fill="srgba(39.0692%,53.4478%,12.1859%,1)"/>
  <circle cx="9" cy="9" r="1" fill="srgba(58.0011%,60.7218%,8.40009%,1)"/>
  <circle cx="10" cy="9" r="1" fill="srgba(87.4128%,72.0256%,2.51774%,1)"/>
  <circle cx="11" cy="9" r="1" fill="srgba(68.8426%,64.8875%,6.23331%,1)"/>
  <circle cx="12" cy="9" r="1" fill="srgba(8.60761%,41.59%,18.3566%,1)"/>
  <circle cx="13" cy="9" r="1" fill="srgba(0%,38.2055%,20.1175%,1)"/>
  <circle cx="14" cy="9" r="1" fill="srgba(0%,38.4329%,20%,1)"/>
  <circle cx="15" cy="9" r="1" fill="srgba(0,98,51,1)"/>
  <circle cx="0" cy="10" r="1" fill="srgba(0,98,51,1)"/>
  <circle cx="1" cy="10" r="1" fill="srgba(0,98,51,1)"/>
  <circle cx="2" cy="10" r="1" fill="srgba(0%,38.439%,19.9954%,1)"/>
  <circle cx="3" cy="10" r="1" fill="srgba(0%,38.1292%,20.1572%,1)"/>
  <circle cx="4" cy="10" r="1" fill="srgba(8.57252%,41.5625%,18.3703%,1)"/>
  <circle cx="5" cy="10" r="1" fill="srgba(50.7668%,57.9507%,9.84207%,1)"/>
  <circle cx="6" cy="10" r="1" fill="srgba(84.7791%,71.0124%,3.04417%,1)"/>
  <circle cx="7" cy="10" r="1" fill="srgba(94.0719%,74.5846%,1.18563%,1)"/>
  <circle cx="8" cy="10" r="1" fill="srgba(94.0703%,74.583%,1.18563%,1)"/>
  <circle cx="9" cy="10" r="1" fill="srgba(84.773%,71.0109%,3.0457%,1)"/>
  <circle cx="10" cy="10" r="1" fill="srgba(50.7362%,57.9385%,9.84817%,1)"/>
  <circle cx="11" cy="10" r="1" fill="srgba(8.56031%,41.5564%,18.3734%,1)"/>
  <circle cx="12" cy="10" r="1" fill="srgba(0%,38.1292%,20.1572%,1)"/>
  <circle cx="13" cy="10" r="1" fill="srgba(0%,38.439%,19.9954%,1)"/>
  <circle cx="14" cy="10" r="1" fill="srgba(0,98,51,1)"/>
  <circle cx="15" cy="10" r="1" fill="srgba(0,98,51,1)"/>
  <circle cx="0" cy="11" r="1" fill="srgba(0,98,51,1)"/>
  <circle cx="1" cy="11" r="1" fill="srgba(0,98,51,1)"/>
  <circle cx="2" cy="11" r="1" fill="srgba(0,98,51,1)"/>
  <circle cx="3" cy="11" r="1" fill="srgba(0%,38.439%,19.9954%,1)"/>
  <circle cx="4" cy="11" r="1" fill="srgba(0%,38.2071%,20.1175%,1)"/>
  <circle cx="5" cy="11" r="1" fill="srgba(0.608835%,38.3215%,20.0565%,1)"/>
  <circle cx="6" cy="11" r="1" fill="srgba(9.23018%,41.9791%,18.1537%,1)"/>
  <circle cx="7" cy="11" r="1" fill="srgba(19.9893%,46.1143%,16.0021%,1)"/>
  <circle cx="8" cy="11" r="1" fill="srgba(19.9878%,46.1128%,16.0021%,1)"/>
  <circle cx="9" cy="11" r="1" fill="srgba(9.22713%,41.9776%,18.1537%,1)"/>
  <circle cx="10" cy="11" r="1" fill="srgba(0.608835%,38.3215%,20.058%,1)"/>
  <circle cx="11" cy="11" r="1" fill="srgba(0%,38.2071%,20.1175%,1)"/>
  <circle cx="12" cy="11" r="1" fill="srgba(0%,38.439%,19.9954%,1)"/>
  <circle cx="13" cy="11" r="1" fill="srgba(0,98,51,1)"/>
  <circle cx="14" cy="11" r="1" fill="srgba(0,98,51,1)"/>
  <circle cx="15" cy="11" r="1" fill="srgba(0,98,51,1)"/>
  <circle cx="0" cy="12" r="1" fill="srgba(0,98,51,1)"/>
  <circle cx="1" cy="12" r="1" fill="srgba(0,98,51,1)"/>
  <circle cx="2" cy="12" r="1" fill="srgba(0,98,51,1)"/>
  <circle cx="3" cy="12" r="1" fill="srgba(0,98,51,1)"/>
  <circle cx="4" cy="12" r="1" fill="srgba(0%,38.4329%,20%,1)"/>
  <circle cx="5" cy="12" r="1" fill="srgba(0%,38.4161%,20.0076%,1)"/>
  <circle cx="6" cy="12" r="1" fill="srgba(0%,38.204%,20.1175%,1)"/>
  <circle cx="7" cy="12" r="1" fill="srgba(0%,37.9538%,20.2487%,1)"/>
  <circle cx="8" cy="12" r="1" fill="srgba(0%,37.9538%,20.2487%,1)"/>
  <circle cx="9" cy="12" r="1" fill="srgba(0%,38.204%,20.1175%,1)"/>
  <circle cx="10" cy="12" r="1" fill="srgba(0%,38.4161%,20.0076%,1)"/>
  <circle cx="11" cy="12" r="1" fill="srgba(0%,38.4329%,20%,1)"/>
  <circle cx="12" cy="12" r="1" fill="srgba(0,98,51,1)"/>
  <circle cx="13" cy="12" r="1" fill="srgba(0,98,51,1)"/>
  <circle cx="14" cy="12" r="1" fill="srgba(0,98,51,1)"/>
  <circle cx="15" cy="12" r="1" fill="srgba(0,98,51,1)"/>
  <circle cx="0" cy="13" r="1" fill="srgba(0,98,51,1)"/>
  <circle cx="1" cy="13" r="1" fill="srgba(0,98,51,1)"/>
  <circle cx="2" cy="13" r="1" fill="srgba(0,98,51,1)"/>
  <circle cx="3" cy="13" r="1" fill="srgba(0,98,51,1)"/>
  <circle cx="4" cy="13" r="1" fill="srgba(0,98,51,1)"/>
  <circle cx="5" cy="13" r="1" fill="srgba(0,98,51,1)"/>
  <circle cx="6" cy="13" r="1" fill="srgba(0,98,51,1)"/>
  <circle cx="7" cy="13" r="1" fill="srgba(0,98,51,1)"/>
  <circle cx="8" cy="13" r="1" fill="srgba(0,98,51,1)"/>
  <circle cx="9" cy="13" r="1" fill="srgba(0,98,51,1)"/>
  <circle cx="10" cy="13" r="1" fill="srgba(0,98,51,1)"/>
  <circle cx="11" cy="13" r="1" fill="srgba(0,98,51,1)"/>
  <circle cx="12" cy="13" r="1" fill="srgba(0,98,51,1)"/>
  <circle cx="13" cy="13" r="1" fill="srgba(0,98,51,1)"/>
  <circle cx="14" cy="13" r="1" fill="srgba(0,98,51,1)"/>
  <circle cx="15" cy="13" r="1" fill="srgba(0,98,51,1)"/>
  <circle cx="0" cy="14" r="1" fill="srgba(0,98,51,1)"/>
  <circle cx="1" cy="14" r="1" fill="srgba(0,98,51,1)"/>
  <circle cx="2" cy="14" r="1" fill="srgba(0,98,51,1)"/>
  <circle cx="3" cy="14" r="1" fill="srgba(0,98,51,1)"/>
  <circle cx="4" cy="14" r="1" fill="srgba(0,98,51,1)"/>
  <circle cx="5" cy="14" r="1" fill="srgba(0,98,51,1)"/>
  <circle cx="6" cy="14" r="1" fill="srgba(0,98,51,1)"/>
  <circle cx="7" cy="14" r="1" fill="srgba(0,98,51,1)"/>
  <circle cx="8" cy="14" r="1" fill="srgba(0,98,51,1)"/>
  <circle cx="9" cy="14" r="1" fill="srgba(0,98,51,1)"/>
  <circle cx="10" cy="14" r="1" fill="srgba(0,98,51,1)"/>
  <circle cx="11" cy="14" r="1" fill="srgba(0,98,51,1)"/>
  <circle cx="12" cy="14" r="1" fill="srgba(0,98,51,1)"/>
  <circle cx="13" cy="14" r="1" fill="srgba(0,98,51,1)"/>
  <circle cx="14" cy="14" r="1" fill="srgba(0,98,51,1)"/>
  <circle cx="15" cy="14" r="1" fill="srgba(0,98,51,1)"/>
  <circle cx="0" cy="15" r="1" fill="srgba(0,98,51,1)"/>
  <circle cx="1" cy="15" r="1" fill="srgba(0,98,51,1)"/>
  <circle cx="2" cy="15" r="1" fill="srgba(0,98,51,1)"/>
  <circle cx="3" cy="15" r="1" fill="srgba(0,98,51,1)"/>
  <circle cx="4" cy="15" r="1" fill="srgba(0,98,51,1)"/>
  <circle cx="5" cy="15" r="1" fill="srgba(0,98,51,1)"/>
  <circle cx="6" cy="15" r="1" fill="srgba(0,98,51,1)"/>
  <circle cx="7" cy="15" r="1" fill="srgba(0,98,51,1)"/>
  <circle cx="8" cy="15" r="1" fill="srgba(0,98,51,1)"/>
  <circle cx="9" cy="15" r="1" fill="srgba(0,98,51,1)"/>
  <circle cx="10" cy="15" r="1" fill="srgba(0,98,51,1)"/>
  <circle cx="11" cy="15" r="1" fill="srgba(0,98,51,1)"/>
  <circle cx="12" cy="15" r="1" fill="srgba(0,98,51,1)"/>
  <circle cx="13" cy="15" r="1" fill="srgba(0,98,51,1)"/>
  <circle cx="14" cy="15" r="1" fill="srgba(0,98,51,1)"/>
  <circle cx="15" cy="15" r="1" fill="srgba(0,98,51,1)"/>
</svg>
