<?xml version="1.0" standalone="no"?>
<!DOCTYPE svg PUBLIC "-//W3C//DTD SVG 20010904//EN"
  "http://www.w3.org/TR/2001/REC-SVG-20010904/DTD/svg10.dtd">
<svg width="16" height="16">
  <circle cx="0" cy="0" r="1" fill="srgba(45.2064%,14.049%,32.7245%,1)"/>
  <circle cx="1" cy="0" r="1" fill="srgba(12.8542%,0.352483%,32.6635%,1)"/>
  <circle cx="2" cy="0" r="1" fill="srgba(0%,0%,38.97%,1)"/>
  <circle cx="3" cy="0" r="1" fill="srgba(26.5461%,18.2757%,46.4637%,1)"/>
  <circle cx="4" cy="0" r="1" fill="srgba(81.4771%,25.275%,27.0451%,1)"/>
  <circle cx="5" cy="0" r="1" fill="srgba(26.9123%,18.3948%,46.9871%,1)"/>
  <circle cx="6" cy="0" r="1" fill="srgba(0%,0%,39.9649%,1)"/>
  <circle cx="7" cy="0" r="1" fill="srgba(0.360113%,0.521859%,40.4379%,1)"/>
  <circle cx="8" cy="0" r="1" fill="srgba(12.4147%,12.9442%,48.0369%,1)"/>
  <circle cx="9" cy="0" r="1" fill="srgba(4.22522%,4.2649%,42.5788%,1)"/>
  <circle cx="10" cy="0" r="1" fill="srgba(0%,0%,39.8428%,1)"/>
  <circle cx="11" cy="0" r="1" fill="srgba(0,0,102,1)"/>
  <circle cx="12" cy="0" r="1" fill="srgba(0,0,102,1)"/>
  <circle cx="13" cy="0" r="1" fill="srgba(0,0,102,1)"/>
  <circle cx="14" cy="0" r="1" fill="srgba(0,0,102,1)"/>
  <circle cx="15" cy="0" r="1" fill="srgba(0,0,102,1)"/>
  <circle cx="0" cy="1" r="1" fill="srgba(88.7617%,82.6413%,86.5248%,1)"/>
  <circle cx="1" cy="1" r="1" fill="srgba(62.7176%,39.202%,51.7632%,1)"/>
  <circle cx="2" cy="1" r="1" fill="srgba(29.5827%,12.7047%,39.1836%,1)"/>
  <circle cx="3" cy="1" r="1" fill="srgba(36.4034%,27.8065%,52.3873%,1)"/>
  <circle cx="4" cy="1" r="1" fill="srgba(82.0569%,25.8442%,27.4006%,1)"/>
  <circle cx="5" cy="1" r="1" fill="srgba(34.8043%,19.3301%,43.8651%,1)"/>
  <circle cx="6" cy="1" r="1" fill="srgba(9.72915%,0%,34.2931%,1)"/>
  <circle cx="7" cy="1" r="1" fill="srgba(36.5805%,26.2257%,50.5577%,1)"/>
  <circle cx="8" cy="1" r="1" fill="srgba(70.8125%,63.4516%,74.3923%,1)"/>
  <circle cx="9" cy="1" r="1" fill="srgba(12.2316%,11.7876%,46.8528%,1)"/>
  <circle cx="10" cy="1" r="1" fill="srgba(0%,0%,39.5727%,1)"/>
  <circle cx="11" cy="1" r="1" fill="srgba(0,0,102,1)"/>
  <circle cx="12" cy="1" r="1" fill="srgba(0,0,102,1)"/>
  <circle cx="13" cy="1" r="1" fill="srgba(0,0,102,1)"/>
  <circle cx="14" cy="1" r="1" fill="srgba(0,0,102,1)"/>
  <circle cx="15" cy="1" r="1" fill="srgba(0,0,102,1)"/>
  <circle cx="0" cy="2" r="1" fill="srgba(88.9967%,38.912%,38.3062%,1)"/>
  <circle cx="1" cy="2" r="1" fill="srgba(86.7567%,35.6313%,35.819%,1)"/>
  <circle cx="2" cy="2" r="1" fill="srgba(82.5803%,27.3732%,28.8212%,1)"/>
  <circle cx="3" cy="2" r="1" fill="srgba(79.4888%,25.7374%,28.5695%,1)"/>
  <circle cx="4" cy="2" r="1" fill="srgba(81.7395%,10.6615%,10.8583%,1)"/>
  <circle cx="5" cy="2" r="1" fill="srgba(83.8468%,48.8853%,51.8532%,1)"/>
  <circle cx="6" cy="2" r="1" fill="srgba(84.5884%,63.1144%,67.1336%,1)"/>
  <circle cx="7" cy="2" r="1" fill="srgba(89.7749%,51.2505%,51.487%,1)"/>
  <circle cx="8" cy="2" r="1" fill="srgba(76.7163%,22.945%,26.8788%,1)"/>
  <circle cx="9" cy="2" r="1" fill="srgba(10.8812%,3.90631%,38.8556%,1)"/>
  <circle cx="10" cy="2" r="1" fill="srgba(0%,0%,40.058%,1)"/>
  <circle cx="11" cy="2" r="1" fill="srgba(0,0,102,1)"/>
  <circle cx="12" cy="2" r="1" fill="srgba(0,0,102,1)"/>
  <circle cx="13" cy="2" r="1" fill="srgba(0,0,102,1)"/>
  <circle cx="14" cy="2" r="1" fill="srgba(0,0,102,1)"/>
  <circle cx="15" cy="2" r="1" fill="srgba(0,0,102,1)"/>
  <circle cx="0" cy="3" r="1" fill="srgba(72.9732%,27.7668%,34.0551%,1)"/>
  <circle cx="1" cy="3" r="1" fill="srgba(72.5765%,28.0964%,34.6166%,1)"/>
  <circle cx="2" cy="3" r="1" fill="srgba(78.6679%,29.955%,33.6156%,1)"/>
  <circle cx="3" cy="3" r="1" fill="srgba(86.0975%,32.3171%,32.5002%,1)"/>
  <circle cx="4" cy="3" r="1" fill="srgba(82.3697%,12.9152%,13.022%,1)"/>
  <circle cx="5" cy="3" r="1" fill="srgba(91.0307%,56.7178%,56.8734%,1)"/>
  <circle cx="6" cy="3" r="1" fill="srgba(93.257%,74.3664%,75.1736%,1)"/>
  <circle cx="7" cy="3" r="1" fill="srgba(78.1521%,44.5396%,49.9168%,1)"/>
  <circle cx="8" cy="3" r="1" fill="srgba(64.6784%,26.0075%,36.2676%,1)"/>
  <circle cx="9" cy="3" r="1" fill="srgba(9.23018%,3.63775%,39.3851%,1)"/>
  <circle cx="10" cy="3" r="1" fill="srgba(0%,0%,40.0366%,1)"/>
  <circle cx="11" cy="3" r="1" fill="srgba(0,0,102,1)"/>
  <circle cx="12" cy="3" r="1" fill="srgba(0,0,102,1)"/>
  <circle cx="13" cy="3" r="1" fill="srgba(0,0,102,1)"/>
  <circle cx="14" cy="3" r="1" fill="srgba(0,0,102,1)"/>
  <circle cx="15" cy="3" r="1" fill="srgba(0,0,102,1)"/>
  <circle cx="0" cy="4" r="1" fill="srgba(22.5711%,22.8626%,53.8613%,1)"/>
  <circle cx="1" cy="4" r="1" fill="srgba(44.9271%,32.2942%,53.0587%,1)"/>
  <circle cx="2" cy="4" r="1" fill="srgba(55.7061%,30.161%,45.3239%,1)"/>
  <circle cx="3" cy="4" r="1" fill="srgba(54.1497%,37.6547%,54.3465%,1)"/>
  <circle cx="4" cy="4" r="1" fill="srgba(81.5702%,25.7206%,27.5074%,1)"/>
  <circle cx="5" cy="4" r="1" fill="srgba(54.8806%,41.2665%,57.9538%,1)"/>
  <circle cx="6" cy="4" r="1" fill="srgba(71.0613%,52.6772%,62.4155%,1)"/>
  <circle cx="7" cy="4" r="1" fill="srgba(55.2056%,29.984%,45.3788%,1)"/>
  <circle cx="8" cy="4" r="1" fill="srgba(18.6893%,11.9142%,43.7598%,1)"/>
  <circle cx="9" cy="4" r="1" fill="srgba(1.53658%,1.72274%,41.1276%,1)"/>
  <circle cx="10" cy="4" r="1" fill="srgba(0%,0%,39.9329%,1)"/>
  <circle cx="11" cy="4" r="1" fill="srgba(0,0,102,1)"/>
  <circle cx="12" cy="4" r="1" fill="srgba(0,0,102,1)"/>
  <circle cx="13" cy="4" r="1" fill="srgba(0,0,102,1)"/>
  <circle cx="14" cy="4" r="1" fill="srgba(0,0,102,1)"/>
  <circle cx="15" cy="4" r="1" fill="srgba(0,0,102,1)"/>
  <circle cx="0" cy="5" r="1" fill="srgba(63.4989%,42.9084%,55.4482%,1)"/>
  <circle cx="1" cy="5" r="1" fill="srgba(49.8177%,27.2313%,45.0431%,1)"/>
  <circle cx="2" cy="5" r="1" fill="srgba(10.5364%,6.63462%,42.0432%,1)"/>
  <circle cx="3" cy="5" r="1" fill="srgba(26.4652%,18.4024%,46.8162%,1)"/>
  <circle cx="4" cy="5" r="1" fill="srgba(81.4755%,25.2598%,27.0024%,1)"/>
  <circle cx="5" cy="5" r="1" fill="srgba(26.7369%,18.3124%,46.5827%,1)"/>
  <circle cx="6" cy="5" r="1" fill="srgba(11.1086%,12.015%,47.6402%,1)"/>
  <circle cx="7" cy="5" r="1" fill="srgba(54.0505%,44.361%,61.7731%,1)"/>
  <circle cx="8" cy="5" r="1" fill="srgba(54.7478%,31.4183%,47.1763%,1)"/>
  <circle cx="9" cy="5" r="1" fill="srgba(6.10361%,2.29038%,39.3988%,1)"/>
  <circle cx="10" cy="5" r="1" fill="srgba(0%,0%,39.9329%,1)"/>
  <circle cx="11" cy="5" r="1" fill="srgba(0%,0%,39.9191%,1)"/>
  <circle cx="12" cy="5" r="1" fill="srgba(0%,0%,39.9191%,1)"/>
  <circle cx="13" cy="5" r="1" fill="srgba(0%,0%,39.9191%,1)"/>
  <circle cx="14" cy="5" r="1" fill="srgba(0%,0%,39.9252%,1)"/>
  <circle cx="15" cy="5" r="1" fill="srgba(0%,0%,39.9817%,1)"/>
  <circle cx="0" cy="6" r="1" fill="srgba(7.6585%,3.0457%,39.4965%,1)"/>
  <circle cx="1" cy="6" r="1" fill="srgba(1.97757%,1.34737%,40.5753%,1)"/>
  <circle cx="2" cy="6" r="1" fill="srgba(0%,0%,39.5193%,1)"/>
  <circle cx="3" cy="6" r="1" fill="srgba(26.7277%,18.3322%,46.8376%,1)"/>
  <circle cx="4" cy="6" r="1" fill="srgba(82.1912%,25.3391%,27.0939%,1)"/>
  <circle cx="5" cy="6" r="1" fill="srgba(27.0634%,18.4421%,46.804%,1)"/>
  <circle cx="6" cy="6" r="1" fill="srgba(0%,0%,39.1516%,1)"/>
  <circle cx="7" cy="6" r="1" fill="srgba(2.17136%,2.62608%,41.4588%,1)"/>
  <circle cx="8" cy="6" r="1" fill="srgba(8.09796%,7.17632%,43.8209%,1)"/>
  <circle cx="9" cy="6" r="1" fill="srgba(3.66064%,2.89158%,41.1505%,1)"/>
  <circle cx="10" cy="6" r="1" fill="srgba(2.56199%,2.48417%,41.236%,1)"/>
  <circle cx="11" cy="6" r="1" fill="srgba(2.6276%,2.50401%,41.2284%,1)"/>
  <circle cx="12" cy="6" r="1" fill="srgba(2.6276%,2.50401%,41.2268%,1)"/>
  <circle cx="13" cy="6" r="1" fill="srgba(2.63981%,2.51469%,41.2299%,1)"/>
  <circle cx="14" cy="6" r="1" fill="srgba(2.42466%,2.32395%,41.1612%,1)"/>
  <circle cx="15" cy="6" r="1" fill="srgba(0.538643%,0.527962%,40.2869%,1)"/>
  <circle cx="0" cy="7" r="1" fill="srgba(0%,0%,40.0153%,1)"/>
  <circle cx="1" cy="7" r="1" fill="srgba(0%,0%,39.9603%,1)"/>
  <circle cx="2" cy="7" r="1" fill="srgba(0%,0%,39.7086%,1)"/>
  <circle cx="3" cy="7" r="1" fill="srgba(21.68%,14.9371%,45.5924%,1)"/>
  <circle cx="4" cy="7" r="1" fill="srgba(66.627%,20.9751%,29.7597%,1)"/>
  <circle cx="5" cy="7" r="1" fill="srgba(21.9745%,15.0515%,45.5711%,1)"/>
  <circle cx="6" cy="7" r="1" fill="srgba(0%,0%,39.7192%,1)"/>
  <circle cx="7" cy="7" r="1" fill="srgba(0%,0%,39.5377%,1)"/>
  <circle cx="8" cy="7" r="1" fill="srgba(7.62799%,13.5576%,46.6453%,1)"/>
  <circle cx="9" cy="7" r="1" fill="srgba(11.4199%,46.6499%,63.9185%,1)"/>
  <circle cx="10" cy="7" r="1" fill="srgba(8.87922%,47.9881%,64.9119%,1)"/>
  <circle cx="11" cy="7" r="1" fill="srgba(9.01503%,47.9011%,64.8493%,1)"/>
  <circle cx="12" cy="7" r="1" fill="srgba(8.87465%,48.2597%,65.3407%,1)"/>
  <circle cx="13" cy="7" r="1" fill="srgba(8.82277%,48.3314%,65.2338%,1)"/>
  <circle cx="14" cy="7" r="1" fill="srgba(12.0592%,44.2557%,62.71%,1)"/>
  <circle cx="15" cy="7" r="1" fill="srgba(6.52934%,10.1137%,45.0965%,1)"/>
  <circle cx="0" cy="8" r="1" fill="srgba(0%,0%,40.0031%,1)"/>
  <circle cx="1" cy="8" r="1" fill="srgba(0%,0%,40.0381%,1)"/>
  <circle cx="2" cy="8" r="1" fill="srgba(0%,0%,40.0061%,1)"/>
  <circle cx="3" cy="8" r="1" fill="srgba(1.80667%,1.25429%,40.5081%,1)"/>
  <circle cx="4" cy="8" r="1" fill="srgba(5.61532%,1.84329%,39.2859%,1)"/>
  <circle cx="5" cy="8" r="1" fill="srgba(1.8143%,1.25124%,40.4822%,1)"/>
  <circle cx="6" cy="8" r="1" fill="srgba(0%,0%,39.9557%,1)"/>
  <circle cx="7" cy="8" r="1" fill="srgba(0%,0%,39.4629%,1)"/>
  <circle cx="8" cy="8" r="1" fill="srgba(8.27344%,18.0117%,49.0806%,1)"/>
  <circle cx="9" cy="8" r="1" fill="srgba(4.2237%,62.6062%,73.1289%,1)"/>
  <circle cx="10" cy="8" r="1" fill="srgba(0%,58.8418%,68.1147%,1)"/>
  <circle cx="11" cy="8" r="1" fill="srgba(0.53254%,61.9745%,71.5435%,1)"/>
  <circle cx="12" cy="8" r="1" fill="srgba(4.35492%,53.7789%,59.4583%,1)"/>
  <circle cx="13" cy="8" r="1" fill="srgba(0%,59.9512%,69.1905%,1)"/>
  <circle cx="14" cy="8" r="1" fill="srgba(5.90982%,56.6033%,68.1117%,1)"/>
  <circle cx="15" cy="8" r="1" fill="srgba(7.40063%,13.2891%,46.3935%,1)"/>
  <circle cx="0" cy="9" r="1" fill="srgba(0%,0%,39.9496%,1)"/>
  <circle cx="1" cy="9" r="1" fill="srgba(0.325017%,0.2533%,39.3622%,1)"/>
  <circle cx="2" cy="9" r="1" fill="srgba(1.49233%,1.15816%,39.469%,1)"/>
  <circle cx="3" cy="9" r="1" fill="srgba(2.27207%,1.77462%,39.7192%,1)"/>
  <circle cx="4" cy="9" r="1" fill="srgba(2.71%,2.26291%,39.9969%,1)"/>
  <circle cx="5" cy="9" r="1" fill="srgba(3.59045%,2.79698%,40.1099%,1)"/>
  <circle cx="6" cy="9" r="1" fill="srgba(4.24964%,3.299%,40.3189%,1)"/>
  <circle cx="7" cy="9" r="1" fill="srgba(4.39307%,2.76493%,40.032%,1)"/>
  <circle cx="8" cy="9" r="1" fill="srgba(12.8435%,20.4456%,48.9265%,1)"/>
  <circle cx="9" cy="9" r="1" fill="srgba(9.5964%,61.4176%,71.0735%,1)"/>
  <circle cx="10" cy="9" r="1" fill="srgba(5.83047%,47.1977%,53.8476%,1)"/>
  <circle cx="11" cy="9" r="1" fill="srgba(6.67582%,54.049%,61.6037%,1)"/>
  <circle cx="12" cy="9" r="1" fill="srgba(12.8374%,32.9351%,34.583%,1)"/>
  <circle cx="13" cy="9" r="1" fill="srgba(29.8604%,53.463%,55.0927%,1)"/>
  <circle cx="14" cy="9" r="1" fill="srgba(34.9142%,53.5668%,55.9182%,1)"/>
  <circle cx="15" cy="9" r="1" fill="srgba(33.7423%,30.692%,50.4509%,1)"/>
  <circle cx="0" cy="10" r="1" fill="srgba(0%,0%,39.8627%,1)"/>
  <circle cx="1" cy="10" r="1" fill="srgba(0.895705%,0.695811%,38.2788%,1)"/>
  <circle cx="2" cy="10" r="1" fill="srgba(4.07263%,3.1632%,38.5534%,1)"/>
  <circle cx="3" cy="10" r="1" fill="srgba(6.61479%,5.13924%,39.3652%,1)"/>
  <circle cx="4" cy="10" r="1" fill="srgba(8.542%,6.6331%,39.9054%,1)"/>
  <circle cx="5" cy="10" r="1" fill="srgba(10.4173%,8.08881%,40.4562%,1)"/>
  <circle cx="6" cy="10" r="1" fill="srgba(12.0714%,9.37514%,40.9873%,1)"/>
  <circle cx="7" cy="10" r="1" fill="srgba(13.3959%,9.86191%,41.1475%,1)"/>
  <circle cx="8" cy="10" r="1" fill="srgba(21.6342%,25.5619%,48.9799%,1)"/>
  <circle cx="9" cy="10" r="1" fill="srgba(20.0153%,60.9918%,68.365%,1)"/>
  <circle cx="10" cy="10" r="1" fill="srgba(17.7371%,42.0676%,45.7191%,1)"/>
  <circle cx="11" cy="10" r="1" fill="srgba(28.5985%,42.8687%,44.6326%,1)"/>
  <circle cx="12" cy="10" r="1" fill="srgba(17.1588%,21.5%,21.0239%,1)"/>
  <circle cx="13" cy="10" r="1" fill="srgba(13.8781%,33.991%,31.9539%,1)"/>
  <circle cx="14" cy="10" r="1" fill="srgba(20.9293%,46.5141%,47.2099%,1)"/>
  <circle cx="15" cy="10" r="1" fill="srgba(21.3977%,22.1012%,48.1376%,1)"/>
  <circle cx="0" cy="11" r="1" fill="srgba(0%,0%,40.0046%,1)"/>
  <circle cx="1" cy="11" r="1" fill="srgba(0%,0%,40.0595%,1)"/>
  <circle cx="2" cy="11" r="1" fill="srgba(0%,0%,40.0458%,1)"/>
  <circle cx="3" cy="11" r="1" fill="srgba(0%,0%,40.0153%,1)"/>
  <circle cx="4" cy="11" r="1" fill="srgba(0%,0%,39.9939%,1)"/>
  <circle cx="5" cy="11" r="1" fill="srgba(0%,0%,39.9725%,1)"/>
  <circle cx="6" cy="11" r="1" fill="srgba(0%,0%,39.9527%,1)"/>
  <circle cx="7" cy="11" r="1" fill="srgba(0%,0%,39.4675%,1)"/>
  <circle cx="8" cy="11" r="1" fill="srgba(8.49622%,17.261%,48.3436%,1)"/>
  <circle cx="9" cy="11" r="1" fill="srgba(6.20279%,60.9949%,70.9773%,1)"/>
  <circle cx="10" cy="11" r="1" fill="srgba(6.49271%,36.6079%,38.1476%,1)"/>
  <circle cx="11" cy="11" r="1" fill="srgba(30.8263%,32.3735%,20.3845%,1)"/>
  <circle cx="12" cy="11" r="1" fill="srgba(11.8685%,17.3724%,15.4299%,1)"/>
  <circle cx="13" cy="11" r="1" fill="srgba(0%,9.55062%,6.74296%,1)"/>
  <circle cx="14" cy="11" r="1" fill="srgba(6.8864%,35.2773%,34.9508%,1)"/>
  <circle cx="15" cy="11" r="1" fill="srgba(7.40978%,11.4946%,43.2227%,1)"/>
  <circle cx="0" cy="12" r="1" fill="srgba(0,0,102,1)"/>
  <circle cx="1" cy="12" r="1" fill="srgba(0,0,102,1)"/>
  <circle cx="2" cy="12" r="1" fill="srgba(0,0,102,1)"/>
  <circle cx="3" cy="12" r="1" fill="srgba(0,0,102,1)"/>
  <circle cx="4" cy="12" r="1" fill="srgba(0,0,102,1)"/>
  <circle cx="5" cy="12" r="1" fill="srgba(0,0,102,1)"/>
  <circle cx="6" cy="12" r="1" fill="srgba(0,0,102,1)"/>
  <circle cx="7" cy="12" r="1" fill="srgba(0%,0%,39.8505%,1)"/>
  <circle cx="8" cy="12" r="1" fill="srgba(11.7037%,11.5282%,42.8183%,1)"/>
  <circle cx="9" cy="12" r="1" fill="srgba(47.541%,35.4086%,27.1733%,1)"/>
  <circle cx="10" cy="12" r="1" fill="srgba(39.8215%,25.7755%,9.69253%,1)"/>
  <circle cx="11" cy="12" r="1" fill="srgba(53.6553%,35.1339%,7.24346%,1)"/>
  <circle cx="12" cy="12" r="1" fill="srgba(23.2136%,17.3053%,10.1122%,1)"/>
  <circle cx="13" cy="12" r="1" fill="srgba(0%,0.218204%,0%,1)"/>
  <circle cx="14" cy="12" r="1" fill="srgba(23.9933%,21.68%,20.7553%,1)"/>
  <circle cx="15" cy="12" r="1" fill="srgba(11.812%,10.2785%,40.6119%,1)"/>
  <circle cx="0" cy="13" r="1" fill="srgba(0,0,102,1)"/>
  <circle cx="1" cy="13" r="1" fill="srgba(0,0,102,1)"/>
  <circle cx="2" cy="13" r="1" fill="srgba(0,0,102,1)"/>
  <circle cx="3" cy="13" r="1" fill="srgba(0,0,102,1)"/>
  <circle cx="4" cy="13" r="1" fill="srgba(0,0,102,1)"/>
  <circle cx="5" cy="13" r="1" fill="srgba(0,0,102,1)"/>
  <circle cx="6" cy="13" r="1" fill="srgba(0,0,102,1)"/>
  <circle cx="7" cy="13" r="1" fill="srgba(0%,0%,39.9298%,1)"/>
  <circle cx="8" cy="13" r="1" fill="srgba(3.50805%,3.30205%,41.5%,1)"/>
  <circle cx="9" cy="13" r="1" fill="srgba(46.1418%,25.3117%,28.2536%,1)"/>
  <circle cx="10" cy="13" r="1" fill="srgba(55.7122%,26.894%,2.96178%,1)"/>
  <circle cx="11" cy="13" r="1" fill="srgba(60.3845%,39.44%,9.40414%,1)"/>
  <circle cx="12" cy="13" r="1" fill="srgba(26.5034%,19.3622%,13.048%,1)"/>
  <circle cx="13" cy="13" r="1" fill="black"/>
  <circle cx="14" cy="13" r="1" fill="srgba(12.2118%,7.74548%,9.29427%,1)"/>
  <circle cx="15" cy="13" r="1" fill="srgba(17.3358%,10.8644%,30.3532%,1)"/>
  <circle cx="0" cy="14" r="1" fill="srgba(0,0,102,1)"/>
  <circle cx="1" cy="14" r="1" fill="srgba(0,0,102,1)"/>
  <circle cx="2" cy="14" r="1" fill="srgba(0,0,102,1)"/>
  <circle cx="3" cy="14" r="1" fill="srgba(0,0,102,1)"/>
  <circle cx="4" cy="14" r="1" fill="srgba(0,0,102,1)"/>
  <circle cx="5" cy="14" r="1" fill="srgba(0,0,102,1)"/>
  <circle cx="6" cy="14" r="1" fill="srgba(0,0,102,1)"/>
  <circle cx="7" cy="14" r="1" fill="srgba(0%,0%,40.0015%,1)"/>
  <circle cx="8" cy="14" r="1" fill="srgba(0,0,102,1)"/>
  <circle cx="9" cy="14" r="1" fill="srgba(8.19715%,7.05882%,42.4048%,1)"/>
  <circle cx="10" cy="14" r="1" fill="srgba(53.0617%,33.9467%,21.9623%,1)"/>
  <circle cx="11" cy="14" r="1" fill="srgba(94.7066%,60.4852%,13.7072%,1)"/>
  <circle cx="12" cy="14" r="1" fill="srgba(30.927%,22.948%,16.5286%,1)"/>
  <circle cx="13" cy="14" r="1" fill="black"/>
  <circle cx="14" cy="14" r="1" fill="srgba(0.411994%,0.248722%,2.10269%,1)"/>
  <circle cx="15" cy="14" r="1" fill="srgba(24.329%,14.6914%,17.4014%,1)"/>
  <circle cx="0" cy="15" r="1" fill="srgba(0,0,102,1)"/>
  <circle cx="1" cy="15" r="1" fill="srgba(0,0,102,1)"/>
  <circle cx="2" cy="15" r="1" fill="srgba(0,0,102,1)"/>
  <circle cx="3" cy="15" r="1" fill="srgba(0,0,102,1)"/>
  <circle cx="4" cy="15" r="1" fill="srgba(0,0,102,1)"/>
  <circle cx="5" cy="15" r="1" fill="srgba(0,0,102,1)"/>
  <circle cx="6" cy="15" r="1" fill="srgba(0,0,102,1)"/>
  <circle cx="7" cy="15" r="1" fill="srgba(0,0,102,1)"/>
  <circle cx="8" cy="15" r="1" fill="srgba(0%,0%,39.9939%,1)"/>
  <circle cx="9" cy="15" r="1" fill="srgba(0%,0%,40.5997%,1)"/>
  <circle cx="10" cy="15" r="1" fill="srgba(31.6869%,19.1394%,23.4195%,1)"/>
  <circle cx="11" cy="15" r="1" fill="srgba(89.7871%,56.6735%,12.3476%,1)"/>
  <circle cx="12" cy="15" r="1" fill="srgba(24.4785%,17.9385%,13.3974%,1)"/>
  <circle cx="13" cy="15" r="1" fill="black"/>
  <circle cx="14" cy="15" r="1" fill="black"/>
  <circle cx="15" cy="15" r="1" fill="srgba(21.146%,12.7703%,3.19219%,1)"/>
</svg>
