<?xml version="1.0" standalone="no"?>
<!DOCTYPE svg PUBLIC "-//W3C//DTD SVG 20010904//EN"
  "http://www.w3.org/TR/2001/REC-SVG-20010904/DTD/svg10.dtd">
<svg width="16" height="16">
  <circle cx="0" cy="0" r="1" fill="white"/>
  <circle cx="1" cy="0" r="1" fill="white"/>
  <circle cx="2" cy="0" r="1" fill="white"/>
  <circle cx="3" cy="0" r="1" fill="white"/>
  <circle cx="4" cy="0" r="1" fill="white"/>
  <circle cx="5" cy="0" r="1" fill="white"/>
  <circle cx="6" cy="0" r="1" fill="white"/>
  <circle cx="7" cy="0" r="1" fill="srgba(97.6822%,87.9393%,87.9393%,1)"/>
  <circle cx="8" cy="0" r="1" fill="srgba(83.1022%,12.0607%,12.0607%,1)"/>
  <circle cx="9" cy="0" r="1" fill="srgba(80.6348%,0%,0%,1)"/>
  <circle cx="10" cy="0" r="1" fill="srgba(206,0,0,1)"/>
  <circle cx="11" cy="0" r="1" fill="srgba(206,0,0,1)"/>
  <circle cx="12" cy="0" r="1" fill="srgba(206,0,0,1)"/>
  <circle cx="13" cy="0" r="1" fill="srgba(206,0,0,1)"/>
  <circle cx="14" cy="0" r="1" fill="srgba(206,0,0,1)"/>
  <circle cx="15" cy="0" r="1" fill="srgba(206,0,0,1)"/>
  <circle cx="0" cy="1" r="1" fill="white"/>
  <circle cx="1" cy="1" r="1" fill="white"/>
  <circle cx="2" cy="1" r="1" fill="srgba(96.9879%,95.3994%,94.0398%,1)"/>
  <circle cx="3" cy="1" r="1" fill="srgba(88.9128%,85.1881%,81.6861%,1)"/>
  <circle cx="4" cy="1" r="1" fill="srgba(98.6297%,97.6562%,96.8292%,1)"/>
  <circle cx="5" cy="1" r="1" fill="white"/>
  <circle cx="6" cy="1" r="1" fill="white"/>
  <circle cx="7" cy="1" r="1" fill="srgba(97.6822%,87.9393%,87.9393%,1)"/>
  <circle cx="8" cy="1" r="1" fill="srgba(83.1022%,12.0607%,12.0607%,1)"/>
  <circle cx="9" cy="1" r="1" fill="srgba(80.6348%,0%,0%,1)"/>
  <circle cx="10" cy="1" r="1" fill="srgba(206,0,0,1)"/>
  <circle cx="11" cy="1" r="1" fill="srgba(206,0,0,1)"/>
  <circle cx="12" cy="1" r="1" fill="srgba(206,0,0,1)"/>
  <circle cx="13" cy="1" r="1" fill="srgba(206,0,0,1)"/>
  <circle cx="14" cy="1" r="1" fill="srgba(206,0,0,1)"/>
  <circle cx="15" cy="1" r="1" fill="srgba(206,0,0,1)"/>
  <circle cx="0" cy="2" r="1" fill="srgba(99.9832%,99.9298%,99.9008%,1)"/>
  <circle cx="1" cy="2" r="1" fill="srgba(99.4598%,98.6374%,98.0179%,1)"/>
  <circle cx="2" cy="2" r="1" fill="srgba(88.7907%,86.0548%,83.9841%,1)"/>
  <circle cx="3" cy="2" r="1" fill="srgba(69.1936%,66.2242%,63.2425%,1)"/>
  <circle cx="4" cy="2" r="1" fill="srgba(93.2372%,91.0231%,89.4469%,1)"/>
  <circle cx="5" cy="2" r="1" fill="srgba(98.941%,98.3429%,97.937%,1)"/>
  <circle cx="6" cy="2" r="1" fill="srgba(99.8901%,100%,100%,1)"/>
  <circle cx="7" cy="2" r="1" fill="srgba(97.6455%,87.9026%,87.9026%,1)"/>
  <circle cx="8" cy="2" r="1" fill="srgba(83.0991%,12.0638%,12.0638%,1)"/>
  <circle cx="9" cy="2" r="1" fill="srgba(80.6317%,0%,0%,1)"/>
  <circle cx="10" cy="2" r="1" fill="srgba(80.7858%,0.410468%,0.410468%,1)"/>
  <circle cx="11" cy="2" r="1" fill="srgba(80.7874%,0.294499%,0.294499%,1)"/>
  <circle cx="12" cy="2" r="1" fill="srgba(206,0,0,1)"/>
  <circle cx="13" cy="2" r="1" fill="srgba(206,0,0,1)"/>
  <circle cx="14" cy="2" r="1" fill="srgba(206,0,0,1)"/>
  <circle cx="15" cy="2" r="1" fill="srgba(206,0,0,1)"/>
  <circle cx="0" cy="3" r="1" fill="srgba(99.7131%,99.028%,98.5183%,1)"/>
  <circle cx="1" cy="3" r="1" fill="srgba(81.7243%,77.3419%,73.0739%,1)"/>
  <circle cx="2" cy="3" r="1" fill="srgba(69.9809%,68.1346%,66.54%,1)"/>
  <circle cx="3" cy="3" r="1" fill="srgba(71.5282%,71.3939%,71.3848%,1)"/>
  <circle cx="4" cy="3" r="1" fill="srgba(76.9406%,75.3414%,74.2397%,1)"/>
  <circle cx="5" cy="3" r="1" fill="srgba(84.9149%,82.771%,80.9537%,1)"/>
  <circle cx="6" cy="3" r="1" fill="srgba(90.8476%,91.1452%,91.1223%,1)"/>
  <circle cx="7" cy="3" r="1" fill="srgba(90.0755%,84.8386%,84.8386%,1)"/>
  <circle cx="8" cy="3" r="1" fill="srgba(82.417%,44.7364%,44.7364%,1)"/>
  <circle cx="9" cy="3" r="1" fill="srgba(81.0483%,34.4228%,34.4228%,1)"/>
  <circle cx="10" cy="3" r="1" fill="srgba(80.9171%,13.8689%,13.8689%,1)"/>
  <circle cx="11" cy="3" r="1" fill="srgba(80.8042%,1.79599%,1.79599%,1)"/>
  <circle cx="12" cy="3" r="1" fill="srgba(80.7843%,0.105287%,0.105287%,1)"/>
  <circle cx="13" cy="3" r="1" fill="srgba(80.7843%,0.0228885%,0.0228885%,1)"/>
  <circle cx="14" cy="3" r="1" fill="srgba(206,0,0,1)"/>
  <circle cx="15" cy="3" r="1" fill="srgba(206,0,0,1)"/>
  <circle cx="0" cy="4" r="1" fill="srgba(99.8718%,99.5514%,99.3256%,1)"/>
  <circle cx="1" cy="4" r="1" fill="srgba(92.1828%,89.4102%,86.7643%,1)"/>
  <circle cx="2" cy="4" r="1" fill="srgba(82.3987%,80.708%,79.4812%,1)"/>
  <circle cx="3" cy="4" r="1" fill="srgba(78.1979%,78.1201%,78.1628%,1)"/>
  <circle cx="4" cy="4" r="1" fill="srgba(80.7202%,80.7156%,80.7431%,1)"/>
  <circle cx="5" cy="4" r="1" fill="srgba(81.0819%,81.0666%,81.0346%,1)"/>
  <circle cx="6" cy="4" r="1" fill="srgba(81.4023%,81.3901%,81.3855%,1)"/>
  <circle cx="7" cy="4" r="1" fill="srgba(81.4374%,81.5198%,81.5198%,1)"/>
  <circle cx="8" cy="4" r="1" fill="srgba(81.5549%,82.2278%,82.2278%,1)"/>
  <circle cx="9" cy="4" r="1" fill="srgba(81.5763%,82.1942%,82.1942%,1)"/>
  <circle cx="10" cy="4" r="1" fill="srgba(81.3779%,61.8448%,61.8448%,1)"/>
  <circle cx="11" cy="4" r="1" fill="srgba(80.8545%,7.21599%,7.21599%,1)"/>
  <circle cx="12" cy="4" r="1" fill="srgba(80.7813%,0%,0%,1)"/>
  <circle cx="13" cy="4" r="1" fill="srgba(80.7843%,0.0274662%,0.0274662%,1)"/>
  <circle cx="14" cy="4" r="1" fill="srgba(206,0,0,1)"/>
  <circle cx="15" cy="4" r="1" fill="srgba(206,0,0,1)"/>
  <circle cx="0" cy="5" r="1" fill="white"/>
  <circle cx="1" cy="5" r="1" fill="white"/>
  <circle cx="2" cy="5" r="1" fill="srgba(93.0037%,93.0022%,92.9976%,1)"/>
  <circle cx="3" cy="5" r="1" fill="srgba(80.8225%,80.2502%,80.1205%,1)"/>
  <circle cx="4" cy="5" r="1" fill="srgba(82.3316%,81.8784%,81.8341%,1)"/>
  <circle cx="5" cy="5" r="1" fill="srgba(84.6311%,84.6647%,84.6693%,1)"/>
  <circle cx="6" cy="5" r="1" fill="srgba(82.8382%,82.8382%,82.8382%,1)"/>
  <circle cx="7" cy="5" r="1" fill="srgba(81.3367%,81.3535%,81.3535%,1)"/>
  <circle cx="8" cy="5" r="1" fill="srgba(81.5549%,81.5824%,81.5824%,1)"/>
  <circle cx="9" cy="5" r="1" fill="srgba(81.5778%,82.3865%,82.3865%,1)"/>
  <circle cx="10" cy="5" r="1" fill="srgba(81.4618%,70.5684%,70.5684%,1)"/>
  <circle cx="11" cy="5" r="1" fill="srgba(80.8713%,9.10201%,9.10201%,1)"/>
  <circle cx="12" cy="5" r="1" fill="srgba(80.7782%,0%,0%,1)"/>
  <circle cx="13" cy="5" r="1" fill="srgba(206,0,0,1)"/>
  <circle cx="14" cy="5" r="1" fill="srgba(206,0,0,1)"/>
  <circle cx="15" cy="5" r="1" fill="srgba(206,0,0,1)"/>
  <circle cx="0" cy="6" r="1" fill="white"/>
  <circle cx="1" cy="6" r="1" fill="white"/>
  <circle cx="2" cy="6" r="1" fill="srgba(93.3211%,93.3211%,93.3181%,1)"/>
  <circle cx="3" cy="6" r="1" fill="srgba(82.7436%,82.6444%,82.6062%,1)"/>
  <circle cx="4" cy="6" r="1" fill="srgba(82.8046%,82.7481%,82.7436%,1)"/>
  <circle cx="5" cy="6" r="1" fill="srgba(90.1976%,90.2007%,90.2022%,1)"/>
  <circle cx="6" cy="6" r="1" fill="srgba(95.0042%,95.021%,95.021%,1)"/>
  <circle cx="7" cy="6" r="1" fill="srgba(86.1936%,85.9373%,85.9373%,1)"/>
  <circle cx="8" cy="6" r="1" fill="srgba(81.6892%,82.0127%,82.0127%,1)"/>
  <circle cx="9" cy="6" r="1" fill="srgba(81.5702%,83.1632%,83.1632%,1)"/>
  <circle cx="10" cy="6" r="1" fill="srgba(81.2528%,48.8991%,48.8991%,1)"/>
  <circle cx="11" cy="6" r="1" fill="srgba(80.795%,1.32753%,1.32753%,1)"/>
  <circle cx="12" cy="6" r="1" fill="srgba(80.7828%,0%,0%,1)"/>
  <circle cx="13" cy="6" r="1" fill="srgba(206,0,0,1)"/>
  <circle cx="14" cy="6" r="1" fill="srgba(206,0,0,1)"/>
  <circle cx="15" cy="6" r="1" fill="srgba(206,0,0,1)"/>
  <circle cx="0" cy="7" r="1" fill="white"/>
  <circle cx="1" cy="7" r="1" fill="white"/>
  <circle cx="2" cy="7" r="1" fill="srgba(93.1319%,93.1319%,93.1319%,1)"/>
  <circle cx="3" cy="7" r="1" fill="srgba(82.3865%,82.3896%,82.3926%,1)"/>
  <circle cx="4" cy="7" r="1" fill="srgba(82.4033%,82.4033%,82.4048%,1)"/>
  <circle cx="5" cy="7" r="1" fill="srgba(85.2918%,85.2918%,85.2918%,1)"/>
  <circle cx="6" cy="7" r="1" fill="srgba(98.5321%,98.9837%,98.9837%,1)"/>
  <circle cx="7" cy="7" r="1" fill="srgba(96.9223%,89.5598%,89.5598%,1)"/>
  <circle cx="8" cy="7" r="1" fill="srgba(83.1037%,49.723%,49.723%,1)"/>
  <circle cx="9" cy="7" r="1" fill="srgba(81.268%,62.8534%,62.8534%,1)"/>
  <circle cx="10" cy="7" r="1" fill="srgba(80.9216%,14.7616%,14.7616%,1)"/>
  <circle cx="11" cy="7" r="1" fill="srgba(80.7782%,0%,0%,1)"/>
  <circle cx="12" cy="7" r="1" fill="srgba(206,0,0,1)"/>
  <circle cx="13" cy="7" r="1" fill="srgba(206,0,0,1)"/>
  <circle cx="14" cy="7" r="1" fill="srgba(206,0,0,1)"/>
  <circle cx="15" cy="7" r="1" fill="srgba(206,0,0,1)"/>
  <circle cx="0" cy="8" r="1" fill="white"/>
  <circle cx="1" cy="8" r="1" fill="white"/>
  <circle cx="2" cy="8" r="1" fill="srgba(94.6761%,94.6761%,94.6761%,1)"/>
  <circle cx="3" cy="8" r="1" fill="srgba(83.0503%,83.0503%,83.0503%,1)"/>
  <circle cx="4" cy="8" r="1" fill="srgba(82.5925%,82.5925%,82.5925%,1)"/>
  <circle cx="5" cy="8" r="1" fill="srgba(81.6403%,81.6403%,81.6403%,1)"/>
  <circle cx="6" cy="8" r="1" fill="srgba(92.6146%,93.2448%,93.2448%,1)"/>
  <circle cx="7" cy="8" r="1" fill="srgba(97.8729%,87.8553%,87.8553%,1)"/>
  <circle cx="8" cy="8" r="1" fill="srgba(83.1434%,16.8093%,16.8093%,1)"/>
  <circle cx="9" cy="8" r="1" fill="srgba(81.0712%,44.6906%,44.6906%,1)"/>
  <circle cx="10" cy="8" r="1" fill="srgba(81.0132%,23.8972%,23.8972%,1)"/>
  <circle cx="11" cy="8" r="1" fill="srgba(80.7996%,1.68154%,1.68154%,1)"/>
  <circle cx="12" cy="8" r="1" fill="srgba(80.7874%,0.427253%,0.427253%,1)"/>
  <circle cx="13" cy="8" r="1" fill="srgba(80.7858%,0.199893%,0.199893%,1)"/>
  <circle cx="14" cy="8" r="1" fill="srgba(80.7843%,0.0198367%,0.0198367%,1)"/>
  <circle cx="15" cy="8" r="1" fill="srgba(206,0,0,1)"/>
  <circle cx="0" cy="9" r="1" fill="white"/>
  <circle cx="1" cy="9" r="1" fill="white"/>
  <circle cx="2" cy="9" r="1" fill="srgba(96.2112%,96.2112%,96.2112%,1)"/>
  <circle cx="3" cy="9" r="1" fill="srgba(83.1006%,83.1006%,83.1006%,1)"/>
  <circle cx="4" cy="9" r="1" fill="srgba(81.9043%,81.9043%,81.9043%,1)"/>
  <circle cx="5" cy="9" r="1" fill="srgba(81.3169%,81.3169%,81.3169%,1)"/>
  <circle cx="6" cy="9" r="1" fill="srgba(85.5238%,86.154%,86.154%,1)"/>
  <circle cx="7" cy="9" r="1" fill="srgba(96.0861%,86.0914%,86.0914%,1)"/>
  <circle cx="8" cy="9" r="1" fill="srgba(83.241%,16.3165%,16.3165%,1)"/>
  <circle cx="9" cy="9" r="1" fill="srgba(80.856%,22.1256%,22.1256%,1)"/>
  <circle cx="10" cy="9" r="1" fill="srgba(80.9781%,20.3815%,20.3815%,1)"/>
  <circle cx="11" cy="9" r="1" fill="srgba(80.8408%,6.16922%,6.16922%,1)"/>
  <circle cx="12" cy="9" r="1" fill="srgba(80.795%,1.58694%,1.58694%,1)"/>
  <circle cx="13" cy="9" r="1" fill="srgba(80.7904%,0.653086%,0.653086%,1)"/>
  <circle cx="14" cy="9" r="1" fill="srgba(80.7858%,0.0640879%,0.0640879%,1)"/>
  <circle cx="15" cy="9" r="1" fill="srgba(206,0,0,1)"/>
  <circle cx="0" cy="10" r="1" fill="white"/>
  <circle cx="1" cy="10" r="1" fill="white"/>
  <circle cx="2" cy="10" r="1" fill="srgba(95.9289%,95.9289%,95.9289%,1)"/>
  <circle cx="3" cy="10" r="1" fill="srgba(82.5818%,82.5818%,82.5818%,1)"/>
  <circle cx="4" cy="10" r="1" fill="srgba(81.4801%,81.4801%,81.4801%,1)"/>
  <circle cx="5" cy="10" r="1" fill="srgba(81.5488%,81.5488%,81.5488%,1)"/>
  <circle cx="6" cy="10" r="1" fill="srgba(81.8875%,82.5193%,82.5193%,1)"/>
  <circle cx="7" cy="10" r="1" fill="srgba(90.2892%,80.5447%,80.5447%,1)"/>
  <circle cx="8" cy="10" r="1" fill="srgba(83.3005%,12.2637%,12.2637%,1)"/>
  <circle cx="9" cy="10" r="1" fill="srgba(80.6241%,0%,0%,1)"/>
  <circle cx="10" cy="10" r="1" fill="srgba(80.7752%,0.0534066%,0.0534066%,1)"/>
  <circle cx="11" cy="10" r="1" fill="srgba(80.7965%,1.38094%,1.38094%,1)"/>
  <circle cx="12" cy="10" r="1" fill="srgba(80.7858%,0.12665%,0.12665%,1)"/>
  <circle cx="13" cy="10" r="1" fill="srgba(206,0,0,1)"/>
  <circle cx="14" cy="10" r="1" fill="srgba(206,0,0,1)"/>
  <circle cx="15" cy="10" r="1" fill="srgba(206,0,0,1)"/>
  <circle cx="0" cy="11" r="1" fill="white"/>
  <circle cx="1" cy="11" r="1" fill="white"/>
  <circle cx="2" cy="11" r="1" fill="srgba(95.8755%,95.8755%,95.8755%,1)"/>
  <circle cx="3" cy="11" r="1" fill="srgba(82.6108%,82.6108%,82.6108%,1)"/>
  <circle cx="4" cy="11" r="1" fill="srgba(81.5015%,81.5015%,81.5015%,1)"/>
  <circle cx="5" cy="11" r="1" fill="srgba(81.5702%,81.5702%,81.5702%,1)"/>
  <circle cx="6" cy="11" r="1" fill="srgba(81.4725%,82.0233%,82.0233%,1)"/>
  <circle cx="7" cy="11" r="1" fill="srgba(83.4638%,74.934%,74.934%,1)"/>
  <circle cx="8" cy="11" r="1" fill="srgba(81.9623%,12.8115%,12.8115%,1)"/>
  <circle cx="9" cy="11" r="1" fill="srgba(80.705%,0%,0%,1)"/>
  <circle cx="10" cy="11" r="1" fill="srgba(80.7797%,0.0335698%,0.0335698%,1)"/>
  <circle cx="11" cy="11" r="1" fill="srgba(80.7874%,0.885023%,0.885023%,1)"/>
  <circle cx="12" cy="11" r="1" fill="srgba(80.7782%,0.0823987%,0.0823987%,1)"/>
  <circle cx="13" cy="11" r="1" fill="srgba(206,0,0,1)"/>
  <circle cx="14" cy="11" r="1" fill="srgba(206,0,0,1)"/>
  <circle cx="15" cy="11" r="1" fill="srgba(206,0,0,1)"/>
  <circle cx="0" cy="12" r="1" fill="white"/>
  <circle cx="1" cy="12" r="1" fill="white"/>
  <circle cx="2" cy="12" r="1" fill="srgba(95.8251%,95.8251%,95.8251%,1)"/>
  <circle cx="3" cy="12" r="1" fill="srgba(82.5879%,82.5879%,82.5879%,1)"/>
  <circle cx="4" cy="12" r="1" fill="srgba(81.503%,81.503%,81.503%,1)"/>
  <circle cx="5" cy="12" r="1" fill="srgba(208,208,208,1)"/>
  <circle cx="6" cy="12" r="1" fill="srgba(81.4923%,81.9669%,81.9669%,1)"/>
  <circle cx="7" cy="12" r="1" fill="srgba(84.181%,76.2585%,76.2585%,1)"/>
  <circle cx="8" cy="12" r="1" fill="srgba(82.3362%,38.3597%,38.3597%,1)"/>
  <circle cx="9" cy="12" r="1" fill="srgba(81.1627%,46.7308%,46.7308%,1)"/>
  <circle cx="10" cy="12" r="1" fill="srgba(81.2421%,46.865%,46.865%,1)"/>
  <circle cx="11" cy="12" r="1" fill="srgba(81.2467%,47.6905%,47.6905%,1)"/>
  <circle cx="12" cy="12" r="1" fill="srgba(81.088%,31.8853%,31.8853%,1)"/>
  <circle cx="13" cy="12" r="1" fill="srgba(80.7904%,1.10628%,1.10628%,1)"/>
  <circle cx="14" cy="12" r="1" fill="srgba(80.7828%,0%,0%,1)"/>
  <circle cx="15" cy="12" r="1" fill="srgba(206,0,0,1)"/>
  <circle cx="0" cy="13" r="1" fill="white"/>
  <circle cx="1" cy="13" r="1" fill="white"/>
  <circle cx="2" cy="13" r="1" fill="srgba(95.877%,95.877%,95.877%,1)"/>
  <circle cx="3" cy="13" r="1" fill="srgba(82.5849%,82.5849%,82.5849%,1)"/>
  <circle cx="4" cy="13" r="1" fill="srgba(81.5015%,81.5015%,81.5015%,1)"/>
  <circle cx="5" cy="13" r="1" fill="srgba(81.5442%,81.5442%,81.5442%,1)"/>
  <circle cx="6" cy="13" r="1" fill="srgba(81.2955%,81.7441%,81.7441%,1)"/>
  <circle cx="7" cy="13" r="1" fill="srgba(82.3377%,74.4991%,74.4991%,1)"/>
  <circle cx="8" cy="13" r="1" fill="srgba(81.709%,34.0414%,34.0414%,1)"/>
  <circle cx="9" cy="13" r="1" fill="srgba(81.471%,75.3094%,75.3094%,1)"/>
  <circle cx="10" cy="13" r="1" fill="srgba(81.5869%,83.3738%,83.3738%,1)"/>
  <circle cx="11" cy="13" r="1" fill="srgba(81.5869%,83.3906%,83.3906%,1)"/>
  <circle cx="12" cy="13" r="1" fill="srgba(81.5106%,75.5001%,75.5001%,1)"/>
  <circle cx="13" cy="13" r="1" fill="srgba(80.9873%,21.4298%,21.4298%,1)"/>
  <circle cx="14" cy="13" r="1" fill="srgba(80.7706%,0%,0%,1)"/>
  <circle cx="15" cy="13" r="1" fill="srgba(80.7828%,0%,0%,1)"/>
  <circle cx="0" cy="14" r="1" fill="white"/>
  <circle cx="1" cy="14" r="1" fill="white"/>
  <circle cx="2" cy="14" r="1" fill="srgba(95.8877%,95.8877%,95.8877%,1)"/>
  <circle cx="3" cy="14" r="1" fill="srgba(82.5818%,82.5818%,82.5818%,1)"/>
  <circle cx="4" cy="14" r="1" fill="srgba(81.5457%,81.5457%,81.5457%,1)"/>
  <circle cx="5" cy="14" r="1" fill="srgba(83.3722%,83.3722%,83.3722%,1)"/>
  <circle cx="6" cy="14" r="1" fill="srgba(90.0404%,90.3899%,90.3899%,1)"/>
  <circle cx="7" cy="14" r="1" fill="srgba(89.5933%,83.621%,83.621%,1)"/>
  <circle cx="8" cy="14" r="1" fill="srgba(82.2126%,36.9451%,36.9451%,1)"/>
  <circle cx="9" cy="14" r="1" fill="srgba(81.387%,69.9519%,69.9519%,1)"/>
  <circle cx="10" cy="14" r="1" fill="srgba(81.5747%,82.179%,82.179%,1)"/>
  <circle cx="11" cy="14" r="1" fill="srgba(81.5686%,81.5564%,81.5564%,1)"/>
  <circle cx="12" cy="14" r="1" fill="srgba(81.5763%,82.3331%,82.3331%,1)"/>
  <circle cx="13" cy="14" r="1" fill="srgba(81.4389%,68.1544%,68.1544%,1)"/>
  <circle cx="14" cy="14" r="1" fill="srgba(80.9979%,22.1714%,22.1714%,1)"/>
  <circle cx="15" cy="14" r="1" fill="srgba(80.8011%,1.78378%,1.78378%,1)"/>
  <circle cx="0" cy="15" r="1" fill="white"/>
  <circle cx="1" cy="15" r="1" fill="white"/>
  <circle cx="2" cy="15" r="1" fill="srgba(95.6695%,95.6695%,95.6695%,1)"/>
  <circle cx="3" cy="15" r="1" fill="srgba(82.5315%,82.5315%,82.5315%,1)"/>
  <circle cx="4" cy="15" r="1" fill="srgba(81.7227%,81.7227%,81.7227%,1)"/>
  <circle cx="5" cy="15" r="1" fill="srgba(82.356%,82.356%,82.356%,1)"/>
  <circle cx="6" cy="15" r="1" fill="srgba(93.994%,94.6242%,94.6242%,1)"/>
  <circle cx="7" cy="15" r="1" fill="srgba(97.8759%,87.3808%,87.3808%,1)"/>
  <circle cx="8" cy="15" r="1" fill="srgba(83.2349%,25.4047%,25.4047%,1)"/>
  <circle cx="9" cy="15" r="1" fill="srgba(81.3291%,71.4961%,71.4961%,1)"/>
  <circle cx="10" cy="15" r="1" fill="srgba(81.5747%,82.1469%,82.1469%,1)"/>
  <circle cx="11" cy="15" r="1" fill="srgba(208,208,208,1)"/>
  <circle cx="12" cy="15" r="1" fill="srgba(81.5686%,81.5579%,81.5579%,1)"/>
  <circle cx="13" cy="15" r="1" fill="srgba(81.5763%,82.4125%,82.4125%,1)"/>
  <circle cx="14" cy="15" r="1" fill="srgba(81.5015%,74.5769%,74.5769%,1)"/>
  <circle cx="15" cy="15" r="1" fill="srgba(81.2665%,50.277%,50.277%,1)"/>
</svg>
