<?xml version="1.0" standalone="no"?>
<!DOCTYPE svg PUBLIC "-//W3C//DTD SVG 20010904//EN"
  "http://www.w3.org/TR/2001/REC-SVG-20010904/DTD/svg10.dtd">
<svg width="16" height="16">
  <circle cx="0" cy="0" r="1" fill="srgba(210,16,52,1)"/>
  <circle cx="1" cy="0" r="1" fill="srgba(210,16,52,1)"/>
  <circle cx="2" cy="0" r="1" fill="srgba(210,16,52,1)"/>
  <circle cx="3" cy="0" r="1" fill="srgba(210,16,52,1)"/>
  <circle cx="4" cy="0" r="1" fill="srgba(210,16,52,1)"/>
  <circle cx="5" cy="0" r="1" fill="srgba(210,16,52,1)"/>
  <circle cx="6" cy="0" r="1" fill="srgba(210,16,52,1)"/>
  <circle cx="7" cy="0" r="1" fill="srgba(210,16,52,1)"/>
  <circle cx="8" cy="0" r="1" fill="srgba(210,16,52,1)"/>
  <circle cx="9" cy="0" r="1" fill="srgba(210,16,52,1)"/>
  <circle cx="10" cy="0" r="1" fill="srgba(210,16,52,1)"/>
  <circle cx="11" cy="0" r="1" fill="srgba(210,16,52,1)"/>
  <circle cx="12" cy="0" r="1" fill="srgba(210,16,52,1)"/>
  <circle cx="13" cy="0" r="1" fill="srgba(210,16,52,1)"/>
  <circle cx="14" cy="0" r="1" fill="srgba(210,16,52,1)"/>
  <circle cx="15" cy="0" r="1" fill="srgba(210,16,52,1)"/>
  <circle cx="0" cy="1" r="1" fill="srgba(210,16,52,1)"/>
  <circle cx="1" cy="1" r="1" fill="srgba(210,16,52,1)"/>
  <circle cx="2" cy="1" r="1" fill="srgba(210,16,52,1)"/>
  <circle cx="3" cy="1" r="1" fill="srgba(210,16,52,1)"/>
  <circle cx="4" cy="1" r="1" fill="srgba(210,16,52,1)"/>
  <circle cx="5" cy="1" r="1" fill="srgba(210,16,52,1)"/>
  <circle cx="6" cy="1" r="1" fill="srgba(210,16,52,1)"/>
  <circle cx="7" cy="1" r="1" fill="srgba(210,16,52,1)"/>
  <circle cx="8" cy="1" r="1" fill="srgba(210,16,52,1)"/>
  <circle cx="9" cy="1" r="1" fill="srgba(210,16,52,1)"/>
  <circle cx="10" cy="1" r="1" fill="srgba(210,16,52,1)"/>
  <circle cx="11" cy="1" r="1" fill="srgba(210,16,52,1)"/>
  <circle cx="12" cy="1" r="1" fill="srgba(210,16,52,1)"/>
  <circle cx="13" cy="1" r="1" fill="srgba(210,16,52,1)"/>
  <circle cx="14" cy="1" r="1" fill="srgba(210,16,52,1)"/>
  <circle cx="15" cy="1" r="1" fill="srgba(210,16,52,1)"/>
  <circle cx="0" cy="2" r="1" fill="srgba(210,16,52,1)"/>
  <circle cx="1" cy="2" r="1" fill="srgba(210,16,52,1)"/>
  <circle cx="2" cy="2" r="1" fill="srgba(82.3484%,6.27756%,20.3922%,1)"/>
  <circle cx="3" cy="2" r="1" fill="srgba(82.4308%,6.23331%,20.3906%,1)"/>
  <circle cx="4" cy="2" r="1" fill="srgba(82.9191%,5.97848%,20.3754%,1)"/>
  <circle cx="5" cy="2" r="1" fill="srgba(83.0014%,5.93423%,20.3738%,1)"/>
  <circle cx="6" cy="2" r="1" fill="srgba(82.9969%,5.93729%,20.3738%,1)"/>
  <circle cx="7" cy="2" r="1" fill="srgba(82.9969%,5.93729%,20.3738%,1)"/>
  <circle cx="8" cy="2" r="1" fill="srgba(82.9969%,5.93729%,20.3738%,1)"/>
  <circle cx="9" cy="2" r="1" fill="srgba(82.9969%,5.93729%,20.3738%,1)"/>
  <circle cx="10" cy="2" r="1" fill="srgba(83.0014%,5.93423%,20.3738%,1)"/>
  <circle cx="11" cy="2" r="1" fill="srgba(82.9191%,5.97848%,20.3754%,1)"/>
  <circle cx="12" cy="2" r="1" fill="srgba(82.4308%,6.23331%,20.3906%,1)"/>
  <circle cx="13" cy="2" r="1" fill="srgba(82.3484%,6.27756%,20.3922%,1)"/>
  <circle cx="14" cy="2" r="1" fill="srgba(210,16,52,1)"/>
  <circle cx="15" cy="2" r="1" fill="srgba(210,16,52,1)"/>
  <circle cx="0" cy="3" r="1" fill="srgba(210,16,52,1)"/>
  <circle cx="1" cy="3" r="1" fill="srgba(210,16,52,1)"/>
  <circle cx="2" cy="3" r="1" fill="srgba(82.4308%,6.23331%,20.3906%,1)"/>
  <circle cx="3" cy="3" r="1" fill="srgba(81.1551%,6.90166%,20.4257%,1)"/>
  <circle cx="4" cy="3" r="1" fill="srgba(73.6172%,10.8507%,20.6424%,1)"/>
  <circle cx="5" cy="3" r="1" fill="srgba(72.3415%,11.519%,20.6775%,1)"/>
  <circle cx="6" cy="3" r="1" fill="srgba(72.4193%,11.4778%,20.676%,1)"/>
  <circle cx="7" cy="3" r="1" fill="srgba(72.4193%,11.4778%,20.676%,1)"/>
  <circle cx="8" cy="3" r="1" fill="srgba(72.4025%,11.4687%,20.6622%,1)"/>
  <circle cx="9" cy="3" r="1" fill="srgba(72.4086%,11.4717%,20.6683%,1)"/>
  <circle cx="10" cy="3" r="1" fill="srgba(72.343%,11.519%,20.679%,1)"/>
  <circle cx="11" cy="3" r="1" fill="srgba(73.6172%,10.8507%,20.6424%,1)"/>
  <circle cx="12" cy="3" r="1" fill="srgba(81.1551%,6.90166%,20.4257%,1)"/>
  <circle cx="13" cy="3" r="1" fill="srgba(82.4308%,6.23331%,20.3906%,1)"/>
  <circle cx="14" cy="3" r="1" fill="srgba(210,16,52,1)"/>
  <circle cx="15" cy="3" r="1" fill="srgba(210,16,52,1)"/>
  <circle cx="0" cy="4" r="1" fill="srgba(210,16,52,1)"/>
  <circle cx="1" cy="4" r="1" fill="srgba(210,16,52,1)"/>
  <circle cx="2" cy="4" r="1" fill="srgba(82.9191%,5.97848%,20.3754%,1)"/>
  <circle cx="3" cy="4" r="1" fill="srgba(73.6187%,10.8492%,20.6424%,1)"/>
  <circle cx="4" cy="4" r="1" fill="srgba(18.6679%,39.6338%,22.211%,1)"/>
  <circle cx="5" cy="4" r="1" fill="srgba(9.37209%,44.5075%,22.4811%,1)"/>
  <circle cx="6" cy="4" r="1" fill="srgba(9.85733%,44.1703%,22.4033%,1)"/>
  <circle cx="7" cy="4" r="1" fill="srgba(8.94026%,43.7064%,21.6953%,1)"/>
  <circle cx="8" cy="4" r="1" fill="srgba(10.5959%,44.5441%,22.9725%,1)"/>
  <circle cx="9" cy="4" r="1" fill="srgba(10.3441%,44.416%,22.7787%,1)"/>
  <circle cx="10" cy="4" r="1" fill="srgba(9.34768%,44.4938%,22.4613%,1)"/>
  <circle cx="11" cy="4" r="1" fill="srgba(18.6679%,39.6338%,22.211%,1)"/>
  <circle cx="12" cy="4" r="1" fill="srgba(73.6187%,10.8492%,20.6424%,1)"/>
  <circle cx="13" cy="4" r="1" fill="srgba(82.9191%,5.97848%,20.3754%,1)"/>
  <circle cx="14" cy="4" r="1" fill="srgba(210,16,52,1)"/>
  <circle cx="15" cy="4" r="1" fill="srgba(210,16,52,1)"/>
  <circle cx="0" cy="5" r="1" fill="srgba(210,16,52,1)"/>
  <circle cx="1" cy="5" r="1" fill="srgba(210,16,52,1)"/>
  <circle cx="2" cy="5" r="1" fill="srgba(82.9969%,5.93423%,20.3738%,1)"/>
  <circle cx="3" cy="5" r="1" fill="srgba(72.4193%,11.5175%,20.6775%,1)"/>
  <circle cx="4" cy="5" r="1" fill="srgba(9.93362%,44.506%,22.4781%,1)"/>
  <circle cx="5" cy="5" r="1" fill="srgba(0%,50.0542%,22.7298%,1)"/>
  <circle cx="6" cy="5" r="1" fill="srgba(0.672923%,49.9336%,23.0442%,1)"/>
  <circle cx="7" cy="5" r="1" fill="srgba(23.563%,61.9165%,41.3474%,1)"/>
  <circle cx="8" cy="5" r="1" fill="srgba(25.0904%,62.771%,42.6535%,1)"/>
  <circle cx="9" cy="5" r="1" fill="srgba(2.13321%,50.956%,24.6067%,1)"/>
  <circle cx="10" cy="5" r="1" fill="srgba(0%,50.0099%,22.6612%,1)"/>
  <circle cx="11" cy="5" r="1" fill="srgba(9.93362%,44.506%,22.4765%,1)"/>
  <circle cx="12" cy="5" r="1" fill="srgba(72.4193%,11.5175%,20.6775%,1)"/>
  <circle cx="13" cy="5" r="1" fill="srgba(82.9969%,5.93423%,20.3738%,1)"/>
  <circle cx="14" cy="5" r="1" fill="srgba(210,16,52,1)"/>
  <circle cx="15" cy="5" r="1" fill="srgba(210,16,52,1)"/>
  <circle cx="0" cy="6" r="1" fill="srgba(210,16,52,1)"/>
  <circle cx="1" cy="6" r="1" fill="srgba(210,16,52,1)"/>
  <circle cx="2" cy="6" r="1" fill="srgba(82.9969%,5.93729%,20.3738%,1)"/>
  <circle cx="3" cy="6" r="1" fill="srgba(72.4193%,11.4778%,20.676%,1)"/>
  <circle cx="4" cy="6" r="1" fill="srgba(9.9321%,44.2084%,22.4613%,1)"/>
  <circle cx="5" cy="6" r="1" fill="srgba(0%,49.1768%,21.8906%,1)"/>
  <circle cx="6" cy="6" r="1" fill="srgba(26.5599%,62.8092%,43.2029%,1)"/>
  <circle cx="7" cy="6" r="1" fill="srgba(61.4939%,80.5203%,70.251%,1)"/>
  <circle cx="8" cy="6" r="1" fill="srgba(7.89654%,53.4066%,28.8457%,1)"/>
  <circle cx="9" cy="6" r="1" fill="srgba(0%,49.2515%,22.501%,1)"/>
  <circle cx="10" cy="6" r="1" fill="srgba(0%,49.7475%,22.7604%,1)"/>
  <circle cx="11" cy="6" r="1" fill="srgba(9.93362%,44.2084%,22.4613%,1)"/>
  <circle cx="12" cy="6" r="1" fill="srgba(72.4193%,11.4778%,20.676%,1)"/>
  <circle cx="13" cy="6" r="1" fill="srgba(82.9969%,5.93729%,20.3738%,1)"/>
  <circle cx="14" cy="6" r="1" fill="srgba(210,16,52,1)"/>
  <circle cx="15" cy="6" r="1" fill="srgba(210,16,52,1)"/>
  <circle cx="0" cy="7" r="1" fill="srgba(210,16,52,1)"/>
  <circle cx="1" cy="7" r="1" fill="srgba(210,16,52,1)"/>
  <circle cx="2" cy="7" r="1" fill="srgba(82.9969%,5.93729%,20.3738%,1)"/>
  <circle cx="3" cy="7" r="1" fill="srgba(72.4193%,11.4778%,20.676%,1)"/>
  <circle cx="4" cy="7" r="1" fill="srgba(9.91379%,44.1993%,22.446%,1)"/>
  <circle cx="5" cy="7" r="1" fill="srgba(0%,49.5491%,22.4598%,1)"/>
  <circle cx="6" cy="7" r="1" fill="srgba(58.3032%,78.9166%,67.8035%,1)"/>
  <circle cx="7" cy="7" r="1" fill="srgba(42.797%,70.8507%,55.4818%,1)"/>
  <circle cx="8" cy="7" r="1" fill="srgba(0%,48.426%,21.239%,1)"/>
  <circle cx="9" cy="7" r="1" fill="srgba(0%,49.4194%,22.7573%,1)"/>
  <circle cx="10" cy="7" r="1" fill="srgba(0%,49.749%,22.7634%,1)"/>
  <circle cx="11" cy="7" r="1" fill="srgba(9.93362%,44.2084%,22.4613%,1)"/>
  <circle cx="12" cy="7" r="1" fill="srgba(72.4193%,11.4778%,20.676%,1)"/>
  <circle cx="13" cy="7" r="1" fill="srgba(82.9969%,5.93729%,20.3738%,1)"/>
  <circle cx="14" cy="7" r="1" fill="srgba(210,16,52,1)"/>
  <circle cx="15" cy="7" r="1" fill="srgba(210,16,52,1)"/>
  <circle cx="0" cy="8" r="1" fill="srgba(210,16,52,1)"/>
  <circle cx="1" cy="8" r="1" fill="srgba(210,16,52,1)"/>
  <circle cx="2" cy="8" r="1" fill="srgba(82.9969%,5.93729%,20.3738%,1)"/>
  <circle cx="3" cy="8" r="1" fill="srgba(72.4193%,11.4778%,20.676%,1)"/>
  <circle cx="4" cy="8" r="1" fill="srgba(9.91379%,44.1993%,22.446%,1)"/>
  <circle cx="5" cy="8" r="1" fill="srgba(0%,49.5476%,22.4552%,1)"/>
  <circle cx="6" cy="8" r="1" fill="srgba(58.2513%,78.8891%,67.7623%,1)"/>
  <circle cx="7" cy="8" r="1" fill="srgba(42.8412%,70.8721%,55.5169%,1)"/>
  <circle cx="8" cy="8" r="1" fill="srgba(0%,48.426%,21.239%,1)"/>
  <circle cx="9" cy="8" r="1" fill="srgba(0%,49.4194%,22.7573%,1)"/>
  <circle cx="10" cy="8" r="1" fill="srgba(0%,49.749%,22.7634%,1)"/>
  <circle cx="11" cy="8" r="1" fill="srgba(9.93362%,44.2084%,22.4613%,1)"/>
  <circle cx="12" cy="8" r="1" fill="srgba(72.4193%,11.4778%,20.676%,1)"/>
  <circle cx="13" cy="8" r="1" fill="srgba(82.9969%,5.93729%,20.3738%,1)"/>
  <circle cx="14" cy="8" r="1" fill="srgba(210,16,52,1)"/>
  <circle cx="15" cy="8" r="1" fill="srgba(210,16,52,1)"/>
  <circle cx="0" cy="9" r="1" fill="srgba(210,16,52,1)"/>
  <circle cx="1" cy="9" r="1" fill="srgba(210,16,52,1)"/>
  <circle cx="2" cy="9" r="1" fill="srgba(82.9969%,5.93729%,20.3738%,1)"/>
  <circle cx="3" cy="9" r="1" fill="srgba(72.4193%,11.4778%,20.676%,1)"/>
  <circle cx="4" cy="9" r="1" fill="srgba(9.9321%,44.2084%,22.4613%,1)"/>
  <circle cx="5" cy="9" r="1" fill="srgba(0%,49.1783%,21.8921%,1)"/>
  <circle cx="6" cy="9" r="1" fill="srgba(26.4698%,62.7619%,43.1312%,1)"/>
  <circle cx="7" cy="9" r="1" fill="srgba(61.5015%,80.5234%,70.2586%,1)"/>
  <circle cx="8" cy="9" r="1" fill="srgba(7.94842%,53.4325%,28.8853%,1)"/>
  <circle cx="9" cy="9" r="1" fill="srgba(0%,49.2515%,22.501%,1)"/>
  <circle cx="10" cy="9" r="1" fill="srgba(0%,49.7475%,22.7604%,1)"/>
  <circle cx="11" cy="9" r="1" fill="srgba(9.93362%,44.2084%,22.4613%,1)"/>
  <circle cx="12" cy="9" r="1" fill="srgba(72.4193%,11.4778%,20.676%,1)"/>
  <circle cx="13" cy="9" r="1" fill="srgba(82.9969%,5.93729%,20.3738%,1)"/>
  <circle cx="14" cy="9" r="1" fill="srgba(210,16,52,1)"/>
  <circle cx="15" cy="9" r="1" fill="srgba(210,16,52,1)"/>
  <circle cx="0" cy="10" r="1" fill="srgba(210,16,52,1)"/>
  <circle cx="1" cy="10" r="1" fill="srgba(210,16,52,1)"/>
  <circle cx="2" cy="10" r="1" fill="srgba(82.9969%,5.93423%,20.3738%,1)"/>
  <circle cx="3" cy="10" r="1" fill="srgba(72.4193%,11.5175%,20.6775%,1)"/>
  <circle cx="4" cy="10" r="1" fill="srgba(9.93362%,44.506%,22.4781%,1)"/>
  <circle cx="5" cy="10" r="1" fill="srgba(0%,50.0557%,22.7314%,1)"/>
  <circle cx="6" cy="10" r="1" fill="srgba(0.65919%,49.926%,23.0335%,1)"/>
  <circle cx="7" cy="10" r="1" fill="srgba(23.4684%,61.8692%,41.2726%,1)"/>
  <circle cx="8" cy="10" r="1" fill="srgba(25.1408%,62.797%,42.6902%,1)"/>
  <circle cx="9" cy="10" r="1" fill="srgba(2.15763%,50.9682%,24.6265%,1)"/>
  <circle cx="10" cy="10" r="1" fill="srgba(0%,50.0099%,22.6612%,1)"/>
  <circle cx="11" cy="10" r="1" fill="srgba(9.93362%,44.506%,22.4765%,1)"/>
  <circle cx="12" cy="10" r="1" fill="srgba(72.4193%,11.5175%,20.6775%,1)"/>
  <circle cx="13" cy="10" r="1" fill="srgba(82.9969%,5.93423%,20.3738%,1)"/>
  <circle cx="14" cy="10" r="1" fill="srgba(210,16,52,1)"/>
  <circle cx="15" cy="10" r="1" fill="srgba(210,16,52,1)"/>
  <circle cx="0" cy="11" r="1" fill="srgba(210,16,52,1)"/>
  <circle cx="1" cy="11" r="1" fill="srgba(210,16,52,1)"/>
  <circle cx="2" cy="11" r="1" fill="srgba(82.9191%,5.97848%,20.3754%,1)"/>
  <circle cx="3" cy="11" r="1" fill="srgba(73.6187%,10.8492%,20.6424%,1)"/>
  <circle cx="4" cy="11" r="1" fill="srgba(18.6679%,39.6338%,22.211%,1)"/>
  <circle cx="5" cy="11" r="1" fill="srgba(9.37209%,44.5075%,22.4811%,1)"/>
  <circle cx="6" cy="11" r="1" fill="srgba(9.85885%,44.1703%,22.4033%,1)"/>
  <circle cx="7" cy="11" r="1" fill="srgba(8.94179%,43.7064%,21.6953%,1)"/>
  <circle cx="8" cy="11" r="1" fill="srgba(10.5913%,44.5411%,22.9694%,1)"/>
  <circle cx="9" cy="11" r="1" fill="srgba(10.3456%,44.4175%,22.7802%,1)"/>
  <circle cx="10" cy="11" r="1" fill="srgba(9.34615%,44.4938%,22.4613%,1)"/>
  <circle cx="11" cy="11" r="1" fill="srgba(18.6679%,39.6338%,22.211%,1)"/>
  <circle cx="12" cy="11" r="1" fill="srgba(73.6187%,10.8492%,20.6424%,1)"/>
  <circle cx="13" cy="11" r="1" fill="srgba(82.9191%,5.97848%,20.3754%,1)"/>
  <circle cx="14" cy="11" r="1" fill="srgba(210,16,52,1)"/>
  <circle cx="15" cy="11" r="1" fill="srgba(210,16,52,1)"/>
  <circle cx="0" cy="12" r="1" fill="srgba(210,16,52,1)"/>
  <circle cx="1" cy="12" r="1" fill="srgba(210,16,52,1)"/>
  <circle cx="2" cy="12" r="1" fill="srgba(82.4308%,6.23331%,20.3906%,1)"/>
  <circle cx="3" cy="12" r="1" fill="srgba(81.1551%,6.90166%,20.4257%,1)"/>
  <circle cx="4" cy="12" r="1" fill="srgba(73.6172%,10.8507%,20.6424%,1)"/>
  <circle cx="5" cy="12" r="1" fill="srgba(72.3415%,11.519%,20.6775%,1)"/>
  <circle cx="6" cy="12" r="1" fill="srgba(72.4193%,11.4778%,20.676%,1)"/>
  <circle cx="7" cy="12" r="1" fill="srgba(72.4193%,11.4778%,20.676%,1)"/>
  <circle cx="8" cy="12" r="1" fill="srgba(72.4025%,11.4687%,20.6622%,1)"/>
  <circle cx="9" cy="12" r="1" fill="srgba(72.4086%,11.4717%,20.6668%,1)"/>
  <circle cx="10" cy="12" r="1" fill="srgba(72.343%,11.519%,20.679%,1)"/>
  <circle cx="11" cy="12" r="1" fill="srgba(73.6172%,10.8507%,20.6424%,1)"/>
  <circle cx="12" cy="12" r="1" fill="srgba(81.1551%,6.90166%,20.4257%,1)"/>
  <circle cx="13" cy="12" r="1" fill="srgba(82.4308%,6.23331%,20.3906%,1)"/>
  <circle cx="14" cy="12" r="1" fill="srgba(210,16,52,1)"/>
  <circle cx="15" cy="12" r="1" fill="srgba(210,16,52,1)"/>
  <circle cx="0" cy="13" r="1" fill="srgba(210,16,52,1)"/>
  <circle cx="1" cy="13" r="1" fill="srgba(210,16,52,1)"/>
  <circle cx="2" cy="13" r="1" fill="srgba(82.3484%,6.27756%,20.3922%,1)"/>
  <circle cx="3" cy="13" r="1" fill="srgba(82.4308%,6.23331%,20.3906%,1)"/>
  <circle cx="4" cy="13" r="1" fill="srgba(82.9191%,5.97848%,20.3754%,1)"/>
  <circle cx="5" cy="13" r="1" fill="srgba(83.0014%,5.93423%,20.3738%,1)"/>
  <circle cx="6" cy="13" r="1" fill="srgba(82.9969%,5.93729%,20.3738%,1)"/>
  <circle cx="7" cy="13" r="1" fill="srgba(82.9969%,5.93729%,20.3738%,1)"/>
  <circle cx="8" cy="13" r="1" fill="srgba(82.9969%,5.93729%,20.3738%,1)"/>
  <circle cx="9" cy="13" r="1" fill="srgba(82.9969%,5.93729%,20.3738%,1)"/>
  <circle cx="10" cy="13" r="1" fill="srgba(83.0014%,5.93423%,20.3738%,1)"/>
  <circle cx="11" cy="13" r="1" fill="srgba(82.9191%,5.97848%,20.3754%,1)"/>
  <circle cx="12" cy="13" r="1" fill="srgba(82.4308%,6.23331%,20.3906%,1)"/>
  <circle cx="13" cy="13" r="1" fill="srgba(82.3484%,6.27756%,20.3922%,1)"/>
  <circle cx="14" cy="13" r="1" fill="srgba(210,16,52,1)"/>
  <circle cx="15" cy="13" r="1" fill="srgba(210,16,52,1)"/>
  <circle cx="0" cy="14" r="1" fill="srgba(210,16,52,1)"/>
  <circle cx="1" cy="14" r="1" fill="srgba(210,16,52,1)"/>
  <circle cx="2" cy="14" r="1" fill="srgba(210,16,52,1)"/>
  <circle cx="3" cy="14" r="1" fill="srgba(210,16,52,1)"/>
  <circle cx="4" cy="14" r="1" fill="srgba(210,16,52,1)"/>
  <circle cx="5" cy="14" r="1" fill="srgba(210,16,52,1)"/>
  <circle cx="6" cy="14" r="1" fill="srgba(210,16,52,1)"/>
  <circle cx="7" cy="14" r="1" fill="srgba(210,16,52,1)"/>
  <circle cx="8" cy="14" r="1" fill="srgba(210,16,52,1)"/>
  <circle cx="9" cy="14" r="1" fill="srgba(210,16,52,1)"/>
  <circle cx="10" cy="14" r="1" fill="srgba(210,16,52,1)"/>
  <circle cx="11" cy="14" r="1" fill="srgba(210,16,52,1)"/>
  <circle cx="12" cy="14" r="1" fill="srgba(210,16,52,1)"/>
  <circle cx="13" cy="14" r="1" fill="srgba(210,16,52,1)"/>
  <circle cx="14" cy="14" r="1" fill="srgba(210,16,52,1)"/>
  <circle cx="15" cy="14" r="1" fill="srgba(210,16,52,1)"/>
  <circle cx="0" cy="15" r="1" fill="srgba(210,16,52,1)"/>
  <circle cx="1" cy="15" r="1" fill="srgba(210,16,52,1)"/>
  <circle cx="2" cy="15" r="1" fill="srgba(210,16,52,1)"/>
  <circle cx="3" cy="15" r="1" fill="srgba(210,16,52,1)"/>
  <circle cx="4" cy="15" r="1" fill="srgba(210,16,52,1)"/>
  <circle cx="5" cy="15" r="1" fill="srgba(210,16,52,1)"/>
  <circle cx="6" cy="15" r="1" fill="srgba(210,16,52,1)"/>
  <circle cx="7" cy="15" r="1" fill="srgba(210,16,52,1)"/>
  <circle cx="8" cy="15" r="1" fill="srgba(210,16,52,1)"/>
  <circle cx="9" cy="15" r="1" fill="srgba(210,16,52,1)"/>
  <circle cx="10" cy="15" r="1" fill="srgba(210,16,52,1)"/>
  <circle cx="11" cy="15" r="1" fill="srgba(210,16,52,1)"/>
  <circle cx="12" cy="15" r="1" fill="srgba(210,16,52,1)"/>
  <circle cx="13" cy="15" r="1" fill="srgba(210,16,52,1)"/>
  <circle cx="14" cy="15" r="1" fill="srgba(210,16,52,1)"/>
  <circle cx="15" cy="15" r="1" fill="srgba(210,16,52,1)"/>
</svg>
