<?xml version="1.0" standalone="no"?>
<!DOCTYPE svg PUBLIC "-//W3C//DTD SVG 20010904//EN"
  "http://www.w3.org/TR/2001/REC-SVG-20010904/DTD/svg10.dtd">
<svg width="16" height="16">
  <circle cx="0" cy="0" r="1" fill="black"/>
  <circle cx="1" cy="0" r="1" fill="black"/>
  <circle cx="2" cy="0" r="1" fill="black"/>
  <circle cx="3" cy="0" r="1" fill="black"/>
  <circle cx="4" cy="0" r="1" fill="srgba(0.588998%,0.0503548%,0.0213626%,1)"/>
  <circle cx="5" cy="0" r="1" fill="srgba(8.72663%,0.753796%,0.323491%,1)"/>
  <circle cx="6" cy="0" r="1" fill="srgba(21.5625%,1.8616%,0.798047%,1)"/>
  <circle cx="7" cy="0" r="1" fill="srgba(37.8637%,3.27306%,1.39925%,1)"/>
  <circle cx="8" cy="0" r="1" fill="srgba(39.0753%,3.3753%,1.44961%,1)"/>
  <circle cx="9" cy="0" r="1" fill="srgba(40.531%,3.50195%,1.50149%,1)"/>
  <circle cx="10" cy="0" r="1" fill="srgba(51.7098%,4.46784%,1.91653%,1)"/>
  <circle cx="11" cy="0" r="1" fill="srgba(60.9049%,5.26436%,2.25681%,1)"/>
  <circle cx="12" cy="0" r="1" fill="srgba(57.2442%,4.94697%,2.121%,1)"/>
  <circle cx="13" cy="0" r="1" fill="srgba(49.3462%,4.26337%,1.82803%,1)"/>
  <circle cx="14" cy="0" r="1" fill="srgba(38.3459%,3.31426%,1.42061%,1)"/>
  <circle cx="15" cy="0" r="1" fill="srgba(12.0333%,1.03914%,0.445563%,1)"/>
  <circle cx="0" cy="1" r="1" fill="black"/>
  <circle cx="1" cy="1" r="1" fill="black"/>
  <circle cx="2" cy="1" r="1" fill="black"/>
  <circle cx="3" cy="1" r="1" fill="srgba(0.209049%,0.0183108%,0.00762951%,1)"/>
  <circle cx="4" cy="1" r="1" fill="srgba(20.7233%,1.79141%,0.767529%,1)"/>
  <circle cx="5" cy="1" r="1" fill="srgba(47.9881%,4.1474%,1.77615%,1)"/>
  <circle cx="6" cy="1" r="1" fill="srgba(56.4218%,4.87526%,2.08743%,1)"/>
  <circle cx="7" cy="1" r="1" fill="srgba(57.7813%,4.99275%,2.14084%,1)"/>
  <circle cx="8" cy="1" r="1" fill="srgba(43.0106%,3.71862%,1.59152%,1)"/>
  <circle cx="9" cy="1" r="1" fill="srgba(35.082%,3.03349%,1.29854%,1)"/>
  <circle cx="10" cy="1" r="1" fill="srgba(46.7292%,4.04059%,1.7319%,1)"/>
  <circle cx="11" cy="1" r="1" fill="srgba(71.1971%,6.15396%,2.63523%,1)"/>
  <circle cx="12" cy="1" r="1" fill="srgba(77.1633%,6.66972%,2.85649%,1)"/>
  <circle cx="13" cy="1" r="1" fill="srgba(67.4083%,5.82437%,2.4979%,1)"/>
  <circle cx="14" cy="1" r="1" fill="srgba(57.5799%,4.97749%,2.13016%,1)"/>
  <circle cx="15" cy="1" r="1" fill="srgba(27.9606%,2.41703%,1.03609%,1)"/>
  <circle cx="0" cy="2" r="1" fill="black"/>
  <circle cx="1" cy="2" r="1" fill="black"/>
  <circle cx="2" cy="2" r="1" fill="srgba(0.401312%,0.0350958%,0.015259%,1)"/>
  <circle cx="3" cy="2" r="1" fill="srgba(22.5986%,1.95315%,0.83772%,1)"/>
  <circle cx="4" cy="2" r="1" fill="srgba(40.1984%,3.47448%,1.49081%,1)"/>
  <circle cx="5" cy="2" r="1" fill="srgba(56.4218%,4.87526%,2.09201%,1)"/>
  <circle cx="6" cy="2" r="1" fill="srgba(68.4459%,5.91592%,2.53605%,1)"/>
  <circle cx="7" cy="2" r="1" fill="srgba(76.3928%,6.6041%,2.8275%,1)"/>
  <circle cx="8" cy="2" r="1" fill="srgba(67.0329%,5.79538%,2.47959%,1)"/>
  <circle cx="9" cy="2" r="1" fill="srgba(63.5996%,5.49477%,2.35599%,1)"/>
  <circle cx="10" cy="2" r="1" fill="srgba(51.3375%,4.4358%,1.9028%,1)"/>
  <circle cx="11" cy="2" r="1" fill="srgba(41.8647%,3.61944%,1.54879%,1)"/>
  <circle cx="12" cy="2" r="1" fill="srgba(54.4366%,4.70588%,2.01572%,1)"/>
  <circle cx="13" cy="2" r="1" fill="srgba(68.9845%,5.95865%,2.55741%,1)"/>
  <circle cx="14" cy="2" r="1" fill="srgba(67.2816%,5.81216%,2.49485%,1)"/>
  <circle cx="15" cy="2" r="1" fill="srgba(62.1805%,5.37118%,2.30564%,1)"/>
  <circle cx="0" cy="3" r="1" fill="black"/>
  <circle cx="1" cy="3" r="1" fill="black"/>
  <circle cx="2" cy="3" r="1" fill="srgba(11.3268%,0.979629%,0.419623%,1)"/>
  <circle cx="3" cy="3" r="1" fill="srgba(49.0089%,4.2359%,1.8143%,1)"/>
  <circle cx="4" cy="3" r="1" fill="srgba(61.1475%,5.2842%,2.26596%,1)"/>
  <circle cx="5" cy="3" r="1" fill="srgba(46.4454%,4.0116%,1.72274%,1)"/>
  <circle cx="6" cy="3" r="1" fill="srgba(67.4601%,5.82895%,2.49943%,1)"/>
  <circle cx="7" cy="3" r="1" fill="srgba(85.2888%,7.37316%,3.15709%,1)"/>
  <circle cx="8" cy="3" r="1" fill="srgba(84.3977%,7.29534%,3.12352%,1)"/>
  <circle cx="9" cy="3" r="1" fill="srgba(73.7682%,6.37369%,2.73442%,1)"/>
  <circle cx="10" cy="3" r="1" fill="srgba(37.966%,3.27916%,1.40993%,1)"/>
  <circle cx="11" cy="3" r="1" fill="srgba(51.1406%,4.42206%,1.89212%,1)"/>
  <circle cx="12" cy="3" r="1" fill="srgba(51.1101%,4.41749%,1.89364%,1)"/>
  <circle cx="13" cy="3" r="1" fill="srgba(42.8382%,3.69879%,1.58999%,1)"/>
  <circle cx="14" cy="3" r="1" fill="srgba(24.4846%,2.11337%,0.909438%,1)"/>
  <circle cx="15" cy="3" r="1" fill="srgba(18.0331%,1.55642%,0.669871%,1)"/>
  <circle cx="0" cy="4" r="1" fill="srgba(0.424201%,0.0350958%,0.015259%,1)"/>
  <circle cx="1" cy="4" r="1" fill="black"/>
  <circle cx="2" cy="4" r="1" fill="srgba(22.0798%,1.90738%,0.816358%,1)"/>
  <circle cx="3" cy="4" r="1" fill="srgba(44.477%,3.84375%,1.6495%,1)"/>
  <circle cx="4" cy="4" r="1" fill="srgba(58.4558%,5.05531%,2.15763%,1)"/>
  <circle cx="5" cy="4" r="1" fill="srgba(64.4572%,5.57412%,2.38651%,1)"/>
  <circle cx="6" cy="4" r="1" fill="srgba(65.5467%,5.66873%,2.43076%,1)"/>
  <circle cx="7" cy="4" r="1" fill="srgba(70.5638%,6.10513%,2.61997%,1)"/>
  <circle cx="8" cy="4" r="1" fill="srgba(71.2139%,6.15702%,2.63828%,1)"/>
  <circle cx="9" cy="4" r="1" fill="srgba(63.978%,5.52834%,2.36667%,1)"/>
  <circle cx="10" cy="4" r="1" fill="srgba(58.7976%,5.07973%,2.17594%,1)"/>
  <circle cx="11" cy="4" r="1" fill="srgba(61.2543%,5.29335%,2.26596%,1)"/>
  <circle cx="12" cy="4" r="1" fill="srgba(47.4174%,4.09552%,1.75326%,1)"/>
  <circle cx="13" cy="4" r="1" fill="srgba(35.4986%,3.06401%,1.3138%,1)"/>
  <circle cx="14" cy="4" r="1" fill="srgba(18.8785%,1.63119%,0.697337%,1)"/>
  <circle cx="15" cy="4" r="1" fill="srgba(13.4707%,1.16274%,0.49897%,1)"/>
  <circle cx="0" cy="5" r="1" fill="srgba(61.7273%,5.06447%,2.02792%,1)"/>
  <circle cx="1" cy="5" r="1" fill="srgba(61.6663%,5.05989%,2.0264%,1)"/>
  <circle cx="2" cy="5" r="1" fill="srgba(64.1306%,5.27047%,2.1149%,1)"/>
  <circle cx="3" cy="5" r="1" fill="srgba(65.1408%,5.37728%,2.17136%,1)"/>
  <circle cx="4" cy="5" r="1" fill="srgba(68.481%,5.84268%,2.46586%,1)"/>
  <circle cx="5" cy="5" r="1" fill="srgba(69.7856%,5.95102%,2.51011%,1)"/>
  <circle cx="6" cy="5" r="1" fill="srgba(70.1808%,5.9556%,2.4918%,1)"/>
  <circle cx="7" cy="5" r="1" fill="srgba(70.779%,5.93423%,2.44602%,1)"/>
  <circle cx="8" cy="5" r="1" fill="srgba(69.958%,5.79385%,2.34836%,1)"/>
  <circle cx="9" cy="5" r="1" fill="srgba(66.8162%,5.52529%,2.23392%,1)"/>
  <circle cx="10" cy="5" r="1" fill="srgba(67.2633%,5.57259%,2.25834%,1)"/>
  <circle cx="11" cy="5" r="1" fill="srgba(69.8924%,5.98306%,2.533%,1)"/>
  <circle cx="12" cy="5" r="1" fill="srgba(67.3335%,5.69009%,2.36973%,1)"/>
  <circle cx="13" cy="5" r="1" fill="srgba(65.008%,5.36507%,2.16526%,1)"/>
  <circle cx="14" cy="5" r="1" fill="srgba(64.3229%,5.28725%,2.12253%,1)"/>
  <circle cx="15" cy="5" r="1" fill="srgba(64.1779%,5.27504%,2.11795%,1)"/>
  <circle cx="0" cy="6" r="1" fill="srgba(97.351%,7.97894%,3.19219%,1)"/>
  <circle cx="1" cy="6" r="1" fill="srgba(97.3556%,7.97894%,3.19219%,1)"/>
  <circle cx="2" cy="6" r="1" fill="srgba(97.2137%,7.96521%,3.18608%,1)"/>
  <circle cx="3" cy="6" r="1" fill="srgba(97.1389%,7.9881%,3.2105%,1)"/>
  <circle cx="4" cy="6" r="1" fill="srgba(96.7742%,8.26123%,3.48821%,1)"/>
  <circle cx="5" cy="6" r="1" fill="srgba(96.8902%,8.09186%,3.32189%,1)"/>
  <circle cx="6" cy="6" r="1" fill="srgba(96.968%,7.99115%,3.22118%,1)"/>
  <circle cx="7" cy="6" r="1" fill="srgba(96.9772%,7.95911%,3.18914%,1)"/>
  <circle cx="8" cy="6" r="1" fill="srgba(96.997%,7.94842%,3.17845%,1)"/>
  <circle cx="9" cy="6" r="1" fill="srgba(97.0428%,7.98047%,3.20592%,1)"/>
  <circle cx="10" cy="6" r="1" fill="srgba(97.0169%,7.9942%,3.22118%,1)"/>
  <circle cx="11" cy="6" r="1" fill="srgba(96.6918%,8.26581%,3.49584%,1)"/>
  <circle cx="12" cy="6" r="1" fill="srgba(96.878%,8.1651%,3.39055%,1)"/>
  <circle cx="13" cy="6" r="1" fill="srgba(97.1466%,7.98352%,3.20439%,1)"/>
  <circle cx="14" cy="6" r="1" fill="srgba(97.2183%,7.96826%,3.18608%,1)"/>
  <circle cx="15" cy="6" r="1" fill="srgba(97.2351%,7.96979%,3.18761%,1)"/>
  <circle cx="0" cy="7" r="1" fill="srgba(244,20,8,1)"/>
  <circle cx="1" cy="7" r="1" fill="srgba(244,20,8,1)"/>
  <circle cx="2" cy="7" r="1" fill="srgba(95.6878%,7.84161%,3.13573%,1)"/>
  <circle cx="3" cy="7" r="1" fill="srgba(95.6634%,7.86603%,3.16014%,1)"/>
  <circle cx="4" cy="7" r="1" fill="srgba(95.3841%,8.14527%,3.43938%,1)"/>
  <circle cx="5" cy="7" r="1" fill="srgba(95.5703%,7.95911%,3.25322%,1)"/>
  <circle cx="6" cy="7" r="1" fill="srgba(95.6695%,7.8584%,3.15251%,1)"/>
  <circle cx="7" cy="7" r="1" fill="srgba(95.6802%,7.84924%,3.14336%,1)"/>
  <circle cx="8" cy="7" r="1" fill="srgba(95.6878%,7.84161%,3.13573%,1)"/>
  <circle cx="9" cy="7" r="1" fill="srgba(95.6756%,7.85534%,3.14794%,1)"/>
  <circle cx="10" cy="7" r="1" fill="srgba(95.6512%,7.87823%,3.17235%,1)"/>
  <circle cx="11" cy="7" r="1" fill="srgba(95.375%,8.15442%,3.44854%,1)"/>
  <circle cx="12" cy="7" r="1" fill="srgba(95.4803%,8.04913%,3.34325%,1)"/>
  <circle cx="13" cy="7" r="1" fill="srgba(95.6771%,7.85077%,3.14641%,1)"/>
  <circle cx="14" cy="7" r="1" fill="srgba(244,20,8,1)"/>
  <circle cx="15" cy="7" r="1" fill="srgba(244,20,8,1)"/>
  <circle cx="0" cy="8" r="1" fill="srgba(244,20,8,1)"/>
  <circle cx="1" cy="8" r="1" fill="srgba(244,20,8,1)"/>
  <circle cx="2" cy="8" r="1" fill="srgba(95.6878%,7.84161%,3.13573%,1)"/>
  <circle cx="3" cy="8" r="1" fill="srgba(95.6649%,7.86297%,3.15862%,1)"/>
  <circle cx="4" cy="8" r="1" fill="srgba(95.3872%,8.14069%,3.43633%,1)"/>
  <circle cx="5" cy="8" r="1" fill="srgba(95.5688%,7.96063%,3.25475%,1)"/>
  <circle cx="6" cy="8" r="1" fill="srgba(95.6756%,7.85229%,3.14794%,1)"/>
  <circle cx="7" cy="8" r="1" fill="srgba(95.6817%,7.84771%,3.14183%,1)"/>
  <circle cx="8" cy="8" r="1" fill="srgba(244,20,8,1)"/>
  <circle cx="9" cy="8" r="1" fill="srgba(95.6802%,7.84771%,3.14336%,1)"/>
  <circle cx="10" cy="8" r="1" fill="srgba(95.6542%,7.87366%,3.1693%,1)"/>
  <circle cx="11" cy="8" r="1" fill="srgba(95.375%,8.15442%,3.44854%,1)"/>
  <circle cx="12" cy="8" r="1" fill="srgba(95.4803%,8.04913%,3.34325%,1)"/>
  <circle cx="13" cy="8" r="1" fill="srgba(95.6893%,7.84009%,3.1342%,1)"/>
  <circle cx="14" cy="8" r="1" fill="srgba(244,20,8,1)"/>
  <circle cx="15" cy="8" r="1" fill="srgba(244,20,8,1)"/>
  <circle cx="0" cy="9" r="1" fill="srgba(97.1267%,7.05882%,2.78935%,1)"/>
  <circle cx="1" cy="9" r="1" fill="srgba(97.1267%,7.05882%,2.78935%,1)"/>
  <circle cx="2" cy="9" r="1" fill="srgba(97.1283%,7.0573%,2.78782%,1)"/>
  <circle cx="3" cy="9" r="1" fill="srgba(97.1252%,7.06798%,2.80461%,1)"/>
  <circle cx="4" cy="9" r="1" fill="srgba(96.2829%,7.65393%,3.21965%,1)"/>
  <circle cx="5" cy="9" r="1" fill="srgba(96.6049%,7.39605%,3.0045%,1)"/>
  <circle cx="6" cy="9" r="1" fill="srgba(97.1496%,7.04509%,2.78325%,1)"/>
  <circle cx="7" cy="9" r="1" fill="srgba(97.1252%,7.06035%,2.79088%,1)"/>
  <circle cx="8" cy="9" r="1" fill="srgba(97.1267%,7.05882%,2.78935%,1)"/>
  <circle cx="9" cy="9" r="1" fill="srgba(97.1298%,7.05882%,2.79088%,1)"/>
  <circle cx="10" cy="9" r="1" fill="srgba(97.026%,7.12596%,2.8336%,1)"/>
  <circle cx="11" cy="9" r="1" fill="srgba(95.6603%,7.99878%,3.37987%,1)"/>
  <circle cx="12" cy="9" r="1" fill="srgba(96.1486%,7.68597%,3.18303%,1)"/>
  <circle cx="13" cy="9" r="1" fill="srgba(97.1496%,7.04356%,2.78019%,1)"/>
  <circle cx="14" cy="9" r="1" fill="srgba(97.1267%,7.05882%,2.78935%,1)"/>
  <circle cx="15" cy="9" r="1" fill="srgba(97.1267%,7.05882%,2.78935%,1)"/>
  <circle cx="0" cy="10" r="1" fill="srgba(66.3188%,23.856%,10.2419%,1)"/>
  <circle cx="1" cy="10" r="1" fill="srgba(66.3188%,23.856%,10.2419%,1)"/>
  <circle cx="2" cy="10" r="1" fill="srgba(66.3172%,23.856%,10.2419%,1)"/>
  <circle cx="3" cy="10" r="1" fill="srgba(66.0014%,24.033%,10.3258%,1)"/>
  <circle cx="4" cy="10" r="1" fill="srgba(78.6023%,17.2671%,7.45708%,1)"/>
  <circle cx="5" cy="10" r="1" fill="srgba(74.8196%,19.2721%,8.27497%,1)"/>
  <circle cx="6" cy="10" r="1" fill="srgba(65.8595%,24.1032%,10.3487%,1)"/>
  <circle cx="7" cy="10" r="1" fill="srgba(66.3188%,23.856%,10.2419%,1)"/>
  <circle cx="8" cy="10" r="1" fill="srgba(66.3188%,23.856%,10.2419%,1)"/>
  <circle cx="9" cy="10" r="1" fill="srgba(66.2242%,23.9078%,10.2632%,1)"/>
  <circle cx="10" cy="10" r="1" fill="srgba(67.8416%,23.035%,9.88937%,1)"/>
  <circle cx="11" cy="10" r="1" fill="srgba(89.5171%,11.3481%,4.8661%,1)"/>
  <circle cx="12" cy="10" r="1" fill="srgba(81.8143%,15.5016%,6.65141%,1)"/>
  <circle cx="13" cy="10" r="1" fill="srgba(65.9602%,24.0497%,10.3243%,1)"/>
  <circle cx="14" cy="10" r="1" fill="srgba(66.3188%,23.856%,10.2419%,1)"/>
  <circle cx="15" cy="10" r="1" fill="srgba(66.3188%,23.856%,10.2419%,1)"/>
  <circle cx="0" cy="11" r="1" fill="srgba(13.3074%,52.7428%,23.0503%,1)"/>
  <circle cx="1" cy="11" r="1" fill="srgba(13.3074%,52.7428%,23.0503%,1)"/>
  <circle cx="2" cy="11" r="1" fill="srgba(13.3074%,52.7428%,23.0503%,1)"/>
  <circle cx="3" cy="11" r="1" fill="srgba(12.8176%,53.0083%,23.1662%,1)"/>
  <circle cx="4" cy="11" r="1" fill="srgba(24.3809%,46.7308%,20.4135%,1)"/>
  <circle cx="5" cy="11" r="1" fill="srgba(24.4907%,46.6667%,20.3891%,1)"/>
  <circle cx="6" cy="11" r="1" fill="srgba(12.7199%,53.0617%,23.1907%,1)"/>
  <circle cx="7" cy="11" r="1" fill="srgba(13.3074%,52.7428%,23.0503%,1)"/>
  <circle cx="8" cy="11" r="1" fill="srgba(13.3074%,52.7428%,23.0503%,1)"/>
  <circle cx="9" cy="11" r="1" fill="srgba(13.0404%,52.8878%,23.1144%,1)"/>
  <circle cx="10" cy="11" r="1" fill="srgba(17.6135%,50.4036%,22.0249%,1)"/>
  <circle cx="11" cy="11" r="1" fill="srgba(79.0234%,17.0657%,7.40215%,1)"/>
  <circle cx="12" cy="11" r="1" fill="srgba(57.6226%,28.6854%,12.4987%,1)"/>
  <circle cx="13" cy="11" r="1" fill="srgba(12.311%,53.2845%,23.2883%,1)"/>
  <circle cx="14" cy="11" r="1" fill="srgba(13.3074%,52.7428%,23.0503%,1)"/>
  <circle cx="15" cy="11" r="1" fill="srgba(13.3074%,52.7428%,23.0503%,1)"/>
  <circle cx="0" cy="12" r="1" fill="srgba(12.9046%,52.961%,23.1464%,1)"/>
  <circle cx="1" cy="12" r="1" fill="srgba(12.9046%,52.961%,23.1464%,1)"/>
  <circle cx="2" cy="12" r="1" fill="srgba(12.9046%,52.961%,23.1464%,1)"/>
  <circle cx="3" cy="12" r="1" fill="srgba(12.9152%,52.9549%,23.1434%,1)"/>
  <circle cx="4" cy="12" r="1" fill="srgba(12.5277%,53.1655%,23.2364%,1)"/>
  <circle cx="5" cy="12" r="1" fill="srgba(12.7626%,53.0388%,23.18%,1)"/>
  <circle cx="6" cy="12" r="1" fill="srgba(12.9152%,52.9549%,23.1434%,1)"/>
  <circle cx="7" cy="12" r="1" fill="srgba(12.9046%,52.961%,23.1464%,1)"/>
  <circle cx="8" cy="12" r="1" fill="srgba(12.9046%,52.961%,23.1464%,1)"/>
  <circle cx="9" cy="12" r="1" fill="srgba(12.6314%,53.109%,23.212%,1)"/>
  <circle cx="10" cy="12" r="1" fill="srgba(17.377%,50.5318%,22.0813%,1)"/>
  <circle cx="11" cy="12" r="1" fill="srgba(78.5443%,17.3266%,7.51659%,1)"/>
  <circle cx="12" cy="12" r="1" fill="srgba(53.4966%,30.9255%,13.4813%,1)"/>
  <circle cx="13" cy="12" r="1" fill="srgba(11.9036%,53.5042%,23.3845%,1)"/>
  <circle cx="14" cy="12" r="1" fill="srgba(12.9046%,52.961%,23.1464%,1)"/>
  <circle cx="15" cy="12" r="1" fill="srgba(12.9046%,52.961%,23.1464%,1)"/>
  <circle cx="0" cy="13" r="1" fill="srgba(33,135,59,1)"/>
  <circle cx="1" cy="13" r="1" fill="srgba(33,135,59,1)"/>
  <circle cx="2" cy="13" r="1" fill="srgba(33,135,59,1)"/>
  <circle cx="3" cy="13" r="1" fill="srgba(33,135,59,1)"/>
  <circle cx="4" cy="13" r="1" fill="srgba(12.9381%,52.9427%,23.1373%,1)"/>
  <circle cx="5" cy="13" r="1" fill="srgba(12.9351%,52.9442%,23.1388%,1)"/>
  <circle cx="6" cy="13" r="1" fill="srgba(33,135,59,1)"/>
  <circle cx="7" cy="13" r="1" fill="srgba(33,135,59,1)"/>
  <circle cx="8" cy="13" r="1" fill="srgba(33,135,59,1)"/>
  <circle cx="9" cy="13" r="1" fill="srgba(12.752%,53.0434%,23.1815%,1)"/>
  <circle cx="10" cy="13" r="1" fill="srgba(16.4462%,51.0384%,22.3026%,1)"/>
  <circle cx="11" cy="13" r="1" fill="srgba(44.1123%,36.0189%,15.7153%,1)"/>
  <circle cx="12" cy="13" r="1" fill="srgba(21.5991%,48.2414%,21.0758%,1)"/>
  <circle cx="13" cy="13" r="1" fill="srgba(12.5841%,53.135%,23.2227%,1)"/>
  <circle cx="14" cy="13" r="1" fill="srgba(33,135,59,1)"/>
  <circle cx="15" cy="13" r="1" fill="srgba(33,135,59,1)"/>
  <circle cx="0" cy="14" r="1" fill="srgba(33,135,59,1)"/>
  <circle cx="1" cy="14" r="1" fill="srgba(33,135,59,1)"/>
  <circle cx="2" cy="14" r="1" fill="srgba(33,135,59,1)"/>
  <circle cx="3" cy="14" r="1" fill="srgba(33,135,59,1)"/>
  <circle cx="4" cy="14" r="1" fill="srgba(33,135,59,1)"/>
  <circle cx="5" cy="14" r="1" fill="srgba(33,135,59,1)"/>
  <circle cx="6" cy="14" r="1" fill="srgba(33,135,59,1)"/>
  <circle cx="7" cy="14" r="1" fill="srgba(33,135,59,1)"/>
  <circle cx="8" cy="14" r="1" fill="srgba(33,135,59,1)"/>
  <circle cx="9" cy="14" r="1" fill="srgba(12.9366%,52.9442%,23.1388%,1)"/>
  <circle cx="10" cy="14" r="1" fill="srgba(13.0465%,52.8847%,23.1128%,1)"/>
  <circle cx="11" cy="14" r="1" fill="srgba(12.5765%,53.1395%,23.2242%,1)"/>
  <circle cx="12" cy="14" r="1" fill="srgba(12.4727%,53.196%,23.2486%,1)"/>
  <circle cx="13" cy="14" r="1" fill="srgba(12.9595%,52.9305%,23.1327%,1)"/>
  <circle cx="14" cy="14" r="1" fill="srgba(33,135,59,1)"/>
  <circle cx="15" cy="14" r="1" fill="srgba(33,135,59,1)"/>
  <circle cx="0" cy="15" r="1" fill="srgba(33,135,59,1)"/>
  <circle cx="1" cy="15" r="1" fill="srgba(33,135,59,1)"/>
  <circle cx="2" cy="15" r="1" fill="srgba(33,135,59,1)"/>
  <circle cx="3" cy="15" r="1" fill="srgba(33,135,59,1)"/>
  <circle cx="4" cy="15" r="1" fill="srgba(33,135,59,1)"/>
  <circle cx="5" cy="15" r="1" fill="srgba(33,135,59,1)"/>
  <circle cx="6" cy="15" r="1" fill="srgba(33,135,59,1)"/>
  <circle cx="7" cy="15" r="1" fill="srgba(33,135,59,1)"/>
  <circle cx="8" cy="15" r="1" fill="srgba(33,135,59,1)"/>
  <circle cx="9" cy="15" r="1" fill="srgba(33,135,59,1)"/>
  <circle cx="10" cy="15" r="1" fill="srgba(12.9351%,52.9442%,23.1388%,1)"/>
  <circle cx="11" cy="15" r="1" fill="srgba(12.9213%,52.9519%,23.1418%,1)"/>
  <circle cx="12" cy="15" r="1" fill="srgba(33,135,59,1)"/>
  <circle cx="13" cy="15" r="1" fill="srgba(33,135,59,1)"/>
  <circle cx="14" cy="15" r="1" fill="srgba(33,135,59,1)"/>
  <circle cx="15" cy="15" r="1" fill="srgba(33,135,59,1)"/>
</svg>
