<?xml version="1.0" standalone="no"?>
<!DOCTYPE svg PUBLIC "-//W3C//DTD SVG 20010904//EN"
  "http://www.w3.org/TR/2001/REC-SVG-20010904/DTD/svg10.dtd">
<svg width="16" height="16">
  <circle cx="0" cy="0" r="1" fill="srgba(11,114,38,1)"/>
  <circle cx="1" cy="0" r="1" fill="srgba(11,114,38,1)"/>
  <circle cx="2" cy="0" r="1" fill="srgba(11,114,38,1)"/>
  <circle cx="3" cy="0" r="1" fill="srgba(4.28626%,44.6906%,14.8775%,1)"/>
  <circle cx="4" cy="0" r="1" fill="srgba(4.35798%,44.7318%,14.9416%,1)"/>
  <circle cx="5" cy="0" r="1" fill="srgba(64.0833%,79.2447%,68.0568%,1)"/>
  <circle cx="6" cy="0" r="1" fill="white"/>
  <circle cx="7" cy="0" r="1" fill="white"/>
  <circle cx="8" cy="0" r="1" fill="white"/>
  <circle cx="9" cy="0" r="1" fill="white"/>
  <circle cx="10" cy="0" r="1" fill="srgba(90.8186%,65.0675%,65.0675%,1)"/>
  <circle cx="11" cy="0" r="1" fill="srgba(73.8735%,0.563058%,0.563058%,1)"/>
  <circle cx="12" cy="0" r="1" fill="srgba(73.7118%,0%,0%,1)"/>
  <circle cx="13" cy="0" r="1" fill="srgba(188,0,0,1)"/>
  <circle cx="14" cy="0" r="1" fill="srgba(188,0,0,1)"/>
  <circle cx="15" cy="0" r="1" fill="srgba(188,0,0,1)"/>
  <circle cx="0" cy="1" r="1" fill="srgba(11,114,38,1)"/>
  <circle cx="1" cy="1" r="1" fill="srgba(11,114,38,1)"/>
  <circle cx="2" cy="1" r="1" fill="srgba(11,114,38,1)"/>
  <circle cx="3" cy="1" r="1" fill="srgba(4.28626%,44.6906%,14.8775%,1)"/>
  <circle cx="4" cy="1" r="1" fill="srgba(4.35798%,44.7318%,14.9416%,1)"/>
  <circle cx="5" cy="1" r="1" fill="srgba(64.0833%,79.2447%,68.0568%,1)"/>
  <circle cx="6" cy="1" r="1" fill="white"/>
  <circle cx="7" cy="1" r="1" fill="white"/>
  <circle cx="8" cy="1" r="1" fill="white"/>
  <circle cx="9" cy="1" r="1" fill="white"/>
  <circle cx="10" cy="1" r="1" fill="srgba(90.8186%,65.0675%,65.0675%,1)"/>
  <circle cx="11" cy="1" r="1" fill="srgba(73.8735%,0.563058%,0.563058%,1)"/>
  <circle cx="12" cy="1" r="1" fill="srgba(73.7118%,0%,0%,1)"/>
  <circle cx="13" cy="1" r="1" fill="srgba(188,0,0,1)"/>
  <circle cx="14" cy="1" r="1" fill="srgba(188,0,0,1)"/>
  <circle cx="15" cy="1" r="1" fill="srgba(188,0,0,1)"/>
  <circle cx="0" cy="2" r="1" fill="srgba(11,114,38,1)"/>
  <circle cx="1" cy="2" r="1" fill="srgba(11,114,38,1)"/>
  <circle cx="2" cy="2" r="1" fill="srgba(11,114,38,1)"/>
  <circle cx="3" cy="2" r="1" fill="srgba(4.28626%,44.6906%,14.8775%,1)"/>
  <circle cx="4" cy="2" r="1" fill="srgba(4.35798%,44.7318%,14.9416%,1)"/>
  <circle cx="5" cy="2" r="1" fill="srgba(64.0833%,79.2447%,68.0568%,1)"/>
  <circle cx="6" cy="2" r="1" fill="white"/>
  <circle cx="7" cy="2" r="1" fill="white"/>
  <circle cx="8" cy="2" r="1" fill="white"/>
  <circle cx="9" cy="2" r="1" fill="white"/>
  <circle cx="10" cy="2" r="1" fill="srgba(90.8186%,65.0675%,65.0675%,1)"/>
  <circle cx="11" cy="2" r="1" fill="srgba(73.8735%,0.563058%,0.563058%,1)"/>
  <circle cx="12" cy="2" r="1" fill="srgba(73.7118%,0%,0%,1)"/>
  <circle cx="13" cy="2" r="1" fill="srgba(188,0,0,1)"/>
  <circle cx="14" cy="2" r="1" fill="srgba(188,0,0,1)"/>
  <circle cx="15" cy="2" r="1" fill="srgba(188,0,0,1)"/>
  <circle cx="0" cy="3" r="1" fill="srgba(11,114,38,1)"/>
  <circle cx="1" cy="3" r="1" fill="srgba(11,114,38,1)"/>
  <circle cx="2" cy="3" r="1" fill="srgba(11,114,38,1)"/>
  <circle cx="3" cy="3" r="1" fill="srgba(4.28626%,44.6906%,14.8775%,1)"/>
  <circle cx="4" cy="3" r="1" fill="srgba(4.35798%,44.7318%,14.9416%,1)"/>
  <circle cx="5" cy="3" r="1" fill="srgba(64.0833%,79.2447%,68.0568%,1)"/>
  <circle cx="6" cy="3" r="1" fill="white"/>
  <circle cx="7" cy="3" r="1" fill="white"/>
  <circle cx="8" cy="3" r="1" fill="white"/>
  <circle cx="9" cy="3" r="1" fill="white"/>
  <circle cx="10" cy="3" r="1" fill="srgba(90.9651%,65.0767%,65.0782%,1)"/>
  <circle cx="11" cy="3" r="1" fill="srgba(74.2657%,0.56611%,0.56611%,1)"/>
  <circle cx="12" cy="3" r="1" fill="srgba(74.0917%,0%,0%,1)"/>
  <circle cx="13" cy="3" r="1" fill="srgba(74.0948%,0%,0%,1)"/>
  <circle cx="14" cy="3" r="1" fill="srgba(74.0688%,0%,0%,1)"/>
  <circle cx="15" cy="3" r="1" fill="srgba(74.0352%,0%,0%,1)"/>
  <circle cx="0" cy="4" r="1" fill="srgba(11,114,38,1)"/>
  <circle cx="1" cy="4" r="1" fill="srgba(11,114,38,1)"/>
  <circle cx="2" cy="4" r="1" fill="srgba(11,114,38,1)"/>
  <circle cx="3" cy="4" r="1" fill="srgba(4.28626%,44.6906%,14.8775%,1)"/>
  <circle cx="4" cy="4" r="1" fill="srgba(4.38697%,44.7532%,14.9691%,1)"/>
  <circle cx="5" cy="4" r="1" fill="srgba(63.6316%,78.8952%,67.6112%,1)"/>
  <circle cx="6" cy="4" r="1" fill="srgba(99.9481%,99.4522%,99.852%,1)"/>
  <circle cx="7" cy="4" r="1" fill="srgba(93.8125%,92.1462%,91.2779%,1)"/>
  <circle cx="8" cy="4" r="1" fill="srgba(81.3886%,72.4697%,67.7592%,1)"/>
  <circle cx="9" cy="4" r="1" fill="srgba(86.9001%,83.0198%,80.3738%,1)"/>
  <circle cx="10" cy="4" r="1" fill="srgba(82.295%,57.9873%,57.2351%,1)"/>
  <circle cx="11" cy="4" r="1" fill="srgba(67.7119%,1.27108%,0.753796%,1)"/>
  <circle cx="12" cy="4" r="1" fill="srgba(67.7806%,0.607309%,0.151064%,1)"/>
  <circle cx="13" cy="4" r="1" fill="srgba(67.9316%,0.575265%,0.175479%,1)"/>
  <circle cx="14" cy="4" r="1" fill="srgba(68.1758%,0.4654%,0.134279%,1)"/>
  <circle cx="15" cy="4" r="1" fill="srgba(68.6259%,0.492866%,0.135805%,1)"/>
  <circle cx="0" cy="5" r="1" fill="srgba(11,114,38,1)"/>
  <circle cx="1" cy="5" r="1" fill="srgba(11,114,38,1)"/>
  <circle cx="2" cy="5" r="1" fill="srgba(11,114,38,1)"/>
  <circle cx="3" cy="5" r="1" fill="srgba(4.28626%,44.6906%,14.8775%,1)"/>
  <circle cx="4" cy="5" r="1" fill="srgba(5.07973%,45.2934%,15.6588%,1)"/>
  <circle cx="5" cy="5" r="1" fill="srgba(52.4681%,70.1854%,56.5148%,1)"/>
  <circle cx="6" cy="5" r="1" fill="srgba(39.4842%,41.8509%,39.3271%,1)"/>
  <circle cx="7" cy="5" r="1" fill="srgba(26.3127%,24.6906%,24.1032%,1)"/>
  <circle cx="8" cy="5" r="1" fill="srgba(16.82%,10.1289%,6.59037%,1)"/>
  <circle cx="9" cy="5" r="1" fill="srgba(16.5621%,11.3344%,8.44129%,1)"/>
  <circle cx="10" cy="5" r="1" fill="srgba(19.1211%,12.1553%,11.1894%,1)"/>
  <circle cx="11" cy="5" r="1" fill="srgba(17.2534%,1.03456%,0.442512%,1)"/>
  <circle cx="12" cy="5" r="1" fill="srgba(17.5494%,0.775158%,0.225834%,1)"/>
  <circle cx="13" cy="5" r="1" fill="srgba(17.3526%,0.584421%,0.178531%,1)"/>
  <circle cx="14" cy="5" r="1" fill="srgba(34.6212%,7.71801%,2.31327%,1)"/>
  <circle cx="15" cy="5" r="1" fill="srgba(50.2922%,14.1711%,4.2359%,1)"/>
  <circle cx="0" cy="6" r="1" fill="srgba(11,114,38,1)"/>
  <circle cx="1" cy="6" r="1" fill="srgba(11,114,38,1)"/>
  <circle cx="2" cy="6" r="1" fill="srgba(11,114,38,1)"/>
  <circle cx="3" cy="6" r="1" fill="srgba(4.29236%,44.6952%,14.8882%,1)"/>
  <circle cx="4" cy="6" r="1" fill="srgba(4.32441%,44.8066%,14.9676%,1)"/>
  <circle cx="5" cy="6" r="1" fill="srgba(43.4302%,63.1128%,46.4149%,1)"/>
  <circle cx="6" cy="6" r="1" fill="srgba(21.2314%,25.4444%,19.9756%,1)"/>
  <circle cx="7" cy="6" r="1" fill="black"/>
  <circle cx="8" cy="6" r="1" fill="black"/>
  <circle cx="9" cy="6" r="1" fill="black"/>
  <circle cx="10" cy="6" r="1" fill="black"/>
  <circle cx="11" cy="6" r="1" fill="black"/>
  <circle cx="12" cy="6" r="1" fill="black"/>
  <circle cx="13" cy="6" r="1" fill="black"/>
  <circle cx="14" cy="6" r="1" fill="srgba(26.9093%,11.7861%,3.16472%,1)"/>
  <circle cx="15" cy="6" r="1" fill="srgba(49.8116%,21.8387%,5.83047%,1)"/>
  <circle cx="0" cy="7" r="1" fill="srgba(11,114,38,1)"/>
  <circle cx="1" cy="7" r="1" fill="srgba(11,114,38,1)"/>
  <circle cx="2" cy="7" r="1" fill="srgba(4.31067%,44.7059%,14.9035%,1)"/>
  <circle cx="3" cy="7" r="1" fill="srgba(4.3122%,44.773%,14.8867%,1)"/>
  <circle cx="4" cy="7" r="1" fill="srgba(4.94545%,44.1016%,13.8994%,1)"/>
  <circle cx="5" cy="7" r="1" fill="srgba(16.2875%,38.0575%,11.2779%,1)"/>
  <circle cx="6" cy="7" r="1" fill="srgba(13.3577%,26.2943%,5.39254%,1)"/>
  <circle cx="7" cy="7" r="1" fill="srgba(0.936904%,1.46792%,0.407416%,1)"/>
  <circle cx="8" cy="7" r="1" fill="black"/>
  <circle cx="9" cy="7" r="1" fill="black"/>
  <circle cx="10" cy="7" r="1" fill="black"/>
  <circle cx="11" cy="7" r="1" fill="black"/>
  <circle cx="12" cy="7" r="1" fill="black"/>
  <circle cx="13" cy="7" r="1" fill="black"/>
  <circle cx="14" cy="7" r="1" fill="srgba(26.9963%,12.2911%,1.50454%,1)"/>
  <circle cx="15" cy="7" r="1" fill="srgba(49.2638%,22.1012%,2.82292%,1)"/>
  <circle cx="0" cy="8" r="1" fill="srgba(11,114,38,1)"/>
  <circle cx="1" cy="8" r="1" fill="srgba(11,114,38,1)"/>
  <circle cx="2" cy="8" r="1" fill="srgba(4.18708%,44.7456%,14.9218%,1)"/>
  <circle cx="3" cy="8" r="1" fill="srgba(6.23789%,44.2115%,14.6944%,1)"/>
  <circle cx="4" cy="8" r="1" fill="srgba(11.1299%,42.8885%,8.70832%,1)"/>
  <circle cx="5" cy="8" r="1" fill="srgba(11.8105%,33.2082%,0.782788%,1)"/>
  <circle cx="6" cy="8" r="1" fill="srgba(16.7636%,37.7173%,7.28161%,1)"/>
  <circle cx="7" cy="8" r="1" fill="srgba(5.25368%,6.90166%,3.37987%,1)"/>
  <circle cx="8" cy="8" r="1" fill="black"/>
  <circle cx="9" cy="8" r="1" fill="black"/>
  <circle cx="10" cy="8" r="1" fill="black"/>
  <circle cx="11" cy="8" r="1" fill="black"/>
  <circle cx="12" cy="8" r="1" fill="black"/>
  <circle cx="13" cy="8" r="1" fill="black"/>
  <circle cx="14" cy="8" r="1" fill="srgba(28.7816%,12.6787%,3.52789%,1)"/>
  <circle cx="15" cy="8" r="1" fill="srgba(52.0378%,22.7024%,6.47745%,1)"/>
  <circle cx="0" cy="9" r="1" fill="srgba(11,114,38,1)"/>
  <circle cx="1" cy="9" r="1" fill="srgba(11,114,38,1)"/>
  <circle cx="2" cy="9" r="1" fill="srgba(4.14435%,44.7623%,14.9233%,1)"/>
  <circle cx="3" cy="9" r="1" fill="srgba(6.94743%,43.9368%,14.6944%,1)"/>
  <circle cx="4" cy="9" r="1" fill="srgba(16.1425%,38.8006%,11.6213%,1)"/>
  <circle cx="5" cy="9" r="1" fill="srgba(15.0286%,35.8968%,5.44289%,1)"/>
  <circle cx="6" cy="9" r="1" fill="srgba(19.0707%,36.82%,5.1545%,1)"/>
  <circle cx="7" cy="9" r="1" fill="srgba(11.3176%,8.3299%,3.42565%,1)"/>
  <circle cx="8" cy="9" r="1" fill="black"/>
  <circle cx="9" cy="9" r="1" fill="black"/>
  <circle cx="10" cy="9" r="1" fill="black"/>
  <circle cx="11" cy="9" r="1" fill="black"/>
  <circle cx="12" cy="9" r="1" fill="black"/>
  <circle cx="13" cy="9" r="1" fill="black"/>
  <circle cx="14" cy="9" r="1" fill="srgba(34.5892%,14.8348%,4.44495%,1)"/>
  <circle cx="15" cy="9" r="1" fill="srgba(62.6307%,26.8757%,8.0415%,1)"/>
  <circle cx="0" cy="10" r="1" fill="srgba(11,114,38,1)"/>
  <circle cx="1" cy="10" r="1" fill="srgba(11,114,38,1)"/>
  <circle cx="2" cy="10" r="1" fill="srgba(4.17334%,44.7517%,14.9187%,1)"/>
  <circle cx="3" cy="10" r="1" fill="srgba(6.10208%,44.2588%,14.7585%,1)"/>
  <circle cx="4" cy="10" r="1" fill="srgba(21.0559%,36.5743%,12.1538%,1)"/>
  <circle cx="5" cy="10" r="1" fill="srgba(16.5286%,33.7469%,4.31373%,1)"/>
  <circle cx="6" cy="10" r="1" fill="srgba(20.8438%,33.2891%,1.65255%,1)"/>
  <circle cx="7" cy="10" r="1" fill="srgba(27.3503%,6.54459%,1.52895%,1)"/>
  <circle cx="8" cy="10" r="1" fill="srgba(0%,0.881971%,0.2533%,1)"/>
  <circle cx="9" cy="10" r="1" fill="black"/>
  <circle cx="10" cy="10" r="1" fill="black"/>
  <circle cx="11" cy="10" r="1" fill="black"/>
  <circle cx="12" cy="10" r="1" fill="black"/>
  <circle cx="13" cy="10" r="1" fill="black"/>
  <circle cx="14" cy="10" r="1" fill="srgba(34.5724%,14.8486%,4.43275%,1)"/>
  <circle cx="15" cy="10" r="1" fill="srgba(62.3331%,26.7704%,7.99115%,1)"/>
  <circle cx="0" cy="11" r="1" fill="srgba(11,114,38,1)"/>
  <circle cx="1" cy="11" r="1" fill="srgba(11,114,38,1)"/>
  <circle cx="2" cy="11" r="1" fill="srgba(4.20081%,44.7425%,14.9157%,1)"/>
  <circle cx="3" cy="11" r="1" fill="srgba(5.87625%,44.3305%,14.7692%,1)"/>
  <circle cx="4" cy="11" r="1" fill="srgba(14.9218%,38.706%,13.3288%,1)"/>
  <circle cx="5" cy="11" r="1" fill="srgba(13.9834%,33.9528%,6.2623%,1)"/>
  <circle cx="6" cy="11" r="1" fill="srgba(21.3535%,31.8456%,0.334173%,1)"/>
  <circle cx="7" cy="11" r="1" fill="srgba(49.2683%,7.67529%,3.86206%,1)"/>
  <circle cx="8" cy="11" r="1" fill="srgba(6.4271%,3.48669%,2.35752%,1)"/>
  <circle cx="9" cy="11" r="1" fill="black"/>
  <circle cx="10" cy="11" r="1" fill="black"/>
  <circle cx="11" cy="11" r="1" fill="black"/>
  <circle cx="12" cy="11" r="1" fill="black"/>
  <circle cx="13" cy="11" r="1" fill="black"/>
  <circle cx="14" cy="11" r="1" fill="srgba(34.7127%,14.9371%,4.45869%,1)"/>
  <circle cx="15" cy="11" r="1" fill="srgba(62.3377%,26.775%,7.99268%,1)"/>
  <circle cx="0" cy="12" r="1" fill="srgba(11,114,38,1)"/>
  <circle cx="1" cy="12" r="1" fill="srgba(11,114,38,1)"/>
  <circle cx="2" cy="12" r="1" fill="srgba(4.21912%,44.7364%,14.9142%,1)"/>
  <circle cx="3" cy="12" r="1" fill="srgba(5.66262%,44.3961%,14.7875%,1)"/>
  <circle cx="4" cy="12" r="1" fill="srgba(10.457%,40.3159%,13.9834%,1)"/>
  <circle cx="5" cy="12" r="1" fill="srgba(14.3984%,35.1324%,8.2414%,1)"/>
  <circle cx="6" cy="12" r="1" fill="srgba(21.146%,32.1675%,0.595102%,1)"/>
  <circle cx="7" cy="12" r="1" fill="srgba(61.2299%,3.57977%,1.27413%,1)"/>
  <circle cx="8" cy="12" r="1" fill="srgba(19.2325%,3.13725%,1.78531%,1)"/>
  <circle cx="9" cy="12" r="1" fill="black"/>
  <circle cx="10" cy="12" r="1" fill="black"/>
  <circle cx="11" cy="12" r="1" fill="black"/>
  <circle cx="12" cy="12" r="1" fill="black"/>
  <circle cx="13" cy="12" r="1" fill="black"/>
  <circle cx="14" cy="12" r="1" fill="srgba(34.7036%,14.6151%,4.36408%,1)"/>
  <circle cx="15" cy="12" r="1" fill="srgba(62.266%,26.8482%,8.02167%,1)"/>
  <circle cx="0" cy="13" r="1" fill="srgba(11,114,38,1)"/>
  <circle cx="1" cy="13" r="1" fill="srgba(11,114,38,1)"/>
  <circle cx="2" cy="13" r="1" fill="srgba(4.23133%,44.7318%,14.9126%,1)"/>
  <circle cx="3" cy="13" r="1" fill="srgba(5.43069%,44.4709%,14.815%,1)"/>
  <circle cx="4" cy="13" r="1" fill="srgba(10.6813%,40.0061%,13.6568%,1)"/>
  <circle cx="5" cy="13" r="1" fill="srgba(23.9612%,37.7005%,15.2438%,1)"/>
  <circle cx="6" cy="13" r="1" fill="srgba(24.5792%,34.4625%,4.41444%,1)"/>
  <circle cx="7" cy="13" r="1" fill="srgba(61.7456%,2.8748%,0.564584%,1)"/>
  <circle cx="8" cy="13" r="1" fill="srgba(32.6787%,5.51308%,2.02487%,1)"/>
  <circle cx="9" cy="13" r="1" fill="srgba(0.257877%,0.402838%,0%,1)"/>
  <circle cx="10" cy="13" r="1" fill="black"/>
  <circle cx="11" cy="13" r="1" fill="black"/>
  <circle cx="12" cy="13" r="1" fill="black"/>
  <circle cx="13" cy="13" r="1" fill="black"/>
  <circle cx="14" cy="13" r="1" fill="srgba(41.3184%,6.01205%,1.87533%,1)"/>
  <circle cx="15" cy="13" r="1" fill="srgba(64.3687%,22.7024%,6.8101%,1)"/>
  <circle cx="0" cy="14" r="1" fill="srgba(11,114,38,1)"/>
  <circle cx="1" cy="14" r="1" fill="srgba(11,114,38,1)"/>
  <circle cx="2" cy="14" r="1" fill="srgba(4.24659%,44.7272%,14.9096%,1)"/>
  <circle cx="3" cy="14" r="1" fill="srgba(5.18349%,44.5426%,14.8409%,1)"/>
  <circle cx="4" cy="14" r="1" fill="srgba(10.2525%,39.7421%,13.0465%,1)"/>
  <circle cx="5" cy="14" r="1" fill="srgba(38.1781%,42.2812%,26.8635%,1)"/>
  <circle cx="6" cy="14" r="1" fill="srgba(35.7809%,39.3149%,14.5861%,1)"/>
  <circle cx="7" cy="14" r="1" fill="srgba(51.7876%,7.36095%,3.12505%,1)"/>
  <circle cx="8" cy="14" r="1" fill="srgba(37.6501%,20.8637%,8.99977%,1)"/>
  <circle cx="9" cy="14" r="1" fill="srgba(6.28061%,4.54108%,0.0518807%,1)"/>
  <circle cx="10" cy="14" r="1" fill="black"/>
  <circle cx="11" cy="14" r="1" fill="black"/>
  <circle cx="12" cy="14" r="1" fill="black"/>
  <circle cx="13" cy="14" r="1" fill="srgba(0.0137331%,0%,0%,1)"/>
  <circle cx="14" cy="14" r="1" fill="srgba(31.8883%,9.53689%,0.0320439%,1)"/>
  <circle cx="15" cy="14" r="1" fill="srgba(31.0567%,35.7748%,2.07675%,1)"/>
  <circle cx="0" cy="15" r="1" fill="srgba(11,114,38,1)"/>
  <circle cx="1" cy="15" r="1" fill="srgba(11,114,38,1)"/>
  <circle cx="2" cy="15" r="1" fill="srgba(4.26184%,44.7227%,14.9081%,1)"/>
  <circle cx="3" cy="15" r="1" fill="srgba(4.94545%,44.5991%,14.8638%,1)"/>
  <circle cx="4" cy="15" r="1" fill="srgba(9.90311%,39.971%,12.9381%,1)"/>
  <circle cx="5" cy="15" r="1" fill="srgba(45.2705%,44.9348%,32.0241%,1)"/>
  <circle cx="6" cy="15" r="1" fill="srgba(39.1547%,41.8219%,18.2559%,1)"/>
  <circle cx="7" cy="15" r="1" fill="srgba(32.5505%,18.439%,5.94491%,1)"/>
  <circle cx="8" cy="15" r="1" fill="srgba(45.3819%,30.9667%,10.7073%,1)"/>
  <circle cx="9" cy="15" r="1" fill="srgba(19.8383%,13.8109%,0.0457771%,1)"/>
  <circle cx="10" cy="15" r="1" fill="black"/>
  <circle cx="11" cy="15" r="1" fill="black"/>
  <circle cx="12" cy="15" r="1" fill="black"/>
  <circle cx="13" cy="15" r="1" fill="srgba(0.137331%,0%,0%,1)"/>
  <circle cx="14" cy="15" r="1" fill="srgba(2.8397%,29.7047%,0%,1)"/>
  <circle cx="15" cy="15" r="1" fill="srgba(0.511177%,56.321%,0.0198367%,1)"/>
</svg>
