<?xml version="1.0" standalone="no"?>
<!DOCTYPE svg PUBLIC "-//W3C//DTD SVG 20010904//EN"
  "http://www.w3.org/TR/2001/REC-SVG-20010904/DTD/svg10.dtd">
<svg width="16" height="16">
  <circle cx="0" cy="0" r="1" fill="srgba(0.468452%,0.00762951%,39.9695%,1)"/>
  <circle cx="1" cy="0" r="1" fill="srgba(0.468452%,0.00762951%,39.9695%,1)"/>
  <circle cx="2" cy="0" r="1" fill="srgba(0.471504%,0.00762951%,39.968%,1)"/>
  <circle cx="3" cy="0" r="1" fill="srgba(0.428779%,0.00610361%,39.9878%,1)"/>
  <circle cx="4" cy="0" r="1" fill="srgba(0%,0%,40.4608%,1)"/>
  <circle cx="5" cy="0" r="1" fill="srgba(2.35294%,1.65713%,39.3454%,1)"/>
  <circle cx="6" cy="0" r="1" fill="srgba(7.61578%,5.74044%,37.0916%,1)"/>
  <circle cx="7" cy="0" r="1" fill="srgba(4.40833%,3.17082%,38.3871%,1)"/>
  <circle cx="8" cy="0" r="1" fill="srgba(0.605783%,0.149538%,39.913%,1)"/>
  <circle cx="9" cy="0" r="1" fill="srgba(0.383001%,0%,40.0275%,1)"/>
  <circle cx="10" cy="0" r="1" fill="srgba(0.39826%,0.00610361%,40.0214%,1)"/>
  <circle cx="11" cy="0" r="1" fill="srgba(0.428779%,0.00610361%,39.9832%,1)"/>
  <circle cx="12" cy="0" r="1" fill="srgba(0.469978%,0.00762951%,39.968%,1)"/>
  <circle cx="13" cy="0" r="1" fill="srgba(0.468452%,0.00762951%,39.9695%,1)"/>
  <circle cx="14" cy="0" r="1" fill="srgba(0.468452%,0.00762951%,39.9695%,1)"/>
  <circle cx="15" cy="0" r="1" fill="srgba(0.468452%,0.00762951%,39.9695%,1)"/>
  <circle cx="0" cy="1" r="1" fill="srgba(0.387579%,0%,40.0015%,1)"/>
  <circle cx="1" cy="1" r="1" fill="srgba(0.387579%,0%,40.0015%,1)"/>
  <circle cx="2" cy="1" r="1" fill="srgba(0.343328%,0%,40.0183%,1)"/>
  <circle cx="3" cy="1" r="1" fill="srgba(0.40589%,0.143435%,40.1205%,1)"/>
  <circle cx="4" cy="1" r="1" fill="srgba(23.9368%,18.9456%,30.5821%,1)"/>
  <circle cx="5" cy="1" r="1" fill="srgba(57.6699%,46.0029%,16.997%,1)"/>
  <circle cx="6" cy="1" r="1" fill="srgba(46.0273%,36.6552%,21.6739%,1)"/>
  <circle cx="7" cy="1" r="1" fill="srgba(23.212%,18.3291%,30.8354%,1)"/>
  <circle cx="8" cy="1" r="1" fill="srgba(4.64027%,3.4699%,38.3352%,1)"/>
  <circle cx="9" cy="1" r="1" fill="srgba(1.85702%,1.3901%,39.5941%,1)"/>
  <circle cx="10" cy="1" r="1" fill="srgba(2.06912%,1.55642%,39.5071%,1)"/>
  <circle cx="11" cy="1" r="1" fill="srgba(0.776684%,0.500496%,39.9054%,1)"/>
  <circle cx="12" cy="1" r="1" fill="srgba(0.2533%,0%,40.0641%,1)"/>
  <circle cx="13" cy="1" r="1" fill="srgba(0.393683%,0%,39.9985%,1)"/>
  <circle cx="14" cy="1" r="1" fill="srgba(0.387579%,0%,40.0015%,1)"/>
  <circle cx="15" cy="1" r="1" fill="srgba(0.387579%,0%,40.0015%,1)"/>
  <circle cx="0" cy="2" r="1" fill="srgba(1,0,102,1)"/>
  <circle cx="1" cy="2" r="1" fill="srgba(0.392157%,0%,39.9985%,1)"/>
  <circle cx="2" cy="2" r="1" fill="srgba(0%,0%,40.4257%,1)"/>
  <circle cx="3" cy="2" r="1" fill="srgba(24.1123%,19.0997%,30.5241%,1)"/>
  <circle cx="4" cy="2" r="1" fill="srgba(81.294%,64.9744%,7.51202%,1)"/>
  <circle cx="5" cy="2" r="1" fill="srgba(37.4014%,29.7246%,25.1377%,1)"/>
  <circle cx="6" cy="2" r="1" fill="srgba(3.35851%,2.38193%,38.8083%,1)"/>
  <circle cx="7" cy="2" r="1" fill="srgba(2.15305%,1.41451%,39.292%,1)"/>
  <circle cx="8" cy="2" r="1" fill="srgba(13.2708%,10.3426%,34.8287%,1)"/>
  <circle cx="9" cy="2" r="1" fill="srgba(31.3603%,24.8707%,27.5639%,1)"/>
  <circle cx="10" cy="2" r="1" fill="srgba(31.3436%,24.8569%,27.5715%,1)"/>
  <circle cx="11" cy="2" r="1" fill="srgba(12.8969%,10.0526%,34.9798%,1)"/>
  <circle cx="12" cy="2" r="1" fill="srgba(1.62051%,1.1017%,39.5178%,1)"/>
  <circle cx="13" cy="2" r="1" fill="srgba(0.270085%,0%,40.0488%,1)"/>
  <circle cx="14" cy="2" r="1" fill="srgba(1,0,102,1)"/>
  <circle cx="15" cy="2" r="1" fill="srgba(1,0,102,1)"/>
  <circle cx="0" cy="3" r="1" fill="srgba(1,0,102,1)"/>
  <circle cx="1" cy="3" r="1" fill="srgba(0.297551%,0%,40.0381%,1)"/>
  <circle cx="2" cy="3" r="1" fill="srgba(1.44503%,0.828565%,39.5773%,1)"/>
  <circle cx="3" cy="3" r="1" fill="srgba(64.9409%,52.1462%,14.078%,1)"/>
  <circle cx="4" cy="3" r="1" fill="srgba(62.2278%,50.0496%,15.198%,1)"/>
  <circle cx="5" cy="3" r="1" fill="srgba(1.04982%,0.756847%,39.971%,1)"/>
  <circle cx="6" cy="3" r="1" fill="srgba(0%,0%,40.1923%,1)"/>
  <circle cx="7" cy="3" r="1" fill="srgba(8.9601%,6.87877%,36.5576%,1)"/>
  <circle cx="8" cy="3" r="1" fill="srgba(49.9657%,39.8123%,20.0916%,1)"/>
  <circle cx="9" cy="3" r="1" fill="srgba(87.274%,69.9382%,5.10872%,1)"/>
  <circle cx="10" cy="3" r="1" fill="srgba(87.2602%,69.929%,5.11635%,1)"/>
  <circle cx="11" cy="3" r="1" fill="srgba(49.9916%,39.8306%,20.0824%,1)"/>
  <circle cx="12" cy="3" r="1" fill="srgba(8.96315%,6.88334%,36.5576%,1)"/>
  <circle cx="13" cy="3" r="1" fill="srgba(0.213626%,0%,40.0717%,1)"/>
  <circle cx="14" cy="3" r="1" fill="srgba(0.386053%,0%,40.0031%,1)"/>
  <circle cx="15" cy="3" r="1" fill="srgba(1,0,102,1)"/>
  <circle cx="0" cy="4" r="1" fill="srgba(1,0,102,1)"/>
  <circle cx="1" cy="4" r="1" fill="srgba(0.10071%,0%,40.1175%,1)"/>
  <circle cx="2" cy="4" r="1" fill="srgba(5.14382%,3.888%,38.0911%,1)"/>
  <circle cx="3" cy="4" r="1" fill="srgba(78.323%,63.0808%,8.70375%,1)"/>
  <circle cx="4" cy="4" r="1" fill="srgba(44.7822%,35.7763%,22.385%,1)"/>
  <circle cx="5" cy="4" r="1" fill="srgba(0%,0%,40.7385%,1)"/>
  <circle cx="6" cy="4" r="1" fill="srgba(0.0885023%,0%,40.119%,1)"/>
  <circle cx="7" cy="4" r="1" fill="srgba(16.2661%,12.7245%,33.6248%,1)"/>
  <circle cx="8" cy="4" r="1" fill="srgba(72.372%,58.2559%,11.0933%,1)"/>
  <circle cx="9" cy="4" r="1" fill="srgba(100%,81.323%,0%,1)"/>
  <circle cx="10" cy="4" r="1" fill="srgba(100%,81.3214%,0%,1)"/>
  <circle cx="11" cy="4" r="1" fill="srgba(72.3766%,58.2544%,11.0933%,1)"/>
  <circle cx="12" cy="4" r="1" fill="srgba(16.2737%,12.7337%,33.6217%,1)"/>
  <circle cx="13" cy="4" r="1" fill="srgba(0.0839246%,0%,40.1236%,1)"/>
  <circle cx="14" cy="4" r="1" fill="srgba(0.381476%,0%,40.0046%,1)"/>
  <circle cx="15" cy="4" r="1" fill="srgba(1,0,102,1)"/>
  <circle cx="0" cy="5" r="1" fill="srgba(1,0,102,1)"/>
  <circle cx="1" cy="5" r="1" fill="srgba(0.263981%,0%,40.0519%,1)"/>
  <circle cx="2" cy="5" r="1" fill="srgba(2.16983%,1.40993%,39.2859%,1)"/>
  <circle cx="3" cy="5" r="1" fill="srgba(68.6595%,55.1827%,12.5826%,1)"/>
  <circle cx="4" cy="5" r="1" fill="srgba(57.4716%,46.1753%,17.1328%,1)"/>
  <circle cx="5" cy="5" r="1" fill="srgba(0%,0%,40.3769%,1)"/>
  <circle cx="6" cy="5" r="1" fill="srgba(0.140383%,0%,40.1022%,1)"/>
  <circle cx="7" cy="5" r="1" fill="srgba(10.5913%,8.18647%,35.9045%,1)"/>
  <circle cx="8" cy="5" r="1" fill="srgba(55.2575%,44.0955%,17.9675%,1)"/>
  <circle cx="9" cy="5" r="1" fill="srgba(92.1019%,73.901%,3.17082%,1)"/>
  <circle cx="10" cy="5" r="1" fill="srgba(92.1004%,73.904%,3.17235%,1)"/>
  <circle cx="11" cy="5" r="1" fill="srgba(55.23%,44.0757%,17.9782%,1)"/>
  <circle cx="12" cy="5" r="1" fill="srgba(10.6142%,8.2063%,35.8953%,1)"/>
  <circle cx="13" cy="5" r="1" fill="srgba(0.234989%,0%,40.0626%,1)"/>
  <circle cx="14" cy="5" r="1" fill="srgba(0.383001%,0%,40.0031%,1)"/>
  <circle cx="15" cy="5" r="1" fill="srgba(1,0,102,1)"/>
  <circle cx="0" cy="6" r="1" fill="srgba(1,0,102,1)"/>
  <circle cx="1" cy="6" r="1" fill="srgba(0.390631%,0%,40%,1)"/>
  <circle cx="2" cy="6" r="1" fill="srgba(0%,0%,40.4532%,1)"/>
  <circle cx="3" cy="6" r="1" fill="srgba(30.5776%,24.2847%,27.9179%,1)"/>
  <circle cx="4" cy="6" r="1" fill="srgba(82.2614%,65.8015%,7.12139%,1)"/>
  <circle cx="5" cy="6" r="1" fill="srgba(27.0909%,21.445%,29.276%,1)"/>
  <circle cx="6" cy="6" r="1" fill="srgba(0.230411%,0.0549325%,40.1404%,1)"/>
  <circle cx="7" cy="6" r="1" fill="srgba(2.05844%,1.55947%,39.472%,1)"/>
  <circle cx="8" cy="6" r="1" fill="srgba(16.9986%,13.341%,33.3364%,1)"/>
  <circle cx="9" cy="6" r="1" fill="srgba(39.4644%,31.3802%,24.3091%,1)"/>
  <circle cx="10" cy="6" r="1" fill="srgba(39.5041%,31.4122%,24.2939%,1)"/>
  <circle cx="11" cy="6" r="1" fill="srgba(16.9406%,13.3013%,33.3577%,1)"/>
  <circle cx="12" cy="6" r="1" fill="srgba(2.24613%,1.6022%,39.2737%,1)"/>
  <circle cx="13" cy="6" r="1" fill="srgba(0.231937%,0%,40.0641%,1)"/>
  <circle cx="14" cy="6" r="1" fill="srgba(1,0,102,1)"/>
  <circle cx="15" cy="6" r="1" fill="srgba(1,0,102,1)"/>
  <circle cx="0" cy="7" r="1" fill="srgba(0.114443%,0%,40.1175%,1)"/>
  <circle cx="1" cy="7" r="1" fill="srgba(0.114443%,0%,40.1175%,1)"/>
  <circle cx="2" cy="7" r="1" fill="srgba(0.00762951%,0%,40.1633%,1)"/>
  <circle cx="3" cy="7" r="1" fill="srgba(1.15969%,0.875868%,39.8611%,1)"/>
  <circle cx="4" cy="7" r="1" fill="srgba(33.3349%,26.6697%,26.8055%,1)"/>
  <circle cx="5" cy="7" r="1" fill="srgba(63.36%,50.779%,14.7189%,1)"/>
  <circle cx="6" cy="7" r="1" fill="srgba(41.8143%,33.4737%,23.3722%,1)"/>
  <circle cx="7" cy="7" r="1" fill="srgba(19.2432%,15.346%,32.4346%,1)"/>
  <circle cx="8" cy="7" r="1" fill="srgba(4.09552%,3.2166%,38.5885%,1)"/>
  <circle cx="9" cy="7" r="1" fill="srgba(3.37072%,2.67185%,39.089%,1)"/>
  <circle cx="10" cy="7" r="1" fill="srgba(3.53094%,2.7985%,39.0219%,1)"/>
  <circle cx="11" cy="7" r="1" fill="srgba(1.26802%,0.988785%,39.826%,1)"/>
  <circle cx="12" cy="7" r="1" fill="srgba(0.00915541%,0%,40.206%,1)"/>
  <circle cx="13" cy="7" r="1" fill="srgba(0.115969%,0%,40.1144%,1)"/>
  <circle cx="14" cy="7" r="1" fill="srgba(0.114443%,0%,40.1175%,1)"/>
  <circle cx="15" cy="7" r="1" fill="srgba(0.114443%,0%,40.1175%,1)"/>
  <circle cx="0" cy="8" r="1" fill="srgba(4.83864%,0.187686%,37.9965%,1)"/>
  <circle cx="1" cy="8" r="1" fill="srgba(4.83864%,0.187686%,37.9965%,1)"/>
  <circle cx="2" cy="8" r="1" fill="srgba(4.84474%,0.189212%,37.9934%,1)"/>
  <circle cx="3" cy="8" r="1" fill="srgba(4.71046%,0.148013%,38.0484%,1)"/>
  <circle cx="4" cy="8" r="1" fill="srgba(3.86358%,0.0335698%,38.3886%,1)"/>
  <circle cx="5" cy="8" r="1" fill="srgba(10.1076%,4.5182%,35.8801%,1)"/>
  <circle cx="6" cy="8" r="1" fill="srgba(17.1771%,10.0923%,33.0419%,1)"/>
  <circle cx="7" cy="8" r="1" fill="srgba(11.4794%,5.52071%,35.3307%,1)"/>
  <circle cx="8" cy="8" r="1" fill="srgba(5.23842%,0.53254%,37.8363%,1)"/>
  <circle cx="9" cy="8" r="1" fill="srgba(4.6128%,0.111391%,38.0865%,1)"/>
  <circle cx="10" cy="8" r="1" fill="srgba(4.64637%,0.137331%,38.0743%,1)"/>
  <circle cx="11" cy="8" r="1" fill="srgba(4.76539%,0.15259%,38.0255%,1)"/>
  <circle cx="12" cy="8" r="1" fill="srgba(4.84321%,0.189212%,37.995%,1)"/>
  <circle cx="13" cy="8" r="1" fill="srgba(4.83864%,0.187686%,37.9965%,1)"/>
  <circle cx="14" cy="8" r="1" fill="srgba(4.83864%,0.187686%,37.9965%,1)"/>
  <circle cx="15" cy="8" r="1" fill="srgba(4.83864%,0.187686%,37.9965%,1)"/>
  <circle cx="0" cy="9" r="1" fill="srgba(63.7095%,1.85702%,10.5348%,1)"/>
  <circle cx="1" cy="9" r="1" fill="srgba(63.7095%,1.85702%,10.5348%,1)"/>
  <circle cx="2" cy="9" r="1" fill="srgba(63.7095%,1.85702%,10.5348%,1)"/>
  <circle cx="3" cy="9" r="1" fill="srgba(63.7095%,1.85702%,10.5348%,1)"/>
  <circle cx="4" cy="9" r="1" fill="srgba(63.7064%,1.8555%,10.5364%,1)"/>
  <circle cx="5" cy="9" r="1" fill="srgba(63.4073%,1.6144%,10.6569%,1)"/>
  <circle cx="6" cy="9" r="1" fill="srgba(62.9984%,1.28634%,10.8202%,1)"/>
  <circle cx="7" cy="9" r="1" fill="srgba(63.3295%,1.55184%,10.6889%,1)"/>
  <circle cx="8" cy="9" r="1" fill="srgba(63.6942%,1.84482%,10.5409%,1)"/>
  <circle cx="9" cy="9" r="1" fill="srgba(63.711%,1.85855%,10.5348%,1)"/>
  <circle cx="10" cy="9" r="1" fill="srgba(63.7095%,1.85702%,10.5348%,1)"/>
  <circle cx="11" cy="9" r="1" fill="srgba(63.7095%,1.85702%,10.5348%,1)"/>
  <circle cx="12" cy="9" r="1" fill="srgba(63.7095%,1.85702%,10.5348%,1)"/>
  <circle cx="13" cy="9" r="1" fill="srgba(63.7095%,1.85702%,10.5348%,1)"/>
  <circle cx="14" cy="9" r="1" fill="srgba(63.7095%,1.85702%,10.5348%,1)"/>
  <circle cx="15" cy="9" r="1" fill="srgba(63.7095%,1.85702%,10.5348%,1)"/>
  <circle cx="0" cy="10" r="1" fill="srgba(94.8623%,69.1615%,68.7663%,1)"/>
  <circle cx="1" cy="10" r="1" fill="srgba(94.8623%,69.1615%,68.7663%,1)"/>
  <circle cx="2" cy="10" r="1" fill="srgba(94.8623%,69.1615%,68.7663%,1)"/>
  <circle cx="3" cy="10" r="1" fill="srgba(94.8623%,69.1615%,68.7663%,1)"/>
  <circle cx="4" cy="10" r="1" fill="srgba(94.8623%,69.1615%,68.7663%,1)"/>
  <circle cx="5" cy="10" r="1" fill="srgba(94.8623%,69.1615%,68.7663%,1)"/>
  <circle cx="6" cy="10" r="1" fill="srgba(94.8623%,69.1615%,68.7663%,1)"/>
  <circle cx="7" cy="10" r="1" fill="srgba(94.8623%,69.1615%,68.7663%,1)"/>
  <circle cx="8" cy="10" r="1" fill="srgba(94.8623%,69.1615%,68.7663%,1)"/>
  <circle cx="9" cy="10" r="1" fill="srgba(94.8623%,69.1615%,68.7663%,1)"/>
  <circle cx="10" cy="10" r="1" fill="srgba(94.8623%,69.1615%,68.7663%,1)"/>
  <circle cx="11" cy="10" r="1" fill="srgba(94.8623%,69.1615%,68.7663%,1)"/>
  <circle cx="12" cy="10" r="1" fill="srgba(94.8623%,69.1615%,68.7663%,1)"/>
  <circle cx="13" cy="10" r="1" fill="srgba(94.8623%,69.1615%,68.7663%,1)"/>
  <circle cx="14" cy="10" r="1" fill="srgba(94.8623%,69.1615%,68.7663%,1)"/>
  <circle cx="15" cy="10" r="1" fill="srgba(94.8623%,69.1615%,68.7663%,1)"/>
  <circle cx="0" cy="11" r="1" fill="srgba(88.7663%,43.8422%,44.0604%,1)"/>
  <circle cx="1" cy="11" r="1" fill="srgba(88.7663%,43.8422%,44.0604%,1)"/>
  <circle cx="2" cy="11" r="1" fill="srgba(88.7663%,43.8422%,44.0604%,1)"/>
  <circle cx="3" cy="11" r="1" fill="srgba(88.7663%,43.8422%,44.0604%,1)"/>
  <circle cx="4" cy="11" r="1" fill="srgba(88.7663%,43.8422%,44.0604%,1)"/>
  <circle cx="5" cy="11" r="1" fill="srgba(88.7663%,43.8422%,44.0604%,1)"/>
  <circle cx="6" cy="11" r="1" fill="srgba(88.7663%,43.8422%,44.0604%,1)"/>
  <circle cx="7" cy="11" r="1" fill="srgba(88.7663%,43.8422%,44.0604%,1)"/>
  <circle cx="8" cy="11" r="1" fill="srgba(88.7663%,43.8422%,44.0604%,1)"/>
  <circle cx="9" cy="11" r="1" fill="srgba(88.7663%,43.8422%,44.0604%,1)"/>
  <circle cx="10" cy="11" r="1" fill="srgba(88.7663%,43.8422%,44.0604%,1)"/>
  <circle cx="11" cy="11" r="1" fill="srgba(88.7663%,43.8422%,44.0604%,1)"/>
  <circle cx="12" cy="11" r="1" fill="srgba(88.7663%,43.8422%,44.0604%,1)"/>
  <circle cx="13" cy="11" r="1" fill="srgba(88.7663%,43.8422%,44.0604%,1)"/>
  <circle cx="14" cy="11" r="1" fill="srgba(88.7663%,43.8422%,44.0604%,1)"/>
  <circle cx="15" cy="11" r="1" fill="srgba(88.7663%,43.8422%,44.0604%,1)"/>
  <circle cx="0" cy="12" r="1" fill="srgba(88.7129%,43.5645%,43.7827%,1)"/>
  <circle cx="1" cy="12" r="1" fill="srgba(88.7129%,43.5645%,43.7827%,1)"/>
  <circle cx="2" cy="12" r="1" fill="srgba(88.7129%,43.5645%,43.7827%,1)"/>
  <circle cx="3" cy="12" r="1" fill="srgba(88.7129%,43.5645%,43.7827%,1)"/>
  <circle cx="4" cy="12" r="1" fill="srgba(88.7129%,43.5645%,43.7827%,1)"/>
  <circle cx="5" cy="12" r="1" fill="srgba(88.7129%,43.5645%,43.7827%,1)"/>
  <circle cx="6" cy="12" r="1" fill="srgba(88.7129%,43.5645%,43.7827%,1)"/>
  <circle cx="7" cy="12" r="1" fill="srgba(88.7129%,43.5645%,43.7827%,1)"/>
  <circle cx="8" cy="12" r="1" fill="srgba(88.7129%,43.5645%,43.7827%,1)"/>
  <circle cx="9" cy="12" r="1" fill="srgba(88.7129%,43.5645%,43.7827%,1)"/>
  <circle cx="10" cy="12" r="1" fill="srgba(88.7129%,43.5645%,43.7827%,1)"/>
  <circle cx="11" cy="12" r="1" fill="srgba(88.7129%,43.5645%,43.7827%,1)"/>
  <circle cx="12" cy="12" r="1" fill="srgba(88.7129%,43.5645%,43.7827%,1)"/>
  <circle cx="13" cy="12" r="1" fill="srgba(88.7129%,43.5645%,43.7827%,1)"/>
  <circle cx="14" cy="12" r="1" fill="srgba(88.7129%,43.5645%,43.7827%,1)"/>
  <circle cx="15" cy="12" r="1" fill="srgba(88.7129%,43.5645%,43.7827%,1)"/>
  <circle cx="0" cy="13" r="1" fill="srgba(93.6217%,68.1285%,68.2521%,1)"/>
  <circle cx="1" cy="13" r="1" fill="srgba(93.6217%,68.1285%,68.2521%,1)"/>
  <circle cx="2" cy="13" r="1" fill="srgba(93.6217%,68.1285%,68.2521%,1)"/>
  <circle cx="3" cy="13" r="1" fill="srgba(93.6217%,68.1285%,68.2521%,1)"/>
  <circle cx="4" cy="13" r="1" fill="srgba(93.6217%,68.1285%,68.2521%,1)"/>
  <circle cx="5" cy="13" r="1" fill="srgba(93.6217%,68.1285%,68.2521%,1)"/>
  <circle cx="6" cy="13" r="1" fill="srgba(93.6217%,68.1285%,68.2521%,1)"/>
  <circle cx="7" cy="13" r="1" fill="srgba(93.6217%,68.1285%,68.2521%,1)"/>
  <circle cx="8" cy="13" r="1" fill="srgba(93.6217%,68.1285%,68.2521%,1)"/>
  <circle cx="9" cy="13" r="1" fill="srgba(93.6217%,68.1285%,68.2521%,1)"/>
  <circle cx="10" cy="13" r="1" fill="srgba(93.6217%,68.1285%,68.2521%,1)"/>
  <circle cx="11" cy="13" r="1" fill="srgba(93.6217%,68.1285%,68.2521%,1)"/>
  <circle cx="12" cy="13" r="1" fill="srgba(93.6217%,68.1285%,68.2521%,1)"/>
  <circle cx="13" cy="13" r="1" fill="srgba(93.6217%,68.1285%,68.2521%,1)"/>
  <circle cx="14" cy="13" r="1" fill="srgba(93.6217%,68.1285%,68.2521%,1)"/>
  <circle cx="15" cy="13" r="1" fill="srgba(93.6217%,68.1285%,68.2521%,1)"/>
  <circle cx="0" cy="14" r="1" fill="srgba(84.5502%,22.742%,23.0396%,1)"/>
  <circle cx="1" cy="14" r="1" fill="srgba(84.5502%,22.742%,23.0396%,1)"/>
  <circle cx="2" cy="14" r="1" fill="srgba(84.5502%,22.742%,23.0396%,1)"/>
  <circle cx="3" cy="14" r="1" fill="srgba(84.5502%,22.742%,23.0396%,1)"/>
  <circle cx="4" cy="14" r="1" fill="srgba(84.5502%,22.742%,23.0396%,1)"/>
  <circle cx="5" cy="14" r="1" fill="srgba(84.5502%,22.742%,23.0396%,1)"/>
  <circle cx="6" cy="14" r="1" fill="srgba(84.5502%,22.742%,23.0396%,1)"/>
  <circle cx="7" cy="14" r="1" fill="srgba(84.5502%,22.742%,23.0396%,1)"/>
  <circle cx="8" cy="14" r="1" fill="srgba(84.5502%,22.742%,23.0396%,1)"/>
  <circle cx="9" cy="14" r="1" fill="srgba(84.5502%,22.742%,23.0396%,1)"/>
  <circle cx="10" cy="14" r="1" fill="srgba(84.5502%,22.742%,23.0396%,1)"/>
  <circle cx="11" cy="14" r="1" fill="srgba(84.5502%,22.742%,23.0396%,1)"/>
  <circle cx="12" cy="14" r="1" fill="srgba(84.5502%,22.742%,23.0396%,1)"/>
  <circle cx="13" cy="14" r="1" fill="srgba(84.5502%,22.742%,23.0396%,1)"/>
  <circle cx="14" cy="14" r="1" fill="srgba(84.5502%,22.742%,23.0396%,1)"/>
  <circle cx="15" cy="14" r="1" fill="srgba(84.5502%,22.742%,23.0396%,1)"/>
  <circle cx="0" cy="15" r="1" fill="srgba(98.6954%,93.4661%,93.4905%,1)"/>
  <circle cx="1" cy="15" r="1" fill="srgba(98.6954%,93.4661%,93.4905%,1)"/>
  <circle cx="2" cy="15" r="1" fill="srgba(98.6954%,93.4661%,93.4905%,1)"/>
  <circle cx="3" cy="15" r="1" fill="srgba(98.6954%,93.4661%,93.4905%,1)"/>
  <circle cx="4" cy="15" r="1" fill="srgba(98.6954%,93.4661%,93.4905%,1)"/>
  <circle cx="5" cy="15" r="1" fill="srgba(98.6954%,93.4661%,93.4905%,1)"/>
  <circle cx="6" cy="15" r="1" fill="srgba(98.6954%,93.4661%,93.4905%,1)"/>
  <circle cx="7" cy="15" r="1" fill="srgba(98.6954%,93.4661%,93.4905%,1)"/>
  <circle cx="8" cy="15" r="1" fill="srgba(98.6954%,93.4661%,93.4905%,1)"/>
  <circle cx="9" cy="15" r="1" fill="srgba(98.6954%,93.4661%,93.4905%,1)"/>
  <circle cx="10" cy="15" r="1" fill="srgba(98.6954%,93.4661%,93.4905%,1)"/>
  <circle cx="11" cy="15" r="1" fill="srgba(98.6954%,93.4661%,93.4905%,1)"/>
  <circle cx="12" cy="15" r="1" fill="srgba(98.6954%,93.4661%,93.4905%,1)"/>
  <circle cx="13" cy="15" r="1" fill="srgba(98.6954%,93.4661%,93.4905%,1)"/>
  <circle cx="14" cy="15" r="1" fill="srgba(98.6954%,93.4661%,93.4905%,1)"/>
  <circle cx="15" cy="15" r="1" fill="srgba(98.6954%,93.4661%,93.4905%,1)"/>
</svg>
