<?xml version="1.0" standalone="no"?>
<!DOCTYPE svg PUBLIC "-//W3C//DTD SVG 20010904//EN"
  "http://www.w3.org/TR/2001/REC-SVG-20010904/DTD/svg10.dtd">
<svg width="16" height="16">
  <circle cx="0" cy="0" r="1" fill="srgba(61.8936%,22.9984%,0%,1)"/>
  <circle cx="1" cy="0" r="1" fill="srgba(12.1645%,53.2753%,0%,1)"/>
  <circle cx="2" cy="0" r="1" fill="srgba(0%,61.2634%,0%,1)"/>
  <circle cx="3" cy="0" r="1" fill="srgba(0%,60.4181%,0%,1)"/>
  <circle cx="4" cy="0" r="1" fill="srgba(0%,60.3906%,0%,1)"/>
  <circle cx="5" cy="0" r="1" fill="srgba(0,154,0,1)"/>
  <circle cx="6" cy="0" r="1" fill="srgba(0,154,0,1)"/>
  <circle cx="7" cy="0" r="1" fill="srgba(0,154,0,1)"/>
  <circle cx="8" cy="0" r="1" fill="srgba(0,154,0,1)"/>
  <circle cx="9" cy="0" r="1" fill="srgba(0,154,0,1)"/>
  <circle cx="10" cy="0" r="1" fill="srgba(0,154,0,1)"/>
  <circle cx="11" cy="0" r="1" fill="srgba(0,154,0,1)"/>
  <circle cx="12" cy="0" r="1" fill="srgba(0,154,0,1)"/>
  <circle cx="13" cy="0" r="1" fill="srgba(0,154,0,1)"/>
  <circle cx="14" cy="0" r="1" fill="srgba(0%,60.3906%,0%,1)"/>
  <circle cx="15" cy="0" r="1" fill="srgba(0.030518%,60.4074%,0.030518%,1)"/>
  <circle cx="0" cy="1" r="1" fill="srgba(99.4278%,0.344854%,0%,1)"/>
  <circle cx="1" cy="1" r="1" fill="srgba(75.1888%,14.9813%,0%,1)"/>
  <circle cx="2" cy="1" r="1" fill="srgba(21.5244%,47.4418%,0%,1)"/>
  <circle cx="3" cy="1" r="1" fill="srgba(0.0610361%,60.9293%,0%,1)"/>
  <circle cx="4" cy="1" r="1" fill="srgba(0%,60.5463%,0%,1)"/>
  <circle cx="5" cy="1" r="1" fill="srgba(0%,60.3861%,0%,1)"/>
  <circle cx="6" cy="1" r="1" fill="srgba(0,154,0,1)"/>
  <circle cx="7" cy="1" r="1" fill="srgba(0,154,0,1)"/>
  <circle cx="8" cy="1" r="1" fill="srgba(0,154,0,1)"/>
  <circle cx="9" cy="1" r="1" fill="srgba(0,154,0,1)"/>
  <circle cx="10" cy="1" r="1" fill="srgba(0,154,0,1)"/>
  <circle cx="11" cy="1" r="1" fill="srgba(0,154,0,1)"/>
  <circle cx="12" cy="1" r="1" fill="srgba(0,154,0,1)"/>
  <circle cx="13" cy="1" r="1" fill="srgba(0,154,0,1)"/>
  <circle cx="14" cy="1" r="1" fill="srgba(0%,60.3906%,0%,1)"/>
  <circle cx="15" cy="1" r="1" fill="srgba(0.030518%,60.4074%,0.030518%,1)"/>
  <circle cx="0" cy="2" r="1" fill="red"/>
  <circle cx="1" cy="2" r="1" fill="red"/>
  <circle cx="2" cy="2" r="1" fill="srgba(88.0995%,7.18547%,0%,1)"/>
  <circle cx="3" cy="2" r="1" fill="srgba(37.5891%,37.6806%,0%,1)"/>
  <circle cx="4" cy="2" r="1" fill="srgba(2.41398%,59.3866%,0%,1)"/>
  <circle cx="5" cy="2" r="1" fill="srgba(0%,60.8194%,0%,1)"/>
  <circle cx="6" cy="2" r="1" fill="srgba(0%,60.3799%,0%,1)"/>
  <circle cx="7" cy="2" r="1" fill="srgba(0,154,0,1)"/>
  <circle cx="8" cy="2" r="1" fill="srgba(0,154,0,1)"/>
  <circle cx="9" cy="2" r="1" fill="srgba(0,154,0,1)"/>
  <circle cx="10" cy="2" r="1" fill="srgba(0,154,0,1)"/>
  <circle cx="11" cy="2" r="1" fill="srgba(0,154,0,1)"/>
  <circle cx="12" cy="2" r="1" fill="srgba(0,154,0,1)"/>
  <circle cx="13" cy="2" r="1" fill="srgba(0,154,0,1)"/>
  <circle cx="14" cy="2" r="1" fill="srgba(0%,60.3906%,0%,1)"/>
  <circle cx="15" cy="2" r="1" fill="srgba(0.030518%,60.4074%,0.030518%,1)"/>
  <circle cx="0" cy="3" r="1" fill="red"/>
  <circle cx="1" cy="3" r="1" fill="red"/>
  <circle cx="2" cy="3" r="1" fill="red"/>
  <circle cx="3" cy="3" r="1" fill="srgba(95.7977%,2.53758%,0%,1)"/>
  <circle cx="4" cy="3" r="1" fill="srgba(55.5505%,26.8315%,0%,1)"/>
  <circle cx="5" cy="3" r="1" fill="srgba(8.35431%,55.5947%,0%,1)"/>
  <circle cx="6" cy="3" r="1" fill="srgba(0%,61.0315%,0%,1)"/>
  <circle cx="7" cy="3" r="1" fill="srgba(0%,60.0992%,0%,1)"/>
  <circle cx="8" cy="3" r="1" fill="srgba(0%,60.0763%,0%,1)"/>
  <circle cx="9" cy="3" r="1" fill="srgba(0%,60.0778%,0%,1)"/>
  <circle cx="10" cy="3" r="1" fill="srgba(0%,60.0778%,0%,1)"/>
  <circle cx="11" cy="3" r="1" fill="srgba(0%,60.0778%,0%,1)"/>
  <circle cx="12" cy="3" r="1" fill="srgba(0%,60.0778%,0%,1)"/>
  <circle cx="13" cy="3" r="1" fill="srgba(0%,60.0778%,0%,1)"/>
  <circle cx="14" cy="3" r="1" fill="srgba(0%,60.0763%,0%,1)"/>
  <circle cx="15" cy="3" r="1" fill="srgba(0.015259%,60.0931%,0.015259%,1)"/>
  <circle cx="0" cy="4" r="1" fill="red"/>
  <circle cx="1" cy="4" r="1" fill="red"/>
  <circle cx="2" cy="4" r="1" fill="red"/>
  <circle cx="3" cy="4" r="1" fill="red"/>
  <circle cx="4" cy="4" r="1" fill="srgba(99.3454%,0.395209%,0%,1)"/>
  <circle cx="5" cy="4" r="1" fill="srgba(72.3919%,16.4843%,0%,1)"/>
  <circle cx="6" cy="4" r="1" fill="srgba(22.5986%,50.4128%,3.68353%,1)"/>
  <circle cx="7" cy="4" r="1" fill="srgba(11.9158%,66.2928%,13.0083%,1)"/>
  <circle cx="8" cy="4" r="1" fill="srgba(13.5103%,66.6773%,13.7057%,1)"/>
  <circle cx="9" cy="4" r="1" fill="srgba(13.6721%,66.6346%,13.6629%,1)"/>
  <circle cx="10" cy="4" r="1" fill="srgba(13.6629%,66.6346%,13.6629%,1)"/>
  <circle cx="11" cy="4" r="1" fill="srgba(13.6629%,66.6346%,13.6629%,1)"/>
  <circle cx="12" cy="4" r="1" fill="srgba(13.6629%,66.6346%,13.6629%,1)"/>
  <circle cx="13" cy="4" r="1" fill="srgba(13.6629%,66.6346%,13.6629%,1)"/>
  <circle cx="14" cy="4" r="1" fill="srgba(13.6614%,66.6346%,13.6614%,1)"/>
  <circle cx="15" cy="4" r="1" fill="srgba(13.6889%,66.6484%,13.6889%,1)"/>
  <circle cx="0" cy="5" r="1" fill="red"/>
  <circle cx="1" cy="5" r="1" fill="red"/>
  <circle cx="2" cy="5" r="1" fill="red"/>
  <circle cx="3" cy="5" r="1" fill="red"/>
  <circle cx="4" cy="5" r="1" fill="red"/>
  <circle cx="5" cy="5" r="1" fill="srgba(99.9451%,0%,0%,1)"/>
  <circle cx="6" cy="5" r="1" fill="srgba(93.106%,11.4488%,7.08934%,1)"/>
  <circle cx="7" cy="5" r="1" fill="srgba(68.4276%,41.4618%,34.1985%,1)"/>
  <circle cx="8" cy="5" r="1" fill="srgba(39.115%,45.3559%,38.1994%,1)"/>
  <circle cx="9" cy="5" r="1" fill="srgba(37.3602%,45.1194%,37.9629%,1)"/>
  <circle cx="10" cy="5" r="1" fill="srgba(37.9812%,45.1194%,37.9629%,1)"/>
  <circle cx="11" cy="5" r="1" fill="srgba(37.9629%,45.1194%,37.9629%,1)"/>
  <circle cx="12" cy="5" r="1" fill="srgba(37.9629%,45.1194%,37.9629%,1)"/>
  <circle cx="13" cy="5" r="1" fill="srgba(37.9629%,45.1194%,37.9629%,1)"/>
  <circle cx="14" cy="5" r="1" fill="srgba(37.9614%,45.1179%,37.9614%,1)"/>
  <circle cx="15" cy="5" r="1" fill="srgba(37.9828%,45.1362%,37.9828%,1)"/>
  <circle cx="0" cy="6" r="1" fill="red"/>
  <circle cx="1" cy="6" r="1" fill="srgba(100%,0.0366217%,0%,1)"/>
  <circle cx="2" cy="6" r="1" fill="srgba(100%,0.0518807%,0%,1)"/>
  <circle cx="3" cy="6" r="1" fill="srgba(96.2463%,0%,0%,1)"/>
  <circle cx="4" cy="6" r="1" fill="srgba(96.2524%,0%,0%,1)"/>
  <circle cx="5" cy="6" r="1" fill="red"/>
  <circle cx="6" cy="6" r="1" fill="red"/>
  <circle cx="7" cy="6" r="1" fill="srgba(94.0856%,0%,0%,1)"/>
  <circle cx="8" cy="6" r="1" fill="srgba(51.0643%,0%,0%,1)"/>
  <circle cx="9" cy="6" r="1" fill="srgba(6.28367%,0%,0%,1)"/>
  <circle cx="10" cy="6" r="1" fill="black"/>
  <circle cx="11" cy="6" r="1" fill="black"/>
  <circle cx="12" cy="6" r="1" fill="black"/>
  <circle cx="13" cy="6" r="1" fill="black"/>
  <circle cx="14" cy="6" r="1" fill="black"/>
  <circle cx="15" cy="6" r="1" fill="srgba(0.0183108%,0.00915541%,0.0183108%,1)"/>
  <circle cx="0" cy="7" r="1" fill="red"/>
  <circle cx="1" cy="7" r="1" fill="srgba(100%,2.8687%,0%,1)"/>
  <circle cx="2" cy="7" r="1" fill="srgba(100%,16.936%,0%,1)"/>
  <circle cx="3" cy="7" r="1" fill="srgba(88.5191%,2.59709%,0%,1)"/>
  <circle cx="4" cy="7" r="1" fill="srgba(68.9357%,0%,0%,1)"/>
  <circle cx="5" cy="7" r="1" fill="srgba(87.1656%,0%,0%,1)"/>
  <circle cx="6" cy="7" r="1" fill="srgba(94.4701%,0%,0%,1)"/>
  <circle cx="7" cy="7" r="1" fill="srgba(244,0,0,1)"/>
  <circle cx="8" cy="7" r="1" fill="srgba(95.2041%,0%,0%,1)"/>
  <circle cx="9" cy="7" r="1" fill="srgba(65.6382%,0%,0%,1)"/>
  <circle cx="10" cy="7" r="1" fill="srgba(12.3781%,0%,0%,1)"/>
  <circle cx="11" cy="7" r="1" fill="black"/>
  <circle cx="12" cy="7" r="1" fill="black"/>
  <circle cx="13" cy="7" r="1" fill="black"/>
  <circle cx="14" cy="7" r="1" fill="black"/>
  <circle cx="15" cy="7" r="1" fill="srgba(0.030518%,0.030518%,0.030518%,1)"/>
  <circle cx="0" cy="8" r="1" fill="red"/>
  <circle cx="1" cy="8" r="1" fill="srgba(100%,1.23903%,0%,1)"/>
  <circle cx="2" cy="8" r="1" fill="srgba(99.0906%,47.3228%,0%,1)"/>
  <circle cx="3" cy="8" r="1" fill="srgba(76.0861%,28.1926%,0.0122072%,1)"/>
  <circle cx="4" cy="8" r="1" fill="srgba(42.6215%,4.17182%,5.20485%,1)"/>
  <circle cx="5" cy="8" r="1" fill="srgba(55.9304%,10.5592%,11.2306%,1)"/>
  <circle cx="6" cy="8" r="1" fill="srgba(80.1114%,0.285344%,0.303655%,1)"/>
  <circle cx="7" cy="8" r="1" fill="srgba(72.4132%,0%,0%,1)"/>
  <circle cx="8" cy="8" r="1" fill="srgba(73.843%,0%,0%,1)"/>
  <circle cx="9" cy="8" r="1" fill="srgba(62.5422%,0%,0%,1)"/>
  <circle cx="10" cy="8" r="1" fill="srgba(12.9549%,0%,0%,1)"/>
  <circle cx="11" cy="8" r="1" fill="black"/>
  <circle cx="12" cy="8" r="1" fill="black"/>
  <circle cx="13" cy="8" r="1" fill="black"/>
  <circle cx="14" cy="8" r="1" fill="black"/>
  <circle cx="15" cy="8" r="1" fill="srgba(0.0228885%,0.0228885%,0.0228885%,1)"/>
  <circle cx="0" cy="9" r="1" fill="red"/>
  <circle cx="1" cy="9" r="1" fill="red"/>
  <circle cx="2" cy="9" r="1" fill="srgba(76.6369%,16.8902%,0%,1)"/>
  <circle cx="3" cy="9" r="1" fill="srgba(11.1971%,9.06081%,0%,1)"/>
  <circle cx="4" cy="9" r="1" fill="srgba(27.364%,15.079%,5.01106%,1)"/>
  <circle cx="5" cy="9" r="1" fill="srgba(86.7506%,45.9129%,29.6727%,1)"/>
  <circle cx="6" cy="9" r="1" fill="srgba(76.2402%,5.51156%,5.3315%,1)"/>
  <circle cx="7" cy="9" r="1" fill="srgba(22.417%,0%,0%,1)"/>
  <circle cx="8" cy="9" r="1" fill="srgba(1.28023%,0%,0%,1)"/>
  <circle cx="9" cy="9" r="1" fill="srgba(1.43893%,0%,0%,1)"/>
  <circle cx="10" cy="9" r="1" fill="black"/>
  <circle cx="11" cy="9" r="1" fill="black"/>
  <circle cx="12" cy="9" r="1" fill="black"/>
  <circle cx="13" cy="9" r="1" fill="black"/>
  <circle cx="14" cy="9" r="1" fill="black"/>
  <circle cx="15" cy="9" r="1" fill="black"/>
  <circle cx="0" cy="10" r="1" fill="red"/>
  <circle cx="1" cy="10" r="1" fill="red"/>
  <circle cx="2" cy="10" r="1" fill="srgba(75.3491%,2.69627%,0%,1)"/>
  <circle cx="3" cy="10" r="1" fill="srgba(5.87778%,1.66323%,0%,1)"/>
  <circle cx="4" cy="10" r="1" fill="srgba(17.1923%,13.9849%,0%,1)"/>
  <circle cx="5" cy="10" r="1" fill="srgba(90.219%,64.6326%,3.84375%,1)"/>
  <circle cx="6" cy="10" r="1" fill="srgba(99.7345%,28.0552%,9.4789%,1)"/>
  <circle cx="7" cy="10" r="1" fill="srgba(75.0225%,43.6988%,34.6304%,1)"/>
  <circle cx="8" cy="10" r="1" fill="srgba(32.7993%,31.2734%,22.2507%,1)"/>
  <circle cx="9" cy="10" r="1" fill="srgba(2.84428%,2.38041%,0.274662%,1)"/>
  <circle cx="10" cy="10" r="1" fill="black"/>
  <circle cx="11" cy="10" r="1" fill="black"/>
  <circle cx="12" cy="10" r="1" fill="black"/>
  <circle cx="13" cy="10" r="1" fill="black"/>
  <circle cx="14" cy="10" r="1" fill="black"/>
  <circle cx="15" cy="10" r="1" fill="srgba(0.015259%,0.0137331%,0.0122072%,1)"/>
  <circle cx="0" cy="11" r="1" fill="red"/>
  <circle cx="1" cy="11" r="1" fill="red"/>
  <circle cx="2" cy="11" r="1" fill="srgba(89.2515%,3.70642%,0.0030518%,1)"/>
  <circle cx="3" cy="11" r="1" fill="srgba(30.457%,10.4204%,0.138857%,1)"/>
  <circle cx="4" cy="11" r="1" fill="srgba(4.62348%,4.58686%,0.0167849%,1)"/>
  <circle cx="5" cy="11" r="1" fill="srgba(77.8637%,60.4776%,0%,1)"/>
  <circle cx="6" cy="11" r="1" fill="srgba(100%,73.5485%,3.59503%,1)"/>
  <circle cx="7" cy="11" r="1" fill="srgba(100%,82.6307%,12.9015%,1)"/>
  <circle cx="8" cy="11" r="1" fill="srgba(96.0571%,78.4878%,9.1722%,1)"/>
  <circle cx="9" cy="11" r="1" fill="srgba(56.7376%,45.0065%,0.381476%,1)"/>
  <circle cx="10" cy="11" r="1" fill="srgba(9.06081%,7.17174%,0%,1)"/>
  <circle cx="11" cy="11" r="1" fill="black"/>
  <circle cx="12" cy="11" r="1" fill="black"/>
  <circle cx="13" cy="11" r="1" fill="black"/>
  <circle cx="14" cy="11" r="1" fill="black"/>
  <circle cx="15" cy="11" r="1" fill="srgba(0.030518%,0.0244144%,0.00457771%,1)"/>
  <circle cx="0" cy="12" r="1" fill="red"/>
  <circle cx="1" cy="12" r="1" fill="red"/>
  <circle cx="2" cy="12" r="1" fill="srgba(92.7977%,0.932326%,0.0350958%,1)"/>
  <circle cx="3" cy="12" r="1" fill="srgba(58.2712%,16.0998%,1.95163%,1)"/>
  <circle cx="4" cy="12" r="1" fill="srgba(0.958267%,1.8555%,0.259403%,1)"/>
  <circle cx="5" cy="12" r="1" fill="srgba(51.5557%,41.1276%,0%,1)"/>
  <circle cx="6" cy="12" r="1" fill="srgba(100%,80.5692%,0%,1)"/>
  <circle cx="7" cy="12" r="1" fill="srgba(100%,79.0738%,0%,1)"/>
  <circle cx="8" cy="12" r="1" fill="srgba(100%,79.4003%,0%,1)"/>
  <circle cx="9" cy="12" r="1" fill="srgba(99.4903%,79.5377%,0%,1)"/>
  <circle cx="10" cy="12" r="1" fill="srgba(74.0551%,58.6908%,0%,1)"/>
  <circle cx="11" cy="12" r="1" fill="srgba(20.5585%,16.286%,0%,1)"/>
  <circle cx="12" cy="12" r="1" fill="black"/>
  <circle cx="13" cy="12" r="1" fill="black"/>
  <circle cx="14" cy="12" r="1" fill="black"/>
  <circle cx="15" cy="12" r="1" fill="srgba(0.030518%,0.0228885%,0%,1)"/>
  <circle cx="0" cy="13" r="1" fill="red"/>
  <circle cx="1" cy="13" r="1" fill="red"/>
  <circle cx="2" cy="13" r="1" fill="srgba(92.343%,8.63661%,0.00915541%,1)"/>
  <circle cx="3" cy="13" r="1" fill="srgba(83.2197%,44.7761%,0.590524%,1)"/>
  <circle cx="4" cy="13" r="1" fill="srgba(16.0586%,13.3806%,0.0808728%,1)"/>
  <circle cx="5" cy="13" r="1" fill="srgba(17.7859%,14.0917%,0%,1)"/>
  <circle cx="6" cy="13" r="1" fill="srgba(89.6422%,71.4534%,0%,1)"/>
  <circle cx="7" cy="13" r="1" fill="srgba(100%,79.823%,0%,1)"/>
  <circle cx="8" cy="13" r="1" fill="srgba(100%,79.2065%,0%,1)"/>
  <circle cx="9" cy="13" r="1" fill="srgba(100%,79.2798%,0%,1)"/>
  <circle cx="10" cy="13" r="1" fill="srgba(100%,80.2457%,0%,1)"/>
  <circle cx="11" cy="13" r="1" fill="srgba(87.3747%,69.4148%,0%,1)"/>
  <circle cx="12" cy="13" r="1" fill="srgba(36.6827%,29.0471%,0%,1)"/>
  <circle cx="13" cy="13" r="1" fill="srgba(2.2858%,1.80972%,0%,1)"/>
  <circle cx="14" cy="13" r="1" fill="black"/>
  <circle cx="15" cy="13" r="1" fill="srgba(0.030518%,0.0228885%,0%,1)"/>
  <circle cx="0" cy="14" r="1" fill="srgba(100%,0.476081%,0%,1)"/>
  <circle cx="1" cy="14" r="1" fill="srgba(100%,20.0336%,0%,1)"/>
  <circle cx="2" cy="14" r="1" fill="srgba(92.2408%,56.6644%,0%,1)"/>
  <circle cx="3" cy="14" r="1" fill="srgba(97.0825%,77.5692%,0%,1)"/>
  <circle cx="4" cy="14" r="1" fill="srgba(44.6372%,35.5306%,0%,1)"/>
  <circle cx="5" cy="14" r="1" fill="black"/>
  <circle cx="6" cy="14" r="1" fill="srgba(48.983%,38.8266%,0%,1)"/>
  <circle cx="7" cy="14" r="1" fill="srgba(98.88%,78.5702%,0%,1)"/>
  <circle cx="8" cy="14" r="1" fill="srgba(100%,79.3347%,0%,1)"/>
  <circle cx="9" cy="14" r="1" fill="srgba(100%,79.2126%,0%,1)"/>
  <circle cx="10" cy="14" r="1" fill="srgba(100%,79.205%,0%,1)"/>
  <circle cx="11" cy="14" r="1" fill="srgba(100%,79.9634%,0%,1)"/>
  <circle cx="12" cy="14" r="1" fill="srgba(95.6161%,76.2142%,0%,1)"/>
  <circle cx="13" cy="14" r="1" fill="srgba(55.4879%,43.9338%,0%,1)"/>
  <circle cx="14" cy="14" r="1" fill="srgba(8.70985%,6.8986%,0%,1)"/>
  <circle cx="15" cy="14" r="1" fill="black"/>
  <circle cx="0" cy="15" r="1" fill="srgba(100%,30.4479%,0.129702%,1)"/>
  <circle cx="1" cy="15" r="1" fill="srgba(100%,70.2525%,0.131228%,1)"/>
  <circle cx="2" cy="15" r="1" fill="srgba(92.6131%,74.5006%,0.122072%,1)"/>
  <circle cx="3" cy="15" r="1" fill="srgba(98.1918%,77.8759%,0.128176%,1)"/>
  <circle cx="4" cy="15" r="1" fill="srgba(71.6091%,56.907%,0.114443%,1)"/>
  <circle cx="5" cy="15" r="1" fill="srgba(4.06348%,3.22576%,0.0228885%,1)"/>
  <circle cx="6" cy="15" r="1" fill="srgba(6.95811%,5.51308%,0.00457771%,1)"/>
  <circle cx="7" cy="15" r="1" fill="srgba(69.1478%,54.786%,0.0381476%,1)"/>
  <circle cx="8" cy="15" r="1" fill="srgba(100%,79.8108%,0.12665%,1)"/>
  <circle cx="9" cy="15" r="1" fill="srgba(100%,79.2569%,0.131228%,1)"/>
  <circle cx="10" cy="15" r="1" fill="srgba(100%,79.2462%,0.131228%,1)"/>
  <circle cx="11" cy="15" r="1" fill="srgba(100%,79.2325%,0.131228%,1)"/>
  <circle cx="12" cy="15" r="1" fill="srgba(100%,79.6231%,0.131228%,1)"/>
  <circle cx="13" cy="15" r="1" fill="srgba(99.2203%,79.4446%,0.131228%,1)"/>
  <circle cx="14" cy="15" r="1" fill="srgba(68.1346%,54.0246%,0.132753%,1)"/>
  <circle cx="15" cy="15" r="1" fill="srgba(13.8643%,11.0018%,0.0839246%,1)"/>
</svg>
