<?xml version="1.0" standalone="no"?>
<!DOCTYPE svg PUBLIC "-//W3C//DTD SVG 20010904//EN"
  "http://www.w3.org/TR/2001/REC-SVG-20010904/DTD/svg10.dtd">
<svg width="16" height="16">
  <circle cx="0" cy="0" r="1" fill="white"/>
  <circle cx="1" cy="0" r="1" fill="white"/>
  <circle cx="2" cy="0" r="1" fill="white"/>
  <circle cx="3" cy="0" r="1" fill="white"/>
  <circle cx="4" cy="0" r="1" fill="white"/>
  <circle cx="5" cy="0" r="1" fill="white"/>
  <circle cx="6" cy="0" r="1" fill="white"/>
  <circle cx="7" cy="0" r="1" fill="white"/>
  <circle cx="8" cy="0" r="1" fill="white"/>
  <circle cx="9" cy="0" r="1" fill="white"/>
  <circle cx="10" cy="0" r="1" fill="white"/>
  <circle cx="11" cy="0" r="1" fill="srgba(97.3678%,97.9446%,98.7823%,1)"/>
  <circle cx="12" cy="0" r="1" fill="srgba(79.6536%,84.1077%,90.5867%,1)"/>
  <circle cx="13" cy="0" r="1" fill="srgba(63.1403%,71.2093%,82.9465%,1)"/>
  <circle cx="14" cy="0" r="1" fill="srgba(90.2129%,92.3552%,95.4726%,1)"/>
  <circle cx="15" cy="0" r="1" fill="white"/>
  <circle cx="0" cy="1" r="1" fill="white"/>
  <circle cx="1" cy="1" r="1" fill="white"/>
  <circle cx="2" cy="1" r="1" fill="srgba(99.678%,99.7818%,100%,1)"/>
  <circle cx="3" cy="1" r="1" fill="srgba(97.1603%,97.9294%,99.9268%,1)"/>
  <circle cx="4" cy="1" r="1" fill="srgba(98.8083%,99.1501%,99.9817%,1)"/>
  <circle cx="5" cy="1" r="1" fill="white"/>
  <circle cx="6" cy="1" r="1" fill="white"/>
  <circle cx="7" cy="1" r="1" fill="white"/>
  <circle cx="8" cy="1" r="1" fill="srgba(99.9191%,99.9359%,99.9619%,1)"/>
  <circle cx="9" cy="1" r="1" fill="srgba(93.4585%,94.8913%,96.9741%,1)"/>
  <circle cx="10" cy="1" r="1" fill="srgba(73.2128%,79.0753%,87.6066%,1)"/>
  <circle cx="11" cy="1" r="1" fill="srgba(45.5558%,57.4731%,74.8104%,1)"/>
  <circle cx="12" cy="1" r="1" fill="srgba(35.8068%,49.8604%,70.2998%,1)"/>
  <circle cx="13" cy="1" r="1" fill="srgba(77.4929%,82.4216%,89.5872%,1)"/>
  <circle cx="14" cy="1" r="1" fill="white"/>
  <circle cx="15" cy="1" r="1" fill="white"/>
  <circle cx="0" cy="2" r="1" fill="white"/>
  <circle cx="1" cy="2" r="1" fill="srgba(99.9374%,99.9954%,100%,1)"/>
  <circle cx="2" cy="2" r="1" fill="srgba(84.1306%,86.7597%,83.682%,1)"/>
  <circle cx="3" cy="2" r="1" fill="srgba(76.1349%,77.5647%,48.6244%,1)"/>
  <circle cx="4" cy="2" r="1" fill="srgba(78.0102%,80.7828%,68.1376%,1)"/>
  <circle cx="5" cy="2" r="1" fill="srgba(96.6506%,97.3999%,98.616%,1)"/>
  <circle cx="6" cy="2" r="1" fill="srgba(98.9105%,99.1501%,99.5132%,1)"/>
  <circle cx="7" cy="2" r="1" fill="srgba(86.5171%,89.4682%,93.7621%,1)"/>
  <circle cx="8" cy="2" r="1" fill="srgba(61.7227%,70.1015%,82.2904%,1)"/>
  <circle cx="9" cy="2" r="1" fill="srgba(36.3455%,50.28%,70.5486%,1)"/>
  <circle cx="10" cy="2" r="1" fill="srgba(21.8509%,38.9593%,63.8422%,1)"/>
  <circle cx="11" cy="2" r="1" fill="srgba(27.0787%,43.0396%,66.2593%,1)"/>
  <circle cx="12" cy="2" r="1" fill="srgba(75.1278%,80.5722%,88.4916%,1)"/>
  <circle cx="13" cy="2" r="1" fill="white"/>
  <circle cx="14" cy="2" r="1" fill="white"/>
  <circle cx="15" cy="2" r="1" fill="white"/>
  <circle cx="0" cy="3" r="1" fill="white"/>
  <circle cx="1" cy="3" r="1" fill="srgba(95.9625%,96.9833%,99.5682%,1)"/>
  <circle cx="2" cy="3" r="1" fill="srgba(76.1944%,77.2305%,44.7364%,1)"/>
  <circle cx="3" cy="3" r="1" fill="srgba(99.6353%,90.1762%,0%,1)"/>
  <circle cx="4" cy="3" r="1" fill="srgba(83.9353%,80.3555%,17.2778%,1)"/>
  <circle cx="5" cy="3" r="1" fill="srgba(65.6931%,72.7687%,79.5041%,1)"/>
  <circle cx="6" cy="3" r="1" fill="srgba(51.0185%,61.7685%,77.6349%,1)"/>
  <circle cx="7" cy="3" r="1" fill="srgba(28.9158%,44.477%,67.1107%,1)"/>
  <circle cx="8" cy="3" r="1" fill="srgba(20.6043%,37.9843%,63.2685%,1)"/>
  <circle cx="9" cy="3" r="1" fill="srgba(19.6139%,37.2122%,62.8214%,1)"/>
  <circle cx="10" cy="3" r="1" fill="srgba(26.7124%,42.7588%,66.1326%,1)"/>
  <circle cx="11" cy="3" r="1" fill="srgba(72.7199%,78.6969%,87.451%,1)"/>
  <circle cx="12" cy="3" r="1" fill="srgba(99.9161%,99.9359%,99.9786%,1)"/>
  <circle cx="13" cy="3" r="1" fill="white"/>
  <circle cx="14" cy="3" r="1" fill="white"/>
  <circle cx="15" cy="3" r="1" fill="white"/>
  <circle cx="0" cy="4" r="1" fill="white"/>
  <circle cx="1" cy="4" r="1" fill="srgba(97.2641%,97.966%,99.8367%,1)"/>
  <circle cx="2" cy="4" r="1" fill="srgba(70.1198%,74.0536%,58.4878%,1)"/>
  <circle cx="3" cy="4" r="1" fill="srgba(84.7044%,80.3433%,11.0079%,1)"/>
  <circle cx="4" cy="4" r="1" fill="srgba(63.1357%,66.2013%,29.7704%,1)"/>
  <circle cx="5" cy="4" r="1" fill="srgba(22.4079%,39.3149%,63.2547%,1)"/>
  <circle cx="6" cy="4" r="1" fill="srgba(18.8602%,36.7727%,64.0635%,1)"/>
  <circle cx="7" cy="4" r="1" fill="srgba(19.6674%,37.3724%,64.097%,1)"/>
  <circle cx="8" cy="4" r="1" fill="srgba(20.1663%,37.7249%,63.9429%,1)"/>
  <circle cx="9" cy="4" r="1" fill="srgba(25.8244%,42.0935%,66.0258%,1)"/>
  <circle cx="10" cy="4" r="1" fill="srgba(69.8329%,76.4065%,85.7115%,1)"/>
  <circle cx="11" cy="4" r="1" fill="srgba(99.6033%,99.6521%,98.8327%,1)"/>
  <circle cx="12" cy="4" r="1" fill="srgba(100%,99.8459%,97.6577%,1)"/>
  <circle cx="13" cy="4" r="1" fill="srgba(100%,99.6445%,96.2341%,1)"/>
  <circle cx="14" cy="4" r="1" fill="srgba(100%,99.4919%,94.6059%,1)"/>
  <circle cx="15" cy="4" r="1" fill="srgba(100%,99.3378%,92.9564%,1)"/>
  <circle cx="0" cy="5" r="1" fill="srgba(79.5834%,84.0528%,90.5531%,1)"/>
  <circle cx="1" cy="5" r="1" fill="srgba(55.0195%,64.9027%,79.5834%,1)"/>
  <circle cx="2" cy="5" r="1" fill="srgba(35.4696%,48.9387%,63.1708%,1)"/>
  <circle cx="3" cy="5" r="1" fill="srgba(40.5737%,51.2383%,47.5837%,1)"/>
  <circle cx="4" cy="5" r="1" fill="srgba(33.8293%,46.8009%,53.3196%,1)"/>
  <circle cx="5" cy="5" r="1" fill="srgba(44.5975%,53.9223%,44.5762%,1)"/>
  <circle cx="6" cy="5" r="1" fill="srgba(58.7503%,63.2944%,33.2494%,1)"/>
  <circle cx="7" cy="5" r="1" fill="srgba(62.8779%,66.0121%,29.778%,1)"/>
  <circle cx="8" cy="5" r="1" fill="srgba(64.8737%,67.2786%,27.602%,1)"/>
  <circle cx="9" cy="5" r="1" fill="srgba(77.2076%,76.5789%,29.4438%,1)"/>
  <circle cx="10" cy="5" r="1" fill="srgba(98.6847%,93.3959%,35.5993%,1)"/>
  <circle cx="11" cy="5" r="1" fill="srgba(100%,93.7484%,32.1813%,1)"/>
  <circle cx="12" cy="5" r="1" fill="srgba(100%,93.2448%,28.249%,1)"/>
  <circle cx="13" cy="5" r="1" fill="srgba(100%,92.9091%,24.6632%,1)"/>
  <circle cx="14" cy="5" r="1" fill="srgba(100%,92.5872%,21.236%,1)"/>
  <circle cx="15" cy="5" r="1" fill="srgba(100%,92.3186%,18.3764%,1)"/>
  <circle cx="0" cy="6" r="1" fill="srgba(24.6677%,41.1582%,65.1453%,1)"/>
  <circle cx="1" cy="6" r="1" fill="srgba(20.1923%,37.6654%,63.1113%,1)"/>
  <circle cx="2" cy="6" r="1" fill="srgba(21.2818%,38.4344%,62.742%,1)"/>
  <circle cx="3" cy="6" r="1" fill="srgba(23.2944%,39.8352%,61.8387%,1)"/>
  <circle cx="4" cy="6" r="1" fill="srgba(22.7146%,39.4491%,62.2904%,1)"/>
  <circle cx="5" cy="6" r="1" fill="srgba(32.6726%,46.0395%,54.2763%,1)"/>
  <circle cx="6" cy="6" r="1" fill="srgba(56.257%,61.6022%,34.9142%,1)"/>
  <circle cx="7" cy="6" r="1" fill="srgba(83.9811%,80.2625%,14.2611%,1)"/>
  <circle cx="8" cy="6" r="1" fill="srgba(99.7498%,91.4809%,2.63523%,1)"/>
  <circle cx="9" cy="6" r="1" fill="srgba(100%,91.1315%,0%,1)"/>
  <circle cx="10" cy="6" r="1" fill="srgba(100%,90.4372%,0%,1)"/>
  <circle cx="11" cy="6" r="1" fill="srgba(100%,90.4234%,0%,1)"/>
  <circle cx="12" cy="6" r="1" fill="srgba(100%,90.4387%,0%,1)"/>
  <circle cx="13" cy="6" r="1" fill="srgba(100%,90.4509%,0%,1)"/>
  <circle cx="14" cy="6" r="1" fill="srgba(100%,90.4646%,0%,1)"/>
  <circle cx="15" cy="6" r="1" fill="srgba(100%,90.4784%,0%,1)"/>
  <circle cx="0" cy="7" r="1" fill="srgba(20.9461%,38.2513%,63.4226%,1)"/>
  <circle cx="1" cy="7" r="1" fill="srgba(21.1734%,38.4283%,63.5264%,1)"/>
  <circle cx="2" cy="7" r="1" fill="srgba(21.1551%,38.4176%,63.5477%,1)"/>
  <circle cx="3" cy="7" r="1" fill="srgba(21.0651%,38.3581%,63.6194%,1)"/>
  <circle cx="4" cy="7" r="1" fill="srgba(21.1124%,38.3902%,63.5904%,1)"/>
  <circle cx="5" cy="7" r="1" fill="srgba(20.1724%,37.7295%,63.9414%,1)"/>
  <circle cx="6" cy="7" r="1" fill="srgba(21.7426%,38.9975%,65.1102%,1)"/>
  <circle cx="7" cy="7" r="1" fill="srgba(64.5151%,71.7128%,77.5341%,1)"/>
  <circle cx="8" cy="7" r="1" fill="srgba(99.8123%,97.0626%,70.2556%,1)"/>
  <circle cx="9" cy="7" r="1" fill="srgba(100%,94.0215%,36.1791%,1)"/>
  <circle cx="10" cy="7" r="1" fill="srgba(100%,91.7327%,9.62997%,1)"/>
  <circle cx="11" cy="7" r="1" fill="srgba(100%,91.96%,0.62562%,1)"/>
  <circle cx="12" cy="7" r="1" fill="srgba(100%,91.5602%,0%,1)"/>
  <circle cx="13" cy="7" r="1" fill="srgba(100%,90.6737%,0%,1)"/>
  <circle cx="14" cy="7" r="1" fill="srgba(100%,90.5837%,0%,1)"/>
  <circle cx="15" cy="7" r="1" fill="srgba(255,231,0,1)"/>
  <circle cx="0" cy="8" r="1" fill="srgba(54,98,162,1)"/>
  <circle cx="1" cy="8" r="1" fill="srgba(54,98,162,1)"/>
  <circle cx="2" cy="8" r="1" fill="srgba(54,98,162,1)"/>
  <circle cx="3" cy="8" r="1" fill="srgba(21.1826%,38.436%,63.5325%,1)"/>
  <circle cx="4" cy="8" r="1" fill="srgba(20.9308%,38.2391%,63.415%,1)"/>
  <circle cx="5" cy="8" r="1" fill="srgba(22.0294%,39.0967%,63.9231%,1)"/>
  <circle cx="6" cy="8" r="1" fill="srgba(57.8164%,67.0512%,80.4913%,1)"/>
  <circle cx="7" cy="8" r="1" fill="srgba(97.2793%,97.8775%,98.7671%,1)"/>
  <circle cx="8" cy="8" r="1" fill="white"/>
  <circle cx="9" cy="8" r="1" fill="srgba(100%,100%,99.0906%,1)"/>
  <circle cx="10" cy="8" r="1" fill="srgba(99.0845%,94.5205%,78.7716%,1)"/>
  <circle cx="11" cy="8" r="1" fill="srgba(93.8872%,66.1357%,21.6892%,1)"/>
  <circle cx="12" cy="8" r="1" fill="srgba(96.0479%,72.5444%,0%,1)"/>
  <circle cx="13" cy="8" r="1" fill="srgba(98.9929%,89.4606%,0%,1)"/>
  <circle cx="14" cy="8" r="1" fill="srgba(100%,91.0552%,0%,1)"/>
  <circle cx="15" cy="8" r="1" fill="srgba(100%,90.7271%,0%,1)"/>
  <circle cx="0" cy="9" r="1" fill="srgba(54,98,162,1)"/>
  <circle cx="1" cy="9" r="1" fill="srgba(54,98,162,1)"/>
  <circle cx="2" cy="9" r="1" fill="srgba(21.181%,38.4344%,63.5309%,1)"/>
  <circle cx="3" cy="9" r="1" fill="srgba(20.9888%,38.2849%,63.4424%,1)"/>
  <circle cx="4" cy="9" r="1" fill="srgba(21.4878%,38.674%,63.6728%,1)"/>
  <circle cx="5" cy="9" r="1" fill="srgba(54.8058%,64.6983%,79.089%,1)"/>
  <circle cx="6" cy="9" r="1" fill="srgba(96.4034%,97.1908%,98.3352%,1)"/>
  <circle cx="7" cy="9" r="1" fill="white"/>
  <circle cx="8" cy="9" r="1" fill="white"/>
  <circle cx="9" cy="9" r="1" fill="srgba(96.6384%,84.5045%,84.6571%,1)"/>
  <circle cx="10" cy="9" r="1" fill="srgba(86.7826%,35.9014%,37.6837%,1)"/>
  <circle cx="11" cy="9" r="1" fill="srgba(75.8541%,6.64225%,4.22522%,1)"/>
  <circle cx="12" cy="9" r="1" fill="srgba(55.9045%,34.6807%,0%,1)"/>
  <circle cx="13" cy="9" r="1" fill="srgba(50.7317%,71.0323%,0%,1)"/>
  <circle cx="14" cy="9" r="1" fill="srgba(76.0281%,82.3285%,0%,1)"/>
  <circle cx="15" cy="9" r="1" fill="srgba(94.081%,88.5054%,0%,1)"/>
  <circle cx="0" cy="10" r="1" fill="srgba(54,98,162,1)"/>
  <circle cx="1" cy="10" r="1" fill="srgba(21.1795%,38.4344%,63.5309%,1)"/>
  <circle cx="2" cy="10" r="1" fill="srgba(21.0376%,38.323%,63.4653%,1)"/>
  <circle cx="3" cy="10" r="1" fill="srgba(21.0605%,38.3398%,63.476%,1)"/>
  <circle cx="4" cy="10" r="1" fill="srgba(51.8349%,62.3774%,77.7157%,1)"/>
  <circle cx="5" cy="10" r="1" fill="srgba(95.3552%,96.3714%,97.8515%,1)"/>
  <circle cx="6" cy="10" r="1" fill="white"/>
  <circle cx="7" cy="10" r="1" fill="srgba(99.2538%,96.6552%,96.6461%,1)"/>
  <circle cx="8" cy="10" r="1" fill="srgba(92.2301%,62.7863%,63.1434%,1)"/>
  <circle cx="9" cy="10" r="1" fill="srgba(81.5915%,14.9554%,15.3063%,1)"/>
  <circle cx="10" cy="10" r="1" fill="srgba(65.6733%,12.4849%,0%,1)"/>
  <circle cx="11" cy="10" r="1" fill="srgba(38.7167%,43.9002%,0%,1)"/>
  <circle cx="12" cy="10" r="1" fill="srgba(22.5193%,61.8555%,0%,1)"/>
  <circle cx="13" cy="10" r="1" fill="srgba(20.618%,62.8809%,0%,1)"/>
  <circle cx="14" cy="10" r="1" fill="srgba(24.4068%,63.9918%,0%,1)"/>
  <circle cx="15" cy="10" r="1" fill="srgba(37.3007%,68.5328%,0%,1)"/>
  <circle cx="0" cy="11" r="1" fill="srgba(21.1795%,38.4329%,63.5309%,1)"/>
  <circle cx="1" cy="11" r="1" fill="srgba(21.0788%,38.3551%,63.4852%,1)"/>
  <circle cx="2" cy="11" r="1" fill="srgba(20.7324%,38.085%,63.3249%,1)"/>
  <circle cx="3" cy="11" r="1" fill="srgba(48.9265%,60.1083%,76.3699%,1)"/>
  <circle cx="4" cy="11" r="1" fill="srgba(94.1543%,95.4528%,97.3159%,1)"/>
  <circle cx="5" cy="11" r="1" fill="white"/>
  <circle cx="6" cy="11" r="1" fill="srgba(96.791%,85.0355%,85.1041%,1)"/>
  <circle cx="7" cy="11" r="1" fill="srgba(87.0237%,36.6476%,37.4655%,1)"/>
  <circle cx="8" cy="11" r="1" fill="srgba(74.667%,7.42809%,3.52026%,1)"/>
  <circle cx="9" cy="11" r="1" fill="srgba(51.2215%,28.9021%,0%,1)"/>
  <circle cx="10" cy="11" r="1" fill="srgba(27.3823%,57.026%,0%,1)"/>
  <circle cx="11" cy="11" r="1" fill="srgba(21.2039%,63.9918%,0%,1)"/>
  <circle cx="12" cy="11" r="1" fill="srgba(21.8616%,63.2486%,0%,1)"/>
  <circle cx="13" cy="11" r="1" fill="srgba(21.9715%,63.1342%,0%,1)"/>
  <circle cx="14" cy="11" r="1" fill="srgba(21.7853%,63.0762%,0%,1)"/>
  <circle cx="15" cy="11" r="1" fill="srgba(21.062%,62.8214%,0%,1)"/>
  <circle cx="0" cy="12" r="1" fill="srgba(21.1032%,38.3734%,63.4958%,1)"/>
  <circle cx="1" cy="12" r="1" fill="srgba(20.5005%,37.9019%,63.2151%,1)"/>
  <circle cx="2" cy="12" r="1" fill="srgba(46.1051%,57.9263%,75.0881%,1)"/>
  <circle cx="3" cy="12" r="1" fill="srgba(92.8573%,94.7112%,96.997%,1)"/>
  <circle cx="4" cy="12" r="1" fill="srgba(99.7009%,97.1923%,97.0581%,1)"/>
  <circle cx="5" cy="12" r="1" fill="srgba(92.4971%,63.5431%,63.9933%,1)"/>
  <circle cx="6" cy="12" r="1" fill="srgba(81.3519%,15.9655%,15.8907%,1)"/>
  <circle cx="7" cy="12" r="1" fill="srgba(63.4913%,14.9905%,0%,1)"/>
  <circle cx="8" cy="12" r="1" fill="srgba(36.3653%,46.537%,0%,1)"/>
  <circle cx="9" cy="12" r="1" fill="srgba(22.15%,62.9404%,0%,1)"/>
  <circle cx="10" cy="12" r="1" fill="srgba(21.5503%,63.5996%,0%,1)"/>
  <circle cx="11" cy="12" r="1" fill="srgba(21.9669%,63.1296%,0%,1)"/>
  <circle cx="12" cy="12" r="1" fill="srgba(56,161,0,1)"/>
  <circle cx="13" cy="12" r="1" fill="srgba(56,161,0,1)"/>
  <circle cx="14" cy="12" r="1" fill="srgba(56,161,0,1)"/>
  <circle cx="15" cy="12" r="1" fill="srgba(56,161,0,1)"/>
  <circle cx="0" cy="13" r="1" fill="srgba(20.2152%,37.6684%,63.0716%,1)"/>
  <circle cx="1" cy="13" r="1" fill="srgba(43.2654%,55.8984%,73.9803%,1)"/>
  <circle cx="2" cy="13" r="1" fill="srgba(91.4687%,94.0352%,96.7437%,1)"/>
  <circle cx="3" cy="13" r="1" fill="srgba(97.5235%,86.0594%,85.9648%,1)"/>
  <circle cx="4" cy="13" r="1" fill="srgba(87.2175%,37.4899%,38.3185%,1)"/>
  <circle cx="5" cy="13" r="1" fill="srgba(73.4142%,9.16609%,3.7644%,1)"/>
  <circle cx="6" cy="13" r="1" fill="srgba(48.513%,31.9173%,0%,1)"/>
  <circle cx="7" cy="13" r="1" fill="srgba(26.0594%,58.5107%,0%,1)"/>
  <circle cx="8" cy="13" r="1" fill="srgba(21.2085%,63.9857%,0%,1)"/>
  <circle cx="9" cy="13" r="1" fill="srgba(21.8982%,63.209%,0%,1)"/>
  <circle cx="10" cy="13" r="1" fill="srgba(21.9638%,63.1327%,0%,1)"/>
  <circle cx="11" cy="13" r="1" fill="srgba(56,161,0,1)"/>
  <circle cx="12" cy="13" r="1" fill="srgba(56,161,0,1)"/>
  <circle cx="13" cy="13" r="1" fill="srgba(56,161,0,1)"/>
  <circle cx="14" cy="13" r="1" fill="srgba(56,161,0,1)"/>
  <circle cx="15" cy="13" r="1" fill="srgba(56,161,0,1)"/>
  <circle cx="0" cy="14" r="1" fill="srgba(44.184%,56.8429%,74.6548%,1)"/>
  <circle cx="1" cy="14" r="1" fill="srgba(88.7282%,88.7282%,92.1004%,1)"/>
  <circle cx="2" cy="14" r="1" fill="srgba(93.2464%,64.7379%,64.6967%,1)"/>
  <circle cx="3" cy="14" r="1" fill="srgba(80.4913%,17.467%,16.3256%,1)"/>
  <circle cx="4" cy="14" r="1" fill="srgba(60.8362%,18.0179%,0%,1)"/>
  <circle cx="5" cy="14" r="1" fill="srgba(34.0398%,49.1066%,0%,1)"/>
  <circle cx="6" cy="14" r="1" fill="srgba(21.7517%,63.3539%,0%,1)"/>
  <circle cx="7" cy="14" r="1" fill="srgba(21.6114%,63.4943%,0%,1)"/>
  <circle cx="8" cy="14" r="1" fill="srgba(21.9471%,63.1174%,0%,1)"/>
  <circle cx="9" cy="14" r="1" fill="srgba(21.9379%,63.1266%,0%,1)"/>
  <circle cx="10" cy="14" r="1" fill="srgba(21.9348%,63.125%,0%,1)"/>
  <circle cx="11" cy="14" r="1" fill="srgba(21.9318%,63.1235%,0%,1)"/>
  <circle cx="12" cy="14" r="1" fill="srgba(21.9318%,63.1235%,0%,1)"/>
  <circle cx="13" cy="14" r="1" fill="srgba(21.9318%,63.1235%,0%,1)"/>
  <circle cx="14" cy="14" r="1" fill="srgba(21.9318%,63.1235%,0%,1)"/>
  <circle cx="15" cy="14" r="1" fill="srgba(21.9272%,63.122%,0%,1)"/>
  <circle cx="0" cy="15" r="1" fill="srgba(89.3629%,85.0492%,87.8767%,1)"/>
  <circle cx="1" cy="15" r="1" fill="srgba(88.8228%,45.5131%,45.4932%,1)"/>
  <circle cx="2" cy="15" r="1" fill="srgba(75.8663%,7.50439%,4.55634%,1)"/>
  <circle cx="3" cy="15" r="1" fill="srgba(49.5186%,31.0613%,0%,1)"/>
  <circle cx="4" cy="15" r="1" fill="srgba(25.6367%,59.4705%,0.361639%,1)"/>
  <circle cx="5" cy="15" r="1" fill="srgba(21.4679%,64.1993%,0.402838%,1)"/>
  <circle cx="6" cy="15" r="1" fill="srgba(22.3087%,63.3677%,0.49897%,1)"/>
  <circle cx="7" cy="15" r="1" fill="srgba(22.3728%,63.3265%,0.52491%,1)"/>
  <circle cx="8" cy="15" r="1" fill="srgba(22.3682%,63.3295%,0.523384%,1)"/>
  <circle cx="9" cy="15" r="1" fill="srgba(22.3667%,63.328%,0.520333%,1)"/>
  <circle cx="10" cy="15" r="1" fill="srgba(22.4063%,63.3463%,0.572213%,1)"/>
  <circle cx="11" cy="15" r="1" fill="srgba(22.4689%,63.3753%,0.654612%,1)"/>
  <circle cx="12" cy="15" r="1" fill="srgba(22.4689%,63.3753%,0.654612%,1)"/>
  <circle cx="13" cy="15" r="1" fill="srgba(22.4689%,63.3753%,0.654612%,1)"/>
  <circle cx="14" cy="15" r="1" fill="srgba(22.475%,63.3783%,0.660716%,1)"/>
  <circle cx="15" cy="15" r="1" fill="srgba(22.5483%,63.4165%,0.750744%,1)"/>
</svg>
