<?xml version="1.0" standalone="no"?>
<!DOCTYPE svg PUBLIC "-//W3C//DTD SVG 20010904//EN"
  "http://www.w3.org/TR/2001/REC-SVG-20010904/DTD/svg10.dtd">
<svg width="16" height="16">
  <circle cx="0" cy="0" r="1" fill="srgba(224,82,6,1)"/>
  <circle cx="1" cy="0" r="1" fill="srgba(224,82,6,1)"/>
  <circle cx="2" cy="0" r="1" fill="srgba(224,82,6,1)"/>
  <circle cx="3" cy="0" r="1" fill="srgba(224,82,6,1)"/>
  <circle cx="4" cy="0" r="1" fill="srgba(224,82,6,1)"/>
  <circle cx="5" cy="0" r="1" fill="srgba(224,82,6,1)"/>
  <circle cx="6" cy="0" r="1" fill="srgba(224,82,6,1)"/>
  <circle cx="7" cy="0" r="1" fill="srgba(224,82,6,1)"/>
  <circle cx="8" cy="0" r="1" fill="srgba(224,82,6,1)"/>
  <circle cx="9" cy="0" r="1" fill="srgba(224,82,6,1)"/>
  <circle cx="10" cy="0" r="1" fill="srgba(224,82,6,1)"/>
  <circle cx="11" cy="0" r="1" fill="srgba(224,82,6,1)"/>
  <circle cx="12" cy="0" r="1" fill="srgba(224,82,6,1)"/>
  <circle cx="13" cy="0" r="1" fill="srgba(224,82,6,1)"/>
  <circle cx="14" cy="0" r="1" fill="srgba(224,82,6,1)"/>
  <circle cx="15" cy="0" r="1" fill="srgba(224,82,6,1)"/>
  <circle cx="0" cy="1" r="1" fill="srgba(224,82,6,1)"/>
  <circle cx="1" cy="1" r="1" fill="srgba(224,82,6,1)"/>
  <circle cx="2" cy="1" r="1" fill="srgba(224,82,6,1)"/>
  <circle cx="3" cy="1" r="1" fill="srgba(224,82,6,1)"/>
  <circle cx="4" cy="1" r="1" fill="srgba(224,82,6,1)"/>
  <circle cx="5" cy="1" r="1" fill="srgba(224,82,6,1)"/>
  <circle cx="6" cy="1" r="1" fill="srgba(224,82,6,1)"/>
  <circle cx="7" cy="1" r="1" fill="srgba(224,82,6,1)"/>
  <circle cx="8" cy="1" r="1" fill="srgba(224,82,6,1)"/>
  <circle cx="9" cy="1" r="1" fill="srgba(224,82,6,1)"/>
  <circle cx="10" cy="1" r="1" fill="srgba(224,82,6,1)"/>
  <circle cx="11" cy="1" r="1" fill="srgba(224,82,6,1)"/>
  <circle cx="12" cy="1" r="1" fill="srgba(224,82,6,1)"/>
  <circle cx="13" cy="1" r="1" fill="srgba(224,82,6,1)"/>
  <circle cx="14" cy="1" r="1" fill="srgba(224,82,6,1)"/>
  <circle cx="15" cy="1" r="1" fill="srgba(224,82,6,1)"/>
  <circle cx="0" cy="2" r="1" fill="srgba(224,82,6,1)"/>
  <circle cx="1" cy="2" r="1" fill="srgba(224,82,6,1)"/>
  <circle cx="2" cy="2" r="1" fill="srgba(224,82,6,1)"/>
  <circle cx="3" cy="2" r="1" fill="srgba(224,82,6,1)"/>
  <circle cx="4" cy="2" r="1" fill="srgba(224,82,6,1)"/>
  <circle cx="5" cy="2" r="1" fill="srgba(224,82,6,1)"/>
  <circle cx="6" cy="2" r="1" fill="srgba(224,82,6,1)"/>
  <circle cx="7" cy="2" r="1" fill="srgba(224,82,6,1)"/>
  <circle cx="8" cy="2" r="1" fill="srgba(224,82,6,1)"/>
  <circle cx="9" cy="2" r="1" fill="srgba(224,82,6,1)"/>
  <circle cx="10" cy="2" r="1" fill="srgba(224,82,6,1)"/>
  <circle cx="11" cy="2" r="1" fill="srgba(224,82,6,1)"/>
  <circle cx="12" cy="2" r="1" fill="srgba(224,82,6,1)"/>
  <circle cx="13" cy="2" r="1" fill="srgba(224,82,6,1)"/>
  <circle cx="14" cy="2" r="1" fill="srgba(224,82,6,1)"/>
  <circle cx="15" cy="2" r="1" fill="srgba(224,82,6,1)"/>
  <circle cx="0" cy="3" r="1" fill="srgba(87.837%,32.1263%,2.31022%,1)"/>
  <circle cx="1" cy="3" r="1" fill="srgba(87.837%,32.1263%,2.31022%,1)"/>
  <circle cx="2" cy="3" r="1" fill="srgba(87.837%,32.1263%,2.31022%,1)"/>
  <circle cx="3" cy="3" r="1" fill="srgba(87.837%,32.1263%,2.31022%,1)"/>
  <circle cx="4" cy="3" r="1" fill="srgba(87.837%,32.1263%,2.31022%,1)"/>
  <circle cx="5" cy="3" r="1" fill="srgba(87.837%,32.1263%,2.31022%,1)"/>
  <circle cx="6" cy="3" r="1" fill="srgba(87.837%,32.1263%,2.31022%,1)"/>
  <circle cx="7" cy="3" r="1" fill="srgba(87.837%,32.1263%,2.31022%,1)"/>
  <circle cx="8" cy="3" r="1" fill="srgba(87.837%,32.1263%,2.31022%,1)"/>
  <circle cx="9" cy="3" r="1" fill="srgba(87.837%,32.1263%,2.31022%,1)"/>
  <circle cx="10" cy="3" r="1" fill="srgba(87.837%,32.1263%,2.31022%,1)"/>
  <circle cx="11" cy="3" r="1" fill="srgba(87.837%,32.1263%,2.31022%,1)"/>
  <circle cx="12" cy="3" r="1" fill="srgba(87.837%,32.1263%,2.31022%,1)"/>
  <circle cx="13" cy="3" r="1" fill="srgba(87.837%,32.1263%,2.31022%,1)"/>
  <circle cx="14" cy="3" r="1" fill="srgba(87.837%,32.1263%,2.31022%,1)"/>
  <circle cx="15" cy="3" r="1" fill="srgba(87.837%,32.1263%,2.31022%,1)"/>
  <circle cx="0" cy="4" r="1" fill="srgba(87.8965%,32.459%,2.7863%,1)"/>
  <circle cx="1" cy="4" r="1" fill="srgba(87.8965%,32.459%,2.7863%,1)"/>
  <circle cx="2" cy="4" r="1" fill="srgba(87.8965%,32.459%,2.7863%,1)"/>
  <circle cx="3" cy="4" r="1" fill="srgba(87.8965%,32.459%,2.7863%,1)"/>
  <circle cx="4" cy="4" r="1" fill="srgba(87.8965%,32.459%,2.7863%,1)"/>
  <circle cx="5" cy="4" r="1" fill="srgba(87.895%,32.4498%,2.77256%,1)"/>
  <circle cx="6" cy="4" r="1" fill="srgba(87.9332%,32.6604%,3.07622%,1)"/>
  <circle cx="7" cy="4" r="1" fill="srgba(88.0644%,33.3944%,4.13367%,1)"/>
  <circle cx="8" cy="4" r="1" fill="srgba(88.0644%,33.3928%,4.13214%,1)"/>
  <circle cx="9" cy="4" r="1" fill="srgba(87.9332%,32.6589%,3.07622%,1)"/>
  <circle cx="10" cy="4" r="1" fill="srgba(87.895%,32.4498%,2.77256%,1)"/>
  <circle cx="11" cy="4" r="1" fill="srgba(87.8965%,32.459%,2.7863%,1)"/>
  <circle cx="12" cy="4" r="1" fill="srgba(87.8965%,32.459%,2.7863%,1)"/>
  <circle cx="13" cy="4" r="1" fill="srgba(87.8965%,32.459%,2.7863%,1)"/>
  <circle cx="14" cy="4" r="1" fill="srgba(87.8965%,32.459%,2.7863%,1)"/>
  <circle cx="15" cy="4" r="1" fill="srgba(87.8965%,32.459%,2.7863%,1)"/>
  <circle cx="0" cy="5" r="1" fill="srgba(95.6832%,75.9258%,65.3498%,1)"/>
  <circle cx="1" cy="5" r="1" fill="srgba(95.6832%,75.9258%,65.3498%,1)"/>
  <circle cx="2" cy="5" r="1" fill="srgba(95.6832%,75.9258%,65.3498%,1)"/>
  <circle cx="3" cy="5" r="1" fill="srgba(95.6832%,75.9258%,65.3498%,1)"/>
  <circle cx="4" cy="5" r="1" fill="srgba(95.6817%,75.9167%,65.3361%,1)"/>
  <circle cx="5" cy="5" r="1" fill="srgba(95.7397%,76.2356%,65.7969%,1)"/>
  <circle cx="6" cy="5" r="1" fill="srgba(95.1781%,73.1029%,61.2848%,1)"/>
  <circle cx="7" cy="5" r="1" fill="srgba(92.8038%,59.8566%,42.2202%,1)"/>
  <circle cx="8" cy="5" r="1" fill="srgba(92.8054%,59.8627%,42.2309%,1)"/>
  <circle cx="9" cy="5" r="1" fill="srgba(95.1781%,73.109%,61.294%,1)"/>
  <circle cx="10" cy="5" r="1" fill="srgba(95.7397%,76.2356%,65.7954%,1)"/>
  <circle cx="11" cy="5" r="1" fill="srgba(95.6817%,75.9167%,65.3361%,1)"/>
  <circle cx="12" cy="5" r="1" fill="srgba(95.6832%,75.9258%,65.3498%,1)"/>
  <circle cx="13" cy="5" r="1" fill="srgba(95.6832%,75.9258%,65.3498%,1)"/>
  <circle cx="14" cy="5" r="1" fill="srgba(95.6832%,75.9258%,65.3498%,1)"/>
  <circle cx="15" cy="5" r="1" fill="srgba(95.6832%,75.9258%,65.3498%,1)"/>
  <circle cx="0" cy="6" r="1" fill="white"/>
  <circle cx="1" cy="6" r="1" fill="white"/>
  <circle cx="2" cy="6" r="1" fill="white"/>
  <circle cx="3" cy="6" r="1" fill="white"/>
  <circle cx="4" cy="6" r="1" fill="white"/>
  <circle cx="5" cy="6" r="1" fill="srgba(99.5315%,97.3816%,96.231%,1)"/>
  <circle cx="6" cy="6" r="1" fill="srgba(92.9915%,60.8865%,43.7003%,1)"/>
  <circle cx="7" cy="6" r="1" fill="srgba(88.5542%,36.1257%,8.06592%,1)"/>
  <circle cx="8" cy="6" r="1" fill="srgba(88.5557%,36.1318%,8.07355%,1)"/>
  <circle cx="9" cy="6" r="1" fill="srgba(92.9946%,60.9079%,43.7354%,1)"/>
  <circle cx="10" cy="6" r="1" fill="srgba(99.5331%,97.3907%,96.2432%,1)"/>
  <circle cx="11" cy="6" r="1" fill="white"/>
  <circle cx="12" cy="6" r="1" fill="white"/>
  <circle cx="13" cy="6" r="1" fill="white"/>
  <circle cx="14" cy="6" r="1" fill="white"/>
  <circle cx="15" cy="6" r="1" fill="white"/>
  <circle cx="0" cy="7" r="1" fill="white"/>
  <circle cx="1" cy="7" r="1" fill="white"/>
  <circle cx="2" cy="7" r="1" fill="white"/>
  <circle cx="3" cy="7" r="1" fill="white"/>
  <circle cx="4" cy="7" r="1" fill="white"/>
  <circle cx="5" cy="7" r="1" fill="srgba(97.1176%,83.917%,76.8505%,1)"/>
  <circle cx="6" cy="7" r="1" fill="srgba(88.3406%,34.9355%,6.35386%,1)"/>
  <circle cx="7" cy="7" r="1" fill="srgba(87.7638%,31.7159%,1.71817%,1)"/>
  <circle cx="8" cy="7" r="1" fill="srgba(87.7638%,31.7144%,1.71664%,1)"/>
  <circle cx="9" cy="7" r="1" fill="srgba(88.3436%,34.9462%,6.36912%,1)"/>
  <circle cx="10" cy="7" r="1" fill="srgba(97.1221%,83.9384%,76.8826%,1)"/>
  <circle cx="11" cy="7" r="1" fill="white"/>
  <circle cx="12" cy="7" r="1" fill="white"/>
  <circle cx="13" cy="7" r="1" fill="white"/>
  <circle cx="14" cy="7" r="1" fill="white"/>
  <circle cx="15" cy="7" r="1" fill="white"/>
  <circle cx="0" cy="8" r="1" fill="white"/>
  <circle cx="1" cy="8" r="1" fill="white"/>
  <circle cx="2" cy="8" r="1" fill="white"/>
  <circle cx="3" cy="8" r="1" fill="white"/>
  <circle cx="4" cy="8" r="1" fill="white"/>
  <circle cx="5" cy="8" r="1" fill="srgba(97.1221%,83.9414%,76.8887%,1)"/>
  <circle cx="6" cy="8" r="1" fill="srgba(88.3436%,34.9538%,6.3798%,1)"/>
  <circle cx="7" cy="8" r="1" fill="srgba(87.7638%,31.7128%,1.71511%,1)"/>
  <circle cx="8" cy="8" r="1" fill="srgba(87.7638%,31.7128%,1.71359%,1)"/>
  <circle cx="9" cy="8" r="1" fill="srgba(88.3467%,34.9645%,6.39506%,1)"/>
  <circle cx="10" cy="8" r="1" fill="srgba(97.1267%,83.9628%,76.9192%,1)"/>
  <circle cx="11" cy="8" r="1" fill="white"/>
  <circle cx="12" cy="8" r="1" fill="white"/>
  <circle cx="13" cy="8" r="1" fill="white"/>
  <circle cx="14" cy="8" r="1" fill="white"/>
  <circle cx="15" cy="8" r="1" fill="white"/>
  <circle cx="0" cy="9" r="1" fill="white"/>
  <circle cx="1" cy="9" r="1" fill="white"/>
  <circle cx="2" cy="9" r="1" fill="white"/>
  <circle cx="3" cy="9" r="1" fill="white"/>
  <circle cx="4" cy="9" r="1" fill="white"/>
  <circle cx="5" cy="9" r="1" fill="srgba(99.7757%,97.2671%,96.2142%,1)"/>
  <circle cx="6" cy="9" r="1" fill="srgba(94.3282%,60.3708%,43.5981%,1)"/>
  <circle cx="7" cy="9" r="1" fill="srgba(90.0053%,35.5047%,7.84314%,1)"/>
  <circle cx="8" cy="9" r="1" fill="srgba(90.0069%,35.5093%,7.85077%,1)"/>
  <circle cx="9" cy="9" r="1" fill="srgba(94.3328%,60.3967%,43.6347%,1)"/>
  <circle cx="10" cy="9" r="1" fill="srgba(99.7772%,97.2763%,96.2264%,1)"/>
  <circle cx="11" cy="9" r="1" fill="white"/>
  <circle cx="12" cy="9" r="1" fill="white"/>
  <circle cx="13" cy="9" r="1" fill="white"/>
  <circle cx="14" cy="9" r="1" fill="white"/>
  <circle cx="15" cy="9" r="1" fill="white"/>
  <circle cx="0" cy="10" r="1" fill="srgba(66.3371%,89.0059%,70.5104%,1)"/>
  <circle cx="1" cy="10" r="1" fill="srgba(66.3371%,89.0059%,70.5104%,1)"/>
  <circle cx="2" cy="10" r="1" fill="srgba(66.3371%,89.0059%,70.5104%,1)"/>
  <circle cx="3" cy="10" r="1" fill="srgba(66.3371%,89.0059%,70.5104%,1)"/>
  <circle cx="4" cy="10" r="1" fill="srgba(66.3355%,88.9967%,70.4967%,1)"/>
  <circle cx="5" cy="10" r="1" fill="srgba(66.392%,89.3156%,70.956%,1)"/>
  <circle cx="6" cy="10" r="1" fill="srgba(65.8366%,86.2119%,66.4881%,1)"/>
  <circle cx="7" cy="10" r="1" fill="srgba(63.4623%,72.9686%,47.4266%,1)"/>
  <circle cx="8" cy="10" r="1" fill="srgba(63.4638%,72.9747%,47.4372%,1)"/>
  <circle cx="9" cy="10" r="1" fill="srgba(65.8381%,86.2181%,66.4973%,1)"/>
  <circle cx="10" cy="10" r="1" fill="srgba(66.392%,89.3141%,70.9545%,1)"/>
  <circle cx="11" cy="10" r="1" fill="srgba(66.3355%,88.9967%,70.4967%,1)"/>
  <circle cx="12" cy="10" r="1" fill="srgba(66.3371%,89.0059%,70.5104%,1)"/>
  <circle cx="13" cy="10" r="1" fill="srgba(66.3371%,89.0059%,70.5104%,1)"/>
  <circle cx="14" cy="10" r="1" fill="srgba(66.3371%,89.0059%,70.5104%,1)"/>
  <circle cx="15" cy="10" r="1" fill="srgba(66.3371%,89.0059%,70.5104%,1)"/>
  <circle cx="0" cy="11" r="1" fill="srgba(5.52224%,69.1569%,17.2351%,1)"/>
  <circle cx="1" cy="11" r="1" fill="srgba(5.52224%,69.1569%,17.2351%,1)"/>
  <circle cx="2" cy="11" r="1" fill="srgba(5.52224%,69.1569%,17.2351%,1)"/>
  <circle cx="3" cy="11" r="1" fill="srgba(5.52224%,69.1569%,17.2351%,1)"/>
  <circle cx="4" cy="11" r="1" fill="srgba(5.52224%,69.1569%,17.2351%,1)"/>
  <circle cx="5" cy="11" r="1" fill="srgba(5.52071%,69.1478%,17.2213%,1)"/>
  <circle cx="6" cy="11" r="1" fill="srgba(5.55886%,69.3568%,17.5219%,1)"/>
  <circle cx="7" cy="11" r="1" fill="srgba(5.69009%,70.0908%,18.5794%,1)"/>
  <circle cx="8" cy="11" r="1" fill="srgba(5.69009%,70.0908%,18.5779%,1)"/>
  <circle cx="9" cy="11" r="1" fill="srgba(5.55886%,69.3553%,17.5219%,1)"/>
  <circle cx="10" cy="11" r="1" fill="srgba(5.52071%,69.1478%,17.2213%,1)"/>
  <circle cx="11" cy="11" r="1" fill="srgba(5.52224%,69.1569%,17.2351%,1)"/>
  <circle cx="12" cy="11" r="1" fill="srgba(5.52224%,69.1569%,17.2351%,1)"/>
  <circle cx="13" cy="11" r="1" fill="srgba(5.52224%,69.1569%,17.2351%,1)"/>
  <circle cx="14" cy="11" r="1" fill="srgba(5.52224%,69.1569%,17.2351%,1)"/>
  <circle cx="15" cy="11" r="1" fill="srgba(5.52224%,69.1569%,17.2351%,1)"/>
  <circle cx="0" cy="12" r="1" fill="srgba(5.05531%,69.0059%,16.8261%,1)"/>
  <circle cx="1" cy="12" r="1" fill="srgba(5.05531%,69.0059%,16.8261%,1)"/>
  <circle cx="2" cy="12" r="1" fill="srgba(5.05531%,69.0059%,16.8261%,1)"/>
  <circle cx="3" cy="12" r="1" fill="srgba(5.05531%,69.0059%,16.8261%,1)"/>
  <circle cx="4" cy="12" r="1" fill="srgba(5.05531%,69.0059%,16.8261%,1)"/>
  <circle cx="5" cy="12" r="1" fill="srgba(5.05531%,69.0059%,16.8261%,1)"/>
  <circle cx="6" cy="12" r="1" fill="srgba(5.05531%,69.0059%,16.8261%,1)"/>
  <circle cx="7" cy="12" r="1" fill="srgba(5.05531%,69.0059%,16.8261%,1)"/>
  <circle cx="8" cy="12" r="1" fill="srgba(5.05531%,69.0059%,16.8261%,1)"/>
  <circle cx="9" cy="12" r="1" fill="srgba(5.05531%,69.0059%,16.8261%,1)"/>
  <circle cx="10" cy="12" r="1" fill="srgba(5.05531%,69.0059%,16.8261%,1)"/>
  <circle cx="11" cy="12" r="1" fill="srgba(5.05531%,69.0059%,16.8261%,1)"/>
  <circle cx="12" cy="12" r="1" fill="srgba(5.05531%,69.0059%,16.8261%,1)"/>
  <circle cx="13" cy="12" r="1" fill="srgba(5.05531%,69.0059%,16.8261%,1)"/>
  <circle cx="14" cy="12" r="1" fill="srgba(5.05531%,69.0059%,16.8261%,1)"/>
  <circle cx="15" cy="12" r="1" fill="srgba(5.05531%,69.0059%,16.8261%,1)"/>
  <circle cx="0" cy="13" r="1" fill="srgba(13,176,43,1)"/>
  <circle cx="1" cy="13" r="1" fill="srgba(13,176,43,1)"/>
  <circle cx="2" cy="13" r="1" fill="srgba(13,176,43,1)"/>
  <circle cx="3" cy="13" r="1" fill="srgba(13,176,43,1)"/>
  <circle cx="4" cy="13" r="1" fill="srgba(13,176,43,1)"/>
  <circle cx="5" cy="13" r="1" fill="srgba(13,176,43,1)"/>
  <circle cx="6" cy="13" r="1" fill="srgba(13,176,43,1)"/>
  <circle cx="7" cy="13" r="1" fill="srgba(13,176,43,1)"/>
  <circle cx="8" cy="13" r="1" fill="srgba(13,176,43,1)"/>
  <circle cx="9" cy="13" r="1" fill="srgba(13,176,43,1)"/>
  <circle cx="10" cy="13" r="1" fill="srgba(13,176,43,1)"/>
  <circle cx="11" cy="13" r="1" fill="srgba(13,176,43,1)"/>
  <circle cx="12" cy="13" r="1" fill="srgba(13,176,43,1)"/>
  <circle cx="13" cy="13" r="1" fill="srgba(13,176,43,1)"/>
  <circle cx="14" cy="13" r="1" fill="srgba(13,176,43,1)"/>
  <circle cx="15" cy="13" r="1" fill="srgba(13,176,43,1)"/>
  <circle cx="0" cy="14" r="1" fill="srgba(13,176,43,1)"/>
  <circle cx="1" cy="14" r="1" fill="srgba(13,176,43,1)"/>
  <circle cx="2" cy="14" r="1" fill="srgba(13,176,43,1)"/>
  <circle cx="3" cy="14" r="1" fill="srgba(13,176,43,1)"/>
  <circle cx="4" cy="14" r="1" fill="srgba(13,176,43,1)"/>
  <circle cx="5" cy="14" r="1" fill="srgba(13,176,43,1)"/>
  <circle cx="6" cy="14" r="1" fill="srgba(13,176,43,1)"/>
  <circle cx="7" cy="14" r="1" fill="srgba(13,176,43,1)"/>
  <circle cx="8" cy="14" r="1" fill="srgba(13,176,43,1)"/>
  <circle cx="9" cy="14" r="1" fill="srgba(13,176,43,1)"/>
  <circle cx="10" cy="14" r="1" fill="srgba(13,176,43,1)"/>
  <circle cx="11" cy="14" r="1" fill="srgba(13,176,43,1)"/>
  <circle cx="12" cy="14" r="1" fill="srgba(13,176,43,1)"/>
  <circle cx="13" cy="14" r="1" fill="srgba(13,176,43,1)"/>
  <circle cx="14" cy="14" r="1" fill="srgba(13,176,43,1)"/>
  <circle cx="15" cy="14" r="1" fill="srgba(13,176,43,1)"/>
  <circle cx="0" cy="15" r="1" fill="srgba(13,176,43,1)"/>
  <circle cx="1" cy="15" r="1" fill="srgba(13,176,43,1)"/>
  <circle cx="2" cy="15" r="1" fill="srgba(13,176,43,1)"/>
  <circle cx="3" cy="15" r="1" fill="srgba(13,176,43,1)"/>
  <circle cx="4" cy="15" r="1" fill="srgba(13,176,43,1)"/>
  <circle cx="5" cy="15" r="1" fill="srgba(13,176,43,1)"/>
  <circle cx="6" cy="15" r="1" fill="srgba(13,176,43,1)"/>
  <circle cx="7" cy="15" r="1" fill="srgba(13,176,43,1)"/>
  <circle cx="8" cy="15" r="1" fill="srgba(13,176,43,1)"/>
  <circle cx="9" cy="15" r="1" fill="srgba(13,176,43,1)"/>
  <circle cx="10" cy="15" r="1" fill="srgba(13,176,43,1)"/>
  <circle cx="11" cy="15" r="1" fill="srgba(13,176,43,1)"/>
  <circle cx="12" cy="15" r="1" fill="srgba(13,176,43,1)"/>
  <circle cx="13" cy="15" r="1" fill="srgba(13,176,43,1)"/>
  <circle cx="14" cy="15" r="1" fill="srgba(13,176,43,1)"/>
  <circle cx="15" cy="15" r="1" fill="srgba(13,176,43,1)"/>
</svg>
