<?xml version="1.0" standalone="no"?>
<!DOCTYPE svg PUBLIC "-//W3C//DTD SVG 20010904//EN"
  "http://www.w3.org/TR/2001/REC-SVG-20010904/DTD/svg10.dtd">
<svg width="16" height="16">
  <circle cx="0" cy="0" r="1" fill="srgba(25,130,0,1)"/>
  <circle cx="1" cy="0" r="1" fill="srgba(25,130,0,1)"/>
  <circle cx="2" cy="0" r="1" fill="srgba(25,130,0,1)"/>
  <circle cx="3" cy="0" r="1" fill="srgba(8.67933%,50.3685%,0%,1)"/>
  <circle cx="4" cy="0" r="1" fill="srgba(27.8111%,60.7645%,19.9619%,1)"/>
  <circle cx="5" cy="0" r="1" fill="srgba(94.5281%,97.0245%,93.9315%,1)"/>
  <circle cx="6" cy="0" r="1" fill="white"/>
  <circle cx="7" cy="0" r="1" fill="white"/>
  <circle cx="8" cy="0" r="1" fill="white"/>
  <circle cx="9" cy="0" r="1" fill="white"/>
  <circle cx="10" cy="0" r="1" fill="srgba(94.5373%,97.0336%,93.9452%,1)"/>
  <circle cx="11" cy="0" r="1" fill="srgba(27.8279%,60.7813%,19.9878%,1)"/>
  <circle cx="12" cy="0" r="1" fill="srgba(8.67781%,50.3685%,0%,1)"/>
  <circle cx="13" cy="0" r="1" fill="srgba(25,130,0,1)"/>
  <circle cx="14" cy="0" r="1" fill="srgba(25,130,0,1)"/>
  <circle cx="15" cy="0" r="1" fill="srgba(25,130,0,1)"/>
  <circle cx="0" cy="1" r="1" fill="srgba(25,130,0,1)"/>
  <circle cx="1" cy="1" r="1" fill="srgba(25,130,0,1)"/>
  <circle cx="2" cy="1" r="1" fill="srgba(25,130,0,1)"/>
  <circle cx="3" cy="1" r="1" fill="srgba(8.67933%,50.3685%,0%,1)"/>
  <circle cx="4" cy="1" r="1" fill="srgba(27.8111%,60.7645%,19.9619%,1)"/>
  <circle cx="5" cy="1" r="1" fill="srgba(94.5281%,97.0245%,93.9315%,1)"/>
  <circle cx="6" cy="1" r="1" fill="white"/>
  <circle cx="7" cy="1" r="1" fill="white"/>
  <circle cx="8" cy="1" r="1" fill="white"/>
  <circle cx="9" cy="1" r="1" fill="white"/>
  <circle cx="10" cy="1" r="1" fill="srgba(94.5373%,97.0336%,93.9452%,1)"/>
  <circle cx="11" cy="1" r="1" fill="srgba(27.8279%,60.7813%,19.9878%,1)"/>
  <circle cx="12" cy="1" r="1" fill="srgba(8.67781%,50.3685%,0%,1)"/>
  <circle cx="13" cy="1" r="1" fill="srgba(25,130,0,1)"/>
  <circle cx="14" cy="1" r="1" fill="srgba(25,130,0,1)"/>
  <circle cx="15" cy="1" r="1" fill="srgba(25,130,0,1)"/>
  <circle cx="0" cy="2" r="1" fill="srgba(25,130,0,1)"/>
  <circle cx="1" cy="2" r="1" fill="srgba(25,130,0,1)"/>
  <circle cx="2" cy="2" r="1" fill="srgba(25,130,0,1)"/>
  <circle cx="3" cy="2" r="1" fill="srgba(8.67933%,50.3685%,0%,1)"/>
  <circle cx="4" cy="2" r="1" fill="srgba(27.8111%,60.7645%,19.9619%,1)"/>
  <circle cx="5" cy="2" r="1" fill="srgba(94.5281%,97.0245%,93.9315%,1)"/>
  <circle cx="6" cy="2" r="1" fill="white"/>
  <circle cx="7" cy="2" r="1" fill="white"/>
  <circle cx="8" cy="2" r="1" fill="white"/>
  <circle cx="9" cy="2" r="1" fill="white"/>
  <circle cx="10" cy="2" r="1" fill="srgba(94.5373%,97.0336%,93.9452%,1)"/>
  <circle cx="11" cy="2" r="1" fill="srgba(27.8279%,60.7813%,19.9878%,1)"/>
  <circle cx="12" cy="2" r="1" fill="srgba(8.67781%,50.3685%,0%,1)"/>
  <circle cx="13" cy="2" r="1" fill="srgba(25,130,0,1)"/>
  <circle cx="14" cy="2" r="1" fill="srgba(25,130,0,1)"/>
  <circle cx="15" cy="2" r="1" fill="srgba(25,130,0,1)"/>
  <circle cx="0" cy="3" r="1" fill="srgba(25,130,0,1)"/>
  <circle cx="1" cy="3" r="1" fill="srgba(25,130,0,1)"/>
  <circle cx="2" cy="3" r="1" fill="srgba(25,130,0,1)"/>
  <circle cx="3" cy="3" r="1" fill="srgba(8.67933%,50.3685%,0%,1)"/>
  <circle cx="4" cy="3" r="1" fill="srgba(27.8111%,60.7645%,19.9619%,1)"/>
  <circle cx="5" cy="3" r="1" fill="srgba(94.5281%,97.0245%,93.9315%,1)"/>
  <circle cx="6" cy="3" r="1" fill="white"/>
  <circle cx="7" cy="3" r="1" fill="white"/>
  <circle cx="8" cy="3" r="1" fill="white"/>
  <circle cx="9" cy="3" r="1" fill="white"/>
  <circle cx="10" cy="3" r="1" fill="srgba(94.5373%,97.0336%,93.9452%,1)"/>
  <circle cx="11" cy="3" r="1" fill="srgba(27.8279%,60.7813%,19.9878%,1)"/>
  <circle cx="12" cy="3" r="1" fill="srgba(8.67781%,50.3685%,0%,1)"/>
  <circle cx="13" cy="3" r="1" fill="srgba(25,130,0,1)"/>
  <circle cx="14" cy="3" r="1" fill="srgba(25,130,0,1)"/>
  <circle cx="15" cy="3" r="1" fill="srgba(25,130,0,1)"/>
  <circle cx="0" cy="4" r="1" fill="srgba(25,130,0,1)"/>
  <circle cx="1" cy="4" r="1" fill="srgba(25,130,0,1)"/>
  <circle cx="2" cy="4" r="1" fill="srgba(25,130,0,1)"/>
  <circle cx="3" cy="4" r="1" fill="srgba(8.67933%,50.3685%,0%,1)"/>
  <circle cx="4" cy="4" r="1" fill="srgba(27.8111%,60.7645%,19.9619%,1)"/>
  <circle cx="5" cy="4" r="1" fill="srgba(94.5281%,97.0245%,93.9315%,1)"/>
  <circle cx="6" cy="4" r="1" fill="white"/>
  <circle cx="7" cy="4" r="1" fill="srgba(99.9908%,99.9908%,99.9908%,1)"/>
  <circle cx="8" cy="4" r="1" fill="srgba(99.9985%,99.9985%,99.9985%,1)"/>
  <circle cx="9" cy="4" r="1" fill="white"/>
  <circle cx="10" cy="4" r="1" fill="srgba(94.5342%,97.0428%,93.9452%,1)"/>
  <circle cx="11" cy="4" r="1" fill="srgba(27.7821%,60.8392%,19.9863%,1)"/>
  <circle cx="12" cy="4" r="1" fill="srgba(8.61677%,50.4112%,0%,1)"/>
  <circle cx="13" cy="4" r="1" fill="srgba(9.7322%,51.0033%,0%,1)"/>
  <circle cx="14" cy="4" r="1" fill="srgba(9.72305%,50.9987%,0%,1)"/>
  <circle cx="15" cy="4" r="1" fill="srgba(9.72305%,50.9987%,0%,1)"/>
  <circle cx="0" cy="5" r="1" fill="srgba(25,130,0,1)"/>
  <circle cx="1" cy="5" r="1" fill="srgba(25,130,0,1)"/>
  <circle cx="2" cy="5" r="1" fill="srgba(25,130,0,1)"/>
  <circle cx="3" cy="5" r="1" fill="srgba(8.67933%,50.3685%,0%,1)"/>
  <circle cx="4" cy="5" r="1" fill="srgba(27.8111%,60.7645%,19.9619%,1)"/>
  <circle cx="5" cy="5" r="1" fill="srgba(94.5281%,97.026%,93.933%,1)"/>
  <circle cx="6" cy="5" r="1" fill="white"/>
  <circle cx="7" cy="5" r="1" fill="srgba(96.9055%,96.9055%,96.9055%,1)"/>
  <circle cx="8" cy="5" r="1" fill="srgba(92.8267%,92.8267%,92.8267%,1)"/>
  <circle cx="9" cy="5" r="1" fill="srgba(92.5093%,92.3659%,92.5429%,1)"/>
  <circle cx="10" cy="5" r="1" fill="srgba(88.0522%,90.3227%,87.5151%,1)"/>
  <circle cx="11" cy="5" r="1" fill="srgba(27.747%,58.2025%,20.502%,1)"/>
  <circle cx="12" cy="5" r="1" fill="srgba(10.4677%,49.3675%,1.20241%,1)"/>
  <circle cx="13" cy="5" r="1" fill="srgba(11.7784%,50.3395%,2.59861%,1)"/>
  <circle cx="14" cy="5" r="1" fill="srgba(11.9844%,50.4402%,2.8275%,1)"/>
  <circle cx="15" cy="5" r="1" fill="srgba(11.9936%,50.4448%,2.83818%,1)"/>
  <circle cx="0" cy="6" r="1" fill="srgba(25,130,0,1)"/>
  <circle cx="1" cy="6" r="1" fill="srgba(25,130,0,1)"/>
  <circle cx="2" cy="6" r="1" fill="srgba(25,130,0,1)"/>
  <circle cx="3" cy="6" r="1" fill="srgba(8.67933%,50.3685%,0%,1)"/>
  <circle cx="4" cy="6" r="1" fill="srgba(27.8111%,60.7645%,19.9619%,1)"/>
  <circle cx="5" cy="6" r="1" fill="srgba(94.551%,97.0489%,93.9544%,1)"/>
  <circle cx="6" cy="6" r="1" fill="srgba(100%,99.939%,100%,1)"/>
  <circle cx="7" cy="6" r="1" fill="srgba(93.2311%,93.2311%,93.2311%,1)"/>
  <circle cx="8" cy="6" r="1" fill="srgba(86.9917%,86.9917%,86.9917%,1)"/>
  <circle cx="9" cy="6" r="1" fill="srgba(84.3122%,84.1718%,84.3458%,1)"/>
  <circle cx="10" cy="6" r="1" fill="srgba(84.3702%,86.5888%,83.8437%,1)"/>
  <circle cx="11" cy="6" r="1" fill="srgba(25.771%,56.2631%,18.5458%,1)"/>
  <circle cx="12" cy="6" r="1" fill="srgba(7.99115%,48.2399%,0%,1)"/>
  <circle cx="13" cy="6" r="1" fill="srgba(9.16609%,49.9977%,0%,1)"/>
  <circle cx="14" cy="6" r="1" fill="srgba(9.28969%,50.0572%,0%,1)"/>
  <circle cx="15" cy="6" r="1" fill="srgba(9.30953%,50.0679%,0%,1)"/>
  <circle cx="0" cy="7" r="1" fill="srgba(25,130,0,1)"/>
  <circle cx="1" cy="7" r="1" fill="srgba(25,130,0,1)"/>
  <circle cx="2" cy="7" r="1" fill="srgba(25,130,0,1)"/>
  <circle cx="3" cy="7" r="1" fill="srgba(8.67933%,50.3685%,0%,1)"/>
  <circle cx="4" cy="7" r="1" fill="srgba(27.8111%,60.7645%,19.9619%,1)"/>
  <circle cx="5" cy="7" r="1" fill="srgba(94.583%,97.0809%,93.9879%,1)"/>
  <circle cx="6" cy="7" r="1" fill="srgba(99.5361%,99.3805%,99.5743%,1)"/>
  <circle cx="7" cy="7" r="1" fill="srgba(91.7098%,91.7098%,91.7098%,1)"/>
  <circle cx="8" cy="7" r="1" fill="srgba(88.4733%,88.4733%,88.4733%,1)"/>
  <circle cx="9" cy="7" r="1" fill="srgba(89.781%,89.6788%,89.8054%,1)"/>
  <circle cx="10" cy="7" r="1" fill="srgba(89.5277%,91.1452%,89.1447%,1)"/>
  <circle cx="11" cy="7" r="1" fill="srgba(46.9718%,69.1997%,41.6846%,1)"/>
  <circle cx="12" cy="7" r="1" fill="srgba(33.3257%,63.1373%,26.2272%,1)"/>
  <circle cx="13" cy="7" r="1" fill="srgba(33.489%,63.4714%,26.3508%,1)"/>
  <circle cx="14" cy="7" r="1" fill="srgba(32.607%,62.9847%,25.3758%,1)"/>
  <circle cx="15" cy="7" r="1" fill="srgba(32.1798%,62.7543%,24.9012%,1)"/>
  <circle cx="0" cy="8" r="1" fill="srgba(25,130,0,1)"/>
  <circle cx="1" cy="8" r="1" fill="srgba(25,130,0,1)"/>
  <circle cx="2" cy="8" r="1" fill="srgba(25,130,0,1)"/>
  <circle cx="3" cy="8" r="1" fill="srgba(8.67933%,50.3685%,0%,1)"/>
  <circle cx="4" cy="8" r="1" fill="srgba(27.8111%,60.7645%,19.9619%,1)"/>
  <circle cx="5" cy="8" r="1" fill="srgba(94.5373%,97.0352%,93.9422%,1)"/>
  <circle cx="6" cy="8" r="1" fill="white"/>
  <circle cx="7" cy="8" r="1" fill="srgba(91.4473%,91.4473%,91.4473%,1)"/>
  <circle cx="8" cy="8" r="1" fill="srgba(88.2872%,88.2872%,88.2872%,1)"/>
  <circle cx="9" cy="8" r="1" fill="white"/>
  <circle cx="10" cy="8" r="1" fill="srgba(99.6811%,99.7391%,99.6674%,1)"/>
  <circle cx="11" cy="8" r="1" fill="srgba(97.9767%,98.7549%,97.792%,1)"/>
  <circle cx="12" cy="8" r="1" fill="srgba(97.4166%,98.4405%,97.174%,1)"/>
  <circle cx="13" cy="8" r="1" fill="srgba(97.2107%,98.32%,96.9467%,1)"/>
  <circle cx="14" cy="8" r="1" fill="srgba(96.8658%,98.1216%,96.5667%,1)"/>
  <circle cx="15" cy="8" r="1" fill="srgba(96.6934%,98.027%,96.3775%,1)"/>
  <circle cx="0" cy="9" r="1" fill="srgba(25,130,0,1)"/>
  <circle cx="1" cy="9" r="1" fill="srgba(25,130,0,1)"/>
  <circle cx="2" cy="9" r="1" fill="srgba(25,130,0,1)"/>
  <circle cx="3" cy="9" r="1" fill="srgba(8.67933%,50.3685%,0%,1)"/>
  <circle cx="4" cy="9" r="1" fill="srgba(27.8111%,60.7645%,19.9619%,1)"/>
  <circle cx="5" cy="9" r="1" fill="srgba(94.5846%,97.0809%,93.9879%,1)"/>
  <circle cx="6" cy="9" r="1" fill="srgba(99.1318%,98.9761%,99.1684%,1)"/>
  <circle cx="7" cy="9" r="1" fill="srgba(86.0594%,86.0319%,86.0655%,1)"/>
  <circle cx="8" cy="9" r="1" fill="srgba(82.649%,82.6291%,82.6535%,1)"/>
  <circle cx="9" cy="9" r="1" fill="srgba(99.4965%,99.498%,99.4965%,1)"/>
  <circle cx="10" cy="9" r="1" fill="white"/>
  <circle cx="11" cy="9" r="1" fill="white"/>
  <circle cx="12" cy="9" r="1" fill="white"/>
  <circle cx="13" cy="9" r="1" fill="white"/>
  <circle cx="14" cy="9" r="1" fill="white"/>
  <circle cx="15" cy="9" r="1" fill="white"/>
  <circle cx="0" cy="10" r="1" fill="srgba(25,130,0,1)"/>
  <circle cx="1" cy="10" r="1" fill="srgba(25,130,0,1)"/>
  <circle cx="2" cy="10" r="1" fill="srgba(25,130,0,1)"/>
  <circle cx="3" cy="10" r="1" fill="srgba(8.67933%,50.3685%,0%,1)"/>
  <circle cx="4" cy="10" r="1" fill="srgba(27.8111%,60.7645%,19.9619%,1)"/>
  <circle cx="5" cy="10" r="1" fill="srgba(94.5983%,97.0962%,94.0032%,1)"/>
  <circle cx="6" cy="10" r="1" fill="srgba(99.4919%,99.2248%,99.5544%,1)"/>
  <circle cx="7" cy="10" r="1" fill="srgba(78.2864%,81.21%,77.5921%,1)"/>
  <circle cx="8" cy="10" r="1" fill="srgba(78.0972%,79.2737%,77.8164%,1)"/>
  <circle cx="9" cy="10" r="1" fill="srgba(98.6969%,98.5428%,98.7335%,1)"/>
  <circle cx="10" cy="10" r="1" fill="white"/>
  <circle cx="11" cy="10" r="1" fill="white"/>
  <circle cx="12" cy="10" r="1" fill="white"/>
  <circle cx="13" cy="10" r="1" fill="white"/>
  <circle cx="14" cy="10" r="1" fill="white"/>
  <circle cx="15" cy="10" r="1" fill="white"/>
  <circle cx="0" cy="11" r="1" fill="srgba(25,130,0,1)"/>
  <circle cx="1" cy="11" r="1" fill="srgba(25,130,0,1)"/>
  <circle cx="2" cy="11" r="1" fill="srgba(25,130,0,1)"/>
  <circle cx="3" cy="11" r="1" fill="srgba(8.67933%,50.3685%,0%,1)"/>
  <circle cx="4" cy="11" r="1" fill="srgba(27.8111%,60.7645%,19.9619%,1)"/>
  <circle cx="5" cy="11" r="1" fill="srgba(94.5312%,97.0291%,93.9361%,1)"/>
  <circle cx="6" cy="11" r="1" fill="white"/>
  <circle cx="7" cy="11" r="1" fill="srgba(67.2938%,77.0062%,65.1255%,1)"/>
  <circle cx="8" cy="11" r="1" fill="srgba(52.3735%,65.5756%,49.2683%,1)"/>
  <circle cx="9" cy="11" r="1" fill="srgba(95.2148%,96.0433%,95.0149%,1)"/>
  <circle cx="10" cy="11" r="1" fill="white"/>
  <circle cx="11" cy="11" r="1" fill="white"/>
  <circle cx="12" cy="11" r="1" fill="white"/>
  <circle cx="13" cy="11" r="1" fill="white"/>
  <circle cx="14" cy="11" r="1" fill="white"/>
  <circle cx="15" cy="11" r="1" fill="white"/>
  <circle cx="0" cy="12" r="1" fill="srgba(25,130,0,1)"/>
  <circle cx="1" cy="12" r="1" fill="srgba(25,130,0,1)"/>
  <circle cx="2" cy="12" r="1" fill="srgba(25,130,0,1)"/>
  <circle cx="3" cy="12" r="1" fill="srgba(8.67933%,50.3685%,0%,1)"/>
  <circle cx="4" cy="12" r="1" fill="srgba(27.8111%,60.7645%,19.9619%,1)"/>
  <circle cx="5" cy="12" r="1" fill="srgba(94.5281%,97.026%,93.9315%,1)"/>
  <circle cx="6" cy="12" r="1" fill="white"/>
  <circle cx="7" cy="12" r="1" fill="srgba(66.7384%,76.6506%,64.4984%,1)"/>
  <circle cx="8" cy="12" r="1" fill="srgba(16.405%,46.157%,9.70474%,1)"/>
  <circle cx="9" cy="12" r="1" fill="srgba(61.3214%,76.9085%,57.6211%,1)"/>
  <circle cx="10" cy="12" r="1" fill="srgba(100%,99.9481%,100%,1)"/>
  <circle cx="11" cy="12" r="1" fill="white"/>
  <circle cx="12" cy="12" r="1" fill="white"/>
  <circle cx="13" cy="12" r="1" fill="white"/>
  <circle cx="14" cy="12" r="1" fill="white"/>
  <circle cx="15" cy="12" r="1" fill="white"/>
  <circle cx="0" cy="13" r="1" fill="srgba(25,130,0,1)"/>
  <circle cx="1" cy="13" r="1" fill="srgba(25,130,0,1)"/>
  <circle cx="2" cy="13" r="1" fill="srgba(25,130,0,1)"/>
  <circle cx="3" cy="13" r="1" fill="srgba(8.67933%,50.3685%,0%,1)"/>
  <circle cx="4" cy="13" r="1" fill="srgba(27.8111%,60.7645%,19.9619%,1)"/>
  <circle cx="5" cy="13" r="1" fill="srgba(94.5296%,97.026%,93.933%,1)"/>
  <circle cx="6" cy="13" r="1" fill="white"/>
  <circle cx="7" cy="13" r="1" fill="srgba(70.5776%,78.4588%,68.7572%,1)"/>
  <circle cx="8" cy="13" r="1" fill="srgba(10.9056%,43.6439%,3.44091%,1)"/>
  <circle cx="9" cy="13" r="1" fill="srgba(25.8274%,58.5595%,18.5489%,1)"/>
  <circle cx="10" cy="13" r="1" fill="srgba(92.2789%,95.3048%,91.545%,1)"/>
  <circle cx="11" cy="13" r="1" fill="white"/>
  <circle cx="12" cy="13" r="1" fill="white"/>
  <circle cx="13" cy="13" r="1" fill="white"/>
  <circle cx="14" cy="13" r="1" fill="white"/>
  <circle cx="15" cy="13" r="1" fill="white"/>
  <circle cx="0" cy="14" r="1" fill="srgba(25,130,0,1)"/>
  <circle cx="1" cy="14" r="1" fill="srgba(25,130,0,1)"/>
  <circle cx="2" cy="14" r="1" fill="srgba(25,130,0,1)"/>
  <circle cx="3" cy="14" r="1" fill="srgba(8.67933%,50.3685%,0%,1)"/>
  <circle cx="4" cy="14" r="1" fill="srgba(27.8111%,60.7645%,19.9619%,1)"/>
  <circle cx="5" cy="14" r="1" fill="srgba(94.5296%,97.0275%,93.9345%,1)"/>
  <circle cx="6" cy="14" r="1" fill="white"/>
  <circle cx="7" cy="14" r="1" fill="srgba(76.5911%,82.2538%,75.2987%,1)"/>
  <circle cx="8" cy="14" r="1" fill="srgba(15.0744%,46.3157%,8.13001%,1)"/>
  <circle cx="9" cy="14" r="1" fill="srgba(12.6436%,51.7891%,3.57671%,1)"/>
  <circle cx="10" cy="14" r="1" fill="srgba(74.0902%,84.9775%,71.5572%,1)"/>
  <circle cx="11" cy="14" r="1" fill="white"/>
  <circle cx="12" cy="14" r="1" fill="white"/>
  <circle cx="13" cy="14" r="1" fill="white"/>
  <circle cx="14" cy="14" r="1" fill="white"/>
  <circle cx="15" cy="14" r="1" fill="white"/>
  <circle cx="0" cy="15" r="1" fill="srgba(25,130,0,1)"/>
  <circle cx="1" cy="15" r="1" fill="srgba(25,130,0,1)"/>
  <circle cx="2" cy="15" r="1" fill="srgba(25,130,0,1)"/>
  <circle cx="3" cy="15" r="1" fill="srgba(8.67933%,50.3685%,0%,1)"/>
  <circle cx="4" cy="15" r="1" fill="srgba(27.8111%,60.7645%,19.9619%,1)"/>
  <circle cx="5" cy="15" r="1" fill="srgba(94.5312%,97.0291%,93.9361%,1)"/>
  <circle cx="6" cy="15" r="1" fill="white"/>
  <circle cx="7" cy="15" r="1" fill="srgba(83.7186%,86.1875%,83.1296%,1)"/>
  <circle cx="8" cy="15" r="1" fill="srgba(38.0682%,57.4777%,33.4463%,1)"/>
  <circle cx="9" cy="15" r="1" fill="srgba(20.7019%,54.1985%,12.7321%,1)"/>
  <circle cx="10" cy="15" r="1" fill="srgba(55.3597%,73.5912%,51.0231%,1)"/>
  <circle cx="11" cy="15" r="1" fill="white"/>
  <circle cx="12" cy="15" r="1" fill="white"/>
  <circle cx="13" cy="15" r="1" fill="white"/>
  <circle cx="14" cy="15" r="1" fill="white"/>
  <circle cx="15" cy="15" r="1" fill="white"/>
</svg>
