<?xml version="1.0" standalone="no"?>
<!DOCTYPE svg PUBLIC "-//W3C//DTD SVG 20010904//EN"
  "http://www.w3.org/TR/2001/REC-SVG-20010904/DTD/svg10.dtd">
<svg width="16" height="16">
  <circle cx="0" cy="0" r="1" fill="srgba(0,103,198,1)"/>
  <circle cx="1" cy="0" r="1" fill="srgba(0,103,198,1)"/>
  <circle cx="2" cy="0" r="1" fill="srgba(0,103,198,1)"/>
  <circle cx="3" cy="0" r="1" fill="srgba(0,103,198,1)"/>
  <circle cx="4" cy="0" r="1" fill="srgba(0,103,198,1)"/>
  <circle cx="5" cy="0" r="1" fill="srgba(0,103,198,1)"/>
  <circle cx="6" cy="0" r="1" fill="srgba(0,103,198,1)"/>
  <circle cx="7" cy="0" r="1" fill="srgba(0,103,198,1)"/>
  <circle cx="8" cy="0" r="1" fill="srgba(0,103,198,1)"/>
  <circle cx="9" cy="0" r="1" fill="srgba(0,103,198,1)"/>
  <circle cx="10" cy="0" r="1" fill="srgba(0,103,198,1)"/>
  <circle cx="11" cy="0" r="1" fill="srgba(0,103,198,1)"/>
  <circle cx="12" cy="0" r="1" fill="srgba(0,103,198,1)"/>
  <circle cx="13" cy="0" r="1" fill="srgba(0,103,198,1)"/>
  <circle cx="14" cy="0" r="1" fill="srgba(0,103,198,1)"/>
  <circle cx="15" cy="0" r="1" fill="srgba(0,103,198,1)"/>
  <circle cx="0" cy="1" r="1" fill="srgba(0,103,198,1)"/>
  <circle cx="1" cy="1" r="1" fill="srgba(0,103,198,1)"/>
  <circle cx="2" cy="1" r="1" fill="srgba(0,103,198,1)"/>
  <circle cx="3" cy="1" r="1" fill="srgba(0,103,198,1)"/>
  <circle cx="4" cy="1" r="1" fill="srgba(0,103,198,1)"/>
  <circle cx="5" cy="1" r="1" fill="srgba(0,103,198,1)"/>
  <circle cx="6" cy="1" r="1" fill="srgba(0,103,198,1)"/>
  <circle cx="7" cy="1" r="1" fill="srgba(0,103,198,1)"/>
  <circle cx="8" cy="1" r="1" fill="srgba(0,103,198,1)"/>
  <circle cx="9" cy="1" r="1" fill="srgba(0,103,198,1)"/>
  <circle cx="10" cy="1" r="1" fill="srgba(0,103,198,1)"/>
  <circle cx="11" cy="1" r="1" fill="srgba(0,103,198,1)"/>
  <circle cx="12" cy="1" r="1" fill="srgba(0,103,198,1)"/>
  <circle cx="13" cy="1" r="1" fill="srgba(0,103,198,1)"/>
  <circle cx="14" cy="1" r="1" fill="srgba(0,103,198,1)"/>
  <circle cx="15" cy="1" r="1" fill="srgba(0,103,198,1)"/>
  <circle cx="0" cy="2" r="1" fill="srgba(0,103,198,1)"/>
  <circle cx="1" cy="2" r="1" fill="srgba(0,103,198,1)"/>
  <circle cx="2" cy="2" r="1" fill="srgba(0,103,198,1)"/>
  <circle cx="3" cy="2" r="1" fill="srgba(0,103,198,1)"/>
  <circle cx="4" cy="2" r="1" fill="srgba(0,103,198,1)"/>
  <circle cx="5" cy="2" r="1" fill="srgba(0,103,198,1)"/>
  <circle cx="6" cy="2" r="1" fill="srgba(0,103,198,1)"/>
  <circle cx="7" cy="2" r="1" fill="srgba(0,103,198,1)"/>
  <circle cx="8" cy="2" r="1" fill="srgba(0,103,198,1)"/>
  <circle cx="9" cy="2" r="1" fill="srgba(0,103,198,1)"/>
  <circle cx="10" cy="2" r="1" fill="srgba(0,103,198,1)"/>
  <circle cx="11" cy="2" r="1" fill="srgba(0,103,198,1)"/>
  <circle cx="12" cy="2" r="1" fill="srgba(0,103,198,1)"/>
  <circle cx="13" cy="2" r="1" fill="srgba(0,103,198,1)"/>
  <circle cx="14" cy="2" r="1" fill="srgba(0,103,198,1)"/>
  <circle cx="15" cy="2" r="1" fill="srgba(0,103,198,1)"/>
  <circle cx="0" cy="3" r="1" fill="srgba(0%,40.3662%,77.6364%,1)"/>
  <circle cx="1" cy="3" r="1" fill="srgba(0%,40.3662%,77.6364%,1)"/>
  <circle cx="2" cy="3" r="1" fill="srgba(0%,40.3662%,77.6364%,1)"/>
  <circle cx="3" cy="3" r="1" fill="srgba(0%,40.3662%,77.6364%,1)"/>
  <circle cx="4" cy="3" r="1" fill="srgba(0%,40.3662%,77.6364%,1)"/>
  <circle cx="5" cy="3" r="1" fill="srgba(0%,40.3662%,77.6364%,1)"/>
  <circle cx="6" cy="3" r="1" fill="srgba(0%,40.3662%,77.6364%,1)"/>
  <circle cx="7" cy="3" r="1" fill="srgba(0%,40.3662%,77.6364%,1)"/>
  <circle cx="8" cy="3" r="1" fill="srgba(0%,40.3662%,77.6364%,1)"/>
  <circle cx="9" cy="3" r="1" fill="srgba(0%,40.3662%,77.6364%,1)"/>
  <circle cx="10" cy="3" r="1" fill="srgba(0%,40.3662%,77.6364%,1)"/>
  <circle cx="11" cy="3" r="1" fill="srgba(0%,40.3662%,77.6364%,1)"/>
  <circle cx="12" cy="3" r="1" fill="srgba(0%,40.3662%,77.6364%,1)"/>
  <circle cx="13" cy="3" r="1" fill="srgba(0%,40.3662%,77.6364%,1)"/>
  <circle cx="14" cy="3" r="1" fill="srgba(0%,40.3662%,77.6364%,1)"/>
  <circle cx="15" cy="3" r="1" fill="srgba(0%,40.3662%,77.6364%,1)"/>
  <circle cx="0" cy="4" r="1" fill="srgba(0.447089%,40.6592%,77.7462%,1)"/>
  <circle cx="1" cy="4" r="1" fill="srgba(0.447089%,40.6592%,77.7462%,1)"/>
  <circle cx="2" cy="4" r="1" fill="srgba(0.447089%,40.6592%,77.7462%,1)"/>
  <circle cx="3" cy="4" r="1" fill="srgba(0.447089%,40.6592%,77.7462%,1)"/>
  <circle cx="4" cy="4" r="1" fill="srgba(0.447089%,40.6592%,77.7462%,1)"/>
  <circle cx="5" cy="4" r="1" fill="srgba(0.447089%,40.6577%,77.7432%,1)"/>
  <circle cx="6" cy="4" r="1" fill="srgba(0.462348%,40.6867%,77.8256%,1)"/>
  <circle cx="7" cy="4" r="1" fill="srgba(0.579843%,40.8576%,78.294%,1)"/>
  <circle cx="8" cy="4" r="1" fill="srgba(0.494392%,40.7156%,77.8943%,1)"/>
  <circle cx="9" cy="4" r="1" fill="srgba(0.444038%,40.6561%,77.7386%,1)"/>
  <circle cx="10" cy="4" r="1" fill="srgba(0.447089%,40.6592%,77.7478%,1)"/>
  <circle cx="11" cy="4" r="1" fill="srgba(0.447089%,40.6592%,77.7462%,1)"/>
  <circle cx="12" cy="4" r="1" fill="srgba(0.447089%,40.6592%,77.7462%,1)"/>
  <circle cx="13" cy="4" r="1" fill="srgba(0.447089%,40.6592%,77.7462%,1)"/>
  <circle cx="14" cy="4" r="1" fill="srgba(0.447089%,40.6592%,77.7462%,1)"/>
  <circle cx="15" cy="4" r="1" fill="srgba(0.447089%,40.6592%,77.7462%,1)"/>
  <circle cx="0" cy="5" r="1" fill="srgba(64.5243%,78.8571%,92.0699%,1)"/>
  <circle cx="1" cy="5" r="1" fill="srgba(64.5243%,78.8571%,92.0699%,1)"/>
  <circle cx="2" cy="5" r="1" fill="srgba(64.5243%,78.8571%,92.0699%,1)"/>
  <circle cx="3" cy="5" r="1" fill="srgba(64.5243%,78.8571%,92.0699%,1)"/>
  <circle cx="4" cy="5" r="1" fill="srgba(64.5228%,78.854%,92.0607%,1)"/>
  <circle cx="5" cy="5" r="1" fill="srgba(64.5655%,78.9242%,92.2591%,1)"/>
  <circle cx="6" cy="5" r="1" fill="srgba(64.48%,78.761%,91.7922%,1)"/>
  <circle cx="7" cy="5" r="1" fill="srgba(62.6169%,75.848%,83.508%,1)"/>
  <circle cx="8" cy="5" r="1" fill="srgba(64.1032%,78.2803%,90.3548%,1)"/>
  <circle cx="9" cy="5" r="1" fill="srgba(64.8981%,79.4522%,93.724%,1)"/>
  <circle cx="10" cy="5" r="1" fill="srgba(64.8539%,79.4034%,93.6004%,1)"/>
  <circle cx="11" cy="5" r="1" fill="srgba(64.8341%,79.3683%,93.5012%,1)"/>
  <circle cx="12" cy="5" r="1" fill="srgba(64.8249%,79.3545%,93.4615%,1)"/>
  <circle cx="13" cy="5" r="1" fill="srgba(64.8325%,79.3668%,93.4966%,1)"/>
  <circle cx="14" cy="5" r="1" fill="srgba(64.8463%,79.3881%,93.5576%,1)"/>
  <circle cx="15" cy="5" r="1" fill="srgba(64.8569%,79.4064%,93.6095%,1)"/>
  <circle cx="0" cy="6" r="1" fill="white"/>
  <circle cx="1" cy="6" r="1" fill="white"/>
  <circle cx="2" cy="6" r="1" fill="white"/>
  <circle cx="3" cy="6" r="1" fill="white"/>
  <circle cx="4" cy="6" r="1" fill="white"/>
  <circle cx="5" cy="6" r="1" fill="srgba(99.3347%,98.6664%,95.6603%,1)"/>
  <circle cx="6" cy="6" r="1" fill="srgba(91.9127%,84.4846%,53.5821%,1)"/>
  <circle cx="7" cy="6" r="1" fill="srgba(80.7309%,77.9156%,45.9541%,1)"/>
  <circle cx="8" cy="6" r="1" fill="srgba(85.5924%,87.9438%,72.3079%,1)"/>
  <circle cx="9" cy="6" r="1" fill="srgba(93.0587%,86.4485%,58.967%,1)"/>
  <circle cx="10" cy="6" r="1" fill="srgba(92.8145%,86.2593%,58.9822%,1)"/>
  <circle cx="11" cy="6" r="1" fill="srgba(93.3165%,87.1%,61.3275%,1)"/>
  <circle cx="12" cy="6" r="1" fill="srgba(93.5256%,87.4434%,62.3056%,1)"/>
  <circle cx="13" cy="6" r="1" fill="srgba(93.4096%,87.245%,61.7594%,1)"/>
  <circle cx="14" cy="6" r="1" fill="srgba(93.2784%,87.0405%,61.1673%,1)"/>
  <circle cx="15" cy="6" r="1" fill="srgba(93.2403%,86.9749%,60.9812%,1)"/>
  <circle cx="0" cy="7" r="1" fill="white"/>
  <circle cx="1" cy="7" r="1" fill="white"/>
  <circle cx="2" cy="7" r="1" fill="white"/>
  <circle cx="3" cy="7" r="1" fill="white"/>
  <circle cx="4" cy="7" r="1" fill="white"/>
  <circle cx="5" cy="7" r="1" fill="srgba(95.346%,92.2362%,77.818%,1)"/>
  <circle cx="6" cy="7" r="1" fill="srgba(78.2223%,65.1301%,10.6798%,1)"/>
  <circle cx="7" cy="7" r="1" fill="srgba(66.1021%,57.7203%,44.9989%,1)"/>
  <circle cx="8" cy="7" r="1" fill="srgba(73.4874%,52.6787%,38.9624%,1)"/>
  <circle cx="9" cy="7" r="1" fill="srgba(79.3698%,63.2197%,3.66369%,1)"/>
  <circle cx="10" cy="7" r="1" fill="srgba(78.5763%,64.7059%,0.703441%,1)"/>
  <circle cx="11" cy="7" r="1" fill="srgba(79.5285%,66.1295%,5.08888%,1)"/>
  <circle cx="12" cy="7" r="1" fill="srgba(80.0427%,66.978%,7.46014%,1)"/>
  <circle cx="13" cy="7" r="1" fill="srgba(79.8627%,66.6789%,6.62852%,1)"/>
  <circle cx="14" cy="7" r="1" fill="srgba(79.6201%,66.2852%,5.51919%,1)"/>
  <circle cx="15" cy="7" r="1" fill="srgba(79.4736%,66.0426%,4.84016%,1)"/>
  <circle cx="0" cy="8" r="1" fill="white"/>
  <circle cx="1" cy="8" r="1" fill="white"/>
  <circle cx="2" cy="8" r="1" fill="white"/>
  <circle cx="3" cy="8" r="1" fill="white"/>
  <circle cx="4" cy="8" r="1" fill="white"/>
  <circle cx="5" cy="8" r="1" fill="srgba(94.6578%,90.7607%,73.489%,1)"/>
  <circle cx="6" cy="8" r="1" fill="srgba(73.3806%,66.4195%,18.5183%,1)"/>
  <circle cx="7" cy="8" r="1" fill="srgba(67.5792%,72.2911%,26.6957%,1)"/>
  <circle cx="8" cy="8" r="1" fill="srgba(80.3632%,67.0192%,27.3579%,1)"/>
  <circle cx="9" cy="8" r="1" fill="srgba(79.5117%,64.8753%,15.2178%,1)"/>
  <circle cx="10" cy="8" r="1" fill="srgba(78.4375%,64.3366%,0%,1)"/>
  <circle cx="11" cy="8" r="1" fill="srgba(78.3688%,64.21%,0%,1)"/>
  <circle cx="12" cy="8" r="1" fill="srgba(78.349%,64.1764%,0%,1)"/>
  <circle cx="13" cy="8" r="1" fill="srgba(78.3566%,64.1901%,0%,1)"/>
  <circle cx="14" cy="8" r="1" fill="srgba(78.3688%,64.2115%,0%,1)"/>
  <circle cx="15" cy="8" r="1" fill="srgba(78.3764%,64.2237%,0%,1)"/>
  <circle cx="0" cy="9" r="1" fill="white"/>
  <circle cx="1" cy="9" r="1" fill="white"/>
  <circle cx="2" cy="9" r="1" fill="white"/>
  <circle cx="3" cy="9" r="1" fill="white"/>
  <circle cx="4" cy="9" r="1" fill="white"/>
  <circle cx="5" cy="9" r="1" fill="srgba(95.8007%,92.7398%,79.1897%,1)"/>
  <circle cx="6" cy="9" r="1" fill="srgba(77.8561%,66.3859%,8.34363%,1)"/>
  <circle cx="7" cy="9" r="1" fill="srgba(74.8653%,64.4877%,1.91043%,1)"/>
  <circle cx="8" cy="9" r="1" fill="srgba(76.3546%,64.7379%,2.8748%,1)"/>
  <circle cx="9" cy="9" r="1" fill="srgba(80.0366%,66.2974%,7.37469%,1)"/>
  <circle cx="10" cy="9" r="1" fill="srgba(79.762%,65.6245%,2.64439%,1)"/>
  <circle cx="11" cy="9" r="1" fill="srgba(78.6236%,64.3442%,0%,1)"/>
  <circle cx="12" cy="9" r="1" fill="srgba(78.4176%,64.3091%,0%,1)"/>
  <circle cx="13" cy="9" r="1" fill="srgba(78.4405%,64.3168%,0%,1)"/>
  <circle cx="14" cy="9" r="1" fill="srgba(78.4695%,64.3259%,0%,1)"/>
  <circle cx="15" cy="9" r="1" fill="srgba(200,164,0,1)"/>
  <circle cx="0" cy="10" r="1" fill="srgba(64.535%,78.8571%,92.0699%,1)"/>
  <circle cx="1" cy="10" r="1" fill="srgba(64.535%,78.8571%,92.0699%,1)"/>
  <circle cx="2" cy="10" r="1" fill="srgba(64.535%,78.8571%,92.0699%,1)"/>
  <circle cx="3" cy="10" r="1" fill="srgba(64.535%,78.8571%,92.0699%,1)"/>
  <circle cx="4" cy="10" r="1" fill="srgba(64.3763%,79.0249%,93.1289%,1)"/>
  <circle cx="5" cy="10" r="1" fill="srgba(67.216%,75.9915%,74.0871%,1)"/>
  <circle cx="6" cy="10" r="1" fill="srgba(77.4807%,65.4734%,7.18395%,1)"/>
  <circle cx="7" cy="10" r="1" fill="srgba(78.7335%,64.2329%,0%,1)"/>
  <circle cx="8" cy="10" r="1" fill="srgba(78.2132%,64.3961%,1.03456%,1)"/>
  <circle cx="9" cy="10" r="1" fill="srgba(67.8752%,64.5518%,24.7486%,1)"/>
  <circle cx="10" cy="10" r="1" fill="srgba(67.8737%,63.6118%,20.9689%,1)"/>
  <circle cx="11" cy="10" r="1" fill="srgba(75.2285%,63.3265%,3.54925%,1)"/>
  <circle cx="12" cy="10" r="1" fill="srgba(78.8006%,64.4236%,0%,1)"/>
  <circle cx="13" cy="10" r="1" fill="srgba(78.265%,64.2634%,0.157168%,1)"/>
  <circle cx="14" cy="10" r="1" fill="srgba(77.8012%,64.1215%,0.624094%,1)"/>
  <circle cx="15" cy="10" r="1" fill="srgba(78.4405%,64.3168%,0%,1)"/>
  <circle cx="0" cy="11" r="1" fill="srgba(0.448615%,40.6592%,77.7462%,1)"/>
  <circle cx="1" cy="11" r="1" fill="srgba(0.448615%,40.6592%,77.7462%,1)"/>
  <circle cx="2" cy="11" r="1" fill="srgba(0.448615%,40.6592%,77.7462%,1)"/>
  <circle cx="3" cy="11" r="1" fill="srgba(0.448615%,40.6592%,77.7462%,1)"/>
  <circle cx="4" cy="11" r="1" fill="srgba(0%,40.3861%,78.645%,1)"/>
  <circle cx="5" cy="11" r="1" fill="srgba(15.6939%,45.2842%,62.5574%,1)"/>
  <circle cx="6" cy="11" r="1" fill="srgba(72.4666%,62.5055%,5.95254%,1)"/>
  <circle cx="7" cy="11" r="1" fill="srgba(78.8678%,64.4465%,0%,1)"/>
  <circle cx="8" cy="11" r="1" fill="srgba(77.2961%,63.9796%,1.17494%,1)"/>
  <circle cx="9" cy="11" r="1" fill="srgba(39.8657%,52.7687%,39.0829%,1)"/>
  <circle cx="10" cy="11" r="1" fill="srgba(49.5537%,55.6023%,28.9998%,1)"/>
  <circle cx="11" cy="11" r="1" fill="srgba(50.8782%,55.9106%,27.3045%,1)"/>
  <circle cx="12" cy="11" r="1" fill="srgba(77.2778%,63.9612%,1.65866%,1)"/>
  <circle cx="13" cy="11" r="1" fill="srgba(78.6221%,64.3717%,0.0122072%,1)"/>
  <circle cx="14" cy="11" r="1" fill="srgba(77.9202%,64.1581%,0.523384%,1)"/>
  <circle cx="15" cy="11" r="1" fill="srgba(78.468%,64.3244%,0%,1)"/>
  <circle cx="0" cy="12" r="1" fill="srgba(0%,40.3662%,77.6364%,1)"/>
  <circle cx="1" cy="12" r="1" fill="srgba(0%,40.3662%,77.6364%,1)"/>
  <circle cx="2" cy="12" r="1" fill="srgba(0%,40.3662%,77.6364%,1)"/>
  <circle cx="3" cy="12" r="1" fill="srgba(0%,40.3662%,77.6364%,1)"/>
  <circle cx="4" cy="12" r="1" fill="srgba(0%,40.0855%,78.5458%,1)"/>
  <circle cx="5" cy="12" r="1" fill="srgba(15.4467%,45.0828%,62.3468%,1)"/>
  <circle cx="6" cy="12" r="1" fill="srgba(72.6146%,62.5376%,5.75875%,1)"/>
  <circle cx="7" cy="12" r="1" fill="srgba(78.819%,64.4327%,0%,1)"/>
  <circle cx="8" cy="12" r="1" fill="srgba(78.2666%,64.2634%,0.161746%,1)"/>
  <circle cx="9" cy="12" r="1" fill="srgba(59.4293%,58.5122%,18.7869%,1)"/>
  <circle cx="10" cy="12" r="1" fill="srgba(34.2397%,50.8293%,43.7369%,1)"/>
  <circle cx="11" cy="12" r="1" fill="srgba(27.3091%,48.7205%,50.6096%,1)"/>
  <circle cx="12" cy="12" r="1" fill="srgba(48.5771%,55.2087%,29.5506%,1)"/>
  <circle cx="13" cy="12" r="1" fill="srgba(75.581%,63.444%,2.89616%,1)"/>
  <circle cx="14" cy="12" r="1" fill="srgba(78.967%,64.477%,0.325017%,1)"/>
  <circle cx="15" cy="12" r="1" fill="srgba(78.2559%,64.2603%,0.474556%,1)"/>
  <circle cx="0" cy="13" r="1" fill="srgba(0,103,198,1)"/>
  <circle cx="1" cy="13" r="1" fill="srgba(0,103,198,1)"/>
  <circle cx="2" cy="13" r="1" fill="srgba(0,103,198,1)"/>
  <circle cx="3" cy="13" r="1" fill="srgba(0,103,198,1)"/>
  <circle cx="4" cy="13" r="1" fill="srgba(0%,40.1083%,78.5687%,1)"/>
  <circle cx="5" cy="13" r="1" fill="srgba(15.5703%,45.1423%,62.2339%,1)"/>
  <circle cx="6" cy="13" r="1" fill="srgba(72.7947%,62.5956%,5.58175%,1)"/>
  <circle cx="7" cy="13" r="1" fill="srgba(78.7915%,64.4236%,0%,1)"/>
  <circle cx="8" cy="13" r="1" fill="srgba(78.6007%,64.3656%,0%,1)"/>
  <circle cx="9" cy="13" r="1" fill="srgba(71.2352%,62.1134%,7.7409%,1)"/>
  <circle cx="10" cy="13" r="1" fill="srgba(19.5117%,46.006%,59.6109%,1)"/>
  <circle cx="11" cy="13" r="1" fill="srgba(23.5966%,47.4418%,54.7448%,1)"/>
  <circle cx="12" cy="13" r="1" fill="srgba(11.4702%,43.7171%,66.8528%,1)"/>
  <circle cx="13" cy="13" r="1" fill="srgba(34.7326%,50.9865%,43.2609%,1)"/>
  <circle cx="14" cy="13" r="1" fill="srgba(48.3177%,55.1293%,29.8116%,1)"/>
  <circle cx="15" cy="13" r="1" fill="srgba(73.254%,62.7344%,5.17891%,1)"/>
  <circle cx="0" cy="14" r="1" fill="srgba(0,103,198,1)"/>
  <circle cx="1" cy="14" r="1" fill="srgba(0,103,198,1)"/>
  <circle cx="2" cy="14" r="1" fill="srgba(0,103,198,1)"/>
  <circle cx="3" cy="14" r="1" fill="srgba(0,103,198,1)"/>
  <circle cx="4" cy="14" r="1" fill="srgba(0%,40.1038%,78.5809%,1)"/>
  <circle cx="5" cy="14" r="1" fill="srgba(15.7%,45.1804%,62.1042%,1)"/>
  <circle cx="6" cy="14" r="1" fill="srgba(72.9793%,62.6505%,5.39712%,1)"/>
  <circle cx="7" cy="14" r="1" fill="srgba(78.7793%,64.4205%,0%,1)"/>
  <circle cx="8" cy="14" r="1" fill="srgba(78.6786%,64.39%,0%,1)"/>
  <circle cx="9" cy="14" r="1" fill="srgba(68.8365%,61.3733%,9.53689%,1)"/>
  <circle cx="10" cy="14" r="1" fill="srgba(32.0363%,50.1396%,46.0075%,1)"/>
  <circle cx="11" cy="14" r="1" fill="srgba(60.3281%,58.7915%,17.969%,1)"/>
  <circle cx="12" cy="14" r="1" fill="srgba(32.6894%,50.3624%,45.2873%,1)"/>
  <circle cx="13" cy="14" r="1" fill="srgba(59.5483%,58.5534%,18.6954%,1)"/>
  <circle cx="14" cy="14" r="1" fill="srgba(26.4179%,48.4504%,51.4946%,1)"/>
  <circle cx="15" cy="14" r="1" fill="srgba(21.6693%,47.0008%,56.1944%,1)"/>
  <circle cx="0" cy="15" r="1" fill="srgba(0,103,198,1)"/>
  <circle cx="1" cy="15" r="1" fill="srgba(0,103,198,1)"/>
  <circle cx="2" cy="15" r="1" fill="srgba(0,103,198,1)"/>
  <circle cx="3" cy="15" r="1" fill="srgba(0,103,198,1)"/>
  <circle cx="4" cy="15" r="1" fill="srgba(0%,40.0992%,78.5962%,1)"/>
  <circle cx="5" cy="15" r="1" fill="srgba(15.8846%,45.2369%,61.9211%,1)"/>
  <circle cx="6" cy="15" r="1" fill="srgba(73.1868%,62.7146%,5.19112%,1)"/>
  <circle cx="7" cy="15" r="1" fill="srgba(78.7655%,64.416%,0%,1)"/>
  <circle cx="8" cy="15" r="1" fill="srgba(78.6664%,64.3854%,0%,1)"/>
  <circle cx="9" cy="15" r="1" fill="srgba(69.2897%,61.5244%,9.05623%,1)"/>
  <circle cx="10" cy="15" r="1" fill="srgba(60.9812%,58.9899%,17.5601%,1)"/>
  <circle cx="11" cy="15" r="1" fill="srgba(76.7605%,63.8041%,1.99588%,1)"/>
  <circle cx="12" cy="15" r="1" fill="srgba(68.4291%,61.2619%,10.0633%,1)"/>
  <circle cx="13" cy="15" r="1" fill="srgba(78.9014%,64.4572%,0.164797%,1)"/>
  <circle cx="14" cy="15" r="1" fill="srgba(66.2211%,60.5921%,12.459%,1)"/>
  <circle cx="15" cy="15" r="1" fill="srgba(15.6741%,45.0156%,62.6184%,1)"/>
</svg>
