<?xml version="1.0" standalone="no"?>
<!DOCTYPE svg PUBLIC "-//W3C//DTD SVG 20010904//EN"
  "http://www.w3.org/TR/2001/REC-SVG-20010904/DTD/svg10.dtd">
<svg width="16" height="16">
  <circle cx="0" cy="0" r="1" fill="srgba(39.6521%,37.1054%,60.2976%,1)"/>
  <circle cx="1" cy="0" r="1" fill="srgba(94.7524%,94.8669%,96.91%,1)"/>
  <circle cx="2" cy="0" r="1" fill="white"/>
  <circle cx="3" cy="0" r="1" fill="white"/>
  <circle cx="4" cy="0" r="1" fill="white"/>
  <circle cx="5" cy="0" r="1" fill="white"/>
  <circle cx="6" cy="0" r="1" fill="white"/>
  <circle cx="7" cy="0" r="1" fill="white"/>
  <circle cx="8" cy="0" r="1" fill="white"/>
  <circle cx="9" cy="0" r="1" fill="white"/>
  <circle cx="10" cy="0" r="1" fill="white"/>
  <circle cx="11" cy="0" r="1" fill="white"/>
  <circle cx="12" cy="0" r="1" fill="white"/>
  <circle cx="13" cy="0" r="1" fill="white"/>
  <circle cx="14" cy="0" r="1" fill="white"/>
  <circle cx="15" cy="0" r="1" fill="white"/>
  <circle cx="0" cy="1" r="1" fill="srgba(35.5215%,3.67895%,25.5116%,1)"/>
  <circle cx="1" cy="1" r="1" fill="srgba(68.7953%,59.6567%,70.9026%,1)"/>
  <circle cx="2" cy="1" r="1" fill="srgba(99.7635%,100%,100%,1)"/>
  <circle cx="3" cy="1" r="1" fill="white"/>
  <circle cx="4" cy="1" r="1" fill="white"/>
  <circle cx="5" cy="1" r="1" fill="white"/>
  <circle cx="6" cy="1" r="1" fill="white"/>
  <circle cx="7" cy="1" r="1" fill="white"/>
  <circle cx="8" cy="1" r="1" fill="white"/>
  <circle cx="9" cy="1" r="1" fill="white"/>
  <circle cx="10" cy="1" r="1" fill="white"/>
  <circle cx="11" cy="1" r="1" fill="white"/>
  <circle cx="12" cy="1" r="1" fill="white"/>
  <circle cx="13" cy="1" r="1" fill="white"/>
  <circle cx="14" cy="1" r="1" fill="white"/>
  <circle cx="15" cy="1" r="1" fill="white"/>
  <circle cx="0" cy="2" r="1" fill="srgba(53.0419%,0%,12.6223%,1)"/>
  <circle cx="1" cy="2" r="1" fill="srgba(58.2315%,12.2866%,23.8117%,1)"/>
  <circle cx="2" cy="2" r="1" fill="srgba(80.8637%,79.6918%,87.0207%,1)"/>
  <circle cx="3" cy="2" r="1" fill="white"/>
  <circle cx="4" cy="2" r="1" fill="white"/>
  <circle cx="5" cy="2" r="1" fill="white"/>
  <circle cx="6" cy="2" r="1" fill="white"/>
  <circle cx="7" cy="2" r="1" fill="white"/>
  <circle cx="8" cy="2" r="1" fill="white"/>
  <circle cx="9" cy="2" r="1" fill="white"/>
  <circle cx="10" cy="2" r="1" fill="white"/>
  <circle cx="11" cy="2" r="1" fill="white"/>
  <circle cx="12" cy="2" r="1" fill="white"/>
  <circle cx="13" cy="2" r="1" fill="white"/>
  <circle cx="14" cy="2" r="1" fill="white"/>
  <circle cx="15" cy="2" r="1" fill="white"/>
  <circle cx="0" cy="3" r="1" fill="srgba(53.9803%,0.129702%,13.0861%,1)"/>
  <circle cx="1" cy="3" r="1" fill="srgba(76.7422%,0%,0.767529%,1)"/>
  <circle cx="2" cy="3" r="1" fill="srgba(55.9915%,28.6351%,42.8901%,1)"/>
  <circle cx="3" cy="3" r="1" fill="srgba(91.9493%,92.5566%,95.7565%,1)"/>
  <circle cx="4" cy="3" r="1" fill="white"/>
  <circle cx="5" cy="3" r="1" fill="white"/>
  <circle cx="6" cy="3" r="1" fill="white"/>
  <circle cx="7" cy="3" r="1" fill="white"/>
  <circle cx="8" cy="3" r="1" fill="white"/>
  <circle cx="9" cy="3" r="1" fill="white"/>
  <circle cx="10" cy="3" r="1" fill="white"/>
  <circle cx="11" cy="3" r="1" fill="white"/>
  <circle cx="12" cy="3" r="1" fill="white"/>
  <circle cx="13" cy="3" r="1" fill="white"/>
  <circle cx="14" cy="3" r="1" fill="white"/>
  <circle cx="15" cy="3" r="1" fill="white"/>
  <circle cx="0" cy="4" r="1" fill="srgba(53.6202%,0.468452%,13.5576%,1)"/>
  <circle cx="1" cy="4" r="1" fill="srgba(82.1881%,0.125124%,0%,1)"/>
  <circle cx="2" cy="4" r="1" fill="srgba(69.8634%,8.29633%,14.3893%,1)"/>
  <circle cx="3" cy="4" r="1" fill="srgba(70.634%,63.5798%,74.3221%,1)"/>
  <circle cx="4" cy="4" r="1" fill="srgba(99.7284%,100%,100%,1)"/>
  <circle cx="5" cy="4" r="1" fill="white"/>
  <circle cx="6" cy="4" r="1" fill="white"/>
  <circle cx="7" cy="4" r="1" fill="white"/>
  <circle cx="8" cy="4" r="1" fill="white"/>
  <circle cx="9" cy="4" r="1" fill="white"/>
  <circle cx="10" cy="4" r="1" fill="white"/>
  <circle cx="11" cy="4" r="1" fill="white"/>
  <circle cx="12" cy="4" r="1" fill="white"/>
  <circle cx="13" cy="4" r="1" fill="white"/>
  <circle cx="14" cy="4" r="1" fill="white"/>
  <circle cx="15" cy="4" r="1" fill="white"/>
  <circle cx="0" cy="5" r="1" fill="srgba(54.4472%,4.63111%,17.7111%,1)"/>
  <circle cx="1" cy="5" r="1" fill="srgba(85.8778%,22.5986%,22.24%,1)"/>
  <circle cx="2" cy="5" r="1" fill="srgba(93.4463%,66.006%,66.0014%,1)"/>
  <circle cx="3" cy="5" r="1" fill="srgba(93.7819%,92.3781%,94.6471%,1)"/>
  <circle cx="4" cy="5" r="1" fill="srgba(96.1578%,96.5835%,98.1048%,1)"/>
  <circle cx="5" cy="5" r="1" fill="srgba(99.9771%,99.9893%,99.9985%,1)"/>
  <circle cx="6" cy="5" r="1" fill="white"/>
  <circle cx="7" cy="5" r="1" fill="white"/>
  <circle cx="8" cy="5" r="1" fill="white"/>
  <circle cx="9" cy="5" r="1" fill="white"/>
  <circle cx="10" cy="5" r="1" fill="white"/>
  <circle cx="11" cy="5" r="1" fill="white"/>
  <circle cx="12" cy="5" r="1" fill="white"/>
  <circle cx="13" cy="5" r="1" fill="white"/>
  <circle cx="14" cy="5" r="1" fill="white"/>
  <circle cx="15" cy="5" r="1" fill="white"/>
  <circle cx="0" cy="6" r="1" fill="srgba(53.6538%,0.488289%,13.5637%,1)"/>
  <circle cx="1" cy="6" r="1" fill="srgba(88.5283%,36.4645%,36.1089%,1)"/>
  <circle cx="2" cy="6" r="1" fill="srgba(98.1781%,90.4601%,90.4479%,1)"/>
  <circle cx="3" cy="6" r="1" fill="srgba(99.9741%,98.3902%,98.1842%,1)"/>
  <circle cx="4" cy="6" r="1" fill="srgba(85.5329%,77.7279%,82.6123%,1)"/>
  <circle cx="5" cy="6" r="1" fill="srgba(90.3761%,89.8451%,93.5286%,1)"/>
  <circle cx="6" cy="6" r="1" fill="white"/>
  <circle cx="7" cy="6" r="1" fill="white"/>
  <circle cx="8" cy="6" r="1" fill="white"/>
  <circle cx="9" cy="6" r="1" fill="white"/>
  <circle cx="10" cy="6" r="1" fill="white"/>
  <circle cx="11" cy="6" r="1" fill="white"/>
  <circle cx="12" cy="6" r="1" fill="white"/>
  <circle cx="13" cy="6" r="1" fill="white"/>
  <circle cx="14" cy="6" r="1" fill="white"/>
  <circle cx="15" cy="6" r="1" fill="white"/>
  <circle cx="0" cy="7" r="1" fill="srgba(53.5348%,0%,13.0282%,1)"/>
  <circle cx="1" cy="7" r="1" fill="srgba(81.9165%,2.47807%,2.12253%,1)"/>
  <circle cx="2" cy="7" r="1" fill="srgba(84.9287%,21.4481%,21.4359%,1)"/>
  <circle cx="3" cy="7" r="1" fill="srgba(86.1601%,29.015%,29.1157%,1)"/>
  <circle cx="4" cy="7" r="1" fill="srgba(67.2953%,9.59335%,16.8643%,1)"/>
  <circle cx="5" cy="7" r="1" fill="srgba(59.3545%,41.5534%,55.6237%,1)"/>
  <circle cx="6" cy="7" r="1" fill="srgba(96.5835%,97.5189%,98.9349%,1)"/>
  <circle cx="7" cy="7" r="1" fill="white"/>
  <circle cx="8" cy="7" r="1" fill="white"/>
  <circle cx="9" cy="7" r="1" fill="white"/>
  <circle cx="10" cy="7" r="1" fill="white"/>
  <circle cx="11" cy="7" r="1" fill="white"/>
  <circle cx="12" cy="7" r="1" fill="white"/>
  <circle cx="13" cy="7" r="1" fill="white"/>
  <circle cx="14" cy="7" r="1" fill="white"/>
  <circle cx="15" cy="7" r="1" fill="white"/>
  <circle cx="0" cy="8" r="1" fill="srgba(53.5912%,0.123598%,13.2067%,1)"/>
  <circle cx="1" cy="8" r="1" fill="srgba(81.4954%,0%,0%,1)"/>
  <circle cx="2" cy="8" r="1" fill="srgba(80.5844%,0%,0%,1)"/>
  <circle cx="3" cy="8" r="1" fill="srgba(80.0748%,0%,0.132753%,1)"/>
  <circle cx="4" cy="8" r="1" fill="srgba(54.5235%,0%,11.8624%,1)"/>
  <circle cx="5" cy="8" r="1" fill="srgba(42.7008%,4.19013%,22.2599%,1)"/>
  <circle cx="6" cy="8" r="1" fill="srgba(70.8186%,64.036%,74.7021%,1)"/>
  <circle cx="7" cy="8" r="1" fill="white"/>
  <circle cx="8" cy="8" r="1" fill="white"/>
  <circle cx="9" cy="8" r="1" fill="white"/>
  <circle cx="10" cy="8" r="1" fill="white"/>
  <circle cx="11" cy="8" r="1" fill="white"/>
  <circle cx="12" cy="8" r="1" fill="white"/>
  <circle cx="13" cy="8" r="1" fill="white"/>
  <circle cx="14" cy="8" r="1" fill="white"/>
  <circle cx="15" cy="8" r="1" fill="white"/>
  <circle cx="0" cy="9" r="1" fill="srgba(53.5912%,0.123598%,13.2067%,1)"/>
  <circle cx="1" cy="9" r="1" fill="srgba(81.5229%,0%,0%,1)"/>
  <circle cx="2" cy="9" r="1" fill="srgba(80.7828%,0%,0%,1)"/>
  <circle cx="3" cy="9" r="1" fill="srgba(81.1002%,0%,0%,1)"/>
  <circle cx="4" cy="9" r="1" fill="srgba(76.643%,0%,2.14084%,1)"/>
  <circle cx="5" cy="9" r="1" fill="srgba(41.8433%,0%,17.5937%,1)"/>
  <circle cx="6" cy="9" r="1" fill="srgba(35.6634%,15.0774%,37.6623%,1)"/>
  <circle cx="7" cy="9" r="1" fill="srgba(84.0986%,82.8458%,88.922%,1)"/>
  <circle cx="8" cy="9" r="1" fill="white"/>
  <circle cx="9" cy="9" r="1" fill="white"/>
  <circle cx="10" cy="9" r="1" fill="white"/>
  <circle cx="11" cy="9" r="1" fill="white"/>
  <circle cx="12" cy="9" r="1" fill="white"/>
  <circle cx="13" cy="9" r="1" fill="white"/>
  <circle cx="14" cy="9" r="1" fill="white"/>
  <circle cx="15" cy="9" r="1" fill="white"/>
  <circle cx="0" cy="10" r="1" fill="srgba(53.5866%,0.11902%,13.2021%,1)"/>
  <circle cx="1" cy="10" r="1" fill="srgba(81.5229%,0%,0%,1)"/>
  <circle cx="2" cy="10" r="1" fill="srgba(206,0,0,1)"/>
  <circle cx="3" cy="10" r="1" fill="srgba(80.7736%,0%,0%,1)"/>
  <circle cx="4" cy="10" r="1" fill="srgba(81.3962%,0%,0%,1)"/>
  <circle cx="5" cy="10" r="1" fill="srgba(73.3761%,0%,3.07012%,1)"/>
  <circle cx="6" cy="10" r="1" fill="srgba(28.9815%,0%,23.2441%,1)"/>
  <circle cx="7" cy="10" r="1" fill="srgba(36.5743%,33.0648%,57.1084%,1)"/>
  <circle cx="8" cy="10" r="1" fill="srgba(94.5312%,94.7387%,96.8978%,1)"/>
  <circle cx="9" cy="10" r="1" fill="white"/>
  <circle cx="10" cy="10" r="1" fill="white"/>
  <circle cx="11" cy="10" r="1" fill="white"/>
  <circle cx="12" cy="10" r="1" fill="white"/>
  <circle cx="13" cy="10" r="1" fill="white"/>
  <circle cx="14" cy="10" r="1" fill="white"/>
  <circle cx="15" cy="10" r="1" fill="white"/>
  <circle cx="0" cy="11" r="1" fill="srgba(53.5821%,0.115969%,13.1991%,1)"/>
  <circle cx="1" cy="11" r="1" fill="srgba(81.5244%,0%,0%,1)"/>
  <circle cx="2" cy="11" r="1" fill="srgba(206,0,0,1)"/>
  <circle cx="3" cy="11" r="1" fill="srgba(80.7385%,0%,0%,1)"/>
  <circle cx="4" cy="11" r="1" fill="srgba(81.4679%,3.83764%,3.84527%,1)"/>
  <circle cx="5" cy="11" r="1" fill="srgba(86.2898%,24.0345%,23.6133%,1)"/>
  <circle cx="6" cy="11" r="1" fill="srgba(69.7292%,4.79438%,10.1137%,1)"/>
  <circle cx="7" cy="11" r="1" fill="srgba(17.995%,1.45724%,30.7607%,1)"/>
  <circle cx="8" cy="11" r="1" fill="srgba(54.0444%,54.9538%,72.7794%,1)"/>
  <circle cx="9" cy="11" r="1" fill="srgba(99.8123%,99.8016%,99.8779%,1)"/>
  <circle cx="10" cy="11" r="1" fill="white"/>
  <circle cx="11" cy="11" r="1" fill="white"/>
  <circle cx="12" cy="11" r="1" fill="white"/>
  <circle cx="13" cy="11" r="1" fill="white"/>
  <circle cx="14" cy="11" r="1" fill="white"/>
  <circle cx="15" cy="11" r="1" fill="white"/>
  <circle cx="0" cy="12" r="1" fill="srgba(53.5836%,0.115969%,13.1991%,1)"/>
  <circle cx="1" cy="12" r="1" fill="srgba(81.5244%,0%,0%,1)"/>
  <circle cx="2" cy="12" r="1" fill="srgba(80.7828%,0%,0%,1)"/>
  <circle cx="3" cy="12" r="1" fill="srgba(80.6638%,0%,0%,1)"/>
  <circle cx="4" cy="12" r="1" fill="srgba(84.7364%,20.5661%,20.5661%,1)"/>
  <circle cx="5" cy="12" r="1" fill="srgba(94.7143%,72.5322%,72.5368%,1)"/>
  <circle cx="6" cy="12" r="1" fill="srgba(89.9062%,42.1424%,41.6526%,1)"/>
  <circle cx="7" cy="12" r="1" fill="srgba(63.7537%,6.98253%,15.8145%,1)"/>
  <circle cx="8" cy="12" r="1" fill="srgba(27.5303%,19.678%,47.0893%,1)"/>
  <circle cx="9" cy="12" r="1" fill="srgba(78.3337%,78.7884%,87.2419%,1)"/>
  <circle cx="10" cy="12" r="1" fill="white"/>
  <circle cx="11" cy="12" r="1" fill="white"/>
  <circle cx="12" cy="12" r="1" fill="white"/>
  <circle cx="13" cy="12" r="1" fill="white"/>
  <circle cx="14" cy="12" r="1" fill="white"/>
  <circle cx="15" cy="12" r="1" fill="white"/>
  <circle cx="0" cy="13" r="1" fill="srgba(53.5866%,0.109865%,13.1899%,1)"/>
  <circle cx="1" cy="13" r="1" fill="srgba(81.5244%,0%,0%,1)"/>
  <circle cx="2" cy="13" r="1" fill="srgba(80.7828%,0%,0%,1)"/>
  <circle cx="3" cy="13" r="1" fill="srgba(80.7782%,0%,0%,1)"/>
  <circle cx="4" cy="13" r="1" fill="srgba(82.3377%,8.0827%,8.0827%,1)"/>
  <circle cx="5" cy="13" r="1" fill="srgba(83.0747%,11.9219%,11.9219%,1)"/>
  <circle cx="6" cy="13" r="1" fill="srgba(82.9786%,11.2886%,11.2764%,1)"/>
  <circle cx="7" cy="13" r="1" fill="srgba(87.6097%,34.6746%,34.5953%,1)"/>
  <circle cx="8" cy="13" r="1" fill="srgba(85.2201%,78.1125%,83.1937%,1)"/>
  <circle cx="9" cy="13" r="1" fill="srgba(88.1392%,88.7785%,93.4432%,1)"/>
  <circle cx="10" cy="13" r="1" fill="srgba(100%,99.9954%,99.9924%,1)"/>
  <circle cx="11" cy="13" r="1" fill="white"/>
  <circle cx="12" cy="13" r="1" fill="white"/>
  <circle cx="13" cy="13" r="1" fill="white"/>
  <circle cx="14" cy="13" r="1" fill="white"/>
  <circle cx="15" cy="13" r="1" fill="white"/>
  <circle cx="0" cy="14" r="1" fill="srgba(54.0764%,0.106813%,13.1731%,1)"/>
  <circle cx="1" cy="14" r="1" fill="srgba(82.2721%,0%,0%,1)"/>
  <circle cx="2" cy="14" r="1" fill="srgba(81.5244%,0%,0%,1)"/>
  <circle cx="3" cy="14" r="1" fill="srgba(81.5244%,0%,0%,1)"/>
  <circle cx="4" cy="14" r="1" fill="srgba(81.4343%,0%,0%,1)"/>
  <circle cx="5" cy="14" r="1" fill="srgba(81.384%,0%,0%,1)"/>
  <circle cx="6" cy="14" r="1" fill="srgba(81.3397%,0%,0%,1)"/>
  <circle cx="7" cy="14" r="1" fill="srgba(82.121%,3.2166%,3.0518%,1)"/>
  <circle cx="8" cy="14" r="1" fill="srgba(91.693%,50.0923%,49.4285%,1)"/>
  <circle cx="9" cy="14" r="1" fill="srgba(99.8138%,97.0474%,96.7315%,1)"/>
  <circle cx="10" cy="14" r="1" fill="white"/>
  <circle cx="11" cy="14" r="1" fill="white"/>
  <circle cx="12" cy="14" r="1" fill="white"/>
  <circle cx="13" cy="14" r="1" fill="white"/>
  <circle cx="14" cy="14" r="1" fill="white"/>
  <circle cx="15" cy="14" r="1" fill="white"/>
  <circle cx="0" cy="15" r="1" fill="srgba(35.6817%,0.239567%,21.9318%,1)"/>
  <circle cx="1" cy="15" r="1" fill="srgba(54.1588%,0.125124%,12.929%,1)"/>
  <circle cx="2" cy="15" r="1" fill="srgba(53.6706%,0.131228%,13.1701%,1)"/>
  <circle cx="3" cy="15" r="1" fill="srgba(53.6706%,0.131228%,13.1701%,1)"/>
  <circle cx="4" cy="15" r="1" fill="srgba(53.6706%,0.131228%,13.1701%,1)"/>
  <circle cx="5" cy="15" r="1" fill="srgba(53.6706%,0.131228%,13.1701%,1)"/>
  <circle cx="6" cy="15" r="1" fill="srgba(53.6736%,0.132753%,13.1853%,1)"/>
  <circle cx="7" cy="15" r="1" fill="srgba(53.5698%,0%,12.6452%,1)"/>
  <circle cx="8" cy="15" r="1" fill="srgba(53.7697%,3.41497%,15.9213%,1)"/>
  <circle cx="9" cy="15" r="1" fill="srgba(71.7098%,55.9625%,65.4871%,1)"/>
  <circle cx="10" cy="15" r="1" fill="srgba(98.8952%,99.5346%,100%,1)"/>
  <circle cx="11" cy="15" r="1" fill="white"/>
  <circle cx="12" cy="15" r="1" fill="white"/>
  <circle cx="13" cy="15" r="1" fill="white"/>
  <circle cx="14" cy="15" r="1" fill="white"/>
  <circle cx="15" cy="15" r="1" fill="white"/>
</svg>
