<?xml version="1.0" standalone="no"?>
<!DOCTYPE svg PUBLIC "-//W3C//DTD SVG 20010904//EN"
  "http://www.w3.org/TR/2001/REC-SVG-20010904/DTD/svg10.dtd">
<svg width="16" height="16">
  <circle cx="0" cy="0" r="1" fill="srgba(0,33,112,1)"/>
  <circle cx="1" cy="0" r="1" fill="srgba(0,33,112,1)"/>
  <circle cx="2" cy="0" r="1" fill="srgba(0,33,112,1)"/>
  <circle cx="3" cy="0" r="1" fill="srgba(0,33,112,1)"/>
  <circle cx="4" cy="0" r="1" fill="srgba(0,33,112,1)"/>
  <circle cx="5" cy="0" r="1" fill="srgba(0,33,112,1)"/>
  <circle cx="6" cy="0" r="1" fill="srgba(0,33,112,1)"/>
  <circle cx="7" cy="0" r="1" fill="srgba(0,33,112,1)"/>
  <circle cx="8" cy="0" r="1" fill="srgba(0,33,112,1)"/>
  <circle cx="9" cy="0" r="1" fill="srgba(0,33,112,1)"/>
  <circle cx="10" cy="0" r="1" fill="srgba(0,33,112,1)"/>
  <circle cx="11" cy="0" r="1" fill="srgba(0,33,112,1)"/>
  <circle cx="12" cy="0" r="1" fill="srgba(0,33,112,1)"/>
  <circle cx="13" cy="0" r="1" fill="srgba(0,33,112,1)"/>
  <circle cx="14" cy="0" r="1" fill="srgba(0%,12.9397%,43.92%,1)"/>
  <circle cx="15" cy="0" r="1" fill="srgba(0.0457771%,12.9793%,43.9445%,1)"/>
  <circle cx="0" cy="1" r="1" fill="srgba(0,33,112,1)"/>
  <circle cx="1" cy="1" r="1" fill="srgba(0,33,112,1)"/>
  <circle cx="2" cy="1" r="1" fill="srgba(0,33,112,1)"/>
  <circle cx="3" cy="1" r="1" fill="srgba(0,33,112,1)"/>
  <circle cx="4" cy="1" r="1" fill="srgba(0,33,112,1)"/>
  <circle cx="5" cy="1" r="1" fill="srgba(0,33,112,1)"/>
  <circle cx="6" cy="1" r="1" fill="srgba(0,33,112,1)"/>
  <circle cx="7" cy="1" r="1" fill="srgba(0,33,112,1)"/>
  <circle cx="8" cy="1" r="1" fill="srgba(0,33,112,1)"/>
  <circle cx="9" cy="1" r="1" fill="srgba(0,33,112,1)"/>
  <circle cx="10" cy="1" r="1" fill="srgba(0,33,112,1)"/>
  <circle cx="11" cy="1" r="1" fill="srgba(0,33,112,1)"/>
  <circle cx="12" cy="1" r="1" fill="srgba(0,33,112,1)"/>
  <circle cx="13" cy="1" r="1" fill="srgba(0,33,112,1)"/>
  <circle cx="14" cy="1" r="1" fill="srgba(0%,12.9397%,43.92%,1)"/>
  <circle cx="15" cy="1" r="1" fill="srgba(0.0457771%,12.9793%,43.9445%,1)"/>
  <circle cx="0" cy="2" r="1" fill="srgba(0,33,112,1)"/>
  <circle cx="1" cy="2" r="1" fill="srgba(0,33,112,1)"/>
  <circle cx="2" cy="2" r="1" fill="srgba(0,33,112,1)"/>
  <circle cx="3" cy="2" r="1" fill="srgba(0,33,112,1)"/>
  <circle cx="4" cy="2" r="1" fill="srgba(0,33,112,1)"/>
  <circle cx="5" cy="2" r="1" fill="srgba(0,33,112,1)"/>
  <circle cx="6" cy="2" r="1" fill="srgba(0,33,112,1)"/>
  <circle cx="7" cy="2" r="1" fill="srgba(0,33,112,1)"/>
  <circle cx="8" cy="2" r="1" fill="srgba(0,33,112,1)"/>
  <circle cx="9" cy="2" r="1" fill="srgba(0,33,112,1)"/>
  <circle cx="10" cy="2" r="1" fill="srgba(0,33,112,1)"/>
  <circle cx="11" cy="2" r="1" fill="srgba(0,33,112,1)"/>
  <circle cx="12" cy="2" r="1" fill="srgba(0,33,112,1)"/>
  <circle cx="13" cy="2" r="1" fill="srgba(0,33,112,1)"/>
  <circle cx="14" cy="2" r="1" fill="srgba(0%,12.9397%,43.92%,1)"/>
  <circle cx="15" cy="2" r="1" fill="srgba(0.0457771%,12.9793%,43.9445%,1)"/>
  <circle cx="0" cy="3" r="1" fill="srgba(0,33,112,1)"/>
  <circle cx="1" cy="3" r="1" fill="srgba(0,33,112,1)"/>
  <circle cx="2" cy="3" r="1" fill="srgba(0,33,112,1)"/>
  <circle cx="3" cy="3" r="1" fill="srgba(0,33,112,1)"/>
  <circle cx="4" cy="3" r="1" fill="srgba(0,33,112,1)"/>
  <circle cx="5" cy="3" r="1" fill="srgba(0,33,112,1)"/>
  <circle cx="6" cy="3" r="1" fill="srgba(0,33,112,1)"/>
  <circle cx="7" cy="3" r="1" fill="srgba(0,33,112,1)"/>
  <circle cx="8" cy="3" r="1" fill="srgba(0,33,112,1)"/>
  <circle cx="9" cy="3" r="1" fill="srgba(0,33,112,1)"/>
  <circle cx="10" cy="3" r="1" fill="srgba(0,33,112,1)"/>
  <circle cx="11" cy="3" r="1" fill="srgba(0,33,112,1)"/>
  <circle cx="12" cy="3" r="1" fill="srgba(0,33,112,1)"/>
  <circle cx="13" cy="3" r="1" fill="srgba(0,33,112,1)"/>
  <circle cx="14" cy="3" r="1" fill="srgba(0%,12.9397%,43.92%,1)"/>
  <circle cx="15" cy="3" r="1" fill="srgba(0.0457771%,12.9793%,43.9445%,1)"/>
  <circle cx="0" cy="4" r="1" fill="srgba(0,33,112,1)"/>
  <circle cx="1" cy="4" r="1" fill="srgba(0,33,112,1)"/>
  <circle cx="2" cy="4" r="1" fill="srgba(0,33,112,1)"/>
  <circle cx="3" cy="4" r="1" fill="srgba(0,33,112,1)"/>
  <circle cx="4" cy="4" r="1" fill="srgba(0,33,112,1)"/>
  <circle cx="5" cy="4" r="1" fill="srgba(0,33,112,1)"/>
  <circle cx="6" cy="4" r="1" fill="srgba(0,33,112,1)"/>
  <circle cx="7" cy="4" r="1" fill="srgba(0,33,112,1)"/>
  <circle cx="8" cy="4" r="1" fill="srgba(0,33,112,1)"/>
  <circle cx="9" cy="4" r="1" fill="srgba(0,33,112,1)"/>
  <circle cx="10" cy="4" r="1" fill="srgba(0,33,112,1)"/>
  <circle cx="11" cy="4" r="1" fill="srgba(0,33,112,1)"/>
  <circle cx="12" cy="4" r="1" fill="srgba(0,33,112,1)"/>
  <circle cx="13" cy="4" r="1" fill="srgba(0,33,112,1)"/>
  <circle cx="14" cy="4" r="1" fill="srgba(0%,12.9397%,43.92%,1)"/>
  <circle cx="15" cy="4" r="1" fill="srgba(0.0457771%,12.9793%,43.9445%,1)"/>
  <circle cx="0" cy="5" r="1" fill="srgba(0%,12.9076%,43.9445%,1)"/>
  <circle cx="1" cy="5" r="1" fill="srgba(0%,12.9076%,43.9445%,1)"/>
  <circle cx="2" cy="5" r="1" fill="srgba(0%,12.9076%,43.9445%,1)"/>
  <circle cx="3" cy="5" r="1" fill="srgba(0%,12.9076%,43.9445%,1)"/>
  <circle cx="4" cy="5" r="1" fill="srgba(0%,12.9076%,43.9445%,1)"/>
  <circle cx="5" cy="5" r="1" fill="srgba(0%,12.9076%,43.9445%,1)"/>
  <circle cx="6" cy="5" r="1" fill="srgba(0%,12.9076%,43.9445%,1)"/>
  <circle cx="7" cy="5" r="1" fill="srgba(0%,12.9076%,43.9445%,1)"/>
  <circle cx="8" cy="5" r="1" fill="srgba(0%,12.9076%,43.9445%,1)"/>
  <circle cx="9" cy="5" r="1" fill="srgba(0%,12.9076%,43.9445%,1)"/>
  <circle cx="10" cy="5" r="1" fill="srgba(0%,12.9076%,43.9445%,1)"/>
  <circle cx="11" cy="5" r="1" fill="srgba(0%,12.9076%,43.9445%,1)"/>
  <circle cx="12" cy="5" r="1" fill="srgba(0%,12.9076%,43.9445%,1)"/>
  <circle cx="13" cy="5" r="1" fill="srgba(0%,12.9076%,43.9445%,1)"/>
  <circle cx="14" cy="5" r="1" fill="srgba(0%,12.9061%,43.9429%,1)"/>
  <circle cx="15" cy="5" r="1" fill="srgba(0.0457771%,12.9458%,43.9673%,1)"/>
  <circle cx="0" cy="6" r="1" fill="srgba(0.784314%,13.3867%,43.6164%,1)"/>
  <circle cx="1" cy="6" r="1" fill="srgba(0.784314%,13.3867%,43.6164%,1)"/>
  <circle cx="2" cy="6" r="1" fill="srgba(0.784314%,13.3867%,43.6164%,1)"/>
  <circle cx="3" cy="6" r="1" fill="srgba(0.784314%,13.3867%,43.6164%,1)"/>
  <circle cx="4" cy="6" r="1" fill="srgba(0.784314%,13.3867%,43.6164%,1)"/>
  <circle cx="5" cy="6" r="1" fill="srgba(0.784314%,13.3867%,43.6164%,1)"/>
  <circle cx="6" cy="6" r="1" fill="srgba(0.784314%,13.3867%,43.6164%,1)"/>
  <circle cx="7" cy="6" r="1" fill="srgba(0.784314%,13.3867%,43.6164%,1)"/>
  <circle cx="8" cy="6" r="1" fill="srgba(0.784314%,13.3867%,43.6164%,1)"/>
  <circle cx="9" cy="6" r="1" fill="srgba(0.784314%,13.3867%,43.6164%,1)"/>
  <circle cx="10" cy="6" r="1" fill="srgba(0.784314%,13.3867%,43.6164%,1)"/>
  <circle cx="11" cy="6" r="1" fill="srgba(0.784314%,13.3867%,43.6164%,1)"/>
  <circle cx="12" cy="6" r="1" fill="srgba(0.784314%,13.3867%,43.6164%,1)"/>
  <circle cx="13" cy="6" r="1" fill="srgba(0.784314%,13.3867%,43.6164%,1)"/>
  <circle cx="14" cy="6" r="1" fill="srgba(0.781262%,13.3852%,43.6149%,1)"/>
  <circle cx="15" cy="6" r="1" fill="srgba(0.830091%,13.4249%,43.6393%,1)"/>
  <circle cx="0" cy="7" r="1" fill="srgba(67.8187%,51.5007%,17.586%,1)"/>
  <circle cx="1" cy="7" r="1" fill="srgba(67.808%,51.4916%,17.5799%,1)"/>
  <circle cx="2" cy="7" r="1" fill="srgba(67.747%,51.4382%,17.5448%,1)"/>
  <circle cx="3" cy="7" r="1" fill="srgba(67.5395%,51.2581%,17.4289%,1)"/>
  <circle cx="4" cy="7" r="1" fill="srgba(67.7012%,51.4%,17.5204%,1)"/>
  <circle cx="5" cy="7" r="1" fill="srgba(67.7852%,51.4717%,17.5662%,1)"/>
  <circle cx="6" cy="7" r="1" fill="srgba(67.8218%,51.5023%,17.5875%,1)"/>
  <circle cx="7" cy="7" r="1" fill="srgba(67.8187%,51.5007%,17.586%,1)"/>
  <circle cx="8" cy="7" r="1" fill="srgba(67.8187%,51.5007%,17.586%,1)"/>
  <circle cx="9" cy="7" r="1" fill="srgba(67.8187%,51.5007%,17.586%,1)"/>
  <circle cx="10" cy="7" r="1" fill="srgba(67.8187%,51.5007%,17.586%,1)"/>
  <circle cx="11" cy="7" r="1" fill="srgba(67.8187%,51.5007%,17.586%,1)"/>
  <circle cx="12" cy="7" r="1" fill="srgba(67.8187%,51.5007%,17.586%,1)"/>
  <circle cx="13" cy="7" r="1" fill="srgba(67.8187%,51.5007%,17.586%,1)"/>
  <circle cx="14" cy="7" r="1" fill="srgba(67.8202%,51.5007%,17.5845%,1)"/>
  <circle cx="15" cy="7" r="1" fill="srgba(67.8019%,51.4977%,17.6089%,1)"/>
  <circle cx="0" cy="8" r="1" fill="srgba(67.6326%,51.3893%,17.6516%,1)"/>
  <circle cx="1" cy="8" r="1" fill="srgba(67.6631%,51.4153%,17.6699%,1)"/>
  <circle cx="2" cy="8" r="1" fill="srgba(68.4306%,52.0851%,18.1018%,1)"/>
  <circle cx="3" cy="8" r="1" fill="srgba(71.519%,54.8409%,19.9512%,1)"/>
  <circle cx="4" cy="8" r="1" fill="srgba(68.9662%,52.5597%,18.4176%,1)"/>
  <circle cx="5" cy="8" r="1" fill="srgba(67.9606%,51.6747%,17.8363%,1)"/>
  <circle cx="6" cy="8" r="1" fill="srgba(67.5624%,51.3268%,17.612%,1)"/>
  <circle cx="7" cy="8" r="1" fill="srgba(67.6448%,51.4%,17.6593%,1)"/>
  <circle cx="8" cy="8" r="1" fill="srgba(67.6432%,51.3985%,17.6577%,1)"/>
  <circle cx="9" cy="8" r="1" fill="srgba(67.6432%,51.3985%,17.6577%,1)"/>
  <circle cx="10" cy="8" r="1" fill="srgba(67.6432%,51.3985%,17.6577%,1)"/>
  <circle cx="11" cy="8" r="1" fill="srgba(67.6432%,51.3985%,17.6577%,1)"/>
  <circle cx="12" cy="8" r="1" fill="srgba(67.6432%,51.3985%,17.6577%,1)"/>
  <circle cx="13" cy="8" r="1" fill="srgba(67.6432%,51.3985%,17.6577%,1)"/>
  <circle cx="14" cy="8" r="1" fill="srgba(67.6448%,51.3985%,17.6562%,1)"/>
  <circle cx="15" cy="8" r="1" fill="srgba(67.6265%,51.3954%,17.6806%,1)"/>
  <circle cx="0" cy="9" r="1" fill="srgba(0.747692%,13.3654%,43.6316%,1)"/>
  <circle cx="1" cy="9" r="1" fill="srgba(4.26337%,16.4263%,45.6046%,1)"/>
  <circle cx="2" cy="9" r="1" fill="srgba(28.6397%,37.6501%,59.2706%,1)"/>
  <circle cx="3" cy="9" r="1" fill="srgba(49.3217%,55.6588%,70.8904%,1)"/>
  <circle cx="4" cy="9" r="1" fill="srgba(37.3602%,45.2399%,64.1657%,1)"/>
  <circle cx="5" cy="9" r="1" fill="srgba(9.16609%,20.6928%,48.3528%,1)"/>
  <circle cx="6" cy="9" r="1" fill="srgba(1.11086%,13.6812%,43.8361%,1)"/>
  <circle cx="7" cy="9" r="1" fill="srgba(0.715648%,13.3364%,43.6149%,1)"/>
  <circle cx="8" cy="9" r="1" fill="srgba(0.746166%,13.3639%,43.6316%,1)"/>
  <circle cx="9" cy="9" r="1" fill="srgba(0.746166%,13.3639%,43.6316%,1)"/>
  <circle cx="10" cy="9" r="1" fill="srgba(0.746166%,13.3639%,43.6316%,1)"/>
  <circle cx="11" cy="9" r="1" fill="srgba(0.746166%,13.3639%,43.6316%,1)"/>
  <circle cx="12" cy="9" r="1" fill="srgba(0.746166%,13.3639%,43.6316%,1)"/>
  <circle cx="13" cy="9" r="1" fill="srgba(0.746166%,13.3639%,43.6316%,1)"/>
  <circle cx="14" cy="9" r="1" fill="srgba(0.743114%,13.3623%,43.6301%,1)"/>
  <circle cx="15" cy="9" r="1" fill="srgba(0.791943%,13.402%,43.6545%,1)"/>
  <circle cx="0" cy="10" r="1" fill="srgba(0%,12.5017%,43.682%,1)"/>
  <circle cx="1" cy="10" r="1" fill="srgba(20.1297%,30.4784%,55.2621%,1)"/>
  <circle cx="2" cy="10" r="1" fill="srgba(75.5154%,78.6984%,86.3142%,1)"/>
  <circle cx="3" cy="10" r="1" fill="srgba(98.0591%,98.3185%,98.938%,1)"/>
  <circle cx="4" cy="10" r="1" fill="srgba(87.5746%,89.1951%,93.0709%,1)"/>
  <circle cx="5" cy="10" r="1" fill="srgba(36.3653%,44.6174%,64.3702%,1)"/>
  <circle cx="6" cy="10" r="1" fill="srgba(1.27718%,14.0414%,44.6738%,1)"/>
  <circle cx="7" cy="10" r="1" fill="srgba(0%,12.8099%,43.8804%,1)"/>
  <circle cx="8" cy="10" r="1" fill="srgba(0%,12.9091%,43.9445%,1)"/>
  <circle cx="9" cy="10" r="1" fill="srgba(0%,12.9091%,43.9445%,1)"/>
  <circle cx="10" cy="10" r="1" fill="srgba(0%,12.9091%,43.9445%,1)"/>
  <circle cx="11" cy="10" r="1" fill="srgba(0%,12.9091%,43.9445%,1)"/>
  <circle cx="12" cy="10" r="1" fill="srgba(0%,12.9091%,43.9445%,1)"/>
  <circle cx="13" cy="10" r="1" fill="srgba(0%,12.9091%,43.9445%,1)"/>
  <circle cx="14" cy="10" r="1" fill="srgba(0%,12.9076%,43.9429%,1)"/>
  <circle cx="15" cy="10" r="1" fill="srgba(0.0457771%,12.9473%,43.9673%,1)"/>
  <circle cx="0" cy="11" r="1" fill="srgba(0.660716%,13.5164%,44.2924%,1)"/>
  <circle cx="1" cy="11" r="1" fill="srgba(28.5298%,37.7783%,59.9207%,1)"/>
  <circle cx="2" cy="11" r="1" fill="srgba(88.9006%,90.338%,93.7758%,1)"/>
  <circle cx="3" cy="11" r="1" fill="white"/>
  <circle cx="4" cy="11" r="1" fill="srgba(97.7554%,98.0453%,98.7411%,1)"/>
  <circle cx="5" cy="11" r="1" fill="srgba(48.2063%,54.9096%,70.9545%,1)"/>
  <circle cx="6" cy="11" r="1" fill="srgba(3.81628%,16.2646%,46.0624%,1)"/>
  <circle cx="7" cy="11" r="1" fill="srgba(0%,12.7077%,43.7705%,1)"/>
  <circle cx="8" cy="11" r="1" fill="srgba(0,33,112,1)"/>
  <circle cx="9" cy="11" r="1" fill="srgba(0,33,112,1)"/>
  <circle cx="10" cy="11" r="1" fill="srgba(0,33,112,1)"/>
  <circle cx="11" cy="11" r="1" fill="srgba(0,33,112,1)"/>
  <circle cx="12" cy="11" r="1" fill="srgba(0,33,112,1)"/>
  <circle cx="13" cy="11" r="1" fill="srgba(0,33,112,1)"/>
  <circle cx="14" cy="11" r="1" fill="srgba(0%,12.9397%,43.92%,1)"/>
  <circle cx="15" cy="11" r="1" fill="srgba(0.0457771%,12.9793%,43.9445%,1)"/>
  <circle cx="0" cy="12" r="1" fill="srgba(0%,12.4712%,43.6179%,1)"/>
  <circle cx="1" cy="12" r="1" fill="srgba(14.8836%,25.8991%,52.2683%,1)"/>
  <circle cx="2" cy="12" r="1" fill="srgba(62.2049%,67.097%,78.8067%,1)"/>
  <circle cx="3" cy="12" r="1" fill="srgba(89.0181%,90.4402%,93.8415%,1)"/>
  <circle cx="4" cy="12" r="1" fill="srgba(75.3277%,78.5229%,86.1662%,1)"/>
  <circle cx="5" cy="12" r="1" fill="srgba(27.3594%,36.7498%,59.2554%,1)"/>
  <circle cx="6" cy="12" r="1" fill="srgba(0.978103%,13.7697%,44.4556%,1)"/>
  <circle cx="7" cy="12" r="1" fill="srgba(0%,12.8695%,43.8758%,1)"/>
  <circle cx="8" cy="12" r="1" fill="srgba(0,33,112,1)"/>
  <circle cx="9" cy="12" r="1" fill="srgba(0,33,112,1)"/>
  <circle cx="10" cy="12" r="1" fill="srgba(0,33,112,1)"/>
  <circle cx="11" cy="12" r="1" fill="srgba(0,33,112,1)"/>
  <circle cx="12" cy="12" r="1" fill="srgba(0,33,112,1)"/>
  <circle cx="13" cy="12" r="1" fill="srgba(0,33,112,1)"/>
  <circle cx="14" cy="12" r="1" fill="srgba(0%,12.9397%,43.92%,1)"/>
  <circle cx="15" cy="12" r="1" fill="srgba(0.0457771%,12.9793%,43.9445%,1)"/>
  <circle cx="0" cy="13" r="1" fill="srgba(0.0198367%,12.9656%,43.9368%,1)"/>
  <circle cx="1" cy="13" r="1" fill="srgba(0.813306%,13.5592%,44.3198%,1)"/>
  <circle cx="2" cy="13" r="1" fill="srgba(15.256%,26.0136%,52.343%,1)"/>
  <circle cx="3" cy="13" r="1" fill="srgba(28.4565%,37.7295%,59.8886%,1)"/>
  <circle cx="4" cy="13" r="1" fill="srgba(19.9924%,30.2464%,55.0713%,1)"/>
  <circle cx="5" cy="13" r="1" fill="srgba(3.91852%,16.1105%,45.9632%,1)"/>
  <circle cx="6" cy="13" r="1" fill="srgba(0%,12.8634%,43.8712%,1)"/>
  <circle cx="7" cy="13" r="1" fill="srgba(0%,12.9351%,43.917%,1)"/>
  <circle cx="8" cy="13" r="1" fill="srgba(0,33,112,1)"/>
  <circle cx="9" cy="13" r="1" fill="srgba(0,33,112,1)"/>
  <circle cx="10" cy="13" r="1" fill="srgba(0,33,112,1)"/>
  <circle cx="11" cy="13" r="1" fill="srgba(0,33,112,1)"/>
  <circle cx="12" cy="13" r="1" fill="srgba(0,33,112,1)"/>
  <circle cx="13" cy="13" r="1" fill="srgba(0,33,112,1)"/>
  <circle cx="14" cy="13" r="1" fill="srgba(0%,12.9397%,43.92%,1)"/>
  <circle cx="15" cy="13" r="1" fill="srgba(0.0457771%,12.9793%,43.9445%,1)"/>
  <circle cx="0" cy="14" r="1" fill="srgba(0%,12.9335%,43.9155%,1)"/>
  <circle cx="1" cy="14" r="1" fill="srgba(0.0228885%,12.9519%,43.9277%,1)"/>
  <circle cx="2" cy="14" r="1" fill="srgba(0.149538%,12.575%,43.6851%,1)"/>
  <circle cx="3" cy="14" r="1" fill="srgba(1.12306%,13.3593%,44.1917%,1)"/>
  <circle cx="4" cy="14" r="1" fill="srgba(0.34638%,12.6085%,43.7079%,1)"/>
  <circle cx="5" cy="14" r="1" fill="srgba(0.0534066%,12.8923%,43.8895%,1)"/>
  <circle cx="6" cy="14" r="1" fill="srgba(0%,12.9335%,43.917%,1)"/>
  <circle cx="7" cy="14" r="1" fill="srgba(0%,12.9351%,43.917%,1)"/>
  <circle cx="8" cy="14" r="1" fill="srgba(0%,12.9351%,43.917%,1)"/>
  <circle cx="9" cy="14" r="1" fill="srgba(0%,12.9351%,43.917%,1)"/>
  <circle cx="10" cy="14" r="1" fill="srgba(0%,12.9351%,43.917%,1)"/>
  <circle cx="11" cy="14" r="1" fill="srgba(0%,12.9351%,43.917%,1)"/>
  <circle cx="12" cy="14" r="1" fill="srgba(0%,12.9351%,43.917%,1)"/>
  <circle cx="13" cy="14" r="1" fill="srgba(0%,12.9351%,43.917%,1)"/>
  <circle cx="14" cy="14" r="1" fill="srgba(0%,12.9335%,43.9155%,1)"/>
  <circle cx="15" cy="14" r="1" fill="srgba(0.0457771%,12.9732%,43.9399%,1)"/>
  <circle cx="0" cy="15" r="1" fill="srgba(0.131228%,13.0571%,43.9979%,1)"/>
  <circle cx="1" cy="15" r="1" fill="srgba(0.131228%,13.0571%,43.9979%,1)"/>
  <circle cx="2" cy="15" r="1" fill="srgba(0.12665%,13.0541%,43.9963%,1)"/>
  <circle cx="3" cy="15" r="1" fill="srgba(0.109865%,12.9839%,43.9506%,1)"/>
  <circle cx="4" cy="15" r="1" fill="srgba(0.125124%,13.0388%,43.9857%,1)"/>
  <circle cx="5" cy="15" r="1" fill="srgba(0.129702%,13.0571%,43.9979%,1)"/>
  <circle cx="6" cy="15" r="1" fill="srgba(0.131228%,13.0571%,43.9979%,1)"/>
  <circle cx="7" cy="15" r="1" fill="srgba(0.131228%,13.0571%,43.9979%,1)"/>
  <circle cx="8" cy="15" r="1" fill="srgba(0.131228%,13.0571%,43.9979%,1)"/>
  <circle cx="9" cy="15" r="1" fill="srgba(0.131228%,13.0571%,43.9979%,1)"/>
  <circle cx="10" cy="15" r="1" fill="srgba(0.131228%,13.0571%,43.9979%,1)"/>
  <circle cx="11" cy="15" r="1" fill="srgba(0.131228%,13.0571%,43.9979%,1)"/>
  <circle cx="12" cy="15" r="1" fill="srgba(0.131228%,13.0571%,43.9979%,1)"/>
  <circle cx="13" cy="15" r="1" fill="srgba(0.131228%,13.0571%,43.9979%,1)"/>
  <circle cx="14" cy="15" r="1" fill="srgba(0.128176%,13.0556%,43.9963%,1)"/>
  <circle cx="15" cy="15" r="1" fill="srgba(0.177005%,13.0953%,44.0208%,1)"/>
</svg>
