<?xml version="1.0" standalone="no"?>
<!DOCTYPE svg PUBLIC "-//W3C//DTD SVG 20010904//EN"
  "http://www.w3.org/TR/2001/REC-SVG-20010904/DTD/svg10.dtd">
<svg width="16" height="16">
  <circle cx="0" cy="0" r="1" fill="srgba(83.3326%,39.5026%,41.7868%,1)"/>
  <circle cx="1" cy="0" r="1" fill="srgba(91.2856%,64.4099%,65.2079%,1)"/>
  <circle cx="2" cy="0" r="1" fill="srgba(61.5473%,56.6705%,71.5633%,1)"/>
  <circle cx="3" cy="0" r="1" fill="srgba(18.233%,19.4629%,52.3033%,1)"/>
  <circle cx="4" cy="0" r="1" fill="srgba(0.575265%,0.819409%,40.0427%,1)"/>
  <circle cx="5" cy="0" r="1" fill="srgba(1.05287%,1.86618%,40.9644%,1)"/>
  <circle cx="6" cy="0" r="1" fill="srgba(63.3982%,50.5074%,63.8621%,1)"/>
  <circle cx="7" cy="0" r="1" fill="srgba(83.3936%,10.1289%,9.07912%,1)"/>
  <circle cx="8" cy="0" r="1" fill="srgba(82.1088%,9.10811%,8.66102%,1)"/>
  <circle cx="9" cy="0" r="1" fill="srgba(85.5848%,73.0953%,77.6257%,1)"/>
  <circle cx="10" cy="0" r="1" fill="srgba(95.7656%,96.5682%,98.3413%,1)"/>
  <circle cx="11" cy="0" r="1" fill="white"/>
  <circle cx="12" cy="0" r="1" fill="white"/>
  <circle cx="13" cy="0" r="1" fill="white"/>
  <circle cx="14" cy="0" r="1" fill="srgba(99.0692%,99.0692%,99.4415%,1)"/>
  <circle cx="15" cy="0" r="1" fill="srgba(85.8656%,85.8656%,91.519%,1)"/>
  <circle cx="0" cy="1" r="1" fill="srgba(22.71%,15.0317%,45.1804%,1)"/>
  <circle cx="1" cy="1" r="1" fill="srgba(54.0658%,26.1906%,41.7762%,1)"/>
  <circle cx="2" cy="1" r="1" fill="srgba(81.9821%,42.2431%,45.478%,1)"/>
  <circle cx="3" cy="1" r="1" fill="srgba(80.9461%,56.9238%,62.1424%,1)"/>
  <circle cx="4" cy="1" r="1" fill="srgba(49.3324%,44.6921%,64.4938%,1)"/>
  <circle cx="5" cy="1" r="1" fill="srgba(14.5144%,15.6924%,50.0038%,1)"/>
  <circle cx="6" cy="1" r="1" fill="srgba(63.6133%,50.2754%,64.1291%,1)"/>
  <circle cx="7" cy="1" r="1" fill="srgba(86.7689%,21.2696%,9.38582%,1)"/>
  <circle cx="8" cy="1" r="1" fill="srgba(86.6041%,22.5147%,9.46365%,1)"/>
  <circle cx="9" cy="1" r="1" fill="srgba(71.9341%,59.173%,69.6605%,1)"/>
  <circle cx="10" cy="1" r="1" fill="srgba(84.181%,85.3407%,91.7464%,1)"/>
  <circle cx="11" cy="1" r="1" fill="white"/>
  <circle cx="12" cy="1" r="1" fill="srgba(99.3988%,99.3988%,99.6384%,1)"/>
  <circle cx="13" cy="1" r="1" fill="srgba(84.7456%,84.7456%,90.8476%,1)"/>
  <circle cx="14" cy="1" r="1" fill="srgba(47.8981%,47.8981%,68.7388%,1)"/>
  <circle cx="15" cy="1" r="1" fill="srgba(15.024%,15.024%,49.012%,1)"/>
  <circle cx="0" cy="2" r="1" fill="srgba(41.3138%,36.1776%,59.1379%,1)"/>
  <circle cx="1" cy="2" r="1" fill="srgba(43.1861%,38.3993%,60.6424%,1)"/>
  <circle cx="2" cy="2" r="1" fill="srgba(62.3606%,48.6702%,62.4323%,1)"/>
  <circle cx="3" cy="2" r="1" fill="srgba(87.5853%,52.2637%,53.9757%,1)"/>
  <circle cx="4" cy="2" r="1" fill="srgba(93.4371%,63.6149%,63.2624%,1)"/>
  <circle cx="5" cy="2" r="1" fill="srgba(83.7507%,76.3561%,82.1149%,1)"/>
  <circle cx="6" cy="2" r="1" fill="srgba(82.9511%,66.8635%,72.2118%,1)"/>
  <circle cx="7" cy="2" r="1" fill="srgba(62.5162%,10.5974%,18.027%,1)"/>
  <circle cx="8" cy="2" r="1" fill="srgba(63.2197%,12.6986%,19.1882%,1)"/>
  <circle cx="9" cy="2" r="1" fill="srgba(75.3719%,52.3919%,59.9557%,1)"/>
  <circle cx="10" cy="2" r="1" fill="srgba(76.5606%,42.8229%,48.6824%,1)"/>
  <circle cx="11" cy="2" r="1" fill="srgba(97.5265%,83.9521%,83.5981%,1)"/>
  <circle cx="12" cy="2" r="1" fill="srgba(58.6709%,56.7864%,73.4081%,1)"/>
  <circle cx="13" cy="2" r="1" fill="srgba(11.6503%,11.7571%,47.1687%,1)"/>
  <circle cx="14" cy="2" r="1" fill="srgba(0.215152%,0.215152%,39.4919%,1)"/>
  <circle cx="15" cy="2" r="1" fill="srgba(0%,0%,39.4476%,1)"/>
  <circle cx="0" cy="3" r="1" fill="srgba(84.3183%,18.088%,17.7356%,1)"/>
  <circle cx="1" cy="3" r="1" fill="srgba(84.0116%,17.6898%,17.525%,1)"/>
  <circle cx="2" cy="3" r="1" fill="srgba(83.2868%,18.6526%,17.4945%,1)"/>
  <circle cx="3" cy="3" r="1" fill="srgba(84.4236%,23.2624%,18.3108%,1)"/>
  <circle cx="4" cy="3" r="1" fill="srgba(83.3768%,16.6918%,16.5576%,1)"/>
  <circle cx="5" cy="3" r="1" fill="srgba(85.3086%,17.8653%,17.0291%,1)"/>
  <circle cx="6" cy="3" r="1" fill="srgba(62.7237%,15.3765%,25.2842%,1)"/>
  <circle cx="7" cy="3" r="1" fill="srgba(10.2968%,5.8854%,37.3922%,1)"/>
  <circle cx="8" cy="3" r="1" fill="srgba(8.35584%,4.55787%,38.4543%,1)"/>
  <circle cx="9" cy="3" r="1" fill="srgba(60.7233%,10.4784%,21.4435%,1)"/>
  <circle cx="10" cy="3" r="1" fill="srgba(81.3626%,1.45724%,0.90486%,1)"/>
  <circle cx="11" cy="3" r="1" fill="srgba(83.3234%,13.0449%,12.5505%,1)"/>
  <circle cx="12" cy="3" r="1" fill="srgba(43.122%,10.4631%,24.8325%,1)"/>
  <circle cx="13" cy="3" r="1" fill="srgba(0%,0.619516%,39.173%,1)"/>
  <circle cx="14" cy="3" r="1" fill="srgba(0%,0%,40.0198%,1)"/>
  <circle cx="15" cy="3" r="1" fill="srgba(0.0244144%,0.0122072%,39.9969%,1)"/>
  <circle cx="0" cy="4" r="1" fill="srgba(84.2069%,18.5519%,18.3017%,1)"/>
  <circle cx="1" cy="4" r="1" fill="srgba(83.9857%,18.1262%,18.1552%,1)"/>
  <circle cx="2" cy="4" r="1" fill="srgba(83.949%,21.6114%,17.8134%,1)"/>
  <circle cx="3" cy="4" r="1" fill="srgba(87.2663%,36.231%,18.7701%,1)"/>
  <circle cx="4" cy="4" r="1" fill="srgba(83.743%,18.6618%,18.0911%,1)"/>
  <circle cx="5" cy="4" r="1" fill="srgba(84.7807%,18.23%,17.7035%,1)"/>
  <circle cx="6" cy="4" r="1" fill="srgba(59.968%,14.7478%,26.5843%,1)"/>
  <circle cx="7" cy="4" r="1" fill="srgba(43.6255%,39.7787%,26.0304%,1)"/>
  <circle cx="8" cy="4" r="1" fill="srgba(47.1015%,43.8331%,25.2064%,1)"/>
  <circle cx="9" cy="4" r="1" fill="srgba(60.7599%,12.604%,22.0676%,1)"/>
  <circle cx="10" cy="4" r="1" fill="srgba(81.1673%,0.657664%,0.277714%,1)"/>
  <circle cx="11" cy="4" r="1" fill="srgba(81.4496%,3.15557%,2.56352%,1)"/>
  <circle cx="12" cy="4" r="1" fill="srgba(70.8888%,32.491%,23.5477%,1)"/>
  <circle cx="13" cy="4" r="1" fill="srgba(7.56237%,7.37011%,39.1211%,1)"/>
  <circle cx="14" cy="4" r="1" fill="srgba(0%,0%,40.0671%,1)"/>
  <circle cx="15" cy="4" r="1" fill="srgba(0.0244144%,0.0122072%,39.9969%,1)"/>
  <circle cx="0" cy="5" r="1" fill="srgba(38.9258%,33.6431%,57.5433%,1)"/>
  <circle cx="1" cy="5" r="1" fill="srgba(43.1388%,37.8729%,60.087%,1)"/>
  <circle cx="2" cy="5" r="1" fill="srgba(68.9433%,63.8529%,75.7961%,1)"/>
  <circle cx="3" cy="5" r="1" fill="srgba(96.5911%,91.5908%,92.282%,1)"/>
  <circle cx="4" cy="5" r="1" fill="srgba(98.2803%,90.7866%,90.7012%,1)"/>
  <circle cx="5" cy="5" r="1" fill="srgba(98.2086%,90.2998%,90.2281%,1)"/>
  <circle cx="6" cy="5" r="1" fill="srgba(93.0953%,77.9049%,79.4369%,1)"/>
  <circle cx="7" cy="5" r="1" fill="srgba(72.6177%,22.5849%,14.3755%,1)"/>
  <circle cx="8" cy="5" r="1" fill="srgba(78.8449%,34.6319%,14.6975%,1)"/>
  <circle cx="9" cy="5" r="1" fill="srgba(89.3126%,57.9171%,58.6252%,1)"/>
  <circle cx="10" cy="5" r="1" fill="srgba(81.1017%,4.8188%,4.77607%,1)"/>
  <circle cx="11" cy="5" r="1" fill="srgba(81.6251%,5.34981%,5.09651%,1)"/>
  <circle cx="12" cy="5" r="1" fill="srgba(79.382%,40.2808%,44.4266%,1)"/>
  <circle cx="13" cy="5" r="1" fill="srgba(13.3257%,8.78157%,42.565%,1)"/>
  <circle cx="14" cy="5" r="1" fill="srgba(0%,0%,39.8505%,1)"/>
  <circle cx="15" cy="5" r="1" fill="srgba(0.030518%,0.0289921%,40.0137%,1)"/>
  <circle cx="0" cy="6" r="1" fill="srgba(24.7684%,25.7496%,56.6003%,1)"/>
  <circle cx="1" cy="6" r="1" fill="srgba(62.9892%,63.09%,78.5641%,1)"/>
  <circle cx="2" cy="6" r="1" fill="srgba(92.4102%,89.0242%,92.3812%,1)"/>
  <circle cx="3" cy="6" r="1" fill="srgba(99.2981%,96.4187%,97.0108%,1)"/>
  <circle cx="4" cy="6" r="1" fill="srgba(98.1369%,90.7576%,91.4214%,1)"/>
  <circle cx="5" cy="6" r="1" fill="srgba(99.4812%,97.5265%,97.9706%,1)"/>
  <circle cx="6" cy="6" r="1" fill="srgba(96.8597%,83.714%,84.0391%,1)"/>
  <circle cx="7" cy="6" r="1" fill="srgba(83.2563%,14.0566%,8.336%,1)"/>
  <circle cx="8" cy="6" r="1" fill="srgba(83.7125%,16.4584%,10.132%,1)"/>
  <circle cx="9" cy="6" r="1" fill="srgba(92.3247%,61.236%,61.529%,1)"/>
  <circle cx="10" cy="6" r="1" fill="srgba(80.9552%,5.54818%,5.55581%,1)"/>
  <circle cx="11" cy="6" r="1" fill="srgba(79.7848%,0%,0%,1)"/>
  <circle cx="12" cy="6" r="1" fill="srgba(85.4307%,33.8735%,34.963%,1)"/>
  <circle cx="13" cy="6" r="1" fill="srgba(30.7637%,22.0005%,49.2866%,1)"/>
  <circle cx="14" cy="6" r="1" fill="srgba(0%,0%,40.0061%,1)"/>
  <circle cx="15" cy="6" r="1" fill="srgba(0.015259%,0.0183108%,40.3311%,1)"/>
  <circle cx="0" cy="7" r="1" fill="srgba(92.2515%,79.6277%,71.2856%,1)"/>
  <circle cx="1" cy="7" r="1" fill="srgba(95.5886%,71.2245%,60.3754%,1)"/>
  <circle cx="2" cy="7" r="1" fill="srgba(97.0764%,82.0325%,71.5206%,1)"/>
  <circle cx="3" cy="7" r="1" fill="srgba(99.5041%,95.7427%,85.388%,1)"/>
  <circle cx="4" cy="7" r="1" fill="srgba(99.9771%,98.2315%,87.8737%,1)"/>
  <circle cx="5" cy="7" r="1" fill="srgba(100%,99.2905%,88.9326%,1)"/>
  <circle cx="6" cy="7" r="1" fill="srgba(97.0977%,83.6728%,73.7316%,1)"/>
  <circle cx="7" cy="7" r="1" fill="srgba(85.6504%,26.0533%,7.87976%,1)"/>
  <circle cx="8" cy="7" r="1" fill="srgba(86.3233%,29.337%,9.52926%,1)"/>
  <circle cx="9" cy="7" r="1" fill="srgba(93.1624%,64.0208%,54.0856%,1)"/>
  <circle cx="10" cy="7" r="1" fill="srgba(83.4073%,15.2377%,4.87831%,1)"/>
  <circle cx="11" cy="7" r="1" fill="srgba(82.1103%,8.72663%,0%,1)"/>
  <circle cx="12" cy="7" r="1" fill="srgba(89.5079%,41.0513%,30.2098%,1)"/>
  <circle cx="13" cy="7" r="1" fill="srgba(58.912%,56.2402%,62.1271%,1)"/>
  <circle cx="14" cy="7" r="1" fill="srgba(11.4336%,9.6849%,34.7631%,1)"/>
  <circle cx="15" cy="7" r="1" fill="srgba(12.1874%,10.3639%,35.1278%,1)"/>
  <circle cx="0" cy="8" r="1" fill="srgba(98.6923%,79.4537%,4.43732%,1)"/>
  <circle cx="1" cy="8" r="1" fill="srgba(98.5504%,79.6048%,4.76692%,1)"/>
  <circle cx="2" cy="8" r="1" fill="srgba(99.9329%,86.8345%,11.9097%,1)"/>
  <circle cx="3" cy="8" r="1" fill="srgba(100%,87.0634%,12.1401%,1)"/>
  <circle cx="4" cy="8" r="1" fill="srgba(100%,86.8727%,11.9509%,1)"/>
  <circle cx="5" cy="8" r="1" fill="srgba(100%,86.9947%,12.0729%,1)"/>
  <circle cx="6" cy="8" r="1" fill="srgba(99.6323%,85.037%,10.0954%,1)"/>
  <circle cx="7" cy="8" r="1" fill="srgba(97.792%,75.8556%,1.30617%,1)"/>
  <circle cx="8" cy="8" r="1" fill="srgba(97.8302%,76.0433%,1.51522%,1)"/>
  <circle cx="9" cy="8" r="1" fill="srgba(99.0967%,82.3606%,7.41894%,1)"/>
  <circle cx="10" cy="8" r="1" fill="srgba(97.7401%,75.584%,0.660716%,1)"/>
  <circle cx="11" cy="8" r="1" fill="srgba(97.5692%,74.7326%,0%,1)"/>
  <circle cx="12" cy="8" r="1" fill="srgba(98.2742%,77.4426%,2.68864%,1)"/>
  <circle cx="13" cy="8" r="1" fill="srgba(95.5383%,82.0813%,8.85023%,1)"/>
  <circle cx="14" cy="8" r="1" fill="srgba(88.0964%,75.021%,4.85237%,1)"/>
  <circle cx="15" cy="8" r="1" fill="srgba(88.0171%,74.8974%,4.78981%,1)"/>
  <circle cx="0" cy="9" r="1" fill="srgba(100%,85.4856%,0%,1)"/>
  <circle cx="1" cy="9" r="1" fill="srgba(100%,85.3834%,0%,1)"/>
  <circle cx="2" cy="9" r="1" fill="srgba(100%,84.9851%,0%,1)"/>
  <circle cx="3" cy="9" r="1" fill="srgba(100%,84.9836%,0%,1)"/>
  <circle cx="4" cy="9" r="1" fill="srgba(100%,84.9836%,0%,1)"/>
  <circle cx="5" cy="9" r="1" fill="srgba(100%,84.976%,0%,1)"/>
  <circle cx="6" cy="9" r="1" fill="srgba(100%,85.1041%,0%,1)"/>
  <circle cx="7" cy="9" r="1" fill="srgba(100%,85.6718%,0%,1)"/>
  <circle cx="8" cy="9" r="1" fill="srgba(100%,85.658%,0%,1)"/>
  <circle cx="9" cy="9" r="1" fill="srgba(100%,85.2766%,0%,1)"/>
  <circle cx="10" cy="9" r="1" fill="srgba(100%,85.7145%,0%,1)"/>
  <circle cx="11" cy="9" r="1" fill="srgba(100%,85.7694%,0%,1)"/>
  <circle cx="12" cy="9" r="1" fill="srgba(100%,85.5787%,0%,1)"/>
  <circle cx="13" cy="9" r="1" fill="srgba(100%,85.3056%,0%,1)"/>
  <circle cx="14" cy="9" r="1" fill="srgba(100%,85.7527%,0%,1)"/>
  <circle cx="15" cy="9" r="1" fill="srgba(99.9847%,85.7343%,0.00915541%,1)"/>
  <circle cx="0" cy="10" r="1" fill="srgba(255,217,0,1)"/>
  <circle cx="1" cy="10" r="1" fill="srgba(255,217,0,1)"/>
  <circle cx="2" cy="10" r="1" fill="srgba(255,217,0,1)"/>
  <circle cx="3" cy="10" r="1" fill="srgba(255,217,0,1)"/>
  <circle cx="4" cy="10" r="1" fill="srgba(255,217,0,1)"/>
  <circle cx="5" cy="10" r="1" fill="srgba(255,217,0,1)"/>
  <circle cx="6" cy="10" r="1" fill="srgba(255,217,0,1)"/>
  <circle cx="7" cy="10" r="1" fill="srgba(255,217,0,1)"/>
  <circle cx="8" cy="10" r="1" fill="srgba(255,217,0,1)"/>
  <circle cx="9" cy="10" r="1" fill="srgba(255,217,0,1)"/>
  <circle cx="10" cy="10" r="1" fill="srgba(255,217,0,1)"/>
  <circle cx="11" cy="10" r="1" fill="srgba(255,217,0,1)"/>
  <circle cx="12" cy="10" r="1" fill="srgba(255,217,0,1)"/>
  <circle cx="13" cy="10" r="1" fill="srgba(255,217,0,1)"/>
  <circle cx="14" cy="10" r="1" fill="srgba(100%,85.0996%,0%,1)"/>
  <circle cx="15" cy="10" r="1" fill="srgba(99.9695%,85.0752%,0.015259%,1)"/>
  <circle cx="0" cy="11" r="1" fill="srgba(255,217,0,1)"/>
  <circle cx="1" cy="11" r="1" fill="srgba(255,217,0,1)"/>
  <circle cx="2" cy="11" r="1" fill="srgba(255,217,0,1)"/>
  <circle cx="3" cy="11" r="1" fill="srgba(255,217,0,1)"/>
  <circle cx="4" cy="11" r="1" fill="srgba(255,217,0,1)"/>
  <circle cx="5" cy="11" r="1" fill="srgba(255,217,0,1)"/>
  <circle cx="6" cy="11" r="1" fill="srgba(255,217,0,1)"/>
  <circle cx="7" cy="11" r="1" fill="srgba(255,217,0,1)"/>
  <circle cx="8" cy="11" r="1" fill="srgba(255,217,0,1)"/>
  <circle cx="9" cy="11" r="1" fill="srgba(255,217,0,1)"/>
  <circle cx="10" cy="11" r="1" fill="srgba(255,217,0,1)"/>
  <circle cx="11" cy="11" r="1" fill="srgba(255,217,0,1)"/>
  <circle cx="12" cy="11" r="1" fill="srgba(255,217,0,1)"/>
  <circle cx="13" cy="11" r="1" fill="srgba(255,217,0,1)"/>
  <circle cx="14" cy="11" r="1" fill="srgba(100%,85.0996%,0%,1)"/>
  <circle cx="15" cy="11" r="1" fill="srgba(99.9695%,85.0752%,0.015259%,1)"/>
  <circle cx="0" cy="12" r="1" fill="srgba(255,217,0,1)"/>
  <circle cx="1" cy="12" r="1" fill="srgba(255,217,0,1)"/>
  <circle cx="2" cy="12" r="1" fill="srgba(255,217,0,1)"/>
  <circle cx="3" cy="12" r="1" fill="srgba(255,217,0,1)"/>
  <circle cx="4" cy="12" r="1" fill="srgba(255,217,0,1)"/>
  <circle cx="5" cy="12" r="1" fill="srgba(255,217,0,1)"/>
  <circle cx="6" cy="12" r="1" fill="srgba(255,217,0,1)"/>
  <circle cx="7" cy="12" r="1" fill="srgba(255,217,0,1)"/>
  <circle cx="8" cy="12" r="1" fill="srgba(255,217,0,1)"/>
  <circle cx="9" cy="12" r="1" fill="srgba(255,217,0,1)"/>
  <circle cx="10" cy="12" r="1" fill="srgba(255,217,0,1)"/>
  <circle cx="11" cy="12" r="1" fill="srgba(255,217,0,1)"/>
  <circle cx="12" cy="12" r="1" fill="srgba(255,217,0,1)"/>
  <circle cx="13" cy="12" r="1" fill="srgba(255,217,0,1)"/>
  <circle cx="14" cy="12" r="1" fill="srgba(100%,85.0996%,0%,1)"/>
  <circle cx="15" cy="12" r="1" fill="srgba(99.9695%,85.0752%,0.015259%,1)"/>
  <circle cx="0" cy="13" r="1" fill="srgba(255,217,0,1)"/>
  <circle cx="1" cy="13" r="1" fill="srgba(255,217,0,1)"/>
  <circle cx="2" cy="13" r="1" fill="srgba(255,217,0,1)"/>
  <circle cx="3" cy="13" r="1" fill="srgba(255,217,0,1)"/>
  <circle cx="4" cy="13" r="1" fill="srgba(255,217,0,1)"/>
  <circle cx="5" cy="13" r="1" fill="srgba(255,217,0,1)"/>
  <circle cx="6" cy="13" r="1" fill="srgba(255,217,0,1)"/>
  <circle cx="7" cy="13" r="1" fill="srgba(255,217,0,1)"/>
  <circle cx="8" cy="13" r="1" fill="srgba(255,217,0,1)"/>
  <circle cx="9" cy="13" r="1" fill="srgba(255,217,0,1)"/>
  <circle cx="10" cy="13" r="1" fill="srgba(255,217,0,1)"/>
  <circle cx="11" cy="13" r="1" fill="srgba(255,217,0,1)"/>
  <circle cx="12" cy="13" r="1" fill="srgba(255,217,0,1)"/>
  <circle cx="13" cy="13" r="1" fill="srgba(255,217,0,1)"/>
  <circle cx="14" cy="13" r="1" fill="srgba(100%,85.0996%,0%,1)"/>
  <circle cx="15" cy="13" r="1" fill="srgba(99.9695%,85.0752%,0.015259%,1)"/>
  <circle cx="0" cy="14" r="1" fill="srgba(100%,85.0965%,0%,1)"/>
  <circle cx="1" cy="14" r="1" fill="srgba(100%,85.0965%,0%,1)"/>
  <circle cx="2" cy="14" r="1" fill="srgba(100%,85.0965%,0%,1)"/>
  <circle cx="3" cy="14" r="1" fill="srgba(100%,85.0965%,0%,1)"/>
  <circle cx="4" cy="14" r="1" fill="srgba(100%,85.0965%,0%,1)"/>
  <circle cx="5" cy="14" r="1" fill="srgba(100%,85.0965%,0%,1)"/>
  <circle cx="6" cy="14" r="1" fill="srgba(100%,85.0965%,0%,1)"/>
  <circle cx="7" cy="14" r="1" fill="srgba(100%,85.0965%,0%,1)"/>
  <circle cx="8" cy="14" r="1" fill="srgba(100%,85.0965%,0%,1)"/>
  <circle cx="9" cy="14" r="1" fill="srgba(255,217,0,1)"/>
  <circle cx="10" cy="14" r="1" fill="srgba(100%,85.1041%,0%,1)"/>
  <circle cx="11" cy="14" r="1" fill="srgba(100%,85.1041%,0%,1)"/>
  <circle cx="12" cy="14" r="1" fill="srgba(100%,85.1041%,0%,1)"/>
  <circle cx="13" cy="14" r="1" fill="srgba(100%,85.1041%,0%,1)"/>
  <circle cx="14" cy="14" r="1" fill="srgba(100%,85.1057%,0%,1)"/>
  <circle cx="15" cy="14" r="1" fill="srgba(99.9695%,85.0782%,0.015259%,1)"/>
  <circle cx="0" cy="15" r="1" fill="srgba(100%,85.1209%,0.131228%,1)"/>
  <circle cx="1" cy="15" r="1" fill="srgba(100%,85.1209%,0.131228%,1)"/>
  <circle cx="2" cy="15" r="1" fill="srgba(100%,85.1209%,0.131228%,1)"/>
  <circle cx="3" cy="15" r="1" fill="srgba(100%,85.1209%,0.131228%,1)"/>
  <circle cx="4" cy="15" r="1" fill="srgba(100%,85.1209%,0.131228%,1)"/>
  <circle cx="5" cy="15" r="1" fill="srgba(100%,85.1209%,0.131228%,1)"/>
  <circle cx="6" cy="15" r="1" fill="srgba(100%,85.1209%,0.131228%,1)"/>
  <circle cx="7" cy="15" r="1" fill="srgba(100%,85.1209%,0.131228%,1)"/>
  <circle cx="8" cy="15" r="1" fill="srgba(100%,85.1225%,0.132753%,1)"/>
  <circle cx="9" cy="15" r="1" fill="srgba(99.9954%,85.0919%,0.102235%,1)"/>
  <circle cx="10" cy="15" r="1" fill="srgba(99.9786%,85.0034%,0.0137331%,1)"/>
  <circle cx="11" cy="15" r="1" fill="srgba(99.9771%,84.9973%,0.00762951%,1)"/>
  <circle cx="12" cy="15" r="1" fill="srgba(99.9771%,84.9973%,0.00762951%,1)"/>
  <circle cx="13" cy="15" r="1" fill="srgba(99.9771%,84.9973%,0.00762951%,1)"/>
  <circle cx="14" cy="15" r="1" fill="srgba(99.9786%,84.9989%,0.00610361%,1)"/>
  <circle cx="15" cy="15" r="1" fill="srgba(99.9405%,85.0111%,0.0656138%,1)"/>
</svg>
