<?xml version="1.0" standalone="no"?>
<!DOCTYPE svg PUBLIC "-//W3C//DTD SVG 20010904//EN"
  "http://www.w3.org/TR/2001/REC-SVG-20010904/DTD/svg10.dtd">
<svg width="16" height="16">
  <circle cx="0" cy="0" r="1" fill="srgba(48.983%,21.3703%,42.4872%,1)"/>
  <circle cx="1" cy="0" r="1" fill="srgba(62.4247%,1.89364%,16.5133%,1)"/>
  <circle cx="2" cy="0" r="1" fill="srgba(6.72465%,0%,37.7783%,1)"/>
  <circle cx="3" cy="0" r="1" fill="srgba(21.2299%,15.6451%,48.6061%,1)"/>
  <circle cx="4" cy="0" r="1" fill="srgba(88.2002%,27.2435%,32.1309%,1)"/>
  <circle cx="5" cy="0" r="1" fill="srgba(29.4011%,18.8159%,48.2902%,1)"/>
  <circle cx="6" cy="0" r="1" fill="srgba(2.27359%,0%,39.5438%,1)"/>
  <circle cx="7" cy="0" r="1" fill="srgba(38.4237%,3.03349%,27.7379%,1)"/>
  <circle cx="8" cy="0" r="1" fill="srgba(38.1353%,21.6892%,47.3808%,1)"/>
  <circle cx="9" cy="0" r="1" fill="srgba(2.38651%,3.10826%,43.6851%,1)"/>
  <circle cx="10" cy="0" r="1" fill="srgba(0%,0%,41.4725%,1)"/>
  <circle cx="11" cy="0" r="1" fill="srgba(0,0,106,1)"/>
  <circle cx="12" cy="0" r="1" fill="srgba(0,0,106,1)"/>
  <circle cx="13" cy="0" r="1" fill="srgba(0,0,106,1)"/>
  <circle cx="14" cy="0" r="1" fill="srgba(0,0,106,1)"/>
  <circle cx="15" cy="0" r="1" fill="srgba(0,0,106,1)"/>
  <circle cx="0" cy="1" r="1" fill="srgba(34.8913%,24.715%,51.6228%,1)"/>
  <circle cx="1" cy="1" r="1" fill="srgba(94.1604%,33.3165%,35.6023%,1)"/>
  <circle cx="2" cy="1" r="1" fill="srgba(60.5524%,0.886549%,16.4782%,1)"/>
  <circle cx="3" cy="1" r="1" fill="srgba(30.4738%,16.5454%,44.6937%,1)"/>
  <circle cx="4" cy="1" r="1" fill="srgba(93.4279%,29.0608%,31.78%,1)"/>
  <circle cx="5" cy="1" r="1" fill="srgba(35.0912%,19.8703%,46.247%,1)"/>
  <circle cx="6" cy="1" r="1" fill="srgba(33.0297%,1.29702%,28.3589%,1)"/>
  <circle cx="7" cy="1" r="1" fill="srgba(63.0625%,42.4002%,57.76%,1)"/>
  <circle cx="8" cy="1" r="1" fill="srgba(33.0526%,33.2753%,61.0163%,1)"/>
  <circle cx="9" cy="1" r="1" fill="srgba(0%,0%,41.062%,1)"/>
  <circle cx="10" cy="1" r="1" fill="srgba(0%,0%,41.5671%,1)"/>
  <circle cx="11" cy="1" r="1" fill="srgba(0,0,106,1)"/>
  <circle cx="12" cy="1" r="1" fill="srgba(0,0,106,1)"/>
  <circle cx="13" cy="1" r="1" fill="srgba(0,0,106,1)"/>
  <circle cx="14" cy="1" r="1" fill="srgba(0,0,106,1)"/>
  <circle cx="15" cy="1" r="1" fill="srgba(0,0,106,1)"/>
  <circle cx="0" cy="2" r="1" fill="srgba(24.1413%,21.7426%,53.2784%,1)"/>
  <circle cx="1" cy="2" r="1" fill="srgba(80.3449%,72.3537%,80.4593%,1)"/>
  <circle cx="2" cy="2" r="1" fill="srgba(99.3698%,46.6087%,46.5248%,1)"/>
  <circle cx="3" cy="2" r="1" fill="srgba(81.1414%,28.2536%,36.0662%,1)"/>
  <circle cx="4" cy="2" r="1" fill="srgba(95.938%,28.9677%,30.6569%,1)"/>
  <circle cx="5" cy="2" r="1" fill="srgba(69.781%,29.9351%,42.4949%,1)"/>
  <circle cx="6" cy="2" r="1" fill="srgba(68.8853%,46.6056%,59.5392%,1)"/>
  <circle cx="7" cy="2" r="1" fill="srgba(82.1927%,79.6872%,87.0481%,1)"/>
  <circle cx="8" cy="2" r="1" fill="srgba(26.3722%,23.3677%,53.9651%,1)"/>
  <circle cx="9" cy="2" r="1" fill="srgba(2.99382%,2.38041%,42.7039%,1)"/>
  <circle cx="10" cy="2" r="1" fill="srgba(0%,0%,41.4771%,1)"/>
  <circle cx="11" cy="2" r="1" fill="srgba(0,0,106,1)"/>
  <circle cx="12" cy="2" r="1" fill="srgba(0,0,106,1)"/>
  <circle cx="13" cy="2" r="1" fill="srgba(0,0,106,1)"/>
  <circle cx="14" cy="2" r="1" fill="srgba(0,0,106,1)"/>
  <circle cx="15" cy="2" r="1" fill="srgba(0,0,106,1)"/>
  <circle cx="0" cy="3" r="1" fill="srgba(92.5719%,34.8043%,37.8912%,1)"/>
  <circle cx="1" cy="3" r="1" fill="srgba(96.5072%,39.2096%,40.6622%,1)"/>
  <circle cx="2" cy="3" r="1" fill="srgba(99.2981%,40.9476%,41.236%,1)"/>
  <circle cx="3" cy="3" r="1" fill="srgba(99.5392%,34.2885%,34.139%,1)"/>
  <circle cx="4" cy="3" r="1" fill="srgba(100%,14.3603%,14.2214%,1)"/>
  <circle cx="5" cy="3" r="1" fill="srgba(97.7111%,33.0541%,33.8155%,1)"/>
  <circle cx="6" cy="3" r="1" fill="srgba(97.3297%,40.8423%,41.8463%,1)"/>
  <circle cx="7" cy="3" r="1" fill="srgba(97.8653%,39.9786%,40.8255%,1)"/>
  <circle cx="8" cy="3" r="1" fill="srgba(86.4256%,32.6726%,38.3169%,1)"/>
  <circle cx="9" cy="3" r="1" fill="srgba(17.5113%,6.80247%,41.0941%,1)"/>
  <circle cx="10" cy="3" r="1" fill="srgba(0%,0%,41.5625%,1)"/>
  <circle cx="11" cy="3" r="1" fill="srgba(0%,0%,41.6419%,1)"/>
  <circle cx="12" cy="3" r="1" fill="srgba(0%,0%,41.6281%,1)"/>
  <circle cx="13" cy="3" r="1" fill="srgba(0%,0%,41.5656%,1)"/>
  <circle cx="14" cy="3" r="1" fill="srgba(0,0,106,1)"/>
  <circle cx="15" cy="3" r="1" fill="srgba(0,0,106,1)"/>
  <circle cx="0" cy="4" r="1" fill="srgba(35.2178%,23.3555%,50.2892%,1)"/>
  <circle cx="1" cy="4" r="1" fill="srgba(34.2367%,23.0671%,50.4082%,1)"/>
  <circle cx="2" cy="4" r="1" fill="srgba(39.7726%,21.9577%,46.9978%,1)"/>
  <circle cx="3" cy="4" r="1" fill="srgba(75.5871%,33.9101%,44.0604%,1)"/>
  <circle cx="4" cy="4" r="1" fill="srgba(99.5544%,27.9118%,28.0964%,1)"/>
  <circle cx="5" cy="4" r="1" fill="srgba(88.1682%,38.0957%,43.0152%,1)"/>
  <circle cx="6" cy="4" r="1" fill="srgba(45.0401%,22.3087%,45.1591%,1)"/>
  <circle cx="7" cy="4" r="1" fill="srgba(34.0108%,23.122%,50.5562%,1)"/>
  <circle cx="8" cy="4" r="1" fill="srgba(32.8069%,21.767%,49.7032%,1)"/>
  <circle cx="9" cy="4" r="1" fill="srgba(6.52171%,4.32593%,43.1846%,1)"/>
  <circle cx="10" cy="4" r="1" fill="srgba(0.492866%,0.75227%,42.1271%,1)"/>
  <circle cx="11" cy="4" r="1" fill="srgba(5.94949%,1.33211%,39.968%,1)"/>
  <circle cx="12" cy="4" r="1" fill="srgba(2.2385%,0%,40.3769%,1)"/>
  <circle cx="13" cy="4" r="1" fill="srgba(0%,0%,41.6388%,1)"/>
  <circle cx="14" cy="4" r="1" fill="srgba(0,0,106,1)"/>
  <circle cx="15" cy="4" r="1" fill="srgba(0,0,106,1)"/>
  <circle cx="0" cy="5" r="1" fill="srgba(0%,0%,41.2085%,1)"/>
  <circle cx="1" cy="5" r="1" fill="srgba(6.41947%,0.442512%,38.4894%,1)"/>
  <circle cx="2" cy="5" r="1" fill="srgba(41.1612%,7.43725%,31.6991%,1)"/>
  <circle cx="3" cy="5" r="1" fill="srgba(43.8483%,22.565%,45.8961%,1)"/>
  <circle cx="4" cy="5" r="1" fill="srgba(94.1863%,29.9321%,32.3476%,1)"/>
  <circle cx="5" cy="5" r="1" fill="srgba(58.349%,25.5161%,42.8122%,1)"/>
  <circle cx="6" cy="5" r="1" fill="srgba(52.4636%,6.06394%,25.6764%,1)"/>
  <circle cx="7" cy="5" r="1" fill="srgba(10.9102%,0.459297%,36.5393%,1)"/>
  <circle cx="8" cy="5" r="1" fill="srgba(0%,0%,41.3138%,1)"/>
  <circle cx="9" cy="5" r="1" fill="srgba(0%,0%,41.1322%,1)"/>
  <circle cx="10" cy="5" r="1" fill="srgba(8.59693%,9.14321%,47.1443%,1)"/>
  <circle cx="11" cy="5" r="1" fill="srgba(49.7963%,29.3721%,50.2373%,1)"/>
  <circle cx="12" cy="5" r="1" fill="srgba(16.0311%,4.36255%,39.2584%,1)"/>
  <circle cx="13" cy="5" r="1" fill="srgba(0%,0%,41.7166%,1)"/>
  <circle cx="14" cy="5" r="1" fill="srgba(0,0,106,1)"/>
  <circle cx="15" cy="5" r="1" fill="srgba(0,0,106,1)"/>
  <circle cx="0" cy="6" r="1" fill="srgba(15.4009%,8.38788%,43.5538%,1)"/>
  <circle cx="1" cy="6" r="1" fill="srgba(53.2448%,19.1333%,38.5687%,1)"/>
  <circle cx="2" cy="6" r="1" fill="srgba(33.8552%,20.2976%,47.8187%,1)"/>
  <circle cx="3" cy="6" r="1" fill="srgba(23.4272%,17.6928%,49.6117%,1)"/>
  <circle cx="4" cy="6" r="1" fill="srgba(93.1182%,28.7205%,31.5724%,1)"/>
  <circle cx="5" cy="6" r="1" fill="srgba(31.2795%,20.3449%,49.1203%,1)"/>
  <circle cx="6" cy="6" r="1" fill="srgba(28.8014%,14.4579%,44.1184%,1)"/>
  <circle cx="7" cy="6" r="1" fill="srgba(58.1888%,18.1353%,35.5108%,1)"/>
  <circle cx="8" cy="6" r="1" fill="srgba(17.2259%,7.47082%,41.8784%,1)"/>
  <circle cx="9" cy="6" r="1" fill="srgba(0%,0.427253%,42.0203%,1)"/>
  <circle cx="10" cy="6" r="1" fill="srgba(4.96376%,5.33761%,44.8264%,1)"/>
  <circle cx="11" cy="6" r="1" fill="srgba(73.7499%,67.5151%,78.4115%,1)"/>
  <circle cx="12" cy="6" r="1" fill="srgba(44.1596%,32.6375%,55.8495%,1)"/>
  <circle cx="13" cy="6" r="1" fill="srgba(0%,0%,41.2268%,1)"/>
  <circle cx="14" cy="6" r="1" fill="srgba(0%,0%,41.5717%,1)"/>
  <circle cx="15" cy="6" r="1" fill="srgba(0,0,106,1)"/>
  <circle cx="0" cy="7" r="1" fill="srgba(17.2946%,9.82223%,44.1993%,1)"/>
  <circle cx="1" cy="7" r="1" fill="srgba(19.3835%,10.2556%,43.7766%,1)"/>
  <circle cx="2" cy="7" r="1" fill="srgba(0.840772%,1.41756%,42.4796%,1)"/>
  <circle cx="3" cy="7" r="1" fill="srgba(7.61273%,5.46731%,43.8178%,1)"/>
  <circle cx="4" cy="7" r="1" fill="srgba(31.487%,9.92447%,38.4131%,1)"/>
  <circle cx="5" cy="7" r="1" fill="srgba(10.4967%,6.65293%,43.83%,1)"/>
  <circle cx="6" cy="7" r="1" fill="srgba(0%,0.668345%,42.2126%,1)"/>
  <circle cx="7" cy="7" r="1" fill="srgba(17.3724%,9.5903%,43.9643%,1)"/>
  <circle cx="8" cy="7" r="1" fill="srgba(16.8292%,8.60914%,43.1998%,1)"/>
  <circle cx="9" cy="7" r="1" fill="srgba(0.910964%,1.24514%,42.6307%,1)"/>
  <circle cx="10" cy="7" r="1" fill="srgba(0.527962%,0.810254%,42.1347%,1)"/>
  <circle cx="11" cy="7" r="1" fill="srgba(64.9836%,60.5997%,75.0851%,1)"/>
  <circle cx="12" cy="7" r="1" fill="srgba(45.5543%,36.173%,58.79%,1)"/>
  <circle cx="13" cy="7" r="1" fill="srgba(0%,0%,40.7462%,1)"/>
  <circle cx="14" cy="7" r="1" fill="srgba(0.108339%,0%,41.6037%,1)"/>
  <circle cx="15" cy="7" r="1" fill="srgba(0%,0%,41.5702%,1)"/>
  <circle cx="0" cy="8" r="1" fill="srgba(0%,0%,41.416%,1)"/>
  <circle cx="1" cy="8" r="1" fill="srgba(0%,0%,41.4435%,1)"/>
  <circle cx="2" cy="8" r="1" fill="srgba(0%,0%,41.5183%,1)"/>
  <circle cx="3" cy="8" r="1" fill="srgba(0%,0%,41.4496%,1)"/>
  <circle cx="4" cy="8" r="1" fill="srgba(0%,0%,41.738%,1)"/>
  <circle cx="5" cy="8" r="1" fill="srgba(0%,0%,41.4511%,1)"/>
  <circle cx="6" cy="8" r="1" fill="srgba(0%,0%,41.5381%,1)"/>
  <circle cx="7" cy="8" r="1" fill="srgba(0%,0%,41.4237%,1)"/>
  <circle cx="8" cy="8" r="1" fill="srgba(3.73693%,2.7924%,42.7375%,1)"/>
  <circle cx="9" cy="8" r="1" fill="srgba(8.96162%,0.975051%,38.1186%,1)"/>
  <circle cx="10" cy="8" r="1" fill="srgba(0%,0%,40.7919%,1)"/>
  <circle cx="11" cy="8" r="1" fill="srgba(44.2741%,41.2116%,64.3%,1)"/>
  <circle cx="12" cy="8" r="1" fill="srgba(37.3281%,30.7256%,56.7773%,1)"/>
  <circle cx="13" cy="8" r="1" fill="srgba(16.054%,10.7042%,45.4688%,1)"/>
  <circle cx="14" cy="8" r="1" fill="srgba(19.0951%,2.16373%,35.4055%,1)"/>
  <circle cx="15" cy="8" r="1" fill="srgba(0%,0%,41.4923%,1)"/>
  <circle cx="0" cy="9" r="1" fill="srgba(0,0,106,1)"/>
  <circle cx="1" cy="9" r="1" fill="srgba(0,0,106,1)"/>
  <circle cx="2" cy="9" r="1" fill="srgba(0,0,106,1)"/>
  <circle cx="3" cy="9" r="1" fill="srgba(0,0,106,1)"/>
  <circle cx="4" cy="9" r="1" fill="srgba(0,0,106,1)"/>
  <circle cx="5" cy="9" r="1" fill="srgba(0,0,106,1)"/>
  <circle cx="6" cy="9" r="1" fill="srgba(0,0,106,1)"/>
  <circle cx="7" cy="9" r="1" fill="srgba(0%,0%,41.0712%,1)"/>
  <circle cx="8" cy="9" r="1" fill="srgba(25.1499%,22.6307%,53.7438%,1)"/>
  <circle cx="9" cy="9" r="1" fill="srgba(51.1818%,26.2501%,46.537%,1)"/>
  <circle cx="10" cy="9" r="1" fill="srgba(4.52888%,1.37179%,41.0498%,1)"/>
  <circle cx="11" cy="9" r="1" fill="srgba(8.89754%,7.19158%,44.9775%,1)"/>
  <circle cx="12" cy="9" r="1" fill="srgba(20.1099%,15.9228%,49.1295%,1)"/>
  <circle cx="13" cy="9" r="1" fill="srgba(40.4211%,37.0382%,61.8036%,1)"/>
  <circle cx="14" cy="9" r="1" fill="srgba(59.3347%,39.7757%,56.6735%,1)"/>
  <circle cx="15" cy="9" r="1" fill="srgba(4.22827%,2.54826%,42.3575%,1)"/>
  <circle cx="0" cy="10" r="1" fill="srgba(0,0,106,1)"/>
  <circle cx="1" cy="10" r="1" fill="srgba(0,0,106,1)"/>
  <circle cx="2" cy="10" r="1" fill="srgba(0,0,106,1)"/>
  <circle cx="3" cy="10" r="1" fill="srgba(0,0,106,1)"/>
  <circle cx="4" cy="10" r="1" fill="srgba(0,0,106,1)"/>
  <circle cx="5" cy="10" r="1" fill="srgba(0,0,106,1)"/>
  <circle cx="6" cy="10" r="1" fill="srgba(0,0,106,1)"/>
  <circle cx="7" cy="10" r="1" fill="srgba(0%,0%,40.8164%,1)"/>
  <circle cx="8" cy="10" r="1" fill="srgba(22.2568%,22.7344%,55.0134%,1)"/>
  <circle cx="9" cy="10" r="1" fill="srgba(84.6525%,73.0663%,79.4339%,1)"/>
  <circle cx="10" cy="10" r="1" fill="srgba(18.1369%,12.8725%,46.9078%,1)"/>
  <circle cx="11" cy="10" r="1" fill="srgba(0%,0%,40.7996%,1)"/>
  <circle cx="12" cy="10" r="1" fill="srgba(1.02388%,0%,40.2472%,1)"/>
  <circle cx="13" cy="10" r="1" fill="srgba(33.1792%,33.1685%,60.8682%,1)"/>
  <circle cx="14" cy="10" r="1" fill="srgba(80.705%,68.0552%,76.0174%,1)"/>
  <circle cx="15" cy="10" r="1" fill="srgba(9.10353%,6.65904%,44.4327%,1)"/>
  <circle cx="0" cy="11" r="1" fill="srgba(0,0,106,1)"/>
  <circle cx="1" cy="11" r="1" fill="srgba(0,0,106,1)"/>
  <circle cx="2" cy="11" r="1" fill="srgba(0,0,106,1)"/>
  <circle cx="3" cy="11" r="1" fill="srgba(0,0,106,1)"/>
  <circle cx="4" cy="11" r="1" fill="srgba(0,0,106,1)"/>
  <circle cx="5" cy="11" r="1" fill="srgba(0,0,106,1)"/>
  <circle cx="6" cy="11" r="1" fill="srgba(0,0,106,1)"/>
  <circle cx="7" cy="11" r="1" fill="srgba(0%,0%,41.1231%,1)"/>
  <circle cx="8" cy="11" r="1" fill="srgba(12.5048%,12.9107%,49.2119%,1)"/>
  <circle cx="9" cy="11" r="1" fill="srgba(78.9685%,69.9428%,78.6419%,1)"/>
  <circle cx="10" cy="11" r="1" fill="srgba(17.3098%,12.9946%,47.3442%,1)"/>
  <circle cx="11" cy="11" r="1" fill="srgba(0%,0%,41.0636%,1)"/>
  <circle cx="12" cy="11" r="1" fill="srgba(0%,0%,40.4227%,1)"/>
  <circle cx="13" cy="11" r="1" fill="srgba(20.4227%,20.4379%,53.4447%,1)"/>
  <circle cx="14" cy="11" r="1" fill="srgba(71.249%,61.7609%,73.5576%,1)"/>
  <circle cx="15" cy="11" r="1" fill="srgba(6.89403%,4.95918%,43.5279%,1)"/>
  <circle cx="0" cy="12" r="1" fill="srgba(0,0,106,1)"/>
  <circle cx="1" cy="12" r="1" fill="srgba(0,0,106,1)"/>
  <circle cx="2" cy="12" r="1" fill="srgba(0,0,106,1)"/>
  <circle cx="3" cy="12" r="1" fill="srgba(0,0,106,1)"/>
  <circle cx="4" cy="12" r="1" fill="srgba(0,0,106,1)"/>
  <circle cx="5" cy="12" r="1" fill="srgba(0,0,106,1)"/>
  <circle cx="6" cy="12" r="1" fill="srgba(0,0,106,1)"/>
  <circle cx="7" cy="12" r="1" fill="srgba(0%,0%,41.4115%,1)"/>
  <circle cx="8" cy="12" r="1" fill="srgba(4.78676%,5.08888%,44.6128%,1)"/>
  <circle cx="9" cy="12" r="1" fill="srgba(56.2921%,49.8604%,67.9805%,1)"/>
  <circle cx="10" cy="12" r="1" fill="srgba(14.4274%,11.2764%,46.8223%,1)"/>
  <circle cx="11" cy="12" r="1" fill="srgba(0.460822%,0%,40.824%,1)"/>
  <circle cx="12" cy="12" r="1" fill="srgba(3.10521%,0%,39.9008%,1)"/>
  <circle cx="13" cy="12" r="1" fill="srgba(6.61479%,6.74601%,45.4932%,1)"/>
  <circle cx="14" cy="12" r="1" fill="srgba(40.0366%,33.4707%,58.3612%,1)"/>
  <circle cx="15" cy="12" r="1" fill="srgba(8.61372%,7.20684%,45.1972%,1)"/>
  <circle cx="0" cy="13" r="1" fill="srgba(0,0,106,1)"/>
  <circle cx="1" cy="13" r="1" fill="srgba(0,0,106,1)"/>
  <circle cx="2" cy="13" r="1" fill="srgba(0,0,106,1)"/>
  <circle cx="3" cy="13" r="1" fill="srgba(0,0,106,1)"/>
  <circle cx="4" cy="13" r="1" fill="srgba(0,0,106,1)"/>
  <circle cx="5" cy="13" r="1" fill="srgba(0,0,106,1)"/>
  <circle cx="6" cy="13" r="1" fill="srgba(0,0,106,1)"/>
  <circle cx="7" cy="13" r="1" fill="srgba(0%,0%,41.5564%,1)"/>
  <circle cx="8" cy="13" r="1" fill="srgba(0%,0.154116%,41.7014%,1)"/>
  <circle cx="9" cy="13" r="1" fill="srgba(14.5434%,10.634%,46.0655%,1)"/>
  <circle cx="10" cy="13" r="1" fill="srgba(12.8756%,11.0246%,47.2435%,1)"/>
  <circle cx="11" cy="13" r="1" fill="srgba(6.29587%,0.326543%,38.88%,1)"/>
  <circle cx="12" cy="13" r="1" fill="srgba(7.81567%,0%,38.1476%,1)"/>
  <circle cx="13" cy="13" r="1" fill="srgba(0%,0%,41.5152%,1)"/>
  <circle cx="14" cy="13" r="1" fill="srgba(8.44739%,4.91493%,42.6734%,1)"/>
  <circle cx="15" cy="13" r="1" fill="srgba(5.01869%,4.21607%,43.7003%,1)"/>
  <circle cx="0" cy="14" r="1" fill="srgba(0,0,106,1)"/>
  <circle cx="1" cy="14" r="1" fill="srgba(0,0,106,1)"/>
  <circle cx="2" cy="14" r="1" fill="srgba(0,0,106,1)"/>
  <circle cx="3" cy="14" r="1" fill="srgba(0,0,106,1)"/>
  <circle cx="4" cy="14" r="1" fill="srgba(0,0,106,1)"/>
  <circle cx="5" cy="14" r="1" fill="srgba(0,0,106,1)"/>
  <circle cx="6" cy="14" r="1" fill="srgba(0,0,106,1)"/>
  <circle cx="7" cy="14" r="1" fill="srgba(0%,0%,41.5702%,1)"/>
  <circle cx="8" cy="14" r="1" fill="srgba(0%,0%,41.5747%,1)"/>
  <circle cx="9" cy="14" r="1" fill="srgba(0.953689%,0%,40.4837%,1)"/>
  <circle cx="10" cy="14" r="1" fill="srgba(11.0262%,10.7164%,47.6539%,1)"/>
  <circle cx="11" cy="14" r="1" fill="srgba(50.6493%,26.0273%,46.5385%,1)"/>
  <circle cx="12" cy="14" r="1" fill="srgba(20.9339%,2.84428%,35.6985%,1)"/>
  <circle cx="13" cy="14" r="1" fill="srgba(0%,0%,41.8158%,1)"/>
  <circle cx="14" cy="14" r="1" fill="srgba(1.05287%,0%,40.9689%,1)"/>
  <circle cx="15" cy="14" r="1" fill="srgba(0.254826%,0%,41.3153%,1)"/>
  <circle cx="0" cy="15" r="1" fill="srgba(0,0,106,1)"/>
  <circle cx="1" cy="15" r="1" fill="srgba(0,0,106,1)"/>
  <circle cx="2" cy="15" r="1" fill="srgba(0,0,106,1)"/>
  <circle cx="3" cy="15" r="1" fill="srgba(0,0,106,1)"/>
  <circle cx="4" cy="15" r="1" fill="srgba(0,0,106,1)"/>
  <circle cx="5" cy="15" r="1" fill="srgba(0,0,106,1)"/>
  <circle cx="6" cy="15" r="1" fill="srgba(0,0,106,1)"/>
  <circle cx="7" cy="15" r="1" fill="srgba(0,0,106,1)"/>
  <circle cx="8" cy="15" r="1" fill="srgba(0%,0%,41.5885%,1)"/>
  <circle cx="9" cy="15" r="1" fill="srgba(0.415045%,0%,40.8896%,1)"/>
  <circle cx="10" cy="15" r="1" fill="srgba(8.30549%,8.26734%,46.3676%,1)"/>
  <circle cx="11" cy="15" r="1" fill="srgba(76.7163%,68.0339%,77.7005%,1)"/>
  <circle cx="12" cy="15" r="1" fill="srgba(40.1862%,27.0192%,51.8715%,1)"/>
  <circle cx="13" cy="15" r="1" fill="srgba(0%,0%,41.2802%,1)"/>
  <circle cx="14" cy="15" r="1" fill="srgba(2.05234%,0%,40.7202%,1)"/>
  <circle cx="15" cy="15" r="1" fill="srgba(0.526436%,0%,41.3504%,1)"/>
</svg>
