<?xml version="1.0" standalone="no"?>
<!DOCTYPE svg PUBLIC "-//W3C//DTD SVG 20010904//EN"
  "http://www.w3.org/TR/2001/REC-SVG-20010904/DTD/svg10.dtd">
<svg width="16" height="16">
  <circle cx="0" cy="0" r="1" fill="srgba(93.7743%,18.2895%,16.733%,1)"/>
  <circle cx="1" cy="0" r="1" fill="srgba(93.9132%,20.1053%,18.5824%,1)"/>
  <circle cx="2" cy="0" r="1" fill="srgba(94.1848%,23.6759%,22.2171%,1)"/>
  <circle cx="3" cy="0" r="1" fill="srgba(93.8994%,19.9176%,18.3902%,1)"/>
  <circle cx="4" cy="0" r="1" fill="srgba(94.1253%,22.8824%,21.4084%,1)"/>
  <circle cx="5" cy="0" r="1" fill="srgba(98.6923%,82.8229%,82.4903%,1)"/>
  <circle cx="6" cy="0" r="1" fill="white"/>
  <circle cx="7" cy="0" r="1" fill="white"/>
  <circle cx="8" cy="0" r="1" fill="white"/>
  <circle cx="9" cy="0" r="1" fill="white"/>
  <circle cx="10" cy="0" r="1" fill="white"/>
  <circle cx="11" cy="0" r="1" fill="white"/>
  <circle cx="12" cy="0" r="1" fill="white"/>
  <circle cx="13" cy="0" r="1" fill="white"/>
  <circle cx="14" cy="0" r="1" fill="white"/>
  <circle cx="15" cy="0" r="1" fill="white"/>
  <circle cx="0" cy="1" r="1" fill="srgba(93.8247%,18.9502%,17.4044%,1)"/>
  <circle cx="1" cy="1" r="1" fill="srgba(95.0423%,34.9722%,33.7179%,1)"/>
  <circle cx="2" cy="1" r="1" fill="srgba(95.7931%,44.8142%,43.7385%,1)"/>
  <circle cx="3" cy="1" r="1" fill="srgba(95.1171%,35.9518%,34.7158%,1)"/>
  <circle cx="4" cy="1" r="1" fill="srgba(94.1955%,23.7949%,22.3377%,1)"/>
  <circle cx="5" cy="1" r="1" fill="srgba(98.6893%,82.7878%,82.4537%,1)"/>
  <circle cx="6" cy="1" r="1" fill="white"/>
  <circle cx="7" cy="1" r="1" fill="white"/>
  <circle cx="8" cy="1" r="1" fill="white"/>
  <circle cx="9" cy="1" r="1" fill="white"/>
  <circle cx="10" cy="1" r="1" fill="white"/>
  <circle cx="11" cy="1" r="1" fill="white"/>
  <circle cx="12" cy="1" r="1" fill="white"/>
  <circle cx="13" cy="1" r="1" fill="white"/>
  <circle cx="14" cy="1" r="1" fill="white"/>
  <circle cx="15" cy="1" r="1" fill="white"/>
  <circle cx="0" cy="2" r="1" fill="srgba(94.6212%,29.4591%,28.1041%,1)"/>
  <circle cx="1" cy="2" r="1" fill="srgba(96.5286%,54.5281%,53.6217%,1)"/>
  <circle cx="2" cy="2" r="1" fill="srgba(97.8439%,71.78%,71.1818%,1)"/>
  <circle cx="3" cy="2" r="1" fill="srgba(96.6079%,55.4269%,54.5495%,1)"/>
  <circle cx="4" cy="2" r="1" fill="srgba(94.8333%,32.1386%,30.837%,1)"/>
  <circle cx="5" cy="2" r="1" fill="srgba(98.6435%,82.1927%,81.8479%,1)"/>
  <circle cx="6" cy="2" r="1" fill="white"/>
  <circle cx="7" cy="2" r="1" fill="srgba(99.9924%,99.884%,99.881%,1)"/>
  <circle cx="8" cy="2" r="1" fill="srgba(100%,99.9939%,99.9939%,1)"/>
  <circle cx="9" cy="2" r="1" fill="white"/>
  <circle cx="10" cy="2" r="1" fill="white"/>
  <circle cx="11" cy="2" r="1" fill="white"/>
  <circle cx="12" cy="2" r="1" fill="white"/>
  <circle cx="13" cy="2" r="1" fill="white"/>
  <circle cx="14" cy="2" r="1" fill="white"/>
  <circle cx="15" cy="2" r="1" fill="white"/>
  <circle cx="0" cy="3" r="1" fill="srgba(94.2519%,24.5975%,23.1495%,1)"/>
  <circle cx="1" cy="3" r="1" fill="srgba(96.5698%,55.0118%,54.1146%,1)"/>
  <circle cx="2" cy="3" r="1" fill="srgba(96.4691%,53.6995%,52.7596%,1)"/>
  <circle cx="3" cy="3" r="1" fill="srgba(95.3613%,39.0814%,37.8851%,1)"/>
  <circle cx="4" cy="3" r="1" fill="srgba(94.6197%,29.3523%,27.9896%,1)"/>
  <circle cx="5" cy="3" r="1" fill="srgba(98.6084%,81.6678%,81.3077%,1)"/>
  <circle cx="6" cy="3" r="1" fill="srgba(99.9756%,99.6201%,99.6094%,1)"/>
  <circle cx="7" cy="3" r="1" fill="srgba(99.9542%,99.353%,99.3362%,1)"/>
  <circle cx="8" cy="3" r="1" fill="srgba(99.9985%,99.9741%,99.9741%,1)"/>
  <circle cx="9" cy="3" r="1" fill="white"/>
  <circle cx="10" cy="3" r="1" fill="white"/>
  <circle cx="11" cy="3" r="1" fill="white"/>
  <circle cx="12" cy="3" r="1" fill="white"/>
  <circle cx="13" cy="3" r="1" fill="white"/>
  <circle cx="14" cy="3" r="1" fill="white"/>
  <circle cx="15" cy="3" r="1" fill="white"/>
  <circle cx="0" cy="4" r="1" fill="srgba(94.4839%,27.6173%,26.2257%,1)"/>
  <circle cx="1" cy="4" r="1" fill="srgba(98.0636%,74.641%,74.1299%,1)"/>
  <circle cx="2" cy="4" r="1" fill="srgba(97.9126%,72.6345%,72.0851%,1)"/>
  <circle cx="3" cy="4" r="1" fill="srgba(95.52%,41.1902%,40.0214%,1)"/>
  <circle cx="4" cy="4" r="1" fill="srgba(98.2513%,76.965%,76.4965%,1)"/>
  <circle cx="5" cy="4" r="1" fill="srgba(99.4507%,92.755%,92.6009%,1)"/>
  <circle cx="6" cy="4" r="1" fill="srgba(99.8734%,98.2986%,98.262%,1)"/>
  <circle cx="7" cy="4" r="1" fill="srgba(99.9603%,99.4537%,99.443%,1)"/>
  <circle cx="8" cy="4" r="1" fill="srgba(99.9741%,99.646%,99.6399%,1)"/>
  <circle cx="9" cy="4" r="1" fill="srgba(99.9725%,99.6323%,99.6262%,1)"/>
  <circle cx="10" cy="4" r="1" fill="srgba(99.9725%,99.6323%,99.6262%,1)"/>
  <circle cx="11" cy="4" r="1" fill="srgba(99.9725%,99.6323%,99.6262%,1)"/>
  <circle cx="12" cy="4" r="1" fill="srgba(99.9725%,99.6323%,99.6262%,1)"/>
  <circle cx="13" cy="4" r="1" fill="srgba(99.9725%,99.6323%,99.6262%,1)"/>
  <circle cx="14" cy="4" r="1" fill="srgba(99.9725%,99.6323%,99.6262%,1)"/>
  <circle cx="15" cy="4" r="1" fill="srgba(99.9725%,99.6323%,99.6262%,1)"/>
  <circle cx="0" cy="5" r="1" fill="srgba(94.2626%,24.7395%,23.3127%,1)"/>
  <circle cx="1" cy="5" r="1" fill="srgba(98.7854%,84.1306%,83.8209%,1)"/>
  <circle cx="2" cy="5" r="1" fill="srgba(98.9517%,86.2776%,86.0166%,1)"/>
  <circle cx="3" cy="5" r="1" fill="srgba(95.2331%,37.4456%,36.2402%,1)"/>
  <circle cx="4" cy="5" r="1" fill="srgba(99.4751%,93.0922%,92.958%,1)"/>
  <circle cx="5" cy="5" r="1" fill="srgba(98.8251%,84.6174%,84.3259%,1)"/>
  <circle cx="6" cy="5" r="1" fill="srgba(96.0311%,47.8843%,46.894%,1)"/>
  <circle cx="7" cy="5" r="1" fill="srgba(95.9503%,46.8025%,45.7908%,1)"/>
  <circle cx="8" cy="5" r="1" fill="srgba(95.9548%,46.862%,45.8534%,1)"/>
  <circle cx="9" cy="5" r="1" fill="srgba(95.9548%,46.862%,45.8534%,1)"/>
  <circle cx="10" cy="5" r="1" fill="srgba(95.9548%,46.862%,45.8534%,1)"/>
  <circle cx="11" cy="5" r="1" fill="srgba(95.9548%,46.862%,45.8534%,1)"/>
  <circle cx="12" cy="5" r="1" fill="srgba(95.9548%,46.862%,45.8534%,1)"/>
  <circle cx="13" cy="5" r="1" fill="srgba(95.9548%,46.862%,45.8534%,1)"/>
  <circle cx="14" cy="5" r="1" fill="srgba(95.9548%,46.862%,45.8534%,1)"/>
  <circle cx="15" cy="5" r="1" fill="srgba(95.9548%,46.862%,45.8534%,1)"/>
  <circle cx="0" cy="6" r="1" fill="srgba(94.2397%,24.4236%,22.9892%,1)"/>
  <circle cx="1" cy="6" r="1" fill="srgba(97.821%,71.429%,70.8843%,1)"/>
  <circle cx="2" cy="6" r="1" fill="srgba(97.8119%,71.2978%,70.7546%,1)"/>
  <circle cx="3" cy="6" r="1" fill="srgba(95.0256%,34.7341%,33.4829%,1)"/>
  <circle cx="4" cy="6" r="1" fill="srgba(98.3841%,78.7625%,78.352%,1)"/>
  <circle cx="5" cy="6" r="1" fill="srgba(97.2763%,64.2924%,63.6133%,1)"/>
  <circle cx="6" cy="6" r="1" fill="srgba(93.724%,17.6516%,16.083%,1)"/>
  <circle cx="7" cy="6" r="1" fill="srgba(93.6095%,16.1257%,14.5281%,1)"/>
  <circle cx="8" cy="6" r="1" fill="srgba(93.6156%,16.2142%,14.6181%,1)"/>
  <circle cx="9" cy="6" r="1" fill="srgba(93.6156%,16.2142%,14.6181%,1)"/>
  <circle cx="10" cy="6" r="1" fill="srgba(93.6156%,16.2142%,14.6181%,1)"/>
  <circle cx="11" cy="6" r="1" fill="srgba(93.6156%,16.2142%,14.6181%,1)"/>
  <circle cx="12" cy="6" r="1" fill="srgba(93.6156%,16.2142%,14.6181%,1)"/>
  <circle cx="13" cy="6" r="1" fill="srgba(93.6156%,16.2142%,14.6181%,1)"/>
  <circle cx="14" cy="6" r="1" fill="srgba(93.6156%,16.2142%,14.6181%,1)"/>
  <circle cx="15" cy="6" r="1" fill="srgba(93.6156%,16.2142%,14.6181%,1)"/>
  <circle cx="0" cy="7" r="1" fill="srgba(94.1558%,23.3326%,21.8814%,1)"/>
  <circle cx="1" cy="7" r="1" fill="srgba(94.3832%,26.2928%,24.8936%,1)"/>
  <circle cx="2" cy="7" r="1" fill="srgba(93.9574%,20.6867%,19.176%,1)"/>
  <circle cx="3" cy="7" r="1" fill="srgba(94.287%,25.1179%,23.6927%,1)"/>
  <circle cx="4" cy="7" r="1" fill="srgba(94.3282%,25.6092%,24.1932%,1)"/>
  <circle cx="5" cy="7" r="1" fill="srgba(93.9849%,21.0407%,19.5361%,1)"/>
  <circle cx="6" cy="7" r="1" fill="srgba(93.7346%,17.7646%,16.1975%,1)"/>
  <circle cx="7" cy="7" r="1" fill="srgba(93.7255%,17.6394%,16.0708%,1)"/>
  <circle cx="8" cy="7" r="1" fill="srgba(239,45,41,1)"/>
  <circle cx="9" cy="7" r="1" fill="srgba(239,45,41,1)"/>
  <circle cx="10" cy="7" r="1" fill="srgba(239,45,41,1)"/>
  <circle cx="11" cy="7" r="1" fill="srgba(239,45,41,1)"/>
  <circle cx="12" cy="7" r="1" fill="srgba(239,45,41,1)"/>
  <circle cx="13" cy="7" r="1" fill="srgba(239,45,41,1)"/>
  <circle cx="14" cy="7" r="1" fill="srgba(239,45,41,1)"/>
  <circle cx="15" cy="7" r="1" fill="srgba(239,45,41,1)"/>
  <circle cx="0" cy="8" r="1" fill="srgba(94.0993%,22.594%,21.1246%,1)"/>
  <circle cx="1" cy="8" r="1" fill="srgba(94.0764%,22.3026%,20.8255%,1)"/>
  <circle cx="2" cy="8" r="1" fill="srgba(93.6614%,16.8063%,15.2193%,1)"/>
  <circle cx="3" cy="8" r="1" fill="srgba(94.1802%,23.7156%,22.266%,1)"/>
  <circle cx="4" cy="8" r="1" fill="srgba(93.9544%,20.7172%,19.2081%,1)"/>
  <circle cx="5" cy="8" r="1" fill="srgba(93.6904%,17.1969%,15.6191%,1)"/>
  <circle cx="6" cy="8" r="1" fill="srgba(93.7255%,17.6394%,16.0708%,1)"/>
  <circle cx="7" cy="8" r="1" fill="srgba(239,45,41,1)"/>
  <circle cx="8" cy="8" r="1" fill="srgba(239,45,41,1)"/>
  <circle cx="9" cy="8" r="1" fill="srgba(239,45,41,1)"/>
  <circle cx="10" cy="8" r="1" fill="srgba(239,45,41,1)"/>
  <circle cx="11" cy="8" r="1" fill="srgba(239,45,41,1)"/>
  <circle cx="12" cy="8" r="1" fill="srgba(239,45,41,1)"/>
  <circle cx="13" cy="8" r="1" fill="srgba(239,45,41,1)"/>
  <circle cx="14" cy="8" r="1" fill="srgba(239,45,41,1)"/>
  <circle cx="15" cy="8" r="1" fill="srgba(239,45,41,1)"/>
  <circle cx="0" cy="9" r="1" fill="srgba(93.9178%,20.2014%,18.6847%,1)"/>
  <circle cx="1" cy="9" r="1" fill="srgba(93.9178%,20.1923%,18.6755%,1)"/>
  <circle cx="2" cy="9" r="1" fill="srgba(93.7011%,17.322%,15.7458%,1)"/>
  <circle cx="3" cy="9" r="1" fill="srgba(93.9666%,20.9308%,19.4232%,1)"/>
  <circle cx="4" cy="9" r="1" fill="srgba(93.9544%,19.4385%,17.9446%,1)"/>
  <circle cx="5" cy="9" r="1" fill="srgba(95.0072%,16.9894%,15.9762%,1)"/>
  <circle cx="6" cy="9" r="1" fill="srgba(95.378%,16.9619%,16.1059%,1)"/>
  <circle cx="7" cy="9" r="1" fill="srgba(95.3567%,16.9711%,16.1059%,1)"/>
  <circle cx="8" cy="9" r="1" fill="srgba(95.3567%,16.9711%,16.1059%,1)"/>
  <circle cx="9" cy="9" r="1" fill="srgba(95.3567%,16.9711%,16.1059%,1)"/>
  <circle cx="10" cy="9" r="1" fill="srgba(95.3567%,16.9711%,16.1059%,1)"/>
  <circle cx="11" cy="9" r="1" fill="srgba(95.3567%,16.9711%,16.1059%,1)"/>
  <circle cx="12" cy="9" r="1" fill="srgba(95.3567%,16.9711%,16.1059%,1)"/>
  <circle cx="13" cy="9" r="1" fill="srgba(95.3567%,16.9711%,16.1059%,1)"/>
  <circle cx="14" cy="9" r="1" fill="srgba(95.3567%,16.9711%,16.1059%,1)"/>
  <circle cx="15" cy="9" r="1" fill="srgba(95.3567%,16.9711%,16.1059%,1)"/>
  <circle cx="0" cy="10" r="1" fill="srgba(93.7224%,17.6074%,16.0388%,1)"/>
  <circle cx="1" cy="10" r="1" fill="srgba(93.7224%,17.6089%,16.0388%,1)"/>
  <circle cx="2" cy="10" r="1" fill="srgba(93.7255%,17.6516%,16.083%,1)"/>
  <circle cx="3" cy="10" r="1" fill="srgba(93.8384%,17.5586%,16.0388%,1)"/>
  <circle cx="4" cy="10" r="1" fill="srgba(91.8608%,18.3978%,16.025%,1)"/>
  <circle cx="5" cy="10" r="1" fill="srgba(67.3854%,28.5634%,15.6359%,1)"/>
  <circle cx="6" cy="10" r="1" fill="srgba(60.0305%,31.6091%,15.5108%,1)"/>
  <circle cx="7" cy="10" r="1" fill="srgba(60.4593%,31.4305%,15.5184%,1)"/>
  <circle cx="8" cy="10" r="1" fill="srgba(60.4593%,31.4305%,15.5184%,1)"/>
  <circle cx="9" cy="10" r="1" fill="srgba(60.4593%,31.4305%,15.5184%,1)"/>
  <circle cx="10" cy="10" r="1" fill="srgba(60.4593%,31.4305%,15.5184%,1)"/>
  <circle cx="11" cy="10" r="1" fill="srgba(60.4593%,31.4305%,15.5184%,1)"/>
  <circle cx="12" cy="10" r="1" fill="srgba(60.4593%,31.4305%,15.5184%,1)"/>
  <circle cx="13" cy="10" r="1" fill="srgba(60.4593%,31.4305%,15.5184%,1)"/>
  <circle cx="14" cy="10" r="1" fill="srgba(60.4593%,31.4305%,15.5184%,1)"/>
  <circle cx="15" cy="10" r="1" fill="srgba(60.4593%,31.4305%,15.5184%,1)"/>
  <circle cx="0" cy="11" r="1" fill="srgba(239,45,41,1)"/>
  <circle cx="1" cy="11" r="1" fill="srgba(239,45,41,1)"/>
  <circle cx="2" cy="11" r="1" fill="srgba(239,45,41,1)"/>
  <circle cx="3" cy="11" r="1" fill="srgba(94.0505%,17.5113%,16.083%,1)"/>
  <circle cx="4" cy="11" r="1" fill="srgba(88.5008%,19.8123%,15.9899%,1)"/>
  <circle cx="5" cy="11" r="1" fill="srgba(19.8413%,48.2551%,14.8394%,1)"/>
  <circle cx="6" cy="11" r="1" fill="srgba(0%,56.7987%,14.4961%,1)"/>
  <circle cx="7" cy="11" r="1" fill="srgba(0.415045%,56.2997%,14.5159%,1)"/>
  <circle cx="8" cy="11" r="1" fill="srgba(0.415045%,56.2997%,14.5159%,1)"/>
  <circle cx="9" cy="11" r="1" fill="srgba(0.415045%,56.2997%,14.5159%,1)"/>
  <circle cx="10" cy="11" r="1" fill="srgba(0.415045%,56.2997%,14.5159%,1)"/>
  <circle cx="11" cy="11" r="1" fill="srgba(0.415045%,56.2997%,14.5159%,1)"/>
  <circle cx="12" cy="11" r="1" fill="srgba(0.415045%,56.2997%,14.5159%,1)"/>
  <circle cx="13" cy="11" r="1" fill="srgba(0.415045%,56.2997%,14.5159%,1)"/>
  <circle cx="14" cy="11" r="1" fill="srgba(0.415045%,56.2997%,14.5159%,1)"/>
  <circle cx="15" cy="11" r="1" fill="srgba(0.415045%,56.2997%,14.5159%,1)"/>
  <circle cx="0" cy="12" r="1" fill="srgba(239,45,41,1)"/>
  <circle cx="1" cy="12" r="1" fill="srgba(239,45,41,1)"/>
  <circle cx="2" cy="12" r="1" fill="srgba(239,45,41,1)"/>
  <circle cx="3" cy="12" r="1" fill="srgba(94.052%,17.5113%,16.0845%,1)"/>
  <circle cx="4" cy="12" r="1" fill="srgba(88.4779%,19.823%,15.9899%,1)"/>
  <circle cx="5" cy="12" r="1" fill="srgba(19.5117%,48.4047%,14.8348%,1)"/>
  <circle cx="6" cy="12" r="1" fill="srgba(0%,56.9879%,14.49%,1)"/>
  <circle cx="7" cy="12" r="1" fill="srgba(0%,56.4874%,14.5098%,1)"/>
  <circle cx="8" cy="12" r="1" fill="srgba(0%,56.4874%,14.5098%,1)"/>
  <circle cx="9" cy="12" r="1" fill="srgba(0%,56.4874%,14.5098%,1)"/>
  <circle cx="10" cy="12" r="1" fill="srgba(0%,56.4874%,14.5098%,1)"/>
  <circle cx="11" cy="12" r="1" fill="srgba(0%,56.4874%,14.5098%,1)"/>
  <circle cx="12" cy="12" r="1" fill="srgba(0%,56.4874%,14.5098%,1)"/>
  <circle cx="13" cy="12" r="1" fill="srgba(0%,56.4874%,14.5098%,1)"/>
  <circle cx="14" cy="12" r="1" fill="srgba(0%,56.4874%,14.5098%,1)"/>
  <circle cx="15" cy="12" r="1" fill="srgba(0%,56.4874%,14.5098%,1)"/>
  <circle cx="0" cy="13" r="1" fill="srgba(239,45,41,1)"/>
  <circle cx="1" cy="13" r="1" fill="srgba(239,45,41,1)"/>
  <circle cx="2" cy="13" r="1" fill="srgba(239,45,41,1)"/>
  <circle cx="3" cy="13" r="1" fill="srgba(94.052%,17.5113%,16.0845%,1)"/>
  <circle cx="4" cy="13" r="1" fill="srgba(88.4779%,19.823%,15.9899%,1)"/>
  <circle cx="5" cy="13" r="1" fill="srgba(19.5132%,48.3909%,14.8348%,1)"/>
  <circle cx="6" cy="13" r="1" fill="srgba(0%,56.9711%,14.49%,1)"/>
  <circle cx="7" cy="13" r="1" fill="srgba(0,144,37,1)"/>
  <circle cx="8" cy="13" r="1" fill="srgba(0,144,37,1)"/>
  <circle cx="9" cy="13" r="1" fill="srgba(0,144,37,1)"/>
  <circle cx="10" cy="13" r="1" fill="srgba(0,144,37,1)"/>
  <circle cx="11" cy="13" r="1" fill="srgba(0,144,37,1)"/>
  <circle cx="12" cy="13" r="1" fill="srgba(0,144,37,1)"/>
  <circle cx="13" cy="13" r="1" fill="srgba(0,144,37,1)"/>
  <circle cx="14" cy="13" r="1" fill="srgba(0,144,37,1)"/>
  <circle cx="15" cy="13" r="1" fill="srgba(0,144,37,1)"/>
  <circle cx="0" cy="14" r="1" fill="srgba(239,45,41,1)"/>
  <circle cx="1" cy="14" r="1" fill="srgba(239,45,41,1)"/>
  <circle cx="2" cy="14" r="1" fill="srgba(239,45,41,1)"/>
  <circle cx="3" cy="14" r="1" fill="srgba(94.052%,17.5113%,16.0845%,1)"/>
  <circle cx="4" cy="14" r="1" fill="srgba(88.4779%,19.823%,15.9899%,1)"/>
  <circle cx="5" cy="14" r="1" fill="srgba(19.5132%,48.3909%,14.8348%,1)"/>
  <circle cx="6" cy="14" r="1" fill="srgba(0%,56.9711%,14.49%,1)"/>
  <circle cx="7" cy="14" r="1" fill="srgba(0,144,37,1)"/>
  <circle cx="8" cy="14" r="1" fill="srgba(0,144,37,1)"/>
  <circle cx="9" cy="14" r="1" fill="srgba(0,144,37,1)"/>
  <circle cx="10" cy="14" r="1" fill="srgba(0,144,37,1)"/>
  <circle cx="11" cy="14" r="1" fill="srgba(0,144,37,1)"/>
  <circle cx="12" cy="14" r="1" fill="srgba(0,144,37,1)"/>
  <circle cx="13" cy="14" r="1" fill="srgba(0,144,37,1)"/>
  <circle cx="14" cy="14" r="1" fill="srgba(0,144,37,1)"/>
  <circle cx="15" cy="14" r="1" fill="srgba(0,144,37,1)"/>
  <circle cx="0" cy="15" r="1" fill="srgba(239,45,41,1)"/>
  <circle cx="1" cy="15" r="1" fill="srgba(239,45,41,1)"/>
  <circle cx="2" cy="15" r="1" fill="srgba(239,45,41,1)"/>
  <circle cx="3" cy="15" r="1" fill="srgba(94.052%,17.5113%,16.0845%,1)"/>
  <circle cx="4" cy="15" r="1" fill="srgba(88.4779%,19.823%,15.9899%,1)"/>
  <circle cx="5" cy="15" r="1" fill="srgba(19.5132%,48.3909%,14.8348%,1)"/>
  <circle cx="6" cy="15" r="1" fill="srgba(0%,56.9711%,14.49%,1)"/>
  <circle cx="7" cy="15" r="1" fill="srgba(0,144,37,1)"/>
  <circle cx="8" cy="15" r="1" fill="srgba(0,144,37,1)"/>
  <circle cx="9" cy="15" r="1" fill="srgba(0,144,37,1)"/>
  <circle cx="10" cy="15" r="1" fill="srgba(0,144,37,1)"/>
  <circle cx="11" cy="15" r="1" fill="srgba(0,144,37,1)"/>
  <circle cx="12" cy="15" r="1" fill="srgba(0,144,37,1)"/>
  <circle cx="13" cy="15" r="1" fill="srgba(0,144,37,1)"/>
  <circle cx="14" cy="15" r="1" fill="srgba(0,144,37,1)"/>
  <circle cx="15" cy="15" r="1" fill="srgba(0,144,37,1)"/>
</svg>
