<?xml version="1.0" standalone="no"?>
<!DOCTYPE svg PUBLIC "-//W3C//DTD SVG 20010904//EN"
  "http://www.w3.org/TR/2001/REC-SVG-20010904/DTD/svg10.dtd">
<svg width="16" height="16">
  <circle cx="0" cy="0" r="1" fill="white"/>
  <circle cx="1" cy="0" r="1" fill="white"/>
  <circle cx="2" cy="0" r="1" fill="white"/>
  <circle cx="3" cy="0" r="1" fill="white"/>
  <circle cx="4" cy="0" r="1" fill="white"/>
  <circle cx="5" cy="0" r="1" fill="white"/>
  <circle cx="6" cy="0" r="1" fill="white"/>
  <circle cx="7" cy="0" r="1" fill="srgba(98.1353%,86.7948%,86.7948%,1)"/>
  <circle cx="8" cy="0" r="1" fill="srgba(87.4327%,10.9911%,10.9911%,1)"/>
  <circle cx="9" cy="0" r="1" fill="srgba(85.7816%,0%,0%,1)"/>
  <circle cx="10" cy="0" r="1" fill="srgba(219,0,0,1)"/>
  <circle cx="11" cy="0" r="1" fill="srgba(219,0,0,1)"/>
  <circle cx="12" cy="0" r="1" fill="srgba(219,0,0,1)"/>
  <circle cx="13" cy="0" r="1" fill="srgba(219,0,0,1)"/>
  <circle cx="14" cy="0" r="1" fill="srgba(219,0,0,1)"/>
  <circle cx="15" cy="0" r="1" fill="srgba(219,0,0,1)"/>
  <circle cx="0" cy="1" r="1" fill="white"/>
  <circle cx="1" cy="1" r="1" fill="white"/>
  <circle cx="2" cy="1" r="1" fill="white"/>
  <circle cx="3" cy="1" r="1" fill="srgba(98.0911%,98.0911%,99.3713%,1)"/>
  <circle cx="4" cy="1" r="1" fill="srgba(96.7086%,96.7086%,98.9166%,1)"/>
  <circle cx="5" cy="1" r="1" fill="white"/>
  <circle cx="6" cy="1" r="1" fill="white"/>
  <circle cx="7" cy="1" r="1" fill="srgba(98.1353%,86.7948%,86.7948%,1)"/>
  <circle cx="8" cy="1" r="1" fill="srgba(87.4327%,10.9911%,10.9911%,1)"/>
  <circle cx="9" cy="1" r="1" fill="srgba(85.7816%,0%,0%,1)"/>
  <circle cx="10" cy="1" r="1" fill="srgba(219,0,0,1)"/>
  <circle cx="11" cy="1" r="1" fill="srgba(219,0,0,1)"/>
  <circle cx="12" cy="1" r="1" fill="srgba(219,0,0,1)"/>
  <circle cx="13" cy="1" r="1" fill="srgba(219,0,0,1)"/>
  <circle cx="14" cy="1" r="1" fill="srgba(219,0,0,1)"/>
  <circle cx="15" cy="1" r="1" fill="srgba(219,0,0,1)"/>
  <circle cx="0" cy="2" r="1" fill="white"/>
  <circle cx="1" cy="2" r="1" fill="srgba(99.4247%,99.4247%,99.8108%,1)"/>
  <circle cx="2" cy="2" r="1" fill="srgba(98.0774%,98.0774%,99.3668%,1)"/>
  <circle cx="3" cy="2" r="1" fill="srgba(76.4721%,76.4721%,92.2499%,1)"/>
  <circle cx="4" cy="2" r="1" fill="srgba(63.9521%,63.9521%,88.1254%,1)"/>
  <circle cx="5" cy="2" r="1" fill="white"/>
  <circle cx="6" cy="2" r="1" fill="white"/>
  <circle cx="7" cy="2" r="1" fill="srgba(98.1353%,86.7948%,86.7948%,1)"/>
  <circle cx="8" cy="2" r="1" fill="srgba(87.4327%,10.9911%,10.9911%,1)"/>
  <circle cx="9" cy="2" r="1" fill="srgba(85.7816%,0%,0%,1)"/>
  <circle cx="10" cy="2" r="1" fill="srgba(219,0,0,1)"/>
  <circle cx="11" cy="2" r="1" fill="srgba(219,0,0,1)"/>
  <circle cx="12" cy="2" r="1" fill="srgba(219,0,0,1)"/>
  <circle cx="13" cy="2" r="1" fill="srgba(219,0,0,1)"/>
  <circle cx="14" cy="2" r="1" fill="srgba(219,0,0,1)"/>
  <circle cx="15" cy="2" r="1" fill="srgba(219,0,0,1)"/>
  <circle cx="0" cy="3" r="1" fill="white"/>
  <circle cx="1" cy="3" r="1" fill="srgba(97.3693%,97.3693%,99.1333%,1)"/>
  <circle cx="2" cy="3" r="1" fill="srgba(63.0808%,63.0808%,87.8492%,1)"/>
  <circle cx="3" cy="3" r="1" fill="srgba(19.7375%,19.7375%,73.3608%,1)"/>
  <circle cx="4" cy="3" r="1" fill="srgba(18.909%,18.909%,72.9549%,1)"/>
  <circle cx="5" cy="3" r="1" fill="srgba(84.9439%,84.9439%,95.05%,1)"/>
  <circle cx="6" cy="3" r="1" fill="white"/>
  <circle cx="7" cy="3" r="1" fill="srgba(98.1353%,86.7964%,86.7948%,1)"/>
  <circle cx="8" cy="3" r="1" fill="srgba(87.4327%,10.9911%,10.9911%,1)"/>
  <circle cx="9" cy="3" r="1" fill="srgba(85.7816%,0%,0%,1)"/>
  <circle cx="10" cy="3" r="1" fill="srgba(219,0,0,1)"/>
  <circle cx="11" cy="3" r="1" fill="srgba(219,0,0,1)"/>
  <circle cx="12" cy="3" r="1" fill="srgba(219,0,0,1)"/>
  <circle cx="13" cy="3" r="1" fill="srgba(219,0,0,1)"/>
  <circle cx="14" cy="3" r="1" fill="srgba(219,0,0,1)"/>
  <circle cx="15" cy="3" r="1" fill="srgba(219,0,0,1)"/>
  <circle cx="0" cy="4" r="1" fill="white"/>
  <circle cx="1" cy="4" r="1" fill="white"/>
  <circle cx="2" cy="4" r="1" fill="srgba(86.1753%,86.1753%,95.4406%,1)"/>
  <circle cx="3" cy="4" r="1" fill="srgba(21.4267%,21.4267%,74.1009%,1)"/>
  <circle cx="4" cy="4" r="1" fill="srgba(10.4875%,10.4875%,70.5135%,1)"/>
  <circle cx="5" cy="4" r="1" fill="srgba(27.0024%,27.0024%,75.9533%,1)"/>
  <circle cx="6" cy="4" r="1" fill="srgba(89.2668%,89.9992%,97.2793%,1)"/>
  <circle cx="7" cy="4" r="1" fill="srgba(98.7396%,87.4006%,86.9947%,1)"/>
  <circle cx="8" cy="4" r="1" fill="srgba(87.4327%,10.9911%,10.9911%,1)"/>
  <circle cx="9" cy="4" r="1" fill="srgba(85.7816%,0%,0%,1)"/>
  <circle cx="10" cy="4" r="1" fill="srgba(219,0,0,1)"/>
  <circle cx="11" cy="4" r="1" fill="srgba(219,0,0,1)"/>
  <circle cx="12" cy="4" r="1" fill="srgba(219,0,0,1)"/>
  <circle cx="13" cy="4" r="1" fill="srgba(219,0,0,1)"/>
  <circle cx="14" cy="4" r="1" fill="srgba(219,0,0,1)"/>
  <circle cx="15" cy="4" r="1" fill="srgba(219,0,0,1)"/>
  <circle cx="0" cy="5" r="1" fill="white"/>
  <circle cx="1" cy="5" r="1" fill="white"/>
  <circle cx="2" cy="5" r="1" fill="srgba(89.8405%,89.8405%,96.6537%,1)"/>
  <circle cx="3" cy="5" r="1" fill="srgba(78.6526%,78.6526%,92.9686%,1)"/>
  <circle cx="4" cy="5" r="1" fill="srgba(82.8717%,82.8717%,94.3572%,1)"/>
  <circle cx="5" cy="5" r="1" fill="srgba(42.4216%,42.4216%,81.033%,1)"/>
  <circle cx="6" cy="5" r="1" fill="srgba(82.6978%,83.4318%,95.1156%,1)"/>
  <circle cx="7" cy="5" r="1" fill="srgba(98.9715%,87.631%,87.071%,1)"/>
  <circle cx="8" cy="5" r="1" fill="srgba(87.4327%,10.9911%,10.9911%,1)"/>
  <circle cx="9" cy="5" r="1" fill="srgba(85.7816%,0%,0%,1)"/>
  <circle cx="10" cy="5" r="1" fill="srgba(219,0,0,1)"/>
  <circle cx="11" cy="5" r="1" fill="srgba(219,0,0,1)"/>
  <circle cx="12" cy="5" r="1" fill="srgba(219,0,0,1)"/>
  <circle cx="13" cy="5" r="1" fill="srgba(219,0,0,1)"/>
  <circle cx="14" cy="5" r="1" fill="srgba(219,0,0,1)"/>
  <circle cx="15" cy="5" r="1" fill="srgba(219,0,0,1)"/>
  <circle cx="0" cy="6" r="1" fill="white"/>
  <circle cx="1" cy="6" r="1" fill="white"/>
  <circle cx="2" cy="6" r="1" fill="srgba(99.9664%,99.9664%,99.9893%,1)"/>
  <circle cx="3" cy="6" r="1" fill="white"/>
  <circle cx="4" cy="6" r="1" fill="srgba(95.4147%,95.4147%,98.4894%,1)"/>
  <circle cx="5" cy="6" r="1" fill="srgba(71.6808%,71.6808%,90.6737%,1)"/>
  <circle cx="6" cy="6" r="1" fill="srgba(99.2691%,100%,100%,1)"/>
  <circle cx="7" cy="6" r="1" fill="srgba(98.1323%,86.7994%,86.7887%,1)"/>
  <circle cx="8" cy="6" r="1" fill="srgba(87.3228%,10.9865%,10.9819%,1)"/>
  <circle cx="9" cy="6" r="1" fill="srgba(85.6504%,0%,0%,1)"/>
  <circle cx="10" cy="6" r="1" fill="srgba(85.7527%,0%,0%,1)"/>
  <circle cx="11" cy="6" r="1" fill="srgba(85.7527%,0%,0%,1)"/>
  <circle cx="12" cy="6" r="1" fill="srgba(85.7527%,0%,0%,1)"/>
  <circle cx="13" cy="6" r="1" fill="srgba(85.7527%,0%,0%,1)"/>
  <circle cx="14" cy="6" r="1" fill="srgba(85.7527%,0%,0%,1)"/>
  <circle cx="15" cy="6" r="1" fill="srgba(85.7527%,0%,0%,1)"/>
  <circle cx="0" cy="7" r="1" fill="srgba(85.8457%,85.8457%,95.3368%,1)"/>
  <circle cx="1" cy="7" r="1" fill="srgba(85.8457%,85.8457%,95.3368%,1)"/>
  <circle cx="2" cy="7" r="1" fill="srgba(85.8488%,85.8488%,95.3368%,1)"/>
  <circle cx="3" cy="7" r="1" fill="srgba(85.8579%,85.8579%,95.3399%,1)"/>
  <circle cx="4" cy="7" r="1" fill="srgba(85.2323%,85.2323%,95.1354%,1)"/>
  <circle cx="5" cy="7" r="1" fill="srgba(77.8866%,77.8866%,92.7153%,1)"/>
  <circle cx="6" cy="7" r="1" fill="srgba(85.3254%,85.9556%,95.8648%,1)"/>
  <circle cx="7" cy="7" r="1" fill="srgba(86.1082%,76.3729%,84.6143%,1)"/>
  <circle cx="8" cy="7" r="1" fill="srgba(87.6463%,22.0127%,23.061%,1)"/>
  <circle cx="9" cy="7" r="1" fill="srgba(87.895%,13.6294%,13.5622%,1)"/>
  <circle cx="10" cy="7" r="1" fill="srgba(87.8798%,14.139%,14.139%,1)"/>
  <circle cx="11" cy="7" r="1" fill="srgba(87.8798%,14.139%,14.139%,1)"/>
  <circle cx="12" cy="7" r="1" fill="srgba(87.8798%,14.139%,14.139%,1)"/>
  <circle cx="13" cy="7" r="1" fill="srgba(87.8798%,14.139%,14.139%,1)"/>
  <circle cx="14" cy="7" r="1" fill="srgba(87.8798%,14.139%,14.139%,1)"/>
  <circle cx="15" cy="7" r="1" fill="srgba(87.8798%,14.139%,14.139%,1)"/>
  <circle cx="0" cy="8" r="1" fill="srgba(10.1442%,10.1442%,70.399%,1)"/>
  <circle cx="1" cy="8" r="1" fill="srgba(10.1442%,10.1442%,70.399%,1)"/>
  <circle cx="2" cy="8" r="1" fill="srgba(10.1442%,10.1442%,70.399%,1)"/>
  <circle cx="3" cy="8" r="1" fill="srgba(10.1442%,10.1442%,70.399%,1)"/>
  <circle cx="4" cy="8" r="1" fill="srgba(10.1747%,10.1747%,70.4097%,1)"/>
  <circle cx="5" cy="8" r="1" fill="srgba(10.4479%,10.4479%,70.4997%,1)"/>
  <circle cx="6" cy="8" r="1" fill="srgba(9.40566%,9.48043%,70.2388%,1)"/>
  <circle cx="7" cy="8" r="1" fill="srgba(21.7594%,20.6088%,72.9458%,1)"/>
  <circle cx="8" cy="8" r="1" fill="srgba(88.7922%,81.0285%,87.6875%,1)"/>
  <circle cx="9" cy="8" r="1" fill="srgba(99.1989%,90.4143%,89.9825%,1)"/>
  <circle cx="10" cy="8" r="1" fill="srgba(98.5672%,89.8421%,89.8421%,1)"/>
  <circle cx="11" cy="8" r="1" fill="srgba(98.5687%,89.8573%,89.8573%,1)"/>
  <circle cx="12" cy="8" r="1" fill="srgba(98.5702%,89.868%,89.868%,1)"/>
  <circle cx="13" cy="8" r="1" fill="srgba(98.5672%,89.8421%,89.8421%,1)"/>
  <circle cx="14" cy="8" r="1" fill="srgba(98.5672%,89.8436%,89.8436%,1)"/>
  <circle cx="15" cy="8" r="1" fill="srgba(98.5672%,89.8436%,89.8436%,1)"/>
  <circle cx="0" cy="9" r="1" fill="srgba(0%,0%,66.8437%,1)"/>
  <circle cx="1" cy="9" r="1" fill="srgba(0%,0%,66.8437%,1)"/>
  <circle cx="2" cy="9" r="1" fill="srgba(0%,0%,66.8437%,1)"/>
  <circle cx="3" cy="9" r="1" fill="srgba(0%,0%,66.8437%,1)"/>
  <circle cx="4" cy="9" r="1" fill="srgba(0%,0%,66.8437%,1)"/>
  <circle cx="5" cy="9" r="1" fill="srgba(0%,0%,66.8437%,1)"/>
  <circle cx="6" cy="9" r="1" fill="srgba(0%,0%,66.5614%,1)"/>
  <circle cx="7" cy="9" r="1" fill="srgba(13.135%,13.1411%,71.2047%,1)"/>
  <circle cx="8" cy="9" r="1" fill="srgba(88.9433%,88.9494%,96.3394%,1)"/>
  <circle cx="9" cy="9" r="1" fill="white"/>
  <circle cx="10" cy="9" r="1" fill="white"/>
  <circle cx="11" cy="9" r="1" fill="srgba(99.9741%,99.8383%,99.8383%,1)"/>
  <circle cx="12" cy="9" r="1" fill="srgba(99.9542%,99.7086%,99.7086%,1)"/>
  <circle cx="13" cy="9" r="1" fill="white"/>
  <circle cx="14" cy="9" r="1" fill="white"/>
  <circle cx="15" cy="9" r="1" fill="white"/>
  <circle cx="0" cy="10" r="1" fill="srgba(0,0,171,1)"/>
  <circle cx="1" cy="10" r="1" fill="srgba(0,0,171,1)"/>
  <circle cx="2" cy="10" r="1" fill="srgba(0,0,171,1)"/>
  <circle cx="3" cy="10" r="1" fill="srgba(0,0,171,1)"/>
  <circle cx="4" cy="10" r="1" fill="srgba(0,0,171,1)"/>
  <circle cx="5" cy="10" r="1" fill="srgba(0,0,171,1)"/>
  <circle cx="6" cy="10" r="1" fill="srgba(0%,0%,66.7796%,1)"/>
  <circle cx="7" cy="10" r="1" fill="srgba(13.138%,13.138%,71.3832%,1)"/>
  <circle cx="8" cy="10" r="1" fill="srgba(88.9464%,88.9464%,96.3561%,1)"/>
  <circle cx="9" cy="10" r="1" fill="white"/>
  <circle cx="10" cy="10" r="1" fill="white"/>
  <circle cx="11" cy="10" r="1" fill="srgba(98.1415%,87.8462%,87.8462%,1)"/>
  <circle cx="12" cy="10" r="1" fill="srgba(96.7742%,78.9044%,78.9044%,1)"/>
  <circle cx="13" cy="10" r="1" fill="white"/>
  <circle cx="14" cy="10" r="1" fill="white"/>
  <circle cx="15" cy="10" r="1" fill="white"/>
  <circle cx="0" cy="11" r="1" fill="srgba(0,0,171,1)"/>
  <circle cx="1" cy="11" r="1" fill="srgba(0,0,171,1)"/>
  <circle cx="2" cy="11" r="1" fill="srgba(0,0,171,1)"/>
  <circle cx="3" cy="11" r="1" fill="srgba(0,0,171,1)"/>
  <circle cx="4" cy="11" r="1" fill="srgba(0,0,171,1)"/>
  <circle cx="5" cy="11" r="1" fill="srgba(0,0,171,1)"/>
  <circle cx="6" cy="11" r="1" fill="srgba(0%,0%,66.7796%,1)"/>
  <circle cx="7" cy="11" r="1" fill="srgba(13.138%,13.138%,71.3832%,1)"/>
  <circle cx="8" cy="11" r="1" fill="srgba(88.9723%,89.1218%,96.5316%,1)"/>
  <circle cx="9" cy="11" r="1" fill="srgba(100%,98.117%,97.6379%,1)"/>
  <circle cx="10" cy="11" r="1" fill="srgba(95.8892%,73.1029%,73.1029%,1)"/>
  <circle cx="11" cy="11" r="1" fill="srgba(90.7012%,39.443%,39.443%,1)"/>
  <circle cx="12" cy="11" r="1" fill="srgba(89.8344%,33.9696%,33.9696%,1)"/>
  <circle cx="13" cy="11" r="1" fill="srgba(99.2996%,95.3979%,95.3979%,1)"/>
  <circle cx="14" cy="11" r="1" fill="white"/>
  <circle cx="15" cy="11" r="1" fill="white"/>
  <circle cx="0" cy="12" r="1" fill="srgba(0,0,171,1)"/>
  <circle cx="1" cy="12" r="1" fill="srgba(0,0,171,1)"/>
  <circle cx="2" cy="12" r="1" fill="srgba(0,0,171,1)"/>
  <circle cx="3" cy="12" r="1" fill="srgba(0,0,171,1)"/>
  <circle cx="4" cy="12" r="1" fill="srgba(0,0,171,1)"/>
  <circle cx="5" cy="12" r="1" fill="srgba(0,0,171,1)"/>
  <circle cx="6" cy="12" r="1" fill="srgba(0%,0%,66.7796%,1)"/>
  <circle cx="7" cy="12" r="1" fill="srgba(13.138%,13.138%,71.3832%,1)"/>
  <circle cx="8" cy="12" r="1" fill="srgba(88.954%,88.9967%,96.4065%,1)"/>
  <circle cx="9" cy="12" r="1" fill="white"/>
  <circle cx="10" cy="12" r="1" fill="srgba(96.5423%,77.4777%,77.4777%,1)"/>
  <circle cx="11" cy="12" r="1" fill="srgba(86.5309%,12.8893%,12.8893%,1)"/>
  <circle cx="12" cy="12" r="1" fill="srgba(84.9531%,2.14542%,2.14542%,1)"/>
  <circle cx="13" cy="12" r="1" fill="srgba(91.9875%,47.6921%,47.6921%,1)"/>
  <circle cx="14" cy="12" r="1" fill="srgba(99.5453%,97.0214%,97.0214%,1)"/>
  <circle cx="15" cy="12" r="1" fill="white"/>
  <circle cx="0" cy="13" r="1" fill="srgba(0,0,171,1)"/>
  <circle cx="1" cy="13" r="1" fill="srgba(0,0,171,1)"/>
  <circle cx="2" cy="13" r="1" fill="srgba(0,0,171,1)"/>
  <circle cx="3" cy="13" r="1" fill="srgba(0,0,171,1)"/>
  <circle cx="4" cy="13" r="1" fill="srgba(0,0,171,1)"/>
  <circle cx="5" cy="13" r="1" fill="srgba(0,0,171,1)"/>
  <circle cx="6" cy="13" r="1" fill="srgba(0%,0%,66.7796%,1)"/>
  <circle cx="7" cy="13" r="1" fill="srgba(13.138%,13.138%,71.3832%,1)"/>
  <circle cx="8" cy="13" r="1" fill="srgba(88.9464%,88.9464%,96.3561%,1)"/>
  <circle cx="9" cy="13" r="1" fill="white"/>
  <circle cx="10" cy="13" r="1" fill="srgba(98.1155%,87.6661%,87.6661%,1)"/>
  <circle cx="11" cy="13" r="1" fill="srgba(93.3196%,56.3149%,56.3149%,1)"/>
  <circle cx="12" cy="13" r="1" fill="srgba(93.64%,58.4176%,58.4176%,1)"/>
  <circle cx="13" cy="13" r="1" fill="srgba(88.4062%,24.2008%,24.2008%,1)"/>
  <circle cx="14" cy="13" r="1" fill="srgba(96.6247%,77.9309%,77.9309%,1)"/>
  <circle cx="15" cy="13" r="1" fill="white"/>
  <circle cx="0" cy="14" r="1" fill="srgba(0,0,171,1)"/>
  <circle cx="1" cy="14" r="1" fill="srgba(0,0,171,1)"/>
  <circle cx="2" cy="14" r="1" fill="srgba(0,0,171,1)"/>
  <circle cx="3" cy="14" r="1" fill="srgba(0,0,171,1)"/>
  <circle cx="4" cy="14" r="1" fill="srgba(0,0,171,1)"/>
  <circle cx="5" cy="14" r="1" fill="srgba(0,0,171,1)"/>
  <circle cx="6" cy="14" r="1" fill="srgba(0%,0%,66.7796%,1)"/>
  <circle cx="7" cy="14" r="1" fill="srgba(13.138%,13.138%,71.3832%,1)"/>
  <circle cx="8" cy="14" r="1" fill="srgba(88.9464%,88.9464%,96.3561%,1)"/>
  <circle cx="9" cy="14" r="1" fill="white"/>
  <circle cx="10" cy="14" r="1" fill="srgba(99.7192%,98.1628%,98.1628%,1)"/>
  <circle cx="11" cy="14" r="1" fill="srgba(99.8184%,98.8128%,98.8128%,1)"/>
  <circle cx="12" cy="14" r="1" fill="srgba(99.3072%,95.4742%,95.4742%,1)"/>
  <circle cx="13" cy="14" r="1" fill="srgba(95.0332%,67.5135%,67.5135%,1)"/>
  <circle cx="14" cy="14" r="1" fill="srgba(99.4675%,96.5118%,96.5118%,1)"/>
  <circle cx="15" cy="14" r="1" fill="white"/>
  <circle cx="0" cy="15" r="1" fill="srgba(0,0,171,1)"/>
  <circle cx="1" cy="15" r="1" fill="srgba(0,0,171,1)"/>
  <circle cx="2" cy="15" r="1" fill="srgba(0,0,171,1)"/>
  <circle cx="3" cy="15" r="1" fill="srgba(0,0,171,1)"/>
  <circle cx="4" cy="15" r="1" fill="srgba(0,0,171,1)"/>
  <circle cx="5" cy="15" r="1" fill="srgba(0,0,171,1)"/>
  <circle cx="6" cy="15" r="1" fill="srgba(0%,0%,66.7796%,1)"/>
  <circle cx="7" cy="15" r="1" fill="srgba(13.138%,13.138%,71.3832%,1)"/>
  <circle cx="8" cy="15" r="1" fill="srgba(88.9464%,88.9464%,96.3561%,1)"/>
  <circle cx="9" cy="15" r="1" fill="white"/>
  <circle cx="10" cy="15" r="1" fill="white"/>
  <circle cx="11" cy="15" r="1" fill="white"/>
  <circle cx="12" cy="15" r="1" fill="srgba(99.6735%,97.8622%,97.8622%,1)"/>
  <circle cx="13" cy="15" r="1" fill="srgba(97.0642%,80.7813%,80.7813%,1)"/>
  <circle cx="14" cy="15" r="1" fill="srgba(99.8535%,99.0402%,99.0402%,1)"/>
  <circle cx="15" cy="15" r="1" fill="white"/>
</svg>
