<?xml version="1.0" standalone="no"?>
<!DOCTYPE svg PUBLIC "-//W3C//DTD SVG 20010904//EN"
  "http://www.w3.org/TR/2001/REC-SVG-20010904/DTD/svg10.dtd">
<svg width="16" height="16">
  <circle cx="0" cy="0" r="1" fill="srgba(222,32,16,1)"/>
  <circle cx="1" cy="0" r="1" fill="srgba(222,32,16,1)"/>
  <circle cx="2" cy="0" r="1" fill="srgba(222,32,16,1)"/>
  <circle cx="3" cy="0" r="1" fill="srgba(222,32,16,1)"/>
  <circle cx="4" cy="0" r="1" fill="srgba(222,32,16,1)"/>
  <circle cx="5" cy="0" r="1" fill="srgba(222,32,16,1)"/>
  <circle cx="6" cy="0" r="1" fill="srgba(222,32,16,1)"/>
  <circle cx="7" cy="0" r="1" fill="srgba(222,32,16,1)"/>
  <circle cx="8" cy="0" r="1" fill="srgba(222,32,16,1)"/>
  <circle cx="9" cy="0" r="1" fill="srgba(222,32,16,1)"/>
  <circle cx="10" cy="0" r="1" fill="srgba(222,32,16,1)"/>
  <circle cx="11" cy="0" r="1" fill="srgba(222,32,16,1)"/>
  <circle cx="12" cy="0" r="1" fill="srgba(222,32,16,1)"/>
  <circle cx="13" cy="0" r="1" fill="srgba(222,32,16,1)"/>
  <circle cx="14" cy="0" r="1" fill="srgba(222,32,16,1)"/>
  <circle cx="15" cy="0" r="1" fill="srgba(222,32,16,1)"/>
  <circle cx="0" cy="1" r="1" fill="srgba(222,32,16,1)"/>
  <circle cx="1" cy="1" r="1" fill="srgba(222,32,16,1)"/>
  <circle cx="2" cy="1" r="1" fill="srgba(222,32,16,1)"/>
  <circle cx="3" cy="1" r="1" fill="srgba(222,32,16,1)"/>
  <circle cx="4" cy="1" r="1" fill="srgba(222,32,16,1)"/>
  <circle cx="5" cy="1" r="1" fill="srgba(222,32,16,1)"/>
  <circle cx="6" cy="1" r="1" fill="srgba(222,32,16,1)"/>
  <circle cx="7" cy="1" r="1" fill="srgba(222,32,16,1)"/>
  <circle cx="8" cy="1" r="1" fill="srgba(222,32,16,1)"/>
  <circle cx="9" cy="1" r="1" fill="srgba(222,32,16,1)"/>
  <circle cx="10" cy="1" r="1" fill="srgba(222,32,16,1)"/>
  <circle cx="11" cy="1" r="1" fill="srgba(222,32,16,1)"/>
  <circle cx="12" cy="1" r="1" fill="srgba(222,32,16,1)"/>
  <circle cx="13" cy="1" r="1" fill="srgba(222,32,16,1)"/>
  <circle cx="14" cy="1" r="1" fill="srgba(222,32,16,1)"/>
  <circle cx="15" cy="1" r="1" fill="srgba(222,32,16,1)"/>
  <circle cx="0" cy="2" r="1" fill="srgba(86.9581%,11.8654%,5.54208%,1)"/>
  <circle cx="1" cy="2" r="1" fill="srgba(86.9581%,11.8654%,5.54208%,1)"/>
  <circle cx="2" cy="2" r="1" fill="srgba(86.9581%,11.8654%,5.54208%,1)"/>
  <circle cx="3" cy="2" r="1" fill="srgba(86.9581%,11.8654%,5.54208%,1)"/>
  <circle cx="4" cy="2" r="1" fill="srgba(86.9581%,11.8654%,5.54208%,1)"/>
  <circle cx="5" cy="2" r="1" fill="srgba(86.9581%,11.8654%,5.54208%,1)"/>
  <circle cx="6" cy="2" r="1" fill="srgba(86.9581%,11.8654%,5.54208%,1)"/>
  <circle cx="7" cy="2" r="1" fill="srgba(86.9581%,11.8654%,5.54208%,1)"/>
  <circle cx="8" cy="2" r="1" fill="srgba(86.9581%,11.8654%,5.54208%,1)"/>
  <circle cx="9" cy="2" r="1" fill="srgba(86.9581%,11.8654%,5.54208%,1)"/>
  <circle cx="10" cy="2" r="1" fill="srgba(86.9581%,11.8654%,5.54208%,1)"/>
  <circle cx="11" cy="2" r="1" fill="srgba(86.9581%,11.8654%,5.54208%,1)"/>
  <circle cx="12" cy="2" r="1" fill="srgba(86.9581%,11.8654%,5.54208%,1)"/>
  <circle cx="13" cy="2" r="1" fill="srgba(86.9581%,11.8654%,5.54208%,1)"/>
  <circle cx="14" cy="2" r="1" fill="srgba(86.9581%,11.8654%,5.54208%,1)"/>
  <circle cx="15" cy="2" r="1" fill="srgba(86.9581%,11.8654%,5.54208%,1)"/>
  <circle cx="0" cy="3" r="1" fill="srgba(88.6198%,23.0976%,17.5784%,1)"/>
  <circle cx="1" cy="3" r="1" fill="srgba(88.6198%,23.0976%,17.5784%,1)"/>
  <circle cx="2" cy="3" r="1" fill="srgba(88.6198%,23.0976%,17.5784%,1)"/>
  <circle cx="3" cy="3" r="1" fill="srgba(88.6198%,23.0976%,17.5784%,1)"/>
  <circle cx="4" cy="3" r="1" fill="srgba(88.6198%,23.0976%,17.5784%,1)"/>
  <circle cx="5" cy="3" r="1" fill="srgba(88.6198%,23.1022%,17.5891%,1)"/>
  <circle cx="6" cy="3" r="1" fill="srgba(88.6976%,23.5782%,18.4878%,1)"/>
  <circle cx="7" cy="3" r="1" fill="srgba(88.7419%,24.3153%,19.0082%,1)"/>
  <circle cx="8" cy="3" r="1" fill="srgba(88.6046%,23.8346%,18.4863%,1)"/>
  <circle cx="9" cy="3" r="1" fill="srgba(88.6549%,23.331%,18.0453%,1)"/>
  <circle cx="10" cy="3" r="1" fill="srgba(88.6534%,23.3722%,18.1018%,1)"/>
  <circle cx="11" cy="3" r="1" fill="srgba(88.6198%,23.0945%,17.5738%,1)"/>
  <circle cx="12" cy="3" r="1" fill="srgba(88.6198%,23.0976%,17.5784%,1)"/>
  <circle cx="13" cy="3" r="1" fill="srgba(88.6198%,23.0976%,17.5784%,1)"/>
  <circle cx="14" cy="3" r="1" fill="srgba(88.6198%,23.0976%,17.5784%,1)"/>
  <circle cx="15" cy="3" r="1" fill="srgba(88.6198%,23.0976%,17.5784%,1)"/>
  <circle cx="0" cy="4" r="1" fill="srgba(98.439%,89.4514%,88.6961%,1)"/>
  <circle cx="1" cy="4" r="1" fill="srgba(98.439%,89.4514%,88.6961%,1)"/>
  <circle cx="2" cy="4" r="1" fill="srgba(98.439%,89.4514%,88.6961%,1)"/>
  <circle cx="3" cy="4" r="1" fill="srgba(98.4375%,89.4438%,88.6809%,1)"/>
  <circle cx="4" cy="4" r="1" fill="srgba(98.4558%,89.5872%,88.954%,1)"/>
  <circle cx="5" cy="4" r="1" fill="srgba(98.5122%,89.9901%,89.7108%,1)"/>
  <circle cx="6" cy="4" r="1" fill="srgba(96.7285%,77.29%,65.3956%,1)"/>
  <circle cx="7" cy="4" r="1" fill="srgba(91.7906%,58.2177%,51.3817%,1)"/>
  <circle cx="8" cy="4" r="1" fill="srgba(92.5017%,66.5965%,63.5706%,1)"/>
  <circle cx="9" cy="4" r="1" fill="srgba(97.557%,83.5279%,77.0001%,1)"/>
  <circle cx="10" cy="4" r="1" fill="srgba(97.3007%,80.1846%,71.0811%,1)"/>
  <circle cx="11" cy="4" r="1" fill="srgba(98.4756%,89.7551%,89.2699%,1)"/>
  <circle cx="12" cy="4" r="1" fill="srgba(98.4436%,89.485%,88.7572%,1)"/>
  <circle cx="13" cy="4" r="1" fill="srgba(98.439%,89.4575%,88.7068%,1)"/>
  <circle cx="14" cy="4" r="1" fill="srgba(98.439%,89.4514%,88.6961%,1)"/>
  <circle cx="15" cy="4" r="1" fill="srgba(98.439%,89.4514%,88.6961%,1)"/>
  <circle cx="0" cy="5" r="1" fill="white"/>
  <circle cx="1" cy="5" r="1" fill="white"/>
  <circle cx="2" cy="5" r="1" fill="white"/>
  <circle cx="3" cy="5" r="1" fill="white"/>
  <circle cx="4" cy="5" r="1" fill="srgba(99.6948%,97.4853%,95.1125%,1)"/>
  <circle cx="5" cy="5" r="1" fill="srgba(97.8088%,81.9379%,65.1347%,1)"/>
  <circle cx="6" cy="5" r="1" fill="srgba(96.4813%,74.963%,52.1675%,1)"/>
  <circle cx="7" cy="5" r="1" fill="srgba(92.668%,44.1123%,17.8912%,1)"/>
  <circle cx="8" cy="5" r="1" fill="srgba(94.8196%,54.3984%,24.4144%,1)"/>
  <circle cx="9" cy="5" r="1" fill="srgba(96.8917%,75.4513%,52.3186%,1)"/>
  <circle cx="10" cy="5" r="1" fill="srgba(96.701%,73.0587%,48.2338%,1)"/>
  <circle cx="11" cy="5" r="1" fill="srgba(99.7681%,98.0468%,95.9091%,1)"/>
  <circle cx="12" cy="5" r="1" fill="white"/>
  <circle cx="13" cy="5" r="1" fill="white"/>
  <circle cx="14" cy="5" r="1" fill="white"/>
  <circle cx="15" cy="5" r="1" fill="white"/>
  <circle cx="0" cy="6" r="1" fill="white"/>
  <circle cx="1" cy="6" r="1" fill="white"/>
  <circle cx="2" cy="6" r="1" fill="white"/>
  <circle cx="3" cy="6" r="1" fill="white"/>
  <circle cx="4" cy="6" r="1" fill="srgba(98.5321%,88.0674%,77.3266%,1)"/>
  <circle cx="5" cy="6" r="1" fill="srgba(96.7819%,73.846%,50.3075%,1)"/>
  <circle cx="6" cy="6" r="1" fill="srgba(98.2223%,85.8183%,72.9656%,1)"/>
  <circle cx="7" cy="6" r="1" fill="srgba(94.4106%,55.2605%,21.387%,1)"/>
  <circle cx="8" cy="6" r="1" fill="srgba(92.3217%,56.08%,22.0859%,1)"/>
  <circle cx="9" cy="6" r="1" fill="srgba(96.817%,74.9523%,52.3018%,1)"/>
  <circle cx="10" cy="6" r="1" fill="srgba(96.4736%,71.3207%,45.51%,1)"/>
  <circle cx="11" cy="6" r="1" fill="srgba(96.9696%,75.3643%,53.1899%,1)"/>
  <circle cx="12" cy="6" r="1" fill="srgba(97.261%,77.7356%,57.6959%,1)"/>
  <circle cx="13" cy="6" r="1" fill="srgba(98.9258%,91.2612%,83.3951%,1)"/>
  <circle cx="14" cy="6" r="1" fill="srgba(99.939%,99.498%,99.0448%,1)"/>
  <circle cx="15" cy="6" r="1" fill="white"/>
  <circle cx="0" cy="7" r="1" fill="white"/>
  <circle cx="1" cy="7" r="1" fill="white"/>
  <circle cx="2" cy="7" r="1" fill="white"/>
  <circle cx="3" cy="7" r="1" fill="white"/>
  <circle cx="4" cy="7" r="1" fill="srgba(98.4131%,87.0726%,75.4314%,1)"/>
  <circle cx="5" cy="7" r="1" fill="srgba(97.3434%,77.9492%,58.0392%,1)"/>
  <circle cx="6" cy="7" r="1" fill="srgba(97.5738%,84.8722%,71.4412%,1)"/>
  <circle cx="7" cy="7" r="1" fill="srgba(82.0523%,58.175%,47.4601%,1)"/>
  <circle cx="8" cy="7" r="1" fill="srgba(72.4529%,49.8054%,43.3768%,1)"/>
  <circle cx="9" cy="7" r="1" fill="srgba(91.8135%,74.7402%,56.5377%,1)"/>
  <circle cx="10" cy="7" r="1" fill="srgba(97.4166%,76.3241%,54.5647%,1)"/>
  <circle cx="11" cy="7" r="1" fill="srgba(96.257%,69.3553%,41.7243%,1)"/>
  <circle cx="12" cy="7" r="1" fill="srgba(95.4376%,62.9587%,29.6101%,1)"/>
  <circle cx="13" cy="7" r="1" fill="srgba(95.6725%,64.8859%,33.2738%,1)"/>
  <circle cx="14" cy="7" r="1" fill="srgba(96.9894%,75.5612%,53.5622%,1)"/>
  <circle cx="15" cy="7" r="1" fill="srgba(98.9441%,91.3893%,83.6484%,1)"/>
  <circle cx="0" cy="8" r="1" fill="white"/>
  <circle cx="1" cy="8" r="1" fill="white"/>
  <circle cx="2" cy="8" r="1" fill="white"/>
  <circle cx="3" cy="8" r="1" fill="white"/>
  <circle cx="4" cy="8" r="1" fill="srgba(99.9603%,99.4491%,98.88%,1)"/>
  <circle cx="5" cy="8" r="1" fill="srgba(96.5927%,82.9572%,69.1997%,1)"/>
  <circle cx="6" cy="8" r="1" fill="srgba(85.5894%,66.0929%,46.9657%,1)"/>
  <circle cx="7" cy="8" r="1" fill="srgba(70.6935%,61.5061%,57.8988%,1)"/>
  <circle cx="8" cy="8" r="1" fill="srgba(61.6159%,38.9273%,43.2502%,1)"/>
  <circle cx="9" cy="8" r="1" fill="srgba(86.0441%,67.1366%,54.255%,1)"/>
  <circle cx="10" cy="8" r="1" fill="srgba(95.5917%,70.0237%,45.9403%,1)"/>
  <circle cx="11" cy="8" r="1" fill="srgba(94.7189%,63.9063%,31.7922%,1)"/>
  <circle cx="12" cy="8" r="1" fill="srgba(93.3227%,50.1335%,4.16266%,1)"/>
  <circle cx="13" cy="8" r="1" fill="srgba(93.695%,50.3227%,4.07568%,1)"/>
  <circle cx="14" cy="8" r="1" fill="srgba(93.8857%,50.071%,3.7232%,1)"/>
  <circle cx="15" cy="8" r="1" fill="srgba(95.6481%,63.5492%,29.6834%,1)"/>
  <circle cx="0" cy="9" r="1" fill="white"/>
  <circle cx="1" cy="9" r="1" fill="white"/>
  <circle cx="2" cy="9" r="1" fill="white"/>
  <circle cx="3" cy="9" r="1" fill="white"/>
  <circle cx="4" cy="9" r="1" fill="srgba(88.4535%,87.9515%,89.2668%,1)"/>
  <circle cx="5" cy="9" r="1" fill="srgba(75.8892%,72.9946%,73.5805%,1)"/>
  <circle cx="6" cy="9" r="1" fill="srgba(68.7251%,43.3341%,35.0011%,1)"/>
  <circle cx="7" cy="9" r="1" fill="srgba(49.3599%,33.6629%,45.2079%,1)"/>
  <circle cx="8" cy="9" r="1" fill="srgba(48.246%,35.6893%,52.9671%,1)"/>
  <circle cx="9" cy="9" r="1" fill="srgba(82.8168%,25.7984%,26.7033%,1)"/>
  <circle cx="10" cy="9" r="1" fill="srgba(72.4987%,21.5778%,22.4277%,1)"/>
  <circle cx="11" cy="9" r="1" fill="srgba(80.1175%,20.5921%,8.63813%,1)"/>
  <circle cx="12" cy="9" r="1" fill="srgba(90.7897%,23.3463%,1.12459%,1)"/>
  <circle cx="13" cy="9" r="1" fill="srgba(89.9428%,29.3431%,1.85397%,1)"/>
  <circle cx="14" cy="9" r="1" fill="srgba(90.0023%,34.789%,2.11032%,1)"/>
  <circle cx="15" cy="9" r="1" fill="srgba(90.3853%,38.8647%,1.88907%,1)"/>
  <circle cx="0" cy="10" r="1" fill="white"/>
  <circle cx="1" cy="10" r="1" fill="white"/>
  <circle cx="2" cy="10" r="1" fill="white"/>
  <circle cx="3" cy="10" r="1" fill="white"/>
  <circle cx="4" cy="10" r="1" fill="srgba(79.8245%,80.1556%,83.4867%,1)"/>
  <circle cx="5" cy="10" r="1" fill="srgba(72.401%,78.79%,87.8294%,1)"/>
  <circle cx="6" cy="10" r="1" fill="srgba(76.9146%,39.704%,39.4797%,1)"/>
  <circle cx="7" cy="10" r="1" fill="srgba(61.8112%,13.0404%,23.3082%,1)"/>
  <circle cx="8" cy="10" r="1" fill="srgba(62.3239%,42.3774%,54.0841%,1)"/>
  <circle cx="9" cy="10" r="1" fill="srgba(85.4627%,37.3159%,40.3952%,1)"/>
  <circle cx="10" cy="10" r="1" fill="srgba(82.9038%,2.03861%,8.25513%,1)"/>
  <circle cx="11" cy="10" r="1" fill="srgba(80.061%,4.86%,11.2978%,1)"/>
  <circle cx="12" cy="10" r="1" fill="srgba(96.7758%,2.08286%,0%,1)"/>
  <circle cx="13" cy="10" r="1" fill="srgba(93.9803%,4.79438%,0.263981%,1)"/>
  <circle cx="14" cy="10" r="1" fill="srgba(91.6045%,8.64881%,0.511177%,1)"/>
  <circle cx="15" cy="10" r="1" fill="srgba(89.2866%,13.315%,0.796521%,1)"/>
  <circle cx="0" cy="11" r="1" fill="srgba(98.439%,89.4514%,88.6961%,1)"/>
  <circle cx="1" cy="11" r="1" fill="srgba(98.439%,89.4514%,88.6961%,1)"/>
  <circle cx="2" cy="11" r="1" fill="srgba(98.439%,89.4514%,88.6961%,1)"/>
  <circle cx="3" cy="11" r="1" fill="srgba(99.5834%,90.396%,89.247%,1)"/>
  <circle cx="4" cy="11" r="1" fill="srgba(75.8724%,67.7928%,71.5755%,1)"/>
  <circle cx="5" cy="11" r="1" fill="srgba(48.5542%,50.3182%,67.1885%,1)"/>
  <circle cx="6" cy="11" r="1" fill="srgba(79.1119%,36.9162%,34.2916%,1)"/>
  <circle cx="7" cy="11" r="1" fill="srgba(71.2642%,6.21653%,12.1294%,1)"/>
  <circle cx="8" cy="11" r="1" fill="srgba(62.8428%,28.6503%,38.9624%,1)"/>
  <circle cx="9" cy="11" r="1" fill="srgba(81.7319%,56.1791%,54.3938%,1)"/>
  <circle cx="10" cy="11" r="1" fill="srgba(79.5789%,32.6543%,22.8534%,1)"/>
  <circle cx="11" cy="11" r="1" fill="srgba(72.1996%,29.0929%,14.3191%,1)"/>
  <circle cx="12" cy="11" r="1" fill="srgba(89.9565%,34.342%,2.2858%,1)"/>
  <circle cx="13" cy="11" r="1" fill="srgba(89.5186%,37.1633%,3.03807%,1)"/>
  <circle cx="14" cy="11" r="1" fill="srgba(90.2022%,39.6139%,3.19524%,1)"/>
  <circle cx="15" cy="11" r="1" fill="srgba(90.8476%,41.323%,3.3051%,1)"/>
  <circle cx="0" cy="12" r="1" fill="srgba(88.6198%,23.0976%,17.5784%,1)"/>
  <circle cx="1" cy="12" r="1" fill="srgba(88.6198%,23.0976%,17.5784%,1)"/>
  <circle cx="2" cy="12" r="1" fill="srgba(88.6198%,23.0976%,17.5784%,1)"/>
  <circle cx="3" cy="12" r="1" fill="srgba(88.7984%,23.2441%,17.6623%,1)"/>
  <circle cx="4" cy="12" r="1" fill="srgba(85.2079%,19.881%,15.1095%,1)"/>
  <circle cx="5" cy="12" r="1" fill="srgba(78.9929%,15.5276%,13.4951%,1)"/>
  <circle cx="6" cy="12" r="1" fill="srgba(85.8167%,15.6603%,9.83444%,1)"/>
  <circle cx="7" cy="12" r="1" fill="srgba(85.182%,11.252%,6.53849%,1)"/>
  <circle cx="8" cy="12" r="1" fill="srgba(85.1133%,15.4116%,10.8354%,1)"/>
  <circle cx="9" cy="12" r="1" fill="srgba(88.5466%,22.4826%,15.5291%,1)"/>
  <circle cx="10" cy="12" r="1" fill="srgba(86.128%,19.0997%,10.8721%,1)"/>
  <circle cx="11" cy="12" r="1" fill="srgba(85.2293%,16.8307%,7.74395%,1)"/>
  <circle cx="12" cy="12" r="1" fill="srgba(88.2002%,17.6333%,5.84726%,1)"/>
  <circle cx="13" cy="12" r="1" fill="srgba(88.0812%,17.4258%,5.9266%,1)"/>
  <circle cx="14" cy="12" r="1" fill="srgba(88.0583%,17.2656%,5.91592%,1)"/>
  <circle cx="15" cy="12" r="1" fill="srgba(88.0171%,17.142%,5.90829%,1)"/>
  <circle cx="0" cy="13" r="1" fill="srgba(86.9581%,11.8654%,5.54208%,1)"/>
  <circle cx="1" cy="13" r="1" fill="srgba(86.9581%,11.8654%,5.54208%,1)"/>
  <circle cx="2" cy="13" r="1" fill="srgba(86.9581%,11.8654%,5.54208%,1)"/>
  <circle cx="3" cy="13" r="1" fill="srgba(86.9474%,11.8563%,5.53597%,1)"/>
  <circle cx="4" cy="13" r="1" fill="srgba(87.1748%,12.0714%,5.70077%,1)"/>
  <circle cx="5" cy="13" r="1" fill="srgba(87.5532%,12.3339%,5.79538%,1)"/>
  <circle cx="6" cy="13" r="1" fill="srgba(87.1443%,12.3491%,6.04257%,1)"/>
  <circle cx="7" cy="13" r="1" fill="srgba(87.1809%,12.6253%,6.2501%,1)"/>
  <circle cx="8" cy="13" r="1" fill="srgba(87.1931%,12.3644%,5.97696%,1)"/>
  <circle cx="9" cy="13" r="1" fill="srgba(86.9795%,11.957%,5.70993%,1)"/>
  <circle cx="10" cy="13" r="1" fill="srgba(87.1168%,12.1904%,6.01511%,1)"/>
  <circle cx="11" cy="13" r="1" fill="srgba(87.1809%,12.311%,6.18448%,1)"/>
  <circle cx="12" cy="13" r="1" fill="srgba(86.9978%,12.2606%,6.30503%,1)"/>
  <circle cx="13" cy="13" r="1" fill="srgba(87.0069%,12.2637%,6.29892%,1)"/>
  <circle cx="14" cy="13" r="1" fill="srgba(87.0069%,12.2637%,6.29892%,1)"/>
  <circle cx="15" cy="13" r="1" fill="srgba(87.0069%,12.2637%,6.29892%,1)"/>
  <circle cx="0" cy="14" r="1" fill="srgba(222,32,16,1)"/>
  <circle cx="1" cy="14" r="1" fill="srgba(222,32,16,1)"/>
  <circle cx="2" cy="14" r="1" fill="srgba(222,32,16,1)"/>
  <circle cx="3" cy="14" r="1" fill="srgba(222,32,16,1)"/>
  <circle cx="4" cy="14" r="1" fill="srgba(222,32,16,1)"/>
  <circle cx="5" cy="14" r="1" fill="srgba(222,32,16,1)"/>
  <circle cx="6" cy="14" r="1" fill="srgba(222,32,16,1)"/>
  <circle cx="7" cy="14" r="1" fill="srgba(222,32,16,1)"/>
  <circle cx="8" cy="14" r="1" fill="srgba(222,32,16,1)"/>
  <circle cx="9" cy="14" r="1" fill="srgba(222,32,16,1)"/>
  <circle cx="10" cy="14" r="1" fill="srgba(222,32,16,1)"/>
  <circle cx="11" cy="14" r="1" fill="srgba(222,32,16,1)"/>
  <circle cx="12" cy="14" r="1" fill="srgba(222,32,16,1)"/>
  <circle cx="13" cy="14" r="1" fill="srgba(222,32,16,1)"/>
  <circle cx="14" cy="14" r="1" fill="srgba(222,32,16,1)"/>
  <circle cx="15" cy="14" r="1" fill="srgba(222,32,16,1)"/>
  <circle cx="0" cy="15" r="1" fill="srgba(222,32,16,1)"/>
  <circle cx="1" cy="15" r="1" fill="srgba(222,32,16,1)"/>
  <circle cx="2" cy="15" r="1" fill="srgba(222,32,16,1)"/>
  <circle cx="3" cy="15" r="1" fill="srgba(222,32,16,1)"/>
  <circle cx="4" cy="15" r="1" fill="srgba(222,32,16,1)"/>
  <circle cx="5" cy="15" r="1" fill="srgba(222,32,16,1)"/>
  <circle cx="6" cy="15" r="1" fill="srgba(222,32,16,1)"/>
  <circle cx="7" cy="15" r="1" fill="srgba(222,32,16,1)"/>
  <circle cx="8" cy="15" r="1" fill="srgba(222,32,16,1)"/>
  <circle cx="9" cy="15" r="1" fill="srgba(222,32,16,1)"/>
  <circle cx="10" cy="15" r="1" fill="srgba(222,32,16,1)"/>
  <circle cx="11" cy="15" r="1" fill="srgba(222,32,16,1)"/>
  <circle cx="12" cy="15" r="1" fill="srgba(222,32,16,1)"/>
  <circle cx="13" cy="15" r="1" fill="srgba(222,32,16,1)"/>
  <circle cx="14" cy="15" r="1" fill="srgba(222,32,16,1)"/>
  <circle cx="15" cy="15" r="1" fill="srgba(222,32,16,1)"/>
</svg>
