<?xml version="1.0" standalone="no"?>
<!DOCTYPE svg PUBLIC "-//W3C//DTD SVG 20010904//EN"
  "http://www.w3.org/TR/2001/REC-SVG-20010904/DTD/svg10.dtd">
<svg width="16" height="16">
  <circle cx="0" cy="0" r="1" fill="red"/>
  <circle cx="1" cy="0" r="1" fill="red"/>
  <circle cx="2" cy="0" r="1" fill="red"/>
  <circle cx="3" cy="0" r="1" fill="red"/>
  <circle cx="4" cy="0" r="1" fill="red"/>
  <circle cx="5" cy="0" r="1" fill="red"/>
  <circle cx="6" cy="0" r="1" fill="red"/>
  <circle cx="7" cy="0" r="1" fill="red"/>
  <circle cx="8" cy="0" r="1" fill="red"/>
  <circle cx="9" cy="0" r="1" fill="red"/>
  <circle cx="10" cy="0" r="1" fill="red"/>
  <circle cx="11" cy="0" r="1" fill="red"/>
  <circle cx="12" cy="0" r="1" fill="red"/>
  <circle cx="13" cy="0" r="1" fill="red"/>
  <circle cx="14" cy="0" r="1" fill="red"/>
  <circle cx="15" cy="0" r="1" fill="srgba(100%,0.0381476%,0.0381476%,1)"/>
  <circle cx="0" cy="1" r="1" fill="srgba(97.9324%,0.0335698%,0.0335698%,1)"/>
  <circle cx="1" cy="1" r="1" fill="red"/>
  <circle cx="2" cy="1" r="1" fill="red"/>
  <circle cx="3" cy="1" r="1" fill="red"/>
  <circle cx="4" cy="1" r="1" fill="red"/>
  <circle cx="5" cy="1" r="1" fill="red"/>
  <circle cx="6" cy="1" r="1" fill="red"/>
  <circle cx="7" cy="1" r="1" fill="red"/>
  <circle cx="8" cy="1" r="1" fill="red"/>
  <circle cx="9" cy="1" r="1" fill="red"/>
  <circle cx="10" cy="1" r="1" fill="red"/>
  <circle cx="11" cy="1" r="1" fill="red"/>
  <circle cx="12" cy="1" r="1" fill="red"/>
  <circle cx="13" cy="1" r="1" fill="red"/>
  <circle cx="14" cy="1" r="1" fill="red"/>
  <circle cx="15" cy="1" r="1" fill="srgba(100%,0.0381476%,0.0381476%,1)"/>
  <circle cx="0" cy="2" r="1" fill="srgba(43.5248%,0.157168%,0.157168%,1)"/>
  <circle cx="1" cy="2" r="1" fill="srgba(88.0629%,0.0885023%,0.0885023%,1)"/>
  <circle cx="2" cy="2" r="1" fill="srgba(100%,0.0030518%,0.0030518%,1)"/>
  <circle cx="3" cy="2" r="1" fill="red"/>
  <circle cx="4" cy="2" r="1" fill="red"/>
  <circle cx="5" cy="2" r="1" fill="red"/>
  <circle cx="6" cy="2" r="1" fill="red"/>
  <circle cx="7" cy="2" r="1" fill="red"/>
  <circle cx="8" cy="2" r="1" fill="red"/>
  <circle cx="9" cy="2" r="1" fill="red"/>
  <circle cx="10" cy="2" r="1" fill="red"/>
  <circle cx="11" cy="2" r="1" fill="red"/>
  <circle cx="12" cy="2" r="1" fill="red"/>
  <circle cx="13" cy="2" r="1" fill="red"/>
  <circle cx="14" cy="2" r="1" fill="red"/>
  <circle cx="15" cy="2" r="1" fill="srgba(100%,0.0381476%,0.0381476%,1)"/>
  <circle cx="0" cy="3" r="1" fill="srgba(0.166323%,0.015259%,0.015259%,1)"/>
  <circle cx="1" cy="3" r="1" fill="srgba(22.1408%,0.11902%,0.11902%,1)"/>
  <circle cx="2" cy="3" r="1" fill="srgba(75.8556%,0.125124%,0.125124%,1)"/>
  <circle cx="3" cy="3" r="1" fill="srgba(99.678%,0.0167849%,0.0167849%,1)"/>
  <circle cx="4" cy="3" r="1" fill="red"/>
  <circle cx="5" cy="3" r="1" fill="red"/>
  <circle cx="6" cy="3" r="1" fill="red"/>
  <circle cx="7" cy="3" r="1" fill="red"/>
  <circle cx="8" cy="3" r="1" fill="srgba(100%,4.19776%,0%,1)"/>
  <circle cx="9" cy="3" r="1" fill="srgba(100%,16.0479%,0%,1)"/>
  <circle cx="10" cy="3" r="1" fill="srgba(100%,8.29786%,0%,1)"/>
  <circle cx="11" cy="3" r="1" fill="srgba(100%,11.7388%,0%,1)"/>
  <circle cx="12" cy="3" r="1" fill="srgba(100%,42.5208%,0%,1)"/>
  <circle cx="13" cy="3" r="1" fill="srgba(100%,16.1959%,0%,1)"/>
  <circle cx="14" cy="3" r="1" fill="red"/>
  <circle cx="15" cy="3" r="1" fill="srgba(100%,0.0137331%,0.0381476%,1)"/>
  <circle cx="0" cy="4" r="1" fill="black"/>
  <circle cx="1" cy="4" r="1" fill="black"/>
  <circle cx="2" cy="4" r="1" fill="srgba(9.2195%,0%,0%,1)"/>
  <circle cx="3" cy="4" r="1" fill="srgba(58.2498%,0.0640879%,0.0640879%,1)"/>
  <circle cx="4" cy="4" r="1" fill="srgba(96.5988%,0.047303%,0.047303%,1)"/>
  <circle cx="5" cy="4" r="1" fill="red"/>
  <circle cx="6" cy="4" r="1" fill="red"/>
  <circle cx="7" cy="4" r="1" fill="red"/>
  <circle cx="8" cy="4" r="1" fill="srgba(100%,18.529%,0%,1)"/>
  <circle cx="9" cy="4" r="1" fill="srgba(100%,54.7524%,0%,1)"/>
  <circle cx="10" cy="4" r="1" fill="srgba(100%,39.2004%,0%,1)"/>
  <circle cx="11" cy="4" r="1" fill="srgba(100%,23.7873%,0%,1)"/>
  <circle cx="12" cy="4" r="1" fill="srgba(100%,80.2228%,0%,1)"/>
  <circle cx="13" cy="4" r="1" fill="srgba(100%,62.3239%,0%,1)"/>
  <circle cx="14" cy="4" r="1" fill="srgba(100%,21.4008%,0%,1)"/>
  <circle cx="15" cy="4" r="1" fill="srgba(100%,16.1959%,0.030518%,1)"/>
  <circle cx="0" cy="5" r="1" fill="black"/>
  <circle cx="1" cy="5" r="1" fill="srgba(2.68254%,2.66575%,2.66575%,1)"/>
  <circle cx="2" cy="5" r="1" fill="srgba(24.6509%,25.4566%,25.4566%,1)"/>
  <circle cx="3" cy="5" r="1" fill="srgba(11.2703%,8.92042%,8.92042%,1)"/>
  <circle cx="4" cy="5" r="1" fill="srgba(39.6597%,0%,0%,1)"/>
  <circle cx="5" cy="5" r="1" fill="srgba(89.2241%,0.0854505%,0.0854505%,1)"/>
  <circle cx="6" cy="5" r="1" fill="srgba(100%,0%,0.0030518%,1)"/>
  <circle cx="7" cy="5" r="1" fill="srgba(100%,3.37682%,0%,1)"/>
  <circle cx="8" cy="5" r="1" fill="srgba(100%,45.4429%,0%,1)"/>
  <circle cx="9" cy="5" r="1" fill="srgba(100%,42.5147%,0%,1)"/>
  <circle cx="10" cy="5" r="1" fill="srgba(100%,40.7187%,0%,1)"/>
  <circle cx="11" cy="5" r="1" fill="srgba(100%,25.0385%,0%,1)"/>
  <circle cx="12" cy="5" r="1" fill="srgba(100%,76.9879%,0%,1)"/>
  <circle cx="13" cy="5" r="1" fill="srgba(100%,62.356%,0%,1)"/>
  <circle cx="14" cy="5" r="1" fill="srgba(100%,46.7033%,0%,1)"/>
  <circle cx="15" cy="5" r="1" fill="srgba(100%,26.5934%,0.0259403%,1)"/>
  <circle cx="0" cy="6" r="1" fill="black"/>
  <circle cx="1" cy="6" r="1" fill="srgba(6.95201%,6.95201%,6.95201%,1)"/>
  <circle cx="2" cy="6" r="1" fill="srgba(61.0742%,61.0742%,61.0742%,1)"/>
  <circle cx="3" cy="6" r="1" fill="srgba(22.3545%,22.3987%,22.3987%,1)"/>
  <circle cx="4" cy="6" r="1" fill="black"/>
  <circle cx="5" cy="6" r="1" fill="srgba(22.9068%,0.0701915%,0.0701915%,1)"/>
  <circle cx="6" cy="6" r="1" fill="srgba(76.6491%,0%,0.125124%,1)"/>
  <circle cx="7" cy="6" r="1" fill="srgba(99.7589%,1.25429%,0.0167849%,1)"/>
  <circle cx="8" cy="6" r="1" fill="srgba(100%,41.3138%,0%,1)"/>
  <circle cx="9" cy="6" r="1" fill="srgba(100%,50.7988%,0%,1)"/>
  <circle cx="10" cy="6" r="1" fill="srgba(100%,29.7017%,0%,1)"/>
  <circle cx="11" cy="6" r="1" fill="srgba(100%,41.0819%,0%,1)"/>
  <circle cx="12" cy="6" r="1" fill="srgba(100%,65.742%,0%,1)"/>
  <circle cx="13" cy="6" r="1" fill="srgba(100%,41.1826%,0%,1)"/>
  <circle cx="14" cy="6" r="1" fill="srgba(100%,55.1247%,0%,1)"/>
  <circle cx="15" cy="6" r="1" fill="srgba(100%,20.1495%,0.0320439%,1)"/>
  <circle cx="0" cy="7" r="1" fill="srgba(16.5576%,16.5576%,16.5576%,1)"/>
  <circle cx="1" cy="7" r="1" fill="srgba(5.29183%,5.29183%,5.29183%,1)"/>
  <circle cx="2" cy="7" r="1" fill="srgba(5.80148%,5.80148%,5.80148%,1)"/>
  <circle cx="3" cy="7" r="1" fill="srgba(2.1561%,2.15305%,2.15305%,1)"/>
  <circle cx="4" cy="7" r="1" fill="srgba(6.02884%,6.09903%,6.09903%,1)"/>
  <circle cx="5" cy="7" r="1" fill="srgba(3.9765%,4.77607%,4.77607%,1)"/>
  <circle cx="6" cy="7" r="1" fill="srgba(10.3975%,0%,0%,1)"/>
  <circle cx="7" cy="7" r="1" fill="srgba(59.6704%,0%,0.149538%,1)"/>
  <circle cx="8" cy="7" r="1" fill="srgba(96.8307%,34.8836%,0.0411994%,1)"/>
  <circle cx="9" cy="7" r="1" fill="srgba(100%,51.6136%,0%,1)"/>
  <circle cx="10" cy="7" r="1" fill="srgba(100%,34.0795%,0%,1)"/>
  <circle cx="11" cy="7" r="1" fill="srgba(100%,58.6633%,0%,1)"/>
  <circle cx="12" cy="7" r="1" fill="srgba(100%,17.0748%,0%,1)"/>
  <circle cx="13" cy="7" r="1" fill="srgba(100%,34.493%,0%,1)"/>
  <circle cx="14" cy="7" r="1" fill="srgba(100%,42.9404%,0%,1)"/>
  <circle cx="15" cy="7" r="1" fill="srgba(100%,23.5706%,0.0366217%,1)"/>
  <circle cx="0" cy="8" r="1" fill="srgba(68.5847%,68.5847%,68.5847%,1)"/>
  <circle cx="1" cy="8" r="1" fill="srgba(20.9522%,20.9522%,20.9522%,1)"/>
  <circle cx="2" cy="8" r="1" fill="black"/>
  <circle cx="3" cy="8" r="1" fill="black"/>
  <circle cx="4" cy="8" r="1" fill="srgba(40.676%,40.676%,40.676%,1)"/>
  <circle cx="5" cy="8" r="1" fill="srgba(31.7525%,31.7525%,31.7525%,1)"/>
  <circle cx="6" cy="8" r="1" fill="black"/>
  <circle cx="7" cy="8" r="1" fill="srgba(2.88701%,0%,0.0427253%,1)"/>
  <circle cx="8" cy="8" r="1" fill="srgba(54.435%,31.5892%,0.0885023%,1)"/>
  <circle cx="9" cy="8" r="1" fill="srgba(96.3531%,37.734%,0.0488289%,1)"/>
  <circle cx="10" cy="8" r="1" fill="srgba(99.9771%,30.399%,0.00457771%,1)"/>
  <circle cx="11" cy="8" r="1" fill="srgba(100%,57.7996%,0%,1)"/>
  <circle cx="12" cy="8" r="1" fill="srgba(100%,2.42161%,0%,1)"/>
  <circle cx="13" cy="8" r="1" fill="srgba(100%,13.9254%,0%,1)"/>
  <circle cx="14" cy="8" r="1" fill="srgba(100%,24.5365%,0%,1)"/>
  <circle cx="15" cy="8" r="1" fill="srgba(100%,5.29183%,0.0381476%,1)"/>
  <circle cx="0" cy="9" r="1" fill="srgba(13.1899%,13.1899%,13.1899%,1)"/>
  <circle cx="1" cy="9" r="1" fill="srgba(3.95209%,3.95209%,3.95209%,1)"/>
  <circle cx="2" cy="9" r="1" fill="black"/>
  <circle cx="3" cy="9" r="1" fill="black"/>
  <circle cx="4" cy="9" r="1" fill="srgba(7.89349%,7.89349%,7.89349%,1)"/>
  <circle cx="5" cy="9" r="1" fill="srgba(6.10513%,6.10513%,6.10513%,1)"/>
  <circle cx="6" cy="9" r="1" fill="black"/>
  <circle cx="7" cy="9" r="1" fill="black"/>
  <circle cx="8" cy="9" r="1" fill="srgba(32.871%,26.5919%,0.00457771%,1)"/>
  <circle cx="9" cy="9" r="1" fill="srgba(42.0706%,15.7153%,0.108339%,1)"/>
  <circle cx="10" cy="9" r="1" fill="srgba(77.38%,27.0298%,0.0991836%,1)"/>
  <circle cx="11" cy="9" r="1" fill="srgba(100%,56.4462%,0%,1)"/>
  <circle cx="12" cy="9" r="1" fill="srgba(100%,1.9028%,0%,1)"/>
  <circle cx="13" cy="9" r="1" fill="srgba(100%,1.13985%,0.0030518%,1)"/>
  <circle cx="14" cy="9" r="1" fill="srgba(100%,0.839246%,0.00915541%,1)"/>
  <circle cx="15" cy="9" r="1" fill="srgba(100%,0.0106813%,0.0564584%,1)"/>
  <circle cx="0" cy="10" r="1" fill="black"/>
  <circle cx="1" cy="10" r="1" fill="black"/>
  <circle cx="2" cy="10" r="1" fill="black"/>
  <circle cx="3" cy="10" r="1" fill="srgba(0.87129%,0.87129%,0.87129%,1)"/>
  <circle cx="4" cy="10" r="1" fill="srgba(1.75784%,1.75784%,1.75784%,1)"/>
  <circle cx="5" cy="10" r="1" fill="srgba(0.143435%,0.143435%,0.143435%,1)"/>
  <circle cx="6" cy="10" r="1" fill="srgba(0.228885%,0.228885%,0.228885%,1)"/>
  <circle cx="7" cy="10" r="1" fill="srgba(0%,0%,0.80415%,1)"/>
  <circle cx="8" cy="10" r="1" fill="srgba(30.277%,24.6006%,1.57015%,1)"/>
  <circle cx="9" cy="10" r="1" fill="srgba(14.9493%,12.9137%,2.22477%,1)"/>
  <circle cx="10" cy="10" r="1" fill="srgba(33.2921%,26.3935%,2.89769%,1)"/>
  <circle cx="11" cy="10" r="1" fill="srgba(94.5998%,56.6735%,3.5172%,1)"/>
  <circle cx="12" cy="10" r="1" fill="srgba(97.0733%,5.69467%,4.02686%,1)"/>
  <circle cx="13" cy="10" r="1" fill="srgba(100%,4.48615%,4.61585%,1)"/>
  <circle cx="14" cy="10" r="1" fill="srgba(100%,5.25978%,5.27962%,1)"/>
  <circle cx="15" cy="10" r="1" fill="srgba(100%,5.90982%,5.90982%,1)"/>
  <circle cx="0" cy="11" r="1" fill="black"/>
  <circle cx="1" cy="11" r="1" fill="srgba(1.21004%,1.21004%,1.21004%,1)"/>
  <circle cx="2" cy="11" r="1" fill="srgba(11.4473%,11.4473%,11.4473%,1)"/>
  <circle cx="3" cy="11" r="1" fill="srgba(3.01518%,3.01518%,3.01518%,1)"/>
  <circle cx="4" cy="11" r="1" fill="srgba(0.30518%,0.30518%,0.30518%,1)"/>
  <circle cx="5" cy="11" r="1" fill="srgba(0.0961318%,0.0961318%,0.0961318%,1)"/>
  <circle cx="6" cy="11" r="1" fill="srgba(0.047303%,0.047303%,0.047303%,1)"/>
  <circle cx="7" cy="11" r="1" fill="srgba(0%,0%,0.170901%,1)"/>
  <circle cx="8" cy="11" r="1" fill="srgba(24.1413%,19.5514%,0.318914%,1)"/>
  <circle cx="9" cy="11" r="1" fill="srgba(10.399%,8.49012%,0.434882%,1)"/>
  <circle cx="10" cy="11" r="1" fill="srgba(27.2984%,22.2507%,0.546273%,1)"/>
  <circle cx="11" cy="11" r="1" fill="srgba(69.9886%,53.7713%,0.691234%,1)"/>
  <circle cx="12" cy="11" r="1" fill="srgba(43.8056%,2.45975%,0.891127%,1)"/>
  <circle cx="13" cy="11" r="1" fill="srgba(90.1183%,0.827039%,0.915541%,1)"/>
  <circle cx="14" cy="11" r="1" fill="srgba(100%,0.926223%,0.926223%,1)"/>
  <circle cx="15" cy="11" r="1" fill="srgba(100%,1.0544%,1.0544%,1)"/>
  <circle cx="0" cy="12" r="1" fill="black"/>
  <circle cx="1" cy="12" r="1" fill="srgba(9.19051%,9.19051%,9.19051%,1)"/>
  <circle cx="2" cy="12" r="1" fill="srgba(63.3188%,63.3188%,63.3188%,1)"/>
  <circle cx="3" cy="12" r="1" fill="srgba(18.793%,18.793%,18.793%,1)"/>
  <circle cx="4" cy="12" r="1" fill="black"/>
  <circle cx="5" cy="12" r="1" fill="black"/>
  <circle cx="6" cy="12" r="1" fill="black"/>
  <circle cx="7" cy="12" r="1" fill="black"/>
  <circle cx="8" cy="12" r="1" fill="srgba(12.9122%,10.3288%,0%,1)"/>
  <circle cx="9" cy="12" r="1" fill="srgba(4.38697%,3.50805%,0%,1)"/>
  <circle cx="10" cy="12" r="1" fill="srgba(24.5899%,19.6811%,0%,1)"/>
  <circle cx="11" cy="12" r="1" fill="srgba(64.5579%,51.6991%,0%,1)"/>
  <circle cx="12" cy="12" r="1" fill="srgba(2.17594%,1.44808%,0.00610361%,1)"/>
  <circle cx="13" cy="12" r="1" fill="srgba(24.567%,0.0198367%,0.0976577%,1)"/>
  <circle cx="14" cy="12" r="1" fill="srgba(78.3505%,0.0869764%,0.0869764%,1)"/>
  <circle cx="15" cy="12" r="1" fill="srgba(99.884%,0.0427253%,0.0427253%,1)"/>
  <circle cx="0" cy="13" r="1" fill="black"/>
  <circle cx="1" cy="13" r="1" fill="srgba(2.03708%,2.03708%,2.03708%,1)"/>
  <circle cx="2" cy="13" r="1" fill="srgba(15.6725%,15.6725%,15.6725%,1)"/>
  <circle cx="3" cy="13" r="1" fill="srgba(4.52583%,4.52583%,4.52583%,1)"/>
  <circle cx="4" cy="13" r="1" fill="black"/>
  <circle cx="5" cy="13" r="1" fill="black"/>
  <circle cx="6" cy="13" r="1" fill="black"/>
  <circle cx="7" cy="13" r="1" fill="black"/>
  <circle cx="8" cy="13" r="1" fill="srgba(0.569162%,0.454719%,0%,1)"/>
  <circle cx="9" cy="13" r="1" fill="black"/>
  <circle cx="10" cy="13" r="1" fill="srgba(21.9593%,17.5967%,0%,1)"/>
  <circle cx="11" cy="13" r="1" fill="srgba(62.5025%,50.0755%,0%,1)"/>
  <circle cx="12" cy="13" r="1" fill="srgba(1.88754%,1.51369%,0%,1)"/>
  <circle cx="13" cy="13" r="1" fill="srgba(0%,0%,0.0030518%,1)"/>
  <circle cx="14" cy="13" r="1" fill="srgba(12.282%,0.0839246%,0.0839246%,1)"/>
  <circle cx="15" cy="13" r="1" fill="srgba(57.1359%,0.198367%,0.198367%,1)"/>
  <circle cx="0" cy="14" r="1" fill="black"/>
  <circle cx="1" cy="14" r="1" fill="black"/>
  <circle cx="2" cy="14" r="1" fill="black"/>
  <circle cx="3" cy="14" r="1" fill="black"/>
  <circle cx="4" cy="14" r="1" fill="black"/>
  <circle cx="5" cy="14" r="1" fill="black"/>
  <circle cx="6" cy="14" r="1" fill="black"/>
  <circle cx="7" cy="14" r="1" fill="black"/>
  <circle cx="8" cy="14" r="1" fill="black"/>
  <circle cx="9" cy="14" r="1" fill="black"/>
  <circle cx="10" cy="14" r="1" fill="srgba(18.8159%,15.0668%,0%,1)"/>
  <circle cx="11" cy="14" r="1" fill="srgba(60.9354%,48.7694%,0%,1)"/>
  <circle cx="12" cy="14" r="1" fill="srgba(3.2929%,2.63218%,0%,1)"/>
  <circle cx="13" cy="14" r="1" fill="black"/>
  <circle cx="14" cy="14" r="1" fill="black"/>
  <circle cx="15" cy="14" r="1" fill="srgba(2.22324%,0.0671397%,0.0671397%,1)"/>
  <circle cx="0" cy="15" r="1" fill="srgba(0.131228%,0.131228%,0.131228%,1)"/>
  <circle cx="1" cy="15" r="1" fill="srgba(0.131228%,0.131228%,0.131228%,1)"/>
  <circle cx="2" cy="15" r="1" fill="srgba(0.131228%,0.131228%,0.131228%,1)"/>
  <circle cx="3" cy="15" r="1" fill="srgba(0.131228%,0.131228%,0.131228%,1)"/>
  <circle cx="4" cy="15" r="1" fill="srgba(0.131228%,0.131228%,0.131228%,1)"/>
  <circle cx="5" cy="15" r="1" fill="srgba(0.131228%,0.131228%,0.131228%,1)"/>
  <circle cx="6" cy="15" r="1" fill="srgba(0.131228%,0.131228%,0.131228%,1)"/>
  <circle cx="7" cy="15" r="1" fill="srgba(0.131228%,0.131228%,0.131228%,1)"/>
  <circle cx="8" cy="15" r="1" fill="srgba(0.131228%,0.131228%,0.131228%,1)"/>
  <circle cx="9" cy="15" r="1" fill="srgba(0%,0%,0.131228%,1)"/>
  <circle cx="10" cy="15" r="1" fill="srgba(11.9554%,9.58877%,0.11902%,1)"/>
  <circle cx="11" cy="15" r="1" fill="srgba(40.2457%,32.2164%,0.0976577%,1)"/>
  <circle cx="12" cy="15" r="1" fill="srgba(1.94705%,1.58389%,0.129702%,1)"/>
  <circle cx="13" cy="15" r="1" fill="srgba(0.0381476%,0.0564584%,0.131228%,1)"/>
  <circle cx="14" cy="15" r="1" fill="srgba(0.131228%,0.129702%,0.129702%,1)"/>
  <circle cx="15" cy="15" r="1" fill="srgba(0.10071%,0.167849%,0.167849%,1)"/>
</svg>
