<?xml version="1.0" standalone="no"?>
<!DOCTYPE svg PUBLIC "-//W3C//DTD SVG 20010904//EN"
  "http://www.w3.org/TR/2001/REC-SVG-20010904/DTD/svg10.dtd">
<svg width="16" height="16">
  <circle cx="0" cy="0" r="1" fill="srgba(99.205%,82.1927%,8.4062%,1)"/>
  <circle cx="1" cy="0" r="1" fill="srgba(94.0337%,79.057%,11.4%,1)"/>
  <circle cx="2" cy="0" r="1" fill="srgba(37.4121%,44.6067%,44.271%,1)"/>
  <circle cx="3" cy="0" r="1" fill="srgba(0%,21.2497%,66.5599%,1)"/>
  <circle cx="4" cy="0" r="1" fill="srgba(8.1529%,26.8544%,61.2146%,1)"/>
  <circle cx="5" cy="0" r="1" fill="srgba(82.2416%,71.8975%,18.233%,1)"/>
  <circle cx="6" cy="0" r="1" fill="srgba(99.913%,82.6215%,7.99573%,1)"/>
  <circle cx="7" cy="0" r="1" fill="srgba(98.6343%,81.8448%,8.73732%,1)"/>
  <circle cx="8" cy="0" r="1" fill="srgba(36.2905%,43.9918%,44.86%,1)"/>
  <circle cx="9" cy="0" r="1" fill="srgba(0%,20.9171%,66.8772%,1)"/>
  <circle cx="10" cy="0" r="1" fill="srgba(0%,21.7838%,66.0517%,1)"/>
  <circle cx="11" cy="0" r="1" fill="srgba(1.11543%,22.1592%,65.6931%,1)"/>
  <circle cx="12" cy="0" r="1" fill="srgba(42.3468%,47.6524%,41.3718%,1)"/>
  <circle cx="13" cy="0" r="1" fill="srgba(95.1553%,79.7345%,10.753%,1)"/>
  <circle cx="14" cy="0" r="1" fill="srgba(99.0829%,82.1164%,8.47791%,1)"/>
  <circle cx="15" cy="0" r="1" fill="srgba(99.173%,82.2019%,8.39704%,1)"/>
  <circle cx="0" cy="1" r="1" fill="srgba(98.8113%,81.9226%,8.47486%,1)"/>
  <circle cx="1" cy="1" r="1" fill="srgba(99.4522%,82.3438%,8.26886%,1)"/>
  <circle cx="2" cy="1" r="1" fill="srgba(89.5171%,76.3104%,14.0185%,1)"/>
  <circle cx="3" cy="1" r="1" fill="srgba(32.166%,41.4496%,47.3136%,1)"/>
  <circle cx="4" cy="1" r="1" fill="srgba(8.93416%,26.7643%,61.0468%,1)"/>
  <circle cx="5" cy="1" r="1" fill="srgba(82.9206%,72.1599%,17.8195%,1)"/>
  <circle cx="6" cy="1" r="1" fill="srgba(99.8688%,82.6047%,8.02319%,1)"/>
  <circle cx="7" cy="1" r="1" fill="srgba(98.6465%,81.854%,8.72969%,1)"/>
  <circle cx="8" cy="1" r="1" fill="srgba(36.3622%,44.0436%,44.8112%,1)"/>
  <circle cx="9" cy="1" r="1" fill="srgba(0%,20.7385%,67.0481%,1)"/>
  <circle cx="10" cy="1" r="1" fill="srgba(1.19478%,22.2568%,65.6001%,1)"/>
  <circle cx="11" cy="1" r="1" fill="srgba(38.8067%,45.507%,43.415%,1)"/>
  <circle cx="12" cy="1" r="1" fill="srgba(91.812%,77.705%,12.6909%,1)"/>
  <circle cx="13" cy="1" r="1" fill="srgba(99.3408%,82.2721%,8.3299%,1)"/>
  <circle cx="14" cy="1" r="1" fill="srgba(99.3912%,82.3438%,8.26123%,1)"/>
  <circle cx="15" cy="1" r="1" fill="srgba(93.7102%,78.9166%,11.5297%,1)"/>
  <circle cx="0" cy="2" r="1" fill="srgba(98.8479%,82.3239%,10.4677%,1)"/>
  <circle cx="1" cy="2" r="1" fill="srgba(98.8022%,81.8708%,8.2475%,1)"/>
  <circle cx="2" cy="2" r="1" fill="srgba(99.6979%,82.5315%,8.08576%,1)"/>
  <circle cx="3" cy="2" r="1" fill="srgba(89.8085%,76.5789%,13.9956%,1)"/>
  <circle cx="4" cy="2" r="1" fill="srgba(51.0033%,54.4015%,44.2191%,1)"/>
  <circle cx="5" cy="2" r="1" fill="srgba(86.7918%,75.1247%,18.1048%,1)"/>
  <circle cx="6" cy="2" r="1" fill="srgba(99.5941%,82.4002%,8.03388%,1)"/>
  <circle cx="7" cy="2" r="1" fill="srgba(98.6618%,81.8692%,8.71595%,1)"/>
  <circle cx="8" cy="2" r="1" fill="srgba(36.3058%,43.8941%,44.9516%,1)"/>
  <circle cx="9" cy="2" r="1" fill="srgba(0%,21.3657%,66.45%,1)"/>
  <circle cx="10" cy="2" r="1" fill="srgba(40.8988%,46.7765%,42.2004%,1)"/>
  <circle cx="11" cy="2" r="1" fill="srgba(93.2219%,78.6175%,11.8181%,1)"/>
  <circle cx="12" cy="2" r="1" fill="srgba(99.5315%,82.417%,8.19257%,1)"/>
  <circle cx="13" cy="2" r="1" fill="srgba(99.7101%,82.5376%,8.0766%,1)"/>
  <circle cx="14" cy="2" r="1" fill="srgba(89.1218%,76.1242%,14.1924%,1)"/>
  <circle cx="15" cy="2" r="1" fill="srgba(36.6812%,44.2283%,44.6296%,1)"/>
  <circle cx="0" cy="3" r="1" fill="srgba(99.4553%,91.5251%,57.0718%,1)"/>
  <circle cx="1" cy="3" r="1" fill="srgba(98.9014%,83.1189%,14.493%,1)"/>
  <circle cx="2" cy="3" r="1" fill="srgba(98.8022%,81.886%,8.33448%,1)"/>
  <circle cx="3" cy="3" r="1" fill="srgba(99.3011%,82.2721%,8.18799%,1)"/>
  <circle cx="4" cy="3" r="1" fill="srgba(98.4665%,82.6108%,12.9732%,1)"/>
  <circle cx="5" cy="3" r="1" fill="srgba(98.1704%,81.9867%,11.2734%,1)"/>
  <circle cx="6" cy="3" r="1" fill="srgba(98.8968%,81.9791%,8.44282%,1)"/>
  <circle cx="7" cy="3" r="1" fill="srgba(98.5153%,81.7594%,8.81971%,1)"/>
  <circle cx="8" cy="3" r="1" fill="srgba(38.2696%,44.976%,43.92%,1)"/>
  <circle cx="9" cy="3" r="1" fill="srgba(40.9735%,46.8162%,42.1637%,1)"/>
  <circle cx="10" cy="3" r="1" fill="srgba(93.9559%,79.0661%,11.3909%,1)"/>
  <circle cx="11" cy="3" r="1" fill="srgba(99.4797%,82.3835%,8.22461%,1)"/>
  <circle cx="12" cy="3" r="1" fill="srgba(99.707%,82.536%,8.07813%,1)"/>
  <circle cx="13" cy="3" r="1" fill="srgba(89.8833%,76.5927%,13.7514%,1)"/>
  <circle cx="14" cy="3" r="1" fill="srgba(32.1645%,41.4282%,47.3045%,1)"/>
  <circle cx="15" cy="3" r="1" fill="srgba(0.154116%,21.529%,66.2928%,1)"/>
  <circle cx="0" cy="4" r="1" fill="srgba(99.5239%,92.668%,62.8641%,1)"/>
  <circle cx="1" cy="4" r="1" fill="srgba(99.0921%,86.0136%,29.1508%,1)"/>
  <circle cx="2" cy="4" r="1" fill="srgba(98.8159%,81.8463%,8.04913%,1)"/>
  <circle cx="3" cy="4" r="1" fill="srgba(98.8205%,81.9593%,8.63355%,1)"/>
  <circle cx="4" cy="4" r="1" fill="srgba(98.8846%,81.9516%,8.34821%,1)"/>
  <circle cx="5" cy="4" r="1" fill="srgba(98.8647%,81.9608%,8.47181%,1)"/>
  <circle cx="6" cy="4" r="1" fill="srgba(98.8418%,81.973%,8.62593%,1)"/>
  <circle cx="7" cy="4" r="1" fill="srgba(98.0148%,81.4694%,9.0959%,1)"/>
  <circle cx="8" cy="4" r="1" fill="srgba(75.613%,67.8676%,22.0783%,1)"/>
  <circle cx="9" cy="4" r="1" fill="srgba(93.0999%,78.5489%,11.8837%,1)"/>
  <circle cx="10" cy="4" r="1" fill="srgba(99.4278%,82.3499%,8.25666%,1)"/>
  <circle cx="11" cy="4" r="1" fill="srgba(99.7055%,82.5345%,8.07965%,1)"/>
  <circle cx="12" cy="4" r="1" fill="srgba(89.9504%,76.6323%,13.7102%,1)"/>
  <circle cx="13" cy="4" r="1" fill="srgba(32.5414%,41.6571%,47.0863%,1)"/>
  <circle cx="14" cy="4" r="1" fill="srgba(0.146487%,21.59%,66.2364%,1)"/>
  <circle cx="15" cy="4" r="1" fill="srgba(0%,21.8662%,65.9724%,1)"/>
  <circle cx="0" cy="5" r="1" fill="srgba(98.8235%,81.9593%,8.6183%,1)"/>
  <circle cx="1" cy="5" r="1" fill="srgba(98.8296%,82.0645%,9.15084%,1)"/>
  <circle cx="2" cy="5" r="1" fill="srgba(98.8235%,81.9638%,8.64271%,1)"/>
  <circle cx="3" cy="5" r="1" fill="srgba(252,209,22,1)"/>
  <circle cx="4" cy="5" r="1" fill="srgba(252,209,22,1)"/>
  <circle cx="5" cy="5" r="1" fill="srgba(252,209,22,1)"/>
  <circle cx="6" cy="5" r="1" fill="srgba(252,209,22,1)"/>
  <circle cx="7" cy="5" r="1" fill="srgba(98.8052%,81.9486%,8.63966%,1)"/>
  <circle cx="8" cy="5" r="1" fill="srgba(99.3103%,82.3239%,8.27955%,1)"/>
  <circle cx="9" cy="5" r="1" fill="srgba(99.118%,82.1653%,8.45655%,1)"/>
  <circle cx="10" cy="5" r="1" fill="srgba(99.2615%,82.1378%,7.90875%,1)"/>
  <circle cx="11" cy="5" r="1" fill="srgba(88.6763%,75.5596%,13.2036%,1)"/>
  <circle cx="12" cy="5" r="1" fill="srgba(32.2713%,41.4298%,46.8849%,1)"/>
  <circle cx="13" cy="5" r="1" fill="srgba(0.172427%,21.6037%,66.2364%,1)"/>
  <circle cx="14" cy="5" r="1" fill="srgba(0%,21.8784%,65.9617%,1)"/>
  <circle cx="15" cy="5" r="1" fill="srgba(0%,21.9638%,65.8793%,1)"/>
  <circle cx="0" cy="6" r="1" fill="srgba(98.822%,81.9425%,8.52979%,1)"/>
  <circle cx="1" cy="6" r="1" fill="srgba(98.8235%,81.9593%,8.61982%,1)"/>
  <circle cx="2" cy="6" r="1" fill="srgba(252,209,22,1)"/>
  <circle cx="3" cy="6" r="1" fill="srgba(252,209,22,1)"/>
  <circle cx="4" cy="6" r="1" fill="srgba(252,209,22,1)"/>
  <circle cx="5" cy="6" r="1" fill="srgba(252,209,22,1)"/>
  <circle cx="6" cy="6" r="1" fill="srgba(252,209,22,1)"/>
  <circle cx="7" cy="6" r="1" fill="srgba(252,209,22,1)"/>
  <circle cx="8" cy="6" r="1" fill="srgba(98.8296%,81.9669%,8.63661%,1)"/>
  <circle cx="9" cy="6" r="1" fill="srgba(98.8281%,81.8402%,7.96826%,1)"/>
  <circle cx="10" cy="6" r="1" fill="srgba(99.6918%,84.2496%,17.5021%,1)"/>
  <circle cx="11" cy="6" r="1" fill="srgba(62.9709%,65.5833%,57.9553%,1)"/>
  <circle cx="12" cy="6" r="1" fill="srgba(5.72824%,26.2715%,68.7175%,1)"/>
  <circle cx="13" cy="6" r="1" fill="srgba(0%,20.9201%,65.9464%,1)"/>
  <circle cx="14" cy="6" r="1" fill="srgba(0%,21.77%,66.3035%,1)"/>
  <circle cx="15" cy="6" r="1" fill="srgba(0%,21.8128%,66.3188%,1)"/>
  <circle cx="0" cy="7" r="1" fill="srgba(98.8403%,82.2065%,9.87411%,1)"/>
  <circle cx="1" cy="7" r="1" fill="srgba(98.822%,81.9486%,8.56794%,1)"/>
  <circle cx="2" cy="7" r="1" fill="srgba(252,209,22,1)"/>
  <circle cx="3" cy="7" r="1" fill="srgba(252,209,22,1)"/>
  <circle cx="4" cy="7" r="1" fill="srgba(252,209,22,1)"/>
  <circle cx="5" cy="7" r="1" fill="srgba(252,209,22,1)"/>
  <circle cx="6" cy="7" r="1" fill="srgba(252,209,22,1)"/>
  <circle cx="7" cy="7" r="1" fill="srgba(252,209,22,1)"/>
  <circle cx="8" cy="7" r="1" fill="srgba(98.819%,81.8967%,8.30549%,1)"/>
  <circle cx="9" cy="7" r="1" fill="srgba(98.8937%,82.9908%,13.8445%,1)"/>
  <circle cx="10" cy="7" r="1" fill="srgba(99.5407%,91.0491%,54.2061%,1)"/>
  <circle cx="11" cy="7" r="1" fill="srgba(96.7666%,91.3054%,66.1112%,1)"/>
  <circle cx="12" cy="7" r="1" fill="srgba(71.8776%,76.3806%,81.1902%,1)"/>
  <circle cx="13" cy="7" r="1" fill="srgba(27.9011%,41.2802%,68.0232%,1)"/>
  <circle cx="14" cy="7" r="1" fill="srgba(10.9636%,24.7318%,59.147%,1)"/>
  <circle cx="15" cy="7" r="1" fill="srgba(11.1635%,24.4297%,59.1119%,1)"/>
  <circle cx="0" cy="8" r="1" fill="srgba(98.8418%,82.2248%,9.96719%,1)"/>
  <circle cx="1" cy="8" r="1" fill="srgba(98.822%,81.9486%,8.56336%,1)"/>
  <circle cx="2" cy="8" r="1" fill="srgba(252,209,22,1)"/>
  <circle cx="3" cy="8" r="1" fill="srgba(252,209,22,1)"/>
  <circle cx="4" cy="8" r="1" fill="srgba(252,209,22,1)"/>
  <circle cx="5" cy="8" r="1" fill="srgba(252,209,22,1)"/>
  <circle cx="6" cy="8" r="1" fill="srgba(252,209,22,1)"/>
  <circle cx="7" cy="8" r="1" fill="srgba(252,209,22,1)"/>
  <circle cx="8" cy="8" r="1" fill="srgba(98.8205%,81.9226%,8.43519%,1)"/>
  <circle cx="9" cy="8" r="1" fill="srgba(98.8708%,82.6459%,12.0989%,1)"/>
  <circle cx="10" cy="8" r="1" fill="srgba(98.9715%,84.3061%,20.531%,1)"/>
  <circle cx="11" cy="8" r="1" fill="srgba(99.0478%,82.8199%,12.3186%,1)"/>
  <circle cx="12" cy="8" r="1" fill="srgba(99.9817%,85.9602%,23.7247%,1)"/>
  <circle cx="13" cy="8" r="1" fill="srgba(93.9483%,79.7314%,22.6978%,1)"/>
  <circle cx="14" cy="8" r="1" fill="srgba(85.7755%,68.8228%,16.0403%,1)"/>
  <circle cx="15" cy="8" r="1" fill="srgba(85.5375%,67.8706%,15.9121%,1)"/>
  <circle cx="0" cy="9" r="1" fill="srgba(98.822%,81.944%,8.54505%,1)"/>
  <circle cx="1" cy="9" r="1" fill="srgba(98.8235%,81.9608%,8.62593%,1)"/>
  <circle cx="2" cy="9" r="1" fill="srgba(252,209,22,1)"/>
  <circle cx="3" cy="9" r="1" fill="srgba(252,209,22,1)"/>
  <circle cx="4" cy="9" r="1" fill="srgba(252,209,22,1)"/>
  <circle cx="5" cy="9" r="1" fill="srgba(252,209,22,1)"/>
  <circle cx="6" cy="9" r="1" fill="srgba(252,209,22,1)"/>
  <circle cx="7" cy="9" r="1" fill="srgba(252,209,22,1)"/>
  <circle cx="8" cy="9" r="1" fill="srgba(98.8251%,81.973%,8.63813%,1)"/>
  <circle cx="9" cy="9" r="1" fill="srgba(98.8235%,81.9333%,8.41077%,1)"/>
  <circle cx="10" cy="9" r="1" fill="srgba(98.8174%,81.8311%,7.89349%,1)"/>
  <circle cx="11" cy="9" r="1" fill="srgba(98.8235%,81.9242%,8.36347%,1)"/>
  <circle cx="12" cy="9" r="1" fill="srgba(98.8067%,81.7823%,7.70123%,1)"/>
  <circle cx="13" cy="9" r="1" fill="srgba(99.1531%,82.1302%,7.74701%,1)"/>
  <circle cx="14" cy="9" r="1" fill="srgba(99.6597%,82.7863%,8.14984%,1)"/>
  <circle cx="15" cy="9" r="1" fill="srgba(99.675%,82.8367%,8.159%,1)"/>
  <circle cx="0" cy="10" r="1" fill="srgba(98.819%,81.883%,8.23682%,1)"/>
  <circle cx="1" cy="10" r="1" fill="srgba(98.8174%,81.8585%,8.1117%,1)"/>
  <circle cx="2" cy="10" r="1" fill="srgba(98.8235%,81.9654%,8.64881%,1)"/>
  <circle cx="3" cy="10" r="1" fill="srgba(252,209,22,1)"/>
  <circle cx="4" cy="10" r="1" fill="srgba(252,209,22,1)"/>
  <circle cx="5" cy="10" r="1" fill="srgba(252,209,22,1)"/>
  <circle cx="6" cy="10" r="1" fill="srgba(252,209,22,1)"/>
  <circle cx="7" cy="10" r="1" fill="srgba(98.819%,81.9394%,8.62898%,1)"/>
  <circle cx="8" cy="10" r="1" fill="srgba(98.7182%,81.5183%,8.66407%,1)"/>
  <circle cx="9" cy="10" r="1" fill="srgba(98.8312%,81.9898%,8.62745%,1)"/>
  <circle cx="10" cy="10" r="1" fill="srgba(98.8586%,82.1042%,8.6183%,1)"/>
  <circle cx="11" cy="10" r="1" fill="srgba(98.851%,82.0813%,8.6183%,1)"/>
  <circle cx="12" cy="10" r="1" fill="srgba(98.8495%,82.0737%,8.6183%,1)"/>
  <circle cx="13" cy="10" r="1" fill="srgba(98.8479%,82.0584%,8.61982%,1)"/>
  <circle cx="14" cy="10" r="1" fill="srgba(98.8464%,82.0508%,8.62135%,1)"/>
  <circle cx="15" cy="10" r="1" fill="srgba(98.8434%,82.0386%,8.62135%,1)"/>
  <circle cx="0" cy="11" r="1" fill="srgba(98.9181%,83.3829%,15.8343%,1)"/>
  <circle cx="1" cy="11" r="1" fill="srgba(99.0951%,86.0792%,29.4926%,1)"/>
  <circle cx="2" cy="11" r="1" fill="srgba(98.8281%,82.0325%,8.98909%,1)"/>
  <circle cx="3" cy="11" r="1" fill="srgba(98.822%,81.9562%,8.62593%,1)"/>
  <circle cx="4" cy="11" r="1" fill="srgba(98.8388%,82.0096%,8.51301%,1)"/>
  <circle cx="5" cy="11" r="1" fill="srgba(98.8571%,82.0829%,8.50385%,1)"/>
  <circle cx="6" cy="11" r="1" fill="srgba(98.8235%,81.9638%,8.63508%,1)"/>
  <circle cx="7" cy="11" r="1" fill="srgba(98.9212%,82.3651%,8.59388%,1)"/>
  <circle cx="8" cy="11" r="1" fill="srgba(94.4579%,63.7263%,10.1472%,1)"/>
  <circle cx="9" cy="11" r="1" fill="srgba(87.9484%,36.5606%,12.4193%,1)"/>
  <circle cx="10" cy="11" r="1" fill="srgba(87.7394%,35.6954%,12.4926%,1)"/>
  <circle cx="11" cy="11" r="1" fill="srgba(87.7607%,35.8068%,12.4758%,1)"/>
  <circle cx="12" cy="11" r="1" fill="srgba(87.747%,35.7626%,12.4758%,1)"/>
  <circle cx="13" cy="11" r="1" fill="srgba(87.7333%,35.6725%,12.4895%,1)"/>
  <circle cx="14" cy="11" r="1" fill="srgba(87.7272%,35.6283%,12.4956%,1)"/>
  <circle cx="15" cy="11" r="1" fill="srgba(87.7089%,35.5581%,12.4956%,1)"/>
  <circle cx="0" cy="12" r="1" fill="srgba(99.6262%,94.1772%,70.5028%,1)"/>
  <circle cx="1" cy="12" r="1" fill="srgba(99.4919%,92.1813%,60.3967%,1)"/>
  <circle cx="2" cy="12" r="1" fill="srgba(98.8205%,81.9059%,8.34668%,1)"/>
  <circle cx="3" cy="12" r="1" fill="srgba(98.8373%,82.002%,8.49012%,1)"/>
  <circle cx="4" cy="12" r="1" fill="srgba(98.5855%,81.2345%,10.6462%,1)"/>
  <circle cx="5" cy="12" r="1" fill="srgba(98.4146%,80.5219%,10.7256%,1)"/>
  <circle cx="6" cy="12" r="1" fill="srgba(98.9197%,82.3438%,8.47181%,1)"/>
  <circle cx="7" cy="12" r="1" fill="srgba(98.8876%,82.2263%,8.60456%,1)"/>
  <circle cx="8" cy="12" r="1" fill="srgba(97.5998%,76.8429%,9.05318%,1)"/>
  <circle cx="9" cy="12" r="1" fill="srgba(87.7272%,35.6252%,12.488%,1)"/>
  <circle cx="10" cy="12" r="1" fill="srgba(80.5173%,5.55428%,14.995%,1)"/>
  <circle cx="11" cy="12" r="1" fill="srgba(80.4273%,5.17281%,15.0271%,1)"/>
  <circle cx="12" cy="12" r="1" fill="srgba(80.4715%,5.35592%,15.0118%,1)"/>
  <circle cx="13" cy="12" r="1" fill="srgba(80.47%,5.35134%,15.0118%,1)"/>
  <circle cx="14" cy="12" r="1" fill="srgba(80.47%,5.35134%,15.0118%,1)"/>
  <circle cx="15" cy="12" r="1" fill="srgba(80.47%,5.35134%,15.0118%,1)"/>
  <circle cx="0" cy="13" r="1" fill="srgba(99.7879%,96.7163%,83.3173%,1)"/>
  <circle cx="1" cy="13" r="1" fill="srgba(99.1669%,87.0375%,33.962%,1)"/>
  <circle cx="2" cy="13" r="1" fill="srgba(98.8235%,81.9409%,8.50843%,1)"/>
  <circle cx="3" cy="13" r="1" fill="srgba(98.9914%,82.6474%,8.46113%,1)"/>
  <circle cx="4" cy="13" r="1" fill="srgba(96.0281%,70.4982%,11.2047%,1)"/>
  <circle cx="5" cy="13" r="1" fill="srgba(88.9982%,41.1475%,13.6873%,1)"/>
  <circle cx="6" cy="13" r="1" fill="srgba(97.3983%,75.9869%,9.02113%,1)"/>
  <circle cx="7" cy="13" r="1" fill="srgba(98.9792%,82.6123%,8.57404%,1)"/>
  <circle cx="8" cy="13" r="1" fill="srgba(98.9563%,82.5147%,8.58167%,1)"/>
  <circle cx="9" cy="13" r="1" fill="srgba(97.7447%,77.4548%,9.00282%,1)"/>
  <circle cx="10" cy="13" r="1" fill="srgba(87.715%,35.5978%,12.491%,1)"/>
  <circle cx="11" cy="13" r="1" fill="srgba(80.795%,6.71092%,14.8974%,1)"/>
  <circle cx="12" cy="13" r="1" fill="srgba(80.7462%,6.5095%,14.9157%,1)"/>
  <circle cx="13" cy="13" r="1" fill="srgba(80.7858%,6.67124%,14.902%,1)"/>
  <circle cx="14" cy="13" r="1" fill="srgba(206,17,38,1)"/>
  <circle cx="15" cy="13" r="1" fill="srgba(206,17,38,1)"/>
  <circle cx="0" cy="14" r="1" fill="srgba(99.855%,98.1643%,90.7469%,1)"/>
  <circle cx="1" cy="14" r="1" fill="srgba(98.9532%,87.6143%,44.1459%,1)"/>
  <circle cx="2" cy="14" r="1" fill="srgba(98.8022%,81.8143%,8.23224%,1)"/>
  <circle cx="3" cy="14" r="1" fill="srgba(99.0387%,82.8595%,8.55268%,1)"/>
  <circle cx="4" cy="14" r="1" fill="srgba(95.3841%,67.5715%,9.72305%,1)"/>
  <circle cx="5" cy="14" r="1" fill="srgba(81.9654%,11.5572%,14.3877%,1)"/>
  <circle cx="6" cy="14" r="1" fill="srgba(87.1382%,33.1762%,12.7016%,1)"/>
  <circle cx="7" cy="14" r="1" fill="srgba(97.3632%,75.8679%,9.13558%,1)"/>
  <circle cx="8" cy="14" r="1" fill="srgba(98.9258%,82.388%,8.59236%,1)"/>
  <circle cx="9" cy="14" r="1" fill="srgba(98.967%,82.562%,8.5771%,1)"/>
  <circle cx="10" cy="14" r="1" fill="srgba(97.6043%,76.8719%,9.05013%,1)"/>
  <circle cx="11" cy="14" r="1" fill="srgba(87.4846%,34.6456%,12.5704%,1)"/>
  <circle cx="12" cy="14" r="1" fill="srgba(80.8774%,7.05577%,14.8699%,1)"/>
  <circle cx="13" cy="14" r="1" fill="srgba(80.763%,6.57969%,14.9096%,1)"/>
  <circle cx="14" cy="14" r="1" fill="srgba(206,17,38,1)"/>
  <circle cx="15" cy="14" r="1" fill="srgba(206,17,38,1)"/>
  <circle cx="0" cy="15" r="1" fill="srgba(94.3084%,72.6604%,76.9146%,1)"/>
  <circle cx="1" cy="15" r="1" fill="srgba(92.2972%,57.7646%,32.0851%,1)"/>
  <circle cx="2" cy="15" r="1" fill="srgba(98.7945%,81.7655%,8.12085%,1)"/>
  <circle cx="3" cy="15" r="1" fill="srgba(99.0463%,82.8901%,8.5481%,1)"/>
  <circle cx="4" cy="15" r="1" fill="srgba(95.2789%,67.1672%,9.86191%,1)"/>
  <circle cx="5" cy="15" r="1" fill="srgba(81.912%,11.368%,14.5113%,1)"/>
  <circle cx="6" cy="15" r="1" fill="srgba(80.6516%,6.11429%,14.9477%,1)"/>
  <circle cx="7" cy="15" r="1" fill="srgba(88.1209%,37.2869%,12.3491%,1)"/>
  <circle cx="8" cy="15" r="1" fill="srgba(98.1247%,79.0372%,8.87007%,1)"/>
  <circle cx="9" cy="15" r="1" fill="srgba(98.8708%,82.1576%,8.61067%,1)"/>
  <circle cx="10" cy="15" r="1" fill="srgba(99.0021%,82.7039%,8.56489%,1)"/>
  <circle cx="11" cy="15" r="1" fill="srgba(97.2152%,75.2499%,9.18746%,1)"/>
  <circle cx="12" cy="15" r="1" fill="srgba(85.9602%,28.2612%,13.1044%,1)"/>
  <circle cx="13" cy="15" r="1" fill="srgba(80.6729%,6.19821%,14.9416%,1)"/>
  <circle cx="14" cy="15" r="1" fill="srgba(80.7813%,6.65293%,14.9035%,1)"/>
  <circle cx="15" cy="15" r="1" fill="srgba(206,17,38,1)"/>
</svg>
