<?xml version="1.0" standalone="no"?>
<!DOCTYPE svg PUBLIC "-//W3C//DTD SVG 20010904//EN"
  "http://www.w3.org/TR/2001/REC-SVG-20010904/DTD/svg10.dtd">
<svg width="16" height="16">
  <circle cx="0" cy="0" r="1" fill="white"/>
  <circle cx="1" cy="0" r="1" fill="white"/>
  <circle cx="2" cy="0" r="1" fill="srgba(90.7958%,93.7133%,90.7546%,1)"/>
  <circle cx="3" cy="0" r="1" fill="srgba(18.7579%,44.5029%,18.4192%,1)"/>
  <circle cx="4" cy="0" r="1" fill="srgba(3.7995%,34.2824%,3.40429%,1)"/>
  <circle cx="5" cy="0" r="1" fill="srgba(12,89,11,1)"/>
  <circle cx="6" cy="0" r="1" fill="srgba(12,89,11,1)"/>
  <circle cx="7" cy="0" r="1" fill="srgba(12,89,11,1)"/>
  <circle cx="8" cy="0" r="1" fill="srgba(12,89,11,1)"/>
  <circle cx="9" cy="0" r="1" fill="srgba(12,89,11,1)"/>
  <circle cx="10" cy="0" r="1" fill="srgba(12,89,11,1)"/>
  <circle cx="11" cy="0" r="1" fill="srgba(12,89,11,1)"/>
  <circle cx="12" cy="0" r="1" fill="srgba(12,89,11,1)"/>
  <circle cx="13" cy="0" r="1" fill="srgba(12,89,11,1)"/>
  <circle cx="14" cy="0" r="1" fill="srgba(12,89,11,1)"/>
  <circle cx="15" cy="0" r="1" fill="srgba(12,89,11,1)"/>
  <circle cx="0" cy="1" r="1" fill="white"/>
  <circle cx="1" cy="1" r="1" fill="white"/>
  <circle cx="2" cy="1" r="1" fill="srgba(90.7958%,93.7133%,90.7546%,1)"/>
  <circle cx="3" cy="1" r="1" fill="srgba(18.7579%,44.5029%,18.4192%,1)"/>
  <circle cx="4" cy="1" r="1" fill="srgba(3.7995%,34.2824%,3.40429%,1)"/>
  <circle cx="5" cy="1" r="1" fill="srgba(12,89,11,1)"/>
  <circle cx="6" cy="1" r="1" fill="srgba(12,89,11,1)"/>
  <circle cx="7" cy="1" r="1" fill="srgba(12,89,11,1)"/>
  <circle cx="8" cy="1" r="1" fill="srgba(12,89,11,1)"/>
  <circle cx="9" cy="1" r="1" fill="srgba(12,89,11,1)"/>
  <circle cx="10" cy="1" r="1" fill="srgba(12,89,11,1)"/>
  <circle cx="11" cy="1" r="1" fill="srgba(12,89,11,1)"/>
  <circle cx="12" cy="1" r="1" fill="srgba(12,89,11,1)"/>
  <circle cx="13" cy="1" r="1" fill="srgba(12,89,11,1)"/>
  <circle cx="14" cy="1" r="1" fill="srgba(12,89,11,1)"/>
  <circle cx="15" cy="1" r="1" fill="srgba(12,89,11,1)"/>
  <circle cx="0" cy="2" r="1" fill="white"/>
  <circle cx="1" cy="2" r="1" fill="white"/>
  <circle cx="2" cy="2" r="1" fill="srgba(90.7958%,93.7133%,90.7546%,1)"/>
  <circle cx="3" cy="2" r="1" fill="srgba(18.7579%,44.5029%,18.4192%,1)"/>
  <circle cx="4" cy="2" r="1" fill="srgba(3.7995%,34.2824%,3.40429%,1)"/>
  <circle cx="5" cy="2" r="1" fill="srgba(12,89,11,1)"/>
  <circle cx="6" cy="2" r="1" fill="srgba(12,89,11,1)"/>
  <circle cx="7" cy="2" r="1" fill="srgba(12,89,11,1)"/>
  <circle cx="8" cy="2" r="1" fill="srgba(4.70436%,34.9004%,4.3122%,1)"/>
  <circle cx="9" cy="2" r="1" fill="srgba(12,89,11,1)"/>
  <circle cx="10" cy="2" r="1" fill="srgba(12,89,11,1)"/>
  <circle cx="11" cy="2" r="1" fill="srgba(12,89,11,1)"/>
  <circle cx="12" cy="2" r="1" fill="srgba(12,89,11,1)"/>
  <circle cx="13" cy="2" r="1" fill="srgba(12,89,11,1)"/>
  <circle cx="14" cy="2" r="1" fill="srgba(12,89,11,1)"/>
  <circle cx="15" cy="2" r="1" fill="srgba(12,89,11,1)"/>
  <circle cx="0" cy="3" r="1" fill="white"/>
  <circle cx="1" cy="3" r="1" fill="white"/>
  <circle cx="2" cy="3" r="1" fill="srgba(90.7958%,93.7133%,90.7546%,1)"/>
  <circle cx="3" cy="3" r="1" fill="srgba(18.7579%,44.5029%,18.4192%,1)"/>
  <circle cx="4" cy="3" r="1" fill="srgba(3.7995%,34.2824%,3.40429%,1)"/>
  <circle cx="5" cy="3" r="1" fill="srgba(4.71351%,34.9081%,4.32136%,1)"/>
  <circle cx="6" cy="3" r="1" fill="srgba(4.54414%,34.7921%,4.15198%,1)"/>
  <circle cx="7" cy="3" r="1" fill="srgba(4.1001%,34.4884%,3.70642%,1)"/>
  <circle cx="8" cy="3" r="1" fill="srgba(4.80201%,34.9676%,4.41138%,1)"/>
  <circle cx="9" cy="3" r="1" fill="srgba(4.70283%,34.8989%,4.31067%,1)"/>
  <circle cx="10" cy="3" r="1" fill="srgba(4.67842%,34.8836%,4.28626%,1)"/>
  <circle cx="11" cy="3" r="1" fill="srgba(4.68299%,34.8852%,4.28931%,1)"/>
  <circle cx="12" cy="3" r="1" fill="srgba(4.70741%,34.9035%,4.31525%,1)"/>
  <circle cx="13" cy="3" r="1" fill="srgba(12,89,11,1)"/>
  <circle cx="14" cy="3" r="1" fill="srgba(12,89,11,1)"/>
  <circle cx="15" cy="3" r="1" fill="srgba(12,89,11,1)"/>
  <circle cx="0" cy="4" r="1" fill="white"/>
  <circle cx="1" cy="4" r="1" fill="white"/>
  <circle cx="2" cy="4" r="1" fill="srgba(90.7958%,93.7133%,90.7546%,1)"/>
  <circle cx="3" cy="4" r="1" fill="srgba(18.7579%,44.5029%,18.4192%,1)"/>
  <circle cx="4" cy="4" r="1" fill="srgba(3.80255%,34.2855%,3.40734%,1)"/>
  <circle cx="5" cy="4" r="1" fill="srgba(4.50904%,34.7677%,4.11536%,1)"/>
  <circle cx="6" cy="4" r="1" fill="srgba(6.53239%,36.1486%,6.14786%,1)"/>
  <circle cx="7" cy="4" r="1" fill="srgba(21.9318%,46.6682%,21.6098%,1)"/>
  <circle cx="8" cy="4" r="1" fill="srgba(8.72358%,37.6471%,8.34821%,1)"/>
  <circle cx="9" cy="4" r="1" fill="srgba(4.45869%,34.7341%,4.06653%,1)"/>
  <circle cx="10" cy="4" r="1" fill="srgba(5.01106%,35.111%,4.62043%,1)"/>
  <circle cx="11" cy="4" r="1" fill="srgba(3.99786%,34.4182%,3.60266%,1)"/>
  <circle cx="12" cy="4" r="1" fill="srgba(4.39612%,34.6914%,4.00244%,1)"/>
  <circle cx="13" cy="4" r="1" fill="srgba(4.72572%,34.9157%,4.33356%,1)"/>
  <circle cx="14" cy="4" r="1" fill="srgba(12,89,11,1)"/>
  <circle cx="15" cy="4" r="1" fill="srgba(12,89,11,1)"/>
  <circle cx="0" cy="5" r="1" fill="white"/>
  <circle cx="1" cy="5" r="1" fill="white"/>
  <circle cx="2" cy="5" r="1" fill="srgba(90.7958%,93.7133%,90.7546%,1)"/>
  <circle cx="3" cy="5" r="1" fill="srgba(18.7579%,44.5029%,18.4192%,1)"/>
  <circle cx="4" cy="5" r="1" fill="srgba(3.77356%,34.2657%,3.37835%,1)"/>
  <circle cx="5" cy="5" r="1" fill="srgba(4.39307%,34.6883%,3.99939%,1)"/>
  <circle cx="6" cy="5" r="1" fill="srgba(40.9125%,59.6368%,40.6699%,1)"/>
  <circle cx="7" cy="5" r="1" fill="srgba(38.5367%,58.0133%,38.2834%,1)"/>
  <circle cx="8" cy="5" r="1" fill="srgba(4.48768%,34.7524%,4.094%,1)"/>
  <circle cx="9" cy="5" r="1" fill="srgba(4.04822%,34.4518%,3.65301%,1)"/>
  <circle cx="10" cy="5" r="1" fill="srgba(17.6761%,43.7629%,17.3373%,1)"/>
  <circle cx="11" cy="5" r="1" fill="srgba(40.6241%,59.4385%,40.3784%,1)"/>
  <circle cx="12" cy="5" r="1" fill="srgba(15.0591%,41.9745%,14.7097%,1)"/>
  <circle cx="13" cy="5" r="1" fill="srgba(4.17334%,34.5373%,3.77813%,1)"/>
  <circle cx="14" cy="5" r="1" fill="srgba(12,89,11,1)"/>
  <circle cx="15" cy="5" r="1" fill="srgba(12,89,11,1)"/>
  <circle cx="0" cy="6" r="1" fill="white"/>
  <circle cx="1" cy="6" r="1" fill="white"/>
  <circle cx="2" cy="6" r="1" fill="srgba(90.7958%,93.7133%,90.7546%,1)"/>
  <circle cx="3" cy="6" r="1" fill="srgba(18.7579%,44.5029%,18.4192%,1)"/>
  <circle cx="4" cy="6" r="1" fill="srgba(3.11284%,33.814%,2.71458%,1)"/>
  <circle cx="5" cy="6" r="1" fill="srgba(16.2463%,42.7848%,15.9014%,1)"/>
  <circle cx="6" cy="6" r="1" fill="srgba(74.8486%,82.8183%,74.7463%,1)"/>
  <circle cx="7" cy="6" r="1" fill="srgba(18.9776%,44.6509%,18.645%,1)"/>
  <circle cx="8" cy="6" r="1" fill="srgba(3.73999%,34.2412%,3.34325%,1)"/>
  <circle cx="9" cy="6" r="1" fill="srgba(4.62806%,34.8486%,4.2359%,1)"/>
  <circle cx="10" cy="6" r="1" fill="srgba(35.0759%,55.6481%,34.8089%,1)"/>
  <circle cx="11" cy="6" r="1" fill="srgba(79.8856%,86.2608%,79.8032%,1)"/>
  <circle cx="12" cy="6" r="1" fill="srgba(25.3361%,48.9952%,25.0294%,1)"/>
  <circle cx="13" cy="6" r="1" fill="srgba(3.73083%,34.2367%,3.33562%,1)"/>
  <circle cx="14" cy="6" r="1" fill="srgba(12,89,11,1)"/>
  <circle cx="15" cy="6" r="1" fill="srgba(12,89,11,1)"/>
  <circle cx="0" cy="7" r="1" fill="white"/>
  <circle cx="1" cy="7" r="1" fill="white"/>
  <circle cx="2" cy="7" r="1" fill="srgba(90.7958%,93.7133%,90.7546%,1)"/>
  <circle cx="3" cy="7" r="1" fill="srgba(18.7579%,44.5029%,18.4192%,1)"/>
  <circle cx="4" cy="7" r="1" fill="srgba(2.33768%,33.283%,1.93484%,1)"/>
  <circle cx="5" cy="7" r="1" fill="srgba(31.165%,52.9778%,30.8812%,1)"/>
  <circle cx="6" cy="7" r="1" fill="srgba(85.3605%,90.0008%,85.301%,1)"/>
  <circle cx="7" cy="7" r="1" fill="srgba(16.0372%,42.6429%,15.6909%,1)"/>
  <circle cx="8" cy="7" r="1" fill="srgba(3.95209%,34.3877%,3.55688%,1)"/>
  <circle cx="9" cy="7" r="1" fill="srgba(4.46479%,34.7372%,4.07263%,1)"/>
  <circle cx="10" cy="7" r="1" fill="srgba(9.8497%,38.4146%,9.47738%,1)"/>
  <circle cx="11" cy="7" r="1" fill="srgba(21.8677%,46.6255%,21.5442%,1)"/>
  <circle cx="12" cy="7" r="1" fill="srgba(8.81209%,37.7066%,8.43671%,1)"/>
  <circle cx="13" cy="7" r="1" fill="srgba(4.61585%,34.8409%,4.2237%,1)"/>
  <circle cx="14" cy="7" r="1" fill="srgba(12,89,11,1)"/>
  <circle cx="15" cy="7" r="1" fill="srgba(12,89,11,1)"/>
  <circle cx="0" cy="8" r="1" fill="white"/>
  <circle cx="1" cy="8" r="1" fill="white"/>
  <circle cx="2" cy="8" r="1" fill="srgba(90.7958%,93.7133%,90.7546%,1)"/>
  <circle cx="3" cy="8" r="1" fill="srgba(18.7579%,44.5029%,18.4192%,1)"/>
  <circle cx="4" cy="8" r="1" fill="srgba(2.37583%,33.3089%,1.97299%,1)"/>
  <circle cx="5" cy="8" r="1" fill="srgba(29.7429%,52.0058%,29.453%,1)"/>
  <circle cx="6" cy="8" r="1" fill="srgba(93.6553%,95.6664%,93.6294%,1)"/>
  <circle cx="7" cy="8" r="1" fill="srgba(34.1482%,55.0149%,33.8781%,1)"/>
  <circle cx="8" cy="8" r="1" fill="srgba(2.79545%,33.5973%,2.39567%,1)"/>
  <circle cx="9" cy="8" r="1" fill="srgba(4.69825%,34.8974%,4.3061%,1)"/>
  <circle cx="10" cy="8" r="1" fill="srgba(4.59144%,34.8241%,4.19928%,1)"/>
  <circle cx="11" cy="8" r="1" fill="srgba(3.99634%,34.4167%,3.60113%,1)"/>
  <circle cx="12" cy="8" r="1" fill="srgba(4.04822%,34.4518%,3.65301%,1)"/>
  <circle cx="13" cy="8" r="1" fill="srgba(4.66163%,34.8714%,4.26947%,1)"/>
  <circle cx="14" cy="8" r="1" fill="srgba(4.70893%,34.9035%,4.31678%,1)"/>
  <circle cx="15" cy="8" r="1" fill="srgba(12,89,11,1)"/>
  <circle cx="0" cy="9" r="1" fill="white"/>
  <circle cx="1" cy="9" r="1" fill="white"/>
  <circle cx="2" cy="9" r="1" fill="srgba(90.7958%,93.7133%,90.7546%,1)"/>
  <circle cx="3" cy="9" r="1" fill="srgba(18.7579%,44.5029%,18.4192%,1)"/>
  <circle cx="4" cy="9" r="1" fill="srgba(3.20439%,33.8766%,2.80766%,1)"/>
  <circle cx="5" cy="9" r="1" fill="srgba(14.02%,41.2634%,13.6645%,1)"/>
  <circle cx="6" cy="9" r="1" fill="srgba(83.2013%,88.5237%,83.1312%,1)"/>
  <circle cx="7" cy="9" r="1" fill="srgba(79.8291%,86.2211%,79.7467%,1)"/>
  <circle cx="8" cy="9" r="1" fill="srgba(20.2213%,45.5009%,19.8932%,1)"/>
  <circle cx="9" cy="9" r="1" fill="srgba(3.49279%,34.0734%,3.09606%,1)"/>
  <circle cx="10" cy="9" r="1" fill="srgba(2.95567%,33.7057%,2.55589%,1)"/>
  <circle cx="11" cy="9" r="1" fill="srgba(4.80964%,34.9722%,4.41749%,1)"/>
  <circle cx="12" cy="9" r="1" fill="srgba(12.0302%,39.9054%,11.6686%,1)"/>
  <circle cx="13" cy="9" r="1" fill="srgba(5.85489%,35.6863%,5.46731%,1)"/>
  <circle cx="14" cy="9" r="1" fill="srgba(4.64485%,34.8592%,4.25269%,1)"/>
  <circle cx="15" cy="9" r="1" fill="srgba(12,89,11,1)"/>
  <circle cx="0" cy="10" r="1" fill="white"/>
  <circle cx="1" cy="10" r="1" fill="white"/>
  <circle cx="2" cy="10" r="1" fill="srgba(90.7958%,93.7133%,90.7546%,1)"/>
  <circle cx="3" cy="10" r="1" fill="srgba(18.7579%,44.5029%,18.4192%,1)"/>
  <circle cx="4" cy="10" r="1" fill="srgba(3.79034%,34.2763%,3.39361%,1)"/>
  <circle cx="5" cy="10" r="1" fill="srgba(4.03754%,34.4457%,3.64233%,1)"/>
  <circle cx="6" cy="10" r="1" fill="srgba(36.5972%,56.6888%,36.3363%,1)"/>
  <circle cx="7" cy="10" r="1" fill="srgba(92.0485%,94.5678%,92.015%,1)"/>
  <circle cx="8" cy="10" r="1" fill="srgba(86.9108%,91.0582%,86.8574%,1)"/>
  <circle cx="9" cy="10" r="1" fill="srgba(56.0006%,69.9428%,55.819%,1)"/>
  <circle cx="10" cy="10" r="1" fill="srgba(44.5335%,62.1088%,44.3046%,1)"/>
  <circle cx="11" cy="10" r="1" fill="srgba(50.1839%,65.9693%,49.9794%,1)"/>
  <circle cx="12" cy="10" r="1" fill="srgba(28.7846%,51.3512%,28.4916%,1)"/>
  <circle cx="13" cy="10" r="1" fill="srgba(4.79133%,34.9599%,4.39918%,1)"/>
  <circle cx="14" cy="10" r="1" fill="srgba(4.67384%,34.8791%,4.28168%,1)"/>
  <circle cx="15" cy="10" r="1" fill="srgba(12,89,11,1)"/>
  <circle cx="0" cy="11" r="1" fill="white"/>
  <circle cx="1" cy="11" r="1" fill="white"/>
  <circle cx="2" cy="11" r="1" fill="srgba(90.7958%,93.7133%,90.7546%,1)"/>
  <circle cx="3" cy="11" r="1" fill="srgba(18.7579%,44.5029%,18.4192%,1)"/>
  <circle cx="4" cy="11" r="1" fill="srgba(3.80102%,34.284%,3.40581%,1)"/>
  <circle cx="5" cy="11" r="1" fill="srgba(4.59297%,34.8241%,4.19928%,1)"/>
  <circle cx="6" cy="11" r="1" fill="srgba(4.86152%,35.0072%,4.46937%,1)"/>
  <circle cx="7" cy="11" r="1" fill="srgba(27.3259%,50.3532%,27.0253%,1)"/>
  <circle cx="8" cy="11" r="1" fill="srgba(61.9409%,74.0002%,61.7838%,1)"/>
  <circle cx="9" cy="11" r="1" fill="srgba(74.2794%,82.4292%,74.1726%,1)"/>
  <circle cx="10" cy="11" r="1" fill="srgba(63.3326%,74.9523%,63.183%,1)"/>
  <circle cx="11" cy="11" r="1" fill="srgba(31.5541%,53.2418%,31.2718%,1)"/>
  <circle cx="12" cy="11" r="1" fill="srgba(6.19821%,35.9213%,5.81216%,1)"/>
  <circle cx="13" cy="11" r="1" fill="srgba(4.52583%,34.7784%,4.13214%,1)"/>
  <circle cx="14" cy="11" r="1" fill="srgba(4.70741%,34.9035%,4.31525%,1)"/>
  <circle cx="15" cy="11" r="1" fill="srgba(12,89,11,1)"/>
  <circle cx="0" cy="12" r="1" fill="white"/>
  <circle cx="1" cy="12" r="1" fill="white"/>
  <circle cx="2" cy="12" r="1" fill="srgba(90.7958%,93.7133%,90.7546%,1)"/>
  <circle cx="3" cy="12" r="1" fill="srgba(18.7579%,44.5029%,18.4192%,1)"/>
  <circle cx="4" cy="12" r="1" fill="srgba(3.7995%,34.2824%,3.40429%,1)"/>
  <circle cx="5" cy="12" r="1" fill="srgba(4.71046%,34.905%,4.3183%,1)"/>
  <circle cx="6" cy="12" r="1" fill="srgba(4.63722%,34.8547%,4.24506%,1)"/>
  <circle cx="7" cy="12" r="1" fill="srgba(3.60571%,34.1512%,3.2105%,1)"/>
  <circle cx="8" cy="12" r="1" fill="srgba(4.67079%,34.8775%,4.27863%,1)"/>
  <circle cx="9" cy="12" r="1" fill="srgba(6.89403%,36.3973%,6.51102%,1)"/>
  <circle cx="10" cy="12" r="1" fill="srgba(4.91646%,35.0454%,4.52583%,1)"/>
  <circle cx="11" cy="12" r="1" fill="srgba(3.54467%,34.1085%,3.14794%,1)"/>
  <circle cx="12" cy="12" r="1" fill="srgba(4.59602%,34.8272%,4.20386%,1)"/>
  <circle cx="13" cy="12" r="1" fill="srgba(4.71199%,34.9065%,4.31983%,1)"/>
  <circle cx="14" cy="12" r="1" fill="srgba(12,89,11,1)"/>
  <circle cx="15" cy="12" r="1" fill="srgba(12,89,11,1)"/>
  <circle cx="0" cy="13" r="1" fill="white"/>
  <circle cx="1" cy="13" r="1" fill="white"/>
  <circle cx="2" cy="13" r="1" fill="srgba(90.7958%,93.7133%,90.7546%,1)"/>
  <circle cx="3" cy="13" r="1" fill="srgba(18.7579%,44.5029%,18.4192%,1)"/>
  <circle cx="4" cy="13" r="1" fill="srgba(3.7995%,34.2824%,3.40429%,1)"/>
  <circle cx="5" cy="13" r="1" fill="srgba(12,89,11,1)"/>
  <circle cx="6" cy="13" r="1" fill="srgba(12,89,11,1)"/>
  <circle cx="7" cy="13" r="1" fill="srgba(4.70741%,34.9035%,4.31525%,1)"/>
  <circle cx="8" cy="13" r="1" fill="srgba(4.66621%,34.8745%,4.27405%,1)"/>
  <circle cx="9" cy="13" r="1" fill="srgba(4.57465%,34.8119%,4.18097%,1)"/>
  <circle cx="10" cy="13" r="1" fill="srgba(4.65858%,34.8699%,4.26642%,1)"/>
  <circle cx="11" cy="13" r="1" fill="srgba(4.70741%,34.9035%,4.31525%,1)"/>
  <circle cx="12" cy="13" r="1" fill="srgba(12,89,11,1)"/>
  <circle cx="13" cy="13" r="1" fill="srgba(12,89,11,1)"/>
  <circle cx="14" cy="13" r="1" fill="srgba(12,89,11,1)"/>
  <circle cx="15" cy="13" r="1" fill="srgba(12,89,11,1)"/>
  <circle cx="0" cy="14" r="1" fill="white"/>
  <circle cx="1" cy="14" r="1" fill="white"/>
  <circle cx="2" cy="14" r="1" fill="srgba(90.7958%,93.7133%,90.7546%,1)"/>
  <circle cx="3" cy="14" r="1" fill="srgba(18.7579%,44.5029%,18.4192%,1)"/>
  <circle cx="4" cy="14" r="1" fill="srgba(3.7995%,34.2824%,3.40429%,1)"/>
  <circle cx="5" cy="14" r="1" fill="srgba(12,89,11,1)"/>
  <circle cx="6" cy="14" r="1" fill="srgba(12,89,11,1)"/>
  <circle cx="7" cy="14" r="1" fill="srgba(12,89,11,1)"/>
  <circle cx="8" cy="14" r="1" fill="srgba(12,89,11,1)"/>
  <circle cx="9" cy="14" r="1" fill="srgba(12,89,11,1)"/>
  <circle cx="10" cy="14" r="1" fill="srgba(12,89,11,1)"/>
  <circle cx="11" cy="14" r="1" fill="srgba(12,89,11,1)"/>
  <circle cx="12" cy="14" r="1" fill="srgba(12,89,11,1)"/>
  <circle cx="13" cy="14" r="1" fill="srgba(12,89,11,1)"/>
  <circle cx="14" cy="14" r="1" fill="srgba(12,89,11,1)"/>
  <circle cx="15" cy="14" r="1" fill="srgba(12,89,11,1)"/>
  <circle cx="0" cy="15" r="1" fill="white"/>
  <circle cx="1" cy="15" r="1" fill="white"/>
  <circle cx="2" cy="15" r="1" fill="srgba(90.7958%,93.7133%,90.7546%,1)"/>
  <circle cx="3" cy="15" r="1" fill="srgba(18.7579%,44.5029%,18.4192%,1)"/>
  <circle cx="4" cy="15" r="1" fill="srgba(3.7995%,34.2824%,3.40429%,1)"/>
  <circle cx="5" cy="15" r="1" fill="srgba(12,89,11,1)"/>
  <circle cx="6" cy="15" r="1" fill="srgba(12,89,11,1)"/>
  <circle cx="7" cy="15" r="1" fill="srgba(12,89,11,1)"/>
  <circle cx="8" cy="15" r="1" fill="srgba(12,89,11,1)"/>
  <circle cx="9" cy="15" r="1" fill="srgba(12,89,11,1)"/>
  <circle cx="10" cy="15" r="1" fill="srgba(12,89,11,1)"/>
  <circle cx="11" cy="15" r="1" fill="srgba(12,89,11,1)"/>
  <circle cx="12" cy="15" r="1" fill="srgba(12,89,11,1)"/>
  <circle cx="13" cy="15" r="1" fill="srgba(12,89,11,1)"/>
  <circle cx="14" cy="15" r="1" fill="srgba(12,89,11,1)"/>
  <circle cx="15" cy="15" r="1" fill="srgba(12,89,11,1)"/>
</svg>
