<?xml version="1.0" standalone="no"?>
<!DOCTYPE svg PUBLIC "-//W3C//DTD SVG 20010904//EN"
  "http://www.w3.org/TR/2001/REC-SVG-20010904/DTD/svg10.dtd">
<svg width="16" height="16">
  <circle cx="0" cy="0" r="1" fill="srgba(83.7385%,45.2338%,52.2194%,1)"/>
  <circle cx="1" cy="0" r="1" fill="srgba(93.724%,69.8543%,72.8405%,1)"/>
  <circle cx="2" cy="0" r="1" fill="srgba(70.0893%,69.8787%,80.4623%,1)"/>
  <circle cx="3" cy="0" r="1" fill="srgba(25.8854%,37.4975%,63.3188%,1)"/>
  <circle cx="4" cy="0" r="1" fill="srgba(2.29496%,15.7519%,50.0877%,1)"/>
  <circle cx="5" cy="0" r="1" fill="srgba(0%,11.5587%,47.5593%,1)"/>
  <circle cx="6" cy="0" r="1" fill="srgba(34.7982%,41.0864%,63.9872%,1)"/>
  <circle cx="7" cy="0" r="1" fill="srgba(85.1835%,29.0883%,36.1349%,1)"/>
  <circle cx="8" cy="0" r="1" fill="srgba(85.4353%,29.247%,36.112%,1)"/>
  <circle cx="9" cy="0" r="1" fill="srgba(51.1299%,51.2078%,61.6251%,1)"/>
  <circle cx="10" cy="0" r="1" fill="srgba(1.92569%,14.3862%,47.3182%,1)"/>
  <circle cx="11" cy="0" r="1" fill="srgba(2.14084%,16.4752%,50.8904%,1)"/>
  <circle cx="12" cy="0" r="1" fill="srgba(23.8102%,27.3106%,54.1299%,1)"/>
  <circle cx="13" cy="0" r="1" fill="srgba(63.946%,39.8062%,53.3318%,1)"/>
  <circle cx="14" cy="0" r="1" fill="srgba(90.1106%,52.1843%,56.9024%,1)"/>
  <circle cx="15" cy="0" r="1" fill="srgba(89.3782%,72.8817%,77.1695%,1)"/>
  <circle cx="0" cy="1" r="1" fill="srgba(21.8494%,25.9205%,53.4173%,1)"/>
  <circle cx="1" cy="1" r="1" fill="srgba(53.8262%,35.4925%,52.4025%,1)"/>
  <circle cx="2" cy="1" r="1" fill="srgba(82.8824%,50.0328%,57.1405%,1)"/>
  <circle cx="3" cy="1" r="1" fill="srgba(86.6453%,67.2374%,72.5872%,1)"/>
  <circle cx="4" cy="1" r="1" fill="srgba(60.5585%,62.0356%,75.9335%,1)"/>
  <circle cx="5" cy="1" r="1" fill="srgba(20.705%,32.2683%,59.9329%,1)"/>
  <circle cx="6" cy="1" r="1" fill="srgba(36.7636%,42.9892%,65.1621%,1)"/>
  <circle cx="7" cy="1" r="1" fill="srgba(85.0568%,28.9693%,36.0647%,1)"/>
  <circle cx="8" cy="1" r="1" fill="srgba(85.3574%,29.1814%,36.0678%,1)"/>
  <circle cx="9" cy="1" r="1" fill="srgba(52.4331%,52.3919%,62.3621%,1)"/>
  <circle cx="10" cy="1" r="1" fill="srgba(22.4674%,26.2303%,51.8654%,1)"/>
  <circle cx="11" cy="1" r="1" fill="srgba(55.1415%,36.2631%,52.8283%,1)"/>
  <circle cx="12" cy="1" r="1" fill="srgba(83.1617%,50.2129%,57.229%,1)"/>
  <circle cx="13" cy="1" r="1" fill="srgba(86.3676%,67.1168%,72.5566%,1)"/>
  <circle cx="14" cy="1" r="1" fill="srgba(59.0814%,61.2299%,75.6268%,1)"/>
  <circle cx="15" cy="1" r="1" fill="srgba(23.7629%,35.2926%,61.8738%,1)"/>
  <circle cx="0" cy="2" r="1" fill="srgba(33.4859%,40.528%,63.8163%,1)"/>
  <circle cx="1" cy="2" r="1" fill="srgba(36.2753%,43.3417%,65.6413%,1)"/>
  <circle cx="2" cy="2" r="1" fill="srgba(55.8251%,53.0022%,68.7068%,1)"/>
  <circle cx="3" cy="2" r="1" fill="srgba(85.4902%,59.2691%,65.2399%,1)"/>
  <circle cx="4" cy="2" r="1" fill="srgba(94.8882%,67.8004%,70.4738%,1)"/>
  <circle cx="5" cy="2" r="1" fill="srgba(90.428%,86.1799%,89.7002%,1)"/>
  <circle cx="6" cy="2" r="1" fill="srgba(80.3372%,77.847%,84.8798%,1)"/>
  <circle cx="7" cy="2" r="1" fill="srgba(84.889%,28.1788%,35.3521%,1)"/>
  <circle cx="8" cy="2" r="1" fill="srgba(85.0019%,28.4581%,35.4925%,1)"/>
  <circle cx="9" cy="2" r="1" fill="srgba(73.1655%,64.4221%,67.0878%,1)"/>
  <circle cx="10" cy="2" r="1" fill="srgba(81.4939%,53.1319%,58.468%,1)"/>
  <circle cx="11" cy="2" r="1" fill="srgba(95.8282%,71.6136%,74.2397%,1)"/>
  <circle cx="12" cy="2" r="1" fill="srgba(90.8446%,85.275%,88.9921%,1)"/>
  <circle cx="13" cy="2" r="1" fill="srgba(57.6104%,61.5366%,76.6995%,1)"/>
  <circle cx="14" cy="2" r="1" fill="srgba(36.1044%,42.2995%,65.0004%,1)"/>
  <circle cx="15" cy="2" r="1" fill="srgba(33.3593%,39.707%,63.3753%,1)"/>
  <circle cx="0" cy="3" r="1" fill="srgba(85.1942%,29.0883%,36.1334%,1)"/>
  <circle cx="1" cy="3" r="1" fill="srgba(85.0446%,28.9555%,36.051%,1)"/>
  <circle cx="2" cy="3" r="1" fill="srgba(84.1123%,28.5359%,35.9457%,1)"/>
  <circle cx="3" cy="3" r="1" fill="srgba(84.9195%,29.5674%,36.6842%,1)"/>
  <circle cx="4" cy="3" r="1" fill="srgba(85.3346%,28.1041%,35.1354%,1)"/>
  <circle cx="5" cy="3" r="1" fill="srgba(86.0151%,29.4606%,36.228%,1)"/>
  <circle cx="6" cy="3" r="1" fill="srgba(86.389%,29.4987%,36.1593%,1)"/>
  <circle cx="7" cy="3" r="1" fill="srgba(82.2339%,12.9046%,21.4511%,1)"/>
  <circle cx="8" cy="3" r="1" fill="srgba(82.092%,13.0358%,21.5488%,1)"/>
  <circle cx="9" cy="3" r="1" fill="srgba(73.5668%,33.4005%,36.2707%,1)"/>
  <circle cx="10" cy="3" r="1" fill="srgba(81.5503%,31.3359%,35.4101%,1)"/>
  <circle cx="11" cy="3" r="1" fill="srgba(87.1626%,36.0449%,38.0346%,1)"/>
  <circle cx="12" cy="3" r="1" fill="srgba(85.4902%,35.4467%,36.7346%,1)"/>
  <circle cx="13" cy="3" r="1" fill="srgba(84.5594%,33.9559%,36.1501%,1)"/>
  <circle cx="14" cy="3" r="1" fill="srgba(85.5985%,34.9096%,36.6751%,1)"/>
  <circle cx="15" cy="3" r="1" fill="srgba(85.7542%,35.0835%,36.7453%,1)"/>
  <circle cx="0" cy="4" r="1" fill="srgba(85.1942%,29.0898%,36.1334%,1)"/>
  <circle cx="1" cy="4" r="1" fill="srgba(85.0416%,28.9586%,36.0555%,1)"/>
  <circle cx="2" cy="4" r="1" fill="srgba(84.0116%,28.0659%,35.523%,1)"/>
  <circle cx="3" cy="4" r="1" fill="srgba(84.8142%,28.9967%,36.1654%,1)"/>
  <circle cx="4" cy="4" r="1" fill="srgba(85.8274%,30.5089%,37.3037%,1)"/>
  <circle cx="5" cy="4" r="1" fill="srgba(85.9007%,28.8899%,35.7183%,1)"/>
  <circle cx="6" cy="4" r="1" fill="srgba(86.1204%,28.6503%,35.2636%,1)"/>
  <circle cx="7" cy="4" r="1" fill="srgba(82.1149%,12.9305%,21.2085%,1)"/>
  <circle cx="8" cy="4" r="1" fill="srgba(82.4231%,13.0098%,21.6999%,1)"/>
  <circle cx="9" cy="4" r="1" fill="srgba(68.0812%,33.254%,33.7865%,1)"/>
  <circle cx="10" cy="4" r="1" fill="srgba(49.987%,31.1849%,19.1882%,1)"/>
  <circle cx="11" cy="4" r="1" fill="srgba(70.0435%,37.2869%,11.8639%,1)"/>
  <circle cx="12" cy="4" r="1" fill="srgba(90.8186%,59.8627%,9.99771%,1)"/>
  <circle cx="13" cy="4" r="1" fill="srgba(93.0098%,70.3716%,8.77546%,1)"/>
  <circle cx="14" cy="4" r="1" fill="srgba(92.8237%,70.3807%,9.01808%,1)"/>
  <circle cx="15" cy="4" r="1" fill="srgba(92.6146%,70.2434%,9.22713%,1)"/>
  <circle cx="0" cy="5" r="1" fill="srgba(33.3684%,39.9908%,63.3341%,1)"/>
  <circle cx="1" cy="5" r="1" fill="srgba(36.1898%,42.6505%,65.0019%,1)"/>
  <circle cx="2" cy="5" r="1" fill="srgba(57.8744%,62.031%,76.791%,1)"/>
  <circle cx="3" cy="5" r="1" fill="srgba(91.0323%,85.6565%,89.0013%,1)"/>
  <circle cx="4" cy="5" r="1" fill="srgba(95.6695%,71.6701%,73.9757%,1)"/>
  <circle cx="5" cy="5" r="1" fill="srgba(83.9902%,55.2544%,62.2171%,1)"/>
  <circle cx="6" cy="5" r="1" fill="srgba(77.995%,71.4824%,72.7001%,1)"/>
  <circle cx="7" cy="5" r="1" fill="srgba(85.0065%,36.6583%,26.5187%,1)"/>
  <circle cx="8" cy="5" r="1" fill="srgba(85.1942%,28.1132%,35.8724%,1)"/>
  <circle cx="9" cy="5" r="1" fill="srgba(64.1901%,61.6236%,57.9126%,1)"/>
  <circle cx="10" cy="5" r="1" fill="srgba(44.4297%,51.0369%,38.4558%,1)"/>
  <circle cx="11" cy="5" r="1" fill="srgba(49.6407%,42.446%,33.4051%,1)"/>
  <circle cx="12" cy="5" r="1" fill="srgba(67.5486%,47.1458%,33.0358%,1)"/>
  <circle cx="13" cy="5" r="1" fill="srgba(80.2274%,72.1126%,24.8768%,1)"/>
  <circle cx="14" cy="5" r="1" fill="srgba(94.4625%,86.1112%,12.517%,1)"/>
  <circle cx="15" cy="5" r="1" fill="srgba(98.0484%,89.3278%,8.85939%,1)"/>
  <circle cx="0" cy="6" r="1" fill="srgba(24.2069%,35.6771%,62.1073%,1)"/>
  <circle cx="1" cy="6" r="1" fill="srgba(59.8245%,61.7762%,75.9197%,1)"/>
  <circle cx="2" cy="6" r="1" fill="srgba(87.1519%,67.538%,72.7123%,1)"/>
  <circle cx="3" cy="6" r="1" fill="srgba(83.7156%,50.4936%,57.3205%,1)"/>
  <circle cx="4" cy="6" r="1" fill="srgba(55.4955%,36.5042%,52.8481%,1)"/>
  <circle cx="5" cy="6" r="1" fill="srgba(19.0356%,24.1855%,53.4264%,1)"/>
  <circle cx="6" cy="6" r="1" fill="srgba(36.4385%,44.8997%,53.6751%,1)"/>
  <circle cx="7" cy="6" r="1" fill="srgba(88.8533%,53.7407%,18.6526%,1)"/>
  <circle cx="8" cy="6" r="1" fill="srgba(84.6677%,29.5369%,36.1334%,1)"/>
  <circle cx="9" cy="6" r="1" fill="srgba(57.1832%,58.0606%,48.661%,1)"/>
  <circle cx="10" cy="6" r="1" fill="srgba(29.2699%,37.1099%,29.6071%,1)"/>
  <circle cx="11" cy="6" r="1" fill="srgba(38.4344%,45.2613%,30.5318%,1)"/>
  <circle cx="12" cy="6" r="1" fill="srgba(36.0967%,45.4353%,29.9931%,1)"/>
  <circle cx="13" cy="6" r="1" fill="srgba(36.5835%,45.8473%,29.247%,1)"/>
  <circle cx="14" cy="6" r="1" fill="srgba(45.9312%,54.3893%,20.7782%,1)"/>
  <circle cx="15" cy="6" r="1" fill="srgba(55.3902%,63.1296%,11.2245%,1)"/>
  <circle cx="0" cy="7" r="1" fill="srgba(78.6816%,65.6931%,73.6507%,1)"/>
  <circle cx="1" cy="7" r="1" fill="srgba(79.1974%,47.5425%,55.9182%,1)"/>
  <circle cx="2" cy="7" r="1" fill="srgba(55.9823%,36.6598%,52.842%,1)"/>
  <circle cx="3" cy="7" r="1" fill="srgba(20.7324%,25.655%,53.5119%,1)"/>
  <circle cx="4" cy="7" r="1" fill="srgba(1.99741%,16.2448%,50.5989%,1)"/>
  <circle cx="5" cy="7" r="1" fill="srgba(0%,12.3568%,49.0211%,1)"/>
  <circle cx="6" cy="7" r="1" fill="srgba(28.4031%,38.4924%,48.3558%,1)"/>
  <circle cx="7" cy="7" r="1" fill="srgba(63.6057%,55.7366%,15.9777%,1)"/>
  <circle cx="8" cy="7" r="1" fill="srgba(67.6448%,29.3431%,30.7164%,1)"/>
  <circle cx="9" cy="7" r="1" fill="srgba(70.6615%,66.772%,29.6605%,1)"/>
  <circle cx="10" cy="7" r="1" fill="srgba(58.9853%,57.5204%,18.555%,1)"/>
  <circle cx="11" cy="7" r="1" fill="srgba(58.8968%,59.6811%,14.2962%,1)"/>
  <circle cx="12" cy="7" r="1" fill="srgba(55.5764%,63.0137%,9.53231%,1)"/>
  <circle cx="13" cy="7" r="1" fill="srgba(36.9772%,53.3806%,11.0231%,1)"/>
  <circle cx="14" cy="7" r="1" fill="srgba(22.9023%,45.5406%,12.1553%,1)"/>
  <circle cx="15" cy="7" r="1" fill="srgba(17.5402%,42.5879%,12.6207%,1)"/>
  <circle cx="0" cy="8" r="1" fill="srgba(10.6966%,15.9808%,47.3854%,1)"/>
  <circle cx="1" cy="8" r="1" fill="srgba(9.49416%,16.9512%,48.7037%,1)"/>
  <circle cx="2" cy="8" r="1" fill="srgba(2.28733%,16.4141%,50.6706%,1)"/>
  <circle cx="3" cy="8" r="1" fill="srgba(0%,13.4798%,48.7831%,1)"/>
  <circle cx="4" cy="8" r="1" fill="srgba(0%,13.9925%,48.9387%,1)"/>
  <circle cx="5" cy="8" r="1" fill="srgba(0%,13.5088%,49.6452%,1)"/>
  <circle cx="6" cy="8" r="1" fill="srgba(9.56741%,26.8116%,36.35%,1)"/>
  <circle cx="7" cy="8" r="1" fill="srgba(21.2406%,45.3254%,13.0678%,1)"/>
  <circle cx="8" cy="8" r="1" fill="srgba(23.8895%,37.4273%,18.7427%,1)"/>
  <circle cx="9" cy="8" r="1" fill="srgba(66.1799%,64.0879%,17.612%,1)"/>
  <circle cx="10" cy="8" r="1" fill="srgba(93.8201%,84.7791%,8.28107%,1)"/>
  <circle cx="11" cy="8" r="1" fill="srgba(89.6696%,80.9689%,9.34005%,1)"/>
  <circle cx="12" cy="8" r="1" fill="srgba(91.3085%,82.4949%,8.36957%,1)"/>
  <circle cx="13" cy="8" r="1" fill="srgba(89.9062%,82.742%,8.87007%,1)"/>
  <circle cx="14" cy="8" r="1" fill="srgba(78.4421%,76.8536%,9.65133%,1)"/>
  <circle cx="15" cy="8" r="1" fill="srgba(60.5814%,66.9688%,10.5791%,1)"/>
  <circle cx="0" cy="9" r="1" fill="srgba(0%,13.9925%,49.1157%,1)"/>
  <circle cx="1" cy="9" r="1" fill="srgba(0%,13.8689%,48.9799%,1)"/>
  <circle cx="2" cy="9" r="1" fill="srgba(0%,13.9925%,48.9448%,1)"/>
  <circle cx="3" cy="9" r="1" fill="srgba(0%,14.1238%,49.0227%,1)"/>
  <circle cx="4" cy="9" r="1" fill="srgba(0%,14.0795%,49.0761%,1)"/>
  <circle cx="5" cy="9" r="1" fill="srgba(0.138857%,14.2824%,48.6229%,1)"/>
  <circle cx="6" cy="9" r="1" fill="srgba(9.51858%,28.9708%,29.8726%,1)"/>
  <circle cx="7" cy="9" r="1" fill="srgba(24.2283%,47.0497%,11.9661%,1)"/>
  <circle cx="8" cy="9" r="1" fill="srgba(27.9225%,45.3254%,13.8445%,1)"/>
  <circle cx="9" cy="9" r="1" fill="srgba(66.8177%,65.8808%,15.259%,1)"/>
  <circle cx="10" cy="9" r="1" fill="srgba(94.7982%,85.7542%,8.4535%,1)"/>
  <circle cx="11" cy="9" r="1" fill="srgba(92.6497%,84.0253%,8.55879%,1)"/>
  <circle cx="12" cy="9" r="1" fill="srgba(94.0002%,85.2461%,8.7541%,1)"/>
  <circle cx="13" cy="9" r="1" fill="srgba(92.2698%,83.5935%,8.55879%,1)"/>
  <circle cx="14" cy="9" r="1" fill="srgba(95.7458%,86.479%,8.77241%,1)"/>
  <circle cx="15" cy="9" r="1" fill="srgba(96.9635%,87.4479%,8.82887%,1)"/>
  <circle cx="0" cy="10" r="1" fill="srgba(0,36,125,1)"/>
  <circle cx="1" cy="10" r="1" fill="srgba(0,36,125,1)"/>
  <circle cx="2" cy="10" r="1" fill="srgba(0,36,125,1)"/>
  <circle cx="3" cy="10" r="1" fill="srgba(0,36,125,1)"/>
  <circle cx="4" cy="10" r="1" fill="srgba(0%,14.0719%,49.0867%,1)"/>
  <circle cx="5" cy="10" r="1" fill="srgba(0.242618%,14.4442%,48.3986%,1)"/>
  <circle cx="6" cy="10" r="1" fill="srgba(10.3212%,29.8054%,28.9372%,1)"/>
  <circle cx="7" cy="10" r="1" fill="srgba(20.5936%,44.7242%,12.1035%,1)"/>
  <circle cx="8" cy="10" r="1" fill="srgba(22.594%,42.8916%,13.9818%,1)"/>
  <circle cx="9" cy="10" r="1" fill="srgba(68.4993%,67.039%,14.9081%,1)"/>
  <circle cx="10" cy="10" r="1" fill="srgba(96.8215%,87.5547%,8.68391%,1)"/>
  <circle cx="11" cy="10" r="1" fill="srgba(93.1563%,84.4862%,8.6717%,1)"/>
  <circle cx="12" cy="10" r="1" fill="srgba(94.9401%,86.099%,8.83955%,1)"/>
  <circle cx="13" cy="10" r="1" fill="srgba(95.7336%,86.7857%,8.90059%,1)"/>
  <circle cx="14" cy="10" r="1" fill="srgba(92.2087%,84.2069%,8.82734%,1)"/>
  <circle cx="15" cy="10" r="1" fill="srgba(88.6412%,82.5742%,9.15389%,1)"/>
  <circle cx="0" cy="11" r="1" fill="srgba(0,36,125,1)"/>
  <circle cx="1" cy="11" r="1" fill="srgba(0,36,125,1)"/>
  <circle cx="2" cy="11" r="1" fill="srgba(0,36,125,1)"/>
  <circle cx="3" cy="11" r="1" fill="srgba(0,36,125,1)"/>
  <circle cx="4" cy="11" r="1" fill="srgba(0%,14.1192%,49.0181%,1)"/>
  <circle cx="5" cy="11" r="1" fill="srgba(0%,13.5561%,49.6498%,1)"/>
  <circle cx="6" cy="11" r="1" fill="srgba(8.35126%,26.6209%,33.4386%,1)"/>
  <circle cx="7" cy="11" r="1" fill="srgba(19.7131%,44.4495%,12.2789%,1)"/>
  <circle cx="8" cy="11" r="1" fill="srgba(19.4354%,41.3718%,14.0887%,1)"/>
  <circle cx="9" cy="11" r="1" fill="srgba(67.6982%,66.4576%,14.2214%,1)"/>
  <circle cx="10" cy="11" r="1" fill="srgba(97.8515%,88.4428%,8.78767%,1)"/>
  <circle cx="11" cy="11" r="1" fill="srgba(93.9513%,85.2033%,8.75105%,1)"/>
  <circle cx="12" cy="11" r="1" fill="srgba(95.0072%,86.1601%,8.84718%,1)"/>
  <circle cx="13" cy="11" r="1" fill="srgba(95.5077%,86.5995%,8.88685%,1)"/>
  <circle cx="14" cy="11" r="1" fill="srgba(95.8053%,87.1214%,9.01961%,1)"/>
  <circle cx="15" cy="11" r="1" fill="srgba(80.6027%,77.9644%,9.50484%,1)"/>
  <circle cx="0" cy="12" r="1" fill="srgba(0,36,125,1)"/>
  <circle cx="1" cy="12" r="1" fill="srgba(0,36,125,1)"/>
  <circle cx="2" cy="12" r="1" fill="srgba(0,36,125,1)"/>
  <circle cx="3" cy="12" r="1" fill="srgba(0,36,125,1)"/>
  <circle cx="4" cy="12" r="1" fill="srgba(0%,14.1146%,49.0257%,1)"/>
  <circle cx="5" cy="12" r="1" fill="srgba(0%,13.6553%,49.4881%,1)"/>
  <circle cx="6" cy="12" r="1" fill="srgba(8.44129%,26.7002%,32.7398%,1)"/>
  <circle cx="7" cy="12" r="1" fill="srgba(26.4088%,47.4891%,11.3054%,1)"/>
  <circle cx="8" cy="12" r="1" fill="srgba(36.9024%,52.0668%,24.0085%,1)"/>
  <circle cx="9" cy="12" r="1" fill="srgba(65.2628%,65.7191%,19.3561%,1)"/>
  <circle cx="10" cy="12" r="1" fill="srgba(97.969%,88.4474%,8.39704%,1)"/>
  <circle cx="11" cy="12" r="1" fill="srgba(94.2596%,85.4826%,8.77546%,1)"/>
  <circle cx="12" cy="12" r="1" fill="srgba(95.7031%,86.7918%,8.91279%,1)"/>
  <circle cx="13" cy="12" r="1" fill="srgba(95.172%,86.3111%,8.86244%,1)"/>
  <circle cx="14" cy="12" r="1" fill="srgba(96.0754%,87.1031%,8.93568%,1)"/>
  <circle cx="15" cy="12" r="1" fill="srgba(96.73%,87.7729%,9.02724%,1)"/>
  <circle cx="0" cy="13" r="1" fill="srgba(0,36,125,1)"/>
  <circle cx="1" cy="13" r="1" fill="srgba(0,36,125,1)"/>
  <circle cx="2" cy="13" r="1" fill="srgba(0,36,125,1)"/>
  <circle cx="3" cy="13" r="1" fill="srgba(0,36,125,1)"/>
  <circle cx="4" cy="13" r="1" fill="srgba(0,36,125,1)"/>
  <circle cx="5" cy="13" r="1" fill="srgba(0%,13.5882%,49.6345%,1)"/>
  <circle cx="6" cy="13" r="1" fill="srgba(7.53338%,26.1494%,33.5592%,1)"/>
  <circle cx="7" cy="13" r="1" fill="srgba(29.1569%,49.0639%,11.6152%,1)"/>
  <circle cx="8" cy="13" r="1" fill="srgba(67.7089%,68.6839%,15.7763%,1)"/>
  <circle cx="9" cy="13" r="1" fill="srgba(77.5845%,71.9051%,11.8425%,1)"/>
  <circle cx="10" cy="13" r="1" fill="srgba(97.2381%,88.0888%,8.81209%,1)"/>
  <circle cx="11" cy="13" r="1" fill="srgba(94.2%,85.4322%,8.76631%,1)"/>
  <circle cx="12" cy="13" r="1" fill="srgba(96.5286%,87.5395%,8.98756%,1)"/>
  <circle cx="13" cy="13" r="1" fill="srgba(95.3323%,86.4546%,8.87617%,1)"/>
  <circle cx="14" cy="13" r="1" fill="srgba(95.3033%,86.4302%,8.87465%,1)"/>
  <circle cx="15" cy="13" r="1" fill="srgba(96.4996%,87.509%,8.98451%,1)"/>
  <circle cx="0" cy="14" r="1" fill="srgba(0,36,125,1)"/>
  <circle cx="1" cy="14" r="1" fill="srgba(0,36,125,1)"/>
  <circle cx="2" cy="14" r="1" fill="srgba(0,36,125,1)"/>
  <circle cx="3" cy="14" r="1" fill="srgba(0,36,125,1)"/>
  <circle cx="4" cy="14" r="1" fill="srgba(0,36,125,1)"/>
  <circle cx="5" cy="14" r="1" fill="srgba(0%,13.5912%,49.633%,1)"/>
  <circle cx="6" cy="14" r="1" fill="srgba(7.35943%,26.006%,33.5851%,1)"/>
  <circle cx="7" cy="14" r="1" fill="srgba(34.165%,50.457%,10.8583%,1)"/>
  <circle cx="8" cy="14" r="1" fill="srgba(77.5647%,73.3883%,9.36599%,1)"/>
  <circle cx="9" cy="14" r="1" fill="srgba(83.0121%,75.2758%,9.00435%,1)"/>
  <circle cx="10" cy="14" r="1" fill="srgba(97.0153%,87.982%,8.98451%,1)"/>
  <circle cx="11" cy="14" r="1" fill="srgba(94.165%,85.3986%,8.76631%,1)"/>
  <circle cx="12" cy="14" r="1" fill="srgba(96.7285%,87.7211%,9.0074%,1)"/>
  <circle cx="13" cy="14" r="1" fill="srgba(96.0891%,87.1412%,8.94789%,1)"/>
  <circle cx="14" cy="14" r="1" fill="srgba(95.2926%,86.4195%,8.87312%,1)"/>
  <circle cx="15" cy="14" r="1" fill="srgba(95.4162%,86.5309%,8.8838%,1)"/>
  <circle cx="0" cy="15" r="1" fill="srgba(0,36,125,1)"/>
  <circle cx="1" cy="15" r="1" fill="srgba(0,36,125,1)"/>
  <circle cx="2" cy="15" r="1" fill="srgba(0,36,125,1)"/>
  <circle cx="3" cy="15" r="1" fill="srgba(0,36,125,1)"/>
  <circle cx="4" cy="15" r="1" fill="srgba(0,36,125,1)"/>
  <circle cx="5" cy="15" r="1" fill="srgba(0%,13.5897%,49.633%,1)"/>
  <circle cx="6" cy="15" r="1" fill="srgba(7.12902%,25.8961%,33.6538%,1)"/>
  <circle cx="7" cy="15" r="1" fill="srgba(43.5477%,55.2941%,10.2373%,1)"/>
  <circle cx="8" cy="15" r="1" fill="srgba(79.8703%,74.461%,9.47127%,1)"/>
  <circle cx="9" cy="15" r="1" fill="srgba(84.3412%,76.6873%,9.16609%,1)"/>
  <circle cx="10" cy="15" r="1" fill="srgba(97.0367%,87.9957%,8.98604%,1)"/>
  <circle cx="11" cy="15" r="1" fill="srgba(94.1497%,85.3849%,8.77241%,1)"/>
  <circle cx="12" cy="15" r="1" fill="srgba(96.6613%,87.66%,9.0013%,1)"/>
  <circle cx="13" cy="15" r="1" fill="srgba(96.8002%,87.7867%,9.0135%,1)"/>
  <circle cx="14" cy="15" r="1" fill="srgba(95.4345%,86.5476%,8.88685%,1)"/>
  <circle cx="15" cy="15" r="1" fill="srgba(95.3262%,86.4485%,8.87617%,1)"/>
</svg>
