<?xml version="1.0" standalone="no"?>
<!DOCTYPE svg PUBLIC "-//W3C//DTD SVG 20010904//EN"
  "http://www.w3.org/TR/2001/REC-SVG-20010904/DTD/svg10.dtd">
<svg width="16" height="16">
  <circle cx="0" cy="0" r="1" fill="srgba(78.9288%,4.73945%,14.2214%,1)"/>
  <circle cx="1" cy="0" r="1" fill="srgba(93.37%,0.21973%,0.65919%,1)"/>
  <circle cx="2" cy="0" r="1" fill="srgba(93.6065%,0%,0%,1)"/>
  <circle cx="3" cy="0" r="1" fill="srgba(92.9305%,0%,0%,1)"/>
  <circle cx="4" cy="0" r="1" fill="srgba(237,0,0,1)"/>
  <circle cx="5" cy="0" r="1" fill="srgba(237,0,0,1)"/>
  <circle cx="6" cy="0" r="1" fill="srgba(237,0,0,1)"/>
  <circle cx="7" cy="0" r="1" fill="srgba(237,0,0,1)"/>
  <circle cx="8" cy="0" r="1" fill="srgba(237,0,0,1)"/>
  <circle cx="9" cy="0" r="1" fill="srgba(237,0,0,1)"/>
  <circle cx="10" cy="0" r="1" fill="srgba(237,0,0,1)"/>
  <circle cx="11" cy="0" r="1" fill="srgba(237,0,0,1)"/>
  <circle cx="12" cy="0" r="1" fill="srgba(237,0,0,1)"/>
  <circle cx="13" cy="0" r="1" fill="srgba(237,0,0,1)"/>
  <circle cx="14" cy="0" r="1" fill="srgba(237,0,0,1)"/>
  <circle cx="15" cy="0" r="1" fill="srgba(237,0,0,1)"/>
  <circle cx="0" cy="1" r="1" fill="srgba(14.0963%,26.6133%,79.8413%,1)"/>
  <circle cx="1" cy="1" r="1" fill="srgba(49.8665%,14.5357%,43.6072%,1)"/>
  <circle cx="2" cy="1" r="1" fill="srgba(85.0217%,2.73289%,8.19867%,1)"/>
  <circle cx="3" cy="1" r="1" fill="srgba(94.2107%,0%,0%,1)"/>
  <circle cx="4" cy="1" r="1" fill="srgba(93.2052%,0%,0%,1)"/>
  <circle cx="5" cy="1" r="1" fill="srgba(92.9137%,0%,0%,1)"/>
  <circle cx="6" cy="1" r="1" fill="srgba(92.9259%,0%,0%,1)"/>
  <circle cx="7" cy="1" r="1" fill="srgba(92.9259%,0%,0%,1)"/>
  <circle cx="8" cy="1" r="1" fill="srgba(92.9259%,0%,0%,1)"/>
  <circle cx="9" cy="1" r="1" fill="srgba(92.9259%,0%,0%,1)"/>
  <circle cx="10" cy="1" r="1" fill="srgba(92.9259%,0%,0%,1)"/>
  <circle cx="11" cy="1" r="1" fill="srgba(92.9259%,0%,0%,1)"/>
  <circle cx="12" cy="1" r="1" fill="srgba(92.9259%,0%,0%,1)"/>
  <circle cx="13" cy="1" r="1" fill="srgba(92.9259%,0%,0%,1)"/>
  <circle cx="14" cy="1" r="1" fill="srgba(92.9259%,0%,0%,1)"/>
  <circle cx="15" cy="1" r="1" fill="srgba(92.9259%,0%,0%,1)"/>
  <circle cx="0" cy="2" r="1" fill="srgba(0%,31.6808%,95.0439%,1)"/>
  <circle cx="1" cy="2" r="1" fill="srgba(0.956741%,31.3176%,93.9528%,1)"/>
  <circle cx="2" cy="2" r="1" fill="srgba(20.2426%,24.535%,73.6034%,1)"/>
  <circle cx="3" cy="2" r="1" fill="srgba(61.6861%,10.4845%,31.5816%,1)"/>
  <circle cx="4" cy="2" r="1" fill="srgba(90.013%,3.45464%,5.54665%,1)"/>
  <circle cx="5" cy="2" r="1" fill="srgba(94.4671%,4.37781%,3.57671%,1)"/>
  <circle cx="6" cy="2" r="1" fill="srgba(93.2937%,3.71862%,3.65911%,1)"/>
  <circle cx="7" cy="2" r="1" fill="srgba(93.193%,3.64843%,3.65301%,1)"/>
  <circle cx="8" cy="2" r="1" fill="srgba(93.1991%,3.65301%,3.65301%,1)"/>
  <circle cx="9" cy="2" r="1" fill="srgba(93.1991%,3.65301%,3.65301%,1)"/>
  <circle cx="10" cy="2" r="1" fill="srgba(93.1991%,3.65301%,3.65301%,1)"/>
  <circle cx="11" cy="2" r="1" fill="srgba(93.1991%,3.65301%,3.65301%,1)"/>
  <circle cx="12" cy="2" r="1" fill="srgba(93.1991%,3.65301%,3.65301%,1)"/>
  <circle cx="13" cy="2" r="1" fill="srgba(93.1991%,3.65301%,3.65301%,1)"/>
  <circle cx="14" cy="2" r="1" fill="srgba(93.1991%,3.65301%,3.65301%,1)"/>
  <circle cx="15" cy="2" r="1" fill="srgba(93.1991%,3.65301%,3.65301%,1)"/>
  <circle cx="0" cy="3" r="1" fill="srgba(0%,31.371%,94.1115%,1)"/>
  <circle cx="1" cy="3" r="1" fill="srgba(0%,31.4%,94.2%,1)"/>
  <circle cx="2" cy="3" r="1" fill="srgba(0%,31.7678%,95.3048%,1)"/>
  <circle cx="3" cy="3" r="1" fill="srgba(3.35546%,29.9229%,90.6981%,1)"/>
  <circle cx="4" cy="3" r="1" fill="srgba(31.5053%,32.7321%,74.7494%,1)"/>
  <circle cx="5" cy="3" r="1" fill="srgba(75.9274%,59.588%,73.5821%,1)"/>
  <circle cx="6" cy="3" r="1" fill="srgba(97.9675%,74.9157%,75.0896%,1)"/>
  <circle cx="7" cy="3" r="1" fill="srgba(99.1318%,75.7153%,75.1568%,1)"/>
  <circle cx="8" cy="3" r="1" fill="srgba(98.2513%,75.111%,75.1049%,1)"/>
  <circle cx="9" cy="3" r="1" fill="srgba(98.2422%,75.1034%,75.1049%,1)"/>
  <circle cx="10" cy="3" r="1" fill="srgba(98.2437%,75.1049%,75.1049%,1)"/>
  <circle cx="11" cy="3" r="1" fill="srgba(98.2437%,75.1049%,75.1049%,1)"/>
  <circle cx="12" cy="3" r="1" fill="srgba(98.2437%,75.1049%,75.1049%,1)"/>
  <circle cx="13" cy="3" r="1" fill="srgba(98.2437%,75.1049%,75.1049%,1)"/>
  <circle cx="14" cy="3" r="1" fill="srgba(98.2437%,75.1049%,75.1049%,1)"/>
  <circle cx="15" cy="3" r="1" fill="srgba(98.2437%,75.1049%,75.1049%,1)"/>
  <circle cx="0" cy="4" r="1" fill="srgba(0,80,240,1)"/>
  <circle cx="1" cy="4" r="1" fill="srgba(0%,31.3756%,94.1176%,1)"/>
  <circle cx="2" cy="4" r="1" fill="srgba(0%,31.313%,94.1009%,1)"/>
  <circle cx="3" cy="4" r="1" fill="srgba(0%,31.1025%,94.3343%,1)"/>
  <circle cx="4" cy="4" r="1" fill="srgba(0%,31.693%,95.317%,1)"/>
  <circle cx="5" cy="4" r="1" fill="srgba(8.56336%,38.5367%,96.0922%,1)"/>
  <circle cx="6" cy="4" r="1" fill="srgba(45.7481%,64.1917%,98.2712%,1)"/>
  <circle cx="7" cy="4" r="1" fill="srgba(86.949%,92.253%,99.9344%,1)"/>
  <circle cx="8" cy="4" r="1" fill="white"/>
  <circle cx="9" cy="4" r="1" fill="white"/>
  <circle cx="10" cy="4" r="1" fill="white"/>
  <circle cx="11" cy="4" r="1" fill="white"/>
  <circle cx="12" cy="4" r="1" fill="white"/>
  <circle cx="13" cy="4" r="1" fill="white"/>
  <circle cx="14" cy="4" r="1" fill="white"/>
  <circle cx="15" cy="4" r="1" fill="white"/>
  <circle cx="0" cy="5" r="1" fill="srgba(0%,31.3634%,94.1161%,1)"/>
  <circle cx="1" cy="5" r="1" fill="srgba(0%,31.2428%,94.107%,1)"/>
  <circle cx="2" cy="5" r="1" fill="srgba(1.78683%,32.4056%,94.2061%,1)"/>
  <circle cx="3" cy="5" r="1" fill="srgba(11.3451%,38.8998%,94.7631%,1)"/>
  <circle cx="4" cy="5" r="1" fill="srgba(0.271611%,31.5038%,94.1283%,1)"/>
  <circle cx="5" cy="5" r="1" fill="srgba(0%,30.956%,94.0826%,1)"/>
  <circle cx="6" cy="5" r="1" fill="srgba(0.247196%,30.8278%,94.0703%,1)"/>
  <circle cx="7" cy="5" r="1" fill="srgba(15.9045%,42.266%,95.05%,1)"/>
  <circle cx="8" cy="5" r="1" fill="srgba(58.6542%,71.6258%,97.5753%,1)"/>
  <circle cx="9" cy="5" r="1" fill="srgba(93.4035%,95.4726%,99.4553%,1)"/>
  <circle cx="10" cy="5" r="1" fill="srgba(100%,100%,99.4049%,1)"/>
  <circle cx="11" cy="5" r="1" fill="srgba(100%,100%,99.9603%,1)"/>
  <circle cx="12" cy="5" r="1" fill="white"/>
  <circle cx="13" cy="5" r="1" fill="white"/>
  <circle cx="14" cy="5" r="1" fill="white"/>
  <circle cx="15" cy="5" r="1" fill="white"/>
  <circle cx="0" cy="6" r="1" fill="srgba(0.288396%,31.5709%,94.1344%,1)"/>
  <circle cx="1" cy="6" r="1" fill="srgba(2.45975%,33.0602%,94.2626%,1)"/>
  <circle cx="2" cy="6" r="1" fill="srgba(14.0169%,40.9964%,94.9432%,1)"/>
  <circle cx="3" cy="6" r="1" fill="srgba(54.1222%,68.4337%,97.2946%,1)"/>
  <circle cx="4" cy="6" r="1" fill="srgba(3.83917%,33.5988%,94.3084%,1)"/>
  <circle cx="5" cy="6" r="1" fill="srgba(0%,31.2291%,94.1054%,1)"/>
  <circle cx="6" cy="6" r="1" fill="srgba(0%,31.3542%,94.1161%,1)"/>
  <circle cx="7" cy="6" r="1" fill="srgba(0%,30.6661%,94.0566%,1)"/>
  <circle cx="8" cy="6" r="1" fill="srgba(1.81582%,32.2393%,94.3084%,1)"/>
  <circle cx="9" cy="6" r="1" fill="srgba(25.716%,47.4769%,93.9971%,1)"/>
  <circle cx="10" cy="6" r="1" fill="srgba(68.7984%,50.3365%,68.5939%,1)"/>
  <circle cx="11" cy="6" r="1" fill="srgba(94.023%,41.8097%,43.0396%,1)"/>
  <circle cx="12" cy="6" r="1" fill="srgba(96.6018%,40.9201%,40.4089%,1)"/>
  <circle cx="13" cy="6" r="1" fill="srgba(95.8221%,41.1841%,41.1978%,1)"/>
  <circle cx="14" cy="6" r="1" fill="srgba(95.8434%,41.1765%,41.1765%,1)"/>
  <circle cx="15" cy="6" r="1" fill="srgba(95.8434%,41.1765%,41.1765%,1)"/>
  <circle cx="0" cy="7" r="1" fill="srgba(0.598154%,31.783%,94.1527%,1)"/>
  <circle cx="1" cy="7" r="1" fill="srgba(31.3313%,52.874%,95.9609%,1)"/>
  <circle cx="2" cy="7" r="1" fill="srgba(74.6288%,82.5895%,98.5077%,1)"/>
  <circle cx="3" cy="7" r="1" fill="srgba(91.5328%,94.2016%,99.5026%,1)"/>
  <circle cx="4" cy="7" r="1" fill="srgba(28.5298%,50.7607%,95.7794%,1)"/>
  <circle cx="5" cy="7" r="1" fill="srgba(0%,30.457%,94.0398%,1)"/>
  <circle cx="6" cy="7" r="1" fill="srgba(0%,31.3771%,94.1176%,1)"/>
  <circle cx="7" cy="7" r="1" fill="srgba(0%,31.3787%,94.1176%,1)"/>
  <circle cx="8" cy="7" r="1" fill="srgba(0%,31.2795%,94.1161%,1)"/>
  <circle cx="9" cy="7" r="1" fill="srgba(0%,30.5531%,94.1451%,1)"/>
  <circle cx="10" cy="7" r="1" fill="srgba(4.33967%,28.2612%,88.2612%,1)"/>
  <circle cx="11" cy="7" r="1" fill="srgba(34.1909%,18.0346%,57.5982%,1)"/>
  <circle cx="12" cy="7" r="1" fill="srgba(80.2976%,3.27001%,11.6762%,1)"/>
  <circle cx="13" cy="7" r="1" fill="srgba(93.3562%,0%,0%,1)"/>
  <circle cx="14" cy="7" r="1" fill="srgba(92.8191%,0%,0%,1)"/>
  <circle cx="15" cy="7" r="1" fill="srgba(92.8191%,0%,0%,1)"/>
  <circle cx="0" cy="8" r="1" fill="srgba(0%,31.1666%,94.0993%,1)"/>
  <circle cx="1" cy="8" r="1" fill="srgba(4.75624%,34.6227%,94.3969%,1)"/>
  <circle cx="2" cy="8" r="1" fill="srgba(68.5786%,78.4375%,98.1521%,1)"/>
  <circle cx="3" cy="8" r="1" fill="srgba(99.8352%,99.8871%,99.9908%,1)"/>
  <circle cx="4" cy="8" r="1" fill="srgba(81.2955%,87.1641%,98.8998%,1)"/>
  <circle cx="5" cy="8" r="1" fill="srgba(15.1522%,41.7716%,95.0103%,1)"/>
  <circle cx="6" cy="8" r="1" fill="srgba(0%,30.8934%,94.0764%,1)"/>
  <circle cx="7" cy="8" r="1" fill="srgba(0%,31.3787%,94.1176%,1)"/>
  <circle cx="8" cy="8" r="1" fill="srgba(0%,31.2627%,94.1176%,1)"/>
  <circle cx="9" cy="8" r="1" fill="srgba(0%,30.5135%,94.1207%,1)"/>
  <circle cx="10" cy="8" r="1" fill="srgba(5.02785%,28.0125%,87.5151%,1)"/>
  <circle cx="11" cy="8" r="1" fill="srgba(35.8007%,17.4914%,55.9686%,1)"/>
  <circle cx="12" cy="8" r="1" fill="srgba(80.8453%,3.0869%,11.1223%,1)"/>
  <circle cx="13" cy="8" r="1" fill="srgba(93.3349%,0%,0%,1)"/>
  <circle cx="14" cy="8" r="1" fill="srgba(92.8191%,0%,0%,1)"/>
  <circle cx="15" cy="8" r="1" fill="srgba(92.8191%,0%,0%,1)"/>
  <circle cx="0" cy="9" r="1" fill="srgba(0%,31.136%,94.0978%,1)"/>
  <circle cx="1" cy="9" r="1" fill="srgba(5.35286%,34.9966%,94.4289%,1)"/>
  <circle cx="2" cy="9" r="1" fill="srgba(46.2181%,63.0686%,96.8353%,1)"/>
  <circle cx="3" cy="9" r="1" fill="srgba(35.2529%,55.5688%,96.1929%,1)"/>
  <circle cx="4" cy="9" r="1" fill="srgba(76.2799%,83.7232%,98.6069%,1)"/>
  <circle cx="5" cy="9" r="1" fill="srgba(48.1209%,64.3992%,96.9497%,1)"/>
  <circle cx="6" cy="9" r="1" fill="srgba(0%,31.0307%,94.0887%,1)"/>
  <circle cx="7" cy="9" r="1" fill="srgba(0%,30.6004%,94.052%,1)"/>
  <circle cx="8" cy="9" r="1" fill="srgba(2.20951%,32.5765%,94.3618%,1)"/>
  <circle cx="9" cy="9" r="1" fill="srgba(27.3976%,48.1834%,93.6263%,1)"/>
  <circle cx="10" cy="9" r="1" fill="srgba(70.3975%,49.9199%,67.1061%,1)"/>
  <circle cx="11" cy="9" r="1" fill="srgba(94.4533%,41.6587%,42.5971%,1)"/>
  <circle cx="12" cy="9" r="1" fill="srgba(96.5911%,40.9247%,40.4196%,1)"/>
  <circle cx="13" cy="9" r="1" fill="srgba(95.8221%,41.1841%,41.1978%,1)"/>
  <circle cx="14" cy="9" r="1" fill="srgba(95.8434%,41.1765%,41.1765%,1)"/>
  <circle cx="15" cy="9" r="1" fill="srgba(95.8434%,41.1765%,41.1765%,1)"/>
  <circle cx="0" cy="10" r="1" fill="srgba(0%,31.2856%,94.11%,1)"/>
  <circle cx="1" cy="10" r="1" fill="srgba(1.7731%,32.607%,94.2229%,1)"/>
  <circle cx="2" cy="10" r="1" fill="srgba(3.70947%,33.5912%,94.3084%,1)"/>
  <circle cx="3" cy="10" r="1" fill="srgba(0%,30.3349%,94.0291%,1)"/>
  <circle cx="4" cy="10" r="1" fill="srgba(29.836%,51.6686%,95.8587%,1)"/>
  <circle cx="5" cy="10" r="1" fill="srgba(13.2647%,40.2121%,94.876%,1)"/>
  <circle cx="6" cy="10" r="1" fill="srgba(0%,30.6371%,94.0551%,1)"/>
  <circle cx="7" cy="10" r="1" fill="srgba(17.3541%,43.2715%,95.1369%,1)"/>
  <circle cx="8" cy="10" r="1" fill="srgba(60.676%,73.0129%,97.6959%,1)"/>
  <circle cx="9" cy="10" r="1" fill="srgba(94.1863%,96.0098%,99.4766%,1)"/>
  <circle cx="10" cy="10" r="1" fill="srgba(100%,100%,99.4171%,1)"/>
  <circle cx="11" cy="10" r="1" fill="srgba(100%,100%,99.9725%,1)"/>
  <circle cx="12" cy="10" r="1" fill="white"/>
  <circle cx="13" cy="10" r="1" fill="white"/>
  <circle cx="14" cy="10" r="1" fill="white"/>
  <circle cx="15" cy="10" r="1" fill="white"/>
  <circle cx="0" cy="11" r="1" fill="srgba(0%,31.3771%,94.1176%,1)"/>
  <circle cx="1" cy="11" r="1" fill="srgba(0%,31.2993%,94.1115%,1)"/>
  <circle cx="2" cy="11" r="1" fill="srgba(0%,31.2139%,94.0917%,1)"/>
  <circle cx="3" cy="11" r="1" fill="srgba(0%,31.3313%,94.3984%,1)"/>
  <circle cx="4" cy="11" r="1" fill="srgba(24.6235%,49.0959%,96.6888%,1)"/>
  <circle cx="5" cy="11" r="1" fill="srgba(16.556%,43.9994%,96.4981%,1)"/>
  <circle cx="6" cy="11" r="1" fill="srgba(47.541%,65.4276%,98.3703%,1)"/>
  <circle cx="7" cy="11" r="1" fill="srgba(88.2048%,93.077%,99.9557%,1)"/>
  <circle cx="8" cy="11" r="1" fill="white"/>
  <circle cx="9" cy="11" r="1" fill="white"/>
  <circle cx="10" cy="11" r="1" fill="white"/>
  <circle cx="11" cy="11" r="1" fill="white"/>
  <circle cx="12" cy="11" r="1" fill="white"/>
  <circle cx="13" cy="11" r="1" fill="white"/>
  <circle cx="14" cy="11" r="1" fill="white"/>
  <circle cx="15" cy="11" r="1" fill="white"/>
  <circle cx="0" cy="12" r="1" fill="srgba(0%,31.3695%,94.11%,1)"/>
  <circle cx="1" cy="12" r="1" fill="srgba(0%,31.4076%,94.2245%,1)"/>
  <circle cx="2" cy="12" r="1" fill="srgba(0%,31.7845%,95.3552%,1)"/>
  <circle cx="3" cy="12" r="1" fill="srgba(3.81781%,29.5705%,89.9855%,1)"/>
  <circle cx="4" cy="12" r="1" fill="srgba(37.4685%,36.2539%,74.5052%,1)"/>
  <circle cx="5" cy="12" r="1" fill="srgba(79.501%,62.0676%,73.8186%,1)"/>
  <circle cx="6" cy="12" r="1" fill="srgba(98.1872%,75.0668%,75.1019%,1)"/>
  <circle cx="7" cy="12" r="1" fill="srgba(99.0616%,75.6664%,75.1537%,1)"/>
  <circle cx="8" cy="12" r="1" fill="srgba(98.2452%,75.1064%,75.1049%,1)"/>
  <circle cx="9" cy="12" r="1" fill="srgba(98.2422%,75.1034%,75.1049%,1)"/>
  <circle cx="10" cy="12" r="1" fill="srgba(98.2437%,75.1049%,75.1049%,1)"/>
  <circle cx="11" cy="12" r="1" fill="srgba(98.2437%,75.1049%,75.1049%,1)"/>
  <circle cx="12" cy="12" r="1" fill="srgba(98.2437%,75.1049%,75.1049%,1)"/>
  <circle cx="13" cy="12" r="1" fill="srgba(98.2437%,75.1049%,75.1049%,1)"/>
  <circle cx="14" cy="12" r="1" fill="srgba(98.2437%,75.1049%,75.1049%,1)"/>
  <circle cx="15" cy="12" r="1" fill="srgba(98.2437%,75.1049%,75.1049%,1)"/>
  <circle cx="0" cy="13" r="1" fill="srgba(0%,31.7098%,95.1308%,1)"/>
  <circle cx="1" cy="13" r="1" fill="srgba(1.28176%,31.1879%,93.5637%,1)"/>
  <circle cx="2" cy="13" r="1" fill="srgba(22.0493%,23.9216%,71.7678%,1)"/>
  <circle cx="3" cy="13" r="1" fill="srgba(63.7369%,9.81765%,29.5308%,1)"/>
  <circle cx="4" cy="13" r="1" fill="srgba(90.4692%,3.31426%,5.09804%,1)"/>
  <circle cx="5" cy="13" r="1" fill="srgba(94.3267%,4.3061%,3.5935%,1)"/>
  <circle cx="6" cy="13" r="1" fill="srgba(93.2784%,3.70642%,3.65759%,1)"/>
  <circle cx="7" cy="13" r="1" fill="srgba(93.1945%,3.64996%,3.65301%,1)"/>
  <circle cx="8" cy="13" r="1" fill="srgba(93.1991%,3.65301%,3.65301%,1)"/>
  <circle cx="9" cy="13" r="1" fill="srgba(93.1991%,3.65301%,3.65301%,1)"/>
  <circle cx="10" cy="13" r="1" fill="srgba(93.1991%,3.65301%,3.65301%,1)"/>
  <circle cx="11" cy="13" r="1" fill="srgba(93.1991%,3.65301%,3.65301%,1)"/>
  <circle cx="12" cy="13" r="1" fill="srgba(93.1991%,3.65301%,3.65301%,1)"/>
  <circle cx="13" cy="13" r="1" fill="srgba(93.1991%,3.65301%,3.65301%,1)"/>
  <circle cx="14" cy="13" r="1" fill="srgba(93.1991%,3.65301%,3.65301%,1)"/>
  <circle cx="15" cy="13" r="1" fill="srgba(93.1991%,3.65301%,3.65301%,1)"/>
  <circle cx="0" cy="14" r="1" fill="srgba(15.7107%,26.07%,78.2071%,1)"/>
  <circle cx="1" cy="14" r="1" fill="srgba(52.1477%,13.7652%,41.2955%,1)"/>
  <circle cx="2" cy="14" r="1" fill="srgba(86.1036%,2.38193%,7.14733%,1)"/>
  <circle cx="3" cy="14" r="1" fill="srgba(94.2321%,0%,0%,1)"/>
  <circle cx="4" cy="14" r="1" fill="srgba(93.1609%,0%,0%,1)"/>
  <circle cx="5" cy="14" r="1" fill="srgba(92.9152%,0%,0%,1)"/>
  <circle cx="6" cy="14" r="1" fill="srgba(92.9259%,0%,0%,1)"/>
  <circle cx="7" cy="14" r="1" fill="srgba(92.9259%,0%,0%,1)"/>
  <circle cx="8" cy="14" r="1" fill="srgba(92.9259%,0%,0%,1)"/>
  <circle cx="9" cy="14" r="1" fill="srgba(92.9259%,0%,0%,1)"/>
  <circle cx="10" cy="14" r="1" fill="srgba(92.9259%,0%,0%,1)"/>
  <circle cx="11" cy="14" r="1" fill="srgba(92.9259%,0%,0%,1)"/>
  <circle cx="12" cy="14" r="1" fill="srgba(92.9259%,0%,0%,1)"/>
  <circle cx="13" cy="14" r="1" fill="srgba(92.9259%,0%,0%,1)"/>
  <circle cx="14" cy="14" r="1" fill="srgba(92.9259%,0%,0%,1)"/>
  <circle cx="15" cy="14" r="1" fill="srgba(92.9259%,0%,0%,1)"/>
  <circle cx="0" cy="15" r="1" fill="srgba(80.5768%,4.19318%,12.578%,1)"/>
  <circle cx="1" cy="15" r="1" fill="srgba(93.6095%,0.154116%,0.463874%,1)"/>
  <circle cx="2" cy="15" r="1" fill="srgba(93.5302%,0%,0%,1)"/>
  <circle cx="3" cy="15" r="1" fill="srgba(92.929%,0%,0%,1)"/>
  <circle cx="4" cy="15" r="1" fill="srgba(237,0,0,1)"/>
  <circle cx="5" cy="15" r="1" fill="srgba(237,0,0,1)"/>
  <circle cx="6" cy="15" r="1" fill="srgba(237,0,0,1)"/>
  <circle cx="7" cy="15" r="1" fill="srgba(237,0,0,1)"/>
  <circle cx="8" cy="15" r="1" fill="srgba(237,0,0,1)"/>
  <circle cx="9" cy="15" r="1" fill="srgba(237,0,0,1)"/>
  <circle cx="10" cy="15" r="1" fill="srgba(237,0,0,1)"/>
  <circle cx="11" cy="15" r="1" fill="srgba(237,0,0,1)"/>
  <circle cx="12" cy="15" r="1" fill="srgba(237,0,0,1)"/>
  <circle cx="13" cy="15" r="1" fill="srgba(237,0,0,1)"/>
  <circle cx="14" cy="15" r="1" fill="srgba(237,0,0,1)"/>
  <circle cx="15" cy="15" r="1" fill="srgba(237,0,0,1)"/>
</svg>
