<?xml version="1.0" standalone="no"?>
<!DOCTYPE svg PUBLIC "-//W3C//DTD SVG 20010904//EN"
  "http://www.w3.org/TR/2001/REC-SVG-20010904/DTD/svg10.dtd">
<svg width="16" height="16">
  <circle cx="0" cy="0" r="1" fill="black"/>
  <circle cx="1" cy="0" r="1" fill="black"/>
  <circle cx="2" cy="0" r="1" fill="black"/>
  <circle cx="3" cy="0" r="1" fill="black"/>
  <circle cx="4" cy="0" r="1" fill="black"/>
  <circle cx="5" cy="0" r="1" fill="black"/>
  <circle cx="6" cy="0" r="1" fill="black"/>
  <circle cx="7" cy="0" r="1" fill="black"/>
  <circle cx="8" cy="0" r="1" fill="black"/>
  <circle cx="9" cy="0" r="1" fill="black"/>
  <circle cx="10" cy="0" r="1" fill="black"/>
  <circle cx="11" cy="0" r="1" fill="black"/>
  <circle cx="12" cy="0" r="1" fill="black"/>
  <circle cx="13" cy="0" r="1" fill="black"/>
  <circle cx="14" cy="0" r="1" fill="black"/>
  <circle cx="15" cy="0" r="1" fill="black"/>
  <circle cx="0" cy="1" r="1" fill="black"/>
  <circle cx="1" cy="1" r="1" fill="black"/>
  <circle cx="2" cy="1" r="1" fill="black"/>
  <circle cx="3" cy="1" r="1" fill="black"/>
  <circle cx="4" cy="1" r="1" fill="black"/>
  <circle cx="5" cy="1" r="1" fill="black"/>
  <circle cx="6" cy="1" r="1" fill="black"/>
  <circle cx="7" cy="1" r="1" fill="black"/>
  <circle cx="8" cy="1" r="1" fill="black"/>
  <circle cx="9" cy="1" r="1" fill="black"/>
  <circle cx="10" cy="1" r="1" fill="black"/>
  <circle cx="11" cy="1" r="1" fill="black"/>
  <circle cx="12" cy="1" r="1" fill="black"/>
  <circle cx="13" cy="1" r="1" fill="black"/>
  <circle cx="14" cy="1" r="1" fill="black"/>
  <circle cx="15" cy="1" r="1" fill="black"/>
  <circle cx="0" cy="2" r="1" fill="black"/>
  <circle cx="1" cy="2" r="1" fill="black"/>
  <circle cx="2" cy="2" r="1" fill="black"/>
  <circle cx="3" cy="2" r="1" fill="black"/>
  <circle cx="4" cy="2" r="1" fill="black"/>
  <circle cx="5" cy="2" r="1" fill="black"/>
  <circle cx="6" cy="2" r="1" fill="black"/>
  <circle cx="7" cy="2" r="1" fill="black"/>
  <circle cx="8" cy="2" r="1" fill="black"/>
  <circle cx="9" cy="2" r="1" fill="black"/>
  <circle cx="10" cy="2" r="1" fill="black"/>
  <circle cx="11" cy="2" r="1" fill="black"/>
  <circle cx="12" cy="2" r="1" fill="black"/>
  <circle cx="13" cy="2" r="1" fill="black"/>
  <circle cx="14" cy="2" r="1" fill="black"/>
  <circle cx="15" cy="2" r="1" fill="black"/>
  <circle cx="0" cy="3" r="1" fill="srgba(7.43114%,0%,0%,1)"/>
  <circle cx="1" cy="3" r="1" fill="srgba(0.175479%,0%,0%,1)"/>
  <circle cx="2" cy="3" r="1" fill="black"/>
  <circle cx="3" cy="3" r="1" fill="black"/>
  <circle cx="4" cy="3" r="1" fill="black"/>
  <circle cx="5" cy="3" r="1" fill="black"/>
  <circle cx="6" cy="3" r="1" fill="black"/>
  <circle cx="7" cy="3" r="1" fill="black"/>
  <circle cx="8" cy="3" r="1" fill="black"/>
  <circle cx="9" cy="3" r="1" fill="black"/>
  <circle cx="10" cy="3" r="1" fill="black"/>
  <circle cx="11" cy="3" r="1" fill="black"/>
  <circle cx="12" cy="3" r="1" fill="black"/>
  <circle cx="13" cy="3" r="1" fill="black"/>
  <circle cx="14" cy="3" r="1" fill="black"/>
  <circle cx="15" cy="3" r="1" fill="black"/>
  <circle cx="0" cy="4" r="1" fill="srgba(78.6801%,0%,0%,1)"/>
  <circle cx="1" cy="4" r="1" fill="srgba(42.7344%,0%,0%,1)"/>
  <circle cx="2" cy="4" r="1" fill="srgba(9.49416%,0.154116%,0.154116%,1)"/>
  <circle cx="3" cy="4" r="1" fill="srgba(0.466926%,1.68917%,1.68917%,1)"/>
  <circle cx="4" cy="4" r="1" fill="srgba(0.560006%,1.20241%,1.20241%,1)"/>
  <circle cx="5" cy="4" r="1" fill="srgba(0.570687%,0.570687%,0.570687%,1)"/>
  <circle cx="6" cy="4" r="1" fill="srgba(0.570687%,0.569162%,0.569162%,1)"/>
  <circle cx="7" cy="4" r="1" fill="srgba(0.570687%,0.570687%,0.570687%,1)"/>
  <circle cx="8" cy="4" r="1" fill="srgba(0.570687%,0.570687%,0.570687%,1)"/>
  <circle cx="9" cy="4" r="1" fill="srgba(0.570687%,0.570687%,0.570687%,1)"/>
  <circle cx="10" cy="4" r="1" fill="srgba(0.570687%,0.570687%,0.570687%,1)"/>
  <circle cx="11" cy="4" r="1" fill="srgba(0.570687%,0.570687%,0.570687%,1)"/>
  <circle cx="12" cy="4" r="1" fill="srgba(0.570687%,0.570687%,0.570687%,1)"/>
  <circle cx="13" cy="4" r="1" fill="srgba(0.570687%,0.570687%,0.570687%,1)"/>
  <circle cx="14" cy="4" r="1" fill="srgba(0.570687%,0.570687%,0.570687%,1)"/>
  <circle cx="15" cy="4" r="1" fill="srgba(0.570687%,0.570687%,0.570687%,1)"/>
  <circle cx="0" cy="5" r="1" fill="red"/>
  <circle cx="1" cy="5" r="1" fill="srgba(98.735%,0%,0%,1)"/>
  <circle cx="2" cy="5" r="1" fill="srgba(81.4786%,0.570687%,0.570687%,1)"/>
  <circle cx="3" cy="5" r="1" fill="srgba(65.4276%,23.1098%,23.1098%,1)"/>
  <circle cx="4" cy="5" r="1" fill="srgba(65.0614%,55.7214%,55.7214%,1)"/>
  <circle cx="5" cy="5" r="1" fill="srgba(65.098%,66.3203%,66.3203%,1)"/>
  <circle cx="6" cy="5" r="1" fill="srgba(65.098%,65.7404%,65.7404%,1)"/>
  <circle cx="7" cy="5" r="1" fill="srgba(65.098%,65.0996%,65.0996%,1)"/>
  <circle cx="8" cy="5" r="1" fill="srgba(65.098%,65.0965%,65.0965%,1)"/>
  <circle cx="9" cy="5" r="1" fill="grey65"/>
  <circle cx="10" cy="5" r="1" fill="grey65"/>
  <circle cx="11" cy="5" r="1" fill="grey65"/>
  <circle cx="12" cy="5" r="1" fill="grey65"/>
  <circle cx="13" cy="5" r="1" fill="grey65"/>
  <circle cx="14" cy="5" r="1" fill="grey65"/>
  <circle cx="15" cy="5" r="1" fill="grey65"/>
  <circle cx="0" cy="6" r="1" fill="red"/>
  <circle cx="1" cy="6" r="1" fill="red"/>
  <circle cx="2" cy="6" r="1" fill="red"/>
  <circle cx="3" cy="6" r="1" fill="srgba(100%,2.18967%,2.18967%,1)"/>
  <circle cx="4" cy="6" r="1" fill="srgba(100%,20.8515%,20.8515%,1)"/>
  <circle cx="5" cy="6" r="1" fill="srgba(100%,59.4369%,59.4369%,1)"/>
  <circle cx="6" cy="6" r="1" fill="srgba(100%,92.0394%,92.0394%,1)"/>
  <circle cx="7" cy="6" r="1" fill="white"/>
  <circle cx="8" cy="6" r="1" fill="white"/>
  <circle cx="9" cy="6" r="1" fill="white"/>
  <circle cx="10" cy="6" r="1" fill="white"/>
  <circle cx="11" cy="6" r="1" fill="white"/>
  <circle cx="12" cy="6" r="1" fill="white"/>
  <circle cx="13" cy="6" r="1" fill="white"/>
  <circle cx="14" cy="6" r="1" fill="white"/>
  <circle cx="15" cy="6" r="1" fill="white"/>
  <circle cx="0" cy="7" r="1" fill="red"/>
  <circle cx="1" cy="7" r="1" fill="red"/>
  <circle cx="2" cy="7" r="1" fill="red"/>
  <circle cx="3" cy="7" r="1" fill="red"/>
  <circle cx="4" cy="7" r="1" fill="red"/>
  <circle cx="5" cy="7" r="1" fill="srgba(100%,1.12459%,1.12459%,1)"/>
  <circle cx="6" cy="7" r="1" fill="srgba(100%,17.9324%,17.9324%,1)"/>
  <circle cx="7" cy="7" r="1" fill="srgba(100%,58.6374%,58.6374%,1)"/>
  <circle cx="8" cy="7" r="1" fill="srgba(100%,95.8068%,95.8068%,1)"/>
  <circle cx="9" cy="7" r="1" fill="white"/>
  <circle cx="10" cy="7" r="1" fill="white"/>
  <circle cx="11" cy="7" r="1" fill="white"/>
  <circle cx="12" cy="7" r="1" fill="white"/>
  <circle cx="13" cy="7" r="1" fill="white"/>
  <circle cx="14" cy="7" r="1" fill="white"/>
  <circle cx="15" cy="7" r="1" fill="white"/>
  <circle cx="0" cy="8" r="1" fill="red"/>
  <circle cx="1" cy="8" r="1" fill="red"/>
  <circle cx="2" cy="8" r="1" fill="red"/>
  <circle cx="3" cy="8" r="1" fill="red"/>
  <circle cx="4" cy="8" r="1" fill="red"/>
  <circle cx="5" cy="8" r="1" fill="srgba(100%,1.14443%,1.14443%,1)"/>
  <circle cx="6" cy="8" r="1" fill="srgba(100%,18.0346%,18.0346%,1)"/>
  <circle cx="7" cy="8" r="1" fill="srgba(100%,58.7427%,58.7427%,1)"/>
  <circle cx="8" cy="8" r="1" fill="srgba(100%,95.8206%,95.8206%,1)"/>
  <circle cx="9" cy="8" r="1" fill="white"/>
  <circle cx="10" cy="8" r="1" fill="white"/>
  <circle cx="11" cy="8" r="1" fill="white"/>
  <circle cx="12" cy="8" r="1" fill="white"/>
  <circle cx="13" cy="8" r="1" fill="white"/>
  <circle cx="14" cy="8" r="1" fill="white"/>
  <circle cx="15" cy="8" r="1" fill="white"/>
  <circle cx="0" cy="9" r="1" fill="red"/>
  <circle cx="1" cy="9" r="1" fill="red"/>
  <circle cx="2" cy="9" r="1" fill="red"/>
  <circle cx="3" cy="9" r="1" fill="srgba(100%,1.55642%,2.21714%,1)"/>
  <circle cx="4" cy="9" r="1" fill="srgba(100%,19.8932%,20.9552%,1)"/>
  <circle cx="5" cy="9" r="1" fill="srgba(100%,58.5183%,59.5743%,1)"/>
  <circle cx="6" cy="9" r="1" fill="srgba(100%,91.252%,92.108%,1)"/>
  <circle cx="7" cy="9" r="1" fill="white"/>
  <circle cx="8" cy="9" r="1" fill="white"/>
  <circle cx="9" cy="9" r="1" fill="white"/>
  <circle cx="10" cy="9" r="1" fill="white"/>
  <circle cx="11" cy="9" r="1" fill="white"/>
  <circle cx="12" cy="9" r="1" fill="white"/>
  <circle cx="13" cy="9" r="1" fill="white"/>
  <circle cx="14" cy="9" r="1" fill="white"/>
  <circle cx="15" cy="9" r="1" fill="white"/>
  <circle cx="0" cy="10" r="1" fill="red"/>
  <circle cx="1" cy="10" r="1" fill="srgba(98.7198%,0.712596%,0%,1)"/>
  <circle cx="2" cy="10" r="1" fill="srgba(81.3199%,11.7189%,0.509651%,1)"/>
  <circle cx="3" cy="10" r="1" fill="srgba(64.8997%,43.772%,22.7131%,1)"/>
  <circle cx="4" cy="10" r="1" fill="srgba(64.4846%,76.5225%,55.2132%,1)"/>
  <circle cx="5" cy="10" r="1" fill="srgba(64.5243%,87.039%,65.7542%,1)"/>
  <circle cx="6" cy="10" r="1" fill="srgba(64.5243%,86.4485%,65.1637%,1)"/>
  <circle cx="7" cy="10" r="1" fill="srgba(64.5243%,85.8106%,64.5243%,1)"/>
  <circle cx="8" cy="10" r="1" fill="srgba(64.5243%,85.8091%,64.5228%,1)"/>
  <circle cx="9" cy="10" r="1" fill="srgba(64.5243%,85.8106%,64.5243%,1)"/>
  <circle cx="10" cy="10" r="1" fill="srgba(64.5243%,85.8106%,64.5243%,1)"/>
  <circle cx="11" cy="10" r="1" fill="srgba(64.5243%,85.8106%,64.5243%,1)"/>
  <circle cx="12" cy="10" r="1" fill="srgba(64.5243%,85.8106%,64.5243%,1)"/>
  <circle cx="13" cy="10" r="1" fill="srgba(64.5243%,85.8106%,64.5243%,1)"/>
  <circle cx="14" cy="10" r="1" fill="srgba(64.5243%,85.8106%,64.5243%,1)"/>
  <circle cx="15" cy="10" r="1" fill="srgba(64.5243%,85.8106%,64.5243%,1)"/>
  <circle cx="0" cy="11" r="1" fill="srgba(78.5824%,12.8511%,0%,1)"/>
  <circle cx="1" cy="11" r="1" fill="srgba(42.6047%,34.4289%,0%,1)"/>
  <circle cx="2" cy="11" r="1" fill="srgba(9.41176%,54.493%,0.140383%,1)"/>
  <circle cx="3" cy="11" r="1" fill="srgba(0.352483%,61.3703%,1.58083%,1)"/>
  <circle cx="4" cy="11" r="1" fill="srgba(0.436408%,60.8118%,1.07424%,1)"/>
  <circle cx="5" cy="11" r="1" fill="srgba(0.447089%,60.1785%,0.447089%,1)"/>
  <circle cx="6" cy="11" r="1" fill="srgba(0.447089%,60.177%,0.445563%,1)"/>
  <circle cx="7" cy="11" r="1" fill="srgba(0.447089%,60.1785%,0.447089%,1)"/>
  <circle cx="8" cy="11" r="1" fill="srgba(0.447089%,60.1785%,0.447089%,1)"/>
  <circle cx="9" cy="11" r="1" fill="srgba(0.447089%,60.1785%,0.447089%,1)"/>
  <circle cx="10" cy="11" r="1" fill="srgba(0.447089%,60.1785%,0.447089%,1)"/>
  <circle cx="11" cy="11" r="1" fill="srgba(0.447089%,60.1785%,0.447089%,1)"/>
  <circle cx="12" cy="11" r="1" fill="srgba(0.447089%,60.1785%,0.447089%,1)"/>
  <circle cx="13" cy="11" r="1" fill="srgba(0.447089%,60.1785%,0.447089%,1)"/>
  <circle cx="14" cy="11" r="1" fill="srgba(0.447089%,60.1785%,0.447089%,1)"/>
  <circle cx="15" cy="11" r="1" fill="srgba(0.447089%,60.1785%,0.447089%,1)"/>
  <circle cx="0" cy="12" r="1" fill="srgba(7.38384%,55.6283%,0%,1)"/>
  <circle cx="1" cy="12" r="1" fill="srgba(0.169375%,60.6058%,0%,1)"/>
  <circle cx="2" cy="12" r="1" fill="srgba(0%,60.3815%,0%,1)"/>
  <circle cx="3" cy="12" r="1" fill="srgba(0%,59.9847%,0%,1)"/>
  <circle cx="4" cy="12" r="1" fill="srgba(0%,59.9802%,0%,1)"/>
  <circle cx="5" cy="12" r="1" fill="srgba(0%,59.9817%,0%,1)"/>
  <circle cx="6" cy="12" r="1" fill="srgba(0%,59.9817%,0%,1)"/>
  <circle cx="7" cy="12" r="1" fill="srgba(0%,59.9817%,0%,1)"/>
  <circle cx="8" cy="12" r="1" fill="srgba(0%,59.9817%,0%,1)"/>
  <circle cx="9" cy="12" r="1" fill="srgba(0%,59.9817%,0%,1)"/>
  <circle cx="10" cy="12" r="1" fill="srgba(0%,59.9817%,0%,1)"/>
  <circle cx="11" cy="12" r="1" fill="srgba(0%,59.9817%,0%,1)"/>
  <circle cx="12" cy="12" r="1" fill="srgba(0%,59.9817%,0%,1)"/>
  <circle cx="13" cy="12" r="1" fill="srgba(0%,59.9817%,0%,1)"/>
  <circle cx="14" cy="12" r="1" fill="srgba(0%,59.9817%,0%,1)"/>
  <circle cx="15" cy="12" r="1" fill="srgba(0%,59.9817%,0%,1)"/>
  <circle cx="0" cy="13" r="1" fill="srgba(0%,60.2823%,0%,1)"/>
  <circle cx="1" cy="13" r="1" fill="srgba(0%,60.0076%,0%,1)"/>
  <circle cx="2" cy="13" r="1" fill="srgba(0,153,0,1)"/>
  <circle cx="3" cy="13" r="1" fill="srgba(0,153,0,1)"/>
  <circle cx="4" cy="13" r="1" fill="srgba(0,153,0,1)"/>
  <circle cx="5" cy="13" r="1" fill="srgba(0,153,0,1)"/>
  <circle cx="6" cy="13" r="1" fill="srgba(0,153,0,1)"/>
  <circle cx="7" cy="13" r="1" fill="srgba(0,153,0,1)"/>
  <circle cx="8" cy="13" r="1" fill="srgba(0,153,0,1)"/>
  <circle cx="9" cy="13" r="1" fill="srgba(0,153,0,1)"/>
  <circle cx="10" cy="13" r="1" fill="srgba(0,153,0,1)"/>
  <circle cx="11" cy="13" r="1" fill="srgba(0,153,0,1)"/>
  <circle cx="12" cy="13" r="1" fill="srgba(0,153,0,1)"/>
  <circle cx="13" cy="13" r="1" fill="srgba(0,153,0,1)"/>
  <circle cx="14" cy="13" r="1" fill="srgba(0,153,0,1)"/>
  <circle cx="15" cy="13" r="1" fill="srgba(0,153,0,1)"/>
  <circle cx="0" cy="14" r="1" fill="srgba(0,153,0,1)"/>
  <circle cx="1" cy="14" r="1" fill="srgba(0,153,0,1)"/>
  <circle cx="2" cy="14" r="1" fill="srgba(0,153,0,1)"/>
  <circle cx="3" cy="14" r="1" fill="srgba(0,153,0,1)"/>
  <circle cx="4" cy="14" r="1" fill="srgba(0,153,0,1)"/>
  <circle cx="5" cy="14" r="1" fill="srgba(0,153,0,1)"/>
  <circle cx="6" cy="14" r="1" fill="srgba(0,153,0,1)"/>
  <circle cx="7" cy="14" r="1" fill="srgba(0,153,0,1)"/>
  <circle cx="8" cy="14" r="1" fill="srgba(0,153,0,1)"/>
  <circle cx="9" cy="14" r="1" fill="srgba(0,153,0,1)"/>
  <circle cx="10" cy="14" r="1" fill="srgba(0,153,0,1)"/>
  <circle cx="11" cy="14" r="1" fill="srgba(0,153,0,1)"/>
  <circle cx="12" cy="14" r="1" fill="srgba(0,153,0,1)"/>
  <circle cx="13" cy="14" r="1" fill="srgba(0,153,0,1)"/>
  <circle cx="14" cy="14" r="1" fill="srgba(0,153,0,1)"/>
  <circle cx="15" cy="14" r="1" fill="srgba(0,153,0,1)"/>
  <circle cx="0" cy="15" r="1" fill="srgba(0,153,0,1)"/>
  <circle cx="1" cy="15" r="1" fill="srgba(0,153,0,1)"/>
  <circle cx="2" cy="15" r="1" fill="srgba(0,153,0,1)"/>
  <circle cx="3" cy="15" r="1" fill="srgba(0,153,0,1)"/>
  <circle cx="4" cy="15" r="1" fill="srgba(0,153,0,1)"/>
  <circle cx="5" cy="15" r="1" fill="srgba(0,153,0,1)"/>
  <circle cx="6" cy="15" r="1" fill="srgba(0,153,0,1)"/>
  <circle cx="7" cy="15" r="1" fill="srgba(0,153,0,1)"/>
  <circle cx="8" cy="15" r="1" fill="srgba(0,153,0,1)"/>
  <circle cx="9" cy="15" r="1" fill="srgba(0,153,0,1)"/>
  <circle cx="10" cy="15" r="1" fill="srgba(0,153,0,1)"/>
  <circle cx="11" cy="15" r="1" fill="srgba(0,153,0,1)"/>
  <circle cx="12" cy="15" r="1" fill="srgba(0,153,0,1)"/>
  <circle cx="13" cy="15" r="1" fill="srgba(0,153,0,1)"/>
  <circle cx="14" cy="15" r="1" fill="srgba(0,153,0,1)"/>
  <circle cx="15" cy="15" r="1" fill="srgba(0,153,0,1)"/>
</svg>
