<?xml version="1.0" standalone="no"?>
<!DOCTYPE svg PUBLIC "-//W3C//DTD SVG 20010904//EN"
  "http://www.w3.org/TR/2001/REC-SVG-20010904/DTD/svg10.dtd">
<svg width="16" height="16">
  <circle cx="0" cy="0" r="1" fill="srgba(0%,39.8398%,0%,1)"/>
  <circle cx="1" cy="0" r="1" fill="srgba(0%,40.0031%,0%,1)"/>
  <circle cx="2" cy="0" r="1" fill="srgba(0,102,0,1)"/>
  <circle cx="3" cy="0" r="1" fill="srgba(0,102,0,1)"/>
  <circle cx="4" cy="0" r="1" fill="srgba(0%,40.0031%,0%,1)"/>
  <circle cx="5" cy="0" r="1" fill="srgba(0%,40.2777%,0.0656138%,1)"/>
  <circle cx="6" cy="0" r="1" fill="srgba(58.8449%,16.91%,0.445563%,1)"/>
  <circle cx="7" cy="0" r="1" fill="srgba(100%,0%,0.00457771%,1)"/>
  <circle cx="8" cy="0" r="1" fill="red"/>
  <circle cx="9" cy="0" r="1" fill="red"/>
  <circle cx="10" cy="0" r="1" fill="red"/>
  <circle cx="11" cy="0" r="1" fill="red"/>
  <circle cx="12" cy="0" r="1" fill="srgba(99.3423%,0%,0%,1)"/>
  <circle cx="13" cy="0" r="1" fill="srgba(88.7785%,21.796%,0%,1)"/>
  <circle cx="14" cy="0" r="1" fill="srgba(93.3181%,86.1677%,0%,1)"/>
  <circle cx="15" cy="0" r="1" fill="yellow"/>
  <circle cx="0" cy="1" r="1" fill="srgba(6.50645%,41.387%,0%,1)"/>
  <circle cx="1" cy="1" r="1" fill="srgba(0%,39.6963%,0%,1)"/>
  <circle cx="2" cy="1" r="1" fill="srgba(0,102,0,1)"/>
  <circle cx="3" cy="1" r="1" fill="srgba(0,102,0,1)"/>
  <circle cx="4" cy="1" r="1" fill="srgba(0%,40.0031%,0%,1)"/>
  <circle cx="5" cy="1" r="1" fill="srgba(0%,40.2777%,0.0656138%,1)"/>
  <circle cx="6" cy="1" r="1" fill="srgba(58.8449%,16.91%,0.445563%,1)"/>
  <circle cx="7" cy="1" r="1" fill="srgba(100%,0%,0.00457771%,1)"/>
  <circle cx="8" cy="1" r="1" fill="red"/>
  <circle cx="9" cy="1" r="1" fill="red"/>
  <circle cx="10" cy="1" r="1" fill="red"/>
  <circle cx="11" cy="1" r="1" fill="srgba(99.35%,0%,0%,1)"/>
  <circle cx="12" cy="1" r="1" fill="srgba(90.515%,19.0311%,0%,1)"/>
  <circle cx="13" cy="1" r="1" fill="srgba(92.1523%,79.4415%,0%,1)"/>
  <circle cx="14" cy="1" r="1" fill="srgba(99.8947%,100%,0%,1)"/>
  <circle cx="15" cy="1" r="1" fill="yellow"/>
  <circle cx="0" cy="2" r="1" fill="srgba(68.5512%,76.405%,0%,1)"/>
  <circle cx="1" cy="2" r="1" fill="srgba(17.6791%,47.4083%,0%,1)"/>
  <circle cx="2" cy="2" r="1" fill="srgba(0%,39.4339%,0%,1)"/>
  <circle cx="3" cy="2" r="1" fill="srgba(0%,40.0061%,0%,1)"/>
  <circle cx="4" cy="2" r="1" fill="srgba(0%,40.0031%,0%,1)"/>
  <circle cx="5" cy="2" r="1" fill="srgba(0%,40.2777%,0.0656138%,1)"/>
  <circle cx="6" cy="2" r="1" fill="srgba(58.8449%,16.91%,0.445563%,1)"/>
  <circle cx="7" cy="2" r="1" fill="srgba(100%,0%,0.00457771%,1)"/>
  <circle cx="8" cy="2" r="1" fill="red"/>
  <circle cx="9" cy="2" r="1" fill="red"/>
  <circle cx="10" cy="2" r="1" fill="srgba(99.3515%,0%,0%,1)"/>
  <circle cx="11" cy="2" r="1" fill="srgba(89.9229%,27.1992%,0%,1)"/>
  <circle cx="12" cy="2" r="1" fill="srgba(91.7556%,82.1088%,0%,1)"/>
  <circle cx="13" cy="2" r="1" fill="srgba(99.8871%,100%,0%,1)"/>
  <circle cx="14" cy="2" r="1" fill="yellow"/>
  <circle cx="15" cy="2" r="1" fill="yellow"/>
  <circle cx="0" cy="3" r="1" fill="srgba(100%,99.8337%,0%,1)"/>
  <circle cx="1" cy="3" r="1" fill="srgba(75.1064%,81.2863%,0%,1)"/>
  <circle cx="2" cy="3" r="1" fill="srgba(15.5978%,46.4881%,0%,1)"/>
  <circle cx="3" cy="3" r="1" fill="srgba(0%,39.4385%,0%,1)"/>
  <circle cx="4" cy="3" r="1" fill="srgba(0%,39.7436%,0%,1)"/>
  <circle cx="5" cy="3" r="1" fill="srgba(0%,39.8917%,0.0656138%,1)"/>
  <circle cx="6" cy="3" r="1" fill="srgba(58.7991%,16.7819%,0.450141%,1)"/>
  <circle cx="7" cy="3" r="1" fill="srgba(100%,0%,0.00610361%,1)"/>
  <circle cx="8" cy="3" r="1" fill="red"/>
  <circle cx="9" cy="3" r="1" fill="srgba(99.4934%,0%,0%,1)"/>
  <circle cx="10" cy="3" r="1" fill="srgba(90.9529%,25.9785%,0%,1)"/>
  <circle cx="11" cy="3" r="1" fill="srgba(92.4773%,85.0996%,0%,1)"/>
  <circle cx="12" cy="3" r="1" fill="srgba(99.9039%,100%,0%,1)"/>
  <circle cx="13" cy="3" r="1" fill="yellow"/>
  <circle cx="14" cy="3" r="1" fill="yellow"/>
  <circle cx="15" cy="3" r="1" fill="yellow"/>
  <circle cx="0" cy="4" r="1" fill="yellow"/>
  <circle cx="1" cy="4" r="1" fill="srgba(100%,99.8856%,0%,1)"/>
  <circle cx="2" cy="4" r="1" fill="srgba(73.8552%,80.8789%,0%,1)"/>
  <circle cx="3" cy="4" r="1" fill="srgba(14.052%,45.7755%,0%,1)"/>
  <circle cx="4" cy="4" r="1" fill="srgba(8.18647%,44.1459%,0.0259403%,1)"/>
  <circle cx="5" cy="4" r="1" fill="srgba(22.0386%,51.5618%,0.0732433%,1)"/>
  <circle cx="6" cy="4" r="1" fill="srgba(66.7842%,48.1132%,0.24567%,1)"/>
  <circle cx="7" cy="4" r="1" fill="srgba(95.8724%,30.3227%,0.0411994%,1)"/>
  <circle cx="8" cy="4" r="1" fill="srgba(98.1415%,6.10666%,0.015259%,1)"/>
  <circle cx="9" cy="4" r="1" fill="srgba(92.1324%,24.1749%,0%,1)"/>
  <circle cx="10" cy="4" r="1" fill="srgba(93.5042%,84.5289%,0%,1)"/>
  <circle cx="11" cy="4" r="1" fill="srgba(99.9481%,100%,0%,1)"/>
  <circle cx="12" cy="4" r="1" fill="yellow"/>
  <circle cx="13" cy="4" r="1" fill="yellow"/>
  <circle cx="14" cy="4" r="1" fill="yellow"/>
  <circle cx="15" cy="4" r="1" fill="srgba(99.9802%,99.9802%,0%,1)"/>
  <circle cx="0" cy="5" r="1" fill="yellow"/>
  <circle cx="1" cy="5" r="1" fill="yellow"/>
  <circle cx="2" cy="5" r="1" fill="srgba(100%,99.826%,0%,1)"/>
  <circle cx="3" cy="5" r="1" fill="srgba(74.7005%,80.8255%,0.134279%,1)"/>
  <circle cx="4" cy="5" r="1" fill="srgba(51.7113%,54.9966%,4.52277%,1)"/>
  <circle cx="5" cy="5" r="1" fill="srgba(46.1875%,48.0949%,6.18296%,1)"/>
  <circle cx="6" cy="5" r="1" fill="srgba(71.7525%,60.47%,5.65652%,1)"/>
  <circle cx="7" cy="5" r="1" fill="srgba(85.9022%,70.8919%,6.18448%,1)"/>
  <circle cx="8" cy="5" r="1" fill="srgba(79.3347%,52.4834%,3.91547%,1)"/>
  <circle cx="9" cy="5" r="1" fill="srgba(87.1733%,77.2702%,0%,1)"/>
  <circle cx="10" cy="5" r="1" fill="srgba(94.0902%,95.0301%,0%,1)"/>
  <circle cx="11" cy="5" r="1" fill="srgba(93.6294%,93.6095%,0%,1)"/>
  <circle cx="12" cy="5" r="1" fill="srgba(93.9223%,93.9223%,0%,1)"/>
  <circle cx="13" cy="5" r="1" fill="srgba(93.7652%,93.7652%,0%,1)"/>
  <circle cx="14" cy="5" r="1" fill="srgba(93.2555%,93.2555%,0%,1)"/>
  <circle cx="15" cy="5" r="1" fill="srgba(91.3207%,91.3207%,0%,1)"/>
  <circle cx="0" cy="6" r="1" fill="yellow"/>
  <circle cx="1" cy="6" r="1" fill="yellow"/>
  <circle cx="2" cy="6" r="1" fill="yellow"/>
  <circle cx="3" cy="6" r="1" fill="srgba(99.6063%,99.4522%,0.0335698%,1)"/>
  <circle cx="4" cy="6" r="1" fill="srgba(86.5049%,83.2837%,0.730907%,1)"/>
  <circle cx="5" cy="6" r="1" fill="srgba(85.0706%,80.0977%,1.83719%,1)"/>
  <circle cx="6" cy="6" r="1" fill="srgba(82.8275%,79.8413%,8.02625%,1)"/>
  <circle cx="7" cy="6" r="1" fill="srgba(85.275%,80.882%,0.975051%,1)"/>
  <circle cx="8" cy="6" r="1" fill="srgba(86.0441%,85.1331%,0.817884%,1)"/>
  <circle cx="9" cy="6" r="1" fill="srgba(94.1573%,94.786%,0%,1)"/>
  <circle cx="10" cy="6" r="1" fill="srgba(93.9513%,93.9284%,0%,1)"/>
  <circle cx="11" cy="6" r="1" fill="srgba(93.8613%,93.8613%,0%,1)"/>
  <circle cx="12" cy="6" r="1" fill="srgba(94.2626%,94.2626%,0%,1)"/>
  <circle cx="13" cy="6" r="1" fill="srgba(94.1848%,94.1848%,0%,1)"/>
  <circle cx="14" cy="6" r="1" fill="srgba(93.7469%,93.7469%,0%,1)"/>
  <circle cx="15" cy="6" r="1" fill="srgba(93.1868%,93.1868%,0%,1)"/>
  <circle cx="0" cy="7" r="1" fill="yellow"/>
  <circle cx="1" cy="7" r="1" fill="yellow"/>
  <circle cx="2" cy="7" r="1" fill="yellow"/>
  <circle cx="3" cy="7" r="1" fill="yellow"/>
  <circle cx="4" cy="7" r="1" fill="srgba(99.4034%,99.4522%,0%,1)"/>
  <circle cx="5" cy="7" r="1" fill="srgba(75.5734%,78.999%,11.8395%,1)"/>
  <circle cx="6" cy="7" r="1" fill="srgba(57.1679%,64.271%,25.7542%,1)"/>
  <circle cx="7" cy="7" r="1" fill="srgba(74.6426%,77.0062%,7.96826%,1)"/>
  <circle cx="8" cy="7" r="1" fill="srgba(91.6457%,91.6686%,0%,1)"/>
  <circle cx="9" cy="7" r="1" fill="yellow"/>
  <circle cx="10" cy="7" r="1" fill="yellow"/>
  <circle cx="11" cy="7" r="1" fill="yellow"/>
  <circle cx="12" cy="7" r="1" fill="yellow"/>
  <circle cx="13" cy="7" r="1" fill="yellow"/>
  <circle cx="14" cy="7" r="1" fill="yellow"/>
  <circle cx="15" cy="7" r="1" fill="yellow"/>
  <circle cx="0" cy="8" r="1" fill="srgba(98.2589%,98.2589%,0%,1)"/>
  <circle cx="1" cy="8" r="1" fill="srgba(99.8474%,99.8474%,0%,1)"/>
  <circle cx="2" cy="8" r="1" fill="yellow"/>
  <circle cx="3" cy="8" r="1" fill="yellow"/>
  <circle cx="4" cy="8" r="1" fill="yellow"/>
  <circle cx="5" cy="8" r="1" fill="srgba(83.4226%,86.6712%,12.1492%,1)"/>
  <circle cx="6" cy="8" r="1" fill="srgba(58.468%,65.4047%,26.0975%,1)"/>
  <circle cx="7" cy="8" r="1" fill="srgba(72.3644%,74.5571%,8.20325%,1)"/>
  <circle cx="8" cy="8" r="1" fill="srgba(92.7581%,92.6757%,0%,1)"/>
  <circle cx="9" cy="8" r="1" fill="yellow"/>
  <circle cx="10" cy="8" r="1" fill="yellow"/>
  <circle cx="11" cy="8" r="1" fill="yellow"/>
  <circle cx="12" cy="8" r="1" fill="yellow"/>
  <circle cx="13" cy="8" r="1" fill="yellow"/>
  <circle cx="14" cy="8" r="1" fill="yellow"/>
  <circle cx="15" cy="8" r="1" fill="yellow"/>
  <circle cx="0" cy="9" r="1" fill="srgba(96.0906%,96.0906%,0%,1)"/>
  <circle cx="1" cy="9" r="1" fill="srgba(96.3912%,96.3912%,0%,1)"/>
  <circle cx="2" cy="9" r="1" fill="srgba(98.2361%,98.2361%,0%,1)"/>
  <circle cx="3" cy="9" r="1" fill="srgba(99.3301%,99.3301%,0%,1)"/>
  <circle cx="4" cy="9" r="1" fill="srgba(99.5529%,99.5377%,0%,1)"/>
  <circle cx="5" cy="9" r="1" fill="srgba(97.8058%,98.0636%,1.2253%,1)"/>
  <circle cx="6" cy="9" r="1" fill="srgba(83.1052%,85.0401%,7.48913%,1)"/>
  <circle cx="7" cy="9" r="1" fill="srgba(78.4176%,78.3963%,0.273136%,1)"/>
  <circle cx="8" cy="9" r="1" fill="srgba(89.3263%,89.3278%,0%,1)"/>
  <circle cx="9" cy="9" r="1" fill="srgba(98.6252%,98.6252%,0%,1)"/>
  <circle cx="10" cy="9" r="1" fill="srgba(99.8871%,99.8871%,0%,1)"/>
  <circle cx="11" cy="9" r="1" fill="yellow"/>
  <circle cx="12" cy="9" r="1" fill="yellow"/>
  <circle cx="13" cy="9" r="1" fill="yellow"/>
  <circle cx="14" cy="9" r="1" fill="yellow"/>
  <circle cx="15" cy="9" r="1" fill="yellow"/>
  <circle cx="0" cy="10" r="1" fill="srgba(99.324%,99.324%,0%,1)"/>
  <circle cx="1" cy="10" r="1" fill="srgba(97.7935%,97.7935%,0%,1)"/>
  <circle cx="2" cy="10" r="1" fill="srgba(96.1837%,96.1837%,0%,1)"/>
  <circle cx="3" cy="10" r="1" fill="srgba(95.581%,95.581%,0%,1)"/>
  <circle cx="4" cy="10" r="1" fill="srgba(95.7519%,95.7534%,0%,1)"/>
  <circle cx="5" cy="10" r="1" fill="srgba(92.842%,92.8222%,0%,1)"/>
  <circle cx="6" cy="10" r="1" fill="srgba(84.3565%,84.2405%,0%,1)"/>
  <circle cx="7" cy="10" r="1" fill="srgba(86.8162%,86.8132%,0%,1)"/>
  <circle cx="8" cy="10" r="1" fill="srgba(89.6513%,89.6513%,0%,1)"/>
  <circle cx="9" cy="10" r="1" fill="srgba(95.024%,95.024%,0%,1)"/>
  <circle cx="10" cy="10" r="1" fill="srgba(96.2158%,96.2158%,0%,1)"/>
  <circle cx="11" cy="10" r="1" fill="srgba(97.3846%,97.3846%,0%,1)"/>
  <circle cx="12" cy="10" r="1" fill="srgba(98.1445%,98.1445%,0%,1)"/>
  <circle cx="13" cy="10" r="1" fill="srgba(98.4894%,98.4894%,0%,1)"/>
  <circle cx="14" cy="10" r="1" fill="srgba(98.5245%,98.5245%,0%,1)"/>
  <circle cx="15" cy="10" r="1" fill="srgba(98.3505%,98.3505%,0%,1)"/>
  <circle cx="0" cy="11" r="1" fill="yellow"/>
  <circle cx="1" cy="11" r="1" fill="yellow"/>
  <circle cx="2" cy="11" r="1" fill="srgba(99.9344%,99.9008%,0%,1)"/>
  <circle cx="3" cy="11" r="1" fill="srgba(99.2645%,99.2432%,0%,1)"/>
  <circle cx="4" cy="11" r="1" fill="srgba(96.1807%,96.1822%,0%,1)"/>
  <circle cx="5" cy="11" r="1" fill="srgba(88.7236%,88.7236%,0%,1)"/>
  <circle cx="6" cy="11" r="1" fill="srgba(85.0431%,85.0431%,0%,1)"/>
  <circle cx="7" cy="11" r="1" fill="srgba(86.1524%,86.1524%,0%,1)"/>
  <circle cx="8" cy="11" r="1" fill="srgba(92.5429%,92.5582%,0%,1)"/>
  <circle cx="9" cy="11" r="1" fill="srgba(99.3271%,99.4202%,0%,1)"/>
  <circle cx="10" cy="11" r="1" fill="srgba(98.1704%,98.1994%,0%,1)"/>
  <circle cx="11" cy="11" r="1" fill="srgba(97.1572%,97.1588%,0%,1)"/>
  <circle cx="12" cy="11" r="1" fill="srgba(96.6903%,96.6903%,0%,1)"/>
  <circle cx="13" cy="11" r="1" fill="srgba(96.6659%,96.6659%,0%,1)"/>
  <circle cx="14" cy="11" r="1" fill="srgba(96.7117%,96.7117%,0%,1)"/>
  <circle cx="15" cy="11" r="1" fill="srgba(96.6766%,96.6766%,0%,1)"/>
  <circle cx="0" cy="12" r="1" fill="srgba(98.8205%,98.1567%,0%,1)"/>
  <circle cx="1" cy="12" r="1" fill="srgba(98.085%,97.6196%,0%,1)"/>
  <circle cx="2" cy="12" r="1" fill="srgba(94.8013%,95.5077%,0%,1)"/>
  <circle cx="3" cy="12" r="1" fill="srgba(92.6146%,93.0632%,0%,1)"/>
  <circle cx="4" cy="12" r="1" fill="srgba(86.685%,86.6575%,0%,1)"/>
  <circle cx="5" cy="12" r="1" fill="srgba(93.7789%,93.7789%,0%,1)"/>
  <circle cx="6" cy="12" r="1" fill="srgba(92.3629%,92.3629%,0%,1)"/>
  <circle cx="7" cy="12" r="1" fill="srgba(91.1666%,91.1742%,0%,1)"/>
  <circle cx="8" cy="12" r="1" fill="srgba(86.2806%,86.0945%,0%,1)"/>
  <circle cx="9" cy="12" r="1" fill="srgba(94.9035%,93.5454%,0%,1)"/>
  <circle cx="10" cy="12" r="1" fill="srgba(96.7071%,96.4218%,0%,1)"/>
  <circle cx="11" cy="12" r="1" fill="srgba(96.9207%,98.2452%,0%,1)"/>
  <circle cx="12" cy="12" r="1" fill="srgba(96.8139%,98.5092%,0%,1)"/>
  <circle cx="13" cy="12" r="1" fill="srgba(96.5026%,98.233%,0%,1)"/>
  <circle cx="14" cy="12" r="1" fill="srgba(96.2615%,97.9171%,0%,1)"/>
  <circle cx="15" cy="12" r="1" fill="srgba(96.1242%,97.4899%,0%,1)"/>
  <circle cx="0" cy="13" r="1" fill="srgba(53.5531%,71.1162%,0%,1)"/>
  <circle cx="1" cy="13" r="1" fill="srgba(44.5167%,65.8579%,0%,1)"/>
  <circle cx="2" cy="13" r="1" fill="srgba(42.2126%,63.4028%,0%,1)"/>
  <circle cx="3" cy="13" r="1" fill="srgba(80.9155%,84.5624%,0%,1)"/>
  <circle cx="4" cy="13" r="1" fill="srgba(90.1122%,89.8833%,0%,1)"/>
  <circle cx="5" cy="13" r="1" fill="srgba(95.4177%,95.4177%,0%,1)"/>
  <circle cx="6" cy="13" r="1" fill="srgba(92.7214%,92.7214%,0%,1)"/>
  <circle cx="7" cy="13" r="1" fill="srgba(93.8109%,93.8781%,0%,1)"/>
  <circle cx="8" cy="13" r="1" fill="srgba(89.3675%,87.924%,0%,1)"/>
  <circle cx="9" cy="13" r="1" fill="srgba(89.1859%,79.4873%,0%,1)"/>
  <circle cx="10" cy="13" r="1" fill="srgba(95.5169%,52.1126%,0%,1)"/>
  <circle cx="11" cy="13" r="1" fill="srgba(97.7752%,46.3157%,0%,1)"/>
  <circle cx="12" cy="13" r="1" fill="srgba(97.499%,55.0988%,0%,1)"/>
  <circle cx="13" cy="13" r="1" fill="srgba(97.7142%,57.2213%,0%,1)"/>
  <circle cx="14" cy="13" r="1" fill="srgba(97.9156%,54.2351%,0%,1)"/>
  <circle cx="15" cy="13" r="1" fill="srgba(98.2925%,48.368%,0%,1)"/>
  <circle cx="0" cy="14" r="1" fill="srgba(0%,39.1089%,0%,1)"/>
  <circle cx="1" cy="14" r="1" fill="srgba(8.98604%,44.0253%,0%,1)"/>
  <circle cx="2" cy="14" r="1" fill="srgba(35.7214%,57.7096%,0%,1)"/>
  <circle cx="3" cy="14" r="1" fill="srgba(83.6286%,88.6763%,0%,1)"/>
  <circle cx="4" cy="14" r="1" fill="srgba(93.0343%,92.7138%,0%,1)"/>
  <circle cx="5" cy="14" r="1" fill="srgba(95.3262%,95.3262%,0%,1)"/>
  <circle cx="6" cy="14" r="1" fill="srgba(92.7169%,92.7169%,0%,1)"/>
  <circle cx="7" cy="14" r="1" fill="srgba(93.7652%,93.9483%,0%,1)"/>
  <circle cx="8" cy="14" r="1" fill="srgba(93.3333%,89.218%,0%,1)"/>
  <circle cx="9" cy="14" r="1" fill="srgba(92.8313%,73.5042%,0%,1)"/>
  <circle cx="10" cy="14" r="1" fill="srgba(90.7668%,52.8038%,0%,1)"/>
  <circle cx="11" cy="14" r="1" fill="srgba(98.3993%,4.08484%,0%,1)"/>
  <circle cx="12" cy="14" r="1" fill="srgba(99.9542%,0%,0%,1)"/>
  <circle cx="13" cy="14" r="1" fill="srgba(99.8245%,0%,0%,1)"/>
  <circle cx="14" cy="14" r="1" fill="srgba(99.8459%,0%,0%,1)"/>
  <circle cx="15" cy="14" r="1" fill="srgba(99.91%,0%,0%,1)"/>
  <circle cx="0" cy="15" r="1" fill="srgba(7.96521%,43.9063%,0%,1)"/>
  <circle cx="1" cy="15" r="1" fill="srgba(33.8064%,56.5743%,0%,1)"/>
  <circle cx="2" cy="15" r="1" fill="srgba(17.6623%,48.9418%,0%,1)"/>
  <circle cx="3" cy="15" r="1" fill="srgba(77.8149%,86.1326%,0%,1)"/>
  <circle cx="4" cy="15" r="1" fill="srgba(93.3776%,92.874%,0%,1)"/>
  <circle cx="5" cy="15" r="1" fill="srgba(95.3109%,95.3109%,0%,1)"/>
  <circle cx="6" cy="15" r="1" fill="srgba(92.7199%,92.7199%,0%,1)"/>
  <circle cx="7" cy="15" r="1" fill="srgba(93.6965%,93.8964%,0%,1)"/>
  <circle cx="8" cy="15" r="1" fill="srgba(93.2372%,88.7098%,0%,1)"/>
  <circle cx="9" cy="15" r="1" fill="srgba(97.0321%,75.7855%,0%,1)"/>
  <circle cx="10" cy="15" r="1" fill="srgba(93.9208%,83.0869%,0%,1)"/>
  <circle cx="11" cy="15" r="1" fill="srgba(91.107%,33.6034%,0%,1)"/>
  <circle cx="12" cy="15" r="1" fill="srgba(99.263%,2.78477%,0%,1)"/>
  <circle cx="13" cy="15" r="1" fill="red"/>
  <circle cx="14" cy="15" r="1" fill="red"/>
  <circle cx="15" cy="15" r="1" fill="red"/>
</svg>
