<?xml version="1.0" standalone="no"?>
<!DOCTYPE svg PUBLIC "-//W3C//DTD SVG 20010904//EN"
  "http://www.w3.org/TR/2001/REC-SVG-20010904/DTD/svg10.dtd">
<svg width="16" height="16">
  <circle cx="0" cy="0" r="1" fill="srgba(74,173,214,1)"/>
  <circle cx="1" cy="0" r="1" fill="srgba(74,173,214,1)"/>
  <circle cx="2" cy="0" r="1" fill="srgba(74,173,214,1)"/>
  <circle cx="3" cy="0" r="1" fill="srgba(74,173,214,1)"/>
  <circle cx="4" cy="0" r="1" fill="srgba(74,173,214,1)"/>
  <circle cx="5" cy="0" r="1" fill="srgba(74,173,214,1)"/>
  <circle cx="6" cy="0" r="1" fill="srgba(74,173,214,1)"/>
  <circle cx="7" cy="0" r="1" fill="srgba(74,173,214,1)"/>
  <circle cx="8" cy="0" r="1" fill="srgba(74,173,214,1)"/>
  <circle cx="9" cy="0" r="1" fill="srgba(74,173,214,1)"/>
  <circle cx="10" cy="0" r="1" fill="srgba(74,173,214,1)"/>
  <circle cx="11" cy="0" r="1" fill="srgba(74,173,214,1)"/>
  <circle cx="12" cy="0" r="1" fill="srgba(74,173,214,1)"/>
  <circle cx="13" cy="0" r="1" fill="srgba(74,173,214,1)"/>
  <circle cx="14" cy="0" r="1" fill="srgba(74,173,214,1)"/>
  <circle cx="15" cy="0" r="1" fill="srgba(74,173,214,1)"/>
  <circle cx="0" cy="1" r="1" fill="srgba(74,173,214,1)"/>
  <circle cx="1" cy="1" r="1" fill="srgba(74,173,214,1)"/>
  <circle cx="2" cy="1" r="1" fill="srgba(74,173,214,1)"/>
  <circle cx="3" cy="1" r="1" fill="srgba(29.0211%,67.8431%,83.92%,1)"/>
  <circle cx="4" cy="1" r="1" fill="srgba(28.9937%,67.8355%,83.9536%,1)"/>
  <circle cx="5" cy="1" r="1" fill="srgba(28.716%,67.7607%,84.2817%,1)"/>
  <circle cx="6" cy="1" r="1" fill="srgba(28.452%,67.689%,84.5914%,1)"/>
  <circle cx="7" cy="1" r="1" fill="srgba(28.6015%,67.7302%,84.416%,1)"/>
  <circle cx="8" cy="1" r="1" fill="srgba(28.9387%,67.8218%,84.0177%,1)"/>
  <circle cx="9" cy="1" r="1" fill="srgba(29.0227%,67.8447%,83.9185%,1)"/>
  <circle cx="10" cy="1" r="1" fill="srgba(74,173,214,1)"/>
  <circle cx="11" cy="1" r="1" fill="srgba(74,173,214,1)"/>
  <circle cx="12" cy="1" r="1" fill="srgba(74,173,214,1)"/>
  <circle cx="13" cy="1" r="1" fill="srgba(74,173,214,1)"/>
  <circle cx="14" cy="1" r="1" fill="srgba(74,173,214,1)"/>
  <circle cx="15" cy="1" r="1" fill="srgba(74,173,214,1)"/>
  <circle cx="0" cy="2" r="1" fill="srgba(74,173,214,1)"/>
  <circle cx="1" cy="2" r="1" fill="srgba(74,173,214,1)"/>
  <circle cx="2" cy="2" r="1" fill="srgba(29.0288%,67.8462%,83.9109%,1)"/>
  <circle cx="3" cy="2" r="1" fill="srgba(28.4718%,67.6951%,84.5686%,1)"/>
  <circle cx="4" cy="2" r="1" fill="srgba(28.7999%,67.7836%,84.1825%,1)"/>
  <circle cx="5" cy="2" r="1" fill="srgba(33.8323%,69.1463%,78.23%,1)"/>
  <circle cx="6" cy="2" r="1" fill="srgba(37.8546%,70.2342%,73.4752%,1)"/>
  <circle cx="7" cy="2" r="1" fill="srgba(35.6085%,69.6269%,76.1318%,1)"/>
  <circle cx="8" cy="2" r="1" fill="srgba(29.9672%,68.0995%,82.8016%,1)"/>
  <circle cx="9" cy="2" r="1" fill="srgba(28.2033%,67.6219%,84.8859%,1)"/>
  <circle cx="10" cy="2" r="1" fill="srgba(28.9723%,67.8309%,83.978%,1)"/>
  <circle cx="11" cy="2" r="1" fill="srgba(29.0227%,67.8447%,83.9185%,1)"/>
  <circle cx="12" cy="2" r="1" fill="srgba(74,173,214,1)"/>
  <circle cx="13" cy="2" r="1" fill="srgba(74,173,214,1)"/>
  <circle cx="14" cy="2" r="1" fill="srgba(74,173,214,1)"/>
  <circle cx="15" cy="2" r="1" fill="srgba(74,173,214,1)"/>
  <circle cx="0" cy="3" r="1" fill="srgba(74,173,214,1)"/>
  <circle cx="1" cy="3" r="1" fill="srgba(29.0272%,67.8447%,83.9139%,1)"/>
  <circle cx="2" cy="3" r="1" fill="srgba(28.3909%,67.6722%,84.6647%,1)"/>
  <circle cx="3" cy="3" r="1" fill="srgba(37.7493%,70.2068%,73.6004%,1)"/>
  <circle cx="4" cy="3" r="1" fill="srgba(66.4515%,77.9782%,39.6628%,1)"/>
  <circle cx="5" cy="3" r="1" fill="srgba(86.0929%,83.2959%,16.4416%,1)"/>
  <circle cx="6" cy="3" r="1" fill="srgba(91.7708%,84.831%,9.73068%,1)"/>
  <circle cx="7" cy="3" r="1" fill="srgba(89.0089%,84.0833%,12.9931%,1)"/>
  <circle cx="8" cy="3" r="1" fill="srgba(74.5434%,80.1678%,30.0984%,1)"/>
  <circle cx="9" cy="3" r="1" fill="srgba(45.8869%,72.4102%,63.9796%,1)"/>
  <circle cx="10" cy="3" r="1" fill="srgba(28.9891%,67.8355%,83.9582%,1)"/>
  <circle cx="11" cy="3" r="1" fill="srgba(28.9265%,67.8172%,84.0314%,1)"/>
  <circle cx="12" cy="3" r="1" fill="srgba(29.0211%,67.8431%,83.92%,1)"/>
  <circle cx="13" cy="3" r="1" fill="srgba(74,173,214,1)"/>
  <circle cx="14" cy="3" r="1" fill="srgba(74,173,214,1)"/>
  <circle cx="15" cy="3" r="1" fill="srgba(74,173,214,1)"/>
  <circle cx="0" cy="4" r="1" fill="srgba(29.0272%,67.8447%,83.9124%,1)"/>
  <circle cx="1" cy="4" r="1" fill="srgba(28.3772%,67.6692%,84.6815%,1)"/>
  <circle cx="2" cy="4" r="1" fill="srgba(40.5509%,70.9651%,70.2892%,1)"/>
  <circle cx="3" cy="4" r="1" fill="srgba(84.387%,82.8397%,18.4604%,1)"/>
  <circle cx="4" cy="4" r="1" fill="srgba(100%,87.2999%,0%,1)"/>
  <circle cx="5" cy="4" r="1" fill="srgba(100%,87.3014%,0%,1)"/>
  <circle cx="6" cy="4" r="1" fill="srgba(100%,87.2038%,0%,1)"/>
  <circle cx="7" cy="4" r="1" fill="srgba(100%,87.2541%,0%,1)"/>
  <circle cx="8" cy="4" r="1" fill="srgba(100%,87.4006%,0%,1)"/>
  <circle cx="9" cy="4" r="1" fill="srgba(93.4554%,85.3376%,7.73785%,1)"/>
  <circle cx="10" cy="4" r="1" fill="srgba(53.4646%,74.4564%,55.021%,1)"/>
  <circle cx="11" cy="4" r="1" fill="srgba(28.6687%,67.7485%,84.3381%,1)"/>
  <circle cx="12" cy="4" r="1" fill="srgba(29.0013%,67.8386%,83.9429%,1)"/>
  <circle cx="13" cy="4" r="1" fill="srgba(74,173,214,1)"/>
  <circle cx="14" cy="4" r="1" fill="srgba(74,173,214,1)"/>
  <circle cx="15" cy="4" r="1" fill="srgba(74,173,214,1)"/>
  <circle cx="0" cy="5" r="1" fill="srgba(28.8273%,67.7913%,84.1489%,1)"/>
  <circle cx="1" cy="5" r="1" fill="srgba(31.2734%,68.4504%,81.2558%,1)"/>
  <circle cx="2" cy="5" r="1" fill="srgba(75.9869%,80.6088%,28.3909%,1)"/>
  <circle cx="3" cy="5" r="1" fill="srgba(100%,87.4022%,0%,1)"/>
  <circle cx="4" cy="5" r="1" fill="srgba(100%,87.068%,0%,1)"/>
  <circle cx="5" cy="5" r="1" fill="srgba(255,222,0,1)"/>
  <circle cx="6" cy="5" r="1" fill="srgba(255,222,0,1)"/>
  <circle cx="7" cy="5" r="1" fill="srgba(255,222,0,1)"/>
  <circle cx="8" cy="5" r="1" fill="srgba(100%,87.0558%,0%,1)"/>
  <circle cx="9" cy="5" r="1" fill="srgba(100%,87.306%,0%,1)"/>
  <circle cx="10" cy="5" r="1" fill="srgba(90.2419%,84.5258%,11.5373%,1)"/>
  <circle cx="11" cy="5" r="1" fill="srgba(40.1266%,70.8446%,70.7897%,1)"/>
  <circle cx="12" cy="5" r="1" fill="srgba(28.3635%,67.6661%,84.6983%,1)"/>
  <circle cx="13" cy="5" r="1" fill="srgba(74,173,214,1)"/>
  <circle cx="14" cy="5" r="1" fill="srgba(74,173,214,1)"/>
  <circle cx="15" cy="5" r="1" fill="srgba(74,173,214,1)"/>
  <circle cx="0" cy="6" r="1" fill="srgba(28.0491%,67.5807%,85.0675%,1)"/>
  <circle cx="1" cy="6" r="1" fill="srgba(43.154%,71.6808%,67.2114%,1)"/>
  <circle cx="2" cy="6" r="1" fill="srgba(94.9355%,85.7862%,5.98764%,1)"/>
  <circle cx="3" cy="6" r="1" fill="srgba(100%,87.1504%,0%,1)"/>
  <circle cx="4" cy="6" r="1" fill="srgba(255,222,0,1)"/>
  <circle cx="5" cy="6" r="1" fill="srgba(255,222,0,1)"/>
  <circle cx="6" cy="6" r="1" fill="srgba(255,222,0,1)"/>
  <circle cx="7" cy="6" r="1" fill="srgba(255,222,0,1)"/>
  <circle cx="8" cy="6" r="1" fill="srgba(255,222,0,1)"/>
  <circle cx="9" cy="6" r="1" fill="srgba(100%,87.0619%,0%,1)"/>
  <circle cx="10" cy="6" r="1" fill="srgba(100%,87.2236%,0%,1)"/>
  <circle cx="11" cy="6" r="1" fill="srgba(60.7294%,76.4752%,46.4302%,1)"/>
  <circle cx="12" cy="6" r="1" fill="srgba(28.0278%,67.5715%,85.095%,1)"/>
  <circle cx="13" cy="6" r="1" fill="srgba(29.0181%,67.8431%,83.9231%,1)"/>
  <circle cx="14" cy="6" r="1" fill="srgba(74,173,214,1)"/>
  <circle cx="15" cy="6" r="1" fill="srgba(74,173,214,1)"/>
  <circle cx="0" cy="7" r="1" fill="srgba(27.6616%,67.4723%,85.5268%,1)"/>
  <circle cx="1" cy="7" r="1" fill="srgba(51.4015%,73.9498%,57.4563%,1)"/>
  <circle cx="2" cy="7" r="1" fill="srgba(99.0356%,86.8345%,1.13985%,1)"/>
  <circle cx="3" cy="7" r="1" fill="srgba(100%,87.0741%,0%,1)"/>
  <circle cx="4" cy="7" r="1" fill="srgba(255,222,0,1)"/>
  <circle cx="5" cy="7" r="1" fill="srgba(255,222,0,1)"/>
  <circle cx="6" cy="7" r="1" fill="srgba(255,222,0,1)"/>
  <circle cx="7" cy="7" r="1" fill="srgba(255,222,0,1)"/>
  <circle cx="8" cy="7" r="1" fill="srgba(255,222,0,1)"/>
  <circle cx="9" cy="7" r="1" fill="srgba(255,222,0,1)"/>
  <circle cx="10" cy="7" r="1" fill="srgba(100%,87.3991%,0%,1)"/>
  <circle cx="11" cy="7" r="1" fill="srgba(71.0353%,79.2844%,34.2443%,1)"/>
  <circle cx="12" cy="7" r="1" fill="srgba(28.6946%,67.7562%,84.3061%,1)"/>
  <circle cx="13" cy="7" r="1" fill="srgba(29.0105%,67.8401%,83.9322%,1)"/>
  <circle cx="14" cy="7" r="1" fill="srgba(74,173,214,1)"/>
  <circle cx="15" cy="7" r="1" fill="srgba(74,173,214,1)"/>
  <circle cx="0" cy="8" r="1" fill="srgba(27.7836%,67.5059%,85.3819%,1)"/>
  <circle cx="1" cy="8" r="1" fill="srgba(48.2826%,73.0877%,61.146%,1)"/>
  <circle cx="2" cy="8" r="1" fill="srgba(97.8363%,86.5354%,2.55741%,1)"/>
  <circle cx="3" cy="8" r="1" fill="srgba(100%,87.0939%,0%,1)"/>
  <circle cx="4" cy="8" r="1" fill="srgba(255,222,0,1)"/>
  <circle cx="5" cy="8" r="1" fill="srgba(255,222,0,1)"/>
  <circle cx="6" cy="8" r="1" fill="srgba(255,222,0,1)"/>
  <circle cx="7" cy="8" r="1" fill="srgba(255,222,0,1)"/>
  <circle cx="8" cy="8" r="1" fill="srgba(255,222,0,1)"/>
  <circle cx="9" cy="8" r="1" fill="srgba(100%,87.0573%,0%,1)"/>
  <circle cx="10" cy="8" r="1" fill="srgba(100%,87.3747%,0%,1)"/>
  <circle cx="11" cy="8" r="1" fill="srgba(67.364%,78.2834%,38.5855%,1)"/>
  <circle cx="12" cy="8" r="1" fill="srgba(28.3589%,67.6616%,84.7028%,1)"/>
  <circle cx="13" cy="8" r="1" fill="srgba(29.015%,67.8416%,83.9261%,1)"/>
  <circle cx="14" cy="8" r="1" fill="srgba(74,173,214,1)"/>
  <circle cx="15" cy="8" r="1" fill="srgba(74,173,214,1)"/>
  <circle cx="0" cy="9" r="1" fill="srgba(28.4871%,67.6997%,84.5502%,1)"/>
  <circle cx="1" cy="9" r="1" fill="srgba(36.3195%,69.8161%,75.2911%,1)"/>
  <circle cx="2" cy="9" r="1" fill="srgba(87.7836%,83.8575%,14.4442%,1)"/>
  <circle cx="3" cy="9" r="1" fill="srgba(100%,87.3014%,0%,1)"/>
  <circle cx="4" cy="9" r="1" fill="srgba(100%,87.0558%,0%,1)"/>
  <circle cx="5" cy="9" r="1" fill="srgba(255,222,0,1)"/>
  <circle cx="6" cy="9" r="1" fill="srgba(255,222,0,1)"/>
  <circle cx="7" cy="9" r="1" fill="srgba(255,222,0,1)"/>
  <circle cx="8" cy="9" r="1" fill="srgba(255,222,0,1)"/>
  <circle cx="9" cy="9" r="1" fill="srgba(100%,87.1229%,0%,1)"/>
  <circle cx="10" cy="9" r="1" fill="srgba(97.4014%,86.4851%,3.07164%,1)"/>
  <circle cx="11" cy="9" r="1" fill="srgba(50.2296%,73.5973%,58.8449%,1)"/>
  <circle cx="12" cy="9" r="1" fill="srgba(28.011%,67.57%,85.1148%,1)"/>
  <circle cx="13" cy="9" r="1" fill="srgba(74,173,214,1)"/>
  <circle cx="14" cy="9" r="1" fill="srgba(74,173,214,1)"/>
  <circle cx="15" cy="9" r="1" fill="srgba(74,173,214,1)"/>
  <circle cx="0" cy="10" r="1" fill="srgba(29.0043%,67.8386%,83.9399%,1)"/>
  <circle cx="1" cy="10" r="1" fill="srgba(28.5649%,67.7195%,84.4587%,1)"/>
  <circle cx="2" cy="10" r="1" fill="srgba(56.9909%,75.4101%,50.8522%,1)"/>
  <circle cx="3" cy="10" r="1" fill="srgba(97.1557%,86.4332%,3.36309%,1)"/>
  <circle cx="4" cy="10" r="1" fill="srgba(100%,87.2694%,0%,1)"/>
  <circle cx="5" cy="10" r="1" fill="srgba(100%,87.0695%,0%,1)"/>
  <circle cx="6" cy="10" r="1" fill="srgba(255,222,0,1)"/>
  <circle cx="7" cy="10" r="1" fill="srgba(100%,87.0603%,0%,1)"/>
  <circle cx="8" cy="10" r="1" fill="srgba(100%,87.1611%,0%,1)"/>
  <circle cx="9" cy="10" r="1" fill="srgba(100%,87.277%,0%,1)"/>
  <circle cx="10" cy="10" r="1" fill="srgba(73.6965%,79.9481%,31.0994%,1)"/>
  <circle cx="11" cy="10" r="1" fill="srgba(31.7205%,68.5725%,80.7279%,1)"/>
  <circle cx="12" cy="10" r="1" fill="srgba(28.8121%,67.7867%,84.1672%,1)"/>
  <circle cx="13" cy="10" r="1" fill="srgba(74,173,214,1)"/>
  <circle cx="14" cy="10" r="1" fill="srgba(74,173,214,1)"/>
  <circle cx="15" cy="10" r="1" fill="srgba(74,173,214,1)"/>
  <circle cx="0" cy="11" r="1" fill="srgba(29.0211%,67.8431%,83.92%,1)"/>
  <circle cx="1" cy="11" r="1" fill="srgba(28.8518%,67.7974%,84.1215%,1)"/>
  <circle cx="2" cy="11" r="1" fill="srgba(30.3166%,68.1941%,82.388%,1)"/>
  <circle cx="3" cy="11" r="1" fill="srgba(58.2513%,75.7549%,49.3614%,1)"/>
  <circle cx="4" cy="11" r="1" fill="srgba(90.5776%,84.5045%,11.1406%,1)"/>
  <circle cx="5" cy="11" r="1" fill="srgba(99.5331%,87.0054%,0.550851%,1)"/>
  <circle cx="6" cy="11" r="1" fill="srgba(100%,87.3121%,0%,1)"/>
  <circle cx="7" cy="11" r="1" fill="srgba(99.9786%,87.1885%,0.0244144%,1)"/>
  <circle cx="8" cy="11" r="1" fill="srgba(95.3475%,85.8%,5.49935%,1)"/>
  <circle cx="9" cy="11" r="1" fill="srgba(70.7973%,79.1531%,34.5281%,1)"/>
  <circle cx="10" cy="11" r="1" fill="srgba(35.3368%,69.5521%,76.4538%,1)"/>
  <circle cx="11" cy="11" r="1" fill="srgba(28.5191%,67.7073%,84.5136%,1)"/>
  <circle cx="12" cy="11" r="1" fill="srgba(29.0303%,67.8462%,83.9094%,1)"/>
  <circle cx="13" cy="11" r="1" fill="srgba(74,173,214,1)"/>
  <circle cx="14" cy="11" r="1" fill="srgba(74,173,214,1)"/>
  <circle cx="15" cy="11" r="1" fill="srgba(74,173,214,1)"/>
  <circle cx="0" cy="12" r="1" fill="srgba(74,173,214,1)"/>
  <circle cx="1" cy="12" r="1" fill="srgba(29.0272%,67.8447%,83.9124%,1)"/>
  <circle cx="2" cy="12" r="1" fill="srgba(28.838%,67.7943%,84.1367%,1)"/>
  <circle cx="3" cy="12" r="1" fill="srgba(28.7541%,67.7714%,84.2344%,1)"/>
  <circle cx="4" cy="12" r="1" fill="srgba(38.883%,70.5119%,72.2606%,1)"/>
  <circle cx="5" cy="12" r="1" fill="srgba(55.3567%,74.9722%,52.7825%,1)"/>
  <circle cx="6" cy="12" r="1" fill="srgba(63.3173%,77.1283%,43.3722%,1)"/>
  <circle cx="7" cy="12" r="1" fill="srgba(59.1455%,75.9976%,48.304%,1)"/>
  <circle cx="8" cy="12" r="1" fill="srgba(44.3061%,71.9829%,65.8473%,1)"/>
  <circle cx="9" cy="12" r="1" fill="srgba(30.3883%,68.2139%,82.3026%,1)"/>
  <circle cx="10" cy="12" r="1" fill="srgba(28.5451%,67.715%,84.4831%,1)"/>
  <circle cx="11" cy="12" r="1" fill="srgba(29.0364%,67.8477%,83.9017%,1)"/>
  <circle cx="12" cy="12" r="1" fill="srgba(74,173,214,1)"/>
  <circle cx="13" cy="12" r="1" fill="srgba(74,173,214,1)"/>
  <circle cx="14" cy="12" r="1" fill="srgba(74,173,214,1)"/>
  <circle cx="15" cy="12" r="1" fill="srgba(74,173,214,1)"/>
  <circle cx="0" cy="13" r="1" fill="srgba(74,173,214,1)"/>
  <circle cx="1" cy="13" r="1" fill="srgba(74,173,214,1)"/>
  <circle cx="2" cy="13" r="1" fill="srgba(29.0211%,67.8431%,83.9185%,1)"/>
  <circle cx="3" cy="13" r="1" fill="srgba(28.9937%,67.837%,83.9521%,1)"/>
  <circle cx="4" cy="13" r="1" fill="srgba(28.4123%,67.6783%,84.6387%,1)"/>
  <circle cx="5" cy="13" r="1" fill="srgba(27.8492%,67.5257%,85.3056%,1)"/>
  <circle cx="6" cy="13" r="1" fill="srgba(27.9576%,67.5563%,85.1774%,1)"/>
  <circle cx="7" cy="13" r="1" fill="srgba(27.8569%,67.5288%,85.2964%,1)"/>
  <circle cx="8" cy="13" r="1" fill="srgba(28.1498%,67.6081%,84.95%,1)"/>
  <circle cx="9" cy="13" r="1" fill="srgba(28.8975%,67.8096%,84.0665%,1)"/>
  <circle cx="10" cy="13" r="1" fill="srgba(29.0257%,67.8447%,83.9139%,1)"/>
  <circle cx="11" cy="13" r="1" fill="srgba(74,173,214,1)"/>
  <circle cx="12" cy="13" r="1" fill="srgba(74,173,214,1)"/>
  <circle cx="13" cy="13" r="1" fill="srgba(74,173,214,1)"/>
  <circle cx="14" cy="13" r="1" fill="srgba(74,173,214,1)"/>
  <circle cx="15" cy="13" r="1" fill="srgba(74,173,214,1)"/>
  <circle cx="0" cy="14" r="1" fill="srgba(74,173,214,1)"/>
  <circle cx="1" cy="14" r="1" fill="srgba(74,173,214,1)"/>
  <circle cx="2" cy="14" r="1" fill="srgba(74,173,214,1)"/>
  <circle cx="3" cy="14" r="1" fill="srgba(74,173,214,1)"/>
  <circle cx="4" cy="14" r="1" fill="srgba(74,173,214,1)"/>
  <circle cx="5" cy="14" r="1" fill="srgba(74,173,214,1)"/>
  <circle cx="6" cy="14" r="1" fill="srgba(74,173,214,1)"/>
  <circle cx="7" cy="14" r="1" fill="srgba(74,173,214,1)"/>
  <circle cx="8" cy="14" r="1" fill="srgba(74,173,214,1)"/>
  <circle cx="9" cy="14" r="1" fill="srgba(74,173,214,1)"/>
  <circle cx="10" cy="14" r="1" fill="srgba(74,173,214,1)"/>
  <circle cx="11" cy="14" r="1" fill="srgba(74,173,214,1)"/>
  <circle cx="12" cy="14" r="1" fill="srgba(74,173,214,1)"/>
  <circle cx="13" cy="14" r="1" fill="srgba(74,173,214,1)"/>
  <circle cx="14" cy="14" r="1" fill="srgba(74,173,214,1)"/>
  <circle cx="15" cy="14" r="1" fill="srgba(74,173,214,1)"/>
  <circle cx="0" cy="15" r="1" fill="srgba(74,173,214,1)"/>
  <circle cx="1" cy="15" r="1" fill="srgba(74,173,214,1)"/>
  <circle cx="2" cy="15" r="1" fill="srgba(74,173,214,1)"/>
  <circle cx="3" cy="15" r="1" fill="srgba(74,173,214,1)"/>
  <circle cx="4" cy="15" r="1" fill="srgba(74,173,214,1)"/>
  <circle cx="5" cy="15" r="1" fill="srgba(74,173,214,1)"/>
  <circle cx="6" cy="15" r="1" fill="srgba(74,173,214,1)"/>
  <circle cx="7" cy="15" r="1" fill="srgba(74,173,214,1)"/>
  <circle cx="8" cy="15" r="1" fill="srgba(74,173,214,1)"/>
  <circle cx="9" cy="15" r="1" fill="srgba(74,173,214,1)"/>
  <circle cx="10" cy="15" r="1" fill="srgba(74,173,214,1)"/>
  <circle cx="11" cy="15" r="1" fill="srgba(74,173,214,1)"/>
  <circle cx="12" cy="15" r="1" fill="srgba(74,173,214,1)"/>
  <circle cx="13" cy="15" r="1" fill="srgba(74,173,214,1)"/>
  <circle cx="14" cy="15" r="1" fill="srgba(74,173,214,1)"/>
  <circle cx="15" cy="15" r="1" fill="srgba(74,173,214,1)"/>
</svg>
