<?xml version="1.0" standalone="no"?>
<!DOCTYPE svg PUBLIC "-//W3C//DTD SVG 20010904//EN"
  "http://www.w3.org/TR/2001/REC-SVG-20010904/DTD/svg10.dtd">
<svg width="16" height="16">
  <circle cx="0" cy="0" r="1" fill="srgba(213,43,30,1)"/>
  <circle cx="1" cy="0" r="1" fill="srgba(213,43,30,1)"/>
  <circle cx="2" cy="0" r="1" fill="srgba(213,43,30,1)"/>
  <circle cx="3" cy="0" r="1" fill="srgba(213,43,30,1)"/>
  <circle cx="4" cy="0" r="1" fill="srgba(213,43,30,1)"/>
  <circle cx="5" cy="0" r="1" fill="srgba(213,43,30,1)"/>
  <circle cx="6" cy="0" r="1" fill="srgba(213,43,30,1)"/>
  <circle cx="7" cy="0" r="1" fill="srgba(213,43,30,1)"/>
  <circle cx="8" cy="0" r="1" fill="srgba(213,43,30,1)"/>
  <circle cx="9" cy="0" r="1" fill="srgba(213,43,30,1)"/>
  <circle cx="10" cy="0" r="1" fill="srgba(213,43,30,1)"/>
  <circle cx="11" cy="0" r="1" fill="srgba(83.5096%,16.8734%,11.7678%,1)"/>
  <circle cx="12" cy="0" r="1" fill="srgba(84.4739%,16.3745%,11.6442%,1)"/>
  <circle cx="13" cy="0" r="1" fill="srgba(72.5124%,22.501%,13.1563%,1)"/>
  <circle cx="14" cy="0" r="1" fill="srgba(16.1349%,52.1263%,20.5615%,1)"/>
  <circle cx="15" cy="0" r="1" fill="srgba(0%,61.0529%,22.7878%,1)"/>
  <circle cx="0" cy="1" r="1" fill="srgba(213,43,30,1)"/>
  <circle cx="1" cy="1" r="1" fill="srgba(213,43,30,1)"/>
  <circle cx="2" cy="1" r="1" fill="srgba(213,43,30,1)"/>
  <circle cx="3" cy="1" r="1" fill="srgba(213,43,30,1)"/>
  <circle cx="4" cy="1" r="1" fill="srgba(213,43,30,1)"/>
  <circle cx="5" cy="1" r="1" fill="srgba(213,43,30,1)"/>
  <circle cx="6" cy="1" r="1" fill="srgba(213,43,30,1)"/>
  <circle cx="7" cy="1" r="1" fill="srgba(213,43,30,1)"/>
  <circle cx="8" cy="1" r="1" fill="srgba(213,43,30,1)"/>
  <circle cx="9" cy="1" r="1" fill="srgba(213,43,30,1)"/>
  <circle cx="10" cy="1" r="1" fill="srgba(83.5172%,16.8688%,11.7662%,1)"/>
  <circle cx="11" cy="1" r="1" fill="srgba(84.1306%,16.5545%,11.6884%,1)"/>
  <circle cx="12" cy="1" r="1" fill="srgba(77.9248%,19.7055%,12.462%,1)"/>
  <circle cx="13" cy="1" r="1" fill="srgba(28.1285%,45.8213%,18.9792%,1)"/>
  <circle cx="14" cy="1" r="1" fill="srgba(0%,60.7538%,22.7115%,1)"/>
  <circle cx="15" cy="1" r="1" fill="srgba(0%,59.8734%,22.4002%,1)"/>
  <circle cx="0" cy="2" r="1" fill="srgba(213,43,30,1)"/>
  <circle cx="1" cy="2" r="1" fill="srgba(213,43,30,1)"/>
  <circle cx="2" cy="2" r="1" fill="srgba(213,43,30,1)"/>
  <circle cx="3" cy="2" r="1" fill="srgba(213,43,30,1)"/>
  <circle cx="4" cy="2" r="1" fill="srgba(213,43,30,1)"/>
  <circle cx="5" cy="2" r="1" fill="srgba(213,43,30,1)"/>
  <circle cx="6" cy="2" r="1" fill="srgba(213,43,30,1)"/>
  <circle cx="7" cy="2" r="1" fill="srgba(213,43,30,1)"/>
  <circle cx="8" cy="2" r="1" fill="srgba(213,43,30,1)"/>
  <circle cx="9" cy="2" r="1" fill="srgba(83.5187%,16.8688%,11.7662%,1)"/>
  <circle cx="10" cy="2" r="1" fill="srgba(84.0665%,16.5896%,11.6976%,1)"/>
  <circle cx="11" cy="2" r="1" fill="srgba(80.6744%,18.2773%,12.108%,1)"/>
  <circle cx="12" cy="2" r="1" fill="srgba(35.1171%,42.1317%,18.0529%,1)"/>
  <circle cx="13" cy="2" r="1" fill="srgba(0.511177%,60.6775%,22.7008%,1)"/>
  <circle cx="14" cy="2" r="1" fill="srgba(0%,60.032%,22.4552%,1)"/>
  <circle cx="15" cy="2" r="1" fill="srgba(0%,60.4578%,22.6215%,1)"/>
  <circle cx="0" cy="3" r="1" fill="srgba(83.5218%,16.8261%,11.725%,1)"/>
  <circle cx="1" cy="3" r="1" fill="srgba(83.5218%,16.8261%,11.725%,1)"/>
  <circle cx="2" cy="3" r="1" fill="srgba(83.5218%,16.8261%,11.725%,1)"/>
  <circle cx="3" cy="3" r="1" fill="srgba(83.5218%,16.8261%,11.725%,1)"/>
  <circle cx="4" cy="3" r="1" fill="srgba(83.5218%,16.8261%,11.725%,1)"/>
  <circle cx="5" cy="3" r="1" fill="srgba(83.5218%,16.8261%,11.725%,1)"/>
  <circle cx="6" cy="3" r="1" fill="srgba(83.5218%,16.8261%,11.725%,1)"/>
  <circle cx="7" cy="3" r="1" fill="srgba(83.5218%,16.8261%,11.725%,1)"/>
  <circle cx="8" cy="3" r="1" fill="srgba(83.5111%,16.8307%,11.725%,1)"/>
  <circle cx="9" cy="3" r="1" fill="srgba(84.0589%,16.5728%,11.6732%,1)"/>
  <circle cx="10" cy="3" r="1" fill="srgba(77.3922%,19.7696%,12.4498%,1)"/>
  <circle cx="11" cy="3" r="1" fill="srgba(38.7366%,39.9344%,17.4716%,1)"/>
  <circle cx="12" cy="3" r="1" fill="srgba(2.07675%,59.8993%,22.5132%,1)"/>
  <circle cx="13" cy="3" r="1" fill="srgba(0%,60.1572%,22.4933%,1)"/>
  <circle cx="14" cy="3" r="1" fill="srgba(0%,60.4059%,22.6032%,1)"/>
  <circle cx="15" cy="3" r="1" fill="srgba(0%,60.8118%,22.7558%,1)"/>
  <circle cx="0" cy="4" r="1" fill="srgba(83.6027%,17.232%,12.1569%,1)"/>
  <circle cx="1" cy="4" r="1" fill="srgba(83.6027%,17.232%,12.1569%,1)"/>
  <circle cx="2" cy="4" r="1" fill="srgba(83.6027%,17.232%,12.1569%,1)"/>
  <circle cx="3" cy="4" r="1" fill="srgba(83.6027%,17.232%,12.1569%,1)"/>
  <circle cx="4" cy="4" r="1" fill="srgba(83.6027%,17.232%,12.1569%,1)"/>
  <circle cx="5" cy="4" r="1" fill="srgba(83.6011%,17.2305%,12.1553%,1)"/>
  <circle cx="6" cy="4" r="1" fill="srgba(83.6316%,17.261%,12.1843%,1)"/>
  <circle cx="7" cy="4" r="1" fill="srgba(83.772%,17.4029%,12.3262%,1)"/>
  <circle cx="8" cy="4" r="1" fill="srgba(84.0436%,17.3205%,12.3476%,1)"/>
  <circle cx="9" cy="4" r="1" fill="srgba(81.1017%,18.8663%,12.8527%,1)"/>
  <circle cx="10" cy="4" r="1" fill="srgba(35.697%,41.3535%,17.8317%,1)"/>
  <circle cx="11" cy="4" r="1" fill="srgba(2.11643%,59.7635%,22.4659%,1)"/>
  <circle cx="12" cy="4" r="1" fill="srgba(0%,60.2518%,22.5238%,1)"/>
  <circle cx="13" cy="4" r="1" fill="srgba(0%,60.2655%,22.5513%,1)"/>
  <circle cx="14" cy="4" r="1" fill="srgba(0%,60.8057%,22.7527%,1)"/>
  <circle cx="15" cy="4" r="1" fill="srgba(0,155,58,1)"/>
  <circle cx="0" cy="5" r="1" fill="srgba(94.1573%,70.4997%,68.6885%,1)"/>
  <circle cx="1" cy="5" r="1" fill="srgba(94.1573%,70.4997%,68.6885%,1)"/>
  <circle cx="2" cy="5" r="1" fill="srgba(94.1573%,70.4997%,68.6885%,1)"/>
  <circle cx="3" cy="5" r="1" fill="srgba(94.1573%,70.4997%,68.6885%,1)"/>
  <circle cx="4" cy="5" r="1" fill="srgba(94.1558%,70.4982%,68.687%,1)"/>
  <circle cx="5" cy="5" r="1" fill="srgba(94.2123%,70.5547%,68.7434%,1)"/>
  <circle cx="6" cy="5" r="1" fill="srgba(93.7484%,70.0816%,68.275%,1)"/>
  <circle cx="7" cy="5" r="1" fill="srgba(91.8654%,67.9789%,66.3111%,1)"/>
  <circle cx="8" cy="5" r="1" fill="srgba(92.8161%,68.0751%,66.7765%,1)"/>
  <circle cx="9" cy="5" r="1" fill="srgba(56.5194%,59.4995%,43.6866%,1)"/>
  <circle cx="10" cy="5" r="1" fill="srgba(2.57572%,59.1485%,22.0279%,1)"/>
  <circle cx="11" cy="5" r="1" fill="srgba(0%,60.3815%,22.562%,1)"/>
  <circle cx="12" cy="5" r="1" fill="srgba(0%,60.1343%,22.504%,1)"/>
  <circle cx="13" cy="5" r="1" fill="srgba(0%,60.8011%,22.7512%,1)"/>
  <circle cx="14" cy="5" r="1" fill="srgba(0%,60.795%,22.7497%,1)"/>
  <circle cx="15" cy="5" r="1" fill="srgba(0%,60.7935%,22.7481%,1)"/>
  <circle cx="0" cy="6" r="1" fill="white"/>
  <circle cx="1" cy="6" r="1" fill="white"/>
  <circle cx="2" cy="6" r="1" fill="white"/>
  <circle cx="3" cy="6" r="1" fill="white"/>
  <circle cx="4" cy="6" r="1" fill="white"/>
  <circle cx="5" cy="6" r="1" fill="srgba(99.5758%,99.6963%,99.7131%,1)"/>
  <circle cx="6" cy="6" r="1" fill="srgba(93.8811%,95.0332%,95.0057%,1)"/>
  <circle cx="7" cy="6" r="1" fill="srgba(87.0802%,91.3542%,89.7597%,1)"/>
  <circle cx="8" cy="6" r="1" fill="srgba(67.6066%,84.7059%,75.0927%,1)"/>
  <circle cx="9" cy="6" r="1" fill="srgba(12.0485%,65.5421%,32.5185%,1)"/>
  <circle cx="10" cy="6" r="1" fill="srgba(0%,60.0092%,22.0554%,1)"/>
  <circle cx="11" cy="6" r="1" fill="srgba(0%,59.8047%,22.3774%,1)"/>
  <circle cx="12" cy="6" r="1" fill="srgba(0%,60.5676%,22.6627%,1)"/>
  <circle cx="13" cy="6" r="1" fill="srgba(0%,60.6104%,22.6795%,1)"/>
  <circle cx="14" cy="6" r="1" fill="srgba(0%,60.6149%,22.681%,1)"/>
  <circle cx="15" cy="6" r="1" fill="srgba(0%,60.6104%,22.6795%,1)"/>
  <circle cx="0" cy="7" r="1" fill="white"/>
  <circle cx="1" cy="7" r="1" fill="white"/>
  <circle cx="2" cy="7" r="1" fill="white"/>
  <circle cx="3" cy="7" r="1" fill="white"/>
  <circle cx="4" cy="7" r="1" fill="white"/>
  <circle cx="5" cy="7" r="1" fill="srgba(97.9294%,97.6379%,97.8195%,1)"/>
  <circle cx="6" cy="7" r="1" fill="srgba(82.5269%,87.2877%,84.5686%,1)"/>
  <circle cx="7" cy="7" r="1" fill="srgba(31.3451%,65.951%,39.6384%,1)"/>
  <circle cx="8" cy="7" r="1" fill="srgba(14.5312%,62.2477%,27.5257%,1)"/>
  <circle cx="9" cy="7" r="1" fill="srgba(0%,57.8668%,21.3291%,1)"/>
  <circle cx="10" cy="7" r="1" fill="srgba(0%,58.1094%,21.7395%,1)"/>
  <circle cx="11" cy="7" r="1" fill="srgba(0%,58.5031%,21.8753%,1)"/>
  <circle cx="12" cy="7" r="1" fill="srgba(0%,58.9456%,22.0401%,1)"/>
  <circle cx="13" cy="7" r="1" fill="srgba(0%,59.1135%,22.1088%,1)"/>
  <circle cx="14" cy="7" r="1" fill="srgba(0%,59.0723%,22.0935%,1)"/>
  <circle cx="15" cy="7" r="1" fill="srgba(0%,59.0707%,22.0905%,1)"/>
  <circle cx="0" cy="8" r="1" fill="white"/>
  <circle cx="1" cy="8" r="1" fill="white"/>
  <circle cx="2" cy="8" r="1" fill="white"/>
  <circle cx="3" cy="8" r="1" fill="white"/>
  <circle cx="4" cy="8" r="1" fill="white"/>
  <circle cx="5" cy="8" r="1" fill="srgba(98.378%,97.9065%,98.2071%,1)"/>
  <circle cx="6" cy="8" r="1" fill="srgba(73.431%,80.7965%,76.3348%,1)"/>
  <circle cx="7" cy="8" r="1" fill="srgba(14.6517%,57.4823%,25.8946%,1)"/>
  <circle cx="8" cy="8" r="1" fill="srgba(10.1289%,60.7599%,24.5228%,1)"/>
  <circle cx="9" cy="8" r="1" fill="srgba(0%,58.7106%,21.912%,1)"/>
  <circle cx="10" cy="8" r="1" fill="srgba(0%,59.1669%,22.1286%,1)"/>
  <circle cx="11" cy="8" r="1" fill="srgba(0%,59.3927%,22.2126%,1)"/>
  <circle cx="12" cy="8" r="1" fill="srgba(0%,59.6078%,22.295%,1)"/>
  <circle cx="13" cy="8" r="1" fill="srgba(0%,59.5499%,22.2721%,1)"/>
  <circle cx="14" cy="8" r="1" fill="srgba(0%,59.379%,22.2065%,1)"/>
  <circle cx="15" cy="8" r="1" fill="srgba(0%,59.3133%,22.1805%,1)"/>
  <circle cx="0" cy="9" r="1" fill="white"/>
  <circle cx="1" cy="9" r="1" fill="white"/>
  <circle cx="2" cy="9" r="1" fill="white"/>
  <circle cx="3" cy="9" r="1" fill="white"/>
  <circle cx="4" cy="9" r="1" fill="white"/>
  <circle cx="5" cy="9" r="1" fill="white"/>
  <circle cx="6" cy="9" r="1" fill="srgba(61.6541%,76.0235%,66.5797%,1)"/>
  <circle cx="7" cy="9" r="1" fill="srgba(2.6627%,55.6847%,22.652%,1)"/>
  <circle cx="8" cy="9" r="1" fill="srgba(6.41032%,59.9313%,26.659%,1)"/>
  <circle cx="9" cy="9" r="1" fill="srgba(0.251774%,60.3128%,22.7146%,1)"/>
  <circle cx="10" cy="9" r="1" fill="srgba(0%,60.7767%,22.7405%,1)"/>
  <circle cx="11" cy="9" r="1" fill="srgba(0%,60.7599%,22.7359%,1)"/>
  <circle cx="12" cy="9" r="1" fill="srgba(0%,60.7553%,22.7344%,1)"/>
  <circle cx="13" cy="9" r="1" fill="srgba(0%,60.7462%,22.7314%,1)"/>
  <circle cx="14" cy="9" r="1" fill="srgba(0%,60.7431%,22.7298%,1)"/>
  <circle cx="15" cy="9" r="1" fill="srgba(0%,60.7416%,22.7283%,1)"/>
  <circle cx="0" cy="10" r="1" fill="srgba(64.5457%,72.3323%,87.9072%,1)"/>
  <circle cx="1" cy="10" r="1" fill="srgba(64.5457%,72.3323%,87.9072%,1)"/>
  <circle cx="2" cy="10" r="1" fill="srgba(64.5457%,72.3323%,87.9072%,1)"/>
  <circle cx="3" cy="10" r="1" fill="srgba(64.5457%,72.3323%,87.9072%,1)"/>
  <circle cx="4" cy="10" r="1" fill="srgba(64.6082%,72.3156%,88.014%,1)"/>
  <circle cx="5" cy="10" r="1" fill="srgba(64.1444%,72.8725%,86.9673%,1)"/>
  <circle cx="6" cy="10" r="1" fill="srgba(31.9234%,58.9303%,52.6711%,1)"/>
  <circle cx="7" cy="10" r="1" fill="srgba(0.526436%,55.4879%,21.529%,1)"/>
  <circle cx="8" cy="10" r="1" fill="srgba(1.58999%,52.1477%,20.2548%,1)"/>
  <circle cx="9" cy="10" r="1" fill="srgba(0.108339%,59.9649%,22.501%,1)"/>
  <circle cx="10" cy="10" r="1" fill="srgba(0%,60.8072%,22.7543%,1)"/>
  <circle cx="11" cy="10" r="1" fill="srgba(0%,60.7858%,22.7451%,1)"/>
  <circle cx="12" cy="10" r="1" fill="srgba(0%,60.7858%,22.7451%,1)"/>
  <circle cx="13" cy="10" r="1" fill="srgba(0%,60.7858%,22.7451%,1)"/>
  <circle cx="14" cy="10" r="1" fill="srgba(0%,60.7874%,22.7451%,1)"/>
  <circle cx="15" cy="10" r="1" fill="srgba(0%,60.7752%,22.742%,1)"/>
  <circle cx="0" cy="11" r="1" fill="srgba(0.451667%,22.3133%,66.0365%,1)"/>
  <circle cx="1" cy="11" r="1" fill="srgba(0.451667%,22.3133%,66.0365%,1)"/>
  <circle cx="2" cy="11" r="1" fill="srgba(0.451667%,22.3133%,66.0365%,1)"/>
  <circle cx="3" cy="11" r="1" fill="srgba(0.451667%,22.3133%,66.0365%,1)"/>
  <circle cx="4" cy="11" r="1" fill="srgba(0.453193%,22.2873%,66.0807%,1)"/>
  <circle cx="5" cy="11" r="1" fill="srgba(0.427253%,22.5635%,66.0883%,1)"/>
  <circle cx="6" cy="11" r="1" fill="srgba(0.33875%,24.3107%,46.4897%,1)"/>
  <circle cx="7" cy="11" r="1" fill="srgba(0.0579843%,52.8481%,21.7823%,1)"/>
  <circle cx="8" cy="11" r="1" fill="srgba(0%,52.256%,22.2293%,1)"/>
  <circle cx="9" cy="11" r="1" fill="srgba(0%,59.9619%,22.5895%,1)"/>
  <circle cx="10" cy="11" r="1" fill="srgba(0%,60.8072%,22.7527%,1)"/>
  <circle cx="11" cy="11" r="1" fill="srgba(0,155,58,1)"/>
  <circle cx="12" cy="11" r="1" fill="srgba(0,155,58,1)"/>
  <circle cx="13" cy="11" r="1" fill="srgba(0,155,58,1)"/>
  <circle cx="14" cy="11" r="1" fill="srgba(0%,60.7858%,22.7451%,1)"/>
  <circle cx="15" cy="11" r="1" fill="srgba(0%,60.5539%,22.6581%,1)"/>
  <circle cx="0" cy="12" r="1" fill="srgba(0%,21.9257%,65.8671%,1)"/>
  <circle cx="1" cy="12" r="1" fill="srgba(0%,21.9257%,65.8671%,1)"/>
  <circle cx="2" cy="12" r="1" fill="srgba(0%,21.9257%,65.8671%,1)"/>
  <circle cx="3" cy="12" r="1" fill="srgba(0%,21.9257%,65.8671%,1)"/>
  <circle cx="4" cy="12" r="1" fill="srgba(0%,21.9272%,65.864%,1)"/>
  <circle cx="5" cy="12" r="1" fill="srgba(0%,21.7227%,66.7063%,1)"/>
  <circle cx="6" cy="12" r="1" fill="srgba(0%,22.6337%,47.9515%,1)"/>
  <circle cx="7" cy="12" r="1" fill="srgba(0%,52.3766%,22.5116%,1)"/>
  <circle cx="8" cy="12" r="1" fill="srgba(0%,53.9025%,28.4123%,1)"/>
  <circle cx="9" cy="12" r="1" fill="srgba(0%,60.0458%,22.9618%,1)"/>
  <circle cx="10" cy="12" r="1" fill="srgba(0%,60.8072%,22.7512%,1)"/>
  <circle cx="11" cy="12" r="1" fill="srgba(0,155,58,1)"/>
  <circle cx="12" cy="12" r="1" fill="srgba(0,155,58,1)"/>
  <circle cx="13" cy="12" r="1" fill="srgba(0%,60.7874%,22.7466%,1)"/>
  <circle cx="14" cy="12" r="1" fill="srgba(0%,60.7324%,22.7253%,1)"/>
  <circle cx="15" cy="12" r="1" fill="srgba(0%,60.4715%,22.6276%,1)"/>
  <circle cx="0" cy="13" r="1" fill="srgba(0,56,168,1)"/>
  <circle cx="1" cy="13" r="1" fill="srgba(0,56,168,1)"/>
  <circle cx="2" cy="13" r="1" fill="srgba(0,56,168,1)"/>
  <circle cx="3" cy="13" r="1" fill="srgba(0,56,168,1)"/>
  <circle cx="4" cy="13" r="1" fill="srgba(0,56,168,1)"/>
  <circle cx="5" cy="13" r="1" fill="srgba(0%,21.8204%,66.6407%,1)"/>
  <circle cx="6" cy="13" r="1" fill="srgba(0%,22.1256%,48.3207%,1)"/>
  <circle cx="7" cy="13" r="1" fill="srgba(0%,50.8888%,23.5981%,1)"/>
  <circle cx="8" cy="13" r="1" fill="srgba(0%,54.4778%,27.5181%,1)"/>
  <circle cx="9" cy="13" r="1" fill="srgba(0%,60.1068%,22.8717%,1)"/>
  <circle cx="10" cy="13" r="1" fill="srgba(0%,60.8072%,22.7512%,1)"/>
  <circle cx="11" cy="13" r="1" fill="srgba(0,155,58,1)"/>
  <circle cx="12" cy="13" r="1" fill="srgba(0,155,58,1)"/>
  <circle cx="13" cy="13" r="1" fill="srgba(0%,60.7935%,22.7481%,1)"/>
  <circle cx="14" cy="13" r="1" fill="srgba(0%,60.6119%,22.6795%,1)"/>
  <circle cx="15" cy="13" r="1" fill="srgba(0%,60.5966%,22.6719%,1)"/>
  <circle cx="0" cy="14" r="1" fill="srgba(0,56,168,1)"/>
  <circle cx="1" cy="14" r="1" fill="srgba(0,56,168,1)"/>
  <circle cx="2" cy="14" r="1" fill="srgba(0,56,168,1)"/>
  <circle cx="3" cy="14" r="1" fill="srgba(0,56,168,1)"/>
  <circle cx="4" cy="14" r="1" fill="srgba(0,56,168,1)"/>
  <circle cx="5" cy="14" r="1" fill="srgba(0%,21.8402%,66.5965%,1)"/>
  <circle cx="6" cy="14" r="1" fill="srgba(0%,21.7624%,48.9494%,1)"/>
  <circle cx="7" cy="14" r="1" fill="srgba(0%,49.8726%,25.1179%,1)"/>
  <circle cx="8" cy="14" r="1" fill="srgba(0%,55.0042%,26.7201%,1)"/>
  <circle cx="9" cy="14" r="1" fill="srgba(0%,60.1785%,22.7863%,1)"/>
  <circle cx="10" cy="14" r="1" fill="srgba(0%,60.8057%,22.7527%,1)"/>
  <circle cx="11" cy="14" r="1" fill="srgba(0,155,58,1)"/>
  <circle cx="12" cy="14" r="1" fill="srgba(0,155,58,1)"/>
  <circle cx="13" cy="14" r="1" fill="srgba(0%,60.7706%,22.7405%,1)"/>
  <circle cx="14" cy="14" r="1" fill="srgba(0%,60.5203%,22.6459%,1)"/>
  <circle cx="15" cy="14" r="1" fill="srgba(0%,60.7385%,22.7268%,1)"/>
  <circle cx="0" cy="15" r="1" fill="srgba(0,56,168,1)"/>
  <circle cx="1" cy="15" r="1" fill="srgba(0,56,168,1)"/>
  <circle cx="2" cy="15" r="1" fill="srgba(0,56,168,1)"/>
  <circle cx="3" cy="15" r="1" fill="srgba(0,56,168,1)"/>
  <circle cx="4" cy="15" r="1" fill="srgba(0,56,168,1)"/>
  <circle cx="5" cy="15" r="1" fill="srgba(0%,21.8555%,66.5705%,1)"/>
  <circle cx="6" cy="15" r="1" fill="srgba(0%,21.4786%,49.2607%,1)"/>
  <circle cx="7" cy="15" r="1" fill="srgba(0%,49.3019%,25.8335%,1)"/>
  <circle cx="8" cy="15" r="1" fill="srgba(0%,55.0866%,26.9871%,1)"/>
  <circle cx="9" cy="15" r="1" fill="srgba(0%,60.2152%,22.7924%,1)"/>
  <circle cx="10" cy="15" r="1" fill="srgba(0%,60.8057%,22.7527%,1)"/>
  <circle cx="11" cy="15" r="1" fill="srgba(0,155,58,1)"/>
  <circle cx="12" cy="15" r="1" fill="srgba(0%,60.7904%,22.7481%,1)"/>
  <circle cx="13" cy="15" r="1" fill="srgba(0%,60.6821%,22.707%,1)"/>
  <circle cx="14" cy="15" r="1" fill="srgba(0%,60.5554%,22.6581%,1)"/>
  <circle cx="15" cy="15" r="1" fill="srgba(0%,60.7935%,22.7481%,1)"/>
</svg>
