<?xml version="1.0" standalone="no"?>
<!DOCTYPE svg PUBLIC "-//W3C//DTD SVG 20010904//EN"
  "http://www.w3.org/TR/2001/REC-SVG-20010904/DTD/svg10.dtd">
<svg width="16" height="16">
  <circle cx="0" cy="0" r="1" fill="srgba(39.9084%,0.834668%,34.0185%,1)"/>
  <circle cx="1" cy="0" r="1" fill="srgba(39.2996%,0%,33.3486%,1)"/>
  <circle cx="2" cy="0" r="1" fill="srgba(39.9313%,0%,34.0429%,1)"/>
  <circle cx="3" cy="0" r="1" fill="srgba(39.942%,0%,34.0551%,1)"/>
  <circle cx="4" cy="0" r="1" fill="srgba(39.9985%,0%,34.1161%,1)"/>
  <circle cx="5" cy="0" r="1" fill="srgba(102,0,87,1)"/>
  <circle cx="6" cy="0" r="1" fill="srgba(102,0,87,1)"/>
  <circle cx="7" cy="0" r="1" fill="srgba(102,0,87,1)"/>
  <circle cx="8" cy="0" r="1" fill="srgba(102,0,87,1)"/>
  <circle cx="9" cy="0" r="1" fill="srgba(102,0,87,1)"/>
  <circle cx="10" cy="0" r="1" fill="srgba(102,0,87,1)"/>
  <circle cx="11" cy="0" r="1" fill="srgba(102,0,87,1)"/>
  <circle cx="12" cy="0" r="1" fill="srgba(102,0,87,1)"/>
  <circle cx="13" cy="0" r="1" fill="srgba(102,0,87,1)"/>
  <circle cx="14" cy="0" r="1" fill="srgba(102,0,87,1)"/>
  <circle cx="15" cy="0" r="1" fill="srgba(102,0,87,1)"/>
  <circle cx="0" cy="1" r="1" fill="srgba(72.2881%,53.814%,69.572%,1)"/>
  <circle cx="1" cy="1" r="1" fill="srgba(50.9239%,18.2162%,46.1128%,1)"/>
  <circle cx="2" cy="1" r="1" fill="srgba(40.2747%,0.923171%,34.4198%,1)"/>
  <circle cx="3" cy="1" r="1" fill="srgba(40.2976%,0.59968%,34.4442%,1)"/>
  <circle cx="4" cy="1" r="1" fill="srgba(39.5789%,0.0701915%,33.6538%,1)"/>
  <circle cx="5" cy="1" r="1" fill="srgba(39.5819%,0%,33.6599%,1)"/>
  <circle cx="6" cy="1" r="1" fill="srgba(40.0031%,0%,34.1207%,1)"/>
  <circle cx="7" cy="1" r="1" fill="srgba(102,0,87,1)"/>
  <circle cx="8" cy="1" r="1" fill="srgba(102,0,87,1)"/>
  <circle cx="9" cy="1" r="1" fill="srgba(102,0,87,1)"/>
  <circle cx="10" cy="1" r="1" fill="srgba(102,0,87,1)"/>
  <circle cx="11" cy="1" r="1" fill="srgba(102,0,87,1)"/>
  <circle cx="12" cy="1" r="1" fill="srgba(102,0,87,1)"/>
  <circle cx="13" cy="1" r="1" fill="srgba(102,0,87,1)"/>
  <circle cx="14" cy="1" r="1" fill="srgba(102,0,87,1)"/>
  <circle cx="15" cy="1" r="1" fill="srgba(102,0,87,1)"/>
  <circle cx="0" cy="2" r="1" fill="white"/>
  <circle cx="1" cy="2" r="1" fill="srgba(93.5729%,89.2882%,92.9427%,1)"/>
  <circle cx="2" cy="2" r="1" fill="srgba(73.7209%,56.2036%,71.1467%,1)"/>
  <circle cx="3" cy="2" r="1" fill="srgba(62.4414%,37.4029%,58.7594%,1)"/>
  <circle cx="4" cy="2" r="1" fill="srgba(58.3871%,30.6432%,54.3069%,1)"/>
  <circle cx="5" cy="2" r="1" fill="srgba(47.2343%,12.0562%,42.0615%,1)"/>
  <circle cx="6" cy="2" r="1" fill="srgba(39.9115%,0%,34.0215%,1)"/>
  <circle cx="7" cy="2" r="1" fill="srgba(39.9954%,0%,34.1115%,1)"/>
  <circle cx="8" cy="2" r="1" fill="srgba(102,0,87,1)"/>
  <circle cx="9" cy="2" r="1" fill="srgba(102,0,87,1)"/>
  <circle cx="10" cy="2" r="1" fill="srgba(102,0,87,1)"/>
  <circle cx="11" cy="2" r="1" fill="srgba(102,0,87,1)"/>
  <circle cx="12" cy="2" r="1" fill="srgba(102,0,87,1)"/>
  <circle cx="13" cy="2" r="1" fill="srgba(102,0,87,1)"/>
  <circle cx="14" cy="2" r="1" fill="srgba(102,0,87,1)"/>
  <circle cx="15" cy="2" r="1" fill="srgba(102,0,87,1)"/>
  <circle cx="0" cy="3" r="1" fill="white"/>
  <circle cx="1" cy="3" r="1" fill="white"/>
  <circle cx="2" cy="3" r="1" fill="srgba(98.5092%,97.5158%,98.3642%,1)"/>
  <circle cx="3" cy="3" r="1" fill="srgba(81.3397%,68.8991%,79.5102%,1)"/>
  <circle cx="4" cy="3" r="1" fill="srgba(59.5743%,32.6223%,55.6115%,1)"/>
  <circle cx="5" cy="3" r="1" fill="srgba(47.9896%,13.315%,42.8901%,1)"/>
  <circle cx="6" cy="3" r="1" fill="srgba(39.9939%,0%,34.11%,1)"/>
  <circle cx="7" cy="3" r="1" fill="srgba(39.9924%,0%,34.11%,1)"/>
  <circle cx="8" cy="3" r="1" fill="srgba(102,0,87,1)"/>
  <circle cx="9" cy="3" r="1" fill="srgba(102,0,87,1)"/>
  <circle cx="10" cy="3" r="1" fill="srgba(102,0,87,1)"/>
  <circle cx="11" cy="3" r="1" fill="srgba(102,0,87,1)"/>
  <circle cx="12" cy="3" r="1" fill="srgba(102,0,87,1)"/>
  <circle cx="13" cy="3" r="1" fill="srgba(102,0,87,1)"/>
  <circle cx="14" cy="3" r="1" fill="srgba(102,0,87,1)"/>
  <circle cx="15" cy="3" r="1" fill="srgba(102,0,87,1)"/>
  <circle cx="0" cy="4" r="1" fill="white"/>
  <circle cx="1" cy="4" r="1" fill="white"/>
  <circle cx="2" cy="4" r="1" fill="srgba(98.6389%,97.731%,98.5061%,1)"/>
  <circle cx="3" cy="4" r="1" fill="srgba(85.0507%,75.0851%,83.5859%,1)"/>
  <circle cx="4" cy="4" r="1" fill="srgba(65.5756%,42.6261%,62.2019%,1)"/>
  <circle cx="5" cy="4" r="1" fill="srgba(46.894%,11.4885%,41.6861%,1)"/>
  <circle cx="6" cy="4" r="1" fill="srgba(39.8871%,0%,33.994%,1)"/>
  <circle cx="7" cy="4" r="1" fill="srgba(39.9954%,0%,34.1131%,1)"/>
  <circle cx="8" cy="4" r="1" fill="srgba(102,0,87,1)"/>
  <circle cx="9" cy="4" r="1" fill="srgba(102,0,87,1)"/>
  <circle cx="10" cy="4" r="1" fill="srgba(102,0,87,1)"/>
  <circle cx="11" cy="4" r="1" fill="srgba(102,0,87,1)"/>
  <circle cx="12" cy="4" r="1" fill="srgba(102,0,87,1)"/>
  <circle cx="13" cy="4" r="1" fill="srgba(102,0,87,1)"/>
  <circle cx="14" cy="4" r="1" fill="srgba(102,0,87,1)"/>
  <circle cx="15" cy="4" r="1" fill="srgba(102,0,87,1)"/>
  <circle cx="0" cy="5" r="1" fill="white"/>
  <circle cx="1" cy="5" r="1" fill="white"/>
  <circle cx="2" cy="5" r="1" fill="srgba(98.6099%,97.6837%,98.4741%,1)"/>
  <circle cx="3" cy="5" r="1" fill="srgba(84.8676%,74.7799%,83.3845%,1)"/>
  <circle cx="4" cy="5" r="1" fill="srgba(65.5711%,42.6184%,62.1958%,1)"/>
  <circle cx="5" cy="5" r="1" fill="srgba(47.0863%,11.8105%,41.8997%,1)"/>
  <circle cx="6" cy="5" r="1" fill="srgba(39.8856%,0%,33.9925%,1)"/>
  <circle cx="7" cy="5" r="1" fill="srgba(39.9954%,0%,34.1131%,1)"/>
  <circle cx="8" cy="5" r="1" fill="srgba(102,0,87,1)"/>
  <circle cx="9" cy="5" r="1" fill="srgba(102,0,87,1)"/>
  <circle cx="10" cy="5" r="1" fill="srgba(102,0,87,1)"/>
  <circle cx="11" cy="5" r="1" fill="srgba(102,0,87,1)"/>
  <circle cx="12" cy="5" r="1" fill="srgba(102,0,87,1)"/>
  <circle cx="13" cy="5" r="1" fill="srgba(102,0,87,1)"/>
  <circle cx="14" cy="5" r="1" fill="srgba(102,0,87,1)"/>
  <circle cx="15" cy="5" r="1" fill="srgba(102,0,87,1)"/>
  <circle cx="0" cy="6" r="1" fill="white"/>
  <circle cx="1" cy="6" r="1" fill="white"/>
  <circle cx="2" cy="6" r="1" fill="srgba(98.6358%,97.7264%,98.5031%,1)"/>
  <circle cx="3" cy="6" r="1" fill="srgba(84.8631%,74.7707%,83.3783%,1)"/>
  <circle cx="4" cy="6" r="1" fill="srgba(65.2049%,42.0081%,61.7945%,1)"/>
  <circle cx="5" cy="6" r="1" fill="srgba(46.8299%,11.3832%,41.6175%,1)"/>
  <circle cx="6" cy="6" r="1" fill="srgba(39.8856%,0%,33.9925%,1)"/>
  <circle cx="7" cy="6" r="1" fill="srgba(39.9954%,0%,34.1131%,1)"/>
  <circle cx="8" cy="6" r="1" fill="srgba(102,0,87,1)"/>
  <circle cx="9" cy="6" r="1" fill="srgba(102,0,87,1)"/>
  <circle cx="10" cy="6" r="1" fill="srgba(102,0,87,1)"/>
  <circle cx="11" cy="6" r="1" fill="srgba(102,0,87,1)"/>
  <circle cx="12" cy="6" r="1" fill="srgba(102,0,87,1)"/>
  <circle cx="13" cy="6" r="1" fill="srgba(102,0,87,1)"/>
  <circle cx="14" cy="6" r="1" fill="srgba(102,0,87,1)"/>
  <circle cx="15" cy="6" r="1" fill="srgba(102,0,87,1)"/>
  <circle cx="0" cy="7" r="1" fill="white"/>
  <circle cx="1" cy="7" r="1" fill="white"/>
  <circle cx="2" cy="7" r="1" fill="srgba(98.6099%,97.6837%,98.4741%,1)"/>
  <circle cx="3" cy="7" r="1" fill="srgba(84.8676%,74.7799%,83.3845%,1)"/>
  <circle cx="4" cy="7" r="1" fill="srgba(65.5711%,42.6184%,62.1958%,1)"/>
  <circle cx="5" cy="7" r="1" fill="srgba(47.0863%,11.8105%,41.8997%,1)"/>
  <circle cx="6" cy="7" r="1" fill="srgba(39.8856%,0%,33.9925%,1)"/>
  <circle cx="7" cy="7" r="1" fill="srgba(39.9954%,0%,34.1131%,1)"/>
  <circle cx="8" cy="7" r="1" fill="srgba(102,0,87,1)"/>
  <circle cx="9" cy="7" r="1" fill="srgba(102,0,87,1)"/>
  <circle cx="10" cy="7" r="1" fill="srgba(102,0,87,1)"/>
  <circle cx="11" cy="7" r="1" fill="srgba(102,0,87,1)"/>
  <circle cx="12" cy="7" r="1" fill="srgba(102,0,87,1)"/>
  <circle cx="13" cy="7" r="1" fill="srgba(102,0,87,1)"/>
  <circle cx="14" cy="7" r="1" fill="srgba(102,0,87,1)"/>
  <circle cx="15" cy="7" r="1" fill="srgba(102,0,87,1)"/>
  <circle cx="0" cy="8" r="1" fill="white"/>
  <circle cx="1" cy="8" r="1" fill="white"/>
  <circle cx="2" cy="8" r="1" fill="srgba(98.6358%,97.7264%,98.5031%,1)"/>
  <circle cx="3" cy="8" r="1" fill="srgba(84.8631%,74.7707%,83.3783%,1)"/>
  <circle cx="4" cy="8" r="1" fill="srgba(65.2049%,42.0081%,61.7945%,1)"/>
  <circle cx="5" cy="8" r="1" fill="srgba(46.8299%,11.3832%,41.6175%,1)"/>
  <circle cx="6" cy="8" r="1" fill="srgba(39.8856%,0%,33.9925%,1)"/>
  <circle cx="7" cy="8" r="1" fill="srgba(39.9954%,0%,34.1131%,1)"/>
  <circle cx="8" cy="8" r="1" fill="srgba(102,0,87,1)"/>
  <circle cx="9" cy="8" r="1" fill="srgba(102,0,87,1)"/>
  <circle cx="10" cy="8" r="1" fill="srgba(102,0,87,1)"/>
  <circle cx="11" cy="8" r="1" fill="srgba(102,0,87,1)"/>
  <circle cx="12" cy="8" r="1" fill="srgba(102,0,87,1)"/>
  <circle cx="13" cy="8" r="1" fill="srgba(102,0,87,1)"/>
  <circle cx="14" cy="8" r="1" fill="srgba(102,0,87,1)"/>
  <circle cx="15" cy="8" r="1" fill="srgba(102,0,87,1)"/>
  <circle cx="0" cy="9" r="1" fill="white"/>
  <circle cx="1" cy="9" r="1" fill="white"/>
  <circle cx="2" cy="9" r="1" fill="srgba(98.6099%,97.6837%,98.4741%,1)"/>
  <circle cx="3" cy="9" r="1" fill="srgba(84.8676%,74.7799%,83.3845%,1)"/>
  <circle cx="4" cy="9" r="1" fill="srgba(65.5711%,42.6184%,62.1958%,1)"/>
  <circle cx="5" cy="9" r="1" fill="srgba(47.0863%,11.8105%,41.8997%,1)"/>
  <circle cx="6" cy="9" r="1" fill="srgba(39.8856%,0%,33.9925%,1)"/>
  <circle cx="7" cy="9" r="1" fill="srgba(39.9954%,0%,34.1131%,1)"/>
  <circle cx="8" cy="9" r="1" fill="srgba(102,0,87,1)"/>
  <circle cx="9" cy="9" r="1" fill="srgba(102,0,87,1)"/>
  <circle cx="10" cy="9" r="1" fill="srgba(102,0,87,1)"/>
  <circle cx="11" cy="9" r="1" fill="srgba(102,0,87,1)"/>
  <circle cx="12" cy="9" r="1" fill="srgba(102,0,87,1)"/>
  <circle cx="13" cy="9" r="1" fill="srgba(102,0,87,1)"/>
  <circle cx="14" cy="9" r="1" fill="srgba(102,0,87,1)"/>
  <circle cx="15" cy="9" r="1" fill="srgba(102,0,87,1)"/>
  <circle cx="0" cy="10" r="1" fill="white"/>
  <circle cx="1" cy="10" r="1" fill="white"/>
  <circle cx="2" cy="10" r="1" fill="srgba(98.6358%,97.7264%,98.5031%,1)"/>
  <circle cx="3" cy="10" r="1" fill="srgba(84.8631%,74.7707%,83.3783%,1)"/>
  <circle cx="4" cy="10" r="1" fill="srgba(65.2049%,42.0081%,61.7945%,1)"/>
  <circle cx="5" cy="10" r="1" fill="srgba(46.8299%,11.3832%,41.6175%,1)"/>
  <circle cx="6" cy="10" r="1" fill="srgba(39.8856%,0%,33.9925%,1)"/>
  <circle cx="7" cy="10" r="1" fill="srgba(39.9954%,0%,34.1131%,1)"/>
  <circle cx="8" cy="10" r="1" fill="srgba(102,0,87,1)"/>
  <circle cx="9" cy="10" r="1" fill="srgba(102,0,87,1)"/>
  <circle cx="10" cy="10" r="1" fill="srgba(102,0,87,1)"/>
  <circle cx="11" cy="10" r="1" fill="srgba(102,0,87,1)"/>
  <circle cx="12" cy="10" r="1" fill="srgba(102,0,87,1)"/>
  <circle cx="13" cy="10" r="1" fill="srgba(102,0,87,1)"/>
  <circle cx="14" cy="10" r="1" fill="srgba(102,0,87,1)"/>
  <circle cx="15" cy="10" r="1" fill="srgba(102,0,87,1)"/>
  <circle cx="0" cy="11" r="1" fill="white"/>
  <circle cx="1" cy="11" r="1" fill="white"/>
  <circle cx="2" cy="11" r="1" fill="srgba(98.6099%,97.6837%,98.4741%,1)"/>
  <circle cx="3" cy="11" r="1" fill="srgba(84.8676%,74.7799%,83.3845%,1)"/>
  <circle cx="4" cy="11" r="1" fill="srgba(65.5711%,42.6184%,62.1958%,1)"/>
  <circle cx="5" cy="11" r="1" fill="srgba(47.0863%,11.8105%,41.8997%,1)"/>
  <circle cx="6" cy="11" r="1" fill="srgba(39.8856%,0%,33.9925%,1)"/>
  <circle cx="7" cy="11" r="1" fill="srgba(39.9954%,0%,34.1131%,1)"/>
  <circle cx="8" cy="11" r="1" fill="srgba(102,0,87,1)"/>
  <circle cx="9" cy="11" r="1" fill="srgba(102,0,87,1)"/>
  <circle cx="10" cy="11" r="1" fill="srgba(102,0,87,1)"/>
  <circle cx="11" cy="11" r="1" fill="srgba(102,0,87,1)"/>
  <circle cx="12" cy="11" r="1" fill="srgba(102,0,87,1)"/>
  <circle cx="13" cy="11" r="1" fill="srgba(102,0,87,1)"/>
  <circle cx="14" cy="11" r="1" fill="srgba(102,0,87,1)"/>
  <circle cx="15" cy="11" r="1" fill="srgba(102,0,87,1)"/>
  <circle cx="0" cy="12" r="1" fill="white"/>
  <circle cx="1" cy="12" r="1" fill="white"/>
  <circle cx="2" cy="12" r="1" fill="srgba(98.6358%,97.7264%,98.5031%,1)"/>
  <circle cx="3" cy="12" r="1" fill="srgba(84.8631%,74.7707%,83.3783%,1)"/>
  <circle cx="4" cy="12" r="1" fill="srgba(65.2049%,42.0081%,61.7945%,1)"/>
  <circle cx="5" cy="12" r="1" fill="srgba(46.8299%,11.3832%,41.6175%,1)"/>
  <circle cx="6" cy="12" r="1" fill="srgba(39.8856%,0%,33.9925%,1)"/>
  <circle cx="7" cy="12" r="1" fill="srgba(39.9954%,0%,34.1131%,1)"/>
  <circle cx="8" cy="12" r="1" fill="srgba(102,0,87,1)"/>
  <circle cx="9" cy="12" r="1" fill="srgba(102,0,87,1)"/>
  <circle cx="10" cy="12" r="1" fill="srgba(102,0,87,1)"/>
  <circle cx="11" cy="12" r="1" fill="srgba(102,0,87,1)"/>
  <circle cx="12" cy="12" r="1" fill="srgba(102,0,87,1)"/>
  <circle cx="13" cy="12" r="1" fill="srgba(102,0,87,1)"/>
  <circle cx="14" cy="12" r="1" fill="srgba(102,0,87,1)"/>
  <circle cx="15" cy="12" r="1" fill="srgba(102,0,87,1)"/>
  <circle cx="0" cy="13" r="1" fill="white"/>
  <circle cx="1" cy="13" r="1" fill="white"/>
  <circle cx="2" cy="13" r="1" fill="srgba(98.6099%,97.6837%,98.4741%,1)"/>
  <circle cx="3" cy="13" r="1" fill="srgba(84.8676%,74.7799%,83.3845%,1)"/>
  <circle cx="4" cy="13" r="1" fill="srgba(65.5711%,42.6184%,62.1958%,1)"/>
  <circle cx="5" cy="13" r="1" fill="srgba(47.0863%,11.8105%,41.8997%,1)"/>
  <circle cx="6" cy="13" r="1" fill="srgba(39.8856%,0%,33.9925%,1)"/>
  <circle cx="7" cy="13" r="1" fill="srgba(39.9954%,0%,34.1131%,1)"/>
  <circle cx="8" cy="13" r="1" fill="srgba(102,0,87,1)"/>
  <circle cx="9" cy="13" r="1" fill="srgba(102,0,87,1)"/>
  <circle cx="10" cy="13" r="1" fill="srgba(102,0,87,1)"/>
  <circle cx="11" cy="13" r="1" fill="srgba(102,0,87,1)"/>
  <circle cx="12" cy="13" r="1" fill="srgba(102,0,87,1)"/>
  <circle cx="13" cy="13" r="1" fill="srgba(102,0,87,1)"/>
  <circle cx="14" cy="13" r="1" fill="srgba(102,0,87,1)"/>
  <circle cx="15" cy="13" r="1" fill="srgba(102,0,87,1)"/>
  <circle cx="0" cy="14" r="1" fill="white"/>
  <circle cx="1" cy="14" r="1" fill="white"/>
  <circle cx="2" cy="14" r="1" fill="srgba(98.6023%,97.6699%,98.4649%,1)"/>
  <circle cx="3" cy="14" r="1" fill="srgba(84.6357%,74.3908%,83.1281%,1)"/>
  <circle cx="4" cy="14" r="1" fill="srgba(65.008%,41.6785%,61.5778%,1)"/>
  <circle cx="5" cy="14" r="1" fill="srgba(46.7781%,11.2947%,41.5595%,1)"/>
  <circle cx="6" cy="14" r="1" fill="srgba(39.8871%,0%,33.994%,1)"/>
  <circle cx="7" cy="14" r="1" fill="srgba(39.9954%,0%,34.1131%,1)"/>
  <circle cx="8" cy="14" r="1" fill="srgba(102,0,87,1)"/>
  <circle cx="9" cy="14" r="1" fill="srgba(102,0,87,1)"/>
  <circle cx="10" cy="14" r="1" fill="srgba(102,0,87,1)"/>
  <circle cx="11" cy="14" r="1" fill="srgba(102,0,87,1)"/>
  <circle cx="12" cy="14" r="1" fill="srgba(102,0,87,1)"/>
  <circle cx="13" cy="14" r="1" fill="srgba(102,0,87,1)"/>
  <circle cx="14" cy="14" r="1" fill="srgba(102,0,87,1)"/>
  <circle cx="15" cy="14" r="1" fill="srgba(102,0,87,1)"/>
  <circle cx="0" cy="15" r="1" fill="srgba(99.8474%,99.7406%,99.8322%,1)"/>
  <circle cx="1" cy="15" r="1" fill="srgba(99.8581%,99.765%,99.8444%,1)"/>
  <circle cx="2" cy="15" r="1" fill="srgba(99.0112%,98.3551%,98.9136%,1)"/>
  <circle cx="3" cy="15" r="1" fill="srgba(89.0043%,81.6754%,87.9271%,1)"/>
  <circle cx="4" cy="15" r="1" fill="srgba(70.0618%,50.1045%,67.1275%,1)"/>
  <circle cx="5" cy="15" r="1" fill="srgba(48.5588%,14.2657%,43.5157%,1)"/>
  <circle cx="6" cy="15" r="1" fill="srgba(39.8642%,0%,33.9696%,1)"/>
  <circle cx="7" cy="15" r="1" fill="srgba(39.9939%,0%,34.1115%,1)"/>
  <circle cx="8" cy="15" r="1" fill="srgba(102,0,87,1)"/>
  <circle cx="9" cy="15" r="1" fill="srgba(102,0,87,1)"/>
  <circle cx="10" cy="15" r="1" fill="srgba(102,0,87,1)"/>
  <circle cx="11" cy="15" r="1" fill="srgba(102,0,87,1)"/>
  <circle cx="12" cy="15" r="1" fill="srgba(102,0,87,1)"/>
  <circle cx="13" cy="15" r="1" fill="srgba(102,0,87,1)"/>
  <circle cx="14" cy="15" r="1" fill="srgba(102,0,87,1)"/>
  <circle cx="15" cy="15" r="1" fill="srgba(102,0,87,1)"/>
</svg>
