<?xml version="1.0" standalone="no"?>
<!DOCTYPE svg PUBLIC "-//W3C//DTD SVG 20010904//EN"
  "http://www.w3.org/TR/2001/REC-SVG-20010904/DTD/svg10.dtd">
<svg width="16" height="16">
  <circle cx="0" cy="0" r="1" fill="srgba(29.4438%,15.6222%,14.7646%,1)"/>
  <circle cx="1" cy="0" r="1" fill="srgba(12.3323%,13.6553%,11.6533%,1)"/>
  <circle cx="2" cy="0" r="1" fill="srgba(33,35,30,1)"/>
  <circle cx="3" cy="0" r="1" fill="srgba(33,35,30,1)"/>
  <circle cx="4" cy="0" r="1" fill="srgba(33,35,30,1)"/>
  <circle cx="5" cy="0" r="1" fill="srgba(33,35,30,1)"/>
  <circle cx="6" cy="0" r="1" fill="srgba(33,35,30,1)"/>
  <circle cx="7" cy="0" r="1" fill="srgba(33,35,30,1)"/>
  <circle cx="8" cy="0" r="1" fill="srgba(33,35,30,1)"/>
  <circle cx="9" cy="0" r="1" fill="srgba(12.575%,13.6828%,11.6976%,1)"/>
  <circle cx="10" cy="0" r="1" fill="srgba(18.6526%,14.3816%,12.8038%,1)"/>
  <circle cx="11" cy="0" r="1" fill="srgba(68.2734%,20.087%,21.8265%,1)"/>
  <circle cx="12" cy="0" r="1" fill="srgba(79.5102%,21.3687%,23.8712%,1)"/>
  <circle cx="13" cy="0" r="1" fill="srgba(78.8281%,21.2757%,23.7507%,1)"/>
  <circle cx="14" cy="0" r="1" fill="srgba(78.3459%,21.2024%,23.6652%,1)"/>
  <circle cx="15" cy="0" r="1" fill="srgba(77.6303%,21.1002%,23.5386%,1)"/>
  <circle cx="0" cy="1" r="1" fill="srgba(31.3115%,15.8679%,15.0988%,1)"/>
  <circle cx="1" cy="1" r="1" fill="srgba(12.3339%,13.6507%,11.6548%,1)"/>
  <circle cx="2" cy="1" r="1" fill="srgba(33,35,30,1)"/>
  <circle cx="3" cy="1" r="1" fill="srgba(33,35,30,1)"/>
  <circle cx="4" cy="1" r="1" fill="srgba(33,35,30,1)"/>
  <circle cx="5" cy="1" r="1" fill="srgba(33,35,30,1)"/>
  <circle cx="6" cy="1" r="1" fill="srgba(33,35,30,1)"/>
  <circle cx="7" cy="1" r="1" fill="srgba(33,35,30,1)"/>
  <circle cx="8" cy="1" r="1" fill="srgba(33,35,30,1)"/>
  <circle cx="9" cy="1" r="1" fill="srgba(12.6864%,13.695%,11.7189%,1)"/>
  <circle cx="10" cy="1" r="1" fill="srgba(16.9009%,14.1833%,12.4849%,1)"/>
  <circle cx="11" cy="1" r="1" fill="srgba(51.1986%,18.3291%,18.6877%,1)"/>
  <circle cx="12" cy="1" r="1" fill="srgba(59.266%,19.5285%,20.1083%,1)"/>
  <circle cx="13" cy="1" r="1" fill="srgba(58.938%,19.765%,20.0031%,1)"/>
  <circle cx="14" cy="1" r="1" fill="srgba(66.4897%,20.8667%,21.3382%,1)"/>
  <circle cx="15" cy="1" r="1" fill="srgba(77.8592%,22.2644%,23.3906%,1)"/>
  <circle cx="0" cy="2" r="1" fill="srgba(32.7031%,22.742%,14.2199%,1)"/>
  <circle cx="1" cy="2" r="1" fill="srgba(12.7123%,13.6797%,11.7205%,1)"/>
  <circle cx="2" cy="2" r="1" fill="srgba(33,35,30,1)"/>
  <circle cx="3" cy="2" r="1" fill="srgba(33,35,30,1)"/>
  <circle cx="4" cy="2" r="1" fill="srgba(33,35,30,1)"/>
  <circle cx="5" cy="2" r="1" fill="srgba(33,35,30,1)"/>
  <circle cx="6" cy="2" r="1" fill="srgba(33,35,30,1)"/>
  <circle cx="7" cy="2" r="1" fill="srgba(33,35,30,1)"/>
  <circle cx="8" cy="2" r="1" fill="srgba(33,35,30,1)"/>
  <circle cx="9" cy="2" r="1" fill="srgba(12.6223%,13.4951%,11.7388%,1)"/>
  <circle cx="10" cy="2" r="1" fill="srgba(18.4619%,17.705%,12.2103%,1)"/>
  <circle cx="11" cy="2" r="1" fill="srgba(32.9793%,27.866%,13.431%,1)"/>
  <circle cx="12" cy="2" r="1" fill="srgba(34.9218%,29.2134%,13.5958%,1)"/>
  <circle cx="13" cy="2" r="1" fill="srgba(36.2539%,30.3807%,13.6706%,1)"/>
  <circle cx="14" cy="2" r="1" fill="srgba(48.7236%,34.8531%,15.4376%,1)"/>
  <circle cx="15" cy="2" r="1" fill="srgba(73.1472%,46.4652%,18.4085%,1)"/>
  <circle cx="0" cy="3" r="1" fill="srgba(22.0508%,20.7767%,12.6574%,1)"/>
  <circle cx="1" cy="3" r="1" fill="srgba(15.0149%,15.2911%,12.0256%,1)"/>
  <circle cx="2" cy="3" r="1" fill="srgba(12.8405%,13.6461%,11.7418%,1)"/>
  <circle cx="3" cy="3" r="1" fill="srgba(12.932%,13.7163%,11.7556%,1)"/>
  <circle cx="4" cy="3" r="1" fill="srgba(33,35,30,1)"/>
  <circle cx="5" cy="3" r="1" fill="srgba(33,35,30,1)"/>
  <circle cx="6" cy="3" r="1" fill="srgba(33,35,30,1)"/>
  <circle cx="7" cy="3" r="1" fill="srgba(12.9397%,13.724%,11.7632%,1)"/>
  <circle cx="8" cy="3" r="1" fill="srgba(12.9122%,13.698%,11.7357%,1)"/>
  <circle cx="9" cy="3" r="1" fill="srgba(12.4956%,13.3867%,11.693%,1)"/>
  <circle cx="10" cy="3" r="1" fill="srgba(21.7777%,20.2228%,12.4239%,1)"/>
  <circle cx="11" cy="3" r="1" fill="srgba(41.3077%,34.6136%,13.9483%,1)"/>
  <circle cx="12" cy="3" r="1" fill="srgba(40.3738%,33.9345%,13.8735%,1)"/>
  <circle cx="13" cy="3" r="1" fill="srgba(38.6908%,32.6848%,13.7453%,1)"/>
  <circle cx="14" cy="3" r="1" fill="srgba(48.8884%,40.4364%,14.5068%,1)"/>
  <circle cx="15" cy="3" r="1" fill="srgba(68.7755%,55.4177%,16.0052%,1)"/>
  <circle cx="0" cy="4" r="1" fill="srgba(20.0351%,19.0265%,12.4956%,1)"/>
  <circle cx="1" cy="4" r="1" fill="srgba(15.8236%,15.8801%,12.0546%,1)"/>
  <circle cx="2" cy="4" r="1" fill="srgba(13.1472%,13.9559%,12.0745%,1)"/>
  <circle cx="3" cy="4" r="1" fill="srgba(12.8359%,13.6263%,11.6808%,1)"/>
  <circle cx="4" cy="4" r="1" fill="srgba(12.7001%,13.5042%,11.5846%,1)"/>
  <circle cx="5" cy="4" r="1" fill="srgba(12.9549%,13.7377%,11.7754%,1)"/>
  <circle cx="6" cy="4" r="1" fill="srgba(12.874%,13.669%,11.7342%,1)"/>
  <circle cx="7" cy="4" r="1" fill="srgba(12.4971%,13.3043%,11.3863%,1)"/>
  <circle cx="8" cy="4" r="1" fill="srgba(13.6812%,14.4579%,12.5124%,1)"/>
  <circle cx="9" cy="4" r="1" fill="srgba(14.0261%,14.8241%,12.9503%,1)"/>
  <circle cx="10" cy="4" r="1" fill="srgba(15.8984%,16.2081%,13.1258%,1)"/>
  <circle cx="11" cy="4" r="1" fill="srgba(22.1164%,20.795%,13.6599%,1)"/>
  <circle cx="12" cy="4" r="1" fill="srgba(22.6963%,21.2299%,13.7392%,1)"/>
  <circle cx="13" cy="4" r="1" fill="srgba(22.501%,21.0895%,13.7331%,1)"/>
  <circle cx="14" cy="4" r="1" fill="srgba(22.3819%,20.9644%,13.5836%,1)"/>
  <circle cx="15" cy="4" r="1" fill="srgba(22.3606%,20.8942%,13.3791%,1)"/>
  <circle cx="0" cy="5" r="1" fill="srgba(12.5765%,13.4524%,11.725%,1)"/>
  <circle cx="1" cy="5" r="1" fill="srgba(12.0577%,12.8847%,11.0002%,1)"/>
  <circle cx="2" cy="5" r="1" fill="srgba(27.6326%,28.2856%,26.6773%,1)"/>
  <circle cx="3" cy="5" r="1" fill="srgba(43.9048%,44.2542%,42.5727%,1)"/>
  <circle cx="4" cy="5" r="1" fill="srgba(18.8357%,19.1363%,16.1547%,1)"/>
  <circle cx="5" cy="5" r="1" fill="srgba(12.5444%,13.3562%,11.4534%,1)"/>
  <circle cx="6" cy="5" r="1" fill="srgba(14.1253%,14.6487%,12.05%,1)"/>
  <circle cx="7" cy="5" r="1" fill="srgba(34.9523%,35.0683%,32.34%,1)"/>
  <circle cx="8" cy="5" r="1" fill="srgba(55.4696%,55.8907%,54.9432%,1)"/>
  <circle cx="9" cy="5" r="1" fill="srgba(57.1221%,57.499%,56.5377%,1)"/>
  <circle cx="10" cy="5" r="1" fill="srgba(56.1151%,56.5255%,55.6085%,1)"/>
  <circle cx="11" cy="5" r="1" fill="srgba(54.9935%,55.5123%,54.8318%,1)"/>
  <circle cx="12" cy="5" r="1" fill="srgba(54.4747%,55.0179%,54.3526%,1)"/>
  <circle cx="13" cy="5" r="1" fill="srgba(54.3297%,54.8745%,54.2%,1)"/>
  <circle cx="14" cy="5" r="1" fill="srgba(56.7346%,57.2519%,56.6201%,1)"/>
  <circle cx="15" cy="5" r="1" fill="srgba(60.1389%,60.6271%,60.0809%,1)"/>
  <circle cx="0" cy="6" r="1" fill="srgba(33,35,30,1)"/>
  <circle cx="1" cy="6" r="1" fill="srgba(12.7382%,13.5256%,11.5602%,1)"/>
  <circle cx="2" cy="6" r="1" fill="srgba(16.9284%,17.6791%,15.819%,1)"/>
  <circle cx="3" cy="6" r="1" fill="srgba(23.5248%,24.1382%,22.2232%,1)"/>
  <circle cx="4" cy="6" r="1" fill="srgba(15.2117%,16.022%,13.5729%,1)"/>
  <circle cx="5" cy="6" r="1" fill="srgba(11.6579%,12.7291%,10.7576%,1)"/>
  <circle cx="6" cy="6" r="1" fill="srgba(12.7886%,13.7697%,11.4656%,1)"/>
  <circle cx="7" cy="6" r="1" fill="srgba(21.5473%,22.0706%,19.6811%,1)"/>
  <circle cx="8" cy="6" r="1" fill="srgba(24.9897%,25.6718%,24.007%,1)"/>
  <circle cx="9" cy="6" r="1" fill="srgba(24.1505%,24.831%,23.1235%,1)"/>
  <circle cx="10" cy="6" r="1" fill="srgba(23.3524%,24.0391%,22.3133%,1)"/>
  <circle cx="11" cy="6" r="1" fill="srgba(22.5254%,23.2197%,21.4755%,1)"/>
  <circle cx="12" cy="6" r="1" fill="srgba(21.8997%,22.6032%,20.8438%,1)"/>
  <circle cx="13" cy="6" r="1" fill="srgba(21.738%,22.4445%,20.679%,1)"/>
  <circle cx="14" cy="6" r="1" fill="srgba(23.9857%,24.6708%,22.9557%,1)"/>
  <circle cx="15" cy="6" r="1" fill="srgba(27.2236%,27.8782%,26.2364%,1)"/>
  <circle cx="0" cy="7" r="1" fill="srgba(33,35,30,1)"/>
  <circle cx="1" cy="7" r="1" fill="srgba(12.9519%,13.7362%,11.7769%,1)"/>
  <circle cx="2" cy="7" r="1" fill="srgba(12.7184%,13.5042%,11.5389%,1)"/>
  <circle cx="3" cy="7" r="1" fill="srgba(11.8715%,12.9061%,10.9224%,1)"/>
  <circle cx="4" cy="7" r="1" fill="srgba(27.1427%,17.8103%,16.7025%,1)"/>
  <circle cx="5" cy="7" r="1" fill="srgba(47.7424%,36.1715%,35.5886%,1)"/>
  <circle cx="6" cy="7" r="1" fill="srgba(38.0316%,24.8722%,24.181%,1)"/>
  <circle cx="7" cy="7" r="1" fill="srgba(14.1833%,13.2464%,11.4397%,1)"/>
  <circle cx="8" cy="7" r="1" fill="srgba(12.1492%,13.0419%,11.0552%,1)"/>
  <circle cx="9" cy="7" r="1" fill="srgba(12.3217%,13.1121%,11.1376%,1)"/>
  <circle cx="10" cy="7" r="1" fill="srgba(12.372%,13.1624%,11.1894%,1)"/>
  <circle cx="11" cy="7" r="1" fill="srgba(12.4254%,13.2143%,11.2413%,1)"/>
  <circle cx="12" cy="7" r="1" fill="srgba(12.4636%,13.2525%,11.281%,1)"/>
  <circle cx="13" cy="7" r="1" fill="srgba(12.4743%,13.2631%,11.2917%,1)"/>
  <circle cx="14" cy="7" r="1" fill="srgba(12.3278%,13.1182%,11.1437%,1)"/>
  <circle cx="15" cy="7" r="1" fill="srgba(12.1172%,12.9091%,10.93%,1)"/>
  <circle cx="0" cy="8" r="1" fill="srgba(33,35,30,1)"/>
  <circle cx="1" cy="8" r="1" fill="srgba(33,35,30,1)"/>
  <circle cx="2" cy="8" r="1" fill="srgba(33,35,30,1)"/>
  <circle cx="3" cy="8" r="1" fill="srgba(11.9295%,13.0037%,11.0063%,1)"/>
  <circle cx="4" cy="8" r="1" fill="srgba(45.4994%,32.5521%,31.9951%,1)"/>
  <circle cx="5" cy="8" r="1" fill="srgba(90.3532%,74.3877%,74.963%,1)"/>
  <circle cx="6" cy="8" r="1" fill="srgba(70.3761%,52.369%,52.6207%,1)"/>
  <circle cx="7" cy="8" r="1" fill="srgba(17.0703%,15.3658%,13.6233%,1)"/>
  <circle cx="8" cy="8" r="1" fill="srgba(12.6726%,13.6065%,11.632%,1)"/>
  <circle cx="9" cy="8" r="1" fill="srgba(33,35,30,1)"/>
  <circle cx="10" cy="8" r="1" fill="srgba(33,35,30,1)"/>
  <circle cx="11" cy="8" r="1" fill="srgba(33,35,30,1)"/>
  <circle cx="12" cy="8" r="1" fill="srgba(33,35,30,1)"/>
  <circle cx="13" cy="8" r="1" fill="srgba(33,35,30,1)"/>
  <circle cx="14" cy="8" r="1" fill="srgba(33,35,30,1)"/>
  <circle cx="15" cy="8" r="1" fill="srgba(33,35,30,1)"/>
  <circle cx="0" cy="9" r="1" fill="srgba(33,35,30,1)"/>
  <circle cx="1" cy="9" r="1" fill="srgba(33,35,30,1)"/>
  <circle cx="2" cy="9" r="1" fill="srgba(33,35,30,1)"/>
  <circle cx="3" cy="9" r="1" fill="srgba(12.4376%,13.3181%,11.3405%,1)"/>
  <circle cx="4" cy="9" r="1" fill="srgba(29.1829%,25.0904%,23.7278%,1)"/>
  <circle cx="5" cy="9" r="1" fill="srgba(51.8898%,46.1418%,45.3635%,1)"/>
  <circle cx="6" cy="9" r="1" fill="srgba(43.566%,36.4965%,35.6023%,1)"/>
  <circle cx="7" cy="9" r="1" fill="srgba(15.3353%,14.9783%,13.1273%,1)"/>
  <circle cx="8" cy="9" r="1" fill="srgba(12.7886%,13.6431%,11.6762%,1)"/>
  <circle cx="9" cy="9" r="1" fill="srgba(33,35,30,1)"/>
  <circle cx="10" cy="9" r="1" fill="srgba(33,35,30,1)"/>
  <circle cx="11" cy="9" r="1" fill="srgba(33,35,30,1)"/>
  <circle cx="12" cy="9" r="1" fill="srgba(33,35,30,1)"/>
  <circle cx="13" cy="9" r="1" fill="srgba(33,35,30,1)"/>
  <circle cx="14" cy="9" r="1" fill="srgba(33,35,30,1)"/>
  <circle cx="15" cy="9" r="1" fill="srgba(33,35,30,1)"/>
  <circle cx="0" cy="10" r="1" fill="srgba(33,35,30,1)"/>
  <circle cx="1" cy="10" r="1" fill="srgba(33,35,30,1)"/>
  <circle cx="2" cy="10" r="1" fill="srgba(33,35,30,1)"/>
  <circle cx="3" cy="10" r="1" fill="srgba(12.958%,13.7392%,11.78%,1)"/>
  <circle cx="4" cy="10" r="1" fill="srgba(12.4041%,13.2357%,11.2612%,1)"/>
  <circle cx="5" cy="10" r="1" fill="srgba(11.8685%,12.723%,10.7362%,1)"/>
  <circle cx="6" cy="10" r="1" fill="srgba(14.2%,14.5861%,12.6741%,1)"/>
  <circle cx="7" cy="10" r="1" fill="srgba(13.0816%,13.7682%,11.8151%,1)"/>
  <circle cx="8" cy="10" r="1" fill="srgba(12.9397%,13.7285%,11.7678%,1)"/>
  <circle cx="9" cy="10" r="1" fill="srgba(33,35,30,1)"/>
  <circle cx="10" cy="10" r="1" fill="srgba(33,35,30,1)"/>
  <circle cx="11" cy="10" r="1" fill="srgba(33,35,30,1)"/>
  <circle cx="12" cy="10" r="1" fill="srgba(33,35,30,1)"/>
  <circle cx="13" cy="10" r="1" fill="srgba(33,35,30,1)"/>
  <circle cx="14" cy="10" r="1" fill="srgba(33,35,30,1)"/>
  <circle cx="15" cy="10" r="1" fill="srgba(33,35,30,1)"/>
  <circle cx="0" cy="11" r="1" fill="srgba(33,35,30,1)"/>
  <circle cx="1" cy="11" r="1" fill="srgba(33,35,30,1)"/>
  <circle cx="2" cy="11" r="1" fill="srgba(33,35,30,1)"/>
  <circle cx="3" cy="11" r="1" fill="srgba(33,35,30,1)"/>
  <circle cx="4" cy="11" r="1" fill="srgba(33,35,30,1)"/>
  <circle cx="5" cy="11" r="1" fill="srgba(13.0678%,13.8491%,11.8914%,1)"/>
  <circle cx="6" cy="11" r="1" fill="srgba(14.8409%,15.6207%,13.6965%,1)"/>
  <circle cx="7" cy="11" r="1" fill="srgba(13.051%,13.8384%,11.8807%,1)"/>
  <circle cx="8" cy="11" r="1" fill="srgba(33,35,30,1)"/>
  <circle cx="9" cy="11" r="1" fill="srgba(33,35,30,1)"/>
  <circle cx="10" cy="11" r="1" fill="srgba(33,35,30,1)"/>
  <circle cx="11" cy="11" r="1" fill="srgba(33,35,30,1)"/>
  <circle cx="12" cy="11" r="1" fill="srgba(33,35,30,1)"/>
  <circle cx="13" cy="11" r="1" fill="srgba(33,35,30,1)"/>
  <circle cx="14" cy="11" r="1" fill="srgba(33,35,30,1)"/>
  <circle cx="15" cy="11" r="1" fill="srgba(33,35,30,1)"/>
  <circle cx="0" cy="12" r="1" fill="srgba(33,35,30,1)"/>
  <circle cx="1" cy="12" r="1" fill="srgba(33,35,30,1)"/>
  <circle cx="2" cy="12" r="1" fill="srgba(33,35,30,1)"/>
  <circle cx="3" cy="12" r="1" fill="srgba(33,35,30,1)"/>
  <circle cx="4" cy="12" r="1" fill="srgba(33,35,30,1)"/>
  <circle cx="5" cy="12" r="1" fill="srgba(13.0266%,13.8109%,11.8517%,1)"/>
  <circle cx="6" cy="12" r="1" fill="srgba(14.2992%,15.0729%,13.1365%,1)"/>
  <circle cx="7" cy="12" r="1" fill="srgba(13.0266%,13.8094%,11.8502%,1)"/>
  <circle cx="8" cy="12" r="1" fill="srgba(33,35,30,1)"/>
  <circle cx="9" cy="12" r="1" fill="srgba(33,35,30,1)"/>
  <circle cx="10" cy="12" r="1" fill="srgba(33,35,30,1)"/>
  <circle cx="11" cy="12" r="1" fill="srgba(33,35,30,1)"/>
  <circle cx="12" cy="12" r="1" fill="srgba(33,35,30,1)"/>
  <circle cx="13" cy="12" r="1" fill="srgba(33,35,30,1)"/>
  <circle cx="14" cy="12" r="1" fill="srgba(33,35,30,1)"/>
  <circle cx="15" cy="12" r="1" fill="srgba(33,35,30,1)"/>
  <circle cx="0" cy="13" r="1" fill="srgba(33,35,30,1)"/>
  <circle cx="1" cy="13" r="1" fill="srgba(33,35,30,1)"/>
  <circle cx="2" cy="13" r="1" fill="srgba(33,35,30,1)"/>
  <circle cx="3" cy="13" r="1" fill="srgba(33,35,30,1)"/>
  <circle cx="4" cy="13" r="1" fill="srgba(33,35,30,1)"/>
  <circle cx="5" cy="13" r="1" fill="srgba(13.0083%,13.7911%,11.8318%,1)"/>
  <circle cx="6" cy="13" r="1" fill="srgba(14.0246%,14.7967%,12.8588%,1)"/>
  <circle cx="7" cy="13" r="1" fill="srgba(13.0098%,13.7942%,11.8349%,1)"/>
  <circle cx="8" cy="13" r="1" fill="srgba(33,35,30,1)"/>
  <circle cx="9" cy="13" r="1" fill="srgba(33,35,30,1)"/>
  <circle cx="10" cy="13" r="1" fill="srgba(33,35,30,1)"/>
  <circle cx="11" cy="13" r="1" fill="srgba(33,35,30,1)"/>
  <circle cx="12" cy="13" r="1" fill="srgba(33,35,30,1)"/>
  <circle cx="13" cy="13" r="1" fill="srgba(33,35,30,1)"/>
  <circle cx="14" cy="13" r="1" fill="srgba(33,35,30,1)"/>
  <circle cx="15" cy="13" r="1" fill="srgba(33,35,30,1)"/>
  <circle cx="0" cy="14" r="1" fill="srgba(33,35,30,1)"/>
  <circle cx="1" cy="14" r="1" fill="srgba(33,35,30,1)"/>
  <circle cx="2" cy="14" r="1" fill="srgba(33,35,30,1)"/>
  <circle cx="3" cy="14" r="1" fill="srgba(33,35,30,1)"/>
  <circle cx="4" cy="14" r="1" fill="srgba(33,35,30,1)"/>
  <circle cx="5" cy="14" r="1" fill="srgba(12.9839%,13.7682%,11.809%,1)"/>
  <circle cx="6" cy="14" r="1" fill="srgba(13.6599%,14.4366%,12.4926%,1)"/>
  <circle cx="7" cy="14" r="1" fill="srgba(12.9885%,13.7728%,11.812%,1)"/>
  <circle cx="8" cy="14" r="1" fill="srgba(33,35,30,1)"/>
  <circle cx="9" cy="14" r="1" fill="srgba(33,35,30,1)"/>
  <circle cx="10" cy="14" r="1" fill="srgba(33,35,30,1)"/>
  <circle cx="11" cy="14" r="1" fill="srgba(33,35,30,1)"/>
  <circle cx="12" cy="14" r="1" fill="srgba(33,35,30,1)"/>
  <circle cx="13" cy="14" r="1" fill="srgba(33,35,30,1)"/>
  <circle cx="14" cy="14" r="1" fill="srgba(33,35,30,1)"/>
  <circle cx="15" cy="14" r="1" fill="srgba(33,35,30,1)"/>
  <circle cx="0" cy="15" r="1" fill="srgba(33,35,30,1)"/>
  <circle cx="1" cy="15" r="1" fill="srgba(33,35,30,1)"/>
  <circle cx="2" cy="15" r="1" fill="srgba(33,35,30,1)"/>
  <circle cx="3" cy="15" r="1" fill="srgba(33,35,30,1)"/>
  <circle cx="4" cy="15" r="1" fill="srgba(33,35,30,1)"/>
  <circle cx="5" cy="15" r="1" fill="srgba(12.961%,13.7438%,11.7845%,1)"/>
  <circle cx="6" cy="15" r="1" fill="srgba(13.2769%,14.0551%,12.108%,1)"/>
  <circle cx="7" cy="15" r="1" fill="srgba(12.9641%,13.7484%,11.7876%,1)"/>
  <circle cx="8" cy="15" r="1" fill="srgba(33,35,30,1)"/>
  <circle cx="9" cy="15" r="1" fill="srgba(33,35,30,1)"/>
  <circle cx="10" cy="15" r="1" fill="srgba(33,35,30,1)"/>
  <circle cx="11" cy="15" r="1" fill="srgba(33,35,30,1)"/>
  <circle cx="12" cy="15" r="1" fill="srgba(33,35,30,1)"/>
  <circle cx="13" cy="15" r="1" fill="srgba(33,35,30,1)"/>
  <circle cx="14" cy="15" r="1" fill="srgba(33,35,30,1)"/>
  <circle cx="15" cy="15" r="1" fill="srgba(33,35,30,1)"/>
</svg>
