<?xml version="1.0" standalone="no"?>
<!DOCTYPE svg PUBLIC "-//W3C//DTD SVG 20010904//EN"
  "http://www.w3.org/TR/2001/REC-SVG-20010904/DTD/svg10.dtd">
<svg width="16" height="16">
  <circle cx="0" cy="0" r="1" fill="srgba(0,161,222,1)"/>
  <circle cx="1" cy="0" r="1" fill="srgba(0,161,222,1)"/>
  <circle cx="2" cy="0" r="1" fill="srgba(0,161,222,1)"/>
  <circle cx="3" cy="0" r="1" fill="srgba(0,161,222,1)"/>
  <circle cx="4" cy="0" r="1" fill="srgba(0,161,222,1)"/>
  <circle cx="5" cy="0" r="1" fill="srgba(0,161,222,1)"/>
  <circle cx="6" cy="0" r="1" fill="srgba(0,161,222,1)"/>
  <circle cx="7" cy="0" r="1" fill="srgba(0,161,222,1)"/>
  <circle cx="8" cy="0" r="1" fill="srgba(0,161,222,1)"/>
  <circle cx="9" cy="0" r="1" fill="srgba(0,161,222,1)"/>
  <circle cx="10" cy="0" r="1" fill="srgba(0%,63.1312%,87.1031%,1)"/>
  <circle cx="11" cy="0" r="1" fill="srgba(0%,63.122%,87.1794%,1)"/>
  <circle cx="12" cy="0" r="1" fill="srgba(0%,63.1266%,87.1397%,1)"/>
  <circle cx="13" cy="0" r="1" fill="srgba(0%,63.1357%,87.0665%,1)"/>
  <circle cx="14" cy="0" r="1" fill="srgba(0,161,222,1)"/>
  <circle cx="15" cy="0" r="1" fill="srgba(0,161,222,1)"/>
  <circle cx="0" cy="1" r="1" fill="srgba(0,161,222,1)"/>
  <circle cx="1" cy="1" r="1" fill="srgba(0,161,222,1)"/>
  <circle cx="2" cy="1" r="1" fill="srgba(0,161,222,1)"/>
  <circle cx="3" cy="1" r="1" fill="srgba(0,161,222,1)"/>
  <circle cx="4" cy="1" r="1" fill="srgba(0,161,222,1)"/>
  <circle cx="5" cy="1" r="1" fill="srgba(0,161,222,1)"/>
  <circle cx="6" cy="1" r="1" fill="srgba(0,161,222,1)"/>
  <circle cx="7" cy="1" r="1" fill="srgba(0,161,222,1)"/>
  <circle cx="8" cy="1" r="1" fill="srgba(0%,63.1373%,87.0573%,1)"/>
  <circle cx="9" cy="1" r="1" fill="srgba(0%,63.1296%,87.1138%,1)"/>
  <circle cx="10" cy="1" r="1" fill="srgba(0.602731%,63.1907%,86.6545%,1)"/>
  <circle cx="11" cy="1" r="1" fill="srgba(1.88754%,63.3158%,85.6947%,1)"/>
  <circle cx="12" cy="1" r="1" fill="srgba(1.18868%,63.2502%,86.2043%,1)"/>
  <circle cx="13" cy="1" r="1" fill="srgba(0.0717174%,63.1357%,87.0665%,1)"/>
  <circle cx="14" cy="1" r="1" fill="srgba(0%,63.1357%,87.0695%,1)"/>
  <circle cx="15" cy="1" r="1" fill="srgba(0,161,222,1)"/>
  <circle cx="0" cy="2" r="1" fill="srgba(0,161,222,1)"/>
  <circle cx="1" cy="2" r="1" fill="srgba(0,161,222,1)"/>
  <circle cx="2" cy="2" r="1" fill="srgba(0,161,222,1)"/>
  <circle cx="3" cy="2" r="1" fill="srgba(0,161,222,1)"/>
  <circle cx="4" cy="2" r="1" fill="srgba(0,161,222,1)"/>
  <circle cx="5" cy="2" r="1" fill="srgba(0,161,222,1)"/>
  <circle cx="6" cy="2" r="1" fill="srgba(0,161,222,1)"/>
  <circle cx="7" cy="2" r="1" fill="srgba(0,161,222,1)"/>
  <circle cx="8" cy="2" r="1" fill="srgba(0%,63.1281%,87.1275%,1)"/>
  <circle cx="9" cy="2" r="1" fill="srgba(1.23751%,63.2944%,85.8656%,1)"/>
  <circle cx="10" cy="2" r="1" fill="srgba(11.2581%,64.5655%,76.1944%,1)"/>
  <circle cx="11" cy="2" r="1" fill="srgba(22.562%,65.9937%,65.2918%,1)"/>
  <circle cx="12" cy="2" r="1" fill="srgba(16.907%,65.275%,70.7424%,1)"/>
  <circle cx="13" cy="2" r="1" fill="srgba(3.95666%,63.6362%,83.2395%,1)"/>
  <circle cx="14" cy="2" r="1" fill="srgba(0%,63.1312%,87.1031%,1)"/>
  <circle cx="15" cy="2" r="1" fill="srgba(0%,63.1373%,87.0634%,1)"/>
  <circle cx="0" cy="3" r="1" fill="srgba(0,161,222,1)"/>
  <circle cx="1" cy="3" r="1" fill="srgba(0,161,222,1)"/>
  <circle cx="2" cy="3" r="1" fill="srgba(0,161,222,1)"/>
  <circle cx="3" cy="3" r="1" fill="srgba(0,161,222,1)"/>
  <circle cx="4" cy="3" r="1" fill="srgba(0,161,222,1)"/>
  <circle cx="5" cy="3" r="1" fill="srgba(0,161,222,1)"/>
  <circle cx="6" cy="3" r="1" fill="srgba(0,161,222,1)"/>
  <circle cx="7" cy="3" r="1" fill="srgba(0%,63.1373%,87.0619%,1)"/>
  <circle cx="8" cy="3" r="1" fill="srgba(0%,63.1159%,87.2251%,1)"/>
  <circle cx="9" cy="3" r="1" fill="srgba(6.10666%,63.9109%,81.1658%,1)"/>
  <circle cx="10" cy="3" r="1" fill="srgba(35.8816%,67.6799%,52.4331%,1)"/>
  <circle cx="11" cy="3" r="1" fill="srgba(67.039%,71.6274%,22.3621%,1)"/>
  <circle cx="12" cy="3" r="1" fill="srgba(51.5206%,69.6605%,37.3373%,1)"/>
  <circle cx="13" cy="3" r="1" fill="srgba(14.9401%,65.0263%,72.6406%,1)"/>
  <circle cx="14" cy="3" r="1" fill="srgba(0.49897%,63.1998%,86.5766%,1)"/>
  <circle cx="15" cy="3" r="1" fill="srgba(0%,63.1296%,87.1153%,1)"/>
  <circle cx="0" cy="4" r="1" fill="srgba(0,161,222,1)"/>
  <circle cx="1" cy="4" r="1" fill="srgba(0,161,222,1)"/>
  <circle cx="2" cy="4" r="1" fill="srgba(0,161,222,1)"/>
  <circle cx="3" cy="4" r="1" fill="srgba(0,161,222,1)"/>
  <circle cx="4" cy="4" r="1" fill="srgba(0,161,222,1)"/>
  <circle cx="5" cy="4" r="1" fill="srgba(0,161,222,1)"/>
  <circle cx="6" cy="4" r="1" fill="srgba(0,161,222,1)"/>
  <circle cx="7" cy="4" r="1" fill="srgba(0%,63.1373%,87.0634%,1)"/>
  <circle cx="8" cy="4" r="1" fill="srgba(0%,63.1159%,87.2267%,1)"/>
  <circle cx="9" cy="4" r="1" fill="srgba(7.42657%,64.0787%,79.8932%,1)"/>
  <circle cx="10" cy="4" r="1" fill="srgba(42.1225%,68.4718%,46.4103%,1)"/>
  <circle cx="11" cy="4" r="1" fill="srgba(78.352%,73.0587%,11.4443%,1)"/>
  <circle cx="12" cy="4" r="1" fill="srgba(60.2792%,70.7698%,28.8838%,1)"/>
  <circle cx="13" cy="4" r="1" fill="srgba(17.7539%,65.388%,69.9245%,1)"/>
  <circle cx="14" cy="4" r="1" fill="srgba(0.709545%,63.2273%,86.3737%,1)"/>
  <circle cx="15" cy="4" r="1" fill="srgba(0%,63.1281%,87.1336%,1)"/>
  <circle cx="0" cy="5" r="1" fill="srgba(0,161,222,1)"/>
  <circle cx="1" cy="5" r="1" fill="srgba(0,161,222,1)"/>
  <circle cx="2" cy="5" r="1" fill="srgba(0,161,222,1)"/>
  <circle cx="3" cy="5" r="1" fill="srgba(0,161,222,1)"/>
  <circle cx="4" cy="5" r="1" fill="srgba(0,161,222,1)"/>
  <circle cx="5" cy="5" r="1" fill="srgba(0,161,222,1)"/>
  <circle cx="6" cy="5" r="1" fill="srgba(0,161,222,1)"/>
  <circle cx="7" cy="5" r="1" fill="srgba(0,161,222,1)"/>
  <circle cx="8" cy="5" r="1" fill="srgba(0%,63.122%,87.1717%,1)"/>
  <circle cx="9" cy="5" r="1" fill="srgba(2.72374%,63.4852%,84.4327%,1)"/>
  <circle cx="10" cy="5" r="1" fill="srgba(19.4781%,65.6062%,68.2597%,1)"/>
  <circle cx="11" cy="5" r="1" fill="srgba(37.6486%,67.9042%,50.7256%,1)"/>
  <circle cx="12" cy="5" r="1" fill="srgba(28.5817%,66.7552%,59.4751%,1)"/>
  <circle cx="13" cy="5" r="1" fill="srgba(7.49981%,64.0864%,79.8215%,1)"/>
  <circle cx="14" cy="5" r="1" fill="srgba(0.0732433%,63.1464%,86.9886%,1)"/>
  <circle cx="15" cy="5" r="1" fill="srgba(0%,63.1342%,87.0771%,1)"/>
  <circle cx="0" cy="6" r="1" fill="srgba(0%,62.9877%,87.7363%,1)"/>
  <circle cx="1" cy="6" r="1" fill="srgba(0%,62.9877%,87.7363%,1)"/>
  <circle cx="2" cy="6" r="1" fill="srgba(0%,62.9877%,87.7363%,1)"/>
  <circle cx="3" cy="6" r="1" fill="srgba(0%,62.9877%,87.7363%,1)"/>
  <circle cx="4" cy="6" r="1" fill="srgba(0%,62.9877%,87.7363%,1)"/>
  <circle cx="5" cy="6" r="1" fill="srgba(0%,62.9877%,87.7363%,1)"/>
  <circle cx="6" cy="6" r="1" fill="srgba(0%,62.9877%,87.7363%,1)"/>
  <circle cx="7" cy="6" r="1" fill="srgba(0%,62.9877%,87.7363%,1)"/>
  <circle cx="8" cy="6" r="1" fill="srgba(0%,62.9862%,87.744%,1)"/>
  <circle cx="9" cy="6" r="1" fill="srgba(0%,62.9923%,87.6982%,1)"/>
  <circle cx="10" cy="6" r="1" fill="srgba(1.70596%,63.2746%,85.5436%,1)"/>
  <circle cx="11" cy="6" r="1" fill="srgba(5.35592%,63.6744%,82.4994%,1)"/>
  <circle cx="12" cy="6" r="1" fill="srgba(3.35698%,63.4684%,84.0497%,1)"/>
  <circle cx="13" cy="6" r="1" fill="srgba(0.222782%,63.0503%,87.2435%,1)"/>
  <circle cx="14" cy="6" r="1" fill="srgba(0%,62.9831%,87.7729%,1)"/>
  <circle cx="15" cy="6" r="1" fill="srgba(0%,62.9877%,87.7363%,1)"/>
  <circle cx="0" cy="7" r="1" fill="srgba(11.8242%,65.4551%,76.6049%,1)"/>
  <circle cx="1" cy="7" r="1" fill="srgba(11.8242%,65.4551%,76.6049%,1)"/>
  <circle cx="2" cy="7" r="1" fill="srgba(11.8242%,65.4551%,76.6049%,1)"/>
  <circle cx="3" cy="7" r="1" fill="srgba(11.8242%,65.4551%,76.6049%,1)"/>
  <circle cx="4" cy="7" r="1" fill="srgba(11.8242%,65.4551%,76.6049%,1)"/>
  <circle cx="5" cy="7" r="1" fill="srgba(11.8242%,65.4551%,76.6049%,1)"/>
  <circle cx="6" cy="7" r="1" fill="srgba(11.8242%,65.4551%,76.6049%,1)"/>
  <circle cx="7" cy="7" r="1" fill="srgba(11.8242%,65.4551%,76.6049%,1)"/>
  <circle cx="8" cy="7" r="1" fill="srgba(11.8242%,65.4551%,76.6049%,1)"/>
  <circle cx="9" cy="7" r="1" fill="srgba(11.8166%,65.4536%,76.6125%,1)"/>
  <circle cx="10" cy="7" r="1" fill="srgba(11.7067%,65.4398%,76.7193%,1)"/>
  <circle cx="11" cy="7" r="1" fill="srgba(11.6167%,65.4292%,76.8063%,1)"/>
  <circle cx="12" cy="7" r="1" fill="srgba(11.6548%,65.4337%,76.7697%,1)"/>
  <circle cx="13" cy="7" r="1" fill="srgba(11.7876%,65.4505%,76.6415%,1)"/>
  <circle cx="14" cy="7" r="1" fill="srgba(11.8257%,65.4551%,76.6033%,1)"/>
  <circle cx="15" cy="7" r="1" fill="srgba(11.8242%,65.4551%,76.6049%,1)"/>
  <circle cx="0" cy="8" r="1" fill="srgba(86.215%,80.0351%,10.8461%,1)"/>
  <circle cx="1" cy="8" r="1" fill="srgba(86.215%,80.0351%,10.8461%,1)"/>
  <circle cx="2" cy="8" r="1" fill="srgba(86.215%,80.0351%,10.8461%,1)"/>
  <circle cx="3" cy="8" r="1" fill="srgba(86.215%,80.0351%,10.8461%,1)"/>
  <circle cx="4" cy="8" r="1" fill="srgba(86.215%,80.0351%,10.8461%,1)"/>
  <circle cx="5" cy="8" r="1" fill="srgba(86.215%,80.0351%,10.8461%,1)"/>
  <circle cx="6" cy="8" r="1" fill="srgba(86.215%,80.0351%,10.8461%,1)"/>
  <circle cx="7" cy="8" r="1" fill="srgba(86.215%,80.0351%,10.8461%,1)"/>
  <circle cx="8" cy="8" r="1" fill="srgba(86.215%,80.0351%,10.8461%,1)"/>
  <circle cx="9" cy="8" r="1" fill="srgba(86.215%,80.0351%,10.8461%,1)"/>
  <circle cx="10" cy="8" r="1" fill="srgba(86.215%,80.0351%,10.8461%,1)"/>
  <circle cx="11" cy="8" r="1" fill="srgba(86.2135%,80.0351%,10.8476%,1)"/>
  <circle cx="12" cy="8" r="1" fill="srgba(86.215%,80.0351%,10.8461%,1)"/>
  <circle cx="13" cy="8" r="1" fill="srgba(86.215%,80.0351%,10.8461%,1)"/>
  <circle cx="14" cy="8" r="1" fill="srgba(86.215%,80.0351%,10.8461%,1)"/>
  <circle cx="15" cy="8" r="1" fill="srgba(86.215%,80.0351%,10.8461%,1)"/>
  <circle cx="0" cy="9" r="1" fill="srgba(98.8052%,82.5025%,0%,1)"/>
  <circle cx="1" cy="9" r="1" fill="srgba(98.8052%,82.5025%,0%,1)"/>
  <circle cx="2" cy="9" r="1" fill="srgba(98.8052%,82.5025%,0%,1)"/>
  <circle cx="3" cy="9" r="1" fill="srgba(98.8052%,82.5025%,0%,1)"/>
  <circle cx="4" cy="9" r="1" fill="srgba(98.8052%,82.5025%,0%,1)"/>
  <circle cx="5" cy="9" r="1" fill="srgba(98.8052%,82.5025%,0%,1)"/>
  <circle cx="6" cy="9" r="1" fill="srgba(98.8052%,82.5025%,0%,1)"/>
  <circle cx="7" cy="9" r="1" fill="srgba(98.8052%,82.5025%,0%,1)"/>
  <circle cx="8" cy="9" r="1" fill="srgba(98.8052%,82.5025%,0%,1)"/>
  <circle cx="9" cy="9" r="1" fill="srgba(98.8052%,82.5025%,0%,1)"/>
  <circle cx="10" cy="9" r="1" fill="srgba(98.8052%,82.5025%,0%,1)"/>
  <circle cx="11" cy="9" r="1" fill="srgba(98.8052%,82.5025%,0%,1)"/>
  <circle cx="12" cy="9" r="1" fill="srgba(98.8052%,82.5025%,0%,1)"/>
  <circle cx="13" cy="9" r="1" fill="srgba(98.8052%,82.5025%,0%,1)"/>
  <circle cx="14" cy="9" r="1" fill="srgba(98.8052%,82.5025%,0%,1)"/>
  <circle cx="15" cy="9" r="1" fill="srgba(98.8052%,82.5025%,0%,1)"/>
  <circle cx="0" cy="10" r="1" fill="srgba(98.7076%,82.7024%,0.209049%,1)"/>
  <circle cx="1" cy="10" r="1" fill="srgba(98.7076%,82.7024%,0.209049%,1)"/>
  <circle cx="2" cy="10" r="1" fill="srgba(98.7076%,82.7024%,0.209049%,1)"/>
  <circle cx="3" cy="10" r="1" fill="srgba(98.7076%,82.7024%,0.209049%,1)"/>
  <circle cx="4" cy="10" r="1" fill="srgba(98.7076%,82.7024%,0.209049%,1)"/>
  <circle cx="5" cy="10" r="1" fill="srgba(98.7076%,82.7024%,0.209049%,1)"/>
  <circle cx="6" cy="10" r="1" fill="srgba(98.7076%,82.7024%,0.209049%,1)"/>
  <circle cx="7" cy="10" r="1" fill="srgba(98.7076%,82.7024%,0.209049%,1)"/>
  <circle cx="8" cy="10" r="1" fill="srgba(98.7076%,82.7024%,0.209049%,1)"/>
  <circle cx="9" cy="10" r="1" fill="srgba(98.7076%,82.7024%,0.209049%,1)"/>
  <circle cx="10" cy="10" r="1" fill="srgba(98.7076%,82.7024%,0.209049%,1)"/>
  <circle cx="11" cy="10" r="1" fill="srgba(98.7076%,82.7024%,0.209049%,1)"/>
  <circle cx="12" cy="10" r="1" fill="srgba(98.7076%,82.7024%,0.209049%,1)"/>
  <circle cx="13" cy="10" r="1" fill="srgba(98.7076%,82.7024%,0.209049%,1)"/>
  <circle cx="14" cy="10" r="1" fill="srgba(98.7076%,82.7024%,0.209049%,1)"/>
  <circle cx="15" cy="10" r="1" fill="srgba(98.7076%,82.7024%,0.209049%,1)"/>
  <circle cx="0" cy="11" r="1" fill="srgba(87.7272%,76.9604%,3.23033%,1)"/>
  <circle cx="1" cy="11" r="1" fill="srgba(87.7272%,76.9604%,3.23033%,1)"/>
  <circle cx="2" cy="11" r="1" fill="srgba(87.7272%,76.9604%,3.23033%,1)"/>
  <circle cx="3" cy="11" r="1" fill="srgba(87.7272%,76.9604%,3.23033%,1)"/>
  <circle cx="4" cy="11" r="1" fill="srgba(87.7272%,76.9604%,3.23033%,1)"/>
  <circle cx="5" cy="11" r="1" fill="srgba(87.7272%,76.9604%,3.23033%,1)"/>
  <circle cx="6" cy="11" r="1" fill="srgba(87.7272%,76.9604%,3.23033%,1)"/>
  <circle cx="7" cy="11" r="1" fill="srgba(87.7272%,76.9604%,3.23033%,1)"/>
  <circle cx="8" cy="11" r="1" fill="srgba(87.7272%,76.9604%,3.23033%,1)"/>
  <circle cx="9" cy="11" r="1" fill="srgba(87.7272%,76.9604%,3.23033%,1)"/>
  <circle cx="10" cy="11" r="1" fill="srgba(87.7272%,76.9604%,3.23033%,1)"/>
  <circle cx="11" cy="11" r="1" fill="srgba(87.7272%,76.9604%,3.23033%,1)"/>
  <circle cx="12" cy="11" r="1" fill="srgba(87.7272%,76.9604%,3.23033%,1)"/>
  <circle cx="13" cy="11" r="1" fill="srgba(87.7272%,76.9604%,3.23033%,1)"/>
  <circle cx="14" cy="11" r="1" fill="srgba(87.7272%,76.9604%,3.23033%,1)"/>
  <circle cx="15" cy="11" r="1" fill="srgba(87.7272%,76.9604%,3.23033%,1)"/>
  <circle cx="0" cy="12" r="1" fill="srgba(22.8611%,43.0396%,21.0834%,1)"/>
  <circle cx="1" cy="12" r="1" fill="srgba(22.8611%,43.0396%,21.0834%,1)"/>
  <circle cx="2" cy="12" r="1" fill="srgba(22.8611%,43.0396%,21.0834%,1)"/>
  <circle cx="3" cy="12" r="1" fill="srgba(22.8611%,43.0396%,21.0834%,1)"/>
  <circle cx="4" cy="12" r="1" fill="srgba(22.8611%,43.0396%,21.0834%,1)"/>
  <circle cx="5" cy="12" r="1" fill="srgba(22.8611%,43.0396%,21.0834%,1)"/>
  <circle cx="6" cy="12" r="1" fill="srgba(22.8611%,43.0396%,21.0834%,1)"/>
  <circle cx="7" cy="12" r="1" fill="srgba(22.8611%,43.0396%,21.0834%,1)"/>
  <circle cx="8" cy="12" r="1" fill="srgba(22.8611%,43.0396%,21.0834%,1)"/>
  <circle cx="9" cy="12" r="1" fill="srgba(22.8611%,43.0396%,21.0834%,1)"/>
  <circle cx="10" cy="12" r="1" fill="srgba(22.8611%,43.0396%,21.0834%,1)"/>
  <circle cx="11" cy="12" r="1" fill="srgba(22.8611%,43.0396%,21.0834%,1)"/>
  <circle cx="12" cy="12" r="1" fill="srgba(22.8611%,43.0396%,21.0834%,1)"/>
  <circle cx="13" cy="12" r="1" fill="srgba(22.8611%,43.0396%,21.0834%,1)"/>
  <circle cx="14" cy="12" r="1" fill="srgba(22.8611%,43.0396%,21.0834%,1)"/>
  <circle cx="15" cy="12" r="1" fill="srgba(22.8611%,43.0396%,21.0834%,1)"/>
  <circle cx="0" cy="13" r="1" fill="srgba(11.8807%,37.2976%,24.1047%,1)"/>
  <circle cx="1" cy="13" r="1" fill="srgba(11.8807%,37.2976%,24.1047%,1)"/>
  <circle cx="2" cy="13" r="1" fill="srgba(11.8807%,37.2976%,24.1047%,1)"/>
  <circle cx="3" cy="13" r="1" fill="srgba(11.8807%,37.2976%,24.1047%,1)"/>
  <circle cx="4" cy="13" r="1" fill="srgba(11.8807%,37.2976%,24.1047%,1)"/>
  <circle cx="5" cy="13" r="1" fill="srgba(11.8807%,37.2976%,24.1047%,1)"/>
  <circle cx="6" cy="13" r="1" fill="srgba(11.8807%,37.2976%,24.1047%,1)"/>
  <circle cx="7" cy="13" r="1" fill="srgba(11.8807%,37.2976%,24.1047%,1)"/>
  <circle cx="8" cy="13" r="1" fill="srgba(11.8807%,37.2976%,24.1047%,1)"/>
  <circle cx="9" cy="13" r="1" fill="srgba(11.8807%,37.2976%,24.1047%,1)"/>
  <circle cx="10" cy="13" r="1" fill="srgba(11.8807%,37.2976%,24.1047%,1)"/>
  <circle cx="11" cy="13" r="1" fill="srgba(11.8807%,37.2976%,24.1047%,1)"/>
  <circle cx="12" cy="13" r="1" fill="srgba(11.8807%,37.2976%,24.1047%,1)"/>
  <circle cx="13" cy="13" r="1" fill="srgba(11.8807%,37.2976%,24.1047%,1)"/>
  <circle cx="14" cy="13" r="1" fill="srgba(11.8807%,37.2976%,24.1047%,1)"/>
  <circle cx="15" cy="13" r="1" fill="srgba(11.8807%,37.2976%,24.1047%,1)"/>
  <circle cx="0" cy="14" r="1" fill="srgba(32,96,61,1)"/>
  <circle cx="1" cy="14" r="1" fill="srgba(32,96,61,1)"/>
  <circle cx="2" cy="14" r="1" fill="srgba(32,96,61,1)"/>
  <circle cx="3" cy="14" r="1" fill="srgba(32,96,61,1)"/>
  <circle cx="4" cy="14" r="1" fill="srgba(32,96,61,1)"/>
  <circle cx="5" cy="14" r="1" fill="srgba(32,96,61,1)"/>
  <circle cx="6" cy="14" r="1" fill="srgba(32,96,61,1)"/>
  <circle cx="7" cy="14" r="1" fill="srgba(32,96,61,1)"/>
  <circle cx="8" cy="14" r="1" fill="srgba(32,96,61,1)"/>
  <circle cx="9" cy="14" r="1" fill="srgba(32,96,61,1)"/>
  <circle cx="10" cy="14" r="1" fill="srgba(32,96,61,1)"/>
  <circle cx="11" cy="14" r="1" fill="srgba(32,96,61,1)"/>
  <circle cx="12" cy="14" r="1" fill="srgba(32,96,61,1)"/>
  <circle cx="13" cy="14" r="1" fill="srgba(32,96,61,1)"/>
  <circle cx="14" cy="14" r="1" fill="srgba(32,96,61,1)"/>
  <circle cx="15" cy="14" r="1" fill="srgba(32,96,61,1)"/>
  <circle cx="0" cy="15" r="1" fill="srgba(32,96,61,1)"/>
  <circle cx="1" cy="15" r="1" fill="srgba(32,96,61,1)"/>
  <circle cx="2" cy="15" r="1" fill="srgba(32,96,61,1)"/>
  <circle cx="3" cy="15" r="1" fill="srgba(32,96,61,1)"/>
  <circle cx="4" cy="15" r="1" fill="srgba(32,96,61,1)"/>
  <circle cx="5" cy="15" r="1" fill="srgba(32,96,61,1)"/>
  <circle cx="6" cy="15" r="1" fill="srgba(32,96,61,1)"/>
  <circle cx="7" cy="15" r="1" fill="srgba(32,96,61,1)"/>
  <circle cx="8" cy="15" r="1" fill="srgba(32,96,61,1)"/>
  <circle cx="9" cy="15" r="1" fill="srgba(32,96,61,1)"/>
  <circle cx="10" cy="15" r="1" fill="srgba(32,96,61,1)"/>
  <circle cx="11" cy="15" r="1" fill="srgba(32,96,61,1)"/>
  <circle cx="12" cy="15" r="1" fill="srgba(32,96,61,1)"/>
  <circle cx="13" cy="15" r="1" fill="srgba(32,96,61,1)"/>
  <circle cx="14" cy="15" r="1" fill="srgba(32,96,61,1)"/>
  <circle cx="15" cy="15" r="1" fill="srgba(32,96,61,1)"/>
</svg>
