<?xml version="1.0" standalone="no"?>
<!DOCTYPE svg PUBLIC "-//W3C//DTD SVG 20010904//EN"
  "http://www.w3.org/TR/2001/REC-SVG-20010904/DTD/svg10.dtd">
<svg width="16" height="16">
  <circle cx="0" cy="0" r="1" fill="srgba(25,157,0,1)"/>
  <circle cx="1" cy="0" r="1" fill="srgba(25,157,0,1)"/>
  <circle cx="2" cy="0" r="1" fill="srgba(25,157,0,1)"/>
  <circle cx="3" cy="0" r="1" fill="srgba(25,157,0,1)"/>
  <circle cx="4" cy="0" r="1" fill="srgba(25,157,0,1)"/>
  <circle cx="5" cy="0" r="1" fill="srgba(25,157,0,1)"/>
  <circle cx="6" cy="0" r="1" fill="srgba(9.76272%,61.5625%,0%,1)"/>
  <circle cx="7" cy="0" r="1" fill="srgba(10.4433%,61.6739%,0%,1)"/>
  <circle cx="8" cy="0" r="1" fill="srgba(13.875%,62.2461%,0%,1)"/>
  <circle cx="9" cy="0" r="1" fill="srgba(14.5449%,62.359%,0%,1)"/>
  <circle cx="10" cy="0" r="1" fill="srgba(14.5556%,62.3606%,0%,1)"/>
  <circle cx="11" cy="0" r="1" fill="srgba(13.8109%,62.237%,0%,1)"/>
  <circle cx="12" cy="0" r="1" fill="srgba(10.2571%,61.6434%,0%,1)"/>
  <circle cx="13" cy="0" r="1" fill="srgba(9.77493%,61.564%,0%,1)"/>
  <circle cx="14" cy="0" r="1" fill="srgba(9.8024%,61.5671%,0%,1)"/>
  <circle cx="15" cy="0" r="1" fill="srgba(9.83444%,61.5839%,0.030518%,1)"/>
  <circle cx="0" cy="1" r="1" fill="srgba(25,157,0,1)"/>
  <circle cx="1" cy="1" r="1" fill="srgba(25,157,0,1)"/>
  <circle cx="2" cy="1" r="1" fill="srgba(25,157,0,1)"/>
  <circle cx="3" cy="1" r="1" fill="srgba(25,157,0,1)"/>
  <circle cx="4" cy="1" r="1" fill="srgba(25,157,0,1)"/>
  <circle cx="5" cy="1" r="1" fill="srgba(25,157,0,1)"/>
  <circle cx="6" cy="1" r="1" fill="srgba(9.75357%,61.5595%,0%,1)"/>
  <circle cx="7" cy="1" r="1" fill="srgba(10.605%,61.7029%,0%,1)"/>
  <circle cx="8" cy="1" r="1" fill="srgba(13.9818%,62.2644%,0%,1)"/>
  <circle cx="9" cy="1" r="1" fill="srgba(14.5373%,62.3575%,0%,1)"/>
  <circle cx="10" cy="1" r="1" fill="srgba(14.5922%,62.3667%,0%,1)"/>
  <circle cx="11" cy="1" r="1" fill="srgba(13.1258%,62.1225%,0%,1)"/>
  <circle cx="12" cy="1" r="1" fill="srgba(9.93515%,61.59%,0%,1)"/>
  <circle cx="13" cy="1" r="1" fill="srgba(9.79477%,61.5671%,0%,1)"/>
  <circle cx="14" cy="1" r="1" fill="srgba(9.8024%,61.5671%,0%,1)"/>
  <circle cx="15" cy="1" r="1" fill="srgba(9.83444%,61.5839%,0.030518%,1)"/>
  <circle cx="0" cy="2" r="1" fill="srgba(25,157,0,1)"/>
  <circle cx="1" cy="2" r="1" fill="srgba(9.78561%,61.561%,0%,1)"/>
  <circle cx="2" cy="2" r="1" fill="srgba(9.63302%,61.4954%,0%,1)"/>
  <circle cx="3" cy="2" r="1" fill="srgba(9.75357%,61.5473%,0%,1)"/>
  <circle cx="4" cy="2" r="1" fill="srgba(9.64828%,61.5015%,0%,1)"/>
  <circle cx="5" cy="2" r="1" fill="srgba(9.72152%,61.5351%,0%,1)"/>
  <circle cx="6" cy="2" r="1" fill="srgba(9.52468%,61.4679%,0%,1)"/>
  <circle cx="7" cy="2" r="1" fill="srgba(10.5974%,61.6663%,0%,1)"/>
  <circle cx="8" cy="2" r="1" fill="srgba(13.9178%,62.2141%,0%,1)"/>
  <circle cx="9" cy="2" r="1" fill="srgba(14.0993%,62.1561%,0%,1)"/>
  <circle cx="10" cy="2" r="1" fill="srgba(13.7774%,62.0874%,0%,1)"/>
  <circle cx="11" cy="2" r="1" fill="srgba(10.8019%,61.5885%,0%,1)"/>
  <circle cx="12" cy="2" r="1" fill="srgba(9.14931%,61.3046%,0%,1)"/>
  <circle cx="13" cy="2" r="1" fill="srgba(9.17067%,61.2985%,0%,1)"/>
  <circle cx="14" cy="2" r="1" fill="srgba(9.14015%,61.2848%,0%,1)"/>
  <circle cx="15" cy="2" r="1" fill="srgba(9.15236%,61.294%,0.0167849%,1)"/>
  <circle cx="0" cy="3" r="1" fill="srgba(9.80545%,61.5686%,0%,1)"/>
  <circle cx="1" cy="3" r="1" fill="srgba(9.99924%,61.6526%,0.326543%,1)"/>
  <circle cx="2" cy="3" r="1" fill="srgba(11.7693%,62.4063%,2.98009%,1)"/>
  <circle cx="3" cy="3" r="1" fill="srgba(9.63455%,61.4969%,0.688182%,1)"/>
  <circle cx="4" cy="3" r="1" fill="srgba(11.3787%,62.24%,2.57267%,1)"/>
  <circle cx="5" cy="3" r="1" fill="srgba(10.1656%,61.6968%,1.31991%,1)"/>
  <circle cx="6" cy="3" r="1" fill="srgba(13.344%,63.0335%,3.75067%,1)"/>
  <circle cx="7" cy="3" r="1" fill="srgba(13.0053%,62.6307%,2.27665%,1)"/>
  <circle cx="8" cy="3" r="1" fill="srgba(15.877%,63.0823%,2.58335%,1)"/>
  <circle cx="9" cy="3" r="1" fill="srgba(21.4313%,65.4841%,8.53132%,1)"/>
  <circle cx="10" cy="3" r="1" fill="srgba(20.3174%,65.5421%,9.48653%,1)"/>
  <circle cx="11" cy="3" r="1" fill="srgba(18.6358%,65.3101%,9.70169%,1)"/>
  <circle cx="12" cy="3" r="1" fill="srgba(19.06%,65.5146%,10.2724%,1)"/>
  <circle cx="13" cy="3" r="1" fill="srgba(19.5972%,65.742%,10.8568%,1)"/>
  <circle cx="14" cy="3" r="1" fill="srgba(20.0412%,65.9312%,11.3497%,1)"/>
  <circle cx="15" cy="3" r="1" fill="srgba(20.3769%,66.0761%,11.7205%,1)"/>
  <circle cx="0" cy="4" r="1" fill="srgba(9.59487%,61.4801%,0%,1)"/>
  <circle cx="1" cy="4" r="1" fill="srgba(12.6589%,62.7848%,3.16472%,1)"/>
  <circle cx="2" cy="4" r="1" fill="srgba(27.9347%,69.2927%,20.0992%,1)"/>
  <circle cx="3" cy="4" r="1" fill="srgba(39.1943%,74.0887%,32.5826%,1)"/>
  <circle cx="4" cy="4" r="1" fill="srgba(58.3856%,82.269%,53.8674%,1)"/>
  <circle cx="5" cy="4" r="1" fill="srgba(51.7266%,79.3606%,46.186%,1)"/>
  <circle cx="6" cy="4" r="1" fill="srgba(76.3729%,89.8146%,73.3135%,1)"/>
  <circle cx="7" cy="4" r="1" fill="srgba(63.1037%,83.9338%,57.6303%,1)"/>
  <circle cx="8" cy="4" r="1" fill="srgba(44.3397%,75.7977%,36.2203%,1)"/>
  <circle cx="9" cy="4" r="1" fill="srgba(81.413%,91.9524%,78.8632%,1)"/>
  <circle cx="10" cy="4" r="1" fill="srgba(86.7628%,94.3633%,85.3407%,1)"/>
  <circle cx="11" cy="4" r="1" fill="srgba(86.7308%,94.3496%,85.301%,1)"/>
  <circle cx="12" cy="4" r="1" fill="srgba(87.3808%,94.6227%,86.009%,1)"/>
  <circle cx="13" cy="4" r="1" fill="srgba(87.985%,94.8806%,86.6789%,1)"/>
  <circle cx="14" cy="4" r="1" fill="srgba(88.4428%,95.0759%,87.187%,1)"/>
  <circle cx="15" cy="4" r="1" fill="srgba(88.7572%,95.2087%,87.538%,1)"/>
  <circle cx="0" cy="5" r="1" fill="srgba(9.50637%,61.442%,0%,1)"/>
  <circle cx="1" cy="5" r="1" fill="srgba(12.9442%,62.9068%,3.48363%,1)"/>
  <circle cx="2" cy="5" r="1" fill="srgba(55.5459%,81.0575%,50.7149%,1)"/>
  <circle cx="3" cy="5" r="1" fill="srgba(95.3994%,98.0392%,94.8989%,1)"/>
  <circle cx="4" cy="5" r="1" fill="srgba(99.4202%,99.7528%,99.3561%,1)"/>
  <circle cx="5" cy="5" r="1" fill="srgba(98.941%,99.5483%,98.8251%,1)"/>
  <circle cx="6" cy="5" r="1" fill="white"/>
  <circle cx="7" cy="5" r="1" fill="srgba(80.6439%,91.4763%,77.3907%,1)"/>
  <circle cx="8" cy="5" r="1" fill="srgba(63.151%,83.8163%,57.1023%,1)"/>
  <circle cx="9" cy="5" r="1" fill="srgba(98.6862%,99.5056%,98.5977%,1)"/>
  <circle cx="10" cy="5" r="1" fill="srgba(99.7452%,99.9023%,99.7147%,1)"/>
  <circle cx="11" cy="5" r="1" fill="white"/>
  <circle cx="12" cy="5" r="1" fill="srgba(99.9969%,99.9985%,99.9954%,1)"/>
  <circle cx="13" cy="5" r="1" fill="srgba(99.9756%,99.9908%,99.9725%,1)"/>
  <circle cx="14" cy="5" r="1" fill="white"/>
  <circle cx="15" cy="5" r="1" fill="white"/>
  <circle cx="0" cy="6" r="1" fill="srgba(9.71542%,61.5305%,0%,1)"/>
  <circle cx="1" cy="6" r="1" fill="srgba(10.0664%,61.6815%,0.291447%,1)"/>
  <circle cx="2" cy="6" r="1" fill="srgba(46.1234%,77.0459%,40.267%,1)"/>
  <circle cx="3" cy="6" r="1" fill="srgba(97.7249%,99.0326%,97.4777%,1)"/>
  <circle cx="4" cy="6" r="1" fill="white"/>
  <circle cx="5" cy="6" r="1" fill="white"/>
  <circle cx="6" cy="6" r="1" fill="srgba(98.9929%,99.5789%,98.9319%,1)"/>
  <circle cx="7" cy="6" r="1" fill="srgba(69.4804%,86.6636%,64.8356%,1)"/>
  <circle cx="8" cy="6" r="1" fill="srgba(51.5282%,78.6603%,43.4714%,1)"/>
  <circle cx="9" cy="6" r="1" fill="srgba(96.5286%,98.6038%,96.1059%,1)"/>
  <circle cx="10" cy="6" r="1" fill="srgba(99.3317%,99.7345%,99.2554%,1)"/>
  <circle cx="11" cy="6" r="1" fill="white"/>
  <circle cx="12" cy="6" r="1" fill="srgba(99.4965%,99.7971%,99.4369%,1)"/>
  <circle cx="13" cy="6" r="1" fill="srgba(98.706%,99.472%,98.5595%,1)"/>
  <circle cx="14" cy="6" r="1" fill="srgba(97.4151%,98.9059%,97.1344%,1)"/>
  <circle cx="15" cy="6" r="1" fill="srgba(87.3518%,94.6136%,85.9785%,1)"/>
  <circle cx="0" cy="7" r="1" fill="srgba(9.26833%,61.3397%,0%,1)"/>
  <circle cx="1" cy="7" r="1" fill="srgba(16.4645%,64.4068%,7.38384%,1)"/>
  <circle cx="2" cy="7" r="1" fill="srgba(58.5504%,82.3407%,54.0459%,1)"/>
  <circle cx="3" cy="7" r="1" fill="srgba(84.535%,93.4112%,82.855%,1)"/>
  <circle cx="4" cy="7" r="1" fill="srgba(99.5514%,99.8093%,99.5026%,1)"/>
  <circle cx="5" cy="7" r="1" fill="white"/>
  <circle cx="6" cy="7" r="1" fill="srgba(99.0311%,99.5956%,98.9731%,1)"/>
  <circle cx="7" cy="7" r="1" fill="srgba(63.621%,84.1566%,58.3215%,1)"/>
  <circle cx="8" cy="7" r="1" fill="srgba(45.9876%,76.2371%,37.0596%,1)"/>
  <circle cx="9" cy="7" r="1" fill="srgba(98.7121%,99.4324%,98.5%,1)"/>
  <circle cx="10" cy="7" r="1" fill="white"/>
  <circle cx="11" cy="7" r="1" fill="white"/>
  <circle cx="12" cy="7" r="1" fill="white"/>
  <circle cx="13" cy="7" r="1" fill="white"/>
  <circle cx="14" cy="7" r="1" fill="srgba(98.5473%,99.382%,98.3902%,1)"/>
  <circle cx="15" cy="7" r="1" fill="srgba(91.7281%,96.4782%,90.8309%,1)"/>
  <circle cx="0" cy="8" r="1" fill="srgba(9.71695%,61.532%,0%,1)"/>
  <circle cx="1" cy="8" r="1" fill="srgba(10.7958%,61.9913%,1.10628%,1)"/>
  <circle cx="2" cy="8" r="1" fill="srgba(14.4289%,63.5386%,5.23842%,1)"/>
  <circle cx="3" cy="8" r="1" fill="srgba(41.9287%,75.256%,35.6237%,1)"/>
  <circle cx="4" cy="8" r="1" fill="srgba(97.7157%,99.0265%,97.467%,1)"/>
  <circle cx="5" cy="8" r="1" fill="white"/>
  <circle cx="6" cy="8" r="1" fill="white"/>
  <circle cx="7" cy="8" r="1" fill="srgba(74.2702%,88.751%,70.3426%,1)"/>
  <circle cx="8" cy="8" r="1" fill="srgba(45.8824%,76.1929%,36.8826%,1)"/>
  <circle cx="9" cy="8" r="1" fill="srgba(98.1369%,99.1775%,97.8241%,1)"/>
  <circle cx="10" cy="8" r="1" fill="white"/>
  <circle cx="11" cy="8" r="1" fill="white"/>
  <circle cx="12" cy="8" r="1" fill="white"/>
  <circle cx="13" cy="8" r="1" fill="white"/>
  <circle cx="14" cy="8" r="1" fill="white"/>
  <circle cx="15" cy="8" r="1" fill="white"/>
  <circle cx="0" cy="9" r="1" fill="srgba(9.8085%,61.5702%,0%,1)"/>
  <circle cx="1" cy="9" r="1" fill="srgba(9.74594%,61.5442%,0%,1)"/>
  <circle cx="2" cy="9" r="1" fill="srgba(8.01862%,60.8072%,0%,1)"/>
  <circle cx="3" cy="9" r="1" fill="srgba(34.2184%,71.9707%,27.6066%,1)"/>
  <circle cx="4" cy="9" r="1" fill="srgba(97.6318%,98.9899%,97.3861%,1)"/>
  <circle cx="5" cy="9" r="1" fill="white"/>
  <circle cx="6" cy="9" r="1" fill="white"/>
  <circle cx="7" cy="9" r="1" fill="srgba(77.8485%,90.3059%,74.4213%,1)"/>
  <circle cx="8" cy="9" r="1" fill="srgba(48.9799%,77.5509%,40.4593%,1)"/>
  <circle cx="9" cy="9" r="1" fill="srgba(98.1491%,99.1836%,97.8347%,1)"/>
  <circle cx="10" cy="9" r="1" fill="white"/>
  <circle cx="11" cy="9" r="1" fill="white"/>
  <circle cx="12" cy="9" r="1" fill="white"/>
  <circle cx="13" cy="9" r="1" fill="white"/>
  <circle cx="14" cy="9" r="1" fill="white"/>
  <circle cx="15" cy="9" r="1" fill="white"/>
  <circle cx="0" cy="10" r="1" fill="srgba(25,157,0,1)"/>
  <circle cx="1" cy="10" r="1" fill="srgba(25,157,0,1)"/>
  <circle cx="2" cy="10" r="1" fill="srgba(8.3711%,60.9583%,0%,1)"/>
  <circle cx="3" cy="10" r="1" fill="srgba(35.0637%,72.3308%,28.0049%,1)"/>
  <circle cx="4" cy="10" r="1" fill="srgba(97.7707%,99.0494%,97.528%,1)"/>
  <circle cx="5" cy="10" r="1" fill="white"/>
  <circle cx="6" cy="10" r="1" fill="srgba(97.5036%,98.9471%,97.2808%,1)"/>
  <circle cx="7" cy="10" r="1" fill="srgba(74.6563%,88.9952%,71.075%,1)"/>
  <circle cx="8" cy="10" r="1" fill="srgba(56.5423%,80.8667%,49.2912%,1)"/>
  <circle cx="9" cy="10" r="1" fill="srgba(98.6267%,99.3942%,98.3978%,1)"/>
  <circle cx="10" cy="10" r="1" fill="white"/>
  <circle cx="11" cy="10" r="1" fill="white"/>
  <circle cx="12" cy="10" r="1" fill="white"/>
  <circle cx="13" cy="10" r="1" fill="white"/>
  <circle cx="14" cy="10" r="1" fill="white"/>
  <circle cx="15" cy="10" r="1" fill="white"/>
  <circle cx="0" cy="11" r="1" fill="srgba(25,157,0,1)"/>
  <circle cx="1" cy="11" r="1" fill="srgba(25,157,0,1)"/>
  <circle cx="2" cy="11" r="1" fill="srgba(8.36042%,60.9537%,0%,1)"/>
  <circle cx="3" cy="11" r="1" fill="srgba(35.3735%,72.4636%,28.3482%,1)"/>
  <circle cx="4" cy="11" r="1" fill="srgba(97.879%,99.0967%,97.6486%,1)"/>
  <circle cx="5" cy="11" r="1" fill="white"/>
  <circle cx="6" cy="11" r="1" fill="srgba(90.9834%,96.1669%,90.0633%,1)"/>
  <circle cx="7" cy="11" r="1" fill="srgba(58.4237%,82.1286%,53.4173%,1)"/>
  <circle cx="8" cy="11" r="1" fill="srgba(65.2598%,84.6952%,59.6139%,1)"/>
  <circle cx="9" cy="11" r="1" fill="srgba(99.4827%,99.7772%,99.3957%,1)"/>
  <circle cx="10" cy="11" r="1" fill="srgba(98.8602%,99.4308%,98.6969%,1)"/>
  <circle cx="11" cy="11" r="1" fill="srgba(97.1252%,98.5687%,96.7132%,1)"/>
  <circle cx="12" cy="11" r="1" fill="white"/>
  <circle cx="13" cy="11" r="1" fill="white"/>
  <circle cx="14" cy="11" r="1" fill="white"/>
  <circle cx="15" cy="11" r="1" fill="white"/>
  <circle cx="0" cy="12" r="1" fill="srgba(25,157,0,1)"/>
  <circle cx="1" cy="12" r="1" fill="srgba(25,157,0,1)"/>
  <circle cx="2" cy="12" r="1" fill="srgba(8.35279%,60.9506%,0%,1)"/>
  <circle cx="3" cy="12" r="1" fill="srgba(35.5886%,72.5551%,28.5878%,1)"/>
  <circle cx="4" cy="12" r="1" fill="srgba(97.9553%,99.1287%,97.734%,1)"/>
  <circle cx="5" cy="12" r="1" fill="white"/>
  <circle cx="6" cy="12" r="1" fill="srgba(90.7317%,96.0555%,89.8177%,1)"/>
  <circle cx="7" cy="12" r="1" fill="srgba(54.6914%,80.6043%,49.6986%,1)"/>
  <circle cx="8" cy="12" r="1" fill="srgba(78.0957%,90.3655%,74.4289%,1)"/>
  <circle cx="9" cy="12" r="1" fill="white"/>
  <circle cx="10" cy="12" r="1" fill="srgba(93.8949%,96.9604%,93.0175%,1)"/>
  <circle cx="11" cy="12" r="1" fill="srgba(68.5206%,84.3305%,64.004%,1)"/>
  <circle cx="12" cy="12" r="1" fill="srgba(98.1201%,99.0646%,97.8515%,1)"/>
  <circle cx="13" cy="12" r="1" fill="white"/>
  <circle cx="14" cy="12" r="1" fill="white"/>
  <circle cx="15" cy="12" r="1" fill="white"/>
  <circle cx="0" cy="13" r="1" fill="srgba(25,157,0,1)"/>
  <circle cx="1" cy="13" r="1" fill="srgba(25,157,0,1)"/>
  <circle cx="2" cy="13" r="1" fill="srgba(8.34668%,60.9476%,0%,1)"/>
  <circle cx="3" cy="13" r="1" fill="srgba(35.7916%,72.6421%,28.8121%,1)"/>
  <circle cx="4" cy="13" r="1" fill="srgba(98.0224%,99.1577%,97.8073%,1)"/>
  <circle cx="5" cy="13" r="1" fill="white"/>
  <circle cx="6" cy="13" r="1" fill="srgba(93.1533%,97.0855%,92.4163%,1)"/>
  <circle cx="7" cy="13" r="1" fill="srgba(73.2738%,88.5847%,70.248%,1)"/>
  <circle cx="8" cy="13" r="1" fill="srgba(91.4504%,96.2448%,90.0389%,1)"/>
  <circle cx="9" cy="13" r="1" fill="white"/>
  <circle cx="10" cy="13" r="1" fill="srgba(94.5617%,97.293%,93.8476%,1)"/>
  <circle cx="11" cy="13" r="1" fill="srgba(37.2396%,68.7617%,28.7114%,1)"/>
  <circle cx="12" cy="13" r="1" fill="srgba(77.673%,88.8869%,74.4869%,1)"/>
  <circle cx="13" cy="13" r="1" fill="white"/>
  <circle cx="14" cy="13" r="1" fill="white"/>
  <circle cx="15" cy="13" r="1" fill="white"/>
  <circle cx="0" cy="14" r="1" fill="srgba(9.79782%,61.5656%,0%,1)"/>
  <circle cx="1" cy="14" r="1" fill="srgba(9.79782%,61.5656%,0%,1)"/>
  <circle cx="2" cy="14" r="1" fill="srgba(8.336%,60.943%,0%,1)"/>
  <circle cx="3" cy="14" r="1" fill="srgba(35.8953%,72.6864%,29.0394%,1)"/>
  <circle cx="4" cy="14" r="1" fill="srgba(98.0667%,99.176%,97.8759%,1)"/>
  <circle cx="5" cy="14" r="1" fill="white"/>
  <circle cx="6" cy="14" r="1" fill="srgba(98.8205%,99.498%,98.6954%,1)"/>
  <circle cx="7" cy="14" r="1" fill="srgba(95.8495%,98.2086%,95.317%,1)"/>
  <circle cx="8" cy="14" r="1" fill="srgba(92.9397%,96.8902%,91.812%,1)"/>
  <circle cx="9" cy="14" r="1" fill="white"/>
  <circle cx="10" cy="14" r="1" fill="srgba(95.8801%,97.9492%,95.2728%,1)"/>
  <circle cx="11" cy="14" r="1" fill="srgba(31.0384%,65.6733%,21.4328%,1)"/>
  <circle cx="12" cy="14" r="1" fill="srgba(37.8103%,69.0455%,29.192%,1)"/>
  <circle cx="13" cy="14" r="1" fill="srgba(95.5947%,97.8073%,94.9462%,1)"/>
  <circle cx="14" cy="14" r="1" fill="white"/>
  <circle cx="15" cy="14" r="1" fill="white"/>
  <circle cx="0" cy="15" r="1" fill="srgba(9.91989%,61.622%,0.131228%,1)"/>
  <circle cx="1" cy="15" r="1" fill="srgba(9.91989%,61.622%,0.131228%,1)"/>
  <circle cx="2" cy="15" r="1" fill="srgba(8.42756%,60.9857%,0%,1)"/>
  <circle cx="3" cy="15" r="1" fill="srgba(39.8398%,74.3694%,33.3028%,1)"/>
  <circle cx="4" cy="15" r="1" fill="srgba(98.9273%,99.5453%,98.8113%,1)"/>
  <circle cx="5" cy="15" r="1" fill="white"/>
  <circle cx="6" cy="15" r="1" fill="white"/>
  <circle cx="7" cy="15" r="1" fill="srgba(98.4512%,99.3194%,98.1888%,1)"/>
  <circle cx="8" cy="15" r="1" fill="srgba(93.1441%,96.9833%,91.9829%,1)"/>
  <circle cx="9" cy="15" r="1" fill="white"/>
  <circle cx="10" cy="15" r="1" fill="srgba(96.6293%,98.3215%,96.1456%,1)"/>
  <circle cx="11" cy="15" r="1" fill="srgba(33.7652%,67.0283%,24.2695%,1)"/>
  <circle cx="12" cy="15" r="1" fill="srgba(13.753%,57.0657%,1.84787%,1)"/>
  <circle cx="13" cy="15" r="1" fill="srgba(71.0796%,85.6046%,67.01%,1)"/>
  <circle cx="14" cy="15" r="1" fill="white"/>
  <circle cx="15" cy="15" r="1" fill="white"/>
</svg>
