<?xml version="1.0" standalone="no"?>
<!DOCTYPE svg PUBLIC "-//W3C//DTD SVG 20010904//EN"
  "http://www.w3.org/TR/2001/REC-SVG-20010904/DTD/svg10.dtd">
<svg width="16" height="16">
  <circle cx="0" cy="0" r="1" fill="srgba(0%,0%,83.8834%,1)"/>
  <circle cx="1" cy="0" r="1" fill="srgba(3.93072%,3.93072%,84.4953%,1)"/>
  <circle cx="2" cy="0" r="1" fill="srgba(13.9651%,13.9651%,86.1509%,1)"/>
  <circle cx="3" cy="0" r="1" fill="srgba(0.859083%,0.859083%,84.0604%,1)"/>
  <circle cx="4" cy="0" r="1" fill="srgba(0.0350958%,0.0350958%,83.9277%,1)"/>
  <circle cx="5" cy="0" r="1" fill="srgba(0,0,214,1)"/>
  <circle cx="6" cy="0" r="1" fill="srgba(0.0457771%,0.0457771%,83.9231%,1)"/>
  <circle cx="7" cy="0" r="1" fill="srgba(0.0198367%,0.0198367%,83.8437%,1)"/>
  <circle cx="8" cy="0" r="1" fill="srgba(0%,0%,83.8346%,1)"/>
  <circle cx="9" cy="0" r="1" fill="srgba(0%,0%,83.9246%,1)"/>
  <circle cx="10" cy="0" r="1" fill="srgba(0,0,214,1)"/>
  <circle cx="11" cy="0" r="1" fill="srgba(0,0,214,1)"/>
  <circle cx="12" cy="0" r="1" fill="srgba(0,0,214,1)"/>
  <circle cx="13" cy="0" r="1" fill="srgba(0,0,214,1)"/>
  <circle cx="14" cy="0" r="1" fill="srgba(0,0,214,1)"/>
  <circle cx="15" cy="0" r="1" fill="srgba(0.030518%,0.030518%,83.9292%,1)"/>
  <circle cx="0" cy="1" r="1" fill="srgba(1.38705%,1.38705%,84.1444%,1)"/>
  <circle cx="1" cy="1" r="1" fill="srgba(17.3861%,17.3861%,86.7185%,1)"/>
  <circle cx="2" cy="1" r="1" fill="srgba(64.7272%,64.7272%,94.3297%,1)"/>
  <circle cx="3" cy="1" r="1" fill="srgba(21.0666%,21.0666%,87.3075%,1)"/>
  <circle cx="4" cy="1" r="1" fill="srgba(0%,0%,83.8605%,1)"/>
  <circle cx="5" cy="1" r="1" fill="srgba(0%,0%,83.9017%,1)"/>
  <circle cx="6" cy="1" r="1" fill="srgba(1.80056%,1.80056%,84.2115%,1)"/>
  <circle cx="7" cy="1" r="1" fill="srgba(9.83291%,9.83291%,85.4948%,1)"/>
  <circle cx="8" cy="1" r="1" fill="srgba(11.6091%,11.6091%,85.7359%,1)"/>
  <circle cx="9" cy="1" r="1" fill="srgba(0%,0%,83.8865%,1)"/>
  <circle cx="10" cy="1" r="1" fill="srgba(0.0167849%,0.0167849%,83.9246%,1)"/>
  <circle cx="11" cy="1" r="1" fill="srgba(0,0,214,1)"/>
  <circle cx="12" cy="1" r="1" fill="srgba(0,0,214,1)"/>
  <circle cx="13" cy="1" r="1" fill="srgba(0,0,214,1)"/>
  <circle cx="14" cy="1" r="1" fill="srgba(0,0,214,1)"/>
  <circle cx="15" cy="1" r="1" fill="srgba(0.030518%,0.030518%,83.9292%,1)"/>
  <circle cx="0" cy="2" r="1" fill="srgba(0.544747%,0.544747%,84.0085%,1)"/>
  <circle cx="1" cy="2" r="1" fill="srgba(29.4728%,29.4728%,88.6595%,1)"/>
  <circle cx="2" cy="2" r="1" fill="srgba(53.8216%,53.8216%,92.5765%,1)"/>
  <circle cx="3" cy="2" r="1" fill="srgba(11.7876%,11.7876%,85.8076%,1)"/>
  <circle cx="4" cy="2" r="1" fill="srgba(0%,0%,83.772%,1)"/>
  <circle cx="5" cy="2" r="1" fill="srgba(0%,0%,83.8651%,1)"/>
  <circle cx="6" cy="2" r="1" fill="srgba(0.347906%,0.347906%,83.978%,1)"/>
  <circle cx="7" cy="2" r="1" fill="srgba(47.8218%,47.8218%,91.6106%,1)"/>
  <circle cx="8" cy="2" r="1" fill="srgba(70.4723%,70.4723%,95.2499%,1)"/>
  <circle cx="9" cy="2" r="1" fill="srgba(18.114%,18.114%,86.8299%,1)"/>
  <circle cx="10" cy="2" r="1" fill="srgba(0%,0%,83.8605%,1)"/>
  <circle cx="11" cy="2" r="1" fill="srgba(0%,0%,83.92%,1)"/>
  <circle cx="12" cy="2" r="1" fill="srgba(0,0,214,1)"/>
  <circle cx="13" cy="2" r="1" fill="srgba(0,0,214,1)"/>
  <circle cx="14" cy="2" r="1" fill="srgba(0,0,214,1)"/>
  <circle cx="15" cy="2" r="1" fill="srgba(0.030518%,0.030518%,83.9292%,1)"/>
  <circle cx="0" cy="3" r="1" fill="srgba(0.28687%,0.28687%,83.9673%,1)"/>
  <circle cx="1" cy="3" r="1" fill="srgba(3.4165%,3.4165%,84.4388%,1)"/>
  <circle cx="2" cy="3" r="1" fill="srgba(2.46738%,2.46738%,84.2435%,1)"/>
  <circle cx="3" cy="3" r="1" fill="srgba(2.9984%,2.9984%,84.4053%,1)"/>
  <circle cx="4" cy="3" r="1" fill="srgba(3.99176%,3.99176%,84.4984%,1)"/>
  <circle cx="5" cy="3" r="1" fill="srgba(4.93324%,4.93324%,84.5579%,1)"/>
  <circle cx="6" cy="3" r="1" fill="srgba(0%,0%,83.7644%,1)"/>
  <circle cx="7" cy="3" r="1" fill="srgba(24.2481%,24.2481%,87.8172%,1)"/>
  <circle cx="8" cy="3" r="1" fill="srgba(57.2534%,57.2534%,93.1273%,1)"/>
  <circle cx="9" cy="3" r="1" fill="srgba(12.0775%,12.0775%,85.8625%,1)"/>
  <circle cx="10" cy="3" r="1" fill="srgba(0%,0%,83.8178%,1)"/>
  <circle cx="11" cy="3" r="1" fill="srgba(0,0,214,1)"/>
  <circle cx="12" cy="3" r="1" fill="srgba(0,0,214,1)"/>
  <circle cx="13" cy="3" r="1" fill="srgba(0,0,214,1)"/>
  <circle cx="14" cy="3" r="1" fill="srgba(0,0,214,1)"/>
  <circle cx="15" cy="3" r="1" fill="srgba(0.030518%,0.030518%,83.9292%,1)"/>
  <circle cx="0" cy="4" r="1" fill="srgba(0%,0%,83.9109%,1)"/>
  <circle cx="1" cy="4" r="1" fill="srgba(0%,0%,83.8773%,1)"/>
  <circle cx="2" cy="4" r="1" fill="srgba(0%,0%,83.8682%,1)"/>
  <circle cx="3" cy="4" r="1" fill="srgba(0.669871%,0.669871%,84.0116%,1)"/>
  <circle cx="4" cy="4" r="1" fill="srgba(36.0693%,36.0693%,89.7215%,1)"/>
  <circle cx="5" cy="4" r="1" fill="srgba(54.2199%,54.2199%,92.6406%,1)"/>
  <circle cx="6" cy="4" r="1" fill="srgba(13.283%,13.283%,86.0517%,1)"/>
  <circle cx="7" cy="4" r="1" fill="srgba(0%,0%,83.7003%,1)"/>
  <circle cx="8" cy="4" r="1" fill="srgba(3.68658%,3.68658%,84.4144%,1)"/>
  <circle cx="9" cy="4" r="1" fill="srgba(2.40024%,2.40024%,84.3061%,1)"/>
  <circle cx="10" cy="4" r="1" fill="srgba(0%,0%,83.8987%,1)"/>
  <circle cx="11" cy="4" r="1" fill="srgba(0,0,214,1)"/>
  <circle cx="12" cy="4" r="1" fill="srgba(0,0,214,1)"/>
  <circle cx="13" cy="4" r="1" fill="srgba(0,0,214,1)"/>
  <circle cx="14" cy="4" r="1" fill="srgba(0,0,214,1)"/>
  <circle cx="15" cy="4" r="1" fill="srgba(0.030518%,0.030518%,83.9292%,1)"/>
  <circle cx="0" cy="5" r="1" fill="srgba(0.801099%,0.801099%,84.0528%,1)"/>
  <circle cx="1" cy="5" r="1" fill="srgba(1.57931%,1.57931%,84.0925%,1)"/>
  <circle cx="2" cy="5" r="1" fill="srgba(1.70291%,1.70291%,84.062%,1)"/>
  <circle cx="3" cy="5" r="1" fill="srgba(0%,0%,83.7781%,1)"/>
  <circle cx="4" cy="5" r="1" fill="srgba(37.1862%,37.1862%,89.8894%,1)"/>
  <circle cx="5" cy="5" r="1" fill="srgba(74.5983%,74.5983%,95.9167%,1)"/>
  <circle cx="6" cy="5" r="1" fill="srgba(18.6435%,18.6435%,86.9215%,1)"/>
  <circle cx="7" cy="5" r="1" fill="srgba(0.894179%,0.894179%,83.9796%,1)"/>
  <circle cx="8" cy="5" r="1" fill="srgba(1.66323%,1.66323%,84.0177%,1)"/>
  <circle cx="9" cy="5" r="1" fill="srgba(0%,0%,83.8087%,1)"/>
  <circle cx="10" cy="5" r="1" fill="srgba(0%,0%,83.9231%,1)"/>
  <circle cx="11" cy="5" r="1" fill="srgba(0,0,214,1)"/>
  <circle cx="12" cy="5" r="1" fill="srgba(0,0,214,1)"/>
  <circle cx="13" cy="5" r="1" fill="srgba(0,0,214,1)"/>
  <circle cx="14" cy="5" r="1" fill="srgba(0%,0%,83.92%,1)"/>
  <circle cx="15" cy="5" r="1" fill="srgba(0.0244144%,0.0259403%,83.9689%,1)"/>
  <circle cx="0" cy="6" r="1" fill="srgba(1.44198%,1.44198%,84.1535%,1)"/>
  <circle cx="1" cy="6" r="1" fill="srgba(26.4042%,26.4042%,88.1682%,1)"/>
  <circle cx="2" cy="6" r="1" fill="srgba(37.9721%,37.9721%,90.0267%,1)"/>
  <circle cx="3" cy="6" r="1" fill="srgba(7.34264%,7.34264%,85.098%,1)"/>
  <circle cx="4" cy="6" r="1" fill="srgba(0.231937%,0.231937%,83.8956%,1)"/>
  <circle cx="5" cy="6" r="1" fill="srgba(11.6121%,11.6121%,85.774%,1)"/>
  <circle cx="6" cy="6" r="1" fill="srgba(6.82536%,6.82536%,84.9821%,1)"/>
  <circle cx="7" cy="6" r="1" fill="srgba(27.3655%,27.3655%,88.3192%,1)"/>
  <circle cx="8" cy="6" r="1" fill="srgba(37.171%,37.171%,89.897%,1)"/>
  <circle cx="9" cy="6" r="1" fill="srgba(6.93523%,6.93523%,85.0355%,1)"/>
  <circle cx="10" cy="6" r="1" fill="srgba(0%,0%,83.9124%,1)"/>
  <circle cx="11" cy="6" r="1" fill="srgba(0,0,214,1)"/>
  <circle cx="12" cy="6" r="1" fill="srgba(0%,0%,83.917%,1)"/>
  <circle cx="13" cy="6" r="1" fill="srgba(0%,0%,83.9994%,1)"/>
  <circle cx="14" cy="6" r="1" fill="srgba(0%,0%,84.8371%,1)"/>
  <circle cx="15" cy="6" r="1" fill="srgba(0.727855%,0.588998%,84.0604%,1)"/>
  <circle cx="0" cy="7" r="1" fill="srgba(0%,0%,83.8605%,1)"/>
  <circle cx="1" cy="7" r="1" fill="srgba(45.6931%,45.6931%,91.2612%,1)"/>
  <circle cx="2" cy="7" r="1" fill="srgba(81.8967%,81.8967%,97.0886%,1)"/>
  <circle cx="3" cy="7" r="1" fill="srgba(20.6027%,20.6027%,87.2328%,1)"/>
  <circle cx="4" cy="7" r="1" fill="srgba(0%,0%,83.8148%,1)"/>
  <circle cx="5" cy="7" r="1" fill="srgba(0%,0%,83.8087%,1)"/>
  <circle cx="6" cy="7" r="1" fill="srgba(0%,0%,83.8712%,1)"/>
  <circle cx="7" cy="7" r="1" fill="srgba(48.0674%,48.0674%,91.6426%,1)"/>
  <circle cx="8" cy="7" r="1" fill="srgba(81.091%,81.091%,96.9604%,1)"/>
  <circle cx="9" cy="7" r="1" fill="srgba(19.1287%,19.1287%,86.9963%,1)"/>
  <circle cx="10" cy="7" r="1" fill="srgba(0%,0%,83.8148%,1)"/>
  <circle cx="11" cy="7" r="1" fill="srgba(0%,0%,83.9979%,1)"/>
  <circle cx="12" cy="7" r="1" fill="srgba(0%,0%,84.8951%,1)"/>
  <circle cx="13" cy="7" r="1" fill="srgba(1.24056%,0.993362%,83.5142%,1)"/>
  <circle cx="14" cy="7" r="1" fill="srgba(19.7879%,15.8267%,67.3014%,1)"/>
  <circle cx="15" cy="7" r="1" fill="srgba(55.1293%,43.9429%,38.0438%,1)"/>
  <circle cx="0" cy="8" r="1" fill="srgba(0%,0%,83.9033%,1)"/>
  <circle cx="1" cy="8" r="1" fill="srgba(3.59808%,3.59808%,84.4999%,1)"/>
  <circle cx="2" cy="8" r="1" fill="srgba(23.6545%,23.6545%,87.7165%,1)"/>
  <circle cx="3" cy="8" r="1" fill="srgba(7.7409%,7.7409%,85.1133%,1)"/>
  <circle cx="4" cy="8" r="1" fill="srgba(0%,0%,83.8453%,1)"/>
  <circle cx="5" cy="8" r="1" fill="srgba(0,0,214,1)"/>
  <circle cx="6" cy="8" r="1" fill="srgba(0%,0%,83.9048%,1)"/>
  <circle cx="7" cy="8" r="1" fill="srgba(3.96735%,3.96735%,84.5594%,1)"/>
  <circle cx="8" cy="8" r="1" fill="srgba(23.9322%,23.9322%,87.7562%,1)"/>
  <circle cx="9" cy="8" r="1" fill="srgba(7.07561%,7.07561%,85.0828%,1)"/>
  <circle cx="10" cy="8" r="1" fill="srgba(0%,0%,84.8234%,1)"/>
  <circle cx="11" cy="8" r="1" fill="srgba(1.22683%,0.981155%,83.5325%,1)"/>
  <circle cx="12" cy="8" r="1" fill="srgba(19.1791%,15.3445%,67.808%,1)"/>
  <circle cx="13" cy="8" r="1" fill="srgba(58.4573%,46.54%,35.3689%,1)"/>
  <circle cx="14" cy="8" r="1" fill="srgba(91.9219%,73.1365%,7.75158%,1)"/>
  <circle cx="15" cy="8" r="1" fill="srgba(94.435%,78.1125%,0%,1)"/>
  <circle cx="0" cy="9" r="1" fill="srgba(0%,0%,83.9231%,1)"/>
  <circle cx="1" cy="9" r="1" fill="srgba(0%,0%,83.8834%,1)"/>
  <circle cx="2" cy="9" r="1" fill="srgba(0.105287%,0.105287%,83.7766%,1)"/>
  <circle cx="3" cy="9" r="1" fill="srgba(0.161746%,0.161746%,83.9231%,1)"/>
  <circle cx="4" cy="9" r="1" fill="srgba(0,0,214,1)"/>
  <circle cx="5" cy="9" r="1" fill="srgba(0,0,214,1)"/>
  <circle cx="6" cy="9" r="1" fill="srgba(0%,0%,83.9185%,1)"/>
  <circle cx="7" cy="9" r="1" fill="srgba(0%,0%,83.9551%,1)"/>
  <circle cx="8" cy="9" r="1" fill="srgba(0%,0%,84.7456%,1)"/>
  <circle cx="9" cy="9" r="1" fill="srgba(1.20546%,0.978103%,83.5538%,1)"/>
  <circle cx="10" cy="9" r="1" fill="srgba(19.0845%,15.2682%,67.8843%,1)"/>
  <circle cx="11" cy="9" r="1" fill="srgba(58.3276%,46.4347%,35.4788%,1)"/>
  <circle cx="12" cy="9" r="1" fill="srgba(91.9921%,73.1136%,7.86297%,1)"/>
  <circle cx="13" cy="9" r="1" fill="srgba(92.4651%,77.2717%,0%,1)"/>
  <circle cx="14" cy="9" r="1" fill="srgba(59.0066%,62.8717%,0%,1)"/>
  <circle cx="15" cy="9" r="1" fill="srgba(22.2873%,47.0848%,0.0289921%,1)"/>
  <circle cx="0" cy="10" r="1" fill="srgba(0,0,214,1)"/>
  <circle cx="1" cy="10" r="1" fill="srgba(0,0,214,1)"/>
  <circle cx="2" cy="10" r="1" fill="srgba(0,0,214,1)"/>
  <circle cx="3" cy="10" r="1" fill="srgba(0,0,214,1)"/>
  <circle cx="4" cy="10" r="1" fill="srgba(0%,0%,83.917%,1)"/>
  <circle cx="5" cy="10" r="1" fill="srgba(0%,0%,83.9948%,1)"/>
  <circle cx="6" cy="10" r="1" fill="srgba(0%,0%,84.8859%,1)"/>
  <circle cx="7" cy="10" r="1" fill="srgba(1.18715%,0.950637%,83.5706%,1)"/>
  <circle cx="8" cy="10" r="1" fill="srgba(18.9776%,15.1812%,67.9713%,1)"/>
  <circle cx="9" cy="10" r="1" fill="srgba(58.2086%,46.334%,35.5764%,1)"/>
  <circle cx="10" cy="10" r="1" fill="srgba(91.9234%,73.0587%,7.91791%,1)"/>
  <circle cx="11" cy="10" r="1" fill="srgba(92.4559%,77.2671%,0%,1)"/>
  <circle cx="12" cy="10" r="1" fill="srgba(59.4232%,63.0579%,0%,1)"/>
  <circle cx="13" cy="10" r="1" fill="srgba(19.9359%,46.1021%,0%,1)"/>
  <circle cx="14" cy="10" r="1" fill="srgba(1.37179%,37.9217%,0%,1)"/>
  <circle cx="15" cy="10" r="1" fill="srgba(0%,37.0993%,0.030518%,1)"/>
  <circle cx="0" cy="11" r="1" fill="srgba(0,0,214,1)"/>
  <circle cx="1" cy="11" r="1" fill="srgba(0,0,214,1)"/>
  <circle cx="2" cy="11" r="1" fill="srgba(0%,0%,83.917%,1)"/>
  <circle cx="3" cy="11" r="1" fill="srgba(0%,0%,83.9933%,1)"/>
  <circle cx="4" cy="11" r="1" fill="srgba(0%,0%,84.8814%,1)"/>
  <circle cx="5" cy="11" r="1" fill="srgba(1.16579%,0.932326%,83.592%,1)"/>
  <circle cx="6" cy="11" r="1" fill="srgba(18.8907%,15.1125%,68.0476%,1)"/>
  <circle cx="7" cy="11" r="1" fill="srgba(58.0819%,46.2379%,35.6863%,1)"/>
  <circle cx="8" cy="11" r="1" fill="srgba(91.8502%,72.9992%,7.97589%,1)"/>
  <circle cx="9" cy="11" r="1" fill="srgba(92.4453%,77.261%,0%,1)"/>
  <circle cx="10" cy="11" r="1" fill="srgba(59.4217%,63.061%,0%,1)"/>
  <circle cx="11" cy="11" r="1" fill="srgba(19.9298%,46.1021%,0%,1)"/>
  <circle cx="12" cy="11" r="1" fill="srgba(1.38247%,37.9248%,0%,1)"/>
  <circle cx="13" cy="11" r="1" fill="srgba(0%,37.142%,0%,1)"/>
  <circle cx="14" cy="11" r="1" fill="srgba(0%,37.6028%,0%,1)"/>
  <circle cx="15" cy="11" r="1" fill="srgba(0.030518%,37.6654%,0.030518%,1)"/>
  <circle cx="0" cy="12" r="1" fill="srgba(0%,0%,83.917%,1)"/>
  <circle cx="1" cy="12" r="1" fill="srgba(0%,0%,83.9918%,1)"/>
  <circle cx="2" cy="12" r="1" fill="srgba(0%,0%,84.8783%,1)"/>
  <circle cx="3" cy="12" r="1" fill="srgba(1.149%,0.918593%,83.6103%,1)"/>
  <circle cx="4" cy="12" r="1" fill="srgba(18.793%,15.0332%,68.1285%,1)"/>
  <circle cx="5" cy="12" r="1" fill="srgba(57.9507%,46.1295%,35.7961%,1)"/>
  <circle cx="6" cy="12" r="1" fill="srgba(91.7754%,72.9412%,8.0354%,1)"/>
  <circle cx="7" cy="12" r="1" fill="srgba(92.3949%,77.2335%,0%,1)"/>
  <circle cx="8" cy="12" r="1" fill="srgba(59.3591%,63.0289%,0%,1)"/>
  <circle cx="9" cy="12" r="1" fill="srgba(19.9222%,46.1006%,0%,1)"/>
  <circle cx="10" cy="12" r="1" fill="srgba(1.38094%,37.9248%,0%,1)"/>
  <circle cx="11" cy="12" r="1" fill="srgba(0%,37.142%,0%,1)"/>
  <circle cx="12" cy="12" r="1" fill="srgba(0%,37.6028%,0%,1)"/>
  <circle cx="13" cy="12" r="1" fill="srgba(0%,37.6501%,0%,1)"/>
  <circle cx="14" cy="12" r="1" fill="srgba(0%,37.6455%,0%,1)"/>
  <circle cx="15" cy="12" r="1" fill="srgba(0.030518%,37.6623%,0.030518%,1)"/>
  <circle cx="0" cy="13" r="1" fill="srgba(0%,0%,84.9866%,1)"/>
  <circle cx="1" cy="13" r="1" fill="srgba(1.12154%,0.89723%,83.6316%,1)"/>
  <circle cx="2" cy="13" r="1" fill="srgba(18.6969%,14.9599%,68.2124%,1)"/>
  <circle cx="3" cy="13" r="1" fill="srgba(57.8164%,46.0243%,35.9121%,1)"/>
  <circle cx="4" cy="13" r="1" fill="srgba(91.7113%,72.8893%,8.08728%,1)"/>
  <circle cx="5" cy="13" r="1" fill="srgba(92.3842%,77.2274%,0%,1)"/>
  <circle cx="6" cy="13" r="1" fill="srgba(59.3362%,63.0228%,0%,1)"/>
  <circle cx="7" cy="13" r="1" fill="srgba(19.8581%,46.067%,0%,1)"/>
  <circle cx="8" cy="13" r="1" fill="srgba(1.36721%,37.9156%,0%,1)"/>
  <circle cx="9" cy="13" r="1" fill="srgba(0%,37.142%,0%,1)"/>
  <circle cx="10" cy="13" r="1" fill="srgba(0%,37.6028%,0%,1)"/>
  <circle cx="11" cy="13" r="1" fill="srgba(0%,37.6501%,0%,1)"/>
  <circle cx="12" cy="13" r="1" fill="srgba(0,96,0,1)"/>
  <circle cx="13" cy="13" r="1" fill="srgba(0,96,0,1)"/>
  <circle cx="14" cy="13" r="1" fill="srgba(0%,37.6455%,0%,1)"/>
  <circle cx="15" cy="13" r="1" fill="srgba(0.030518%,37.6623%,0.030518%,1)"/>
  <circle cx="0" cy="14" r="1" fill="srgba(21.3931%,17.1145%,65.9556%,1)"/>
  <circle cx="1" cy="14" r="1" fill="srgba(57.1649%,45.6641%,36.0876%,1)"/>
  <circle cx="2" cy="14" r="1" fill="srgba(90.9133%,72.5521%,8.07813%,1)"/>
  <circle cx="3" cy="14" r="1" fill="srgba(91.6564%,76.9131%,0%,1)"/>
  <circle cx="4" cy="14" r="1" fill="srgba(58.8678%,62.8244%,0%,1)"/>
  <circle cx="5" cy="14" r="1" fill="srgba(19.6933%,45.9983%,0%,1)"/>
  <circle cx="6" cy="14" r="1" fill="srgba(1.35195%,37.9095%,0%,1)"/>
  <circle cx="7" cy="14" r="1" fill="srgba(0%,37.142%,0%,1)"/>
  <circle cx="8" cy="14" r="1" fill="srgba(0%,37.5998%,0%,1)"/>
  <circle cx="9" cy="14" r="1" fill="srgba(0%,37.6455%,0%,1)"/>
  <circle cx="10" cy="14" r="1" fill="srgba(0%,37.6425%,0%,1)"/>
  <circle cx="11" cy="14" r="1" fill="srgba(0%,37.6425%,0%,1)"/>
  <circle cx="12" cy="14" r="1" fill="srgba(0%,37.6425%,0%,1)"/>
  <circle cx="13" cy="14" r="1" fill="srgba(0%,37.6425%,0%,1)"/>
  <circle cx="14" cy="14" r="1" fill="srgba(0%,37.641%,0%,1)"/>
  <circle cx="15" cy="14" r="1" fill="srgba(0.030518%,37.6577%,0.030518%,1)"/>
  <circle cx="0" cy="15" r="1" fill="srgba(91.3436%,73.1136%,7.49523%,1)"/>
  <circle cx="1" cy="15" r="1" fill="srgba(97.8775%,79.8581%,0.199893%,1)"/>
  <circle cx="2" cy="15" r="1" fill="srgba(67.631%,66.627%,0.0030518%,1)"/>
  <circle cx="3" cy="15" r="1" fill="srgba(22.7115%,47.306%,0.117494%,1)"/>
  <circle cx="4" cy="15" r="1" fill="srgba(1.61135%,38.0377%,0.132753%,1)"/>
  <circle cx="5" cy="15" r="1" fill="srgba(0%,37.1588%,0.131228%,1)"/>
  <circle cx="6" cy="15" r="1" fill="srgba(0.0808728%,37.6822%,0.131228%,1)"/>
  <circle cx="7" cy="15" r="1" fill="srgba(0.132753%,37.734%,0.131228%,1)"/>
  <circle cx="8" cy="15" r="1" fill="srgba(0.131228%,37.731%,0.131228%,1)"/>
  <circle cx="9" cy="15" r="1" fill="srgba(0.131228%,37.731%,0.131228%,1)"/>
  <circle cx="10" cy="15" r="1" fill="srgba(0.131228%,37.731%,0.131228%,1)"/>
  <circle cx="11" cy="15" r="1" fill="srgba(0.131228%,37.731%,0.131228%,1)"/>
  <circle cx="12" cy="15" r="1" fill="srgba(0.131228%,37.731%,0.131228%,1)"/>
  <circle cx="13" cy="15" r="1" fill="srgba(0.131228%,37.731%,0.131228%,1)"/>
  <circle cx="14" cy="15" r="1" fill="srgba(0.129702%,37.7295%,0.129702%,1)"/>
  <circle cx="15" cy="15" r="1" fill="srgba(0.161746%,37.7462%,0.161746%,1)"/>
</svg>
