<?xml version="1.0" standalone="no"?>
<!DOCTYPE svg PUBLIC "-//W3C//DTD SVG 20010904//EN"
  "http://www.w3.org/TR/2001/REC-SVG-20010904/DTD/svg10.dtd">
<svg width="16" height="16">
  <circle cx="0" cy="0" r="1" fill="srgba(0,0,153,1)"/>
  <circle cx="1" cy="0" r="1" fill="srgba(0,0,153,1)"/>
  <circle cx="2" cy="0" r="1" fill="srgba(0,0,153,1)"/>
  <circle cx="3" cy="0" r="1" fill="srgba(0,0,153,1)"/>
  <circle cx="4" cy="0" r="1" fill="srgba(0,0,153,1)"/>
  <circle cx="5" cy="0" r="1" fill="srgba(0,0,153,1)"/>
  <circle cx="6" cy="0" r="1" fill="srgba(0,0,153,1)"/>
  <circle cx="7" cy="0" r="1" fill="srgba(0%,0%,59.9924%,1)"/>
  <circle cx="8" cy="0" r="1" fill="srgba(0%,0%,60.6836%,1)"/>
  <circle cx="9" cy="0" r="1" fill="srgba(17.4029%,17.055%,49.8619%,1)"/>
  <circle cx="10" cy="0" r="1" fill="srgba(87.9957%,87.6967%,7.1931%,1)"/>
  <circle cx="11" cy="0" r="1" fill="yellow"/>
  <circle cx="12" cy="0" r="1" fill="yellow"/>
  <circle cx="13" cy="0" r="1" fill="yellow"/>
  <circle cx="14" cy="0" r="1" fill="yellow"/>
  <circle cx="15" cy="0" r="1" fill="yellow"/>
  <circle cx="0" cy="1" r="1" fill="srgba(0,0,153,1)"/>
  <circle cx="1" cy="1" r="1" fill="srgba(0,0,153,1)"/>
  <circle cx="2" cy="1" r="1" fill="srgba(0,0,153,1)"/>
  <circle cx="3" cy="1" r="1" fill="srgba(0,0,153,1)"/>
  <circle cx="4" cy="1" r="1" fill="srgba(0,0,153,1)"/>
  <circle cx="5" cy="1" r="1" fill="srgba(0,0,153,1)"/>
  <circle cx="6" cy="1" r="1" fill="srgba(0,0,153,1)"/>
  <circle cx="7" cy="1" r="1" fill="srgba(0%,0%,60.1419%,1)"/>
  <circle cx="8" cy="1" r="1" fill="srgba(2.62913%,2.50706%,58.732%,1)"/>
  <circle cx="9" cy="1" r="1" fill="srgba(60.5905%,60.1236%,23.6835%,1)"/>
  <circle cx="10" cy="1" r="1" fill="yellow"/>
  <circle cx="11" cy="1" r="1" fill="yellow"/>
  <circle cx="12" cy="1" r="1" fill="yellow"/>
  <circle cx="13" cy="1" r="1" fill="yellow"/>
  <circle cx="14" cy="1" r="1" fill="yellow"/>
  <circle cx="15" cy="1" r="1" fill="yellow"/>
  <circle cx="0" cy="2" r="1" fill="srgba(0,0,153,1)"/>
  <circle cx="1" cy="2" r="1" fill="srgba(0,0,153,1)"/>
  <circle cx="2" cy="2" r="1" fill="srgba(0,0,153,1)"/>
  <circle cx="3" cy="2" r="1" fill="srgba(0,0,153,1)"/>
  <circle cx="4" cy="2" r="1" fill="srgba(0,0,153,1)"/>
  <circle cx="5" cy="2" r="1" fill="srgba(0,0,153,1)"/>
  <circle cx="6" cy="2" r="1" fill="srgba(0%,0%,59.9969%,1)"/>
  <circle cx="7" cy="2" r="1" fill="srgba(0%,0%,60.7797%,1)"/>
  <circle cx="8" cy="2" r="1" fill="srgba(33.6614%,33.2143%,39.9634%,1)"/>
  <circle cx="9" cy="2" r="1" fill="srgba(95.6497%,95.4849%,2.60014%,1)"/>
  <circle cx="10" cy="2" r="1" fill="yellow"/>
  <circle cx="11" cy="2" r="1" fill="yellow"/>
  <circle cx="12" cy="2" r="1" fill="yellow"/>
  <circle cx="13" cy="2" r="1" fill="yellow"/>
  <circle cx="14" cy="2" r="1" fill="yellow"/>
  <circle cx="15" cy="2" r="1" fill="yellow"/>
  <circle cx="0" cy="3" r="1" fill="srgba(0,0,153,1)"/>
  <circle cx="1" cy="3" r="1" fill="srgba(0,0,153,1)"/>
  <circle cx="2" cy="3" r="1" fill="srgba(0,0,153,1)"/>
  <circle cx="3" cy="3" r="1" fill="srgba(0,0,153,1)"/>
  <circle cx="4" cy="3" r="1" fill="srgba(0,0,153,1)"/>
  <circle cx="5" cy="3" r="1" fill="srgba(0%,0%,59.9954%,1)"/>
  <circle cx="6" cy="3" r="1" fill="srgba(0%,0%,60.5097%,1)"/>
  <circle cx="7" cy="3" r="1" fill="srgba(12.2148%,11.9341%,52.9534%,1)"/>
  <circle cx="8" cy="3" r="1" fill="srgba(80.824%,80.4654%,11.5007%,1)"/>
  <circle cx="9" cy="3" r="1" fill="yellow"/>
  <circle cx="10" cy="3" r="1" fill="yellow"/>
  <circle cx="11" cy="3" r="1" fill="yellow"/>
  <circle cx="12" cy="3" r="1" fill="yellow"/>
  <circle cx="13" cy="3" r="1" fill="yellow"/>
  <circle cx="14" cy="3" r="1" fill="srgba(100%,99.8901%,0%,1)"/>
  <circle cx="15" cy="3" r="1" fill="srgba(100%,87.5731%,0%,1)"/>
  <circle cx="0" cy="4" r="1" fill="srgba(0,0,153,1)"/>
  <circle cx="1" cy="4" r="1" fill="srgba(0,0,153,1)"/>
  <circle cx="2" cy="4" r="1" fill="srgba(0,0,153,1)"/>
  <circle cx="3" cy="4" r="1" fill="srgba(0,0,153,1)"/>
  <circle cx="4" cy="4" r="1" fill="srgba(0,0,153,1)"/>
  <circle cx="5" cy="4" r="1" fill="srgba(0%,0%,60.0961%,1)"/>
  <circle cx="6" cy="4" r="1" fill="srgba(1.51675%,1.42061%,59.3942%,1)"/>
  <circle cx="7" cy="4" r="1" fill="srgba(56.1669%,55.6878%,26.3569%,1)"/>
  <circle cx="8" cy="4" r="1" fill="yellow"/>
  <circle cx="9" cy="4" r="1" fill="yellow"/>
  <circle cx="10" cy="4" r="1" fill="yellow"/>
  <circle cx="11" cy="4" r="1" fill="yellow"/>
  <circle cx="12" cy="4" r="1" fill="yellow"/>
  <circle cx="13" cy="4" r="1" fill="srgba(100%,99.0723%,0%,1)"/>
  <circle cx="14" cy="4" r="1" fill="srgba(100%,69.4575%,0%,1)"/>
  <circle cx="15" cy="4" r="1" fill="srgba(100%,18.8327%,0%,1)"/>
  <circle cx="0" cy="5" r="1" fill="srgba(0,0,153,1)"/>
  <circle cx="1" cy="5" r="1" fill="srgba(0,0,153,1)"/>
  <circle cx="2" cy="5" r="1" fill="srgba(0,0,153,1)"/>
  <circle cx="3" cy="5" r="1" fill="srgba(0,0,153,1)"/>
  <circle cx="4" cy="5" r="1" fill="srgba(0%,0%,59.9924%,1)"/>
  <circle cx="5" cy="5" r="1" fill="srgba(0%,0%,60.8133%,1)"/>
  <circle cx="6" cy="5" r="1" fill="srgba(29.2409%,28.8151%,42.6398%,1)"/>
  <circle cx="7" cy="5" r="1" fill="srgba(93.8598%,93.6629%,3.67285%,1)"/>
  <circle cx="8" cy="5" r="1" fill="yellow"/>
  <circle cx="9" cy="5" r="1" fill="yellow"/>
  <circle cx="10" cy="5" r="1" fill="yellow"/>
  <circle cx="11" cy="5" r="1" fill="yellow"/>
  <circle cx="12" cy="5" r="1" fill="srgba(100%,95.3994%,0%,1)"/>
  <circle cx="13" cy="5" r="1" fill="srgba(100%,53.6522%,0%,1)"/>
  <circle cx="14" cy="5" r="1" fill="srgba(100%,7.20836%,0%,1)"/>
  <circle cx="15" cy="5" r="1" fill="red"/>
  <circle cx="0" cy="6" r="1" fill="srgba(0,0,153,1)"/>
  <circle cx="1" cy="6" r="1" fill="srgba(0,0,153,1)"/>
  <circle cx="2" cy="6" r="1" fill="srgba(0,0,153,1)"/>
  <circle cx="3" cy="6" r="1" fill="srgba(0%,0%,59.9969%,1)"/>
  <circle cx="4" cy="6" r="1" fill="srgba(0%,0%,60.4166%,1)"/>
  <circle cx="5" cy="6" r="1" fill="srgba(9.55825%,9.31411%,54.5617%,1)"/>
  <circle cx="6" cy="6" r="1" fill="srgba(77.0901%,76.701%,13.7469%,1)"/>
  <circle cx="7" cy="6" r="1" fill="yellow"/>
  <circle cx="8" cy="6" r="1" fill="yellow"/>
  <circle cx="9" cy="6" r="1" fill="yellow"/>
  <circle cx="10" cy="6" r="1" fill="yellow"/>
  <circle cx="11" cy="6" r="1" fill="srgba(100%,87.9484%,0%,1)"/>
  <circle cx="12" cy="6" r="1" fill="srgba(100%,36.7498%,0%,1)"/>
  <circle cx="13" cy="6" r="1" fill="srgba(100%,2.11032%,0%,1)"/>
  <circle cx="14" cy="6" r="1" fill="red"/>
  <circle cx="15" cy="6" r="1" fill="red"/>
  <circle cx="0" cy="7" r="1" fill="srgba(0,0,153,1)"/>
  <circle cx="1" cy="7" r="1" fill="srgba(0,0,153,1)"/>
  <circle cx="2" cy="7" r="1" fill="srgba(0,0,153,1)"/>
  <circle cx="3" cy="7" r="1" fill="srgba(0%,0%,60.0595%,1)"/>
  <circle cx="4" cy="7" r="1" fill="srgba(0.633249%,0.560006%,59.9145%,1)"/>
  <circle cx="5" cy="7" r="1" fill="srgba(51.3191%,50.837%,29.2821%,1)"/>
  <circle cx="6" cy="7" r="1" fill="srgba(99.7498%,99.6841%,0.146487%,1)"/>
  <circle cx="7" cy="7" r="1" fill="yellow"/>
  <circle cx="8" cy="7" r="1" fill="yellow"/>
  <circle cx="9" cy="7" r="1" fill="srgba(100%,99.8016%,0%,1)"/>
  <circle cx="10" cy="7" r="1" fill="srgba(100%,76.1761%,0%,1)"/>
  <circle cx="11" cy="7" r="1" fill="srgba(100%,21.8189%,0%,1)"/>
  <circle cx="12" cy="7" r="1" fill="srgba(100%,0.0289921%,0%,1)"/>
  <circle cx="13" cy="7" r="1" fill="red"/>
  <circle cx="14" cy="7" r="1" fill="red"/>
  <circle cx="15" cy="7" r="1" fill="red"/>
  <circle cx="0" cy="8" r="1" fill="srgba(0,0,153,1)"/>
  <circle cx="1" cy="8" r="1" fill="srgba(0,0,153,1)"/>
  <circle cx="2" cy="8" r="1" fill="srgba(0%,0%,59.9908%,1)"/>
  <circle cx="3" cy="8" r="1" fill="srgba(0%,0%,60.7965%,1)"/>
  <circle cx="4" cy="8" r="1" fill="srgba(25.0614%,24.6616%,45.1728%,1)"/>
  <circle cx="5" cy="8" r="1" fill="srgba(91.7372%,91.5053%,4.94697%,1)"/>
  <circle cx="6" cy="8" r="1" fill="yellow"/>
  <circle cx="7" cy="8" r="1" fill="yellow"/>
  <circle cx="8" cy="8" r="1" fill="srgba(100%,97.3541%,0%,1)"/>
  <circle cx="9" cy="8" r="1" fill="srgba(100%,60.8118%,0%,1)"/>
  <circle cx="10" cy="8" r="1" fill="srgba(100%,10.6752%,0%,1)"/>
  <circle cx="11" cy="8" r="1" fill="red"/>
  <circle cx="12" cy="8" r="1" fill="red"/>
  <circle cx="13" cy="8" r="1" fill="red"/>
  <circle cx="14" cy="8" r="1" fill="red"/>
  <circle cx="15" cy="8" r="1" fill="red"/>
  <circle cx="0" cy="9" r="1" fill="srgba(0,0,153,1)"/>
  <circle cx="1" cy="9" r="1" fill="srgba(0%,0%,59.9969%,1)"/>
  <circle cx="2" cy="9" r="1" fill="srgba(0%,0%,60.3296%,1)"/>
  <circle cx="3" cy="9" r="1" fill="srgba(7.24804%,7.03746%,55.9579%,1)"/>
  <circle cx="4" cy="9" r="1" fill="srgba(73.0556%,72.6406%,16.1746%,1)"/>
  <circle cx="5" cy="9" r="1" fill="yellow"/>
  <circle cx="6" cy="9" r="1" fill="yellow"/>
  <circle cx="7" cy="9" r="1" fill="srgba(100%,91.6335%,0%,1)"/>
  <circle cx="8" cy="9" r="1" fill="srgba(100%,43.8285%,0%,1)"/>
  <circle cx="9" cy="9" r="1" fill="srgba(100%,3.8468%,0%,1)"/>
  <circle cx="10" cy="9" r="1" fill="red"/>
  <circle cx="11" cy="9" r="1" fill="red"/>
  <circle cx="12" cy="9" r="1" fill="red"/>
  <circle cx="13" cy="9" r="1" fill="red"/>
  <circle cx="14" cy="9" r="1" fill="red"/>
  <circle cx="15" cy="9" r="1" fill="red"/>
  <circle cx="0" cy="10" r="1" fill="srgba(0,0,153,1)"/>
  <circle cx="1" cy="10" r="1" fill="srgba(0%,0%,60.032%,1)"/>
  <circle cx="2" cy="10" r="1" fill="srgba(0%,0%,60.2945%,1)"/>
  <circle cx="3" cy="10" r="1" fill="srgba(46.4561%,45.9754%,32.221%,1)"/>
  <circle cx="4" cy="10" r="1" fill="srgba(98.9914%,98.9258%,0.59968%,1)"/>
  <circle cx="5" cy="10" r="1" fill="yellow"/>
  <circle cx="6" cy="10" r="1" fill="srgba(100%,81.6876%,0%,1)"/>
  <circle cx="7" cy="10" r="1" fill="srgba(100%,27.7775%,0%,1)"/>
  <circle cx="8" cy="10" r="1" fill="srgba(100%,0.628672%,0%,1)"/>
  <circle cx="9" cy="10" r="1" fill="red"/>
  <circle cx="10" cy="10" r="1" fill="red"/>
  <circle cx="11" cy="10" r="1" fill="red"/>
  <circle cx="12" cy="10" r="1" fill="red"/>
  <circle cx="13" cy="10" r="1" fill="srgba(100%,1.21614%,1.21614%,1)"/>
  <circle cx="14" cy="10" r="1" fill="srgba(100%,12.7138%,12.7138%,1)"/>
  <circle cx="15" cy="10" r="1" fill="srgba(100%,33.7148%,33.7148%,1)"/>
  <circle cx="0" cy="11" r="1" fill="srgba(0%,0%,59.9893%,1)"/>
  <circle cx="1" cy="11" r="1" fill="srgba(0%,0%,60.737%,1)"/>
  <circle cx="2" cy="11" r="1" fill="srgba(21.1627%,20.7919%,47.5349%,1)"/>
  <circle cx="3" cy="11" r="1" fill="srgba(89.2714%,89.1249%,6.42557%,1)"/>
  <circle cx="4" cy="11" r="1" fill="srgba(100%,99.3561%,0%,1)"/>
  <circle cx="5" cy="11" r="1" fill="srgba(100%,67.6738%,0%,1)"/>
  <circle cx="6" cy="11" r="1" fill="srgba(100%,14.8775%,0%,1)"/>
  <circle cx="7" cy="11" r="1" fill="red"/>
  <circle cx="8" cy="11" r="1" fill="red"/>
  <circle cx="9" cy="11" r="1" fill="red"/>
  <circle cx="10" cy="11" r="1" fill="srgba(100%,0.828565%,0.828565%,1)"/>
  <circle cx="11" cy="11" r="1" fill="srgba(100%,10.7622%,10.7622%,1)"/>
  <circle cx="12" cy="11" r="1" fill="srgba(100%,33.4585%,33.4585%,1)"/>
  <circle cx="13" cy="11" r="1" fill="srgba(100%,62.5498%,62.5498%,1)"/>
  <circle cx="14" cy="11" r="1" fill="srgba(100%,86.8254%,86.8269%,1)"/>
  <circle cx="15" cy="11" r="1" fill="srgba(100%,98.3459%,98.3536%,1)"/>
  <circle cx="0" cy="12" r="1" fill="srgba(0%,0%,60.2853%,1)"/>
  <circle cx="1" cy="12" r="1" fill="srgba(5.23842%,5.07515%,57.1679%,1)"/>
  <circle cx="2" cy="12" r="1" fill="srgba(68.7602%,68.9357%,18.761%,1)"/>
  <circle cx="3" cy="12" r="1" fill="srgba(100%,95.5779%,0%,1)"/>
  <circle cx="4" cy="12" r="1" fill="srgba(100%,51.046%,0%,1)"/>
  <circle cx="5" cy="12" r="1" fill="srgba(100%,6.08682%,0%,1)"/>
  <circle cx="6" cy="12" r="1" fill="red"/>
  <circle cx="7" cy="12" r="1" fill="srgba(100%,0.523384%,0.523384%,1)"/>
  <circle cx="8" cy="12" r="1" fill="srgba(100%,9.25307%,9.25307%,1)"/>
  <circle cx="9" cy="12" r="1" fill="srgba(100%,30.9285%,30.9499%,1)"/>
  <circle cx="10" cy="12" r="1" fill="srgba(100%,59.9817%,60.1282%,1)"/>
  <circle cx="11" cy="12" r="1" fill="srgba(100%,85.2369%,85.6764%,1)"/>
  <circle cx="12" cy="12" r="1" fill="srgba(100%,98.2956%,98.6389%,1)"/>
  <circle cx="13" cy="12" r="1" fill="white"/>
  <circle cx="14" cy="12" r="1" fill="white"/>
  <circle cx="15" cy="12" r="1" fill="srgba(99.4614%,99.7406%,99.4171%,1)"/>
  <circle cx="0" cy="13" r="1" fill="srgba(0%,0%,60.6317%,1)"/>
  <circle cx="1" cy="13" r="1" fill="srgba(41.3092%,42.1729%,35.3185%,1)"/>
  <circle cx="2" cy="13" r="1" fill="srgba(97.9934%,84.6555%,1.1841%,1)"/>
  <circle cx="3" cy="13" r="1" fill="srgba(100%,33.1319%,0%,1)"/>
  <circle cx="4" cy="13" r="1" fill="srgba(100%,1.21462%,0.399786%,1)"/>
  <circle cx="5" cy="13" r="1" fill="srgba(100%,7.71191%,8.48859%,1)"/>
  <circle cx="6" cy="13" r="1" fill="srgba(100%,28.9464%,29.6483%,1)"/>
  <circle cx="7" cy="13" r="1" fill="srgba(100%,57.8164%,58.8098%,1)"/>
  <circle cx="8" cy="13" r="1" fill="srgba(100%,83.5813%,84.4785%,1)"/>
  <circle cx="9" cy="13" r="1" fill="srgba(99.5941%,97.4563%,97.499%,1)"/>
  <circle cx="10" cy="13" r="1" fill="srgba(96.0693%,99.6628%,97.4212%,1)"/>
  <circle cx="11" cy="13" r="1" fill="srgba(88.9876%,96.2829%,89.6727%,1)"/>
  <circle cx="12" cy="13" r="1" fill="srgba(78.6587%,91.2337%,78.4298%,1)"/>
  <circle cx="13" cy="13" r="1" fill="srgba(65.5406%,85.7694%,65.095%,1)"/>
  <circle cx="14" cy="13" r="1" fill="srgba(50.5074%,79.7436%,50.0496%,1)"/>
  <circle cx="15" cy="13" r="1" fill="srgba(36.8948%,74.3236%,36.4614%,1)"/>
  <circle cx="0" cy="14" r="1" fill="srgba(20.6775%,19.086%,47.602%,1)"/>
  <circle cx="1" cy="14" r="1" fill="srgba(86.2379%,60.0107%,8.89906%,1)"/>
  <circle cx="2" cy="14" r="1" fill="srgba(100%,28.1651%,7.57916%,1)"/>
  <circle cx="3" cy="14" r="1" fill="srgba(99.4781%,25.3391%,26.1845%,1)"/>
  <circle cx="4" cy="14" r="1" fill="srgba(96.2554%,52.9259%,50.8659%,1)"/>
  <circle cx="5" cy="14" r="1" fill="srgba(89.8528%,76.8566%,70.7607%,1)"/>
  <circle cx="6" cy="14" r="1" fill="srgba(80.1877%,88.5344%,76.6461%,1)"/>
  <circle cx="7" cy="14" r="1" fill="srgba(67.6234%,88.0812%,68.6564%,1)"/>
  <circle cx="8" cy="14" r="1" fill="srgba(53.1075%,81.8357%,53.7011%,1)"/>
  <circle cx="9" cy="14" r="1" fill="srgba(38.1842%,75.0179%,37.9294%,1)"/>
  <circle cx="10" cy="14" r="1" fill="srgba(24.5594%,69.4423%,24.1794%,1)"/>
  <circle cx="11" cy="14" r="1" fill="srgba(13.4539%,65.0996%,13.1731%,1)"/>
  <circle cx="12" cy="14" r="1" fill="srgba(5.52377%,62.034%,5.34371%,1)"/>
  <circle cx="13" cy="14" r="1" fill="srgba(0.978103%,60.2396%,0.903334%,1)"/>
  <circle cx="14" cy="14" r="1" fill="srgba(0%,59.4736%,0%,1)"/>
  <circle cx="15" cy="14" r="1" fill="srgba(0%,59.324%,0%,1)"/>
  <circle cx="0" cy="15" r="1" fill="srgba(62.4186%,41.5915%,26.9306%,1)"/>
  <circle cx="1" cy="15" r="1" fill="srgba(81.2558%,47.8431%,24.416%,1)"/>
  <circle cx="2" cy="15" r="1" fill="srgba(64.2084%,59.6292%,39.559%,1)"/>
  <circle cx="3" cy="15" r="1" fill="srgba(47.0344%,73.4142%,41.6602%,1)"/>
  <circle cx="4" cy="15" r="1" fill="srgba(31.0094%,73.3577%,31.9615%,1)"/>
  <circle cx="5" cy="15" r="1" fill="srgba(17.673%,67.9072%,18.5107%,1)"/>
  <circle cx="6" cy="15" r="1" fill="srgba(7.88434%,63.0533%,7.77905%,1)"/>
  <circle cx="7" cy="15" r="1" fill="srgba(1.87991%,60.4791%,1.6556%,1)"/>
  <circle cx="8" cy="15" r="1" fill="srgba(0%,59.4186%,0%,1)"/>
  <circle cx="9" cy="15" r="1" fill="srgba(0%,59.1562%,0%,1)"/>
  <circle cx="10" cy="15" r="1" fill="srgba(0%,59.2889%,0%,1)"/>
  <circle cx="11" cy="15" r="1" fill="srgba(0%,59.5544%,0%,1)"/>
  <circle cx="12" cy="15" r="1" fill="srgba(0%,59.7848%,0%,1)"/>
  <circle cx="13" cy="15" r="1" fill="srgba(0.062562%,59.9039%,0%,1)"/>
  <circle cx="14" cy="15" r="1" fill="srgba(0.129702%,59.9313%,0.00610361%,1)"/>
  <circle cx="15" cy="15" r="1" fill="srgba(0.131228%,59.9313%,0.00762951%,1)"/>
</svg>
