<?xml version="1.0" standalone="no"?>
<!DOCTYPE svg PUBLIC "-//W3C//DTD SVG 20010904//EN"
  "http://www.w3.org/TR/2001/REC-SVG-20010904/DTD/svg10.dtd">
<svg width="16" height="16">
  <circle cx="0" cy="0" r="1" fill="srgba(37.4655%,37.7676%,0%,1)"/>
  <circle cx="1" cy="0" r="1" fill="srgba(87.1977%,7.73175%,0%,1)"/>
  <circle cx="2" cy="0" r="1" fill="red"/>
  <circle cx="3" cy="0" r="1" fill="red"/>
  <circle cx="4" cy="0" r="1" fill="red"/>
  <circle cx="5" cy="0" r="1" fill="red"/>
  <circle cx="6" cy="0" r="1" fill="red"/>
  <circle cx="7" cy="0" r="1" fill="red"/>
  <circle cx="8" cy="0" r="1" fill="red"/>
  <circle cx="9" cy="0" r="1" fill="red"/>
  <circle cx="10" cy="0" r="1" fill="red"/>
  <circle cx="11" cy="0" r="1" fill="red"/>
  <circle cx="12" cy="0" r="1" fill="red"/>
  <circle cx="13" cy="0" r="1" fill="red"/>
  <circle cx="14" cy="0" r="1" fill="red"/>
  <circle cx="15" cy="0" r="1" fill="srgba(100%,0.030518%,0.030518%,1)"/>
  <circle cx="0" cy="1" r="1" fill="srgba(0.485237%,60.3677%,0%,1)"/>
  <circle cx="1" cy="1" r="1" fill="srgba(23.6103%,46.1448%,0%,1)"/>
  <circle cx="2" cy="1" r="1" fill="srgba(76.8399%,13.9849%,0%,1)"/>
  <circle cx="3" cy="1" r="1" fill="srgba(99.7467%,0.15259%,0%,1)"/>
  <circle cx="4" cy="1" r="1" fill="red"/>
  <circle cx="5" cy="1" r="1" fill="red"/>
  <circle cx="6" cy="1" r="1" fill="red"/>
  <circle cx="7" cy="1" r="1" fill="red"/>
  <circle cx="8" cy="1" r="1" fill="red"/>
  <circle cx="9" cy="1" r="1" fill="red"/>
  <circle cx="10" cy="1" r="1" fill="red"/>
  <circle cx="11" cy="1" r="1" fill="red"/>
  <circle cx="12" cy="1" r="1" fill="red"/>
  <circle cx="13" cy="1" r="1" fill="red"/>
  <circle cx="14" cy="1" r="1" fill="red"/>
  <circle cx="15" cy="1" r="1" fill="srgba(100%,0.030518%,0.030518%,1)"/>
  <circle cx="0" cy="2" r="1" fill="srgba(0%,60.4288%,0%,1)"/>
  <circle cx="1" cy="2" r="1" fill="srgba(0%,61.1658%,0%,1)"/>
  <circle cx="2" cy="2" r="1" fill="srgba(10.5501%,54.2061%,0%,1)"/>
  <circle cx="3" cy="2" r="1" fill="srgba(59.4064%,24.5014%,0%,1)"/>
  <circle cx="4" cy="2" r="1" fill="srgba(96.7178%,1.98215%,0%,1)"/>
  <circle cx="5" cy="2" r="1" fill="red"/>
  <circle cx="6" cy="2" r="1" fill="red"/>
  <circle cx="7" cy="2" r="1" fill="red"/>
  <circle cx="8" cy="2" r="1" fill="red"/>
  <circle cx="9" cy="2" r="1" fill="red"/>
  <circle cx="10" cy="2" r="1" fill="red"/>
  <circle cx="11" cy="2" r="1" fill="red"/>
  <circle cx="12" cy="2" r="1" fill="red"/>
  <circle cx="13" cy="2" r="1" fill="red"/>
  <circle cx="14" cy="2" r="1" fill="red"/>
  <circle cx="15" cy="2" r="1" fill="srgba(100%,0.030518%,0.030518%,1)"/>
  <circle cx="0" cy="3" r="1" fill="srgba(0,154,0,1)"/>
  <circle cx="1" cy="3" r="1" fill="srgba(0%,60.383%,0%,1)"/>
  <circle cx="2" cy="3" r="1" fill="srgba(0%,60.8957%,0%,1)"/>
  <circle cx="3" cy="3" r="1" fill="srgba(3.22881%,58.8525%,0%,1)"/>
  <circle cx="4" cy="3" r="1" fill="srgba(40.4059%,35.9747%,0%,1)"/>
  <circle cx="5" cy="3" r="1" fill="srgba(89.3568%,6.4271%,0%,1)"/>
  <circle cx="6" cy="3" r="1" fill="red"/>
  <circle cx="7" cy="3" r="1" fill="red"/>
  <circle cx="8" cy="3" r="1" fill="red"/>
  <circle cx="9" cy="3" r="1" fill="red"/>
  <circle cx="10" cy="3" r="1" fill="red"/>
  <circle cx="11" cy="3" r="1" fill="red"/>
  <circle cx="12" cy="3" r="1" fill="red"/>
  <circle cx="13" cy="3" r="1" fill="red"/>
  <circle cx="14" cy="3" r="1" fill="red"/>
  <circle cx="15" cy="3" r="1" fill="srgba(100%,0.030518%,0.030518%,1)"/>
  <circle cx="0" cy="4" r="1" fill="srgba(0,154,0,1)"/>
  <circle cx="1" cy="4" r="1" fill="srgba(0,154,0,1)"/>
  <circle cx="2" cy="4" r="1" fill="srgba(0%,60.3845%,0%,1)"/>
  <circle cx="3" cy="4" r="1" fill="srgba(0%,60.5844%,0%,1)"/>
  <circle cx="4" cy="4" r="1" fill="srgba(0.241093%,60.8209%,0%,1)"/>
  <circle cx="5" cy="4" r="1" fill="srgba(23.1968%,46.4149%,0%,1)"/>
  <circle cx="6" cy="4" r="1" fill="srgba(76.6186%,14.1695%,0.0839246%,1)"/>
  <circle cx="7" cy="4" r="1" fill="srgba(99.7391%,0.892653%,1.30922%,1)"/>
  <circle cx="8" cy="4" r="1" fill="srgba(100%,0.527962%,0.723278%,1)"/>
  <circle cx="9" cy="4" r="1" fill="srgba(100%,0.442512%,0.433356%,1)"/>
  <circle cx="10" cy="4" r="1" fill="srgba(100%,0.447089%,0.447089%,1)"/>
  <circle cx="11" cy="4" r="1" fill="srgba(100%,0.447089%,0.447089%,1)"/>
  <circle cx="12" cy="4" r="1" fill="srgba(100%,0.447089%,0.447089%,1)"/>
  <circle cx="13" cy="4" r="1" fill="srgba(100%,0.447089%,0.447089%,1)"/>
  <circle cx="14" cy="4" r="1" fill="srgba(100%,0.445563%,0.445563%,1)"/>
  <circle cx="15" cy="4" r="1" fill="srgba(100%,0.477607%,0.477607%,1)"/>
  <circle cx="0" cy="5" r="1" fill="srgba(0,154,0,1)"/>
  <circle cx="1" cy="5" r="1" fill="srgba(0,154,0,1)"/>
  <circle cx="2" cy="5" r="1" fill="srgba(0,154,0,1)"/>
  <circle cx="3" cy="5" r="1" fill="srgba(0%,60.3906%,0%,1)"/>
  <circle cx="4" cy="5" r="1" fill="srgba(0%,60.4242%,0%,1)"/>
  <circle cx="5" cy="5" r="1" fill="srgba(0%,61.1414%,0%,1)"/>
  <circle cx="6" cy="5" r="1" fill="srgba(10.518%,54.1787%,0%,1)"/>
  <circle cx="7" cy="5" r="1" fill="srgba(59.35%,50.2693%,25.716%,1)"/>
  <circle cx="8" cy="5" r="1" fill="srgba(96.7071%,63.36%,61.7792%,1)"/>
  <circle cx="9" cy="5" r="1" fill="srgba(100%,64.8585%,65.3666%,1)"/>
  <circle cx="10" cy="5" r="1" fill="srgba(100%,64.5182%,64.5075%,1)"/>
  <circle cx="11" cy="5" r="1" fill="srgba(100%,64.5243%,64.5243%,1)"/>
  <circle cx="12" cy="5" r="1" fill="srgba(100%,64.5243%,64.5243%,1)"/>
  <circle cx="13" cy="5" r="1" fill="srgba(100%,64.5243%,64.5243%,1)"/>
  <circle cx="14" cy="5" r="1" fill="srgba(100%,64.5243%,64.5243%,1)"/>
  <circle cx="15" cy="5" r="1" fill="srgba(100%,64.535%,64.535%,1)"/>
  <circle cx="0" cy="6" r="1" fill="srgba(0,154,0,1)"/>
  <circle cx="1" cy="6" r="1" fill="srgba(0,154,0,1)"/>
  <circle cx="2" cy="6" r="1" fill="srgba(0,154,0,1)"/>
  <circle cx="3" cy="6" r="1" fill="srgba(0,154,0,1)"/>
  <circle cx="4" cy="6" r="1" fill="srgba(0,154,0,1)"/>
  <circle cx="5" cy="6" r="1" fill="srgba(0%,60.3815%,0%,1)"/>
  <circle cx="6" cy="6" r="1" fill="srgba(0%,60.6744%,0%,1)"/>
  <circle cx="7" cy="6" r="1" fill="srgba(3.21813%,63.0838%,4.2237%,1)"/>
  <circle cx="8" cy="6" r="1" fill="srgba(40.3601%,78.1598%,42.1546%,1)"/>
  <circle cx="9" cy="6" r="1" fill="srgba(89.3324%,96.9131%,90.5745%,1)"/>
  <circle cx="10" cy="6" r="1" fill="white"/>
  <circle cx="11" cy="6" r="1" fill="white"/>
  <circle cx="12" cy="6" r="1" fill="white"/>
  <circle cx="13" cy="6" r="1" fill="white"/>
  <circle cx="14" cy="6" r="1" fill="white"/>
  <circle cx="15" cy="6" r="1" fill="white"/>
  <circle cx="0" cy="7" r="1" fill="srgba(0,154,0,1)"/>
  <circle cx="1" cy="7" r="1" fill="srgba(0,154,0,1)"/>
  <circle cx="2" cy="7" r="1" fill="srgba(0,154,0,1)"/>
  <circle cx="3" cy="7" r="1" fill="srgba(0,154,0,1)"/>
  <circle cx="4" cy="7" r="1" fill="srgba(0,154,0,1)"/>
  <circle cx="5" cy="7" r="1" fill="srgba(0,154,0,1)"/>
  <circle cx="6" cy="7" r="1" fill="srgba(0%,60.3967%,0%,1)"/>
  <circle cx="7" cy="7" r="1" fill="srgba(0%,60.267%,0%,1)"/>
  <circle cx="8" cy="7" r="1" fill="srgba(0.181582%,60.087%,0.181582%,1)"/>
  <circle cx="9" cy="7" r="1" fill="srgba(22.3056%,69.2042%,22.3056%,1)"/>
  <circle cx="10" cy="7" r="1" fill="srgba(80.058%,92.1019%,80.058%,1)"/>
  <circle cx="11" cy="7" r="1" fill="white"/>
  <circle cx="12" cy="7" r="1" fill="white"/>
  <circle cx="13" cy="7" r="1" fill="white"/>
  <circle cx="14" cy="7" r="1" fill="white"/>
  <circle cx="15" cy="7" r="1" fill="white"/>
  <circle cx="0" cy="8" r="1" fill="srgba(0,154,0,1)"/>
  <circle cx="1" cy="8" r="1" fill="srgba(0,154,0,1)"/>
  <circle cx="2" cy="8" r="1" fill="srgba(0,154,0,1)"/>
  <circle cx="3" cy="8" r="1" fill="srgba(0,154,0,1)"/>
  <circle cx="4" cy="8" r="1" fill="srgba(0,154,0,1)"/>
  <circle cx="5" cy="8" r="1" fill="srgba(0,154,0,1)"/>
  <circle cx="6" cy="8" r="1" fill="srgba(0%,60.3967%,0%,1)"/>
  <circle cx="7" cy="8" r="1" fill="srgba(0%,60.264%,0%,1)"/>
  <circle cx="8" cy="8" r="1" fill="srgba(0.215152%,60.1007%,0.215152%,1)"/>
  <circle cx="9" cy="8" r="1" fill="srgba(22.6184%,69.3294%,22.6184%,1)"/>
  <circle cx="10" cy="8" r="1" fill="srgba(80.2441%,92.1767%,80.2441%,1)"/>
  <circle cx="11" cy="8" r="1" fill="white"/>
  <circle cx="12" cy="8" r="1" fill="white"/>
  <circle cx="13" cy="8" r="1" fill="white"/>
  <circle cx="14" cy="8" r="1" fill="white"/>
  <circle cx="15" cy="8" r="1" fill="white"/>
  <circle cx="0" cy="9" r="1" fill="srgba(0,154,0,1)"/>
  <circle cx="1" cy="9" r="1" fill="srgba(0,154,0,1)"/>
  <circle cx="2" cy="9" r="1" fill="srgba(0,154,0,1)"/>
  <circle cx="3" cy="9" r="1" fill="srgba(0,154,0,1)"/>
  <circle cx="4" cy="9" r="1" fill="srgba(0,154,0,1)"/>
  <circle cx="5" cy="9" r="1" fill="srgba(0%,60.3815%,0%,1)"/>
  <circle cx="6" cy="9" r="1" fill="srgba(0%,60.6775%,0%,1)"/>
  <circle cx="7" cy="9" r="1" fill="srgba(4.32746%,63.125%,4.32746%,1)"/>
  <circle cx="8" cy="9" r="1" fill="srgba(42.5254%,78.3047%,42.5254%,1)"/>
  <circle cx="9" cy="9" r="1" fill="srgba(90.7637%,96.9802%,90.7637%,1)"/>
  <circle cx="10" cy="9" r="1" fill="white"/>
  <circle cx="11" cy="9" r="1" fill="white"/>
  <circle cx="12" cy="9" r="1" fill="white"/>
  <circle cx="13" cy="9" r="1" fill="white"/>
  <circle cx="14" cy="9" r="1" fill="white"/>
  <circle cx="15" cy="9" r="1" fill="white"/>
  <circle cx="0" cy="10" r="1" fill="srgba(0,154,0,1)"/>
  <circle cx="1" cy="10" r="1" fill="srgba(0,154,0,1)"/>
  <circle cx="2" cy="10" r="1" fill="srgba(0,154,0,1)"/>
  <circle cx="3" cy="10" r="1" fill="srgba(0%,60.3906%,0%,1)"/>
  <circle cx="4" cy="10" r="1" fill="srgba(0%,60.4257%,0%,1)"/>
  <circle cx="5" cy="10" r="1" fill="srgba(0%,61.1398%,0%,1)"/>
  <circle cx="6" cy="10" r="1" fill="srgba(0.00610361%,54.1161%,0.00610361%,1)"/>
  <circle cx="7" cy="10" r="1" fill="srgba(26.2913%,50.6233%,26.2913%,1)"/>
  <circle cx="8" cy="10" r="1" fill="srgba(62.2278%,63.7461%,62.2278%,1)"/>
  <circle cx="9" cy="10" r="1" fill="srgba(65.6931%,65.1911%,65.6931%,1)"/>
  <circle cx="10" cy="10" r="1" fill="srgba(64.8463%,64.8569%,64.8463%,1)"/>
  <circle cx="11" cy="10" r="1" fill="srgba(64.8631%,64.8631%,64.8631%,1)"/>
  <circle cx="12" cy="10" r="1" fill="srgba(64.8631%,64.8631%,64.8631%,1)"/>
  <circle cx="13" cy="10" r="1" fill="srgba(64.8631%,64.8631%,64.8631%,1)"/>
  <circle cx="14" cy="10" r="1" fill="srgba(64.8631%,64.8631%,64.8631%,1)"/>
  <circle cx="15" cy="10" r="1" fill="srgba(64.8737%,64.8737%,64.8737%,1)"/>
  <circle cx="0" cy="11" r="1" fill="srgba(0,154,0,1)"/>
  <circle cx="1" cy="11" r="1" fill="srgba(0,154,0,1)"/>
  <circle cx="2" cy="11" r="1" fill="srgba(0%,60.3845%,0%,1)"/>
  <circle cx="3" cy="11" r="1" fill="srgba(0%,60.589%,0%,1)"/>
  <circle cx="4" cy="11" r="1" fill="srgba(0%,60.8042%,0%,1)"/>
  <circle cx="5" cy="11" r="1" fill="srgba(0%,46.247%,0%,1)"/>
  <circle cx="6" cy="11" r="1" fill="srgba(0.09308%,14.0093%,0.09308%,1)"/>
  <circle cx="7" cy="11" r="1" fill="srgba(1.37331%,0.93843%,1.37331%,1)"/>
  <circle cx="8" cy="11" r="1" fill="srgba(0.790417%,0.59968%,0.790417%,1)"/>
  <circle cx="9" cy="11" r="1" fill="srgba(0.505074%,0.514229%,0.505074%,1)"/>
  <circle cx="10" cy="11" r="1" fill="srgba(0.518807%,0.518807%,0.518807%,1)"/>
  <circle cx="11" cy="11" r="1" fill="srgba(0.518807%,0.518807%,0.518807%,1)"/>
  <circle cx="12" cy="11" r="1" fill="srgba(0.518807%,0.518807%,0.518807%,1)"/>
  <circle cx="13" cy="11" r="1" fill="srgba(0.518807%,0.518807%,0.518807%,1)"/>
  <circle cx="14" cy="11" r="1" fill="srgba(0.517281%,0.517281%,0.517281%,1)"/>
  <circle cx="15" cy="11" r="1" fill="srgba(0.549325%,0.549325%,0.549325%,1)"/>
  <circle cx="0" cy="12" r="1" fill="srgba(0,154,0,1)"/>
  <circle cx="1" cy="12" r="1" fill="srgba(0%,60.383%,0%,1)"/>
  <circle cx="2" cy="12" r="1" fill="srgba(0%,60.9018%,0%,1)"/>
  <circle cx="3" cy="12" r="1" fill="srgba(0%,58.7991%,0%,1)"/>
  <circle cx="4" cy="12" r="1" fill="srgba(0%,35.7794%,0%,1)"/>
  <circle cx="5" cy="12" r="1" fill="srgba(0%,6.32181%,0%,1)"/>
  <circle cx="6" cy="12" r="1" fill="black"/>
  <circle cx="7" cy="12" r="1" fill="black"/>
  <circle cx="8" cy="12" r="1" fill="black"/>
  <circle cx="9" cy="12" r="1" fill="black"/>
  <circle cx="10" cy="12" r="1" fill="black"/>
  <circle cx="11" cy="12" r="1" fill="black"/>
  <circle cx="12" cy="12" r="1" fill="black"/>
  <circle cx="13" cy="12" r="1" fill="black"/>
  <circle cx="14" cy="12" r="1" fill="black"/>
  <circle cx="15" cy="12" r="1" fill="srgba(0.030518%,0.030518%,0.030518%,1)"/>
  <circle cx="0" cy="13" r="1" fill="srgba(0%,60.4303%,0%,1)"/>
  <circle cx="1" cy="13" r="1" fill="srgba(0%,61.1673%,0%,1)"/>
  <circle cx="2" cy="13" r="1" fill="srgba(0%,54.1115%,0%,1)"/>
  <circle cx="3" cy="13" r="1" fill="srgba(0%,24.3198%,0%,1)"/>
  <circle cx="4" cy="13" r="1" fill="srgba(0%,1.93179%,0%,1)"/>
  <circle cx="5" cy="13" r="1" fill="black"/>
  <circle cx="6" cy="13" r="1" fill="black"/>
  <circle cx="7" cy="13" r="1" fill="black"/>
  <circle cx="8" cy="13" r="1" fill="black"/>
  <circle cx="9" cy="13" r="1" fill="black"/>
  <circle cx="10" cy="13" r="1" fill="black"/>
  <circle cx="11" cy="13" r="1" fill="black"/>
  <circle cx="12" cy="13" r="1" fill="black"/>
  <circle cx="13" cy="13" r="1" fill="black"/>
  <circle cx="14" cy="13" r="1" fill="black"/>
  <circle cx="15" cy="13" r="1" fill="srgba(0.030518%,0.030518%,0.030518%,1)"/>
  <circle cx="0" cy="14" r="1" fill="srgba(0%,60.3418%,0%,1)"/>
  <circle cx="1" cy="14" r="1" fill="srgba(0%,45.9983%,0%,1)"/>
  <circle cx="2" cy="14" r="1" fill="srgba(0%,13.8384%,0%,1)"/>
  <circle cx="3" cy="14" r="1" fill="srgba(0%,0.137331%,0%,1)"/>
  <circle cx="4" cy="14" r="1" fill="black"/>
  <circle cx="5" cy="14" r="1" fill="black"/>
  <circle cx="6" cy="14" r="1" fill="black"/>
  <circle cx="7" cy="14" r="1" fill="black"/>
  <circle cx="8" cy="14" r="1" fill="black"/>
  <circle cx="9" cy="14" r="1" fill="black"/>
  <circle cx="10" cy="14" r="1" fill="black"/>
  <circle cx="11" cy="14" r="1" fill="black"/>
  <circle cx="12" cy="14" r="1" fill="black"/>
  <circle cx="13" cy="14" r="1" fill="black"/>
  <circle cx="14" cy="14" r="1" fill="black"/>
  <circle cx="15" cy="14" r="1" fill="srgba(0.030518%,0.030518%,0.030518%,1)"/>
  <circle cx="0" cy="15" r="1" fill="srgba(0.129702%,37.7035%,0.129702%,1)"/>
  <circle cx="1" cy="15" r="1" fill="srgba(0.131228%,7.72564%,0.131228%,1)"/>
  <circle cx="2" cy="15" r="1" fill="srgba(0.131228%,0%,0.131228%,1)"/>
  <circle cx="3" cy="15" r="1" fill="srgba(0.131228%,0.108339%,0.131228%,1)"/>
  <circle cx="4" cy="15" r="1" fill="srgba(0.131228%,0.132753%,0.131228%,1)"/>
  <circle cx="5" cy="15" r="1" fill="srgba(0.131228%,0.131228%,0.131228%,1)"/>
  <circle cx="6" cy="15" r="1" fill="srgba(0.131228%,0.131228%,0.131228%,1)"/>
  <circle cx="7" cy="15" r="1" fill="srgba(0.131228%,0.131228%,0.131228%,1)"/>
  <circle cx="8" cy="15" r="1" fill="srgba(0.131228%,0.131228%,0.131228%,1)"/>
  <circle cx="9" cy="15" r="1" fill="srgba(0.131228%,0.131228%,0.131228%,1)"/>
  <circle cx="10" cy="15" r="1" fill="srgba(0.131228%,0.131228%,0.131228%,1)"/>
  <circle cx="11" cy="15" r="1" fill="srgba(0.131228%,0.131228%,0.131228%,1)"/>
  <circle cx="12" cy="15" r="1" fill="srgba(0.131228%,0.131228%,0.131228%,1)"/>
  <circle cx="13" cy="15" r="1" fill="srgba(0.131228%,0.131228%,0.131228%,1)"/>
  <circle cx="14" cy="15" r="1" fill="srgba(0.129702%,0.129702%,0.129702%,1)"/>
  <circle cx="15" cy="15" r="1" fill="srgba(0.161746%,0.161746%,0.161746%,1)"/>
</svg>
