<?xml version="1.0" standalone="no"?>
<!DOCTYPE svg PUBLIC "-//W3C//DTD SVG 20010904//EN"
  "http://www.w3.org/TR/2001/REC-SVG-20010904/DTD/svg10.dtd">
<svg width="16" height="16">
  <circle cx="0" cy="0" r="1" fill="srgba(0.523384%,41.8769%,65.6672%,1)"/>
  <circle cx="1" cy="0" r="1" fill="srgba(0.523384%,41.8769%,65.6672%,1)"/>
  <circle cx="2" cy="0" r="1" fill="srgba(0.268559%,41.7792%,65.835%,1)"/>
  <circle cx="3" cy="0" r="1" fill="srgba(4.67994%,43.476%,62.9114%,1)"/>
  <circle cx="4" cy="0" r="1" fill="srgba(76.1929%,70.9911%,15.5154%,1)"/>
  <circle cx="5" cy="0" r="1" fill="srgba(100%,80.5493%,0%,1)"/>
  <circle cx="6" cy="0" r="1" fill="srgba(99.884%,80.1144%,0%,1)"/>
  <circle cx="7" cy="0" r="1" fill="srgba(39.5987%,56.9696%,40.0885%,1)"/>
  <circle cx="8" cy="0" r="1" fill="srgba(0%,41.2146%,66.8147%,1)"/>
  <circle cx="9" cy="0" r="1" fill="srgba(0.523384%,41.8769%,65.6672%,1)"/>
  <circle cx="10" cy="0" r="1" fill="srgba(0.523384%,41.8769%,65.6672%,1)"/>
  <circle cx="11" cy="0" r="1" fill="srgba(0.523384%,41.8769%,65.6672%,1)"/>
  <circle cx="12" cy="0" r="1" fill="srgba(0.523384%,41.8769%,65.6672%,1)"/>
  <circle cx="13" cy="0" r="1" fill="srgba(0.523384%,41.8769%,65.6672%,1)"/>
  <circle cx="14" cy="0" r="1" fill="srgba(0.521859%,41.8753%,65.6657%,1)"/>
  <circle cx="15" cy="0" r="1" fill="srgba(0.561532%,41.8997%,65.6825%,1)"/>
  <circle cx="0" cy="1" r="1" fill="srgba(0%,41.5518%,65.481%,1)"/>
  <circle cx="1" cy="1" r="1" fill="srgba(0%,41.5518%,65.481%,1)"/>
  <circle cx="2" cy="1" r="1" fill="srgba(0%,41.4527%,65.6489%,1)"/>
  <circle cx="3" cy="1" r="1" fill="srgba(4.17792%,43.1647%,62.7329%,1)"/>
  <circle cx="4" cy="1" r="1" fill="srgba(76.0678%,70.9133%,15.4711%,1)"/>
  <circle cx="5" cy="1" r="1" fill="srgba(100%,80.5539%,0%,1)"/>
  <circle cx="6" cy="1" r="1" fill="srgba(99.8856%,80.116%,0%,1)"/>
  <circle cx="7" cy="1" r="1" fill="srgba(39.2813%,56.7742%,39.9802%,1)"/>
  <circle cx="8" cy="1" r="1" fill="srgba(0%,40.8835%,66.6255%,1)"/>
  <circle cx="9" cy="1" r="1" fill="srgba(0%,41.5518%,65.481%,1)"/>
  <circle cx="10" cy="1" r="1" fill="srgba(0%,41.5518%,65.481%,1)"/>
  <circle cx="11" cy="1" r="1" fill="srgba(0%,41.5518%,65.481%,1)"/>
  <circle cx="12" cy="1" r="1" fill="srgba(0%,41.5518%,65.481%,1)"/>
  <circle cx="13" cy="1" r="1" fill="srgba(0%,41.5518%,65.481%,1)"/>
  <circle cx="14" cy="1" r="1" fill="srgba(0%,41.5503%,65.4795%,1)"/>
  <circle cx="15" cy="1" r="1" fill="srgba(0.0381476%,41.5747%,65.4963%,1)"/>
  <circle cx="0" cy="2" r="1" fill="srgba(0,106,167,1)"/>
  <circle cx="1" cy="2" r="1" fill="srgba(0,106,167,1)"/>
  <circle cx="2" cy="2" r="1" fill="srgba(0%,41.4694%,65.658%,1)"/>
  <circle cx="3" cy="2" r="1" fill="srgba(4.17792%,43.18%,62.742%,1)"/>
  <circle cx="4" cy="2" r="1" fill="srgba(76.0693%,70.9178%,15.4742%,1)"/>
  <circle cx="5" cy="2" r="1" fill="srgba(100%,80.5539%,0%,1)"/>
  <circle cx="6" cy="2" r="1" fill="srgba(99.8856%,80.116%,0%,1)"/>
  <circle cx="7" cy="2" r="1" fill="srgba(39.2813%,56.7834%,39.9847%,1)"/>
  <circle cx="8" cy="2" r="1" fill="srgba(0%,40.9003%,66.6346%,1)"/>
  <circle cx="9" cy="2" r="1" fill="srgba(0,106,167,1)"/>
  <circle cx="10" cy="2" r="1" fill="srgba(0,106,167,1)"/>
  <circle cx="11" cy="2" r="1" fill="srgba(0,106,167,1)"/>
  <circle cx="12" cy="2" r="1" fill="srgba(0,106,167,1)"/>
  <circle cx="13" cy="2" r="1" fill="srgba(0,106,167,1)"/>
  <circle cx="14" cy="2" r="1" fill="srgba(0%,41.5671%,65.4887%,1)"/>
  <circle cx="15" cy="2" r="1" fill="srgba(0.0381476%,41.5915%,65.5055%,1)"/>
  <circle cx="0" cy="3" r="1" fill="srgba(0,106,167,1)"/>
  <circle cx="1" cy="3" r="1" fill="srgba(0,106,167,1)"/>
  <circle cx="2" cy="3" r="1" fill="srgba(0%,41.4694%,65.658%,1)"/>
  <circle cx="3" cy="3" r="1" fill="srgba(4.17792%,43.18%,62.742%,1)"/>
  <circle cx="4" cy="3" r="1" fill="srgba(76.0693%,70.9178%,15.4742%,1)"/>
  <circle cx="5" cy="3" r="1" fill="srgba(100%,80.5539%,0%,1)"/>
  <circle cx="6" cy="3" r="1" fill="srgba(99.8856%,80.116%,0%,1)"/>
  <circle cx="7" cy="3" r="1" fill="srgba(39.2813%,56.7834%,39.9847%,1)"/>
  <circle cx="8" cy="3" r="1" fill="srgba(0%,40.9003%,66.6346%,1)"/>
  <circle cx="9" cy="3" r="1" fill="srgba(0,106,167,1)"/>
  <circle cx="10" cy="3" r="1" fill="srgba(0,106,167,1)"/>
  <circle cx="11" cy="3" r="1" fill="srgba(0,106,167,1)"/>
  <circle cx="12" cy="3" r="1" fill="srgba(0,106,167,1)"/>
  <circle cx="13" cy="3" r="1" fill="srgba(0,106,167,1)"/>
  <circle cx="14" cy="3" r="1" fill="srgba(0%,41.5671%,65.4887%,1)"/>
  <circle cx="15" cy="3" r="1" fill="srgba(0.0381476%,41.5915%,65.5055%,1)"/>
  <circle cx="0" cy="4" r="1" fill="srgba(0%,41.5656%,65.4963%,1)"/>
  <circle cx="1" cy="4" r="1" fill="srgba(0%,41.5656%,65.4963%,1)"/>
  <circle cx="2" cy="4" r="1" fill="srgba(0%,41.4664%,65.6641%,1)"/>
  <circle cx="3" cy="4" r="1" fill="srgba(4.17792%,43.1785%,62.7466%,1)"/>
  <circle cx="4" cy="4" r="1" fill="srgba(76.0678%,70.9163%,15.4742%,1)"/>
  <circle cx="5" cy="4" r="1" fill="srgba(100%,80.5539%,0%,1)"/>
  <circle cx="6" cy="4" r="1" fill="srgba(99.8856%,80.116%,0%,1)"/>
  <circle cx="7" cy="4" r="1" fill="srgba(39.2813%,56.7819%,39.9878%,1)"/>
  <circle cx="8" cy="4" r="1" fill="srgba(0%,40.8972%,66.6392%,1)"/>
  <circle cx="9" cy="4" r="1" fill="srgba(0%,41.5656%,65.4948%,1)"/>
  <circle cx="10" cy="4" r="1" fill="srgba(0%,41.5656%,65.4948%,1)"/>
  <circle cx="11" cy="4" r="1" fill="srgba(0%,41.5656%,65.4948%,1)"/>
  <circle cx="12" cy="4" r="1" fill="srgba(0%,41.5656%,65.4948%,1)"/>
  <circle cx="13" cy="4" r="1" fill="srgba(0%,41.5656%,65.4948%,1)"/>
  <circle cx="14" cy="4" r="1" fill="srgba(0%,41.564%,65.4932%,1)"/>
  <circle cx="15" cy="4" r="1" fill="srgba(0.0381476%,41.5885%,65.51%,1)"/>
  <circle cx="0" cy="5" r="1" fill="srgba(0%,41.3367%,65.8869%,1)"/>
  <circle cx="1" cy="5" r="1" fill="srgba(0%,41.3367%,65.8869%,1)"/>
  <circle cx="2" cy="5" r="1" fill="srgba(0%,41.2375%,66.0563%,1)"/>
  <circle cx="3" cy="5" r="1" fill="srgba(4.17334%,42.9587%,63.122%,1)"/>
  <circle cx="4" cy="5" r="1" fill="srgba(76.0571%,70.8629%,15.5673%,1)"/>
  <circle cx="5" cy="5" r="1" fill="srgba(100%,80.557%,0%,1)"/>
  <circle cx="6" cy="5" r="1" fill="srgba(99.884%,80.116%,0%,1)"/>
  <circle cx="7" cy="5" r="1" fill="srgba(39.2676%,56.6369%,40.238%,1)"/>
  <circle cx="8" cy="5" r="1" fill="srgba(0%,40.6516%,67.0558%,1)"/>
  <circle cx="9" cy="5" r="1" fill="srgba(0%,41.3245%,65.9052%,1)"/>
  <circle cx="10" cy="5" r="1" fill="srgba(0%,41.3245%,65.9052%,1)"/>
  <circle cx="11" cy="5" r="1" fill="srgba(0%,41.3245%,65.9052%,1)"/>
  <circle cx="12" cy="5" r="1" fill="srgba(0%,41.3245%,65.9052%,1)"/>
  <circle cx="13" cy="5" r="1" fill="srgba(0%,41.3245%,65.9052%,1)"/>
  <circle cx="14" cy="5" r="1" fill="srgba(0%,41.323%,65.9037%,1)"/>
  <circle cx="15" cy="5" r="1" fill="srgba(0.0259403%,41.3474%,65.9205%,1)"/>
  <circle cx="0" cy="6" r="1" fill="srgba(58.1064%,63.9887%,27.2892%,1)"/>
  <circle cx="1" cy="6" r="1" fill="srgba(58.1064%,63.9887%,27.2892%,1)"/>
  <circle cx="2" cy="6" r="1" fill="srgba(57.9995%,63.9475%,27.3594%,1)"/>
  <circle cx="3" cy="6" r="1" fill="srgba(59.8474%,64.6601%,26.1433%,1)"/>
  <circle cx="4" cy="6" r="1" fill="srgba(89.8009%,76.2158%,6.44846%,1)"/>
  <circle cx="5" cy="6" r="1" fill="srgba(100%,80.2304%,0%,1)"/>
  <circle cx="6" cy="6" r="1" fill="srgba(99.7238%,80.0488%,0%,1)"/>
  <circle cx="7" cy="6" r="1" fill="srgba(74.3313%,70.2693%,16.7514%,1)"/>
  <circle cx="8" cy="6" r="1" fill="srgba(57.145%,63.6118%,27.9179%,1)"/>
  <circle cx="9" cy="6" r="1" fill="srgba(57.8714%,63.8926%,27.4388%,1)"/>
  <circle cx="10" cy="6" r="1" fill="srgba(57.8714%,63.8926%,27.4388%,1)"/>
  <circle cx="11" cy="6" r="1" fill="srgba(57.8714%,63.8926%,27.4388%,1)"/>
  <circle cx="12" cy="6" r="1" fill="srgba(57.8714%,63.8926%,27.4388%,1)"/>
  <circle cx="13" cy="6" r="1" fill="srgba(57.8714%,63.8926%,27.4388%,1)"/>
  <circle cx="14" cy="6" r="1" fill="srgba(57.8698%,63.8911%,27.4372%,1)"/>
  <circle cx="15" cy="6" r="1" fill="srgba(57.8866%,63.9063%,27.4678%,1)"/>
  <circle cx="0" cy="7" r="1" fill="srgba(100%,80.6592%,0%,1)"/>
  <circle cx="1" cy="7" r="1" fill="srgba(100%,80.6592%,0%,1)"/>
  <circle cx="2" cy="7" r="1" fill="srgba(100%,80.6607%,0%,1)"/>
  <circle cx="3" cy="7" r="1" fill="srgba(99.9847%,80.6317%,0%,1)"/>
  <circle cx="4" cy="7" r="1" fill="srgba(99.7024%,80.1556%,0%,1)"/>
  <circle cx="5" cy="7" r="1" fill="srgba(99.6017%,79.9908%,0%,1)"/>
  <circle cx="6" cy="7" r="1" fill="srgba(99.6063%,79.9985%,0%,1)"/>
  <circle cx="7" cy="7" r="1" fill="srgba(99.8474%,80.3967%,0%,1)"/>
  <circle cx="8" cy="7" r="1" fill="srgba(100%,80.6668%,0%,1)"/>
  <circle cx="9" cy="7" r="1" fill="srgba(100%,80.6561%,0%,1)"/>
  <circle cx="10" cy="7" r="1" fill="srgba(100%,80.6561%,0%,1)"/>
  <circle cx="11" cy="7" r="1" fill="srgba(100%,80.6561%,0%,1)"/>
  <circle cx="12" cy="7" r="1" fill="srgba(100%,80.6561%,0%,1)"/>
  <circle cx="13" cy="7" r="1" fill="srgba(100%,80.6561%,0%,1)"/>
  <circle cx="14" cy="7" r="1" fill="srgba(100%,80.6561%,0%,1)"/>
  <circle cx="15" cy="7" r="1" fill="srgba(100%,80.6638%,0.0167849%,1)"/>
  <circle cx="0" cy="8" r="1" fill="srgba(100%,80.6653%,0%,1)"/>
  <circle cx="1" cy="8" r="1" fill="srgba(100%,80.6653%,0%,1)"/>
  <circle cx="2" cy="8" r="1" fill="srgba(100%,80.6668%,0%,1)"/>
  <circle cx="3" cy="8" r="1" fill="srgba(99.9847%,80.6378%,0%,1)"/>
  <circle cx="4" cy="8" r="1" fill="srgba(99.7024%,80.1572%,0%,1)"/>
  <circle cx="5" cy="8" r="1" fill="srgba(99.6017%,79.9908%,0%,1)"/>
  <circle cx="6" cy="8" r="1" fill="srgba(99.6063%,79.9985%,0%,1)"/>
  <circle cx="7" cy="8" r="1" fill="srgba(99.8474%,80.3998%,0%,1)"/>
  <circle cx="8" cy="8" r="1" fill="srgba(100%,80.6744%,0%,1)"/>
  <circle cx="9" cy="8" r="1" fill="srgba(100%,80.6622%,0%,1)"/>
  <circle cx="10" cy="8" r="1" fill="srgba(100%,80.6622%,0%,1)"/>
  <circle cx="11" cy="8" r="1" fill="srgba(100%,80.6622%,0%,1)"/>
  <circle cx="12" cy="8" r="1" fill="srgba(100%,80.6622%,0%,1)"/>
  <circle cx="13" cy="8" r="1" fill="srgba(100%,80.6622%,0%,1)"/>
  <circle cx="14" cy="8" r="1" fill="srgba(100%,80.6622%,0%,1)"/>
  <circle cx="15" cy="8" r="1" fill="srgba(100%,80.6699%,0.0167849%,1)"/>
  <circle cx="0" cy="9" r="1" fill="srgba(59.3072%,64.4984%,26.7262%,1)"/>
  <circle cx="1" cy="9" r="1" fill="srgba(59.3072%,64.4984%,26.7262%,1)"/>
  <circle cx="2" cy="9" r="1" fill="srgba(59.2035%,64.4587%,26.7948%,1)"/>
  <circle cx="3" cy="9" r="1" fill="srgba(60.9979%,65.1484%,25.6046%,1)"/>
  <circle cx="4" cy="9" r="1" fill="srgba(90.0847%,76.3363%,6.31418%,1)"/>
  <circle cx="5" cy="9" r="1" fill="srgba(100%,80.2228%,0%,1)"/>
  <circle cx="6" cy="9" r="1" fill="srgba(99.7223%,80.0473%,0%,1)"/>
  <circle cx="7" cy="9" r="1" fill="srgba(74.7692%,70.4799%,16.6629%,1)"/>
  <circle cx="8" cy="9" r="1" fill="srgba(57.8805%,63.9689%,27.776%,1)"/>
  <circle cx="9" cy="9" r="1" fill="srgba(58.5946%,64.2435%,27.2999%,1)"/>
  <circle cx="10" cy="9" r="1" fill="srgba(58.5946%,64.2435%,27.2999%,1)"/>
  <circle cx="11" cy="9" r="1" fill="srgba(58.5946%,64.2435%,27.2999%,1)"/>
  <circle cx="12" cy="9" r="1" fill="srgba(58.5946%,64.2435%,27.2999%,1)"/>
  <circle cx="13" cy="9" r="1" fill="srgba(58.5946%,64.2435%,27.2999%,1)"/>
  <circle cx="14" cy="9" r="1" fill="srgba(58.5931%,64.242%,27.2984%,1)"/>
  <circle cx="15" cy="9" r="1" fill="srgba(58.6099%,64.2573%,27.3274%,1)"/>
  <circle cx="0" cy="10" r="1" fill="srgba(0%,41.4115%,65.8045%,1)"/>
  <circle cx="1" cy="10" r="1" fill="srgba(0%,41.4115%,65.8045%,1)"/>
  <circle cx="2" cy="10" r="1" fill="srgba(0%,41.3123%,65.9739%,1)"/>
  <circle cx="3" cy="10" r="1" fill="srgba(4.17487%,43.0304%,63.0426%,1)"/>
  <circle cx="4" cy="10" r="1" fill="srgba(76.0601%,70.8797%,15.5474%,1)"/>
  <circle cx="5" cy="10" r="1" fill="srgba(100%,80.5554%,0%,1)"/>
  <circle cx="6" cy="10" r="1" fill="srgba(99.884%,80.116%,0%,1)"/>
  <circle cx="7" cy="10" r="1" fill="srgba(39.2691%,56.6659%,40.2274%,1)"/>
  <circle cx="8" cy="10" r="1" fill="srgba(0%,40.7019%,67.039%,1)"/>
  <circle cx="9" cy="10" r="1" fill="srgba(0%,41.3733%,65.8885%,1)"/>
  <circle cx="10" cy="10" r="1" fill="srgba(0%,41.3733%,65.8885%,1)"/>
  <circle cx="11" cy="10" r="1" fill="srgba(0%,41.3733%,65.8885%,1)"/>
  <circle cx="12" cy="10" r="1" fill="srgba(0%,41.3733%,65.8885%,1)"/>
  <circle cx="13" cy="10" r="1" fill="srgba(0%,41.3733%,65.8885%,1)"/>
  <circle cx="14" cy="10" r="1" fill="srgba(0%,41.3718%,65.8869%,1)"/>
  <circle cx="15" cy="10" r="1" fill="srgba(0.0289921%,41.3962%,65.9037%,1)"/>
  <circle cx="0" cy="11" r="1" fill="srgba(0%,41.564%,65.4978%,1)"/>
  <circle cx="1" cy="11" r="1" fill="srgba(0%,41.564%,65.4978%,1)"/>
  <circle cx="2" cy="11" r="1" fill="srgba(0%,41.4649%,65.6657%,1)"/>
  <circle cx="3" cy="11" r="1" fill="srgba(4.17792%,43.1769%,62.7481%,1)"/>
  <circle cx="4" cy="11" r="1" fill="srgba(76.0678%,70.9163%,15.4757%,1)"/>
  <circle cx="5" cy="11" r="1" fill="srgba(100%,80.5539%,0%,1)"/>
  <circle cx="6" cy="11" r="1" fill="srgba(99.8856%,80.116%,0%,1)"/>
  <circle cx="7" cy="11" r="1" fill="srgba(39.2813%,56.7803%,39.9878%,1)"/>
  <circle cx="8" cy="11" r="1" fill="srgba(0%,40.8957%,66.6407%,1)"/>
  <circle cx="9" cy="11" r="1" fill="srgba(0%,41.564%,65.4963%,1)"/>
  <circle cx="10" cy="11" r="1" fill="srgba(0%,41.564%,65.4963%,1)"/>
  <circle cx="11" cy="11" r="1" fill="srgba(0%,41.564%,65.4963%,1)"/>
  <circle cx="12" cy="11" r="1" fill="srgba(0%,41.564%,65.4963%,1)"/>
  <circle cx="13" cy="11" r="1" fill="srgba(0%,41.564%,65.4963%,1)"/>
  <circle cx="14" cy="11" r="1" fill="srgba(0%,41.5625%,65.4948%,1)"/>
  <circle cx="15" cy="11" r="1" fill="srgba(0.0381476%,41.5869%,65.5116%,1)"/>
  <circle cx="0" cy="12" r="1" fill="srgba(0,106,167,1)"/>
  <circle cx="1" cy="12" r="1" fill="srgba(0,106,167,1)"/>
  <circle cx="2" cy="12" r="1" fill="srgba(0%,41.4694%,65.658%,1)"/>
  <circle cx="3" cy="12" r="1" fill="srgba(4.17792%,43.18%,62.742%,1)"/>
  <circle cx="4" cy="12" r="1" fill="srgba(76.0693%,70.9178%,15.4742%,1)"/>
  <circle cx="5" cy="12" r="1" fill="srgba(100%,80.5539%,0%,1)"/>
  <circle cx="6" cy="12" r="1" fill="srgba(99.8856%,80.116%,0%,1)"/>
  <circle cx="7" cy="12" r="1" fill="srgba(39.2813%,56.7834%,39.9847%,1)"/>
  <circle cx="8" cy="12" r="1" fill="srgba(0%,40.9003%,66.6346%,1)"/>
  <circle cx="9" cy="12" r="1" fill="srgba(0,106,167,1)"/>
  <circle cx="10" cy="12" r="1" fill="srgba(0,106,167,1)"/>
  <circle cx="11" cy="12" r="1" fill="srgba(0,106,167,1)"/>
  <circle cx="12" cy="12" r="1" fill="srgba(0,106,167,1)"/>
  <circle cx="13" cy="12" r="1" fill="srgba(0,106,167,1)"/>
  <circle cx="14" cy="12" r="1" fill="srgba(0%,41.5671%,65.4887%,1)"/>
  <circle cx="15" cy="12" r="1" fill="srgba(0.0381476%,41.5915%,65.5055%,1)"/>
  <circle cx="0" cy="13" r="1" fill="srgba(0,106,167,1)"/>
  <circle cx="1" cy="13" r="1" fill="srgba(0,106,167,1)"/>
  <circle cx="2" cy="13" r="1" fill="srgba(0%,41.4694%,65.658%,1)"/>
  <circle cx="3" cy="13" r="1" fill="srgba(4.17792%,43.18%,62.742%,1)"/>
  <circle cx="4" cy="13" r="1" fill="srgba(76.0693%,70.9178%,15.4742%,1)"/>
  <circle cx="5" cy="13" r="1" fill="srgba(100%,80.5539%,0%,1)"/>
  <circle cx="6" cy="13" r="1" fill="srgba(99.8856%,80.116%,0%,1)"/>
  <circle cx="7" cy="13" r="1" fill="srgba(39.2813%,56.7834%,39.9847%,1)"/>
  <circle cx="8" cy="13" r="1" fill="srgba(0%,40.9003%,66.6346%,1)"/>
  <circle cx="9" cy="13" r="1" fill="srgba(0,106,167,1)"/>
  <circle cx="10" cy="13" r="1" fill="srgba(0,106,167,1)"/>
  <circle cx="11" cy="13" r="1" fill="srgba(0,106,167,1)"/>
  <circle cx="12" cy="13" r="1" fill="srgba(0,106,167,1)"/>
  <circle cx="13" cy="13" r="1" fill="srgba(0,106,167,1)"/>
  <circle cx="14" cy="13" r="1" fill="srgba(0%,41.5671%,65.4887%,1)"/>
  <circle cx="15" cy="13" r="1" fill="srgba(0.0381476%,41.5915%,65.5055%,1)"/>
  <circle cx="0" cy="14" r="1" fill="srgba(0%,41.564%,65.4871%,1)"/>
  <circle cx="1" cy="14" r="1" fill="srgba(0%,41.564%,65.4871%,1)"/>
  <circle cx="2" cy="14" r="1" fill="srgba(0%,41.4649%,65.655%,1)"/>
  <circle cx="3" cy="14" r="1" fill="srgba(4.17792%,43.1769%,62.739%,1)"/>
  <circle cx="4" cy="14" r="1" fill="srgba(76.0693%,70.9148%,15.4726%,1)"/>
  <circle cx="5" cy="14" r="1" fill="srgba(100%,80.5524%,0%,1)"/>
  <circle cx="6" cy="14" r="1" fill="srgba(99.8856%,80.1144%,0%,1)"/>
  <circle cx="7" cy="14" r="1" fill="srgba(39.2813%,56.7803%,39.9832%,1)"/>
  <circle cx="8" cy="14" r="1" fill="srgba(0%,40.8957%,66.6316%,1)"/>
  <circle cx="9" cy="14" r="1" fill="srgba(0%,41.564%,65.4871%,1)"/>
  <circle cx="10" cy="14" r="1" fill="srgba(0%,41.564%,65.4871%,1)"/>
  <circle cx="11" cy="14" r="1" fill="srgba(0%,41.564%,65.4871%,1)"/>
  <circle cx="12" cy="14" r="1" fill="srgba(0%,41.564%,65.4871%,1)"/>
  <circle cx="13" cy="14" r="1" fill="srgba(0%,41.564%,65.4871%,1)"/>
  <circle cx="14" cy="14" r="1" fill="srgba(0%,41.5625%,65.4856%,1)"/>
  <circle cx="15" cy="14" r="1" fill="srgba(0.0381476%,41.5869%,65.5024%,1)"/>
  <circle cx="0" cy="15" r="1" fill="srgba(0.131228%,41.6449%,65.536%,1)"/>
  <circle cx="1" cy="15" r="1" fill="srgba(0.131228%,41.6449%,65.536%,1)"/>
  <circle cx="2" cy="15" r="1" fill="srgba(0%,41.5457%,65.7038%,1)"/>
  <circle cx="3" cy="15" r="1" fill="srgba(4.30304%,43.2547%,62.7909%,1)"/>
  <circle cx="4" cy="15" r="1" fill="srgba(76.0967%,70.9514%,15.584%,1)"/>
  <circle cx="5" cy="15" r="1" fill="srgba(100%,80.5753%,0%,1)"/>
  <circle cx="6" cy="15" r="1" fill="srgba(99.8856%,80.1389%,0%,1)"/>
  <circle cx="7" cy="15" r="1" fill="srgba(39.3606%,56.8383%,40.0626%,1)"/>
  <circle cx="8" cy="15" r="1" fill="srgba(0%,40.9781%,66.6789%,1)"/>
  <circle cx="9" cy="15" r="1" fill="srgba(0.131228%,41.6449%,65.536%,1)"/>
  <circle cx="10" cy="15" r="1" fill="srgba(0.131228%,41.6449%,65.536%,1)"/>
  <circle cx="11" cy="15" r="1" fill="srgba(0.131228%,41.6449%,65.536%,1)"/>
  <circle cx="12" cy="15" r="1" fill="srgba(0.131228%,41.6449%,65.536%,1)"/>
  <circle cx="13" cy="15" r="1" fill="srgba(0.131228%,41.6449%,65.536%,1)"/>
  <circle cx="14" cy="15" r="1" fill="srgba(0.129702%,41.6434%,65.5344%,1)"/>
  <circle cx="15" cy="15" r="1" fill="srgba(0.169375%,41.6678%,65.5512%,1)"/>
</svg>
