<?xml version="1.0" standalone="no"?>
<!DOCTYPE svg PUBLIC "-//W3C//DTD SVG 20010904//EN"
  "http://www.w3.org/TR/2001/REC-SVG-20010904/DTD/svg10.dtd">
<svg width="16" height="16">
  <circle cx="0" cy="0" r="1" fill="srgba(87.4525%,0%,0%,1)"/>
  <circle cx="1" cy="0" r="1" fill="srgba(87.4372%,0%,0%,1)"/>
  <circle cx="2" cy="0" r="1" fill="srgba(87.2877%,0%,0%,1)"/>
  <circle cx="3" cy="0" r="1" fill="srgba(87.6646%,2.0676%,2.0676%,1)"/>
  <circle cx="4" cy="0" r="1" fill="srgba(87.8279%,2.98161%,2.98161%,1)"/>
  <circle cx="5" cy="0" r="1" fill="srgba(87.4144%,0.0595102%,0.0595102%,1)"/>
  <circle cx="6" cy="0" r="1" fill="srgba(87.4357%,0%,0%,1)"/>
  <circle cx="7" cy="0" r="1" fill="srgba(87.4525%,0%,0%,1)"/>
  <circle cx="8" cy="0" r="1" fill="srgba(223,0,0,1)"/>
  <circle cx="9" cy="0" r="1" fill="srgba(223,0,0,1)"/>
  <circle cx="10" cy="0" r="1" fill="srgba(223,0,0,1)"/>
  <circle cx="11" cy="0" r="1" fill="srgba(223,0,0,1)"/>
  <circle cx="12" cy="0" r="1" fill="srgba(223,0,0,1)"/>
  <circle cx="13" cy="0" r="1" fill="srgba(223,0,0,1)"/>
  <circle cx="14" cy="0" r="1" fill="srgba(223,0,0,1)"/>
  <circle cx="15" cy="0" r="1" fill="srgba(223,0,0,1)"/>
  <circle cx="0" cy="1" r="1" fill="srgba(87.4372%,0%,0%,1)"/>
  <circle cx="1" cy="1" r="1" fill="srgba(87.5135%,0.920119%,0.920119%,1)"/>
  <circle cx="2" cy="1" r="1" fill="srgba(91.104%,29.1966%,29.1966%,1)"/>
  <circle cx="3" cy="1" r="1" fill="srgba(94.0749%,52.7825%,52.7825%,1)"/>
  <circle cx="4" cy="1" r="1" fill="srgba(89.8817%,19.3668%,19.3668%,1)"/>
  <circle cx="5" cy="1" r="1" fill="srgba(88.0858%,5.17586%,5.17586%,1)"/>
  <circle cx="6" cy="1" r="1" fill="srgba(87.599%,1.54726%,1.54726%,1)"/>
  <circle cx="7" cy="1" r="1" fill="srgba(87.4205%,0%,0%,1)"/>
  <circle cx="8" cy="1" r="1" fill="srgba(223,0,0,1)"/>
  <circle cx="9" cy="1" r="1" fill="srgba(223,0,0,1)"/>
  <circle cx="10" cy="1" r="1" fill="srgba(223,0,0,1)"/>
  <circle cx="11" cy="1" r="1" fill="srgba(223,0,0,1)"/>
  <circle cx="12" cy="1" r="1" fill="srgba(223,0,0,1)"/>
  <circle cx="13" cy="1" r="1" fill="srgba(223,0,0,1)"/>
  <circle cx="14" cy="1" r="1" fill="srgba(223,0,0,1)"/>
  <circle cx="15" cy="1" r="1" fill="srgba(223,0,0,1)"/>
  <circle cx="0" cy="2" r="1" fill="srgba(87.2877%,0%,0%,1)"/>
  <circle cx="1" cy="2" r="1" fill="srgba(90.9453%,27.9438%,27.9438%,1)"/>
  <circle cx="2" cy="2" r="1" fill="srgba(98.2132%,85.7633%,85.7633%,1)"/>
  <circle cx="3" cy="2" r="1" fill="srgba(91.6075%,33.1304%,33.1304%,1)"/>
  <circle cx="4" cy="2" r="1" fill="srgba(87.6844%,2.3209%,2.3209%,1)"/>
  <circle cx="5" cy="2" r="1" fill="srgba(92.9168%,43.6332%,43.6332%,1)"/>
  <circle cx="6" cy="2" r="1" fill="srgba(90.3548%,23.1312%,23.1312%,1)"/>
  <circle cx="7" cy="2" r="1" fill="srgba(87.5715%,1.40993%,1.40993%,1)"/>
  <circle cx="8" cy="2" r="1" fill="srgba(87.4311%,0%,0%,1)"/>
  <circle cx="9" cy="2" r="1" fill="srgba(87.4525%,0%,0%,1)"/>
  <circle cx="10" cy="2" r="1" fill="srgba(223,0,0,1)"/>
  <circle cx="11" cy="2" r="1" fill="srgba(223,0,0,1)"/>
  <circle cx="12" cy="2" r="1" fill="srgba(223,0,0,1)"/>
  <circle cx="13" cy="2" r="1" fill="srgba(223,0,0,1)"/>
  <circle cx="14" cy="2" r="1" fill="srgba(223,0,0,1)"/>
  <circle cx="15" cy="2" r="1" fill="srgba(223,0,0,1)"/>
  <circle cx="0" cy="3" r="1" fill="srgba(87.4922%,0.321965%,0.321965%,1)"/>
  <circle cx="1" cy="3" r="1" fill="srgba(95.3338%,62.8153%,62.8153%,1)"/>
  <circle cx="2" cy="3" r="1" fill="srgba(96.7086%,73.8949%,73.8949%,1)"/>
  <circle cx="3" cy="3" r="1" fill="srgba(90.0511%,21.2085%,21.2085%,1)"/>
  <circle cx="4" cy="3" r="1" fill="srgba(92.2576%,38.3688%,38.3688%,1)"/>
  <circle cx="5" cy="3" r="1" fill="srgba(91.87%,35.3017%,35.3017%,1)"/>
  <circle cx="6" cy="3" r="1" fill="srgba(91.3466%,31.1376%,31.1376%,1)"/>
  <circle cx="7" cy="3" r="1" fill="srgba(92.6635%,41.561%,41.561%,1)"/>
  <circle cx="8" cy="3" r="1" fill="srgba(87.7134%,2.09201%,2.09201%,1)"/>
  <circle cx="9" cy="3" r="1" fill="srgba(87.4357%,0%,0%,1)"/>
  <circle cx="10" cy="3" r="1" fill="srgba(223,0,0,1)"/>
  <circle cx="11" cy="3" r="1" fill="srgba(223,0,0,1)"/>
  <circle cx="12" cy="3" r="1" fill="srgba(223,0,0,1)"/>
  <circle cx="13" cy="3" r="1" fill="srgba(223,0,0,1)"/>
  <circle cx="14" cy="3" r="1" fill="srgba(223,0,0,1)"/>
  <circle cx="15" cy="3" r="1" fill="srgba(223,0,0,1)"/>
  <circle cx="0" cy="4" r="1" fill="srgba(87.5532%,0.813306%,0.813306%,1)"/>
  <circle cx="1" cy="4" r="1" fill="srgba(95.7351%,66.006%,66.006%,1)"/>
  <circle cx="2" cy="4" r="1" fill="srgba(96.3684%,71.2535%,71.2535%,1)"/>
  <circle cx="3" cy="4" r="1" fill="srgba(89.9565%,20.4837%,20.4837%,1)"/>
  <circle cx="4" cy="4" r="1" fill="srgba(94.1238%,53.2158%,53.2158%,1)"/>
  <circle cx="5" cy="4" r="1" fill="srgba(87.9561%,4.26795%,4.26795%,1)"/>
  <circle cx="6" cy="4" r="1" fill="srgba(90.135%,21.4328%,21.4328%,1)"/>
  <circle cx="7" cy="4" r="1" fill="srgba(93.7469%,50.1747%,50.1747%,1)"/>
  <circle cx="8" cy="4" r="1" fill="srgba(87.8676%,3.31884%,3.31884%,1)"/>
  <circle cx="9" cy="4" r="1" fill="srgba(87.4266%,0%,0%,1)"/>
  <circle cx="10" cy="4" r="1" fill="srgba(223,0,0,1)"/>
  <circle cx="11" cy="4" r="1" fill="srgba(223,0,0,1)"/>
  <circle cx="12" cy="4" r="1" fill="srgba(223,0,0,1)"/>
  <circle cx="13" cy="4" r="1" fill="srgba(223,0,0,1)"/>
  <circle cx="14" cy="4" r="1" fill="srgba(223,0,0,1)"/>
  <circle cx="15" cy="4" r="1" fill="srgba(223,0,0,1)"/>
  <circle cx="0" cy="5" r="1" fill="srgba(87.2816%,0%,0%,1)"/>
  <circle cx="1" cy="5" r="1" fill="srgba(92.0012%,36.3012%,36.3012%,1)"/>
  <circle cx="2" cy="5" r="1" fill="srgba(98.378%,87.0802%,87.0802%,1)"/>
  <circle cx="3" cy="5" r="1" fill="srgba(90.4509%,23.9063%,23.9063%,1)"/>
  <circle cx="4" cy="5" r="1" fill="srgba(93.4417%,47.7409%,47.7409%,1)"/>
  <circle cx="5" cy="5" r="1" fill="srgba(90.724%,26.1021%,26.1021%,1)"/>
  <circle cx="6" cy="5" r="1" fill="srgba(93.6446%,49.3568%,49.3568%,1)"/>
  <circle cx="7" cy="5" r="1" fill="srgba(90.6493%,25.6596%,25.6596%,1)"/>
  <circle cx="8" cy="5" r="1" fill="srgba(87.306%,0%,0%,1)"/>
  <circle cx="9" cy="5" r="1" fill="srgba(223,0,0,1)"/>
  <circle cx="10" cy="5" r="1" fill="srgba(223,0,0,1)"/>
  <circle cx="11" cy="5" r="1" fill="srgba(223,0,0,1)"/>
  <circle cx="12" cy="5" r="1" fill="srgba(223,0,0,1)"/>
  <circle cx="13" cy="5" r="1" fill="srgba(223,0,0,1)"/>
  <circle cx="14" cy="5" r="1" fill="srgba(223,0,0,1)"/>
  <circle cx="15" cy="5" r="1" fill="srgba(223,0,0,1)"/>
  <circle cx="0" cy="6" r="1" fill="srgba(87.3198%,0%,0%,1)"/>
  <circle cx="1" cy="6" r="1" fill="srgba(87.6905%,2.82597%,2.82597%,1)"/>
  <circle cx="2" cy="6" r="1" fill="srgba(92.7764%,42.4918%,42.4918%,1)"/>
  <circle cx="3" cy="6" r="1" fill="srgba(94.7936%,58.5061%,58.5061%,1)"/>
  <circle cx="4" cy="6" r="1" fill="srgba(93.2753%,46.4012%,46.4012%,1)"/>
  <circle cx="5" cy="6" r="1" fill="srgba(89.4041%,15.9777%,15.9777%,1)"/>
  <circle cx="6" cy="6" r="1" fill="srgba(91.0872%,29.3141%,29.3141%,1)"/>
  <circle cx="7" cy="6" r="1" fill="srgba(89.0501%,13.254%,13.254%,1)"/>
  <circle cx="8" cy="6" r="1" fill="srgba(87.2633%,0%,0%,1)"/>
  <circle cx="9" cy="6" r="1" fill="srgba(87.3533%,0%,0%,1)"/>
  <circle cx="10" cy="6" r="1" fill="srgba(87.3533%,0%,0%,1)"/>
  <circle cx="11" cy="6" r="1" fill="srgba(87.3533%,0%,0%,1)"/>
  <circle cx="12" cy="6" r="1" fill="srgba(87.3533%,0%,0%,1)"/>
  <circle cx="13" cy="6" r="1" fill="srgba(87.3533%,0%,0%,1)"/>
  <circle cx="14" cy="6" r="1" fill="srgba(87.3533%,0%,0%,1)"/>
  <circle cx="15" cy="6" r="1" fill="srgba(87.3533%,0%,0%,1)"/>
  <circle cx="0" cy="7" r="1" fill="srgba(88.9662%,12.076%,12.076%,1)"/>
  <circle cx="1" cy="7" r="1" fill="srgba(88.9311%,11.7922%,11.7922%,1)"/>
  <circle cx="2" cy="7" r="1" fill="srgba(88.9036%,11.5694%,11.5694%,1)"/>
  <circle cx="3" cy="7" r="1" fill="srgba(89.8497%,19.1135%,19.1135%,1)"/>
  <circle cx="4" cy="7" r="1" fill="srgba(89.7475%,18.3032%,18.3032%,1)"/>
  <circle cx="5" cy="7" r="1" fill="srgba(88.9464%,11.9142%,11.9142%,1)"/>
  <circle cx="6" cy="7" r="1" fill="srgba(88.9189%,11.693%,11.693%,1)"/>
  <circle cx="7" cy="7" r="1" fill="srgba(88.9281%,11.7708%,11.7708%,1)"/>
  <circle cx="8" cy="7" r="1" fill="srgba(88.9662%,12.0729%,12.0729%,1)"/>
  <circle cx="9" cy="7" r="1" fill="srgba(88.9647%,12.0607%,12.0607%,1)"/>
  <circle cx="10" cy="7" r="1" fill="srgba(88.9647%,12.0607%,12.0607%,1)"/>
  <circle cx="11" cy="7" r="1" fill="srgba(88.9647%,12.0607%,12.0607%,1)"/>
  <circle cx="12" cy="7" r="1" fill="srgba(88.9647%,12.0607%,12.0607%,1)"/>
  <circle cx="13" cy="7" r="1" fill="srgba(88.9647%,12.0607%,12.0607%,1)"/>
  <circle cx="14" cy="7" r="1" fill="srgba(88.9647%,12.0607%,12.0607%,1)"/>
  <circle cx="15" cy="7" r="1" fill="srgba(88.9647%,12.0607%,12.0607%,1)"/>
  <circle cx="0" cy="8" r="1" fill="srgba(98.4863%,87.9393%,87.9393%,1)"/>
  <circle cx="1" cy="8" r="1" fill="srgba(98.4863%,87.9408%,87.9408%,1)"/>
  <circle cx="2" cy="8" r="1" fill="srgba(98.4833%,87.9133%,87.9133%,1)"/>
  <circle cx="3" cy="8" r="1" fill="srgba(98.436%,87.5425%,87.5425%,1)"/>
  <circle cx="4" cy="8" r="1" fill="srgba(98.436%,87.5364%,87.5364%,1)"/>
  <circle cx="5" cy="8" r="1" fill="srgba(98.4848%,87.9225%,87.9225%,1)"/>
  <circle cx="6" cy="8" r="1" fill="srgba(98.4848%,87.9301%,87.9301%,1)"/>
  <circle cx="7" cy="8" r="1" fill="srgba(98.4863%,87.9347%,87.9347%,1)"/>
  <circle cx="8" cy="8" r="1" fill="srgba(98.4863%,87.9393%,87.9393%,1)"/>
  <circle cx="9" cy="8" r="1" fill="srgba(98.4863%,87.9393%,87.9393%,1)"/>
  <circle cx="10" cy="8" r="1" fill="srgba(98.4863%,87.9393%,87.9393%,1)"/>
  <circle cx="11" cy="8" r="1" fill="srgba(98.4863%,87.9393%,87.9393%,1)"/>
  <circle cx="12" cy="8" r="1" fill="srgba(98.4863%,87.9393%,87.9393%,1)"/>
  <circle cx="13" cy="8" r="1" fill="srgba(98.4863%,87.9393%,87.9393%,1)"/>
  <circle cx="14" cy="8" r="1" fill="srgba(98.4863%,87.9393%,87.9393%,1)"/>
  <circle cx="15" cy="8" r="1" fill="srgba(98.4863%,87.9393%,87.9393%,1)"/>
  <circle cx="0" cy="9" r="1" fill="white"/>
  <circle cx="1" cy="9" r="1" fill="white"/>
  <circle cx="2" cy="9" r="1" fill="white"/>
  <circle cx="3" cy="9" r="1" fill="white"/>
  <circle cx="4" cy="9" r="1" fill="white"/>
  <circle cx="5" cy="9" r="1" fill="white"/>
  <circle cx="6" cy="9" r="1" fill="white"/>
  <circle cx="7" cy="9" r="1" fill="white"/>
  <circle cx="8" cy="9" r="1" fill="white"/>
  <circle cx="9" cy="9" r="1" fill="white"/>
  <circle cx="10" cy="9" r="1" fill="white"/>
  <circle cx="11" cy="9" r="1" fill="white"/>
  <circle cx="12" cy="9" r="1" fill="white"/>
  <circle cx="13" cy="9" r="1" fill="white"/>
  <circle cx="14" cy="9" r="1" fill="white"/>
  <circle cx="15" cy="9" r="1" fill="white"/>
  <circle cx="0" cy="10" r="1" fill="white"/>
  <circle cx="1" cy="10" r="1" fill="white"/>
  <circle cx="2" cy="10" r="1" fill="white"/>
  <circle cx="3" cy="10" r="1" fill="white"/>
  <circle cx="4" cy="10" r="1" fill="white"/>
  <circle cx="5" cy="10" r="1" fill="white"/>
  <circle cx="6" cy="10" r="1" fill="white"/>
  <circle cx="7" cy="10" r="1" fill="white"/>
  <circle cx="8" cy="10" r="1" fill="white"/>
  <circle cx="9" cy="10" r="1" fill="white"/>
  <circle cx="10" cy="10" r="1" fill="white"/>
  <circle cx="11" cy="10" r="1" fill="white"/>
  <circle cx="12" cy="10" r="1" fill="white"/>
  <circle cx="13" cy="10" r="1" fill="white"/>
  <circle cx="14" cy="10" r="1" fill="white"/>
  <circle cx="15" cy="10" r="1" fill="white"/>
  <circle cx="0" cy="11" r="1" fill="white"/>
  <circle cx="1" cy="11" r="1" fill="white"/>
  <circle cx="2" cy="11" r="1" fill="white"/>
  <circle cx="3" cy="11" r="1" fill="white"/>
  <circle cx="4" cy="11" r="1" fill="white"/>
  <circle cx="5" cy="11" r="1" fill="white"/>
  <circle cx="6" cy="11" r="1" fill="white"/>
  <circle cx="7" cy="11" r="1" fill="white"/>
  <circle cx="8" cy="11" r="1" fill="white"/>
  <circle cx="9" cy="11" r="1" fill="white"/>
  <circle cx="10" cy="11" r="1" fill="white"/>
  <circle cx="11" cy="11" r="1" fill="white"/>
  <circle cx="12" cy="11" r="1" fill="white"/>
  <circle cx="13" cy="11" r="1" fill="white"/>
  <circle cx="14" cy="11" r="1" fill="white"/>
  <circle cx="15" cy="11" r="1" fill="white"/>
  <circle cx="0" cy="12" r="1" fill="white"/>
  <circle cx="1" cy="12" r="1" fill="white"/>
  <circle cx="2" cy="12" r="1" fill="white"/>
  <circle cx="3" cy="12" r="1" fill="white"/>
  <circle cx="4" cy="12" r="1" fill="white"/>
  <circle cx="5" cy="12" r="1" fill="white"/>
  <circle cx="6" cy="12" r="1" fill="white"/>
  <circle cx="7" cy="12" r="1" fill="white"/>
  <circle cx="8" cy="12" r="1" fill="white"/>
  <circle cx="9" cy="12" r="1" fill="white"/>
  <circle cx="10" cy="12" r="1" fill="white"/>
  <circle cx="11" cy="12" r="1" fill="white"/>
  <circle cx="12" cy="12" r="1" fill="white"/>
  <circle cx="13" cy="12" r="1" fill="white"/>
  <circle cx="14" cy="12" r="1" fill="white"/>
  <circle cx="15" cy="12" r="1" fill="white"/>
  <circle cx="0" cy="13" r="1" fill="white"/>
  <circle cx="1" cy="13" r="1" fill="white"/>
  <circle cx="2" cy="13" r="1" fill="white"/>
  <circle cx="3" cy="13" r="1" fill="white"/>
  <circle cx="4" cy="13" r="1" fill="white"/>
  <circle cx="5" cy="13" r="1" fill="white"/>
  <circle cx="6" cy="13" r="1" fill="white"/>
  <circle cx="7" cy="13" r="1" fill="white"/>
  <circle cx="8" cy="13" r="1" fill="white"/>
  <circle cx="9" cy="13" r="1" fill="white"/>
  <circle cx="10" cy="13" r="1" fill="white"/>
  <circle cx="11" cy="13" r="1" fill="white"/>
  <circle cx="12" cy="13" r="1" fill="white"/>
  <circle cx="13" cy="13" r="1" fill="white"/>
  <circle cx="14" cy="13" r="1" fill="white"/>
  <circle cx="15" cy="13" r="1" fill="white"/>
  <circle cx="0" cy="14" r="1" fill="white"/>
  <circle cx="1" cy="14" r="1" fill="white"/>
  <circle cx="2" cy="14" r="1" fill="white"/>
  <circle cx="3" cy="14" r="1" fill="white"/>
  <circle cx="4" cy="14" r="1" fill="white"/>
  <circle cx="5" cy="14" r="1" fill="white"/>
  <circle cx="6" cy="14" r="1" fill="white"/>
  <circle cx="7" cy="14" r="1" fill="white"/>
  <circle cx="8" cy="14" r="1" fill="white"/>
  <circle cx="9" cy="14" r="1" fill="white"/>
  <circle cx="10" cy="14" r="1" fill="white"/>
  <circle cx="11" cy="14" r="1" fill="white"/>
  <circle cx="12" cy="14" r="1" fill="white"/>
  <circle cx="13" cy="14" r="1" fill="white"/>
  <circle cx="14" cy="14" r="1" fill="white"/>
  <circle cx="15" cy="14" r="1" fill="white"/>
  <circle cx="0" cy="15" r="1" fill="white"/>
  <circle cx="1" cy="15" r="1" fill="white"/>
  <circle cx="2" cy="15" r="1" fill="white"/>
  <circle cx="3" cy="15" r="1" fill="white"/>
  <circle cx="4" cy="15" r="1" fill="white"/>
  <circle cx="5" cy="15" r="1" fill="white"/>
  <circle cx="6" cy="15" r="1" fill="white"/>
  <circle cx="7" cy="15" r="1" fill="white"/>
  <circle cx="8" cy="15" r="1" fill="white"/>
  <circle cx="9" cy="15" r="1" fill="white"/>
  <circle cx="10" cy="15" r="1" fill="white"/>
  <circle cx="11" cy="15" r="1" fill="white"/>
  <circle cx="12" cy="15" r="1" fill="white"/>
  <circle cx="13" cy="15" r="1" fill="white"/>
  <circle cx="14" cy="15" r="1" fill="white"/>
  <circle cx="15" cy="15" r="1" fill="white"/>
</svg>
