<?xml version="1.0" standalone="no"?>
<!DOCTYPE svg PUBLIC "-//W3C//DTD SVG 20010904//EN"
  "http://www.w3.org/TR/2001/REC-SVG-20010904/DTD/svg10.dtd">
<svg width="16" height="16">
  <circle cx="0" cy="0" r="1" fill="srgba(85.5512%,43.6271%,49.7169%,1)"/>
  <circle cx="1" cy="0" r="1" fill="srgba(94.5922%,69.7154%,72.0638%,1)"/>
  <circle cx="2" cy="0" r="1" fill="srgba(76.1089%,71.8044%,81.3931%,1)"/>
  <circle cx="3" cy="0" r="1" fill="srgba(31.7723%,32.9061%,60.2045%,1)"/>
  <circle cx="4" cy="0" r="1" fill="srgba(3.94903%,4.20844%,42.3438%,1)"/>
  <circle cx="5" cy="0" r="1" fill="srgba(0%,0%,38.1292%,1)"/>
  <circle cx="6" cy="0" r="1" fill="srgba(36.1852%,33.8705%,59.2447%,1)"/>
  <circle cx="7" cy="0" r="1" fill="srgba(85.4078%,29.5598%,35.819%,1)"/>
  <circle cx="8" cy="0" r="1" fill="srgba(84.715%,29.0608%,35.5962%,1)"/>
  <circle cx="9" cy="0" r="1" fill="srgba(32.8817%,30.6264%,57.3129%,1)"/>
  <circle cx="10" cy="0" r="1" fill="srgba(0%,0%,38.7564%,1)"/>
  <circle cx="11" cy="0" r="1" fill="srgba(26.3752%,14.287%,30.1686%,1)"/>
  <circle cx="12" cy="0" r="1" fill="srgba(35.8297%,24.3076%,46.9215%,1)"/>
  <circle cx="13" cy="0" r="1" fill="srgba(70.5196%,39.382%,51.5618%,1)"/>
  <circle cx="14" cy="0" r="1" fill="srgba(91.0124%,51.3085%,55.1995%,1)"/>
  <circle cx="15" cy="0" r="1" fill="srgba(90.4448%,73.5378%,77.4823%,1)"/>
  <circle cx="0" cy="1" r="1" fill="srgba(27.219%,19.1379%,48.3101%,1)"/>
  <circle cx="1" cy="1" r="1" fill="srgba(59.1745%,32.4712%,49.0028%,1)"/>
  <circle cx="2" cy="1" r="1" fill="srgba(84.9607%,48.368%,54.6593%,1)"/>
  <circle cx="3" cy="1" r="1" fill="srgba(89.044%,67.4556%,71.9997%,1)"/>
  <circle cx="4" cy="1" r="1" fill="srgba(66.3523%,62.2278%,75.7153%,1)"/>
  <circle cx="5" cy="1" r="1" fill="srgba(25.9846%,26.2898%,55.8923%,1)"/>
  <circle cx="6" cy="1" r="1" fill="srgba(39.6597%,37.4411%,61.5915%,1)"/>
  <circle cx="7" cy="1" r="1" fill="srgba(85.2399%,29.3965%,35.7153%,1)"/>
  <circle cx="8" cy="1" r="1" fill="srgba(84.5472%,28.9189%,35.5154%,1)"/>
  <circle cx="9" cy="1" r="1" fill="srgba(36.7987%,34.3267%,59.6841%,1)"/>
  <circle cx="10" cy="1" r="1" fill="srgba(24.9378%,18.5183%,47.953%,1)"/>
  <circle cx="11" cy="1" r="1" fill="srgba(64.9851%,35.6786%,32.5643%,1)"/>
  <circle cx="12" cy="1" r="1" fill="srgba(86.7552%,50.0969%,51.2322%,1)"/>
  <circle cx="13" cy="1" r="1" fill="srgba(89.2195%,68.8045%,74.1192%,1)"/>
  <circle cx="14" cy="1" r="1" fill="srgba(64.416%,61.5015%,76.3668%,1)"/>
  <circle cx="15" cy="1" r="1" fill="srgba(28.4108%,29.192%,57.9492%,1)"/>
  <circle cx="0" cy="2" r="1" fill="srgba(33.8048%,32.0043%,58.4939%,1)"/>
  <circle cx="1" cy="2" r="1" fill="srgba(38.4253%,36.878%,61.5167%,1)"/>
  <circle cx="2" cy="2" r="1" fill="srgba(61.6144%,51.9905%,67.4128%,1)"/>
  <circle cx="3" cy="2" r="1" fill="srgba(88.2109%,58.6694%,63.6042%,1)"/>
  <circle cx="4" cy="2" r="1" fill="srgba(94.6288%,67.2023%,69.5476%,1)"/>
  <circle cx="5" cy="2" r="1" fill="srgba(93.2235%,88.0919%,90.837%,1)"/>
  <circle cx="6" cy="2" r="1" fill="srgba(84.654%,80.2976%,86.4698%,1)"/>
  <circle cx="7" cy="2" r="1" fill="srgba(85.0065%,28.5924%,35.0088%,1)"/>
  <circle cx="8" cy="2" r="1" fill="srgba(84.8768%,28.9525%,35.4192%,1)"/>
  <circle cx="9" cy="2" r="1" fill="srgba(82.4872%,70.5806%,77.7707%,1)"/>
  <circle cx="10" cy="2" r="1" fill="srgba(85.507%,55.7366%,60.6958%,1)"/>
  <circle cx="11" cy="2" r="1" fill="srgba(87.0573%,55.0027%,39.4034%,1)"/>
  <circle cx="12" cy="2" r="1" fill="srgba(89.9687%,70.277%,55.317%,1)"/>
  <circle cx="13" cy="2" r="1" fill="srgba(69.2409%,48.1224%,36.7437%,1)"/>
  <circle cx="14" cy="2" r="1" fill="srgba(37.4365%,23.3433%,33.0373%,1)"/>
  <circle cx="15" cy="2" r="1" fill="srgba(32.4102%,29.1646%,54.6426%,1)"/>
  <circle cx="0" cy="3" r="1" fill="srgba(85.2186%,29.4087%,35.7382%,1)"/>
  <circle cx="1" cy="3" r="1" fill="srgba(84.9607%,29.1493%,35.5825%,1)"/>
  <circle cx="2" cy="3" r="1" fill="srgba(84.065%,28.6915%,35.4788%,1)"/>
  <circle cx="3" cy="3" r="1" fill="srgba(85.1667%,30.016%,36.3622%,1)"/>
  <circle cx="4" cy="3" r="1" fill="srgba(85.2613%,28.3314%,34.6532%,1)"/>
  <circle cx="5" cy="3" r="1" fill="srgba(85.8106%,29.6742%,35.7702%,1)"/>
  <circle cx="6" cy="3" r="1" fill="srgba(86.2104%,29.868%,35.8068%,1)"/>
  <circle cx="7" cy="3" r="1" fill="srgba(81.9715%,12.3674%,20.0946%,1)"/>
  <circle cx="8" cy="3" r="1" fill="srgba(82.002%,12.4666%,20.1816%,1)"/>
  <circle cx="9" cy="3" r="1" fill="srgba(86.1662%,28.8563%,34.9493%,1)"/>
  <circle cx="10" cy="3" r="1" fill="srgba(83.8071%,30.3288%,35.8587%,1)"/>
  <circle cx="11" cy="3" r="1" fill="srgba(81.2268%,37.2442%,19.7971%,1)"/>
  <circle cx="12" cy="3" r="1" fill="srgba(81.7334%,40.4379%,3.21508%,1)"/>
  <circle cx="13" cy="3" r="1" fill="srgba(81.0391%,37.5845%,0%,1)"/>
  <circle cx="14" cy="3" r="1" fill="srgba(81.9562%,40.7355%,3.80255%,1)"/>
  <circle cx="15" cy="3" r="1" fill="srgba(83.9078%,43.5035%,25.7847%,1)"/>
  <circle cx="0" cy="4" r="1" fill="srgba(85.1316%,29.4285%,35.7961%,1)"/>
  <circle cx="1" cy="4" r="1" fill="srgba(84.8615%,29.1585%,35.6344%,1)"/>
  <circle cx="2" cy="4" r="1" fill="srgba(83.8575%,28.1453%,35.024%,1)"/>
  <circle cx="3" cy="4" r="1" fill="srgba(85.0629%,29.5918%,35.9854%,1)"/>
  <circle cx="4" cy="4" r="1" fill="srgba(85.8122%,30.9957%,37.0855%,1)"/>
  <circle cx="5" cy="4" r="1" fill="srgba(85.7343%,29.2622%,35.3948%,1)"/>
  <circle cx="6" cy="4" r="1" fill="srgba(86.0441%,29.0288%,35.0378%,1)"/>
  <circle cx="7" cy="4" r="1" fill="srgba(81.9821%,12.3156%,20.0809%,1)"/>
  <circle cx="8" cy="4" r="1" fill="srgba(81.9959%,11.9631%,20.1785%,1)"/>
  <circle cx="9" cy="4" r="1" fill="srgba(85.9648%,29.4438%,36.1883%,1)"/>
  <circle cx="10" cy="4" r="1" fill="srgba(83.2715%,30.9712%,36.347%,1)"/>
  <circle cx="11" cy="4" r="1" fill="srgba(79.4354%,34.2046%,14.4823%,1)"/>
  <circle cx="12" cy="4" r="1" fill="srgba(80.8209%,38.0697%,0%,1)"/>
  <circle cx="13" cy="4" r="1" fill="srgba(80.9827%,38.3474%,0%,1)"/>
  <circle cx="14" cy="4" r="1" fill="srgba(81.2528%,38.4054%,0%,1)"/>
  <circle cx="15" cy="4" r="1" fill="srgba(80.5112%,36.0052%,1.3611%,1)"/>
  <circle cx="0" cy="5" r="1" fill="srgba(33.1563%,30.8873%,57.6471%,1)"/>
  <circle cx="1" cy="5" r="1" fill="srgba(37.9507%,35.9167%,60.7568%,1)"/>
  <circle cx="2" cy="5" r="1" fill="srgba(63.7751%,62.5086%,77.0138%,1)"/>
  <circle cx="3" cy="5" r="1" fill="srgba(94.3603%,88.3162%,90.6203%,1)"/>
  <circle cx="4" cy="5" r="1" fill="srgba(95.4421%,71.1574%,73.164%,1)"/>
  <circle cx="5" cy="5" r="1" fill="srgba(86.1067%,54.2184%,60.0153%,1)"/>
  <circle cx="6" cy="5" r="1" fill="srgba(82.5116%,70.7454%,77.8683%,1)"/>
  <circle cx="7" cy="5" r="1" fill="srgba(85.1225%,30.7576%,36.4813%,1)"/>
  <circle cx="8" cy="5" r="1" fill="srgba(84.9393%,36.6171%,35.3262%,1)"/>
  <circle cx="9" cy="5" r="1" fill="srgba(91.7464%,87.7714%,82.9496%,1)"/>
  <circle cx="10" cy="5" r="1" fill="srgba(92.1523%,89.8558%,84.3854%,1)"/>
  <circle cx="11" cy="5" r="1" fill="srgba(77.2747%,49.72%,22.7268%,1)"/>
  <circle cx="12" cy="5" r="1" fill="srgba(77.0535%,35.1812%,0%,1)"/>
  <circle cx="13" cy="5" r="1" fill="srgba(77.1344%,35.7626%,0%,1)"/>
  <circle cx="14" cy="5" r="1" fill="srgba(77.8271%,36.1135%,0%,1)"/>
  <circle cx="15" cy="5" r="1" fill="srgba(69.1203%,32.5689%,5.72824%,1)"/>
  <circle cx="0" cy="6" r="1" fill="srgba(30.1946%,30.9148%,58.8327%,1)"/>
  <circle cx="1" cy="6" r="1" fill="srgba(66.1616%,62.4643%,76.025%,1)"/>
  <circle cx="2" cy="6" r="1" fill="srgba(89.7765%,68.1193%,72.3674%,1)"/>
  <circle cx="3" cy="6" r="1" fill="srgba(85.684%,48.9113%,54.9096%,1)"/>
  <circle cx="4" cy="6" r="1" fill="srgba(60.5097%,33.4005%,49.3797%,1)"/>
  <circle cx="5" cy="6" r="1" fill="srgba(23.8972%,16.6461%,47.071%,1)"/>
  <circle cx="6" cy="6" r="1" fill="srgba(39.5712%,36.6033%,61.0178%,1)"/>
  <circle cx="7" cy="6" r="1" fill="srgba(86.2531%,38.8388%,39.9847%,1)"/>
  <circle cx="8" cy="6" r="1" fill="srgba(92.3934%,78.1445%,14.5937%,1)"/>
  <circle cx="9" cy="6" r="1" fill="srgba(95.5291%,96.1242%,12.2972%,1)"/>
  <circle cx="10" cy="6" r="1" fill="srgba(93.4356%,92.3827%,37.7188%,1)"/>
  <circle cx="11" cy="6" r="1" fill="srgba(72.5444%,46.4164%,18.2803%,1)"/>
  <circle cx="12" cy="6" r="1" fill="srgba(80.2686%,47.3732%,0%,1)"/>
  <circle cx="13" cy="6" r="1" fill="srgba(83.8849%,52.4224%,0%,1)"/>
  <circle cx="14" cy="6" r="1" fill="srgba(71.9081%,46.2409%,0.0534066%,1)"/>
  <circle cx="15" cy="6" r="1" fill="srgba(50.6569%,36.0449%,4.17639%,1)"/>
  <circle cx="0" cy="7" r="1" fill="srgba(80.8484%,65.0904%,72.874%,1)"/>
  <circle cx="1" cy="7" r="1" fill="srgba(79.559%,44.1337%,52.5734%,1)"/>
  <circle cx="2" cy="7" r="1" fill="srgba(60.3998%,33.1197%,49.1615%,1)"/>
  <circle cx="3" cy="7" r="1" fill="srgba(25.4017%,18.1628%,48.0644%,1)"/>
  <circle cx="4" cy="7" r="1" fill="srgba(3.47906%,4.11078%,42.4689%,1)"/>
  <circle cx="5" cy="7" r="1" fill="srgba(0%,0%,38.5016%,1)"/>
  <circle cx="6" cy="7" r="1" fill="srgba(32.2621%,29.8268%,55.8907%,1)"/>
  <circle cx="7" cy="7" r="1" fill="srgba(76.939%,36.6247%,39.6262%,1)"/>
  <circle cx="8" cy="7" r="1" fill="srgba(92.6375%,83.1434%,9.42245%,1)"/>
  <circle cx="9" cy="7" r="1" fill="srgba(96.7651%,97.4289%,2.11643%,1)"/>
  <circle cx="10" cy="7" r="1" fill="srgba(88.9769%,87.599%,25.3285%,1)"/>
  <circle cx="11" cy="7" r="1" fill="srgba(34.6975%,27.718%,16.1288%,1)"/>
  <circle cx="12" cy="7" r="1" fill="srgba(45.4307%,42.7512%,0%,1)"/>
  <circle cx="13" cy="7" r="1" fill="srgba(91.8608%,90.0282%,0%,1)"/>
  <circle cx="14" cy="7" r="1" fill="srgba(93.7209%,93.1746%,0%,1)"/>
  <circle cx="15" cy="7" r="1" fill="srgba(87.7974%,88.1895%,0%,1)"/>
  <circle cx="0" cy="8" r="1" fill="srgba(10.4662%,3.41192%,39.205%,1)"/>
  <circle cx="1" cy="8" r="1" fill="srgba(9.90768%,4.28779%,40.2487%,1)"/>
  <circle cx="2" cy="8" r="1" fill="srgba(3.39971%,3.81018%,42.4796%,1)"/>
  <circle cx="3" cy="8" r="1" fill="srgba(0%,0%,39.6643%,1)"/>
  <circle cx="4" cy="8" r="1" fill="srgba(0.0106813%,0.00762951%,39.8489%,1)"/>
  <circle cx="5" cy="8" r="1" fill="srgba(0%,0%,39.8795%,1)"/>
  <circle cx="6" cy="8" r="1" fill="srgba(3.88647%,3.55383%,42.1775%,1)"/>
  <circle cx="7" cy="8" r="1" fill="srgba(18.1048%,12.5154%,41.088%,1)"/>
  <circle cx="8" cy="8" r="1" fill="srgba(72.7642%,71.5206%,29.9702%,1)"/>
  <circle cx="9" cy="8" r="1" fill="srgba(71.7479%,71.9966%,27.4754%,1)"/>
  <circle cx="10" cy="8" r="1" fill="srgba(59.3729%,59.1974%,33.9422%,1)"/>
  <circle cx="11" cy="8" r="1" fill="srgba(25.5879%,24.9546%,20.0549%,1)"/>
  <circle cx="12" cy="8" r="1" fill="srgba(1.17647%,1.26192%,0.0518807%,1)"/>
  <circle cx="13" cy="8" r="1" fill="srgba(36.939%,37.0489%,0%,1)"/>
  <circle cx="14" cy="8" r="1" fill="srgba(87.5959%,87.6402%,0%,1)"/>
  <circle cx="15" cy="8" r="1" fill="srgba(95.7809%,95.7794%,0%,1)"/>
  <circle cx="0" cy="9" r="1" fill="srgba(0%,0%,40.0366%,1)"/>
  <circle cx="1" cy="9" r="1" fill="srgba(0%,0%,39.9191%,1)"/>
  <circle cx="2" cy="9" r="1" fill="srgba(0%,0%,39.8749%,1)"/>
  <circle cx="3" cy="9" r="1" fill="srgba(0%,0%,40.0046%,1)"/>
  <circle cx="4" cy="9" r="1" fill="srgba(0,0,102,1)"/>
  <circle cx="5" cy="9" r="1" fill="srgba(0%,0%,40.0076%,1)"/>
  <circle cx="6" cy="9" r="1" fill="srgba(0%,0%,39.8108%,1)"/>
  <circle cx="7" cy="9" r="1" fill="srgba(8.64424%,8.64576%,40.5325%,1)"/>
  <circle cx="8" cy="9" r="1" fill="srgba(79.2508%,75.7534%,14.7127%,1)"/>
  <circle cx="9" cy="9" r="1" fill="srgba(90.5882%,83.2303%,1.20546%,1)"/>
  <circle cx="10" cy="9" r="1" fill="srgba(67.4006%,61.7227%,3.00145%,1)"/>
  <circle cx="11" cy="9" r="1" fill="srgba(23.6774%,22.826%,15.9915%,1)"/>
  <circle cx="12" cy="9" r="1" fill="srgba(1.55032%,1.59152%,2.02792%,1)"/>
  <circle cx="13" cy="9" r="1" fill="srgba(0.16022%,0.16022%,0%,1)"/>
  <circle cx="14" cy="9" r="1" fill="srgba(28.8014%,28.8014%,0%,1)"/>
  <circle cx="15" cy="9" r="1" fill="srgba(80.0748%,80.0748%,0%,1)"/>
  <circle cx="0" cy="10" r="1" fill="srgba(0.0228885%,0.0106813%,39.9893%,1)"/>
  <circle cx="1" cy="10" r="1" fill="srgba(0.047303%,0.0228885%,39.9771%,1)"/>
  <circle cx="2" cy="10" r="1" fill="srgba(0.0549325%,0.0259403%,39.9725%,1)"/>
  <circle cx="3" cy="10" r="1" fill="srgba(0.0610361%,0.0289921%,39.9695%,1)"/>
  <circle cx="4" cy="10" r="1" fill="srgba(0.0610361%,0.0289921%,39.9695%,1)"/>
  <circle cx="5" cy="10" r="1" fill="srgba(0.0671397%,0.0320439%,39.9664%,1)"/>
  <circle cx="6" cy="10" r="1" fill="srgba(0%,0%,39.9496%,1)"/>
  <circle cx="7" cy="10" r="1" fill="srgba(7.13664%,6.90623%,40.1968%,1)"/>
  <circle cx="8" cy="10" r="1" fill="srgba(73.8842%,75.2651%,12.8756%,1)"/>
  <circle cx="9" cy="10" r="1" fill="srgba(52.491%,73.5607%,0%,1)"/>
  <circle cx="10" cy="10" r="1" fill="srgba(24.6281%,45.1774%,0%,1)"/>
  <circle cx="11" cy="10" r="1" fill="srgba(26.63%,26.0258%,19.7208%,1)"/>
  <circle cx="12" cy="10" r="1" fill="srgba(3.7705%,3.79034%,4.12299%,1)"/>
  <circle cx="13" cy="10" r="1" fill="black"/>
  <circle cx="14" cy="10" r="1" fill="srgba(0.151064%,0.151064%,0%,1)"/>
  <circle cx="15" cy="10" r="1" fill="srgba(15.7809%,15.7809%,0%,1)"/>
  <circle cx="0" cy="11" r="1" fill="srgba(4.78981%,2.26749%,37.6394%,1)"/>
  <circle cx="1" cy="11" r="1" fill="srgba(11.0842%,5.24758%,34.5388%,1)"/>
  <circle cx="2" cy="11" r="1" fill="srgba(15.1171%,7.15648%,32.5505%,1)"/>
  <circle cx="3" cy="11" r="1" fill="srgba(18.1903%,8.61219%,31.0369%,1)"/>
  <circle cx="4" cy="11" r="1" fill="srgba(20.7095%,9.80392%,29.7948%,1)"/>
  <circle cx="5" cy="11" r="1" fill="srgba(22.9541%,10.8675%,28.6885%,1)"/>
  <circle cx="6" cy="11" r="1" fill="srgba(24.95%,11.6716%,27.5563%,1)"/>
  <circle cx="7" cy="11" r="1" fill="srgba(31.4931%,16.817%,27.0649%,1)"/>
  <circle cx="8" cy="11" r="1" fill="srgba(59.6658%,56.7193%,9.21035%,1)"/>
  <circle cx="9" cy="11" r="1" fill="srgba(21.8906%,61.4038%,0%,1)"/>
  <circle cx="10" cy="11" r="1" fill="srgba(9.90158%,29.9092%,0%,1)"/>
  <circle cx="11" cy="11" r="1" fill="srgba(31.9066%,31.6243%,25.1942%,1)"/>
  <circle cx="12" cy="11" r="1" fill="srgba(6.49882%,6.50492%,6.78264%,1)"/>
  <circle cx="13" cy="11" r="1" fill="black"/>
  <circle cx="14" cy="11" r="1" fill="black"/>
  <circle cx="15" cy="11" r="1" fill="black"/>
  <circle cx="0" cy="12" r="1" fill="srgba(0.814832%,0.386053%,39.5987%,1)"/>
  <circle cx="1" cy="12" r="1" fill="srgba(1.96231%,0.929274%,39.0326%,1)"/>
  <circle cx="2" cy="12" r="1" fill="srgba(2.81834%,1.33364%,38.6114%,1)"/>
  <circle cx="3" cy="12" r="1" fill="srgba(3.5462%,1.67849%,38.2528%,1)"/>
  <circle cx="4" cy="12" r="1" fill="srgba(4.22065%,1.99893%,37.9202%,1)"/>
  <circle cx="5" cy="12" r="1" fill="srgba(4.86915%,2.30564%,37.6013%,1)"/>
  <circle cx="6" cy="12" r="1" fill="srgba(5.26284%,2.29496%,37.174%,1)"/>
  <circle cx="7" cy="12" r="1" fill="srgba(12.9274%,9.61013%,37.6074%,1)"/>
  <circle cx="8" cy="12" r="1" fill="srgba(62.8901%,52.9137%,13.6278%,1)"/>
  <circle cx="9" cy="12" r="1" fill="srgba(21.3275%,41.3779%,0%,1)"/>
  <circle cx="10" cy="12" r="1" fill="srgba(2.88701%,5.27199%,0%,1)"/>
  <circle cx="11" cy="12" r="1" fill="srgba(43.8361%,40.5295%,30.0221%,1)"/>
  <circle cx="12" cy="12" r="1" fill="srgba(10.3792%,10.2419%,10.1946%,1)"/>
  <circle cx="13" cy="12" r="1" fill="black"/>
  <circle cx="14" cy="12" r="1" fill="black"/>
  <circle cx="15" cy="12" r="1" fill="black"/>
  <circle cx="0" cy="13" r="1" fill="srgba(0%,0%,40.0137%,1)"/>
  <circle cx="1" cy="13" r="1" fill="srgba(0%,0%,40.0366%,1)"/>
  <circle cx="2" cy="13" r="1" fill="srgba(0%,0%,40.0549%,1)"/>
  <circle cx="3" cy="13" r="1" fill="srgba(0%,0%,40.0748%,1)"/>
  <circle cx="4" cy="13" r="1" fill="srgba(0%,0%,40.0931%,1)"/>
  <circle cx="5" cy="13" r="1" fill="srgba(0%,0%,40.1114%,1)"/>
  <circle cx="6" cy="13" r="1" fill="srgba(0%,0%,40.0748%,1)"/>
  <circle cx="7" cy="13" r="1" fill="srgba(6.97032%,6.804%,41.0452%,1)"/>
  <circle cx="8" cy="13" r="1" fill="srgba(61.2177%,55.9457%,15.3017%,1)"/>
  <circle cx="9" cy="13" r="1" fill="srgba(20.4608%,40.2853%,0%,1)"/>
  <circle cx="10" cy="13" r="1" fill="srgba(2.45823%,2.54063%,0%,1)"/>
  <circle cx="11" cy="13" r="1" fill="srgba(49.6391%,45.7008%,34.1543%,1)"/>
  <circle cx="12" cy="13" r="1" fill="srgba(14.8684%,14.6334%,14.4091%,1)"/>
  <circle cx="13" cy="13" r="1" fill="black"/>
  <circle cx="14" cy="13" r="1" fill="black"/>
  <circle cx="15" cy="13" r="1" fill="black"/>
  <circle cx="0" cy="14" r="1" fill="srgba(0%,0%,39.9969%,1)"/>
  <circle cx="1" cy="14" r="1" fill="srgba(0%,0%,39.9969%,1)"/>
  <circle cx="2" cy="14" r="1" fill="srgba(0%,0%,39.9969%,1)"/>
  <circle cx="3" cy="14" r="1" fill="srgba(0%,0%,39.9969%,1)"/>
  <circle cx="4" cy="14" r="1" fill="srgba(0%,0%,39.9969%,1)"/>
  <circle cx="5" cy="14" r="1" fill="srgba(0%,0%,39.9969%,1)"/>
  <circle cx="6" cy="14" r="1" fill="srgba(0%,0%,39.9374%,1)"/>
  <circle cx="7" cy="14" r="1" fill="srgba(6.51713%,6.31266%,40.9171%,1)"/>
  <circle cx="8" cy="14" r="1" fill="srgba(60.5676%,55.9014%,15.6497%,1)"/>
  <circle cx="9" cy="14" r="1" fill="srgba(27.5486%,39.0707%,0%,1)"/>
  <circle cx="10" cy="14" r="1" fill="srgba(2.92515%,1.31228%,0%,1)"/>
  <circle cx="11" cy="14" r="1" fill="srgba(51.4946%,48.1804%,37.3068%,1)"/>
  <circle cx="12" cy="14" r="1" fill="srgba(19.5346%,19.2935%,19.0234%,1)"/>
  <circle cx="13" cy="14" r="1" fill="black"/>
  <circle cx="14" cy="14" r="1" fill="black"/>
  <circle cx="15" cy="14" r="1" fill="black"/>
  <circle cx="0" cy="15" r="1" fill="srgba(0.09308%,0.09308%,40.0534%,1)"/>
  <circle cx="1" cy="15" r="1" fill="srgba(0.09308%,0.09308%,40.0534%,1)"/>
  <circle cx="2" cy="15" r="1" fill="srgba(0.09308%,0.09308%,40.0534%,1)"/>
  <circle cx="3" cy="15" r="1" fill="srgba(0.09308%,0.09308%,40.0534%,1)"/>
  <circle cx="4" cy="15" r="1" fill="srgba(0.09308%,0.09308%,40.0534%,1)"/>
  <circle cx="5" cy="15" r="1" fill="srgba(0.09308%,0.09308%,40.0534%,1)"/>
  <circle cx="6" cy="15" r="1" fill="srgba(0%,0%,39.9939%,1)"/>
  <circle cx="7" cy="15" r="1" fill="srgba(6.215%,6.01205%,41.0117%,1)"/>
  <circle cx="8" cy="15" r="1" fill="srgba(59.8535%,55.3033%,16.08%,1)"/>
  <circle cx="9" cy="15" r="1" fill="srgba(25.0752%,40.0977%,0%,1)"/>
  <circle cx="10" cy="15" r="1" fill="srgba(2.00504%,1.0071%,0%,1)"/>
  <circle cx="11" cy="15" r="1" fill="srgba(52.9793%,50.0221%,39.8352%,1)"/>
  <circle cx="12" cy="15" r="1" fill="srgba(24.3809%,24.1398%,23.8315%,1)"/>
  <circle cx="13" cy="15" r="1" fill="black"/>
  <circle cx="14" cy="15" r="1" fill="black"/>
  <circle cx="15" cy="15" r="1" fill="black"/>
</svg>
