<?xml version="1.0" standalone="no"?>
<!DOCTYPE svg PUBLIC "-//W3C//DTD SVG 20010904//EN"
  "http://www.w3.org/TR/2001/REC-SVG-20010904/DTD/svg10.dtd">
<svg width="16" height="16">
  <circle cx="0" cy="0" r="1" fill="white"/>
  <circle cx="1" cy="0" r="1" fill="white"/>
  <circle cx="2" cy="0" r="1" fill="white"/>
  <circle cx="3" cy="0" r="1" fill="white"/>
  <circle cx="4" cy="0" r="1" fill="white"/>
  <circle cx="5" cy="0" r="1" fill="white"/>
  <circle cx="6" cy="0" r="1" fill="white"/>
  <circle cx="7" cy="0" r="1" fill="white"/>
  <circle cx="8" cy="0" r="1" fill="white"/>
  <circle cx="9" cy="0" r="1" fill="white"/>
  <circle cx="10" cy="0" r="1" fill="white"/>
  <circle cx="11" cy="0" r="1" fill="white"/>
  <circle cx="12" cy="0" r="1" fill="white"/>
  <circle cx="13" cy="0" r="1" fill="white"/>
  <circle cx="14" cy="0" r="1" fill="white"/>
  <circle cx="15" cy="0" r="1" fill="white"/>
  <circle cx="0" cy="1" r="1" fill="white"/>
  <circle cx="1" cy="1" r="1" fill="white"/>
  <circle cx="2" cy="1" r="1" fill="white"/>
  <circle cx="3" cy="1" r="1" fill="srgba(99.9969%,100%,100%,1)"/>
  <circle cx="4" cy="1" r="1" fill="srgba(99.9878%,99.9985%,100%,1)"/>
  <circle cx="5" cy="1" r="1" fill="white"/>
  <circle cx="6" cy="1" r="1" fill="white"/>
  <circle cx="7" cy="1" r="1" fill="white"/>
  <circle cx="8" cy="1" r="1" fill="white"/>
  <circle cx="9" cy="1" r="1" fill="white"/>
  <circle cx="10" cy="1" r="1" fill="white"/>
  <circle cx="11" cy="1" r="1" fill="white"/>
  <circle cx="12" cy="1" r="1" fill="white"/>
  <circle cx="13" cy="1" r="1" fill="white"/>
  <circle cx="14" cy="1" r="1" fill="white"/>
  <circle cx="15" cy="1" r="1" fill="white"/>
  <circle cx="0" cy="2" r="1" fill="white"/>
  <circle cx="1" cy="2" r="1" fill="white"/>
  <circle cx="2" cy="2" r="1" fill="srgba(88.6961%,88.4825%,92.6345%,1)"/>
  <circle cx="3" cy="2" r="1" fill="srgba(59.6612%,67.1077%,82.8489%,1)"/>
  <circle cx="4" cy="2" r="1" fill="srgba(63.7934%,70.2007%,82.9847%,1)"/>
  <circle cx="5" cy="2" r="1" fill="srgba(93.4615%,94.3038%,95.494%,1)"/>
  <circle cx="6" cy="2" r="1" fill="srgba(77.3587%,80.3021%,89.1402%,1)"/>
  <circle cx="7" cy="2" r="1" fill="srgba(97.2854%,96.2936%,97.1359%,1)"/>
  <circle cx="8" cy="2" r="1" fill="white"/>
  <circle cx="9" cy="2" r="1" fill="white"/>
  <circle cx="10" cy="2" r="1" fill="white"/>
  <circle cx="11" cy="2" r="1" fill="white"/>
  <circle cx="12" cy="2" r="1" fill="white"/>
  <circle cx="13" cy="2" r="1" fill="white"/>
  <circle cx="14" cy="2" r="1" fill="white"/>
  <circle cx="15" cy="2" r="1" fill="white"/>
  <circle cx="0" cy="3" r="1" fill="white"/>
  <circle cx="1" cy="3" r="1" fill="white"/>
  <circle cx="2" cy="3" r="1" fill="srgba(63.4379%,59.5315%,72.4559%,1)"/>
  <circle cx="3" cy="3" r="1" fill="srgba(2.81529%,20.4715%,57.792%,1)"/>
  <circle cx="4" cy="3" r="1" fill="srgba(34.3877%,44.6143%,60.6561%,1)"/>
  <circle cx="5" cy="3" r="1" fill="srgba(80.9995%,82.826%,82.5483%,1)"/>
  <circle cx="6" cy="3" r="1" fill="srgba(29.5338%,36.5347%,63.7156%,1)"/>
  <circle cx="7" cy="3" r="1" fill="srgba(90.9789%,86.0151%,88.542%,1)"/>
  <circle cx="8" cy="3" r="1" fill="white"/>
  <circle cx="9" cy="3" r="1" fill="white"/>
  <circle cx="10" cy="3" r="1" fill="white"/>
  <circle cx="11" cy="3" r="1" fill="white"/>
  <circle cx="12" cy="3" r="1" fill="white"/>
  <circle cx="13" cy="3" r="1" fill="white"/>
  <circle cx="14" cy="3" r="1" fill="white"/>
  <circle cx="15" cy="3" r="1" fill="white"/>
  <circle cx="0" cy="4" r="1" fill="srgba(99.5697%,99.6551%,99.826%,1)"/>
  <circle cx="1" cy="4" r="1" fill="white"/>
  <circle cx="2" cy="4" r="1" fill="srgba(67.9316%,62.5895%,73.637%,1)"/>
  <circle cx="3" cy="4" r="1" fill="srgba(16.1181%,30.1442%,61.323%,1)"/>
  <circle cx="4" cy="4" r="1" fill="srgba(63.4043%,66.7735%,65.716%,1)"/>
  <circle cx="5" cy="4" r="1" fill="srgba(80.6821%,81.384%,75.9823%,1)"/>
  <circle cx="6" cy="4" r="1" fill="srgba(31.2215%,36.2127%,62.2736%,1)"/>
  <circle cx="7" cy="4" r="1" fill="srgba(93.4585%,88.5176%,90.1289%,1)"/>
  <circle cx="8" cy="4" r="1" fill="srgba(99.9207%,100%,100%,1)"/>
  <circle cx="9" cy="4" r="1" fill="srgba(99.5697%,99.6551%,99.826%,1)"/>
  <circle cx="10" cy="4" r="1" fill="srgba(99.5697%,99.6551%,99.826%,1)"/>
  <circle cx="11" cy="4" r="1" fill="srgba(99.5697%,99.6551%,99.826%,1)"/>
  <circle cx="12" cy="4" r="1" fill="srgba(99.5697%,99.6551%,99.826%,1)"/>
  <circle cx="13" cy="4" r="1" fill="srgba(99.5697%,99.6551%,99.826%,1)"/>
  <circle cx="14" cy="4" r="1" fill="srgba(99.5697%,99.6551%,99.826%,1)"/>
  <circle cx="15" cy="4" r="1" fill="srgba(99.5697%,99.6551%,99.826%,1)"/>
  <circle cx="0" cy="5" r="1" fill="srgba(37.5128%,49.9092%,74.9493%,1)"/>
  <circle cx="1" cy="5" r="1" fill="srgba(37.528%,50.2296%,75.3124%,1)"/>
  <circle cx="2" cy="5" r="1" fill="srgba(38.8067%,40.209%,63.1342%,1)"/>
  <circle cx="3" cy="5" r="1" fill="srgba(72.3827%,73.1884%,80.6317%,1)"/>
  <circle cx="4" cy="5" r="1" fill="srgba(99.7986%,95.761%,78.2361%,1)"/>
  <circle cx="5" cy="5" r="1" fill="srgba(95.8938%,93.3577%,79.7055%,1)"/>
  <circle cx="6" cy="5" r="1" fill="srgba(51.7693%,50.6447%,68.0293%,1)"/>
  <circle cx="7" cy="5" r="1" fill="srgba(37.7005%,45.6687%,69.9275%,1)"/>
  <circle cx="8" cy="5" r="1" fill="srgba(37.4289%,50.1122%,75.23%,1)"/>
  <circle cx="9" cy="5" r="1" fill="srgba(37.5128%,49.9092%,74.9493%,1)"/>
  <circle cx="10" cy="5" r="1" fill="srgba(37.5128%,49.9092%,74.9493%,1)"/>
  <circle cx="11" cy="5" r="1" fill="srgba(37.5128%,49.9092%,74.9493%,1)"/>
  <circle cx="12" cy="5" r="1" fill="srgba(37.5128%,49.9092%,74.9493%,1)"/>
  <circle cx="13" cy="5" r="1" fill="srgba(37.5128%,49.9092%,74.9493%,1)"/>
  <circle cx="14" cy="5" r="1" fill="srgba(37.5128%,49.9092%,74.9493%,1)"/>
  <circle cx="15" cy="5" r="1" fill="srgba(37.5128%,49.9092%,74.9493%,1)"/>
  <circle cx="0" cy="6" r="1" fill="srgba(1.45266%,21.0025%,60.5005%,1)"/>
  <circle cx="1" cy="6" r="1" fill="srgba(0.950637%,20.9262%,60.679%,1)"/>
  <circle cx="2" cy="6" r="1" fill="srgba(10.2235%,22.1469%,57.2122%,1)"/>
  <circle cx="3" cy="6" r="1" fill="srgba(55.4742%,55.6268%,71.5358%,1)"/>
  <circle cx="4" cy="6" r="1" fill="srgba(92.488%,93.3104%,93.8186%,1)"/>
  <circle cx="5" cy="6" r="1" fill="srgba(86.952%,87.9301%,90.9651%,1)"/>
  <circle cx="6" cy="6" r="1" fill="srgba(34.5525%,37.821%,62.4979%,1)"/>
  <circle cx="7" cy="6" r="1" fill="srgba(1.88144%,20.2426%,59.3927%,1)"/>
  <circle cx="8" cy="6" r="1" fill="srgba(1.3901%,20.9964%,60.528%,1)"/>
  <circle cx="9" cy="6" r="1" fill="srgba(1.45266%,21.0025%,60.5005%,1)"/>
  <circle cx="10" cy="6" r="1" fill="srgba(1.45266%,21.0025%,60.5005%,1)"/>
  <circle cx="11" cy="6" r="1" fill="srgba(1.45266%,21.0025%,60.5005%,1)"/>
  <circle cx="12" cy="6" r="1" fill="srgba(1.45266%,21.0025%,60.5005%,1)"/>
  <circle cx="13" cy="6" r="1" fill="srgba(1.45266%,21.0025%,60.5005%,1)"/>
  <circle cx="14" cy="6" r="1" fill="srgba(1.45266%,21.0025%,60.5005%,1)"/>
  <circle cx="15" cy="6" r="1" fill="srgba(1.45266%,21.0025%,60.5005%,1)"/>
  <circle cx="0" cy="7" r="1" fill="srgba(8,57,156,1)"/>
  <circle cx="1" cy="7" r="1" fill="srgba(3.12963%,22.3575%,61.1856%,1)"/>
  <circle cx="2" cy="7" r="1" fill="srgba(3.19677%,22.1836%,60.9461%,1)"/>
  <circle cx="3" cy="7" r="1" fill="srgba(6.78111%,22.7924%,59.7894%,1)"/>
  <circle cx="4" cy="7" r="1" fill="srgba(36.5133%,40.9567%,65.2354%,1)"/>
  <circle cx="5" cy="7" r="1" fill="srgba(22.5834%,34.6517%,65.2674%,1)"/>
  <circle cx="6" cy="7" r="1" fill="srgba(3.54009%,22.0844%,60.6485%,1)"/>
  <circle cx="7" cy="7" r="1" fill="srgba(3.03807%,22.3423%,61.2161%,1)"/>
  <circle cx="8" cy="7" r="1" fill="srgba(3.14031%,22.3529%,61.1749%,1)"/>
  <circle cx="9" cy="7" r="1" fill="srgba(8,57,156,1)"/>
  <circle cx="10" cy="7" r="1" fill="srgba(8,57,156,1)"/>
  <circle cx="11" cy="7" r="1" fill="srgba(8,57,156,1)"/>
  <circle cx="12" cy="7" r="1" fill="srgba(8,57,156,1)"/>
  <circle cx="13" cy="7" r="1" fill="srgba(8,57,156,1)"/>
  <circle cx="14" cy="7" r="1" fill="srgba(8,57,156,1)"/>
  <circle cx="15" cy="7" r="1" fill="srgba(8,57,156,1)"/>
  <circle cx="0" cy="8" r="1" fill="srgba(8,57,156,1)"/>
  <circle cx="1" cy="8" r="1" fill="srgba(3.13878%,22.3529%,61.1765%,1)"/>
  <circle cx="2" cy="8" r="1" fill="srgba(3.11894%,22.359%,61.1933%,1)"/>
  <circle cx="3" cy="8" r="1" fill="srgba(2.916%,22.2858%,61.2161%,1)"/>
  <circle cx="4" cy="8" r="1" fill="srgba(2.90227%,21.2512%,60.0214%,1)"/>
  <circle cx="5" cy="8" r="1" fill="srgba(2.69322%,21.6052%,60.5432%,1)"/>
  <circle cx="6" cy="8" r="1" fill="srgba(3.04417%,22.3468%,61.2192%,1)"/>
  <circle cx="7" cy="8" r="1" fill="srgba(3.14031%,22.3545%,61.1765%,1)"/>
  <circle cx="8" cy="8" r="1" fill="srgba(8,57,156,1)"/>
  <circle cx="9" cy="8" r="1" fill="srgba(8,57,156,1)"/>
  <circle cx="10" cy="8" r="1" fill="srgba(8,57,156,1)"/>
  <circle cx="11" cy="8" r="1" fill="srgba(8,57,156,1)"/>
  <circle cx="12" cy="8" r="1" fill="srgba(8,57,156,1)"/>
  <circle cx="13" cy="8" r="1" fill="srgba(8,57,156,1)"/>
  <circle cx="14" cy="8" r="1" fill="srgba(8,57,156,1)"/>
  <circle cx="15" cy="8" r="1" fill="srgba(8,57,156,1)"/>
  <circle cx="0" cy="9" r="1" fill="srgba(1.67697%,22.4582%,62.0722%,1)"/>
  <circle cx="1" cy="9" r="1" fill="srgba(1.67697%,22.4582%,62.0722%,1)"/>
  <circle cx="2" cy="9" r="1" fill="srgba(1.65408%,22.4598%,62.0859%,1)"/>
  <circle cx="3" cy="9" r="1" fill="srgba(2.3682%,22.4079%,61.648%,1)"/>
  <circle cx="4" cy="9" r="1" fill="srgba(2.7451%,22.3804%,61.416%,1)"/>
  <circle cx="5" cy="9" r="1" fill="srgba(2.99535%,22.3636%,61.2634%,1)"/>
  <circle cx="6" cy="9" r="1" fill="srgba(2.50248%,22.3987%,61.5656%,1)"/>
  <circle cx="7" cy="9" r="1" fill="srgba(1.66476%,22.4598%,62.0798%,1)"/>
  <circle cx="8" cy="9" r="1" fill="srgba(1.67697%,22.4582%,62.0722%,1)"/>
  <circle cx="9" cy="9" r="1" fill="srgba(1.67697%,22.4582%,62.0722%,1)"/>
  <circle cx="10" cy="9" r="1" fill="srgba(1.67697%,22.4582%,62.0722%,1)"/>
  <circle cx="11" cy="9" r="1" fill="srgba(1.67697%,22.4582%,62.0722%,1)"/>
  <circle cx="12" cy="9" r="1" fill="srgba(1.67697%,22.4582%,62.0722%,1)"/>
  <circle cx="13" cy="9" r="1" fill="srgba(1.67697%,22.4582%,62.0722%,1)"/>
  <circle cx="14" cy="9" r="1" fill="srgba(1.67697%,22.4582%,62.0722%,1)"/>
  <circle cx="15" cy="9" r="1" fill="srgba(1.67697%,22.4582%,62.0722%,1)"/>
  <circle cx="0" cy="10" r="1" fill="srgba(32.9732%,20.5951%,43.3356%,1)"/>
  <circle cx="1" cy="10" r="1" fill="srgba(32.9732%,20.5951%,43.3356%,1)"/>
  <circle cx="2" cy="10" r="1" fill="srgba(33.4401%,20.5676%,43.0564%,1)"/>
  <circle cx="3" cy="10" r="1" fill="srgba(18.8479%,21.4267%,51.78%,1)"/>
  <circle cx="4" cy="10" r="1" fill="srgba(10.6004%,21.915%,56.7163%,1)"/>
  <circle cx="5" cy="10" r="1" fill="srgba(5.7557%,22.1988%,59.6124%,1)"/>
  <circle cx="6" cy="10" r="1" fill="srgba(16.2615%,21.5869%,53.3364%,1)"/>
  <circle cx="7" cy="10" r="1" fill="srgba(33.2555%,20.5783%,43.1678%,1)"/>
  <circle cx="8" cy="10" r="1" fill="srgba(32.9732%,20.5951%,43.3356%,1)"/>
  <circle cx="9" cy="10" r="1" fill="srgba(32.9732%,20.5951%,43.3356%,1)"/>
  <circle cx="10" cy="10" r="1" fill="srgba(32.9732%,20.5951%,43.3356%,1)"/>
  <circle cx="11" cy="10" r="1" fill="srgba(32.9732%,20.5951%,43.3356%,1)"/>
  <circle cx="12" cy="10" r="1" fill="srgba(32.9732%,20.5951%,43.3356%,1)"/>
  <circle cx="13" cy="10" r="1" fill="srgba(32.9732%,20.5951%,43.3356%,1)"/>
  <circle cx="14" cy="10" r="1" fill="srgba(32.9732%,20.5951%,43.3356%,1)"/>
  <circle cx="15" cy="10" r="1" fill="srgba(32.9732%,20.5951%,43.3356%,1)"/>
  <circle cx="0" cy="11" r="1" fill="srgba(86.6987%,16.2066%,9.75509%,1)"/>
  <circle cx="1" cy="11" r="1" fill="srgba(86.6987%,16.2066%,9.75509%,1)"/>
  <circle cx="2" cy="11" r="1" fill="srgba(88.0079%,16.1105%,8.94942%,1)"/>
  <circle cx="3" cy="11" r="1" fill="srgba(47.155%,19.115%,34.0856%,1)"/>
  <circle cx="4" cy="11" r="1" fill="srgba(23.2273%,20.8759%,48.8151%,1)"/>
  <circle cx="5" cy="11" r="1" fill="srgba(10.0694%,21.8433%,56.9116%,1)"/>
  <circle cx="6" cy="11" r="1" fill="srgba(36.9009%,19.8764%,40.4044%,1)"/>
  <circle cx="7" cy="11" r="1" fill="srgba(87.1031%,16.1776%,9.50637%,1)"/>
  <circle cx="8" cy="11" r="1" fill="srgba(86.7094%,16.2051%,9.74899%,1)"/>
  <circle cx="9" cy="11" r="1" fill="srgba(86.6987%,16.2066%,9.75509%,1)"/>
  <circle cx="10" cy="11" r="1" fill="srgba(86.6987%,16.2066%,9.75509%,1)"/>
  <circle cx="11" cy="11" r="1" fill="srgba(86.6987%,16.2066%,9.75509%,1)"/>
  <circle cx="12" cy="11" r="1" fill="srgba(86.6987%,16.2066%,9.75509%,1)"/>
  <circle cx="13" cy="11" r="1" fill="srgba(86.6987%,16.2066%,9.75509%,1)"/>
  <circle cx="14" cy="11" r="1" fill="srgba(86.6987%,16.2066%,9.75509%,1)"/>
  <circle cx="15" cy="11" r="1" fill="srgba(86.6987%,16.2066%,9.75509%,1)"/>
  <circle cx="0" cy="12" r="1" fill="srgba(87.0954%,16.0708%,9.3843%,1)"/>
  <circle cx="1" cy="12" r="1" fill="srgba(87.0954%,16.0708%,9.3843%,1)"/>
  <circle cx="2" cy="12" r="1" fill="srgba(88.4108%,15.9716%,8.57252%,1)"/>
  <circle cx="3" cy="12" r="1" fill="srgba(47.3899%,19.0417%,33.875%,1)"/>
  <circle cx="4" cy="12" r="1" fill="srgba(21.9379%,20.9461%,49.5781%,1)"/>
  <circle cx="5" cy="12" r="1" fill="srgba(9.50332%,21.8769%,57.2503%,1)"/>
  <circle cx="6" cy="12" r="1" fill="srgba(32.0531%,20.1923%,43.3356%,1)"/>
  <circle cx="7" cy="12" r="1" fill="srgba(86.6148%,16.1074%,9.68032%,1)"/>
  <circle cx="8" cy="12" r="1" fill="srgba(87.1382%,16.0678%,9.35836%,1)"/>
  <circle cx="9" cy="12" r="1" fill="srgba(87.0954%,16.0708%,9.3843%,1)"/>
  <circle cx="10" cy="12" r="1" fill="srgba(87.0954%,16.0708%,9.3843%,1)"/>
  <circle cx="11" cy="12" r="1" fill="srgba(87.0954%,16.0708%,9.3843%,1)"/>
  <circle cx="12" cy="12" r="1" fill="srgba(87.0954%,16.0708%,9.3843%,1)"/>
  <circle cx="13" cy="12" r="1" fill="srgba(87.0954%,16.0708%,9.3843%,1)"/>
  <circle cx="14" cy="12" r="1" fill="srgba(87.0954%,16.0708%,9.3843%,1)"/>
  <circle cx="15" cy="12" r="1" fill="srgba(87.0954%,16.0708%,9.3843%,1)"/>
  <circle cx="0" cy="13" r="1" fill="srgba(222,41,24,1)"/>
  <circle cx="1" cy="13" r="1" fill="srgba(222,41,24,1)"/>
  <circle cx="2" cy="13" r="1" fill="srgba(88.3742%,15.9808%,8.59998%,1)"/>
  <circle cx="3" cy="13" r="1" fill="srgba(47.4037%,19.0433%,33.8689%,1)"/>
  <circle cx="4" cy="13" r="1" fill="srgba(20.5432%,21.0513%,50.4402%,1)"/>
  <circle cx="5" cy="13" r="1" fill="srgba(9.0135%,21.9135%,57.5525%,1)"/>
  <circle cx="6" cy="13" r="1" fill="srgba(27.2969%,20.5463%,46.273%,1)"/>
  <circle cx="7" cy="13" r="1" fill="srgba(85.3178%,16.2081%,10.486%,1)"/>
  <circle cx="8" cy="13" r="1" fill="srgba(87.1656%,16.0708%,9.34615%,1)"/>
  <circle cx="9" cy="13" r="1" fill="srgba(222,41,24,1)"/>
  <circle cx="10" cy="13" r="1" fill="srgba(222,41,24,1)"/>
  <circle cx="11" cy="13" r="1" fill="srgba(222,41,24,1)"/>
  <circle cx="12" cy="13" r="1" fill="srgba(222,41,24,1)"/>
  <circle cx="13" cy="13" r="1" fill="srgba(222,41,24,1)"/>
  <circle cx="14" cy="13" r="1" fill="srgba(222,41,24,1)"/>
  <circle cx="15" cy="13" r="1" fill="srgba(222,41,24,1)"/>
  <circle cx="0" cy="14" r="1" fill="srgba(222,41,24,1)"/>
  <circle cx="1" cy="14" r="1" fill="srgba(222,41,24,1)"/>
  <circle cx="2" cy="14" r="1" fill="srgba(88.3742%,15.9808%,8.59998%,1)"/>
  <circle cx="3" cy="14" r="1" fill="srgba(47.4372%,19.0402%,33.8476%,1)"/>
  <circle cx="4" cy="14" r="1" fill="srgba(19.1226%,21.1582%,51.3161%,1)"/>
  <circle cx="5" cy="14" r="1" fill="srgba(8.59693%,21.944%,57.8088%,1)"/>
  <circle cx="6" cy="14" r="1" fill="srgba(22.8183%,20.8789%,49.0364%,1)"/>
  <circle cx="7" cy="14" r="1" fill="srgba(83.6103%,16.3348%,11.5389%,1)"/>
  <circle cx="8" cy="14" r="1" fill="srgba(87.2709%,16.0632%,9.28206%,1)"/>
  <circle cx="9" cy="14" r="1" fill="srgba(222,41,24,1)"/>
  <circle cx="10" cy="14" r="1" fill="srgba(222,41,24,1)"/>
  <circle cx="11" cy="14" r="1" fill="srgba(222,41,24,1)"/>
  <circle cx="12" cy="14" r="1" fill="srgba(222,41,24,1)"/>
  <circle cx="13" cy="14" r="1" fill="srgba(222,41,24,1)"/>
  <circle cx="14" cy="14" r="1" fill="srgba(222,41,24,1)"/>
  <circle cx="15" cy="14" r="1" fill="srgba(222,41,24,1)"/>
  <circle cx="0" cy="15" r="1" fill="srgba(222,41,24,1)"/>
  <circle cx="1" cy="15" r="1" fill="srgba(222,41,24,1)"/>
  <circle cx="2" cy="15" r="1" fill="srgba(88.3742%,15.9808%,8.59998%,1)"/>
  <circle cx="3" cy="15" r="1" fill="srgba(47.4708%,19.0372%,33.8277%,1)"/>
  <circle cx="4" cy="15" r="1" fill="srgba(17.8561%,21.2528%,52.0974%,1)"/>
  <circle cx="5" cy="15" r="1" fill="srgba(8.2536%,21.9699%,58.0209%,1)"/>
  <circle cx="6" cy="15" r="1" fill="srgba(19.1104%,21.1582%,51.3237%,1)"/>
  <circle cx="7" cy="15" r="1" fill="srgba(81.6983%,16.4782%,12.7184%,1)"/>
  <circle cx="8" cy="15" r="1" fill="srgba(87.396%,16.0525%,9.20424%,1)"/>
  <circle cx="9" cy="15" r="1" fill="srgba(222,41,24,1)"/>
  <circle cx="10" cy="15" r="1" fill="srgba(222,41,24,1)"/>
  <circle cx="11" cy="15" r="1" fill="srgba(222,41,24,1)"/>
  <circle cx="12" cy="15" r="1" fill="srgba(222,41,24,1)"/>
  <circle cx="13" cy="15" r="1" fill="srgba(222,41,24,1)"/>
  <circle cx="14" cy="15" r="1" fill="srgba(222,41,24,1)"/>
  <circle cx="15" cy="15" r="1" fill="srgba(222,41,24,1)"/>
</svg>
