<?xml version="1.0" standalone="no"?>
<!DOCTYPE svg PUBLIC "-//W3C//DTD SVG 20010904//EN"
  "http://www.w3.org/TR/2001/REC-SVG-20010904/DTD/svg10.dtd">
<svg width="16" height="16">
  <circle cx="0" cy="0" r="1" fill="srgba(215,40,40,1)"/>
  <circle cx="1" cy="0" r="1" fill="srgba(215,40,40,1)"/>
  <circle cx="2" cy="0" r="1" fill="srgba(84.0604%,14.3221%,14.3221%,1)"/>
  <circle cx="3" cy="0" r="1" fill="srgba(92.8954%,54.9615%,54.4076%,1)"/>
  <circle cx="4" cy="0" r="1" fill="srgba(51.9539%,63.2319%,81.1841%,1)"/>
  <circle cx="5" cy="0" r="1" fill="srgba(0%,19.7742%,58.0758%,1)"/>
  <circle cx="6" cy="0" r="1" fill="srgba(47.1351%,59.2813%,79.0188%,1)"/>
  <circle cx="7" cy="0" r="1" fill="srgba(92.2133%,52.7428%,52.3064%,1)"/>
  <circle cx="8" cy="0" r="1" fill="srgba(84.0497%,14.2657%,14.2657%,1)"/>
  <circle cx="9" cy="0" r="1" fill="srgba(215,40,40,1)"/>
  <circle cx="10" cy="0" r="1" fill="srgba(215,40,40,1)"/>
  <circle cx="11" cy="0" r="1" fill="srgba(215,40,40,1)"/>
  <circle cx="12" cy="0" r="1" fill="srgba(215,40,40,1)"/>
  <circle cx="13" cy="0" r="1" fill="srgba(215,40,40,1)"/>
  <circle cx="14" cy="0" r="1" fill="srgba(215,40,40,1)"/>
  <circle cx="15" cy="0" r="1" fill="srgba(215,40,40,1)"/>
  <circle cx="0" cy="1" r="1" fill="srgba(215,40,40,1)"/>
  <circle cx="1" cy="1" r="1" fill="srgba(215,40,40,1)"/>
  <circle cx="2" cy="1" r="1" fill="srgba(84.0604%,14.3221%,14.3221%,1)"/>
  <circle cx="3" cy="1" r="1" fill="srgba(92.8954%,54.9615%,54.4076%,1)"/>
  <circle cx="4" cy="1" r="1" fill="srgba(51.9539%,63.2319%,81.1841%,1)"/>
  <circle cx="5" cy="1" r="1" fill="srgba(0%,19.7742%,58.0758%,1)"/>
  <circle cx="6" cy="1" r="1" fill="srgba(47.1351%,59.2813%,79.0188%,1)"/>
  <circle cx="7" cy="1" r="1" fill="srgba(92.2133%,52.7428%,52.3064%,1)"/>
  <circle cx="8" cy="1" r="1" fill="srgba(84.0497%,14.2657%,14.2657%,1)"/>
  <circle cx="9" cy="1" r="1" fill="srgba(215,40,40,1)"/>
  <circle cx="10" cy="1" r="1" fill="srgba(215,40,40,1)"/>
  <circle cx="11" cy="1" r="1" fill="srgba(215,40,40,1)"/>
  <circle cx="12" cy="1" r="1" fill="srgba(215,40,40,1)"/>
  <circle cx="13" cy="1" r="1" fill="srgba(215,40,40,1)"/>
  <circle cx="14" cy="1" r="1" fill="srgba(215,40,40,1)"/>
  <circle cx="15" cy="1" r="1" fill="srgba(215,40,40,1)"/>
  <circle cx="0" cy="2" r="1" fill="srgba(215,40,40,1)"/>
  <circle cx="1" cy="2" r="1" fill="srgba(215,40,40,1)"/>
  <circle cx="2" cy="2" r="1" fill="srgba(84.0604%,14.3221%,14.3221%,1)"/>
  <circle cx="3" cy="2" r="1" fill="srgba(92.8954%,54.9615%,54.4076%,1)"/>
  <circle cx="4" cy="2" r="1" fill="srgba(51.9539%,63.2319%,81.1841%,1)"/>
  <circle cx="5" cy="2" r="1" fill="srgba(0%,19.7742%,58.0758%,1)"/>
  <circle cx="6" cy="2" r="1" fill="srgba(47.1351%,59.2813%,79.0188%,1)"/>
  <circle cx="7" cy="2" r="1" fill="srgba(92.2133%,52.7428%,52.3064%,1)"/>
  <circle cx="8" cy="2" r="1" fill="srgba(84.0497%,14.2657%,14.2657%,1)"/>
  <circle cx="9" cy="2" r="1" fill="srgba(215,40,40,1)"/>
  <circle cx="10" cy="2" r="1" fill="srgba(215,40,40,1)"/>
  <circle cx="11" cy="2" r="1" fill="srgba(215,40,40,1)"/>
  <circle cx="12" cy="2" r="1" fill="srgba(215,40,40,1)"/>
  <circle cx="13" cy="2" r="1" fill="srgba(215,40,40,1)"/>
  <circle cx="14" cy="2" r="1" fill="srgba(215,40,40,1)"/>
  <circle cx="15" cy="2" r="1" fill="srgba(215,40,40,1)"/>
  <circle cx="0" cy="3" r="1" fill="srgba(215,40,40,1)"/>
  <circle cx="1" cy="3" r="1" fill="srgba(215,40,40,1)"/>
  <circle cx="2" cy="3" r="1" fill="srgba(84.0604%,14.3221%,14.3221%,1)"/>
  <circle cx="3" cy="3" r="1" fill="srgba(92.8954%,54.9615%,54.4076%,1)"/>
  <circle cx="4" cy="3" r="1" fill="srgba(51.9539%,63.2319%,81.1841%,1)"/>
  <circle cx="5" cy="3" r="1" fill="srgba(0%,19.7742%,58.0758%,1)"/>
  <circle cx="6" cy="3" r="1" fill="srgba(47.1351%,59.2813%,79.0188%,1)"/>
  <circle cx="7" cy="3" r="1" fill="srgba(92.2133%,52.7428%,52.3064%,1)"/>
  <circle cx="8" cy="3" r="1" fill="srgba(84.0497%,14.2657%,14.2657%,1)"/>
  <circle cx="9" cy="3" r="1" fill="srgba(215,40,40,1)"/>
  <circle cx="10" cy="3" r="1" fill="srgba(215,40,40,1)"/>
  <circle cx="11" cy="3" r="1" fill="srgba(215,40,40,1)"/>
  <circle cx="12" cy="3" r="1" fill="srgba(215,40,40,1)"/>
  <circle cx="13" cy="3" r="1" fill="srgba(215,40,40,1)"/>
  <circle cx="14" cy="3" r="1" fill="srgba(215,40,40,1)"/>
  <circle cx="15" cy="3" r="1" fill="srgba(215,40,40,1)"/>
  <circle cx="0" cy="4" r="1" fill="srgba(84.2786%,15.5001%,15.5001%,1)"/>
  <circle cx="1" cy="4" r="1" fill="srgba(84.2786%,15.5001%,15.5001%,1)"/>
  <circle cx="2" cy="4" r="1" fill="srgba(84.0238%,14.1329%,14.1329%,1)"/>
  <circle cx="3" cy="4" r="1" fill="srgba(92.8756%,54.8592%,54.3053%,1)"/>
  <circle cx="4" cy="4" r="1" fill="srgba(51.9539%,63.2334%,81.1856%,1)"/>
  <circle cx="5" cy="4" r="1" fill="srgba(0%,19.7742%,58.0758%,1)"/>
  <circle cx="6" cy="4" r="1" fill="srgba(47.1351%,59.2828%,79.0204%,1)"/>
  <circle cx="7" cy="4" r="1" fill="srgba(92.1935%,52.636%,52.1996%,1)"/>
  <circle cx="8" cy="4" r="1" fill="srgba(84.0146%,14.0764%,14.0764%,1)"/>
  <circle cx="9" cy="4" r="1" fill="srgba(84.2786%,15.5001%,15.5001%,1)"/>
  <circle cx="10" cy="4" r="1" fill="srgba(84.2786%,15.5001%,15.5001%,1)"/>
  <circle cx="11" cy="4" r="1" fill="srgba(84.2786%,15.5001%,15.5001%,1)"/>
  <circle cx="12" cy="4" r="1" fill="srgba(84.2786%,15.5001%,15.5001%,1)"/>
  <circle cx="13" cy="4" r="1" fill="srgba(84.2786%,15.5001%,15.5001%,1)"/>
  <circle cx="14" cy="4" r="1" fill="srgba(84.2786%,15.5001%,15.5001%,1)"/>
  <circle cx="15" cy="4" r="1" fill="srgba(84.2786%,15.5001%,15.5001%,1)"/>
  <circle cx="0" cy="5" r="1" fill="srgba(85.5741%,19.2767%,19.0204%,1)"/>
  <circle cx="1" cy="5" r="1" fill="srgba(85.5741%,19.2767%,19.0204%,1)"/>
  <circle cx="2" cy="5" r="1" fill="srgba(85.3407%,17.9706%,17.7096%,1)"/>
  <circle cx="3" cy="5" r="1" fill="srgba(93.5912%,56.9329%,56.2356%,1)"/>
  <circle cx="4" cy="5" r="1" fill="srgba(51.9539%,63.2059%,81.1551%,1)"/>
  <circle cx="5" cy="5" r="1" fill="srgba(0%,19.7742%,58.0758%,1)"/>
  <circle cx="6" cy="5" r="1" fill="srgba(47.1443%,59.2691%,79.0021%,1)"/>
  <circle cx="7" cy="5" r="1" fill="srgba(92.9427%,54.8013%,54.2153%,1)"/>
  <circle cx="8" cy="5" r="1" fill="srgba(85.3315%,17.9171%,17.6562%,1)"/>
  <circle cx="9" cy="5" r="1" fill="srgba(85.5741%,19.2767%,19.0204%,1)"/>
  <circle cx="10" cy="5" r="1" fill="srgba(85.5741%,19.2767%,19.0204%,1)"/>
  <circle cx="11" cy="5" r="1" fill="srgba(85.5741%,19.2767%,19.0204%,1)"/>
  <circle cx="12" cy="5" r="1" fill="srgba(85.5741%,19.2767%,19.0204%,1)"/>
  <circle cx="13" cy="5" r="1" fill="srgba(85.5741%,19.2767%,19.0204%,1)"/>
  <circle cx="14" cy="5" r="1" fill="srgba(85.5741%,19.2767%,19.0204%,1)"/>
  <circle cx="15" cy="5" r="1" fill="srgba(85.5741%,19.2767%,19.0204%,1)"/>
  <circle cx="0" cy="6" r="1" fill="srgba(85.3788%,70.5852%,74.5708%,1)"/>
  <circle cx="1" cy="6" r="1" fill="srgba(85.3788%,70.5852%,74.5708%,1)"/>
  <circle cx="2" cy="6" r="1" fill="srgba(85.3147%,70.2449%,74.2306%,1)"/>
  <circle cx="3" cy="6" r="1" fill="srgba(88.4779%,81.1429%,84.6342%,1)"/>
  <circle cx="4" cy="6" r="1" fill="srgba(46.2898%,58.2681%,78.2864%,1)"/>
  <circle cx="5" cy="6" r="1" fill="srgba(0%,20.0046%,58.1933%,1)"/>
  <circle cx="6" cy="6" r="1" fill="srgba(42.0127%,54.8806%,76.4935%,1)"/>
  <circle cx="7" cy="6" r="1" fill="srgba(88.1056%,80.4303%,84.0269%,1)"/>
  <circle cx="8" cy="6" r="1" fill="srgba(85.3132%,70.2312%,74.2153%,1)"/>
  <circle cx="9" cy="6" r="1" fill="srgba(85.3788%,70.5852%,74.5708%,1)"/>
  <circle cx="10" cy="6" r="1" fill="srgba(85.3788%,70.5852%,74.5708%,1)"/>
  <circle cx="11" cy="6" r="1" fill="srgba(85.3788%,70.5852%,74.5708%,1)"/>
  <circle cx="12" cy="6" r="1" fill="srgba(85.3788%,70.5852%,74.5708%,1)"/>
  <circle cx="13" cy="6" r="1" fill="srgba(85.3788%,70.5852%,74.5708%,1)"/>
  <circle cx="14" cy="6" r="1" fill="srgba(85.3788%,70.5852%,74.5708%,1)"/>
  <circle cx="15" cy="6" r="1" fill="srgba(85.3788%,70.5852%,74.5708%,1)"/>
  <circle cx="0" cy="7" r="1" fill="srgba(12.9915%,33.1655%,65.6641%,1)"/>
  <circle cx="1" cy="7" r="1" fill="srgba(12.9915%,33.1655%,65.6641%,1)"/>
  <circle cx="2" cy="7" r="1" fill="srgba(12.9946%,33.1853%,65.684%,1)"/>
  <circle cx="3" cy="7" r="1" fill="srgba(13.077%,32.7489%,65.1774%,1)"/>
  <circle cx="4" cy="7" r="1" fill="srgba(6.60716%,27.1061%,61.8967%,1)"/>
  <circle cx="5" cy="7" r="1" fill="srgba(0%,21.6815%,59.0692%,1)"/>
  <circle cx="6" cy="7" r="1" fill="srgba(5.9968%,26.6331%,61.651%,1)"/>
  <circle cx="7" cy="7" r="1" fill="srgba(13.0419%,32.7474%,65.1911%,1)"/>
  <circle cx="8" cy="7" r="1" fill="srgba(12.9961%,33.1868%,65.6855%,1)"/>
  <circle cx="9" cy="7" r="1" fill="srgba(12.9915%,33.1655%,65.6641%,1)"/>
  <circle cx="10" cy="7" r="1" fill="srgba(12.9915%,33.1655%,65.6641%,1)"/>
  <circle cx="11" cy="7" r="1" fill="srgba(12.9915%,33.1655%,65.6641%,1)"/>
  <circle cx="12" cy="7" r="1" fill="srgba(12.9915%,33.1655%,65.6641%,1)"/>
  <circle cx="13" cy="7" r="1" fill="srgba(12.9915%,33.1655%,65.6641%,1)"/>
  <circle cx="14" cy="7" r="1" fill="srgba(12.9915%,33.1655%,65.6641%,1)"/>
  <circle cx="15" cy="7" r="1" fill="srgba(12.9915%,33.1655%,65.6641%,1)"/>
  <circle cx="0" cy="8" r="1" fill="srgba(10.8202%,30.8431%,64.1001%,1)"/>
  <circle cx="1" cy="8" r="1" fill="srgba(10.8202%,30.8431%,64.1001%,1)"/>
  <circle cx="2" cy="8" r="1" fill="srgba(10.8217%,30.8492%,64.1062%,1)"/>
  <circle cx="3" cy="8" r="1" fill="srgba(10.93%,30.6935%,63.8926%,1)"/>
  <circle cx="4" cy="8" r="1" fill="srgba(5.55428%,26.2882%,61.4725%,1)"/>
  <circle cx="5" cy="8" r="1" fill="srgba(0%,21.7258%,59.0921%,1)"/>
  <circle cx="6" cy="8" r="1" fill="srgba(5.04158%,25.8915%,61.2665%,1)"/>
  <circle cx="7" cy="8" r="1" fill="srgba(10.8827%,30.602%,63.8132%,1)"/>
  <circle cx="8" cy="8" r="1" fill="srgba(10.7912%,30.6828%,63.9399%,1)"/>
  <circle cx="9" cy="8" r="1" fill="srgba(10.7897%,30.6783%,63.9353%,1)"/>
  <circle cx="10" cy="8" r="1" fill="srgba(10.7897%,30.6783%,63.9353%,1)"/>
  <circle cx="11" cy="8" r="1" fill="srgba(10.7897%,30.6783%,63.9353%,1)"/>
  <circle cx="12" cy="8" r="1" fill="srgba(10.7897%,30.6783%,63.9353%,1)"/>
  <circle cx="13" cy="8" r="1" fill="srgba(10.7897%,30.6783%,63.9353%,1)"/>
  <circle cx="14" cy="8" r="1" fill="srgba(10.7897%,30.6783%,63.9353%,1)"/>
  <circle cx="15" cy="8" r="1" fill="srgba(10.7897%,30.6783%,63.9353%,1)"/>
  <circle cx="0" cy="9" r="1" fill="srgba(85.9648%,82.2446%,86.92%,1)"/>
  <circle cx="1" cy="9" r="1" fill="srgba(85.9648%,82.2446%,86.92%,1)"/>
  <circle cx="2" cy="9" r="1" fill="srgba(85.948%,82.1546%,86.8299%,1)"/>
  <circle cx="3" cy="9" r="1" fill="srgba(88.0552%,87.5074%,91.6976%,1)"/>
  <circle cx="4" cy="9" r="1" fill="srgba(45.3162%,57.4334%,77.8088%,1)"/>
  <circle cx="5" cy="9" r="1" fill="srgba(0%,20.0427%,58.2132%,1)"/>
  <circle cx="6" cy="9" r="1" fill="srgba(41.1292%,54.1207%,76.0571%,1)"/>
  <circle cx="7" cy="9" r="1" fill="srgba(87.9576%,88.2444%,92.5383%,1)"/>
  <circle cx="8" cy="9" r="1" fill="srgba(86.4073%,84.6113%,89.2882%,1)"/>
  <circle cx="9" cy="9" r="1" fill="srgba(86.421%,84.6876%,89.3645%,1)"/>
  <circle cx="10" cy="9" r="1" fill="srgba(86.421%,84.6876%,89.3645%,1)"/>
  <circle cx="11" cy="9" r="1" fill="srgba(86.421%,84.6876%,89.3645%,1)"/>
  <circle cx="12" cy="9" r="1" fill="srgba(86.421%,84.6876%,89.3645%,1)"/>
  <circle cx="13" cy="9" r="1" fill="srgba(86.421%,84.6876%,89.3645%,1)"/>
  <circle cx="14" cy="9" r="1" fill="srgba(86.421%,84.6876%,89.3645%,1)"/>
  <circle cx="15" cy="9" r="1" fill="srgba(86.421%,84.6876%,89.3645%,1)"/>
  <circle cx="0" cy="10" r="1" fill="srgba(87.483%,28.9799%,28.6778%,1)"/>
  <circle cx="1" cy="10" r="1" fill="srgba(87.483%,28.9799%,28.6778%,1)"/>
  <circle cx="2" cy="10" r="1" fill="srgba(87.3411%,28.1727%,27.8676%,1)"/>
  <circle cx="3" cy="10" r="1" fill="srgba(95.6512%,68.0476%,67.3503%,1)"/>
  <circle cx="4" cy="10" r="1" fill="srgba(52.0073%,63.5065%,81.4588%,1)"/>
  <circle cx="5" cy="10" r="1" fill="srgba(0%,19.7696%,58.0697%,1)"/>
  <circle cx="6" cy="10" r="1" fill="srgba(47.2038%,59.6063%,79.3408%,1)"/>
  <circle cx="7" cy="10" r="1" fill="srgba(95.2438%,67.1565%,66.5675%,1)"/>
  <circle cx="8" cy="10" r="1" fill="srgba(87.9728%,31.5404%,31.2337%,1)"/>
  <circle cx="9" cy="10" r="1" fill="srgba(88.1376%,32.4788%,32.1767%,1)"/>
  <circle cx="10" cy="10" r="1" fill="srgba(88.1376%,32.4788%,32.1767%,1)"/>
  <circle cx="11" cy="10" r="1" fill="srgba(88.1376%,32.4788%,32.1767%,1)"/>
  <circle cx="12" cy="10" r="1" fill="srgba(88.1376%,32.4788%,32.1767%,1)"/>
  <circle cx="13" cy="10" r="1" fill="srgba(88.1376%,32.4788%,32.1767%,1)"/>
  <circle cx="14" cy="10" r="1" fill="srgba(88.1376%,32.4788%,32.1767%,1)"/>
  <circle cx="15" cy="10" r="1" fill="srgba(88.1376%,32.4788%,32.1767%,1)"/>
  <circle cx="0" cy="11" r="1" fill="srgba(84.1627%,14.8714%,14.8714%,1)"/>
  <circle cx="1" cy="11" r="1" fill="srgba(84.1627%,14.8714%,14.8714%,1)"/>
  <circle cx="2" cy="11" r="1" fill="srgba(83.9826%,13.904%,13.904%,1)"/>
  <circle cx="3" cy="11" r="1" fill="srgba(94.0963%,61.4633%,60.9094%,1)"/>
  <circle cx="4" cy="11" r="1" fill="srgba(52.0439%,63.7156%,81.6678%,1)"/>
  <circle cx="5" cy="11" r="1" fill="srgba(0%,19.7681%,58.0697%,1)"/>
  <circle cx="6" cy="11" r="1" fill="srgba(47.2389%,59.8383%,79.5758%,1)"/>
  <circle cx="7" cy="11" r="1" fill="srgba(93.2341%,58.2498%,57.8134%,1)"/>
  <circle cx="8" cy="11" r="1" fill="srgba(83.9048%,13.4829%,13.4829%,1)"/>
  <circle cx="9" cy="11" r="1" fill="srgba(84.1245%,14.67%,14.67%,1)"/>
  <circle cx="10" cy="11" r="1" fill="srgba(84.1245%,14.67%,14.67%,1)"/>
  <circle cx="11" cy="11" r="1" fill="srgba(84.1245%,14.67%,14.67%,1)"/>
  <circle cx="12" cy="11" r="1" fill="srgba(84.1245%,14.67%,14.67%,1)"/>
  <circle cx="13" cy="11" r="1" fill="srgba(84.1245%,14.67%,14.67%,1)"/>
  <circle cx="14" cy="11" r="1" fill="srgba(84.1245%,14.67%,14.67%,1)"/>
  <circle cx="15" cy="11" r="1" fill="srgba(84.1245%,14.67%,14.67%,1)"/>
  <circle cx="0" cy="12" r="1" fill="srgba(215,40,40,1)"/>
  <circle cx="1" cy="12" r="1" fill="srgba(215,40,40,1)"/>
  <circle cx="2" cy="12" r="1" fill="srgba(84.1352%,14.728%,14.728%,1)"/>
  <circle cx="3" cy="12" r="1" fill="srgba(94.1665%,61.8433%,61.2894%,1)"/>
  <circle cx="4" cy="12" r="1" fill="srgba(52.0409%,63.7034%,81.6556%,1)"/>
  <circle cx="5" cy="12" r="1" fill="srgba(0%,19.7681%,58.0697%,1)"/>
  <circle cx="6" cy="12" r="1" fill="srgba(47.2358%,59.8245%,79.5621%,1)"/>
  <circle cx="7" cy="12" r="1" fill="srgba(93.3288%,58.7579%,58.3215%,1)"/>
  <circle cx="8" cy="12" r="1" fill="srgba(84.0955%,14.5144%,14.5144%,1)"/>
  <circle cx="9" cy="12" r="1" fill="srgba(215,40,40,1)"/>
  <circle cx="10" cy="12" r="1" fill="srgba(215,40,40,1)"/>
  <circle cx="11" cy="12" r="1" fill="srgba(215,40,40,1)"/>
  <circle cx="12" cy="12" r="1" fill="srgba(215,40,40,1)"/>
  <circle cx="13" cy="12" r="1" fill="srgba(215,40,40,1)"/>
  <circle cx="14" cy="12" r="1" fill="srgba(215,40,40,1)"/>
  <circle cx="15" cy="12" r="1" fill="srgba(215,40,40,1)"/>
  <circle cx="0" cy="13" r="1" fill="srgba(215,40,40,1)"/>
  <circle cx="1" cy="13" r="1" fill="srgba(215,40,40,1)"/>
  <circle cx="2" cy="13" r="1" fill="srgba(84.1352%,14.728%,14.728%,1)"/>
  <circle cx="3" cy="13" r="1" fill="srgba(94.1665%,61.8433%,61.2894%,1)"/>
  <circle cx="4" cy="13" r="1" fill="srgba(52.0409%,63.7034%,81.6556%,1)"/>
  <circle cx="5" cy="13" r="1" fill="srgba(0%,19.7681%,58.0697%,1)"/>
  <circle cx="6" cy="13" r="1" fill="srgba(47.2358%,59.8245%,79.5621%,1)"/>
  <circle cx="7" cy="13" r="1" fill="srgba(93.3288%,58.7579%,58.3215%,1)"/>
  <circle cx="8" cy="13" r="1" fill="srgba(84.0955%,14.5144%,14.5144%,1)"/>
  <circle cx="9" cy="13" r="1" fill="srgba(215,40,40,1)"/>
  <circle cx="10" cy="13" r="1" fill="srgba(215,40,40,1)"/>
  <circle cx="11" cy="13" r="1" fill="srgba(215,40,40,1)"/>
  <circle cx="12" cy="13" r="1" fill="srgba(215,40,40,1)"/>
  <circle cx="13" cy="13" r="1" fill="srgba(215,40,40,1)"/>
  <circle cx="14" cy="13" r="1" fill="srgba(215,40,40,1)"/>
  <circle cx="15" cy="13" r="1" fill="srgba(215,40,40,1)"/>
  <circle cx="0" cy="14" r="1" fill="srgba(215,40,40,1)"/>
  <circle cx="1" cy="14" r="1" fill="srgba(215,40,40,1)"/>
  <circle cx="2" cy="14" r="1" fill="srgba(84.1352%,14.728%,14.728%,1)"/>
  <circle cx="3" cy="14" r="1" fill="srgba(94.1665%,61.8433%,61.2894%,1)"/>
  <circle cx="4" cy="14" r="1" fill="srgba(52.0409%,63.7034%,81.6556%,1)"/>
  <circle cx="5" cy="14" r="1" fill="srgba(0%,19.7681%,58.0697%,1)"/>
  <circle cx="6" cy="14" r="1" fill="srgba(47.2358%,59.8245%,79.5621%,1)"/>
  <circle cx="7" cy="14" r="1" fill="srgba(93.3288%,58.7579%,58.3215%,1)"/>
  <circle cx="8" cy="14" r="1" fill="srgba(84.0955%,14.5144%,14.5144%,1)"/>
  <circle cx="9" cy="14" r="1" fill="srgba(215,40,40,1)"/>
  <circle cx="10" cy="14" r="1" fill="srgba(215,40,40,1)"/>
  <circle cx="11" cy="14" r="1" fill="srgba(215,40,40,1)"/>
  <circle cx="12" cy="14" r="1" fill="srgba(215,40,40,1)"/>
  <circle cx="13" cy="14" r="1" fill="srgba(215,40,40,1)"/>
  <circle cx="14" cy="14" r="1" fill="srgba(215,40,40,1)"/>
  <circle cx="15" cy="14" r="1" fill="srgba(215,40,40,1)"/>
  <circle cx="0" cy="15" r="1" fill="srgba(215,40,40,1)"/>
  <circle cx="1" cy="15" r="1" fill="srgba(215,40,40,1)"/>
  <circle cx="2" cy="15" r="1" fill="srgba(84.1352%,14.728%,14.728%,1)"/>
  <circle cx="3" cy="15" r="1" fill="srgba(94.1665%,61.8433%,61.2894%,1)"/>
  <circle cx="4" cy="15" r="1" fill="srgba(52.0409%,63.7034%,81.6556%,1)"/>
  <circle cx="5" cy="15" r="1" fill="srgba(0%,19.7681%,58.0697%,1)"/>
  <circle cx="6" cy="15" r="1" fill="srgba(47.2358%,59.8245%,79.5621%,1)"/>
  <circle cx="7" cy="15" r="1" fill="srgba(93.3288%,58.7579%,58.3215%,1)"/>
  <circle cx="8" cy="15" r="1" fill="srgba(84.0955%,14.5144%,14.5144%,1)"/>
  <circle cx="9" cy="15" r="1" fill="srgba(215,40,40,1)"/>
  <circle cx="10" cy="15" r="1" fill="srgba(215,40,40,1)"/>
  <circle cx="11" cy="15" r="1" fill="srgba(215,40,40,1)"/>
  <circle cx="12" cy="15" r="1" fill="srgba(215,40,40,1)"/>
  <circle cx="13" cy="15" r="1" fill="srgba(215,40,40,1)"/>
  <circle cx="14" cy="15" r="1" fill="srgba(215,40,40,1)"/>
  <circle cx="15" cy="15" r="1" fill="srgba(215,40,40,1)"/>
</svg>
