<?xml version="1.0" standalone="no"?>
<!DOCTYPE svg PUBLIC "-//W3C//DTD SVG 20010904//EN"
  "http://www.w3.org/TR/2001/REC-SVG-20010904/DTD/svg10.dtd">
<svg width="16" height="16">
  <circle cx="0" cy="0" r="1" fill="white"/>
  <circle cx="1" cy="0" r="1" fill="white"/>
  <circle cx="2" cy="0" r="1" fill="white"/>
  <circle cx="3" cy="0" r="1" fill="white"/>
  <circle cx="4" cy="0" r="1" fill="white"/>
  <circle cx="5" cy="0" r="1" fill="white"/>
  <circle cx="6" cy="0" r="1" fill="white"/>
  <circle cx="7" cy="0" r="1" fill="white"/>
  <circle cx="8" cy="0" r="1" fill="white"/>
  <circle cx="9" cy="0" r="1" fill="white"/>
  <circle cx="10" cy="0" r="1" fill="white"/>
  <circle cx="11" cy="0" r="1" fill="white"/>
  <circle cx="12" cy="0" r="1" fill="white"/>
  <circle cx="13" cy="0" r="1" fill="white"/>
  <circle cx="14" cy="0" r="1" fill="white"/>
  <circle cx="15" cy="0" r="1" fill="white"/>
  <circle cx="0" cy="1" r="1" fill="white"/>
  <circle cx="1" cy="1" r="1" fill="white"/>
  <circle cx="2" cy="1" r="1" fill="white"/>
  <circle cx="3" cy="1" r="1" fill="white"/>
  <circle cx="4" cy="1" r="1" fill="white"/>
  <circle cx="5" cy="1" r="1" fill="white"/>
  <circle cx="6" cy="1" r="1" fill="white"/>
  <circle cx="7" cy="1" r="1" fill="white"/>
  <circle cx="8" cy="1" r="1" fill="white"/>
  <circle cx="9" cy="1" r="1" fill="white"/>
  <circle cx="10" cy="1" r="1" fill="white"/>
  <circle cx="11" cy="1" r="1" fill="white"/>
  <circle cx="12" cy="1" r="1" fill="white"/>
  <circle cx="13" cy="1" r="1" fill="white"/>
  <circle cx="14" cy="1" r="1" fill="white"/>
  <circle cx="15" cy="1" r="1" fill="white"/>
  <circle cx="0" cy="2" r="1" fill="white"/>
  <circle cx="1" cy="2" r="1" fill="white"/>
  <circle cx="2" cy="2" r="1" fill="white"/>
  <circle cx="3" cy="2" r="1" fill="white"/>
  <circle cx="4" cy="2" r="1" fill="white"/>
  <circle cx="5" cy="2" r="1" fill="white"/>
  <circle cx="6" cy="2" r="1" fill="white"/>
  <circle cx="7" cy="2" r="1" fill="white"/>
  <circle cx="8" cy="2" r="1" fill="white"/>
  <circle cx="9" cy="2" r="1" fill="white"/>
  <circle cx="10" cy="2" r="1" fill="white"/>
  <circle cx="11" cy="2" r="1" fill="white"/>
  <circle cx="12" cy="2" r="1" fill="white"/>
  <circle cx="13" cy="2" r="1" fill="white"/>
  <circle cx="14" cy="2" r="1" fill="white"/>
  <circle cx="15" cy="2" r="1" fill="white"/>
  <circle cx="0" cy="3" r="1" fill="white"/>
  <circle cx="1" cy="3" r="1" fill="white"/>
  <circle cx="2" cy="3" r="1" fill="srgba(99.9832%,99.7864%,99.794%,1)"/>
  <circle cx="3" cy="3" r="1" fill="srgba(99.4324%,92.4269%,92.726%,1)"/>
  <circle cx="4" cy="3" r="1" fill="srgba(99.1821%,89.0883%,89.5201%,1)"/>
  <circle cx="5" cy="3" r="1" fill="srgba(99.1958%,89.2638%,89.688%,1)"/>
  <circle cx="6" cy="3" r="1" fill="srgba(99.1958%,89.2638%,89.688%,1)"/>
  <circle cx="7" cy="3" r="1" fill="srgba(99.1958%,89.2638%,89.688%,1)"/>
  <circle cx="8" cy="3" r="1" fill="srgba(99.1882%,89.1615%,89.5888%,1)"/>
  <circle cx="9" cy="3" r="1" fill="srgba(99.6399%,95.1995%,95.3887%,1)"/>
  <circle cx="10" cy="3" r="1" fill="white"/>
  <circle cx="11" cy="3" r="1" fill="white"/>
  <circle cx="12" cy="3" r="1" fill="white"/>
  <circle cx="13" cy="3" r="1" fill="white"/>
  <circle cx="14" cy="3" r="1" fill="white"/>
  <circle cx="15" cy="3" r="1" fill="white"/>
  <circle cx="0" cy="4" r="1" fill="srgba(99.5758%,99.6918%,99.8367%,1)"/>
  <circle cx="1" cy="4" r="1" fill="srgba(99.5819%,99.8199%,99.9619%,1)"/>
  <circle cx="2" cy="4" r="1" fill="srgba(99.4736%,97.5525%,97.763%,1)"/>
  <circle cx="3" cy="4" r="1" fill="srgba(95.6893%,42.9618%,45.2369%,1)"/>
  <circle cx="4" cy="4" r="1" fill="srgba(94.049%,20.499%,23.6515%,1)"/>
  <circle cx="5" cy="4" r="1" fill="srgba(94.1375%,21.7166%,24.8219%,1)"/>
  <circle cx="6" cy="4" r="1" fill="srgba(94.1375%,21.7166%,24.8219%,1)"/>
  <circle cx="7" cy="4" r="1" fill="srgba(94.1375%,21.7166%,24.8219%,1)"/>
  <circle cx="8" cy="4" r="1" fill="srgba(94.0749%,20.795%,23.9353%,1)"/>
  <circle cx="9" cy="4" r="1" fill="srgba(97.1023%,62.8656%,64.3763%,1)"/>
  <circle cx="10" cy="4" r="1" fill="srgba(99.6735%,100%,100%,1)"/>
  <circle cx="11" cy="4" r="1" fill="srgba(99.5758%,99.6918%,99.8367%,1)"/>
  <circle cx="12" cy="4" r="1" fill="srgba(99.5758%,99.6918%,99.8367%,1)"/>
  <circle cx="13" cy="4" r="1" fill="srgba(99.5758%,99.6918%,99.8367%,1)"/>
  <circle cx="14" cy="4" r="1" fill="srgba(99.5758%,99.6918%,99.8367%,1)"/>
  <circle cx="15" cy="4" r="1" fill="srgba(99.5758%,99.6918%,99.8367%,1)"/>
  <circle cx="0" cy="5" r="1" fill="srgba(38.2727%,55.2224%,76.4675%,1)"/>
  <circle cx="1" cy="5" r="1" fill="srgba(37.5647%,54.9172%,76.4019%,1)"/>
  <circle cx="2" cy="5" r="1" fill="srgba(49.5644%,59.9908%,77.3983%,1)"/>
  <circle cx="3" cy="5" r="1" fill="srgba(90.692%,28.7892%,32.9381%,1)"/>
  <circle cx="4" cy="5" r="1" fill="srgba(93.4508%,9.18593%,12.7031%,1)"/>
  <circle cx="5" cy="5" r="1" fill="srgba(93.2815%,10.2907%,13.8476%,1)"/>
  <circle cx="6" cy="5" r="1" fill="srgba(93.2692%,10.1289%,13.6919%,1)"/>
  <circle cx="7" cy="5" r="1" fill="srgba(93.2738%,10.193%,13.7545%,1)"/>
  <circle cx="8" cy="5" r="1" fill="srgba(94.0719%,9.60403%,12.9076%,1)"/>
  <circle cx="9" cy="5" r="1" fill="srgba(81.7243%,43.4058%,50.3319%,1)"/>
  <circle cx="10" cy="5" r="1" fill="srgba(40.8347%,58.1933%,78.5412%,1)"/>
  <circle cx="11" cy="5" r="1" fill="srgba(38.1186%,55.111%,76.408%,1)"/>
  <circle cx="12" cy="5" r="1" fill="srgba(38.265%,55.2178%,76.4645%,1)"/>
  <circle cx="13" cy="5" r="1" fill="srgba(38.2605%,55.2132%,76.463%,1)"/>
  <circle cx="14" cy="5" r="1" fill="srgba(38.2528%,55.2071%,76.4599%,1)"/>
  <circle cx="15" cy="5" r="1" fill="srgba(38.2437%,55.201%,76.4569%,1)"/>
  <circle cx="0" cy="6" r="1" fill="srgba(2.64897%,29.3812%,62.8946%,1)"/>
  <circle cx="1" cy="6" r="1" fill="srgba(1.47707%,28.7831%,62.6963%,1)"/>
  <circle cx="2" cy="6" r="1" fill="srgba(21.4954%,38.9319%,66.0182%,1)"/>
  <circle cx="3" cy="6" r="1" fill="srgba(88.7495%,26.3127%,31.1452%,1)"/>
  <circle cx="4" cy="6" r="1" fill="srgba(93.6233%,10.0526%,13.4997%,1)"/>
  <circle cx="5" cy="6" r="1" fill="srgba(93.3181%,10.7759%,14.3145%,1)"/>
  <circle cx="6" cy="6" r="1" fill="srgba(93.4997%,13.2067%,16.6476%,1)"/>
  <circle cx="7" cy="6" r="1" fill="srgba(93.4951%,13.1411%,16.585%,1)"/>
  <circle cx="8" cy="6" r="1" fill="srgba(94.6181%,10.8736%,13.9773%,1)"/>
  <circle cx="9" cy="6" r="1" fill="srgba(73.9071%,36.1532%,45.7954%,1)"/>
  <circle cx="10" cy="6" r="1" fill="srgba(6.3386%,33.0129%,65.243%,1)"/>
  <circle cx="11" cy="6" r="1" fill="srgba(1.50149%,28.5481%,62.4582%,1)"/>
  <circle cx="12" cy="6" r="1" fill="srgba(1.99741%,28.9082%,62.6459%,1)"/>
  <circle cx="13" cy="6" r="1" fill="srgba(2.22934%,29.0761%,62.7359%,1)"/>
  <circle cx="14" cy="6" r="1" fill="srgba(2.49027%,29.2653%,62.8336%,1)"/>
  <circle cx="15" cy="6" r="1" fill="srgba(2.74815%,29.4514%,62.9328%,1)"/>
  <circle cx="0" cy="7" r="1" fill="srgba(11,78,162,1)"/>
  <circle cx="1" cy="7" r="1" fill="srgba(3.15404%,30.0084%,63.3448%,1)"/>
  <circle cx="2" cy="7" r="1" fill="srgba(23.0014%,39.8779%,66.4485%,1)"/>
  <circle cx="3" cy="7" r="1" fill="srgba(88.9204%,25.9846%,30.7652%,1)"/>
  <circle cx="4" cy="7" r="1" fill="srgba(93.7728%,11.7815%,15.1537%,1)"/>
  <circle cx="5" cy="7" r="1" fill="srgba(94.3526%,19.5865%,22.649%,1)"/>
  <circle cx="6" cy="7" r="1" fill="srgba(96.7346%,42.8168%,44.744%,1)"/>
  <circle cx="7" cy="7" r="1" fill="srgba(94.7219%,27.5425%,30.367%,1)"/>
  <circle cx="8" cy="7" r="1" fill="srgba(97.1618%,54.9386%,56.5469%,1)"/>
  <circle cx="9" cy="7" r="1" fill="srgba(89.9855%,76.4157%,80.1022%,1)"/>
  <circle cx="10" cy="7" r="1" fill="srgba(60.9033%,71.9493%,85.4032%,1)"/>
  <circle cx="11" cy="7" r="1" fill="srgba(57.4838%,69.1585%,83.7949%,1)"/>
  <circle cx="12" cy="7" r="1" fill="srgba(59.5056%,70.6249%,84.5655%,1)"/>
  <circle cx="13" cy="7" r="1" fill="srgba(61.2314%,71.8761%,85.2232%,1)"/>
  <circle cx="14" cy="7" r="1" fill="srgba(62.9129%,73.0968%,85.864%,1)"/>
  <circle cx="15" cy="7" r="1" fill="srgba(64.387%,74.1665%,86.4271%,1)"/>
  <circle cx="0" cy="8" r="1" fill="srgba(11,78,162,1)"/>
  <circle cx="1" cy="8" r="1" fill="srgba(3.45769%,30.0969%,63.331%,1)"/>
  <circle cx="2" cy="8" r="1" fill="srgba(17.8592%,38.4131%,66.7201%,1)"/>
  <circle cx="3" cy="8" r="1" fill="srgba(85.6123%,29.6971%,35.5261%,1)"/>
  <circle cx="4" cy="8" r="1" fill="srgba(93.7957%,9.98093%,13.3715%,1)"/>
  <circle cx="5" cy="8" r="1" fill="srgba(88.3894%,19.7803%,24.828%,1)"/>
  <circle cx="6" cy="8" r="1" fill="srgba(79.7314%,52.311%,59.7696%,1)"/>
  <circle cx="7" cy="8" r="1" fill="srgba(92.7916%,28.2475%,31.7052%,1)"/>
  <circle cx="8" cy="8" r="1" fill="srgba(97.8882%,69.5705%,70.7012%,1)"/>
  <circle cx="9" cy="8" r="1" fill="srgba(93.5668%,92.0668%,94.2947%,1)"/>
  <circle cx="10" cy="8" r="1" fill="srgba(90.7988%,93.5515%,96.7178%,1)"/>
  <circle cx="11" cy="8" r="1" fill="srgba(99.7009%,99.7833%,99.8856%,1)"/>
  <circle cx="12" cy="8" r="1" fill="white"/>
  <circle cx="13" cy="8" r="1" fill="white"/>
  <circle cx="14" cy="8" r="1" fill="white"/>
  <circle cx="15" cy="8" r="1" fill="white"/>
  <circle cx="0" cy="9" r="1" fill="srgba(2.76493%,30.93%,64.3824%,1)"/>
  <circle cx="1" cy="9" r="1" fill="srgba(2.57115%,30.7942%,64.3122%,1)"/>
  <circle cx="2" cy="9" r="1" fill="srgba(6.03189%,33.7667%,66.0868%,1)"/>
  <circle cx="3" cy="9" r="1" fill="srgba(56.5957%,42.4857%,57.8088%,1)"/>
  <circle cx="4" cy="9" r="1" fill="srgba(43.2486%,23.8117%,43.8636%,1)"/>
  <circle cx="5" cy="9" r="1" fill="srgba(30.9255%,24.6159%,48.7694%,1)"/>
  <circle cx="6" cy="9" r="1" fill="srgba(13.5988%,34.2031%,63.9948%,1)"/>
  <circle cx="7" cy="9" r="1" fill="srgba(37.7676%,48.0537%,69.5766%,1)"/>
  <circle cx="8" cy="9" r="1" fill="srgba(52.8573%,39.1119%,55.729%,1)"/>
  <circle cx="9" cy="9" r="1" fill="srgba(44.1306%,47.9835%,67.3854%,1)"/>
  <circle cx="10" cy="9" r="1" fill="srgba(16.1532%,41.3626%,70.1991%,1)"/>
  <circle cx="11" cy="9" r="1" fill="srgba(50.8354%,65.803%,82.7115%,1)"/>
  <circle cx="12" cy="9" r="1" fill="srgba(86.3523%,91.5206%,96.1364%,1)"/>
  <circle cx="13" cy="9" r="1" fill="srgba(99.3576%,99.9542%,100%,1)"/>
  <circle cx="14" cy="9" r="1" fill="white"/>
  <circle cx="15" cy="9" r="1" fill="white"/>
  <circle cx="0" cy="10" r="1" fill="srgba(35.8999%,23.6362%,46.1433%,1)"/>
  <circle cx="1" cy="10" r="1" fill="srgba(35.906%,23.6408%,46.1448%,1)"/>
  <circle cx="2" cy="10" r="1" fill="srgba(35.3613%,23.2151%,45.9083%,1)"/>
  <circle cx="3" cy="10" r="1" fill="srgba(50.2647%,34.7951%,52.3461%,1)"/>
  <circle cx="4" cy="10" r="1" fill="srgba(34.5022%,44.0314%,66.7063%,1)"/>
  <circle cx="5" cy="10" r="1" fill="srgba(3.16014%,31.7754%,65.0858%,1)"/>
  <circle cx="6" cy="10" r="1" fill="srgba(2.21866%,29.4804%,63.1373%,1)"/>
  <circle cx="7" cy="10" r="1" fill="srgba(7.27398%,33.2082%,65.124%,1)"/>
  <circle cx="8" cy="10" r="1" fill="srgba(47.1107%,44.8539%,63.3082%,1)"/>
  <circle cx="9" cy="10" r="1" fill="srgba(43.3204%,28.4306%,48.3925%,1)"/>
  <circle cx="10" cy="10" r="1" fill="srgba(34.5098%,22.6459%,45.6321%,1)"/>
  <circle cx="11" cy="10" r="1" fill="srgba(35.4086%,23.2792%,45.9556%,1)"/>
  <circle cx="12" cy="10" r="1" fill="srgba(50.7439%,34.2504%,51.6518%,1)"/>
  <circle cx="13" cy="10" r="1" fill="srgba(84.9683%,61.5885%,67.1687%,1)"/>
  <circle cx="14" cy="10" r="1" fill="srgba(99.6368%,90.5089%,90.7698%,1)"/>
  <circle cx="15" cy="10" r="1" fill="white"/>
  <circle cx="0" cy="11" r="1" fill="srgba(92.9366%,11.0689%,14.7295%,1)"/>
  <circle cx="1" cy="11" r="1" fill="srgba(92.9366%,11.0689%,14.7295%,1)"/>
  <circle cx="2" cy="11" r="1" fill="srgba(92.9183%,11.0277%,14.6944%,1)"/>
  <circle cx="3" cy="11" r="1" fill="srgba(93.1273%,11.1421%,14.7372%,1)"/>
  <circle cx="4" cy="11" r="1" fill="srgba(87.9393%,28.2689%,33.344%,1)"/>
  <circle cx="5" cy="11" r="1" fill="srgba(49.1402%,44.445%,62.2293%,1)"/>
  <circle cx="6" cy="11" r="1" fill="srgba(26.6514%,44.5777%,69.8619%,1)"/>
  <circle cx="7" cy="11" r="1" fill="srgba(65.2888%,70.0145%,82.034%,1)"/>
  <circle cx="8" cy="11" r="1" fill="srgba(92.9946%,31.3939%,34.7372%,1)"/>
  <circle cx="9" cy="11" r="1" fill="srgba(92.7794%,9.92905%,13.6599%,1)"/>
  <circle cx="10" cy="11" r="1" fill="srgba(92.9534%,11.0796%,14.7341%,1)"/>
  <circle cx="11" cy="11" r="1" fill="srgba(92.9%,11.043%,14.7158%,1)"/>
  <circle cx="12" cy="11" r="1" fill="srgba(92.0516%,10.3731%,14.3389%,1)"/>
  <circle cx="13" cy="11" r="1" fill="srgba(92.2759%,11.1543%,15.0347%,1)"/>
  <circle cx="14" cy="11" r="1" fill="srgba(94.5602%,27.2694%,30.1503%,1)"/>
  <circle cx="15" cy="11" r="1" fill="srgba(96.9329%,59.0204%,60.6439%,1)"/>
  <circle cx="0" cy="12" r="1" fill="srgba(93.373%,10.9712%,14.4884%,1)"/>
  <circle cx="1" cy="12" r="1" fill="srgba(93.373%,10.9712%,14.4884%,1)"/>
  <circle cx="2" cy="12" r="1" fill="srgba(93.373%,10.9728%,14.49%,1)"/>
  <circle cx="3" cy="12" r="1" fill="srgba(93.344%,10.9178%,14.4442%,1)"/>
  <circle cx="4" cy="12" r="1" fill="srgba(93.8079%,10.4341%,13.814%,1)"/>
  <circle cx="5" cy="12" r="1" fill="srgba(93.3959%,18.7274%,22.121%,1)"/>
  <circle cx="6" cy="12" r="1" fill="srgba(90.837%,39.5895%,43.5325%,1)"/>
  <circle cx="7" cy="12" r="1" fill="srgba(98.5809%,84.1306%,84.8386%,1)"/>
  <circle cx="8" cy="12" r="1" fill="srgba(94.5235%,26.0334%,28.9448%,1)"/>
  <circle cx="9" cy="12" r="1" fill="srgba(93.2998%,10.0282%,13.5836%,1)"/>
  <circle cx="10" cy="12" r="1" fill="srgba(93.373%,10.9712%,14.4884%,1)"/>
  <circle cx="11" cy="12" r="1" fill="srgba(93.373%,10.9712%,14.4884%,1)"/>
  <circle cx="12" cy="12" r="1" fill="srgba(93.3745%,10.9758%,14.4915%,1)"/>
  <circle cx="13" cy="12" r="1" fill="srgba(93.3547%,10.9178%,14.4411%,1)"/>
  <circle cx="14" cy="12" r="1" fill="srgba(93.2647%,10.0664%,13.6324%,1)"/>
  <circle cx="15" cy="12" r="1" fill="srgba(93.3211%,10.8217%,14.3572%,1)"/>
  <circle cx="0" cy="13" r="1" fill="srgba(238,28,37,1)"/>
  <circle cx="1" cy="13" r="1" fill="srgba(238,28,37,1)"/>
  <circle cx="2" cy="13" r="1" fill="srgba(238,28,37,1)"/>
  <circle cx="3" cy="13" r="1" fill="srgba(238,28,37,1)"/>
  <circle cx="4" cy="13" r="1" fill="srgba(93.3288%,10.9865%,14.5159%,1)"/>
  <circle cx="5" cy="13" r="1" fill="srgba(93.3394%,9.96262%,13.5058%,1)"/>
  <circle cx="6" cy="13" r="1" fill="srgba(94.2336%,19.0524%,22.1637%,1)"/>
  <circle cx="7" cy="13" r="1" fill="srgba(98.2696%,76.6537%,77.5723%,1)"/>
  <circle cx="8" cy="13" r="1" fill="srgba(94.2885%,23.7354%,26.7597%,1)"/>
  <circle cx="9" cy="13" r="1" fill="srgba(93.2753%,10.2129%,13.7728%,1)"/>
  <circle cx="10" cy="13" r="1" fill="srgba(238,28,37,1)"/>
  <circle cx="11" cy="13" r="1" fill="srgba(238,28,37,1)"/>
  <circle cx="12" cy="13" r="1" fill="srgba(238,28,37,1)"/>
  <circle cx="13" cy="13" r="1" fill="srgba(238,28,37,1)"/>
  <circle cx="14" cy="13" r="1" fill="srgba(93.3333%,10.9819%,14.5113%,1)"/>
  <circle cx="15" cy="13" r="1" fill="srgba(93.3303%,10.9392%,14.4701%,1)"/>
  <circle cx="0" cy="14" r="1" fill="srgba(238,28,37,1)"/>
  <circle cx="1" cy="14" r="1" fill="srgba(238,28,37,1)"/>
  <circle cx="2" cy="14" r="1" fill="srgba(238,28,37,1)"/>
  <circle cx="3" cy="14" r="1" fill="srgba(238,28,37,1)"/>
  <circle cx="4" cy="14" r="1" fill="srgba(238,28,37,1)"/>
  <circle cx="5" cy="14" r="1" fill="srgba(93.3089%,10.6569%,14.2%,1)"/>
  <circle cx="6" cy="14" r="1" fill="srgba(93.7819%,16.9665%,20.2594%,1)"/>
  <circle cx="7" cy="14" r="1" fill="srgba(97.6623%,68.7785%,70.0175%,1)"/>
  <circle cx="8" cy="14" r="1" fill="srgba(94.0826%,20.9888%,24.1215%,1)"/>
  <circle cx="9" cy="14" r="1" fill="srgba(93.2906%,10.4082%,13.9605%,1)"/>
  <circle cx="10" cy="14" r="1" fill="srgba(238,28,37,1)"/>
  <circle cx="11" cy="14" r="1" fill="srgba(238,28,37,1)"/>
  <circle cx="12" cy="14" r="1" fill="srgba(238,28,37,1)"/>
  <circle cx="13" cy="14" r="1" fill="srgba(238,28,37,1)"/>
  <circle cx="14" cy="14" r="1" fill="srgba(238,28,37,1)"/>
  <circle cx="15" cy="14" r="1" fill="srgba(238,28,37,1)"/>
  <circle cx="0" cy="15" r="1" fill="srgba(238,28,37,1)"/>
  <circle cx="1" cy="15" r="1" fill="srgba(238,28,37,1)"/>
  <circle cx="2" cy="15" r="1" fill="srgba(238,28,37,1)"/>
  <circle cx="3" cy="15" r="1" fill="srgba(238,28,37,1)"/>
  <circle cx="4" cy="15" r="1" fill="srgba(238,28,37,1)"/>
  <circle cx="5" cy="15" r="1" fill="srgba(93.3211%,10.8217%,14.3572%,1)"/>
  <circle cx="6" cy="15" r="1" fill="srgba(93.6065%,14.6258%,18.0102%,1)"/>
  <circle cx="7" cy="15" r="1" fill="srgba(96.9421%,59.1623%,60.7813%,1)"/>
  <circle cx="8" cy="15" r="1" fill="srgba(93.8872%,18.3841%,21.6205%,1)"/>
  <circle cx="9" cy="15" r="1" fill="srgba(93.3043%,10.5989%,14.1436%,1)"/>
  <circle cx="10" cy="15" r="1" fill="srgba(238,28,37,1)"/>
  <circle cx="11" cy="15" r="1" fill="srgba(238,28,37,1)"/>
  <circle cx="12" cy="15" r="1" fill="srgba(238,28,37,1)"/>
  <circle cx="13" cy="15" r="1" fill="srgba(238,28,37,1)"/>
  <circle cx="14" cy="15" r="1" fill="srgba(238,28,37,1)"/>
  <circle cx="15" cy="15" r="1" fill="srgba(238,28,37,1)"/>
</svg>
