<?xml version="1.0" standalone="no"?>
<!DOCTYPE svg PUBLIC "-//W3C//DTD SVG 20010904//EN"
  "http://www.w3.org/TR/2001/REC-SVG-20010904/DTD/svg10.dtd">
<svg width="16" height="16">
  <circle cx="0" cy="0" r="1" fill="white"/>
  <circle cx="1" cy="0" r="1" fill="white"/>
  <circle cx="2" cy="0" r="1" fill="white"/>
  <circle cx="3" cy="0" r="1" fill="white"/>
  <circle cx="4" cy="0" r="1" fill="white"/>
  <circle cx="5" cy="0" r="1" fill="white"/>
  <circle cx="6" cy="0" r="1" fill="white"/>
  <circle cx="7" cy="0" r="1" fill="white"/>
  <circle cx="8" cy="0" r="1" fill="white"/>
  <circle cx="9" cy="0" r="1" fill="white"/>
  <circle cx="10" cy="0" r="1" fill="white"/>
  <circle cx="11" cy="0" r="1" fill="white"/>
  <circle cx="12" cy="0" r="1" fill="white"/>
  <circle cx="13" cy="0" r="1" fill="white"/>
  <circle cx="14" cy="0" r="1" fill="white"/>
  <circle cx="15" cy="0" r="1" fill="white"/>
  <circle cx="0" cy="1" r="1" fill="white"/>
  <circle cx="1" cy="1" r="1" fill="white"/>
  <circle cx="2" cy="1" r="1" fill="white"/>
  <circle cx="3" cy="1" r="1" fill="white"/>
  <circle cx="4" cy="1" r="1" fill="white"/>
  <circle cx="5" cy="1" r="1" fill="white"/>
  <circle cx="6" cy="1" r="1" fill="white"/>
  <circle cx="7" cy="1" r="1" fill="white"/>
  <circle cx="8" cy="1" r="1" fill="white"/>
  <circle cx="9" cy="1" r="1" fill="white"/>
  <circle cx="10" cy="1" r="1" fill="white"/>
  <circle cx="11" cy="1" r="1" fill="white"/>
  <circle cx="12" cy="1" r="1" fill="white"/>
  <circle cx="13" cy="1" r="1" fill="white"/>
  <circle cx="14" cy="1" r="1" fill="white"/>
  <circle cx="15" cy="1" r="1" fill="white"/>
  <circle cx="0" cy="2" r="1" fill="white"/>
  <circle cx="1" cy="2" r="1" fill="white"/>
  <circle cx="2" cy="2" r="1" fill="white"/>
  <circle cx="3" cy="2" r="1" fill="white"/>
  <circle cx="4" cy="2" r="1" fill="white"/>
  <circle cx="5" cy="2" r="1" fill="white"/>
  <circle cx="6" cy="2" r="1" fill="white"/>
  <circle cx="7" cy="2" r="1" fill="white"/>
  <circle cx="8" cy="2" r="1" fill="srgba(99.9985%,99.9954%,99.9145%,1)"/>
  <circle cx="9" cy="2" r="1" fill="srgba(99.9573%,99.9176%,99.556%,1)"/>
  <circle cx="10" cy="2" r="1" fill="srgba(99.8352%,99.7284%,99.0295%,1)"/>
  <circle cx="11" cy="2" r="1" fill="srgba(99.7971%,99.6445%,98.6557%,1)"/>
  <circle cx="12" cy="2" r="1" fill="srgba(99.7269%,99.5468%,98.3841%,1)"/>
  <circle cx="13" cy="2" r="1" fill="srgba(99.9619%,99.9466%,99.8474%,1)"/>
  <circle cx="14" cy="2" r="1" fill="white"/>
  <circle cx="15" cy="2" r="1" fill="white"/>
  <circle cx="0" cy="3" r="1" fill="white"/>
  <circle cx="1" cy="3" r="1" fill="white"/>
  <circle cx="2" cy="3" r="1" fill="white"/>
  <circle cx="3" cy="3" r="1" fill="white"/>
  <circle cx="4" cy="3" r="1" fill="white"/>
  <circle cx="5" cy="3" r="1" fill="srgba(99.6216%,99.6185%,99.5789%,1)"/>
  <circle cx="6" cy="3" r="1" fill="srgba(97.023%,96.875%,95.8373%,1)"/>
  <circle cx="7" cy="3" r="1" fill="srgba(96.1379%,94.3725%,82.6032%,1)"/>
  <circle cx="8" cy="3" r="1" fill="srgba(94.0505%,92.4773%,75.5077%,1)"/>
  <circle cx="9" cy="3" r="1" fill="srgba(94.4259%,92.8832%,79.4736%,1)"/>
  <circle cx="10" cy="3" r="1" fill="srgba(96.7193%,94.4228%,79.5575%,1)"/>
  <circle cx="11" cy="3" r="1" fill="srgba(96.9223%,94.2336%,76.7086%,1)"/>
  <circle cx="12" cy="3" r="1" fill="srgba(97.1527%,94.8333%,79.7574%,1)"/>
  <circle cx="13" cy="3" r="1" fill="srgba(99.6933%,99.5621%,98.7198%,1)"/>
  <circle cx="14" cy="3" r="1" fill="white"/>
  <circle cx="15" cy="3" r="1" fill="white"/>
  <circle cx="0" cy="4" r="1" fill="white"/>
  <circle cx="1" cy="4" r="1" fill="white"/>
  <circle cx="2" cy="4" r="1" fill="white"/>
  <circle cx="3" cy="4" r="1" fill="white"/>
  <circle cx="4" cy="4" r="1" fill="white"/>
  <circle cx="5" cy="4" r="1" fill="srgba(96.1425%,95.7626%,93.8369%,1)"/>
  <circle cx="6" cy="4" r="1" fill="srgba(92.1096%,90.8827%,81.8662%,1)"/>
  <circle cx="7" cy="4" r="1" fill="srgba(92.0806%,88.4886%,69.2805%,1)"/>
  <circle cx="8" cy="4" r="1" fill="srgba(89.4057%,65.3422%,48.6839%,1)"/>
  <circle cx="9" cy="4" r="1" fill="srgba(89.9687%,79.4995%,69.6529%,1)"/>
  <circle cx="10" cy="4" r="1" fill="srgba(97.7783%,97.7707%,95.6573%,1)"/>
  <circle cx="11" cy="4" r="1" fill="srgba(99.8642%,99.646%,98.2635%,1)"/>
  <circle cx="12" cy="4" r="1" fill="srgba(99.7803%,99.6231%,98.5931%,1)"/>
  <circle cx="13" cy="4" r="1" fill="srgba(99.9863%,99.9817%,99.9481%,1)"/>
  <circle cx="14" cy="4" r="1" fill="white"/>
  <circle cx="15" cy="4" r="1" fill="white"/>
  <circle cx="0" cy="5" r="1" fill="white"/>
  <circle cx="1" cy="5" r="1" fill="white"/>
  <circle cx="2" cy="5" r="1" fill="white"/>
  <circle cx="3" cy="5" r="1" fill="white"/>
  <circle cx="4" cy="5" r="1" fill="srgba(98.5992%,99.144%,98.7274%,1)"/>
  <circle cx="5" cy="5" r="1" fill="srgba(80.3342%,85.0095%,78.3093%,1)"/>
  <circle cx="6" cy="5" r="1" fill="srgba(86.5278%,71.4168%,51.899%,1)"/>
  <circle cx="7" cy="5" r="1" fill="srgba(88.6229%,71.1696%,36.3485%,1)"/>
  <circle cx="8" cy="5" r="1" fill="srgba(85.9998%,45.9998%,6.32792%,1)"/>
  <circle cx="9" cy="5" r="1" fill="srgba(89.1417%,68.9998%,50.2739%,1)"/>
  <circle cx="10" cy="5" r="1" fill="srgba(95.2438%,98.2544%,96.8078%,1)"/>
  <circle cx="11" cy="5" r="1" fill="srgba(98.8388%,99.5529%,99.0143%,1)"/>
  <circle cx="12" cy="5" r="1" fill="white"/>
  <circle cx="13" cy="5" r="1" fill="white"/>
  <circle cx="14" cy="5" r="1" fill="white"/>
  <circle cx="15" cy="5" r="1" fill="white"/>
  <circle cx="0" cy="6" r="1" fill="white"/>
  <circle cx="1" cy="6" r="1" fill="white"/>
  <circle cx="2" cy="6" r="1" fill="white"/>
  <circle cx="3" cy="6" r="1" fill="white"/>
  <circle cx="4" cy="6" r="1" fill="srgba(62.5437%,75.6466%,62.2736%,1)"/>
  <circle cx="5" cy="6" r="1" fill="srgba(32.8725%,53.8476%,21.4908%,1)"/>
  <circle cx="6" cy="6" r="1" fill="srgba(56.4111%,39.5254%,5.81216%,1)"/>
  <circle cx="7" cy="6" r="1" fill="srgba(63.3204%,24.5441%,0.282292%,1)"/>
  <circle cx="8" cy="6" r="1" fill="srgba(62.6612%,55.6069%,18.5611%,1)"/>
  <circle cx="9" cy="6" r="1" fill="srgba(80.2213%,72.781%,30.3014%,1)"/>
  <circle cx="10" cy="6" r="1" fill="srgba(70.6645%,83.1098%,61.2772%,1)"/>
  <circle cx="11" cy="6" r="1" fill="srgba(76.8719%,91.2291%,80.3174%,1)"/>
  <circle cx="12" cy="6" r="1" fill="srgba(91.3268%,96.2707%,92.3766%,1)"/>
  <circle cx="13" cy="6" r="1" fill="srgba(95.2712%,97.7584%,95.7977%,1)"/>
  <circle cx="14" cy="6" r="1" fill="srgba(100%,99.9924%,100%,1)"/>
  <circle cx="15" cy="6" r="1" fill="white"/>
  <circle cx="0" cy="7" r="1" fill="srgba(89.1218%,96.5469%,99.2432%,1)"/>
  <circle cx="1" cy="7" r="1" fill="srgba(89.1218%,96.5469%,99.2432%,1)"/>
  <circle cx="2" cy="7" r="1" fill="srgba(89.7917%,97.0336%,100%,1)"/>
  <circle cx="3" cy="7" r="1" fill="srgba(76.5499%,87.3335%,84.5426%,1)"/>
  <circle cx="4" cy="7" r="1" fill="srgba(29.3935%,54.7051%,30.0343%,1)"/>
  <circle cx="5" cy="7" r="1" fill="srgba(49.0013%,56.6461%,17.1633%,1)"/>
  <circle cx="6" cy="7" r="1" fill="srgba(78.9639%,34.7265%,7.95911%,1)"/>
  <circle cx="7" cy="7" r="1" fill="srgba(83.1266%,14.11%,2.97246%,1)"/>
  <circle cx="8" cy="7" r="1" fill="srgba(56.8124%,61.4817%,57.1191%,1)"/>
  <circle cx="9" cy="7" r="1" fill="srgba(64.5823%,74.6548%,48.9937%,1)"/>
  <circle cx="10" cy="7" r="1" fill="srgba(53.6156%,73.0251%,31.5267%,1)"/>
  <circle cx="11" cy="7" r="1" fill="srgba(47.1077%,80.8682%,55.8312%,1)"/>
  <circle cx="12" cy="7" r="1" fill="srgba(81.207%,92.3293%,83.7675%,1)"/>
  <circle cx="13" cy="7" r="1" fill="srgba(85.687%,94.0032%,87.628%,1)"/>
  <circle cx="14" cy="7" r="1" fill="srgba(88.9723%,95.3979%,90.5058%,1)"/>
  <circle cx="15" cy="7" r="1" fill="srgba(89.8024%,95.5459%,91.1711%,1)"/>
  <circle cx="0" cy="8" r="1" fill="srgba(20.6821%,74.8257%,94.4823%,1)"/>
  <circle cx="1" cy="8" r="1" fill="srgba(20.6821%,74.8257%,94.4823%,1)"/>
  <circle cx="2" cy="8" r="1" fill="srgba(20.9751%,75.3536%,95.642%,1)"/>
  <circle cx="3" cy="8" r="1" fill="srgba(15.0515%,64.3534%,71.5938%,1)"/>
  <circle cx="4" cy="8" r="1" fill="srgba(3.68048%,45.8671%,24.506%,1)"/>
  <circle cx="5" cy="8" r="1" fill="srgba(30.9453%,52.3125%,22.9191%,1)"/>
  <circle cx="6" cy="8" r="1" fill="srgba(80.5875%,48.3772%,25.8061%,1)"/>
  <circle cx="7" cy="8" r="1" fill="srgba(82.8977%,50.9499%,45.1713%,1)"/>
  <circle cx="8" cy="8" r="1" fill="srgba(64.7547%,64.6693%,55.5566%,1)"/>
  <circle cx="9" cy="8" r="1" fill="srgba(80.9247%,81.5793%,71.1284%,1)"/>
  <circle cx="10" cy="8" r="1" fill="srgba(83.9979%,86.6056%,73.5836%,1)"/>
  <circle cx="11" cy="8" r="1" fill="srgba(83.6332%,90.4814%,83.2532%,1)"/>
  <circle cx="12" cy="8" r="1" fill="srgba(88.0323%,92.1782%,86.4164%,1)"/>
  <circle cx="13" cy="8" r="1" fill="srgba(88.9464%,92.7687%,87.4571%,1)"/>
  <circle cx="14" cy="8" r="1" fill="srgba(90.1152%,93.4401%,88.7404%,1)"/>
  <circle cx="15" cy="8" r="1" fill="srgba(91.4092%,94.0703%,90.074%,1)"/>
  <circle cx="0" cy="9" r="1" fill="srgba(9.09895%,71.1482%,93.6767%,1)"/>
  <circle cx="1" cy="9" r="1" fill="srgba(9.09895%,71.1482%,93.6767%,1)"/>
  <circle cx="2" cy="9" r="1" fill="srgba(9.15999%,71.49%,94.4182%,1)"/>
  <circle cx="3" cy="9" r="1" fill="srgba(7.57%,63.8346%,78.0209%,1)"/>
  <circle cx="4" cy="9" r="1" fill="srgba(4.60365%,51.8105%,42.9526%,1)"/>
  <circle cx="5" cy="9" r="1" fill="srgba(10.9148%,49.4209%,30.3777%,1)"/>
  <circle cx="6" cy="9" r="1" fill="srgba(69.0837%,40.0488%,20.2182%,1)"/>
  <circle cx="7" cy="9" r="1" fill="srgba(80.4318%,42.7131%,32.9854%,1)"/>
  <circle cx="8" cy="9" r="1" fill="srgba(73.7591%,59.5834%,39.617%,1)"/>
  <circle cx="9" cy="9" r="1" fill="srgba(75.4009%,71.4107%,51.9738%,1)"/>
  <circle cx="10" cy="9" r="1" fill="srgba(85.156%,82.9191%,75.7183%,1)"/>
  <circle cx="11" cy="9" r="1" fill="srgba(95.3552%,88.1102%,82.6993%,1)"/>
  <circle cx="12" cy="9" r="1" fill="srgba(96.4889%,89.2287%,84.6448%,1)"/>
  <circle cx="13" cy="9" r="1" fill="srgba(96.4569%,89.4438%,84.9348%,1)"/>
  <circle cx="14" cy="9" r="1" fill="srgba(96.4889%,89.6818%,85.2537%,1)"/>
  <circle cx="15" cy="9" r="1" fill="srgba(96.495%,89.8589%,85.481%,1)"/>
  <circle cx="0" cy="10" r="1" fill="srgba(25,182,239,1)"/>
  <circle cx="1" cy="10" r="1" fill="srgba(9.80087%,71.3741%,93.7285%,1)"/>
  <circle cx="2" cy="10" r="1" fill="srgba(9.92905%,71.5816%,94.1543%,1)"/>
  <circle cx="3" cy="10" r="1" fill="srgba(9.3431%,65.7816%,82.4918%,1)"/>
  <circle cx="4" cy="10" r="1" fill="srgba(4.97139%,53.6049%,46.9001%,1)"/>
  <circle cx="5" cy="10" r="1" fill="srgba(5.03853%,47.4144%,28.6122%,1)"/>
  <circle cx="6" cy="10" r="1" fill="srgba(61.2741%,34.5434%,18.4039%,1)"/>
  <circle cx="7" cy="10" r="1" fill="srgba(72.2591%,27.306%,9.14473%,1)"/>
  <circle cx="8" cy="10" r="1" fill="srgba(70.2174%,41.5259%,18.8449%,1)"/>
  <circle cx="9" cy="10" r="1" fill="srgba(77.6333%,57.6425%,39.1394%,1)"/>
  <circle cx="10" cy="10" r="1" fill="srgba(73.5821%,57.6089%,38.0072%,1)"/>
  <circle cx="11" cy="10" r="1" fill="srgba(81.7624%,61.8204%,44.3046%,1)"/>
  <circle cx="12" cy="10" r="1" fill="srgba(86.9261%,67.1015%,52.99%,1)"/>
  <circle cx="13" cy="10" r="1" fill="srgba(87.1092%,66.6697%,51.9707%,1)"/>
  <circle cx="14" cy="10" r="1" fill="srgba(87.1199%,66.6423%,51.9127%,1)"/>
  <circle cx="15" cy="10" r="1" fill="srgba(87.2938%,67.0741%,52.5292%,1)"/>
  <circle cx="0" cy="11" r="1" fill="srgba(25,182,239,1)"/>
  <circle cx="1" cy="11" r="1" fill="srgba(9.77951%,71.3832%,93.7484%,1)"/>
  <circle cx="2" cy="11" r="1" fill="srgba(9.85122%,70.9865%,93.2113%,1)"/>
  <circle cx="3" cy="11" r="1" fill="srgba(35.4482%,73.5592%,87.0115%,1)"/>
  <circle cx="4" cy="11" r="1" fill="srgba(21.2131%,71.3939%,82.3514%,1)"/>
  <circle cx="5" cy="11" r="1" fill="srgba(8.17121%,66.6896%,73.2662%,1)"/>
  <circle cx="6" cy="11" r="1" fill="srgba(56.7056%,42.9053%,32.1492%,1)"/>
  <circle cx="7" cy="11" r="1" fill="srgba(73.9284%,46.6361%,29.5537%,1)"/>
  <circle cx="8" cy="11" r="1" fill="srgba(68.7938%,42.4826%,21.7426%,1)"/>
  <circle cx="9" cy="11" r="1" fill="srgba(75.0576%,47.2801%,27.0176%,1)"/>
  <circle cx="10" cy="11" r="1" fill="srgba(76.3653%,46.6377%,25.6626%,1)"/>
  <circle cx="11" cy="11" r="1" fill="srgba(77.3999%,53.3196%,36.083%,1)"/>
  <circle cx="12" cy="11" r="1" fill="srgba(75.7168%,55.8984%,41.6373%,1)"/>
  <circle cx="13" cy="11" r="1" fill="srgba(75.3811%,47.6341%,27.6768%,1)"/>
  <circle cx="14" cy="11" r="1" fill="srgba(78.851%,54.3771%,36.7712%,1)"/>
  <circle cx="15" cy="11" r="1" fill="srgba(88.2338%,74.5922%,64.7822%,1)"/>
  <circle cx="0" cy="12" r="1" fill="srgba(25,182,239,1)"/>
  <circle cx="1" cy="12" r="1" fill="srgba(9.79629%,71.3756%,93.7316%,1)"/>
  <circle cx="2" cy="12" r="1" fill="srgba(9.02571%,70.959%,93.4432%,1)"/>
  <circle cx="3" cy="12" r="1" fill="srgba(45.9205%,79.0921%,91.3878%,1)"/>
  <circle cx="4" cy="12" r="1" fill="srgba(26.7659%,74.8287%,87.7409%,1)"/>
  <circle cx="5" cy="12" r="1" fill="srgba(8.4184%,68.4199%,79.4079%,1)"/>
  <circle cx="6" cy="12" r="1" fill="srgba(63.0381%,47.6967%,27.8264%,1)"/>
  <circle cx="7" cy="12" r="1" fill="srgba(89.6361%,64.8829%,38.5122%,1)"/>
  <circle cx="8" cy="12" r="1" fill="srgba(80.7858%,49.8344%,24.3305%,1)"/>
  <circle cx="9" cy="12" r="1" fill="srgba(77.8653%,43.4272%,18.5229%,1)"/>
  <circle cx="10" cy="12" r="1" fill="srgba(77.4792%,42.6444%,17.5937%,1)"/>
  <circle cx="11" cy="12" r="1" fill="srgba(82.4201%,60.1556%,44.1321%,1)"/>
  <circle cx="12" cy="12" r="1" fill="srgba(95.0439%,93.3913%,92.1782%,1)"/>
  <circle cx="13" cy="12" r="1" fill="srgba(89.5171%,82.0264%,76.6415%,1)"/>
  <circle cx="14" cy="12" r="1" fill="srgba(85.9693%,70.1991%,58.9014%,1)"/>
  <circle cx="15" cy="12" r="1" fill="srgba(85.3758%,75.8343%,67.9408%,1)"/>
  <circle cx="0" cy="13" r="1" fill="srgba(25,182,239,1)"/>
  <circle cx="1" cy="13" r="1" fill="srgba(25,182,239,1)"/>
  <circle cx="2" cy="13" r="1" fill="srgba(8.52674%,70.8919%,93.5348%,1)"/>
  <circle cx="3" cy="13" r="1" fill="srgba(49.7124%,81.3886%,93.109%,1)"/>
  <circle cx="4" cy="13" r="1" fill="srgba(35.5978%,77.4334%,88.8334%,1)"/>
  <circle cx="5" cy="13" r="1" fill="srgba(7.9469%,67.9149%,78.6542%,1)"/>
  <circle cx="6" cy="13" r="1" fill="srgba(63.5584%,49.0074%,27.6692%,1)"/>
  <circle cx="7" cy="13" r="1" fill="srgba(89.2988%,64.9592%,37.406%,1)"/>
  <circle cx="8" cy="13" r="1" fill="srgba(81.3336%,51.4641%,23.006%,1)"/>
  <circle cx="9" cy="13" r="1" fill="srgba(78.0377%,43.0869%,17.5341%,1)"/>
  <circle cx="10" cy="13" r="1" fill="srgba(77.5998%,42.1546%,16.6674%,1)"/>
  <circle cx="11" cy="13" r="1" fill="srgba(85.2338%,66.6957%,53.3639%,1)"/>
  <circle cx="12" cy="13" r="1" fill="srgba(99.9863%,100%,100%,1)"/>
  <circle cx="13" cy="13" r="1" fill="srgba(98.8235%,98.2223%,97.7905%,1)"/>
  <circle cx="14" cy="13" r="1" fill="srgba(91.249%,83.1922%,77.4121%,1)"/>
  <circle cx="15" cy="13" r="1" fill="srgba(84.1123%,67.7485%,55.7214%,1)"/>
  <circle cx="0" cy="14" r="1" fill="srgba(25,182,239,1)"/>
  <circle cx="1" cy="14" r="1" fill="srgba(25,182,239,1)"/>
  <circle cx="2" cy="14" r="1" fill="srgba(8.44282%,70.8446%,93.5012%,1)"/>
  <circle cx="3" cy="14" r="1" fill="srgba(51.3146%,82.0493%,93.4142%,1)"/>
  <circle cx="4" cy="14" r="1" fill="srgba(41.5305%,79.2111%,89.9123%,1)"/>
  <circle cx="5" cy="14" r="1" fill="srgba(7.68292%,67.7913%,77.2534%,1)"/>
  <circle cx="6" cy="14" r="1" fill="srgba(63.1479%,46.0472%,26.9444%,1)"/>
  <circle cx="7" cy="14" r="1" fill="srgba(88.8472%,62.9267%,36.6278%,1)"/>
  <circle cx="8" cy="14" r="1" fill="srgba(82.1897%,53.3089%,22.1439%,1)"/>
  <circle cx="9" cy="14" r="1" fill="srgba(78.1186%,43.2822%,17.4548%,1)"/>
  <circle cx="10" cy="14" r="1" fill="srgba(77.554%,42.2827%,16.9268%,1)"/>
  <circle cx="11" cy="14" r="1" fill="srgba(86.7826%,70.7713%,59.2569%,1)"/>
  <circle cx="12" cy="14" r="1" fill="white"/>
  <circle cx="13" cy="14" r="1" fill="white"/>
  <circle cx="14" cy="14" r="1" fill="srgba(99.704%,99.5621%,99.4553%,1)"/>
  <circle cx="15" cy="14" r="1" fill="srgba(95.1095%,90.5577%,87.2953%,1)"/>
  <circle cx="0" cy="15" r="1" fill="srgba(25,182,239,1)"/>
  <circle cx="1" cy="15" r="1" fill="srgba(25,182,239,1)"/>
  <circle cx="2" cy="15" r="1" fill="srgba(8.4062%,70.8263%,93.489%,1)"/>
  <circle cx="3" cy="15" r="1" fill="srgba(52.0012%,82.3789%,93.5943%,1)"/>
  <circle cx="4" cy="15" r="1" fill="srgba(45.6901%,80.5051%,90.6035%,1)"/>
  <circle cx="5" cy="15" r="1" fill="srgba(8.13916%,68.1361%,81.5671%,1)"/>
  <circle cx="6" cy="15" r="1" fill="srgba(62.8733%,43.4485%,28.2383%,1)"/>
  <circle cx="7" cy="15" r="1" fill="srgba(88.2902%,60.972%,35.8541%,1)"/>
  <circle cx="8" cy="15" r="1" fill="srgba(83.0426%,55.0896%,21.3733%,1)"/>
  <circle cx="9" cy="15" r="1" fill="srgba(78.2361%,43.5279%,17.3434%,1)"/>
  <circle cx="10" cy="15" r="1" fill="srgba(77.5463%,42.4582%,17.2457%,1)"/>
  <circle cx="11" cy="15" r="1" fill="srgba(87.8859%,73.5286%,63.1968%,1)"/>
  <circle cx="12" cy="15" r="1" fill="white"/>
  <circle cx="13" cy="15" r="1" fill="white"/>
  <circle cx="14" cy="15" r="1" fill="white"/>
  <circle cx="15" cy="15" r="1" fill="white"/>
</svg>
