<?xml version="1.0" standalone="no"?>
<!DOCTYPE svg PUBLIC "-//W3C//DTD SVG 20010904//EN"
  "http://www.w3.org/TR/2001/REC-SVG-20010904/DTD/svg10.dtd">
<svg width="16" height="16">
  <circle cx="0" cy="0" r="1" fill="srgba(11,114,38,1)"/>
  <circle cx="1" cy="0" r="1" fill="srgba(11,114,38,1)"/>
  <circle cx="2" cy="0" r="1" fill="srgba(11,114,38,1)"/>
  <circle cx="3" cy="0" r="1" fill="srgba(4.26642%,44.6784%,14.9035%,1)"/>
  <circle cx="4" cy="0" r="1" fill="srgba(4.86152%,45.0217%,14.9401%,1)"/>
  <circle cx="5" cy="0" r="1" fill="srgba(66.6148%,80.7019%,5.77401%,1)"/>
  <circle cx="6" cy="0" r="1" fill="yellow"/>
  <circle cx="7" cy="0" r="1" fill="yellow"/>
  <circle cx="8" cy="0" r="1" fill="yellow"/>
  <circle cx="9" cy="0" r="1" fill="yellow"/>
  <circle cx="10" cy="0" r="1" fill="srgba(90.6752%,64.5045%,0.573739%,1)"/>
  <circle cx="11" cy="0" r="1" fill="srgba(73.8415%,0.442512%,0.123598%,1)"/>
  <circle cx="12" cy="0" r="1" fill="srgba(73.7133%,0%,0%,1)"/>
  <circle cx="13" cy="0" r="1" fill="srgba(188,0,0,1)"/>
  <circle cx="14" cy="0" r="1" fill="srgba(188,0,0,1)"/>
  <circle cx="15" cy="0" r="1" fill="srgba(73.7255%,0.00762951%,0.00762951%,1)"/>
  <circle cx="0" cy="1" r="1" fill="srgba(11,114,38,1)"/>
  <circle cx="1" cy="1" r="1" fill="srgba(11,114,38,1)"/>
  <circle cx="2" cy="1" r="1" fill="srgba(11,114,38,1)"/>
  <circle cx="3" cy="1" r="1" fill="srgba(4.26642%,44.6784%,14.9035%,1)"/>
  <circle cx="4" cy="1" r="1" fill="srgba(4.86152%,45.0217%,14.9401%,1)"/>
  <circle cx="5" cy="1" r="1" fill="srgba(66.6148%,80.7019%,5.77401%,1)"/>
  <circle cx="6" cy="1" r="1" fill="yellow"/>
  <circle cx="7" cy="1" r="1" fill="yellow"/>
  <circle cx="8" cy="1" r="1" fill="yellow"/>
  <circle cx="9" cy="1" r="1" fill="yellow"/>
  <circle cx="10" cy="1" r="1" fill="srgba(90.6752%,64.5045%,0.573739%,1)"/>
  <circle cx="11" cy="1" r="1" fill="srgba(73.8415%,0.442512%,0.123598%,1)"/>
  <circle cx="12" cy="1" r="1" fill="srgba(73.7133%,0%,0%,1)"/>
  <circle cx="13" cy="1" r="1" fill="srgba(188,0,0,1)"/>
  <circle cx="14" cy="1" r="1" fill="srgba(188,0,0,1)"/>
  <circle cx="15" cy="1" r="1" fill="srgba(73.7255%,0.00762951%,0.00762951%,1)"/>
  <circle cx="0" cy="2" r="1" fill="srgba(11,114,38,1)"/>
  <circle cx="1" cy="2" r="1" fill="srgba(11,114,38,1)"/>
  <circle cx="2" cy="2" r="1" fill="srgba(11,114,38,1)"/>
  <circle cx="3" cy="2" r="1" fill="srgba(4.26642%,44.6784%,14.9035%,1)"/>
  <circle cx="4" cy="2" r="1" fill="srgba(4.86152%,45.0217%,14.9401%,1)"/>
  <circle cx="5" cy="2" r="1" fill="srgba(66.6148%,80.7019%,5.77401%,1)"/>
  <circle cx="6" cy="2" r="1" fill="yellow"/>
  <circle cx="7" cy="2" r="1" fill="yellow"/>
  <circle cx="8" cy="2" r="1" fill="yellow"/>
  <circle cx="9" cy="2" r="1" fill="yellow"/>
  <circle cx="10" cy="2" r="1" fill="srgba(90.6752%,64.5045%,0.573739%,1)"/>
  <circle cx="11" cy="2" r="1" fill="srgba(73.8415%,0.442512%,0.123598%,1)"/>
  <circle cx="12" cy="2" r="1" fill="srgba(73.7133%,0%,0%,1)"/>
  <circle cx="13" cy="2" r="1" fill="srgba(188,0,0,1)"/>
  <circle cx="14" cy="2" r="1" fill="srgba(188,0,0,1)"/>
  <circle cx="15" cy="2" r="1" fill="srgba(73.7255%,0.00762951%,0.00762951%,1)"/>
  <circle cx="0" cy="3" r="1" fill="srgba(11,114,38,1)"/>
  <circle cx="1" cy="3" r="1" fill="srgba(11,114,38,1)"/>
  <circle cx="2" cy="3" r="1" fill="srgba(11,114,38,1)"/>
  <circle cx="3" cy="3" r="1" fill="srgba(4.26642%,44.6784%,14.9035%,1)"/>
  <circle cx="4" cy="3" r="1" fill="srgba(4.86152%,45.0217%,14.9401%,1)"/>
  <circle cx="5" cy="3" r="1" fill="srgba(66.6148%,80.7019%,5.77401%,1)"/>
  <circle cx="6" cy="3" r="1" fill="yellow"/>
  <circle cx="7" cy="3" r="1" fill="yellow"/>
  <circle cx="8" cy="3" r="1" fill="yellow"/>
  <circle cx="9" cy="3" r="1" fill="yellow"/>
  <circle cx="10" cy="3" r="1" fill="srgba(90.6752%,64.5045%,0.573739%,1)"/>
  <circle cx="11" cy="3" r="1" fill="srgba(73.8415%,0.442512%,0.123598%,1)"/>
  <circle cx="12" cy="3" r="1" fill="srgba(73.7133%,0%,0%,1)"/>
  <circle cx="13" cy="3" r="1" fill="srgba(188,0,0,1)"/>
  <circle cx="14" cy="3" r="1" fill="srgba(188,0,0,1)"/>
  <circle cx="15" cy="3" r="1" fill="srgba(73.7255%,0.00762951%,0.00762951%,1)"/>
  <circle cx="0" cy="4" r="1" fill="srgba(11,114,38,1)"/>
  <circle cx="1" cy="4" r="1" fill="srgba(11,114,38,1)"/>
  <circle cx="2" cy="4" r="1" fill="srgba(11,114,38,1)"/>
  <circle cx="3" cy="4" r="1" fill="srgba(4.26642%,44.6784%,14.9035%,1)"/>
  <circle cx="4" cy="4" r="1" fill="srgba(4.86152%,45.0217%,14.9401%,1)"/>
  <circle cx="5" cy="4" r="1" fill="srgba(66.6148%,80.7019%,5.77401%,1)"/>
  <circle cx="6" cy="4" r="1" fill="yellow"/>
  <circle cx="7" cy="4" r="1" fill="srgba(99.1577%,99.5132%,0.131228%,1)"/>
  <circle cx="8" cy="4" r="1" fill="srgba(99.0097%,99.4278%,0.154116%,1)"/>
  <circle cx="9" cy="4" r="1" fill="yellow"/>
  <circle cx="10" cy="4" r="1" fill="srgba(90.6752%,64.5045%,0.573739%,1)"/>
  <circle cx="11" cy="4" r="1" fill="srgba(73.8415%,0.442512%,0.123598%,1)"/>
  <circle cx="12" cy="4" r="1" fill="srgba(73.7133%,0%,0%,1)"/>
  <circle cx="13" cy="4" r="1" fill="srgba(188,0,0,1)"/>
  <circle cx="14" cy="4" r="1" fill="srgba(188,0,0,1)"/>
  <circle cx="15" cy="4" r="1" fill="srgba(73.7255%,0.00762951%,0.00762951%,1)"/>
  <circle cx="0" cy="5" r="1" fill="srgba(11,114,38,1)"/>
  <circle cx="1" cy="5" r="1" fill="srgba(11,114,38,1)"/>
  <circle cx="2" cy="5" r="1" fill="srgba(11,114,38,1)"/>
  <circle cx="3" cy="5" r="1" fill="srgba(4.26642%,44.6784%,14.9035%,1)"/>
  <circle cx="4" cy="5" r="1" fill="srgba(4.86152%,45.0217%,14.9401%,1)"/>
  <circle cx="5" cy="5" r="1" fill="srgba(66.6163%,80.7019%,5.77554%,1)"/>
  <circle cx="6" cy="5" r="1" fill="yellow"/>
  <circle cx="7" cy="5" r="1" fill="srgba(82.8992%,90.1183%,2.66423%,1)"/>
  <circle cx="8" cy="5" r="1" fill="srgba(80.6317%,88.8075%,3.01671%,1)"/>
  <circle cx="9" cy="5" r="1" fill="yellow"/>
  <circle cx="10" cy="5" r="1" fill="srgba(90.6905%,64.5045%,0.573739%,1)"/>
  <circle cx="11" cy="5" r="1" fill="srgba(73.8506%,0.442512%,0.123598%,1)"/>
  <circle cx="12" cy="5" r="1" fill="srgba(73.7133%,0%,0%,1)"/>
  <circle cx="13" cy="5" r="1" fill="srgba(188,0,0,1)"/>
  <circle cx="14" cy="5" r="1" fill="srgba(188,0,0,1)"/>
  <circle cx="15" cy="5" r="1" fill="srgba(73.7255%,0.00762951%,0.00762951%,1)"/>
  <circle cx="0" cy="6" r="1" fill="srgba(11,114,38,1)"/>
  <circle cx="1" cy="6" r="1" fill="srgba(11,114,38,1)"/>
  <circle cx="2" cy="6" r="1" fill="srgba(11,114,38,1)"/>
  <circle cx="3" cy="6" r="1" fill="srgba(4.26795%,44.6784%,14.9035%,1)"/>
  <circle cx="4" cy="6" r="1" fill="srgba(4.82643%,45.0004%,14.9416%,1)"/>
  <circle cx="5" cy="6" r="1" fill="srgba(65.1621%,79.8611%,5.98459%,1)"/>
  <circle cx="6" cy="6" r="1" fill="yellow"/>
  <circle cx="7" cy="6" r="1" fill="srgba(53.817%,73.312%,7.1931%,1)"/>
  <circle cx="8" cy="6" r="1" fill="srgba(50.6554%,71.4855%,7.68444%,1)"/>
  <circle cx="9" cy="6" r="1" fill="srgba(100%,100%,0.0411994%,1)"/>
  <circle cx="10" cy="6" r="1" fill="srgba(88.8777%,64.0269%,0.863661%,1)"/>
  <circle cx="11" cy="6" r="1" fill="srgba(73.5668%,0.578317%,0.177005%,1)"/>
  <circle cx="12" cy="6" r="1" fill="srgba(73.7301%,0%,0%,1)"/>
  <circle cx="13" cy="6" r="1" fill="srgba(188,0,0,1)"/>
  <circle cx="14" cy="6" r="1" fill="srgba(188,0,0,1)"/>
  <circle cx="15" cy="6" r="1" fill="srgba(73.7255%,0.00762951%,0.00762951%,1)"/>
  <circle cx="0" cy="7" r="1" fill="srgba(11,114,38,1)"/>
  <circle cx="1" cy="7" r="1" fill="srgba(11,114,38,1)"/>
  <circle cx="2" cy="7" r="1" fill="srgba(11,114,38,1)"/>
  <circle cx="3" cy="7" r="1" fill="srgba(4.27863%,44.686%,14.9035%,1)"/>
  <circle cx="4" cy="7" r="1" fill="srgba(5.1667%,45.1972%,14.8623%,1)"/>
  <circle cx="5" cy="7" r="1" fill="srgba(37.3266%,63.7751%,10.1976%,1)"/>
  <circle cx="6" cy="7" r="1" fill="srgba(37.911%,64.1154%,9.66812%,1)"/>
  <circle cx="7" cy="7" r="1" fill="srgba(15.14%,50.959%,13.2158%,1)"/>
  <circle cx="8" cy="7" r="1" fill="srgba(14.4656%,50.5715%,13.3211%,1)"/>
  <circle cx="9" cy="7" r="1" fill="srgba(35.8709%,64.2542%,10.0496%,1)"/>
  <circle cx="10" cy="7" r="1" fill="srgba(55.6405%,48.4794%,6.06241%,1)"/>
  <circle cx="11" cy="7" r="1" fill="srgba(72.5032%,1.63119%,0.389105%,1)"/>
  <circle cx="12" cy="7" r="1" fill="srgba(73.8262%,0%,0%,1)"/>
  <circle cx="13" cy="7" r="1" fill="srgba(188,0,0,1)"/>
  <circle cx="14" cy="7" r="1" fill="srgba(188,0,0,1)"/>
  <circle cx="15" cy="7" r="1" fill="srgba(73.7255%,0.00762951%,0.00762951%,1)"/>
  <circle cx="0" cy="8" r="1" fill="srgba(11,114,38,1)"/>
  <circle cx="1" cy="8" r="1" fill="srgba(11,114,38,1)"/>
  <circle cx="2" cy="8" r="1" fill="srgba(11,114,38,1)"/>
  <circle cx="3" cy="8" r="1" fill="srgba(4.26642%,44.6784%,14.9035%,1)"/>
  <circle cx="4" cy="8" r="1" fill="srgba(5.14382%,45.185%,14.8959%,1)"/>
  <circle cx="5" cy="8" r="1" fill="srgba(60.7843%,77.3327%,6.67735%,1)"/>
  <circle cx="6" cy="8" r="1" fill="srgba(48.5832%,70.2876%,8.00336%,1)"/>
  <circle cx="7" cy="8" r="1" fill="srgba(3.45922%,44.213%,15.0347%,1)"/>
  <circle cx="8" cy="8" r="1" fill="srgba(2.59861%,43.714%,15.169%,1)"/>
  <circle cx="9" cy="8" r="1" fill="srgba(41.796%,67.8386%,9.12947%,1)"/>
  <circle cx="10" cy="8" r="1" fill="srgba(82.9236%,60.1511%,1.77768%,1)"/>
  <circle cx="11" cy="8" r="1" fill="srgba(74.1375%,0.653086%,0.077821%,1)"/>
  <circle cx="12" cy="8" r="1" fill="srgba(73.7163%,0%,0%,1)"/>
  <circle cx="13" cy="8" r="1" fill="srgba(188,0,0,1)"/>
  <circle cx="14" cy="8" r="1" fill="srgba(188,0,0,1)"/>
  <circle cx="15" cy="8" r="1" fill="srgba(73.7255%,0.00762951%,0.00762951%,1)"/>
  <circle cx="0" cy="9" r="1" fill="srgba(11,114,38,1)"/>
  <circle cx="1" cy="9" r="1" fill="srgba(11,114,38,1)"/>
  <circle cx="2" cy="9" r="1" fill="srgba(11,114,38,1)"/>
  <circle cx="3" cy="9" r="1" fill="srgba(4.26642%,44.6784%,14.9035%,1)"/>
  <circle cx="4" cy="9" r="1" fill="srgba(4.86305%,45.0217%,14.9401%,1)"/>
  <circle cx="5" cy="9" r="1" fill="srgba(68.0369%,81.5229%,5.55276%,1)"/>
  <circle cx="6" cy="9" r="1" fill="srgba(62.6032%,78.3902%,5.81827%,1)"/>
  <circle cx="7" cy="9" r="1" fill="srgba(18.7243%,53.0343%,12.6574%,1)"/>
  <circle cx="8" cy="9" r="1" fill="srgba(19.1989%,53.3074%,12.5841%,1)"/>
  <circle cx="9" cy="9" r="1" fill="srgba(55.0896%,75.523%,7.05882%,1)"/>
  <circle cx="10" cy="9" r="1" fill="srgba(91.8425%,65.1789%,0.392157%,1)"/>
  <circle cx="11" cy="9" r="1" fill="srgba(73.8476%,0.445563%,0.122072%,1)"/>
  <circle cx="12" cy="9" r="1" fill="srgba(73.7133%,0%,0%,1)"/>
  <circle cx="13" cy="9" r="1" fill="srgba(188,0,0,1)"/>
  <circle cx="14" cy="9" r="1" fill="srgba(188,0,0,1)"/>
  <circle cx="15" cy="9" r="1" fill="srgba(73.7255%,0.00762951%,0.00762951%,1)"/>
  <circle cx="0" cy="10" r="1" fill="srgba(11,114,38,1)"/>
  <circle cx="1" cy="10" r="1" fill="srgba(11,114,38,1)"/>
  <circle cx="2" cy="10" r="1" fill="srgba(11,114,38,1)"/>
  <circle cx="3" cy="10" r="1" fill="srgba(4.26642%,44.6784%,14.9035%,1)"/>
  <circle cx="4" cy="10" r="1" fill="srgba(4.91646%,45.0538%,14.9325%,1)"/>
  <circle cx="5" cy="10" r="1" fill="srgba(65.5055%,80.061%,5.94797%,1)"/>
  <circle cx="6" cy="10" r="1" fill="srgba(67.9606%,81.4862%,4.98512%,1)"/>
  <circle cx="7" cy="10" r="1" fill="srgba(83.3661%,90.3883%,2.59098%,1)"/>
  <circle cx="8" cy="10" r="1" fill="srgba(85.0965%,91.3878%,2.3209%,1)"/>
  <circle cx="9" cy="10" r="1" fill="srgba(63.0014%,80.0961%,5.82742%,1)"/>
  <circle cx="10" cy="10" r="1" fill="srgba(88.2506%,63.1037%,0.950637%,1)"/>
  <circle cx="11" cy="10" r="1" fill="srgba(73.9651%,0.514229%,0.103761%,1)"/>
  <circle cx="12" cy="10" r="1" fill="srgba(73.7133%,0%,0%,1)"/>
  <circle cx="13" cy="10" r="1" fill="srgba(188,0,0,1)"/>
  <circle cx="14" cy="10" r="1" fill="srgba(188,0,0,1)"/>
  <circle cx="15" cy="10" r="1" fill="srgba(73.7255%,0.00762951%,0.00762951%,1)"/>
  <circle cx="0" cy="11" r="1" fill="srgba(11,114,38,1)"/>
  <circle cx="1" cy="11" r="1" fill="srgba(11,114,38,1)"/>
  <circle cx="2" cy="11" r="1" fill="srgba(11,114,38,1)"/>
  <circle cx="3" cy="11" r="1" fill="srgba(4.26642%,44.6784%,14.9035%,1)"/>
  <circle cx="4" cy="11" r="1" fill="srgba(4.87831%,45.0309%,14.9386%,1)"/>
  <circle cx="5" cy="11" r="1" fill="srgba(66.2638%,80.499%,5.82895%,1)"/>
  <circle cx="6" cy="11" r="1" fill="yellow"/>
  <circle cx="7" cy="11" r="1" fill="yellow"/>
  <circle cx="8" cy="11" r="1" fill="yellow"/>
  <circle cx="9" cy="11" r="1" fill="srgba(98.3673%,100%,0.320439%,1)"/>
  <circle cx="10" cy="11" r="1" fill="srgba(90.016%,64.123%,0.675975%,1)"/>
  <circle cx="11" cy="11" r="1" fill="srgba(73.8796%,0.463874%,0.117494%,1)"/>
  <circle cx="12" cy="11" r="1" fill="srgba(73.7133%,0%,0%,1)"/>
  <circle cx="13" cy="11" r="1" fill="srgba(188,0,0,1)"/>
  <circle cx="14" cy="11" r="1" fill="srgba(188,0,0,1)"/>
  <circle cx="15" cy="11" r="1" fill="srgba(73.7255%,0.00762951%,0.00762951%,1)"/>
  <circle cx="0" cy="12" r="1" fill="srgba(11,114,38,1)"/>
  <circle cx="1" cy="12" r="1" fill="srgba(11,114,38,1)"/>
  <circle cx="2" cy="12" r="1" fill="srgba(11,114,38,1)"/>
  <circle cx="3" cy="12" r="1" fill="srgba(4.26642%,44.6784%,14.9035%,1)"/>
  <circle cx="4" cy="12" r="1" fill="srgba(4.86152%,45.0217%,14.9401%,1)"/>
  <circle cx="5" cy="12" r="1" fill="srgba(66.6148%,80.7019%,5.77401%,1)"/>
  <circle cx="6" cy="12" r="1" fill="yellow"/>
  <circle cx="7" cy="12" r="1" fill="yellow"/>
  <circle cx="8" cy="12" r="1" fill="yellow"/>
  <circle cx="9" cy="12" r="1" fill="yellow"/>
  <circle cx="10" cy="12" r="1" fill="srgba(90.6752%,64.5045%,0.573739%,1)"/>
  <circle cx="11" cy="12" r="1" fill="srgba(73.8415%,0.442512%,0.123598%,1)"/>
  <circle cx="12" cy="12" r="1" fill="srgba(73.7133%,0%,0%,1)"/>
  <circle cx="13" cy="12" r="1" fill="srgba(188,0,0,1)"/>
  <circle cx="14" cy="12" r="1" fill="srgba(188,0,0,1)"/>
  <circle cx="15" cy="12" r="1" fill="srgba(73.7255%,0.00762951%,0.00762951%,1)"/>
  <circle cx="0" cy="13" r="1" fill="srgba(11,114,38,1)"/>
  <circle cx="1" cy="13" r="1" fill="srgba(11,114,38,1)"/>
  <circle cx="2" cy="13" r="1" fill="srgba(11,114,38,1)"/>
  <circle cx="3" cy="13" r="1" fill="srgba(4.26642%,44.6784%,14.9035%,1)"/>
  <circle cx="4" cy="13" r="1" fill="srgba(4.86152%,45.0217%,14.9401%,1)"/>
  <circle cx="5" cy="13" r="1" fill="srgba(66.6148%,80.7019%,5.77401%,1)"/>
  <circle cx="6" cy="13" r="1" fill="yellow"/>
  <circle cx="7" cy="13" r="1" fill="yellow"/>
  <circle cx="8" cy="13" r="1" fill="yellow"/>
  <circle cx="9" cy="13" r="1" fill="yellow"/>
  <circle cx="10" cy="13" r="1" fill="srgba(90.6752%,64.5045%,0.573739%,1)"/>
  <circle cx="11" cy="13" r="1" fill="srgba(73.8415%,0.442512%,0.123598%,1)"/>
  <circle cx="12" cy="13" r="1" fill="srgba(73.7133%,0%,0%,1)"/>
  <circle cx="13" cy="13" r="1" fill="srgba(188,0,0,1)"/>
  <circle cx="14" cy="13" r="1" fill="srgba(188,0,0,1)"/>
  <circle cx="15" cy="13" r="1" fill="srgba(73.7255%,0.00762951%,0.00762951%,1)"/>
  <circle cx="0" cy="14" r="1" fill="srgba(11,114,38,1)"/>
  <circle cx="1" cy="14" r="1" fill="srgba(11,114,38,1)"/>
  <circle cx="2" cy="14" r="1" fill="srgba(11,114,38,1)"/>
  <circle cx="3" cy="14" r="1" fill="srgba(4.26642%,44.6784%,14.9035%,1)"/>
  <circle cx="4" cy="14" r="1" fill="srgba(4.86152%,45.0217%,14.9401%,1)"/>
  <circle cx="5" cy="14" r="1" fill="srgba(66.6148%,80.7019%,5.77401%,1)"/>
  <circle cx="6" cy="14" r="1" fill="yellow"/>
  <circle cx="7" cy="14" r="1" fill="yellow"/>
  <circle cx="8" cy="14" r="1" fill="yellow"/>
  <circle cx="9" cy="14" r="1" fill="yellow"/>
  <circle cx="10" cy="14" r="1" fill="srgba(90.6752%,64.5045%,0.573739%,1)"/>
  <circle cx="11" cy="14" r="1" fill="srgba(73.8415%,0.442512%,0.123598%,1)"/>
  <circle cx="12" cy="14" r="1" fill="srgba(73.7133%,0%,0%,1)"/>
  <circle cx="13" cy="14" r="1" fill="srgba(188,0,0,1)"/>
  <circle cx="14" cy="14" r="1" fill="srgba(188,0,0,1)"/>
  <circle cx="15" cy="14" r="1" fill="srgba(73.7255%,0.00762951%,0.00762951%,1)"/>
  <circle cx="0" cy="15" r="1" fill="srgba(11,114,38,1)"/>
  <circle cx="1" cy="15" r="1" fill="srgba(11,114,38,1)"/>
  <circle cx="2" cy="15" r="1" fill="srgba(11,114,38,1)"/>
  <circle cx="3" cy="15" r="1" fill="srgba(4.26642%,44.6784%,14.9035%,1)"/>
  <circle cx="4" cy="15" r="1" fill="srgba(4.86152%,45.0217%,14.9401%,1)"/>
  <circle cx="5" cy="15" r="1" fill="srgba(66.6148%,80.7019%,5.77401%,1)"/>
  <circle cx="6" cy="15" r="1" fill="yellow"/>
  <circle cx="7" cy="15" r="1" fill="yellow"/>
  <circle cx="8" cy="15" r="1" fill="yellow"/>
  <circle cx="9" cy="15" r="1" fill="yellow"/>
  <circle cx="10" cy="15" r="1" fill="srgba(90.6752%,64.5045%,0.573739%,1)"/>
  <circle cx="11" cy="15" r="1" fill="srgba(73.8415%,0.442512%,0.123598%,1)"/>
  <circle cx="12" cy="15" r="1" fill="srgba(73.7133%,0%,0%,1)"/>
  <circle cx="13" cy="15" r="1" fill="srgba(188,0,0,1)"/>
  <circle cx="14" cy="15" r="1" fill="srgba(188,0,0,1)"/>
  <circle cx="15" cy="15" r="1" fill="srgba(73.7255%,0.00762951%,0.00762951%,1)"/>
</svg>
