<?xml version="1.0" standalone="no"?>
<!DOCTYPE svg PUBLIC "-//W3C//DTD SVG 20010904//EN"
  "http://www.w3.org/TR/2001/REC-SVG-20010904/DTD/svg10.dtd">
<svg width="16" height="16">
  <circle cx="0" cy="0" r="1" fill="srgba(64,166,255,1)"/>
  <circle cx="1" cy="0" r="1" fill="srgba(64,166,255,1)"/>
  <circle cx="2" cy="0" r="1" fill="srgba(64,166,255,1)"/>
  <circle cx="3" cy="0" r="1" fill="srgba(64,166,255,1)"/>
  <circle cx="4" cy="0" r="1" fill="srgba(64,166,255,1)"/>
  <circle cx="5" cy="0" r="1" fill="srgba(64,166,255,1)"/>
  <circle cx="6" cy="0" r="1" fill="srgba(64,166,255,1)"/>
  <circle cx="7" cy="0" r="1" fill="srgba(64,166,255,1)"/>
  <circle cx="8" cy="0" r="1" fill="srgba(64,166,255,1)"/>
  <circle cx="9" cy="0" r="1" fill="srgba(64,166,255,1)"/>
  <circle cx="10" cy="0" r="1" fill="srgba(64,166,255,1)"/>
  <circle cx="11" cy="0" r="1" fill="srgba(64,166,255,1)"/>
  <circle cx="12" cy="0" r="1" fill="srgba(64,166,255,1)"/>
  <circle cx="13" cy="0" r="1" fill="srgba(64,166,255,1)"/>
  <circle cx="14" cy="0" r="1" fill="srgba(64,166,255,1)"/>
  <circle cx="15" cy="0" r="1" fill="srgba(64,166,255,1)"/>
  <circle cx="0" cy="1" r="1" fill="srgba(64,166,255,1)"/>
  <circle cx="1" cy="1" r="1" fill="srgba(64,166,255,1)"/>
  <circle cx="2" cy="1" r="1" fill="srgba(64,166,255,1)"/>
  <circle cx="3" cy="1" r="1" fill="srgba(64,166,255,1)"/>
  <circle cx="4" cy="1" r="1" fill="srgba(64,166,255,1)"/>
  <circle cx="5" cy="1" r="1" fill="srgba(64,166,255,1)"/>
  <circle cx="6" cy="1" r="1" fill="srgba(64,166,255,1)"/>
  <circle cx="7" cy="1" r="1" fill="srgba(64,166,255,1)"/>
  <circle cx="8" cy="1" r="1" fill="srgba(64,166,255,1)"/>
  <circle cx="9" cy="1" r="1" fill="srgba(64,166,255,1)"/>
  <circle cx="10" cy="1" r="1" fill="srgba(64,166,255,1)"/>
  <circle cx="11" cy="1" r="1" fill="srgba(64,166,255,1)"/>
  <circle cx="12" cy="1" r="1" fill="srgba(64,166,255,1)"/>
  <circle cx="13" cy="1" r="1" fill="srgba(64,166,255,1)"/>
  <circle cx="14" cy="1" r="1" fill="srgba(64,166,255,1)"/>
  <circle cx="15" cy="1" r="1" fill="srgba(64,166,255,1)"/>
  <circle cx="0" cy="2" r="1" fill="srgba(64,166,255,1)"/>
  <circle cx="1" cy="2" r="1" fill="srgba(64,166,255,1)"/>
  <circle cx="2" cy="2" r="1" fill="srgba(64,166,255,1)"/>
  <circle cx="3" cy="2" r="1" fill="srgba(64,166,255,1)"/>
  <circle cx="4" cy="2" r="1" fill="srgba(64,166,255,1)"/>
  <circle cx="5" cy="2" r="1" fill="srgba(64,166,255,1)"/>
  <circle cx="6" cy="2" r="1" fill="srgba(64,166,255,1)"/>
  <circle cx="7" cy="2" r="1" fill="srgba(64,166,255,1)"/>
  <circle cx="8" cy="2" r="1" fill="srgba(64,166,255,1)"/>
  <circle cx="9" cy="2" r="1" fill="srgba(64,166,255,1)"/>
  <circle cx="10" cy="2" r="1" fill="srgba(64,166,255,1)"/>
  <circle cx="11" cy="2" r="1" fill="srgba(64,166,255,1)"/>
  <circle cx="12" cy="2" r="1" fill="srgba(64,166,255,1)"/>
  <circle cx="13" cy="2" r="1" fill="srgba(64,166,255,1)"/>
  <circle cx="14" cy="2" r="1" fill="srgba(64,166,255,1)"/>
  <circle cx="15" cy="2" r="1" fill="srgba(64,166,255,1)"/>
  <circle cx="0" cy="3" r="1" fill="srgba(64,166,255,1)"/>
  <circle cx="1" cy="3" r="1" fill="srgba(64,166,255,1)"/>
  <circle cx="2" cy="3" r="1" fill="srgba(64,166,255,1)"/>
  <circle cx="3" cy="3" r="1" fill="srgba(64,166,255,1)"/>
  <circle cx="4" cy="3" r="1" fill="srgba(64,166,255,1)"/>
  <circle cx="5" cy="3" r="1" fill="srgba(64,166,255,1)"/>
  <circle cx="6" cy="3" r="1" fill="srgba(25.1057%,65.1011%,100%,1)"/>
  <circle cx="7" cy="3" r="1" fill="srgba(24.9485%,65.0278%,100%,1)"/>
  <circle cx="8" cy="3" r="1" fill="srgba(24.9912%,65.0492%,100%,1)"/>
  <circle cx="9" cy="3" r="1" fill="srgba(25.1057%,65.1011%,100%,1)"/>
  <circle cx="10" cy="3" r="1" fill="srgba(64,166,255,1)"/>
  <circle cx="11" cy="3" r="1" fill="srgba(64,166,255,1)"/>
  <circle cx="12" cy="3" r="1" fill="srgba(64,166,255,1)"/>
  <circle cx="13" cy="3" r="1" fill="srgba(64,166,255,1)"/>
  <circle cx="14" cy="3" r="1" fill="srgba(64,166,255,1)"/>
  <circle cx="15" cy="3" r="1" fill="srgba(64,166,255,1)"/>
  <circle cx="0" cy="4" r="1" fill="srgba(64,166,255,1)"/>
  <circle cx="1" cy="4" r="1" fill="srgba(64,166,255,1)"/>
  <circle cx="2" cy="4" r="1" fill="srgba(64,166,255,1)"/>
  <circle cx="3" cy="4" r="1" fill="srgba(64,166,255,1)"/>
  <circle cx="4" cy="4" r="1" fill="srgba(64,166,255,1)"/>
  <circle cx="5" cy="4" r="1" fill="srgba(64,166,255,1)"/>
  <circle cx="6" cy="4" r="1" fill="srgba(24.9592%,65.034%,100%,1)"/>
  <circle cx="7" cy="4" r="1" fill="srgba(27.2389%,66.096%,100%,1)"/>
  <circle cx="8" cy="4" r="1" fill="srgba(26.5873%,65.7923%,100%,1)"/>
  <circle cx="9" cy="4" r="1" fill="srgba(24.9897%,65.0477%,100%,1)"/>
  <circle cx="10" cy="4" r="1" fill="srgba(64,166,255,1)"/>
  <circle cx="11" cy="4" r="1" fill="srgba(64,166,255,1)"/>
  <circle cx="12" cy="4" r="1" fill="srgba(64,166,255,1)"/>
  <circle cx="13" cy="4" r="1" fill="srgba(64,166,255,1)"/>
  <circle cx="14" cy="4" r="1" fill="srgba(64,166,255,1)"/>
  <circle cx="15" cy="4" r="1" fill="srgba(64,166,255,1)"/>
  <circle cx="0" cy="5" r="1" fill="srgba(64,166,255,1)"/>
  <circle cx="1" cy="5" r="1" fill="srgba(64,166,255,1)"/>
  <circle cx="2" cy="5" r="1" fill="srgba(64,166,255,1)"/>
  <circle cx="3" cy="5" r="1" fill="srgba(64,166,255,1)"/>
  <circle cx="4" cy="5" r="1" fill="srgba(64,166,255,1)"/>
  <circle cx="5" cy="5" r="1" fill="srgba(25.1026%,65.0996%,100%,1)"/>
  <circle cx="6" cy="5" r="1" fill="srgba(24.1733%,64.6677%,100%,1)"/>
  <circle cx="7" cy="5" r="1" fill="srgba(49.8375%,76.6262%,100%,1)"/>
  <circle cx="8" cy="5" r="1" fill="srgba(43.476%,73.6614%,100%,1)"/>
  <circle cx="9" cy="5" r="1" fill="srgba(24.1108%,64.6387%,100%,1)"/>
  <circle cx="10" cy="5" r="1" fill="srgba(25.0996%,65.0996%,100%,1)"/>
  <circle cx="11" cy="5" r="1" fill="srgba(64,166,255,1)"/>
  <circle cx="12" cy="5" r="1" fill="srgba(64,166,255,1)"/>
  <circle cx="13" cy="5" r="1" fill="srgba(64,166,255,1)"/>
  <circle cx="14" cy="5" r="1" fill="srgba(64,166,255,1)"/>
  <circle cx="15" cy="5" r="1" fill="srgba(64,166,255,1)"/>
  <circle cx="0" cy="6" r="1" fill="srgba(64,166,255,1)"/>
  <circle cx="1" cy="6" r="1" fill="srgba(64,166,255,1)"/>
  <circle cx="2" cy="6" r="1" fill="srgba(25.095%,65.0965%,100%,1)"/>
  <circle cx="3" cy="6" r="1" fill="srgba(25.1652%,65.1286%,100%,1)"/>
  <circle cx="4" cy="6" r="1" fill="srgba(24.7669%,64.9439%,100%,1)"/>
  <circle cx="5" cy="6" r="1" fill="srgba(24.0208%,64.596%,100%,1)"/>
  <circle cx="6" cy="6" r="1" fill="srgba(26.154%,65.5894%,100%,1)"/>
  <circle cx="7" cy="6" r="1" fill="srgba(76.9024%,89.2378%,100%,1)"/>
  <circle cx="8" cy="6" r="1" fill="srgba(67.6844%,84.9424%,100%,1)"/>
  <circle cx="9" cy="6" r="1" fill="srgba(23.9155%,64.5472%,100%,1)"/>
  <circle cx="10" cy="6" r="1" fill="srgba(23.7552%,64.4724%,100%,1)"/>
  <circle cx="11" cy="6" r="1" fill="srgba(24.2176%,64.6876%,100%,1)"/>
  <circle cx="12" cy="6" r="1" fill="srgba(25.0416%,65.0721%,100%,1)"/>
  <circle cx="13" cy="6" r="1" fill="srgba(25.1026%,65.0996%,100%,1)"/>
  <circle cx="14" cy="6" r="1" fill="srgba(64,166,255,1)"/>
  <circle cx="15" cy="6" r="1" fill="srgba(64,166,255,1)"/>
  <circle cx="0" cy="7" r="1" fill="srgba(64,166,255,1)"/>
  <circle cx="1" cy="7" r="1" fill="srgba(64,166,255,1)"/>
  <circle cx="2" cy="7" r="1" fill="srgba(24.9317%,65.0202%,100%,1)"/>
  <circle cx="3" cy="7" r="1" fill="srgba(27.5883%,66.2593%,100%,1)"/>
  <circle cx="4" cy="7" r="1" fill="srgba(50.8339%,77.0916%,100%,1)"/>
  <circle cx="5" cy="7" r="1" fill="srgba(64.4144%,83.415%,100%,1)"/>
  <circle cx="6" cy="7" r="1" fill="srgba(68.1178%,85.1423%,100%,1)"/>
  <circle cx="7" cy="7" r="1" fill="srgba(95.1644%,97.7478%,100%,1)"/>
  <circle cx="8" cy="7" r="1" fill="srgba(91.4946%,96.0372%,100%,1)"/>
  <circle cx="9" cy="7" r="1" fill="srgba(62.15%,82.3621%,100%,1)"/>
  <circle cx="10" cy="7" r="1" fill="srgba(54.0764%,78.6007%,100%,1)"/>
  <circle cx="11" cy="7" r="1" fill="srgba(41.6938%,72.8298%,100%,1)"/>
  <circle cx="12" cy="7" r="1" fill="srgba(26.1128%,65.5711%,100%,1)"/>
  <circle cx="13" cy="7" r="1" fill="srgba(25.0233%,65.0629%,100%,1)"/>
  <circle cx="14" cy="7" r="1" fill="srgba(64,166,255,1)"/>
  <circle cx="15" cy="7" r="1" fill="srgba(64,166,255,1)"/>
  <circle cx="0" cy="8" r="1" fill="srgba(64,166,255,1)"/>
  <circle cx="1" cy="8" r="1" fill="srgba(64,166,255,1)"/>
  <circle cx="2" cy="8" r="1" fill="srgba(25.0721%,65.0858%,100%,1)"/>
  <circle cx="3" cy="8" r="1" fill="srgba(25.1881%,65.1408%,100%,1)"/>
  <circle cx="4" cy="8" r="1" fill="srgba(36.6949%,70.5013%,100%,1)"/>
  <circle cx="5" cy="8" r="1" fill="srgba(71.7556%,86.8391%,100%,1)"/>
  <circle cx="6" cy="8" r="1" fill="srgba(97.4899%,98.8312%,100%,1)"/>
  <circle cx="7" cy="8" r="1" fill="white"/>
  <circle cx="8" cy="8" r="1" fill="white"/>
  <circle cx="9" cy="8" r="1" fill="srgba(99.7879%,99.9008%,100%,1)"/>
  <circle cx="10" cy="8" r="1" fill="srgba(83.6881%,92.3995%,100%,1)"/>
  <circle cx="11" cy="8" r="1" fill="srgba(44.8554%,74.3053%,100%,1)"/>
  <circle cx="12" cy="8" r="1" fill="srgba(25.4307%,65.2522%,100%,1)"/>
  <circle cx="13" cy="8" r="1" fill="srgba(25.0492%,65.0752%,100%,1)"/>
  <circle cx="14" cy="8" r="1" fill="srgba(64,166,255,1)"/>
  <circle cx="15" cy="8" r="1" fill="srgba(64,166,255,1)"/>
  <circle cx="0" cy="9" r="1" fill="srgba(64,166,255,1)"/>
  <circle cx="1" cy="9" r="1" fill="srgba(64,166,255,1)"/>
  <circle cx="2" cy="9" r="1" fill="srgba(25.0996%,65.098%,100%,1)"/>
  <circle cx="3" cy="9" r="1" fill="srgba(25.0965%,65.098%,100%,1)"/>
  <circle cx="4" cy="9" r="1" fill="srgba(24.1733%,64.6662%,100%,1)"/>
  <circle cx="5" cy="9" r="1" fill="srgba(30.1228%,67.4403%,100%,1)"/>
  <circle cx="6" cy="9" r="1" fill="srgba(84.4343%,92.7474%,100%,1)"/>
  <circle cx="7" cy="9" r="1" fill="white"/>
  <circle cx="8" cy="9" r="1" fill="white"/>
  <circle cx="9" cy="9" r="1" fill="srgba(80.8759%,91.0872%,100%,1)"/>
  <circle cx="10" cy="9" r="1" fill="srgba(33.0419%,68.7999%,100%,1)"/>
  <circle cx="11" cy="9" r="1" fill="srgba(24.1901%,64.6754%,100%,1)"/>
  <circle cx="12" cy="9" r="1" fill="srgba(25.0401%,65.0706%,100%,1)"/>
  <circle cx="13" cy="9" r="1" fill="srgba(25.1011%,65.0996%,100%,1)"/>
  <circle cx="14" cy="9" r="1" fill="srgba(64,166,255,1)"/>
  <circle cx="15" cy="9" r="1" fill="srgba(64,166,255,1)"/>
  <circle cx="0" cy="10" r="1" fill="srgba(64,166,255,1)"/>
  <circle cx="1" cy="10" r="1" fill="srgba(64,166,255,1)"/>
  <circle cx="2" cy="10" r="1" fill="srgba(64,166,255,1)"/>
  <circle cx="3" cy="10" r="1" fill="srgba(64,166,255,1)"/>
  <circle cx="4" cy="10" r="1" fill="srgba(24.1886%,64.6738%,100%,1)"/>
  <circle cx="5" cy="10" r="1" fill="srgba(41.3336%,72.6635%,100%,1)"/>
  <circle cx="6" cy="10" r="1" fill="srgba(89.2134%,94.9737%,100%,1)"/>
  <circle cx="7" cy="10" r="1" fill="srgba(66.1051%,84.2054%,100%,1)"/>
  <circle cx="8" cy="10" r="1" fill="srgba(69.9825%,86.0121%,100%,1)"/>
  <circle cx="9" cy="10" r="1" fill="srgba(80.8957%,91.0979%,100%,1)"/>
  <circle cx="10" cy="10" r="1" fill="srgba(30.8858%,67.7943%,100%,1)"/>
  <circle cx="11" cy="10" r="1" fill="srgba(24.7166%,64.9195%,100%,1)"/>
  <circle cx="12" cy="10" r="1" fill="srgba(64,166,255,1)"/>
  <circle cx="13" cy="10" r="1" fill="srgba(64,166,255,1)"/>
  <circle cx="14" cy="10" r="1" fill="srgba(64,166,255,1)"/>
  <circle cx="15" cy="10" r="1" fill="srgba(64,166,255,1)"/>
  <circle cx="0" cy="11" r="1" fill="srgba(64,166,255,1)"/>
  <circle cx="1" cy="11" r="1" fill="srgba(64,166,255,1)"/>
  <circle cx="2" cy="11" r="1" fill="srgba(64,166,255,1)"/>
  <circle cx="3" cy="11" r="1" fill="srgba(25.0965%,65.098%,100%,1)"/>
  <circle cx="4" cy="11" r="1" fill="srgba(24.5884%,64.86%,100%,1)"/>
  <circle cx="5" cy="11" r="1" fill="srgba(44.7318%,74.2458%,100%,1)"/>
  <circle cx="6" cy="11" r="1" fill="srgba(45.4582%,74.5861%,100%,1)"/>
  <circle cx="7" cy="11" r="1" fill="srgba(25.1957%,65.1438%,100%,1)"/>
  <circle cx="8" cy="11" r="1" fill="srgba(26.247%,65.6336%,100%,1)"/>
  <circle cx="9" cy="11" r="1" fill="srgba(46.0945%,74.8806%,100%,1)"/>
  <circle cx="10" cy="11" r="1" fill="srgba(36.1349%,70.2419%,100%,1)"/>
  <circle cx="11" cy="11" r="1" fill="srgba(24.5945%,64.8631%,100%,1)"/>
  <circle cx="12" cy="11" r="1" fill="srgba(64,166,255,1)"/>
  <circle cx="13" cy="11" r="1" fill="srgba(64,166,255,1)"/>
  <circle cx="14" cy="11" r="1" fill="srgba(64,166,255,1)"/>
  <circle cx="15" cy="11" r="1" fill="srgba(64,166,255,1)"/>
  <circle cx="0" cy="12" r="1" fill="srgba(64,166,255,1)"/>
  <circle cx="1" cy="12" r="1" fill="srgba(64,166,255,1)"/>
  <circle cx="2" cy="12" r="1" fill="srgba(64,166,255,1)"/>
  <circle cx="3" cy="12" r="1" fill="srgba(64,166,255,1)"/>
  <circle cx="4" cy="12" r="1" fill="srgba(25.1575%,65.1255%,100%,1)"/>
  <circle cx="5" cy="12" r="1" fill="srgba(25.8717%,65.4582%,100%,1)"/>
  <circle cx="6" cy="12" r="1" fill="srgba(24.419%,64.7822%,100%,1)"/>
  <circle cx="7" cy="12" r="1" fill="srgba(25.0172%,65.0599%,100%,1)"/>
  <circle cx="8" cy="12" r="1" fill="srgba(24.9531%,65.0309%,100%,1)"/>
  <circle cx="9" cy="12" r="1" fill="srgba(24.5243%,64.831%,100%,1)"/>
  <circle cx="10" cy="12" r="1" fill="srgba(26.3386%,65.6779%,100%,1)"/>
  <circle cx="11" cy="12" r="1" fill="srgba(25.1423%,65.1179%,100%,1)"/>
  <circle cx="12" cy="12" r="1" fill="srgba(64,166,255,1)"/>
  <circle cx="13" cy="12" r="1" fill="srgba(64,166,255,1)"/>
  <circle cx="14" cy="12" r="1" fill="srgba(64,166,255,1)"/>
  <circle cx="15" cy="12" r="1" fill="srgba(64,166,255,1)"/>
  <circle cx="0" cy="13" r="1" fill="srgba(64,166,255,1)"/>
  <circle cx="1" cy="13" r="1" fill="srgba(64,166,255,1)"/>
  <circle cx="2" cy="13" r="1" fill="srgba(64,166,255,1)"/>
  <circle cx="3" cy="13" r="1" fill="srgba(64,166,255,1)"/>
  <circle cx="4" cy="13" r="1" fill="srgba(25.095%,65.0965%,100%,1)"/>
  <circle cx="5" cy="13" r="1" fill="srgba(25.0477%,65.0752%,100%,1)"/>
  <circle cx="6" cy="13" r="1" fill="srgba(25.0919%,65.095%,100%,1)"/>
  <circle cx="7" cy="13" r="1" fill="srgba(64,166,255,1)"/>
  <circle cx="8" cy="13" r="1" fill="srgba(64,166,255,1)"/>
  <circle cx="9" cy="13" r="1" fill="srgba(25.0874%,65.0935%,100%,1)"/>
  <circle cx="10" cy="13" r="1" fill="srgba(25.0233%,65.0629%,100%,1)"/>
  <circle cx="11" cy="13" r="1" fill="srgba(25.095%,65.0965%,100%,1)"/>
  <circle cx="12" cy="13" r="1" fill="srgba(64,166,255,1)"/>
  <circle cx="13" cy="13" r="1" fill="srgba(64,166,255,1)"/>
  <circle cx="14" cy="13" r="1" fill="srgba(64,166,255,1)"/>
  <circle cx="15" cy="13" r="1" fill="srgba(64,166,255,1)"/>
  <circle cx="0" cy="14" r="1" fill="srgba(64,166,255,1)"/>
  <circle cx="1" cy="14" r="1" fill="srgba(64,166,255,1)"/>
  <circle cx="2" cy="14" r="1" fill="srgba(64,166,255,1)"/>
  <circle cx="3" cy="14" r="1" fill="srgba(64,166,255,1)"/>
  <circle cx="4" cy="14" r="1" fill="srgba(64,166,255,1)"/>
  <circle cx="5" cy="14" r="1" fill="srgba(64,166,255,1)"/>
  <circle cx="6" cy="14" r="1" fill="srgba(64,166,255,1)"/>
  <circle cx="7" cy="14" r="1" fill="srgba(64,166,255,1)"/>
  <circle cx="8" cy="14" r="1" fill="srgba(64,166,255,1)"/>
  <circle cx="9" cy="14" r="1" fill="srgba(64,166,255,1)"/>
  <circle cx="10" cy="14" r="1" fill="srgba(64,166,255,1)"/>
  <circle cx="11" cy="14" r="1" fill="srgba(64,166,255,1)"/>
  <circle cx="12" cy="14" r="1" fill="srgba(64,166,255,1)"/>
  <circle cx="13" cy="14" r="1" fill="srgba(64,166,255,1)"/>
  <circle cx="14" cy="14" r="1" fill="srgba(64,166,255,1)"/>
  <circle cx="15" cy="14" r="1" fill="srgba(64,166,255,1)"/>
  <circle cx="0" cy="15" r="1" fill="srgba(64,166,255,1)"/>
  <circle cx="1" cy="15" r="1" fill="srgba(64,166,255,1)"/>
  <circle cx="2" cy="15" r="1" fill="srgba(64,166,255,1)"/>
  <circle cx="3" cy="15" r="1" fill="srgba(64,166,255,1)"/>
  <circle cx="4" cy="15" r="1" fill="srgba(64,166,255,1)"/>
  <circle cx="5" cy="15" r="1" fill="srgba(64,166,255,1)"/>
  <circle cx="6" cy="15" r="1" fill="srgba(64,166,255,1)"/>
  <circle cx="7" cy="15" r="1" fill="srgba(64,166,255,1)"/>
  <circle cx="8" cy="15" r="1" fill="srgba(64,166,255,1)"/>
  <circle cx="9" cy="15" r="1" fill="srgba(64,166,255,1)"/>
  <circle cx="10" cy="15" r="1" fill="srgba(64,166,255,1)"/>
  <circle cx="11" cy="15" r="1" fill="srgba(64,166,255,1)"/>
  <circle cx="12" cy="15" r="1" fill="srgba(64,166,255,1)"/>
  <circle cx="13" cy="15" r="1" fill="srgba(64,166,255,1)"/>
  <circle cx="14" cy="15" r="1" fill="srgba(64,166,255,1)"/>
  <circle cx="15" cy="15" r="1" fill="srgba(64,166,255,1)"/>
</svg>
