<?xml version="1.0" standalone="no"?>
<!DOCTYPE svg PUBLIC "-//W3C//DTD SVG 20010904//EN"
  "http://www.w3.org/TR/2001/REC-SVG-20010904/DTD/svg10.dtd">
<svg width="16" height="16">
  <circle cx="0" cy="0" r="1" fill="srgba(55,126,63,1)"/>
  <circle cx="1" cy="0" r="1" fill="srgba(55,126,63,1)"/>
  <circle cx="2" cy="0" r="1" fill="srgba(55,126,63,1)"/>
  <circle cx="3" cy="0" r="1" fill="srgba(55,126,63,1)"/>
  <circle cx="4" cy="0" r="1" fill="srgba(55,126,63,1)"/>
  <circle cx="5" cy="0" r="1" fill="srgba(55,126,63,1)"/>
  <circle cx="6" cy="0" r="1" fill="srgba(55,126,63,1)"/>
  <circle cx="7" cy="0" r="1" fill="srgba(55,126,63,1)"/>
  <circle cx="8" cy="0" r="1" fill="srgba(55,126,63,1)"/>
  <circle cx="9" cy="0" r="1" fill="srgba(55,126,63,1)"/>
  <circle cx="10" cy="0" r="1" fill="srgba(55,126,63,1)"/>
  <circle cx="11" cy="0" r="1" fill="srgba(55,126,63,1)"/>
  <circle cx="12" cy="0" r="1" fill="srgba(55,126,63,1)"/>
  <circle cx="13" cy="0" r="1" fill="srgba(55,126,63,1)"/>
  <circle cx="14" cy="0" r="1" fill="srgba(55,126,63,1)"/>
  <circle cx="15" cy="0" r="1" fill="srgba(55,126,63,1)"/>
  <circle cx="0" cy="1" r="1" fill="srgba(21.3947%,49.2988%,24.538%,1)"/>
  <circle cx="1" cy="1" r="1" fill="srgba(21.3947%,49.2988%,24.538%,1)"/>
  <circle cx="2" cy="1" r="1" fill="srgba(21.3947%,49.2988%,24.538%,1)"/>
  <circle cx="3" cy="1" r="1" fill="srgba(21.3947%,49.2988%,24.538%,1)"/>
  <circle cx="4" cy="1" r="1" fill="srgba(21.3947%,49.2988%,24.538%,1)"/>
  <circle cx="5" cy="1" r="1" fill="srgba(21.3947%,49.2988%,24.538%,1)"/>
  <circle cx="6" cy="1" r="1" fill="srgba(21.3947%,49.2988%,24.538%,1)"/>
  <circle cx="7" cy="1" r="1" fill="srgba(21.3947%,49.2988%,24.538%,1)"/>
  <circle cx="8" cy="1" r="1" fill="srgba(21.3947%,49.2988%,24.538%,1)"/>
  <circle cx="9" cy="1" r="1" fill="srgba(21.3947%,49.2988%,24.538%,1)"/>
  <circle cx="10" cy="1" r="1" fill="srgba(21.3947%,49.2988%,24.538%,1)"/>
  <circle cx="11" cy="1" r="1" fill="srgba(21.3947%,49.2988%,24.538%,1)"/>
  <circle cx="12" cy="1" r="1" fill="srgba(21.3947%,49.2988%,24.538%,1)"/>
  <circle cx="13" cy="1" r="1" fill="srgba(21.3947%,49.2988%,24.538%,1)"/>
  <circle cx="14" cy="1" r="1" fill="srgba(21.3947%,49.2988%,24.538%,1)"/>
  <circle cx="15" cy="1" r="1" fill="srgba(21.3947%,49.2988%,24.538%,1)"/>
  <circle cx="0" cy="2" r="1" fill="srgba(24.4541%,51.2718%,27.4754%,1)"/>
  <circle cx="1" cy="2" r="1" fill="srgba(24.4541%,51.2718%,27.4754%,1)"/>
  <circle cx="2" cy="2" r="1" fill="srgba(24.4541%,51.2718%,27.4754%,1)"/>
  <circle cx="3" cy="2" r="1" fill="srgba(24.4541%,51.2718%,27.4754%,1)"/>
  <circle cx="4" cy="2" r="1" fill="srgba(24.4541%,51.2718%,27.4754%,1)"/>
  <circle cx="5" cy="2" r="1" fill="srgba(24.4541%,51.2718%,27.4754%,1)"/>
  <circle cx="6" cy="2" r="1" fill="srgba(24.4541%,51.2718%,27.4754%,1)"/>
  <circle cx="7" cy="2" r="1" fill="srgba(24.4541%,51.2718%,27.4754%,1)"/>
  <circle cx="8" cy="2" r="1" fill="srgba(24.4541%,51.2718%,27.4754%,1)"/>
  <circle cx="9" cy="2" r="1" fill="srgba(24.4541%,51.2718%,27.4754%,1)"/>
  <circle cx="10" cy="2" r="1" fill="srgba(24.4541%,51.2718%,27.4754%,1)"/>
  <circle cx="11" cy="2" r="1" fill="srgba(24.4541%,51.2718%,27.4754%,1)"/>
  <circle cx="12" cy="2" r="1" fill="srgba(24.4541%,51.2718%,27.4754%,1)"/>
  <circle cx="13" cy="2" r="1" fill="srgba(24.4541%,51.2718%,27.4754%,1)"/>
  <circle cx="14" cy="2" r="1" fill="srgba(24.4541%,51.2718%,27.4754%,1)"/>
  <circle cx="15" cy="2" r="1" fill="srgba(24.4541%,51.2718%,27.4754%,1)"/>
  <circle cx="0" cy="3" r="1" fill="srgba(80.9567%,88.8548%,82.5193%,1)"/>
  <circle cx="1" cy="3" r="1" fill="srgba(80.9567%,88.8548%,82.5193%,1)"/>
  <circle cx="2" cy="3" r="1" fill="srgba(80.9567%,88.8548%,82.5193%,1)"/>
  <circle cx="3" cy="3" r="1" fill="srgba(80.9567%,88.8548%,82.5193%,1)"/>
  <circle cx="4" cy="3" r="1" fill="srgba(80.9567%,88.8548%,82.5193%,1)"/>
  <circle cx="5" cy="3" r="1" fill="srgba(80.9567%,88.8548%,82.5193%,1)"/>
  <circle cx="6" cy="3" r="1" fill="srgba(80.9567%,88.8563%,82.5193%,1)"/>
  <circle cx="7" cy="3" r="1" fill="srgba(80.9537%,88.8426%,82.5208%,1)"/>
  <circle cx="8" cy="3" r="1" fill="srgba(80.9537%,88.8426%,82.5208%,1)"/>
  <circle cx="9" cy="3" r="1" fill="srgba(80.9567%,88.8563%,82.5193%,1)"/>
  <circle cx="10" cy="3" r="1" fill="srgba(80.9567%,88.8548%,82.5193%,1)"/>
  <circle cx="11" cy="3" r="1" fill="srgba(80.9567%,88.8548%,82.5193%,1)"/>
  <circle cx="12" cy="3" r="1" fill="srgba(80.9567%,88.8548%,82.5193%,1)"/>
  <circle cx="13" cy="3" r="1" fill="srgba(80.9567%,88.8548%,82.5193%,1)"/>
  <circle cx="14" cy="3" r="1" fill="srgba(80.9567%,88.8548%,82.5193%,1)"/>
  <circle cx="15" cy="3" r="1" fill="srgba(80.9567%,88.8548%,82.5193%,1)"/>
  <circle cx="0" cy="4" r="1" fill="srgba(93.8125%,76.7636%,80.5554%,1)"/>
  <circle cx="1" cy="4" r="1" fill="srgba(93.8125%,76.7636%,80.5554%,1)"/>
  <circle cx="2" cy="4" r="1" fill="srgba(93.8125%,76.7636%,80.5554%,1)"/>
  <circle cx="3" cy="4" r="1" fill="srgba(93.8125%,76.7636%,80.5554%,1)"/>
  <circle cx="4" cy="4" r="1" fill="srgba(93.8125%,76.7636%,80.5554%,1)"/>
  <circle cx="5" cy="4" r="1" fill="srgba(93.8125%,76.7636%,80.5554%,1)"/>
  <circle cx="6" cy="4" r="1" fill="srgba(93.8125%,76.7605%,80.5554%,1)"/>
  <circle cx="7" cy="4" r="1" fill="srgba(93.8003%,76.7224%,80.5585%,1)"/>
  <circle cx="8" cy="4" r="1" fill="srgba(93.8003%,76.7224%,80.5585%,1)"/>
  <circle cx="9" cy="4" r="1" fill="srgba(93.8125%,76.762%,80.5554%,1)"/>
  <circle cx="10" cy="4" r="1" fill="srgba(93.8125%,76.7636%,80.5554%,1)"/>
  <circle cx="11" cy="4" r="1" fill="srgba(93.8125%,76.7636%,80.5554%,1)"/>
  <circle cx="12" cy="4" r="1" fill="srgba(93.8125%,76.7636%,80.5554%,1)"/>
  <circle cx="13" cy="4" r="1" fill="srgba(93.8125%,76.7636%,80.5554%,1)"/>
  <circle cx="14" cy="4" r="1" fill="srgba(93.8125%,76.7636%,80.5554%,1)"/>
  <circle cx="15" cy="4" r="1" fill="srgba(93.8125%,76.7636%,80.5554%,1)"/>
  <circle cx="0" cy="5" r="1" fill="srgba(71.6548%,7.4052%,20.6348%,1)"/>
  <circle cx="1" cy="5" r="1" fill="srgba(71.6548%,7.4052%,20.6348%,1)"/>
  <circle cx="2" cy="5" r="1" fill="srgba(71.6548%,7.4052%,20.6348%,1)"/>
  <circle cx="3" cy="5" r="1" fill="srgba(71.6548%,7.4052%,20.6348%,1)"/>
  <circle cx="4" cy="5" r="1" fill="srgba(71.6533%,7.40063%,20.6348%,1)"/>
  <circle cx="5" cy="5" r="1" fill="srgba(71.6426%,7.36706%,20.6378%,1)"/>
  <circle cx="6" cy="5" r="1" fill="srgba(71.4549%,6.72923%,20.6912%,1)"/>
  <circle cx="7" cy="5" r="1" fill="srgba(74.8531%,18.2589%,19.7192%,1)"/>
  <circle cx="8" cy="5" r="1" fill="srgba(74.8104%,18.1125%,19.7314%,1)"/>
  <circle cx="9" cy="5" r="1" fill="srgba(71.4549%,6.73228%,20.6912%,1)"/>
  <circle cx="10" cy="5" r="1" fill="srgba(71.6426%,7.36706%,20.6378%,1)"/>
  <circle cx="11" cy="5" r="1" fill="srgba(71.6533%,7.40063%,20.6348%,1)"/>
  <circle cx="12" cy="5" r="1" fill="srgba(71.6548%,7.4052%,20.6348%,1)"/>
  <circle cx="13" cy="5" r="1" fill="srgba(71.6548%,7.4052%,20.6348%,1)"/>
  <circle cx="14" cy="5" r="1" fill="srgba(71.6548%,7.4052%,20.6348%,1)"/>
  <circle cx="15" cy="5" r="1" fill="srgba(71.6548%,7.4052%,20.6348%,1)"/>
  <circle cx="0" cy="6" r="1" fill="srgba(70.5241%,3.70947%,17.4655%,1)"/>
  <circle cx="1" cy="6" r="1" fill="srgba(70.5241%,3.70947%,17.4655%,1)"/>
  <circle cx="2" cy="6" r="1" fill="srgba(70.5241%,3.70947%,17.4655%,1)"/>
  <circle cx="3" cy="6" r="1" fill="srgba(70.5211%,3.69879%,17.467%,1)"/>
  <circle cx="4" cy="6" r="1" fill="srgba(70.5745%,3.88342%,17.4502%,1)"/>
  <circle cx="5" cy="6" r="1" fill="srgba(70.8949%,4.97292%,17.3587%,1)"/>
  <circle cx="6" cy="6" r="1" fill="srgba(70.4723%,3.53857%,17.4807%,1)"/>
  <circle cx="7" cy="6" r="1" fill="srgba(80.9079%,38.9425%,14.4976%,1)"/>
  <circle cx="8" cy="6" r="1" fill="srgba(80.795%,38.5657%,14.5296%,1)"/>
  <circle cx="9" cy="6" r="1" fill="srgba(70.4662%,3.5172%,17.4823%,1)"/>
  <circle cx="10" cy="6" r="1" fill="srgba(70.8934%,4.96986%,17.3587%,1)"/>
  <circle cx="11" cy="6" r="1" fill="srgba(70.573%,3.87732%,17.4517%,1)"/>
  <circle cx="12" cy="6" r="1" fill="srgba(70.5211%,3.70031%,17.467%,1)"/>
  <circle cx="13" cy="6" r="1" fill="srgba(70.5241%,3.70947%,17.4655%,1)"/>
  <circle cx="14" cy="6" r="1" fill="srgba(70.5241%,3.70947%,17.4655%,1)"/>
  <circle cx="15" cy="6" r="1" fill="srgba(70.5241%,3.70947%,17.4655%,1)"/>
  <circle cx="0" cy="7" r="1" fill="srgba(180,10,45,1)"/>
  <circle cx="1" cy="7" r="1" fill="srgba(180,10,45,1)"/>
  <circle cx="2" cy="7" r="1" fill="srgba(180,10,45,1)"/>
  <circle cx="3" cy="7" r="1" fill="srgba(70.5669%,3.84985%,17.6532%,1)"/>
  <circle cx="4" cy="7" r="1" fill="srgba(70.8186%,4.70588%,17.5799%,1)"/>
  <circle cx="5" cy="7" r="1" fill="srgba(77.7371%,28.1926%,15.6023%,1)"/>
  <circle cx="6" cy="7" r="1" fill="srgba(84.7318%,51.9234%,13.6049%,1)"/>
  <circle cx="7" cy="7" r="1" fill="srgba(89.958%,69.6468%,12.1126%,1)"/>
  <circle cx="8" cy="7" r="1" fill="srgba(89.9168%,69.5064%,12.1233%,1)"/>
  <circle cx="9" cy="7" r="1" fill="srgba(84.7074%,51.8395%,13.611%,1)"/>
  <circle cx="10" cy="7" r="1" fill="srgba(77.6669%,27.953%,15.6222%,1)"/>
  <circle cx="11" cy="7" r="1" fill="srgba(70.8034%,4.65553%,17.5845%,1)"/>
  <circle cx="12" cy="7" r="1" fill="srgba(70.5684%,3.8529%,17.6532%,1)"/>
  <circle cx="13" cy="7" r="1" fill="srgba(180,10,45,1)"/>
  <circle cx="14" cy="7" r="1" fill="srgba(180,10,45,1)"/>
  <circle cx="15" cy="7" r="1" fill="srgba(180,10,45,1)"/>
  <circle cx="0" cy="8" r="1" fill="srgba(180,10,45,1)"/>
  <circle cx="1" cy="8" r="1" fill="srgba(180,10,45,1)"/>
  <circle cx="2" cy="8" r="1" fill="srgba(180,10,45,1)"/>
  <circle cx="3" cy="8" r="1" fill="srgba(70.5882%,3.92004%,17.6471%,1)"/>
  <circle cx="4" cy="8" r="1" fill="srgba(70.5333%,3.73541%,17.6623%,1)"/>
  <circle cx="5" cy="8" r="1" fill="srgba(71.8563%,8.22156%,17.2854%,1)"/>
  <circle cx="6" cy="8" r="1" fill="srgba(82.5116%,44.3778%,14.2397%,1)"/>
  <circle cx="7" cy="8" r="1" fill="srgba(92.8176%,79.3439%,11.2963%,1)"/>
  <circle cx="8" cy="8" r="1" fill="srgba(92.7993%,79.2782%,11.3008%,1)"/>
  <circle cx="9" cy="8" r="1" fill="srgba(82.4063%,44.0208%,14.2687%,1)"/>
  <circle cx="10" cy="8" r="1" fill="srgba(71.8257%,8.12085%,17.293%,1)"/>
  <circle cx="11" cy="8" r="1" fill="srgba(70.5333%,3.73693%,17.6623%,1)"/>
  <circle cx="12" cy="8" r="1" fill="srgba(70.5882%,3.92004%,17.6471%,1)"/>
  <circle cx="13" cy="8" r="1" fill="srgba(180,10,45,1)"/>
  <circle cx="14" cy="8" r="1" fill="srgba(180,10,45,1)"/>
  <circle cx="15" cy="8" r="1" fill="srgba(180,10,45,1)"/>
  <circle cx="0" cy="9" r="1" fill="srgba(70.5241%,3.70947%,17.4655%,1)"/>
  <circle cx="1" cy="9" r="1" fill="srgba(70.5241%,3.70947%,17.4655%,1)"/>
  <circle cx="2" cy="9" r="1" fill="srgba(70.5241%,3.70947%,17.4655%,1)"/>
  <circle cx="3" cy="9" r="1" fill="srgba(70.5241%,3.70947%,17.4655%,1)"/>
  <circle cx="4" cy="9" r="1" fill="srgba(70.5272%,3.7171%,17.4655%,1)"/>
  <circle cx="5" cy="9" r="1" fill="srgba(70.1732%,2.52232%,17.5662%,1)"/>
  <circle cx="6" cy="9" r="1" fill="srgba(80.0763%,36.1212%,14.7356%,1)"/>
  <circle cx="7" cy="9" r="1" fill="srgba(88.0217%,63.0747%,12.4666%,1)"/>
  <circle cx="8" cy="9" r="1" fill="srgba(88.043%,63.154%,12.459%,1)"/>
  <circle cx="9" cy="9" r="1" fill="srgba(79.9573%,35.7183%,14.7692%,1)"/>
  <circle cx="10" cy="9" r="1" fill="srgba(70.1686%,2.50553%,17.5662%,1)"/>
  <circle cx="11" cy="9" r="1" fill="srgba(70.5272%,3.71862%,17.4655%,1)"/>
  <circle cx="12" cy="9" r="1" fill="srgba(70.5241%,3.70947%,17.4655%,1)"/>
  <circle cx="13" cy="9" r="1" fill="srgba(70.5241%,3.70947%,17.4655%,1)"/>
  <circle cx="14" cy="9" r="1" fill="srgba(70.5241%,3.70947%,17.4655%,1)"/>
  <circle cx="15" cy="9" r="1" fill="srgba(70.5241%,3.70947%,17.4655%,1)"/>
  <circle cx="0" cy="10" r="1" fill="srgba(71.6548%,7.4052%,20.6348%,1)"/>
  <circle cx="1" cy="10" r="1" fill="srgba(71.6548%,7.4052%,20.6348%,1)"/>
  <circle cx="2" cy="10" r="1" fill="srgba(71.6548%,7.4052%,20.6348%,1)"/>
  <circle cx="3" cy="10" r="1" fill="srgba(71.6548%,7.4052%,20.6348%,1)"/>
  <circle cx="4" cy="10" r="1" fill="srgba(71.6365%,7.34112%,20.6394%,1)"/>
  <circle cx="5" cy="10" r="1" fill="srgba(72.0424%,8.72206%,20.5249%,1)"/>
  <circle cx="6" cy="10" r="1" fill="srgba(78.5946%,30.956%,18.6526%,1)"/>
  <circle cx="7" cy="10" r="1" fill="srgba(74.2382%,16.17%,19.8962%,1)"/>
  <circle cx="8" cy="10" r="1" fill="srgba(74.284%,16.3256%,19.8825%,1)"/>
  <circle cx="9" cy="10" r="1" fill="srgba(78.5702%,30.8705%,18.6557%,1)"/>
  <circle cx="10" cy="10" r="1" fill="srgba(72.0211%,8.64729%,20.5295%,1)"/>
  <circle cx="11" cy="10" r="1" fill="srgba(71.6365%,7.34569%,20.6394%,1)"/>
  <circle cx="12" cy="10" r="1" fill="srgba(71.6548%,7.4052%,20.6348%,1)"/>
  <circle cx="13" cy="10" r="1" fill="srgba(71.6548%,7.4052%,20.6348%,1)"/>
  <circle cx="14" cy="10" r="1" fill="srgba(71.6548%,7.4052%,20.6348%,1)"/>
  <circle cx="15" cy="10" r="1" fill="srgba(71.6548%,7.4052%,20.6348%,1)"/>
  <circle cx="0" cy="11" r="1" fill="srgba(93.8125%,76.7636%,80.5554%,1)"/>
  <circle cx="1" cy="11" r="1" fill="srgba(93.8125%,76.7636%,80.5554%,1)"/>
  <circle cx="2" cy="11" r="1" fill="srgba(93.8125%,76.7636%,80.5554%,1)"/>
  <circle cx="3" cy="11" r="1" fill="srgba(93.8125%,76.7636%,80.5554%,1)"/>
  <circle cx="4" cy="11" r="1" fill="srgba(93.8094%,76.7529%,80.557%,1)"/>
  <circle cx="5" cy="11" r="1" fill="srgba(93.8766%,76.9787%,80.5371%,1)"/>
  <circle cx="6" cy="11" r="1" fill="srgba(93.8476%,76.8826%,80.5447%,1)"/>
  <circle cx="7" cy="11" r="1" fill="srgba(93.6721%,76.2844%,80.5951%,1)"/>
  <circle cx="8" cy="11" r="1" fill="srgba(93.6706%,76.2799%,80.5951%,1)"/>
  <circle cx="9" cy="11" r="1" fill="srgba(93.8506%,76.8933%,80.5432%,1)"/>
  <circle cx="10" cy="11" r="1" fill="srgba(93.875%,76.9741%,80.5371%,1)"/>
  <circle cx="11" cy="11" r="1" fill="srgba(93.8094%,76.7529%,80.557%,1)"/>
  <circle cx="12" cy="11" r="1" fill="srgba(93.8125%,76.7636%,80.5554%,1)"/>
  <circle cx="13" cy="11" r="1" fill="srgba(93.8125%,76.7636%,80.5554%,1)"/>
  <circle cx="14" cy="11" r="1" fill="srgba(93.8125%,76.7636%,80.5554%,1)"/>
  <circle cx="15" cy="11" r="1" fill="srgba(93.8125%,76.7636%,80.5554%,1)"/>
  <circle cx="0" cy="12" r="1" fill="srgba(80.9567%,88.8548%,82.5193%,1)"/>
  <circle cx="1" cy="12" r="1" fill="srgba(80.9567%,88.8548%,82.5193%,1)"/>
  <circle cx="2" cy="12" r="1" fill="srgba(80.9567%,88.8548%,82.5193%,1)"/>
  <circle cx="3" cy="12" r="1" fill="srgba(80.9567%,88.8548%,82.5193%,1)"/>
  <circle cx="4" cy="12" r="1" fill="srgba(80.9567%,88.8548%,82.5193%,1)"/>
  <circle cx="5" cy="12" r="1" fill="srgba(80.9537%,88.8457%,82.5208%,1)"/>
  <circle cx="6" cy="12" r="1" fill="srgba(80.9476%,88.8258%,82.5223%,1)"/>
  <circle cx="7" cy="12" r="1" fill="srgba(80.9567%,88.8548%,82.5193%,1)"/>
  <circle cx="8" cy="12" r="1" fill="srgba(80.9567%,88.8548%,82.5193%,1)"/>
  <circle cx="9" cy="12" r="1" fill="srgba(80.9476%,88.8258%,82.5223%,1)"/>
  <circle cx="10" cy="12" r="1" fill="srgba(80.9537%,88.8457%,82.5208%,1)"/>
  <circle cx="11" cy="12" r="1" fill="srgba(80.9567%,88.8548%,82.5193%,1)"/>
  <circle cx="12" cy="12" r="1" fill="srgba(80.9567%,88.8548%,82.5193%,1)"/>
  <circle cx="13" cy="12" r="1" fill="srgba(80.9567%,88.8548%,82.5193%,1)"/>
  <circle cx="14" cy="12" r="1" fill="srgba(80.9567%,88.8548%,82.5193%,1)"/>
  <circle cx="15" cy="12" r="1" fill="srgba(80.9567%,88.8548%,82.5193%,1)"/>
  <circle cx="0" cy="13" r="1" fill="srgba(24.4541%,51.2718%,27.4754%,1)"/>
  <circle cx="1" cy="13" r="1" fill="srgba(24.4541%,51.2718%,27.4754%,1)"/>
  <circle cx="2" cy="13" r="1" fill="srgba(24.4541%,51.2718%,27.4754%,1)"/>
  <circle cx="3" cy="13" r="1" fill="srgba(24.4541%,51.2718%,27.4754%,1)"/>
  <circle cx="4" cy="13" r="1" fill="srgba(24.4541%,51.2718%,27.4754%,1)"/>
  <circle cx="5" cy="13" r="1" fill="srgba(24.4541%,51.2718%,27.4754%,1)"/>
  <circle cx="6" cy="13" r="1" fill="srgba(24.4541%,51.2718%,27.4754%,1)"/>
  <circle cx="7" cy="13" r="1" fill="srgba(24.4541%,51.2718%,27.4754%,1)"/>
  <circle cx="8" cy="13" r="1" fill="srgba(24.4541%,51.2718%,27.4754%,1)"/>
  <circle cx="9" cy="13" r="1" fill="srgba(24.4541%,51.2718%,27.4754%,1)"/>
  <circle cx="10" cy="13" r="1" fill="srgba(24.4541%,51.2718%,27.4754%,1)"/>
  <circle cx="11" cy="13" r="1" fill="srgba(24.4541%,51.2718%,27.4754%,1)"/>
  <circle cx="12" cy="13" r="1" fill="srgba(24.4541%,51.2718%,27.4754%,1)"/>
  <circle cx="13" cy="13" r="1" fill="srgba(24.4541%,51.2718%,27.4754%,1)"/>
  <circle cx="14" cy="13" r="1" fill="srgba(24.4541%,51.2718%,27.4754%,1)"/>
  <circle cx="15" cy="13" r="1" fill="srgba(24.4541%,51.2718%,27.4754%,1)"/>
  <circle cx="0" cy="14" r="1" fill="srgba(21.3947%,49.2988%,24.538%,1)"/>
  <circle cx="1" cy="14" r="1" fill="srgba(21.3947%,49.2988%,24.538%,1)"/>
  <circle cx="2" cy="14" r="1" fill="srgba(21.3947%,49.2988%,24.538%,1)"/>
  <circle cx="3" cy="14" r="1" fill="srgba(21.3947%,49.2988%,24.538%,1)"/>
  <circle cx="4" cy="14" r="1" fill="srgba(21.3947%,49.2988%,24.538%,1)"/>
  <circle cx="5" cy="14" r="1" fill="srgba(21.3947%,49.2988%,24.538%,1)"/>
  <circle cx="6" cy="14" r="1" fill="srgba(21.3947%,49.2988%,24.538%,1)"/>
  <circle cx="7" cy="14" r="1" fill="srgba(21.3947%,49.2988%,24.538%,1)"/>
  <circle cx="8" cy="14" r="1" fill="srgba(21.3947%,49.2988%,24.538%,1)"/>
  <circle cx="9" cy="14" r="1" fill="srgba(21.3947%,49.2988%,24.538%,1)"/>
  <circle cx="10" cy="14" r="1" fill="srgba(21.3947%,49.2988%,24.538%,1)"/>
  <circle cx="11" cy="14" r="1" fill="srgba(21.3947%,49.2988%,24.538%,1)"/>
  <circle cx="12" cy="14" r="1" fill="srgba(21.3947%,49.2988%,24.538%,1)"/>
  <circle cx="13" cy="14" r="1" fill="srgba(21.3947%,49.2988%,24.538%,1)"/>
  <circle cx="14" cy="14" r="1" fill="srgba(21.3947%,49.2988%,24.538%,1)"/>
  <circle cx="15" cy="14" r="1" fill="srgba(21.3947%,49.2988%,24.538%,1)"/>
  <circle cx="0" cy="15" r="1" fill="srgba(55,126,63,1)"/>
  <circle cx="1" cy="15" r="1" fill="srgba(55,126,63,1)"/>
  <circle cx="2" cy="15" r="1" fill="srgba(55,126,63,1)"/>
  <circle cx="3" cy="15" r="1" fill="srgba(55,126,63,1)"/>
  <circle cx="4" cy="15" r="1" fill="srgba(55,126,63,1)"/>
  <circle cx="5" cy="15" r="1" fill="srgba(55,126,63,1)"/>
  <circle cx="6" cy="15" r="1" fill="srgba(55,126,63,1)"/>
  <circle cx="7" cy="15" r="1" fill="srgba(55,126,63,1)"/>
  <circle cx="8" cy="15" r="1" fill="srgba(55,126,63,1)"/>
  <circle cx="9" cy="15" r="1" fill="srgba(55,126,63,1)"/>
  <circle cx="10" cy="15" r="1" fill="srgba(55,126,63,1)"/>
  <circle cx="11" cy="15" r="1" fill="srgba(55,126,63,1)"/>
  <circle cx="12" cy="15" r="1" fill="srgba(55,126,63,1)"/>
  <circle cx="13" cy="15" r="1" fill="srgba(55,126,63,1)"/>
  <circle cx="14" cy="15" r="1" fill="srgba(55,126,63,1)"/>
  <circle cx="15" cy="15" r="1" fill="srgba(55,126,63,1)"/>
</svg>
