<?xml version="1.0" standalone="no"?>
<!DOCTYPE svg PUBLIC "-//W3C//DTD SVG 20010904//EN"
  "http://www.w3.org/TR/2001/REC-SVG-20010904/DTD/svg10.dtd">
<svg width="16" height="16">
  <circle cx="0" cy="0" r="1" fill="srgba(4.20233%,19.884%,49.0089%,1)"/>
  <circle cx="1" cy="0" r="1" fill="srgba(1.45113%,6.86046%,16.91%,1)"/>
  <circle cx="2" cy="0" r="1" fill="srgba(0.0564584%,0.268559%,0.663767%,1)"/>
  <circle cx="3" cy="0" r="1" fill="black"/>
  <circle cx="4" cy="0" r="1" fill="black"/>
  <circle cx="5" cy="0" r="1" fill="black"/>
  <circle cx="6" cy="0" r="1" fill="black"/>
  <circle cx="7" cy="0" r="1" fill="black"/>
  <circle cx="8" cy="0" r="1" fill="black"/>
  <circle cx="9" cy="0" r="1" fill="black"/>
  <circle cx="10" cy="0" r="1" fill="black"/>
  <circle cx="11" cy="0" r="1" fill="black"/>
  <circle cx="12" cy="0" r="1" fill="black"/>
  <circle cx="13" cy="0" r="1" fill="black"/>
  <circle cx="14" cy="0" r="1" fill="black"/>
  <circle cx="15" cy="0" r="1" fill="black"/>
  <circle cx="0" cy="1" r="1" fill="srgba(5.92355%,28.0354%,69.1005%,1)"/>
  <circle cx="1" cy="1" r="1" fill="srgba(5.30709%,25.1148%,61.9013%,1)"/>
  <circle cx="2" cy="1" r="1" fill="srgba(3.02739%,14.3206%,35.2972%,1)"/>
  <circle cx="3" cy="1" r="1" fill="srgba(0.65919%,3.11742%,7.68444%,1)"/>
  <circle cx="4" cy="1" r="1" fill="black"/>
  <circle cx="5" cy="1" r="1" fill="black"/>
  <circle cx="6" cy="1" r="1" fill="black"/>
  <circle cx="7" cy="1" r="1" fill="black"/>
  <circle cx="8" cy="1" r="1" fill="black"/>
  <circle cx="9" cy="1" r="1" fill="black"/>
  <circle cx="10" cy="1" r="1" fill="black"/>
  <circle cx="11" cy="1" r="1" fill="black"/>
  <circle cx="12" cy="1" r="1" fill="black"/>
  <circle cx="13" cy="1" r="1" fill="black"/>
  <circle cx="14" cy="1" r="1" fill="black"/>
  <circle cx="15" cy="1" r="1" fill="black"/>
  <circle cx="0" cy="2" r="1" fill="srgba(5.88235%,27.8401%,68.6198%,1)"/>
  <circle cx="1" cy="2" r="1" fill="srgba(5.92203%,28.0278%,69.0837%,1)"/>
  <circle cx="2" cy="2" r="1" fill="srgba(5.91287%,27.985%,68.9784%,1)"/>
  <circle cx="3" cy="2" r="1" fill="srgba(4.80201%,22.7314%,56.0296%,1)"/>
  <circle cx="4" cy="2" r="1" fill="srgba(2.18814%,10.3578%,25.5314%,1)"/>
  <circle cx="5" cy="2" r="1" fill="srgba(0.282292%,1.33516%,3.28985%,1)"/>
  <circle cx="6" cy="2" r="1" fill="black"/>
  <circle cx="7" cy="2" r="1" fill="black"/>
  <circle cx="8" cy="2" r="1" fill="black"/>
  <circle cx="9" cy="2" r="1" fill="black"/>
  <circle cx="10" cy="2" r="1" fill="black"/>
  <circle cx="11" cy="2" r="1" fill="black"/>
  <circle cx="12" cy="2" r="1" fill="black"/>
  <circle cx="13" cy="2" r="1" fill="black"/>
  <circle cx="14" cy="2" r="1" fill="black"/>
  <circle cx="15" cy="2" r="1" fill="black"/>
  <circle cx="0" cy="3" r="1" fill="srgba(15,71,175,1)"/>
  <circle cx="1" cy="3" r="1" fill="srgba(5.88235%,27.8416%,68.6244%,1)"/>
  <circle cx="2" cy="3" r="1" fill="srgba(5.8854%,27.8553%,68.6595%,1)"/>
  <circle cx="3" cy="3" r="1" fill="srgba(5.94949%,28.1605%,69.4102%,1)"/>
  <circle cx="4" cy="3" r="1" fill="srgba(5.7557%,27.245%,67.1519%,1)"/>
  <circle cx="5" cy="3" r="1" fill="srgba(4.09094%,19.3561%,47.7089%,1)"/>
  <circle cx="6" cy="3" r="1" fill="srgba(1.40993%,6.66667%,16.434%,1)"/>
  <circle cx="7" cy="3" r="1" fill="srgba(0.077821%,0.369268%,0.909438%,1)"/>
  <circle cx="8" cy="3" r="1" fill="black"/>
  <circle cx="9" cy="3" r="1" fill="black"/>
  <circle cx="10" cy="3" r="1" fill="black"/>
  <circle cx="11" cy="3" r="1" fill="black"/>
  <circle cx="12" cy="3" r="1" fill="black"/>
  <circle cx="13" cy="3" r="1" fill="black"/>
  <circle cx="14" cy="3" r="1" fill="black"/>
  <circle cx="15" cy="3" r="1" fill="black"/>
  <circle cx="0" cy="4" r="1" fill="srgba(15,71,175,1)"/>
  <circle cx="1" cy="4" r="1" fill="srgba(15,71,175,1)"/>
  <circle cx="2" cy="4" r="1" fill="srgba(15,71,175,1)"/>
  <circle cx="3" cy="4" r="1" fill="srgba(5.88235%,27.8401%,68.6198%,1)"/>
  <circle cx="4" cy="4" r="1" fill="srgba(5.89456%,27.9042%,68.7785%,1)"/>
  <circle cx="5" cy="4" r="1" fill="srgba(5.96475%,28.2307%,69.5827%,1)"/>
  <circle cx="6" cy="4" r="1" fill="srgba(5.42763%,25.7527%,63.5035%,1)"/>
  <circle cx="7" cy="4" r="1" fill="srgba(3.3402%,15.5016%,38.0911%,1)"/>
  <circle cx="8" cy="4" r="1" fill="srgba(13.6858%,16.5911%,22.002%,1)"/>
  <circle cx="9" cy="4" r="1" fill="srgba(25.8595%,25.7465%,25.2857%,1)"/>
  <circle cx="10" cy="4" r="1" fill="srgba(25.5131%,26.4424%,26.2165%,1)"/>
  <circle cx="11" cy="4" r="1" fill="srgba(25.1331%,26.4958%,26.4469%,1)"/>
  <circle cx="12" cy="4" r="1" fill="srgba(25.1438%,26.4927%,26.4393%,1)"/>
  <circle cx="13" cy="4" r="1" fill="srgba(25.1438%,26.4927%,26.4393%,1)"/>
  <circle cx="14" cy="4" r="1" fill="srgba(25.1438%,26.4927%,26.4393%,1)"/>
  <circle cx="15" cy="4" r="1" fill="srgba(25.1438%,26.4927%,26.4393%,1)"/>
  <circle cx="0" cy="5" r="1" fill="srgba(15,71,175,1)"/>
  <circle cx="1" cy="5" r="1" fill="srgba(15,71,175,1)"/>
  <circle cx="2" cy="5" r="1" fill="srgba(15,71,175,1)"/>
  <circle cx="3" cy="5" r="1" fill="srgba(15,71,175,1)"/>
  <circle cx="4" cy="5" r="1" fill="srgba(15,71,175,1)"/>
  <circle cx="5" cy="5" r="1" fill="srgba(5.88083%,27.8401%,68.6183%,1)"/>
  <circle cx="6" cy="5" r="1" fill="srgba(5.90524%,27.9896%,69.0074%,1)"/>
  <circle cx="7" cy="5" r="1" fill="srgba(5.68399%,27.8309%,68.9601%,1)"/>
  <circle cx="8" cy="5" r="1" fill="srgba(17.7081%,36.4889%,70.7912%,1)"/>
  <circle cx="9" cy="5" r="1" fill="srgba(56.8627%,59.4537%,76.2982%,1)"/>
  <circle cx="10" cy="5" r="1" fill="srgba(85.8778%,59.6262%,63.0625%,1)"/>
  <circle cx="11" cy="5" r="1" fill="srgba(91.4611%,57.7768%,58.5565%,1)"/>
  <circle cx="12" cy="5" r="1" fill="srgba(90.4921%,58.0285%,59.2676%,1)"/>
  <circle cx="13" cy="5" r="1" fill="srgba(90.3609%,58.0636%,59.3652%,1)"/>
  <circle cx="14" cy="5" r="1" fill="srgba(90.367%,58.0621%,59.3606%,1)"/>
  <circle cx="15" cy="5" r="1" fill="srgba(90.367%,58.0621%,59.3606%,1)"/>
  <circle cx="0" cy="6" r="1" fill="srgba(15,71,175,1)"/>
  <circle cx="1" cy="6" r="1" fill="srgba(15,71,175,1)"/>
  <circle cx="2" cy="6" r="1" fill="srgba(15,71,175,1)"/>
  <circle cx="3" cy="6" r="1" fill="srgba(15,71,175,1)"/>
  <circle cx="4" cy="6" r="1" fill="srgba(15,71,175,1)"/>
  <circle cx="5" cy="6" r="1" fill="srgba(5.88388%,27.8431%,68.6275%,1)"/>
  <circle cx="6" cy="6" r="1" fill="srgba(5.90982%,27.8599%,68.6076%,1)"/>
  <circle cx="7" cy="6" r="1" fill="srgba(5.89151%,27.8569%,68.6473%,1)"/>
  <circle cx="8" cy="6" r="1" fill="srgba(5.12703%,27.4311%,68.6305%,1)"/>
  <circle cx="9" cy="6" r="1" fill="srgba(6.99931%,26.891%,67.2175%,1)"/>
  <circle cx="10" cy="6" r="1" fill="srgba(27.7943%,21.9028%,52.4132%,1)"/>
  <circle cx="11" cy="6" r="1" fill="srgba(64.1794%,12.3857%,25.6886%,1)"/>
  <circle cx="12" cy="6" r="1" fill="srgba(84.6494%,7.04051%,10.6615%,1)"/>
  <circle cx="13" cy="6" r="1" fill="srgba(86.1997%,6.63462%,9.52316%,1)"/>
  <circle cx="14" cy="6" r="1" fill="srgba(85.6153%,6.78721%,9.95193%,1)"/>
  <circle cx="15" cy="6" r="1" fill="srgba(85.6352%,6.78264%,9.9382%,1)"/>
  <circle cx="0" cy="7" r="1" fill="srgba(15,71,175,1)"/>
  <circle cx="1" cy="7" r="1" fill="srgba(15,71,175,1)"/>
  <circle cx="2" cy="7" r="1" fill="srgba(15,71,175,1)"/>
  <circle cx="3" cy="7" r="1" fill="srgba(15,71,175,1)"/>
  <circle cx="4" cy="7" r="1" fill="srgba(15,71,175,1)"/>
  <circle cx="5" cy="7" r="1" fill="srgba(5.89151%,27.8477%,68.6213%,1)"/>
  <circle cx="6" cy="7" r="1" fill="srgba(6.05478%,27.9484%,68.51%,1)"/>
  <circle cx="7" cy="7" r="1" fill="srgba(5.89609%,27.8508%,68.6183%,1)"/>
  <circle cx="8" cy="7" r="1" fill="srgba(5.88998%,27.8416%,68.6229%,1)"/>
  <circle cx="9" cy="7" r="1" fill="srgba(5.75113%,27.8721%,68.7175%,1)"/>
  <circle cx="10" cy="7" r="1" fill="srgba(4.79438%,28.1163%,69.4148%,1)"/>
  <circle cx="11" cy="7" r="1" fill="srgba(10.1991%,26.7063%,65.449%,1)"/>
  <circle cx="12" cy="7" r="1" fill="srgba(38.1292%,19.4141%,44.95%,1)"/>
  <circle cx="13" cy="7" r="1" fill="srgba(76.8368%,9.30953%,16.5377%,1)"/>
  <circle cx="14" cy="7" r="1" fill="srgba(85.9159%,6.93828%,9.87259%,1)"/>
  <circle cx="15" cy="7" r="1" fill="srgba(85.4887%,7.04967%,10.1869%,1)"/>
  <circle cx="0" cy="8" r="1" fill="srgba(15,71,175,1)"/>
  <circle cx="1" cy="8" r="1" fill="srgba(15,71,175,1)"/>
  <circle cx="2" cy="8" r="1" fill="srgba(15,71,175,1)"/>
  <circle cx="3" cy="8" r="1" fill="srgba(15,71,175,1)"/>
  <circle cx="4" cy="8" r="1" fill="srgba(15,71,175,1)"/>
  <circle cx="5" cy="8" r="1" fill="srgba(5.90066%,27.8553%,68.6152%,1)"/>
  <circle cx="6" cy="8" r="1" fill="srgba(6.22873%,28.0598%,68.3864%,1)"/>
  <circle cx="7" cy="8" r="1" fill="srgba(5.90677%,27.8584%,68.6107%,1)"/>
  <circle cx="8" cy="8" r="1" fill="srgba(5.88998%,27.8416%,68.6229%,1)"/>
  <circle cx="9" cy="8" r="1" fill="srgba(5.7496%,27.8721%,68.719%,1)"/>
  <circle cx="10" cy="8" r="1" fill="srgba(4.79286%,28.1178%,69.4163%,1)"/>
  <circle cx="11" cy="8" r="1" fill="srgba(10.2403%,26.6957%,65.4185%,1)"/>
  <circle cx="12" cy="8" r="1" fill="srgba(38.2177%,19.3912%,44.8859%,1)"/>
  <circle cx="13" cy="8" r="1" fill="srgba(76.8627%,9.3019%,16.5194%,1)"/>
  <circle cx="14" cy="8" r="1" fill="srgba(85.9159%,6.93828%,9.87411%,1)"/>
  <circle cx="15" cy="8" r="1" fill="srgba(85.4887%,7.04967%,10.1869%,1)"/>
  <circle cx="0" cy="9" r="1" fill="srgba(15,71,175,1)"/>
  <circle cx="1" cy="9" r="1" fill="srgba(15,71,175,1)"/>
  <circle cx="2" cy="9" r="1" fill="srgba(15,71,175,1)"/>
  <circle cx="3" cy="9" r="1" fill="srgba(15,71,175,1)"/>
  <circle cx="4" cy="9" r="1" fill="srgba(15,71,175,1)"/>
  <circle cx="5" cy="9" r="1" fill="srgba(5.90982%,27.8599%,68.6076%,1)"/>
  <circle cx="6" cy="9" r="1" fill="srgba(6.39353%,28.1682%,68.2673%,1)"/>
  <circle cx="7" cy="9" r="1" fill="srgba(5.92355%,27.8614%,68.6168%,1)"/>
  <circle cx="8" cy="9" r="1" fill="srgba(5.10719%,27.3182%,68.5847%,1)"/>
  <circle cx="9" cy="9" r="1" fill="srgba(7.00084%,26.7597%,67.1489%,1)"/>
  <circle cx="10" cy="9" r="1" fill="srgba(27.8569%,21.7548%,52.2972%,1)"/>
  <circle cx="11" cy="9" r="1" fill="srgba(64.239%,12.2377%,25.5741%,1)"/>
  <circle cx="12" cy="9" r="1" fill="srgba(84.6509%,6.90929%,10.5928%,1)"/>
  <circle cx="13" cy="9" r="1" fill="srgba(86.1784%,6.5095%,9.46975%,1)"/>
  <circle cx="14" cy="9" r="1" fill="srgba(85.594%,6.66209%,9.89853%,1)"/>
  <circle cx="15" cy="9" r="1" fill="srgba(85.6138%,6.65751%,9.88479%,1)"/>
  <circle cx="0" cy="10" r="1" fill="srgba(15,71,175,1)"/>
  <circle cx="1" cy="10" r="1" fill="srgba(15,71,175,1)"/>
  <circle cx="2" cy="10" r="1" fill="srgba(15,71,175,1)"/>
  <circle cx="3" cy="10" r="1" fill="srgba(15,71,175,1)"/>
  <circle cx="4" cy="10" r="1" fill="srgba(15,71,175,1)"/>
  <circle cx="5" cy="10" r="1" fill="srgba(5.91897%,27.8706%,68.5954%,1)"/>
  <circle cx="6" cy="10" r="1" fill="srgba(6.57359%,28.1254%,68.4199%,1)"/>
  <circle cx="7" cy="10" r="1" fill="srgba(5.73434%,27.5517%,68.8228%,1)"/>
  <circle cx="8" cy="10" r="1" fill="srgba(18.0499%,38.3307%,71.5602%,1)"/>
  <circle cx="9" cy="10" r="1" fill="srgba(57.2946%,61.5747%,77.1664%,1)"/>
  <circle cx="10" cy="10" r="1" fill="srgba(86.2409%,61.6861%,63.9078%,1)"/>
  <circle cx="11" cy="10" r="1" fill="srgba(91.7845%,59.8489%,59.4324%,1)"/>
  <circle cx="12" cy="10" r="1" fill="srgba(90.8156%,60.1022%,60.1434%,1)"/>
  <circle cx="13" cy="10" r="1" fill="srgba(90.6859%,60.1358%,60.2396%,1)"/>
  <circle cx="14" cy="10" r="1" fill="srgba(90.692%,60.1343%,60.235%,1)"/>
  <circle cx="15" cy="10" r="1" fill="srgba(90.692%,60.1343%,60.235%,1)"/>
  <circle cx="0" cy="11" r="1" fill="srgba(15,71,175,1)"/>
  <circle cx="1" cy="11" r="1" fill="srgba(15,71,175,1)"/>
  <circle cx="2" cy="11" r="1" fill="srgba(15,71,175,1)"/>
  <circle cx="3" cy="11" r="1" fill="srgba(5.88235%,27.8462%,68.6229%,1)"/>
  <circle cx="4" cy="11" r="1" fill="srgba(5.88998%,27.7852%,68.7388%,1)"/>
  <circle cx="5" cy="11" r="1" fill="srgba(5.97238%,27.512%,69.2897%,1)"/>
  <circle cx="6" cy="11" r="1" fill="srgba(6.48966%,30.3029%,64.3046%,1)"/>
  <circle cx="7" cy="11" r="1" fill="srgba(4.66621%,39.5178%,46.4118%,1)"/>
  <circle cx="8" cy="11" r="1" fill="srgba(16.202%,56.5118%,36.2737%,1)"/>
  <circle cx="9" cy="11" r="1" fill="srgba(28.4825%,66.4332%,39.91%,1)"/>
  <circle cx="10" cy="11" r="1" fill="srgba(28.1163%,67.0603%,40.8103%,1)"/>
  <circle cx="11" cy="11" r="1" fill="srgba(27.7394%,67.1138%,41.0391%,1)"/>
  <circle cx="12" cy="11" r="1" fill="srgba(27.7501%,67.1107%,41.0315%,1)"/>
  <circle cx="13" cy="11" r="1" fill="srgba(27.7501%,67.1107%,41.0315%,1)"/>
  <circle cx="14" cy="11" r="1" fill="srgba(27.7501%,67.1107%,41.0315%,1)"/>
  <circle cx="15" cy="11" r="1" fill="srgba(27.7501%,67.1107%,41.0315%,1)"/>
  <circle cx="0" cy="12" r="1" fill="srgba(15,71,175,1)"/>
  <circle cx="1" cy="12" r="1" fill="srgba(5.88235%,27.8447%,68.6259%,1)"/>
  <circle cx="2" cy="12" r="1" fill="srgba(5.88388%,27.8309%,68.6503%,1)"/>
  <circle cx="3" cy="12" r="1" fill="srgba(5.91897%,27.5471%,69.1981%,1)"/>
  <circle cx="4" cy="12" r="1" fill="srgba(5.81521%,28.4077%,67.541%,1)"/>
  <circle cx="5" cy="12" r="1" fill="srgba(4.98207%,35.7824%,53.3822%,1)"/>
  <circle cx="6" cy="12" r="1" fill="srgba(4.55787%,47.9698%,30.4356%,1)"/>
  <circle cx="7" cy="12" r="1" fill="srgba(2.83513%,53.6278%,19.0463%,1)"/>
  <circle cx="8" cy="12" r="1" fill="srgba(1.9852%,53.6095%,17.7646%,1)"/>
  <circle cx="9" cy="12" r="1" fill="srgba(1.29702%,53.0388%,17.6104%,1)"/>
  <circle cx="10" cy="12" r="1" fill="srgba(1.28634%,53.0312%,17.6074%,1)"/>
  <circle cx="11" cy="12" r="1" fill="srgba(1.28786%,53.0327%,17.6074%,1)"/>
  <circle cx="12" cy="12" r="1" fill="srgba(1.28786%,53.0327%,17.6074%,1)"/>
  <circle cx="13" cy="12" r="1" fill="srgba(1.28786%,53.0327%,17.6074%,1)"/>
  <circle cx="14" cy="12" r="1" fill="srgba(1.28786%,53.0327%,17.6074%,1)"/>
  <circle cx="15" cy="12" r="1" fill="srgba(1.28786%,53.0327%,17.6074%,1)"/>
  <circle cx="0" cy="13" r="1" fill="srgba(5.88235%,27.8462%,68.6229%,1)"/>
  <circle cx="1" cy="13" r="1" fill="srgba(5.90372%,27.6692%,68.9601%,1)"/>
  <circle cx="2" cy="13" r="1" fill="srgba(5.89761%,27.715%,68.8746%,1)"/>
  <circle cx="3" cy="13" r="1" fill="srgba(5.30556%,32.6162%,59.4415%,1)"/>
  <circle cx="4" cy="13" r="1" fill="srgba(3.91241%,44.1184%,37.3068%,1)"/>
  <circle cx="5" cy="13" r="1" fill="srgba(2.94957%,52.6284%,20.9689%,1)"/>
  <circle cx="6" cy="13" r="1" fill="srgba(3.95209%,54.4915%,17.9736%,1)"/>
  <circle cx="7" cy="13" r="1" fill="srgba(2.83055%,53.785%,18.7549%,1)"/>
  <circle cx="8" cy="13" r="1" fill="srgba(2.7451%,53.724%,18.8266%,1)"/>
  <circle cx="9" cy="13" r="1" fill="srgba(7,137,48,1)"/>
  <circle cx="10" cy="13" r="1" fill="srgba(7,137,48,1)"/>
  <circle cx="11" cy="13" r="1" fill="srgba(7,137,48,1)"/>
  <circle cx="12" cy="13" r="1" fill="srgba(7,137,48,1)"/>
  <circle cx="13" cy="13" r="1" fill="srgba(7,137,48,1)"/>
  <circle cx="14" cy="13" r="1" fill="srgba(7,137,48,1)"/>
  <circle cx="15" cy="13" r="1" fill="srgba(7,137,48,1)"/>
  <circle cx="0" cy="14" r="1" fill="srgba(5.90372%,27.6661%,68.9693%,1)"/>
  <circle cx="1" cy="14" r="1" fill="srgba(5.57412%,30.396%,63.7171%,1)"/>
  <circle cx="2" cy="14" r="1" fill="srgba(4.35798%,40.4425%,44.3839%,1)"/>
  <circle cx="3" cy="14" r="1" fill="srgba(3.09148%,50.8766%,24.3061%,1)"/>
  <circle cx="4" cy="14" r="1" fill="srgba(2.70542%,54.0536%,18.1933%,1)"/>
  <circle cx="5" cy="14" r="1" fill="srgba(2.81071%,53.846%,18.6313%,1)"/>
  <circle cx="6" cy="14" r="1" fill="srgba(4.16266%,54.2107%,18.6038%,1)"/>
  <circle cx="7" cy="14" r="1" fill="srgba(2.84733%,53.7606%,18.8067%,1)"/>
  <circle cx="8" cy="14" r="1" fill="srgba(7,137,48,1)"/>
  <circle cx="9" cy="14" r="1" fill="srgba(7,137,48,1)"/>
  <circle cx="10" cy="14" r="1" fill="srgba(7,137,48,1)"/>
  <circle cx="11" cy="14" r="1" fill="srgba(7,137,48,1)"/>
  <circle cx="12" cy="14" r="1" fill="srgba(7,137,48,1)"/>
  <circle cx="13" cy="14" r="1" fill="srgba(7,137,48,1)"/>
  <circle cx="14" cy="14" r="1" fill="srgba(7,137,48,1)"/>
  <circle cx="15" cy="14" r="1" fill="srgba(7,137,48,1)"/>
  <circle cx="0" cy="15" r="1" fill="srgba(4.98512%,35.2743%,54.3282%,1)"/>
  <circle cx="1" cy="15" r="1" fill="srgba(3.5172%,47.3732%,31.0475%,1)"/>
  <circle cx="2" cy="15" r="1" fill="srgba(2.74357%,53.7453%,18.7854%,1)"/>
  <circle cx="3" cy="15" r="1" fill="srgba(2.71763%,53.9559%,18.3795%,1)"/>
  <circle cx="4" cy="15" r="1" fill="srgba(2.7451%,53.724%,18.8251%,1)"/>
  <circle cx="5" cy="15" r="1" fill="srgba(2.83055%,53.7545%,18.8098%,1)"/>
  <circle cx="6" cy="15" r="1" fill="srgba(4.32593%,54.2672%,18.5718%,1)"/>
  <circle cx="7" cy="15" r="1" fill="srgba(2.85801%,53.7636%,18.8052%,1)"/>
  <circle cx="8" cy="15" r="1" fill="srgba(7,137,48,1)"/>
  <circle cx="9" cy="15" r="1" fill="srgba(7,137,48,1)"/>
  <circle cx="10" cy="15" r="1" fill="srgba(7,137,48,1)"/>
  <circle cx="11" cy="15" r="1" fill="srgba(7,137,48,1)"/>
  <circle cx="12" cy="15" r="1" fill="srgba(7,137,48,1)"/>
  <circle cx="13" cy="15" r="1" fill="srgba(7,137,48,1)"/>
  <circle cx="14" cy="15" r="1" fill="srgba(7,137,48,1)"/>
  <circle cx="15" cy="15" r="1" fill="srgba(7,137,48,1)"/>
</svg>
