<?xml version="1.0" standalone="no"?>
<!DOCTYPE svg PUBLIC "-//W3C//DTD SVG 20010904//EN"
  "http://www.w3.org/TR/2001/REC-SVG-20010904/DTD/svg10.dtd">
<svg width="16" height="16">
  <circle cx="0" cy="0" r="1" fill="srgba(47.4449%,31.8395%,0%,1)"/>
  <circle cx="1" cy="0" r="1" fill="srgba(4.56855%,59.1684%,0%,1)"/>
  <circle cx="2" cy="0" r="1" fill="srgba(0%,61.9272%,0%,1)"/>
  <circle cx="3" cy="0" r="1" fill="srgba(0%,61.5579%,0%,1)"/>
  <circle cx="4" cy="0" r="1" fill="srgba(0,157,0,1)"/>
  <circle cx="5" cy="0" r="1" fill="srgba(0,157,0,1)"/>
  <circle cx="6" cy="0" r="1" fill="srgba(0,157,0,1)"/>
  <circle cx="7" cy="0" r="1" fill="srgba(0,157,0,1)"/>
  <circle cx="8" cy="0" r="1" fill="srgba(0,157,0,1)"/>
  <circle cx="9" cy="0" r="1" fill="srgba(0,157,0,1)"/>
  <circle cx="10" cy="0" r="1" fill="srgba(0,157,0,1)"/>
  <circle cx="11" cy="0" r="1" fill="srgba(0,157,0,1)"/>
  <circle cx="12" cy="0" r="1" fill="srgba(0,157,0,1)"/>
  <circle cx="13" cy="0" r="1" fill="srgba(0,157,0,1)"/>
  <circle cx="14" cy="0" r="1" fill="srgba(0,157,0,1)"/>
  <circle cx="15" cy="0" r="1" fill="srgba(0,157,0,1)"/>
  <circle cx="0" cy="1" r="1" fill="srgba(90.5577%,4.82948%,0%,1)"/>
  <circle cx="1" cy="1" r="1" fill="srgba(49.3324%,30.6554%,0%,1)"/>
  <circle cx="2" cy="1" r="1" fill="srgba(3.44854%,59.8108%,0%,1)"/>
  <circle cx="3" cy="1" r="1" fill="srgba(0%,61.8921%,0%,1)"/>
  <circle cx="4" cy="1" r="1" fill="srgba(0%,61.5595%,0%,1)"/>
  <circle cx="5" cy="1" r="1" fill="srgba(0,157,0,1)"/>
  <circle cx="6" cy="1" r="1" fill="srgba(0,157,0,1)"/>
  <circle cx="7" cy="1" r="1" fill="srgba(0,157,0,1)"/>
  <circle cx="8" cy="1" r="1" fill="srgba(0,157,0,1)"/>
  <circle cx="9" cy="1" r="1" fill="srgba(0,157,0,1)"/>
  <circle cx="10" cy="1" r="1" fill="srgba(0,157,0,1)"/>
  <circle cx="11" cy="1" r="1" fill="srgba(0,157,0,1)"/>
  <circle cx="12" cy="1" r="1" fill="srgba(0,157,0,1)"/>
  <circle cx="13" cy="1" r="1" fill="srgba(0,157,0,1)"/>
  <circle cx="14" cy="1" r="1" fill="srgba(0,157,0,1)"/>
  <circle cx="15" cy="1" r="1" fill="srgba(0,157,0,1)"/>
  <circle cx="0" cy="2" r="1" fill="srgba(93.8674%,2.75425%,0%,1)"/>
  <circle cx="1" cy="2" r="1" fill="srgba(92.9763%,3.31426%,0%,1)"/>
  <circle cx="2" cy="2" r="1" fill="srgba(49.8802%,30.3105%,0%,1)"/>
  <circle cx="3" cy="2" r="1" fill="srgba(3.63317%,59.6933%,0%,1)"/>
  <circle cx="4" cy="2" r="1" fill="srgba(0%,61.9043%,0%,1)"/>
  <circle cx="5" cy="2" r="1" fill="srgba(0%,61.5595%,0%,1)"/>
  <circle cx="6" cy="2" r="1" fill="srgba(0,157,0,1)"/>
  <circle cx="7" cy="2" r="1" fill="srgba(0,157,0,1)"/>
  <circle cx="8" cy="2" r="1" fill="srgba(0,157,0,1)"/>
  <circle cx="9" cy="2" r="1" fill="srgba(0,157,0,1)"/>
  <circle cx="10" cy="2" r="1" fill="srgba(0,157,0,1)"/>
  <circle cx="11" cy="2" r="1" fill="srgba(0,157,0,1)"/>
  <circle cx="12" cy="2" r="1" fill="srgba(0,157,0,1)"/>
  <circle cx="13" cy="2" r="1" fill="srgba(0,157,0,1)"/>
  <circle cx="14" cy="2" r="1" fill="srgba(0,157,0,1)"/>
  <circle cx="15" cy="2" r="1" fill="srgba(0,157,0,1)"/>
  <circle cx="0" cy="3" r="1" fill="srgba(93.4646%,2.99382%,0%,1)"/>
  <circle cx="1" cy="3" r="1" fill="srgba(94.9523%,2.07675%,0%,1)"/>
  <circle cx="2" cy="3" r="1" fill="srgba(93.0282%,3.28069%,0%,1)"/>
  <circle cx="3" cy="3" r="1" fill="srgba(50.4311%,29.9702%,0%,1)"/>
  <circle cx="4" cy="3" r="1" fill="srgba(3.78424%,59.5315%,0%,1)"/>
  <circle cx="5" cy="3" r="1" fill="srgba(0%,61.3794%,0%,1)"/>
  <circle cx="6" cy="3" r="1" fill="srgba(0%,60.9125%,0%,1)"/>
  <circle cx="7" cy="3" r="1" fill="srgba(0%,60.9277%,0%,1)"/>
  <circle cx="8" cy="3" r="1" fill="srgba(0%,60.9277%,0%,1)"/>
  <circle cx="9" cy="3" r="1" fill="srgba(0%,60.9277%,0%,1)"/>
  <circle cx="10" cy="3" r="1" fill="srgba(0%,60.9277%,0%,1)"/>
  <circle cx="11" cy="3" r="1" fill="srgba(0%,60.9277%,0%,1)"/>
  <circle cx="12" cy="3" r="1" fill="srgba(0%,60.9277%,0%,1)"/>
  <circle cx="13" cy="3" r="1" fill="srgba(0%,60.9277%,0%,1)"/>
  <circle cx="14" cy="3" r="1" fill="srgba(0%,60.9277%,0%,1)"/>
  <circle cx="15" cy="3" r="1" fill="srgba(0%,60.9277%,0%,1)"/>
  <circle cx="0" cy="4" r="1" fill="srgba(93.994%,3.10063%,0%,1)"/>
  <circle cx="1" cy="4" r="1" fill="srgba(94.5281%,2.31785%,0%,1)"/>
  <circle cx="2" cy="4" r="1" fill="srgba(94.8852%,2.11795%,0%,1)"/>
  <circle cx="3" cy="4" r="1" fill="srgba(92.6925%,3.03502%,0%,1)"/>
  <circle cx="4" cy="4" r="1" fill="srgba(58.8251%,32.7657%,0%,1)"/>
  <circle cx="5" cy="4" r="1" fill="srgba(42.8077%,74.7417%,0%,1)"/>
  <circle cx="6" cy="4" r="1" fill="srgba(43.6957%,78.9288%,0%,1)"/>
  <circle cx="7" cy="4" r="1" fill="srgba(43.6622%,78.3383%,0%,1)"/>
  <circle cx="8" cy="4" r="1" fill="srgba(43.6637%,78.3536%,0%,1)"/>
  <circle cx="9" cy="4" r="1" fill="srgba(43.6637%,78.3536%,0%,1)"/>
  <circle cx="10" cy="4" r="1" fill="srgba(43.6637%,78.3536%,0%,1)"/>
  <circle cx="11" cy="4" r="1" fill="srgba(43.6637%,78.3536%,0%,1)"/>
  <circle cx="12" cy="4" r="1" fill="srgba(43.6637%,78.3536%,0%,1)"/>
  <circle cx="13" cy="4" r="1" fill="srgba(43.6637%,78.3536%,0%,1)"/>
  <circle cx="14" cy="4" r="1" fill="srgba(43.6637%,78.3536%,0%,1)"/>
  <circle cx="15" cy="4" r="1" fill="srgba(43.6637%,78.3536%,0%,1)"/>
  <circle cx="0" cy="5" r="1" fill="srgba(94.5678%,3.23949%,0%,1)"/>
  <circle cx="1" cy="5" r="1" fill="srgba(94.5068%,2.30411%,0%,1)"/>
  <circle cx="2" cy="5" r="1" fill="srgba(94.4991%,2.35904%,0%,1)"/>
  <circle cx="3" cy="5" r="1" fill="srgba(94.6838%,2.05081%,0%,1)"/>
  <circle cx="4" cy="5" r="1" fill="srgba(95.6268%,4.09247%,0%,1)"/>
  <circle cx="5" cy="5" r="1" fill="srgba(97.8347%,47.48%,0%,1)"/>
  <circle cx="6" cy="5" r="1" fill="srgba(99.9664%,96.0357%,0%,1)"/>
  <circle cx="7" cy="5" r="1" fill="yellow"/>
  <circle cx="8" cy="5" r="1" fill="yellow"/>
  <circle cx="9" cy="5" r="1" fill="yellow"/>
  <circle cx="10" cy="5" r="1" fill="yellow"/>
  <circle cx="11" cy="5" r="1" fill="yellow"/>
  <circle cx="12" cy="5" r="1" fill="yellow"/>
  <circle cx="13" cy="5" r="1" fill="yellow"/>
  <circle cx="14" cy="5" r="1" fill="yellow"/>
  <circle cx="15" cy="5" r="1" fill="yellow"/>
  <circle cx="0" cy="6" r="1" fill="srgba(94.5556%,3.15251%,0%,1)"/>
  <circle cx="1" cy="6" r="1" fill="srgba(94.5068%,2.30869%,0%,1)"/>
  <circle cx="2" cy="6" r="1" fill="srgba(241,6,0,1)"/>
  <circle cx="3" cy="6" r="1" fill="srgba(94.5098%,2.36362%,0%,1)"/>
  <circle cx="4" cy="6" r="1" fill="srgba(94.4839%,1.98367%,0%,1)"/>
  <circle cx="5" cy="6" r="1" fill="srgba(94.7829%,3.68658%,0%,1)"/>
  <circle cx="6" cy="6" r="1" fill="srgba(96.4752%,45.6474%,0%,1)"/>
  <circle cx="7" cy="6" r="1" fill="srgba(92.9885%,89.5659%,0%,1)"/>
  <circle cx="8" cy="6" r="1" fill="yellow"/>
  <circle cx="9" cy="6" r="1" fill="yellow"/>
  <circle cx="10" cy="6" r="1" fill="yellow"/>
  <circle cx="11" cy="6" r="1" fill="yellow"/>
  <circle cx="12" cy="6" r="1" fill="srgba(99.411%,99.411%,0%,1)"/>
  <circle cx="13" cy="6" r="1" fill="srgba(92.5917%,92.5917%,0%,1)"/>
  <circle cx="14" cy="6" r="1" fill="srgba(99.5102%,99.5102%,0%,1)"/>
  <circle cx="15" cy="6" r="1" fill="yellow"/>
  <circle cx="0" cy="7" r="1" fill="srgba(94.5495%,3.06859%,0%,1)"/>
  <circle cx="1" cy="7" r="1" fill="srgba(94.5083%,2.31327%,0%,1)"/>
  <circle cx="2" cy="7" r="1" fill="srgba(241,6,0,1)"/>
  <circle cx="3" cy="7" r="1" fill="srgba(241,6,0,1)"/>
  <circle cx="4" cy="7" r="1" fill="srgba(94.7173%,2.3682%,0%,1)"/>
  <circle cx="5" cy="7" r="1" fill="srgba(91.4519%,1.96994%,0%,1)"/>
  <circle cx="6" cy="7" r="1" fill="srgba(66.0273%,1.58846%,0%,1)"/>
  <circle cx="7" cy="7" r="1" fill="srgba(43.6851%,33.3089%,0%,1)"/>
  <circle cx="8" cy="7" r="1" fill="srgba(82.9313%,83.3371%,0%,1)"/>
  <circle cx="9" cy="7" r="1" fill="srgba(99.5285%,99.5407%,0%,1)"/>
  <circle cx="10" cy="7" r="1" fill="yellow"/>
  <circle cx="11" cy="7" r="1" fill="srgba(98.3551%,98.3551%,0%,1)"/>
  <circle cx="12" cy="7" r="1" fill="srgba(76.2631%,76.2631%,0%,1)"/>
  <circle cx="13" cy="7" r="1" fill="srgba(42.7024%,42.7024%,0%,1)"/>
  <circle cx="14" cy="7" r="1" fill="srgba(77.763%,77.763%,0%,1)"/>
  <circle cx="15" cy="7" r="1" fill="srgba(98.323%,98.323%,0%,1)"/>
  <circle cx="0" cy="8" r="1" fill="srgba(94.5449%,2.98161%,0%,1)"/>
  <circle cx="1" cy="8" r="1" fill="srgba(94.5083%,2.31785%,0%,1)"/>
  <circle cx="2" cy="8" r="1" fill="srgba(241,6,0,1)"/>
  <circle cx="3" cy="8" r="1" fill="srgba(241,6,0,1)"/>
  <circle cx="4" cy="8" r="1" fill="srgba(94.6014%,2.37278%,0%,1)"/>
  <circle cx="5" cy="8" r="1" fill="srgba(94.0764%,1.89822%,0%,1)"/>
  <circle cx="6" cy="8" r="1" fill="srgba(50.2251%,2.2858%,0%,1)"/>
  <circle cx="7" cy="8" r="1" fill="srgba(14.1787%,14.2672%,0%,1)"/>
  <circle cx="8" cy="8" r="1" fill="srgba(73.0373%,73.0083%,0%,1)"/>
  <circle cx="9" cy="8" r="1" fill="yellow"/>
  <circle cx="10" cy="8" r="1" fill="yellow"/>
  <circle cx="11" cy="8" r="1" fill="yellow"/>
  <circle cx="12" cy="8" r="1" fill="srgba(64.477%,64.477%,0%,1)"/>
  <circle cx="13" cy="8" r="1" fill="srgba(12.6589%,12.6589%,0%,1)"/>
  <circle cx="14" cy="8" r="1" fill="srgba(62.9465%,62.9465%,0%,1)"/>
  <circle cx="15" cy="8" r="1" fill="yellow"/>
  <circle cx="0" cy="9" r="1" fill="srgba(94.5403%,2.89311%,0%,1)"/>
  <circle cx="1" cy="9" r="1" fill="srgba(94.5083%,2.32242%,0%,1)"/>
  <circle cx="2" cy="9" r="1" fill="srgba(241,6,0,1)"/>
  <circle cx="3" cy="9" r="1" fill="srgba(94.5113%,2.36973%,0%,1)"/>
  <circle cx="4" cy="9" r="1" fill="srgba(94.4762%,1.74411%,0%,1)"/>
  <circle cx="5" cy="9" r="1" fill="srgba(94.8363%,6.40574%,0%,1)"/>
  <circle cx="6" cy="9" r="1" fill="srgba(83.1922%,51.8761%,0%,1)"/>
  <circle cx="7" cy="9" r="1" fill="srgba(81.1429%,82.269%,0%,1)"/>
  <circle cx="8" cy="9" r="1" fill="srgba(91.5541%,91.5557%,0%,1)"/>
  <circle cx="9" cy="9" r="1" fill="yellow"/>
  <circle cx="10" cy="9" r="1" fill="yellow"/>
  <circle cx="11" cy="9" r="1" fill="yellow"/>
  <circle cx="12" cy="9" r="1" fill="srgba(87.5303%,87.5288%,0%,1)"/>
  <circle cx="13" cy="9" r="1" fill="srgba(80.9354%,80.9339%,0%,1)"/>
  <circle cx="14" cy="9" r="1" fill="srgba(88.7221%,88.7205%,0%,1)"/>
  <circle cx="15" cy="9" r="1" fill="yellow"/>
  <circle cx="0" cy="10" r="1" fill="srgba(94.5373%,2.81224%,0%,1)"/>
  <circle cx="1" cy="10" r="1" fill="srgba(94.5083%,2.327%,0%,1)"/>
  <circle cx="2" cy="10" r="1" fill="srgba(94.4945%,2.3621%,0%,1)"/>
  <circle cx="3" cy="10" r="1" fill="srgba(94.7646%,1.87991%,0%,1)"/>
  <circle cx="4" cy="10" r="1" fill="srgba(95.7702%,6.41337%,0%,1)"/>
  <circle cx="5" cy="10" r="1" fill="srgba(98.2925%,56.7758%,0%,1)"/>
  <circle cx="6" cy="10" r="1" fill="srgba(100%,98.4146%,0%,1)"/>
  <circle cx="7" cy="10" r="1" fill="yellow"/>
  <circle cx="8" cy="10" r="1" fill="srgba(100%,99.9802%,0%,1)"/>
  <circle cx="9" cy="10" r="1" fill="yellow"/>
  <circle cx="10" cy="10" r="1" fill="yellow"/>
  <circle cx="11" cy="10" r="1" fill="srgba(100%,99.9985%,0%,1)"/>
  <circle cx="12" cy="10" r="1" fill="srgba(100%,99.9771%,0%,1)"/>
  <circle cx="13" cy="10" r="1" fill="srgba(100%,99.9954%,0%,1)"/>
  <circle cx="14" cy="10" r="1" fill="srgba(100%,99.9786%,0%,1)"/>
  <circle cx="15" cy="10" r="1" fill="yellow"/>
  <circle cx="0" cy="11" r="1" fill="srgba(94.3297%,2.64897%,0%,1)"/>
  <circle cx="1" cy="11" r="1" fill="srgba(94.5052%,2.34531%,0%,1)"/>
  <circle cx="2" cy="11" r="1" fill="srgba(95.0484%,2.01572%,0%,1)"/>
  <circle cx="3" cy="11" r="1" fill="srgba(90.7012%,4.17029%,0%,1)"/>
  <circle cx="4" cy="11" r="1" fill="srgba(54.6563%,39.0677%,0%,1)"/>
  <circle cx="5" cy="11" r="1" fill="srgba(42.9435%,76.9589%,0%,1)"/>
  <circle cx="6" cy="11" r="1" fill="srgba(43.6835%,78.6954%,0%,1)"/>
  <circle cx="7" cy="11" r="1" fill="srgba(43.6637%,78.3444%,0%,1)"/>
  <circle cx="8" cy="11" r="1" fill="srgba(43.6637%,78.3536%,0%,1)"/>
  <circle cx="9" cy="11" r="1" fill="srgba(43.6637%,78.3536%,0%,1)"/>
  <circle cx="10" cy="11" r="1" fill="srgba(43.6637%,78.3536%,0%,1)"/>
  <circle cx="11" cy="11" r="1" fill="srgba(43.6637%,78.3536%,0%,1)"/>
  <circle cx="12" cy="11" r="1" fill="srgba(43.6637%,78.3536%,0%,1)"/>
  <circle cx="13" cy="11" r="1" fill="srgba(43.6637%,78.3536%,0%,1)"/>
  <circle cx="14" cy="11" r="1" fill="srgba(43.6637%,78.3536%,0%,1)"/>
  <circle cx="15" cy="11" r="1" fill="srgba(43.6637%,78.3536%,0%,1)"/>
  <circle cx="0" cy="12" r="1" fill="srgba(94.2092%,2.533%,0%,1)"/>
  <circle cx="1" cy="12" r="1" fill="srgba(95.0362%,2.02335%,0%,1)"/>
  <circle cx="2" cy="12" r="1" fill="srgba(91.5419%,4.21302%,0%,1)"/>
  <circle cx="3" cy="12" r="1" fill="srgba(43.978%,34.0291%,0%,1)"/>
  <circle cx="4" cy="12" r="1" fill="srgba(1.98978%,60.6439%,0%,1)"/>
  <circle cx="5" cy="12" r="1" fill="srgba(0%,61.2116%,0%,1)"/>
  <circle cx="6" cy="12" r="1" fill="srgba(0%,60.9171%,0%,1)"/>
  <circle cx="7" cy="12" r="1" fill="srgba(0%,60.9277%,0%,1)"/>
  <circle cx="8" cy="12" r="1" fill="srgba(0%,60.9277%,0%,1)"/>
  <circle cx="9" cy="12" r="1" fill="srgba(0%,60.9277%,0%,1)"/>
  <circle cx="10" cy="12" r="1" fill="srgba(0%,60.9277%,0%,1)"/>
  <circle cx="11" cy="12" r="1" fill="srgba(0%,60.9277%,0%,1)"/>
  <circle cx="12" cy="12" r="1" fill="srgba(0%,60.9277%,0%,1)"/>
  <circle cx="13" cy="12" r="1" fill="srgba(0%,60.9277%,0%,1)"/>
  <circle cx="14" cy="12" r="1" fill="srgba(0%,60.9277%,0%,1)"/>
  <circle cx="15" cy="12" r="1" fill="srgba(0%,60.9277%,0%,1)"/>
  <circle cx="0" cy="13" r="1" fill="srgba(94.8714%,2.12406%,0%,1)"/>
  <circle cx="1" cy="13" r="1" fill="srgba(91.8441%,4.0238%,0%,1)"/>
  <circle cx="2" cy="13" r="1" fill="srgba(44.8997%,33.4432%,0%,1)"/>
  <circle cx="3" cy="13" r="1" fill="srgba(2.18662%,60.6287%,0%,1)"/>
  <circle cx="4" cy="13" r="1" fill="srgba(0%,61.8021%,0%,1)"/>
  <circle cx="5" cy="13" r="1" fill="srgba(0%,61.5625%,0%,1)"/>
  <circle cx="6" cy="13" r="1" fill="srgba(0,157,0,1)"/>
  <circle cx="7" cy="13" r="1" fill="srgba(0,157,0,1)"/>
  <circle cx="8" cy="13" r="1" fill="srgba(0,157,0,1)"/>
  <circle cx="9" cy="13" r="1" fill="srgba(0,157,0,1)"/>
  <circle cx="10" cy="13" r="1" fill="srgba(0,157,0,1)"/>
  <circle cx="11" cy="13" r="1" fill="srgba(0,157,0,1)"/>
  <circle cx="12" cy="13" r="1" fill="srgba(0,157,0,1)"/>
  <circle cx="13" cy="13" r="1" fill="srgba(0,157,0,1)"/>
  <circle cx="14" cy="13" r="1" fill="srgba(0,157,0,1)"/>
  <circle cx="15" cy="13" r="1" fill="srgba(0,157,0,1)"/>
  <circle cx="0" cy="14" r="1" fill="srgba(90.8629%,4.64027%,0%,1)"/>
  <circle cx="1" cy="14" r="1" fill="srgba(45.8534%,32.842%,0%,1)"/>
  <circle cx="2" cy="14" r="1" fill="srgba(2.3743%,60.502%,0%,1)"/>
  <circle cx="3" cy="14" r="1" fill="srgba(0%,61.8143%,0%,1)"/>
  <circle cx="4" cy="14" r="1" fill="srgba(0%,61.5625%,0%,1)"/>
  <circle cx="5" cy="14" r="1" fill="srgba(0,157,0,1)"/>
  <circle cx="6" cy="14" r="1" fill="srgba(0,157,0,1)"/>
  <circle cx="7" cy="14" r="1" fill="srgba(0,157,0,1)"/>
  <circle cx="8" cy="14" r="1" fill="srgba(0,157,0,1)"/>
  <circle cx="9" cy="14" r="1" fill="srgba(0,157,0,1)"/>
  <circle cx="10" cy="14" r="1" fill="srgba(0,157,0,1)"/>
  <circle cx="11" cy="14" r="1" fill="srgba(0,157,0,1)"/>
  <circle cx="12" cy="14" r="1" fill="srgba(0,157,0,1)"/>
  <circle cx="13" cy="14" r="1" fill="srgba(0,157,0,1)"/>
  <circle cx="14" cy="14" r="1" fill="srgba(0,157,0,1)"/>
  <circle cx="15" cy="14" r="1" fill="srgba(0,157,0,1)"/>
  <circle cx="0" cy="15" r="1" fill="srgba(46.5644%,32.398%,0%,1)"/>
  <circle cx="1" cy="15" r="1" fill="srgba(3.7293%,59.707%,0%,1)"/>
  <circle cx="2" cy="15" r="1" fill="srgba(0%,61.8662%,0%,1)"/>
  <circle cx="3" cy="15" r="1" fill="srgba(0%,61.561%,0%,1)"/>
  <circle cx="4" cy="15" r="1" fill="srgba(0,157,0,1)"/>
  <circle cx="5" cy="15" r="1" fill="srgba(0,157,0,1)"/>
  <circle cx="6" cy="15" r="1" fill="srgba(0,157,0,1)"/>
  <circle cx="7" cy="15" r="1" fill="srgba(0,157,0,1)"/>
  <circle cx="8" cy="15" r="1" fill="srgba(0,157,0,1)"/>
  <circle cx="9" cy="15" r="1" fill="srgba(0,157,0,1)"/>
  <circle cx="10" cy="15" r="1" fill="srgba(0,157,0,1)"/>
  <circle cx="11" cy="15" r="1" fill="srgba(0,157,0,1)"/>
  <circle cx="12" cy="15" r="1" fill="srgba(0,157,0,1)"/>
  <circle cx="13" cy="15" r="1" fill="srgba(0,157,0,1)"/>
  <circle cx="14" cy="15" r="1" fill="srgba(0,157,0,1)"/>
  <circle cx="15" cy="15" r="1" fill="srgba(0,157,0,1)"/>
</svg>
