<?xml version="1.0" standalone="no"?>
<!DOCTYPE svg PUBLIC "-//W3C//DTD SVG 20010904//EN"
  "http://www.w3.org/TR/2001/REC-SVG-20010904/DTD/svg10.dtd">
<svg width="16" height="16">
  <circle cx="0" cy="0" r="1" fill="srgba(15,71,175,1)"/>
  <circle cx="1" cy="0" r="1" fill="srgba(15,71,175,1)"/>
  <circle cx="2" cy="0" r="1" fill="srgba(15,71,175,1)"/>
  <circle cx="3" cy="0" r="1" fill="srgba(15,71,175,1)"/>
  <circle cx="4" cy="0" r="1" fill="srgba(15,71,175,1)"/>
  <circle cx="5" cy="0" r="1" fill="srgba(15,71,175,1)"/>
  <circle cx="6" cy="0" r="1" fill="srgba(15,71,175,1)"/>
  <circle cx="7" cy="0" r="1" fill="srgba(15,71,175,1)"/>
  <circle cx="8" cy="0" r="1" fill="srgba(15,71,175,1)"/>
  <circle cx="9" cy="0" r="1" fill="srgba(15,71,175,1)"/>
  <circle cx="10" cy="0" r="1" fill="srgba(15,71,175,1)"/>
  <circle cx="11" cy="0" r="1" fill="srgba(15,71,175,1)"/>
  <circle cx="12" cy="0" r="1" fill="srgba(15,71,175,1)"/>
  <circle cx="13" cy="0" r="1" fill="srgba(15,71,175,1)"/>
  <circle cx="14" cy="0" r="1" fill="srgba(15,71,175,1)"/>
  <circle cx="15" cy="0" r="1" fill="srgba(15,71,175,1)"/>
  <circle cx="0" cy="1" r="1" fill="srgba(15,71,175,1)"/>
  <circle cx="1" cy="1" r="1" fill="srgba(15,71,175,1)"/>
  <circle cx="2" cy="1" r="1" fill="srgba(15,71,175,1)"/>
  <circle cx="3" cy="1" r="1" fill="srgba(15,71,175,1)"/>
  <circle cx="4" cy="1" r="1" fill="srgba(15,71,175,1)"/>
  <circle cx="5" cy="1" r="1" fill="srgba(15,71,175,1)"/>
  <circle cx="6" cy="1" r="1" fill="srgba(15,71,175,1)"/>
  <circle cx="7" cy="1" r="1" fill="srgba(15,71,175,1)"/>
  <circle cx="8" cy="1" r="1" fill="srgba(15,71,175,1)"/>
  <circle cx="9" cy="1" r="1" fill="srgba(15,71,175,1)"/>
  <circle cx="10" cy="1" r="1" fill="srgba(15,71,175,1)"/>
  <circle cx="11" cy="1" r="1" fill="srgba(15,71,175,1)"/>
  <circle cx="12" cy="1" r="1" fill="srgba(15,71,175,1)"/>
  <circle cx="13" cy="1" r="1" fill="srgba(15,71,175,1)"/>
  <circle cx="14" cy="1" r="1" fill="srgba(15,71,175,1)"/>
  <circle cx="15" cy="1" r="1" fill="srgba(15,71,175,1)"/>
  <circle cx="0" cy="2" r="1" fill="srgba(15,71,175,1)"/>
  <circle cx="1" cy="2" r="1" fill="srgba(15,71,175,1)"/>
  <circle cx="2" cy="2" r="1" fill="srgba(15,71,175,1)"/>
  <circle cx="3" cy="2" r="1" fill="srgba(15,71,175,1)"/>
  <circle cx="4" cy="2" r="1" fill="srgba(15,71,175,1)"/>
  <circle cx="5" cy="2" r="1" fill="srgba(15,71,175,1)"/>
  <circle cx="6" cy="2" r="1" fill="srgba(15,71,175,1)"/>
  <circle cx="7" cy="2" r="1" fill="srgba(15,71,175,1)"/>
  <circle cx="8" cy="2" r="1" fill="srgba(15,71,175,1)"/>
  <circle cx="9" cy="2" r="1" fill="srgba(15,71,175,1)"/>
  <circle cx="10" cy="2" r="1" fill="srgba(15,71,175,1)"/>
  <circle cx="11" cy="2" r="1" fill="srgba(15,71,175,1)"/>
  <circle cx="12" cy="2" r="1" fill="srgba(15,71,175,1)"/>
  <circle cx="13" cy="2" r="1" fill="srgba(15,71,175,1)"/>
  <circle cx="14" cy="2" r="1" fill="srgba(15,71,175,1)"/>
  <circle cx="15" cy="2" r="1" fill="srgba(15,71,175,1)"/>
  <circle cx="0" cy="3" r="1" fill="srgba(5.84115%,27.8111%,68.6137%,1)"/>
  <circle cx="1" cy="3" r="1" fill="srgba(5.84115%,27.8111%,68.6137%,1)"/>
  <circle cx="2" cy="3" r="1" fill="srgba(5.84115%,27.8111%,68.6137%,1)"/>
  <circle cx="3" cy="3" r="1" fill="srgba(5.84115%,27.8111%,68.6137%,1)"/>
  <circle cx="4" cy="3" r="1" fill="srgba(5.84115%,27.8111%,68.6137%,1)"/>
  <circle cx="5" cy="3" r="1" fill="srgba(5.84115%,27.8111%,68.6137%,1)"/>
  <circle cx="6" cy="3" r="1" fill="srgba(5.84115%,27.8111%,68.6137%,1)"/>
  <circle cx="7" cy="3" r="1" fill="srgba(5.84115%,27.8111%,68.6137%,1)"/>
  <circle cx="8" cy="3" r="1" fill="srgba(5.84115%,27.8111%,68.6137%,1)"/>
  <circle cx="9" cy="3" r="1" fill="srgba(5.84115%,27.8111%,68.6137%,1)"/>
  <circle cx="10" cy="3" r="1" fill="srgba(5.84115%,27.8111%,68.6137%,1)"/>
  <circle cx="11" cy="3" r="1" fill="srgba(5.84115%,27.8111%,68.6137%,1)"/>
  <circle cx="12" cy="3" r="1" fill="srgba(5.84115%,27.8111%,68.6137%,1)"/>
  <circle cx="13" cy="3" r="1" fill="srgba(5.84115%,27.8111%,68.6137%,1)"/>
  <circle cx="14" cy="3" r="1" fill="srgba(5.84115%,27.8111%,68.6137%,1)"/>
  <circle cx="15" cy="3" r="1" fill="srgba(5.84115%,27.8111%,68.6137%,1)"/>
  <circle cx="0" cy="4" r="1" fill="srgba(6.30198%,28.1651%,68.7678%,1)"/>
  <circle cx="1" cy="4" r="1" fill="srgba(6.30198%,28.1651%,68.7678%,1)"/>
  <circle cx="2" cy="4" r="1" fill="srgba(6.30198%,28.1651%,68.7678%,1)"/>
  <circle cx="3" cy="4" r="1" fill="srgba(6.30198%,28.1651%,68.7678%,1)"/>
  <circle cx="4" cy="4" r="1" fill="srgba(6.30198%,28.1651%,68.7678%,1)"/>
  <circle cx="5" cy="4" r="1" fill="srgba(6.30198%,28.1651%,68.7648%,1)"/>
  <circle cx="6" cy="4" r="1" fill="srgba(6.30503%,28.1788%,68.8197%,1)"/>
  <circle cx="7" cy="4" r="1" fill="srgba(6.30655%,28.3101%,69.4789%,1)"/>
  <circle cx="8" cy="4" r="1" fill="srgba(6.31418%,28.4367%,70.0816%,1)"/>
  <circle cx="9" cy="4" r="1" fill="srgba(6.31266%,28.3879%,69.8451%,1)"/>
  <circle cx="10" cy="4" r="1" fill="srgba(6.30961%,28.3375%,69.6056%,1)"/>
  <circle cx="11" cy="4" r="1" fill="srgba(6.30961%,28.3055%,69.4484%,1)"/>
  <circle cx="12" cy="4" r="1" fill="srgba(6.30961%,28.2689%,69.2592%,1)"/>
  <circle cx="13" cy="4" r="1" fill="srgba(6.30961%,28.2475%,69.1569%,1)"/>
  <circle cx="14" cy="4" r="1" fill="srgba(6.30961%,28.2261%,69.0532%,1)"/>
  <circle cx="15" cy="4" r="1" fill="srgba(6.30961%,28.2216%,69.0227%,1)"/>
  <circle cx="0" cy="5" r="1" fill="srgba(66.6423%,74.6944%,90.2296%,1)"/>
  <circle cx="1" cy="5" r="1" fill="srgba(66.7277%,74.7478%,90.2281%,1)"/>
  <circle cx="2" cy="5" r="1" fill="srgba(66.8727%,74.8638%,90.2617%,1)"/>
  <circle cx="3" cy="5" r="1" fill="srgba(67.0817%,75.0317%,90.2083%,1)"/>
  <circle cx="4" cy="5" r="1" fill="srgba(67.0588%,75.0027%,90.2754%,1)"/>
  <circle cx="5" cy="5" r="1" fill="srgba(66.9764%,74.9645%,90.341%,1)"/>
  <circle cx="6" cy="5" r="1" fill="srgba(66.7582%,74.5876%,89.3721%,1)"/>
  <circle cx="7" cy="5" r="1" fill="srgba(66.6072%,72.1126%,77.525%,1)"/>
  <circle cx="8" cy="5" r="1" fill="srgba(66.4134%,69.6269%,65.8152%,1)"/>
  <circle cx="9" cy="5" r="1" fill="srgba(66.4302%,70.4631%,69.9474%,1)"/>
  <circle cx="10" cy="5" r="1" fill="srgba(66.6804%,71.4839%,74.0078%,1)"/>
  <circle cx="11" cy="5" r="1" fill="srgba(66.8223%,72.1294%,76.5209%,1)"/>
  <circle cx="12" cy="5" r="1" fill="srgba(66.9139%,72.7993%,79.4583%,1)"/>
  <circle cx="13" cy="5" r="1" fill="srgba(66.5797%,72.9137%,81.3809%,1)"/>
  <circle cx="14" cy="5" r="1" fill="srgba(66.5217%,73.2372%,83.1998%,1)"/>
  <circle cx="15" cy="5" r="1" fill="srgba(66.5217%,73.3562%,83.8254%,1)"/>
  <circle cx="0" cy="6" r="1" fill="srgba(99.942%,96.1944%,77.9355%,1)"/>
  <circle cx="1" cy="6" r="1" fill="srgba(99.4446%,95.3216%,77.9126%,1)"/>
  <circle cx="2" cy="6" r="1" fill="srgba(97.1374%,93.0541%,76.3149%,1)"/>
  <circle cx="3" cy="6" r="1" fill="srgba(93.5821%,90.0618%,76.0662%,1)"/>
  <circle cx="4" cy="6" r="1" fill="srgba(94.2794%,90.7469%,74.9111%,1)"/>
  <circle cx="5" cy="6" r="1" fill="srgba(95.5276%,91.4122%,74.0856%,1)"/>
  <circle cx="6" cy="6" r="1" fill="srgba(97.4228%,90.6432%,64.4572%,1)"/>
  <circle cx="7" cy="6" r="1" fill="srgba(99.2157%,85.9953%,31.4153%,1)"/>
  <circle cx="8" cy="6" r="1" fill="srgba(99.9924%,82.4781%,9.29427%,1)"/>
  <circle cx="9" cy="6" r="1" fill="srgba(99.7498%,82.7771%,13.5119%,1)"/>
  <circle cx="10" cy="6" r="1" fill="srgba(97.0779%,81.2299%,18.7304%,1)"/>
  <circle cx="11" cy="6" r="1" fill="srgba(95.4559%,79.646%,22.8458%,1)"/>
  <circle cx="12" cy="6" r="1" fill="srgba(94.0078%,79.2233%,27.3899%,1)"/>
  <circle cx="13" cy="6" r="1" fill="srgba(99.2859%,84.033%,25.8869%,1)"/>
  <circle cx="14" cy="6" r="1" fill="srgba(100%,85.3651%,27.2786%,1)"/>
  <circle cx="15" cy="6" r="1" fill="srgba(100%,85.6214%,28.2444%,1)"/>
  <circle cx="0" cy="7" r="1" fill="srgba(98.3474%,82.9557%,21.3443%,1)"/>
  <circle cx="1" cy="7" r="1" fill="srgba(95.6725%,80.647%,19.5346%,1)"/>
  <circle cx="2" cy="7" r="1" fill="srgba(91.5892%,75.5108%,12.0409%,1)"/>
  <circle cx="3" cy="7" r="1" fill="srgba(86.7109%,71.4824%,9.61013%,1)"/>
  <circle cx="4" cy="7" r="1" fill="srgba(90.5211%,74.4533%,6.01663%,1)"/>
  <circle cx="5" cy="7" r="1" fill="srgba(94.1161%,76.6247%,4.70588%,1)"/>
  <circle cx="6" cy="7" r="1" fill="srgba(97.084%,78.3078%,2.99687%,1)"/>
  <circle cx="7" cy="7" r="1" fill="srgba(97.7569%,79.6963%,6.60716%,1)"/>
  <circle cx="8" cy="7" r="1" fill="srgba(99.9176%,80.0488%,0.735485%,1)"/>
  <circle cx="9" cy="7" r="1" fill="srgba(99.8245%,79.9283%,0%,1)"/>
  <circle cx="10" cy="7" r="1" fill="srgba(96.7956%,77.7478%,0.981155%,1)"/>
  <circle cx="11" cy="7" r="1" fill="srgba(92.2957%,65.594%,3.32494%,1)"/>
  <circle cx="12" cy="7" r="1" fill="srgba(84.5457%,41.3413%,5.79385%,1)"/>
  <circle cx="13" cy="7" r="1" fill="srgba(91.8868%,36.0311%,0.849928%,1)"/>
  <circle cx="14" cy="7" r="1" fill="srgba(93.6751%,37.7844%,1.49691%,1)"/>
  <circle cx="15" cy="7" r="1" fill="srgba(93.698%,39.6155%,3.8529%,1)"/>
  <circle cx="0" cy="8" r="1" fill="srgba(99.7192%,79.7177%,0%,1)"/>
  <circle cx="1" cy="8" r="1" fill="srgba(99.9496%,79.881%,0%,1)"/>
  <circle cx="2" cy="8" r="1" fill="srgba(100%,80.0122%,0%,1)"/>
  <circle cx="3" cy="8" r="1" fill="srgba(100%,80.2029%,0%,1)"/>
  <circle cx="4" cy="8" r="1" fill="srgba(100%,80.1083%,0%,1)"/>
  <circle cx="5" cy="8" r="1" fill="srgba(100%,80.174%,0%,1)"/>
  <circle cx="6" cy="8" r="1" fill="srgba(96.8826%,78.7503%,1.80209%,1)"/>
  <circle cx="7" cy="8" r="1" fill="srgba(92.8618%,76.4935%,7.0222%,1)"/>
  <circle cx="8" cy="8" r="1" fill="srgba(99.4675%,78.9654%,0.523384%,1)"/>
  <circle cx="9" cy="8" r="1" fill="srgba(99.4766%,76.582%,0%,1)"/>
  <circle cx="10" cy="8" r="1" fill="srgba(99.5651%,75.3841%,0%,1)"/>
  <circle cx="11" cy="8" r="1" fill="srgba(99.3729%,72.0516%,0%,1)"/>
  <circle cx="12" cy="8" r="1" fill="srgba(99.1547%,70.7317%,0.00457771%,1)"/>
  <circle cx="13" cy="8" r="1" fill="srgba(97.0275%,62.06%,0.0595102%,1)"/>
  <circle cx="14" cy="8" r="1" fill="srgba(94.9584%,46.1189%,1.03456%,1)"/>
  <circle cx="15" cy="8" r="1" fill="srgba(93.2265%,32.1889%,0.590524%,1)"/>
  <circle cx="0" cy="9" r="1" fill="srgba(99.8764%,79.9008%,0%,1)"/>
  <circle cx="1" cy="9" r="1" fill="srgba(99.8901%,79.9115%,0%,1)"/>
  <circle cx="2" cy="9" r="1" fill="srgba(99.8566%,79.8856%,0%,1)"/>
  <circle cx="3" cy="9" r="1" fill="srgba(99.8199%,79.8566%,0%,1)"/>
  <circle cx="4" cy="9" r="1" fill="srgba(99.8016%,79.8428%,0%,1)"/>
  <circle cx="5" cy="9" r="1" fill="srgba(99.9527%,79.9481%,0%,1)"/>
  <circle cx="6" cy="9" r="1" fill="srgba(99.0906%,79.7543%,0.65156%,1)"/>
  <circle cx="7" cy="9" r="1" fill="srgba(96.9818%,72.9854%,2.67643%,1)"/>
  <circle cx="8" cy="9" r="1" fill="srgba(98.5168%,76.0922%,0.450141%,1)"/>
  <circle cx="9" cy="9" r="1" fill="srgba(98.1018%,69.5033%,0%,1)"/>
  <circle cx="10" cy="9" r="1" fill="srgba(97.5555%,60.7065%,0%,1)"/>
  <circle cx="11" cy="9" r="1" fill="srgba(95.7275%,45.066%,0%,1)"/>
  <circle cx="12" cy="9" r="1" fill="srgba(97.8622%,62.7527%,0%,1)"/>
  <circle cx="13" cy="9" r="1" fill="srgba(99.8444%,79.2782%,0.0030518%,1)"/>
  <circle cx="14" cy="9" r="1" fill="srgba(97.1481%,56.3302%,0.108339%,1)"/>
  <circle cx="15" cy="9" r="1" fill="srgba(95.0118%,38.8235%,0.0671397%,1)"/>
  <circle cx="0" cy="10" r="1" fill="srgba(100%,80.0061%,0%,1)"/>
  <circle cx="1" cy="10" r="1" fill="srgba(100%,80.0061%,0%,1)"/>
  <circle cx="2" cy="10" r="1" fill="srgba(100%,80.0076%,0%,1)"/>
  <circle cx="3" cy="10" r="1" fill="srgba(100%,80.0092%,0%,1)"/>
  <circle cx="4" cy="10" r="1" fill="srgba(99.9985%,80.0122%,0%,1)"/>
  <circle cx="5" cy="10" r="1" fill="srgba(99.9802%,79.9878%,0%,1)"/>
  <circle cx="6" cy="10" r="1" fill="srgba(99.8459%,80.1007%,0.236515%,1)"/>
  <circle cx="7" cy="10" r="1" fill="srgba(98.6435%,75.2285%,1.77157%,1)"/>
  <circle cx="8" cy="10" r="1" fill="srgba(99.35%,77.0809%,0.672923%,1)"/>
  <circle cx="9" cy="10" r="1" fill="srgba(100%,80.3021%,0%,1)"/>
  <circle cx="10" cy="10" r="1" fill="srgba(99.9619%,79.8032%,0%,1)"/>
  <circle cx="11" cy="10" r="1" fill="srgba(99.9237%,79.3774%,0%,1)"/>
  <circle cx="12" cy="10" r="1" fill="srgba(99.9298%,79.4293%,0%,1)"/>
  <circle cx="13" cy="10" r="1" fill="srgba(99.9969%,80.0778%,0%,1)"/>
  <circle cx="14" cy="10" r="1" fill="srgba(99.9893%,80.1389%,0%,1)"/>
  <circle cx="15" cy="10" r="1" fill="srgba(99.9924%,80.0183%,0%,1)"/>
  <circle cx="0" cy="11" r="1" fill="srgba(255,204,0,1)"/>
  <circle cx="1" cy="11" r="1" fill="srgba(255,204,0,1)"/>
  <circle cx="2" cy="11" r="1" fill="srgba(255,204,0,1)"/>
  <circle cx="3" cy="11" r="1" fill="srgba(100%,80.0061%,0%,1)"/>
  <circle cx="4" cy="11" r="1" fill="srgba(99.9023%,79.9252%,0%,1)"/>
  <circle cx="5" cy="11" r="1" fill="srgba(99.7604%,79.8077%,0%,1)"/>
  <circle cx="6" cy="11" r="1" fill="srgba(100%,80.7233%,0%,1)"/>
  <circle cx="7" cy="11" r="1" fill="srgba(96.701%,64.2878%,3.05638%,1)"/>
  <circle cx="8" cy="11" r="1" fill="srgba(97.0245%,67.483%,3.40581%,1)"/>
  <circle cx="9" cy="11" r="1" fill="srgba(100%,80.6577%,0%,1)"/>
  <circle cx="10" cy="11" r="1" fill="srgba(100%,80.0061%,0%,1)"/>
  <circle cx="11" cy="11" r="1" fill="srgba(100%,80.0137%,0%,1)"/>
  <circle cx="12" cy="11" r="1" fill="srgba(100%,80.0092%,0%,1)"/>
  <circle cx="13" cy="11" r="1" fill="srgba(255,204,0,1)"/>
  <circle cx="14" cy="11" r="1" fill="srgba(100%,80.0031%,0%,1)"/>
  <circle cx="15" cy="11" r="1" fill="srgba(100%,80.0092%,0%,1)"/>
  <circle cx="0" cy="12" r="1" fill="srgba(255,204,0,1)"/>
  <circle cx="1" cy="12" r="1" fill="srgba(255,204,0,1)"/>
  <circle cx="2" cy="12" r="1" fill="srgba(100%,80.0031%,0%,1)"/>
  <circle cx="3" cy="12" r="1" fill="srgba(99.9588%,79.9725%,0%,1)"/>
  <circle cx="4" cy="12" r="1" fill="srgba(99.6948%,79.7574%,0%,1)"/>
  <circle cx="5" cy="12" r="1" fill="srgba(99.9191%,79.9374%,0%,1)"/>
  <circle cx="6" cy="12" r="1" fill="srgba(100%,80.1816%,0%,1)"/>
  <circle cx="7" cy="12" r="1" fill="srgba(99.2172%,76.7666%,0.691234%,1)"/>
  <circle cx="8" cy="12" r="1" fill="srgba(99.0845%,76.9284%,0.952163%,1)"/>
  <circle cx="9" cy="12" r="1" fill="srgba(100%,80.1678%,0%,1)"/>
  <circle cx="10" cy="12" r="1" fill="srgba(255,204,0,1)"/>
  <circle cx="11" cy="12" r="1" fill="srgba(255,204,0,1)"/>
  <circle cx="12" cy="12" r="1" fill="srgba(255,204,0,1)"/>
  <circle cx="13" cy="12" r="1" fill="srgba(255,204,0,1)"/>
  <circle cx="14" cy="12" r="1" fill="srgba(255,204,0,1)"/>
  <circle cx="15" cy="12" r="1" fill="srgba(255,204,0,1)"/>
  <circle cx="0" cy="13" r="1" fill="srgba(255,204,0,1)"/>
  <circle cx="1" cy="13" r="1" fill="srgba(255,204,0,1)"/>
  <circle cx="2" cy="13" r="1" fill="srgba(99.9908%,79.9969%,0%,1)"/>
  <circle cx="3" cy="13" r="1" fill="srgba(99.733%,79.7864%,0%,1)"/>
  <circle cx="4" cy="13" r="1" fill="srgba(99.8489%,79.8825%,0%,1)"/>
  <circle cx="5" cy="13" r="1" fill="srgba(100%,80.0076%,0%,1)"/>
  <circle cx="6" cy="13" r="1" fill="srgba(100%,79.9908%,0%,1)"/>
  <circle cx="7" cy="13" r="1" fill="srgba(99.9985%,80.1663%,0%,1)"/>
  <circle cx="8" cy="13" r="1" fill="srgba(99.9985%,80.148%,0%,1)"/>
  <circle cx="9" cy="13" r="1" fill="srgba(100%,79.9924%,0%,1)"/>
  <circle cx="10" cy="13" r="1" fill="srgba(255,204,0,1)"/>
  <circle cx="11" cy="13" r="1" fill="srgba(255,204,0,1)"/>
  <circle cx="12" cy="13" r="1" fill="srgba(255,204,0,1)"/>
  <circle cx="13" cy="13" r="1" fill="srgba(255,204,0,1)"/>
  <circle cx="14" cy="13" r="1" fill="srgba(255,204,0,1)"/>
  <circle cx="15" cy="13" r="1" fill="srgba(255,204,0,1)"/>
  <circle cx="0" cy="14" r="1" fill="srgba(255,204,0,1)"/>
  <circle cx="1" cy="14" r="1" fill="srgba(100%,80.0046%,0%,1)"/>
  <circle cx="2" cy="14" r="1" fill="srgba(99.8016%,79.8428%,0%,1)"/>
  <circle cx="3" cy="14" r="1" fill="srgba(99.7726%,79.8199%,0%,1)"/>
  <circle cx="4" cy="14" r="1" fill="srgba(100%,80.0046%,0%,1)"/>
  <circle cx="5" cy="14" r="1" fill="srgba(255,204,0,1)"/>
  <circle cx="6" cy="14" r="1" fill="srgba(255,204,0,1)"/>
  <circle cx="7" cy="14" r="1" fill="srgba(255,204,0,1)"/>
  <circle cx="8" cy="14" r="1" fill="srgba(255,204,0,1)"/>
  <circle cx="9" cy="14" r="1" fill="srgba(255,204,0,1)"/>
  <circle cx="10" cy="14" r="1" fill="srgba(255,204,0,1)"/>
  <circle cx="11" cy="14" r="1" fill="srgba(255,204,0,1)"/>
  <circle cx="12" cy="14" r="1" fill="srgba(255,204,0,1)"/>
  <circle cx="13" cy="14" r="1" fill="srgba(255,204,0,1)"/>
  <circle cx="14" cy="14" r="1" fill="srgba(255,204,0,1)"/>
  <circle cx="15" cy="14" r="1" fill="srgba(255,204,0,1)"/>
  <circle cx="0" cy="15" r="1" fill="srgba(100%,80.0046%,0%,1)"/>
  <circle cx="1" cy="15" r="1" fill="srgba(99.91%,79.9283%,0%,1)"/>
  <circle cx="2" cy="15" r="1" fill="srgba(99.6872%,79.7498%,0%,1)"/>
  <circle cx="3" cy="15" r="1" fill="srgba(99.9771%,79.9878%,0%,1)"/>
  <circle cx="4" cy="15" r="1" fill="srgba(100%,80.0015%,0%,1)"/>
  <circle cx="5" cy="15" r="1" fill="srgba(255,204,0,1)"/>
  <circle cx="6" cy="15" r="1" fill="srgba(255,204,0,1)"/>
  <circle cx="7" cy="15" r="1" fill="srgba(255,204,0,1)"/>
  <circle cx="8" cy="15" r="1" fill="srgba(255,204,0,1)"/>
  <circle cx="9" cy="15" r="1" fill="srgba(255,204,0,1)"/>
  <circle cx="10" cy="15" r="1" fill="srgba(255,204,0,1)"/>
  <circle cx="11" cy="15" r="1" fill="srgba(255,204,0,1)"/>
  <circle cx="12" cy="15" r="1" fill="srgba(255,204,0,1)"/>
  <circle cx="13" cy="15" r="1" fill="srgba(255,204,0,1)"/>
  <circle cx="14" cy="15" r="1" fill="srgba(255,204,0,1)"/>
  <circle cx="15" cy="15" r="1" fill="srgba(255,204,0,1)"/>
</svg>
