<?xml version="1.0" standalone="no"?>
<!DOCTYPE svg PUBLIC "-//W3C//DTD SVG 20010904//EN"
  "http://www.w3.org/TR/2001/REC-SVG-20010904/DTD/svg10.dtd">
<svg width="16" height="16">
  <circle cx="0" cy="0" r="1" fill="srgba(97.3999%,69.0486%,71.3664%,1)"/>
  <circle cx="1" cy="0" r="1" fill="srgba(93.8415%,26.7689%,32.2469%,1)"/>
  <circle cx="2" cy="0" r="1" fill="srgba(92.8374%,14.8425%,21.21%,1)"/>
  <circle cx="3" cy="0" r="1" fill="srgba(92.9366%,16.0235%,22.3011%,1)"/>
  <circle cx="4" cy="0" r="1" fill="srgba(92.9412%,16.0815%,22.356%,1)"/>
  <circle cx="5" cy="0" r="1" fill="srgba(237,41,57,1)"/>
  <circle cx="6" cy="0" r="1" fill="srgba(237,41,57,1)"/>
  <circle cx="7" cy="0" r="1" fill="srgba(237,41,57,1)"/>
  <circle cx="8" cy="0" r="1" fill="srgba(237,41,57,1)"/>
  <circle cx="9" cy="0" r="1" fill="srgba(237,41,57,1)"/>
  <circle cx="10" cy="0" r="1" fill="srgba(237,41,57,1)"/>
  <circle cx="11" cy="0" r="1" fill="srgba(237,41,57,1)"/>
  <circle cx="12" cy="0" r="1" fill="srgba(237,41,57,1)"/>
  <circle cx="13" cy="0" r="1" fill="srgba(237,41,57,1)"/>
  <circle cx="14" cy="0" r="1" fill="srgba(237,41,57,1)"/>
  <circle cx="15" cy="0" r="1" fill="srgba(237,41,57,1)"/>
  <circle cx="0" cy="1" r="1" fill="srgba(99.9695%,99.6307%,99.6582%,1)"/>
  <circle cx="1" cy="1" r="1" fill="srgba(98.3612%,80.4944%,81.9547%,1)"/>
  <circle cx="2" cy="1" r="1" fill="srgba(94.5998%,35.7778%,40.5814%,1)"/>
  <circle cx="3" cy="1" r="1" fill="srgba(92.8954%,15.5322%,21.8479%,1)"/>
  <circle cx="4" cy="1" r="1" fill="srgba(92.9183%,15.8022%,22.0966%,1)"/>
  <circle cx="5" cy="1" r="1" fill="srgba(92.9427%,16.0891%,22.3636%,1)"/>
  <circle cx="6" cy="1" r="1" fill="srgba(237,41,57,1)"/>
  <circle cx="7" cy="1" r="1" fill="srgba(237,41,57,1)"/>
  <circle cx="8" cy="1" r="1" fill="srgba(237,41,57,1)"/>
  <circle cx="9" cy="1" r="1" fill="srgba(237,41,57,1)"/>
  <circle cx="10" cy="1" r="1" fill="srgba(237,41,57,1)"/>
  <circle cx="11" cy="1" r="1" fill="srgba(237,41,57,1)"/>
  <circle cx="12" cy="1" r="1" fill="srgba(237,41,57,1)"/>
  <circle cx="13" cy="1" r="1" fill="srgba(237,41,57,1)"/>
  <circle cx="14" cy="1" r="1" fill="srgba(237,41,57,1)"/>
  <circle cx="15" cy="1" r="1" fill="srgba(237,41,57,1)"/>
  <circle cx="0" cy="2" r="1" fill="white"/>
  <circle cx="1" cy="2" r="1" fill="white"/>
  <circle cx="2" cy="2" r="1" fill="srgba(99.2737%,91.3481%,91.9966%,1)"/>
  <circle cx="3" cy="2" r="1" fill="srgba(95.8419%,50.5287%,54.2306%,1)"/>
  <circle cx="4" cy="2" r="1" fill="srgba(93.1334%,18.3627%,24.4678%,1)"/>
  <circle cx="5" cy="2" r="1" fill="srgba(92.8801%,15.3628%,21.6907%,1)"/>
  <circle cx="6" cy="2" r="1" fill="srgba(92.9427%,16.0922%,22.3651%,1)"/>
  <circle cx="7" cy="2" r="1" fill="srgba(237,41,57,1)"/>
  <circle cx="8" cy="2" r="1" fill="srgba(237,41,57,1)"/>
  <circle cx="9" cy="2" r="1" fill="srgba(237,41,57,1)"/>
  <circle cx="10" cy="2" r="1" fill="srgba(237,41,57,1)"/>
  <circle cx="11" cy="2" r="1" fill="srgba(237,41,57,1)"/>
  <circle cx="12" cy="2" r="1" fill="srgba(237,41,57,1)"/>
  <circle cx="13" cy="2" r="1" fill="srgba(237,41,57,1)"/>
  <circle cx="14" cy="2" r="1" fill="srgba(237,41,57,1)"/>
  <circle cx="15" cy="2" r="1" fill="srgba(237,41,57,1)"/>
  <circle cx="0" cy="3" r="1" fill="white"/>
  <circle cx="1" cy="3" r="1" fill="white"/>
  <circle cx="2" cy="3" r="1" fill="white"/>
  <circle cx="3" cy="3" r="1" fill="srgba(99.7955%,97.4121%,98.0331%,1)"/>
  <circle cx="4" cy="3" r="1" fill="srgba(97.1984%,66.4927%,69.6544%,1)"/>
  <circle cx="5" cy="3" r="1" fill="srgba(93.7011%,24.9699%,30.6218%,1)"/>
  <circle cx="6" cy="3" r="1" fill="srgba(92.8588%,15.0088%,21.387%,1)"/>
  <circle cx="7" cy="3" r="1" fill="srgba(92.9366%,16.0128%,22.3209%,1)"/>
  <circle cx="8" cy="3" r="1" fill="srgba(92.9412%,16.0708%,22.3575%,1)"/>
  <circle cx="9" cy="3" r="1" fill="srgba(237,41,57,1)"/>
  <circle cx="10" cy="3" r="1" fill="srgba(237,41,57,1)"/>
  <circle cx="11" cy="3" r="1" fill="srgba(237,41,57,1)"/>
  <circle cx="12" cy="3" r="1" fill="srgba(237,41,57,1)"/>
  <circle cx="13" cy="3" r="1" fill="srgba(92.9549%,16.08%,22.356%,1)"/>
  <circle cx="14" cy="3" r="1" fill="srgba(92.9885%,16.0861%,22.3636%,1)"/>
  <circle cx="15" cy="3" r="1" fill="srgba(92.9839%,16.0861%,22.3636%,1)"/>
  <circle cx="0" cy="4" r="1" fill="white"/>
  <circle cx="1" cy="4" r="1" fill="white"/>
  <circle cx="2" cy="4" r="1" fill="srgba(99.884%,99.7299%,99.7314%,1)"/>
  <circle cx="3" cy="4" r="1" fill="srgba(99.5392%,99.1196%,90.7225%,1)"/>
  <circle cx="4" cy="4" r="1" fill="srgba(99.7757%,99.4858%,89.8817%,1)"/>
  <circle cx="5" cy="4" r="1" fill="srgba(98.1643%,80.2243%,81.4664%,1)"/>
  <circle cx="6" cy="4" r="1" fill="srgba(94.4152%,35.4788%,40.4685%,1)"/>
  <circle cx="7" cy="4" r="1" fill="srgba(93.019%,16.1181%,22.5498%,1)"/>
  <circle cx="8" cy="4" r="1" fill="srgba(92.9854%,15.1888%,22.4857%,1)"/>
  <circle cx="9" cy="4" r="1" fill="srgba(92.9473%,14.9096%,22.6108%,1)"/>
  <circle cx="10" cy="4" r="1" fill="srgba(92.9412%,14.9432%,22.5986%,1)"/>
  <circle cx="11" cy="4" r="1" fill="srgba(92.9351%,14.9737%,22.5925%,1)"/>
  <circle cx="12" cy="4" r="1" fill="srgba(92.9427%,15.0088%,22.591%,1)"/>
  <circle cx="13" cy="4" r="1" fill="srgba(92.665%,14.992%,22.5208%,1)"/>
  <circle cx="14" cy="4" r="1" fill="srgba(91.9997%,14.9096%,22.3606%,1)"/>
  <circle cx="15" cy="4" r="1" fill="srgba(92.0989%,14.992%,22.3774%,1)"/>
  <circle cx="0" cy="5" r="1" fill="white"/>
  <circle cx="1" cy="5" r="1" fill="white"/>
  <circle cx="2" cy="5" r="1" fill="srgba(90.1244%,80.9583%,78.8098%,1)"/>
  <circle cx="3" cy="5" r="1" fill="srgba(80.856%,61.1002%,42.6703%,1)"/>
  <circle cx="4" cy="5" r="1" fill="srgba(89.0959%,70.9285%,43.1098%,1)"/>
  <circle cx="5" cy="5" r="1" fill="srgba(86.0349%,73.3257%,54.8852%,1)"/>
  <circle cx="6" cy="5" r="1" fill="srgba(85.2491%,64.0757%,47.0909%,1)"/>
  <circle cx="7" cy="5" r="1" fill="srgba(88.7617%,46.8788%,23.9277%,1)"/>
  <circle cx="8" cy="5" r="1" fill="srgba(90.8782%,40.2182%,18.4405%,1)"/>
  <circle cx="9" cy="5" r="1" fill="srgba(90.8278%,37.1298%,19.5239%,1)"/>
  <circle cx="10" cy="5" r="1" fill="srgba(91.0369%,36.4858%,19.6353%,1)"/>
  <circle cx="11" cy="5" r="1" fill="srgba(91.2154%,35.6939%,19.675%,1)"/>
  <circle cx="12" cy="5" r="1" fill="srgba(91.3466%,34.7845%,19.7024%,1)"/>
  <circle cx="13" cy="5" r="1" fill="srgba(90.6508%,33.9071%,19.4522%,1)"/>
  <circle cx="14" cy="5" r="1" fill="srgba(90.0664%,33.2418%,19.0738%,1)"/>
  <circle cx="15" cy="5" r="1" fill="srgba(88.0507%,31.4214%,18.5214%,1)"/>
  <circle cx="0" cy="6" r="1" fill="white"/>
  <circle cx="1" cy="6" r="1" fill="srgba(98.529%,99.7925%,100%,1)"/>
  <circle cx="2" cy="6" r="1" fill="srgba(74.8348%,78.8159%,68.2216%,1)"/>
  <circle cx="3" cy="6" r="1" fill="srgba(69.6284%,66.5034%,33.7926%,1)"/>
  <circle cx="4" cy="6" r="1" fill="srgba(74.1985%,64.3702%,25.4612%,1)"/>
  <circle cx="5" cy="6" r="1" fill="srgba(76.8292%,76.4691%,26.0655%,1)"/>
  <circle cx="6" cy="6" r="1" fill="srgba(81.3779%,77.8973%,18.3917%,1)"/>
  <circle cx="7" cy="6" r="1" fill="srgba(88.6366%,87.1427%,6.62394%,1)"/>
  <circle cx="8" cy="6" r="1" fill="srgba(89.5644%,89.9382%,2.12863%,1)"/>
  <circle cx="9" cy="6" r="1" fill="srgba(88.8685%,88.2261%,2.29343%,1)"/>
  <circle cx="10" cy="6" r="1" fill="srgba(89.4316%,87.9911%,2.21256%,1)"/>
  <circle cx="11" cy="6" r="1" fill="srgba(89.9001%,87.5792%,2.08286%,1)"/>
  <circle cx="12" cy="6" r="1" fill="srgba(89.9992%,86.9749%,2.04471%,1)"/>
  <circle cx="13" cy="6" r="1" fill="srgba(91.9493%,88.3482%,2.05234%,1)"/>
  <circle cx="14" cy="6" r="1" fill="srgba(97.0153%,92.8161%,2.03861%,1)"/>
  <circle cx="15" cy="6" r="1" fill="srgba(95.2621%,90.7362%,1.93332%,1)"/>
  <circle cx="0" cy="7" r="1" fill="srgba(99.8886%,99.8184%,96.9665%,1)"/>
  <circle cx="1" cy="7" r="1" fill="srgba(97.9019%,98.9364%,93.5714%,1)"/>
  <circle cx="2" cy="7" r="1" fill="srgba(79.4308%,91.1498%,73.5439%,1)"/>
  <circle cx="3" cy="7" r="1" fill="srgba(96.8399%,98.5672%,51.9509%,1)"/>
  <circle cx="4" cy="7" r="1" fill="srgba(99.0188%,100%,19.4827%,1)"/>
  <circle cx="5" cy="7" r="1" fill="srgba(99.0112%,99.7925%,0.402838%,1)"/>
  <circle cx="6" cy="7" r="1" fill="srgba(99.1943%,99.6277%,0.895705%,1)"/>
  <circle cx="7" cy="7" r="1" fill="srgba(99.6017%,99.8459%,0.0946059%,1)"/>
  <circle cx="8" cy="7" r="1" fill="srgba(99.2325%,99.5331%,0%,1)"/>
  <circle cx="9" cy="7" r="1" fill="srgba(99.0387%,99.3362%,0%,1)"/>
  <circle cx="10" cy="7" r="1" fill="srgba(99.1455%,99.4385%,0%,1)"/>
  <circle cx="11" cy="7" r="1" fill="srgba(99.2096%,99.5132%,0%,1)"/>
  <circle cx="12" cy="7" r="1" fill="srgba(99.3194%,99.6216%,0%,1)"/>
  <circle cx="13" cy="7" r="1" fill="srgba(99.4598%,99.7681%,0%,1)"/>
  <circle cx="14" cy="7" r="1" fill="srgba(99.6399%,99.9542%,0%,1)"/>
  <circle cx="15" cy="7" r="1" fill="srgba(99.6414%,99.9405%,0%,1)"/>
  <circle cx="0" cy="8" r="1" fill="srgba(96.6751%,97.0352%,88.6748%,1)"/>
  <circle cx="1" cy="8" r="1" fill="srgba(92.0012%,94.406%,78.3444%,1)"/>
  <circle cx="2" cy="8" r="1" fill="srgba(77.5814%,90.6859%,78.9563%,1)"/>
  <circle cx="3" cy="8" r="1" fill="srgba(98.3032%,99.0356%,88.5649%,1)"/>
  <circle cx="4" cy="8" r="1" fill="srgba(100%,100%,81.7472%,1)"/>
  <circle cx="5" cy="8" r="1" fill="srgba(100%,100%,23.3783%,1)"/>
  <circle cx="6" cy="8" r="1" fill="yellow"/>
  <circle cx="7" cy="8" r="1" fill="yellow"/>
  <circle cx="8" cy="8" r="1" fill="yellow"/>
  <circle cx="9" cy="8" r="1" fill="yellow"/>
  <circle cx="10" cy="8" r="1" fill="yellow"/>
  <circle cx="11" cy="8" r="1" fill="yellow"/>
  <circle cx="12" cy="8" r="1" fill="yellow"/>
  <circle cx="13" cy="8" r="1" fill="yellow"/>
  <circle cx="14" cy="8" r="1" fill="yellow"/>
  <circle cx="15" cy="8" r="1" fill="yellow"/>
  <circle cx="0" cy="9" r="1" fill="srgba(94.9737%,96.9039%,96.3836%,1)"/>
  <circle cx="1" cy="9" r="1" fill="srgba(70.2602%,87.8721%,92.253%,1)"/>
  <circle cx="2" cy="9" r="1" fill="srgba(62.7405%,84.0009%,75.9686%,1)"/>
  <circle cx="3" cy="9" r="1" fill="srgba(98.407%,98.9624%,93.8003%,1)"/>
  <circle cx="4" cy="9" r="1" fill="white"/>
  <circle cx="5" cy="9" r="1" fill="srgba(100%,100%,87.0253%,1)"/>
  <circle cx="6" cy="9" r="1" fill="srgba(100%,100%,30.9926%,1)"/>
  <circle cx="7" cy="9" r="1" fill="srgba(100%,100%,0.474556%,1)"/>
  <circle cx="8" cy="9" r="1" fill="yellow"/>
  <circle cx="9" cy="9" r="1" fill="yellow"/>
  <circle cx="10" cy="9" r="1" fill="yellow"/>
  <circle cx="11" cy="9" r="1" fill="yellow"/>
  <circle cx="12" cy="9" r="1" fill="yellow"/>
  <circle cx="13" cy="9" r="1" fill="yellow"/>
  <circle cx="14" cy="9" r="1" fill="yellow"/>
  <circle cx="15" cy="9" r="1" fill="yellow"/>
  <circle cx="0" cy="10" r="1" fill="srgba(95.9091%,97.6226%,96.3104%,1)"/>
  <circle cx="1" cy="10" r="1" fill="srgba(51.5389%,78.8922%,85.8396%,1)"/>
  <circle cx="2" cy="10" r="1" fill="srgba(40.3143%,75.1904%,71.1833%,1)"/>
  <circle cx="3" cy="10" r="1" fill="srgba(97.9995%,99.2111%,94.258%,1)"/>
  <circle cx="4" cy="10" r="1" fill="white"/>
  <circle cx="5" cy="10" r="1" fill="white"/>
  <circle cx="6" cy="10" r="1" fill="srgba(100%,100%,91.6228%,1)"/>
  <circle cx="7" cy="10" r="1" fill="srgba(100%,100%,39.2996%,1)"/>
  <circle cx="8" cy="10" r="1" fill="srgba(100%,100%,1.71817%,1)"/>
  <circle cx="9" cy="10" r="1" fill="yellow"/>
  <circle cx="10" cy="10" r="1" fill="yellow"/>
  <circle cx="11" cy="10" r="1" fill="yellow"/>
  <circle cx="12" cy="10" r="1" fill="yellow"/>
  <circle cx="13" cy="10" r="1" fill="yellow"/>
  <circle cx="14" cy="10" r="1" fill="yellow"/>
  <circle cx="15" cy="10" r="1" fill="yellow"/>
  <circle cx="0" cy="11" r="1" fill="srgba(95.8206%,97.6867%,95.1125%,1)"/>
  <circle cx="1" cy="11" r="1" fill="srgba(57.0977%,79.5911%,85.1347%,1)"/>
  <circle cx="2" cy="11" r="1" fill="srgba(41.8494%,74.9111%,71.4137%,1)"/>
  <circle cx="3" cy="11" r="1" fill="srgba(97.7554%,99.2691%,94.2412%,1)"/>
  <circle cx="4" cy="11" r="1" fill="white"/>
  <circle cx="5" cy="11" r="1" fill="white"/>
  <circle cx="6" cy="11" r="1" fill="white"/>
  <circle cx="7" cy="11" r="1" fill="srgba(100%,100%,95.0805%,1)"/>
  <circle cx="8" cy="11" r="1" fill="srgba(100%,100%,48.0461%,1)"/>
  <circle cx="9" cy="11" r="1" fill="srgba(100%,100%,3.73388%,1)"/>
  <circle cx="10" cy="11" r="1" fill="yellow"/>
  <circle cx="11" cy="11" r="1" fill="yellow"/>
  <circle cx="12" cy="11" r="1" fill="yellow"/>
  <circle cx="13" cy="11" r="1" fill="yellow"/>
  <circle cx="14" cy="11" r="1" fill="yellow"/>
  <circle cx="15" cy="11" r="1" fill="yellow"/>
  <circle cx="0" cy="12" r="1" fill="srgba(95.9503%,98.0423%,94.4503%,1)"/>
  <circle cx="1" cy="12" r="1" fill="srgba(56.939%,74.4823%,79.5666%,1)"/>
  <circle cx="2" cy="12" r="1" fill="srgba(40.9079%,71.5328%,69.7414%,1)"/>
  <circle cx="3" cy="12" r="1" fill="srgba(97.5357%,99.4263%,87.776%,1)"/>
  <circle cx="4" cy="12" r="1" fill="srgba(100%,100%,86.7277%,1)"/>
  <circle cx="5" cy="12" r="1" fill="white"/>
  <circle cx="6" cy="12" r="1" fill="white"/>
  <circle cx="7" cy="12" r="1" fill="white"/>
  <circle cx="8" cy="12" r="1" fill="srgba(100%,100%,97.499%,1)"/>
  <circle cx="9" cy="12" r="1" fill="srgba(100%,100%,56.878%,1)"/>
  <circle cx="10" cy="12" r="1" fill="srgba(100%,100%,6.71702%,1)"/>
  <circle cx="11" cy="12" r="1" fill="yellow"/>
  <circle cx="12" cy="12" r="1" fill="yellow"/>
  <circle cx="13" cy="12" r="1" fill="yellow"/>
  <circle cx="14" cy="12" r="1" fill="yellow"/>
  <circle cx="15" cy="12" r="1" fill="yellow"/>
  <circle cx="0" cy="13" r="1" fill="srgba(96.0845%,97.6471%,92.9473%,1)"/>
  <circle cx="1" cy="13" r="1" fill="srgba(56.9284%,81.9196%,86.5675%,1)"/>
  <circle cx="2" cy="13" r="1" fill="srgba(37.9812%,74.6426%,70.8736%,1)"/>
  <circle cx="3" cy="13" r="1" fill="srgba(96.1883%,98.0499%,83.0076%,1)"/>
  <circle cx="4" cy="13" r="1" fill="srgba(100%,100%,43.1632%,1)"/>
  <circle cx="5" cy="13" r="1" fill="srgba(100%,100%,83.888%,1)"/>
  <circle cx="6" cy="13" r="1" fill="white"/>
  <circle cx="7" cy="13" r="1" fill="white"/>
  <circle cx="8" cy="13" r="1" fill="white"/>
  <circle cx="9" cy="13" r="1" fill="srgba(100%,100%,99.06%,1)"/>
  <circle cx="10" cy="13" r="1" fill="srgba(100%,100%,65.4154%,1)"/>
  <circle cx="11" cy="13" r="1" fill="srgba(100%,100%,10.8019%,1)"/>
  <circle cx="12" cy="13" r="1" fill="yellow"/>
  <circle cx="13" cy="13" r="1" fill="yellow"/>
  <circle cx="14" cy="13" r="1" fill="yellow"/>
  <circle cx="15" cy="13" r="1" fill="yellow"/>
  <circle cx="0" cy="14" r="1" fill="srgba(95.7168%,97.1786%,91.5587%,1)"/>
  <circle cx="1" cy="14" r="1" fill="srgba(45.8961%,74.0719%,83.6194%,1)"/>
  <circle cx="2" cy="14" r="1" fill="srgba(31.1284%,70.7027%,62.3056%,1)"/>
  <circle cx="3" cy="14" r="1" fill="srgba(95.7015%,97.7752%,78.5702%,1)"/>
  <circle cx="4" cy="14" r="1" fill="srgba(100%,100%,33.2082%,1)"/>
  <circle cx="5" cy="14" r="1" fill="srgba(100%,100%,17.2534%,1)"/>
  <circle cx="6" cy="14" r="1" fill="srgba(100%,100%,64.831%,1)"/>
  <circle cx="7" cy="14" r="1" fill="srgba(100%,100%,91.6686%,1)"/>
  <circle cx="8" cy="14" r="1" fill="srgba(100%,100%,99.057%,1)"/>
  <circle cx="9" cy="14" r="1" fill="white"/>
  <circle cx="10" cy="14" r="1" fill="srgba(99.9344%,99.9695%,100%,1)"/>
  <circle cx="11" cy="14" r="1" fill="srgba(99.3683%,99.7024%,73.1395%,1)"/>
  <circle cx="12" cy="14" r="1" fill="srgba(97.7493%,98.941%,14.7967%,1)"/>
  <circle cx="13" cy="14" r="1" fill="srgba(99.7848%,99.8993%,0%,1)"/>
  <circle cx="14" cy="14" r="1" fill="yellow"/>
  <circle cx="15" cy="14" r="1" fill="yellow"/>
  <circle cx="0" cy="15" r="1" fill="srgba(65.9541%,71.4733%,78.4039%,1)"/>
  <circle cx="1" cy="15" r="1" fill="srgba(10.7179%,43.6072%,68.7404%,1)"/>
  <circle cx="2" cy="15" r="1" fill="srgba(25.0492%,65.3849%,54.6792%,1)"/>
  <circle cx="3" cy="15" r="1" fill="srgba(96.1578%,98.1964%,67.1427%,1)"/>
  <circle cx="4" cy="15" r="1" fill="srgba(100%,100%,47.6555%,1)"/>
  <circle cx="5" cy="15" r="1" fill="yellow"/>
  <circle cx="6" cy="15" r="1" fill="srgba(100%,100%,3.32189%,1)"/>
  <circle cx="7" cy="15" r="1" fill="srgba(100%,100%,21.6419%,1)"/>
  <circle cx="8" cy="15" r="1" fill="srgba(100%,100%,42.9145%,1)"/>
  <circle cx="9" cy="15" r="1" fill="srgba(100%,100%,54.58%,1)"/>
  <circle cx="10" cy="15" r="1" fill="srgba(90.1472%,95.3628%,57.6883%,1)"/>
  <circle cx="11" cy="15" r="1" fill="srgba(49.0288%,76.0128%,58.2345%,1)"/>
  <circle cx="12" cy="15" r="1" fill="srgba(38.6587%,71.1345%,29.7612%,1)"/>
  <circle cx="13" cy="15" r="1" fill="srgba(83.8346%,92.3919%,2.97551%,1)"/>
  <circle cx="14" cy="15" r="1" fill="yellow"/>
  <circle cx="15" cy="15" r="1" fill="yellow"/>
</svg>
