<?xml version="1.0" standalone="no"?>
<!DOCTYPE svg PUBLIC "-//W3C//DTD SVG 20010904//EN"
  "http://www.w3.org/TR/2001/REC-SVG-20010904/DTD/svg10.dtd">
<svg width="16" height="16">
  <circle cx="0" cy="0" r="1" fill="red"/>
  <circle cx="1" cy="0" r="1" fill="red"/>
  <circle cx="2" cy="0" r="1" fill="red"/>
  <circle cx="3" cy="0" r="1" fill="red"/>
  <circle cx="4" cy="0" r="1" fill="red"/>
  <circle cx="5" cy="0" r="1" fill="red"/>
  <circle cx="6" cy="0" r="1" fill="red"/>
  <circle cx="7" cy="0" r="1" fill="red"/>
  <circle cx="8" cy="0" r="1" fill="red"/>
  <circle cx="9" cy="0" r="1" fill="red"/>
  <circle cx="10" cy="0" r="1" fill="red"/>
  <circle cx="11" cy="0" r="1" fill="red"/>
  <circle cx="12" cy="0" r="1" fill="red"/>
  <circle cx="13" cy="0" r="1" fill="red"/>
  <circle cx="14" cy="0" r="1" fill="red"/>
  <circle cx="15" cy="0" r="1" fill="red"/>
  <circle cx="0" cy="1" r="1" fill="red"/>
  <circle cx="1" cy="1" r="1" fill="red"/>
  <circle cx="2" cy="1" r="1" fill="red"/>
  <circle cx="3" cy="1" r="1" fill="red"/>
  <circle cx="4" cy="1" r="1" fill="red"/>
  <circle cx="5" cy="1" r="1" fill="red"/>
  <circle cx="6" cy="1" r="1" fill="red"/>
  <circle cx="7" cy="1" r="1" fill="red"/>
  <circle cx="8" cy="1" r="1" fill="red"/>
  <circle cx="9" cy="1" r="1" fill="red"/>
  <circle cx="10" cy="1" r="1" fill="red"/>
  <circle cx="11" cy="1" r="1" fill="red"/>
  <circle cx="12" cy="1" r="1" fill="red"/>
  <circle cx="13" cy="1" r="1" fill="red"/>
  <circle cx="14" cy="1" r="1" fill="red"/>
  <circle cx="15" cy="1" r="1" fill="red"/>
  <circle cx="0" cy="2" r="1" fill="red"/>
  <circle cx="1" cy="2" r="1" fill="red"/>
  <circle cx="2" cy="2" r="1" fill="red"/>
  <circle cx="3" cy="2" r="1" fill="red"/>
  <circle cx="4" cy="2" r="1" fill="red"/>
  <circle cx="5" cy="2" r="1" fill="red"/>
  <circle cx="6" cy="2" r="1" fill="red"/>
  <circle cx="7" cy="2" r="1" fill="red"/>
  <circle cx="8" cy="2" r="1" fill="red"/>
  <circle cx="9" cy="2" r="1" fill="red"/>
  <circle cx="10" cy="2" r="1" fill="red"/>
  <circle cx="11" cy="2" r="1" fill="red"/>
  <circle cx="12" cy="2" r="1" fill="red"/>
  <circle cx="13" cy="2" r="1" fill="red"/>
  <circle cx="14" cy="2" r="1" fill="red"/>
  <circle cx="15" cy="2" r="1" fill="red"/>
  <circle cx="0" cy="3" r="1" fill="red"/>
  <circle cx="1" cy="3" r="1" fill="red"/>
  <circle cx="2" cy="3" r="1" fill="red"/>
  <circle cx="3" cy="3" r="1" fill="red"/>
  <circle cx="4" cy="3" r="1" fill="red"/>
  <circle cx="5" cy="3" r="1" fill="red"/>
  <circle cx="6" cy="3" r="1" fill="red"/>
  <circle cx="7" cy="3" r="1" fill="red"/>
  <circle cx="8" cy="3" r="1" fill="red"/>
  <circle cx="9" cy="3" r="1" fill="red"/>
  <circle cx="10" cy="3" r="1" fill="red"/>
  <circle cx="11" cy="3" r="1" fill="red"/>
  <circle cx="12" cy="3" r="1" fill="red"/>
  <circle cx="13" cy="3" r="1" fill="red"/>
  <circle cx="14" cy="3" r="1" fill="red"/>
  <circle cx="15" cy="3" r="1" fill="red"/>
  <circle cx="0" cy="4" r="1" fill="srgba(100%,0.869764%,0.869764%,1)"/>
  <circle cx="1" cy="4" r="1" fill="srgba(100%,0.869764%,0.869764%,1)"/>
  <circle cx="2" cy="4" r="1" fill="srgba(100%,0.869764%,0.869764%,1)"/>
  <circle cx="3" cy="4" r="1" fill="srgba(100%,0.869764%,0.869764%,1)"/>
  <circle cx="4" cy="4" r="1" fill="srgba(100%,0.869764%,0.869764%,1)"/>
  <circle cx="5" cy="4" r="1" fill="srgba(100%,0.869764%,0.869764%,1)"/>
  <circle cx="6" cy="4" r="1" fill="srgba(100%,0.869764%,0.869764%,1)"/>
  <circle cx="7" cy="4" r="1" fill="srgba(100%,0.869764%,0.869764%,1)"/>
  <circle cx="8" cy="4" r="1" fill="srgba(100%,0.869764%,0.869764%,1)"/>
  <circle cx="9" cy="4" r="1" fill="srgba(100%,0.869764%,0.869764%,1)"/>
  <circle cx="10" cy="4" r="1" fill="srgba(100%,0.869764%,0.869764%,1)"/>
  <circle cx="11" cy="4" r="1" fill="srgba(100%,0.869764%,0.869764%,1)"/>
  <circle cx="12" cy="4" r="1" fill="srgba(100%,0.869764%,0.869764%,1)"/>
  <circle cx="13" cy="4" r="1" fill="srgba(100%,0.869764%,0.869764%,1)"/>
  <circle cx="14" cy="4" r="1" fill="srgba(100%,0.869764%,0.869764%,1)"/>
  <circle cx="15" cy="4" r="1" fill="srgba(100%,0.869764%,0.869764%,1)"/>
  <circle cx="0" cy="5" r="1" fill="srgba(100%,66.4561%,66.4561%,1)"/>
  <circle cx="1" cy="5" r="1" fill="srgba(100%,66.4561%,66.4561%,1)"/>
  <circle cx="2" cy="5" r="1" fill="srgba(100%,66.4515%,66.4469%,1)"/>
  <circle cx="3" cy="5" r="1" fill="srgba(100%,66.6407%,66.9169%,1)"/>
  <circle cx="4" cy="5" r="1" fill="srgba(100%,66.5248%,66.6285%,1)"/>
  <circle cx="5" cy="5" r="1" fill="srgba(100%,66.4515%,66.4454%,1)"/>
  <circle cx="6" cy="5" r="1" fill="srgba(100%,66.4561%,66.4561%,1)"/>
  <circle cx="7" cy="5" r="1" fill="srgba(100%,66.4561%,66.4561%,1)"/>
  <circle cx="8" cy="5" r="1" fill="srgba(100%,66.4561%,66.4561%,1)"/>
  <circle cx="9" cy="5" r="1" fill="srgba(100%,66.4561%,66.4561%,1)"/>
  <circle cx="10" cy="5" r="1" fill="srgba(100%,66.4561%,66.4561%,1)"/>
  <circle cx="11" cy="5" r="1" fill="srgba(100%,66.4561%,66.4561%,1)"/>
  <circle cx="12" cy="5" r="1" fill="srgba(100%,66.6529%,66.949%,1)"/>
  <circle cx="13" cy="5" r="1" fill="srgba(100%,66.5064%,66.5843%,1)"/>
  <circle cx="14" cy="5" r="1" fill="srgba(100%,66.453%,66.45%,1)"/>
  <circle cx="15" cy="5" r="1" fill="srgba(100%,66.4561%,66.4561%,1)"/>
  <circle cx="0" cy="6" r="1" fill="white"/>
  <circle cx="1" cy="6" r="1" fill="srgba(99.9924%,100%,100%,1)"/>
  <circle cx="2" cy="6" r="1" fill="white"/>
  <circle cx="3" cy="6" r="1" fill="srgba(88.5481%,96.1486%,89.3187%,1)"/>
  <circle cx="4" cy="6" r="1" fill="srgba(95.8129%,98.6084%,96.1151%,1)"/>
  <circle cx="5" cy="6" r="1" fill="white"/>
  <circle cx="6" cy="6" r="1" fill="white"/>
  <circle cx="7" cy="6" r="1" fill="white"/>
  <circle cx="8" cy="6" r="1" fill="white"/>
  <circle cx="9" cy="6" r="1" fill="white"/>
  <circle cx="10" cy="6" r="1" fill="srgba(99.9893%,100%,100%,1)"/>
  <circle cx="11" cy="6" r="1" fill="white"/>
  <circle cx="12" cy="6" r="1" fill="srgba(87.744%,95.8785%,88.5679%,1)"/>
  <circle cx="13" cy="6" r="1" fill="srgba(96.9451%,98.9914%,97.174%,1)"/>
  <circle cx="14" cy="6" r="1" fill="white"/>
  <circle cx="15" cy="6" r="1" fill="white"/>
  <circle cx="0" cy="7" r="1" fill="white"/>
  <circle cx="1" cy="7" r="1" fill="white"/>
  <circle cx="2" cy="7" r="1" fill="srgba(81.323%,92.5338%,81.323%,1)"/>
  <circle cx="3" cy="7" r="1" fill="srgba(33.0373%,73.0495%,33.0373%,1)"/>
  <circle cx="4" cy="7" r="1" fill="srgba(71.696%,88.6198%,71.696%,1)"/>
  <circle cx="5" cy="7" r="1" fill="white"/>
  <circle cx="6" cy="7" r="1" fill="white"/>
  <circle cx="7" cy="7" r="1" fill="white"/>
  <circle cx="8" cy="7" r="1" fill="white"/>
  <circle cx="9" cy="7" r="1" fill="white"/>
  <circle cx="10" cy="7" r="1" fill="white"/>
  <circle cx="11" cy="7" r="1" fill="srgba(77.9278%,91.1727%,77.9278%,1)"/>
  <circle cx="12" cy="7" r="1" fill="srgba(31.6167%,72.4727%,31.6167%,1)"/>
  <circle cx="13" cy="7" r="1" fill="srgba(76.788%,90.6752%,76.788%,1)"/>
  <circle cx="14" cy="7" r="1" fill="white"/>
  <circle cx="15" cy="7" r="1" fill="white"/>
  <circle cx="0" cy="8" r="1" fill="white"/>
  <circle cx="1" cy="8" r="1" fill="white"/>
  <circle cx="2" cy="8" r="1" fill="srgba(85.7343%,94.2931%,85.7343%,1)"/>
  <circle cx="3" cy="8" r="1" fill="srgba(27.335%,70.9331%,27.335%,1)"/>
  <circle cx="4" cy="8" r="1" fill="srgba(29.72%,71.8883%,29.72%,1)"/>
  <circle cx="5" cy="8" r="1" fill="srgba(89.2744%,95.7107%,89.2744%,1)"/>
  <circle cx="6" cy="8" r="1" fill="white"/>
  <circle cx="7" cy="8" r="1" fill="white"/>
  <circle cx="8" cy="8" r="1" fill="white"/>
  <circle cx="9" cy="8" r="1" fill="white"/>
  <circle cx="10" cy="8" r="1" fill="white"/>
  <circle cx="11" cy="8" r="1" fill="srgba(81.6709%,92.668%,81.6709%,1)"/>
  <circle cx="12" cy="8" r="1" fill="srgba(24.593%,69.8375%,24.593%,1)"/>
  <circle cx="13" cy="8" r="1" fill="srgba(33.46%,73.3837%,33.46%,1)"/>
  <circle cx="14" cy="8" r="1" fill="srgba(92.3873%,96.9543%,92.3873%,1)"/>
  <circle cx="15" cy="8" r="1" fill="white"/>
  <circle cx="0" cy="9" r="1" fill="white"/>
  <circle cx="1" cy="9" r="1" fill="white"/>
  <circle cx="2" cy="9" r="1" fill="srgba(96.3729%,98.7869%,96.3729%,1)"/>
  <circle cx="3" cy="9" r="1" fill="srgba(92.4193%,97.7218%,92.4193%,1)"/>
  <circle cx="4" cy="9" r="1" fill="srgba(69.2409%,88.6259%,69.2409%,1)"/>
  <circle cx="5" cy="9" r="1" fill="srgba(91.2932%,96.8444%,91.2932%,1)"/>
  <circle cx="6" cy="9" r="1" fill="white"/>
  <circle cx="7" cy="9" r="1" fill="white"/>
  <circle cx="8" cy="9" r="1" fill="white"/>
  <circle cx="9" cy="9" r="1" fill="white"/>
  <circle cx="10" cy="9" r="1" fill="white"/>
  <circle cx="11" cy="9" r="1" fill="srgba(95.639%,98.555%,95.639%,1)"/>
  <circle cx="12" cy="9" r="1" fill="srgba(91.9097%,97.5296%,91.9097%,1)"/>
  <circle cx="13" cy="9" r="1" fill="srgba(68.2383%,88.2261%,68.2383%,1)"/>
  <circle cx="14" cy="9" r="1" fill="srgba(93.666%,97.731%,93.666%,1)"/>
  <circle cx="15" cy="9" r="1" fill="white"/>
  <circle cx="0" cy="10" r="1" fill="srgba(66.4561%,66.4561%,66.4561%,1)"/>
  <circle cx="1" cy="10" r="1" fill="srgba(66.4424%,66.45%,66.4424%,1)"/>
  <circle cx="2" cy="10" r="1" fill="srgba(66.6804%,66.5461%,66.6804%,1)"/>
  <circle cx="3" cy="10" r="1" fill="srgba(66.865%,66.6178%,66.865%,1)"/>
  <circle cx="4" cy="10" r="1" fill="srgba(57.2442%,62.8977%,57.2442%,1)"/>
  <circle cx="5" cy="10" r="1" fill="srgba(65.1255%,65.9586%,65.1255%,1)"/>
  <circle cx="6" cy="10" r="1" fill="srgba(66.5003%,66.4714%,66.5003%,1)"/>
  <circle cx="7" cy="10" r="1" fill="srgba(66.4561%,66.4561%,66.4561%,1)"/>
  <circle cx="8" cy="10" r="1" fill="srgba(66.4561%,66.4561%,66.4561%,1)"/>
  <circle cx="9" cy="10" r="1" fill="srgba(66.4561%,66.4561%,66.4561%,1)"/>
  <circle cx="10" cy="10" r="1" fill="srgba(66.4393%,66.45%,66.4393%,1)"/>
  <circle cx="11" cy="10" r="1" fill="srgba(66.7353%,66.5675%,66.7353%,1)"/>
  <circle cx="12" cy="10" r="1" fill="srgba(66.4988%,66.4729%,66.4988%,1)"/>
  <circle cx="13" cy="10" r="1" fill="srgba(57.0062%,62.8061%,57.0062%,1)"/>
  <circle cx="14" cy="10" r="1" fill="srgba(65.7282%,66.1875%,65.7282%,1)"/>
  <circle cx="15" cy="10" r="1" fill="srgba(66.4607%,66.4576%,66.4607%,1)"/>
  <circle cx="0" cy="11" r="1" fill="srgba(0.869764%,0.869764%,0.869764%,1)"/>
  <circle cx="1" cy="11" r="1" fill="srgba(0.869764%,0.869764%,0.869764%,1)"/>
  <circle cx="2" cy="11" r="1" fill="srgba(0.869764%,0.869764%,0.869764%,1)"/>
  <circle cx="3" cy="11" r="1" fill="srgba(0.880446%,0.872816%,0.880446%,1)"/>
  <circle cx="4" cy="11" r="1" fill="srgba(1.09102%,0.99794%,1.09102%,1)"/>
  <circle cx="5" cy="11" r="1" fill="srgba(0.886549%,0.886549%,0.886549%,1)"/>
  <circle cx="6" cy="11" r="1" fill="srgba(0.869764%,0.869764%,0.869764%,1)"/>
  <circle cx="7" cy="11" r="1" fill="srgba(0.869764%,0.869764%,0.869764%,1)"/>
  <circle cx="8" cy="11" r="1" fill="srgba(0.869764%,0.869764%,0.869764%,1)"/>
  <circle cx="9" cy="11" r="1" fill="srgba(0.869764%,0.869764%,0.869764%,1)"/>
  <circle cx="10" cy="11" r="1" fill="srgba(0.869764%,0.869764%,0.869764%,1)"/>
  <circle cx="11" cy="11" r="1" fill="srgba(0.869764%,0.869764%,0.869764%,1)"/>
  <circle cx="12" cy="11" r="1" fill="srgba(0.892653%,0.87892%,0.892653%,1)"/>
  <circle cx="13" cy="11" r="1" fill="srgba(1.09102%,0.999466%,1.09102%,1)"/>
  <circle cx="14" cy="11" r="1" fill="srgba(0.877394%,0.87892%,0.877394%,1)"/>
  <circle cx="15" cy="11" r="1" fill="srgba(0.869764%,0.869764%,0.869764%,1)"/>
  <circle cx="0" cy="12" r="1" fill="black"/>
  <circle cx="1" cy="12" r="1" fill="black"/>
  <circle cx="2" cy="12" r="1" fill="black"/>
  <circle cx="3" cy="12" r="1" fill="black"/>
  <circle cx="4" cy="12" r="1" fill="black"/>
  <circle cx="5" cy="12" r="1" fill="black"/>
  <circle cx="6" cy="12" r="1" fill="black"/>
  <circle cx="7" cy="12" r="1" fill="black"/>
  <circle cx="8" cy="12" r="1" fill="black"/>
  <circle cx="9" cy="12" r="1" fill="black"/>
  <circle cx="10" cy="12" r="1" fill="black"/>
  <circle cx="11" cy="12" r="1" fill="black"/>
  <circle cx="12" cy="12" r="1" fill="black"/>
  <circle cx="13" cy="12" r="1" fill="black"/>
  <circle cx="14" cy="12" r="1" fill="black"/>
  <circle cx="15" cy="12" r="1" fill="black"/>
  <circle cx="0" cy="13" r="1" fill="black"/>
  <circle cx="1" cy="13" r="1" fill="black"/>
  <circle cx="2" cy="13" r="1" fill="black"/>
  <circle cx="3" cy="13" r="1" fill="black"/>
  <circle cx="4" cy="13" r="1" fill="black"/>
  <circle cx="5" cy="13" r="1" fill="black"/>
  <circle cx="6" cy="13" r="1" fill="black"/>
  <circle cx="7" cy="13" r="1" fill="black"/>
  <circle cx="8" cy="13" r="1" fill="black"/>
  <circle cx="9" cy="13" r="1" fill="black"/>
  <circle cx="10" cy="13" r="1" fill="black"/>
  <circle cx="11" cy="13" r="1" fill="black"/>
  <circle cx="12" cy="13" r="1" fill="black"/>
  <circle cx="13" cy="13" r="1" fill="black"/>
  <circle cx="14" cy="13" r="1" fill="black"/>
  <circle cx="15" cy="13" r="1" fill="black"/>
  <circle cx="0" cy="14" r="1" fill="black"/>
  <circle cx="1" cy="14" r="1" fill="black"/>
  <circle cx="2" cy="14" r="1" fill="black"/>
  <circle cx="3" cy="14" r="1" fill="black"/>
  <circle cx="4" cy="14" r="1" fill="black"/>
  <circle cx="5" cy="14" r="1" fill="black"/>
  <circle cx="6" cy="14" r="1" fill="black"/>
  <circle cx="7" cy="14" r="1" fill="black"/>
  <circle cx="8" cy="14" r="1" fill="black"/>
  <circle cx="9" cy="14" r="1" fill="black"/>
  <circle cx="10" cy="14" r="1" fill="black"/>
  <circle cx="11" cy="14" r="1" fill="black"/>
  <circle cx="12" cy="14" r="1" fill="black"/>
  <circle cx="13" cy="14" r="1" fill="black"/>
  <circle cx="14" cy="14" r="1" fill="black"/>
  <circle cx="15" cy="14" r="1" fill="black"/>
  <circle cx="0" cy="15" r="1" fill="black"/>
  <circle cx="1" cy="15" r="1" fill="black"/>
  <circle cx="2" cy="15" r="1" fill="black"/>
  <circle cx="3" cy="15" r="1" fill="black"/>
  <circle cx="4" cy="15" r="1" fill="black"/>
  <circle cx="5" cy="15" r="1" fill="black"/>
  <circle cx="6" cy="15" r="1" fill="black"/>
  <circle cx="7" cy="15" r="1" fill="black"/>
  <circle cx="8" cy="15" r="1" fill="black"/>
  <circle cx="9" cy="15" r="1" fill="black"/>
  <circle cx="10" cy="15" r="1" fill="black"/>
  <circle cx="11" cy="15" r="1" fill="black"/>
  <circle cx="12" cy="15" r="1" fill="black"/>
  <circle cx="13" cy="15" r="1" fill="black"/>
  <circle cx="14" cy="15" r="1" fill="black"/>
  <circle cx="15" cy="15" r="1" fill="black"/>
</svg>
