<?xml version="1.0" standalone="no"?>
<!DOCTYPE svg PUBLIC "-//W3C//DTD SVG 20010904//EN"
  "http://www.w3.org/TR/2001/REC-SVG-20010904/DTD/svg10.dtd">
<svg width="16" height="16">
  <circle cx="0" cy="0" r="1" fill="srgba(62,94,185,1)"/>
  <circle cx="1" cy="0" r="1" fill="srgba(62,94,185,1)"/>
  <circle cx="2" cy="0" r="1" fill="srgba(62,94,185,1)"/>
  <circle cx="3" cy="0" r="1" fill="srgba(62,94,185,1)"/>
  <circle cx="4" cy="0" r="1" fill="srgba(62,94,185,1)"/>
  <circle cx="5" cy="0" r="1" fill="srgba(62,94,185,1)"/>
  <circle cx="6" cy="0" r="1" fill="srgba(62,94,185,1)"/>
  <circle cx="7" cy="0" r="1" fill="srgba(62,94,185,1)"/>
  <circle cx="8" cy="0" r="1" fill="srgba(62,94,185,1)"/>
  <circle cx="9" cy="0" r="1" fill="srgba(62,94,185,1)"/>
  <circle cx="10" cy="0" r="1" fill="srgba(62,94,185,1)"/>
  <circle cx="11" cy="0" r="1" fill="srgba(62,94,185,1)"/>
  <circle cx="12" cy="0" r="1" fill="srgba(62,94,185,1)"/>
  <circle cx="13" cy="0" r="1" fill="srgba(62,94,185,1)"/>
  <circle cx="14" cy="0" r="1" fill="srgba(24.3122%,36.8612%,72.549%,1)"/>
  <circle cx="15" cy="0" r="1" fill="srgba(24.3366%,36.8856%,72.5566%,1)"/>
  <circle cx="0" cy="1" r="1" fill="srgba(23.3417%,36.2432%,73.4813%,1)"/>
  <circle cx="1" cy="1" r="1" fill="srgba(23.3417%,36.2432%,73.4813%,1)"/>
  <circle cx="2" cy="1" r="1" fill="srgba(23.3417%,36.2432%,73.4813%,1)"/>
  <circle cx="3" cy="1" r="1" fill="srgba(23.3417%,36.2432%,73.4813%,1)"/>
  <circle cx="4" cy="1" r="1" fill="srgba(23.3417%,36.2432%,73.4813%,1)"/>
  <circle cx="5" cy="1" r="1" fill="srgba(23.3417%,36.2432%,73.4813%,1)"/>
  <circle cx="6" cy="1" r="1" fill="srgba(23.3417%,36.2432%,73.4813%,1)"/>
  <circle cx="7" cy="1" r="1" fill="srgba(23.3417%,36.2432%,73.4813%,1)"/>
  <circle cx="8" cy="1" r="1" fill="srgba(23.3417%,36.2432%,73.4813%,1)"/>
  <circle cx="9" cy="1" r="1" fill="srgba(23.3417%,36.2432%,73.4813%,1)"/>
  <circle cx="10" cy="1" r="1" fill="srgba(23.3417%,36.2432%,73.4813%,1)"/>
  <circle cx="11" cy="1" r="1" fill="srgba(23.3417%,36.2432%,73.4813%,1)"/>
  <circle cx="12" cy="1" r="1" fill="srgba(23.3417%,36.2432%,73.4813%,1)"/>
  <circle cx="13" cy="1" r="1" fill="srgba(23.3417%,36.2432%,73.4813%,1)"/>
  <circle cx="14" cy="1" r="1" fill="srgba(23.3402%,36.2417%,73.4813%,1)"/>
  <circle cx="15" cy="1" r="1" fill="srgba(23.3661%,36.2661%,73.489%,1)"/>
  <circle cx="0" cy="2" r="1" fill="srgba(40.3616%,47.5669%,57.3602%,1)"/>
  <circle cx="1" cy="2" r="1" fill="srgba(40.3616%,47.5669%,57.3602%,1)"/>
  <circle cx="2" cy="2" r="1" fill="srgba(40.3616%,47.5669%,57.3602%,1)"/>
  <circle cx="3" cy="2" r="1" fill="srgba(40.3616%,47.5669%,57.3602%,1)"/>
  <circle cx="4" cy="2" r="1" fill="srgba(40.3616%,47.5669%,57.3602%,1)"/>
  <circle cx="5" cy="2" r="1" fill="srgba(40.3616%,47.5669%,57.3602%,1)"/>
  <circle cx="6" cy="2" r="1" fill="srgba(40.3616%,47.5669%,57.3602%,1)"/>
  <circle cx="7" cy="2" r="1" fill="srgba(40.3616%,47.5669%,57.3602%,1)"/>
  <circle cx="8" cy="2" r="1" fill="srgba(40.3616%,47.5669%,57.3602%,1)"/>
  <circle cx="9" cy="2" r="1" fill="srgba(40.3616%,47.5669%,57.3602%,1)"/>
  <circle cx="10" cy="2" r="1" fill="srgba(40.3616%,47.5669%,57.3602%,1)"/>
  <circle cx="11" cy="2" r="1" fill="srgba(40.3616%,47.5669%,57.3602%,1)"/>
  <circle cx="12" cy="2" r="1" fill="srgba(40.3616%,47.5669%,57.3602%,1)"/>
  <circle cx="13" cy="2" r="1" fill="srgba(40.3616%,47.5669%,57.3602%,1)"/>
  <circle cx="14" cy="2" r="1" fill="srgba(40.3616%,47.5654%,57.3602%,1)"/>
  <circle cx="15" cy="2" r="1" fill="srgba(40.3754%,47.5822%,57.3709%,1)"/>
  <circle cx="0" cy="3" r="1" fill="srgba(92.1019%,72.7199%,4.60365%,1)"/>
  <circle cx="1" cy="3" r="1" fill="srgba(92.1019%,72.7199%,4.60365%,1)"/>
  <circle cx="2" cy="3" r="1" fill="srgba(92.1019%,72.7199%,4.60365%,1)"/>
  <circle cx="3" cy="3" r="1" fill="srgba(92.1019%,72.7199%,4.60365%,1)"/>
  <circle cx="4" cy="3" r="1" fill="srgba(92.0943%,72.7199%,4.60365%,1)"/>
  <circle cx="5" cy="3" r="1" fill="srgba(92.314%,72.7306%,4.61128%,1)"/>
  <circle cx="6" cy="3" r="1" fill="srgba(93.0755%,72.8008%,4.67689%,1)"/>
  <circle cx="7" cy="3" r="1" fill="srgba(92.6619%,72.1859%,4.06958%,1)"/>
  <circle cx="8" cy="3" r="1" fill="srgba(91.5526%,71.0796%,2.9633%,1)"/>
  <circle cx="9" cy="3" r="1" fill="srgba(91.7372%,71.3893%,3.27306%,1)"/>
  <circle cx="10" cy="3" r="1" fill="srgba(92.05%,72.372%,4.25574%,1)"/>
  <circle cx="11" cy="3" r="1" fill="srgba(92.1065%,72.7291%,4.6128%,1)"/>
  <circle cx="12" cy="3" r="1" fill="srgba(92.1019%,72.7199%,4.60365%,1)"/>
  <circle cx="13" cy="3" r="1" fill="srgba(92.1019%,72.7199%,4.60365%,1)"/>
  <circle cx="14" cy="3" r="1" fill="srgba(92.1035%,72.7199%,4.60212%,1)"/>
  <circle cx="15" cy="3" r="1" fill="srgba(92.0851%,72.7108%,4.62348%,1)"/>
  <circle cx="0" cy="4" r="1" fill="srgba(73.3654%,14.5693%,3.88647%,1)"/>
  <circle cx="1" cy="4" r="1" fill="srgba(73.37%,14.5647%,3.888%,1)"/>
  <circle cx="2" cy="4" r="1" fill="srgba(73.3684%,14.5647%,3.888%,1)"/>
  <circle cx="3" cy="4" r="1" fill="srgba(73.3944%,14.5678%,3.88952%,1)"/>
  <circle cx="4" cy="4" r="1" fill="srgba(74.1375%,14.6105%,3.92004%,1)"/>
  <circle cx="5" cy="4" r="1" fill="srgba(70.164%,14.2596%,3.48058%,1)"/>
  <circle cx="6" cy="4" r="1" fill="srgba(54.9783%,13.106%,2.65965%,1)"/>
  <circle cx="7" cy="4" r="1" fill="srgba(56.7987%,25.9754%,15.2865%,1)"/>
  <circle cx="8" cy="4" r="1" fill="srgba(82.2492%,51.9081%,41.2253%,1)"/>
  <circle cx="9" cy="4" r="1" fill="srgba(79.4827%,39.6307%,28.9479%,1)"/>
  <circle cx="10" cy="4" r="1" fill="srgba(74.4701%,21.0513%,10.3685%,1)"/>
  <circle cx="11" cy="4" r="1" fill="srgba(73.2769%,14.3664%,3.68505%,1)"/>
  <circle cx="12" cy="4" r="1" fill="srgba(73.4081%,14.5754%,3.89563%,1)"/>
  <circle cx="13" cy="4" r="1" fill="srgba(73.4035%,14.6075%,3.93072%,1)"/>
  <circle cx="14" cy="4" r="1" fill="srgba(73.4005%,14.5998%,3.92309%,1)"/>
  <circle cx="15" cy="4" r="1" fill="srgba(73.4005%,14.5373%,3.83917%,1)"/>
  <circle cx="0" cy="5" r="1" fill="srgba(69.1432%,3.92004%,4.75319%,1)"/>
  <circle cx="1" cy="5" r="1" fill="srgba(69.1142%,4.477%,4.70283%,1)"/>
  <circle cx="2" cy="5" r="1" fill="srgba(69.221%,4.61585%,4.69825%,1)"/>
  <circle cx="3" cy="5" r="1" fill="srgba(69.6117%,4.63569%,4.71809%,1)"/>
  <circle cx="4" cy="5" r="1" fill="srgba(53.4386%,2.58946%,2.98009%,1)"/>
  <circle cx="5" cy="5" r="1" fill="srgba(27.1702%,7.94385%,14.5937%,1)"/>
  <circle cx="6" cy="5" r="1" fill="srgba(24.2145%,11.7357%,23.0579%,1)"/>
  <circle cx="7" cy="5" r="1" fill="srgba(49.2485%,32.6268%,34.7097%,1)"/>
  <circle cx="8" cy="5" r="1" fill="srgba(91.0018%,73.7285%,74.2031%,1)"/>
  <circle cx="9" cy="5" r="1" fill="srgba(89.4667%,70.1167%,70.7515%,1)"/>
  <circle cx="10" cy="5" r="1" fill="srgba(81.4679%,49.4591%,50.1244%,1)"/>
  <circle cx="11" cy="5" r="1" fill="srgba(70.7729%,14.1802%,14.8333%,1)"/>
  <circle cx="12" cy="5" r="1" fill="srgba(68.2277%,3.27306%,3.41497%,1)"/>
  <circle cx="13" cy="5" r="1" fill="srgba(68.6412%,3.90173%,3.93835%,1)"/>
  <circle cx="14" cy="5" r="1" fill="srgba(68.4627%,3.59045%,3.61791%,1)"/>
  <circle cx="15" cy="5" r="1" fill="srgba(68.893%,5.68399%,6.1677%,1)"/>
  <circle cx="0" cy="6" r="1" fill="srgba(69.4163%,10.956%,4.13825%,1)"/>
  <circle cx="1" cy="6" r="1" fill="srgba(69.8665%,20.6836%,3.3051%,1)"/>
  <circle cx="2" cy="6" r="1" fill="srgba(70.013%,22.1546%,3.2166%,1)"/>
  <circle cx="3" cy="6" r="1" fill="srgba(46.9627%,13.1731%,2.14694%,1)"/>
  <circle cx="4" cy="6" r="1" fill="srgba(15.7076%,10.811%,14.9935%,1)"/>
  <circle cx="5" cy="6" r="1" fill="srgba(25.2232%,28.4642%,45.51%,1)"/>
  <circle cx="6" cy="6" r="1" fill="srgba(39.6887%,24.2084%,40.4379%,1)"/>
  <circle cx="7" cy="6" r="1" fill="srgba(39.9008%,19.35%,24.1428%,1)"/>
  <circle cx="8" cy="6" r="1" fill="srgba(70.3868%,50.2251%,51.4183%,1)"/>
  <circle cx="9" cy="6" r="1" fill="srgba(77.1283%,57.171%,57.6349%,1)"/>
  <circle cx="10" cy="6" r="1" fill="srgba(78.5718%,57.6562%,57.6501%,1)"/>
  <circle cx="11" cy="6" r="1" fill="srgba(79.6445%,58.0819%,58.0529%,1)"/>
  <circle cx="12" cy="6" r="1" fill="srgba(75.2178%,40.1221%,30.3288%,1)"/>
  <circle cx="13" cy="6" r="1" fill="srgba(68.1743%,20.444%,2.26444%,1)"/>
  <circle cx="14" cy="6" r="1" fill="srgba(68.4184%,26.2959%,14.0032%,1)"/>
  <circle cx="15" cy="6" r="1" fill="srgba(73.9742%,41.2833%,39.4614%,1)"/>
  <circle cx="0" cy="7" r="1" fill="srgba(63.9948%,22.1653%,3.23491%,1)"/>
  <circle cx="1" cy="7" r="1" fill="srgba(64.8615%,23.4913%,3.52941%,1)"/>
  <circle cx="2" cy="7" r="1" fill="srgba(45.864%,16.6552%,2.33005%,1)"/>
  <circle cx="3" cy="7" r="1" fill="srgba(6.17533%,2.95262%,1.06966%,1)"/>
  <circle cx="4" cy="7" r="1" fill="srgba(16.7285%,19.5789%,24.9973%,1)"/>
  <circle cx="5" cy="7" r="1" fill="srgba(31.4183%,31.6365%,34.876%,1)"/>
  <circle cx="6" cy="7" r="1" fill="srgba(28.6198%,26.5919%,30.5821%,1)"/>
  <circle cx="7" cy="7" r="1" fill="srgba(27.3091%,27.4067%,30.0923%,1)"/>
  <circle cx="8" cy="7" r="1" fill="srgba(43.0426%,42.6886%,44.2664%,1)"/>
  <circle cx="9" cy="7" r="1" fill="srgba(56.0052%,54.8348%,55.3201%,1)"/>
  <circle cx="10" cy="7" r="1" fill="srgba(66.0639%,63.9063%,63.8911%,1)"/>
  <circle cx="11" cy="7" r="1" fill="srgba(75.9335%,74.3297%,74.4244%,1)"/>
  <circle cx="12" cy="7" r="1" fill="srgba(95.0759%,91.4107%,89.4087%,1)"/>
  <circle cx="13" cy="7" r="1" fill="srgba(73.7514%,45.0416%,30.9117%,1)"/>
  <circle cx="14" cy="7" r="1" fill="srgba(71.0903%,39.7314%,24.8615%,1)"/>
  <circle cx="15" cy="7" r="1" fill="srgba(72.6299%,35.8953%,22.887%,1)"/>
  <circle cx="0" cy="8" r="1" fill="srgba(61.6495%,8.89906%,4.16114%,1)"/>
  <circle cx="1" cy="8" r="1" fill="srgba(62.3636%,9.12032%,4.87678%,1)"/>
  <circle cx="2" cy="8" r="1" fill="srgba(42.5391%,4.48768%,3.2517%,1)"/>
  <circle cx="3" cy="8" r="1" fill="srgba(3.26238%,0.19379%,0.378424%,1)"/>
  <circle cx="4" cy="8" r="1" fill="srgba(22.7619%,22.9557%,22.9267%,1)"/>
  <circle cx="5" cy="8" r="1" fill="srgba(33.3684%,33.2967%,33.1899%,1)"/>
  <circle cx="6" cy="8" r="1" fill="srgba(32.9519%,32.7871%,32.6497%,1)"/>
  <circle cx="7" cy="8" r="1" fill="srgba(29.8543%,29.8619%,29.7917%,1)"/>
  <circle cx="8" cy="8" r="1" fill="srgba(38.909%,38.9792%,38.8922%,1)"/>
  <circle cx="9" cy="8" r="1" fill="srgba(47.5975%,47.7333%,47.7012%,1)"/>
  <circle cx="10" cy="8" r="1" fill="srgba(63.9429%,64.0864%,64.0879%,1)"/>
  <circle cx="11" cy="8" r="1" fill="srgba(75.7488%,76.1486%,76.1456%,1)"/>
  <circle cx="12" cy="8" r="1" fill="srgba(95.2987%,90.4372%,90.692%,1)"/>
  <circle cx="13" cy="8" r="1" fill="srgba(74.9676%,34.992%,31.4778%,1)"/>
  <circle cx="14" cy="8" r="1" fill="srgba(67.7531%,13.2204%,2.29801%,1)"/>
  <circle cx="15" cy="8" r="1" fill="srgba(70.1854%,15.9594%,3.12505%,1)"/>
  <circle cx="0" cy="9" r="1" fill="srgba(68.9586%,3.34783%,3.69421%,1)"/>
  <circle cx="1" cy="9" r="1" fill="srgba(69.2149%,3.49584%,3.81781%,1)"/>
  <circle cx="2" cy="9" r="1" fill="srgba(67.9286%,3.83154%,3.94598%,1)"/>
  <circle cx="3" cy="9" r="1" fill="srgba(30.3777%,1.96231%,1.95621%,1)"/>
  <circle cx="4" cy="9" r="1" fill="srgba(9.62997%,9.75814%,9.75814%,1)"/>
  <circle cx="5" cy="9" r="1" fill="srgba(14.1833%,14.2275%,14.2275%,1)"/>
  <circle cx="6" cy="9" r="1" fill="srgba(14.0642%,13.7285%,13.7285%,1)"/>
  <circle cx="7" cy="9" r="1" fill="srgba(16.022%,15.9976%,15.9976%,1)"/>
  <circle cx="8" cy="9" r="1" fill="srgba(64.6403%,64.6418%,64.6418%,1)"/>
  <circle cx="9" cy="9" r="1" fill="srgba(87.039%,87.1199%,87.1199%,1)"/>
  <circle cx="10" cy="9" r="1" fill="srgba(86.2303%,86.9139%,86.9139%,1)"/>
  <circle cx="11" cy="9" r="1" fill="srgba(85.0889%,80.0381%,80.0381%,1)"/>
  <circle cx="12" cy="9" r="1" fill="srgba(76.8994%,36.3928%,36.3806%,1)"/>
  <circle cx="13" cy="9" r="1" fill="srgba(69.07%,4.13977%,4.37629%,1)"/>
  <circle cx="14" cy="9" r="1" fill="srgba(69.4606%,4.0177%,4.69673%,1)"/>
  <circle cx="15" cy="9" r="1" fill="srgba(69.3004%,3.95209%,4.72114%,1)"/>
  <circle cx="0" cy="10" r="1" fill="srgba(69.1707%,4.07263%,4.7425%,1)"/>
  <circle cx="1" cy="10" r="1" fill="srgba(69.1646%,4.07263%,4.74403%,1)"/>
  <circle cx="2" cy="10" r="1" fill="srgba(69.6727%,4.10773%,4.77913%,1)"/>
  <circle cx="3" cy="10" r="1" fill="srgba(63.1159%,3.64996%,4.32441%,1)"/>
  <circle cx="4" cy="10" r="1" fill="srgba(19.3011%,0.836194%,1.16579%,1)"/>
  <circle cx="5" cy="10" r="1" fill="black"/>
  <circle cx="6" cy="10" r="1" fill="black"/>
  <circle cx="7" cy="10" r="1" fill="srgba(8.33753%,8.39551%,8.53437%,1)"/>
  <circle cx="8" cy="10" r="1" fill="srgba(59.7604%,59.826%,60.3937%,1)"/>
  <circle cx="9" cy="10" r="1" fill="srgba(95.7076%,93.3532%,94.0261%,1)"/>
  <circle cx="10" cy="10" r="1" fill="srgba(90.3929%,74.6944%,75.3658%,1)"/>
  <circle cx="11" cy="10" r="1" fill="srgba(75.2224%,28.513%,29.1829%,1)"/>
  <circle cx="12" cy="10" r="1" fill="srgba(68.7999%,3.67285%,4.34424%,1)"/>
  <circle cx="13" cy="10" r="1" fill="srgba(69.1646%,3.94141%,4.61128%,1)"/>
  <circle cx="14" cy="10" r="1" fill="srgba(69.1707%,4.07568%,4.74556%,1)"/>
  <circle cx="15" cy="10" r="1" fill="srgba(69.1798%,4.09705%,4.74403%,1)"/>
  <circle cx="0" cy="11" r="1" fill="srgba(73.4005%,14.6593%,3.87579%,1)"/>
  <circle cx="1" cy="11" r="1" fill="srgba(73.4005%,14.6593%,3.87579%,1)"/>
  <circle cx="2" cy="11" r="1" fill="srgba(73.3867%,14.6578%,3.87427%,1)"/>
  <circle cx="3" cy="11" r="1" fill="srgba(74.0475%,14.7036%,3.92004%,1)"/>
  <circle cx="4" cy="11" r="1" fill="srgba(64.9165%,14.0841%,3.299%,1)"/>
  <circle cx="5" cy="11" r="1" fill="srgba(30.1686%,11.7372%,0.953689%,1)"/>
  <circle cx="6" cy="11" r="1" fill="srgba(13.5241%,9.94888%,0%,1)"/>
  <circle cx="7" cy="11" r="1" fill="srgba(24.4572%,12.7825%,3.68353%,1)"/>
  <circle cx="8" cy="11" r="1" fill="srgba(49.2576%,22.359%,12.9061%,1)"/>
  <circle cx="9" cy="11" r="1" fill="srgba(74.0993%,33.0678%,22.2202%,1)"/>
  <circle cx="10" cy="11" r="1" fill="srgba(74.3297%,19.9802%,9.19661%,1)"/>
  <circle cx="11" cy="11" r="1" fill="srgba(73.048%,13.5943%,2.81071%,1)"/>
  <circle cx="12" cy="11" r="1" fill="srgba(73.4051%,14.6014%,3.81781%,1)"/>
  <circle cx="13" cy="11" r="1" fill="srgba(73.4005%,14.6624%,3.87884%,1)"/>
  <circle cx="14" cy="11" r="1" fill="srgba(73.4005%,14.6578%,3.87579%,1)"/>
  <circle cx="15" cy="11" r="1" fill="srgba(73.4051%,14.6777%,3.87884%,1)"/>
  <circle cx="0" cy="12" r="1" fill="srgba(92.0729%,72.7657%,4.65248%,1)"/>
  <circle cx="1" cy="12" r="1" fill="srgba(92.0729%,72.7657%,4.65248%,1)"/>
  <circle cx="2" cy="12" r="1" fill="srgba(92.0729%,72.7657%,4.65248%,1)"/>
  <circle cx="3" cy="12" r="1" fill="srgba(92.0592%,72.7642%,4.65095%,1)"/>
  <circle cx="4" cy="12" r="1" fill="srgba(92.5917%,72.8008%,4.68757%,1)"/>
  <circle cx="5" cy="12" r="1" fill="srgba(90.721%,72.7565%,4.53498%,1)"/>
  <circle cx="6" cy="12" r="1" fill="srgba(82.3819%,69.3355%,4.31373%,1)"/>
  <circle cx="7" cy="12" r="1" fill="srgba(77.4029%,62.8077%,4.5304%,1)"/>
  <circle cx="8" cy="12" r="1" fill="srgba(81.8524%,63.9185%,3.78576%,1)"/>
  <circle cx="9" cy="12" r="1" fill="srgba(92.462%,72.0653%,3.56298%,1)"/>
  <circle cx="10" cy="12" r="1" fill="srgba(92.0089%,72.4071%,4.29541%,1)"/>
  <circle cx="11" cy="12" r="1" fill="srgba(92.0775%,72.7749%,4.66163%,1)"/>
  <circle cx="12" cy="12" r="1" fill="srgba(92.0729%,72.7657%,4.65248%,1)"/>
  <circle cx="13" cy="12" r="1" fill="srgba(92.0729%,72.7657%,4.65248%,1)"/>
  <circle cx="14" cy="12" r="1" fill="srgba(92.0745%,72.7657%,4.65095%,1)"/>
  <circle cx="15" cy="12" r="1" fill="srgba(92.0562%,72.7565%,4.67231%,1)"/>
  <circle cx="0" cy="13" r="1" fill="srgba(40.2502%,47.4937%,57.4609%,1)"/>
  <circle cx="1" cy="13" r="1" fill="srgba(40.2502%,47.4937%,57.4609%,1)"/>
  <circle cx="2" cy="13" r="1" fill="srgba(40.2502%,47.4937%,57.4609%,1)"/>
  <circle cx="3" cy="13" r="1" fill="srgba(40.2502%,47.4937%,57.4609%,1)"/>
  <circle cx="4" cy="13" r="1" fill="srgba(40.2457%,47.4937%,57.4609%,1)"/>
  <circle cx="5" cy="13" r="1" fill="srgba(40.4715%,47.5563%,57.5265%,1)"/>
  <circle cx="6" cy="13" r="1" fill="srgba(39.9786%,45.6046%,55.2316%,1)"/>
  <circle cx="7" cy="13" r="1" fill="srgba(35.4192%,41.6602%,50.7454%,1)"/>
  <circle cx="8" cy="13" r="1" fill="srgba(36.0174%,42.565%,51.7388%,1)"/>
  <circle cx="9" cy="13" r="1" fill="srgba(40.4562%,47.7333%,57.7386%,1)"/>
  <circle cx="10" cy="13" r="1" fill="srgba(40.2502%,47.4937%,57.4609%,1)"/>
  <circle cx="11" cy="13" r="1" fill="srgba(40.2502%,47.4937%,57.4609%,1)"/>
  <circle cx="12" cy="13" r="1" fill="srgba(40.2502%,47.4937%,57.4609%,1)"/>
  <circle cx="13" cy="13" r="1" fill="srgba(40.2502%,47.4937%,57.4609%,1)"/>
  <circle cx="14" cy="13" r="1" fill="srgba(40.2502%,47.4922%,57.4609%,1)"/>
  <circle cx="15" cy="13" r="1" fill="srgba(40.264%,47.509%,57.4716%,1)"/>
  <circle cx="0" cy="14" r="1" fill="srgba(23.3417%,36.2417%,73.4737%,1)"/>
  <circle cx="1" cy="14" r="1" fill="srgba(23.3417%,36.2417%,73.4737%,1)"/>
  <circle cx="2" cy="14" r="1" fill="srgba(23.3417%,36.2417%,73.4737%,1)"/>
  <circle cx="3" cy="14" r="1" fill="srgba(23.3417%,36.2417%,73.4737%,1)"/>
  <circle cx="4" cy="14" r="1" fill="srgba(23.3417%,36.2417%,73.4737%,1)"/>
  <circle cx="5" cy="14" r="1" fill="srgba(23.418%,36.2783%,73.55%,1)"/>
  <circle cx="6" cy="14" r="1" fill="srgba(23.3417%,34.789%,70.5211%,1)"/>
  <circle cx="7" cy="14" r="1" fill="srgba(20.8621%,32.2713%,65.3651%,1)"/>
  <circle cx="8" cy="14" r="1" fill="srgba(21.3977%,33.2006%,67.2526%,1)"/>
  <circle cx="9" cy="14" r="1" fill="srgba(23.4363%,36.3897%,73.7758%,1)"/>
  <circle cx="10" cy="14" r="1" fill="srgba(23.3417%,36.2417%,73.4737%,1)"/>
  <circle cx="11" cy="14" r="1" fill="srgba(23.3417%,36.2417%,73.4737%,1)"/>
  <circle cx="12" cy="14" r="1" fill="srgba(23.3417%,36.2417%,73.4737%,1)"/>
  <circle cx="13" cy="14" r="1" fill="srgba(23.3417%,36.2417%,73.4737%,1)"/>
  <circle cx="14" cy="14" r="1" fill="srgba(23.3402%,36.2402%,73.4737%,1)"/>
  <circle cx="15" cy="14" r="1" fill="srgba(23.3661%,36.2646%,73.4813%,1)"/>
  <circle cx="0" cy="15" r="1" fill="srgba(24.4144%,36.9467%,72.5872%,1)"/>
  <circle cx="1" cy="15" r="1" fill="srgba(24.4144%,36.9467%,72.5872%,1)"/>
  <circle cx="2" cy="15" r="1" fill="srgba(24.4144%,36.9467%,72.5872%,1)"/>
  <circle cx="3" cy="15" r="1" fill="srgba(24.4144%,36.9467%,72.5872%,1)"/>
  <circle cx="4" cy="15" r="1" fill="srgba(24.4144%,36.9467%,72.5872%,1)"/>
  <circle cx="5" cy="15" r="1" fill="srgba(24.4892%,36.9833%,72.6589%,1)"/>
  <circle cx="6" cy="15" r="1" fill="srgba(24.3275%,35.5352%,69.8116%,1)"/>
  <circle cx="7" cy="15" r="1" fill="srgba(22.0691%,33.315%,65.4475%,1)"/>
  <circle cx="8" cy="15" r="1" fill="srgba(22.7588%,34.4411%,67.6616%,1)"/>
  <circle cx="9" cy="15" r="1" fill="srgba(24.4953%,37.0687%,72.8252%,1)"/>
  <circle cx="10" cy="15" r="1" fill="srgba(24.4144%,36.9467%,72.5872%,1)"/>
  <circle cx="11" cy="15" r="1" fill="srgba(24.4144%,36.9467%,72.5872%,1)"/>
  <circle cx="12" cy="15" r="1" fill="srgba(24.4144%,36.9467%,72.5872%,1)"/>
  <circle cx="13" cy="15" r="1" fill="srgba(24.4144%,36.9467%,72.5872%,1)"/>
  <circle cx="14" cy="15" r="1" fill="srgba(24.4129%,36.9451%,72.5872%,1)"/>
  <circle cx="15" cy="15" r="1" fill="srgba(24.4373%,36.9696%,72.5948%,1)"/>
</svg>
