<?xml version="1.0" standalone="no"?>
<!DOCTYPE svg PUBLIC "-//W3C//DTD SVG 20010904//EN"
  "http://www.w3.org/TR/2001/REC-SVG-20010904/DTD/svg10.dtd">
<svg width="16" height="16">
  <circle cx="0" cy="0" r="1" fill="srgba(83.1495%,40.2258%,42.6734%,1)"/>
  <circle cx="1" cy="0" r="1" fill="srgba(93.341%,67.3381%,67.4022%,1)"/>
  <circle cx="2" cy="0" r="1" fill="srgba(69.9351%,65.2873%,76.846%,1)"/>
  <circle cx="3" cy="0" r="1" fill="srgba(25.8274%,27.0085%,56.8124%,1)"/>
  <circle cx="4" cy="0" r="1" fill="srgba(2.28122%,2.54826%,41.2543%,1)"/>
  <circle cx="5" cy="0" r="1" fill="srgba(0%,0%,38.2879%,1)"/>
  <circle cx="6" cy="0" r="1" fill="srgba(34.7539%,31.8364%,57.5479%,1)"/>
  <circle cx="7" cy="0" r="1" fill="srgba(84.2817%,23.0274%,23.1937%,1)"/>
  <circle cx="8" cy="0" r="1" fill="srgba(84.2893%,23.035%,23.1998%,1)"/>
  <circle cx="9" cy="0" r="1" fill="srgba(34.7478%,31.8288%,57.5418%,1)"/>
  <circle cx="10" cy="0" r="1" fill="srgba(0%,0%,38.5183%,1)"/>
  <circle cx="11" cy="0" r="1" fill="srgba(2.32395%,2.93126%,42.0523%,1)"/>
  <circle cx="12" cy="0" r="1" fill="srgba(23.6271%,15.993%,45.7816%,1)"/>
  <circle cx="13" cy="0" r="1" fill="srgba(63.4241%,32.7382%,44.2969%,1)"/>
  <circle cx="14" cy="0" r="1" fill="srgba(89.485%,48.1025%,48.1682%,1)"/>
  <circle cx="15" cy="0" r="1" fill="srgba(89.0745%,70.0298%,72.491%,1)"/>
  <circle cx="0" cy="1" r="1" fill="srgba(21.8006%,14.435%,44.9744%,1)"/>
  <circle cx="1" cy="1" r="1" fill="srgba(53.5119%,27.3045%,43.2776%,1)"/>
  <circle cx="2" cy="1" r="1" fill="srgba(82.3682%,45.2277%,48.5664%,1)"/>
  <circle cx="3" cy="1" r="1" fill="srgba(86.2684%,63.8071%,67.0527%,1)"/>
  <circle cx="4" cy="1" r="1" fill="srgba(60.4105%,56.0784%,71.4778%,1)"/>
  <circle cx="5" cy="1" r="1" fill="srgba(20.6516%,21.0422%,52.8176%,1)"/>
  <circle cx="6" cy="1" r="1" fill="srgba(36.7117%,33.901%,58.9288%,1)"/>
  <circle cx="7" cy="1" r="1" fill="srgba(84.1566%,22.9023%,23.1128%,1)"/>
  <circle cx="8" cy="1" r="1" fill="srgba(84.1688%,22.9343%,23.1434%,1)"/>
  <circle cx="9" cy="1" r="1" fill="srgba(36.6827%,33.7224%,58.7533%,1)"/>
  <circle cx="10" cy="1" r="1" fill="srgba(18.6847%,12.1691%,43.6835%,1)"/>
  <circle cx="11" cy="1" r="1" fill="srgba(54.7875%,28.2521%,43.5721%,1)"/>
  <circle cx="12" cy="1" r="1" fill="srgba(82.6123%,45.4963%,48.7465%,1)"/>
  <circle cx="13" cy="1" r="1" fill="srgba(86.067%,63.7812%,67.126%,1)"/>
  <circle cx="14" cy="1" r="1" fill="srgba(59.028%,55.1812%,71.1833%,1)"/>
  <circle cx="15" cy="1" r="1" fill="srgba(23.7797%,24.5884%,55.1537%,1)"/>
  <circle cx="0" cy="2" r="1" fill="srgba(33.4356%,30.9178%,57.2961%,1)"/>
  <circle cx="1" cy="2" r="1" fill="srgba(36.2509%,34.165%,59.4614%,1)"/>
  <circle cx="2" cy="2" r="1" fill="srgba(55.7443%,46.1646%,62.9129%,1)"/>
  <circle cx="3" cy="2" r="1" fill="srgba(85.1041%,55.3307%,58.3139%,1)"/>
  <circle cx="4" cy="2" r="1" fill="srgba(94.4472%,65.156%,64.445%,1)"/>
  <circle cx="5" cy="2" r="1" fill="srgba(90.3029%,84.387%,87.6722%,1)"/>
  <circle cx="6" cy="2" r="1" fill="srgba(80.2197%,74.6288%,81.9806%,1)"/>
  <circle cx="7" cy="2" r="1" fill="srgba(83.9719%,22.0203%,22.2339%,1)"/>
  <circle cx="8" cy="2" r="1" fill="srgba(84.0543%,22.4063%,22.6215%,1)"/>
  <circle cx="9" cy="2" r="1" fill="srgba(78.6465%,66.6423%,73.991%,1)"/>
  <circle cx="10" cy="2" r="1" fill="srgba(82.826%,50.4891%,53.7591%,1)"/>
  <circle cx="11" cy="2" r="1" fill="srgba(95.0988%,69.3584%,68.6473%,1)"/>
  <circle cx="12" cy="2" r="1" fill="srgba(90.8141%,83.8346%,86.8162%,1)"/>
  <circle cx="13" cy="2" r="1" fill="srgba(57.6425%,55.7061%,72.4575%,1)"/>
  <circle cx="14" cy="2" r="1" fill="srgba(36.0708%,33.3303%,58.6313%,1)"/>
  <circle cx="15" cy="2" r="1" fill="srgba(33.3211%,30.3365%,56.7147%,1)"/>
  <circle cx="0" cy="3" r="1" fill="srgba(84.2634%,22.8809%,23.0381%,1)"/>
  <circle cx="1" cy="3" r="1" fill="srgba(84.1138%,22.7253%,22.9419%,1)"/>
  <circle cx="2" cy="3" r="1" fill="srgba(83.1876%,22.1988%,22.826%,1)"/>
  <circle cx="3" cy="3" r="1" fill="srgba(84.0055%,23.3783%,23.714%,1)"/>
  <circle cx="4" cy="3" r="1" fill="srgba(84.3931%,21.8662%,21.857%,1)"/>
  <circle cx="5" cy="3" r="1" fill="srgba(85.0965%,23.4195%,23.2044%,1)"/>
  <circle cx="6" cy="3" r="1" fill="srgba(85.5894%,24.3137%,24.5945%,1)"/>
  <circle cx="7" cy="3" r="1" fill="srgba(81.0819%,5.78164%,6.82689%,1)"/>
  <circle cx="8" cy="3" r="1" fill="srgba(81.0849%,5.79995%,6.82689%,1)"/>
  <circle cx="9" cy="3" r="1" fill="srgba(85.4704%,23.7751%,24.567%,1)"/>
  <circle cx="10" cy="3" r="1" fill="srgba(84.3763%,23.8148%,24.7761%,1)"/>
  <circle cx="11" cy="3" r="1" fill="srgba(84.9012%,25.6413%,26.807%,1)"/>
  <circle cx="12" cy="3" r="1" fill="srgba(84.1032%,24.036%,25.5116%,1)"/>
  <circle cx="13" cy="3" r="1" fill="srgba(83.2715%,22.9664%,24.7578%,1)"/>
  <circle cx="14" cy="3" r="1" fill="srgba(84.2664%,23.9414%,25.2644%,1)"/>
  <circle cx="15" cy="3" r="1" fill="srgba(84.3336%,23.3921%,23.8117%,1)"/>
  <circle cx="0" cy="4" r="1" fill="srgba(84.2893%,23.0411%,23.1968%,1)"/>
  <circle cx="1" cy="4" r="1" fill="srgba(84.1382%,22.8885%,23.1067%,1)"/>
  <circle cx="2" cy="4" r="1" fill="srgba(83.1083%,21.8509%,22.4796%,1)"/>
  <circle cx="3" cy="4" r="1" fill="srgba(83.9155%,22.9145%,23.2471%,1)"/>
  <circle cx="4" cy="4" r="1" fill="srgba(84.9149%,24.4633%,24.4526%,1)"/>
  <circle cx="5" cy="4" r="1" fill="srgba(85.3254%,25.127%,25.1392%,1)"/>
  <circle cx="6" cy="4" r="1" fill="srgba(90.1686%,46.9459%,35.2804%,1)"/>
  <circle cx="7" cy="4" r="1" fill="srgba(91.4855%,52.1523%,31.2505%,1)"/>
  <circle cx="8" cy="4" r="1" fill="srgba(91.5023%,51.986%,31.1528%,1)"/>
  <circle cx="9" cy="4" r="1" fill="srgba(91.2535%,50.9194%,29.9687%,1)"/>
  <circle cx="10" cy="4" r="1" fill="srgba(90.3746%,50.4051%,29.5888%,1)"/>
  <circle cx="11" cy="4" r="1" fill="srgba(91.0826%,50.7897%,29.9367%,1)"/>
  <circle cx="12" cy="4" r="1" fill="srgba(90.7057%,50.2419%,30.3471%,1)"/>
  <circle cx="13" cy="4" r="1" fill="srgba(90.8598%,50.3868%,30.2068%,1)"/>
  <circle cx="14" cy="4" r="1" fill="srgba(91.3481%,51.4443%,32.0562%,1)"/>
  <circle cx="15" cy="4" r="1" fill="srgba(87.3945%,38.3322%,34.0826%,1)"/>
  <circle cx="0" cy="5" r="1" fill="srgba(33.315%,30.3868%,56.7666%,1)"/>
  <circle cx="1" cy="5" r="1" fill="srgba(36.1395%,33.463%,58.7396%,1)"/>
  <circle cx="2" cy="5" r="1" fill="srgba(57.8347%,55.9548%,72.636%,1)"/>
  <circle cx="3" cy="5" r="1" fill="srgba(90.9102%,83.8804%,86.8147%,1)"/>
  <circle cx="4" cy="5" r="1" fill="srgba(95.1369%,69.0654%,68.4062%,1)"/>
  <circle cx="5" cy="5" r="1" fill="srgba(86.1295%,54.4366%,57.4029%,1)"/>
  <circle cx="6" cy="5" r="1" fill="srgba(95.52%,79.4888%,38.6435%,1)"/>
  <circle cx="7" cy="5" r="1" fill="srgba(97.0169%,74.0154%,8.15137%,1)"/>
  <circle cx="8" cy="5" r="1" fill="srgba(95.2819%,71.9783%,11.49%,1)"/>
  <circle cx="9" cy="5" r="1" fill="srgba(94.995%,66.3462%,27.2801%,1)"/>
  <circle cx="10" cy="5" r="1" fill="srgba(94.1115%,64.2115%,30.6264%,1)"/>
  <circle cx="11" cy="5" r="1" fill="srgba(91.7342%,62.6871%,26.0151%,1)"/>
  <circle cx="12" cy="5" r="1" fill="srgba(85.8442%,58.2101%,19.7635%,1)"/>
  <circle cx="13" cy="5" r="1" fill="srgba(86.7643%,58.938%,20.238%,1)"/>
  <circle cx="14" cy="5" r="1" fill="srgba(92.3919%,63.859%,30.1427%,1)"/>
  <circle cx="15" cy="5" r="1" fill="srgba(91.1452%,66.0502%,57.5906%,1)"/>
  <circle cx="0" cy="6" r="1" fill="srgba(24.2252%,25.037%,55.4314%,1)"/>
  <circle cx="1" cy="6" r="1" fill="srgba(59.7635%,55.8312%,71.5373%,1)"/>
  <circle cx="2" cy="6" r="1" fill="srgba(86.8055%,64.1657%,67.1824%,1)"/>
  <circle cx="3" cy="6" r="1" fill="srgba(83.1815%,45.6779%,48.6564%,1)"/>
  <circle cx="4" cy="6" r="1" fill="srgba(54.7753%,28.1514%,43.5843%,1)"/>
  <circle cx="5" cy="6" r="1" fill="srgba(27.2114%,20.7156%,49.7765%,1)"/>
  <circle cx="6" cy="6" r="1" fill="srgba(82.0005%,69.2927%,32.5124%,1)"/>
  <circle cx="7" cy="6" r="1" fill="srgba(96.7864%,68.6641%,8.05676%,1)"/>
  <circle cx="8" cy="6" r="1" fill="srgba(93.2921%,58.9685%,23.1846%,1)"/>
  <circle cx="9" cy="6" r="1" fill="srgba(95.6512%,56.0983%,46.6316%,1)"/>
  <circle cx="10" cy="6" r="1" fill="srgba(94.6288%,53.991%,51.1604%,1)"/>
  <circle cx="11" cy="6" r="1" fill="srgba(86.5019%,48.5512%,36.8063%,1)"/>
  <circle cx="12" cy="6" r="1" fill="srgba(72.6589%,38.2177%,18.97%,1)"/>
  <circle cx="13" cy="6" r="1" fill="srgba(74.4411%,39.6582%,21.03%,1)"/>
  <circle cx="14" cy="6" r="1" fill="srgba(88.2216%,49.7383%,40.1343%,1)"/>
  <circle cx="15" cy="6" r="1" fill="srgba(95.7549%,54.7845%,52.1874%,1)"/>
  <circle cx="0" cy="7" r="1" fill="srgba(78.4344%,61.5534%,68.4932%,1)"/>
  <circle cx="1" cy="7" r="1" fill="srgba(78.6709%,42.2187%,47.1061%,1)"/>
  <circle cx="2" cy="7" r="1" fill="srgba(55.668%,28.777%,43.8209%,1)"/>
  <circle cx="3" cy="7" r="1" fill="srgba(20.708%,14.1054%,45.1606%,1)"/>
  <circle cx="4" cy="7" r="1" fill="srgba(1.59457%,2.14237%,41.6464%,1)"/>
  <circle cx="5" cy="7" r="1" fill="srgba(6.6392%,6.86046%,44.5853%,1)"/>
  <circle cx="6" cy="7" r="1" fill="srgba(80.6821%,68.0491%,31.8196%,1)"/>
  <circle cx="7" cy="7" r="1" fill="srgba(96.7971%,68.6824%,8.40314%,1)"/>
  <circle cx="8" cy="7" r="1" fill="srgba(93.6172%,56.7346%,29.6468%,1)"/>
  <circle cx="9" cy="7" r="1" fill="srgba(97.5662%,59.0463%,68.098%,1)"/>
  <circle cx="10" cy="7" r="1" fill="srgba(98.5107%,60.6226%,81.7288%,1)"/>
  <circle cx="11" cy="7" r="1" fill="srgba(94.3313%,57.1298%,66.8544%,1)"/>
  <circle cx="12" cy="7" r="1" fill="srgba(76.6949%,41.4115%,31.3771%,1)"/>
  <circle cx="13" cy="7" r="1" fill="srgba(79.7375%,44.2237%,37.0886%,1)"/>
  <circle cx="14" cy="7" r="1" fill="srgba(95.6847%,58.1796%,70.5272%,1)"/>
  <circle cx="15" cy="7" r="1" fill="srgba(99.7543%,61.6373%,83.0365%,1)"/>
  <circle cx="0" cy="8" r="1" fill="srgba(10.5806%,3.17693%,37.8546%,1)"/>
  <circle cx="1" cy="8" r="1" fill="srgba(9.42397%,4.1413%,39.4858%,1)"/>
  <circle cx="2" cy="8" r="1" fill="srgba(2.30869%,2.75273%,41.9791%,1)"/>
  <circle cx="3" cy="8" r="1" fill="srgba(0%,0%,39.7299%,1)"/>
  <circle cx="4" cy="8" r="1" fill="srgba(0%,0%,39.6811%,1)"/>
  <circle cx="5" cy="8" r="1" fill="srgba(6.11429%,6.32486%,44.5884%,1)"/>
  <circle cx="6" cy="8" r="1" fill="srgba(79.5056%,67.129%,32.3445%,1)"/>
  <circle cx="7" cy="8" r="1" fill="srgba(96.1608%,68.1117%,8.61677%,1)"/>
  <circle cx="8" cy="8" r="1" fill="srgba(92.8969%,56.2585%,30.3838%,1)"/>
  <circle cx="9" cy="8" r="1" fill="srgba(96.8795%,58.5748%,70.8293%,1)"/>
  <circle cx="10" cy="8" r="1" fill="srgba(72.4331%,42.9358%,63.0106%,1)"/>
  <circle cx="11" cy="8" r="1" fill="srgba(58.6557%,36.8505%,46.4652%,1)"/>
  <circle cx="12" cy="8" r="1" fill="srgba(61.3138%,34.02%,28.1041%,1)"/>
  <circle cx="13" cy="8" r="1" fill="srgba(61.2207%,34.963%,31.5282%,1)"/>
  <circle cx="14" cy="8" r="1" fill="srgba(58.1399%,36.5759%,47.7379%,1)"/>
  <circle cx="15" cy="8" r="1" fill="srgba(55.8968%,34.9401%,50.3838%,1)"/>
  <circle cx="0" cy="9" r="1" fill="srgba(0%,0%,40.3555%,1)"/>
  <circle cx="1" cy="9" r="1" fill="srgba(0%,0%,40.1968%,1)"/>
  <circle cx="2" cy="9" r="1" fill="srgba(0%,0%,40.1511%,1)"/>
  <circle cx="3" cy="9" r="1" fill="srgba(0%,0%,40.2426%,1)"/>
  <circle cx="4" cy="9" r="1" fill="srgba(0%,0%,40.1236%,1)"/>
  <circle cx="5" cy="9" r="1" fill="srgba(3.09606%,3.43938%,43.5508%,1)"/>
  <circle cx="6" cy="9" r="1" fill="srgba(72.7031%,62.2019%,36.2264%,1)"/>
  <circle cx="7" cy="9" r="1" fill="srgba(96.4462%,68.4504%,9.42702%,1)"/>
  <circle cx="8" cy="9" r="1" fill="srgba(93.4203%,56.4843%,32.192%,1)"/>
  <circle cx="9" cy="9" r="1" fill="srgba(94.4228%,53.9269%,64.2008%,1)"/>
  <circle cx="10" cy="9" r="1" fill="srgba(35.2041%,12.3491%,21.1795%,1)"/>
  <circle cx="11" cy="9" r="1" fill="srgba(14.8699%,6.91386%,4.35187%,1)"/>
  <circle cx="12" cy="9" r="1" fill="srgba(43.0701%,20.2319%,15.3902%,1)"/>
  <circle cx="13" cy="9" r="1" fill="srgba(42.8367%,20.4883%,16.8872%,1)"/>
  <circle cx="14" cy="9" r="1" fill="srgba(26.6148%,12.7825%,14.9767%,1)"/>
  <circle cx="15" cy="9" r="1" fill="srgba(24.3168%,10.808%,16.7529%,1)"/>
  <circle cx="0" cy="10" r="1" fill="srgba(22.1942%,17.0947%,29.8314%,1)"/>
  <circle cx="1" cy="10" r="1" fill="srgba(22.475%,17.3083%,29.72%,1)"/>
  <circle cx="2" cy="10" r="1" fill="srgba(22.6261%,17.4273%,29.6574%,1)"/>
  <circle cx="3" cy="10" r="1" fill="srgba(22.7115%,17.4929%,29.6468%,1)"/>
  <circle cx="4" cy="10" r="1" fill="srgba(22.7634%,17.5235%,29.633%,1)"/>
  <circle cx="5" cy="10" r="1" fill="srgba(22.7161%,17.7157%,30.6615%,1)"/>
  <circle cx="6" cy="10" r="1" fill="srgba(65.6413%,55.1156%,31.3085%,1)"/>
  <circle cx="7" cy="10" r="1" fill="srgba(94.4717%,68.986%,9.29885%,1)"/>
  <circle cx="8" cy="10" r="1" fill="srgba(92.4544%,59.6414%,22.4598%,1)"/>
  <circle cx="9" cy="10" r="1" fill="srgba(91.0918%,58.5443%,37.7417%,1)"/>
  <circle cx="10" cy="10" r="1" fill="srgba(50.7301%,23.9902%,25.0767%,1)"/>
  <circle cx="11" cy="10" r="1" fill="srgba(72.0195%,6.28824%,17.7035%,1)"/>
  <circle cx="12" cy="10" r="1" fill="srgba(87.5441%,9.35225%,24.3549%,1)"/>
  <circle cx="13" cy="10" r="1" fill="srgba(88.5985%,9.94125%,25.1652%,1)"/>
  <circle cx="14" cy="10" r="1" fill="srgba(89.807%,10.3532%,25.42%,1)"/>
  <circle cx="15" cy="10" r="1" fill="srgba(90.28%,10.2373%,25.9571%,1)"/>
  <circle cx="0" cy="11" r="1" fill="srgba(6.84062%,5.26741%,36.5499%,1)"/>
  <circle cx="1" cy="11" r="1" fill="srgba(7.00389%,5.39406%,36.4828%,1)"/>
  <circle cx="2" cy="11" r="1" fill="srgba(7.10002%,5.46731%,36.4477%,1)"/>
  <circle cx="3" cy="11" r="1" fill="srgba(7.15343%,5.50851%,36.4492%,1)"/>
  <circle cx="4" cy="11" r="1" fill="srgba(7.20073%,5.54208%,36.4569%,1)"/>
  <circle cx="5" cy="11" r="1" fill="srgba(6.02731%,4.45258%,36.1334%,1)"/>
  <circle cx="6" cy="11" r="1" fill="srgba(30.0587%,27.0588%,42.9572%,1)"/>
  <circle cx="7" cy="11" r="1" fill="srgba(89.4011%,66.8345%,25.3101%,1)"/>
  <circle cx="8" cy="11" r="1" fill="srgba(92.871%,56.9467%,27.8096%,1)"/>
  <circle cx="9" cy="11" r="1" fill="srgba(93.0724%,58.4314%,29.3156%,1)"/>
  <circle cx="10" cy="11" r="1" fill="srgba(33.4264%,22.356%,6.31724%,1)"/>
  <circle cx="11" cy="11" r="1" fill="srgba(57.9767%,0.43183%,10.6447%,1)"/>
  <circle cx="12" cy="11" r="1" fill="srgba(95.4696%,2.35294%,17.4716%,1)"/>
  <circle cx="13" cy="11" r="1" fill="srgba(94.0139%,2.27512%,17.1588%,1)"/>
  <circle cx="14" cy="11" r="1" fill="srgba(93.962%,2.25528%,17.1435%,1)"/>
  <circle cx="15" cy="11" r="1" fill="srgba(93.9345%,2.26291%,17.1099%,1)"/>
  <circle cx="0" cy="12" r="1" fill="srgba(0%,0%,40.1968%,1)"/>
  <circle cx="1" cy="12" r="1" fill="srgba(0%,0%,40.2014%,1)"/>
  <circle cx="2" cy="12" r="1" fill="srgba(0%,0%,40.2045%,1)"/>
  <circle cx="3" cy="12" r="1" fill="srgba(0%,0%,40.2045%,1)"/>
  <circle cx="4" cy="12" r="1" fill="srgba(0%,0%,40.2045%,1)"/>
  <circle cx="5" cy="12" r="1" fill="srgba(0%,0%,40.0626%,1)"/>
  <circle cx="6" cy="12" r="1" fill="srgba(3.47295%,3.97498%,42.8916%,1)"/>
  <circle cx="7" cy="12" r="1" fill="srgba(61.9242%,45.4749%,39.4598%,1)"/>
  <circle cx="8" cy="12" r="1" fill="srgba(94.8363%,57.0703%,31.7021%,1)"/>
  <circle cx="9" cy="12" r="1" fill="srgba(95.3918%,58.5367%,30.1122%,1)"/>
  <circle cx="10" cy="12" r="1" fill="srgba(33.6584%,24.2786%,3.70336%,1)"/>
  <circle cx="11" cy="12" r="1" fill="srgba(22.0356%,0%,4.20691%,1)"/>
  <circle cx="12" cy="12" r="1" fill="srgba(88.4749%,2.59098%,16.6583%,1)"/>
  <circle cx="13" cy="12" r="1" fill="srgba(94.0993%,2.75578%,17.7173%,1)"/>
  <circle cx="14" cy="12" r="1" fill="srgba(239,7,45,1)"/>
  <circle cx="15" cy="12" r="1" fill="srgba(239,7,45,1)"/>
  <circle cx="0" cy="13" r="1" fill="srgba(0,0,102,1)"/>
  <circle cx="1" cy="13" r="1" fill="srgba(0,0,102,1)"/>
  <circle cx="2" cy="13" r="1" fill="srgba(0,0,102,1)"/>
  <circle cx="3" cy="13" r="1" fill="srgba(0,0,102,1)"/>
  <circle cx="4" cy="13" r="1" fill="srgba(0,0,102,1)"/>
  <circle cx="5" cy="13" r="1" fill="srgba(0%,0%,40.0061%,1)"/>
  <circle cx="6" cy="13" r="1" fill="srgba(0%,0%,40.1724%,1)"/>
  <circle cx="7" cy="13" r="1" fill="srgba(40.3174%,25.2079%,32.221%,1)"/>
  <circle cx="8" cy="13" r="1" fill="srgba(94.6014%,56.8872%,31.7113%,1)"/>
  <circle cx="9" cy="13" r="1" fill="srgba(95.9426%,59.0417%,29.7002%,1)"/>
  <circle cx="10" cy="13" r="1" fill="srgba(37.4365%,26.4866%,3.87579%,1)"/>
  <circle cx="11" cy="13" r="1" fill="srgba(1.18563%,0%,0.27924%,1)"/>
  <circle cx="12" cy="13" r="1" fill="srgba(63.5019%,1.86007%,11.9554%,1)"/>
  <circle cx="13" cy="13" r="1" fill="srgba(95.1156%,2.7863%,17.9095%,1)"/>
  <circle cx="14" cy="13" r="1" fill="srgba(93.7163%,2.7451%,17.6455%,1)"/>
  <circle cx="15" cy="13" r="1" fill="srgba(239,7,45,1)"/>
  <circle cx="0" cy="14" r="1" fill="srgba(0,0,102,1)"/>
  <circle cx="1" cy="14" r="1" fill="srgba(0,0,102,1)"/>
  <circle cx="2" cy="14" r="1" fill="srgba(0,0,102,1)"/>
  <circle cx="3" cy="14" r="1" fill="srgba(0,0,102,1)"/>
  <circle cx="4" cy="14" r="1" fill="srgba(0,0,102,1)"/>
  <circle cx="5" cy="14" r="1" fill="srgba(0%,0%,40.0015%,1)"/>
  <circle cx="6" cy="14" r="1" fill="srgba(0%,0%,40.2335%,1)"/>
  <circle cx="7" cy="14" r="1" fill="srgba(39.9054%,24.7028%,31.8425%,1)"/>
  <circle cx="8" cy="14" r="1" fill="srgba(94.609%,56.8765%,31.6457%,1)"/>
  <circle cx="9" cy="14" r="1" fill="srgba(96.3119%,59.4369%,29.1142%,1)"/>
  <circle cx="10" cy="14" r="1" fill="srgba(40.7584%,28.8991%,3.90631%,1)"/>
  <circle cx="11" cy="14" r="1" fill="black"/>
  <circle cx="12" cy="14" r="1" fill="srgba(27.8157%,0.813306%,5.23842%,1)"/>
  <circle cx="13" cy="14" r="1" fill="srgba(89.9702%,2.63523%,16.9406%,1)"/>
  <circle cx="14" cy="14" r="1" fill="srgba(93.9879%,2.75273%,17.6959%,1)"/>
  <circle cx="15" cy="14" r="1" fill="srgba(239,7,45,1)"/>
  <circle cx="0" cy="15" r="1" fill="srgba(0,0,102,1)"/>
  <circle cx="1" cy="15" r="1" fill="srgba(0,0,102,1)"/>
  <circle cx="2" cy="15" r="1" fill="srgba(0,0,102,1)"/>
  <circle cx="3" cy="15" r="1" fill="srgba(0,0,102,1)"/>
  <circle cx="4" cy="15" r="1" fill="srgba(0,0,102,1)"/>
  <circle cx="5" cy="15" r="1" fill="srgba(0%,0%,40.0015%,1)"/>
  <circle cx="6" cy="15" r="1" fill="srgba(0%,0%,40.2335%,1)"/>
  <circle cx="7" cy="15" r="1" fill="srgba(40.0107%,24.7623%,31.8715%,1)"/>
  <circle cx="8" cy="15" r="1" fill="srgba(94.6029%,56.8841%,31.574%,1)"/>
  <circle cx="9" cy="15" r="1" fill="srgba(96.4767%,59.6582%,28.6534%,1)"/>
  <circle cx="10" cy="15" r="1" fill="srgba(43.4028%,30.9438%,3.89105%,1)"/>
  <circle cx="11" cy="15" r="1" fill="black"/>
  <circle cx="12" cy="15" r="1" fill="srgba(5.32235%,0.155642%,1.00252%,1)"/>
  <circle cx="13" cy="15" r="1" fill="srgba(70.7942%,2.0737%,13.3288%,1)"/>
  <circle cx="14" cy="15" r="1" fill="srgba(94.9386%,2.78019%,17.8759%,1)"/>
  <circle cx="15" cy="15" r="1" fill="srgba(239,7,45,1)"/>
</svg>
