<?xml version="1.0" standalone="no"?>
<!DOCTYPE svg PUBLIC "-//W3C//DTD SVG 20010904//EN"
  "http://www.w3.org/TR/2001/REC-SVG-20010904/DTD/svg10.dtd">
<svg width="16" height="16">
  <circle cx="0" cy="0" r="1" fill="srgba(0,35,149,1)"/>
  <circle cx="1" cy="0" r="1" fill="srgba(0%,13.5348%,58.3398%,1)"/>
  <circle cx="2" cy="0" r="1" fill="srgba(3.64996%,16.875%,59.9496%,1)"/>
  <circle cx="3" cy="0" r="1" fill="srgba(75.0958%,78.5138%,89.6513%,1)"/>
  <circle cx="4" cy="0" r="1" fill="white"/>
  <circle cx="5" cy="0" r="1" fill="white"/>
  <circle cx="6" cy="0" r="1" fill="srgba(95.8434%,50.6325%,54.3206%,1)"/>
  <circle cx="7" cy="0" r="1" fill="srgba(92.8191%,14.6349%,21.0178%,1)"/>
  <circle cx="8" cy="0" r="1" fill="srgba(94.406%,16.0037%,21.677%,1)"/>
  <circle cx="9" cy="0" r="1" fill="srgba(67.9149%,26.5385%,42.71%,1)"/>
  <circle cx="10" cy="0" r="1" fill="srgba(2.53605%,16.3302%,59.884%,1)"/>
  <circle cx="11" cy="0" r="1" fill="srgba(0%,13.6034%,58.3764%,1)"/>
  <circle cx="12" cy="0" r="1" fill="srgba(0,35,149,1)"/>
  <circle cx="13" cy="0" r="1" fill="srgba(0,35,149,1)"/>
  <circle cx="14" cy="0" r="1" fill="srgba(0,35,149,1)"/>
  <circle cx="15" cy="0" r="1" fill="srgba(0,35,149,1)"/>
  <circle cx="0" cy="1" r="1" fill="srgba(0,35,149,1)"/>
  <circle cx="1" cy="1" r="1" fill="srgba(0%,13.5348%,58.3398%,1)"/>
  <circle cx="2" cy="1" r="1" fill="srgba(3.64996%,16.875%,59.9496%,1)"/>
  <circle cx="3" cy="1" r="1" fill="srgba(75.0958%,78.5138%,89.6513%,1)"/>
  <circle cx="4" cy="1" r="1" fill="white"/>
  <circle cx="5" cy="1" r="1" fill="white"/>
  <circle cx="6" cy="1" r="1" fill="srgba(95.8434%,50.6325%,54.3206%,1)"/>
  <circle cx="7" cy="1" r="1" fill="srgba(92.8191%,14.6349%,21.0178%,1)"/>
  <circle cx="8" cy="1" r="1" fill="srgba(94.406%,16.0037%,21.677%,1)"/>
  <circle cx="9" cy="1" r="1" fill="srgba(67.9149%,26.5385%,42.71%,1)"/>
  <circle cx="10" cy="1" r="1" fill="srgba(2.53605%,16.3302%,59.884%,1)"/>
  <circle cx="11" cy="1" r="1" fill="srgba(0%,13.6034%,58.3764%,1)"/>
  <circle cx="12" cy="1" r="1" fill="srgba(0,35,149,1)"/>
  <circle cx="13" cy="1" r="1" fill="srgba(0,35,149,1)"/>
  <circle cx="14" cy="1" r="1" fill="srgba(0,35,149,1)"/>
  <circle cx="15" cy="1" r="1" fill="srgba(0,35,149,1)"/>
  <circle cx="0" cy="2" r="1" fill="srgba(0,35,149,1)"/>
  <circle cx="1" cy="2" r="1" fill="srgba(0%,13.5348%,58.3398%,1)"/>
  <circle cx="2" cy="2" r="1" fill="srgba(3.64996%,16.875%,59.9496%,1)"/>
  <circle cx="3" cy="2" r="1" fill="srgba(75.0958%,78.5138%,89.6513%,1)"/>
  <circle cx="4" cy="2" r="1" fill="white"/>
  <circle cx="5" cy="2" r="1" fill="white"/>
  <circle cx="6" cy="2" r="1" fill="srgba(95.8434%,50.6325%,54.3206%,1)"/>
  <circle cx="7" cy="2" r="1" fill="srgba(92.8191%,14.6349%,21.0178%,1)"/>
  <circle cx="8" cy="2" r="1" fill="srgba(94.406%,16.0037%,21.677%,1)"/>
  <circle cx="9" cy="2" r="1" fill="srgba(67.9149%,26.5385%,42.71%,1)"/>
  <circle cx="10" cy="2" r="1" fill="srgba(2.53605%,16.3302%,59.884%,1)"/>
  <circle cx="11" cy="2" r="1" fill="srgba(0%,13.6034%,58.3764%,1)"/>
  <circle cx="12" cy="2" r="1" fill="srgba(0,35,149,1)"/>
  <circle cx="13" cy="2" r="1" fill="srgba(0,35,149,1)"/>
  <circle cx="14" cy="2" r="1" fill="srgba(0,35,149,1)"/>
  <circle cx="15" cy="2" r="1" fill="srgba(0,35,149,1)"/>
  <circle cx="0" cy="3" r="1" fill="srgba(0,35,149,1)"/>
  <circle cx="1" cy="3" r="1" fill="srgba(0%,13.5348%,58.3398%,1)"/>
  <circle cx="2" cy="3" r="1" fill="srgba(3.64996%,16.875%,59.9496%,1)"/>
  <circle cx="3" cy="3" r="1" fill="srgba(75.0958%,78.5138%,89.6513%,1)"/>
  <circle cx="4" cy="3" r="1" fill="white"/>
  <circle cx="5" cy="3" r="1" fill="white"/>
  <circle cx="6" cy="3" r="1" fill="srgba(95.8434%,50.6325%,54.3206%,1)"/>
  <circle cx="7" cy="3" r="1" fill="srgba(92.8191%,14.6349%,21.0178%,1)"/>
  <circle cx="8" cy="3" r="1" fill="srgba(94.406%,16.0037%,21.677%,1)"/>
  <circle cx="9" cy="3" r="1" fill="srgba(67.9149%,26.5385%,42.71%,1)"/>
  <circle cx="10" cy="3" r="1" fill="srgba(2.53605%,16.3302%,59.884%,1)"/>
  <circle cx="11" cy="3" r="1" fill="srgba(0%,13.6034%,58.3764%,1)"/>
  <circle cx="12" cy="3" r="1" fill="srgba(0,35,149,1)"/>
  <circle cx="13" cy="3" r="1" fill="srgba(0,35,149,1)"/>
  <circle cx="14" cy="3" r="1" fill="srgba(0,35,149,1)"/>
  <circle cx="15" cy="3" r="1" fill="srgba(0,35,149,1)"/>
  <circle cx="0" cy="4" r="1" fill="srgba(0%,13.7163%,58.4268%,1)"/>
  <circle cx="1" cy="4" r="1" fill="srgba(0%,13.5256%,58.3352%,1)"/>
  <circle cx="2" cy="4" r="1" fill="srgba(3.64996%,16.8658%,59.9451%,1)"/>
  <circle cx="3" cy="4" r="1" fill="srgba(75.0958%,78.5122%,89.6498%,1)"/>
  <circle cx="4" cy="4" r="1" fill="white"/>
  <circle cx="5" cy="4" r="1" fill="white"/>
  <circle cx="6" cy="4" r="1" fill="srgba(95.8434%,50.6264%,54.316%,1)"/>
  <circle cx="7" cy="4" r="1" fill="srgba(92.8191%,14.6258%,21.0101%,1)"/>
  <circle cx="8" cy="4" r="1" fill="srgba(94.406%,15.9945%,21.6693%,1)"/>
  <circle cx="9" cy="4" r="1" fill="srgba(67.9149%,26.5339%,42.7054%,1)"/>
  <circle cx="10" cy="4" r="1" fill="srgba(2.53605%,16.3302%,59.884%,1)"/>
  <circle cx="11" cy="4" r="1" fill="srgba(0%,13.6034%,58.3764%,1)"/>
  <circle cx="12" cy="4" r="1" fill="srgba(0,35,149,1)"/>
  <circle cx="13" cy="4" r="1" fill="srgba(0,35,149,1)"/>
  <circle cx="14" cy="4" r="1" fill="srgba(0,35,149,1)"/>
  <circle cx="15" cy="4" r="1" fill="srgba(0,35,149,1)"/>
  <circle cx="0" cy="5" r="1" fill="srgba(1.10475%,14.6777%,58.8907%,1)"/>
  <circle cx="1" cy="5" r="1" fill="srgba(0.886549%,14.49%,58.7991%,1)"/>
  <circle cx="2" cy="5" r="1" fill="srgba(4.72419%,17.7996%,60.3967%,1)"/>
  <circle cx="3" cy="5" r="1" fill="srgba(75.3948%,78.7716%,89.7749%,1)"/>
  <circle cx="4" cy="5" r="1" fill="white"/>
  <circle cx="5" cy="5" r="1" fill="white"/>
  <circle cx="6" cy="5" r="1" fill="srgba(96.82%,51.2306%,54.4915%,1)"/>
  <circle cx="7" cy="5" r="1" fill="srgba(94.4503%,15.6191%,21.2879%,1)"/>
  <circle cx="8" cy="5" r="1" fill="srgba(96.022%,16.9757%,21.9425%,1)"/>
  <circle cx="9" cy="5" r="1" fill="srgba(68.8716%,27.1077%,42.8672%,1)"/>
  <circle cx="10" cy="5" r="1" fill="srgba(2.53758%,16.286%,59.8642%,1)"/>
  <circle cx="11" cy="5" r="1" fill="srgba(0%,13.5546%,58.3536%,1)"/>
  <circle cx="12" cy="5" r="1" fill="srgba(0%,13.6751%,58.4085%,1)"/>
  <circle cx="13" cy="5" r="1" fill="srgba(0%,13.6934%,58.4161%,1)"/>
  <circle cx="14" cy="5" r="1" fill="srgba(0,35,149,1)"/>
  <circle cx="15" cy="5" r="1" fill="srgba(0,35,149,1)"/>
  <circle cx="0" cy="6" r="1" fill="srgba(14.1482%,25.9342%,64.3137%,1)"/>
  <circle cx="1" cy="6" r="1" fill="srgba(14.0581%,25.8564%,64.2756%,1)"/>
  <circle cx="2" cy="6" r="1" fill="srgba(15.6512%,27.2313%,64.9393%,1)"/>
  <circle cx="3" cy="6" r="1" fill="srgba(45.0782%,52.6207%,77.171%,1)"/>
  <circle cx="4" cy="6" r="1" fill="srgba(55.9442%,61.9974%,81.6892%,1)"/>
  <circle cx="5" cy="6" r="1" fill="srgba(55.3506%,61.6541%,81.6037%,1)"/>
  <circle cx="6" cy="6" r="1" fill="srgba(53.6263%,41.1368%,62.62%,1)"/>
  <circle cx="7" cy="6" r="1" fill="srgba(52.3537%,26.2837%,48.8899%,1)"/>
  <circle cx="8" cy="6" r="1" fill="srgba(53.6721%,27.422%,49.4392%,1)"/>
  <circle cx="9" cy="6" r="1" fill="srgba(39.4293%,28.8884%,56.7193%,1)"/>
  <circle cx="10" cy="6" r="1" fill="srgba(2.3621%,15.935%,59.5773%,1)"/>
  <circle cx="11" cy="6" r="1" fill="srgba(0.747692%,14.374%,58.7457%,1)"/>
  <circle cx="12" cy="6" r="1" fill="srgba(1.11391%,14.6868%,58.8952%,1)"/>
  <circle cx="13" cy="6" r="1" fill="srgba(1.05135%,14.6319%,58.8678%,1)"/>
  <circle cx="14" cy="6" r="1" fill="srgba(0.0274662%,13.7438%,58.4405%,1)"/>
  <circle cx="15" cy="6" r="1" fill="srgba(0%,13.724%,58.4298%,1)"/>
  <circle cx="0" cy="7" r="1" fill="srgba(0.766003%,14.3862%,58.7503%,1)"/>
  <circle cx="1" cy="7" r="1" fill="srgba(0.767529%,14.3893%,58.7518%,1)"/>
  <circle cx="2" cy="7" r="1" fill="srgba(0.735485%,14.3328%,58.7243%,1)"/>
  <circle cx="3" cy="7" r="1" fill="srgba(0.183108%,13.2723%,58.2132%,1)"/>
  <circle cx="4" cy="7" r="1" fill="srgba(0%,12.8817%,58.024%,1)"/>
  <circle cx="5" cy="7" r="1" fill="srgba(0%,12.8954%,58.0285%,1)"/>
  <circle cx="6" cy="7" r="1" fill="srgba(0%,13.7438%,58.8159%,1)"/>
  <circle cx="7" cy="7" r="1" fill="srgba(0%,13.4386%,58.9441%,1)"/>
  <circle cx="8" cy="7" r="1" fill="srgba(6.11582%,19.2981%,61.7685%,1)"/>
  <circle cx="9" cy="7" r="1" fill="srgba(49.7047%,57.3754%,79.8383%,1)"/>
  <circle cx="10" cy="7" r="1" fill="srgba(62.1042%,67.3014%,84.242%,1)"/>
  <circle cx="11" cy="7" r="1" fill="srgba(63.2258%,68.2734%,84.715%,1)"/>
  <circle cx="12" cy="7" r="1" fill="srgba(59.44%,65.0172%,83.1434%,1)"/>
  <circle cx="13" cy="7" r="1" fill="srgba(28.8334%,38.471%,70.3548%,1)"/>
  <circle cx="14" cy="7" r="1" fill="srgba(0%,12.4437%,57.8134%,1)"/>
  <circle cx="15" cy="7" r="1" fill="srgba(0.00457771%,13.4554%,58.3001%,1)"/>
  <circle cx="0" cy="8" r="1" fill="srgba(0%,13.724%,58.4298%,1)"/>
  <circle cx="1" cy="8" r="1" fill="srgba(0%,13.724%,58.4298%,1)"/>
  <circle cx="2" cy="8" r="1" fill="srgba(0%,13.724%,58.4298%,1)"/>
  <circle cx="3" cy="8" r="1" fill="srgba(0%,13.724%,58.4298%,1)"/>
  <circle cx="4" cy="8" r="1" fill="srgba(0%,13.724%,58.4298%,1)"/>
  <circle cx="5" cy="8" r="1" fill="srgba(0%,13.7102%,58.4237%,1)"/>
  <circle cx="6" cy="8" r="1" fill="srgba(0%,13.5027%,58.323%,1)"/>
  <circle cx="7" cy="8" r="1" fill="srgba(19.6201%,30.6523%,66.5873%,1)"/>
  <circle cx="8" cy="8" r="1" fill="srgba(17.3404%,28.6854%,65.6397%,1)"/>
  <circle cx="9" cy="8" r="1" fill="srgba(14.2779%,26.0441%,64.3641%,1)"/>
  <circle cx="10" cy="8" r="1" fill="srgba(42.0523%,50.0053%,75.9075%,1)"/>
  <circle cx="11" cy="8" r="1" fill="srgba(85.6413%,87.6097%,94.0307%,1)"/>
  <circle cx="12" cy="8" r="1" fill="srgba(47.6783%,54.8592%,78.2498%,1)"/>
  <circle cx="13" cy="8" r="1" fill="srgba(11.1162%,23.3158%,63.0518%,1)"/>
  <circle cx="14" cy="8" r="1" fill="srgba(25.9739%,36.1349%,69.2287%,1)"/>
  <circle cx="15" cy="8" r="1" fill="srgba(7.13817%,19.884%,61.3993%,1)"/>
  <circle cx="0" cy="9" r="1" fill="srgba(0,35,149,1)"/>
  <circle cx="1" cy="9" r="1" fill="srgba(0,35,149,1)"/>
  <circle cx="2" cy="9" r="1" fill="srgba(0,35,149,1)"/>
  <circle cx="3" cy="9" r="1" fill="srgba(0,35,149,1)"/>
  <circle cx="4" cy="9" r="1" fill="srgba(0,35,149,1)"/>
  <circle cx="5" cy="9" r="1" fill="srgba(0%,13.7179%,58.4268%,1)"/>
  <circle cx="6" cy="9" r="1" fill="srgba(0%,13.3471%,58.2498%,1)"/>
  <circle cx="7" cy="9" r="1" fill="srgba(25.4353%,35.6817%,69.0105%,1)"/>
  <circle cx="8" cy="9" r="1" fill="srgba(21.7929%,32.2774%,67.3701%,1)"/>
  <circle cx="9" cy="9" r="1" fill="srgba(24.6265%,34.8119%,68.5908%,1)"/>
  <circle cx="10" cy="9" r="1" fill="srgba(34.4305%,42.6719%,72.3781%,1)"/>
  <circle cx="11" cy="9" r="1" fill="srgba(77.8302%,80.7599%,90.7301%,1)"/>
  <circle cx="12" cy="9" r="1" fill="srgba(48.5847%,55.6466%,78.6313%,1)"/>
  <circle cx="13" cy="9" r="1" fill="srgba(16.26%,27.4525%,65.0462%,1)"/>
  <circle cx="14" cy="9" r="1" fill="srgba(33.3074%,42.3941%,72.2438%,1)"/>
  <circle cx="15" cy="9" r="1" fill="srgba(9.25917%,21.7182%,62.2827%,1)"/>
  <circle cx="0" cy="10" r="1" fill="srgba(0,35,149,1)"/>
  <circle cx="1" cy="10" r="1" fill="srgba(0,35,149,1)"/>
  <circle cx="2" cy="10" r="1" fill="srgba(0,35,149,1)"/>
  <circle cx="3" cy="10" r="1" fill="srgba(0,35,149,1)"/>
  <circle cx="4" cy="10" r="1" fill="srgba(0,35,149,1)"/>
  <circle cx="5" cy="10" r="1" fill="srgba(0,35,149,1)"/>
  <circle cx="6" cy="10" r="1" fill="srgba(0.00457771%,13.7331%,58.436%,1)"/>
  <circle cx="7" cy="10" r="1" fill="srgba(0%,12.6741%,57.9248%,1)"/>
  <circle cx="8" cy="10" r="1" fill="srgba(19.8489%,30.5776%,66.5507%,1)"/>
  <circle cx="9" cy="10" r="1" fill="srgba(75.9823%,79.2935%,90.0237%,1)"/>
  <circle cx="10" cy="10" r="1" fill="srgba(71.9554%,75.8007%,88.3406%,1)"/>
  <circle cx="11" cy="10" r="1" fill="srgba(77.882%,80.9155%,90.8064%,1)"/>
  <circle cx="12" cy="10" r="1" fill="srgba(74.667%,78.143%,89.4713%,1)"/>
  <circle cx="13" cy="10" r="1" fill="srgba(54.4564%,60.6897%,81.0605%,1)"/>
  <circle cx="14" cy="10" r="1" fill="srgba(2.43687%,15.3155%,59.1974%,1)"/>
  <circle cx="15" cy="10" r="1" fill="srgba(0%,13.489%,58.3169%,1)"/>
  <circle cx="0" cy="11" r="1" fill="srgba(0,35,149,1)"/>
  <circle cx="1" cy="11" r="1" fill="srgba(0,35,149,1)"/>
  <circle cx="2" cy="11" r="1" fill="srgba(0,35,149,1)"/>
  <circle cx="3" cy="11" r="1" fill="srgba(0,35,149,1)"/>
  <circle cx="4" cy="11" r="1" fill="srgba(0,35,149,1)"/>
  <circle cx="5" cy="11" r="1" fill="srgba(0,35,149,1)"/>
  <circle cx="6" cy="11" r="1" fill="srgba(0%,13.7102%,58.4237%,1)"/>
  <circle cx="7" cy="11" r="1" fill="srgba(0%,13.5973%,58.3703%,1)"/>
  <circle cx="8" cy="11" r="1" fill="srgba(30.1976%,39.7787%,70.9819%,1)"/>
  <circle cx="9" cy="11" r="1" fill="srgba(39.6735%,47.9515%,74.9218%,1)"/>
  <circle cx="10" cy="11" r="1" fill="srgba(67.2541%,71.7464%,86.3874%,1)"/>
  <circle cx="11" cy="11" r="1" fill="srgba(91.5435%,92.7031%,96.4843%,1)"/>
  <circle cx="12" cy="11" r="1" fill="srgba(45.0736%,52.6101%,77.1664%,1)"/>
  <circle cx="13" cy="11" r="1" fill="srgba(42.388%,50.2968%,76.0494%,1)"/>
  <circle cx="14" cy="11" r="1" fill="srgba(10.7378%,22.9862%,62.8916%,1)"/>
  <circle cx="15" cy="11" r="1" fill="srgba(0%,13.106%,58.1323%,1)"/>
  <circle cx="0" cy="12" r="1" fill="srgba(0,35,149,1)"/>
  <circle cx="1" cy="12" r="1" fill="srgba(0,35,149,1)"/>
  <circle cx="2" cy="12" r="1" fill="srgba(0,35,149,1)"/>
  <circle cx="3" cy="12" r="1" fill="srgba(0,35,149,1)"/>
  <circle cx="4" cy="12" r="1" fill="srgba(0,35,149,1)"/>
  <circle cx="5" cy="12" r="1" fill="srgba(0,35,149,1)"/>
  <circle cx="6" cy="12" r="1" fill="srgba(0%,13.724%,58.4298%,1)"/>
  <circle cx="7" cy="12" r="1" fill="srgba(0%,13.5775%,58.3597%,1)"/>
  <circle cx="8" cy="12" r="1" fill="srgba(5.0721%,18.1018%,60.5417%,1)"/>
  <circle cx="9" cy="12" r="1" fill="srgba(22.4842%,33.077%,67.7577%,1)"/>
  <circle cx="10" cy="12" r="1" fill="srgba(21.7594%,32.2927%,67.3777%,1)"/>
  <circle cx="11" cy="12" r="1" fill="srgba(45.0599%,52.52%,77.1237%,1)"/>
  <circle cx="12" cy="12" r="1" fill="srgba(15.5367%,26.9429%,64.8035%,1)"/>
  <circle cx="13" cy="12" r="1" fill="srgba(17.6684%,28.9738%,65.7816%,1)"/>
  <circle cx="14" cy="12" r="1" fill="srgba(0.166323%,13.8689%,58.5%,1)"/>
  <circle cx="15" cy="12" r="1" fill="srgba(0%,13.6904%,58.4146%,1)"/>
  <circle cx="0" cy="13" r="1" fill="srgba(0,35,149,1)"/>
  <circle cx="1" cy="13" r="1" fill="srgba(0,35,149,1)"/>
  <circle cx="2" cy="13" r="1" fill="srgba(0,35,149,1)"/>
  <circle cx="3" cy="13" r="1" fill="srgba(0,35,149,1)"/>
  <circle cx="4" cy="13" r="1" fill="srgba(0,35,149,1)"/>
  <circle cx="5" cy="13" r="1" fill="srgba(0,35,149,1)"/>
  <circle cx="6" cy="13" r="1" fill="srgba(0,35,149,1)"/>
  <circle cx="7" cy="13" r="1" fill="srgba(0%,13.3745%,58.262%,1)"/>
  <circle cx="8" cy="13" r="1" fill="srgba(7.05272%,19.8016%,61.3596%,1)"/>
  <circle cx="9" cy="13" r="1" fill="srgba(36.2539%,45.0019%,73.5012%,1)"/>
  <circle cx="10" cy="13" r="1" fill="srgba(8.63203%,21.1704%,62.0188%,1)"/>
  <circle cx="11" cy="13" r="1" fill="srgba(8.59541%,21.1398%,62.0035%,1)"/>
  <circle cx="12" cy="13" r="1" fill="srgba(22.0783%,32.7718%,67.6097%,1)"/>
  <circle cx="13" cy="13" r="1" fill="srgba(27.1351%,37.1313%,69.7093%,1)"/>
  <circle cx="14" cy="13" r="1" fill="srgba(0%,13.3639%,58.2574%,1)"/>
  <circle cx="15" cy="13" r="1" fill="srgba(0%,13.7148%,58.4268%,1)"/>
  <circle cx="0" cy="14" r="1" fill="srgba(0,35,149,1)"/>
  <circle cx="1" cy="14" r="1" fill="srgba(0,35,149,1)"/>
  <circle cx="2" cy="14" r="1" fill="srgba(0,35,149,1)"/>
  <circle cx="3" cy="14" r="1" fill="srgba(0,35,149,1)"/>
  <circle cx="4" cy="14" r="1" fill="srgba(0,35,149,1)"/>
  <circle cx="5" cy="14" r="1" fill="srgba(0,35,149,1)"/>
  <circle cx="6" cy="14" r="1" fill="srgba(0,35,149,1)"/>
  <circle cx="7" cy="14" r="1" fill="srgba(0%,13.7224%,58.4298%,1)"/>
  <circle cx="8" cy="14" r="1" fill="srgba(0.114443%,13.7331%,58.4344%,1)"/>
  <circle cx="9" cy="14" r="1" fill="srgba(0%,12.8664%,58.0179%,1)"/>
  <circle cx="10" cy="14" r="1" fill="srgba(17.3281%,28.6046%,65.6001%,1)"/>
  <circle cx="11" cy="14" r="1" fill="srgba(41.471%,49.5125%,75.6741%,1)"/>
  <circle cx="12" cy="14" r="1" fill="srgba(2.01419%,15.1919%,59.1379%,1)"/>
  <circle cx="13" cy="14" r="1" fill="srgba(0.187686%,13.5576%,58.3505%,1)"/>
  <circle cx="14" cy="14" r="1" fill="srgba(0.00610361%,13.7301%,58.4344%,1)"/>
  <circle cx="15" cy="14" r="1" fill="srgba(0,35,149,1)"/>
  <circle cx="0" cy="15" r="1" fill="srgba(0,35,149,1)"/>
  <circle cx="1" cy="15" r="1" fill="srgba(0,35,149,1)"/>
  <circle cx="2" cy="15" r="1" fill="srgba(0,35,149,1)"/>
  <circle cx="3" cy="15" r="1" fill="srgba(0,35,149,1)"/>
  <circle cx="4" cy="15" r="1" fill="srgba(0,35,149,1)"/>
  <circle cx="5" cy="15" r="1" fill="srgba(0,35,149,1)"/>
  <circle cx="6" cy="15" r="1" fill="srgba(0,35,149,1)"/>
  <circle cx="7" cy="15" r="1" fill="srgba(0,35,149,1)"/>
  <circle cx="8" cy="15" r="1" fill="srgba(0%,13.7179%,58.4283%,1)"/>
  <circle cx="9" cy="15" r="1" fill="srgba(0%,13.5531%,58.349%,1)"/>
  <circle cx="10" cy="15" r="1" fill="srgba(3.07317%,16.3348%,59.6887%,1)"/>
  <circle cx="11" cy="15" r="1" fill="srgba(7.31518%,20.0031%,61.4557%,1)"/>
  <circle cx="12" cy="15" r="1" fill="srgba(0.288396%,13.9391%,58.5351%,1)"/>
  <circle cx="13" cy="15" r="1" fill="srgba(0%,13.6965%,58.4176%,1)"/>
  <circle cx="14" cy="15" r="1" fill="srgba(0,35,149,1)"/>
  <circle cx="15" cy="15" r="1" fill="srgba(0,35,149,1)"/>
</svg>
