<?xml version="1.0" standalone="no"?>
<!DOCTYPE svg PUBLIC "-//W3C//DTD SVG 20010904//EN"
  "http://www.w3.org/TR/2001/REC-SVG-20010904/DTD/svg10.dtd">
<svg width="16" height="16">
  <circle cx="0" cy="0" r="1" fill="srgba(84.4205%,0.285344%,0%,1)"/>
  <circle cx="1" cy="0" r="1" fill="srgba(84.4205%,0.285344%,0%,1)"/>
  <circle cx="2" cy="0" r="1" fill="srgba(84.4205%,0.285344%,0%,1)"/>
  <circle cx="3" cy="0" r="1" fill="srgba(84.4205%,0.285344%,0%,1)"/>
  <circle cx="4" cy="0" r="1" fill="srgba(84.4205%,0.285344%,0%,1)"/>
  <circle cx="5" cy="0" r="1" fill="srgba(84.4205%,0.285344%,0%,1)"/>
  <circle cx="6" cy="0" r="1" fill="srgba(84.4205%,0.285344%,0%,1)"/>
  <circle cx="7" cy="0" r="1" fill="srgba(84.4205%,0.285344%,0%,1)"/>
  <circle cx="8" cy="0" r="1" fill="srgba(85.7206%,0%,0%,1)"/>
  <circle cx="9" cy="0" r="1" fill="srgba(51.0933%,22.855%,0%,1)"/>
  <circle cx="10" cy="0" r="1" fill="srgba(6.43931%,53.0922%,0%,1)"/>
  <circle cx="11" cy="0" r="1" fill="srgba(7.03136%,52.6909%,0%,1)"/>
  <circle cx="12" cy="0" r="1" fill="srgba(7.03593%,52.6879%,0%,1)"/>
  <circle cx="13" cy="0" r="1" fill="srgba(7.03593%,52.6879%,0%,1)"/>
  <circle cx="14" cy="0" r="1" fill="srgba(7.03441%,52.6879%,0%,1)"/>
  <circle cx="15" cy="0" r="1" fill="srgba(7.06645%,52.6955%,0%,1)"/>
  <circle cx="0" cy="1" r="1" fill="srgba(84.7211%,0%,0%,1)"/>
  <circle cx="1" cy="1" r="1" fill="srgba(84.7211%,0%,0%,1)"/>
  <circle cx="2" cy="1" r="1" fill="srgba(84.7211%,0%,0%,1)"/>
  <circle cx="3" cy="1" r="1" fill="srgba(84.7227%,0%,0%,1)"/>
  <circle cx="4" cy="1" r="1" fill="srgba(84.6494%,0%,0%,1)"/>
  <circle cx="5" cy="1" r="1" fill="srgba(84.6921%,0%,0%,1)"/>
  <circle cx="6" cy="1" r="1" fill="srgba(84.7227%,0%,0%,1)"/>
  <circle cx="7" cy="1" r="1" fill="srgba(84.7211%,0%,0%,1)"/>
  <circle cx="8" cy="1" r="1" fill="srgba(86.0365%,0%,0%,1)"/>
  <circle cx="9" cy="1" r="1" fill="srgba(51.0216%,22.6001%,0%,1)"/>
  <circle cx="10" cy="1" r="1" fill="srgba(5.87015%,52.8786%,0%,1)"/>
  <circle cx="11" cy="1" r="1" fill="srgba(6.46983%,52.4773%,0%,1)"/>
  <circle cx="12" cy="1" r="1" fill="srgba(6.4744%,52.4743%,0%,1)"/>
  <circle cx="13" cy="1" r="1" fill="srgba(6.4744%,52.4743%,0%,1)"/>
  <circle cx="14" cy="1" r="1" fill="srgba(6.47288%,52.4743%,0%,1)"/>
  <circle cx="15" cy="1" r="1" fill="srgba(6.50492%,52.4819%,0%,1)"/>
  <circle cx="0" cy="2" r="1" fill="srgba(216,0,0,1)"/>
  <circle cx="1" cy="2" r="1" fill="srgba(216,0,0,1)"/>
  <circle cx="2" cy="2" r="1" fill="srgba(216,0,0,1)"/>
  <circle cx="3" cy="2" r="1" fill="srgba(84.6448%,0%,0%,1)"/>
  <circle cx="4" cy="2" r="1" fill="srgba(86.5873%,12.6253%,12.6253%,1)"/>
  <circle cx="5" cy="2" r="1" fill="srgba(85.3941%,5.02785%,5.02785%,1)"/>
  <circle cx="6" cy="2" r="1" fill="srgba(84.6494%,0%,0%,1)"/>
  <circle cx="7" cy="2" r="1" fill="srgba(216,0,0,1)"/>
  <circle cx="8" cy="2" r="1" fill="srgba(85.9693%,0%,0%,1)"/>
  <circle cx="9" cy="2" r="1" fill="srgba(52.3323%,23.1144%,0%,1)"/>
  <circle cx="10" cy="2" r="1" fill="srgba(8.95857%,54.0841%,0%,1)"/>
  <circle cx="11" cy="2" r="1" fill="srgba(9.53384%,53.6736%,0%,1)"/>
  <circle cx="12" cy="2" r="1" fill="srgba(9.53841%,53.6706%,0%,1)"/>
  <circle cx="13" cy="2" r="1" fill="srgba(9.53841%,53.6706%,0%,1)"/>
  <circle cx="14" cy="2" r="1" fill="srgba(9.53689%,53.6706%,0%,1)"/>
  <circle cx="15" cy="2" r="1" fill="srgba(9.56893%,53.6782%,0.0015259%,1)"/>
  <circle cx="0" cy="3" r="1" fill="srgba(216,0,0,1)"/>
  <circle cx="1" cy="3" r="1" fill="srgba(216,0,0,1)"/>
  <circle cx="2" cy="3" r="1" fill="srgba(84.6967%,0%,0%,1)"/>
  <circle cx="3" cy="3" r="1" fill="srgba(84.8096%,0.672923%,0.672923%,1)"/>
  <circle cx="4" cy="3" r="1" fill="srgba(92.9961%,54.2031%,54.2031%,1)"/>
  <circle cx="5" cy="3" r="1" fill="srgba(89.1676%,29.2134%,29.2134%,1)"/>
  <circle cx="6" cy="3" r="1" fill="srgba(84.5991%,0%,0%,1)"/>
  <circle cx="7" cy="3" r="1" fill="srgba(84.6845%,0%,0%,1)"/>
  <circle cx="8" cy="3" r="1" fill="srgba(84.8615%,0%,0%,1)"/>
  <circle cx="9" cy="3" r="1" fill="srgba(80.7202%,34.2031%,0%,1)"/>
  <circle cx="10" cy="3" r="1" fill="srgba(75.3841%,80.0412%,0%,1)"/>
  <circle cx="11" cy="3" r="1" fill="srgba(75.4559%,79.4339%,0%,1)"/>
  <circle cx="12" cy="3" r="1" fill="srgba(75.4559%,79.4293%,0%,1)"/>
  <circle cx="13" cy="3" r="1" fill="srgba(75.4559%,79.4293%,0%,1)"/>
  <circle cx="14" cy="3" r="1" fill="srgba(75.4559%,79.4293%,0%,1)"/>
  <circle cx="15" cy="3" r="1" fill="srgba(75.4635%,79.4308%,0.0228885%,1)"/>
  <circle cx="0" cy="4" r="1" fill="srgba(216,0,0,1)"/>
  <circle cx="1" cy="4" r="1" fill="srgba(216,0,0,1)"/>
  <circle cx="2" cy="4" r="1" fill="srgba(84.6738%,0%,0%,1)"/>
  <circle cx="3" cy="4" r="1" fill="srgba(85.2369%,3.46838%,3.46838%,1)"/>
  <circle cx="4" cy="4" r="1" fill="srgba(96.1181%,74.6044%,74.6044%,1)"/>
  <circle cx="5" cy="4" r="1" fill="srgba(98.4192%,89.6635%,89.6635%,1)"/>
  <circle cx="6" cy="4" r="1" fill="srgba(90.5974%,38.6267%,38.6267%,1)"/>
  <circle cx="7" cy="4" r="1" fill="srgba(84.7028%,0.09308%,0.09308%,1)"/>
  <circle cx="8" cy="4" r="1" fill="srgba(84.4434%,0%,0%,1)"/>
  <circle cx="9" cy="4" r="1" fill="srgba(91.31%,38.5702%,0%,1)"/>
  <circle cx="10" cy="4" r="1" fill="srgba(100%,90.2678%,0%,1)"/>
  <circle cx="11" cy="4" r="1" fill="srgba(100%,89.5827%,0%,1)"/>
  <circle cx="12" cy="4" r="1" fill="srgba(100%,89.5781%,0%,1)"/>
  <circle cx="13" cy="4" r="1" fill="srgba(100%,89.5781%,0%,1)"/>
  <circle cx="14" cy="4" r="1" fill="srgba(100%,89.5781%,0%,1)"/>
  <circle cx="15" cy="4" r="1" fill="srgba(100%,89.5781%,0.030518%,1)"/>
  <circle cx="0" cy="5" r="1" fill="srgba(216,0,0,1)"/>
  <circle cx="1" cy="5" r="1" fill="srgba(84.7089%,0%,0%,1)"/>
  <circle cx="2" cy="5" r="1" fill="srgba(84.6113%,0%,0%,1)"/>
  <circle cx="3" cy="5" r="1" fill="srgba(85.0309%,3.6286%,3.6286%,1)"/>
  <circle cx="4" cy="5" r="1" fill="srgba(96.1212%,75.0439%,75.0439%,1)"/>
  <circle cx="5" cy="5" r="1" fill="white"/>
  <circle cx="6" cy="5" r="1" fill="srgba(97.4853%,83.5615%,83.5615%,1)"/>
  <circle cx="7" cy="5" r="1" fill="srgba(86.2181%,9.88937%,9.88937%,1)"/>
  <circle cx="8" cy="5" r="1" fill="srgba(84.3519%,0%,0%,1)"/>
  <circle cx="9" cy="5" r="1" fill="srgba(91.3085%,38.5519%,0%,1)"/>
  <circle cx="10" cy="5" r="1" fill="srgba(100%,90.2235%,0%,1)"/>
  <circle cx="11" cy="5" r="1" fill="srgba(100%,89.5384%,0%,1)"/>
  <circle cx="12" cy="5" r="1" fill="srgba(100%,89.5338%,0%,1)"/>
  <circle cx="13" cy="5" r="1" fill="srgba(100%,89.5338%,0%,1)"/>
  <circle cx="14" cy="5" r="1" fill="srgba(100%,89.5338%,0%,1)"/>
  <circle cx="15" cy="5" r="1" fill="srgba(100%,89.5338%,0.030518%,1)"/>
  <circle cx="0" cy="6" r="1" fill="srgba(216,0,0,1)"/>
  <circle cx="1" cy="6" r="1" fill="srgba(84.6418%,0%,0%,1)"/>
  <circle cx="2" cy="6" r="1" fill="srgba(86.1082%,9.16915%,9.16915%,1)"/>
  <circle cx="3" cy="6" r="1" fill="srgba(90.1366%,35.5047%,35.5047%,1)"/>
  <circle cx="4" cy="6" r="1" fill="srgba(97.5799%,84.1672%,84.1672%,1)"/>
  <circle cx="5" cy="6" r="1" fill="white"/>
  <circle cx="6" cy="6" r="1" fill="srgba(98.8754%,92.6452%,92.6452%,1)"/>
  <circle cx="7" cy="6" r="1" fill="srgba(87.4479%,17.9339%,17.9339%,1)"/>
  <circle cx="8" cy="6" r="1" fill="srgba(85.0538%,0%,0%,1)"/>
  <circle cx="9" cy="6" r="1" fill="srgba(71.3436%,30.5379%,0%,1)"/>
  <circle cx="10" cy="6" r="1" fill="srgba(53.4417%,71.4611%,0%,1)"/>
  <circle cx="11" cy="6" r="1" fill="srgba(53.6797%,70.9178%,0%,1)"/>
  <circle cx="12" cy="6" r="1" fill="srgba(53.6812%,70.9148%,0%,1)"/>
  <circle cx="13" cy="6" r="1" fill="srgba(53.6812%,70.9148%,0%,1)"/>
  <circle cx="14" cy="6" r="1" fill="srgba(53.6797%,70.9148%,0%,1)"/>
  <circle cx="15" cy="6" r="1" fill="srgba(53.6965%,70.9194%,0.015259%,1)"/>
  <circle cx="0" cy="7" r="1" fill="srgba(216,0,0,1)"/>
  <circle cx="1" cy="7" r="1" fill="srgba(84.6616%,0%,0%,1)"/>
  <circle cx="2" cy="7" r="1" fill="srgba(85.4063%,4.57465%,4.57465%,1)"/>
  <circle cx="3" cy="7" r="1" fill="srgba(92.7733%,52.7489%,52.7489%,1)"/>
  <circle cx="4" cy="7" r="1" fill="srgba(99.9222%,99.4858%,99.4858%,1)"/>
  <circle cx="5" cy="7" r="1" fill="srgba(99.5926%,97.3342%,97.3342%,1)"/>
  <circle cx="6" cy="7" r="1" fill="srgba(97.3602%,82.739%,82.739%,1)"/>
  <circle cx="7" cy="7" r="1" fill="srgba(86.7231%,13.1899%,13.1899%,1)"/>
  <circle cx="8" cy="7" r="1" fill="srgba(85.9113%,0%,0%,1)"/>
  <circle cx="9" cy="7" r="1" fill="srgba(50.5486%,22.417%,0%,1)"/>
  <circle cx="10" cy="7" r="1" fill="srgba(4.78218%,52.4529%,0%,1)"/>
  <circle cx="11" cy="7" r="1" fill="srgba(5.38949%,52.0546%,0%,1)"/>
  <circle cx="12" cy="7" r="1" fill="srgba(5.39406%,52.0516%,0%,1)"/>
  <circle cx="13" cy="7" r="1" fill="srgba(5.39406%,52.0516%,0%,1)"/>
  <circle cx="14" cy="7" r="1" fill="srgba(5.39254%,52.0516%,0%,1)"/>
  <circle cx="15" cy="7" r="1" fill="srgba(5.42458%,52.0592%,0%,1)"/>
  <circle cx="0" cy="8" r="1" fill="srgba(84.4511%,0%,0%,1)"/>
  <circle cx="1" cy="8" r="1" fill="srgba(84.4526%,0%,0%,1)"/>
  <circle cx="2" cy="8" r="1" fill="srgba(84.2161%,0%,0%,1)"/>
  <circle cx="3" cy="8" r="1" fill="srgba(89.9748%,35.5505%,36.5011%,1)"/>
  <circle cx="4" cy="8" r="1" fill="srgba(94.6548%,65.1728%,66.6941%,1)"/>
  <circle cx="5" cy="8" r="1" fill="srgba(94.9813%,67.3365%,68.8426%,1)"/>
  <circle cx="6" cy="8" r="1" fill="srgba(88.51%,25.2796%,26.5934%,1)"/>
  <circle cx="7" cy="8" r="1" fill="srgba(84.567%,0.643931%,0.823987%,1)"/>
  <circle cx="8" cy="8" r="1" fill="srgba(85.7725%,0%,0%,1)"/>
  <circle cx="9" cy="8" r="1" fill="srgba(50.2754%,22.3468%,0%,1)"/>
  <circle cx="10" cy="8" r="1" fill="srgba(4.48615%,52.3339%,0%,1)"/>
  <circle cx="11" cy="8" r="1" fill="srgba(5.09346%,51.9387%,0%,1)"/>
  <circle cx="12" cy="8" r="1" fill="srgba(5.09804%,51.9356%,0%,1)"/>
  <circle cx="13" cy="8" r="1" fill="srgba(5.09804%,51.9356%,0%,1)"/>
  <circle cx="14" cy="8" r="1" fill="srgba(5.09651%,51.9356%,0%,1)"/>
  <circle cx="15" cy="8" r="1" fill="srgba(5.13008%,51.9432%,0%,1)"/>
  <circle cx="0" cy="9" r="1" fill="srgba(89.3858%,27.8294%,0%,1)"/>
  <circle cx="1" cy="9" r="1" fill="srgba(89.3843%,27.8187%,0%,1)"/>
  <circle cx="2" cy="9" r="1" fill="srgba(89.4392%,28.1758%,0.34638%,1)"/>
  <circle cx="3" cy="9" r="1" fill="srgba(91.3893%,40.9339%,13.0922%,1)"/>
  <circle cx="4" cy="9" r="1" fill="srgba(89.8939%,31.1604%,3.80102%,1)"/>
  <circle cx="5" cy="9" r="1" fill="srgba(91.0384%,38.645%,11.0323%,1)"/>
  <circle cx="6" cy="9" r="1" fill="srgba(90.5501%,35.4437%,8.19562%,1)"/>
  <circle cx="7" cy="9" r="1" fill="srgba(89.3019%,27.2801%,0%,1)"/>
  <circle cx="8" cy="9" r="1" fill="srgba(90.2846%,27.2267%,0%,1)"/>
  <circle cx="9" cy="9" r="1" fill="srgba(66.3645%,43.3997%,0%,1)"/>
  <circle cx="10" cy="9" r="1" fill="srgba(35.52%,64.2618%,0%,1)"/>
  <circle cx="11" cy="9" r="1" fill="srgba(35.9289%,63.9841%,0%,1)"/>
  <circle cx="12" cy="9" r="1" fill="srgba(35.9319%,63.9826%,0%,1)"/>
  <circle cx="13" cy="9" r="1" fill="srgba(35.9319%,63.9826%,0%,1)"/>
  <circle cx="14" cy="9" r="1" fill="srgba(35.9304%,63.9826%,0%,1)"/>
  <circle cx="15" cy="9" r="1" fill="srgba(35.9533%,63.9872%,0.00915541%,1)"/>
  <circle cx="0" cy="10" r="1" fill="srgba(99.7513%,87.7241%,0%,1)"/>
  <circle cx="1" cy="10" r="1" fill="srgba(99.7513%,87.7241%,0%,1)"/>
  <circle cx="2" cy="10" r="1" fill="srgba(99.7513%,87.7241%,0.0015259%,1)"/>
  <circle cx="3" cy="10" r="1" fill="srgba(99.6536%,87.0848%,0.00762951%,1)"/>
  <circle cx="4" cy="10" r="1" fill="srgba(99.7147%,87.4846%,0%,1)"/>
  <circle cx="5" cy="10" r="1" fill="srgba(99.6612%,87.1305%,0.00610361%,1)"/>
  <circle cx="6" cy="10" r="1" fill="srgba(99.7024%,87.4052%,0.0213626%,1)"/>
  <circle cx="7" cy="10" r="1" fill="srgba(99.7543%,87.744%,0%,1)"/>
  <circle cx="8" cy="10" r="1" fill="srgba(99.7696%,87.7104%,0%,1)"/>
  <circle cx="9" cy="10" r="1" fill="srgba(99.2828%,88.0568%,0%,1)"/>
  <circle cx="10" cy="10" r="1" fill="srgba(98.6572%,88.5023%,0%,1)"/>
  <circle cx="11" cy="10" r="1" fill="srgba(98.6648%,88.4962%,0%,1)"/>
  <circle cx="12" cy="10" r="1" fill="srgba(98.6648%,88.4962%,0%,1)"/>
  <circle cx="13" cy="10" r="1" fill="srgba(98.6648%,88.4962%,0%,1)"/>
  <circle cx="14" cy="10" r="1" fill="srgba(98.6648%,88.4962%,0%,1)"/>
  <circle cx="15" cy="10" r="1" fill="srgba(98.6648%,88.4962%,0.030518%,1)"/>
  <circle cx="0" cy="11" r="1" fill="srgba(100%,89.6559%,0%,1)"/>
  <circle cx="1" cy="11" r="1" fill="srgba(100%,89.6559%,0%,1)"/>
  <circle cx="2" cy="11" r="1" fill="srgba(100%,89.6559%,0%,1)"/>
  <circle cx="3" cy="11" r="1" fill="srgba(100%,89.6559%,0%,1)"/>
  <circle cx="4" cy="11" r="1" fill="srgba(100%,89.6559%,0%,1)"/>
  <circle cx="5" cy="11" r="1" fill="srgba(100%,89.6559%,0%,1)"/>
  <circle cx="6" cy="11" r="1" fill="srgba(100%,89.6559%,0%,1)"/>
  <circle cx="7" cy="11" r="1" fill="srgba(100%,89.6559%,0%,1)"/>
  <circle cx="8" cy="11" r="1" fill="srgba(100%,89.6574%,0%,1)"/>
  <circle cx="9" cy="11" r="1" fill="srgba(100%,89.6345%,0%,1)"/>
  <circle cx="10" cy="11" r="1" fill="srgba(100%,89.6071%,0%,1)"/>
  <circle cx="11" cy="11" r="1" fill="srgba(100%,89.6071%,0%,1)"/>
  <circle cx="12" cy="11" r="1" fill="srgba(100%,89.6071%,0%,1)"/>
  <circle cx="13" cy="11" r="1" fill="srgba(100%,89.6071%,0%,1)"/>
  <circle cx="14" cy="11" r="1" fill="srgba(100%,89.6071%,0%,1)"/>
  <circle cx="15" cy="11" r="1" fill="srgba(100%,89.6071%,0.030518%,1)"/>
  <circle cx="0" cy="12" r="1" fill="srgba(75.7473%,79.5377%,0%,1)"/>
  <circle cx="1" cy="12" r="1" fill="srgba(75.7473%,79.5377%,0%,1)"/>
  <circle cx="2" cy="12" r="1" fill="srgba(75.7473%,79.5377%,0%,1)"/>
  <circle cx="3" cy="12" r="1" fill="srgba(75.7473%,79.5377%,0%,1)"/>
  <circle cx="4" cy="12" r="1" fill="srgba(75.7473%,79.5377%,0%,1)"/>
  <circle cx="5" cy="12" r="1" fill="srgba(75.7473%,79.5377%,0%,1)"/>
  <circle cx="6" cy="12" r="1" fill="srgba(75.7473%,79.5377%,0%,1)"/>
  <circle cx="7" cy="12" r="1" fill="srgba(75.7473%,79.5377%,0%,1)"/>
  <circle cx="8" cy="12" r="1" fill="srgba(75.7473%,79.5377%,0%,1)"/>
  <circle cx="9" cy="12" r="1" fill="srgba(75.7473%,79.5377%,0%,1)"/>
  <circle cx="10" cy="12" r="1" fill="srgba(75.7473%,79.5377%,0%,1)"/>
  <circle cx="11" cy="12" r="1" fill="srgba(75.7473%,79.5377%,0%,1)"/>
  <circle cx="12" cy="12" r="1" fill="srgba(75.7473%,79.5377%,0%,1)"/>
  <circle cx="13" cy="12" r="1" fill="srgba(75.7473%,79.5377%,0%,1)"/>
  <circle cx="14" cy="12" r="1" fill="srgba(75.7473%,79.5377%,0%,1)"/>
  <circle cx="15" cy="12" r="1" fill="srgba(75.7549%,79.5392%,0.0228885%,1)"/>
  <circle cx="0" cy="13" r="1" fill="srgba(9.65743%,53.7163%,0%,1)"/>
  <circle cx="1" cy="13" r="1" fill="srgba(9.65743%,53.7163%,0%,1)"/>
  <circle cx="2" cy="13" r="1" fill="srgba(9.65743%,53.7163%,0%,1)"/>
  <circle cx="3" cy="13" r="1" fill="srgba(9.65743%,53.7163%,0%,1)"/>
  <circle cx="4" cy="13" r="1" fill="srgba(9.65743%,53.7163%,0%,1)"/>
  <circle cx="5" cy="13" r="1" fill="srgba(9.65743%,53.7163%,0%,1)"/>
  <circle cx="6" cy="13" r="1" fill="srgba(9.65743%,53.7163%,0%,1)"/>
  <circle cx="7" cy="13" r="1" fill="srgba(9.65743%,53.7163%,0%,1)"/>
  <circle cx="8" cy="13" r="1" fill="srgba(9.65743%,53.7163%,0%,1)"/>
  <circle cx="9" cy="13" r="1" fill="srgba(9.65743%,53.7163%,0%,1)"/>
  <circle cx="10" cy="13" r="1" fill="srgba(9.65743%,53.7163%,0%,1)"/>
  <circle cx="11" cy="13" r="1" fill="srgba(9.65743%,53.7163%,0%,1)"/>
  <circle cx="12" cy="13" r="1" fill="srgba(9.65743%,53.7163%,0%,1)"/>
  <circle cx="13" cy="13" r="1" fill="srgba(9.65743%,53.7163%,0%,1)"/>
  <circle cx="14" cy="13" r="1" fill="srgba(9.65591%,53.7163%,0%,1)"/>
  <circle cx="15" cy="13" r="1" fill="srgba(9.68795%,53.724%,0.0015259%,1)"/>
  <circle cx="0" cy="14" r="1" fill="srgba(6.48051%,52.4758%,0%,1)"/>
  <circle cx="1" cy="14" r="1" fill="srgba(6.48051%,52.4758%,0%,1)"/>
  <circle cx="2" cy="14" r="1" fill="srgba(6.48051%,52.4758%,0%,1)"/>
  <circle cx="3" cy="14" r="1" fill="srgba(6.48051%,52.4758%,0%,1)"/>
  <circle cx="4" cy="14" r="1" fill="srgba(6.48051%,52.4758%,0%,1)"/>
  <circle cx="5" cy="14" r="1" fill="srgba(6.48051%,52.4758%,0%,1)"/>
  <circle cx="6" cy="14" r="1" fill="srgba(6.48051%,52.4758%,0%,1)"/>
  <circle cx="7" cy="14" r="1" fill="srgba(6.48051%,52.4758%,0%,1)"/>
  <circle cx="8" cy="14" r="1" fill="srgba(6.48051%,52.4758%,0%,1)"/>
  <circle cx="9" cy="14" r="1" fill="srgba(6.48051%,52.4758%,0%,1)"/>
  <circle cx="10" cy="14" r="1" fill="srgba(6.48051%,52.4758%,0%,1)"/>
  <circle cx="11" cy="14" r="1" fill="srgba(6.48051%,52.4758%,0%,1)"/>
  <circle cx="12" cy="14" r="1" fill="srgba(6.48051%,52.4758%,0%,1)"/>
  <circle cx="13" cy="14" r="1" fill="srgba(6.48051%,52.4758%,0%,1)"/>
  <circle cx="14" cy="14" r="1" fill="srgba(6.47898%,52.4758%,0%,1)"/>
  <circle cx="15" cy="14" r="1" fill="srgba(6.51102%,52.4834%,0%,1)"/>
  <circle cx="0" cy="15" r="1" fill="srgba(6.79026%,52.5948%,0.00762951%,1)"/>
  <circle cx="1" cy="15" r="1" fill="srgba(6.79026%,52.5948%,0.00762951%,1)"/>
  <circle cx="2" cy="15" r="1" fill="srgba(6.79026%,52.5948%,0.00762951%,1)"/>
  <circle cx="3" cy="15" r="1" fill="srgba(6.79026%,52.5948%,0.00762951%,1)"/>
  <circle cx="4" cy="15" r="1" fill="srgba(6.79026%,52.5948%,0.00762951%,1)"/>
  <circle cx="5" cy="15" r="1" fill="srgba(6.79026%,52.5948%,0.00762951%,1)"/>
  <circle cx="6" cy="15" r="1" fill="srgba(6.79026%,52.5948%,0.00762951%,1)"/>
  <circle cx="7" cy="15" r="1" fill="srgba(6.79026%,52.5948%,0.00762951%,1)"/>
  <circle cx="8" cy="15" r="1" fill="srgba(6.79026%,52.5948%,0.00762951%,1)"/>
  <circle cx="9" cy="15" r="1" fill="srgba(6.79026%,52.5948%,0.00762951%,1)"/>
  <circle cx="10" cy="15" r="1" fill="srgba(6.79026%,52.5948%,0.00762951%,1)"/>
  <circle cx="11" cy="15" r="1" fill="srgba(6.79026%,52.5948%,0.00762951%,1)"/>
  <circle cx="12" cy="15" r="1" fill="srgba(6.79026%,52.5948%,0.00762951%,1)"/>
  <circle cx="13" cy="15" r="1" fill="srgba(6.79026%,52.5948%,0.00762951%,1)"/>
  <circle cx="14" cy="15" r="1" fill="srgba(6.78874%,52.5948%,0.00762951%,1)"/>
  <circle cx="15" cy="15" r="1" fill="srgba(6.82078%,52.6024%,0.00762951%,1)"/>
</svg>
