<?xml version="1.0" standalone="no"?>
<!DOCTYPE svg PUBLIC "-//W3C//DTD SVG 20010904//EN"
  "http://www.w3.org/TR/2001/REC-SVG-20010904/DTD/svg10.dtd">
<svg width="16" height="16">
  <circle cx="0" cy="0" r="1" fill="srgba(204,0,0,1)"/>
  <circle cx="1" cy="0" r="1" fill="srgba(204,0,0,1)"/>
  <circle cx="2" cy="0" r="1" fill="srgba(204,0,0,1)"/>
  <circle cx="3" cy="0" r="1" fill="srgba(204,0,0,1)"/>
  <circle cx="4" cy="0" r="1" fill="srgba(204,0,0,1)"/>
  <circle cx="5" cy="0" r="1" fill="srgba(204,0,0,1)"/>
  <circle cx="6" cy="0" r="1" fill="srgba(204,0,0,1)"/>
  <circle cx="7" cy="0" r="1" fill="srgba(204,0,0,1)"/>
  <circle cx="8" cy="0" r="1" fill="srgba(204,0,0,1)"/>
  <circle cx="9" cy="0" r="1" fill="srgba(204,0,0,1)"/>
  <circle cx="10" cy="0" r="1" fill="srgba(204,0,0,1)"/>
  <circle cx="11" cy="0" r="1" fill="srgba(204,0,0,1)"/>
  <circle cx="12" cy="0" r="1" fill="srgba(204,0,0,1)"/>
  <circle cx="13" cy="0" r="1" fill="srgba(204,0,0,1)"/>
  <circle cx="14" cy="0" r="1" fill="srgba(204,0,0,1)"/>
  <circle cx="15" cy="0" r="1" fill="srgba(204,0,0,1)"/>
  <circle cx="0" cy="1" r="1" fill="srgba(204,0,0,1)"/>
  <circle cx="1" cy="1" r="1" fill="srgba(204,0,0,1)"/>
  <circle cx="2" cy="1" r="1" fill="srgba(204,0,0,1)"/>
  <circle cx="3" cy="1" r="1" fill="srgba(204,0,0,1)"/>
  <circle cx="4" cy="1" r="1" fill="srgba(204,0,0,1)"/>
  <circle cx="5" cy="1" r="1" fill="srgba(204,0,0,1)"/>
  <circle cx="6" cy="1" r="1" fill="srgba(204,0,0,1)"/>
  <circle cx="7" cy="1" r="1" fill="srgba(204,0,0,1)"/>
  <circle cx="8" cy="1" r="1" fill="srgba(204,0,0,1)"/>
  <circle cx="9" cy="1" r="1" fill="srgba(204,0,0,1)"/>
  <circle cx="10" cy="1" r="1" fill="srgba(204,0,0,1)"/>
  <circle cx="11" cy="1" r="1" fill="srgba(204,0,0,1)"/>
  <circle cx="12" cy="1" r="1" fill="srgba(204,0,0,1)"/>
  <circle cx="13" cy="1" r="1" fill="srgba(204,0,0,1)"/>
  <circle cx="14" cy="1" r="1" fill="srgba(204,0,0,1)"/>
  <circle cx="15" cy="1" r="1" fill="srgba(204,0,0,1)"/>
  <circle cx="0" cy="2" r="1" fill="srgba(204,0,0,1)"/>
  <circle cx="1" cy="2" r="1" fill="srgba(204,0,0,1)"/>
  <circle cx="2" cy="2" r="1" fill="srgba(204,0,0,1)"/>
  <circle cx="3" cy="2" r="1" fill="srgba(204,0,0,1)"/>
  <circle cx="4" cy="2" r="1" fill="srgba(204,0,0,1)"/>
  <circle cx="5" cy="2" r="1" fill="srgba(204,0,0,1)"/>
  <circle cx="6" cy="2" r="1" fill="srgba(204,0,0,1)"/>
  <circle cx="7" cy="2" r="1" fill="srgba(204,0,0,1)"/>
  <circle cx="8" cy="2" r="1" fill="srgba(204,0,0,1)"/>
  <circle cx="9" cy="2" r="1" fill="srgba(204,0,0,1)"/>
  <circle cx="10" cy="2" r="1" fill="srgba(204,0,0,1)"/>
  <circle cx="11" cy="2" r="1" fill="srgba(204,0,0,1)"/>
  <circle cx="12" cy="2" r="1" fill="srgba(204,0,0,1)"/>
  <circle cx="13" cy="2" r="1" fill="srgba(204,0,0,1)"/>
  <circle cx="14" cy="2" r="1" fill="srgba(204,0,0,1)"/>
  <circle cx="15" cy="2" r="1" fill="srgba(204,0,0,1)"/>
  <circle cx="0" cy="3" r="1" fill="srgba(79.6674%,0%,0%,1)"/>
  <circle cx="1" cy="3" r="1" fill="srgba(79.6674%,0%,0%,1)"/>
  <circle cx="2" cy="3" r="1" fill="srgba(79.6674%,0%,0%,1)"/>
  <circle cx="3" cy="3" r="1" fill="srgba(79.6674%,0%,0%,1)"/>
  <circle cx="4" cy="3" r="1" fill="srgba(79.6674%,0%,0%,1)"/>
  <circle cx="5" cy="3" r="1" fill="srgba(79.6674%,0%,0%,1)"/>
  <circle cx="6" cy="3" r="1" fill="srgba(79.6674%,0%,0%,1)"/>
  <circle cx="7" cy="3" r="1" fill="srgba(79.6689%,0%,0%,1)"/>
  <circle cx="8" cy="3" r="1" fill="srgba(79.6689%,0%,0%,1)"/>
  <circle cx="9" cy="3" r="1" fill="srgba(79.6674%,0%,0%,1)"/>
  <circle cx="10" cy="3" r="1" fill="srgba(79.6674%,0%,0%,1)"/>
  <circle cx="11" cy="3" r="1" fill="srgba(79.6674%,0%,0%,1)"/>
  <circle cx="12" cy="3" r="1" fill="srgba(79.6674%,0%,0%,1)"/>
  <circle cx="13" cy="3" r="1" fill="srgba(79.6674%,0%,0%,1)"/>
  <circle cx="14" cy="3" r="1" fill="srgba(79.6674%,0%,0%,1)"/>
  <circle cx="15" cy="3" r="1" fill="srgba(79.6674%,0%,0%,1)"/>
  <circle cx="0" cy="4" r="1" fill="srgba(88.7312%,43.6744%,43.6744%,1)"/>
  <circle cx="1" cy="4" r="1" fill="srgba(88.7312%,43.6744%,43.6744%,1)"/>
  <circle cx="2" cy="4" r="1" fill="srgba(88.7312%,43.6744%,43.6744%,1)"/>
  <circle cx="3" cy="4" r="1" fill="srgba(88.7312%,43.6744%,43.6744%,1)"/>
  <circle cx="4" cy="4" r="1" fill="srgba(88.7312%,43.6728%,43.6667%,1)"/>
  <circle cx="5" cy="4" r="1" fill="srgba(88.7343%,43.7064%,43.8071%,1)"/>
  <circle cx="6" cy="4" r="1" fill="srgba(88.751%,43.8483%,44.416%,1)"/>
  <circle cx="7" cy="4" r="1" fill="srgba(88.6778%,43.2258%,41.767%,1)"/>
  <circle cx="8" cy="4" r="1" fill="srgba(88.6778%,43.2258%,41.767%,1)"/>
  <circle cx="9" cy="4" r="1" fill="srgba(88.751%,43.8483%,44.416%,1)"/>
  <circle cx="10" cy="4" r="1" fill="srgba(88.7343%,43.7064%,43.8071%,1)"/>
  <circle cx="11" cy="4" r="1" fill="srgba(88.7312%,43.6728%,43.6667%,1)"/>
  <circle cx="12" cy="4" r="1" fill="srgba(88.7312%,43.6744%,43.6744%,1)"/>
  <circle cx="13" cy="4" r="1" fill="srgba(88.7312%,43.6744%,43.6744%,1)"/>
  <circle cx="14" cy="4" r="1" fill="srgba(88.7312%,43.6744%,43.6744%,1)"/>
  <circle cx="15" cy="4" r="1" fill="srgba(88.7312%,43.6744%,43.6744%,1)"/>
  <circle cx="0" cy="5" r="1" fill="white"/>
  <circle cx="1" cy="5" r="1" fill="white"/>
  <circle cx="2" cy="5" r="1" fill="white"/>
  <circle cx="3" cy="5" r="1" fill="white"/>
  <circle cx="4" cy="5" r="1" fill="white"/>
  <circle cx="5" cy="5" r="1" fill="srgba(99.9359%,99.35%,96.701%,1)"/>
  <circle cx="6" cy="5" r="1" fill="srgba(99.6475%,96.5743%,83.415%,1)"/>
  <circle cx="7" cy="5" r="1" fill="srgba(99.6429%,96.6293%,84.065%,1)"/>
  <circle cx="8" cy="5" r="1" fill="srgba(99.6429%,96.6308%,84.0696%,1)"/>
  <circle cx="9" cy="5" r="1" fill="srgba(99.6475%,96.5728%,83.4119%,1)"/>
  <circle cx="10" cy="5" r="1" fill="srgba(99.9359%,99.35%,96.701%,1)"/>
  <circle cx="11" cy="5" r="1" fill="white"/>
  <circle cx="12" cy="5" r="1" fill="white"/>
  <circle cx="13" cy="5" r="1" fill="white"/>
  <circle cx="14" cy="5" r="1" fill="white"/>
  <circle cx="15" cy="5" r="1" fill="white"/>
  <circle cx="0" cy="6" r="1" fill="white"/>
  <circle cx="1" cy="6" r="1" fill="white"/>
  <circle cx="2" cy="6" r="1" fill="white"/>
  <circle cx="3" cy="6" r="1" fill="white"/>
  <circle cx="4" cy="6" r="1" fill="srgba(99.8718%,98.9014%,95.3277%,1)"/>
  <circle cx="5" cy="6" r="1" fill="srgba(99.6094%,96.669%,85.8305%,1)"/>
  <circle cx="6" cy="6" r="1" fill="srgba(99.6506%,97.0047%,87.2572%,1)"/>
  <circle cx="7" cy="6" r="1" fill="srgba(99.7986%,98.262%,92.6055%,1)"/>
  <circle cx="8" cy="6" r="1" fill="srgba(99.7971%,98.262%,92.6055%,1)"/>
  <circle cx="9" cy="6" r="1" fill="srgba(99.6506%,97.0047%,87.2557%,1)"/>
  <circle cx="10" cy="6" r="1" fill="srgba(99.6094%,96.669%,85.832%,1)"/>
  <circle cx="11" cy="6" r="1" fill="srgba(99.8718%,98.9029%,95.3292%,1)"/>
  <circle cx="12" cy="6" r="1" fill="white"/>
  <circle cx="13" cy="6" r="1" fill="white"/>
  <circle cx="14" cy="6" r="1" fill="white"/>
  <circle cx="15" cy="6" r="1" fill="white"/>
  <circle cx="0" cy="7" r="1" fill="white"/>
  <circle cx="1" cy="7" r="1" fill="white"/>
  <circle cx="2" cy="7" r="1" fill="white"/>
  <circle cx="3" cy="7" r="1" fill="white"/>
  <circle cx="4" cy="7" r="1" fill="srgba(99.8032%,98.3215%,92.8679%,1)"/>
  <circle cx="5" cy="7" r="1" fill="srgba(99.5529%,96.1761%,83.7461%,1)"/>
  <circle cx="6" cy="7" r="1" fill="srgba(99.9969%,99.9802%,99.913%,1)"/>
  <circle cx="7" cy="7" r="1" fill="srgba(99.3713%,94.6044%,77.0733%,1)"/>
  <circle cx="8" cy="7" r="1" fill="srgba(99.3713%,94.6075%,77.0764%,1)"/>
  <circle cx="9" cy="7" r="1" fill="srgba(99.9969%,99.9802%,99.9145%,1)"/>
  <circle cx="10" cy="7" r="1" fill="srgba(99.5529%,96.1761%,83.7476%,1)"/>
  <circle cx="11" cy="7" r="1" fill="srgba(99.8032%,98.323%,92.871%,1)"/>
  <circle cx="12" cy="7" r="1" fill="white"/>
  <circle cx="13" cy="7" r="1" fill="white"/>
  <circle cx="14" cy="7" r="1" fill="white"/>
  <circle cx="15" cy="7" r="1" fill="white"/>
  <circle cx="0" cy="8" r="1" fill="white"/>
  <circle cx="1" cy="8" r="1" fill="white"/>
  <circle cx="2" cy="8" r="1" fill="white"/>
  <circle cx="3" cy="8" r="1" fill="white"/>
  <circle cx="4" cy="8" r="1" fill="srgba(99.4598%,95.3628%,80.2853%,1)"/>
  <circle cx="5" cy="8" r="1" fill="srgba(99.7574%,97.9126%,91.1299%,1)"/>
  <circle cx="6" cy="8" r="1" fill="white"/>
  <circle cx="7" cy="8" r="1" fill="srgba(99.5148%,95.8419%,82.3224%,1)"/>
  <circle cx="8" cy="8" r="1" fill="srgba(99.5163%,95.845%,82.3316%,1)"/>
  <circle cx="9" cy="8" r="1" fill="white"/>
  <circle cx="10" cy="8" r="1" fill="srgba(99.7574%,97.9126%,91.1269%,1)"/>
  <circle cx="11" cy="8" r="1" fill="srgba(99.4598%,95.3628%,80.2899%,1)"/>
  <circle cx="12" cy="8" r="1" fill="white"/>
  <circle cx="13" cy="8" r="1" fill="white"/>
  <circle cx="14" cy="8" r="1" fill="white"/>
  <circle cx="15" cy="8" r="1" fill="white"/>
  <circle cx="0" cy="9" r="1" fill="white"/>
  <circle cx="1" cy="9" r="1" fill="white"/>
  <circle cx="2" cy="9" r="1" fill="white"/>
  <circle cx="3" cy="9" r="1" fill="white"/>
  <circle cx="4" cy="9" r="1" fill="srgba(99.8077%,98.3291%,92.8923%,1)"/>
  <circle cx="5" cy="9" r="1" fill="srgba(99.3881%,94.7112%,77.5128%,1)"/>
  <circle cx="6" cy="9" r="1" fill="srgba(98.9578%,91.0307%,61.8708%,1)"/>
  <circle cx="7" cy="9" r="1" fill="srgba(98.7671%,89.395%,54.9187%,1)"/>
  <circle cx="8" cy="9" r="1" fill="srgba(98.7655%,89.3858%,54.8821%,1)"/>
  <circle cx="9" cy="9" r="1" fill="srgba(98.9578%,91.0292%,61.8723%,1)"/>
  <circle cx="10" cy="9" r="1" fill="srgba(99.3866%,94.7051%,77.4929%,1)"/>
  <circle cx="11" cy="9" r="1" fill="srgba(99.8077%,98.3307%,92.9%,1)"/>
  <circle cx="12" cy="9" r="1" fill="white"/>
  <circle cx="13" cy="9" r="1" fill="white"/>
  <circle cx="14" cy="9" r="1" fill="white"/>
  <circle cx="15" cy="9" r="1" fill="white"/>
  <circle cx="0" cy="10" r="1" fill="white"/>
  <circle cx="1" cy="10" r="1" fill="white"/>
  <circle cx="2" cy="10" r="1" fill="white"/>
  <circle cx="3" cy="10" r="1" fill="white"/>
  <circle cx="4" cy="10" r="1" fill="srgba(100%,100%,99.9176%,1)"/>
  <circle cx="5" cy="10" r="1" fill="srgba(99.9359%,96.1685%,82.6352%,1)"/>
  <circle cx="6" cy="10" r="1" fill="srgba(99.5178%,89.1707%,52.6482%,1)"/>
  <circle cx="7" cy="10" r="1" fill="srgba(99.6277%,90.0816%,56.5332%,1)"/>
  <circle cx="8" cy="10" r="1" fill="srgba(99.6262%,90.0771%,56.5194%,1)"/>
  <circle cx="9" cy="10" r="1" fill="srgba(99.5163%,89.1447%,52.5399%,1)"/>
  <circle cx="10" cy="10" r="1" fill="srgba(99.9344%,96.1547%,82.5757%,1)"/>
  <circle cx="11" cy="10" r="1" fill="srgba(100%,100%,99.9222%,1)"/>
  <circle cx="12" cy="10" r="1" fill="white"/>
  <circle cx="13" cy="10" r="1" fill="white"/>
  <circle cx="14" cy="10" r="1" fill="white"/>
  <circle cx="15" cy="10" r="1" fill="white"/>
  <circle cx="0" cy="11" r="1" fill="srgba(43.6851%,66.2135%,43.6851%,1)"/>
  <circle cx="1" cy="11" r="1" fill="srgba(43.6851%,66.2135%,43.6851%,1)"/>
  <circle cx="2" cy="11" r="1" fill="srgba(43.6851%,66.2135%,43.6851%,1)"/>
  <circle cx="3" cy="11" r="1" fill="srgba(43.6851%,66.2135%,43.6835%,1)"/>
  <circle cx="4" cy="11" r="1" fill="srgba(43.6912%,66.2715%,43.9322%,1)"/>
  <circle cx="5" cy="11" r="1" fill="srgba(43.6011%,65.4917%,40.6195%,1)"/>
  <circle cx="6" cy="11" r="1" fill="srgba(43.4409%,64.1184%,34.7799%,1)"/>
  <circle cx="7" cy="11" r="1" fill="srgba(43.5477%,65.0355%,38.677%,1)"/>
  <circle cx="8" cy="11" r="1" fill="srgba(43.5477%,65.0355%,38.6786%,1)"/>
  <circle cx="9" cy="11" r="1" fill="srgba(43.4409%,64.1184%,34.7768%,1)"/>
  <circle cx="10" cy="11" r="1" fill="srgba(43.6011%,65.4932%,40.6226%,1)"/>
  <circle cx="11" cy="11" r="1" fill="srgba(43.6912%,66.2715%,43.9322%,1)"/>
  <circle cx="12" cy="11" r="1" fill="srgba(43.6851%,66.2135%,43.6835%,1)"/>
  <circle cx="13" cy="11" r="1" fill="srgba(43.6851%,66.2135%,43.6851%,1)"/>
  <circle cx="14" cy="11" r="1" fill="srgba(43.6851%,66.2135%,43.6851%,1)"/>
  <circle cx="15" cy="11" r="1" fill="srgba(43.6851%,66.2135%,43.6851%,1)"/>
  <circle cx="0" cy="12" r="1" fill="srgba(0%,39.0005%,0%,1)"/>
  <circle cx="1" cy="12" r="1" fill="srgba(0%,39.0005%,0%,1)"/>
  <circle cx="2" cy="12" r="1" fill="srgba(0%,39.0005%,0%,1)"/>
  <circle cx="3" cy="12" r="1" fill="srgba(0%,39.0005%,0%,1)"/>
  <circle cx="4" cy="12" r="1" fill="srgba(0%,38.9975%,0%,1)"/>
  <circle cx="5" cy="12" r="1" fill="srgba(0%,39.057%,0%,1)"/>
  <circle cx="6" cy="12" r="1" fill="srgba(0%,39.1333%,0%,1)"/>
  <circle cx="7" cy="12" r="1" fill="srgba(0%,39.0585%,0%,1)"/>
  <circle cx="8" cy="12" r="1" fill="srgba(0%,39.0585%,0%,1)"/>
  <circle cx="9" cy="12" r="1" fill="srgba(0%,39.1333%,0%,1)"/>
  <circle cx="10" cy="12" r="1" fill="srgba(0%,39.057%,0%,1)"/>
  <circle cx="11" cy="12" r="1" fill="srgba(0%,38.9975%,0%,1)"/>
  <circle cx="12" cy="12" r="1" fill="srgba(0%,39.0005%,0%,1)"/>
  <circle cx="13" cy="12" r="1" fill="srgba(0%,39.0005%,0%,1)"/>
  <circle cx="14" cy="12" r="1" fill="srgba(0%,39.0005%,0%,1)"/>
  <circle cx="15" cy="12" r="1" fill="srgba(0%,39.0005%,0%,1)"/>
  <circle cx="0" cy="13" r="1" fill="srgba(0,102,0,1)"/>
  <circle cx="1" cy="13" r="1" fill="srgba(0,102,0,1)"/>
  <circle cx="2" cy="13" r="1" fill="srgba(0,102,0,1)"/>
  <circle cx="3" cy="13" r="1" fill="srgba(0,102,0,1)"/>
  <circle cx="4" cy="13" r="1" fill="srgba(0,102,0,1)"/>
  <circle cx="5" cy="13" r="1" fill="srgba(0,102,0,1)"/>
  <circle cx="6" cy="13" r="1" fill="srgba(0,102,0,1)"/>
  <circle cx="7" cy="13" r="1" fill="srgba(0,102,0,1)"/>
  <circle cx="8" cy="13" r="1" fill="srgba(0,102,0,1)"/>
  <circle cx="9" cy="13" r="1" fill="srgba(0,102,0,1)"/>
  <circle cx="10" cy="13" r="1" fill="srgba(0,102,0,1)"/>
  <circle cx="11" cy="13" r="1" fill="srgba(0,102,0,1)"/>
  <circle cx="12" cy="13" r="1" fill="srgba(0,102,0,1)"/>
  <circle cx="13" cy="13" r="1" fill="srgba(0,102,0,1)"/>
  <circle cx="14" cy="13" r="1" fill="srgba(0,102,0,1)"/>
  <circle cx="15" cy="13" r="1" fill="srgba(0,102,0,1)"/>
  <circle cx="0" cy="14" r="1" fill="srgba(0,102,0,1)"/>
  <circle cx="1" cy="14" r="1" fill="srgba(0,102,0,1)"/>
  <circle cx="2" cy="14" r="1" fill="srgba(0,102,0,1)"/>
  <circle cx="3" cy="14" r="1" fill="srgba(0,102,0,1)"/>
  <circle cx="4" cy="14" r="1" fill="srgba(0,102,0,1)"/>
  <circle cx="5" cy="14" r="1" fill="srgba(0,102,0,1)"/>
  <circle cx="6" cy="14" r="1" fill="srgba(0,102,0,1)"/>
  <circle cx="7" cy="14" r="1" fill="srgba(0,102,0,1)"/>
  <circle cx="8" cy="14" r="1" fill="srgba(0,102,0,1)"/>
  <circle cx="9" cy="14" r="1" fill="srgba(0,102,0,1)"/>
  <circle cx="10" cy="14" r="1" fill="srgba(0,102,0,1)"/>
  <circle cx="11" cy="14" r="1" fill="srgba(0,102,0,1)"/>
  <circle cx="12" cy="14" r="1" fill="srgba(0,102,0,1)"/>
  <circle cx="13" cy="14" r="1" fill="srgba(0,102,0,1)"/>
  <circle cx="14" cy="14" r="1" fill="srgba(0,102,0,1)"/>
  <circle cx="15" cy="14" r="1" fill="srgba(0,102,0,1)"/>
  <circle cx="0" cy="15" r="1" fill="srgba(0,102,0,1)"/>
  <circle cx="1" cy="15" r="1" fill="srgba(0,102,0,1)"/>
  <circle cx="2" cy="15" r="1" fill="srgba(0,102,0,1)"/>
  <circle cx="3" cy="15" r="1" fill="srgba(0,102,0,1)"/>
  <circle cx="4" cy="15" r="1" fill="srgba(0,102,0,1)"/>
  <circle cx="5" cy="15" r="1" fill="srgba(0,102,0,1)"/>
  <circle cx="6" cy="15" r="1" fill="srgba(0,102,0,1)"/>
  <circle cx="7" cy="15" r="1" fill="srgba(0,102,0,1)"/>
  <circle cx="8" cy="15" r="1" fill="srgba(0,102,0,1)"/>
  <circle cx="9" cy="15" r="1" fill="srgba(0,102,0,1)"/>
  <circle cx="10" cy="15" r="1" fill="srgba(0,102,0,1)"/>
  <circle cx="11" cy="15" r="1" fill="srgba(0,102,0,1)"/>
  <circle cx="12" cy="15" r="1" fill="srgba(0,102,0,1)"/>
  <circle cx="13" cy="15" r="1" fill="srgba(0,102,0,1)"/>
  <circle cx="14" cy="15" r="1" fill="srgba(0,102,0,1)"/>
  <circle cx="15" cy="15" r="1" fill="srgba(0,102,0,1)"/>
</svg>
