<?xml version="1.0" standalone="no"?>
<!DOCTYPE svg PUBLIC "-//W3C//DTD SVG 20010904//EN"
  "http://www.w3.org/TR/2001/REC-SVG-20010904/DTD/svg10.dtd">
<svg width="16" height="16">
  <circle cx="0" cy="0" r="1" fill="srgba(0,36,125,1)"/>
  <circle cx="1" cy="0" r="1" fill="srgba(0,36,125,1)"/>
  <circle cx="2" cy="0" r="1" fill="srgba(0,36,125,1)"/>
  <circle cx="3" cy="0" r="1" fill="srgba(0,36,125,1)"/>
  <circle cx="4" cy="0" r="1" fill="srgba(0,36,125,1)"/>
  <circle cx="5" cy="0" r="1" fill="srgba(0,36,125,1)"/>
  <circle cx="6" cy="0" r="1" fill="srgba(0,36,125,1)"/>
  <circle cx="7" cy="0" r="1" fill="srgba(0,36,125,1)"/>
  <circle cx="8" cy="0" r="1" fill="srgba(0,36,125,1)"/>
  <circle cx="9" cy="0" r="1" fill="srgba(0,36,125,1)"/>
  <circle cx="10" cy="0" r="1" fill="srgba(0,36,125,1)"/>
  <circle cx="11" cy="0" r="1" fill="srgba(0,36,125,1)"/>
  <circle cx="12" cy="0" r="1" fill="srgba(0,36,125,1)"/>
  <circle cx="13" cy="0" r="1" fill="srgba(0,36,125,1)"/>
  <circle cx="14" cy="0" r="1" fill="srgba(0,36,125,1)"/>
  <circle cx="15" cy="0" r="1" fill="srgba(0,36,125,1)"/>
  <circle cx="0" cy="1" r="1" fill="srgba(0,36,125,1)"/>
  <circle cx="1" cy="1" r="1" fill="srgba(0,36,125,1)"/>
  <circle cx="2" cy="1" r="1" fill="srgba(0%,14.1146%,49.0166%,1)"/>
  <circle cx="3" cy="1" r="1" fill="srgba(0%,14.0688%,48.9906%,1)"/>
  <circle cx="4" cy="1" r="1" fill="srgba(0%,14.1146%,49.0181%,1)"/>
  <circle cx="5" cy="1" r="1" fill="srgba(0,36,125,1)"/>
  <circle cx="6" cy="1" r="1" fill="srgba(0,36,125,1)"/>
  <circle cx="7" cy="1" r="1" fill="srgba(0,36,125,1)"/>
  <circle cx="8" cy="1" r="1" fill="srgba(0,36,125,1)"/>
  <circle cx="9" cy="1" r="1" fill="srgba(0,36,125,1)"/>
  <circle cx="10" cy="1" r="1" fill="srgba(0,36,125,1)"/>
  <circle cx="11" cy="1" r="1" fill="srgba(0,36,125,1)"/>
  <circle cx="12" cy="1" r="1" fill="srgba(0,36,125,1)"/>
  <circle cx="13" cy="1" r="1" fill="srgba(0,36,125,1)"/>
  <circle cx="14" cy="1" r="1" fill="srgba(0,36,125,1)"/>
  <circle cx="15" cy="1" r="1" fill="srgba(0,36,125,1)"/>
  <circle cx="0" cy="2" r="1" fill="srgba(0,36,125,1)"/>
  <circle cx="1" cy="2" r="1" fill="srgba(0%,14.1131%,49.0166%,1)"/>
  <circle cx="2" cy="2" r="1" fill="srgba(0.146487%,14.2443%,49.0944%,1)"/>
  <circle cx="3" cy="2" r="1" fill="srgba(1.45266%,15.3643%,49.7597%,1)"/>
  <circle cx="4" cy="2" r="1" fill="srgba(0.140383%,14.2382%,49.0913%,1)"/>
  <circle cx="5" cy="2" r="1" fill="srgba(0%,14.1131%,49.0166%,1)"/>
  <circle cx="6" cy="2" r="1" fill="srgba(0,36,125,1)"/>
  <circle cx="7" cy="2" r="1" fill="srgba(0,36,125,1)"/>
  <circle cx="8" cy="2" r="1" fill="srgba(0,36,125,1)"/>
  <circle cx="9" cy="2" r="1" fill="srgba(0,36,125,1)"/>
  <circle cx="10" cy="2" r="1" fill="srgba(0,36,125,1)"/>
  <circle cx="11" cy="2" r="1" fill="srgba(0,36,125,1)"/>
  <circle cx="12" cy="2" r="1" fill="srgba(0,36,125,1)"/>
  <circle cx="13" cy="2" r="1" fill="srgba(0,36,125,1)"/>
  <circle cx="14" cy="2" r="1" fill="srgba(0,36,125,1)"/>
  <circle cx="15" cy="2" r="1" fill="srgba(0,36,125,1)"/>
  <circle cx="0" cy="3" r="1" fill="srgba(0,36,125,1)"/>
  <circle cx="1" cy="3" r="1" fill="srgba(0%,14.0185%,48.9601%,1)"/>
  <circle cx="2" cy="3" r="1" fill="srgba(2.56352%,16.3195%,50.3273%,1)"/>
  <circle cx="3" cy="3" r="1" fill="srgba(22.8489%,33.7392%,60.6668%,1)"/>
  <circle cx="4" cy="3" r="1" fill="srgba(2.43229%,16.199%,50.2556%,1)"/>
  <circle cx="5" cy="3" r="1" fill="srgba(0%,13.8842%,48.8808%,1)"/>
  <circle cx="6" cy="3" r="1" fill="srgba(0%,14.0978%,49.0074%,1)"/>
  <circle cx="7" cy="3" r="1" fill="srgba(0%,14.1192%,49.0196%,1)"/>
  <circle cx="8" cy="3" r="1" fill="srgba(0,36,125,1)"/>
  <circle cx="9" cy="3" r="1" fill="srgba(0,36,125,1)"/>
  <circle cx="10" cy="3" r="1" fill="srgba(0,36,125,1)"/>
  <circle cx="11" cy="3" r="1" fill="srgba(0,36,125,1)"/>
  <circle cx="12" cy="3" r="1" fill="srgba(0,36,125,1)"/>
  <circle cx="13" cy="3" r="1" fill="srgba(0,36,125,1)"/>
  <circle cx="14" cy="3" r="1" fill="srgba(0,36,125,1)"/>
  <circle cx="15" cy="3" r="1" fill="srgba(0,36,125,1)"/>
  <circle cx="0" cy="4" r="1" fill="srgba(0%,13.7453%,48.7984%,1)"/>
  <circle cx="1" cy="4" r="1" fill="srgba(0%,13.6553%,48.7449%,1)"/>
  <circle cx="2" cy="4" r="1" fill="srgba(0.430304%,14.5037%,49.2485%,1)"/>
  <circle cx="3" cy="4" r="1" fill="srgba(3.83307%,17.4105%,50.9743%,1)"/>
  <circle cx="4" cy="4" r="1" fill="srgba(0.590524%,14.6258%,49.3202%,1)"/>
  <circle cx="5" cy="4" r="1" fill="srgba(3.21813%,16.8811%,50.66%,1)"/>
  <circle cx="6" cy="4" r="1" fill="srgba(0.451667%,14.5052%,49.25%,1)"/>
  <circle cx="7" cy="4" r="1" fill="srgba(0%,14.1009%,49.0105%,1)"/>
  <circle cx="8" cy="4" r="1" fill="srgba(0,36,125,1)"/>
  <circle cx="9" cy="4" r="1" fill="srgba(0,36,125,1)"/>
  <circle cx="10" cy="4" r="1" fill="srgba(0%,14.1253%,49.0135%,1)"/>
  <circle cx="11" cy="4" r="1" fill="srgba(0%,13.8582%,49.2073%,1)"/>
  <circle cx="12" cy="4" r="1" fill="srgba(0.0259403%,13.6309%,49.3721%,1)"/>
  <circle cx="13" cy="4" r="1" fill="srgba(0.0198367%,14.1268%,49.0135%,1)"/>
  <circle cx="14" cy="4" r="1" fill="srgba(0,36,125,1)"/>
  <circle cx="15" cy="4" r="1" fill="srgba(0,36,125,1)"/>
  <circle cx="0" cy="5" r="1" fill="srgba(8.8365%,21.706%,53.5241%,1)"/>
  <circle cx="1" cy="5" r="1" fill="srgba(10.6126%,23.2334%,54.4289%,1)"/>
  <circle cx="2" cy="5" r="1" fill="srgba(0%,13.7469%,48.7999%,1)"/>
  <circle cx="3" cy="5" r="1" fill="srgba(0%,13.9254%,48.9052%,1)"/>
  <circle cx="4" cy="5" r="1" fill="srgba(0.939956%,14.9081%,49.4881%,1)"/>
  <circle cx="5" cy="5" r="1" fill="srgba(16.1135%,27.9576%,57.2351%,1)"/>
  <circle cx="6" cy="5" r="1" fill="srgba(2.27817%,16.0739%,50.1808%,1)"/>
  <circle cx="7" cy="5" r="1" fill="srgba(0%,14.0322%,48.9677%,1)"/>
  <circle cx="8" cy="5" r="1" fill="srgba(0%,14.1238%,49.015%,1)"/>
  <circle cx="9" cy="5" r="1" fill="srgba(0%,14.0032%,49.102%,1)"/>
  <circle cx="10" cy="5" r="1" fill="srgba(0%,13.196%,49.6849%,1)"/>
  <circle cx="11" cy="5" r="1" fill="srgba(6.04257%,18.0056%,46.2104%,1)"/>
  <circle cx="12" cy="5" r="1" fill="srgba(15.996%,25.0263%,41.1383%,1)"/>
  <circle cx="13" cy="5" r="1" fill="srgba(1.35805%,15.0423%,48.3513%,1)"/>
  <circle cx="14" cy="5" r="1" fill="srgba(0%,14.0642%,49.0593%,1)"/>
  <circle cx="15" cy="5" r="1" fill="srgba(0,36,125,1)"/>
  <circle cx="0" cy="6" r="1" fill="srgba(8.93568%,21.7914%,53.5744%,1)"/>
  <circle cx="1" cy="6" r="1" fill="srgba(10.7378%,23.3387%,54.493%,1)"/>
  <circle cx="2" cy="6" r="1" fill="srgba(0%,13.756%,48.8045%,1)"/>
  <circle cx="3" cy="6" r="1" fill="srgba(0,36,125,1)"/>
  <circle cx="4" cy="6" r="1" fill="srgba(0.0320439%,14.1405%,49.0333%,1)"/>
  <circle cx="5" cy="6" r="1" fill="srgba(0.505074%,14.5174%,49.2576%,1)"/>
  <circle cx="6" cy="6" r="1" fill="srgba(0.0747692%,14.1756%,49.0532%,1)"/>
  <circle cx="7" cy="6" r="1" fill="srgba(0%,14.1131%,49.0196%,1)"/>
  <circle cx="8" cy="6" r="1" fill="srgba(0%,13.4783%,49.482%,1)"/>
  <circle cx="9" cy="6" r="1" fill="srgba(2.07828%,15.0484%,48.3467%,1)"/>
  <circle cx="10" cy="6" r="1" fill="srgba(27.6402%,32.961%,35.4055%,1)"/>
  <circle cx="11" cy="6" r="1" fill="srgba(70.6249%,62.2202%,14.2626%,1)"/>
  <circle cx="12" cy="6" r="1" fill="srgba(34.7646%,37.7951%,31.9112%,1)"/>
  <circle cx="13" cy="6" r="1" fill="srgba(0%,13.4234%,49.5216%,1)"/>
  <circle cx="14" cy="6" r="1" fill="srgba(0%,14.107%,49.0272%,1)"/>
  <circle cx="15" cy="6" r="1" fill="srgba(0,36,125,1)"/>
  <circle cx="0" cy="7" r="1" fill="srgba(0%,13.7453%,48.7984%,1)"/>
  <circle cx="1" cy="7" r="1" fill="srgba(0%,13.6706%,48.7541%,1)"/>
  <circle cx="2" cy="7" r="1" fill="srgba(0%,14.1344%,49.0303%,1)"/>
  <circle cx="3" cy="7" r="1" fill="srgba(0%,14.1085%,49.0135%,1)"/>
  <circle cx="4" cy="7" r="1" fill="srgba(0%,14.1161%,49.0181%,1)"/>
  <circle cx="5" cy="7" r="1" fill="srgba(0%,14.1131%,49.0074%,1)"/>
  <circle cx="6" cy="7" r="1" fill="srgba(0%,13.9513%,49.1371%,1)"/>
  <circle cx="7" cy="7" r="1" fill="srgba(0%,13.3333%,49.5872%,1)"/>
  <circle cx="8" cy="7" r="1" fill="srgba(13.959%,23.5401%,42.211%,1)"/>
  <circle cx="9" cy="7" r="1" fill="srgba(58.5473%,53.9895%,20.2014%,1)"/>
  <circle cx="10" cy="7" r="1" fill="srgba(94.1909%,78.4329%,2.71763%,1)"/>
  <circle cx="11" cy="7" r="1" fill="srgba(95.5825%,79.7177%,2.19425%,1)"/>
  <circle cx="12" cy="7" r="1" fill="srgba(22.7619%,29.2882%,38.1308%,1)"/>
  <circle cx="13" cy="7" r="1" fill="srgba(0%,13.1594%,49.7078%,1)"/>
  <circle cx="14" cy="7" r="1" fill="srgba(0,36,125,1)"/>
  <circle cx="15" cy="7" r="1" fill="srgba(0,36,125,1)"/>
  <circle cx="0" cy="8" r="1" fill="srgba(0,36,125,1)"/>
  <circle cx="1" cy="8" r="1" fill="srgba(0%,14.1222%,49.0227%,1)"/>
  <circle cx="2" cy="8" r="1" fill="srgba(0.0122072%,14.0581%,48.9845%,1)"/>
  <circle cx="3" cy="8" r="1" fill="srgba(0.196841%,13.785%,48.8228%,1)"/>
  <circle cx="4" cy="8" r="1" fill="srgba(0.0122072%,14.0749%,48.9769%,1)"/>
  <circle cx="5" cy="8" r="1" fill="srgba(0%,13.6233%,49.3812%,1)"/>
  <circle cx="6" cy="8" r="1" fill="srgba(2.64897%,15.4437%,48.0613%,1)"/>
  <circle cx="7" cy="8" r="1" fill="srgba(35.1614%,38.0789%,31.7052%,1)"/>
  <circle cx="8" cy="8" r="1" fill="srgba(83.3234%,70.898%,8.02625%,1)"/>
  <circle cx="9" cy="8" r="1" fill="srgba(99.9008%,82.6703%,0.015259%,1)"/>
  <circle cx="10" cy="8" r="1" fill="srgba(99.9786%,82.3575%,0%,1)"/>
  <circle cx="11" cy="8" r="1" fill="srgba(97.6547%,80.6256%,0.956741%,1)"/>
  <circle cx="12" cy="8" r="1" fill="srgba(31.0933%,35.0484%,33.8964%,1)"/>
  <circle cx="13" cy="8" r="1" fill="srgba(0%,12.9763%,49.8436%,1)"/>
  <circle cx="14" cy="8" r="1" fill="srgba(0%,14.1207%,49.0166%,1)"/>
  <circle cx="15" cy="8" r="1" fill="srgba(0,36,125,1)"/>
  <circle cx="0" cy="9" r="1" fill="srgba(0,36,125,1)"/>
  <circle cx="1" cy="9" r="1" fill="srgba(0%,13.9849%,48.9403%,1)"/>
  <circle cx="2" cy="9" r="1" fill="srgba(3.14183%,16.8185%,50.6188%,1)"/>
  <circle cx="3" cy="9" r="1" fill="srgba(24.5335%,35.1736%,61.5671%,1)"/>
  <circle cx="4" cy="9" r="1" fill="srgba(2.57877%,15.7748%,51.1986%,1)"/>
  <circle cx="5" cy="9" r="1" fill="srgba(8.86397%,19.8688%,44.6967%,1)"/>
  <circle cx="6" cy="9" r="1" fill="srgba(57.0275%,52.961%,20.94%,1)"/>
  <circle cx="7" cy="9" r="1" fill="srgba(95.6741%,79.559%,2.01877%,1)"/>
  <circle cx="8" cy="9" r="1" fill="srgba(100%,82.71%,0%,1)"/>
  <circle cx="9" cy="9" r="1" fill="srgba(99.6384%,81.9715%,0%,1)"/>
  <circle cx="10" cy="9" r="1" fill="srgba(99.6094%,81.9608%,0%,1)"/>
  <circle cx="11" cy="9" r="1" fill="srgba(100%,82.8428%,0%,1)"/>
  <circle cx="12" cy="9" r="1" fill="srgba(58.6786%,54.0429%,20.2319%,1)"/>
  <circle cx="13" cy="9" r="1" fill="srgba(0.743114%,14.2504%,48.922%,1)"/>
  <circle cx="14" cy="9" r="1" fill="srgba(0%,14.049%,49.07%,1)"/>
  <circle cx="15" cy="9" r="1" fill="srgba(0,36,125,1)"/>
  <circle cx="0" cy="10" r="1" fill="srgba(0,36,125,1)"/>
  <circle cx="1" cy="10" r="1" fill="srgba(0%,14.049%,48.9677%,1)"/>
  <circle cx="2" cy="10" r="1" fill="srgba(1.49538%,15.404%,50.0572%,1)"/>
  <circle cx="3" cy="10" r="1" fill="srgba(13.5897%,25.7816%,56.0067%,1)"/>
  <circle cx="4" cy="10" r="1" fill="srgba(23.7369%,30.5791%,38.9883%,1)"/>
  <circle cx="5" cy="10" r="1" fill="srgba(73.814%,64.4068%,12.6177%,1)"/>
  <circle cx="6" cy="10" r="1" fill="srgba(99.5132%,82.565%,0.196841%,1)"/>
  <circle cx="7" cy="10" r="1" fill="srgba(100%,82.5223%,0%,1)"/>
  <circle cx="8" cy="10" r="1" fill="srgba(100%,82.24%,0%,1)"/>
  <circle cx="9" cy="10" r="1" fill="srgba(100%,82.2431%,0%,1)"/>
  <circle cx="10" cy="10" r="1" fill="srgba(100%,82.2354%,0%,1)"/>
  <circle cx="11" cy="10" r="1" fill="srgba(100%,82.6154%,0%,1)"/>
  <circle cx="12" cy="10" r="1" fill="srgba(91.2383%,76.4828%,4.23438%,1)"/>
  <circle cx="13" cy="10" r="1" fill="srgba(24.6906%,30.7897%,36.9848%,1)"/>
  <circle cx="14" cy="10" r="1" fill="srgba(0%,13.019%,49.8131%,1)"/>
  <circle cx="15" cy="10" r="1" fill="srgba(0%,13.9986%,49.1066%,1)"/>
  <circle cx="0" cy="11" r="1" fill="srgba(0,36,125,1)"/>
  <circle cx="1" cy="11" r="1" fill="srgba(0%,13.9544%,49.1432%,1)"/>
  <circle cx="2" cy="11" r="1" fill="srgba(3.83764%,16.7147%,47.042%,1)"/>
  <circle cx="3" cy="11" r="1" fill="srgba(39.4842%,40.8789%,28.8502%,1)"/>
  <circle cx="4" cy="11" r="1" fill="srgba(83.8453%,71.2093%,7.67224%,1)"/>
  <circle cx="5" cy="11" r="1" fill="srgba(95.4971%,79.1608%,2.0264%,1)"/>
  <circle cx="6" cy="11" r="1" fill="srgba(94.5525%,78.5168%,2.48875%,1)"/>
  <circle cx="7" cy="11" r="1" fill="srgba(94.6395%,78.5763%,2.4445%,1)"/>
  <circle cx="8" cy="11" r="1" fill="srgba(94.8135%,78.6954%,2.35904%,1)"/>
  <circle cx="9" cy="11" r="1" fill="srgba(94.9706%,78.8022%,2.28275%,1)"/>
  <circle cx="10" cy="11" r="1" fill="srgba(95.1049%,78.8937%,2.21714%,1)"/>
  <circle cx="11" cy="11" r="1" fill="srgba(95.2743%,79.0097%,2.13321%,1)"/>
  <circle cx="12" cy="11" r="1" fill="srgba(96.4767%,79.8276%,1.53964%,1)"/>
  <circle cx="13" cy="11" r="1" fill="srgba(75.8511%,65.7801%,11.6915%,1)"/>
  <circle cx="14" cy="11" r="1" fill="srgba(20.4059%,28.0171%,38.9776%,1)"/>
  <circle cx="15" cy="11" r="1" fill="srgba(2.59861%,15.8877%,47.7394%,1)"/>
  <circle cx="0" cy="12" r="1" fill="srgba(0,36,125,1)"/>
  <circle cx="1" cy="12" r="1" fill="srgba(0%,13.7423%,49.2912%,1)"/>
  <circle cx="2" cy="12" r="1" fill="srgba(11.1238%,21.6938%,43.5462%,1)"/>
  <circle cx="3" cy="12" r="1" fill="srgba(38.1949%,40.1328%,30.2251%,1)"/>
  <circle cx="4" cy="12" r="1" fill="srgba(40.8484%,41.9394%,28.9158%,1)"/>
  <circle cx="5" cy="12" r="1" fill="srgba(40.9277%,41.9944%,28.8762%,1)"/>
  <circle cx="6" cy="12" r="1" fill="srgba(41.7853%,42.5788%,28.4581%,1)"/>
  <circle cx="7" cy="12" r="1" fill="srgba(42.5681%,43.1113%,28.0705%,1)"/>
  <circle cx="8" cy="12" r="1" fill="srgba(43.2837%,43.5981%,27.7165%,1)"/>
  <circle cx="9" cy="12" r="1" fill="srgba(44.0421%,44.1154%,27.3472%,1)"/>
  <circle cx="10" cy="12" r="1" fill="srgba(44.8157%,44.6418%,26.9673%,1)"/>
  <circle cx="11" cy="12" r="1" fill="srgba(45.6428%,45.2049%,26.5568%,1)"/>
  <circle cx="12" cy="12" r="1" fill="srgba(46.4714%,45.7694%,26.1494%,1)"/>
  <circle cx="13" cy="12" r="1" fill="srgba(48.0751%,46.8635%,25.362%,1)"/>
  <circle cx="14" cy="12" r="1" fill="srgba(40.8942%,41.9715%,28.8945%,1)"/>
  <circle cx="15" cy="12" r="1" fill="srgba(12.755%,22.8046%,42.742%,1)"/>
  <circle cx="0" cy="13" r="1" fill="srgba(0,36,125,1)"/>
  <circle cx="1" cy="13" r="1" fill="srgba(0%,14.1222%,49.0166%,1)"/>
  <circle cx="2" cy="13" r="1" fill="srgba(0%,14.0444%,49.073%,1)"/>
  <circle cx="3" cy="13" r="1" fill="srgba(0%,13.6736%,49.34%,1)"/>
  <circle cx="4" cy="13" r="1" fill="srgba(0%,13.6339%,49.369%,1)"/>
  <circle cx="5" cy="13" r="1" fill="srgba(0%,13.6828%,49.3339%,1)"/>
  <circle cx="6" cy="13" r="1" fill="srgba(0%,13.7331%,49.2973%,1)"/>
  <circle cx="7" cy="13" r="1" fill="srgba(0%,13.7926%,49.2546%,1)"/>
  <circle cx="8" cy="13" r="1" fill="srgba(0%,13.8521%,49.2119%,1)"/>
  <circle cx="9" cy="13" r="1" fill="srgba(0%,13.9208%,49.163%,1)"/>
  <circle cx="10" cy="13" r="1" fill="srgba(0%,13.994%,49.1096%,1)"/>
  <circle cx="11" cy="13" r="1" fill="srgba(0%,14.0658%,49.0562%,1)"/>
  <circle cx="12" cy="13" r="1" fill="srgba(0.047303%,14.1466%,48.9982%,1)"/>
  <circle cx="13" cy="13" r="1" fill="srgba(0.163272%,14.229%,48.9387%,1)"/>
  <circle cx="14" cy="13" r="1" fill="srgba(0.701915%,14.5937%,48.6748%,1)"/>
  <circle cx="15" cy="13" r="1" fill="srgba(0.401312%,14.3801%,48.8304%,1)"/>
  <circle cx="0" cy="14" r="1" fill="srgba(0,36,125,1)"/>
  <circle cx="1" cy="14" r="1" fill="srgba(0,36,125,1)"/>
  <circle cx="2" cy="14" r="1" fill="srgba(0,36,125,1)"/>
  <circle cx="3" cy="14" r="1" fill="srgba(0,36,125,1)"/>
  <circle cx="4" cy="14" r="1" fill="srgba(0,36,125,1)"/>
  <circle cx="5" cy="14" r="1" fill="srgba(0,36,125,1)"/>
  <circle cx="6" cy="14" r="1" fill="srgba(0,36,125,1)"/>
  <circle cx="7" cy="14" r="1" fill="srgba(0%,14.1161%,49.0196%,1)"/>
  <circle cx="8" cy="14" r="1" fill="srgba(0%,14.1161%,49.0211%,1)"/>
  <circle cx="9" cy="14" r="1" fill="srgba(0%,14.1146%,49.0211%,1)"/>
  <circle cx="10" cy="14" r="1" fill="srgba(0%,14.1131%,49.0227%,1)"/>
  <circle cx="11" cy="14" r="1" fill="srgba(0%,14.1131%,49.0227%,1)"/>
  <circle cx="12" cy="14" r="1" fill="srgba(0%,14.11%,49.0257%,1)"/>
  <circle cx="13" cy="14" r="1" fill="srgba(0%,14.107%,49.0272%,1)"/>
  <circle cx="14" cy="14" r="1" fill="srgba(0%,14.1054%,49.0288%,1)"/>
  <circle cx="15" cy="14" r="1" fill="srgba(0%,14.1131%,49.0227%,1)"/>
  <circle cx="0" cy="15" r="1" fill="srgba(0,36,125,1)"/>
  <circle cx="1" cy="15" r="1" fill="srgba(0,36,125,1)"/>
  <circle cx="2" cy="15" r="1" fill="srgba(0,36,125,1)"/>
  <circle cx="3" cy="15" r="1" fill="srgba(0,36,125,1)"/>
  <circle cx="4" cy="15" r="1" fill="srgba(0,36,125,1)"/>
  <circle cx="5" cy="15" r="1" fill="srgba(0,36,125,1)"/>
  <circle cx="6" cy="15" r="1" fill="srgba(0,36,125,1)"/>
  <circle cx="7" cy="15" r="1" fill="srgba(0,36,125,1)"/>
  <circle cx="8" cy="15" r="1" fill="srgba(0,36,125,1)"/>
  <circle cx="9" cy="15" r="1" fill="srgba(0,36,125,1)"/>
  <circle cx="10" cy="15" r="1" fill="srgba(0,36,125,1)"/>
  <circle cx="11" cy="15" r="1" fill="srgba(0,36,125,1)"/>
  <circle cx="12" cy="15" r="1" fill="srgba(0,36,125,1)"/>
  <circle cx="13" cy="15" r="1" fill="srgba(0,36,125,1)"/>
  <circle cx="14" cy="15" r="1" fill="srgba(0,36,125,1)"/>
  <circle cx="15" cy="15" r="1" fill="srgba(0,36,125,1)"/>
</svg>
