<?xml version="1.0" standalone="no"?>
<!DOCTYPE svg PUBLIC "-//W3C//DTD SVG 20010904//EN"
  "http://www.w3.org/TR/2001/REC-SVG-20010904/DTD/svg10.dtd">
<svg width="16" height="16">
  <circle cx="0" cy="0" r="1" fill="srgba(31.3832%,10.5104%,1.96994%,1)"/>
  <circle cx="1" cy="0" r="1" fill="srgba(73.1487%,17.1786%,4.83558%,1)"/>
  <circle cx="2" cy="0" r="1" fill="srgba(81.8997%,5.01717%,5.89303%,1)"/>
  <circle cx="3" cy="0" r="1" fill="srgba(79.3835%,0%,5.90524%,1)"/>
  <circle cx="4" cy="0" r="1" fill="srgba(79.5392%,0%,5.88693%,1)"/>
  <circle cx="5" cy="0" r="1" fill="srgba(79.6094%,0%,5.88235%,1)"/>
  <circle cx="6" cy="0" r="1" fill="srgba(203,0,15,1)"/>
  <circle cx="7" cy="0" r="1" fill="srgba(203,0,15,1)"/>
  <circle cx="8" cy="0" r="1" fill="srgba(203,0,15,1)"/>
  <circle cx="9" cy="0" r="1" fill="srgba(203,0,15,1)"/>
  <circle cx="10" cy="0" r="1" fill="srgba(203,0,15,1)"/>
  <circle cx="11" cy="0" r="1" fill="srgba(203,0,15,1)"/>
  <circle cx="12" cy="0" r="1" fill="srgba(203,0,15,1)"/>
  <circle cx="13" cy="0" r="1" fill="srgba(203,0,15,1)"/>
  <circle cx="14" cy="0" r="1" fill="srgba(79.6078%,0%,5.88083%,1)"/>
  <circle cx="15" cy="0" r="1" fill="srgba(79.6155%,0.030518%,5.91287%,1)"/>
  <circle cx="0" cy="1" r="1" fill="srgba(0.428779%,0.59968%,0.0137331%,1)"/>
  <circle cx="1" cy="1" r="1" fill="srgba(21.3672%,14.0673%,1.11543%,1)"/>
  <circle cx="2" cy="1" r="1" fill="srgba(68.8716%,35.4177%,3.92004%,1)"/>
  <circle cx="3" cy="1" r="1" fill="srgba(85.687%,23.8193%,5.54513%,1)"/>
  <circle cx="4" cy="1" r="1" fill="srgba(80.6714%,3.64996%,5.84726%,1)"/>
  <circle cx="5" cy="1" r="1" fill="srgba(79.3393%,0%,5.89914%,1)"/>
  <circle cx="6" cy="1" r="1" fill="srgba(79.5529%,0%,5.8854%,1)"/>
  <circle cx="7" cy="1" r="1" fill="srgba(79.6094%,0%,5.88235%,1)"/>
  <circle cx="8" cy="1" r="1" fill="srgba(203,0,15,1)"/>
  <circle cx="9" cy="1" r="1" fill="srgba(203,0,15,1)"/>
  <circle cx="10" cy="1" r="1" fill="srgba(203,0,15,1)"/>
  <circle cx="11" cy="1" r="1" fill="srgba(203,0,15,1)"/>
  <circle cx="12" cy="1" r="1" fill="srgba(203,0,15,1)"/>
  <circle cx="13" cy="1" r="1" fill="srgba(203,0,15,1)"/>
  <circle cx="14" cy="1" r="1" fill="srgba(79.6078%,0%,5.88083%,1)"/>
  <circle cx="15" cy="1" r="1" fill="srgba(79.6155%,0.030518%,5.91287%,1)"/>
  <circle cx="0" cy="2" r="1" fill="black"/>
  <circle cx="1" cy="2" r="1" fill="black"/>
  <circle cx="2" cy="2" r="1" fill="srgba(10.0587%,8.58625%,0.460822%,1)"/>
  <circle cx="3" cy="2" r="1" fill="srgba(56.5988%,41.7975%,2.80308%,1)"/>
  <circle cx="4" cy="2" r="1" fill="srgba(89.5552%,51.6274%,4.91493%,1)"/>
  <circle cx="5" cy="2" r="1" fill="srgba(85.8946%,23.9429%,5.55581%,1)"/>
  <circle cx="6" cy="2" r="1" fill="srgba(80.3189%,3.3341%,5.83352%,1)"/>
  <circle cx="7" cy="2" r="1" fill="srgba(79.35%,0%,5.89914%,1)"/>
  <circle cx="8" cy="2" r="1" fill="srgba(79.5529%,0%,5.8854%,1)"/>
  <circle cx="9" cy="2" r="1" fill="srgba(79.6094%,0%,5.88235%,1)"/>
  <circle cx="10" cy="2" r="1" fill="srgba(203,0,15,1)"/>
  <circle cx="11" cy="2" r="1" fill="srgba(203,0,15,1)"/>
  <circle cx="12" cy="2" r="1" fill="srgba(203,0,15,1)"/>
  <circle cx="13" cy="2" r="1" fill="srgba(203,0,15,1)"/>
  <circle cx="14" cy="2" r="1" fill="srgba(79.6078%,0%,5.88083%,1)"/>
  <circle cx="15" cy="2" r="1" fill="srgba(79.6155%,0.030518%,5.91287%,1)"/>
  <circle cx="0" cy="3" r="1" fill="black"/>
  <circle cx="1" cy="3" r="1" fill="black"/>
  <circle cx="2" cy="3" r="1" fill="black"/>
  <circle cx="3" cy="3" r="1" fill="srgba(3.07927%,2.53758%,0.143435%,1)"/>
  <circle cx="4" cy="3" r="1" fill="srgba(39.3378%,31.3405%,1.87381%,1)"/>
  <circle cx="5" cy="3" r="1" fill="srgba(86.6331%,64.9821%,4.26032%,1)"/>
  <circle cx="6" cy="3" r="1" fill="srgba(93.3852%,54.4106%,5.10719%,1)"/>
  <circle cx="7" cy="3" r="1" fill="srgba(85.069%,23.1189%,5.52224%,1)"/>
  <circle cx="8" cy="3" r="1" fill="srgba(80.3098%,3.2578%,5.83505%,1)"/>
  <circle cx="9" cy="3" r="1" fill="srgba(79.3515%,0%,5.89914%,1)"/>
  <circle cx="10" cy="3" r="1" fill="srgba(79.556%,0%,5.8854%,1)"/>
  <circle cx="11" cy="3" r="1" fill="srgba(79.6094%,0%,5.88235%,1)"/>
  <circle cx="12" cy="3" r="1" fill="srgba(203,0,15,1)"/>
  <circle cx="13" cy="3" r="1" fill="srgba(203,0,15,1)"/>
  <circle cx="14" cy="3" r="1" fill="srgba(79.6078%,0%,5.88083%,1)"/>
  <circle cx="15" cy="3" r="1" fill="srgba(79.6155%,0.030518%,5.91287%,1)"/>
  <circle cx="0" cy="4" r="1" fill="black"/>
  <circle cx="1" cy="4" r="1" fill="black"/>
  <circle cx="2" cy="4" r="1" fill="black"/>
  <circle cx="3" cy="4" r="1" fill="black"/>
  <circle cx="4" cy="4" r="1" fill="srgba(0.21973%,0.163272%,0.00610361%,1)"/>
  <circle cx="5" cy="4" r="1" fill="srgba(22.7817%,17.7996%,1.07271%,1)"/>
  <circle cx="6" cy="4" r="1" fill="srgba(75.3109%,59.1943%,3.61486%,1)"/>
  <circle cx="7" cy="4" r="1" fill="srgba(97.3861%,73.2418%,4.78218%,1)"/>
  <circle cx="8" cy="4" r="1" fill="srgba(92.3598%,53.3944%,5.06447%,1)"/>
  <circle cx="9" cy="4" r="1" fill="srgba(84.9271%,22.7176%,5.52529%,1)"/>
  <circle cx="10" cy="4" r="1" fill="srgba(80.2762%,3.11894%,5.83658%,1)"/>
  <circle cx="11" cy="4" r="1" fill="srgba(79.353%,0%,5.89914%,1)"/>
  <circle cx="12" cy="4" r="1" fill="srgba(79.5575%,0%,5.8854%,1)"/>
  <circle cx="13" cy="4" r="1" fill="srgba(79.6094%,0%,5.88235%,1)"/>
  <circle cx="14" cy="4" r="1" fill="srgba(79.6078%,0%,5.88083%,1)"/>
  <circle cx="15" cy="4" r="1" fill="srgba(79.6155%,0.030518%,5.91287%,1)"/>
  <circle cx="0" cy="5" r="1" fill="black"/>
  <circle cx="1" cy="5" r="1" fill="black"/>
  <circle cx="2" cy="5" r="1" fill="srgba(7.12749%,7.12749%,7.12749%,1)"/>
  <circle cx="3" cy="5" r="1" fill="srgba(2.533%,2.533%,2.53147%,1)"/>
  <circle cx="4" cy="5" r="1" fill="srgba(0%,0%,0.00762951%,1)"/>
  <circle cx="5" cy="5" r="1" fill="srgba(0.0946059%,0.230411%,0.686656%,1)"/>
  <circle cx="6" cy="5" r="1" fill="srgba(10.6767%,8.25971%,0.518807%,1)"/>
  <circle cx="7" cy="5" r="1" fill="srgba(58.9349%,45.7984%,2.84581%,1)"/>
  <circle cx="8" cy="5" r="1" fill="srgba(95.3826%,74.7356%,4.58686%,1)"/>
  <circle cx="9" cy="5" r="1" fill="srgba(97.3632%,73.109%,4.78523%,1)"/>
  <circle cx="10" cy="5" r="1" fill="srgba(91.957%,52.7474%,5.05531%,1)"/>
  <circle cx="11" cy="5" r="1" fill="srgba(84.8417%,22.3072%,5.53292%,1)"/>
  <circle cx="12" cy="5" r="1" fill="srgba(80.2396%,2.97704%,5.83963%,1)"/>
  <circle cx="13" cy="5" r="1" fill="srgba(79.353%,0%,5.89914%,1)"/>
  <circle cx="14" cy="5" r="1" fill="srgba(79.5605%,0%,5.88388%,1)"/>
  <circle cx="15" cy="5" r="1" fill="srgba(79.617%,0.030518%,5.91287%,1)"/>
  <circle cx="0" cy="6" r="1" fill="black"/>
  <circle cx="1" cy="6" r="1" fill="black"/>
  <circle cx="2" cy="6" r="1" fill="srgba(35.4055%,35.4055%,35.4055%,1)"/>
  <circle cx="3" cy="6" r="1" fill="srgba(43.9536%,43.9536%,43.9536%,1)"/>
  <circle cx="4" cy="6" r="1" fill="srgba(33.4752%,33.4752%,33.4752%,1)"/>
  <circle cx="5" cy="6" r="1" fill="srgba(18.0056%,18.0056%,18.0056%,1)"/>
  <circle cx="6" cy="6" r="1" fill="black"/>
  <circle cx="7" cy="6" r="1" fill="srgba(3.51263%,2.72068%,0.169375%,1)"/>
  <circle cx="8" cy="6" r="1" fill="srgba(41.0056%,31.7403%,1.98367%,1)"/>
  <circle cx="9" cy="6" r="1" fill="srgba(88.3665%,68.5908%,4.26947%,1)"/>
  <circle cx="10" cy="6" r="1" fill="srgba(98.5321%,77.1771%,4.73793%,1)"/>
  <circle cx="11" cy="6" r="1" fill="srgba(96.556%,72.3568%,4.75013%,1)"/>
  <circle cx="12" cy="6" r="1" fill="srgba(91.8776%,52.343%,5.06294%,1)"/>
  <circle cx="13" cy="6" r="1" fill="srgba(84.7456%,21.8967%,5.53902%,1)"/>
  <circle cx="14" cy="6" r="1" fill="srgba(80.1984%,2.81682%,5.84115%,1)"/>
  <circle cx="15" cy="6" r="1" fill="srgba(79.3683%,0%,5.92966%,1)"/>
  <circle cx="0" cy="7" r="1" fill="srgba(0.198367%,0.198367%,0.198367%,1)"/>
  <circle cx="1" cy="7" r="1" fill="srgba(12.4208%,12.4208%,12.4208%,1)"/>
  <circle cx="2" cy="7" r="1" fill="srgba(61.059%,61.059%,61.059%,1)"/>
  <circle cx="3" cy="7" r="1" fill="srgba(98.7778%,98.7778%,98.7778%,1)"/>
  <circle cx="4" cy="7" r="1" fill="srgba(79.0402%,79.0402%,79.0402%,1)"/>
  <circle cx="5" cy="7" r="1" fill="srgba(9.08522%,9.08522%,9.08522%,1)"/>
  <circle cx="6" cy="7" r="1" fill="black"/>
  <circle cx="7" cy="7" r="1" fill="black"/>
  <circle cx="8" cy="7" r="1" fill="srgba(0.349432%,0.270085%,0.0167849%,1)"/>
  <circle cx="9" cy="7" r="1" fill="srgba(23.6637%,18.3215%,1.14443%,1)"/>
  <circle cx="10" cy="7" r="1" fill="srgba(79.5254%,61.5625%,3.84833%,1)"/>
  <circle cx="11" cy="7" r="1" fill="srgba(97.9934%,76.0525%,4.73487%,1)"/>
  <circle cx="12" cy="7" r="1" fill="srgba(97.5113%,76.3821%,4.6891%,1)"/>
  <circle cx="13" cy="7" r="1" fill="srgba(96.5789%,72.4071%,4.75013%,1)"/>
  <circle cx="14" cy="7" r="1" fill="srgba(91.9249%,52.5521%,5.05684%,1)"/>
  <circle cx="15" cy="7" r="1" fill="srgba(84.7868%,22.0905%,5.56497%,1)"/>
  <circle cx="0" cy="8" r="1" fill="srgba(1.06661%,1.06661%,1.06661%,1)"/>
  <circle cx="1" cy="8" r="1" fill="srgba(25.4841%,25.4841%,25.4841%,1)"/>
  <circle cx="2" cy="8" r="1" fill="srgba(65.2171%,65.2171%,65.2171%,1)"/>
  <circle cx="3" cy="8" r="1" fill="srgba(95.2911%,95.2911%,95.2911%,1)"/>
  <circle cx="4" cy="8" r="1" fill="srgba(79.9527%,79.9527%,79.9527%,1)"/>
  <circle cx="5" cy="8" r="1" fill="srgba(24.065%,24.065%,24.065%,1)"/>
  <circle cx="6" cy="8" r="1" fill="black"/>
  <circle cx="7" cy="8" r="1" fill="black"/>
  <circle cx="8" cy="8" r="1" fill="srgba(0.161746%,0.125124%,0.00762951%,1)"/>
  <circle cx="9" cy="8" r="1" fill="srgba(21.7151%,16.8093%,1.04982%,1)"/>
  <circle cx="10" cy="8" r="1" fill="srgba(78.3368%,60.6394%,3.78882%,1)"/>
  <circle cx="11" cy="8" r="1" fill="srgba(98.024%,76.0555%,4.73793%,1)"/>
  <circle cx="12" cy="8" r="1" fill="srgba(97.5082%,76.3714%,4.6891%,1)"/>
  <circle cx="13" cy="8" r="1" fill="srgba(96.7254%,73.0388%,4.74098%,1)"/>
  <circle cx="14" cy="8" r="1" fill="srgba(92.3537%,54.3908%,5.0309%,1)"/>
  <circle cx="15" cy="8" r="1" fill="srgba(85.1362%,23.5966%,5.54055%,1)"/>
  <circle cx="0" cy="9" r="1" fill="black"/>
  <circle cx="1" cy="9" r="1" fill="black"/>
  <circle cx="2" cy="9" r="1" fill="srgba(18.1521%,18.1521%,18.1521%,1)"/>
  <circle cx="3" cy="9" r="1" fill="srgba(51.8379%,51.8379%,51.8379%,1)"/>
  <circle cx="4" cy="9" r="1" fill="srgba(15.2483%,15.2483%,15.2483%,1)"/>
  <circle cx="5" cy="9" r="1" fill="srgba(14.6548%,14.6548%,14.6548%,1)"/>
  <circle cx="6" cy="9" r="1" fill="srgba(0.155642%,0.202945%,0.354009%,1)"/>
  <circle cx="7" cy="9" r="1" fill="srgba(3.10979%,2.40177%,0.125124%,1)"/>
  <circle cx="8" cy="9" r="1" fill="srgba(39.2401%,30.3746%,1.90127%,1)"/>
  <circle cx="9" cy="9" r="1" fill="srgba(87.2099%,67.686%,4.21454%,1)"/>
  <circle cx="10" cy="9" r="1" fill="srgba(98.5%,77.1466%,4.7364%,1)"/>
  <circle cx="11" cy="9" r="1" fill="srgba(96.6491%,72.7382%,4.74403%,1)"/>
  <circle cx="12" cy="9" r="1" fill="srgba(92.1706%,53.608%,5.04311%,1)"/>
  <circle cx="13" cy="9" r="1" fill="srgba(85.0996%,23.418%,5.51461%,1)"/>
  <circle cx="14" cy="9" r="1" fill="srgba(80.351%,3.41192%,5.832%,1)"/>
  <circle cx="15" cy="9" r="1" fill="srgba(79.3744%,0%,5.92966%,1)"/>
  <circle cx="0" cy="10" r="1" fill="black"/>
  <circle cx="1" cy="10" r="1" fill="black"/>
  <circle cx="2" cy="10" r="1" fill="srgba(5.04616%,5.04616%,5.04616%,1)"/>
  <circle cx="3" cy="10" r="1" fill="srgba(8.27955%,8.27955%,8.27955%,1)"/>
  <circle cx="4" cy="10" r="1" fill="black"/>
  <circle cx="5" cy="10" r="1" fill="black"/>
  <circle cx="6" cy="10" r="1" fill="srgba(10.2586%,7.93469%,0.495918%,1)"/>
  <circle cx="7" cy="10" r="1" fill="srgba(57.7905%,44.9134%,2.79088%,1)"/>
  <circle cx="8" cy="10" r="1" fill="srgba(94.9706%,74.4167%,4.5655%,1)"/>
  <circle cx="9" cy="10" r="1" fill="srgba(97.4624%,73.3211%,4.78523%,1)"/>
  <circle cx="10" cy="10" r="1" fill="srgba(92.1202%,53.4386%,5.04616%,1)"/>
  <circle cx="11" cy="10" r="1" fill="srgba(85.0629%,23.2547%,5.51614%,1)"/>
  <circle cx="12" cy="10" r="1" fill="srgba(80.3433%,3.38598%,5.83352%,1)"/>
  <circle cx="13" cy="10" r="1" fill="srgba(79.35%,0%,5.89914%,1)"/>
  <circle cx="14" cy="10" r="1" fill="srgba(79.5499%,0%,5.88388%,1)"/>
  <circle cx="15" cy="10" r="1" fill="srgba(79.617%,0.030518%,5.91287%,1)"/>
  <circle cx="0" cy="11" r="1" fill="black"/>
  <circle cx="1" cy="11" r="1" fill="black"/>
  <circle cx="2" cy="11" r="1" fill="black"/>
  <circle cx="3" cy="11" r="1" fill="black"/>
  <circle cx="4" cy="11" r="1" fill="srgba(0.241093%,0.180056%,0.0122072%,1)"/>
  <circle cx="5" cy="11" r="1" fill="srgba(22.678%,17.731%,1.09102%,1)"/>
  <circle cx="6" cy="11" r="1" fill="srgba(74.8775%,58.8602%,3.5935%,1)"/>
  <circle cx="7" cy="11" r="1" fill="srgba(97.3037%,73.1518%,4.78065%,1)"/>
  <circle cx="8" cy="11" r="1" fill="srgba(92.4086%,53.5348%,5.066%,1)"/>
  <circle cx="9" cy="11" r="1" fill="srgba(85.0111%,23.0869%,5.51766%,1)"/>
  <circle cx="10" cy="11" r="1" fill="srgba(80.3296%,3.32494%,5.83505%,1)"/>
  <circle cx="11" cy="11" r="1" fill="srgba(79.35%,0%,5.89914%,1)"/>
  <circle cx="12" cy="11" r="1" fill="srgba(79.5514%,0%,5.8854%,1)"/>
  <circle cx="13" cy="11" r="1" fill="srgba(79.6094%,0%,5.88235%,1)"/>
  <circle cx="14" cy="11" r="1" fill="srgba(79.6078%,0%,5.88083%,1)"/>
  <circle cx="15" cy="11" r="1" fill="srgba(79.6155%,0.030518%,5.91287%,1)"/>
  <circle cx="0" cy="12" r="1" fill="black"/>
  <circle cx="1" cy="12" r="1" fill="black"/>
  <circle cx="2" cy="12" r="1" fill="black"/>
  <circle cx="3" cy="12" r="1" fill="srgba(3.22576%,2.66575%,0.151064%,1)"/>
  <circle cx="4" cy="12" r="1" fill="srgba(39.6567%,31.5938%,1.89212%,1)"/>
  <circle cx="5" cy="12" r="1" fill="srgba(86.6194%,64.8325%,4.2649%,1)"/>
  <circle cx="6" cy="12" r="1" fill="srgba(93.3181%,54.1085%,5.11177%,1)"/>
  <circle cx="7" cy="12" r="1" fill="srgba(85.0385%,22.9786%,5.52529%,1)"/>
  <circle cx="8" cy="12" r="1" fill="srgba(80.3098%,3.26543%,5.83505%,1)"/>
  <circle cx="9" cy="12" r="1" fill="srgba(79.35%,0%,5.89914%,1)"/>
  <circle cx="10" cy="12" r="1" fill="srgba(79.5529%,0%,5.8854%,1)"/>
  <circle cx="11" cy="12" r="1" fill="srgba(79.6094%,0%,5.88235%,1)"/>
  <circle cx="12" cy="12" r="1" fill="srgba(203,0,15,1)"/>
  <circle cx="13" cy="12" r="1" fill="srgba(203,0,15,1)"/>
  <circle cx="14" cy="12" r="1" fill="srgba(79.6078%,0%,5.88083%,1)"/>
  <circle cx="15" cy="12" r="1" fill="srgba(79.6155%,0.030518%,5.91287%,1)"/>
  <circle cx="0" cy="13" r="1" fill="black"/>
  <circle cx="1" cy="13" r="1" fill="black"/>
  <circle cx="2" cy="13" r="1" fill="srgba(10.5699%,8.99367%,0.485237%,1)"/>
  <circle cx="3" cy="13" r="1" fill="srgba(57.2503%,42.0539%,2.84581%,1)"/>
  <circle cx="4" cy="13" r="1" fill="srgba(89.5277%,51.0491%,4.93019%,1)"/>
  <circle cx="5" cy="13" r="1" fill="srgba(85.7633%,23.4104%,5.56649%,1)"/>
  <circle cx="6" cy="13" r="1" fill="srgba(80.2869%,3.20134%,5.83505%,1)"/>
  <circle cx="7" cy="13" r="1" fill="srgba(79.35%,0%,5.89914%,1)"/>
  <circle cx="8" cy="13" r="1" fill="srgba(79.5529%,0%,5.8854%,1)"/>
  <circle cx="9" cy="13" r="1" fill="srgba(79.6094%,0%,5.88235%,1)"/>
  <circle cx="10" cy="13" r="1" fill="srgba(203,0,15,1)"/>
  <circle cx="11" cy="13" r="1" fill="srgba(203,0,15,1)"/>
  <circle cx="12" cy="13" r="1" fill="srgba(203,0,15,1)"/>
  <circle cx="13" cy="13" r="1" fill="srgba(203,0,15,1)"/>
  <circle cx="14" cy="13" r="1" fill="srgba(79.6078%,0%,5.88083%,1)"/>
  <circle cx="15" cy="13" r="1" fill="srgba(79.6155%,0.030518%,5.91287%,1)"/>
  <circle cx="0" cy="14" r="1" fill="srgba(0.556954%,0.695811%,0.0183108%,1)"/>
  <circle cx="1" cy="14" r="1" fill="srgba(22.3239%,14.5022%,1.16579%,1)"/>
  <circle cx="2" cy="14" r="1" fill="srgba(69.5613%,35.1156%,3.97498%,1)"/>
  <circle cx="3" cy="14" r="1" fill="srgba(85.5528%,22.9633%,5.55734%,1)"/>
  <circle cx="4" cy="14" r="1" fill="srgba(80.589%,3.36919%,5.84421%,1)"/>
  <circle cx="5" cy="14" r="1" fill="srgba(79.3393%,0%,5.89151%,1)"/>
  <circle cx="6" cy="14" r="1" fill="srgba(79.5529%,0%,5.8793%,1)"/>
  <circle cx="7" cy="14" r="1" fill="srgba(79.6078%,0%,5.87472%,1)"/>
  <circle cx="8" cy="14" r="1" fill="srgba(79.6063%,0%,5.87472%,1)"/>
  <circle cx="9" cy="14" r="1" fill="srgba(79.6063%,0%,5.87472%,1)"/>
  <circle cx="10" cy="14" r="1" fill="srgba(79.6063%,0%,5.87472%,1)"/>
  <circle cx="11" cy="14" r="1" fill="srgba(79.6063%,0%,5.87472%,1)"/>
  <circle cx="12" cy="14" r="1" fill="srgba(79.6063%,0%,5.87472%,1)"/>
  <circle cx="13" cy="14" r="1" fill="srgba(79.6063%,0%,5.87472%,1)"/>
  <circle cx="14" cy="14" r="1" fill="srgba(79.6063%,0%,5.8732%,1)"/>
  <circle cx="15" cy="14" r="1" fill="srgba(79.6139%,0.030518%,5.90524%,1)"/>
  <circle cx="0" cy="15" r="1" fill="srgba(32.5307%,10.6996%,2.17441%,1)"/>
  <circle cx="1" cy="15" r="1" fill="srgba(73.7377%,16.8109%,5.02022%,1)"/>
  <circle cx="2" cy="15" r="1" fill="srgba(81.8128%,4.67994%,6.02426%,1)"/>
  <circle cx="3" cy="15" r="1" fill="srgba(79.3973%,0%,6.02731%,1)"/>
  <circle cx="4" cy="15" r="1" fill="srgba(79.5666%,0.0503548%,6.009%,1)"/>
  <circle cx="5" cy="15" r="1" fill="srgba(79.6323%,0.131228%,6.00595%,1)"/>
  <circle cx="6" cy="15" r="1" fill="srgba(79.6307%,0.131228%,6.00595%,1)"/>
  <circle cx="7" cy="15" r="1" fill="srgba(79.6307%,0.131228%,6.00595%,1)"/>
  <circle cx="8" cy="15" r="1" fill="srgba(79.6307%,0.131228%,6.00595%,1)"/>
  <circle cx="9" cy="15" r="1" fill="srgba(79.6307%,0.131228%,6.00595%,1)"/>
  <circle cx="10" cy="15" r="1" fill="srgba(79.6307%,0.131228%,6.00595%,1)"/>
  <circle cx="11" cy="15" r="1" fill="srgba(79.6307%,0.131228%,6.00595%,1)"/>
  <circle cx="12" cy="15" r="1" fill="srgba(79.6307%,0.131228%,6.00595%,1)"/>
  <circle cx="13" cy="15" r="1" fill="srgba(79.6307%,0.131228%,6.00595%,1)"/>
  <circle cx="14" cy="15" r="1" fill="srgba(79.6307%,0.129702%,6.00443%,1)"/>
  <circle cx="15" cy="15" r="1" fill="srgba(79.6384%,0.161746%,6.03647%,1)"/>
</svg>
