<?xml version="1.0" standalone="no"?>
<!DOCTYPE svg PUBLIC "-//W3C//DTD SVG 20010904//EN"
  "http://www.w3.org/TR/2001/REC-SVG-20010904/DTD/svg10.dtd">
<svg width="16" height="16">
  <circle cx="0" cy="0" r="1" fill="srgba(0%,30.9239%,0%,1)"/>
  <circle cx="1" cy="0" r="1" fill="srgba(33.1945%,20.3159%,0%,1)"/>
  <circle cx="2" cy="0" r="1" fill="srgba(63.9841%,8.36957%,6.33555%,1)"/>
  <circle cx="3" cy="0" r="1" fill="srgba(62.1057%,12.2026%,9.20119%,1)"/>
  <circle cx="4" cy="0" r="1" fill="srgba(58.6618%,11.0292%,4.5304%,1)"/>
  <circle cx="5" cy="0" r="1" fill="srgba(60.5982%,2.28733%,0.337224%,1)"/>
  <circle cx="6" cy="0" r="1" fill="srgba(46.0914%,13.6278%,0%,1)"/>
  <circle cx="7" cy="0" r="1" fill="srgba(17.2641%,21.7655%,0%,1)"/>
  <circle cx="8" cy="0" r="1" fill="srgba(16.9924%,21.8845%,0.0228885%,1)"/>
  <circle cx="9" cy="0" r="1" fill="srgba(16.6644%,22.0371%,0.0122072%,1)"/>
  <circle cx="10" cy="0" r="1" fill="srgba(16.2402%,22.1988%,0.0106813%,1)"/>
  <circle cx="11" cy="0" r="1" fill="srgba(15.9152%,22.4018%,0%,1)"/>
  <circle cx="12" cy="0" r="1" fill="srgba(15.6237%,22.5696%,0%,1)"/>
  <circle cx="13" cy="0" r="1" fill="srgba(15.317%,22.7298%,0%,1)"/>
  <circle cx="14" cy="0" r="1" fill="srgba(14.9996%,22.8885%,0%,1)"/>
  <circle cx="15" cy="0" r="1" fill="srgba(14.7433%,23.0518%,0.0228885%,1)"/>
  <circle cx="0" cy="1" r="1" fill="srgba(0%,31.0475%,0%,1)"/>
  <circle cx="1" cy="1" r="1" fill="srgba(31.0063%,16.2188%,0.172427%,1)"/>
  <circle cx="2" cy="1" r="1" fill="srgba(65.9358%,20.2884%,12.7749%,1)"/>
  <circle cx="3" cy="1" r="1" fill="srgba(49.2317%,22.0859%,10.2449%,1)"/>
  <circle cx="4" cy="1" r="1" fill="srgba(47.7043%,24.8707%,13.0861%,1)"/>
  <circle cx="5" cy="1" r="1" fill="srgba(62.2629%,18.2681%,13.7621%,1)"/>
  <circle cx="6" cy="1" r="1" fill="srgba(55.4803%,3.1693%,0.613413%,1)"/>
  <circle cx="7" cy="1" r="1" fill="srgba(47.2938%,5.91745%,0%,1)"/>
  <circle cx="8" cy="1" r="1" fill="srgba(49.5216%,7.43267%,2.01724%,1)"/>
  <circle cx="9" cy="1" r="1" fill="srgba(48.983%,7.01762%,1.37942%,1)"/>
  <circle cx="10" cy="1" r="1" fill="srgba(48.8029%,6.9337%,1.31075%,1)"/>
  <circle cx="11" cy="1" r="1" fill="srgba(47.6387%,6.13718%,0.218204%,1)"/>
  <circle cx="12" cy="1" r="1" fill="srgba(47.6829%,6.13107%,0%,1)"/>
  <circle cx="13" cy="1" r="1" fill="srgba(47.7043%,6.11887%,0%,1)"/>
  <circle cx="14" cy="1" r="1" fill="srgba(47.7256%,6.10819%,0%,1)"/>
  <circle cx="15" cy="1" r="1" fill="srgba(47.7409%,6.10819%,0.00610361%,1)"/>
  <circle cx="0" cy="2" r="1" fill="srgba(0%,30.93%,0%,1)"/>
  <circle cx="1" cy="2" r="1" fill="srgba(33.2753%,20.3357%,0%,1)"/>
  <circle cx="2" cy="2" r="1" fill="srgba(63.5447%,8.39094%,0.810254%,1)"/>
  <circle cx="3" cy="2" r="1" fill="srgba(57.1099%,13.4676%,5.01564%,1)"/>
  <circle cx="4" cy="2" r="1" fill="srgba(64.2252%,23.7003%,19.0799%,1)"/>
  <circle cx="5" cy="2" r="1" fill="srgba(66.4027%,15.4162%,13.3013%,1)"/>
  <circle cx="6" cy="2" r="1" fill="srgba(46.9978%,12.3461%,0%,1)"/>
  <circle cx="7" cy="2" r="1" fill="srgba(26.2577%,23.4226%,5.23537%,1)"/>
  <circle cx="8" cy="2" r="1" fill="srgba(33.3745%,28.4474%,12.5032%,1)"/>
  <circle cx="9" cy="2" r="1" fill="srgba(35.8007%,30.2617%,15.1354%,1)"/>
  <circle cx="10" cy="2" r="1" fill="srgba(37.6196%,31.6732%,17.3053%,1)"/>
  <circle cx="11" cy="2" r="1" fill="srgba(34.7662%,29.8573%,14.1787%,1)"/>
  <circle cx="12" cy="2" r="1" fill="srgba(19.6658%,19.5163%,0%,1)"/>
  <circle cx="13" cy="2" r="1" fill="srgba(20.3571%,20.1404%,0%,1)"/>
  <circle cx="14" cy="2" r="1" fill="srgba(20.2396%,20.2014%,0%,1)"/>
  <circle cx="15" cy="2" r="1" fill="srgba(20.1541%,20.2762%,0.0198367%,1)"/>
  <circle cx="0" cy="3" r="1" fill="srgba(0%,30.8965%,0%,1)"/>
  <circle cx="1" cy="3" r="1" fill="srgba(33.7331%,21.3489%,0%,1)"/>
  <circle cx="2" cy="3" r="1" fill="srgba(60.3555%,4.3122%,0.108339%,1)"/>
  <circle cx="3" cy="3" r="1" fill="srgba(58.1888%,11.5633%,2.94347%,1)"/>
  <circle cx="4" cy="3" r="1" fill="srgba(58.7304%,12.8969%,3.91852%,1)"/>
  <circle cx="5" cy="3" r="1" fill="srgba(60.322%,5.41238%,1.49386%,1)"/>
  <circle cx="6" cy="3" r="1" fill="srgba(40.5951%,17.9416%,0%,1)"/>
  <circle cx="7" cy="3" r="1" fill="srgba(14.7646%,37.7737%,12.1431%,1)"/>
  <circle cx="8" cy="3" r="1" fill="srgba(26.4881%,46.1021%,24.1505%,1)"/>
  <circle cx="9" cy="3" r="1" fill="srgba(29.2149%,48.2811%,27.1138%,1)"/>
  <circle cx="10" cy="3" r="1" fill="srgba(46.9764%,60.8301%,45.0278%,1)"/>
  <circle cx="11" cy="3" r="1" fill="srgba(25.8488%,46.4286%,24.1062%,1)"/>
  <circle cx="12" cy="3" r="1" fill="srgba(0.401312%,29.0578%,0%,1)"/>
  <circle cx="13" cy="3" r="1" fill="srgba(1.37179%,30.1167%,0.19379%,1)"/>
  <circle cx="14" cy="3" r="1" fill="srgba(0.956741%,30.2296%,0.109865%,1)"/>
  <circle cx="15" cy="3" r="1" fill="srgba(0.726329%,30.3441%,0.106813%,1)"/>
  <circle cx="0" cy="4" r="1" fill="srgba(0%,31.0353%,0%,1)"/>
  <circle cx="1" cy="4" r="1" fill="srgba(31.046%,17.3602%,0.578317%,1)"/>
  <circle cx="2" cy="4" r="1" fill="srgba(57.6013%,21.3703%,11.6258%,1)"/>
  <circle cx="3" cy="4" r="1" fill="srgba(58.9288%,31.1116%,9.10811%,1)"/>
  <circle cx="4" cy="4" r="1" fill="srgba(60.4654%,31.5679%,9.27596%,1)"/>
  <circle cx="5" cy="4" r="1" fill="srgba(56.9085%,25.4978%,13.5958%,1)"/>
  <circle cx="6" cy="4" r="1" fill="srgba(38.7716%,17.911%,4.41444%,1)"/>
  <circle cx="7" cy="4" r="1" fill="srgba(13.9162%,39.6826%,13.3242%,1)"/>
  <circle cx="8" cy="4" r="1" fill="srgba(34.7768%,54.1711%,34.3587%,1)"/>
  <circle cx="9" cy="4" r="1" fill="srgba(47.274%,62.8656%,46.8589%,1)"/>
  <circle cx="10" cy="4" r="1" fill="srgba(42.3529%,59.4614%,41.9211%,1)"/>
  <circle cx="11" cy="4" r="1" fill="srgba(8.65034%,36.1028%,8.24598%,1)"/>
  <circle cx="12" cy="4" r="1" fill="srgba(4.10925%,33.0007%,3.74762%,1)"/>
  <circle cx="13" cy="4" r="1" fill="srgba(4.32898%,33.2235%,4.0177%,1)"/>
  <circle cx="14" cy="4" r="1" fill="srgba(3.79644%,32.9122%,3.53704%,1)"/>
  <circle cx="15" cy="4" r="1" fill="srgba(3.12352%,32.488%,2.90074%,1)"/>
  <circle cx="0" cy="5" r="1" fill="srgba(0%,30.8553%,0%,1)"/>
  <circle cx="1" cy="5" r="1" fill="srgba(34.3648%,22.6566%,0.869764%,1)"/>
  <circle cx="2" cy="5" r="1" fill="srgba(65.6077%,17.6471%,12.6009%,1)"/>
  <circle cx="3" cy="5" r="1" fill="srgba(56.4157%,21.2192%,8.11627%,1)"/>
  <circle cx="4" cy="5" r="1" fill="srgba(57.4975%,23.5859%,8.67781%,1)"/>
  <circle cx="5" cy="5" r="1" fill="srgba(63.8422%,17.4456%,12.8298%,1)"/>
  <circle cx="6" cy="5" r="1" fill="srgba(42.1744%,19.2248%,1.10628%,1)"/>
  <circle cx="7" cy="5" r="1" fill="srgba(4.69825%,29.8955%,1.30159%,1)"/>
  <circle cx="8" cy="5" r="1" fill="srgba(13.785%,36.3821%,10.6905%,1)"/>
  <circle cx="9" cy="5" r="1" fill="srgba(12.1828%,35.4772%,9.22866%,1)"/>
  <circle cx="10" cy="5" r="1" fill="srgba(2.6566%,29.102%,0.369268%,1)"/>
  <circle cx="11" cy="5" r="1" fill="srgba(2.80766%,29.4194%,0.383001%,1)"/>
  <circle cx="12" cy="5" r="1" fill="srgba(2.96788%,29.7917%,0.596628%,1)"/>
  <circle cx="13" cy="5" r="1" fill="srgba(2.81529%,29.9565%,0.672923%,1)"/>
  <circle cx="14" cy="5" r="1" fill="srgba(2.5742%,30.1579%,0.743114%,1)"/>
  <circle cx="15" cy="5" r="1" fill="srgba(2.2797%,30.2251%,0.669871%,1)"/>
  <circle cx="0" cy="6" r="1" fill="srgba(0%,30.9407%,0%,1)"/>
  <circle cx="1" cy="6" r="1" fill="srgba(33.0755%,20.2274%,0.415045%,1)"/>
  <circle cx="2" cy="6" r="1" fill="srgba(58.2223%,11.2581%,6.69871%,1)"/>
  <circle cx="3" cy="6" r="1" fill="srgba(48.8762%,14.1253%,7.47845%,1)"/>
  <circle cx="4" cy="6" r="1" fill="srgba(48.7327%,15.1125%,7.51812%,1)"/>
  <circle cx="5" cy="6" r="1" fill="srgba(56.4477%,11.8547%,6.92912%,1)"/>
  <circle cx="6" cy="6" r="1" fill="srgba(39.6017%,17.319%,0.360113%,1)"/>
  <circle cx="7" cy="6" r="1" fill="srgba(0.553902%,30.3655%,0%,1)"/>
  <circle cx="8" cy="6" r="1" fill="srgba(0.422675%,30.1778%,0.0274662%,1)"/>
  <circle cx="9" cy="6" r="1" fill="srgba(0.404364%,30.2159%,0.0228885%,1)"/>
  <circle cx="10" cy="6" r="1" fill="srgba(0.448615%,30.3029%,0%,1)"/>
  <circle cx="11" cy="6" r="1" fill="srgba(0.440986%,30.3319%,0%,1)"/>
  <circle cx="12" cy="6" r="1" fill="srgba(0.39826%,30.3471%,0%,1)"/>
  <circle cx="13" cy="6" r="1" fill="srgba(0.357061%,30.3609%,0%,1)"/>
  <circle cx="14" cy="6" r="1" fill="srgba(0.296025%,30.3822%,0%,1)"/>
  <circle cx="15" cy="6" r="1" fill="srgba(0.292973%,30.4311%,0.030518%,1)"/>
  <circle cx="0" cy="7" r="1" fill="srgba(0%,31.0277%,0%,1)"/>
  <circle cx="1" cy="7" r="1" fill="srgba(31.5435%,17.7356%,0.2121%,1)"/>
  <circle cx="2" cy="7" r="1" fill="srgba(52.6238%,11.6777%,5.07973%,1)"/>
  <circle cx="3" cy="7" r="1" fill="srgba(50.6416%,17.7417%,8.58167%,1)"/>
  <circle cx="4" cy="7" r="1" fill="srgba(52.2774%,19.1897%,10.2998%,1)"/>
  <circle cx="5" cy="7" r="1" fill="srgba(50.8263%,13.7453%,5.26436%,1)"/>
  <circle cx="6" cy="7" r="1" fill="srgba(37.3342%,15.111%,0.325017%,1)"/>
  <circle cx="7" cy="7" r="1" fill="srgba(0.0213626%,30.7408%,0%,1)"/>
  <circle cx="8" cy="7" r="1" fill="srgba(0%,30.6004%,0%,1)"/>
  <circle cx="9" cy="7" r="1" fill="srgba(0%,30.5959%,0%,1)"/>
  <circle cx="10" cy="7" r="1" fill="srgba(0%,30.5974%,0%,1)"/>
  <circle cx="11" cy="7" r="1" fill="srgba(0%,30.5974%,0%,1)"/>
  <circle cx="12" cy="7" r="1" fill="srgba(0%,30.5959%,0%,1)"/>
  <circle cx="13" cy="7" r="1" fill="srgba(0%,30.5959%,0%,1)"/>
  <circle cx="14" cy="7" r="1" fill="srgba(0%,30.5928%,0%,1)"/>
  <circle cx="15" cy="7" r="1" fill="srgba(0.030518%,30.6172%,0.030518%,1)"/>
  <circle cx="0" cy="8" r="1" fill="srgba(0%,30.8522%,0%,1)"/>
  <circle cx="1" cy="8" r="1" fill="srgba(34.58%,22.7085%,0.183108%,1)"/>
  <circle cx="2" cy="8" r="1" fill="srgba(62.9435%,8.59083%,4.62959%,1)"/>
  <circle cx="3" cy="8" r="1" fill="srgba(52.4224%,8.22766%,4.81422%,1)"/>
  <circle cx="4" cy="8" r="1" fill="srgba(51.7021%,8.79683%,4.78828%,1)"/>
  <circle cx="5" cy="8" r="1" fill="srgba(61.9196%,7.6997%,4.77302%,1)"/>
  <circle cx="6" cy="8" r="1" fill="srgba(41.21%,20.6394%,0.283818%,1)"/>
  <circle cx="7" cy="8" r="1" fill="srgba(0%,30.7118%,0%,1)"/>
  <circle cx="8" cy="8" r="1" fill="srgba(0%,30.5898%,0%,1)"/>
  <circle cx="9" cy="8" r="1" fill="srgba(0,78,0,1)"/>
  <circle cx="10" cy="8" r="1" fill="srgba(0,78,0,1)"/>
  <circle cx="11" cy="8" r="1" fill="srgba(0,78,0,1)"/>
  <circle cx="12" cy="8" r="1" fill="srgba(0,78,0,1)"/>
  <circle cx="13" cy="8" r="1" fill="srgba(0,78,0,1)"/>
  <circle cx="14" cy="8" r="1" fill="srgba(0%,30.5867%,0%,1)"/>
  <circle cx="15" cy="8" r="1" fill="srgba(0.030518%,30.6111%,0.030518%,1)"/>
  <circle cx="0" cy="9" r="1" fill="srgba(0%,31.0109%,0%,1)"/>
  <circle cx="1" cy="9" r="1" fill="srgba(32.2164%,18.6709%,0.158694%,1)"/>
  <circle cx="2" cy="9" r="1" fill="srgba(62.6566%,6.21653%,4.17487%,1)"/>
  <circle cx="3" cy="9" r="1" fill="srgba(62.6276%,8.01709%,4.96681%,1)"/>
  <circle cx="4" cy="9" r="1" fill="srgba(62.6795%,8.14679%,4.90425%,1)"/>
  <circle cx="5" cy="9" r="1" fill="srgba(58.9136%,9.22255%,4.29999%,1)"/>
  <circle cx="6" cy="9" r="1" fill="srgba(37.9324%,16.3516%,0.234989%,1)"/>
  <circle cx="7" cy="9" r="1" fill="srgba(0%,30.7424%,0%,1)"/>
  <circle cx="8" cy="9" r="1" fill="srgba(0%,30.5928%,0%,1)"/>
  <circle cx="9" cy="9" r="1" fill="srgba(0,78,0,1)"/>
  <circle cx="10" cy="9" r="1" fill="srgba(0,78,0,1)"/>
  <circle cx="11" cy="9" r="1" fill="srgba(0,78,0,1)"/>
  <circle cx="12" cy="9" r="1" fill="srgba(0,78,0,1)"/>
  <circle cx="13" cy="9" r="1" fill="srgba(0,78,0,1)"/>
  <circle cx="14" cy="9" r="1" fill="srgba(0%,30.5867%,0%,1)"/>
  <circle cx="15" cy="9" r="1" fill="srgba(0.030518%,30.6111%,0.030518%,1)"/>
  <circle cx="0" cy="10" r="1" fill="srgba(0%,30.9361%,0%,1)"/>
  <circle cx="1" cy="10" r="1" fill="srgba(32.9397%,20.5097%,0.140383%,1)"/>
  <circle cx="2" cy="10" r="1" fill="srgba(48.3055%,16.4797%,3.47601%,1)"/>
  <circle cx="3" cy="10" r="1" fill="srgba(50.2663%,15.7504%,4.37476%,1)"/>
  <circle cx="4" cy="10" r="1" fill="srgba(52.0974%,15.3536%,4.29847%,1)"/>
  <circle cx="5" cy="10" r="1" fill="srgba(55.1644%,12.2469%,3.62707%,1)"/>
  <circle cx="6" cy="10" r="1" fill="srgba(39.2874%,17.818%,0.198367%,1)"/>
  <circle cx="7" cy="10" r="1" fill="srgba(0%,30.7301%,0%,1)"/>
  <circle cx="8" cy="10" r="1" fill="srgba(0%,30.5913%,0%,1)"/>
  <circle cx="9" cy="10" r="1" fill="srgba(0,78,0,1)"/>
  <circle cx="10" cy="10" r="1" fill="srgba(0,78,0,1)"/>
  <circle cx="11" cy="10" r="1" fill="srgba(0,78,0,1)"/>
  <circle cx="12" cy="10" r="1" fill="srgba(0,78,0,1)"/>
  <circle cx="13" cy="10" r="1" fill="srgba(0,78,0,1)"/>
  <circle cx="14" cy="10" r="1" fill="srgba(0%,30.5867%,0%,1)"/>
  <circle cx="15" cy="10" r="1" fill="srgba(0.030518%,30.6111%,0.030518%,1)"/>
  <circle cx="0" cy="11" r="1" fill="srgba(0%,30.8782%,0%,1)"/>
  <circle cx="1" cy="11" r="1" fill="srgba(33.7179%,21.7609%,0.0015259%,1)"/>
  <circle cx="2" cy="11" r="1" fill="srgba(62.4292%,25.9007%,15.9762%,1)"/>
  <circle cx="3" cy="11" r="1" fill="srgba(69.5857%,46.1448%,37.1633%,1)"/>
  <circle cx="4" cy="11" r="1" fill="srgba(67.9957%,36.4935%,13.2708%,1)"/>
  <circle cx="5" cy="11" r="1" fill="srgba(66.1784%,20.0519%,6.5568%,1)"/>
  <circle cx="6" cy="11" r="1" fill="srgba(40.444%,19.6094%,0.0732433%,1)"/>
  <circle cx="7" cy="11" r="1" fill="srgba(0%,30.6096%,0%,1)"/>
  <circle cx="8" cy="11" r="1" fill="srgba(0%,30.4295%,0%,1)"/>
  <circle cx="9" cy="11" r="1" fill="srgba(0%,30.3731%,0%,1)"/>
  <circle cx="10" cy="11" r="1" fill="srgba(0%,30.3304%,0%,1)"/>
  <circle cx="11" cy="11" r="1" fill="srgba(0%,30.2968%,0%,1)"/>
  <circle cx="12" cy="11" r="1" fill="srgba(0%,30.2708%,0%,1)"/>
  <circle cx="13" cy="11" r="1" fill="srgba(0%,30.2495%,0%,1)"/>
  <circle cx="14" cy="11" r="1" fill="srgba(0%,30.2327%,0%,1)"/>
  <circle cx="15" cy="11" r="1" fill="srgba(0.00915541%,30.2464%,0.030518%,1)"/>
  <circle cx="0" cy="12" r="1" fill="srgba(0%,30.9071%,0%,1)"/>
  <circle cx="1" cy="12" r="1" fill="srgba(31.0643%,17.8271%,0.146487%,1)"/>
  <circle cx="2" cy="12" r="1" fill="srgba(76.6125%,44.4663%,26.9108%,1)"/>
  <circle cx="3" cy="12" r="1" fill="srgba(74.7997%,51.6289%,31.2062%,1)"/>
  <circle cx="4" cy="12" r="1" fill="srgba(71.7144%,48.1621%,29.2699%,1)"/>
  <circle cx="5" cy="12" r="1" fill="srgba(78.378%,48.6763%,31.3436%,1)"/>
  <circle cx="6" cy="12" r="1" fill="srgba(37.7691%,15.5215%,1.22988%,1)"/>
  <circle cx="7" cy="12" r="1" fill="srgba(4.23438%,31.9631%,0%,1)"/>
  <circle cx="8" cy="12" r="1" fill="srgba(7.24956%,32.9625%,0%,1)"/>
  <circle cx="9" cy="12" r="1" fill="srgba(9.87411%,33.8079%,0%,1)"/>
  <circle cx="10" cy="12" r="1" fill="srgba(11.9295%,34.4778%,0%,1)"/>
  <circle cx="11" cy="12" r="1" fill="srgba(13.6446%,35.0378%,0%,1)"/>
  <circle cx="12" cy="12" r="1" fill="srgba(15.0896%,35.5093%,0%,1)"/>
  <circle cx="13" cy="12" r="1" fill="srgba(16.2905%,35.8999%,0%,1)"/>
  <circle cx="14" cy="12" r="1" fill="srgba(17.2412%,36.2097%,0%,1)"/>
  <circle cx="15" cy="12" r="1" fill="srgba(18.0072%,36.4706%,0.0244144%,1)"/>
  <circle cx="0" cy="13" r="1" fill="srgba(0%,30.5608%,0%,1)"/>
  <circle cx="1" cy="13" r="1" fill="srgba(33.5805%,21.6312%,0%,1)"/>
  <circle cx="2" cy="13" r="1" fill="srgba(70.2632%,24.4343%,3.61944%,1)"/>
  <circle cx="3" cy="13" r="1" fill="srgba(71.0719%,33.5714%,9.66354%,1)"/>
  <circle cx="4" cy="13" r="1" fill="srgba(73.1273%,43.0137%,32.8695%,1)"/>
  <circle cx="5" cy="13" r="1" fill="srgba(71.3451%,29.7261%,16.0342%,1)"/>
  <circle cx="6" cy="13" r="1" fill="srgba(48.5283%,25.3544%,0.198367%,1)"/>
  <circle cx="7" cy="13" r="1" fill="srgba(21.5122%,37.3465%,0%,1)"/>
  <circle cx="8" cy="13" r="1" fill="srgba(27.7333%,39.6399%,0%,1)"/>
  <circle cx="9" cy="13" r="1" fill="srgba(28.9586%,40.0305%,0%,1)"/>
  <circle cx="10" cy="13" r="1" fill="srgba(30.3578%,40.4868%,0%,1)"/>
  <circle cx="11" cy="13" r="1" fill="srgba(31.22%,40.7675%,0%,1)"/>
  <circle cx="12" cy="13" r="1" fill="srgba(31.6594%,40.911%,0%,1)"/>
  <circle cx="13" cy="13" r="1" fill="srgba(31.6548%,40.9094%,0%,1)"/>
  <circle cx="14" cy="13" r="1" fill="srgba(31.2749%,40.7843%,0%,1)"/>
  <circle cx="15" cy="13" r="1" fill="srgba(30.5379%,40.5554%,0.0213626%,1)"/>
  <circle cx="0" cy="14" r="1" fill="srgba(0%,30.7271%,0%,1)"/>
  <circle cx="1" cy="14" r="1" fill="srgba(32.4941%,19.2447%,0%,1)"/>
  <circle cx="2" cy="14" r="1" fill="srgba(80.4807%,38.6038%,0.0381476%,1)"/>
  <circle cx="3" cy="14" r="1" fill="srgba(83.154%,46.8574%,0.408942%,1)"/>
  <circle cx="4" cy="14" r="1" fill="srgba(82.8336%,46.273%,0.482185%,1)"/>
  <circle cx="5" cy="14" r="1" fill="srgba(85.6321%,50.1656%,0.0518807%,1)"/>
  <circle cx="6" cy="14" r="1" fill="srgba(80.6119%,53.9681%,0%,1)"/>
  <circle cx="7" cy="14" r="1" fill="srgba(49.8268%,46.743%,0%,1)"/>
  <circle cx="8" cy="14" r="1" fill="srgba(30.4845%,40.528%,0%,1)"/>
  <circle cx="9" cy="14" r="1" fill="srgba(25.8061%,39.0005%,0%,1)"/>
  <circle cx="10" cy="14" r="1" fill="srgba(23.3158%,38.1872%,0%,1)"/>
  <circle cx="11" cy="14" r="1" fill="srgba(20.8576%,37.3877%,0%,1)"/>
  <circle cx="12" cy="14" r="1" fill="srgba(18.2742%,36.5454%,0%,1)"/>
  <circle cx="13" cy="14" r="1" fill="srgba(15.4391%,35.6191%,0%,1)"/>
  <circle cx="14" cy="14" r="1" fill="srgba(12.4544%,34.6471%,0%,1)"/>
  <circle cx="15" cy="14" r="1" fill="srgba(9.20272%,33.5988%,0.0289921%,1)"/>
  <circle cx="0" cy="15" r="1" fill="srgba(0%,30.7729%,0.132753%,1)"/>
  <circle cx="1" cy="15" r="1" fill="srgba(32.8756%,20.0244%,0.0671397%,1)"/>
  <circle cx="2" cy="15" r="1" fill="srgba(86.2989%,50.2541%,0%,1)"/>
  <circle cx="3" cy="15" r="1" fill="srgba(90.4433%,60.4608%,0%,1)"/>
  <circle cx="4" cy="15" r="1" fill="srgba(90.1503%,59.8825%,0%,1)"/>
  <circle cx="5" cy="15" r="1" fill="srgba(91.3588%,60.3006%,0%,1)"/>
  <circle cx="6" cy="15" r="1" fill="srgba(61.4755%,45.034%,0.0534066%,1)"/>
  <circle cx="7" cy="15" r="1" fill="srgba(6.82689%,32.5338%,0.131228%,1)"/>
  <circle cx="8" cy="15" r="1" fill="srgba(0%,30.4601%,0.131228%,1)"/>
  <circle cx="9" cy="15" r="1" fill="srgba(0%,30.4997%,0.131228%,1)"/>
  <circle cx="10" cy="15" r="1" fill="srgba(0%,30.4829%,0.131228%,1)"/>
  <circle cx="11" cy="15" r="1" fill="srgba(0%,30.4723%,0.131228%,1)"/>
  <circle cx="12" cy="15" r="1" fill="srgba(0%,30.4692%,0.131228%,1)"/>
  <circle cx="13" cy="15" r="1" fill="srgba(0%,30.4784%,0.131228%,1)"/>
  <circle cx="14" cy="15" r="1" fill="srgba(0%,30.4982%,0.129702%,1)"/>
  <circle cx="15" cy="15" r="1" fill="srgba(0.0259403%,30.5547%,0.161746%,1)"/>
</svg>
