<?xml version="1.0" standalone="no"?>
<!DOCTYPE svg PUBLIC "-//W3C//DTD SVG 20010904//EN"
  "http://www.w3.org/TR/2001/REC-SVG-20010904/DTD/svg10.dtd">
<svg width="16" height="16">
  <circle cx="0" cy="0" r="1" fill="srgba(231,0,19,1)"/>
  <circle cx="1" cy="0" r="1" fill="srgba(231,0,19,1)"/>
  <circle cx="2" cy="0" r="1" fill="srgba(231,0,19,1)"/>
  <circle cx="3" cy="0" r="1" fill="srgba(231,0,19,1)"/>
  <circle cx="4" cy="0" r="1" fill="srgba(231,0,19,1)"/>
  <circle cx="5" cy="0" r="1" fill="srgba(231,0,19,1)"/>
  <circle cx="6" cy="0" r="1" fill="srgba(231,0,19,1)"/>
  <circle cx="7" cy="0" r="1" fill="srgba(231,0,19,1)"/>
  <circle cx="8" cy="0" r="1" fill="srgba(231,0,19,1)"/>
  <circle cx="9" cy="0" r="1" fill="srgba(231,0,19,1)"/>
  <circle cx="10" cy="0" r="1" fill="srgba(231,0,19,1)"/>
  <circle cx="11" cy="0" r="1" fill="srgba(231,0,19,1)"/>
  <circle cx="12" cy="0" r="1" fill="srgba(231,0,19,1)"/>
  <circle cx="13" cy="0" r="1" fill="srgba(231,0,19,1)"/>
  <circle cx="14" cy="0" r="1" fill="srgba(90.5882%,0%,7.44945%,1)"/>
  <circle cx="15" cy="0" r="1" fill="srgba(90.5882%,0.030518%,7.4815%,1)"/>
  <circle cx="0" cy="1" r="1" fill="srgba(231,0,19,1)"/>
  <circle cx="1" cy="1" r="1" fill="srgba(231,0,19,1)"/>
  <circle cx="2" cy="1" r="1" fill="srgba(231,0,19,1)"/>
  <circle cx="3" cy="1" r="1" fill="srgba(231,0,19,1)"/>
  <circle cx="4" cy="1" r="1" fill="srgba(231,0,19,1)"/>
  <circle cx="5" cy="1" r="1" fill="srgba(231,0,19,1)"/>
  <circle cx="6" cy="1" r="1" fill="srgba(231,0,19,1)"/>
  <circle cx="7" cy="1" r="1" fill="srgba(231,0,19,1)"/>
  <circle cx="8" cy="1" r="1" fill="srgba(231,0,19,1)"/>
  <circle cx="9" cy="1" r="1" fill="srgba(231,0,19,1)"/>
  <circle cx="10" cy="1" r="1" fill="srgba(231,0,19,1)"/>
  <circle cx="11" cy="1" r="1" fill="srgba(231,0,19,1)"/>
  <circle cx="12" cy="1" r="1" fill="srgba(231,0,19,1)"/>
  <circle cx="13" cy="1" r="1" fill="srgba(231,0,19,1)"/>
  <circle cx="14" cy="1" r="1" fill="srgba(90.5882%,0%,7.44945%,1)"/>
  <circle cx="15" cy="1" r="1" fill="srgba(90.5882%,0.030518%,7.4815%,1)"/>
  <circle cx="0" cy="2" r="1" fill="srgba(231,0,19,1)"/>
  <circle cx="1" cy="2" r="1" fill="srgba(231,0,19,1)"/>
  <circle cx="2" cy="2" r="1" fill="srgba(231,0,19,1)"/>
  <circle cx="3" cy="2" r="1" fill="srgba(231,0,19,1)"/>
  <circle cx="4" cy="2" r="1" fill="srgba(231,0,19,1)"/>
  <circle cx="5" cy="2" r="1" fill="srgba(90.5882%,0%,7.45556%,1)"/>
  <circle cx="6" cy="2" r="1" fill="srgba(90.5699%,0%,7.26787%,1)"/>
  <circle cx="7" cy="2" r="1" fill="srgba(90.5165%,0%,6.74907%,1)"/>
  <circle cx="8" cy="2" r="1" fill="srgba(90.515%,0%,6.73228%,1)"/>
  <circle cx="9" cy="2" r="1" fill="srgba(90.5684%,0%,7.24804%,1)"/>
  <circle cx="10" cy="2" r="1" fill="srgba(90.5882%,0%,7.45556%,1)"/>
  <circle cx="11" cy="2" r="1" fill="srgba(231,0,19,1)"/>
  <circle cx="12" cy="2" r="1" fill="srgba(231,0,19,1)"/>
  <circle cx="13" cy="2" r="1" fill="srgba(231,0,19,1)"/>
  <circle cx="14" cy="2" r="1" fill="srgba(90.5882%,0%,7.44945%,1)"/>
  <circle cx="15" cy="2" r="1" fill="srgba(90.5882%,0.030518%,7.4815%,1)"/>
  <circle cx="0" cy="3" r="1" fill="srgba(231,0,19,1)"/>
  <circle cx="1" cy="3" r="1" fill="srgba(231,0,19,1)"/>
  <circle cx="2" cy="3" r="1" fill="srgba(231,0,19,1)"/>
  <circle cx="3" cy="3" r="1" fill="srgba(90.5882%,0%,7.45403%,1)"/>
  <circle cx="4" cy="3" r="1" fill="srgba(90.5837%,0%,7.41283%,1)"/>
  <circle cx="5" cy="3" r="1" fill="srgba(90.4891%,0%,6.47288%,1)"/>
  <circle cx="6" cy="3" r="1" fill="srgba(90.8476%,3.10216%,10.0008%,1)"/>
  <circle cx="7" cy="3" r="1" fill="srgba(91.7006%,11.8013%,18.3917%,1)"/>
  <circle cx="8" cy="3" r="1" fill="srgba(91.725%,12.0592%,18.6267%,1)"/>
  <circle cx="9" cy="3" r="1" fill="srgba(90.8812%,3.41955%,10.3334%,1)"/>
  <circle cx="10" cy="3" r="1" fill="srgba(90.4875%,0%,6.45762%,1)"/>
  <circle cx="11" cy="3" r="1" fill="srgba(90.5821%,0%,7.39605%,1)"/>
  <circle cx="12" cy="3" r="1" fill="srgba(90.5882%,0%,7.45403%,1)"/>
  <circle cx="13" cy="3" r="1" fill="srgba(231,0,19,1)"/>
  <circle cx="14" cy="3" r="1" fill="srgba(90.5882%,0%,7.44945%,1)"/>
  <circle cx="15" cy="3" r="1" fill="srgba(90.5882%,0.030518%,7.4815%,1)"/>
  <circle cx="0" cy="4" r="1" fill="srgba(231,0,19,1)"/>
  <circle cx="1" cy="4" r="1" fill="srgba(231,0,19,1)"/>
  <circle cx="2" cy="4" r="1" fill="srgba(231,0,19,1)"/>
  <circle cx="3" cy="4" r="1" fill="srgba(90.5852%,0%,7.41436%,1)"/>
  <circle cx="4" cy="4" r="1" fill="srgba(90.5516%,0.12665%,7.09545%,1)"/>
  <circle cx="5" cy="4" r="1" fill="srgba(92.8466%,24.126%,29.6498%,1)"/>
  <circle cx="6" cy="4" r="1" fill="srgba(97.1511%,69.7139%,71.9783%,1)"/>
  <circle cx="7" cy="4" r="1" fill="srgba(98.8159%,87.4205%,88.3574%,1)"/>
  <circle cx="8" cy="4" r="1" fill="srgba(98.7366%,86.5827%,87.5822%,1)"/>
  <circle cx="9" cy="4" r="1" fill="srgba(97.1664%,69.8741%,72.1233%,1)"/>
  <circle cx="10" cy="4" r="1" fill="srgba(93.0159%,25.9052%,31.3161%,1)"/>
  <circle cx="11" cy="4" r="1" fill="srgba(90.5715%,0.344854%,7.28466%,1)"/>
  <circle cx="12" cy="4" r="1" fill="srgba(90.5821%,0%,7.39452%,1)"/>
  <circle cx="13" cy="4" r="1" fill="srgba(231,0,19,1)"/>
  <circle cx="14" cy="4" r="1" fill="srgba(90.5882%,0%,7.44945%,1)"/>
  <circle cx="15" cy="4" r="1" fill="srgba(90.5882%,0.030518%,7.4815%,1)"/>
  <circle cx="0" cy="5" r="1" fill="srgba(231,0,19,1)"/>
  <circle cx="1" cy="5" r="1" fill="srgba(231,0,19,1)"/>
  <circle cx="2" cy="5" r="1" fill="srgba(90.5882%,0%,7.45556%,1)"/>
  <circle cx="3" cy="5" r="1" fill="srgba(90.4875%,0%,6.46677%,1)"/>
  <circle cx="4" cy="5" r="1" fill="srgba(92.8008%,23.7247%,29.1997%,1)"/>
  <circle cx="5" cy="5" r="1" fill="srgba(98.851%,87.7836%,88.7022%,1)"/>
  <circle cx="6" cy="5" r="1" fill="srgba(97.7081%,75.6451%,77.4609%,1)"/>
  <circle cx="7" cy="5" r="1" fill="srgba(95.14%,48.365%,52.2118%,1)"/>
  <circle cx="8" cy="5" r="1" fill="srgba(97.5433%,73.8827%,75.8282%,1)"/>
  <circle cx="9" cy="5" r="1" fill="srgba(99.9451%,99.4095%,99.4537%,1)"/>
  <circle cx="10" cy="5" r="1" fill="srgba(99.0234%,89.6193%,90.4021%,1)"/>
  <circle cx="11" cy="5" r="1" fill="srgba(93.0358%,26.2119%,31.5099%,1)"/>
  <circle cx="12" cy="5" r="1" fill="srgba(90.4875%,0%,6.4622%,1)"/>
  <circle cx="13" cy="5" r="1" fill="srgba(90.5882%,0%,7.45556%,1)"/>
  <circle cx="14" cy="5" r="1" fill="srgba(90.5882%,0%,7.44945%,1)"/>
  <circle cx="15" cy="5" r="1" fill="srgba(90.5882%,0.030518%,7.4815%,1)"/>
  <circle cx="0" cy="6" r="1" fill="srgba(231,0,19,1)"/>
  <circle cx="1" cy="6" r="1" fill="srgba(231,0,19,1)"/>
  <circle cx="2" cy="6" r="1" fill="srgba(90.573%,0%,7.29381%,1)"/>
  <circle cx="3" cy="6" r="1" fill="srgba(90.8049%,2.34226%,9.5903%,1)"/>
  <circle cx="4" cy="6" r="1" fill="srgba(96.9879%,68.0323%,70.3853%,1)"/>
  <circle cx="5" cy="6" r="1" fill="srgba(97.7447%,76.0311%,77.8195%,1)"/>
  <circle cx="6" cy="6" r="1" fill="srgba(92.079%,15.9075%,22.1073%,1)"/>
  <circle cx="7" cy="6" r="1" fill="srgba(96.7102%,65.0599%,67.6463%,1)"/>
  <circle cx="8" cy="6" r="1" fill="srgba(98.2666%,81.5976%,82.9694%,1)"/>
  <circle cx="9" cy="6" r="1" fill="srgba(99.3668%,93.2799%,93.7804%,1)"/>
  <circle cx="10" cy="6" r="1" fill="srgba(99.9008%,98.9517%,99.0311%,1)"/>
  <circle cx="11" cy="6" r="1" fill="srgba(97.1893%,70.161%,72.3583%,1)"/>
  <circle cx="12" cy="6" r="1" fill="srgba(90.9026%,3.37224%,10.5425%,1)"/>
  <circle cx="13" cy="6" r="1" fill="srgba(90.5669%,0%,7.23735%,1)"/>
  <circle cx="14" cy="6" r="1" fill="srgba(90.5882%,0%,7.44945%,1)"/>
  <circle cx="15" cy="6" r="1" fill="srgba(90.5882%,0.030518%,7.4815%,1)"/>
  <circle cx="0" cy="7" r="1" fill="srgba(231,0,19,1)"/>
  <circle cx="1" cy="7" r="1" fill="srgba(231,0,19,1)"/>
  <circle cx="2" cy="7" r="1" fill="srgba(90.5241%,0%,6.82689%,1)"/>
  <circle cx="3" cy="7" r="1" fill="srgba(91.574%,10.4784%,17.1481%,1)"/>
  <circle cx="4" cy="7" r="1" fill="srgba(98.7243%,86.4179%,87.4495%,1)"/>
  <circle cx="5" cy="7" r="1" fill="srgba(94.5281%,42.2583%,46.1845%,1)"/>
  <circle cx="6" cy="7" r="1" fill="srgba(93.1975%,28.1804%,33.1106%,1)"/>
  <circle cx="7" cy="7" r="1" fill="srgba(98.5992%,85.1225%,86.2425%,1)"/>
  <circle cx="8" cy="7" r="1" fill="srgba(93.7697%,34.0917%,38.7579%,1)"/>
  <circle cx="9" cy="7" r="1" fill="srgba(93.8384%,34.5815%,39.4232%,1)"/>
  <circle cx="10" cy="7" r="1" fill="srgba(98.9899%,89.2653%,90.0649%,1)"/>
  <circle cx="11" cy="7" r="1" fill="srgba(98.9441%,88.777%,89.6132%,1)"/>
  <circle cx="12" cy="7" r="1" fill="srgba(91.7739%,12.5963%,19.1089%,1)"/>
  <circle cx="13" cy="7" r="1" fill="srgba(90.5119%,0%,6.70024%,1)"/>
  <circle cx="14" cy="7" r="1" fill="srgba(90.5882%,0%,7.44945%,1)"/>
  <circle cx="15" cy="7" r="1" fill="srgba(90.5882%,0.030518%,7.4815%,1)"/>
  <circle cx="0" cy="8" r="1" fill="srgba(231,0,19,1)"/>
  <circle cx="1" cy="8" r="1" fill="srgba(231,0,19,1)"/>
  <circle cx="2" cy="8" r="1" fill="srgba(90.5257%,0%,6.83299%,1)"/>
  <circle cx="3" cy="8" r="1" fill="srgba(91.5648%,10.3838%,17.0611%,1)"/>
  <circle cx="4" cy="8" r="1" fill="srgba(98.7137%,86.3096%,87.3503%,1)"/>
  <circle cx="5" cy="8" r="1" fill="srgba(94.551%,42.5025%,46.4149%,1)"/>
  <circle cx="6" cy="8" r="1" fill="srgba(93.3288%,29.5811%,34.3923%,1)"/>
  <circle cx="7" cy="8" r="1" fill="srgba(98.7579%,86.8101%,87.7913%,1)"/>
  <circle cx="8" cy="8" r="1" fill="srgba(93.6324%,32.5933%,37.3754%,1)"/>
  <circle cx="9" cy="8" r="1" fill="srgba(93.695%,33.0327%,38.0117%,1)"/>
  <circle cx="10" cy="8" r="1" fill="srgba(99.1485%,90.9575%,91.632%,1)"/>
  <circle cx="11" cy="8" r="1" fill="srgba(98.9273%,88.6015%,89.4514%,1)"/>
  <circle cx="12" cy="8" r="1" fill="srgba(91.7647%,12.4926%,19.0127%,1)"/>
  <circle cx="13" cy="8" r="1" fill="srgba(90.5119%,0%,6.70634%,1)"/>
  <circle cx="14" cy="8" r="1" fill="srgba(90.5882%,0%,7.44945%,1)"/>
  <circle cx="15" cy="8" r="1" fill="srgba(90.5882%,0.030518%,7.4815%,1)"/>
  <circle cx="0" cy="9" r="1" fill="srgba(231,0,19,1)"/>
  <circle cx="1" cy="9" r="1" fill="srgba(231,0,19,1)"/>
  <circle cx="2" cy="9" r="1" fill="srgba(90.573%,0%,7.29992%,1)"/>
  <circle cx="3" cy="9" r="1" fill="srgba(90.7942%,2.21408%,9.47127%,1)"/>
  <circle cx="4" cy="9" r="1" fill="srgba(96.9329%,67.4571%,69.8512%,1)"/>
  <circle cx="5" cy="9" r="1" fill="srgba(97.7966%,76.5881%,78.3352%,1)"/>
  <circle cx="6" cy="9" r="1" fill="srgba(92.253%,17.7035%,23.8102%,1)"/>
  <circle cx="7" cy="9" r="1" fill="srgba(96.7788%,65.7893%,68.3314%,1)"/>
  <circle cx="8" cy="9" r="1" fill="srgba(98.1476%,80.3128%,81.7792%,1)"/>
  <circle cx="9" cy="9" r="1" fill="srgba(99.2721%,92.2774%,92.8527%,1)"/>
  <circle cx="10" cy="9" r="1" fill="srgba(99.8138%,98.0224%,98.172%,1)"/>
  <circle cx="11" cy="9" r="1" fill="srgba(97.1435%,69.6849%,71.9142%,1)"/>
  <circle cx="12" cy="9" r="1" fill="srgba(90.8888%,3.22271%,10.4005%,1)"/>
  <circle cx="13" cy="9" r="1" fill="srgba(90.5669%,0%,7.24498%,1)"/>
  <circle cx="14" cy="9" r="1" fill="srgba(90.5882%,0%,7.44945%,1)"/>
  <circle cx="15" cy="9" r="1" fill="srgba(90.5882%,0.030518%,7.4815%,1)"/>
  <circle cx="0" cy="10" r="1" fill="srgba(231,0,19,1)"/>
  <circle cx="1" cy="10" r="1" fill="srgba(231,0,19,1)"/>
  <circle cx="2" cy="10" r="1" fill="srgba(90.5882%,0%,7.45556%,1)"/>
  <circle cx="3" cy="10" r="1" fill="srgba(90.4891%,0%,6.47745%,1)"/>
  <circle cx="4" cy="10" r="1" fill="srgba(92.7276%,22.9648%,28.4886%,1)"/>
  <circle cx="5" cy="10" r="1" fill="srgba(98.7945%,87.1794%,88.1422%,1)"/>
  <circle cx="6" cy="10" r="1" fill="srgba(97.8073%,76.7041%,78.4405%,1)"/>
  <circle cx="7" cy="10" r="1" fill="srgba(95.2514%,49.5476%,53.3059%,1)"/>
  <circle cx="8" cy="10" r="1" fill="srgba(97.5692%,74.1665%,76.0906%,1)"/>
  <circle cx="9" cy="10" r="1" fill="srgba(99.9496%,99.4629%,99.5026%,1)"/>
  <circle cx="10" cy="10" r="1" fill="srgba(98.9624%,88.9631%,89.7932%,1)"/>
  <circle cx="11" cy="10" r="1" fill="srgba(92.961%,25.4246%,30.779%,1)"/>
  <circle cx="12" cy="10" r="1" fill="srgba(90.4875%,0%,6.46677%,1)"/>
  <circle cx="13" cy="10" r="1" fill="srgba(90.5882%,0%,7.45556%,1)"/>
  <circle cx="14" cy="10" r="1" fill="srgba(90.5882%,0%,7.44945%,1)"/>
  <circle cx="15" cy="10" r="1" fill="srgba(90.5882%,0.030518%,7.4815%,1)"/>
  <circle cx="0" cy="11" r="1" fill="srgba(231,0,19,1)"/>
  <circle cx="1" cy="11" r="1" fill="srgba(231,0,19,1)"/>
  <circle cx="2" cy="11" r="1" fill="srgba(231,0,19,1)"/>
  <circle cx="3" cy="11" r="1" fill="srgba(90.5852%,0%,7.42046%,1)"/>
  <circle cx="4" cy="11" r="1" fill="srgba(90.5455%,0.0534066%,7.02678%,1)"/>
  <circle cx="5" cy="11" r="1" fill="srgba(92.7428%,23.0488%,28.6442%,1)"/>
  <circle cx="6" cy="11" r="1" fill="srgba(97.023%,68.3558%,70.721%,1)"/>
  <circle cx="7" cy="11" r="1" fill="srgba(98.7533%,86.7582%,87.7455%,1)"/>
  <circle cx="8" cy="11" r="1" fill="srgba(98.6786%,85.9648%,87.0115%,1)"/>
  <circle cx="9" cy="11" r="1" fill="srgba(97.0397%,68.5481%,70.898%,1)"/>
  <circle cx="10" cy="11" r="1" fill="srgba(92.9107%,24.8066%,30.2907%,1)"/>
  <circle cx="11" cy="11" r="1" fill="srgba(90.5623%,0.257877%,7.20226%,1)"/>
  <circle cx="12" cy="11" r="1" fill="srgba(90.5837%,0%,7.40215%,1)"/>
  <circle cx="13" cy="11" r="1" fill="srgba(231,0,19,1)"/>
  <circle cx="14" cy="11" r="1" fill="srgba(90.5882%,0%,7.44945%,1)"/>
  <circle cx="15" cy="11" r="1" fill="srgba(90.5882%,0.030518%,7.4815%,1)"/>
  <circle cx="0" cy="12" r="1" fill="srgba(231,0,19,1)"/>
  <circle cx="1" cy="12" r="1" fill="srgba(231,0,19,1)"/>
  <circle cx="2" cy="12" r="1" fill="srgba(231,0,19,1)"/>
  <circle cx="3" cy="12" r="1" fill="srgba(90.5882%,0%,7.45251%,1)"/>
  <circle cx="4" cy="12" r="1" fill="srgba(90.5852%,0%,7.41894%,1)"/>
  <circle cx="5" cy="12" r="1" fill="srgba(90.4891%,0%,6.47898%,1)"/>
  <circle cx="6" cy="12" r="1" fill="srgba(90.8095%,2.72831%,9.62234%,1)"/>
  <circle cx="7" cy="12" r="1" fill="srgba(91.6243%,10.9895%,17.6425%,1)"/>
  <circle cx="8" cy="12" r="1" fill="srgba(91.6487%,11.2398%,17.8714%,1)"/>
  <circle cx="9" cy="12" r="1" fill="srgba(90.84%,3.01823%,9.93057%,1)"/>
  <circle cx="10" cy="12" r="1" fill="srgba(90.4875%,0%,6.45762%,1)"/>
  <circle cx="11" cy="12" r="1" fill="srgba(90.5837%,0%,7.40368%,1)"/>
  <circle cx="12" cy="12" r="1" fill="srgba(90.5882%,0%,7.45403%,1)"/>
  <circle cx="13" cy="12" r="1" fill="srgba(231,0,19,1)"/>
  <circle cx="14" cy="12" r="1" fill="srgba(90.5882%,0%,7.44945%,1)"/>
  <circle cx="15" cy="12" r="1" fill="srgba(90.5882%,0.030518%,7.4815%,1)"/>
  <circle cx="0" cy="13" r="1" fill="srgba(231,0,19,1)"/>
  <circle cx="1" cy="13" r="1" fill="srgba(231,0,19,1)"/>
  <circle cx="2" cy="13" r="1" fill="srgba(231,0,19,1)"/>
  <circle cx="3" cy="13" r="1" fill="srgba(231,0,19,1)"/>
  <circle cx="4" cy="13" r="1" fill="srgba(231,0,19,1)"/>
  <circle cx="5" cy="13" r="1" fill="srgba(90.5882%,0%,7.45556%,1)"/>
  <circle cx="6" cy="13" r="1" fill="srgba(90.5715%,0%,7.28923%,1)"/>
  <circle cx="7" cy="13" r="1" fill="srgba(90.5211%,0%,6.79637%,1)"/>
  <circle cx="8" cy="13" r="1" fill="srgba(90.5196%,0%,6.78111%,1)"/>
  <circle cx="9" cy="13" r="1" fill="srgba(90.5699%,0%,7.27245%,1)"/>
  <circle cx="10" cy="13" r="1" fill="srgba(90.5882%,0%,7.45556%,1)"/>
  <circle cx="11" cy="13" r="1" fill="srgba(231,0,19,1)"/>
  <circle cx="12" cy="13" r="1" fill="srgba(231,0,19,1)"/>
  <circle cx="13" cy="13" r="1" fill="srgba(231,0,19,1)"/>
  <circle cx="14" cy="13" r="1" fill="srgba(90.5882%,0%,7.44945%,1)"/>
  <circle cx="15" cy="13" r="1" fill="srgba(90.5882%,0.030518%,7.4815%,1)"/>
  <circle cx="0" cy="14" r="1" fill="srgba(90.5867%,0%,7.44335%,1)"/>
  <circle cx="1" cy="14" r="1" fill="srgba(90.5867%,0%,7.44335%,1)"/>
  <circle cx="2" cy="14" r="1" fill="srgba(90.5867%,0%,7.44335%,1)"/>
  <circle cx="3" cy="14" r="1" fill="srgba(90.5867%,0%,7.44335%,1)"/>
  <circle cx="4" cy="14" r="1" fill="srgba(90.5867%,0%,7.44335%,1)"/>
  <circle cx="5" cy="14" r="1" fill="srgba(90.5867%,0%,7.44335%,1)"/>
  <circle cx="6" cy="14" r="1" fill="srgba(90.5867%,0%,7.44335%,1)"/>
  <circle cx="7" cy="14" r="1" fill="srgba(90.5867%,0%,7.44335%,1)"/>
  <circle cx="8" cy="14" r="1" fill="srgba(90.5867%,0%,7.44335%,1)"/>
  <circle cx="9" cy="14" r="1" fill="srgba(90.5867%,0%,7.44335%,1)"/>
  <circle cx="10" cy="14" r="1" fill="srgba(90.5867%,0%,7.44335%,1)"/>
  <circle cx="11" cy="14" r="1" fill="srgba(90.5867%,0%,7.44335%,1)"/>
  <circle cx="12" cy="14" r="1" fill="srgba(90.5867%,0%,7.44335%,1)"/>
  <circle cx="13" cy="14" r="1" fill="srgba(90.5867%,0%,7.44335%,1)"/>
  <circle cx="14" cy="14" r="1" fill="srgba(90.5867%,0%,7.44182%,1)"/>
  <circle cx="15" cy="14" r="1" fill="srgba(90.5867%,0.030518%,7.47387%,1)"/>
  <circle cx="0" cy="15" r="1" fill="srgba(90.6035%,0.131228%,7.57458%,1)"/>
  <circle cx="1" cy="15" r="1" fill="srgba(90.6035%,0.131228%,7.57458%,1)"/>
  <circle cx="2" cy="15" r="1" fill="srgba(90.6035%,0.131228%,7.57458%,1)"/>
  <circle cx="3" cy="15" r="1" fill="srgba(90.6035%,0.131228%,7.57458%,1)"/>
  <circle cx="4" cy="15" r="1" fill="srgba(90.6035%,0.131228%,7.57458%,1)"/>
  <circle cx="5" cy="15" r="1" fill="srgba(90.6035%,0.131228%,7.57458%,1)"/>
  <circle cx="6" cy="15" r="1" fill="srgba(90.6035%,0.131228%,7.57458%,1)"/>
  <circle cx="7" cy="15" r="1" fill="srgba(90.6035%,0.131228%,7.57458%,1)"/>
  <circle cx="8" cy="15" r="1" fill="srgba(90.6035%,0.131228%,7.57458%,1)"/>
  <circle cx="9" cy="15" r="1" fill="srgba(90.6035%,0.131228%,7.57458%,1)"/>
  <circle cx="10" cy="15" r="1" fill="srgba(90.6035%,0.131228%,7.57458%,1)"/>
  <circle cx="11" cy="15" r="1" fill="srgba(90.6035%,0.131228%,7.57458%,1)"/>
  <circle cx="12" cy="15" r="1" fill="srgba(90.6035%,0.131228%,7.57458%,1)"/>
  <circle cx="13" cy="15" r="1" fill="srgba(90.6035%,0.131228%,7.57458%,1)"/>
  <circle cx="14" cy="15" r="1" fill="srgba(90.6035%,0.129702%,7.57305%,1)"/>
  <circle cx="15" cy="15" r="1" fill="srgba(90.6035%,0.161746%,7.6051%,1)"/>
</svg>
