<?xml version="1.0" standalone="no"?>
<!DOCTYPE svg PUBLIC "-//W3C//DTD SVG 20010904//EN"
  "http://www.w3.org/TR/2001/REC-SVG-20010904/DTD/svg10.dtd">
<svg width="16" height="16">
  <circle cx="0" cy="0" r="1" fill="white"/>
  <circle cx="1" cy="0" r="1" fill="white"/>
  <circle cx="2" cy="0" r="1" fill="srgba(98.5107%,93.8689%,93.8689%,1)"/>
  <circle cx="3" cy="0" r="1" fill="srgba(95.4574%,81.3001%,81.3001%,1)"/>
  <circle cx="4" cy="0" r="1" fill="srgba(99.5727%,98.2437%,98.2437%,1)"/>
  <circle cx="5" cy="0" r="1" fill="white"/>
  <circle cx="6" cy="0" r="1" fill="srgba(94.3374%,76.7178%,76.7178%,1)"/>
  <circle cx="7" cy="0" r="1" fill="srgba(76.7453%,4.36103%,4.36103%,1)"/>
  <circle cx="8" cy="0" r="1" fill="srgba(75.6207%,0%,0%,1)"/>
  <circle cx="9" cy="0" r="1" fill="srgba(193,0,0,1)"/>
  <circle cx="10" cy="0" r="1" fill="srgba(193,0,0,1)"/>
  <circle cx="11" cy="0" r="1" fill="srgba(193,0,0,1)"/>
  <circle cx="12" cy="0" r="1" fill="srgba(193,0,0,1)"/>
  <circle cx="13" cy="0" r="1" fill="srgba(193,0,0,1)"/>
  <circle cx="14" cy="0" r="1" fill="srgba(193,0,0,1)"/>
  <circle cx="15" cy="0" r="1" fill="srgba(193,0,0,1)"/>
  <circle cx="0" cy="1" r="1" fill="white"/>
  <circle cx="1" cy="1" r="1" fill="srgba(99.8825%,99.5163%,99.5163%,1)"/>
  <circle cx="2" cy="1" r="1" fill="srgba(93.5714%,73.5378%,73.5378%,1)"/>
  <circle cx="3" cy="1" r="1" fill="srgba(82.0706%,26.2394%,26.2394%,1)"/>
  <circle cx="4" cy="1" r="1" fill="srgba(97.6074%,90.1518%,90.1518%,1)"/>
  <circle cx="5" cy="1" r="1" fill="white"/>
  <circle cx="6" cy="1" r="1" fill="srgba(94.3496%,76.7712%,76.7712%,1)"/>
  <circle cx="7" cy="1" r="1" fill="srgba(76.7453%,4.36103%,4.36103%,1)"/>
  <circle cx="8" cy="1" r="1" fill="srgba(75.6207%,0%,0%,1)"/>
  <circle cx="9" cy="1" r="1" fill="srgba(193,0,0,1)"/>
  <circle cx="10" cy="1" r="1" fill="srgba(193,0,0,1)"/>
  <circle cx="11" cy="1" r="1" fill="srgba(193,0,0,1)"/>
  <circle cx="12" cy="1" r="1" fill="srgba(193,0,0,1)"/>
  <circle cx="13" cy="1" r="1" fill="srgba(193,0,0,1)"/>
  <circle cx="14" cy="1" r="1" fill="srgba(193,0,0,1)"/>
  <circle cx="15" cy="1" r="1" fill="srgba(193,0,0,1)"/>
  <circle cx="0" cy="2" r="1" fill="white"/>
  <circle cx="1" cy="2" r="1" fill="srgba(90.4509%,60.7202%,60.7202%,1)"/>
  <circle cx="2" cy="2" r="1" fill="srgba(80.2609%,18.8907%,18.8907%,1)"/>
  <circle cx="3" cy="2" r="1" fill="srgba(77.055%,5.88083%,5.88083%,1)"/>
  <circle cx="4" cy="2" r="1" fill="srgba(82.1286%,26.5095%,26.5095%,1)"/>
  <circle cx="5" cy="2" r="1" fill="srgba(95.1965%,80.2487%,80.2487%,1)"/>
  <circle cx="6" cy="2" r="1" fill="srgba(94.6258%,77.9034%,77.9034%,1)"/>
  <circle cx="7" cy="2" r="1" fill="srgba(76.7453%,4.36103%,4.36103%,1)"/>
  <circle cx="8" cy="2" r="1" fill="srgba(75.6207%,0%,0%,1)"/>
  <circle cx="9" cy="2" r="1" fill="srgba(193,0,0,1)"/>
  <circle cx="10" cy="2" r="1" fill="srgba(193,0,0,1)"/>
  <circle cx="11" cy="2" r="1" fill="srgba(193,0,0,1)"/>
  <circle cx="12" cy="2" r="1" fill="srgba(193,0,0,1)"/>
  <circle cx="13" cy="2" r="1" fill="srgba(193,0,0,1)"/>
  <circle cx="14" cy="2" r="1" fill="srgba(193,0,0,1)"/>
  <circle cx="15" cy="2" r="1" fill="srgba(193,0,0,1)"/>
  <circle cx="0" cy="3" r="1" fill="white"/>
  <circle cx="1" cy="3" r="1" fill="srgba(95.7122%,82.3407%,82.3407%,1)"/>
  <circle cx="2" cy="3" r="1" fill="srgba(87.3503%,48.394%,48.394%,1)"/>
  <circle cx="3" cy="3" r="1" fill="srgba(78.8937%,14.5129%,14.5129%,1)"/>
  <circle cx="4" cy="3" r="1" fill="srgba(90.6447%,61.6297%,61.6297%,1)"/>
  <circle cx="5" cy="3" r="1" fill="srgba(97.9889%,91.7205%,91.7205%,1)"/>
  <circle cx="6" cy="3" r="1" fill="srgba(94.4732%,77.2732%,77.2732%,1)"/>
  <circle cx="7" cy="3" r="1" fill="srgba(76.7453%,4.36103%,4.36103%,1)"/>
  <circle cx="8" cy="3" r="1" fill="srgba(75.6207%,0%,0%,1)"/>
  <circle cx="9" cy="3" r="1" fill="srgba(193,0,0,1)"/>
  <circle cx="10" cy="3" r="1" fill="srgba(193,0,0,1)"/>
  <circle cx="11" cy="3" r="1" fill="srgba(193,0,0,1)"/>
  <circle cx="12" cy="3" r="1" fill="srgba(193,0,0,1)"/>
  <circle cx="13" cy="3" r="1" fill="srgba(193,0,0,1)"/>
  <circle cx="14" cy="3" r="1" fill="srgba(193,0,0,1)"/>
  <circle cx="15" cy="3" r="1" fill="srgba(193,0,0,1)"/>
  <circle cx="0" cy="4" r="1" fill="white"/>
  <circle cx="1" cy="4" r="1" fill="white"/>
  <circle cx="2" cy="4" r="1" fill="srgba(96.1135%,84.004%,84.004%,1)"/>
  <circle cx="3" cy="4" r="1" fill="srgba(88.1132%,51.1131%,51.1131%,1)"/>
  <circle cx="4" cy="4" r="1" fill="srgba(98.8861%,95.4147%,95.4147%,1)"/>
  <circle cx="5" cy="4" r="1" fill="white"/>
  <circle cx="6" cy="4" r="1" fill="srgba(94.3389%,76.7254%,76.7254%,1)"/>
  <circle cx="7" cy="4" r="1" fill="srgba(76.7468%,4.36408%,4.36408%,1)"/>
  <circle cx="8" cy="4" r="1" fill="srgba(75.6207%,0%,0%,1)"/>
  <circle cx="9" cy="4" r="1" fill="srgba(193,0,0,1)"/>
  <circle cx="10" cy="4" r="1" fill="srgba(193,0,0,1)"/>
  <circle cx="11" cy="4" r="1" fill="srgba(193,0,0,1)"/>
  <circle cx="12" cy="4" r="1" fill="srgba(193,0,0,1)"/>
  <circle cx="13" cy="4" r="1" fill="srgba(193,0,0,1)"/>
  <circle cx="14" cy="4" r="1" fill="srgba(193,0,0,1)"/>
  <circle cx="15" cy="4" r="1" fill="srgba(193,0,0,1)"/>
  <circle cx="0" cy="5" r="1" fill="srgba(87.1458%,47.126%,47.126%,1)"/>
  <circle cx="1" cy="5" r="1" fill="srgba(87.1473%,47.1305%,47.1305%,1)"/>
  <circle cx="2" cy="5" r="1" fill="srgba(87.1244%,47.0375%,47.0375%,1)"/>
  <circle cx="3" cy="5" r="1" fill="srgba(87.0802%,46.8559%,46.8559%,1)"/>
  <circle cx="4" cy="5" r="1" fill="srgba(87.1397%,47.1%,47.1%,1)"/>
  <circle cx="5" cy="5" r="1" fill="srgba(87.3075%,47.7913%,47.7913%,1)"/>
  <circle cx="6" cy="5" r="1" fill="srgba(84.477%,36.1532%,36.1532%,1)"/>
  <circle cx="7" cy="5" r="1" fill="srgba(76.1852%,2.05539%,2.05539%,1)"/>
  <circle cx="8" cy="5" r="1" fill="srgba(75.6558%,0%,0%,1)"/>
  <circle cx="9" cy="5" r="1" fill="srgba(193,0,0,1)"/>
  <circle cx="10" cy="5" r="1" fill="srgba(193,0,0,1)"/>
  <circle cx="11" cy="5" r="1" fill="srgba(193,0,0,1)"/>
  <circle cx="12" cy="5" r="1" fill="srgba(193,0,0,1)"/>
  <circle cx="13" cy="5" r="1" fill="srgba(193,0,0,1)"/>
  <circle cx="14" cy="5" r="1" fill="srgba(193,0,0,1)"/>
  <circle cx="15" cy="5" r="1" fill="srgba(193,0,0,1)"/>
  <circle cx="0" cy="6" r="1" fill="srgba(75.3109%,0%,0%,1)"/>
  <circle cx="1" cy="6" r="1" fill="srgba(75.3109%,0%,0%,1)"/>
  <circle cx="2" cy="6" r="1" fill="srgba(75.314%,0%,0%,1)"/>
  <circle cx="3" cy="6" r="1" fill="srgba(75.3185%,0%,0%,1)"/>
  <circle cx="4" cy="6" r="1" fill="srgba(75.3109%,0%,0%,1)"/>
  <circle cx="5" cy="6" r="1" fill="srgba(75.3063%,0%,0%,1)"/>
  <circle cx="6" cy="6" r="1" fill="srgba(75.3979%,0%,0%,1)"/>
  <circle cx="7" cy="6" r="1" fill="srgba(75.6695%,0%,0%,1)"/>
  <circle cx="8" cy="6" r="1" fill="srgba(75.6878%,0%,0%,1)"/>
  <circle cx="9" cy="6" r="1" fill="srgba(193,0,0,1)"/>
  <circle cx="10" cy="6" r="1" fill="srgba(193,0,0,1)"/>
  <circle cx="11" cy="6" r="1" fill="srgba(193,0,0,1)"/>
  <circle cx="12" cy="6" r="1" fill="srgba(193,0,0,1)"/>
  <circle cx="13" cy="6" r="1" fill="srgba(193,0,0,1)"/>
  <circle cx="14" cy="6" r="1" fill="srgba(193,0,0,1)"/>
  <circle cx="15" cy="6" r="1" fill="srgba(193,0,0,1)"/>
  <circle cx="0" cy="7" r="1" fill="srgba(193,0,0,1)"/>
  <circle cx="1" cy="7" r="1" fill="srgba(193,0,0,1)"/>
  <circle cx="2" cy="7" r="1" fill="srgba(193,0,0,1)"/>
  <circle cx="3" cy="7" r="1" fill="srgba(193,0,0,1)"/>
  <circle cx="4" cy="7" r="1" fill="srgba(193,0,0,1)"/>
  <circle cx="5" cy="7" r="1" fill="srgba(193,0,0,1)"/>
  <circle cx="6" cy="7" r="1" fill="srgba(193,0,0,1)"/>
  <circle cx="7" cy="7" r="1" fill="srgba(193,0,0,1)"/>
  <circle cx="8" cy="7" r="1" fill="srgba(193,0,0,1)"/>
  <circle cx="9" cy="7" r="1" fill="srgba(193,0,0,1)"/>
  <circle cx="10" cy="7" r="1" fill="srgba(193,0,0,1)"/>
  <circle cx="11" cy="7" r="1" fill="srgba(193,0,0,1)"/>
  <circle cx="12" cy="7" r="1" fill="srgba(193,0,0,1)"/>
  <circle cx="13" cy="7" r="1" fill="srgba(193,0,0,1)"/>
  <circle cx="14" cy="7" r="1" fill="srgba(193,0,0,1)"/>
  <circle cx="15" cy="7" r="1" fill="srgba(193,0,0,1)"/>
  <circle cx="0" cy="8" r="1" fill="srgba(193,0,0,1)"/>
  <circle cx="1" cy="8" r="1" fill="srgba(193,0,0,1)"/>
  <circle cx="2" cy="8" r="1" fill="srgba(193,0,0,1)"/>
  <circle cx="3" cy="8" r="1" fill="srgba(193,0,0,1)"/>
  <circle cx="4" cy="8" r="1" fill="srgba(193,0,0,1)"/>
  <circle cx="5" cy="8" r="1" fill="srgba(193,0,0,1)"/>
  <circle cx="6" cy="8" r="1" fill="srgba(193,0,0,1)"/>
  <circle cx="7" cy="8" r="1" fill="srgba(193,0,0,1)"/>
  <circle cx="8" cy="8" r="1" fill="srgba(193,0,0,1)"/>
  <circle cx="9" cy="8" r="1" fill="srgba(193,0,0,1)"/>
  <circle cx="10" cy="8" r="1" fill="srgba(193,0,0,1)"/>
  <circle cx="11" cy="8" r="1" fill="srgba(193,0,0,1)"/>
  <circle cx="12" cy="8" r="1" fill="srgba(193,0,0,1)"/>
  <circle cx="13" cy="8" r="1" fill="srgba(193,0,0,1)"/>
  <circle cx="14" cy="8" r="1" fill="srgba(193,0,0,1)"/>
  <circle cx="15" cy="8" r="1" fill="srgba(193,0,0,1)"/>
  <circle cx="0" cy="9" r="1" fill="srgba(193,0,0,1)"/>
  <circle cx="1" cy="9" r="1" fill="srgba(193,0,0,1)"/>
  <circle cx="2" cy="9" r="1" fill="srgba(193,0,0,1)"/>
  <circle cx="3" cy="9" r="1" fill="srgba(193,0,0,1)"/>
  <circle cx="4" cy="9" r="1" fill="srgba(193,0,0,1)"/>
  <circle cx="5" cy="9" r="1" fill="srgba(193,0,0,1)"/>
  <circle cx="6" cy="9" r="1" fill="srgba(193,0,0,1)"/>
  <circle cx="7" cy="9" r="1" fill="srgba(193,0,0,1)"/>
  <circle cx="8" cy="9" r="1" fill="srgba(193,0,0,1)"/>
  <circle cx="9" cy="9" r="1" fill="srgba(193,0,0,1)"/>
  <circle cx="10" cy="9" r="1" fill="srgba(193,0,0,1)"/>
  <circle cx="11" cy="9" r="1" fill="srgba(193,0,0,1)"/>
  <circle cx="12" cy="9" r="1" fill="srgba(193,0,0,1)"/>
  <circle cx="13" cy="9" r="1" fill="srgba(193,0,0,1)"/>
  <circle cx="14" cy="9" r="1" fill="srgba(193,0,0,1)"/>
  <circle cx="15" cy="9" r="1" fill="srgba(193,0,0,1)"/>
  <circle cx="0" cy="10" r="1" fill="srgba(193,0,0,1)"/>
  <circle cx="1" cy="10" r="1" fill="srgba(193,0,0,1)"/>
  <circle cx="2" cy="10" r="1" fill="srgba(193,0,0,1)"/>
  <circle cx="3" cy="10" r="1" fill="srgba(193,0,0,1)"/>
  <circle cx="4" cy="10" r="1" fill="srgba(193,0,0,1)"/>
  <circle cx="5" cy="10" r="1" fill="srgba(193,0,0,1)"/>
  <circle cx="6" cy="10" r="1" fill="srgba(193,0,0,1)"/>
  <circle cx="7" cy="10" r="1" fill="srgba(193,0,0,1)"/>
  <circle cx="8" cy="10" r="1" fill="srgba(193,0,0,1)"/>
  <circle cx="9" cy="10" r="1" fill="srgba(193,0,0,1)"/>
  <circle cx="10" cy="10" r="1" fill="srgba(193,0,0,1)"/>
  <circle cx="11" cy="10" r="1" fill="srgba(193,0,0,1)"/>
  <circle cx="12" cy="10" r="1" fill="srgba(193,0,0,1)"/>
  <circle cx="13" cy="10" r="1" fill="srgba(193,0,0,1)"/>
  <circle cx="14" cy="10" r="1" fill="srgba(193,0,0,1)"/>
  <circle cx="15" cy="10" r="1" fill="srgba(193,0,0,1)"/>
  <circle cx="0" cy="11" r="1" fill="srgba(193,0,0,1)"/>
  <circle cx="1" cy="11" r="1" fill="srgba(193,0,0,1)"/>
  <circle cx="2" cy="11" r="1" fill="srgba(193,0,0,1)"/>
  <circle cx="3" cy="11" r="1" fill="srgba(193,0,0,1)"/>
  <circle cx="4" cy="11" r="1" fill="srgba(193,0,0,1)"/>
  <circle cx="5" cy="11" r="1" fill="srgba(193,0,0,1)"/>
  <circle cx="6" cy="11" r="1" fill="srgba(193,0,0,1)"/>
  <circle cx="7" cy="11" r="1" fill="srgba(193,0,0,1)"/>
  <circle cx="8" cy="11" r="1" fill="srgba(193,0,0,1)"/>
  <circle cx="9" cy="11" r="1" fill="srgba(193,0,0,1)"/>
  <circle cx="10" cy="11" r="1" fill="srgba(193,0,0,1)"/>
  <circle cx="11" cy="11" r="1" fill="srgba(193,0,0,1)"/>
  <circle cx="12" cy="11" r="1" fill="srgba(193,0,0,1)"/>
  <circle cx="13" cy="11" r="1" fill="srgba(193,0,0,1)"/>
  <circle cx="14" cy="11" r="1" fill="srgba(193,0,0,1)"/>
  <circle cx="15" cy="11" r="1" fill="srgba(193,0,0,1)"/>
  <circle cx="0" cy="12" r="1" fill="srgba(193,0,0,1)"/>
  <circle cx="1" cy="12" r="1" fill="srgba(193,0,0,1)"/>
  <circle cx="2" cy="12" r="1" fill="srgba(193,0,0,1)"/>
  <circle cx="3" cy="12" r="1" fill="srgba(193,0,0,1)"/>
  <circle cx="4" cy="12" r="1" fill="srgba(193,0,0,1)"/>
  <circle cx="5" cy="12" r="1" fill="srgba(193,0,0,1)"/>
  <circle cx="6" cy="12" r="1" fill="srgba(193,0,0,1)"/>
  <circle cx="7" cy="12" r="1" fill="srgba(193,0,0,1)"/>
  <circle cx="8" cy="12" r="1" fill="srgba(193,0,0,1)"/>
  <circle cx="9" cy="12" r="1" fill="srgba(193,0,0,1)"/>
  <circle cx="10" cy="12" r="1" fill="srgba(193,0,0,1)"/>
  <circle cx="11" cy="12" r="1" fill="srgba(193,0,0,1)"/>
  <circle cx="12" cy="12" r="1" fill="srgba(193,0,0,1)"/>
  <circle cx="13" cy="12" r="1" fill="srgba(193,0,0,1)"/>
  <circle cx="14" cy="12" r="1" fill="srgba(193,0,0,1)"/>
  <circle cx="15" cy="12" r="1" fill="srgba(193,0,0,1)"/>
  <circle cx="0" cy="13" r="1" fill="srgba(193,0,0,1)"/>
  <circle cx="1" cy="13" r="1" fill="srgba(193,0,0,1)"/>
  <circle cx="2" cy="13" r="1" fill="srgba(193,0,0,1)"/>
  <circle cx="3" cy="13" r="1" fill="srgba(193,0,0,1)"/>
  <circle cx="4" cy="13" r="1" fill="srgba(193,0,0,1)"/>
  <circle cx="5" cy="13" r="1" fill="srgba(193,0,0,1)"/>
  <circle cx="6" cy="13" r="1" fill="srgba(193,0,0,1)"/>
  <circle cx="7" cy="13" r="1" fill="srgba(193,0,0,1)"/>
  <circle cx="8" cy="13" r="1" fill="srgba(193,0,0,1)"/>
  <circle cx="9" cy="13" r="1" fill="srgba(193,0,0,1)"/>
  <circle cx="10" cy="13" r="1" fill="srgba(193,0,0,1)"/>
  <circle cx="11" cy="13" r="1" fill="srgba(193,0,0,1)"/>
  <circle cx="12" cy="13" r="1" fill="srgba(193,0,0,1)"/>
  <circle cx="13" cy="13" r="1" fill="srgba(193,0,0,1)"/>
  <circle cx="14" cy="13" r="1" fill="srgba(193,0,0,1)"/>
  <circle cx="15" cy="13" r="1" fill="srgba(193,0,0,1)"/>
  <circle cx="0" cy="14" r="1" fill="srgba(193,0,0,1)"/>
  <circle cx="1" cy="14" r="1" fill="srgba(193,0,0,1)"/>
  <circle cx="2" cy="14" r="1" fill="srgba(193,0,0,1)"/>
  <circle cx="3" cy="14" r="1" fill="srgba(193,0,0,1)"/>
  <circle cx="4" cy="14" r="1" fill="srgba(193,0,0,1)"/>
  <circle cx="5" cy="14" r="1" fill="srgba(193,0,0,1)"/>
  <circle cx="6" cy="14" r="1" fill="srgba(193,0,0,1)"/>
  <circle cx="7" cy="14" r="1" fill="srgba(193,0,0,1)"/>
  <circle cx="8" cy="14" r="1" fill="srgba(193,0,0,1)"/>
  <circle cx="9" cy="14" r="1" fill="srgba(193,0,0,1)"/>
  <circle cx="10" cy="14" r="1" fill="srgba(193,0,0,1)"/>
  <circle cx="11" cy="14" r="1" fill="srgba(193,0,0,1)"/>
  <circle cx="12" cy="14" r="1" fill="srgba(193,0,0,1)"/>
  <circle cx="13" cy="14" r="1" fill="srgba(193,0,0,1)"/>
  <circle cx="14" cy="14" r="1" fill="srgba(193,0,0,1)"/>
  <circle cx="15" cy="14" r="1" fill="srgba(193,0,0,1)"/>
  <circle cx="0" cy="15" r="1" fill="srgba(193,0,0,1)"/>
  <circle cx="1" cy="15" r="1" fill="srgba(193,0,0,1)"/>
  <circle cx="2" cy="15" r="1" fill="srgba(193,0,0,1)"/>
  <circle cx="3" cy="15" r="1" fill="srgba(193,0,0,1)"/>
  <circle cx="4" cy="15" r="1" fill="srgba(193,0,0,1)"/>
  <circle cx="5" cy="15" r="1" fill="srgba(193,0,0,1)"/>
  <circle cx="6" cy="15" r="1" fill="srgba(193,0,0,1)"/>
  <circle cx="7" cy="15" r="1" fill="srgba(193,0,0,1)"/>
  <circle cx="8" cy="15" r="1" fill="srgba(193,0,0,1)"/>
  <circle cx="9" cy="15" r="1" fill="srgba(193,0,0,1)"/>
  <circle cx="10" cy="15" r="1" fill="srgba(193,0,0,1)"/>
  <circle cx="11" cy="15" r="1" fill="srgba(193,0,0,1)"/>
  <circle cx="12" cy="15" r="1" fill="srgba(193,0,0,1)"/>
  <circle cx="13" cy="15" r="1" fill="srgba(193,0,0,1)"/>
  <circle cx="14" cy="15" r="1" fill="srgba(193,0,0,1)"/>
  <circle cx="15" cy="15" r="1" fill="srgba(193,0,0,1)"/>
</svg>
