<?xml version="1.0" standalone="no"?>
<!DOCTYPE svg PUBLIC "-//W3C//DTD SVG 20010904//EN"
  "http://www.w3.org/TR/2001/REC-SVG-20010904/DTD/svg10.dtd">
<svg width="16" height="16">
  <circle cx="0" cy="0" r="1" fill="srgba(243,25,48,1)"/>
  <circle cx="1" cy="0" r="1" fill="srgba(243,25,48,1)"/>
  <circle cx="2" cy="0" r="1" fill="srgba(243,25,48,1)"/>
  <circle cx="3" cy="0" r="1" fill="srgba(243,25,48,1)"/>
  <circle cx="4" cy="0" r="1" fill="srgba(243,25,48,1)"/>
  <circle cx="5" cy="0" r="1" fill="srgba(243,25,48,1)"/>
  <circle cx="6" cy="0" r="1" fill="srgba(243,25,48,1)"/>
  <circle cx="7" cy="0" r="1" fill="srgba(243,25,48,1)"/>
  <circle cx="8" cy="0" r="1" fill="srgba(243,25,48,1)"/>
  <circle cx="9" cy="0" r="1" fill="srgba(243,25,48,1)"/>
  <circle cx="10" cy="0" r="1" fill="srgba(243,25,48,1)"/>
  <circle cx="11" cy="0" r="1" fill="srgba(243,25,48,1)"/>
  <circle cx="12" cy="0" r="1" fill="srgba(243,25,48,1)"/>
  <circle cx="13" cy="0" r="1" fill="srgba(243,25,48,1)"/>
  <circle cx="14" cy="0" r="1" fill="srgba(243,25,48,1)"/>
  <circle cx="15" cy="0" r="1" fill="srgba(243,25,48,1)"/>
  <circle cx="0" cy="1" r="1" fill="srgba(243,25,48,1)"/>
  <circle cx="1" cy="1" r="1" fill="srgba(243,25,48,1)"/>
  <circle cx="2" cy="1" r="1" fill="srgba(243,25,48,1)"/>
  <circle cx="3" cy="1" r="1" fill="srgba(243,25,48,1)"/>
  <circle cx="4" cy="1" r="1" fill="srgba(243,25,48,1)"/>
  <circle cx="5" cy="1" r="1" fill="srgba(243,25,48,1)"/>
  <circle cx="6" cy="1" r="1" fill="srgba(243,25,48,1)"/>
  <circle cx="7" cy="1" r="1" fill="srgba(243,25,48,1)"/>
  <circle cx="8" cy="1" r="1" fill="srgba(243,25,48,1)"/>
  <circle cx="9" cy="1" r="1" fill="srgba(243,25,48,1)"/>
  <circle cx="10" cy="1" r="1" fill="srgba(243,25,48,1)"/>
  <circle cx="11" cy="1" r="1" fill="srgba(243,25,48,1)"/>
  <circle cx="12" cy="1" r="1" fill="srgba(243,25,48,1)"/>
  <circle cx="13" cy="1" r="1" fill="srgba(243,25,48,1)"/>
  <circle cx="14" cy="1" r="1" fill="srgba(243,25,48,1)"/>
  <circle cx="15" cy="1" r="1" fill="srgba(243,25,48,1)"/>
  <circle cx="0" cy="2" r="1" fill="srgba(243,25,48,1)"/>
  <circle cx="1" cy="2" r="1" fill="srgba(243,25,48,1)"/>
  <circle cx="2" cy="2" r="1" fill="srgba(243,25,48,1)"/>
  <circle cx="3" cy="2" r="1" fill="srgba(243,25,48,1)"/>
  <circle cx="4" cy="2" r="1" fill="srgba(243,25,48,1)"/>
  <circle cx="5" cy="2" r="1" fill="srgba(95.2941%,9.79324%,18.8128%,1)"/>
  <circle cx="6" cy="2" r="1" fill="srgba(95.2895%,9.71695%,18.7457%,1)"/>
  <circle cx="7" cy="2" r="1" fill="srgba(95.2911%,9.74289%,18.7686%,1)"/>
  <circle cx="8" cy="2" r="1" fill="srgba(95.2941%,9.8024%,18.822%,1)"/>
  <circle cx="9" cy="2" r="1" fill="srgba(243,25,48,1)"/>
  <circle cx="10" cy="2" r="1" fill="srgba(243,25,48,1)"/>
  <circle cx="11" cy="2" r="1" fill="srgba(243,25,48,1)"/>
  <circle cx="12" cy="2" r="1" fill="srgba(243,25,48,1)"/>
  <circle cx="13" cy="2" r="1" fill="srgba(243,25,48,1)"/>
  <circle cx="14" cy="2" r="1" fill="srgba(243,25,48,1)"/>
  <circle cx="15" cy="2" r="1" fill="srgba(243,25,48,1)"/>
  <circle cx="0" cy="3" r="1" fill="srgba(243,25,48,1)"/>
  <circle cx="1" cy="3" r="1" fill="srgba(243,25,48,1)"/>
  <circle cx="2" cy="3" r="1" fill="srgba(95.2941%,9.80545%,18.8251%,1)"/>
  <circle cx="3" cy="3" r="1" fill="srgba(95.2941%,9.79934%,18.8205%,1)"/>
  <circle cx="4" cy="3" r="1" fill="srgba(95.2514%,8.99825%,18.0987%,1)"/>
  <circle cx="5" cy="3" r="1" fill="srgba(95.2514%,8.98299%,18.085%,1)"/>
  <circle cx="6" cy="3" r="1" fill="srgba(95.3689%,11.2413%,20.116%,1)"/>
  <circle cx="7" cy="3" r="1" fill="srgba(95.3536%,10.956%,19.8596%,1)"/>
  <circle cx="8" cy="3" r="1" fill="srgba(95.2499%,8.97078%,18.0728%,1)"/>
  <circle cx="9" cy="3" r="1" fill="srgba(95.2743%,9.42855%,18.4848%,1)"/>
  <circle cx="10" cy="3" r="1" fill="srgba(95.2956%,9.81918%,18.8373%,1)"/>
  <circle cx="11" cy="3" r="1" fill="srgba(243,25,48,1)"/>
  <circle cx="12" cy="3" r="1" fill="srgba(243,25,48,1)"/>
  <circle cx="13" cy="3" r="1" fill="srgba(243,25,48,1)"/>
  <circle cx="14" cy="3" r="1" fill="srgba(243,25,48,1)"/>
  <circle cx="15" cy="3" r="1" fill="srgba(243,25,48,1)"/>
  <circle cx="0" cy="4" r="1" fill="srgba(243,25,48,1)"/>
  <circle cx="1" cy="4" r="1" fill="srgba(243,25,48,1)"/>
  <circle cx="2" cy="4" r="1" fill="srgba(95.2926%,9.78408%,18.8067%,1)"/>
  <circle cx="3" cy="4" r="1" fill="srgba(95.2621%,9.17525%,18.2574%,1)"/>
  <circle cx="4" cy="4" r="1" fill="srgba(96.0189%,23.6881%,31.3191%,1)"/>
  <circle cx="5" cy="4" r="1" fill="srgba(97.7203%,56.2997%,60.6683%,1)"/>
  <circle cx="6" cy="4" r="1" fill="srgba(98.4863%,70.9743%,73.8811%,1)"/>
  <circle cx="7" cy="4" r="1" fill="srgba(98.0072%,61.7731%,65.6229%,1)"/>
  <circle cx="8" cy="4" r="1" fill="srgba(96.8704%,39.9664%,45.9922%,1)"/>
  <circle cx="9" cy="4" r="1" fill="srgba(95.61%,15.874%,24.2847%,1)"/>
  <circle cx="10" cy="4" r="1" fill="srgba(95.2804%,9.55825%,18.6007%,1)"/>
  <circle cx="11" cy="4" r="1" fill="srgba(243,25,48,1)"/>
  <circle cx="12" cy="4" r="1" fill="srgba(243,25,48,1)"/>
  <circle cx="13" cy="4" r="1" fill="srgba(243,25,48,1)"/>
  <circle cx="14" cy="4" r="1" fill="srgba(243,25,48,1)"/>
  <circle cx="15" cy="4" r="1" fill="srgba(243,25,48,1)"/>
  <circle cx="0" cy="5" r="1" fill="srgba(243,25,48,1)"/>
  <circle cx="1" cy="5" r="1" fill="srgba(95.2941%,9.81003%,18.8296%,1)"/>
  <circle cx="2" cy="5" r="1" fill="srgba(95.2483%,8.93874%,18.0453%,1)"/>
  <circle cx="3" cy="5" r="1" fill="srgba(96.3699%,30.4097%,37.3693%,1)"/>
  <circle cx="4" cy="5" r="1" fill="srgba(99.263%,85.8747%,87.2847%,1)"/>
  <circle cx="5" cy="5" r="1" fill="srgba(99.3439%,87.3686%,88.6854%,1)"/>
  <circle cx="6" cy="5" r="1" fill="srgba(97.2107%,46.302%,51.8868%,1)"/>
  <circle cx="7" cy="5" r="1" fill="srgba(96.1837%,26.5354%,34.1726%,1)"/>
  <circle cx="8" cy="5" r="1" fill="srgba(96.2356%,27.5181%,35.0484%,1)"/>
  <circle cx="9" cy="5" r="1" fill="srgba(96.1578%,26.1814%,33.7316%,1)"/>
  <circle cx="10" cy="5" r="1" fill="srgba(95.3964%,11.7464%,20.5921%,1)"/>
  <circle cx="11" cy="5" r="1" fill="srgba(95.2682%,9.31716%,18.3825%,1)"/>
  <circle cx="12" cy="5" r="1" fill="srgba(95.2789%,9.52468%,18.5718%,1)"/>
  <circle cx="13" cy="5" r="1" fill="srgba(95.2941%,9.79019%,18.8113%,1)"/>
  <circle cx="14" cy="5" r="1" fill="srgba(95.2941%,9.79324%,18.8144%,1)"/>
  <circle cx="15" cy="5" r="1" fill="srgba(243,25,48,1)"/>
  <circle cx="0" cy="6" r="1" fill="srgba(243,25,48,1)"/>
  <circle cx="1" cy="6" r="1" fill="srgba(95.2773%,9.47585%,18.5275%,1)"/>
  <circle cx="2" cy="6" r="1" fill="srgba(95.5489%,14.7097%,23.2395%,1)"/>
  <circle cx="3" cy="6" r="1" fill="srgba(98.761%,76.2676%,78.6389%,1)"/>
  <circle cx="4" cy="6" r="1" fill="srgba(99.6643%,93.5256%,94.2016%,1)"/>
  <circle cx="5" cy="6" r="1" fill="srgba(96.495%,32.5338%,39.5438%,1)"/>
  <circle cx="6" cy="6" r="1" fill="srgba(95.1995%,7.59594%,17.1969%,1)"/>
  <circle cx="7" cy="6" r="1" fill="srgba(95.2407%,8.36957%,17.8897%,1)"/>
  <circle cx="8" cy="6" r="1" fill="srgba(95.2392%,8.35126%,17.8729%,1)"/>
  <circle cx="9" cy="6" r="1" fill="srgba(95.317%,9.8436%,19.2126%,1)"/>
  <circle cx="10" cy="6" r="1" fill="srgba(95.2956%,9.60708%,18.8327%,1)"/>
  <circle cx="11" cy="6" r="1" fill="srgba(95.7794%,19.0875%,27.1809%,1)"/>
  <circle cx="12" cy="6" r="1" fill="srgba(95.5627%,14.9676%,23.4714%,1)"/>
  <circle cx="13" cy="6" r="1" fill="srgba(95.3063%,10.0465%,19.0417%,1)"/>
  <circle cx="14" cy="6" r="1" fill="srgba(95.3079%,10.0771%,19.0692%,1)"/>
  <circle cx="15" cy="6" r="1" fill="srgba(95.2926%,9.78714%,18.8083%,1)"/>
  <circle cx="0" cy="7" r="1" fill="srgba(243,25,48,1)"/>
  <circle cx="1" cy="7" r="1" fill="srgba(95.2346%,8.66712%,17.7996%,1)"/>
  <circle cx="2" cy="7" r="1" fill="srgba(96.2814%,28.7236%,35.8495%,1)"/>
  <circle cx="3" cy="7" r="1" fill="srgba(99.7894%,95.9792%,96.3745%,1)"/>
  <circle cx="4" cy="7" r="1" fill="srgba(98.5046%,71.2154%,74.2092%,1)"/>
  <circle cx="5" cy="7" r="1" fill="srgba(95.3552%,10.5974%,19.8856%,1)"/>
  <circle cx="6" cy="7" r="1" fill="srgba(95.2865%,9.27138%,18.6984%,1)"/>
  <circle cx="7" cy="7" r="1" fill="srgba(95.2941%,9.41329%,18.8251%,1)"/>
  <circle cx="8" cy="7" r="1" fill="srgba(95.2941%,9.41329%,18.8251%,1)"/>
  <circle cx="9" cy="7" r="1" fill="srgba(95.285%,9.24697%,18.6786%,1)"/>
  <circle cx="10" cy="7" r="1" fill="srgba(95.4574%,12.6085%,21.6419%,1)"/>
  <circle cx="11" cy="7" r="1" fill="srgba(97.351%,49.1783%,54.2947%,1)"/>
  <circle cx="12" cy="7" r="1" fill="srgba(98.2696%,66.8559%,70.1671%,1)"/>
  <circle cx="13" cy="7" r="1" fill="srgba(96.7483%,37.6745%,43.9078%,1)"/>
  <circle cx="14" cy="7" r="1" fill="srgba(95.346%,10.7988%,19.7177%,1)"/>
  <circle cx="15" cy="7" r="1" fill="srgba(95.2895%,9.71389%,18.7427%,1)"/>
  <circle cx="0" cy="8" r="1" fill="srgba(243,25,48,1)"/>
  <circle cx="1" cy="8" r="1" fill="srgba(95.2255%,8.47333%,17.6272%,1)"/>
  <circle cx="2" cy="8" r="1" fill="srgba(96.4843%,32.6253%,39.3622%,1)"/>
  <circle cx="3" cy="8" r="1" fill="srgba(99.9145%,98.3795%,98.5351%,1)"/>
  <circle cx="4" cy="8" r="1" fill="srgba(98.1827%,65.0065%,68.6427%,1)"/>
  <circle cx="5" cy="8" r="1" fill="srgba(95.2773%,9.07454%,18.5214%,1)"/>
  <circle cx="6" cy="8" r="1" fill="srgba(95.2941%,9.40261%,18.8159%,1)"/>
  <circle cx="7" cy="8" r="1" fill="srgba(243,24,48,1)"/>
  <circle cx="8" cy="8" r="1" fill="srgba(95.2941%,9.40871%,18.822%,1)"/>
  <circle cx="9" cy="8" r="1" fill="srgba(95.2743%,9.02113%,18.4756%,1)"/>
  <circle cx="10" cy="8" r="1" fill="srgba(95.9335%,21.7411%,29.8512%,1)"/>
  <circle cx="11" cy="8" r="1" fill="srgba(98.439%,70.0526%,73.0846%,1)"/>
  <circle cx="12" cy="8" r="1" fill="srgba(99.7543%,95.2987%,95.7656%,1)"/>
  <circle cx="13" cy="8" r="1" fill="srgba(96.9009%,40.6027%,46.5415%,1)"/>
  <circle cx="14" cy="8" r="1" fill="srgba(95.2377%,8.73426%,17.8622%,1)"/>
  <circle cx="15" cy="8" r="1" fill="srgba(95.2941%,9.79782%,18.8174%,1)"/>
  <circle cx="0" cy="9" r="1" fill="srgba(243,25,48,1)"/>
  <circle cx="1" cy="9" r="1" fill="srgba(95.2544%,9.05318%,18.1491%,1)"/>
  <circle cx="2" cy="9" r="1" fill="srgba(95.9228%,21.8372%,29.6544%,1)"/>
  <circle cx="3" cy="9" r="1" fill="srgba(99.4476%,89.4285%,90.4829%,1)"/>
  <circle cx="4" cy="9" r="1" fill="srgba(99.0829%,82.3484%,84.1855%,1)"/>
  <circle cx="5" cy="9" r="1" fill="srgba(95.6664%,16.5835%,25.2506%,1)"/>
  <circle cx="6" cy="9" r="1" fill="srgba(95.2453%,8.46265%,17.9736%,1)"/>
  <circle cx="7" cy="9" r="1" fill="srgba(243,24,48,1)"/>
  <circle cx="8" cy="9" r="1" fill="srgba(95.2911%,9.35378%,18.7716%,1)"/>
  <circle cx="9" cy="9" r="1" fill="srgba(95.2758%,9.06233%,18.5153%,1)"/>
  <circle cx="10" cy="9" r="1" fill="srgba(95.2316%,8.31312%,17.7478%,1)"/>
  <circle cx="11" cy="9" r="1" fill="srgba(96.5362%,33.5988%,40.2579%,1)"/>
  <circle cx="12" cy="9" r="1" fill="srgba(96.7788%,38.262%,44.4343%,1)"/>
  <circle cx="13" cy="9" r="1" fill="srgba(96.0739%,24.7517%,32.2759%,1)"/>
  <circle cx="14" cy="9" r="1" fill="srgba(95.3094%,10.1045%,19.0936%,1)"/>
  <circle cx="15" cy="9" r="1" fill="srgba(95.2926%,9.77951%,18.8022%,1)"/>
  <circle cx="0" cy="10" r="1" fill="srgba(243,25,48,1)"/>
  <circle cx="1" cy="10" r="1" fill="srgba(95.2911%,9.73983%,18.7655%,1)"/>
  <circle cx="2" cy="10" r="1" fill="srgba(95.3079%,10.0786%,19.0707%,1)"/>
  <circle cx="3" cy="10" r="1" fill="srgba(97.6287%,54.5388%,59.0845%,1)"/>
  <circle cx="4" cy="10" r="1" fill="srgba(99.8962%,97.9965%,98.201%,1)"/>
  <circle cx="5" cy="10" r="1" fill="srgba(97.9614%,60.7446%,64.8249%,1)"/>
  <circle cx="6" cy="10" r="1" fill="srgba(95.6542%,16.3622%,25.0523%,1)"/>
  <circle cx="7" cy="10" r="1" fill="srgba(95.2712%,8.9662%,18.4253%,1)"/>
  <circle cx="8" cy="10" r="1" fill="srgba(95.3674%,10.7988%,20.0717%,1)"/>
  <circle cx="9" cy="10" r="1" fill="srgba(95.6634%,16.5576%,25.1942%,1)"/>
  <circle cx="10" cy="10" r="1" fill="srgba(95.3979%,11.6976%,20.6149%,1)"/>
  <circle cx="11" cy="10" r="1" fill="srgba(95.3643%,11.1574%,20.0381%,1)"/>
  <circle cx="12" cy="10" r="1" fill="srgba(95.2636%,9.20882%,18.2879%,1)"/>
  <circle cx="13" cy="10" r="1" fill="srgba(95.256%,9.06844%,18.1613%,1)"/>
  <circle cx="14" cy="10" r="1" fill="srgba(95.2941%,9.81765%,18.8357%,1)"/>
  <circle cx="15" cy="10" r="1" fill="srgba(243,25,48,1)"/>
  <circle cx="0" cy="11" r="1" fill="srgba(243,25,48,1)"/>
  <circle cx="1" cy="11" r="1" fill="srgba(95.2941%,9.8085%,18.8281%,1)"/>
  <circle cx="2" cy="11" r="1" fill="srgba(95.2743%,9.41939%,18.4771%,1)"/>
  <circle cx="3" cy="11" r="1" fill="srgba(95.5154%,14.0322%,22.6291%,1)"/>
  <circle cx="4" cy="11" r="1" fill="srgba(97.6196%,54.3801%,58.9425%,1)"/>
  <circle cx="5" cy="11" r="1" fill="srgba(99.3698%,87.9026%,89.1157%,1)"/>
  <circle cx="6" cy="11" r="1" fill="srgba(98.8556%,78.0011%,80.2762%,1)"/>
  <circle cx="7" cy="11" r="1" fill="srgba(97.818%,57.9995%,62.3484%,1)"/>
  <circle cx="8" cy="11" r="1" fill="srgba(97.2244%,46.6316%,52.1065%,1)"/>
  <circle cx="9" cy="11" r="1" fill="srgba(96.1303%,25.7603%,33.2296%,1)"/>
  <circle cx="10" cy="11" r="1" fill="srgba(95.3185%,10.2754%,19.2462%,1)"/>
  <circle cx="11" cy="11" r="1" fill="srgba(95.2865%,9.65286%,18.6877%,1)"/>
  <circle cx="12" cy="11" r="1" fill="srgba(95.2926%,9.77493%,18.7976%,1)"/>
  <circle cx="13" cy="11" r="1" fill="srgba(95.2941%,9.80545%,18.8251%,1)"/>
  <circle cx="14" cy="11" r="1" fill="srgba(243,25,48,1)"/>
  <circle cx="15" cy="11" r="1" fill="srgba(243,25,48,1)"/>
  <circle cx="0" cy="12" r="1" fill="srgba(243,25,48,1)"/>
  <circle cx="1" cy="12" r="1" fill="srgba(243,25,48,1)"/>
  <circle cx="2" cy="12" r="1" fill="srgba(95.2956%,9.82071%,18.8388%,1)"/>
  <circle cx="3" cy="12" r="1" fill="srgba(95.2743%,9.42092%,18.4787%,1)"/>
  <circle cx="4" cy="12" r="1" fill="srgba(95.3048%,10.0053%,19.0051%,1)"/>
  <circle cx="5" cy="12" r="1" fill="srgba(95.9197%,21.8036%,29.6239%,1)"/>
  <circle cx="6" cy="12" r="1" fill="srgba(96.5805%,34.464%,41.0147%,1)"/>
  <circle cx="7" cy="12" r="1" fill="srgba(96.466%,32.2759%,39.0433%,1)"/>
  <circle cx="8" cy="12" r="1" fill="srgba(95.7321%,18.2086%,26.3828%,1)"/>
  <circle cx="9" cy="12" r="1" fill="srgba(95.2895%,9.72457%,18.7488%,1)"/>
  <circle cx="10" cy="12" r="1" fill="srgba(95.2895%,9.72152%,18.7503%,1)"/>
  <circle cx="11" cy="12" r="1" fill="srgba(95.2941%,9.80697%,18.8266%,1)"/>
  <circle cx="12" cy="12" r="1" fill="srgba(243,25,48,1)"/>
  <circle cx="13" cy="12" r="1" fill="srgba(243,25,48,1)"/>
  <circle cx="14" cy="12" r="1" fill="srgba(243,25,48,1)"/>
  <circle cx="15" cy="12" r="1" fill="srgba(243,25,48,1)"/>
  <circle cx="0" cy="13" r="1" fill="srgba(243,25,48,1)"/>
  <circle cx="1" cy="13" r="1" fill="srgba(243,25,48,1)"/>
  <circle cx="2" cy="13" r="1" fill="srgba(243,25,48,1)"/>
  <circle cx="3" cy="13" r="1" fill="srgba(95.2941%,9.8085%,18.8266%,1)"/>
  <circle cx="4" cy="13" r="1" fill="srgba(95.2911%,9.74289%,18.7686%,1)"/>
  <circle cx="5" cy="13" r="1" fill="srgba(95.2544%,9.05623%,18.1506%,1)"/>
  <circle cx="6" cy="13" r="1" fill="srgba(95.2224%,8.43214%,17.5891%,1)"/>
  <circle cx="7" cy="13" r="1" fill="srgba(95.2285%,8.55879%,17.702%,1)"/>
  <circle cx="8" cy="13" r="1" fill="srgba(95.2712%,9.35378%,18.4192%,1)"/>
  <circle cx="9" cy="13" r="1" fill="srgba(95.2941%,9.8024%,18.822%,1)"/>
  <circle cx="10" cy="13" r="1" fill="srgba(243,25,48,1)"/>
  <circle cx="11" cy="13" r="1" fill="srgba(243,25,48,1)"/>
  <circle cx="12" cy="13" r="1" fill="srgba(243,25,48,1)"/>
  <circle cx="13" cy="13" r="1" fill="srgba(243,25,48,1)"/>
  <circle cx="14" cy="13" r="1" fill="srgba(243,25,48,1)"/>
  <circle cx="15" cy="13" r="1" fill="srgba(243,25,48,1)"/>
  <circle cx="0" cy="14" r="1" fill="srgba(243,25,48,1)"/>
  <circle cx="1" cy="14" r="1" fill="srgba(243,25,48,1)"/>
  <circle cx="2" cy="14" r="1" fill="srgba(243,25,48,1)"/>
  <circle cx="3" cy="14" r="1" fill="srgba(243,25,48,1)"/>
  <circle cx="4" cy="14" r="1" fill="srgba(243,25,48,1)"/>
  <circle cx="5" cy="14" r="1" fill="srgba(243,25,48,1)"/>
  <circle cx="6" cy="14" r="1" fill="srgba(243,25,48,1)"/>
  <circle cx="7" cy="14" r="1" fill="srgba(243,25,48,1)"/>
  <circle cx="8" cy="14" r="1" fill="srgba(243,25,48,1)"/>
  <circle cx="9" cy="14" r="1" fill="srgba(243,25,48,1)"/>
  <circle cx="10" cy="14" r="1" fill="srgba(243,25,48,1)"/>
  <circle cx="11" cy="14" r="1" fill="srgba(243,25,48,1)"/>
  <circle cx="12" cy="14" r="1" fill="srgba(243,25,48,1)"/>
  <circle cx="13" cy="14" r="1" fill="srgba(243,25,48,1)"/>
  <circle cx="14" cy="14" r="1" fill="srgba(243,25,48,1)"/>
  <circle cx="15" cy="14" r="1" fill="srgba(243,25,48,1)"/>
  <circle cx="0" cy="15" r="1" fill="srgba(243,25,48,1)"/>
  <circle cx="1" cy="15" r="1" fill="srgba(243,25,48,1)"/>
  <circle cx="2" cy="15" r="1" fill="srgba(243,25,48,1)"/>
  <circle cx="3" cy="15" r="1" fill="srgba(243,25,48,1)"/>
  <circle cx="4" cy="15" r="1" fill="srgba(243,25,48,1)"/>
  <circle cx="5" cy="15" r="1" fill="srgba(243,25,48,1)"/>
  <circle cx="6" cy="15" r="1" fill="srgba(243,25,48,1)"/>
  <circle cx="7" cy="15" r="1" fill="srgba(243,25,48,1)"/>
  <circle cx="8" cy="15" r="1" fill="srgba(243,25,48,1)"/>
  <circle cx="9" cy="15" r="1" fill="srgba(243,25,48,1)"/>
  <circle cx="10" cy="15" r="1" fill="srgba(243,25,48,1)"/>
  <circle cx="11" cy="15" r="1" fill="srgba(243,25,48,1)"/>
  <circle cx="12" cy="15" r="1" fill="srgba(243,25,48,1)"/>
  <circle cx="13" cy="15" r="1" fill="srgba(243,25,48,1)"/>
  <circle cx="14" cy="15" r="1" fill="srgba(243,25,48,1)"/>
  <circle cx="15" cy="15" r="1" fill="srgba(243,25,48,1)"/>
</svg>
