<?xml version="1.0" standalone="no"?>
<!DOCTYPE svg PUBLIC "-//W3C//DTD SVG 20010904//EN"
  "http://www.w3.org/TR/2001/REC-SVG-20010904/DTD/svg10.dtd">
<svg width="16" height="16">
  <circle cx="0" cy="0" r="1" fill="srgba(95.8984%,66.2699%,66.2699%,1)"/>
  <circle cx="1" cy="0" r="1" fill="srgba(99.9573%,99.646%,99.646%,1)"/>
  <circle cx="2" cy="0" r="1" fill="white"/>
  <circle cx="3" cy="0" r="1" fill="white"/>
  <circle cx="4" cy="0" r="1" fill="srgba(96.9726%,75.0973%,75.0973%,1)"/>
  <circle cx="5" cy="0" r="1" fill="srgba(88.7419%,8.01709%,8.01709%,1)"/>
  <circle cx="6" cy="0" r="1" fill="srgba(87.7638%,0%,0%,1)"/>
  <circle cx="7" cy="0" r="1" fill="srgba(224,0,0,1)"/>
  <circle cx="8" cy="0" r="1" fill="srgba(87.8508%,0.0671397%,0.0671397%,1)"/>
  <circle cx="9" cy="0" r="1" fill="srgba(87.8584%,0.132753%,0.132753%,1)"/>
  <circle cx="10" cy="0" r="1" fill="srgba(87.8584%,0.131228%,0.131228%,1)"/>
  <circle cx="11" cy="0" r="1" fill="srgba(87.8676%,0.209049%,0.209049%,1)"/>
  <circle cx="12" cy="0" r="1" fill="srgba(87.8737%,0.262455%,0.262455%,1)"/>
  <circle cx="13" cy="0" r="1" fill="srgba(87.8737%,0.262455%,0.262455%,1)"/>
  <circle cx="14" cy="0" r="1" fill="srgba(87.8843%,0.350958%,0.350958%,1)"/>
  <circle cx="15" cy="0" r="1" fill="srgba(87.8889%,0.395209%,0.395209%,1)"/>
  <circle cx="0" cy="1" r="1" fill="srgba(89.8787%,16.9467%,16.9467%,1)"/>
  <circle cx="1" cy="1" r="1" fill="srgba(97.5158%,79.5621%,79.5621%,1)"/>
  <circle cx="2" cy="1" r="1" fill="white"/>
  <circle cx="3" cy="1" r="1" fill="white"/>
  <circle cx="4" cy="1" r="1" fill="srgba(99.8672%,98.9075%,98.9075%,1)"/>
  <circle cx="5" cy="1" r="1" fill="srgba(93.8582%,49.5796%,49.5796%,1)"/>
  <circle cx="6" cy="1" r="1" fill="srgba(87.8843%,0.901808%,0.901808%,1)"/>
  <circle cx="7" cy="1" r="1" fill="srgba(87.8264%,0%,0%,1)"/>
  <circle cx="8" cy="1" r="1" fill="srgba(224,0,0,1)"/>
  <circle cx="9" cy="1" r="1" fill="srgba(87.8416%,0%,0%,1)"/>
  <circle cx="10" cy="1" r="1" fill="srgba(87.8416%,0%,0%,1)"/>
  <circle cx="11" cy="1" r="1" fill="srgba(87.8416%,0%,0%,1)"/>
  <circle cx="12" cy="1" r="1" fill="srgba(87.8416%,0%,0%,1)"/>
  <circle cx="13" cy="1" r="1" fill="srgba(87.8416%,0%,0%,1)"/>
  <circle cx="14" cy="1" r="1" fill="srgba(87.8401%,0%,0%,1)"/>
  <circle cx="15" cy="1" r="1" fill="srgba(87.8401%,0%,0%,1)"/>
  <circle cx="0" cy="2" r="1" fill="srgba(88.0095%,1.86923%,1.86923%,1)"/>
  <circle cx="1" cy="2" r="1" fill="srgba(91.2459%,28.2811%,28.2811%,1)"/>
  <circle cx="2" cy="2" r="1" fill="srgba(99.0936%,92.5246%,92.5246%,1)"/>
  <circle cx="3" cy="2" r="1" fill="white"/>
  <circle cx="4" cy="2" r="1" fill="white"/>
  <circle cx="5" cy="2" r="1" fill="srgba(99.1608%,93.0846%,93.0846%,1)"/>
  <circle cx="6" cy="2" r="1" fill="srgba(91.4336%,29.807%,29.807%,1)"/>
  <circle cx="7" cy="2" r="1" fill="srgba(87.686%,0%,0%,1)"/>
  <circle cx="8" cy="2" r="1" fill="srgba(87.8447%,0%,0%,1)"/>
  <circle cx="9" cy="2" r="1" fill="srgba(224,0,0,1)"/>
  <circle cx="10" cy="2" r="1" fill="srgba(224,0,0,1)"/>
  <circle cx="11" cy="2" r="1" fill="srgba(224,0,0,1)"/>
  <circle cx="12" cy="2" r="1" fill="srgba(224,0,0,1)"/>
  <circle cx="13" cy="2" r="1" fill="srgba(224,0,0,1)"/>
  <circle cx="14" cy="2" r="1" fill="srgba(224,0,0,1)"/>
  <circle cx="15" cy="2" r="1" fill="srgba(224,0,0,1)"/>
  <circle cx="0" cy="3" r="1" fill="srgba(88.3177%,3.92004%,3.92004%,1)"/>
  <circle cx="1" cy="3" r="1" fill="srgba(87.8325%,0.477607%,0.477607%,1)"/>
  <circle cx="2" cy="3" r="1" fill="srgba(93.7407%,48.6198%,48.6198%,1)"/>
  <circle cx="3" cy="3" r="1" fill="srgba(99.8596%,98.8388%,98.8388%,1)"/>
  <circle cx="4" cy="3" r="1" fill="white"/>
  <circle cx="5" cy="3" r="1" fill="white"/>
  <circle cx="6" cy="3" r="1" fill="srgba(97.7005%,81.0605%,81.0605%,1)"/>
  <circle cx="7" cy="3" r="1" fill="srgba(89.4728%,13.8643%,13.8643%,1)"/>
  <circle cx="8" cy="3" r="1" fill="srgba(87.7241%,0%,0%,1)"/>
  <circle cx="9" cy="3" r="1" fill="srgba(87.8447%,0%,0%,1)"/>
  <circle cx="10" cy="3" r="1" fill="srgba(224,0,0,1)"/>
  <circle cx="11" cy="3" r="1" fill="srgba(224,0,0,1)"/>
  <circle cx="12" cy="3" r="1" fill="srgba(224,0,0,1)"/>
  <circle cx="13" cy="3" r="1" fill="srgba(224,0,0,1)"/>
  <circle cx="14" cy="3" r="1" fill="srgba(224,0,0,1)"/>
  <circle cx="15" cy="3" r="1" fill="srgba(224,0,0,1)"/>
  <circle cx="0" cy="4" r="1" fill="srgba(88.4825%,5.26284%,5.26284%,1)"/>
  <circle cx="1" cy="4" r="1" fill="srgba(87.744%,0%,0%,1)"/>
  <circle cx="2" cy="4" r="1" fill="srgba(88.5435%,6.31418%,6.31418%,1)"/>
  <circle cx="3" cy="4" r="1" fill="srgba(96.2158%,68.8808%,68.8808%,1)"/>
  <circle cx="4" cy="4" r="1" fill="white"/>
  <circle cx="5" cy="4" r="1" fill="white"/>
  <circle cx="6" cy="4" r="1" fill="white"/>
  <circle cx="7" cy="4" r="1" fill="srgba(95.5276%,63.2319%,63.2319%,1)"/>
  <circle cx="8" cy="4" r="1" fill="srgba(88.275%,4.12909%,4.12909%,1)"/>
  <circle cx="9" cy="4" r="1" fill="srgba(87.7974%,0%,0%,1)"/>
  <circle cx="10" cy="4" r="1" fill="srgba(224,0,0,1)"/>
  <circle cx="11" cy="4" r="1" fill="srgba(224,0,0,1)"/>
  <circle cx="12" cy="4" r="1" fill="srgba(224,0,0,1)"/>
  <circle cx="13" cy="4" r="1" fill="srgba(224,0,0,1)"/>
  <circle cx="14" cy="4" r="1" fill="srgba(224,0,0,1)"/>
  <circle cx="15" cy="4" r="1" fill="srgba(224,0,0,1)"/>
  <circle cx="0" cy="5" r="1" fill="srgba(88.6351%,6.51865%,6.51865%,1)"/>
  <circle cx="1" cy="5" r="1" fill="srgba(87.8035%,0%,0%,1)"/>
  <circle cx="2" cy="5" r="1" fill="srgba(87.7028%,0%,0%,1)"/>
  <circle cx="3" cy="5" r="1" fill="srgba(89.9672%,17.8897%,17.8897%,1)"/>
  <circle cx="4" cy="5" r="1" fill="srgba(98.204%,85.2094%,85.2094%,1)"/>
  <circle cx="5" cy="5" r="1" fill="white"/>
  <circle cx="6" cy="5" r="1" fill="white"/>
  <circle cx="7" cy="5" r="1" fill="srgba(99.704%,97.554%,97.554%,1)"/>
  <circle cx="8" cy="5" r="1" fill="srgba(93.0007%,42.5788%,42.5788%,1)"/>
  <circle cx="9" cy="5" r="1" fill="srgba(87.7699%,0%,0%,1)"/>
  <circle cx="10" cy="5" r="1" fill="srgba(87.8355%,0%,0%,1)"/>
  <circle cx="11" cy="5" r="1" fill="srgba(224,0,0,1)"/>
  <circle cx="12" cy="5" r="1" fill="srgba(224,0,0,1)"/>
  <circle cx="13" cy="5" r="1" fill="srgba(224,0,0,1)"/>
  <circle cx="14" cy="5" r="1" fill="srgba(224,0,0,1)"/>
  <circle cx="15" cy="5" r="1" fill="srgba(224,0,0,1)"/>
  <circle cx="0" cy="6" r="1" fill="srgba(89.0593%,7.80957%,7.80957%,1)"/>
  <circle cx="1" cy="6" r="1" fill="srgba(89.1524%,0%,0%,1)"/>
  <circle cx="2" cy="6" r="1" fill="srgba(89.4011%,0%,0%,1)"/>
  <circle cx="3" cy="6" r="1" fill="srgba(88.9754%,0%,0%,1)"/>
  <circle cx="4" cy="6" r="1" fill="srgba(92.2576%,35.3719%,35.3719%,1)"/>
  <circle cx="5" cy="6" r="1" fill="srgba(99.4324%,95.3857%,95.3857%,1)"/>
  <circle cx="6" cy="6" r="1" fill="white"/>
  <circle cx="7" cy="6" r="1" fill="white"/>
  <circle cx="8" cy="6" r="1" fill="srgba(98.735%,89.5735%,89.5735%,1)"/>
  <circle cx="9" cy="6" r="1" fill="srgba(90.663%,23.5355%,23.5355%,1)"/>
  <circle cx="10" cy="6" r="1" fill="srgba(87.686%,0%,0%,1)"/>
  <circle cx="11" cy="6" r="1" fill="srgba(87.8447%,0%,0%,1)"/>
  <circle cx="12" cy="6" r="1" fill="srgba(224,0,0,1)"/>
  <circle cx="13" cy="6" r="1" fill="srgba(224,0,0,1)"/>
  <circle cx="14" cy="6" r="1" fill="srgba(224,0,0,1)"/>
  <circle cx="15" cy="6" r="1" fill="srgba(224,0,0,1)"/>
  <circle cx="0" cy="7" r="1" fill="srgba(81.4496%,9.14778%,9.14778%,1)"/>
  <circle cx="1" cy="7" r="1" fill="srgba(56.0876%,0%,0%,1)"/>
  <circle cx="2" cy="7" r="1" fill="srgba(52.9259%,0%,0%,1)"/>
  <circle cx="3" cy="7" r="1" fill="srgba(60.914%,0%,0%,1)"/>
  <circle cx="4" cy="7" r="1" fill="srgba(86.1616%,2.09506%,2.09506%,1)"/>
  <circle cx="5" cy="7" r="1" fill="srgba(94.8287%,55.9594%,55.9594%,1)"/>
  <circle cx="6" cy="7" r="1" fill="srgba(99.9863%,99.9023%,99.9023%,1)"/>
  <circle cx="7" cy="7" r="1" fill="white"/>
  <circle cx="8" cy="7" r="1" fill="white"/>
  <circle cx="9" cy="7" r="1" fill="srgba(97.0016%,75.3262%,75.3262%,1)"/>
  <circle cx="10" cy="7" r="1" fill="srgba(88.9601%,9.69863%,9.69863%,1)"/>
  <circle cx="11" cy="7" r="1" fill="srgba(87.7516%,0%,0%,1)"/>
  <circle cx="12" cy="7" r="1" fill="srgba(87.8447%,0%,0%,1)"/>
  <circle cx="13" cy="7" r="1" fill="srgba(224,0,0,1)"/>
  <circle cx="14" cy="7" r="1" fill="srgba(224,0,0,1)"/>
  <circle cx="15" cy="7" r="1" fill="srgba(224,0,0,1)"/>
  <circle cx="0" cy="8" r="1" fill="srgba(85.0568%,10.5074%,10.5074%,1)"/>
  <circle cx="1" cy="8" r="1" fill="srgba(32.8893%,0%,0%,1)"/>
  <circle cx="2" cy="8" r="1" fill="black"/>
  <circle cx="3" cy="8" r="1" fill="srgba(4.17487%,0%,0%,1)"/>
  <circle cx="4" cy="8" r="1" fill="srgba(57.1252%,0%,0%,1)"/>
  <circle cx="5" cy="8" r="1" fill="srgba(89.9321%,9.65133%,9.65133%,1)"/>
  <circle cx="6" cy="8" r="1" fill="srgba(97.0016%,75.2438%,75.2438%,1)"/>
  <circle cx="7" cy="8" r="1" fill="white"/>
  <circle cx="8" cy="8" r="1" fill="white"/>
  <circle cx="9" cy="8" r="1" fill="srgba(99.9893%,99.9115%,99.9115%,1)"/>
  <circle cx="10" cy="8" r="1" fill="srgba(94.6487%,56.0388%,56.0388%,1)"/>
  <circle cx="11" cy="8" r="1" fill="srgba(88.0293%,2.11185%,2.11185%,1)"/>
  <circle cx="12" cy="8" r="1" fill="srgba(87.8157%,0%,0%,1)"/>
  <circle cx="13" cy="8" r="1" fill="srgba(224,0,0,1)"/>
  <circle cx="14" cy="8" r="1" fill="srgba(224,0,0,1)"/>
  <circle cx="15" cy="8" r="1" fill="srgba(224,0,0,1)"/>
  <circle cx="0" cy="9" r="1" fill="srgba(90.251%,11.9142%,11.9142%,1)"/>
  <circle cx="1" cy="9" r="1" fill="srgba(76.3577%,0%,0%,1)"/>
  <circle cx="2" cy="9" r="1" fill="srgba(16.965%,0%,0%,1)"/>
  <circle cx="3" cy="9" r="1" fill="black"/>
  <circle cx="4" cy="9" r="1" fill="srgba(12.9427%,0%,0%,1)"/>
  <circle cx="5" cy="9" r="1" fill="srgba(72.1645%,0%,0%,1)"/>
  <circle cx="6" cy="9" r="1" fill="srgba(91.6732%,23.4516%,23.4516%,1)"/>
  <circle cx="7" cy="9" r="1" fill="srgba(98.7121%,89.5171%,89.5171%,1)"/>
  <circle cx="8" cy="9" r="1" fill="white"/>
  <circle cx="9" cy="9" r="1" fill="white"/>
  <circle cx="10" cy="9" r="1" fill="srgba(99.4446%,95.4101%,95.4101%,1)"/>
  <circle cx="11" cy="9" r="1" fill="srgba(92.1263%,35.436%,35.436%,1)"/>
  <circle cx="12" cy="9" r="1" fill="srgba(87.7073%,0%,0%,1)"/>
  <circle cx="13" cy="9" r="1" fill="srgba(87.8416%,0%,0%,1)"/>
  <circle cx="14" cy="9" r="1" fill="srgba(224,0,0,1)"/>
  <circle cx="15" cy="9" r="1" fill="srgba(224,0,0,1)"/>
  <circle cx="0" cy="10" r="1" fill="srgba(89.456%,13.341%,13.341%,1)"/>
  <circle cx="1" cy="10" r="1" fill="srgba(88.893%,0%,0%,1)"/>
  <circle cx="2" cy="10" r="1" fill="srgba(62.3743%,0%,0%,1)"/>
  <circle cx="3" cy="10" r="1" fill="srgba(6.28672%,0%,0%,1)"/>
  <circle cx="4" cy="10" r="1" fill="black"/>
  <circle cx="5" cy="10" r="1" fill="srgba(26.8299%,0%,0%,1)"/>
  <circle cx="6" cy="10" r="1" fill="srgba(82.4063%,0%,0%,1)"/>
  <circle cx="7" cy="10" r="1" fill="srgba(93.4813%,42.4704%,42.4704%,1)"/>
  <circle cx="8" cy="10" r="1" fill="srgba(99.6948%,97.5265%,97.5265%,1)"/>
  <circle cx="9" cy="10" r="1" fill="white"/>
  <circle cx="10" cy="10" r="1" fill="white"/>
  <circle cx="11" cy="10" r="1" fill="srgba(98.2101%,85.2491%,85.2491%,1)"/>
  <circle cx="12" cy="10" r="1" fill="srgba(89.9733%,17.9309%,17.9309%,1)"/>
  <circle cx="13" cy="10" r="1" fill="srgba(87.7028%,0%,0%,1)"/>
  <circle cx="14" cy="10" r="1" fill="srgba(87.8447%,0%,0%,1)"/>
  <circle cx="15" cy="10" r="1" fill="srgba(224,0,0,1)"/>
  <circle cx="0" cy="11" r="1" fill="srgba(89.6407%,14.8089%,14.8089%,1)"/>
  <circle cx="1" cy="11" r="1" fill="srgba(87.8691%,0%,0%,1)"/>
  <circle cx="2" cy="11" r="1" fill="srgba(87.6356%,0%,0%,1)"/>
  <circle cx="3" cy="11" r="1" fill="srgba(44.6845%,0%,0%,1)"/>
  <circle cx="4" cy="11" r="1" fill="srgba(0.822461%,0%,0%,1)"/>
  <circle cx="5" cy="11" r="1" fill="srgba(0.764477%,0%,0%,1)"/>
  <circle cx="6" cy="11" r="1" fill="srgba(44.1093%,0%,0%,1)"/>
  <circle cx="7" cy="11" r="1" fill="srgba(87.9515%,4.09247%,4.09247%,1)"/>
  <circle cx="8" cy="11" r="1" fill="srgba(95.6344%,63.122%,63.122%,1)"/>
  <circle cx="9" cy="11" r="1" fill="white"/>
  <circle cx="10" cy="11" r="1" fill="white"/>
  <circle cx="11" cy="11" r="1" fill="white"/>
  <circle cx="12" cy="11" r="1" fill="srgba(96.2219%,68.9281%,68.9281%,1)"/>
  <circle cx="13" cy="11" r="1" fill="srgba(88.5451%,6.33402%,6.33402%,1)"/>
  <circle cx="14" cy="11" r="1" fill="srgba(87.779%,0%,0%,1)"/>
  <circle cx="15" cy="11" r="1" fill="srgba(87.8447%,0%,0%,1)"/>
  <circle cx="0" cy="12" r="1" fill="srgba(89.8253%,16.3027%,16.3027%,1)"/>
  <circle cx="1" cy="12" r="1" fill="srgba(87.747%,0%,0%,1)"/>
  <circle cx="2" cy="12" r="1" fill="srgba(88.3268%,0%,0%,1)"/>
  <circle cx="3" cy="12" r="1" fill="srgba(82.5849%,0%,0%,1)"/>
  <circle cx="4" cy="12" r="1" fill="srgba(26.9169%,0%,0%,1)"/>
  <circle cx="5" cy="12" r="1" fill="black"/>
  <circle cx="6" cy="12" r="1" fill="srgba(5.95407%,0%,0%,1)"/>
  <circle cx="7" cy="12" r="1" fill="srgba(61.3947%,0%,0%,1)"/>
  <circle cx="8" cy="12" r="1" fill="srgba(90.5806%,13.7911%,13.7911%,1)"/>
  <circle cx="9" cy="12" r="1" fill="srgba(97.6837%,80.972%,80.972%,1)"/>
  <circle cx="10" cy="12" r="1" fill="white"/>
  <circle cx="11" cy="12" r="1" fill="white"/>
  <circle cx="12" cy="12" r="1" fill="srgba(99.8611%,98.8479%,98.8479%,1)"/>
  <circle cx="13" cy="12" r="1" fill="srgba(93.7469%,48.6656%,48.6656%,1)"/>
  <circle cx="14" cy="12" r="1" fill="srgba(87.8599%,0.704967%,0.704967%,1)"/>
  <circle cx="15" cy="12" r="1" fill="srgba(87.8264%,0%,0%,1)"/>
  <circle cx="0" cy="13" r="1" fill="srgba(90.0099%,17.8302%,17.8302%,1)"/>
  <circle cx="1" cy="13" r="1" fill="srgba(87.747%,0%,0%,1)"/>
  <circle cx="2" cy="13" r="1" fill="srgba(87.8279%,0%,0%,1)"/>
  <circle cx="3" cy="13" r="1" fill="srgba(88.867%,0%,0%,1)"/>
  <circle cx="4" cy="13" r="1" fill="srgba(72.1859%,0%,0%,1)"/>
  <circle cx="5" cy="13" r="1" fill="srgba(12.7184%,0%,0%,1)"/>
  <circle cx="6" cy="13" r="1" fill="black"/>
  <circle cx="7" cy="13" r="1" fill="srgba(16.0815%,0%,0%,1)"/>
  <circle cx="8" cy="13" r="1" fill="srgba(75.3201%,0%,0%,1)"/>
  <circle cx="9" cy="13" r="1" fill="srgba(92.314%,29.6971%,29.6971%,1)"/>
  <circle cx="10" cy="13" r="1" fill="srgba(99.1409%,93.0297%,93.0297%,1)"/>
  <circle cx="11" cy="13" r="1" fill="white"/>
  <circle cx="12" cy="13" r="1" fill="white"/>
  <circle cx="13" cy="13" r="1" fill="srgba(99.0967%,92.5429%,92.5429%,1)"/>
  <circle cx="14" cy="13" r="1" fill="srgba(91.2718%,28.4733%,28.4733%,1)"/>
  <circle cx="15" cy="13" r="1" fill="srgba(87.6631%,0%,0%,1)"/>
  <circle cx="0" cy="14" r="1" fill="srgba(90.2022%,19.4003%,19.4003%,1)"/>
  <circle cx="1" cy="14" r="1" fill="srgba(87.7409%,0%,0%,1)"/>
  <circle cx="2" cy="14" r="1" fill="srgba(224,0,0,1)"/>
  <circle cx="3" cy="14" r="1" fill="srgba(87.8553%,0%,0%,1)"/>
  <circle cx="4" cy="14" r="1" fill="srgba(88.7968%,0%,0%,1)"/>
  <circle cx="5" cy="14" r="1" fill="srgba(56.8597%,0%,0%,1)"/>
  <circle cx="6" cy="14" r="1" fill="srgba(4.11994%,0%,0%,1)"/>
  <circle cx="7" cy="14" r="1" fill="black"/>
  <circle cx="8" cy="14" r="1" fill="srgba(30.8522%,0%,0%,1)"/>
  <circle cx="9" cy="14" r="1" fill="srgba(83.7491%,0.880446%,0.880446%,1)"/>
  <circle cx="10" cy="14" r="1" fill="srgba(94.1573%,49.4408%,49.4408%,1)"/>
  <circle cx="11" cy="14" r="1" fill="srgba(99.8642%,98.883%,98.883%,1)"/>
  <circle cx="12" cy="14" r="1" fill="white"/>
  <circle cx="13" cy="14" r="1" fill="white"/>
  <circle cx="14" cy="14" r="1" fill="srgba(97.5311%,79.678%,79.678%,1)"/>
  <circle cx="15" cy="14" r="1" fill="srgba(89.6757%,15.2804%,15.2804%,1)"/>
  <circle cx="0" cy="15" r="1" fill="srgba(90.3761%,20.8331%,20.8331%,1)"/>
  <circle cx="1" cy="15" r="1" fill="srgba(87.7379%,0%,0%,1)"/>
  <circle cx="2" cy="15" r="1" fill="srgba(224,0,0,1)"/>
  <circle cx="3" cy="15" r="1" fill="srgba(87.8416%,0%,0%,1)"/>
  <circle cx="4" cy="15" r="1" fill="srgba(88.0766%,0%,0%,1)"/>
  <circle cx="5" cy="15" r="1" fill="srgba(86.1051%,0%,0%,1)"/>
  <circle cx="6" cy="15" r="1" fill="srgba(33.9803%,0%,0%,1)"/>
  <circle cx="7" cy="15" r="1" fill="black"/>
  <circle cx="8" cy="15" r="1" fill="srgba(2.15152%,0%,0%,1)"/>
  <circle cx="9" cy="15" r="1" fill="srgba(53.1014%,0%,0%,1)"/>
  <circle cx="10" cy="15" r="1" fill="srgba(89.4591%,7.9469%,7.9469%,1)"/>
  <circle cx="11" cy="15" r="1" fill="srgba(96.9711%,74.9752%,74.9752%,1)"/>
  <circle cx="12" cy="15" r="1" fill="white"/>
  <circle cx="13" cy="15" r="1" fill="white"/>
  <circle cx="14" cy="15" r="1" fill="srgba(99.9619%,99.6857%,99.6857%,1)"/>
  <circle cx="15" cy="15" r="1" fill="srgba(95.819%,65.6046%,65.6046%,1)"/>
</svg>
