<?xml version="1.0" standalone="no"?>
<!DOCTYPE svg PUBLIC "-//W3C//DTD SVG 20010904//EN"
  "http://www.w3.org/TR/2001/REC-SVG-20010904/DTD/svg10.dtd">
<svg width="16" height="16">
  <circle cx="0" cy="0" r="1" fill="srgba(94.7784%,81.9806%,82.7893%,1)"/>
  <circle cx="1" cy="0" r="1" fill="srgba(73.7713%,62.6902%,72.0729%,1)"/>
  <circle cx="2" cy="0" r="1" fill="srgba(35.0454%,36.7056%,62.8534%,1)"/>
  <circle cx="3" cy="0" r="1" fill="srgba(70.7774%,27.3899%,34.7433%,1)"/>
  <circle cx="4" cy="0" r="1" fill="srgba(71.2932%,27.4952%,34.5983%,1)"/>
  <circle cx="5" cy="0" r="1" fill="srgba(37.6486%,33.109%,57.5998%,1)"/>
  <circle cx="6" cy="0" r="1" fill="srgba(61.2497%,41.9242%,55.7244%,1)"/>
  <circle cx="7" cy="0" r="1" fill="srgba(39.4141%,25.3147%,44.5884%,1)"/>
  <circle cx="8" cy="0" r="1" fill="srgba(2.54826%,54.7585%,73.1243%,1)"/>
  <circle cx="9" cy="0" r="1" fill="srgba(0%,62.8183%,79.5941%,1)"/>
  <circle cx="10" cy="0" r="1" fill="srgba(0,159,202,1)"/>
  <circle cx="11" cy="0" r="1" fill="srgba(0,159,202,1)"/>
  <circle cx="12" cy="0" r="1" fill="srgba(0,159,202,1)"/>
  <circle cx="13" cy="0" r="1" fill="srgba(0,159,202,1)"/>
  <circle cx="14" cy="0" r="1" fill="srgba(0%,62.3545%,79.2172%,1)"/>
  <circle cx="15" cy="0" r="1" fill="srgba(0.00610361%,62.3285%,79.1958%,1)"/>
  <circle cx="0" cy="1" r="1" fill="srgba(85.3437%,39.6735%,40.9689%,1)"/>
  <circle cx="1" cy="1" r="1" fill="srgba(85.5543%,23.3951%,22.9587%,1)"/>
  <circle cx="2" cy="1" r="1" fill="srgba(83.9673%,41.5274%,43.6988%,1)"/>
  <circle cx="3" cy="1" r="1" fill="srgba(81.3092%,19.4919%,20.7889%,1)"/>
  <circle cx="4" cy="1" r="1" fill="srgba(81.3687%,16.112%,17.0397%,1)"/>
  <circle cx="5" cy="1" r="1" fill="srgba(79.35%,19.6353%,21.9364%,1)"/>
  <circle cx="6" cy="1" r="1" fill="srgba(30.3456%,4.24811%,29.5506%,1)"/>
  <circle cx="7" cy="1" r="1" fill="srgba(0%,7.40063%,44.2466%,1)"/>
  <circle cx="8" cy="1" r="1" fill="srgba(0%,54.8425%,74.551%,1)"/>
  <circle cx="9" cy="1" r="1" fill="srgba(0%,62.8397%,79.5193%,1)"/>
  <circle cx="10" cy="1" r="1" fill="srgba(0,159,202,1)"/>
  <circle cx="11" cy="1" r="1" fill="srgba(0,159,202,1)"/>
  <circle cx="12" cy="1" r="1" fill="srgba(0,159,202,1)"/>
  <circle cx="13" cy="1" r="1" fill="srgba(0,159,202,1)"/>
  <circle cx="14" cy="1" r="1" fill="srgba(0%,62.3545%,79.2172%,1)"/>
  <circle cx="15" cy="1" r="1" fill="srgba(0%,62.3224%,79.1928%,1)"/>
  <circle cx="0" cy="2" r="1" fill="srgba(58.3749%,27.924%,41.7868%,1)"/>
  <circle cx="1" cy="2" r="1" fill="srgba(83.4882%,47.2282%,50.5104%,1)"/>
  <circle cx="2" cy="2" r="1" fill="srgba(89.2729%,38.8876%,38.4436%,1)"/>
  <circle cx="3" cy="2" r="1" fill="srgba(86.1646%,25.5955%,25.4322%,1)"/>
  <circle cx="4" cy="2" r="1" fill="srgba(84.4327%,17.3587%,17.2808%,1)"/>
  <circle cx="5" cy="2" r="1" fill="srgba(82.565%,5.47189%,5.08888%,1)"/>
  <circle cx="6" cy="2" r="1" fill="srgba(37.8058%,0%,20.2487%,1)"/>
  <circle cx="7" cy="2" r="1" fill="srgba(0%,7.5227%,44.9134%,1)"/>
  <circle cx="8" cy="2" r="1" fill="srgba(0%,54.8348%,74.4427%,1)"/>
  <circle cx="9" cy="2" r="1" fill="srgba(0%,62.8397%,79.5254%,1)"/>
  <circle cx="10" cy="2" r="1" fill="srgba(0,159,202,1)"/>
  <circle cx="11" cy="2" r="1" fill="srgba(0,159,202,1)"/>
  <circle cx="12" cy="2" r="1" fill="srgba(0,159,202,1)"/>
  <circle cx="13" cy="2" r="1" fill="srgba(0,159,202,1)"/>
  <circle cx="14" cy="2" r="1" fill="srgba(0%,62.3545%,79.2172%,1)"/>
  <circle cx="15" cy="2" r="1" fill="srgba(0%,62.3224%,79.1928%,1)"/>
  <circle cx="0" cy="3" r="1" fill="srgba(56.614%,64.6128%,78.0407%,1)"/>
  <circle cx="1" cy="3" r="1" fill="srgba(73.5439%,55.2071%,59.2294%,1)"/>
  <circle cx="2" cy="3" r="1" fill="srgba(72.9625%,38.5229%,41.1673%,1)"/>
  <circle cx="3" cy="3" r="1" fill="srgba(74.0658%,44.6677%,47.3777%,1)"/>
  <circle cx="4" cy="3" r="1" fill="srgba(72.1462%,35.1293%,37.8393%,1)"/>
  <circle cx="5" cy="3" r="1" fill="srgba(69.7948%,17.8012%,19.9557%,1)"/>
  <circle cx="6" cy="3" r="1" fill="srgba(45.2644%,9.19051%,22.9419%,1)"/>
  <circle cx="7" cy="3" r="1" fill="srgba(1.00252%,16.3516%,49.781%,1)"/>
  <circle cx="8" cy="3" r="1" fill="srgba(0%,56.0525%,75.288%,1)"/>
  <circle cx="9" cy="3" r="1" fill="srgba(0%,62.7604%,79.472%,1)"/>
  <circle cx="10" cy="3" r="1" fill="srgba(0,159,202,1)"/>
  <circle cx="11" cy="3" r="1" fill="srgba(0,159,202,1)"/>
  <circle cx="12" cy="3" r="1" fill="srgba(0,159,202,1)"/>
  <circle cx="13" cy="3" r="1" fill="srgba(0,159,202,1)"/>
  <circle cx="14" cy="3" r="1" fill="srgba(0%,62.3545%,79.2172%,1)"/>
  <circle cx="15" cy="3" r="1" fill="srgba(0%,62.3224%,79.1928%,1)"/>
  <circle cx="0" cy="4" r="1" fill="srgba(8.82582%,64.0192%,79.1623%,1)"/>
  <circle cx="1" cy="4" r="1" fill="srgba(7.00999%,56.7239%,72.0455%,1)"/>
  <circle cx="2" cy="4" r="1" fill="srgba(7.19615%,58.5824%,73.9971%,1)"/>
  <circle cx="3" cy="4" r="1" fill="srgba(7.66918%,60.8911%,76.3012%,1)"/>
  <circle cx="4" cy="4" r="1" fill="srgba(7.42199%,59.6658%,75.0744%,1)"/>
  <circle cx="5" cy="4" r="1" fill="srgba(7.13664%,57.763%,73.1243%,1)"/>
  <circle cx="6" cy="4" r="1" fill="srgba(5.41238%,56.9009%,73.0587%,1)"/>
  <circle cx="7" cy="4" r="1" fill="srgba(0.325017%,57.6349%,76.0845%,1)"/>
  <circle cx="8" cy="4" r="1" fill="srgba(0%,61.7075%,78.819%,1)"/>
  <circle cx="9" cy="4" r="1" fill="srgba(0%,62.3941%,79.2416%,1)"/>
  <circle cx="10" cy="4" r="1" fill="srgba(0,159,202,1)"/>
  <circle cx="11" cy="4" r="1" fill="srgba(0,159,202,1)"/>
  <circle cx="12" cy="4" r="1" fill="srgba(0,159,202,1)"/>
  <circle cx="13" cy="4" r="1" fill="srgba(0,159,202,1)"/>
  <circle cx="14" cy="4" r="1" fill="srgba(0%,62.3545%,79.2172%,1)"/>
  <circle cx="15" cy="4" r="1" fill="srgba(0%,62.3224%,79.1928%,1)"/>
  <circle cx="0" cy="5" r="1" fill="srgba(0%,62.3194%,79.263%,1)"/>
  <circle cx="1" cy="5" r="1" fill="srgba(0%,62.6596%,79.6155%,1)"/>
  <circle cx="2" cy="5" r="1" fill="srgba(0%,62.5605%,79.5163%,1)"/>
  <circle cx="3" cy="5" r="1" fill="srgba(0%,62.4491%,79.4049%,1)"/>
  <circle cx="4" cy="5" r="1" fill="srgba(0%,62.5238%,79.4797%,1)"/>
  <circle cx="5" cy="5" r="1" fill="srgba(0%,62.6459%,79.6048%,1)"/>
  <circle cx="6" cy="5" r="1" fill="srgba(0%,62.7024%,79.6048%,1)"/>
  <circle cx="7" cy="5" r="1" fill="srgba(0%,62.6551%,79.4156%,1)"/>
  <circle cx="8" cy="5" r="1" fill="srgba(0%,62.3941%,79.2416%,1)"/>
  <circle cx="9" cy="5" r="1" fill="srgba(0%,62.3499%,79.2142%,1)"/>
  <circle cx="10" cy="5" r="1" fill="srgba(0,159,202,1)"/>
  <circle cx="11" cy="5" r="1" fill="srgba(0,159,202,1)"/>
  <circle cx="12" cy="5" r="1" fill="srgba(0%,62.3545%,79.2126%,1)"/>
  <circle cx="13" cy="5" r="1" fill="srgba(0%,62.3285%,79.2706%,1)"/>
  <circle cx="14" cy="5" r="1" fill="srgba(0%,62.2126%,79.5331%,1)"/>
  <circle cx="15" cy="5" r="1" fill="srgba(0%,62.2827%,79.2813%,1)"/>
  <circle cx="0" cy="6" r="1" fill="srgba(0,159,202,1)"/>
  <circle cx="1" cy="6" r="1" fill="srgba(0,159,202,1)"/>
  <circle cx="2" cy="6" r="1" fill="srgba(0,159,202,1)"/>
  <circle cx="3" cy="6" r="1" fill="srgba(0,159,202,1)"/>
  <circle cx="4" cy="6" r="1" fill="srgba(0,159,202,1)"/>
  <circle cx="5" cy="6" r="1" fill="srgba(0,159,202,1)"/>
  <circle cx="6" cy="6" r="1" fill="srgba(0,159,202,1)"/>
  <circle cx="7" cy="6" r="1" fill="srgba(0,159,202,1)"/>
  <circle cx="8" cy="6" r="1" fill="srgba(0,159,202,1)"/>
  <circle cx="9" cy="6" r="1" fill="srgba(0,159,202,1)"/>
  <circle cx="10" cy="6" r="1" fill="srgba(0,159,202,1)"/>
  <circle cx="11" cy="6" r="1" fill="srgba(0%,62.3468%,79.2279%,1)"/>
  <circle cx="12" cy="6" r="1" fill="srgba(0%,62.1698%,79.6216%,1)"/>
  <circle cx="13" cy="6" r="1" fill="srgba(1.45571%,62.7466%,78.3413%,1)"/>
  <circle cx="14" cy="6" r="1" fill="srgba(7.80499%,64.9607%,73.4234%,1)"/>
  <circle cx="15" cy="6" r="1" fill="srgba(2.24308%,63.0701%,77.5296%,1)"/>
  <circle cx="0" cy="7" r="1" fill="srgba(0,159,202,1)"/>
  <circle cx="1" cy="7" r="1" fill="srgba(0,159,202,1)"/>
  <circle cx="2" cy="7" r="1" fill="srgba(0,159,202,1)"/>
  <circle cx="3" cy="7" r="1" fill="srgba(0,159,202,1)"/>
  <circle cx="4" cy="7" r="1" fill="srgba(0,159,202,1)"/>
  <circle cx="5" cy="7" r="1" fill="srgba(0,159,202,1)"/>
  <circle cx="6" cy="7" r="1" fill="srgba(0,159,202,1)"/>
  <circle cx="7" cy="7" r="1" fill="srgba(0,159,202,1)"/>
  <circle cx="8" cy="7" r="1" fill="srgba(0,159,202,1)"/>
  <circle cx="9" cy="7" r="1" fill="srgba(0.0015259%,62.3636%,79.1928%,1)"/>
  <circle cx="10" cy="7" r="1" fill="srgba(0.0396735%,62.1576%,79.649%,1)"/>
  <circle cx="11" cy="7" r="1" fill="srgba(0.285344%,62.1637%,79.6368%,1)"/>
  <circle cx="12" cy="7" r="1" fill="srgba(7.55932%,64.8402%,73.6843%,1)"/>
  <circle cx="13" cy="7" r="1" fill="srgba(7.78515%,64.9302%,73.4874%,1)"/>
  <circle cx="14" cy="7" r="1" fill="srgba(20.6394%,69.2332%,63.9231%,1)"/>
  <circle cx="15" cy="7" r="1" fill="srgba(8.46113%,65.1499%,72.9259%,1)"/>
  <circle cx="0" cy="8" r="1" fill="srgba(0,159,202,1)"/>
  <circle cx="1" cy="8" r="1" fill="srgba(0,159,202,1)"/>
  <circle cx="2" cy="8" r="1" fill="srgba(0,159,202,1)"/>
  <circle cx="3" cy="8" r="1" fill="srgba(0,159,202,1)"/>
  <circle cx="4" cy="8" r="1" fill="srgba(0,159,202,1)"/>
  <circle cx="5" cy="8" r="1" fill="srgba(0,159,202,1)"/>
  <circle cx="6" cy="8" r="1" fill="srgba(0,159,202,1)"/>
  <circle cx="7" cy="8" r="1" fill="srgba(0,159,202,1)"/>
  <circle cx="8" cy="8" r="1" fill="srgba(0,159,202,1)"/>
  <circle cx="9" cy="8" r="1" fill="srgba(0%,62.1668%,79.6307%,1)"/>
  <circle cx="10" cy="8" r="1" fill="srgba(17.9156%,68.3162%,65.9556%,1)"/>
  <circle cx="11" cy="8" r="1" fill="srgba(23.6439%,70.2342%,61.6922%,1)"/>
  <circle cx="12" cy="8" r="1" fill="srgba(47.2541%,78.1018%,44.1932%,1)"/>
  <circle cx="13" cy="8" r="1" fill="srgba(27.3915%,71.4702%,58.9395%,1)"/>
  <circle cx="14" cy="8" r="1" fill="srgba(0%,62.0264%,79.9451%,1)"/>
  <circle cx="15" cy="8" r="1" fill="srgba(0.137331%,62.3453%,79.1684%,1)"/>
  <circle cx="0" cy="9" r="1" fill="srgba(0,159,202,1)"/>
  <circle cx="1" cy="9" r="1" fill="srgba(0,159,202,1)"/>
  <circle cx="2" cy="9" r="1" fill="srgba(0,159,202,1)"/>
  <circle cx="3" cy="9" r="1" fill="srgba(0,159,202,1)"/>
  <circle cx="4" cy="9" r="1" fill="srgba(0,159,202,1)"/>
  <circle cx="5" cy="9" r="1" fill="srgba(0,159,202,1)"/>
  <circle cx="6" cy="9" r="1" fill="srgba(0,159,202,1)"/>
  <circle cx="7" cy="9" r="1" fill="srgba(0,159,202,1)"/>
  <circle cx="8" cy="9" r="1" fill="srgba(0%,62.3423%,79.2401%,1)"/>
  <circle cx="9" cy="9" r="1" fill="srgba(0%,62.2705%,79.3973%,1)"/>
  <circle cx="10" cy="9" r="1" fill="srgba(31.1254%,72.7276%,56.1456%,1)"/>
  <circle cx="11" cy="9" r="1" fill="srgba(34.9905%,74.0169%,53.2799%,1)"/>
  <circle cx="12" cy="9" r="1" fill="srgba(12.6574%,66.5721%,69.8314%,1)"/>
  <circle cx="13" cy="9" r="1" fill="srgba(5.42306%,64.1306%,75.2621%,1)"/>
  <circle cx="14" cy="9" r="1" fill="srgba(0%,62.1332%,79.707%,1)"/>
  <circle cx="15" cy="9" r="1" fill="srgba(0%,62.2766%,79.3179%,1)"/>
  <circle cx="0" cy="10" r="1" fill="srgba(0,159,202,1)"/>
  <circle cx="1" cy="10" r="1" fill="srgba(0,159,202,1)"/>
  <circle cx="2" cy="10" r="1" fill="srgba(0,159,202,1)"/>
  <circle cx="3" cy="10" r="1" fill="srgba(0,159,202,1)"/>
  <circle cx="4" cy="10" r="1" fill="srgba(0,159,202,1)"/>
  <circle cx="5" cy="10" r="1" fill="srgba(0,159,202,1)"/>
  <circle cx="6" cy="10" r="1" fill="srgba(0,159,202,1)"/>
  <circle cx="7" cy="10" r="1" fill="srgba(0.0122072%,62.3651%,79.1867%,1)"/>
  <circle cx="8" cy="10" r="1" fill="srgba(0.135805%,62.179%,79.6002%,1)"/>
  <circle cx="9" cy="10" r="1" fill="srgba(0.215152%,62.2309%,79.4888%,1)"/>
  <circle cx="10" cy="10" r="1" fill="srgba(1.66323%,62.8077%,78.2055%,1)"/>
  <circle cx="11" cy="10" r="1" fill="srgba(1.05287%,62.4979%,78.8922%,1)"/>
  <circle cx="12" cy="10" r="1" fill="srgba(0%,61.976%,80.0519%,1)"/>
  <circle cx="13" cy="10" r="1" fill="srgba(1.85397%,62.8382%,78.1353%,1)"/>
  <circle cx="14" cy="10" r="1" fill="srgba(8.84718%,65.3071%,72.6467%,1)"/>
  <circle cx="15" cy="10" r="1" fill="srgba(2.73594%,63.2502%,77.1908%,1)"/>
  <circle cx="0" cy="11" r="1" fill="srgba(0,159,202,1)"/>
  <circle cx="1" cy="11" r="1" fill="srgba(0,159,202,1)"/>
  <circle cx="2" cy="11" r="1" fill="srgba(0,159,202,1)"/>
  <circle cx="3" cy="11" r="1" fill="srgba(0,159,202,1)"/>
  <circle cx="4" cy="11" r="1" fill="srgba(0,159,202,1)"/>
  <circle cx="5" cy="11" r="1" fill="srgba(0,159,202,1)"/>
  <circle cx="6" cy="11" r="1" fill="srgba(0%,62.3514%,79.2187%,1)"/>
  <circle cx="7" cy="11" r="1" fill="srgba(0%,62.2385%,79.469%,1)"/>
  <circle cx="8" cy="11" r="1" fill="srgba(25.2552%,70.7683%,60.5005%,1)"/>
  <circle cx="9" cy="11" r="1" fill="srgba(22.6017%,69.8878%,62.4613%,1)"/>
  <circle cx="10" cy="11" r="1" fill="srgba(0%,62.0478%,79.8932%,1)"/>
  <circle cx="11" cy="11" r="1" fill="srgba(0.445563%,62.359%,79.202%,1)"/>
  <circle cx="12" cy="11" r="1" fill="srgba(5.14992%,64.0711%,75.3964%,1)"/>
  <circle cx="13" cy="11" r="1" fill="srgba(5.45205%,64.1703%,75.1736%,1)"/>
  <circle cx="14" cy="11" r="1" fill="srgba(18.5306%,68.5298%,65.478%,1)"/>
  <circle cx="15" cy="11" r="1" fill="srgba(8.14984%,65.0721%,73.2113%,1)"/>
  <circle cx="0" cy="12" r="1" fill="srgba(0,159,202,1)"/>
  <circle cx="1" cy="12" r="1" fill="srgba(0,159,202,1)"/>
  <circle cx="2" cy="12" r="1" fill="srgba(0,159,202,1)"/>
  <circle cx="3" cy="12" r="1" fill="srgba(0,159,202,1)"/>
  <circle cx="4" cy="12" r="1" fill="srgba(0,159,202,1)"/>
  <circle cx="5" cy="12" r="1" fill="srgba(0,159,202,1)"/>
  <circle cx="6" cy="12" r="1" fill="srgba(0%,62.3285%,79.2706%,1)"/>
  <circle cx="7" cy="12" r="1" fill="srgba(0.666819%,62.5757%,78.7213%,1)"/>
  <circle cx="8" cy="12" r="1" fill="srgba(31.9722%,73.0098%,55.5184%,1)"/>
  <circle cx="9" cy="12" r="1" fill="srgba(24.9393%,70.6569%,60.7462%,1)"/>
  <circle cx="10" cy="12" r="1" fill="srgba(4.71504%,63.8834%,75.8129%,1)"/>
  <circle cx="11" cy="12" r="1" fill="srgba(6.92912%,64.6403%,74.1314%,1)"/>
  <circle cx="12" cy="12" r="1" fill="srgba(19.7375%,68.925%,64.6021%,1)"/>
  <circle cx="13" cy="12" r="1" fill="srgba(12.5017%,66.508%,69.9779%,1)"/>
  <circle cx="14" cy="12" r="1" fill="srgba(0%,62.1363%,79.6933%,1)"/>
  <circle cx="15" cy="12" r="1" fill="srgba(0.0640879%,62.3346%,79.2966%,1)"/>
  <circle cx="0" cy="13" r="1" fill="srgba(0,159,202,1)"/>
  <circle cx="1" cy="13" r="1" fill="srgba(0,159,202,1)"/>
  <circle cx="2" cy="13" r="1" fill="srgba(0,159,202,1)"/>
  <circle cx="3" cy="13" r="1" fill="srgba(0,159,202,1)"/>
  <circle cx="4" cy="13" r="1" fill="srgba(0%,62.3529%,79.2172%,1)"/>
  <circle cx="5" cy="13" r="1" fill="srgba(0.0350958%,62.3636%,79.1913%,1)"/>
  <circle cx="6" cy="13" r="1" fill="srgba(0.0961318%,62.2309%,79.4888%,1)"/>
  <circle cx="7" cy="13" r="1" fill="srgba(0%,62.1408%,79.6887%,1)"/>
  <circle cx="8" cy="13" r="1" fill="srgba(24.097%,70.3838%,61.355%,1)"/>
  <circle cx="9" cy="13" r="1" fill="srgba(20.3189%,69.1264%,64.155%,1)"/>
  <circle cx="10" cy="13" r="1" fill="srgba(34.2306%,73.7621%,53.8445%,1)"/>
  <circle cx="11" cy="13" r="1" fill="srgba(40.6638%,75.9014%,49.0852%,1)"/>
  <circle cx="12" cy="13" r="1" fill="srgba(0.852979%,62.5696%,78.7335%,1)"/>
  <circle cx="13" cy="13" r="1" fill="srgba(0.442512%,62.4765%,78.941%,1)"/>
  <circle cx="14" cy="13" r="1" fill="srgba(0%,62.3484%,79.2233%,1)"/>
  <circle cx="15" cy="13" r="1" fill="srgba(0.0381476%,62.3682%,79.2233%,1)"/>
  <circle cx="0" cy="14" r="1" fill="srgba(0,159,202,1)"/>
  <circle cx="1" cy="14" r="1" fill="srgba(0,159,202,1)"/>
  <circle cx="2" cy="14" r="1" fill="srgba(0,159,202,1)"/>
  <circle cx="3" cy="14" r="1" fill="srgba(0,159,202,1)"/>
  <circle cx="4" cy="14" r="1" fill="srgba(0%,62.3423%,79.2401%,1)"/>
  <circle cx="5" cy="14" r="1" fill="srgba(0.364691%,62.475%,78.9456%,1)"/>
  <circle cx="6" cy="14" r="1" fill="srgba(14.6304%,67.2297%,68.3726%,1)"/>
  <circle cx="7" cy="14" r="1" fill="srgba(11.6472%,66.2348%,70.5852%,1)"/>
  <circle cx="8" cy="14" r="1" fill="srgba(33.3425%,73.4661%,54.5037%,1)"/>
  <circle cx="9" cy="14" r="1" fill="srgba(26.7933%,71.2856%,59.3576%,1)"/>
  <circle cx="10" cy="14" r="1" fill="srgba(10.66%,65.9068%,71.3161%,1)"/>
  <circle cx="11" cy="14" r="1" fill="srgba(9.62081%,65.5573%,72.0897%,1)"/>
  <circle cx="12" cy="14" r="1" fill="srgba(0.00762951%,62.3484%,79.2248%,1)"/>
  <circle cx="13" cy="14" r="1" fill="srgba(0%,62.3423%,79.2401%,1)"/>
  <circle cx="14" cy="14" r="1" fill="srgba(0,159,202,1)"/>
  <circle cx="15" cy="14" r="1" fill="srgba(0.0381476%,62.3682%,79.2233%,1)"/>
  <circle cx="0" cy="15" r="1" fill="srgba(0,159,202,1)"/>
  <circle cx="1" cy="15" r="1" fill="srgba(0,159,202,1)"/>
  <circle cx="2" cy="15" r="1" fill="srgba(0,159,202,1)"/>
  <circle cx="3" cy="15" r="1" fill="srgba(0,159,202,1)"/>
  <circle cx="4" cy="15" r="1" fill="srgba(0%,62.3499%,79.2218%,1)"/>
  <circle cx="5" cy="15" r="1" fill="srgba(0.170901%,62.4094%,79.089%,1)"/>
  <circle cx="6" cy="15" r="1" fill="srgba(10.3502%,65.8015%,71.545%,1)"/>
  <circle cx="7" cy="15" r="1" fill="srgba(9.14321%,65.4032%,72.4331%,1)"/>
  <circle cx="8" cy="15" r="1" fill="srgba(1.31685%,62.6062%,78.6542%,1)"/>
  <circle cx="9" cy="15" r="1" fill="srgba(0.621042%,62.3331%,79.2584%,1)"/>
  <circle cx="10" cy="15" r="1" fill="srgba(0%,62.1118%,79.7528%,1)"/>
  <circle cx="11" cy="15" r="1" fill="srgba(0%,62.1637%,79.6384%,1)"/>
  <circle cx="12" cy="15" r="1" fill="srgba(0%,62.3514%,79.2203%,1)"/>
  <circle cx="13" cy="15" r="1" fill="srgba(0%,62.3529%,79.2142%,1)"/>
  <circle cx="14" cy="15" r="1" fill="srgba(0%,62.3514%,79.2157%,1)"/>
  <circle cx="15" cy="15" r="1" fill="srgba(0.0381476%,62.3682%,79.2233%,1)"/>
</svg>
