<?xml version="1.0" standalone="no"?>
<!DOCTYPE svg PUBLIC "-//W3C//DTD SVG 20010904//EN"
  "http://www.w3.org/TR/2001/REC-SVG-20010904/DTD/svg10.dtd">
<svg width="16" height="16">
  <circle cx="0" cy="0" r="1" fill="srgba(8,57,156,1)"/>
  <circle cx="1" cy="0" r="1" fill="srgba(8,57,156,1)"/>
  <circle cx="2" cy="0" r="1" fill="srgba(8,57,156,1)"/>
  <circle cx="3" cy="0" r="1" fill="srgba(3.18151%,22.388%,61.1948%,1)"/>
  <circle cx="4" cy="0" r="1" fill="srgba(2.74357%,22.0371%,61.0193%,1)"/>
  <circle cx="5" cy="0" r="1" fill="srgba(4.19471%,23.2013%,61.6007%,1)"/>
  <circle cx="6" cy="0" r="1" fill="srgba(4.51514%,23.4577%,61.7288%,1)"/>
  <circle cx="7" cy="0" r="1" fill="srgba(2.69322%,21.9974%,60.9979%,1)"/>
  <circle cx="8" cy="0" r="1" fill="srgba(3.19524%,22.4002%,61.1994%,1)"/>
  <circle cx="9" cy="0" r="1" fill="srgba(3.13573%,22.3529%,61.1765%,1)"/>
  <circle cx="10" cy="0" r="1" fill="srgba(2.62913%,22.4094%,61.5091%,1)"/>
  <circle cx="11" cy="0" r="1" fill="srgba(11.0353%,21.4649%,56.0082%,1)"/>
  <circle cx="12" cy="0" r="1" fill="srgba(74.432%,14.3542%,14.5342%,1)"/>
  <circle cx="13" cy="0" r="1" fill="srgba(87.8721%,12.8496%,5.74197%,1)"/>
  <circle cx="14" cy="0" r="1" fill="srgba(87.0588%,12.9397%,6.27298%,1)"/>
  <circle cx="15" cy="0" r="1" fill="srgba(87.0665%,12.9641%,6.30503%,1)"/>
  <circle cx="0" cy="1" r="1" fill="srgba(8,57,156,1)"/>
  <circle cx="1" cy="1" r="1" fill="srgba(8,57,156,1)"/>
  <circle cx="2" cy="1" r="1" fill="srgba(3.17388%,22.3819%,61.1917%,1)"/>
  <circle cx="3" cy="1" r="1" fill="srgba(2.5452%,21.8784%,60.9384%,1)"/>
  <circle cx="4" cy="1" r="1" fill="srgba(19.7528%,35.6725%,67.8355%,1)"/>
  <circle cx="5" cy="1" r="1" fill="srgba(35.1263%,47.9973%,73.9971%,1)"/>
  <circle cx="6" cy="1" r="1" fill="srgba(36.6751%,49.2378%,74.6166%,1)"/>
  <circle cx="7" cy="1" r="1" fill="srgba(21.6693%,37.2091%,68.6046%,1)"/>
  <circle cx="8" cy="1" r="1" fill="srgba(2.84581%,22.1195%,61.0605%,1)"/>
  <circle cx="9" cy="1" r="1" fill="srgba(3.18914%,22.3941%,61.1978%,1)"/>
  <circle cx="10" cy="1" r="1" fill="srgba(2.6276%,22.4094%,61.5091%,1)"/>
  <circle cx="11" cy="1" r="1" fill="srgba(11.0353%,21.4649%,56.0082%,1)"/>
  <circle cx="12" cy="1" r="1" fill="srgba(74.432%,14.3542%,14.5342%,1)"/>
  <circle cx="13" cy="1" r="1" fill="srgba(87.8721%,12.8496%,5.74197%,1)"/>
  <circle cx="14" cy="1" r="1" fill="srgba(87.0588%,12.9397%,6.27298%,1)"/>
  <circle cx="15" cy="1" r="1" fill="srgba(87.0665%,12.9641%,6.30503%,1)"/>
  <circle cx="0" cy="2" r="1" fill="srgba(8,57,156,1)"/>
  <circle cx="1" cy="2" r="1" fill="srgba(3.13878%,22.3545%,61.1765%,1)"/>
  <circle cx="2" cy="2" r="1" fill="srgba(2.65965%,21.9699%,60.9857%,1)"/>
  <circle cx="3" cy="2" r="1" fill="srgba(19.3179%,35.3231%,67.6616%,1)"/>
  <circle cx="4" cy="2" r="1" fill="srgba(61.001%,68.7388%,84.3687%,1)"/>
  <circle cx="5" cy="2" r="1" fill="srgba(92.0638%,93.6385%,96.8185%,1)"/>
  <circle cx="6" cy="2" r="1" fill="srgba(92.8267%,94.2504%,97.1237%,1)"/>
  <circle cx="7" cy="2" r="1" fill="srgba(65.1896%,72.0958%,86.0472%,1)"/>
  <circle cx="8" cy="2" r="1" fill="srgba(22.2644%,37.6852%,68.8426%,1)"/>
  <circle cx="9" cy="2" r="1" fill="srgba(2.83665%,22.1118%,61.0559%,1)"/>
  <circle cx="10" cy="2" r="1" fill="srgba(2.62303%,22.4048%,61.5061%,1)"/>
  <circle cx="11" cy="2" r="1" fill="srgba(11.0353%,21.4649%,56.0082%,1)"/>
  <circle cx="12" cy="2" r="1" fill="srgba(74.432%,14.3542%,14.5342%,1)"/>
  <circle cx="13" cy="2" r="1" fill="srgba(87.8721%,12.8496%,5.74197%,1)"/>
  <circle cx="14" cy="2" r="1" fill="srgba(87.0588%,12.9397%,6.27298%,1)"/>
  <circle cx="15" cy="2" r="1" fill="srgba(87.0665%,12.9641%,6.30503%,1)"/>
  <circle cx="0" cy="3" r="1" fill="srgba(8,57,156,1)"/>
  <circle cx="1" cy="3" r="1" fill="srgba(3.04723%,22.2812%,61.1398%,1)"/>
  <circle cx="2" cy="3" r="1" fill="srgba(3.83459%,22.9114%,61.4557%,1)"/>
  <circle cx="3" cy="3" r="1" fill="srgba(33.1762%,46.4332%,73.2158%,1)"/>
  <circle cx="4" cy="3" r="1" fill="srgba(91.0796%,92.8511%,96.4248%,1)"/>
  <circle cx="5" cy="3" r="1" fill="white"/>
  <circle cx="6" cy="3" r="1" fill="white"/>
  <circle cx="7" cy="3" r="1" fill="srgba(93.8384%,95.0607%,97.5296%,1)"/>
  <circle cx="8" cy="3" r="1" fill="srgba(38.6221%,50.7988%,75.3979%,1)"/>
  <circle cx="9" cy="3" r="1" fill="srgba(4.61128%,23.5355%,61.767%,1)"/>
  <circle cx="10" cy="3" r="1" fill="srgba(2.48875%,22.2965%,61.4527%,1)"/>
  <circle cx="11" cy="3" r="1" fill="srgba(11.0353%,21.4649%,56.0082%,1)"/>
  <circle cx="12" cy="3" r="1" fill="srgba(74.432%,14.3542%,14.5342%,1)"/>
  <circle cx="13" cy="3" r="1" fill="srgba(87.8721%,12.8496%,5.74197%,1)"/>
  <circle cx="14" cy="3" r="1" fill="srgba(87.0588%,12.9397%,6.27298%,1)"/>
  <circle cx="15" cy="3" r="1" fill="srgba(87.0665%,12.9641%,6.30503%,1)"/>
  <circle cx="0" cy="4" r="1" fill="srgba(8,57,156,1)"/>
  <circle cx="1" cy="4" r="1" fill="srgba(3.04723%,22.2797%,61.1398%,1)"/>
  <circle cx="2" cy="4" r="1" fill="srgba(3.85443%,22.9282%,61.4649%,1)"/>
  <circle cx="3" cy="4" r="1" fill="srgba(32.9747%,46.273%,73.135%,1)"/>
  <circle cx="4" cy="4" r="1" fill="srgba(90.8919%,92.7001%,96.35%,1)"/>
  <circle cx="5" cy="4" r="1" fill="white"/>
  <circle cx="6" cy="4" r="1" fill="white"/>
  <circle cx="7" cy="4" r="1" fill="srgba(93.991%,95.0851%,97.6349%,1)"/>
  <circle cx="8" cy="4" r="1" fill="srgba(38.2498%,50.4707%,75.2636%,1)"/>
  <circle cx="9" cy="4" r="1" fill="srgba(4.43427%,23.3951%,61.6953%,1)"/>
  <circle cx="10" cy="4" r="1" fill="srgba(2.4979%,22.3056%,61.4572%,1)"/>
  <circle cx="11" cy="4" r="1" fill="srgba(11.0353%,21.4649%,56.0082%,1)"/>
  <circle cx="12" cy="4" r="1" fill="srgba(74.432%,14.3542%,14.5342%,1)"/>
  <circle cx="13" cy="4" r="1" fill="srgba(87.8721%,12.8496%,5.74197%,1)"/>
  <circle cx="14" cy="4" r="1" fill="srgba(87.0588%,12.9397%,6.27298%,1)"/>
  <circle cx="15" cy="4" r="1" fill="srgba(87.0665%,12.9641%,6.30503%,1)"/>
  <circle cx="0" cy="5" r="1" fill="srgba(8,57,156,1)"/>
  <circle cx="1" cy="5" r="1" fill="srgba(3.13878%,22.3545%,61.1765%,1)"/>
  <circle cx="2" cy="5" r="1" fill="srgba(2.63981%,21.9547%,60.9766%,1)"/>
  <circle cx="3" cy="5" r="1" fill="srgba(18.9532%,35.0301%,67.5166%,1)"/>
  <circle cx="4" cy="5" r="1" fill="srgba(60.322%,68.1788%,84.1047%,1)"/>
  <circle cx="5" cy="5" r="1" fill="srgba(90.2464%,92.3613%,95.9899%,1)"/>
  <circle cx="6" cy="5" r="1" fill="srgba(80.061%,86.3569%,90.724%,1)"/>
  <circle cx="7" cy="5" r="1" fill="srgba(47.4815%,61.9974%,76.701%,1)"/>
  <circle cx="8" cy="5" r="1" fill="srgba(22.1286%,37.9675%,68.5725%,1)"/>
  <circle cx="9" cy="5" r="1" fill="srgba(2.93889%,22.1332%,61.1307%,1)"/>
  <circle cx="10" cy="5" r="1" fill="srgba(2.61997%,22.4048%,61.5045%,1)"/>
  <circle cx="11" cy="5" r="1" fill="srgba(11.0353%,21.4649%,56.0082%,1)"/>
  <circle cx="12" cy="5" r="1" fill="srgba(74.432%,14.3542%,14.5342%,1)"/>
  <circle cx="13" cy="5" r="1" fill="srgba(87.8721%,12.8496%,5.74197%,1)"/>
  <circle cx="14" cy="5" r="1" fill="srgba(87.0588%,12.9397%,6.27298%,1)"/>
  <circle cx="15" cy="5" r="1" fill="srgba(87.0665%,12.9641%,6.30503%,1)"/>
  <circle cx="0" cy="6" r="1" fill="srgba(2.48112%,22.4262%,61.6052%,1)"/>
  <circle cx="1" cy="6" r="1" fill="srgba(2.48112%,22.4262%,61.6052%,1)"/>
  <circle cx="2" cy="6" r="1" fill="srgba(2.51774%,22.4552%,61.6205%,1)"/>
  <circle cx="3" cy="6" r="1" fill="srgba(1.8555%,21.9242%,61.355%,1)"/>
  <circle cx="4" cy="6" r="1" fill="srgba(19.2859%,35.7977%,68.4123%,1)"/>
  <circle cx="5" cy="6" r="1" fill="srgba(24.3626%,41.5061%,69.2882%,1)"/>
  <circle cx="6" cy="6" r="1" fill="srgba(10.4921%,38.9151%,58.2681%,1)"/>
  <circle cx="7" cy="6" r="1" fill="srgba(0.0671397%,31.4473%,52.7413%,1)"/>
  <circle cx="8" cy="6" r="1" fill="srgba(1.46792%,27.1046%,56.8963%,1)"/>
  <circle cx="9" cy="6" r="1" fill="srgba(3.05943%,22.6383%,61.0254%,1)"/>
  <circle cx="10" cy="6" r="1" fill="srgba(2.13016%,22.417%,61.8845%,1)"/>
  <circle cx="11" cy="6" r="1" fill="srgba(10.4326%,21.5335%,56.4004%,1)"/>
  <circle cx="12" cy="6" r="1" fill="srgba(74.3328%,14.3648%,14.5983%,1)"/>
  <circle cx="13" cy="6" r="1" fill="srgba(87.8782%,12.8496%,5.73892%,1)"/>
  <circle cx="14" cy="6" r="1" fill="srgba(87.0588%,12.9397%,6.27298%,1)"/>
  <circle cx="15" cy="6" r="1" fill="srgba(87.0665%,12.9641%,6.30503%,1)"/>
  <circle cx="0" cy="7" r="1" fill="srgba(13.2662%,21.2177%,54.548%,1)"/>
  <circle cx="1" cy="7" r="1" fill="srgba(13.2662%,21.2177%,54.548%,1)"/>
  <circle cx="2" cy="7" r="1" fill="srgba(13.2662%,21.2177%,54.548%,1)"/>
  <circle cx="3" cy="7" r="1" fill="srgba(13.3013%,21.2467%,54.5617%,1)"/>
  <circle cx="4" cy="7" r="1" fill="srgba(13.2052%,20.8835%,54.4625%,1)"/>
  <circle cx="5" cy="7" r="1" fill="srgba(9.60555%,22.8977%,54.1222%,1)"/>
  <circle cx="6" cy="7" r="1" fill="srgba(0.616464%,31.6136%,52.9747%,1)"/>
  <circle cx="7" cy="7" r="1" fill="srgba(0%,32.6238%,52.874%,1)"/>
  <circle cx="8" cy="7" r="1" fill="srgba(0.0579843%,32.3247%,53.1518%,1)"/>
  <circle cx="9" cy="7" r="1" fill="srgba(2.1088%,27.4449%,56.6506%,1)"/>
  <circle cx="10" cy="7" r="1" fill="srgba(11.0536%,21.7166%,55.7336%,1)"/>
  <circle cx="11" cy="7" r="1" fill="srgba(20.589%,20.3433%,49.8085%,1)"/>
  <circle cx="12" cy="7" r="1" fill="srgba(75.9426%,14.1863%,13.5439%,1)"/>
  <circle cx="13" cy="7" r="1" fill="srgba(87.7745%,12.8618%,5.80758%,1)"/>
  <circle cx="14" cy="7" r="1" fill="srgba(87.0588%,12.9397%,6.27298%,1)"/>
  <circle cx="15" cy="7" r="1" fill="srgba(87.0665%,12.9641%,6.30503%,1)"/>
  <circle cx="0" cy="8" r="1" fill="srgba(76.9436%,14.0764%,12.8908%,1)"/>
  <circle cx="1" cy="8" r="1" fill="srgba(76.9436%,14.0764%,12.8908%,1)"/>
  <circle cx="2" cy="8" r="1" fill="srgba(76.9436%,14.0764%,12.8908%,1)"/>
  <circle cx="3" cy="8" r="1" fill="srgba(76.9436%,14.0764%,12.8908%,1)"/>
  <circle cx="4" cy="8" r="1" fill="srgba(78.1186%,13.7881%,12.2698%,1)"/>
  <circle cx="5" cy="8" r="1" fill="srgba(56.4446%,18.9456%,23.6072%,1)"/>
  <circle cx="6" cy="8" r="1" fill="srgba(2.31174%,31.9722%,51.7556%,1)"/>
  <circle cx="7" cy="8" r="1" fill="srgba(0%,32.5826%,53.0144%,1)"/>
  <circle cx="8" cy="8" r="1" fill="srgba(0%,32.6024%,52.9397%,1)"/>
  <circle cx="9" cy="8" r="1" fill="srgba(0.347906%,32.3079%,52.9427%,1)"/>
  <circle cx="10" cy="8" r="1" fill="srgba(32.961%,24.0497%,36.3958%,1)"/>
  <circle cx="11" cy="8" r="1" fill="srgba(75.4803%,14.5083%,13.5668%,1)"/>
  <circle cx="12" cy="8" r="1" fill="srgba(85.9983%,13.0083%,7.0222%,1)"/>
  <circle cx="13" cy="8" r="1" fill="srgba(87.1565%,12.9305%,6.21042%,1)"/>
  <circle cx="14" cy="8" r="1" fill="srgba(87.0832%,12.9335%,6.25925%,1)"/>
  <circle cx="15" cy="8" r="1" fill="srgba(87.1061%,12.9549%,6.28367%,1)"/>
  <circle cx="0" cy="9" r="1" fill="srgba(87.7134%,12.8679%,5.84573%,1)"/>
  <circle cx="1" cy="9" r="1" fill="srgba(87.7134%,12.8679%,5.84573%,1)"/>
  <circle cx="2" cy="9" r="1" fill="srgba(87.7104%,12.8679%,5.84726%,1)"/>
  <circle cx="3" cy="9" r="1" fill="srgba(87.7623%,12.8573%,5.81979%,1)"/>
  <circle cx="4" cy="9" r="1" fill="srgba(90.3273%,12.2744%,4.43122%,1)"/>
  <circle cx="5" cy="9" r="1" fill="srgba(59.5392%,19.2905%,21.1887%,1)"/>
  <circle cx="6" cy="9" r="1" fill="srgba(0.901808%,32.6757%,53.2311%,1)"/>
  <circle cx="7" cy="9" r="1" fill="srgba(0%,32.8862%,53.7453%,1)"/>
  <circle cx="8" cy="9" r="1" fill="srgba(0%,32.8511%,53.6629%,1)"/>
  <circle cx="9" cy="9" r="1" fill="srgba(0%,32.8985%,53.7209%,1)"/>
  <circle cx="10" cy="9" r="1" fill="srgba(2.18662%,32.3445%,52.2164%,1)"/>
  <circle cx="11" cy="9" r="1" fill="srgba(41.6175%,23.2425%,30.5608%,1)"/>
  <circle cx="12" cy="9" r="1" fill="srgba(83.4257%,13.7713%,8.21088%,1)"/>
  <circle cx="13" cy="9" r="1" fill="srgba(87.3777%,12.8679%,6.10513%,1)"/>
  <circle cx="14" cy="9" r="1" fill="srgba(87.0359%,12.9442%,6.28519%,1)"/>
  <circle cx="15" cy="9" r="1" fill="srgba(86.6712%,13.0526%,6.51713%,1)"/>
  <circle cx="0" cy="10" r="1" fill="srgba(222,33,16,1)"/>
  <circle cx="1" cy="10" r="1" fill="srgba(222,33,16,1)"/>
  <circle cx="2" cy="10" r="1" fill="srgba(87.1443%,12.9213%,6.22873%,1)"/>
  <circle cx="3" cy="10" r="1" fill="srgba(85.7725%,13.2311%,6.96422%,1)"/>
  <circle cx="4" cy="10" r="1" fill="srgba(62.6154%,18.4466%,19.379%,1)"/>
  <circle cx="5" cy="10" r="1" fill="srgba(47.0527%,21.9516%,27.7195%,1)"/>
  <circle cx="6" cy="10" r="1" fill="srgba(36.4584%,24.3381%,33.3989%,1)"/>
  <circle cx="7" cy="10" r="1" fill="srgba(38.5763%,23.8605%,32.2637%,1)"/>
  <circle cx="8" cy="10" r="1" fill="srgba(40.8484%,23.3494%,31.046%,1)"/>
  <circle cx="9" cy="10" r="1" fill="srgba(43.1296%,22.8351%,29.8222%,1)"/>
  <circle cx="10" cy="10" r="1" fill="srgba(45.0156%,22.4109%,28.8121%,1)"/>
  <circle cx="11" cy="10" r="1" fill="srgba(50.37%,21.2039%,25.9419%,1)"/>
  <circle cx="12" cy="10" r="1" fill="srgba(64.6586%,17.9858%,18.2803%,1)"/>
  <circle cx="13" cy="10" r="1" fill="srgba(38.587%,23.8575%,32.2591%,1)"/>
  <circle cx="14" cy="10" r="1" fill="srgba(32.224%,25.2903%,35.668%,1)"/>
  <circle cx="15" cy="10" r="1" fill="srgba(30.8904%,25.6001%,36.3928%,1)"/>
  <circle cx="0" cy="11" r="1" fill="srgba(222,33,16,1)"/>
  <circle cx="1" cy="11" r="1" fill="srgba(222,33,16,1)"/>
  <circle cx="2" cy="11" r="1" fill="srgba(87.1015%,12.932%,6.25162%,1)"/>
  <circle cx="3" cy="11" r="1" fill="srgba(87.0054%,12.9534%,6.3035%,1)"/>
  <circle cx="4" cy="11" r="1" fill="srgba(49.7978%,21.3336%,26.2486%,1)"/>
  <circle cx="5" cy="11" r="1" fill="srgba(47.7943%,21.7853%,27.3228%,1)"/>
  <circle cx="6" cy="11" r="1" fill="srgba(88.2689%,12.6696%,5.626%,1)"/>
  <circle cx="7" cy="11" r="1" fill="srgba(87.8538%,12.7626%,5.84878%,1)"/>
  <circle cx="8" cy="11" r="1" fill="srgba(88.0674%,12.7138%,5.73434%,1)"/>
  <circle cx="9" cy="11" r="1" fill="srgba(88.2383%,12.6757%,5.64279%,1)"/>
  <circle cx="10" cy="11" r="1" fill="srgba(88.3787%,12.6436%,5.56649%,1)"/>
  <circle cx="11" cy="11" r="1" fill="srgba(88.481%,12.6207%,5.51156%,1)"/>
  <circle cx="12" cy="11" r="1" fill="srgba(84.6189%,13.4905%,7.58221%,1)"/>
  <circle cx="13" cy="11" r="1" fill="srgba(44.7883%,22.4582%,28.9281%,1)"/>
  <circle cx="14" cy="11" r="1" fill="srgba(2.85954%,32.2484%,52.2255%,1)"/>
  <circle cx="15" cy="11" r="1" fill="srgba(0%,33.0114%,54.0459%,1)"/>
  <circle cx="0" cy="12" r="1" fill="srgba(222,33,16,1)"/>
  <circle cx="1" cy="12" r="1" fill="srgba(222,33,16,1)"/>
  <circle cx="2" cy="12" r="1" fill="srgba(87.0558%,12.9412%,6.27604%,1)"/>
  <circle cx="3" cy="12" r="1" fill="srgba(87.1977%,12.9107%,6.19974%,1)"/>
  <circle cx="4" cy="12" r="1" fill="srgba(85.977%,13.1853%,6.85435%,1)"/>
  <circle cx="5" cy="12" r="1" fill="srgba(82.9709%,13.8613%,8.46571%,1)"/>
  <circle cx="6" cy="12" r="1" fill="srgba(87.1092%,12.929%,6.24704%,1)"/>
  <circle cx="7" cy="12" r="1" fill="srgba(87.0619%,12.9412%,6.27298%,1)"/>
  <circle cx="8" cy="12" r="1" fill="srgba(222,33,16,1)"/>
  <circle cx="9" cy="12" r="1" fill="srgba(222,33,16,1)"/>
  <circle cx="10" cy="12" r="1" fill="srgba(222,33,16,1)"/>
  <circle cx="11" cy="12" r="1" fill="srgba(87.0481%,12.9427%,6.28061%,1)"/>
  <circle cx="12" cy="12" r="1" fill="srgba(87.4067%,12.8634%,6.08835%,1)"/>
  <circle cx="13" cy="12" r="1" fill="srgba(85.7847%,13.228%,6.95811%,1)"/>
  <circle cx="14" cy="12" r="1" fill="srgba(46.5492%,22.0645%,27.9881%,1)"/>
  <circle cx="15" cy="12" r="1" fill="srgba(4.1474%,31.7403%,51.0216%,1)"/>
  <circle cx="0" cy="13" r="1" fill="srgba(222,33,16,1)"/>
  <circle cx="1" cy="13" r="1" fill="srgba(222,33,16,1)"/>
  <circle cx="2" cy="13" r="1" fill="srgba(222,33,16,1)"/>
  <circle cx="3" cy="13" r="1" fill="srgba(87.0542%,12.9427%,6.27756%,1)"/>
  <circle cx="4" cy="13" r="1" fill="srgba(87.1534%,12.9198%,6.22416%,1)"/>
  <circle cx="5" cy="13" r="1" fill="srgba(87.3243%,12.8817%,6.1326%,1)"/>
  <circle cx="6" cy="13" r="1" fill="srgba(87.0558%,12.9412%,6.27604%,1)"/>
  <circle cx="7" cy="13" r="1" fill="srgba(222,33,16,1)"/>
  <circle cx="8" cy="13" r="1" fill="srgba(222,33,16,1)"/>
  <circle cx="9" cy="13" r="1" fill="srgba(222,33,16,1)"/>
  <circle cx="10" cy="13" r="1" fill="srgba(222,33,16,1)"/>
  <circle cx="11" cy="13" r="1" fill="srgba(222,33,16,1)"/>
  <circle cx="12" cy="13" r="1" fill="srgba(87.0497%,12.9427%,6.27909%,1)"/>
  <circle cx="13" cy="13" r="1" fill="srgba(87.393%,12.8664%,6.09445%,1)"/>
  <circle cx="14" cy="13" r="1" fill="srgba(85.3071%,13.3364%,7.21447%,1)"/>
  <circle cx="15" cy="13" r="1" fill="srgba(52.9442%,20.6271%,24.564%,1)"/>
  <circle cx="0" cy="14" r="1" fill="srgba(87.0573%,12.9351%,6.26688%,1)"/>
  <circle cx="1" cy="14" r="1" fill="srgba(87.0573%,12.9351%,6.26688%,1)"/>
  <circle cx="2" cy="14" r="1" fill="srgba(87.0573%,12.9351%,6.26688%,1)"/>
  <circle cx="3" cy="14" r="1" fill="srgba(87.0573%,12.9351%,6.26688%,1)"/>
  <circle cx="4" cy="14" r="1" fill="srgba(87.0573%,12.9351%,6.26688%,1)"/>
  <circle cx="5" cy="14" r="1" fill="srgba(87.0573%,12.9351%,6.26688%,1)"/>
  <circle cx="6" cy="14" r="1" fill="srgba(87.0573%,12.9351%,6.26688%,1)"/>
  <circle cx="7" cy="14" r="1" fill="srgba(87.0573%,12.9351%,6.26688%,1)"/>
  <circle cx="8" cy="14" r="1" fill="srgba(87.0573%,12.9351%,6.26688%,1)"/>
  <circle cx="9" cy="14" r="1" fill="srgba(87.0573%,12.9351%,6.26688%,1)"/>
  <circle cx="10" cy="14" r="1" fill="srgba(87.0573%,12.9351%,6.26688%,1)"/>
  <circle cx="11" cy="14" r="1" fill="srgba(87.0573%,12.9351%,6.26688%,1)"/>
  <circle cx="12" cy="14" r="1" fill="srgba(87.0573%,12.9351%,6.26688%,1)"/>
  <circle cx="13" cy="14" r="1" fill="srgba(87.0481%,12.9366%,6.27146%,1)"/>
  <circle cx="14" cy="14" r="1" fill="srgba(87.2618%,12.8878%,6.15549%,1)"/>
  <circle cx="15" cy="14" r="1" fill="srgba(87.1641%,12.9335%,6.24247%,1)"/>
  <circle cx="0" cy="15" r="1" fill="srgba(87.0741%,13.0571%,6.39811%,1)"/>
  <circle cx="1" cy="15" r="1" fill="srgba(87.0741%,13.0571%,6.39811%,1)"/>
  <circle cx="2" cy="15" r="1" fill="srgba(87.0741%,13.0571%,6.39811%,1)"/>
  <circle cx="3" cy="15" r="1" fill="srgba(87.0741%,13.0571%,6.39811%,1)"/>
  <circle cx="4" cy="15" r="1" fill="srgba(87.0741%,13.0571%,6.39811%,1)"/>
  <circle cx="5" cy="15" r="1" fill="srgba(87.0741%,13.0571%,6.39811%,1)"/>
  <circle cx="6" cy="15" r="1" fill="srgba(87.0741%,13.0571%,6.39811%,1)"/>
  <circle cx="7" cy="15" r="1" fill="srgba(87.0741%,13.0571%,6.39811%,1)"/>
  <circle cx="8" cy="15" r="1" fill="srgba(87.0741%,13.0571%,6.39811%,1)"/>
  <circle cx="9" cy="15" r="1" fill="srgba(87.0741%,13.0571%,6.39811%,1)"/>
  <circle cx="10" cy="15" r="1" fill="srgba(87.0741%,13.0571%,6.39811%,1)"/>
  <circle cx="11" cy="15" r="1" fill="srgba(87.0741%,13.0571%,6.39811%,1)"/>
  <circle cx="12" cy="15" r="1" fill="srgba(87.0741%,13.0571%,6.39811%,1)"/>
  <circle cx="13" cy="15" r="1" fill="srgba(87.0741%,13.0571%,6.39811%,1)"/>
  <circle cx="14" cy="15" r="1" fill="srgba(87.071%,13.0556%,6.39811%,1)"/>
  <circle cx="15" cy="15" r="1" fill="srgba(87.129%,13.0694%,6.40421%,1)"/>
</svg>
