<?xml version="1.0" standalone="no"?>
<!DOCTYPE svg PUBLIC "-//W3C//DTD SVG 20010904//EN"
  "http://www.w3.org/TR/2001/REC-SVG-20010904/DTD/svg10.dtd">
<svg width="16" height="16">
  <circle cx="0" cy="0" r="1" fill="srgba(0%,60%,0.00762951%,1)"/>
  <circle cx="1" cy="0" r="1" fill="srgba(0,153,0,1)"/>
  <circle cx="2" cy="0" r="1" fill="srgba(0,153,0,1)"/>
  <circle cx="3" cy="0" r="1" fill="srgba(0,153,0,1)"/>
  <circle cx="4" cy="0" r="1" fill="srgba(0,153,0,1)"/>
  <circle cx="5" cy="0" r="1" fill="srgba(0,153,0,1)"/>
  <circle cx="6" cy="0" r="1" fill="srgba(0,153,0,1)"/>
  <circle cx="7" cy="0" r="1" fill="srgba(0,153,0,1)"/>
  <circle cx="8" cy="0" r="1" fill="srgba(0,153,0,1)"/>
  <circle cx="9" cy="0" r="1" fill="srgba(0,153,0,1)"/>
  <circle cx="10" cy="0" r="1" fill="srgba(0%,60.0061%,0%,1)"/>
  <circle cx="11" cy="0" r="1" fill="srgba(0%,59.8505%,0%,1)"/>
  <circle cx="12" cy="0" r="1" fill="srgba(0%,59.4934%,0%,1)"/>
  <circle cx="13" cy="0" r="1" fill="srgba(19.2767%,68.0751%,0%,1)"/>
  <circle cx="14" cy="0" r="1" fill="srgba(72.3735%,88.7327%,0%,1)"/>
  <circle cx="15" cy="0" r="1" fill="srgba(77.1923%,77.2351%,0%,1)"/>
  <circle cx="0" cy="1" r="1" fill="srgba(0%,60%,0.00762951%,1)"/>
  <circle cx="1" cy="1" r="1" fill="srgba(0,153,0,1)"/>
  <circle cx="2" cy="1" r="1" fill="srgba(0,153,0,1)"/>
  <circle cx="3" cy="1" r="1" fill="srgba(0,153,0,1)"/>
  <circle cx="4" cy="1" r="1" fill="srgba(0,153,0,1)"/>
  <circle cx="5" cy="1" r="1" fill="srgba(0,153,0,1)"/>
  <circle cx="6" cy="1" r="1" fill="srgba(0,153,0,1)"/>
  <circle cx="7" cy="1" r="1" fill="srgba(0,153,0,1)"/>
  <circle cx="8" cy="1" r="1" fill="srgba(0,153,0,1)"/>
  <circle cx="9" cy="1" r="1" fill="srgba(0%,59.9954%,0%,1)"/>
  <circle cx="10" cy="1" r="1" fill="srgba(0%,59.5666%,0%,1)"/>
  <circle cx="11" cy="1" r="1" fill="srgba(3.90326%,61.3825%,0%,1)"/>
  <circle cx="12" cy="1" r="1" fill="srgba(39.4125%,76.5591%,0%,1)"/>
  <circle cx="13" cy="1" r="1" fill="srgba(77.8683%,86.8391%,0%,1)"/>
  <circle cx="14" cy="1" r="1" fill="srgba(51.6304%,51.3558%,0%,1)"/>
  <circle cx="15" cy="1" r="1" fill="srgba(10.5562%,10.515%,0%,1)"/>
  <circle cx="0" cy="2" r="1" fill="srgba(0%,60%,0.00762951%,1)"/>
  <circle cx="1" cy="2" r="1" fill="srgba(0,153,0,1)"/>
  <circle cx="2" cy="2" r="1" fill="srgba(0,153,0,1)"/>
  <circle cx="3" cy="2" r="1" fill="srgba(0,153,0,1)"/>
  <circle cx="4" cy="2" r="1" fill="srgba(0,153,0,1)"/>
  <circle cx="5" cy="2" r="1" fill="srgba(0,153,0,1)"/>
  <circle cx="6" cy="2" r="1" fill="srgba(0,153,0,1)"/>
  <circle cx="7" cy="2" r="1" fill="srgba(0%,60.0061%,0%,1)"/>
  <circle cx="8" cy="2" r="1" fill="srgba(0%,59.8688%,0%,1)"/>
  <circle cx="9" cy="2" r="1" fill="srgba(0%,59.556%,0%,1)"/>
  <circle cx="10" cy="2" r="1" fill="srgba(16.91%,67.0848%,0%,1)"/>
  <circle cx="11" cy="2" r="1" fill="srgba(64.4923%,85.8732%,0%,1)"/>
  <circle cx="12" cy="2" r="1" fill="srgba(73.434%,74.8882%,0%,1)"/>
  <circle cx="13" cy="2" r="1" fill="srgba(27.1504%,26.5553%,0%,1)"/>
  <circle cx="14" cy="2" r="1" fill="srgba(1.08797%,1.08492%,0%,1)"/>
  <circle cx="15" cy="2" r="1" fill="srgba(0%,0%,0.0015259%,1)"/>
  <circle cx="0" cy="3" r="1" fill="srgba(0%,60%,0.00762951%,1)"/>
  <circle cx="1" cy="3" r="1" fill="srgba(0,153,0,1)"/>
  <circle cx="2" cy="3" r="1" fill="srgba(0,153,0,1)"/>
  <circle cx="3" cy="3" r="1" fill="srgba(0,153,0,1)"/>
  <circle cx="4" cy="3" r="1" fill="srgba(0,153,0,1)"/>
  <circle cx="5" cy="3" r="1" fill="srgba(0,153,0,1)"/>
  <circle cx="6" cy="3" r="1" fill="srgba(0%,59.9954%,0%,1)"/>
  <circle cx="7" cy="3" r="1" fill="srgba(0%,59.5636%,0%,1)"/>
  <circle cx="8" cy="3" r="1" fill="srgba(3.93378%,61.3931%,0%,1)"/>
  <circle cx="9" cy="3" r="1" fill="srgba(39.7177%,76.6857%,0%,1)"/>
  <circle cx="10" cy="3" r="1" fill="srgba(78.4787%,87.0497%,0%,1)"/>
  <circle cx="11" cy="3" r="1" fill="srgba(52.3857%,51.6655%,0%,1)"/>
  <circle cx="12" cy="3" r="1" fill="srgba(8.92958%,8.76783%,0%,1)"/>
  <circle cx="13" cy="3" r="1" fill="black"/>
  <circle cx="14" cy="3" r="1" fill="black"/>
  <circle cx="15" cy="3" r="1" fill="srgba(0%,0.015259%,0.0244144%,1)"/>
  <circle cx="0" cy="4" r="1" fill="srgba(0%,60%,0.00762951%,1)"/>
  <circle cx="1" cy="4" r="1" fill="srgba(0,153,0,1)"/>
  <circle cx="2" cy="4" r="1" fill="srgba(0,153,0,1)"/>
  <circle cx="3" cy="4" r="1" fill="srgba(0,153,0,1)"/>
  <circle cx="4" cy="4" r="1" fill="srgba(0%,60.0061%,0%,1)"/>
  <circle cx="5" cy="4" r="1" fill="srgba(0%,59.8688%,0%,1)"/>
  <circle cx="6" cy="4" r="1" fill="srgba(0%,59.5544%,0%,1)"/>
  <circle cx="7" cy="4" r="1" fill="srgba(16.9131%,67.0863%,0%,1)"/>
  <circle cx="8" cy="4" r="1" fill="srgba(64.4938%,85.8732%,0%,1)"/>
  <circle cx="9" cy="4" r="1" fill="srgba(73.4188%,74.8745%,0%,1)"/>
  <circle cx="10" cy="4" r="1" fill="srgba(27.1397%,26.5446%,0%,1)"/>
  <circle cx="11" cy="4" r="1" fill="srgba(1.09712%,1.0956%,0%,1)"/>
  <circle cx="12" cy="4" r="1" fill="black"/>
  <circle cx="13" cy="4" r="1" fill="black"/>
  <circle cx="14" cy="4" r="1" fill="black"/>
  <circle cx="15" cy="4" r="1" fill="srgba(0%,0%,0.0320439%,1)"/>
  <circle cx="0" cy="5" r="1" fill="srgba(0%,60%,0.00762951%,1)"/>
  <circle cx="1" cy="5" r="1" fill="srgba(0,153,0,1)"/>
  <circle cx="2" cy="5" r="1" fill="srgba(0,153,0,1)"/>
  <circle cx="3" cy="5" r="1" fill="srgba(0%,59.9954%,0%,1)"/>
  <circle cx="4" cy="5" r="1" fill="srgba(0%,59.5636%,0%,1)"/>
  <circle cx="5" cy="5" r="1" fill="srgba(3.93378%,61.3931%,0%,1)"/>
  <circle cx="6" cy="5" r="1" fill="srgba(39.7162%,76.6857%,0%,1)"/>
  <circle cx="7" cy="5" r="1" fill="srgba(78.4756%,87.0466%,0%,1)"/>
  <circle cx="8" cy="5" r="1" fill="srgba(52.3827%,51.6609%,0%,1)"/>
  <circle cx="9" cy="5" r="1" fill="srgba(8.92653%,8.76478%,0%,1)"/>
  <circle cx="10" cy="5" r="1" fill="black"/>
  <circle cx="11" cy="5" r="1" fill="black"/>
  <circle cx="12" cy="5" r="1" fill="black"/>
  <circle cx="13" cy="5" r="1" fill="black"/>
  <circle cx="14" cy="5" r="1" fill="srgba(0.0793469%,0.0808728%,0%,1)"/>
  <circle cx="15" cy="5" r="1" fill="srgba(9.7734%,9.65133%,0.0015259%,1)"/>
  <circle cx="0" cy="6" r="1" fill="srgba(0%,60%,0.00762951%,1)"/>
  <circle cx="1" cy="6" r="1" fill="srgba(0%,60.0061%,0%,1)"/>
  <circle cx="2" cy="6" r="1" fill="srgba(0%,59.8688%,0%,1)"/>
  <circle cx="3" cy="6" r="1" fill="srgba(0%,59.5544%,0%,1)"/>
  <circle cx="4" cy="6" r="1" fill="srgba(16.91%,67.0848%,0%,1)"/>
  <circle cx="5" cy="6" r="1" fill="srgba(64.4938%,85.8732%,0%,1)"/>
  <circle cx="6" cy="6" r="1" fill="srgba(73.4203%,74.8745%,0%,1)"/>
  <circle cx="7" cy="6" r="1" fill="srgba(27.1351%,26.5415%,0%,1)"/>
  <circle cx="8" cy="6" r="1" fill="srgba(1.0956%,1.09407%,0%,1)"/>
  <circle cx="9" cy="6" r="1" fill="black"/>
  <circle cx="10" cy="6" r="1" fill="black"/>
  <circle cx="11" cy="6" r="1" fill="black"/>
  <circle cx="12" cy="6" r="1" fill="black"/>
  <circle cx="13" cy="6" r="1" fill="srgba(2.42466%,2.4033%,0%,1)"/>
  <circle cx="14" cy="6" r="1" fill="srgba(34.3511%,33.7423%,0%,1)"/>
  <circle cx="15" cy="6" r="1" fill="srgba(76.2631%,78.0072%,3.45159%,1)"/>
  <circle cx="0" cy="7" r="1" fill="srgba(0%,59.9939%,0.00762951%,1)"/>
  <circle cx="1" cy="7" r="1" fill="srgba(0%,59.5666%,0%,1)"/>
  <circle cx="2" cy="7" r="1" fill="srgba(3.9353%,61.3931%,0%,1)"/>
  <circle cx="3" cy="7" r="1" fill="srgba(39.7208%,76.6873%,0%,1)"/>
  <circle cx="4" cy="7" r="1" fill="srgba(78.468%,87.0405%,0%,1)"/>
  <circle cx="5" cy="7" r="1" fill="srgba(52.3705%,51.6487%,0%,1)"/>
  <circle cx="6" cy="7" r="1" fill="srgba(8.92653%,8.76478%,0%,1)"/>
  <circle cx="7" cy="7" r="1" fill="black"/>
  <circle cx="8" cy="7" r="1" fill="black"/>
  <circle cx="9" cy="7" r="1" fill="black"/>
  <circle cx="10" cy="7" r="1" fill="black"/>
  <circle cx="11" cy="7" r="1" fill="black"/>
  <circle cx="12" cy="7" r="1" fill="srgba(13.0419%,12.781%,0%,1)"/>
  <circle cx="13" cy="7" r="1" fill="srgba(59.4186%,58.9624%,0.242618%,1)"/>
  <circle cx="14" cy="7" r="1" fill="srgba(75.7046%,87.7531%,20.1282%,1)"/>
  <circle cx="15" cy="7" r="1" fill="srgba(36.3439%,75.3277%,64.9958%,1)"/>
  <circle cx="0" cy="8" r="1" fill="srgba(0%,59.5239%,0.00762951%,1)"/>
  <circle cx="1" cy="8" r="1" fill="srgba(16.7819%,67.0298%,0%,1)"/>
  <circle cx="2" cy="8" r="1" fill="srgba(64.4923%,85.8717%,0%,1)"/>
  <circle cx="3" cy="8" r="1" fill="srgba(73.4096%,74.8638%,0%,1)"/>
  <circle cx="4" cy="8" r="1" fill="srgba(27.1275%,26.5324%,0%,1)"/>
  <circle cx="5" cy="8" r="1" fill="srgba(1.09407%,1.09255%,0%,1)"/>
  <circle cx="6" cy="8" r="1" fill="black"/>
  <circle cx="7" cy="8" r="1" fill="black"/>
  <circle cx="8" cy="8" r="1" fill="black"/>
  <circle cx="9" cy="8" r="1" fill="black"/>
  <circle cx="10" cy="8" r="1" fill="srgba(2.42466%,2.4033%,0%,1)"/>
  <circle cx="11" cy="8" r="1" fill="srgba(34.0124%,33.2921%,0%,1)"/>
  <circle cx="12" cy="8" r="1" fill="srgba(76.8643%,79.7498%,5.28573%,1)"/>
  <circle cx="13" cy="8" r="1" fill="srgba(57.9736%,83.7232%,42.8855%,1)"/>
  <circle cx="14" cy="8" r="1" fill="srgba(11.9997%,64.9561%,88.3925%,1)"/>
  <circle cx="15" cy="8" r="1" fill="srgba(0%,59.4156%,100%,1)"/>
  <circle cx="0" cy="9" r="1" fill="srgba(43.9567%,78.4695%,0.00610361%,1)"/>
  <circle cx="1" cy="9" r="1" fill="srgba(77.9294%,86.8589%,0%,1)"/>
  <circle cx="2" cy="9" r="1" fill="srgba(52.3659%,51.6457%,0%,1)"/>
  <circle cx="3" cy="9" r="1" fill="srgba(8.92042%,8.7602%,0%,1)"/>
  <circle cx="4" cy="9" r="1" fill="black"/>
  <circle cx="5" cy="9" r="1" fill="black"/>
  <circle cx="6" cy="9" r="1" fill="black"/>
  <circle cx="7" cy="9" r="1" fill="black"/>
  <circle cx="8" cy="9" r="1" fill="black"/>
  <circle cx="9" cy="9" r="1" fill="srgba(13.0358%,12.7749%,0%,1)"/>
  <circle cx="10" cy="9" r="1" fill="srgba(59.4141%,58.9563%,0.242618%,1)"/>
  <circle cx="11" cy="9" r="1" fill="srgba(76.2631%,87.9576%,19.5377%,1)"/>
  <circle cx="12" cy="9" r="1" fill="srgba(32.5185%,73.7118%,68.6412%,1)"/>
  <circle cx="13" cy="9" r="1" fill="srgba(2.09354%,60.5539%,97.9339%,1)"/>
  <circle cx="14" cy="9" r="1" fill="srgba(0%,59.6597%,100%,1)"/>
  <circle cx="15" cy="9" r="1" fill="srgba(0.030518%,60.0198%,100%,1)"/>
  <circle cx="0" cy="10" r="1" fill="srgba(71.6854%,72.3262%,0.0015259%,1)"/>
  <circle cx="1" cy="10" r="1" fill="srgba(27.5456%,27.0329%,0%,1)"/>
  <circle cx="2" cy="10" r="1" fill="srgba(1.09407%,1.09255%,0%,1)"/>
  <circle cx="3" cy="10" r="1" fill="black"/>
  <circle cx="4" cy="10" r="1" fill="black"/>
  <circle cx="5" cy="10" r="1" fill="black"/>
  <circle cx="6" cy="10" r="1" fill="black"/>
  <circle cx="7" cy="10" r="1" fill="srgba(2.42313%,2.40177%,0%,1)"/>
  <circle cx="8" cy="10" r="1" fill="srgba(34.0108%,33.2906%,0%,1)"/>
  <circle cx="9" cy="10" r="1" fill="srgba(76.8597%,79.7452%,5.28267%,1)"/>
  <circle cx="10" cy="10" r="1" fill="srgba(57.9736%,83.7232%,42.8855%,1)"/>
  <circle cx="11" cy="10" r="1" fill="srgba(12.0989%,64.9989%,88.2963%,1)"/>
  <circle cx="12" cy="10" r="1" fill="srgba(0%,59.4583%,100%,1)"/>
  <circle cx="13" cy="10" r="1" fill="srgba(0%,59.9252%,100%,1)"/>
  <circle cx="14" cy="10" r="1" fill="srgba(0%,60.0031%,100%,1)"/>
  <circle cx="15" cy="10" r="1" fill="srgba(0.030518%,60.0153%,100%,1)"/>
  <circle cx="0" cy="11" r="1" fill="srgba(6.26383%,6.19974%,0%,1)"/>
  <circle cx="1" cy="11" r="1" fill="black"/>
  <circle cx="2" cy="11" r="1" fill="black"/>
  <circle cx="3" cy="11" r="1" fill="black"/>
  <circle cx="4" cy="11" r="1" fill="black"/>
  <circle cx="5" cy="11" r="1" fill="black"/>
  <circle cx="6" cy="11" r="1" fill="srgba(13.0373%,12.7764%,0%,1)"/>
  <circle cx="7" cy="11" r="1" fill="srgba(59.4125%,58.9548%,0.241093%,1)"/>
  <circle cx="8" cy="11" r="1" fill="srgba(76.26%,87.9545%,19.5392%,1)"/>
  <circle cx="9" cy="11" r="1" fill="srgba(32.5246%,73.7148%,68.6351%,1)"/>
  <circle cx="10" cy="11" r="1" fill="srgba(2.09354%,60.5539%,97.9339%,1)"/>
  <circle cx="11" cy="11" r="1" fill="srgba(0%,59.6582%,100%,1)"/>
  <circle cx="12" cy="11" r="1" fill="srgba(0%,60.0031%,100%,1)"/>
  <circle cx="13" cy="11" r="1" fill="srgba(0,153,255,1)"/>
  <circle cx="14" cy="11" r="1" fill="srgba(0%,59.9985%,100%,1)"/>
  <circle cx="15" cy="11" r="1" fill="srgba(0.030518%,60.0153%,100%,1)"/>
  <circle cx="0" cy="12" r="1" fill="black"/>
  <circle cx="1" cy="12" r="1" fill="black"/>
  <circle cx="2" cy="12" r="1" fill="black"/>
  <circle cx="3" cy="12" r="1" fill="black"/>
  <circle cx="4" cy="12" r="1" fill="srgba(2.42313%,2.40177%,0%,1)"/>
  <circle cx="5" cy="12" r="1" fill="srgba(34.0078%,33.2876%,0%,1)"/>
  <circle cx="6" cy="12" r="1" fill="srgba(76.8627%,79.7452%,5.28267%,1)"/>
  <circle cx="7" cy="12" r="1" fill="srgba(57.9782%,83.7247%,42.8809%,1)"/>
  <circle cx="8" cy="12" r="1" fill="srgba(12.1004%,65.0004%,88.2948%,1)"/>
  <circle cx="9" cy="12" r="1" fill="srgba(0%,59.4583%,100%,1)"/>
  <circle cx="10" cy="12" r="1" fill="srgba(0%,59.9252%,100%,1)"/>
  <circle cx="11" cy="12" r="1" fill="srgba(0%,60.0031%,100%,1)"/>
  <circle cx="12" cy="12" r="1" fill="srgba(0,153,255,1)"/>
  <circle cx="13" cy="12" r="1" fill="srgba(0,153,255,1)"/>
  <circle cx="14" cy="12" r="1" fill="srgba(0%,59.9985%,100%,1)"/>
  <circle cx="15" cy="12" r="1" fill="srgba(0.030518%,60.0153%,100%,1)"/>
  <circle cx="0" cy="13" r="1" fill="srgba(0%,0.00762951%,0.0015259%,1)"/>
  <circle cx="1" cy="13" r="1" fill="black"/>
  <circle cx="2" cy="13" r="1" fill="black"/>
  <circle cx="3" cy="13" r="1" fill="srgba(13.0312%,12.7718%,0%,1)"/>
  <circle cx="4" cy="13" r="1" fill="srgba(59.4125%,58.9502%,0.234989%,1)"/>
  <circle cx="5" cy="13" r="1" fill="srgba(76.3455%,87.9927%,19.4553%,1)"/>
  <circle cx="6" cy="13" r="1" fill="srgba(32.5826%,73.7392%,68.5786%,1)"/>
  <circle cx="7" cy="13" r="1" fill="srgba(2.09049%,60.5524%,97.937%,1)"/>
  <circle cx="8" cy="13" r="1" fill="srgba(0%,59.6582%,100%,1)"/>
  <circle cx="9" cy="13" r="1" fill="srgba(0%,60.0031%,100%,1)"/>
  <circle cx="10" cy="13" r="1" fill="srgba(0,153,255,1)"/>
  <circle cx="11" cy="13" r="1" fill="srgba(0,153,255,1)"/>
  <circle cx="12" cy="13" r="1" fill="srgba(0,153,255,1)"/>
  <circle cx="13" cy="13" r="1" fill="srgba(0,153,255,1)"/>
  <circle cx="14" cy="13" r="1" fill="srgba(0%,59.9985%,100%,1)"/>
  <circle cx="15" cy="13" r="1" fill="srgba(0.030518%,60.0153%,100%,1)"/>
  <circle cx="0" cy="14" r="1" fill="srgba(0%,0%,0.00762951%,1)"/>
  <circle cx="1" cy="14" r="1" fill="srgba(2.72831%,2.73289%,0%,1)"/>
  <circle cx="2" cy="14" r="1" fill="srgba(33.9345%,33.576%,0%,1)"/>
  <circle cx="3" cy="14" r="1" fill="srgba(76.2844%,79.6002%,5.72366%,1)"/>
  <circle cx="4" cy="14" r="1" fill="srgba(57.6303%,83.5859%,43.2273%,1)"/>
  <circle cx="5" cy="14" r="1" fill="srgba(12.0592%,64.9851%,88.3268%,1)"/>
  <circle cx="6" cy="14" r="1" fill="srgba(0%,59.4614%,100%,1)"/>
  <circle cx="7" cy="14" r="1" fill="srgba(0%,59.9222%,100%,1)"/>
  <circle cx="8" cy="14" r="1" fill="srgba(0,153,255,1)"/>
  <circle cx="9" cy="14" r="1" fill="srgba(0%,59.9969%,100%,1)"/>
  <circle cx="10" cy="14" r="1" fill="srgba(0%,59.9969%,100%,1)"/>
  <circle cx="11" cy="14" r="1" fill="srgba(0%,59.9969%,100%,1)"/>
  <circle cx="12" cy="14" r="1" fill="srgba(0%,59.9969%,100%,1)"/>
  <circle cx="13" cy="14" r="1" fill="srgba(0%,59.9969%,100%,1)"/>
  <circle cx="14" cy="14" r="1" fill="srgba(0%,59.9954%,100%,1)"/>
  <circle cx="15" cy="14" r="1" fill="srgba(0.030518%,60.0122%,100%,1)"/>
  <circle cx="0" cy="15" r="1" fill="srgba(6.69108%,6.74296%,0.0808728%,1)"/>
  <circle cx="1" cy="15" r="1" fill="srgba(52.7672%,52.4636%,0%,1)"/>
  <circle cx="2" cy="15" r="1" fill="srgba(83.5386%,90.5119%,11.693%,1)"/>
  <circle cx="3" cy="15" r="1" fill="srgba(37.4182%,75.7748%,64.0391%,1)"/>
  <circle cx="4" cy="15" r="1" fill="srgba(2.46281%,60.6958%,97.6257%,1)"/>
  <circle cx="5" cy="15" r="1" fill="srgba(0%,59.6628%,100%,1)"/>
  <circle cx="6" cy="15" r="1" fill="srgba(0.122072%,60.058%,100%,1)"/>
  <circle cx="7" cy="15" r="1" fill="srgba(0.131228%,60.0534%,100%,1)"/>
  <circle cx="8" cy="15" r="1" fill="srgba(0.131228%,60.0534%,100%,1)"/>
  <circle cx="9" cy="15" r="1" fill="srgba(0.131228%,60.0534%,100%,1)"/>
  <circle cx="10" cy="15" r="1" fill="srgba(0.131228%,60.0534%,100%,1)"/>
  <circle cx="11" cy="15" r="1" fill="srgba(0.131228%,60.0534%,100%,1)"/>
  <circle cx="12" cy="15" r="1" fill="srgba(0.131228%,60.0534%,100%,1)"/>
  <circle cx="13" cy="15" r="1" fill="srgba(0.131228%,60.0534%,100%,1)"/>
  <circle cx="14" cy="15" r="1" fill="srgba(0.129702%,60.0519%,100%,1)"/>
  <circle cx="15" cy="15" r="1" fill="srgba(0.161746%,60.0687%,100%,1)"/>
</svg>
