<?xml version="1.0" standalone="no"?>
<!DOCTYPE svg PUBLIC "-//W3C//DTD SVG 20010904//EN"
  "http://www.w3.org/TR/2001/REC-SVG-20010904/DTD/svg10.dtd">
<svg width="16" height="16">
  <circle cx="0" cy="0" r="1" fill="black"/>
  <circle cx="1" cy="0" r="1" fill="black"/>
  <circle cx="2" cy="0" r="1" fill="black"/>
  <circle cx="3" cy="0" r="1" fill="black"/>
  <circle cx="4" cy="0" r="1" fill="black"/>
  <circle cx="5" cy="0" r="1" fill="black"/>
  <circle cx="6" cy="0" r="1" fill="black"/>
  <circle cx="7" cy="0" r="1" fill="black"/>
  <circle cx="8" cy="0" r="1" fill="black"/>
  <circle cx="9" cy="0" r="1" fill="black"/>
  <circle cx="10" cy="0" r="1" fill="black"/>
  <circle cx="11" cy="0" r="1" fill="black"/>
  <circle cx="12" cy="0" r="1" fill="black"/>
  <circle cx="13" cy="0" r="1" fill="black"/>
  <circle cx="14" cy="0" r="1" fill="black"/>
  <circle cx="15" cy="0" r="1" fill="srgba(0.030518%,0.030518%,0.030518%,1)"/>
  <circle cx="0" cy="1" r="1" fill="black"/>
  <circle cx="1" cy="1" r="1" fill="black"/>
  <circle cx="2" cy="1" r="1" fill="black"/>
  <circle cx="3" cy="1" r="1" fill="black"/>
  <circle cx="4" cy="1" r="1" fill="black"/>
  <circle cx="5" cy="1" r="1" fill="black"/>
  <circle cx="6" cy="1" r="1" fill="black"/>
  <circle cx="7" cy="1" r="1" fill="black"/>
  <circle cx="8" cy="1" r="1" fill="black"/>
  <circle cx="9" cy="1" r="1" fill="black"/>
  <circle cx="10" cy="1" r="1" fill="black"/>
  <circle cx="11" cy="1" r="1" fill="black"/>
  <circle cx="12" cy="1" r="1" fill="black"/>
  <circle cx="13" cy="1" r="1" fill="black"/>
  <circle cx="14" cy="1" r="1" fill="black"/>
  <circle cx="15" cy="1" r="1" fill="srgba(0%,0%,0.030518%,1)"/>
  <circle cx="0" cy="2" r="1" fill="srgba(35.6497%,32.3522%,0.634775%,1)"/>
  <circle cx="1" cy="2" r="1" fill="srgba(35.6497%,32.3522%,0.634775%,1)"/>
  <circle cx="2" cy="2" r="1" fill="srgba(35.6497%,32.3522%,0.634775%,1)"/>
  <circle cx="3" cy="2" r="1" fill="srgba(35.6497%,32.3522%,0.634775%,1)"/>
  <circle cx="4" cy="2" r="1" fill="srgba(35.6497%,32.3522%,0.634775%,1)"/>
  <circle cx="5" cy="2" r="1" fill="srgba(35.6497%,32.3522%,0.634775%,1)"/>
  <circle cx="6" cy="2" r="1" fill="srgba(35.6497%,32.3522%,0.634775%,1)"/>
  <circle cx="7" cy="2" r="1" fill="srgba(35.6497%,32.3522%,0.634775%,1)"/>
  <circle cx="8" cy="2" r="1" fill="srgba(35.6497%,32.3522%,0.634775%,1)"/>
  <circle cx="9" cy="2" r="1" fill="srgba(35.6497%,32.3522%,0.634775%,1)"/>
  <circle cx="10" cy="2" r="1" fill="srgba(35.6497%,32.3522%,0.634775%,1)"/>
  <circle cx="11" cy="2" r="1" fill="srgba(35.6497%,32.3522%,0.634775%,1)"/>
  <circle cx="12" cy="2" r="1" fill="srgba(35.6497%,32.3522%,0.634775%,1)"/>
  <circle cx="13" cy="2" r="1" fill="srgba(35.6497%,32.3522%,0.634775%,1)"/>
  <circle cx="14" cy="2" r="1" fill="srgba(35.6481%,32.3507%,0.633249%,1)"/>
  <circle cx="15" cy="2" r="1" fill="srgba(35.6695%,32.372%,0.665293%,1)"/>
  <circle cx="0" cy="3" r="1" fill="srgba(99.5956%,90.2556%,0.129702%,1)"/>
  <circle cx="1" cy="3" r="1" fill="srgba(99.5956%,90.2556%,0.129702%,1)"/>
  <circle cx="2" cy="3" r="1" fill="srgba(99.5956%,90.2556%,0.129702%,1)"/>
  <circle cx="3" cy="3" r="1" fill="srgba(99.5956%,90.2556%,0.129702%,1)"/>
  <circle cx="4" cy="3" r="1" fill="srgba(99.5956%,90.2556%,0.129702%,1)"/>
  <circle cx="5" cy="3" r="1" fill="srgba(99.5956%,90.2556%,0.129702%,1)"/>
  <circle cx="6" cy="3" r="1" fill="srgba(99.5956%,90.2556%,0.129702%,1)"/>
  <circle cx="7" cy="3" r="1" fill="srgba(99.5956%,90.2556%,0.129702%,1)"/>
  <circle cx="8" cy="3" r="1" fill="srgba(99.5956%,90.2556%,0.129702%,1)"/>
  <circle cx="9" cy="3" r="1" fill="srgba(99.5956%,90.2556%,0.129702%,1)"/>
  <circle cx="10" cy="3" r="1" fill="srgba(99.5956%,90.2556%,0.129702%,1)"/>
  <circle cx="11" cy="3" r="1" fill="srgba(99.5956%,90.2556%,0.129702%,1)"/>
  <circle cx="12" cy="3" r="1" fill="srgba(99.5956%,90.2556%,0.129702%,1)"/>
  <circle cx="13" cy="3" r="1" fill="srgba(99.5956%,90.2556%,0.129702%,1)"/>
  <circle cx="14" cy="3" r="1" fill="srgba(99.5956%,90.2556%,0.128176%,1)"/>
  <circle cx="15" cy="3" r="1" fill="srgba(99.5956%,90.2556%,0.16022%,1)"/>
  <circle cx="0" cy="4" r="1" fill="srgba(100%,90.4189%,0.129702%,1)"/>
  <circle cx="1" cy="4" r="1" fill="srgba(100%,90.4189%,0.129702%,1)"/>
  <circle cx="2" cy="4" r="1" fill="srgba(100%,90.4189%,0.129702%,1)"/>
  <circle cx="3" cy="4" r="1" fill="srgba(100%,90.4189%,0.129702%,1)"/>
  <circle cx="4" cy="4" r="1" fill="srgba(100%,90.4189%,0.129702%,1)"/>
  <circle cx="5" cy="4" r="1" fill="srgba(100%,90.428%,0.123598%,1)"/>
  <circle cx="6" cy="4" r="1" fill="srgba(99.9496%,89.8512%,0.030518%,1)"/>
  <circle cx="7" cy="4" r="1" fill="srgba(99.884%,89.4926%,0.0015259%,1)"/>
  <circle cx="8" cy="4" r="1" fill="srgba(99.9725%,89.7429%,0.0015259%,1)"/>
  <circle cx="9" cy="4" r="1" fill="srgba(100%,90.1198%,0.030518%,1)"/>
  <circle cx="10" cy="4" r="1" fill="srgba(100%,90.4204%,0.123598%,1)"/>
  <circle cx="11" cy="4" r="1" fill="srgba(100%,90.4189%,0.129702%,1)"/>
  <circle cx="12" cy="4" r="1" fill="srgba(100%,90.4189%,0.129702%,1)"/>
  <circle cx="13" cy="4" r="1" fill="srgba(100%,90.4189%,0.129702%,1)"/>
  <circle cx="14" cy="4" r="1" fill="srgba(100%,90.4189%,0.128176%,1)"/>
  <circle cx="15" cy="4" r="1" fill="srgba(100%,90.4189%,0.16022%,1)"/>
  <circle cx="0" cy="5" r="1" fill="srgba(91.7311%,47.01%,2.59098%,1)"/>
  <circle cx="1" cy="5" r="1" fill="srgba(91.7311%,47.01%,2.59098%,1)"/>
  <circle cx="2" cy="5" r="1" fill="srgba(91.7311%,47.01%,2.59098%,1)"/>
  <circle cx="3" cy="5" r="1" fill="srgba(91.7311%,47.01%,2.59098%,1)"/>
  <circle cx="4" cy="5" r="1" fill="srgba(91.7372%,47.0192%,2.60014%,1)"/>
  <circle cx="5" cy="5" r="1" fill="srgba(91.6228%,46.5431%,2.01266%,1)"/>
  <circle cx="6" cy="5" r="1" fill="srgba(92.0912%,56.4843%,15.1659%,1)"/>
  <circle cx="7" cy="5" r="1" fill="srgba(91.165%,70.9102%,29.4713%,1)"/>
  <circle cx="8" cy="5" r="1" fill="srgba(90.0206%,68.2567%,27.2908%,1)"/>
  <circle cx="9" cy="5" r="1" fill="srgba(90.1106%,52.4117%,10.5592%,1)"/>
  <circle cx="10" cy="5" r="1" fill="srgba(91.6228%,46.6606%,2.1622%,1)"/>
  <circle cx="11" cy="5" r="1" fill="srgba(91.7388%,47.0192%,2.60014%,1)"/>
  <circle cx="12" cy="5" r="1" fill="srgba(91.7311%,47.01%,2.59098%,1)"/>
  <circle cx="13" cy="5" r="1" fill="srgba(91.7311%,47.01%,2.59098%,1)"/>
  <circle cx="14" cy="5" r="1" fill="srgba(91.7311%,47.0085%,2.58946%,1)"/>
  <circle cx="15" cy="5" r="1" fill="srgba(91.7357%,47.0253%,2.6215%,1)"/>
  <circle cx="0" cy="6" r="1" fill="srgba(87.512%,21.3306%,3.20439%,1)"/>
  <circle cx="1" cy="6" r="1" fill="srgba(87.512%,21.3306%,3.20439%,1)"/>
  <circle cx="2" cy="6" r="1" fill="srgba(87.512%,21.3306%,3.20439%,1)"/>
  <circle cx="3" cy="6" r="1" fill="srgba(87.512%,21.3306%,3.20439%,1)"/>
  <circle cx="4" cy="6" r="1" fill="srgba(87.4815%,20.7645%,2.47196%,1)"/>
  <circle cx="5" cy="6" r="1" fill="srgba(87.5135%,30.7485%,15.552%,1)"/>
  <circle cx="6" cy="6" r="1" fill="srgba(95.1125%,80.5203%,78.677%,1)"/>
  <circle cx="7" cy="6" r="1" fill="srgba(90.4341%,86.7811%,84.5655%,1)"/>
  <circle cx="8" cy="6" r="1" fill="srgba(92.8603%,86.5431%,84.509%,1)"/>
  <circle cx="9" cy="6" r="1" fill="srgba(93.1731%,75.9884%,73.55%,1)"/>
  <circle cx="10" cy="6" r="1" fill="srgba(87.5074%,30.8034%,15.6451%,1)"/>
  <circle cx="11" cy="6" r="1" fill="srgba(87.2496%,20.5142%,2.23545%,1)"/>
  <circle cx="12" cy="6" r="1" fill="srgba(87.2755%,21.0788%,2.96788%,1)"/>
  <circle cx="13" cy="6" r="1" fill="srgba(87.3701%,21.1795%,3.06249%,1)"/>
  <circle cx="14" cy="6" r="1" fill="srgba(87.512%,21.3291%,3.20287%,1)"/>
  <circle cx="15" cy="6" r="1" fill="srgba(87.5196%,21.3535%,3.23491%,1)"/>
  <circle cx="0" cy="7" r="1" fill="srgba(76.5652%,19.7375%,2.86107%,1)"/>
  <circle cx="1" cy="7" r="1" fill="srgba(76.5652%,19.7375%,2.86107%,1)"/>
  <circle cx="2" cy="7" r="1" fill="srgba(76.5652%,19.7375%,2.86107%,1)"/>
  <circle cx="3" cy="7" r="1" fill="srgba(76.5652%,19.7375%,2.86107%,1)"/>
  <circle cx="4" cy="7" r="1" fill="srgba(76.1608%,18.4451%,1.29702%,1)"/>
  <circle cx="5" cy="7" r="1" fill="srgba(85.2216%,52.1996%,42.649%,1)"/>
  <circle cx="6" cy="7" r="1" fill="srgba(99.2706%,98.9624%,99.292%,1)"/>
  <circle cx="7" cy="7" r="1" fill="srgba(78.1369%,76.3363%,75.172%,1)"/>
  <circle cx="8" cy="7" r="1" fill="srgba(83.9704%,84.564%,84.4053%,1)"/>
  <circle cx="9" cy="7" r="1" fill="srgba(94.8043%,95.4131%,95.8145%,1)"/>
  <circle cx="10" cy="7" r="1" fill="srgba(84.8753%,52.7855%,43.1678%,1)"/>
  <circle cx="11" cy="7" r="1" fill="srgba(80.0961%,22.7604%,5.38643%,1)"/>
  <circle cx="12" cy="7" r="1" fill="srgba(80.7767%,24.2161%,7.0634%,1)"/>
  <circle cx="13" cy="7" r="1" fill="srgba(79.202%,22.5467%,5.49783%,1)"/>
  <circle cx="14" cy="7" r="1" fill="srgba(76.5713%,19.7436%,2.86564%,1)"/>
  <circle cx="15" cy="7" r="1" fill="srgba(76.5728%,19.7574%,2.88853%,1)"/>
  <circle cx="0" cy="8" r="1" fill="srgba(10.5074%,2.77256%,0.47303%,1)"/>
  <circle cx="1" cy="8" r="1" fill="srgba(10.5074%,2.77256%,0.47303%,1)"/>
  <circle cx="2" cy="8" r="1" fill="srgba(10.5074%,2.77256%,0.47303%,1)"/>
  <circle cx="3" cy="8" r="1" fill="srgba(10.5074%,2.77256%,0.47303%,1)"/>
  <circle cx="4" cy="8" r="1" fill="srgba(9.04555%,1.20851%,0%,1)"/>
  <circle cx="5" cy="8" r="1" fill="srgba(46.4042%,42.4842%,41.5732%,1)"/>
  <circle cx="6" cy="8" r="1" fill="srgba(93.4966%,93.135%,93.3837%,1)"/>
  <circle cx="7" cy="8" r="1" fill="srgba(40.2686%,37.3541%,36.1044%,1)"/>
  <circle cx="8" cy="8" r="1" fill="srgba(31.0277%,31.4656%,30.1549%,1)"/>
  <circle cx="9" cy="8" r="1" fill="srgba(48.893%,50.5241%,48.5023%,1)"/>
  <circle cx="10" cy="8" r="1" fill="srgba(37.6974%,35.6634%,33.1533%,1)"/>
  <circle cx="11" cy="8" r="1" fill="srgba(27.6478%,20.9689%,17.5326%,1)"/>
  <circle cx="12" cy="8" r="1" fill="srgba(25.6275%,18.8678%,15.5917%,1)"/>
  <circle cx="13" cy="8" r="1" fill="srgba(19.8672%,12.7382%,9.83444%,1)"/>
  <circle cx="14" cy="8" r="1" fill="srgba(10.6035%,2.8748%,0.569162%,1)"/>
  <circle cx="15" cy="8" r="1" fill="srgba(10.5013%,2.76646%,0.468452%,1)"/>
  <circle cx="0" cy="9" r="1" fill="black"/>
  <circle cx="1" cy="9" r="1" fill="black"/>
  <circle cx="2" cy="9" r="1" fill="black"/>
  <circle cx="3" cy="9" r="1" fill="black"/>
  <circle cx="4" cy="9" r="1" fill="black"/>
  <circle cx="5" cy="9" r="1" fill="srgba(12.5673%,12.5277%,13.2555%,1)"/>
  <circle cx="6" cy="9" r="1" fill="srgba(68.9647%,68.2795%,70.2892%,1)"/>
  <circle cx="7" cy="9" r="1" fill="srgba(35.5734%,32.1294%,31.3832%,1)"/>
  <circle cx="8" cy="9" r="1" fill="srgba(17.6562%,15.9396%,15.4482%,1)"/>
  <circle cx="9" cy="9" r="1" fill="srgba(2.32242%,1.65103%,1.27108%,1)"/>
  <circle cx="10" cy="9" r="1" fill="srgba(1.61898%,2.09812%,2.01419%,1)"/>
  <circle cx="11" cy="9" r="1" fill="srgba(0.688182%,1.2604%,1.32753%,1)"/>
  <circle cx="12" cy="9" r="1" fill="srgba(0.0122072%,0.172427%,0.241093%,1)"/>
  <circle cx="13" cy="9" r="1" fill="black"/>
  <circle cx="14" cy="9" r="1" fill="black"/>
  <circle cx="15" cy="9" r="1" fill="black"/>
  <circle cx="0" cy="10" r="1" fill="srgba(35.6497%,32.3522%,0.634775%,1)"/>
  <circle cx="1" cy="10" r="1" fill="srgba(35.6497%,32.3522%,0.634775%,1)"/>
  <circle cx="2" cy="10" r="1" fill="srgba(35.6497%,32.3522%,0.634775%,1)"/>
  <circle cx="3" cy="10" r="1" fill="srgba(35.6497%,32.3522%,0.634775%,1)"/>
  <circle cx="4" cy="10" r="1" fill="srgba(35.6603%,32.3629%,0.634775%,1)"/>
  <circle cx="5" cy="10" r="1" fill="srgba(35.201%,31.9051%,0.321965%,1)"/>
  <circle cx="6" cy="10" r="1" fill="srgba(45.6046%,41.9684%,10.9895%,1)"/>
  <circle cx="7" cy="10" r="1" fill="srgba(40.0381%,35.4726%,24.4144%,1)"/>
  <circle cx="8" cy="10" r="1" fill="srgba(30.3273%,23.1662%,20.1343%,1)"/>
  <circle cx="9" cy="10" r="1" fill="srgba(7.33654%,0.802625%,0%,1)"/>
  <circle cx="10" cy="10" r="1" fill="black"/>
  <circle cx="11" cy="10" r="1" fill="black"/>
  <circle cx="12" cy="10" r="1" fill="black"/>
  <circle cx="13" cy="10" r="1" fill="black"/>
  <circle cx="14" cy="10" r="1" fill="black"/>
  <circle cx="15" cy="10" r="1" fill="srgba(0.0106813%,0.0106813%,0%,1)"/>
  <circle cx="0" cy="11" r="1" fill="srgba(99.5972%,90.2602%,0.128176%,1)"/>
  <circle cx="1" cy="11" r="1" fill="srgba(99.5972%,90.2602%,0.128176%,1)"/>
  <circle cx="2" cy="11" r="1" fill="srgba(99.5972%,90.2602%,0.128176%,1)"/>
  <circle cx="3" cy="11" r="1" fill="srgba(99.5972%,90.2602%,0.128176%,1)"/>
  <circle cx="4" cy="11" r="1" fill="srgba(99.5972%,90.2602%,0.128176%,1)"/>
  <circle cx="5" cy="11" r="1" fill="srgba(99.6612%,90.3197%,0.122072%,1)"/>
  <circle cx="6" cy="11" r="1" fill="srgba(97.9324%,88.3803%,0%,1)"/>
  <circle cx="7" cy="11" r="1" fill="srgba(59.8169%,52.8801%,11.7861%,1)"/>
  <circle cx="8" cy="11" r="1" fill="srgba(54.7768%,40.029%,14.8669%,1)"/>
  <circle cx="9" cy="11" r="1" fill="srgba(39.8672%,13.2708%,0.68513%,1)"/>
  <circle cx="10" cy="11" r="1" fill="black"/>
  <circle cx="11" cy="11" r="1" fill="black"/>
  <circle cx="12" cy="11" r="1" fill="black"/>
  <circle cx="13" cy="11" r="1" fill="black"/>
  <circle cx="14" cy="11" r="1" fill="black"/>
  <circle cx="15" cy="11" r="1" fill="srgba(0.030518%,0.030518%,0%,1)"/>
  <circle cx="0" cy="12" r="1" fill="srgba(99.9847%,90.3365%,0.158694%,1)"/>
  <circle cx="1" cy="12" r="1" fill="srgba(99.9847%,90.3365%,0.158694%,1)"/>
  <circle cx="2" cy="12" r="1" fill="srgba(99.9847%,90.3365%,0.158694%,1)"/>
  <circle cx="3" cy="12" r="1" fill="srgba(99.9847%,90.3365%,0.158694%,1)"/>
  <circle cx="4" cy="12" r="1" fill="srgba(99.9847%,90.3365%,0.158694%,1)"/>
  <circle cx="5" cy="12" r="1" fill="srgba(100%,90.3655%,0.158694%,1)"/>
  <circle cx="6" cy="12" r="1" fill="srgba(99.8764%,89.9321%,0%,1)"/>
  <circle cx="7" cy="12" r="1" fill="srgba(73.3761%,64.5701%,11.2459%,1)"/>
  <circle cx="8" cy="12" r="1" fill="srgba(58.0911%,51.4305%,13.7865%,1)"/>
  <circle cx="9" cy="12" r="1" fill="srgba(74.7234%,62.7222%,0%,1)"/>
  <circle cx="10" cy="12" r="1" fill="srgba(16.5332%,14.873%,0.120546%,1)"/>
  <circle cx="11" cy="12" r="1" fill="srgba(0%,0%,0.0213626%,1)"/>
  <circle cx="12" cy="12" r="1" fill="srgba(0.384527%,0.0946059%,0.015259%,1)"/>
  <circle cx="13" cy="12" r="1" fill="srgba(0.389105%,0.0991836%,0.015259%,1)"/>
  <circle cx="14" cy="12" r="1" fill="srgba(0.387579%,0.0976577%,0.015259%,1)"/>
  <circle cx="15" cy="12" r="1" fill="srgba(0.419623%,0.129702%,0.015259%,1)"/>
  <circle cx="0" cy="13" r="1" fill="srgba(91.6503%,46.6316%,2.72374%,1)"/>
  <circle cx="1" cy="13" r="1" fill="srgba(91.6503%,46.6316%,2.72374%,1)"/>
  <circle cx="2" cy="13" r="1" fill="srgba(91.6503%,46.6316%,2.72374%,1)"/>
  <circle cx="3" cy="13" r="1" fill="srgba(91.6503%,46.6316%,2.72374%,1)"/>
  <circle cx="4" cy="13" r="1" fill="srgba(91.6503%,46.6316%,2.72374%,1)"/>
  <circle cx="5" cy="13" r="1" fill="srgba(91.6503%,46.6316%,2.72374%,1)"/>
  <circle cx="6" cy="13" r="1" fill="srgba(91.8975%,46.7475%,2.58793%,1)"/>
  <circle cx="7" cy="13" r="1" fill="srgba(82.2019%,37.4166%,6.392%,1)"/>
  <circle cx="8" cy="13" r="1" fill="srgba(73.7179%,30.9178%,7.04051%,1)"/>
  <circle cx="9" cy="13" r="1" fill="srgba(91.9371%,47.1473%,2.533%,1)"/>
  <circle cx="10" cy="13" r="1" fill="srgba(74.9111%,31.4427%,2.55283%,1)"/>
  <circle cx="11" cy="13" r="1" fill="srgba(56.083%,14.342%,2.05386%,1)"/>
  <circle cx="12" cy="13" r="1" fill="srgba(56.1593%,14.4091%,2.0264%,1)"/>
  <circle cx="13" cy="13" r="1" fill="srgba(56.1746%,14.4228%,2.02792%,1)"/>
  <circle cx="14" cy="13" r="1" fill="srgba(56.1746%,14.4228%,2.02792%,1)"/>
  <circle cx="15" cy="13" r="1" fill="srgba(56.17%,14.4289%,2.02792%,1)"/>
  <circle cx="0" cy="14" r="1" fill="srgba(86.8345%,21.1688%,3.17845%,1)"/>
  <circle cx="1" cy="14" r="1" fill="srgba(86.8345%,21.1688%,3.17845%,1)"/>
  <circle cx="2" cy="14" r="1" fill="srgba(86.8345%,21.1688%,3.17845%,1)"/>
  <circle cx="3" cy="14" r="1" fill="srgba(86.8345%,21.1688%,3.17845%,1)"/>
  <circle cx="4" cy="14" r="1" fill="srgba(86.8345%,21.1688%,3.17845%,1)"/>
  <circle cx="5" cy="14" r="1" fill="srgba(86.8345%,21.1688%,3.17845%,1)"/>
  <circle cx="6" cy="14" r="1" fill="srgba(86.8223%,21.1643%,3.18456%,1)"/>
  <circle cx="7" cy="14" r="1" fill="srgba(87.3198%,21.6388%,2.99077%,1)"/>
  <circle cx="8" cy="14" r="1" fill="srgba(87.7073%,21.9379%,2.95109%,1)"/>
  <circle cx="9" cy="14" r="1" fill="srgba(86.8605%,21.1933%,3.18608%,1)"/>
  <circle cx="10" cy="14" r="1" fill="srgba(87.747%,21.9959%,3.17998%,1)"/>
  <circle cx="11" cy="14" r="1" fill="srgba(88.574%,22.7451%,3.18456%,1)"/>
  <circle cx="12" cy="14" r="1" fill="srgba(88.5603%,22.7329%,3.18456%,1)"/>
  <circle cx="13" cy="14" r="1" fill="srgba(88.5634%,22.7359%,3.18761%,1)"/>
  <circle cx="14" cy="14" r="1" fill="srgba(88.5695%,22.7405%,3.19066%,1)"/>
  <circle cx="15" cy="14" r="1" fill="srgba(88.5435%,22.7329%,3.19066%,1)"/>
  <circle cx="0" cy="15" r="1" fill="srgba(87.0741%,22.4537%,3.26085%,1)"/>
  <circle cx="1" cy="15" r="1" fill="srgba(87.0741%,22.4537%,3.26085%,1)"/>
  <circle cx="2" cy="15" r="1" fill="srgba(87.0741%,22.4537%,3.26085%,1)"/>
  <circle cx="3" cy="15" r="1" fill="srgba(87.0741%,22.4537%,3.26085%,1)"/>
  <circle cx="4" cy="15" r="1" fill="srgba(87.0741%,22.4537%,3.26085%,1)"/>
  <circle cx="5" cy="15" r="1" fill="srgba(87.0741%,22.4537%,3.26085%,1)"/>
  <circle cx="6" cy="15" r="1" fill="srgba(87.0741%,22.4537%,3.26085%,1)"/>
  <circle cx="7" cy="15" r="1" fill="srgba(87.0634%,22.4399%,3.24559%,1)"/>
  <circle cx="8" cy="15" r="1" fill="srgba(87.0726%,22.4521%,3.25933%,1)"/>
  <circle cx="9" cy="15" r="1" fill="srgba(87.0741%,22.4537%,3.26085%,1)"/>
  <circle cx="10" cy="15" r="1" fill="srgba(87.0741%,22.4537%,3.26085%,1)"/>
  <circle cx="11" cy="15" r="1" fill="srgba(87.0741%,22.4537%,3.26085%,1)"/>
  <circle cx="12" cy="15" r="1" fill="srgba(87.0756%,22.4552%,3.26238%,1)"/>
  <circle cx="13" cy="15" r="1" fill="srgba(87.0268%,22.4063%,3.21355%,1)"/>
  <circle cx="14" cy="15" r="1" fill="srgba(86.952%,22.3301%,3.13725%,1)"/>
  <circle cx="15" cy="15" r="1" fill="srgba(86.9276%,22.3224%,3.13725%,1)"/>
</svg>
