<?xml version="1.0" standalone="no"?>
<!DOCTYPE svg PUBLIC "-//W3C//DTD SVG 20010904//EN"
  "http://www.w3.org/TR/2001/REC-SVG-20010904/DTD/svg10.dtd">
<svg width="16" height="16">
  <circle cx="0" cy="0" r="1" fill="srgba(12.8176%,21.1566%,38.5931%,1)"/>
  <circle cx="1" cy="0" r="1" fill="srgba(44.8875%,50.161%,61.1841%,1)"/>
  <circle cx="2" cy="0" r="1" fill="srgba(58.4451%,62.4231%,70.7317%,1)"/>
  <circle cx="3" cy="0" r="1" fill="srgba(31.9829%,38.4924%,52.0958%,1)"/>
  <circle cx="4" cy="0" r="1" fill="srgba(19.7345%,27.4128%,43.4638%,1)"/>
  <circle cx="5" cy="0" r="1" fill="srgba(50.9529%,55.6451%,65.4536%,1)"/>
  <circle cx="6" cy="0" r="1" fill="srgba(64.9058%,68.2612%,75.2789%,1)"/>
  <circle cx="7" cy="0" r="1" fill="srgba(34.7555%,40.9949%,54.052%,1)"/>
  <circle cx="8" cy="0" r="1" fill="srgba(18.6007%,26.3935%,42.6703%,1)"/>
  <circle cx="9" cy="0" r="1" fill="srgba(47.2038%,52.2637%,62.8214%,1)"/>
  <circle cx="10" cy="0" r="1" fill="srgba(64.6509%,68.1788%,75.2667%,1)"/>
  <circle cx="11" cy="0" r="1" fill="srgba(37.1969%,40.8331%,53.2937%,1)"/>
  <circle cx="12" cy="0" r="1" fill="srgba(63.4287%,30.695%,36.3317%,1)"/>
  <circle cx="13" cy="0" r="1" fill="srgba(78.0774%,33.312%,35.5306%,1)"/>
  <circle cx="14" cy="0" r="1" fill="srgba(77.2885%,33.2525%,35.6634%,1)"/>
  <circle cx="15" cy="0" r="1" fill="srgba(77.3388%,33.4127%,35.819%,1)"/>
  <circle cx="0" cy="1" r="1" fill="srgba(10.7485%,19.2859%,37.1359%,1)"/>
  <circle cx="1" cy="1" r="1" fill="srgba(24.8524%,32.0424%,47.071%,1)"/>
  <circle cx="2" cy="1" r="1" fill="srgba(59.3301%,63.2242%,71.3527%,1)"/>
  <circle cx="3" cy="1" r="1" fill="srgba(64.6662%,68.0476%,75.1125%,1)"/>
  <circle cx="4" cy="1" r="1" fill="srgba(34.1405%,40.4425%,53.611%,1)"/>
  <circle cx="5" cy="1" r="1" fill="srgba(35.9091%,42.0447%,54.8531%,1)"/>
  <circle cx="6" cy="1" r="1" fill="srgba(67.4891%,70.5989%,77.0947%,1)"/>
  <circle cx="7" cy="1" r="1" fill="srgba(66.9963%,70.1488%,76.759%,1)"/>
  <circle cx="8" cy="1" r="1" fill="srgba(33.8903%,40.2121%,53.4432%,1)"/>
  <circle cx="9" cy="1" r="1" fill="srgba(29.9992%,36.6949%,50.6996%,1)"/>
  <circle cx="10" cy="1" r="1" fill="srgba(65.8442%,69.1463%,75.9838%,1)"/>
  <circle cx="11" cy="1" r="1" fill="srgba(77.6364%,79.2233%,83.6667%,1)"/>
  <circle cx="12" cy="1" r="1" fill="srgba(90.1534%,84.1733%,85.8167%,1)"/>
  <circle cx="13" cy="1" r="1" fill="srgba(96.199%,88.0659%,88.4321%,1)"/>
  <circle cx="14" cy="1" r="1" fill="srgba(95.8312%,87.7714%,88.2094%,1)"/>
  <circle cx="15" cy="1" r="1" fill="srgba(95.7977%,87.6677%,88.1117%,1)"/>
  <circle cx="0" cy="2" r="1" fill="srgba(12.0653%,20.4761%,38.0636%,1)"/>
  <circle cx="1" cy="2" r="1" fill="srgba(40.1923%,45.9144%,57.8759%,1)"/>
  <circle cx="2" cy="2" r="1" fill="srgba(62.0279%,65.6657%,73.2586%,1)"/>
  <circle cx="3" cy="2" r="1" fill="srgba(38.0636%,43.9933%,56.376%,1)"/>
  <circle cx="4" cy="2" r="1" fill="srgba(15.5962%,23.6774%,40.5493%,1)"/>
  <circle cx="5" cy="2" r="1" fill="srgba(38.3627%,44.2588%,56.5881%,1)"/>
  <circle cx="6" cy="2" r="1" fill="srgba(61.8357%,65.478%,73.1243%,1)"/>
  <circle cx="7" cy="2" r="1" fill="srgba(40.5097%,46.2013%,58.0941%,1)"/>
  <circle cx="8" cy="2" r="1" fill="srgba(16.5621%,24.5487%,41.2253%,1)"/>
  <circle cx="9" cy="2" r="1" fill="srgba(42.3133%,47.8264%,59.3713%,1)"/>
  <circle cx="10" cy="2" r="1" fill="srgba(81.9287%,83.7079%,87.3243%,1)"/>
  <circle cx="11" cy="2" r="1" fill="srgba(71.2245%,73.164%,78.88%,1)"/>
  <circle cx="12" cy="2" r="1" fill="srgba(81.0346%,68.1071%,71.2261%,1)"/>
  <circle cx="13" cy="2" r="1" fill="srgba(90.9865%,72.1218%,73.0144%,1)"/>
  <circle cx="14" cy="2" r="1" fill="srgba(90.4387%,71.9066%,72.9229%,1)"/>
  <circle cx="15" cy="2" r="1" fill="srgba(90.4372%,71.8914%,72.9091%,1)"/>
  <circle cx="0" cy="3" r="1" fill="srgba(11.3756%,19.8535%,37.5769%,1)"/>
  <circle cx="1" cy="3" r="1" fill="srgba(29.0227%,35.8114%,50.0053%,1)"/>
  <circle cx="2" cy="3" r="1" fill="srgba(57.5189%,61.5839%,70.0832%,1)"/>
  <circle cx="3" cy="3" r="1" fill="srgba(49.8283%,54.6273%,64.6647%,1)"/>
  <circle cx="4" cy="3" r="1" fill="srgba(21.2039%,28.748%,44.4999%,1)"/>
  <circle cx="5" cy="3" r="1" fill="srgba(27.8737%,34.7768%,49.1981%,1)"/>
  <circle cx="6" cy="3" r="1" fill="srgba(56.8658%,60.9918%,69.6239%,1)"/>
  <circle cx="7" cy="3" r="1" fill="srgba(51.8242%,56.434%,66.0685%,1)"/>
  <circle cx="8" cy="3" r="1" fill="srgba(23.0518%,30.4112%,45.8%,1)"/>
  <circle cx="9" cy="3" r="1" fill="srgba(29.2836%,36.0479%,50.193%,1)"/>
  <circle cx="10" cy="3" r="1" fill="srgba(69.9657%,72.8573%,78.8632%,1)"/>
  <circle cx="11" cy="3" r="1" fill="srgba(81.9669%,83.447%,87.0405%,1)"/>
  <circle cx="12" cy="3" r="1" fill="srgba(91.0826%,86.9795%,88.5405%,1)"/>
  <circle cx="13" cy="3" r="1" fill="srgba(97.052%,90.5486%,90.8339%,1)"/>
  <circle cx="14" cy="3" r="1" fill="srgba(96.7132%,90.338%,90.6935%,1)"/>
  <circle cx="15" cy="3" r="1" fill="srgba(96.7025%,90.3166%,90.6691%,1)"/>
  <circle cx="0" cy="4" r="1" fill="srgba(11.2917%,19.7772%,37.5189%,1)"/>
  <circle cx="1" cy="4" r="1" fill="srgba(33.5912%,39.942%,53.2235%,1)"/>
  <circle cx="2" cy="4" r="1" fill="srgba(60.8057%,64.5457%,72.3919%,1)"/>
  <circle cx="3" cy="4" r="1" fill="srgba(45.3849%,50.6111%,61.532%,1)"/>
  <circle cx="4" cy="4" r="1" fill="srgba(17.9782%,25.832%,42.2324%,1)"/>
  <circle cx="5" cy="4" r="1" fill="srgba(32.4514%,38.9151%,52.4285%,1)"/>
  <circle cx="6" cy="4" r="1" fill="srgba(60.5356%,64.3137%,72.1981%,1)"/>
  <circle cx="7" cy="4" r="1" fill="srgba(47.5898%,52.6116%,63.0808%,1)"/>
  <circle cx="8" cy="4" r="1" fill="srgba(19.2966%,27.0176%,43.1556%,1)"/>
  <circle cx="9" cy="4" r="1" fill="srgba(37.1939%,43.1998%,55.7626%,1)"/>
  <circle cx="10" cy="4" r="1" fill="srgba(81.9409%,83.6713%,87.277%,1)"/>
  <circle cx="11" cy="4" r="1" fill="srgba(76.7361%,78.967%,83.6271%,1)"/>
  <circle cx="12" cy="4" r="1" fill="srgba(89.6956%,90.695%,92.7611%,1)"/>
  <circle cx="13" cy="4" r="1" fill="white"/>
  <circle cx="14" cy="4" r="1" fill="white"/>
  <circle cx="15" cy="4" r="1" fill="white"/>
  <circle cx="0" cy="5" r="1" fill="srgba(12.1294%,20.5356%,38.1094%,1)"/>
  <circle cx="1" cy="5" r="1" fill="srgba(36.8154%,42.8611%,55.4955%,1)"/>
  <circle cx="2" cy="5" r="1" fill="srgba(59.8123%,63.6545%,71.6915%,1)"/>
  <circle cx="3" cy="5" r="1" fill="srgba(42.0539%,47.6005%,59.1943%,1)"/>
  <circle cx="4" cy="5" r="1" fill="srgba(18.6465%,26.4378%,42.7039%,1)"/>
  <circle cx="5" cy="5" r="1" fill="srgba(35.5444%,41.7212%,54.5968%,1)"/>
  <circle cx="6" cy="5" r="1" fill="srgba(59.7726%,63.6225%,71.6548%,1)"/>
  <circle cx="7" cy="5" r="1" fill="srgba(44.3854%,49.7047%,60.827%,1)"/>
  <circle cx="8" cy="5" r="1" fill="srgba(19.91%,27.57%,43.595%,1)"/>
  <circle cx="9" cy="5" r="1" fill="srgba(36.6217%,42.6841%,55.3658%,1)"/>
  <circle cx="10" cy="5" r="1" fill="srgba(72.6131%,75.2941%,80.7721%,1)"/>
  <circle cx="11" cy="5" r="1" fill="srgba(74.5006%,75.9014%,80.9644%,1)"/>
  <circle cx="12" cy="5" r="1" fill="srgba(83.0594%,68.3803%,71.0246%,1)"/>
  <circle cx="13" cy="5" r="1" fill="srgba(90.0755%,69.7368%,70.7424%,1)"/>
  <circle cx="14" cy="5" r="1" fill="srgba(89.6223%,69.4697%,70.5745%,1)"/>
  <circle cx="15" cy="5" r="1" fill="srgba(89.5659%,69.3019%,70.4097%,1)"/>
  <circle cx="0" cy="6" r="1" fill="srgba(10.721%,19.2599%,37.116%,1)"/>
  <circle cx="1" cy="6" r="1" fill="srgba(26.5415%,33.5698%,48.2582%,1)"/>
  <circle cx="2" cy="6" r="1" fill="srgba(58.5016%,62.4765%,70.7668%,1)"/>
  <circle cx="3" cy="6" r="1" fill="srgba(52.6574%,57.1893%,66.6545%,1)"/>
  <circle cx="4" cy="6" r="1" fill="srgba(20.7385%,28.3268%,44.1764%,1)"/>
  <circle cx="5" cy="6" r="1" fill="srgba(25.4887%,32.6253%,47.5166%,1)"/>
  <circle cx="6" cy="6" r="1" fill="srgba(57.6699%,61.7288%,70.1839%,1)"/>
  <circle cx="7" cy="6" r="1" fill="srgba(54.5708%,58.9151%,68.0049%,1)"/>
  <circle cx="8" cy="6" r="1" fill="srgba(22.6429%,30.0404%,45.5222%,1)"/>
  <circle cx="9" cy="6" r="1" fill="srgba(29.6666%,36.4004%,50.4662%,1)"/>
  <circle cx="10" cy="6" r="1" fill="srgba(77.1283%,79.3545%,83.9261%,1)"/>
  <circle cx="11" cy="6" r="1" fill="srgba(83.36%,84.3839%,87.6982%,1)"/>
  <circle cx="12" cy="6" r="1" fill="srgba(88.2643%,80.6775%,82.6184%,1)"/>
  <circle cx="13" cy="6" r="1" fill="srgba(94.8867%,84.0635%,84.5563%,1)"/>
  <circle cx="14" cy="6" r="1" fill="srgba(94.5144%,83.8514%,84.4266%,1)"/>
  <circle cx="15" cy="6" r="1" fill="srgba(94.5052%,83.8315%,84.4053%,1)"/>
  <circle cx="0" cy="7" r="1" fill="srgba(10.8797%,19.4034%,37.2259%,1)"/>
  <circle cx="1" cy="7" r="1" fill="srgba(39.6643%,45.4368%,57.4975%,1)"/>
  <circle cx="2" cy="7" r="1" fill="srgba(54.902%,59.2157%,68.2338%,1)"/>
  <circle cx="3" cy="7" r="1" fill="srgba(29.2607%,36.0281%,50.1717%,1)"/>
  <circle cx="4" cy="7" r="1" fill="srgba(13.4005%,21.6892%,38.999%,1)"/>
  <circle cx="5" cy="7" r="1" fill="srgba(38.4955%,44.3839%,56.6735%,1)"/>
  <circle cx="6" cy="7" r="1" fill="srgba(55.5917%,59.8367%,68.7175%,1)"/>
  <circle cx="7" cy="7" r="1" fill="srgba(31.7556%,38.2757%,51.9326%,1)"/>
  <circle cx="8" cy="7" r="1" fill="srgba(13.9223%,22.1485%,39.3729%,1)"/>
  <circle cx="9" cy="7" r="1" fill="srgba(41.0056%,46.6453%,58.4421%,1)"/>
  <circle cx="10" cy="7" r="1" fill="srgba(73.2937%,75.935%,81.2802%,1)"/>
  <circle cx="11" cy="7" r="1" fill="srgba(63.0823%,65.1698%,72.4941%,1)"/>
  <circle cx="12" cy="7" r="1" fill="srgba(75.2819%,53.7499%,57.5814%,1)"/>
  <circle cx="13" cy="7" r="1" fill="srgba(85.2979%,55.2499%,56.7239%,1)"/>
  <circle cx="14" cy="7" r="1" fill="srgba(84.741%,55.1751%,56.7773%,1)"/>
  <circle cx="15" cy="7" r="1" fill="srgba(84.741%,55.1766%,56.7788%,1)"/>
  <circle cx="0" cy="8" r="1" fill="srgba(46.0899%,51.7479%,62.5498%,1)"/>
  <circle cx="1" cy="8" r="1" fill="srgba(49.4697%,54.8043%,64.9302%,1)"/>
  <circle cx="2" cy="8" r="1" fill="srgba(50.7774%,55.9884%,65.8518%,1)"/>
  <circle cx="3" cy="8" r="1" fill="srgba(47.245%,52.7932%,63.3616%,1)"/>
  <circle cx="4" cy="8" r="1" fill="srgba(45.9144%,51.5892%,62.4231%,1)"/>
  <circle cx="5" cy="8" r="1" fill="srgba(49.4667%,54.8028%,64.9256%,1)"/>
  <circle cx="6" cy="8" r="1" fill="srgba(51.0307%,56.2142%,66.0288%,1)"/>
  <circle cx="7" cy="8" r="1" fill="srgba(47.6341%,53.1426%,63.6362%,1)"/>
  <circle cx="8" cy="8" r="1" fill="srgba(45.8549%,51.5358%,62.385%,1)"/>
  <circle cx="9" cy="8" r="1" fill="srgba(52.7733%,57.7935%,67.2572%,1)"/>
  <circle cx="10" cy="8" r="1" fill="srgba(64.184%,68.2002%,75.3872%,1)"/>
  <circle cx="11" cy="8" r="1" fill="srgba(60.7156%,63.5279%,71.3375%,1)"/>
  <circle cx="12" cy="8" r="1" fill="srgba(77.2839%,55.6634%,59.0967%,1)"/>
  <circle cx="13" cy="8" r="1" fill="srgba(85.1469%,54.992%,56.492%,1)"/>
  <circle cx="14" cy="8" r="1" fill="srgba(84.6921%,55.021%,56.6293%,1)"/>
  <circle cx="15" cy="8" r="1" fill="srgba(84.6921%,55.021%,56.6293%,1)"/>
  <circle cx="0" cy="9" r="1" fill="srgba(94.5953%,83.5096%,84.0543%,1)"/>
  <circle cx="1" cy="9" r="1" fill="srgba(94.4503%,83.3768%,83.9506%,1)"/>
  <circle cx="2" cy="9" r="1" fill="srgba(94.3709%,83.3051%,83.8956%,1)"/>
  <circle cx="3" cy="9" r="1" fill="srgba(94.5129%,83.4348%,83.9948%,1)"/>
  <circle cx="4" cy="9" r="1" fill="srgba(94.5907%,83.5035%,84.0497%,1)"/>
  <circle cx="5" cy="9" r="1" fill="srgba(94.4457%,83.3738%,83.949%,1)"/>
  <circle cx="6" cy="9" r="1" fill="srgba(94.3572%,83.2929%,83.8865%,1)"/>
  <circle cx="7" cy="9" r="1" fill="srgba(94.4915%,83.4134%,83.9796%,1)"/>
  <circle cx="8" cy="9" r="1" fill="srgba(94.5892%,83.5019%,84.0482%,1)"/>
  <circle cx="9" cy="9" r="1" fill="srgba(94.2321%,83.18%,83.798%,1)"/>
  <circle cx="10" cy="9" r="1" fill="srgba(93.5241%,82.5391%,83.299%,1)"/>
  <circle cx="11" cy="9" r="1" fill="srgba(93.7575%,82.7543%,83.4668%,1)"/>
  <circle cx="12" cy="9" r="1" fill="srgba(94.3618%,83.4485%,84.0482%,1)"/>
  <circle cx="13" cy="9" r="1" fill="srgba(94.4121%,83.5691%,84.1627%,1)"/>
  <circle cx="14" cy="9" r="1" fill="srgba(94.4091%,83.563%,84.1566%,1)"/>
  <circle cx="15" cy="9" r="1" fill="srgba(94.4091%,83.563%,84.1566%,1)"/>
  <circle cx="0" cy="10" r="1" fill="srgba(77.7508%,34.5632%,36.9253%,1)"/>
  <circle cx="1" cy="10" r="1" fill="srgba(77.7508%,34.5632%,36.9253%,1)"/>
  <circle cx="2" cy="10" r="1" fill="srgba(77.7508%,34.5632%,36.9253%,1)"/>
  <circle cx="3" cy="10" r="1" fill="srgba(77.7508%,34.5632%,36.9253%,1)"/>
  <circle cx="4" cy="10" r="1" fill="srgba(77.7508%,34.5632%,36.9253%,1)"/>
  <circle cx="5" cy="10" r="1" fill="srgba(77.7508%,34.5632%,36.9253%,1)"/>
  <circle cx="6" cy="10" r="1" fill="srgba(77.7508%,34.5632%,36.9253%,1)"/>
  <circle cx="7" cy="10" r="1" fill="srgba(77.7508%,34.5632%,36.9253%,1)"/>
  <circle cx="8" cy="10" r="1" fill="srgba(77.7508%,34.5632%,36.9253%,1)"/>
  <circle cx="9" cy="10" r="1" fill="srgba(77.7508%,34.5632%,36.9253%,1)"/>
  <circle cx="10" cy="10" r="1" fill="srgba(77.7508%,34.5632%,36.9253%,1)"/>
  <circle cx="11" cy="10" r="1" fill="srgba(77.7508%,34.5632%,36.9253%,1)"/>
  <circle cx="12" cy="10" r="1" fill="srgba(77.7417%,34.5602%,36.9238%,1)"/>
  <circle cx="13" cy="10" r="1" fill="srgba(77.7386%,34.5602%,36.9238%,1)"/>
  <circle cx="14" cy="10" r="1" fill="srgba(77.7386%,34.5602%,36.9238%,1)"/>
  <circle cx="15" cy="10" r="1" fill="srgba(77.7386%,34.5602%,36.9238%,1)"/>
  <circle cx="0" cy="11" r="1" fill="srgba(95.5474%,86.9108%,87.3854%,1)"/>
  <circle cx="1" cy="11" r="1" fill="srgba(95.5474%,86.9108%,87.3854%,1)"/>
  <circle cx="2" cy="11" r="1" fill="srgba(95.5474%,86.9108%,87.3854%,1)"/>
  <circle cx="3" cy="11" r="1" fill="srgba(95.5474%,86.9108%,87.3854%,1)"/>
  <circle cx="4" cy="11" r="1" fill="srgba(95.5474%,86.9108%,87.3854%,1)"/>
  <circle cx="5" cy="11" r="1" fill="srgba(95.5474%,86.9108%,87.3854%,1)"/>
  <circle cx="6" cy="11" r="1" fill="srgba(95.5474%,86.9108%,87.3854%,1)"/>
  <circle cx="7" cy="11" r="1" fill="srgba(95.5474%,86.9108%,87.3854%,1)"/>
  <circle cx="8" cy="11" r="1" fill="srgba(95.5474%,86.9108%,87.3854%,1)"/>
  <circle cx="9" cy="11" r="1" fill="srgba(95.5474%,86.9108%,87.3854%,1)"/>
  <circle cx="10" cy="11" r="1" fill="srgba(95.5474%,86.9108%,87.3854%,1)"/>
  <circle cx="11" cy="11" r="1" fill="srgba(95.5474%,86.9108%,87.3854%,1)"/>
  <circle cx="12" cy="11" r="1" fill="srgba(95.5474%,86.9108%,87.3854%,1)"/>
  <circle cx="13" cy="11" r="1" fill="srgba(95.5474%,86.9108%,87.3854%,1)"/>
  <circle cx="14" cy="11" r="1" fill="srgba(95.5474%,86.9108%,87.3854%,1)"/>
  <circle cx="15" cy="11" r="1" fill="srgba(95.5474%,86.9108%,87.3854%,1)"/>
  <circle cx="0" cy="12" r="1" fill="srgba(82.6947%,49.1417%,50.9758%,1)"/>
  <circle cx="1" cy="12" r="1" fill="srgba(82.6947%,49.1417%,50.9758%,1)"/>
  <circle cx="2" cy="12" r="1" fill="srgba(82.6947%,49.1417%,50.9758%,1)"/>
  <circle cx="3" cy="12" r="1" fill="srgba(82.6947%,49.1417%,50.9758%,1)"/>
  <circle cx="4" cy="12" r="1" fill="srgba(82.6947%,49.1417%,50.9758%,1)"/>
  <circle cx="5" cy="12" r="1" fill="srgba(82.6947%,49.1417%,50.9758%,1)"/>
  <circle cx="6" cy="12" r="1" fill="srgba(82.6947%,49.1417%,50.9758%,1)"/>
  <circle cx="7" cy="12" r="1" fill="srgba(82.6947%,49.1417%,50.9758%,1)"/>
  <circle cx="8" cy="12" r="1" fill="srgba(82.6947%,49.1417%,50.9758%,1)"/>
  <circle cx="9" cy="12" r="1" fill="srgba(82.6947%,49.1417%,50.9758%,1)"/>
  <circle cx="10" cy="12" r="1" fill="srgba(82.6947%,49.1417%,50.9758%,1)"/>
  <circle cx="11" cy="12" r="1" fill="srgba(82.6947%,49.1417%,50.9758%,1)"/>
  <circle cx="12" cy="12" r="1" fill="srgba(82.6947%,49.1417%,50.9758%,1)"/>
  <circle cx="13" cy="12" r="1" fill="srgba(82.6947%,49.1417%,50.9758%,1)"/>
  <circle cx="14" cy="12" r="1" fill="srgba(82.6947%,49.1417%,50.9758%,1)"/>
  <circle cx="15" cy="12" r="1" fill="srgba(82.6947%,49.1417%,50.9758%,1)"/>
  <circle cx="0" cy="13" r="1" fill="srgba(86.2501%,59.5926%,61.0575%,1)"/>
  <circle cx="1" cy="13" r="1" fill="srgba(86.2501%,59.5926%,61.0575%,1)"/>
  <circle cx="2" cy="13" r="1" fill="srgba(86.2501%,59.5926%,61.0575%,1)"/>
  <circle cx="3" cy="13" r="1" fill="srgba(86.2501%,59.5926%,61.0575%,1)"/>
  <circle cx="4" cy="13" r="1" fill="srgba(86.2501%,59.5926%,61.0575%,1)"/>
  <circle cx="5" cy="13" r="1" fill="srgba(86.2501%,59.5926%,61.0575%,1)"/>
  <circle cx="6" cy="13" r="1" fill="srgba(86.2501%,59.5926%,61.0575%,1)"/>
  <circle cx="7" cy="13" r="1" fill="srgba(86.2501%,59.5926%,61.0575%,1)"/>
  <circle cx="8" cy="13" r="1" fill="srgba(86.2501%,59.5926%,61.0575%,1)"/>
  <circle cx="9" cy="13" r="1" fill="srgba(86.2501%,59.5926%,61.0575%,1)"/>
  <circle cx="10" cy="13" r="1" fill="srgba(86.2501%,59.5926%,61.0575%,1)"/>
  <circle cx="11" cy="13" r="1" fill="srgba(86.2501%,59.5926%,61.0575%,1)"/>
  <circle cx="12" cy="13" r="1" fill="srgba(86.2501%,59.5926%,61.0575%,1)"/>
  <circle cx="13" cy="13" r="1" fill="srgba(86.2501%,59.5926%,61.0575%,1)"/>
  <circle cx="14" cy="13" r="1" fill="srgba(86.2501%,59.5926%,61.0575%,1)"/>
  <circle cx="15" cy="13" r="1" fill="srgba(86.2501%,59.5926%,61.0575%,1)"/>
  <circle cx="0" cy="14" r="1" fill="srgba(93.254%,80.1862%,80.9003%,1)"/>
  <circle cx="1" cy="14" r="1" fill="srgba(93.254%,80.1862%,80.9003%,1)"/>
  <circle cx="2" cy="14" r="1" fill="srgba(93.254%,80.1862%,80.9003%,1)"/>
  <circle cx="3" cy="14" r="1" fill="srgba(93.254%,80.1862%,80.9003%,1)"/>
  <circle cx="4" cy="14" r="1" fill="srgba(93.254%,80.1862%,80.9003%,1)"/>
  <circle cx="5" cy="14" r="1" fill="srgba(93.254%,80.1862%,80.9003%,1)"/>
  <circle cx="6" cy="14" r="1" fill="srgba(93.254%,80.1862%,80.9003%,1)"/>
  <circle cx="7" cy="14" r="1" fill="srgba(93.254%,80.1862%,80.9003%,1)"/>
  <circle cx="8" cy="14" r="1" fill="srgba(93.254%,80.1862%,80.9003%,1)"/>
  <circle cx="9" cy="14" r="1" fill="srgba(93.254%,80.1862%,80.9003%,1)"/>
  <circle cx="10" cy="14" r="1" fill="srgba(93.254%,80.1862%,80.9003%,1)"/>
  <circle cx="11" cy="14" r="1" fill="srgba(93.254%,80.1862%,80.9003%,1)"/>
  <circle cx="12" cy="14" r="1" fill="srgba(93.254%,80.1862%,80.9003%,1)"/>
  <circle cx="13" cy="14" r="1" fill="srgba(93.254%,80.1862%,80.9003%,1)"/>
  <circle cx="14" cy="14" r="1" fill="srgba(93.254%,80.1862%,80.9003%,1)"/>
  <circle cx="15" cy="14" r="1" fill="srgba(93.254%,80.1862%,80.9003%,1)"/>
  <circle cx="0" cy="15" r="1" fill="srgba(74.9859%,26.4775%,29.1295%,1)"/>
  <circle cx="1" cy="15" r="1" fill="srgba(74.9859%,26.4775%,29.1295%,1)"/>
  <circle cx="2" cy="15" r="1" fill="srgba(74.9859%,26.4775%,29.1295%,1)"/>
  <circle cx="3" cy="15" r="1" fill="srgba(74.9859%,26.4775%,29.1295%,1)"/>
  <circle cx="4" cy="15" r="1" fill="srgba(74.9859%,26.4775%,29.1295%,1)"/>
  <circle cx="5" cy="15" r="1" fill="srgba(74.9859%,26.4775%,29.1295%,1)"/>
  <circle cx="6" cy="15" r="1" fill="srgba(74.9859%,26.4775%,29.1295%,1)"/>
  <circle cx="7" cy="15" r="1" fill="srgba(74.9859%,26.4775%,29.1295%,1)"/>
  <circle cx="8" cy="15" r="1" fill="srgba(74.9859%,26.4775%,29.1295%,1)"/>
  <circle cx="9" cy="15" r="1" fill="srgba(74.9859%,26.4775%,29.1295%,1)"/>
  <circle cx="10" cy="15" r="1" fill="srgba(74.9859%,26.4775%,29.1295%,1)"/>
  <circle cx="11" cy="15" r="1" fill="srgba(74.9859%,26.4775%,29.1295%,1)"/>
  <circle cx="12" cy="15" r="1" fill="srgba(74.9859%,26.4775%,29.1295%,1)"/>
  <circle cx="13" cy="15" r="1" fill="srgba(74.9859%,26.4775%,29.1295%,1)"/>
  <circle cx="14" cy="15" r="1" fill="srgba(74.9859%,26.4775%,29.1295%,1)"/>
  <circle cx="15" cy="15" r="1" fill="srgba(74.9859%,26.4775%,29.1295%,1)"/>
</svg>
