<?xml version="1.0" standalone="no"?>
<!DOCTYPE svg PUBLIC "-//W3C//DTD SVG 20010904//EN"
  "http://www.w3.org/TR/2001/REC-SVG-20010904/DTD/svg10.dtd">
<svg width="16" height="16">
  <circle cx="0" cy="0" r="1" fill="srgba(75,146,219,1)"/>
  <circle cx="1" cy="0" r="1" fill="srgba(75,146,219,1)"/>
  <circle cx="2" cy="0" r="1" fill="srgba(75,146,219,1)"/>
  <circle cx="3" cy="0" r="1" fill="srgba(75,146,219,1)"/>
  <circle cx="4" cy="0" r="1" fill="srgba(75,146,219,1)"/>
  <circle cx="5" cy="0" r="1" fill="srgba(75,146,219,1)"/>
  <circle cx="6" cy="0" r="1" fill="srgba(75,146,219,1)"/>
  <circle cx="7" cy="0" r="1" fill="srgba(75,146,219,1)"/>
  <circle cx="8" cy="0" r="1" fill="srgba(75,146,219,1)"/>
  <circle cx="9" cy="0" r="1" fill="srgba(75,146,219,1)"/>
  <circle cx="10" cy="0" r="1" fill="srgba(75,146,219,1)"/>
  <circle cx="11" cy="0" r="1" fill="srgba(75,146,219,1)"/>
  <circle cx="12" cy="0" r="1" fill="srgba(75,146,219,1)"/>
  <circle cx="13" cy="0" r="1" fill="srgba(75,146,219,1)"/>
  <circle cx="14" cy="0" r="1" fill="srgba(75,146,219,1)"/>
  <circle cx="15" cy="0" r="1" fill="srgba(75,146,219,1)"/>
  <circle cx="0" cy="1" r="1" fill="srgba(75,146,219,1)"/>
  <circle cx="1" cy="1" r="1" fill="srgba(75,146,219,1)"/>
  <circle cx="2" cy="1" r="1" fill="srgba(75,146,219,1)"/>
  <circle cx="3" cy="1" r="1" fill="srgba(75,146,219,1)"/>
  <circle cx="4" cy="1" r="1" fill="srgba(75,146,219,1)"/>
  <circle cx="5" cy="1" r="1" fill="srgba(75,146,219,1)"/>
  <circle cx="6" cy="1" r="1" fill="srgba(75,146,219,1)"/>
  <circle cx="7" cy="1" r="1" fill="srgba(75,146,219,1)"/>
  <circle cx="8" cy="1" r="1" fill="srgba(75,146,219,1)"/>
  <circle cx="9" cy="1" r="1" fill="srgba(75,146,219,1)"/>
  <circle cx="10" cy="1" r="1" fill="srgba(75,146,219,1)"/>
  <circle cx="11" cy="1" r="1" fill="srgba(75,146,219,1)"/>
  <circle cx="12" cy="1" r="1" fill="srgba(75,146,219,1)"/>
  <circle cx="13" cy="1" r="1" fill="srgba(75,146,219,1)"/>
  <circle cx="14" cy="1" r="1" fill="srgba(75,146,219,1)"/>
  <circle cx="15" cy="1" r="1" fill="srgba(75,146,219,1)"/>
  <circle cx="0" cy="2" r="1" fill="srgba(75,146,219,1)"/>
  <circle cx="1" cy="2" r="1" fill="srgba(75,146,219,1)"/>
  <circle cx="2" cy="2" r="1" fill="srgba(75,146,219,1)"/>
  <circle cx="3" cy="2" r="1" fill="srgba(75,146,219,1)"/>
  <circle cx="4" cy="2" r="1" fill="srgba(75,146,219,1)"/>
  <circle cx="5" cy="2" r="1" fill="srgba(75,146,219,1)"/>
  <circle cx="6" cy="2" r="1" fill="srgba(29.3736%,57.232%,85.8747%,1)"/>
  <circle cx="7" cy="2" r="1" fill="srgba(29.1997%,57.1267%,85.8396%,1)"/>
  <circle cx="8" cy="2" r="1" fill="srgba(29.0333%,57.026%,85.8061%,1)"/>
  <circle cx="9" cy="2" r="1" fill="srgba(29.3065%,57.1908%,85.861%,1)"/>
  <circle cx="10" cy="2" r="1" fill="srgba(29.3843%,57.2381%,85.8762%,1)"/>
  <circle cx="11" cy="2" r="1" fill="srgba(29.4026%,57.2488%,85.8808%,1)"/>
  <circle cx="12" cy="2" r="1" fill="srgba(29.4102%,57.2549%,85.8824%,1)"/>
  <circle cx="13" cy="2" r="1" fill="srgba(75,146,219,1)"/>
  <circle cx="14" cy="2" r="1" fill="srgba(75,146,219,1)"/>
  <circle cx="15" cy="2" r="1" fill="srgba(75,146,219,1)"/>
  <circle cx="0" cy="3" r="1" fill="srgba(29.398%,57.2457%,85.8793%,1)"/>
  <circle cx="1" cy="3" r="1" fill="srgba(29.398%,57.2457%,85.8793%,1)"/>
  <circle cx="2" cy="3" r="1" fill="srgba(29.3996%,57.2457%,85.8793%,1)"/>
  <circle cx="3" cy="3" r="1" fill="srgba(29.3828%,57.2366%,85.8762%,1)"/>
  <circle cx="4" cy="3" r="1" fill="srgba(29.0257%,57.0214%,85.8045%,1)"/>
  <circle cx="5" cy="3" r="1" fill="srgba(29.2866%,57.1786%,85.8564%,1)"/>
  <circle cx="6" cy="3" r="1" fill="srgba(30.013%,57.6196%,86.0029%,1)"/>
  <circle cx="7" cy="3" r="1" fill="srgba(32.4605%,59.1012%,86.4927%,1)"/>
  <circle cx="8" cy="3" r="1" fill="srgba(35.2697%,60.8011%,87.0542%,1)"/>
  <circle cx="9" cy="3" r="1" fill="srgba(31.2688%,58.3795%,86.2531%,1)"/>
  <circle cx="10" cy="3" r="1" fill="srgba(29.8909%,57.5448%,85.9785%,1)"/>
  <circle cx="11" cy="3" r="1" fill="srgba(29.2638%,57.1649%,85.8534%,1)"/>
  <circle cx="12" cy="3" r="1" fill="srgba(28.9265%,56.9604%,85.7847%,1)"/>
  <circle cx="13" cy="3" r="1" fill="srgba(28.6427%,56.7895%,85.7282%,1)"/>
  <circle cx="14" cy="3" r="1" fill="srgba(28.4703%,56.6842%,85.6947%,1)"/>
  <circle cx="15" cy="3" r="1" fill="srgba(28.3894%,56.6354%,85.6779%,1)"/>
  <circle cx="0" cy="4" r="1" fill="srgba(29.2805%,57.1756%,85.8549%,1)"/>
  <circle cx="1" cy="4" r="1" fill="srgba(29.2805%,57.1756%,85.8549%,1)"/>
  <circle cx="2" cy="4" r="1" fill="srgba(29.2683%,57.1679%,85.8518%,1)"/>
  <circle cx="3" cy="4" r="1" fill="srgba(29.305%,57.1893%,85.8595%,1)"/>
  <circle cx="4" cy="4" r="1" fill="srgba(39.0265%,63.0762%,87.805%,1)"/>
  <circle cx="5" cy="4" r="1" fill="srgba(38.8281%,62.9572%,87.7668%,1)"/>
  <circle cx="6" cy="4" r="1" fill="srgba(35.8907%,61.1765%,87.1778%,1)"/>
  <circle cx="7" cy="4" r="1" fill="srgba(45.0065%,66.6972%,89.0043%,1)"/>
  <circle cx="8" cy="4" r="1" fill="srgba(82.8977%,89.6407%,96.582%,1)"/>
  <circle cx="9" cy="4" r="1" fill="srgba(76.3226%,85.658%,95.2636%,1)"/>
  <circle cx="10" cy="4" r="1" fill="srgba(70.3182%,82.0264%,94.0627%,1)"/>
  <circle cx="11" cy="4" r="1" fill="srgba(68.4031%,80.8698%,93.6797%,1)"/>
  <circle cx="12" cy="4" r="1" fill="srgba(63.331%,77.8012%,92.668%,1)"/>
  <circle cx="13" cy="4" r="1" fill="srgba(60.0961%,75.8358%,92.0195%,1)"/>
  <circle cx="14" cy="4" r="1" fill="srgba(56.8383%,73.8613%,91.3588%,1)"/>
  <circle cx="15" cy="4" r="1" fill="srgba(54.0047%,72.1477%,90.8003%,1)"/>
  <circle cx="0" cy="5" r="1" fill="srgba(72.5887%,83.3982%,94.5129%,1)"/>
  <circle cx="1" cy="5" r="1" fill="srgba(72.5887%,83.3982%,94.5129%,1)"/>
  <circle cx="2" cy="5" r="1" fill="srgba(72.5689%,83.386%,94.5083%,1)"/>
  <circle cx="3" cy="5" r="1" fill="srgba(72.9686%,83.6286%,94.5892%,1)"/>
  <circle cx="4" cy="5" r="1" fill="srgba(81.593%,88.8518%,96.3165%,1)"/>
  <circle cx="5" cy="5" r="1" fill="srgba(78.761%,87.1382%,95.7519%,1)"/>
  <circle cx="6" cy="5" r="1" fill="srgba(76.3333%,85.6672%,95.2667%,1)"/>
  <circle cx="7" cy="5" r="1" fill="srgba(79.3729%,87.509%,95.8755%,1)"/>
  <circle cx="8" cy="5" r="1" fill="srgba(97.7966%,98.6664%,99.559%,1)"/>
  <circle cx="9" cy="5" r="1" fill="srgba(97.1664%,98.2834%,99.4339%,1)"/>
  <circle cx="10" cy="5" r="1" fill="srgba(97.3465%,98.3932%,99.4705%,1)"/>
  <circle cx="11" cy="5" r="1" fill="srgba(98.7915%,99.2691%,99.7589%,1)"/>
  <circle cx="12" cy="5" r="1" fill="srgba(98.0728%,98.8373%,99.617%,1)"/>
  <circle cx="13" cy="5" r="1" fill="srgba(98.0636%,98.8266%,99.6124%,1)"/>
  <circle cx="14" cy="5" r="1" fill="srgba(97.9385%,98.7503%,99.5819%,1)"/>
  <circle cx="15" cy="5" r="1" fill="srgba(97.7279%,98.6252%,99.5453%,1)"/>
  <circle cx="0" cy="6" r="1" fill="white"/>
  <circle cx="1" cy="6" r="1" fill="white"/>
  <circle cx="2" cy="6" r="1" fill="white"/>
  <circle cx="3" cy="6" r="1" fill="white"/>
  <circle cx="4" cy="6" r="1" fill="white"/>
  <circle cx="5" cy="6" r="1" fill="white"/>
  <circle cx="6" cy="6" r="1" fill="white"/>
  <circle cx="7" cy="6" r="1" fill="white"/>
  <circle cx="8" cy="6" r="1" fill="white"/>
  <circle cx="9" cy="6" r="1" fill="white"/>
  <circle cx="10" cy="6" r="1" fill="white"/>
  <circle cx="11" cy="6" r="1" fill="white"/>
  <circle cx="12" cy="6" r="1" fill="white"/>
  <circle cx="13" cy="6" r="1" fill="white"/>
  <circle cx="14" cy="6" r="1" fill="white"/>
  <circle cx="15" cy="6" r="1" fill="white"/>
  <circle cx="0" cy="7" r="1" fill="white"/>
  <circle cx="1" cy="7" r="1" fill="white"/>
  <circle cx="2" cy="7" r="1" fill="white"/>
  <circle cx="3" cy="7" r="1" fill="white"/>
  <circle cx="4" cy="7" r="1" fill="white"/>
  <circle cx="5" cy="7" r="1" fill="white"/>
  <circle cx="6" cy="7" r="1" fill="white"/>
  <circle cx="7" cy="7" r="1" fill="white"/>
  <circle cx="8" cy="7" r="1" fill="white"/>
  <circle cx="9" cy="7" r="1" fill="white"/>
  <circle cx="10" cy="7" r="1" fill="white"/>
  <circle cx="11" cy="7" r="1" fill="white"/>
  <circle cx="12" cy="7" r="1" fill="white"/>
  <circle cx="13" cy="7" r="1" fill="white"/>
  <circle cx="14" cy="7" r="1" fill="white"/>
  <circle cx="15" cy="7" r="1" fill="white"/>
  <circle cx="0" cy="8" r="1" fill="white"/>
  <circle cx="1" cy="8" r="1" fill="white"/>
  <circle cx="2" cy="8" r="1" fill="white"/>
  <circle cx="3" cy="8" r="1" fill="white"/>
  <circle cx="4" cy="8" r="1" fill="white"/>
  <circle cx="5" cy="8" r="1" fill="white"/>
  <circle cx="6" cy="8" r="1" fill="srgba(99.3805%,99.6246%,99.8764%,1)"/>
  <circle cx="7" cy="8" r="1" fill="srgba(99.6963%,99.8169%,99.939%,1)"/>
  <circle cx="8" cy="8" r="1" fill="white"/>
  <circle cx="9" cy="8" r="1" fill="white"/>
  <circle cx="10" cy="8" r="1" fill="white"/>
  <circle cx="11" cy="8" r="1" fill="white"/>
  <circle cx="12" cy="8" r="1" fill="white"/>
  <circle cx="13" cy="8" r="1" fill="white"/>
  <circle cx="14" cy="8" r="1" fill="white"/>
  <circle cx="15" cy="8" r="1" fill="white"/>
  <circle cx="0" cy="9" r="1" fill="white"/>
  <circle cx="1" cy="9" r="1" fill="white"/>
  <circle cx="2" cy="9" r="1" fill="white"/>
  <circle cx="3" cy="9" r="1" fill="white"/>
  <circle cx="4" cy="9" r="1" fill="white"/>
  <circle cx="5" cy="9" r="1" fill="white"/>
  <circle cx="6" cy="9" r="1" fill="srgba(93.0861%,95.8129%,98.6175%,1)"/>
  <circle cx="7" cy="9" r="1" fill="srgba(95.1202%,97.0459%,99.0234%,1)"/>
  <circle cx="8" cy="9" r="1" fill="white"/>
  <circle cx="9" cy="9" r="1" fill="white"/>
  <circle cx="10" cy="9" r="1" fill="white"/>
  <circle cx="11" cy="9" r="1" fill="white"/>
  <circle cx="12" cy="9" r="1" fill="white"/>
  <circle cx="13" cy="9" r="1" fill="white"/>
  <circle cx="14" cy="9" r="1" fill="white"/>
  <circle cx="15" cy="9" r="1" fill="white"/>
  <circle cx="0" cy="10" r="1" fill="white"/>
  <circle cx="1" cy="10" r="1" fill="white"/>
  <circle cx="2" cy="10" r="1" fill="white"/>
  <circle cx="3" cy="10" r="1" fill="white"/>
  <circle cx="4" cy="10" r="1" fill="white"/>
  <circle cx="5" cy="10" r="1" fill="white"/>
  <circle cx="6" cy="10" r="1" fill="srgba(92.7718%,95.6222%,98.555%,1)"/>
  <circle cx="7" cy="10" r="1" fill="srgba(91.9051%,95.0988%,98.381%,1)"/>
  <circle cx="8" cy="10" r="1" fill="white"/>
  <circle cx="9" cy="10" r="1" fill="white"/>
  <circle cx="10" cy="10" r="1" fill="white"/>
  <circle cx="11" cy="10" r="1" fill="white"/>
  <circle cx="12" cy="10" r="1" fill="white"/>
  <circle cx="13" cy="10" r="1" fill="white"/>
  <circle cx="14" cy="10" r="1" fill="white"/>
  <circle cx="15" cy="10" r="1" fill="white"/>
  <circle cx="0" cy="11" r="1" fill="white"/>
  <circle cx="1" cy="11" r="1" fill="white"/>
  <circle cx="2" cy="11" r="1" fill="white"/>
  <circle cx="3" cy="11" r="1" fill="white"/>
  <circle cx="4" cy="11" r="1" fill="white"/>
  <circle cx="5" cy="11" r="1" fill="white"/>
  <circle cx="6" cy="11" r="1" fill="srgba(98.0575%,98.8235%,99.6109%,1)"/>
  <circle cx="7" cy="11" r="1" fill="srgba(97.0916%,98.2391%,99.4186%,1)"/>
  <circle cx="8" cy="11" r="1" fill="white"/>
  <circle cx="9" cy="11" r="1" fill="white"/>
  <circle cx="10" cy="11" r="1" fill="white"/>
  <circle cx="11" cy="11" r="1" fill="white"/>
  <circle cx="12" cy="11" r="1" fill="white"/>
  <circle cx="13" cy="11" r="1" fill="white"/>
  <circle cx="14" cy="11" r="1" fill="white"/>
  <circle cx="15" cy="11" r="1" fill="white"/>
  <circle cx="0" cy="12" r="1" fill="white"/>
  <circle cx="1" cy="12" r="1" fill="white"/>
  <circle cx="2" cy="12" r="1" fill="white"/>
  <circle cx="3" cy="12" r="1" fill="white"/>
  <circle cx="4" cy="12" r="1" fill="white"/>
  <circle cx="5" cy="12" r="1" fill="white"/>
  <circle cx="6" cy="12" r="1" fill="srgba(99.704%,99.8215%,99.9405%,1)"/>
  <circle cx="7" cy="12" r="1" fill="srgba(97.8271%,98.6847%,99.5651%,1)"/>
  <circle cx="8" cy="12" r="1" fill="srgba(99.8703%,99.9222%,99.9741%,1)"/>
  <circle cx="9" cy="12" r="1" fill="white"/>
  <circle cx="10" cy="12" r="1" fill="white"/>
  <circle cx="11" cy="12" r="1" fill="white"/>
  <circle cx="12" cy="12" r="1" fill="white"/>
  <circle cx="13" cy="12" r="1" fill="white"/>
  <circle cx="14" cy="12" r="1" fill="white"/>
  <circle cx="15" cy="12" r="1" fill="white"/>
  <circle cx="0" cy="13" r="1" fill="white"/>
  <circle cx="1" cy="13" r="1" fill="white"/>
  <circle cx="2" cy="13" r="1" fill="white"/>
  <circle cx="3" cy="13" r="1" fill="white"/>
  <circle cx="4" cy="13" r="1" fill="white"/>
  <circle cx="5" cy="13" r="1" fill="white"/>
  <circle cx="6" cy="13" r="1" fill="srgba(97.1923%,98.3001%,99.4385%,1)"/>
  <circle cx="7" cy="13" r="1" fill="srgba(75.9579%,85.4414%,95.1919%,1)"/>
  <circle cx="8" cy="13" r="1" fill="srgba(98.3932%,99.028%,99.678%,1)"/>
  <circle cx="9" cy="13" r="1" fill="white"/>
  <circle cx="10" cy="13" r="1" fill="white"/>
  <circle cx="11" cy="13" r="1" fill="white"/>
  <circle cx="12" cy="13" r="1" fill="white"/>
  <circle cx="13" cy="13" r="1" fill="white"/>
  <circle cx="14" cy="13" r="1" fill="white"/>
  <circle cx="15" cy="13" r="1" fill="white"/>
  <circle cx="0" cy="14" r="1" fill="white"/>
  <circle cx="1" cy="14" r="1" fill="white"/>
  <circle cx="2" cy="14" r="1" fill="white"/>
  <circle cx="3" cy="14" r="1" fill="white"/>
  <circle cx="4" cy="14" r="1" fill="white"/>
  <circle cx="5" cy="14" r="1" fill="white"/>
  <circle cx="6" cy="14" r="1" fill="srgba(98.1262%,98.8647%,99.6246%,1)"/>
  <circle cx="7" cy="14" r="1" fill="srgba(75.9655%,85.4444%,95.1919%,1)"/>
  <circle cx="8" cy="14" r="1" fill="srgba(97.9828%,98.7778%,99.5972%,1)"/>
  <circle cx="9" cy="14" r="1" fill="white"/>
  <circle cx="10" cy="14" r="1" fill="white"/>
  <circle cx="11" cy="14" r="1" fill="white"/>
  <circle cx="12" cy="14" r="1" fill="white"/>
  <circle cx="13" cy="14" r="1" fill="white"/>
  <circle cx="14" cy="14" r="1" fill="white"/>
  <circle cx="15" cy="14" r="1" fill="white"/>
  <circle cx="0" cy="15" r="1" fill="white"/>
  <circle cx="1" cy="15" r="1" fill="white"/>
  <circle cx="2" cy="15" r="1" fill="white"/>
  <circle cx="3" cy="15" r="1" fill="white"/>
  <circle cx="4" cy="15" r="1" fill="white"/>
  <circle cx="5" cy="15" r="1" fill="white"/>
  <circle cx="6" cy="15" r="1" fill="srgba(99.2462%,99.5438%,99.8489%,1)"/>
  <circle cx="7" cy="15" r="1" fill="srgba(82.5788%,89.4514%,96.5164%,1)"/>
  <circle cx="8" cy="15" r="1" fill="srgba(98.0911%,98.8434%,99.6185%,1)"/>
  <circle cx="9" cy="15" r="1" fill="white"/>
  <circle cx="10" cy="15" r="1" fill="white"/>
  <circle cx="11" cy="15" r="1" fill="white"/>
  <circle cx="12" cy="15" r="1" fill="white"/>
  <circle cx="13" cy="15" r="1" fill="white"/>
  <circle cx="14" cy="15" r="1" fill="white"/>
  <circle cx="15" cy="15" r="1" fill="white"/>
</svg>
