<?xml version="1.0" standalone="no"?>
<!DOCTYPE svg PUBLIC "-//W3C//DTD SVG 20010904//EN"
  "http://www.w3.org/TR/2001/REC-SVG-20010904/DTD/svg10.dtd">
<svg width="16" height="16">
  <circle cx="0" cy="0" r="1" fill="white"/>
  <circle cx="1" cy="0" r="1" fill="white"/>
  <circle cx="2" cy="0" r="1" fill="srgba(99.9969%,99.9985%,100%,1)"/>
  <circle cx="3" cy="0" r="1" fill="srgba(99.9329%,99.942%,99.9557%,1)"/>
  <circle cx="4" cy="0" r="1" fill="srgba(99.44%,99.4675%,99.5605%,1)"/>
  <circle cx="5" cy="0" r="1" fill="srgba(99.8642%,99.8657%,99.8688%,1)"/>
  <circle cx="6" cy="0" r="1" fill="srgba(99.9786%,99.9786%,99.9786%,1)"/>
  <circle cx="7" cy="0" r="1" fill="white"/>
  <circle cx="8" cy="0" r="1" fill="white"/>
  <circle cx="9" cy="0" r="1" fill="white"/>
  <circle cx="10" cy="0" r="1" fill="white"/>
  <circle cx="11" cy="0" r="1" fill="white"/>
  <circle cx="12" cy="0" r="1" fill="white"/>
  <circle cx="13" cy="0" r="1" fill="white"/>
  <circle cx="14" cy="0" r="1" fill="white"/>
  <circle cx="15" cy="0" r="1" fill="white"/>
  <circle cx="0" cy="1" r="1" fill="white"/>
  <circle cx="1" cy="1" r="1" fill="srgba(99.8642%,99.8688%,99.8932%,1)"/>
  <circle cx="2" cy="1" r="1" fill="srgba(96.585%,96.4584%,95.9121%,1)"/>
  <circle cx="3" cy="1" r="1" fill="srgba(91.7891%,91.1406%,88.3085%,1)"/>
  <circle cx="4" cy="1" r="1" fill="srgba(88.1086%,87.1962%,83.1357%,1)"/>
  <circle cx="5" cy="1" r="1" fill="srgba(90.6447%,89.9107%,86.6682%,1)"/>
  <circle cx="6" cy="1" r="1" fill="srgba(98.5946%,98.6023%,98.6328%,1)"/>
  <circle cx="7" cy="1" r="1" fill="srgba(100%,100%,99.9664%,1)"/>
  <circle cx="8" cy="1" r="1" fill="srgba(94.8409%,95.9747%,98.2422%,1)"/>
  <circle cx="9" cy="1" r="1" fill="srgba(75.2956%,80.7202%,91.5663%,1)"/>
  <circle cx="10" cy="1" r="1" fill="srgba(73.5409%,79.35%,90.9682%,1)"/>
  <circle cx="11" cy="1" r="1" fill="srgba(73.6446%,79.4308%,91.0033%,1)"/>
  <circle cx="12" cy="1" r="1" fill="srgba(73.6446%,79.4308%,91.0033%,1)"/>
  <circle cx="13" cy="1" r="1" fill="srgba(73.6446%,79.4308%,91.0033%,1)"/>
  <circle cx="14" cy="1" r="1" fill="srgba(73.6446%,79.4308%,91.0033%,1)"/>
  <circle cx="15" cy="1" r="1" fill="srgba(73.6446%,79.4308%,91.0033%,1)"/>
  <circle cx="0" cy="2" r="1" fill="white"/>
  <circle cx="1" cy="2" r="1" fill="srgba(98.2712%,98.2956%,98.4054%,1)"/>
  <circle cx="2" cy="2" r="1" fill="srgba(85.1194%,83.4577%,76.228%,1)"/>
  <circle cx="3" cy="2" r="1" fill="srgba(78.2177%,71.7159%,43.4348%,1)"/>
  <circle cx="4" cy="2" r="1" fill="srgba(76.6247%,68.5084%,33.1777%,1)"/>
  <circle cx="5" cy="2" r="1" fill="srgba(79.678%,73.8262%,48.368%,1)"/>
  <circle cx="6" cy="2" r="1" fill="srgba(86.099%,84.77%,78.9746%,1)"/>
  <circle cx="7" cy="2" r="1" fill="srgba(98.8632%,98.5519%,97.8225%,1)"/>
  <circle cx="8" cy="2" r="1" fill="srgba(80.7614%,85.0141%,93.5317%,1)"/>
  <circle cx="9" cy="2" r="1" fill="srgba(7.53948%,27.8447%,68.4535%,1)"/>
  <circle cx="10" cy="2" r="1" fill="srgba(0.972%,22.7192%,66.2119%,1)"/>
  <circle cx="11" cy="2" r="1" fill="srgba(1.35958%,23.0213%,66.3447%,1)"/>
  <circle cx="12" cy="2" r="1" fill="srgba(1.35958%,23.0213%,66.3447%,1)"/>
  <circle cx="13" cy="2" r="1" fill="srgba(1.35958%,23.0213%,66.3447%,1)"/>
  <circle cx="14" cy="2" r="1" fill="srgba(1.35958%,23.0213%,66.3447%,1)"/>
  <circle cx="15" cy="2" r="1" fill="srgba(1.35958%,23.0213%,66.3447%,1)"/>
  <circle cx="0" cy="3" r="1" fill="white"/>
  <circle cx="1" cy="3" r="1" fill="srgba(89.9123%,89.1371%,85.7649%,1)"/>
  <circle cx="2" cy="3" r="1" fill="srgba(78.9563%,72.5795%,44.8493%,1)"/>
  <circle cx="3" cy="3" r="1" fill="srgba(74.4488%,62.4414%,10.2174%,1)"/>
  <circle cx="4" cy="3" r="1" fill="srgba(77.1695%,63.8758%,6.07004%,1)"/>
  <circle cx="5" cy="3" r="1" fill="srgba(74.3954%,62.7314%,12.0058%,1)"/>
  <circle cx="6" cy="3" r="1" fill="srgba(79.1287%,73.4936%,48.986%,1)"/>
  <circle cx="7" cy="3" r="1" fill="srgba(94.2641%,93.7713%,91.9814%,1)"/>
  <circle cx="8" cy="3" r="1" fill="srgba(89.4438%,91.841%,96.6934%,1)"/>
  <circle cx="9" cy="3" r="1" fill="srgba(48.3818%,59.7208%,82.388%,1)"/>
  <circle cx="10" cy="3" r="1" fill="srgba(44.7135%,56.8582%,81.1368%,1)"/>
  <circle cx="11" cy="3" r="1" fill="srgba(44.9302%,57.0275%,81.21%,1)"/>
  <circle cx="12" cy="3" r="1" fill="srgba(44.9302%,57.0275%,81.21%,1)"/>
  <circle cx="13" cy="3" r="1" fill="srgba(44.9302%,57.0275%,81.21%,1)"/>
  <circle cx="14" cy="3" r="1" fill="srgba(44.9302%,57.0275%,81.21%,1)"/>
  <circle cx="15" cy="3" r="1" fill="srgba(44.9302%,57.0275%,81.21%,1)"/>
  <circle cx="0" cy="4" r="1" fill="srgba(99.6918%,99.7482%,99.9954%,1)"/>
  <circle cx="1" cy="4" r="1" fill="srgba(88.751%,87.9332%,84.3687%,1)"/>
  <circle cx="2" cy="4" r="1" fill="srgba(76.7391%,68.6809%,33.608%,1)"/>
  <circle cx="3" cy="4" r="1" fill="srgba(77.9065%,64.4877%,6.11887%,1)"/>
  <circle cx="4" cy="4" r="1" fill="srgba(80.087%,66.392%,6.83909%,1)"/>
  <circle cx="5" cy="4" r="1" fill="srgba(77.2824%,64.0803%,6.65141%,1)"/>
  <circle cx="6" cy="4" r="1" fill="srgba(77.1939%,70.0923%,39.1836%,1)"/>
  <circle cx="7" cy="4" r="1" fill="srgba(90.0557%,89.5232%,87.2023%,1)"/>
  <circle cx="8" cy="4" r="1" fill="white"/>
  <circle cx="9" cy="4" r="1" fill="white"/>
  <circle cx="10" cy="4" r="1" fill="white"/>
  <circle cx="11" cy="4" r="1" fill="white"/>
  <circle cx="12" cy="4" r="1" fill="white"/>
  <circle cx="13" cy="4" r="1" fill="white"/>
  <circle cx="14" cy="4" r="1" fill="white"/>
  <circle cx="15" cy="4" r="1" fill="white"/>
  <circle cx="0" cy="5" r="1" fill="white"/>
  <circle cx="1" cy="5" r="1" fill="srgba(91.9951%,91.4275%,88.9509%,1)"/>
  <circle cx="2" cy="5" r="1" fill="srgba(78.3032%,72.2713%,46.0441%,1)"/>
  <circle cx="3" cy="5" r="1" fill="srgba(75.5779%,63.7568%,12.3476%,1)"/>
  <circle cx="4" cy="5" r="1" fill="srgba(75.7488%,62.8046%,6.51713%,1)"/>
  <circle cx="5" cy="5" r="1" fill="srgba(75.6176%,64.1779%,14.4167%,1)"/>
  <circle cx="6" cy="5" r="1" fill="srgba(80.4883%,75.4513%,53.5424%,1)"/>
  <circle cx="7" cy="5" r="1" fill="srgba(93.1624%,92.5383%,90.2312%,1)"/>
  <circle cx="8" cy="5" r="1" fill="srgba(87.5257%,90.3532%,96.0815%,1)"/>
  <circle cx="9" cy="5" r="1" fill="srgba(39.115%,52.4895%,79.2279%,1)"/>
  <circle cx="10" cy="5" r="1" fill="srgba(34.7906%,49.1142%,77.7523%,1)"/>
  <circle cx="11" cy="5" r="1" fill="srgba(35.0454%,49.3141%,77.8393%,1)"/>
  <circle cx="12" cy="5" r="1" fill="srgba(35.0454%,49.3141%,77.8393%,1)"/>
  <circle cx="13" cy="5" r="1" fill="srgba(35.0454%,49.3141%,77.8393%,1)"/>
  <circle cx="14" cy="5" r="1" fill="srgba(35.0454%,49.3141%,77.8393%,1)"/>
  <circle cx="15" cy="5" r="1" fill="srgba(35.0454%,49.3141%,77.8393%,1)"/>
  <circle cx="0" cy="6" r="1" fill="white"/>
  <circle cx="1" cy="6" r="1" fill="srgba(97.5097%,97.4685%,97.2961%,1)"/>
  <circle cx="2" cy="6" r="1" fill="srgba(86.6758%,85.4444%,80.0946%,1)"/>
  <circle cx="3" cy="6" r="1" fill="srgba(79.6536%,74.1268%,50.0938%,1)"/>
  <circle cx="4" cy="6" r="1" fill="srgba(77.7203%,70.6371%,39.8352%,1)"/>
  <circle cx="5" cy="6" r="1" fill="srgba(79.2248%,74.0124%,51.339%,1)"/>
  <circle cx="6" cy="6" r="1" fill="srgba(87.6219%,86.6636%,82.4918%,1)"/>
  <circle cx="7" cy="6" r="1" fill="srgba(100%,100%,99.9695%,1)"/>
  <circle cx="8" cy="6" r="1" fill="srgba(81.413%,85.4978%,93.669%,1)"/>
  <circle cx="9" cy="6" r="1" fill="srgba(11.0399%,30.5745%,69.6498%,1)"/>
  <circle cx="10" cy="6" r="1" fill="srgba(4.71962%,25.6428%,67.4952%,1)"/>
  <circle cx="11" cy="6" r="1" fill="srgba(5.09346%,25.9342%,67.6219%,1)"/>
  <circle cx="12" cy="6" r="1" fill="srgba(5.09346%,25.9342%,67.6219%,1)"/>
  <circle cx="13" cy="6" r="1" fill="srgba(5.09346%,25.9342%,67.6219%,1)"/>
  <circle cx="14" cy="6" r="1" fill="srgba(5.09346%,25.9342%,67.6219%,1)"/>
  <circle cx="15" cy="6" r="1" fill="srgba(5.09346%,25.9342%,67.6219%,1)"/>
  <circle cx="0" cy="7" r="1" fill="white"/>
  <circle cx="1" cy="7" r="1" fill="srgba(99.9786%,99.9588%,99.913%,1)"/>
  <circle cx="2" cy="7" r="1" fill="srgba(99.1226%,99.028%,98.7808%,1)"/>
  <circle cx="3" cy="7" r="1" fill="srgba(92.221%,91.4855%,88.658%,1)"/>
  <circle cx="4" cy="7" r="1" fill="srgba(90.9026%,90.193%,87.3976%,1)"/>
  <circle cx="5" cy="7" r="1" fill="srgba(94.1833%,93.6477%,91.6472%,1)"/>
  <circle cx="6" cy="7" r="1" fill="srgba(98.6145%,98.4817%,98.0758%,1)"/>
  <circle cx="7" cy="7" r="1" fill="white"/>
  <circle cx="8" cy="7" r="1" fill="srgba(96.5682%,97.322%,98.8327%,1)"/>
  <circle cx="9" cy="7" r="1" fill="srgba(83.5798%,87.1839%,94.4015%,1)"/>
  <circle cx="10" cy="7" r="1" fill="srgba(82.414%,86.2745%,94.0047%,1)"/>
  <circle cx="11" cy="7" r="1" fill="srgba(82.4826%,86.3279%,94.0276%,1)"/>
  <circle cx="12" cy="7" r="1" fill="srgba(82.4826%,86.3279%,94.0276%,1)"/>
  <circle cx="13" cy="7" r="1" fill="srgba(82.4826%,86.3279%,94.0276%,1)"/>
  <circle cx="14" cy="7" r="1" fill="srgba(82.4826%,86.3279%,94.0276%,1)"/>
  <circle cx="15" cy="7" r="1" fill="srgba(82.4826%,86.3279%,94.0276%,1)"/>
  <circle cx="0" cy="8" r="1" fill="srgba(81.3031%,85.4078%,93.6248%,1)"/>
  <circle cx="1" cy="8" r="1" fill="srgba(81.3092%,85.4139%,93.6309%,1)"/>
  <circle cx="2" cy="8" r="1" fill="srgba(81.3291%,85.4337%,93.6553%,1)"/>
  <circle cx="3" cy="8" r="1" fill="srgba(81.5747%,85.7145%,94.0826%,1)"/>
  <circle cx="4" cy="8" r="1" fill="srgba(81.3275%,85.4688%,93.8415%,1)"/>
  <circle cx="5" cy="8" r="1" fill="srgba(81.5656%,85.6947%,94.02%,1)"/>
  <circle cx="6" cy="8" r="1" fill="srgba(81.3718%,85.4795%,93.7118%,1)"/>
  <circle cx="7" cy="8" r="1" fill="srgba(81.2909%,85.3986%,93.6217%,1)"/>
  <circle cx="8" cy="8" r="1" fill="srgba(81.5335%,85.5879%,93.7041%,1)"/>
  <circle cx="9" cy="8" r="1" fill="srgba(82.4094%,86.2699%,94.0017%,1)"/>
  <circle cx="10" cy="8" r="1" fill="srgba(82.4872%,86.331%,94.0291%,1)"/>
  <circle cx="11" cy="8" r="1" fill="srgba(82.4826%,86.3279%,94.0276%,1)"/>
  <circle cx="12" cy="8" r="1" fill="srgba(82.4826%,86.3279%,94.0276%,1)"/>
  <circle cx="13" cy="8" r="1" fill="srgba(82.4826%,86.3279%,94.0276%,1)"/>
  <circle cx="14" cy="8" r="1" fill="srgba(82.4826%,86.3279%,94.0276%,1)"/>
  <circle cx="15" cy="8" r="1" fill="srgba(82.4826%,86.3279%,94.0276%,1)"/>
  <circle cx="0" cy="9" r="1" fill="srgba(5.09346%,25.9342%,67.6219%,1)"/>
  <circle cx="1" cy="9" r="1" fill="srgba(5.09346%,25.9342%,67.6219%,1)"/>
  <circle cx="2" cy="9" r="1" fill="srgba(5.09346%,25.9342%,67.6219%,1)"/>
  <circle cx="3" cy="9" r="1" fill="srgba(5.09499%,25.9358%,67.6234%,1)"/>
  <circle cx="4" cy="9" r="1" fill="srgba(5.10262%,25.9434%,67.631%,1)"/>
  <circle cx="5" cy="9" r="1" fill="srgba(5.09346%,25.9342%,67.6219%,1)"/>
  <circle cx="6" cy="9" r="1" fill="srgba(5.09346%,25.9342%,67.6219%,1)"/>
  <circle cx="7" cy="9" r="1" fill="srgba(5.09346%,25.9342%,67.6219%,1)"/>
  <circle cx="8" cy="9" r="1" fill="srgba(5.09346%,25.9342%,67.6219%,1)"/>
  <circle cx="9" cy="9" r="1" fill="srgba(5.09346%,25.9342%,67.6219%,1)"/>
  <circle cx="10" cy="9" r="1" fill="srgba(5.09346%,25.9342%,67.6219%,1)"/>
  <circle cx="11" cy="9" r="1" fill="srgba(5.09346%,25.9342%,67.6219%,1)"/>
  <circle cx="12" cy="9" r="1" fill="srgba(5.09346%,25.9342%,67.6219%,1)"/>
  <circle cx="13" cy="9" r="1" fill="srgba(5.09346%,25.9342%,67.6219%,1)"/>
  <circle cx="14" cy="9" r="1" fill="srgba(5.09346%,25.9342%,67.6219%,1)"/>
  <circle cx="15" cy="9" r="1" fill="srgba(5.09346%,25.9342%,67.6219%,1)"/>
  <circle cx="0" cy="10" r="1" fill="srgba(35.0454%,49.3141%,77.8393%,1)"/>
  <circle cx="1" cy="10" r="1" fill="srgba(35.0454%,49.3141%,77.8393%,1)"/>
  <circle cx="2" cy="10" r="1" fill="srgba(35.0454%,49.3141%,77.8393%,1)"/>
  <circle cx="3" cy="10" r="1" fill="srgba(35.0454%,49.3141%,77.8393%,1)"/>
  <circle cx="4" cy="10" r="1" fill="srgba(35.0454%,49.3141%,77.8393%,1)"/>
  <circle cx="5" cy="10" r="1" fill="srgba(35.0454%,49.3141%,77.8393%,1)"/>
  <circle cx="6" cy="10" r="1" fill="srgba(35.0454%,49.3141%,77.8393%,1)"/>
  <circle cx="7" cy="10" r="1" fill="srgba(35.0454%,49.3141%,77.8393%,1)"/>
  <circle cx="8" cy="10" r="1" fill="srgba(35.0454%,49.3141%,77.8393%,1)"/>
  <circle cx="9" cy="10" r="1" fill="srgba(35.0454%,49.3141%,77.8393%,1)"/>
  <circle cx="10" cy="10" r="1" fill="srgba(35.0454%,49.3141%,77.8393%,1)"/>
  <circle cx="11" cy="10" r="1" fill="srgba(35.0454%,49.3141%,77.8393%,1)"/>
  <circle cx="12" cy="10" r="1" fill="srgba(35.0454%,49.3141%,77.8393%,1)"/>
  <circle cx="13" cy="10" r="1" fill="srgba(35.0454%,49.3141%,77.8393%,1)"/>
  <circle cx="14" cy="10" r="1" fill="srgba(35.0454%,49.3141%,77.8393%,1)"/>
  <circle cx="15" cy="10" r="1" fill="srgba(35.0454%,49.3141%,77.8393%,1)"/>
  <circle cx="0" cy="11" r="1" fill="white"/>
  <circle cx="1" cy="11" r="1" fill="white"/>
  <circle cx="2" cy="11" r="1" fill="white"/>
  <circle cx="3" cy="11" r="1" fill="white"/>
  <circle cx="4" cy="11" r="1" fill="white"/>
  <circle cx="5" cy="11" r="1" fill="white"/>
  <circle cx="6" cy="11" r="1" fill="white"/>
  <circle cx="7" cy="11" r="1" fill="white"/>
  <circle cx="8" cy="11" r="1" fill="white"/>
  <circle cx="9" cy="11" r="1" fill="white"/>
  <circle cx="10" cy="11" r="1" fill="white"/>
  <circle cx="11" cy="11" r="1" fill="white"/>
  <circle cx="12" cy="11" r="1" fill="white"/>
  <circle cx="13" cy="11" r="1" fill="white"/>
  <circle cx="14" cy="11" r="1" fill="white"/>
  <circle cx="15" cy="11" r="1" fill="white"/>
  <circle cx="0" cy="12" r="1" fill="srgba(44.9302%,57.0275%,81.21%,1)"/>
  <circle cx="1" cy="12" r="1" fill="srgba(44.9302%,57.0275%,81.21%,1)"/>
  <circle cx="2" cy="12" r="1" fill="srgba(44.9302%,57.0275%,81.21%,1)"/>
  <circle cx="3" cy="12" r="1" fill="srgba(44.9302%,57.0275%,81.21%,1)"/>
  <circle cx="4" cy="12" r="1" fill="srgba(44.9302%,57.0275%,81.21%,1)"/>
  <circle cx="5" cy="12" r="1" fill="srgba(44.9302%,57.0275%,81.21%,1)"/>
  <circle cx="6" cy="12" r="1" fill="srgba(44.9302%,57.0275%,81.21%,1)"/>
  <circle cx="7" cy="12" r="1" fill="srgba(44.9302%,57.0275%,81.21%,1)"/>
  <circle cx="8" cy="12" r="1" fill="srgba(44.9302%,57.0275%,81.21%,1)"/>
  <circle cx="9" cy="12" r="1" fill="srgba(44.9302%,57.0275%,81.21%,1)"/>
  <circle cx="10" cy="12" r="1" fill="srgba(44.9302%,57.0275%,81.21%,1)"/>
  <circle cx="11" cy="12" r="1" fill="srgba(44.9302%,57.0275%,81.21%,1)"/>
  <circle cx="12" cy="12" r="1" fill="srgba(44.9302%,57.0275%,81.21%,1)"/>
  <circle cx="13" cy="12" r="1" fill="srgba(44.9302%,57.0275%,81.21%,1)"/>
  <circle cx="14" cy="12" r="1" fill="srgba(44.9302%,57.0275%,81.21%,1)"/>
  <circle cx="15" cy="12" r="1" fill="srgba(44.9302%,57.0275%,81.21%,1)"/>
  <circle cx="0" cy="13" r="1" fill="srgba(1.35958%,23.0213%,66.3447%,1)"/>
  <circle cx="1" cy="13" r="1" fill="srgba(1.35958%,23.0213%,66.3447%,1)"/>
  <circle cx="2" cy="13" r="1" fill="srgba(1.35958%,23.0213%,66.3447%,1)"/>
  <circle cx="3" cy="13" r="1" fill="srgba(1.35958%,23.0213%,66.3447%,1)"/>
  <circle cx="4" cy="13" r="1" fill="srgba(1.35958%,23.0213%,66.3447%,1)"/>
  <circle cx="5" cy="13" r="1" fill="srgba(1.35958%,23.0213%,66.3447%,1)"/>
  <circle cx="6" cy="13" r="1" fill="srgba(1.35958%,23.0213%,66.3447%,1)"/>
  <circle cx="7" cy="13" r="1" fill="srgba(1.35958%,23.0213%,66.3447%,1)"/>
  <circle cx="8" cy="13" r="1" fill="srgba(1.35958%,23.0213%,66.3447%,1)"/>
  <circle cx="9" cy="13" r="1" fill="srgba(1.35958%,23.0213%,66.3447%,1)"/>
  <circle cx="10" cy="13" r="1" fill="srgba(1.35958%,23.0213%,66.3447%,1)"/>
  <circle cx="11" cy="13" r="1" fill="srgba(1.35958%,23.0213%,66.3447%,1)"/>
  <circle cx="12" cy="13" r="1" fill="srgba(1.35958%,23.0213%,66.3447%,1)"/>
  <circle cx="13" cy="13" r="1" fill="srgba(1.35958%,23.0213%,66.3447%,1)"/>
  <circle cx="14" cy="13" r="1" fill="srgba(1.35958%,23.0213%,66.3447%,1)"/>
  <circle cx="15" cy="13" r="1" fill="srgba(1.35958%,23.0213%,66.3447%,1)"/>
  <circle cx="0" cy="14" r="1" fill="srgba(73.6446%,79.4308%,91.0033%,1)"/>
  <circle cx="1" cy="14" r="1" fill="srgba(73.6446%,79.4308%,91.0033%,1)"/>
  <circle cx="2" cy="14" r="1" fill="srgba(73.6446%,79.4308%,91.0033%,1)"/>
  <circle cx="3" cy="14" r="1" fill="srgba(73.6446%,79.4308%,91.0033%,1)"/>
  <circle cx="4" cy="14" r="1" fill="srgba(73.6446%,79.4308%,91.0033%,1)"/>
  <circle cx="5" cy="14" r="1" fill="srgba(73.6446%,79.4308%,91.0033%,1)"/>
  <circle cx="6" cy="14" r="1" fill="srgba(73.6446%,79.4308%,91.0033%,1)"/>
  <circle cx="7" cy="14" r="1" fill="srgba(73.6446%,79.4308%,91.0033%,1)"/>
  <circle cx="8" cy="14" r="1" fill="srgba(73.6446%,79.4308%,91.0033%,1)"/>
  <circle cx="9" cy="14" r="1" fill="srgba(73.6446%,79.4308%,91.0033%,1)"/>
  <circle cx="10" cy="14" r="1" fill="srgba(73.6446%,79.4308%,91.0033%,1)"/>
  <circle cx="11" cy="14" r="1" fill="srgba(73.6446%,79.4308%,91.0033%,1)"/>
  <circle cx="12" cy="14" r="1" fill="srgba(73.6446%,79.4308%,91.0033%,1)"/>
  <circle cx="13" cy="14" r="1" fill="srgba(73.6446%,79.4308%,91.0033%,1)"/>
  <circle cx="14" cy="14" r="1" fill="srgba(73.6446%,79.4308%,91.0033%,1)"/>
  <circle cx="15" cy="14" r="1" fill="srgba(73.6446%,79.4308%,91.0033%,1)"/>
  <circle cx="0" cy="15" r="1" fill="white"/>
  <circle cx="1" cy="15" r="1" fill="white"/>
  <circle cx="2" cy="15" r="1" fill="white"/>
  <circle cx="3" cy="15" r="1" fill="white"/>
  <circle cx="4" cy="15" r="1" fill="white"/>
  <circle cx="5" cy="15" r="1" fill="white"/>
  <circle cx="6" cy="15" r="1" fill="white"/>
  <circle cx="7" cy="15" r="1" fill="white"/>
  <circle cx="8" cy="15" r="1" fill="white"/>
  <circle cx="9" cy="15" r="1" fill="white"/>
  <circle cx="10" cy="15" r="1" fill="white"/>
  <circle cx="11" cy="15" r="1" fill="white"/>
  <circle cx="12" cy="15" r="1" fill="white"/>
  <circle cx="13" cy="15" r="1" fill="white"/>
  <circle cx="14" cy="15" r="1" fill="white"/>
  <circle cx="15" cy="15" r="1" fill="white"/>
</svg>
