<?xml version="1.0" standalone="no"?>
<!DOCTYPE svg PUBLIC "-//W3C//DTD SVG 20010904//EN"
  "http://www.w3.org/TR/2001/REC-SVG-20010904/DTD/svg10.dtd">
<svg width="16" height="16">
  <circle cx="0" cy="0" r="1" fill="srgba(0,153,181,1)"/>
  <circle cx="1" cy="0" r="1" fill="srgba(0%,59.9878%,70.9712%,1)"/>
  <circle cx="2" cy="0" r="1" fill="srgba(0.584421%,60.0793%,71.0369%,1)"/>
  <circle cx="3" cy="0" r="1" fill="srgba(16.202%,66.4195%,75.6374%,1)"/>
  <circle cx="4" cy="0" r="1" fill="srgba(10.8873%,64.3595%,74.1436%,1)"/>
  <circle cx="5" cy="0" r="1" fill="srgba(0%,59.9359%,70.9346%,1)"/>
  <circle cx="6" cy="0" r="1" fill="srgba(0%,59.9939%,70.9758%,1)"/>
  <circle cx="7" cy="0" r="1" fill="srgba(0%,59.9786%,70.9651%,1)"/>
  <circle cx="8" cy="0" r="1" fill="srgba(7.39147%,62.9572%,73.1243%,1)"/>
  <circle cx="9" cy="0" r="1" fill="srgba(4.7776%,61.912%,72.3674%,1)"/>
  <circle cx="10" cy="0" r="1" fill="srgba(6.90471%,62.7619%,72.9839%,1)"/>
  <circle cx="11" cy="0" r="1" fill="srgba(6.94438%,62.7787%,72.9961%,1)"/>
  <circle cx="12" cy="0" r="1" fill="srgba(2.79698%,61.1185%,71.7922%,1)"/>
  <circle cx="13" cy="0" r="1" fill="srgba(0%,59.9329%,70.9316%,1)"/>
  <circle cx="14" cy="0" r="1" fill="srgba(0,153,181,1)"/>
  <circle cx="15" cy="0" r="1" fill="srgba(0,153,181,1)"/>
  <circle cx="0" cy="1" r="1" fill="srgba(0,153,181,1)"/>
  <circle cx="1" cy="1" r="1" fill="srgba(0%,59.6048%,70.6935%,1)"/>
  <circle cx="2" cy="1" r="1" fill="srgba(19.4827%,67.7928%,76.6339%,1)"/>
  <circle cx="3" cy="1" r="1" fill="srgba(41.1505%,76.4599%,82.9221%,1)"/>
  <circle cx="4" cy="1" r="1" fill="srgba(3.93378%,61.5732%,72.1218%,1)"/>
  <circle cx="5" cy="1" r="1" fill="srgba(0%,59.9283%,70.9285%,1)"/>
  <circle cx="6" cy="1" r="1" fill="srgba(0.254826%,60.1022%,71.0536%,1)"/>
  <circle cx="7" cy="1" r="1" fill="srgba(0.469978%,60.1877%,71.1162%,1)"/>
  <circle cx="8" cy="1" r="1" fill="srgba(7.66003%,63.064%,73.2021%,1)"/>
  <circle cx="9" cy="1" r="1" fill="srgba(4.95766%,61.9821%,72.4193%,1)"/>
  <circle cx="10" cy="1" r="1" fill="srgba(7.16564%,62.8656%,73.0587%,1)"/>
  <circle cx="11" cy="1" r="1" fill="srgba(7.19768%,62.8794%,73.0694%,1)"/>
  <circle cx="12" cy="1" r="1" fill="srgba(2.89769%,61.1597%,71.8212%,1)"/>
  <circle cx="13" cy="1" r="1" fill="srgba(0%,59.9313%,70.93%,1)"/>
  <circle cx="14" cy="1" r="1" fill="srgba(0,153,181,1)"/>
  <circle cx="15" cy="1" r="1" fill="srgba(0,153,181,1)"/>
  <circle cx="0" cy="2" r="1" fill="srgba(0,153,181,1)"/>
  <circle cx="1" cy="2" r="1" fill="srgba(0%,59.3912%,70.5379%,1)"/>
  <circle cx="2" cy="2" r="1" fill="srgba(38.4955%,75.3994%,82.153%,1)"/>
  <circle cx="3" cy="2" r="1" fill="srgba(28.9357%,71.1574%,79.0753%,1)"/>
  <circle cx="4" cy="2" r="1" fill="srgba(0%,59.1958%,70.3975%,1)"/>
  <circle cx="5" cy="2" r="1" fill="srgba(0%,59.7436%,70.7942%,1)"/>
  <circle cx="6" cy="2" r="1" fill="srgba(4.82795%,61.9028%,72.3598%,1)"/>
  <circle cx="7" cy="2" r="1" fill="srgba(9.52316%,63.8102%,73.7438%,1)"/>
  <circle cx="8" cy="2" r="1" fill="srgba(9.9443%,63.9765%,73.8659%,1)"/>
  <circle cx="9" cy="2" r="1" fill="srgba(6.64988%,62.6596%,72.9091%,1)"/>
  <circle cx="10" cy="2" r="1" fill="srgba(9.5964%,63.8376%,73.7636%,1)"/>
  <circle cx="11" cy="2" r="1" fill="srgba(9.66049%,63.8636%,73.7835%,1)"/>
  <circle cx="12" cy="2" r="1" fill="srgba(3.89258%,61.5564%,72.1096%,1)"/>
  <circle cx="13" cy="2" r="1" fill="srgba(0%,59.9069%,70.9133%,1)"/>
  <circle cx="14" cy="2" r="1" fill="srgba(0,153,181,1)"/>
  <circle cx="15" cy="2" r="1" fill="srgba(0,153,181,1)"/>
  <circle cx="0" cy="3" r="1" fill="srgba(0%,60.2152%,71.2062%,1)"/>
  <circle cx="1" cy="3" r="1" fill="srgba(0%,59.762%,70.8782%,1)"/>
  <circle cx="2" cy="3" r="1" fill="srgba(22.9847%,69.4682%,77.9187%,1)"/>
  <circle cx="3" cy="3" r="1" fill="srgba(40.3067%,76.4721%,82.9999%,1)"/>
  <circle cx="4" cy="3" r="1" fill="srgba(2.1149%,61.1582%,71.8914%,1)"/>
  <circle cx="5" cy="3" r="1" fill="srgba(5.42153%,62.4613%,72.8359%,1)"/>
  <circle cx="6" cy="3" r="1" fill="srgba(4.17487%,61.9379%,72.4559%,1)"/>
  <circle cx="7" cy="3" r="1" fill="srgba(5.98001%,62.6719%,72.9885%,1)"/>
  <circle cx="8" cy="3" r="1" fill="srgba(6.55375%,62.9068%,73.1594%,1)"/>
  <circle cx="9" cy="3" r="1" fill="srgba(4.36866%,62.0142%,72.5109%,1)"/>
  <circle cx="10" cy="3" r="1" fill="srgba(6.32792%,62.8138%,73.0922%,1)"/>
  <circle cx="11" cy="3" r="1" fill="srgba(6.35691%,62.829%,73.1014%,1)"/>
  <circle cx="12" cy="3" r="1" fill="srgba(2.55589%,61.268%,71.9707%,1)"/>
  <circle cx="13" cy="3" r="1" fill="srgba(0%,60.1526%,71.1604%,1)"/>
  <circle cx="14" cy="3" r="1" fill="srgba(0%,60.2152%,71.2062%,1)"/>
  <circle cx="15" cy="3" r="1" fill="srgba(0%,60.2152%,71.2062%,1)"/>
  <circle cx="0" cy="4" r="1" fill="srgba(5.04311%,55.6573%,66.54%,1)"/>
  <circle cx="1" cy="4" r="1" fill="srgba(4.97139%,55.6283%,66.5187%,1)"/>
  <circle cx="2" cy="4" r="1" fill="srgba(5.97086%,56.0281%,66.8086%,1)"/>
  <circle cx="3" cy="4" r="1" fill="srgba(23.8636%,63.1846%,72.0012%,1)"/>
  <circle cx="4" cy="4" r="1" fill="srgba(16.0952%,60.0763%,69.7475%,1)"/>
  <circle cx="5" cy="4" r="1" fill="srgba(13.3364%,58.9746%,68.9448%,1)"/>
  <circle cx="6" cy="4" r="1" fill="srgba(10.3838%,57.7935%,68.0873%,1)"/>
  <circle cx="7" cy="4" r="1" fill="srgba(12.1386%,58.4955%,68.5969%,1)"/>
  <circle cx="8" cy="4" r="1" fill="srgba(12.8359%,58.7762%,68.8014%,1)"/>
  <circle cx="9" cy="4" r="1" fill="srgba(10.2556%,57.7432%,68.0522%,1)"/>
  <circle cx="10" cy="4" r="1" fill="srgba(12.5841%,58.6725%,68.7282%,1)"/>
  <circle cx="11" cy="4" r="1" fill="srgba(12.6009%,58.6816%,68.7327%,1)"/>
  <circle cx="12" cy="4" r="1" fill="srgba(8.09033%,56.8765%,67.4235%,1)"/>
  <circle cx="13" cy="4" r="1" fill="srgba(4.86152%,55.5856%,66.4881%,1)"/>
  <circle cx="14" cy="4" r="1" fill="srgba(5.04311%,55.6573%,66.54%,1)"/>
  <circle cx="15" cy="4" r="1" fill="srgba(5.04311%,55.6573%,66.54%,1)"/>
  <circle cx="0" cy="5" r="1" fill="srgba(75.8434%,68.5878%,72.8008%,1)"/>
  <circle cx="1" cy="5" r="1" fill="srgba(75.848%,68.5893%,72.8023%,1)"/>
  <circle cx="2" cy="5" r="1" fill="srgba(75.7534%,68.5512%,72.7749%,1)"/>
  <circle cx="3" cy="5" r="1" fill="srgba(75.0088%,68.2536%,72.5582%,1)"/>
  <circle cx="4" cy="5" r="1" fill="srgba(75.7626%,68.5557%,72.7779%,1)"/>
  <circle cx="5" cy="5" r="1" fill="srgba(75.4604%,68.4352%,72.6894%,1)"/>
  <circle cx="6" cy="5" r="1" fill="srgba(75.5901%,68.4871%,72.7276%,1)"/>
  <circle cx="7" cy="5" r="1" fill="srgba(75.5062%,68.4535%,72.7031%,1)"/>
  <circle cx="8" cy="5" r="1" fill="srgba(75.4742%,68.4398%,72.694%,1)"/>
  <circle cx="9" cy="5" r="1" fill="srgba(75.5962%,68.4886%,72.7291%,1)"/>
  <circle cx="10" cy="5" r="1" fill="srgba(75.4864%,68.4443%,72.697%,1)"/>
  <circle cx="11" cy="5" r="1" fill="srgba(75.4849%,68.4443%,72.697%,1)"/>
  <circle cx="12" cy="5" r="1" fill="srgba(75.6985%,68.5298%,72.7596%,1)"/>
  <circle cx="13" cy="5" r="1" fill="srgba(75.8526%,68.5908%,72.8038%,1)"/>
  <circle cx="14" cy="5" r="1" fill="srgba(75.8434%,68.5878%,72.8008%,1)"/>
  <circle cx="15" cy="5" r="1" fill="srgba(75.8434%,68.5878%,72.8008%,1)"/>
  <circle cx="0" cy="6" r="1" fill="white"/>
  <circle cx="1" cy="6" r="1" fill="white"/>
  <circle cx="2" cy="6" r="1" fill="white"/>
  <circle cx="3" cy="6" r="1" fill="white"/>
  <circle cx="4" cy="6" r="1" fill="white"/>
  <circle cx="5" cy="6" r="1" fill="white"/>
  <circle cx="6" cy="6" r="1" fill="white"/>
  <circle cx="7" cy="6" r="1" fill="white"/>
  <circle cx="8" cy="6" r="1" fill="white"/>
  <circle cx="9" cy="6" r="1" fill="white"/>
  <circle cx="10" cy="6" r="1" fill="white"/>
  <circle cx="11" cy="6" r="1" fill="white"/>
  <circle cx="12" cy="6" r="1" fill="white"/>
  <circle cx="13" cy="6" r="1" fill="white"/>
  <circle cx="14" cy="6" r="1" fill="white"/>
  <circle cx="15" cy="6" r="1" fill="white"/>
  <circle cx="0" cy="7" r="1" fill="white"/>
  <circle cx="1" cy="7" r="1" fill="white"/>
  <circle cx="2" cy="7" r="1" fill="white"/>
  <circle cx="3" cy="7" r="1" fill="white"/>
  <circle cx="4" cy="7" r="1" fill="white"/>
  <circle cx="5" cy="7" r="1" fill="white"/>
  <circle cx="6" cy="7" r="1" fill="white"/>
  <circle cx="7" cy="7" r="1" fill="white"/>
  <circle cx="8" cy="7" r="1" fill="white"/>
  <circle cx="9" cy="7" r="1" fill="white"/>
  <circle cx="10" cy="7" r="1" fill="white"/>
  <circle cx="11" cy="7" r="1" fill="white"/>
  <circle cx="12" cy="7" r="1" fill="white"/>
  <circle cx="13" cy="7" r="1" fill="white"/>
  <circle cx="14" cy="7" r="1" fill="white"/>
  <circle cx="15" cy="7" r="1" fill="white"/>
  <circle cx="0" cy="8" r="1" fill="white"/>
  <circle cx="1" cy="8" r="1" fill="white"/>
  <circle cx="2" cy="8" r="1" fill="white"/>
  <circle cx="3" cy="8" r="1" fill="white"/>
  <circle cx="4" cy="8" r="1" fill="white"/>
  <circle cx="5" cy="8" r="1" fill="white"/>
  <circle cx="6" cy="8" r="1" fill="white"/>
  <circle cx="7" cy="8" r="1" fill="white"/>
  <circle cx="8" cy="8" r="1" fill="white"/>
  <circle cx="9" cy="8" r="1" fill="white"/>
  <circle cx="10" cy="8" r="1" fill="white"/>
  <circle cx="11" cy="8" r="1" fill="white"/>
  <circle cx="12" cy="8" r="1" fill="white"/>
  <circle cx="13" cy="8" r="1" fill="white"/>
  <circle cx="14" cy="8" r="1" fill="white"/>
  <circle cx="15" cy="8" r="1" fill="white"/>
  <circle cx="0" cy="9" r="1" fill="white"/>
  <circle cx="1" cy="9" r="1" fill="white"/>
  <circle cx="2" cy="9" r="1" fill="white"/>
  <circle cx="3" cy="9" r="1" fill="white"/>
  <circle cx="4" cy="9" r="1" fill="white"/>
  <circle cx="5" cy="9" r="1" fill="white"/>
  <circle cx="6" cy="9" r="1" fill="white"/>
  <circle cx="7" cy="9" r="1" fill="white"/>
  <circle cx="8" cy="9" r="1" fill="white"/>
  <circle cx="9" cy="9" r="1" fill="white"/>
  <circle cx="10" cy="9" r="1" fill="white"/>
  <circle cx="11" cy="9" r="1" fill="white"/>
  <circle cx="12" cy="9" r="1" fill="white"/>
  <circle cx="13" cy="9" r="1" fill="white"/>
  <circle cx="14" cy="9" r="1" fill="white"/>
  <circle cx="15" cy="9" r="1" fill="white"/>
  <circle cx="0" cy="10" r="1" fill="srgba(78.1094%,70.7073%,63.5065%,1)"/>
  <circle cx="1" cy="10" r="1" fill="srgba(78.1094%,70.7073%,63.5065%,1)"/>
  <circle cx="2" cy="10" r="1" fill="srgba(78.1094%,70.7073%,63.5065%,1)"/>
  <circle cx="3" cy="10" r="1" fill="srgba(78.1094%,70.7073%,63.5065%,1)"/>
  <circle cx="4" cy="10" r="1" fill="srgba(78.1094%,70.7073%,63.5065%,1)"/>
  <circle cx="5" cy="10" r="1" fill="srgba(78.1094%,70.7073%,63.5065%,1)"/>
  <circle cx="6" cy="10" r="1" fill="srgba(78.1094%,70.7073%,63.5065%,1)"/>
  <circle cx="7" cy="10" r="1" fill="srgba(78.1094%,70.7073%,63.5065%,1)"/>
  <circle cx="8" cy="10" r="1" fill="srgba(78.1094%,70.7073%,63.5065%,1)"/>
  <circle cx="9" cy="10" r="1" fill="srgba(78.1094%,70.7073%,63.5065%,1)"/>
  <circle cx="10" cy="10" r="1" fill="srgba(78.1094%,70.7073%,63.5065%,1)"/>
  <circle cx="11" cy="10" r="1" fill="srgba(78.1094%,70.7073%,63.5065%,1)"/>
  <circle cx="12" cy="10" r="1" fill="srgba(78.1094%,70.7073%,63.5065%,1)"/>
  <circle cx="13" cy="10" r="1" fill="srgba(78.1094%,70.7073%,63.5065%,1)"/>
  <circle cx="14" cy="10" r="1" fill="srgba(78.1094%,70.7073%,63.5065%,1)"/>
  <circle cx="15" cy="10" r="1" fill="srgba(78.1094%,70.7073%,63.5065%,1)"/>
  <circle cx="0" cy="11" r="1" fill="srgba(16.0464%,65.9297%,21.4267%,1)"/>
  <circle cx="1" cy="11" r="1" fill="srgba(16.0464%,65.9297%,21.4267%,1)"/>
  <circle cx="2" cy="11" r="1" fill="srgba(16.0464%,65.9297%,21.4267%,1)"/>
  <circle cx="3" cy="11" r="1" fill="srgba(16.0464%,65.9297%,21.4267%,1)"/>
  <circle cx="4" cy="11" r="1" fill="srgba(16.0464%,65.9297%,21.4267%,1)"/>
  <circle cx="5" cy="11" r="1" fill="srgba(16.0464%,65.9297%,21.4267%,1)"/>
  <circle cx="6" cy="11" r="1" fill="srgba(16.0464%,65.9297%,21.4267%,1)"/>
  <circle cx="7" cy="11" r="1" fill="srgba(16.0464%,65.9297%,21.4267%,1)"/>
  <circle cx="8" cy="11" r="1" fill="srgba(16.0464%,65.9297%,21.4267%,1)"/>
  <circle cx="9" cy="11" r="1" fill="srgba(16.0464%,65.9297%,21.4267%,1)"/>
  <circle cx="10" cy="11" r="1" fill="srgba(16.0464%,65.9297%,21.4267%,1)"/>
  <circle cx="11" cy="11" r="1" fill="srgba(16.0464%,65.9297%,21.4267%,1)"/>
  <circle cx="12" cy="11" r="1" fill="srgba(16.0464%,65.9297%,21.4267%,1)"/>
  <circle cx="13" cy="11" r="1" fill="srgba(16.0464%,65.9297%,21.4267%,1)"/>
  <circle cx="14" cy="11" r="1" fill="srgba(16.0464%,65.9297%,21.4267%,1)"/>
  <circle cx="15" cy="11" r="1" fill="srgba(16.0464%,65.9297%,21.4267%,1)"/>
  <circle cx="0" cy="12" r="1" fill="srgba(11.4839%,71.2398%,22.7756%,1)"/>
  <circle cx="1" cy="12" r="1" fill="srgba(11.4839%,71.2398%,22.7756%,1)"/>
  <circle cx="2" cy="12" r="1" fill="srgba(11.4839%,71.2398%,22.7756%,1)"/>
  <circle cx="3" cy="12" r="1" fill="srgba(11.4839%,71.2398%,22.7756%,1)"/>
  <circle cx="4" cy="12" r="1" fill="srgba(11.4839%,71.2398%,22.7756%,1)"/>
  <circle cx="5" cy="12" r="1" fill="srgba(11.4839%,71.2398%,22.7756%,1)"/>
  <circle cx="6" cy="12" r="1" fill="srgba(11.4839%,71.2398%,22.7756%,1)"/>
  <circle cx="7" cy="12" r="1" fill="srgba(11.4839%,71.2398%,22.7756%,1)"/>
  <circle cx="8" cy="12" r="1" fill="srgba(11.4839%,71.2398%,22.7756%,1)"/>
  <circle cx="9" cy="12" r="1" fill="srgba(11.4839%,71.2398%,22.7756%,1)"/>
  <circle cx="10" cy="12" r="1" fill="srgba(11.4839%,71.2398%,22.7756%,1)"/>
  <circle cx="11" cy="12" r="1" fill="srgba(11.4839%,71.2398%,22.7756%,1)"/>
  <circle cx="12" cy="12" r="1" fill="srgba(11.4839%,71.2398%,22.7756%,1)"/>
  <circle cx="13" cy="12" r="1" fill="srgba(11.4839%,71.2398%,22.7756%,1)"/>
  <circle cx="14" cy="12" r="1" fill="srgba(11.4839%,71.2398%,22.7756%,1)"/>
  <circle cx="15" cy="12" r="1" fill="srgba(11.4839%,71.2398%,22.7756%,1)"/>
  <circle cx="0" cy="13" r="1" fill="srgba(30,181,58,1)"/>
  <circle cx="1" cy="13" r="1" fill="srgba(30,181,58,1)"/>
  <circle cx="2" cy="13" r="1" fill="srgba(30,181,58,1)"/>
  <circle cx="3" cy="13" r="1" fill="srgba(30,181,58,1)"/>
  <circle cx="4" cy="13" r="1" fill="srgba(30,181,58,1)"/>
  <circle cx="5" cy="13" r="1" fill="srgba(30,181,58,1)"/>
  <circle cx="6" cy="13" r="1" fill="srgba(30,181,58,1)"/>
  <circle cx="7" cy="13" r="1" fill="srgba(30,181,58,1)"/>
  <circle cx="8" cy="13" r="1" fill="srgba(30,181,58,1)"/>
  <circle cx="9" cy="13" r="1" fill="srgba(30,181,58,1)"/>
  <circle cx="10" cy="13" r="1" fill="srgba(30,181,58,1)"/>
  <circle cx="11" cy="13" r="1" fill="srgba(30,181,58,1)"/>
  <circle cx="12" cy="13" r="1" fill="srgba(30,181,58,1)"/>
  <circle cx="13" cy="13" r="1" fill="srgba(30,181,58,1)"/>
  <circle cx="14" cy="13" r="1" fill="srgba(30,181,58,1)"/>
  <circle cx="15" cy="13" r="1" fill="srgba(30,181,58,1)"/>
  <circle cx="0" cy="14" r="1" fill="srgba(30,181,58,1)"/>
  <circle cx="1" cy="14" r="1" fill="srgba(30,181,58,1)"/>
  <circle cx="2" cy="14" r="1" fill="srgba(30,181,58,1)"/>
  <circle cx="3" cy="14" r="1" fill="srgba(30,181,58,1)"/>
  <circle cx="4" cy="14" r="1" fill="srgba(30,181,58,1)"/>
  <circle cx="5" cy="14" r="1" fill="srgba(30,181,58,1)"/>
  <circle cx="6" cy="14" r="1" fill="srgba(30,181,58,1)"/>
  <circle cx="7" cy="14" r="1" fill="srgba(30,181,58,1)"/>
  <circle cx="8" cy="14" r="1" fill="srgba(30,181,58,1)"/>
  <circle cx="9" cy="14" r="1" fill="srgba(30,181,58,1)"/>
  <circle cx="10" cy="14" r="1" fill="srgba(30,181,58,1)"/>
  <circle cx="11" cy="14" r="1" fill="srgba(30,181,58,1)"/>
  <circle cx="12" cy="14" r="1" fill="srgba(30,181,58,1)"/>
  <circle cx="13" cy="14" r="1" fill="srgba(30,181,58,1)"/>
  <circle cx="14" cy="14" r="1" fill="srgba(30,181,58,1)"/>
  <circle cx="15" cy="14" r="1" fill="srgba(30,181,58,1)"/>
  <circle cx="0" cy="15" r="1" fill="srgba(30,181,58,1)"/>
  <circle cx="1" cy="15" r="1" fill="srgba(30,181,58,1)"/>
  <circle cx="2" cy="15" r="1" fill="srgba(30,181,58,1)"/>
  <circle cx="3" cy="15" r="1" fill="srgba(30,181,58,1)"/>
  <circle cx="4" cy="15" r="1" fill="srgba(30,181,58,1)"/>
  <circle cx="5" cy="15" r="1" fill="srgba(30,181,58,1)"/>
  <circle cx="6" cy="15" r="1" fill="srgba(30,181,58,1)"/>
  <circle cx="7" cy="15" r="1" fill="srgba(30,181,58,1)"/>
  <circle cx="8" cy="15" r="1" fill="srgba(30,181,58,1)"/>
  <circle cx="9" cy="15" r="1" fill="srgba(30,181,58,1)"/>
  <circle cx="10" cy="15" r="1" fill="srgba(30,181,58,1)"/>
  <circle cx="11" cy="15" r="1" fill="srgba(30,181,58,1)"/>
  <circle cx="12" cy="15" r="1" fill="srgba(30,181,58,1)"/>
  <circle cx="13" cy="15" r="1" fill="srgba(30,181,58,1)"/>
  <circle cx="14" cy="15" r="1" fill="srgba(30,181,58,1)"/>
  <circle cx="15" cy="15" r="1" fill="srgba(30,181,58,1)"/>
</svg>
