<?xml version="1.0" standalone="no"?>
<!DOCTYPE svg PUBLIC "-//W3C//DTD SVG 20010904//EN"
  "http://www.w3.org/TR/2001/REC-SVG-20010904/DTD/svg10.dtd">
<svg width="16" height="16">
  <circle cx="0" cy="0" r="1" fill="srgba(255,224,0,1)"/>
  <circle cx="1" cy="0" r="1" fill="srgba(255,224,0,1)"/>
  <circle cx="2" cy="0" r="1" fill="srgba(255,224,0,1)"/>
  <circle cx="3" cy="0" r="1" fill="srgba(255,224,0,1)"/>
  <circle cx="4" cy="0" r="1" fill="srgba(255,224,0,1)"/>
  <circle cx="5" cy="0" r="1" fill="srgba(255,224,0,1)"/>
  <circle cx="6" cy="0" r="1" fill="srgba(100%,87.7485%,0%,1)"/>
  <circle cx="7" cy="0" r="1" fill="srgba(100%,89.3095%,12.0684%,1)"/>
  <circle cx="8" cy="0" r="1" fill="srgba(100%,98.5336%,87.9454%,1)"/>
  <circle cx="9" cy="0" r="1" fill="white"/>
  <circle cx="10" cy="0" r="1" fill="white"/>
  <circle cx="11" cy="0" r="1" fill="white"/>
  <circle cx="12" cy="0" r="1" fill="white"/>
  <circle cx="13" cy="0" r="1" fill="white"/>
  <circle cx="14" cy="0" r="1" fill="white"/>
  <circle cx="15" cy="0" r="1" fill="white"/>
  <circle cx="0" cy="1" r="1" fill="srgba(255,224,0,1)"/>
  <circle cx="1" cy="1" r="1" fill="srgba(255,224,0,1)"/>
  <circle cx="2" cy="1" r="1" fill="srgba(255,224,0,1)"/>
  <circle cx="3" cy="1" r="1" fill="srgba(255,224,0,1)"/>
  <circle cx="4" cy="1" r="1" fill="srgba(255,224,0,1)"/>
  <circle cx="5" cy="1" r="1" fill="srgba(255,224,0,1)"/>
  <circle cx="6" cy="1" r="1" fill="srgba(100%,87.7485%,0%,1)"/>
  <circle cx="7" cy="1" r="1" fill="srgba(100%,89.3095%,12.0684%,1)"/>
  <circle cx="8" cy="1" r="1" fill="srgba(100%,98.5336%,87.9454%,1)"/>
  <circle cx="9" cy="1" r="1" fill="white"/>
  <circle cx="10" cy="1" r="1" fill="white"/>
  <circle cx="11" cy="1" r="1" fill="white"/>
  <circle cx="12" cy="1" r="1" fill="white"/>
  <circle cx="13" cy="1" r="1" fill="white"/>
  <circle cx="14" cy="1" r="1" fill="white"/>
  <circle cx="15" cy="1" r="1" fill="white"/>
  <circle cx="0" cy="2" r="1" fill="srgba(255,224,0,1)"/>
  <circle cx="1" cy="2" r="1" fill="srgba(255,224,0,1)"/>
  <circle cx="2" cy="2" r="1" fill="srgba(255,224,0,1)"/>
  <circle cx="3" cy="2" r="1" fill="srgba(255,224,0,1)"/>
  <circle cx="4" cy="2" r="1" fill="srgba(255,224,0,1)"/>
  <circle cx="5" cy="2" r="1" fill="srgba(255,224,0,1)"/>
  <circle cx="6" cy="2" r="1" fill="srgba(100%,87.7485%,0%,1)"/>
  <circle cx="7" cy="2" r="1" fill="srgba(100%,89.3095%,12.0684%,1)"/>
  <circle cx="8" cy="2" r="1" fill="srgba(100%,98.5336%,87.9454%,1)"/>
  <circle cx="9" cy="2" r="1" fill="white"/>
  <circle cx="10" cy="2" r="1" fill="white"/>
  <circle cx="11" cy="2" r="1" fill="white"/>
  <circle cx="12" cy="2" r="1" fill="white"/>
  <circle cx="13" cy="2" r="1" fill="white"/>
  <circle cx="14" cy="2" r="1" fill="white"/>
  <circle cx="15" cy="2" r="1" fill="white"/>
  <circle cx="0" cy="3" r="1" fill="srgba(255,224,0,1)"/>
  <circle cx="1" cy="3" r="1" fill="srgba(255,224,0,1)"/>
  <circle cx="2" cy="3" r="1" fill="srgba(255,224,0,1)"/>
  <circle cx="3" cy="3" r="1" fill="srgba(255,224,0,1)"/>
  <circle cx="4" cy="3" r="1" fill="srgba(255,224,0,1)"/>
  <circle cx="5" cy="3" r="1" fill="srgba(255,224,0,1)"/>
  <circle cx="6" cy="3" r="1" fill="srgba(100%,87.7485%,0%,1)"/>
  <circle cx="7" cy="3" r="1" fill="srgba(100%,89.3095%,12.0684%,1)"/>
  <circle cx="8" cy="3" r="1" fill="srgba(100%,98.5336%,87.9454%,1)"/>
  <circle cx="9" cy="3" r="1" fill="white"/>
  <circle cx="10" cy="3" r="1" fill="white"/>
  <circle cx="11" cy="3" r="1" fill="srgba(99.9084%,99.852%,99.0814%,1)"/>
  <circle cx="12" cy="3" r="1" fill="srgba(99.9359%,99.8962%,99.3561%,1)"/>
  <circle cx="13" cy="3" r="1" fill="white"/>
  <circle cx="14" cy="3" r="1" fill="white"/>
  <circle cx="15" cy="3" r="1" fill="white"/>
  <circle cx="0" cy="4" r="1" fill="srgba(255,224,0,1)"/>
  <circle cx="1" cy="4" r="1" fill="srgba(255,224,0,1)"/>
  <circle cx="2" cy="4" r="1" fill="srgba(255,224,0,1)"/>
  <circle cx="3" cy="4" r="1" fill="srgba(255,224,0,1)"/>
  <circle cx="4" cy="4" r="1" fill="srgba(255,224,0,1)"/>
  <circle cx="5" cy="4" r="1" fill="srgba(255,224,0,1)"/>
  <circle cx="6" cy="4" r="1" fill="srgba(100%,87.7485%,0%,1)"/>
  <circle cx="7" cy="4" r="1" fill="srgba(100%,89.3095%,12.0684%,1)"/>
  <circle cx="8" cy="4" r="1" fill="srgba(100%,98.5443%,87.9667%,1)"/>
  <circle cx="9" cy="4" r="1" fill="srgba(99.8627%,99.9435%,100%,1)"/>
  <circle cx="10" cy="4" r="1" fill="srgba(99.7116%,99.6902%,99.3973%,1)"/>
  <circle cx="11" cy="4" r="1" fill="srgba(99.3133%,99.0112%,94.8928%,1)"/>
  <circle cx="12" cy="4" r="1" fill="srgba(99.4675%,99.237%,96.0952%,1)"/>
  <circle cx="13" cy="4" r="1" fill="srgba(99.7299%,99.7116%,99.4797%,1)"/>
  <circle cx="14" cy="4" r="1" fill="srgba(99.9191%,99.9115%,99.8184%,1)"/>
  <circle cx="15" cy="4" r="1" fill="white"/>
  <circle cx="0" cy="5" r="1" fill="srgba(255,224,0,1)"/>
  <circle cx="1" cy="5" r="1" fill="srgba(255,224,0,1)"/>
  <circle cx="2" cy="5" r="1" fill="srgba(255,224,0,1)"/>
  <circle cx="3" cy="5" r="1" fill="srgba(255,224,0,1)"/>
  <circle cx="4" cy="5" r="1" fill="srgba(255,224,0,1)"/>
  <circle cx="5" cy="5" r="1" fill="srgba(255,224,0,1)"/>
  <circle cx="6" cy="5" r="1" fill="srgba(100%,87.7485%,0%,1)"/>
  <circle cx="7" cy="5" r="1" fill="srgba(100%,89.3111%,12.0806%,1)"/>
  <circle cx="8" cy="5" r="1" fill="srgba(100%,98.5458%,87.8584%,1)"/>
  <circle cx="9" cy="5" r="1" fill="srgba(99.3011%,99.2584%,98.0743%,1)"/>
  <circle cx="10" cy="5" r="1" fill="srgba(98.1094%,97.7844%,93.1273%,1)"/>
  <circle cx="11" cy="5" r="1" fill="srgba(97.6104%,96.4279%,74.8211%,1)"/>
  <circle cx="12" cy="5" r="1" fill="srgba(97.7432%,96.6003%,76.3012%,1)"/>
  <circle cx="13" cy="5" r="1" fill="srgba(98.2513%,97.9751%,94.11%,1)"/>
  <circle cx="14" cy="5" r="1" fill="srgba(99.266%,99.2294%,98.5794%,1)"/>
  <circle cx="15" cy="5" r="1" fill="srgba(99.9268%,99.9313%,99.9969%,1)"/>
  <circle cx="0" cy="6" r="1" fill="srgba(255,224,0,1)"/>
  <circle cx="1" cy="6" r="1" fill="srgba(255,224,0,1)"/>
  <circle cx="2" cy="6" r="1" fill="srgba(255,224,0,1)"/>
  <circle cx="3" cy="6" r="1" fill="srgba(255,224,0,1)"/>
  <circle cx="4" cy="6" r="1" fill="srgba(255,224,0,1)"/>
  <circle cx="5" cy="6" r="1" fill="srgba(255,224,0,1)"/>
  <circle cx="6" cy="6" r="1" fill="srgba(100%,87.7485%,0%,1)"/>
  <circle cx="7" cy="6" r="1" fill="srgba(100%,89.3446%,12.1508%,1)"/>
  <circle cx="8" cy="6" r="1" fill="srgba(99.4675%,97.9553%,86.7491%,1)"/>
  <circle cx="9" cy="6" r="1" fill="srgba(90.6432%,90.0191%,80.7034%,1)"/>
  <circle cx="10" cy="6" r="1" fill="srgba(92.5933%,91.2657%,76.585%,1)"/>
  <circle cx="11" cy="6" r="1" fill="srgba(94.3481%,86.1784%,60.6668%,1)"/>
  <circle cx="12" cy="6" r="1" fill="srgba(94.3938%,87.2053%,62.4231%,1)"/>
  <circle cx="13" cy="6" r="1" fill="srgba(93.8506%,92.546%,75.0881%,1)"/>
  <circle cx="14" cy="6" r="1" fill="srgba(94.4533%,93.0526%,73.959%,1)"/>
  <circle cx="15" cy="6" r="1" fill="srgba(99.4461%,99.382%,98.4909%,1)"/>
  <circle cx="0" cy="7" r="1" fill="srgba(255,224,0,1)"/>
  <circle cx="1" cy="7" r="1" fill="srgba(255,224,0,1)"/>
  <circle cx="2" cy="7" r="1" fill="srgba(255,224,0,1)"/>
  <circle cx="3" cy="7" r="1" fill="srgba(255,224,0,1)"/>
  <circle cx="4" cy="7" r="1" fill="srgba(255,224,0,1)"/>
  <circle cx="5" cy="7" r="1" fill="srgba(255,224,0,1)"/>
  <circle cx="6" cy="7" r="1" fill="srgba(100%,87.7852%,0%,1)"/>
  <circle cx="7" cy="7" r="1" fill="srgba(99.6735%,88.983%,11.7403%,1)"/>
  <circle cx="8" cy="7" r="1" fill="srgba(89.9199%,88.4703%,78.1094%,1)"/>
  <circle cx="9" cy="7" r="1" fill="srgba(77.7676%,77.5357%,73.4813%,1)"/>
  <circle cx="10" cy="7" r="1" fill="srgba(86.5705%,85.0599%,68.6793%,1)"/>
  <circle cx="11" cy="7" r="1" fill="srgba(89.7185%,80.9903%,67.0085%,1)"/>
  <circle cx="12" cy="7" r="1" fill="srgba(92.0165%,83.9689%,63.6957%,1)"/>
  <circle cx="13" cy="7" r="1" fill="srgba(91.9982%,89.5369%,56.4645%,1)"/>
  <circle cx="14" cy="7" r="1" fill="srgba(94.1451%,90.2556%,37.3724%,1)"/>
  <circle cx="15" cy="7" r="1" fill="srgba(97.9141%,95.848%,67.8904%,1)"/>
  <circle cx="0" cy="8" r="1" fill="srgba(255,224,0,1)"/>
  <circle cx="1" cy="8" r="1" fill="srgba(255,224,0,1)"/>
  <circle cx="2" cy="8" r="1" fill="srgba(255,224,0,1)"/>
  <circle cx="3" cy="8" r="1" fill="srgba(255,224,0,1)"/>
  <circle cx="4" cy="8" r="1" fill="srgba(255,224,0,1)"/>
  <circle cx="5" cy="8" r="1" fill="srgba(255,224,0,1)"/>
  <circle cx="6" cy="8" r="1" fill="srgba(100%,87.7867%,0%,1)"/>
  <circle cx="7" cy="8" r="1" fill="srgba(99.4476%,88.7556%,11.5114%,1)"/>
  <circle cx="8" cy="8" r="1" fill="srgba(94.8867%,93.4386%,83.0945%,1)"/>
  <circle cx="9" cy="8" r="1" fill="srgba(88.8792%,88.7419%,86.3142%,1)"/>
  <circle cx="10" cy="8" r="1" fill="srgba(92.9763%,92.7703%,85.2522%,1)"/>
  <circle cx="11" cy="8" r="1" fill="srgba(86.1158%,79.2828%,61.1139%,1)"/>
  <circle cx="12" cy="8" r="1" fill="srgba(86.4179%,79.6872%,62.1454%,1)"/>
  <circle cx="13" cy="8" r="1" fill="srgba(92.9793%,92.5399%,82.2477%,1)"/>
  <circle cx="14" cy="8" r="1" fill="srgba(94.8806%,92.9946%,67.425%,1)"/>
  <circle cx="15" cy="8" r="1" fill="srgba(99.3256%,98.2116%,83.1189%,1)"/>
  <circle cx="0" cy="9" r="1" fill="srgba(255,224,0,1)"/>
  <circle cx="1" cy="9" r="1" fill="srgba(255,224,0,1)"/>
  <circle cx="2" cy="9" r="1" fill="srgba(255,224,0,1)"/>
  <circle cx="3" cy="9" r="1" fill="srgba(255,224,0,1)"/>
  <circle cx="4" cy="9" r="1" fill="srgba(255,224,0,1)"/>
  <circle cx="5" cy="9" r="1" fill="srgba(255,224,0,1)"/>
  <circle cx="6" cy="9" r="1" fill="srgba(100%,87.7485%,0%,1)"/>
  <circle cx="7" cy="9" r="1" fill="srgba(100%,89.3553%,12.1935%,1)"/>
  <circle cx="8" cy="9" r="1" fill="srgba(99.2844%,97.7157%,85.7313%,1)"/>
  <circle cx="9" cy="9" r="1" fill="srgba(95.2987%,93.93%,74.5464%,1)"/>
  <circle cx="10" cy="9" r="1" fill="srgba(95.4726%,93.7377%,65.6229%,1)"/>
  <circle cx="11" cy="9" r="1" fill="srgba(86.2165%,72.192%,47.158%,1)"/>
  <circle cx="12" cy="9" r="1" fill="srgba(79.4202%,67.5975%,64.6128%,1)"/>
  <circle cx="13" cy="9" r="1" fill="srgba(86.5156%,86.7018%,84.6265%,1)"/>
  <circle cx="14" cy="9" r="1" fill="srgba(89.4972%,89.2149%,85.0843%,1)"/>
  <circle cx="15" cy="9" r="1" fill="srgba(99.0097%,98.9395%,98.0026%,1)"/>
  <circle cx="0" cy="10" r="1" fill="srgba(255,224,0,1)"/>
  <circle cx="1" cy="10" r="1" fill="srgba(255,224,0,1)"/>
  <circle cx="2" cy="10" r="1" fill="srgba(255,224,0,1)"/>
  <circle cx="3" cy="10" r="1" fill="srgba(255,224,0,1)"/>
  <circle cx="4" cy="10" r="1" fill="srgba(255,224,0,1)"/>
  <circle cx="5" cy="10" r="1" fill="srgba(255,224,0,1)"/>
  <circle cx="6" cy="10" r="1" fill="srgba(100%,87.7546%,0%,1)"/>
  <circle cx="7" cy="10" r="1" fill="srgba(99.9588%,89.2668%,11.9936%,1)"/>
  <circle cx="8" cy="10" r="1" fill="srgba(98.4497%,96.6629%,81.6449%,1)"/>
  <circle cx="9" cy="10" r="1" fill="srgba(93.5821%,92.0653%,72.1706%,1)"/>
  <circle cx="10" cy="10" r="1" fill="srgba(91.3878%,85.8427%,68.8334%,1)"/>
  <circle cx="11" cy="10" r="1" fill="srgba(86.1555%,75.0988%,64.0131%,1)"/>
  <circle cx="12" cy="10" r="1" fill="srgba(83.4546%,73.6172%,71.7479%,1)"/>
  <circle cx="13" cy="10" r="1" fill="srgba(85.6809%,80.0763%,78.0804%,1)"/>
  <circle cx="14" cy="10" r="1" fill="srgba(87.628%,87.0756%,83.769%,1)"/>
  <circle cx="15" cy="10" r="1" fill="srgba(96.7376%,96.7147%,96.1883%,1)"/>
  <circle cx="0" cy="11" r="1" fill="srgba(255,224,0,1)"/>
  <circle cx="1" cy="11" r="1" fill="srgba(255,224,0,1)"/>
  <circle cx="2" cy="11" r="1" fill="srgba(255,224,0,1)"/>
  <circle cx="3" cy="11" r="1" fill="srgba(255,224,0,1)"/>
  <circle cx="4" cy="11" r="1" fill="srgba(255,224,0,1)"/>
  <circle cx="5" cy="11" r="1" fill="srgba(255,224,0,1)"/>
  <circle cx="6" cy="11" r="1" fill="srgba(100%,87.7546%,0%,1)"/>
  <circle cx="7" cy="11" r="1" fill="srgba(99.9313%,89.2287%,11.8303%,1)"/>
  <circle cx="8" cy="11" r="1" fill="srgba(99.2538%,97.7066%,85.9571%,1)"/>
  <circle cx="9" cy="11" r="1" fill="srgba(96.8399%,96.5759%,93.283%,1)"/>
  <circle cx="10" cy="11" r="1" fill="srgba(94.2%,90.37%,83.8117%,1)"/>
  <circle cx="11" cy="11" r="1" fill="srgba(86.4164%,75.0469%,70.84%,1)"/>
  <circle cx="12" cy="11" r="1" fill="srgba(86.2837%,75.8953%,73.9574%,1)"/>
  <circle cx="13" cy="11" r="1" fill="srgba(92.6528%,89.3095%,87.8218%,1)"/>
  <circle cx="14" cy="11" r="1" fill="srgba(96.1883%,95.848%,93.2937%,1)"/>
  <circle cx="15" cy="11" r="1" fill="srgba(98.8098%,98.7945%,98.471%,1)"/>
  <circle cx="0" cy="12" r="1" fill="srgba(255,224,0,1)"/>
  <circle cx="1" cy="12" r="1" fill="srgba(255,224,0,1)"/>
  <circle cx="2" cy="12" r="1" fill="srgba(255,224,0,1)"/>
  <circle cx="3" cy="12" r="1" fill="srgba(255,224,0,1)"/>
  <circle cx="4" cy="12" r="1" fill="srgba(255,224,0,1)"/>
  <circle cx="5" cy="12" r="1" fill="srgba(255,224,0,1)"/>
  <circle cx="6" cy="12" r="1" fill="srgba(100%,87.7485%,0%,1)"/>
  <circle cx="7" cy="12" r="1" fill="srgba(100%,89.3095%,12.0699%,1)"/>
  <circle cx="8" cy="12" r="1" fill="srgba(100%,98.5565%,88.0323%,1)"/>
  <circle cx="9" cy="12" r="1" fill="srgba(99.6567%,99.5468%,97.232%,1)"/>
  <circle cx="10" cy="12" r="1" fill="srgba(98.9181%,98.5962%,90.75%,1)"/>
  <circle cx="11" cy="12" r="1" fill="srgba(98.2452%,96.8551%,94.0993%,1)"/>
  <circle cx="12" cy="12" r="1" fill="srgba(97.4594%,96.4096%,96.5515%,1)"/>
  <circle cx="13" cy="12" r="1" fill="srgba(96.2768%,96.556%,96.6552%,1)"/>
  <circle cx="14" cy="12" r="1" fill="srgba(98.6496%,98.6725%,98.7976%,1)"/>
  <circle cx="15" cy="12" r="1" fill="white"/>
  <circle cx="0" cy="13" r="1" fill="srgba(255,224,0,1)"/>
  <circle cx="1" cy="13" r="1" fill="srgba(255,224,0,1)"/>
  <circle cx="2" cy="13" r="1" fill="srgba(255,224,0,1)"/>
  <circle cx="3" cy="13" r="1" fill="srgba(255,224,0,1)"/>
  <circle cx="4" cy="13" r="1" fill="srgba(255,224,0,1)"/>
  <circle cx="5" cy="13" r="1" fill="srgba(255,224,0,1)"/>
  <circle cx="6" cy="13" r="1" fill="srgba(100%,87.7516%,0%,1)"/>
  <circle cx="7" cy="13" r="1" fill="srgba(99.9786%,89.2729%,11.8364%,1)"/>
  <circle cx="8" cy="13" r="1" fill="srgba(99.1241%,97.116%,79.1806%,1)"/>
  <circle cx="9" cy="13" r="1" fill="srgba(98.4588%,97.731%,87.2786%,1)"/>
  <circle cx="10" cy="13" r="1" fill="srgba(99.6185%,99.4461%,97.1115%,1)"/>
  <circle cx="11" cy="13" r="1" fill="white"/>
  <circle cx="12" cy="13" r="1" fill="white"/>
  <circle cx="13" cy="13" r="1" fill="srgba(98.8357%,98.8357%,98.8357%,1)"/>
  <circle cx="14" cy="13" r="1" fill="srgba(94.7707%,94.7707%,94.7707%,1)"/>
  <circle cx="15" cy="13" r="1" fill="srgba(96.2234%,96.2234%,96.2234%,1)"/>
  <circle cx="0" cy="14" r="1" fill="srgba(255,224,0,1)"/>
  <circle cx="1" cy="14" r="1" fill="srgba(255,224,0,1)"/>
  <circle cx="2" cy="14" r="1" fill="srgba(255,224,0,1)"/>
  <circle cx="3" cy="14" r="1" fill="srgba(255,224,0,1)"/>
  <circle cx="4" cy="14" r="1" fill="srgba(255,224,0,1)"/>
  <circle cx="5" cy="14" r="1" fill="srgba(255,224,0,1)"/>
  <circle cx="6" cy="14" r="1" fill="srgba(100%,87.7729%,0%,1)"/>
  <circle cx="7" cy="14" r="1" fill="srgba(99.7635%,88.9006%,9.32021%,1)"/>
  <circle cx="8" cy="14" r="1" fill="srgba(98.9395%,96.7407%,76.2341%,1)"/>
  <circle cx="9" cy="14" r="1" fill="srgba(99.8169%,99.8093%,99.0982%,1)"/>
  <circle cx="10" cy="14" r="1" fill="white"/>
  <circle cx="11" cy="14" r="1" fill="white"/>
  <circle cx="12" cy="14" r="1" fill="white"/>
  <circle cx="13" cy="14" r="1" fill="white"/>
  <circle cx="14" cy="14" r="1" fill="srgba(99.353%,99.353%,99.353%,1)"/>
  <circle cx="15" cy="14" r="1" fill="srgba(95.0301%,95.0301%,95.0301%,1)"/>
  <circle cx="0" cy="15" r="1" fill="srgba(100%,87.8431%,0.0228885%,1)"/>
  <circle cx="1" cy="15" r="1" fill="srgba(100%,87.8431%,0.0228885%,1)"/>
  <circle cx="2" cy="15" r="1" fill="srgba(100%,87.8431%,0.0228885%,1)"/>
  <circle cx="3" cy="15" r="1" fill="srgba(100%,87.8431%,0.0228885%,1)"/>
  <circle cx="4" cy="15" r="1" fill="srgba(100%,87.8431%,0.0228885%,1)"/>
  <circle cx="5" cy="15" r="1" fill="srgba(100%,87.8431%,0.0228885%,1)"/>
  <circle cx="6" cy="15" r="1" fill="srgba(100%,87.7501%,0%,1)"/>
  <circle cx="7" cy="15" r="1" fill="srgba(99.9863%,89.2882%,11.9722%,1)"/>
  <circle cx="8" cy="15" r="1" fill="srgba(99.9802%,98.5046%,87.7882%,1)"/>
  <circle cx="9" cy="15" r="1" fill="white"/>
  <circle cx="10" cy="15" r="1" fill="white"/>
  <circle cx="11" cy="15" r="1" fill="white"/>
  <circle cx="12" cy="15" r="1" fill="white"/>
  <circle cx="13" cy="15" r="1" fill="white"/>
  <circle cx="14" cy="15" r="1" fill="white"/>
  <circle cx="15" cy="15" r="1" fill="srgba(99.9283%,99.9283%,99.9283%,1)"/>
</svg>
