<?xml version="1.0" standalone="no"?>
<!DOCTYPE svg PUBLIC "-//W3C//DTD SVG 20010904//EN"
  "http://www.w3.org/TR/2001/REC-SVG-20010904/DTD/svg10.dtd">
<svg width="16" height="16">
  <circle cx="0" cy="0" r="1" fill="srgba(0,88,170,1)"/>
  <circle cx="1" cy="0" r="1" fill="srgba(0,88,170,1)"/>
  <circle cx="2" cy="0" r="1" fill="srgba(0%,33.933%,67.3075%,1)"/>
  <circle cx="3" cy="0" r="1" fill="srgba(14.2779%,43.4577%,56.7208%,1)"/>
  <circle cx="4" cy="0" r="1" fill="srgba(86.5827%,88.7968%,6.3447%,1)"/>
  <circle cx="5" cy="0" r="1" fill="srgba(96.2722%,94.8775%,0%,1)"/>
  <circle cx="6" cy="0" r="1" fill="srgba(244,241,0,1)"/>
  <circle cx="7" cy="0" r="1" fill="srgba(244,241,0,1)"/>
  <circle cx="8" cy="0" r="1" fill="srgba(244,241,0,1)"/>
  <circle cx="9" cy="0" r="1" fill="srgba(244,241,0,1)"/>
  <circle cx="10" cy="0" r="1" fill="srgba(96.2127%,94.7189%,0%,1)"/>
  <circle cx="11" cy="0" r="1" fill="srgba(87.512%,91.2581%,0%,1)"/>
  <circle cx="12" cy="0" r="1" fill="srgba(22.6154%,65.4765%,0%,1)"/>
  <circle cx="13" cy="0" r="1" fill="srgba(8.97841%,60.0641%,0%,1)"/>
  <circle cx="14" cy="0" r="1" fill="srgba(25,154,0,1)"/>
  <circle cx="15" cy="0" r="1" fill="srgba(25,154,0,1)"/>
  <circle cx="0" cy="1" r="1" fill="srgba(0,88,170,1)"/>
  <circle cx="1" cy="1" r="1" fill="srgba(0,88,170,1)"/>
  <circle cx="2" cy="1" r="1" fill="srgba(0%,33.933%,67.3075%,1)"/>
  <circle cx="3" cy="1" r="1" fill="srgba(14.2779%,43.4577%,56.7208%,1)"/>
  <circle cx="4" cy="1" r="1" fill="srgba(86.5827%,88.7968%,6.3447%,1)"/>
  <circle cx="5" cy="1" r="1" fill="srgba(96.2722%,94.8775%,0%,1)"/>
  <circle cx="6" cy="1" r="1" fill="srgba(244,241,0,1)"/>
  <circle cx="7" cy="1" r="1" fill="srgba(244,241,0,1)"/>
  <circle cx="8" cy="1" r="1" fill="srgba(244,241,0,1)"/>
  <circle cx="9" cy="1" r="1" fill="srgba(244,241,0,1)"/>
  <circle cx="10" cy="1" r="1" fill="srgba(96.2127%,94.7189%,0%,1)"/>
  <circle cx="11" cy="1" r="1" fill="srgba(87.512%,91.2581%,0%,1)"/>
  <circle cx="12" cy="1" r="1" fill="srgba(22.6154%,65.4765%,0%,1)"/>
  <circle cx="13" cy="1" r="1" fill="srgba(8.97841%,60.0641%,0%,1)"/>
  <circle cx="14" cy="1" r="1" fill="srgba(25,154,0,1)"/>
  <circle cx="15" cy="1" r="1" fill="srgba(25,154,0,1)"/>
  <circle cx="0" cy="2" r="1" fill="srgba(0,88,170,1)"/>
  <circle cx="1" cy="2" r="1" fill="srgba(0,88,170,1)"/>
  <circle cx="2" cy="2" r="1" fill="srgba(0%,33.933%,67.3075%,1)"/>
  <circle cx="3" cy="2" r="1" fill="srgba(14.2779%,43.4577%,56.7208%,1)"/>
  <circle cx="4" cy="2" r="1" fill="srgba(86.5827%,88.7968%,6.3447%,1)"/>
  <circle cx="5" cy="2" r="1" fill="srgba(96.2737%,94.8775%,0%,1)"/>
  <circle cx="6" cy="2" r="1" fill="srgba(95.6878%,94.5098%,0%,1)"/>
  <circle cx="7" cy="2" r="1" fill="srgba(244,241,0,1)"/>
  <circle cx="8" cy="2" r="1" fill="srgba(244,241,0,1)"/>
  <circle cx="9" cy="2" r="1" fill="srgba(95.6878%,94.5098%,0%,1)"/>
  <circle cx="10" cy="2" r="1" fill="srgba(96.2142%,94.7189%,0%,1)"/>
  <circle cx="11" cy="2" r="1" fill="srgba(87.512%,91.2581%,0%,1)"/>
  <circle cx="12" cy="2" r="1" fill="srgba(22.6154%,65.4765%,0%,1)"/>
  <circle cx="13" cy="2" r="1" fill="srgba(8.97841%,60.0641%,0%,1)"/>
  <circle cx="14" cy="2" r="1" fill="srgba(25,154,0,1)"/>
  <circle cx="15" cy="2" r="1" fill="srgba(25,154,0,1)"/>
  <circle cx="0" cy="3" r="1" fill="srgba(0,88,170,1)"/>
  <circle cx="1" cy="3" r="1" fill="srgba(0,88,170,1)"/>
  <circle cx="2" cy="3" r="1" fill="srgba(0%,33.933%,67.3075%,1)"/>
  <circle cx="3" cy="3" r="1" fill="srgba(14.2779%,43.4577%,56.7208%,1)"/>
  <circle cx="4" cy="3" r="1" fill="srgba(86.5705%,88.7922%,6.3447%,1)"/>
  <circle cx="5" cy="3" r="1" fill="srgba(96.8276%,95.0988%,0%,1)"/>
  <circle cx="6" cy="3" r="1" fill="srgba(96.1547%,94.696%,0%,1)"/>
  <circle cx="7" cy="3" r="1" fill="srgba(95.6695%,94.5037%,0%,1)"/>
  <circle cx="8" cy="3" r="1" fill="srgba(95.6725%,94.5037%,0%,1)"/>
  <circle cx="9" cy="3" r="1" fill="srgba(96.2066%,94.7158%,0%,1)"/>
  <circle cx="10" cy="3" r="1" fill="srgba(96.7178%,94.9203%,0%,1)"/>
  <circle cx="11" cy="3" r="1" fill="srgba(87.4968%,91.2535%,0%,1)"/>
  <circle cx="12" cy="3" r="1" fill="srgba(22.6154%,65.4765%,0%,1)"/>
  <circle cx="13" cy="3" r="1" fill="srgba(8.97841%,60.0641%,0%,1)"/>
  <circle cx="14" cy="3" r="1" fill="srgba(25,154,0,1)"/>
  <circle cx="15" cy="3" r="1" fill="srgba(25,154,0,1)"/>
  <circle cx="0" cy="4" r="1" fill="srgba(0,88,170,1)"/>
  <circle cx="1" cy="4" r="1" fill="srgba(0,88,170,1)"/>
  <circle cx="2" cy="4" r="1" fill="srgba(0%,33.933%,67.3075%,1)"/>
  <circle cx="3" cy="4" r="1" fill="srgba(14.2641%,43.4531%,56.7208%,1)"/>
  <circle cx="4" cy="4" r="1" fill="srgba(87.4067%,89.1249%,6.3447%,1)"/>
  <circle cx="5" cy="4" r="1" fill="srgba(80.943%,88.7877%,0%,1)"/>
  <circle cx="6" cy="4" r="1" fill="srgba(82.6108%,89.3156%,0%,1)"/>
  <circle cx="7" cy="4" r="1" fill="srgba(96.4599%,94.8165%,0%,1)"/>
  <circle cx="8" cy="4" r="1" fill="srgba(96.5103%,94.8379%,0%,1)"/>
  <circle cx="9" cy="4" r="1" fill="srgba(81.4908%,88.8716%,0%,1)"/>
  <circle cx="10" cy="4" r="1" fill="srgba(81.9776%,89.0639%,0%,1)"/>
  <circle cx="11" cy="4" r="1" fill="srgba(88.3131%,91.577%,0%,1)"/>
  <circle cx="12" cy="4" r="1" fill="srgba(22.6047%,65.4734%,0%,1)"/>
  <circle cx="13" cy="4" r="1" fill="srgba(8.97841%,60.0641%,0%,1)"/>
  <circle cx="14" cy="4" r="1" fill="srgba(25,154,0,1)"/>
  <circle cx="15" cy="4" r="1" fill="srgba(25,154,0,1)"/>
  <circle cx="0" cy="5" r="1" fill="srgba(0,88,170,1)"/>
  <circle cx="1" cy="5" r="1" fill="srgba(0,88,170,1)"/>
  <circle cx="2" cy="5" r="1" fill="srgba(0%,33.933%,67.3075%,1)"/>
  <circle cx="3" cy="5" r="1" fill="srgba(14.641%,43.6027%,56.7208%,1)"/>
  <circle cx="4" cy="5" r="1" fill="srgba(81.0361%,86.5934%,6.3447%,1)"/>
  <circle cx="5" cy="5" r="1" fill="srgba(33.9269%,70.1106%,0%,1)"/>
  <circle cx="6" cy="5" r="1" fill="srgba(40.7889%,72.7016%,0%,1)"/>
  <circle cx="7" cy="5" r="1" fill="srgba(93.7774%,93.7514%,0%,1)"/>
  <circle cx="8" cy="5" r="1" fill="srgba(91.4397%,92.8237%,0%,1)"/>
  <circle cx="9" cy="5" r="1" fill="srgba(35.8358%,70.7347%,0%,1)"/>
  <circle cx="10" cy="5" r="1" fill="srgba(38.558%,71.8166%,0%,1)"/>
  <circle cx="11" cy="5" r="1" fill="srgba(84.4541%,90.0435%,0%,1)"/>
  <circle cx="12" cy="5" r="1" fill="srgba(22.8397%,65.5665%,0%,1)"/>
  <circle cx="13" cy="5" r="1" fill="srgba(8.97841%,60.0641%,0%,1)"/>
  <circle cx="14" cy="5" r="1" fill="srgba(25,154,0,1)"/>
  <circle cx="15" cy="5" r="1" fill="srgba(25,154,0,1)"/>
  <circle cx="0" cy="6" r="1" fill="srgba(0,88,170,1)"/>
  <circle cx="1" cy="6" r="1" fill="srgba(0,88,170,1)"/>
  <circle cx="2" cy="6" r="1" fill="srgba(0%,33.933%,67.3075%,1)"/>
  <circle cx="3" cy="6" r="1" fill="srgba(15.523%,43.9521%,56.7208%,1)"/>
  <circle cx="4" cy="6" r="1" fill="srgba(54.9248%,76.2203%,6.3447%,1)"/>
  <circle cx="5" cy="6" r="1" fill="srgba(10.779%,60.914%,0%,1)"/>
  <circle cx="6" cy="6" r="1" fill="srgba(14.2824%,62.1714%,0%,1)"/>
  <circle cx="7" cy="6" r="1" fill="srgba(77.2763%,87.1962%,0%,1)"/>
  <circle cx="8" cy="6" r="1" fill="srgba(68.4611%,83.6942%,0%,1)"/>
  <circle cx="9" cy="6" r="1" fill="srgba(11.0109%,60.8713%,0%,1)"/>
  <circle cx="10" cy="6" r="1" fill="srgba(13.5714%,61.8891%,0%,1)"/>
  <circle cx="11" cy="6" r="1" fill="srgba(64.802%,82.237%,0%,1)"/>
  <circle cx="12" cy="6" r="1" fill="srgba(23.8117%,65.9525%,0%,1)"/>
  <circle cx="13" cy="6" r="1" fill="srgba(8.97841%,60.0641%,0%,1)"/>
  <circle cx="14" cy="6" r="1" fill="srgba(25,154,0,1)"/>
  <circle cx="15" cy="6" r="1" fill="srgba(25,154,0,1)"/>
  <circle cx="0" cy="7" r="1" fill="srgba(0,88,170,1)"/>
  <circle cx="1" cy="7" r="1" fill="srgba(0,88,170,1)"/>
  <circle cx="2" cy="7" r="1" fill="srgba(0%,33.933%,67.3075%,1)"/>
  <circle cx="3" cy="7" r="1" fill="srgba(15.1492%,43.8041%,56.7208%,1)"/>
  <circle cx="4" cy="7" r="1" fill="srgba(68.6473%,81.6724%,6.3447%,1)"/>
  <circle cx="5" cy="7" r="1" fill="srgba(17.9278%,63.7552%,0%,1)"/>
  <circle cx="6" cy="7" r="1" fill="srgba(25.6657%,66.6926%,0%,1)"/>
  <circle cx="7" cy="7" r="1" fill="srgba(79.1653%,87.9454%,0%,1)"/>
  <circle cx="8" cy="7" r="1" fill="srgba(74.1939%,85.9709%,0%,1)"/>
  <circle cx="9" cy="7" r="1" fill="srgba(19.5346%,64.2588%,0%,1)"/>
  <circle cx="10" cy="7" r="1" fill="srgba(23.4897%,65.8289%,0%,1)"/>
  <circle cx="11" cy="7" r="1" fill="srgba(75.8053%,86.6072%,0%,1)"/>
  <circle cx="12" cy="7" r="1" fill="srgba(23.2837%,65.7435%,0%,1)"/>
  <circle cx="13" cy="7" r="1" fill="srgba(8.97841%,60.0641%,0%,1)"/>
  <circle cx="14" cy="7" r="1" fill="srgba(25,154,0,1)"/>
  <circle cx="15" cy="7" r="1" fill="srgba(25,154,0,1)"/>
  <circle cx="0" cy="8" r="1" fill="srgba(0,88,170,1)"/>
  <circle cx="1" cy="8" r="1" fill="srgba(0,88,170,1)"/>
  <circle cx="2" cy="8" r="1" fill="srgba(0%,33.933%,67.3075%,1)"/>
  <circle cx="3" cy="8" r="1" fill="srgba(14.3297%,43.4775%,56.7208%,1)"/>
  <circle cx="4" cy="8" r="1" fill="srgba(86.6621%,88.8289%,6.3447%,1)"/>
  <circle cx="5" cy="8" r="1" fill="srgba(56.3256%,79.0066%,0%,1)"/>
  <circle cx="6" cy="8" r="1" fill="srgba(62.7359%,81.4191%,0%,1)"/>
  <circle cx="7" cy="8" r="1" fill="srgba(45.5329%,74.5846%,0%,1)"/>
  <circle cx="8" cy="8" r="1" fill="srgba(51.6472%,77.0153%,0%,1)"/>
  <circle cx="9" cy="8" r="1" fill="srgba(57.7478%,79.4385%,0%,1)"/>
  <circle cx="10" cy="8" r="1" fill="srgba(62.6719%,81.3947%,0%,1)"/>
  <circle cx="11" cy="8" r="1" fill="srgba(88.4154%,91.6167%,0%,1)"/>
  <circle cx="12" cy="8" r="1" fill="srgba(22.62%,65.478%,0%,1)"/>
  <circle cx="13" cy="8" r="1" fill="srgba(8.97841%,60.0641%,0%,1)"/>
  <circle cx="14" cy="8" r="1" fill="srgba(25,154,0,1)"/>
  <circle cx="15" cy="8" r="1" fill="srgba(25,154,0,1)"/>
  <circle cx="0" cy="9" r="1" fill="srgba(0,88,170,1)"/>
  <circle cx="1" cy="9" r="1" fill="srgba(0,88,170,1)"/>
  <circle cx="2" cy="9" r="1" fill="srgba(0%,33.933%,67.3075%,1)"/>
  <circle cx="3" cy="9" r="1" fill="srgba(14.2748%,43.4562%,56.7208%,1)"/>
  <circle cx="4" cy="9" r="1" fill="srgba(86.8269%,88.8945%,6.3447%,1)"/>
  <circle cx="5" cy="9" r="1" fill="srgba(94.5876%,94.2077%,0%,1)"/>
  <circle cx="6" cy="9" r="1" fill="srgba(67.509%,83.3158%,0%,1)"/>
  <circle cx="7" cy="9" r="1" fill="srgba(12.871%,61.6098%,0%,1)"/>
  <circle cx="8" cy="9" r="1" fill="srgba(17.9889%,63.6439%,0%,1)"/>
  <circle cx="9" cy="9" r="1" fill="srgba(76.849%,87.0268%,0%,1)"/>
  <circle cx="10" cy="9" r="1" fill="srgba(94.9813%,94.2306%,0%,1)"/>
  <circle cx="11" cy="9" r="1" fill="srgba(87.7073%,91.3359%,0%,1)"/>
  <circle cx="12" cy="9" r="1" fill="srgba(22.6139%,65.4765%,0%,1)"/>
  <circle cx="13" cy="9" r="1" fill="srgba(8.97841%,60.0641%,0%,1)"/>
  <circle cx="14" cy="9" r="1" fill="srgba(25,154,0,1)"/>
  <circle cx="15" cy="9" r="1" fill="srgba(25,154,0,1)"/>
  <circle cx="0" cy="10" r="1" fill="srgba(0,88,170,1)"/>
  <circle cx="1" cy="10" r="1" fill="srgba(0,88,170,1)"/>
  <circle cx="2" cy="10" r="1" fill="srgba(0%,33.933%,67.3075%,1)"/>
  <circle cx="3" cy="10" r="1" fill="srgba(14.2779%,43.4577%,56.7208%,1)"/>
  <circle cx="4" cy="10" r="1" fill="srgba(86.5721%,88.7938%,6.3447%,1)"/>
  <circle cx="5" cy="10" r="1" fill="srgba(97.5677%,95.3918%,0%,1)"/>
  <circle cx="6" cy="10" r="1" fill="srgba(70.721%,84.5914%,0%,1)"/>
  <circle cx="7" cy="10" r="1" fill="srgba(13.0114%,61.6663%,0%,1)"/>
  <circle cx="8" cy="10" r="1" fill="srgba(18.8708%,63.9933%,0%,1)"/>
  <circle cx="9" cy="10" r="1" fill="srgba(80.6104%,88.5191%,0%,1)"/>
  <circle cx="10" cy="10" r="1" fill="srgba(97.2427%,95.1278%,0%,1)"/>
  <circle cx="11" cy="10" r="1" fill="srgba(87.5029%,91.2551%,0%,1)"/>
  <circle cx="12" cy="10" r="1" fill="srgba(22.6154%,65.4765%,0%,1)"/>
  <circle cx="13" cy="10" r="1" fill="srgba(8.97841%,60.0641%,0%,1)"/>
  <circle cx="14" cy="10" r="1" fill="srgba(25,154,0,1)"/>
  <circle cx="15" cy="10" r="1" fill="srgba(25,154,0,1)"/>
  <circle cx="0" cy="11" r="1" fill="srgba(0,88,170,1)"/>
  <circle cx="1" cy="11" r="1" fill="srgba(0,88,170,1)"/>
  <circle cx="2" cy="11" r="1" fill="srgba(0%,33.933%,67.3075%,1)"/>
  <circle cx="3" cy="11" r="1" fill="srgba(14.2779%,43.4577%,56.7208%,1)"/>
  <circle cx="4" cy="11" r="1" fill="srgba(86.5827%,88.7968%,6.3447%,1)"/>
  <circle cx="5" cy="11" r="1" fill="srgba(96.437%,94.9432%,0%,1)"/>
  <circle cx="6" cy="11" r="1" fill="srgba(93.9544%,93.8216%,0%,1)"/>
  <circle cx="7" cy="11" r="1" fill="srgba(43.5904%,73.814%,0%,1)"/>
  <circle cx="8" cy="11" r="1" fill="srgba(53.6645%,77.8149%,0%,1)"/>
  <circle cx="9" cy="11" r="1" fill="srgba(96.0021%,94.6349%,0%,1)"/>
  <circle cx="10" cy="11" r="1" fill="srgba(96.2524%,94.7341%,0%,1)"/>
  <circle cx="11" cy="11" r="1" fill="srgba(87.512%,91.2581%,0%,1)"/>
  <circle cx="12" cy="11" r="1" fill="srgba(22.6154%,65.4765%,0%,1)"/>
  <circle cx="13" cy="11" r="1" fill="srgba(8.97841%,60.0641%,0%,1)"/>
  <circle cx="14" cy="11" r="1" fill="srgba(25,154,0,1)"/>
  <circle cx="15" cy="11" r="1" fill="srgba(25,154,0,1)"/>
  <circle cx="0" cy="12" r="1" fill="srgba(0,88,170,1)"/>
  <circle cx="1" cy="12" r="1" fill="srgba(0,88,170,1)"/>
  <circle cx="2" cy="12" r="1" fill="srgba(0%,33.933%,67.3075%,1)"/>
  <circle cx="3" cy="12" r="1" fill="srgba(14.2779%,43.4577%,56.7208%,1)"/>
  <circle cx="4" cy="12" r="1" fill="srgba(86.5827%,88.7968%,6.3447%,1)"/>
  <circle cx="5" cy="12" r="1" fill="srgba(96.2631%,94.8745%,0%,1)"/>
  <circle cx="6" cy="12" r="1" fill="srgba(96.2005%,94.7143%,0%,1)"/>
  <circle cx="7" cy="12" r="1" fill="srgba(87.6616%,91.3222%,0%,1)"/>
  <circle cx="8" cy="12" r="1" fill="srgba(89.9336%,92.224%,0%,1)"/>
  <circle cx="9" cy="12" r="1" fill="srgba(96.1135%,94.6792%,0%,1)"/>
  <circle cx="10" cy="12" r="1" fill="srgba(96.2097%,94.7173%,0%,1)"/>
  <circle cx="11" cy="12" r="1" fill="srgba(87.512%,91.2581%,0%,1)"/>
  <circle cx="12" cy="12" r="1" fill="srgba(22.6154%,65.4765%,0%,1)"/>
  <circle cx="13" cy="12" r="1" fill="srgba(8.97841%,60.0641%,0%,1)"/>
  <circle cx="14" cy="12" r="1" fill="srgba(25,154,0,1)"/>
  <circle cx="15" cy="12" r="1" fill="srgba(25,154,0,1)"/>
  <circle cx="0" cy="13" r="1" fill="srgba(0,88,170,1)"/>
  <circle cx="1" cy="13" r="1" fill="srgba(0,88,170,1)"/>
  <circle cx="2" cy="13" r="1" fill="srgba(0%,33.933%,67.3075%,1)"/>
  <circle cx="3" cy="13" r="1" fill="srgba(14.2779%,43.4577%,56.7208%,1)"/>
  <circle cx="4" cy="13" r="1" fill="srgba(86.5827%,88.7968%,6.3447%,1)"/>
  <circle cx="5" cy="13" r="1" fill="srgba(96.2722%,94.8775%,0%,1)"/>
  <circle cx="6" cy="13" r="1" fill="srgba(95.668%,94.5022%,0%,1)"/>
  <circle cx="7" cy="13" r="1" fill="srgba(96.1425%,94.6914%,0%,1)"/>
  <circle cx="8" cy="13" r="1" fill="srgba(96.022%,94.6426%,0%,1)"/>
  <circle cx="9" cy="13" r="1" fill="srgba(95.668%,94.5022%,0%,1)"/>
  <circle cx="10" cy="13" r="1" fill="srgba(96.2127%,94.7189%,0%,1)"/>
  <circle cx="11" cy="13" r="1" fill="srgba(87.512%,91.2581%,0%,1)"/>
  <circle cx="12" cy="13" r="1" fill="srgba(22.6154%,65.4765%,0%,1)"/>
  <circle cx="13" cy="13" r="1" fill="srgba(8.97841%,60.0641%,0%,1)"/>
  <circle cx="14" cy="13" r="1" fill="srgba(25,154,0,1)"/>
  <circle cx="15" cy="13" r="1" fill="srgba(25,154,0,1)"/>
  <circle cx="0" cy="14" r="1" fill="srgba(0,88,170,1)"/>
  <circle cx="1" cy="14" r="1" fill="srgba(0,88,170,1)"/>
  <circle cx="2" cy="14" r="1" fill="srgba(0%,33.933%,67.3075%,1)"/>
  <circle cx="3" cy="14" r="1" fill="srgba(14.2779%,43.4577%,56.7208%,1)"/>
  <circle cx="4" cy="14" r="1" fill="srgba(86.5827%,88.7968%,6.3447%,1)"/>
  <circle cx="5" cy="14" r="1" fill="srgba(96.2722%,94.8775%,0%,1)"/>
  <circle cx="6" cy="14" r="1" fill="srgba(244,241,0,1)"/>
  <circle cx="7" cy="14" r="1" fill="srgba(244,241,0,1)"/>
  <circle cx="8" cy="14" r="1" fill="srgba(244,241,0,1)"/>
  <circle cx="9" cy="14" r="1" fill="srgba(244,241,0,1)"/>
  <circle cx="10" cy="14" r="1" fill="srgba(96.2127%,94.7189%,0%,1)"/>
  <circle cx="11" cy="14" r="1" fill="srgba(87.512%,91.2581%,0%,1)"/>
  <circle cx="12" cy="14" r="1" fill="srgba(22.6154%,65.4765%,0%,1)"/>
  <circle cx="13" cy="14" r="1" fill="srgba(8.97841%,60.0641%,0%,1)"/>
  <circle cx="14" cy="14" r="1" fill="srgba(25,154,0,1)"/>
  <circle cx="15" cy="14" r="1" fill="srgba(25,154,0,1)"/>
  <circle cx="0" cy="15" r="1" fill="srgba(0,88,170,1)"/>
  <circle cx="1" cy="15" r="1" fill="srgba(0,88,170,1)"/>
  <circle cx="2" cy="15" r="1" fill="srgba(0%,33.933%,67.3075%,1)"/>
  <circle cx="3" cy="15" r="1" fill="srgba(14.2779%,43.4577%,56.7208%,1)"/>
  <circle cx="4" cy="15" r="1" fill="srgba(86.5827%,88.7968%,6.3447%,1)"/>
  <circle cx="5" cy="15" r="1" fill="srgba(96.2722%,94.8775%,0%,1)"/>
  <circle cx="6" cy="15" r="1" fill="srgba(244,241,0,1)"/>
  <circle cx="7" cy="15" r="1" fill="srgba(244,241,0,1)"/>
  <circle cx="8" cy="15" r="1" fill="srgba(244,241,0,1)"/>
  <circle cx="9" cy="15" r="1" fill="srgba(244,241,0,1)"/>
  <circle cx="10" cy="15" r="1" fill="srgba(96.2127%,94.7189%,0%,1)"/>
  <circle cx="11" cy="15" r="1" fill="srgba(87.512%,91.2581%,0%,1)"/>
  <circle cx="12" cy="15" r="1" fill="srgba(22.6154%,65.4765%,0%,1)"/>
  <circle cx="13" cy="15" r="1" fill="srgba(8.97841%,60.0641%,0%,1)"/>
  <circle cx="14" cy="15" r="1" fill="srgba(25,154,0,1)"/>
  <circle cx="15" cy="15" r="1" fill="srgba(25,154,0,1)"/>
</svg>
