<?xml version="1.0" standalone="no"?>
<!DOCTYPE svg PUBLIC "-//W3C//DTD SVG 20010904//EN"
  "http://www.w3.org/TR/2001/REC-SVG-20010904/DTD/svg10.dtd">
<svg width="16" height="16">
  <circle cx="0" cy="0" r="1" fill="srgba(100%,88.3055%,41.5213%,1)"/>
  <circle cx="1" cy="0" r="1" fill="srgba(100%,86.5965%,32.9595%,1)"/>
  <circle cx="2" cy="0" r="1" fill="srgba(100%,86.4881%,32.607%,1)"/>
  <circle cx="3" cy="0" r="1" fill="srgba(100%,80.2991%,1.62509%,1)"/>
  <circle cx="4" cy="0" r="1" fill="srgba(100%,80.7889%,3.9353%,1)"/>
  <circle cx="5" cy="0" r="1" fill="srgba(100%,91.8318%,59.1485%,1)"/>
  <circle cx="6" cy="0" r="1" fill="srgba(100%,89.0608%,45.713%,1)"/>
  <circle cx="7" cy="0" r="1" fill="srgba(100%,79.7253%,0%,1)"/>
  <circle cx="8" cy="0" r="1" fill="srgba(100%,79.707%,0%,1)"/>
  <circle cx="9" cy="0" r="1" fill="srgba(100%,88.7373%,44.1016%,1)"/>
  <circle cx="10" cy="0" r="1" fill="srgba(100%,92.0775%,60.3799%,1)"/>
  <circle cx="11" cy="0" r="1" fill="srgba(100%,80.8911%,4.45106%,1)"/>
  <circle cx="12" cy="0" r="1" fill="srgba(100%,80.2243%,1.24514%,1)"/>
  <circle cx="13" cy="0" r="1" fill="srgba(100%,86.424%,32.2927%,1)"/>
  <circle cx="14" cy="0" r="1" fill="srgba(100%,86.537%,32.6589%,1)"/>
  <circle cx="15" cy="0" r="1" fill="srgba(100%,88.3696%,41.8357%,1)"/>
  <circle cx="0" cy="1" r="1" fill="srgba(100%,85.4002%,26.9963%,1)"/>
  <circle cx="1" cy="1" r="1" fill="srgba(100%,90.518%,52.5856%,1)"/>
  <circle cx="2" cy="1" r="1" fill="srgba(100%,92.0455%,60.2701%,1)"/>
  <circle cx="3" cy="1" r="1" fill="srgba(100%,81.3779%,7.61273%,1)"/>
  <circle cx="4" cy="1" r="1" fill="srgba(100%,79.6384%,0%,1)"/>
  <circle cx="5" cy="1" r="1" fill="srgba(100%,84.6387%,23.3585%,1)"/>
  <circle cx="6" cy="1" r="1" fill="srgba(100%,90.6615%,53.3989%,1)"/>
  <circle cx="7" cy="1" r="1" fill="srgba(100%,80.2502%,1.89059%,1)"/>
  <circle cx="8" cy="1" r="1" fill="srgba(100%,80.1633%,1.45876%,1)"/>
  <circle cx="9" cy="1" r="1" fill="srgba(100%,90.4799%,52.4941%,1)"/>
  <circle cx="10" cy="1" r="1" fill="srgba(100%,84.9042%,24.6754%,1)"/>
  <circle cx="11" cy="1" r="1" fill="srgba(100%,79.6445%,0%,1)"/>
  <circle cx="12" cy="1" r="1" fill="srgba(100%,81.2222%,6.84215%,1)"/>
  <circle cx="13" cy="1" r="1" fill="srgba(100%,91.9097%,59.5911%,1)"/>
  <circle cx="14" cy="1" r="1" fill="srgba(100%,90.6233%,53.1121%,1)"/>
  <circle cx="15" cy="1" r="1" fill="srgba(100%,85.5116%,27.5578%,1)"/>
  <circle cx="0" cy="2" r="1" fill="srgba(100%,79.8688%,0.102235%,1)"/>
  <circle cx="1" cy="2" r="1" fill="srgba(100%,82.3621%,11.8395%,1)"/>
  <circle cx="2" cy="2" r="1" fill="srgba(100%,91.0338%,55.1751%,1)"/>
  <circle cx="3" cy="2" r="1" fill="srgba(100%,87.8706%,39.3271%,1)"/>
  <circle cx="4" cy="2" r="1" fill="srgba(100%,80.0717%,1.07118%,1)"/>
  <circle cx="5" cy="2" r="1" fill="srgba(100%,82.9053%,15.6023%,1)"/>
  <circle cx="6" cy="2" r="1" fill="srgba(100%,90.5592%,52.8649%,1)"/>
  <circle cx="7" cy="2" r="1" fill="srgba(100%,85.4078%,27.0909%,1)"/>
  <circle cx="8" cy="2" r="1" fill="srgba(100%,85.2232%,26.1784%,1)"/>
  <circle cx="9" cy="2" r="1" fill="srgba(100%,90.5943%,53.0282%,1)"/>
  <circle cx="10" cy="2" r="1" fill="srgba(100%,83.1006%,16.5545%,1)"/>
  <circle cx="11" cy="2" r="1" fill="srgba(100%,80.0107%,0.794995%,1)"/>
  <circle cx="12" cy="2" r="1" fill="srgba(100%,87.6387%,38.1674%,1)"/>
  <circle cx="13" cy="2" r="1" fill="srgba(100%,91.1833%,55.9121%,1)"/>
  <circle cx="14" cy="2" r="1" fill="srgba(100%,82.4826%,12.4331%,1)"/>
  <circle cx="15" cy="2" r="1" fill="srgba(100%,79.884%,0.148013%,1)"/>
  <circle cx="0" cy="3" r="1" fill="srgba(100%,79.9359%,0.759899%,1)"/>
  <circle cx="1" cy="3" r="1" fill="srgba(100%,79.5087%,0%,1)"/>
  <circle cx="2" cy="3" r="1" fill="srgba(100%,82.5223%,13.5637%,1)"/>
  <circle cx="3" cy="3" r="1" fill="srgba(100%,90.518%,52.5231%,1)"/>
  <circle cx="4" cy="3" r="1" fill="srgba(100%,88.7098%,43.3799%,1)"/>
  <circle cx="5" cy="3" r="1" fill="srgba(100%,86.9337%,34.6304%,1)"/>
  <circle cx="6" cy="3" r="1" fill="srgba(100%,85.1331%,26.6529%,1)"/>
  <circle cx="7" cy="3" r="1" fill="srgba(100%,92.5582%,62.8779%,1)"/>
  <circle cx="8" cy="3" r="1" fill="srgba(100%,92.7581%,63.8605%,1)"/>
  <circle cx="9" cy="3" r="1" fill="srgba(100%,85.1041%,26.5248%,1)"/>
  <circle cx="10" cy="3" r="1" fill="srgba(100%,86.9657%,34.8089%,1)"/>
  <circle cx="11" cy="3" r="1" fill="srgba(100%,88.6336%,43.003%,1)"/>
  <circle cx="12" cy="3" r="1" fill="srgba(100%,90.5455%,52.6543%,1)"/>
  <circle cx="13" cy="3" r="1" fill="srgba(100%,82.7237%,14.5327%,1)"/>
  <circle cx="14" cy="3" r="1" fill="srgba(100%,79.4965%,0%,1)"/>
  <circle cx="15" cy="3" r="1" fill="srgba(100%,79.8993%,0.605783%,1)"/>
  <circle cx="0" cy="4" r="1" fill="srgba(99.527%,88.3101%,41.4191%,1)"/>
  <circle cx="1" cy="4" r="1" fill="srgba(99.5117%,83.3967%,15.5306%,1)"/>
  <circle cx="2" cy="4" r="1" fill="srgba(100%,82.8534%,9.70779%,1)"/>
  <circle cx="3" cy="4" r="1" fill="srgba(99.7147%,86.6575%,33.6446%,1)"/>
  <circle cx="4" cy="4" r="1" fill="srgba(98.6358%,84.8127%,29.2592%,1)"/>
  <circle cx="5" cy="4" r="1" fill="srgba(98.9914%,93.6706%,72.0577%,1)"/>
  <circle cx="6" cy="4" r="1" fill="srgba(99.7726%,88.3299%,42.0096%,1)"/>
  <circle cx="7" cy="4" r="1" fill="srgba(99.8535%,92.9046%,64.6601%,1)"/>
  <circle cx="8" cy="4" r="1" fill="srgba(99.8505%,93.1136%,65.742%,1)"/>
  <circle cx="9" cy="4" r="1" fill="srgba(99.7787%,88.2017%,41.3382%,1)"/>
  <circle cx="10" cy="4" r="1" fill="srgba(99.0158%,93.727%,72.2133%,1)"/>
  <circle cx="11" cy="4" r="1" fill="srgba(98.6206%,84.9516%,30.0084%,1)"/>
  <circle cx="12" cy="4" r="1" fill="srgba(99.6979%,86.6072%,33.5042%,1)"/>
  <circle cx="13" cy="4" r="1" fill="srgba(100%,82.9221%,10.1167%,1)"/>
  <circle cx="14" cy="4" r="1" fill="srgba(99.5254%,83.3478%,15.1598%,1)"/>
  <circle cx="15" cy="4" r="1" fill="srgba(99.5209%,88.1224%,40.4837%,1)"/>
  <circle cx="0" cy="5" r="1" fill="srgba(55.3231%,60.058%,69.3706%,1)"/>
  <circle cx="1" cy="5" r="1" fill="srgba(59.5529%,62.9923%,68.0308%,1)"/>
  <circle cx="2" cy="5" r="1" fill="srgba(77.2656%,75.8465%,65.2674%,1)"/>
  <circle cx="3" cy="5" r="1" fill="srgba(89.9702%,86.9581%,72.5475%,1)"/>
  <circle cx="4" cy="5" r="1" fill="srgba(67.1168%,64.9134%,48.9372%,1)"/>
  <circle cx="5" cy="5" r="1" fill="srgba(74.4182%,74.4625%,69.0837%,1)"/>
  <circle cx="6" cy="5" r="1" fill="srgba(88.3207%,87.95%,83.83%,1)"/>
  <circle cx="7" cy="5" r="1" fill="srgba(87.6844%,87.7943%,84.8051%,1)"/>
  <circle cx="8" cy="5" r="1" fill="srgba(87.9332%,88.014%,84.9332%,1)"/>
  <circle cx="9" cy="5" r="1" fill="srgba(88.1392%,87.7974%,83.7552%,1)"/>
  <circle cx="10" cy="5" r="1" fill="srgba(75.0683%,75.1034%,69.8405%,1)"/>
  <circle cx="11" cy="5" r="1" fill="srgba(66.6667%,64.509%,48.6244%,1)"/>
  <circle cx="12" cy="5" r="1" fill="srgba(89.7887%,86.7979%,72.4041%,1)"/>
  <circle cx="13" cy="5" r="1" fill="srgba(77.8607%,76.3226%,65.3925%,1)"/>
  <circle cx="14" cy="5" r="1" fill="srgba(59.4858%,62.8962%,67.7958%,1)"/>
  <circle cx="15" cy="5" r="1" fill="srgba(55.967%,60.6607%,69.9321%,1)"/>
  <circle cx="0" cy="6" r="1" fill="srgba(8.49775%,20.4303%,53.0404%,1)"/>
  <circle cx="1" cy="6" r="1" fill="srgba(34.5846%,43.9506%,67.3136%,1)"/>
  <circle cx="2" cy="6" r="1" fill="srgba(15.8068%,27.9637%,58.436%,1)"/>
  <circle cx="3" cy="6" r="1" fill="srgba(50.4631%,57.6822%,75.7977%,1)"/>
  <circle cx="4" cy="6" r="1" fill="srgba(67.8294%,72.6986%,85.185%,1)"/>
  <circle cx="5" cy="6" r="1" fill="srgba(77.3053%,80.6714%,89.2409%,1)"/>
  <circle cx="6" cy="6" r="1" fill="srgba(84.152%,86.4881%,92.4071%,1)"/>
  <circle cx="7" cy="6" r="1" fill="srgba(79.3973%,82.4002%,89.9168%,1)"/>
  <circle cx="8" cy="6" r="1" fill="srgba(79.1592%,82.1942%,89.7902%,1)"/>
  <circle cx="9" cy="6" r="1" fill="srgba(84.1184%,86.4576%,92.3873%,1)"/>
  <circle cx="10" cy="6" r="1" fill="srgba(77.7935%,81.0849%,89.4667%,1)"/>
  <circle cx="11" cy="6" r="1" fill="srgba(67.6188%,72.52%,85.0858%,1)"/>
  <circle cx="12" cy="6" r="1" fill="srgba(51.4824%,58.558%,76.3119%,1)"/>
  <circle cx="13" cy="6" r="1" fill="srgba(15.8282%,27.9835%,58.4527%,1)"/>
  <circle cx="14" cy="6" r="1" fill="srgba(34.493%,43.8804%,67.2847%,1)"/>
  <circle cx="15" cy="6" r="1" fill="srgba(9.18593%,21.062%,53.4066%,1)"/>
  <circle cx="0" cy="7" r="1" fill="srgba(44.0543%,51.9524%,71.4794%,1)"/>
  <circle cx="1" cy="7" r="1" fill="srgba(66.2348%,71.0018%,82.7863%,1)"/>
  <circle cx="2" cy="7" r="1" fill="srgba(63.0137%,68.2368%,81.146%,1)"/>
  <circle cx="3" cy="7" r="1" fill="srgba(56.4141%,62.5666%,77.7813%,1)"/>
  <circle cx="4" cy="7" r="1" fill="srgba(78.8693%,81.8524%,89.2287%,1)"/>
  <circle cx="5" cy="7" r="1" fill="srgba(70.6538%,74.7967%,85.0401%,1)"/>
  <circle cx="6" cy="7" r="1" fill="srgba(41.1383%,49.4499%,69.9931%,1)"/>
  <circle cx="7" cy="7" r="1" fill="srgba(37.4395%,46.273%,68.1071%,1)"/>
  <circle cx="8" cy="7" r="1" fill="srgba(37.2457%,46.1051%,68.0079%,1)"/>
  <circle cx="9" cy="7" r="1" fill="srgba(40.6806%,49.0547%,69.7597%,1)"/>
  <circle cx="10" cy="7" r="1" fill="srgba(70.367%,74.551%,84.8951%,1)"/>
  <circle cx="11" cy="7" r="1" fill="srgba(78.88%,81.8631%,89.2348%,1)"/>
  <circle cx="12" cy="7" r="1" fill="srgba(56.8643%,62.9541%,78.0087%,1)"/>
  <circle cx="13" cy="7" r="1" fill="srgba(62.4842%,67.7821%,80.8759%,1)"/>
  <circle cx="14" cy="7" r="1" fill="srgba(66.6606%,71.368%,83.0045%,1)"/>
  <circle cx="15" cy="7" r="1" fill="srgba(44.4251%,52.2698%,71.6686%,1)"/>
  <circle cx="0" cy="8" r="1" fill="srgba(14.9081%,26.9215%,56.6201%,1)"/>
  <circle cx="1" cy="8" r="1" fill="srgba(22.7787%,33.6828%,60.6332%,1)"/>
  <circle cx="2" cy="8" r="1" fill="srgba(59.7314%,65.4185%,79.4705%,1)"/>
  <circle cx="3" cy="8" r="1" fill="srgba(77.2641%,80.4761%,88.4092%,1)"/>
  <circle cx="4" cy="8" r="1" fill="srgba(68.7953%,73.2006%,84.0925%,1)"/>
  <circle cx="5" cy="8" r="1" fill="srgba(32.2026%,41.7746%,65.4368%,1)"/>
  <circle cx="6" cy="8" r="1" fill="srgba(37.3159%,46.1738%,68.0491%,1)"/>
  <circle cx="7" cy="8" r="1" fill="srgba(41.088%,49.2439%,69.8711%,1)"/>
  <circle cx="8" cy="8" r="1" fill="srgba(41.1963%,49.3263%,69.9214%,1)"/>
  <circle cx="9" cy="8" r="1" fill="srgba(37.4578%,46.2943%,68.1193%,1)"/>
  <circle cx="10" cy="8" r="1" fill="srgba(31.8593%,41.4786%,65.2613%,1)"/>
  <circle cx="11" cy="8" r="1" fill="srgba(68.1697%,72.665%,83.7736%,1)"/>
  <circle cx="12" cy="8" r="1" fill="srgba(77.3404%,80.5386%,88.4489%,1)"/>
  <circle cx="13" cy="8" r="1" fill="srgba(60.5676%,66.1341%,79.8978%,1)"/>
  <circle cx="14" cy="8" r="1" fill="srgba(23.183%,34.0291%,60.8392%,1)"/>
  <circle cx="15" cy="8" r="1" fill="srgba(14.9966%,26.9963%,56.6644%,1)"/>
  <circle cx="0" cy="9" r="1" fill="srgba(25.6931%,37.5097%,63.3997%,1)"/>
  <circle cx="1" cy="9" r="1" fill="srgba(46.5934%,55.1598%,73.7636%,1)"/>
  <circle cx="2" cy="9" r="1" fill="srgba(58.8525%,65.3788%,79.7177%,1)"/>
  <circle cx="3" cy="9" r="1" fill="srgba(80.5859%,83.9689%,90.7256%,1)"/>
  <circle cx="4" cy="9" r="1" fill="srgba(38.1552%,48.1971%,69.7414%,1)"/>
  <circle cx="5" cy="9" r="1" fill="srgba(36.6232%,46.8956%,68.9708%,1)"/>
  <circle cx="6" cy="9" r="1" fill="srgba(50.2068%,58.1674%,75.5138%,1)"/>
  <circle cx="7" cy="9" r="1" fill="srgba(64.9714%,70.0572%,82.2766%,1)"/>
  <circle cx="8" cy="9" r="1" fill="srgba(65.1896%,70.2342%,82.3789%,1)"/>
  <circle cx="9" cy="9" r="1" fill="srgba(50.5135%,58.4131%,75.6542%,1)"/>
  <circle cx="10" cy="9" r="1" fill="srgba(36.9818%,47.1977%,69.1539%,1)"/>
  <circle cx="11" cy="9" r="1" fill="srgba(37.3831%,47.5395%,69.3523%,1)"/>
  <circle cx="12" cy="9" r="1" fill="srgba(80.3815%,83.801%,90.6294%,1)"/>
  <circle cx="13" cy="9" r="1" fill="srgba(59.3866%,65.835%,79.9878%,1)"/>
  <circle cx="14" cy="9" r="1" fill="srgba(46.836%,55.3536%,73.8766%,1)"/>
  <circle cx="15" cy="9" r="1" fill="srgba(26.3447%,38.0728%,63.7369%,1)"/>
  <circle cx="0" cy="10" r="1" fill="srgba(79.9298%,56.0281%,63.8911%,1)"/>
  <circle cx="1" cy="10" r="1" fill="srgba(62.858%,46.6011%,60.2533%,1)"/>
  <circle cx="2" cy="10" r="1" fill="srgba(71.1513%,60.8835%,71.4107%,1)"/>
  <circle cx="3" cy="10" r="1" fill="srgba(70.4555%,61.4786%,72.2087%,1)"/>
  <circle cx="4" cy="10" r="1" fill="srgba(48.452%,28.8808%,47.7348%,1)"/>
  <circle cx="5" cy="10" r="1" fill="srgba(60.7538%,38.9441%,53.521%,1)"/>
  <circle cx="6" cy="10" r="1" fill="srgba(75.0774%,61.8067%,71.046%,1)"/>
  <circle cx="7" cy="10" r="1" fill="srgba(93.9803%,92.6925%,94.8608%,1)"/>
  <circle cx="8" cy="10" r="1" fill="srgba(94.2306%,93.0694%,95.1461%,1)"/>
  <circle cx="9" cy="10" r="1" fill="srgba(75.4452%,62.4811%,71.5816%,1)"/>
  <circle cx="10" cy="10" r="1" fill="srgba(61.0224%,39.2325%,53.7133%,1)"/>
  <circle cx="11" cy="10" r="1" fill="srgba(48.484%,28.7922%,47.6371%,1)"/>
  <circle cx="12" cy="10" r="1" fill="srgba(69.8924%,60.8026%,71.7327%,1)"/>
  <circle cx="13" cy="10" r="1" fill="srgba(71.5099%,61.2512%,71.6518%,1)"/>
  <circle cx="14" cy="10" r="1" fill="srgba(62.6154%,46.6682%,60.3967%,1)"/>
  <circle cx="15" cy="10" r="1" fill="srgba(79.704%,55.7214%,63.6683%,1)"/>
  <circle cx="0" cy="11" r="1" fill="srgba(82.0249%,14.1268%,22.6719%,1)"/>
  <circle cx="1" cy="11" r="1" fill="srgba(85.9113%,37.229%,43.7781%,1)"/>
  <circle cx="2" cy="11" r="1" fill="srgba(87.5975%,42.1363%,47.9866%,1)"/>
  <circle cx="3" cy="11" r="1" fill="srgba(90.0282%,54.1665%,58.8464%,1)"/>
  <circle cx="4" cy="11" r="1" fill="srgba(80.5234%,10.8248%,19.9573%,1)"/>
  <circle cx="5" cy="11" r="1" fill="srgba(83.5843%,21.7258%,29.5232%,1)"/>
  <circle cx="6" cy="11" r="1" fill="srgba(90.0465%,49.1768%,54.0108%,1)"/>
  <circle cx="7" cy="11" r="1" fill="srgba(98.5199%,92.3796%,93.0892%,1)"/>
  <circle cx="8" cy="11" r="1" fill="srgba(98.6374%,92.9534%,93.608%,1)"/>
  <circle cx="9" cy="11" r="1" fill="srgba(90.2235%,50.0801%,54.8302%,1)"/>
  <circle cx="10" cy="11" r="1" fill="srgba(83.6912%,22.0691%,29.8222%,1)"/>
  <circle cx="11" cy="11" r="1" fill="srgba(80.4868%,10.6874%,19.8367%,1)"/>
  <circle cx="12" cy="11" r="1" fill="srgba(89.8283%,53.2555%,58.0301%,1)"/>
  <circle cx="13" cy="11" r="1" fill="srgba(87.7333%,42.7878%,48.571%,1)"/>
  <circle cx="14" cy="11" r="1" fill="srgba(85.9464%,37.3602%,43.8941%,1)"/>
  <circle cx="15" cy="11" r="1" fill="srgba(82.0752%,14.583%,23.0961%,1)"/>
  <circle cx="0" cy="12" r="1" fill="srgba(87.7821%,40.0793%,45.9373%,1)"/>
  <circle cx="1" cy="12" r="1" fill="srgba(84.4739%,23.8209%,31.2657%,1)"/>
  <circle cx="2" cy="12" r="1" fill="srgba(89.7887%,49.9199%,54.8165%,1)"/>
  <circle cx="3" cy="12" r="1" fill="srgba(91.7464%,59.4934%,63.4531%,1)"/>
  <circle cx="4" cy="12" r="1" fill="srgba(87.1489%,36.9024%,43.0671%,1)"/>
  <circle cx="5" cy="12" r="1" fill="srgba(88.2277%,42.2263%,47.8706%,1)"/>
  <circle cx="6" cy="12" r="1" fill="srgba(91.6503%,59.0967%,63.0991%,1)"/>
  <circle cx="7" cy="12" r="1" fill="srgba(95.494%,77.9385%,80.0961%,1)"/>
  <circle cx="8" cy="12" r="1" fill="srgba(95.5505%,78.2132%,80.3433%,1)"/>
  <circle cx="9" cy="12" r="1" fill="srgba(91.7342%,59.5178%,63.4791%,1)"/>
  <circle cx="10" cy="12" r="1" fill="srgba(88.2887%,42.5254%,48.1407%,1)"/>
  <circle cx="11" cy="12" r="1" fill="srgba(87.1168%,36.7483%,42.9267%,1)"/>
  <circle cx="12" cy="12" r="1" fill="srgba(91.6487%,59.0188%,63.0228%,1)"/>
  <circle cx="13" cy="12" r="1" fill="srgba(89.9641%,50.7927%,55.6039%,1)"/>
  <circle cx="14" cy="12" r="1" fill="srgba(84.4251%,23.5813%,31.0491%,1)"/>
  <circle cx="15" cy="12" r="1" fill="srgba(87.8309%,40.3113%,46.1463%,1)"/>
  <circle cx="0" cy="13" r="1" fill="srgba(87.7241%,39.8947%,45.7786%,1)"/>
  <circle cx="1" cy="13" r="1" fill="srgba(88.6809%,44.593%,50.0175%,1)"/>
  <circle cx="2" cy="13" r="1" fill="srgba(90.3349%,52.6848%,57.3144%,1)"/>
  <circle cx="3" cy="13" r="1" fill="srgba(88.7587%,44.9699%,50.3563%,1)"/>
  <circle cx="4" cy="13" r="1" fill="srgba(85.2445%,27.7653%,34.8333%,1)"/>
  <circle cx="5" cy="13" r="1" fill="srgba(87.2648%,37.6471%,43.7491%,1)"/>
  <circle cx="6" cy="13" r="1" fill="srgba(88.3879%,43.1418%,48.7083%,1)"/>
  <circle cx="7" cy="13" r="1" fill="srgba(89.6391%,49.2744%,54.2397%,1)"/>
  <circle cx="8" cy="13" r="1" fill="srgba(89.6559%,49.3584%,54.313%,1)"/>
  <circle cx="9" cy="13" r="1" fill="srgba(88.4291%,43.3494%,48.8945%,1)"/>
  <circle cx="10" cy="13" r="1" fill="srgba(87.2648%,37.6516%,43.7537%,1)"/>
  <circle cx="11" cy="13" r="1" fill="srgba(85.2949%,28.0049%,35.05%,1)"/>
  <circle cx="12" cy="13" r="1" fill="srgba(88.6564%,44.4633%,49.8985%,1)"/>
  <circle cx="13" cy="13" r="1" fill="srgba(90.3075%,52.546%,57.1908%,1)"/>
  <circle cx="14" cy="13" r="1" fill="srgba(88.7877%,45.1072%,50.4814%,1)"/>
  <circle cx="15" cy="13" r="1" fill="srgba(87.6204%,39.3912%,45.3223%,1)"/>
  <circle cx="0" cy="14" r="1" fill="srgba(83.8346%,20.8591%,28.6046%,1)"/>
  <circle cx="1" cy="14" r="1" fill="srgba(87.4388%,38.5031%,44.5243%,1)"/>
  <circle cx="2" cy="14" r="1" fill="srgba(84.5716%,24.4678%,31.8593%,1)"/>
  <circle cx="3" cy="14" r="1" fill="srgba(90.2312%,52.1767%,56.8566%,1)"/>
  <circle cx="4" cy="14" r="1" fill="srgba(86.2074%,32.4758%,39.0845%,1)"/>
  <circle cx="5" cy="14" r="1" fill="srgba(85.0065%,26.5904%,33.7758%,1)"/>
  <circle cx="6" cy="14" r="1" fill="srgba(86.6331%,34.5556%,40.9613%,1)"/>
  <circle cx="7" cy="14" r="1" fill="srgba(87.1138%,36.91%,43.0838%,1)"/>
  <circle cx="8" cy="14" r="1" fill="srgba(87.1153%,36.9177%,43.09%,1)"/>
  <circle cx="9" cy="14" r="1" fill="srgba(86.6041%,34.4106%,40.8301%,1)"/>
  <circle cx="10" cy="14" r="1" fill="srgba(85.095%,27.0253%,34.168%,1)"/>
  <circle cx="11" cy="14" r="1" fill="srgba(86.0853%,31.8776%,38.5412%,1)"/>
  <circle cx="12" cy="14" r="1" fill="srgba(90.277%,52.3964%,57.0535%,1)"/>
  <circle cx="13" cy="14" r="1" fill="srgba(84.5701%,24.4511%,31.8441%,1)"/>
  <circle cx="14" cy="14" r="1" fill="srgba(87.4952%,38.7747%,44.7654%,1)"/>
  <circle cx="15" cy="14" r="1" fill="srgba(83.8239%,20.8072%,28.5573%,1)"/>
  <circle cx="0" cy="15" r="1" fill="srgba(82.3087%,13.3867%,21.8631%,1)"/>
  <circle cx="1" cy="15" r="1" fill="srgba(87.2023%,37.3388%,43.4699%,1)"/>
  <circle cx="2" cy="15" r="1" fill="srgba(87.3945%,38.2879%,44.3275%,1)"/>
  <circle cx="3" cy="15" r="1" fill="srgba(89.63%,49.2317%,54.2016%,1)"/>
  <circle cx="4" cy="15" r="1" fill="srgba(81.7548%,10.6706%,19.4141%,1)"/>
  <circle cx="5" cy="15" r="1" fill="srgba(87.1702%,37.1801%,43.331%,1)"/>
  <circle cx="6" cy="15" r="1" fill="srgba(83.9902%,21.619%,29.2912%,1)"/>
  <circle cx="7" cy="15" r="1" fill="srgba(86.2562%,32.7138%,39.2981%,1)"/>
  <circle cx="8" cy="15" r="1" fill="srgba(86.1891%,32.3796%,38.9975%,1)"/>
  <circle cx="9" cy="15" r="1" fill="srgba(84.0208%,21.767%,29.424%,1)"/>
  <circle cx="10" cy="15" r="1" fill="srgba(87.1931%,37.2992%,43.4379%,1)"/>
  <circle cx="11" cy="15" r="1" fill="srgba(81.7731%,10.7622%,19.4965%,1)"/>
  <circle cx="12" cy="15" r="1" fill="srgba(89.4438%,48.3101%,53.37%,1)"/>
  <circle cx="13" cy="15" r="1" fill="srgba(87.5456%,39.0173%,44.9866%,1)"/>
  <circle cx="14" cy="15" r="1" fill="srgba(87.1748%,37.2076%,43.3524%,1)"/>
  <circle cx="15" cy="15" r="1" fill="srgba(82.443%,14.0475%,22.4613%,1)"/>
</svg>
