<?xml version="1.0" standalone="no"?>
<!DOCTYPE svg PUBLIC "-//W3C//DTD SVG 20010904//EN"
  "http://www.w3.org/TR/2001/REC-SVG-20010904/DTD/svg10.dtd">
<svg width="16" height="16">
  <circle cx="0" cy="0" r="1" fill="srgba(83.1495%,40.2258%,42.6734%,1)"/>
  <circle cx="1" cy="0" r="1" fill="srgba(93.341%,67.3381%,67.4022%,1)"/>
  <circle cx="2" cy="0" r="1" fill="srgba(69.9351%,65.2873%,76.846%,1)"/>
  <circle cx="3" cy="0" r="1" fill="srgba(25.8274%,27.0085%,56.8124%,1)"/>
  <circle cx="4" cy="0" r="1" fill="srgba(2.28122%,2.54826%,41.2543%,1)"/>
  <circle cx="5" cy="0" r="1" fill="srgba(0%,0%,38.2879%,1)"/>
  <circle cx="6" cy="0" r="1" fill="srgba(34.7539%,31.8364%,57.5479%,1)"/>
  <circle cx="7" cy="0" r="1" fill="srgba(84.2817%,23.0274%,23.1937%,1)"/>
  <circle cx="8" cy="0" r="1" fill="srgba(84.2893%,23.035%,23.1998%,1)"/>
  <circle cx="9" cy="0" r="1" fill="srgba(34.7478%,31.8288%,57.5326%,1)"/>
  <circle cx="10" cy="0" r="1" fill="srgba(0%,0%,38.8754%,1)"/>
  <circle cx="11" cy="0" r="1" fill="srgba(2.32395%,2.93126%,42.1607%,1)"/>
  <circle cx="12" cy="0" r="1" fill="srgba(23.6271%,15.993%,45.7755%,1)"/>
  <circle cx="13" cy="0" r="1" fill="srgba(63.4241%,32.7382%,44.2969%,1)"/>
  <circle cx="14" cy="0" r="1" fill="srgba(89.485%,48.1025%,48.1682%,1)"/>
  <circle cx="15" cy="0" r="1" fill="srgba(89.0745%,70.0298%,72.491%,1)"/>
  <circle cx="0" cy="1" r="1" fill="srgba(21.8006%,14.435%,44.9744%,1)"/>
  <circle cx="1" cy="1" r="1" fill="srgba(53.5119%,27.3045%,43.2776%,1)"/>
  <circle cx="2" cy="1" r="1" fill="srgba(82.3682%,45.2277%,48.5664%,1)"/>
  <circle cx="3" cy="1" r="1" fill="srgba(86.2684%,63.8071%,67.0527%,1)"/>
  <circle cx="4" cy="1" r="1" fill="srgba(60.4105%,56.0784%,71.4778%,1)"/>
  <circle cx="5" cy="1" r="1" fill="srgba(20.6516%,21.0422%,52.8176%,1)"/>
  <circle cx="6" cy="1" r="1" fill="srgba(36.7117%,33.901%,58.9288%,1)"/>
  <circle cx="7" cy="1" r="1" fill="srgba(84.1566%,22.9023%,23.1128%,1)"/>
  <circle cx="8" cy="1" r="1" fill="srgba(84.1688%,22.9343%,23.1434%,1)"/>
  <circle cx="9" cy="1" r="1" fill="srgba(36.6766%,33.7179%,58.7427%,1)"/>
  <circle cx="10" cy="1" r="1" fill="srgba(18.9273%,12.3293%,44.097%,1)"/>
  <circle cx="11" cy="1" r="1" fill="srgba(54.8577%,28.3009%,43.6973%,1)"/>
  <circle cx="12" cy="1" r="1" fill="srgba(82.6093%,45.4948%,48.7388%,1)"/>
  <circle cx="13" cy="1" r="1" fill="srgba(86.067%,63.7812%,67.126%,1)"/>
  <circle cx="14" cy="1" r="1" fill="srgba(59.028%,55.1812%,71.1833%,1)"/>
  <circle cx="15" cy="1" r="1" fill="srgba(23.7797%,24.5884%,55.1537%,1)"/>
  <circle cx="0" cy="2" r="1" fill="srgba(33.4356%,30.9178%,57.2961%,1)"/>
  <circle cx="1" cy="2" r="1" fill="srgba(36.2509%,34.165%,59.4614%,1)"/>
  <circle cx="2" cy="2" r="1" fill="srgba(55.7443%,46.1646%,62.9129%,1)"/>
  <circle cx="3" cy="2" r="1" fill="srgba(85.1041%,55.3307%,58.3139%,1)"/>
  <circle cx="4" cy="2" r="1" fill="srgba(94.4472%,65.156%,64.445%,1)"/>
  <circle cx="5" cy="2" r="1" fill="srgba(90.3029%,84.387%,87.6722%,1)"/>
  <circle cx="6" cy="2" r="1" fill="srgba(80.2213%,74.6365%,81.9883%,1)"/>
  <circle cx="7" cy="2" r="1" fill="srgba(83.9734%,22.0218%,22.237%,1)"/>
  <circle cx="8" cy="2" r="1" fill="srgba(84.0558%,22.4079%,22.623%,1)"/>
  <circle cx="9" cy="2" r="1" fill="srgba(78.6313%,66.6438%,73.991%,1)"/>
  <circle cx="10" cy="2" r="1" fill="srgba(83.624%,50.9178%,54.1955%,1)"/>
  <circle cx="11" cy="2" r="1" fill="srgba(95.314%,69.4804%,68.7709%,1)"/>
  <circle cx="12" cy="2" r="1" fill="srgba(90.8049%,83.8376%,86.8208%,1)"/>
  <circle cx="13" cy="2" r="1" fill="srgba(57.6455%,55.7153%,72.4666%,1)"/>
  <circle cx="14" cy="2" r="1" fill="srgba(36.0723%,33.3394%,58.6404%,1)"/>
  <circle cx="15" cy="2" r="1" fill="srgba(33.3211%,30.341%,56.7193%,1)"/>
  <circle cx="0" cy="3" r="1" fill="srgba(84.2634%,22.8809%,23.0381%,1)"/>
  <circle cx="1" cy="3" r="1" fill="srgba(84.1138%,22.7253%,22.9419%,1)"/>
  <circle cx="2" cy="3" r="1" fill="srgba(83.1876%,22.1988%,22.826%,1)"/>
  <circle cx="3" cy="3" r="1" fill="srgba(84.0055%,23.3783%,23.714%,1)"/>
  <circle cx="4" cy="3" r="1" fill="srgba(84.3931%,21.8708%,21.8601%,1)"/>
  <circle cx="5" cy="3" r="1" fill="srgba(85.0843%,23.3616%,23.1556%,1)"/>
  <circle cx="6" cy="3" r="1" fill="srgba(85.4459%,23.4241%,23.0442%,1)"/>
  <circle cx="7" cy="3" r="1" fill="srgba(81.1063%,5.46731%,5.4612%,1)"/>
  <circle cx="8" cy="3" r="1" fill="srgba(81.1139%,5.50393%,5.4963%,1)"/>
  <circle cx="9" cy="3" r="1" fill="srgba(85.2689%,22.5376%,22.1576%,1)"/>
  <circle cx="10" cy="3" r="1" fill="srgba(84.9638%,22.7619%,22.5574%,1)"/>
  <circle cx="11" cy="3" r="1" fill="srgba(84.9104%,24.4541%,24.445%,1)"/>
  <circle cx="12" cy="3" r="1" fill="srgba(83.8773%,22.7375%,23.0732%,1)"/>
  <circle cx="13" cy="3" r="1" fill="srgba(83.0869%,21.6968%,22.3239%,1)"/>
  <circle cx="14" cy="3" r="1" fill="srgba(84.1154%,22.7329%,22.9496%,1)"/>
  <circle cx="15" cy="3" r="1" fill="srgba(84.2634%,22.887%,23.0442%,1)"/>
  <circle cx="0" cy="4" r="1" fill="srgba(84.2893%,23.0411%,23.1968%,1)"/>
  <circle cx="1" cy="4" r="1" fill="srgba(84.1382%,22.8885%,23.1067%,1)"/>
  <circle cx="2" cy="4" r="1" fill="srgba(83.1083%,21.8509%,22.4796%,1)"/>
  <circle cx="3" cy="4" r="1" fill="srgba(83.9155%,22.9145%,23.2471%,1)"/>
  <circle cx="4" cy="4" r="1" fill="srgba(84.9378%,24.6082%,24.5991%,1)"/>
  <circle cx="5" cy="4" r="1" fill="srgba(84.9836%,22.855%,22.6474%,1)"/>
  <circle cx="6" cy="4" r="1" fill="srgba(85.2949%,22.6734%,22.2919%,1)"/>
  <circle cx="7" cy="4" r="1" fill="srgba(81.12%,5.5375%,5.52987%,1)"/>
  <circle cx="8" cy="4" r="1" fill="srgba(81.2467%,5.54971%,5.55276%,1)"/>
  <circle cx="9" cy="4" r="1" fill="srgba(85.33%,23.3661%,23.1846%,1)"/>
  <circle cx="10" cy="4" r="1" fill="srgba(85.0401%,23.3707%,23.3448%,1)"/>
  <circle cx="11" cy="4" r="1" fill="srgba(84.7013%,22.1714%,22.2019%,1)"/>
  <circle cx="12" cy="4" r="1" fill="srgba(84.2664%,23.3387%,23.7125%,1)"/>
  <circle cx="13" cy="4" r="1" fill="srgba(83.3982%,22.1851%,22.8885%,1)"/>
  <circle cx="14" cy="4" r="1" fill="srgba(84.0101%,22.7131%,23.0793%,1)"/>
  <circle cx="15" cy="4" r="1" fill="srgba(84.271%,23.0289%,23.1922%,1)"/>
  <circle cx="0" cy="5" r="1" fill="srgba(33.315%,30.3868%,56.7666%,1)"/>
  <circle cx="1" cy="5" r="1" fill="srgba(36.1395%,33.463%,58.7396%,1)"/>
  <circle cx="2" cy="5" r="1" fill="srgba(57.8347%,55.9548%,72.636%,1)"/>
  <circle cx="3" cy="5" r="1" fill="srgba(90.9102%,83.8804%,86.8147%,1)"/>
  <circle cx="4" cy="5" r="1" fill="srgba(95.2636%,69.25%,68.542%,1)"/>
  <circle cx="5" cy="5" r="1" fill="srgba(83.5477%,50.8736%,54.1878%,1)"/>
  <circle cx="6" cy="5" r="1" fill="srgba(78.5489%,66.6041%,74.0017%,1)"/>
  <circle cx="7" cy="5" r="1" fill="srgba(84.0131%,23.5035%,23.6912%,1)"/>
  <circle cx="8" cy="5" r="1" fill="srgba(81.6175%,25.5406%,25.2567%,1)"/>
  <circle cx="9" cy="5" r="1" fill="srgba(81.8784%,78.1506%,82.3239%,1)"/>
  <circle cx="10" cy="5" r="1" fill="srgba(90.8629%,86.3691%,86.8467%,1)"/>
  <circle cx="11" cy="5" r="1" fill="srgba(87.8553%,60.4807%,59.5132%,1)"/>
  <circle cx="12" cy="5" r="1" fill="srgba(79.9268%,57.5494%,59.8184%,1)"/>
  <circle cx="13" cy="5" r="1" fill="srgba(51.7601%,49.7444%,64.9866%,1)"/>
  <circle cx="14" cy="5" r="1" fill="srgba(37.5967%,36.0906%,58.8891%,1)"/>
  <circle cx="15" cy="5" r="1" fill="srgba(33.8888%,31.1818%,57.4777%,1)"/>
  <circle cx="0" cy="6" r="1" fill="srgba(24.2252%,25.037%,55.4314%,1)"/>
  <circle cx="1" cy="6" r="1" fill="srgba(59.7635%,55.8312%,71.5373%,1)"/>
  <circle cx="2" cy="6" r="1" fill="srgba(86.8055%,64.1657%,67.1824%,1)"/>
  <circle cx="3" cy="6" r="1" fill="srgba(83.1815%,45.6779%,48.6564%,1)"/>
  <circle cx="4" cy="6" r="1" fill="srgba(55.1888%,28.5634%,43.827%,1)"/>
  <circle cx="5" cy="6" r="1" fill="srgba(18.9883%,12.4849%,44.2405%,1)"/>
  <circle cx="6" cy="6" r="1" fill="srgba(36.9223%,33.3043%,58.3795%,1)"/>
  <circle cx="7" cy="6" r="1" fill="srgba(81.1597%,30.8873%,30.2144%,1)"/>
  <circle cx="8" cy="6" r="1" fill="srgba(35.8389%,34.4778%,22.974%,1)"/>
  <circle cx="9" cy="6" r="1" fill="srgba(25.8579%,37.6928%,26.8391%,1)"/>
  <circle cx="10" cy="6" r="1" fill="srgba(27.628%,42.0371%,30.4784%,1)"/>
  <circle cx="11" cy="6" r="1" fill="srgba(33.1228%,40.0336%,28.0217%,1)"/>
  <circle cx="12" cy="6" r="1" fill="srgba(40.2487%,37.7478%,27.9942%,1)"/>
  <circle cx="13" cy="6" r="1" fill="srgba(39.53%,36.5911%,31.4351%,1)"/>
  <circle cx="14" cy="6" r="1" fill="srgba(30.6188%,27.0115%,33.7697%,1)"/>
  <circle cx="15" cy="6" r="1" fill="srgba(19.5743%,13.1685%,36.2783%,1)"/>
  <circle cx="0" cy="7" r="1" fill="srgba(78.4344%,61.5534%,68.4932%,1)"/>
  <circle cx="1" cy="7" r="1" fill="srgba(78.6709%,42.2187%,47.1061%,1)"/>
  <circle cx="2" cy="7" r="1" fill="srgba(55.668%,28.777%,43.8209%,1)"/>
  <circle cx="3" cy="7" r="1" fill="srgba(20.708%,14.1054%,45.1606%,1)"/>
  <circle cx="4" cy="7" r="1" fill="srgba(2.02182%,2.56809%,41.8982%,1)"/>
  <circle cx="5" cy="7" r="1" fill="srgba(0%,0%,39.0021%,1)"/>
  <circle cx="6" cy="7" r="1" fill="srgba(30.779%,27.5166%,55.0561%,1)"/>
  <circle cx="7" cy="7" r="1" fill="srgba(70.5516%,28.9677%,32.1889%,1)"/>
  <circle cx="8" cy="7" r="1" fill="srgba(19.8138%,32.7459%,16.3424%,1)"/>
  <circle cx="9" cy="7" r="1" fill="srgba(14.461%,31.6258%,10.0099%,1)"/>
  <circle cx="10" cy="7" r="1" fill="srgba(8.28412%,29.163%,11.9219%,1)"/>
  <circle cx="11" cy="7" r="1" fill="srgba(37.5814%,29.1417%,8.55573%,1)"/>
  <circle cx="12" cy="7" r="1" fill="srgba(67.7165%,44.2359%,23.8041%,1)"/>
  <circle cx="13" cy="7" r="1" fill="srgba(83.5203%,59.5285%,48.1041%,1)"/>
  <circle cx="14" cy="7" r="1" fill="srgba(90.6645%,69.0608%,62.3865%,1)"/>
  <circle cx="15" cy="7" r="1" fill="srgba(90.8614%,70.4067%,65.51%,1)"/>
  <circle cx="0" cy="8" r="1" fill="srgba(10.5806%,3.17693%,37.8546%,1)"/>
  <circle cx="1" cy="8" r="1" fill="srgba(9.42397%,4.1413%,39.4858%,1)"/>
  <circle cx="2" cy="8" r="1" fill="srgba(2.30869%,2.75273%,41.9791%,1)"/>
  <circle cx="3" cy="8" r="1" fill="srgba(0%,0%,39.7299%,1)"/>
  <circle cx="4" cy="8" r="1" fill="srgba(0%,0%,39.9069%,1)"/>
  <circle cx="5" cy="8" r="1" fill="srgba(0%,0%,39.9054%,1)"/>
  <circle cx="6" cy="8" r="1" fill="srgba(3.90784%,3.36004%,42.0005%,1)"/>
  <circle cx="7" cy="8" r="1" fill="srgba(13.8201%,10.2907%,40.1617%,1)"/>
  <circle cx="8" cy="8" r="1" fill="srgba(18.7213%,35.6863%,20.4547%,1)"/>
  <circle cx="9" cy="8" r="1" fill="srgba(32.4941%,39.7498%,7.0573%,1)"/>
  <circle cx="10" cy="8" r="1" fill="srgba(27.5914%,38.8907%,18.4527%,1)"/>
  <circle cx="11" cy="8" r="1" fill="srgba(42.62%,35.5383%,18.3078%,1)"/>
  <circle cx="12" cy="8" r="1" fill="srgba(70.2556%,49.8741%,31.8013%,1)"/>
  <circle cx="13" cy="8" r="1" fill="srgba(64.538%,38.7137%,13.2113%,1)"/>
  <circle cx="14" cy="8" r="1" fill="srgba(72.2164%,46.7735%,25.5116%,1)"/>
  <circle cx="15" cy="8" r="1" fill="srgba(85.0141%,62.1225%,49.5033%,1)"/>
  <circle cx="0" cy="9" r="1" fill="srgba(0%,0%,40.1266%,1)"/>
  <circle cx="1" cy="9" r="1" fill="srgba(0%,0%,39.9619%,1)"/>
  <circle cx="2" cy="9" r="1" fill="srgba(0%,0%,39.9115%,1)"/>
  <circle cx="3" cy="9" r="1" fill="srgba(0%,0%,40.0046%,1)"/>
  <circle cx="4" cy="9" r="1" fill="srgba(0,0,102,1)"/>
  <circle cx="5" cy="9" r="1" fill="srgba(0%,0%,40.0061%,1)"/>
  <circle cx="6" cy="9" r="1" fill="srgba(0%,0%,39.7696%,1)"/>
  <circle cx="7" cy="9" r="1" fill="srgba(4.98512%,7.33349%,41.5671%,1)"/>
  <circle cx="8" cy="9" r="1" fill="srgba(15.5978%,36.1654%,21.5412%,1)"/>
  <circle cx="9" cy="9" r="1" fill="srgba(33.8308%,40.1205%,9.30343%,1)"/>
  <circle cx="10" cy="9" r="1" fill="srgba(34.9355%,40.1862%,20.1938%,1)"/>
  <circle cx="11" cy="9" r="1" fill="srgba(32.1859%,35.079%,19.6201%,1)"/>
  <circle cx="12" cy="9" r="1" fill="srgba(65.7755%,45.2094%,24.5838%,1)"/>
  <circle cx="13" cy="9" r="1" fill="srgba(60.7538%,32.3171%,2.50095%,1)"/>
  <circle cx="14" cy="9" r="1" fill="srgba(60.0748%,30.3548%,0%,1)"/>
  <circle cx="15" cy="9" r="1" fill="srgba(61.973%,32.9168%,2.70542%,1)"/>
  <circle cx="0" cy="10" r="1" fill="srgba(0,0,102,1)"/>
  <circle cx="1" cy="10" r="1" fill="srgba(0,0,102,1)"/>
  <circle cx="2" cy="10" r="1" fill="srgba(0,0,102,1)"/>
  <circle cx="3" cy="10" r="1" fill="srgba(0,0,102,1)"/>
  <circle cx="4" cy="10" r="1" fill="srgba(0,0,102,1)"/>
  <circle cx="5" cy="10" r="1" fill="srgba(0,0,102,1)"/>
  <circle cx="6" cy="10" r="1" fill="srgba(0%,0%,39.8993%,1)"/>
  <circle cx="7" cy="10" r="1" fill="srgba(5.13313%,7.33806%,41.5549%,1)"/>
  <circle cx="8" cy="10" r="1" fill="srgba(14.6944%,36.1456%,21.7853%,1)"/>
  <circle cx="9" cy="10" r="1" fill="srgba(34.9523%,37.5982%,8.7892%,1)"/>
  <circle cx="10" cy="10" r="1" fill="srgba(31.4244%,35.6466%,14.58%,1)"/>
  <circle cx="11" cy="10" r="1" fill="srgba(32.7108%,34.6715%,19.1577%,1)"/>
  <circle cx="12" cy="10" r="1" fill="srgba(76.112%,62.4537%,48.0507%,1)"/>
  <circle cx="13" cy="10" r="1" fill="srgba(80.2731%,66.7292%,52.047%,1)"/>
  <circle cx="14" cy="10" r="1" fill="srgba(80.8713%,68.0186%,54.136%,1)"/>
  <circle cx="15" cy="10" r="1" fill="srgba(80.8118%,68.4276%,55.0011%,1)"/>
  <circle cx="0" cy="11" r="1" fill="srgba(0,0,102,1)"/>
  <circle cx="1" cy="11" r="1" fill="srgba(0,0,102,1)"/>
  <circle cx="2" cy="11" r="1" fill="srgba(0,0,102,1)"/>
  <circle cx="3" cy="11" r="1" fill="srgba(0,0,102,1)"/>
  <circle cx="4" cy="11" r="1" fill="srgba(0,0,102,1)"/>
  <circle cx="5" cy="11" r="1" fill="srgba(0,0,102,1)"/>
  <circle cx="6" cy="11" r="1" fill="srgba(0%,0%,39.8764%,1)"/>
  <circle cx="7" cy="11" r="1" fill="srgba(5.1133%,7.31518%,41.8036%,1)"/>
  <circle cx="8" cy="11" r="1" fill="srgba(14.8074%,33.1182%,21.9409%,1)"/>
  <circle cx="9" cy="11" r="1" fill="srgba(33.3547%,39.0951%,8.46113%,1)"/>
  <circle cx="10" cy="11" r="1" fill="srgba(29.781%,40.3311%,13.872%,1)"/>
  <circle cx="11" cy="11" r="1" fill="srgba(29.6345%,40.0565%,24.8463%,1)"/>
  <circle cx="12" cy="11" r="1" fill="srgba(93.0968%,92.8283%,92.137%,1)"/>
  <circle cx="13" cy="11" r="1" fill="white"/>
  <circle cx="14" cy="11" r="1" fill="white"/>
  <circle cx="15" cy="11" r="1" fill="srgba(99.6902%,99.6963%,99.7024%,1)"/>
  <circle cx="0" cy="12" r="1" fill="srgba(0,0,102,1)"/>
  <circle cx="1" cy="12" r="1" fill="srgba(0,0,102,1)"/>
  <circle cx="2" cy="12" r="1" fill="srgba(0,0,102,1)"/>
  <circle cx="3" cy="12" r="1" fill="srgba(0,0,102,1)"/>
  <circle cx="4" cy="12" r="1" fill="srgba(0,0,102,1)"/>
  <circle cx="5" cy="12" r="1" fill="srgba(0%,0%,39.9969%,1)"/>
  <circle cx="6" cy="12" r="1" fill="srgba(0%,0%,40.1083%,1)"/>
  <circle cx="7" cy="12" r="1" fill="srgba(13.0114%,12.5521%,40.8469%,1)"/>
  <circle cx="8" cy="12" r="1" fill="srgba(30.4219%,36.9589%,25.6107%,1)"/>
  <circle cx="9" cy="12" r="1" fill="srgba(31.9249%,38.0133%,9.73068%,1)"/>
  <circle cx="10" cy="12" r="1" fill="srgba(30.6584%,40.2319%,12.4315%,1)"/>
  <circle cx="11" cy="12" r="1" fill="srgba(31.4183%,41.0193%,23.3204%,1)"/>
  <circle cx="12" cy="12" r="1" fill="srgba(91.3542%,90.9987%,90.0893%,1)"/>
  <circle cx="13" cy="12" r="1" fill="srgba(100%,100%,99.6674%,1)"/>
  <circle cx="14" cy="12" r="1" fill="srgba(96.4691%,94.2779%,85.3574%,1)"/>
  <circle cx="15" cy="12" r="1" fill="srgba(98.8266%,98.2712%,95.9808%,1)"/>
  <circle cx="0" cy="13" r="1" fill="srgba(0,0,102,1)"/>
  <circle cx="1" cy="13" r="1" fill="srgba(0,0,102,1)"/>
  <circle cx="2" cy="13" r="1" fill="srgba(0,0,102,1)"/>
  <circle cx="3" cy="13" r="1" fill="srgba(0,0,102,1)"/>
  <circle cx="4" cy="13" r="1" fill="srgba(0,0,102,1)"/>
  <circle cx="5" cy="13" r="1" fill="srgba(0%,0%,39.942%,1)"/>
  <circle cx="6" cy="13" r="1" fill="srgba(3.9826%,3.85138%,41.0651%,1)"/>
  <circle cx="7" cy="13" r="1" fill="srgba(57.0474%,48.0766%,24.5029%,1)"/>
  <circle cx="8" cy="13" r="1" fill="srgba(80.0534%,66.0838%,8.85023%,1)"/>
  <circle cx="9" cy="13" r="1" fill="srgba(49.8329%,47.5883%,18.822%,1)"/>
  <circle cx="10" cy="13" r="1" fill="srgba(28.0812%,39.8764%,16.8368%,1)"/>
  <circle cx="11" cy="13" r="1" fill="srgba(27.6814%,42.0005%,25.8747%,1)"/>
  <circle cx="12" cy="13" r="1" fill="srgba(90.695%,89.9092%,86.1555%,1)"/>
  <circle cx="13" cy="13" r="1" fill="srgba(94.8684%,88.1941%,61.2726%,1)"/>
  <circle cx="14" cy="13" r="1" fill="srgba(89.1341%,75.0484%,18.1231%,1)"/>
  <circle cx="15" cy="13" r="1" fill="srgba(88.5252%,82.7359%,59.3301%,1)"/>
  <circle cx="0" cy="14" r="1" fill="srgba(0,0,102,1)"/>
  <circle cx="1" cy="14" r="1" fill="srgba(0,0,102,1)"/>
  <circle cx="2" cy="14" r="1" fill="srgba(0,0,102,1)"/>
  <circle cx="3" cy="14" r="1" fill="srgba(0,0,102,1)"/>
  <circle cx="4" cy="14" r="1" fill="srgba(0,0,102,1)"/>
  <circle cx="5" cy="14" r="1" fill="srgba(0%,0%,39.9893%,1)"/>
  <circle cx="6" cy="14" r="1" fill="srgba(1.47555%,1.37026%,39.8016%,1)"/>
  <circle cx="7" cy="14" r="1" fill="srgba(24.6113%,22.3438%,39.7208%,1)"/>
  <circle cx="8" cy="14" r="1" fill="srgba(60.8148%,53.2982%,33.8277%,1)"/>
  <circle cx="9" cy="14" r="1" fill="srgba(39.6231%,32.1935%,5.56954%,1)"/>
  <circle cx="10" cy="14" r="1" fill="srgba(63.4821%,54.5998%,7.98505%,1)"/>
  <circle cx="11" cy="14" r="1" fill="srgba(70.2632%,62.6703%,12.1767%,1)"/>
  <circle cx="12" cy="14" r="1" fill="srgba(89.8344%,76.6583%,23.2944%,1)"/>
  <circle cx="13" cy="14" r="1" fill="srgba(92.6253%,79.6078%,27.0146%,1)"/>
  <circle cx="14" cy="14" r="1" fill="srgba(89.7887%,84.5701%,63.4836%,1)"/>
  <circle cx="15" cy="14" r="1" fill="srgba(89.7292%,88.1239%,81.6327%,1)"/>
  <circle cx="0" cy="15" r="1" fill="srgba(0,0,102,1)"/>
  <circle cx="1" cy="15" r="1" fill="srgba(0,0,102,1)"/>
  <circle cx="2" cy="15" r="1" fill="srgba(0,0,102,1)"/>
  <circle cx="3" cy="15" r="1" fill="srgba(0,0,102,1)"/>
  <circle cx="4" cy="15" r="1" fill="srgba(0,0,102,1)"/>
  <circle cx="5" cy="15" r="1" fill="srgba(0%,0%,40.0153%,1)"/>
  <circle cx="6" cy="15" r="1" fill="srgba(0%,0%,39.3088%,1)"/>
  <circle cx="7" cy="15" r="1" fill="srgba(9.32631%,9.35988%,44.3854%,1)"/>
  <circle cx="8" cy="15" r="1" fill="srgba(33.022%,32.7565%,54.0612%,1)"/>
  <circle cx="9" cy="15" r="1" fill="srgba(2.6688%,2.13016%,5.13771%,1)"/>
  <circle cx="10" cy="15" r="1" fill="srgba(26.8666%,21.6037%,2.4094%,1)"/>
  <circle cx="11" cy="15" r="1" fill="srgba(61.5885%,51.3787%,21.7838%,1)"/>
  <circle cx="12" cy="15" r="1" fill="srgba(91.075%,84.6494%,60.4547%,1)"/>
  <circle cx="13" cy="15" r="1" fill="srgba(98.0133%,96.7239%,91.3085%,1)"/>
  <circle cx="14" cy="15" r="1" fill="srgba(94.8425%,94.9386%,95.1949%,1)"/>
  <circle cx="15" cy="15" r="1" fill="srgba(92.7611%,92.7749%,92.8435%,1)"/>
</svg>
