<?xml version="1.0" standalone="no"?>
<!DOCTYPE svg PUBLIC "-//W3C//DTD SVG 20010904//EN"
  "http://www.w3.org/TR/2001/REC-SVG-20010904/DTD/svg10.dtd">
<svg width="16" height="16">
  <circle cx="0" cy="0" r="1" fill="white"/>
  <circle cx="1" cy="0" r="1" fill="white"/>
  <circle cx="2" cy="0" r="1" fill="white"/>
  <circle cx="3" cy="0" r="1" fill="white"/>
  <circle cx="4" cy="0" r="1" fill="white"/>
  <circle cx="5" cy="0" r="1" fill="white"/>
  <circle cx="6" cy="0" r="1" fill="white"/>
  <circle cx="7" cy="0" r="1" fill="white"/>
  <circle cx="8" cy="0" r="1" fill="white"/>
  <circle cx="9" cy="0" r="1" fill="white"/>
  <circle cx="10" cy="0" r="1" fill="white"/>
  <circle cx="11" cy="0" r="1" fill="white"/>
  <circle cx="12" cy="0" r="1" fill="white"/>
  <circle cx="13" cy="0" r="1" fill="white"/>
  <circle cx="14" cy="0" r="1" fill="white"/>
  <circle cx="15" cy="0" r="1" fill="white"/>
  <circle cx="0" cy="1" r="1" fill="white"/>
  <circle cx="1" cy="1" r="1" fill="white"/>
  <circle cx="2" cy="1" r="1" fill="white"/>
  <circle cx="3" cy="1" r="1" fill="white"/>
  <circle cx="4" cy="1" r="1" fill="white"/>
  <circle cx="5" cy="1" r="1" fill="white"/>
  <circle cx="6" cy="1" r="1" fill="white"/>
  <circle cx="7" cy="1" r="1" fill="white"/>
  <circle cx="8" cy="1" r="1" fill="white"/>
  <circle cx="9" cy="1" r="1" fill="white"/>
  <circle cx="10" cy="1" r="1" fill="white"/>
  <circle cx="11" cy="1" r="1" fill="white"/>
  <circle cx="12" cy="1" r="1" fill="white"/>
  <circle cx="13" cy="1" r="1" fill="white"/>
  <circle cx="14" cy="1" r="1" fill="white"/>
  <circle cx="15" cy="1" r="1" fill="white"/>
  <circle cx="0" cy="2" r="1" fill="white"/>
  <circle cx="1" cy="2" r="1" fill="white"/>
  <circle cx="2" cy="2" r="1" fill="white"/>
  <circle cx="3" cy="2" r="1" fill="white"/>
  <circle cx="4" cy="2" r="1" fill="white"/>
  <circle cx="5" cy="2" r="1" fill="white"/>
  <circle cx="6" cy="2" r="1" fill="white"/>
  <circle cx="7" cy="2" r="1" fill="white"/>
  <circle cx="8" cy="2" r="1" fill="white"/>
  <circle cx="9" cy="2" r="1" fill="white"/>
  <circle cx="10" cy="2" r="1" fill="white"/>
  <circle cx="11" cy="2" r="1" fill="white"/>
  <circle cx="12" cy="2" r="1" fill="white"/>
  <circle cx="13" cy="2" r="1" fill="white"/>
  <circle cx="14" cy="2" r="1" fill="white"/>
  <circle cx="15" cy="2" r="1" fill="white"/>
  <circle cx="0" cy="3" r="1" fill="srgba(99.8306%,99.8047%,99.7314%,1)"/>
  <circle cx="1" cy="3" r="1" fill="srgba(97.1817%,95.3704%,90.1778%,1)"/>
  <circle cx="2" cy="3" r="1" fill="srgba(98.4039%,97.3327%,94.2535%,1)"/>
  <circle cx="3" cy="3" r="1" fill="srgba(99.8062%,99.8199%,99.7803%,1)"/>
  <circle cx="4" cy="3" r="1" fill="white"/>
  <circle cx="5" cy="3" r="1" fill="white"/>
  <circle cx="6" cy="3" r="1" fill="srgba(99.8871%,99.8734%,99.8352%,1)"/>
  <circle cx="7" cy="3" r="1" fill="srgba(98.8586%,98.7198%,98.3429%,1)"/>
  <circle cx="8" cy="3" r="1" fill="srgba(98.8785%,98.7945%,98.5748%,1)"/>
  <circle cx="9" cy="3" r="1" fill="srgba(99.0768%,99.0723%,99.0814%,1)"/>
  <circle cx="10" cy="3" r="1" fill="srgba(99.2203%,99.3011%,99.5315%,1)"/>
  <circle cx="11" cy="3" r="1" fill="srgba(99.2599%,99.5209%,100%,1)"/>
  <circle cx="12" cy="3" r="1" fill="srgba(99.1806%,99.3622%,99.7925%,1)"/>
  <circle cx="13" cy="3" r="1" fill="srgba(98.7228%,97.995%,95.9167%,1)"/>
  <circle cx="14" cy="3" r="1" fill="srgba(96.7468%,94.725%,88.925%,1)"/>
  <circle cx="15" cy="3" r="1" fill="srgba(98.7213%,98.5107%,97.9294%,1)"/>
  <circle cx="0" cy="4" r="1" fill="srgba(99.9435%,100%,100%,1)"/>
  <circle cx="1" cy="4" r="1" fill="srgba(91.2398%,85.0446%,67.2694%,1)"/>
  <circle cx="2" cy="4" r="1" fill="srgba(87.071%,74.3847%,37.8714%,1)"/>
  <circle cx="3" cy="4" r="1" fill="srgba(89.1814%,80.0458%,53.7835%,1)"/>
  <circle cx="4" cy="4" r="1" fill="srgba(94.3771%,88.6473%,72.1538%,1)"/>
  <circle cx="5" cy="4" r="1" fill="srgba(97.3892%,95.4986%,90.074%,1)"/>
  <circle cx="6" cy="4" r="1" fill="srgba(98.0743%,96.9787%,93.8247%,1)"/>
  <circle cx="7" cy="4" r="1" fill="srgba(89.8329%,86.0883%,75.3597%,1)"/>
  <circle cx="8" cy="4" r="1" fill="srgba(94.5022%,93.8567%,92.015%,1)"/>
  <circle cx="9" cy="4" r="1" fill="srgba(96.4111%,96.3592%,96.2158%,1)"/>
  <circle cx="10" cy="4" r="1" fill="srgba(93.2494%,91.8181%,87.8004%,1)"/>
  <circle cx="11" cy="4" r="1" fill="srgba(90.3258%,85.2171%,70.6035%,1)"/>
  <circle cx="12" cy="4" r="1" fill="srgba(85.8961%,77.4228%,53.1487%,1)"/>
  <circle cx="13" cy="4" r="1" fill="srgba(87.2129%,75.0637%,40.1144%,1)"/>
  <circle cx="14" cy="4" r="1" fill="srgba(87.8996%,79.9359%,57.1038%,1)"/>
  <circle cx="15" cy="4" r="1" fill="srgba(93.1838%,92.9732%,92.5139%,1)"/>
  <circle cx="0" cy="5" r="1" fill="white"/>
  <circle cx="1" cy="5" r="1" fill="srgba(98.7198%,97.7676%,95.4604%,1)"/>
  <circle cx="2" cy="5" r="1" fill="srgba(90.4173%,81.6831%,57.7127%,1)"/>
  <circle cx="3" cy="5" r="1" fill="srgba(83.4989%,67.7653%,23.592%,1)"/>
  <circle cx="4" cy="5" r="1" fill="srgba(86.508%,69.5277%,21.1917%,1)"/>
  <circle cx="5" cy="5" r="1" fill="srgba(88.7724%,75.3689%,37.2976%,1)"/>
  <circle cx="6" cy="5" r="1" fill="srgba(76.6049%,74.67%,70.37%,1)"/>
  <circle cx="7" cy="5" r="1" fill="srgba(64.6296%,62.5406%,58.0331%,1)"/>
  <circle cx="8" cy="5" r="1" fill="srgba(68.6885%,70.0175%,75.4681%,1)"/>
  <circle cx="9" cy="5" r="1" fill="srgba(73.3165%,72.9122%,72.9885%,1)"/>
  <circle cx="10" cy="5" r="1" fill="srgba(85.3254%,73.9834%,41.5595%,1)"/>
  <circle cx="11" cy="5" r="1" fill="srgba(87.1534%,70.544%,22.6398%,1)"/>
  <circle cx="12" cy="5" r="1" fill="srgba(82.0966%,65.8106%,18.9914%,1)"/>
  <circle cx="13" cy="5" r="1" fill="srgba(85.0126%,71.2932%,31.8349%,1)"/>
  <circle cx="14" cy="5" r="1" fill="srgba(91.8303%,84.2069%,62.9236%,1)"/>
  <circle cx="15" cy="5" r="1" fill="srgba(86.4805%,78.497%,55.9091%,1)"/>
  <circle cx="0" cy="6" r="1" fill="srgba(96.6796%,97.7035%,98.2574%,1)"/>
  <circle cx="1" cy="6" r="1" fill="srgba(79.8306%,88.0491%,92.6528%,1)"/>
  <circle cx="2" cy="6" r="1" fill="srgba(81.9501%,89.4606%,93.2769%,1)"/>
  <circle cx="3" cy="6" r="1" fill="srgba(75.7534%,78.0377%,67.9606%,1)"/>
  <circle cx="4" cy="6" r="1" fill="srgba(72.0684%,63.6469%,30.5119%,1)"/>
  <circle cx="5" cy="6" r="1" fill="srgba(74.8486%,64.21%,26.2135%,1)"/>
  <circle cx="6" cy="6" r="1" fill="srgba(33.8506%,33.7133%,39.382%,1)"/>
  <circle cx="7" cy="6" r="1" fill="srgba(15.6008%,18.1125%,40.7568%,1)"/>
  <circle cx="8" cy="6" r="1" fill="srgba(15.5505%,18.1811%,40.9751%,1)"/>
  <circle cx="9" cy="6" r="1" fill="srgba(25.3483%,25.3468%,37.9355%,1)"/>
  <circle cx="10" cy="6" r="1" fill="srgba(78.1384%,63.4546%,23.4607%,1)"/>
  <circle cx="11" cy="6" r="1" fill="srgba(82.8626%,67.7958%,25.893%,1)"/>
  <circle cx="12" cy="6" r="1" fill="srgba(86.5141%,70.4356%,24.6128%,1)"/>
  <circle cx="13" cy="6" r="1" fill="srgba(94.667%,76.376%,24.7349%,1)"/>
  <circle cx="14" cy="6" r="1" fill="srgba(82.3545%,71.6014%,29.5384%,1)"/>
  <circle cx="15" cy="6" r="1" fill="srgba(86.8681%,72.8115%,27.2663%,1)"/>
  <circle cx="0" cy="7" r="1" fill="srgba(97.1756%,97.9904%,98.4375%,1)"/>
  <circle cx="1" cy="7" r="1" fill="srgba(35.2621%,65.6413%,81.9333%,1)"/>
  <circle cx="2" cy="7" r="1" fill="srgba(5.36965%,52.4727%,77.7417%,1)"/>
  <circle cx="3" cy="7" r="1" fill="srgba(6.23789%,53.0205%,78.6069%,1)"/>
  <circle cx="4" cy="7" r="1" fill="srgba(29.7185%,56.7544%,65.3468%,1)"/>
  <circle cx="5" cy="7" r="1" fill="srgba(28.1788%,52.8939%,52.1874%,1)"/>
  <circle cx="6" cy="7" r="1" fill="srgba(44.9256%,42.2034%,49.8436%,1)"/>
  <circle cx="7" cy="7" r="1" fill="srgba(62.8641%,38.5183%,49.2958%,1)"/>
  <circle cx="8" cy="7" r="1" fill="srgba(62.0508%,38.294%,49.4926%,1)"/>
  <circle cx="9" cy="7" r="1" fill="srgba(61.5885%,42.4018%,44.0238%,1)"/>
  <circle cx="10" cy="7" r="1" fill="srgba(69.4301%,63.682%,28.2124%,1)"/>
  <circle cx="11" cy="7" r="1" fill="srgba(73.6141%,76.3424%,58.9761%,1)"/>
  <circle cx="12" cy="7" r="1" fill="srgba(58.4298%,67.2923%,55.6481%,1)"/>
  <circle cx="13" cy="7" r="1" fill="srgba(80.3296%,71.6869%,28.6687%,1)"/>
  <circle cx="14" cy="7" r="1" fill="srgba(54.8486%,61.059%,38.5687%,1)"/>
  <circle cx="15" cy="7" r="1" fill="srgba(78.027%,69.6818%,30.1167%,1)"/>
  <circle cx="0" cy="8" r="1" fill="white"/>
  <circle cx="1" cy="8" r="1" fill="srgba(58.9517%,77.7981%,87.9072%,1)"/>
  <circle cx="2" cy="8" r="1" fill="srgba(17.4823%,57.467%,78.8937%,1)"/>
  <circle cx="3" cy="8" r="1" fill="srgba(43.9536%,70.6233%,85.182%,1)"/>
  <circle cx="4" cy="8" r="1" fill="srgba(45.275%,65.6733%,67.0039%,1)"/>
  <circle cx="5" cy="8" r="1" fill="srgba(28.7587%,55.7183%,32.018%,1)"/>
  <circle cx="6" cy="8" r="1" fill="srgba(63.5187%,53.9025%,30.4143%,1)"/>
  <circle cx="7" cy="8" r="1" fill="srgba(71.577%,44.1398%,49.9748%,1)"/>
  <circle cx="8" cy="8" r="1" fill="srgba(71.3954%,43.1022%,51.5908%,1)"/>
  <circle cx="9" cy="8" r="1" fill="srgba(68.1727%,51.2352%,35.1339%,1)"/>
  <circle cx="10" cy="8" r="1" fill="srgba(36.5988%,58.5443%,25.3437%,1)"/>
  <circle cx="11" cy="8" r="1" fill="srgba(17.9034%,50.9514%,37.0016%,1)"/>
  <circle cx="12" cy="8" r="1" fill="srgba(12.4163%,47.9194%,44.1337%,1)"/>
  <circle cx="13" cy="8" r="1" fill="srgba(25.8137%,57.3877%,29.276%,1)"/>
  <circle cx="14" cy="8" r="1" fill="srgba(26.0594%,52.7504%,37.4823%,1)"/>
  <circle cx="15" cy="8" r="1" fill="srgba(64.8295%,63.5828%,28.6015%,1)"/>
  <circle cx="0" cy="9" r="1" fill="white"/>
  <circle cx="1" cy="9" r="1" fill="srgba(91.5404%,94.6639%,96.3485%,1)"/>
  <circle cx="2" cy="9" r="1" fill="srgba(88.7526%,92.9%,95.1431%,1)"/>
  <circle cx="3" cy="9" r="1" fill="white"/>
  <circle cx="4" cy="9" r="1" fill="srgba(85.3025%,86.6682%,80.4334%,1)"/>
  <circle cx="5" cy="9" r="1" fill="srgba(58.439%,62.797%,34.3465%,1)"/>
  <circle cx="6" cy="9" r="1" fill="srgba(64.361%,59.6796%,21.21%,1)"/>
  <circle cx="7" cy="9" r="1" fill="srgba(69.5964%,52.105%,29.9504%,1)"/>
  <circle cx="8" cy="9" r="1" fill="srgba(62.0386%,46.1921%,35.024%,1)"/>
  <circle cx="9" cy="9" r="1" fill="srgba(60.9064%,56.4126%,21.9837%,1)"/>
  <circle cx="10" cy="9" r="1" fill="srgba(48.4947%,58.5946%,22.295%,1)"/>
  <circle cx="11" cy="9" r="1" fill="srgba(15.0454%,45.069%,37.1145%,1)"/>
  <circle cx="12" cy="9" r="1" fill="srgba(17.3846%,53.7163%,29.8222%,1)"/>
  <circle cx="13" cy="9" r="1" fill="srgba(20.9857%,58.3139%,26.0883%,1)"/>
  <circle cx="14" cy="9" r="1" fill="srgba(17.5601%,53.0022%,28.3162%,1)"/>
  <circle cx="15" cy="9" r="1" fill="srgba(22.2919%,52.8862%,26.4393%,1)"/>
  <circle cx="0" cy="10" r="1" fill="white"/>
  <circle cx="1" cy="10" r="1" fill="white"/>
  <circle cx="2" cy="10" r="1" fill="white"/>
  <circle cx="3" cy="10" r="1" fill="white"/>
  <circle cx="4" cy="10" r="1" fill="srgba(89.5995%,88.4596%,79.6887%,1)"/>
  <circle cx="5" cy="10" r="1" fill="srgba(69.5262%,74.168%,55.1247%,1)"/>
  <circle cx="6" cy="10" r="1" fill="srgba(81.8814%,78.2742%,58.1888%,1)"/>
  <circle cx="7" cy="10" r="1" fill="srgba(82.2263%,66.5614%,21.268%,1)"/>
  <circle cx="8" cy="10" r="1" fill="srgba(69.4194%,58.819%,21.9257%,1)"/>
  <circle cx="9" cy="10" r="1" fill="srgba(49.9794%,58.114%,27.9377%,1)"/>
  <circle cx="10" cy="10" r="1" fill="srgba(23.3326%,50.837%,35.9701%,1)"/>
  <circle cx="11" cy="10" r="1" fill="srgba(15.8572%,46.8574%,45.0477%,1)"/>
  <circle cx="12" cy="10" r="1" fill="srgba(18.4207%,56.4874%,28.1453%,1)"/>
  <circle cx="13" cy="10" r="1" fill="srgba(21.0101%,58.2101%,25.7511%,1)"/>
  <circle cx="14" cy="10" r="1" fill="srgba(19.0875%,54.2107%,26.5675%,1)"/>
  <circle cx="15" cy="10" r="1" fill="srgba(18.8235%,54.3145%,26.9444%,1)"/>
  <circle cx="0" cy="11" r="1" fill="white"/>
  <circle cx="1" cy="11" r="1" fill="white"/>
  <circle cx="2" cy="11" r="1" fill="white"/>
  <circle cx="3" cy="11" r="1" fill="white"/>
  <circle cx="4" cy="11" r="1" fill="srgba(88.7877%,92.2789%,89.4026%,1)"/>
  <circle cx="5" cy="11" r="1" fill="srgba(61.7044%,76.3531%,64.5472%,1)"/>
  <circle cx="6" cy="11" r="1" fill="srgba(94.4518%,93.1823%,88.9631%,1)"/>
  <circle cx="7" cy="11" r="1" fill="srgba(76.231%,65.4749%,35.0912%,1)"/>
  <circle cx="8" cy="11" r="1" fill="srgba(74.3435%,69.2699%,49.6742%,1)"/>
  <circle cx="9" cy="11" r="1" fill="srgba(70.2937%,79.1455%,77.882%,1)"/>
  <circle cx="10" cy="11" r="1" fill="srgba(24.5975%,55.7%,69.9611%,1)"/>
  <circle cx="11" cy="11" r="1" fill="srgba(20.4227%,53.0404%,62.3102%,1)"/>
  <circle cx="12" cy="11" r="1" fill="srgba(35.7137%,63.9689%,43.1327%,1)"/>
  <circle cx="13" cy="11" r="1" fill="srgba(27.4159%,60.7568%,31.6976%,1)"/>
  <circle cx="14" cy="11" r="1" fill="srgba(19.3744%,53.8735%,26.5873%,1)"/>
  <circle cx="15" cy="11" r="1" fill="srgba(17.8927%,53.4768%,25.4658%,1)"/>
  <circle cx="0" cy="12" r="1" fill="white"/>
  <circle cx="1" cy="12" r="1" fill="white"/>
  <circle cx="2" cy="12" r="1" fill="white"/>
  <circle cx="3" cy="12" r="1" fill="white"/>
  <circle cx="4" cy="12" r="1" fill="srgba(88.9387%,92.343%,89.4331%,1)"/>
  <circle cx="5" cy="12" r="1" fill="srgba(64.3244%,77.5937%,66.479%,1)"/>
  <circle cx="6" cy="12" r="1" fill="srgba(95.2026%,93.8415%,90.0542%,1)"/>
  <circle cx="7" cy="12" r="1" fill="srgba(73.5348%,67.4861%,50.6813%,1)"/>
  <circle cx="8" cy="12" r="1" fill="srgba(80.4898%,82.3713%,82.9618%,1)"/>
  <circle cx="9" cy="12" r="1" fill="srgba(92.7962%,94.0627%,94.8669%,1)"/>
  <circle cx="10" cy="12" r="1" fill="srgba(91.4199%,94.0612%,95.5901%,1)"/>
  <circle cx="11" cy="12" r="1" fill="srgba(76.4096%,83.6759%,87.6921%,1)"/>
  <circle cx="12" cy="12" r="1" fill="srgba(93.0999%,94.8699%,93.8582%,1)"/>
  <circle cx="13" cy="12" r="1" fill="srgba(85.8244%,91.5648%,86.4805%,1)"/>
  <circle cx="14" cy="12" r="1" fill="srgba(63.6606%,76.2814%,67.48%,1)"/>
  <circle cx="15" cy="12" r="1" fill="srgba(47.3671%,67.66%,52.4331%,1)"/>
  <circle cx="0" cy="13" r="1" fill="white"/>
  <circle cx="1" cy="13" r="1" fill="white"/>
  <circle cx="2" cy="13" r="1" fill="white"/>
  <circle cx="3" cy="13" r="1" fill="white"/>
  <circle cx="4" cy="13" r="1" fill="srgba(88.6229%,92.0241%,89.1188%,1)"/>
  <circle cx="5" cy="13" r="1" fill="srgba(64.2405%,77.4228%,66.3706%,1)"/>
  <circle cx="6" cy="13" r="1" fill="srgba(94.847%,93.5164%,89.8421%,1)"/>
  <circle cx="7" cy="13" r="1" fill="srgba(77.1832%,71.3329%,55.0362%,1)"/>
  <circle cx="8" cy="13" r="1" fill="srgba(83.5843%,85.3056%,86.1082%,1)"/>
  <circle cx="9" cy="13" r="1" fill="srgba(93.6675%,94.6304%,95.1995%,1)"/>
  <circle cx="10" cy="13" r="1" fill="white"/>
  <circle cx="11" cy="13" r="1" fill="srgba(99.3179%,99.3408%,99.35%,1)"/>
  <circle cx="12" cy="13" r="1" fill="srgba(99.8322%,99.8306%,99.8322%,1)"/>
  <circle cx="13" cy="13" r="1" fill="white"/>
  <circle cx="14" cy="13" r="1" fill="srgba(90.8125%,91.9722%,92.6726%,1)"/>
  <circle cx="15" cy="13" r="1" fill="srgba(90.5394%,91.8212%,92.5704%,1)"/>
  <circle cx="0" cy="14" r="1" fill="white"/>
  <circle cx="1" cy="14" r="1" fill="white"/>
  <circle cx="2" cy="14" r="1" fill="white"/>
  <circle cx="3" cy="14" r="1" fill="white"/>
  <circle cx="4" cy="14" r="1" fill="srgba(88.4062%,91.8029%,88.9052%,1)"/>
  <circle cx="5" cy="14" r="1" fill="srgba(64.2405%,77.3342%,66.3371%,1)"/>
  <circle cx="6" cy="14" r="1" fill="srgba(94.5663%,93.2784%,89.7551%,1)"/>
  <circle cx="7" cy="14" r="1" fill="srgba(79.8215%,74.0093%,57.7081%,1)"/>
  <circle cx="8" cy="14" r="1" fill="srgba(85.594%,87.0039%,87.6402%,1)"/>
  <circle cx="9" cy="14" r="1" fill="srgba(94.0688%,94.8638%,95.3323%,1)"/>
  <circle cx="10" cy="14" r="1" fill="white"/>
  <circle cx="11" cy="14" r="1" fill="white"/>
  <circle cx="12" cy="14" r="1" fill="white"/>
  <circle cx="13" cy="14" r="1" fill="white"/>
  <circle cx="14" cy="14" r="1" fill="srgba(91.3893%,92.2713%,92.8084%,1)"/>
  <circle cx="15" cy="14" r="1" fill="srgba(91.4824%,92.4361%,93.0098%,1)"/>
  <circle cx="0" cy="15" r="1" fill="white"/>
  <circle cx="1" cy="15" r="1" fill="white"/>
  <circle cx="2" cy="15" r="1" fill="white"/>
  <circle cx="3" cy="15" r="1" fill="white"/>
  <circle cx="4" cy="15" r="1" fill="srgba(88.2338%,91.6228%,88.7282%,1)"/>
  <circle cx="5" cy="15" r="1" fill="srgba(64.2359%,77.258%,66.3096%,1)"/>
  <circle cx="6" cy="15" r="1" fill="srgba(94.3969%,93.1304%,89.6925%,1)"/>
  <circle cx="7" cy="15" r="1" fill="srgba(82.9236%,77.0184%,60.3555%,1)"/>
  <circle cx="8" cy="15" r="1" fill="srgba(87.6371%,88.6595%,89.0303%,1)"/>
  <circle cx="9" cy="15" r="1" fill="srgba(94.5312%,95.1369%,95.5093%,1)"/>
  <circle cx="10" cy="15" r="1" fill="white"/>
  <circle cx="11" cy="15" r="1" fill="white"/>
  <circle cx="12" cy="15" r="1" fill="white"/>
  <circle cx="13" cy="15" r="1" fill="white"/>
  <circle cx="14" cy="15" r="1" fill="srgba(92.6589%,93.2677%,93.6507%,1)"/>
  <circle cx="15" cy="15" r="1" fill="srgba(92.639%,93.2876%,93.6904%,1)"/>
</svg>
