<?xml version="1.0" standalone="no"?>
<!DOCTYPE svg PUBLIC "-//W3C//DTD SVG 20010904//EN"
  "http://www.w3.org/TR/2001/REC-SVG-20010904/DTD/svg10.dtd">
<svg width="16" height="16">
  <circle cx="0" cy="0" r="1" fill="srgba(236,0,21,1)"/>
  <circle cx="1" cy="0" r="1" fill="srgba(236,0,21,1)"/>
  <circle cx="2" cy="0" r="1" fill="srgba(236,0,21,1)"/>
  <circle cx="3" cy="0" r="1" fill="srgba(236,0,21,1)"/>
  <circle cx="4" cy="0" r="1" fill="srgba(236,0,21,1)"/>
  <circle cx="5" cy="0" r="1" fill="srgba(236,0,21,1)"/>
  <circle cx="6" cy="0" r="1" fill="srgba(236,0,21,1)"/>
  <circle cx="7" cy="0" r="1" fill="srgba(236,0,21,1)"/>
  <circle cx="8" cy="0" r="1" fill="srgba(236,0,21,1)"/>
  <circle cx="9" cy="0" r="1" fill="srgba(236,0,21,1)"/>
  <circle cx="10" cy="0" r="1" fill="srgba(236,0,21,1)"/>
  <circle cx="11" cy="0" r="1" fill="srgba(236,0,21,1)"/>
  <circle cx="12" cy="0" r="1" fill="srgba(236,0,21,1)"/>
  <circle cx="13" cy="0" r="1" fill="srgba(236,0,21,1)"/>
  <circle cx="14" cy="0" r="1" fill="srgba(236,0,21,1)"/>
  <circle cx="15" cy="0" r="1" fill="srgba(236,0,21,1)"/>
  <circle cx="0" cy="1" r="1" fill="srgba(236,0,21,1)"/>
  <circle cx="1" cy="1" r="1" fill="srgba(236,0,21,1)"/>
  <circle cx="2" cy="1" r="1" fill="srgba(236,0,21,1)"/>
  <circle cx="3" cy="1" r="1" fill="srgba(236,0,21,1)"/>
  <circle cx="4" cy="1" r="1" fill="srgba(236,0,21,1)"/>
  <circle cx="5" cy="1" r="1" fill="srgba(236,0,21,1)"/>
  <circle cx="6" cy="1" r="1" fill="srgba(236,0,21,1)"/>
  <circle cx="7" cy="1" r="1" fill="srgba(92.546%,0%,8.23835%,1)"/>
  <circle cx="8" cy="1" r="1" fill="srgba(92.5444%,0%,8.2414%,1)"/>
  <circle cx="9" cy="1" r="1" fill="srgba(236,0,21,1)"/>
  <circle cx="10" cy="1" r="1" fill="srgba(236,0,21,1)"/>
  <circle cx="11" cy="1" r="1" fill="srgba(236,0,21,1)"/>
  <circle cx="12" cy="1" r="1" fill="srgba(236,0,21,1)"/>
  <circle cx="13" cy="1" r="1" fill="srgba(236,0,21,1)"/>
  <circle cx="14" cy="1" r="1" fill="srgba(236,0,21,1)"/>
  <circle cx="15" cy="1" r="1" fill="srgba(236,0,21,1)"/>
  <circle cx="0" cy="2" r="1" fill="srgba(236,0,21,1)"/>
  <circle cx="1" cy="2" r="1" fill="srgba(236,0,21,1)"/>
  <circle cx="2" cy="2" r="1" fill="srgba(236,0,21,1)"/>
  <circle cx="3" cy="2" r="1" fill="srgba(236,0,21,1)"/>
  <circle cx="4" cy="2" r="1" fill="srgba(236,0,21,1)"/>
  <circle cx="5" cy="2" r="1" fill="srgba(236,0,21,1)"/>
  <circle cx="6" cy="2" r="1" fill="srgba(92.546%,0%,8.23835%,1)"/>
  <circle cx="7" cy="2" r="1" fill="srgba(92.5841%,0.714122%,8.19715%,1)"/>
  <circle cx="8" cy="2" r="1" fill="srgba(92.604%,1.10628%,8.17426%,1)"/>
  <circle cx="9" cy="2" r="1" fill="srgba(92.5444%,0%,8.23987%,1)"/>
  <circle cx="10" cy="2" r="1" fill="srgba(236,0,21,1)"/>
  <circle cx="11" cy="2" r="1" fill="srgba(236,0,21,1)"/>
  <circle cx="12" cy="2" r="1" fill="srgba(236,0,21,1)"/>
  <circle cx="13" cy="2" r="1" fill="srgba(236,0,21,1)"/>
  <circle cx="14" cy="2" r="1" fill="srgba(236,0,21,1)"/>
  <circle cx="15" cy="2" r="1" fill="srgba(236,0,21,1)"/>
  <circle cx="0" cy="3" r="1" fill="srgba(236,0,21,1)"/>
  <circle cx="1" cy="3" r="1" fill="srgba(236,0,21,1)"/>
  <circle cx="2" cy="3" r="1" fill="srgba(236,0,21,1)"/>
  <circle cx="3" cy="3" r="1" fill="srgba(236,0,21,1)"/>
  <circle cx="4" cy="3" r="1" fill="srgba(236,0,21,1)"/>
  <circle cx="5" cy="3" r="1" fill="srgba(236,0,21,1)"/>
  <circle cx="6" cy="3" r="1" fill="srgba(92.4804%,0%,8.31006%,1)"/>
  <circle cx="7" cy="3" r="1" fill="srgba(93.6675%,15.2697%,6.99931%,1)"/>
  <circle cx="8" cy="3" r="1" fill="srgba(94.255%,23.1662%,6.3508%,1)"/>
  <circle cx="9" cy="3" r="1" fill="srgba(92.4743%,0%,8.31922%,1)"/>
  <circle cx="10" cy="3" r="1" fill="srgba(236,0,21,1)"/>
  <circle cx="11" cy="3" r="1" fill="srgba(236,0,21,1)"/>
  <circle cx="12" cy="3" r="1" fill="srgba(236,0,21,1)"/>
  <circle cx="13" cy="3" r="1" fill="srgba(236,0,21,1)"/>
  <circle cx="14" cy="3" r="1" fill="srgba(236,0,21,1)"/>
  <circle cx="15" cy="3" r="1" fill="srgba(236,0,21,1)"/>
  <circle cx="0" cy="4" r="1" fill="srgba(236,0,21,1)"/>
  <circle cx="1" cy="4" r="1" fill="srgba(236,0,21,1)"/>
  <circle cx="2" cy="4" r="1" fill="srgba(236,0,21,1)"/>
  <circle cx="3" cy="4" r="1" fill="srgba(236,0,21,1)"/>
  <circle cx="4" cy="4" r="1" fill="srgba(92.5475%,0%,8.23682%,1)"/>
  <circle cx="5" cy="4" r="1" fill="srgba(92.5475%,0%,8.23682%,1)"/>
  <circle cx="6" cy="4" r="1" fill="srgba(92.4315%,0%,8.36652%,1)"/>
  <circle cx="7" cy="4" r="1" fill="srgba(95.6451%,41.7762%,4.8127%,1)"/>
  <circle cx="8" cy="4" r="1" fill="srgba(96.907%,58.6481%,3.41802%,1)"/>
  <circle cx="9" cy="4" r="1" fill="srgba(92.5505%,0.183108%,8.23377%,1)"/>
  <circle cx="10" cy="4" r="1" fill="srgba(92.546%,0%,8.23835%,1)"/>
  <circle cx="11" cy="4" r="1" fill="srgba(236,0,21,1)"/>
  <circle cx="12" cy="4" r="1" fill="srgba(236,0,21,1)"/>
  <circle cx="13" cy="4" r="1" fill="srgba(236,0,21,1)"/>
  <circle cx="14" cy="4" r="1" fill="srgba(236,0,21,1)"/>
  <circle cx="15" cy="4" r="1" fill="srgba(236,0,21,1)"/>
  <circle cx="0" cy="5" r="1" fill="srgba(236,0,21,1)"/>
  <circle cx="1" cy="5" r="1" fill="srgba(236,0,21,1)"/>
  <circle cx="2" cy="5" r="1" fill="srgba(92.5475%,0%,8.23682%,1)"/>
  <circle cx="3" cy="5" r="1" fill="srgba(92.5841%,0.466926%,8.19715%,1)"/>
  <circle cx="4" cy="5" r="1" fill="srgba(92.5887%,0.549325%,8.19257%,1)"/>
  <circle cx="5" cy="5" r="1" fill="srgba(92.5353%,0%,8.25055%,1)"/>
  <circle cx="6" cy="5" r="1" fill="srgba(92.6864%,1.84176%,8.08423%,1)"/>
  <circle cx="7" cy="5" r="1" fill="srgba(97.5998%,67.7775%,2.65354%,1)"/>
  <circle cx="8" cy="5" r="1" fill="srgba(98.8174%,84.1917%,1.3077%,1)"/>
  <circle cx="9" cy="5" r="1" fill="srgba(93.1899%,9.20119%,7.5288%,1)"/>
  <circle cx="10" cy="5" r="1" fill="srgba(92.5017%,0%,8.2887%,1)"/>
  <circle cx="11" cy="5" r="1" fill="srgba(236,0,21,1)"/>
  <circle cx="12" cy="5" r="1" fill="srgba(236,0,21,1)"/>
  <circle cx="13" cy="5" r="1" fill="srgba(236,0,21,1)"/>
  <circle cx="14" cy="5" r="1" fill="srgba(236,0,21,1)"/>
  <circle cx="15" cy="5" r="1" fill="srgba(236,0,21,1)"/>
  <circle cx="0" cy="6" r="1" fill="srgba(236,0,21,1)"/>
  <circle cx="1" cy="6" r="1" fill="srgba(236,0,21,1)"/>
  <circle cx="2" cy="6" r="1" fill="srgba(92.5154%,0%,8.27192%,1)"/>
  <circle cx="3" cy="6" r="1" fill="srgba(93.1273%,7.76684%,7.59594%,1)"/>
  <circle cx="4" cy="6" r="1" fill="srgba(96.112%,47.7989%,4.29847%,1)"/>
  <circle cx="5" cy="6" r="1" fill="srgba(97.2488%,63.0625%,3.04112%,1)"/>
  <circle cx="6" cy="6" r="1" fill="srgba(97.406%,65.185%,2.86717%,1)"/>
  <circle cx="7" cy="6" r="1" fill="srgba(99.4766%,92.9824%,0.578317%,1)"/>
  <circle cx="8" cy="6" r="1" fill="srgba(99.8581%,98.0789%,0.157168%,1)"/>
  <circle cx="9" cy="6" r="1" fill="srgba(95.3964%,38.3886%,5.08888%,1)"/>
  <circle cx="10" cy="6" r="1" fill="srgba(92.4651%,0%,8.32837%,1)"/>
  <circle cx="11" cy="6" r="1" fill="srgba(92.5475%,0%,8.23835%,1)"/>
  <circle cx="12" cy="6" r="1" fill="srgba(236,0,21,1)"/>
  <circle cx="13" cy="6" r="1" fill="srgba(236,0,21,1)"/>
  <circle cx="14" cy="6" r="1" fill="srgba(236,0,21,1)"/>
  <circle cx="15" cy="6" r="1" fill="srgba(236,0,21,1)"/>
  <circle cx="0" cy="7" r="1" fill="srgba(236,0,21,1)"/>
  <circle cx="1" cy="7" r="1" fill="srgba(236,0,21,1)"/>
  <circle cx="2" cy="7" r="1" fill="srgba(92.5444%,0%,8.23987%,1)"/>
  <circle cx="3" cy="7" r="1" fill="srgba(92.575%,0.341802%,8.20783%,1)"/>
  <circle cx="4" cy="7" r="1" fill="srgba(94.1665%,21.6922%,6.44846%,1)"/>
  <circle cx="5" cy="7" r="1" fill="srgba(98.1674%,75.3887%,2.02792%,1)"/>
  <circle cx="6" cy="7" r="1" fill="srgba(99.9878%,99.8444%,0.0122072%,1)"/>
  <circle cx="7" cy="7" r="1" fill="yellow"/>
  <circle cx="8" cy="7" r="1" fill="yellow"/>
  <circle cx="9" cy="7" r="1" fill="srgba(99.0356%,87.0314%,1.06508%,1)"/>
  <circle cx="10" cy="7" r="1" fill="srgba(94.0841%,20.9735%,6.53696%,1)"/>
  <circle cx="11" cy="7" r="1" fill="srgba(92.4559%,0%,8.33906%,1)"/>
  <circle cx="12" cy="7" r="1" fill="srgba(92.5505%,0%,8.23377%,1)"/>
  <circle cx="13" cy="7" r="1" fill="srgba(236,0,21,1)"/>
  <circle cx="14" cy="7" r="1" fill="srgba(236,0,21,1)"/>
  <circle cx="15" cy="7" r="1" fill="srgba(236,0,21,1)"/>
  <circle cx="0" cy="8" r="1" fill="srgba(236,0,21,1)"/>
  <circle cx="1" cy="8" r="1" fill="srgba(236,0,21,1)"/>
  <circle cx="2" cy="8" r="1" fill="srgba(236,0,21,1)"/>
  <circle cx="3" cy="8" r="1" fill="srgba(92.5475%,0%,8.23682%,1)"/>
  <circle cx="4" cy="8" r="1" fill="srgba(92.4529%,0%,8.34058%,1)"/>
  <circle cx="5" cy="8" r="1" fill="srgba(93.2876%,10.2892%,7.41894%,1)"/>
  <circle cx="6" cy="8" r="1" fill="srgba(98.3246%,77.4945%,1.85245%,1)"/>
  <circle cx="7" cy="8" r="1" fill="yellow"/>
  <circle cx="8" cy="8" r="1" fill="yellow"/>
  <circle cx="9" cy="8" r="1" fill="yellow"/>
  <circle cx="10" cy="8" r="1" fill="srgba(98.0911%,74.3709%,2.1088%,1)"/>
  <circle cx="11" cy="8" r="1" fill="srgba(93.2372%,9.75967%,7.47387%,1)"/>
  <circle cx="12" cy="8" r="1" fill="srgba(92.491%,0%,8.30091%,1)"/>
  <circle cx="13" cy="8" r="1" fill="srgba(92.5505%,0%,8.23377%,1)"/>
  <circle cx="14" cy="8" r="1" fill="srgba(236,0,21,1)"/>
  <circle cx="15" cy="8" r="1" fill="srgba(236,0,21,1)"/>
  <circle cx="0" cy="9" r="1" fill="srgba(236,0,21,1)"/>
  <circle cx="1" cy="9" r="1" fill="srgba(236,0,21,1)"/>
  <circle cx="2" cy="9" r="1" fill="srgba(236,0,21,1)"/>
  <circle cx="3" cy="9" r="1" fill="srgba(236,0,21,1)"/>
  <circle cx="4" cy="9" r="1" fill="srgba(92.5063%,0%,8.2826%,1)"/>
  <circle cx="5" cy="9" r="1" fill="srgba(93.1807%,8.90974%,7.53643%,1)"/>
  <circle cx="6" cy="9" r="1" fill="srgba(98.703%,82.6886%,1.43435%,1)"/>
  <circle cx="7" cy="9" r="1" fill="srgba(99.6872%,95.8038%,0.344854%,1)"/>
  <circle cx="8" cy="9" r="1" fill="srgba(99.3866%,91.7662%,0.677501%,1)"/>
  <circle cx="9" cy="9" r="1" fill="yellow"/>
  <circle cx="10" cy="9" r="1" fill="srgba(99.9969%,99.9588%,0.0030518%,1)"/>
  <circle cx="11" cy="9" r="1" fill="srgba(96.8856%,58.2269%,3.44091%,1)"/>
  <circle cx="12" cy="9" r="1" fill="srgba(92.7642%,3.05486%,7.99725%,1)"/>
  <circle cx="13" cy="9" r="1" fill="srgba(92.5307%,0%,8.25513%,1)"/>
  <circle cx="14" cy="9" r="1" fill="srgba(236,0,21,1)"/>
  <circle cx="15" cy="9" r="1" fill="srgba(236,0,21,1)"/>
  <circle cx="0" cy="10" r="1" fill="srgba(236,0,21,1)"/>
  <circle cx="1" cy="10" r="1" fill="srgba(236,0,21,1)"/>
  <circle cx="2" cy="10" r="1" fill="srgba(236,0,21,1)"/>
  <circle cx="3" cy="10" r="1" fill="srgba(236,0,21,1)"/>
  <circle cx="4" cy="10" r="1" fill="srgba(92.4407%,0%,8.35584%,1)"/>
  <circle cx="5" cy="10" r="1" fill="srgba(94.6761%,28.5908%,5.88388%,1)"/>
  <circle cx="6" cy="10" r="1" fill="srgba(98.7198%,82.8061%,1.41604%,1)"/>
  <circle cx="7" cy="10" r="1" fill="srgba(95.1202%,34.4869%,5.39559%,1)"/>
  <circle cx="8" cy="10" r="1" fill="srgba(94.2504%,22.826%,6.35538%,1)"/>
  <circle cx="9" cy="10" r="1" fill="srgba(98.114%,74.6914%,2.08438%,1)"/>
  <circle cx="10" cy="10" r="1" fill="srgba(99.9863%,99.8047%,0.015259%,1)"/>
  <circle cx="11" cy="10" r="1" fill="srgba(99.7223%,96.2799%,0.306706%,1)"/>
  <circle cx="12" cy="10" r="1" fill="srgba(95.0164%,33.1106%,5.50851%,1)"/>
  <circle cx="13" cy="10" r="1" fill="srgba(92.4575%,0%,8.336%,1)"/>
  <circle cx="14" cy="10" r="1" fill="srgba(236,0,21,1)"/>
  <circle cx="15" cy="10" r="1" fill="srgba(236,0,21,1)"/>
  <circle cx="0" cy="11" r="1" fill="srgba(236,0,21,1)"/>
  <circle cx="1" cy="11" r="1" fill="srgba(236,0,21,1)"/>
  <circle cx="2" cy="11" r="1" fill="srgba(236,0,21,1)"/>
  <circle cx="3" cy="11" r="1" fill="srgba(236,0,21,1)"/>
  <circle cx="4" cy="11" r="1" fill="srgba(92.5185%,0%,8.26886%,1)"/>
  <circle cx="5" cy="11" r="1" fill="srgba(94.5647%,27.0481%,6.00748%,1)"/>
  <circle cx="6" cy="11" r="1" fill="srgba(94.0475%,20.2197%,6.57969%,1)"/>
  <circle cx="7" cy="11" r="1" fill="srgba(92.4666%,0%,8.32532%,1)"/>
  <circle cx="8" cy="11" r="1" fill="srgba(92.4437%,0%,8.35126%,1)"/>
  <circle cx="9" cy="11" r="1" fill="srgba(93.1991%,9.06538%,7.51659%,1)"/>
  <circle cx="10" cy="11" r="1" fill="srgba(96.8032%,57.0657%,3.53399%,1)"/>
  <circle cx="11" cy="11" r="1" fill="srgba(97.38%,64.8295%,2.89769%,1)"/>
  <circle cx="12" cy="11" r="1" fill="srgba(93.55%,13.4249%,7.13054%,1)"/>
  <circle cx="13" cy="11" r="1" fill="srgba(92.5093%,0%,8.27802%,1)"/>
  <circle cx="14" cy="11" r="1" fill="srgba(236,0,21,1)"/>
  <circle cx="15" cy="11" r="1" fill="srgba(236,0,21,1)"/>
  <circle cx="0" cy="12" r="1" fill="srgba(236,0,21,1)"/>
  <circle cx="1" cy="12" r="1" fill="srgba(236,0,21,1)"/>
  <circle cx="2" cy="12" r="1" fill="srgba(236,0,21,1)"/>
  <circle cx="3" cy="12" r="1" fill="srgba(236,0,21,1)"/>
  <circle cx="4" cy="12" r="1" fill="srgba(92.5566%,0.0869764%,8.22614%,1)"/>
  <circle cx="5" cy="12" r="1" fill="srgba(92.6055%,1.16274%,8.17273%,1)"/>
  <circle cx="6" cy="12" r="1" fill="srgba(92.491%,0.0793469%,8.29938%,1)"/>
  <circle cx="7" cy="12" r="1" fill="srgba(92.5475%,0%,8.23682%,1)"/>
  <circle cx="8" cy="12" r="1" fill="srgba(92.5292%,0%,8.25666%,1)"/>
  <circle cx="9" cy="12" r="1" fill="srgba(92.8511%,4.31067%,7.90112%,1)"/>
  <circle cx="10" cy="12" r="1" fill="srgba(95.4452%,38.938%,5.02937%,1)"/>
  <circle cx="11" cy="12" r="1" fill="srgba(93.2982%,10.6203%,7.4052%,1)"/>
  <circle cx="12" cy="12" r="1" fill="srgba(92.459%,0%,8.336%,1)"/>
  <circle cx="13" cy="12" r="1" fill="srgba(92.5505%,0%,8.23377%,1)"/>
  <circle cx="14" cy="12" r="1" fill="srgba(236,0,21,1)"/>
  <circle cx="15" cy="12" r="1" fill="srgba(236,0,21,1)"/>
  <circle cx="0" cy="13" r="1" fill="srgba(236,0,21,1)"/>
  <circle cx="1" cy="13" r="1" fill="srgba(236,0,21,1)"/>
  <circle cx="2" cy="13" r="1" fill="srgba(236,0,21,1)"/>
  <circle cx="3" cy="13" r="1" fill="srgba(236,0,21,1)"/>
  <circle cx="4" cy="13" r="1" fill="srgba(236,0,21,1)"/>
  <circle cx="5" cy="13" r="1" fill="srgba(92.5444%,0%,8.23987%,1)"/>
  <circle cx="6" cy="13" r="1" fill="srgba(236,0,21,1)"/>
  <circle cx="7" cy="13" r="1" fill="srgba(236,0,21,1)"/>
  <circle cx="8" cy="13" r="1" fill="srgba(92.5017%,0%,8.2887%,1)"/>
  <circle cx="9" cy="13" r="1" fill="srgba(93.3791%,11.1223%,7.31823%,1)"/>
  <circle cx="10" cy="13" r="1" fill="srgba(97.5998%,67.9713%,2.64591%,1)"/>
  <circle cx="11" cy="13" r="1" fill="srgba(93.2265%,9.35836%,7.4815%,1)"/>
  <circle cx="12" cy="13" r="1" fill="srgba(92.5093%,0%,8.27955%,1)"/>
  <circle cx="13" cy="13" r="1" fill="srgba(236,0,21,1)"/>
  <circle cx="14" cy="13" r="1" fill="srgba(236,0,21,1)"/>
  <circle cx="15" cy="13" r="1" fill="srgba(236,0,21,1)"/>
  <circle cx="0" cy="14" r="1" fill="srgba(236,0,21,1)"/>
  <circle cx="1" cy="14" r="1" fill="srgba(236,0,21,1)"/>
  <circle cx="2" cy="14" r="1" fill="srgba(236,0,21,1)"/>
  <circle cx="3" cy="14" r="1" fill="srgba(236,0,21,1)"/>
  <circle cx="4" cy="14" r="1" fill="srgba(236,0,21,1)"/>
  <circle cx="5" cy="14" r="1" fill="srgba(236,0,21,1)"/>
  <circle cx="6" cy="14" r="1" fill="srgba(236,0,21,1)"/>
  <circle cx="7" cy="14" r="1" fill="srgba(236,0,21,1)"/>
  <circle cx="8" cy="14" r="1" fill="srgba(92.5429%,0%,8.24292%,1)"/>
  <circle cx="9" cy="14" r="1" fill="srgba(92.6955%,2.04929%,8.07507%,1)"/>
  <circle cx="10" cy="14" r="1" fill="srgba(96.0494%,47.1153%,4.3595%,1)"/>
  <circle cx="11" cy="14" r="1" fill="srgba(93.286%,9.91836%,7.41588%,1)"/>
  <circle cx="12" cy="14" r="1" fill="srgba(92.5093%,0%,8.27955%,1)"/>
  <circle cx="13" cy="14" r="1" fill="srgba(236,0,21,1)"/>
  <circle cx="14" cy="14" r="1" fill="srgba(236,0,21,1)"/>
  <circle cx="15" cy="14" r="1" fill="srgba(236,0,21,1)"/>
  <circle cx="0" cy="15" r="1" fill="srgba(236,0,21,1)"/>
  <circle cx="1" cy="15" r="1" fill="srgba(236,0,21,1)"/>
  <circle cx="2" cy="15" r="1" fill="srgba(236,0,21,1)"/>
  <circle cx="3" cy="15" r="1" fill="srgba(236,0,21,1)"/>
  <circle cx="4" cy="15" r="1" fill="srgba(236,0,21,1)"/>
  <circle cx="5" cy="15" r="1" fill="srgba(236,0,21,1)"/>
  <circle cx="6" cy="15" r="1" fill="srgba(236,0,21,1)"/>
  <circle cx="7" cy="15" r="1" fill="srgba(236,0,21,1)"/>
  <circle cx="8" cy="15" r="1" fill="srgba(236,0,21,1)"/>
  <circle cx="9" cy="15" r="1" fill="srgba(92.5048%,0%,8.28412%,1)"/>
  <circle cx="10" cy="15" r="1" fill="srgba(94.255%,23.2105%,6.34318%,1)"/>
  <circle cx="11" cy="15" r="1" fill="srgba(93.1609%,8.23377%,7.55474%,1)"/>
  <circle cx="12" cy="15" r="1" fill="srgba(92.5124%,0%,8.27497%,1)"/>
  <circle cx="13" cy="15" r="1" fill="srgba(236,0,21,1)"/>
  <circle cx="14" cy="15" r="1" fill="srgba(236,0,21,1)"/>
  <circle cx="15" cy="15" r="1" fill="srgba(236,0,21,1)"/>
</svg>
