<?xml version="1.0" standalone="no"?>
<!DOCTYPE svg PUBLIC "-//W3C//DTD SVG 20010904//EN"
  "http://www.w3.org/TR/2001/REC-SVG-20010904/DTD/svg10.dtd">
<svg width="16" height="16">
  <circle cx="0" cy="0" r="1" fill="srgba(46.6453%,21.3764%,0.373846%,1)"/>
  <circle cx="1" cy="0" r="1" fill="srgba(64.6525%,1.26955%,0.157168%,1)"/>
  <circle cx="2" cy="0" r="1" fill="srgba(80.9308%,0%,0.00915541%,1)"/>
  <circle cx="3" cy="0" r="1" fill="srgba(81.21%,0%,0%,1)"/>
  <circle cx="4" cy="0" r="1" fill="srgba(80.7706%,0%,0%,1)"/>
  <circle cx="5" cy="0" r="1" fill="srgba(206,0,0,1)"/>
  <circle cx="6" cy="0" r="1" fill="srgba(206,0,0,1)"/>
  <circle cx="7" cy="0" r="1" fill="srgba(206,0,0,1)"/>
  <circle cx="8" cy="0" r="1" fill="srgba(206,0,0,1)"/>
  <circle cx="9" cy="0" r="1" fill="srgba(206,0,0,1)"/>
  <circle cx="10" cy="0" r="1" fill="srgba(206,0,0,1)"/>
  <circle cx="11" cy="0" r="1" fill="srgba(206,0,0,1)"/>
  <circle cx="12" cy="0" r="1" fill="srgba(206,0,0,1)"/>
  <circle cx="13" cy="0" r="1" fill="srgba(206,0,0,1)"/>
  <circle cx="14" cy="0" r="1" fill="srgba(206,0,0,1)"/>
  <circle cx="15" cy="0" r="1" fill="srgba(80.7919%,0.030518%,0.030518%,1)"/>
  <circle cx="0" cy="1" r="1" fill="srgba(71.0857%,71.5358%,0.015259%,1)"/>
  <circle cx="1" cy="1" r="1" fill="srgba(58.6633%,47.808%,0.0823987%,1)"/>
  <circle cx="2" cy="1" r="1" fill="srgba(54.992%,8.41993%,0.0656138%,1)"/>
  <circle cx="3" cy="1" r="1" fill="srgba(75.2682%,0%,0.0106813%,1)"/>
  <circle cx="4" cy="1" r="1" fill="srgba(81.68%,0%,0%,1)"/>
  <circle cx="5" cy="1" r="1" fill="srgba(80.8484%,0%,0%,1)"/>
  <circle cx="6" cy="1" r="1" fill="srgba(80.7813%,0%,0%,1)"/>
  <circle cx="7" cy="1" r="1" fill="srgba(206,0,0,1)"/>
  <circle cx="8" cy="1" r="1" fill="srgba(206,0,0,1)"/>
  <circle cx="9" cy="1" r="1" fill="srgba(206,0,0,1)"/>
  <circle cx="10" cy="1" r="1" fill="srgba(206,0,0,1)"/>
  <circle cx="11" cy="1" r="1" fill="srgba(206,0,0,1)"/>
  <circle cx="12" cy="1" r="1" fill="srgba(206,0,0,1)"/>
  <circle cx="13" cy="1" r="1" fill="srgba(206,0,0,1)"/>
  <circle cx="14" cy="1" r="1" fill="srgba(206,0,0,1)"/>
  <circle cx="15" cy="1" r="1" fill="srgba(80.7919%,0.030518%,0.030518%,1)"/>
  <circle cx="0" cy="2" r="1" fill="srgba(12.6238%,12.6223%,0%,1)"/>
  <circle cx="1" cy="2" r="1" fill="srgba(50.2495%,50.9743%,0%,1)"/>
  <circle cx="2" cy="2" r="1" fill="srgba(67.5029%,66.4912%,0.00915541%,1)"/>
  <circle cx="3" cy="2" r="1" fill="srgba(52.0516%,28.0568%,0.015259%,1)"/>
  <circle cx="4" cy="2" r="1" fill="srgba(63.6088%,1.60372%,0.0030518%,1)"/>
  <circle cx="5" cy="2" r="1" fill="srgba(80.1678%,0%,0%,1)"/>
  <circle cx="6" cy="2" r="1" fill="srgba(81.3016%,0%,0%,1)"/>
  <circle cx="7" cy="2" r="1" fill="srgba(80.7736%,0%,0%,1)"/>
  <circle cx="8" cy="2" r="1" fill="srgba(206,0,0,1)"/>
  <circle cx="9" cy="2" r="1" fill="srgba(206,0,0,1)"/>
  <circle cx="10" cy="2" r="1" fill="srgba(206,0,0,1)"/>
  <circle cx="11" cy="2" r="1" fill="srgba(206,0,0,1)"/>
  <circle cx="12" cy="2" r="1" fill="srgba(206,0,0,1)"/>
  <circle cx="13" cy="2" r="1" fill="srgba(206,0,0,1)"/>
  <circle cx="14" cy="2" r="1" fill="srgba(206,0,0,1)"/>
  <circle cx="15" cy="2" r="1" fill="srgba(80.7919%,0.030518%,0.030518%,1)"/>
  <circle cx="0" cy="3" r="1" fill="black"/>
  <circle cx="1" cy="3" r="1" fill="srgba(1.02693%,1.0193%,0%,1)"/>
  <circle cx="2" cy="3" r="1" fill="srgba(23.8941%,24.036%,0%,1)"/>
  <circle cx="3" cy="3" r="1" fill="srgba(61.8265%,62.9236%,0%,1)"/>
  <circle cx="4" cy="3" r="1" fill="srgba(59.8779%,52.4865%,0.0015259%,1)"/>
  <circle cx="5" cy="3" r="1" fill="srgba(53.138%,12.0394%,0%,1)"/>
  <circle cx="6" cy="3" r="1" fill="srgba(72.9671%,0%,0%,1)"/>
  <circle cx="7" cy="3" r="1" fill="srgba(81.6541%,0%,0%,1)"/>
  <circle cx="8" cy="3" r="1" fill="srgba(80.911%,0%,0%,1)"/>
  <circle cx="9" cy="3" r="1" fill="srgba(80.7782%,0%,0%,1)"/>
  <circle cx="10" cy="3" r="1" fill="srgba(206,0,0,1)"/>
  <circle cx="11" cy="3" r="1" fill="srgba(206,0,0,1)"/>
  <circle cx="12" cy="3" r="1" fill="srgba(206,0,0,1)"/>
  <circle cx="13" cy="3" r="1" fill="srgba(206,0,0,1)"/>
  <circle cx="14" cy="3" r="1" fill="srgba(206,0,0,1)"/>
  <circle cx="15" cy="3" r="1" fill="srgba(80.7919%,0.030518%,0.030518%,1)"/>
  <circle cx="0" cy="4" r="1" fill="black"/>
  <circle cx="1" cy="4" r="1" fill="black"/>
  <circle cx="2" cy="4" r="1" fill="black"/>
  <circle cx="3" cy="4" r="1" fill="srgba(5.45968%,5.449%,0%,1)"/>
  <circle cx="4" cy="4" r="1" fill="srgba(39.3271%,39.8886%,0%,1)"/>
  <circle cx="5" cy="4" r="1" fill="srgba(64.5487%,64.4968%,0%,1)"/>
  <circle cx="6" cy="4" r="1" fill="srgba(52.8969%,33.4813%,0%,1)"/>
  <circle cx="7" cy="4" r="1" fill="srgba(60.8148%,3.09758%,0%,1)"/>
  <circle cx="8" cy="4" r="1" fill="srgba(79.1119%,0%,0%,1)"/>
  <circle cx="9" cy="4" r="1" fill="srgba(81.4496%,0%,0%,1)"/>
  <circle cx="10" cy="4" r="1" fill="srgba(80.7813%,0%,0%,1)"/>
  <circle cx="11" cy="4" r="1" fill="srgba(206,0,0,1)"/>
  <circle cx="12" cy="4" r="1" fill="srgba(206,0,0,1)"/>
  <circle cx="13" cy="4" r="1" fill="srgba(206,0,0,1)"/>
  <circle cx="14" cy="4" r="1" fill="srgba(206,0,0,1)"/>
  <circle cx="15" cy="4" r="1" fill="srgba(80.7919%,0.030518%,0.030518%,1)"/>
  <circle cx="0" cy="5" r="1" fill="black"/>
  <circle cx="1" cy="5" r="1" fill="black"/>
  <circle cx="2" cy="5" r="1" fill="srgba(2.15305%,2.15305%,0%,1)"/>
  <circle cx="3" cy="5" r="1" fill="srgba(4.68452%,4.68452%,0%,1)"/>
  <circle cx="4" cy="5" r="1" fill="srgba(0.726329%,0.721752%,0%,1)"/>
  <circle cx="5" cy="5" r="1" fill="srgba(14.9432%,15.0179%,0%,1)"/>
  <circle cx="6" cy="5" r="1" fill="srgba(52.6711%,53.7331%,0%,1)"/>
  <circle cx="7" cy="5" r="1" fill="srgba(59.9374%,55.024%,0%,1)"/>
  <circle cx="8" cy="5" r="1" fill="srgba(52.0882%,16.2356%,0%,1)"/>
  <circle cx="9" cy="5" r="1" fill="srgba(70.457%,0.0503548%,0%,1)"/>
  <circle cx="10" cy="5" r="1" fill="srgba(81.4832%,0%,0%,1)"/>
  <circle cx="11" cy="5" r="1" fill="srgba(81.2863%,0%,0%,1)"/>
  <circle cx="12" cy="5" r="1" fill="srgba(81.1948%,0%,0%,1)"/>
  <circle cx="13" cy="5" r="1" fill="srgba(81.1978%,0%,0%,1)"/>
  <circle cx="14" cy="5" r="1" fill="srgba(81.1978%,0%,0%,1)"/>
  <circle cx="15" cy="5" r="1" fill="srgba(81.2055%,0.030518%,0.030518%,1)"/>
  <circle cx="0" cy="6" r="1" fill="black"/>
  <circle cx="1" cy="6" r="1" fill="srgba(7.36553%,7.36553%,0%,1)"/>
  <circle cx="2" cy="6" r="1" fill="srgba(29.8665%,29.8665%,0%,1)"/>
  <circle cx="3" cy="6" r="1" fill="srgba(28.8319%,28.8319%,0%,1)"/>
  <circle cx="4" cy="6" r="1" fill="srgba(26.833%,26.833%,0%,1)"/>
  <circle cx="5" cy="6" r="1" fill="srgba(3.37224%,3.37224%,0%,1)"/>
  <circle cx="6" cy="6" r="1" fill="srgba(1.74716%,1.73495%,0%,1)"/>
  <circle cx="7" cy="6" r="1" fill="srgba(27.9072%,28.3146%,0%,1)"/>
  <circle cx="8" cy="6" r="1" fill="srgba(58.5275%,59.1012%,0%,1)"/>
  <circle cx="9" cy="6" r="1" fill="srgba(52.7794%,37.5219%,0%,1)"/>
  <circle cx="10" cy="6" r="1" fill="srgba(57.6715%,4.78065%,0%,1)"/>
  <circle cx="11" cy="6" r="1" fill="srgba(71.9554%,0%,0%,1)"/>
  <circle cx="12" cy="6" r="1" fill="srgba(72.6131%,0%,0%,1)"/>
  <circle cx="13" cy="6" r="1" fill="srgba(72.5628%,0%,0%,1)"/>
  <circle cx="14" cy="6" r="1" fill="srgba(72.5628%,0%,0%,1)"/>
  <circle cx="15" cy="6" r="1" fill="srgba(72.5689%,0%,0.0274662%,1)"/>
  <circle cx="0" cy="7" r="1" fill="black"/>
  <circle cx="1" cy="7" r="1" fill="srgba(25.0355%,25.0355%,0%,1)"/>
  <circle cx="2" cy="7" r="1" fill="srgba(15.9167%,15.9167%,0%,1)"/>
  <circle cx="3" cy="7" r="1" fill="srgba(0.132753%,0.132753%,0%,1)"/>
  <circle cx="4" cy="7" r="1" fill="srgba(25.0126%,25.0126%,0%,1)"/>
  <circle cx="5" cy="7" r="1" fill="srgba(66,66,0,1)"/>
  <circle cx="6" cy="7" r="1" fill="srgba(8.54658%,8.54658%,0%,1)"/>
  <circle cx="7" cy="7" r="1" fill="srgba(8.82734%,8.82429%,0%,1)"/>
  <circle cx="8" cy="7" r="1" fill="srgba(18.8342%,18.8647%,0%,1)"/>
  <circle cx="9" cy="7" r="1" fill="srgba(53.8842%,54.8104%,0%,1)"/>
  <circle cx="10" cy="7" r="1" fill="srgba(65.5589%,62.5147%,0%,1)"/>
  <circle cx="11" cy="7" r="1" fill="srgba(50.8003%,37.9171%,0%,1)"/>
  <circle cx="12" cy="7" r="1" fill="srgba(49.9519%,36.2371%,0%,1)"/>
  <circle cx="13" cy="7" r="1" fill="srgba(50.0069%,36.3455%,0%,1)"/>
  <circle cx="14" cy="7" r="1" fill="srgba(50.0069%,36.3455%,0%,1)"/>
  <circle cx="15" cy="7" r="1" fill="srgba(50.013%,36.3546%,0.0167849%,1)"/>
  <circle cx="0" cy="8" r="1" fill="black"/>
  <circle cx="1" cy="8" r="1" fill="srgba(20.7889%,20.7889%,0%,1)"/>
  <circle cx="2" cy="8" r="1" fill="srgba(32.3674%,32.3674%,0%,1)"/>
  <circle cx="3" cy="8" r="1" fill="srgba(55.9335%,55.9335%,0%,1)"/>
  <circle cx="4" cy="8" r="1" fill="srgba(77.3663%,77.3663%,0%,1)"/>
  <circle cx="5" cy="8" r="1" fill="srgba(87.2694%,87.2694%,0%,1)"/>
  <circle cx="6" cy="8" r="1" fill="srgba(84.4663%,84.4663%,0%,1)"/>
  <circle cx="7" cy="8" r="1" fill="srgba(85.2399%,85.2399%,0%,1)"/>
  <circle cx="8" cy="8" r="1" fill="srgba(85.2567%,85.2567%,0%,1)"/>
  <circle cx="9" cy="8" r="1" fill="srgba(86.4195%,86.4134%,0%,1)"/>
  <circle cx="10" cy="8" r="1" fill="srgba(96.9375%,97.0321%,0%,1)"/>
  <circle cx="11" cy="8" r="1" fill="srgba(99.1943%,99.9481%,0%,1)"/>
  <circle cx="12" cy="8" r="1" fill="srgba(98.8586%,99.7375%,0%,1)"/>
  <circle cx="13" cy="8" r="1" fill="srgba(98.8693%,99.7406%,0%,1)"/>
  <circle cx="14" cy="8" r="1" fill="srgba(98.8708%,99.7421%,0%,1)"/>
  <circle cx="15" cy="8" r="1" fill="srgba(98.851%,99.7238%,0.0015259%,1)"/>
  <circle cx="0" cy="9" r="1" fill="black"/>
  <circle cx="1" cy="9" r="1" fill="srgba(1.78531%,1.78531%,0%,1)"/>
  <circle cx="2" cy="9" r="1" fill="srgba(23.6927%,23.6927%,0%,1)"/>
  <circle cx="3" cy="9" r="1" fill="srgba(63.4592%,63.4592%,0%,1)"/>
  <circle cx="4" cy="9" r="1" fill="srgba(96.2768%,96.2768%,0%,1)"/>
  <circle cx="5" cy="9" r="1" fill="yellow"/>
  <circle cx="6" cy="9" r="1" fill="yellow"/>
  <circle cx="7" cy="9" r="1" fill="yellow"/>
  <circle cx="8" cy="9" r="1" fill="yellow"/>
  <circle cx="9" cy="9" r="1" fill="yellow"/>
  <circle cx="10" cy="9" r="1" fill="yellow"/>
  <circle cx="11" cy="9" r="1" fill="yellow"/>
  <circle cx="12" cy="9" r="1" fill="yellow"/>
  <circle cx="13" cy="9" r="1" fill="yellow"/>
  <circle cx="14" cy="9" r="1" fill="yellow"/>
  <circle cx="15" cy="9" r="1" fill="srgba(99.9954%,99.9969%,0%,1)"/>
  <circle cx="0" cy="10" r="1" fill="black"/>
  <circle cx="1" cy="10" r="1" fill="black"/>
  <circle cx="2" cy="10" r="1" fill="srgba(3.82238%,3.82238%,0%,1)"/>
  <circle cx="3" cy="10" r="1" fill="srgba(8.33295%,8.33295%,0%,1)"/>
  <circle cx="4" cy="10" r="1" fill="srgba(58.999%,58.999%,0%,1)"/>
  <circle cx="5" cy="10" r="1" fill="yellow"/>
  <circle cx="6" cy="10" r="1" fill="yellow"/>
  <circle cx="7" cy="10" r="1" fill="yellow"/>
  <circle cx="8" cy="10" r="1" fill="yellow"/>
  <circle cx="9" cy="10" r="1" fill="yellow"/>
  <circle cx="10" cy="10" r="1" fill="yellow"/>
  <circle cx="11" cy="10" r="1" fill="yellow"/>
  <circle cx="12" cy="10" r="1" fill="yellow"/>
  <circle cx="13" cy="10" r="1" fill="yellow"/>
  <circle cx="14" cy="10" r="1" fill="yellow"/>
  <circle cx="15" cy="10" r="1" fill="yellow"/>
  <circle cx="0" cy="11" r="1" fill="black"/>
  <circle cx="1" cy="11" r="1" fill="black"/>
  <circle cx="2" cy="11" r="1" fill="srgba(2.94957%,2.94957%,0%,1)"/>
  <circle cx="3" cy="11" r="1" fill="srgba(8.79225%,8.79835%,0%,1)"/>
  <circle cx="4" cy="11" r="1" fill="srgba(49.2073%,48.9525%,0%,1)"/>
  <circle cx="5" cy="11" r="1" fill="srgba(96.1288%,95.7855%,0%,1)"/>
  <circle cx="6" cy="11" r="1" fill="yellow"/>
  <circle cx="7" cy="11" r="1" fill="yellow"/>
  <circle cx="8" cy="11" r="1" fill="yellow"/>
  <circle cx="9" cy="11" r="1" fill="yellow"/>
  <circle cx="10" cy="11" r="1" fill="yellow"/>
  <circle cx="11" cy="11" r="1" fill="yellow"/>
  <circle cx="12" cy="11" r="1" fill="yellow"/>
  <circle cx="13" cy="11" r="1" fill="yellow"/>
  <circle cx="14" cy="11" r="1" fill="yellow"/>
  <circle cx="15" cy="11" r="1" fill="yellow"/>
  <circle cx="0" cy="12" r="1" fill="black"/>
  <circle cx="1" cy="12" r="1" fill="srgba(0.979629%,0.982681%,0%,1)"/>
  <circle cx="2" cy="12" r="1" fill="srgba(25.9068%,25.8381%,0%,1)"/>
  <circle cx="3" cy="12" r="1" fill="srgba(64.7196%,64.1627%,0%,1)"/>
  <circle cx="4" cy="12" r="1" fill="srgba(53.022%,57.3526%,2.67338%,1)"/>
  <circle cx="5" cy="12" r="1" fill="srgba(54.522%,67.5578%,7.86755%,1)"/>
  <circle cx="6" cy="12" r="1" fill="srgba(97.9614%,99.4659%,0.909438%,1)"/>
  <circle cx="7" cy="12" r="1" fill="yellow"/>
  <circle cx="8" cy="12" r="1" fill="yellow"/>
  <circle cx="9" cy="12" r="1" fill="yellow"/>
  <circle cx="10" cy="12" r="1" fill="yellow"/>
  <circle cx="11" cy="12" r="1" fill="yellow"/>
  <circle cx="12" cy="12" r="1" fill="yellow"/>
  <circle cx="13" cy="12" r="1" fill="yellow"/>
  <circle cx="14" cy="12" r="1" fill="yellow"/>
  <circle cx="15" cy="12" r="1" fill="yellow"/>
  <circle cx="0" cy="13" r="1" fill="srgba(12.9046%,12.9046%,0%,1)"/>
  <circle cx="1" cy="13" r="1" fill="srgba(51.075%,50.7042%,0%,1)"/>
  <circle cx="2" cy="13" r="1" fill="srgba(68.0049%,68.4611%,0.466926%,1)"/>
  <circle cx="3" cy="13" r="1" fill="srgba(36.7697%,49.1203%,7.46471%,1)"/>
  <circle cx="4" cy="13" r="1" fill="srgba(19.9786%,52.5673%,19.6796%,1)"/>
  <circle cx="5" cy="13" r="1" fill="srgba(27.4525%,66.9917%,23.8727%,1)"/>
  <circle cx="6" cy="13" r="1" fill="srgba(75.6741%,89.2271%,8.18341%,1)"/>
  <circle cx="7" cy="13" r="1" fill="yellow"/>
  <circle cx="8" cy="13" r="1" fill="yellow"/>
  <circle cx="9" cy="13" r="1" fill="yellow"/>
  <circle cx="10" cy="13" r="1" fill="yellow"/>
  <circle cx="11" cy="13" r="1" fill="yellow"/>
  <circle cx="12" cy="13" r="1" fill="yellow"/>
  <circle cx="13" cy="13" r="1" fill="yellow"/>
  <circle cx="14" cy="13" r="1" fill="yellow"/>
  <circle cx="15" cy="13" r="1" fill="yellow"/>
  <circle cx="0" cy="14" r="1" fill="srgba(71.5404%,71.3161%,0.0030518%,1)"/>
  <circle cx="1" cy="14" r="1" fill="srgba(50.9026%,56.6094%,3.53094%,1)"/>
  <circle cx="2" cy="14" r="1" fill="srgba(24.4572%,47.9103%,14.2138%,1)"/>
  <circle cx="3" cy="14" r="1" fill="srgba(24.6525%,63.1922%,23.27%,1)"/>
  <circle cx="4" cy="14" r="1" fill="srgba(25.1606%,67.3075%,25.4398%,1)"/>
  <circle cx="5" cy="14" r="1" fill="srgba(24.21%,66.3127%,25.4139%,1)"/>
  <circle cx="6" cy="14" r="1" fill="srgba(40.1495%,73.3623%,20.0458%,1)"/>
  <circle cx="7" cy="14" r="1" fill="srgba(91.6365%,96.2783%,2.7985%,1)"/>
  <circle cx="8" cy="14" r="1" fill="yellow"/>
  <circle cx="9" cy="14" r="1" fill="yellow"/>
  <circle cx="10" cy="14" r="1" fill="yellow"/>
  <circle cx="11" cy="14" r="1" fill="yellow"/>
  <circle cx="12" cy="14" r="1" fill="yellow"/>
  <circle cx="13" cy="14" r="1" fill="yellow"/>
  <circle cx="14" cy="14" r="1" fill="yellow"/>
  <circle cx="15" cy="14" r="1" fill="yellow"/>
  <circle cx="0" cy="15" r="1" fill="srgba(29.1676%,42.2507%,8.40467%,1)"/>
  <circle cx="1" cy="15" r="1" fill="srgba(20.2838%,53.5149%,20.3494%,1)"/>
  <circle cx="2" cy="15" r="1" fill="srgba(26.2608%,67.3777%,24.9638%,1)"/>
  <circle cx="3" cy="15" r="1" fill="srgba(27.0695%,67.8126%,24.7288%,1)"/>
  <circle cx="4" cy="15" r="1" fill="srgba(25.0874%,66.6545%,25.2308%,1)"/>
  <circle cx="5" cy="15" r="1" fill="srgba(25.1545%,66.6926%,25.214%,1)"/>
  <circle cx="6" cy="15" r="1" fill="srgba(24.8829%,66.5721%,25.3056%,1)"/>
  <circle cx="7" cy="15" r="1" fill="srgba(63.3707%,83.7003%,12.3796%,1)"/>
  <circle cx="8" cy="15" r="1" fill="yellow"/>
  <circle cx="9" cy="15" r="1" fill="srgba(99.9359%,99.9741%,0.0289921%,1)"/>
  <circle cx="10" cy="15" r="1" fill="srgba(99.9222%,99.9695%,0.030518%,1)"/>
  <circle cx="11" cy="15" r="1" fill="srgba(99.9863%,99.9969%,0.0030518%,1)"/>
  <circle cx="12" cy="15" r="1" fill="srgba(99.9924%,100%,0%,1)"/>
  <circle cx="13" cy="15" r="1" fill="srgba(99.9924%,100%,0%,1)"/>
  <circle cx="14" cy="15" r="1" fill="srgba(99.9924%,100%,0%,1)"/>
  <circle cx="15" cy="15" r="1" fill="srgba(99.9924%,100%,0%,1)"/>
</svg>
