<?xml version="1.0" standalone="no"?>
<!DOCTYPE svg PUBLIC "-//W3C//DTD SVG 20010904//EN"
  "http://www.w3.org/TR/2001/REC-SVG-20010904/DTD/svg10.dtd">
<svg width="16" height="16">
  <circle cx="0" cy="0" r="1" fill="srgba(0,0,107,1)"/>
  <circle cx="1" cy="0" r="1" fill="srgba(0%,0%,41.9623%,1)"/>
  <circle cx="2" cy="0" r="1" fill="srgba(0%,0%,41.8601%,1)"/>
  <circle cx="3" cy="0" r="1" fill="srgba(13.1411%,13.1411%,49.5415%,1)"/>
  <circle cx="4" cy="0" r="1" fill="srgba(6.55833%,6.55833%,45.6626%,1)"/>
  <circle cx="5" cy="0" r="1" fill="srgba(0.476081%,0.476081%,42.153%,1)"/>
  <circle cx="6" cy="0" r="1" fill="srgba(0%,0%,42.2629%,1)"/>
  <circle cx="7" cy="0" r="1" fill="srgba(12.0607%,0%,36.8994%,1)"/>
  <circle cx="8" cy="0" r="1" fill="srgba(87.9393%,0%,5.06142%,1)"/>
  <circle cx="9" cy="0" r="1" fill="red"/>
  <circle cx="10" cy="0" r="1" fill="red"/>
  <circle cx="11" cy="0" r="1" fill="red"/>
  <circle cx="12" cy="0" r="1" fill="red"/>
  <circle cx="13" cy="0" r="1" fill="red"/>
  <circle cx="14" cy="0" r="1" fill="red"/>
  <circle cx="15" cy="0" r="1" fill="red"/>
  <circle cx="0" cy="1" r="1" fill="srgba(0%,0%,41.9593%,1)"/>
  <circle cx="1" cy="1" r="1" fill="srgba(0.0335698%,0.0335698%,41.9806%,1)"/>
  <circle cx="2" cy="1" r="1" fill="srgba(12.3873%,12.3873%,49.1493%,1)"/>
  <circle cx="3" cy="1" r="1" fill="srgba(11.3176%,11.3176%,48.5176%,1)"/>
  <circle cx="4" cy="1" r="1" fill="srgba(17.7691%,17.7691%,52.2347%,1)"/>
  <circle cx="5" cy="1" r="1" fill="srgba(7.68292%,7.68292%,46.4179%,1)"/>
  <circle cx="6" cy="1" r="1" fill="srgba(0%,0%,42.0081%,1)"/>
  <circle cx="7" cy="1" r="1" fill="srgba(12.0607%,0%,36.8994%,1)"/>
  <circle cx="8" cy="1" r="1" fill="srgba(87.9393%,0%,5.06142%,1)"/>
  <circle cx="9" cy="1" r="1" fill="red"/>
  <circle cx="10" cy="1" r="1" fill="red"/>
  <circle cx="11" cy="1" r="1" fill="red"/>
  <circle cx="12" cy="1" r="1" fill="red"/>
  <circle cx="13" cy="1" r="1" fill="red"/>
  <circle cx="14" cy="1" r="1" fill="red"/>
  <circle cx="15" cy="1" r="1" fill="red"/>
  <circle cx="0" cy="2" r="1" fill="srgba(0%,0%,42.3346%,1)"/>
  <circle cx="1" cy="2" r="1" fill="srgba(0%,0%,42.1225%,1)"/>
  <circle cx="2" cy="2" r="1" fill="srgba(8.89754%,9.27749%,47.6997%,1)"/>
  <circle cx="3" cy="2" r="1" fill="srgba(17.6349%,18.2254%,52.8603%,1)"/>
  <circle cx="4" cy="2" r="1" fill="srgba(20.5798%,21.1765%,54.5434%,1)"/>
  <circle cx="5" cy="2" r="1" fill="srgba(7.30449%,7.46929%,46.6514%,1)"/>
  <circle cx="6" cy="2" r="1" fill="srgba(0%,0%,42.4491%,1)"/>
  <circle cx="7" cy="2" r="1" fill="srgba(12.0607%,0%,37.229%,1)"/>
  <circle cx="8" cy="2" r="1" fill="srgba(87.9393%,0%,5.10567%,1)"/>
  <circle cx="9" cy="2" r="1" fill="red"/>
  <circle cx="10" cy="2" r="1" fill="red"/>
  <circle cx="11" cy="2" r="1" fill="red"/>
  <circle cx="12" cy="2" r="1" fill="red"/>
  <circle cx="13" cy="2" r="1" fill="red"/>
  <circle cx="14" cy="2" r="1" fill="red"/>
  <circle cx="15" cy="2" r="1" fill="red"/>
  <circle cx="0" cy="3" r="1" fill="srgba(13.7865%,0%,36.1761%,1)"/>
  <circle cx="1" cy="3" r="1" fill="srgba(13.4569%,0%,35.9396%,1)"/>
  <circle cx="2" cy="3" r="1" fill="srgba(19.086%,6.20584%,40.029%,1)"/>
  <circle cx="3" cy="3" r="1" fill="srgba(35.3994%,22.5696%,49.6315%,1)"/>
  <circle cx="4" cy="3" r="1" fill="srgba(30.5547%,18.5016%,47.5074%,1)"/>
  <circle cx="5" cy="3" r="1" fill="srgba(18.999%,5.97696%,39.9512%,1)"/>
  <circle cx="6" cy="3" r="1" fill="srgba(12.8634%,0%,36.2799%,1)"/>
  <circle cx="7" cy="3" r="1" fill="srgba(24.1855%,0%,31.812%,1)"/>
  <circle cx="8" cy="3" r="1" fill="srgba(89.601%,0%,4.36408%,1)"/>
  <circle cx="9" cy="3" r="1" fill="red"/>
  <circle cx="10" cy="3" r="1" fill="red"/>
  <circle cx="11" cy="3" r="1" fill="red"/>
  <circle cx="12" cy="3" r="1" fill="red"/>
  <circle cx="13" cy="3" r="1" fill="red"/>
  <circle cx="14" cy="3" r="1" fill="red"/>
  <circle cx="15" cy="3" r="1" fill="red"/>
  <circle cx="0" cy="4" r="1" fill="srgba(89.5552%,0%,4.38239%,1)"/>
  <circle cx="1" cy="4" r="1" fill="srgba(89.5201%,0%,4.10163%,1)"/>
  <circle cx="2" cy="4" r="1" fill="srgba(90.1747%,5.0248%,9.15084%,1)"/>
  <circle cx="3" cy="4" r="1" fill="srgba(89.9763%,6.64378%,10.5531%,1)"/>
  <circle cx="4" cy="4" r="1" fill="srgba(90.6676%,11.0277%,14.8165%,1)"/>
  <circle cx="5" cy="4" r="1" fill="srgba(90.1549%,4.71656%,8.84718%,1)"/>
  <circle cx="6" cy="4" r="1" fill="srgba(89.4469%,0%,4.21759%,1)"/>
  <circle cx="7" cy="4" r="1" fill="srgba(90.8156%,0%,3.85443%,1)"/>
  <circle cx="8" cy="4" r="1" fill="srgba(98.7396%,0%,0.527962%,1)"/>
  <circle cx="9" cy="4" r="1" fill="red"/>
  <circle cx="10" cy="4" r="1" fill="red"/>
  <circle cx="11" cy="4" r="1" fill="red"/>
  <circle cx="12" cy="4" r="1" fill="red"/>
  <circle cx="13" cy="4" r="1" fill="red"/>
  <circle cx="14" cy="4" r="1" fill="red"/>
  <circle cx="15" cy="4" r="1" fill="red"/>
  <circle cx="0" cy="5" r="1" fill="red"/>
  <circle cx="1" cy="5" r="1" fill="red"/>
  <circle cx="2" cy="5" r="1" fill="srgba(100%,3.57061%,3.56909%,1)"/>
  <circle cx="3" cy="5" r="1" fill="srgba(100%,6.51713%,6.50187%,1)"/>
  <circle cx="4" cy="5" r="1" fill="srgba(100%,9.8558%,9.83139%,1)"/>
  <circle cx="5" cy="5" r="1" fill="srgba(100%,3.05943%,3.05638%,1)"/>
  <circle cx="6" cy="5" r="1" fill="red"/>
  <circle cx="7" cy="5" r="1" fill="red"/>
  <circle cx="8" cy="5" r="1" fill="red"/>
  <circle cx="9" cy="5" r="1" fill="red"/>
  <circle cx="10" cy="5" r="1" fill="red"/>
  <circle cx="11" cy="5" r="1" fill="red"/>
  <circle cx="12" cy="5" r="1" fill="red"/>
  <circle cx="13" cy="5" r="1" fill="red"/>
  <circle cx="14" cy="5" r="1" fill="red"/>
  <circle cx="15" cy="5" r="1" fill="red"/>
  <circle cx="0" cy="6" r="1" fill="red"/>
  <circle cx="1" cy="6" r="1" fill="red"/>
  <circle cx="2" cy="6" r="1" fill="srgba(100%,2.22171%,2.22171%,1)"/>
  <circle cx="3" cy="6" r="1" fill="srgba(100%,5.12093%,5.12093%,1)"/>
  <circle cx="4" cy="6" r="1" fill="srgba(100%,7.26482%,7.26482%,1)"/>
  <circle cx="5" cy="6" r="1" fill="srgba(100%,1.42977%,1.42977%,1)"/>
  <circle cx="6" cy="6" r="1" fill="red"/>
  <circle cx="7" cy="6" r="1" fill="red"/>
  <circle cx="8" cy="6" r="1" fill="red"/>
  <circle cx="9" cy="6" r="1" fill="red"/>
  <circle cx="10" cy="6" r="1" fill="red"/>
  <circle cx="11" cy="6" r="1" fill="red"/>
  <circle cx="12" cy="6" r="1" fill="red"/>
  <circle cx="13" cy="6" r="1" fill="red"/>
  <circle cx="14" cy="6" r="1" fill="red"/>
  <circle cx="15" cy="6" r="1" fill="red"/>
  <circle cx="0" cy="7" r="1" fill="red"/>
  <circle cx="1" cy="7" r="1" fill="red"/>
  <circle cx="2" cy="7" r="1" fill="srgba(100%,0.956741%,0.956741%,1)"/>
  <circle cx="3" cy="7" r="1" fill="srgba(100%,2.82292%,2.82292%,1)"/>
  <circle cx="4" cy="7" r="1" fill="srgba(100%,3.93072%,3.93072%,1)"/>
  <circle cx="5" cy="7" r="1" fill="srgba(100%,0.422675%,0.422675%,1)"/>
  <circle cx="6" cy="7" r="1" fill="red"/>
  <circle cx="7" cy="7" r="1" fill="red"/>
  <circle cx="8" cy="7" r="1" fill="red"/>
  <circle cx="9" cy="7" r="1" fill="red"/>
  <circle cx="10" cy="7" r="1" fill="red"/>
  <circle cx="11" cy="7" r="1" fill="red"/>
  <circle cx="12" cy="7" r="1" fill="red"/>
  <circle cx="13" cy="7" r="1" fill="red"/>
  <circle cx="14" cy="7" r="1" fill="red"/>
  <circle cx="15" cy="7" r="1" fill="red"/>
  <circle cx="0" cy="8" r="1" fill="red"/>
  <circle cx="1" cy="8" r="1" fill="red"/>
  <circle cx="2" cy="8" r="1" fill="srgba(100%,0.251774%,0.251774%,1)"/>
  <circle cx="3" cy="8" r="1" fill="srgba(100%,3.02586%,3.02586%,1)"/>
  <circle cx="4" cy="8" r="1" fill="srgba(100%,5.4139%,5.4139%,1)"/>
  <circle cx="5" cy="8" r="1" fill="srgba(100%,1.4374%,1.4374%,1)"/>
  <circle cx="6" cy="8" r="1" fill="red"/>
  <circle cx="7" cy="8" r="1" fill="red"/>
  <circle cx="8" cy="8" r="1" fill="red"/>
  <circle cx="9" cy="8" r="1" fill="red"/>
  <circle cx="10" cy="8" r="1" fill="red"/>
  <circle cx="11" cy="8" r="1" fill="red"/>
  <circle cx="12" cy="8" r="1" fill="red"/>
  <circle cx="13" cy="8" r="1" fill="red"/>
  <circle cx="14" cy="8" r="1" fill="red"/>
  <circle cx="15" cy="8" r="1" fill="red"/>
  <circle cx="0" cy="9" r="1" fill="red"/>
  <circle cx="1" cy="9" r="1" fill="red"/>
  <circle cx="2" cy="9" r="1" fill="srgba(100%,1.21767%,1.21767%,1)"/>
  <circle cx="3" cy="9" r="1" fill="srgba(100%,5.23384%,5.23384%,1)"/>
  <circle cx="4" cy="9" r="1" fill="srgba(100%,9.76425%,9.76425%,1)"/>
  <circle cx="5" cy="9" r="1" fill="srgba(100%,3.03655%,3.03655%,1)"/>
  <circle cx="6" cy="9" r="1" fill="red"/>
  <circle cx="7" cy="9" r="1" fill="red"/>
  <circle cx="8" cy="9" r="1" fill="red"/>
  <circle cx="9" cy="9" r="1" fill="red"/>
  <circle cx="10" cy="9" r="1" fill="red"/>
  <circle cx="11" cy="9" r="1" fill="red"/>
  <circle cx="12" cy="9" r="1" fill="red"/>
  <circle cx="13" cy="9" r="1" fill="red"/>
  <circle cx="14" cy="9" r="1" fill="red"/>
  <circle cx="15" cy="9" r="1" fill="red"/>
  <circle cx="0" cy="10" r="1" fill="red"/>
  <circle cx="1" cy="10" r="1" fill="red"/>
  <circle cx="2" cy="10" r="1" fill="srgba(100%,2.39261%,2.39261%,1)"/>
  <circle cx="3" cy="10" r="1" fill="srgba(100%,7.83856%,7.83856%,1)"/>
  <circle cx="4" cy="10" r="1" fill="srgba(100%,14.7448%,14.7448%,1)"/>
  <circle cx="5" cy="10" r="1" fill="srgba(100%,4.65095%,4.65095%,1)"/>
  <circle cx="6" cy="10" r="1" fill="red"/>
  <circle cx="7" cy="10" r="1" fill="red"/>
  <circle cx="8" cy="10" r="1" fill="red"/>
  <circle cx="9" cy="10" r="1" fill="red"/>
  <circle cx="10" cy="10" r="1" fill="red"/>
  <circle cx="11" cy="10" r="1" fill="red"/>
  <circle cx="12" cy="10" r="1" fill="red"/>
  <circle cx="13" cy="10" r="1" fill="red"/>
  <circle cx="14" cy="10" r="1" fill="red"/>
  <circle cx="15" cy="10" r="1" fill="red"/>
  <circle cx="0" cy="11" r="1" fill="red"/>
  <circle cx="1" cy="11" r="1" fill="red"/>
  <circle cx="2" cy="11" r="1" fill="srgba(100%,3.60723%,3.60723%,1)"/>
  <circle cx="3" cy="11" r="1" fill="srgba(100%,9.14778%,9.14778%,1)"/>
  <circle cx="4" cy="11" r="1" fill="srgba(100%,18.1094%,18.1094%,1)"/>
  <circle cx="5" cy="11" r="1" fill="srgba(100%,6.42557%,6.42557%,1)"/>
  <circle cx="6" cy="11" r="1" fill="red"/>
  <circle cx="7" cy="11" r="1" fill="red"/>
  <circle cx="8" cy="11" r="1" fill="red"/>
  <circle cx="9" cy="11" r="1" fill="red"/>
  <circle cx="10" cy="11" r="1" fill="red"/>
  <circle cx="11" cy="11" r="1" fill="red"/>
  <circle cx="12" cy="11" r="1" fill="red"/>
  <circle cx="13" cy="11" r="1" fill="red"/>
  <circle cx="14" cy="11" r="1" fill="red"/>
  <circle cx="15" cy="11" r="1" fill="red"/>
  <circle cx="0" cy="12" r="1" fill="red"/>
  <circle cx="1" cy="12" r="1" fill="red"/>
  <circle cx="2" cy="12" r="1" fill="srgba(100%,4.8188%,4.8188%,1)"/>
  <circle cx="3" cy="12" r="1" fill="srgba(100%,10.2846%,10.2846%,1)"/>
  <circle cx="4" cy="12" r="1" fill="srgba(100%,21.4435%,21.4435%,1)"/>
  <circle cx="5" cy="12" r="1" fill="srgba(100%,8.24445%,8.24445%,1)"/>
  <circle cx="6" cy="12" r="1" fill="red"/>
  <circle cx="7" cy="12" r="1" fill="red"/>
  <circle cx="8" cy="12" r="1" fill="red"/>
  <circle cx="9" cy="12" r="1" fill="red"/>
  <circle cx="10" cy="12" r="1" fill="red"/>
  <circle cx="11" cy="12" r="1" fill="red"/>
  <circle cx="12" cy="12" r="1" fill="red"/>
  <circle cx="13" cy="12" r="1" fill="red"/>
  <circle cx="14" cy="12" r="1" fill="red"/>
  <circle cx="15" cy="12" r="1" fill="red"/>
  <circle cx="0" cy="13" r="1" fill="red"/>
  <circle cx="1" cy="13" r="1" fill="red"/>
  <circle cx="2" cy="13" r="1" fill="srgba(100%,6.0029%,6.0029%,1)"/>
  <circle cx="3" cy="13" r="1" fill="srgba(100%,11.1223%,11.1223%,1)"/>
  <circle cx="4" cy="13" r="1" fill="srgba(100%,23.0396%,23.0396%,1)"/>
  <circle cx="5" cy="13" r="1" fill="srgba(100%,10.1442%,10.1442%,1)"/>
  <circle cx="6" cy="13" r="1" fill="red"/>
  <circle cx="7" cy="13" r="1" fill="red"/>
  <circle cx="8" cy="13" r="1" fill="red"/>
  <circle cx="9" cy="13" r="1" fill="red"/>
  <circle cx="10" cy="13" r="1" fill="red"/>
  <circle cx="11" cy="13" r="1" fill="red"/>
  <circle cx="12" cy="13" r="1" fill="red"/>
  <circle cx="13" cy="13" r="1" fill="red"/>
  <circle cx="14" cy="13" r="1" fill="red"/>
  <circle cx="15" cy="13" r="1" fill="red"/>
  <circle cx="0" cy="14" r="1" fill="red"/>
  <circle cx="1" cy="14" r="1" fill="red"/>
  <circle cx="2" cy="14" r="1" fill="srgba(100%,7.2343%,7.2343%,1)"/>
  <circle cx="3" cy="14" r="1" fill="srgba(100%,10.5638%,10.5638%,1)"/>
  <circle cx="4" cy="14" r="1" fill="srgba(100%,17.467%,17.467%,1)"/>
  <circle cx="5" cy="14" r="1" fill="srgba(100%,12.2286%,12.2286%,1)"/>
  <circle cx="6" cy="14" r="1" fill="red"/>
  <circle cx="7" cy="14" r="1" fill="red"/>
  <circle cx="8" cy="14" r="1" fill="red"/>
  <circle cx="9" cy="14" r="1" fill="red"/>
  <circle cx="10" cy="14" r="1" fill="red"/>
  <circle cx="11" cy="14" r="1" fill="red"/>
  <circle cx="12" cy="14" r="1" fill="red"/>
  <circle cx="13" cy="14" r="1" fill="red"/>
  <circle cx="14" cy="14" r="1" fill="red"/>
  <circle cx="15" cy="14" r="1" fill="red"/>
  <circle cx="0" cy="15" r="1" fill="red"/>
  <circle cx="1" cy="15" r="1" fill="red"/>
  <circle cx="2" cy="15" r="1" fill="srgba(100%,8.20783%,8.20783%,1)"/>
  <circle cx="3" cy="15" r="1" fill="srgba(100%,12.079%,12.079%,1)"/>
  <circle cx="4" cy="15" r="1" fill="srgba(100%,19.0814%,19.0814%,1)"/>
  <circle cx="5" cy="15" r="1" fill="srgba(100%,13.9071%,13.9071%,1)"/>
  <circle cx="6" cy="15" r="1" fill="red"/>
  <circle cx="7" cy="15" r="1" fill="red"/>
  <circle cx="8" cy="15" r="1" fill="red"/>
  <circle cx="9" cy="15" r="1" fill="red"/>
  <circle cx="10" cy="15" r="1" fill="red"/>
  <circle cx="11" cy="15" r="1" fill="red"/>
  <circle cx="12" cy="15" r="1" fill="red"/>
  <circle cx="13" cy="15" r="1" fill="red"/>
  <circle cx="14" cy="15" r="1" fill="red"/>
  <circle cx="15" cy="15" r="1" fill="red"/>
</svg>
