<?xml version="1.0" standalone="no"?>
<!DOCTYPE svg PUBLIC "-//W3C//DTD SVG 20010904//EN"
  "http://www.w3.org/TR/2001/REC-SVG-20010904/DTD/svg10.dtd">
<svg width="16" height="16">
  <circle cx="0" cy="0" r="1" fill="srgba(8.55421%,63.4226%,26.8452%,1)"/>
  <circle cx="1" cy="0" r="1" fill="srgba(62.8077%,85.5604%,70.6722%,1)"/>
  <circle cx="2" cy="0" r="1" fill="srgba(97.9461%,91.0964%,90.5867%,1)"/>
  <circle cx="3" cy="0" r="1" fill="srgba(100%,43.8865%,44.2435%,1)"/>
  <circle cx="4" cy="0" r="1" fill="srgba(100%,14.757%,14.7509%,1)"/>
  <circle cx="5" cy="0" r="1" fill="srgba(100%,13.6034%,13.6019%,1)"/>
  <circle cx="6" cy="0" r="1" fill="srgba(100%,13.4981%,13.4981%,1)"/>
  <circle cx="7" cy="0" r="1" fill="srgba(100%,12.7337%,12.7337%,1)"/>
  <circle cx="8" cy="0" r="1" fill="srgba(100%,12.0775%,12.0775%,1)"/>
  <circle cx="9" cy="0" r="1" fill="srgba(100%,11.4168%,11.4168%,1)"/>
  <circle cx="10" cy="0" r="1" fill="srgba(100%,10.7683%,10.7683%,1)"/>
  <circle cx="11" cy="0" r="1" fill="srgba(100%,10.1289%,10.1289%,1)"/>
  <circle cx="12" cy="0" r="1" fill="srgba(100%,9.49416%,9.49416%,1)"/>
  <circle cx="13" cy="0" r="1" fill="srgba(100%,8.87617%,8.87617%,1)"/>
  <circle cx="14" cy="0" r="1" fill="srgba(100%,8.365%,8.365%,1)"/>
  <circle cx="15" cy="0" r="1" fill="srgba(100%,7.84161%,7.84161%,1)"/>
  <circle cx="0" cy="1" r="1" fill="srgba(0%,59.8123%,19.6262%,1)"/>
  <circle cx="1" cy="1" r="1" fill="srgba(6.00595%,62.3545%,24.6998%,1)"/>
  <circle cx="2" cy="1" r="1" fill="srgba(44.6815%,78.0972%,55.9686%,1)"/>
  <circle cx="3" cy="1" r="1" fill="srgba(89.427%,85.9754%,81.8372%,1)"/>
  <circle cx="4" cy="1" r="1" fill="srgba(100%,47.7165%,48.2475%,1)"/>
  <circle cx="5" cy="1" r="1" fill="srgba(100%,6.83757%,6.89555%,1)"/>
  <circle cx="6" cy="1" r="1" fill="red"/>
  <circle cx="7" cy="1" r="1" fill="red"/>
  <circle cx="8" cy="1" r="1" fill="red"/>
  <circle cx="9" cy="1" r="1" fill="red"/>
  <circle cx="10" cy="1" r="1" fill="red"/>
  <circle cx="11" cy="1" r="1" fill="red"/>
  <circle cx="12" cy="1" r="1" fill="red"/>
  <circle cx="13" cy="1" r="1" fill="red"/>
  <circle cx="14" cy="1" r="1" fill="red"/>
  <circle cx="15" cy="1" r="1" fill="red"/>
  <circle cx="0" cy="2" r="1" fill="srgba(0%,59.7971%,20.2121%,1)"/>
  <circle cx="1" cy="2" r="1" fill="srgba(0%,59.8001%,19.6475%,1)"/>
  <circle cx="2" cy="2" r="1" fill="srgba(0.37232%,59.7436%,19.4995%,1)"/>
  <circle cx="3" cy="2" r="1" fill="srgba(21.2329%,69.1539%,37.6333%,1)"/>
  <circle cx="4" cy="2" r="1" fill="srgba(71.1635%,88.1086%,76.5682%,1)"/>
  <circle cx="5" cy="2" r="1" fill="srgba(98.529%,73.5317%,73.2723%,1)"/>
  <circle cx="6" cy="2" r="1" fill="srgba(100%,25.7862%,26.0746%,1)"/>
  <circle cx="7" cy="2" r="1" fill="srgba(100%,1.21309%,1.20699%,1)"/>
  <circle cx="8" cy="2" r="1" fill="red"/>
  <circle cx="9" cy="2" r="1" fill="red"/>
  <circle cx="10" cy="2" r="1" fill="red"/>
  <circle cx="11" cy="2" r="1" fill="red"/>
  <circle cx="12" cy="2" r="1" fill="red"/>
  <circle cx="13" cy="2" r="1" fill="red"/>
  <circle cx="14" cy="2" r="1" fill="red"/>
  <circle cx="15" cy="2" r="1" fill="red"/>
  <circle cx="0" cy="3" r="1" fill="srgba(20.2914%,64.4129%,16.4034%,1)"/>
  <circle cx="1" cy="3" r="1" fill="srgba(1.15663%,60.061%,20.0198%,1)"/>
  <circle cx="2" cy="3" r="1" fill="srgba(0%,59.8657%,20.058%,1)"/>
  <circle cx="3" cy="3" r="1" fill="srgba(0%,59.4949%,18.9868%,1)"/>
  <circle cx="4" cy="3" r="1" fill="srgba(6.44236%,62.5269%,24.9363%,1)"/>
  <circle cx="5" cy="3" r="1" fill="srgba(46.566%,79.9725%,58.6007%,1)"/>
  <circle cx="6" cy="3" r="1" fill="srgba(90.5364%,89.1554%,85.4795%,1)"/>
  <circle cx="7" cy="3" r="1" fill="srgba(100%,53.5241%,54.0581%,1)"/>
  <circle cx="8" cy="3" r="1" fill="srgba(100%,10.3029%,10.3487%,1)"/>
  <circle cx="9" cy="3" r="1" fill="red"/>
  <circle cx="10" cy="3" r="1" fill="red"/>
  <circle cx="11" cy="3" r="1" fill="red"/>
  <circle cx="12" cy="3" r="1" fill="red"/>
  <circle cx="13" cy="3" r="1" fill="red"/>
  <circle cx="14" cy="3" r="1" fill="red"/>
  <circle cx="15" cy="3" r="1" fill="red"/>
  <circle cx="0" cy="4" r="1" fill="srgba(82.707%,72.2698%,2.50248%,1)"/>
  <circle cx="1" cy="4" r="1" fill="srgba(49.3263%,70.6035%,10.837%,1)"/>
  <circle cx="2" cy="4" r="1" fill="srgba(7.1458%,61.4801%,18.8815%,1)"/>
  <circle cx="3" cy="4" r="1" fill="srgba(0%,59.7421%,20.2609%,1)"/>
  <circle cx="4" cy="4" r="1" fill="srgba(0%,59.7772%,19.5911%,1)"/>
  <circle cx="5" cy="4" r="1" fill="srgba(0.587472%,59.8428%,19.6979%,1)"/>
  <circle cx="6" cy="4" r="1" fill="srgba(23.0671%,69.7932%,39.0127%,1)"/>
  <circle cx="7" cy="4" r="1" fill="srgba(73.1899%,89.7322%,79.0051%,1)"/>
  <circle cx="8" cy="4" r="1" fill="srgba(98.8754%,78.88%,78.7778%,1)"/>
  <circle cx="9" cy="4" r="1" fill="srgba(100%,30.9041%,31.1635%,1)"/>
  <circle cx="10" cy="4" r="1" fill="srgba(100%,2.09964%,2.09354%,1)"/>
  <circle cx="11" cy="4" r="1" fill="red"/>
  <circle cx="12" cy="4" r="1" fill="red"/>
  <circle cx="13" cy="4" r="1" fill="red"/>
  <circle cx="14" cy="4" r="1" fill="red"/>
  <circle cx="15" cy="4" r="1" fill="red"/>
  <circle cx="0" cy="5" r="1" fill="srgba(25.1453%,19.7284%,0.242618%,1)"/>
  <circle cx="1" cy="5" r="1" fill="srgba(70.2846%,56.5743%,0.59205%,1)"/>
  <circle cx="2" cy="5" r="1" fill="srgba(71.7449%,74.0429%,6.03037%,1)"/>
  <circle cx="3" cy="5" r="1" fill="srgba(23.1891%,65.1514%,15.8877%,1)"/>
  <circle cx="4" cy="5" r="1" fill="srgba(0.508125%,59.9145%,20.1434%,1)"/>
  <circle cx="5" cy="5" r="1" fill="srgba(0%,59.8688%,20.0336%,1)"/>
  <circle cx="6" cy="5" r="1" fill="srgba(0%,59.4812%,18.9578%,1)"/>
  <circle cx="7" cy="5" r="1" fill="srgba(7.393%,62.8672%,25.6779%,1)"/>
  <circle cx="8" cy="5" r="1" fill="srgba(48.9113%,80.8118%,60.3769%,1)"/>
  <circle cx="9" cy="5" r="1" fill="srgba(91.6472%,91.4168%,88.1956%,1)"/>
  <circle cx="10" cy="5" r="1" fill="srgba(100%,67.8462%,68.5985%,1)"/>
  <circle cx="11" cy="5" r="1" fill="srgba(100%,59.4781%,60.1663%,1)"/>
  <circle cx="12" cy="5" r="1" fill="srgba(100%,59.8703%,60.5554%,1)"/>
  <circle cx="13" cy="5" r="1" fill="srgba(100%,59.8703%,60.5554%,1)"/>
  <circle cx="14" cy="5" r="1" fill="srgba(100%,59.8703%,60.5554%,1)"/>
  <circle cx="15" cy="5" r="1" fill="srgba(100%,59.8703%,60.5554%,1)"/>
  <circle cx="0" cy="6" r="1" fill="srgba(0%,0%,0.00457771%,1)"/>
  <circle cx="1" cy="6" r="1" fill="srgba(6.48661%,5.14992%,0.164797%,1)"/>
  <circle cx="2" cy="6" r="1" fill="srgba(47.5257%,37.3144%,0.21973%,1)"/>
  <circle cx="3" cy="6" r="1" fill="srgba(80.9094%,70.5653%,2.42161%,1)"/>
  <circle cx="4" cy="6" r="1" fill="srgba(47.0359%,70.1686%,11.2917%,1)"/>
  <circle cx="5" cy="6" r="1" fill="srgba(6.2623%,61.2192%,19.0265%,1)"/>
  <circle cx="6" cy="6" r="1" fill="srgba(0%,59.8093%,20.1968%,1)"/>
  <circle cx="7" cy="6" r="1" fill="srgba(0%,59.7681%,19.5254%,1)"/>
  <circle cx="8" cy="6" r="1" fill="srgba(0.865187%,59.968%,19.9496%,1)"/>
  <circle cx="9" cy="6" r="1" fill="srgba(24.9928%,70.3593%,40.354%,1)"/>
  <circle cx="10" cy="6" r="1" fill="srgba(56.2676%,84.0482%,66.5553%,1)"/>
  <circle cx="11" cy="6" r="1" fill="srgba(58.4329%,85.1087%,68.481%,1)"/>
  <circle cx="12" cy="6" r="1" fill="srgba(58.2818%,85.037%,68.3497%,1)"/>
  <circle cx="13" cy="6" r="1" fill="srgba(58.2818%,85.037%,68.3497%,1)"/>
  <circle cx="14" cy="6" r="1" fill="srgba(58.2818%,85.037%,68.3497%,1)"/>
  <circle cx="15" cy="6" r="1" fill="srgba(58.2818%,85.037%,68.3497%,1)"/>
  <circle cx="0" cy="7" r="1" fill="black"/>
  <circle cx="1" cy="7" r="1" fill="black"/>
  <circle cx="2" cy="7" r="1" fill="srgba(0.456245%,0.381476%,0.0564584%,1)"/>
  <circle cx="3" cy="7" r="1" fill="srgba(22.0874%,17.3022%,0.222782%,1)"/>
  <circle cx="4" cy="7" r="1" fill="srgba(74.9752%,60.4471%,0.677501%,1)"/>
  <circle cx="5" cy="7" r="1" fill="srgba(72.0989%,74.7799%,6.14633%,1)"/>
  <circle cx="6" cy="7" r="1" fill="srgba(16.9863%,63.4836%,17.0031%,1)"/>
  <circle cx="7" cy="7" r="1" fill="srgba(0%,59.8703%,20.1373%,1)"/>
  <circle cx="8" cy="7" r="1" fill="srgba(0%,59.9649%,19.9298%,1)"/>
  <circle cx="9" cy="7" r="1" fill="srgba(0%,59.5834%,19.1669%,1)"/>
  <circle cx="10" cy="7" r="1" fill="srgba(0%,59.6826%,19.3683%,1)"/>
  <circle cx="11" cy="7" r="1" fill="srgba(0%,59.7589%,19.5178%,1)"/>
  <circle cx="12" cy="7" r="1" fill="srgba(0%,59.7543%,19.5102%,1)"/>
  <circle cx="13" cy="7" r="1" fill="srgba(0%,59.7543%,19.5102%,1)"/>
  <circle cx="14" cy="7" r="1" fill="srgba(0%,59.7543%,19.5102%,1)"/>
  <circle cx="15" cy="7" r="1" fill="srgba(0%,59.7543%,19.5102%,1)"/>
  <circle cx="0" cy="8" r="1" fill="black"/>
  <circle cx="1" cy="8" r="1" fill="black"/>
  <circle cx="2" cy="8" r="1" fill="srgba(0.488289%,0.407416%,0.0579843%,1)"/>
  <circle cx="3" cy="8" r="1" fill="srgba(22.3804%,17.5326%,0.222782%,1)"/>
  <circle cx="4" cy="8" r="1" fill="srgba(75.1171%,60.6027%,0.691234%,1)"/>
  <circle cx="5" cy="8" r="1" fill="srgba(71.7678%,74.7127%,6.21195%,1)"/>
  <circle cx="6" cy="8" r="1" fill="srgba(16.8231%,63.4516%,17.0336%,1)"/>
  <circle cx="7" cy="8" r="1" fill="srgba(0%,59.8703%,20.1328%,1)"/>
  <circle cx="8" cy="8" r="1" fill="srgba(0%,60.0031%,20.0046%,1)"/>
  <circle cx="9" cy="8" r="1" fill="srgba(0%,59.707%,19.4125%,1)"/>
  <circle cx="10" cy="8" r="1" fill="srgba(0%,59.3103%,18.6206%,1)"/>
  <circle cx="11" cy="8" r="1" fill="srgba(0%,59.2966%,18.5946%,1)"/>
  <circle cx="12" cy="8" r="1" fill="srgba(0%,59.2981%,18.5962%,1)"/>
  <circle cx="13" cy="8" r="1" fill="srgba(0%,59.2981%,18.5962%,1)"/>
  <circle cx="14" cy="8" r="1" fill="srgba(0%,59.2981%,18.5962%,1)"/>
  <circle cx="15" cy="8" r="1" fill="srgba(0%,59.2981%,18.5962%,1)"/>
  <circle cx="0" cy="9" r="1" fill="srgba(0%,0%,0.00457771%,1)"/>
  <circle cx="1" cy="9" r="1" fill="srgba(6.57816%,5.22316%,0.166323%,1)"/>
  <circle cx="2" cy="9" r="1" fill="srgba(47.805%,37.5387%,0.221256%,1)"/>
  <circle cx="3" cy="9" r="1" fill="srgba(80.9415%,70.6752%,2.45212%,1)"/>
  <circle cx="4" cy="9" r="1" fill="srgba(46.7384%,70.1152%,11.3558%,1)"/>
  <circle cx="5" cy="9" r="1" fill="srgba(6.12497%,61.1887%,19.0524%,1)"/>
  <circle cx="6" cy="9" r="1" fill="srgba(0%,59.8062%,20.1923%,1)"/>
  <circle cx="7" cy="9" r="1" fill="srgba(0%,59.9222%,19.8337%,1)"/>
  <circle cx="8" cy="9" r="1" fill="srgba(0%,59.4812%,18.9868%,1)"/>
  <circle cx="9" cy="9" r="1" fill="srgba(13.2128%,65.362%,30.2876%,1)"/>
  <circle cx="10" cy="9" r="1" fill="srgba(38.4817%,76.26%,49.9245%,1)"/>
  <circle cx="11" cy="9" r="1" fill="srgba(40.8194%,77.3739%,51.6014%,1)"/>
  <circle cx="12" cy="9" r="1" fill="srgba(40.6699%,77.3053%,51.4916%,1)"/>
  <circle cx="13" cy="9" r="1" fill="srgba(40.6699%,77.3053%,51.4916%,1)"/>
  <circle cx="14" cy="9" r="1" fill="srgba(40.6699%,77.3053%,51.4916%,1)"/>
  <circle cx="15" cy="9" r="1" fill="srgba(40.6699%,77.3053%,51.4916%,1)"/>
  <circle cx="0" cy="10" r="1" fill="srgba(25.275%,19.8306%,0.244144%,1)"/>
  <circle cx="1" cy="10" r="1" fill="srgba(70.4326%,56.7117%,0.598154%,1)"/>
  <circle cx="2" cy="10" r="1" fill="srgba(71.6075%,74.0429%,6.06546%,1)"/>
  <circle cx="3" cy="10" r="1" fill="srgba(22.9816%,65.1041%,15.9274%,1)"/>
  <circle cx="4" cy="10" r="1" fill="srgba(0.480659%,59.9069%,20.145%,1)"/>
  <circle cx="5" cy="10" r="1" fill="srgba(0%,59.9023%,20.0946%,1)"/>
  <circle cx="6" cy="10" r="1" fill="srgba(0%,59.6643%,19.321%,1)"/>
  <circle cx="7" cy="10" r="1" fill="srgba(2.18662%,60.5783%,21.1521%,1)"/>
  <circle cx="8" cy="10" r="1" fill="srgba(33.3944%,73.9681%,46.1295%,1)"/>
  <circle cx="9" cy="10" r="1" fill="srgba(78.5306%,89.5079%,84.7272%,1)"/>
  <circle cx="10" cy="10" r="1" fill="srgba(72.8588%,72.8176%,94.6105%,1)"/>
  <circle cx="11" cy="10" r="1" fill="srgba(65.1942%,65.0492%,93.1777%,1)"/>
  <circle cx="12" cy="10" r="1" fill="srgba(65.5268%,65.4047%,93.2204%,1)"/>
  <circle cx="13" cy="10" r="1" fill="srgba(65.5268%,65.4047%,93.2204%,1)"/>
  <circle cx="14" cy="10" r="1" fill="srgba(65.5268%,65.4047%,93.2204%,1)"/>
  <circle cx="15" cy="10" r="1" fill="srgba(65.5268%,65.4047%,93.2204%,1)"/>
  <circle cx="0" cy="11" r="1" fill="srgba(82.7024%,72.3018%,2.51621%,1)"/>
  <circle cx="1" cy="11" r="1" fill="srgba(49.1814%,70.5776%,10.8629%,1)"/>
  <circle cx="2" cy="11" r="1" fill="srgba(7.06645%,61.4603%,18.8952%,1)"/>
  <circle cx="3" cy="11" r="1" fill="srgba(0%,59.7406%,20.2548%,1)"/>
  <circle cx="4" cy="11" r="1" fill="srgba(0%,59.9207%,19.8749%,1)"/>
  <circle cx="5" cy="11" r="1" fill="srgba(0%,59.4598%,18.938%,1)"/>
  <circle cx="6" cy="11" r="1" fill="srgba(11.8013%,64.7929%,29.1188%,1)"/>
  <circle cx="7" cy="11" r="1" fill="srgba(58.555%,84.1444%,66.1326%,1)"/>
  <circle cx="8" cy="11" r="1" fill="srgba(80.9659%,83.6713%,93.4859%,1)"/>
  <circle cx="9" cy="11" r="1" fill="srgba(38.8479%,38.1491%,88.4657%,1)"/>
  <circle cx="10" cy="11" r="1" fill="srgba(3.89258%,3.86816%,80.8011%,1)"/>
  <circle cx="11" cy="11" r="1" fill="srgba(0.427253%,0.418097%,80.0946%,1)"/>
  <circle cx="12" cy="11" r="1" fill="srgba(0.637827%,0.627146%,80.1373%,1)"/>
  <circle cx="13" cy="11" r="1" fill="srgba(0.637827%,0.627146%,80.1373%,1)"/>
  <circle cx="14" cy="11" r="1" fill="srgba(0.637827%,0.627146%,80.1373%,1)"/>
  <circle cx="15" cy="11" r="1" fill="srgba(0.637827%,0.627146%,80.1373%,1)"/>
  <circle cx="0" cy="12" r="1" fill="srgba(20.2243%,64.3977%,16.4157%,1)"/>
  <circle cx="1" cy="12" r="1" fill="srgba(1.1429%,60.0565%,20.0198%,1)"/>
  <circle cx="2" cy="12" r="1" fill="srgba(0%,59.8917%,20.1083%,1)"/>
  <circle cx="3" cy="12" r="1" fill="srgba(0%,59.6933%,19.3774%,1)"/>
  <circle cx="4" cy="12" r="1" fill="srgba(1.75021%,60.383%,20.7691%,1)"/>
  <circle cx="5" cy="12" r="1" fill="srgba(31.2718%,73.0922%,44.4541%,1)"/>
  <circle cx="6" cy="12" r="1" fill="srgba(77.7798%,89.7429%,83.592%,1)"/>
  <circle cx="7" cy="12" r="1" fill="srgba(65.2918%,64.8402%,93.5103%,1)"/>
  <circle cx="8" cy="12" r="1" fill="srgba(16.6155%,16.3638%,83.5554%,1)"/>
  <circle cx="9" cy="12" r="1" fill="srgba(0%,0%,79.7681%,1)"/>
  <circle cx="10" cy="12" r="1" fill="srgba(0%,0%,79.9329%,1)"/>
  <circle cx="11" cy="12" r="1" fill="srgba(0%,0%,79.9924%,1)"/>
  <circle cx="12" cy="12" r="1" fill="srgba(0%,0%,79.9893%,1)"/>
  <circle cx="13" cy="12" r="1" fill="srgba(0%,0%,79.9893%,1)"/>
  <circle cx="14" cy="12" r="1" fill="srgba(0%,0%,79.9893%,1)"/>
  <circle cx="15" cy="12" r="1" fill="srgba(0%,0%,79.9893%,1)"/>
  <circle cx="0" cy="13" r="1" fill="srgba(0%,59.7925%,20.2029%,1)"/>
  <circle cx="1" cy="13" r="1" fill="srgba(0%,59.9283%,19.9054%,1)"/>
  <circle cx="2" cy="13" r="1" fill="srgba(0%,59.4553%,18.9273%,1)"/>
  <circle cx="3" cy="13" r="1" fill="srgba(10.5516%,64.2618%,28.1041%,1)"/>
  <circle cx="4" cy="13" r="1" fill="srgba(56.3317%,83.2853%,64.329%,1)"/>
  <circle cx="5" cy="13" r="1" fill="srgba(81.0468%,84.2618%,92.9931%,1)"/>
  <circle cx="6" cy="13" r="1" fill="srgba(40.325%,39.5941%,88.8014%,1)"/>
  <circle cx="7" cy="13" r="1" fill="srgba(3.99786%,3.97498%,80.708%,1)"/>
  <circle cx="8" cy="13" r="1" fill="srgba(0%,0%,79.7818%,1)"/>
  <circle cx="9" cy="13" r="1" fill="srgba(0%,0%,79.9985%,1)"/>
  <circle cx="10" cy="13" r="1" fill="srgba(0,0,204,1)"/>
  <circle cx="11" cy="13" r="1" fill="srgba(0,0,204,1)"/>
  <circle cx="12" cy="13" r="1" fill="srgba(0,0,204,1)"/>
  <circle cx="13" cy="13" r="1" fill="srgba(0,0,204,1)"/>
  <circle cx="14" cy="13" r="1" fill="srgba(0,0,204,1)"/>
  <circle cx="15" cy="13" r="1" fill="srgba(0,0,204,1)"/>
  <circle cx="0" cy="14" r="1" fill="srgba(0%,59.8581%,19.7162%,1)"/>
  <circle cx="1" cy="14" r="1" fill="srgba(1.65103%,60.5097%,21.0422%,1)"/>
  <circle cx="2" cy="14" r="1" fill="srgba(29.2775%,71.9738%,43.1693%,1)"/>
  <circle cx="3" cy="14" r="1" fill="srgba(75.7931%,88.7083%,82.2431%,1)"/>
  <circle cx="4" cy="14" r="1" fill="srgba(65.9419%,65.6199%,93.5103%,1)"/>
  <circle cx="5" cy="14" r="1" fill="srgba(17.5326%,17.2488%,83.7736%,1)"/>
  <circle cx="6" cy="14" r="1" fill="srgba(0.0015259%,0.0106813%,79.7848%,1)"/>
  <circle cx="7" cy="14" r="1" fill="srgba(0%,0%,79.9329%,1)"/>
  <circle cx="8" cy="14" r="1" fill="srgba(0%,0%,80.0031%,1)"/>
  <circle cx="9" cy="14" r="1" fill="srgba(0,0,204,1)"/>
  <circle cx="10" cy="14" r="1" fill="srgba(0,0,204,1)"/>
  <circle cx="11" cy="14" r="1" fill="srgba(0,0,204,1)"/>
  <circle cx="12" cy="14" r="1" fill="srgba(0,0,204,1)"/>
  <circle cx="13" cy="14" r="1" fill="srgba(0,0,204,1)"/>
  <circle cx="14" cy="14" r="1" fill="srgba(0,0,204,1)"/>
  <circle cx="15" cy="14" r="1" fill="srgba(0,0,204,1)"/>
  <circle cx="0" cy="15" r="1" fill="srgba(4.05737%,61.622%,23.2471%,1)"/>
  <circle cx="1" cy="15" r="1" fill="srgba(46.2318%,78.7167%,56.7605%,1)"/>
  <circle cx="2" cy="15" r="1" fill="srgba(86.6789%,90.9651%,93.048%,1)"/>
  <circle cx="3" cy="15" r="1" fill="srgba(47.7455%,46.8818%,90.4189%,1)"/>
  <circle cx="4" cy="15" r="1" fill="srgba(5.06142%,5.0248%,80.9262%,1)"/>
  <circle cx="5" cy="15" r="1" fill="srgba(0%,0%,79.7421%,1)"/>
  <circle cx="6" cy="15" r="1" fill="srgba(0%,0%,79.9954%,1)"/>
  <circle cx="7" cy="15" r="1" fill="srgba(0,0,204,1)"/>
  <circle cx="8" cy="15" r="1" fill="srgba(0,0,204,1)"/>
  <circle cx="9" cy="15" r="1" fill="srgba(0,0,204,1)"/>
  <circle cx="10" cy="15" r="1" fill="srgba(0,0,204,1)"/>
  <circle cx="11" cy="15" r="1" fill="srgba(0,0,204,1)"/>
  <circle cx="12" cy="15" r="1" fill="srgba(0,0,204,1)"/>
  <circle cx="13" cy="15" r="1" fill="srgba(0,0,204,1)"/>
  <circle cx="14" cy="15" r="1" fill="srgba(0,0,204,1)"/>
  <circle cx="15" cy="15" r="1" fill="srgba(0,0,204,1)"/>
</svg>
