<?xml version="1.0" standalone="no"?>
<!DOCTYPE svg PUBLIC "-//W3C//DTD SVG 20010904//EN"
  "http://www.w3.org/TR/2001/REC-SVG-20010904/DTD/svg10.dtd">
<svg width="16" height="16">
  <circle cx="0" cy="0" r="1" fill="srgba(25,138,0,1)"/>
  <circle cx="1" cy="0" r="1" fill="srgba(25,138,0,1)"/>
  <circle cx="2" cy="0" r="1" fill="srgba(25,138,0,1)"/>
  <circle cx="3" cy="0" r="1" fill="srgba(25,138,0,1)"/>
  <circle cx="4" cy="0" r="1" fill="srgba(25,138,0,1)"/>
  <circle cx="5" cy="0" r="1" fill="srgba(25,138,0,1)"/>
  <circle cx="6" cy="0" r="1" fill="srgba(25,138,0,1)"/>
  <circle cx="7" cy="0" r="1" fill="srgba(25,138,0,1)"/>
  <circle cx="8" cy="0" r="1" fill="srgba(9.81003%,54.1176%,0%,1)"/>
  <circle cx="9" cy="0" r="1" fill="srgba(9.48653%,54.2016%,0%,1)"/>
  <circle cx="10" cy="0" r="1" fill="srgba(9.23476%,54.2367%,0%,1)"/>
  <circle cx="11" cy="0" r="1" fill="srgba(8.90059%,54.3252%,0%,1)"/>
  <circle cx="12" cy="0" r="1" fill="srgba(9.64981%,54.2016%,0%,1)"/>
  <circle cx="13" cy="0" r="1" fill="srgba(9.45754%,54.2275%,0%,1)"/>
  <circle cx="14" cy="0" r="1" fill="srgba(8.90059%,54.3313%,0%,1)"/>
  <circle cx="15" cy="0" r="1" fill="srgba(8.7602%,54.3145%,0.047303%,1)"/>
  <circle cx="0" cy="1" r="1" fill="srgba(25,138,0,1)"/>
  <circle cx="1" cy="1" r="1" fill="srgba(25,138,0,1)"/>
  <circle cx="2" cy="1" r="1" fill="srgba(25,138,0,1)"/>
  <circle cx="3" cy="1" r="1" fill="srgba(25,138,0,1)"/>
  <circle cx="4" cy="1" r="1" fill="srgba(25,138,0,1)"/>
  <circle cx="5" cy="1" r="1" fill="srgba(25,138,0,1)"/>
  <circle cx="6" cy="1" r="1" fill="srgba(25,138,0,1)"/>
  <circle cx="7" cy="1" r="1" fill="srgba(9.8024%,54.1192%,0%,1)"/>
  <circle cx="8" cy="1" r="1" fill="srgba(9.7322%,54.1146%,0%,1)"/>
  <circle cx="9" cy="1" r="1" fill="srgba(14.229%,52.9427%,0%,1)"/>
  <circle cx="10" cy="1" r="1" fill="srgba(17.7127%,52.3919%,0%,1)"/>
  <circle cx="11" cy="1" r="1" fill="srgba(24.6433%,50.4768%,0%,1)"/>
  <circle cx="12" cy="1" r="1" fill="srgba(12.0226%,52.8985%,0%,1)"/>
  <circle cx="13" cy="1" r="1" fill="srgba(13.5317%,52.6741%,0%,1)"/>
  <circle cx="14" cy="1" r="1" fill="srgba(23.1281%,50.1991%,0%,1)"/>
  <circle cx="15" cy="1" r="1" fill="srgba(29.72%,49.189%,0.030518%,1)"/>
  <circle cx="0" cy="2" r="1" fill="srgba(25,138,0,1)"/>
  <circle cx="1" cy="2" r="1" fill="srgba(25,138,0,1)"/>
  <circle cx="2" cy="2" r="1" fill="srgba(25,138,0,1)"/>
  <circle cx="3" cy="2" r="1" fill="srgba(25,138,0,1)"/>
  <circle cx="4" cy="2" r="1" fill="srgba(25,138,0,1)"/>
  <circle cx="5" cy="2" r="1" fill="srgba(25,138,0,1)"/>
  <circle cx="6" cy="2" r="1" fill="srgba(25,138,0,1)"/>
  <circle cx="7" cy="2" r="1" fill="srgba(9.80087%,54.1222%,0%,1)"/>
  <circle cx="8" cy="2" r="1" fill="srgba(9.19509%,54.1314%,0%,1)"/>
  <circle cx="9" cy="2" r="1" fill="srgba(45.3712%,48.8319%,0%,1)"/>
  <circle cx="10" cy="2" r="1" fill="srgba(72.8679%,44.9012%,0%,1)"/>
  <circle cx="11" cy="2" r="1" fill="srgba(65.7816%,40.7965%,0%,1)"/>
  <circle cx="12" cy="2" r="1" fill="srgba(45.5222%,41.4969%,0%,1)"/>
  <circle cx="13" cy="2" r="1" fill="srgba(44.0558%,40.7095%,0%,1)"/>
  <circle cx="14" cy="2" r="1" fill="srgba(62.7497%,40.2518%,0%,1)"/>
  <circle cx="15" cy="2" r="1" fill="srgba(73.4463%,43.0961%,0%,1)"/>
  <circle cx="0" cy="3" r="1" fill="srgba(25,138,0,1)"/>
  <circle cx="1" cy="3" r="1" fill="srgba(25,138,0,1)"/>
  <circle cx="2" cy="3" r="1" fill="srgba(25,138,0,1)"/>
  <circle cx="3" cy="3" r="1" fill="srgba(25,138,0,1)"/>
  <circle cx="4" cy="3" r="1" fill="srgba(25,138,0,1)"/>
  <circle cx="5" cy="3" r="1" fill="srgba(25,138,0,1)"/>
  <circle cx="6" cy="3" r="1" fill="srgba(25,138,0,1)"/>
  <circle cx="7" cy="3" r="1" fill="srgba(25,138,0,1)"/>
  <circle cx="8" cy="3" r="1" fill="srgba(8.64424%,54.2245%,0%,1)"/>
  <circle cx="9" cy="3" r="1" fill="srgba(45.1392%,48.4367%,0%,1)"/>
  <circle cx="10" cy="3" r="1" fill="srgba(88.9418%,45.4292%,0%,1)"/>
  <circle cx="11" cy="3" r="1" fill="srgba(73.3211%,40.3967%,0%,1)"/>
  <circle cx="12" cy="3" r="1" fill="srgba(60.3769%,36.0388%,0%,1)"/>
  <circle cx="13" cy="3" r="1" fill="srgba(57.6989%,39.794%,0%,1)"/>
  <circle cx="14" cy="3" r="1" fill="srgba(74.435%,43.7827%,0%,1)"/>
  <circle cx="15" cy="3" r="1" fill="srgba(85.7176%,44.3336%,0%,1)"/>
  <circle cx="0" cy="4" r="1" fill="srgba(25,138,0,1)"/>
  <circle cx="1" cy="4" r="1" fill="srgba(25,138,0,1)"/>
  <circle cx="2" cy="4" r="1" fill="srgba(25,138,0,1)"/>
  <circle cx="3" cy="4" r="1" fill="srgba(25,138,0,1)"/>
  <circle cx="4" cy="4" r="1" fill="srgba(25,138,0,1)"/>
  <circle cx="5" cy="4" r="1" fill="srgba(25,138,0,1)"/>
  <circle cx="6" cy="4" r="1" fill="srgba(9.82071%,54.1085%,0%,1)"/>
  <circle cx="7" cy="4" r="1" fill="srgba(9.1783%,54.4549%,0%,1)"/>
  <circle cx="8" cy="4" r="1" fill="srgba(7.38537%,54.8898%,0%,1)"/>
  <circle cx="9" cy="4" r="1" fill="srgba(43.122%,47.6661%,0%,1)"/>
  <circle cx="10" cy="4" r="1" fill="srgba(89.4255%,46.0349%,0%,1)"/>
  <circle cx="11" cy="4" r="1" fill="srgba(84.683%,44.3992%,0%,1)"/>
  <circle cx="12" cy="4" r="1" fill="srgba(55.1644%,36.4813%,0%,1)"/>
  <circle cx="13" cy="4" r="1" fill="srgba(29.0578%,40.6378%,0%,1)"/>
  <circle cx="14" cy="4" r="1" fill="srgba(56.3821%,41.1139%,0%,1)"/>
  <circle cx="15" cy="4" r="1" fill="srgba(77.4731%,41.2924%,0.0015259%,1)"/>
  <circle cx="0" cy="5" r="1" fill="srgba(25,138,0,1)"/>
  <circle cx="1" cy="5" r="1" fill="srgba(25,138,0,1)"/>
  <circle cx="2" cy="5" r="1" fill="srgba(25,138,0,1)"/>
  <circle cx="3" cy="5" r="1" fill="srgba(25,138,0,1)"/>
  <circle cx="4" cy="5" r="1" fill="srgba(25,138,0,1)"/>
  <circle cx="5" cy="5" r="1" fill="srgba(25,138,0,1)"/>
  <circle cx="6" cy="5" r="1" fill="srgba(9.49722%,54.2824%,0%,1)"/>
  <circle cx="7" cy="5" r="1" fill="srgba(20.9949%,48.0964%,0.909438%,1)"/>
  <circle cx="8" cy="5" r="1" fill="srgba(31.6472%,41.883%,1.86007%,1)"/>
  <circle cx="9" cy="5" r="1" fill="srgba(55.4253%,41.4343%,0.888075%,1)"/>
  <circle cx="10" cy="5" r="1" fill="srgba(88.7602%,46.0624%,0%,1)"/>
  <circle cx="11" cy="5" r="1" fill="srgba(88.0156%,45.9632%,0%,1)"/>
  <circle cx="12" cy="5" r="1" fill="srgba(79.8413%,42.179%,0%,1)"/>
  <circle cx="13" cy="5" r="1" fill="srgba(52.9061%,45.8381%,0%,1)"/>
  <circle cx="14" cy="5" r="1" fill="srgba(68.4092%,48.0079%,0%,1)"/>
  <circle cx="15" cy="5" r="1" fill="srgba(92.929%,48.1987%,0%,1)"/>
  <circle cx="0" cy="6" r="1" fill="srgba(25,138,0,1)"/>
  <circle cx="1" cy="6" r="1" fill="srgba(25,138,0,1)"/>
  <circle cx="2" cy="6" r="1" fill="srgba(25,138,0,1)"/>
  <circle cx="3" cy="6" r="1" fill="srgba(25,138,0,1)"/>
  <circle cx="4" cy="6" r="1" fill="srgba(25,138,0,1)"/>
  <circle cx="5" cy="6" r="1" fill="srgba(25,138,0,1)"/>
  <circle cx="6" cy="6" r="1" fill="srgba(8.76326%,54.6777%,0%,1)"/>
  <circle cx="7" cy="6" r="1" fill="srgba(47.7287%,33.7118%,3.07927%,1)"/>
  <circle cx="8" cy="6" r="1" fill="srgba(86.3996%,12.4422%,6.30655%,1)"/>
  <circle cx="9" cy="6" r="1" fill="srgba(81.5946%,27.2236%,3.03807%,1)"/>
  <circle cx="10" cy="6" r="1" fill="srgba(87.9347%,46.4347%,0%,1)"/>
  <circle cx="11" cy="6" r="1" fill="srgba(87.982%,46.0212%,0%,1)"/>
  <circle cx="12" cy="6" r="1" fill="srgba(85.9876%,44.8997%,0%,1)"/>
  <circle cx="13" cy="6" r="1" fill="srgba(86.4775%,45.3361%,0%,1)"/>
  <circle cx="14" cy="6" r="1" fill="srgba(87.9438%,46.392%,0%,1)"/>
  <circle cx="15" cy="6" r="1" fill="srgba(93.5164%,48.8808%,0%,1)"/>
  <circle cx="0" cy="7" r="1" fill="srgba(25,138,0,1)"/>
  <circle cx="1" cy="7" r="1" fill="srgba(25,138,0,1)"/>
  <circle cx="2" cy="7" r="1" fill="srgba(25,138,0,1)"/>
  <circle cx="3" cy="7" r="1" fill="srgba(25,138,0,1)"/>
  <circle cx="4" cy="7" r="1" fill="srgba(25,138,0,1)"/>
  <circle cx="5" cy="7" r="1" fill="srgba(25,138,0,1)"/>
  <circle cx="6" cy="7" r="1" fill="srgba(8.73884%,54.6914%,0%,1)"/>
  <circle cx="7" cy="7" r="1" fill="srgba(48.6244%,33.2296%,3.15251%,1)"/>
  <circle cx="8" cy="7" r="1" fill="srgba(88.2582%,11.4519%,6.45914%,1)"/>
  <circle cx="9" cy="7" r="1" fill="srgba(82.414%,26.4317%,3.16625%,1)"/>
  <circle cx="10" cy="7" r="1" fill="srgba(87.8614%,46.4057%,0%,1)"/>
  <circle cx="11" cy="7" r="1" fill="srgba(88.0568%,46.0563%,0%,1)"/>
  <circle cx="12" cy="7" r="1" fill="srgba(87.0436%,45.5268%,0%,1)"/>
  <circle cx="13" cy="7" r="1" fill="srgba(91.751%,47.9683%,0%,1)"/>
  <circle cx="14" cy="7" r="1" fill="srgba(88.9937%,46.5232%,0%,1)"/>
  <circle cx="15" cy="7" r="1" fill="srgba(90.6874%,47.4342%,0%,1)"/>
  <circle cx="0" cy="8" r="1" fill="srgba(25,138,0,1)"/>
  <circle cx="1" cy="8" r="1" fill="srgba(25,138,0,1)"/>
  <circle cx="2" cy="8" r="1" fill="srgba(25,138,0,1)"/>
  <circle cx="3" cy="8" r="1" fill="srgba(25,138,0,1)"/>
  <circle cx="4" cy="8" r="1" fill="srgba(25,138,0,1)"/>
  <circle cx="5" cy="8" r="1" fill="srgba(25,138,0,1)"/>
  <circle cx="6" cy="8" r="1" fill="srgba(8.73884%,54.6899%,0%,1)"/>
  <circle cx="7" cy="8" r="1" fill="srgba(48.5725%,33.257%,3.14794%,1)"/>
  <circle cx="8" cy="8" r="1" fill="srgba(88.1788%,11.4946%,6.45609%,1)"/>
  <circle cx="9" cy="8" r="1" fill="srgba(82.2721%,25.9129%,3.25628%,1)"/>
  <circle cx="10" cy="8" r="1" fill="srgba(87.805%,46.3401%,0%,1)"/>
  <circle cx="11" cy="8" r="1" fill="srgba(88.2856%,46.1753%,0%,1)"/>
  <circle cx="12" cy="8" r="1" fill="srgba(88.8319%,46.4607%,0%,1)"/>
  <circle cx="13" cy="8" r="1" fill="srgba(93.8674%,49.0944%,0%,1)"/>
  <circle cx="14" cy="8" r="1" fill="srgba(91.6686%,47.9438%,0%,1)"/>
  <circle cx="15" cy="8" r="1" fill="srgba(89.9565%,47.0497%,0%,1)"/>
  <circle cx="0" cy="9" r="1" fill="srgba(25,138,0,1)"/>
  <circle cx="1" cy="9" r="1" fill="srgba(25,138,0,1)"/>
  <circle cx="2" cy="9" r="1" fill="srgba(25,138,0,1)"/>
  <circle cx="3" cy="9" r="1" fill="srgba(25,138,0,1)"/>
  <circle cx="4" cy="9" r="1" fill="srgba(25,138,0,1)"/>
  <circle cx="5" cy="9" r="1" fill="srgba(25,138,0,1)"/>
  <circle cx="6" cy="9" r="1" fill="srgba(8.73884%,54.6899%,0%,1)"/>
  <circle cx="7" cy="9" r="1" fill="srgba(48.5725%,33.257%,3.14794%,1)"/>
  <circle cx="8" cy="9" r="1" fill="srgba(88.2094%,11.4824%,6.46067%,1)"/>
  <circle cx="9" cy="9" r="1" fill="srgba(82.0249%,25.1896%,3.36919%,1)"/>
  <circle cx="10" cy="9" r="1" fill="srgba(87.6905%,46.2303%,0%,1)"/>
  <circle cx="11" cy="9" r="1" fill="srgba(88.9845%,46.5415%,0%,1)"/>
  <circle cx="12" cy="9" r="1" fill="srgba(92.9061%,48.5908%,0%,1)"/>
  <circle cx="13" cy="9" r="1" fill="srgba(93.7438%,49.0288%,0%,1)"/>
  <circle cx="14" cy="9" r="1" fill="srgba(93.6233%,48.9662%,0%,1)"/>
  <circle cx="15" cy="9" r="1" fill="srgba(90.8812%,47.5334%,0%,1)"/>
  <circle cx="0" cy="10" r="1" fill="srgba(25,138,0,1)"/>
  <circle cx="1" cy="10" r="1" fill="srgba(25,138,0,1)"/>
  <circle cx="2" cy="10" r="1" fill="srgba(25,138,0,1)"/>
  <circle cx="3" cy="10" r="1" fill="srgba(25,138,0,1)"/>
  <circle cx="4" cy="10" r="1" fill="srgba(25,138,0,1)"/>
  <circle cx="5" cy="10" r="1" fill="srgba(25,138,0,1)"/>
  <circle cx="6" cy="10" r="1" fill="srgba(8.73884%,54.6899%,0%,1)"/>
  <circle cx="7" cy="10" r="1" fill="srgba(48.5725%,33.257%,3.14794%,1)"/>
  <circle cx="8" cy="10" r="1" fill="srgba(88.2689%,11.5053%,6.4622%,1)"/>
  <circle cx="9" cy="10" r="1" fill="srgba(81.181%,24.5487%,3.40734%,1)"/>
  <circle cx="10" cy="10" r="1" fill="srgba(84.4465%,44.5182%,0%,1)"/>
  <circle cx="11" cy="10" r="1" fill="srgba(88.4428%,46.2593%,0%,1)"/>
  <circle cx="12" cy="10" r="1" fill="srgba(93.3196%,48.8075%,0%,1)"/>
  <circle cx="13" cy="10" r="1" fill="srgba(93.7362%,49.0257%,0%,1)"/>
  <circle cx="14" cy="10" r="1" fill="srgba(93.7484%,49.0318%,0%,1)"/>
  <circle cx="15" cy="10" r="1" fill="srgba(93.492%,48.8975%,0%,1)"/>
  <circle cx="0" cy="11" r="1" fill="srgba(25,138,0,1)"/>
  <circle cx="1" cy="11" r="1" fill="srgba(25,138,0,1)"/>
  <circle cx="2" cy="11" r="1" fill="srgba(25,138,0,1)"/>
  <circle cx="3" cy="11" r="1" fill="srgba(25,138,0,1)"/>
  <circle cx="4" cy="11" r="1" fill="srgba(25,138,0,1)"/>
  <circle cx="5" cy="11" r="1" fill="srgba(25,138,0,1)"/>
  <circle cx="6" cy="11" r="1" fill="srgba(8.73884%,54.6899%,0%,1)"/>
  <circle cx="7" cy="11" r="1" fill="srgba(48.5725%,33.257%,3.14794%,1)"/>
  <circle cx="8" cy="11" r="1" fill="srgba(88.1559%,11.4504%,6.4622%,1)"/>
  <circle cx="9" cy="11" r="1" fill="srgba(84.0345%,26.1433%,3.3875%,1)"/>
  <circle cx="10" cy="11" r="1" fill="srgba(84.8753%,44.7486%,0%,1)"/>
  <circle cx="11" cy="11" r="1" fill="srgba(88.1819%,46.1234%,0%,1)"/>
  <circle cx="12" cy="11" r="1" fill="srgba(93.3303%,48.8136%,0%,1)"/>
  <circle cx="13" cy="11" r="1" fill="srgba(93.7362%,49.0257%,0%,1)"/>
  <circle cx="14" cy="11" r="1" fill="srgba(239,125,0,1)"/>
  <circle cx="15" cy="11" r="1" fill="srgba(93.7407%,49.0272%,0%,1)"/>
  <circle cx="0" cy="12" r="1" fill="srgba(25,138,0,1)"/>
  <circle cx="1" cy="12" r="1" fill="srgba(25,138,0,1)"/>
  <circle cx="2" cy="12" r="1" fill="srgba(25,138,0,1)"/>
  <circle cx="3" cy="12" r="1" fill="srgba(25,138,0,1)"/>
  <circle cx="4" cy="12" r="1" fill="srgba(25,138,0,1)"/>
  <circle cx="5" cy="12" r="1" fill="srgba(25,138,0,1)"/>
  <circle cx="6" cy="12" r="1" fill="srgba(8.73884%,54.6899%,0%,1)"/>
  <circle cx="7" cy="12" r="1" fill="srgba(48.5725%,33.257%,3.14794%,1)"/>
  <circle cx="8" cy="12" r="1" fill="srgba(88.1407%,11.4275%,6.46525%,1)"/>
  <circle cx="9" cy="12" r="1" fill="srgba(84.5274%,25.9663%,3.47143%,1)"/>
  <circle cx="10" cy="12" r="1" fill="srgba(85.4948%,45.0324%,0%,1)"/>
  <circle cx="11" cy="12" r="1" fill="srgba(88.4321%,46.2531%,0%,1)"/>
  <circle cx="12" cy="12" r="1" fill="srgba(93.3288%,48.8121%,0%,1)"/>
  <circle cx="13" cy="12" r="1" fill="srgba(93.7362%,49.0257%,0%,1)"/>
  <circle cx="14" cy="12" r="1" fill="srgba(239,125,0,1)"/>
  <circle cx="15" cy="12" r="1" fill="srgba(239,125,0,1)"/>
  <circle cx="0" cy="13" r="1" fill="srgba(25,138,0,1)"/>
  <circle cx="1" cy="13" r="1" fill="srgba(25,138,0,1)"/>
  <circle cx="2" cy="13" r="1" fill="srgba(25,138,0,1)"/>
  <circle cx="3" cy="13" r="1" fill="srgba(25,138,0,1)"/>
  <circle cx="4" cy="13" r="1" fill="srgba(25,138,0,1)"/>
  <circle cx="5" cy="13" r="1" fill="srgba(25,138,0,1)"/>
  <circle cx="6" cy="13" r="1" fill="srgba(8.73884%,54.6899%,0%,1)"/>
  <circle cx="7" cy="13" r="1" fill="srgba(48.5725%,33.257%,3.14794%,1)"/>
  <circle cx="8" cy="13" r="1" fill="srgba(88.1682%,11.4305%,6.46677%,1)"/>
  <circle cx="9" cy="13" r="1" fill="srgba(84.2283%,25.4658%,3.53552%,1)"/>
  <circle cx="10" cy="13" r="1" fill="srgba(85.3147%,44.8966%,0%,1)"/>
  <circle cx="11" cy="13" r="1" fill="srgba(88.5985%,46.3401%,0%,1)"/>
  <circle cx="12" cy="13" r="1" fill="srgba(93.3303%,48.8136%,0%,1)"/>
  <circle cx="13" cy="13" r="1" fill="srgba(93.7362%,49.0257%,0%,1)"/>
  <circle cx="14" cy="13" r="1" fill="srgba(239,125,0,1)"/>
  <circle cx="15" cy="13" r="1" fill="srgba(239,125,0,1)"/>
  <circle cx="0" cy="14" r="1" fill="srgba(9.79782%,54.1146%,0%,1)"/>
  <circle cx="1" cy="14" r="1" fill="srgba(9.79782%,54.1146%,0%,1)"/>
  <circle cx="2" cy="14" r="1" fill="srgba(9.79782%,54.1146%,0%,1)"/>
  <circle cx="3" cy="14" r="1" fill="srgba(9.79782%,54.1146%,0%,1)"/>
  <circle cx="4" cy="14" r="1" fill="srgba(9.79782%,54.1146%,0%,1)"/>
  <circle cx="5" cy="14" r="1" fill="srgba(9.79782%,54.1146%,0%,1)"/>
  <circle cx="6" cy="14" r="1" fill="srgba(8.73274%,54.6868%,0%,1)"/>
  <circle cx="7" cy="14" r="1" fill="srgba(48.5725%,33.254%,3.14794%,1)"/>
  <circle cx="8" cy="14" r="1" fill="srgba(88.2155%,11.4382%,6.46983%,1)"/>
  <circle cx="9" cy="14" r="1" fill="srgba(83.6362%,24.6494%,3.63165%,1)"/>
  <circle cx="10" cy="14" r="1" fill="srgba(85.362%,44.8615%,0%,1)"/>
  <circle cx="11" cy="14" r="1" fill="srgba(88.7419%,46.4164%,0%,1)"/>
  <circle cx="12" cy="14" r="1" fill="srgba(93.3425%,48.8182%,0%,1)"/>
  <circle cx="13" cy="14" r="1" fill="srgba(93.7392%,49.0257%,0%,1)"/>
  <circle cx="14" cy="14" r="1" fill="srgba(239,125,0,1)"/>
  <circle cx="15" cy="14" r="1" fill="srgba(239,125,0,1)"/>
  <circle cx="0" cy="15" r="1" fill="srgba(9.91989%,54.1787%,0.131228%,1)"/>
  <circle cx="1" cy="15" r="1" fill="srgba(9.91989%,54.1787%,0.131228%,1)"/>
  <circle cx="2" cy="15" r="1" fill="srgba(9.91989%,54.1787%,0.131228%,1)"/>
  <circle cx="3" cy="15" r="1" fill="srgba(9.91989%,54.1787%,0.131228%,1)"/>
  <circle cx="4" cy="15" r="1" fill="srgba(9.91989%,54.1787%,0.131228%,1)"/>
  <circle cx="5" cy="15" r="1" fill="srgba(9.91989%,54.1787%,0.131228%,1)"/>
  <circle cx="6" cy="15" r="1" fill="srgba(8.85786%,54.7509%,0.047303%,1)"/>
  <circle cx="7" cy="15" r="1" fill="srgba(48.5847%,33.3181%,3.21355%,1)"/>
  <circle cx="8" cy="15" r="1" fill="srgba(88.1407%,11.5114%,6.4683%,1)"/>
  <circle cx="9" cy="15" r="1" fill="srgba(83.1998%,24.1154%,3.70336%,1)"/>
  <circle cx="10" cy="15" r="1" fill="srgba(85.9663%,45.1347%,0%,1)"/>
  <circle cx="11" cy="15" r="1" fill="srgba(88.7388%,46.4256%,0%,1)"/>
  <circle cx="12" cy="15" r="1" fill="srgba(93.225%,48.7678%,0%,1)"/>
  <circle cx="13" cy="15" r="1" fill="srgba(93.7011%,49.0135%,0%,1)"/>
  <circle cx="14" cy="15" r="1" fill="srgba(93.7194%,49.0196%,0%,1)"/>
  <circle cx="15" cy="15" r="1" fill="srgba(93.7209%,49.0181%,0%,1)"/>
</svg>
