<?xml version="1.0" standalone="no"?>
<!DOCTYPE svg PUBLIC "-//W3C//DTD SVG 20010904//EN"
  "http://www.w3.org/TR/2001/REC-SVG-20010904/DTD/svg10.dtd">
<svg width="16" height="16">
  <circle cx="0" cy="0" r="1" fill="srgba(63.0762%,63.5325%,62.884%,1)"/>
  <circle cx="1" cy="0" r="1" fill="srgba(20.1053%,34.641%,13.9605%,1)"/>
  <circle cx="2" cy="0" r="1" fill="srgba(16.0357%,50.7027%,1.38247%,1)"/>
  <circle cx="3" cy="0" r="1" fill="srgba(19.4034%,57.9797%,3.10826%,1)"/>
  <circle cx="4" cy="0" r="1" fill="srgba(19.1562%,57.2534%,3.14031%,1)"/>
  <circle cx="5" cy="0" r="1" fill="srgba(19.1318%,57.2274%,3.13573%,1)"/>
  <circle cx="6" cy="0" r="1" fill="srgba(19.1333%,57.229%,3.13573%,1)"/>
  <circle cx="7" cy="0" r="1" fill="srgba(19.1333%,57.229%,3.13573%,1)"/>
  <circle cx="8" cy="0" r="1" fill="srgba(19.1333%,57.229%,3.13573%,1)"/>
  <circle cx="9" cy="0" r="1" fill="srgba(19.1333%,57.229%,3.13573%,1)"/>
  <circle cx="10" cy="0" r="1" fill="srgba(19.1333%,57.229%,3.13573%,1)"/>
  <circle cx="11" cy="0" r="1" fill="srgba(19.1333%,57.229%,3.13573%,1)"/>
  <circle cx="12" cy="0" r="1" fill="srgba(19.1333%,57.229%,3.13573%,1)"/>
  <circle cx="13" cy="0" r="1" fill="srgba(19.1333%,57.229%,3.13573%,1)"/>
  <circle cx="14" cy="0" r="1" fill="srgba(19.1318%,57.2274%,3.1342%,1)"/>
  <circle cx="15" cy="0" r="1" fill="srgba(19.1562%,57.2442%,3.16625%,1)"/>
  <circle cx="0" cy="1" r="1" fill="srgba(99.5087%,99.4263%,99.5438%,1)"/>
  <circle cx="1" cy="1" r="1" fill="srgba(77.0367%,77.258%,76.9421%,1)"/>
  <circle cx="2" cy="1" r="1" fill="srgba(29.2149%,39.7986%,24.7578%,1)"/>
  <circle cx="3" cy="1" r="1" fill="srgba(15.0774%,45.5375%,1.94553%,1)"/>
  <circle cx="4" cy="1" r="1" fill="srgba(20.8026%,58.024%,2.81224%,1)"/>
  <circle cx="5" cy="1" r="1" fill="srgba(20.5707%,57.821%,3.18303%,1)"/>
  <circle cx="6" cy="1" r="1" fill="srgba(20.3189%,57.6028%,3.16777%,1)"/>
  <circle cx="7" cy="1" r="1" fill="srgba(20.3296%,57.612%,3.16777%,1)"/>
  <circle cx="8" cy="1" r="1" fill="srgba(20.3296%,57.612%,3.16777%,1)"/>
  <circle cx="9" cy="1" r="1" fill="srgba(20.3296%,57.612%,3.16777%,1)"/>
  <circle cx="10" cy="1" r="1" fill="srgba(20.3296%,57.612%,3.16777%,1)"/>
  <circle cx="11" cy="1" r="1" fill="srgba(20.3296%,57.612%,3.16777%,1)"/>
  <circle cx="12" cy="1" r="1" fill="srgba(20.3296%,57.612%,3.16777%,1)"/>
  <circle cx="13" cy="1" r="1" fill="srgba(20.3296%,57.612%,3.16777%,1)"/>
  <circle cx="14" cy="1" r="1" fill="srgba(20.3281%,57.6104%,3.16625%,1)"/>
  <circle cx="15" cy="1" r="1" fill="srgba(20.3525%,57.6272%,3.19829%,1)"/>
  <circle cx="0" cy="2" r="1" fill="white"/>
  <circle cx="1" cy="2" r="1" fill="white"/>
  <circle cx="2" cy="2" r="1" fill="srgba(89.7429%,89.3172%,90.0114%,1)"/>
  <circle cx="3" cy="2" r="1" fill="srgba(45.1637%,49.5964%,42.4811%,1)"/>
  <circle cx="4" cy="2" r="1" fill="srgba(41.5473%,47.7287%,4.56245%,1)"/>
  <circle cx="5" cy="2" r="1" fill="srgba(71.9646%,72.2255%,0.442512%,1)"/>
  <circle cx="6" cy="2" r="1" fill="srgba(75.285%,75.1034%,1.28786%,1)"/>
  <circle cx="7" cy="2" r="1" fill="srgba(74.5205%,74.4717%,1.27871%,1)"/>
  <circle cx="8" cy="2" r="1" fill="srgba(74.5388%,74.4869%,1.27871%,1)"/>
  <circle cx="9" cy="2" r="1" fill="srgba(74.5388%,74.4869%,1.27871%,1)"/>
  <circle cx="10" cy="2" r="1" fill="srgba(74.5388%,74.4869%,1.27871%,1)"/>
  <circle cx="11" cy="2" r="1" fill="srgba(74.5388%,74.4869%,1.27871%,1)"/>
  <circle cx="12" cy="2" r="1" fill="srgba(74.5388%,74.4869%,1.27871%,1)"/>
  <circle cx="13" cy="2" r="1" fill="srgba(74.5388%,74.4869%,1.27871%,1)"/>
  <circle cx="14" cy="2" r="1" fill="srgba(74.5388%,74.4869%,1.27718%,1)"/>
  <circle cx="15" cy="2" r="1" fill="srgba(74.5464%,74.4976%,1.30922%,1)"/>
  <circle cx="0" cy="3" r="1" fill="white"/>
  <circle cx="1" cy="3" r="1" fill="srgba(99.9802%,99.9893%,100%,1)"/>
  <circle cx="2" cy="3" r="1" fill="white"/>
  <circle cx="3" cy="3" r="1" fill="srgba(96.5682%,95.4223%,95.906%,1)"/>
  <circle cx="4" cy="3" r="1" fill="srgba(66.0456%,62.5025%,58.8174%,1)"/>
  <circle cx="5" cy="3" r="1" fill="srgba(56.994%,48.3436%,11.8746%,1)"/>
  <circle cx="6" cy="3" r="1" fill="srgba(90.7958%,74.3908%,0%,1)"/>
  <circle cx="7" cy="3" r="1" fill="srgba(100%,84.2054%,0%,1)"/>
  <circle cx="8" cy="3" r="1" fill="srgba(100%,83.9628%,0%,1)"/>
  <circle cx="9" cy="3" r="1" fill="srgba(100%,83.9475%,0%,1)"/>
  <circle cx="10" cy="3" r="1" fill="srgba(100%,83.9475%,0%,1)"/>
  <circle cx="11" cy="3" r="1" fill="srgba(100%,83.9475%,0%,1)"/>
  <circle cx="12" cy="3" r="1" fill="srgba(100%,83.9475%,0%,1)"/>
  <circle cx="13" cy="3" r="1" fill="srgba(100%,83.9475%,0%,1)"/>
  <circle cx="14" cy="3" r="1" fill="srgba(100%,83.9475%,0%,1)"/>
  <circle cx="15" cy="3" r="1" fill="srgba(100%,83.9551%,0.0274662%,1)"/>
  <circle cx="0" cy="4" r="1" fill="white"/>
  <circle cx="1" cy="4" r="1" fill="srgba(97.5723%,96.7163%,88.7556%,1)"/>
  <circle cx="2" cy="4" r="1" fill="srgba(92.6558%,88.893%,51.1208%,1)"/>
  <circle cx="3" cy="4" r="1" fill="srgba(96.6598%,90.2571%,79.8627%,1)"/>
  <circle cx="4" cy="4" r="1" fill="srgba(96.4752%,79.8474%,79.7116%,1)"/>
  <circle cx="5" cy="4" r="1" fill="srgba(78.3505%,78.6969%,78.9471%,1)"/>
  <circle cx="6" cy="4" r="1" fill="srgba(51.2093%,46.4057%,25.5482%,1)"/>
  <circle cx="7" cy="4" r="1" fill="srgba(75.5596%,48.3635%,1.51675%,1)"/>
  <circle cx="8" cy="4" r="1" fill="srgba(94.8165%,52.0882%,2.91142%,1)"/>
  <circle cx="9" cy="4" r="1" fill="srgba(94.6746%,52.3476%,3.28374%,1)"/>
  <circle cx="10" cy="4" r="1" fill="srgba(94.4076%,52.2957%,3.2517%,1)"/>
  <circle cx="11" cy="4" r="1" fill="srgba(94.4182%,52.2972%,3.2517%,1)"/>
  <circle cx="12" cy="4" r="1" fill="srgba(94.4182%,52.2972%,3.2517%,1)"/>
  <circle cx="13" cy="4" r="1" fill="srgba(94.4182%,52.2972%,3.2517%,1)"/>
  <circle cx="14" cy="4" r="1" fill="srgba(94.4182%,52.2957%,3.25017%,1)"/>
  <circle cx="15" cy="4" r="1" fill="srgba(94.4213%,52.311%,3.28222%,1)"/>
  <circle cx="0" cy="5" r="1" fill="srgba(99.9969%,100%,100%,1)"/>
  <circle cx="1" cy="5" r="1" fill="srgba(94.9981%,91.4%,58.1384%,1)"/>
  <circle cx="2" cy="5" r="1" fill="srgba(94.1894%,85.2293%,0%,1)"/>
  <circle cx="3" cy="5" r="1" fill="srgba(91.3039%,79.5254%,31.3939%,1)"/>
  <circle cx="4" cy="5" r="1" fill="srgba(90.5241%,55.8404%,50.7042%,1)"/>
  <circle cx="5" cy="5" r="1" fill="srgba(99.8642%,97.8073%,98.0484%,1)"/>
  <circle cx="6" cy="5" r="1" fill="srgba(89.6849%,90.1717%,90.9743%,1)"/>
  <circle cx="7" cy="5" r="1" fill="srgba(53.7804%,44.5151%,44.5136%,1)"/>
  <circle cx="8" cy="5" r="1" fill="srgba(57.2808%,10.8217%,7.59136%,1)"/>
  <circle cx="9" cy="5" r="1" fill="srgba(84.2435%,10.8034%,5.30556%,1)"/>
  <circle cx="10" cy="5" r="1" fill="srgba(88.3207%,12.1996%,6.47745%,1)"/>
  <circle cx="11" cy="5" r="1" fill="srgba(88.0781%,12.1508%,6.44541%,1)"/>
  <circle cx="12" cy="5" r="1" fill="srgba(88.0812%,12.1508%,6.44541%,1)"/>
  <circle cx="13" cy="5" r="1" fill="srgba(88.0812%,12.1508%,6.44541%,1)"/>
  <circle cx="14" cy="5" r="1" fill="srgba(88.0812%,12.1492%,6.44388%,1)"/>
  <circle cx="15" cy="5" r="1" fill="srgba(88.0888%,12.1736%,6.47593%,1)"/>
  <circle cx="0" cy="6" r="1" fill="srgba(99.9329%,100%,100%,1)"/>
  <circle cx="1" cy="6" r="1" fill="srgba(95.2224%,91.223%,54.2596%,1)"/>
  <circle cx="2" cy="6" r="1" fill="srgba(94.8318%,85.5497%,0%,1)"/>
  <circle cx="3" cy="6" r="1" fill="srgba(93.7499%,83.7232%,0.619516%,1)"/>
  <circle cx="4" cy="6" r="1" fill="srgba(91.4076%,71.1864%,13.5607%,1)"/>
  <circle cx="5" cy="6" r="1" fill="srgba(96.4218%,91.9936%,79.0082%,1)"/>
  <circle cx="6" cy="6" r="1" fill="white"/>
  <circle cx="7" cy="6" r="1" fill="srgba(96.8307%,97.4456%,97.5067%,1)"/>
  <circle cx="8" cy="6" r="1" fill="srgba(65.8442%,63.4363%,63.2364%,1)"/>
  <circle cx="9" cy="6" r="1" fill="srgba(49.247%,17.8378%,15.1949%,1)"/>
  <circle cx="10" cy="6" r="1" fill="srgba(66.5675%,9.03029%,4.18402%,1)"/>
  <circle cx="11" cy="6" r="1" fill="srgba(69.0471%,10.3822%,5.44137%,1)"/>
  <circle cx="12" cy="6" r="1" fill="srgba(68.9448%,10.3716%,5.43832%,1)"/>
  <circle cx="13" cy="6" r="1" fill="srgba(68.9448%,10.3716%,5.43832%,1)"/>
  <circle cx="14" cy="6" r="1" fill="srgba(68.9448%,10.37%,5.43679%,1)"/>
  <circle cx="15" cy="6" r="1" fill="srgba(68.957%,10.396%,5.46883%,1)"/>
  <circle cx="0" cy="7" r="1" fill="srgba(99.9359%,100%,100%,1)"/>
  <circle cx="1" cy="7" r="1" fill="srgba(95.2132%,91.2383%,54.3145%,1)"/>
  <circle cx="2" cy="7" r="1" fill="srgba(94.1619%,84.9042%,0%,1)"/>
  <circle cx="3" cy="7" r="1" fill="srgba(91.2673%,82.4582%,0%,1)"/>
  <circle cx="4" cy="7" r="1" fill="srgba(90.6645%,82.3178%,0%,1)"/>
  <circle cx="5" cy="7" r="1" fill="srgba(92.6329%,85.1652%,15.4772%,1)"/>
  <circle cx="6" cy="7" r="1" fill="srgba(95.2773%,92.8618%,70.4433%,1)"/>
  <circle cx="7" cy="7" r="1" fill="srgba(99.8932%,99.9084%,100%,1)"/>
  <circle cx="8" cy="7" r="1" fill="srgba(99.8688%,100%,100%,1)"/>
  <circle cx="9" cy="7" r="1" fill="srgba(80.7324%,80.914%,80.9293%,1)"/>
  <circle cx="10" cy="7" r="1" fill="srgba(27.6768%,24.445%,24.1718%,1)"/>
  <circle cx="11" cy="7" r="1" fill="srgba(3.98413%,0.265507%,0%,1)"/>
  <circle cx="12" cy="7" r="1" fill="srgba(4.5655%,0.875868%,0.563058%,1)"/>
  <circle cx="13" cy="7" r="1" fill="srgba(4.5716%,0.881971%,0.569162%,1)"/>
  <circle cx="14" cy="7" r="1" fill="srgba(4.57008%,0.880446%,0.567636%,1)"/>
  <circle cx="15" cy="7" r="1" fill="srgba(4.6006%,0.91249%,0.59968%,1)"/>
  <circle cx="0" cy="8" r="1" fill="white"/>
  <circle cx="1" cy="8" r="1" fill="srgba(94.2275%,90.3471%,54.3145%,1)"/>
  <circle cx="2" cy="8" r="1" fill="srgba(87.1275%,78.5519%,0%,1)"/>
  <circle cx="3" cy="8" r="1" fill="srgba(79.0402%,71.3588%,0%,1)"/>
  <circle cx="4" cy="8" r="1" fill="srgba(76.3592%,68.9372%,0%,1)"/>
  <circle cx="5" cy="8" r="1" fill="srgba(82.6444%,74.406%,0%,1)"/>
  <circle cx="6" cy="8" r="1" fill="srgba(86.5095%,80.5676%,25.8183%,1)"/>
  <circle cx="7" cy="8" r="1" fill="srgba(94.0169%,93.8186%,92.0577%,1)"/>
  <circle cx="8" cy="8" r="1" fill="srgba(95.3521%,95.6268%,95.7549%,1)"/>
  <circle cx="9" cy="8" r="1" fill="srgba(77.5753%,77.7615%,77.7768%,1)"/>
  <circle cx="10" cy="8" r="1" fill="srgba(27.599%,24.3046%,24.0269%,1)"/>
  <circle cx="11" cy="8" r="1" fill="srgba(4.06043%,0.288396%,0%,1)"/>
  <circle cx="12" cy="8" r="1" fill="srgba(4.63874%,0.894179%,0.578317%,1)"/>
  <circle cx="13" cy="8" r="1" fill="srgba(4.64485%,0.900282%,0.584421%,1)"/>
  <circle cx="14" cy="8" r="1" fill="srgba(4.64332%,0.898756%,0.582895%,1)"/>
  <circle cx="15" cy="8" r="1" fill="srgba(4.67384%,0.929274%,0.613413%,1)"/>
  <circle cx="0" cy="9" r="1" fill="white"/>
  <circle cx="1" cy="9" r="1" fill="srgba(92.2972%,88.6046%,54.3145%,1)"/>
  <circle cx="2" cy="9" r="1" fill="srgba(85.9892%,77.528%,0%,1)"/>
  <circle cx="3" cy="9" r="1" fill="srgba(81.7075%,73.7697%,0%,1)"/>
  <circle cx="4" cy="9" r="1" fill="srgba(81.6907%,73.753%,0%,1)"/>
  <circle cx="5" cy="9" r="1" fill="srgba(82.2324%,74.0978%,0%,1)"/>
  <circle cx="6" cy="9" r="1" fill="srgba(89.8741%,83.6835%,26.3294%,1)"/>
  <circle cx="7" cy="9" r="1" fill="srgba(93.0617%,93.5592%,91.8791%,1)"/>
  <circle cx="8" cy="9" r="1" fill="srgba(62.1439%,59.6597%,59.5529%,1)"/>
  <circle cx="9" cy="9" r="1" fill="srgba(47.5196%,15.8389%,13.1746%,1)"/>
  <circle cx="10" cy="9" r="1" fill="srgba(66.7689%,9.09743%,4.24201%,1)"/>
  <circle cx="11" cy="9" r="1" fill="srgba(69.1707%,10.4143%,5.46578%,1)"/>
  <circle cx="12" cy="9" r="1" fill="srgba(69.07%,10.4036%,5.46273%,1)"/>
  <circle cx="13" cy="9" r="1" fill="srgba(69.07%,10.4036%,5.46273%,1)"/>
  <circle cx="14" cy="9" r="1" fill="srgba(69.07%,10.4021%,5.4612%,1)"/>
  <circle cx="15" cy="9" r="1" fill="srgba(69.0806%,10.4265%,5.49172%,1)"/>
  <circle cx="0" cy="10" r="1" fill="white"/>
  <circle cx="1" cy="10" r="1" fill="srgba(91.899%,88.246%,54.3145%,1)"/>
  <circle cx="2" cy="10" r="1" fill="srgba(90.9819%,82.034%,0%,1)"/>
  <circle cx="3" cy="10" r="1" fill="srgba(96.4996%,87.1229%,0%,1)"/>
  <circle cx="4" cy="10" r="1" fill="srgba(96.7025%,87.306%,0%,1)"/>
  <circle cx="5" cy="10" r="1" fill="srgba(96.8582%,87.3396%,0%,1)"/>
  <circle cx="6" cy="10" r="1" fill="srgba(87.2114%,81.0254%,21.239%,1)"/>
  <circle cx="7" cy="10" r="1" fill="srgba(53.2311%,43.6744%,42.3102%,1)"/>
  <circle cx="8" cy="10" r="1" fill="srgba(57.7554%,11.0521%,7.86755%,1)"/>
  <circle cx="9" cy="10" r="1" fill="srgba(84.4648%,10.9712%,5.45052%,1)"/>
  <circle cx="10" cy="10" r="1" fill="srgba(88.3131%,12.2179%,6.48051%,1)"/>
  <circle cx="11" cy="10" r="1" fill="srgba(88.0751%,12.1721%,6.44999%,1)"/>
  <circle cx="12" cy="10" r="1" fill="srgba(88.0781%,12.1721%,6.44999%,1)"/>
  <circle cx="13" cy="10" r="1" fill="srgba(88.0781%,12.1721%,6.44999%,1)"/>
  <circle cx="14" cy="10" r="1" fill="srgba(88.0781%,12.1706%,6.44846%,1)"/>
  <circle cx="15" cy="10" r="1" fill="srgba(88.0858%,12.195%,6.48051%,1)"/>
  <circle cx="0" cy="11" r="1" fill="white"/>
  <circle cx="1" cy="11" r="1" fill="srgba(91.8898%,88.2383%,54.3145%,1)"/>
  <circle cx="2" cy="11" r="1" fill="srgba(91.5496%,82.5498%,0%,1)"/>
  <circle cx="3" cy="11" r="1" fill="srgba(97.1435%,87.7043%,0%,1)"/>
  <circle cx="4" cy="11" r="1" fill="srgba(96.875%,87.4617%,0%,1)"/>
  <circle cx="5" cy="11" r="1" fill="srgba(97.6059%,88.2155%,0%,1)"/>
  <circle cx="6" cy="11" r="1" fill="srgba(81.6403%,72.343%,1.30312%,1)"/>
  <circle cx="7" cy="11" r="1" fill="srgba(76.1501%,48.9891%,1.8265%,1)"/>
  <circle cx="8" cy="11" r="1" fill="srgba(94.8623%,52.2759%,2.99382%,1)"/>
  <circle cx="9" cy="11" r="1" fill="srgba(94.7005%,52.5399%,3.33715%,1)"/>
  <circle cx="10" cy="11" r="1" fill="srgba(94.4396%,52.4895%,3.3051%,1)"/>
  <circle cx="11" cy="11" r="1" fill="srgba(94.4503%,52.491%,3.3051%,1)"/>
  <circle cx="12" cy="11" r="1" fill="srgba(94.4503%,52.491%,3.3051%,1)"/>
  <circle cx="13" cy="11" r="1" fill="srgba(94.4503%,52.491%,3.3051%,1)"/>
  <circle cx="14" cy="11" r="1" fill="srgba(94.4503%,52.4895%,3.30358%,1)"/>
  <circle cx="15" cy="11" r="1" fill="srgba(94.4533%,52.5048%,3.33562%,1)"/>
  <circle cx="0" cy="12" r="1" fill="white"/>
  <circle cx="1" cy="12" r="1" fill="srgba(91.9341%,88.278%,54.3145%,1)"/>
  <circle cx="2" cy="12" r="1" fill="srgba(91.4748%,82.4796%,0%,1)"/>
  <circle cx="3" cy="12" r="1" fill="srgba(97.1084%,87.6722%,0%,1)"/>
  <circle cx="4" cy="12" r="1" fill="srgba(247,223,0,1)"/>
  <circle cx="5" cy="12" r="1" fill="srgba(96.8658%,87.5669%,0%,1)"/>
  <circle cx="6" cy="12" r="1" fill="srgba(94.6883%,83.3371%,0%,1)"/>
  <circle cx="7" cy="12" r="1" fill="srgba(99.1485%,83.2776%,0%,1)"/>
  <circle cx="8" cy="12" r="1" fill="srgba(100%,83.9948%,0%,1)"/>
  <circle cx="9" cy="12" r="1" fill="srgba(100%,83.9506%,0%,1)"/>
  <circle cx="10" cy="12" r="1" fill="srgba(100%,83.9506%,0%,1)"/>
  <circle cx="11" cy="12" r="1" fill="srgba(100%,83.9506%,0%,1)"/>
  <circle cx="12" cy="12" r="1" fill="srgba(100%,83.9506%,0%,1)"/>
  <circle cx="13" cy="12" r="1" fill="srgba(100%,83.9506%,0%,1)"/>
  <circle cx="14" cy="12" r="1" fill="srgba(100%,83.9506%,0%,1)"/>
  <circle cx="15" cy="12" r="1" fill="srgba(100%,83.9582%,0.0274662%,1)"/>
  <circle cx="0" cy="13" r="1" fill="white"/>
  <circle cx="1" cy="13" r="1" fill="srgba(91.9799%,88.3207%,54.3297%,1)"/>
  <circle cx="2" cy="13" r="1" fill="srgba(91.4412%,82.4521%,0%,1)"/>
  <circle cx="3" cy="13" r="1" fill="srgba(97.1115%,87.6753%,0%,1)"/>
  <circle cx="4" cy="13" r="1" fill="srgba(247,223,0,1)"/>
  <circle cx="5" cy="13" r="1" fill="srgba(97.2839%,87.7089%,0%,1)"/>
  <circle cx="6" cy="13" r="1" fill="srgba(86.3233%,80.3281%,0.456245%,1)"/>
  <circle cx="7" cy="13" r="1" fill="srgba(74.2%,74.0398%,1.37331%,1)"/>
  <circle cx="8" cy="13" r="1" fill="srgba(74.7478%,74.5983%,1.3901%,1)"/>
  <circle cx="9" cy="13" r="1" fill="srgba(74.728%,74.5769%,1.38857%,1)"/>
  <circle cx="10" cy="13" r="1" fill="srgba(74.728%,74.5769%,1.38857%,1)"/>
  <circle cx="11" cy="13" r="1" fill="srgba(74.728%,74.5769%,1.38857%,1)"/>
  <circle cx="12" cy="13" r="1" fill="srgba(74.728%,74.5769%,1.38857%,1)"/>
  <circle cx="13" cy="13" r="1" fill="srgba(74.728%,74.5769%,1.38857%,1)"/>
  <circle cx="14" cy="13" r="1" fill="srgba(74.728%,74.5769%,1.38705%,1)"/>
  <circle cx="15" cy="13" r="1" fill="srgba(74.7356%,74.5861%,1.41909%,1)"/>
  <circle cx="0" cy="14" r="1" fill="srgba(98.7442%,98.8617%,100%,1)"/>
  <circle cx="1" cy="14" r="1" fill="srgba(86.8956%,83.1113%,49.2744%,1)"/>
  <circle cx="2" cy="14" r="1" fill="srgba(91.3573%,82.3682%,0%,1)"/>
  <circle cx="3" cy="14" r="1" fill="srgba(97.1176%,87.6799%,0%,1)"/>
  <circle cx="4" cy="14" r="1" fill="srgba(96.8643%,87.4556%,0%,1)"/>
  <circle cx="5" cy="14" r="1" fill="srgba(98.2055%,87.9911%,0%,1)"/>
  <circle cx="6" cy="14" r="1" fill="srgba(67.7974%,74.4427%,1.07424%,1)"/>
  <circle cx="7" cy="14" r="1" fill="srgba(20.3235%,57.261%,3.16167%,1)"/>
  <circle cx="8" cy="14" r="1" fill="srgba(20.354%,57.6394%,3.19066%,1)"/>
  <circle cx="9" cy="14" r="1" fill="srgba(20.3723%,57.6318%,3.18914%,1)"/>
  <circle cx="10" cy="14" r="1" fill="srgba(20.3723%,57.6318%,3.18914%,1)"/>
  <circle cx="11" cy="14" r="1" fill="srgba(20.3723%,57.6318%,3.18914%,1)"/>
  <circle cx="12" cy="14" r="1" fill="srgba(20.3723%,57.6318%,3.18914%,1)"/>
  <circle cx="13" cy="14" r="1" fill="srgba(20.3723%,57.6318%,3.18914%,1)"/>
  <circle cx="14" cy="14" r="1" fill="srgba(20.3708%,57.6303%,3.18761%,1)"/>
  <circle cx="15" cy="14" r="1" fill="srgba(20.3952%,57.6471%,3.21965%,1)"/>
  <circle cx="0" cy="15" r="1" fill="srgba(61.4221%,62.591%,62.6246%,1)"/>
  <circle cx="1" cy="15" r="1" fill="srgba(51.9356%,52.0317%,12.6879%,1)"/>
  <circle cx="2" cy="15" r="1" fill="srgba(91.8746%,82.9892%,0%,1)"/>
  <circle cx="3" cy="15" r="1" fill="srgba(97.0474%,87.6249%,0.0106813%,1)"/>
  <circle cx="4" cy="15" r="1" fill="srgba(96.846%,87.3579%,0.015259%,1)"/>
  <circle cx="5" cy="15" r="1" fill="srgba(98.1964%,87.895%,0%,1)"/>
  <circle cx="6" cy="15" r="1" fill="srgba(66.2974%,73.8598%,1.149%,1)"/>
  <circle cx="7" cy="15" r="1" fill="srgba(19.0188%,56.8704%,3.24102%,1)"/>
  <circle cx="8" cy="15" r="1" fill="srgba(19.2264%,57.2885%,3.25933%,1)"/>
  <circle cx="9" cy="15" r="1" fill="srgba(19.2386%,57.2808%,3.2578%,1)"/>
  <circle cx="10" cy="15" r="1" fill="srgba(19.2386%,57.2808%,3.2578%,1)"/>
  <circle cx="11" cy="15" r="1" fill="srgba(19.2386%,57.2808%,3.2578%,1)"/>
  <circle cx="12" cy="15" r="1" fill="srgba(19.2386%,57.2808%,3.2578%,1)"/>
  <circle cx="13" cy="15" r="1" fill="srgba(19.2386%,57.2808%,3.2578%,1)"/>
  <circle cx="14" cy="15" r="1" fill="srgba(19.237%,57.2793%,3.25628%,1)"/>
  <circle cx="15" cy="15" r="1" fill="srgba(19.2615%,57.2961%,3.28832%,1)"/>
</svg>
